<?xml version="1.0" standalone="no"?><!DOCTYPE svg PUBLIC "-//W3C//DTD SVG 1.1//EN" "http://www.w3.org/Graphics/SVG/1.1/DTD/svg11.dtd"><svg width="100%" height="100%" viewBox="0 0 378 504" version="1.1" xmlns="http://www.w3.org/2000/svg" xmlns:xlink="http://www.w3.org/1999/xlink" xml:space="preserve" style="fill-rule:evenodd;clip-rule:evenodd;stroke-linecap:round;stroke-linejoin:round;stroke-miterlimit:1.41421;"><path id="boundary" d="M147.168,364.26l-1.316,-0.101l-1.914,-2.262l-2.145,-4.25l0.195,-5.09l2.418,-1.089l1.34,-0.227l3.563,1.051l1.472,3.57l4.508,0.926l-1.48,2.355l-3.082,1.957l-3.559,3.16ZM141.477,359.159l-0.731,-0.805l-1.773,-1.109l-0.403,-0.926l0.426,-0.824l1.344,-0.047l0.887,1.148l0.742,1.875l-0.492,0.688ZM137.676,323.718l-0.258,-0.512l2.141,-6.278l2.484,-1.621l2.465,-4.793l1.097,-0.824l3.184,-1.137l1.156,5.184l-2.355,4.695l-2.535,2.489l-3.453,2.382l-2.036,-0.554l-1.89,0.969ZM286.422,439.921l-3.621,-0.661l-0.895,-1.371l0.321,-1.535l4.355,0.985l1.121,1.777l-1.281,0.805ZM135.953,448.737l-0.281,-0.312l0.18,-1.192l0.289,-0.074l0.289,1.332l-0.477,0.246ZM236.578,466.397l-1.699,-0.469l1.387,-1.96l0.672,0.48l0.304,1.676l-0.664,0.273ZM227.859,474.928l-5.82,-3.757l-2.09,0.3l1.27,-1.503l5.84,-3.317l5.234,1.395l1.621,2.132l-2.93,3.727l-1.281,0.648l-1.844,0.375ZM88.172,500.331l0.137,-0.738l0.375,-0.192l0.402,0.672l-0.914,0.258ZM232.844,39.268l-2.133,-0.011l-0.645,-0.579l0.493,-4.601l1.242,-2.184l1.523,0.145l0.817,0.488l0.214,0.477l-1.511,6.265ZM227.238,47.464l-0.754,-0.157l-0.664,-1.625l-0.289,-4.156l1.457,-4.433l1.117,-0.235l1.399,0.449l0.223,2.961l-0.809,6.598l-1.68,0.598ZM225.766,58.737l1.222,3.316l-0.445,0.692l-0.516,-0.223l-0.879,1.5l-0.14,3.469l-0.957,7.41l-0.836,-0.266l-1.563,-1.917l1,-4.231l0.52,-0.559l0.879,-4.074l-0.676,-5.797l-2.555,-0.562l1.012,1.082l0.129,1.605l-1.926,1.805l-1.555,-1.297l0.008,-0.851l-3.125,-1.266l-0.617,-2.105l0.035,-0.372l0.77,-0.64l4.887,-0.828l1.726,-0.817l0.539,-0.715l-2.723,-4.472l-3.539,-0.668l0.387,-1.348l3.731,-4.226l2.41,-1.391l0.316,1.004l-0.125,5.281l0.211,0.859l5.332,1.098l-1.262,7.285l-1.343,0.774l-0.668,-0.532l0.336,1.977ZM188.75,101.737l0.113,-1.187l-1.39,-1.207l-0.778,-0.165l-0.117,0.622l-0.5,0.496l-1.656,-3.059l3.933,1.422l1.032,1.383l-0.086,0.801l-0.551,0.894ZM192.969,103.706l-0.09,-1.309l2.195,-3.265l0.824,-0.532l3.387,-0.398l0.262,1.43l-2.34,1.484l-2.769,0.359l-1.469,2.231ZM189.738,116.846l-3.218,-2.656l-1.946,0.125l-2.945,1.067l-3.465,-2.477l-0.457,-2.094l0.481,-4.129l0.742,-0.824l2.566,-0.781l2.766,1.211l1.711,2.269l1.093,3.098l2.102,1.012l1.309,1.058l0.812,1.461l-1.551,1.66ZM180.559,121.171l-1.555,-0.141l-2.832,-4.086l0.32,-1.41l0.457,-0.555l1.406,-0.414l2.657,2.356l1.699,3.05l-0.027,0.754l-2.125,0.446ZM187.078,123.241l-0.898,-0.887l-1.235,-2.945l0.739,-0.637l2.359,-0.195l0.492,0.785l-0.883,3.719l-0.574,0.16ZM105.539,153.733l-0.023,0.344l-2.301,1.098l-2.067,-0.696l-0.703,-1.926l-0.05,-1.734l1.191,-1.613l1.582,-0.035l-2.129,-0.473l-1.937,2.426l0.742,2.097l0.918,1.051l0.258,2.09l-1.844,2.238l-5.906,3.91l-2.977,-4.05l-0.043,-1.028l1.313,0.832l5.66,-3.05l-1.028,-1.446l-1.218,-0.832l-1.118,-0.504l-1.175,0.176l-0.883,-0.461l-0.785,-0.988l1.425,-1.469l-1.281,-5.058l1.848,-3.567l0.676,-0.719l2.734,1.297l-0.715,1.02l1.426,3.75l-0.027,-3.238l1.605,-0.633l1.215,0.547l0.164,-0.508l-1.25,-2.797l-0.156,-0.891l0.523,-0.922l2.969,-1.824l0.473,0.055l0.097,0.297l2.254,-0.774l5.75,-4.632l1.242,-1.379l0.774,0.761l1.097,3.348l-1.789,4.34l-2.222,2.199l-0.18,1.211l1.133,0.621l1.308,-0.387l1.278,-1.086l0.453,0.364l-0.352,1.468l-1.605,1.403l-0.906,0.246l-1.473,-0.359l-0.922,0.984l-0.434,1.223l-2.718,1.214l-2.852,0.481l0.57,0.195l2.262,-0.242l2.348,-0.59l0.765,3.152l-2.562,2.645l-0.422,0.828ZM97.957,142.225l-0.762,-0.25l-0.234,-2.011l0.801,0.164l1.258,1.476l-0.047,0.633l-1.016,-0.012ZM91.566,155.8l0.059,-0.79l1,-0.769l0.906,-0.066l-0.41,1.585l-1.555,0.04ZM56.777,156.229l-0.804,-0.418l-0.071,-0.863l1.426,0.574l-0.551,0.707ZM87.98,163.147l-0.32,-0.277l0.528,-0.695l0.921,-0.34l0.289,0.687l-1.418,0.625ZM86.645,171.639l-2.028,-0.23l0.039,-1.684l-1.918,-1.187l-1.531,0.117l-1.375,-1.219l-0.043,-0.328l1.57,-2.316l4.84,0.191l0.766,-0.832l1.332,-0.344l2.469,2.137l0.191,0.402l-2.277,4.954l-0.164,0.23l-1.871,0.109ZM117.832,190.968l-2.055,2.765l-2.011,0.594l-0.453,-1.434l1.613,-3.172l-1.203,-2.113l-1.231,2.235l-2.207,-2.145l-3.265,0.363l-2.805,-4.761l-0.692,-1.766l1.684,-1.274l1.715,1.7l0.488,0.066l0.121,-0.281l-4.914,-4.828l-1.008,0.976l0.141,1.481l-0.336,0.711l-3.023,-1.711l-0.235,-1.559l-1.133,-1.234l-0.128,-0.863l3.878,-6.465l0.5,0.07l0.805,0.992l0.383,1.613l2.066,1.762l0.766,0.219l1.316,-0.746l-0.25,-3.418l-0.496,-1.535l1.883,-1.922l0.961,0l2.645,3.269l0.746,2.051l-0.055,3.617l-0.469,3.446l0.223,4.254l5.445,3.218l3.274,-1.414l2.394,0.973l-0.699,2.422l-3.32,3.41l-1.059,0.434ZM115.961,173.124l-0.387,-0.406l0,-0.723l0.254,-0.922l0.508,-0.512l0.172,0.348l-0.547,2.215ZM113.617,181.241l-0.344,-0.102l-0.253,-0.992l0.363,-3.512l1.117,-2.585l0.707,-0.68l0.566,0.73l-0.664,6.125l-0.421,0.625l-1.071,0.391ZM85.137,176.12l-0.848,-0.235l-1.5,-1.093l-0.324,-0.809l0.101,-1.109l1.149,-0.801l2.594,0.719l0.867,0.742l-0.149,1.976l-1.89,0.61ZM85.797,188.44l-0.43,0.82l-1.297,-0.593l-1.64,0.172l-0.559,-0.454l-0.207,-0.726l-0.406,-2.703l0.531,-8.438l1.391,-0.718l1.843,1.023l1.297,1.809l-0.695,0.597l-0.738,-0.469l-0.114,0.583l0.11,7.378l0.914,1.719ZM115.949,183.397l-1.144,-0.523l-0.469,-0.676l0.102,-0.473l0.648,-0.226l1.32,0.543l0.223,0.89l-0.68,0.465ZM100.445,192.55l-0.453,-0.344l1.266,-0.649l1.32,0.559l-2.133,0.434ZM79.285,195.456l-1.941,-0.449l-0.184,-0.567l3.024,-3.887l0.675,0.668l0.692,2.774l-1.606,1.43l-0.66,0.031ZM106.34,197.682l-1.016,-0.593l-1.969,-2.543l1.731,-1.871l1.379,-0.176l1.269,0.621l0.454,0.867l-0.352,2.648l-0.547,0.665l-0.949,0.382ZM109.902,200.718l-1.187,-0.856l-0.035,-0.687l1.64,-1.711l0.821,0.589l0.101,0.497l-0.371,1.589l-0.969,0.579ZM96.719,213.44l-0.414,-1.086l2.179,-2.211l2.61,-1.894l1.265,-0.215l0.036,0.445l-1.266,2.25l-1.961,1.672l-2.449,1.039ZM110.336,210.214l1.383,0.707l1.312,2.351l0.496,1.711l2.672,1.246l1.473,0.356l3.266,2.843l-0.293,2.063l-1.457,2.133l-3.11,1.691l-0.883,-0.492l0.684,-1.199l-0.711,-0.223l-3.316,1.852l-6.082,1.617l-1.336,-0.313l-0.957,-1.996l0.117,-0.906l0.34,-0.277l1.437,-0.043l0.41,0.566l0.934,0.457l5.242,-1.91l-0.18,-0.574l-2.172,0.855l-1.664,0.043l-0.375,-0.949l1.563,-2.066l3.215,-1.516l0.304,-1.137l-0.351,-0.121l-2.649,0.82l-4.847,-3.445l0.578,-2.406l3.277,-1.527l1.117,-0.352l0.563,0.141ZM91.258,218.124l-1.863,-0.594l-0.239,-2.133l0.774,-0.594l5,-1.136l0.484,1.211l-1.867,0.254l-1.785,1.449l-0.504,1.543ZM107.879,218.358l-0.93,-0.383l-0.453,-0.531l0.582,-0.781l0.75,0.129l1.02,1.011l-0.035,0.301l-0.934,0.254ZM123.121,222.702l-0.797,-0.34l0.5,-0.887l1.395,-0.144l-1.098,1.371ZM102.406,224.796l-0.609,-0.414l0.535,-0.868l0.715,-0.421l0.156,0.214l-0.797,1.489ZM121.195,227.393l-0.3,-0.136l-0.168,-1.352l0.609,-0.82l0.773,0.015l-0.414,1.805l-0.5,0.488ZM120.645,230.85l-0.586,-1.293l0.66,-1.886l0.84,0.297l-0.914,2.882ZM118.246,231.956l-0.348,-0.223l0.379,-0.625l1.383,-0.66l0.035,1.094l-1.449,0.414ZM111.629,247.577l-1.336,-0.223l-1.074,-0.926l-0.184,-2.859l0.293,-1.195l2.977,-4.934l4.043,-3.496l2.59,-1.637l0.437,1.106l-0.184,0.816l-1.433,1.785l-4.254,7.598l-1.875,3.965ZM106.719,236.917l-1.5,-0.442l0.804,-1.726l1.559,-1.555l1.043,-0.176l-1.348,3.453l-0.558,0.446ZM103.707,256.428l-1.25,-0.796l2.273,-7.875l-2.007,-0.368l-1.516,2.633l-1.477,1.508l-0.898,0.445l-0.551,-0.625l0.485,-2.191l1.636,-5.09l1.786,-0.57l1.437,0.344l2.988,-2.102l1.563,-0.648l0.234,0.527l-0.187,1.84l0.297,3.117l0.269,1.027l0.883,0.906l0.406,3.625l-1.344,1.258l-5.027,3.035ZM134.555,251.632l-2.223,-2.512l-1.746,-4.27l-0.137,-1.101l0.754,-0.852l2.258,1.961l0.988,1.738l0.633,2.692l-0.117,1.965l-0.41,0.379ZM130.355,264.057l-1.46,-0.105l-2.571,-2.055l-1.207,-5.484l0.613,-2.91l2.192,-1.973l1.359,0.195l1.852,1.575l1.594,5.367l0.035,4.383l-0.711,0.687l-1.696,0.32ZM190.313,430.272l-1.348,1.461l-3.594,1.508l-1.914,0.289l-1.273,-0.184l-4.047,2.168l-0.996,1.579l-0.36,1.863l-0.593,0.601l-2.387,0.645l-3.5,-0.067l-3.738,-0.851l-0.473,-0.348l-4.977,-5.277l-2.34,-4.176l-3.375,0.391l-6.386,2.719l-0.157,0.437l-1.91,-1.113l-0.285,-2.324l1.621,-0.93l1.528,0.512l1.574,-0.469l1.125,-0.59l0.32,-0.734l-0.277,-0.5l-5.024,-0.137l-4.574,-2.75l-3.707,0.004l-2.738,0.562l-0.473,2.239l-0.515,0.687l-2.036,0.715l-1.347,-0.652l-0.746,0.187l-2.211,1.926l-2.907,-1.246l0.895,-2.051l1.371,-0.25l2.996,-1.504l-0.566,-1.461l-0.586,1.391l-2.871,0.355l-4.821,-0.461l-1.453,-0.988l2.629,-1.383l1.043,-0.027l0.297,-0.516l-0.535,-3.285l-1.602,-0.742l-1.882,-0.106l0.617,-1.953l3.871,-1.773l0.605,-1.473l6.535,-0.562l1.797,-2.055l0.883,-1.656l1.832,-1.082l3.774,0.109l0.859,-0.269l7.141,-4.563l2.777,-3.621l0.918,-2.012l1.144,-4.449l-0.464,-2.926l-1.168,-2.277l0.613,-1.945l1.473,-2.801l-2.383,-3.594l0.414,-3.367l0.492,-0.754l-0.371,-0.875l-2.602,-0.102l-4.754,1.153l-1.691,1.226l-1.719,2.614l-5.281,0.336l-0.512,-0.372l1.094,-1.996l2.809,-3.047l0.875,-0.605l1.566,-0.461l4.543,-3.969l0.82,-3.461l3.598,-3.941l1.543,-0.973l1.848,0.2l5.55,-2.352l3.153,-0.176l3.695,0.434l5.258,-2.535l1.336,-0.133l0.551,0.035l5.425,4.359l0.524,-1.011l-2.754,-4.969l0.562,-0.625l2.625,-0.387l0.637,0.246l0.41,1.18l0.985,0.457l1.179,2.457l1.535,1.113l2.747,-0.281l1.976,-2.473l-0.43,-0.097l-1.238,0.476l-0.355,0.43l-1.934,0.43l-2.566,-1.746l-3.836,-8.309l3.394,-6.074l2.059,-1.242l-0.289,-0.438l-2.457,-0.117l-1.129,-1.297l-0.199,-1.047l0.246,-5.039l0.347,-0.656l2.747,-1.231l2.585,-5.769l0.438,-2.488l0.137,-3.45l-3.114,3.043l-5.543,2.914l-1.863,-0.75l-4.484,-7.765l-0.563,-3.094l-4.883,-7.18l1.758,-5.593l4.91,-10.336l2.391,-2.305l2.293,-0.438l1.434,0.825l0.824,-0.094l1.918,-0.473l0.097,-1.078l-0.687,-0.414l-2.309,0.605l-5.379,-0.371l-2.089,-0.687l-3.114,-0.262l-1.226,4.961l-1.992,-0.297l-2.922,1.317l-1.481,1.843l-2.422,1.661l-3.254,-0.204l-0.996,-0.328l-5.175,-3.754l-0.77,-1.187l0.016,-0.875l-0.285,-0.145l-0.79,1.055l-0.168,0.832l0.387,1.645l1.199,2.406l0.266,2.765l-0.531,1.145l-0.563,0.188l-2.929,-1.278l-1.215,-1.543l-0.094,-0.617l-0.875,-1.266l-2.02,-0.918l-1.449,-1.003l-1.765,-1.797l-0.934,-0.34l-1.953,1.387l-0.906,1.554l1.371,4.235l0.758,0.836l0.222,2.214l-0.215,0.172l-2.058,-1.211l-0.324,-1.179l0.347,-0.848l-0.113,-0.977l-1.121,-1.8l-2.578,-2.957l-1.289,-2.735l-0.305,-1.894l0.418,-2.828l3.059,-1.856l1.226,-3.777l3.754,-3.598l0.844,-4.164l2.316,-3.785l2.727,-1.285l0.746,-1.914l-0.195,-1.266l-1.594,-3.902l-2.824,-1.887l-2.399,-2.32l1.309,-10.278l2.023,-0.64l2.176,0.918l3.269,0.664l2.145,0.078l-7.039,-2.801l-0.82,0.109l-1.055,-0.476l-0.203,-1.965l0.23,-1.66l0.824,-1.813l-0.945,0.289l-0.972,5.321l-2.165,4.894l-1.132,-0.207l-3.457,-2.722l-0.809,0.277l-0.488,0.848l-0.176,1.187l0.57,1.774l-0.144,0.304l-2.262,-1.148l-0.789,-2.391l0.984,-4.383l2.778,-4.613l5.722,-4.762l1.364,-1.715l-2.758,1.692l-5.196,4.672l-3.914,4.953l-0.777,-0.184l-0.211,-0.371l0.727,11.336l-1.739,1.86l-1.082,2.632l-2.183,9.774l0.879,2.324l-1.383,1.875l-0.734,0.434l-3.887,0.394l-0.836,-0.609l0.055,-3.684l1.949,-2.058l0.765,-6.372l2.672,-7.21l-1.5,-2.168l0.196,-4.524l2.586,-4.312l0.246,-0.961l-1.368,0.648l-1.187,2.008l-0.188,-0.82l4.481,-7.993l-0.258,-0.203l-1.285,1.063l-0.578,-0.02l0.262,-4.371l0.691,-2.715l1.398,-2.722l2.5,-1.758l2.133,-0.031l0.535,0.304l2.11,-0.164l2.843,-2.98l1.02,-2.332l-0.445,0.34l-0.75,1.769l-2.207,2.43l-0.774,0.097l-3.844,-1.378l0.602,-1.805l0.313,0.281l0.75,-0.07l2.125,-1.559l-1.563,-0.23l-0.957,0.558l-0.57,-0.492l-0.106,-1.164l1.781,-3.098l4.563,-5.656l0.375,-1.027l-11.117,11.394l-2.801,1.871l-0.445,-0.878l-4.352,-1.957l-1.066,-0.77l-1.7,-2.25l0.02,-0.781l0.836,-0.551l2.199,-0.102l4.418,-0.886l3.402,0.062l0.27,-0.105l-0.141,-0.262l-4.961,-1.031l-2.125,1.258l-1.687,0.171l-6.445,-0.632l-0.754,-0.684l-0.176,-1.082l1.141,-1.262l5.683,-1.031l1.09,1.141l1.188,0.707l1.41,-1.965l-1.164,-0.871l-0.063,-0.867l2.422,-0.504l0.828,0.179l1.32,-1.023l-0.16,-0.5l-1.523,-0.84l-3.336,0.465l-1,-0.469l2.449,-4.738l0.582,-0.422l1.606,0.051l0.332,0.687l1.8,1.184l1.844,-0.36l1.11,-0.554l-2.641,0.351l-3.441,-2.972l0.195,-1.227l1.351,-1.441l1.778,-0.043l2.656,1.375l3.176,-0.621l-0.473,-0.539l-1.437,0.168l-1.602,-0.266l-2.227,-2.07l0.254,-3.161l2.293,-0.82l0.25,0.453l2.02,1.192l0.492,0.172l0.543,-0.465l-2.383,-2.199l-1.351,-0.36l-0.543,-2.031l0.597,-0.055l2.703,-2.215l0.364,-1.425l-1.278,0.765l-6.339,2.301l-1.102,-1.094l-0.934,-5.039l0.965,-3.996l0.684,-0.246l0.762,0.449l0.57,1.149l2.215,1.683l0.746,-0.679l2.609,-0.297l-0.578,-0.785l-2.512,-0.133l-0.609,0.242l-3.047,-4.145l0.297,-7.937l0.484,-1.414l1.047,-0.485l0.879,-0.035l0.719,1.035l0.355,2.629l1.032,0.969l0.289,-0.082l0.648,-2.68l-0.984,-1.015l-0.379,-1.121l0.055,-0.95l0.82,-0.988l3.383,2.977l0.711,-1.778l2.156,-0.757l2.738,0.996l2.004,1.453l0.531,0.828l0.137,-0.738l-1.934,-3.559l-1.632,-1.066l-2.969,-2.739l-1.211,-2.019l0.316,-0.742l0.387,-0.184l2.375,1.598l0.508,-0.075l0.433,-0.543l0.266,-2.964l-0.523,-0.121l-2.055,-4.067l0.133,-0.726l4.269,0.582l3.028,-0.457l-1.2,-1.043l-0.968,-2.746l1.797,-6.762l2.73,-4.918l5.051,1.14l1.511,2.008l0.504,1.496l-2.035,3.075l0.086,0.39l3.59,-3.351l0.27,-1.789l0.695,-0.454l1.98,0.723l0.782,0.449l0.25,0.512l3.414,0.383l4.464,-0.789l6.672,-0.301l1.645,-1.516l1.23,-0.703l1.899,-0.051l0.5,0.567l4.23,0.691l0.336,-0.894l-0.496,-0.5l0.469,-1.418l7.59,0.887l-1.024,8.128l-1.562,3.645l-2.016,2.769l-3.558,1.254l-1.305,1.282l-2.242,3.453l-11.254,8.859l-0.367,1.008l0.437,1.094l-0.594,1.457l-2.433,0.656l-2.805,-0.93l-3.375,-1.625l1,2.063l1.41,0.66l5.488,1.461l2.68,0.375l1.199,-0.301l0.774,-0.387l0.734,-1.347l0.84,-0.074l-0.082,0.644l-1.09,1.781l-3.695,4.36l-0.547,0.215l-0.449,-0.29l0.133,-0.945l-0.329,-0.441l-1.546,0.277l-4.664,1.984l-2.879,3.043l-0.493,1.133l0.192,0.199l4.25,-3.691l1.359,-0.473l2.551,0.344l0.758,0.996l-3.949,4.485l-0.743,1.535l0.34,0.476l0.66,0.168l0.895,-0.441l2.879,-2.527l6.668,-2.743l2.672,-0.746l0.011,0.422l1.063,-0.109l2.035,-1.524l0.457,-1.535l4.602,-0.613l0.636,0.922l0.864,0.578l4.172,1.344l3.355,-1.883l11.488,1.859l4.953,-0.074l1.532,-1.242l2.261,0.156l2.403,1.008l2.238,3.965l1.121,3.781l0.024,1.418l-4.313,5.426l-2.227,4.914l-0.492,2.902l0.18,0.731l-0.617,2.769l-2.289,4.117l-0.172,1.262l0.258,1.184l-0.793,2.168l-2.282,2.964l-1.769,1.168l-2.102,2.418l0.356,0.817l0.351,-0.137l-0.023,0.535l-0.965,3.149l-0.93,1.527l-4.652,3.828l-5.695,1.344l-2.672,0.14l-5.043,3.993l0.312,0.496l1.727,-0.52l4.766,-2.308l1.847,-1.5l0.832,-0.071l1.797,0.559l0.246,1.047l-0.433,1.769l0.339,1.262l1.661,0.871l2.089,0.367l1.458,1.535l-0.016,0.579l-2.313,2.265l-2.656,1.16l-1.117,0.153l-1.273,-0.805l-1.665,-0.035l-4.359,3.758l-0.469,1.203l-5.816,3.105l-4.547,-1.992l-3.734,-0.113l0.257,1.219l1.508,0.972l9.817,1.68l4.859,1.293l3.477,-1.438l1.121,-2.312l1.097,-1.063l0.922,-0.183l3.645,0.328l6.156,4.262l7.148,3.894l2.422,4.774l3.914,5.277l0.442,0.121l0.168,-0.242l1.168,0.512l2.769,1.894l1.309,4.102l0.215,2.84l-0.633,1.468l2.144,10.172l0.864,2.883l1.715,3.582l0.789,0.988l2.172,9.157l3.359,4.878l15.172,7.079l1.265,1.496l1.524,2.89l2.023,5.196l3.102,3.425l3.73,1.727l1.086,0.848l-2.469,1.371l-0.847,1.461l-0.125,1.441l1.219,3.996l1.175,2.461l7.157,10.016l0.324,1.511l-0.836,1.211l0.476,-1.535l-0.773,-0.816l-2.062,-0.84l-2.067,0.789l-0.871,-0.035l-1.473,-0.981l-2.371,-3.117l-1.062,-0.574l-7.051,1.43l-0.961,-0.868l-1.184,-0.085l-2.195,1.312l0.676,0.574l4.437,-0.051l3.293,-1.05l2.36,-0.262l2.406,3.477l6.152,5.062l2.508,1.438l0.621,-0.02l2.383,3.176l2.934,7.09l0.554,3.097l-0.324,2.817l-4.258,3.875l-3.558,4.07l-0.793,1.652l2.242,-0.504l2.094,1.207l2,2.707l3.281,0.579l0.406,-0.059l1.285,-1.949l0.325,-1.836l1.171,-3.047l1.301,-1.281l3.145,-0.547l5.492,0.148l0.91,0.633l2.449,-0.125l7.246,0.774l2.965,1.328l7.157,5.242l1.296,2.019l1.364,4.059l0.449,7.086l-0.402,1.941l0.113,0.785l-1.102,2.942l-2.269,10.914l-6.375,6.699l-1.567,-2.519l-2.836,-1.496l-0.261,0.121l1.418,3.066l1.992,2.926l0.422,0.137l-0.149,0.976l-1.59,2.063l-2.382,1.484l-2.188,0.367l-0.344,-0.082l-1.445,-2.242l-3.238,2.398l-4.258,2.5l1.621,1.149l2.766,-0.981l0.992,-1.023l0.797,-0.211l0.433,0.547l0.305,5.133l-1.945,2.031l-2.246,1.684l-0.598,0.14l-3.199,-0.539l-4.895,1.621l-2.14,2.336l1.644,-0.101l0.899,-1.348l1.531,-0.305l1.601,-0.035l2.77,0.621l0.773,0.641l-0.136,0.738l-2.137,0.02l-2.164,1.308l0.578,0.891l3.414,0.418l5.48,1.375l2.532,-0.403l1.679,-0.98l8.668,-1.199l1.246,2.39l-0.214,6.176l-0.438,1.496l-0.941,1.231l-2.422,1.191l-1.133,0.133l-3.219,1.266l-1.441,1.101l-1.332,1.484l-0.387,0.868l-0.246,1.23l0.25,1.563l-3.211,0.402l-2.066,-0.352l-3.145,2.969l-2.558,1.028l-3.696,0.843l-2.191,1.039l-2.059,2.774l-0.777,0.359l-10.492,-3.172l-3.199,-0.269l-11.442,2.191l-1.926,0.692l-0.59,0.574l-0.21,1.019l-0.543,0.18l-3.149,-1.977l0.422,-0.75l0.836,-0.503l-1.754,-1.637l-6.219,-0.125l-0.117,0.324l1.195,1.34l-0.359,0.914l-0.477,0.293l-5.046,-0.547l-7.125,2.953l-2.512,-0.625l-6.832,1.145l-2.059,-0.094l-0.89,-0.816l-1.036,1.71l3.192,1.321l0.285,-0.153l0.473,1.192l-0.621,1.762l-2.723,0.562l-2.391,-1.355l-1.437,-0.399l-5.391,-0.691l-1.449,0.648l-0.496,1.207l0.152,1.008l0.926,0.652l-0.27,0.782l-0.57,-0.309l-1.066,-2.023l-4.563,-3.383l-4.39,-2.071l-2.778,-0.535l-1.472,1.082l-5.442,0.715l-1.867,0.555l-5.348,2.898l-0.777,0.836l-1.012,2.11l-4.457,13.046l-1.816,1.016l-2.66,-0.519l-0.715,-0.664l-1.027,-2.208l-1.844,-1.414l-1.071,0.106l-1.195,0.758l-0.68,-0.137l-3.269,-3.629l-5.672,0.426l-1.269,0.414l-0.793,0.801l-0.825,0.332l-5.402,-0.188l-2.34,0.539l-2.754,3.336l-2.699,1.551l-2.676,0.852l-0.906,3.691l0.531,1.004l-0.168,0.832l-0.773,0.82l-2.063,0.703l-1.031,2.082l-0.953,-0.82l-0.707,-1.219l0.125,-1.254l-0.938,-1.746l-1.171,-1l-3.731,-1.621l-0.844,-0.086l-1.035,0.504l-0.133,1.696l-0.82,0.945l-2.598,0.535l-1.425,-0.84l0.23,-3.25l0.445,-1.012l5.664,-2.484l0.461,0.176l0.247,0.683l1.128,0.219l4.571,-3.246l3.281,-2.824l2.949,-3.317l0.836,-1.882l-0.336,-1.465l0.766,-1.903l2.746,-1.281l3.719,-0.597l0.574,-0.856l0.578,-2.258l2.602,-1.965l2.777,-2.921l0.492,-6.098l0.668,-3.789l2.695,0.351l1.778,0.911l1.492,-0.586l2.668,-2.942l-0.324,-4.969l3,-0.906l6.316,-0.344l2.488,-0.585l4.688,1.078l1.449,-0.614l1.481,0.368l1.957,0.769l0.554,0.824l0.719,0.313l2.398,0.043l7.415,-0.961l0.539,-1.871l0.101,-2.477l1.309,-2.906l8.347,-8.055l4.926,-6.883l2.137,-0.839l0.355,-0.692l-0.214,-0.543l-0.258,-0.156l-1.719,1.273l-3.188,2.946l-2.335,2.687Z" style="fill:none;stroke-width:0.7px;stroke:#000;"/></svg>