<?xml version="1.0" encoding="UTF-8"?>
<svg xmlns="http://www.w3.org/2000/svg" xmlns:xlink="http://www.w3.org/1999/xlink" width="378pt" height="504pt" viewBox="0 0 378 504" version="1.1">
<g id="data">
<rect x="0" y="0" width="378" height="504" style="fill:rgb(100%,100%,100%);fill-opacity:1;stroke:none;"/>
<path style=" stroke:none;fill-rule:nonzero;fill:rgb(100%,100%,100%);fill-opacity:1;" d="M 53.308594 504 L 324.691406 504 L 324.691406 0 L 53.308594 0 Z M 53.308594 504 "/>
<path style=" stroke:none;fill-rule:nonzero;fill:rgb(22.745098%,53.333333%,16.078431%);fill-opacity:1;" d="M 276.230469 393.507813 L 278.585938 395.65625 L 281.433594 397.082031 L 284.691406 397.691406 L 287.863281 397.382813 L 290.644531 399.8125 L 294.171875 401.273438 L 296.832031 401.578125 L 299.492188 401.261719 L 299.492188 405.136719 L 295.617188 405.136719 L 291.738281 404.472656 L 287.863281 405.136719 L 284.734375 403.136719 L 281.007813 402.210938 L 277.933594 402.382813 L 275.015625 403.351563 L 272.355469 405.136719 L 270.078125 406.023438 L 268.039063 407.363281 L 266.164063 409.304688 L 264.738281 411.742188 L 264.0625 413.820313 L 263.785156 416.117188 L 263.964844 418.421875 L 264.601563 420.644531 L 263.5625 423.125 L 263.125 425.644531 L 263.199219 427.820313 L 263.671875 429.941406 L 261.070313 428.527344 L 257.902344 427.675781 L 254.992188 427.671875 L 252.050781 428.441406 L 252.554688 425.292969 L 252.183594 422.128906 L 251.03125 419.296875 L 249.09375 416.769531 L 249.09375 412.890625 L 249.757813 409.015625 L 249.09375 405.136719 L 250.566406 403.566406 L 251.78125 401.636719 L 252.5625 399.628906 L 252.96875 397.382813 L 255.226563 400.070313 L 259.492188 403.054688 L 262.90625 404.125 L 266.484375 404.105469 L 270.117188 402.878906 L 273.152344 400.542969 L 275.261719 397.34375 Z M 268.332031 437.433594 L 267.925781 435.78125 L 268.476563 436.152344 Z M 267.261719 466.195313 L 265.414063 464.714844 L 261.710938 463.417969 L 268.476563 463.292969 L 268.476563 466.5625 Z M 202.570313 440.03125 L 204.714844 437.675781 L 206.144531 434.828125 L 206.75 431.570313 L 206.445313 428.398438 L 207.925781 431.515625 L 210.257813 434.0625 L 212.761719 435.609375 L 217.6875 437.433594 L 221.144531 437.582031 L 224.492188 436.707031 L 227.433594 434.882813 L 229.707031 432.277344 L 232.429688 434.539063 L 235.832031 435.902344 L 240.96875 436.683594 L 243.242188 436.449219 L 245.3125 435.824219 L 241.976563 439.242188 L 240.207031 443.074219 L 239.867188 445.230469 L 239.933594 447.414063 L 240.410156 449.542969 L 241.339844 451.660156 L 239.460938 449.960938 L 237.144531 448.65625 L 234.839844 447.957031 L 231.710938 447.621094 L 227.660156 447.847656 L 225.167969 448.433594 L 222.652344 449.683594 L 220.417969 451.597656 L 219.050781 453.453125 L 218.078125 455.539063 L 216.179688 456.984375 L 214.199219 459.414063 L 211.933594 461.304688 L 209.929688 464.28125 L 209.160156 466.460938 L 208.832031 468.878906 L 208.835938 468.90625 L 208.164063 468.875 L 207.941406 468.667969 L 207.617188 466.128906 L 206.445313 463.292969 L 209.214844 460.941406 L 212.171875 456.652344 L 213.222656 453.101563 L 213.097656 449.398438 L 211.820313 445.921875 L 209.414063 442.9375 L 206.289063 440.949219 Z M 209.046875 470.929688 L 209.152344 471.941406 L 209.734375 473.421875 L 209.566406 473.890625 L 206.84375 474.453125 L 206.679688 474.359375 L 207.617188 472.085938 L 207.835938 470.429688 Z M 209.046875 470.929688 "/>
<path style=" stroke:none;fill-rule:nonzero;fill:rgb(80.392157%,58.431373%,4.705882%);fill-opacity:1;" d="M 227.769531 374.125 L 227.484375 375.921875 L 226.660156 377.542969 L 225.371094 378.828125 L 223.75 379.652344 L 221.953125 379.9375 L 220.15625 379.652344 L 218.535156 378.828125 L 217.25 377.542969 L 216.421875 375.921875 L 216.136719 374.125 L 216.421875 372.324219 L 217.25 370.703125 L 218.535156 369.417969 L 220.15625 368.59375 L 221.953125 368.308594 L 223.75 368.59375 L 225.371094 369.417969 L 226.660156 370.703125 L 227.484375 372.324219 Z M 227.769531 374.125 "/>
<path style=" stroke:none;fill-rule:nonzero;fill:rgb(80.392157%,58.431373%,4.705882%);fill-opacity:1;" d="M 208.382813 335.355469 L 208.101563 337.152344 L 207.273438 338.773438 L 205.988281 340.058594 L 204.367188 340.882813 L 202.570313 341.167969 L 200.773438 340.882813 L 199.152344 340.058594 L 197.863281 338.773438 L 197.039063 337.152344 L 196.753906 335.355469 L 197.039063 333.558594 L 197.863281 331.9375 L 199.152344 330.648438 L 200.773438 329.824219 L 202.570313 329.539063 L 204.367188 329.824219 L 205.988281 330.648438 L 207.273438 331.9375 L 208.101563 333.558594 Z M 208.382813 335.355469 "/>
<path style=" stroke:none;fill-rule:nonzero;fill:rgb(80.392157%,58.431373%,4.705882%);fill-opacity:1;" d="M 208.382813 389.628906 L 208.101563 391.429688 L 207.273438 393.050781 L 205.988281 394.335938 L 204.367188 395.160156 L 202.570313 395.445313 L 200.773438 395.160156 L 199.152344 394.335938 L 197.863281 393.050781 L 197.039063 391.429688 L 196.753906 389.628906 L 197.039063 387.832031 L 197.863281 386.210938 L 199.152344 384.925781 L 200.773438 384.101563 L 202.570313 383.816406 L 204.367188 384.101563 L 205.988281 384.925781 L 207.273438 386.210938 L 208.101563 387.832031 Z M 208.382813 389.628906 "/>
<path style=" stroke:none;fill-rule:nonzero;fill:rgb(80.392157%,58.431373%,4.705882%);fill-opacity:1;" d="M 254.90625 385.753906 L 254.625 387.550781 L 253.796875 389.171875 L 252.511719 390.457031 L 250.890625 391.285156 L 249.09375 391.570313 L 247.296875 391.285156 L 245.675781 390.457031 L 244.386719 389.171875 L 243.5625 387.550781 L 243.277344 385.753906 L 243.5625 383.957031 L 244.386719 382.335938 L 245.675781 381.050781 L 247.296875 380.222656 L 249.09375 379.9375 L 250.890625 380.222656 L 252.511719 381.050781 L 253.796875 382.335938 L 254.625 383.957031 Z M 254.90625 385.753906 "/>
<path style=" stroke:none;fill-rule:nonzero;fill:rgb(80.392157%,58.431373%,4.705882%);fill-opacity:1;" d="M 212.261719 346.984375 L 211.976563 348.78125 L 211.152344 350.402344 L 209.863281 351.6875 L 208.242188 352.515625 L 206.445313 352.800781 L 204.648438 352.515625 L 203.027344 351.6875 L 201.742188 350.402344 L 200.914063 348.78125 L 200.628906 346.984375 L 200.914063 345.1875 L 201.742188 343.566406 L 203.027344 342.28125 L 204.648438 341.453125 L 206.445313 341.167969 L 208.242188 341.453125 L 209.863281 342.28125 L 211.152344 343.566406 L 211.976563 345.1875 Z M 212.261719 346.984375 "/>
<path style=" stroke:none;fill-rule:nonzero;fill:rgb(80.392157%,58.431373%,4.705882%);fill-opacity:1;" d="M 212.261719 420.644531 L 211.976563 422.441406 L 211.152344 424.0625 L 209.863281 425.351563 L 208.242188 426.175781 L 206.445313 426.460938 L 204.648438 426.175781 L 203.027344 425.351563 L 201.742188 424.0625 L 200.914063 422.441406 L 200.628906 420.644531 L 200.914063 418.847656 L 201.742188 417.226563 L 203.027344 415.941406 L 204.648438 415.117188 L 206.445313 414.832031 L 208.242188 415.117188 L 209.863281 415.941406 L 211.152344 417.226563 L 211.976563 418.847656 Z M 212.261719 420.644531 "/>
<path style=" stroke:none;fill-rule:nonzero;fill:rgb(80.392157%,58.431373%,4.705882%);fill-opacity:1;" d="M 204.507813 257.816406 L 204.222656 259.613281 L 203.398438 261.234375 L 202.109375 262.519531 L 200.488281 263.347656 L 198.691406 263.628906 L 196.894531 263.347656 L 195.273438 262.519531 L 193.988281 261.234375 L 193.160156 259.613281 L 192.875 257.816406 L 193.160156 256.019531 L 193.988281 254.398438 L 195.273438 253.109375 L 196.894531 252.285156 L 198.691406 252 L 200.488281 252.285156 L 202.109375 253.109375 L 203.398438 254.398438 L 204.222656 256.019531 Z M 204.507813 257.816406 "/>
<path style=" stroke:none;fill-rule:nonzero;fill:rgb(80.392157%,58.431373%,4.705882%);fill-opacity:1;" d="M 297.554688 447.785156 L 296.929688 450.246094 L 295.839844 450.375 L 292.621094 451.640625 L 290.574219 453.414063 L 288.320313 452.488281 L 287.035156 451.203125 L 286.207031 449.582031 L 285.921875 447.785156 L 286.207031 445.988281 L 287.035156 444.367188 L 288.320313 443.078125 L 289.941406 442.253906 L 291.738281 441.96875 L 293.535156 442.253906 L 295.15625 443.078125 L 296.441406 444.367188 L 297.269531 445.988281 Z M 297.554688 447.785156 "/>
<path style=" stroke:none;fill-rule:nonzero;fill:rgb(80.392157%,58.431373%,4.705882%);fill-opacity:1;" d="M 177.371094 238.429688 L 177.320313 238.746094 L 174.761719 240.109375 L 170.214844 238.117188 L 166.480469 238.003906 L 166.738281 239.222656 L 168.246094 240.195313 L 176.390625 241.589844 L 174.972656 243.136719 L 173.351563 243.960938 L 171.554688 244.246094 L 169.757813 243.960938 L 168.136719 243.136719 L 166.847656 241.847656 L 166.023438 240.226563 L 165.738281 238.429688 L 166.023438 236.632813 L 166.847656 235.011719 L 168.136719 233.726563 L 169.757813 232.898438 L 171.554688 232.617188 L 173.351563 232.898438 L 174.972656 233.726563 L 176.257813 235.011719 L 177.085938 236.632813 Z M 177.371094 238.429688 "/>
<path style=" stroke:none;fill-rule:nonzero;fill:rgb(80.392157%,58.431373%,4.705882%);fill-opacity:1;" d="M 169.667969 238.101563 L 169.898438 236.632813 L 170.726563 235.011719 L 172.011719 233.726563 L 173.632813 232.898438 L 175.429688 232.617188 L 177.226563 232.898438 L 178.847656 233.726563 L 180.136719 235.011719 L 180.824219 236.367188 L 180.578125 237.003906 L 174.761719 240.109375 Z M 179.679688 242.304688 L 178.847656 243.136719 L 177.226563 243.960938 L 175.429688 244.246094 L 173.632813 243.960938 L 172.011719 243.136719 L 170.726563 241.847656 L 170.039063 240.5 Z M 179.679688 242.304688 "/>
<path style=" stroke:none;fill-rule:nonzero;fill:rgb(80.392157%,58.431373%,4.705882%);fill-opacity:1;" d="M 84.882813 170.804688 L 86.261719 170.585938 L 88.777344 171.234375 L 86.902344 171.355469 L 84.875 171.125 Z M 85.394531 175.835938 L 84.546875 175.601563 L 83.046875 174.507813 L 82.722656 173.699219 L 82.824219 172.589844 L 83.972656 171.789063 L 86.566406 172.507813 L 87.433594 173.25 L 87.285156 175.226563 Z M 85.074219 182.027344 L 82.84375 181.105469 L 81.804688 180.066406 L 82.046875 176.234375 L 83.4375 175.515625 L 85.28125 176.539063 L 86.578125 178.347656 L 85.882813 178.945313 L 85.144531 178.476563 Z M 85.074219 182.027344 "/>
</g>
</svg>
