<?xml version="1.0" encoding="UTF-8"?>
<svg xmlns="http://www.w3.org/2000/svg" xmlns:xlink="http://www.w3.org/1999/xlink" width="378pt" height="504pt" viewBox="0 0 378 504" version="1.1">
<g id="data">
<rect x="0" y="0" width="378" height="504" style="fill:rgb(100%,100%,100%);fill-opacity:1;stroke:none;"/>
<path style=" stroke:none;fill-rule:nonzero;fill:rgb(100%,100%,100%);fill-opacity:1;" d="M 53.308594 504 L 324.691406 504 L 324.691406 0 L 53.308594 0 Z M 53.308594 504 "/>
<path style=" stroke:none;fill-rule:nonzero;fill:rgb(22.745098%,53.333333%,16.078431%);fill-opacity:1;" d="M 201.207031 445.683594 L 199.617188 445.042969 L 198.28125 443.960938 L 197.320313 442.539063 L 196.820313 440.898438 L 196.816406 439.179688 L 197.316406 437.539063 L 198.273438 436.113281 L 199.878906 434.351563 L 200.578125 432.957031 L 200.882813 431.3125 L 200.65625 428.957031 L 200.765625 427.164063 L 201.414063 425.484375 L 202.542969 424.085938 L 204.046875 423.101563 L 205.78125 422.621094 L 207.578125 422.695313 L 209.265625 423.316406 L 210.6875 424.417969 L 211.699219 425.90625 L 212.804688 428.234375 L 214 429.542969 L 215.324219 430.359375 L 218.847656 431.664063 L 220.515625 431.734375 L 222.171875 431.300781 L 223.625 430.402344 L 225.324219 428.453125 L 226.699219 427.300781 L 228.355469 426.621094 L 230.140625 426.476563 L 231.882813 426.882813 L 233.421875 427.800781 L 235.445313 429.480469 L 237.371094 430.253906 L 241.109375 430.820313 L 242.09375 430.71875 L 243.628906 430.257813 L 245.519531 430.011719 L 246.601563 430.234375 L 246.324219 429.441406 L 246.308594 427.523438 L 246.6875 425.15625 L 246.523438 423.679688 L 245.929688 422.199219 L 244.480469 420.3125 L 243.585938 418.640625 L 243.277344 416.769531 L 243.277344 412.890625 L 243.359375 411.910156 L 243.855469 409.015625 L 243.359375 406.121094 L 243.332031 404.351563 L 243.835938 402.652344 L 244.828125 401.1875 L 246 399.921875 L 246.546875 399.039063 L 246.964844 397.949219 L 247.242188 396.375 L 247.863281 394.605469 L 249.011719 393.121094 L 250.574219 392.085938 L 252.386719 391.597656 L 254.261719 391.714844 L 256 392.421875 L 257.421875 393.644531 L 259.1875 395.746094 L 262.089844 397.773438 L 263.78125 398.304688 L 265.515625 398.296875 L 267.335938 397.679688 L 268.832031 396.527344 L 269.867188 394.964844 L 270.59375 392.085938 L 271.246094 390.511719 L 272.328125 389.195313 L 273.746094 388.25 L 275.375 387.753906 L 277.078125 387.753906 L 278.707031 388.246094 L 280.125 389.191406 L 281.976563 390.859375 L 283.378906 391.542969 L 284.933594 391.824219 L 287.304688 391.597656 L 288.875 391.660156 L 290.371094 392.140625 L 291.683594 393.003906 L 293.75 394.804688 L 295.640625 395.589844 L 296.816406 395.722656 L 298.808594 395.488281 L 300.761719 395.585938 L 302.570313 396.328125 L 304.03125 397.625 L 304.980469 399.335938 L 305.117188 400.148438 L 303.519531 407.832031 L 300.738281 410.757813 L 299.492188 410.953125 L 295.617188 410.953125 L 294.632813 410.871094 L 292.824219 410.558594 L 292.742188 410.515625 L 292.695313 410.539063 L 291.738281 410.375 L 288.84375 410.871094 L 286.722656 410.839844 L 284.753906 410.054688 L 282.316406 408.511719 L 280.472656 408.066406 L 279.03125 408.144531 L 277.597656 408.621094 L 275.597656 409.964844 L 274.464844 410.558594 L 272.761719 411.21875 L 271.785156 411.859375 L 270.773438 412.921875 L 270.085938 414.109375 L 269.75 415.160156 L 269.625 416.300781 L 269.730469 417.464844 L 270.183594 419.019531 L 270.40625 420.992188 L 269.949219 422.921875 L 269.207031 424.671875 L 268.957031 426.0625 L 268.992188 427.082031 L 269.347656 428.671875 L 269.433594 430.191406 L 269.621094 430.21875 L 271.195313 430.96875 L 271.746094 431.34375 L 273.238281 432.8125 L 274.039063 434.558594 L 272.609375 436.117188 L 274.203125 436.019531 L 274.253906 436.804688 L 274.113281 438.085938 L 273.636719 439.816406 L 272.660156 441.320313 L 271.269531 442.453125 L 269.597656 443.109375 L 267.804688 443.226563 L 266.066406 442.789063 L 264.539063 441.84375 L 263.375 440.476563 L 262.683594 438.820313 L 262.28125 437.167969 L 262.125 435.480469 L 260.898438 435.050781 L 258.894531 433.964844 L 257.144531 433.492188 L 255.640625 433.5 L 253.554688 434.058594 L 251.640625 434.242188 L 250.773438 434.03125 L 250.992188 434.578125 L 251.089844 436.484375 L 250.5625 438.316406 L 249.472656 439.882813 L 246.835938 442.585938 L 245.832031 444.765625 L 245.691406 445.675781 L 245.738281 446.746094 L 245.988281 447.804688 L 246.652344 449.296875 L 247.113281 450.988281 L 247.050781 452.742188 L 246.46875 454.398438 L 245.417969 455.804688 L 244 456.832031 L 242.335938 457.390625 L 240.582031 457.425781 L 238.894531 456.9375 L 237.433594 455.96875 L 236.039063 454.707031 L 234.847656 454.035156 L 233.679688 453.679688 L 231.5625 453.453125 L 228.492188 453.628906 L 227.152344 453.941406 L 225.886719 454.570313 L 224.707031 455.582031 L 224.074219 456.4375 L 223.34375 458 L 222.601563 459.191406 L 221.597656 460.167969 L 220.25 461.191406 L 218.710938 463.085938 L 217.925781 463.878906 L 216.292969 465.242188 L 215.175781 466.902344 L 214.820313 467.925781 L 214.785156 468.207031 L 210.222656 468.96875 L 208.164063 468.875 L 207.273438 468.058594 L 206.238281 469.769531 L 209.429688 471.089844 L 209.714844 470.9375 L 210.1875 472.128906 L 209.566406 473.890625 L 206.84375 474.453125 L 204.453125 473.097656 L 203.015625 472.699219 L 201.171875 472.460938 L 201.925781 470.660156 L 202.136719 469.140625 L 201.945313 467.632813 L 201.070313 465.511719 L 200.648438 463.738281 L 200.792969 461.921875 L 201.496094 460.242188 L 202.679688 458.859375 L 204.863281 457.003906 L 206.859375 454.117188 L 207.378906 452.355469 L 207.316406 450.527344 L 206.691406 448.828125 L 205.496094 447.34375 L 203.882813 446.328125 Z M 255.917969 463.539063 L 255.894531 463.390625 L 256.179688 461.621094 L 256.992188 460.019531 L 258.25 458.742188 L 259.839844 457.910156 L 261.605469 457.601563 L 268.371094 457.476563 L 270.191406 457.734375 L 271.84375 458.550781 L 273.15625 459.839844 L 274 461.476563 L 274.25 463.03125 L 272.597656 463.816406 L 270.539063 466.589844 L 269.761719 466.949219 L 259.269531 463.777344 L 256.070313 463.507813 Z M 255.917969 463.539063 "/>
<path style=" stroke:none;fill-rule:nonzero;fill:rgb(80.392157%,58.431373%,4.705882%);fill-opacity:1;" d="M 227.769531 374.125 L 227.484375 375.921875 L 226.660156 377.542969 L 225.371094 378.828125 L 223.75 379.652344 L 221.953125 379.9375 L 220.15625 379.652344 L 218.535156 378.828125 L 217.25 377.542969 L 216.421875 375.921875 L 216.136719 374.125 L 216.421875 372.324219 L 217.25 370.703125 L 218.535156 369.417969 L 220.15625 368.59375 L 221.953125 368.308594 L 223.75 368.59375 L 225.371094 369.417969 L 226.660156 370.703125 L 227.484375 372.324219 Z M 227.769531 374.125 "/>
<path style=" stroke:none;fill-rule:nonzero;fill:rgb(80.392157%,58.431373%,4.705882%);fill-opacity:1;" d="M 208.382813 335.355469 L 208.101563 337.152344 L 207.273438 338.773438 L 205.988281 340.058594 L 204.367188 340.882813 L 202.570313 341.167969 L 200.773438 340.882813 L 199.152344 340.058594 L 197.863281 338.773438 L 197.039063 337.152344 L 196.753906 335.355469 L 197.039063 333.558594 L 197.863281 331.9375 L 199.152344 330.648438 L 200.773438 329.824219 L 202.570313 329.539063 L 204.367188 329.824219 L 205.988281 330.648438 L 207.273438 331.9375 L 208.101563 333.558594 Z M 208.382813 335.355469 "/>
<path style=" stroke:none;fill-rule:nonzero;fill:rgb(80.392157%,58.431373%,4.705882%);fill-opacity:1;" d="M 208.382813 389.628906 L 208.101563 391.429688 L 207.273438 393.050781 L 205.988281 394.335938 L 204.367188 395.160156 L 202.570313 395.445313 L 200.773438 395.160156 L 199.152344 394.335938 L 197.863281 393.050781 L 197.039063 391.429688 L 196.753906 389.628906 L 197.039063 387.832031 L 197.863281 386.210938 L 199.152344 384.925781 L 200.773438 384.101563 L 202.570313 383.816406 L 204.367188 384.101563 L 205.988281 384.925781 L 207.273438 386.210938 L 208.101563 387.832031 Z M 208.382813 389.628906 "/>
<path style=" stroke:none;fill-rule:nonzero;fill:rgb(80.392157%,58.431373%,4.705882%);fill-opacity:1;" d="M 254.90625 385.753906 L 254.625 387.550781 L 253.796875 389.171875 L 252.511719 390.457031 L 250.890625 391.285156 L 249.09375 391.570313 L 247.296875 391.285156 L 245.675781 390.457031 L 244.386719 389.171875 L 243.5625 387.550781 L 243.277344 385.753906 L 243.5625 383.957031 L 244.386719 382.335938 L 245.675781 381.050781 L 247.296875 380.222656 L 249.09375 379.9375 L 250.890625 380.222656 L 252.511719 381.050781 L 253.796875 382.335938 L 254.625 383.957031 Z M 254.90625 385.753906 "/>
<path style=" stroke:none;fill-rule:nonzero;fill:rgb(80.392157%,58.431373%,4.705882%);fill-opacity:1;" d="M 212.261719 346.984375 L 211.976563 348.78125 L 211.152344 350.402344 L 209.863281 351.6875 L 208.242188 352.515625 L 206.445313 352.800781 L 204.648438 352.515625 L 203.027344 351.6875 L 201.742188 350.402344 L 200.914063 348.78125 L 200.628906 346.984375 L 200.914063 345.1875 L 201.742188 343.566406 L 203.027344 342.28125 L 204.648438 341.453125 L 206.445313 341.167969 L 208.242188 341.453125 L 209.863281 342.28125 L 211.152344 343.566406 L 211.976563 345.1875 Z M 212.261719 346.984375 "/>
<path style=" stroke:none;fill-rule:nonzero;fill:rgb(80.392157%,58.431373%,4.705882%);fill-opacity:1;" d="M 204.507813 257.816406 L 204.222656 259.613281 L 203.398438 261.234375 L 202.109375 262.519531 L 200.488281 263.347656 L 198.691406 263.628906 L 196.894531 263.347656 L 195.273438 262.519531 L 193.988281 261.234375 L 193.160156 259.613281 L 192.875 257.816406 L 193.160156 256.019531 L 193.988281 254.398438 L 195.273438 253.109375 L 196.894531 252.285156 L 198.691406 252 L 200.488281 252.285156 L 202.109375 253.109375 L 203.398438 254.398438 L 204.222656 256.019531 Z M 204.507813 257.816406 "/>
<path style=" stroke:none;fill-rule:nonzero;fill:rgb(80.392157%,58.431373%,4.705882%);fill-opacity:1;" d="M 297.554688 447.785156 L 297.269531 449.582031 L 296.929688 450.246094 L 295.839844 450.375 L 292.621094 451.640625 L 291.179688 452.742188 L 290.574219 453.414063 L 289.941406 453.316406 L 288.320313 452.488281 L 287.035156 451.203125 L 286.207031 449.582031 L 285.921875 447.785156 L 286.207031 445.988281 L 287.035156 444.367188 L 288.320313 443.078125 L 289.941406 442.253906 L 291.738281 441.96875 L 293.535156 442.253906 L 295.15625 443.078125 L 296.441406 444.367188 L 297.269531 445.988281 Z M 297.554688 447.785156 "/>
<path style=" stroke:none;fill-rule:nonzero;fill:rgb(80.392157%,58.431373%,4.705882%);fill-opacity:1;" d="M 177.371094 238.429688 L 177.320313 238.746094 L 174.761719 240.109375 L 170.214844 238.117188 L 166.480469 238.003906 L 166.738281 239.222656 L 168.246094 240.195313 L 176.390625 241.589844 L 176.257813 241.847656 L 174.972656 243.136719 L 173.351563 243.960938 L 171.554688 244.246094 L 169.757813 243.960938 L 168.136719 243.136719 L 166.847656 241.847656 L 166.023438 240.226563 L 165.738281 238.429688 L 166.023438 236.632813 L 166.847656 235.011719 L 168.136719 233.726563 L 169.757813 232.898438 L 171.554688 232.617188 L 173.351563 232.898438 L 174.972656 233.726563 L 176.257813 235.011719 L 177.085938 236.632813 Z M 177.371094 238.429688 "/>
<path style=" stroke:none;fill-rule:nonzero;fill:rgb(80.392157%,58.431373%,4.705882%);fill-opacity:1;" d="M 179.679688 242.304688 L 178.847656 243.136719 L 177.226563 243.960938 L 175.429688 244.246094 L 173.632813 243.960938 L 172.011719 243.136719 L 170.726563 241.847656 L 170.039063 240.5 L 178.0625 241.875 Z M 169.667969 238.101563 L 169.898438 236.632813 L 170.726563 235.011719 L 172.011719 233.726563 L 173.632813 232.898438 L 175.429688 232.617188 L 177.226563 232.898438 L 178.847656 233.726563 L 180.136719 235.011719 L 180.824219 236.367188 L 180.578125 237.003906 L 174.761719 240.109375 L 170.214844 238.117188 Z M 169.667969 238.101563 "/>
<path style=" stroke:none;fill-rule:nonzero;fill:rgb(80.392157%,58.431373%,4.705882%);fill-opacity:1;" d="M 85.074219 182.027344 L 84.464844 181.929688 L 82.84375 181.105469 L 81.804688 180.066406 L 82.046875 176.234375 L 83.4375 175.515625 L 85.28125 176.539063 L 86.578125 178.347656 L 85.882813 178.945313 L 85.144531 178.476563 L 85.03125 179.058594 Z M 84.882813 170.804688 L 86.261719 170.585938 L 88.058594 170.871094 L 88.777344 171.234375 L 88.773438 171.246094 L 86.902344 171.355469 L 84.875 171.125 Z M 85.394531 175.835938 L 84.546875 175.601563 L 83.046875 174.507813 L 82.722656 173.699219 L 82.824219 172.589844 L 83.972656 171.789063 L 86.566406 172.507813 L 87.433594 173.25 L 87.285156 175.226563 Z M 85.394531 175.835938 "/>
</g>
</svg>
