<?xml version="1.0" encoding="UTF-8"?>
<svg xmlns="http://www.w3.org/2000/svg" xmlns:xlink="http://www.w3.org/1999/xlink" width="378pt" height="504pt" viewBox="0 0 378 504" version="1.1">
<g id="data">
<rect x="0" y="0" width="378" height="504" style="fill:rgb(100%,100%,100%);fill-opacity:1;stroke:none;"/>
<path style=" stroke:none;fill-rule:nonzero;fill:rgb(100%,100%,100%);fill-opacity:1;" d="M 53.308594 504 L 324.691406 504 L 324.691406 0 L 53.308594 0 Z M 53.308594 504 "/>
<path style=" stroke:none;fill-rule:nonzero;fill:rgb(22.745098%,53.333333%,16.078431%);fill-opacity:1;" d="M 187.359375 327.085938 L 188.222656 329.5 L 189.59375 331.664063 L 191.40625 333.476563 L 193.574219 334.847656 L 195.742188 335.648438 L 198.019531 336.007813 L 200.328125 335.90625 L 202.570313 335.355469 L 206.171875 337.550781 L 210.195313 338.316406 L 214.109375 337.679688 L 216.210938 336.714844 L 218.078125 335.355469 L 220.5625 334.875 L 222.777344 333.929688 L 227.636719 330.117188 L 229.707031 327.601563 L 228.914063 331.101563 L 229.230469 334.675781 L 230.550781 337.878906 L 232.851563 340.632813 L 236.003906 342.605469 L 240.066406 343.703125 L 243.117188 343.636719 L 248.402344 342.40625 L 249.09375 343.109375 L 249.347656 345.535156 L 250.15625 347.972656 L 252.5 351.332031 L 254.289063 352.796875 L 256.332031 353.878906 L 258.421875 354.507813 L 260.722656 354.738281 L 259.816406 356.714844 L 259.292969 358.828125 L 259.171875 361.003906 L 259.460938 363.160156 L 261.792969 368.984375 L 263.113281 370.882813 L 263.265625 371.027344 L 261.394531 373.164063 L 260.601563 374.816406 L 262.84375 374.3125 L 264.9375 375.519531 L 266.9375 378.226563 L 270.21875 378.804688 L 270.625 378.746094 L 271.910156 376.796875 L 272.234375 374.960938 L 272.273438 374.855469 L 273.242188 374.867188 L 276.230469 374.125 L 277.570313 377.027344 L 279.554688 379.367188 L 281.628906 380.867188 L 283.984375 381.875 L 285.964844 383.652344 L 288.296875 384.929688 L 292.359375 385.839844 L 295.617188 385.753906 L 298.398438 388.179688 L 301.800781 389.613281 L 304.585938 389.945313 L 307.078125 389.652344 L 307.089844 389.796875 L 305.773438 391.203125 L 304.558594 393.132813 L 303.742188 395.261719 L 303.371094 397.382813 L 301.042969 400.21875 L 300.011719 402.53125 L 299.492188 405.136719 L 297.867188 406.914063 L 296.585938 409.097656 L 295.765625 412.3125 L 295.578125 412.011719 L 292.742188 410.515625 L 292.480469 410.636719 L 293.316406 412.445313 L 293.09375 412.402344 L 290.65625 412.460938 L 288.28125 413.027344 L 285.96875 414.140625 L 283.957031 415.738281 L 282.417969 417.628906 L 281.300781 419.800781 L 280.667969 422.15625 L 280.601563 425.359375 L 281.414063 428.460938 L 282.507813 430.5 L 283.921875 432.199219 L 283.441406 432.558594 L 282.84375 432.699219 L 279.644531 432.160156 L 274.75 433.78125 L 272.609375 436.117188 L 274.253906 436.015625 L 275.152344 434.667969 L 276.683594 434.363281 L 278.285156 434.328125 L 281.054688 434.949219 L 281.828125 435.589844 L 281.691406 436.328125 L 279.554688 436.347656 L 277.390625 437.65625 L 277.96875 438.546875 L 281.382813 438.964844 L 286.863281 440.339844 L 289.394531 439.9375 L 290 439.582031 L 292.917969 440.621094 L 296.246094 440.800781 L 299.492188 440.03125 L 299.492188 447.785156 L 297.78125 449.84375 L 296.972656 450.242188 L 295.839844 450.375 L 293.800781 451.175781 L 293.011719 450.964844 L 290.441406 450.875 L 287.796875 451.394531 L 285.449219 452.4375 L 283.578125 453.800781 L 282.09375 455.402344 L 280.933594 457.253906 L 280.109375 459.414063 L 276.425781 459.796875 L 273.050781 461.316406 L 270.324219 463.816406 L 268.761719 466.648438 L 259.269531 463.777344 L 259.117188 463.765625 L 258.722656 463.601563 L 255.078125 463.015625 L 252.402344 463.109375 L 248.4375 464.480469 L 247.675781 465.117188 L 244.628906 465.699219 L 242.703125 466.390625 L 242.59375 466.496094 L 240.300781 466.367188 L 238.867188 466.597656 L 238.210938 466.1875 L 238.632813 465.4375 L 239.46875 464.933594 L 237.714844 463.296875 L 231.496094 463.171875 L 231.378906 463.496094 L 232.574219 464.835938 L 232.214844 465.75 L 231.738281 466.042969 L 226.691406 465.496094 L 219.566406 468.449219 L 217.054688 467.824219 L 210.222656 468.96875 L 208.164063 468.875 L 207.273438 468.058594 L 206.238281 469.769531 L 209.429688 471.089844 L 209.714844 470.9375 L 210.1875 472.128906 L 209.566406 473.890625 L 206.84375 474.453125 L 204.453125 473.097656 L 203.015625 472.699219 L 197.625 472.007813 L 196.175781 472.65625 L 195.679688 473.863281 L 195.832031 474.871094 L 196.757813 475.523438 L 196.488281 476.304688 L 195.917969 475.996094 L 194.851563 473.972656 L 191.007813 471.125 L 190.9375 471.046875 L 190.015625 467.371094 L 188.046875 464.277344 L 185.632813 462 L 183.320313 460.625 L 180.628906 459.792969 L 177.6875 459.644531 L 178.382813 456.527344 L 178.230469 453.460938 L 177.222656 450.429688 L 175.671875 448.140625 L 180.570313 447.503906 L 180.949219 446.191406 L 183.28125 444.734375 L 184.898438 442.90625 L 186.101563 440.78125 L 186.804688 438.582031 L 187.0625 436.152344 L 189.246094 436.074219 L 191.496094 435.546875 L 193.488281 434.648438 L 195.277344 433.394531 L 196.800781 431.824219 L 198.003906 430 L 198.84375 427.984375 L 199.292969 425.84375 L 199.296875 423.273438 L 198.3125 416.953125 L 197.257813 414.339844 L 195.511719 411.964844 L 192.898438 409.902344 L 189.804688 408.667969 L 186.488281 408.359375 L 183.222656 409 L 185.511719 407.894531 L 187.59375 406.222656 L 189.175781 404.230469 L 190.285156 401.941406 L 190.824219 404.84375 L 192.078125 407.515625 L 193.964844 409.789063 L 196.363281 411.511719 L 199.371094 412.632813 L 202.570313 412.890625 L 205.351563 415.320313 L 208.628906 416.722656 L 211.15625 417.078125 L 214.199219 416.769531 L 218.261719 417.003906 L 220.507813 416.507813 L 222.609375 415.582031 L 225.832031 412.890625 L 227.902344 411.875 L 229.730469 410.46875 L 232.222656 407.070313 L 232.988281 405.027344 L 233.355469 402.878906 L 233.25 400.191406 L 232.527344 397.601563 L 231.375 395.453125 L 229.707031 393.507813 L 228.097656 390.015625 L 225.230469 387.089844 L 221.527344 385.339844 L 218.085938 384.941406 L 214.199219 385.753906 L 211.410156 385.4375 L 208.628906 385.800781 L 205.351563 387.203125 L 202.570313 389.628906 L 200.421875 389.707031 L 198.328125 390.179688 L 196.355469 391.027344 L 194.472656 392.300781 L 195.113281 389.050781 L 194.816406 385.753906 L 198.167969 383.90625 L 200.671875 381.179688 L 202.1875 377.804688 L 202.570313 374.125 L 206.246094 373.203125 L 209.335938 371.234375 L 212.199219 367.976563 L 213.746094 364.191406 L 214 362.027344 L 213.847656 359.855469 L 213.246094 357.625 L 212.285156 355.671875 L 210.15625 353.113281 L 208.40625 351.8125 L 206.445313 350.863281 L 203.71875 347.976563 L 200.421875 346.253906 L 196.882813 345.660156 L 193.207031 346.214844 L 189.996094 347.824219 L 185.910156 352.039063 L 184.210938 354.707031 L 184.160156 354.878906 L 183.8125 354.640625 L 182.292969 351.355469 L 182.929688 349.410156 L 183.183594 346.984375 L 184.386719 344.023438 L 184.722656 341.875 L 184.53125 339.558594 L 185.429688 339.015625 L 185.140625 338.578125 L 184.441406 338.546875 L 183.183594 335.355469 L 184.867188 333.628906 L 186.101563 331.710938 L 186.96875 329.460938 Z M 221.953125 358.617188 L 220.527344 360.59375 L 219.546875 362.824219 L 219.050781 365.214844 L 219.050781 367.523438 L 219.953125 370.996094 L 221.953125 374.125 L 222.722656 378.273438 L 224.269531 381.078125 L 225.832031 382.78125 L 227.699219 384.144531 L 229.796875 385.109375 L 231.917969 385.625 L 234.226563 385.726563 L 236.511719 385.371094 L 238.679688 384.570313 L 240.542969 383.433594 L 242.5 381.582031 L 243.980469 379.332031 L 244.902344 376.800781 L 245.214844 374.125 L 246.886719 371.691406 L 247.894531 368.921875 L 248.175781 366.496094 L 247.921875 363.945313 L 247.164063 361.625 L 245.867188 359.410156 L 243.695313 356.707031 L 241.484375 354.953125 L 238.789063 353.746094 L 235.753906 353.25 L 232.691406 353.566406 L 229.707031 354.738281 L 226.5 355.46875 L 224.039063 356.765625 Z M 286.667969 437.015625 L 287.171875 437.628906 L 287.226563 437.667969 L 287.960938 438.832031 L 286.679688 439.636719 L 283.058594 438.976563 L 282.164063 437.605469 L 282.484375 436.070313 Z M 233.523438 469.039063 L 231.933594 470.609375 L 230.59375 472.648438 L 229.964844 474.265625 L 229.960938 474.269531 L 229.257813 474.414063 L 227.582031 472.519531 L 224.882813 470.789063 L 221.808594 469.859375 L 221.332031 469.851563 L 221.476563 469.683594 L 227.316406 466.367188 L 232.550781 467.761719 Z M 183.785156 356.183594 L 183.238281 358.109375 L 183.183594 362.492188 L 181.308594 360.789063 L 178.992188 359.488281 L 176.6875 358.789063 L 173.492188 358.453125 L 176.3125 357.597656 L 177.058594 357.148438 L 179.910156 359.441406 L 180.433594 358.429688 L 179.007813 355.855469 L 180.71875 354.144531 L 181.535156 352.789063 L 181.914063 353.875 L 182.898438 354.332031 Z M 163.671875 477.746094 L 163.097656 475.613281 L 163.800781 474.921875 Z M 151.777344 249.902344 L 152.167969 246.183594 L 153.902344 247.476563 L 155.84375 248.425781 L 159.957031 249.175781 L 159.921875 250.0625 L 155.800781 249.242188 Z M 143.03125 320.835938 L 144.066406 318.660156 L 144.414063 319.847656 Z M 121.152344 494.308594 L 121.152344 497.480469 L 120.660156 497.648438 L 120.621094 497.734375 L 118.027344 495.550781 Z M 236.835938 466.113281 L 235.136719 465.644531 L 236.523438 463.683594 L 237.195313 464.164063 L 237.5 465.839844 Z M 236.835938 466.113281 "/>
</g>
</svg>
