<?xml version="1.0" encoding="UTF-8"?>
<svg xmlns="http://www.w3.org/2000/svg" xmlns:xlink="http://www.w3.org/1999/xlink" width="378pt" height="504pt" viewBox="0 0 378 504" version="1.1">
<g id="data">
<rect x="0" y="0" width="378" height="504" style="fill:rgb(100%,100%,100%);fill-opacity:1;stroke:none;"/>
<path style=" stroke:none;fill-rule:nonzero;fill:rgb(100%,100%,100%);fill-opacity:1;" d="M 53.308594 504 L 324.691406 504 L 324.691406 0 L 53.308594 0 Z M 53.308594 504 "/>
<path style=" stroke:none;fill-rule:nonzero;fill:rgb(22.745098%,53.333333%,16.078431%);fill-opacity:1;" d="M 299.617188 374.820313 L 299.867188 376.246094 L 300.679688 378.375 L 301.820313 380.203125 L 303.371094 381.875 L 303.886719 384.484375 L 304.921875 386.796875 L 307.066406 389.410156 L 307.179688 391.25 L 306.777344 393.191406 L 306.890625 393.976563 L 305.789063 396.917969 L 305.164063 399.925781 L 304.558594 400.886719 L 303.742188 403.015625 L 303.371094 405.136719 L 301.59375 407.117188 L 300.363281 409.332031 L 299.765625 411.777344 L 298.539063 413.066406 L 297.25 413.300781 L 296.550781 413.574219 L 295.578125 412.011719 L 292.742188 410.515625 L 292.480469 410.636719 L 293.898438 413.703125 L 294.476563 414.554688 L 293.3125 415.296875 L 291.738281 416.769531 L 289.234375 417.773438 L 286.9375 419.417969 L 285.320313 421.246094 L 285.101563 421.636719 L 284.976563 421.730469 L 280.71875 424.230469 L 282.339844 425.378906 L 283.628906 424.921875 L 283.417969 425.578125 L 283.167969 428.003906 L 283.847656 431.914063 L 283.960938 432.171875 L 283.441406 432.558594 L 282.84375 432.699219 L 279.644531 432.160156 L 274.75 433.78125 L 272.609375 436.117188 L 274.253906 436.015625 L 275.152344 434.667969 L 276.683594 434.363281 L 278.285156 434.328125 L 281.054688 434.949219 L 281.828125 435.589844 L 281.691406 436.328125 L 279.554688 436.347656 L 277.390625 437.65625 L 277.96875 438.546875 L 281.382813 438.964844 L 286.863281 440.339844 L 289.394531 439.9375 L 290.679688 439.183594 L 292.933594 439.871094 L 295.617188 440.03125 L 297.320313 442.199219 L 299.492188 443.90625 L 299.492188 447.785156 L 296.761719 447.175781 L 293.964844 447.238281 L 291.257813 447.964844 L 288.792969 449.324219 L 286.644531 451.328125 L 285.125 453.695313 L 284.191406 456.484375 L 284.082031 458.035156 L 282.453125 459.574219 L 280.304688 459.796875 L 276.929688 461.316406 L 275.535156 462.605469 L 274.789063 462.777344 L 272.597656 463.816406 L 271.019531 465.945313 L 270.578125 465.542969 L 268.625 464.371094 L 266.476563 463.601563 L 263.976563 463.203125 L 243.214844 463.128906 L 240.582031 463.378906 L 238.488281 463.890625 L 238.398438 463.933594 L 237.714844 463.296875 L 231.496094 463.171875 L 231.378906 463.496094 L 232.574219 464.835938 L 232.214844 465.75 L 231.738281 466.042969 L 226.691406 465.496094 L 219.566406 468.449219 L 217.054688 467.824219 L 210.222656 468.96875 L 208.164063 468.875 L 207.273438 468.058594 L 206.238281 469.769531 L 209.429688 471.089844 L 209.714844 470.9375 L 210.1875 472.128906 L 209.566406 473.890625 L 206.84375 474.453125 L 204.453125 473.097656 L 203.015625 472.699219 L 197.625 472.007813 L 196.175781 472.65625 L 195.679688 473.863281 L 195.832031 474.871094 L 196.757813 475.523438 L 196.488281 476.304688 L 195.917969 475.996094 L 194.851563 473.972656 L 190.289063 470.589844 L 185.898438 468.519531 L 183.121094 467.984375 L 181.648438 469.066406 L 176.207031 469.78125 L 174.339844 470.335938 L 168.992188 473.234375 L 168.214844 474.070313 L 167.203125 476.179688 L 163.605469 486.707031 L 161.628906 488.261719 L 160.1875 490.097656 L 159.304688 489.925781 L 157.121094 488.132813 L 156.527344 486.851563 L 154.683594 485.4375 L 153.613281 485.542969 L 152.417969 486.300781 L 151.738281 486.164063 L 148.46875 482.535156 L 145.148438 482.785156 L 141.785156 482.535156 L 139.03125 482.898438 L 136.980469 483.546875 L 135.527344 484.355469 L 134.507813 484.320313 L 132.167969 484.859375 L 130.304688 487.117188 L 129.578125 487.28125 L 126.703125 488.878906 L 125.316406 490.191406 L 124.039063 490.597656 L 123.722656 491.882813 L 122.769531 493.15625 L 121.671875 495.578125 L 121.304688 497.429688 L 120.660156 497.648438 L 120.394531 498.183594 L 118.253906 498.183594 L 117.96875 497.691406 L 118.09375 496.4375 L 117.15625 494.691406 L 115.984375 493.691406 L 112.253906 492.070313 L 111.410156 491.984375 L 110.375 492.488281 L 110.242188 494.183594 L 110.046875 494.40625 L 109.523438 494.308594 L 108.820313 493.617188 L 109.523438 490.429688 L 112.011719 489.949219 L 114.445313 488.878906 L 117.515625 486.355469 L 118.144531 485.910156 L 121.425781 483.085938 L 124.375 479.769531 L 125.210938 477.886719 L 124.875 476.421875 L 125.640625 474.519531 L 128.386719 473.238281 L 132.105469 472.640625 L 132.679688 471.785156 L 133.257813 469.527344 L 135.859375 467.5625 L 138.636719 464.640625 L 139.121094 458.636719 L 139.339844 458.089844 L 139.410156 456.949219 L 139.796875 454.753906 L 142.492188 455.105469 L 144.269531 456.015625 L 145.761719 455.429688 L 148.429688 452.488281 L 148.125 447.855469 L 148.292969 447.785156 L 158.296875 447.941406 L 163.496094 447.4375 L 166.410156 446.238281 L 167.527344 446.515625 L 169.484375 447.285156 L 170.039063 448.109375 L 170.757813 448.421875 L 173.15625 448.464844 L 180.570313 447.503906 L 181.109375 445.632813 L 181.210938 443.15625 L 182.519531 440.25 L 190.867188 432.195313 L 195.792969 425.3125 L 197.929688 424.472656 L 198.285156 423.78125 L 198.070313 423.238281 L 197.8125 423.082031 L 196.09375 424.355469 L 192.90625 427.300781 L 190.570313 429.988281 L 189.222656 431.449219 L 185.628906 432.957031 L 183.714844 433.246094 L 182.441406 433.0625 L 178.394531 435.230469 L 177.398438 436.808594 L 177.039063 438.671875 L 176.445313 439.273438 L 174.058594 439.917969 L 171.519531 439.871094 L 171.910156 438.871094 L 172.210938 435.546875 L 171.554688 432.277344 L 173.171875 430.285156 L 174.355469 427.863281 L 174.953125 425.234375 L 174.941406 422.664063 L 174.324219 420.042969 L 173.050781 417.523438 L 171.300781 415.472656 L 169.015625 413.816406 L 166.519531 412.792969 L 163.984375 412.378906 L 159.921875 412.890625 L 157.007813 412.578125 L 154.105469 413.003906 L 151.964844 413.839844 L 150.027344 415.078125 L 146.121094 418.476563 L 144.414063 420.644531 L 142.058594 418.714844 L 139.15625 417.421875 L 136.015625 416.964844 L 132.867188 417.375 L 133.433594 415.28125 L 133.601563 413.125 L 133.214844 411.179688 L 134.871094 409.289063 L 135.292969 408.496094 L 136.921875 407.882813 L 138.867188 406.6875 L 138.972656 406.589844 L 141.359375 406.660156 L 142.21875 406.390625 L 149.359375 401.828125 L 152.136719 398.207031 L 153.054688 396.195313 L 154.199219 391.746094 L 154.027344 390.664063 L 154.128906 390.511719 L 155.066406 387.191406 L 155.132813 384.886719 L 154.738281 382.617188 L 154.519531 382.054688 L 154.652344 381.796875 L 154.074219 380.925781 L 153.847656 380.351563 L 152.585938 378.421875 L 152.28125 378.113281 L 152.683594 374.835938 L 153.175781 374.082031 L 152.804688 373.207031 L 150.203125 373.105469 L 145.449219 374.257813 L 145.390625 374.300781 L 144.414063 374.125 L 145.304688 372.128906 L 145.800781 370.003906 L 145.839844 369.113281 L 147.132813 367.984375 L 147.953125 364.523438 L 151.550781 360.582031 L 153.09375 359.609375 L 154.941406 359.808594 L 160.492188 357.457031 L 163.644531 357.28125 L 167.339844 357.714844 L 172.597656 355.179688 L 173.933594 355.046875 L 174.484375 355.082031 L 179.910156 359.441406 L 180.433594 358.429688 L 177.679688 353.460938 L 178.242188 352.835938 L 180.867188 352.449219 L 181.503906 352.695313 L 181.914063 353.875 L 182.898438 354.332031 L 184.078125 356.789063 L 185.613281 357.902344 L 188.359375 357.621094 L 190.335938 355.148438 L 189.90625 355.050781 L 188.667969 355.527344 L 188.3125 355.957031 L 186.378906 356.386719 L 183.8125 354.640625 L 179.976563 346.332031 L 180.359375 345.644531 L 181.878906 343.707031 L 182.738281 341.390625 L 183.371094 340.257813 L 185.429688 339.015625 L 185.140625 338.578125 L 183.214844 338.488281 L 183.347656 337.355469 L 183.066406 332.925781 L 182.277344 330.277344 L 184.695313 329.191406 L 187.28125 323.421875 L 187.71875 320.933594 L 187.855469 317.484375 L 184.742188 320.527344 L 179.199219 323.441406 L 177.335938 322.691406 L 175.699219 319.859375 L 178.3125 319.96875 L 182.035156 319.289063 L 184.765625 317.960938 L 187.0625 315.96875 L 189.660156 318.046875 L 192.738281 319.304688 L 196.179688 319.632813 L 199.441406 318.980469 L 202.382813 317.433594 L 204.691406 315.214844 L 206.253906 312.570313 L 207.472656 308.667969 L 207.339844 304.71875 L 205.890625 301.039063 L 203.292969 298.058594 L 199.847656 296.121094 L 202.027344 294.765625 L 203.773438 293.066406 L 205.128906 291.039063 L 206.03125 288.773438 L 206.738281 281.527344 L 206.296875 279.011719 L 205.320313 276.65625 L 203.9375 274.664063 L 201.933594 272.691406 L 198.605469 270.558594 L 196.53125 269.902344 L 194.375 269.644531 L 190.222656 270.300781 L 191.519531 263.089844 L 191.503906 260.167969 L 190.171875 253.664063 L 188.996094 251.378906 L 187.347656 249.410156 L 184.972656 247.65625 L 182.234375 246.558594 L 176.191406 245.425781 L 172.605469 245.621094 L 169.589844 246.710938 L 166.988281 248.585938 L 164.996094 251.101563 L 163.800781 253.9375 L 162.007813 255.402344 L 160.472656 257.300781 L 159.414063 259.355469 L 158.757813 261.707031 L 158.605469 264.015625 L 158.941406 266.433594 L 160.542969 270.070313 L 162.007813 271.859375 L 163.800781 273.324219 L 165.714844 276.644531 L 167.65625 278.507813 L 169.972656 279.878906 L 173.429688 280.8125 L 177.003906 280.648438 L 180.363281 279.40625 L 183.183594 277.199219 L 182.015625 280.035156 L 181.625 282.953125 L 181.871094 284.871094 L 180.035156 285.351563 L 174.65625 284.980469 L 172.566406 284.292969 L 169.453125 284.03125 L 169.101563 285.445313 L 167.726563 285.175781 L 164.785156 285.351563 L 161.984375 286.257813 L 159.402344 287.921875 L 157.417969 290.101563 L 156.046875 292.707031 L 155.089844 292.933594 L 149.984375 289.230469 L 149.214844 288.042969 L 149.230469 287.167969 L 148.945313 287.023438 L 148.15625 288.078125 L 147.988281 288.910156 L 148.375 290.554688 L 149.574219 292.960938 L 149.789063 295.167969 L 149.59375 295.28125 L 148.105469 296.777344 L 145.816406 295.78125 L 144.601563 294.238281 L 144.507813 293.621094 L 143.632813 292.355469 L 143.042969 292.085938 L 144.0625 290.449219 L 144.863281 288.277344 L 145.222656 285.863281 L 145.070313 283.429688 L 144.414063 281.078125 L 146.820313 278.953125 L 148.550781 276.25 L 149.476563 273.179688 L 149.53125 269.972656 L 148.265625 265.941406 L 146.648438 263.625 L 144.414063 261.691406 L 144.261719 261.042969 L 144.195313 260.621094 L 144.109375 260.410156 L 143.59375 258.25 L 141.691406 255.117188 L 139.957031 253.449219 L 137.925781 252.160156 L 137.445313 251.980469 L 138.445313 244.132813 L 141.253906 241.824219 L 142.886719 242.511719 L 146.15625 243.175781 L 148.300781 243.253906 L 142.378906 240.898438 L 142.527344 240.777344 L 144.414063 238.429688 L 145.9375 240.339844 L 147.820313 241.886719 L 149.988281 243.007813 L 152.46875 243.671875 L 155.675781 243.710938 L 157.804688 243.234375 L 159.921875 242.308594 L 163.476563 242.589844 L 166.832031 241.832031 L 169.410156 240.429688 L 169.441406 240.398438 L 178.0625 241.875 L 182.921875 243.167969 L 186.398438 241.730469 L 187.519531 239.417969 L 188.617188 238.355469 L 189.539063 238.171875 L 193.183594 238.5 L 195.820313 240.324219 L 196.953125 242.152344 L 199.683594 244.484375 L 202.996094 245.867188 L 205.453125 246.09375 L 206.445313 246.632813 L 206.445313 253.9375 L 205.242188 256.898438 L 204.890625 260.074219 L 205.34375 262.980469 L 206.445313 265.570313 L 206.199219 269.503906 L 207.335938 273.414063 L 209.476563 276.421875 L 211.859375 278.730469 L 213.882813 280.070313 L 217.890625 281.3125 L 221.578125 281.097656 L 221.71875 281.390625 L 220.652344 282.824219 L 219.703125 284.78125 L 219.132813 286.886719 L 218.964844 289.054688 L 219.203125 291.222656 L 219.84375 293.304688 L 220.929688 295.335938 L 222.304688 297.023438 L 224.507813 298.777344 L 227.191406 299.988281 L 230.832031 300.59375 L 232.421875 300.519531 L 233.613281 301.074219 L 233.703125 302.890625 L 234.320313 305.238281 L 235.414063 307.410156 L 236.933594 309.308594 L 239.03125 310.984375 L 241.339844 312.09375 L 244.503906 314.605469 L 246.726563 315.527344 L 249.09375 315.96875 L 249.464844 318.089844 L 250.28125 320.222656 L 251.496094 322.152344 L 252.96875 323.722656 L 252.441406 325.820313 L 252.308594 327.980469 L 252.96875 331.476563 L 253.003906 338.300781 L 252.601563 338.082031 L 245.550781 339.511719 L 244.589844 338.644531 L 243.40625 338.558594 L 241.210938 339.871094 L 241.886719 340.445313 L 246.324219 340.394531 L 249.617188 339.34375 L 251.976563 339.082031 L 253.117188 340.730469 L 253.644531 343.140625 L 255.28125 346.191406 L 257.847656 348.699219 L 261.054688 350.308594 L 264.601563 350.863281 L 263.992188 353.59375 L 264.050781 356.390625 L 265.078125 361.914063 L 266.613281 365.15625 L 267.867188 366.441406 L 264.953125 369.09375 L 261.394531 373.164063 L 260.601563 374.816406 L 262.84375 374.3125 L 264.9375 375.519531 L 266.9375 378.226563 L 270.21875 378.804688 L 270.625 378.746094 L 271.910156 376.796875 L 272.234375 374.960938 L 273.40625 371.914063 L 274.707031 370.632813 L 276.347656 370.347656 L 279.851563 370.910156 L 283.480469 370.328125 L 284.253906 370.867188 L 286.703125 370.742188 L 293.949219 371.515625 L 296.914063 372.84375 Z M 237.25 464.460938 L 236.417969 464.84375 L 235.394531 465.714844 L 235.136719 465.644531 L 236.523438 463.683594 L 237.195313 464.164063 Z M 232.753906 468.027344 L 230.679688 471.128906 L 229.871094 474.285156 L 229.152344 474.433594 L 227.519531 473.003906 L 224.921875 471.6875 L 222.890625 471.269531 L 222.296875 470.886719 L 221.546875 470.992188 L 220.695313 470.820313 L 220.515625 470.816406 L 221.476563 469.683594 L 227.316406 466.367188 L 232.550781 467.761719 Z M 141.367188 358.46875 L 142.121094 358.335938 L 141.734375 358.875 Z M 142.503906 358.269531 L 142.660156 358.242188 L 144.789063 357.425781 L 146.621094 356.289063 L 148.292969 354.738281 L 150.636719 355.765625 L 153.148438 356.257813 L 154.046875 356.199219 L 155.546875 356.503906 L 154.066406 358.859375 L 150.984375 360.816406 L 147.425781 363.976563 L 146.109375 363.875 L 144.195313 361.613281 Z M 182.191406 286.421875 L 183.183594 288.832031 L 179.308594 288.164063 L 175.429688 288.832031 L 174.640625 288.175781 L 176.464844 286.417969 L 178.757813 285.980469 L 180.191406 286.804688 L 181.015625 286.710938 Z M 146.4375 309.203125 L 146.925781 310.234375 L 148.292969 312.09375 L 148.292969 317.265625 L 147.847656 318.148438 L 145.421875 320.53125 L 144.84375 320.671875 L 141.804688 322.496094 L 143.574219 319.839844 L 144.53125 316.925781 L 144.726563 314.503906 L 144.414063 312.09375 L 144.824219 310.1875 L 145.863281 309.40625 Z M 136.769531 296.628906 L 136.660156 296.585938 L 136.761719 296.546875 Z M 134.953125 251.214844 L 134.65625 251.167969 L 133.386719 249.734375 L 133.347656 248.480469 L 132.785156 246.183594 L 134.4375 245.835938 L 134.707031 246.3125 L 135.339844 249.003906 L 135.222656 250.96875 Z M 171.355469 238.617188 L 171.554688 238.429688 L 174.601563 236.816406 L 177.117188 234.277344 L 178.925781 230.480469 L 179.710938 225.234375 L 179.84375 225.195313 L 184.40625 222.984375 L 185.9375 223.058594 L 189.234375 222.496094 L 189.332031 222.921875 L 188.898438 224.691406 L 189.238281 225.953125 L 190.898438 226.824219 L 192.988281 227.191406 L 193.671875 227.910156 L 193.679688 227.964844 L 194.292969 229.433594 L 192.117188 231.570313 L 189.460938 232.730469 L 188.34375 232.882813 L 187.070313 232.078125 L 185.40625 232.042969 L 181.046875 235.800781 L 180.578125 237.003906 L 174.761719 240.109375 Z M 164.453125 162.191406 L 165.117188 163.519531 L 165.386719 163.828125 L 164.84375 164.46875 L 163.277344 162.738281 L 161.929688 161.996094 L 164.042969 162.292969 Z M 173.378906 168.472656 L 176.929688 168.800781 L 179.308594 168.644531 L 183.058594 169.3125 L 187.0625 168.644531 L 197.050781 168.644531 L 199.050781 168.96875 L 201.152344 170.863281 L 204.015625 172.261719 L 207.152344 172.828125 L 210.324219 172.523438 L 209.65625 176.398438 L 210.324219 180.277344 L 208.175781 182.632813 L 206.707031 185.601563 L 206.140625 188.734375 L 206.445313 191.90625 L 203.597656 194.355469 L 200.796875 197.757813 L 199.472656 200.203125 L 199.433594 197.902344 L 198.941406 195.65625 L 198.015625 193.550781 L 196.78125 191.765625 L 194.410156 189.628906 L 190.9375 188.03125 L 188.792969 186.03125 L 186.335938 184.679688 L 182.734375 183.863281 L 179.308594 184.152344 L 177.035156 183.847656 L 174.75 183.988281 L 171.03125 185.269531 L 167.949219 187.714844 L 169.53125 185.230469 L 170.414063 182.558594 L 170.625 179.746094 L 170.160156 176.96875 L 169.164063 174.609375 L 167.675781 172.523438 L 167.46875 170.414063 L 167.808594 170.273438 L 170.480469 169.527344 L 170.492188 169.949219 L 171.554688 169.839844 Z M 180.679688 116.113281 L 181.015625 116.539063 L 181.371094 116.820313 L 182.164063 118.246094 L 179.308594 118.246094 L 179.308594 114.898438 Z M 286.679688 439.636719 L 283.058594 438.976563 L 282.164063 437.605469 L 282.484375 436.070313 L 286.839844 437.054688 L 287.960938 438.832031 Z M 286.679688 439.636719 "/>
</g>
</svg>
