<?xml version="1.0" encoding="UTF-8"?>
<svg xmlns="http://www.w3.org/2000/svg" xmlns:xlink="http://www.w3.org/1999/xlink" width="378pt" height="504pt" viewBox="0 0 378 504" version="1.1">
<g id="data">
<rect x="0" y="0" width="378" height="504" style="fill:rgb(100%,100%,100%);fill-opacity:1;stroke:none;"/>
<path style=" stroke:none;fill-rule:nonzero;fill:rgb(100%,100%,100%);fill-opacity:1;" d="M 53.308594 504 L 324.691406 504 L 324.691406 0 L 53.308594 0 Z M 53.308594 504 "/>
<path style=" stroke:none;fill-rule:nonzero;fill:rgb(22.745098%,53.333333%,16.078431%);fill-opacity:1;" d="M 295.808594 372.347656 L 295.933594 373.679688 L 297.242188 376.867188 L 299.816406 379.871094 L 303.371094 381.875 L 303.742188 384 L 304.558594 386.128906 L 305.773438 388.058594 L 307.066406 389.4375 L 307.179688 391.25 L 306.777344 393.191406 L 306.890625 393.976563 L 305.789063 396.917969 L 305.167969 399.90625 L 304.558594 400.886719 L 303.742188 403.015625 L 303.371094 405.136719 L 301.667969 407.015625 L 300.363281 409.332031 L 299.765625 411.777344 L 298.929688 412.65625 L 297.007813 411.851563 L 294.484375 411.433594 L 292.742188 410.515625 L 292.480469 410.636719 L 292.882813 411.511719 L 291.65625 411.59375 L 289.203125 412.339844 L 285.6875 414.679688 L 283.984375 416.769531 L 281.460938 418.945313 L 279.824219 421.402344 L 278.746094 424.824219 L 278.757813 428.410156 L 280.097656 432.234375 L 279.644531 432.160156 L 274.75 433.78125 L 272.609375 436.117188 L 274.253906 436.015625 L 275.152344 434.667969 L 276.683594 434.363281 L 278.285156 434.328125 L 281.054688 434.949219 L 281.589844 435.394531 L 281.800781 435.742188 L 281.691406 436.328125 L 279.554688 436.347656 L 277.390625 437.65625 L 277.96875 438.546875 L 281.382813 438.964844 L 286.863281 440.339844 L 287.597656 440.222656 L 287.671875 440.257813 L 291.601563 440.847656 L 295.617188 440.03125 L 295.507813 440.914063 L 294.589844 443.9375 L 292.972656 446.507813 L 291.738281 447.785156 L 288.089844 449.875 L 285.746094 452.574219 L 284.332031 455.859375 L 284.125 457.996094 L 282.453125 459.574219 L 280.304688 459.796875 L 276.929688 461.316406 L 275.515625 462.609375 L 274.789063 462.777344 L 272.597656 463.816406 L 271.019531 465.945313 L 270.578125 465.542969 L 268.625 464.371094 L 266.476563 463.601563 L 263.976563 463.203125 L 243.214844 463.128906 L 240.207031 463.441406 L 238.410156 463.945313 L 237.714844 463.296875 L 231.496094 463.171875 L 231.378906 463.496094 L 232.574219 464.835938 L 232.214844 465.75 L 231.738281 466.042969 L 226.691406 465.496094 L 219.566406 468.449219 L 217.054688 467.824219 L 210.222656 468.96875 L 208.164063 468.875 L 207.273438 468.058594 L 206.238281 469.769531 L 209.429688 471.089844 L 209.714844 470.9375 L 210.1875 472.128906 L 209.566406 473.890625 L 206.84375 474.453125 L 204.453125 473.097656 L 203.015625 472.699219 L 197.625 472.007813 L 196.175781 472.65625 L 195.679688 473.863281 L 195.78125 474.523438 L 195.257813 474.742188 L 194.851563 473.972656 L 193.808594 473.199219 L 192.816406 471.503906 L 189.785156 468.953125 L 186.074219 467.566406 L 182.113281 467.503906 L 178.140625 468.902344 L 177.195313 469.648438 L 176.207031 469.78125 L 174.339844 470.335938 L 168.992188 473.234375 L 168.214844 474.070313 L 167.203125 476.179688 L 163.601563 486.714844 L 161.28125 488.625 L 160.175781 490.09375 L 159.726563 490.007813 L 159.011719 488.453125 L 157.75 486.683594 L 156.179688 485.175781 L 154.355469 483.992188 L 151.351563 482.910156 L 148.617188 482.703125 L 148.46875 482.535156 L 148.011719 482.570313 L 145.183594 481.476563 L 142.117188 481.191406 L 139.582031 481.578125 L 137.074219 482.570313 L 134.675781 484.289063 L 134.644531 484.324219 L 134.507813 484.320313 L 132.167969 484.859375 L 130.382813 487.023438 L 128.53125 487.742188 L 126.703125 488.878906 L 125.277344 490.203125 L 124.753906 490.367188 L 122.300781 489.820313 L 119.628906 489.867188 L 114.929688 490.871094 L 112.226563 492.070313 L 112.191406 492.066406 L 113.398438 490.429688 L 115.765625 489.988281 L 117.878906 489.125 L 121.152344 486.554688 L 123.992188 485.359375 L 126.328125 483.550781 L 128.320313 480.875 L 129.472656 477.746094 L 129.679688 474.289063 L 129.390625 473.078125 L 132.105469 472.640625 L 132.679688 471.785156 L 133.09375 470.160156 L 134.796875 469.445313 L 137.222656 467.546875 L 139.066406 465.082031 L 140.378906 461.335938 L 140.835938 457.394531 L 140.738281 455.097656 L 140.664063 454.867188 L 142.492188 455.105469 L 144.269531 456.015625 L 145.761719 455.429688 L 148.429688 452.488281 L 148.125 447.851563 L 148.292969 447.785156 L 158.046875 447.945313 L 162.234375 447.6875 L 164.480469 447.136719 L 166.394531 446.234375 L 167.527344 446.515625 L 169.484375 447.285156 L 170.039063 448.109375 L 170.757813 448.421875 L 173.15625 448.464844 L 180.570313 447.503906 L 181.109375 445.632813 L 181.210938 443.15625 L 182.519531 440.25 L 190.867188 432.195313 L 195.792969 425.3125 L 197.929688 424.472656 L 198.285156 423.78125 L 198.070313 423.238281 L 197.8125 423.082031 L 196.09375 424.355469 L 192.90625 427.300781 L 190.570313 429.988281 L 189.222656 431.449219 L 185.628906 432.957031 L 183.714844 433.246094 L 182.441406 433.0625 L 178.394531 435.230469 L 177.398438 436.808594 L 177.039063 438.671875 L 176.445313 439.273438 L 174.058594 439.917969 L 171.550781 439.871094 L 172.101563 437.859375 L 172.171875 435.035156 L 171.554688 432.277344 L 173.472656 430.089844 L 174.746094 427.609375 L 175.625 423.519531 L 175.714844 420.96875 L 175.316406 418.707031 L 174.425781 416.449219 L 173.167969 414.527344 L 171.554688 412.890625 L 172.582031 410.550781 L 173.074219 408.039063 L 173 405.480469 L 172.417969 403.117188 L 169.8125 397.578125 L 168.113281 395.671875 L 166.148438 394.246094 L 171.484375 391.675781 L 173.292969 390.035156 L 174.71875 388.054688 L 175.773438 385.574219 L 176.222656 383.042969 L 176.109375 380.476563 L 175.429688 378 L 178.105469 380.359375 L 181.367188 381.796875 L 184.402344 382.191406 L 189.617188 381.738281 L 192.550781 380.84375 L 195.148438 379.214844 L 197.230469 376.960938 L 198.648438 374.242188 L 199.238281 371.898438 L 199.324219 369.355469 L 198.921875 367.097656 L 197.863281 364.210938 L 196.546875 362.15625 L 194.828125 360.421875 L 192.902344 359.140625 L 190.636719 358.234375 L 188.359375 357.832031 L 186.046875 357.882813 L 179.910156 359.4375 L 180.433594 358.429688 L 177.679688 353.460938 L 178.242188 352.835938 L 180.867188 352.449219 L 181.503906 352.695313 L 181.914063 353.875 L 182.898438 354.332031 L 184.078125 356.789063 L 185.613281 357.902344 L 188.359375 357.621094 L 190.335938 355.148438 L 189.90625 355.050781 L 188.667969 355.527344 L 188.3125 355.957031 L 186.378906 356.386719 L 183.8125 354.640625 L 179.976563 346.332031 L 180.039063 346.214844 L 181.15625 345.046875 L 182.5625 342.617188 L 183.140625 340.667969 L 183.371094 340.257813 L 185.429688 339.015625 L 185.140625 338.578125 L 183.425781 338.496094 L 183.488281 337.503906 L 183.027344 332.671875 L 182.28125 330.273438 L 184.695313 329.191406 L 187.15625 323.703125 L 187.945313 325.851563 L 189.832031 328.433594 L 192.460938 330.46875 L 195.558594 331.683594 L 198.738281 331.996094 L 202.007813 331.390625 L 204.105469 330.441406 L 205.878906 329.179688 L 207.386719 327.609375 L 208.574219 325.785156 L 209.402344 323.769531 L 209.84375 321.636719 L 209.875 319.460938 L 209.5 317.316406 L 211.183594 318.691406 L 213.210938 319.777344 L 215.414063 320.445313 L 217.703125 320.664063 L 219.992188 320.429688 L 222.3125 319.707031 L 224.347656 318.617188 L 226.039063 317.242188 L 227.585938 315.363281 L 228.707031 313.203125 L 229.355469 310.855469 L 229.5 308.421875 L 229.136719 306.015625 L 228.277344 303.734375 L 227.042969 301.785156 L 225.273438 299.929688 L 227.308594 300.644531 L 229.441406 300.96875 L 232.570313 300.585938 L 233.664063 301.097656 L 234.109375 304.636719 L 236.085938 308.347656 L 238.5 310.628906 L 241.339844 312.09375 L 242.679688 314.996094 L 244.757813 317.425781 L 246.738281 318.835938 L 249.09375 319.847656 L 248.785156 323.019531 L 249.355469 326.152344 L 250.820313 329.121094 L 252.96875 331.476563 L 252.835938 338.109375 L 252.847656 338.214844 L 252.601563 338.082031 L 245.550781 339.511719 L 244.589844 338.644531 L 243.40625 338.558594 L 241.210938 339.871094 L 241.886719 340.445313 L 246.324219 340.394531 L 249.617188 339.34375 L 251.976563 339.082031 L 253.09375 340.695313 L 253.152344 341.277344 L 253.78125 343.503906 L 255.519531 346.496094 L 258.058594 348.847656 L 261.175781 350.347656 L 264.601563 350.863281 L 263.9375 354.992188 L 264.804688 360.789063 L 265.832031 363.828125 L 267.566406 366.371094 L 267.753906 366.542969 L 264.953125 369.09375 L 261.394531 373.164063 L 260.601563 374.816406 L 262.84375 374.3125 L 264.9375 375.519531 L 266.9375 378.226563 L 270.21875 378.804688 L 270.625 378.746094 L 271.910156 376.796875 L 272.234375 374.960938 L 273.40625 371.914063 L 274.707031 370.632813 L 276.351563 370.34375 L 278.457031 370.792969 L 281.253906 370.855469 L 283.515625 370.351563 L 284.253906 370.867188 L 286.703125 370.742188 L 293.949219 371.515625 Z M 282.371094 436.601563 L 284.691406 438.769531 L 286.285156 439.566406 L 283.058594 438.976563 L 282.164063 437.605469 Z M 237.25 464.457031 L 236.199219 464.972656 L 235.367188 465.707031 L 235.136719 465.644531 L 236.523438 463.683594 L 237.195313 464.164063 Z M 232.742188 468.011719 L 232.683594 468.0625 L 230.628906 471.246094 L 229.867188 474.289063 L 229.160156 474.433594 L 227.726563 473.148438 L 225.398438 471.867188 L 223.085938 471.195313 L 222.703125 471.148438 L 222.296875 470.886719 L 221.5 471 L 220.46875 470.875 L 221.476563 469.683594 L 227.316406 466.367188 L 232.550781 467.761719 Z M 179.90625 359.4375 L 179.371094 359.570313 L 177.484375 360.625 L 175.734375 362.101563 L 174.304688 363.890625 L 173.257813 365.925781 L 171.144531 364.085938 L 168.648438 362.804688 L 164.183594 361.832031 L 162.023438 361.964844 L 159.921875 362.492188 L 157.199219 360.230469 L 155.554688 359.550781 L 160.492188 357.457031 L 163.644531 357.28125 L 165.660156 357.519531 L 165.984375 357.601563 L 166.632813 357.632813 L 167.339844 357.714844 L 167.429688 357.671875 L 168.285156 357.714844 L 170.691406 357.34375 L 173.078125 356.417969 L 174.761719 355.304688 Z M 153.980469 358.914063 L 148.675781 357.957031 L 146.515625 358.085938 L 144.414063 358.617188 L 146.585938 356.910156 L 148.292969 354.738281 L 151.128906 355.910156 L 154.042969 356.296875 L 154.34375 356.257813 L 155.546875 356.503906 L 154.066406 358.859375 Z M 175.699219 319.859375 L 178.3125 319.96875 L 182.035156 319.289063 L 184.765625 317.960938 L 187.0625 315.96875 L 187.269531 316.1875 L 186.800781 318.515625 L 184.742188 320.527344 L 179.199219 323.441406 L 177.335938 322.691406 Z M 206.726563 281.378906 L 210.289063 283.402344 L 214.332031 284.066406 L 218.476563 283.242188 L 221.65625 281.261719 L 221.710938 281.371094 L 220.476563 282.855469 L 219.332031 285.011719 L 218.664063 287.355469 L 218.492188 289.664063 L 218.78125 291.957031 L 219.574219 294.265625 L 220.753906 296.253906 L 222.398438 298.054688 L 220.214844 297.308594 L 218.058594 297.007813 L 215.882813 297.117188 L 213.648438 297.671875 L 211.5625 298.65625 L 209.714844 300.03125 L 208.171875 301.746094 L 207.054688 303.613281 L 205.960938 301.160156 L 204.335938 299.019531 L 202.257813 297.308594 L 199.847656 296.121094 L 203.082031 293.824219 L 205.359375 290.578125 L 206.332031 287.390625 Z M 193.195313 269.675781 L 193.925781 265.96875 L 193.429688 262.226563 L 195.832031 264.257813 L 198.691406 265.570313 L 199.625 269.273438 L 201.792969 272.570313 L 199.933594 271.222656 L 197.847656 270.269531 L 195.488281 269.726563 Z M 167.949219 187.714844 L 170.011719 184.042969 L 170.636719 180.003906 L 169.824219 176 L 167.675781 172.523438 L 167.882813 170.253906 L 170.480469 169.527344 L 170.492188 169.949219 L 171.554688 169.839844 L 173.328125 168.511719 L 173.789063 168.625 L 179.308594 168.644531 L 183.183594 169.3125 L 187.0625 168.644531 L 197.050781 168.644531 L 198.5 168.878906 L 196.367188 171.480469 L 195.296875 173.914063 L 194.816406 176.398438 L 192.890625 178.441406 L 191.460938 181.003906 L 190.65625 184.476563 L 190.9375 188.03125 L 189.101563 186.261719 L 187.039063 184.988281 L 184.628906 184.140625 L 182.097656 183.839844 L 179.308594 184.152344 L 176.015625 183.855469 L 173.503906 184.261719 L 170.480469 185.589844 Z M 184.308594 223.03125 L 186.355469 223.226563 L 189.28125 222.699219 L 189.332031 222.921875 L 188.898438 224.691406 L 189.238281 225.953125 L 190.898438 226.824219 L 192.988281 227.191406 L 193.675781 227.917969 L 194.300781 229.429688 L 192.117188 231.570313 L 189.460938 232.730469 L 188.34375 232.882813 L 187.070313 232.078125 L 185.40625 232.042969 L 181.046875 235.800781 L 180.578125 237.003906 L 174.761719 240.109375 L 174.246094 239.882813 L 175.429688 238.429688 L 177.949219 236.359375 L 181.667969 231.878906 L 182.707031 229.832031 L 183.324219 227.617188 L 183.496094 225.328125 L 183.265625 223.535156 Z M 187.535156 239.402344 L 187.355469 240.050781 L 187.328125 242.867188 L 187.9375 245.488281 L 189.199219 248.007813 L 190.9375 250.0625 L 190.273438 253.9375 L 189.09375 251.53125 L 187.398438 249.460938 L 185.164063 247.765625 L 182.707031 246.691406 L 176.828125 245.507813 L 174.519531 245.375 L 171.488281 245.914063 L 168.59375 247.300781 L 165.707031 250.027344 L 164.570313 251.894531 L 163.800781 253.9375 L 160.789063 256.714844 L 158.929688 260.363281 L 158.46875 262.757813 L 158.503906 265.070313 L 158.996094 267.328125 L 159.921875 269.445313 L 160.011719 271.683594 L 160.527344 273.863281 L 159.921875 273.324219 L 159.765625 270.628906 L 159.042969 268.164063 L 158.015625 266.238281 L 156.550781 264.441406 L 153.882813 262.441406 L 150.882813 261.308594 L 147.6875 261.035156 L 144.414063 261.691406 L 144.242188 260.9375 L 144.195313 260.621094 L 144.140625 260.492188 L 143.6875 258.484375 L 142.164063 255.710938 L 138.921875 251.859375 L 137.597656 250.804688 L 138.445313 244.132813 L 141.253906 241.824219 L 142.886719 242.511719 L 146.15625 243.175781 L 148.300781 243.253906 L 142.378906 240.898438 L 142.527344 240.777344 L 144.414063 238.429688 L 145.9375 240.339844 L 147.820313 241.886719 L 149.988281 243.007813 L 152.34375 243.648438 L 156.183594 243.636719 L 159.921875 242.308594 L 162.410156 243.347656 L 165.066406 243.789063 L 167.757813 243.605469 L 170.449219 242.757813 L 173.007813 241.011719 L 178.0625 241.875 L 182.921875 243.167969 L 186.398438 241.730469 L 187.519531 239.417969 Z M 135.160156 248.238281 L 134.589844 247.542969 L 132.785156 246.183594 L 134.4375 245.835938 L 134.707031 246.3125 Z M 167.675781 281.078125 L 169.671875 281.964844 L 171.796875 282.464844 L 173.980469 282.554688 L 176.140625 282.238281 L 178.203125 281.527344 L 180.097656 280.4375 L 181.753906 279.015625 L 183.183594 277.199219 L 182.015625 280.035156 L 181.625 282.953125 L 181.871094 284.871094 L 180.035156 285.351563 L 174.65625 284.980469 L 172.566406 284.292969 L 169.453125 284.03125 L 169.199219 285.050781 L 166.972656 284.648438 L 163.800781 284.953125 L 164.101563 281.707031 L 163.492188 278.503906 L 165.5 280.046875 Z M 182.191406 286.421875 L 183.183594 288.832031 L 179.308594 288.164063 L 175.429688 288.832031 L 174.671875 288.144531 L 176.464844 286.417969 L 178.757813 285.980469 L 180.191406 286.804688 L 181.015625 286.710938 Z M 148.632813 402.292969 L 148.292969 405.136719 L 147.121094 407.972656 L 146.734375 410.890625 L 147.121094 413.933594 L 148.292969 416.769531 L 146.121094 418.476563 L 144.414063 420.644531 L 143.695313 416.617188 L 141.710938 413.1875 L 138.574219 410.558594 L 134.894531 409.238281 L 134.941406 409.152344 L 138.539063 408.707031 L 141.582031 407.464844 L 145.882813 404.046875 Z M 144.414063 319.847656 L 145.082031 315.96875 L 144.414063 312.09375 L 148.292969 312.09375 L 148.292969 317.265625 L 147.847656 318.148438 L 146.121094 319.847656 Z M 144.414063 319.847656 "/>
<path style=" stroke:none;fill-rule:nonzero;fill:rgb(80.392157%,58.431373%,4.705882%);fill-opacity:1;" d="M 212.261719 312.09375 L 211.976563 313.890625 L 211.152344 315.511719 L 209.863281 316.796875 L 208.242188 317.625 L 206.445313 317.90625 L 204.648438 317.625 L 203.027344 316.796875 L 201.742188 315.511719 L 200.914063 313.890625 L 200.628906 312.09375 L 200.914063 310.296875 L 201.742188 308.675781 L 203.027344 307.386719 L 204.648438 306.5625 L 206.445313 306.277344 L 208.242188 306.5625 L 209.863281 307.386719 L 211.152344 308.675781 L 211.976563 310.296875 Z M 212.261719 312.09375 "/>
<path style=" stroke:none;fill-rule:nonzero;fill:rgb(80.392157%,58.431373%,4.705882%);fill-opacity:1;" d="M 196.753906 296.585938 L 196.46875 298.382813 L 195.644531 300.003906 L 194.355469 301.289063 L 192.734375 302.117188 L 190.9375 302.398438 L 189.140625 302.117188 L 187.519531 301.289063 L 186.234375 300.003906 L 185.40625 298.382813 L 185.125 296.585938 L 185.40625 294.789063 L 186.234375 293.167969 L 187.519531 291.878906 L 189.140625 291.054688 L 190.9375 290.769531 L 192.734375 291.054688 L 194.355469 291.878906 L 195.644531 293.167969 L 196.46875 294.789063 Z M 196.753906 296.585938 "/>
<path style=" stroke:none;fill-rule:nonzero;fill:rgb(80.392157%,58.431373%,4.705882%);fill-opacity:1;" d="M 130.847656 164.769531 L 130.5625 166.566406 L 129.734375 168.1875 L 128.449219 169.472656 L 126.828125 170.300781 L 125.03125 170.585938 L 123.234375 170.300781 L 121.613281 169.472656 L 120.253906 167.773438 L 120.5 161.175781 L 121.613281 160.066406 L 123.234375 159.238281 L 123.710938 159.164063 L 124.035156 161.566406 L 125.066406 162.535156 L 125.355469 162.453125 L 126.003906 159.773438 L 125.242188 158.988281 L 126.828125 159.238281 L 128.449219 160.066406 L 129.734375 161.351563 L 130.5625 162.972656 Z M 130.847656 164.769531 "/>
<path style=" stroke:none;fill-rule:nonzero;fill:rgb(80.392157%,58.431373%,4.705882%);fill-opacity:1;" d="M 161.863281 393.507813 L 161.578125 395.304688 L 160.75 396.925781 L 159.464844 398.210938 L 157.84375 399.039063 L 156.046875 399.324219 L 154.25 399.039063 L 152.289063 397.875 L 153.054688 396.195313 L 154.199219 391.746094 L 153.5 388.359375 L 154.25 387.976563 L 156.046875 387.691406 L 157.84375 387.976563 L 159.464844 388.804688 L 160.75 390.089844 L 161.578125 391.710938 Z M 161.863281 393.507813 "/>
<path style=" stroke:none;fill-rule:nonzero;fill:rgb(80.392157%,58.431373%,4.705882%);fill-opacity:1;" d="M 130.847656 222.921875 L 130.5625 224.71875 L 129.734375 226.339844 L 128.449219 227.628906 L 126.828125 228.453125 L 125.03125 228.738281 L 123.234375 228.453125 L 122.046875 227.847656 L 122.761719 224.691406 L 124.160156 221.96875 L 126.660156 220.210938 L 130.199219 220.417969 Z M 127.464844 217.714844 L 129.175781 218.945313 L 127.28125 218.265625 Z M 123.378906 222.417969 L 122.582031 222.078125 L 123.082031 221.191406 L 124.476563 221.046875 Z M 121.453125 227.109375 L 121.152344 226.972656 L 120.984375 225.621094 L 121.59375 224.800781 L 122.367188 224.816406 L 121.953125 226.621094 Z M 119.292969 223.421875 L 119.5 221.125 L 120.921875 218.910156 L 121.195313 219.144531 L 120.902344 221.207031 Z M 119.292969 223.421875 "/>
<path style=" stroke:none;fill-rule:nonzero;fill:rgb(80.392157%,58.431373%,4.705882%);fill-opacity:1;" d="M 163.046875 166.589844 L 161.808594 166.324219 L 161.53125 165.507813 L 160.382813 165.597656 L 159.09375 164.308594 L 158.269531 162.6875 L 158.003906 161.023438 L 164.042969 162.292969 L 166.015625 161.605469 L 166.75 160.257813 L 167.589844 160.183594 L 167.507813 160.828125 L 166.417969 162.609375 Z M 158.15625 159.796875 L 159.09375 157.472656 L 160.382813 156.1875 L 162.003906 155.363281 L 163.855469 155.085938 L 162.601563 156.074219 L 162.234375 157.082031 L 162.671875 158.175781 L 162.078125 159.632813 L 159.644531 160.289063 Z M 158.15625 159.796875 "/>
<path style=" stroke:none;fill-rule:nonzero;fill:rgb(80.392157%,58.431373%,4.705882%);fill-opacity:1;" d="M 189.1875 220.222656 L 189 219.046875 L 189.285156 217.25 L 190.109375 215.628906 L 191.398438 214.339844 L 193.019531 213.515625 L 194.816406 213.230469 L 197.003906 213.714844 L 195.867188 215.914063 L 191.214844 219.742188 Z M 189.1875 220.222656 "/>
<path style=" stroke:none;fill-rule:nonzero;fill:rgb(80.392157%,58.431373%,4.705882%);fill-opacity:1;" d="M 80.410156 190.308594 L 81.117188 190.9375 L 81.808594 193.710938 L 80.203125 195.140625 L 77.601563 194.722656 L 77.417969 194.15625 Z M 80.410156 190.308594 "/>
<path style=" stroke:none;fill-rule:nonzero;fill:rgb(80.392157%,58.431373%,4.705882%);fill-opacity:1;" d="M 136.210938 448.453125 L 135.929688 448.140625 L 136.109375 446.949219 L 136.398438 446.875 L 136.6875 448.207031 Z M 136.210938 448.453125 "/>
<path style=" stroke:none;fill-rule:nonzero;fill:rgb(80.392157%,58.431373%,4.705882%);fill-opacity:1;" d="M 88.429688 500.046875 L 88.566406 499.308594 L 88.941406 499.117188 L 89.34375 499.789063 Z M 88.429688 500.046875 "/>
</g>
</svg>
