<?xml version="1.0" encoding="UTF-8"?>
<svg xmlns="http://www.w3.org/2000/svg" xmlns:xlink="http://www.w3.org/1999/xlink" width="378pt" height="504pt" viewBox="0 0 378 504" version="1.1">
<g id="data">
<rect x="0" y="0" width="378" height="504" style="fill:rgb(100%,100%,100%);fill-opacity:1;stroke:none;"/>
<path style=" stroke:none;fill-rule:nonzero;fill:rgb(100%,100%,100%);fill-opacity:1;" d="M 53.308594 504 L 324.691406 504 L 324.691406 0 L 53.308594 0 Z M 53.308594 504 "/>
<path style=" stroke:none;fill-rule:nonzero;fill:rgb(22.745098%,53.333333%,16.078431%);fill-opacity:1;" d="M 157.753906 278.90625 L 156.65625 278.203125 L 156.050781 277.660156 L 155.054688 276.503906 L 154.394531 275.128906 L 154.117188 273.628906 L 154.015625 271.726563 L 153.628906 270.375 L 153.09375 269.390625 L 152.496094 268.664063 L 151.140625 267.636719 L 149.570313 267.03125 L 148.019531 266.902344 L 145.558594 267.394531 L 143.769531 267.472656 L 142.042969 267 L 140.539063 266.027344 L 140.425781 265.890625 L 140.917969 265.085938 L 143.644531 263.800781 L 144.390625 261.886719 L 144.195313 260.621094 L 142.601563 256.71875 L 139.777344 254.832031 L 137.378906 252.511719 L 138.6875 242.234375 L 140.710938 241.59375 L 142.886719 242.511719 L 146.15625 243.175781 L 148.300781 243.253906 L 141.261719 240.453125 L 140.441406 240.5625 L 139.386719 240.085938 L 139.183594 238.121094 L 139.414063 236.460938 L 140.238281 234.648438 L 139.933594 234.742188 L 141.15625 233.613281 L 142.714844 232.871094 L 144.425781 232.617188 L 146.136719 232.875 L 147.695313 233.628906 L 148.960938 234.804688 L 150.101563 236.230469 L 151.039063 237.003906 L 152.117188 237.558594 L 153.097656 237.828125 L 155.265625 237.808594 L 157.945313 236.839844 L 160.066406 236.492188 L 162.167969 236.945313 L 164.03125 237.722656 L 165.351563 237.941406 L 166.667969 237.851563 L 167.878906 237.46875 L 169.753906 236.191406 L 170.925781 234.753906 L 171.738281 233.9375 L 173.828125 232.21875 L 176.777344 228.667969 L 177.261719 227.710938 L 177.570313 226.609375 L 177.652344 225.488281 L 177.417969 223.671875 L 177.453125 221.9375 L 178 220.292969 L 179.003906 218.878906 L 180.382813 217.828125 L 182.011719 217.226563 L 183.742188 217.132813 L 186.113281 217.363281 L 187.664063 217.082031 L 189.070313 216.398438 L 190.921875 214.726563 L 192.367188 213.769531 L 194.035156 213.285156 L 195.769531 213.308594 L 197.003906 213.710938 L 196.796875 214.386719 L 195.867188 215.914063 L 191.214844 219.742188 L 185.519531 221.085938 L 182.847656 221.226563 L 177.804688 225.21875 L 178.117188 225.714844 L 179.84375 225.195313 L 184.609375 222.886719 L 186.457031 221.386719 L 187.289063 221.316406 L 189.085938 221.875 L 189.332031 222.921875 L 188.898438 224.691406 L 189.238281 225.953125 L 190.898438 226.824219 L 192.988281 227.191406 L 194.445313 228.726563 L 194.429688 229.304688 L 192.117188 231.570313 L 189.460938 232.730469 L 188.34375 232.882813 L 187.070313 232.078125 L 185.40625 232.042969 L 181.046875 235.800781 L 180.578125 237.003906 L 174.761719 240.109375 L 170.214844 238.117188 L 166.480469 238.003906 L 166.738281 239.222656 L 168.246094 240.195313 L 178.0625 241.875 L 182.921875 243.167969 L 186.398438 241.730469 L 187.519531 239.417969 L 188.617188 238.355469 L 189.539063 238.171875 L 193.183594 238.5 L 193.816406 238.9375 L 193.566406 239.363281 L 193.164063 240.847656 L 193.152344 242.230469 L 193.449219 243.515625 L 194.035156 244.699219 L 195.398438 246.328125 L 196.277344 247.753906 L 196.710938 249.371094 L 196.671875 251.042969 L 196.003906 254.921875 L 195.417969 256.648438 L 195.324219 256.777344 L 195.699219 256.871094 L 197.183594 257.785156 L 198.980469 259.300781 L 201.117188 260.285156 L 202.554688 261.222656 L 203.65625 262.539063 L 204.324219 264.117188 L 205.0625 266.984375 L 206.632813 269.34375 L 207.386719 270.972656 L 207.605469 272.75 L 207.273438 274.511719 L 206.664063 275.644531 L 207.769531 275.65625 L 209.601563 276.324219 L 212.257813 277.832031 L 214.230469 278.15625 L 216.300781 277.746094 L 218.882813 276.140625 L 220.003906 275.664063 L 220.40625 277.574219 L 221.269531 280.457031 L 222.984375 284.039063 L 223.773438 285.027344 L 224.496094 288.074219 L 224.4375 288.285156 L 224.339844 289.511719 L 224.5 290.730469 L 224.867188 291.785156 L 225.507813 292.851563 L 225.671875 293.03125 L 225.945313 294.183594 L 229.304688 299.0625 L 240.515625 304.292969 L 240.777344 304.789063 L 241.816406 305.78125 L 244.03125 306.9375 L 245.550781 308.082031 L 246.617188 309.65625 L 247.621094 311.824219 L 247.898438 312.148438 L 249.289063 315.722656 L 252.390625 319.148438 L 254.875 320.296875 L 254.882813 320.402344 L 254.652344 322.773438 L 254.714844 323.128906 L 253.890625 324.554688 L 253.765625 325.996094 L 254.984375 329.992188 L 256.160156 332.453125 L 258.695313 336 L 258.65625 337.878906 L 258.886719 340.1875 L 259.179688 341.214844 L 259.78125 342.253906 L 258.378906 342.789063 L 257.507813 342.753906 L 256.035156 341.773438 L 253.664063 338.65625 L 252.601563 338.082031 L 245.550781 339.511719 L 244.589844 338.644531 L 243.40625 338.558594 L 241.210938 339.871094 L 241.886719 340.445313 L 246.324219 340.394531 L 249.617188 339.34375 L 251.976563 339.082031 L 254.382813 342.558594 L 260.535156 347.621094 L 263.042969 349.058594 L 263.664063 349.039063 L 266.046875 352.214844 L 268.980469 359.304688 L 269.535156 362.402344 L 269.210938 365.21875 L 264.953125 369.09375 L 261.394531 373.164063 L 260.601563 374.816406 L 262.84375 374.3125 L 264.9375 375.519531 L 266.9375 378.226563 L 270.21875 378.804688 L 270.625 378.746094 L 271.910156 376.796875 L 272.234375 374.960938 L 273.40625 371.914063 L 274.707031 370.632813 L 277.851563 370.085938 L 283.34375 370.234375 L 284.253906 370.867188 L 286.703125 370.742188 L 293.949219 371.515625 L 296.914063 372.84375 L 304.070313 378.085938 L 305.367188 380.105469 L 306.730469 384.164063 L 307.179688 391.25 L 306.777344 393.191406 L 306.890625 393.976563 L 305.789063 396.917969 L 303.519531 407.832031 L 297.144531 414.53125 L 295.578125 412.011719 L 292.742188 410.515625 L 292.480469 410.636719 L 293.898438 413.703125 L 295.890625 416.628906 L 296.3125 416.765625 L 296.164063 417.742188 L 296.128906 417.789063 L 295.371094 417.472656 L 294.144531 417.261719 L 292.792969 417.339844 L 291.699219 417.664063 L 289.640625 419.035156 L 288.738281 420.144531 L 288.214844 419.332031 L 284.976563 421.730469 L 280.71875 424.230469 L 282.339844 425.378906 L 284.960938 424.449219 L 284.5625 425.707031 L 284.570313 427.414063 L 285.757813 430.804688 L 285.6875 430.875 L 283.441406 432.558594 L 282.84375 432.699219 L 279.644531 432.160156 L 274.75 433.78125 L 272.609375 436.117188 L 274.253906 436.015625 L 275.152344 434.667969 L 276.683594 434.363281 L 278.285156 434.328125 L 281.054688 434.949219 L 281.828125 435.589844 L 281.691406 436.328125 L 279.554688 436.347656 L 277.390625 437.65625 L 277.96875 438.546875 L 281.382813 438.964844 L 286.863281 440.339844 L 289.394531 439.9375 L 291.074219 438.957031 L 299.742188 437.757813 L 300.988281 440.148438 L 300.878906 443.242188 L 300.15625 445.628906 L 299.511719 447.039063 L 297.894531 449.609375 L 297.664063 449.902344 L 296.972656 450.242188 L 295.839844 450.375 L 292.621094 451.640625 L 291.179688 452.742188 L 289.847656 454.226563 L 289.460938 455.09375 L 289.214844 456.324219 L 289.464844 457.886719 L 286.253906 458.289063 L 284.1875 457.9375 L 281.042969 460.90625 L 278.484375 461.933594 L 274.789063 462.777344 L 272.597656 463.816406 L 270.539063 466.589844 L 269.761719 466.949219 L 259.269531 463.777344 L 256.070313 463.507813 L 244.628906 465.699219 L 242.703125 466.390625 L 242.113281 466.964844 L 241.902344 467.984375 L 241.359375 468.164063 L 238.210938 466.1875 L 238.632813 465.4375 L 239.46875 464.933594 L 237.714844 463.296875 L 231.496094 463.171875 L 231.378906 463.496094 L 232.574219 464.835938 L 232.214844 465.75 L 231.738281 466.042969 L 226.691406 465.496094 L 219.566406 468.449219 L 217.054688 467.824219 L 210.222656 468.96875 L 208.164063 468.875 L 207.273438 468.058594 L 206.238281 469.769531 L 209.429688 471.089844 L 209.714844 470.9375 L 210.1875 472.128906 L 209.566406 473.890625 L 206.84375 474.453125 L 204.453125 473.097656 L 203.015625 472.699219 L 197.625 472.007813 L 196.175781 472.65625 L 195.679688 473.863281 L 195.832031 474.871094 L 196.757813 475.523438 L 196.488281 476.304688 L 195.917969 475.996094 L 194.851563 473.972656 L 190.289063 470.589844 L 185.898438 468.519531 L 183.121094 467.984375 L 181.648438 469.066406 L 176.207031 469.78125 L 174.339844 470.335938 L 168.992188 473.234375 L 168.214844 474.070313 L 167.203125 476.179688 L 162.746094 489.226563 L 160.929688 490.242188 L 158.269531 489.722656 L 157.554688 489.058594 L 156.527344 486.851563 L 154.683594 485.4375 L 153.613281 485.542969 L 152.417969 486.300781 L 151.738281 486.164063 L 148.46875 482.535156 L 142.796875 482.960938 L 141.527344 483.375 L 140.734375 484.175781 L 139.910156 484.507813 L 134.507813 484.320313 L 132.167969 484.859375 L 129.414063 488.195313 L 126.714844 489.746094 L 124.039063 490.597656 L 123.132813 494.289063 L 123.664063 495.292969 L 123.511719 496.050781 L 121.707031 495.648438 L 120.289063 495.671875 L 117.949219 496.171875 L 117.15625 494.691406 L 115.984375 493.691406 L 112.253906 492.070313 L 111.410156 491.984375 L 110.375 492.488281 L 110.242188 494.183594 L 109.421875 495.128906 L 107.519531 495.519531 L 106.707031 494.074219 L 106.359375 492.207031 L 106.632813 490.328125 L 106.636719 490.316406 L 111.738281 488.078125 L 112.199219 488.253906 L 112.445313 488.9375 L 113.574219 489.15625 L 118.144531 485.910156 L 121.425781 483.085938 L 124.375 479.769531 L 125.210938 477.886719 L 124.875 476.421875 L 125.640625 474.519531 L 128.386719 473.238281 L 132.105469 472.640625 L 132.679688 471.785156 L 133.257813 469.527344 L 135.859375 467.5625 L 138.636719 464.640625 L 139.128906 458.542969 L 139.796875 454.753906 L 142.492188 455.105469 L 144.269531 456.015625 L 145.761719 455.429688 L 148.429688 452.488281 L 148.105469 447.519531 L 151.105469 446.613281 L 157.421875 446.269531 L 159.910156 445.683594 L 164.597656 446.761719 L 166.046875 446.148438 L 167.527344 446.515625 L 169.484375 447.285156 L 170.039063 448.109375 L 170.757813 448.421875 L 173.15625 448.464844 L 180.570313 447.503906 L 181.109375 445.632813 L 181.210938 443.15625 L 182.519531 440.25 L 190.867188 432.195313 L 195.792969 425.3125 L 197.929688 424.472656 L 198.285156 423.78125 L 198.070313 423.238281 L 197.8125 423.082031 L 196.09375 424.355469 L 192.90625 427.300781 L 190.570313 429.988281 L 189.222656 431.449219 L 185.628906 432.957031 L 183.714844 433.246094 L 182.441406 433.0625 L 178.394531 435.230469 L 177.398438 436.808594 L 177.039063 438.671875 L 176.445313 439.273438 L 174.058594 439.917969 L 170.558594 439.851563 L 166.820313 439 L 166.347656 438.652344 L 165.96875 438.25 L 166.304688 437.007813 L 166.339844 435.609375 L 165.878906 433.546875 L 165.765625 431.722656 L 166.222656 429.957031 L 167.203125 428.417969 L 168.574219 426.871094 L 169.226563 425.625 L 169.828125 422.800781 L 169.878906 421.386719 L 169.664063 420.199219 L 169.246094 419.15625 L 168.617188 418.199219 L 167.410156 416.972656 L 166.394531 415.578125 L 165.835938 413.945313 L 165.777344 412.222656 L 166.226563 410.554688 L 166.996094 408.800781 L 167.242188 407.554688 L 167.207031 406.265625 L 166.910156 405.074219 L 164.902344 400.804688 L 164.257813 400.074219 L 162.703125 398.933594 L 161.492188 397.730469 L 160.679688 396.230469 L 160.339844 394.554688 L 160.5 392.855469 L 161.148438 391.277344 L 162.226563 389.953125 L 163.644531 389 L 168.132813 386.855469 L 168.875 386.199219 L 169.628906 385.167969 L 170.164063 383.902344 L 170.386719 382.664063 L 170.328125 381.386719 L 169.820313 379.53125 L 169.625 377.691406 L 170.015625 375.878906 L 170.957031 374.28125 L 172.355469 373.066406 L 174.0625 372.347656 L 175.910156 372.203125 L 177.710938 372.648438 L 179.277344 373.640625 L 181.277344 375.402344 L 182.949219 376.136719 L 184.527344 376.34375 L 188.503906 376 L 190.113281 375.507813 L 191.402344 374.699219 L 192.433594 373.585938 L 193.175781 372.160156 L 193.449219 371.082031 L 193.492188 369.769531 L 193.285156 368.617188 L 192.621094 366.796875 L 192.035156 365.875 L 191.179688 364.988281 L 190.171875 364.3125 L 189.027344 363.855469 L 187.910156 363.65625 L 186.835938 363.683594 L 181.554688 365.019531 L 180.726563 365.488281 L 179.933594 366.164063 L 179.210938 367.066406 L 178.425781 368.589844 L 177.398438 370.007813 L 176 371.054688 L 174.351563 371.636719 L 172.605469 371.703125 L 170.914063 371.25 L 169.4375 370.3125 L 167.855469 368.933594 L 166.667969 368.324219 L 163.730469 367.6875 L 162.914063 367.734375 L 161.34375 368.132813 L 159.527344 368.292969 L 157.75 367.886719 L 156.183594 366.945313 L 154.242188 365.316406 L 152.382813 364.535156 L 148.570313 363.847656 L 151.550781 360.582031 L 153.09375 359.609375 L 154.941406 359.808594 L 160.492188 357.457031 L 163.644531 357.28125 L 167.339844 357.714844 L 172.597656 355.179688 L 173.933594 355.046875 L 174.484375 355.082031 L 179.910156 359.441406 L 180.433594 358.429688 L 177.679688 353.460938 L 178.242188 352.835938 L 180.867188 352.449219 L 181.503906 352.695313 L 181.914063 353.875 L 182.898438 354.332031 L 184.078125 356.789063 L 185.613281 357.902344 L 188.359375 357.621094 L 190.335938 355.148438 L 189.90625 355.050781 L 188.667969 355.527344 L 188.3125 355.957031 L 186.378906 356.386719 L 183.8125 354.640625 L 179.976563 346.332031 L 183.371094 340.257813 L 185.429688 339.015625 L 185.140625 338.578125 L 182.683594 338.460938 L 181.554688 337.164063 L 181.355469 336.117188 L 181.601563 331.078125 L 181.949219 330.421875 L 184.695313 329.191406 L 187.28125 323.421875 L 187.71875 320.933594 L 187.855469 317.484375 L 184.742188 320.527344 L 179.199219 323.441406 L 177.335938 322.691406 L 172.851563 314.925781 L 172.816406 314.734375 L 173.824219 314.257813 L 175.683594 314.035156 L 177.90625 314.132813 L 180.207031 313.710938 L 181.535156 313.066406 L 183.25 311.578125 L 184.742188 310.636719 L 186.441406 310.1875 L 188.203125 310.265625 L 189.855469 310.871094 L 191.253906 311.941406 L 191.464844 312.15625 L 192.519531 313.6875 L 193.042969 315.472656 L 192.972656 317.332031 L 192.410156 320.132813 L 192.523438 321.453125 L 193.125 323.082031 L 194.042969 324.339844 L 195.359375 325.359375 L 196.914063 325.96875 L 198.585938 326.125 L 200.253906 325.804688 L 201.125 325.417969 L 202.015625 324.796875 L 202.761719 324.035156 L 203.410156 323.050781 L 203.816406 322.066406 L 204.035156 321.003906 L 204.050781 319.917969 L 203.773438 318.3125 L 203.734375 316.558594 L 204.222656 314.875 L 205.191406 313.410156 L 206.550781 312.304688 L 208.179688 311.652344 L 209.929688 311.515625 L 211.640625 311.90625 L 213.15625 312.792969 L 214.507813 313.882813 L 215.4375 314.375 L 216.546875 314.710938 L 217.6875 314.820313 L 218.816406 314.703125 L 220.070313 314.3125 L 221.03125 313.808594 L 221.925781 313.085938 L 222.707031 312.140625 L 223.265625 311.066406 L 223.585938 309.898438 L 223.660156 308.6875 L 223.476563 307.492188 L 223.042969 306.34375 L 222.4375 305.382813 L 221.066406 303.945313 L 220.835938 303.609375 L 220.507813 303.554688 L 218.859375 302.988281 L 217.820313 302.847656 L 216.65625 302.910156 L 215.53125 303.203125 L 214.582031 303.65625 L 213.636719 304.359375 L 212.929688 305.140625 L 212.027344 306.628906 L 210.867188 308.007813 L 209.335938 308.964844 L 207.589844 309.40625 L 205.792969 309.292969 L 204.113281 308.632813 L 202.71875 307.492188 L 201.738281 305.976563 L 200.921875 304.140625 L 200.113281 303.074219 L 199.082031 302.226563 L 197.277344 301.339844 L 195.871094 300.363281 L 194.808594 299.023438 L 194.179688 297.433594 L 194.046875 295.726563 L 194.410156 294.054688 L 195.246094 292.5625 L 196.484375 291.378906 L 198.898438 289.664063 L 200.066406 287.996094 L 200.574219 286.335938 L 200.925781 280.996094 L 201.378906 279.097656 L 201.847656 278.371094 L 201.75 278.382813 L 199.980469 278.09375 L 198.382813 277.28125 L 196.992188 276.273438 L 195.96875 275.804688 L 194.765625 275.527344 L 193.0625 275.488281 L 191.402344 275.207031 L 189.894531 274.464844 L 188.660156 273.316406 L 187.808594 271.867188 L 187.40625 270.230469 L 187.488281 268.550781 L 188.035156 265.785156 L 187.664063 262.988281 L 187.695313 261.25 L 188.242188 259.597656 L 188.40625 259.371094 L 187.554688 259.078125 L 186.097656 257.984375 L 185.050781 256.496094 L 184.175781 254.710938 L 183.265625 253.613281 L 182.214844 252.824219 L 180.949219 252.269531 L 176.085938 251.289063 L 174.886719 251.222656 L 173.195313 251.53125 L 171.941406 252.140625 L 170.265625 253.722656 L 169.820313 254.457031 L 169.242188 255.988281 L 167.742188 258.210938 L 165.5 260.285156 L 164.484375 262.269531 L 164.292969 263.269531 L 164.308594 264.402344 L 164.554688 265.527344 L 165.25 267.113281 L 165.734375 269.214844 L 165.800781 270.890625 L 166.1875 272.523438 L 166.257813 273.464844 L 167.058594 273.910156 L 168.46875 275.007813 L 170.117188 275.796875 L 171.535156 276.429688 L 172.59375 276.675781 L 173.664063 276.722656 L 174.832031 276.542969 L 175.839844 276.183594 L 176.777344 275.632813 L 177.59375 274.914063 L 178.597656 273.625 L 179.953125 272.363281 L 181.636719 271.59375 L 183.476563 271.390625 L 185.285156 271.777344 L 186.882813 272.710938 L 188.105469 274.101563 L 188.832031 275.804688 L 188.984375 277.648438 L 188.546875 279.449219 L 187.703125 281.460938 L 187.492188 282.984375 L 187.683594 284.492188 L 188.558594 286.613281 L 188.976563 288.328125 L 188.863281 290.085938 L 188.222656 291.734375 L 187.121094 293.109375 L 185.65625 294.09375 L 183.964844 294.59375 L 182.203125 294.5625 L 179.308594 294.066406 L 176.414063 294.5625 L 174.660156 294.59375 L 172.972656 294.101563 L 171.867188 293.363281 L 174.074219 288.722656 L 176.464844 286.417969 L 178.757813 285.980469 L 180.191406 286.804688 L 181.015625 286.710938 L 182.933594 286.238281 L 183.03125 285.160156 L 182.34375 284.746094 L 180.035156 285.351563 L 174.65625 284.980469 L 172.566406 284.292969 L 169.453125 284.03125 L 168.226563 288.992188 L 166.234375 288.695313 L 163.3125 290.011719 L 162.789063 290.664063 L 162.660156 290.65625 L 161.058594 290.082031 L 159.695313 289.074219 L 158.679688 287.710938 L 158.101563 286.113281 L 158.007813 284.414063 L 158.234375 281.988281 L 157.777344 279.59375 Z M 127.640625 243.597656 L 128.371094 242.398438 L 129.824219 241.179688 L 131.589844 240.492188 L 133.71875 240.046875 L 135.070313 239.378906 L 138.371094 236.664063 L 139.15625 235.691406 L 138.320313 240.257813 L 136.15625 245.152344 L 135.023438 244.945313 L 131.566406 242.222656 L 130.757813 242.5 L 130.269531 243.347656 L 130.09375 244.535156 L 130.664063 246.308594 L 130.519531 246.613281 L 128.257813 245.464844 Z M 262.949219 344.730469 L 263.105469 344.757813 L 262.804688 345.191406 Z M 147.566406 363.847656 L 147.40625 363.859375 L 147.054688 363.949219 L 146.109375 363.875 L 144.195313 361.613281 L 142.050781 357.363281 L 142.222656 352.941406 L 142.445313 352.765625 L 143.152344 351.867188 L 144.664063 351.183594 L 146.003906 350.957031 L 149.566406 352.007813 L 151.039063 355.578125 L 155.546875 356.503906 L 154.066406 358.859375 L 150.984375 360.816406 Z M 139.039063 356.523438 L 139.621094 355.324219 L 139.742188 355.195313 L 140.597656 355.164063 L 141.484375 356.3125 L 142.226563 358.1875 L 141.734375 358.875 L 141.003906 358.070313 L 139.230469 356.960938 Z M 171.6875 192.167969 L 170.152344 193.097656 L 168.410156 193.511719 L 166.621094 193.378906 L 164.960938 192.703125 L 163.582031 191.554688 L 162.617188 190.042969 L 162.164063 188.308594 L 162.257813 186.515625 L 162.894531 184.839844 L 164.394531 182.203125 L 164.726563 180.125 L 164.332031 178.171875 L 162.730469 175.578125 L 162.015625 173.855469 L 161.933594 172.691406 L 167.808594 170.273438 L 170.480469 169.527344 L 170.492188 169.949219 L 171.554688 169.839844 L 173.589844 168.316406 L 174.046875 166.78125 L 178.648438 166.167969 L 179.285156 167.089844 L 180.148438 167.667969 L 184.320313 169.011719 L 187.675781 167.128906 L 199.164063 168.988281 L 204.117188 168.914063 L 204.472656 168.628906 L 204.503906 168.890625 L 204.125 170.71875 L 203.1875 172.335938 L 201.359375 174.5625 L 200.910156 175.566406 L 200.519531 177.535156 L 199.992188 179.050781 L 199.070313 180.367188 L 197.5625 181.980469 L 196.945313 183.101563 L 196.523438 184.914063 L 196.734375 187.570313 L 196.609375 189.316406 L 195.972656 190.945313 L 194.875 192.308594 L 193.425781 193.289063 L 191.746094 193.789063 L 189.996094 193.769531 L 188.332031 193.230469 L 186.902344 192.21875 L 185.527344 190.894531 L 184.445313 190.234375 L 183.226563 189.820313 L 182.09375 189.691406 L 179.960938 189.933594 L 178.78125 189.945313 L 176.222656 189.710938 L 175.167969 189.882813 L 173.578125 190.582031 Z M 161.582031 165.574219 L 161.570313 165.195313 L 162.132813 163.371094 L 163.023438 162.148438 L 164.042969 162.292969 L 165.242188 161.992188 L 166.015625 161.605469 L 166.75 160.257813 L 167.136719 160.222656 L 167.582031 160.242188 L 167.507813 160.828125 L 166.417969 162.609375 L 162.722656 166.96875 L 162.175781 167.183594 L 161.726563 166.894531 L 161.859375 165.949219 Z M 152.726563 396.910156 L 153.734375 398.066406 L 154.457031 399.859375 L 154.546875 401.792969 L 154.066406 405.828125 L 153.667969 407.355469 L 152.785156 409.492188 L 152.597656 410.90625 L 152.792969 412.429688 L 153.667969 414.550781 L 154.09375 416.378906 L 153.917969 418.246094 L 153.15625 419.957031 L 151.886719 421.339844 L 150.261719 422.617188 L 148.988281 424.242188 L 147.582031 425.523438 L 146.796875 425.867188 L 143.210938 423.710938 L 139.527344 423.714844 L 139.328125 423.460938 L 138.691406 421.667969 L 138.152344 418.664063 L 137.128906 416.914063 L 135.648438 415.6875 L 132.761719 414.652344 L 131.242188 413.835938 L 130.03125 412.613281 L 129.523438 411.648438 L 133.074219 411.34375 L 134.871094 409.289063 L 135.753906 407.632813 L 137.585938 406.550781 L 141.359375 406.660156 L 142.21875 406.390625 L 149.359375 401.828125 L 152.136719 398.207031 Z M 139.402344 322.679688 L 139.082031 322.164063 L 138.640625 320.542969 L 138.652344 320.054688 L 139.816406 316.644531 L 142.300781 315.023438 L 144.765625 310.230469 L 145.863281 309.40625 L 149.046875 308.269531 L 150.203125 313.453125 L 147.847656 318.148438 L 145.3125 320.636719 L 141.859375 323.019531 L 139.824219 322.464844 Z M 286.679688 439.636719 L 283.058594 438.976563 L 282.164063 437.605469 L 282.484375 436.070313 L 286.839844 437.054688 L 287.960938 438.832031 Z M 136.210938 448.453125 L 135.929688 448.140625 L 136.109375 446.949219 L 136.398438 446.875 L 136.6875 448.207031 Z M 236.835938 466.113281 L 235.136719 465.644531 L 236.523438 463.683594 L 237.195313 464.164063 L 237.5 465.839844 Z M 228.117188 474.644531 L 222.296875 470.886719 L 220.207031 471.1875 L 221.476563 469.683594 L 227.316406 466.367188 L 232.550781 467.761719 L 234.171875 469.894531 L 231.242188 473.621094 L 229.960938 474.269531 Z M 134.8125 251.347656 L 132.589844 248.835938 L 130.84375 244.566406 L 130.707031 243.464844 L 131.460938 242.613281 L 133.71875 244.574219 L 134.707031 246.3125 L 135.339844 249.003906 L 135.222656 250.96875 Z M 134.8125 251.347656 "/>
<path style=" stroke:none;fill-rule:nonzero;fill:rgb(80.392157%,58.431373%,4.705882%);fill-opacity:1;" d="M 130.847656 164.769531 L 130.5625 166.566406 L 129.734375 168.1875 L 128.449219 169.472656 L 126.828125 170.300781 L 125.03125 170.585938 L 123.234375 170.300781 L 121.613281 169.472656 L 121.199219 169.0625 L 120.253906 167.773438 L 120.5 161.175781 L 121.613281 160.066406 L 123.234375 159.238281 L 123.710938 159.164063 L 124.035156 161.566406 L 125.066406 162.535156 L 125.355469 162.453125 L 126.003906 159.773438 L 125.242188 158.988281 L 126.828125 159.238281 L 128.449219 160.066406 L 129.734375 161.351563 L 130.5625 162.972656 Z M 130.847656 164.769531 "/>
<path style=" stroke:none;fill-rule:nonzero;fill:rgb(80.392157%,58.431373%,4.705882%);fill-opacity:1;" d="M 130.847656 222.921875 L 130.5625 224.71875 L 129.734375 226.339844 L 128.449219 227.628906 L 126.828125 228.453125 L 125.03125 228.738281 L 123.234375 228.453125 L 122.046875 227.847656 L 122.070313 227.40625 L 122.761719 224.691406 L 124.160156 221.96875 L 126.660156 220.210938 L 128.792969 220.179688 L 129.328125 220.484375 L 130.199219 220.417969 L 130.5625 221.125 Z M 121.804688 227.726563 L 121.613281 227.628906 L 121.585938 227.601563 L 121.816406 227.683594 Z M 119.292969 223.421875 L 119.214844 222.921875 L 119.5 221.125 L 120.324219 219.503906 L 120.921875 218.910156 L 121.195313 219.144531 L 120.902344 221.207031 L 119.445313 223.339844 Z M 127.464844 217.714844 L 128.449219 218.21875 L 129.175781 218.945313 L 127.28125 218.265625 Z M 123.378906 222.417969 L 122.582031 222.078125 L 123.082031 221.191406 L 124.476563 221.046875 Z M 121.453125 227.109375 L 121.152344 226.972656 L 120.984375 225.621094 L 121.59375 224.800781 L 122.367188 224.816406 L 121.953125 226.621094 Z M 121.453125 227.109375 "/>
<path style=" stroke:none;fill-rule:nonzero;fill:rgb(80.392157%,58.431373%,4.705882%);fill-opacity:1;" d="M 80.410156 190.308594 L 80.554688 190.378906 L 81.117188 190.9375 L 81.808594 193.710938 L 80.203125 195.140625 L 79.542969 195.171875 L 77.601563 194.722656 L 77.417969 194.15625 Z M 80.410156 190.308594 "/>
<path style=" stroke:none;fill-rule:nonzero;fill:rgb(80.392157%,58.431373%,4.705882%);fill-opacity:1;" d="M 88.429688 500.046875 L 88.566406 499.308594 L 88.941406 499.117188 L 89.34375 499.789063 Z M 88.429688 500.046875 "/>
</g>
</svg>
