<?xml version="1.0" encoding="UTF-8"?>
<svg xmlns="http://www.w3.org/2000/svg" xmlns:xlink="http://www.w3.org/1999/xlink" width="378pt" height="504pt" viewBox="0 0 378 504" version="1.1">
<g id="data">
<rect x="0" y="0" width="378" height="504" style="fill:rgb(100%,100%,100%);fill-opacity:1;stroke:none;"/>
<path style=" stroke:none;fill-rule:nonzero;fill:rgb(100%,100%,100%);fill-opacity:1;" d="M 53.308594 504 L 324.691406 504 L 324.691406 0 L 53.308594 0 Z M 53.308594 504 "/>
<path style=" stroke:none;fill-rule:nonzero;fill:rgb(22.745098%,53.333333%,16.078431%);fill-opacity:1;" d="M 293.566406 445.375 L 295.617188 443.90625 L 295.617188 447.785156 Z M 249.09375 416.769531 L 249.09375 412.890625 L 251.214844 412.519531 L 253.34375 411.703125 L 255.273438 410.488281 L 256.847656 409.015625 L 260.722656 409.679688 L 264.601563 409.015625 L 261.976563 412.125 L 260.582031 415.949219 L 260.410156 418.242188 L 260.722656 420.644531 L 260.1875 422.765625 L 260.058594 424.945313 L 260.339844 427.113281 L 261.070313 429.308594 L 262.945313 432.21875 L 265.59375 434.453125 L 268.78125 435.804688 L 272.355469 436.152344 L 274.0625 438.324219 L 276.230469 440.03125 L 278.300781 442.550781 L 280.109375 443.90625 L 276.230469 443.90625 L 272.566406 443.382813 L 268.5625 444.164063 L 266.402344 445.277344 L 264.425781 446.902344 L 262.925781 448.8125 L 261.808594 451.113281 L 259.027344 449.085938 L 255.898438 447.984375 L 251.21875 447.625 L 245.214844 447.785156 L 247.386719 446.078125 L 249.09375 443.90625 L 252.210938 442.425781 L 254.675781 440.195313 L 256.40625 437.359375 L 257.734375 434.160156 L 258.25 431.90625 L 258.066406 427.941406 L 256.632813 424.378906 L 255.320313 422.632813 L 252.96875 420.644531 L 251.261719 418.476563 Z M 219.066406 447.910156 L 229.707031 447.785156 L 232.941406 449.832031 L 236.789063 450.726563 L 234.789063 453.0625 L 233.46875 455.84375 L 232.914063 459.511719 L 233.570313 463.214844 L 231.867188 463.179688 L 231.347656 461.78125 L 229.707031 459.414063 L 228.734375 455.621094 L 227.226563 453.132813 L 223.425781 449.597656 L 221.390625 448.554688 Z M 190.9375 436.152344 L 193.347656 436.042969 L 195.683594 435.4375 L 196.625 437.453125 L 197.9375 439.253906 L 194.757813 437.136719 Z M 190.9375 436.152344 "/>
</g>
</svg>
