<?xml version="1.0" encoding="UTF-8"?>
<svg xmlns="http://www.w3.org/2000/svg" xmlns:xlink="http://www.w3.org/1999/xlink" width="378pt" height="504pt" viewBox="0 0 378 504" version="1.1">
<g id="data">
<rect x="0" y="0" width="378" height="504" style="fill:rgb(100%,100%,100%);fill-opacity:1;stroke:none;"/>
<path style=" stroke:none;fill-rule:nonzero;fill:rgb(100%,100%,100%);fill-opacity:1;" d="M 53.308594 504 L 324.691406 504 L 324.691406 0 L 53.308594 0 Z M 53.308594 504 "/>
<path style=" stroke:none;fill-rule:nonzero;fill:rgb(22.745098%,53.333333%,16.078431%);fill-opacity:1;" d="M 252.96875 447.785156 L 252.96875 443.90625 L 255.65625 441.648438 L 258.246094 438.460938 L 259.390625 436.554688 L 261.617188 437.140625 L 263.910156 437.28125 L 266.3125 436.933594 L 268.476563 436.152344 L 270.050781 437.625 L 271.980469 438.839844 L 274.109375 439.65625 L 276.230469 440.03125 L 277.9375 442.199219 L 280.109375 443.90625 L 276.230469 443.90625 L 274.140625 442.417969 L 271.773438 441.421875 L 269.375 440.980469 L 266.8125 441.066406 L 263.5 442.066406 L 260.722656 443.90625 L 258.601563 444.28125 L 256.585938 445.039063 L 254.640625 446.234375 Z M 252.96875 420.644531 L 252.5625 418.402344 L 251.78125 416.394531 L 250.566406 414.464844 L 249.09375 412.890625 L 256.847656 412.890625 L 255.375 414.464844 L 254.160156 416.394531 L 253.34375 418.523438 Z M 252.96875 420.644531 "/>
<path style=" stroke:none;fill-rule:nonzero;fill:rgb(80.392157%,58.431373%,4.705882%);fill-opacity:1;" d="M 185.125 389.628906 L 184.839844 391.429688 L 184.011719 393.050781 L 182.726563 394.335938 L 181.105469 395.160156 L 179.308594 395.445313 L 177.511719 395.160156 L 175.890625 394.335938 L 174.601563 393.050781 L 173.777344 391.429688 L 173.492188 389.628906 L 173.777344 387.832031 L 174.601563 386.210938 L 175.890625 384.925781 L 177.511719 384.101563 L 179.308594 383.816406 L 181.105469 384.101563 L 182.726563 384.925781 L 184.011719 386.210938 L 184.839844 387.832031 Z M 185.125 389.628906 "/>
<path style=" stroke:none;fill-rule:nonzero;fill:rgb(80.392157%,58.431373%,4.705882%);fill-opacity:1;" d="M 227.769531 405.136719 L 227.484375 406.933594 L 226.660156 408.558594 L 225.371094 409.84375 L 223.75 410.667969 L 221.953125 410.953125 L 220.15625 410.667969 L 218.535156 409.84375 L 217.25 408.558594 L 216.421875 406.933594 L 216.136719 405.136719 L 216.421875 403.339844 L 217.25 401.71875 L 218.535156 400.433594 L 220.15625 399.609375 L 221.953125 399.324219 L 223.75 399.609375 L 225.371094 400.433594 L 226.660156 401.71875 L 227.484375 403.339844 Z M 227.769531 405.136719 "/>
<path style=" stroke:none;fill-rule:nonzero;fill:rgb(80.392157%,58.431373%,4.705882%);fill-opacity:1;" d="M 235.523438 447.785156 L 235.238281 449.582031 L 234.414063 451.203125 L 233.125 452.488281 L 231.503906 453.316406 L 229.707031 453.601563 L 227.910156 453.316406 L 226.289063 452.488281 L 225.003906 451.203125 L 224.175781 449.582031 L 223.890625 447.785156 L 224.175781 445.988281 L 225.003906 444.367188 L 226.289063 443.078125 L 227.910156 442.253906 L 229.707031 441.96875 L 231.503906 442.253906 L 233.125 443.078125 L 234.414063 444.367188 L 235.238281 445.988281 Z M 235.523438 447.785156 "/>
<path style=" stroke:none;fill-rule:nonzero;fill:rgb(80.392157%,58.431373%,4.705882%);fill-opacity:1;" d="M 227.769531 447.785156 L 227.484375 449.582031 L 226.660156 451.203125 L 225.371094 452.488281 L 223.75 453.316406 L 221.953125 453.601563 L 220.15625 453.316406 L 218.535156 452.488281 L 217.25 451.203125 L 216.421875 449.582031 L 216.136719 447.785156 L 216.421875 445.988281 L 217.25 444.367188 L 218.535156 443.078125 L 220.15625 442.253906 L 221.953125 441.96875 L 223.75 442.253906 L 225.371094 443.078125 L 226.660156 444.367188 L 227.484375 445.988281 Z M 227.769531 447.785156 "/>
<path style=" stroke:none;fill-rule:nonzero;fill:rgb(80.392157%,58.431373%,4.705882%);fill-opacity:1;" d="M 204.507813 440.03125 L 204.222656 441.828125 L 203.398438 443.449219 L 202.109375 444.734375 L 200.488281 445.5625 L 198.691406 445.847656 L 196.894531 445.5625 L 195.273438 444.734375 L 193.988281 443.449219 L 193.160156 441.828125 L 192.875 440.03125 L 193.160156 438.234375 L 193.988281 436.613281 L 195.273438 435.324219 L 196.894531 434.5 L 198.691406 434.214844 L 200.488281 434.5 L 202.109375 435.324219 L 203.398438 436.613281 L 204.222656 438.234375 Z M 204.507813 440.03125 "/>
<path style=" stroke:none;fill-rule:nonzero;fill:rgb(80.392157%,58.431373%,4.705882%);fill-opacity:1;" d="M 293.675781 381.875 L 293.390625 383.675781 L 292.566406 385.296875 L 291.28125 386.582031 L 289.660156 387.40625 L 287.863281 387.691406 L 286.066406 387.40625 L 284.441406 386.582031 L 283.15625 385.296875 L 282.332031 383.675781 L 282.046875 381.875 L 282.332031 380.078125 L 283.15625 378.457031 L 284.441406 377.171875 L 286.066406 376.347656 L 287.863281 376.0625 L 289.660156 376.347656 L 291.28125 377.171875 L 292.566406 378.457031 L 293.390625 380.078125 Z M 293.675781 381.875 "/>
<path style=" stroke:none;fill-rule:nonzero;fill:rgb(80.392157%,58.431373%,4.705882%);fill-opacity:1;" d="M 196.753906 339.230469 L 196.46875 341.027344 L 195.644531 342.648438 L 194.355469 343.933594 L 192.734375 344.761719 L 190.9375 345.046875 L 189.140625 344.761719 L 187.519531 343.933594 L 186.234375 342.648438 L 185.40625 341.027344 L 185.125 339.230469 L 185.429688 339.015625 L 185.210938 338.683594 L 185.40625 337.433594 L 186.234375 335.8125 L 187.519531 334.527344 L 189.140625 333.699219 L 190.9375 333.414063 L 192.734375 333.699219 L 194.355469 334.527344 L 195.644531 335.8125 L 196.46875 337.433594 Z M 196.753906 339.230469 "/>
<path style=" stroke:none;fill-rule:nonzero;fill:rgb(80.392157%,58.431373%,4.705882%);fill-opacity:1;" d="M 300.695313 446.59375 L 299.035156 448.613281 L 297.414063 449.4375 L 295.617188 449.722656 L 293.816406 449.4375 L 292.195313 448.613281 L 290.910156 447.324219 L 290.085938 445.703125 L 289.800781 443.90625 L 290.085938 442.109375 L 290.910156 440.488281 L 292.195313 439.203125 L 293.28125 438.652344 L 296.414063 438.21875 L 297.414063 438.375 L 299.035156 439.203125 L 300.320313 440.488281 L 300.933594 441.695313 Z M 300.695313 446.59375 "/>
</g>
</svg>
