<?xml version="1.0" encoding="UTF-8"?>
<svg xmlns="http://www.w3.org/2000/svg" xmlns:xlink="http://www.w3.org/1999/xlink" width="378pt" height="504pt" viewBox="0 0 378 504" version="1.1">
<g id="data">
<rect x="0" y="0" width="378" height="504" style="fill:rgb(100%,100%,100%);fill-opacity:1;stroke:none;"/>
<path style=" stroke:none;fill-rule:nonzero;fill:rgb(100%,100%,100%);fill-opacity:1;" d="M 53.308594 504 L 324.691406 504 L 324.691406 0 L 53.308594 0 Z M 53.308594 504 "/>
<path style=" stroke:none;fill-rule:nonzero;fill:rgb(22.745098%,53.333333%,16.078431%);fill-opacity:1;" d="M 210.324219 393.507813 L 210.988281 389.628906 L 210.324219 385.753906 L 212.898438 384.617188 L 215.125 382.894531 L 216.941406 380.574219 L 218.078125 378 L 220.246094 376.292969 L 221.953125 374.125 L 223.09375 376.476563 L 224.644531 378.429688 L 222.480469 378.757813 L 220.417969 379.488281 L 218.53125 380.585938 L 216.878906 382.023438 L 215.527344 383.742188 L 214.519531 385.683594 L 213.894531 387.777344 L 213.671875 389.953125 L 214.40625 396.441406 L 215.574219 399.683594 L 216.78125 401.496094 L 218.304688 403.046875 L 221.953125 405.136719 L 219.792969 408.605469 L 218.96875 412.476563 L 219.53125 416.523438 L 221.378906 420.023438 L 223.761719 422.339844 L 226.582031 423.84375 L 229.707031 424.523438 L 233.292969 425.867188 L 237.375 425.933594 L 241.339844 424.523438 L 245.25 423.847656 L 248.804688 421.8125 L 250.5 420.058594 L 251.847656 417.871094 L 252.6875 415.445313 L 252.96875 412.890625 L 255.804688 414.0625 L 258.71875 414.449219 L 261.765625 414.0625 L 264.601563 412.890625 L 262.339844 415.617188 L 261.003906 418.894531 L 260.410156 423.5625 L 261.15625 427.433594 L 262.601563 430.132813 L 264.601563 432.277344 L 266.0625 435.117188 L 268.144531 437.367188 L 269.941406 438.59375 L 271.933594 439.464844 L 274.054688 439.949219 L 276.230469 440.03125 L 276.230469 443.90625 L 273.988281 444.316406 L 271.980469 445.097656 L 270.050781 446.3125 L 268.476563 447.785156 L 265.695313 445.355469 L 262.417969 443.953125 L 259.890625 443.597656 L 256.847656 443.90625 L 254.695313 443.605469 L 252.527344 443.707031 L 248.546875 445.035156 L 246.753906 446.253906 L 245.214844 447.785156 L 242.019531 448.042969 L 239.011719 449.164063 L 235.808594 451.71875 L 233.6875 455.226563 L 232.914063 459.25 L 233.570313 463.214844 L 231.496094 463.171875 L 231.378906 463.496094 L 231.871094 464.050781 L 231.007813 464.429688 L 229.269531 465.777344 L 226.691406 465.496094 L 225.015625 466.191406 L 224.457031 464.871094 L 223.25 463.058594 L 220.273438 460.457031 L 215.589844 458.375 L 211.519531 457.953125 L 207.550781 458.96875 L 204.746094 460.769531 L 202.570313 463.292969 L 199.980469 464.585938 L 197.789063 466.476563 L 197.167969 463.332031 L 195.785156 460.582031 L 193.628906 458.207031 L 191.027344 456.5625 L 188.589844 455.757813 L 183.03125 454.867188 L 179.742188 455.382813 L 176.734375 456.804688 L 176.269531 454.15625 L 175.210938 451.683594 L 173.609375 449.519531 L 172.34375 448.453125 L 173.15625 448.464844 L 180.570313 447.503906 L 181.109375 445.632813 L 181.210938 443.15625 L 182.519531 440.25 L 186.894531 436.027344 L 189.039063 435.242188 L 192.152344 432.609375 L 193.378906 430.8125 L 194.25 428.820313 L 194.703125 426.832031 L 195.792969 425.3125 L 197.929688 424.472656 L 198.285156 423.78125 L 198.070313 423.238281 L 197.8125 423.082031 L 196.09375 424.355469 L 194.777344 425.574219 L 194.816406 424.523438 L 197.902344 421.644531 L 199.757813 417.851563 L 200.15625 415.574219 L 200.097656 413.265625 L 199.621094 411.132813 L 198.691406 409.015625 L 201.300781 408.496094 L 203.722656 407.398438 L 205.648438 405.953125 L 208.292969 403.199219 L 209.597656 401.003906 L 210.390625 398.582031 L 210.636719 396.039063 Z M 228.390625 466.652344 L 226.96875 468.46875 L 225.832031 471.046875 L 225.378906 467.464844 L 227.316406 466.367188 Z M 175.453125 439.539063 L 175.566406 438.910156 L 175.449219 435.496094 L 177.921875 435.980469 L 177.398438 436.808594 L 177.039063 438.671875 L 176.445313 439.273438 Z M 250.640625 339.230469 L 252.082031 339.230469 L 254.382813 342.558594 L 255.222656 343.25 L 255.828125 344.035156 L 258.148438 345.847656 L 258.648438 346.070313 L 260.125 347.285156 L 258.484375 348.109375 L 256.628906 349.597656 L 254.140625 347.820313 L 251.273438 346.75 L 248.230469 346.464844 L 245.214844 346.984375 L 245.214844 343.109375 L 247.386719 341.402344 L 248.796875 339.605469 L 249.617188 339.34375 Z M 179.308594 242.308594 L 177.136719 244.015625 L 175.429688 246.183594 L 175.019531 243.125 L 177.140625 242.929688 Z M 165.757813 477.914063 L 166.878906 477.132813 L 166.496094 478.253906 Z M 148.292969 478.800781 L 150.609375 479.359375 L 153.117188 479.425781 L 150.550781 480.710938 L 148.453125 482.535156 L 148.292969 482.546875 Z M 109.523438 490.429688 L 113.398438 490.429688 L 113.84375 492.761719 L 113.546875 492.632813 L 111.824219 491.410156 Z M 109.523438 490.429688 "/>
</g>
</svg>
