<?xml version="1.0" encoding="UTF-8"?>
<svg xmlns="http://www.w3.org/2000/svg" xmlns:xlink="http://www.w3.org/1999/xlink" width="378pt" height="504pt" viewBox="0 0 378 504" version="1.1">
<g id="data">
<rect x="0" y="0" width="378" height="504" style="fill:rgb(100%,100%,100%);fill-opacity:1;stroke:none;"/>
<path style=" stroke:none;fill-rule:nonzero;fill:rgb(100%,100%,100%);fill-opacity:1;" d="M 53.308594 504 L 324.691406 504 L 324.691406 0 L 53.308594 0 Z M 53.308594 504 "/>
<path style=" stroke:none;fill-rule:nonzero;fill:rgb(22.745098%,53.333333%,16.078431%);fill-opacity:1;" d="M 268.476563 447.785156 L 268.101563 445.664063 L 267.34375 443.648438 L 264.503906 439.699219 L 268.589844 440.554688 L 272.355469 440.03125 L 276.230469 440.03125 L 273.65625 441.167969 L 271.429688 442.890625 L 269.613281 445.207031 Z M 253.378906 431.457031 L 255.394531 430.421875 L 257.257813 428.929688 L 257.761719 432.316406 L 255.613281 431.675781 Z M 214.199219 440.03125 L 215.808594 438.050781 L 216.902344 435.886719 L 217.542969 433.414063 L 217.632813 430.863281 L 219.925781 429.867188 L 221.953125 428.398438 L 225.832031 428.398438 L 228.503906 430.757813 L 231.890625 432.230469 L 234.671875 432.589844 L 237.460938 432.277344 L 234.625 433.472656 L 232.289063 435.28125 L 230.421875 437.730469 L 229.292969 440.457031 L 228.90625 444.15625 L 229.707031 447.785156 L 228.539063 450.757813 L 228.222656 453.941406 L 228.746094 456.964844 L 230.039063 459.746094 L 227.257813 458.453125 L 224.105469 457.925781 L 220.925781 458.277344 L 218.078125 459.414063 L 218.742188 455.664063 L 218.078125 451.660156 L 218.390625 449.128906 L 218.171875 446.714844 L 216.761719 443.03125 Z M 214.199219 394.824219 L 214.550781 397.074219 L 215.332031 399.214844 L 216.519531 401.160156 L 218.058594 402.835938 L 214.199219 402.175781 L 210.339844 402.835938 L 211.882813 401.160156 L 213.066406 399.214844 L 213.847656 397.074219 Z M 197.464844 422.308594 L 198.691406 420.644531 L 201.894531 419.226563 L 202.570313 420.644531 L 199.980469 421.160156 Z M 181.960938 441.488281 L 184.019531 441.164063 L 186.074219 440.425781 L 187.953125 439.316406 L 189.597656 437.875 L 190.9375 436.152344 L 190.9375 440.03125 L 188.742188 443.632813 L 187.976563 447.785156 L 188.742188 451.933594 L 190.9375 455.539063 L 187.0625 455.539063 L 186.054688 453.035156 L 184.5 450.832031 L 182.480469 449.046875 L 180.101563 447.773438 L 179.605469 447.632813 L 180.570313 447.503906 L 181.109375 445.632813 L 181.210938 443.15625 Z M 181.960938 441.488281 "/>
<path style=" stroke:none;fill-rule:nonzero;fill:rgb(80.392157%,58.431373%,4.705882%);fill-opacity:1;" d="M 251.03125 346.984375 L 250.746094 348.78125 L 249.921875 350.402344 L 248.632813 351.6875 L 247.011719 352.515625 L 245.214844 352.800781 L 243.417969 352.515625 L 241.796875 351.6875 L 240.511719 350.402344 L 239.683594 348.78125 L 239.398438 346.984375 L 239.683594 345.1875 L 240.511719 343.566406 L 241.796875 342.28125 L 243.417969 341.453125 L 245.214844 341.167969 L 247.011719 341.453125 L 248.632813 342.28125 L 249.921875 343.566406 L 250.746094 345.1875 Z M 251.03125 346.984375 "/>
<path style=" stroke:none;fill-rule:nonzero;fill:rgb(80.392157%,58.431373%,4.705882%);fill-opacity:1;" d="M 227.769531 374.125 L 227.484375 375.921875 L 226.660156 377.542969 L 225.371094 378.828125 L 223.75 379.652344 L 221.953125 379.9375 L 220.15625 379.652344 L 218.535156 378.828125 L 217.25 377.542969 L 216.421875 375.921875 L 216.136719 374.125 L 216.421875 372.324219 L 217.25 370.703125 L 218.535156 369.417969 L 220.15625 368.59375 L 221.953125 368.308594 L 223.75 368.59375 L 225.371094 369.417969 L 226.660156 370.703125 L 227.484375 372.324219 Z M 227.769531 374.125 "/>
<path style=" stroke:none;fill-rule:nonzero;fill:rgb(80.392157%,58.431373%,4.705882%);fill-opacity:1;" d="M 173.492188 424.523438 L 173.207031 426.320313 L 172.382813 427.941406 L 171.09375 429.226563 L 169.472656 430.054688 L 167.675781 430.339844 L 165.878906 430.054688 L 164.257813 429.226563 L 162.972656 427.941406 L 162.144531 426.320313 L 161.863281 424.523438 L 162.144531 422.726563 L 162.972656 421.105469 L 164.257813 419.816406 L 165.878906 418.992188 L 167.675781 418.707031 L 169.472656 418.992188 L 171.09375 419.816406 L 172.382813 421.105469 L 173.207031 422.726563 Z M 173.492188 424.523438 "/>
<path style=" stroke:none;fill-rule:nonzero;fill:rgb(80.392157%,58.431373%,4.705882%);fill-opacity:1;" d="M 266.539063 420.644531 L 266.253906 422.441406 L 265.429688 424.0625 L 264.140625 425.351563 L 262.519531 426.175781 L 260.722656 426.460938 L 258.925781 426.175781 L 257.304688 425.351563 L 256.019531 424.0625 L 255.191406 422.441406 L 254.90625 420.644531 L 255.191406 418.847656 L 256.019531 417.226563 L 257.304688 415.941406 L 258.925781 415.117188 L 260.722656 414.832031 L 262.519531 415.117188 L 264.140625 415.941406 L 265.429688 417.226563 L 266.253906 418.847656 Z M 266.539063 420.644531 "/>
<path style=" stroke:none;fill-rule:nonzero;fill:rgb(80.392157%,58.431373%,4.705882%);fill-opacity:1;" d="M 282.046875 393.507813 L 281.761719 395.304688 L 280.933594 396.925781 L 279.648438 398.210938 L 278.027344 399.039063 L 276.230469 399.324219 L 274.433594 399.039063 L 272.8125 398.210938 L 271.527344 396.925781 L 270.699219 395.304688 L 270.414063 393.507813 L 270.699219 391.710938 L 271.527344 390.089844 L 272.8125 388.804688 L 274.433594 387.976563 L 276.230469 387.691406 L 278.027344 387.976563 L 279.648438 388.804688 L 280.933594 390.089844 L 281.761719 391.710938 Z M 282.046875 393.507813 "/>
<path style=" stroke:none;fill-rule:nonzero;fill:rgb(80.392157%,58.431373%,4.705882%);fill-opacity:1;" d="M 270.414063 412.890625 L 270.128906 414.6875 L 269.304688 416.308594 L 268.019531 417.597656 L 266.398438 418.421875 L 264.601563 418.707031 L 262.804688 418.421875 L 261.183594 417.597656 L 259.894531 416.308594 L 259.070313 414.6875 L 258.785156 412.890625 L 259.070313 411.09375 L 259.894531 409.472656 L 261.183594 408.1875 L 262.804688 407.363281 L 264.601563 407.078125 L 266.398438 407.363281 L 268.019531 408.1875 L 269.304688 409.472656 L 270.128906 411.09375 Z M 270.414063 412.890625 "/>
<path style=" stroke:none;fill-rule:nonzero;fill:rgb(80.392157%,58.431373%,4.705882%);fill-opacity:1;" d="M 251.03125 343.109375 L 250.746094 344.90625 L 249.921875 346.527344 L 248.632813 347.8125 L 247.011719 348.636719 L 245.214844 348.921875 L 243.417969 348.636719 L 241.796875 347.8125 L 240.511719 346.527344 L 239.683594 344.90625 L 239.398438 343.109375 L 239.683594 341.3125 L 240.511719 339.691406 L 241.796875 338.402344 L 243.417969 337.578125 L 245.214844 337.292969 L 247.011719 337.578125 L 249.035156 338.804688 L 245.550781 339.511719 L 244.589844 338.644531 L 243.40625 338.558594 L 241.210938 339.871094 L 241.886719 340.445313 L 246.324219 340.394531 L 249.585938 339.355469 L 250.746094 341.3125 Z M 251.03125 343.109375 "/>
<path style=" stroke:none;fill-rule:nonzero;fill:rgb(80.392157%,58.431373%,4.705882%);fill-opacity:1;" d="M 262.914063 464.878906 L 262.660156 463.292969 L 262.945313 461.496094 L 263.773438 459.875 L 265.058594 458.585938 L 266.679688 457.761719 L 268.476563 457.476563 L 270.273438 457.761719 L 271.894531 458.585938 L 273.183594 459.875 L 274.007813 461.496094 L 274.25 463.03125 L 272.597656 463.816406 L 270.539063 466.589844 L 269.761719 466.949219 Z M 262.914063 464.878906 "/>
<path style=" stroke:none;fill-rule:nonzero;fill:rgb(80.392157%,58.431373%,4.705882%);fill-opacity:1;" d="M 154.109375 482.675781 L 153.824219 484.472656 L 153.117188 485.855469 L 152.417969 486.300781 L 151.738281 486.164063 L 148.46875 482.535156 L 142.535156 483.046875 L 142.476563 482.675781 L 142.761719 480.878906 L 143.585938 479.257813 L 144.875 477.972656 L 146.496094 477.144531 L 148.292969 476.863281 L 150.089844 477.144531 L 151.710938 477.972656 L 152.996094 479.257813 L 153.824219 480.878906 Z M 154.109375 482.675781 "/>
<path style=" stroke:none;fill-rule:nonzero;fill:rgb(80.392157%,58.431373%,4.705882%);fill-opacity:1;" d="M 119.214844 490.429688 L 118.929688 492.226563 L 118.105469 493.847656 L 117.195313 494.757813 L 115.984375 493.691406 L 112.253906 492.070313 L 111.410156 491.984375 L 110.375 492.488281 L 110.242188 494.183594 L 109.679688 494.832031 L 108.695313 493.847656 L 107.871094 492.226563 L 107.585938 490.429688 L 107.675781 489.859375 L 111.738281 488.078125 L 112.199219 488.253906 L 112.445313 488.9375 L 113.574219 489.15625 L 117.476563 486.382813 L 118.929688 488.632813 Z M 119.214844 490.429688 "/>
<path style=" stroke:none;fill-rule:nonzero;fill:rgb(80.392157%,58.431373%,4.705882%);fill-opacity:1;" d="M 177.347656 447.921875 L 177.085938 449.582031 L 176.257813 451.203125 L 174.972656 452.488281 L 173.351563 453.316406 L 171.554688 453.601563 L 169.757813 453.316406 L 168.136719 452.488281 L 166.847656 451.203125 L 166.023438 449.582031 L 165.738281 447.785156 L 166.046875 446.148438 L 169.484375 447.285156 L 170.039063 448.109375 L 170.757813 448.421875 L 173.15625 448.464844 Z M 177.347656 447.921875 "/>
<path style=" stroke:none;fill-rule:nonzero;fill:rgb(80.392157%,58.431373%,4.705882%);fill-opacity:1;" d="M 233.429688 300.988281 L 231.503906 302.117188 L 229.707031 302.398438 L 227.910156 302.117188 L 226.289063 301.289063 L 225.003906 300.003906 L 224.175781 298.382813 L 223.890625 296.585938 L 224.175781 294.789063 L 225.003906 293.167969 L 225.570313 292.597656 L 225.945313 294.183594 L 229.304688 299.0625 Z M 233.429688 300.988281 "/>
<path style=" stroke:none;fill-rule:nonzero;fill:rgb(80.392157%,58.431373%,4.705882%);fill-opacity:1;" d="M 86.90625 172.800781 L 87.40625 173.601563 L 87.285156 175.226563 L 85.394531 175.835938 L 84.546875 175.601563 L 83.046875 174.507813 L 82.722656 173.699219 L 82.824219 172.589844 L 83.972656 171.789063 Z M 85.066406 181.480469 L 84.183594 181.929688 L 81.679688 182.101563 L 82.046875 176.234375 L 83.4375 175.515625 L 85.28125 176.539063 L 86.578125 178.347656 L 85.882813 178.945313 L 85.144531 178.476563 Z M 85.066406 181.480469 "/>
<path style=" stroke:none;fill-rule:nonzero;fill:rgb(80.392157%,58.431373%,4.705882%);fill-opacity:1;" d="M 169.675781 439.652344 L 169.898438 438.234375 L 170.726563 436.613281 L 172.011719 435.324219 L 173.632813 434.5 L 175.429688 434.214844 L 177.226563 434.5 L 178.527344 435.160156 L 177.398438 436.808594 L 177.039063 438.671875 L 176.445313 439.273438 L 174.058594 439.917969 Z M 169.675781 439.652344 "/>
<path style=" stroke:none;fill-rule:nonzero;fill:rgb(80.392157%,58.431373%,4.705882%);fill-opacity:1;" d="M 114.609375 493.097656 L 115.480469 492.652344 L 117.277344 492.371094 L 119.074219 492.652344 L 120.695313 493.480469 L 121.980469 494.765625 L 122.871094 496.789063 L 120.660156 497.648438 L 119.628906 499.730469 L 118.675781 498.910156 L 117.96875 497.691406 L 118.09375 496.4375 L 117.15625 494.691406 L 115.984375 493.691406 Z M 114.609375 493.097656 "/>
</g>
</svg>
