<?xml version="1.0" encoding="UTF-8"?>
<svg xmlns="http://www.w3.org/2000/svg" xmlns:xlink="http://www.w3.org/1999/xlink" width="378pt" height="504pt" viewBox="0 0 378 504" version="1.1">
<g id="data">
<rect x="0" y="0" width="378" height="504" style="fill:rgb(100%,100%,100%);fill-opacity:1;stroke:none;"/>
<path style=" stroke:none;fill-rule:nonzero;fill:rgb(100%,100%,100%);fill-opacity:1;" d="M 53.308594 504 L 324.691406 504 L 324.691406 0 L 53.308594 0 Z M 53.308594 504 "/>
<path style=" stroke:none;fill-rule:nonzero;fill:rgb(22.745098%,53.333333%,16.078431%);fill-opacity:1;" d="M 252.816406 437.246094 L 251.019531 436.773438 L 249.460938 435.757813 L 248.304688 434.300781 L 247.667969 432.550781 L 247.613281 430.691406 L 248.152344 428.910156 L 249.222656 427.390625 L 250.71875 426.285156 L 252.214844 425.519531 L 253.621094 424.390625 L 255.125 423.519531 L 256.816406 423.128906 L 258.550781 423.257813 L 260.167969 423.890625 L 261.523438 424.976563 L 262.5 426.410156 L 263.011719 428.070313 L 263.515625 431.460938 L 263.476563 433.398438 L 263.21875 434.09375 L 263.957031 433.910156 L 265.695313 434.007813 L 268.789063 434.65625 L 271.550781 434.269531 L 272.355469 434.214844 L 274.351563 434.214844 L 272.609375 436.117188 L 274.253906 436.015625 L 275.152344 434.667969 L 276.683594 434.363281 L 277.132813 434.351563 L 277.964844 434.480469 L 279.542969 435.25 L 280.691406 436.335938 L 279.554688 436.347656 L 277.390625 437.65625 L 277.96875 438.546875 L 281.382813 438.964844 L 281.910156 439.097656 L 282.035156 439.703125 L 281.871094 441.449219 L 281.191406 443.066406 L 280.058594 444.40625 L 278.578125 445.351563 L 276.652344 446.203125 L 275.546875 447.058594 L 274.691406 448.140625 L 273.785156 450.164063 L 272.773438 451.703125 L 271.332031 452.851563 L 269.601563 453.488281 L 267.761719 453.554688 L 265.992188 453.042969 L 264.472656 452 L 263.351563 450.535156 L 262.75 448.792969 L 262.46875 447.207031 L 262.171875 446.417969 L 259.785156 443.097656 L 258.992188 441.550781 L 258.691406 439.835938 L 258.910156 438.113281 L 259 437.914063 L 258.023438 438.125 L 256.101563 437.890625 L 254.488281 437.410156 Z M 209.777344 443.804688 L 208.753906 442.074219 L 208.386719 440.101563 L 208.707031 438.117188 L 209.6875 436.363281 L 210.890625 434.878906 L 211.464844 433.730469 L 211.753906 432.59375 L 211.820313 430.667969 L 212.101563 429.058594 L 212.820313 427.59375 L 213.921875 426.386719 L 215.3125 425.53125 L 217.027344 424.785156 L 218.546875 423.6875 L 220.164063 422.867188 L 221.953125 422.585938 L 225.832031 422.585938 L 227.871094 422.953125 L 229.65625 424.019531 L 231.742188 425.84375 L 233.4375 426.566406 L 234.722656 426.734375 L 236.808594 426.5 L 238.644531 426.582031 L 240.359375 427.234375 L 241.789063 428.390625 L 242.785156 429.9375 L 243.25 431.714844 L 243.136719 433.546875 L 242.457031 435.253906 L 241.277344 436.664063 L 239.71875 437.636719 L 237.582031 438.535156 L 236.449219 439.414063 L 235.503906 440.652344 L 234.988281 441.898438 L 234.789063 443.824219 L 235.386719 446.53125 L 235.503906 448.242188 L 235.121094 449.914063 L 234.246094 452.136719 L 234.085938 453.730469 L 234.34375 455.210938 L 235.3125 457.292969 L 235.804688 458.992188 L 235.765625 460.757813 L 235.199219 462.433594 L 234.609375 463.234375 L 231.496094 463.171875 L 231.378906 463.496094 L 232.574219 464.835938 L 232.523438 464.976563 L 231.050781 465.476563 L 229.285156 465.515625 L 227.585938 465.019531 L 225.519531 464.058594 L 223.925781 463.789063 L 222.445313 463.945313 L 220.207031 464.828125 L 218.492188 465.214844 L 216.746094 465.074219 L 215.117188 464.421875 L 213.757813 463.308594 L 212.792969 461.84375 L 212.308594 460.15625 L 212.351563 458.402344 L 212.839844 455.632813 L 212.339844 452.613281 L 212.308594 450.914063 L 212.542969 449.128906 L 212.445313 448.027344 L 211.6875 446.046875 Z M 208.453125 393.929688 L 209.011719 392.195313 L 210.082031 390.71875 L 211.554688 389.644531 L 213.289063 389.082031 L 215.109375 389.082031 L 216.84375 389.644531 L 218.316406 390.71875 L 219.386719 392.195313 L 219.945313 393.929688 L 220.207031 395.613281 L 220.597656 396.675781 L 221.1875 397.644531 L 222.339844 398.902344 L 223.335938 400.398438 L 223.832031 402.125 L 223.769531 403.921875 L 223.167969 405.617188 L 222.074219 407.042969 L 220.597656 408.066406 L 218.878906 408.59375 L 217.078125 408.566406 L 214.199219 408.078125 L 211.320313 408.566406 L 209.523438 408.59375 L 207.804688 408.066406 L 206.328125 407.042969 L 205.234375 405.617188 L 204.628906 403.921875 L 204.570313 402.125 L 205.0625 400.398438 L 206.058594 398.902344 L 207.210938 397.644531 L 207.800781 396.675781 L 208.191406 395.613281 Z M 199.910156 427.585938 L 198.066406 428.089844 L 196.160156 427.972656 L 194.40625 427.25 L 195.792969 425.3125 L 197.929688 424.472656 L 198.285156 423.78125 L 198.070313 423.238281 L 197.8125 423.082031 L 196.09375 424.355469 L 193.664063 426.601563 L 192.957031 425.980469 L 192.011719 424.324219 L 191.652344 422.445313 L 191.921875 420.554688 L 192.789063 418.851563 L 194.015625 417.191406 L 195.054688 416.109375 L 196.335938 415.328125 L 199.535156 413.910156 L 201.261719 413.445313 L 203.046875 413.527344 L 204.726563 414.148438 L 206.132813 415.25 L 207.140625 416.722656 L 207.816406 418.144531 L 208.324219 419.820313 L 208.308594 421.574219 L 207.773438 423.242188 L 206.765625 424.671875 L 205.375 425.738281 L 203.730469 426.34375 L 201.6875 426.761719 Z M 173.179688 453.367188 L 171.308594 453.59375 L 169.460938 453.210938 L 167.832031 452.253906 L 166.597656 450.828125 L 165.886719 449.082031 L 165.769531 447.199219 L 166.050781 446.148438 L 167.527344 446.515625 L 169.484375 447.285156 L 170.039063 448.109375 L 170.757813 448.421875 L 173.15625 448.464844 L 180.570313 447.503906 L 181.109375 445.632813 L 181.210938 443.15625 L 182.519531 440.25 L 190.867188 432.195313 L 192.066406 430.519531 L 192.84375 430.660156 L 194.425781 431.5 L 195.675781 432.78125 L 196.476563 434.382813 L 196.753906 436.152344 L 196.753906 440.03125 L 196.539063 441.601563 L 195.90625 443.058594 L 194.265625 445.746094 L 193.890625 447.785156 L 194.265625 449.824219 L 195.90625 452.511719 L 196.582031 454.128906 L 196.742188 455.875 L 196.378906 457.589844 L 195.523438 459.117188 L 194.246094 460.320313 L 192.671875 461.089844 L 190.9375 461.355469 L 187.0625 461.355469 L 185.359375 461.097656 L 183.804688 460.355469 L 182.539063 459.191406 L 181.664063 457.707031 L 180.914063 455.835938 L 180.140625 454.742188 L 179.136719 453.855469 L 177.898438 453.191406 L 176.917969 452.90625 L 175.832031 452.808594 L 174.75 452.910156 Z M 169.597656 439.632813 L 169.703125 439.019531 L 170.265625 437.359375 L 171.292969 435.941406 L 172.699219 434.898438 L 174.351563 434.316406 L 176.105469 434.253906 L 177.792969 434.71875 L 178.648438 435.097656 L 178.394531 435.230469 L 177.398438 436.808594 L 177.039063 438.671875 L 176.445313 439.273438 L 174.058594 439.917969 L 170.558594 439.851563 Z M 186.261719 432.691406 L 186.371094 432.554688 L 187.683594 431.332031 L 189.304688 430.574219 L 190.132813 430.464844 L 189.222656 431.449219 Z M 186.261719 432.691406 "/>
<path style=" stroke:none;fill-rule:nonzero;fill:rgb(80.392157%,58.431373%,4.705882%);fill-opacity:1;" d="M 251.03125 346.984375 L 250.746094 348.78125 L 249.921875 350.402344 L 248.632813 351.6875 L 247.011719 352.515625 L 245.214844 352.800781 L 243.417969 352.515625 L 241.796875 351.6875 L 240.511719 350.402344 L 239.683594 348.78125 L 239.398438 346.984375 L 239.683594 345.1875 L 240.511719 343.566406 L 241.796875 342.28125 L 243.417969 341.453125 L 245.214844 341.167969 L 247.011719 341.453125 L 248.632813 342.28125 L 249.921875 343.566406 L 250.746094 345.1875 Z M 251.03125 346.984375 "/>
<path style=" stroke:none;fill-rule:nonzero;fill:rgb(80.392157%,58.431373%,4.705882%);fill-opacity:1;" d="M 227.769531 374.125 L 227.484375 375.921875 L 226.660156 377.542969 L 225.371094 378.828125 L 223.75 379.652344 L 221.953125 379.9375 L 220.15625 379.652344 L 218.535156 378.828125 L 217.25 377.542969 L 216.421875 375.921875 L 216.136719 374.125 L 216.421875 372.324219 L 217.25 370.703125 L 218.535156 369.417969 L 220.15625 368.59375 L 221.953125 368.308594 L 223.75 368.59375 L 225.371094 369.417969 L 226.660156 370.703125 L 227.484375 372.324219 Z M 227.769531 374.125 "/>
<path style=" stroke:none;fill-rule:nonzero;fill:rgb(80.392157%,58.431373%,4.705882%);fill-opacity:1;" d="M 173.492188 424.523438 L 173.207031 426.320313 L 172.382813 427.941406 L 171.09375 429.226563 L 169.472656 430.054688 L 167.675781 430.339844 L 165.878906 430.054688 L 164.257813 429.226563 L 162.972656 427.941406 L 162.144531 426.320313 L 161.863281 424.523438 L 162.144531 422.726563 L 162.972656 421.105469 L 164.257813 419.816406 L 165.878906 418.992188 L 167.675781 418.707031 L 169.472656 418.992188 L 171.09375 419.816406 L 172.382813 421.105469 L 173.207031 422.726563 Z M 173.492188 424.523438 "/>
<path style=" stroke:none;fill-rule:nonzero;fill:rgb(80.392157%,58.431373%,4.705882%);fill-opacity:1;" d="M 282.046875 393.507813 L 281.761719 395.304688 L 280.933594 396.925781 L 279.648438 398.210938 L 278.027344 399.039063 L 276.230469 399.324219 L 274.433594 399.039063 L 272.8125 398.210938 L 271.527344 396.925781 L 270.699219 395.304688 L 270.414063 393.507813 L 270.699219 391.710938 L 271.527344 390.089844 L 272.8125 388.804688 L 274.433594 387.976563 L 276.230469 387.691406 L 278.027344 387.976563 L 279.648438 388.804688 L 280.933594 390.089844 L 281.761719 391.710938 Z M 282.046875 393.507813 "/>
<path style=" stroke:none;fill-rule:nonzero;fill:rgb(80.392157%,58.431373%,4.705882%);fill-opacity:1;" d="M 270.414063 412.890625 L 270.128906 414.6875 L 269.304688 416.308594 L 268.019531 417.597656 L 266.398438 418.421875 L 264.601563 418.707031 L 262.804688 418.421875 L 261.183594 417.597656 L 259.894531 416.308594 L 259.070313 414.6875 L 258.785156 412.890625 L 259.070313 411.09375 L 259.894531 409.472656 L 261.183594 408.1875 L 262.804688 407.363281 L 264.601563 407.078125 L 266.398438 407.363281 L 268.019531 408.1875 L 269.304688 409.472656 L 270.128906 411.09375 Z M 270.414063 412.890625 "/>
<path style=" stroke:none;fill-rule:nonzero;fill:rgb(80.392157%,58.431373%,4.705882%);fill-opacity:1;" d="M 251.03125 343.109375 L 250.746094 344.90625 L 249.921875 346.527344 L 248.632813 347.8125 L 247.011719 348.636719 L 245.214844 348.921875 L 243.417969 348.636719 L 241.796875 347.8125 L 240.511719 346.527344 L 239.683594 344.90625 L 239.398438 343.109375 L 239.683594 341.3125 L 240.511719 339.691406 L 241.796875 338.402344 L 243.417969 337.578125 L 245.214844 337.292969 L 247.011719 337.578125 L 248.632813 338.402344 L 249.035156 338.804688 L 245.550781 339.511719 L 244.589844 338.644531 L 243.40625 338.558594 L 241.210938 339.871094 L 241.886719 340.445313 L 246.324219 340.394531 L 249.585938 339.355469 L 249.921875 339.691406 L 250.746094 341.3125 Z M 251.03125 343.109375 "/>
<path style=" stroke:none;fill-rule:nonzero;fill:rgb(80.392157%,58.431373%,4.705882%);fill-opacity:1;" d="M 262.914063 464.878906 L 262.660156 463.292969 L 262.945313 461.496094 L 263.773438 459.875 L 265.058594 458.585938 L 266.679688 457.761719 L 268.476563 457.476563 L 270.273438 457.761719 L 271.894531 458.585938 L 273.183594 459.875 L 274.007813 461.496094 L 274.25 463.03125 L 272.597656 463.816406 L 270.539063 466.589844 L 269.761719 466.949219 Z M 262.914063 464.878906 "/>
<path style=" stroke:none;fill-rule:nonzero;fill:rgb(80.392157%,58.431373%,4.705882%);fill-opacity:1;" d="M 154.109375 482.675781 L 153.824219 484.472656 L 153.117188 485.855469 L 152.417969 486.300781 L 151.738281 486.164063 L 148.46875 482.535156 L 142.796875 482.960938 L 142.535156 483.046875 L 142.476563 482.675781 L 142.761719 480.878906 L 143.585938 479.257813 L 144.875 477.972656 L 146.496094 477.144531 L 148.292969 476.863281 L 150.089844 477.144531 L 151.710938 477.972656 L 152.996094 479.257813 L 153.824219 480.878906 Z M 154.109375 482.675781 "/>
<path style=" stroke:none;fill-rule:nonzero;fill:rgb(80.392157%,58.431373%,4.705882%);fill-opacity:1;" d="M 119.214844 490.429688 L 118.929688 492.226563 L 118.105469 493.847656 L 117.195313 494.757813 L 117.15625 494.691406 L 115.984375 493.691406 L 112.253906 492.070313 L 111.410156 491.984375 L 110.375 492.488281 L 110.242188 494.183594 L 109.679688 494.832031 L 108.695313 493.847656 L 107.871094 492.226563 L 107.585938 490.429688 L 107.675781 489.859375 L 111.738281 488.078125 L 112.199219 488.253906 L 112.445313 488.9375 L 113.574219 489.15625 L 117.476563 486.382813 L 118.105469 487.011719 L 118.929688 488.632813 Z M 119.214844 490.429688 "/>
<path style=" stroke:none;fill-rule:nonzero;fill:rgb(80.392157%,58.431373%,4.705882%);fill-opacity:1;" d="M 233.429688 300.988281 L 233.125 301.289063 L 231.503906 302.117188 L 229.707031 302.398438 L 227.910156 302.117188 L 226.289063 301.289063 L 225.003906 300.003906 L 224.175781 298.382813 L 223.890625 296.585938 L 224.175781 294.789063 L 225.003906 293.167969 L 225.570313 292.597656 L 225.945313 294.183594 L 229.304688 299.0625 Z M 233.429688 300.988281 "/>
<path style=" stroke:none;fill-rule:nonzero;fill:rgb(80.392157%,58.431373%,4.705882%);fill-opacity:1;" d="M 85.066406 181.480469 L 84.183594 181.929688 L 82.382813 182.214844 L 81.679688 182.101563 L 82.046875 176.234375 L 83.4375 175.515625 L 85.28125 176.539063 L 86.578125 178.347656 L 85.882813 178.945313 L 85.144531 178.476563 L 85.03125 179.058594 Z M 86.90625 172.800781 L 87.089844 172.980469 L 87.40625 173.601563 L 87.285156 175.226563 L 85.394531 175.835938 L 84.546875 175.601563 L 83.046875 174.507813 L 82.722656 173.699219 L 82.824219 172.589844 L 83.972656 171.789063 L 86.566406 172.507813 Z M 86.90625 172.800781 "/>
<path style=" stroke:none;fill-rule:nonzero;fill:rgb(80.392157%,58.431373%,4.705882%);fill-opacity:1;" d="M 114.609375 493.097656 L 115.480469 492.652344 L 117.277344 492.371094 L 119.074219 492.652344 L 120.695313 493.480469 L 121.980469 494.765625 L 122.808594 496.386719 L 122.871094 496.789063 L 122.722656 496.945313 L 120.660156 497.648438 L 119.628906 499.730469 L 118.675781 498.910156 L 117.96875 497.691406 L 118.09375 496.4375 L 117.15625 494.691406 L 115.984375 493.691406 Z M 114.609375 493.097656 "/>
</g>
</svg>
