<?xml version="1.0" encoding="UTF-8"?>
<svg xmlns="http://www.w3.org/2000/svg" xmlns:xlink="http://www.w3.org/1999/xlink" width="378pt" height="504pt" viewBox="0 0 378 504" version="1.1">
<g id="data">
<rect x="0" y="0" width="378" height="504" style="fill:rgb(100%,100%,100%);fill-opacity:1;stroke:none;"/>
<path style=" stroke:none;fill-rule:nonzero;fill:rgb(100%,100%,100%);fill-opacity:1;" d="M 53.308594 504 L 324.691406 504 L 324.691406 0 L 53.308594 0 Z M 53.308594 504 "/>
<path style=" stroke:none;fill-rule:nonzero;fill:rgb(22.745098%,53.333333%,16.078431%);fill-opacity:1;" d="M 261.449219 408.050781 L 262.613281 405.011719 L 262.796875 403.390625 L 262.675781 401.667969 L 262.84375 399.816406 L 263.589844 398.113281 L 264.832031 396.730469 L 266.648438 395.269531 L 268.355469 393.070313 L 269.015625 391.871094 L 269.355469 390.742188 L 269.457031 389.375 L 269.242188 388.054688 L 268.722656 386.804688 L 267.617188 385.25 L 266.808594 383.628906 L 266.539063 381.839844 L 266.832031 380.050781 L 267.664063 378.441406 L 267.734375 378.367188 L 270.21875 378.804688 L 270.625 378.746094 L 271.910156 376.796875 L 272.03125 376.113281 L 272.355469 376.0625 L 276.230469 376.0625 L 278.054688 376.355469 L 279.695313 377.207031 L 281.855469 378.808594 L 283.515625 379.382813 L 284.921875 379.464844 L 286.199219 379.222656 L 287.789063 378.433594 L 289.089844 377.1875 L 289.90625 375.707031 L 290.433594 373.183594 L 291.078125 371.480469 L 291.277344 371.230469 L 293.949219 371.515625 L 296.914063 372.84375 L 304.070313 378.085938 L 305.367188 380.105469 L 306.730469 384.164063 L 307.179688 391.25 L 306.777344 393.191406 L 306.890625 393.976563 L 305.789063 396.917969 L 303.519531 407.832031 L 297.316406 414.351563 L 296.910156 414.152344 L 295.578125 412.011719 L 293.652344 410.996094 L 293.550781 410.867188 L 290.75 408.417969 L 288.683594 407.191406 L 287.308594 406.863281 L 284.382813 407.0625 L 282.578125 406.902344 L 280.324219 406.34375 L 278.925781 406.363281 L 277.296875 406.84375 L 275.925781 407.730469 L 274.796875 409.0625 L 273.808594 411.332031 L 273.066406 412.585938 L 272.035156 413.613281 L 270.375 414.902344 L 270.132813 415.03125 L 270.09375 415.179688 L 269.242188 417.054688 L 268.84375 419.203125 L 268.203125 420.980469 L 267.027344 422.457031 L 265.4375 423.480469 L 263.605469 423.941406 L 261.722656 423.789063 L 259.988281 423.042969 L 258.582031 421.78125 L 256.234375 418.847656 L 255.363281 417.339844 L 254.976563 415.644531 L 255.109375 413.90625 L 255.75 412.289063 L 256.839844 410.933594 L 258.28125 409.960938 L 259.882813 409.199219 L 261.292969 408.128906 Z M 219.484375 378.609375 L 219.320313 376.648438 L 219.816406 374.75 L 220.914063 373.121094 L 222.496094 371.953125 L 224.375 371.378906 L 226.335938 371.460938 L 228.460938 371.917969 L 230.007813 371.847656 L 231.363281 371.421875 L 233.308594 370.195313 L 234.941406 369.488281 L 236.707031 369.308594 L 238.445313 369.667969 L 239.996094 370.535156 L 241.210938 371.832031 L 241.976563 373.433594 L 242.226563 375.191406 L 241.929688 376.945313 L 241.121094 378.523438 L 239.839844 380.296875 L 239.300781 381.660156 L 239.128906 383.019531 L 239.363281 385.097656 L 239.351563 386.511719 L 238.996094 387.878906 L 238.121094 390.109375 L 237.960938 391.757813 L 238.15625 392.996094 L 238.699219 394.304688 L 239.539063 395.4375 L 241.171875 396.792969 L 242.425781 398.242188 L 243.140625 400.019531 L 243.238281 401.933594 L 242.710938 403.773438 L 241.609375 405.34375 L 240.0625 406.472656 L 238.230469 407.035156 L 235.964844 407.335938 L 234.492188 407.964844 L 233.257813 408.964844 L 232.34375 410.261719 L 231.769531 411.890625 L 231.371094 415.496094 L 231.578125 417.085938 L 232.105469 418.375 L 233.207031 419.800781 L 235.234375 421.398438 L 236.808594 421.988281 L 239.261719 422.152344 L 241.304688 422.671875 L 243.03125 423.886719 L 244.207031 425.632813 L 244.953125 427.351563 L 246.050781 428.871094 L 247.046875 431.167969 L 247.425781 433.125 L 248.007813 434.398438 L 248.925781 435.535156 L 250.109375 436.40625 L 251.832031 437.03125 L 253.601563 437.097656 L 255.304688 436.625 L 257.539063 435.164063 L 259.160156 434.429688 L 260.925781 434.21875 L 262.675781 434.550781 L 264.238281 435.398438 L 265.476563 436.679688 L 266.265625 438.273438 L 266.539063 440.03125 L 266.539063 443.90625 L 266.320313 445.480469 L 265.6875 446.933594 L 264.050781 449.621094 L 263.675781 451.660156 L 264.050781 453.703125 L 265.6875 456.390625 L 266.320313 457.84375 L 266.539063 459.414063 L 266.539063 463.292969 L 266.289063 464.976563 L 265.90625 465.785156 L 259.269531 463.777344 L 256.070313 463.507813 L 244.628906 465.699219 L 242.703125 466.390625 L 242.113281 466.964844 L 241.902344 467.984375 L 241.359375 468.164063 L 238.210938 466.1875 L 238.632813 465.4375 L 239.46875 464.933594 L 237.714844 463.296875 L 231.496094 463.171875 L 231.378906 463.496094 L 232.574219 464.835938 L 232.214844 465.75 L 231.738281 466.042969 L 226.691406 465.496094 L 219.566406 468.449219 L 217.054688 467.824219 L 210.222656 468.96875 L 208.164063 468.875 L 207.273438 468.058594 L 206.238281 469.769531 L 209.429688 471.089844 L 209.714844 470.9375 L 210.1875 472.128906 L 210.121094 472.324219 L 209.070313 472.160156 L 207.445313 471.335938 L 206.15625 470.046875 L 205.332031 468.421875 L 205.046875 466.621094 L 205.335938 464.820313 L 206.167969 463.199219 L 207.414063 461.496094 L 207.941406 460.199219 L 208.140625 458.832031 L 207.988281 457.347656 L 207.511719 456.046875 L 206.726563 454.890625 L 205.699219 453.964844 L 203.738281 452.929688 L 202.257813 451.820313 L 201.203125 450.300781 L 200.679688 448.527344 L 200.738281 446.679688 L 201.371094 444.941406 L 202.523438 443.492188 L 204.066406 442.476563 L 206.0625 441.585938 L 207.269531 440.605469 L 208.136719 439.417969 L 208.863281 437.632813 L 209.144531 436.214844 L 209.082031 434.796875 L 208.683594 433.453125 L 207.960938 432.214844 L 207.101563 431.316406 L 206.0625 430.625 L 204.207031 429.933594 L 202.863281 429.710938 L 201.589844 429.78125 L 200.378906 430.128906 L 199.179688 430.789063 L 197.761719 432.058594 L 196.328125 433.003906 L 194.683594 433.488281 L 192.96875 433.472656 L 191.332031 432.953125 L 190.601563 432.453125 L 190.867188 432.195313 L 195.792969 425.3125 L 197.929688 424.472656 L 198.285156 423.78125 L 198.070313 423.238281 L 197.8125 423.082031 L 196.09375 424.355469 L 192.90625 427.300781 L 190.570313 429.988281 L 189.367188 431.292969 L 188.847656 430.640625 L 188.214844 429.046875 L 187.542969 426.15625 L 186.023438 423.757813 L 185.335938 422.207031 L 185.125 420.523438 L 185.40625 418.851563 L 186.160156 417.332031 L 187.320313 416.09375 L 188.789063 415.242188 L 190.4375 414.851563 L 192.921875 414.636719 L 194.457031 414.035156 L 195.746094 413.03125 L 196.820313 411.511719 L 197.203125 410.5 L 197.390625 409.265625 L 197.34375 408.230469 L 196.921875 406.53125 L 196.847656 404.09375 L 197.355469 401.324219 L 196.929688 397.640625 L 196.996094 395.863281 L 197.597656 394.191406 L 198.679688 392.777344 L 200.132813 391.757813 L 201.828125 391.222656 L 203.605469 391.226563 L 205.300781 391.769531 L 206.75 392.792969 L 207.824219 394.210938 L 209.105469 396.585938 L 210.316406 397.765625 L 211.839844 398.546875 L 213.589844 398.855469 L 214.980469 398.714844 L 216.273438 398.234375 L 218.492188 396.589844 L 219.1875 396.144531 L 221.292969 395.007813 L 222.507813 393.824219 L 223.070313 392.933594 L 223.453125 391.9375 L 223.648438 390.871094 L 223.644531 390.027344 L 223.03125 387.875 L 221.152344 385.332031 L 220.351563 383.824219 L 220.023438 382.148438 L 219.9375 380.351563 Z M 239.6875 449.820313 L 240.128906 448.128906 L 240.152344 446.808594 L 239.867188 445.5 L 239.257813 444.234375 L 238.632813 443.421875 L 238.015625 442.875 L 234.9375 441.394531 L 234.128906 440.921875 L 231.347656 438.976563 L 230.472656 438.679688 L 229.429688 438.539063 L 228.265625 438.605469 L 227.152344 438.898438 L 226.105469 439.414063 L 225.265625 440.054688 L 224.492188 440.925781 L 223.921875 441.90625 L 223.539063 443.058594 L 223.414063 444.21875 L 224.292969 449.78125 L 224.679688 450.644531 L 225.398438 451.640625 L 226.308594 452.464844 L 227.273438 453.03125 L 228.621094 453.488281 L 233.34375 454.355469 L 234.625 454.351563 L 235.765625 454.105469 L 237.0625 453.492188 L 238.214844 452.539063 L 239.03125 451.417969 Z M 223.28125 471.519531 L 222.652344 470.804688 L 221.515625 470.019531 L 221.269531 469.925781 L 221.476563 469.683594 L 227.316406 466.367188 L 232.550781 467.761719 L 234.171875 469.894531 L 231.242188 473.621094 L 229.960938 474.269531 L 228.117188 474.644531 Z M 242.78125 344.527344 L 241.328125 343.730469 L 240.160156 342.558594 L 239.371094 341.101563 L 239.023438 339.484375 L 239.144531 337.832031 L 239.394531 336.714844 L 240.050781 335.027344 L 241.199219 333.628906 L 242.71875 332.648438 L 244.46875 332.179688 L 246.273438 332.273438 L 247.964844 332.921875 L 249.375 334.054688 L 250.371094 335.566406 L 250.851563 337.3125 L 250.976563 338.414063 L 245.550781 339.511719 L 244.589844 338.644531 L 243.40625 338.558594 L 241.210938 339.871094 L 241.886719 340.445313 L 246.324219 340.394531 L 249.617188 339.34375 L 250.972656 339.195313 L 250.9375 340.265625 L 250.398438 341.871094 L 249.417969 343.25 L 248.085938 344.289063 L 246.507813 344.902344 L 244.824219 345.03125 L 243.167969 344.675781 Z M 173.1875 237.199219 L 173.214844 235.285156 L 173.863281 233.484375 L 175.058594 231.988281 L 176.679688 230.964844 L 178.542969 230.519531 L 180.449219 230.707031 L 182.191406 231.5 L 184.09375 232.789063 L 184.414063 232.898438 L 181.046875 235.800781 L 180.578125 237.003906 L 174.761719 240.109375 L 173.550781 239.578125 Z M 195.601563 240.171875 L 195.25 241.3125 L 194.203125 242.796875 L 192.75 243.886719 L 191.082031 244.773438 L 190.050781 245.660156 L 189.320313 246.652344 L 188.519531 248.5 L 187.613281 249.953125 L 186.328125 251.078125 L 184.769531 251.78125 L 183.074219 252 L 181.386719 251.714844 L 179.855469 250.953125 L 178.613281 249.78125 L 177.335938 248.15625 L 175.710938 246.878906 L 174.460938 245.519531 L 173.695313 243.832031 L 173.5 241.992188 L 173.550781 241.101563 L 178.0625 241.875 L 182.921875 243.167969 L 186.398438 241.730469 L 187.519531 239.417969 L 188.617188 238.355469 L 189.539063 238.171875 L 193.183594 238.5 Z M 236.835938 466.113281 L 235.136719 465.644531 L 236.523438 463.683594 L 237.195313 464.164063 L 237.5 465.839844 Z M 236.835938 466.113281 "/>
<path style=" stroke:none;fill-rule:nonzero;fill:rgb(80.392157%,58.431373%,4.705882%);fill-opacity:1;" d="M 235.523438 346.984375 L 235.238281 348.78125 L 234.414063 350.402344 L 233.125 351.6875 L 231.503906 352.515625 L 229.707031 352.800781 L 227.910156 352.515625 L 226.289063 351.6875 L 225.003906 350.402344 L 224.175781 348.78125 L 223.890625 346.984375 L 224.175781 345.1875 L 225.003906 343.566406 L 226.289063 342.28125 L 227.910156 341.453125 L 229.707031 341.167969 L 231.503906 341.453125 L 233.125 342.28125 L 234.414063 343.566406 L 235.238281 345.1875 Z M 235.523438 346.984375 "/>
<path style=" stroke:none;fill-rule:nonzero;fill:rgb(80.392157%,58.431373%,4.705882%);fill-opacity:1;" d="M 227.769531 331.476563 L 227.484375 333.273438 L 226.660156 334.894531 L 225.371094 336.183594 L 223.75 337.007813 L 221.953125 337.292969 L 220.15625 337.007813 L 218.535156 336.183594 L 217.25 334.894531 L 216.421875 333.273438 L 216.136719 331.476563 L 216.421875 329.679688 L 217.25 328.058594 L 218.535156 326.773438 L 220.15625 325.945313 L 221.953125 325.660156 L 223.75 325.945313 L 225.371094 326.773438 L 226.660156 328.058594 L 227.484375 329.679688 Z M 227.769531 331.476563 "/>
<path style=" stroke:none;fill-rule:nonzero;fill:rgb(80.392157%,58.431373%,4.705882%);fill-opacity:1;" d="M 247.152344 323.722656 L 246.871094 325.519531 L 246.042969 327.140625 L 244.757813 328.429688 L 243.136719 329.253906 L 241.339844 329.539063 L 239.542969 329.253906 L 237.921875 328.429688 L 236.632813 327.140625 L 235.808594 325.519531 L 235.523438 323.722656 L 235.808594 321.925781 L 236.632813 320.304688 L 237.921875 319.019531 L 239.542969 318.191406 L 241.339844 317.90625 L 243.136719 318.191406 L 244.757813 319.019531 L 246.042969 320.304688 L 246.871094 321.925781 Z M 247.152344 323.722656 "/>
<path style=" stroke:none;fill-rule:nonzero;fill:rgb(80.392157%,58.431373%,4.705882%);fill-opacity:1;" d="M 254.90625 412.890625 L 254.625 414.6875 L 253.796875 416.308594 L 252.511719 417.597656 L 250.890625 418.421875 L 249.09375 418.707031 L 247.296875 418.421875 L 245.675781 417.597656 L 244.386719 416.308594 L 243.5625 414.6875 L 243.277344 412.890625 L 243.5625 411.09375 L 244.386719 409.472656 L 245.675781 408.1875 L 247.296875 407.363281 L 249.09375 407.078125 L 250.890625 407.363281 L 252.511719 408.1875 L 253.796875 409.472656 L 254.625 411.09375 Z M 254.90625 412.890625 "/>
<path style=" stroke:none;fill-rule:nonzero;fill:rgb(80.392157%,58.431373%,4.705882%);fill-opacity:1;" d="M 157.984375 471.046875 L 157.699219 472.84375 L 156.875 474.464844 L 155.585938 475.75 L 153.964844 476.578125 L 152.167969 476.863281 L 150.371094 476.578125 L 148.75 475.75 L 147.464844 474.464844 L 146.636719 472.84375 L 146.355469 471.046875 L 146.636719 469.25 L 147.464844 467.628906 L 148.75 466.339844 L 150.371094 465.515625 L 152.167969 465.230469 L 153.964844 465.515625 L 155.585938 466.339844 L 156.875 467.628906 L 157.699219 469.25 Z M 157.984375 471.046875 "/>
<path style=" stroke:none;fill-rule:nonzero;fill:rgb(80.392157%,58.431373%,4.705882%);fill-opacity:1;" d="M 293.675781 447.785156 L 293.390625 449.582031 L 292.566406 451.203125 L 291.28125 452.488281 L 289.660156 453.316406 L 287.863281 453.601563 L 286.066406 453.316406 L 284.441406 452.488281 L 283.15625 451.203125 L 282.332031 449.582031 L 282.046875 447.785156 L 282.332031 445.988281 L 283.15625 444.367188 L 284.441406 443.078125 L 286.066406 442.253906 L 287.863281 441.96875 L 289.660156 442.253906 L 291.28125 443.078125 L 292.566406 444.367188 L 293.390625 445.988281 Z M 293.675781 447.785156 "/>
<path style=" stroke:none;fill-rule:nonzero;fill:rgb(80.392157%,58.431373%,4.705882%);fill-opacity:1;" d="M 142.476563 478.800781 L 142.191406 480.597656 L 141.367188 482.21875 L 140.078125 483.503906 L 138.457031 484.332031 L 137.804688 484.433594 L 134.878906 484.332031 L 134.863281 484.332031 L 133.242188 483.503906 L 131.957031 482.21875 L 131.128906 480.597656 L 130.847656 478.800781 L 131.128906 477.003906 L 131.957031 475.382813 L 133.242188 474.09375 L 134.863281 473.269531 L 136.660156 472.984375 L 138.457031 473.269531 L 140.078125 474.09375 L 141.367188 475.382813 L 142.191406 477.003906 Z M 142.476563 478.800781 "/>
<path style=" stroke:none;fill-rule:nonzero;fill:rgb(80.392157%,58.431373%,4.705882%);fill-opacity:1;" d="M 262.660156 378 L 262.375 379.796875 L 261.550781 381.417969 L 260.265625 382.703125 L 258.644531 383.53125 L 256.847656 383.816406 L 255.050781 383.53125 L 253.429688 382.703125 L 252.140625 381.417969 L 251.316406 379.796875 L 251.03125 378 L 251.316406 376.203125 L 252.140625 374.582031 L 253.429688 373.296875 L 255.050781 372.46875 L 256.847656 372.183594 L 258.644531 372.46875 L 260.265625 373.296875 L 260.984375 374.015625 L 260.601563 374.816406 L 261.558594 374.601563 L 262.375 376.203125 Z M 262.660156 378 "/>
<path style=" stroke:none;fill-rule:nonzero;fill:rgb(80.392157%,58.431373%,4.705882%);fill-opacity:1;" d="M 161.863281 451.660156 L 161.578125 453.457031 L 160.75 455.078125 L 159.464844 456.367188 L 157.84375 457.191406 L 156.046875 457.476563 L 154.25 457.191406 L 152.628906 456.367188 L 151.339844 455.078125 L 150.515625 453.457031 L 150.230469 451.660156 L 150.515625 449.863281 L 151.339844 448.242188 L 152.628906 446.957031 L 153.566406 446.476563 L 157.421875 446.269531 L 157.894531 446.15625 L 159.464844 446.957031 L 160.75 448.242188 L 161.578125 449.863281 Z M 161.863281 451.660156 "/>
<path style=" stroke:none;fill-rule:nonzero;fill:rgb(80.392157%,58.431373%,4.705882%);fill-opacity:1;" d="M 146.355469 478.800781 L 146.070313 480.597656 L 145.242188 482.21875 L 144.640625 482.820313 L 142.796875 482.960938 L 141.527344 483.375 L 140.734375 484.175781 L 139.910156 484.507813 L 139.84375 484.503906 L 138.742188 484.332031 L 137.121094 483.503906 L 135.832031 482.21875 L 135.007813 480.597656 L 134.722656 478.800781 L 135.007813 477.003906 L 135.832031 475.382813 L 137.121094 474.09375 L 138.742188 473.269531 L 140.539063 472.984375 L 142.335938 473.269531 L 143.957031 474.09375 L 145.242188 475.382813 L 146.070313 477.003906 Z M 146.355469 478.800781 "/>
<path style=" stroke:none;fill-rule:nonzero;fill:rgb(80.392157%,58.431373%,4.705882%);fill-opacity:1;" d="M 235.523438 304.339844 L 235.238281 306.136719 L 234.414063 307.757813 L 233.125 309.042969 L 231.503906 309.871094 L 229.707031 310.152344 L 227.910156 309.871094 L 226.289063 309.042969 L 225.003906 307.757813 L 224.175781 306.136719 L 223.890625 304.339844 L 224.175781 302.542969 L 225.003906 300.921875 L 226.289063 299.632813 L 227.910156 298.808594 L 229.007813 298.632813 L 229.304688 299.0625 L 234.765625 301.609375 L 235.238281 302.542969 Z M 235.523438 304.339844 "/>
<path style=" stroke:none;fill-rule:nonzero;fill:rgb(80.392157%,58.431373%,4.705882%);fill-opacity:1;" d="M 298.386719 449.546875 L 297.695313 449.4375 L 296.074219 448.613281 L 294.789063 447.324219 L 293.960938 445.703125 L 293.675781 443.90625 L 293.960938 442.109375 L 294.789063 440.488281 L 296.074219 439.203125 L 297.695313 438.375 L 299.492188 438.09375 L 299.957031 438.164063 L 300.988281 440.148438 L 300.773438 446.324219 L 300.335938 447.820313 L 299.394531 449.050781 Z M 298.386719 449.546875 "/>
<path style=" stroke:none;fill-rule:nonzero;fill:rgb(80.392157%,58.431373%,4.705882%);fill-opacity:1;" d="M 192.875 323.722656 L 192.59375 325.519531 L 191.765625 327.140625 L 190.480469 328.429688 L 188.859375 329.253906 L 187.0625 329.539063 L 185.265625 329.253906 L 184.777344 329.007813 L 187.28125 323.421875 L 187.71875 320.933594 L 187.835938 318.03125 L 188.859375 318.191406 L 190.480469 319.019531 L 191.765625 320.304688 L 192.59375 321.925781 Z M 181.480469 322.242188 L 181.53125 321.925781 L 182.355469 320.304688 L 183.644531 319.019531 L 185.265625 318.191406 L 187.0625 317.90625 L 187.375 317.957031 L 184.742188 320.527344 Z M 181.480469 322.242188 "/>
<path style=" stroke:none;fill-rule:nonzero;fill:rgb(80.392157%,58.431373%,4.705882%);fill-opacity:1;" d="M 219.859375 274.980469 L 218.078125 275.261719 L 216.28125 274.976563 L 214.660156 274.152344 L 213.371094 272.863281 L 212.546875 271.242188 L 212.261719 269.445313 L 212.546875 267.648438 L 213.371094 266.027344 L 214.660156 264.742188 L 216.28125 263.914063 L 218.078125 263.628906 L 218.726563 263.734375 L 218.894531 265.933594 L 218.261719 267.402344 Z M 219.859375 274.980469 "/>
<path style=" stroke:none;fill-rule:nonzero;fill:rgb(80.392157%,58.431373%,4.705882%);fill-opacity:1;" d="M 189 168.644531 L 188.714844 170.441406 L 187.890625 172.0625 L 186.601563 173.351563 L 184.980469 174.175781 L 183.183594 174.460938 L 181.386719 174.175781 L 179.765625 173.351563 L 178.480469 172.0625 L 177.652344 170.441406 L 177.371094 168.644531 L 177.652344 166.847656 L 177.953125 166.257813 L 178.648438 166.167969 L 179.285156 167.089844 L 180.148438 167.667969 L 184.320313 169.011719 L 187.675781 167.128906 L 188.789063 167.308594 Z M 189 168.644531 "/>
<path style=" stroke:none;fill-rule:nonzero;fill:rgb(80.392157%,58.431373%,4.705882%);fill-opacity:1;" d="M 189 440.03125 L 188.714844 441.828125 L 187.890625 443.449219 L 186.601563 444.734375 L 184.980469 445.5625 L 183.183594 445.847656 L 181.386719 445.5625 L 181.117188 445.425781 L 181.210938 443.15625 L 182.519531 440.25 L 187.101563 435.824219 L 187.890625 436.613281 L 188.714844 438.234375 Z M 189 440.03125 "/>
</g>
</svg>
