<?xml version="1.0" encoding="UTF-8"?>
<svg xmlns="http://www.w3.org/2000/svg" xmlns:xlink="http://www.w3.org/1999/xlink" width="378pt" height="504pt" viewBox="0 0 378 504" version="1.1">
<g id="data">
<rect x="0" y="0" width="378" height="504" style="fill:rgb(100%,100%,100%);fill-opacity:1;stroke:none;"/>
<path style=" stroke:none;fill-rule:nonzero;fill:rgb(100%,100%,100%);fill-opacity:1;" d="M 53.308594 504 L 324.691406 504 L 324.691406 0 L 53.308594 0 Z M 53.308594 504 "/>
<path style=" stroke:none;fill-rule:nonzero;fill:rgb(22.745098%,53.333333%,16.078431%);fill-opacity:1;" d="M 295.808594 372.347656 L 295.933594 373.679688 L 297.242188 376.867188 L 299.917969 379.949219 L 303.371094 381.875 L 303.742188 384 L 304.558594 386.128906 L 305.773438 388.058594 L 307.066406 389.4375 L 307.179688 391.25 L 306.777344 393.191406 L 306.882813 393.925781 L 304.820313 396.289063 L 303.417969 399.566406 L 303.054688 402.351563 L 303.371094 405.136719 L 301.199219 406.84375 L 299.492188 409.015625 L 296.730469 407.164063 L 293.429688 406.152344 L 289.980469 406.152344 L 286.796875 407.109375 L 284.207031 408.761719 L 282.144531 411.03125 L 280.742188 413.765625 L 280.109375 416.769531 L 276.425781 416.496094 L 272.960938 417.339844 L 270.015625 419.113281 L 267.03125 422.277344 L 265.757813 424.503906 L 264.980469 427.078125 L 264.8125 429.761719 L 265.265625 432.414063 L 266.320313 434.890625 L 267.910156 437.058594 L 269.960938 438.804688 L 272.355469 440.03125 L 268.417969 439.78125 L 264.625 440.863281 L 261.5 443.0625 L 258.992188 446.453125 L 257.941406 449.613281 L 257.820313 452.816406 L 258.773438 456.40625 L 260.722656 459.414063 L 260.722656 463.292969 L 249.09375 463.292969 L 246.433594 462.976563 L 243.523438 463.339844 L 240.242188 464.742188 L 238.429688 466.324219 L 238.210938 466.1875 L 238.632813 465.4375 L 239.46875 464.933594 L 237.714844 463.296875 L 231.496094 463.171875 L 231.378906 463.496094 L 232.574219 464.835938 L 232.214844 465.75 L 231.738281 466.042969 L 226.691406 465.496094 L 225.769531 465.882813 L 223.886719 464.652344 L 221.09375 463.714844 L 218.15625 463.507813 L 215.261719 464.042969 L 212.59375 465.292969 L 210.324219 467.167969 L 208.617188 465 L 206.445313 463.292969 L 208.117188 460.863281 L 209.125 458.089844 L 209.402344 455.152344 L 208.929688 452.242188 L 208.117188 450.214844 L 206.445313 447.785156 L 205.308594 445.207031 L 203.027344 442.453125 L 201.269531 441.167969 L 198.691406 440.03125 L 195.800781 438.132813 L 193.613281 437.382813 L 191.324219 437.074219 L 188.890625 437.25 L 186.667969 437.882813 L 183.183594 440.03125 L 182.46875 440.355469 L 182.519531 440.25 L 190.867188 432.195313 L 195.792969 425.3125 L 197.929688 424.472656 L 198.285156 423.78125 L 198.070313 423.238281 L 197.8125 423.082031 L 196.09375 424.355469 L 192.90625 427.300781 L 191.511719 428.90625 L 192.019531 426.765625 L 191.90625 423.695313 L 189.964844 416.851563 L 188.6875 414.667969 L 187.0625 412.890625 L 187.726563 409.015625 L 187.0625 405.136719 L 190.1875 404.460938 L 193.109375 402.878906 L 195.390625 400.636719 L 196.976563 397.859375 L 197.757813 394.628906 L 197.613281 391.433594 L 196.609375 388.398438 L 194.816406 385.753906 L 197.691406 386.691406 L 200.710938 386.855469 L 202.570313 389.628906 L 202.046875 393.4375 L 202.746094 397.085938 L 204.25 399.917969 L 206.371094 402.148438 L 208.882813 403.695313 L 211.832031 404.578125 L 214.78125 404.671875 L 217.660156 404.019531 L 219.851563 402.949219 L 221.953125 401.261719 L 223.914063 400.308594 L 225.757813 398.921875 L 227.792969 396.453125 L 229.074219 393.523438 L 229.507813 390.609375 L 229.199219 387.679688 L 227.910156 384.476563 L 225.832031 381.875 L 225.71875 379.472656 L 225.113281 377.144531 L 227.351563 377.691406 L 229.648438 377.785156 L 231.921875 377.421875 L 234.082031 376.621094 L 237.460938 374.125 L 239.546875 373.148438 L 241.304688 371.867188 L 243.023438 369.972656 L 244.335938 367.628906 L 245.058594 365.171875 L 245.886719 358.707031 L 245.539063 355.773438 L 244.464844 353.023438 L 241.996094 349.914063 L 238.625 347.816406 L 235.386719 347.019531 L 229.707031 346.984375 L 230.34375 344.761719 L 230.527344 342.582031 L 230.273438 340.285156 L 229.570313 338.082031 L 228.296875 335.847656 L 226.5625 333.953125 L 224.457031 332.484375 L 221.953125 331.476563 L 222.257813 328.304688 L 221.652344 325.046875 L 220.222656 322.199219 L 218.078125 319.847656 L 218.078125 315.96875 L 220.246094 314.261719 L 221.953125 312.09375 L 224.511719 310.964844 L 226.8125 309.175781 L 228.535156 306.972656 L 229.679688 304.425781 L 229.1875 308.242188 L 229.964844 312.007813 L 231.929688 315.316406 L 234.867188 317.800781 L 238.453125 319.191406 L 242.296875 319.339844 L 245.976563 318.222656 L 249.09375 315.96875 L 249.09375 319.847656 L 246.054688 322.78125 L 244.265625 326.609375 L 243.898438 329.925781 L 244.527344 333.328125 L 246.523438 336.910156 L 248.667969 338.878906 L 245.550781 339.511719 L 244.589844 338.644531 L 243.40625 338.558594 L 241.210938 339.871094 L 241.886719 340.445313 L 246.324219 340.394531 L 249.285156 339.449219 L 250.566406 340.625 L 253.519531 342.332031 L 254.363281 342.527344 L 254.382813 342.558594 L 256.203125 344.054688 L 255.050781 345.753906 L 254.023438 348.914063 L 253.933594 352.238281 L 254.734375 355.332031 L 256.347656 358.09375 L 258.652344 360.308594 L 261.476563 361.8125 L 264.601563 362.492188 L 265.621094 366.445313 L 266.488281 367.699219 L 264.953125 369.09375 L 261.394531 373.164063 L 260.601563 374.816406 L 262.84375 374.3125 L 264.9375 375.519531 L 266.9375 378.226563 L 270.21875 378.804688 L 270.625 378.746094 L 271.910156 376.796875 L 272.234375 374.960938 L 273.078125 372.765625 L 273.714844 372.96875 L 276.003906 373.238281 L 278.175781 373.070313 L 280.277344 372.5 L 282.238281 371.546875 L 283.683594 370.46875 L 284.253906 370.867188 L 285.355469 370.8125 L 286.820313 371.417969 L 289.734375 371.804688 L 292.78125 371.417969 L 292.828125 371.398438 L 293.949219 371.515625 Z M 225.832031 412.890625 L 225.523438 415.167969 L 225.667969 417.460938 L 226.261719 419.683594 L 227.214844 421.632813 L 228.597656 423.46875 L 230.859375 425.546875 L 232.703125 426.71875 L 234.859375 427.558594 L 237.136719 427.957031 L 239.320313 427.910156 L 241.578125 427.421875 L 243.695313 426.492188 L 245.585938 425.164063 L 247.097656 423.585938 L 248.351563 421.644531 L 249.191406 419.488281 L 249.578125 417.339844 L 249.558594 415.15625 L 248.808594 410.339844 L 247.917969 407.796875 L 246.625 405.726563 L 244.925781 403.972656 L 242.902344 402.613281 L 240.636719 401.703125 L 237.976563 401.273438 L 235.289063 401.464844 L 232.714844 402.273438 L 230.398438 403.652344 L 228.460938 405.527344 L 227.007813 407.796875 L 226.144531 410.214844 Z M 233.082031 468.460938 L 232.761719 468.59375 L 229.707031 471.046875 L 228.335938 468.441406 L 226.742188 466.691406 L 227.316406 466.367188 L 232.550781 467.761719 Z M 177.214844 437.773438 L 175.429688 436.152344 L 177.390625 436.847656 Z M 198.691406 257.816406 L 200.6875 258.703125 L 202.8125 259.203125 L 204.996094 259.296875 L 207.15625 258.980469 L 209.21875 258.265625 L 211.113281 257.175781 L 212.367188 256.097656 L 212.824219 256.707031 L 213.265625 256.828125 L 213.433594 256.585938 L 213.894531 256.789063 L 214.246094 259.507813 L 215.71875 262.894531 L 218.078125 265.570313 L 218.078125 269.445313 L 216.097656 267.011719 L 211.199219 263.007813 L 209.238281 262.078125 L 207.011719 261.511719 L 204.71875 261.390625 L 202.570313 261.691406 L 200.863281 259.523438 Z M 175.429688 238.429688 L 176.097656 234.554688 L 175.429688 230.675781 L 178.601563 230.980469 L 181.738281 230.414063 L 184.601563 229.019531 L 187.0625 226.800781 L 186.9375 229.679688 L 187.417969 232.296875 L 187.070313 232.078125 L 185.40625 232.042969 L 181.046875 235.800781 L 180.578125 237.003906 L 176.460938 239.203125 Z M 190.8125 238.285156 L 190.9375 238.429688 L 188.84375 241.734375 L 187.964844 245.546875 L 185.480469 245.625 L 183.183594 246.183594 L 181.476563 244.015625 L 179.308594 242.308594 L 179.203125 242.179688 L 182.921875 243.167969 L 186.398438 241.730469 L 187.519531 239.417969 L 188.617188 238.355469 L 189.539063 238.171875 Z M 140.539063 478.800781 L 136.660156 478.800781 L 139.050781 477.855469 L 141.171875 476.410156 L 142.925781 474.53125 L 144.277344 472.195313 L 144.953125 470.117188 L 145.230469 467.824219 L 145.050781 465.515625 L 144.414063 463.292969 L 146.5625 460.9375 L 147.992188 458.089844 L 148.589844 454.960938 L 148.375 452.550781 L 148.429688 452.488281 L 148.375 451.660156 L 156.046875 451.660156 L 156.992188 453.617188 L 158.289063 455.363281 L 159.882813 456.835938 L 161.84375 458.042969 L 163.875 458.808594 L 166.015625 459.183594 L 168.1875 459.152344 L 170.316406 458.71875 L 168.320313 461.640625 L 166.8125 465.148438 L 166.265625 467.257813 L 166.308594 471.210938 L 167.675781 474.921875 L 165.5 472.398438 L 162.8125 470.652344 L 159.621094 469.683594 L 156.289063 469.660156 L 154.164063 470.160156 L 152.167969 471.046875 L 148.363281 471.460938 L 145.65625 472.609375 L 142.546875 475.246094 Z M 109.523438 490.429688 L 110.421875 492.464844 L 110.375 492.488281 L 110.242188 494.183594 L 109.84375 494.644531 L 109.523438 494.308594 L 109.433594 493.6875 Z M 236.835938 466.113281 L 235.136719 465.644531 L 236.523438 463.683594 L 237.195313 464.164063 L 237.5 465.839844 Z M 236.835938 466.113281 "/>
</g>
</svg>
