<?xml version="1.0" encoding="UTF-8"?>
<svg xmlns="http://www.w3.org/2000/svg" xmlns:xlink="http://www.w3.org/1999/xlink" width="378pt" height="504pt" viewBox="0 0 378 504" version="1.1">
<g id="data">
<rect x="0" y="0" width="378" height="504" style="fill:rgb(100%,100%,100%);fill-opacity:1;stroke:none;"/>
<path style=" stroke:none;fill-rule:nonzero;fill:rgb(100%,100%,100%);fill-opacity:1;" d="M 53.308594 504 L 324.691406 504 L 324.691406 0 L 53.308594 0 Z M 53.308594 504 "/>
<path style=" stroke:none;fill-rule:nonzero;fill:rgb(22.745098%,53.333333%,16.078431%);fill-opacity:1;" d="M 296.125 374.371094 L 297.207031 376.808594 L 298.902344 379.027344 L 300.972656 380.710938 L 303.371094 381.875 L 304.980469 383.511719 L 306.355469 385.664063 L 306.929688 387.261719 L 307.179688 391.25 L 306.777344 393.191406 L 306.882813 393.925781 L 304.820313 396.289063 L 303.355469 399.816406 L 303.054688 402.476563 L 303.371094 405.136719 L 301.199219 406.84375 L 299.492188 409.015625 L 297.785156 406.84375 L 294.175781 403.6875 L 290.894531 401.738281 L 287.792969 401 L 283.984375 401.261719 L 280.996094 400.515625 L 278.042969 400.5625 L 274.84375 401.503906 L 272.046875 403.316406 L 269.804688 405.957031 L 268.476563 409.015625 L 266.8125 410.304688 L 268.3125 406.402344 L 268.636719 403.515625 L 268.476563 401.261719 L 270.824219 399.375 L 273.230469 396.277344 L 274.40625 394.140625 L 275.109375 391.804688 L 275.304688 389.117188 L 274.875 386.457031 L 273.84375 383.96875 L 272.355469 381.875 L 276.230469 381.875 L 278.992188 383.949219 L 282.367188 385.140625 L 285.308594 385.3125 L 288.074219 384.78125 L 291.167969 383.25 L 293.753906 380.773438 L 295.417969 377.75 Z M 263.125 418.144531 L 260.777344 415.210938 L 262.914063 414.195313 L 264.800781 412.769531 L 263.613281 415.414063 Z M 225.113281 377.144531 L 227.976563 377.761719 L 231.03125 377.621094 L 233.941406 376.691406 L 236.410156 375.113281 L 234.695313 377.480469 L 233.625 380.203125 L 233.269531 382.976563 L 233.585938 385.753906 L 232.414063 388.738281 L 232.097656 391.929688 L 232.519531 394.589844 L 233.605469 397.195313 L 235.285156 399.464844 L 237.460938 401.261719 L 234.285156 401.703125 L 231.460938 402.929688 L 228.96875 404.945313 L 227.121094 407.566406 L 226.0625 410.589844 L 225.515625 415.550781 L 225.910156 418.585938 L 227.019531 421.300781 L 229.042969 423.925781 L 232.347656 426.527344 L 235.445313 427.707031 L 238.875 427.953125 L 239.871094 430.25 L 241.339844 432.277344 L 241.890625 435.039063 L 243.023438 437.476563 L 244.960938 439.859375 L 247.339844 441.589844 L 250.703125 442.808594 L 254.28125 442.945313 L 257.730469 441.988281 L 260.722656 440.03125 L 260.722656 443.90625 L 258.527344 447.511719 L 257.761719 451.660156 L 258.527344 455.8125 L 260.722656 459.414063 L 260.722656 463.292969 L 257.355469 462.636719 L 255.195313 462.746094 L 252.96875 463.292969 L 249.09375 463.292969 L 245.085938 462.628906 L 239.460938 463.601563 L 238.441406 463.972656 L 237.714844 463.296875 L 231.496094 463.171875 L 231.378906 463.496094 L 232.574219 464.835938 L 232.214844 465.75 L 231.738281 466.042969 L 226.691406 465.496094 L 225.765625 465.882813 L 224.113281 464.765625 L 221.46875 463.792969 L 218.664063 463.488281 L 215.871094 463.867188 L 213.140625 464.964844 L 210.863281 466.628906 L 212.527344 464.351563 L 213.625 461.621094 L 214.003906 458.828125 L 213.699219 456.023438 L 212.726563 453.378906 L 211.148438 451.042969 L 208.949219 449.085938 L 206.445313 447.785156 L 209.132813 446.582031 L 211.519531 444.648438 L 213.253906 442.273438 L 214.460938 439.304688 L 214.992188 436.53125 L 214.859375 433.835938 L 214.0625 431.125 L 212.632813 428.6875 L 210.859375 426.832031 L 208.722656 425.410156 L 205.710938 424.289063 L 203.179688 423.867188 L 200.617188 424.011719 L 198.152344 424.714844 L 195.792969 426.015625 L 194.386719 427.273438 L 195.792969 425.3125 L 197.929688 424.472656 L 198.285156 423.78125 L 198.070313 423.238281 L 197.8125 423.082031 L 196.09375 424.355469 L 193.625 426.636719 L 192.984375 423.878906 L 190.9375 420.644531 L 194.261719 420.359375 L 197.476563 419.078125 L 200.085938 417 L 202 414.265625 L 202.863281 411.980469 L 203.230469 409.566406 L 203.105469 407.257813 L 202.570313 405.136719 L 203.230469 401.515625 L 202.707031 396.972656 L 204.332031 400.027344 L 206.886719 402.542969 L 209.964844 404.121094 L 213.371094 404.722656 L 216.308594 404.421875 L 219.070313 403.398438 L 221.953125 401.261719 L 224.769531 399.738281 L 227.0625 397.507813 L 228.234375 395.667969 L 229.074219 393.523438 L 229.46875 391.378906 L 229.453125 389.199219 L 228.277344 385.152344 L 225.832031 381.875 L 225.71875 379.472656 Z M 245.214844 451.660156 L 245.910156 449.054688 L 245.988281 446.359375 L 245.445313 443.71875 L 244.238281 441.164063 L 242.902344 439.4375 L 241.265625 437.984375 L 237.460938 436.152344 L 234 433.734375 L 231.8125 432.992188 L 229.648438 432.699219 L 227.339844 432.835938 L 225.105469 433.425781 L 223.140625 434.378906 L 221.292969 435.769531 L 219.757813 437.5 L 218.597656 439.496094 L 217.796875 441.9375 L 217.550781 444.363281 L 218.671875 451.453125 L 219.679688 453.675781 L 221.042969 455.542969 L 222.851563 457.179688 L 224.84375 458.351563 L 227.15625 459.132813 L 232.824219 460.175781 L 235.265625 460.164063 L 237.648438 459.644531 L 240.203125 458.4375 L 242.480469 456.558594 L 244.148438 454.277344 Z M 237.242188 464.410156 L 237.199219 464.425781 L 235.257813 465.617188 L 235.207031 465.664063 L 235.136719 465.644531 L 236.523438 463.683594 L 237.195313 464.164063 Z M 232.617188 467.847656 L 231.503906 468.789063 L 229.707031 471.046875 L 228.335938 468.441406 L 226.753906 466.683594 L 227.316406 466.367188 L 232.550781 467.761719 Z M 244.867188 338.894531 L 245.070313 337.964844 L 245.210938 339.207031 Z M 178.9375 236.324219 L 180.21875 237.195313 L 179.15625 237.761719 Z M 187.824219 239.125 L 190.027344 238.75 L 187.78125 239.941406 L 186.898438 240.699219 L 187.519531 239.417969 Z M 185.429688 242.132813 L 184.183594 243.84375 L 183.183594 246.183594 L 181.476563 244.015625 L 179.308594 242.308594 L 179.3125 242.207031 L 182.921875 243.167969 Z M 185.429688 242.132813 "/>
<path style=" stroke:none;fill-rule:nonzero;fill:rgb(80.392157%,58.431373%,4.705882%);fill-opacity:1;" d="M 235.523438 346.984375 L 235.238281 348.78125 L 234.414063 350.402344 L 233.125 351.6875 L 231.503906 352.515625 L 229.707031 352.800781 L 227.910156 352.515625 L 226.289063 351.6875 L 225.003906 350.402344 L 224.175781 348.78125 L 223.890625 346.984375 L 224.175781 345.1875 L 225.003906 343.566406 L 226.289063 342.28125 L 227.910156 341.453125 L 229.707031 341.167969 L 231.503906 341.453125 L 233.125 342.28125 L 234.414063 343.566406 L 235.238281 345.1875 Z M 235.523438 346.984375 "/>
<path style=" stroke:none;fill-rule:nonzero;fill:rgb(80.392157%,58.431373%,4.705882%);fill-opacity:1;" d="M 247.152344 323.722656 L 246.871094 325.519531 L 246.042969 327.140625 L 244.757813 328.429688 L 243.136719 329.253906 L 241.339844 329.539063 L 239.542969 329.253906 L 237.921875 328.429688 L 236.632813 327.140625 L 235.808594 325.519531 L 235.523438 323.722656 L 235.808594 321.925781 L 236.632813 320.304688 L 237.921875 319.019531 L 239.542969 318.191406 L 241.339844 317.90625 L 243.136719 318.191406 L 244.757813 319.019531 L 246.042969 320.304688 L 246.871094 321.925781 Z M 247.152344 323.722656 "/>
<path style=" stroke:none;fill-rule:nonzero;fill:rgb(80.392157%,58.431373%,4.705882%);fill-opacity:1;" d="M 227.769531 331.476563 L 227.484375 333.273438 L 226.660156 334.894531 L 225.371094 336.183594 L 223.75 337.007813 L 221.953125 337.292969 L 220.15625 337.007813 L 218.535156 336.183594 L 217.25 334.894531 L 216.421875 333.273438 L 216.136719 331.476563 L 216.421875 329.679688 L 217.25 328.058594 L 218.535156 326.773438 L 220.15625 325.945313 L 221.953125 325.660156 L 223.75 325.945313 L 225.371094 326.773438 L 226.660156 328.058594 L 227.484375 329.679688 Z M 227.769531 331.476563 "/>
<path style=" stroke:none;fill-rule:nonzero;fill:rgb(80.392157%,58.431373%,4.705882%);fill-opacity:1;" d="M 223.890625 370.246094 L 223.609375 372.042969 L 222.78125 373.664063 L 221.496094 374.949219 L 219.875 375.777344 L 218.078125 376.0625 L 216.28125 375.777344 L 214.660156 374.949219 L 213.371094 373.664063 L 212.546875 372.042969 L 212.261719 370.246094 L 212.546875 368.449219 L 213.371094 366.828125 L 214.660156 365.542969 L 216.28125 364.714844 L 218.078125 364.429688 L 219.875 364.714844 L 221.496094 365.542969 L 222.78125 366.828125 L 223.609375 368.449219 Z M 223.890625 370.246094 "/>
<path style=" stroke:none;fill-rule:nonzero;fill:rgb(80.392157%,58.431373%,4.705882%);fill-opacity:1;" d="M 208.382813 389.628906 L 208.101563 391.429688 L 207.273438 393.050781 L 205.988281 394.335938 L 204.367188 395.160156 L 202.570313 395.445313 L 200.773438 395.160156 L 199.152344 394.335938 L 197.863281 393.050781 L 197.039063 391.429688 L 196.753906 389.628906 L 197.039063 387.832031 L 197.863281 386.210938 L 199.152344 384.925781 L 200.773438 384.101563 L 202.570313 383.816406 L 204.367188 384.101563 L 205.988281 384.925781 L 207.273438 386.210938 L 208.101563 387.832031 Z M 208.382813 389.628906 "/>
<path style=" stroke:none;fill-rule:nonzero;fill:rgb(80.392157%,58.431373%,4.705882%);fill-opacity:1;" d="M 254.90625 412.890625 L 254.625 414.6875 L 253.796875 416.308594 L 252.511719 417.597656 L 250.890625 418.421875 L 249.09375 418.707031 L 247.296875 418.421875 L 245.675781 417.597656 L 244.386719 416.308594 L 243.5625 414.6875 L 243.277344 412.890625 L 243.5625 411.09375 L 244.386719 409.472656 L 245.675781 408.1875 L 247.296875 407.363281 L 249.09375 407.078125 L 250.890625 407.363281 L 252.511719 408.1875 L 253.796875 409.472656 L 254.625 411.09375 Z M 254.90625 412.890625 "/>
<path style=" stroke:none;fill-rule:nonzero;fill:rgb(80.392157%,58.431373%,4.705882%);fill-opacity:1;" d="M 157.984375 471.046875 L 157.699219 472.84375 L 156.875 474.464844 L 155.585938 475.75 L 153.964844 476.578125 L 152.167969 476.863281 L 150.371094 476.578125 L 148.75 475.75 L 147.464844 474.464844 L 146.636719 472.84375 L 146.355469 471.046875 L 146.636719 469.25 L 147.464844 467.628906 L 148.75 466.339844 L 150.371094 465.515625 L 152.167969 465.230469 L 153.964844 465.515625 L 155.585938 466.339844 L 156.875 467.628906 L 157.699219 469.25 Z M 157.984375 471.046875 "/>
<path style=" stroke:none;fill-rule:nonzero;fill:rgb(80.392157%,58.431373%,4.705882%);fill-opacity:1;" d="M 181.246094 230.675781 L 180.960938 232.472656 L 180.136719 234.09375 L 178.847656 235.382813 L 177.226563 236.207031 L 175.429688 236.492188 L 173.632813 236.207031 L 172.011719 235.382813 L 170.726563 234.09375 L 169.898438 232.472656 L 169.617188 230.675781 L 169.898438 228.878906 L 170.726563 227.257813 L 172.011719 225.972656 L 173.632813 225.144531 L 175.429688 224.863281 L 177.226563 225.144531 L 178.847656 225.972656 L 180.136719 227.257813 L 180.960938 228.878906 Z M 181.246094 230.675781 "/>
<path style=" stroke:none;fill-rule:nonzero;fill:rgb(80.392157%,58.431373%,4.705882%);fill-opacity:1;" d="M 270.414063 424.523438 L 270.128906 426.320313 L 269.304688 427.941406 L 268.019531 429.226563 L 266.398438 430.054688 L 264.601563 430.339844 L 262.804688 430.054688 L 261.183594 429.226563 L 259.894531 427.941406 L 259.070313 426.320313 L 258.785156 424.523438 L 259.070313 422.726563 L 259.894531 421.105469 L 261.183594 419.816406 L 262.804688 418.992188 L 264.601563 418.707031 L 266.398438 418.992188 L 268.019531 419.816406 L 269.304688 421.105469 L 270.128906 422.726563 Z M 270.414063 424.523438 "/>
<path style=" stroke:none;fill-rule:nonzero;fill:rgb(80.392157%,58.431373%,4.705882%);fill-opacity:1;" d="M 293.675781 447.785156 L 293.390625 449.582031 L 292.566406 451.203125 L 291.28125 452.488281 L 289.660156 453.316406 L 287.863281 453.601563 L 286.066406 453.316406 L 284.441406 452.488281 L 283.15625 451.203125 L 282.332031 449.582031 L 282.046875 447.785156 L 282.332031 445.988281 L 283.15625 444.367188 L 284.441406 443.078125 L 286.066406 442.253906 L 287.863281 441.96875 L 289.660156 442.253906 L 291.28125 443.078125 L 292.566406 444.367188 L 293.390625 445.988281 Z M 293.675781 447.785156 "/>
<path style=" stroke:none;fill-rule:nonzero;fill:rgb(80.392157%,58.431373%,4.705882%);fill-opacity:1;" d="M 262.660156 378 L 262.375 379.796875 L 261.550781 381.417969 L 260.265625 382.703125 L 258.644531 383.53125 L 256.847656 383.816406 L 255.050781 383.53125 L 253.429688 382.703125 L 252.140625 381.417969 L 251.316406 379.796875 L 251.03125 378 L 251.316406 376.203125 L 252.140625 374.582031 L 253.429688 373.296875 L 255.050781 372.46875 L 256.847656 372.183594 L 258.644531 372.46875 L 260.265625 373.296875 L 260.984375 374.015625 L 260.601563 374.816406 L 261.558594 374.601563 L 262.375 376.203125 Z M 262.660156 378 "/>
<path style=" stroke:none;fill-rule:nonzero;fill:rgb(80.392157%,58.431373%,4.705882%);fill-opacity:1;" d="M 142.476563 478.800781 L 142.191406 480.597656 L 141.367188 482.21875 L 140.078125 483.503906 L 137.804688 484.433594 L 134.863281 484.332031 L 133.242188 483.503906 L 131.957031 482.21875 L 131.128906 480.597656 L 130.847656 478.800781 L 131.128906 477.003906 L 131.957031 475.382813 L 133.242188 474.09375 L 134.863281 473.269531 L 136.660156 472.984375 L 138.457031 473.269531 L 140.078125 474.09375 L 141.367188 475.382813 L 142.191406 477.003906 Z M 142.476563 478.800781 "/>
<path style=" stroke:none;fill-rule:nonzero;fill:rgb(80.392157%,58.431373%,4.705882%);fill-opacity:1;" d="M 161.863281 451.660156 L 161.578125 453.457031 L 160.75 455.078125 L 159.464844 456.367188 L 157.84375 457.191406 L 156.046875 457.476563 L 154.25 457.191406 L 152.628906 456.367188 L 151.339844 455.078125 L 150.515625 453.457031 L 150.230469 451.660156 L 150.515625 449.863281 L 151.339844 448.242188 L 152.628906 446.957031 L 153.566406 446.476563 L 157.894531 446.15625 L 159.464844 446.957031 L 160.75 448.242188 L 161.578125 449.863281 Z M 161.863281 451.660156 "/>
<path style=" stroke:none;fill-rule:nonzero;fill:rgb(80.392157%,58.431373%,4.705882%);fill-opacity:1;" d="M 146.355469 478.800781 L 146.070313 480.597656 L 144.640625 482.820313 L 141.527344 483.375 L 140.734375 484.175781 L 139.910156 484.507813 L 138.742188 484.332031 L 137.121094 483.503906 L 135.832031 482.21875 L 135.007813 480.597656 L 134.722656 478.800781 L 135.007813 477.003906 L 135.832031 475.382813 L 137.121094 474.09375 L 138.742188 473.269531 L 140.539063 472.984375 L 142.335938 473.269531 L 143.957031 474.09375 L 145.242188 475.382813 L 146.070313 477.003906 Z M 146.355469 478.800781 "/>
<path style=" stroke:none;fill-rule:nonzero;fill:rgb(80.392157%,58.431373%,4.705882%);fill-opacity:1;" d="M 235.523438 304.339844 L 235.238281 306.136719 L 234.414063 307.757813 L 233.125 309.042969 L 231.503906 309.871094 L 229.707031 310.152344 L 227.910156 309.871094 L 226.289063 309.042969 L 225.003906 307.757813 L 224.175781 306.136719 L 223.890625 304.339844 L 224.175781 302.542969 L 225.003906 300.921875 L 226.289063 299.632813 L 227.910156 298.808594 L 229.007813 298.632813 L 229.304688 299.0625 L 234.765625 301.609375 L 235.238281 302.542969 Z M 235.523438 304.339844 "/>
<path style=" stroke:none;fill-rule:nonzero;fill:rgb(80.392157%,58.431373%,4.705882%);fill-opacity:1;" d="M 196.753906 436.152344 L 196.46875 437.949219 L 195.644531 439.570313 L 194.355469 440.859375 L 192.734375 441.683594 L 190.9375 441.96875 L 189.140625 441.683594 L 187.519531 440.859375 L 186.234375 439.570313 L 185.339844 437.527344 L 190.867188 432.195313 L 192.066406 430.515625 L 194.355469 431.449219 L 195.644531 432.734375 L 196.46875 434.355469 Z M 186.289063 432.679688 L 187.519531 431.449219 L 189.140625 430.625 L 190.132813 430.464844 L 189.222656 431.449219 Z M 186.289063 432.679688 "/>
<path style=" stroke:none;fill-rule:nonzero;fill:rgb(80.392157%,58.431373%,4.705882%);fill-opacity:1;" d="M 298.386719 449.546875 L 296.074219 448.613281 L 294.789063 447.324219 L 293.960938 445.703125 L 293.675781 443.90625 L 293.960938 442.109375 L 294.789063 440.488281 L 296.074219 439.203125 L 297.695313 438.375 L 299.492188 438.09375 L 299.957031 438.164063 L 300.988281 440.148438 L 300.773438 446.324219 L 300.335938 447.820313 L 299.394531 449.050781 Z M 298.386719 449.546875 "/>
<path style=" stroke:none;fill-rule:nonzero;fill:rgb(80.392157%,58.431373%,4.705882%);fill-opacity:1;" d="M 192.875 323.722656 L 192.59375 325.519531 L 191.765625 327.140625 L 190.480469 328.429688 L 188.859375 329.253906 L 187.0625 329.539063 L 184.777344 329.007813 L 187.28125 323.421875 L 187.835938 318.03125 L 188.859375 318.191406 L 190.480469 319.019531 L 191.765625 320.304688 L 192.59375 321.925781 Z M 181.480469 322.242188 L 182.355469 320.304688 L 183.644531 319.019531 L 185.265625 318.191406 L 187.375 317.957031 L 184.742188 320.527344 Z M 181.480469 322.242188 "/>
<path style=" stroke:none;fill-rule:nonzero;fill:rgb(80.392157%,58.431373%,4.705882%);fill-opacity:1;" d="M 219.859375 274.980469 L 218.078125 275.261719 L 216.28125 274.976563 L 214.660156 274.152344 L 213.371094 272.863281 L 212.546875 271.242188 L 212.261719 269.445313 L 212.546875 267.648438 L 213.371094 266.027344 L 214.660156 264.742188 L 216.28125 263.914063 L 218.726563 263.734375 L 218.894531 265.933594 L 218.261719 267.402344 Z M 219.859375 274.980469 "/>
<path style=" stroke:none;fill-rule:nonzero;fill:rgb(80.392157%,58.431373%,4.705882%);fill-opacity:1;" d="M 189 168.644531 L 188.714844 170.441406 L 187.890625 172.0625 L 186.601563 173.351563 L 184.980469 174.175781 L 183.183594 174.460938 L 181.386719 174.175781 L 179.765625 173.351563 L 178.480469 172.0625 L 177.652344 170.441406 L 177.371094 168.644531 L 177.953125 166.257813 L 178.648438 166.167969 L 179.285156 167.089844 L 180.148438 167.667969 L 184.320313 169.011719 L 187.675781 167.128906 L 188.789063 167.308594 Z M 189 168.644531 "/>
<path style=" stroke:none;fill-rule:nonzero;fill:rgb(80.392157%,58.431373%,4.705882%);fill-opacity:1;" d="M 189 440.03125 L 188.714844 441.828125 L 187.890625 443.449219 L 186.601563 444.734375 L 184.980469 445.5625 L 183.183594 445.847656 L 181.117188 445.425781 L 181.210938 443.15625 L 182.519531 440.25 L 187.101563 435.824219 L 187.890625 436.613281 L 188.714844 438.234375 Z M 189 440.03125 "/>
</g>
</svg>
