<?xml version="1.0" encoding="UTF-8"?>
<svg xmlns="http://www.w3.org/2000/svg" xmlns:xlink="http://www.w3.org/1999/xlink" width="378pt" height="504pt" viewBox="0 0 378 504" version="1.1">
<g id="data">
<rect x="0" y="0" width="378" height="504" style="fill:rgb(100%,100%,100%);fill-opacity:1;stroke:none;"/>
<path style=" stroke:none;fill-rule:nonzero;fill:rgb(100%,100%,100%);fill-opacity:1;" d="M 53.308594 504 L 324.691406 504 L 324.691406 0 L 53.308594 0 Z M 53.308594 504 "/>
<path style=" stroke:none;fill-rule:nonzero;fill:rgb(22.745098%,53.333333%,16.078431%);fill-opacity:1;" d="M 177.238281 437.648438 L 176.238281 437.214844 L 174.925781 436.101563 L 173.996094 434.648438 L 173.535156 432.988281 L 173.582031 431.265625 L 174.128906 429.628906 L 175.132813 428.230469 L 176.503906 427.183594 L 179.019531 425.796875 L 180.242188 424.460938 L 180.992188 422.796875 L 181.277344 420.046875 L 181.796875 418.175781 L 182.90625 416.578125 L 184.476563 415.4375 L 186.335938 414.875 L 189.449219 414.484375 L 191.375 413.460938 L 192.4375 412.335938 L 193.523438 410.226563 L 194.671875 408.691406 L 196.253906 407.613281 L 198.425781 406.609375 L 199.691406 405.527344 L 200.386719 404.539063 L 201.089844 402.878906 L 201.96875 401.425781 L 203.230469 400.292969 L 204.765625 399.570313 L 206.445313 399.324219 L 221.953125 399.324219 L 223.769531 399.613281 L 225.40625 400.457031 L 226.695313 401.769531 L 227.507813 403.417969 L 227.769531 405.238281 L 227.445313 407.050781 L 226.574219 408.671875 L 224.835938 410.945313 L 224.238281 412.738281 L 224.257813 414.628906 L 224.894531 416.425781 L 226.125 417.992188 L 226.914063 418.585938 L 228.367188 419.289063 L 230.378906 420.898438 L 231.511719 422.320313 L 232.359375 423.015625 L 233.933594 423.761719 L 236.496094 424.144531 L 238.339844 424.75 L 239.882813 425.925781 L 240.378906 426.671875 L 240.621094 425.15625 L 241.402344 423.59375 L 242.609375 422.332031 L 244.582031 420.8125 L 245.539063 419.488281 L 246.113281 417.839844 L 246.175781 416.292969 L 245.621094 414.328125 L 244.484375 412.722656 L 242.851563 411.5625 L 239.832031 410.753906 L 238.144531 409.996094 L 236.777344 408.746094 L 235.574219 407.226563 L 234.746094 405.796875 L 234.347656 404.191406 L 234.421875 402.539063 L 234.957031 400.976563 L 236.15625 398.617188 L 237.171875 397.203125 L 238.453125 395.890625 L 239.050781 394.957031 L 239.488281 393.816406 L 239.65625 392.734375 L 239.421875 390.15625 L 239.425781 389.074219 L 239.660156 386.636719 L 239.480469 385.5 L 238.699219 383.777344 L 237 381.871094 L 236.027344 380.371094 L 235.558594 378.644531 L 235.636719 376.859375 L 236.253906 375.179688 L 237.347656 373.769531 L 238.824219 372.757813 L 240.535156 372.242188 L 242.320313 372.269531 L 245.214844 372.765625 L 248.109375 372.269531 L 249.917969 372.242188 L 251.644531 372.773438 L 253.125 373.8125 L 254.21875 375.253906 L 254.8125 376.960938 L 255.121094 378.65625 L 255.5 379.625 L 256.121094 380.613281 L 257.214844 381.777344 L 258.21875 383.246094 L 258.730469 384.953125 L 259.058594 387.308594 L 259.703125 388.753906 L 261.070313 390.265625 L 262.980469 391.292969 L 263.929688 391.503906 L 265.546875 391.558594 L 266.625 391.398438 L 267.71875 391.011719 L 268.703125 390.421875 L 269.550781 389.652344 L 270.230469 388.730469 L 270.960938 387.167969 L 271.992188 385.648438 L 273.445313 384.523438 L 275.175781 383.910156 L 277.011719 383.867188 L 278.769531 384.398438 L 280.273438 385.453125 L 281.375 386.921875 L 282.402344 388.871094 L 283.386719 389.949219 L 284.609375 390.75 L 285.992188 391.214844 L 287.449219 391.316406 L 288.886719 391.050781 L 290.210938 390.433594 L 291.90625 389.027344 L 293.449219 388.109375 L 295.195313 387.707031 L 296.980469 387.855469 L 298.636719 388.539063 L 300.007813 389.695313 L 302 391.992188 L 302.835938 393.257813 L 304.164063 395.988281 L 304.652344 397.484375 L 305.128906 400.085938 L 303.519531 407.832031 L 300.730469 410.761719 L 300.070313 410.925781 L 298.332031 411.097656 L 297.320313 411.402344 L 296.289063 411.949219 L 295.792969 412.355469 L 295.578125 412.011719 L 292.742188 410.515625 L 292.480469 410.636719 L 293.898438 413.703125 L 294.292969 414.285156 L 294.132813 414.585938 L 293.804688 415.703125 L 293.652344 417.316406 L 293.230469 419 L 292.332031 420.488281 L 291.253906 421.445313 L 290.003906 421.65625 L 289.660156 421.574219 L 288.214844 419.332031 L 284.976563 421.730469 L 284.957031 421.742188 L 284.46875 421.492188 L 282.898438 420.363281 L 281.816406 419.894531 L 280.535156 419.644531 L 279.34375 419.671875 L 278.179688 419.945313 L 277.003906 420.507813 L 276.074219 421.234375 L 275.304688 422.160156 L 274.558594 423.722656 L 274.183594 425.632813 L 273.863281 426.710938 L 272.929688 429.015625 L 272.78125 430.050781 L 272.90625 431.488281 L 273.898438 434.054688 L 274.015625 434.578125 L 272.609375 436.117188 L 274.253906 436.015625 L 274.292969 435.957031 L 274.433594 437.96875 L 274.808594 439.113281 L 276.128906 440.949219 L 278.082031 442.238281 L 278.871094 442.484375 L 279.691406 442.582031 L 283.0625 442.042969 L 284.800781 442.027344 L 286.460938 442.523438 L 287.902344 443.488281 L 288.996094 444.835938 L 289.644531 446.445313 L 289.785156 448.175781 L 289.414063 449.871094 L 288.554688 451.378906 L 286.847656 453.550781 L 285.871094 454.527344 L 285.574219 454.761719 L 285.5 455.328125 L 285.140625 456.726563 L 284.632813 458.011719 L 284.1875 457.9375 L 281.042969 460.90625 L 278.484375 461.933594 L 274.789063 462.777344 L 272.597656 463.816406 L 270.539063 466.589844 L 269.761719 466.949219 L 259.269531 463.777344 L 256.070313 463.507813 L 254.96875 463.71875 L 255.011719 462.191406 L 255.65625 460.4375 L 256.824219 458.980469 L 258.742188 457.242188 L 259.617188 455.773438 L 260.015625 454.125 L 259.886719 452.175781 L 259.570313 451.222656 L 259.042969 450.289063 L 258.339844 449.460938 L 257.066406 448.429688 L 255.773438 446.960938 L 255.042969 445.148438 L 254.953125 443.191406 L 255.183594 441.3125 L 255.046875 439.972656 L 254.613281 438.714844 L 253.796875 437.421875 L 251.191406 434.496094 L 249.953125 433.5625 L 248.304688 432.925781 L 245.738281 432.738281 L 244.035156 432.351563 L 242.519531 431.476563 L 241.363281 430.21875 L 241.261719 431.363281 L 240.464844 433.132813 L 239.128906 434.542969 L 237.296875 435.921875 L 236.363281 437.121094 L 235.773438 438.523438 L 235.472656 440.796875 L 234.925781 442.597656 L 233.832031 444.132813 L 232.304688 445.234375 L 230.683594 446.042969 L 229.679688 446.855469 L 228.882813 447.855469 L 228.363281 448.929688 L 228.03125 450.566406 L 228.152344 452.132813 L 228.742188 453.707031 L 230.164063 455.617188 L 231.007813 457.234375 L 231.3125 459.035156 L 231.042969 460.839844 L 230.226563 462.472656 L 228.945313 463.773438 L 227.324219 464.613281 L 225.523438 464.90625 L 223.71875 464.628906 L 222.089844 463.804688 L 220.328125 462.527344 L 218.898438 461.976563 L 217.394531 461.820313 L 215.136719 462.179688 L 213.335938 462.1875 L 211.621094 461.640625 L 210.152344 460.597656 L 209.078125 459.15625 L 208.492188 457.453125 L 208.453125 455.652344 L 208.988281 451.71875 L 208.664063 449.796875 L 207.664063 448.007813 L 206.117188 446.691406 L 204.160156 445.960938 L 202.199219 445.835938 L 201.296875 445.707031 L 199.164063 445.226563 L 198.164063 445.222656 L 197.097656 445.417969 L 196.089844 445.808594 L 195.167969 446.378906 L 193.96875 447.484375 L 192.542969 448.449219 L 191.988281 448.617188 L 192.101563 448.757813 L 192.730469 450.371094 L 192.859375 452.101563 L 192.734375 453.769531 L 192.921875 456.046875 L 193.691406 458.421875 L 194.15625 459.136719 L 194.902344 459.914063 L 195.78125 460.542969 L 197.257813 461.226563 L 198.78125 462.25 L 199.097656 462.65625 L 199.691406 462.324219 L 201.589844 461.988281 L 203.144531 461.972656 L 204.792969 461.648438 L 206.675781 461.585938 L 208.476563 462.128906 L 210.007813 463.21875 L 211.113281 464.738281 L 211.675781 466.535156 L 211.984375 468.675781 L 210.222656 468.96875 L 208.164063 468.875 L 207.273438 468.058594 L 206.238281 469.769531 L 209.429688 471.089844 L 209.714844 470.9375 L 210.1875 472.128906 L 209.566406 473.890625 L 206.84375 474.453125 L 204.453125 473.097656 L 203.015625 472.699219 L 197.6875 472.015625 L 197.464844 471.851563 L 197.363281 471.703125 L 195.796875 472.234375 L 193.125 472.695313 L 190.289063 470.589844 L 185.898438 468.519531 L 183.121094 467.984375 L 181.859375 468.914063 L 180.5 468.449219 L 179.074219 467.40625 L 178.027344 465.976563 L 177.457031 464.300781 L 177.179688 462.730469 L 176.769531 461.652344 L 176.15625 460.679688 L 175.0625 459.515625 L 174.0625 458.046875 L 173.546875 456.34375 L 173.574219 454.566406 L 174.136719 452.878906 L 175.183594 451.4375 L 176.613281 450.382813 L 178.296875 449.8125 L 179.871094 449.535156 L 180.960938 449.117188 L 181.84375 448.566406 L 183.109375 447.394531 L 184.542969 446.421875 L 185.101563 446.25 L 185.023438 446.152344 L 184.378906 444.554688 L 183.671875 441.601563 L 182.664063 440.109375 L 190.867188 432.195313 L 195.792969 425.3125 L 197.929688 424.472656 L 198.285156 423.78125 L 198.070313 423.238281 L 197.8125 423.082031 L 196.09375 424.355469 L 192.90625 427.300781 L 190.570313 429.988281 L 189.222656 431.449219 L 185.628906 432.957031 L 183.714844 433.246094 L 182.441406 433.0625 L 178.394531 435.230469 L 177.398438 436.808594 Z M 177.238281 437.648438 "/>
<path style=" stroke:none;fill-rule:nonzero;fill:rgb(80.392157%,58.431373%,4.705882%);fill-opacity:1;" d="M 208.382813 370.246094 L 208.101563 372.042969 L 207.273438 373.664063 L 205.988281 374.949219 L 204.367188 375.777344 L 202.570313 376.0625 L 200.773438 375.777344 L 199.152344 374.949219 L 197.863281 373.664063 L 197.039063 372.042969 L 196.753906 370.246094 L 197.039063 368.449219 L 197.863281 366.828125 L 199.152344 365.542969 L 200.773438 364.714844 L 202.570313 364.429688 L 204.367188 364.714844 L 205.988281 365.542969 L 207.273438 366.828125 L 208.101563 368.449219 Z M 208.382813 370.246094 "/>
<path style=" stroke:none;fill-rule:nonzero;fill:rgb(80.392157%,58.431373%,4.705882%);fill-opacity:1;" d="M 251.03125 346.984375 L 250.746094 348.78125 L 249.921875 350.402344 L 248.632813 351.6875 L 247.011719 352.515625 L 245.214844 352.800781 L 243.417969 352.515625 L 241.796875 351.6875 L 240.511719 350.402344 L 239.683594 348.78125 L 239.398438 346.984375 L 239.683594 345.1875 L 240.511719 343.566406 L 241.796875 342.28125 L 243.417969 341.453125 L 245.214844 341.167969 L 247.011719 341.453125 L 248.632813 342.28125 L 249.921875 343.566406 L 250.746094 345.1875 Z M 251.03125 346.984375 "/>
<path style=" stroke:none;fill-rule:nonzero;fill:rgb(80.392157%,58.431373%,4.705882%);fill-opacity:1;" d="M 227.769531 362.492188 L 227.484375 364.289063 L 226.660156 365.910156 L 225.371094 367.195313 L 223.75 368.023438 L 221.953125 368.308594 L 220.15625 368.023438 L 218.535156 367.195313 L 217.25 365.910156 L 216.421875 364.289063 L 216.136719 362.492188 L 216.421875 360.695313 L 217.25 359.074219 L 218.535156 357.789063 L 220.15625 356.960938 L 221.953125 356.675781 L 223.75 356.960938 L 225.371094 357.789063 L 226.660156 359.074219 L 227.484375 360.695313 Z M 227.769531 362.492188 "/>
<path style=" stroke:none;fill-rule:nonzero;fill:rgb(80.392157%,58.431373%,4.705882%);fill-opacity:1;" d="M 223.890625 292.707031 L 223.609375 294.503906 L 222.78125 296.125 L 221.496094 297.414063 L 219.875 298.238281 L 218.078125 298.523438 L 216.28125 298.238281 L 214.660156 297.414063 L 213.371094 296.125 L 212.546875 294.503906 L 212.261719 292.707031 L 212.546875 290.910156 L 213.371094 289.289063 L 214.660156 288.003906 L 216.28125 287.175781 L 218.078125 286.890625 L 219.875 287.175781 L 221.496094 288.003906 L 222.78125 289.289063 L 223.609375 290.910156 Z M 223.890625 292.707031 "/>
<path style=" stroke:none;fill-rule:nonzero;fill:rgb(80.392157%,58.431373%,4.705882%);fill-opacity:1;" d="M 181.246094 362.492188 L 180.960938 364.289063 L 180.136719 365.910156 L 178.847656 367.195313 L 177.226563 368.023438 L 175.429688 368.308594 L 173.632813 368.023438 L 172.011719 367.195313 L 170.726563 365.910156 L 169.898438 364.289063 L 169.617188 362.492188 L 169.898438 360.695313 L 170.726563 359.074219 L 172.011719 357.789063 L 173.632813 356.960938 L 175.429688 356.675781 L 176.726563 356.882813 L 179.910156 359.441406 L 180.113281 359.050781 L 180.136719 359.074219 L 180.960938 360.695313 Z M 181.246094 362.492188 "/>
<path style=" stroke:none;fill-rule:nonzero;fill:rgb(80.392157%,58.431373%,4.705882%);fill-opacity:1;" d="M 251.03125 335.355469 L 250.746094 337.152344 L 250.003906 338.609375 L 245.550781 339.511719 L 244.589844 338.644531 L 243.40625 338.558594 L 241.460938 339.722656 L 240.511719 338.773438 L 239.683594 337.152344 L 239.398438 335.355469 L 239.683594 333.558594 L 240.511719 331.9375 L 241.796875 330.648438 L 243.417969 329.824219 L 245.214844 329.539063 L 247.011719 329.824219 L 248.632813 330.648438 L 249.921875 331.9375 L 250.746094 333.558594 Z M 249.222656 339.472656 L 248.632813 340.058594 L 247.011719 340.882813 L 245.214844 341.167969 L 243.417969 340.882813 L 242.542969 340.4375 L 246.324219 340.394531 Z M 249.222656 339.472656 "/>
<path style=" stroke:none;fill-rule:nonzero;fill:rgb(80.392157%,58.431373%,4.705882%);fill-opacity:1;" d="M 134.722656 474.921875 L 134.4375 476.71875 L 133.613281 478.339844 L 132.324219 479.628906 L 130.703125 480.453125 L 128.90625 480.738281 L 127.109375 480.453125 L 125.488281 479.628906 L 124.761719 478.898438 L 125.210938 477.886719 L 124.875 476.421875 L 125.640625 474.519531 L 128.386719 473.238281 L 132.105469 472.640625 L 132.679688 471.785156 L 132.925781 470.820313 L 133.613281 471.503906 L 134.4375 473.125 Z M 134.722656 474.921875 "/>
<path style=" stroke:none;fill-rule:nonzero;fill:rgb(80.392157%,58.431373%,4.705882%);fill-opacity:1;" d="M 185.125 242.308594 L 184.839844 244.105469 L 184.011719 245.726563 L 182.726563 247.011719 L 181.105469 247.839844 L 179.308594 248.125 L 177.511719 247.839844 L 175.890625 247.011719 L 174.601563 245.726563 L 173.777344 244.105469 L 173.492188 242.308594 L 173.679688 241.125 L 178.0625 241.875 L 182.921875 243.167969 L 185.117188 242.261719 Z M 174.125 239.832031 L 174.601563 238.890625 L 175.890625 237.601563 L 177.511719 236.777344 L 179.308594 236.492188 L 180.691406 236.710938 L 180.578125 237.003906 L 174.761719 240.109375 Z M 174.125 239.832031 "/>
<path style=" stroke:none;fill-rule:nonzero;fill:rgb(80.392157%,58.431373%,4.705882%);fill-opacity:1;" d="M 233.246094 471.074219 L 232.757813 470.585938 L 231.929688 468.964844 L 231.703125 467.535156 L 232.550781 467.761719 L 234.171875 469.894531 Z M 231.832031 465.988281 L 231.929688 465.371094 L 232.339844 464.570313 L 232.574219 464.835938 L 232.214844 465.75 Z M 233.300781 463.207031 L 234.042969 462.464844 L 235.664063 461.636719 L 237.460938 461.355469 L 239.257813 461.636719 L 240.878906 462.464844 L 242.167969 463.75 L 242.992188 465.371094 L 243.128906 466.238281 L 242.703125 466.390625 L 242.113281 466.964844 L 241.902344 467.984375 L 241.359375 468.164063 L 238.210938 466.1875 L 238.632813 465.4375 L 239.46875 464.933594 L 237.714844 463.296875 Z M 236.835938 466.113281 L 235.136719 465.644531 L 236.523438 463.683594 L 237.195313 464.164063 L 237.5 465.839844 Z M 236.835938 466.113281 "/>
<path style=" stroke:none;fill-rule:nonzero;fill:rgb(80.392157%,58.431373%,4.705882%);fill-opacity:1;" d="M 192.871094 238.46875 L 192.59375 240.226563 L 191.765625 241.847656 L 190.480469 243.136719 L 188.859375 243.960938 L 187.0625 244.246094 L 185.265625 243.960938 L 183.644531 243.136719 L 183.457031 242.949219 L 186.398438 241.730469 L 187.519531 239.417969 L 188.617188 238.355469 L 189.539063 238.171875 Z M 188.203125 232.796875 L 188.566406 232.855469 L 188.34375 232.882813 Z M 188.203125 232.796875 "/>
<path style=" stroke:none;fill-rule:nonzero;fill:rgb(80.392157%,58.431373%,4.705882%);fill-opacity:1;" d="M 88.429688 500.046875 L 88.566406 499.308594 L 88.941406 499.117188 L 89.34375 499.789063 Z M 88.429688 500.046875 "/>
</g>
</svg>
