<?xml version="1.0" encoding="UTF-8"?>
<svg xmlns="http://www.w3.org/2000/svg" xmlns:xlink="http://www.w3.org/1999/xlink" width="378pt" height="504pt" viewBox="0 0 378 504" version="1.1">
<g id="data">
<rect x="0" y="0" width="378" height="504" style="fill:rgb(100%,100%,100%);fill-opacity:1;stroke:none;"/>
<path style=" stroke:none;fill-rule:nonzero;fill:rgb(100%,100%,100%);fill-opacity:1;" d="M 53.308594 504 L 324.691406 504 L 324.691406 0 L 53.308594 0 Z M 53.308594 504 "/>
<path style=" stroke:none;fill-rule:nonzero;fill:rgb(22.745098%,53.333333%,16.078431%);fill-opacity:1;" d="M 276.230469 389.628906 L 277.601563 392.238281 L 279.585938 394.414063 L 282.050781 396.023438 L 284.84375 396.964844 L 287.78125 397.171875 L 290.679688 396.632813 L 293.347656 395.386719 L 295.617188 393.507813 L 297.605469 395.800781 L 298.933594 398.53125 L 299.617188 402.257813 L 299.492188 405.136719 L 297.191406 405.367188 L 295.101563 406 L 293.058594 407.082031 L 291.269531 408.546875 L 289.804688 410.335938 L 288.722656 412.378906 L 288.089844 414.46875 L 287.863281 416.769531 L 285.78125 415.273438 L 283.550781 414.308594 L 281.035156 413.816406 L 278.601563 413.871094 L 276.113281 414.472656 L 273.925781 415.535156 L 272.007813 417.03125 L 270.367188 419 L 268.988281 421.882813 L 268.476563 424.523438 L 267.273438 427.484375 L 266.925781 429.890625 L 267.1875 432.820313 L 268.476563 436.152344 L 268.683594 439.101563 L 269.566406 441.78125 L 272.03125 445.214844 L 275.558594 447.539063 L 279.683594 448.449219 L 281.867188 448.320313 L 283.984375 447.785156 L 281.8125 449.492188 L 280.109375 451.660156 L 277.933594 451.867188 L 275.714844 452.523438 L 273.671875 453.605469 L 271.882813 455.066406 L 270.417969 456.855469 L 269.335938 458.902344 L 268.707031 460.992188 L 268.476563 463.292969 L 264.601563 462.628906 L 260.722656 463.292969 L 263.292969 460.96875 L 265.0625 457.992188 L 265.890625 454.5 L 265.640625 451.046875 L 264.960938 448.96875 L 263.910156 447.054688 L 262.421875 445.28125 L 260.722656 443.90625 L 261.039063 441.375 L 260.765625 438.710938 L 259.890625 436.179688 L 258.457031 433.914063 L 255.152344 430.199219 L 252.804688 428.433594 L 249.59375 427.1875 L 246.15625 426.9375 L 248.796875 424.90625 L 250.753906 422.203125 L 251.886719 418.933594 L 252.023438 415.605469 L 250.945313 411.785156 L 248.660156 408.550781 L 245.363281 406.214844 L 241.339844 405.136719 L 240.136719 403.617188 L 241.339844 401.261719 L 243.03125 399.523438 L 244.324219 397.476563 L 245.167969 395.203125 L 245.519531 392.800781 L 245.214844 389.628906 L 245.519531 386.460938 L 245.101563 383.8125 L 243.628906 380.566406 L 241.339844 378 L 245.214844 378.664063 L 249.09375 378 L 249.464844 380.121094 L 250.28125 382.25 L 251.496094 384.183594 L 252.96875 385.753906 L 253.410156 388.929688 L 254.773438 391.972656 L 257.433594 394.914063 L 260.933594 396.792969 L 263.1875 397.296875 L 265.882813 397.386719 L 268.03125 397.066406 L 270.203125 396.300781 L 272.183594 395.117188 L 273.886719 393.570313 L 275.253906 391.71875 Z M 179.308594 432.277344 L 182.558594 430.507813 L 185.164063 427.703125 L 186.679688 424.328125 L 187.0625 420.644531 L 191.234375 420.121094 L 194.949219 418.144531 L 197.15625 415.835938 L 198.691406 412.890625 L 201.59375 411.550781 L 204.023438 409.472656 L 205.4375 407.492188 L 206.445313 405.136719 L 221.953125 405.136719 L 219.625 408.183594 L 218.414063 411.824219 L 218.449219 415.65625 L 219.734375 419.269531 L 222.023438 422.183594 L 223.761719 423.503906 L 225.832031 424.523438 L 227.34375 426.421875 L 229.222656 427.96875 L 232.347656 429.421875 L 235.632813 429.894531 L 233.183594 431.738281 L 231.296875 434.160156 L 230.113281 436.988281 L 229.707031 440.03125 L 227.414063 441.191406 L 225.433594 442.824219 L 223.859375 444.851563 L 222.8125 447.058594 L 222.164063 450.328125 L 222.441406 453.523438 L 223.582031 456.519531 L 225.5 459.089844 L 223.125 457.375 L 220.273438 456.273438 L 217.234375 455.953125 L 214.21875 456.4375 L 214.871094 451.625 L 214.230469 447.832031 L 212.226563 444.257813 L 209.109375 441.601563 L 205.390625 440.210938 L 202.570313 440.03125 L 199.824219 439.414063 L 197.648438 439.402344 L 195.511719 439.796875 L 193.480469 440.582031 L 191.636719 441.730469 L 190.035156 443.203125 L 189.082031 439.222656 L 186.914063 436.007813 L 190.867188 432.195313 L 195.792969 425.3125 L 197.929688 424.472656 L 198.285156 423.78125 L 198.070313 423.238281 L 197.8125 423.082031 L 196.09375 424.355469 L 192.90625 427.300781 L 190.570313 429.988281 L 189.222656 431.449219 L 185.628906 432.957031 L 183.714844 433.246094 L 182.441406 433.0625 L 182.386719 433.089844 Z M 201.640625 467.800781 L 203.738281 467.785156 L 205.921875 467.355469 L 206.261719 469.738281 L 206.238281 469.769531 L 206.265625 469.78125 L 206.445313 471.046875 L 204.246094 469.121094 Z M 187.0625 451.660156 L 186.902344 453.789063 L 187.179688 457.195313 L 188.394531 460.945313 L 189.578125 462.765625 L 191.078125 464.332031 L 192.847656 465.59375 L 194.816406 466.503906 L 190.9375 467.167969 L 189.367188 465.695313 L 187.4375 464.480469 L 185.304688 463.667969 L 183.183594 463.292969 L 182.8125 461.171875 L 181.996094 459.039063 L 180.859375 457.210938 L 179.308594 455.539063 L 181.550781 455.128906 L 183.558594 454.347656 L 185.488281 453.132813 Z M 187.0625 451.660156 "/>
<path style=" stroke:none;fill-rule:nonzero;fill:rgb(80.392157%,58.431373%,4.705882%);fill-opacity:1;" d="M 208.382813 370.246094 L 208.101563 372.042969 L 207.273438 373.664063 L 205.988281 374.949219 L 204.367188 375.777344 L 202.570313 376.0625 L 200.773438 375.777344 L 199.152344 374.949219 L 197.863281 373.664063 L 197.039063 372.042969 L 196.753906 370.246094 L 197.039063 368.449219 L 197.863281 366.828125 L 199.152344 365.542969 L 200.773438 364.714844 L 202.570313 364.429688 L 204.367188 364.714844 L 205.988281 365.542969 L 207.273438 366.828125 L 208.101563 368.449219 Z M 208.382813 370.246094 "/>
<path style=" stroke:none;fill-rule:nonzero;fill:rgb(80.392157%,58.431373%,4.705882%);fill-opacity:1;" d="M 251.03125 346.984375 L 250.746094 348.78125 L 249.921875 350.402344 L 248.632813 351.6875 L 247.011719 352.515625 L 245.214844 352.800781 L 243.417969 352.515625 L 241.796875 351.6875 L 240.511719 350.402344 L 239.683594 348.78125 L 239.398438 346.984375 L 239.683594 345.1875 L 240.511719 343.566406 L 241.796875 342.28125 L 243.417969 341.453125 L 245.214844 341.167969 L 247.011719 341.453125 L 248.632813 342.28125 L 249.921875 343.566406 L 250.746094 345.1875 Z M 251.03125 346.984375 "/>
<path style=" stroke:none;fill-rule:nonzero;fill:rgb(80.392157%,58.431373%,4.705882%);fill-opacity:1;" d="M 227.769531 362.492188 L 227.484375 364.289063 L 226.660156 365.910156 L 225.371094 367.195313 L 223.75 368.023438 L 221.953125 368.308594 L 220.15625 368.023438 L 218.535156 367.195313 L 217.25 365.910156 L 216.421875 364.289063 L 216.136719 362.492188 L 216.421875 360.695313 L 217.25 359.074219 L 218.535156 357.789063 L 220.15625 356.960938 L 221.953125 356.675781 L 223.75 356.960938 L 225.371094 357.789063 L 226.660156 359.074219 L 227.484375 360.695313 Z M 227.769531 362.492188 "/>
<path style=" stroke:none;fill-rule:nonzero;fill:rgb(80.392157%,58.431373%,4.705882%);fill-opacity:1;" d="M 223.890625 292.707031 L 223.609375 294.503906 L 222.78125 296.125 L 221.496094 297.414063 L 219.875 298.238281 L 218.078125 298.523438 L 216.28125 298.238281 L 214.660156 297.414063 L 213.371094 296.125 L 212.546875 294.503906 L 212.261719 292.707031 L 212.546875 290.910156 L 213.371094 289.289063 L 214.660156 288.003906 L 216.28125 287.175781 L 218.078125 286.890625 L 219.875 287.175781 L 221.496094 288.003906 L 222.78125 289.289063 L 223.609375 290.910156 Z M 223.890625 292.707031 "/>
<path style=" stroke:none;fill-rule:nonzero;fill:rgb(80.392157%,58.431373%,4.705882%);fill-opacity:1;" d="M 181.246094 362.492188 L 180.960938 364.289063 L 180.136719 365.910156 L 178.847656 367.195313 L 177.226563 368.023438 L 175.429688 368.308594 L 173.632813 368.023438 L 172.011719 367.195313 L 170.726563 365.910156 L 169.898438 364.289063 L 169.617188 362.492188 L 169.898438 360.695313 L 170.726563 359.074219 L 172.011719 357.789063 L 173.632813 356.960938 L 175.429688 356.675781 L 176.726563 356.882813 L 179.910156 359.441406 L 180.136719 359.074219 L 180.960938 360.695313 Z M 181.246094 362.492188 "/>
<path style=" stroke:none;fill-rule:nonzero;fill:rgb(80.392157%,58.431373%,4.705882%);fill-opacity:1;" d="M 251.03125 335.355469 L 250.746094 337.152344 L 250.003906 338.609375 L 245.550781 339.511719 L 244.589844 338.644531 L 243.40625 338.558594 L 241.460938 339.722656 L 240.511719 338.773438 L 239.683594 337.152344 L 239.398438 335.355469 L 239.683594 333.558594 L 240.511719 331.9375 L 241.796875 330.648438 L 243.417969 329.824219 L 245.214844 329.539063 L 247.011719 329.824219 L 248.632813 330.648438 L 249.921875 331.9375 L 250.746094 333.558594 Z M 249.222656 339.472656 L 247.011719 340.882813 L 245.214844 341.167969 L 243.417969 340.882813 L 242.542969 340.4375 L 246.324219 340.394531 Z M 249.222656 339.472656 "/>
<path style=" stroke:none;fill-rule:nonzero;fill:rgb(80.392157%,58.431373%,4.705882%);fill-opacity:1;" d="M 134.722656 474.921875 L 134.4375 476.71875 L 133.613281 478.339844 L 132.324219 479.628906 L 130.703125 480.453125 L 128.90625 480.738281 L 127.109375 480.453125 L 125.488281 479.628906 L 124.761719 478.898438 L 125.210938 477.886719 L 124.875 476.421875 L 125.640625 474.519531 L 128.386719 473.238281 L 132.105469 472.640625 L 132.925781 470.820313 L 133.613281 471.503906 L 134.4375 473.125 Z M 134.722656 474.921875 "/>
<path style=" stroke:none;fill-rule:nonzero;fill:rgb(80.392157%,58.431373%,4.705882%);fill-opacity:1;" d="M 185.125 242.308594 L 184.839844 244.105469 L 184.011719 245.726563 L 182.726563 247.011719 L 181.105469 247.839844 L 179.308594 248.125 L 177.511719 247.839844 L 175.890625 247.011719 L 174.601563 245.726563 L 173.777344 244.105469 L 173.492188 242.308594 L 173.679688 241.125 L 178.0625 241.875 L 182.921875 243.167969 Z M 174.125 239.832031 L 174.601563 238.890625 L 175.890625 237.601563 L 177.511719 236.777344 L 179.308594 236.492188 L 180.691406 236.710938 L 180.578125 237.003906 L 174.761719 240.109375 Z M 174.125 239.832031 "/>
<path style=" stroke:none;fill-rule:nonzero;fill:rgb(80.392157%,58.431373%,4.705882%);fill-opacity:1;" d="M 233.300781 463.207031 L 234.042969 462.464844 L 235.664063 461.636719 L 237.460938 461.355469 L 239.257813 461.636719 L 240.878906 462.464844 L 242.167969 463.75 L 243.128906 466.238281 L 242.113281 466.964844 L 241.902344 467.984375 L 241.359375 468.164063 L 238.210938 466.1875 L 238.632813 465.4375 L 239.46875 464.933594 L 237.714844 463.296875 Z M 236.835938 466.113281 L 235.136719 465.644531 L 236.523438 463.683594 L 237.195313 464.164063 L 237.5 465.839844 Z M 233.246094 471.074219 L 231.929688 468.964844 L 231.703125 467.535156 L 232.550781 467.761719 L 234.171875 469.894531 Z M 231.832031 465.988281 L 232.339844 464.570313 L 232.574219 464.835938 Z M 231.832031 465.988281 "/>
<path style=" stroke:none;fill-rule:nonzero;fill:rgb(80.392157%,58.431373%,4.705882%);fill-opacity:1;" d="M 192.871094 238.46875 L 192.59375 240.226563 L 191.765625 241.847656 L 190.480469 243.136719 L 188.859375 243.960938 L 187.0625 244.246094 L 185.265625 243.960938 L 183.457031 242.949219 L 186.398438 241.730469 L 187.519531 239.417969 L 188.617188 238.355469 L 189.539063 238.171875 Z M 192.871094 238.46875 "/>
<path style=" stroke:none;fill-rule:nonzero;fill:rgb(80.392157%,58.431373%,4.705882%);fill-opacity:1;" d="M 88.429688 500.046875 L 88.566406 499.308594 L 88.941406 499.117188 L 89.34375 499.789063 Z M 88.429688 500.046875 "/>
</g>
</svg>
