<?xml version="1.0" encoding="UTF-8"?>
<svg xmlns="http://www.w3.org/2000/svg" xmlns:xlink="http://www.w3.org/1999/xlink" width="378pt" height="504pt" viewBox="0 0 378 504" version="1.1">
<g id="data">
<rect x="0" y="0" width="378" height="504" style="fill:rgb(100%,100%,100%);fill-opacity:1;stroke:none;"/>
<path style=" stroke:none;fill-rule:nonzero;fill:rgb(100%,100%,100%);fill-opacity:1;" d="M 53.308594 504 L 324.691406 504 L 324.691406 0 L 53.308594 0 Z M 53.308594 504 "/>
<path style=" stroke:none;fill-rule:nonzero;fill:rgb(22.745098%,53.333333%,16.078431%);fill-opacity:1;" d="M 99.886719 137.425781 L 101.574219 137.25 L 105.054688 135.660156 L 105.5 135.246094 L 111.003906 130.808594 L 111.84375 129.875 L 112.699219 129.875 L 113.019531 130.191406 L 113.355469 131.214844 L 113.296875 133.007813 L 113.644531 134.679688 L 112.328125 137.878906 L 110.105469 140.078125 L 109.976563 140.9375 L 109.523438 141.507813 L 105.976563 142.0625 L 102.664063 143.742188 L 100.605469 145.671875 L 99.011719 148.160156 L 97.949219 151.984375 L 97.890625 157.015625 L 97.375 159.683594 L 93.527344 162.226563 L 90.550781 158.175781 L 90.507813 157.148438 L 91.820313 157.980469 L 97.480469 154.929688 L 96.453125 153.484375 L 95.234375 152.652344 L 94.117188 152.148438 L 92.941406 152.324219 L 92.058594 151.863281 L 91.273438 150.875 L 92.699219 149.40625 L 91.421875 144.375 L 92.308594 143.679688 L 94.015625 141.507813 L 95.101563 140.613281 L 96.675781 141.359375 L 95.960938 142.378906 L 97.386719 146.128906 L 97.359375 142.890625 L 98.964844 142.257813 L 100.179688 142.804688 L 100.34375 142.296875 L 99.09375 139.5 L 98.9375 138.609375 L 99.460938 137.6875 Z M 100.480469 168.890625 L 101.113281 169.59375 L 103.09375 171.019531 L 103.222656 171.074219 L 104.785156 172.40625 L 105.550781 172.625 L 106.308594 172.195313 L 107.59375 172.472656 L 110.898438 172.519531 L 112.324219 172.285156 L 112.300781 173.941406 L 111.832031 177.386719 L 112.054688 181.640625 L 112.425781 181.863281 L 111.195313 183.863281 L 110.601563 185.957031 L 110.46875 187.421875 L 107.277344 187.777344 L 104.472656 183.015625 L 103.78125 181.25 L 105.464844 179.976563 L 107.179688 181.675781 L 107.667969 181.742188 L 107.789063 181.460938 L 102.875 176.632813 L 101.867188 177.609375 L 102.007813 179.089844 L 101.671875 179.800781 L 98.648438 178.089844 L 98.414063 176.53125 L 97.28125 175.296875 L 97.152344 174.433594 Z M 113.292969 179.734375 L 113.398438 180.277344 L 113.390625 180.292969 L 113.277344 179.863281 Z M 116.640625 198.339844 L 118.636719 199.1875 L 121.152344 199.660156 L 123.144531 201.277344 L 125.316406 202.371094 L 128.691406 203.101563 L 132.132813 202.808594 L 132.234375 205.207031 L 132.476563 206.175781 L 129.398438 209.328125 L 129.234375 209.421875 L 128.769531 209.972656 L 123.476563 215.398438 L 120.675781 217.269531 L 120.230469 216.390625 L 115.878906 214.433594 L 114.8125 213.664063 L 113.113281 211.414063 L 113.132813 210.632813 L 113.96875 210.082031 L 116.167969 209.980469 L 120.585938 209.09375 L 123.988281 209.15625 L 124.257813 209.050781 L 124.117188 208.789063 L 119.15625 207.757813 L 117.03125 209.015625 L 115.34375 209.1875 L 108.898438 208.554688 L 108.144531 207.871094 L 107.96875 206.789063 L 109.109375 205.527344 L 114.792969 204.496094 L 115.882813 205.636719 L 117.070313 206.34375 L 118.480469 204.378906 L 117.316406 203.507813 L 117.253906 202.640625 L 119.675781 202.136719 L 120.503906 202.316406 L 121.824219 201.292969 L 121.664063 200.792969 L 120.140625 199.953125 L 116.804688 200.417969 L 115.804688 199.949219 Z M 132.667969 206.953125 L 132.785156 207.414063 L 131.886719 207.921875 Z M 119.753906 230.242188 L 119.941406 230.890625 L 119.953125 231.257813 L 118.503906 231.671875 L 118.15625 231.449219 L 118.535156 230.824219 Z M 121.3125 235.609375 L 121.800781 237.28125 L 120.824219 237.742188 L 119.636719 239.75 L 119.449219 238.929688 Z M 121.984375 237.910156 L 122.121094 238.390625 L 123.488281 240.707031 L 125.253906 242.5625 L 125.75 242.878906 L 126.1875 249.699219 L 124.449219 251.558594 L 123.367188 254.191406 L 121.183594 263.964844 L 122.0625 266.289063 L 120.679688 268.164063 L 119.945313 268.597656 L 116.855469 268.910156 L 115.570313 267.277344 L 115.242188 267.019531 L 115.277344 264.699219 L 117.226563 262.640625 L 117.992188 256.269531 L 120.664063 249.058594 L 119.164063 246.890625 L 119.359375 242.367188 L 121.945313 238.054688 Z M 127.84375 244.214844 L 130.230469 244.960938 L 130.664063 246.308594 L 130.519531 246.613281 L 128.257813 245.464844 Z M 131.082031 245.140625 L 133.839844 245.25 L 134.074219 245.195313 L 134.707031 246.3125 L 135.339844 249.003906 L 135.222656 250.96875 L 134.8125 251.347656 L 132.589844 248.835938 Z M 135.117188 244.960938 L 136.363281 244.683594 L 136.15625 245.152344 Z M 138.496094 243.738281 L 138.902344 243.539063 L 141.25 241.820313 L 142.886719 242.511719 L 146.15625 243.175781 L 148.300781 243.253906 L 142.28125 240.859375 L 144.414063 238.429688 L 146.878906 237.359375 L 149.035156 235.75 L 150.898438 233.472656 L 152.167969 230.675781 L 153.699219 229.140625 L 154.980469 227.230469 L 155.898438 224.988281 L 156.339844 222.472656 L 156.046875 219.046875 L 156.707031 214.914063 L 156.046875 211.292969 L 157.59375 209.40625 L 158.714844 207.238281 L 159.359375 204.886719 L 159.496094 202.449219 L 158.980469 199.542969 L 157.753906 196.863281 L 155.886719 194.574219 L 153.507813 192.832031 L 151.011719 191.808594 L 148.476563 191.394531 L 141.042969 192.207031 L 140.539063 188.03125 L 142.925781 185.089844 L 143.933594 182.765625 L 144.414063 180.277344 L 146.261719 178.191406 L 147.5625 175.730469 L 148.863281 170.148438 L 148.78125 166.558594 L 148.097656 164.214844 L 146.9375 162.066406 L 145.355469 160.207031 L 143.53125 158.785156 L 139.984375 157.300781 L 136.660156 157.015625 L 136.199219 156.882813 L 135.242188 155.121094 L 133.609375 154.054688 L 132.75 153.265625 L 132.925781 151.890625 L 132.933594 149.90625 L 133.015625 149.894531 L 133.449219 149.351563 L 133.714844 146.386719 L 133.191406 146.265625 L 132.765625 145.421875 L 132.625 144.152344 L 132.050781 142.117188 L 132.78125 141.679688 L 135.539063 142.054688 L 138.566406 141.597656 L 137.367188 140.554688 L 136.796875 138.9375 L 138.496094 137.144531 L 140.125 133.683594 L 140.539063 129.875 L 147.703125 129.917969 L 147.992188 130.773438 L 145.957031 133.847656 L 146.042969 134.238281 L 149.632813 130.886719 L 149.777344 129.925781 L 153.421875 129.949219 L 153.609375 130.328125 L 157.023438 130.710938 L 161.097656 129.988281 L 166.429688 130.019531 L 170.851563 129.433594 L 173.867188 127.988281 L 177.664063 128.609375 L 178 127.714844 L 177.503906 127.214844 L 177.972656 125.796875 L 183.863281 126.484375 L 183.488281 127.324219 L 182.984375 129.4375 L 182.882813 131.605469 L 183.183594 133.753906 L 181.710938 135.324219 L 180.496094 137.257813 L 179.714844 139.265625 L 179.308594 141.507813 L 176.953125 142.515625 L 174.878906 144.015625 L 173.179688 145.933594 L 171.992188 148.058594 L 171.765625 148.859375 L 162.601563 156.074219 L 162.234375 157.082031 L 162.671875 158.175781 L 162.078125 159.632813 L 159.644531 160.289063 L 156.839844 159.359375 L 153.464844 157.734375 L 154.464844 159.796875 L 155.875 160.457031 L 161.363281 161.917969 L 164.042969 162.292969 L 165.242188 161.992188 L 166.015625 161.605469 L 166.75 160.257813 L 167.589844 160.183594 L 167.507813 160.828125 L 166.417969 162.609375 L 162.722656 166.96875 L 162.175781 167.183594 L 161.726563 166.894531 L 161.859375 165.949219 L 161.53125 165.507813 L 159.984375 165.785156 L 155.320313 167.769531 L 152.441406 170.8125 L 151.949219 171.945313 L 152.140625 172.144531 L 156.390625 168.453125 L 157.75 167.980469 L 160.300781 168.324219 L 161.058594 169.320313 L 157.109375 173.804688 L 156.367188 175.339844 L 156.707031 175.816406 L 157.367188 175.984375 L 158.261719 175.542969 L 161.140625 173.015625 L 167.808594 170.273438 L 170.480469 169.527344 L 170.492188 169.949219 L 171.554688 169.839844 L 173.589844 168.316406 L 174.046875 166.78125 L 178.648438 166.167969 L 179.285156 167.089844 L 180.148438 167.667969 L 184.320313 169.011719 L 185.652344 168.261719 L 188.6875 168.804688 L 197.625 168.738281 L 199.164063 168.988281 L 204.117188 168.914063 L 204.394531 168.691406 L 209.871094 168.648438 L 210.3125 168.835938 L 212.550781 172.800781 L 213.671875 176.582031 L 213.679688 177.050781 L 211.75 179.453125 L 210.832031 181.601563 L 209.382813 183.425781 L 207.15625 188.339844 L 207.015625 189.152344 L 207.003906 189.179688 L 206.320313 192.90625 L 206.371094 194.09375 L 206.226563 194.742188 L 203.9375 198.859375 L 203.917969 199.003906 L 203.875 199.0625 L 203.011719 201.171875 L 202.570313 203.539063 L 200.117188 206.589844 L 199.882813 207.140625 L 199.179688 207.605469 L 197.078125 210.023438 L 197.433594 210.839844 L 197.785156 210.703125 L 197.761719 211.238281 L 197.210938 213.039063 L 196.566406 213.800781 L 195.476563 216.230469 L 191.214844 219.742188 L 185.519531 221.085938 L 182.847656 221.226563 L 177.804688 225.21875 L 178.117188 225.714844 L 179.84375 225.195313 L 184.609375 222.886719 L 186.457031 221.386719 L 187.289063 221.316406 L 189.085938 221.875 L 189.332031 222.921875 L 188.898438 224.691406 L 189.238281 225.953125 L 190.898438 226.824219 L 192.988281 227.191406 L 194.445313 228.726563 L 194.429688 229.304688 L 192.117188 231.570313 L 189.460938 232.730469 L 188.34375 232.882813 L 187.070313 232.078125 L 185.40625 232.042969 L 181.046875 235.800781 L 180.578125 237.003906 L 174.761719 240.109375 L 170.214844 238.117188 L 166.480469 238.003906 L 166.738281 239.222656 L 168.246094 240.195313 L 178.0625 241.875 L 182.921875 243.167969 L 186.398438 241.730469 L 187.519531 239.417969 L 188.617188 238.355469 L 189.539063 238.171875 L 193.183594 238.5 L 199.339844 242.761719 L 206.488281 246.65625 L 208.910156 251.429688 L 212.824219 256.707031 L 213.265625 256.828125 L 213.433594 256.585938 L 214.601563 257.097656 L 217.371094 258.992188 L 218.039063 261.085938 L 217.914063 271.574219 L 218.417969 275.320313 L 219.757813 278.460938 L 221.179688 280.15625 L 221.269531 280.457031 L 222.203125 282.398438 L 222.398438 283.441406 L 223.320313 285.667969 L 224.183594 286.757813 L 225.945313 294.183594 L 229.304688 299.0625 L 234.855469 301.652344 L 235.460938 302.164063 L 238.25 303.652344 L 239.957031 304.03125 L 241.425781 304.71875 L 242.113281 307.664063 L 243.820313 310.621094 L 246.921875 314.261719 L 249.09375 315.96875 L 250.449219 317.777344 L 252.96875 319.847656 L 254.855469 322.191406 L 255.484375 322.675781 L 254.738281 323.09375 L 253.890625 324.554688 L 253.765625 325.996094 L 254.984375 329.992188 L 256.160156 332.453125 L 263.316406 342.46875 L 263.640625 343.980469 L 262.804688 345.191406 L 263.28125 343.65625 L 262.507813 342.839844 L 260.445313 342 L 258.378906 342.789063 L 257.507813 342.753906 L 256.035156 341.773438 L 253.664063 338.65625 L 252.601563 338.082031 L 245.550781 339.511719 L 244.589844 338.644531 L 243.40625 338.558594 L 241.210938 339.871094 L 241.886719 340.445313 L 246.324219 340.394531 L 249.617188 339.34375 L 251.976563 339.082031 L 254.382813 342.558594 L 260.535156 347.621094 L 263.042969 349.058594 L 263.664063 349.039063 L 266.046875 352.214844 L 268 356.9375 L 267.855469 357.597656 L 267.96875 360.519531 L 268.808594 363.328125 L 269.328125 364.199219 L 269.210938 365.21875 L 264.953125 369.09375 L 261.394531 373.164063 L 260.601563 374.816406 L 262.84375 374.3125 L 264.9375 375.519531 L 266.9375 378.226563 L 270.21875 378.804688 L 270.625 378.746094 L 271.910156 376.796875 L 272.234375 374.960938 L 273.40625 371.914063 L 274.707031 370.632813 L 277.71875 370.109375 L 281.984375 370.410156 L 283.570313 370.390625 L 284.253906 370.867188 L 286.703125 370.742188 L 293.949219 371.515625 L 296.914063 372.84375 L 300.621094 375.558594 L 301.199219 376.292969 L 303.371094 378 L 305.4375 380.519531 L 305.53125 380.585938 L 306.730469 384.164063 L 307.179688 391.25 L 306.777344 393.191406 L 306.890625 393.976563 L 305.789063 396.917969 L 305.183594 399.824219 L 303.925781 402.410156 L 303.246094 406.136719 L 303.328125 408.035156 L 297.144531 414.53125 L 295.578125 412.011719 L 292.742188 410.515625 L 292.480469 410.636719 L 293.898438 413.703125 L 295.890625 416.628906 L 296.3125 416.765625 L 296.164063 417.742188 L 294.574219 419.804688 L 292.191406 421.289063 L 290.003906 421.65625 L 289.660156 421.574219 L 288.214844 419.332031 L 284.976563 421.730469 L 280.71875 424.230469 L 282.339844 425.378906 L 285.105469 424.398438 L 286.097656 423.375 L 286.894531 423.164063 L 287.328125 423.710938 L 287.632813 428.84375 L 285.6875 430.875 L 283.441406 432.558594 L 282.84375 432.699219 L 279.644531 432.160156 L 274.75 433.78125 L 272.609375 436.117188 L 274.253906 436.015625 L 275.152344 434.667969 L 276.683594 434.363281 L 278.285156 434.328125 L 281.054688 434.949219 L 281.828125 435.589844 L 281.691406 436.328125 L 279.554688 436.347656 L 277.390625 437.65625 L 277.96875 438.546875 L 281.382813 438.964844 L 286.863281 440.339844 L 289.394531 439.9375 L 291.074219 438.957031 L 296.394531 438.222656 L 297.421875 439.011719 L 299.492188 440.03125 L 299.492188 443.90625 L 298.019531 445.480469 L 296.804688 447.410156 L 295.988281 449.539063 L 295.84375 450.375 L 295.839844 450.375 L 292.621094 451.640625 L 291.179688 452.742188 L 289.847656 454.226563 L 289.460938 455.09375 L 289.214844 456.324219 L 289.246094 456.523438 L 289 456.839844 L 288.480469 458.011719 L 286.253906 458.289063 L 284.1875 457.9375 L 282.84375 459.207031 L 280.683594 459.117188 L 276.957031 459.9375 L 273.792969 461.84375 L 270.183594 465 L 268.863281 466.679688 L 267.304688 466.207031 L 265.644531 464.84375 L 262.105469 463.488281 L 259.351563 463.144531 L 254.71875 463.132813 L 250.96875 463.632813 L 247.832031 464.972656 L 247.65625 465.121094 L 244.628906 465.699219 L 242.703125 466.390625 L 242.113281 466.964844 L 242.085938 467.101563 L 240.457031 467.277344 L 240.121094 467.386719 L 238.210938 466.1875 L 238.632813 465.4375 L 239.46875 464.933594 L 237.714844 463.296875 L 231.496094 463.171875 L 231.378906 463.496094 L 232.574219 464.835938 L 232.214844 465.75 L 231.738281 466.042969 L 226.691406 465.496094 L 219.566406 468.449219 L 217.054688 467.824219 L 210.222656 468.96875 L 208.164063 468.875 L 207.273438 468.058594 L 206.238281 469.769531 L 209.429688 471.089844 L 209.714844 470.9375 L 210.1875 472.128906 L 209.566406 473.890625 L 206.84375 474.453125 L 204.453125 473.097656 L 203.015625 472.699219 L 197.625 472.007813 L 196.175781 472.65625 L 195.679688 473.863281 L 195.816406 474.75 L 195.308594 474.839844 L 194.851563 473.972656 L 190.289063 470.589844 L 185.898438 468.519531 L 183.121094 467.984375 L 181.648438 469.066406 L 176.207031 469.78125 L 174.339844 470.335938 L 168.992188 473.234375 L 168.214844 474.070313 L 167.203125 476.179688 L 162.746094 489.226563 L 160.929688 490.242188 L 158.269531 489.722656 L 157.554688 489.058594 L 156.527344 486.851563 L 154.683594 485.4375 L 153.613281 485.542969 L 152.417969 486.300781 L 151.738281 486.164063 L 148.46875 482.535156 L 144.972656 482.796875 L 141.117188 482.378906 L 137.625 483.109375 L 135.421875 484.351563 L 134.507813 484.320313 L 132.167969 484.859375 L 129.414063 488.195313 L 126.714844 489.746094 L 124.039063 490.597656 L 123.132813 494.289063 L 123.207031 494.425781 L 122.359375 495.5 L 121.527344 497.355469 L 120.722656 497.628906 L 119.8125 496.460938 L 118.171875 495.023438 L 116.75 494.347656 L 115.984375 493.691406 L 112.253906 492.070313 L 111.410156 491.984375 L 110.375 492.488281 L 110.34375 492.890625 L 109.894531 492.902344 L 107.761719 493.378906 L 105.644531 494.308594 L 105.441406 494.210938 L 105.628906 491.574219 L 106.074219 490.5625 L 106.917969 490.191406 L 108.011719 489.988281 L 110.125 489.125 L 111.105469 488.355469 L 111.738281 488.078125 L 112.199219 488.253906 L 112.445313 488.9375 L 113.574219 489.15625 L 118.144531 485.910156 L 121.425781 483.085938 L 124.375 479.769531 L 125.210938 477.886719 L 124.875 476.421875 L 125.578125 474.671875 L 127.933594 473.582031 L 128.273438 473.292969 L 128.386719 473.238281 L 132.105469 472.640625 L 132.679688 471.785156 L 133.257813 469.527344 L 135.859375 467.5625 L 138.089844 465.214844 L 140.539063 463.292969 L 142.625 462.316406 L 144.382813 461.035156 L 146.597656 458.394531 L 147.945313 455.21875 L 148.191406 452.75 L 148.429688 452.488281 L 148.347656 451.222656 L 148.441406 450.289063 L 148.292969 447.785156 L 148.535156 447.386719 L 151.105469 446.613281 L 157.421875 446.269531 L 159.910156 445.683594 L 164.597656 446.761719 L 166.046875 446.148438 L 167.527344 446.515625 L 169.484375 447.285156 L 170.039063 448.109375 L 170.757813 448.421875 L 173.15625 448.464844 L 180.570313 447.503906 L 181.109375 445.632813 L 181.210938 443.15625 L 182.519531 440.25 L 190.867188 432.195313 L 195.792969 425.3125 L 197.929688 424.472656 L 198.285156 423.78125 L 198.070313 423.238281 L 197.8125 423.082031 L 196.09375 424.355469 L 192.90625 427.300781 L 190.570313 429.988281 L 189.222656 431.449219 L 185.628906 432.957031 L 183.714844 433.246094 L 182.441406 433.0625 L 178.394531 435.230469 L 177.398438 436.808594 L 177.039063 438.671875 L 176.445313 439.273438 L 174.058594 439.917969 L 170.558594 439.851563 L 166.820313 439 L 166.347656 438.652344 L 161.371094 433.375 L 159.03125 429.199219 L 155.65625 429.589844 L 149.269531 432.308594 L 149.113281 432.746094 L 148.246094 432.238281 L 148.125 432.082031 L 147.164063 431.296875 L 146.917969 429.308594 L 148.539063 428.378906 L 150.066406 428.890625 L 151.640625 428.421875 L 152.765625 427.832031 L 153.085938 427.097656 L 152.808594 426.597656 L 147.785156 426.460938 L 143.210938 423.710938 L 139.503906 423.714844 L 136.765625 424.277344 L 136.292969 426.515625 L 135.777344 427.203125 L 133.742188 427.917969 L 132.394531 427.265625 L 131.648438 427.453125 L 130.625 428.34375 L 127.105469 428.378906 L 126.53125 428.132813 L 127.425781 426.082031 L 128.796875 425.832031 L 131.792969 424.328125 L 131.226563 422.867188 L 130.640625 424.257813 L 127.769531 424.613281 L 122.949219 424.152344 L 121.496094 423.164063 L 124.125 421.78125 L 125.167969 421.753906 L 125.464844 421.238281 L 124.929688 417.953125 L 123.328125 417.210938 L 121.445313 417.105469 L 122.0625 415.152344 L 125.933594 413.378906 L 126.152344 412.847656 L 129 412.003906 L 129.574219 411.644531 L 133.074219 411.34375 L 134.871094 409.289063 L 135.753906 407.632813 L 137.585938 406.550781 L 141.359375 406.660156 L 142.21875 406.390625 L 149.359375 401.828125 L 152.058594 398.308594 L 152.042969 398.382813 L 152.167969 401.261719 L 149.519531 403.683594 L 147.734375 406.800781 L 147.011719 409.925781 L 147.171875 413.128906 L 147.929688 415.585938 L 149.207031 417.816406 L 150.75 419.539063 L 153.378906 421.597656 L 155.398438 422.707031 L 157.597656 423.398438 L 159.890625 423.636719 L 162.0625 423.445313 L 165.210938 422.382813 L 167.933594 420.472656 L 169.371094 418.839844 L 170.480469 416.964844 L 171.554688 412.890625 L 174.917969 412.121094 L 177.90625 410.398438 L 180.261719 407.875 L 181.769531 404.769531 L 182.292969 401.742188 L 182.03125 398.8125 L 181.042969 396.039063 L 179.308594 393.507813 L 179.308594 389.628906 L 180.476563 386.792969 L 180.867188 383.75 L 180.445313 380.710938 L 179.308594 378 L 179.46875 371.996094 L 179.101563 368.070313 L 178.398438 365.734375 L 177.21875 363.597656 L 175.625 361.753906 L 173.785156 360.347656 L 170.101563 358.871094 L 165.199219 358.035156 L 162.910156 357.984375 L 160.652344 358.382813 L 158.511719 359.21875 L 156.570313 360.460938 L 154.996094 361.964844 L 153.730469 363.734375 L 152.773438 365.828125 L 152.25 368.070313 L 152.167969 370.246094 L 152.042969 373.125 L 152.054688 373.179688 L 150.203125 373.105469 L 145.449219 374.257813 L 143.757813 375.484375 L 142.085938 378.027344 L 141.953125 378.003906 L 136.660156 378 L 139.007813 376.113281 L 141.488281 372.90625 L 141.890625 372.160156 L 142.589844 371.953125 L 147.132813 367.984375 L 147.953125 364.523438 L 151.550781 360.582031 L 153.09375 359.609375 L 154.941406 359.808594 L 160.492188 357.457031 L 163.644531 357.28125 L 167.339844 357.714844 L 172.597656 355.179688 L 173.933594 355.046875 L 174.484375 355.082031 L 179.910156 359.441406 L 180.433594 358.429688 L 177.679688 353.460938 L 178.242188 352.835938 L 180.867188 352.449219 L 181.503906 352.695313 L 181.914063 353.875 L 182.898438 354.332031 L 184.078125 356.789063 L 185.613281 357.902344 L 188.359375 357.621094 L 190.335938 355.148438 L 189.90625 355.050781 L 188.667969 355.527344 L 188.3125 355.957031 L 186.378906 356.386719 L 183.8125 354.640625 L 179.976563 346.332031 L 183.371094 340.257813 L 185.429688 339.015625 L 185.140625 338.578125 L 182.683594 338.460938 L 182.378906 338.109375 L 182.988281 334.375 L 182.402344 330.972656 L 182.09375 330.359375 L 184.695313 329.191406 L 187.28125 323.421875 L 187.71875 320.933594 L 187.855469 317.484375 L 184.742188 320.527344 L 179.199219 323.441406 L 177.335938 322.691406 L 175.625 319.730469 L 175.746094 317.3125 L 175.570313 315.148438 L 174.179688 311.324219 L 171.554688 308.214844 L 172.109375 305.96875 L 172.207031 303.65625 L 171.878906 301.496094 L 171.097656 299.320313 L 169.933594 297.441406 L 174.074219 288.722656 L 176.464844 286.417969 L 178.757813 285.980469 L 180.191406 286.804688 L 181.015625 286.710938 L 182.933594 286.238281 L 183.03125 285.160156 L 182.34375 284.746094 L 180.035156 285.351563 L 174.65625 284.980469 L 172.566406 284.292969 L 172.371094 284.277344 L 174 282.890625 L 175.429688 281.078125 L 178.730469 281.375 L 182.101563 280.691406 L 185.121094 279.046875 L 187.558594 276.613281 L 188.796875 274.667969 L 189.597656 272.640625 L 190.015625 270.375 L 189.976563 268.070313 L 189.523438 265.9375 L 188.621094 263.816406 L 187.316406 261.917969 L 185.660156 260.308594 L 182.191406 258.410156 L 176.703125 257.21875 L 174.03125 257.234375 L 171.554688 257.816406 L 169.328125 257.269531 L 167.167969 257.160156 L 163.800781 257.816406 L 159.855469 258.265625 L 156.394531 259.941406 L 153.671875 262.65625 L 151.945313 266.230469 L 151.515625 270.050781 L 152.550781 277.003906 L 154.070313 280.378906 L 156.570313 283.105469 L 158.625 284.40625 L 162.53125 286.03125 L 165.195313 286.441406 L 168.007813 286.203125 L 168.992188 285.890625 L 168.226563 288.992188 L 166.234375 288.695313 L 163.3125 290.011719 L 161.832031 291.855469 L 160.460938 292.792969 L 159.023438 292.691406 L 155.976563 293.160156 L 155.855469 293.214844 L 155.160156 292.984375 L 149.984375 289.230469 L 149.214844 288.042969 L 149.230469 287.167969 L 148.945313 287.023438 L 148.15625 288.078125 L 147.988281 288.910156 L 148.375 290.554688 L 149.574219 292.960938 L 149.839844 295.726563 L 149.308594 296.871094 L 148.746094 297.058594 L 145.816406 295.78125 L 144.601563 294.238281 L 144.507813 293.621094 L 143.632813 292.355469 L 141.613281 291.4375 L 140.164063 290.433594 L 138.398438 288.636719 L 137.464844 288.296875 L 135.511719 289.683594 L 134.605469 291.238281 L 135.976563 295.472656 L 136.734375 296.308594 L 136.769531 296.636719 L 136.660156 296.585938 L 134.953125 294.414063 L 134.167969 293.796875 L 133.472656 292.679688 L 132.597656 291.675781 L 132.375 290.464844 L 131.59375 288.457031 L 130.378906 286.527344 L 129.355469 285.433594 L 129.300781 285.09375 L 129.71875 282.265625 L 132.777344 280.410156 L 134.003906 276.632813 L 137.757813 273.035156 L 138.601563 268.871094 L 140.917969 265.085938 L 143.644531 263.800781 L 144.390625 261.886719 L 144.195313 260.621094 L 142.601563 256.71875 L 139.777344 254.832031 L 137.378906 252.511719 Z M 206.445313 312.09375 L 203.925781 311.601563 L 201.488281 311.660156 L 199.113281 312.226563 L 196.800781 313.34375 L 194.882813 314.847656 L 193.246094 316.828125 L 192.132813 319 L 191.476563 321.484375 L 191.367188 323.792969 L 191.714844 326.078125 L 192.507813 328.25 L 193.710938 330.222656 L 196.101563 333.082031 L 197.855469 334.589844 L 200.234375 335.863281 L 202.839844 336.558594 L 205.28125 336.652344 L 207.5625 336.269531 L 209.722656 335.445313 L 211.675781 334.207031 L 213.347656 332.605469 L 215.5 329.730469 L 216.496094 327.652344 L 217.0625 325.414063 L 217.171875 322.984375 L 216.769531 320.585938 L 215.9375 318.433594 L 214.617188 316.390625 L 213 314.75 L 210.976563 313.394531 L 208.839844 312.53125 Z M 179.046875 120.4375 L 179.464844 116.621094 L 179.441406 115.015625 L 181.269531 116.636719 L 182.96875 119.6875 L 182.941406 120.441406 L 180.816406 120.886719 L 179.261719 120.746094 Z M 179.414063 113.332031 L 179.308594 106.617188 L 182.234375 105.003906 L 184.519531 106.003906 L 186.230469 108.273438 L 187.324219 111.371094 L 189.425781 112.382813 L 190.734375 113.441406 L 191.546875 114.902344 L 189.996094 116.5625 L 186.777344 113.90625 L 184.832031 114.03125 L 181.886719 115.097656 Z M 186.195313 99.75 L 186.679688 98.667969 L 186.777344 97.710938 L 188.613281 98.375 L 189.644531 99.757813 L 189.558594 100.558594 L 189.007813 101.453125 L 189.121094 100.265625 L 187.730469 99.058594 L 186.953125 98.894531 L 186.835938 99.515625 L 186.335938 100.011719 Z M 198.691406 98.019531 L 198.691406 98.863281 L 197.066406 100.636719 L 196.90625 100.90625 L 194.695313 101.191406 L 193.226563 103.421875 L 193.136719 102.113281 L 195.332031 98.847656 L 196.15625 98.316406 Z M 188.691406 118.914063 L 188.132813 119.65625 L 187.0625 122.125 L 186.804688 122.433594 L 186.4375 122.070313 L 185.203125 119.125 L 185.941406 118.488281 L 188.300781 118.292969 Z M 232.871094 471.550781 L 231.871094 472.320313 L 230.464844 474.011719 L 229.960938 474.269531 L 228.117188 474.644531 L 222.296875 470.886719 L 220.207031 471.1875 L 221.476563 469.683594 L 227.316406 466.367188 L 232.550781 467.761719 L 234.171875 469.894531 Z M 140.539063 357.78125 L 140.539063 355.167969 L 140.597656 355.164063 L 141.484375 356.3125 L 142.226563 358.1875 L 141.734375 358.875 L 141.003906 358.070313 Z M 142.152344 354.738281 L 144.414063 354.738281 L 148.164063 355.402344 L 150.785156 354.96875 L 151.039063 355.578125 L 155.546875 356.503906 L 154.066406 358.859375 L 150.984375 360.816406 L 147.425781 363.976563 L 146.109375 363.875 L 144.195313 361.613281 L 142.050781 357.363281 Z M 148.292969 308.539063 L 148.292969 317.265625 L 147.847656 318.148438 L 145.464844 320.492188 L 144.039063 321.035156 L 142.109375 322.25 L 141.417969 322.898438 L 139.824219 322.464844 L 137.933594 323.433594 L 137.675781 322.921875 L 139.628906 317.199219 L 140.410156 316.257813 L 142.300781 315.023438 L 144.765625 310.230469 L 145.863281 309.40625 Z M 106.664063 254.515625 L 105.644531 253.9375 L 104.074219 252.464844 L 103.628906 252.183594 L 104.988281 247.472656 L 102.980469 247.105469 L 101.464844 249.738281 L 100.578125 250.644531 L 100.136719 250.46875 L 98.726563 250.214844 L 99.023438 248.875 L 100.660156 243.785156 L 102.445313 243.214844 L 103.882813 243.558594 L 106.871094 241.457031 L 108.433594 240.808594 L 108.667969 241.335938 L 108.480469 243.175781 L 108.777344 246.292969 L 109.046875 247.320313 L 109.929688 248.226563 L 110.335938 251.851563 L 108.992188 253.109375 Z M 102.855469 224.152344 L 102.363281 223.597656 L 102.589844 223.230469 L 103.304688 222.808594 L 103.460938 223.023438 Z M 93.089844 215.425781 L 92.441406 215.265625 L 90.136719 215.167969 L 93.226563 214.484375 L 95.207031 213.425781 L 95.671875 214.59375 L 93.804688 214.847656 Z M 96.695313 212.417969 L 100.152344 209.496094 L 101.308594 207.996094 L 101.351563 207.964844 L 102.617188 207.75 L 102.652344 208.195313 L 101.386719 210.445313 L 99.425781 212.117188 L 96.976563 213.15625 Z M 101.777344 192.046875 L 101.300781 191.382813 L 101.515625 191.273438 L 102.835938 191.832031 Z M 85.785156 188.664063 L 85.433594 188.890625 L 84.328125 188.382813 L 82.6875 188.554688 L 82.128906 188.101563 L 81.921875 187.375 L 81.828125 186.738281 L 82.042969 186.152344 L 82.472656 183.53125 L 82.539063 177.898438 L 82.3125 176.097656 L 83.4375 175.515625 L 85.28125 176.539063 L 86.578125 178.347656 L 85.882813 178.945313 L 85.144531 178.476563 L 85.03125 179.058594 L 85.140625 186.4375 L 86.054688 188.15625 Z M 81.535156 192.621094 L 79.699219 194.164063 L 79.054688 195.058594 L 77.855469 194.78125 L 78.027344 194.394531 L 78.289063 193.035156 L 80.441406 190.269531 L 81.117188 190.9375 Z M 152.550781 375.898438 L 152.726563 376.851563 L 154.054688 379.582031 L 156.046875 381.875 L 155.382813 385.753906 L 156.046875 389.628906 L 154.195313 391.761719 L 154.199219 391.746094 L 153.734375 388.820313 L 152.566406 386.542969 L 153.179688 384.597656 L 154.652344 381.796875 L 152.269531 378.203125 Z M 219.253906 48.152344 L 221.984375 47.4375 L 223.429688 46.4375 L 223.417969 46.992188 L 223.628906 47.851563 L 228.960938 48.949219 L 227.699219 56.234375 L 226.355469 57.007813 L 225.6875 56.476563 L 226.023438 58.453125 L 227.246094 61.769531 L 226.800781 62.460938 L 226.285156 62.238281 L 225.40625 63.738281 L 225.265625 67.207031 L 224.308594 74.617188 L 223.472656 74.351563 L 221.910156 72.433594 L 222.910156 68.203125 L 223.429688 67.644531 L 224.308594 63.570313 L 223.632813 57.773438 L 221.078125 57.210938 L 222.089844 58.292969 L 222.21875 59.898438 L 220.292969 61.703125 L 218.738281 60.40625 L 218.746094 59.554688 L 215.621094 58.289063 L 215.003906 56.183594 L 215.039063 55.8125 L 215.808594 55.171875 L 220.695313 54.34375 L 222.421875 53.527344 L 222.960938 52.8125 L 220.238281 48.339844 Z M 226.007813 44.402344 L 227.144531 43.210938 L 228.402344 41.308594 L 229.265625 39.195313 L 229.675781 36.996094 L 229.761719 37.023438 L 229.984375 39.984375 L 229.175781 46.582031 L 227.496094 47.179688 L 226.742188 47.023438 L 226.078125 45.398438 Z M 230.5625 36.15625 L 231.878906 35.125 L 233.585938 32.953125 L 233.585938 36.976563 L 233.101563 38.984375 L 230.96875 38.972656 L 230.324219 38.394531 Z M 88.945313 499.121094 L 88.542969 499.441406 L 88.566406 499.308594 L 88.941406 499.117188 Z M 286.679688 439.636719 L 283.058594 438.976563 L 282.164063 437.605469 L 282.484375 436.070313 L 286.839844 437.054688 L 287.960938 438.832031 Z M 236.835938 466.113281 L 235.136719 465.644531 L 236.523438 463.683594 L 237.195313 464.164063 L 237.5 465.839844 Z M 98.214844 141.941406 L 97.453125 141.691406 L 97.21875 139.679688 L 98.019531 139.84375 L 99.277344 141.320313 L 99.230469 141.953125 Z M 91.824219 155.515625 L 91.882813 154.726563 L 92.882813 153.957031 L 93.789063 153.890625 L 93.378906 155.476563 Z M 88.238281 162.863281 L 87.917969 162.585938 L 88.445313 161.890625 L 89.367188 161.550781 L 89.65625 162.238281 Z M 86.902344 171.355469 L 84.875 171.125 L 84.914063 169.441406 L 82.996094 168.253906 L 81.464844 168.371094 L 80.089844 167.152344 L 80.046875 166.824219 L 81.617188 164.507813 L 86.457031 164.699219 L 87.222656 163.867188 L 88.554688 163.523438 L 91.023438 165.660156 L 91.214844 166.0625 L 88.9375 171.015625 L 88.773438 171.246094 Z M 85.394531 175.835938 L 84.546875 175.601563 L 83.046875 174.507813 L 82.722656 173.699219 L 82.824219 172.589844 L 83.972656 171.789063 L 86.566406 172.507813 L 87.433594 173.25 L 87.285156 175.226563 Z M 106.597656 197.398438 L 105.582031 196.804688 L 103.613281 194.261719 L 105.34375 192.390625 L 106.722656 192.214844 L 107.992188 192.835938 L 108.445313 193.703125 L 108.09375 196.351563 L 107.546875 197.015625 Z M 110.160156 200.433594 L 108.972656 199.578125 L 108.9375 198.890625 L 110.578125 197.179688 L 111.398438 197.769531 L 111.5 198.265625 L 111.128906 199.855469 Z M 110.59375 209.929688 L 111.976563 210.636719 L 113.289063 212.988281 L 113.785156 214.699219 L 116.457031 215.945313 L 117.929688 216.300781 L 121.195313 219.144531 L 120.902344 221.207031 L 119.445313 223.339844 L 116.335938 225.03125 L 115.453125 224.539063 L 116.136719 223.339844 L 115.425781 223.117188 L 112.109375 224.96875 L 106.027344 226.585938 L 104.691406 226.273438 L 103.734375 224.277344 L 103.851563 223.371094 L 104.191406 223.09375 L 105.628906 223.050781 L 106.039063 223.617188 L 106.972656 224.074219 L 112.214844 222.164063 L 112.035156 221.589844 L 109.863281 222.445313 L 108.199219 222.488281 L 107.824219 221.539063 L 109.386719 219.472656 L 112.601563 217.957031 L 112.90625 216.820313 L 112.554688 216.699219 L 109.90625 217.519531 L 105.058594 214.074219 L 105.636719 211.667969 L 108.914063 210.140625 L 110.03125 209.789063 Z M 108.136719 218.074219 L 107.207031 217.691406 L 106.753906 217.160156 L 107.335938 216.378906 L 108.085938 216.507813 L 109.105469 217.519531 L 109.070313 217.820313 Z M 111.886719 247.292969 L 110.550781 247.070313 L 109.476563 246.144531 L 109.292969 243.285156 L 109.585938 242.089844 L 112.5625 237.15625 L 116.605469 233.660156 L 119.195313 232.023438 L 119.632813 233.128906 L 119.449219 233.945313 L 118.015625 235.730469 L 113.761719 243.328125 Z M 106.976563 236.632813 L 105.476563 236.191406 L 106.28125 234.464844 L 107.839844 232.910156 L 108.882813 232.734375 L 107.535156 236.1875 Z M 130.613281 263.773438 L 129.152344 263.667969 L 126.582031 261.613281 L 125.375 256.128906 L 125.988281 253.21875 L 128.179688 251.246094 L 129.539063 251.441406 L 131.390625 253.015625 L 132.984375 258.382813 L 133.019531 262.765625 L 132.308594 263.453125 Z M 130.613281 263.773438 "/>
</g>
</svg>
