<?xml version="1.0" encoding="UTF-8"?>
<svg xmlns="http://www.w3.org/2000/svg" xmlns:xlink="http://www.w3.org/1999/xlink" width="378pt" height="504pt" viewBox="0 0 378 504" version="1.1">
<g id="data">
<rect x="0" y="0" width="378" height="504" style="fill:rgb(100%,100%,100%);fill-opacity:1;stroke:none;"/>
<path style=" stroke:none;fill-rule:nonzero;fill:rgb(100%,100%,100%);fill-opacity:1;" d="M 53.308594 504 L 324.691406 504 L 324.691406 0 L 53.308594 0 Z M 53.308594 504 "/>
<path style=" stroke:none;fill-rule:nonzero;fill:rgb(22.745098%,53.333333%,16.078431%);fill-opacity:1;" d="M 198.691406 98.019531 L 198.691406 98.863281 L 197.066406 100.636719 L 196.90625 100.90625 L 194.695313 101.191406 L 193.226563 103.421875 L 193.136719 102.113281 L 195.332031 98.847656 L 196.15625 98.316406 Z M 188.691406 118.914063 L 188.132813 119.65625 L 187.0625 122.125 L 186.75 122.378906 L 186.4375 122.070313 L 185.203125 119.125 L 185.941406 118.488281 L 188.300781 118.292969 Z M 182.851563 126.367188 L 180.671875 129.164063 L 179.683594 131.632813 L 178.710938 136.359375 L 178.710938 138.902344 L 179.308594 141.507813 L 177.066406 142.453125 L 175.167969 143.761719 L 173.484375 145.519531 L 172.261719 147.472656 L 171.726563 148.890625 L 162.601563 156.074219 L 162.234375 157.082031 L 162.671875 158.175781 L 162.078125 159.632813 L 159.644531 160.289063 L 156.839844 159.359375 L 153.464844 157.734375 L 154.464844 159.796875 L 155.875 160.457031 L 161.363281 161.917969 L 164.042969 162.292969 L 165.242188 161.992188 L 166.015625 161.605469 L 166.75 160.257813 L 167.589844 160.183594 L 167.507813 160.828125 L 166.417969 162.609375 L 162.722656 166.96875 L 162.175781 167.183594 L 161.726563 166.894531 L 161.859375 165.949219 L 161.53125 165.507813 L 159.984375 165.785156 L 155.320313 167.769531 L 152.441406 170.8125 L 151.949219 171.945313 L 152.140625 172.144531 L 156.390625 168.453125 L 157.75 167.980469 L 160.300781 168.324219 L 161.058594 169.320313 L 157.109375 173.804688 L 156.367188 175.339844 L 156.707031 175.816406 L 157.367188 175.984375 L 158.261719 175.542969 L 161.140625 173.015625 L 167.808594 170.273438 L 170.480469 169.527344 L 170.492188 169.949219 L 171.554688 169.839844 L 173.589844 168.316406 L 174.046875 166.78125 L 178.648438 166.167969 L 179.285156 167.089844 L 180.148438 167.667969 L 184.320313 169.011719 L 185.632813 168.273438 L 188.6875 168.804688 L 197.625 168.738281 L 199.164063 168.988281 L 204.117188 168.914063 L 204.394531 168.691406 L 209.871094 168.648438 L 210.3125 168.835938 L 212.550781 172.800781 L 212.910156 174.011719 L 212.210938 174.816406 L 210.882813 177.546875 L 210.199219 181.273438 L 210.246094 182.339844 L 209.382813 183.425781 L 207.15625 188.339844 L 207 189.25 L 206.925781 189.421875 L 206.445313 191.90625 L 204.527344 194.097656 L 203.253906 196.574219 L 202.46875 200.410156 L 202.570313 203.539063 L 200.117188 206.589844 L 199.882813 207.140625 L 199.179688 207.605469 L 197.078125 210.023438 L 197.433594 210.839844 L 197.785156 210.703125 L 197.761719 211.238281 L 197.21875 213.011719 L 196.632813 213.691406 L 195.457031 216.25 L 191.214844 219.742188 L 185.519531 221.085938 L 182.847656 221.226563 L 177.804688 225.21875 L 178.117188 225.714844 L 179.84375 225.195313 L 184.609375 222.886719 L 186.457031 221.386719 L 187.289063 221.316406 L 189.085938 221.875 L 189.332031 222.921875 L 188.898438 224.691406 L 189.238281 225.953125 L 190.898438 226.824219 L 192.988281 227.191406 L 194.445313 228.726563 L 194.429688 229.304688 L 192.117188 231.570313 L 189.460938 232.730469 L 188.34375 232.882813 L 187.070313 232.078125 L 185.40625 232.042969 L 181.046875 235.800781 L 180.578125 237.003906 L 174.761719 240.109375 L 170.214844 238.117188 L 166.480469 238.003906 L 166.738281 239.222656 L 168.246094 240.195313 L 178.0625 241.875 L 182.921875 243.167969 L 186.398438 241.730469 L 187.519531 239.417969 L 188.617188 238.355469 L 189.539063 238.171875 L 193.183594 238.5 L 199.339844 242.761719 L 206.488281 246.65625 L 208.910156 251.429688 L 212.824219 256.707031 L 213.265625 256.828125 L 213.433594 256.585938 L 214.601563 257.097656 L 217.371094 258.992188 L 218.039063 261.085938 L 217.914063 271.449219 L 218.203125 274.328125 L 219.503906 278.023438 L 221.160156 280.089844 L 221.269531 280.457031 L 221.871094 281.710938 L 221.640625 283.480469 L 221.835938 285.898438 L 222.527344 288.222656 L 223.683594 290.355469 L 225.5625 292.566406 L 225.945313 294.183594 L 229.304688 299.0625 L 234.769531 301.613281 L 235.058594 301.855469 L 238.011719 303.5625 L 239.886719 304 L 241.382813 304.699219 L 241.863281 308.511719 L 243.839844 312.226563 L 246.148438 314.429688 L 249.09375 315.96875 L 250.449219 317.777344 L 252.96875 319.847656 L 254.675781 322.015625 L 255.503906 322.667969 L 254.738281 323.09375 L 253.890625 324.554688 L 253.765625 325.996094 L 254.984375 329.992188 L 256.160156 332.453125 L 263.316406 342.46875 L 263.640625 343.980469 L 262.804688 345.191406 L 263.28125 343.65625 L 262.507813 342.839844 L 260.445313 342 L 258.378906 342.789063 L 257.507813 342.753906 L 256.035156 341.773438 L 253.664063 338.65625 L 252.601563 338.082031 L 245.550781 339.511719 L 244.589844 338.644531 L 243.40625 338.558594 L 241.210938 339.871094 L 241.886719 340.445313 L 246.324219 340.394531 L 249.617188 339.34375 L 251.976563 339.082031 L 254.382813 342.558594 L 260.535156 347.621094 L 263.042969 349.058594 L 263.664063 349.039063 L 266.046875 352.214844 L 267.992188 356.917969 L 267.867188 357.46875 L 267.914063 360.140625 L 268.609375 362.851563 L 269.328125 364.207031 L 269.210938 365.21875 L 264.953125 369.09375 L 261.394531 373.164063 L 260.601563 374.816406 L 262.84375 374.3125 L 264.9375 375.519531 L 266.9375 378.226563 L 270.21875 378.804688 L 270.625 378.746094 L 271.910156 376.796875 L 272.234375 374.960938 L 273.40625 371.914063 L 274.707031 370.632813 L 277.820313 370.089844 L 281.859375 370.40625 L 283.566406 370.386719 L 284.253906 370.867188 L 286.703125 370.742188 L 293.949219 371.515625 L 296.914063 372.84375 L 300.621094 375.558594 L 301.199219 376.292969 L 303.371094 378 L 305.4375 380.519531 L 305.53125 380.585938 L 306.730469 384.164063 L 307.179688 391.25 L 306.777344 393.191406 L 306.890625 393.976563 L 305.789063 396.917969 L 305.183594 399.824219 L 303.925781 402.410156 L 303.246094 406.136719 L 303.328125 408.035156 L 297.144531 414.53125 L 295.578125 412.011719 L 292.742188 410.515625 L 292.480469 410.636719 L 293.898438 413.703125 L 295.816406 416.519531 L 295.617188 416.769531 L 292.929688 419.027344 L 291.109375 421.46875 L 290.003906 421.65625 L 289.660156 421.574219 L 288.214844 419.332031 L 284.976563 421.730469 L 280.71875 424.230469 L 282.339844 425.378906 L 285.105469 424.398438 L 286.097656 423.375 L 286.894531 423.164063 L 287.328125 423.710938 L 287.632813 428.84375 L 285.6875 430.875 L 283.441406 432.558594 L 282.84375 432.699219 L 279.644531 432.160156 L 274.75 433.78125 L 272.609375 436.117188 L 274.253906 436.015625 L 275.152344 434.667969 L 276.683594 434.363281 L 278.285156 434.328125 L 281.054688 434.949219 L 281.828125 435.589844 L 281.691406 436.328125 L 279.554688 436.347656 L 277.390625 437.65625 L 277.96875 438.546875 L 281.382813 438.964844 L 286.863281 440.339844 L 289.394531 439.9375 L 291.074219 438.957031 L 294.628906 438.464844 L 296.609375 439.4375 L 299.492188 440.03125 L 299.492188 443.90625 L 297.683594 445.265625 L 295.617188 447.785156 L 293.355469 449.582031 L 290.113281 453.4375 L 288.589844 456.207031 L 288.171875 458.050781 L 286.253906 458.289063 L 284.1875 457.9375 L 282.84375 459.207031 L 280.683594 459.117188 L 276.957031 459.9375 L 273.792969 461.84375 L 270.183594 465 L 268.863281 466.679688 L 267.304688 466.207031 L 265.644531 464.84375 L 262.105469 463.488281 L 259.351563 463.144531 L 254.71875 463.132813 L 250.96875 463.632813 L 247.832031 464.972656 L 247.65625 465.121094 L 244.628906 465.699219 L 242.703125 466.390625 L 242.113281 466.964844 L 242.085938 467.101563 L 240.457031 467.277344 L 240.121094 467.386719 L 238.210938 466.1875 L 238.632813 465.4375 L 239.46875 464.933594 L 237.714844 463.296875 L 231.496094 463.171875 L 231.378906 463.496094 L 232.574219 464.835938 L 232.214844 465.75 L 231.738281 466.042969 L 226.691406 465.496094 L 219.566406 468.449219 L 217.054688 467.824219 L 210.222656 468.96875 L 208.164063 468.875 L 207.273438 468.058594 L 206.238281 469.769531 L 209.429688 471.089844 L 209.714844 470.9375 L 210.1875 472.128906 L 209.566406 473.890625 L 206.84375 474.453125 L 204.453125 473.097656 L 203.015625 472.699219 L 197.625 472.007813 L 196.175781 472.65625 L 195.679688 473.863281 L 195.78125 474.523438 L 195.257813 474.742188 L 194.851563 473.972656 L 190.289063 470.589844 L 185.898438 468.519531 L 183.121094 467.984375 L 181.648438 469.066406 L 176.207031 469.78125 L 174.339844 470.335938 L 168.992188 473.234375 L 168.214844 474.070313 L 167.203125 476.179688 L 165.253906 481.886719 L 165.105469 482.078125 L 164.242188 484.1875 L 163.972656 485.636719 L 163.605469 486.707031 L 161.628906 488.261719 L 160.1875 490.097656 L 158.269531 489.722656 L 157.554688 489.058594 L 156.527344 486.851563 L 154.683594 485.4375 L 153.613281 485.542969 L 152.417969 486.300781 L 151.855469 486.1875 L 150.332031 484.40625 L 149.898438 484.121094 L 148.46875 482.535156 L 147.582031 482.601563 L 147.226563 482.367188 L 143.761719 481.421875 L 140.175781 481.582031 L 138.082031 482.214844 L 136.039063 483.296875 L 134.777344 484.328125 L 134.507813 484.320313 L 132.167969 484.859375 L 130.257813 487.171875 L 129.226563 487.425781 L 126.113281 489.359375 L 125.273438 490.203125 L 124.039063 490.597656 L 123.742188 491.800781 L 122.578125 493.484375 L 121.632813 495.699219 L 121.300781 497.433594 L 120.691406 497.640625 L 119.097656 495.765625 L 116.460938 493.996094 L 116.257813 493.929688 L 115.984375 493.691406 L 112.253906 492.070313 L 111.449219 491.988281 L 116.085938 488.171875 L 117.464844 486.394531 L 118.144531 485.910156 L 121.425781 483.085938 L 124.375 479.769531 L 125.210938 477.886719 L 124.875 476.421875 L 125.574219 474.683594 L 127.605469 473.785156 L 128.199219 473.328125 L 128.386719 473.238281 L 132.105469 472.640625 L 132.679688 471.785156 L 133.257813 469.527344 L 135.386719 467.917969 L 136.46875 468.230469 L 140.171875 468.058594 L 143.746094 466.667969 L 146.671875 464.191406 L 148.4375 461.371094 L 149.332031 458.164063 L 149.28125 454.839844 L 148.398438 452 L 148.371094 451.59375 L 150.441406 449.824219 L 152.082031 447.527344 L 152.464844 446.539063 L 157.421875 446.269531 L 159.910156 445.683594 L 164.597656 446.761719 L 166.046875 446.148438 L 167.527344 446.515625 L 169.484375 447.285156 L 170.039063 448.109375 L 170.757813 448.421875 L 173.15625 448.464844 L 180.570313 447.503906 L 181.109375 445.632813 L 181.210938 443.15625 L 182.519531 440.25 L 190.867188 432.195313 L 195.792969 425.3125 L 197.929688 424.472656 L 198.285156 423.78125 L 198.070313 423.238281 L 197.8125 423.082031 L 196.09375 424.355469 L 192.90625 427.300781 L 190.570313 429.988281 L 189.222656 431.449219 L 185.628906 432.957031 L 183.714844 433.246094 L 182.441406 433.0625 L 178.394531 435.230469 L 177.398438 436.808594 L 177.039063 438.671875 L 176.445313 439.273438 L 174.058594 439.917969 L 170.558594 439.851563 L 166.820313 439 L 166.347656 438.652344 L 161.371094 433.375 L 159.03125 429.199219 L 155.65625 429.589844 L 149.269531 432.308594 L 149.113281 432.746094 L 148.386719 432.324219 L 147.140625 431.09375 L 146.917969 429.308594 L 148.539063 428.378906 L 150.066406 428.890625 L 151.640625 428.421875 L 152.765625 427.832031 L 153.085938 427.097656 L 152.808594 426.597656 L 147.785156 426.460938 L 143.210938 423.710938 L 139.503906 423.714844 L 136.765625 424.277344 L 136.292969 426.515625 L 135.777344 427.203125 L 133.742188 427.917969 L 132.394531 427.265625 L 131.648438 427.453125 L 130.5625 428.398438 L 127.15625 428.398438 L 126.53125 428.132813 L 127.425781 426.082031 L 128.796875 425.832031 L 131.792969 424.328125 L 131.226563 422.867188 L 130.640625 424.257813 L 127.769531 424.613281 L 122.949219 424.152344 L 121.496094 423.164063 L 124.125 421.78125 L 125.167969 421.753906 L 125.464844 421.238281 L 124.929688 417.953125 L 123.328125 417.210938 L 121.445313 417.105469 L 122.0625 415.152344 L 125.933594 413.378906 L 126.15625 412.839844 L 128.179688 412.367188 L 129.355469 411.664063 L 133.074219 411.34375 L 134.871094 409.289063 L 135.753906 407.632813 L 137.585938 406.550781 L 140.464844 406.632813 L 140.40625 407.894531 L 141.09375 412.558594 L 142.480469 415.449219 L 144.605469 417.851563 L 148.136719 419.925781 L 152.167969 420.644531 L 154.136719 422.078125 L 156.359375 423.066406 L 159.121094 423.609375 L 161.808594 423.488281 L 165.4375 422.265625 L 168.5625 419.832031 L 170.636719 416.613281 L 171.554688 412.890625 L 175.625 411.816406 L 178.957031 409.457031 L 181.101563 406.433594 L 182.1875 402.894531 L 182.261719 400.332031 L 181.769531 397.820313 L 180.738281 395.476563 L 179.308594 393.507813 L 180.796875 391.417969 L 181.792969 389.050781 L 182.234375 386.652344 L 182.148438 384.085938 L 181.148438 380.777344 L 179.308594 378 L 179.96875 373.867188 L 179.125 368.199219 L 178.1875 365.265625 L 176.511719 362.683594 L 174.429688 360.777344 L 171.949219 359.429688 L 164.535156 357.96875 L 162.09375 358.066406 L 159.730469 358.671875 L 157.433594 359.828125 L 155.539063 361.367188 L 153.804688 363.59375 L 152.695313 366.054688 L 152.21875 368.316406 L 152.011719 372.5 L 152.089844 373.179688 L 150.203125 373.105469 L 145.449219 374.257813 L 143.757813 375.484375 L 142.050781 378.082031 L 136.660156 378 L 138.921875 376.203125 L 142.539063 371.976563 L 142.542969 371.96875 L 142.589844 371.953125 L 147.132813 367.984375 L 147.953125 364.523438 L 151.550781 360.582031 L 153.09375 359.609375 L 154.941406 359.808594 L 160.492188 357.457031 L 163.644531 357.28125 L 167.339844 357.714844 L 172.597656 355.179688 L 173.933594 355.046875 L 174.484375 355.082031 L 179.910156 359.441406 L 180.433594 358.429688 L 177.679688 353.460938 L 178.242188 352.835938 L 180.867188 352.449219 L 181.503906 352.695313 L 181.914063 353.875 L 182.898438 354.332031 L 184.078125 356.789063 L 185.613281 357.902344 L 188.359375 357.621094 L 190.335938 355.148438 L 189.90625 355.050781 L 188.667969 355.527344 L 188.3125 355.957031 L 186.378906 356.386719 L 183.8125 354.640625 L 179.976563 346.332031 L 183.371094 340.257813 L 185.429688 339.015625 L 185.140625 338.578125 L 182.683594 338.460938 L 182.421875 338.160156 L 182.902344 336.042969 L 182.945313 333.605469 L 182.230469 330.488281 L 182.144531 330.335938 L 184.695313 329.191406 L 187.28125 323.421875 L 187.71875 320.933594 L 187.855469 317.484375 L 184.742188 320.527344 L 179.199219 323.441406 L 177.335938 322.691406 L 175.625 319.730469 L 175.746094 317.3125 L 175.570313 315.148438 L 174.179688 311.324219 L 171.554688 308.214844 L 172.109375 305.96875 L 172.207031 303.65625 L 171.847656 301.371094 L 171.039063 299.203125 L 169.921875 297.464844 L 174.074219 288.722656 L 176.464844 286.417969 L 178.757813 285.980469 L 180.191406 286.804688 L 181.015625 286.710938 L 182.933594 286.238281 L 183.03125 285.160156 L 182.34375 284.746094 L 180.035156 285.351563 L 175.324219 285.027344 L 175.429688 284.953125 L 178.863281 284.636719 L 181.941406 283.390625 L 184 281.871094 L 185.597656 280.039063 L 187.0625 277.199219 L 188.679688 274.894531 L 189.597656 272.640625 L 190.015625 270.375 L 189.976563 268.070313 L 189.484375 265.816406 L 188.621094 263.816406 L 187.398438 262.015625 L 185.761719 260.390625 L 183.839844 259.121094 L 181.703125 258.253906 L 175.941406 257.160156 L 173.777344 257.269531 L 171.554688 257.816406 L 169.394531 256.007813 L 166.980469 254.8125 L 164.359375 254.207031 L 161.671875 254.21875 L 158.695313 254.984375 L 155.921875 256.585938 L 153.691406 258.878906 L 152.167969 261.691406 L 150.9375 264.777344 L 150.632813 268.210938 L 151.105469 270.855469 L 152.167969 273.324219 L 152.351563 276.128906 L 153.253906 278.925781 L 154.75 281.308594 L 156.671875 283.1875 L 162.011719 286.445313 L 164.378906 287.4375 L 167.292969 287.910156 L 168.523438 287.792969 L 168.226563 288.992188 L 166.234375 288.695313 L 163.3125 290.011719 L 161.832031 291.855469 L 160.46875 292.789063 L 158.894531 292.695313 L 155.855469 293.195313 L 155.832031 293.207031 L 155.160156 292.984375 L 149.984375 289.230469 L 149.214844 288.042969 L 149.230469 287.167969 L 148.945313 287.023438 L 148.15625 288.078125 L 147.988281 288.910156 L 148.375 290.554688 L 149.574219 292.960938 L 149.839844 295.726563 L 149.308594 296.871094 L 148.746094 297.058594 L 145.816406 295.78125 L 144.601563 294.238281 L 144.507813 293.621094 L 143.632813 292.355469 L 141.613281 291.4375 L 140.164063 290.433594 L 138.398438 288.636719 L 137.464844 288.296875 L 135.511719 289.683594 L 134.605469 291.238281 L 135.148438 292.910156 L 133.527344 292.773438 L 133.472656 292.679688 L 132.597656 291.675781 L 132.375 290.464844 L 131.59375 288.457031 L 130.378906 286.527344 L 129.355469 285.433594 L 129.300781 285.09375 L 129.71875 282.265625 L 132.777344 280.410156 L 134.003906 276.632813 L 137.757813 273.035156 L 138.601563 268.871094 L 140.917969 265.085938 L 143.644531 263.800781 L 144.390625 261.886719 L 144.195313 260.621094 L 142.601563 256.71875 L 139.777344 254.832031 L 137.378906 252.511719 L 138.460938 244.011719 L 140.539063 242.308594 L 142.402344 242.308594 L 142.886719 242.511719 L 146.15625 243.175781 L 148.300781 243.253906 L 147.28125 242.847656 L 147.941406 242.972656 L 151.132813 242.632813 L 153.3125 241.851563 L 155.289063 240.652344 L 156.992188 239.089844 L 158.355469 237.21875 L 159.636719 234 L 159.921875 230.675781 L 161.414063 228.585938 L 162.40625 226.222656 L 162.828125 224.078125 L 162.839844 221.894531 L 162.25 219.136719 L 161.015625 216.597656 L 158.480469 213.269531 L 156.046875 211.292969 L 159.5625 209.210938 L 162.207031 205.925781 L 163.503906 201.917969 L 163.289063 197.710938 L 161.660156 193.960938 L 159.921875 191.90625 L 158.167969 188.785156 L 155.964844 186.644531 L 153.636719 185.300781 L 151.183594 184.550781 L 148.5 184.359375 L 145.96875 184.757813 L 147.863281 182.046875 L 148.894531 179.039063 L 149.0625 175.738281 L 148.292969 172.523438 L 150.289063 170.910156 L 151.886719 168.898438 L 153.003906 166.585938 L 153.566406 164.214844 L 153.613281 161.648438 L 153.097656 159.132813 L 151.554688 155.644531 L 150.152344 153.574219 L 155.171875 152.503906 L 158.722656 150.484375 L 160.257813 148.9375 L 161.480469 147.136719 L 162.34375 145.136719 L 162.820313 143.011719 L 162.894531 140.835938 L 162.558594 138.683594 L 161.773438 136.515625 L 160.652344 134.648438 L 159.121094 132.9375 L 157.300781 131.554688 L 155.246094 130.558594 L 154.953125 130.480469 L 157.023438 130.710938 L 160.90625 130.023438 L 165.925781 130.039063 L 169.472656 129.738281 L 173.003906 128.585938 L 173.824219 127.980469 L 177.664063 128.609375 L 178 127.714844 L 177.503906 127.214844 L 177.972656 125.796875 Z M 206.445313 312.09375 L 203.925781 311.601563 L 201.488281 311.660156 L 199.113281 312.226563 L 196.800781 313.34375 L 194.882813 314.847656 L 193.246094 316.828125 L 192.085938 319.121094 L 191.476563 321.484375 L 191.367188 323.792969 L 191.714844 326.078125 L 192.507813 328.25 L 193.714844 330.222656 L 196.101563 333.082031 L 197.855469 334.589844 L 200.234375 335.863281 L 202.839844 336.558594 L 205.152344 336.660156 L 207.4375 336.304688 L 209.722656 335.445313 L 211.675781 334.207031 L 213.347656 332.605469 L 215.5 329.730469 L 216.496094 327.652344 L 217.0625 325.414063 L 217.171875 322.984375 L 216.769531 320.585938 L 215.9375 318.433594 L 214.617188 316.390625 L 213 314.75 L 210.976563 313.394531 L 208.839844 312.53125 Z M 232.871094 471.550781 L 231.871094 472.320313 L 230.464844 474.011719 L 229.960938 474.269531 L 228.117188 474.644531 L 222.296875 470.886719 L 220.207031 471.1875 L 221.476563 469.683594 L 227.316406 466.367188 L 232.550781 467.761719 L 234.171875 469.894531 Z M 152.535156 376.039063 L 153.089844 377.800781 L 154.34375 380 L 156.046875 381.875 L 153.984375 384.109375 L 152.644531 386.691406 L 152.566406 386.542969 L 153.179688 384.597656 L 154.652344 381.796875 L 152.269531 378.203125 Z M 144.21875 361.640625 L 143.855469 359.761719 L 142.527344 357.03125 L 142.082031 356.519531 L 142.152344 354.738281 L 144.414063 354.738281 L 148.164063 355.402344 L 150.785156 354.96875 L 151.039063 355.578125 L 155.546875 356.503906 L 154.066406 358.859375 L 150.984375 360.816406 L 147.425781 363.976563 L 146.109375 363.875 Z M 148.292969 308.539063 L 148.292969 317.265625 L 147.847656 318.148438 L 145.464844 320.492188 L 144.039063 321.035156 L 142.109375 322.25 L 141.417969 322.898438 L 139.824219 322.464844 L 137.933594 323.433594 L 137.675781 322.921875 L 139.617188 317.226563 L 140.476563 316.214844 L 142.300781 315.023438 L 144.765625 310.230469 L 145.863281 309.40625 Z M 117.3125 268.863281 L 117.425781 266.941406 L 116.953125 262.929688 L 117.226563 262.640625 L 117.992188 256.269531 L 120.664063 249.058594 L 119.164063 246.890625 L 119.175781 246.558594 L 120.089844 246.808594 L 122.53125 246.773438 L 125.03125 246.183594 L 125.976563 246.417969 L 126.1875 249.699219 L 124.449219 251.558594 L 123.367188 254.191406 L 121.183594 263.964844 L 122.0625 266.289063 L 120.679688 268.164063 L 119.945313 268.597656 Z M 107.3125 254.125 L 105.644531 253.9375 L 104.074219 252.464844 L 103.628906 252.183594 L 104.988281 247.472656 L 102.980469 247.105469 L 101.464844 249.738281 L 100.578125 250.640625 L 100.136719 250.46875 L 98.726563 250.214844 L 99.023438 248.875 L 100.648438 243.8125 L 100.675781 243.78125 L 102.445313 243.214844 L 103.882813 243.558594 L 106.871094 241.457031 L 108.433594 240.808594 L 108.667969 241.335938 L 108.480469 243.175781 L 108.777344 246.292969 L 109.046875 247.320313 L 109.929688 248.226563 L 110.335938 251.851563 L 108.992188 253.109375 Z M 107.398438 233.347656 L 108.417969 233.925781 L 107.535156 236.1875 L 106.976563 236.632813 L 105.476563 236.191406 L 106.28125 234.464844 Z M 110.707031 240.234375 L 111.363281 241.53125 L 112.894531 243.433594 L 113.507813 243.867188 L 111.886719 247.292969 L 110.550781 247.070313 L 109.476563 246.144531 L 109.292969 243.285156 L 109.585938 242.089844 Z M 131.617188 246.453125 L 134.289063 245.960938 L 134.46875 245.890625 L 134.707031 246.3125 L 135.339844 249.003906 L 135.222656 250.96875 L 134.8125 251.347656 L 132.589844 248.835938 Z M 153.492188 130.089844 L 153.15625 130 L 153.449219 130 Z M 179.054688 120.449219 L 179.148438 120.167969 L 179.46875 116.496094 L 179.445313 115.019531 L 181.269531 116.636719 L 182.96875 119.6875 L 182.941406 120.441406 L 180.816406 120.886719 L 179.261719 120.746094 Z M 179.417969 113.332031 L 179.308594 106.617188 L 182.253906 105.011719 L 184.519531 106.003906 L 186.230469 108.273438 L 187.324219 111.371094 L 189.425781 112.382813 L 190.734375 113.441406 L 191.546875 114.902344 L 189.996094 116.5625 L 186.777344 113.90625 L 184.832031 114.03125 L 181.886719 115.097656 Z M 186.195313 99.75 L 186.679688 98.667969 L 186.777344 97.710938 L 188.613281 98.375 L 189.644531 99.757813 L 189.558594 100.558594 L 189.007813 101.453125 L 189.121094 100.265625 L 187.730469 99.058594 L 186.953125 98.894531 L 186.835938 99.515625 L 186.335938 100.011719 Z M 219.269531 48.15625 L 221.871094 47.488281 L 223.429688 46.433594 L 223.417969 46.992188 L 223.628906 47.851563 L 228.960938 48.949219 L 227.699219 56.234375 L 226.355469 57.007813 L 225.6875 56.476563 L 226.023438 58.453125 L 227.246094 61.769531 L 226.800781 62.460938 L 226.285156 62.238281 L 225.40625 63.738281 L 225.265625 67.207031 L 224.308594 74.617188 L 223.472656 74.351563 L 222.691406 73.390625 L 222.054688 71.832031 L 222.910156 68.203125 L 223.429688 67.644531 L 224.308594 63.570313 L 223.632813 57.773438 L 221.078125 57.210938 L 222.089844 58.292969 L 222.21875 59.898438 L 220.292969 61.703125 L 218.738281 60.40625 L 218.746094 59.554688 L 215.621094 58.289063 L 215.003906 56.183594 L 215.039063 55.8125 L 215.808594 55.171875 L 220.695313 54.34375 L 222.421875 53.527344 L 222.960938 52.8125 L 220.238281 48.339844 Z M 226.003906 44.320313 L 227.957031 42.078125 L 229.148438 39.558594 L 229.675781 36.996094 L 229.761719 37.023438 L 229.886719 38.648438 L 229.410156 41.285156 L 229.585938 43.238281 L 229.175781 46.582031 L 227.496094 47.179688 L 226.742188 47.023438 L 226.078125 45.398438 Z M 230.554688 36.222656 L 231.09375 35.839844 L 230.445313 37.261719 Z M 140.539063 129.875 L 147.304688 130 L 145.21875 130.558594 L 143.269531 131.488281 L 139.871094 134.46875 L 140.445313 132.144531 Z M 132.785156 153.136719 L 132.855469 149.917969 L 133.015625 149.894531 L 133.449219 149.351563 L 133.714844 146.386719 L 133.191406 146.265625 L 132.652344 145.199219 L 132.074219 142.171875 L 132.621094 141.660156 L 135.539063 142.054688 L 137.144531 141.8125 L 137.246094 144.039063 L 138.167969 146.964844 L 139.824219 149.546875 L 136.046875 150.699219 Z M 136.808594 138.972656 L 137.757813 138.101563 L 137.28125 140.3125 Z M 125.363281 202.390625 L 127.804688 203.011719 L 130.320313 203.09375 L 131.320313 205.386719 L 132.140625 206.523438 L 129.277344 209.457031 L 128.695313 209.898438 L 127.714844 205.839844 Z M 132.554688 207.097656 L 132.785156 207.414063 L 131.996094 207.789063 Z M 111.84375 129.875 L 112.699219 129.875 L 113.019531 130.191406 L 113.253906 130.90625 L 112.875 133.613281 L 113.261719 135.609375 L 112.328125 137.878906 L 110.105469 140.078125 L 109.976563 140.929688 L 109.523438 141.507813 L 105.710938 140.433594 L 101.882813 140.671875 L 99.976563 141.476563 L 99.199219 139.730469 L 100.195313 139.105469 L 101.769531 137.628906 L 105.410156 135.777344 L 107.429688 133.6875 L 111.003906 130.808594 Z M 99.242188 141.785156 L 98.859375 141.949219 L 98.214844 141.941406 L 97.453125 141.691406 L 97.335938 140.675781 L 98.265625 140.320313 L 98.367188 140.253906 L 99.277344 141.320313 Z M 97.578125 142.804688 L 97.363281 143 L 97.359375 142.890625 Z M 96.496094 143.785156 L 95.390625 144.785156 L 93.769531 147.542969 L 92.960938 150.640625 L 92.996094 152.316406 L 92.941406 152.324219 L 92.058594 151.863281 L 91.273438 150.875 L 92.699219 149.40625 L 92.078125 146.949219 L 92.828125 145.757813 L 93.640625 143.628906 L 94.015625 141.507813 L 96.136719 141.132813 L 96.171875 141.121094 L 96.675781 141.359375 L 95.960938 142.378906 Z M 93.058594 153.945313 L 93.449219 155.199219 L 93.378906 155.476563 L 91.824219 155.515625 L 91.882813 154.726563 L 92.882813 153.957031 Z M 93.957031 156.828125 L 94.015625 157.015625 L 92.398438 159.007813 L 91.898438 160.011719 L 90.550781 158.175781 L 90.507813 157.148438 L 91.820313 157.980469 Z M 90.621094 165.3125 L 90.601563 166.371094 L 90.75 167.070313 L 88.9375 171.015625 L 88.773438 171.246094 L 86.902344 171.355469 L 84.875 171.125 L 84.914063 169.441406 L 82.996094 168.253906 L 81.464844 168.371094 L 80.957031 167.921875 L 80.832031 167.601563 L 80.113281 166.722656 L 81.617188 164.507813 L 86.457031 164.699219 L 87.222656 163.867188 L 88.554688 163.523438 Z M 98.015625 176.097656 L 98.558594 176.347656 L 101.199219 176.886719 L 102.632813 176.863281 L 101.867188 177.609375 L 102.007813 179.089844 L 101.671875 179.800781 L 98.648438 178.089844 L 98.414063 176.53125 Z M 103.101563 176.859375 L 103.507813 176.851563 L 105.644531 176.398438 L 109.523438 176.398438 L 111.230469 178.570313 L 111.921875 179.113281 L 112.054688 181.640625 L 112.308594 181.792969 L 111.902344 182.363281 L 110.898438 184.726563 L 110.4375 187.25 L 110.445313 187.425781 L 107.277344 187.777344 L 104.472656 183.015625 L 103.78125 181.25 L 105.464844 179.976563 L 107.179688 181.675781 L 107.667969 181.742188 L 107.789063 181.460938 Z M 113.378906 180.261719 L 113.398438 180.277344 L 113.386719 180.292969 Z M 111.347656 198.917969 L 109.246094 199.773438 L 108.972656 199.578125 L 108.9375 198.890625 L 110.578125 197.179688 L 111.398438 197.769531 L 111.5 198.265625 Z M 101.855469 192.03125 L 101.324219 191.371094 L 101.515625 191.273438 L 102.835938 191.832031 Z M 85.777344 188.679688 L 85.414063 188.878906 L 84.328125 188.382813 L 82.6875 188.554688 L 82.128906 188.101563 L 81.921875 187.375 L 81.828125 186.738281 L 82.042969 186.152344 L 82.472656 183.53125 L 82.527344 175.984375 L 83.4375 175.515625 L 85.28125 176.539063 L 86.578125 178.347656 L 85.882813 178.945313 L 85.144531 178.476563 L 85.03125 179.058594 L 85.140625 186.4375 L 86.054688 188.15625 Z M 81.535156 192.621094 L 79.699219 194.164063 L 79.054688 195.058594 L 77.855469 194.78125 L 78.027344 194.394531 L 78.289063 193.035156 L 80.441406 190.269531 L 81.117188 190.9375 Z M 97.890625 211.292969 L 100.238281 209.40625 L 101.363281 207.964844 L 102.164063 207.824219 L 101.878906 208.917969 L 101.84375 209.628906 L 101.386719 210.445313 L 99.425781 212.117188 L 96.976563 213.15625 L 96.695313 212.414063 Z M 93.109375 215.410156 L 90.136719 215.167969 L 92.261719 214.796875 L 94.390625 213.980469 L 95.21875 213.457031 L 95.671875 214.59375 L 93.804688 214.847656 Z M 88.945313 499.121094 L 88.542969 499.441406 L 88.566406 499.308594 L 88.941406 499.117188 Z M 286.679688 439.636719 L 283.058594 438.976563 L 282.164063 437.605469 L 282.484375 436.070313 L 286.839844 437.054688 L 287.960938 438.832031 Z M 236.835938 466.113281 L 235.136719 465.644531 L 236.523438 463.683594 L 237.195313 464.164063 L 237.5 465.839844 Z M 88.238281 162.863281 L 87.917969 162.585938 L 88.445313 161.890625 L 89.367188 161.550781 L 89.65625 162.238281 Z M 85.394531 175.835938 L 84.546875 175.601563 L 83.046875 174.507813 L 82.722656 173.699219 L 82.824219 172.589844 L 83.972656 171.789063 L 86.566406 172.507813 L 87.433594 173.25 L 87.285156 175.226563 Z M 106.597656 197.398438 L 105.582031 196.804688 L 103.613281 194.261719 L 105.34375 192.390625 L 106.722656 192.214844 L 107.992188 192.835938 L 108.445313 193.703125 L 108.09375 196.351563 L 107.546875 197.015625 Z M 130.613281 263.773438 L 129.152344 263.667969 L 126.582031 261.613281 L 125.375 256.128906 L 125.988281 253.21875 L 128.179688 251.246094 L 129.539063 251.441406 L 131.390625 253.015625 L 132.984375 258.382813 L 133.019531 262.765625 L 132.308594 263.453125 Z M 130.613281 263.773438 "/>
<path style=" stroke:none;fill-rule:nonzero;fill:rgb(80.392157%,58.431373%,4.705882%);fill-opacity:1;" d="M 146.355469 188.03125 L 146.070313 189.828125 L 145.242188 191.449219 L 143.957031 192.734375 L 142.335938 193.5625 L 140.539063 193.847656 L 138.742188 193.5625 L 137.121094 192.734375 L 135.832031 191.449219 L 135.007813 189.828125 L 134.722656 188.03125 L 135.007813 186.234375 L 135.832031 184.613281 L 137.121094 183.324219 L 138.742188 182.5 L 140.539063 182.214844 L 142.335938 182.5 L 143.957031 183.324219 L 145.242188 184.613281 L 146.070313 186.234375 Z M 146.355469 188.03125 "/>
<path style=" stroke:none;fill-rule:nonzero;fill:rgb(80.392157%,58.431373%,4.705882%);fill-opacity:1;" d="M 130.847656 219.046875 L 130.773438 219.515625 L 127.28125 218.265625 L 127.882813 216.460938 L 128.195313 216.742188 L 128.945313 216.671875 L 129.90625 215.964844 L 130.5625 217.25 Z M 130.632813 220.382813 L 129.734375 222.464844 L 128.449219 223.75 L 126.828125 224.578125 L 125.03125 224.863281 L 122.90625 224.410156 L 124.160156 221.96875 L 126.660156 220.210938 Z M 127.902344 214.0625 L 129.179688 215.074219 L 128.550781 215.441406 L 127.980469 214.949219 Z M 119.992188 216.285156 L 121.613281 214.339844 L 123.234375 213.515625 L 125.515625 213.308594 L 123.476563 215.398438 L 120.675781 217.269531 Z M 123.378906 222.417969 L 122.582031 222.078125 L 123.082031 221.191406 L 124.476563 221.046875 Z M 120.207031 222.226563 L 119.5 220.84375 L 119.214844 219.046875 L 119.441406 217.617188 L 121.195313 219.144531 L 120.902344 221.207031 Z M 120.207031 222.226563 "/>
<path style=" stroke:none;fill-rule:nonzero;fill:rgb(80.392157%,58.431373%,4.705882%);fill-opacity:1;" d="M 157.984375 393.507813 L 157.699219 395.304688 L 156.875 396.925781 L 155.585938 398.210938 L 153.964844 399.039063 L 151.375 399.199219 L 153.054688 396.195313 L 154.199219 391.746094 L 153.734375 388.820313 L 153.246094 387.863281 L 155.585938 388.804688 L 156.875 390.089844 L 157.699219 391.710938 Z M 157.984375 393.507813 "/>
<path style=" stroke:none;fill-rule:nonzero;fill:rgb(80.392157%,58.431373%,4.705882%);fill-opacity:1;" d="M 108.691406 489.414063 L 110.351563 490.890625 L 111.007813 492.179688 L 110.375 492.488281 L 110.242188 494.183594 L 109.421875 495.128906 L 106.824219 495.664063 L 105.398438 494.824219 L 105.628906 491.574219 L 106.074219 490.5625 Z M 108.691406 489.414063 "/>
<path style=" stroke:none;fill-rule:nonzero;fill:rgb(80.392157%,58.431373%,4.705882%);fill-opacity:1;" d="M 107.429688 223.90625 L 106.472656 226.339844 L 106.027344 226.585938 L 104.691406 226.273438 L 103.734375 224.277344 L 103.851563 223.371094 L 104.191406 223.09375 L 105.628906 223.050781 L 106.039063 223.617188 L 106.972656 224.074219 Z M 102.664063 224.511719 L 102.054688 224.097656 L 102.589844 223.230469 L 103.304688 222.808594 L 103.460938 223.023438 Z M 102.664063 224.511719 "/>
</g>
</svg>
