<?xml version="1.0" encoding="UTF-8"?>
<svg xmlns="http://www.w3.org/2000/svg" xmlns:xlink="http://www.w3.org/1999/xlink" width="378pt" height="504pt" viewBox="0 0 378 504" version="1.1">
<g id="data">
<rect x="0" y="0" width="378" height="504" style="fill:rgb(100%,100%,100%);fill-opacity:1;stroke:none;"/>
<path style=" stroke:none;fill-rule:nonzero;fill:rgb(100%,100%,100%);fill-opacity:1;" d="M 53.308594 504 L 324.691406 504 L 324.691406 0 L 53.308594 0 Z M 53.308594 504 "/>
<path style=" stroke:none;fill-rule:nonzero;fill:rgb(22.745098%,53.333333%,16.078431%);fill-opacity:1;" d="M 149.878906 367.414063 L 148.6875 368.640625 L 147.1875 369.46875 L 145.511719 369.824219 L 145.070313 369.789063 L 147.132813 367.984375 L 147.953125 364.523438 L 151.550781 360.582031 L 153.09375 359.609375 L 154.941406 359.808594 L 160.492188 357.457031 L 163.644531 357.28125 L 167.339844 357.714844 L 172.597656 355.179688 L 173.933594 355.046875 L 174.484375 355.082031 L 179.910156 359.441406 L 180.433594 358.429688 L 177.679688 353.460938 L 178.242188 352.835938 L 180.867188 352.449219 L 181.503906 352.695313 L 181.914063 353.875 L 182.898438 354.332031 L 184.078125 356.789063 L 185.613281 357.902344 L 185.882813 357.875 L 185.886719 357.886719 L 186.023438 359.332031 L 187.683594 359.65625 L 189.796875 360.421875 L 194.128906 361.15625 L 195.511719 361.140625 L 197.367188 360.707031 L 199.167969 360.574219 L 200.925781 361 L 202.46875 361.945313 L 203.644531 363.320313 L 204.34375 364.992188 L 204.492188 366.792969 L 204.082031 368.554688 L 203.25 370.601563 L 203.058594 372.050781 L 203.238281 373.488281 L 203.808594 374.902344 L 204.878906 376.300781 L 207.664063 378.613281 L 208.996094 379.316406 L 210.414063 379.671875 L 211.515625 379.699219 L 212.566406 379.515625 L 213.570313 379.144531 L 214.449219 378.601563 L 215.707031 377.324219 L 216.839844 375.234375 L 217.90625 373.824219 L 219.347656 372.800781 L 221.3125 371.816406 L 222.472656 370.804688 L 223.085938 369.953125 L 223.511719 369.007813 L 224.515625 362.328125 L 224.417969 361.277344 L 223.566406 357.65625 L 222.894531 356.332031 L 221.457031 354.695313 L 220.5 353.1875 L 220.046875 351.460938 L 219.761719 348.726563 L 218.964844 346.980469 L 217.726563 345.660156 L 215.300781 344.339844 L 213.941406 343.320313 L 212.9375 341.953125 L 212.371094 340.355469 L 212.289063 338.660156 L 212.699219 337.011719 L 213.582031 334.875 L 213.769531 333.464844 L 213.578125 331.9375 L 212.699219 329.816406 L 212.277344 328.050781 L 212.421875 326.238281 L 213.117188 324.5625 L 214.296875 323.179688 L 215.902344 321.804688 L 216.710938 320.679688 L 217.25 319.28125 L 217.417969 317.925781 L 217.226563 316.4375 L 216.71875 315.148438 L 215.902344 314.007813 L 214.296875 312.636719 L 213.199219 311.378906 L 212.5 309.867188 L 212.261719 308.214844 L 212.261719 300.460938 L 212.613281 298.472656 L 213.621094 296.722656 L 215.167969 295.425781 L 217.066406 294.734375 L 218.640625 294.457031 L 219.714844 294.046875 L 220.6875 293.433594 L 221.855469 292.339844 L 223.292969 291.351563 L 224.957031 290.835938 L 225.152344 290.835938 L 225.945313 294.183594 L 229.304688 299.0625 L 238.582031 303.390625 L 238.519531 303.535156 L 236.910156 306.121094 L 236.503906 308.089844 L 236.800781 310.078125 L 237.796875 311.898438 L 239.046875 313.03125 L 240.832031 313.839844 L 243.179688 314.175781 L 248.632813 314.039063 L 249.289063 315.722656 L 252.390625 319.148438 L 254.824219 320.273438 L 254.71875 321.324219 L 254.003906 322.960938 L 252.824219 324.308594 L 251.292969 325.230469 L 249.320313 326.035156 L 248.261719 326.800781 L 247.328125 327.890625 L 246.730469 329.070313 L 246.417969 330.371094 L 246.410156 331.746094 L 246.683594 332.980469 L 247.5 334.921875 L 248.21875 335.890625 L 249.167969 336.707031 L 251.585938 337.855469 L 252.148438 338.175781 L 245.550781 339.511719 L 244.589844 338.644531 L 243.40625 338.558594 L 241.210938 339.871094 L 241.886719 340.445313 L 246.324219 340.394531 L 249.617188 339.34375 L 251.976563 339.082031 L 254.382813 342.558594 L 260.535156 347.621094 L 263.042969 349.058594 L 263.664063 349.039063 L 266.046875 352.214844 L 268.980469 359.304688 L 269.535156 362.402344 L 269.210938 365.21875 L 264.953125 369.09375 L 261.394531 373.164063 L 260.601563 374.816406 L 262.84375 374.3125 L 264.9375 375.519531 L 266.9375 378.226563 L 270.21875 378.804688 L 270.625 378.746094 L 271.910156 376.796875 L 272.234375 374.960938 L 273.40625 371.914063 L 274.707031 370.632813 L 277.851563 370.085938 L 283.34375 370.234375 L 284.253906 370.867188 L 286.703125 370.742188 L 293.949219 371.515625 L 296.914063 372.84375 L 304.070313 378.085938 L 305.367188 380.105469 L 306.730469 384.164063 L 307.179688 391.25 L 306.777344 393.191406 L 306.890625 393.976563 L 305.789063 396.917969 L 303.519531 407.832031 L 297.144531 414.53125 L 295.578125 412.011719 L 292.742188 410.515625 L 292.480469 410.636719 L 293.898438 413.703125 L 295.890625 416.628906 L 296.3125 416.765625 L 296.164063 417.742188 L 294.574219 419.804688 L 292.191406 421.289063 L 290.003906 421.65625 L 289.660156 421.574219 L 288.214844 419.332031 L 284.976563 421.730469 L 280.71875 424.230469 L 282.339844 425.378906 L 285.105469 424.398438 L 286.097656 423.375 L 286.894531 423.164063 L 287.328125 423.710938 L 287.632813 428.84375 L 285.6875 430.875 L 283.441406 432.558594 L 282.84375 432.699219 L 279.644531 432.160156 L 274.75 433.78125 L 272.609375 436.117188 L 274.253906 436.015625 L 275.152344 434.667969 L 276.683594 434.363281 L 278.285156 434.328125 L 281.054688 434.949219 L 281.828125 435.589844 L 281.691406 436.328125 L 279.554688 436.347656 L 277.390625 437.65625 L 277.96875 438.546875 L 281.382813 438.964844 L 286.863281 440.339844 L 289.394531 439.9375 L 291.074219 438.957031 L 299.742188 437.757813 L 300.988281 440.148438 L 300.773438 446.324219 L 300.335938 447.820313 L 299.394531 449.050781 L 296.972656 450.242188 L 295.839844 450.375 L 292.621094 451.640625 L 291.179688 452.742188 L 289.847656 454.226563 L 289.460938 455.09375 L 289.214844 456.324219 L 289.464844 457.886719 L 286.253906 458.289063 L 284.1875 457.9375 L 281.042969 460.90625 L 278.484375 461.933594 L 274.789063 462.777344 L 272.597656 463.816406 L 270.539063 466.589844 L 269.761719 466.949219 L 259.269531 463.777344 L 256.070313 463.507813 L 244.628906 465.699219 L 242.703125 466.390625 L 242.113281 466.964844 L 241.902344 467.984375 L 241.359375 468.164063 L 238.210938 466.1875 L 238.632813 465.4375 L 239.46875 464.933594 L 237.714844 463.296875 L 231.496094 463.171875 L 231.378906 463.496094 L 232.574219 464.835938 L 232.214844 465.75 L 231.738281 466.042969 L 226.691406 465.496094 L 219.566406 468.449219 L 217.054688 467.824219 L 210.222656 468.96875 L 208.164063 468.875 L 207.273438 468.058594 L 206.238281 469.769531 L 209.429688 471.089844 L 209.714844 470.9375 L 210.1875 472.128906 L 209.566406 473.890625 L 206.84375 474.453125 L 204.453125 473.097656 L 203.015625 472.699219 L 197.625 472.007813 L 196.175781 472.65625 L 195.679688 473.863281 L 195.832031 474.871094 L 196.757813 475.523438 L 196.488281 476.304688 L 195.917969 475.996094 L 194.851563 473.972656 L 190.289063 470.589844 L 185.898438 468.519531 L 183.121094 467.984375 L 181.648438 469.066406 L 176.207031 469.78125 L 174.339844 470.335938 L 168.992188 473.234375 L 168.214844 474.070313 L 167.203125 476.179688 L 162.746094 489.226563 L 160.929688 490.242188 L 158.269531 489.722656 L 157.554688 489.058594 L 156.527344 486.851563 L 154.683594 485.4375 L 153.613281 485.542969 L 152.417969 486.300781 L 151.738281 486.164063 L 148.46875 482.535156 L 146.332031 482.695313 L 146.140625 480.648438 L 145.523438 479.144531 L 144.144531 477.554688 L 141.582031 476.125 L 140.175781 475.027344 L 139.171875 473.558594 L 138.65625 471.851563 L 138.683594 470.070313 L 139.246094 468.378906 L 140.296875 466.941406 L 141.734375 465.886719 L 143.605469 464.914063 L 144.644531 464 L 145.488281 462.765625 L 145.960938 461.46875 L 146.113281 460.078125 L 145.929688 458.707031 L 145.371094 457.324219 L 144.382813 455.972656 L 145.761719 455.429688 L 148.429688 452.488281 L 148.105469 447.519531 L 150.691406 446.738281 L 152 447.324219 L 154.542969 448.976563 L 156.601563 449.429688 L 158.574219 449.148438 L 160.445313 448.136719 L 161.472656 447.058594 L 161.957031 446.15625 L 164.597656 446.761719 L 166.046875 446.148438 L 167.527344 446.515625 L 169.484375 447.285156 L 170.039063 448.109375 L 170.757813 448.421875 L 173.15625 448.464844 L 180.570313 447.503906 L 181.109375 445.632813 L 181.210938 443.15625 L 182.519531 440.25 L 190.867188 432.195313 L 195.792969 425.3125 L 197.929688 424.472656 L 198.285156 423.78125 L 198.070313 423.238281 L 197.8125 423.082031 L 196.09375 424.355469 L 192.90625 427.300781 L 190.570313 429.988281 L 189.222656 431.449219 L 185.628906 432.957031 L 183.714844 433.246094 L 182.441406 433.0625 L 178.394531 435.230469 L 177.398438 436.808594 L 177.039063 438.671875 L 176.445313 439.273438 L 174.058594 439.917969 L 170.558594 439.851563 L 168.777344 439.445313 L 169.089844 438.703125 L 169.363281 436.929688 L 169.160156 435.375 L 168.539063 433.917969 L 167.03125 432.058594 L 166.125 430.480469 L 165.746094 428.699219 L 165.9375 426.886719 L 166.683594 425.226563 L 167.902344 423.875 L 169.480469 422.964844 L 171.265625 422.59375 L 173.074219 422.789063 L 174.738281 423.53125 L 176.988281 425.003906 L 178.613281 425.464844 L 180.304688 425.429688 L 182.039063 424.84375 L 183.289063 423.953125 L 184.34375 422.644531 L 184.785156 421.695313 L 185.242188 419.472656 L 185.527344 418.519531 L 186.382813 416.335938 L 186.53125 414.519531 L 186.132813 412.792969 L 185.222656 411.273438 L 183.214844 409.5 L 182.070313 408.121094 L 181.398438 406.460938 L 181.265625 404.675781 L 181.476563 402.023438 L 181.054688 400.210938 L 180.4375 399.089844 L 178.929688 397.472656 L 177.980469 396.105469 L 177.457031 394.523438 L 177.15625 392.808594 L 176.769531 391.8125 L 176.199219 390.890625 L 175.09375 389.691406 L 174 387.96875 L 173.5625 385.976563 L 173.84375 383.957031 L 174.804688 382.160156 L 176.75 379.683594 L 177.136719 378.746094 L 177.464844 376.953125 L 177.890625 375.597656 L 178.632813 374.382813 L 179.929688 372.75 L 180.472656 371.542969 L 180.734375 369.40625 L 180.042969 366.449219 L 179.941406 365.136719 L 178.191406 364.769531 L 176.496094 364.125 L 175.511719 363.972656 L 172.289063 364.382813 L 171.554688 364.429688 L 159.921875 364.429688 L 158.558594 364.269531 L 156.835938 363.851563 L 154.941406 363.800781 L 154.738281 363.761719 L 154.246094 364.046875 L 152.621094 364.667969 L 151.730469 365.222656 L 150.882813 366.015625 Z M 229.375 409.753906 L 228.171875 410.738281 L 227.441406 411.628906 L 226.902344 412.644531 L 226.574219 413.75 L 226.476563 414.878906 L 226.621094 416.117188 L 226.976563 417.195313 L 227.542969 418.179688 L 228.410156 419.160156 L 230.339844 420.664063 L 231.335938 421.203125 L 232.429688 421.546875 L 233.667969 421.667969 L 234.773438 421.550781 L 235.941406 421.179688 L 237.007813 420.574219 L 237.84375 419.835938 L 238.589844 418.84375 L 239.070313 417.820313 L 239.375 416.585938 L 239.53125 414.726563 L 239.304688 412.726563 L 238.933594 411.558594 L 238.296875 410.433594 L 237.5 409.550781 L 236.511719 408.820313 L 235.40625 408.320313 L 234.222656 408.058594 L 233.011719 408.054688 L 231.824219 408.300781 L 230.710938 408.789063 Z M 144.914063 351.140625 L 145.066406 351.21875 L 146.800781 352.414063 L 148.105469 352.90625 L 149.507813 353.074219 L 149.984375 353.019531 L 151.039063 355.578125 L 155.546875 356.503906 L 154.066406 358.859375 L 150.984375 360.816406 L 147.425781 363.976563 L 146.109375 363.875 L 144.195313 361.613281 L 142.050781 357.363281 L 142.246094 352.273438 L 144.664063 351.183594 Z M 181.425781 334.6875 L 182.828125 334.410156 L 184.632813 334.621094 L 186.285156 335.378906 L 187.621094 336.609375 L 188.511719 338.191406 L 188.871094 339.96875 L 188.996094 342.859375 L 188.714844 344.902344 L 187.738281 346.722656 L 185.863281 349.085938 L 185.121094 351.316406 L 184.980469 352.8125 L 185.125 354.925781 L 185.316406 355.667969 L 183.8125 354.640625 L 179.976563 346.332031 L 183.371094 340.257813 L 185.429688 339.015625 L 185.140625 338.578125 L 182.683594 338.460938 L 181.554688 337.164063 L 181.355469 336.117188 Z M 254.433594 339.667969 L 255.5 340.054688 L 256.925781 340.210938 L 258.222656 340.046875 L 259.542969 339.542969 L 260.667969 338.761719 L 263.316406 342.46875 L 263.640625 343.980469 L 262.804688 345.191406 L 263.28125 343.65625 L 262.507813 342.839844 L 260.445313 342 L 258.378906 342.789063 L 257.507813 342.753906 L 256.035156 341.773438 Z M 186.367188 215.453125 L 187.640625 214.257813 L 189.210938 213.492188 L 190.9375 213.230469 L 194.816406 213.230469 L 196.484375 213.476563 L 197 213.714844 L 196.796875 214.386719 L 195.867188 215.914063 L 191.214844 219.742188 L 185.519531 221.085938 L 182.847656 221.226563 L 181.164063 222.5625 L 181.414063 221.539063 L 182.171875 219.773438 L 183.464844 218.351563 L 185.089844 217.074219 Z M 220.210938 276.652344 L 219.390625 277.011719 L 217.617188 277.191406 L 215.871094 276.828125 L 214.320313 275.957031 L 213.105469 274.652344 L 212.339844 273.042969 L 211.738281 271.019531 L 211.035156 269.828125 L 209.984375 268.765625 L 208.785156 268.042969 L 207.441406 267.621094 L 205.0625 267.382813 L 202.882813 267.5 L 201.996094 267.480469 L 199.65625 267.246094 L 197.460938 267.613281 L 195.539063 267.613281 L 193.722656 266.984375 L 192.210938 265.804688 L 191.167969 264.191406 L 190.707031 262.328125 L 190.875 260.414063 L 191.65625 258.660156 L 192.699219 257.089844 L 193.253906 255.683594 L 193.492188 254.484375 L 193.492188 253.335938 L 193.265625 252.222656 L 192.777344 251.09375 L 192.066406 250.089844 L 191.285156 249.359375 L 190.03125 248.625 L 188.328125 248.136719 L 183.425781 247.519531 L 180.257813 248.042969 L 178.582031 248.078125 L 176.96875 247.632813 L 175.546875 246.742188 L 174.4375 245.488281 L 173.734375 243.964844 L 173.492188 242.308594 L 173.492188 241.09375 L 178.0625 241.875 L 182.921875 243.167969 L 186.398438 241.730469 L 187.519531 239.417969 L 188.617188 238.355469 L 189.539063 238.171875 L 193.183594 238.5 L 199.339844 242.761719 L 206.488281 246.65625 L 208.910156 251.429688 L 212.824219 256.707031 L 213.265625 256.828125 L 213.433594 256.585938 L 214.601563 257.097656 L 217.371094 258.992188 L 218.679688 263.09375 L 218.894531 265.933594 L 218.261719 267.402344 Z M 173.492188 239.554688 L 173.492188 238.429688 L 173.898438 236.292969 L 175.0625 234.453125 L 176.15625 233.289063 L 176.777344 232.300781 L 177.15625 231.332031 L 177.464844 229.636719 L 177.960938 228.117188 L 178.855469 226.792969 L 180.195313 225.300781 L 180.402344 224.921875 L 184.609375 222.886719 L 186.457031 221.386719 L 187.289063 221.316406 L 189.085938 221.875 L 189.332031 222.921875 L 188.898438 224.691406 L 189.238281 225.953125 L 190.898438 226.824219 L 192.988281 227.191406 L 194.445313 228.726563 L 194.429688 229.304688 L 192.117188 231.570313 L 189.460938 232.730469 L 188.34375 232.882813 L 187.070313 232.078125 L 185.40625 232.042969 L 181.046875 235.800781 L 180.578125 237.003906 L 174.761719 240.109375 Z M 179.375 280.5625 L 181.121094 279.515625 L 183.121094 279.140625 L 185.128906 279.472656 L 186.898438 280.476563 L 188.9375 282.167969 L 191.390625 283.167969 L 192.871094 284.042969 L 194.027344 285.316406 L 194.765625 286.871094 L 195.015625 288.570313 L 194.753906 290.273438 L 194.007813 291.820313 L 192.84375 293.085938 L 191.359375 293.953125 L 189.683594 294.347656 L 186.835938 294.585938 L 185.0625 295.367188 L 183.175781 297.046875 L 181.625 298.039063 L 179.785156 298.84375 L 178.730469 299.628906 L 177.816406 300.730469 L 176.941406 302.519531 L 175.894531 304.007813 L 174.4375 305.101563 L 172.71875 305.691406 L 170.898438 305.71875 L 169.160156 305.183594 L 167.671875 304.136719 L 167.597656 304.039063 L 169.164063 299.058594 L 174.074219 288.722656 L 176.464844 286.417969 L 178.757813 285.980469 L 180.191406 286.804688 L 181.015625 286.710938 L 182.933594 286.238281 L 183.03125 285.160156 L 182.34375 284.746094 L 180.035156 285.351563 L 174.65625 284.980469 L 172.566406 284.292969 L 169.453125 284.03125 L 168.226563 288.992188 L 166.234375 288.695313 L 165.738281 288.917969 L 165.738281 288.832031 L 166.039063 286.984375 L 166.910156 285.332031 L 168.257813 284.039063 L 169.949219 283.242188 L 171.804688 283.019531 L 174.03125 283.117188 L 176.328125 282.695313 L 177.65625 282.050781 Z M 192.835938 167.964844 L 192.761719 169.804688 L 192.113281 171.527344 L 190.957031 172.964844 L 189.410156 173.964844 L 187.484375 174.816406 L 186.390625 175.660156 L 185.472656 176.835938 L 184.628906 178.75 L 183.738281 180.167969 L 182.480469 181.273438 L 180.964844 181.976563 L 179.308594 182.214844 L 175.429688 182.214844 L 174.542969 182.148438 L 171.972656 181.75 L 170.472656 181.960938 L 168.277344 183.0625 L 167.671875 183.621094 L 166.695313 184.929688 L 165.453125 186.15625 L 163.90625 186.960938 L 162.191406 187.265625 L 160.460938 187.054688 L 158.871094 186.335938 L 157.566406 185.179688 L 155.707031 182.949219 L 153.09375 181.410156 L 152.257813 180.8125 L 150.429688 179.242188 L 149.242188 178.664063 L 147.097656 178.214844 L 145.355469 177.542969 L 143.917969 176.355469 L 142.929688 174.777344 L 142.492188 172.964844 L 142.652344 171.105469 L 143.390625 169.394531 L 144.632813 168.003906 L 146.25 167.078125 L 148.078125 166.710938 L 149.707031 166.652344 L 150.507813 166.46875 L 152.667969 165.289063 L 153.660156 164.226563 L 154.753906 162.105469 L 156.070313 160.507813 L 161.363281 161.917969 L 164.042969 162.292969 L 165.242188 161.992188 L 166.015625 161.605469 L 166.75 160.257813 L 167.589844 160.183594 L 167.507813 160.828125 L 166.417969 162.609375 L 162.722656 166.96875 L 162.175781 167.183594 L 161.726563 166.894531 L 161.859375 165.949219 L 161.53125 165.507813 L 159.984375 165.785156 L 155.320313 167.769531 L 152.441406 170.8125 L 151.949219 171.945313 L 152.140625 172.144531 L 156.390625 168.453125 L 157.75 167.980469 L 160.300781 168.324219 L 161.058594 169.320313 L 157.109375 173.804688 L 156.367188 175.339844 L 156.707031 175.816406 L 157.367188 175.984375 L 158.261719 175.542969 L 161.140625 173.015625 L 167.808594 170.273438 L 170.480469 169.527344 L 170.492188 169.949219 L 171.554688 169.839844 L 173.589844 168.316406 L 174.046875 166.78125 L 178.648438 166.167969 L 179.285156 167.089844 L 180.148438 167.667969 L 184.320313 169.011719 L 187.675781 167.128906 Z M 157.230469 159.488281 L 157.953125 158.921875 L 159.230469 157.296875 L 161.28125 155.648438 L 163 154.824219 L 164.007813 154.03125 L 164.761719 153.117188 L 165.601563 151.511719 L 166.652344 150.085938 L 168.082031 149.039063 L 169.765625 148.476563 L 171.539063 148.445313 L 172.085938 148.605469 L 162.601563 156.074219 L 162.234375 157.082031 L 162.671875 158.175781 L 162.078125 159.632813 L 159.644531 160.289063 Z M 177.257813 322.554688 L 177.195313 321.554688 L 177.613281 319.855469 L 178.515625 318.355469 L 179.824219 317.195313 L 181.417969 316.472656 L 183.152344 316.257813 L 184.875 316.570313 L 185.480469 316.777344 L 187.003906 317.566406 L 187.386719 317.941406 L 184.742188 320.527344 L 179.199219 323.441406 L 177.335938 322.691406 Z M 187.820313 318.367188 L 188.230469 318.765625 L 189.054688 320.265625 L 189.402344 321.945313 L 189.246094 323.652344 L 188.601563 325.238281 L 187.523438 326.570313 L 187.328125 326.75 L 185.890625 327.714844 L 185.273438 327.898438 L 187.28125 323.421875 L 187.71875 320.933594 Z M 159.921875 201.601563 L 158.082031 201.300781 L 156.433594 200.4375 L 155.140625 199.09375 L 154.339844 197.410156 L 154.113281 195.558594 L 154.480469 193.730469 L 155.410156 192.117188 L 157.394531 189.675781 L 158.679688 188.503906 L 160.253906 187.769531 L 161.976563 187.527344 L 163.691406 187.808594 L 165.246094 188.582031 L 166.503906 189.78125 L 168.398438 192.222656 L 169.28125 193.839844 L 169.613281 195.65625 L 169.363281 197.484375 L 168.550781 199.140625 L 167.257813 200.457031 L 165.621094 201.308594 L 163.800781 201.601563 Z M 135.625 407.871094 L 135.933594 408.003906 L 137.339844 409.277344 L 138.261719 410.9375 L 138.597656 412.804688 L 138.316406 414.683594 L 137.609375 416.871094 L 137.535156 418.394531 L 137.863281 419.867188 L 138.992188 421.996094 L 139.570313 423.714844 L 139.503906 423.714844 L 136.765625 424.277344 L 136.292969 426.515625 L 135.777344 427.203125 L 133.742188 427.917969 L 132.394531 427.265625 L 131.648438 427.453125 L 129.4375 429.378906 L 126.53125 428.132813 L 127.425781 426.082031 L 128.796875 425.832031 L 131.792969 424.328125 L 131.226563 422.867188 L 130.640625 424.257813 L 127.769531 424.613281 L 122.949219 424.152344 L 121.496094 423.164063 L 124.125 421.78125 L 125.167969 421.753906 L 125.464844 421.238281 L 124.929688 417.953125 L 123.328125 417.210938 L 121.445313 417.105469 L 122.0625 415.152344 L 125.933594 413.378906 L 126.539063 411.90625 L 133.074219 411.34375 L 134.871094 409.289063 Z M 142.714844 423.710938 L 144.472656 423.554688 L 146.425781 422.894531 L 148.179688 422.585938 L 149.949219 422.824219 L 151.558594 423.589844 L 152.863281 424.804688 L 154.140625 426.429688 L 155.765625 427.707031 L 157.070313 429.148438 L 157.183594 429.410156 L 155.65625 429.589844 L 149.269531 432.308594 L 149.113281 432.746094 L 147.203125 431.632813 L 146.917969 429.308594 L 148.539063 428.378906 L 150.066406 428.890625 L 151.640625 428.421875 L 152.765625 427.832031 L 153.085938 427.097656 L 152.808594 426.597656 L 147.785156 426.460938 L 143.210938 423.710938 Z M 146.324219 319.648438 L 145.824219 319.832031 L 143.949219 319.890625 L 142.15625 319.347656 L 140.628906 318.265625 L 139.699219 316.992188 L 139.816406 316.644531 L 142.300781 315.023438 L 144.765625 310.230469 L 145.863281 309.40625 L 149.046875 308.269531 L 150.203125 313.453125 L 147.847656 318.148438 Z M 133.015625 470.476563 L 134.304688 471.359375 L 135.40625 472.769531 L 136.027344 474.445313 L 136.105469 476.230469 L 135.644531 477.957031 L 134.222656 481.15625 L 133.105469 482.824219 L 131.488281 484.011719 L 128.925781 485.28125 L 127.585938 486.636719 L 126.378906 489.105469 L 125.722656 490.0625 L 124.039063 490.597656 L 123.132813 494.289063 L 123.171875 494.363281 L 123.003906 495.316406 L 122.390625 497.058594 L 120.660156 497.648438 L 119.710938 499.566406 L 119.597656 499.640625 L 119.542969 499.652344 L 118.675781 498.910156 L 117.96875 497.691406 L 118.09375 496.4375 L 117.15625 494.691406 L 115.984375 493.691406 L 112.253906 492.070313 L 111.410156 491.984375 L 110.375 492.488281 L 110.242188 494.183594 L 109.664063 494.847656 L 108.523438 493.597656 L 107.761719 491.851563 L 107.605469 489.957031 L 107.621094 489.882813 L 111.738281 488.078125 L 112.199219 488.253906 L 112.445313 488.9375 L 113.574219 489.15625 L 118.144531 485.910156 L 121.425781 483.085938 L 124.375 479.769531 L 125.210938 477.886719 L 124.875 476.421875 L 125.640625 474.519531 L 128.386719 473.238281 L 132.105469 472.640625 L 132.679688 471.785156 Z M 104.847656 247.957031 L 105.09375 247.855469 L 106.617188 246.769531 L 108.152344 245.992188 L 108.738281 245.890625 L 108.777344 246.292969 L 109.046875 247.320313 L 109.929688 248.226563 L 110.335938 251.851563 L 108.992188 253.109375 L 103.964844 256.144531 L 102.714844 255.347656 Z M 109.453125 245.765625 L 109.847656 245.699219 L 111.554688 245.914063 L 112.367188 246.277344 L 111.886719 247.292969 L 110.550781 247.070313 L 109.476563 246.144531 Z M 141.734375 358.875 L 141.003906 358.070313 L 139.230469 356.960938 L 138.828125 356.035156 L 139.253906 355.210938 L 140.597656 355.164063 L 141.484375 356.3125 L 142.226563 358.1875 Z M 286.679688 439.636719 L 283.058594 438.976563 L 282.164063 437.605469 L 282.484375 436.070313 L 286.839844 437.054688 L 287.960938 438.832031 Z M 236.835938 466.113281 L 235.136719 465.644531 L 236.523438 463.683594 L 237.195313 464.164063 L 237.5 465.839844 Z M 228.117188 474.644531 L 222.296875 470.886719 L 220.207031 471.1875 L 221.476563 469.683594 L 227.316406 466.367188 L 232.550781 467.761719 L 234.171875 469.894531 L 231.242188 473.621094 L 229.960938 474.269531 Z M 228.117188 474.644531 "/>
<path style=" stroke:none;fill-rule:nonzero;fill:rgb(80.392157%,58.431373%,4.705882%);fill-opacity:1;" d="M 169.617188 385.753906 L 169.332031 387.550781 L 168.503906 389.171875 L 167.21875 390.457031 L 165.597656 391.285156 L 163.800781 391.570313 L 162.003906 391.285156 L 160.382813 390.457031 L 159.09375 389.171875 L 158.269531 387.550781 L 157.984375 385.753906 L 158.269531 383.957031 L 159.09375 382.335938 L 160.382813 381.050781 L 162.003906 380.222656 L 163.800781 379.9375 L 165.597656 380.222656 L 167.21875 381.050781 L 168.503906 382.335938 L 169.332031 383.957031 Z M 169.617188 385.753906 "/>
<path style=" stroke:none;fill-rule:nonzero;fill:rgb(80.392157%,58.431373%,4.705882%);fill-opacity:1;" d="M 154.109375 401.261719 L 153.824219 403.058594 L 152.996094 404.679688 L 151.710938 405.964844 L 150.089844 406.792969 L 148.292969 407.078125 L 146.496094 406.792969 L 144.875 405.964844 L 144.097656 405.191406 L 149.359375 401.828125 L 152.136719 398.207031 L 152.519531 397.367188 L 152.996094 397.84375 L 153.824219 399.464844 Z M 154.109375 401.261719 "/>
<path style=" stroke:none;fill-rule:nonzero;fill:rgb(80.392157%,58.431373%,4.705882%);fill-opacity:1;" d="M 138.601563 277.199219 L 138.316406 278.996094 L 137.488281 280.617188 L 136.203125 281.90625 L 134.582031 282.730469 L 132.785156 283.015625 L 130.988281 282.730469 L 129.878906 282.167969 L 132.777344 280.410156 L 134.003906 276.632813 L 137.242188 273.53125 L 137.488281 273.78125 L 138.316406 275.402344 Z M 138.601563 277.199219 "/>
<path style=" stroke:none;fill-rule:nonzero;fill:rgb(80.392157%,58.431373%,4.705882%);fill-opacity:1;" d="M 157.984375 393.507813 L 157.699219 395.304688 L 156.875 396.925781 L 155.585938 398.210938 L 153.964844 399.039063 L 152.167969 399.324219 L 151.375 399.199219 L 152.136719 398.207031 L 153.054688 396.195313 L 154.199219 391.746094 L 153.734375 388.820313 L 153.246094 387.863281 L 153.964844 387.976563 L 155.585938 388.804688 L 156.875 390.089844 L 157.699219 391.710938 Z M 157.984375 393.507813 "/>
<path style=" stroke:none;fill-rule:nonzero;fill:rgb(80.392157%,58.431373%,4.705882%);fill-opacity:1;" d="M 190.324219 116.210938 L 189.386719 116.0625 L 186.777344 113.90625 L 186.261719 113.941406 L 186.234375 113.910156 L 185.40625 112.289063 L 185.125 110.492188 L 185.40625 108.695313 L 185.867188 107.792969 L 186.230469 108.273438 L 187.324219 111.371094 L 189.425781 112.382813 L 190.734375 113.441406 L 191.546875 114.902344 Z M 190.324219 116.210938 "/>
<path style=" stroke:none;fill-rule:nonzero;fill:rgb(80.392157%,58.431373%,4.705882%);fill-opacity:1;" d="M 88.429688 500.046875 L 88.566406 499.308594 L 88.941406 499.117188 L 89.34375 499.789063 Z M 88.429688 500.046875 "/>
<path style=" stroke:none;fill-rule:nonzero;fill:rgb(80.392157%,58.431373%,4.705882%);fill-opacity:1;" d="M 88.429688 500.046875 L 88.566406 499.308594 L 88.941406 499.117188 L 89.34375 499.789063 Z M 88.429688 500.046875 "/>
</g>
</svg>
