<?xml version="1.0" encoding="UTF-8"?>
<svg xmlns="http://www.w3.org/2000/svg" xmlns:xlink="http://www.w3.org/1999/xlink" width="378pt" height="504pt" viewBox="0 0 378 504" version="1.1">
<g id="data">
<rect x="0" y="0" width="378" height="504" style="fill:rgb(100%,100%,100%);fill-opacity:1;stroke:none;"/>
<path style=" stroke:none;fill-rule:nonzero;fill:rgb(100%,100%,100%);fill-opacity:1;" d="M 53.308594 504 L 324.691406 504 L 324.691406 0 L 53.308594 0 Z M 53.308594 504 "/>
<path style=" stroke:none;fill-rule:nonzero;fill:rgb(22.745098%,53.333333%,16.078431%);fill-opacity:1;" d="M 167.675781 215.167969 L 174.34375 215.484375 L 177.125 215.121094 L 180.402344 213.71875 L 183.183594 211.292969 L 186.019531 212.460938 L 188.9375 212.851563 L 191.980469 212.460938 L 194.816406 211.292969 L 192.753906 213.035156 L 191.152344 215.203125 L 190.09375 217.683594 L 189.671875 220.105469 L 185.519531 221.085938 L 182.847656 221.226563 L 177.804688 225.21875 L 178.117188 225.714844 L 179.84375 225.195313 L 184.609375 222.886719 L 186.457031 221.386719 L 187.289063 221.316406 L 189.085938 221.875 L 189.332031 222.921875 L 188.898438 224.691406 L 189.238281 225.953125 L 190.898438 226.824219 L 191.320313 226.898438 L 192.496094 228.648438 L 193.871094 229.851563 L 192.117188 231.570313 L 189.460938 232.730469 L 188.34375 232.882813 L 187.070313 232.078125 L 185.40625 232.042969 L 181.046875 235.800781 L 180.578125 237.003906 L 174.761719 240.109375 L 171.542969 238.699219 L 174.078125 236.253906 L 175.769531 233.683594 L 176.773438 230.503906 L 176.816406 227.042969 L 176 224.078125 L 174.664063 221.019531 L 173.5 219.179688 L 170.902344 216.722656 Z M 190.96875 238.300781 L 190.851563 239.054688 L 191.167969 244.609375 L 191.800781 246.699219 L 192.808594 248.636719 L 194.4375 250.621094 L 196.570313 252.269531 L 199.394531 253.496094 L 202.570313 253.9375 L 204.609375 255.863281 L 206.9375 257.195313 L 210.519531 258.089844 L 214.199219 257.816406 L 213.886719 260.476563 L 214.1875 263.136719 L 215.648438 266.664063 L 218.078125 269.445313 L 217.777344 272.746094 L 218.421875 275.996094 L 219.808594 278.722656 L 221.214844 280.265625 L 221.269531 280.457031 L 222.214844 282.425781 L 222.433594 283.5625 L 223.441406 285.886719 L 224.199219 286.820313 L 225.945313 294.183594 L 229.304688 299.0625 L 234.328125 301.40625 L 235.292969 302.632813 L 237.460938 304.339844 L 237.90625 306.703125 L 238.828125 308.929688 L 240.105469 310.816406 L 241.953125 312.734375 L 245.300781 314.996094 L 249.09375 315.96875 L 249.5 318.214844 L 250.28125 320.222656 L 251.496094 322.152344 L 252.96875 323.722656 L 252.667969 325.871094 L 252.769531 328.039063 L 253.269531 330.152344 L 254.15625 332.132813 L 258.375 337.34375 L 260.722656 339.230469 L 262.792969 341.75 L 262.816406 341.765625 L 263.316406 342.46875 L 263.640625 343.980469 L 262.804688 345.191406 L 263.28125 343.65625 L 262.507813 342.839844 L 260.445313 342 L 258.378906 342.789063 L 257.507813 342.753906 L 256.035156 341.773438 L 253.664063 338.65625 L 252.601563 338.082031 L 245.550781 339.511719 L 244.589844 338.644531 L 243.40625 338.558594 L 241.210938 339.871094 L 241.886719 340.445313 L 246.324219 340.394531 L 249.617188 339.34375 L 251.976563 339.082031 L 254.382813 342.558594 L 260.535156 347.621094 L 263.042969 349.058594 L 263.152344 349.054688 L 263.136719 349.667969 L 263.535156 351.945313 L 265.390625 355.734375 L 268.476563 358.617188 L 268.558594 360.789063 L 269.042969 362.910156 L 269.386719 363.699219 L 269.210938 365.21875 L 264.953125 369.09375 L 261.394531 373.164063 L 260.601563 374.816406 L 262.84375 374.3125 L 264.9375 375.519531 L 266.9375 378.226563 L 270.21875 378.804688 L 270.625 378.746094 L 271.910156 376.796875 L 272.234375 374.960938 L 273.40625 371.914063 L 274.707031 370.632813 L 276.589844 370.304688 L 279.691406 371.5625 L 283.898438 371.65625 L 286.425781 370.757813 L 286.703125 370.742188 L 288.167969 370.898438 L 288.835938 372.332031 L 290.117188 374.089844 L 291.707031 375.578125 L 293.65625 376.804688 L 297.445313 377.933594 L 303.371094 378 L 303.246094 380.878906 L 303.925781 384.605469 L 305.257813 387.335938 L 307.066406 389.421875 L 307.179688 391.25 L 306.777344 393.191406 L 306.890625 393.976563 L 305.789063 396.917969 L 305.183594 399.824219 L 303.925781 402.410156 L 303.246094 406.136719 L 303.328125 408.035156 L 297.144531 414.53125 L 295.578125 412.011719 L 292.742188 410.515625 L 292.480469 410.636719 L 293.898438 413.703125 L 295.890625 416.628906 L 296.3125 416.765625 L 296.164063 417.742188 L 294.574219 419.804688 L 292.191406 421.289063 L 290.003906 421.65625 L 289.660156 421.574219 L 288.214844 419.332031 L 284.976563 421.730469 L 280.71875 424.230469 L 282.339844 425.378906 L 285.105469 424.398438 L 286.097656 423.375 L 286.894531 423.164063 L 287.328125 423.710938 L 287.632813 428.84375 L 285.6875 430.875 L 283.441406 432.558594 L 282.84375 432.699219 L 279.644531 432.160156 L 274.75 433.78125 L 272.609375 436.117188 L 274.253906 436.015625 L 275.152344 434.667969 L 276.683594 434.363281 L 278.285156 434.328125 L 281.054688 434.949219 L 281.828125 435.589844 L 281.691406 436.328125 L 279.554688 436.347656 L 277.390625 437.65625 L 277.96875 438.546875 L 281.382813 438.964844 L 286.863281 440.339844 L 289.394531 439.9375 L 291.074219 438.957031 L 296.332031 438.230469 L 299.492188 440.03125 L 299.492188 447.785156 L 297.320313 449.492188 L 296.707031 450.273438 L 295.839844 450.375 L 292.621094 451.640625 L 292.03125 452.09375 L 291.5625 452.148438 L 287.929688 454.003906 L 285.597656 456.367188 L 284.71875 458.027344 L 284.1875 457.9375 L 282.710938 459.332031 L 281.605469 459.261719 L 278.851563 459.585938 L 276.78125 460.191406 L 274.859375 461.164063 L 270.453125 464.738281 L 268.875 466.683594 L 267.261719 466.195313 L 265.421875 464.71875 L 261.605469 463.398438 L 258.847656 463.128906 L 249.09375 463.292969 L 246.558594 462.976563 L 244.144531 463.199219 L 241.476563 464.070313 L 239.097656 465.558594 L 238.308594 466.246094 L 238.210938 466.1875 L 238.632813 465.4375 L 239.46875 464.933594 L 237.714844 463.296875 L 231.496094 463.171875 L 231.378906 463.496094 L 232.574219 464.835938 L 232.214844 465.75 L 231.738281 466.042969 L 226.691406 465.496094 L 219.566406 468.449219 L 217.054688 467.824219 L 210.222656 468.96875 L 208.164063 468.875 L 207.273438 468.058594 L 206.238281 469.769531 L 209.429688 471.089844 L 209.714844 470.9375 L 209.949219 471.53125 L 208.09375 472.953125 L 206.839844 474.453125 L 204.453125 473.097656 L 203.015625 472.699219 L 197.625 472.007813 L 196.175781 472.65625 L 195.679688 473.863281 L 195.832031 474.871094 L 196.757813 475.523438 L 196.488281 476.304688 L 195.917969 475.996094 L 194.851563 473.972656 L 190.445313 470.703125 L 189.828125 470.167969 L 187.574219 468.945313 L 185.105469 468.242188 L 184.167969 468.1875 L 183.121094 467.984375 L 182.949219 468.113281 L 182.671875 468.097656 L 180.132813 468.492188 L 177.859375 469.375 L 177.523438 469.609375 L 176.207031 469.78125 L 174.339844 470.335938 L 168.992188 473.234375 L 168.214844 474.070313 L 167.203125 476.179688 L 163.601563 486.714844 L 161.28125 488.625 L 160.175781 490.09375 L 159.296875 489.921875 L 157.140625 488.171875 L 156.527344 486.851563 L 154.683594 485.4375 L 153.613281 485.542969 L 152.417969 486.300781 L 151.738281 486.164063 L 148.46875 482.535156 L 144.703125 482.816406 L 143.292969 482.542969 L 139.40625 482.824219 L 135.835938 484.101563 L 135.523438 484.355469 L 134.507813 484.320313 L 132.167969 484.859375 L 130.332031 487.082031 L 129.816406 487.195313 L 127.113281 488.582031 L 125.347656 490.179688 L 124.039063 490.597656 L 123.71875 491.910156 L 122.835938 493.046875 L 121.710938 495.457031 L 121.308594 497.429688 L 120.660156 497.648438 L 120.394531 498.183594 L 118.253906 498.183594 L 117.96875 497.691406 L 118.09375 496.4375 L 117.15625 494.691406 L 115.984375 493.691406 L 112.253906 492.070313 L 111.410156 491.984375 L 110.375 492.488281 L 110.242188 494.183594 L 110.007813 494.453125 L 108.527344 494.183594 L 105.644531 494.308594 L 107.816406 492.601563 L 109.523438 490.429688 L 112.042969 488.359375 L 112.140625 488.230469 L 112.199219 488.253906 L 112.445313 488.9375 L 113.574219 489.15625 L 118.144531 485.910156 L 121.425781 483.085938 L 124.375 479.769531 L 125.210938 477.886719 L 124.875 476.421875 L 125.640625 474.519531 L 128.386719 473.238281 L 132.105469 472.640625 L 132.679688 471.785156 L 133.257813 469.527344 L 135.859375 467.5625 L 138.636719 464.640625 L 139.128906 458.542969 L 139.144531 458.445313 L 139.441406 457.585938 L 139.46875 456.613281 L 139.796875 454.753906 L 142.492188 455.105469 L 144.269531 456.015625 L 145.761719 455.429688 L 148.429688 452.488281 L 148.105469 447.519531 L 151.105469 446.613281 L 157.421875 446.269531 L 159.910156 445.683594 L 164.597656 446.761719 L 166.046875 446.148438 L 167.527344 446.515625 L 169.484375 447.285156 L 170.039063 448.109375 L 170.757813 448.421875 L 173.15625 448.464844 L 180.570313 447.503906 L 181.109375 445.632813 L 181.210938 443.15625 L 182.519531 440.25 L 190.867188 432.195313 L 195.792969 425.3125 L 197.929688 424.472656 L 198.285156 423.78125 L 198.070313 423.238281 L 197.8125 423.082031 L 196.09375 424.355469 L 192.90625 427.300781 L 190.570313 429.988281 L 189.222656 431.449219 L 185.628906 432.957031 L 183.714844 433.246094 L 182.441406 433.0625 L 178.394531 435.230469 L 177.398438 436.808594 L 177.039063 438.671875 L 176.445313 439.273438 L 174.058594 439.917969 L 170.558594 439.851563 L 166.820313 439 L 166.347656 438.652344 L 161.371094 433.375 L 159.03125 429.199219 L 155.65625 429.589844 L 149.269531 432.308594 L 149.113281 432.746094 L 148.292969 432.265625 L 148.292969 428.519531 L 148.539063 428.378906 L 150.066406 428.890625 L 151.640625 428.421875 L 152.765625 427.832031 L 153.085938 427.097656 L 152.808594 426.597656 L 149.976563 426.519531 L 150.066406 426.421875 L 151.347656 424.089844 L 152.019531 421.777344 L 152.332031 418.519531 L 152 415.5 L 151.304688 413.167969 L 150.0625 410.929688 L 148.359375 409.015625 L 150.484375 406.460938 L 151.832031 403.285156 L 152.828125 397.765625 L 152.769531 396.816406 L 153.054688 396.195313 L 154.199219 391.746094 L 154.019531 390.605469 L 154.695313 388.972656 L 155.136719 386.464844 L 155 383.792969 L 159.070313 384.839844 L 161.246094 384.789063 L 163.371094 384.335938 L 165.710938 383.304688 L 167.675781 381.875 L 170.164063 381.394531 L 172.378906 380.449219 L 174.347656 379.070313 L 176.082031 377.203125 L 177.582031 374.515625 L 178.320313 371.53125 L 178.253906 368.453125 L 177.433594 365.621094 L 176.234375 363.496094 L 173.542969 360.144531 L 169.5 356.789063 L 169.382813 356.730469 L 172.597656 355.179688 L 173.933594 355.046875 L 174.484375 355.082031 L 179.910156 359.441406 L 180.433594 358.429688 L 177.679688 353.460938 L 177.863281 353.253906 L 178.09375 353.167969 L 178.625 352.777344 L 180.867188 352.449219 L 181.503906 352.695313 L 181.914063 353.875 L 182.898438 354.332031 L 184.078125 356.789063 L 185.613281 357.902344 L 188.359375 357.621094 L 190.335938 355.148438 L 189.90625 355.050781 L 188.667969 355.527344 L 188.3125 355.957031 L 186.378906 356.386719 L 183.8125 354.640625 L 181.644531 349.941406 L 181.683594 349.898438 L 182.886719 347.773438 L 183.625 345.445313 L 183.832031 342.371094 L 183.394531 340.242188 L 185.429688 339.015625 L 185.140625 338.578125 L 183.230469 338.488281 L 183.332031 336.726563 L 182.804688 331.671875 L 182.246094 330.289063 L 184.695313 329.191406 L 187.28125 323.421875 L 187.71875 320.933594 L 187.855469 317.484375 L 184.742188 320.527344 L 179.199219 323.441406 L 177.335938 322.691406 L 175.542969 319.582031 L 175.59375 317.71875 L 175.304688 314.960938 L 174.003906 311.269531 L 171.554688 308.214844 L 172.222656 304.042969 L 171.40625 300.027344 L 169.910156 297.488281 L 173.652344 289.609375 L 175.429688 288.832031 L 176.5625 291.558594 L 178.34375 293.910156 L 180.550781 295.675781 L 183.242188 296.890625 L 187.179688 297.390625 L 190.9375 296.585938 L 193.316406 296.738281 L 197.242188 296.328125 L 199.445313 295.625 L 201.566406 294.421875 L 203.394531 292.804688 L 204.84375 290.84375 L 206.285156 286.875 L 206.605469 283.328125 L 206.445313 281.078125 L 208.898438 278.023438 L 210.175781 274.453125 L 210.636719 270.664063 L 210.210938 267.503906 L 208.875 264.472656 L 206.738281 261.941406 L 203.207031 259.625 L 199.082031 258.707031 L 194.902344 259.324219 L 191.21875 261.390625 L 191.1875 259.28125 L 190.460938 254.515625 L 189.402344 252.039063 L 187.886719 249.964844 L 186.164063 248.421875 L 184.054688 247.195313 L 181.734375 246.441406 L 179.308594 246.183594 L 176.761719 243.253906 L 174.191406 241.210938 L 178.0625 241.875 L 182.921875 243.167969 L 186.398438 241.730469 L 187.519531 239.417969 L 188.617188 238.355469 L 189.539063 238.171875 Z M 232.683594 471.785156 L 231.066406 473.117188 L 230.347656 474.070313 L 229.960938 474.269531 L 228.117188 474.644531 L 222.296875 470.886719 L 221.367188 471.019531 L 221.003906 470.789063 L 220.636719 470.675781 L 221.476563 469.683594 L 227.316406 466.367188 L 232.550781 467.761719 L 234.171875 469.894531 Z M 160.503906 292.765625 L 159.921875 292.707031 L 160.589844 288.832031 L 159.921875 284.953125 L 161.265625 286.675781 L 162.90625 288.117188 L 164.789063 289.226563 L 164.9375 289.277344 L 163.3125 290.011719 L 161.832031 291.855469 Z M 190.9375 114.371094 L 187.765625 114.0625 L 187.113281 114.183594 L 186.777344 113.90625 L 184.832031 114.03125 L 181.886719 115.097656 L 179.847656 113.640625 L 179.308594 110.492188 L 181.601563 108.503906 L 184.332031 107.171875 L 185.257813 106.984375 L 186.230469 108.273438 L 187.324219 111.371094 L 189.425781 112.382813 L 190.699219 113.414063 Z M 181.167969 116.546875 L 179.308594 118.246094 L 179.804688 115.339844 Z M 179.308594 168.644531 L 183.058594 169.3125 L 187.0625 168.644531 L 188.339844 168.789063 L 185.421875 169.691406 L 182.835938 171.320313 L 180.691406 173.675781 L 179.308594 176.398438 L 175.429688 176.398438 L 172.421875 174.449219 L 168.960938 173.507813 L 165.757813 173.597656 L 162.699219 174.558594 L 160.117188 176.230469 L 158.074219 178.484375 L 156.6875 181.183594 L 156.046875 184.152344 L 154.339844 181.984375 L 152.167969 180.277344 L 152.167969 176.398438 L 155.050781 176.523438 L 158.773438 175.84375 L 161.507813 174.511719 L 163.800781 172.523438 L 170.054688 172.675781 L 173.796875 172.113281 L 176.800781 170.773438 Z M 145.460938 242.125 L 146.535156 241.933594 L 148.667969 241.117188 L 150.597656 239.902344 L 152.167969 238.429688 L 154.671875 241.144531 L 157.902344 242.9375 L 156.046875 246.183594 L 155.355469 246.886719 L 152.167969 246.183594 L 149.085938 243.945313 L 147.164063 243.214844 L 148.300781 243.253906 Z M 144.785156 370.035156 L 147.996094 368.214844 L 148.320313 373.5625 L 145.449219 374.257813 L 145.3125 374.355469 L 144.414063 374.125 L 144.414063 370.359375 Z M 143.953125 314.519531 L 144.550781 310.96875 L 144.535156 310.675781 L 144.765625 310.230469 L 145.863281 309.40625 L 148.292969 308.539063 L 148.292969 312.09375 L 145.992188 313.070313 Z M 121.566406 416.71875 L 125.1875 416.285156 L 124.773438 417.878906 L 123.328125 417.210938 L 121.445313 417.105469 Z M 88.945313 499.121094 L 88.542969 499.441406 L 88.566406 499.308594 L 88.941406 499.117188 Z M 81.144531 168.085938 L 82.757813 167.457031 L 84.589844 166.320313 L 86.261719 164.769531 L 85.195313 167.234375 L 84.8125 169.378906 L 82.996094 168.253906 L 81.464844 168.371094 Z M 84.917969 172.050781 L 85.027344 173.316406 L 85.964844 175.652344 L 85.394531 175.835938 L 84.546875 175.601563 L 83.046875 174.507813 L 82.722656 173.699219 L 82.824219 172.589844 L 83.972656 171.789063 Z M 85.925781 177.4375 L 85.507813 178.710938 L 85.144531 178.476563 L 85.03125 179.058594 L 85.078125 182.351563 L 82.382813 184.152344 L 82.914063 182.054688 L 83.042969 179.894531 L 82.355469 176.074219 L 83.4375 175.515625 L 85.28125 176.539063 Z M 286.679688 439.636719 L 283.058594 438.976563 L 282.164063 437.605469 L 282.484375 436.070313 L 286.839844 437.054688 L 287.960938 438.832031 Z M 236.835938 466.113281 L 235.136719 465.644531 L 236.523438 463.683594 L 237.195313 464.164063 L 237.5 465.839844 Z M 236.835938 466.113281 "/>
</g>
</svg>
