<?xml version="1.0" encoding="UTF-8"?>
<svg xmlns="http://www.w3.org/2000/svg" xmlns:xlink="http://www.w3.org/1999/xlink" width="378pt" height="504pt" viewBox="0 0 378 504" version="1.1">
<g id="data">
<rect x="0" y="0" width="378" height="504" style="fill:rgb(100%,100%,100%);fill-opacity:1;stroke:none;"/>
<path style=" stroke:none;fill-rule:nonzero;fill:rgb(100%,100%,100%);fill-opacity:1;" d="M 53.308594 504 L 324.691406 504 L 324.691406 0 L 53.308594 0 Z M 53.308594 504 "/>
<path style=" stroke:none;fill-rule:nonzero;fill:rgb(22.745098%,53.333333%,16.078431%);fill-opacity:1;" d="M 285.425781 407.488281 L 284.433594 409.023438 L 283.011719 410.175781 L 281.304688 410.828125 L 279.476563 410.917969 L 277.710938 410.4375 L 276.183594 409.429688 L 275.042969 408 L 274.40625 406.285156 L 274.332031 404.457031 L 274.566406 402.457031 L 274.414063 401.128906 L 273.960938 399.875 L 272.863281 398.1875 L 272.136719 396.589844 L 271.921875 394.847656 L 272.234375 393.121094 L 273.046875 391.566406 L 274.289063 390.324219 L 275.84375 389.511719 L 277.570313 389.195313 L 279.3125 389.414063 L 280.910156 390.140625 L 282.597656 391.238281 L 283.851563 391.691406 L 285.179688 391.84375 L 287.179688 391.609375 L 289.007813 391.683594 L 290.722656 392.320313 L 292.152344 393.460938 L 293.160156 394.988281 L 293.644531 396.753906 L 293.550781 398.582031 L 292.898438 400.289063 L 291.746094 401.710938 L 290.210938 402.703125 L 288.285156 403.554688 L 287.191406 404.402344 L 286.273438 405.574219 Z M 240.425781 435.574219 L 239.679688 434.058594 L 239.402344 432.394531 L 239.613281 430.71875 L 240.296875 429.175781 L 241.394531 427.894531 L 242.8125 426.980469 L 246.183594 425.453125 L 247.820313 424.984375 L 249.519531 425.007813 L 251.140625 425.523438 L 252.542969 426.484375 L 253.605469 427.8125 L 254.933594 430.082031 L 256.878906 431.851563 L 258.0625 433.347656 L 258.695313 435.144531 L 258.972656 436.71875 L 259.386719 437.792969 L 259.996094 438.765625 L 261.089844 439.933594 L 262.046875 441.308594 L 262.574219 442.898438 L 262.625 444.574219 L 262.195313 446.191406 L 261.320313 447.621094 L 259.621094 449.667969 L 258.941406 451.308594 L 258.539063 454.332031 L 259.039063 457.207031 L 259.058594 459.113281 L 258.453125 460.925781 L 257.296875 462.445313 L 255.714844 463.507813 L 254.769531 463.757813 L 253.609375 463.980469 L 251.964844 463.867188 L 250.207031 463.125 L 248.277344 461.910156 L 246.710938 461.410156 L 241.722656 460.746094 L 238.71875 461.140625 L 236.917969 461.09375 L 235.214844 460.5 L 233.777344 459.414063 L 232.742188 457.9375 L 232.207031 456.21875 L 232.226563 454.417969 L 232.792969 452.707031 L 233.859375 451.253906 L 235.316406 450.195313 L 237.347656 449.160156 L 238.609375 448.003906 L 239.183594 447.144531 L 239.84375 445.554688 L 240.480469 444.410156 L 241.613281 442.820313 L 242.019531 441.882813 L 242.308594 440.269531 L 242.1875 438.84375 L 241.664063 437.378906 Z M 240.425781 435.574219 "/>
<path style=" stroke:none;fill-rule:nonzero;fill:rgb(80.392157%,58.431373%,4.705882%);fill-opacity:1;" d="M 223.890625 343.109375 L 223.609375 344.90625 L 222.78125 346.527344 L 221.496094 347.8125 L 219.875 348.636719 L 218.078125 348.921875 L 216.28125 348.636719 L 214.660156 347.8125 L 213.371094 346.527344 L 212.546875 344.90625 L 212.261719 343.109375 L 212.546875 341.3125 L 213.371094 339.691406 L 214.660156 338.402344 L 216.28125 337.578125 L 218.078125 337.292969 L 219.875 337.578125 L 221.496094 338.402344 L 222.78125 339.691406 L 223.609375 341.3125 Z M 223.890625 343.109375 "/>
<path style=" stroke:none;fill-rule:nonzero;fill:rgb(80.392157%,58.431373%,4.705882%);fill-opacity:1;" d="M 227.769531 401.261719 L 227.484375 403.058594 L 226.660156 404.679688 L 225.371094 405.964844 L 223.75 406.792969 L 221.953125 407.078125 L 220.15625 406.792969 L 218.535156 405.964844 L 217.25 404.679688 L 216.421875 403.058594 L 216.136719 401.261719 L 216.421875 399.464844 L 217.25 397.84375 L 218.535156 396.558594 L 220.15625 395.730469 L 221.953125 395.445313 L 223.75 395.730469 L 225.371094 396.558594 L 226.660156 397.84375 L 227.484375 399.464844 Z M 227.769531 401.261719 "/>
<path style=" stroke:none;fill-rule:nonzero;fill:rgb(80.392157%,58.431373%,4.705882%);fill-opacity:1;" d="M 258.785156 416.769531 L 258.5 418.566406 L 257.675781 420.1875 L 256.386719 421.472656 L 254.765625 422.300781 L 252.96875 422.585938 L 251.171875 422.300781 L 249.550781 421.472656 L 248.265625 420.1875 L 247.4375 418.566406 L 247.152344 416.769531 L 247.4375 414.972656 L 248.265625 413.351563 L 249.550781 412.066406 L 251.171875 411.238281 L 252.96875 410.953125 L 254.765625 411.238281 L 256.386719 412.066406 L 257.675781 413.351563 L 258.5 414.972656 Z M 258.785156 416.769531 "/>
<path style=" stroke:none;fill-rule:nonzero;fill:rgb(80.392157%,58.431373%,4.705882%);fill-opacity:1;" d="M 216.136719 463.292969 L 215.855469 465.089844 L 215.027344 466.710938 L 213.742188 467.996094 L 212.621094 468.566406 L 210.222656 468.96875 L 209.125 468.917969 L 208.527344 468.824219 L 207.585938 468.34375 L 207.273438 468.058594 L 207.214844 468.15625 L 206.90625 467.996094 L 205.617188 466.710938 L 204.792969 465.089844 L 204.507813 463.292969 L 204.792969 461.496094 L 205.617188 459.875 L 206.90625 458.585938 L 208.527344 457.761719 L 210.324219 457.476563 L 212.121094 457.761719 L 213.742188 458.585938 L 215.027344 459.875 L 215.855469 461.496094 Z M 216.136719 463.292969 "/>
<path style=" stroke:none;fill-rule:nonzero;fill:rgb(80.392157%,58.431373%,4.705882%);fill-opacity:1;" d="M 208.382813 420.644531 L 208.101563 422.441406 L 207.273438 424.0625 L 205.988281 425.351563 L 204.367188 426.175781 L 202.570313 426.460938 L 200.773438 426.175781 L 199.152344 425.351563 L 198.046875 424.246094 L 198.285156 423.78125 L 198.070313 423.238281 L 197.8125 423.082031 L 197.488281 423.324219 L 197.039063 422.441406 L 196.753906 420.644531 L 197.039063 418.847656 L 197.863281 417.226563 L 199.152344 415.941406 L 200.773438 415.117188 L 202.570313 414.832031 L 204.367188 415.117188 L 205.988281 415.941406 L 207.273438 417.226563 L 208.101563 418.847656 Z M 208.382813 420.644531 "/>
<path style=" stroke:none;fill-rule:nonzero;fill:rgb(80.392157%,58.431373%,4.705882%);fill-opacity:1;" d="M 192.875 463.292969 L 192.59375 465.089844 L 191.765625 466.710938 L 190.480469 467.996094 L 188.859375 468.824219 L 187.121094 469.097656 L 185.898438 468.519531 L 183.921875 468.140625 L 183.644531 467.996094 L 182.355469 466.710938 L 181.53125 465.089844 L 181.246094 463.292969 L 181.53125 461.496094 L 182.355469 459.875 L 183.644531 458.585938 L 185.265625 457.761719 L 187.0625 457.476563 L 188.859375 457.761719 L 190.480469 458.585938 L 191.765625 459.875 L 192.59375 461.496094 Z M 192.875 463.292969 "/>
<path style=" stroke:none;fill-rule:nonzero;fill:rgb(80.392157%,58.431373%,4.705882%);fill-opacity:1;" d="M 220.015625 463.292969 L 219.730469 465.089844 L 218.90625 466.710938 L 217.644531 467.972656 L 217.054688 467.824219 L 212.078125 468.65625 L 210.78125 467.996094 L 209.496094 466.710938 L 208.667969 465.089844 L 208.382813 463.292969 L 208.667969 461.496094 L 209.496094 459.875 L 210.78125 458.585938 L 212.402344 457.761719 L 214.199219 457.476563 L 215.996094 457.761719 L 217.617188 458.585938 L 218.90625 459.875 L 219.730469 461.496094 Z M 220.015625 463.292969 "/>
<path style=" stroke:none;fill-rule:nonzero;fill:rgb(80.392157%,58.431373%,4.705882%);fill-opacity:1;" d="M 189 350.863281 L 188.714844 352.660156 L 187.890625 354.28125 L 186.601563 355.566406 L 185.78125 355.984375 L 183.8125 354.640625 L 179.976563 346.332031 L 180.195313 345.9375 L 181.386719 345.332031 L 183.183594 345.046875 L 184.980469 345.332031 L 186.601563 346.15625 L 187.890625 347.441406 L 188.714844 349.066406 Z M 183.964844 356.554688 L 183.183594 356.675781 L 181.386719 356.390625 L 179.765625 355.566406 L 178.480469 354.28125 L 177.925781 353.1875 L 178.242188 352.835938 L 180.867188 352.449219 L 181.503906 352.695313 L 181.914063 353.875 L 182.898438 354.332031 Z M 183.964844 356.554688 "/>
<path style=" stroke:none;fill-rule:nonzero;fill:rgb(80.392157%,58.431373%,4.705882%);fill-opacity:1;" d="M 185.125 242.308594 L 184.839844 244.105469 L 184.011719 245.726563 L 182.726563 247.011719 L 181.105469 247.839844 L 179.308594 248.125 L 177.511719 247.839844 L 175.890625 247.011719 L 174.601563 245.726563 L 173.777344 244.105469 L 173.492188 242.308594 L 173.679688 241.125 L 178.0625 241.875 L 182.921875 243.167969 L 185.117188 242.261719 Z M 174.125 239.832031 L 174.601563 238.890625 L 175.890625 237.601563 L 177.511719 236.777344 L 179.308594 236.492188 L 180.691406 236.710938 L 180.578125 237.003906 L 174.761719 240.109375 Z M 174.125 239.832031 "/>
<path style=" stroke:none;fill-rule:nonzero;fill:rgb(80.392157%,58.431373%,4.705882%);fill-opacity:1;" d="M 123.519531 496.007813 L 123.234375 495.960938 L 121.613281 495.136719 L 120.324219 493.847656 L 119.5 492.226563 L 119.214844 490.429688 L 119.5 488.632813 L 120.324219 487.011719 L 121.613281 485.726563 L 123.234375 484.898438 L 125.03125 484.617188 L 126.828125 484.898438 L 128.449219 485.726563 L 129.734375 487.011719 L 129.984375 487.503906 L 129.414063 488.195313 L 126.714844 489.746094 L 124.039063 490.597656 L 123.132813 494.289063 L 123.664063 495.292969 Z M 123.519531 496.007813 "/>
<path style=" stroke:none;fill-rule:nonzero;fill:rgb(80.392157%,58.431373%,4.705882%);fill-opacity:1;" d="M 182.742188 243.121094 L 182.726563 243.136719 L 181.105469 243.960938 L 179.308594 244.246094 L 177.511719 243.960938 L 175.890625 243.136719 L 174.601563 241.847656 L 174.289063 241.230469 L 178.0625 241.875 Z M 173.683594 239.636719 L 173.492188 238.429688 L 173.777344 236.632813 L 174.601563 235.011719 L 175.890625 233.726563 L 177.511719 232.898438 L 179.308594 232.617188 L 181.105469 232.898438 L 182.726563 233.726563 L 183.0625 234.0625 L 181.046875 235.800781 L 180.578125 237.003906 L 174.761719 240.109375 Z M 173.683594 239.636719 "/>
<path style=" stroke:none;fill-rule:nonzero;fill:rgb(80.392157%,58.431373%,4.705882%);fill-opacity:1;" d="M 305.359375 398.992188 L 303.828125 398.210938 L 302.542969 396.925781 L 301.714844 395.304688 L 301.429688 393.507813 L 301.714844 391.710938 L 302.542969 390.089844 L 303.828125 388.804688 L 305.449219 387.976563 L 306.957031 387.738281 L 307.179688 391.25 L 306.777344 393.191406 L 306.890625 393.976563 L 305.789063 396.917969 Z M 305.359375 398.992188 "/>
</g>
</svg>
