<?xml version="1.0" encoding="UTF-8"?>
<svg xmlns="http://www.w3.org/2000/svg" xmlns:xlink="http://www.w3.org/1999/xlink" width="378pt" height="504pt" viewBox="0 0 378 504" version="1.1">
<g id="data">
<rect x="0" y="0" width="378" height="504" style="fill:rgb(100%,100%,100%);fill-opacity:1;stroke:none;"/>
<path style=" stroke:none;fill-rule:nonzero;fill:rgb(100%,100%,100%);fill-opacity:1;" d="M 53.308594 504 L 324.691406 504 L 324.691406 0 L 53.308594 0 Z M 53.308594 504 "/>
<path style=" stroke:none;fill-rule:nonzero;fill:rgb(22.745098%,53.333333%,16.078431%);fill-opacity:1;" d="M 300.621094 375.558594 L 301.199219 376.292969 L 303.371094 378 L 305.4375 380.519531 L 305.53125 380.585938 L 306.730469 384.164063 L 307.132813 390.480469 L 307.082031 391.632813 L 307.085938 391.699219 L 306.777344 393.191406 L 306.890625 393.976563 L 305.789063 396.917969 L 305.195313 399.773438 L 305.1875 399.785156 L 303.886719 402.53125 L 303.246094 406.136719 L 303.328125 408.035156 L 297.144531 414.53125 L 295.578125 412.011719 L 292.742188 410.515625 L 292.480469 410.636719 L 293.898438 413.703125 L 295.890625 416.628906 L 296.3125 416.765625 L 296.164063 417.742188 L 294.574219 419.804688 L 292.191406 421.289063 L 290.003906 421.65625 L 289.660156 421.574219 L 288.214844 419.332031 L 284.976563 421.730469 L 280.71875 424.230469 L 282.339844 425.378906 L 285.105469 424.398438 L 286.097656 423.375 L 286.894531 423.164063 L 287.328125 423.710938 L 287.632813 428.84375 L 285.6875 430.875 L 283.441406 432.558594 L 282.84375 432.699219 L 279.644531 432.160156 L 274.75 433.78125 L 272.609375 436.117188 L 274.253906 436.015625 L 275.152344 434.667969 L 276.683594 434.363281 L 278.285156 434.328125 L 281.054688 434.949219 L 281.828125 435.589844 L 281.691406 436.328125 L 279.554688 436.347656 L 277.390625 437.65625 L 277.96875 438.546875 L 281.382813 438.964844 L 286.863281 440.339844 L 289.394531 439.9375 L 291.074219 438.957031 L 296.394531 438.222656 L 297.421875 439.011719 L 299.492188 440.03125 L 299.492188 443.90625 L 296.445313 445.519531 L 294.082031 447.855469 L 292.226563 451.488281 L 292.164063 451.988281 L 291.179688 452.742188 L 289.847656 454.226563 L 289.460938 455.09375 L 289.214844 456.324219 L 289.398438 457.460938 L 289.019531 457.941406 L 286.253906 458.289063 L 284.1875 457.9375 L 282.621094 459.414063 L 280.109375 459.414063 L 277.449219 459.101563 L 275.160156 459.320313 L 271.476563 460.730469 L 268.476563 463.292969 L 252.96875 463.292969 L 250.308594 462.976563 L 248.023438 463.199219 L 244.339844 464.609375 L 241.339844 467.167969 L 240.136719 467.394531 L 238.210938 466.1875 L 238.632813 465.4375 L 239.46875 464.933594 L 237.714844 463.296875 L 231.496094 463.171875 L 231.378906 463.496094 L 232.574219 464.835938 L 232.214844 465.75 L 231.738281 466.042969 L 226.691406 465.496094 L 219.566406 468.449219 L 217.054688 467.824219 L 210.222656 468.96875 L 208.164063 468.875 L 207.273438 468.058594 L 206.238281 469.769531 L 209.429688 471.089844 L 209.714844 470.9375 L 210.1875 472.128906 L 209.566406 473.890625 L 208.867188 474.035156 L 206.71875 472.726563 L 202.570313 471.960938 L 200.394531 472.363281 L 197.625 472.007813 L 196.175781 472.65625 L 195.679688 473.863281 L 195.753906 474.351563 L 195.222656 474.675781 L 194.851563 473.972656 L 193.761719 473.167969 L 192.648438 471.308594 L 189.335938 468.703125 L 185.441406 467.464844 L 181.234375 467.679688 L 177.589844 469.238281 L 177.070313 469.667969 L 176.207031 469.78125 L 174.339844 470.335938 L 168.992188 473.234375 L 168.214844 474.070313 L 167.203125 476.179688 L 164.414063 484.347656 L 162.875 485.539063 L 161.125 487.746094 L 160.082031 490.074219 L 158.269531 489.722656 L 157.554688 489.058594 L 156.527344 486.851563 L 154.683594 485.4375 L 154.40625 485.464844 L 153.640625 484.25 L 152.167969 482.675781 L 151.851563 479.242188 L 150.542969 476.054688 L 147.867188 472.972656 L 144.414063 471.046875 L 146.917969 469.746094 L 149.117188 467.789063 L 150.695313 465.453125 L 151.667969 462.804688 L 151.972656 460.003906 L 151.597656 457.210938 L 150.496094 454.476563 L 148.832031 452.203125 L 152.261719 454.429688 L 156.25 455.332031 L 160.425781 454.757813 L 164.023438 452.8125 L 166.230469 450.496094 L 167.675781 447.785156 L 168.992188 447.089844 L 169.484375 447.285156 L 170.039063 448.109375 L 170.757813 448.421875 L 173.15625 448.464844 L 180.570313 447.503906 L 181.109375 445.632813 L 181.210938 443.15625 L 182.519531 440.25 L 190.867188 432.195313 L 195.792969 425.3125 L 197.929688 424.472656 L 198.285156 423.78125 L 198.070313 423.238281 L 197.8125 423.082031 L 196.09375 424.355469 L 192.90625 427.300781 L 190.570313 429.988281 L 189.222656 431.449219 L 185.628906 432.957031 L 183.714844 433.246094 L 182.441406 433.0625 L 178.394531 435.230469 L 177.398438 436.808594 L 177.039063 438.671875 L 176.445313 439.273438 L 174.820313 439.710938 L 175.234375 437.132813 L 174.859375 433.953125 L 173.566406 430.886719 L 171.554688 428.398438 L 174.546875 430.359375 L 177.871094 431.296875 L 181.320313 431.222656 L 184.710938 430.078125 L 187.316406 428.226563 L 189.320313 425.734375 L 190.34375 423.527344 L 190.9375 420.644531 L 192.109375 417.664063 L 192.402344 414.085938 L 191.589844 410.59375 L 189.75 407.511719 L 187.0625 405.136719 L 187.34375 401.582031 L 186.539063 398.109375 L 185.183594 395.652344 L 183.183594 393.507813 L 182.816406 391.363281 L 181.996094 389.207031 L 180.847656 387.355469 L 179.375 385.753906 L 181.820313 382.644531 L 182.746094 380.394531 L 183.183594 378 L 184.929688 375.804688 L 186.136719 373.128906 L 186.632813 369.089844 L 185.703125 365.125 L 188.308594 366.066406 L 193.667969 366.976563 L 196.214844 366.949219 L 198.691406 366.371094 L 197.550781 369.226563 L 197.199219 372.15625 L 197.59375 375.082031 L 198.710938 377.8125 L 200.660156 380.355469 L 204.410156 383.46875 L 206.902344 384.789063 L 209.636719 385.472656 L 211.941406 385.523438 L 214.089844 385.15625 L 216.132813 384.394531 L 218.097656 383.1875 L 220.433594 380.816406 L 221.953125 378 L 224.582031 376.683594 L 226.796875 374.746094 L 228.210938 372.769531 L 229.144531 370.664063 L 230.371094 362.492188 L 230.171875 360.335938 L 229.066406 355.648438 L 227.75 353.050781 L 225.832031 350.863281 L 225.414063 347.054688 L 223.859375 343.699219 L 221.328125 341 L 218.078125 339.230469 L 219.246094 336.394531 L 219.636719 333.480469 L 219.246094 330.4375 L 218.078125 327.601563 L 220.222656 325.765625 L 221.867188 323.464844 L 222.902344 320.835938 L 223.277344 317.90625 L 222.902344 314.980469 L 221.867188 312.351563 L 220.222656 310.050781 L 218.078125 308.214844 L 218.078125 300.460938 L 220.199219 300.085938 L 222.328125 299.273438 L 224.257813 298.058594 L 225.832031 296.585938 L 227.402344 298.058594 L 229.332031 299.273438 L 231.464844 300.085938 L 231.523438 300.097656 L 233.296875 300.925781 L 231.425781 303.929688 L 230.597656 307.925781 L 231.203125 311.964844 L 233.167969 315.546875 L 235.816406 317.953125 L 239.191406 319.476563 L 242.835938 320 L 249.09375 319.847656 L 246.476563 320.914063 L 244.292969 322.492188 L 242.457031 324.640625 L 241.238281 327.046875 L 240.605469 329.667969 L 240.59375 332.367188 L 241.117188 334.75 L 242.410156 337.820313 L 243.101563 338.742188 L 241.210938 339.871094 L 241.886719 340.445313 L 244.542969 340.414063 L 245.976563 341.625 L 249.09375 343.109375 L 251.636719 344.835938 L 254.167969 345.757813 L 256.976563 346.070313 L 258.421875 345.882813 L 260.535156 347.621094 L 263.042969 349.058594 L 263.664063 349.039063 L 264.582031 350.261719 L 265.117188 353.46875 L 266.417969 356.214844 L 268.476563 358.617188 L 268.820313 361.417969 L 269.457031 363.082031 L 269.210938 365.21875 L 264.953125 369.09375 L 261.394531 373.164063 L 260.601563 374.816406 L 262.84375 374.3125 L 264.9375 375.519531 L 266.9375 378.226563 L 270.21875 378.804688 L 270.625 378.746094 L 271.910156 376.796875 L 272.234375 374.960938 L 273.40625 371.914063 L 274.707031 370.632813 L 277.851563 370.085938 L 278.488281 370.101563 L 278.695313 370.160156 L 281.984375 370.410156 L 283.570313 370.390625 L 284.253906 370.867188 L 286.703125 370.742188 L 293.949219 371.515625 L 296.914063 372.84375 Z M 225.832031 405.136719 L 224.039063 406.601563 L 222.574219 408.390625 L 221.492188 410.4375 L 220.835938 412.65625 L 220.628906 414.960938 L 220.914063 417.382813 L 221.644531 419.578125 L 222.792969 421.585938 L 224.410156 423.414063 L 227.144531 425.546875 L 229.058594 426.585938 L 231.261719 427.273438 L 233.683594 427.515625 L 236.101563 427.246094 L 238.410156 426.480469 L 240.40625 425.328125 L 242.136719 423.804688 L 243.597656 421.859375 L 244.578125 419.773438 L 245.132813 417.535156 L 245.375 414.640625 L 245.019531 411.511719 L 244.242188 409.097656 L 243.039063 407.015625 L 241.433594 405.222656 L 239.472656 403.777344 L 237.25 402.769531 L 234.867188 402.246094 L 232.429688 402.234375 L 230.042969 402.730469 L 227.808594 403.710938 Z M 233.34375 470.949219 L 230.75 469.875 L 227.832031 469.488281 L 224.789063 469.875 L 222.316406 470.898438 L 222.296875 470.886719 L 221.554688 470.992188 L 220.492188 470.847656 L 221.476563 469.683594 L 227.316406 466.367188 L 232.550781 467.761719 L 234.171875 469.894531 Z M 263.136719 344.128906 L 263.601563 343.800781 L 263.640625 343.980469 L 262.804688 345.191406 Z M 190.9375 219.046875 L 192.058594 219.046875 L 191.214844 219.742188 L 190.203125 219.980469 Z M 198.695313 242.316406 L 199.207031 245.730469 L 200.78125 248.957031 L 203.15625 251.46875 L 206.292969 253.21875 L 209.296875 253.894531 L 210.746094 253.90625 L 212.824219 256.707031 L 213.265625 256.828125 L 213.433594 256.585938 L 214.601563 257.097656 L 217.371094 258.992188 L 218.078125 261.207031 L 218.078125 261.691406 L 217.414063 265.441406 L 218.078125 269.445313 L 217.914063 271.382813 L 217.109375 268.679688 L 215.679688 266.25 L 213.707031 264.234375 L 211.1875 262.703125 L 208.617188 261.898438 L 205.199219 261.550781 L 202.570313 261.691406 L 199.460938 261.382813 L 196.503906 261.878906 L 197.890625 259.789063 L 198.855469 257.328125 L 199.308594 255.058594 L 199.304688 252.746094 L 198.84375 250.476563 L 197.878906 248.234375 L 196.554688 246.339844 L 194.777344 244.664063 L 192.339844 243.238281 L 189.5 242.421875 L 185.839844 241.960938 L 186.398438 241.730469 L 187.519531 239.417969 L 188.617188 238.355469 L 189.539063 238.171875 L 193.183594 238.5 Z M 179.539063 242.269531 L 179.308594 242.308594 L 179.308594 242.207031 Z M 181.921875 235.046875 L 181.996094 234.929688 L 182.8125 232.796875 L 183.183594 230.675781 L 184.886719 228.800781 L 186.191406 226.484375 L 187.0625 222.921875 L 188.589844 221.722656 L 189.085938 221.875 L 189.332031 222.921875 L 188.898438 224.691406 L 189.238281 225.953125 L 190.898438 226.824219 L 192.988281 227.191406 L 194.445313 228.726563 L 194.429688 229.304688 L 192.117188 231.570313 L 189.460938 232.730469 L 188.34375 232.882813 L 187.070313 232.078125 L 185.40625 232.042969 Z M 183.183594 284.953125 L 185.914063 287.21875 L 189.199219 288.554688 L 185.382813 288.875 L 181.882813 290.414063 L 179.308594 292.707031 L 176.84375 293.777344 L 174.695313 295.386719 L 172.898438 297.550781 L 171.71875 299.960938 L 172.21875 296.449219 L 171.722656 293.667969 L 173.972656 288.933594 L 174.433594 288.957031 L 178.160156 288.273438 L 180.890625 286.945313 L 181.214844 286.660156 L 182.933594 286.238281 L 183.03125 285.160156 L 182.980469 285.128906 Z M 159.921875 164.769531 L 162.09375 163.0625 L 162.832031 162.125 L 164.042969 162.292969 L 165.242188 161.992188 L 166.015625 161.605469 L 166.75 160.257813 L 167.589844 160.183594 L 167.507813 160.828125 L 166.417969 162.609375 L 162.722656 166.96875 L 162.175781 167.183594 L 161.726563 166.894531 L 161.859375 165.949219 L 161.53125 165.507813 L 159.984375 165.785156 L 159.1875 166.125 Z M 185.480469 168.359375 L 187.0625 168.644531 L 184.484375 169.785156 L 182.257813 171.507813 L 180.445313 173.824219 L 179.308594 176.398438 L 175.429688 176.398438 L 172.011719 175.871094 L 168.714844 176.335938 L 166.6875 177.140625 L 164.84375 178.308594 L 162.03125 181.453125 L 159.527344 178.449219 L 156.046875 176.398438 L 153.644531 174.339844 L 151.019531 173.082031 L 148.292969 172.523438 L 151.972656 172.140625 L 152.089844 172.089844 L 152.140625 172.144531 L 152.335938 171.976563 L 155.457031 170.550781 L 158.140625 168.035156 L 160.300781 168.324219 L 161.058594 169.320313 L 157.109375 173.804688 L 156.367188 175.339844 L 156.707031 175.816406 L 157.367188 175.984375 L 158.261719 175.542969 L 161.140625 173.015625 L 167.808594 170.273438 L 170.480469 169.527344 L 170.492188 169.949219 L 171.554688 169.839844 L 173.589844 168.316406 L 174.046875 166.78125 L 178.648438 166.167969 L 179.285156 167.089844 L 180.148438 167.667969 L 184.320313 169.011719 Z M 180.144531 346.03125 L 181.230469 344.789063 L 182.414063 342.542969 L 182.730469 341.398438 L 183.085938 340.769531 L 183.183594 343.109375 L 180.671875 346.273438 L 180.367188 347.183594 L 179.976563 346.332031 Z M 179.148438 352.699219 L 179.144531 352.738281 L 179.363281 355.855469 L 179.664063 357.039063 L 177.679688 353.460938 L 178.242188 352.835938 Z M 180.15625 358.960938 L 180.253906 359.332031 L 180.011719 359.242188 Z M 179.347656 358.988281 L 177.988281 358.472656 L 175.589844 358.101563 L 171.554688 358.617188 L 159.921875 358.617188 L 158.542969 358.28125 L 160.492188 357.457031 L 163.644531 357.28125 L 167.339844 357.714844 L 172.597656 355.179688 L 173.933594 355.046875 L 174.484375 355.082031 Z M 159.921875 195.785156 L 161.90625 193.34375 L 163.800781 195.785156 Z M 148.355469 428.480469 L 150 430.570313 L 151.175781 431.496094 L 149.269531 432.308594 L 149.113281 432.746094 L 147.203125 431.632813 L 146.917969 429.308594 Z M 144.203125 361.621094 L 143.542969 358.925781 L 142.082031 356.523438 L 142.09375 356.230469 L 144.078125 357.601563 L 146.710938 358.597656 L 149.375 358.929688 L 152.167969 358.617188 L 150.019531 359.4375 L 148.179688 360.585938 L 146.496094 362.152344 L 145.648438 363.332031 Z M 148.292969 308.539063 L 148.292969 312.09375 L 144.710938 314.125 L 144.414063 312.09375 L 144.414063 310.910156 L 144.765625 310.230469 L 145.863281 309.40625 Z M 121.539063 416.804688 L 124.324219 417.074219 L 127.582031 416.46875 L 130.429688 415.039063 L 132.785156 412.890625 L 131.835938 415.820313 L 131.703125 419.019531 L 132.398438 422.015625 L 133.859375 424.722656 L 131.4375 424.90625 L 129.460938 425.496094 L 131.792969 424.328125 L 131.226563 422.867188 L 130.640625 424.257813 L 127.769531 424.613281 L 124.941406 424.34375 L 124.472656 421.792969 L 124.460938 421.773438 L 125.167969 421.753906 L 125.464844 421.238281 L 124.929688 417.953125 L 123.328125 417.210938 L 121.445313 417.105469 Z M 128.5625 425.875 L 127.183594 426.632813 L 127.425781 426.082031 Z M 125.476563 474.921875 L 128.90625 474.921875 L 130.324219 475.597656 L 128.90625 478.800781 L 125.472656 480.5 L 122.78125 483.226563 L 121.152344 486.554688 L 119.679688 488.125 L 118.464844 490.054688 L 117.683594 492.0625 L 117.277344 494.308594 L 115.570313 492.136719 L 113.398438 490.429688 L 116.652344 488.664063 L 119.183594 485.964844 L 119.914063 484.386719 L 121.425781 483.085938 L 124.375 479.769531 L 125.210938 477.886719 L 124.875 476.421875 Z M 105.644531 253.9375 L 107.945313 252.960938 L 109.984375 251.511719 L 109.832031 252.324219 L 108.992188 253.109375 L 107.617188 253.9375 Z M 286.679688 439.636719 L 283.058594 438.976563 L 282.164063 437.605469 L 282.484375 436.070313 L 286.839844 437.054688 L 287.960938 438.832031 Z M 236.835938 466.113281 L 235.136719 465.644531 L 236.523438 463.683594 L 237.195313 464.164063 L 237.5 465.839844 Z M 236.835938 466.113281 "/>
<path style=" stroke:none;fill-rule:nonzero;fill:rgb(80.392157%,58.431373%,4.705882%);fill-opacity:1;" d="M 200.628906 319.847656 L 200.347656 321.644531 L 199.519531 323.265625 L 198.234375 324.550781 L 196.613281 325.375 L 194.816406 325.660156 L 193.019531 325.375 L 191.398438 324.550781 L 190.109375 323.265625 L 189.285156 321.644531 L 189 319.847656 L 189.285156 318.050781 L 190.109375 316.429688 L 191.398438 315.140625 L 193.019531 314.316406 L 194.816406 314.03125 L 196.613281 314.316406 L 198.234375 315.140625 L 199.519531 316.429688 L 200.347656 318.050781 Z M 200.628906 319.847656 "/>
<path style=" stroke:none;fill-rule:nonzero;fill:rgb(80.392157%,58.431373%,4.705882%);fill-opacity:1;" d="M 169.617188 385.753906 L 169.332031 387.550781 L 168.503906 389.171875 L 167.21875 390.457031 L 165.597656 391.285156 L 163.800781 391.570313 L 162.003906 391.285156 L 160.382813 390.457031 L 159.09375 389.171875 L 158.269531 387.550781 L 157.984375 385.753906 L 158.269531 383.957031 L 159.09375 382.335938 L 160.382813 381.050781 L 162.003906 380.222656 L 163.800781 379.9375 L 165.597656 380.222656 L 167.21875 381.050781 L 168.503906 382.335938 L 169.332031 383.957031 Z M 169.617188 385.753906 "/>
<path style=" stroke:none;fill-rule:nonzero;fill:rgb(80.392157%,58.431373%,4.705882%);fill-opacity:1;" d="M 196.753906 265.570313 L 196.46875 267.367188 L 195.644531 268.988281 L 194.355469 270.273438 L 192.734375 271.101563 L 190.9375 271.382813 L 189.140625 271.101563 L 187.519531 270.273438 L 186.234375 268.988281 L 185.40625 267.367188 L 185.125 265.570313 L 185.40625 263.773438 L 186.234375 262.152344 L 187.519531 260.863281 L 189.140625 260.039063 L 190.9375 259.753906 L 192.734375 260.039063 L 194.355469 260.863281 L 195.644531 262.152344 L 196.46875 263.773438 Z M 196.753906 265.570313 "/>
<path style=" stroke:none;fill-rule:nonzero;fill:rgb(80.392157%,58.431373%,4.705882%);fill-opacity:1;" d="M 185.125 319.847656 L 184.742188 320.527344 L 179.199219 323.441406 L 177.335938 322.691406 L 174.1875 317.242188 L 175.890625 315.140625 L 177.511719 314.316406 L 179.308594 314.03125 L 181.105469 314.316406 L 182.726563 315.140625 L 184.011719 316.429688 L 184.839844 318.050781 Z M 185.125 319.847656 "/>
<path style=" stroke:none;fill-rule:nonzero;fill:rgb(80.392157%,58.431373%,4.705882%);fill-opacity:1;" d="M 140.375 378.203125 L 138.882813 375.921875 L 138.679688 374.613281 L 140.148438 373.019531 L 141.023438 372.414063 L 142.589844 371.953125 L 146.355469 368.664063 L 147.832031 369.417969 L 149.121094 370.703125 L 150.074219 373.136719 L 145.449219 374.257813 L 143.757813 375.484375 L 142.039063 378.097656 Z M 140.375 378.203125 "/>
<path style=" stroke:none;fill-rule:nonzero;fill:rgb(80.392157%,58.431373%,4.705882%);fill-opacity:1;" d="M 166.878906 152.707031 L 166.023438 151.058594 L 165.738281 149.261719 L 166.023438 147.464844 L 166.847656 145.84375 L 168.136719 144.558594 L 169.757813 143.730469 L 171.554688 143.445313 L 173.351563 143.730469 L 175.339844 144.925781 L 173.855469 147.214844 Z M 166.878906 152.707031 "/>
<path style=" stroke:none;fill-rule:nonzero;fill:rgb(80.392157%,58.431373%,4.705882%);fill-opacity:1;" d="M 154.109375 401.261719 L 153.824219 403.058594 L 152.996094 404.679688 L 151.710938 405.964844 L 150.089844 406.792969 L 148.292969 407.078125 L 146.496094 406.792969 L 144.875 405.964844 L 144.097656 405.191406 L 149.359375 401.828125 L 152.519531 397.367188 L 153.824219 399.464844 Z M 154.109375 401.261719 "/>
<path style=" stroke:none;fill-rule:nonzero;fill:rgb(80.392157%,58.431373%,4.705882%);fill-opacity:1;" d="M 138.601563 277.199219 L 138.316406 278.996094 L 137.488281 280.617188 L 136.203125 281.90625 L 134.582031 282.730469 L 132.785156 283.015625 L 130.988281 282.730469 L 129.878906 282.167969 L 132.777344 280.410156 L 134.003906 276.632813 L 137.242188 273.53125 L 138.316406 275.402344 Z M 138.601563 277.199219 "/>
<path style=" stroke:none;fill-rule:nonzero;fill:rgb(80.392157%,58.431373%,4.705882%);fill-opacity:1;" d="M 157.984375 393.507813 L 157.699219 395.304688 L 156.875 396.925781 L 155.585938 398.210938 L 153.964844 399.039063 L 151.375 399.199219 L 153.054688 396.195313 L 154.199219 391.746094 L 153.734375 388.820313 L 153.246094 387.863281 L 155.585938 388.804688 L 156.875 390.089844 L 157.699219 391.710938 Z M 157.984375 393.507813 "/>
<path style=" stroke:none;fill-rule:nonzero;fill:rgb(80.392157%,58.431373%,4.705882%);fill-opacity:1;" d="M 109.914063 241.550781 L 111.601563 240.652344 L 113.398438 240.371094 L 115.246094 240.679688 L 111.886719 247.292969 L 110.550781 247.070313 L 109.476563 246.144531 L 109.292969 243.285156 Z M 110.242188 251.023438 L 108.695313 249.601563 L 107.871094 247.980469 L 107.585938 246.183594 L 107.871094 244.386719 L 108.484375 243.183594 L 108.777344 246.292969 L 109.046875 247.320313 L 109.929688 248.226563 Z M 110.242188 251.023438 "/>
<path style=" stroke:none;fill-rule:nonzero;fill:rgb(80.392157%,58.431373%,4.705882%);fill-opacity:1;" d="M 139.320313 318.101563 L 140.539063 317.90625 L 142.335938 318.191406 L 143.957031 319.019531 L 145.378906 320.574219 L 141.859375 323.019531 L 139.824219 322.464844 L 137.933594 323.433594 L 137.675781 322.921875 Z M 139.320313 318.101563 "/>
<path style=" stroke:none;fill-rule:nonzero;fill:rgb(80.392157%,58.431373%,4.705882%);fill-opacity:1;" d="M 190.324219 116.210938 L 189.386719 116.0625 L 186.777344 113.90625 L 186.234375 113.910156 L 185.40625 112.289063 L 185.125 110.492188 L 185.40625 108.695313 L 185.867188 107.792969 L 187.324219 111.371094 L 189.425781 112.382813 L 190.734375 113.441406 L 191.546875 114.902344 Z M 190.324219 116.210938 "/>
<path style=" stroke:none;fill-rule:nonzero;fill:rgb(80.392157%,58.431373%,4.705882%);fill-opacity:1;" d="M 88.429688 500.046875 L 88.566406 499.308594 L 88.941406 499.117188 L 89.34375 499.789063 Z M 88.429688 500.046875 "/>
<path style=" stroke:none;fill-rule:nonzero;fill:rgb(80.392157%,58.431373%,4.705882%);fill-opacity:1;" d="M 88.429688 500.046875 L 88.566406 499.308594 L 88.941406 499.117188 L 89.34375 499.789063 Z M 88.429688 500.046875 "/>
</g>
</svg>
