<?xml version="1.0" encoding="UTF-8"?>
<svg xmlns="http://www.w3.org/2000/svg" xmlns:xlink="http://www.w3.org/1999/xlink" width="378pt" height="504pt" viewBox="0 0 378 504" version="1.1">
<g id="data">
<rect x="0" y="0" width="378" height="504" style="fill:rgb(100%,100%,100%);fill-opacity:1;stroke:none;"/>
<path style=" stroke:none;fill-rule:nonzero;fill:rgb(100%,100%,100%);fill-opacity:1;" d="M 53.308594 504 L 324.691406 504 L 324.691406 0 L 53.308594 0 Z M 53.308594 504 "/>
<path style=" stroke:none;fill-rule:nonzero;fill:rgb(22.745098%,53.333333%,16.078431%);fill-opacity:1;" d="M 300.621094 375.558594 L 301.199219 376.292969 L 303.371094 378 L 305.4375 380.519531 L 305.53125 380.585938 L 306.730469 384.164063 L 307.179688 391.25 L 306.777344 393.191406 L 306.890625 393.976563 L 305.789063 396.917969 L 305.183594 399.824219 L 303.925781 402.410156 L 303.246094 406.136719 L 303.328125 408.035156 L 297.144531 414.53125 L 295.578125 412.011719 L 292.742188 410.515625 L 292.480469 410.636719 L 293.898438 413.703125 L 295.890625 416.628906 L 296.3125 416.765625 L 296.164063 417.742188 L 294.574219 419.804688 L 292.191406 421.289063 L 290.003906 421.65625 L 289.660156 421.574219 L 288.214844 419.332031 L 284.976563 421.730469 L 280.71875 424.230469 L 282.339844 425.378906 L 285.105469 424.398438 L 286.097656 423.375 L 286.894531 423.164063 L 287.328125 423.710938 L 287.632813 428.84375 L 285.6875 430.875 L 283.441406 432.558594 L 282.84375 432.699219 L 279.644531 432.160156 L 274.75 433.78125 L 272.609375 436.117188 L 274.253906 436.015625 L 275.152344 434.667969 L 276.683594 434.363281 L 278.285156 434.328125 L 281.054688 434.949219 L 281.828125 435.589844 L 281.691406 436.328125 L 279.554688 436.347656 L 277.390625 437.65625 L 277.96875 438.546875 L 281.382813 438.964844 L 286.863281 440.339844 L 289.394531 439.9375 L 291.074219 438.957031 L 296.394531 438.222656 L 297.421875 439.011719 L 299.492188 440.03125 L 299.492188 443.90625 L 297.941406 445.582031 L 296.804688 447.410156 L 295.988281 449.539063 L 295.84375 450.375 L 295.839844 450.375 L 292.621094 451.640625 L 291.179688 452.742188 L 289.847656 454.226563 L 289.460938 455.09375 L 289.214844 456.324219 L 289.398438 457.460938 L 289.019531 457.941406 L 286.253906 458.289063 L 284.1875 457.9375 L 282.730469 459.3125 L 281.230469 459.28125 L 276.78125 460.191406 L 274.332031 461.515625 L 270.925781 464.320313 L 268.890625 466.6875 L 267.285156 466.203125 L 265.535156 464.78125 L 261.980469 463.464844 L 258.972656 463.132813 L 252.96875 463.292969 L 250.179688 462.976563 L 248.023438 463.199219 L 244.339844 464.609375 L 241.339844 467.167969 L 240.136719 467.394531 L 238.210938 466.1875 L 238.632813 465.4375 L 239.46875 464.933594 L 237.714844 463.296875 L 231.496094 463.171875 L 231.378906 463.496094 L 232.574219 464.835938 L 232.214844 465.75 L 231.738281 466.042969 L 226.691406 465.496094 L 219.566406 468.449219 L 217.054688 467.824219 L 210.222656 468.96875 L 208.164063 468.875 L 207.273438 468.058594 L 206.238281 469.769531 L 209.429688 471.089844 L 209.714844 470.9375 L 210.1875 472.128906 L 209.566406 473.890625 L 208.867188 474.035156 L 206.71875 472.726563 L 202.570313 471.960938 L 200.394531 472.363281 L 197.625 472.007813 L 196.175781 472.65625 L 195.679688 473.863281 L 195.753906 474.351563 L 195.222656 474.675781 L 194.851563 473.972656 L 193.785156 473.183594 L 192.734375 471.40625 L 189.5625 468.824219 L 185.824219 467.519531 L 181.734375 467.570313 L 177.808594 469.101563 L 177.117188 469.660156 L 176.207031 469.78125 L 174.339844 470.335938 L 168.992188 473.234375 L 168.214844 474.070313 L 167.203125 476.179688 L 164.414063 484.347656 L 162.875 485.539063 L 161.125 487.746094 L 160.082031 490.074219 L 158.269531 489.722656 L 157.554688 489.058594 L 156.527344 486.851563 L 154.683594 485.4375 L 153.613281 485.542969 L 153.070313 485.886719 L 152.886719 485.675781 L 150.59375 484.050781 L 149.421875 483.59375 L 148.46875 482.535156 L 145.394531 482.765625 L 143.042969 482.527344 L 140.539063 482.675781 L 137.042969 482.019531 L 134.882813 482.148438 L 132.785156 482.675781 L 129.230469 482.394531 L 126.476563 482.9375 L 124.042969 484.058594 L 122.117188 485.53125 L 119.605469 488.226563 L 118.355469 490.285156 L 117.554688 492.554688 L 117.242188 494.847656 L 117.15625 494.691406 L 115.984375 493.691406 L 112.253906 492.070313 L 111.410156 491.984375 L 110.375 492.488281 L 110.242188 494.183594 L 110.183594 494.25 L 108.816406 494.003906 L 105.644531 494.308594 L 107.816406 492.601563 L 109.523438 490.429688 L 112.042969 488.359375 L 112.140625 488.230469 L 112.199219 488.253906 L 112.445313 488.9375 L 113.574219 489.15625 L 118.144531 485.910156 L 121.425781 483.085938 L 124.375 479.769531 L 125.210938 477.886719 L 124.875 476.421875 L 125.640625 474.519531 L 128.386719 473.238281 L 132.105469 472.640625 L 132.679688 471.785156 L 132.859375 471.078125 L 135.128906 472.074219 L 137.511719 472.554688 L 141.332031 472.277344 L 143.390625 471.574219 L 147.023438 469.675781 L 149.03125 467.882813 L 150.511719 465.792969 L 151.667969 462.808594 L 151.96875 459.75 L 151.6875 457.589844 L 150.957031 455.398438 L 149.8125 453.398438 L 148.382813 451.765625 L 148.292969 450.386719 L 148.292969 447.785156 L 148.453125 447.414063 L 151.105469 446.613281 L 157.421875 446.269531 L 159.910156 445.683594 L 164.597656 446.761719 L 166.046875 446.148438 L 167.527344 446.515625 L 169.484375 447.285156 L 170.039063 448.109375 L 170.757813 448.421875 L 173.15625 448.464844 L 180.570313 447.503906 L 181.109375 445.632813 L 181.210938 443.15625 L 182.519531 440.25 L 190.867188 432.195313 L 195.792969 425.3125 L 197.929688 424.472656 L 198.285156 423.78125 L 198.070313 423.238281 L 197.8125 423.082031 L 196.09375 424.355469 L 192.90625 427.300781 L 190.570313 429.988281 L 189.222656 431.449219 L 185.628906 432.957031 L 183.714844 433.246094 L 182.441406 433.0625 L 178.394531 435.230469 L 177.398438 436.808594 L 177.039063 438.671875 L 176.445313 439.273438 L 174.058594 439.917969 L 170.558594 439.851563 L 166.820313 439 L 166.347656 438.652344 L 161.371094 433.375 L 159.03125 429.199219 L 155.65625 429.589844 L 149.269531 432.308594 L 149.113281 432.746094 L 147.203125 431.632813 L 146.917969 429.308594 L 148.539063 428.378906 L 150.066406 428.890625 L 151.640625 428.421875 L 152.765625 427.832031 L 153.085938 427.097656 L 152.808594 426.597656 L 151.707031 426.566406 L 154.113281 424.386719 L 156.046875 420.644531 L 159.039063 422.605469 L 162.488281 423.558594 L 166.0625 423.421875 L 169.429688 422.203125 L 171.714844 420.5625 L 173.609375 418.308594 L 174.835938 415.773438 L 175.429688 412.890625 L 178.554688 412.214844 L 181.375 410.707031 L 183.601563 408.59375 L 185.246094 405.851563 L 186.15625 402 L 185.71875 398.066406 L 184.742188 395.699219 L 183.183594 393.507813 L 182.78125 391.238281 L 181.941406 389.09375 L 179.375 385.753906 L 181.078125 383.839844 L 182.269531 381.71875 L 182.964844 379.523438 L 183.332031 376.625 L 183.160156 372.457031 L 182.769531 370.316406 L 181.8125 367.945313 L 180.355469 365.839844 L 178.476563 364.105469 L 175.429688 362.492188 L 172.707031 360.230469 L 170.644531 359.257813 L 168.433594 358.703125 L 161.796875 358.453125 L 158.527344 358.808594 L 155.394531 359.917969 L 152.703125 361.871094 L 150.613281 364.617188 L 149.417969 367.855469 L 149.226563 371.300781 L 149.707031 373.226563 L 145.449219 374.257813 L 145.140625 374.480469 L 144.414063 374.125 L 145.757813 370.539063 L 145.789063 369.160156 L 147.132813 367.984375 L 147.953125 364.523438 L 151.550781 360.582031 L 153.09375 359.609375 L 154.941406 359.808594 L 160.492188 357.457031 L 163.644531 357.28125 L 167.339844 357.714844 L 172.597656 355.179688 L 173.933594 355.046875 L 174.484375 355.082031 L 179.910156 359.441406 L 180.433594 358.429688 L 177.679688 353.460938 L 178.242188 352.835938 L 180.867188 352.449219 L 181.503906 352.695313 L 181.914063 353.875 L 182.898438 354.332031 L 184.078125 356.789063 L 185.613281 357.902344 L 188.359375 357.621094 L 190.335938 355.148438 L 189.90625 355.050781 L 188.667969 355.527344 L 188.3125 355.957031 L 186.378906 356.386719 L 183.8125 354.640625 L 179.976563 346.332031 L 180.058594 346.183594 L 180.78125 345.414063 L 181.996094 343.480469 L 182.84375 341.230469 L 182.851563 341.183594 L 183.371094 340.257813 L 185.429688 339.015625 L 185.140625 338.578125 L 183.390625 338.496094 L 183.792969 336.5 L 183.765625 333.953125 L 183.183594 331.476563 L 183.375 329.78125 L 184.695313 329.191406 L 187.28125 323.421875 L 187.410156 322.691406 L 189.9375 322.445313 L 193.320313 320.980469 L 190.992188 323.851563 L 189.679688 327.308594 L 189.574219 331.382813 L 190.9375 335.355469 L 189.320313 337.65625 L 188.273438 340.40625 L 187.945313 343.203125 L 188.300781 345.996094 L 189.703125 349.289063 L 192.039063 352 L 195.207031 353.921875 L 198.691406 354.738281 L 198.691406 358.617188 L 198.144531 360.839844 L 198.039063 363.003906 L 198.691406 366.371094 L 198.828125 368.921875 L 199.429688 371.148438 L 200.734375 373.636719 L 202.507813 375.65625 L 204.46875 377.089844 L 207.589844 378.578125 L 210.410156 379.410156 L 213.351563 379.507813 L 216.097656 378.90625 L 219.367188 377.425781 L 221.59375 375.917969 L 223.339844 374.042969 L 224.632813 371.828125 L 225.410156 369.386719 L 225.617188 366.449219 L 225.078125 363.550781 L 223.832031 360.882813 L 221.953125 358.617188 L 222.5 356.390625 L 222.601563 354.101563 L 221.953125 350.863281 L 221.816406 348.308594 L 221.261719 346.203125 L 220.125 343.914063 L 218.511719 341.925781 L 216.503906 340.339844 L 214.199219 339.230469 L 216.347656 336.875 L 217.773438 334.027344 L 218.382813 330.773438 L 218.078125 327.601563 L 220.046875 325.953125 L 221.609375 323.910156 L 222.683594 321.578125 L 223.222656 319.0625 L 223.117188 315.984375 L 222.15625 312.925781 L 220.480469 310.339844 L 218.078125 308.214844 L 218.078125 300.460938 L 221.566406 298.402344 L 224.140625 295.273438 L 228.882813 299.035156 L 231.21875 300.019531 L 231.441406 300.058594 L 233.253906 300.90625 L 232.285156 302.207031 L 231.332031 304.167969 L 230.761719 306.269531 L 230.597656 308.570313 L 230.859375 310.730469 L 231.574219 312.921875 L 232.632813 314.828125 L 234.027344 316.5 L 236.582031 318.421875 L 239.691406 319.601563 L 242.960938 320.003906 L 249.09375 319.847656 L 246.914063 321.644531 L 245.234375 323.910156 L 244.148438 326.515625 L 243.726563 329.308594 L 244.042969 332.371094 L 245.214844 335.355469 L 245.855469 338.324219 L 246.347656 339.351563 L 245.550781 339.511719 L 244.589844 338.644531 L 243.40625 338.558594 L 241.210938 339.871094 L 241.886719 340.445313 L 246.324219 340.394531 L 246.78125 340.25 L 246.898438 340.492188 L 248.363281 342.402344 L 250.097656 343.910156 L 251.984375 345.003906 L 254.167969 345.757813 L 256.332031 346.058594 L 258.492188 345.9375 L 260.535156 347.621094 L 263.042969 349.058594 L 263.664063 349.039063 L 266.046875 352.214844 L 268.515625 358.183594 L 268.535156 359.769531 L 269.242188 362.765625 L 269.453125 363.117188 L 269.210938 365.21875 L 264.953125 369.09375 L 261.394531 373.164063 L 260.601563 374.816406 L 262.84375 374.3125 L 264.9375 375.519531 L 266.9375 378.226563 L 270.21875 378.804688 L 270.625 378.746094 L 271.910156 376.796875 L 272.234375 374.960938 L 273.40625 371.914063 L 274.707031 370.632813 L 277.851563 370.085938 L 279.070313 370.117188 L 281.230469 370.378906 L 283.527344 370.359375 L 284.253906 370.867188 L 286.703125 370.742188 L 293.949219 371.515625 L 296.914063 372.84375 Z M 233.34375 470.949219 L 230.75 469.875 L 227.832031 469.488281 L 224.789063 469.875 L 222.316406 470.898438 L 222.296875 470.886719 L 221.554688 470.992188 L 220.492188 470.847656 L 221.476563 469.683594 L 227.316406 466.367188 L 232.550781 467.761719 L 234.171875 469.894531 Z M 154.601563 381.894531 L 155.410156 382.832031 L 158.640625 384.867188 L 162.484375 385.753906 L 159.121094 386.453125 L 156.210938 388.023438 L 153.964844 390.273438 L 153.734375 388.820313 L 152.566406 386.542969 L 153.179688 384.597656 Z M 144.222656 361.644531 L 143.683594 359.28125 L 142.082031 356.542969 L 142.09375 356.238281 L 143.742188 357.417969 L 145.96875 358.386719 L 148.480469 358.886719 L 150.910156 358.84375 L 153.921875 358.335938 L 154.527344 358.125 L 154.066406 358.859375 L 150.984375 360.816406 L 147.425781 363.976563 L 146.109375 363.875 Z M 181.414063 322.277344 L 179.621094 320.117188 L 182.394531 321.761719 Z M 263.117188 344.191406 L 263.609375 343.832031 L 263.640625 343.980469 L 262.804688 345.191406 Z M 183.183594 230.675781 L 184.65625 229.105469 L 185.871094 227.175781 L 186.6875 225.042969 L 187.0625 222.921875 L 188.589844 221.722656 L 189.085938 221.875 L 189.332031 222.921875 L 188.898438 224.691406 L 189.238281 225.953125 L 190.898438 226.824219 L 192.988281 227.191406 L 194.445313 228.726563 L 194.429688 229.304688 L 192.117188 231.570313 L 189.460938 232.730469 L 188.34375 232.882813 L 187.070313 232.078125 L 185.40625 232.042969 L 181.046875 235.800781 L 180.578125 237.003906 L 174.761719 240.109375 L 170.214844 238.117188 L 167.777344 238.042969 L 167.984375 236.164063 L 167.84375 233.878906 L 167.257813 231.667969 L 169.054688 232.898438 L 171.050781 233.773438 L 173.175781 234.257813 L 175.351563 234.339844 L 177.507813 234.011719 L 179.5625 233.289063 L 181.449219 232.195313 Z M 190.203125 219.980469 L 190.9375 219.046875 L 192.058594 219.046875 L 191.214844 219.742188 Z M 198.699219 242.320313 L 200.15625 245.148438 L 201.945313 247.148438 L 203.8125 248.5 L 205.90625 249.457031 L 208.023438 249.964844 L 208.167969 249.96875 L 208.910156 251.429688 L 212.824219 256.707031 L 213.265625 256.828125 L 213.433594 256.585938 L 214.601563 257.097656 L 217.371094 258.992188 L 218.046875 261.121094 L 217.953125 272.324219 L 218.515625 275.671875 L 219.738281 278.425781 L 218.078125 277.199219 L 216.007813 274.683594 L 214.199219 273.324219 L 213.523438 269.414063 L 211.570313 265.957031 L 209.320313 263.851563 L 206.601563 262.414063 L 204.492188 261.851563 L 200.804688 261.414063 L 197.121094 261.707031 L 194.050781 262.945313 L 190.9375 265.570313 L 188.539063 266.738281 L 188.089844 264.128906 L 187.0625 261.691406 L 187.0625 257.816406 L 187.714844 254.542969 L 187.546875 251.851563 L 186.546875 248.804688 L 184.753906 246.144531 L 181.859375 243.8125 L 178.375 242.511719 L 171.554688 241.640625 L 169.273438 241.867188 L 166.917969 242.566406 L 167.527344 240.289063 L 167.585938 239.769531 L 168.246094 240.195313 L 178.0625 241.875 L 182.921875 243.167969 L 186.398438 241.730469 L 187.519531 239.417969 L 188.617188 238.355469 L 189.539063 238.171875 L 193.183594 238.5 Z M 202.570313 195.785156 L 198.691406 195.785156 L 197.867188 192.335938 L 196.042969 189.296875 L 198.355469 190.894531 L 200.988281 191.886719 L 203.78125 192.222656 L 206.445313 191.90625 L 206.445313 193.765625 L 206.226563 194.742188 L 205.648438 195.785156 Z M 185.625 168.277344 L 187.808594 168.746094 L 190.9375 168.644531 L 189.421875 170.378906 L 188.328125 172.261719 L 187.605469 174.3125 L 187.277344 176.464844 L 183.425781 175.730469 L 179.308594 176.398438 L 175.429688 176.398438 L 172.277344 175.875 L 169.351563 176.167969 L 166.9375 177.015625 L 164.765625 178.371094 L 162.859375 180.265625 L 161.5 182.433594 L 159.160156 179.4375 L 156.09375 177.40625 L 152.800781 176.464844 L 148.292969 176.398438 L 148.292969 172.523438 L 150.972656 172.363281 L 152.039063 172.039063 L 152.140625 172.144531 L 152.386719 171.933594 L 153.664063 171.542969 L 155.976563 170.179688 L 157.996094 168.222656 L 158.105469 168.027344 L 160.300781 168.324219 L 161.058594 169.320313 L 157.109375 173.804688 L 156.367188 175.339844 L 156.707031 175.816406 L 157.367188 175.984375 L 158.261719 175.542969 L 161.140625 173.015625 L 167.808594 170.273438 L 170.480469 169.527344 L 170.492188 169.949219 L 171.554688 169.839844 L 173.589844 168.316406 L 174.046875 166.78125 L 178.648438 166.167969 L 179.285156 167.089844 L 180.148438 167.667969 L 184.320313 169.011719 Z M 159.160156 166.132813 L 159.921875 164.769531 L 161.394531 163.195313 L 162.140625 162.027344 L 164.042969 162.292969 L 165.242188 161.992188 L 166.015625 161.605469 L 166.75 160.257813 L 167.589844 160.183594 L 167.507813 160.828125 L 166.417969 162.609375 L 162.722656 166.96875 L 162.175781 167.183594 L 161.726563 166.894531 L 161.859375 165.949219 L 161.53125 165.507813 L 159.984375 165.785156 Z M 174.355469 288.449219 L 175.941406 287.972656 L 177.875 286.960938 L 178.96875 286.101563 L 180.191406 286.804688 L 181.015625 286.710938 L 182.933594 286.238281 L 183.03125 285.160156 L 182.34375 284.746094 L 180.035156 285.351563 L 179.824219 285.339844 L 181.019531 283.960938 L 182.113281 282.074219 L 182.839844 280.015625 L 183.164063 277.859375 L 183.714844 281.386719 L 185.304688 284.582031 L 187.792969 287.144531 L 190.9375 288.832031 L 188.789063 288.527344 L 186.621094 288.628906 L 184.390625 289.175781 L 182.417969 290.082031 L 179.308594 292.707031 L 176.957031 293.714844 L 174.789063 295.296875 L 172.96875 297.441406 L 171.71875 299.960938 L 172.21875 296.449219 L 171.722656 293.667969 L 174.074219 288.722656 Z M 159.921875 195.785156 L 161.753906 193.066406 L 163.800781 195.785156 Z M 157.984375 249.898438 L 160.183594 249.300781 L 159.921875 250.0625 Z M 148.292969 308.539063 L 148.292969 312.09375 L 144.710938 314.125 L 144.414063 312.09375 L 144.414063 310.910156 L 144.765625 310.230469 L 145.863281 309.40625 Z M 144.414063 257.816406 L 145.074219 257.835938 L 144.578125 259.753906 Z M 121.539063 416.804688 L 124.324219 417.074219 L 127.582031 416.46875 L 130.429688 415.039063 L 132.785156 412.890625 L 131.726563 416.5625 L 131.945313 420.503906 L 133.398438 424.039063 L 135.972656 426.941406 L 135.933594 426.992188 L 132.351563 427.128906 L 128.90625 428.398438 L 127.15625 428.398438 L 126.53125 428.132813 L 127.425781 426.082031 L 128.796875 425.832031 L 131.792969 424.328125 L 131.226563 422.867188 L 130.640625 424.257813 L 127.769531 424.613281 L 124.941406 424.34375 L 124.472656 421.792969 L 124.460938 421.773438 L 125.167969 421.753906 L 125.464844 421.238281 L 124.929688 417.953125 L 123.328125 417.210938 L 121.445313 417.105469 Z M 105.644531 253.9375 L 107.945313 252.960938 L 109.984375 251.511719 L 109.832031 252.324219 L 108.992188 253.109375 L 107.617188 253.9375 Z M 88.945313 499.121094 L 88.542969 499.441406 L 88.566406 499.308594 L 88.941406 499.117188 Z M 286.679688 439.636719 L 283.058594 438.976563 L 282.164063 437.605469 L 282.484375 436.070313 L 286.839844 437.054688 L 287.960938 438.832031 Z M 236.835938 466.113281 L 235.136719 465.644531 L 236.523438 463.683594 L 237.195313 464.164063 L 237.5 465.839844 Z M 236.835938 466.113281 "/>
</g>
</svg>
