<?xml version="1.0" encoding="UTF-8"?>
<svg xmlns="http://www.w3.org/2000/svg" xmlns:xlink="http://www.w3.org/1999/xlink" width="378pt" height="504pt" viewBox="0 0 378 504" version="1.1">
<g id="data">
<rect x="0" y="0" width="378" height="504" style="fill:rgb(100%,100%,100%);fill-opacity:1;stroke:none;"/>
<path style=" stroke:none;fill-rule:nonzero;fill:rgb(100%,100%,100%);fill-opacity:1;" d="M 53.308594 504 L 324.691406 504 L 324.691406 0 L 53.308594 0 Z M 53.308594 504 "/>
<path style=" stroke:none;fill-rule:nonzero;fill:rgb(22.745098%,53.333333%,16.078431%);fill-opacity:1;" d="M 172.636719 291.746094 L 173.738281 290.90625 L 175.429688 288.832031 L 176.628906 291.667969 L 178.527344 294.09375 L 180.996094 295.933594 L 183.738281 297.03125 L 187.050781 297.394531 L 190.9375 296.585938 L 196.617188 296.550781 L 200.558594 295.4375 L 202.429688 294.304688 L 204.050781 292.84375 L 205.371094 291.101563 L 206.34375 289.144531 L 207.117188 285.121094 L 206.445313 281.078125 L 208.367188 278.886719 L 209.683594 276.292969 L 211.257813 270.472656 L 211.417969 267.351563 L 214.585938 268.910156 L 218.078125 269.445313 L 215.808594 272.378906 L 214.558594 276.003906 L 214.550781 279.839844 L 215.792969 283.464844 L 218.4375 286.75 L 221.953125 288.832031 L 222.398438 291.195313 L 223.320313 293.421875 L 224.597656 295.308594 L 226.445313 297.226563 L 229.792969 299.488281 L 230.738281 299.734375 L 234.328125 301.40625 L 235.292969 302.632813 L 237.460938 304.339844 L 237.90625 306.703125 L 238.765625 308.816406 L 241.339844 312.09375 L 242.410156 314.558594 L 243.933594 316.617188 L 246.296875 318.574219 L 249.09375 319.847656 L 250.800781 322.015625 L 252.96875 323.722656 L 252.722656 327.660156 L 253.859375 331.566406 L 255.074219 333.515625 L 258.121094 337.066406 L 260.722656 339.230469 L 259.65625 341.695313 L 259.542969 342.34375 L 258.378906 342.789063 L 257.507813 342.753906 L 256.035156 341.773438 L 253.664063 338.65625 L 252.601563 338.082031 L 245.550781 339.511719 L 244.589844 338.644531 L 243.40625 338.558594 L 241.210938 339.871094 L 241.886719 340.445313 L 246.324219 340.394531 L 249.617188 339.34375 L 251.976563 339.082031 L 254.382813 342.558594 L 259.3125 346.613281 L 259.335938 347.023438 L 260.09375 349.601563 L 261.667969 353.101563 L 263.316406 355.386719 L 265.683594 357.34375 L 268.476563 358.617188 L 269.003906 362.789063 L 269.402344 363.542969 L 269.210938 365.21875 L 264.953125 369.09375 L 261.394531 373.164063 L 260.601563 374.816406 L 262.84375 374.3125 L 264.9375 375.519531 L 266.9375 378.226563 L 270.21875 378.804688 L 270.625 378.746094 L 271.910156 376.796875 L 272.234375 374.960938 L 273.40625 371.914063 L 274.707031 370.632813 L 276.589844 370.304688 L 279.566406 371.535156 L 281.726563 371.800781 L 283.898438 371.65625 L 286.425781 370.757813 L 286.703125 370.742188 L 288.175781 370.898438 L 288.96875 372.550781 L 290.648438 374.648438 L 292.652344 376.238281 L 294.953125 377.351563 L 297.957031 377.984375 L 303.371094 378 L 303.246094 380.878906 L 303.925781 384.605469 L 305.257813 387.335938 L 307.066406 389.421875 L 307.179688 391.25 L 306.777344 393.191406 L 306.890625 393.976563 L 305.789063 396.917969 L 305.183594 399.824219 L 303.925781 402.410156 L 303.246094 406.136719 L 303.328125 408.035156 L 297.144531 414.53125 L 295.578125 412.011719 L 292.742188 410.515625 L 292.480469 410.636719 L 293.898438 413.703125 L 295.890625 416.628906 L 296.3125 416.765625 L 296.164063 417.742188 L 294.574219 419.804688 L 292.191406 421.289063 L 290.003906 421.65625 L 289.660156 421.574219 L 288.214844 419.332031 L 284.976563 421.730469 L 280.71875 424.230469 L 282.339844 425.378906 L 285.105469 424.398438 L 286.097656 423.375 L 286.894531 423.164063 L 287.328125 423.710938 L 287.632813 428.84375 L 285.6875 430.875 L 283.441406 432.558594 L 282.84375 432.699219 L 279.644531 432.160156 L 274.75 433.78125 L 272.609375 436.117188 L 274.253906 436.015625 L 275.152344 434.667969 L 276.683594 434.363281 L 278.285156 434.328125 L 281.054688 434.949219 L 281.828125 435.589844 L 281.691406 436.328125 L 279.554688 436.347656 L 277.390625 437.65625 L 277.96875 438.546875 L 281.382813 438.964844 L 286.863281 440.339844 L 289.394531 439.9375 L 291.074219 438.957031 L 296.328125 438.230469 L 296.371094 438.277344 L 299.492188 440.03125 L 299.492188 447.785156 L 297.320313 449.492188 L 296.707031 450.273438 L 295.839844 450.375 L 292.621094 451.640625 L 292.03125 452.09375 L 291.5625 452.148438 L 287.929688 454.003906 L 285.523438 456.472656 L 284.710938 458.027344 L 284.1875 457.9375 L 282.710938 459.332031 L 281.605469 459.261719 L 278.851563 459.585938 L 276.78125 460.191406 L 274.859375 461.164063 L 270.453125 464.738281 L 268.875 466.683594 L 267.261719 466.195313 L 265.421875 464.71875 L 261.605469 463.398438 L 258.847656 463.128906 L 249.09375 463.292969 L 246.558594 462.976563 L 244.144531 463.199219 L 241.476563 464.070313 L 239.097656 465.558594 L 238.308594 466.246094 L 238.210938 466.1875 L 238.632813 465.4375 L 239.46875 464.933594 L 237.714844 463.296875 L 231.496094 463.171875 L 231.378906 463.496094 L 232.574219 464.835938 L 232.214844 465.75 L 231.738281 466.042969 L 226.691406 465.496094 L 219.566406 468.449219 L 217.054688 467.824219 L 210.222656 468.96875 L 208.164063 468.875 L 207.273438 468.058594 L 206.238281 469.769531 L 209.429688 471.089844 L 209.714844 470.9375 L 209.96875 471.574219 L 208.28125 472.777344 L 206.847656 474.453125 L 206.84375 474.453125 L 204.453125 473.097656 L 203.015625 472.699219 L 197.625 472.007813 L 196.175781 472.65625 L 195.679688 473.863281 L 195.78125 474.523438 L 195.257813 474.742188 L 194.851563 473.972656 L 192.503906 472.234375 L 192.367188 472.074219 L 191.617188 471.574219 L 190.289063 470.589844 L 189.761719 470.339844 L 187.8125 469.042969 L 186.160156 468.644531 L 185.898438 468.519531 L 184.6875 468.289063 L 183.957031 468.109375 L 183.835938 468.121094 L 183.121094 467.984375 L 182.785156 468.234375 L 180.011719 468.527344 L 177.859375 469.375 L 177.523438 469.609375 L 176.207031 469.78125 L 174.339844 470.335938 L 168.992188 473.234375 L 168.214844 474.070313 L 167.203125 476.179688 L 165.253906 481.886719 L 165.105469 482.078125 L 164.242188 484.1875 L 163.972656 485.636719 L 163.605469 486.707031 L 161.628906 488.261719 L 160.1875 490.097656 L 159.296875 489.921875 L 157.140625 488.171875 L 156.527344 486.851563 L 154.683594 485.4375 L 153.613281 485.542969 L 152.417969 486.300781 L 151.738281 486.164063 L 148.46875 482.535156 L 144.773438 482.8125 L 142.902344 482.421875 L 139.46875 482.582031 L 135.785156 483.992188 L 135.367188 484.351563 L 134.507813 484.320313 L 132.167969 484.859375 L 130.273438 487.152344 L 129.34375 487.375 L 126.207031 489.277344 L 125.28125 490.203125 L 124.039063 490.597656 L 123.738281 491.828125 L 122.640625 493.375 L 121.632813 495.699219 L 121.300781 497.433594 L 120.710938 497.632813 L 119.265625 495.839844 L 114.984375 492.316406 L 112.371094 491.03125 L 109.523438 490.429688 L 111.691406 488.722656 L 112.09375 488.214844 L 112.199219 488.253906 L 112.445313 488.9375 L 113.574219 489.15625 L 118.144531 485.910156 L 121.425781 483.085938 L 122.164063 482.257813 L 123.28125 481.792969 L 125.292969 480.421875 L 127.496094 477.933594 L 128.90625 474.921875 L 131.167969 473.125 L 131.496094 472.738281 L 132.105469 472.640625 L 132.679688 471.785156 L 132.84375 471.144531 L 134.257813 469.472656 L 134.960938 468.242188 L 135.859375 467.5625 L 138.636719 464.640625 L 139.128906 458.542969 L 139.179688 458.261719 L 139.550781 456.820313 L 139.554688 456.117188 L 139.796875 454.753906 L 142.492188 455.105469 L 144.269531 456.015625 L 145.761719 455.429688 L 148.429688 452.488281 L 148.105469 447.519531 L 151.105469 446.613281 L 157.421875 446.269531 L 159.910156 445.683594 L 164.597656 446.761719 L 166.046875 446.148438 L 167.527344 446.515625 L 169.484375 447.285156 L 170.039063 448.109375 L 170.757813 448.421875 L 173.15625 448.464844 L 180.570313 447.503906 L 181.109375 445.632813 L 181.210938 443.15625 L 182.519531 440.25 L 190.867188 432.195313 L 195.792969 425.3125 L 197.929688 424.472656 L 198.285156 423.78125 L 198.070313 423.238281 L 197.8125 423.082031 L 196.09375 424.355469 L 192.90625 427.300781 L 190.570313 429.988281 L 189.222656 431.449219 L 185.628906 432.957031 L 183.714844 433.246094 L 182.441406 433.0625 L 178.394531 435.230469 L 177.398438 436.808594 L 177.039063 438.671875 L 176.445313 439.273438 L 174.058594 439.917969 L 170.558594 439.851563 L 166.820313 439 L 166.347656 438.652344 L 161.371094 433.375 L 159.03125 429.199219 L 155.65625 429.589844 L 149.269531 432.308594 L 149.113281 432.746094 L 148.292969 432.265625 L 148.292969 428.519531 L 148.539063 428.378906 L 150.066406 428.890625 L 151.640625 428.421875 L 152.765625 427.832031 L 153.085938 427.097656 L 152.808594 426.597656 L 149.976563 426.519531 L 150.066406 426.421875 L 151.347656 424.089844 L 151.972656 422.027344 L 152.691406 417.511719 L 152.488281 414.976563 L 151.785156 412.664063 L 150.546875 410.441406 L 148.855469 408.542969 L 150.757813 405.992188 L 151.867188 403.148438 L 152.828125 397.765625 L 152.769531 396.816406 L 153.054688 396.195313 L 154.199219 391.746094 L 154.015625 390.589844 L 154.695313 388.972656 L 155.136719 386.464844 L 155 383.792969 L 158.308594 384.761719 L 161.878906 384.699219 L 165.035156 383.667969 L 167.675781 381.875 L 171.699219 380.800781 L 173.957031 379.394531 L 175.847656 377.507813 L 177.21875 375.339844 L 178.109375 372.796875 L 178.335938 369.089844 L 177.328125 365.386719 L 175.429688 362.492188 L 174.667969 360.460938 L 173.539063 358.605469 L 171.894531 356.820313 L 170.808594 356.039063 L 172.597656 355.179688 L 173.933594 355.046875 L 174.484375 355.082031 L 179.910156 359.441406 L 180.433594 358.429688 L 177.679688 353.460938 L 177.800781 353.328125 L 178.527344 352.792969 L 180.867188 352.449219 L 181.503906 352.695313 L 181.914063 353.875 L 182.898438 354.332031 L 184.078125 356.789063 L 185.613281 357.902344 L 188.359375 357.621094 L 190.335938 355.148438 L 189.90625 355.050781 L 188.667969 355.527344 L 188.3125 355.957031 L 186.378906 356.386719 L 183.8125 354.640625 L 181.597656 349.84375 L 182.308594 348.925781 L 183.410156 346.320313 L 183.84375 343.660156 L 183.71875 341.347656 L 183.433594 340.21875 L 185.429688 339.015625 L 185.140625 338.578125 L 183.242188 338.488281 L 183.347656 337.105469 L 183.066406 332.925781 L 182.277344 330.277344 L 184.695313 329.191406 L 187.28125 323.421875 L 187.71875 320.933594 L 187.855469 317.484375 L 184.742188 320.527344 L 179.199219 323.441406 L 177.335938 322.691406 L 175.539063 319.578125 L 175.589844 317.59375 L 175.121094 314.09375 L 173.816406 310.9375 L 171.554688 308.214844 L 172.222656 304.574219 L 171.714844 300.90625 L 170.882813 298.894531 L 169.929688 297.449219 Z M 152.167969 405.136719 L 152.398438 407.4375 L 153.128906 409.765625 L 154.332031 411.890625 L 155.949219 413.71875 L 157.800781 415.101563 L 160.011719 416.132813 L 162.261719 416.667969 L 164.824219 416.78125 L 167.109375 416.480469 L 169.289063 415.738281 L 171.277344 414.578125 L 173 413.050781 L 174.457031 411.101563 L 175.523438 408.773438 L 176.109375 406.539063 L 176.242188 404.355469 L 175.941406 402.0625 L 175.1875 399.875 L 173.941406 397.777344 L 172.382813 396.070313 L 170.625 394.769531 L 168.535156 393.777344 L 165.8125 393.015625 L 163.375 392.84375 L 161.085938 393.152344 L 158.898438 393.910156 L 156.90625 395.085938 L 155.183594 396.632813 L 153.804688 398.488281 L 152.816406 400.582031 L 152.265625 402.828125 Z M 232.683594 471.785156 L 231.066406 473.117188 L 230.347656 474.070313 L 229.960938 474.269531 L 228.117188 474.644531 L 222.296875 470.886719 L 221.394531 471.015625 L 220.609375 470.707031 L 221.476563 469.683594 L 227.316406 466.367188 L 232.550781 467.761719 L 234.171875 469.894531 Z M 202.570313 253.9375 L 204.277344 256.109375 L 206.445313 257.816406 L 206.484375 258.773438 L 202.921875 257.097656 L 198.878906 256.71875 L 200.8125 255.550781 Z M 191.234375 259.847656 L 190.9375 257.816406 L 194.816406 257.816406 Z M 171.554688 172.523438 L 173.675781 172.148438 L 175.804688 171.335938 L 177.734375 170.117188 L 179.308594 168.644531 L 178.640625 172.523438 L 179.308594 176.398438 L 177.734375 174.925781 L 175.804688 173.710938 L 173.675781 172.898438 Z M 156.046875 176.398438 L 157.855469 177.222656 L 156.386719 180.609375 L 156.046875 184.152344 L 154.339844 181.984375 L 152.167969 180.277344 L 154.339844 178.570313 Z M 144.785156 370.035156 L 147.996094 368.214844 L 148.320313 373.5625 L 145.449219 374.257813 L 145.3125 374.355469 L 144.414063 374.125 L 144.414063 370.359375 Z M 143.953125 314.519531 L 144.550781 310.96875 L 144.535156 310.675781 L 144.765625 310.230469 L 145.863281 309.40625 L 148.292969 308.539063 L 148.292969 312.09375 L 145.992188 313.070313 Z M 121.566406 416.71875 L 125.1875 416.285156 L 124.769531 417.878906 L 123.328125 417.210938 L 121.445313 417.105469 Z M 286.679688 439.636719 L 283.058594 438.976563 L 282.164063 437.605469 L 282.484375 436.070313 L 286.839844 437.054688 L 287.960938 438.832031 Z M 236.835938 466.113281 L 235.136719 465.644531 L 236.523438 463.683594 L 237.195313 464.164063 L 237.5 465.839844 Z M 236.835938 466.113281 "/>
<path style=" stroke:none;fill-rule:nonzero;fill:rgb(80.392157%,58.431373%,4.705882%);fill-opacity:1;" d="M 192.875 269.445313 L 192.59375 271.242188 L 191.765625 272.863281 L 190.480469 274.152344 L 188.859375 274.976563 L 187.0625 275.261719 L 185.265625 274.976563 L 183.644531 274.152344 L 182.355469 272.863281 L 181.53125 271.242188 L 181.246094 269.445313 L 181.53125 267.648438 L 182.355469 266.027344 L 183.644531 264.742188 L 185.265625 263.914063 L 187.0625 263.628906 L 188.859375 263.914063 L 190.480469 264.742188 L 191.765625 266.027344 L 192.59375 267.648438 Z M 192.875 269.445313 "/>
<path style=" stroke:none;fill-rule:nonzero;fill:rgb(80.392157%,58.431373%,4.705882%);fill-opacity:1;" d="M 157.984375 238.429688 L 157.699219 240.226563 L 156.875 241.847656 L 155.585938 243.136719 L 153.964844 243.960938 L 152.167969 244.246094 L 150.371094 243.960938 L 148.75 243.136719 L 147.464844 241.847656 L 146.636719 240.226563 L 146.355469 238.429688 L 146.636719 236.632813 L 147.464844 235.011719 L 148.75 233.726563 L 150.371094 232.898438 L 152.167969 232.617188 L 153.964844 232.898438 L 155.585938 233.726563 L 156.875 235.011719 L 157.699219 236.632813 Z M 157.984375 238.429688 "/>
<path style=" stroke:none;fill-rule:nonzero;fill:rgb(80.392157%,58.431373%,4.705882%);fill-opacity:1;" d="M 157.984375 246.183594 L 157.699219 247.980469 L 156.875 249.601563 L 155.585938 250.890625 L 153.964844 251.714844 L 152.167969 252 L 150.371094 251.714844 L 148.75 250.890625 L 147.464844 249.601563 L 146.636719 247.980469 L 146.355469 246.183594 L 146.636719 244.386719 L 147.234375 243.214844 L 148.300781 243.253906 L 147.464844 242.765625 L 148.75 241.480469 L 150.371094 240.652344 L 152.167969 240.371094 L 153.964844 240.652344 L 155.585938 241.480469 L 156.875 242.765625 L 157.699219 244.386719 Z M 157.984375 246.183594 "/>
<path style=" stroke:none;fill-rule:nonzero;fill:rgb(80.392157%,58.431373%,4.705882%);fill-opacity:1;" d="M 142.476563 203.539063 L 142.191406 205.335938 L 141.367188 206.957031 L 140.078125 208.242188 L 138.457031 209.070313 L 136.660156 209.355469 L 134.863281 209.070313 L 133.242188 208.242188 L 132.347656 207.347656 L 134.21875 205.03125 L 134.59375 204.003906 L 131.875 206.792969 L 131.128906 205.335938 L 130.847656 203.539063 L 131.128906 201.742188 L 131.957031 200.121094 L 133.242188 198.832031 L 134.863281 198.007813 L 136.660156 197.722656 L 138.457031 198.007813 L 140.078125 198.832031 L 141.367188 200.121094 L 142.191406 201.742188 Z M 142.476563 203.539063 "/>
<path style=" stroke:none;fill-rule:nonzero;fill:rgb(80.392157%,58.431373%,4.705882%);fill-opacity:1;" d="M 157.984375 358.617188 L 157.699219 360.414063 L 156.875 362.035156 L 155.585938 363.320313 L 153.964844 364.144531 L 152.167969 364.429688 L 150.371094 364.144531 L 148.957031 363.425781 L 151.550781 360.582031 L 153.09375 359.609375 L 154.941406 359.808594 Z M 148.476563 363.042969 L 147.464844 362.035156 L 146.636719 360.414063 L 146.355469 358.617188 L 146.636719 356.816406 L 147.464844 355.195313 L 148.75 353.910156 L 150.074219 353.238281 L 151.039063 355.578125 L 155.546875 356.503906 L 154.066406 358.859375 L 150.984375 360.816406 Z M 148.476563 363.042969 "/>
<path style=" stroke:none;fill-rule:nonzero;fill:rgb(80.392157%,58.431373%,4.705882%);fill-opacity:1;" d="M 185.125 242.308594 L 184.839844 244.105469 L 184.011719 245.726563 L 182.726563 247.011719 L 181.105469 247.839844 L 179.308594 248.125 L 177.511719 247.839844 L 175.890625 247.011719 L 174.601563 245.726563 L 173.777344 244.105469 L 173.492188 242.308594 L 173.679688 241.125 L 178.0625 241.875 L 182.921875 243.167969 Z M 174.125 239.832031 L 174.601563 238.890625 L 175.890625 237.601563 L 177.511719 236.777344 L 179.308594 236.492188 L 180.691406 236.710938 L 180.578125 237.003906 L 174.761719 240.109375 Z M 174.125 239.832031 "/>
<path style=" stroke:none;fill-rule:nonzero;fill:rgb(80.392157%,58.431373%,4.705882%);fill-opacity:1;" d="M 173.683594 239.636719 L 173.492188 238.429688 L 173.777344 236.632813 L 174.601563 235.011719 L 175.890625 233.726563 L 177.511719 232.898438 L 179.308594 232.617188 L 181.105469 232.898438 L 183.0625 234.0625 L 181.046875 235.800781 L 180.578125 237.003906 L 174.761719 240.109375 Z M 182.742188 243.121094 L 181.105469 243.960938 L 179.308594 244.246094 L 177.511719 243.960938 L 175.890625 243.136719 L 174.289063 241.230469 Z M 182.742188 243.121094 "/>
<path style=" stroke:none;fill-rule:nonzero;fill:rgb(80.392157%,58.431373%,4.705882%);fill-opacity:1;" d="M 154.175781 292.269531 L 154.390625 290.910156 L 155.21875 289.289063 L 156.503906 288.003906 L 158.125 287.175781 L 159.921875 286.890625 L 161.71875 287.175781 L 163.339844 288.003906 L 164.679688 289.394531 L 163.3125 290.011719 L 161.832031 291.855469 L 159.410156 293.515625 L 156.15625 293.3125 Z M 154.175781 292.269531 "/>
<path style=" stroke:none;fill-rule:nonzero;fill:rgb(80.392157%,58.431373%,4.705882%);fill-opacity:1;" d="M 142.597656 314.449219 L 143.957031 315.140625 L 145.242188 316.429688 L 146.070313 318.050781 L 146.324219 319.648438 L 141.859375 323.019531 L 139.824219 322.464844 L 137.933594 323.433594 L 137.675781 322.921875 L 139.816406 316.644531 L 142.300781 315.023438 Z M 142.597656 314.449219 "/>
<path style=" stroke:none;fill-rule:nonzero;fill:rgb(80.392157%,58.431373%,4.705882%);fill-opacity:1;" d="M 138.601563 409.015625 L 138.316406 410.8125 L 137.488281 412.433594 L 136.203125 413.71875 L 134.582031 414.546875 L 132.785156 414.832031 L 130.988281 414.546875 L 129.367188 413.71875 L 127.757813 411.800781 L 133.074219 411.34375 L 134.871094 409.289063 L 135.753906 407.632813 L 137.585938 406.550781 L 137.980469 406.5625 L 138.316406 407.21875 Z M 138.601563 409.015625 "/>
<path style=" stroke:none;fill-rule:nonzero;fill:rgb(80.392157%,58.431373%,4.705882%);fill-opacity:1;" d="M 130.796875 424.828125 L 130.5625 426.320313 L 129.734375 427.941406 L 128.640625 429.039063 L 126.53125 428.132813 L 127.425781 426.082031 L 128.796875 425.832031 Z M 125.054688 418.710938 L 126.828125 418.992188 L 128.449219 419.816406 L 129.734375 421.105469 L 130.5625 422.726563 L 130.640625 424.257813 L 127.769531 424.613281 L 122.949219 424.152344 L 121.496094 423.164063 L 124.125 421.78125 L 125.167969 421.753906 L 125.464844 421.238281 Z M 125.054688 418.710938 "/>
<path style=" stroke:none;fill-rule:nonzero;fill:rgb(80.392157%,58.431373%,4.705882%);fill-opacity:1;" d="M 80.15625 167.210938 L 82.382813 166.707031 L 84.183594 166.992188 L 85.804688 167.816406 L 87.089844 169.105469 L 88.003906 171.289063 L 84.875 171.125 L 84.914063 169.441406 L 82.996094 168.253906 L 81.464844 168.371094 Z M 85.394531 175.835938 L 84.546875 175.601563 L 83.046875 174.507813 L 82.722656 173.699219 L 82.824219 172.589844 L 83.972656 171.789063 L 86.566406 172.507813 L 87.433594 173.25 L 87.285156 175.226563 Z M 85.78125 177.238281 L 84.183594 178.054688 L 81.917969 178.265625 L 82.046875 176.234375 L 83.4375 175.515625 L 85.28125 176.539063 Z M 85.78125 177.238281 "/>
<path style=" stroke:none;fill-rule:nonzero;fill:rgb(80.392157%,58.431373%,4.705882%);fill-opacity:1;" d="M 178.414063 112.574219 L 181.105469 112.714844 L 182.726563 113.542969 L 183.644531 114.460938 L 181.886719 115.097656 Z M 180.816406 120.886719 L 179.261719 120.746094 L 176.429688 116.660156 L 176.75 115.25 L 177.207031 114.695313 L 178.613281 114.28125 L 181.269531 116.636719 L 182.96875 119.6875 L 182.941406 120.441406 Z M 180.816406 120.886719 "/>
<path style=" stroke:none;fill-rule:nonzero;fill:rgb(80.392157%,58.431373%,4.705882%);fill-opacity:1;" d="M 164.992188 357.441406 L 163.339844 359.441406 L 161.71875 360.269531 L 159.921875 360.554688 L 158.125 360.269531 L 156.296875 359.234375 L 160.492188 357.457031 Z M 154.902344 357.535156 L 154.347656 356.257813 L 155.546875 356.503906 Z M 154.902344 357.535156 "/>
<path style=" stroke:none;fill-rule:nonzero;fill:rgb(80.392157%,58.431373%,4.705882%);fill-opacity:1;" d="M 139.167969 318.554688 L 140.078125 319.019531 L 141.367188 320.304688 L 142.191406 321.925781 L 142.316406 322.703125 L 141.859375 323.019531 L 139.824219 322.464844 L 137.933594 323.433594 L 137.675781 322.921875 Z M 139.167969 318.554688 "/>
<path style=" stroke:none;fill-rule:nonzero;fill:rgb(80.392157%,58.431373%,4.705882%);fill-opacity:1;" d="M 110.160156 200.433594 L 108.972656 199.578125 L 108.9375 198.890625 L 110.578125 197.179688 L 111.398438 197.769531 L 111.5 198.265625 L 111.128906 199.855469 Z M 105.003906 196.058594 L 106.105469 194.957031 L 108.402344 194.023438 L 108.09375 196.351563 L 107.546875 197.015625 L 106.597656 197.398438 L 105.582031 196.804688 Z M 105.003906 196.058594 "/>
<path style=" stroke:none;fill-rule:nonzero;fill:rgb(80.392157%,58.431373%,4.705882%);fill-opacity:1;" d="M 106.976563 236.632813 L 105.476563 236.191406 L 106.28125 234.464844 L 107.839844 232.910156 L 108.882813 232.734375 L 107.535156 236.1875 Z M 106.976563 236.632813 "/>
<path style=" stroke:none;fill-rule:nonzero;fill:rgb(80.392157%,58.431373%,4.705882%);fill-opacity:1;" d="M 136.210938 448.453125 L 135.929688 448.140625 L 136.109375 446.949219 L 136.398438 446.875 L 136.6875 448.207031 Z M 136.210938 448.453125 "/>
<path style=" stroke:none;fill-rule:nonzero;fill:rgb(80.392157%,58.431373%,4.705882%);fill-opacity:1;" d="M 88.429688 500.046875 L 88.566406 499.308594 L 88.941406 499.117188 L 89.34375 499.789063 Z M 88.429688 500.046875 "/>
</g>
</svg>
