<?xml version="1.0" encoding="UTF-8"?>
<svg xmlns="http://www.w3.org/2000/svg" xmlns:xlink="http://www.w3.org/1999/xlink" width="378pt" height="504pt" viewBox="0 0 378 504" version="1.1">
<g id="data">
<rect x="0" y="0" width="378" height="504" style="fill:rgb(100%,100%,100%);fill-opacity:1;stroke:none;"/>
<path style=" stroke:none;fill-rule:nonzero;fill:rgb(100%,100%,100%);fill-opacity:1;" d="M 53.308594 504 L 324.691406 504 L 324.691406 0 L 53.308594 0 Z M 53.308594 504 "/>
<path style=" stroke:none;fill-rule:nonzero;fill:rgb(22.745098%,53.333333%,16.078431%);fill-opacity:1;" d="M 280.109375 405.136719 L 280.421875 402.464844 L 280.117188 399.792969 L 279.203125 397.261719 L 277.734375 395.011719 L 279.988281 396.480469 L 282.515625 397.394531 L 285.191406 397.699219 L 287.863281 397.382813 L 285.285156 398.523438 L 283.058594 400.246094 L 281.246094 402.5625 Z M 245.214844 432.277344 L 248.585938 430.746094 L 250.363281 433.785156 L 252.96875 436.152344 L 253.34375 438.277344 L 254.160156 440.40625 L 255.375 442.335938 L 256.847656 443.90625 L 254.652344 446.523438 L 253.277344 449.785156 L 252.65625 454.449219 L 253.3125 458.210938 L 250.753906 456.59375 L 247.988281 455.714844 L 241.730469 454.878906 L 237.960938 455.375 L 240.796875 453.90625 L 243.046875 451.820313 L 244.332031 449.910156 L 245.214844 447.785156 L 246.703125 445.695313 L 247.625 443.574219 L 248.164063 440.546875 L 247.921875 437.605469 L 246.945313 434.820313 Z M 245.214844 432.277344 "/>
<path style=" stroke:none;fill-rule:nonzero;fill:rgb(80.392157%,58.431373%,4.705882%);fill-opacity:1;" d="M 223.890625 343.109375 L 223.609375 344.90625 L 222.78125 346.527344 L 221.496094 347.8125 L 219.875 348.636719 L 218.078125 348.921875 L 216.28125 348.636719 L 214.660156 347.8125 L 213.371094 346.527344 L 212.546875 344.90625 L 212.261719 343.109375 L 212.546875 341.3125 L 213.371094 339.691406 L 214.660156 338.402344 L 216.28125 337.578125 L 218.078125 337.292969 L 219.875 337.578125 L 221.496094 338.402344 L 222.78125 339.691406 L 223.609375 341.3125 Z M 223.890625 343.109375 "/>
<path style=" stroke:none;fill-rule:nonzero;fill:rgb(80.392157%,58.431373%,4.705882%);fill-opacity:1;" d="M 227.769531 401.261719 L 227.484375 403.058594 L 226.660156 404.679688 L 225.371094 405.964844 L 223.75 406.792969 L 221.953125 407.078125 L 220.15625 406.792969 L 218.535156 405.964844 L 217.25 404.679688 L 216.421875 403.058594 L 216.136719 401.261719 L 216.421875 399.464844 L 217.25 397.84375 L 218.535156 396.558594 L 220.15625 395.730469 L 221.953125 395.445313 L 223.75 395.730469 L 225.371094 396.558594 L 226.660156 397.84375 L 227.484375 399.464844 Z M 227.769531 401.261719 "/>
<path style=" stroke:none;fill-rule:nonzero;fill:rgb(80.392157%,58.431373%,4.705882%);fill-opacity:1;" d="M 258.785156 416.769531 L 258.5 418.566406 L 257.675781 420.1875 L 256.386719 421.472656 L 254.765625 422.300781 L 252.96875 422.585938 L 251.171875 422.300781 L 249.550781 421.472656 L 248.265625 420.1875 L 247.4375 418.566406 L 247.152344 416.769531 L 247.4375 414.972656 L 248.265625 413.351563 L 249.550781 412.066406 L 251.171875 411.238281 L 252.96875 410.953125 L 254.765625 411.238281 L 256.386719 412.066406 L 257.675781 413.351563 L 258.5 414.972656 Z M 258.785156 416.769531 "/>
<path style=" stroke:none;fill-rule:nonzero;fill:rgb(80.392157%,58.431373%,4.705882%);fill-opacity:1;" d="M 208.382813 420.644531 L 208.101563 422.441406 L 207.273438 424.0625 L 205.988281 425.351563 L 204.367188 426.175781 L 202.570313 426.460938 L 200.773438 426.175781 L 199.152344 425.351563 L 198.046875 424.246094 L 198.285156 423.78125 L 198.070313 423.238281 L 197.488281 423.324219 L 197.039063 422.441406 L 196.753906 420.644531 L 197.039063 418.847656 L 197.863281 417.226563 L 199.152344 415.941406 L 200.773438 415.117188 L 202.570313 414.832031 L 204.367188 415.117188 L 205.988281 415.941406 L 207.273438 417.226563 L 208.101563 418.847656 Z M 208.382813 420.644531 "/>
<path style=" stroke:none;fill-rule:nonzero;fill:rgb(80.392157%,58.431373%,4.705882%);fill-opacity:1;" d="M 216.136719 463.292969 L 215.855469 465.089844 L 215.027344 466.710938 L 213.742188 467.996094 L 212.621094 468.566406 L 210.222656 468.96875 L 208.527344 468.824219 L 206.90625 467.996094 L 205.617188 466.710938 L 204.792969 465.089844 L 204.507813 463.292969 L 204.792969 461.496094 L 205.617188 459.875 L 206.90625 458.585938 L 208.527344 457.761719 L 210.324219 457.476563 L 212.121094 457.761719 L 213.742188 458.585938 L 215.027344 459.875 L 215.855469 461.496094 Z M 216.136719 463.292969 "/>
<path style=" stroke:none;fill-rule:nonzero;fill:rgb(80.392157%,58.431373%,4.705882%);fill-opacity:1;" d="M 192.875 463.292969 L 192.59375 465.089844 L 191.765625 466.710938 L 190.480469 467.996094 L 188.859375 468.824219 L 187.121094 469.097656 L 183.644531 467.996094 L 182.355469 466.710938 L 181.53125 465.089844 L 181.246094 463.292969 L 181.53125 461.496094 L 182.355469 459.875 L 183.644531 458.585938 L 185.265625 457.761719 L 187.0625 457.476563 L 188.859375 457.761719 L 190.480469 458.585938 L 191.765625 459.875 L 192.59375 461.496094 Z M 192.875 463.292969 "/>
<path style=" stroke:none;fill-rule:nonzero;fill:rgb(80.392157%,58.431373%,4.705882%);fill-opacity:1;" d="M 220.015625 463.292969 L 219.730469 465.089844 L 218.90625 466.710938 L 217.644531 467.972656 L 217.054688 467.824219 L 212.078125 468.65625 L 210.78125 467.996094 L 209.496094 466.710938 L 208.667969 465.089844 L 208.382813 463.292969 L 208.667969 461.496094 L 209.496094 459.875 L 210.78125 458.585938 L 212.402344 457.761719 L 214.199219 457.476563 L 215.996094 457.761719 L 217.617188 458.585938 L 218.90625 459.875 L 219.730469 461.496094 Z M 220.015625 463.292969 "/>
<path style=" stroke:none;fill-rule:nonzero;fill:rgb(80.392157%,58.431373%,4.705882%);fill-opacity:1;" d="M 189 350.863281 L 188.714844 352.660156 L 187.890625 354.28125 L 185.78125 355.984375 L 183.8125 354.640625 L 179.976563 346.332031 L 181.386719 345.332031 L 183.183594 345.046875 L 184.980469 345.332031 L 186.601563 346.15625 L 187.890625 347.441406 L 188.714844 349.066406 Z M 183.964844 356.554688 L 181.386719 356.390625 L 179.765625 355.566406 L 178.480469 354.28125 L 177.925781 353.1875 L 178.242188 352.835938 L 180.867188 352.449219 L 181.503906 352.695313 L 181.914063 353.875 L 182.898438 354.332031 Z M 183.964844 356.554688 "/>
<path style=" stroke:none;fill-rule:nonzero;fill:rgb(80.392157%,58.431373%,4.705882%);fill-opacity:1;" d="M 185.125 242.308594 L 184.839844 244.105469 L 184.011719 245.726563 L 182.726563 247.011719 L 181.105469 247.839844 L 179.308594 248.125 L 177.511719 247.839844 L 175.890625 247.011719 L 174.601563 245.726563 L 173.777344 244.105469 L 173.492188 242.308594 L 173.679688 241.125 L 178.0625 241.875 L 182.921875 243.167969 Z M 174.125 239.832031 L 174.601563 238.890625 L 175.890625 237.601563 L 177.511719 236.777344 L 179.308594 236.492188 L 180.691406 236.710938 L 180.578125 237.003906 L 174.761719 240.109375 Z M 174.125 239.832031 "/>
<path style=" stroke:none;fill-rule:nonzero;fill:rgb(80.392157%,58.431373%,4.705882%);fill-opacity:1;" d="M 123.519531 496.007813 L 121.613281 495.136719 L 120.324219 493.847656 L 119.5 492.226563 L 119.214844 490.429688 L 119.5 488.632813 L 120.324219 487.011719 L 121.613281 485.726563 L 123.234375 484.898438 L 125.03125 484.617188 L 126.828125 484.898438 L 128.449219 485.726563 L 129.984375 487.503906 L 129.414063 488.195313 L 126.714844 489.746094 L 124.039063 490.597656 L 123.132813 494.289063 L 123.664063 495.292969 Z M 123.519531 496.007813 "/>
<path style=" stroke:none;fill-rule:nonzero;fill:rgb(80.392157%,58.431373%,4.705882%);fill-opacity:1;" d="M 262.660156 463.292969 L 262.433594 464.734375 L 259.269531 463.777344 L 256.070313 463.507813 L 251.210938 464.4375 L 251.03125 463.292969 L 251.316406 461.496094 L 252.140625 459.875 L 253.429688 458.585938 L 255.050781 457.761719 L 256.847656 457.476563 L 258.644531 457.761719 L 260.265625 458.585938 L 261.550781 459.875 L 262.375 461.496094 Z M 262.660156 463.292969 "/>
<path style=" stroke:none;fill-rule:nonzero;fill:rgb(80.392157%,58.431373%,4.705882%);fill-opacity:1;" d="M 173.683594 239.636719 L 173.492188 238.429688 L 173.777344 236.632813 L 174.601563 235.011719 L 175.890625 233.726563 L 177.511719 232.898438 L 179.308594 232.617188 L 181.105469 232.898438 L 183.0625 234.0625 L 181.046875 235.800781 L 180.578125 237.003906 L 174.761719 240.109375 Z M 182.742188 243.121094 L 181.105469 243.960938 L 179.308594 244.246094 L 177.511719 243.960938 L 175.890625 243.136719 L 174.289063 241.230469 Z M 182.742188 243.121094 "/>
<path style=" stroke:none;fill-rule:nonzero;fill:rgb(80.392157%,58.431373%,4.705882%);fill-opacity:1;" d="M 305.359375 398.992188 L 303.828125 398.210938 L 302.542969 396.925781 L 301.714844 395.304688 L 301.429688 393.507813 L 301.714844 391.710938 L 302.542969 390.089844 L 303.828125 388.804688 L 305.449219 387.976563 L 306.957031 387.738281 L 307.179688 391.25 L 306.777344 393.191406 L 306.890625 393.976563 Z M 305.359375 398.992188 "/>
</g>
</svg>
