<?xml version="1.0" encoding="UTF-8"?>
<svg xmlns="http://www.w3.org/2000/svg" xmlns:xlink="http://www.w3.org/1999/xlink" width="378pt" height="504pt" viewBox="0 0 378 504" version="1.1">
<g id="data">
<rect x="0" y="0" width="378" height="504" style="fill:rgb(100%,100%,100%);fill-opacity:1;stroke:none;"/>
<path style=" stroke:none;fill-rule:nonzero;fill:rgb(100%,100%,100%);fill-opacity:1;" d="M 53.308594 504 L 324.691406 504 L 324.691406 0 L 53.308594 0 Z M 53.308594 504 "/>
<path style=" stroke:none;fill-rule:nonzero;fill:rgb(22.745098%,53.333333%,16.078431%);fill-opacity:1;" d="M 306.542969 392.816406 L 307.117188 390.222656 L 307.179688 391.25 L 306.800781 393.070313 Z M 272.355469 397.382813 L 274.523438 395.679688 L 276.230469 393.507813 L 278.585938 395.65625 L 281.433594 397.082031 L 284.691406 397.691406 L 287.863281 397.382813 L 286.726563 400.097656 L 286.304688 403.136719 L 286.691406 406.179688 L 287.863281 409.015625 L 286.289063 407.542969 L 284.359375 406.328125 L 282.230469 405.511719 L 280.109375 405.136719 L 278.96875 402.5625 L 277.246094 400.335938 L 274.929688 398.523438 Z M 241.339844 393.507813 L 244.199219 392.195313 L 246.601563 390.164063 L 246.125 392.8125 L 246.246094 395.375 L 246.925781 397.847656 L 248.132813 400.109375 L 249.898438 402.140625 L 251.972656 403.648438 L 254.328125 404.664063 L 256.847656 405.136719 L 255.316406 406.675781 L 254.09375 408.472656 L 253.191406 410.585938 L 252.734375 412.707031 L 252.96875 416.769531 L 252.382813 419.269531 L 252.355469 421.839844 L 252.980469 424.59375 L 254.179688 427.011719 L 256.382813 429.515625 L 259.207031 431.292969 L 262.160156 432.160156 L 266.539063 432.441406 L 263.953125 433.191406 L 261.609375 434.519531 L 259.636719 436.351563 L 258.132813 438.585938 L 257.15625 441.234375 L 256.847656 443.90625 L 254.585938 446.632813 L 253.277344 449.785156 L 252.65625 454.449219 L 253.3125 458.210938 L 250.753906 456.59375 L 247.863281 455.691406 L 241.464844 454.875 L 237.460938 455.539063 L 239.589844 453.03125 L 240.894531 450.148438 L 241.632813 445.761719 L 241.324219 442.339844 L 239.890625 438.9375 L 237.460938 436.152344 L 237.082031 432.480469 L 235.574219 429.113281 L 232.984375 426.308594 L 229.746094 424.535156 L 231.863281 425.0625 L 234.167969 425.179688 L 236.328125 424.871094 L 238.507813 424.109375 L 240.496094 422.933594 L 242.125 421.480469 L 243.453125 419.75 L 244.480469 417.683594 L 245.136719 415.074219 L 245.230469 411.996094 L 244.984375 409.835938 L 244.289063 407.636719 L 243.097656 405.519531 L 241.496094 403.691406 L 239.65625 402.304688 L 237.460938 401.261719 L 238.933594 399.6875 L 240.148438 397.757813 L 240.964844 395.628906 Z M 221.953125 327.601563 L 224.089844 325.261719 L 225.472656 322.554688 L 226.820313 325.855469 L 229.101563 328.59375 L 230.964844 329.933594 L 233.058594 330.882813 L 235.167969 331.382813 L 237.460938 331.476563 L 239.386719 334.929688 L 242.359375 337.539063 L 244.433594 338.539063 L 246.664063 339.113281 L 247.304688 339.15625 L 245.550781 339.511719 L 244.589844 338.644531 L 243.40625 338.558594 L 241.210938 339.871094 L 241.886719 340.445313 L 246.324219 340.394531 L 249.617188 339.34375 L 249.808594 339.324219 L 250.84375 339.390625 L 252.125 339.292969 L 253.273438 340.953125 L 253.34375 341.351563 L 254.160156 343.480469 L 255.375 345.414063 L 256.847656 346.984375 L 253.179688 347.359375 L 249.917969 348.789063 L 247.164063 351.238281 L 245.363281 354.308594 L 244.253906 352.023438 L 242.675781 350.03125 L 240.269531 348.164063 L 237.460938 346.984375 L 235.289063 343.363281 L 231.96875 340.757813 L 229.199219 339.726563 L 226.136719 339.433594 L 223.101563 339.953125 L 220.308594 341.253906 L 222.375 338.191406 L 223.371094 334.632813 L 223.230469 331.066406 Z M 206.445313 471.046875 L 207.25 470.1875 L 209.328125 471.046875 Z M 208.292969 468.878906 L 209.132813 467.542969 L 209.949219 465.414063 L 210.324219 463.292969 L 216.859375 463.609375 L 219.273438 463.359375 L 222.832031 461.976563 L 225.832031 459.414063 L 227.847656 459.710938 L 226.214844 462.304688 L 225.339844 465.113281 L 225.296875 466.078125 L 219.714844 468.386719 L 218.167969 468.101563 L 217.054688 467.824219 L 210.222656 468.96875 Z M 225.230469 467.550781 L 225.203125 468.175781 L 225.832031 471.046875 L 222.570313 469.058594 Z M 209.757813 471.046875 L 209.511719 471.046875 L 209.714844 470.9375 Z M 202.570313 393.507813 L 205.820313 391.738281 L 208.421875 388.933594 L 209.941406 385.558594 L 210.324219 381.875 L 213.882813 381.007813 L 217.089844 378.988281 L 215.503906 381.277344 L 214.480469 384 L 213.410156 389.203125 L 213.789063 393.097656 L 211.289063 392.703125 L 208.761719 392.855469 L 205.371094 393.855469 L 203.246094 394.925781 Z M 190.9375 436.152344 L 192.816406 433.882813 L 194.0625 431.214844 L 194.601563 428.320313 L 194.515625 427.09375 L 195.792969 425.3125 L 197.929688 424.472656 L 198.285156 423.78125 L 198.070313 423.238281 L 197.8125 423.082031 L 196.09375 424.355469 L 194.429688 425.894531 L 194.394531 425.382813 L 193.457031 422.589844 L 191.84375 420.125 L 189.667969 418.140625 L 187.0625 416.769531 L 190.742188 416.386719 L 194.226563 414.796875 L 196.925781 412.265625 L 198.691406 409.015625 L 198.386719 412.1875 L 198.996094 415.445313 L 200.421875 418.292969 L 202.570313 420.644531 L 201.050781 422.382813 L 199.957031 424.265625 L 199.234375 426.324219 L 198.90625 428.476563 L 198.988281 430.65625 L 199.472656 432.78125 L 200.347656 434.777344 L 201.578125 436.574219 L 197.972656 435.847656 Z M 198.691406 354.738281 L 196.136719 351.902344 L 192.683594 350.003906 L 188.789063 349.367188 L 185.03125 350.023438 L 187.578125 348.085938 L 189.558594 345.417969 L 190.679688 342.417969 L 190.9375 339.230469 L 192.511719 340.703125 L 194.441406 341.917969 L 196.449219 342.699219 L 198.691406 343.109375 L 200.101563 344.84375 L 198.9375 347.105469 L 198.289063 349.570313 L 198.195313 352.113281 Z M 141.640625 476.945313 L 141.476563 473.921875 L 140.539063 471.046875 L 142.375 473.195313 L 144.675781 474.835938 L 147.425781 475.90625 L 150.230469 476.246094 L 153.035156 475.90625 L 155.675781 474.894531 L 158.085938 473.195313 L 159.921875 471.046875 L 163.800781 471.046875 L 163.800781 474.921875 L 160.449219 476.769531 L 157.945313 479.496094 L 156.425781 482.871094 L 156.054688 486.488281 L 155.980469 486.433594 L 154.277344 483.300781 L 151.578125 480.769531 L 148.21875 479.214844 L 144.414063 478.800781 Z M 141.640625 476.945313 "/>
</g>
</svg>
