<?xml version="1.0" encoding="UTF-8"?>
<svg xmlns="http://www.w3.org/2000/svg" xmlns:xlink="http://www.w3.org/1999/xlink" width="378pt" height="504pt" viewBox="0 0 378 504" version="1.1">
<g id="data">
<rect x="0" y="0" width="378" height="504" style="fill:rgb(100%,100%,100%);fill-opacity:1;stroke:none;"/>
<path style=" stroke:none;fill-rule:nonzero;fill:rgb(100%,100%,100%);fill-opacity:1;" d="M 53.308594 504 L 324.691406 504 L 324.691406 0 L 53.308594 0 Z M 53.308594 504 "/>
<path style=" stroke:none;fill-rule:nonzero;fill:rgb(22.745098%,53.333333%,16.078431%);fill-opacity:1;" d="M 145.414063 363.054688 L 146.964844 362.492188 L 148.917969 362.472656 L 149.0625 362.523438 L 147.425781 363.976563 L 146.109375 363.875 Z M 149.609375 362.707031 L 150.769531 363.101563 L 152.304688 364.308594 L 153.355469 365.957031 L 153.800781 367.859375 L 154.222656 374.8125 L 154.050781 376.625 L 153.335938 378.265625 L 154.804688 377.980469 L 156.636719 378.210938 L 159.089844 378.929688 L 160.90625 378.898438 L 162.449219 378.394531 L 164.414063 377.0625 L 166.171875 376.257813 L 169.363281 375.40625 L 170.320313 374.808594 L 171.277344 373.851563 L 171.949219 372.792969 L 172.355469 371.636719 L 172.472656 369.691406 L 171.957031 367.800781 L 170.566406 365.679688 L 169.988281 364.539063 L 169.414063 363.015625 L 168.859375 362.105469 L 168.089844 361.261719 L 166.609375 360.183594 L 165.386719 358.988281 L 164.570313 357.488281 L 164.546875 357.390625 L 167.339844 357.714844 L 172.597656 355.179688 L 173.933594 355.046875 L 174.484375 355.082031 L 179.910156 359.441406 L 180.433594 358.429688 L 177.679688 353.460938 L 178.242188 352.835938 L 180.867188 352.449219 L 181.503906 352.695313 L 181.914063 353.875 L 182.898438 354.332031 L 184.078125 356.789063 L 185.613281 357.902344 L 188.359375 357.621094 L 190.335938 355.148438 L 189.90625 355.050781 L 188.667969 355.527344 L 188.3125 355.957031 L 186.378906 356.386719 L 183.8125 354.640625 L 179.976563 346.332031 L 183.371094 340.257813 L 185.429688 339.015625 L 185.140625 338.578125 L 182.683594 338.460938 L 181.554688 337.164063 L 181.355469 336.117188 L 181.601563 331.078125 L 181.949219 330.421875 L 184.695313 329.191406 L 187.28125 323.421875 L 187.71875 320.933594 L 187.855469 317.484375 L 184.742188 320.527344 L 179.199219 323.441406 L 177.335938 322.691406 L 172.851563 314.925781 L 172.289063 311.832031 L 167.40625 304.652344 L 169.164063 299.058594 L 174.074219 288.722656 L 176.464844 286.417969 L 178.757813 285.980469 L 180.191406 286.804688 L 180.855469 286.730469 L 181.691406 288.710938 L 182.566406 289.839844 L 183.804688 290.789063 L 185.007813 291.285156 L 187.265625 291.480469 L 189.59375 290.925781 L 191.378906 290.785156 L 193.101563 290.917969 L 196.09375 290.726563 L 198.09375 290.128906 L 198.878906 289.664063 L 199.761719 288.878906 L 200.40625 288.023438 L 200.78125 287.269531 L 201.210938 285.046875 L 200.710938 282.027344 L 200.679688 280.320313 L 201.148438 278.679688 L 202.074219 277.242188 L 203.511719 275.605469 L 204.222656 274.195313 L 205.480469 269.550781 L 205.613281 267.046875 L 206.023438 265.1875 L 206.421875 264.527344 L 205.636719 264.527344 L 204.011719 264.035156 L 201.367188 262.792969 L 198.332031 262.507813 L 198.183594 262.46875 L 197.683594 262.875 L 194.105469 264.90625 L 192.347656 265.554688 L 190.472656 265.613281 L 188.679688 265.070313 L 187.152344 263.988281 L 186.046875 262.472656 L 185.480469 260.6875 L 185.183594 258.65625 L 185.238281 256.671875 L 185.953125 254.820313 L 187.253906 253.316406 L 188.980469 252.339844 L 190.9375 252 L 194.816406 252 L 195.441406 252.105469 L 195.875 251.738281 L 197.308594 250.875 L 198.636719 249.65625 L 200.234375 248.613281 L 202.082031 248.144531 L 203.984375 248.296875 L 205.730469 249.058594 L 207.140625 250.34375 L 208.417969 251.96875 L 210.042969 253.246094 L 211.007813 254.261719 L 211.28125 254.625 L 211.949219 255.9375 L 212.257813 257.574219 L 212.296875 258.535156 L 212.117188 260.222656 L 211.535156 261.605469 L 212.160156 261.585938 L 213.984375 262.132813 L 216.351563 263.296875 L 218.722656 263.660156 L 218.894531 265.933594 L 218.261719 267.402344 L 220.363281 277.378906 L 220.378906 278.953125 L 220.953125 280.601563 L 221.910156 281.789063 L 222.984375 284.039063 L 223.773438 285.027344 L 225.945313 294.183594 L 229.304688 299.0625 L 243.839844 305.84375 L 243.855469 305.878906 L 245.914063 308.5 L 246.671875 309.773438 L 247.480469 311.632813 L 247.9375 312.25 L 249.289063 315.722656 L 252.390625 319.148438 L 256.121094 320.875 L 257.207031 321.722656 L 254.738281 323.09375 L 253.890625 324.554688 L 253.765625 325.996094 L 254.984375 329.992188 L 256.160156 332.453125 L 263.316406 342.46875 L 263.640625 343.980469 L 262.804688 345.191406 L 263.28125 343.65625 L 262.507813 342.839844 L 260.445313 342 L 258.378906 342.789063 L 257.507813 342.753906 L 256.035156 341.773438 L 253.664063 338.65625 L 252.601563 338.082031 L 245.550781 339.511719 L 244.589844 338.644531 L 243.40625 338.558594 L 241.210938 339.871094 L 241.886719 340.445313 L 246.324219 340.394531 L 249.617188 339.34375 L 251.976563 339.082031 L 254.382813 342.558594 L 260.535156 347.621094 L 263.042969 349.058594 L 263.664063 349.039063 L 266.046875 352.214844 L 268.980469 359.304688 L 269.535156 362.402344 L 269.210938 365.21875 L 264.953125 369.09375 L 261.394531 373.164063 L 260.601563 374.816406 L 262.84375 374.3125 L 264.9375 375.519531 L 266.9375 378.226563 L 270.21875 378.804688 L 270.625 378.746094 L 271.910156 376.796875 L 272.234375 374.960938 L 273.40625 371.914063 L 274.707031 370.632813 L 277.851563 370.085938 L 283.34375 370.234375 L 284.253906 370.867188 L 286.703125 370.742188 L 293.949219 371.515625 L 296.914063 372.84375 L 304.070313 378.085938 L 305.367188 380.105469 L 306.730469 384.164063 L 307.179688 391.25 L 306.777344 393.191406 L 306.890625 393.976563 L 305.789063 396.917969 L 303.519531 407.832031 L 297.144531 414.53125 L 295.578125 412.011719 L 292.742188 410.515625 L 292.480469 410.636719 L 293.898438 413.703125 L 295.890625 416.628906 L 296.3125 416.765625 L 296.164063 417.742188 L 294.574219 419.804688 L 292.191406 421.289063 L 290.003906 421.65625 L 289.660156 421.574219 L 288.214844 419.332031 L 284.976563 421.730469 L 280.71875 424.230469 L 282.339844 425.378906 L 285.105469 424.398438 L 286.097656 423.375 L 286.894531 423.164063 L 287.328125 423.710938 L 287.632813 428.84375 L 285.6875 430.875 L 283.441406 432.558594 L 282.84375 432.699219 L 279.644531 432.160156 L 274.75 433.78125 L 272.609375 436.117188 L 274.253906 436.015625 L 275.152344 434.667969 L 276.683594 434.363281 L 278.285156 434.328125 L 281.054688 434.949219 L 281.828125 435.589844 L 281.691406 436.328125 L 279.554688 436.347656 L 277.390625 437.65625 L 277.96875 438.546875 L 281.382813 438.964844 L 286.863281 440.339844 L 289.394531 439.9375 L 291.074219 438.957031 L 299.742188 437.757813 L 300.988281 440.148438 L 300.773438 446.324219 L 300.335938 447.820313 L 299.394531 449.050781 L 296.972656 450.242188 L 295.839844 450.375 L 292.621094 451.640625 L 291.179688 452.742188 L 289.847656 454.226563 L 289.460938 455.09375 L 289.214844 456.324219 L 289.464844 457.886719 L 286.253906 458.289063 L 284.1875 457.9375 L 281.042969 460.90625 L 278.484375 461.933594 L 274.789063 462.777344 L 272.597656 463.816406 L 270.539063 466.589844 L 269.761719 466.949219 L 259.269531 463.777344 L 256.070313 463.507813 L 244.628906 465.699219 L 242.703125 466.390625 L 242.113281 466.964844 L 241.902344 467.984375 L 241.359375 468.164063 L 238.210938 466.1875 L 238.632813 465.4375 L 239.46875 464.933594 L 237.714844 463.296875 L 231.496094 463.171875 L 231.378906 463.496094 L 232.574219 464.835938 L 232.214844 465.75 L 231.738281 466.042969 L 226.691406 465.496094 L 219.566406 468.449219 L 217.054688 467.824219 L 210.222656 468.96875 L 208.164063 468.875 L 207.273438 468.058594 L 206.238281 469.769531 L 209.429688 471.089844 L 209.714844 470.9375 L 210.1875 472.128906 L 209.566406 473.890625 L 206.84375 474.453125 L 204.453125 473.097656 L 203.015625 472.699219 L 197.625 472.007813 L 196.175781 472.65625 L 195.679688 473.863281 L 195.832031 474.871094 L 196.757813 475.523438 L 196.488281 476.304688 L 195.917969 475.996094 L 194.851563 473.972656 L 190.289063 470.589844 L 185.898438 468.519531 L 183.121094 467.984375 L 181.648438 469.066406 L 176.207031 469.78125 L 174.339844 470.335938 L 168.992188 473.234375 L 168.214844 474.070313 L 167.203125 476.179688 L 162.746094 489.226563 L 160.929688 490.242188 L 158.269531 489.722656 L 157.554688 489.058594 L 156.527344 486.851563 L 154.683594 485.4375 L 153.613281 485.542969 L 152.417969 486.300781 L 151.738281 486.164063 L 148.46875 482.535156 L 142.796875 482.960938 L 141.527344 483.375 L 140.734375 484.175781 L 139.910156 484.507813 L 134.507813 484.320313 L 132.167969 484.859375 L 129.414063 488.195313 L 126.714844 489.746094 L 124.039063 490.597656 L 123.132813 494.289063 L 123.664063 495.292969 L 123.496094 496.125 L 122.722656 496.945313 L 120.660156 497.648438 L 119.628906 499.730469 L 118.675781 498.910156 L 117.96875 497.691406 L 118.09375 496.4375 L 117.15625 494.691406 L 115.984375 493.691406 L 112.253906 492.070313 L 111.410156 491.984375 L 110.375 492.488281 L 110.242188 494.183594 L 109.421875 495.128906 L 107.03125 495.621094 L 106.578125 495.445313 L 105.421875 494.484375 L 105.628906 491.574219 L 106.074219 490.5625 L 111.738281 488.078125 L 112.199219 488.253906 L 112.445313 488.9375 L 113.574219 489.15625 L 118.144531 485.910156 L 121.425781 483.085938 L 124.375 479.769531 L 125.210938 477.886719 L 124.875 476.421875 L 125.640625 474.519531 L 128.386719 473.238281 L 132.105469 472.640625 L 132.679688 471.785156 L 133.257813 469.527344 L 135.859375 467.5625 L 138.636719 464.640625 L 139.128906 458.542969 L 139.796875 454.753906 L 142.492188 455.105469 L 144.269531 456.015625 L 145.761719 455.429688 L 148.429688 452.488281 L 148.105469 447.519531 L 151.105469 446.613281 L 157.421875 446.269531 L 159.910156 445.683594 L 164.597656 446.761719 L 166.046875 446.148438 L 167.527344 446.515625 L 169.484375 447.285156 L 170.039063 448.109375 L 170.757813 448.421875 L 173.15625 448.464844 L 180.570313 447.503906 L 181.109375 445.632813 L 181.210938 443.15625 L 182.519531 440.25 L 190.867188 432.195313 L 195.792969 425.3125 L 197.929688 424.472656 L 198.285156 423.78125 L 198.070313 423.238281 L 197.8125 423.082031 L 196.09375 424.355469 L 192.90625 427.300781 L 190.570313 429.988281 L 189.222656 431.449219 L 185.628906 432.957031 L 183.714844 433.246094 L 182.441406 433.0625 L 178.394531 435.230469 L 177.398438 436.808594 L 177.039063 438.671875 L 176.445313 439.273438 L 174.058594 439.917969 L 170.558594 439.851563 L 166.820313 439 L 166.347656 438.652344 L 161.371094 433.375 L 159.03125 429.199219 L 155.65625 429.589844 L 149.269531 432.308594 L 149.113281 432.746094 L 147.203125 431.632813 L 146.917969 429.308594 L 148.539063 428.378906 L 150.066406 428.890625 L 151.640625 428.421875 L 152.765625 427.832031 L 153.085938 427.097656 L 152.808594 426.597656 L 147.785156 426.460938 L 144.167969 424.289063 L 145.292969 423.035156 L 145.957031 421.820313 L 146.292969 420.71875 L 146.839844 417.289063 L 146.742188 416.085938 L 146.363281 414.863281 L 145.789063 413.84375 L 144.511719 412.410156 L 143.464844 410.730469 L 143.042969 408.792969 L 143.296875 406.828125 L 144.144531 405.160156 L 149.359375 401.828125 L 152.136719 398.207031 L 153.054688 396.195313 L 154.199219 391.746094 L 153.734375 388.820313 L 152.566406 386.542969 L 153.179688 384.597656 L 154.652344 381.796875 L 152.269531 378.203125 L 152.683594 374.835938 L 153.175781 374.082031 L 152.804688 373.207031 L 150.203125 373.105469 L 145.449219 374.257813 L 143.757813 375.484375 L 142.039063 378.097656 L 140.378906 378.203125 L 139.8125 377.679688 L 138.910156 376 L 138.679688 374.609375 L 140.148438 373.019531 L 141.023438 372.414063 L 142.589844 371.953125 L 147.132813 367.984375 L 147.953125 364.523438 Z M 157.996094 404.953125 L 158.144531 406.34375 L 158.519531 407.5 L 159.136719 408.5625 L 159.882813 409.394531 L 160.882813 410.136719 L 161.914063 410.609375 L 163.066406 410.882813 L 164.574219 410.949219 L 165.777344 410.792969 L 166.863281 410.421875 L 167.851563 409.84375 L 168.695313 409.09375 L 169.425781 408.117188 L 170.023438 406.8125 L 170.339844 405.613281 L 170.402344 404.558594 L 170.25 403.402344 L 169.882813 402.328125 L 169.246094 401.257813 L 168.46875 400.410156 L 167.621094 399.78125 L 166.488281 399.242188 L 164.8125 398.773438 L 163.5625 398.6875 L 162.4375 398.835938 L 161.351563 399.214844 L 160.359375 399.800781 L 159.503906 400.570313 L 158.816406 401.492188 L 158.328125 402.53125 L 158.050781 403.652344 Z M 160.75 292.597656 L 161.230469 291.335938 L 162.277344 289.984375 L 163.675781 288.996094 L 165.296875 288.453125 L 167.253906 288.113281 L 168.5625 287.546875 L 168.589844 287.523438 L 168.226563 288.992188 L 166.234375 288.695313 L 163.3125 290.011719 L 161.832031 291.855469 Z M 171.929688 284.238281 L 172.203125 283.992188 L 173.738281 283.265625 L 175.421875 283.015625 L 177.105469 283.261719 L 178.644531 283.984375 L 179.90625 285.117188 L 180.046875 285.351563 L 180.035156 285.351563 L 174.65625 284.980469 L 172.566406 284.292969 Z M 170.542969 178.25 L 168.84375 177.667969 L 167.402344 176.59375 L 166.355469 175.132813 L 165.808594 173.421875 L 165.808594 171.625 L 166.003906 171.015625 L 167.808594 170.273438 L 170.480469 169.527344 L 170.492188 169.949219 L 171.554688 169.839844 L 173.589844 168.316406 L 174.046875 166.78125 L 178.648438 166.167969 L 179.285156 167.089844 L 180.148438 167.667969 L 184.320313 169.011719 L 185.054688 168.597656 L 185.039063 169.628906 L 184.542969 172.523438 L 185.039063 175.417969 L 185.066406 177.222656 L 184.535156 178.949219 L 183.503906 180.429688 L 182.066406 181.519531 L 180.363281 182.117188 L 178.558594 182.167969 L 176.824219 181.660156 L 175.332031 180.644531 L 174.167969 179.550781 L 173.191406 178.9375 L 172.117188 178.527344 Z M 151.476563 172.804688 L 152.902344 171.507813 L 154.671875 170.75 L 156.59375 170.609375 L 158.457031 171.105469 L 159.191406 171.441406 L 157.109375 173.804688 L 156.367188 175.339844 L 156.707031 175.816406 L 157.367188 175.984375 L 158.261719 175.542969 L 161.140625 173.015625 L 161.617188 172.820313 L 161.769531 172.921875 L 162.898438 174.332031 L 163.542969 176.019531 L 163.640625 177.820313 L 163.175781 179.566406 L 162.113281 181.984375 L 161.832031 184.742188 L 161.40625 186.410156 L 160.511719 187.878906 L 159.230469 189.019531 L 157.667969 189.738281 L 155.964844 189.96875 L 154.265625 189.691406 L 152.726563 188.929688 L 151.476563 187.75 L 150.199219 186.125 L 148.574219 184.847656 L 147.378906 183.574219 L 146.617188 182.003906 L 146.355469 180.277344 L 146.617188 178.550781 L 147.378906 176.980469 L 148.574219 175.707031 L 150.199219 174.429688 Z M 146.132813 319.832031 L 145.566406 320.105469 L 143.632813 320.324219 L 141.734375 319.894531 L 140.085938 318.859375 L 139.367188 317.964844 L 139.816406 316.644531 L 142.300781 315.023438 L 144.765625 310.230469 L 145.863281 309.40625 L 149.046875 308.269531 L 150.203125 313.453125 L 147.847656 318.148438 Z M 128.671875 411.722656 L 129.574219 412.464844 L 130.5625 414.0625 L 130.992188 415.890625 L 130.8125 417.761719 L 130.28125 419.800781 L 130.21875 421.78125 L 129.84375 423.660156 L 129.402344 424.410156 L 127.769531 424.613281 L 122.949219 424.152344 L 121.496094 423.164063 L 124.125 421.78125 L 125.167969 421.753906 L 125.464844 421.238281 L 124.929688 417.953125 L 123.328125 417.210938 L 121.445313 417.105469 L 122.0625 415.152344 L 125.933594 413.378906 L 126.539063 411.90625 Z M 128.136719 425.953125 L 127.425781 426.5625 L 127.171875 426.667969 L 127.425781 426.082031 Z M 286.679688 439.636719 L 283.058594 438.976563 L 282.164063 437.605469 L 282.484375 436.070313 L 286.839844 437.054688 L 287.960938 438.832031 Z M 136.210938 448.453125 L 135.929688 448.140625 L 136.109375 446.949219 L 136.398438 446.875 L 136.6875 448.207031 Z M 236.835938 466.113281 L 235.136719 465.644531 L 236.523438 463.683594 L 237.195313 464.164063 L 237.5 465.839844 Z M 228.117188 474.644531 L 222.296875 470.886719 L 220.207031 471.1875 L 221.476563 469.683594 L 227.316406 466.367188 L 232.550781 467.761719 L 234.171875 469.894531 L 231.242188 473.621094 L 229.960938 474.269531 Z M 228.117188 474.644531 "/>
<path style=" stroke:none;fill-rule:nonzero;fill:rgb(80.392157%,58.431373%,4.705882%);fill-opacity:1;" d="M 157.984375 238.429688 L 157.699219 240.226563 L 156.875 241.847656 L 155.585938 243.136719 L 153.964844 243.960938 L 152.167969 244.246094 L 150.371094 243.960938 L 148.75 243.136719 L 147.464844 241.847656 L 146.636719 240.226563 L 146.355469 238.429688 L 146.636719 236.632813 L 147.464844 235.011719 L 148.75 233.726563 L 150.371094 232.898438 L 152.167969 232.617188 L 153.964844 232.898438 L 155.585938 233.726563 L 156.875 235.011719 L 157.699219 236.632813 Z M 157.984375 238.429688 "/>
<path style=" stroke:none;fill-rule:nonzero;fill:rgb(80.392157%,58.431373%,4.705882%);fill-opacity:1;" d="M 157.984375 246.183594 L 157.699219 247.980469 L 156.875 249.601563 L 155.585938 250.890625 L 153.964844 251.714844 L 152.167969 252 L 150.371094 251.714844 L 148.75 250.890625 L 147.464844 249.601563 L 146.636719 247.980469 L 146.355469 246.183594 L 146.636719 244.386719 L 147.234375 243.214844 L 148.300781 243.253906 L 147.398438 242.894531 L 147.464844 242.765625 L 148.75 241.480469 L 150.371094 240.652344 L 152.167969 240.371094 L 153.964844 240.652344 L 155.585938 241.480469 L 156.875 242.765625 L 157.699219 244.386719 Z M 157.984375 246.183594 "/>
<path style=" stroke:none;fill-rule:nonzero;fill:rgb(80.392157%,58.431373%,4.705882%);fill-opacity:1;" d="M 142.476563 203.539063 L 142.191406 205.335938 L 141.367188 206.957031 L 140.078125 208.242188 L 138.457031 209.070313 L 136.660156 209.355469 L 134.863281 209.070313 L 133.242188 208.242188 L 132.347656 207.347656 L 134.21875 205.03125 L 134.59375 204.003906 L 131.875 206.792969 L 131.128906 205.335938 L 130.847656 203.539063 L 131.128906 201.742188 L 131.957031 200.121094 L 133.242188 198.832031 L 134.863281 198.007813 L 136.660156 197.722656 L 138.457031 198.007813 L 140.078125 198.832031 L 141.367188 200.121094 L 142.191406 201.742188 Z M 142.476563 203.539063 "/>
<path style=" stroke:none;fill-rule:nonzero;fill:rgb(80.392157%,58.431373%,4.705882%);fill-opacity:1;" d="M 185.125 242.308594 L 184.839844 244.105469 L 184.011719 245.726563 L 182.726563 247.011719 L 181.105469 247.839844 L 179.308594 248.125 L 177.511719 247.839844 L 175.890625 247.011719 L 174.601563 245.726563 L 173.777344 244.105469 L 173.492188 242.308594 L 173.679688 241.125 L 178.0625 241.875 L 182.921875 243.167969 L 185.117188 242.261719 Z M 174.125 239.832031 L 174.601563 238.890625 L 175.890625 237.601563 L 177.511719 236.777344 L 179.308594 236.492188 L 180.691406 236.710938 L 180.578125 237.003906 L 174.761719 240.109375 Z M 174.125 239.832031 "/>
<path style=" stroke:none;fill-rule:nonzero;fill:rgb(80.392157%,58.431373%,4.705882%);fill-opacity:1;" d="M 182.742188 243.121094 L 182.726563 243.136719 L 181.105469 243.960938 L 179.308594 244.246094 L 177.511719 243.960938 L 175.890625 243.136719 L 174.601563 241.847656 L 174.289063 241.230469 L 178.0625 241.875 Z M 173.683594 239.636719 L 173.492188 238.429688 L 173.777344 236.632813 L 174.601563 235.011719 L 175.890625 233.726563 L 177.511719 232.898438 L 179.308594 232.617188 L 181.105469 232.898438 L 182.726563 233.726563 L 183.0625 234.0625 L 181.046875 235.800781 L 180.578125 237.003906 L 174.761719 240.109375 Z M 173.683594 239.636719 "/>
<path style=" stroke:none;fill-rule:nonzero;fill:rgb(80.392157%,58.431373%,4.705882%);fill-opacity:1;" d="M 85.78125 177.238281 L 84.183594 178.054688 L 82.382813 178.339844 L 81.917969 178.265625 L 82.046875 176.234375 L 83.4375 175.515625 L 85.28125 176.539063 Z M 80.15625 167.210938 L 80.585938 166.992188 L 82.382813 166.707031 L 84.183594 166.992188 L 85.804688 167.816406 L 87.089844 169.105469 L 87.914063 170.726563 L 88.003906 171.289063 L 86.902344 171.355469 L 84.875 171.125 L 84.914063 169.441406 L 82.996094 168.253906 L 81.464844 168.371094 Z M 85.394531 175.835938 L 84.546875 175.601563 L 83.046875 174.507813 L 82.722656 173.699219 L 82.824219 172.589844 L 83.972656 171.789063 L 86.566406 172.507813 L 87.433594 173.25 L 87.285156 175.226563 Z M 85.394531 175.835938 "/>
<path style=" stroke:none;fill-rule:nonzero;fill:rgb(80.392157%,58.431373%,4.705882%);fill-opacity:1;" d="M 178.414063 112.574219 L 179.308594 112.429688 L 181.105469 112.714844 L 182.726563 113.542969 L 183.644531 114.460938 L 181.886719 115.097656 L 178.421875 112.621094 Z M 180.816406 120.886719 L 179.261719 120.746094 L 176.429688 116.660156 L 176.75 115.25 L 177.207031 114.695313 L 178.613281 114.28125 L 181.269531 116.636719 L 182.96875 119.6875 L 182.941406 120.441406 Z M 180.816406 120.886719 "/>
<path style=" stroke:none;fill-rule:nonzero;fill:rgb(80.392157%,58.431373%,4.705882%);fill-opacity:1;" d="M 139.167969 318.554688 L 140.078125 319.019531 L 141.367188 320.304688 L 142.191406 321.925781 L 142.316406 322.703125 L 141.859375 323.019531 L 139.824219 322.464844 L 137.933594 323.433594 L 137.675781 322.921875 Z M 139.167969 318.554688 "/>
<path style=" stroke:none;fill-rule:nonzero;fill:rgb(80.392157%,58.431373%,4.705882%);fill-opacity:1;" d="M 111.527344 205.085938 L 111.320313 205.191406 L 109.523438 205.476563 L 109.445313 205.464844 Z M 105.003906 196.058594 L 106.105469 194.957031 L 107.726563 194.128906 L 108.402344 194.023438 L 108.09375 196.351563 L 107.546875 197.015625 L 106.597656 197.398438 L 105.582031 196.804688 Z M 110.160156 200.433594 L 108.972656 199.578125 L 108.9375 198.890625 L 110.578125 197.179688 L 111.398438 197.769531 L 111.5 198.265625 L 111.128906 199.855469 Z M 110.160156 200.433594 "/>
<path style=" stroke:none;fill-rule:nonzero;fill:rgb(80.392157%,58.431373%,4.705882%);fill-opacity:1;" d="M 106.976563 236.632813 L 105.476563 236.191406 L 106.28125 234.464844 L 107.839844 232.910156 L 108.882813 232.734375 L 107.535156 236.1875 Z M 106.976563 236.632813 "/>
<path style=" stroke:none;fill-rule:nonzero;fill:rgb(80.392157%,58.431373%,4.705882%);fill-opacity:1;" d="M 88.429688 500.046875 L 88.566406 499.308594 L 88.941406 499.117188 L 89.34375 499.789063 Z M 88.429688 500.046875 "/>
</g>
</svg>
