<?xml version="1.0" encoding="UTF-8"?>
<svg xmlns="http://www.w3.org/2000/svg" xmlns:xlink="http://www.w3.org/1999/xlink" width="378pt" height="504pt" viewBox="0 0 378 504" version="1.1">
<g id="data">
<rect x="0" y="0" width="378" height="504" style="fill:rgb(100%,100%,100%);fill-opacity:1;stroke:none;"/>
<path style=" stroke:none;fill-rule:nonzero;fill:rgb(100%,100%,100%);fill-opacity:1;" d="M 53.308594 504 L 324.691406 504 L 324.691406 0 L 53.308594 0 Z M 53.308594 504 "/>
<path style=" stroke:none;fill-rule:nonzero;fill:rgb(22.745098%,53.333333%,16.078431%);fill-opacity:1;" d="M 299.4375 374.691406 L 299.1875 377.292969 L 299.753906 380.429688 L 301.148438 383.292969 L 303.371094 385.753906 L 303.878906 387.726563 L 304.015625 390.269531 L 303.371094 393.507813 L 303.371094 397.382813 L 301.175781 400 L 299.800781 403.261719 L 299.332031 406.761719 L 299.472656 412.085938 L 297.144531 414.53125 L 295.578125 412.011719 L 292.742188 410.515625 L 292.480469 410.636719 L 293.898438 413.703125 L 295.890625 416.628906 L 296.3125 416.765625 L 296.164063 417.742188 L 294.574219 419.804688 L 292.191406 421.289063 L 290.003906 421.65625 L 289.660156 421.574219 L 288.214844 419.332031 L 284.976563 421.730469 L 280.71875 424.230469 L 282.339844 425.378906 L 285.105469 424.398438 L 286.097656 423.375 L 286.894531 423.164063 L 287.328125 423.710938 L 287.632813 428.84375 L 285.6875 430.875 L 283.441406 432.558594 L 282.84375 432.699219 L 279.644531 432.160156 L 274.75 433.78125 L 272.609375 436.117188 L 274.253906 436.015625 L 275.152344 434.667969 L 276.683594 434.363281 L 278.285156 434.328125 L 281.054688 434.949219 L 281.828125 435.589844 L 281.691406 436.328125 L 279.554688 436.347656 L 277.390625 437.65625 L 277.96875 438.546875 L 281.382813 438.964844 L 286.863281 440.339844 L 289.394531 439.9375 L 290.917969 439.046875 L 293.097656 441.835938 L 295.617188 443.90625 L 293.25 444.351563 L 291.027344 445.273438 L 287.863281 447.785156 L 285.449219 448.960938 L 283.457031 450.570313 L 281.9375 452.464844 L 280.84375 454.636719 L 280.222656 456.988281 L 280.109375 459.414063 L 276.425781 459.796875 L 273.050781 461.316406 L 270.246094 463.917969 L 268.761719 466.648438 L 267.285156 466.203125 L 265.535156 464.78125 L 261.980469 463.464844 L 258.847656 463.128906 L 245.214844 463.292969 L 242.898438 461.679688 L 240.386719 460.703125 L 237.589844 460.332031 L 234.910156 460.613281 L 231.464844 461.996094 L 228.636719 464.375 L 227.859375 465.625 L 226.691406 465.496094 L 219.566406 468.449219 L 217.054688 467.824219 L 210.222656 468.96875 L 208.164063 468.875 L 207.273438 468.058594 L 206.238281 469.769531 L 209.429688 471.089844 L 209.714844 470.9375 L 210.1875 472.128906 L 209.566406 473.890625 L 206.84375 474.453125 L 204.453125 473.097656 L 203.015625 472.699219 L 197.625 472.007813 L 196.175781 472.65625 L 195.679688 473.863281 L 195.78125 474.523438 L 195.257813 474.742188 L 194.851563 473.972656 L 190.289063 470.589844 L 185.898438 468.519531 L 183.121094 467.984375 L 181.648438 469.066406 L 176.207031 469.78125 L 174.339844 470.335938 L 168.992188 473.234375 L 168.214844 474.070313 L 167.203125 476.179688 L 163.660156 486.554688 L 156.136719 486.554688 L 155.582031 486.128906 L 154.273438 484.925781 L 152.316406 483.753906 L 150.167969 482.988281 L 148.660156 482.746094 L 148.46875 482.535156 L 147.691406 482.59375 L 147.671875 482.589844 L 138.285156 482.519531 L 133.226563 482.992188 L 129.710938 484.507813 L 126.878906 487.078125 L 125.132813 490.25 L 124.039063 490.597656 L 123.742188 491.804688 L 123.558594 492.003906 L 122.398438 493.820313 L 121.5625 495.941406 L 121.289063 497.433594 L 120.660156 497.648438 L 120.394531 498.183594 L 118.253906 498.183594 L 117.96875 497.691406 L 118.09375 496.4375 L 117.15625 494.691406 L 115.984375 493.691406 L 115.921875 493.667969 L 114.949219 492.105469 L 113.398438 490.429688 L 115.640625 489.484375 L 117.539063 488.175781 L 119.742188 485.6875 L 120.648438 483.753906 L 121.425781 483.085938 L 122.199219 482.214844 L 123.730469 481.539063 L 125.957031 479.816406 L 127.769531 477.5 L 128.90625 474.921875 L 131.515625 474.40625 L 133.828125 473.371094 L 135.769531 471.949219 L 138.132813 469.472656 L 139.898438 466.261719 L 141.023438 461.445313 L 141.160156 458.398438 L 140.539063 455.539063 L 142.425781 455.097656 L 142.492188 455.105469 L 144.269531 456.015625 L 145.761719 455.429688 L 148.429688 452.488281 L 148.363281 451.460938 L 149.628906 450.171875 L 151.289063 447.101563 L 153.542969 447.941406 L 156.046875 448.304688 L 162.601563 447.472656 L 164.667969 446.773438 L 164.957031 446.609375 L 166.046875 446.148438 L 167.527344 446.515625 L 169.484375 447.285156 L 170.039063 448.109375 L 170.757813 448.421875 L 173.15625 448.464844 L 180.570313 447.503906 L 181.109375 445.632813 L 181.210938 443.15625 L 182.519531 440.25 L 190.867188 432.195313 L 195.792969 425.3125 L 197.929688 424.472656 L 198.285156 423.78125 L 198.070313 423.238281 L 197.8125 423.082031 L 196.09375 424.355469 L 192.90625 427.300781 L 190.570313 429.988281 L 189.222656 431.449219 L 185.628906 432.957031 L 183.714844 433.246094 L 182.441406 433.0625 L 178.394531 435.230469 L 177.398438 436.808594 L 177.039063 438.671875 L 176.445313 439.273438 L 174.058594 439.917969 L 170.902344 439.859375 L 171.039063 439.578125 L 171.554688 436.152344 L 173.554688 434.007813 L 174.90625 431.550781 L 175.523438 429.46875 L 175.746094 427.3125 L 175.296875 421.960938 L 174.398438 419.019531 L 172.425781 416.027344 L 169.636719 413.777344 L 171.554688 412.890625 L 175.039063 412.074219 L 177.808594 410.476563 L 180.402344 407.660156 L 181.945313 404.152344 L 182.296875 401.488281 L 182.003906 398.6875 L 180.984375 395.925781 L 179.308594 393.507813 L 179.078125 391.207031 L 178.445313 389.117188 L 176.34375 385.75 L 173.34375 383.351563 L 170.976563 382.355469 L 168.578125 381.910156 L 165.632813 381.941406 L 163.023438 382.566406 L 160.734375 383.699219 L 158.75 385.308594 L 157.164063 387.3125 L 156.054688 389.613281 L 156.59375 387.390625 L 156.695313 385.109375 L 156.046875 381.875 L 155.886719 379.195313 L 155.3125 377.097656 L 154.148438 374.820313 L 152.605469 372.941406 L 150.597656 371.355469 L 148.292969 370.246094 L 148.597656 367.074219 L 148.105469 364.355469 L 151.550781 360.582031 L 152.960938 359.695313 L 153.21875 359.625 L 154.941406 359.808594 L 160.492188 357.457031 L 163.644531 357.28125 L 167.339844 357.714844 L 172.597656 355.179688 L 173.933594 355.046875 L 174.484375 355.082031 L 179.910156 359.441406 L 180.433594 358.429688 L 177.679688 353.460938 L 178.242188 352.835938 L 180.867188 352.449219 L 181.503906 352.695313 L 181.914063 353.875 L 182.898438 354.332031 L 184.078125 356.789063 L 185.613281 357.902344 L 188.359375 357.621094 L 190.335938 355.148438 L 189.90625 355.050781 L 188.667969 355.527344 L 188.3125 355.957031 L 186.378906 356.386719 L 183.8125 354.640625 L 179.976563 346.332031 L 183.371094 340.257813 L 185.429688 339.015625 L 185.140625 338.578125 L 182.683594 338.460938 L 182.535156 338.289063 L 184.589844 331.105469 L 184.617188 329.226563 L 184.695313 329.191406 L 187.28125 323.421875 L 187.71875 320.933594 L 187.855469 317.484375 L 184.742188 320.527344 L 181.847656 322.046875 L 181.832031 322.023438 L 179.308594 319.847656 L 177.328125 317.414063 L 175.429688 315.96875 L 175.730469 312.671875 L 175.085938 309.421875 L 173.628906 306.585938 L 171.554688 304.339844 L 171.460938 302.050781 L 170.878906 299.707031 L 169.890625 297.640625 L 169.859375 297.597656 L 171.613281 293.898438 L 172.738281 293.003906 L 174.34375 291.007813 L 175.429688 288.832031 L 177.136719 291 L 179.308594 292.707031 L 180.917969 296.199219 L 183.578125 298.972656 L 186.148438 300.421875 L 189.003906 301.179688 L 191.953125 301.191406 L 194.816406 300.460938 L 195.785156 304.300781 L 198.070313 307.683594 L 201.273438 310.011719 L 205.195313 311.144531 L 209.394531 310.820313 L 213.203125 309.019531 L 215.734375 307.046875 L 217.210938 305.4375 L 218.472656 303.351563 L 219.269531 301.046875 L 219.464844 296.828125 L 218.964844 294.703125 L 218.078125 292.707031 L 218.683594 289.976563 L 218.605469 287.054688 L 217.105469 281.160156 L 215.828125 278.972656 L 214.199219 277.199219 L 214.863281 273.800781 L 214.492188 270.359375 L 213.742188 268.304688 L 212.621094 266.429688 L 211.171875 264.796875 L 209.4375 263.460938 L 205.890625 261.980469 L 202.570313 261.691406 L 198.828125 260.363281 L 195.753906 260.25 L 193.117188 260.816406 L 190.792969 261.90625 L 188.671875 263.570313 L 187.0625 265.570313 L 185.128906 263.335938 L 182.582031 261.601563 L 179.796875 260.625 L 176.726563 260.386719 L 174.066406 260.847656 L 171.585938 261.90625 L 169.417969 263.507813 L 167.675781 265.570313 L 166.335938 263.847656 L 164.695313 262.40625 L 162.8125 261.296875 L 160.757813 260.558594 L 158.472656 260.210938 L 156.289063 260.304688 L 154.164063 260.804688 L 152.167969 261.691406 L 150.707031 258.851563 L 148.425781 256.4375 L 144.710938 254.464844 L 140.539063 253.9375 L 139.402344 251.363281 L 137.789063 249.28125 L 138.339844 244.960938 L 139.839844 244.285156 L 142.125 242.191406 L 142.886719 242.511719 L 146.15625 243.175781 L 148.300781 243.253906 L 142.933594 241.117188 L 144.414063 238.429688 L 145.953125 239.960938 L 147.75 241.183594 L 149.738281 242.046875 L 151.855469 242.527344 L 156.046875 242.308594 L 158.96875 243.253906 L 161.910156 243.410156 L 164.917969 242.785156 L 167.65625 241.390625 L 168.773438 240.285156 L 178.0625 241.875 L 182.921875 243.167969 L 186.398438 241.730469 L 187.519531 239.417969 L 188.617188 238.355469 L 189.539063 238.171875 L 193.183594 238.5 L 196.132813 240.542969 L 196.929688 241.929688 L 198.347656 243.578125 L 200.265625 245.074219 L 202.570313 246.183594 L 203.929688 247.992188 L 206.445313 250.0625 L 208.152344 252.230469 L 210.324219 253.9375 L 212.394531 256.457031 L 214.199219 257.816406 L 214.609375 260.058594 L 215.390625 262.066406 L 216.527344 263.894531 L 218.078125 265.570313 L 217.148438 267.6875 L 216.65625 269.945313 L 216.625 272.257813 L 217.011719 274.40625 L 218.867188 278.195313 L 221.265625 280.433594 L 221.269531 280.457031 L 221.914063 281.796875 L 221.71875 285.140625 L 222.902344 289.035156 L 224.21875 291.070313 L 225.523438 292.394531 L 225.945313 294.183594 L 229.304688 299.0625 L 233.546875 301.042969 L 233.335938 304.398438 L 234.363281 308.074219 L 235.613281 310.152344 L 238.652344 313.710938 L 241.339844 315.96875 L 242.066406 319.175781 L 243.664063 322.050781 L 246.832031 325.804688 L 249.09375 327.601563 L 248.78125 330.003906 L 248.972656 332.421875 L 249.664063 334.746094 L 250.820313 336.875 L 251.957031 338.214844 L 245.550781 339.511719 L 244.589844 338.644531 L 243.40625 338.558594 L 241.210938 339.871094 L 241.886719 340.445313 L 246.324219 340.394531 L 249.617188 339.34375 L 251.976563 339.082031 L 254.382813 342.558594 L 260.535156 347.621094 L 261.878906 348.390625 L 262.792969 349.503906 L 264.601563 350.863281 L 266.425781 353.128906 L 267.941406 356.792969 L 267.761719 357.472656 L 267.742188 360.421875 L 268.46875 363.285156 L 269.261719 364.753906 L 269.210938 365.21875 L 264.953125 369.09375 L 261.394531 373.164063 L 260.601563 374.816406 L 262.84375 374.3125 L 264.9375 375.519531 L 266.9375 378.226563 L 270.21875 378.804688 L 270.625 378.746094 L 271.910156 376.796875 L 272.234375 374.960938 L 273.40625 371.914063 L 274.707031 370.632813 L 276.574219 370.308594 L 278.078125 370.734375 L 281.125 370.867188 L 283.511719 370.347656 L 284.253906 370.867188 L 286.703125 370.742188 L 293.949219 371.515625 L 296.914063 372.84375 Z M 227.386719 466.386719 L 226.703125 467.484375 L 225.832031 471.046875 L 220.535156 470.796875 L 221.476563 469.683594 L 227.316406 466.367188 Z M 147.859375 363.589844 L 146.632813 361.074219 L 144.414063 358.617188 L 148.15625 359.941406 L 151.996094 359.957031 L 152.59375 359.792969 L 150.984375 360.816406 Z M 134.898438 247.117188 L 132.785156 246.183594 L 134.53125 246.003906 L 134.707031 246.3125 Z M 170.660156 238.3125 L 172.296875 234.8125 L 172.640625 230.742188 L 171.554688 226.800781 L 174.160156 226.28125 L 176.585938 225.183594 L 178.507813 223.738281 L 181.15625 220.984375 L 182.460938 218.789063 L 183.253906 216.363281 L 183.5 213.824219 L 183.183594 211.292969 L 186.101563 211.605469 L 189.125 211.144531 L 192.25 209.703125 L 194.816406 207.414063 L 196.371094 207.402344 L 197.339844 209.460938 L 197.445313 209.601563 L 197.078125 210.023438 L 197.433594 210.839844 L 197.785156 210.703125 L 197.761719 211.238281 L 197.558594 211.90625 L 195.878906 212.8125 L 193.585938 215.046875 L 191.9375 217.9375 L 191.574219 219.445313 L 191.214844 219.742188 L 185.519531 221.085938 L 182.847656 221.226563 L 177.804688 225.21875 L 178.117188 225.714844 L 179.84375 225.195313 L 184.609375 222.886719 L 186.457031 221.386719 L 187.289063 221.316406 L 189.085938 221.875 L 189.332031 222.921875 L 188.898438 224.691406 L 189.238281 225.953125 L 190.898438 226.824219 L 192.273438 227.066406 L 193.078125 228.625 L 194.003906 229.71875 L 192.117188 231.570313 L 189.460938 232.730469 L 188.34375 232.882813 L 187.070313 232.078125 L 185.40625 232.042969 L 181.046875 235.800781 L 180.578125 237.003906 L 174.761719 240.109375 Z M 186.113281 111.117188 L 187.222656 111.089844 L 187.324219 111.371094 L 189.425781 112.382813 L 190.734375 113.441406 L 190.9375 113.8125 L 190.9375 114.371094 L 188.785156 112.472656 Z M 179.308594 168.644531 L 183.1875 168.644531 L 184.320313 169.011719 L 184.96875 168.644531 L 187.0625 168.644531 L 187.0625 172.523438 L 184.527344 172.207031 L 181.988281 172.453125 L 179.5625 173.25 L 177.371094 174.550781 L 174.613281 177.199219 L 173.171875 179.125 L 172.074219 181.546875 L 171.554688 184.152344 L 170.15625 180.984375 L 167.886719 178.371094 L 164.949219 176.539063 L 161.605469 175.652344 L 158.019531 175.8125 L 154.277344 177.097656 L 151.472656 179.042969 L 149.351563 181.714844 L 149.804688 179.351563 L 149.75 176.820313 L 149.234375 174.601563 L 148.292969 172.523438 L 147.554688 168.449219 L 150.445313 168.085938 L 153.152344 167.015625 L 157.761719 163.496094 L 159.484375 161.417969 L 161.363281 161.917969 L 164.042969 162.292969 L 165.242188 161.992188 L 166.015625 161.605469 L 166.75 160.257813 L 167.589844 160.183594 L 167.507813 160.828125 L 166.417969 162.609375 L 162.722656 166.96875 L 162.175781 167.183594 L 161.726563 166.894531 L 161.859375 165.949219 L 161.53125 165.507813 L 159.984375 165.785156 L 155.320313 167.769531 L 152.441406 170.8125 L 151.949219 171.945313 L 152.140625 172.144531 L 156.390625 168.453125 L 157.75 167.980469 L 160.300781 168.324219 L 161.058594 169.320313 L 157.109375 173.804688 L 156.367188 175.339844 L 156.707031 175.816406 L 157.367188 175.984375 L 158.261719 175.542969 L 161.140625 173.015625 L 167.808594 170.273438 L 170.480469 169.527344 L 170.492188 169.949219 L 171.554688 169.839844 L 173.589844 168.316406 L 174.027344 166.851563 L 175.136719 167.523438 L 177.167969 168.28125 Z M 144.414063 409.015625 L 146.601563 407.980469 L 148.617188 406.425781 L 150.179688 404.578125 L 151.371094 402.328125 L 152.121094 405.832031 L 153.984375 409.039063 L 156.652344 411.429688 L 159.921875 412.890625 L 156.976563 413.097656 L 154.292969 413.980469 L 151.902344 415.488281 L 149.871094 417.628906 L 148.488281 420.09375 L 147.742188 422.816406 L 147.675781 425.644531 L 147.859375 426.460938 L 147.785156 426.460938 L 143.210938 423.710938 L 142.492188 423.710938 L 143.730469 422.144531 L 145.144531 419.148438 L 145.757813 417.058594 L 145.824219 412.980469 Z M 148.109375 428.625 L 147.003906 429.984375 L 146.917969 429.308594 Z M 140.714844 322.707031 L 141.203125 319.847656 L 140.570313 316.152344 L 142.300781 315.023438 L 144.765625 310.230469 L 145.863281 309.40625 L 146.441406 309.199219 L 146.941406 310.261719 L 148.292969 312.09375 L 148.292969 317.265625 L 147.847656 318.148438 L 145.480469 320.476563 L 144.039063 321.035156 L 142.210938 322.171875 L 141.425781 322.902344 Z M 113.398438 215.167969 L 113.398438 213.371094 L 113.785156 214.699219 L 114.152344 214.871094 Z M 113.398438 211.792969 L 113.398438 211.292969 L 116.527344 213.925781 L 115.65625 214.273438 L 114.8125 213.664063 Z M 286.679688 439.636719 L 283.058594 438.976563 L 282.164063 437.605469 L 282.484375 436.070313 L 286.839844 437.054688 L 287.960938 438.832031 Z M 286.679688 439.636719 "/>
</g>
</svg>
