<?xml version="1.0" encoding="UTF-8"?>
<svg xmlns="http://www.w3.org/2000/svg" xmlns:xlink="http://www.w3.org/1999/xlink" width="378pt" height="504pt" viewBox="0 0 378 504" version="1.1">
<g id="data">
<rect x="0" y="0" width="378" height="504" style="fill:rgb(100%,100%,100%);fill-opacity:1;stroke:none;"/>
<path style=" stroke:none;fill-rule:nonzero;fill:rgb(100%,100%,100%);fill-opacity:1;" d="M 53.308594 504 L 324.691406 504 L 324.691406 0 L 53.308594 0 Z M 53.308594 504 "/>
<path style=" stroke:none;fill-rule:nonzero;fill:rgb(22.745098%,53.333333%,16.078431%);fill-opacity:1;" d="M 151.078125 446.621094 L 152 447.179688 L 153.710938 448.597656 L 154.945313 449.183594 L 156.394531 449.46875 L 157.949219 449.375 L 158.898438 449.101563 L 159.632813 448.730469 L 161.4375 447.070313 L 161.941406 446.152344 L 164.597656 446.761719 L 166.046875 446.148438 L 167.527344 446.515625 L 169.484375 447.285156 L 170.039063 448.109375 L 170.757813 448.421875 L 173.15625 448.464844 L 180.570313 447.503906 L 181.109375 445.632813 L 181.210938 443.15625 L 182.519531 440.25 L 190.867188 432.195313 L 195.792969 425.3125 L 197.929688 424.472656 L 198.285156 423.78125 L 198.070313 423.238281 L 197.8125 423.082031 L 196.09375 424.355469 L 192.90625 427.300781 L 190.570313 429.988281 L 189.222656 431.449219 L 185.628906 432.957031 L 183.714844 433.246094 L 182.441406 433.0625 L 178.394531 435.230469 L 177.398438 436.808594 L 177.039063 438.671875 L 176.445313 439.273438 L 174.058594 439.917969 L 170.558594 439.851563 L 166.820313 439 L 166.347656 438.652344 L 165.859375 438.136719 L 165.753906 436.550781 L 165.851563 435.015625 L 166.351563 433.558594 L 167.214844 432.28125 L 168.925781 430.363281 L 169.652344 428.789063 L 169.882813 427.214844 L 169.652344 425.175781 L 169.640625 423.988281 L 169.875 421.457031 L 169.59375 419.6875 L 169.605469 417.789063 L 170.226563 415.996094 L 171.394531 414.5 L 172.984375 413.457031 L 174.820313 412.984375 L 176.714844 413.125 L 178.460938 413.871094 L 180.320313 415.054688 L 181.710938 415.503906 L 183.167969 415.589844 L 184.632813 415.300781 L 186.09375 414.613281 L 187.210938 413.679688 L 188.0625 412.496094 L 188.609375 411.085938 L 188.765625 409.886719 L 188.636719 408.523438 L 188.242188 407.347656 L 187.546875 406.203125 L 186.261719 404.917969 L 185.074219 404.1875 L 183.671875 403.75 L 181.480469 403.636719 L 179.898438 403.335938 L 178.460938 402.613281 L 177.277344 401.523438 L 176.4375 400.148438 L 175.691406 398.433594 L 174.59375 396.914063 L 173.867188 395.558594 L 173.519531 394.0625 L 173.574219 392.523438 L 174.074219 389.628906 L 173.574219 386.738281 L 173.628906 384.503906 L 174.519531 382.457031 L 175.765625 380.644531 L 176.265625 379.277344 L 176.402344 377.84375 L 176.03125 375.5625 L 176.015625 373.777344 L 176.0625 373.621094 L 175.273438 373.257813 L 173.984375 372.097656 L 172.042969 369.746094 L 170.109375 368.613281 L 169.234375 368.390625 L 167.398438 368.300781 L 165.835938 368.007813 L 164.414063 367.308594 L 162.433594 365.964844 L 160.894531 365.457031 L 159.484375 365.378906 L 157.21875 365.851563 L 155.496094 365.949219 L 153.820313 365.539063 L 152.339844 364.652344 L 151.183594 363.375 L 150.457031 361.808594 L 150.453125 361.789063 L 151.550781 360.582031 L 153.09375 359.609375 L 154.941406 359.808594 L 160.492188 357.457031 L 163.644531 357.28125 L 167.339844 357.714844 L 172.597656 355.179688 L 173.933594 355.046875 L 174.484375 355.082031 L 179.910156 359.441406 L 180.433594 358.429688 L 177.679688 353.460938 L 178.242188 352.835938 L 180.867188 352.449219 L 181.503906 352.695313 L 181.914063 353.875 L 182.898438 354.332031 L 184.078125 356.789063 L 185.613281 357.902344 L 188.359375 357.621094 L 190.335938 355.148438 L 189.90625 355.050781 L 188.667969 355.527344 L 188.3125 355.957031 L 186.378906 356.386719 L 183.8125 354.640625 L 179.976563 346.332031 L 183.371094 340.257813 L 185.429688 339.015625 L 185.140625 338.578125 L 182.683594 338.460938 L 181.554688 337.164063 L 181.355469 336.117188 L 181.601563 331.078125 L 181.949219 330.421875 L 184.695313 329.191406 L 187.28125 323.421875 L 187.71875 320.933594 L 187.855469 317.484375 L 184.742188 320.527344 L 179.199219 323.441406 L 177.335938 322.691406 L 172.851563 314.925781 L 172.289063 311.832031 L 167.40625 304.652344 L 169.164063 299.058594 L 174.074219 288.722656 L 176.464844 286.417969 L 178.757813 285.980469 L 180.191406 286.804688 L 181.015625 286.710938 L 181.136719 286.679688 L 181.277344 286.859375 L 182.902344 288.136719 L 184.289063 289.707031 L 185.027344 291.667969 L 185.335938 293.363281 L 185.714844 294.332031 L 186.335938 295.320313 L 187.429688 296.484375 L 188.371094 297.828125 L 188.898438 299.382813 L 188.972656 301.023438 L 188.585938 302.617188 L 187.730469 304.753906 L 187.558594 306.253906 L 187.8125 307.855469 L 188.445313 309.242188 L 189.480469 310.507813 L 192.542969 313.046875 L 193.882813 313.707031 L 196.011719 314.15625 L 197.617188 314.75 L 198.976563 315.785156 L 199.976563 317.171875 L 200.535156 318.789063 L 200.59375 320.496094 L 200.15625 322.148438 L 199.253906 323.601563 L 197.941406 325.152344 L 197.367188 326.269531 L 197.046875 327.503906 L 197 328.773438 L 197.234375 330.011719 L 197.785156 331.265625 L 198.535156 332.273438 L 199.441406 333.054688 L 201.011719 333.84375 L 202.460938 334.164063 L 203.910156 334.109375 L 205.460938 333.632813 L 206.421875 333.0625 L 207.367188 332.179688 L 208.085938 331.125 L 208.792969 329.335938 L 209.820313 327.652344 L 211.347656 326.40625 L 213.695313 325.089844 L 214.933594 323.773438 L 215.484375 322.753906 L 215.828125 321.527344 L 215.898438 320.257813 L 215.679688 318.953125 L 215.308594 318 L 214.578125 316.84375 L 212.371094 314.191406 L 210.582031 312.765625 L 209.304688 311.355469 L 208.554688 309.609375 L 208.40625 307.710938 L 208.878906 305.867188 L 209.921875 304.277344 L 211.421875 303.105469 L 213.21875 302.484375 L 214.820313 302.210938 L 215.832031 301.832031 L 216.757813 301.273438 L 217.5625 300.554688 L 218.21875 299.695313 L 218.707031 298.730469 L 219.003906 297.695313 L 219.15625 296.074219 L 219.609375 294.304688 L 220.59375 292.761719 L 222.003906 291.601563 L 223.707031 290.9375 L 225.15625 290.855469 L 225.945313 294.183594 L 229.304688 299.0625 L 238.90625 303.542969 L 238.679688 304.679688 L 239.066406 306.917969 L 239.574219 307.925781 L 240.507813 309.015625 L 241.566406 309.78125 L 243.539063 310.585938 L 245.183594 311.605469 L 246.402344 313.109375 L 247.058594 314.929688 L 247.367188 316.625 L 247.746094 317.59375 L 248.367188 318.582031 L 249.460938 319.746094 L 250.542969 321.390625 L 251.015625 323.296875 L 250.824219 325.257813 L 250.316406 327.109375 L 250.261719 328.386719 L 250.484375 329.644531 L 250.988281 330.851563 L 251.628906 331.769531 L 252.460938 332.566406 L 253.429688 333.179688 L 255.046875 333.800781 L 256.417969 334.550781 L 257.539063 335.636719 L 258.816406 337.257813 L 260.441406 338.535156 L 260.679688 338.777344 L 263.316406 342.46875 L 263.640625 343.980469 L 262.804688 345.191406 L 263.28125 343.65625 L 262.507813 342.839844 L 260.445313 342 L 258.378906 342.789063 L 257.507813 342.753906 L 256.035156 341.773438 L 253.664063 338.65625 L 252.601563 338.082031 L 245.550781 339.511719 L 244.589844 338.644531 L 243.40625 338.558594 L 241.210938 339.871094 L 241.886719 340.445313 L 246.324219 340.394531 L 249.617188 339.34375 L 251.976563 339.082031 L 254.382813 342.558594 L 260.535156 347.621094 L 263.042969 349.058594 L 263.664063 349.039063 L 266.046875 352.214844 L 268.980469 359.304688 L 269.535156 362.402344 L 269.210938 365.21875 L 264.953125 369.09375 L 261.394531 373.164063 L 260.601563 374.816406 L 262.84375 374.3125 L 264.9375 375.519531 L 266.9375 378.226563 L 270.21875 378.804688 L 270.625 378.746094 L 271.910156 376.796875 L 272.234375 374.960938 L 273.40625 371.914063 L 274.707031 370.632813 L 277.851563 370.085938 L 283.34375 370.234375 L 284.253906 370.867188 L 286.703125 370.742188 L 293.949219 371.515625 L 296.914063 372.84375 L 304.070313 378.085938 L 305.367188 380.105469 L 306.730469 384.164063 L 307.179688 391.25 L 306.777344 393.191406 L 306.890625 393.976563 L 305.789063 396.917969 L 303.519531 407.832031 L 297.144531 414.53125 L 295.578125 412.011719 L 292.742188 410.515625 L 292.480469 410.636719 L 293.898438 413.703125 L 295.890625 416.628906 L 296.3125 416.765625 L 296.164063 417.742188 L 294.574219 419.804688 L 292.191406 421.289063 L 290.003906 421.65625 L 289.660156 421.574219 L 288.214844 419.332031 L 284.976563 421.730469 L 280.71875 424.230469 L 282.339844 425.378906 L 285.105469 424.398438 L 286.097656 423.375 L 286.894531 423.164063 L 287.328125 423.710938 L 287.632813 428.84375 L 285.6875 430.875 L 283.441406 432.558594 L 282.84375 432.699219 L 279.644531 432.160156 L 274.75 433.78125 L 272.609375 436.117188 L 274.253906 436.015625 L 275.152344 434.667969 L 276.683594 434.363281 L 278.285156 434.328125 L 281.054688 434.949219 L 281.828125 435.589844 L 281.691406 436.328125 L 279.554688 436.347656 L 277.390625 437.65625 L 277.96875 438.546875 L 281.382813 438.964844 L 286.863281 440.339844 L 289.394531 439.9375 L 291.074219 438.957031 L 297.585938 438.058594 L 299.210938 439.335938 L 300.488281 440.734375 L 300.933594 441.746094 L 300.773438 446.324219 L 300.683594 446.632813 L 299.945313 447.789063 L 298.46875 448.976563 L 296.6875 449.625 L 294.902344 449.957031 L 294.089844 450.289063 L 291.453125 452.359375 L 290.296875 453.066406 L 288.816406 453.75 L 287.972656 454.347656 L 287.085938 455.304688 L 286.414063 456.476563 L 286.03125 457.753906 L 286.003906 458.246094 L 284.1875 457.9375 L 281.042969 460.90625 L 278.484375 461.933594 L 274.789063 462.777344 L 272.597656 463.816406 L 270.539063 466.589844 L 269.761719 466.949219 L 259.269531 463.777344 L 256.070313 463.507813 L 244.628906 465.699219 L 242.703125 466.390625 L 242.113281 466.964844 L 241.902344 467.984375 L 241.820313 468.011719 L 241.8125 468.007813 L 240.332031 466.941406 L 239.222656 466.453125 L 238.34375 466.269531 L 238.210938 466.1875 L 238.632813 465.4375 L 239.46875 464.933594 L 237.714844 463.296875 L 231.496094 463.171875 L 231.378906 463.496094 L 232.574219 464.835938 L 232.214844 465.75 L 231.738281 466.042969 L 226.691406 465.496094 L 219.566406 468.449219 L 217.054688 467.824219 L 210.222656 468.96875 L 208.164063 468.875 L 207.273438 468.058594 L 206.238281 469.769531 L 209.429688 471.089844 L 209.714844 470.9375 L 210.1875 472.128906 L 209.566406 473.890625 L 206.84375 474.453125 L 204.453125 473.097656 L 203.015625 472.699219 L 197.625 472.007813 L 196.175781 472.65625 L 195.679688 473.863281 L 195.832031 474.871094 L 196.757813 475.523438 L 196.488281 476.304688 L 195.917969 475.996094 L 194.851563 473.972656 L 190.289063 470.589844 L 185.898438 468.519531 L 183.121094 467.984375 L 182.015625 468.796875 L 179.851563 468.382813 L 178.445313 468.359375 L 176.632813 468.828125 L 175.03125 469.851563 L 174.722656 470.222656 L 174.339844 470.335938 L 168.992188 473.234375 L 168.214844 474.070313 L 167.203125 476.179688 L 162.746094 489.226563 L 160.929688 490.242188 L 158.269531 489.722656 L 157.554688 489.058594 L 156.527344 486.851563 L 154.683594 485.4375 L 153.613281 485.542969 L 152.417969 486.300781 L 151.738281 486.164063 L 148.46875 482.535156 L 142.796875 482.960938 L 141.527344 483.375 L 141.109375 483.792969 L 140.355469 483.453125 L 139.375 483.222656 L 137.894531 483.195313 L 136.425781 483.53125 L 134.699219 484.328125 L 134.507813 484.320313 L 132.167969 484.859375 L 129.414063 488.195313 L 126.714844 489.746094 L 124.039063 490.597656 L 123.132813 494.289063 L 123.664063 495.292969 L 123.496094 496.125 L 122.722656 496.945313 L 121.917969 497.21875 L 121.355469 497.113281 L 119.695313 496.164063 L 118.433594 494.730469 L 117.703125 492.964844 L 117.585938 491.054688 L 118.09375 489.214844 L 118.917969 487.4375 L 119.332031 485.394531 L 119.605469 484.652344 L 121.425781 483.085938 L 124.375 479.769531 L 125.210938 477.886719 L 124.875 476.421875 L 125.640625 474.519531 L 128.386719 473.238281 L 132.105469 472.640625 L 132.679688 471.785156 L 133.257813 469.527344 L 135.859375 467.5625 L 138.636719 464.640625 L 139.128906 458.542969 L 139.796875 454.753906 L 142.492188 455.105469 L 144.269531 456.015625 L 145.761719 455.429688 L 148.429688 452.488281 L 148.105469 447.519531 Z M 184.15625 369.320313 L 184.160156 369.324219 L 185.65625 370.296875 L 187.066406 371.566406 L 188.230469 372.222656 L 190.019531 372.816406 L 191.421875 372.964844 L 192.671875 372.8125 L 193.875 372.386719 L 194.953125 371.703125 L 195.882813 370.777344 L 196.480469 369.855469 L 197.148438 368.136719 L 197.742188 367.003906 L 199.058594 365.042969 L 199.625 363.238281 L 199.679688 362.238281 L 199.515625 361.097656 L 199.125 360 L 198.558594 359.046875 L 197.71875 358.074219 L 196.855469 357.371094 L 195.917969 356.863281 L 195.015625 356.578125 L 192.472656 356.484375 L 190.496094 356.832031 L 189.203125 357.328125 L 188.230469 357.949219 L 185.667969 360.140625 L 184.203125 362.136719 L 183.839844 363.097656 L 183.667969 364.210938 L 183.714844 365.351563 L 184.121094 367.023438 L 184.277344 368.746094 Z M 150.390625 361.34375 L 150.214844 360.101563 L 150.230469 358.558594 L 150.503906 356.851563 L 151.121094 355.597656 L 155.546875 356.503906 L 154.066406 358.859375 L 150.984375 360.816406 Z M 171.9375 284.238281 L 173.222656 283.449219 L 175.046875 283.027344 L 176.910156 283.207031 L 178.621094 283.96875 L 180 285.234375 L 180.085938 285.339844 L 180.035156 285.351563 L 174.65625 284.980469 L 172.566406 284.292969 Z M 233.042969 468.40625 L 232.183594 469.675781 L 231.464844 472.488281 L 230.875 473.804688 L 229.960938 474.269531 L 228.117188 474.644531 L 222.296875 470.886719 L 220.207031 471.1875 L 221.476563 469.683594 L 227.316406 466.367188 L 232.550781 467.761719 Z M 175.300781 218.707031 L 176.5 217.550781 L 178.074219 216.46875 L 179.914063 215.953125 L 181.824219 216.0625 L 183.59375 216.789063 L 185.03125 218.046875 L 185.984375 219.699219 L 186.425781 220.875 L 185.519531 221.085938 L 182.847656 221.226563 L 177.804688 225.21875 L 178.117188 225.714844 L 179.84375 225.195313 L 184.609375 222.886719 L 186.457031 221.386719 L 186.609375 221.375 L 186.738281 221.71875 L 187.964844 223.488281 L 188.746094 225.101563 L 189 226.871094 L 188.703125 228.636719 L 187.882813 230.226563 L 186.863281 231.625 L 186.660156 232.070313 L 185.40625 232.042969 L 181.046875 235.800781 L 180.578125 237.003906 L 174.761719 240.109375 L 170.214844 238.117188 L 166.480469 238.003906 L 166.738281 239.222656 L 168.246094 240.195313 L 178.0625 241.875 L 182.921875 243.167969 L 186.398438 241.730469 L 187.519531 239.417969 L 188 238.953125 L 188.886719 240.253906 L 189.320313 241.15625 L 190.265625 241.265625 L 192.097656 241.761719 L 193.359375 241.816406 L 194.585938 241.601563 L 196.4375 240.824219 L 196.515625 240.808594 L 199.339844 242.761719 L 206.488281 246.65625 L 208.910156 251.429688 L 210.769531 253.9375 L 210.742188 253.980469 L 209.148438 255.726563 L 208.40625 257.226563 L 208.128906 258.765625 L 208.359375 261.136719 L 208.265625 262.855469 L 207.675781 264.476563 L 206.632813 265.851563 L 205.234375 266.859375 L 203.601563 267.414063 L 201.878906 267.464844 L 200.214844 267.007813 L 198.757813 266.085938 L 197.042969 264.597656 L 195.714844 263.949219 L 193.414063 263.527344 L 191.191406 263.625 L 189.472656 263.441406 L 187.882813 262.761719 L 186.5625 261.644531 L 185.628906 260.191406 L 185.167969 258.523438 L 185.214844 256.796875 L 185.597656 254.636719 L 185.484375 253.171875 L 185.050781 251.882813 L 183.859375 250.023438 L 183.507813 249.242188 L 182.777344 249.1875 L 180.257813 248.613281 L 178.652344 248.71875 L 177.03125 249.328125 L 175.070313 250.816406 L 173.484375 251.667969 L 171.714844 251.996094 L 169.929688 251.769531 L 168.300781 251.003906 L 166.984375 249.78125 L 165.707031 248.15625 L 164.082031 246.878906 L 162.886719 245.605469 L 162.125 244.035156 L 161.863281 242.3125 L 162.121094 240.585938 L 162.882813 239.015625 L 164.074219 237.742188 L 165.449219 236.660156 L 166.144531 235.847656 L 166.6875 234.90625 L 167.042969 233.878906 L 167.199219 232.800781 L 167.152344 231.714844 L 166.90625 230.65625 L 166.242188 229.164063 L 165.777344 227.480469 L 165.835938 225.734375 L 166.414063 224.082031 L 167.453125 222.679688 L 168.859375 221.644531 L 170.511719 221.078125 L 172.207031 220.769531 L 173.179688 220.394531 L 174.167969 219.769531 Z M 181.894531 115.097656 L 180.859375 113.617188 L 180.332031 111.773438 L 180.433594 109.855469 L 181.152344 108.078125 L 182.414063 106.628906 L 183.9375 105.75 L 184.519531 106.003906 L 186.230469 108.273438 L 187.324219 111.371094 L 189.425781 112.382813 L 190.734375 113.441406 L 191.546875 114.902344 L 189.996094 116.5625 L 186.777344 113.90625 L 184.832031 114.03125 Z M 188.648438 119.699219 L 187.121094 118.753906 L 186.738281 118.421875 L 188.300781 118.292969 L 188.792969 119.078125 Z M 155.351563 157.296875 L 156.625 156.101563 L 158.195313 155.339844 L 159.921875 155.078125 L 163.800781 155.078125 L 163.855469 155.085938 L 162.601563 156.074219 L 162.234375 157.082031 L 162.671875 158.175781 L 162.078125 159.632813 L 159.644531 160.289063 L 156.839844 159.359375 L 154.585938 158.273438 Z M 192.777344 167.953125 L 192.875 168.644531 L 192.875 172.523438 L 192.558594 174.425781 L 191.632813 176.121094 L 190.203125 177.417969 L 188.429688 178.175781 L 186.503906 178.3125 L 184.148438 178.085938 L 182.503906 178.390625 L 181.109375 179.089844 L 179.351563 180.695313 L 177.878906 181.675781 L 176.1875 182.167969 L 174.421875 182.128906 L 172.75 181.5625 L 171.328125 180.519531 L 170.175781 179.375 L 169.496094 178.910156 L 167.132813 178.125 L 165.703125 178.105469 L 162.929688 178.644531 L 161.574219 179.304688 L 159.855469 180.792969 L 158.421875 181.707031 L 156.785156 182.167969 L 155.085938 182.136719 L 153.46875 181.613281 L 152.070313 180.644531 L 150.90625 179.550781 L 149.929688 178.9375 L 148.855469 178.527344 L 147.28125 178.25 L 145.539063 177.644531 L 144.070313 176.523438 L 143.03125 174.996094 L 142.519531 173.222656 L 142.589844 171.378906 L 143.238281 169.648438 L 144.394531 168.207031 L 145.941406 167.203125 L 147.871094 166.351563 L 148.976563 165.496094 L 149.832031 164.414063 L 150.738281 162.390625 L 151.460938 161.191406 L 152.453125 160.199219 L 154.050781 158.941406 L 154.464844 159.796875 L 155.875 160.457031 L 161.363281 161.917969 L 164.042969 162.292969 L 165.242188 161.992188 L 166.015625 161.605469 L 166.75 160.257813 L 167.589844 160.183594 L 167.507813 160.828125 L 166.417969 162.609375 L 162.722656 166.96875 L 162.175781 167.183594 L 161.726563 166.894531 L 161.859375 165.949219 L 161.53125 165.507813 L 159.984375 165.785156 L 155.320313 167.769531 L 152.441406 170.8125 L 151.949219 171.945313 L 152.140625 172.144531 L 156.390625 168.453125 L 157.75 167.980469 L 160.300781 168.324219 L 161.058594 169.320313 L 157.109375 173.804688 L 156.367188 175.339844 L 156.707031 175.816406 L 157.367188 175.984375 L 158.261719 175.542969 L 161.140625 173.015625 L 167.808594 170.273438 L 170.480469 169.527344 L 170.492188 169.949219 L 171.554688 169.839844 L 173.589844 168.316406 L 174.046875 166.78125 L 178.648438 166.167969 L 179.285156 167.089844 L 180.148438 167.667969 L 184.320313 169.011719 L 187.675781 167.128906 Z M 139.003906 411.144531 L 138.617188 409.460938 L 138.742188 407.734375 L 139.1875 406.597656 L 141.359375 406.660156 L 142.21875 406.390625 L 148.527344 402.359375 L 149.46875 402.671875 L 150.914063 403.722656 L 151.976563 405.164063 L 152.546875 406.859375 L 152.882813 408.808594 L 153.652344 410.636719 L 154.105469 412.675781 L 153.804688 414.742188 L 152.796875 416.570313 L 150.441406 419.457031 L 149.160156 420.617188 L 147.597656 421.351563 L 145.886719 421.597656 L 144.183594 421.324219 L 142.632813 420.566406 L 141.371094 419.386719 L 140.515625 417.886719 L 140.132813 416.199219 L 139.941406 413.523438 Z M 137.933594 323.433594 L 137.675781 322.921875 L 139.816406 316.644531 L 142.300781 315.023438 L 144.765625 310.230469 L 145.863281 309.40625 L 149.046875 308.269531 L 150.203125 313.453125 L 147.847656 318.148438 L 145.3125 320.636719 L 141.859375 323.019531 L 139.824219 322.464844 Z M 286.679688 439.636719 L 283.058594 438.976563 L 282.164063 437.605469 L 282.484375 436.070313 L 286.839844 437.054688 L 287.960938 438.832031 Z M 236.835938 466.113281 L 235.136719 465.644531 L 236.523438 463.683594 L 237.195313 464.164063 L 237.5 465.839844 Z M 236.835938 466.113281 "/>
<path style=" stroke:none;fill-rule:nonzero;fill:rgb(80.392157%,58.431373%,4.705882%);fill-opacity:1;" d="M 173.492188 265.570313 L 173.207031 267.367188 L 172.382813 268.988281 L 171.09375 270.273438 L 169.472656 271.101563 L 167.675781 271.382813 L 165.878906 271.101563 L 164.257813 270.273438 L 162.972656 268.988281 L 162.144531 267.367188 L 161.863281 265.570313 L 162.144531 263.773438 L 162.972656 262.152344 L 164.257813 260.863281 L 165.878906 260.039063 L 167.675781 259.753906 L 169.472656 260.039063 L 171.09375 260.863281 L 172.382813 262.152344 L 173.207031 263.773438 Z M 173.492188 265.570313 "/>
<path style=" stroke:none;fill-rule:nonzero;fill:rgb(80.392157%,58.431373%,4.705882%);fill-opacity:1;" d="M 157.984375 261.691406 L 157.699219 263.488281 L 156.875 265.109375 L 155.585938 266.398438 L 153.964844 267.222656 L 152.167969 267.507813 L 150.371094 267.222656 L 148.75 266.398438 L 147.464844 265.109375 L 146.636719 263.488281 L 146.355469 261.691406 L 146.636719 259.894531 L 147.464844 258.273438 L 148.75 256.988281 L 150.371094 256.160156 L 152.167969 255.875 L 153.964844 256.160156 L 155.585938 256.988281 L 156.875 258.273438 L 157.699219 259.894531 Z M 157.984375 261.691406 "/>
<path style=" stroke:none;fill-rule:nonzero;fill:rgb(80.392157%,58.431373%,4.705882%);fill-opacity:1;" d="M 197.355469 212.566406 L 196.613281 212.945313 L 194.816406 213.230469 L 193.019531 212.945313 L 191.398438 212.121094 L 190.109375 210.832031 L 189.285156 209.210938 L 189 207.414063 L 189.285156 205.617188 L 190.109375 203.996094 L 191.398438 202.710938 L 193.019531 201.882813 L 194.816406 201.601563 L 196.613281 201.882813 L 198.234375 202.710938 L 199.519531 203.996094 L 200.347656 205.617188 L 200.519531 206.722656 L 199.179688 207.605469 L 197.078125 210.023438 L 197.433594 210.839844 L 197.785156 210.703125 L 197.761719 211.238281 Z M 197.355469 212.566406 "/>
<path style=" stroke:none;fill-rule:nonzero;fill:rgb(80.392157%,58.431373%,4.705882%);fill-opacity:1;" d="M 150.230469 238.429688 L 149.945313 240.226563 L 149.121094 241.847656 L 147.882813 243.085938 L 141.261719 240.453125 L 140.441406 240.5625 L 139.386719 240.085938 L 139.183594 238.121094 L 139.414063 236.460938 L 140.238281 234.648438 L 140.003906 234.71875 L 140.996094 233.726563 L 142.617188 232.898438 L 144.414063 232.617188 L 146.210938 232.898438 L 147.832031 233.726563 L 149.121094 235.011719 L 149.945313 236.632813 Z M 147.648438 243.230469 L 146.210938 243.960938 L 144.414063 244.246094 L 142.617188 243.960938 L 140.996094 243.136719 L 139.757813 241.894531 L 140.710938 241.59375 L 142.886719 242.511719 L 146.15625 243.175781 Z M 138.625 238.59375 L 138.601563 238.429688 L 138.882813 236.632813 L 139.039063 236.328125 Z M 138.625 238.59375 "/>
<path style=" stroke:none;fill-rule:nonzero;fill:rgb(80.392157%,58.431373%,4.705882%);fill-opacity:1;" d="M 221.8125 281.585938 L 221.496094 281.90625 L 219.875 282.730469 L 218.078125 283.015625 L 216.28125 282.730469 L 214.660156 281.90625 L 213.371094 280.617188 L 212.546875 278.996094 L 212.261719 277.199219 L 212.546875 275.402344 L 213.371094 273.78125 L 214.660156 272.496094 L 216.28125 271.667969 L 218.078125 271.382813 L 219.136719 271.550781 L 220.40625 277.574219 L 221.269531 280.457031 Z M 221.8125 281.585938 "/>
<path style=" stroke:none;fill-rule:nonzero;fill:rgb(80.392157%,58.431373%,4.705882%);fill-opacity:1;" d="M 154.109375 370.246094 L 153.824219 372.042969 L 152.996094 373.664063 L 152.804688 373.207031 L 150.203125 373.105469 L 145.449219 374.257813 L 144.714844 374.792969 L 143.585938 373.664063 L 142.761719 372.042969 L 142.726563 371.835938 L 147.132813 367.984375 L 147.953125 364.523438 L 147.996094 364.476563 L 148.292969 364.429688 L 150.089844 364.714844 L 151.710938 365.542969 L 152.996094 366.828125 L 153.824219 368.449219 Z M 154.109375 370.246094 "/>
<path style=" stroke:none;fill-rule:nonzero;fill:rgb(80.392157%,58.431373%,4.705882%);fill-opacity:1;" d="M 108.082031 147.09375 L 107.726563 147.039063 L 107.539063 146.941406 L 108.015625 146.824219 Z M 106.714844 146.523438 L 106.105469 146.210938 L 104.816406 144.925781 L 103.992188 143.304688 L 103.707031 141.507813 L 103.992188 139.710938 L 104.816406 138.089844 L 106.105469 136.804688 L 107.726563 135.976563 L 109.523438 135.691406 L 111.320313 135.976563 L 112.800781 136.730469 L 112.328125 137.878906 L 110.105469 140.078125 L 109.925781 141.289063 L 111.058594 141.910156 L 112.367188 141.523438 L 113.644531 140.4375 L 114.097656 140.800781 L 113.746094 142.269531 L 112.140625 143.671875 L 111.234375 143.917969 L 109.761719 143.558594 L 108.839844 144.542969 L 108.40625 145.765625 Z M 106.714844 146.523438 "/>
<path style=" stroke:none;fill-rule:nonzero;fill:rgb(80.392157%,58.431373%,4.705882%);fill-opacity:1;" d="M 157.984375 397.382813 L 157.699219 399.183594 L 156.875 400.804688 L 155.585938 402.089844 L 153.964844 402.914063 L 152.167969 403.199219 L 150.371094 402.914063 L 148.863281 402.144531 L 149.359375 401.828125 L 152.136719 398.207031 L 153.054688 396.195313 L 154.148438 391.945313 L 155.585938 392.679688 L 156.875 393.964844 L 157.699219 395.585938 Z M 157.984375 397.382813 "/>
<path style=" stroke:none;fill-rule:nonzero;fill:rgb(80.392157%,58.431373%,4.705882%);fill-opacity:1;" d="M 130.828125 215.292969 L 130.5625 216.964844 L 129.734375 218.585938 L 129.324219 219 L 127.28125 218.265625 L 127.882813 216.460938 L 128.195313 216.742188 L 128.945313 216.671875 Z M 127.824219 220.191406 L 126.828125 220.699219 L 125.710938 220.875 L 126.660156 220.210938 Z M 121.15625 219.417969 L 120.324219 218.585938 L 120.144531 218.230469 L 121.195313 219.144531 Z M 119.347656 215.992188 L 119.214844 215.167969 L 119.5 213.371094 L 120.324219 211.75 L 121.613281 210.464844 L 123.234375 209.636719 L 125.03125 209.355469 L 126.828125 209.636719 L 128.34375 210.410156 L 123.476563 215.398438 L 120.675781 217.269531 L 120.230469 216.390625 Z M 129.296875 211.3125 L 129.734375 211.75 L 130.5625 213.371094 L 130.832031 215.078125 L 129.507813 214.882813 L 128.550781 215.441406 L 127.980469 214.949219 L 127.875 213.785156 Z M 129.296875 211.3125 "/>
<path style=" stroke:none;fill-rule:nonzero;fill:rgb(80.392157%,58.431373%,4.705882%);fill-opacity:1;" d="M 138.601563 246.183594 L 138.316406 247.980469 L 137.835938 248.921875 L 138.371094 244.730469 Z M 127.648438 243.617188 L 128.078125 242.765625 L 129.367188 241.480469 L 130.988281 240.652344 L 132.785156 240.371094 L 134.582031 240.652344 L 136.203125 241.480469 L 137.296875 242.574219 L 136.15625 245.152344 L 135.023438 244.945313 L 131.566406 242.222656 L 130.757813 242.5 L 130.269531 243.347656 L 130.09375 244.535156 L 130.664063 246.308594 L 130.519531 246.613281 L 128.257813 245.464844 Z M 134.8125 251.347656 L 132.589844 248.835938 L 130.84375 244.566406 L 130.707031 243.464844 L 131.460938 242.613281 L 133.71875 244.574219 L 134.707031 246.3125 L 135.339844 249.003906 L 135.222656 250.96875 Z M 134.8125 251.347656 "/>
<path style=" stroke:none;fill-rule:nonzero;fill:rgb(80.392157%,58.431373%,4.705882%);fill-opacity:1;" d="M 130.796875 424.828125 L 130.5625 426.320313 L 129.734375 427.941406 L 128.640625 429.039063 L 126.53125 428.132813 L 127.425781 426.082031 L 128.796875 425.832031 Z M 125.054688 418.710938 L 126.828125 418.992188 L 128.449219 419.816406 L 129.734375 421.105469 L 130.5625 422.726563 L 130.761719 423.980469 L 130.640625 424.257813 L 127.769531 424.613281 L 122.949219 424.152344 L 121.496094 423.164063 L 124.125 421.78125 L 125.167969 421.753906 L 125.464844 421.238281 Z M 125.054688 418.710938 "/>
<path style=" stroke:none;fill-rule:nonzero;fill:rgb(80.392157%,58.431373%,4.705882%);fill-opacity:1;" d="M 229.835938 41.203125 L 228.878906 40.25 L 228.054688 38.628906 L 227.769531 36.832031 L 227.789063 36.695313 L 228.363281 36.574219 L 229.761719 37.023438 L 229.984375 39.984375 Z M 233.101563 38.984375 L 230.96875 38.972656 L 230.324219 38.394531 L 230.816406 33.792969 L 232.058594 31.609375 L 233.582031 31.753906 L 234.398438 32.242188 L 234.613281 32.71875 Z M 233.101563 38.984375 "/>
</g>
</svg>
