<?xml version="1.0" encoding="UTF-8"?>
<svg xmlns="http://www.w3.org/2000/svg" xmlns:xlink="http://www.w3.org/1999/xlink" width="378pt" height="504pt" viewBox="0 0 378 504" version="1.1">
<g id="data">
<rect x="0" y="0" width="378" height="504" style="fill:rgb(100%,100%,100%);fill-opacity:1;stroke:none;"/>
<path style=" stroke:none;fill-rule:nonzero;fill:rgb(100%,100%,100%);fill-opacity:1;" d="M 53.308594 504 L 324.691406 504 L 324.691406 0 L 53.308594 0 Z M 53.308594 504 "/>
<path style=" stroke:none;fill-rule:nonzero;fill:rgb(22.745098%,53.333333%,16.078431%);fill-opacity:1;" d="M 198.992188 440.738281 L 197.789063 439.464844 L 197.019531 437.894531 L 196.753906 436.164063 L 197.015625 434.433594 L 197.777344 432.859375 L 198.972656 431.582031 L 200.496094 430.722656 L 202.203125 430.351563 L 203.949219 430.503906 L 205.375 430.851563 L 206.894531 431.460938 L 208.183594 432.46875 L 209.144531 433.792969 L 209.828125 435.09375 L 210.363281 436.640625 L 211.367188 437.210938 L 215.753906 440.765625 L 216.695313 441.207031 L 217.703125 441.457031 L 218.929688 441.515625 L 220.203125 441.296875 L 221.382813 440.808594 L 222.441406 440.066406 L 223.242188 439.195313 L 223.890625 438.078125 L 224.273438 436.863281 L 224.378906 435.652344 L 223.828125 432.203125 L 223.496094 431.101563 L 222.828125 429.886719 L 221.5 428.40625 L 220.46875 426.777344 L 220.285156 425.996094 L 218.613281 426.4375 L 216.699219 426.296875 L 215.269531 425.949219 L 213.800781 425.367188 L 212.539063 424.414063 L 211.582031 423.152344 L 210.648438 421.496094 L 209.925781 420.710938 L 208.902344 419.167969 L 208.417969 417.378906 L 208.359375 416.84375 L 208.402344 415.941406 L 208.066406 415.5625 L 207.160156 414.140625 L 206.085938 413 L 204.996094 411.347656 L 204.523438 409.421875 L 204.722656 407.453125 L 205.210938 405.707031 L 205.28125 404.417969 L 205.074219 403.15625 L 204.578125 401.945313 L 203.960938 401.03125 L 203.066406 400.164063 L 202.105469 399.558594 L 200.488281 398.9375 L 198.875 398 L 197.640625 396.59375 L 196.917969 394.875 L 196.773438 393.011719 L 197.230469 391.199219 L 198.238281 389.625 L 199.566406 388.144531 L 200.21875 386.957031 L 200.582031 385.710938 L 200.90625 383.050781 L 200.773438 381.816406 L 200.367188 380.617188 L 199.707031 379.535156 L 198.382813 378.160156 L 197.351563 376.695313 L 196.816406 374.984375 L 196.828125 373.195313 L 197.382813 371.492188 L 198.425781 370.039063 L 199.863281 368.972656 L 201.558594 368.394531 L 203.347656 368.359375 L 205.054688 368.589844 L 206.195313 368.519531 L 207.3125 368.21875 L 208.082031 367.84375 L 210.402344 365.84375 L 211.972656 364.875 L 214.011719 364.027344 L 215.152344 363.164063 L 216.152344 361.867188 L 216.695313 360.53125 L 216.875 358.714844 L 216.273438 355.992188 L 216.160156 354.230469 L 216.582031 352.515625 L 217.496094 351.007813 L 218.835938 349.402344 L 219.484375 348.054688 L 219.757813 346.703125 L 219.699219 345.335938 L 219.242188 343.832031 L 218.488281 342.621094 L 217.367188 341.566406 L 215.339844 340.484375 L 213.820313 339.316406 L 212.765625 337.722656 L 212.285156 335.871094 L 212.429688 333.960938 L 213.1875 332.203125 L 214.476563 330.789063 L 215.847656 329.707031 L 216.546875 328.894531 L 217.085938 327.949219 L 217.441406 326.921875 L 217.601563 325.847656 L 217.554688 324.761719 L 217.304688 323.703125 L 216.640625 322.210938 L 216.167969 320.4375 L 216.273438 318.605469 L 216.941406 316.894531 L 218.113281 315.480469 L 219.664063 314.5 L 221.445313 314.054688 L 223.277344 314.183594 L 224.976563 314.878906 L 226.375 316.066406 L 227.746094 317.671875 L 228.875 318.476563 L 230.269531 319.019531 L 231.644531 319.1875 L 233.039063 319.019531 L 234.332031 318.523438 L 235.554688 317.660156 L 236.917969 316.066406 L 238.453125 314.796875 L 240.328125 314.117188 L 242.320313 314.113281 L 245.214844 314.609375 L 248.109375 314.113281 L 248.660156 314.105469 L 249.289063 315.722656 L 252.390625 319.148438 L 254.886719 320.304688 L 254.886719 320.328125 L 254.476563 322.042969 L 253.574219 323.554688 L 252.167969 325.25 L 251.550781 326.574219 L 251.28125 328.011719 L 251.386719 329.46875 L 251.851563 330.851563 L 252.648438 332.074219 L 253.730469 333.058594 L 255.679688 334.085938 L 257.121094 335.160156 L 258.164063 336.621094 L 258.714844 338.332031 L 258.714844 340.128906 L 258.164063 341.839844 L 257.515625 342.753906 L 257.507813 342.753906 L 256.035156 341.773438 L 253.664063 338.65625 L 252.601563 338.082031 L 245.550781 339.511719 L 244.589844 338.644531 L 243.40625 338.558594 L 241.210938 339.871094 L 241.886719 340.445313 L 246.324219 340.394531 L 249.617188 339.34375 L 251.976563 339.082031 L 254.382813 342.558594 L 256.160156 344.019531 L 255.679688 344.375 L 253.730469 345.402344 L 252.648438 346.386719 L 251.851563 347.609375 L 251.386719 348.992188 L 251.28125 350.449219 L 251.550781 351.886719 L 252.167969 353.210938 L 253.574219 354.90625 L 254.460938 356.382813 L 254.878906 358.054688 L 254.789063 359.777344 L 254.199219 361.394531 L 253.160156 362.769531 L 251.765625 363.78125 L 250.132813 364.335938 L 248.453125 364.640625 L 247.382813 365.066406 L 246.492188 365.632813 L 245.3125 366.734375 L 244.058594 367.632813 L 241.78125 368.835938 L 240.585938 370.03125 L 239.75 371.621094 L 239.425781 373.410156 L 239.632813 376.199219 L 240.300781 377.800781 L 241.558594 379.277344 L 242.355469 379.835938 L 243.5 380.324219 L 244.613281 380.550781 L 245.65625 380.554688 L 250.609375 379.371094 L 251.535156 378.84375 L 252.941406 377.570313 L 254.25 376.671875 L 255.753906 376.164063 L 257.339844 376.082031 L 259.902344 376.300781 L 261.625 375.929688 L 262.839844 375.289063 L 263.492188 374.6875 L 264.9375 375.519531 L 266.9375 378.226563 L 270.21875 378.804688 L 270.625 378.746094 L 271.910156 376.796875 L 272.234375 374.960938 L 273.234375 372.355469 L 274.53125 372.605469 L 276.390625 373.8125 L 277.765625 375.136719 L 278.847656 375.796875 L 280.046875 376.207031 L 281.292969 376.339844 L 283.300781 376.101563 L 284.511719 376.085938 L 287.058594 376.316406 L 288.191406 376.125 L 289.828125 375.371094 L 291.742188 373.660156 L 293.179688 372.71875 L 294.832031 372.238281 L 295.585938 372.246094 L 296.914063 372.84375 L 300.921875 375.777344 L 301.285156 376.710938 L 301.835938 379.125 L 302.6875 380.675781 L 305.183594 383.644531 L 306.78125 384.914063 L 307.179688 391.25 L 306.777344 393.191406 L 306.890625 393.976563 L 305.789063 396.917969 L 303.519531 407.832031 L 297.144531 414.53125 L 295.578125 412.011719 L 292.742188 410.515625 L 292.480469 410.636719 L 293.898438 413.703125 L 295.890625 416.628906 L 296.3125 416.765625 L 296.164063 417.742188 L 294.574219 419.804688 L 292.191406 421.289063 L 290.003906 421.65625 L 289.660156 421.574219 L 288.214844 419.332031 L 284.976563 421.730469 L 280.71875 424.230469 L 282.339844 425.378906 L 285.105469 424.398438 L 286.097656 423.375 L 286.894531 423.164063 L 287.328125 423.710938 L 287.632813 428.84375 L 285.6875 430.875 L 283.441406 432.558594 L 282.84375 432.699219 L 279.644531 432.160156 L 274.75 433.78125 L 272.609375 436.117188 L 274.253906 436.015625 L 275.152344 434.667969 L 276.683594 434.363281 L 278.285156 434.328125 L 281.054688 434.949219 L 281.828125 435.589844 L 281.691406 436.328125 L 279.554688 436.347656 L 277.390625 437.65625 L 277.96875 438.546875 L 280.160156 438.816406 L 278.96875 439.894531 L 277.519531 442.699219 L 276.34375 444.261719 L 274.71875 445.34375 L 272.824219 445.828125 L 270.460938 446.019531 L 268.910156 446.605469 L 267.597656 447.601563 L 266.582031 448.976563 L 266.089844 450.242188 L 265.910156 451.542969 L 266.050781 452.964844 L 266.484375 454.195313 L 267.261719 455.398438 L 268.222656 456.304688 L 269.363281 456.96875 L 271.398438 457.574219 L 273.050781 458.363281 L 274.371094 459.628906 L 275.234375 461.238281 L 275.480469 462.617188 L 274.789063 462.777344 L 272.597656 463.816406 L 270.539063 466.589844 L 269.761719 466.949219 L 259.269531 463.777344 L 256.070313 463.507813 L 244.628906 465.699219 L 242.703125 466.390625 L 242.113281 466.964844 L 241.902344 467.984375 L 241.359375 468.164063 L 238.210938 466.1875 L 238.632813 465.4375 L 239.46875 464.933594 L 237.714844 463.296875 L 231.496094 463.171875 L 231.378906 463.496094 L 232.574219 464.835938 L 232.214844 465.75 L 231.738281 466.042969 L 226.691406 465.496094 L 222.84375 467.089844 L 222.054688 466.160156 L 221.03125 465.394531 L 219.851563 464.867188 L 218.695313 464.625 L 217.273438 464.636719 L 212.355469 465.566406 L 211.4375 465.960938 L 210.535156 466.566406 L 209.773438 467.320313 L 209.152344 468.230469 L 208.886719 468.90625 L 208.164063 468.875 L 207.273438 468.058594 L 206.238281 469.769531 L 208.476563 470.695313 L 208.335938 471.785156 L 207.835938 473.511719 L 207.257813 474.367188 L 206.84375 474.453125 L 204.453125 473.097656 L 203.015625 472.699219 L 197.625 472.007813 L 196.175781 472.65625 L 195.679688 473.863281 L 195.832031 474.871094 L 196.4375 475.296875 L 196.171875 475.207031 L 195.238281 474.707031 L 194.851563 473.972656 L 190.289063 470.589844 L 190.09375 470.496094 L 189.910156 470.289063 L 189.15625 468.515625 L 189.027344 466.589844 L 189.535156 464.730469 L 190.625 463.136719 L 192.175781 461.988281 L 194.015625 461.410156 L 196.386719 461.078125 L 197.839844 460.4375 L 199.0625 459.425781 L 200 458.066406 L 200.4375 456.867188 L 200.671875 454.863281 L 201.585938 452.347656 L 203 450.195313 L 203.457031 448.621094 L 203.386719 446.613281 L 202.300781 443.871094 L 202.101563 442.949219 L 201.101563 442.386719 Z M 219.828125 414.414063 L 221.953125 416.308594 L 223.152344 417.808594 L 223.652344 419.195313 L 224.078125 418.976563 L 225.988281 418.710938 L 231.652344 418.863281 L 234.472656 418.605469 L 236.066406 418.097656 L 237.328125 417.289063 L 238.175781 416.402344 L 238.835938 415.308594 L 239.242188 414.082031 L 239.433594 412.28125 L 239.800781 410.769531 L 240.554688 409.414063 L 241.644531 408.300781 L 243.175781 407.109375 L 244.539063 405.394531 L 245.097656 404.789063 L 247.347656 402.664063 L 248.003906 401.503906 L 248.378906 400.085938 L 248.386719 398.605469 L 248.054688 397.261719 L 247.40625 396.035156 L 246.300781 394.816406 L 244.316406 393.351563 L 242.941406 392.761719 L 241.339844 392.539063 L 239.703125 392.769531 L 238.511719 393.261719 L 236.960938 394.367188 L 235.535156 395.109375 L 233.960938 395.433594 L 231.84375 395.570313 L 230.523438 395.980469 L 229.636719 396.480469 L 228.84375 397.144531 L 228.023438 398.179688 L 227.195313 399.90625 L 225.574219 401.9375 L 223.859375 403.300781 L 222.667969 404.832031 L 221.878906 405.664063 L 220.140625 407.164063 L 219.679688 407.785156 L 218.90625 409.722656 L 218.78125 412.6875 L 218.757813 412.792969 L 219.136719 413.253906 Z M 286.847656 437.066406 L 285.378906 437.433594 L 282.566406 437.671875 L 282.285156 437.789063 L 282.164063 437.605469 L 282.484375 436.070313 L 286.839844 437.054688 Z M 224.046875 472.015625 L 223.898438 471.320313 L 223.8125 469.511719 L 223.542969 468.507813 L 227.316406 466.367188 L 232.550781 467.761719 L 234.171875 469.894531 L 231.242188 473.621094 L 229.960938 474.269531 L 228.117188 474.644531 Z M 174.1875 317.238281 L 174.566406 316.476563 L 175.816406 315.195313 L 177.398438 314.351563 L 179.160156 314.03125 L 180.933594 314.261719 L 182.554688 315.023438 L 183.871094 316.238281 L 185.070313 317.757813 L 185.902344 319.1875 L 185.941406 319.355469 L 184.742188 320.527344 L 179.199219 323.441406 L 177.335938 322.691406 Z M 172.539063 248.039063 L 170.625 248.046875 L 168.808594 247.433594 L 167.292969 246.265625 L 166.238281 244.667969 L 165.761719 242.816406 L 165.910156 240.90625 L 166.667969 239.152344 L 166.710938 239.105469 L 166.738281 239.222656 L 168.246094 240.195313 L 178.0625 241.875 L 182.921875 243.167969 L 185.121094 242.257813 L 185.121094 242.285156 L 184.886719 243.953125 L 184.179688 245.484375 L 183.066406 246.746094 L 181.636719 247.636719 L 180.007813 248.082031 L 178.324219 248.039063 L 175.429688 247.542969 Z M 167.679688 238.042969 L 167.957031 237.738281 L 169.582031 236.460938 L 170.859375 234.835938 L 172.457031 233.433594 L 174.453125 232.699219 L 178.308594 232.039063 L 179.988281 232 L 181.605469 232.4375 L 183.03125 233.320313 L 183.417969 233.757813 L 181.046875 235.800781 L 180.578125 237.003906 L 174.761719 240.109375 L 170.214844 238.117188 Z M 236.835938 466.113281 L 235.136719 465.644531 L 236.523438 463.683594 L 237.195313 464.164063 L 237.5 465.839844 Z M 236.835938 466.113281 "/>
<path style=" stroke:none;fill-rule:nonzero;fill:rgb(80.392157%,58.431373%,4.705882%);fill-opacity:1;" d="M 192.875 397.382813 L 192.59375 399.183594 L 191.765625 400.804688 L 190.480469 402.089844 L 188.859375 402.914063 L 187.0625 403.199219 L 185.265625 402.914063 L 183.644531 402.089844 L 182.355469 400.804688 L 181.53125 399.183594 L 181.246094 397.382813 L 181.53125 395.585938 L 182.355469 393.964844 L 183.644531 392.679688 L 185.265625 391.855469 L 187.0625 391.570313 L 188.859375 391.855469 L 190.480469 392.679688 L 191.765625 393.964844 L 192.59375 395.585938 Z M 192.875 397.382813 "/>
<path style=" stroke:none;fill-rule:nonzero;fill:rgb(80.392157%,58.431373%,4.705882%);fill-opacity:1;" d="M 204.507813 319.847656 L 204.222656 321.644531 L 203.398438 323.265625 L 202.109375 324.550781 L 200.488281 325.375 L 198.691406 325.660156 L 196.894531 325.375 L 195.273438 324.550781 L 193.988281 323.265625 L 193.160156 321.644531 L 192.875 319.847656 L 193.160156 318.050781 L 193.988281 316.429688 L 195.273438 315.140625 L 196.894531 314.316406 L 198.691406 314.03125 L 200.488281 314.316406 L 202.109375 315.140625 L 203.398438 316.429688 L 204.222656 318.050781 Z M 204.507813 319.847656 "/>
<path style=" stroke:none;fill-rule:nonzero;fill:rgb(80.392157%,58.431373%,4.705882%);fill-opacity:1;" d="M 169.617188 188.03125 L 169.332031 189.828125 L 168.503906 191.449219 L 167.21875 192.734375 L 165.597656 193.5625 L 163.800781 193.847656 L 162.003906 193.5625 L 160.382813 192.734375 L 159.09375 191.449219 L 158.269531 189.828125 L 157.984375 188.03125 L 158.269531 186.234375 L 159.09375 184.613281 L 160.382813 183.324219 L 162.003906 182.5 L 163.800781 182.214844 L 165.597656 182.5 L 167.21875 183.324219 L 168.503906 184.613281 L 169.332031 186.234375 Z M 169.617188 188.03125 "/>
<path style=" stroke:none;fill-rule:nonzero;fill:rgb(80.392157%,58.431373%,4.705882%);fill-opacity:1;" d="M 204.507813 257.816406 L 204.222656 259.613281 L 203.398438 261.234375 L 202.109375 262.519531 L 200.488281 263.347656 L 198.691406 263.628906 L 196.894531 263.347656 L 195.273438 262.519531 L 193.988281 261.234375 L 193.160156 259.613281 L 192.875 257.816406 L 193.160156 256.019531 L 193.988281 254.398438 L 195.273438 253.109375 L 196.894531 252.285156 L 198.691406 252 L 200.488281 252.285156 L 202.109375 253.109375 L 203.398438 254.398438 L 204.222656 256.019531 Z M 204.507813 257.816406 "/>
<path style=" stroke:none;fill-rule:nonzero;fill:rgb(80.392157%,58.431373%,4.705882%);fill-opacity:1;" d="M 200.628906 354.738281 L 200.347656 356.535156 L 199.519531 358.15625 L 198.234375 359.441406 L 196.613281 360.269531 L 194.816406 360.554688 L 193.019531 360.269531 L 191.398438 359.441406 L 190.109375 358.15625 L 189.285156 356.535156 L 189.273438 356.476563 L 190.335938 355.148438 L 189.90625 355.050781 L 189.097656 355.363281 L 189 354.738281 L 189.285156 352.941406 L 190.109375 351.320313 L 191.398438 350.035156 L 193.019531 349.207031 L 194.816406 348.921875 L 196.613281 349.207031 L 198.234375 350.035156 L 199.519531 351.320313 L 200.347656 352.941406 Z M 200.628906 354.738281 "/>
<path style=" stroke:none;fill-rule:nonzero;fill:rgb(80.392157%,58.431373%,4.705882%);fill-opacity:1;" d="M 154.109375 172.523438 L 153.824219 174.320313 L 152.996094 175.941406 L 151.710938 177.226563 L 150.089844 178.054688 L 148.292969 178.339844 L 146.496094 178.054688 L 144.875 177.226563 L 143.585938 175.941406 L 142.761719 174.320313 L 142.476563 172.523438 L 142.761719 170.726563 L 143.585938 169.105469 L 144.875 167.816406 L 146.496094 166.992188 L 148.292969 166.707031 L 150.089844 166.992188 L 151.710938 167.816406 L 152.996094 169.105469 L 153.367188 169.832031 L 152.441406 170.8125 L 151.949219 171.945313 L 152.140625 172.144531 L 153.808594 170.695313 L 153.824219 170.726563 Z M 154.109375 172.523438 "/>
<path style=" stroke:none;fill-rule:nonzero;fill:rgb(80.392157%,58.431373%,4.705882%);fill-opacity:1;" d="M 300.695313 446.59375 L 300.320313 447.324219 L 299.035156 448.613281 L 297.414063 449.4375 L 295.617188 449.722656 L 293.816406 449.4375 L 292.195313 448.613281 L 290.910156 447.324219 L 290.085938 445.703125 L 289.800781 443.90625 L 290.085938 442.109375 L 290.910156 440.488281 L 292.195313 439.203125 L 293.28125 438.652344 L 296.414063 438.21875 L 297.414063 438.375 L 299.035156 439.203125 L 300.320313 440.488281 L 300.933594 441.695313 L 300.773438 446.324219 Z M 300.695313 446.59375 "/>
<path style=" stroke:none;fill-rule:nonzero;fill:rgb(80.392157%,58.431373%,4.705882%);fill-opacity:1;" d="M 196.683594 424.960938 L 196.46875 426.320313 L 195.644531 427.941406 L 194.355469 429.226563 L 192.734375 430.054688 L 192.355469 430.113281 L 195.792969 425.3125 Z M 190.335938 430.242188 L 189.140625 430.054688 L 187.519531 429.226563 L 186.234375 427.941406 L 185.40625 426.320313 L 185.125 424.523438 L 185.40625 422.726563 L 186.234375 421.105469 L 187.519531 419.816406 L 189.140625 418.992188 L 190.9375 418.707031 L 192.734375 418.992188 L 194.355469 419.816406 L 195.644531 421.105469 L 196.46875 422.726563 L 196.660156 423.9375 L 196.09375 424.355469 L 192.90625 427.300781 L 190.570313 429.988281 Z M 190.335938 430.242188 "/>
<path style=" stroke:none;fill-rule:nonzero;fill:rgb(80.392157%,58.431373%,4.705882%);fill-opacity:1;" d="M 161.863281 157.015625 L 161.578125 158.8125 L 161.011719 159.921875 L 159.644531 160.289063 L 156.839844 159.359375 L 153.464844 157.734375 L 154.464844 159.796875 L 155.875 160.457031 L 159.707031 161.476563 L 159.464844 161.71875 L 157.84375 162.546875 L 156.046875 162.832031 L 154.25 162.546875 L 152.628906 161.71875 L 151.339844 160.433594 L 150.515625 158.8125 L 150.230469 157.015625 L 150.515625 155.21875 L 151.339844 153.597656 L 152.628906 152.3125 L 154.25 151.484375 L 156.046875 151.199219 L 157.84375 151.484375 L 159.464844 152.3125 L 160.75 153.597656 L 161.578125 155.21875 Z M 161.863281 157.015625 "/>
<path style=" stroke:none;fill-rule:nonzero;fill:rgb(80.392157%,58.431373%,4.705882%);fill-opacity:1;" d="M 223.003906 284.058594 L 222.78125 284.496094 L 221.496094 285.78125 L 219.875 286.609375 L 218.078125 286.890625 L 216.28125 286.609375 L 214.660156 285.78125 L 213.371094 284.496094 L 212.546875 282.875 L 212.261719 281.078125 L 212.546875 279.28125 L 213.371094 277.660156 L 214.660156 276.371094 L 216.28125 275.546875 L 218.078125 275.261719 L 219.875 275.546875 L 219.992188 275.605469 L 220.40625 277.574219 L 221.269531 280.457031 L 222.984375 284.039063 Z M 223.003906 284.058594 "/>
<path style=" stroke:none;fill-rule:nonzero;fill:rgb(80.392157%,58.431373%,4.705882%);fill-opacity:1;" d="M 192.820313 227.164063 L 192.59375 228.597656 L 191.765625 230.21875 L 190.480469 231.503906 L 188.859375 232.332031 L 187.746094 232.507813 L 187.070313 232.078125 L 185.40625 232.042969 L 185.144531 232.269531 L 183.644531 231.503906 L 182.355469 230.21875 L 181.53125 228.597656 L 181.246094 226.800781 L 181.53125 225.003906 L 181.953125 224.171875 L 184.609375 222.886719 L 186.457031 221.386719 L 187.289063 221.316406 L 189.085938 221.875 L 189.332031 222.921875 L 188.898438 224.691406 L 189.238281 225.953125 L 190.898438 226.824219 Z M 192.820313 227.164063 "/>
<path style=" stroke:none;fill-rule:nonzero;fill:rgb(80.392157%,58.431373%,4.705882%);fill-opacity:1;" d="M 188.9375 224.535156 L 188.859375 224.578125 L 187.0625 224.863281 L 185.265625 224.578125 L 183.644531 223.75 L 183.375 223.484375 L 184.609375 222.886719 L 186.457031 221.386719 L 187.289063 221.316406 L 189.085938 221.875 L 189.332031 222.921875 Z M 182.046875 221.859375 L 181.53125 220.84375 L 181.246094 219.046875 L 181.53125 217.25 L 182.355469 215.628906 L 183.644531 214.339844 L 185.265625 213.515625 L 187.0625 213.230469 L 188.859375 213.515625 L 190.480469 214.339844 L 191.765625 215.628906 L 192.59375 217.25 L 192.78125 218.449219 L 191.214844 219.742188 L 185.519531 221.085938 L 182.847656 221.226563 Z M 182.046875 221.859375 "/>
<path style=" stroke:none;fill-rule:nonzero;fill:rgb(80.392157%,58.431373%,4.705882%);fill-opacity:1;" d="M 161.863281 381.875 L 161.578125 383.675781 L 160.75 385.296875 L 159.464844 386.582031 L 157.84375 387.40625 L 156.046875 387.691406 L 154.25 387.40625 L 152.628906 386.582031 L 152.574219 386.527344 L 153.179688 384.597656 L 154.652344 381.796875 L 152.269531 378.203125 L 152.363281 377.4375 L 152.628906 377.171875 L 154.25 376.347656 L 156.046875 376.0625 L 157.84375 376.347656 L 159.464844 377.171875 L 160.75 378.457031 L 161.578125 380.078125 Z M 161.863281 381.875 "/>
<path style=" stroke:none;fill-rule:nonzero;fill:rgb(80.392157%,58.431373%,4.705882%);fill-opacity:1;" d="M 154.109375 424.523438 L 153.824219 426.320313 L 152.996094 427.941406 L 151.710938 429.226563 L 150.089844 430.054688 L 148.292969 430.339844 L 147.019531 430.136719 L 146.917969 429.308594 L 148.539063 428.378906 L 150.066406 428.890625 L 151.640625 428.421875 L 152.765625 427.832031 L 153.085938 427.097656 L 152.808594 426.597656 L 147.785156 426.460938 L 143.210938 423.710938 L 142.605469 423.710938 L 142.761719 422.726563 L 143.585938 421.105469 L 144.875 419.816406 L 146.496094 418.992188 L 148.292969 418.707031 L 150.089844 418.992188 L 151.710938 419.816406 L 152.996094 421.105469 L 153.824219 422.726563 Z M 154.109375 424.523438 "/>
<path style=" stroke:none;fill-rule:nonzero;fill:rgb(80.392157%,58.431373%,4.705882%);fill-opacity:1;" d="M 189 343.109375 L 188.714844 344.90625 L 187.890625 346.527344 L 186.601563 347.8125 L 184.980469 348.636719 L 183.183594 348.921875 L 181.386719 348.636719 L 180.933594 348.40625 L 179.976563 346.332031 L 183.371094 340.257813 L 185.429688 339.015625 L 185.140625 338.578125 L 182.683594 338.460938 L 181.851563 337.503906 L 183.183594 337.292969 L 184.980469 337.578125 L 186.601563 338.402344 L 187.890625 339.691406 L 188.714844 341.3125 Z M 189 343.109375 "/>
<path style=" stroke:none;fill-rule:nonzero;fill:rgb(80.392157%,58.431373%,4.705882%);fill-opacity:1;" d="M 229.835938 41.203125 L 228.878906 40.25 L 228.054688 38.628906 L 227.769531 36.832031 L 227.789063 36.695313 L 228.363281 36.574219 L 229.761719 37.023438 L 229.984375 39.984375 Z M 233.101563 38.984375 L 230.96875 38.972656 L 230.324219 38.394531 L 230.816406 33.792969 L 232.058594 31.609375 L 233.582031 31.753906 L 234.398438 32.242188 L 234.613281 32.71875 Z M 233.101563 38.984375 "/>
</g>
</svg>
