<?xml version="1.0" encoding="UTF-8"?>
<svg xmlns="http://www.w3.org/2000/svg" xmlns:xlink="http://www.w3.org/1999/xlink" width="378pt" height="504pt" viewBox="0 0 378 504" version="1.1">
<g id="data">
<rect x="0" y="0" width="378" height="504" style="fill:rgb(100%,100%,100%);fill-opacity:1;stroke:none;"/>
<path style=" stroke:none;fill-rule:nonzero;fill:rgb(100%,100%,100%);fill-opacity:1;" d="M 53.308594 504 L 324.691406 504 L 324.691406 0 L 53.308594 0 Z M 53.308594 504 "/>
<path style=" stroke:none;fill-rule:nonzero;fill:rgb(22.745098%,53.333333%,16.078431%);fill-opacity:1;" d="M 293.121094 372.351563 L 294.753906 373.027344 L 296.105469 374.160156 L 297.058594 375.652344 L 297.910156 377.578125 L 298.753906 378.671875 L 299.929688 379.589844 L 301.839844 380.433594 L 303.558594 381.597656 L 304.757813 383.289063 L 305.8125 385.539063 L 306.898438 386.761719 L 307.179688 391.25 L 306.777344 393.191406 L 306.890625 393.976563 L 305.789063 396.917969 L 303.519531 407.832031 L 297.144531 414.53125 L 295.578125 412.011719 L 292.742188 410.515625 L 292.480469 410.636719 L 293.898438 413.703125 L 295.890625 416.628906 L 296.3125 416.765625 L 296.164063 417.742188 L 295.472656 418.636719 L 294.519531 418.605469 L 292.824219 417.996094 L 291.398438 416.898438 L 290.375 415.414063 L 289.007813 412.578125 L 287.5 411.152344 L 285.582031 410.359375 L 283.261719 410.296875 L 278.5625 411.53125 L 277.601563 412.097656 L 276.28125 413.300781 L 274.492188 414.421875 L 272.417969 414.832031 L 267.296875 414.886719 L 265.136719 415.515625 L 264.328125 416.011719 L 263.488281 416.789063 L 262.808594 417.730469 L 262.128906 419.191406 L 261.097656 420.726563 L 259.632813 421.859375 L 257.886719 422.472656 L 256.035156 422.507813 L 254.265625 421.960938 L 252.761719 420.882813 L 251.667969 419.386719 L 251.105469 417.625 L 251.121094 415.773438 L 251.632813 412.753906 L 251.0625 408.179688 L 251.105469 406.441406 L 251.664063 404.792969 L 252.683594 403.382813 L 254.074219 402.339844 L 256.429688 401.070313 L 258.058594 399.433594 L 258.570313 398.542969 L 258.960938 397.304688 L 259.066406 396.136719 L 258.828125 394.222656 L 258.890625 392.398438 L 259.519531 390.679688 L 260.648438 389.242188 L 262.167969 388.226563 L 263.644531 387.542969 L 264.527344 386.914063 L 265.277344 386.132813 L 265.734375 385.429688 L 266.46875 383.113281 L 266.539063 377.921875 L 266.574219 377.738281 L 266.9375 378.226563 L 270.21875 378.804688 L 270.625 378.746094 L 271.910156 376.796875 L 272.234375 374.960938 L 273.40625 371.914063 L 274.707031 370.632813 L 277.851563 370.085938 L 283.34375 370.234375 L 284.253906 370.867188 L 286.703125 370.742188 L 289.210938 371.011719 L 289.285156 371.078125 L 290.335938 371.667969 Z M 252.988281 355.179688 L 251.34375 356.222656 L 249.449219 356.664063 L 247.511719 356.457031 L 245.785156 355.96875 L 244.121094 355.84375 L 242.222656 355.371094 L 240.589844 354.296875 L 239.40625 352.742188 L 238.804688 350.882813 L 238.851563 348.929688 L 239.492188 345.65625 L 239.402344 343.328125 L 239.59375 341.621094 L 240.273438 340.042969 L 241.382813 338.734375 L 242.828125 337.804688 L 244.480469 337.339844 L 246.199219 337.375 L 249.09375 337.871094 L 251.984375 337.375 L 252.96875 337.292969 L 256.847656 337.292969 L 258.574219 337.554688 L 260.144531 338.316406 L 260.773438 338.90625 L 263.316406 342.46875 L 263.640625 343.980469 L 262.804688 345.191406 L 263.28125 343.65625 L 262.507813 342.839844 L 260.445313 342 L 258.378906 342.789063 L 257.507813 342.753906 L 256.035156 341.773438 L 253.664063 338.65625 L 252.601563 338.082031 L 245.550781 339.511719 L 244.589844 338.644531 L 243.40625 338.558594 L 241.210938 339.871094 L 241.886719 340.445313 L 246.324219 340.394531 L 249.617188 339.34375 L 251.976563 339.082031 L 254.382813 342.558594 L 260.535156 347.621094 L 263.042969 349.058594 L 263.664063 349.039063 L 265.027344 350.855469 L 263.746094 351.953125 L 262.023438 352.652344 L 260.164063 352.773438 L 257.792969 352.546875 L 256.242188 352.824219 L 254.839844 353.511719 Z M 225.917969 366.746094 L 224.425781 367.757813 L 222.695313 368.261719 L 220.890625 368.210938 L 219.191406 367.609375 L 217.753906 366.515625 L 216.726563 365.035156 L 216.195313 363.3125 L 216.222656 361.507813 L 216.734375 358.53125 L 216.214844 354.902344 L 216.242188 353.085938 L 216.828125 351.367188 L 217.917969 349.910156 L 219.402344 348.863281 L 221.136719 348.324219 L 222.949219 348.347656 L 226.808594 349.007813 L 229.230469 350.019531 L 230.773438 351.128906 L 231.796875 351.570313 L 234.660156 351.96875 L 236.273438 352.433594 L 237.6875 353.34375 L 238.78125 354.621094 L 239.464844 356.15625 L 239.679688 357.820313 L 239.410156 359.480469 L 239.128906 360.367188 L 238.242188 362.097656 L 236.832031 363.4375 L 235.058594 364.242188 L 233.121094 364.414063 L 230.46875 364.199219 L 228.65625 364.621094 L 227.535156 365.238281 Z M 233.867188 433.675781 L 233.011719 435.152344 L 231.761719 436.316406 L 230.230469 437.066406 L 228.542969 437.339844 L 226.851563 437.113281 L 225.296875 436.402344 L 224.019531 435.273438 L 221.382813 432.148438 L 220.367188 430.394531 L 220.015625 428.398438 L 220.015625 424.523438 L 220.292969 422.753906 L 221.09375 421.148438 L 222.34375 419.867188 L 223.929688 419.027344 L 225.691406 418.710938 L 227.46875 418.941406 L 229.089844 419.707031 L 230.402344 420.929688 L 231.679688 422.550781 L 233.300781 423.828125 L 234.558594 425.195313 L 235.324219 426.886719 L 235.511719 428.734375 L 235.113281 430.550781 Z M 211.503906 396.378906 L 210.308594 397.855469 L 208.703125 398.867188 L 206.855469 399.308594 L 204.960938 399.128906 L 203.230469 398.351563 L 201.839844 397.054688 L 200.941406 395.382813 L 200.628906 393.507813 L 200.628906 389.628906 L 200.96875 387.675781 L 201.949219 385.945313 L 203.449219 384.648438 L 205.300781 383.929688 L 207.285156 383.875 L 209.316406 384.171875 L 211.105469 384.738281 L 212.617188 385.84375 L 213.703125 387.371094 L 214.242188 389.167969 L 214.183594 391.039063 L 213.535156 392.796875 Z M 211.503906 396.378906 "/>
<path style=" stroke:none;fill-rule:nonzero;fill:rgb(80.392157%,58.431373%,4.705882%);fill-opacity:1;" d="M 247.152344 393.507813 L 246.871094 395.304688 L 246.042969 396.925781 L 244.757813 398.210938 L 243.136719 399.039063 L 241.339844 399.324219 L 239.542969 399.039063 L 237.921875 398.210938 L 236.632813 396.925781 L 235.808594 395.304688 L 235.523438 393.507813 L 235.808594 391.710938 L 236.632813 390.089844 L 237.921875 388.804688 L 239.542969 387.976563 L 241.339844 387.691406 L 243.136719 387.976563 L 244.757813 388.804688 L 246.042969 390.089844 L 246.871094 391.710938 Z M 247.152344 393.507813 "/>
<path style=" stroke:none;fill-rule:nonzero;fill:rgb(80.392157%,58.431373%,4.705882%);fill-opacity:1;" d="M 220.015625 343.109375 L 219.730469 344.90625 L 218.90625 346.527344 L 217.617188 347.8125 L 215.996094 348.636719 L 214.199219 348.921875 L 212.402344 348.636719 L 210.78125 347.8125 L 209.496094 346.527344 L 208.667969 344.90625 L 208.382813 343.109375 L 208.667969 341.3125 L 209.496094 339.691406 L 210.78125 338.402344 L 212.402344 337.578125 L 214.199219 337.292969 L 215.996094 337.578125 L 217.617188 338.402344 L 218.90625 339.691406 L 219.730469 341.3125 Z M 220.015625 343.109375 "/>
<path style=" stroke:none;fill-rule:nonzero;fill:rgb(80.392157%,58.431373%,4.705882%);fill-opacity:1;" d="M 247.152344 319.847656 L 246.871094 321.644531 L 246.042969 323.265625 L 244.757813 324.550781 L 243.136719 325.375 L 241.339844 325.660156 L 239.542969 325.375 L 237.921875 324.550781 L 236.632813 323.265625 L 235.808594 321.644531 L 235.523438 319.847656 L 235.808594 318.050781 L 236.632813 316.429688 L 237.921875 315.140625 L 239.542969 314.316406 L 241.339844 314.03125 L 243.136719 314.316406 L 244.757813 315.140625 L 246.042969 316.429688 L 246.871094 318.050781 Z M 247.152344 319.847656 "/>
<path style=" stroke:none;fill-rule:nonzero;fill:rgb(80.392157%,58.431373%,4.705882%);fill-opacity:1;" d="M 251.03125 319.847656 L 250.746094 321.644531 L 249.921875 323.265625 L 248.632813 324.550781 L 247.011719 325.375 L 245.214844 325.660156 L 243.417969 325.375 L 241.796875 324.550781 L 240.511719 323.265625 L 239.683594 321.644531 L 239.398438 319.847656 L 239.683594 318.050781 L 240.511719 316.429688 L 241.796875 315.140625 L 243.417969 314.316406 L 245.214844 314.03125 L 247.011719 314.316406 L 248.632813 315.140625 L 249.921875 316.429688 L 250.746094 318.050781 Z M 251.03125 319.847656 "/>
<path style=" stroke:none;fill-rule:nonzero;fill:rgb(80.392157%,58.431373%,4.705882%);fill-opacity:1;" d="M 247.152344 397.382813 L 246.871094 399.183594 L 246.042969 400.804688 L 244.757813 402.089844 L 243.136719 402.914063 L 241.339844 403.199219 L 239.542969 402.914063 L 237.921875 402.089844 L 236.632813 400.804688 L 235.808594 399.183594 L 235.523438 397.382813 L 235.808594 395.585938 L 236.632813 393.964844 L 237.921875 392.679688 L 239.542969 391.855469 L 241.339844 391.570313 L 243.136719 391.855469 L 244.757813 392.679688 L 246.042969 393.964844 L 246.871094 395.585938 Z M 247.152344 397.382813 "/>
<path style=" stroke:none;fill-rule:nonzero;fill:rgb(80.392157%,58.431373%,4.705882%);fill-opacity:1;" d="M 251.03125 447.785156 L 250.746094 449.582031 L 249.921875 451.203125 L 248.632813 452.488281 L 247.011719 453.316406 L 245.214844 453.601563 L 243.417969 453.316406 L 241.796875 452.488281 L 240.511719 451.203125 L 239.683594 449.582031 L 239.398438 447.785156 L 239.683594 445.988281 L 240.511719 444.367188 L 241.796875 443.078125 L 243.417969 442.253906 L 245.214844 441.96875 L 247.011719 442.253906 L 248.632813 443.078125 L 249.921875 444.367188 L 250.746094 445.988281 Z M 251.03125 447.785156 "/>
<path style=" stroke:none;fill-rule:nonzero;fill:rgb(80.392157%,58.431373%,4.705882%);fill-opacity:1;" d="M 258.785156 436.152344 L 258.5 437.949219 L 257.675781 439.570313 L 256.386719 440.859375 L 254.765625 441.683594 L 252.96875 441.96875 L 251.171875 441.683594 L 249.550781 440.859375 L 248.265625 439.570313 L 247.4375 437.949219 L 247.152344 436.152344 L 247.4375 434.355469 L 248.265625 432.734375 L 249.550781 431.449219 L 251.171875 430.625 L 252.96875 430.339844 L 254.765625 430.625 L 256.386719 431.449219 L 257.675781 432.734375 L 258.5 434.355469 Z M 258.785156 436.152344 "/>
<path style=" stroke:none;fill-rule:nonzero;fill:rgb(80.392157%,58.431373%,4.705882%);fill-opacity:1;" d="M 157.984375 246.183594 L 157.699219 247.980469 L 156.875 249.601563 L 155.585938 250.890625 L 153.964844 251.714844 L 152.167969 252 L 150.371094 251.714844 L 148.75 250.890625 L 147.464844 249.601563 L 146.636719 247.980469 L 146.355469 246.183594 L 146.636719 244.386719 L 147.234375 243.214844 L 148.300781 243.253906 L 147.398438 242.894531 L 147.464844 242.765625 L 148.75 241.480469 L 150.371094 240.652344 L 152.167969 240.371094 L 153.964844 240.652344 L 155.585938 241.480469 L 156.875 242.765625 L 157.699219 244.386719 Z M 157.984375 246.183594 "/>
<path style=" stroke:none;fill-rule:nonzero;fill:rgb(80.392157%,58.431373%,4.705882%);fill-opacity:1;" d="M 177.371094 238.429688 L 177.320313 238.746094 L 174.761719 240.109375 L 170.214844 238.117188 L 166.480469 238.003906 L 166.738281 239.222656 L 168.246094 240.195313 L 176.390625 241.589844 L 176.257813 241.847656 L 174.972656 243.136719 L 173.351563 243.960938 L 171.554688 244.246094 L 169.757813 243.960938 L 168.136719 243.136719 L 166.847656 241.847656 L 166.023438 240.226563 L 165.738281 238.429688 L 166.023438 236.632813 L 166.847656 235.011719 L 168.136719 233.726563 L 169.757813 232.898438 L 171.554688 232.617188 L 173.351563 232.898438 L 174.972656 233.726563 L 176.257813 235.011719 L 177.085938 236.632813 Z M 177.371094 238.429688 "/>
<path style=" stroke:none;fill-rule:nonzero;fill:rgb(80.392157%,58.431373%,4.705882%);fill-opacity:1;" d="M 171.015625 439.859375 L 170.726563 439.570313 L 169.898438 437.949219 L 169.617188 436.152344 L 169.898438 434.355469 L 170.726563 432.734375 L 172.011719 431.449219 L 173.632813 430.625 L 175.429688 430.339844 L 177.226563 430.625 L 178.847656 431.449219 L 180.136719 432.734375 L 180.761719 433.960938 L 178.394531 435.230469 L 177.398438 436.808594 L 177.039063 438.671875 L 176.445313 439.273438 L 174.058594 439.917969 Z M 171.015625 439.859375 "/>
</g>
</svg>
