<?xml version="1.0" encoding="UTF-8"?>
<svg xmlns="http://www.w3.org/2000/svg" xmlns:xlink="http://www.w3.org/1999/xlink" width="378pt" height="504pt" viewBox="0 0 378 504" version="1.1">
<g id="data">
<rect x="0" y="0" width="378" height="504" style="fill:rgb(100%,100%,100%);fill-opacity:1;stroke:none;"/>
<path style=" stroke:none;fill-rule:nonzero;fill:rgb(100%,100%,100%);fill-opacity:1;" d="M 53.308594 504 L 324.691406 504 L 324.691406 0 L 53.308594 0 Z M 53.308594 504 "/>
<path style=" stroke:none;fill-rule:nonzero;fill:rgb(22.745098%,53.333333%,16.078431%);fill-opacity:1;" d="M 291.738281 378 L 292.683594 380.242188 L 293.992188 382.140625 L 296.480469 384.34375 L 299.492188 385.753906 L 300.628906 388.328125 L 302.351563 390.554688 L 304.671875 392.371094 L 306.792969 393.308594 L 306.890625 393.976563 L 305.789063 396.917969 L 304.285156 404.15625 L 303.371094 405.136719 L 302.359375 407.492188 L 300.863281 409.566406 L 298.410156 411.621094 L 296.011719 412.710938 L 295.578125 412.011719 L 295.058594 411.738281 L 293.78125 409.085938 L 290.710938 406.1875 L 286.808594 404.574219 L 284.636719 404.324219 L 282.457031 404.480469 L 276.316406 406.109375 L 274.128906 407.390625 L 272.355469 409.015625 L 266.433594 409.078125 L 262.765625 410.152344 L 260.800781 411.351563 L 259.113281 412.914063 L 257.765625 414.777344 L 256.851563 416.75 L 257.511719 412.882813 L 256.832031 407.457031 L 259.941406 405.785156 L 262.722656 402.992188 L 263.925781 400.890625 L 264.695313 398.453125 L 264.914063 396.039063 L 264.601563 393.507813 L 266.574219 392.597656 L 268.347656 391.335938 L 269.851563 389.765625 L 271.039063 387.941406 L 272.273438 384.050781 L 272.355469 378 L 273.828125 376.429688 L 275.042969 374.496094 L 275.855469 372.367188 L 276.207031 370.371094 L 276.339844 370.347656 L 277.804688 371.71875 L 279.734375 372.933594 L 281.863281 373.75 L 283.984375 374.125 L 285.964844 375.898438 L 288.179688 377.128906 Z M 245.214844 343.109375 L 249.09375 343.773438 L 252.96875 343.109375 L 255.050781 343.109375 L 259.632813 346.878906 L 257.550781 346.679688 L 254.417969 347.246094 L 251.445313 348.714844 L 249.09375 350.863281 L 246.804688 350.214844 L 244.558594 350.046875 L 245.328125 346.113281 Z M 221.953125 362.492188 L 222.617188 358.617188 L 221.972656 354.078125 L 225.832031 354.738281 L 227.890625 356.222656 L 230.226563 357.222656 L 233.863281 357.726563 L 233.585938 358.617188 L 230.03125 358.332031 L 226.558594 359.140625 L 224.097656 360.492188 Z M 228.464844 431.527344 L 225.832031 428.398438 L 225.832031 424.523438 L 227.539063 426.691406 L 229.707031 428.398438 Z M 206.445313 393.507813 L 206.445313 389.628906 L 208.476563 389.925781 Z M 206.445313 393.507813 "/>
<path style=" stroke:none;fill-rule:nonzero;fill:rgb(80.392157%,58.431373%,4.705882%);fill-opacity:1;" d="M 247.152344 393.507813 L 246.871094 395.304688 L 246.042969 396.925781 L 244.757813 398.210938 L 243.136719 399.039063 L 241.339844 399.324219 L 239.542969 399.039063 L 237.921875 398.210938 L 236.632813 396.925781 L 235.808594 395.304688 L 235.523438 393.507813 L 235.808594 391.710938 L 236.632813 390.089844 L 237.921875 388.804688 L 239.542969 387.976563 L 241.339844 387.691406 L 243.136719 387.976563 L 244.757813 388.804688 L 246.042969 390.089844 L 246.871094 391.710938 Z M 247.152344 393.507813 "/>
<path style=" stroke:none;fill-rule:nonzero;fill:rgb(80.392157%,58.431373%,4.705882%);fill-opacity:1;" d="M 251.03125 319.847656 L 250.746094 321.644531 L 249.921875 323.265625 L 248.632813 324.550781 L 247.011719 325.375 L 245.214844 325.660156 L 243.417969 325.375 L 241.796875 324.550781 L 240.511719 323.265625 L 239.683594 321.644531 L 239.398438 319.847656 L 239.683594 318.050781 L 240.511719 316.429688 L 241.796875 315.140625 L 243.417969 314.316406 L 245.214844 314.03125 L 247.011719 314.316406 L 248.632813 315.140625 L 249.921875 316.429688 L 250.746094 318.050781 Z M 251.03125 319.847656 "/>
<path style=" stroke:none;fill-rule:nonzero;fill:rgb(80.392157%,58.431373%,4.705882%);fill-opacity:1;" d="M 223.890625 385.753906 L 223.609375 387.550781 L 222.78125 389.171875 L 221.496094 390.457031 L 219.875 391.285156 L 218.078125 391.570313 L 216.28125 391.285156 L 214.660156 390.457031 L 213.371094 389.171875 L 212.546875 387.550781 L 212.261719 385.753906 L 212.546875 383.957031 L 213.371094 382.335938 L 214.660156 381.050781 L 216.28125 380.222656 L 218.078125 379.9375 L 219.875 380.222656 L 221.496094 381.050781 L 222.78125 382.335938 L 223.609375 383.957031 Z M 223.890625 385.753906 "/>
<path style=" stroke:none;fill-rule:nonzero;fill:rgb(80.392157%,58.431373%,4.705882%);fill-opacity:1;" d="M 247.152344 319.847656 L 246.871094 321.644531 L 246.042969 323.265625 L 244.757813 324.550781 L 243.136719 325.375 L 241.339844 325.660156 L 239.542969 325.375 L 237.921875 324.550781 L 236.632813 323.265625 L 235.808594 321.644531 L 235.523438 319.847656 L 235.808594 318.050781 L 236.632813 316.429688 L 237.921875 315.140625 L 239.542969 314.316406 L 241.339844 314.03125 L 243.136719 314.316406 L 244.757813 315.140625 L 246.042969 316.429688 L 246.871094 318.050781 Z M 247.152344 319.847656 "/>
<path style=" stroke:none;fill-rule:nonzero;fill:rgb(80.392157%,58.431373%,4.705882%);fill-opacity:1;" d="M 220.015625 343.109375 L 219.730469 344.90625 L 218.90625 346.527344 L 217.617188 347.8125 L 215.996094 348.636719 L 214.199219 348.921875 L 212.402344 348.636719 L 210.78125 347.8125 L 209.496094 346.527344 L 208.667969 344.90625 L 208.382813 343.109375 L 208.667969 341.3125 L 209.496094 339.691406 L 210.78125 338.402344 L 212.402344 337.578125 L 214.199219 337.292969 L 215.996094 337.578125 L 217.617188 338.402344 L 218.90625 339.691406 L 219.730469 341.3125 Z M 220.015625 343.109375 "/>
<path style=" stroke:none;fill-rule:nonzero;fill:rgb(80.392157%,58.431373%,4.705882%);fill-opacity:1;" d="M 247.152344 397.382813 L 246.871094 399.183594 L 246.042969 400.804688 L 244.757813 402.089844 L 243.136719 402.914063 L 241.339844 403.199219 L 239.542969 402.914063 L 237.921875 402.089844 L 236.632813 400.804688 L 235.808594 399.183594 L 235.523438 397.382813 L 235.808594 395.585938 L 236.632813 393.964844 L 237.921875 392.679688 L 239.542969 391.855469 L 241.339844 391.570313 L 243.136719 391.855469 L 244.757813 392.679688 L 246.042969 393.964844 L 246.871094 395.585938 Z M 247.152344 397.382813 "/>
<path style=" stroke:none;fill-rule:nonzero;fill:rgb(80.392157%,58.431373%,4.705882%);fill-opacity:1;" d="M 235.523438 440.03125 L 235.238281 441.828125 L 234.414063 443.449219 L 233.125 444.734375 L 231.503906 445.5625 L 229.707031 445.847656 L 227.910156 445.5625 L 226.289063 444.734375 L 225.003906 443.449219 L 224.175781 441.828125 L 223.890625 440.03125 L 224.175781 438.234375 L 225.003906 436.613281 L 226.289063 435.324219 L 227.910156 434.5 L 229.707031 434.214844 L 231.503906 434.5 L 233.125 435.324219 L 234.414063 436.613281 L 235.238281 438.234375 Z M 235.523438 440.03125 "/>
<path style=" stroke:none;fill-rule:nonzero;fill:rgb(80.392157%,58.431373%,4.705882%);fill-opacity:1;" d="M 251.03125 447.785156 L 250.746094 449.582031 L 249.921875 451.203125 L 248.632813 452.488281 L 247.011719 453.316406 L 245.214844 453.601563 L 243.417969 453.316406 L 241.796875 452.488281 L 240.511719 451.203125 L 239.683594 449.582031 L 239.398438 447.785156 L 239.683594 445.988281 L 240.511719 444.367188 L 241.796875 443.078125 L 243.417969 442.253906 L 245.214844 441.96875 L 247.011719 442.253906 L 248.632813 443.078125 L 249.921875 444.367188 L 250.746094 445.988281 Z M 251.03125 447.785156 "/>
<path style=" stroke:none;fill-rule:nonzero;fill:rgb(80.392157%,58.431373%,4.705882%);fill-opacity:1;" d="M 258.785156 436.152344 L 258.5 437.949219 L 257.675781 439.570313 L 256.386719 440.859375 L 254.765625 441.683594 L 252.96875 441.96875 L 251.171875 441.683594 L 249.550781 440.859375 L 248.265625 439.570313 L 247.4375 437.949219 L 247.152344 436.152344 L 247.4375 434.355469 L 248.265625 432.734375 L 249.550781 431.449219 L 251.171875 430.625 L 252.96875 430.339844 L 254.765625 430.625 L 256.386719 431.449219 L 257.675781 432.734375 L 258.5 434.355469 Z M 258.785156 436.152344 "/>
<path style=" stroke:none;fill-rule:nonzero;fill:rgb(80.392157%,58.431373%,4.705882%);fill-opacity:1;" d="M 157.984375 246.183594 L 157.699219 247.980469 L 156.875 249.601563 L 155.585938 250.890625 L 153.964844 251.714844 L 152.167969 252 L 150.371094 251.714844 L 148.75 250.890625 L 147.464844 249.601563 L 146.636719 247.980469 L 146.355469 246.183594 L 146.636719 244.386719 L 147.234375 243.214844 L 148.300781 243.253906 L 147.464844 242.765625 L 148.75 241.480469 L 150.371094 240.652344 L 152.167969 240.371094 L 153.964844 240.652344 L 155.585938 241.480469 L 156.875 242.765625 L 157.699219 244.386719 Z M 157.984375 246.183594 "/>
<path style=" stroke:none;fill-rule:nonzero;fill:rgb(80.392157%,58.431373%,4.705882%);fill-opacity:1;" d="M 177.371094 238.429688 L 177.320313 238.746094 L 174.761719 240.109375 L 170.214844 238.117188 L 166.480469 238.003906 L 166.738281 239.222656 L 168.246094 240.195313 L 176.390625 241.589844 L 174.972656 243.136719 L 173.351563 243.960938 L 171.554688 244.246094 L 169.757813 243.960938 L 168.136719 243.136719 L 166.847656 241.847656 L 166.023438 240.226563 L 165.738281 238.429688 L 166.023438 236.632813 L 166.847656 235.011719 L 168.136719 233.726563 L 169.757813 232.898438 L 171.554688 232.617188 L 173.351563 232.898438 L 174.972656 233.726563 L 176.257813 235.011719 L 177.085938 236.632813 Z M 177.371094 238.429688 "/>
<path style=" stroke:none;fill-rule:nonzero;fill:rgb(80.392157%,58.431373%,4.705882%);fill-opacity:1;" d="M 171.015625 439.859375 L 169.898438 437.949219 L 169.617188 436.152344 L 169.898438 434.355469 L 170.726563 432.734375 L 172.011719 431.449219 L 173.632813 430.625 L 175.429688 430.339844 L 177.226563 430.625 L 178.847656 431.449219 L 180.136719 432.734375 L 180.761719 433.960938 L 178.394531 435.230469 L 177.398438 436.808594 L 177.039063 438.671875 L 176.445313 439.273438 L 174.058594 439.917969 Z M 171.015625 439.859375 "/>
</g>
</svg>
