<?xml version="1.0" encoding="UTF-8"?>
<svg xmlns="http://www.w3.org/2000/svg" xmlns:xlink="http://www.w3.org/1999/xlink" width="378pt" height="504pt" viewBox="0 0 378 504" version="1.1">
<g id="data">
<rect x="0" y="0" width="378" height="504" style="fill:rgb(100%,100%,100%);fill-opacity:1;stroke:none;"/>
<path style=" stroke:none;fill-rule:nonzero;fill:rgb(100%,100%,100%);fill-opacity:1;" d="M 53.308594 504 L 324.691406 504 L 324.691406 0 L 53.308594 0 Z M 53.308594 504 "/>
<path style=" stroke:none;fill-rule:nonzero;fill:rgb(22.745098%,53.333333%,16.078431%);fill-opacity:1;" d="M 241.339844 401.261719 L 241.269531 396.105469 L 240.433594 392.890625 L 238.394531 389.648438 L 235.414063 387.25 L 238.328125 386.878906 L 241.058594 385.785156 L 243.425781 384.046875 L 245.214844 381.875 L 248.386719 382.183594 L 251.402344 381.65625 L 254.386719 380.21875 L 256.847656 378 L 260.785156 377.550781 L 264.347656 375.804688 L 264.746094 375.410156 L 264.9375 375.519531 L 266.9375 378.226563 L 270.21875 378.804688 L 270.625 378.746094 L 271.910156 376.796875 L 272.234375 374.960938 L 273.40625 371.914063 L 274.707031 370.632813 L 276.53125 370.3125 L 277.082031 370.511719 L 279.34375 370.886719 L 281.757813 370.792969 L 283.527344 370.359375 L 284.253906 370.867188 L 284.257813 370.867188 L 285.121094 372.820313 L 286.84375 375.046875 L 289.054688 376.796875 L 291.738281 378 L 292.625 380.128906 L 293.992188 382.140625 L 296.480469 384.34375 L 299.492188 385.753906 L 300.761719 388.546875 L 302.816406 391 L 304.890625 392.5 L 306.792969 393.3125 L 306.878906 393.914063 L 305.472656 395.488281 L 304.191406 397.820313 L 303.28125 401.882813 L 303.371094 405.136719 L 302.230469 407.714844 L 300.507813 409.941406 L 298.300781 411.6875 L 296.015625 412.714844 L 295.578125 412.011719 L 292.742188 410.515625 L 292.480469 410.636719 L 293.441406 412.71875 L 292.0625 412.609375 L 288.46875 413.464844 L 286.027344 414.84375 L 283.984375 416.769531 L 281.976563 413.21875 L 278.753906 410.511719 L 275.160156 409.195313 L 269.976563 408.859375 L 265.167969 409.300781 L 261.636719 410.777344 L 258.9375 413.117188 L 256.847656 416.769531 L 255.617188 417.957031 L 254.609375 415.257813 L 252.96875 412.890625 L 252.714844 410.464844 L 252.007813 408.265625 L 250.175781 405.328125 L 248.402344 403.652344 L 246.203125 402.328125 L 243.765625 401.515625 Z M 268.988281 365.421875 L 268.648438 363.011719 L 269.304688 364.402344 L 269.210938 365.21875 Z M 245.214844 447.785156 L 243.507813 445.613281 L 241.339844 443.90625 L 243.765625 443.789063 L 246.238281 443.125 L 248.394531 442.007813 L 250.273438 440.464844 L 251.792969 438.566406 L 252.925781 436.273438 L 253.535156 433.804688 L 253.601563 431.390625 L 254.914063 434.003906 L 256.742188 436.121094 L 259.136719 437.800781 L 261.875 438.832031 L 260.722656 440.03125 L 258.246094 439.355469 L 255.679688 439.238281 L 253.273438 439.652344 L 250.894531 440.617188 L 248.882813 442 L 247.28125 443.671875 L 246.042969 445.625 Z M 214.199219 343.109375 L 216.320313 342.734375 L 218.453125 341.917969 L 220.382813 340.703125 L 221.953125 339.230469 L 223.34375 341.964844 L 225.304688 344.15625 L 227.863281 345.84375 L 230.652344 346.777344 L 236.117188 347.300781 L 239.15625 346.9375 L 242.433594 345.535156 L 245.214844 343.109375 L 249.09375 343.773438 L 252.96875 343.109375 L 255.050781 343.109375 L 260.507813 347.597656 L 260.433594 347.804688 L 257.007813 347.402344 L 253.734375 347.980469 L 251.1875 349.179688 L 249.09375 350.863281 L 246.589844 350.273438 L 244.148438 350.238281 L 241.753906 350.710938 L 239.398438 351.738281 L 236.863281 353.703125 L 234.964844 356.289063 L 233.84375 359.292969 L 233.585938 362.492188 L 229.707031 362.492188 L 225.832031 361.828125 L 221.953125 362.492188 L 221.949219 353.328125 L 221.125 349.722656 L 219.984375 347.574219 L 218.421875 345.714844 L 216.503906 344.214844 Z M 229.707031 440.03125 L 230.015625 436.972656 L 231.726563 439.734375 Z M 225.832031 424.523438 L 227.539063 426.691406 L 229.707031 428.398438 L 229.164063 430.5625 L 229.042969 432.664063 L 227.644531 430.296875 L 225.832031 428.398438 Z M 206.445313 393.507813 L 206.445313 389.628906 L 208.476563 389.925781 Z M 177.148438 438.113281 L 176.902344 437.726563 L 175.429688 436.152344 L 175.726563 434.136719 L 178.121094 435.664063 L 177.398438 436.808594 Z M 177.148438 438.113281 "/>
</g>
</svg>
