<?xml version="1.0" encoding="UTF-8"?>
<svg xmlns="http://www.w3.org/2000/svg" xmlns:xlink="http://www.w3.org/1999/xlink" width="378pt" height="504pt" viewBox="0 0 378 504" version="1.1">
<g id="data">
<rect x="0" y="0" width="378" height="504" style="fill:rgb(100%,100%,100%);fill-opacity:1;stroke:none;"/>
<path style=" stroke:none;fill-rule:nonzero;fill:rgb(100%,100%,100%);fill-opacity:1;" d="M 53.308594 504 L 324.691406 504 L 324.691406 0 L 53.308594 0 Z M 53.308594 504 "/>
<path style=" stroke:none;fill-rule:nonzero;fill:rgb(22.745098%,53.333333%,16.078431%);fill-opacity:1;" d="M 221.953125 319.847656 L 223.789063 321.992188 L 226.203125 323.695313 L 228.84375 324.703125 L 231.644531 325.046875 L 234.574219 324.671875 L 237.203125 323.632813 L 239.503906 321.992188 L 241.339844 319.847656 L 245.214844 320.511719 L 249.09375 319.847656 L 247.214844 322.117188 L 245.96875 324.785156 L 245.429688 327.679688 L 245.636719 330.617188 L 246.574219 333.410156 L 248.183594 335.875 L 250.363281 337.859375 L 251.292969 338.347656 L 245.550781 339.511719 L 244.589844 338.644531 L 243.40625 338.558594 L 241.210938 339.871094 L 241.886719 340.445313 L 246.324219 340.394531 L 249.617188 339.34375 L 251.976563 339.082031 L 252.316406 339.574219 L 250.363281 340.601563 L 248.183594 342.585938 L 246.574219 345.050781 L 245.636719 347.84375 L 245.429688 350.78125 L 245.96875 353.679688 L 247.214844 356.347656 L 249.09375 358.617188 L 246.847656 359.023438 L 244.726563 359.863281 L 242.910156 361.019531 L 241.339844 362.492188 L 238.292969 364.105469 L 235.851563 366.542969 L 234.191406 369.707031 L 233.570313 373.097656 L 233.902344 377.570313 L 235.285156 380.882813 L 237.617188 383.617188 L 239.511719 384.941406 L 241.632813 385.867188 L 244.023438 386.367188 L 246.335938 386.371094 L 252.769531 384.832031 L 254.96875 383.578125 L 256.847656 381.875 L 260.273438 382.167969 L 263.636719 381.445313 L 266.226563 380.074219 L 268.023438 378.417969 L 270.21875 378.804688 L 270.625 378.746094 L 271.117188 378 L 272.355469 378 L 274.191406 379.769531 L 276.371094 381.097656 L 278.789063 381.917969 L 281.324219 382.191406 L 283.984375 381.875 L 287.285156 382.175781 L 289.925781 381.730469 L 293.050781 380.289063 L 295.617188 378 L 296.300781 381.089844 L 297.867188 383.980469 L 301.109375 387.835938 L 303.371094 389.628906 L 305.4375 392.148438 L 306.78125 393.160156 L 306.777344 393.191406 L 306.886719 393.949219 L 304.921875 396.339844 L 303.851563 398.773438 L 303.371094 401.261719 L 301.820313 402.933594 L 300.679688 404.765625 L 299.867188 406.894531 L 299.492188 409.015625 L 297.71875 410.996094 L 296.488281 413.210938 L 296.441406 413.398438 L 295.578125 412.011719 L 292.742188 410.515625 L 292.480469 410.636719 L 293.898438 413.703125 L 295.714844 416.367188 L 295.617188 416.769531 L 293.808594 418.128906 L 291.738281 420.644531 L 290.589844 421.558594 L 290.003906 421.65625 L 289.660156 421.574219 L 288.214844 419.332031 L 284.976563 421.730469 L 280.71875 424.230469 L 282.339844 425.378906 L 285.105469 424.398438 L 286.097656 423.375 L 286.894531 423.164063 L 287.328125 423.710938 L 287.410156 425.074219 L 287.066406 425.507813 L 285.539063 428.417969 L 284.929688 431.445313 L 284.640625 431.660156 L 281.179688 431.953125 L 280.378906 432.285156 L 279.644531 432.160156 L 274.75 433.78125 L 272.609375 436.117188 L 274.253906 436.015625 L 275.152344 434.667969 L 276.351563 434.429688 L 274.207031 436.390625 L 272.355469 440.03125 L 269.171875 440.289063 L 266.066406 441.464844 L 263.417969 443.472656 L 261.445313 446.144531 L 260.421875 448.765625 L 260.054688 451.433594 L 260.308594 454.113281 L 261.226563 456.777344 L 262.679688 459.042969 L 264.714844 460.992188 L 267.042969 462.347656 L 269.742188 463.148438 L 256.847656 463.292969 L 254.644531 461.742188 L 252.140625 460.738281 L 249.476563 460.335938 L 246.792969 460.558594 L 243.882813 461.5625 L 241.339844 463.292969 L 238.054688 463.613281 L 237.714844 463.296875 L 231.496094 463.171875 L 231.378906 463.496094 L 232.574219 464.835938 L 232.214844 465.75 L 231.738281 466.042969 L 228.707031 465.714844 L 227.726563 463.851563 L 226.058594 461.898438 L 224.003906 460.355469 L 221.660156 459.304688 L 219.269531 458.800781 L 216.703125 458.828125 L 210.65625 459.96875 L 208.648438 460.828125 L 206.832031 462.046875 L 205.199219 463.679688 L 203.980469 465.492188 L 202.945313 468.117188 L 202.570313 471.046875 L 201.9375 470.976563 L 197.980469 469.679688 L 194.816406 467.167969 L 197.992188 466.726563 L 200.925781 465.433594 L 203.394531 463.390625 L 205.214844 460.75 L 206.132813 458.214844 L 206.445313 455.539063 L 208.335938 452.660156 L 209.300781 449.351563 L 209.160156 445.402344 L 207.707031 441.730469 L 212.644531 445.730469 L 214.738281 446.710938 L 216.855469 447.238281 L 219.421875 447.34375 L 221.949219 446.882813 L 224.3125 445.875 L 226.300781 444.464844 L 227.949219 442.667969 L 229.242188 440.445313 L 230.015625 438 L 230.230469 435.441406 L 229.511719 430.894531 L 228.886719 428.835938 L 227.605469 426.503906 L 225.832031 424.523438 L 231.835938 424.683594 L 235.632813 424.339844 L 238.566406 423.402344 L 241.050781 421.8125 L 242.824219 419.957031 L 244.148438 417.753906 L 244.960938 415.320313 L 245.214844 412.890625 L 247.296875 411.273438 L 249.09375 409.015625 L 251.976563 406.289063 L 253.433594 403.71875 L 254.191406 400.863281 L 254.207031 397.910156 L 253.527344 395.167969 L 252.128906 392.566406 L 250.222656 390.484375 L 247.226563 388.269531 L 244.511719 387.109375 L 241.339844 386.667969 L 238.164063 387.109375 L 235.675781 388.140625 L 233.585938 389.628906 L 230.902344 389.789063 L 228.214844 390.609375 L 226.316406 391.671875 L 224.648438 393.070313 L 223.0625 395.078125 L 221.953125 397.382813 L 219.695313 399.179688 L 218.078125 401.261719 L 215.851563 403.183594 L 214.554688 404.929688 L 213.113281 408.613281 L 212.96875 412.4375 L 211.84375 410.652344 L 210.324219 409.015625 L 211 406.539063 L 211.117188 403.972656 L 210.703125 401.566406 L 209.734375 399.183594 L 208.4375 397.273438 L 206.785156 395.652344 L 204.84375 394.394531 L 202.570313 393.507813 L 204.34375 391.527344 L 205.625 389.195313 L 206.296875 386.886719 L 206.761719 383.09375 L 206.488281 380.554688 L 205.667969 378.140625 L 204.339844 375.960938 L 202.570313 374.125 L 204.847656 374.429688 L 207.140625 374.285156 L 209.359375 373.691406 L 211.308594 372.742188 L 214.199219 370.246094 L 216.925781 369.113281 L 219.28125 367.332031 L 221.242188 364.792969 L 222.402344 361.941406 L 222.753906 358.367188 L 221.953125 354.738281 L 223.761719 352.578125 L 225.039063 349.921875 L 225.597656 347.160156 L 225.480469 344.347656 L 224.582031 341.40625 L 222.945313 338.808594 L 220.683594 336.726563 L 218.078125 335.355469 L 219.890625 333.921875 L 221.316406 332.265625 L 222.402344 330.371094 L 223.117188 328.308594 L 223.433594 326.148438 L 223.339844 323.96875 L 222.839844 321.839844 Z M 236.953125 463.992188 L 236.027344 464.382813 L 236.523438 463.683594 Z M 231.703125 467.535156 L 231.632813 467.59375 L 229.707031 471.046875 L 229.570313 468.480469 L 229.121094 466.847656 Z M 215.59375 418.429688 L 218.078125 420.644531 L 216.648438 420.296875 Z M 214.199219 416.769531 L 214.144531 416.234375 L 214.945313 417.578125 Z M 202.570313 436.152344 L 203.996094 436.503906 L 204.679688 437.804688 Z M 179.308594 319.847656 L 180.511719 321.367188 L 179.542969 323.261719 L 179.308594 323.382813 Z M 171.554688 242.308594 L 173.167969 241.039063 L 178.0625 241.875 L 179.308594 242.207031 L 179.308594 242.308594 L 175.429688 241.640625 Z M 174.277344 239.898438 L 175.429688 238.429688 L 179.070313 237.808594 L 174.761719 240.109375 Z M 174.277344 239.898438 "/>
<path style=" stroke:none;fill-rule:nonzero;fill:rgb(80.392157%,58.431373%,4.705882%);fill-opacity:1;" d="M 204.507813 319.847656 L 204.222656 321.644531 L 203.398438 323.265625 L 202.109375 324.550781 L 200.488281 325.375 L 198.691406 325.660156 L 196.894531 325.375 L 195.273438 324.550781 L 193.988281 323.265625 L 193.160156 321.644531 L 192.875 319.847656 L 193.160156 318.050781 L 193.988281 316.429688 L 195.273438 315.140625 L 196.894531 314.316406 L 198.691406 314.03125 L 200.488281 314.316406 L 202.109375 315.140625 L 203.398438 316.429688 L 204.222656 318.050781 Z M 204.507813 319.847656 "/>
<path style=" stroke:none;fill-rule:nonzero;fill:rgb(80.392157%,58.431373%,4.705882%);fill-opacity:1;" d="M 192.875 397.382813 L 192.59375 399.183594 L 191.765625 400.804688 L 190.480469 402.089844 L 188.859375 402.914063 L 187.0625 403.199219 L 185.265625 402.914063 L 183.644531 402.089844 L 182.355469 400.804688 L 181.53125 399.183594 L 181.246094 397.382813 L 181.53125 395.585938 L 182.355469 393.964844 L 183.644531 392.679688 L 185.265625 391.855469 L 187.0625 391.570313 L 188.859375 391.855469 L 190.480469 392.679688 L 191.765625 393.964844 L 192.59375 395.585938 Z M 192.875 397.382813 "/>
<path style=" stroke:none;fill-rule:nonzero;fill:rgb(80.392157%,58.431373%,4.705882%);fill-opacity:1;" d="M 204.507813 257.816406 L 204.222656 259.613281 L 203.398438 261.234375 L 202.109375 262.519531 L 200.488281 263.347656 L 198.691406 263.628906 L 196.894531 263.347656 L 195.273438 262.519531 L 193.988281 261.234375 L 193.160156 259.613281 L 192.875 257.816406 L 193.160156 256.019531 L 193.988281 254.398438 L 195.273438 253.109375 L 196.894531 252.285156 L 198.691406 252 L 200.488281 252.285156 L 202.109375 253.109375 L 203.398438 254.398438 L 204.222656 256.019531 Z M 204.507813 257.816406 "/>
<path style=" stroke:none;fill-rule:nonzero;fill:rgb(80.392157%,58.431373%,4.705882%);fill-opacity:1;" d="M 169.617188 188.03125 L 169.332031 189.828125 L 168.503906 191.449219 L 167.21875 192.734375 L 165.597656 193.5625 L 163.800781 193.847656 L 162.003906 193.5625 L 160.382813 192.734375 L 159.09375 191.449219 L 158.269531 189.828125 L 157.984375 188.03125 L 158.269531 186.234375 L 159.09375 184.613281 L 160.382813 183.324219 L 162.003906 182.5 L 163.800781 182.214844 L 165.597656 182.5 L 167.21875 183.324219 L 168.503906 184.613281 L 169.332031 186.234375 Z M 169.617188 188.03125 "/>
<path style=" stroke:none;fill-rule:nonzero;fill:rgb(80.392157%,58.431373%,4.705882%);fill-opacity:1;" d="M 200.628906 354.738281 L 200.347656 356.535156 L 199.519531 358.15625 L 198.234375 359.441406 L 196.613281 360.269531 L 194.816406 360.554688 L 193.019531 360.269531 L 191.398438 359.441406 L 190.109375 358.15625 L 189.285156 356.535156 L 190.335938 355.148438 L 189.097656 355.363281 L 189 354.738281 L 189.285156 352.941406 L 190.109375 351.320313 L 191.398438 350.035156 L 193.019531 349.207031 L 194.816406 348.921875 L 196.613281 349.207031 L 198.234375 350.035156 L 199.519531 351.320313 L 200.347656 352.941406 Z M 200.628906 354.738281 "/>
<path style=" stroke:none;fill-rule:nonzero;fill:rgb(80.392157%,58.431373%,4.705882%);fill-opacity:1;" d="M 154.109375 172.523438 L 153.824219 174.320313 L 152.996094 175.941406 L 151.710938 177.226563 L 150.089844 178.054688 L 148.292969 178.339844 L 146.496094 178.054688 L 144.875 177.226563 L 143.585938 175.941406 L 142.761719 174.320313 L 142.476563 172.523438 L 142.761719 170.726563 L 143.585938 169.105469 L 144.875 167.816406 L 146.496094 166.992188 L 148.292969 166.707031 L 150.089844 166.992188 L 151.710938 167.816406 L 152.996094 169.105469 L 153.367188 169.832031 L 152.441406 170.8125 L 151.949219 171.945313 L 152.140625 172.144531 L 153.808594 170.695313 Z M 154.109375 172.523438 "/>
<path style=" stroke:none;fill-rule:nonzero;fill:rgb(80.392157%,58.431373%,4.705882%);fill-opacity:1;" d="M 300.695313 446.59375 L 299.035156 448.613281 L 297.414063 449.4375 L 295.617188 449.722656 L 293.816406 449.4375 L 292.195313 448.613281 L 290.910156 447.324219 L 290.085938 445.703125 L 289.800781 443.90625 L 290.085938 442.109375 L 290.910156 440.488281 L 292.195313 439.203125 L 293.28125 438.652344 L 296.414063 438.21875 L 297.414063 438.375 L 299.035156 439.203125 L 300.320313 440.488281 L 300.933594 441.695313 Z M 300.695313 446.59375 "/>
<path style=" stroke:none;fill-rule:nonzero;fill:rgb(80.392157%,58.431373%,4.705882%);fill-opacity:1;" d="M 196.683594 424.960938 L 196.46875 426.320313 L 195.644531 427.941406 L 194.355469 429.226563 L 192.355469 430.113281 L 195.792969 425.3125 Z M 190.335938 430.242188 L 189.140625 430.054688 L 187.519531 429.226563 L 186.234375 427.941406 L 185.40625 426.320313 L 185.125 424.523438 L 185.40625 422.726563 L 186.234375 421.105469 L 187.519531 419.816406 L 189.140625 418.992188 L 190.9375 418.707031 L 192.734375 418.992188 L 194.355469 419.816406 L 195.644531 421.105469 L 196.46875 422.726563 L 196.660156 423.9375 L 192.90625 427.300781 Z M 190.335938 430.242188 "/>
<path style=" stroke:none;fill-rule:nonzero;fill:rgb(80.392157%,58.431373%,4.705882%);fill-opacity:1;" d="M 161.863281 157.015625 L 161.578125 158.8125 L 161.011719 159.921875 L 159.644531 160.289063 L 156.839844 159.359375 L 153.464844 157.734375 L 154.464844 159.796875 L 155.875 160.457031 L 159.707031 161.476563 L 157.84375 162.546875 L 156.046875 162.832031 L 154.25 162.546875 L 152.628906 161.71875 L 151.339844 160.433594 L 150.515625 158.8125 L 150.230469 157.015625 L 150.515625 155.21875 L 151.339844 153.597656 L 152.628906 152.3125 L 154.25 151.484375 L 156.046875 151.199219 L 157.84375 151.484375 L 159.464844 152.3125 L 160.75 153.597656 L 161.578125 155.21875 Z M 161.863281 157.015625 "/>
<path style=" stroke:none;fill-rule:nonzero;fill:rgb(80.392157%,58.431373%,4.705882%);fill-opacity:1;" d="M 223.003906 284.058594 L 221.496094 285.78125 L 219.875 286.609375 L 218.078125 286.890625 L 216.28125 286.609375 L 214.660156 285.78125 L 213.371094 284.496094 L 212.546875 282.875 L 212.261719 281.078125 L 212.546875 279.28125 L 213.371094 277.660156 L 214.660156 276.371094 L 216.28125 275.546875 L 218.078125 275.261719 L 219.992188 275.605469 L 221.269531 280.457031 Z M 223.003906 284.058594 "/>
<path style=" stroke:none;fill-rule:nonzero;fill:rgb(80.392157%,58.431373%,4.705882%);fill-opacity:1;" d="M 192.820313 227.164063 L 192.59375 228.597656 L 191.765625 230.21875 L 190.480469 231.503906 L 188.859375 232.332031 L 187.746094 232.507813 L 187.070313 232.078125 L 185.40625 232.042969 L 185.144531 232.269531 L 183.644531 231.503906 L 182.355469 230.21875 L 181.53125 228.597656 L 181.246094 226.800781 L 181.953125 224.171875 L 184.609375 222.886719 L 186.457031 221.386719 L 187.289063 221.316406 L 189.085938 221.875 L 189.332031 222.921875 L 188.898438 224.691406 L 189.238281 225.953125 L 190.898438 226.824219 Z M 192.820313 227.164063 "/>
<path style=" stroke:none;fill-rule:nonzero;fill:rgb(80.392157%,58.431373%,4.705882%);fill-opacity:1;" d="M 182.046875 221.859375 L 181.53125 220.84375 L 181.246094 219.046875 L 181.53125 217.25 L 182.355469 215.628906 L 183.644531 214.339844 L 185.265625 213.515625 L 187.0625 213.230469 L 188.859375 213.515625 L 190.480469 214.339844 L 191.765625 215.628906 L 192.59375 217.25 L 192.78125 218.449219 L 191.214844 219.742188 L 185.519531 221.085938 L 182.847656 221.226563 Z M 188.9375 224.535156 L 187.0625 224.863281 L 185.265625 224.578125 L 183.375 223.484375 L 184.609375 222.886719 L 186.457031 221.386719 L 187.289063 221.316406 L 189.085938 221.875 L 189.332031 222.921875 Z M 188.9375 224.535156 "/>
<path style=" stroke:none;fill-rule:nonzero;fill:rgb(80.392157%,58.431373%,4.705882%);fill-opacity:1;" d="M 161.863281 381.875 L 161.578125 383.675781 L 160.75 385.296875 L 159.464844 386.582031 L 157.84375 387.40625 L 156.046875 387.691406 L 154.25 387.40625 L 152.574219 386.527344 L 153.179688 384.597656 L 154.652344 381.796875 L 152.269531 378.203125 L 152.363281 377.4375 L 154.25 376.347656 L 156.046875 376.0625 L 157.84375 376.347656 L 159.464844 377.171875 L 160.75 378.457031 L 161.578125 380.078125 Z M 161.863281 381.875 "/>
<path style=" stroke:none;fill-rule:nonzero;fill:rgb(80.392157%,58.431373%,4.705882%);fill-opacity:1;" d="M 154.109375 424.523438 L 153.824219 426.320313 L 152.996094 427.941406 L 151.710938 429.226563 L 150.089844 430.054688 L 148.292969 430.339844 L 147.019531 430.136719 L 146.917969 429.308594 L 148.539063 428.378906 L 150.066406 428.890625 L 151.640625 428.421875 L 152.765625 427.832031 L 153.085938 427.097656 L 152.808594 426.597656 L 147.785156 426.460938 L 143.210938 423.710938 L 142.605469 423.710938 L 142.761719 422.726563 L 143.585938 421.105469 L 144.875 419.816406 L 146.496094 418.992188 L 148.292969 418.707031 L 150.089844 418.992188 L 151.710938 419.816406 L 152.996094 421.105469 L 153.824219 422.726563 Z M 154.109375 424.523438 "/>
<path style=" stroke:none;fill-rule:nonzero;fill:rgb(80.392157%,58.431373%,4.705882%);fill-opacity:1;" d="M 189 343.109375 L 188.714844 344.90625 L 187.890625 346.527344 L 186.601563 347.8125 L 184.980469 348.636719 L 183.183594 348.921875 L 180.933594 348.40625 L 179.976563 346.332031 L 183.371094 340.257813 L 185.429688 339.015625 L 185.140625 338.578125 L 182.683594 338.460938 L 181.851563 337.503906 L 183.183594 337.292969 L 184.980469 337.578125 L 186.601563 338.402344 L 187.890625 339.691406 L 188.714844 341.3125 Z M 189 343.109375 "/>
<path style=" stroke:none;fill-rule:nonzero;fill:rgb(80.392157%,58.431373%,4.705882%);fill-opacity:1;" d="M 271.089844 465.851563 L 270.414063 463.292969 L 270.699219 461.496094 L 271.527344 459.875 L 272.8125 458.585938 L 274.433594 457.761719 L 276.230469 457.476563 L 278.027344 457.761719 L 279.648438 458.585938 L 280.933594 459.875 L 281.324219 460.640625 L 281.042969 460.90625 L 278.484375 461.933594 L 274.789063 462.777344 L 272.597656 463.816406 Z M 271.089844 465.851563 "/>
<path style=" stroke:none;fill-rule:nonzero;fill:rgb(80.392157%,58.431373%,4.705882%);fill-opacity:1;" d="M 233.101563 38.984375 L 230.96875 38.972656 L 230.324219 38.394531 L 230.816406 33.792969 L 232.058594 31.609375 L 233.582031 31.753906 L 234.398438 32.242188 L 234.613281 32.71875 Z M 229.835938 41.203125 L 228.878906 40.25 L 228.054688 38.628906 L 227.789063 36.695313 L 228.363281 36.574219 L 229.761719 37.023438 Z M 229.835938 41.203125 "/>
</g>
</svg>
