<?xml version="1.0" encoding="UTF-8"?>
<svg xmlns="http://www.w3.org/2000/svg" xmlns:xlink="http://www.w3.org/1999/xlink" width="378pt" height="504pt" viewBox="0 0 378 504" version="1.1">
<g id="data">
<rect x="0" y="0" width="378" height="504" style="fill:rgb(100%,100%,100%);fill-opacity:1;stroke:none;"/>
<path style=" stroke:none;fill-rule:nonzero;fill:rgb(100%,100%,100%);fill-opacity:1;" d="M 53.308594 504 L 324.691406 504 L 324.691406 0 L 53.308594 0 Z M 53.308594 504 "/>
<path style=" stroke:none;fill-rule:nonzero;fill:rgb(22.745098%,53.333333%,16.078431%);fill-opacity:1;" d="M 177.152344 322.371094 L 177.601563 322.015625 L 179.308594 319.847656 L 181.460938 322.253906 L 179.199219 323.441406 L 177.335938 322.691406 Z M 186.699219 324.71875 L 187.585938 324.960938 L 190.921875 324.886719 L 193.273438 324.234375 L 195.332031 323.175781 L 197.226563 321.636719 L 198.691406 319.847656 L 200.816406 322.25 L 203.636719 324.035156 L 206.84375 324.945313 L 210.179688 324.910156 L 214.164063 323.507813 L 216.335938 321.90625 L 218.078125 319.847656 L 220.320313 319.4375 L 222.328125 318.65625 L 224.257813 317.441406 L 225.832031 315.96875 L 227.351563 317.875 L 229.238281 319.425781 L 231.40625 320.546875 L 233.757813 321.1875 L 237.597656 321.175781 L 241.339844 319.847656 L 245.214844 320.511719 L 249.09375 319.847656 L 247.015625 322.445313 L 245.789063 325.398438 L 245.417969 328.707031 L 245.996094 331.980469 L 247.128906 334.421875 L 248.703125 336.445313 L 250.683594 338.074219 L 251.242188 338.359375 L 245.550781 339.511719 L 244.589844 338.644531 L 243.40625 338.558594 L 241.210938 339.871094 L 241.886719 340.445313 L 246.324219 340.394531 L 249.617188 339.34375 L 251.976563 339.082031 L 254.382813 342.558594 L 255.714844 343.652344 L 253.039063 344.941406 L 250.140625 348.011719 L 248.90625 350.550781 L 248.328125 353.1875 L 248.378906 355.882813 L 249.09375 358.617188 L 246.914063 359.703125 L 245.007813 361.21875 L 243.460938 363.097656 L 242.292969 365.378906 L 241.601563 368.242188 L 241.675781 371.316406 L 242.496094 374.144531 L 244.003906 376.675781 L 246.367188 379.199219 L 248.4375 380.6875 L 251.027344 381.765625 L 253.800781 382.1875 L 256.847656 381.875 L 260.144531 382.175781 L 262.785156 381.730469 L 265.910156 380.289063 L 268.007813 378.417969 L 270.21875 378.804688 L 270.625 378.746094 L 271.117188 378 L 272.355469 378 L 275.246094 380.496094 L 278.914063 381.945313 L 281.070313 382.191406 L 283.984375 381.875 L 287.792969 382.136719 L 290.046875 381.691406 L 292.171875 380.8125 L 294.078125 379.53125 L 295.617188 378 L 296.300781 381.085938 L 297.867188 383.980469 L 301.109375 387.835938 L 303.371094 389.628906 L 305.4375 392.148438 L 306.78125 393.160156 L 306.777344 393.191406 L 306.878906 393.902344 L 305.773438 395.078125 L 304.558594 397.011719 L 303.742188 399.140625 L 303.371094 401.261719 L 301.042969 404.09375 L 299.972656 406.527344 L 299.492188 409.015625 L 297.789063 410.890625 L 296.585938 412.976563 L 296.46875 413.441406 L 295.578125 412.011719 L 292.742188 410.515625 L 292.480469 410.636719 L 293.898438 413.703125 L 295.714844 416.375 L 295.617188 416.769531 L 293.808594 418.128906 L 291.738281 420.644531 L 290.59375 421.558594 L 290.003906 421.65625 L 289.660156 421.574219 L 288.214844 419.332031 L 284.976563 421.730469 L 280.71875 424.230469 L 282.339844 425.378906 L 285.105469 424.398438 L 286.097656 423.375 L 286.894531 423.164063 L 287.328125 423.710938 L 287.410156 425.074219 L 287.066406 425.507813 L 285.539063 428.417969 L 284.929688 431.445313 L 284.664063 431.640625 L 282.773438 431.671875 L 280.582031 432.121094 L 280.226563 432.257813 L 279.644531 432.160156 L 274.75 433.78125 L 272.609375 436.117188 L 274.253906 436.015625 L 275.152344 434.667969 L 276.085938 434.480469 L 273.835938 436.914063 L 272.355469 440.03125 L 270.34375 443.140625 L 269.554688 445.710938 L 269.382813 448.523438 L 269.855469 451.167969 L 270.988281 453.746094 L 272.703125 455.976563 L 274.910156 457.730469 L 277.347656 458.863281 L 280.109375 459.414063 L 277.9375 461.121094 L 277.042969 462.261719 L 274.789063 462.777344 L 272.597656 463.816406 L 272.15625 464.414063 L 271.980469 464.480469 L 270.050781 465.695313 L 268.96875 466.710938 L 267.402344 466.238281 L 266.183594 465.179688 L 263.453125 463.851563 L 259.726563 463.167969 L 256.847656 463.292969 L 254.746094 462.34375 L 252.5 461.828125 L 248.800781 461.949219 L 245.214844 463.292969 L 243.089844 463.132813 L 238.785156 463.429688 L 238.085938 463.640625 L 237.714844 463.296875 L 231.496094 463.171875 L 231.378906 463.496094 L 232.574219 464.835938 L 232.214844 465.75 L 231.738281 466.042969 L 226.691406 465.496094 L 222.097656 467.398438 L 219.894531 466.335938 L 217.394531 465.753906 L 213.683594 465.914063 L 210.324219 467.167969 L 207.355469 467.808594 L 204.757813 469.125 L 202.570313 471.046875 L 200.167969 468.988281 L 197.300781 467.648438 L 191.449219 466.515625 L 189.285156 466.621094 L 187.0625 467.167969 L 185.011719 465.703125 L 187.867188 462.292969 L 189.171875 459.945313 L 189.976563 456.847656 L 189.925781 453.78125 L 188.742188 450.136719 L 186.4375 447.074219 L 183.144531 444.875 L 181.160156 444.375 L 181.210938 443.15625 L 182.519531 440.25 L 190.867188 432.195313 L 195.792969 425.3125 L 197.929688 424.472656 L 198.285156 423.78125 L 198.269531 423.746094 L 199.011719 423.519531 L 200.933594 422.257813 L 202.570313 420.644531 L 205.511719 419.109375 L 207.410156 417.394531 L 209.394531 414.269531 L 210.296875 410.679688 L 210.628906 405.84375 L 209.980469 402.464844 L 208.445313 399.53125 L 205.078125 395.691406 L 202.441406 393.667969 L 199.464844 392.503906 L 196.15625 392.199219 L 192.894531 392.839844 L 194.34375 389.757813 L 194.835938 386.386719 L 194.390625 382.636719 L 192.875 379.324219 L 195.652344 378.988281 L 198.375 377.941406 L 200.664063 376.335938 L 202.570313 374.125 L 206.503906 374.371094 L 210.183594 373.34375 L 212.464844 371.9375 L 216.546875 368.359375 L 219.851563 364.390625 L 221.269531 361.703125 L 222.054688 357.867188 L 221.953125 354.738281 L 223.320313 352.882813 L 224.335938 350.671875 L 224.851563 348.421875 L 224.914063 346.117188 L 224.414063 343.476563 L 223.320313 341.023438 L 221.691406 338.882813 L 219.507813 337.105469 L 216.839844 335.867188 L 211.976563 334.71875 L 209.542969 334.542969 L 207.121094 334.875 L 204.144531 336.066406 L 201.605469 338.027344 L 199.824219 340.378906 L 198.691406 343.109375 L 196.265625 345.890625 L 195.246094 347.949219 L 194.652344 350.167969 L 194.507813 352.460938 L 194.816406 354.738281 L 192.316406 354.25 L 189.644531 354.335938 L 187.183594 354.980469 L 185.550781 355.824219 L 183.8125 354.640625 L 183.183594 353.285156 L 183.183594 350.863281 L 183.851563 346.984375 L 183.183594 343.109375 L 184.863281 340.691406 L 185.878906 337.929688 L 186.171875 335 L 185.71875 332.09375 L 184.441406 329.304688 L 184.695313 329.191406 Z M 249.09375 389.628906 L 247.226563 388.269531 L 245.125 387.304688 L 243.003906 386.789063 L 240.695313 386.6875 L 236.949219 387.527344 L 233.585938 389.628906 L 230.90625 389.941406 L 228.488281 390.804688 L 225.730469 392.679688 L 223.6875 395.152344 L 222.394531 398.085938 L 221.953125 401.261719 L 218.832031 403.015625 L 216.394531 405.636719 L 214.734375 409.375 L 214.46875 413.453125 L 215.628906 417.371094 L 218.078125 420.644531 L 215.554688 420.15625 L 213.117188 420.214844 L 210.621094 420.824219 L 208.324219 421.964844 L 206.328125 423.582031 L 204.738281 425.601563 L 203.632813 427.917969 L 203.074219 430.292969 L 203.203125 434.003906 L 204.558594 437.597656 L 207.976563 442.019531 L 211.539063 444.855469 L 214.902344 446.429688 L 218.589844 446.859375 L 222.105469 446.148438 L 225.339844 444.324219 L 227.28125 442.46875 L 228.761719 440.234375 L 229.660156 437.847656 L 230.019531 435.191406 L 229.582031 431.269531 L 228.933594 428.953125 L 227.605469 426.503906 L 225.832031 424.523438 L 232.085938 424.675781 L 236.882813 424.046875 L 240.441406 422.285156 L 243.203125 419.433594 L 244.699219 416.316406 L 245.214844 412.890625 L 247.296875 411.273438 L 249.09375 409.015625 L 251.820313 406.492188 L 253.226563 404.1875 L 254.0625 401.625 L 254.234375 398.167969 L 253.382813 394.808594 L 251.578125 391.855469 Z M 236.949219 463.988281 L 236.128906 464.238281 L 236.523438 463.683594 Z M 231.789063 467.558594 L 231.097656 468.3125 L 229.707031 471.046875 L 225.832031 471.046875 L 224.21875 469.046875 L 223.539063 468.507813 L 227.316406 466.367188 Z M 175.429688 439.546875 L 175.429688 436.152344 L 177.167969 434.101563 L 178.34375 431.820313 L 178.992188 429.339844 L 179.078125 426.777344 L 181.941406 427.453125 L 185.007813 427.367188 L 188.179688 426.371094 L 190.9375 424.523438 L 195 424.757813 L 195.992188 424.453125 L 192.90625 427.300781 L 190.570313 429.988281 L 189.222656 431.449219 L 185.628906 432.957031 L 183.714844 433.246094 L 182.441406 433.0625 L 178.394531 435.230469 L 177.398438 436.808594 L 177.039063 438.671875 L 176.445313 439.273438 Z M 214.199219 284.953125 L 216.328125 283.140625 L 218.023438 280.757813 L 219.722656 283.101563 L 221.953125 284.953125 L 219.785156 286.660156 L 218.078125 288.832031 L 216.371094 286.660156 Z M 217.703125 269.207031 L 218.078125 269.445313 L 217.960938 269.65625 Z M 187.0625 257.816406 L 187.207031 257.425781 L 188.328125 257.671875 Z M 171.554688 238.429688 L 176.445313 238.386719 L 179.039063 237.824219 L 174.761719 240.109375 L 171.4375 238.652344 Z M 179.308594 242.207031 L 179.308594 242.308594 L 175.429688 241.640625 L 171.554688 242.308594 L 170.171875 241.050781 L 170.425781 240.566406 L 178.0625 241.875 Z M 175.429688 288.832031 L 176.960938 292.203125 L 173.53125 294.308594 L 174.828125 291.691406 Z M 171.84375 173.34375 L 171.554688 172.523438 L 172.214844 173.25 Z M 152.167969 242.308594 L 153.550781 243.5625 L 152.167969 246.183594 Z M 148.375 451.660156 L 152.167969 451.660156 L 148.589844 453.691406 L 148.414063 452.503906 L 148.429688 452.488281 Z M 119.964844 487.785156 L 121.152344 486.554688 L 123.910156 486.6875 L 127.457031 486.09375 L 126.007813 488.128906 L 125.105469 490.257813 L 124.882813 490.328125 L 122.664063 488.792969 Z M 119.964844 487.785156 "/>
</g>
</svg>
