<?xml version="1.0" encoding="UTF-8"?>
<svg xmlns="http://www.w3.org/2000/svg" xmlns:xlink="http://www.w3.org/1999/xlink" width="378pt" height="504pt" viewBox="0 0 378 504" version="1.1">
<g id="data">
<rect x="0" y="0" width="378" height="504" style="fill:rgb(100%,100%,100%);fill-opacity:1;stroke:none;"/>
<path style=" stroke:none;fill-rule:nonzero;fill:rgb(100%,100%,100%);fill-opacity:1;" d="M 53.308594 504 L 324.691406 504 L 324.691406 0 L 53.308594 0 Z M 53.308594 504 "/>
<path style=" stroke:none;fill-rule:nonzero;fill:rgb(22.745098%,53.333333%,16.078431%);fill-opacity:1;" d="M 210.375 168.949219 L 210.695313 170.769531 L 211.511719 172.898438 L 212.726563 174.828125 L 213.347656 175.488281 L 213.671875 176.582031 L 213.679688 177.035156 L 211.875 179.234375 L 210.832031 181.601563 L 209.382813 183.425781 L 207.15625 188.339844 L 207.121094 188.542969 L 206.878906 188.996094 L 206.152344 192.359375 L 206.320313 194.324219 L 206.226563 194.742188 L 203.9375 198.859375 L 203.882813 199.253906 L 203.128906 200.808594 L 202.453125 204.480469 L 200.949219 206.4375 L 199.179688 207.605469 L 197.078125 210.023438 L 197.433594 210.839844 L 197.785156 210.703125 L 197.761719 211.238281 L 197.257813 212.886719 L 195.375 216.316406 L 191.214844 219.742188 L 185.519531 221.085938 L 182.847656 221.226563 L 177.804688 225.21875 L 178.117188 225.714844 L 179.84375 225.195313 L 184.609375 222.886719 L 186.457031 221.386719 L 187.289063 221.316406 L 189.085938 221.875 L 189.332031 222.921875 L 188.898438 224.691406 L 189.238281 225.953125 L 190.898438 226.824219 L 192.988281 227.191406 L 194.417969 228.699219 L 194.257813 229.472656 L 192.117188 231.570313 L 189.460938 232.730469 L 188.34375 232.882813 L 187.070313 232.078125 L 185.40625 232.042969 L 181.046875 235.800781 L 180.578125 237.003906 L 174.761719 240.109375 L 170.214844 238.117188 L 166.480469 238.003906 L 166.738281 239.222656 L 168.246094 240.195313 L 178.0625 241.875 L 182.921875 243.167969 L 186.398438 241.730469 L 187.519531 239.417969 L 188.617188 238.355469 L 189.539063 238.171875 L 193.183594 238.5 L 199.339844 242.761719 L 206.488281 246.65625 L 206.605469 246.890625 L 207.175781 249.390625 L 208.695313 252.164063 L 211.941406 256.019531 L 214.199219 257.816406 L 216.269531 260.332031 L 218.078125 261.691406 L 218.078125 273.324219 L 216.84375 276.40625 L 216.53125 279.714844 L 216.976563 282.363281 L 218.078125 284.953125 L 217.917969 287.207031 L 218.28125 291.777344 L 219.582031 295.257813 L 221.632813 297.890625 L 224.457031 299.890625 L 226.617188 300.722656 L 228.898438 301.105469 L 231.339844 301.015625 L 232.746094 300.667969 L 234.019531 301.261719 L 235.351563 303.714844 L 238.050781 306.246094 L 241.535156 307.835938 L 245.214844 308.214844 L 244.910156 311.386719 L 245.515625 314.644531 L 246.945313 317.492188 L 249.09375 319.847656 L 248.820313 323.527344 L 249.765625 327.226563 L 251.121094 329.539063 L 252.96875 331.476563 L 251.238281 334.023438 L 250.210938 337.058594 L 250.128906 338.585938 L 245.550781 339.511719 L 244.589844 338.644531 L 243.40625 338.558594 L 241.210938 339.871094 L 241.886719 340.445313 L 246.324219 340.394531 L 249.617188 339.34375 L 250.089844 339.292969 L 250.042969 340.128906 L 250.726563 343.261719 L 252.316406 346.1875 L 254.640625 348.535156 L 257.515625 350.132813 L 260.722656 350.863281 L 260.128906 353.464844 L 260.140625 356.136719 L 260.722656 358.617188 L 261.0625 362.15625 L 262.59375 365.644531 L 259.296875 365.695313 L 253.640625 367.097656 L 250.765625 368.695313 L 248.363281 371.144531 L 246.683594 374.457031 L 246.132813 378.128906 L 246.765625 381.789063 L 248.519531 385.058594 L 250.148438 386.867188 L 251.875 388.179688 L 253.933594 389.199219 L 256.027344 389.773438 L 258.445313 389.9375 L 263.023438 389.53125 L 266.898438 388.257813 L 269.003906 386.804688 L 270.664063 385.027344 L 271.917969 382.945313 L 272.742188 380.53125 L 273.015625 378.253906 L 272.816406 375.84375 L 272.417969 374.484375 L 273.40625 371.914063 L 274.707031 370.632813 L 276.578125 370.304688 L 280.109375 370.910156 L 283.488281 370.332031 L 284.253906 370.867188 L 286.703125 370.742188 L 293.949219 371.515625 L 296.914063 372.84375 L 300.621094 375.558594 L 301.199219 376.292969 L 303.371094 378 L 305.4375 380.519531 L 305.53125 380.585938 L 306.730469 384.164063 L 306.765625 384.683594 L 306.582031 385.753906 L 307.003906 388.429688 L 307.179688 391.25 L 306.777344 393.191406 L 306.890625 393.976563 L 305.789063 396.917969 L 305.183594 399.824219 L 303.925781 402.410156 L 303.246094 406.136719 L 303.328125 408.035156 L 301.257813 410.207031 L 299.816406 411.023438 L 297.242188 414.023438 L 297.078125 414.421875 L 295.578125 412.011719 L 292.742188 410.515625 L 292.480469 410.636719 L 293.898438 413.703125 L 295.890625 416.628906 L 296.140625 416.707031 L 295.933594 417.214844 L 295.84375 418.152344 L 294.574219 419.804688 L 292.191406 421.289063 L 290.003906 421.65625 L 289.660156 421.574219 L 288.214844 419.332031 L 284.976563 421.730469 L 280.71875 424.230469 L 282.339844 425.378906 L 285.105469 424.398438 L 286.097656 423.375 L 286.894531 423.164063 L 287.328125 423.710938 L 287.632813 428.84375 L 285.6875 430.875 L 283.441406 432.558594 L 282.84375 432.699219 L 279.644531 432.160156 L 274.75 433.78125 L 272.609375 436.117188 L 274.253906 436.015625 L 275.152344 434.667969 L 276.683594 434.363281 L 278.285156 434.328125 L 281.054688 434.949219 L 281.828125 435.589844 L 281.691406 436.328125 L 279.554688 436.347656 L 277.390625 437.65625 L 277.96875 438.546875 L 281.382813 438.964844 L 286.863281 440.339844 L 289.394531 439.9375 L 291.074219 438.957031 L 296.363281 438.226563 L 299.492188 440.03125 L 299.492188 447.785156 L 295.582031 448.808594 L 292.261719 451.109375 L 290.421875 453.035156 L 289.167969 454.9375 L 288.269531 457.171875 L 288.109375 458.058594 L 286.253906 458.289063 L 284.1875 457.9375 L 282.21875 459.796875 L 281.257813 459.972656 L 278.523438 461.300781 L 277.554688 462.144531 L 274.789063 462.777344 L 274.371094 462.972656 L 272.355469 462.628906 L 268.476563 463.292969 L 264.601563 463.292969 L 261.886719 462.15625 L 258.976563 461.734375 L 255.804688 462.121094 L 252.96875 463.292969 L 250.605469 462.289063 L 248.082031 461.824219 L 245.515625 461.929688 L 243.035156 462.59375 L 241.085938 463.574219 L 239.398438 464.867188 L 237.714844 463.296875 L 231.496094 463.171875 L 231.378906 463.496094 L 232.574219 464.835938 L 232.214844 465.75 L 231.738281 466.042969 L 226.691406 465.496094 L 219.566406 468.449219 L 217.054688 467.824219 L 210.222656 468.96875 L 208.164063 468.875 L 207.273438 468.058594 L 206.238281 469.769531 L 209.429688 471.089844 L 209.714844 470.9375 L 209.976563 471.601563 L 208.378906 472.6875 L 206.855469 474.453125 L 206.84375 474.453125 L 204.453125 473.097656 L 204.179688 473.019531 L 203.832031 472.726563 L 200.8125 471.421875 L 197.195313 470.890625 L 190.9375 471.046875 L 190.851563 471.007813 L 190.289063 470.589844 L 185.898438 468.519531 L 183.121094 467.984375 L 181.648438 469.066406 L 176.207031 469.78125 L 174.339844 470.335938 L 168.992188 473.234375 L 168.214844 474.070313 L 167.203125 476.179688 L 162.746094 489.226563 L 160.929688 490.242188 L 158.269531 489.722656 L 157.554688 489.058594 L 156.527344 486.851563 L 154.683594 485.4375 L 153.613281 485.542969 L 152.417969 486.300781 L 151.738281 486.164063 L 148.46875 482.535156 L 142.796875 482.960938 L 141.527344 483.375 L 140.734375 484.175781 L 139.910156 484.507813 L 134.507813 484.320313 L 132.167969 484.859375 L 129.414063 488.195313 L 126.714844 489.746094 L 124.039063 490.597656 L 123.132813 494.289063 L 123.664063 495.292969 L 123.65625 495.332031 L 123.039063 495.839844 L 121.933594 497.214844 L 120.660156 497.648438 L 120.394531 498.183594 L 118.253906 498.183594 L 117.96875 497.691406 L 118.09375 496.4375 L 117.15625 494.691406 L 115.984375 493.691406 L 112.253906 492.070313 L 111.410156 491.984375 L 110.375 492.488281 L 110.242188 494.183594 L 110.183594 494.25 L 108.816406 494.003906 L 105.644531 494.308594 L 105.441406 494.242188 L 105.628906 491.574219 L 106.074219 490.5625 L 106.886719 490.203125 L 107.890625 490.023438 L 110.125 489.125 L 111.105469 488.355469 L 111.738281 488.078125 L 112.199219 488.253906 L 112.445313 488.9375 L 113.574219 489.15625 L 118.144531 485.910156 L 121.425781 483.085938 L 124.375 479.769531 L 125.210938 477.886719 L 124.945313 476.722656 L 126.046875 475.847656 L 127.769531 473.621094 L 127.824219 473.503906 L 128.386719 473.238281 L 132.105469 472.640625 L 132.679688 471.785156 L 133.257813 469.527344 L 135.859375 467.5625 L 138.636719 464.640625 L 139.128906 458.542969 L 139.796875 454.753906 L 142.492188 455.105469 L 144.269531 456.015625 L 145.761719 455.429688 L 148.429688 452.488281 L 148.105469 447.519531 L 151.105469 446.613281 L 157.421875 446.269531 L 159.910156 445.683594 L 164.597656 446.761719 L 166.046875 446.148438 L 167.527344 446.515625 L 169.484375 447.285156 L 170.039063 448.109375 L 170.757813 448.421875 L 173.15625 448.464844 L 180.570313 447.503906 L 181.109375 445.632813 L 181.210938 443.15625 L 182.519531 440.25 L 190.867188 432.195313 L 195.792969 425.3125 L 197.929688 424.472656 L 198.285156 423.78125 L 198.070313 423.238281 L 197.8125 423.082031 L 196.09375 424.355469 L 192.90625 427.300781 L 190.570313 429.988281 L 189.222656 431.449219 L 185.628906 432.957031 L 183.714844 433.246094 L 182.441406 433.0625 L 178.394531 435.230469 L 177.398438 436.808594 L 177.039063 438.671875 L 176.445313 439.273438 L 174.058594 439.917969 L 170.558594 439.851563 L 166.820313 439 L 166.347656 438.652344 L 161.371094 433.375 L 159.03125 429.199219 L 155.65625 429.589844 L 149.269531 432.308594 L 149.113281 432.746094 L 147.203125 431.632813 L 146.917969 429.308594 L 148.539063 428.378906 L 150.066406 428.890625 L 151.640625 428.421875 L 152.765625 427.832031 L 153.085938 427.097656 L 152.808594 426.597656 L 147.785156 426.460938 L 143.210938 423.710938 L 139.503906 423.714844 L 136.765625 424.277344 L 136.292969 426.515625 L 135.777344 427.203125 L 133.742188 427.917969 L 132.394531 427.265625 L 131.671875 427.445313 L 130.382813 426.339844 L 129.089844 425.683594 L 131.792969 424.328125 L 131.226563 422.867188 L 130.640625 424.257813 L 127.769531 424.613281 L 122.949219 424.152344 L 121.496094 423.164063 L 124.125 421.78125 L 125.167969 421.753906 L 125.464844 421.238281 L 124.929688 417.953125 L 123.328125 417.210938 L 121.445313 417.105469 L 121.683594 416.351563 L 123.324219 415.0625 L 123.925781 414.300781 L 125.933594 413.378906 L 126.242188 412.625 L 128.117188 412.207031 L 129.082031 411.6875 L 133.074219 411.34375 L 134.871094 409.289063 L 135.753906 407.632813 L 137.585938 406.550781 L 141.359375 406.660156 L 142.21875 406.390625 L 149.359375 401.828125 L 152.136719 398.207031 L 153.054688 396.195313 L 154.199219 391.746094 L 153.734375 388.820313 L 152.566406 386.542969 L 153.179688 384.597656 L 154.652344 381.796875 L 152.269531 378.203125 L 152.683594 374.835938 L 153.175781 374.082031 L 152.804688 373.207031 L 150.203125 373.105469 L 145.449219 374.257813 L 143.757813 375.484375 L 142.039063 378.097656 L 141.507813 378.132813 L 139.289063 377.859375 L 136.660156 378 L 136.660156 377.304688 L 137.339844 376.066406 L 140.148438 373.019531 L 141.023438 372.414063 L 142.589844 371.953125 L 147.132813 367.984375 L 147.953125 364.523438 L 151.550781 360.582031 L 153.09375 359.609375 L 154.941406 359.808594 L 160.199219 357.582031 L 161.925781 358.304688 L 165.800781 358.777344 L 170.480469 358.273438 L 174.21875 356.601563 L 175.183594 355.644531 L 179.910156 359.441406 L 180.433594 358.429688 L 177.679688 353.460938 L 178.242188 352.835938 L 180.867188 352.449219 L 181.503906 352.695313 L 181.914063 353.875 L 182.898438 354.332031 L 184.078125 356.789063 L 185.613281 357.902344 L 188.359375 357.621094 L 190.335938 355.148438 L 189.90625 355.050781 L 188.667969 355.527344 L 188.3125 355.957031 L 186.378906 356.386719 L 183.8125 354.640625 L 179.976563 346.332031 L 180.308594 345.738281 L 181.761719 343.921875 L 182.503906 341.808594 L 183.089844 340.761719 L 183.304688 344.773438 L 184.195313 347.855469 L 186.0625 350.769531 L 188.816406 353.070313 L 191.765625 354.332031 L 194.816406 354.738281 L 197.695313 357.824219 L 201.363281 359.644531 L 203.636719 360.070313 L 205.945313 360.035156 L 208.207031 359.542969 L 210.324219 358.617188 L 212.316406 360.234375 L 214.617188 361.375 L 217.113281 361.984375 L 219.679688 362.03125 L 222.558594 361.386719 L 225.078125 360.113281 L 227.214844 358.269531 L 228.84375 355.964844 L 229.734375 353.828125 L 230.167969 351.6875 L 230.1875 349.378906 L 229.707031 346.984375 L 230.273438 344.632813 L 230.328125 342.089844 L 229.902344 339.835938 L 229.042969 337.703125 L 227.78125 335.777344 L 226.164063 334.140625 L 224.367188 332.910156 L 222.371094 332.042969 L 220.25 331.558594 L 218.078125 331.476563 L 216.503906 330.003906 L 214.574219 328.789063 L 212.445313 327.972656 L 210.324219 327.601563 L 209.300781 323.644531 L 206.976563 320.289063 L 203.632813 317.941406 L 199.6875 316.894531 L 196.746094 317.023438 L 193.933594 317.886719 L 191.527344 319.351563 L 189.167969 321.683594 L 187.839844 323.863281 L 187.019531 326.28125 L 186.746094 328.945313 L 187.0625 331.476563 L 184.605469 334.539063 L 183.308594 338.242188 L 183.105469 329.90625 L 184.695313 329.191406 L 187.28125 323.421875 L 187.71875 320.933594 L 187.855469 317.484375 L 184.742188 320.527344 L 179.992188 323.023438 L 178.785156 321.691406 L 175.816406 320.058594 L 175.296875 319.160156 L 174.949219 317.359375 L 174.003906 315.144531 L 172.5625 313.332031 L 172.289063 311.832031 L 167.40625 304.652344 L 169.164063 299.058594 L 174.074219 288.722656 L 176.464844 286.417969 L 178.757813 285.980469 L 180.191406 286.804688 L 181.015625 286.710938 L 182.933594 286.238281 L 183.03125 285.160156 L 182.34375 284.746094 L 180.035156 285.351563 L 174.65625 284.980469 L 172.566406 284.292969 L 169.453125 284.03125 L 168.226563 288.992188 L 166.234375 288.695313 L 163.3125 290.011719 L 161.832031 291.855469 L 159.410156 293.515625 L 156.15625 293.3125 L 155.160156 292.984375 L 149.984375 289.230469 L 149.214844 288.042969 L 149.230469 287.167969 L 148.945313 287.023438 L 148.15625 288.078125 L 147.988281 288.910156 L 148.375 290.554688 L 149.574219 292.960938 L 149.839844 295.726563 L 149.308594 296.871094 L 148.746094 297.058594 L 145.816406 295.78125 L 144.601563 294.238281 L 144.507813 293.621094 L 143.632813 292.355469 L 141.613281 291.4375 L 140.164063 290.433594 L 138.398438 288.636719 L 137.464844 288.296875 L 135.511719 289.683594 L 134.605469 291.238281 L 135.976563 295.472656 L 136.734375 296.308594 L 136.769531 296.636719 L 136.660156 296.585938 L 134.953125 294.414063 L 134.167969 293.796875 L 133.472656 292.679688 L 132.605469 291.683594 L 132.410156 290.585938 L 131.59375 288.457031 L 130.378906 286.527344 L 129.355469 285.433594 L 129.300781 285.09375 L 129.71875 282.265625 L 132.777344 280.410156 L 134.003906 276.632813 L 137.757813 273.035156 L 138.601563 268.871094 L 140.917969 265.085938 L 143.644531 263.800781 L 144.390625 261.886719 L 144.195313 260.621094 L 142.601563 256.71875 L 139.777344 254.832031 L 137.378906 252.511719 L 138.6875 242.234375 L 140.710938 241.59375 L 142.886719 242.511719 L 146.15625 243.175781 L 148.300781 243.253906 L 141.261719 240.453125 L 140.441406 240.5625 L 139.386719 240.085938 L 139.183594 238.121094 L 139.414063 236.460938 L 140.238281 234.648438 L 139.292969 234.9375 L 138.320313 240.257813 L 136.15625 245.152344 L 135.023438 244.945313 L 131.566406 242.222656 L 130.757813 242.5 L 130.269531 243.347656 L 130.09375 244.535156 L 130.664063 246.308594 L 130.519531 246.613281 L 128.257813 245.464844 L 127.46875 243.074219 L 128.453125 238.691406 L 131.230469 234.078125 L 136.953125 229.316406 L 138.316406 227.601563 L 135.558594 229.292969 L 130.363281 233.964844 L 126.449219 238.917969 L 125.671875 238.734375 L 125.460938 238.363281 L 126.1875 249.699219 L 124.449219 251.558594 L 123.367188 254.191406 L 121.183594 263.964844 L 122.0625 266.289063 L 120.679688 268.164063 L 119.945313 268.597656 L 117.425781 268.851563 L 118.023438 266.457031 L 117.9375 263.25 L 117.371094 261.441406 L 117.992188 256.269531 L 120.664063 249.058594 L 119.164063 246.890625 L 119.359375 242.367188 L 121.945313 238.054688 L 122.191406 237.09375 L 120.824219 237.742188 L 119.636719 239.75 L 119.449219 238.929688 L 123.929688 230.9375 L 123.671875 230.734375 L 122.386719 231.796875 L 121.808594 231.777344 L 122.070313 227.40625 L 122.761719 224.691406 L 124.160156 221.96875 L 126.660156 220.210938 L 128.792969 220.179688 L 129.328125 220.484375 L 131.4375 220.320313 L 134.28125 217.339844 L 135.300781 215.007813 L 134.855469 215.347656 L 134.105469 217.117188 L 131.898438 219.546875 L 131.125 219.644531 L 127.28125 218.265625 L 127.882813 216.460938 L 128.195313 216.742188 L 128.945313 216.671875 L 131.070313 215.113281 L 129.507813 214.882813 L 128.550781 215.441406 L 127.980469 214.949219 L 127.875 213.785156 L 129.65625 210.6875 L 134.21875 205.03125 L 134.59375 204.003906 L 123.476563 215.398438 L 120.675781 217.269531 L 120.230469 216.390625 L 115.878906 214.433594 L 114.8125 213.664063 L 113.113281 211.414063 L 113.132813 210.632813 L 113.96875 210.082031 L 116.167969 209.980469 L 120.585938 209.09375 L 123.988281 209.15625 L 124.257813 209.050781 L 124.117188 208.789063 L 119.15625 207.757813 L 117.03125 209.015625 L 115.34375 209.1875 L 108.898438 208.554688 L 108.144531 207.871094 L 107.96875 206.789063 L 109.109375 205.527344 L 114.792969 204.496094 L 115.882813 205.636719 L 117.070313 206.34375 L 118.480469 204.378906 L 117.316406 203.507813 L 117.253906 202.640625 L 119.675781 202.136719 L 120.503906 202.316406 L 121.824219 201.292969 L 121.664063 200.792969 L 120.140625 199.953125 L 116.804688 200.417969 L 115.804688 199.949219 L 118.253906 195.210938 L 118.835938 194.789063 L 120.441406 194.839844 L 120.773438 195.527344 L 122.574219 196.710938 L 124.417969 196.351563 L 125.527344 195.796875 L 122.886719 196.148438 L 119.445313 193.175781 L 119.640625 191.949219 L 120.992188 190.507813 L 122.769531 190.464844 L 125.425781 191.839844 L 128.601563 191.21875 L 128.128906 190.679688 L 126.691406 190.847656 L 125.089844 190.582031 L 122.863281 188.511719 L 123.117188 185.351563 L 125.410156 184.53125 L 125.660156 184.984375 L 127.679688 186.175781 L 128.171875 186.347656 L 128.714844 185.882813 L 126.332031 183.683594 L 124.980469 183.324219 L 124.4375 181.292969 L 125.035156 181.238281 L 127.738281 179.023438 L 128.101563 177.597656 L 126.824219 178.363281 L 120.484375 180.664063 L 119.382813 179.570313 L 118.449219 174.53125 L 119.160156 171.589844 L 119.90625 171.207031 L 120.617188 170.59375 L 120.859375 170.738281 L 121.429688 171.886719 L 123.644531 173.570313 L 124.390625 172.890625 L 127 172.59375 L 126.421875 171.808594 L 123.910156 171.675781 L 123.300781 171.917969 L 121.667969 169.699219 L 121.945313 169.460938 L 123.53125 167.292969 L 124.582031 164.820313 L 125.003906 162.558594 L 125.007813 162.476563 L 125.066406 162.535156 L 125.355469 162.453125 L 126.003906 159.773438 L 125.117188 158.859375 L 125.144531 157.886719 L 124.902344 156.4375 L 125.515625 155.699219 L 128.898438 158.675781 L 129.609375 156.898438 L 131.765625 156.140625 L 134.503906 157.136719 L 136.507813 158.589844 L 137.039063 159.417969 L 137.175781 158.679688 L 135.242188 155.121094 L 133.609375 154.054688 L 130.640625 151.316406 L 129.429688 149.296875 L 129.746094 148.554688 L 130.132813 148.371094 L 132.507813 149.96875 L 133.015625 149.894531 L 133.449219 149.351563 L 133.714844 146.386719 L 133.191406 146.265625 L 132.121094 144.152344 L 132.742188 141.675781 L 135.539063 142.054688 L 138.566406 141.597656 L 137.367188 140.554688 L 136.4375 137.917969 L 136.660156 137.628906 L 139.179688 135.5625 L 140.539063 133.753906 L 143.710938 134.058594 L 146.105469 133.625 L 145.957031 133.847656 L 146.042969 134.238281 L 146.839844 133.492188 L 146.84375 133.492188 L 149.710938 132.097656 L 152.167969 129.875 L 153.507813 130.121094 L 153.609375 130.328125 L 157.023438 130.710938 L 160.800781 130.042969 L 163.417969 130.535156 L 165.578125 130.40625 L 167.675781 129.875 L 171.554688 129.875 L 175.183594 130.402344 L 177.453125 130.148438 L 179.507813 129.503906 L 179.804688 131.769531 L 180.535156 133.933594 L 181.679688 135.914063 L 183.183594 137.628906 L 181.285156 139.074219 L 179.308594 141.507813 L 178.691406 142.027344 L 177.402344 142.480469 L 176.097656 143.761719 L 173.898438 147.148438 L 173.835938 147.226563 L 173.835938 147.230469 L 162.601563 156.074219 L 162.234375 157.082031 L 162.671875 158.175781 L 162.078125 159.632813 L 159.644531 160.289063 L 156.839844 159.359375 L 153.464844 157.734375 L 154.464844 159.796875 L 155.875 160.457031 L 161.363281 161.917969 L 164.042969 162.292969 L 165.242188 161.992188 L 166.015625 161.605469 L 166.75 160.257813 L 167.589844 160.183594 L 167.507813 160.828125 L 166.417969 162.609375 L 162.722656 166.96875 L 162.175781 167.183594 L 161.726563 166.894531 L 161.859375 165.949219 L 161.53125 165.507813 L 159.984375 165.785156 L 155.320313 167.769531 L 152.441406 170.8125 L 151.949219 171.945313 L 152.140625 172.144531 L 156.390625 168.453125 L 157.75 167.980469 L 160.300781 168.324219 L 161.058594 169.320313 L 157.109375 173.804688 L 156.367188 175.339844 L 156.707031 175.816406 L 157.367188 175.984375 L 158.261719 175.542969 L 161.140625 173.015625 L 167.808594 170.273438 L 170.480469 169.527344 L 170.492188 169.949219 L 171.554688 169.839844 L 173.589844 168.316406 L 174.046875 166.78125 L 178.648438 166.167969 L 179.285156 167.089844 L 180.148438 167.667969 L 184.320313 169.011719 L 185.445313 168.378906 L 185.679688 168.449219 L 188.558594 168.800781 L 190.9375 168.644531 L 194.6875 169.3125 L 197.882813 168.78125 L 199.164063 168.988281 L 204.117188 168.914063 L 204.449219 168.644531 L 209.863281 168.644531 L 210.3125 168.835938 Z M 239.179688 465.109375 L 238.257813 466.214844 L 238.210938 466.1875 L 238.632813 465.4375 Z M 232.71875 471.742188 L 231.238281 472.933594 L 230.371094 474.058594 L 229.960938 474.269531 L 228.117188 474.644531 L 222.296875 470.886719 L 221.347656 471.023438 L 220.617188 470.699219 L 221.476563 469.683594 L 227.316406 466.367188 L 232.550781 467.761719 L 234.171875 469.894531 Z M 140.539063 357.78125 L 140.539063 355.167969 L 140.597656 355.164063 L 141.484375 356.3125 L 142.226563 358.1875 L 141.734375 358.875 L 141.003906 358.070313 Z M 144.046875 351.464844 L 144.414063 351.527344 L 146.644531 351.144531 L 149.566406 352.007813 L 151.039063 355.578125 L 155.546875 356.503906 L 154.066406 358.859375 L 150.984375 360.816406 L 147.425781 363.976563 L 146.109375 363.875 L 144.195313 361.613281 L 142.050781 357.363281 L 142.246094 352.273438 Z M 149.707031 311.234375 L 148.765625 313.453125 L 148.292969 315.96875 L 146.121094 317.675781 L 144.414063 319.847656 L 141.898438 321.917969 L 141.203125 322.839844 L 139.824219 322.464844 L 137.933594 323.433594 L 137.675781 322.921875 L 139.628906 317.199219 L 140.410156 316.257813 L 142.300781 315.023438 L 144.765625 310.230469 L 145.863281 309.40625 L 149.046875 308.269531 Z M 108.777344 253.238281 L 107.480469 252.015625 L 105.15625 250.683594 L 104.136719 250.429688 L 104.988281 247.472656 L 102.980469 247.105469 L 101.464844 249.738281 L 101.402344 249.800781 L 98.777344 249.996094 L 99.023438 248.875 L 99.132813 248.535156 L 100.28125 247.117188 L 101.289063 244.792969 L 101.539063 243.503906 L 102.445313 243.214844 L 103.882813 243.558594 L 106.871094 241.457031 L 108.433594 240.808594 L 108.667969 241.335938 L 108.480469 243.175781 L 108.777344 246.292969 L 109.046875 247.320313 L 109.929688 248.226563 L 110.335938 251.851563 L 108.992188 253.109375 Z M 105.691406 226.507813 L 105.054688 223.132813 L 105.023438 223.070313 L 105.628906 223.050781 L 106.039063 223.617188 L 106.972656 224.074219 L 112.214844 222.164063 L 112.035156 221.589844 L 109.863281 222.445313 L 108.199219 222.488281 L 107.824219 221.539063 L 109.386719 219.472656 L 112.601563 217.957031 L 112.90625 216.820313 L 112.554688 216.699219 L 109.90625 217.519531 L 105.058594 214.074219 L 105.636719 211.667969 L 108.914063 210.140625 L 110.03125 209.789063 L 110.59375 209.929688 L 111.976563 210.636719 L 113.289063 212.988281 L 113.785156 214.699219 L 116.457031 215.945313 L 117.929688 216.300781 L 121.195313 219.144531 L 120.902344 221.207031 L 119.445313 223.339844 L 116.335938 225.03125 L 115.453125 224.539063 L 116.136719 223.339844 L 115.425781 223.117188 L 112.109375 224.96875 L 106.027344 226.585938 Z M 105.980469 197.039063 L 105.234375 195.488281 L 103.972656 193.875 L 105.34375 192.390625 L 106.722656 192.214844 L 107.992188 192.835938 L 108.445313 193.703125 L 108.09375 196.351563 L 107.546875 197.015625 L 106.597656 197.398438 Z M 101.90625 192.019531 L 101.769531 191.90625 L 101.964844 191.460938 L 102.835938 191.832031 Z M 101.113281 179.484375 L 101.054688 179.382813 L 99.613281 177.742188 L 98.460938 176.84375 L 98.414063 176.53125 L 97.824219 175.890625 L 97.542969 173.785156 L 101.03125 167.96875 L 101.277344 168.003906 L 102.367188 169.160156 L 102.71875 170.644531 L 104.785156 172.40625 L 105.550781 172.625 L 106.789063 171.921875 L 111.371094 173.011719 L 112.316406 173.046875 L 112.300781 173.941406 L 111.832031 177.386719 L 112.054688 181.640625 L 117.5 184.859375 L 120.773438 183.445313 L 123.167969 184.417969 L 122.46875 186.839844 L 119.148438 190.25 L 118.089844 190.683594 L 116.035156 193.449219 L 114.023438 194.042969 L 113.570313 192.609375 L 115.183594 189.4375 L 113.980469 187.324219 L 112.75 189.558594 L 110.542969 187.414063 L 107.277344 187.777344 L 104.472656 183.015625 L 103.78125 181.25 L 105.464844 179.976563 L 107.179688 181.675781 L 107.667969 181.742188 L 107.789063 181.460938 L 102.875 176.632813 L 101.867188 177.609375 L 102.007813 179.089844 L 101.671875 179.800781 Z M 91.164063 165.953125 L 89.695313 165.289063 L 86.921875 164.789063 L 89.542969 164.378906 L 91.023438 165.660156 Z M 95.574219 160.871094 L 95.804688 160.660156 L 97.890625 157.015625 L 98.605469 156.722656 L 98.269531 159.089844 Z M 116.140625 172.757813 L 116.242188 172.734375 L 116.21875 172.839844 Z M 222.054688 60.050781 L 222.097656 58.402344 L 222.21875 59.898438 Z M 222.058594 57.425781 L 221.644531 54.339844 L 221.488281 53.96875 L 222.421875 53.527344 L 222.921875 52.867188 L 223.007813 54.273438 L 224.035156 57.441406 L 225.832031 60.09375 L 225.832031 63.011719 L 225.40625 63.738281 L 225.375 64.492188 L 223.863281 66.226563 L 223.632813 66.6875 L 224.308594 63.570313 L 223.632813 57.773438 Z M 220.675781 49.058594 L 223.300781 49.058594 L 222.855469 51.710938 L 222.914063 52.734375 Z M 179.308594 106.617188 L 181.429688 106.242188 L 183.367188 105.5 L 184.519531 106.003906 L 186.230469 108.273438 L 187.324219 111.371094 L 189.425781 112.382813 L 190.734375 113.441406 L 191.011719 113.945313 L 190.9375 114.371094 L 189.0625 115.796875 L 186.777344 113.90625 L 185.511719 113.988281 L 184.914063 112.664063 L 181.742188 108.59375 Z M 102.523438 138.40625 L 105.703125 140.523438 L 109.523438 141.507813 L 109.925781 143.597656 L 109.761719 143.558594 L 108.839844 144.542969 L 108.40625 145.765625 L 105.6875 146.980469 L 105.359375 147.039063 L 105.445313 146.53125 L 105.175781 143.601563 L 104.179688 140.835938 Z M 108.1875 147.527344 L 104.933594 149.554688 L 105.289063 147.453125 L 105.667969 147.414063 L 108.015625 146.824219 Z M 286.679688 439.636719 L 283.058594 438.976563 L 282.164063 437.605469 L 282.484375 436.070313 L 286.839844 437.054688 L 287.960938 438.832031 Z M 236.835938 466.113281 L 235.136719 465.644531 L 236.523438 463.683594 L 237.195313 464.164063 L 237.5 465.839844 Z M 88.429688 500.046875 L 88.566406 499.308594 L 88.941406 499.117188 L 89.34375 499.789063 Z M 113.875 180.957031 L 113.53125 180.855469 L 113.277344 179.863281 L 113.640625 176.351563 L 114.757813 173.765625 L 115.464844 173.085938 L 116.03125 173.816406 L 115.367188 179.941406 L 114.945313 180.566406 Z M 116.207031 183.113281 L 115.0625 182.589844 L 114.59375 181.914063 L 114.695313 181.441406 L 115.34375 181.214844 L 116.664063 181.757813 L 116.886719 182.648438 Z M 110.160156 200.433594 L 108.972656 199.578125 L 108.9375 198.890625 L 110.578125 197.179688 L 111.398438 197.769531 L 111.5 198.265625 L 111.128906 199.855469 Z M 108.136719 218.074219 L 107.207031 217.691406 L 106.753906 217.160156 L 107.335938 216.378906 L 108.085938 216.507813 L 109.105469 217.519531 L 109.070313 217.820313 Z M 123.378906 222.417969 L 122.582031 222.078125 L 123.082031 221.191406 L 124.476563 221.046875 Z M 121.453125 227.109375 L 121.152344 226.972656 L 120.984375 225.621094 L 121.59375 224.800781 L 122.367188 224.816406 L 121.953125 226.621094 Z M 120.902344 230.566406 L 120.316406 229.273438 L 120.976563 227.386719 L 121.816406 227.683594 Z M 118.503906 231.671875 L 118.15625 231.449219 L 118.535156 230.824219 L 119.917969 230.164063 L 119.953125 231.257813 Z M 111.886719 247.292969 L 110.550781 247.070313 L 109.476563 246.144531 L 109.292969 243.285156 L 109.585938 242.089844 L 112.5625 237.15625 L 116.605469 233.660156 L 119.195313 232.023438 L 119.632813 233.128906 L 119.449219 233.945313 L 118.015625 235.730469 L 113.761719 243.328125 Z M 106.976563 236.632813 L 105.476563 236.191406 L 106.28125 234.464844 L 107.839844 232.910156 L 108.882813 232.734375 L 107.535156 236.1875 Z M 134.8125 251.347656 L 132.589844 248.835938 L 130.84375 244.566406 L 130.707031 243.464844 L 131.460938 242.613281 L 133.71875 244.574219 L 134.707031 246.3125 L 135.339844 249.003906 L 135.222656 250.96875 Z M 130.613281 263.773438 L 129.152344 263.667969 L 126.582031 261.613281 L 125.375 256.128906 L 125.988281 253.21875 L 128.179688 251.246094 L 129.539063 251.441406 L 131.390625 253.015625 L 132.984375 258.382813 L 133.019531 262.765625 L 132.308594 263.453125 Z M 130.613281 263.773438 "/>
</g>
</svg>
