<?xml version="1.0" encoding="UTF-8"?>
<svg xmlns="http://www.w3.org/2000/svg" xmlns:xlink="http://www.w3.org/1999/xlink" width="378pt" height="504pt" viewBox="0 0 378 504" version="1.1">
<g id="data">
<rect x="0" y="0" width="378" height="504" style="fill:rgb(100%,100%,100%);fill-opacity:1;stroke:none;"/>
<path style=" stroke:none;fill-rule:nonzero;fill:rgb(100%,100%,100%);fill-opacity:1;" d="M 53.308594 504 L 324.691406 504 L 324.691406 0 L 53.308594 0 Z M 53.308594 504 "/>
<path style=" stroke:none;fill-rule:nonzero;fill:rgb(22.745098%,53.333333%,16.078431%);fill-opacity:1;" d="M 271.90625 394.921875 L 271.820313 392.371094 L 271.179688 389.898438 L 270.085938 387.734375 L 268.476563 385.753906 L 270.648438 384.046875 L 272.355469 381.875 L 274.605469 382.035156 L 278.148438 381.71875 L 280.257813 381.15625 L 282.226563 380.214844 L 285.058594 377.816406 L 287.042969 374.53125 L 287.597656 378.074219 L 289.203125 381.28125 L 292.023438 384.074219 L 295.617188 385.753906 L 295.996094 389.433594 L 297.515625 392.8125 L 300.015625 395.539063 L 303.371094 397.382813 L 303.371094 407.992188 L 302.570313 408.828125 L 300.890625 408.433594 L 298.21875 408.421875 L 295.25 409.132813 L 292.929688 410.21875 L 289.792969 413.027344 L 287.863281 416.769531 L 284.679688 417.027344 L 281.574219 418.203125 L 278.320313 420.871094 L 276.230469 424.523438 L 272.078125 425.289063 L 270.121094 426.257813 L 268.378906 427.574219 L 266.761719 429.402344 L 265.5625 431.523438 L 264.828125 433.851563 L 264.601563 436.152344 L 261.8125 435.839844 L 259.03125 436.199219 L 256.414063 437.21875 L 254.023438 438.917969 L 251.601563 441.558594 L 250.152344 444.125 L 249.375 447.097656 L 249.40625 450.167969 L 250.289063 453.246094 L 251.898438 455.863281 L 254.136719 457.96875 L 256.847656 459.414063 L 252.96875 458.75 L 249.09375 459.414063 L 247.183594 457.203125 L 244.898438 455.597656 L 242.171875 454.550781 L 239.398438 454.214844 L 240.601563 451.859375 L 241.253906 449.167969 L 241.621094 436.476563 L 241.191406 434.089844 L 240.332031 431.957031 L 239.074219 430.035156 L 237.460938 428.398438 L 239.875 427.222656 L 241.863281 425.613281 L 243.453125 423.609375 L 244.566406 421.308594 L 245.152344 418.816406 L 245.378906 414.769531 L 245.136719 410.742188 L 244.496094 408.160156 L 247.753906 408.804688 L 251.058594 408.5 L 254.253906 407.210938 L 256.847656 405.136719 L 256.53125 411.546875 L 256.753906 413.960938 L 257.851563 417.085938 L 259.789063 419.777344 L 262.800781 422.140625 L 266.277344 423.421875 L 269.980469 423.542969 L 273.535156 422.496094 L 276.671875 420.296875 L 278.921875 417.195313 L 279.707031 415.164063 L 280.109375 412.890625 L 281.25 410.035156 L 281.578125 406.460938 L 280.804688 402.957031 L 278.921875 399.757813 L 275.050781 396.453125 Z M 237.460938 331.476563 L 237.691406 333.777344 L 238.324219 335.867188 L 239.402344 337.910156 L 240.867188 339.699219 L 242.65625 341.164063 L 244.699219 342.246094 L 246.792969 342.878906 L 249.09375 343.109375 L 248.425781 346.984375 L 249.09375 350.863281 L 245.214844 350.195313 L 241.339844 350.863281 L 239.113281 350.3125 L 236.824219 350.214844 L 233.585938 350.863281 L 235.78125 347.257813 L 236.546875 343.109375 L 235.78125 338.957031 L 233.585938 335.355469 L 235.753906 333.648438 Z M 202.570313 463.292969 L 206.25 462.910156 L 209.734375 461.320313 L 212.433594 458.789063 L 214.199219 455.539063 L 216.660156 457.757813 L 219.644531 459.191406 L 222.53125 459.714844 L 227.109375 459.558594 L 224.191406 460.460938 L 221.605469 462.089844 L 219.460938 464.445313 L 218.078125 467.167969 L 215.195313 467.042969 L 211.472656 467.726563 L 209.03125 468.914063 L 208.164063 468.875 L 207.273438 468.058594 L 206.238281 469.769531 L 207.375 470.238281 L 206.445313 471.046875 L 206.070313 468.925781 L 205.257813 466.792969 L 204.042969 464.863281 Z M 202.570313 397.382813 L 202.273438 399.414063 L 198.691406 397.382813 Z M 171.554688 226.800781 L 174.375 226.621094 L 177.066406 225.765625 L 177.84375 225.28125 L 178.117188 225.714844 L 179.84375 225.195313 L 184.609375 222.886719 L 186.457031 221.386719 L 186.910156 221.347656 L 187.0625 222.921875 L 183.683594 224.457031 L 181.039063 226.875 L 179.257813 229.984375 L 178.507813 233.484375 L 177.316406 231.238281 L 175.757813 229.386719 L 173.738281 227.835938 Z M 181.117188 222.597656 L 181.53125 222.167969 L 182.9375 219.71875 L 183.714844 217 L 183.8125 214.175781 L 183.183594 211.292969 L 190.9375 211.292969 L 188.792969 213.644531 L 187.363281 216.496094 L 186.757813 219.75 L 186.855469 220.773438 L 185.519531 221.085938 L 182.847656 221.226563 Z M 181.117188 222.597656 "/>
</g>
</svg>
