<?xml version="1.0" encoding="UTF-8"?>
<svg xmlns="http://www.w3.org/2000/svg" xmlns:xlink="http://www.w3.org/1999/xlink" width="378pt" height="504pt" viewBox="0 0 378 504" version="1.1">
<g id="data">
<rect x="0" y="0" width="378" height="504" style="fill:rgb(100%,100%,100%);fill-opacity:1;stroke:none;"/>
<path style=" stroke:none;fill-rule:nonzero;fill:rgb(100%,100%,100%);fill-opacity:1;" d="M 53.308594 504 L 324.691406 504 L 324.691406 0 L 53.308594 0 Z M 53.308594 504 "/>
<path style=" stroke:none;fill-rule:nonzero;fill:rgb(22.745098%,53.333333%,16.078431%);fill-opacity:1;" d="M 287.863281 389.628906 L 291.421875 388.757813 L 293.738281 387.457031 L 295.617188 385.753906 L 296.148438 386.113281 L 298.703125 388.632813 L 300.367188 391.8125 L 300.984375 395.34375 L 300.53125 398.773438 L 299.492188 401.261719 L 297.125 401.707031 L 294.792969 402.6875 L 292.917969 403.984375 L 290.835938 406.03125 L 288.78125 409.214844 L 287.863281 412.890625 L 283.96875 413.5625 L 280.421875 415.582031 L 280.109375 412.890625 L 281.476563 408.898438 L 281.328125 404.679688 L 280.609375 402.484375 L 279.542969 400.578125 L 278.046875 398.816406 L 276.230469 397.382813 L 276.386719 395.007813 L 276.0625 392.261719 L 275.421875 390.09375 L 274.441406 388.199219 L 277.460938 390.136719 L 280.921875 391.058594 L 284.503906 390.886719 Z M 241.339844 440.03125 L 247.214844 440.191406 L 249.59375 439.980469 L 252.039063 439.398438 L 254.195313 438.371094 L 250.457031 443.195313 L 249.535156 445.417969 L 249.09375 447.785156 L 246.921875 449.492188 L 245.214844 451.660156 L 243.507813 449.492188 L 241.339844 447.785156 L 242.003906 443.90625 Z M 202.570313 463.292969 L 206.445313 463.292969 L 208.117188 464.84375 L 209.949219 465.980469 L 211.957031 466.761719 L 214.199219 467.167969 L 212.078125 467.542969 L 209.949219 468.359375 L 209.0625 468.914063 L 208.164063 468.875 L 207.273438 468.058594 L 206.238281 469.769531 L 207.328125 470.21875 L 206.445313 471.046875 L 206.039063 468.800781 L 205.257813 466.792969 L 204.042969 464.863281 Z M 202.570313 463.292969 "/>
<path style=" stroke:none;fill-rule:nonzero;fill:rgb(80.392157%,58.431373%,4.705882%);fill-opacity:1;" d="M 204.507813 397.382813 L 204.222656 399.183594 L 203.398438 400.804688 L 202.109375 402.089844 L 200.488281 402.914063 L 198.691406 403.199219 L 196.894531 402.914063 L 195.273438 402.089844 L 193.988281 400.804688 L 193.160156 399.183594 L 192.875 397.382813 L 193.160156 395.585938 L 193.988281 393.964844 L 195.273438 392.679688 L 196.894531 391.855469 L 198.691406 391.570313 L 200.488281 391.855469 L 202.109375 392.679688 L 203.398438 393.964844 L 204.222656 395.585938 Z M 204.507813 397.382813 "/>
<path style=" stroke:none;fill-rule:nonzero;fill:rgb(80.392157%,58.431373%,4.705882%);fill-opacity:1;" d="M 208.382813 397.382813 L 208.101563 399.183594 L 207.273438 400.804688 L 205.988281 402.089844 L 204.367188 402.914063 L 202.570313 403.199219 L 200.773438 402.914063 L 199.152344 402.089844 L 197.863281 400.804688 L 197.039063 399.183594 L 196.753906 397.382813 L 197.039063 395.585938 L 197.863281 393.964844 L 199.152344 392.679688 L 200.773438 391.855469 L 202.570313 391.570313 L 204.367188 391.855469 L 205.988281 392.679688 L 207.273438 393.964844 L 208.101563 395.585938 Z M 208.382813 397.382813 "/>
<path style=" stroke:none;fill-rule:nonzero;fill:rgb(80.392157%,58.431373%,4.705882%);fill-opacity:1;" d="M 243.277344 401.261719 L 242.992188 403.058594 L 242.167969 404.679688 L 240.878906 405.964844 L 239.257813 406.792969 L 237.460938 407.078125 L 235.664063 406.792969 L 234.042969 405.964844 L 232.757813 404.679688 L 231.929688 403.058594 L 231.644531 401.261719 L 231.929688 399.464844 L 232.757813 397.84375 L 234.042969 396.558594 L 235.664063 395.730469 L 237.460938 395.445313 L 239.257813 395.730469 L 240.878906 396.558594 L 242.167969 397.84375 L 242.992188 399.464844 Z M 243.277344 401.261719 "/>
<path style=" stroke:none;fill-rule:nonzero;fill:rgb(80.392157%,58.431373%,4.705882%);fill-opacity:1;" d="M 262.660156 405.136719 L 262.375 406.933594 L 261.550781 408.558594 L 260.265625 409.84375 L 258.644531 410.667969 L 256.847656 410.953125 L 255.050781 410.667969 L 253.429688 409.84375 L 252.140625 408.558594 L 251.316406 406.933594 L 251.03125 405.136719 L 251.316406 403.339844 L 252.140625 401.71875 L 253.429688 400.433594 L 255.050781 399.609375 L 256.847656 399.324219 L 258.644531 399.609375 L 260.265625 400.433594 L 261.550781 401.71875 L 262.375 403.339844 Z M 262.660156 405.136719 "/>
<path style=" stroke:none;fill-rule:nonzero;fill:rgb(80.392157%,58.431373%,4.705882%);fill-opacity:1;" d="M 177.371094 226.800781 L 177.085938 228.597656 L 176.257813 230.21875 L 174.972656 231.503906 L 173.351563 232.332031 L 171.554688 232.617188 L 169.757813 232.332031 L 168.136719 231.503906 L 166.847656 230.21875 L 166.023438 228.597656 L 165.738281 226.800781 L 166.023438 225.003906 L 166.847656 223.382813 L 168.136719 222.09375 L 169.757813 221.269531 L 171.554688 220.984375 L 173.351563 221.269531 L 174.972656 222.09375 L 176.257813 223.382813 L 177.085938 225.003906 Z M 177.371094 226.800781 "/>
<path style=" stroke:none;fill-rule:nonzero;fill:rgb(80.392157%,58.431373%,4.705882%);fill-opacity:1;" d="M 266.539063 432.277344 L 266.253906 434.074219 L 265.429688 435.695313 L 264.140625 436.980469 L 262.519531 437.808594 L 260.722656 438.09375 L 258.925781 437.808594 L 257.304688 436.980469 L 256.019531 435.695313 L 255.191406 434.074219 L 254.90625 432.277344 L 255.191406 430.480469 L 256.019531 428.859375 L 257.304688 427.570313 L 258.925781 426.746094 L 260.722656 426.460938 L 262.519531 426.746094 L 264.140625 427.570313 L 265.429688 428.859375 L 266.253906 430.480469 Z M 266.539063 432.277344 "/>
<path style=" stroke:none;fill-rule:nonzero;fill:rgb(80.392157%,58.431373%,4.705882%);fill-opacity:1;" d="M 285.921875 447.785156 L 285.636719 449.582031 L 284.8125 451.203125 L 283.527344 452.488281 L 281.90625 453.316406 L 280.109375 453.601563 L 278.3125 453.316406 L 276.691406 452.488281 L 275.402344 451.203125 L 274.578125 449.582031 L 274.292969 447.785156 L 274.578125 445.988281 L 275.402344 444.367188 L 276.691406 443.078125 L 278.3125 442.253906 L 280.109375 441.96875 L 281.90625 442.253906 L 283.527344 443.078125 L 284.8125 444.367188 L 285.636719 445.988281 Z M 285.921875 447.785156 "/>
<path style=" stroke:none;fill-rule:nonzero;fill:rgb(80.392157%,58.431373%,4.705882%);fill-opacity:1;" d="M 281.953125 425.105469 L 281.761719 426.320313 L 280.933594 427.941406 L 279.648438 429.226563 L 278.027344 430.054688 L 276.230469 430.339844 L 274.433594 430.054688 L 272.8125 429.226563 L 271.527344 427.941406 L 270.699219 426.320313 L 270.414063 424.523438 L 270.699219 422.726563 L 271.527344 421.105469 L 272.8125 419.816406 L 274.433594 418.992188 L 276.230469 418.707031 L 278.027344 418.992188 L 279.648438 419.816406 L 280.933594 421.105469 L 281.890625 423.542969 L 280.71875 424.230469 Z M 281.953125 425.105469 "/>
<path style=" stroke:none;fill-rule:nonzero;fill:rgb(80.392157%,58.431373%,4.705882%);fill-opacity:1;" d="M 185.125 168.644531 L 184.839844 170.441406 L 184.011719 172.0625 L 182.726563 173.351563 L 181.105469 174.175781 L 179.308594 174.460938 L 177.511719 174.175781 L 175.890625 173.351563 L 174.601563 172.0625 L 173.777344 170.441406 L 173.492188 168.644531 L 174.046875 166.78125 L 178.648438 166.167969 L 179.285156 167.089844 L 180.148438 167.667969 L 184.320313 169.011719 Z M 185.125 168.644531 "/>
<path style=" stroke:none;fill-rule:nonzero;fill:rgb(80.392157%,58.431373%,4.705882%);fill-opacity:1;" d="M 173.683594 239.636719 L 173.492188 238.429688 L 173.777344 236.632813 L 174.601563 235.011719 L 175.890625 233.726563 L 177.511719 232.898438 L 179.308594 232.617188 L 181.105469 232.898438 L 183.0625 234.0625 L 181.046875 235.800781 L 180.578125 237.003906 L 174.761719 240.109375 Z M 182.742188 243.121094 L 181.105469 243.960938 L 179.308594 244.246094 L 177.511719 243.960938 L 175.890625 243.136719 L 174.289063 241.230469 Z M 182.742188 243.121094 "/>
</g>
</svg>
