<?xml version="1.0" encoding="UTF-8"?>
<svg xmlns="http://www.w3.org/2000/svg" xmlns:xlink="http://www.w3.org/1999/xlink" width="378pt" height="504pt" viewBox="0 0 378 504" version="1.1">
<g id="data">
<rect x="0" y="0" width="378" height="504" style="fill:rgb(100%,100%,100%);fill-opacity:1;stroke:none;"/>
<path style=" stroke:none;fill-rule:nonzero;fill:rgb(100%,100%,100%);fill-opacity:1;" d="M 53.308594 504 L 324.691406 504 L 324.691406 0 L 53.308594 0 Z M 53.308594 504 "/>
<path style=" stroke:none;fill-rule:nonzero;fill:rgb(22.745098%,53.333333%,16.078431%);fill-opacity:1;" d="M 285.824219 384.183594 L 286.480469 383.980469 L 289.265625 383.300781 L 290.316406 382.707031 L 291.710938 381.445313 L 293.332031 380.40625 L 295.207031 379.953125 L 297.125 380.136719 L 298.878906 380.941406 L 299.410156 381.300781 L 300.230469 381.972656 L 302.785156 384.492188 L 303.851563 385.933594 L 305.519531 389.109375 L 306.097656 390.808594 L 306.714844 394.34375 L 306.714844 394.441406 L 305.789063 396.917969 L 304.203125 404.546875 L 303.847656 405.113281 L 302.375 406.3125 L 300.59375 406.972656 L 298.71875 407.335938 L 297.617188 407.804688 L 296.636719 408.484375 L 295.375 409.726563 L 294.324219 411.351563 L 292.742188 410.515625 L 292.480469 410.636719 L 293.738281 413.363281 L 293.503906 414.304688 L 292.867188 415.851563 L 291.816406 417.15625 L 290.441406 418.105469 L 288.847656 418.625 L 285.960938 419.121094 L 283.300781 420.636719 L 281.515625 421.292969 L 279.613281 421.339844 L 277.796875 420.773438 L 276.265625 419.648438 L 275.175781 418.085938 L 274.648438 416.257813 L 274.332031 413.570313 L 274.605469 411.007813 L 275.625 408.027344 L 275.546875 405.707031 L 275.257813 404.832031 L 274.742188 403.910156 L 273.988281 403.023438 L 272.628906 401.949219 L 271.367188 400.574219 L 270.609375 398.867188 L 270.425781 397.007813 L 270.546875 395.160156 L 270.34375 393.4375 L 270 392.273438 L 269.273438 390.863281 L 268.691406 389.0625 L 268.71875 387.167969 L 269.351563 385.382813 L 270.527344 383.898438 L 272.117188 382.867188 L 273.953125 382.402344 L 275.84375 382.554688 L 277.582031 383.304688 L 279.835938 384.75 L 281.546875 385.207031 L 283.316406 385.121094 Z M 235.605469 441.015625 L 235.566406 439.308594 L 236.027344 437.660156 L 236.945313 436.222656 L 238.242188 435.109375 L 239.804688 434.421875 L 241.5 434.21875 L 247.035156 434.371094 L 248.65625 434.222656 L 250.09375 433.882813 L 251.695313 433.121094 L 253.34375 432.617188 L 255.0625 432.621094 L 256.710938 433.125 L 258.136719 434.089844 L 259.214844 435.433594 L 259.855469 437.03125 L 260 438.746094 L 259.636719 440.429688 L 258.792969 441.933594 L 255.53125 446.140625 L 255.140625 447.085938 L 254.808594 448.855469 L 254.066406 450.800781 L 252.6875 452.355469 L 251.0625 453.632813 L 249.785156 455.257813 L 248.511719 456.453125 L 246.941406 457.214844 L 245.214844 457.476563 L 243.488281 457.214844 L 241.917969 456.453125 L 240.644531 455.257813 L 239.367188 453.632813 L 237.742188 452.355469 L 236.371094 450.804688 L 235.625 448.871094 L 235.605469 446.800781 L 236.101563 443.90625 Z M 198.324219 467.269531 L 197.261719 465.667969 L 196.777344 463.808594 L 196.925781 461.894531 L 197.6875 460.128906 L 198.984375 458.710938 L 200.675781 457.792969 L 202.570313 457.476563 L 206.445313 457.476563 L 208.582031 457.882813 L 210.421875 459.046875 L 211.585938 460.140625 L 212.5625 460.753906 L 213.636719 461.164063 L 215.210938 461.441406 L 216.910156 462.023438 L 218.351563 463.097656 L 219.398438 464.558594 L 219.945313 466.269531 L 219.945313 468.066406 L 219.863281 468.324219 L 219.566406 468.449219 L 217.054688 467.824219 L 210.222656 468.96875 L 208.164063 468.875 L 207.273438 468.058594 L 206.238281 469.769531 L 209.429688 471.089844 L 209.714844 470.9375 L 210.1875 472.128906 L 209.566406 473.890625 L 206.84375 474.453125 L 204.453125 473.097656 L 203.015625 472.699219 L 200.839844 472.417969 L 200.726563 472.085938 L 200.417969 470.390625 L 200.039063 469.421875 L 199.417969 468.433594 Z M 198.324219 467.269531 "/>
<path style=" stroke:none;fill-rule:nonzero;fill:rgb(80.392157%,58.431373%,4.705882%);fill-opacity:1;" d="M 204.507813 397.382813 L 204.222656 399.183594 L 203.398438 400.804688 L 202.109375 402.089844 L 200.488281 402.914063 L 198.691406 403.199219 L 196.894531 402.914063 L 195.273438 402.089844 L 193.988281 400.804688 L 193.160156 399.183594 L 192.875 397.382813 L 193.160156 395.585938 L 193.988281 393.964844 L 195.273438 392.679688 L 196.894531 391.855469 L 198.691406 391.570313 L 200.488281 391.855469 L 202.109375 392.679688 L 203.398438 393.964844 L 204.222656 395.585938 Z M 204.507813 397.382813 "/>
<path style=" stroke:none;fill-rule:nonzero;fill:rgb(80.392157%,58.431373%,4.705882%);fill-opacity:1;" d="M 208.382813 397.382813 L 208.101563 399.183594 L 207.273438 400.804688 L 205.988281 402.089844 L 204.367188 402.914063 L 202.570313 403.199219 L 200.773438 402.914063 L 199.152344 402.089844 L 197.863281 400.804688 L 197.039063 399.183594 L 196.753906 397.382813 L 197.039063 395.585938 L 197.863281 393.964844 L 199.152344 392.679688 L 200.773438 391.855469 L 202.570313 391.570313 L 204.367188 391.855469 L 205.988281 392.679688 L 207.273438 393.964844 L 208.101563 395.585938 Z M 208.382813 397.382813 "/>
<path style=" stroke:none;fill-rule:nonzero;fill:rgb(80.392157%,58.431373%,4.705882%);fill-opacity:1;" d="M 243.277344 401.261719 L 242.992188 403.058594 L 242.167969 404.679688 L 240.878906 405.964844 L 239.257813 406.792969 L 237.460938 407.078125 L 235.664063 406.792969 L 234.042969 405.964844 L 232.757813 404.679688 L 231.929688 403.058594 L 231.644531 401.261719 L 231.929688 399.464844 L 232.757813 397.84375 L 234.042969 396.558594 L 235.664063 395.730469 L 237.460938 395.445313 L 239.257813 395.730469 L 240.878906 396.558594 L 242.167969 397.84375 L 242.992188 399.464844 Z M 243.277344 401.261719 "/>
<path style=" stroke:none;fill-rule:nonzero;fill:rgb(80.392157%,58.431373%,4.705882%);fill-opacity:1;" d="M 262.660156 405.136719 L 262.375 406.933594 L 261.550781 408.558594 L 260.265625 409.84375 L 258.644531 410.667969 L 256.847656 410.953125 L 255.050781 410.667969 L 253.429688 409.84375 L 252.140625 408.558594 L 251.316406 406.933594 L 251.03125 405.136719 L 251.316406 403.339844 L 252.140625 401.71875 L 253.429688 400.433594 L 255.050781 399.609375 L 256.847656 399.324219 L 258.644531 399.609375 L 260.265625 400.433594 L 261.550781 401.71875 L 262.375 403.339844 Z M 262.660156 405.136719 "/>
<path style=" stroke:none;fill-rule:nonzero;fill:rgb(80.392157%,58.431373%,4.705882%);fill-opacity:1;" d="M 177.371094 226.800781 L 177.085938 228.597656 L 176.257813 230.21875 L 174.972656 231.503906 L 173.351563 232.332031 L 171.554688 232.617188 L 169.757813 232.332031 L 168.136719 231.503906 L 166.847656 230.21875 L 166.023438 228.597656 L 165.738281 226.800781 L 166.023438 225.003906 L 166.847656 223.382813 L 168.136719 222.09375 L 169.757813 221.269531 L 171.554688 220.984375 L 173.351563 221.269531 L 174.972656 222.09375 L 176.257813 223.382813 L 177.085938 225.003906 Z M 177.371094 226.800781 "/>
<path style=" stroke:none;fill-rule:nonzero;fill:rgb(80.392157%,58.431373%,4.705882%);fill-opacity:1;" d="M 285.921875 447.785156 L 285.636719 449.582031 L 284.8125 451.203125 L 283.527344 452.488281 L 281.90625 453.316406 L 280.109375 453.601563 L 278.3125 453.316406 L 276.691406 452.488281 L 275.402344 451.203125 L 274.578125 449.582031 L 274.292969 447.785156 L 274.578125 445.988281 L 275.402344 444.367188 L 276.691406 443.078125 L 278.3125 442.253906 L 280.109375 441.96875 L 281.90625 442.253906 L 283.527344 443.078125 L 284.8125 444.367188 L 285.636719 445.988281 Z M 285.921875 447.785156 "/>
<path style=" stroke:none;fill-rule:nonzero;fill:rgb(80.392157%,58.431373%,4.705882%);fill-opacity:1;" d="M 185.125 168.644531 L 184.839844 170.441406 L 184.011719 172.0625 L 182.726563 173.351563 L 181.105469 174.175781 L 179.308594 174.460938 L 177.511719 174.175781 L 175.890625 173.351563 L 174.601563 172.0625 L 173.777344 170.441406 L 173.492188 168.644531 L 173.539063 168.355469 L 173.589844 168.316406 L 174.046875 166.78125 L 178.648438 166.167969 L 179.285156 167.089844 L 180.148438 167.667969 L 184.320313 169.011719 L 185.109375 168.566406 Z M 185.125 168.644531 "/>
<path style=" stroke:none;fill-rule:nonzero;fill:rgb(80.392157%,58.431373%,4.705882%);fill-opacity:1;" d="M 182.742188 243.121094 L 182.726563 243.136719 L 181.105469 243.960938 L 179.308594 244.246094 L 177.511719 243.960938 L 175.890625 243.136719 L 174.601563 241.847656 L 174.289063 241.230469 L 178.0625 241.875 Z M 173.683594 239.636719 L 173.492188 238.429688 L 173.777344 236.632813 L 174.601563 235.011719 L 175.890625 233.726563 L 177.511719 232.898438 L 179.308594 232.617188 L 181.105469 232.898438 L 182.726563 233.726563 L 183.0625 234.0625 L 181.046875 235.800781 L 180.578125 237.003906 L 174.761719 240.109375 Z M 173.683594 239.636719 "/>
</g>
</svg>
