<?xml version="1.0" encoding="UTF-8"?>
<svg xmlns="http://www.w3.org/2000/svg" xmlns:xlink="http://www.w3.org/1999/xlink" width="378pt" height="504pt" viewBox="0 0 378 504" version="1.1">
<g id="data">
<rect x="0" y="0" width="378" height="504" style="fill:rgb(100%,100%,100%);fill-opacity:1;stroke:none;"/>
<path style=" stroke:none;fill-rule:nonzero;fill:rgb(100%,100%,100%);fill-opacity:1;" d="M 53.308594 504 L 324.691406 504 L 324.691406 0 L 53.308594 0 Z M 53.308594 504 "/>
<path style=" stroke:none;fill-rule:nonzero;fill:rgb(22.745098%,53.333333%,16.078431%);fill-opacity:1;" d="M 247.332031 446.152344 L 246.269531 447.609375 L 244.816406 448.671875 L 243.105469 449.234375 L 241.300781 449.25 L 239.582031 448.710938 L 238.109375 447.675781 L 237.027344 446.234375 L 236.433594 444.53125 L 235.699219 440.460938 L 235.660156 438.644531 L 236.179688 436.902344 L 237.214844 435.410156 L 238.660156 434.308594 L 240.375 433.707031 L 242.191406 433.660156 L 245.25 434.070313 L 246.917969 434.554688 L 248.371094 435.511719 L 249.472656 436.855469 L 250.128906 438.464844 L 250.285156 440.195313 L 249.917969 441.890625 L 249.066406 443.40625 L 248.105469 444.644531 Z M 219.644531 48.226563 L 219.496094 47.4375 L 218.878906 46.113281 L 218.101563 45.175781 L 220.816406 42.097656 L 223.226563 40.707031 L 223.542969 41.710938 L 223.417969 46.992188 L 223.628906 47.851563 L 228.960938 48.949219 L 227.699219 56.234375 L 226.355469 57.007813 L 225.6875 56.476563 L 226.023438 58.453125 L 227.246094 61.769531 L 226.800781 62.460938 L 226.285156 62.238281 L 225.40625 63.738281 L 225.265625 67.207031 L 224.308594 74.617188 L 223.472656 74.351563 L 221.910156 72.433594 L 222.910156 68.203125 L 223.429688 67.644531 L 224.308594 63.570313 L 223.632813 57.773438 L 221.078125 57.210938 L 222.089844 58.292969 L 222.21875 59.898438 L 220.292969 61.703125 L 218.738281 60.40625 L 218.746094 59.554688 L 215.621094 58.289063 L 215.003906 56.183594 L 215.039063 55.8125 L 215.808594 55.171875 L 220.695313 54.34375 L 222.421875 53.527344 L 222.960938 52.8125 L 220.238281 48.339844 Z M 232.046875 31.628906 L 232.585938 31.835938 L 234.011719 33 L 234.398438 33.601563 L 233.101563 38.984375 L 230.96875 38.972656 L 230.324219 38.394531 L 230.816406 33.792969 Z M 196.425781 348.160156 L 196.285156 346.410156 L 196.675781 344.703125 L 197.554688 343.183594 L 198.84375 342 L 200.429688 341.253906 L 202.167969 341.011719 L 203.894531 341.300781 L 204.378906 341.457031 L 206.125 342.382813 L 207.460938 343.839844 L 208.230469 345.660156 L 208.347656 347.636719 L 208.203125 348.914063 L 207.726563 350.652344 L 206.742188 352.160156 L 205.34375 353.292969 L 203.664063 353.945313 L 201.867188 354.054688 L 200.125 353.605469 L 198.601563 352.644531 L 197.441406 351.265625 L 196.765625 349.597656 Z M 196.929688 248.398438 L 198.722656 248.125 L 200.511719 248.414063 L 202.125 249.246094 L 203.402344 250.53125 L 204.226563 252.148438 L 204.507813 253.9375 L 204.507813 257.816406 L 204.246094 259.542969 L 203.480469 261.113281 L 202.285156 262.386719 L 200.765625 263.25 L 199.054688 263.621094 L 197.316406 263.464844 L 195.699219 262.800781 L 194.351563 261.6875 L 193.398438 260.222656 L 191.859375 256.835938 L 191.359375 254.945313 L 191.515625 252.996094 L 192.308594 251.207031 L 193.652344 249.785156 L 195.390625 248.886719 Z M 152.882813 173.589844 L 152.398438 171.921875 L 156.390625 168.453125 L 157.75 167.980469 L 160.300781 168.324219 L 161.058594 169.320313 L 157.109375 173.804688 L 156.367188 175.339844 L 156.707031 175.816406 L 157.367188 175.984375 L 158.261719 175.542969 L 161.140625 173.015625 L 167.808594 170.273438 L 170.480469 169.527344 L 170.492188 169.949219 L 171.554688 169.839844 L 173.589844 168.316406 L 173.894531 167.289063 L 174.902344 167.769531 L 176.539063 168.921875 L 177.855469 169.441406 L 179.261719 169.628906 L 180.625 169.484375 L 181.652344 169.140625 L 182.75 168.503906 L 184.320313 169.011719 L 187.675781 167.128906 L 199.164063 168.988281 L 204.117188 168.914063 L 204.445313 168.648438 L 204.484375 169.164063 L 204 171.023438 L 202.9375 172.621094 L 201.84375 173.789063 L 201.230469 174.761719 L 200.820313 175.835938 L 200.542969 177.410156 L 199.851563 179.308594 L 198.554688 180.855469 L 196.804688 181.863281 L 194.816406 182.214844 L 190.9375 182.214844 L 188.691406 181.761719 L 186.675781 180.917969 L 185.15625 180.707031 L 183.648438 180.902344 L 181.527344 181.777344 L 179.308594 182.214844 L 175.429688 182.214844 L 173.761719 181.972656 L 172.234375 181.257813 L 170.113281 179.859375 L 167.550781 179.121094 L 167.164063 178.941406 L 166.605469 179.285156 L 164.898438 180 L 163.289063 181.144531 L 161.5625 181.980469 L 159.660156 182.210938 L 157.785156 181.808594 L 156.140625 180.820313 L 154.910156 179.347656 L 154.222656 177.558594 L 153.816406 175.550781 Z M 152.398438 170.914063 L 152.4375 169.917969 L 153.105469 168.167969 L 154.296875 166.722656 L 155.886719 165.726563 L 157.707031 165.292969 L 159.574219 165.457031 L 160.226563 165.742188 L 159.984375 165.785156 L 155.320313 167.769531 L 152.441406 170.8125 Z M 161.777344 166.523438 L 162.566406 167.03125 L 162.175781 167.183594 L 161.726563 166.894531 Z M 200.542969 441.039063 L 199.917969 442.816406 L 198.761719 444.304688 L 197.1875 445.339844 L 195.367188 445.820313 L 193.484375 445.691406 L 191.746094 444.96875 L 190.328125 443.730469 L 189 442.117188 L 187.8125 441.246094 L 186.457031 440.707031 L 184.277344 440.425781 L 182.773438 440.003906 L 190.867188 432.195313 L 195.792969 425.3125 L 197.519531 424.632813 L 197.953125 425.191406 L 199.128906 426.113281 L 201.042969 426.957031 L 202.585938 427.957031 L 203.742188 429.390625 L 204.390625 431.117188 L 204.46875 432.957031 L 203.964844 434.726563 L 202.9375 436.253906 L 201.84375 437.417969 L 201.230469 438.390625 L 200.820313 439.46875 Z M 179.238281 434.777344 L 179.199219 434.441406 L 179.515625 432.753906 L 180.3125 431.234375 L 181.515625 430.011719 L 183.351563 428.632813 L 184.285156 427.433594 L 184.871094 426.03125 L 185.175781 423.757813 L 185.71875 421.960938 L 186.808594 420.429688 L 188.324219 419.328125 L 190.117188 418.765625 L 191.992188 418.804688 L 193.761719 419.4375 L 195.234375 420.601563 L 196.257813 422.171875 L 196.945313 423.726563 L 196.09375 424.355469 L 192.90625 427.300781 L 190.570313 429.988281 L 189.222656 431.449219 L 185.628906 432.957031 L 183.714844 433.246094 L 182.441406 433.0625 Z M 127.652344 243.628906 L 128.082031 242.765625 L 129.476563 241.402344 L 131.238281 240.578125 L 133.179688 240.382813 L 135.074219 240.839844 L 136.988281 241.660156 L 137.652344 241.773438 L 136.15625 245.152344 L 135.023438 244.945313 L 131.566406 242.222656 L 130.757813 242.5 L 130.269531 243.347656 L 130.09375 244.535156 L 130.664063 246.308594 L 130.519531 246.613281 L 128.257813 245.464844 Z M 139.171875 242.082031 L 140.707031 242.617188 L 140.726563 242.628906 L 141.433594 241.898438 L 142.886719 242.511719 L 146.15625 243.175781 L 148.300781 243.253906 L 142.664063 241.011719 L 143.480469 240.574219 L 146.246094 239.605469 L 148.53125 237.769531 L 150.273438 236.808594 L 152.238281 236.492188 L 154.195313 236.855469 L 155.917969 237.859375 L 159.042969 240.496094 L 160.171875 241.773438 L 160.882813 243.328125 L 161.042969 244.511719 L 161.691406 243.421875 L 163.160156 242.175781 L 164.957031 241.484375 L 166.878906 241.414063 L 169.722656 241.78125 L 171.496094 241.433594 L 172.421875 240.910156 L 178.0625 241.875 L 182.921875 243.167969 L 186.398438 241.730469 L 186.546875 241.429688 L 186.78125 241.613281 L 187.757813 242.59375 L 188.476563 243.777344 L 190.019531 247.164063 L 190.515625 249.054688 L 190.359375 251.003906 L 189.566406 252.792969 L 188.226563 254.214844 L 186.488281 255.113281 L 184.945313 255.601563 L 182.628906 255.851563 L 180.257813 255.621094 L 178.703125 255.902344 L 177.300781 256.585938 L 175.449219 258.257813 L 173.894531 259.261719 L 172.105469 259.726563 L 170.257813 259.609375 L 168.542969 258.914063 L 167.132813 257.714844 L 166.167969 256.132813 L 165.566406 254.65625 L 164.929688 253.679688 L 164.203125 252.929688 L 162.792969 251.941406 L 161.421875 250.59375 L 160.5625 248.867188 L 160.398438 247.597656 L 160.085938 248.238281 L 158.921875 249.488281 L 157.445313 250.34375 L 154.316406 251.589844 L 152.0625 252 L 145.296875 251.875 L 143.53125 251.566406 L 142.613281 251.085938 L 141.59375 252.238281 L 139.464844 253.964844 L 139.242188 254.3125 L 137.378906 252.511719 L 138.6875 242.234375 Z M 173.828125 239.703125 L 174.984375 238.417969 L 176.28125 237.34375 L 177.828125 236.683594 L 179.5 236.496094 L 180.691406 236.710938 L 180.578125 237.003906 L 174.761719 240.109375 Z M 125.527344 256.816406 L 126.054688 256.261719 L 127.105469 254.476563 L 127.429688 254.085938 L 127.285156 253.378906 L 127.226563 252.101563 L 128.179688 251.246094 L 129.539063 251.441406 L 131.390625 253.015625 L 132.984375 258.382813 L 133.019531 262.765625 L 132.308594 263.453125 L 130.613281 263.773438 L 129.152344 263.667969 L 126.582031 261.613281 Z M 167.675781 286.890625 L 165.878906 286.609375 L 164.257813 285.78125 L 162.972656 284.496094 L 162.144531 282.875 L 161.863281 281.078125 L 161.863281 277.199219 L 162.136719 275.429688 L 162.941406 273.828125 L 164.191406 272.542969 L 165.773438 271.703125 L 167.539063 271.386719 L 169.316406 271.621094 L 170.9375 272.382813 L 172.246094 273.605469 L 173.523438 275.230469 L 175.148438 276.503906 L 176.371094 277.816406 L 177.132813 279.4375 L 177.367188 281.214844 L 177.050781 282.980469 L 176.210938 284.5625 L 175.707031 285.054688 L 174.65625 284.980469 L 172.566406 284.292969 L 169.453125 284.03125 L 168.746094 286.890625 Z M 152.957031 373.570313 L 154.5625 373.515625 L 156.222656 373.960938 L 158.398438 374.90625 L 160.75 375.230469 L 162.386719 375.710938 L 163.816406 376.640625 L 164.914063 377.949219 L 165.582031 379.519531 L 165.769531 381.214844 L 165.734375 382.097656 L 165.449219 383.691406 L 164.734375 385.144531 L 163.644531 386.347656 L 161.707031 387.960938 L 159.964844 388.960938 L 157.984375 389.304688 L 156.007813 388.960938 L 154.261719 387.960938 L 152.570313 386.550781 L 152.566406 386.542969 L 153.179688 384.597656 L 154.652344 381.796875 L 152.269531 378.203125 L 152.683594 374.835938 L 153.175781 374.082031 Z M 156.046875 407.078125 L 154.292969 406.808594 L 152.707031 406.023438 L 151.425781 404.796875 L 150.578125 403.238281 L 150.234375 401.5 L 150.34375 400.546875 L 152.136719 398.207031 L 153.054688 396.195313 L 153.058594 396.183594 L 154.261719 395.179688 L 156.007813 394.179688 L 157.984375 393.832031 L 159.964844 394.179688 L 161.707031 395.179688 L 163.644531 396.792969 L 164.816406 398.121094 L 165.535156 399.742188 L 165.734375 401.5 L 165.390625 403.238281 L 164.542969 404.796875 L 163.261719 406.023438 L 161.675781 406.808594 L 159.921875 407.078125 Z M 144.003906 473.433594 L 143.871094 473.078125 L 143.488281 471.21875 L 142.921875 469.976563 L 142.15625 468.984375 L 140.6875 467.753906 L 139.445313 466.316406 L 138.738281 464.550781 L 138.699219 463.855469 L 138.863281 461.847656 L 139.152344 460.820313 L 140.230469 459.253906 L 141.550781 457.882813 L 142.210938 456.804688 L 142.617188 455.609375 L 142.664063 455.195313 L 144.269531 456.015625 L 145.761719 455.429688 L 148.429688 452.488281 L 148.175781 448.605469 L 149.671875 448.632813 L 151.464844 449.285156 L 152.949219 450.480469 L 153.964844 452.089844 L 155.078125 454.730469 L 156.34375 456.140625 L 157.980469 457.054688 L 160.914063 457.5625 L 162.585938 458.121094 L 164.011719 459.160156 L 165.0625 460.574219 L 165.644531 462.242188 L 165.695313 464.003906 L 165.214844 465.699219 L 164.25 467.175781 L 162.886719 468.296875 L 161.253906 468.953125 L 158.652344 469.5625 L 157.132813 470.472656 L 155.964844 471.796875 L 154.890625 474.242188 L 154.800781 474.382813 L 154.863281 474.527344 L 155.53125 477.152344 L 157.0625 479.535156 L 157.78125 481.15625 L 157.980469 482.914063 L 157.636719 484.65625 L 156.789063 486.210938 L 156.300781 486.679688 L 154.683594 485.4375 L 153.613281 485.542969 L 152.417969 486.300781 L 151.738281 486.164063 L 148.46875 482.535156 L 142.796875 482.960938 L 141.527344 483.375 L 140.734375 484.175781 L 139.910156 484.507813 L 138.933594 484.472656 L 138.621094 483.179688 L 138.726563 481.464844 L 139.332031 479.855469 L 140.378906 478.488281 L 142.632813 476.316406 L 143.96875 473.488281 Z M 81.636719 168.359375 L 81.871094 167.28125 L 81.882813 166.054688 L 81.644531 164.871094 L 81.539063 164.621094 L 81.617188 164.507813 L 86.457031 164.699219 L 87.222656 163.867188 L 88.554688 163.523438 L 91.023438 165.660156 L 91.214844 166.0625 L 88.9375 171.015625 L 88.773438 171.246094 L 86.902344 171.355469 L 84.875 171.125 L 84.914063 169.441406 L 82.996094 168.253906 Z M 93.21875 153.933594 L 93.441406 154.140625 L 93.636719 154.480469 L 93.378906 155.476563 L 91.824219 155.515625 L 91.882813 154.726563 L 92.882813 153.957031 Z M 94.636719 156.464844 L 95.542969 158.742188 L 95.921875 160.285156 L 95.910156 160.648438 L 93.527344 162.226563 L 90.550781 158.175781 L 90.507813 157.148438 L 91.820313 157.980469 Z M 227.496094 47.179688 L 226.742188 47.023438 L 226.078125 45.398438 L 225.789063 41.242188 L 227.246094 36.808594 L 228.363281 36.574219 L 229.761719 37.023438 L 229.984375 39.984375 L 229.175781 46.582031 Z M 88.238281 162.863281 L 87.917969 162.585938 L 88.445313 161.890625 L 89.367188 161.550781 L 89.65625 162.238281 Z M 85.394531 175.835938 L 84.546875 175.601563 L 83.046875 174.507813 L 82.722656 173.699219 L 82.824219 172.589844 L 83.972656 171.789063 L 86.566406 172.507813 L 87.433594 173.25 L 87.285156 175.226563 Z M 86.054688 188.15625 L 85.625 188.976563 L 84.328125 188.382813 L 82.6875 188.554688 L 82.128906 188.101563 L 81.921875 187.375 L 81.515625 184.671875 L 82.046875 176.234375 L 83.4375 175.515625 L 85.28125 176.539063 L 86.578125 178.347656 L 85.882813 178.945313 L 85.144531 178.476563 L 85.03125 179.058594 L 85.140625 186.4375 Z M 79.542969 195.171875 L 77.601563 194.722656 L 77.417969 194.15625 L 80.441406 190.269531 L 81.117188 190.9375 L 81.808594 193.710938 L 80.203125 195.140625 Z M 134.8125 251.347656 L 132.589844 248.835938 L 130.84375 244.566406 L 130.707031 243.464844 L 131.460938 242.613281 L 133.71875 244.574219 L 134.707031 246.3125 L 135.339844 249.003906 L 135.222656 250.96875 Z M 134.8125 251.347656 "/>
<path style=" stroke:none;fill-rule:nonzero;fill:rgb(80.392157%,58.431373%,4.705882%);fill-opacity:1;" d="M 223.890625 393.507813 L 223.609375 395.304688 L 222.78125 396.925781 L 221.496094 398.210938 L 219.875 399.039063 L 218.078125 399.324219 L 216.28125 399.039063 L 214.660156 398.210938 L 213.371094 396.925781 L 212.546875 395.304688 L 212.261719 393.507813 L 212.546875 391.710938 L 213.371094 390.089844 L 214.660156 388.804688 L 216.28125 387.976563 L 218.078125 387.691406 L 219.875 387.976563 L 221.496094 388.804688 L 222.78125 390.089844 L 223.609375 391.710938 Z M 223.890625 393.507813 "/>
<path style=" stroke:none;fill-rule:nonzero;fill:rgb(80.392157%,58.431373%,4.705882%);fill-opacity:1;" d="M 177.371094 370.246094 L 177.085938 372.042969 L 176.257813 373.664063 L 174.972656 374.949219 L 173.351563 375.777344 L 171.554688 376.0625 L 169.757813 375.777344 L 168.136719 374.949219 L 166.847656 373.664063 L 166.023438 372.042969 L 165.738281 370.246094 L 166.023438 368.449219 L 166.847656 366.828125 L 168.136719 365.542969 L 169.757813 364.714844 L 171.554688 364.429688 L 173.351563 364.714844 L 174.972656 365.542969 L 176.257813 366.828125 L 177.085938 368.449219 Z M 177.371094 370.246094 "/>
<path style=" stroke:none;fill-rule:nonzero;fill:rgb(80.392157%,58.431373%,4.705882%);fill-opacity:1;" d="M 223.890625 405.136719 L 223.609375 406.933594 L 222.78125 408.558594 L 221.496094 409.84375 L 219.875 410.667969 L 218.078125 410.953125 L 216.28125 410.667969 L 214.660156 409.84375 L 213.371094 408.558594 L 212.546875 406.933594 L 212.261719 405.136719 L 212.546875 403.339844 L 213.371094 401.71875 L 214.660156 400.433594 L 216.28125 399.609375 L 218.078125 399.324219 L 219.875 399.609375 L 221.496094 400.433594 L 222.78125 401.71875 L 223.609375 403.339844 Z M 223.890625 405.136719 "/>
<path style=" stroke:none;fill-rule:nonzero;fill:rgb(80.392157%,58.431373%,4.705882%);fill-opacity:1;" d="M 231.644531 424.523438 L 231.363281 426.320313 L 230.535156 427.941406 L 229.25 429.226563 L 227.628906 430.054688 L 225.832031 430.339844 L 224.035156 430.054688 L 222.414063 429.226563 L 221.125 427.941406 L 220.300781 426.320313 L 220.015625 424.523438 L 220.300781 422.726563 L 221.125 421.105469 L 222.414063 419.816406 L 224.035156 418.992188 L 225.832031 418.707031 L 227.628906 418.992188 L 229.25 419.816406 L 230.535156 421.105469 L 231.363281 422.726563 Z M 231.644531 424.523438 "/>
<path style=" stroke:none;fill-rule:nonzero;fill:rgb(80.392157%,58.431373%,4.705882%);fill-opacity:1;" d="M 185.125 211.292969 L 184.839844 213.089844 L 184.011719 214.710938 L 182.726563 215.996094 L 181.105469 216.824219 L 179.308594 217.109375 L 177.511719 216.824219 L 175.890625 215.996094 L 174.601563 214.710938 L 173.777344 213.089844 L 173.492188 211.292969 L 173.777344 209.496094 L 174.601563 207.875 L 175.890625 206.585938 L 177.511719 205.761719 L 179.308594 205.476563 L 181.105469 205.761719 L 182.726563 206.585938 L 184.011719 207.875 L 184.839844 209.496094 Z M 185.125 211.292969 "/>
<path style=" stroke:none;fill-rule:nonzero;fill:rgb(80.392157%,58.431373%,4.705882%);fill-opacity:1;" d="M 270.414063 397.382813 L 270.128906 399.183594 L 269.304688 400.804688 L 268.019531 402.089844 L 266.398438 402.914063 L 264.601563 403.199219 L 262.804688 402.914063 L 261.183594 402.089844 L 259.894531 400.804688 L 259.070313 399.183594 L 258.785156 397.382813 L 259.070313 395.585938 L 259.894531 393.964844 L 261.183594 392.679688 L 262.804688 391.855469 L 264.601563 391.570313 L 266.398438 391.855469 L 268.019531 392.679688 L 269.304688 393.964844 L 270.128906 395.585938 Z M 270.414063 397.382813 "/>
<path style=" stroke:none;fill-rule:nonzero;fill:rgb(80.392157%,58.431373%,4.705882%);fill-opacity:1;" d="M 297.554688 409.015625 L 297.269531 410.8125 L 296.441406 412.433594 L 296.070313 412.804688 L 295.578125 412.011719 L 292.742188 410.515625 L 292.480469 410.636719 L 293.898438 413.703125 L 294.230469 414.191406 L 293.535156 414.546875 L 291.738281 414.832031 L 289.941406 414.546875 L 288.320313 413.71875 L 287.035156 412.433594 L 286.207031 410.8125 L 285.921875 409.015625 L 286.207031 407.21875 L 287.035156 405.597656 L 288.320313 404.3125 L 289.941406 403.484375 L 291.738281 403.199219 L 293.535156 403.484375 L 295.15625 404.3125 L 296.441406 405.597656 L 297.269531 407.21875 Z M 297.554688 409.015625 "/>
<path style=" stroke:none;fill-rule:nonzero;fill:rgb(80.392157%,58.431373%,4.705882%);fill-opacity:1;" d="M 150.230469 409.015625 L 149.945313 410.8125 L 149.121094 412.433594 L 147.832031 413.71875 L 146.210938 414.546875 L 144.414063 414.832031 L 142.617188 414.546875 L 140.996094 413.71875 L 139.710938 412.433594 L 138.882813 410.8125 L 138.601563 409.015625 L 138.882813 407.21875 L 139.203125 406.597656 L 141.359375 406.660156 L 142.21875 406.390625 L 146.519531 403.640625 L 147.832031 404.3125 L 149.121094 405.597656 L 149.945313 407.21875 Z M 150.230469 409.015625 "/>
<path style=" stroke:none;fill-rule:nonzero;fill:rgb(80.392157%,58.431373%,4.705882%);fill-opacity:1;" d="M 264.039063 375.003906 L 262.519531 375.777344 L 260.722656 376.0625 L 258.925781 375.777344 L 257.304688 374.949219 L 256.019531 373.664063 L 255.191406 372.042969 L 254.90625 370.246094 L 255.191406 368.449219 L 256.019531 366.828125 L 257.304688 365.542969 L 258.925781 364.714844 L 260.722656 364.429688 L 262.519531 364.714844 L 264.140625 365.542969 L 265.429688 366.828125 L 266.066406 368.082031 L 264.953125 369.09375 L 261.394531 373.164063 L 260.601563 374.816406 L 262.84375 374.3125 Z M 264.039063 375.003906 "/>
<path style=" stroke:none;fill-rule:nonzero;fill:rgb(80.392157%,58.431373%,4.705882%);fill-opacity:1;" d="M 146.355469 409.015625 L 146.070313 410.8125 L 145.242188 412.433594 L 143.957031 413.71875 L 142.335938 414.546875 L 140.539063 414.832031 L 138.742188 414.546875 L 137.121094 413.71875 L 135.832031 412.433594 L 135.007813 410.8125 L 134.78125 409.390625 L 134.871094 409.289063 L 135.753906 407.632813 L 137.585938 406.550781 L 141.359375 406.660156 L 142.21875 406.390625 L 144.546875 404.902344 L 145.242188 405.597656 L 146.070313 407.21875 Z M 146.355469 409.015625 "/>
<path style=" stroke:none;fill-rule:nonzero;fill:rgb(80.392157%,58.431373%,4.705882%);fill-opacity:1;" d="M 282.046875 374.125 L 281.761719 375.921875 L 280.933594 377.542969 L 279.648438 378.828125 L 278.027344 379.652344 L 276.230469 379.9375 L 274.433594 379.652344 L 272.8125 378.828125 L 271.527344 377.542969 L 271.480469 377.449219 L 271.910156 376.796875 L 272.234375 374.960938 L 273.40625 371.914063 L 274.707031 370.632813 L 277.851563 370.085938 L 280.382813 370.152344 L 280.933594 370.703125 L 281.761719 372.324219 Z M 282.046875 374.125 "/>
<path style=" stroke:none;fill-rule:nonzero;fill:rgb(80.392157%,58.431373%,4.705882%);fill-opacity:1;" d="M 130.847656 222.921875 L 130.5625 224.71875 L 129.734375 226.339844 L 128.449219 227.628906 L 126.828125 228.453125 L 125.03125 228.738281 L 123.234375 228.453125 L 122.046875 227.847656 L 122.070313 227.40625 L 122.761719 224.691406 L 124.160156 221.96875 L 126.660156 220.210938 L 128.792969 220.179688 L 129.328125 220.484375 L 130.199219 220.417969 L 130.5625 221.125 Z M 121.804688 227.726563 L 121.613281 227.628906 L 121.585938 227.601563 L 121.816406 227.683594 Z M 119.292969 223.421875 L 119.214844 222.921875 L 119.5 221.125 L 120.324219 219.503906 L 120.921875 218.910156 L 121.195313 219.144531 L 120.902344 221.207031 L 119.445313 223.339844 Z M 127.464844 217.714844 L 128.449219 218.21875 L 129.175781 218.945313 L 127.28125 218.265625 Z M 123.378906 222.417969 L 122.582031 222.078125 L 123.082031 221.191406 L 124.476563 221.046875 Z M 121.453125 227.109375 L 121.152344 226.972656 L 120.984375 225.621094 L 121.59375 224.800781 L 122.367188 224.816406 L 121.953125 226.621094 Z M 121.453125 227.109375 "/>
<path style=" stroke:none;fill-rule:nonzero;fill:rgb(80.392157%,58.431373%,4.705882%);fill-opacity:1;" d="M 139.410156 322.675781 L 138.882813 321.644531 L 138.640625 320.097656 L 139.816406 316.644531 L 142.300781 315.023438 L 142.671875 314.308594 L 144.414063 314.03125 L 146.210938 314.316406 L 147.832031 315.140625 L 148.847656 316.15625 L 147.847656 318.148438 L 145.3125 320.636719 L 141.859375 323.019531 L 139.824219 322.464844 Z M 139.410156 322.675781 "/>
<path style=" stroke:none;fill-rule:nonzero;fill:rgb(80.392157%,58.431373%,4.705882%);fill-opacity:1;" d="M 123.09375 486.554688 L 122.808594 488.351563 L 121.980469 489.972656 L 120.695313 491.257813 L 119.074219 492.085938 L 117.277344 492.371094 L 115.480469 492.085938 L 113.859375 491.257813 L 112.570313 489.972656 L 111.746094 488.351563 L 111.707031 488.089844 L 111.738281 488.078125 L 112.199219 488.253906 L 112.445313 488.9375 L 113.574219 489.15625 L 118.144531 485.910156 L 121.425781 483.085938 L 121.664063 482.816406 L 121.980469 483.136719 L 122.808594 484.757813 Z M 123.09375 486.554688 "/>
<path style=" stroke:none;fill-rule:nonzero;fill:rgb(80.392157%,58.431373%,4.705882%);fill-opacity:1;" d="M 147.992188 317.859375 L 146.496094 317.625 L 144.875 316.796875 L 143.585938 315.511719 L 142.824219 314.011719 L 144.765625 310.230469 L 145.863281 309.40625 L 149.046875 308.269531 L 150.203125 313.453125 Z M 147.992188 317.859375 "/>
<path style=" stroke:none;fill-rule:nonzero;fill:rgb(80.392157%,58.431373%,4.705882%);fill-opacity:1;" d="M 116.433594 268.953125 L 115.625 267.367188 L 115.339844 265.570313 L 115.515625 264.449219 L 117.226563 262.640625 L 117.402344 261.199219 L 117.734375 260.863281 L 119.355469 260.039063 L 121.152344 259.753906 L 122.089844 259.902344 L 121.183594 263.964844 L 122.0625 266.289063 L 120.679688 268.164063 L 119.945313 268.597656 Z M 116.433594 268.953125 "/>
<path style=" stroke:none;fill-rule:nonzero;fill:rgb(80.392157%,58.431373%,4.705882%);fill-opacity:1;" d="M 117.570313 259.800781 L 119.074219 260.039063 L 120.695313 260.863281 L 121.660156 261.828125 L 121.183594 263.964844 L 122.0625 266.289063 L 120.679688 268.164063 L 119.945313 268.597656 L 116.058594 268.992188 L 115.222656 268.382813 L 115.277344 264.699219 L 117.226563 262.640625 Z M 117.570313 259.800781 "/>
<path style=" stroke:none;fill-rule:nonzero;fill:rgb(80.392157%,58.431373%,4.705882%);fill-opacity:1;" d="M 224.570313 472.355469 L 225.003906 471.503906 L 226.289063 470.21875 L 227.910156 469.390625 L 229.707031 469.109375 L 231.503906 469.390625 L 233.125 470.21875 L 233.570313 470.664063 L 231.242188 473.621094 L 229.960938 474.269531 L 228.117188 474.644531 Z M 224.570313 472.355469 "/>
<path style=" stroke:none;fill-rule:nonzero;fill:rgb(80.392157%,58.431373%,4.705882%);fill-opacity:1;" d="M 139.320313 318.101563 L 140.539063 317.90625 L 142.335938 318.191406 L 143.957031 319.019531 L 145.242188 320.304688 L 145.378906 320.574219 L 145.3125 320.636719 L 141.859375 323.019531 L 139.824219 322.464844 L 137.933594 323.433594 L 137.675781 322.921875 Z M 139.320313 318.101563 "/>
<path style=" stroke:none;fill-rule:nonzero;fill:rgb(80.392157%,58.431373%,4.705882%);fill-opacity:1;" d="M 185.4375 127.679688 L 185.265625 127.652344 L 183.644531 126.828125 L 183.226563 126.410156 L 185.5625 126.683594 Z M 181.464844 120.75 L 181.53125 120.324219 L 182.355469 118.703125 L 182.398438 118.664063 L 182.96875 119.6875 L 182.941406 120.441406 Z M 187.335938 122.957031 L 186.4375 122.070313 L 185.203125 119.125 L 185.941406 118.488281 L 188.300781 118.292969 L 188.792969 119.078125 L 187.910156 122.796875 Z M 187.335938 122.957031 "/>
<path style=" stroke:none;fill-rule:nonzero;fill:rgb(80.392157%,58.431373%,4.705882%);fill-opacity:1;" d="M 197.75 100.652344 L 196.894531 100.515625 L 195.273438 99.6875 L 194.96875 99.386719 L 195.332031 98.847656 L 196.15625 98.316406 L 199.542969 97.917969 L 199.804688 99.347656 Z M 197.75 100.652344 "/>
<path style=" stroke:none;fill-rule:nonzero;fill:rgb(80.392157%,58.431373%,4.705882%);fill-opacity:1;" d="M 57.035156 155.945313 L 56.230469 155.527344 L 56.160156 154.664063 L 57.585938 155.238281 Z M 57.035156 155.945313 "/>
</g>
</svg>
