<?xml version="1.0" encoding="UTF-8"?>
<svg xmlns="http://www.w3.org/2000/svg" xmlns:xlink="http://www.w3.org/1999/xlink" width="378pt" height="504pt" viewBox="0 0 378 504" version="1.1">
<g id="data">
<rect x="0" y="0" width="378" height="504" style="fill:rgb(100%,100%,100%);fill-opacity:1;stroke:none;"/>
<path style=" stroke:none;fill-rule:nonzero;fill:rgb(100%,100%,100%);fill-opacity:1;" d="M 53.308594 504 L 324.691406 504 L 324.691406 0 L 53.308594 0 Z M 53.308594 504 "/>
<path style=" stroke:none;fill-rule:nonzero;fill:rgb(22.745098%,53.333333%,16.078431%);fill-opacity:1;" d="M 295.617188 378 L 296.023438 380.242188 L 296.804688 382.25 L 298.019531 384.183594 L 299.492188 385.753906 L 297.296875 389.359375 L 296.53125 393.507813 L 297.296875 397.65625 L 299.492188 401.261719 L 297.34375 403.617188 L 295.875 406.585938 L 295.308594 409.722656 L 295.527344 411.984375 L 292.742188 410.515625 L 292.660156 410.554688 L 292 410.148438 L 289.984375 409.390625 L 287.863281 409.015625 L 285.914063 407.347656 L 283.652344 406.148438 L 280.03125 405.351563 L 276.839844 405.613281 L 273.84375 406.730469 L 271.171875 408.714844 L 269.234375 411.261719 L 269.878906 408.664063 L 269.898438 405.863281 L 269.246094 403.140625 L 268.035156 400.757813 L 271.058594 402.128906 L 274.347656 402.585938 L 277.507813 402.132813 L 280.535156 400.769531 L 282.796875 398.890625 L 286.246094 394.660156 L 287.382813 392.117188 L 288.332031 387.894531 L 288.527344 385.332031 L 288.121094 382.664063 L 287.171875 380.277344 L 285.640625 378.058594 L 283.742188 376.324219 L 281.507813 375.054688 L 279.175781 374.328125 L 276.121094 373.953125 L 278.332031 372.335938 L 280.109375 370.246094 L 280.992188 372.519531 L 282.332031 374.5625 L 284.070313 376.277344 L 286.128906 377.589844 L 288.414063 378.445313 L 290.828125 378.808594 L 293.265625 378.65625 Z M 194.816406 401.261719 L 198.066406 399.492188 L 200.671875 396.6875 L 202.1875 393.3125 L 202.570313 389.628906 L 205.96875 390.292969 L 209.410156 389.921875 L 212.703125 388.488281 L 215.316406 386.21875 L 216.636719 384.316406 L 217.589844 382.070313 L 218.078125 378 L 219.238281 375.195313 L 219.636719 372.183594 L 221.507813 374.617188 L 223.949219 376.472656 L 226.667969 377.59375 L 229.707031 378 L 229.546875 384.003906 L 229.84375 388.320313 L 230.691406 391.148438 L 232.222656 393.671875 L 234.867188 396.101563 L 238.125 397.609375 L 241.6875 398.050781 L 245.214844 397.382813 L 243.695313 399.121094 L 242.550781 401.125 L 241.847656 403.1875 L 241.539063 405.472656 L 241.691406 407.777344 L 242.292969 410.003906 L 243.320313 412.070313 L 244.648438 413.796875 L 246.484375 415.398438 L 249.09375 416.769531 L 252.136719 419.097656 L 254.644531 420.074219 L 257.179688 420.445313 L 260.238281 420.144531 L 263.222656 418.992188 L 265.78125 417.070313 L 267.71875 414.523438 L 267.042969 417.398438 L 267.113281 420.347656 L 267.925781 423.183594 L 269.34375 425.625 L 272.355469 428.398438 L 274.042969 431.550781 L 275.921875 433.390625 L 274.75 433.78125 L 272.609375 436.117188 L 274.253906 436.015625 L 275.152344 434.667969 L 276.683594 434.363281 L 277.292969 434.347656 L 280.054688 435.703125 L 281.769531 435.898438 L 281.691406 436.328125 L 279.554688 436.347656 L 277.390625 437.65625 L 277.96875 438.546875 L 281.382813 438.964844 L 283.71875 439.550781 L 284.207031 442.339844 L 285.640625 445.324219 L 287.863281 447.785156 L 288.433594 450.15625 L 288.273438 454.125 L 286.789063 457.808594 L 286.433594 458.265625 L 286.253906 458.289063 L 284.1875 457.9375 L 281.042969 460.90625 L 278.484375 461.933594 L 274.910156 462.746094 L 273.394531 462.121094 L 270.351563 461.734375 L 267.4375 462.121094 L 264.601563 463.292969 L 256.847656 463.292969 L 254.492188 461.144531 L 251.644531 459.71875 L 248.898438 459.140625 L 245.214844 459.414063 L 244.394531 459.125 L 244.800781 456.339844 L 244.523438 453.539063 L 243.585938 450.886719 L 242.117188 448.632813 L 240.351563 446.796875 L 238.503906 445.460938 L 236.191406 444.425781 L 233.585938 443.90625 L 231.703125 442.363281 L 229.542969 441.242188 L 227.066406 440.578125 L 224.636719 440.460938 L 222.109375 440.890625 L 219.851563 441.800781 L 217.734375 443.242188 L 216.0625 445.011719 L 214.792969 447.085938 L 213.988281 449.382813 L 212.980469 447.078125 L 211.589844 445.132813 L 208.949219 442.59375 L 206.707031 441.164063 L 204.445313 440.339844 L 199.839844 439.421875 L 197.292969 439.449219 L 194.816406 440.03125 L 192.839844 437.6875 L 190.210938 435.882813 L 187.863281 435.09375 L 190.867188 432.195313 L 195.792969 425.3125 L 197.929688 424.472656 L 198.285156 423.78125 L 198.070313 423.238281 L 197.8125 423.082031 L 196.09375 424.355469 L 192.90625 427.300781 L 190.570313 429.988281 L 189.222656 431.449219 L 186.945313 432.40625 L 187.449219 431.890625 L 188.664063 430.074219 L 189.511719 428.0625 L 190.039063 425.15625 L 189.789063 422.089844 L 188.742188 419.195313 L 187.0625 416.769531 L 189.335938 415.882813 L 191.375 414.542969 L 193.089844 412.804688 L 194.40625 410.75 L 195.261719 408.464844 L 195.625 406.050781 L 195.472656 403.613281 Z M 206.445313 416.769531 L 204.285156 417.597656 L 202.433594 418.753906 L 200.746094 420.335938 L 199.40625 422.222656 L 198.503906 424.210938 L 197.972656 426.464844 L 197.898438 428.777344 L 198.285156 431.054688 L 199.09375 433.222656 L 200.289063 435.195313 L 201.855469 436.890625 L 203.722656 438.246094 L 205.820313 439.207031 L 208.066406 439.734375 L 210.371094 439.808594 L 212.648438 439.425781 L 214.800781 438.601563 L 216.75 437.367188 L 218.609375 435.59375 L 219.964844 433.722656 L 220.921875 431.617188 L 221.445313 429.367188 L 221.511719 427.054688 L 221.121094 424.777344 L 220.289063 422.621094 L 219.042969 420.671875 L 217.441406 419.007813 L 215.539063 417.691406 L 213.414063 416.78125 L 211.148438 416.308594 L 208.710938 416.304688 Z M 283.960938 436.40625 L 283.703125 439.09375 L 283.058594 438.976563 L 282.164063 437.605469 L 282.484375 436.070313 Z M 233.585938 32.953125 L 233.585938 36.832031 L 232.699219 38.980469 L 230.96875 38.972656 L 230.324219 38.394531 L 230.554688 36.238281 L 231.699219 35.300781 Z M 226.445313 59.601563 L 225.949219 61.542969 L 225.851563 62.976563 L 225.40625 63.738281 L 225.265625 67.207031 L 225.109375 68.414063 L 223.660156 69.554688 L 222.132813 71.496094 L 222.910156 68.203125 L 223.429688 67.644531 L 224.308594 63.570313 L 223.632813 57.773438 L 221.078125 57.210938 L 222.089844 58.292969 L 222.21875 59.898438 L 220.292969 61.703125 L 218.738281 60.40625 L 218.746094 59.554688 L 216.777344 58.757813 L 217.644531 57.277344 L 218.40625 55.117188 L 218.460938 54.722656 L 220.695313 54.34375 L 222.421875 53.527344 L 222.960938 52.8125 L 220.238281 48.339844 L 218.5 48.011719 L 219.550781 46.890625 L 220.765625 44.960938 L 221.578125 42.828125 L 221.808594 41.523438 L 223.226563 40.707031 L 223.542969 41.710938 L 223.417969 46.992188 L 223.628906 47.851563 L 228.960938 48.949219 L 227.699219 56.234375 L 226.355469 57.007813 L 225.6875 56.476563 L 226.023438 58.453125 Z M 226.425781 39.308594 L 227.414063 38.820313 L 229.648438 36.984375 L 229.761719 37.023438 L 229.984375 39.984375 L 229.175781 46.582031 L 227.496094 47.179688 L 226.742188 47.023438 L 226.078125 45.398438 L 225.789063 41.242188 Z M 229.707031 467.167969 L 229.144531 469.515625 L 229.078125 471.929688 L 228 469.6875 L 226.5625 467.816406 Z M 218.078125 288.832031 L 221.945313 289.496094 L 224.722656 289.023438 L 224.8125 289.410156 L 222.207031 290.898438 L 219.617188 293.988281 L 219.128906 291.257813 Z M 210.671875 466.867188 L 212.214844 465.171875 L 213.398438 463.203125 L 214.136719 461.167969 L 214.496094 458.898438 L 215.578125 461.738281 L 217.359375 464.203125 L 213.804688 465.003906 Z M 206.445313 471.046875 L 207.480469 470.28125 L 207.816406 470.421875 L 207.121094 471.863281 L 206.570313 473.933594 Z M 198.691406 354.738281 L 199.222656 352.640625 L 199.351563 350.480469 L 198.382813 345.109375 L 197.011719 341.847656 L 194.816406 339.230469 L 197.652344 340.402344 L 200.566406 340.789063 L 203.609375 340.402344 L 206.445313 339.230469 L 204.457031 341.523438 L 203.167969 344.136719 L 202.457031 347.855469 L 202.570313 350.863281 L 201.960938 352.410156 Z M 145.402344 246.0625 L 147.492188 245.503906 L 149.4375 244.574219 L 152.167969 242.308594 L 154.582031 241.128906 L 156.75 239.339844 L 158.164063 237.519531 L 159.230469 235.335938 L 159.824219 232.976563 L 159.921875 230.675781 L 162.085938 233.28125 L 165.636719 236.324219 L 167.585938 237.542969 L 169.492188 238.097656 L 166.480469 238.003906 L 166.738281 239.222656 L 168.246094 240.195313 L 178.0625 241.875 L 179.113281 242.15625 L 179.308594 242.308594 L 181.378906 244.824219 L 183.183594 246.183594 L 184.941406 249.886719 L 187.871094 252.75 L 190.386719 254.039063 L 193.136719 254.6875 L 195.960938 254.652344 L 198.691406 253.9375 L 200.398438 256.109375 L 202.570313 257.816406 L 203.847656 260.386719 L 201.226563 260.839844 L 198.664063 261.941406 L 196.53125 263.535156 L 194.816406 265.570313 L 194.40625 263.324219 L 193.570313 261.203125 L 192.410156 259.386719 L 190.9375 257.816406 L 189.492188 255.105469 L 187.183594 252.707031 L 184.292969 251.0625 L 180.925781 250.289063 L 177.480469 250.542969 L 174.261719 251.796875 L 171.554688 253.9375 L 170.351563 251.253906 L 168.511719 248.957031 L 166.152344 247.191406 L 163.316406 246.023438 L 159.921875 245.519531 L 156.046875 246.183594 Z M 171.496094 238.679688 L 175.429688 238.429688 L 176.164063 239.363281 L 174.761719 240.109375 Z M 198.691406 168.910156 L 198.691406 172.523438 L 196.523438 174.230469 L 194.816406 176.398438 L 190.9375 176.398438 L 188.699219 175.433594 L 186.433594 174.96875 L 182.976563 175.125 L 180.765625 175.796875 L 178.730469 176.894531 L 176.863281 178.460938 L 175.429688 180.277344 L 173.304688 177.875 L 170.722656 176.195313 L 167.789063 175.257813 L 164.582031 175.132813 L 162.070313 175.667969 L 159.734375 176.746094 L 157.695313 178.304688 L 156.046875 180.277344 L 156.046875 176.398438 L 156.710938 172.652344 L 156.0625 168.738281 L 156.390625 168.453125 L 157.75 167.980469 L 160.300781 168.324219 L 161.058594 169.320313 L 157.109375 173.804688 L 156.367188 175.339844 L 156.707031 175.816406 L 157.367188 175.984375 L 158.261719 175.542969 L 161.140625 173.015625 L 166.082031 170.984375 L 168.179688 171.757813 L 171.109375 172.109375 L 174.15625 171.679688 L 176.875 170.53125 L 179.308594 168.644531 L 183.183594 168.644531 L 183.191406 168.648438 L 184.320313 169.011719 L 184.550781 168.878906 L 187.0625 169.3125 L 190.9375 168.644531 L 197.050781 168.644531 Z M 156.214844 167.386719 L 156.355469 166.371094 L 156.207031 164.078125 L 154.859375 160.238281 L 154.503906 159.8125 L 155.875 160.457031 L 159.460938 161.410156 L 159.460938 161.71875 L 159.972656 164.105469 L 160.664063 165.664063 L 159.984375 165.785156 Z M 154.429688 159.726563 L 152.167969 157.015625 L 159.921875 157.015625 L 159.445313 159.40625 L 159.449219 160.226563 L 156.839844 159.359375 L 153.464844 157.734375 Z M 176.398438 202.917969 L 179.308594 203.539063 L 178.660156 206.757813 L 177.714844 204.726563 Z M 167.675781 277.199219 L 169.382813 279.371094 L 171.554688 281.078125 L 169.195313 282.277344 L 166.964844 280.414063 Z M 106.738281 490.269531 L 110.339844 489.007813 L 111.214844 488.308594 L 111.738281 488.078125 L 112.199219 488.253906 L 112.445313 488.9375 L 113.574219 489.15625 L 117.207031 486.578125 L 120.710938 486.238281 L 123.453125 485.179688 L 125.84375 483.46875 L 127.660156 481.320313 L 128.90625 478.800781 L 130.882813 477.890625 L 132.65625 476.625 L 135.289063 473.347656 L 136.582031 469.34375 L 136.617188 466.765625 L 138.636719 464.640625 L 138.761719 463.082031 L 138.960938 463.0625 L 141.054688 462.429688 L 143.097656 461.351563 L 144.886719 459.886719 L 146.351563 458.097656 L 147.429688 456.054688 L 148.085938 453.835938 L 148.1875 452.753906 L 148.429688 452.488281 L 148.410156 452.210938 L 148.972656 454.785156 L 150.476563 457.605469 L 152.792969 459.992188 L 155.570313 461.574219 L 158.671875 462.34375 L 161.867188 462.238281 L 165.03125 461.210938 L 167.675781 459.414063 L 167.371094 462.585938 L 167.980469 465.84375 L 169.40625 468.691406 L 171.554688 471.046875 L 170.082031 472.617188 L 170.054688 472.65625 L 168.992188 473.234375 L 168.214844 474.070313 L 167.203125 476.179688 L 165.199219 482.039063 L 164.671875 482.992188 L 164.15625 485.097656 L 163.605469 486.707031 L 161.628906 488.261719 L 160.1875 490.097656 L 159.390625 489.941406 L 157.675781 488.355469 L 157.082031 488.042969 L 156.527344 486.851563 L 154.683594 485.4375 L 153.613281 485.542969 L 152.417969 486.300781 L 151.738281 486.164063 L 148.46875 482.535156 L 142.796875 482.960938 L 142.492188 483.058594 L 141.796875 482.847656 L 138.664063 482.515625 L 132.734375 483.128906 L 130.371094 484.113281 L 128.285156 485.589844 L 126.570313 487.488281 L 125.125 490.25 L 124.039063 490.597656 L 123.667969 492.109375 L 122.640625 493.375 L 121.632813 495.699219 L 121.300781 497.433594 L 120.703125 497.636719 L 119.082031 495.667969 L 114.113281 491.796875 L 110.902344 490.628906 L 106.652344 490.308594 Z M 140.539063 374.125 L 142.710938 373.042969 L 144.609375 371.535156 L 146.152344 369.664063 L 146.949219 368.144531 L 147.132813 367.984375 L 147.21875 367.632813 L 147.277344 367.515625 L 150.285156 369.550781 L 154.027344 371.109375 L 156.132813 371.65625 L 160.089844 371.613281 L 163.800781 370.246094 L 167.675781 370.910156 L 164.234375 372.835938 L 161.703125 375.695313 L 160.46875 378.355469 L 159.921875 381.875 L 158.597656 385.371094 L 157.449219 383.453125 L 154.601563 379.976563 L 152.292969 378.027344 L 152.683594 374.835938 L 153.175781 374.082031 L 152.804688 373.207031 L 150.203125 373.105469 L 145.855469 374.160156 L 145.109375 373.960938 L 142.816406 373.816406 Z M 152.167969 401.261719 L 154.765625 399.894531 L 156.9375 397.921875 L 158.550781 395.46875 L 159.492188 392.691406 L 159.921875 393.507813 L 159.375 395.734375 L 159.273438 398.023438 L 159.921875 401.261719 L 154.675781 401.265625 L 151.984375 401.75 Z M 132.785156 288.832031 L 132.785156 284.953125 L 135.976563 284.695313 L 138.976563 283.578125 L 141.5625 281.683594 L 143.59375 279.046875 L 145.53125 282.492188 L 148.511719 285.144531 L 147.765625 288.972656 L 148.292969 292.707031 L 146.859375 290.890625 L 145.203125 289.46875 L 143.3125 288.382813 L 141.246094 287.667969 L 139.085938 287.351563 L 136.90625 287.445313 L 134.78125 287.941406 Z M 140.539063 409.015625 L 144.601563 408.523438 L 144.414063 409.015625 L 140.464844 409.707031 Z M 132.785156 246.183594 L 134.871094 247.007813 L 135.339844 249.003906 L 135.222656 250.96875 L 134.8125 251.347656 L 132.929688 249.214844 Z M 138.003906 247.59375 L 139.550781 247.703125 L 137.804688 249.175781 Z M 133.011719 261.703125 L 128.90625 261.691406 L 131.335938 258.910156 L 132.398438 256.421875 L 132.984375 258.382813 Z M 131.632813 419.445313 L 132.890625 419.070313 L 132.785156 420.644531 Z M 108.71875 211.101563 L 109.171875 210.058594 L 110.03125 209.789063 L 110.59375 209.929688 L 111.976563 210.636719 L 113.289063 212.988281 L 113.785156 214.699219 L 114 214.796875 L 114.058594 215.152344 L 113.398438 215.167969 L 111.335938 212.820313 Z M 109.789063 208.640625 L 110.34375 207.363281 L 111.21875 208.78125 Z M 113.125 211.007813 L 113.398438 211.292969 L 113.511719 211.9375 L 113.113281 211.414063 Z M 98.0625 139.894531 L 97.890625 141.507813 L 97.773438 141.796875 L 97.453125 141.691406 L 97.21875 139.679688 L 98.019531 139.84375 Z M 96.71875 144.371094 L 96.335938 147.257813 L 96.722656 150.300781 L 97.890625 153.136719 L 96.824219 154.007813 L 96.453125 153.484375 L 95.234375 152.652344 L 94.117188 152.148438 L 92.941406 152.324219 L 92.058594 151.863281 L 91.273438 150.875 L 92.699219 149.40625 L 92.078125 146.960938 L 92.828125 145.757813 L 93.605469 143.75 L 94.015625 141.507813 L 95.132813 140.628906 L 96.675781 141.359375 L 95.960938 142.378906 Z M 94.140625 156.730469 L 91.691406 159.726563 L 90.550781 158.175781 L 90.507813 157.148438 L 91.820313 157.980469 Z M 89.929688 164.714844 L 89.835938 166.496094 L 90.113281 168.460938 L 89.960938 168.785156 L 87.878906 170.441406 L 87.125 171.34375 L 86.902344 171.355469 L 84.875 171.125 L 84.914063 169.441406 L 82.996094 168.253906 L 81.464844 168.371094 L 80.089844 167.152344 L 80.046875 166.824219 L 81.617188 164.507813 L 86.457031 164.699219 L 87.222656 163.867188 L 88.554688 163.523438 Z M 86.226563 172.414063 L 84.558594 174.40625 L 84.078125 175.257813 L 83.046875 174.507813 L 82.722656 173.699219 L 82.824219 172.589844 L 83.972656 171.789063 Z M 83.816406 175.726563 L 83.25 176.726563 L 82.507813 179.289063 L 82.332031 176.085938 L 83.4375 175.515625 Z M 78.507813 194.933594 L 78.507813 192.753906 L 80.441406 190.269531 L 81.117188 190.9375 L 81.527344 192.582031 L 80.214844 193.613281 L 79.074219 195.0625 Z M 81.886719 187.132813 L 82.035156 186.84375 L 82.382813 188.03125 L 82.382813 188.3125 L 82.128906 188.101563 L 81.921875 187.375 Z M 91.824219 155.515625 L 91.882813 154.726563 L 92.882813 153.957031 L 93.789063 153.890625 L 93.378906 155.476563 Z M 88.238281 162.863281 L 87.917969 162.585938 L 88.445313 161.890625 L 89.367188 161.550781 L 89.65625 162.238281 Z M 88.238281 162.863281 "/>
</g>
</svg>
