<?xml version="1.0" encoding="UTF-8"?>
<svg xmlns="http://www.w3.org/2000/svg" xmlns:xlink="http://www.w3.org/1999/xlink" width="378pt" height="504pt" viewBox="0 0 378 504" version="1.1">
<g id="data">
<rect x="0" y="0" width="378" height="504" style="fill:rgb(100%,100%,100%);fill-opacity:1;stroke:none;"/>
<path style=" stroke:none;fill-rule:nonzero;fill:rgb(100%,100%,100%);fill-opacity:1;" d="M 53.308594 504 L 324.691406 504 L 324.691406 0 L 53.308594 0 Z M 53.308594 504 "/>
<path style=" stroke:none;fill-rule:nonzero;fill:rgb(22.745098%,53.333333%,16.078431%);fill-opacity:1;" d="M 242.15625 443.5 L 241.421875 439.425781 L 244.480469 439.835938 L 243.179688 441.503906 Z M 225.375 64.519531 L 223.65625 66.59375 L 224.308594 63.570313 L 223.632813 57.773438 L 222.097656 57.433594 L 222.859375 56.738281 L 224.46875 54.269531 L 225.410156 51.480469 L 225.617188 48.539063 L 225.5625 48.25 L 227.496094 48.648438 L 227.515625 48.746094 L 228.667969 50.636719 L 228.0625 54.144531 L 227.558594 54.691406 L 226.417969 56.972656 L 226.355469 57.007813 L 225.6875 56.476563 L 225.992188 58.285156 L 225.527344 60.796875 L 225.75 63.148438 L 225.40625 63.738281 Z M 222.988281 68.117188 L 222.847656 68.464844 L 222.910156 68.203125 Z M 218.742188 59.742188 L 220.683594 58.71875 L 221.660156 57.832031 L 222.089844 58.292969 L 222.21875 59.898438 L 220.292969 61.703125 L 218.738281 60.40625 Z M 223.523438 42.601563 L 222.363281 41.203125 L 223.226563 40.707031 L 223.542969 41.710938 Z M 226.394531 39.40625 L 228.078125 38.347656 L 229.574219 36.960938 L 229.609375 36.972656 L 227.496094 40.472656 L 226.746094 44.609375 L 227.214844 47.121094 L 226.742188 47.023438 L 226.078125 45.398438 L 225.789063 41.242188 Z M 202.085938 346.828125 L 202.570313 346.984375 L 202.425781 348.265625 Z M 198.691406 253.9375 L 198.691406 257.816406 L 197.152344 254.429688 Z M 194.816406 440.03125 L 192.933594 437.773438 L 190.65625 436.121094 L 187.929688 435.03125 L 187.925781 435.03125 L 190.867188 432.195313 L 193.34375 428.734375 L 193.800781 429.324219 L 196.007813 431.074219 L 198.691406 432.277344 L 197.21875 433.847656 L 196.003906 435.777344 L 195.1875 437.910156 Z M 188.1875 431.882813 L 189.347656 430.394531 L 190.535156 427.5625 L 190.9375 424.523438 L 192.074219 427.097656 L 192.550781 427.710938 L 190.570313 429.988281 L 189.222656 431.449219 Z M 190.9375 168.644531 L 197.050781 168.644531 L 198.476563 168.878906 L 197.21875 170.21875 L 196.003906 172.148438 L 195.222656 174.15625 L 194.816406 176.398438 L 190.9375 176.398438 L 188.226563 175.261719 L 185.1875 174.84375 L 182.144531 175.230469 L 179.308594 176.398438 L 175.429688 176.398438 L 172.574219 174.519531 L 169.167969 173.535156 L 171.554688 172.523438 L 173.871094 174.136719 L 176.382813 175.109375 L 179.179688 175.484375 L 181.859375 175.203125 L 184.167969 174.421875 L 186.160156 173.25 L 189.050781 170.992188 Z M 166.128906 247.179688 L 169.914063 247.671875 L 173.535156 246.957031 L 176.851563 245.066406 L 179.308594 242.308594 L 181.015625 244.476563 L 183.183594 246.183594 L 184.726563 249.570313 L 183.183594 250.0625 L 180.011719 249.757813 L 176.878906 250.324219 L 173.90625 251.792969 L 171.554688 253.9375 L 170.742188 251.945313 L 169.496094 250.035156 L 167.996094 248.488281 Z M 167.675781 281.078125 L 167.675781 277.199219 L 169.382813 279.371094 L 171.554688 281.078125 Z M 158.132813 171.089844 L 159.003906 171.652344 L 158.617188 172.09375 Z M 161.144531 173.015625 L 164.359375 173.921875 L 162.058594 174.886719 L 159.921875 176.398438 L 159.515625 174.445313 L 161.140625 173.015625 Z M 153.902344 379.292969 L 156.8125 380.558594 L 159.957031 380.992188 L 159.921875 381.875 L 157.984375 383.492188 L 156.046875 381.875 Z M 159.921875 463.292969 L 156.441406 464.109375 L 153.371094 465.945313 L 151.003906 468.628906 L 149.566406 471.90625 L 149.050781 469.398438 L 147.933594 466.960938 L 146.378906 464.929688 L 144.414063 463.292969 L 146.183594 461.460938 L 147.507813 459.289063 L 148.328125 456.878906 L 148.609375 454.351563 L 150.101563 457.886719 L 152.660156 460.746094 L 156.015625 462.617188 Z M 156.046875 401.261719 L 157.984375 399.648438 L 159.921875 401.261719 Z M 145.402344 246.0625 L 149.109375 244.761719 L 152.167969 242.308594 L 155.292969 244.941406 L 152.167969 246.183594 Z M 146.570313 482.675781 L 144.414063 482.675781 L 147.4375 479.765625 L 149.226563 475.96875 L 150.132813 479.503906 L 152.167969 482.675781 L 148.597656 482.675781 L 148.46875 482.535156 Z M 132.785156 246.183594 L 134.894531 247.101563 L 135.339844 249.003906 L 135.289063 249.867188 L 135.082031 250.035156 L 134.480469 250.96875 L 132.917969 249.207031 Z M 128.90625 261.691406 L 130.796875 259.695313 L 132.117188 257.425781 L 132.242188 259.53125 L 132.785156 261.691406 Z M 89.539063 164.378906 L 89.472656 164.769531 L 90.109375 168.46875 L 89.992188 168.722656 L 87.1875 170.1875 L 87.679688 167.9375 L 87.707031 165.507813 L 87.367188 163.832031 L 88.554688 163.523438 Z M 82.527344 177.679688 L 82.382813 176.398438 L 82.933594 176.027344 Z M 78.507813 194.933594 L 78.507813 192.753906 L 80.441406 190.269531 L 81.117188 190.9375 L 81.527344 192.582031 L 80.214844 193.613281 L 79.074219 195.0625 Z M 81.886719 187.132813 L 82.035156 186.84375 L 82.382813 188.03125 L 82.382813 188.3125 L 82.128906 188.101563 L 81.921875 187.375 Z M 88.238281 162.863281 L 87.917969 162.585938 L 88.445313 161.890625 L 89.367188 161.550781 L 89.65625 162.238281 Z M 88.238281 162.863281 "/>
<path style=" stroke:none;fill-rule:nonzero;fill:rgb(80.392157%,58.431373%,4.705882%);fill-opacity:1;" d="M 223.890625 393.507813 L 223.609375 395.304688 L 222.78125 396.925781 L 221.496094 398.210938 L 219.875 399.039063 L 218.078125 399.324219 L 216.28125 399.039063 L 214.660156 398.210938 L 213.371094 396.925781 L 212.546875 395.304688 L 212.261719 393.507813 L 212.546875 391.710938 L 213.371094 390.089844 L 214.660156 388.804688 L 216.28125 387.976563 L 218.078125 387.691406 L 219.875 387.976563 L 221.496094 388.804688 L 222.78125 390.089844 L 223.609375 391.710938 Z M 223.890625 393.507813 "/>
<path style=" stroke:none;fill-rule:nonzero;fill:rgb(80.392157%,58.431373%,4.705882%);fill-opacity:1;" d="M 200.628906 339.230469 L 200.347656 341.027344 L 199.519531 342.648438 L 198.234375 343.933594 L 196.613281 344.761719 L 194.816406 345.046875 L 193.019531 344.761719 L 191.398438 343.933594 L 190.109375 342.648438 L 189.285156 341.027344 L 189 339.230469 L 189.285156 337.433594 L 190.109375 335.8125 L 191.398438 334.527344 L 193.019531 333.699219 L 194.816406 333.414063 L 196.613281 333.699219 L 198.234375 334.527344 L 199.519531 335.8125 L 200.347656 337.433594 Z M 200.628906 339.230469 "/>
<path style=" stroke:none;fill-rule:nonzero;fill:rgb(80.392157%,58.431373%,4.705882%);fill-opacity:1;" d="M 177.371094 370.246094 L 177.085938 372.042969 L 176.257813 373.664063 L 174.972656 374.949219 L 173.351563 375.777344 L 171.554688 376.0625 L 169.757813 375.777344 L 168.136719 374.949219 L 166.847656 373.664063 L 166.023438 372.042969 L 165.738281 370.246094 L 166.023438 368.449219 L 166.847656 366.828125 L 168.136719 365.542969 L 169.757813 364.714844 L 171.554688 364.429688 L 173.351563 364.714844 L 174.972656 365.542969 L 176.257813 366.828125 L 177.085938 368.449219 Z M 177.371094 370.246094 "/>
<path style=" stroke:none;fill-rule:nonzero;fill:rgb(80.392157%,58.431373%,4.705882%);fill-opacity:1;" d="M 223.890625 405.136719 L 223.609375 406.933594 L 222.78125 408.558594 L 221.496094 409.84375 L 219.875 410.667969 L 218.078125 410.953125 L 216.28125 410.667969 L 214.660156 409.84375 L 213.371094 408.558594 L 212.546875 406.933594 L 212.261719 405.136719 L 212.546875 403.339844 L 213.371094 401.71875 L 214.660156 400.433594 L 216.28125 399.609375 L 218.078125 399.324219 L 219.875 399.609375 L 221.496094 400.433594 L 222.78125 401.71875 L 223.609375 403.339844 Z M 223.890625 405.136719 "/>
<path style=" stroke:none;fill-rule:nonzero;fill:rgb(80.392157%,58.431373%,4.705882%);fill-opacity:1;" d="M 239.398438 432.277344 L 239.117188 434.074219 L 238.289063 435.695313 L 237.003906 436.980469 L 235.382813 437.808594 L 233.585938 438.09375 L 231.789063 437.808594 L 230.167969 436.980469 L 228.878906 435.695313 L 228.054688 434.074219 L 227.769531 432.277344 L 228.054688 430.480469 L 228.878906 428.859375 L 230.167969 427.570313 L 231.789063 426.746094 L 233.585938 426.460938 L 235.382813 426.746094 L 237.003906 427.570313 L 238.289063 428.859375 L 239.117188 430.480469 Z M 239.398438 432.277344 "/>
<path style=" stroke:none;fill-rule:nonzero;fill:rgb(80.392157%,58.431373%,4.705882%);fill-opacity:1;" d="M 231.644531 424.523438 L 231.363281 426.320313 L 230.535156 427.941406 L 229.25 429.226563 L 227.628906 430.054688 L 225.832031 430.339844 L 224.035156 430.054688 L 222.414063 429.226563 L 221.125 427.941406 L 220.300781 426.320313 L 220.015625 424.523438 L 220.300781 422.726563 L 221.125 421.105469 L 222.414063 419.816406 L 224.035156 418.992188 L 225.832031 418.707031 L 227.628906 418.992188 L 229.25 419.816406 L 230.535156 421.105469 L 231.363281 422.726563 Z M 231.644531 424.523438 "/>
<path style=" stroke:none;fill-rule:nonzero;fill:rgb(80.392157%,58.431373%,4.705882%);fill-opacity:1;" d="M 258.785156 436.152344 L 258.5 437.949219 L 257.675781 439.570313 L 256.386719 440.859375 L 254.765625 441.683594 L 252.96875 441.96875 L 251.171875 441.683594 L 249.550781 440.859375 L 248.265625 439.570313 L 247.4375 437.949219 L 247.152344 436.152344 L 247.4375 434.355469 L 248.265625 432.734375 L 249.550781 431.449219 L 251.171875 430.625 L 252.96875 430.339844 L 254.765625 430.625 L 256.386719 431.449219 L 257.675781 432.734375 L 258.5 434.355469 Z M 258.785156 436.152344 "/>
<path style=" stroke:none;fill-rule:nonzero;fill:rgb(80.392157%,58.431373%,4.705882%);fill-opacity:1;" d="M 185.125 211.292969 L 184.839844 213.089844 L 184.011719 214.710938 L 182.726563 215.996094 L 181.105469 216.824219 L 179.308594 217.109375 L 177.511719 216.824219 L 175.890625 215.996094 L 174.601563 214.710938 L 173.777344 213.089844 L 173.492188 211.292969 L 173.777344 209.496094 L 174.601563 207.875 L 175.890625 206.585938 L 177.511719 205.761719 L 179.308594 205.476563 L 181.105469 205.761719 L 182.726563 206.585938 L 184.011719 207.875 L 184.839844 209.496094 Z M 185.125 211.292969 "/>
<path style=" stroke:none;fill-rule:nonzero;fill:rgb(80.392157%,58.431373%,4.705882%);fill-opacity:1;" d="M 270.414063 397.382813 L 270.128906 399.183594 L 269.304688 400.804688 L 268.019531 402.089844 L 266.398438 402.914063 L 264.601563 403.199219 L 262.804688 402.914063 L 261.183594 402.089844 L 259.894531 400.804688 L 259.070313 399.183594 L 258.785156 397.382813 L 259.070313 395.585938 L 259.894531 393.964844 L 261.183594 392.679688 L 262.804688 391.855469 L 264.601563 391.570313 L 266.398438 391.855469 L 268.019531 392.679688 L 269.304688 393.964844 L 270.128906 395.585938 Z M 270.414063 397.382813 "/>
<path style=" stroke:none;fill-rule:nonzero;fill:rgb(80.392157%,58.431373%,4.705882%);fill-opacity:1;" d="M 297.554688 409.015625 L 297.269531 410.8125 L 296.070313 412.804688 L 295.578125 412.011719 L 292.742188 410.515625 L 292.480469 410.636719 L 294.230469 414.191406 L 291.738281 414.832031 L 289.941406 414.546875 L 288.320313 413.71875 L 287.035156 412.433594 L 286.207031 410.8125 L 285.921875 409.015625 L 286.207031 407.21875 L 287.035156 405.597656 L 288.320313 404.3125 L 289.941406 403.484375 L 291.738281 403.199219 L 293.535156 403.484375 L 295.15625 404.3125 L 296.441406 405.597656 L 297.269531 407.21875 Z M 297.554688 409.015625 "/>
<path style=" stroke:none;fill-rule:nonzero;fill:rgb(80.392157%,58.431373%,4.705882%);fill-opacity:1;" d="M 150.230469 409.015625 L 149.945313 410.8125 L 149.121094 412.433594 L 147.832031 413.71875 L 146.210938 414.546875 L 144.414063 414.832031 L 142.617188 414.546875 L 140.996094 413.71875 L 139.710938 412.433594 L 138.882813 410.8125 L 138.601563 409.015625 L 139.203125 406.597656 L 141.359375 406.660156 L 142.21875 406.390625 L 146.519531 403.640625 L 147.832031 404.3125 L 149.121094 405.597656 L 149.945313 407.21875 Z M 150.230469 409.015625 "/>
<path style=" stroke:none;fill-rule:nonzero;fill:rgb(80.392157%,58.431373%,4.705882%);fill-opacity:1;" d="M 264.039063 375.003906 L 262.519531 375.777344 L 260.722656 376.0625 L 258.925781 375.777344 L 257.304688 374.949219 L 256.019531 373.664063 L 255.191406 372.042969 L 254.90625 370.246094 L 255.191406 368.449219 L 256.019531 366.828125 L 257.304688 365.542969 L 258.925781 364.714844 L 260.722656 364.429688 L 262.519531 364.714844 L 264.140625 365.542969 L 265.429688 366.828125 L 266.066406 368.082031 L 261.394531 373.164063 L 260.601563 374.816406 L 262.84375 374.3125 Z M 264.039063 375.003906 "/>
<path style=" stroke:none;fill-rule:nonzero;fill:rgb(80.392157%,58.431373%,4.705882%);fill-opacity:1;" d="M 146.355469 409.015625 L 146.070313 410.8125 L 145.242188 412.433594 L 143.957031 413.71875 L 142.335938 414.546875 L 140.539063 414.832031 L 138.742188 414.546875 L 137.121094 413.71875 L 135.832031 412.433594 L 135.007813 410.8125 L 134.78125 409.390625 L 135.753906 407.632813 L 137.585938 406.550781 L 141.359375 406.660156 L 144.546875 404.902344 L 145.242188 405.597656 L 146.070313 407.21875 Z M 146.355469 409.015625 "/>
<path style=" stroke:none;fill-rule:nonzero;fill:rgb(80.392157%,58.431373%,4.705882%);fill-opacity:1;" d="M 282.046875 374.125 L 281.761719 375.921875 L 280.933594 377.542969 L 279.648438 378.828125 L 278.027344 379.652344 L 276.230469 379.9375 L 274.433594 379.652344 L 272.8125 378.828125 L 271.480469 377.449219 L 273.40625 371.914063 L 274.707031 370.632813 L 277.851563 370.085938 L 280.382813 370.152344 L 281.761719 372.324219 Z M 282.046875 374.125 "/>
<path style=" stroke:none;fill-rule:nonzero;fill:rgb(80.392157%,58.431373%,4.705882%);fill-opacity:1;" d="M 171.015625 439.859375 L 169.898438 437.949219 L 169.617188 436.152344 L 169.898438 434.355469 L 170.726563 432.734375 L 172.011719 431.449219 L 173.632813 430.625 L 175.429688 430.339844 L 177.226563 430.625 L 178.847656 431.449219 L 180.136719 432.734375 L 180.761719 433.960938 L 178.394531 435.230469 L 177.398438 436.808594 L 177.039063 438.671875 L 176.445313 439.273438 L 174.058594 439.917969 Z M 171.015625 439.859375 "/>
<path style=" stroke:none;fill-rule:nonzero;fill:rgb(80.392157%,58.431373%,4.705882%);fill-opacity:1;" d="M 130.847656 222.921875 L 130.5625 224.71875 L 129.734375 226.339844 L 128.449219 227.628906 L 126.828125 228.453125 L 125.03125 228.738281 L 123.234375 228.453125 L 122.046875 227.847656 L 122.761719 224.691406 L 124.160156 221.96875 L 126.660156 220.210938 L 130.199219 220.417969 Z M 127.464844 217.714844 L 129.175781 218.945313 L 127.28125 218.265625 Z M 123.378906 222.417969 L 122.582031 222.078125 L 123.082031 221.191406 L 124.476563 221.046875 Z M 121.453125 227.109375 L 121.152344 226.972656 L 120.984375 225.621094 L 121.59375 224.800781 L 122.367188 224.816406 L 121.953125 226.621094 Z M 119.292969 223.421875 L 119.5 221.125 L 120.921875 218.910156 L 121.195313 219.144531 L 120.902344 221.207031 Z M 119.292969 223.421875 "/>
<path style=" stroke:none;fill-rule:nonzero;fill:rgb(80.392157%,58.431373%,4.705882%);fill-opacity:1;" d="M 139.410156 322.675781 L 138.882813 321.644531 L 138.640625 320.097656 L 139.816406 316.644531 L 142.300781 315.023438 L 142.671875 314.308594 L 144.414063 314.03125 L 146.210938 314.316406 L 147.832031 315.140625 L 148.847656 316.15625 L 147.847656 318.148438 L 145.3125 320.636719 L 141.859375 323.019531 L 139.824219 322.464844 Z M 139.410156 322.675781 "/>
<path style=" stroke:none;fill-rule:nonzero;fill:rgb(80.392157%,58.431373%,4.705882%);fill-opacity:1;" d="M 123.09375 486.554688 L 122.808594 488.351563 L 121.980469 489.972656 L 120.695313 491.257813 L 119.074219 492.085938 L 117.277344 492.371094 L 115.480469 492.085938 L 113.859375 491.257813 L 112.570313 489.972656 L 111.707031 488.089844 L 112.199219 488.253906 L 112.445313 488.9375 L 113.574219 489.15625 L 118.144531 485.910156 L 121.664063 482.816406 L 122.808594 484.757813 Z M 123.09375 486.554688 "/>
<path style=" stroke:none;fill-rule:nonzero;fill:rgb(80.392157%,58.431373%,4.705882%);fill-opacity:1;" d="M 184.777344 438.066406 L 184.011719 439.570313 L 182.101563 441.175781 L 182.519531 440.25 Z M 174.757813 439.726563 L 173.777344 437.949219 L 173.492188 436.152344 L 173.777344 434.355469 L 174.601563 432.734375 L 175.890625 431.449219 L 177.511719 430.625 L 179.308594 430.339844 L 181.105469 430.625 L 182.726563 431.449219 L 184.011719 432.734375 L 184.230469 433.167969 L 182.441406 433.0625 L 178.394531 435.230469 L 177.398438 436.808594 L 177.039063 438.671875 L 176.445313 439.273438 Z M 174.757813 439.726563 "/>
<path style=" stroke:none;fill-rule:nonzero;fill:rgb(80.392157%,58.431373%,4.705882%);fill-opacity:1;" d="M 147.992188 317.859375 L 146.496094 317.625 L 144.875 316.796875 L 143.585938 315.511719 L 142.824219 314.011719 L 144.765625 310.230469 L 145.863281 309.40625 L 149.046875 308.269531 L 150.203125 313.453125 Z M 147.992188 317.859375 "/>
<path style=" stroke:none;fill-rule:nonzero;fill:rgb(80.392157%,58.431373%,4.705882%);fill-opacity:1;" d="M 117.570313 259.800781 L 119.074219 260.039063 L 120.695313 260.863281 L 121.660156 261.828125 L 121.183594 263.964844 L 122.0625 266.289063 L 120.679688 268.164063 L 119.945313 268.597656 L 116.058594 268.992188 L 115.222656 268.382813 L 115.277344 264.699219 L 117.226563 262.640625 Z M 117.570313 259.800781 "/>
<path style=" stroke:none;fill-rule:nonzero;fill:rgb(80.392157%,58.431373%,4.705882%);fill-opacity:1;" d="M 116.433594 268.953125 L 115.625 267.367188 L 115.339844 265.570313 L 115.515625 264.449219 L 117.226563 262.640625 L 117.402344 261.199219 L 119.355469 260.039063 L 121.152344 259.753906 L 122.089844 259.902344 L 121.183594 263.964844 L 122.0625 266.289063 L 120.679688 268.164063 L 119.945313 268.597656 Z M 116.433594 268.953125 "/>
<path style=" stroke:none;fill-rule:nonzero;fill:rgb(80.392157%,58.431373%,4.705882%);fill-opacity:1;" d="M 224.570313 472.355469 L 225.003906 471.503906 L 226.289063 470.21875 L 227.910156 469.390625 L 229.707031 469.109375 L 231.503906 469.390625 L 233.570313 470.664063 L 231.242188 473.621094 L 229.960938 474.269531 L 228.117188 474.644531 Z M 224.570313 472.355469 "/>
<path style=" stroke:none;fill-rule:nonzero;fill:rgb(80.392157%,58.431373%,4.705882%);fill-opacity:1;" d="M 95.953125 149.261719 L 95.667969 151.058594 L 94.929688 152.511719 L 94.117188 152.148438 L 92.941406 152.324219 L 92.058594 151.863281 L 91.273438 150.875 L 92.699219 149.40625 L 91.417969 144.347656 L 91.753906 143.703125 L 93.558594 144.558594 L 94.84375 145.84375 L 95.667969 147.464844 Z M 93.617188 153.90625 L 91.878906 154.800781 L 92.882813 153.957031 Z M 93.617188 153.90625 "/>
<path style=" stroke:none;fill-rule:nonzero;fill:rgb(80.392157%,58.431373%,4.705882%);fill-opacity:1;" d="M 139.320313 318.101563 L 140.539063 317.90625 L 142.335938 318.191406 L 143.957031 319.019531 L 145.378906 320.574219 L 141.859375 323.019531 L 139.824219 322.464844 L 137.933594 323.433594 L 137.675781 322.921875 Z M 139.320313 318.101563 "/>
<path style=" stroke:none;fill-rule:nonzero;fill:rgb(80.392157%,58.431373%,4.705882%);fill-opacity:1;" d="M 187.335938 122.957031 L 186.4375 122.070313 L 185.203125 119.125 L 185.941406 118.488281 L 188.300781 118.292969 L 188.792969 119.078125 L 187.910156 122.796875 Z M 185.4375 127.679688 L 183.226563 126.410156 L 185.5625 126.683594 Z M 181.464844 120.75 L 182.398438 118.664063 L 182.96875 119.6875 L 182.941406 120.441406 Z M 181.464844 120.75 "/>
<path style=" stroke:none;fill-rule:nonzero;fill:rgb(80.392157%,58.431373%,4.705882%);fill-opacity:1;" d="M 197.75 100.652344 L 196.894531 100.515625 L 194.96875 99.386719 L 196.15625 98.316406 L 199.542969 97.917969 L 199.804688 99.347656 Z M 197.75 100.652344 "/>
<path style=" stroke:none;fill-rule:nonzero;fill:rgb(80.392157%,58.431373%,4.705882%);fill-opacity:1;" d="M 57.035156 155.945313 L 56.230469 155.527344 L 56.160156 154.664063 L 57.585938 155.238281 Z M 57.035156 155.945313 "/>
</g>
</svg>
