<?xml version="1.0" encoding="UTF-8"?>
<svg xmlns="http://www.w3.org/2000/svg" xmlns:xlink="http://www.w3.org/1999/xlink" width="378pt" height="504pt" viewBox="0 0 378 504" version="1.1">
<g id="data">
<rect x="0" y="0" width="378" height="504" style="fill:rgb(100%,100%,100%);fill-opacity:1;stroke:none;"/>
<path style=" stroke:none;fill-rule:nonzero;fill:rgb(100%,100%,100%);fill-opacity:1;" d="M 53.308594 504 L 324.691406 504 L 324.691406 0 L 53.308594 0 Z M 53.308594 504 "/>
<path style=" stroke:none;fill-rule:nonzero;fill:rgb(22.745098%,53.333333%,16.078431%);fill-opacity:1;" d="M 178.292969 300.390625 L 176.742188 301.144531 L 175.039063 301.410156 L 173.332031 301.160156 L 171.773438 300.425781 L 170.5 299.261719 L 169.703125 297.921875 L 174.074219 288.722656 L 176.464844 286.417969 L 178.757813 285.980469 L 180.191406 286.804688 L 181.015625 286.710938 L 182.933594 286.238281 L 183.03125 285.160156 L 182.34375 284.746094 L 180.035156 285.351563 L 174.65625 284.980469 L 172.566406 284.292969 L 171.953125 284.242188 L 172.960938 283.566406 L 174.652344 283.066406 L 176.414063 283.097656 L 179.308594 283.59375 L 182.203125 283.097656 L 183.847656 283.054688 L 185.4375 283.46875 L 187.257813 284.234375 L 188.699219 284.472656 L 189.785156 284.414063 L 191.335938 284.027344 L 193.042969 283.878906 L 193.136719 283.242188 L 193.933594 281.613281 L 195.132813 279.902344 L 195.660156 278.523438 L 195.820313 277.070313 L 195.625 275.707031 L 194.863281 274.023438 L 193.667969 272.695313 L 192.226563 271.84375 L 189.609375 271.230469 L 187.925781 270.542969 L 186.535156 269.367188 L 185.578125 267.824219 L 185.144531 266.054688 L 185.277344 264.242188 L 185.707031 262.402344 L 185.714844 261.058594 L 185.269531 259.109375 L 185.148438 258.351563 L 184.910156 255.785156 L 184.292969 254.285156 L 182.914063 252.691406 L 180.351563 251.261719 L 178.960938 250.183594 L 177.960938 248.738281 L 176.753906 246.265625 L 175.261719 244.761719 L 174.488281 244.304688 L 173.480469 243.933594 L 170.175781 243.558594 L 168.3125 243.019531 L 166.730469 241.898438 L 165.605469 240.316406 L 165.0625 238.457031 L 165.160156 236.519531 L 165.878906 233.292969 L 166.632813 231.457031 L 167.957031 229.984375 L 169.582031 228.707031 L 170.859375 227.082031 L 172.042969 225.949219 L 173.496094 225.191406 L 175.101563 224.871094 L 176.730469 225.007813 L 177.832031 225.261719 L 178.117188 225.714844 L 178.972656 225.457031 L 180.03125 225.453125 L 181.328125 225.136719 L 183.125 224.226563 L 184.816406 223.671875 L 186.597656 223.65625 L 188.300781 224.179688 L 188.921875 224.609375 L 188.898438 224.691406 L 189.238281 225.953125 L 190.898438 226.824219 L 190.933594 226.832031 L 191.460938 228.277344 L 191.925781 230.625 L 192.3125 231.382813 L 192.117188 231.570313 L 189.460938 232.730469 L 188.34375 232.882813 L 187.070313 232.078125 L 185.40625 232.042969 L 181.046875 235.800781 L 180.578125 237.003906 L 174.761719 240.109375 L 170.214844 238.117188 L 166.480469 238.003906 L 166.738281 239.222656 L 168.246094 240.195313 L 178.0625 241.875 L 182.921875 243.167969 L 186.398438 241.730469 L 187.519531 239.417969 L 188.617188 238.355469 L 189.539063 238.171875 L 193.183594 238.5 L 199.339844 242.761719 L 200.492188 243.390625 L 200.464844 243.683594 L 199.898438 246.015625 L 199.957031 247.601563 L 200.449219 249.113281 L 201.324219 250.417969 L 202.601563 251.488281 L 204.886719 252.480469 L 206.070313 253.171875 L 207.0625 254.121094 L 208.738281 256.164063 L 212.679688 259.292969 L 214.648438 259.925781 L 217.617188 259.769531 L 218.679688 263.09375 L 218.894531 265.933594 L 218.261719 267.402344 L 219.886719 275.117188 L 219.878906 275.234375 L 219.992188 276.566406 L 220.742188 278.945313 L 220.867188 279.105469 L 221.269531 280.457031 L 222.984375 284.039063 L 223.773438 285.027344 L 225.945313 294.183594 L 229.304688 299.0625 L 244.476563 306.140625 L 245.742188 307.636719 L 247.265625 310.527344 L 249.289063 315.722656 L 252.390625 319.148438 L 254.875 320.296875 L 254.878906 320.429688 L 254.492188 322.003906 L 253.578125 324.296875 L 253.414063 326.140625 L 253.582031 327.140625 L 254.457031 329.230469 L 254.734375 330.0625 L 255.417969 332.792969 L 256.695313 334.75 L 258.0625 336.121094 L 259.148438 336.878906 L 259.398438 336.988281 L 263.316406 342.46875 L 263.640625 343.980469 L 262.804688 345.191406 L 263.28125 343.65625 L 262.507813 342.839844 L 260.445313 342 L 258.378906 342.789063 L 257.507813 342.753906 L 256.035156 341.773438 L 253.664063 338.65625 L 252.601563 338.082031 L 245.550781 339.511719 L 244.589844 338.644531 L 243.40625 338.558594 L 241.210938 339.871094 L 241.886719 340.445313 L 246.324219 340.394531 L 249.617188 339.34375 L 251.976563 339.082031 L 254.382813 342.558594 L 260.535156 347.621094 L 263.042969 349.058594 L 263.664063 349.039063 L 266.046875 352.214844 L 268.980469 359.304688 L 269.535156 362.402344 L 269.210938 365.21875 L 264.953125 369.09375 L 261.394531 373.164063 L 260.601563 374.816406 L 262.84375 374.3125 L 264.9375 375.519531 L 266.9375 378.226563 L 270.21875 378.804688 L 270.625 378.746094 L 271.910156 376.796875 L 272.234375 374.960938 L 273.40625 371.914063 L 274.707031 370.632813 L 277.851563 370.085938 L 283.34375 370.234375 L 284.253906 370.867188 L 286.703125 370.742188 L 293.949219 371.515625 L 296.914063 372.84375 L 304.070313 378.085938 L 305.367188 380.105469 L 306.730469 384.164063 L 307.179688 391.25 L 306.777344 393.191406 L 306.890625 393.976563 L 305.789063 396.917969 L 303.519531 407.832031 L 297.144531 414.53125 L 295.578125 412.011719 L 292.742188 410.515625 L 292.480469 410.636719 L 293.898438 413.703125 L 295.890625 416.628906 L 296.3125 416.765625 L 296.164063 417.742188 L 294.574219 419.804688 L 292.191406 421.289063 L 290.003906 421.65625 L 289.660156 421.574219 L 288.214844 419.332031 L 284.976563 421.730469 L 280.71875 424.230469 L 282.339844 425.378906 L 285.105469 424.398438 L 286.097656 423.375 L 286.894531 423.164063 L 287.328125 423.710938 L 287.632813 428.84375 L 285.6875 430.875 L 283.441406 432.558594 L 282.84375 432.699219 L 279.644531 432.160156 L 274.75 433.78125 L 272.609375 436.117188 L 274.253906 436.015625 L 275.152344 434.667969 L 276.683594 434.363281 L 278.285156 434.328125 L 281.054688 434.949219 L 281.828125 435.589844 L 281.691406 436.328125 L 279.554688 436.347656 L 277.390625 437.65625 L 277.96875 438.546875 L 281.382813 438.964844 L 286.863281 440.339844 L 289.394531 439.9375 L 291.074219 438.957031 L 299.742188 437.757813 L 300.988281 440.148438 L 300.773438 446.324219 L 300.335938 447.820313 L 299.394531 449.050781 L 296.972656 450.242188 L 295.839844 450.375 L 292.621094 451.640625 L 291.179688 452.742188 L 289.847656 454.226563 L 289.460938 455.09375 L 289.214844 456.324219 L 289.464844 457.886719 L 286.253906 458.289063 L 284.1875 457.9375 L 281.042969 460.90625 L 278.484375 461.933594 L 274.789063 462.777344 L 272.597656 463.816406 L 270.539063 466.589844 L 269.761719 466.949219 L 259.269531 463.777344 L 256.070313 463.507813 L 244.628906 465.699219 L 242.703125 466.390625 L 242.113281 466.964844 L 241.902344 467.984375 L 241.359375 468.164063 L 238.210938 466.1875 L 238.632813 465.4375 L 239.46875 464.933594 L 237.714844 463.296875 L 231.496094 463.171875 L 231.378906 463.496094 L 232.574219 464.835938 L 232.214844 465.75 L 231.738281 466.042969 L 226.691406 465.496094 L 219.566406 468.449219 L 217.054688 467.824219 L 210.222656 468.96875 L 208.164063 468.875 L 207.273438 468.058594 L 206.238281 469.769531 L 209.429688 471.089844 L 209.714844 470.9375 L 210.1875 472.128906 L 209.566406 473.890625 L 206.84375 474.453125 L 204.453125 473.097656 L 203.015625 472.699219 L 197.625 472.007813 L 196.175781 472.65625 L 195.679688 473.863281 L 195.832031 474.871094 L 196.757813 475.523438 L 196.488281 476.304688 L 195.917969 475.996094 L 194.851563 473.972656 L 190.289063 470.589844 L 185.898438 468.519531 L 183.121094 467.984375 L 181.648438 469.066406 L 176.207031 469.78125 L 174.339844 470.335938 L 168.992188 473.234375 L 168.214844 474.070313 L 167.203125 476.179688 L 162.746094 489.226563 L 160.929688 490.242188 L 158.269531 489.722656 L 157.554688 489.058594 L 156.527344 486.851563 L 154.683594 485.4375 L 153.613281 485.542969 L 152.417969 486.300781 L 151.738281 486.164063 L 148.46875 482.535156 L 142.796875 482.960938 L 141.527344 483.375 L 140.734375 484.175781 L 139.910156 484.507813 L 134.507813 484.320313 L 132.167969 484.859375 L 129.414063 488.195313 L 126.714844 489.746094 L 124.039063 490.597656 L 123.132813 494.289063 L 123.664063 495.292969 L 123.496094 496.125 L 122.722656 496.945313 L 120.660156 497.648438 L 119.628906 499.730469 L 118.675781 498.910156 L 117.96875 497.691406 L 118.09375 496.4375 L 117.15625 494.691406 L 115.984375 493.691406 L 112.253906 492.070313 L 111.410156 491.984375 L 110.375 492.488281 L 110.242188 494.183594 L 109.421875 495.128906 L 106.824219 495.664063 L 105.398438 494.824219 L 105.628906 491.574219 L 106.074219 490.5625 L 111.738281 488.078125 L 112.199219 488.253906 L 112.445313 488.9375 L 113.574219 489.15625 L 118.144531 485.910156 L 121.425781 483.085938 L 124.375 479.769531 L 125.210938 477.886719 L 124.875 476.421875 L 125.640625 474.519531 L 128.386719 473.238281 L 132.105469 472.640625 L 132.679688 471.785156 L 133.257813 469.527344 L 135.859375 467.5625 L 138.636719 464.640625 L 139.128906 458.542969 L 139.796875 454.753906 L 142.492188 455.105469 L 144.269531 456.015625 L 145.761719 455.429688 L 148.429688 452.488281 L 148.105469 447.519531 L 151.105469 446.613281 L 157.421875 446.269531 L 159.910156 445.683594 L 164.597656 446.761719 L 166.046875 446.148438 L 167.527344 446.515625 L 169.484375 447.285156 L 170.039063 448.109375 L 170.757813 448.421875 L 173.15625 448.464844 L 180.570313 447.503906 L 181.109375 445.632813 L 181.210938 443.15625 L 182.519531 440.25 L 190.867188 432.195313 L 195.792969 425.3125 L 197.929688 424.472656 L 198.285156 423.78125 L 198.070313 423.238281 L 197.8125 423.082031 L 196.09375 424.355469 L 192.90625 427.300781 L 190.570313 429.988281 L 189.222656 431.449219 L 185.628906 432.957031 L 183.714844 433.246094 L 182.441406 433.0625 L 178.394531 435.230469 L 177.398438 436.808594 L 177.039063 438.671875 L 176.445313 439.273438 L 174.058594 439.917969 L 170.558594 439.851563 L 166.820313 439 L 166.347656 438.652344 L 161.371094 433.375 L 159.03125 429.199219 L 155.65625 429.589844 L 149.269531 432.308594 L 149.113281 432.746094 L 147.203125 431.632813 L 146.917969 429.308594 L 148.539063 428.378906 L 150.066406 428.890625 L 151.640625 428.421875 L 152.765625 427.832031 L 153.085938 427.097656 L 152.808594 426.597656 L 147.785156 426.460938 L 143.210938 423.710938 L 139.503906 423.714844 L 136.765625 424.277344 L 136.292969 426.515625 L 135.777344 427.203125 L 133.742188 427.917969 L 132.394531 427.265625 L 131.648438 427.453125 L 129.4375 429.378906 L 126.53125 428.132813 L 127.425781 426.082031 L 128.796875 425.832031 L 131.792969 424.328125 L 131.226563 422.867188 L 130.640625 424.257813 L 127.769531 424.613281 L 122.949219 424.152344 L 121.496094 423.164063 L 124.125 421.78125 L 125.167969 421.753906 L 125.464844 421.238281 L 124.929688 417.953125 L 123.328125 417.210938 L 121.445313 417.105469 L 122.0625 415.152344 L 125.933594 413.378906 L 126.539063 411.90625 L 133.074219 411.34375 L 134.871094 409.289063 L 135.753906 407.632813 L 137.585938 406.550781 L 141.359375 406.660156 L 142.21875 406.390625 L 149.359375 401.828125 L 152.136719 398.207031 L 153.054688 396.195313 L 154.199219 391.746094 L 153.734375 388.820313 L 152.566406 386.542969 L 153.179688 384.597656 L 154.652344 381.796875 L 152.269531 378.203125 L 152.683594 374.835938 L 153.175781 374.082031 L 152.804688 373.207031 L 150.203125 373.105469 L 145.449219 374.257813 L 143.757813 375.484375 L 142.039063 378.097656 L 136.757813 378.433594 L 136.246094 378.0625 L 137.339844 376.066406 L 140.148438 373.019531 L 141.023438 372.414063 L 142.589844 371.953125 L 147.132813 367.984375 L 147.953125 364.523438 L 151.550781 360.582031 L 153.09375 359.609375 L 154.941406 359.808594 L 160.492188 357.457031 L 163.644531 357.28125 L 167.339844 357.714844 L 172.597656 355.179688 L 173.933594 355.046875 L 174.484375 355.082031 L 179.910156 359.441406 L 180.433594 358.429688 L 177.679688 353.460938 L 178.242188 352.835938 L 180.867188 352.449219 L 181.503906 352.695313 L 181.914063 353.875 L 182.898438 354.332031 L 184.078125 356.789063 L 185.613281 357.902344 L 188.359375 357.621094 L 190.335938 355.148438 L 189.90625 355.050781 L 188.667969 355.527344 L 188.3125 355.957031 L 186.378906 356.386719 L 183.8125 354.640625 L 179.976563 346.332031 L 183.371094 340.257813 L 185.429688 339.015625 L 185.140625 338.578125 L 182.683594 338.460938 L 181.554688 337.164063 L 181.355469 336.117188 L 181.601563 331.078125 L 181.949219 330.421875 L 184.695313 329.191406 L 187.28125 323.421875 L 187.71875 320.933594 L 187.855469 317.484375 L 184.742188 320.527344 L 179.199219 323.441406 L 177.335938 322.691406 L 172.851563 314.925781 L 172.289063 311.832031 L 171.019531 309.964844 L 171.816406 309.480469 L 173.679688 309.070313 L 175.578125 309.285156 L 177.300781 310.101563 L 180.902344 312.605469 L 181.726563 312.902344 L 182.785156 313.074219 L 183.949219 313.035156 L 185.070313 312.769531 L 186.113281 312.289063 L 187.511719 311.269531 L 189.183594 310.425781 L 191.039063 310.15625 L 192.882813 310.488281 L 194.523438 311.390625 L 195.792969 312.769531 L 196.558594 314.480469 L 196.742188 316.347656 L 196.617188 318.28125 L 196.925781 321.800781 L 197.351563 323.019531 L 198.011719 324.0625 L 199.398438 325.328125 L 201.839844 326.566406 L 203.339844 327.0625 L 204.652344 327.175781 L 206.03125 326.96875 L 208.074219 326.113281 L 209.363281 325.742188 L 212.386719 325.234375 L 213.253906 324.835938 L 214.167969 324.167969 L 214.996094 323.253906 L 215.601563 322.207031 L 215.980469 321.050781 L 216.171875 319.234375 L 216.734375 317.28125 L 217.9375 315.640625 L 220.132813 313.542969 L 221.0625 311.609375 L 221.246094 309.773438 L 220.808594 307.929688 L 219.734375 306.230469 L 218.148438 304.859375 L 217.421875 304.105469 L 215.972656 302.300781 L 214.53125 301.195313 L 213.195313 299.746094 L 212.417969 297.929688 L 212.292969 295.964844 L 212.527344 293.78125 L 212.316406 292.34375 L 211.753906 291.003906 L 210.796875 289.75 L 209.820313 288.917969 L 208.878906 288.371094 L 207.761719 287.988281 L 206.71875 287.839844 L 205.539063 287.90625 L 204.515625 288.167969 L 203.449219 288.671875 L 202.144531 289.632813 L 200.535156 290.46875 L 198.746094 290.769531 L 198.40625 290.71875 L 198.070313 292.011719 L 197.007813 294.425781 L 196.722656 297.179688 L 196.257813 298.933594 L 195.277344 300.457031 L 193.871094 301.605469 L 192.179688 302.265625 L 190.371094 302.371094 L 188.613281 301.914063 L 187.085938 300.941406 L 185.863281 299.859375 L 184.929688 299.304688 L 183.910156 298.933594 L 182.855469 298.761719 L 181.675781 298.796875 L 180.632813 299.035156 L 179.640625 299.46875 Z M 157.832031 402.582031 L 157.496094 403.597656 L 156.792969 405.195313 L 156.5625 406.242188 L 156.527344 407.328125 L 156.695313 408.402344 L 157.0625 409.425781 L 157.613281 410.359375 L 158.332031 411.175781 L 159.621094 412.183594 L 160.886719 413.542969 L 161.65625 415.234375 L 161.851563 417.082031 L 161.742188 419.125 L 162.042969 421.144531 L 162.535156 422.40625 L 163.25 423.46875 L 164.0625 424.253906 L 165.039063 424.894531 L 166.105469 425.320313 L 167.230469 425.527344 L 168.378906 425.507813 L 169.515625 425.261719 L 170.480469 424.84375 L 171.398438 424.214844 L 172.347656 423.203125 L 172.941406 422.175781 L 173.660156 419.253906 L 173.945313 418.398438 L 174.824219 416.292969 L 174.980469 415.390625 L 174.839844 413.542969 L 173.894531 411.144531 L 173.492188 409.015625 L 173.492188 405.136719 L 173.753906 403.410156 L 174.492188 401.050781 L 174.507813 399.308594 L 174.046875 397.730469 L 173.277344 396.515625 L 171.574219 395.117188 L 169.527344 394.4375 L 167.648438 394.464844 L 163.183594 395.644531 L 161.261719 396.648438 L 159.351563 398.5 L 158.410156 400.113281 Z M 156.046875 255.875 L 154.320313 255.613281 L 152.75 254.851563 L 151.476563 253.65625 L 150.199219 252.03125 L 148.574219 250.753906 L 147.550781 249.71875 L 146.816406 248.460938 L 146.085938 246.738281 L 145 245.214844 L 144.222656 243.679688 L 144.0625 242.75 L 146.15625 243.175781 L 148.300781 243.253906 L 143.984375 241.535156 L 144.144531 240.273438 L 144.847656 238.703125 L 145.984375 237.410156 L 147.445313 236.503906 L 149.109375 236.066406 L 150.832031 236.132813 L 153.257813 236.59375 L 155.589844 237.605469 L 157.050781 238.667969 L 158.035156 239.097656 L 161.359375 239.507813 L 163.253906 240.078125 L 164.847656 241.25 L 165.953125 242.886719 L 166.449219 244.800781 L 166.277344 246.769531 L 165.824219 248.46875 L 165.730469 250.351563 L 165.378906 252.078125 L 164.523438 253.617188 L 163.246094 254.832031 L 161.664063 255.609375 L 159.921875 255.875 Z M 144.125 311.476563 L 145.109375 312.375 L 146.386719 313.996094 L 148.011719 315.273438 L 148.84375 316.164063 L 147.847656 318.148438 L 145.3125 320.636719 L 141.859375 323.019531 L 139.824219 322.464844 L 137.933594 323.433594 L 137.675781 322.921875 L 139.816406 316.644531 L 142.300781 315.023438 Z M 147.425781 363.976563 L 146.109375 363.875 L 144.195313 361.613281 L 142.050781 357.363281 L 142.246094 352.273438 L 144.664063 351.183594 L 146.003906 350.957031 L 149.566406 352.007813 L 151.039063 355.578125 L 155.546875 356.503906 L 154.066406 358.859375 L 150.984375 360.816406 Z M 141.734375 358.875 L 141.003906 358.070313 L 139.230469 356.960938 L 138.828125 356.035156 L 139.253906 355.210938 L 140.597656 355.164063 L 141.484375 356.3125 L 142.226563 358.1875 Z M 286.679688 439.636719 L 283.058594 438.976563 L 282.164063 437.605469 L 282.484375 436.070313 L 286.839844 437.054688 L 287.960938 438.832031 Z M 236.835938 466.113281 L 235.136719 465.644531 L 236.523438 463.683594 L 237.195313 464.164063 L 237.5 465.839844 Z M 228.117188 474.644531 L 222.296875 470.886719 L 220.207031 471.1875 L 221.476563 469.683594 L 227.316406 466.367188 L 232.550781 467.761719 L 234.171875 469.894531 L 231.242188 473.621094 L 229.960938 474.269531 Z M 228.117188 474.644531 "/>
<path style=" stroke:none;fill-rule:nonzero;fill:rgb(80.392157%,58.431373%,4.705882%);fill-opacity:1;" d="M 177.371094 172.523438 L 177.085938 174.320313 L 176.257813 175.941406 L 174.972656 177.226563 L 173.351563 178.054688 L 171.554688 178.339844 L 169.757813 178.054688 L 168.136719 177.226563 L 166.847656 175.941406 L 166.023438 174.320313 L 165.738281 172.523438 L 165.976563 171.027344 L 167.808594 170.273438 L 170.480469 169.527344 L 170.492188 169.949219 L 171.554688 169.839844 L 173.589844 168.316406 L 173.902344 167.273438 L 174.972656 167.816406 L 176.257813 169.105469 L 177.085938 170.726563 Z M 177.371094 172.523438 "/>
<path style=" stroke:none;fill-rule:nonzero;fill:rgb(80.392157%,58.431373%,4.705882%);fill-opacity:1;" d="M 185.125 168.644531 L 184.839844 170.441406 L 184.011719 172.0625 L 182.726563 173.351563 L 181.105469 174.175781 L 179.308594 174.460938 L 177.511719 174.175781 L 175.890625 173.351563 L 174.601563 172.0625 L 173.777344 170.441406 L 173.492188 168.644531 L 173.539063 168.355469 L 173.589844 168.316406 L 174.046875 166.78125 L 178.648438 166.167969 L 179.285156 167.089844 L 180.148438 167.667969 L 184.320313 169.011719 L 185.109375 168.566406 Z M 185.125 168.644531 "/>
<path style=" stroke:none;fill-rule:nonzero;fill:rgb(80.392157%,58.431373%,4.705882%);fill-opacity:1;" d="M 188.953125 224.480469 L 187.519531 223.75 L 186.234375 222.464844 L 185.910156 221.832031 L 186.457031 221.386719 L 187.289063 221.316406 L 189.085938 221.875 L 189.332031 222.921875 Z M 185.53125 221.085938 L 185.40625 220.84375 L 185.125 219.046875 L 185.40625 217.25 L 186.234375 215.628906 L 187.519531 214.339844 L 189.140625 213.515625 L 190.9375 213.230469 L 192.734375 213.515625 L 194.355469 214.339844 L 195.644531 215.628906 L 195.8125 215.957031 L 191.214844 219.742188 Z M 185.53125 221.085938 "/>
<path style=" stroke:none;fill-rule:nonzero;fill:rgb(80.392157%,58.431373%,4.705882%);fill-opacity:1;" d="M 125.558594 256.953125 L 127.109375 256.160156 L 128.90625 255.875 L 130.703125 256.160156 L 132.324219 256.988281 L 132.671875 257.332031 L 132.984375 258.382813 L 133.019531 262.765625 L 132.308594 263.453125 L 130.613281 263.773438 L 129.152344 263.667969 L 126.582031 261.613281 Z M 125.558594 256.953125 "/>
<path style=" stroke:none;fill-rule:nonzero;fill:rgb(80.392157%,58.431373%,4.705882%);fill-opacity:1;" d="M 195.578125 216.152344 L 195.273438 215.996094 L 193.988281 214.710938 L 193.160156 213.089844 L 192.875 211.292969 L 193.160156 209.496094 L 193.988281 207.875 L 195.273438 206.585938 L 196.894531 205.761719 L 198.691406 205.476563 L 200.488281 205.761719 L 201.195313 206.121094 L 200.949219 206.4375 L 199.179688 207.605469 L 197.078125 210.023438 L 197.433594 210.839844 L 197.785156 210.703125 L 197.761719 211.238281 L 196.796875 214.386719 L 195.867188 215.914063 Z M 195.578125 216.152344 "/>
<path style=" stroke:none;fill-rule:nonzero;fill:rgb(80.392157%,58.431373%,4.705882%);fill-opacity:1;" d="M 225.320313 65.828125 L 224.035156 65.625 L 223.882813 65.546875 L 224.308594 63.570313 L 223.632813 57.773438 L 221.078125 57.210938 L 222.089844 58.292969 L 222.21875 59.898438 L 220.292969 61.703125 L 220.265625 61.679688 L 220.015625 60.09375 L 220.300781 58.296875 L 221.125 56.675781 L 222.414063 55.386719 L 224.035156 54.5625 L 225.832031 54.277344 L 227.628906 54.5625 L 227.960938 54.730469 L 227.699219 56.234375 L 226.355469 57.007813 L 225.6875 56.476563 L 226.023438 58.453125 L 227.246094 61.769531 L 226.800781 62.460938 L 226.285156 62.238281 L 225.40625 63.738281 Z M 225.320313 65.828125 "/>
<path style=" stroke:none;fill-rule:nonzero;fill:rgb(80.392157%,58.431373%,4.705882%);fill-opacity:1;" d="M 88.429688 500.046875 L 88.566406 499.308594 L 88.941406 499.117188 L 89.34375 499.789063 Z M 88.429688 500.046875 "/>
</g>
</svg>
