<?xml version="1.0" encoding="UTF-8"?>
<svg xmlns="http://www.w3.org/2000/svg" xmlns:xlink="http://www.w3.org/1999/xlink" width="378pt" height="504pt" viewBox="0 0 378 504" version="1.1">
<g id="data">
<rect x="0" y="0" width="378" height="504" style="fill:rgb(100%,100%,100%);fill-opacity:1;stroke:none;"/>
<path style=" stroke:none;fill-rule:nonzero;fill:rgb(100%,100%,100%);fill-opacity:1;" d="M 53.308594 504 L 324.691406 504 L 324.691406 0 L 53.308594 0 Z M 53.308594 504 "/>
<path style=" stroke:none;fill-rule:nonzero;fill:rgb(22.745098%,53.333333%,16.078431%);fill-opacity:1;" d="M 299.652344 374.847656 L 300.175781 377.210938 L 301.742188 380.101563 L 304.988281 383.957031 L 306.8125 385.40625 L 307.179688 391.25 L 306.777344 393.191406 L 306.890625 393.976563 L 305.789063 396.917969 L 305.183594 399.824219 L 303.925781 402.410156 L 303.246094 406.136719 L 303.328125 408.035156 L 297.144531 414.53125 L 295.578125 412.011719 L 292.742188 410.515625 L 292.480469 410.636719 L 293.898438 413.703125 L 295.890625 416.628906 L 296.3125 416.765625 L 296.164063 417.742188 L 294.574219 419.804688 L 292.191406 421.289063 L 290.003906 421.65625 L 289.660156 421.574219 L 288.214844 419.332031 L 284.976563 421.730469 L 280.71875 424.230469 L 282.339844 425.378906 L 285.105469 424.398438 L 286.097656 423.375 L 286.894531 423.164063 L 287.328125 423.710938 L 287.632813 428.84375 L 285.6875 430.875 L 283.441406 432.558594 L 282.84375 432.699219 L 279.644531 432.160156 L 274.75 433.78125 L 272.609375 436.117188 L 274.253906 436.015625 L 275.152344 434.667969 L 276.683594 434.363281 L 278.285156 434.328125 L 281.054688 434.949219 L 281.828125 435.589844 L 281.691406 436.328125 L 279.554688 436.347656 L 277.390625 437.65625 L 277.96875 438.546875 L 281.382813 438.964844 L 286.863281 440.339844 L 289.394531 439.9375 L 291.074219 438.957031 L 296.394531 438.222656 L 299.492188 440.03125 L 299.492188 447.785156 L 297.320313 449.492188 L 296.707031 450.273438 L 295.839844 450.375 L 292.621094 451.640625 L 291.179688 452.742188 L 289.847656 454.226563 L 289.460938 455.09375 L 289.214844 456.324219 L 289.390625 457.425781 L 288.992188 457.945313 L 286.253906 458.289063 L 284.1875 457.9375 L 281.042969 460.90625 L 278.484375 461.933594 L 274.789063 462.777344 L 272.597656 463.816406 L 270.539063 466.589844 L 269.761719 466.949219 L 259.269531 463.777344 L 259.199219 463.773438 L 258.722656 463.601563 L 256.347656 463.21875 L 246.964844 463.132813 L 242.15625 463.523438 L 239.265625 464.546875 L 239.144531 464.632813 L 237.714844 463.296875 L 231.496094 463.171875 L 231.378906 463.496094 L 232.574219 464.835938 L 232.214844 465.75 L 231.738281 466.042969 L 226.691406 465.496094 L 219.566406 468.449219 L 217.054688 467.824219 L 210.222656 468.96875 L 208.164063 468.875 L 207.273438 468.058594 L 206.238281 469.769531 L 209.429688 471.089844 L 209.714844 470.9375 L 210.1875 472.128906 L 209.566406 473.890625 L 206.84375 474.453125 L 204.453125 473.097656 L 203.015625 472.699219 L 197.625 472.007813 L 196.175781 472.65625 L 195.679688 473.863281 L 195.832031 474.871094 L 196.757813 475.523438 L 196.488281 476.304688 L 195.917969 475.996094 L 194.851563 473.972656 L 190.289063 470.589844 L 185.898438 468.519531 L 183.121094 467.984375 L 181.648438 469.066406 L 176.207031 469.78125 L 174.339844 470.335938 L 168.992188 473.234375 L 168.214844 474.070313 L 167.203125 476.179688 L 162.746094 489.226563 L 160.929688 490.242188 L 158.269531 489.722656 L 157.554688 489.058594 L 156.527344 486.851563 L 154.683594 485.4375 L 153.613281 485.542969 L 152.417969 486.300781 L 151.738281 486.164063 L 148.46875 482.535156 L 142.796875 482.960938 L 141.527344 483.375 L 140.734375 484.175781 L 139.910156 484.507813 L 134.507813 484.320313 L 132.167969 484.859375 L 129.414063 488.195313 L 126.714844 489.746094 L 124.039063 490.597656 L 123.132813 494.289063 L 123.664063 495.292969 L 123.65625 495.328125 L 123.132813 495.753906 L 121.945313 497.210938 L 120.660156 497.648438 L 120.394531 498.183594 L 118.253906 498.183594 L 117.96875 497.691406 L 118.09375 496.4375 L 117.15625 494.691406 L 115.984375 493.691406 L 112.253906 492.070313 L 111.410156 491.984375 L 110.375 492.488281 L 110.242188 494.183594 L 110.007813 494.453125 L 108.652344 494.195313 L 105.644531 494.308594 L 105.441406 494.210938 L 105.628906 491.574219 L 106.074219 490.5625 L 106.945313 490.179688 L 108.132813 489.949219 L 110.347656 489.003906 L 111.21875 488.304688 L 111.738281 488.078125 L 112.199219 488.253906 L 112.445313 488.9375 L 113.574219 489.15625 L 118.144531 485.910156 L 121.425781 483.085938 L 124.375 479.769531 L 125.210938 477.886719 L 124.875 476.421875 L 125.640625 474.519531 L 128.386719 473.238281 L 132.105469 472.640625 L 132.679688 471.785156 L 133.257813 469.527344 L 135.859375 467.5625 L 138.636719 464.640625 L 138.996094 460.191406 L 139.761719 458.863281 L 140.539063 455.539063 L 141.671875 455 L 142.492188 455.105469 L 144.269531 456.015625 L 145.761719 455.429688 L 148.429688 452.488281 L 148.144531 448.144531 L 148.292969 447.785156 L 148.578125 447.375 L 151.105469 446.613281 L 157.421875 446.269531 L 159.910156 445.683594 L 164.597656 446.761719 L 166.046875 446.148438 L 167.527344 446.515625 L 169.484375 447.285156 L 170.039063 448.109375 L 170.757813 448.421875 L 173.15625 448.464844 L 180.570313 447.503906 L 181.109375 445.632813 L 181.210938 443.15625 L 182.519531 440.25 L 190.867188 432.195313 L 195.792969 425.3125 L 197.929688 424.472656 L 198.285156 423.78125 L 198.070313 423.238281 L 197.8125 423.082031 L 196.09375 424.355469 L 192.90625 427.300781 L 190.570313 429.988281 L 189.222656 431.449219 L 185.628906 432.957031 L 183.714844 433.246094 L 182.441406 433.0625 L 178.394531 435.230469 L 177.398438 436.808594 L 177.039063 438.671875 L 176.445313 439.273438 L 174.058594 439.917969 L 170.558594 439.851563 L 166.820313 439 L 166.347656 438.652344 L 161.371094 433.375 L 159.03125 429.199219 L 155.65625 429.589844 L 149.269531 432.308594 L 149.113281 432.746094 L 148.011719 432.101563 L 147.140625 431.101563 L 146.917969 429.308594 L 148.539063 428.378906 L 150.066406 428.890625 L 151.640625 428.421875 L 152.765625 427.832031 L 153.085938 427.097656 L 152.808594 426.597656 L 147.785156 426.460938 L 143.210938 423.710938 L 139.503906 423.714844 L 136.765625 424.277344 L 136.292969 426.515625 L 135.777344 427.203125 L 133.742188 427.917969 L 132.394531 427.265625 L 131.648438 427.453125 L 130.660156 428.316406 L 127.082031 428.371094 L 126.53125 428.132813 L 127.425781 426.082031 L 128.796875 425.832031 L 131.792969 424.328125 L 131.226563 422.867188 L 130.640625 424.257813 L 127.769531 424.613281 L 124.941406 424.34375 L 124.472656 421.792969 L 124.460938 421.773438 L 125.167969 421.753906 L 125.464844 421.238281 L 124.929688 417.953125 L 123.328125 417.210938 L 121.445313 417.105469 L 122.0625 415.152344 L 125.933594 413.378906 L 126.144531 412.867188 L 127.460938 412.628906 L 129.46875 411.652344 L 133.074219 411.34375 L 134.871094 409.289063 L 135.289063 408.503906 L 135.511719 408.457031 L 137.921875 407.332031 L 138.851563 406.585938 L 141.359375 406.660156 L 142.21875 406.390625 L 149.359375 401.828125 L 152.136719 398.207031 L 153.054688 396.195313 L 154.199219 391.746094 L 153.734375 388.820313 L 152.566406 386.542969 L 153.179688 384.597656 L 154.652344 381.796875 L 152.269531 378.203125 L 152.683594 374.835938 L 153.175781 374.082031 L 152.804688 373.207031 L 150.203125 373.105469 L 145.449219 374.257813 L 143.757813 375.484375 L 142.039063 378.097656 L 141.78125 378.113281 L 139.164063 377.851563 L 136.660156 378 L 136.660156 377.304688 L 137.339844 376.066406 L 140.148438 373.019531 L 141.023438 372.414063 L 142.589844 371.953125 L 147.132813 367.984375 L 147.953125 364.523438 L 151.550781 360.582031 L 153.09375 359.609375 L 154.941406 359.808594 L 160.492188 357.457031 L 163.644531 357.28125 L 167.339844 357.714844 L 172.597656 355.179688 L 173.933594 355.046875 L 174.484375 355.082031 L 179.910156 359.441406 L 180.433594 358.429688 L 177.679688 353.460938 L 178.242188 352.835938 L 180.867188 352.449219 L 181.503906 352.695313 L 181.914063 353.875 L 182.898438 354.332031 L 184.078125 356.789063 L 185.613281 357.902344 L 188.359375 357.621094 L 190.335938 355.148438 L 189.90625 355.050781 L 188.667969 355.527344 L 188.3125 355.957031 L 186.378906 356.386719 L 183.8125 354.640625 L 179.976563 346.332031 L 180.195313 345.9375 L 181.433594 344.476563 L 182.585938 342.078125 L 182.699219 341.457031 L 183.371094 340.257813 L 185.429688 339.015625 L 185.140625 338.578125 L 183.25 338.488281 L 183.320313 338.109375 L 183.160156 333.6875 L 182.402344 330.457031 L 182.296875 330.265625 L 184.695313 329.191406 L 187.28125 323.421875 L 187.71875 320.933594 L 187.839844 317.898438 L 189.070313 317.332031 L 190.9375 315.96875 L 191.167969 319.042969 L 192.199219 321.945313 L 193.953125 324.476563 L 196.421875 326.527344 L 198.621094 327.589844 L 200.992188 328.167969 L 203.816406 328.203125 L 206.445313 327.601563 L 208.671875 328.234375 L 210.976563 328.417969 L 213.273438 328.136719 L 215.46875 327.410156 L 217.476563 326.261719 L 219.21875 324.742188 L 220.691406 322.796875 L 221.953125 319.847656 L 223.625 317.414063 L 224.796875 313.757813 L 224.859375 310.9375 L 224.28125 308.304688 L 223.316406 306.207031 L 221.953125 304.339844 L 221.511719 301.972656 L 220.648438 299.859375 L 218.078125 296.585938 L 218.390625 293.796875 L 218.03125 291.015625 L 217.011719 288.398438 L 215.398438 286.105469 L 213.507813 284.378906 L 211.65625 283.222656 L 209.496094 282.398438 L 207.21875 282.019531 L 204.90625 282.09375 L 202.660156 282.625 L 200.558594 283.59375 L 198.691406 284.953125 L 200.429688 282.421875 L 201.417969 279.648438 L 201.675781 276.71875 L 201.152344 273.691406 L 199.644531 270.589844 L 197.292969 268.0625 L 194.300781 266.339844 L 190.9375 265.570313 L 191.601563 261.4375 L 190.679688 254.632813 L 189.375 251.304688 L 187.125 248.527344 L 185.269531 247.160156 L 183.183594 246.183594 L 181.203125 244.410156 L 178.992188 243.179688 L 173.332031 241.695313 L 170.515625 241.507813 L 166.882813 242.296875 L 163.785156 244.113281 L 161.390625 246.785156 L 159.921875 250.0625 L 156.046875 250.0625 L 154.6875 248.253906 L 152.167969 246.183594 L 150.460938 244.015625 L 146.816406 240.910156 L 144.320313 239.398438 L 141.527344 238.554688 L 144.414063 238.429688 L 147.347656 240.699219 L 150.847656 241.929688 L 154.042969 242.054688 L 157.15625 241.308594 L 159.316406 240.1875 L 161.195313 238.636719 L 162.714844 236.734375 L 163.800781 234.554688 L 165.972656 234.472656 L 168.21875 233.949219 L 170.199219 233.054688 L 171.984375 231.808594 L 174.039063 229.535156 L 175.429688 226.800781 L 178.042969 225.59375 L 178.117188 225.714844 L 179.84375 225.195313 L 184.609375 222.886719 L 186.457031 221.386719 L 187.289063 221.316406 L 189.085938 221.875 L 189.332031 222.921875 L 188.898438 224.691406 L 189.238281 225.953125 L 189.636719 226.164063 L 189.640625 226.878906 L 190.335938 229.21875 L 191.429688 231.253906 L 191.8125 231.707031 L 189.460938 232.730469 L 188.34375 232.882813 L 187.070313 232.078125 L 185.40625 232.042969 L 181.046875 235.800781 L 180.578125 237.003906 L 174.761719 240.109375 L 170.214844 238.117188 L 166.480469 238.003906 L 166.738281 239.222656 L 168.246094 240.195313 L 178.0625 241.875 L 182.921875 243.167969 L 186.398438 241.730469 L 187.519531 239.417969 L 188.617188 238.355469 L 189.539063 238.171875 L 193.183594 238.5 L 194.1875 239.195313 L 194.183594 239.324219 L 194.621094 241.699219 L 195.539063 243.949219 L 197.421875 246.527344 L 200.046875 248.5625 L 203.136719 249.773438 L 206.445313 250.0625 L 205.789063 253.332031 L 206.089844 256.652344 L 207.320313 259.753906 L 209.382813 262.378906 L 211.207031 263.800781 L 213.398438 264.875 L 215.765625 265.472656 L 218.078125 265.570313 L 216.726563 269.4375 L 216.828125 273.65625 L 217.523438 275.859375 L 218.640625 277.882813 L 220.140625 279.644531 L 221.335938 280.589844 L 221.832031 281.628906 L 221.332031 283.933594 L 221.46875 286.984375 L 222.59375 291.800781 L 224.359375 295.011719 L 227.625 298.84375 L 232.382813 302.820313 L 234.429688 303.863281 L 236.644531 304.480469 L 238.933594 304.648438 L 240.769531 304.414063 L 241.757813 304.875 L 243.046875 306.507813 L 245.214844 308.214844 L 244.910156 311.386719 L 245.476563 314.523438 L 246.945313 317.492188 L 249.09375 319.847656 L 247.859375 322.929688 L 247.554688 326.367188 L 247.957031 328.765625 L 249.09375 331.476563 L 250.011719 335.152344 L 252.003906 338.203125 L 245.550781 339.511719 L 244.589844 338.644531 L 243.40625 338.558594 L 241.210938 339.871094 L 241.886719 340.445313 L 246.324219 340.394531 L 249.617188 339.34375 L 251.976563 339.082031 L 254.382813 342.558594 L 260.535156 347.621094 L 263.042969 349.058594 L 263.664063 349.039063 L 266.046875 352.214844 L 267.984375 356.898438 L 267.882813 357.34375 L 267.914063 360.140625 L 268.609375 362.851563 L 269.328125 364.207031 L 269.210938 365.21875 L 264.953125 369.09375 L 261.394531 373.164063 L 260.601563 374.816406 L 262.84375 374.3125 L 264.9375 375.519531 L 266.9375 378.226563 L 270.21875 378.804688 L 270.625 378.746094 L 271.910156 376.796875 L 272.234375 374.960938 L 273.40625 371.914063 L 274.707031 370.632813 L 277.820313 370.089844 L 281.859375 370.40625 L 283.566406 370.386719 L 284.253906 370.867188 L 286.703125 370.742188 L 293.949219 371.515625 L 296.914063 372.84375 Z M 156.046875 393.507813 L 154.550781 395.585938 L 153.585938 397.820313 L 153.105469 400.207031 L 153.132813 402.636719 L 153.664063 405.011719 L 154.679688 407.222656 L 156.132813 409.175781 L 157.957031 410.785156 L 161.777344 412.558594 L 166.40625 413.589844 L 169.230469 413.65625 L 171.621094 413.160156 L 173.855469 412.179688 L 175.929688 410.667969 L 177.550781 408.839844 L 178.703125 406.832031 L 179.992188 403.339844 L 180.394531 401.199219 L 180.378906 398.890625 L 179.824219 396.386719 L 178.804688 394.175781 L 177.347656 392.226563 L 175.515625 390.621094 L 173.507813 389.484375 L 171.441406 388.796875 L 169.28125 388.503906 L 167.101563 388.621094 L 160.007813 390.601563 L 157.820313 391.882813 Z M 237.488281 465.773438 L 237.242188 465.945313 L 236.835938 466.113281 L 235.136719 465.644531 L 236.523438 463.683594 L 237.195313 464.164063 Z M 234.167969 469.886719 L 234.140625 469.9375 L 232.75 471.703125 L 231.414063 472.753906 L 230.398438 474.046875 L 229.960938 474.269531 L 229.152344 474.433594 L 227.519531 473.003906 L 224.921875 471.6875 L 222.890625 471.269531 L 222.296875 470.886719 L 221.546875 470.992188 L 220.695313 470.820313 L 220.515625 470.816406 L 221.476563 469.683594 L 227.316406 466.367188 L 232.550781 467.761719 Z M 143.945313 361.117188 L 143.582031 359.433594 L 142.347656 356.898438 L 142.078125 356.578125 L 142.140625 355.050781 L 143.90625 355.390625 L 146.066406 355.285156 L 148.292969 354.738281 L 150.691406 354.738281 L 151.039063 355.578125 L 155.546875 356.503906 L 154.066406 358.859375 L 150.984375 360.816406 L 147.425781 363.976563 L 146.109375 363.875 L 144.195313 361.613281 Z M 175.628906 319.734375 L 175.59375 319.15625 L 175 316.9375 L 173.984375 314.878906 L 178.207031 317.8125 L 180.257813 318.558594 L 182.414063 318.90625 L 184.722656 318.828125 L 186.972656 318.296875 L 187.074219 318.25 L 184.742188 320.527344 L 179.199219 323.441406 L 177.335938 322.691406 Z M 181.566406 222.242188 L 182.238281 221.289063 L 183.183594 219.046875 L 187.0625 219.710938 L 190.9375 219.046875 L 190.644531 219.878906 L 185.519531 221.085938 L 182.847656 221.226563 Z M 256.441406 342.042969 L 258.136719 342.777344 L 257.507813 342.753906 Z M 262.847656 343.199219 L 263.464844 343.167969 L 263.640625 343.980469 L 262.804688 345.191406 L 263.28125 343.65625 Z M 183.183594 288.832031 L 185.390625 289.789063 L 187.875 290.28125 L 190.28125 290.242188 L 192.746094 289.667969 L 191.316406 292.921875 L 190.9375 296.585938 L 188.667969 294.707031 L 186 293.460938 L 183.105469 292.921875 L 180.167969 293.128906 L 177.375 294.066406 L 174.910156 295.675781 L 172.925781 297.855469 L 171.554688 300.460938 L 171.171875 296.78125 L 170.71875 295.785156 L 174.074219 288.722656 L 174.445313 288.363281 L 176.039063 289.027344 L 178.417969 289.460938 L 180.832031 289.394531 Z M 164.765625 289.355469 L 163.800781 288.832031 L 165.484375 287.105469 L 166.71875 285.179688 L 167.589844 282.929688 L 167.972656 280.546875 L 168.777344 282.832031 L 169.507813 284.039063 L 169.453125 284.03125 L 168.226563 288.992188 L 166.234375 288.695313 Z M 137.828125 322.476563 L 138.132813 322.152344 L 139.347656 320.222656 L 140.164063 318.089844 L 140.496094 316.199219 L 142.300781 315.023438 L 142.683594 314.28125 L 142.707031 314.261719 L 144.414063 312.09375 L 146.933594 310.023438 L 147.960938 308.65625 L 148.292969 308.539063 L 148.292969 312.09375 L 146.820313 313.664063 L 145.605469 315.59375 L 144.824219 317.601563 L 144.414063 319.847656 L 142.246094 321.554688 L 141.226563 322.847656 L 139.824219 322.464844 L 137.933594 323.433594 L 137.675781 322.921875 Z M 286.679688 439.636719 L 283.058594 438.976563 L 282.164063 437.605469 L 282.484375 436.070313 L 286.839844 437.054688 L 287.960938 438.832031 Z M 286.679688 439.636719 "/>
</g>
</svg>
