<?xml version="1.0" encoding="UTF-8"?>
<svg xmlns="http://www.w3.org/2000/svg" xmlns:xlink="http://www.w3.org/1999/xlink" width="378pt" height="504pt" viewBox="0 0 378 504" version="1.1">
<g id="data">
<rect x="0" y="0" width="378" height="504" style="fill:rgb(100%,100%,100%);fill-opacity:1;stroke:none;"/>
<path style=" stroke:none;fill-rule:nonzero;fill:rgb(100%,100%,100%);fill-opacity:1;" d="M 53.308594 504 L 324.691406 504 L 324.691406 0 L 53.308594 0 Z M 53.308594 504 "/>
<path style=" stroke:none;fill-rule:nonzero;fill:rgb(22.745098%,53.333333%,16.078431%);fill-opacity:1;" d="M 299.652344 374.847656 L 300.175781 377.210938 L 301.742188 380.101563 L 304.988281 383.957031 L 306.8125 385.40625 L 307.179688 391.25 L 306.777344 393.191406 L 306.890625 393.976563 L 305.789063 396.917969 L 305.195313 399.773438 L 305.1875 399.785156 L 303.886719 402.53125 L 303.246094 406.136719 L 303.328125 408.035156 L 297.144531 414.53125 L 295.578125 412.011719 L 292.742188 410.515625 L 292.480469 410.636719 L 293.898438 413.703125 L 295.890625 416.628906 L 296.3125 416.765625 L 296.164063 417.742188 L 294.574219 419.804688 L 292.191406 421.289063 L 290.003906 421.65625 L 289.660156 421.574219 L 288.214844 419.332031 L 284.976563 421.730469 L 280.71875 424.230469 L 282.339844 425.378906 L 285.105469 424.398438 L 286.097656 423.375 L 286.894531 423.164063 L 287.328125 423.710938 L 287.632813 428.84375 L 285.6875 430.875 L 283.441406 432.558594 L 282.84375 432.699219 L 279.644531 432.160156 L 274.75 433.78125 L 272.609375 436.117188 L 274.253906 436.015625 L 275.152344 434.667969 L 276.683594 434.363281 L 278.285156 434.328125 L 281.054688 434.949219 L 281.828125 435.589844 L 281.691406 436.328125 L 279.554688 436.347656 L 277.390625 437.65625 L 277.96875 438.546875 L 281.382813 438.964844 L 286.863281 440.339844 L 289.394531 439.9375 L 291.074219 438.957031 L 296.382813 438.222656 L 297.421875 439.011719 L 299.492188 440.03125 L 297.503906 442.324219 L 296.171875 445.054688 L 295.492188 448.78125 L 295.5625 450.480469 L 292.621094 451.640625 L 291.179688 452.742188 L 289.847656 454.226563 L 289.460938 455.09375 L 289.214844 456.324219 L 289.398438 457.460938 L 289.21875 457.609375 L 288.964844 457.949219 L 286.253906 458.289063 L 284.1875 457.9375 L 281.042969 460.90625 L 278.484375 461.933594 L 274.789063 462.777344 L 272.597656 463.816406 L 270.539063 466.589844 L 269.761719 466.949219 L 259.269531 463.777344 L 259.199219 463.773438 L 258.722656 463.601563 L 256.347656 463.21875 L 246.964844 463.132813 L 242.15625 463.523438 L 239.265625 464.546875 L 239.144531 464.632813 L 237.714844 463.296875 L 231.496094 463.171875 L 231.378906 463.496094 L 232.574219 464.835938 L 232.214844 465.75 L 231.738281 466.042969 L 226.691406 465.496094 L 219.566406 468.449219 L 217.054688 467.824219 L 210.222656 468.96875 L 208.164063 468.875 L 207.273438 468.058594 L 206.238281 469.769531 L 209.429688 471.089844 L 209.714844 470.9375 L 210.1875 472.128906 L 209.566406 473.890625 L 206.84375 474.453125 L 204.453125 473.097656 L 203.015625 472.699219 L 197.625 472.007813 L 196.175781 472.65625 L 195.679688 473.863281 L 195.832031 474.871094 L 196.757813 475.523438 L 196.488281 476.304688 L 195.917969 475.996094 L 194.851563 473.972656 L 190.289063 470.589844 L 185.898438 468.519531 L 183.121094 467.984375 L 181.648438 469.066406 L 176.207031 469.78125 L 174.339844 470.335938 L 168.992188 473.234375 L 168.214844 474.070313 L 167.203125 476.179688 L 162.746094 489.226563 L 160.929688 490.242188 L 158.269531 489.722656 L 157.554688 489.058594 L 156.527344 486.851563 L 154.683594 485.4375 L 153.613281 485.542969 L 152.417969 486.300781 L 151.738281 486.164063 L 148.46875 482.535156 L 142.796875 482.960938 L 141.527344 483.375 L 140.734375 484.175781 L 139.910156 484.507813 L 134.507813 484.320313 L 132.167969 484.859375 L 129.414063 488.195313 L 126.714844 489.746094 L 124.039063 490.597656 L 123.132813 494.289063 L 123.664063 495.292969 L 123.65625 495.328125 L 123.132813 495.753906 L 121.945313 497.210938 L 120.660156 497.648438 L 120.394531 498.183594 L 118.253906 498.183594 L 117.96875 497.691406 L 118.09375 496.4375 L 117.15625 494.691406 L 115.984375 493.691406 L 112.253906 492.070313 L 111.410156 491.984375 L 110.375 492.488281 L 110.242188 494.183594 L 110.007813 494.453125 L 108.652344 494.195313 L 105.644531 494.308594 L 105.441406 494.210938 L 105.628906 491.574219 L 106.074219 490.5625 L 106.914063 490.191406 L 108.011719 489.988281 L 110.347656 489.003906 L 111.21875 488.304688 L 111.738281 488.078125 L 112.199219 488.253906 L 112.445313 488.9375 L 113.574219 489.15625 L 118.144531 485.910156 L 121.425781 483.085938 L 124.375 479.769531 L 125.210938 477.886719 L 124.875 476.421875 L 125.640625 474.519531 L 128.386719 473.238281 L 132.105469 472.640625 L 132.679688 471.785156 L 133.257813 469.527344 L 135.859375 467.5625 L 138.636719 464.640625 L 138.996094 460.191406 L 139.761719 458.863281 L 140.539063 455.539063 L 141.671875 455 L 142.492188 455.105469 L 144.269531 456.015625 L 145.761719 455.429688 L 148.429688 452.488281 L 148.144531 448.136719 L 148.292969 447.785156 L 148.578125 447.375 L 151.105469 446.613281 L 157.421875 446.269531 L 159.910156 445.683594 L 164.597656 446.761719 L 166.046875 446.148438 L 167.527344 446.515625 L 169.484375 447.285156 L 170.039063 448.109375 L 170.757813 448.421875 L 173.15625 448.464844 L 180.570313 447.503906 L 181.109375 445.632813 L 181.210938 443.15625 L 182.519531 440.25 L 190.867188 432.195313 L 195.792969 425.3125 L 197.929688 424.472656 L 198.285156 423.78125 L 198.070313 423.238281 L 197.8125 423.082031 L 196.09375 424.355469 L 192.90625 427.300781 L 190.570313 429.988281 L 189.222656 431.449219 L 185.628906 432.957031 L 183.714844 433.246094 L 182.441406 433.0625 L 178.394531 435.230469 L 177.398438 436.808594 L 177.039063 438.671875 L 176.445313 439.273438 L 174.058594 439.917969 L 170.558594 439.851563 L 166.820313 439 L 166.347656 438.652344 L 161.371094 433.375 L 159.03125 429.199219 L 155.65625 429.589844 L 149.269531 432.308594 L 149.113281 432.746094 L 148.011719 432.101563 L 147.140625 431.101563 L 146.917969 429.308594 L 148.539063 428.378906 L 150.066406 428.890625 L 151.640625 428.421875 L 152.765625 427.832031 L 153.085938 427.097656 L 152.808594 426.597656 L 147.785156 426.460938 L 143.210938 423.710938 L 139.503906 423.714844 L 136.765625 424.277344 L 136.292969 426.515625 L 135.777344 427.203125 L 133.742188 427.917969 L 132.394531 427.265625 L 131.648438 427.453125 L 130.660156 428.316406 L 127.082031 428.371094 L 126.53125 428.132813 L 127.425781 426.082031 L 128.796875 425.832031 L 131.792969 424.328125 L 131.226563 422.867188 L 130.640625 424.257813 L 127.769531 424.613281 L 124.941406 424.34375 L 124.472656 421.792969 L 124.460938 421.773438 L 125.167969 421.753906 L 125.464844 421.238281 L 124.929688 417.953125 L 123.328125 417.210938 L 121.445313 417.105469 L 122.0625 415.152344 L 125.933594 413.378906 L 126.144531 412.867188 L 127.460938 412.628906 L 129.433594 411.65625 L 133.074219 411.34375 L 134.871094 409.289063 L 135.28125 408.519531 L 135.394531 408.496094 L 137.921875 407.332031 L 138.851563 406.585938 L 141.359375 406.660156 L 142.21875 406.390625 L 149.359375 401.828125 L 152.136719 398.207031 L 153.054688 396.195313 L 154.199219 391.746094 L 153.734375 388.820313 L 152.566406 386.542969 L 153.179688 384.597656 L 154.652344 381.796875 L 152.269531 378.203125 L 152.683594 374.835938 L 153.175781 374.082031 L 152.804688 373.207031 L 150.203125 373.105469 L 145.449219 374.257813 L 143.757813 375.484375 L 142.039063 378.097656 L 141.78125 378.113281 L 139.164063 377.851563 L 136.660156 378 L 136.660156 377.304688 L 137.339844 376.066406 L 140.148438 373.019531 L 141.023438 372.414063 L 142.589844 371.953125 L 147.132813 367.984375 L 147.953125 364.523438 L 151.550781 360.582031 L 153.09375 359.609375 L 154.941406 359.808594 L 160.492188 357.457031 L 163.644531 357.28125 L 167.339844 357.714844 L 172.597656 355.179688 L 173.933594 355.046875 L 174.484375 355.082031 L 179.910156 359.441406 L 180.433594 358.429688 L 177.679688 353.460938 L 178.242188 352.835938 L 180.867188 352.449219 L 181.503906 352.695313 L 181.914063 353.875 L 182.898438 354.332031 L 184.078125 356.789063 L 185.613281 357.902344 L 188.359375 357.621094 L 190.335938 355.148438 L 189.90625 355.050781 L 188.667969 355.527344 L 188.3125 355.957031 L 186.378906 356.386719 L 183.8125 354.640625 L 179.976563 346.332031 L 180.195313 345.9375 L 181.433594 344.476563 L 182.585938 342.078125 L 182.699219 341.457031 L 183.371094 340.257813 L 185.429688 339.015625 L 185.140625 338.578125 L 183.25 338.488281 L 183.320313 338.109375 L 183.160156 333.6875 L 182.402344 330.457031 L 182.296875 330.265625 L 184.695313 329.191406 L 187.28125 323.421875 L 187.71875 320.933594 L 187.839844 317.898438 L 189.070313 317.332031 L 190.9375 315.96875 L 190.785156 318.347656 L 191.195313 323.03125 L 192.078125 325.566406 L 193.519531 327.832031 L 196.0625 330.160156 L 199.601563 331.949219 L 202.152344 332.792969 L 204.828125 333.03125 L 207.609375 332.613281 L 210.324219 331.476563 L 214.113281 330.84375 L 216.210938 329.875 L 218.078125 328.511719 L 219.71875 326.703125 L 220.941406 324.59375 L 221.699219 322.273438 L 221.953125 319.847656 L 224.992188 316.910156 L 226.746094 313.207031 L 227.128906 309.382813 L 226.246094 305.640625 L 224.1875 302.394531 L 221.953125 300.460938 L 220.066406 298.117188 L 218.078125 296.585938 L 218.390625 293.667969 L 217.964844 290.765625 L 216.824219 288.0625 L 215.046875 285.730469 L 213.195313 284.152344 L 211.308594 283.058594 L 209.121094 282.304688 L 206.960938 282.003906 L 204.652344 282.132813 L 202.539063 282.667969 L 200.449219 283.65625 L 198.691406 284.953125 L 200.371094 282.535156 L 201.386719 279.773438 L 201.683594 276.972656 L 201.261719 274.0625 L 199.789063 270.800781 L 197.394531 268.144531 L 194.421875 266.386719 L 190.9375 265.570313 L 191.535156 262.964844 L 191.535156 260.417969 L 190.9375 257.816406 L 190.621094 254.382813 L 189.3125 251.191406 L 186.738281 248.191406 L 183.183594 246.183594 L 181.558594 242.855469 L 181.492188 242.789063 L 182.921875 243.167969 L 186.398438 241.730469 L 187.519531 239.417969 L 188.617188 238.355469 L 189.539063 238.171875 L 190.753906 238.28125 L 190.9375 238.429688 L 192.644531 240.601563 L 194.816406 242.308594 L 194.054688 245.425781 L 194.175781 248.628906 L 195.167969 251.679688 L 196.953125 254.34375 L 199.511719 256.484375 L 202.570313 257.816406 L 204.640625 260.332031 L 209.890625 264.503906 L 213.886719 265.789063 L 218.078125 265.570313 L 215.566406 268.734375 L 214.304688 272.441406 L 214.039063 275.199219 L 214.253906 277.703125 L 215.503906 281.675781 L 219.351563 286.667969 L 221.953125 288.832031 L 222.472656 291.4375 L 223.503906 293.75 L 227.992188 299.1875 L 231.851563 302.460938 L 234.429688 303.863281 L 237.785156 304.621094 L 240.71875 304.386719 L 241.757813 304.875 L 243.046875 306.507813 L 245.214844 308.214844 L 244.910156 311.386719 L 245.476563 314.523438 L 246.875 317.386719 L 249.09375 319.847656 L 247.828125 323.054688 L 247.554688 326.367188 L 247.957031 328.765625 L 249.09375 331.476563 L 250.011719 335.152344 L 252.003906 338.203125 L 245.550781 339.511719 L 244.589844 338.644531 L 243.40625 338.558594 L 241.210938 339.871094 L 241.886719 340.445313 L 246.324219 340.394531 L 249.617188 339.34375 L 251.976563 339.082031 L 254.382813 342.558594 L 260.535156 347.621094 L 263.042969 349.058594 L 263.664063 349.039063 L 266.046875 352.214844 L 268.007813 356.957031 L 267.847656 357.722656 L 268.011719 360.769531 L 268.96875 363.675781 L 269.324219 364.21875 L 269.210938 365.21875 L 264.953125 369.09375 L 261.394531 373.164063 L 260.601563 374.816406 L 262.84375 374.3125 L 264.9375 375.519531 L 266.9375 378.226563 L 270.21875 378.804688 L 270.625 378.746094 L 271.910156 376.796875 L 272.234375 374.960938 L 273.40625 371.914063 L 274.707031 370.632813 L 277.667969 370.117188 L 281.984375 370.410156 L 283.570313 370.390625 L 284.253906 370.867188 L 286.703125 370.742188 L 293.949219 371.515625 L 296.914063 372.84375 Z M 152.167969 401.261719 L 151.28125 403.257813 L 150.78125 405.382813 L 150.691406 407.5625 L 151.039063 409.847656 L 151.773438 411.90625 L 152.882813 413.785156 L 154.324219 415.425781 L 156.046875 416.769531 L 155.902344 419.398438 L 156.386719 422.644531 L 157.351563 425.125 L 158.769531 427.222656 L 160.410156 428.816406 L 162.339844 430.078125 L 164.480469 430.933594 L 166.75 431.351563 L 169.054688 431.3125 L 171.183594 430.859375 L 173.304688 429.957031 L 175.207031 428.652344 L 177.046875 426.695313 L 178.390625 424.367188 L 179.308594 420.644531 L 180.445313 417.933594 L 180.835938 415.664063 L 180.570313 412.226563 L 179.308594 409.015625 L 179.308594 405.136719 L 180.296875 401.960938 L 180.332031 398.507813 L 179.453125 395.429688 L 177.6875 392.609375 L 174.429688 389.941406 L 170.429688 388.609375 L 166.851563 388.660156 L 161.070313 390.1875 L 157.820313 391.882813 L 154.730469 394.882813 L 152.945313 397.9375 Z M 237.488281 465.773438 L 237.242188 465.945313 L 236.835938 466.113281 L 235.136719 465.644531 L 236.523438 463.683594 L 237.195313 464.164063 Z M 234.160156 469.878906 L 234.121094 469.964844 L 232.75 471.703125 L 231.414063 472.753906 L 230.398438 474.046875 L 229.960938 474.269531 L 229.152344 474.433594 L 227.519531 473.003906 L 224.921875 471.6875 L 222.890625 471.269531 L 222.296875 470.886719 L 221.546875 470.992188 L 220.695313 470.820313 L 220.515625 470.816406 L 221.476563 469.683594 L 227.316406 466.367188 L 232.550781 467.761719 Z M 143.9375 361.105469 L 143.625 359.554688 L 142.417969 357.007813 L 142.078125 356.601563 L 142.140625 355.050781 L 143.90625 355.390625 L 146.066406 355.285156 L 148.292969 354.738281 L 150.691406 354.738281 L 151.039063 355.578125 L 155.546875 356.503906 L 154.066406 358.859375 L 150.984375 360.816406 L 147.425781 363.976563 L 146.109375 363.875 L 144.195313 361.613281 Z M 175.628906 319.734375 L 175.59375 319.15625 L 175 316.9375 L 173.984375 314.878906 L 178.207031 317.8125 L 180.257813 318.558594 L 182.414063 318.90625 L 184.722656 318.828125 L 186.972656 318.296875 L 187.074219 318.25 L 184.742188 320.527344 L 179.199219 323.441406 L 177.335938 322.691406 Z M 176.871094 238.984375 L 174.832031 238.234375 L 170.835938 237.78125 L 171.554688 234.554688 L 173.722656 232.847656 L 175.429688 230.675781 L 178.054688 231.277344 L 180.742188 231.261719 L 183.359375 230.628906 L 185.757813 229.410156 L 186.28125 232.0625 L 185.40625 232.042969 L 181.046875 235.800781 L 180.578125 237.003906 Z M 256.398438 342.015625 L 258.539063 342.726563 L 258.378906 342.789063 L 257.507813 342.753906 Z M 262.976563 343.335938 L 263.488281 343.265625 L 263.640625 343.980469 L 262.804688 345.191406 L 263.28125 343.65625 Z M 175.011719 295.59375 L 175.722656 292.242188 L 175.429688 288.832031 L 179.308594 289.496094 L 183.183594 288.832031 L 185.757813 289.894531 L 188.382813 290.316406 L 190.660156 290.191406 L 192.746094 289.667969 L 191.28125 293.046875 L 190.9375 296.585938 L 189.304688 295.140625 L 187.316406 293.972656 L 185.261719 293.25 L 183.105469 292.921875 L 180.929688 293.003906 L 178.804688 293.488281 L 176.808594 294.363281 Z M 156.046875 250.0625 L 154.339844 247.890625 L 152.167969 246.183594 L 151.191406 243.882813 L 149.742188 241.847656 L 152.167969 242.308594 L 154.136719 243.738281 L 156.476563 244.765625 L 160.65625 245.277344 L 160.046875 247.570313 L 159.921875 250.0625 Z M 140.714844 322.707031 L 141.203125 319.847656 L 140.570313 316.152344 L 140.644531 316.105469 L 142.246094 318.140625 L 144.414063 319.847656 L 142.246094 321.554688 L 141.226563 322.847656 Z M 286.679688 439.636719 L 283.058594 438.976563 L 282.164063 437.605469 L 282.484375 436.070313 L 286.839844 437.054688 L 287.960938 438.832031 Z M 286.679688 439.636719 "/>
<path style=" stroke:none;fill-rule:nonzero;fill:rgb(80.392157%,58.431373%,4.705882%);fill-opacity:1;" d="M 150.230469 238.429688 L 149.945313 240.226563 L 149.121094 241.847656 L 147.882813 243.085938 L 141.261719 240.453125 L 140.441406 240.5625 L 139.386719 240.085938 L 139.183594 238.121094 L 139.414063 236.460938 L 140.238281 234.648438 L 140.003906 234.71875 L 140.996094 233.726563 L 142.617188 232.898438 L 144.414063 232.617188 L 146.210938 232.898438 L 147.832031 233.726563 L 149.121094 235.011719 L 149.945313 236.632813 Z M 147.648438 243.230469 L 146.210938 243.960938 L 144.414063 244.246094 L 142.617188 243.960938 L 140.996094 243.136719 L 139.757813 241.894531 L 140.710938 241.59375 L 142.886719 242.511719 Z M 147.648438 243.230469 "/>
<path style=" stroke:none;fill-rule:nonzero;fill:rgb(80.392157%,58.431373%,4.705882%);fill-opacity:1;" d="M 177.371094 172.523438 L 177.085938 174.320313 L 176.257813 175.941406 L 174.972656 177.226563 L 173.351563 178.054688 L 171.554688 178.339844 L 169.757813 178.054688 L 168.136719 177.226563 L 166.847656 175.941406 L 166.023438 174.320313 L 165.738281 172.523438 L 165.976563 171.027344 L 170.480469 169.527344 L 170.492188 169.949219 L 171.554688 169.839844 L 173.589844 168.316406 L 173.902344 167.273438 L 174.972656 167.816406 L 176.257813 169.105469 L 177.085938 170.726563 Z M 177.371094 172.523438 "/>
<path style=" stroke:none;fill-rule:nonzero;fill:rgb(80.392157%,58.431373%,4.705882%);fill-opacity:1;" d="M 177.371094 300.460938 L 177.085938 302.257813 L 176.257813 303.878906 L 174.972656 305.167969 L 173.351563 305.992188 L 171.554688 306.277344 L 169.757813 305.992188 L 168.136719 305.167969 L 167.457031 304.488281 L 169.164063 299.058594 L 171.234375 294.695313 L 173.351563 294.929688 L 174.972656 295.757813 L 176.257813 297.042969 L 177.085938 298.664063 Z M 177.371094 300.460938 "/>
<path style=" stroke:none;fill-rule:nonzero;fill:rgb(80.392157%,58.431373%,4.705882%);fill-opacity:1;" d="M 185.125 168.644531 L 184.839844 170.441406 L 184.011719 172.0625 L 182.726563 173.351563 L 181.105469 174.175781 L 179.308594 174.460938 L 177.511719 174.175781 L 175.890625 173.351563 L 174.601563 172.0625 L 173.777344 170.441406 L 173.492188 168.644531 L 174.046875 166.78125 L 178.648438 166.167969 L 179.285156 167.089844 L 180.148438 167.667969 L 184.320313 169.011719 Z M 185.125 168.644531 "/>
<path style=" stroke:none;fill-rule:nonzero;fill:rgb(80.392157%,58.431373%,4.705882%);fill-opacity:1;" d="M 185.53125 221.085938 L 185.125 219.046875 L 185.40625 217.25 L 186.234375 215.628906 L 187.519531 214.339844 L 189.140625 213.515625 L 190.9375 213.230469 L 192.734375 213.515625 L 194.355469 214.339844 L 195.644531 215.628906 L 195.8125 215.957031 L 191.214844 219.742188 Z M 188.953125 224.480469 L 187.519531 223.75 L 185.910156 221.832031 L 186.457031 221.386719 L 187.289063 221.316406 L 189.085938 221.875 L 189.332031 222.921875 Z M 188.953125 224.480469 "/>
<path style=" stroke:none;fill-rule:nonzero;fill:rgb(80.392157%,58.431373%,4.705882%);fill-opacity:1;" d="M 125.558594 256.953125 L 127.109375 256.160156 L 128.90625 255.875 L 130.703125 256.160156 L 132.324219 256.988281 L 132.984375 258.382813 L 133.019531 262.765625 L 132.308594 263.453125 L 130.613281 263.773438 L 129.152344 263.667969 L 126.582031 261.613281 Z M 125.558594 256.953125 "/>
<path style=" stroke:none;fill-rule:nonzero;fill:rgb(80.392157%,58.431373%,4.705882%);fill-opacity:1;" d="M 195.578125 216.152344 L 193.988281 214.710938 L 193.160156 213.089844 L 192.875 211.292969 L 193.160156 209.496094 L 193.988281 207.875 L 195.273438 206.585938 L 196.894531 205.761719 L 198.691406 205.476563 L 201.195313 206.121094 L 199.179688 207.605469 L 197.078125 210.023438 L 197.433594 210.839844 L 197.785156 210.703125 L 197.761719 211.238281 L 196.796875 214.386719 Z M 195.578125 216.152344 "/>
<path style=" stroke:none;fill-rule:nonzero;fill:rgb(80.392157%,58.431373%,4.705882%);fill-opacity:1;" d="M 225.320313 65.828125 L 223.882813 65.546875 L 224.308594 63.570313 L 223.632813 57.773438 L 221.078125 57.210938 L 222.089844 58.292969 L 222.21875 59.898438 L 220.292969 61.703125 L 220.015625 60.09375 L 220.300781 58.296875 L 221.125 56.675781 L 222.414063 55.386719 L 224.035156 54.5625 L 225.832031 54.277344 L 227.960938 54.730469 L 227.699219 56.234375 L 226.355469 57.007813 L 225.6875 56.476563 L 226.023438 58.453125 L 227.246094 61.769531 L 226.800781 62.460938 L 226.285156 62.238281 L 225.40625 63.738281 Z M 225.320313 65.828125 "/>
<path style=" stroke:none;fill-rule:nonzero;fill:rgb(80.392157%,58.431373%,4.705882%);fill-opacity:1;" d="M 88.429688 500.046875 L 88.566406 499.308594 L 88.941406 499.117188 L 89.34375 499.789063 Z M 88.429688 500.046875 "/>
</g>
</svg>
