<?xml version="1.0" encoding="UTF-8"?>
<svg xmlns="http://www.w3.org/2000/svg" xmlns:xlink="http://www.w3.org/1999/xlink" width="378pt" height="504pt" viewBox="0 0 378 504" version="1.1">
<g id="data">
<rect x="0" y="0" width="378" height="504" style="fill:rgb(100%,100%,100%);fill-opacity:1;stroke:none;"/>
<path style=" stroke:none;fill-rule:nonzero;fill:rgb(100%,100%,100%);fill-opacity:1;" d="M 53.308594 504 L 324.691406 504 L 324.691406 0 L 53.308594 0 Z M 53.308594 504 "/>
<path style=" stroke:none;fill-rule:nonzero;fill:rgb(22.745098%,53.333333%,16.078431%);fill-opacity:1;" d="M 229.707031 443.90625 L 231.878906 442.199219 L 233.585938 440.03125 L 235.707031 439.65625 L 237.835938 438.839844 L 239.765625 437.625 L 241.339844 436.152344 L 245.050781 437.519531 L 249.003906 437.5625 L 251.230469 436.972656 L 254.140625 435.667969 L 257.058594 433.671875 L 257.71875 436.925781 L 259.269531 439.859375 L 261.6875 442.3125 L 264.601563 443.90625 L 262.097656 445.207031 L 259.898438 447.167969 L 258.320313 449.5 L 257.347656 452.148438 L 257.042969 454.949219 L 257.453125 457.867188 L 258.519531 460.476563 L 260.183594 462.75 L 257.453125 460.847656 L 254.296875 459.796875 L 250.96875 459.679688 L 247.867188 460.460938 L 245.71875 461.609375 L 243.851563 463.175781 L 242.425781 464.988281 L 241.339844 467.167969 L 240.035156 467.332031 L 238.210938 466.1875 L 238.632813 465.4375 L 239.46875 464.933594 L 237.714844 463.296875 L 231.496094 463.171875 L 231.378906 463.496094 L 232.574219 464.835938 L 232.214844 465.75 L 231.738281 466.042969 L 226.691406 465.496094 L 219.566406 468.449219 L 217.054688 467.824219 L 210.222656 468.96875 L 208.164063 468.875 L 207.273438 468.058594 L 206.238281 469.769531 L 209.429688 471.089844 L 209.714844 470.9375 L 210.1875 472.128906 L 209.566406 473.890625 L 206.84375 474.453125 L 204.453125 473.097656 L 204.203125 473.027344 L 202.945313 472.234375 L 200.8125 471.421875 L 198.691406 471.046875 L 198.613281 470.832031 L 201.105469 470.414063 L 203.449219 469.472656 L 207 466.644531 L 209.296875 463.324219 L 210.324219 459.414063 L 213.453125 459.515625 L 217.523438 458.640625 L 219.554688 457.597656 L 221.953125 455.539063 L 223.929688 454.628906 L 225.796875 453.28125 L 227.515625 451.386719 L 228.828125 449.042969 L 229.570313 446.460938 Z M 233.84375 469.460938 L 233.453125 469.667969 L 231.171875 472.082031 L 230.074219 474.210938 L 229.960938 474.269531 L 229.171875 474.429688 L 227.933594 473.296875 L 225.863281 472.070313 L 223.707031 471.324219 L 222.722656 471.160156 L 222.296875 470.886719 L 221.648438 470.980469 L 220.695313 470.820313 L 220.515625 470.820313 L 221.476563 469.683594 L 227.316406 466.367188 L 232.550781 467.761719 Z M 194.816406 436.152344 L 190.9375 436.152344 L 191.824219 434.160156 L 192.324219 432.03125 L 192.410156 430.035156 L 195.792969 425.3125 L 196.191406 425.15625 L 195.226563 426.667969 L 194.367188 428.953125 L 194.007813 431.367188 L 194.160156 433.800781 Z M 192.167969 428.148438 L 192.101563 427.691406 L 191.332031 425.511719 L 190.222656 423.628906 L 188.785156 421.988281 L 187.0625 420.644531 L 189.546875 420.164063 L 191.761719 419.21875 L 196.507813 415.457031 L 199.078125 418.585938 L 202.570313 420.644531 L 200.292969 421.53125 L 198.253906 422.871094 L 197.957031 423.171875 L 197.8125 423.082031 L 196.09375 424.355469 L 192.90625 427.300781 Z M 183.183594 350.863281 L 185.605469 352.527344 L 188.363281 353.535156 L 191.289063 353.816406 L 194.316406 353.324219 L 192.546875 355.3125 L 190.9375 358.617188 L 188.488281 361.667969 L 187.542969 363.882813 L 187.0625 366.371094 L 185.15625 364.15625 L 182.871094 362.550781 L 180.144531 361.503906 L 177.371094 361.167969 L 178.65625 358.433594 L 179.910156 359.441406 L 180.433594 358.429688 L 179.113281 356.046875 L 179.308594 354.738281 L 181.476563 353.03125 L 181.578125 352.90625 L 181.914063 353.875 L 182.898438 354.332031 L 184.078125 356.789063 L 185.613281 357.902344 L 188.359375 357.621094 L 190.335938 355.148438 L 189.90625 355.050781 L 188.667969 355.527344 L 188.3125 355.957031 L 186.378906 356.386719 L 183.8125 354.640625 L 182.480469 351.757813 Z M 173.378906 460.550781 L 175.34375 462.300781 L 177.761719 463.609375 L 175.589844 464.957031 L 173.847656 466.652344 L 172.492188 468.667969 L 171.554688 471.046875 L 169.445313 471.417969 L 167.441406 472.167969 L 169.039063 470.515625 L 170.28125 468.585938 L 171.214844 466.078125 L 171.554688 463.292969 Z M 144.414063 471.046875 L 146.027344 473.042969 L 148.039063 474.640625 L 150.351563 475.757813 L 152.722656 476.320313 L 156.5625 476.179688 L 159.921875 474.921875 L 162.519531 474.628906 L 164.984375 473.761719 L 163.800781 474.921875 L 159.996094 475.339844 L 156.53125 476.964844 L 153.859375 479.527344 L 152.167969 482.675781 L 148.601563 482.679688 L 148.46875 482.535156 L 146.488281 482.683594 L 139 482.691406 L 136.609375 483.128906 L 134.25 484.113281 L 133.796875 484.484375 L 132.167969 484.859375 L 129.414063 488.195313 L 126.714844 489.746094 L 124.039063 490.597656 L 123.132813 494.289063 L 123.195313 494.40625 L 122.226563 495.71875 L 121.511719 497.359375 L 120.660156 497.648438 L 120.394531 498.183594 L 118.253906 498.183594 L 117.96875 497.691406 L 118.09375 496.4375 L 117.15625 494.691406 L 115.984375 493.691406 L 112.253906 492.070313 L 111.410156 491.984375 L 110.375 492.488281 L 110.242188 494.183594 L 110.007813 494.453125 L 108.652344 494.195313 L 105.644531 494.308594 L 105.441406 494.210938 L 105.628906 491.574219 L 106.074219 490.5625 L 107.515625 489.929688 L 109.667969 489.351563 L 111.625 488.179688 L 111.738281 488.078125 L 112.199219 488.253906 L 112.445313 488.9375 L 113.574219 489.15625 L 118.144531 485.910156 L 121.425781 483.085938 L 124.375 479.769531 L 125.210938 477.886719 L 124.875 476.421875 L 125.449219 474.996094 L 128.78125 475.585938 L 132.785156 474.921875 L 135.316406 475.238281 L 137.730469 475.015625 L 141.414063 473.605469 Z M 140.539063 319.847656 L 144.414063 319.847656 L 144.414063 321.257813 L 141.859375 323.019531 L 140.539063 322.660156 Z M 88.945313 499.121094 L 88.542969 499.441406 L 88.566406 499.308594 L 88.941406 499.117188 Z M 236.835938 466.113281 L 235.136719 465.644531 L 236.523438 463.683594 L 237.195313 464.164063 L 237.5 465.839844 Z M 236.835938 466.113281 "/>
</g>
</svg>
