<?xml version="1.0" encoding="UTF-8"?>
<svg xmlns="http://www.w3.org/2000/svg" xmlns:xlink="http://www.w3.org/1999/xlink" width="378pt" height="504pt" viewBox="0 0 378 504" version="1.1">
<g id="data">
<rect x="0" y="0" width="378" height="504" style="fill:rgb(100%,100%,100%);fill-opacity:1;stroke:none;"/>
<path style=" stroke:none;fill-rule:nonzero;fill:rgb(100%,100%,100%);fill-opacity:1;" d="M 53.308594 504 L 324.691406 504 L 324.691406 0 L 53.308594 0 Z M 53.308594 504 "/>
<path style=" stroke:none;fill-rule:nonzero;fill:rgb(22.745098%,53.333333%,16.078431%);fill-opacity:1;" d="M 250.789063 452.714844 L 249.398438 453.9375 L 247.695313 454.660156 L 245.847656 454.8125 L 244.046875 454.375 L 242.476563 453.398438 L 241.292969 451.972656 L 240.617188 450.25 L 240.519531 448.398438 L 240.8125 445.648438 L 240.421875 443.84375 L 239.546875 442.347656 L 237.46875 440.496094 L 236.332031 439.109375 L 235.667969 437.445313 L 235.542969 435.660156 L 235.96875 433.921875 L 236.902344 432.394531 L 238.257813 431.222656 L 239.90625 430.519531 L 241.6875 430.347656 L 243.4375 430.730469 L 245.929688 431.695313 L 247.742188 431.804688 L 249.378906 431.417969 L 252.980469 429.652344 L 254.691406 429.121094 L 256.480469 429.136719 L 258.183594 429.695313 L 259.632813 430.742188 L 260.695313 432.1875 L 261.269531 433.882813 L 261.605469 435.828125 L 262.167969 437.128906 L 262.949219 438.175781 L 264.472656 439.460938 L 265.707031 440.914063 L 266.410156 442.6875 L 266.496094 444.59375 L 265.964844 446.425781 L 264.867188 447.988281 L 263.324219 449.109375 L 261.503906 449.671875 L 259.59375 449.613281 L 256.496094 449 L 254.542969 449.320313 L 252.71875 450.371094 Z M 200.628906 467.167969 L 201.039063 465.03125 L 202.203125 463.195313 L 203.292969 462.027344 L 203.914063 461.039063 L 204.292969 460.070313 L 204.601563 458.375 L 205.128906 456.796875 L 206.082031 455.4375 L 207.382813 454.398438 L 208.921875 453.773438 L 210.574219 453.605469 L 212.800781 453.703125 L 215.097656 453.28125 L 216.425781 452.632813 L 218.144531 451.144531 L 219.769531 450.148438 L 221.628906 449.730469 L 223.523438 449.9375 L 225.246094 450.746094 L 226.621094 452.070313 L 227.566406 453.339844 L 228.550781 454.242188 L 230.734375 455.785156 L 232.121094 456.359375 L 233.269531 456.550781 L 234.476563 456.496094 L 235.648438 456.191406 L 237.277344 455.378906 L 239.085938 454.816406 L 240.980469 454.871094 L 242.757813 455.527344 L 244.226563 456.722656 L 245.238281 458.324219 L 245.679688 460.167969 L 245.859375 462.710938 L 246.769531 465.089844 L 246.8125 465.28125 L 244.628906 465.699219 L 242.703125 466.390625 L 242.113281 466.964844 L 241.902344 467.984375 L 241.359375 468.164063 L 238.210938 466.1875 L 238.632813 465.4375 L 239.46875 464.933594 L 237.714844 463.296875 L 231.496094 463.171875 L 231.378906 463.496094 L 232.574219 464.835938 L 232.214844 465.75 L 231.738281 466.042969 L 226.691406 465.496094 L 219.566406 468.449219 L 217.054688 467.824219 L 210.222656 468.96875 L 208.164063 468.875 L 207.273438 468.058594 L 206.238281 469.769531 L 209.429688 471.089844 L 209.714844 470.9375 L 210.1875 472.128906 L 209.566406 473.890625 L 206.84375 474.453125 L 204.453125 473.097656 L 203.015625 472.699219 L 200.839844 472.417969 L 200.628906 471.046875 Z M 179.308594 361.28125 L 178.472656 359.742188 L 178.128906 358.023438 L 178.132813 358.011719 L 179.910156 359.441406 L 180.433594 358.429688 L 178.722656 355.339844 L 179.011719 354.675781 L 180.152344 353.347656 L 181.316406 352.621094 L 181.503906 352.695313 L 181.914063 353.875 L 182.898438 354.332031 L 184.078125 356.789063 L 185.613281 357.902344 L 188.359375 357.621094 L 190.335938 355.148438 L 189.90625 355.050781 L 188.667969 355.527344 L 188.3125 355.957031 L 186.378906 356.386719 L 183.8125 354.640625 L 182.664063 352.152344 L 183.332031 351.976563 L 185.082031 352.058594 L 188.269531 352.699219 L 189.984375 353.335938 L 191.417969 354.476563 L 192.425781 356.003906 L 192.90625 357.769531 L 192.816406 359.597656 L 192.097656 363.011719 L 191.460938 364.695313 L 190.335938 366.105469 L 188.832031 367.101563 L 187.097656 367.589844 L 185.292969 367.523438 L 183.601563 366.90625 L 182.175781 365.800781 L 181.15625 364.3125 L 180.390625 362.703125 Z M 109.664063 494.847656 L 108.53125 493.613281 L 107.769531 491.886719 L 107.601563 490.011719 L 107.632813 489.878906 L 111.738281 488.078125 L 112.199219 488.253906 L 112.445313 488.9375 L 113.574219 489.15625 L 118.144531 485.910156 L 121.425781 483.085938 L 124.375 479.769531 L 125.210938 477.886719 L 124.875 476.421875 L 125.640625 474.519531 L 128.386719 473.238281 L 131.914063 472.667969 L 134.183594 473.085938 L 136.410156 472.988281 L 138.128906 473.171875 L 139.71875 473.855469 L 141.039063 474.972656 L 141.972656 476.429688 L 142.433594 478.097656 L 142.386719 479.824219 L 141.832031 481.464844 L 140.820313 482.867188 L 139.4375 483.910156 L 138.433594 484.457031 L 134.507813 484.320313 L 132.167969 484.859375 L 129.414063 488.195313 L 126.714844 489.746094 L 124.039063 490.597656 L 123.132813 494.289063 L 123.664063 495.292969 L 123.496094 496.125 L 122.722656 496.945313 L 120.660156 497.648438 L 119.628906 499.730469 L 118.675781 498.910156 L 117.96875 497.691406 L 118.09375 496.4375 L 117.15625 494.691406 L 115.984375 493.691406 L 112.253906 492.070313 L 111.410156 491.984375 L 110.375 492.488281 L 110.242188 494.183594 Z M 236.835938 466.113281 L 235.136719 465.644531 L 236.523438 463.683594 L 237.195313 464.164063 L 237.5 465.839844 Z M 228.117188 474.644531 L 222.296875 470.886719 L 220.207031 471.1875 L 221.476563 469.683594 L 227.316406 466.367188 L 232.550781 467.761719 L 234.171875 469.894531 L 231.242188 473.621094 L 229.960938 474.269531 Z M 88.429688 500.046875 L 88.566406 499.308594 L 88.941406 499.117188 L 89.34375 499.789063 Z M 88.429688 500.046875 "/>
<path style=" stroke:none;fill-rule:nonzero;fill:rgb(80.392157%,58.431373%,4.705882%);fill-opacity:1;" d="M 204.507813 350.863281 L 204.222656 352.660156 L 203.398438 354.28125 L 202.109375 355.566406 L 200.488281 356.390625 L 198.691406 356.675781 L 196.894531 356.390625 L 195.273438 355.566406 L 193.988281 354.28125 L 193.160156 352.660156 L 192.875 350.863281 L 193.160156 349.066406 L 193.988281 347.441406 L 195.273438 346.15625 L 196.894531 345.332031 L 198.691406 345.046875 L 200.488281 345.332031 L 202.109375 346.15625 L 203.398438 347.441406 L 204.222656 349.066406 Z M 204.507813 350.863281 "/>
<path style=" stroke:none;fill-rule:nonzero;fill:rgb(80.392157%,58.431373%,4.705882%);fill-opacity:1;" d="M 247.152344 393.507813 L 246.871094 395.304688 L 246.042969 396.925781 L 244.757813 398.210938 L 243.136719 399.039063 L 241.339844 399.324219 L 239.542969 399.039063 L 237.921875 398.210938 L 236.632813 396.925781 L 235.808594 395.304688 L 235.523438 393.507813 L 235.808594 391.710938 L 236.632813 390.089844 L 237.921875 388.804688 L 239.542969 387.976563 L 241.339844 387.691406 L 243.136719 387.976563 L 244.757813 388.804688 L 246.042969 390.089844 L 246.871094 391.710938 Z M 247.152344 393.507813 "/>
<path style=" stroke:none;fill-rule:nonzero;fill:rgb(80.392157%,58.431373%,4.705882%);fill-opacity:1;" d="M 192.875 420.644531 L 192.59375 422.441406 L 191.765625 424.0625 L 190.480469 425.351563 L 188.859375 426.175781 L 187.0625 426.460938 L 185.265625 426.175781 L 183.644531 425.351563 L 182.355469 424.0625 L 181.53125 422.441406 L 181.246094 420.644531 L 181.53125 418.847656 L 182.355469 417.226563 L 183.644531 415.941406 L 185.265625 415.117188 L 187.0625 414.832031 L 188.859375 415.117188 L 190.480469 415.941406 L 191.765625 417.226563 L 192.59375 418.847656 Z M 192.875 420.644531 "/>
<path style=" stroke:none;fill-rule:nonzero;fill:rgb(80.392157%,58.431373%,4.705882%);fill-opacity:1;" d="M 173.492188 409.015625 L 173.207031 410.8125 L 172.382813 412.433594 L 171.09375 413.71875 L 169.472656 414.546875 L 167.675781 414.832031 L 165.878906 414.546875 L 164.257813 413.71875 L 162.972656 412.433594 L 162.144531 410.8125 L 161.863281 409.015625 L 162.144531 407.21875 L 162.972656 405.597656 L 164.257813 404.3125 L 165.878906 403.484375 L 167.675781 403.199219 L 169.472656 403.484375 L 171.09375 404.3125 L 172.382813 405.597656 L 173.207031 407.21875 Z M 173.492188 409.015625 "/>
<path style=" stroke:none;fill-rule:nonzero;fill:rgb(80.392157%,58.431373%,4.705882%);fill-opacity:1;" d="M 266.539063 424.523438 L 266.253906 426.320313 L 265.429688 427.941406 L 264.140625 429.226563 L 262.519531 430.054688 L 260.722656 430.339844 L 258.925781 430.054688 L 257.304688 429.226563 L 256.019531 427.941406 L 255.191406 426.320313 L 254.90625 424.523438 L 255.191406 422.726563 L 256.019531 421.105469 L 257.304688 419.816406 L 258.925781 418.992188 L 260.722656 418.707031 L 262.519531 418.992188 L 264.140625 419.816406 L 265.429688 421.105469 L 266.253906 422.726563 Z M 266.539063 424.523438 "/>
<path style=" stroke:none;fill-rule:nonzero;fill:rgb(80.392157%,58.431373%,4.705882%);fill-opacity:1;" d="M 278.167969 409.015625 L 277.882813 410.8125 L 277.058594 412.433594 L 275.773438 413.71875 L 274.152344 414.546875 L 272.355469 414.832031 L 270.558594 414.546875 L 268.9375 413.71875 L 267.648438 412.433594 L 266.824219 410.8125 L 266.539063 409.015625 L 266.824219 407.21875 L 267.648438 405.597656 L 268.9375 404.3125 L 270.558594 403.484375 L 272.355469 403.199219 L 274.152344 403.484375 L 275.773438 404.3125 L 277.058594 405.597656 L 277.882813 407.21875 Z M 278.167969 409.015625 "/>
<path style=" stroke:none;fill-rule:nonzero;fill:rgb(80.392157%,58.431373%,4.705882%);fill-opacity:1;" d="M 285.921875 409.015625 L 285.636719 410.8125 L 284.8125 412.433594 L 283.527344 413.71875 L 281.90625 414.546875 L 280.109375 414.832031 L 278.3125 414.546875 L 276.691406 413.71875 L 275.402344 412.433594 L 274.578125 410.8125 L 274.292969 409.015625 L 274.578125 407.21875 L 275.402344 405.597656 L 276.691406 404.3125 L 278.3125 403.484375 L 280.109375 403.199219 L 281.90625 403.484375 L 283.527344 404.3125 L 284.8125 405.597656 L 285.636719 407.21875 Z M 285.921875 409.015625 "/>
<path style=" stroke:none;fill-rule:nonzero;fill:rgb(80.392157%,58.431373%,4.705882%);fill-opacity:1;" d="M 227.738281 296.785156 L 227.484375 298.382813 L 226.660156 300.003906 L 225.371094 301.289063 L 223.75 302.117188 L 221.953125 302.398438 L 220.15625 302.117188 L 218.535156 301.289063 L 217.25 300.003906 L 216.421875 298.382813 L 216.136719 296.585938 L 216.421875 294.789063 L 217.25 293.167969 L 218.535156 291.878906 L 220.15625 291.054688 L 221.953125 290.769531 L 223.75 291.054688 L 225.371094 291.878906 L 225.410156 291.917969 L 225.945313 294.183594 Z M 227.738281 296.785156 "/>
<path style=" stroke:none;fill-rule:nonzero;fill:rgb(80.392157%,58.431373%,4.705882%);fill-opacity:1;" d="M 165.773438 480.363281 L 165.597656 480.453125 L 163.800781 480.738281 L 162.003906 480.453125 L 160.382813 479.628906 L 159.09375 478.339844 L 158.269531 476.71875 L 157.984375 474.921875 L 158.269531 473.125 L 159.09375 471.503906 L 160.382813 470.21875 L 162.003906 469.390625 L 163.800781 469.109375 L 165.597656 469.390625 L 167.21875 470.21875 L 168.503906 471.503906 L 169.300781 473.066406 L 168.992188 473.234375 L 168.214844 474.070313 L 167.203125 476.179688 Z M 165.773438 480.363281 "/>
<path style=" stroke:none;fill-rule:nonzero;fill:rgb(80.392157%,58.431373%,4.705882%);fill-opacity:1;" d="M 297.554688 412.890625 L 297.324219 414.339844 L 297.144531 414.53125 L 295.578125 412.011719 L 292.742188 410.515625 L 292.480469 410.636719 L 293.898438 413.703125 L 295.890625 416.628906 L 296.070313 416.683594 L 295.15625 417.597656 L 293.535156 418.421875 L 291.738281 418.707031 L 289.941406 418.421875 L 288.320313 417.597656 L 287.035156 416.308594 L 286.207031 414.6875 L 285.921875 412.890625 L 286.207031 411.09375 L 287.035156 409.472656 L 288.320313 408.1875 L 289.941406 407.363281 L 291.738281 407.078125 L 293.535156 407.363281 L 295.15625 408.1875 L 296.441406 409.472656 L 297.269531 411.09375 Z M 297.554688 412.890625 "/>
<path style=" stroke:none;fill-rule:nonzero;fill:rgb(80.392157%,58.431373%,4.705882%);fill-opacity:1;" d="M 167.644531 475.257813 L 166.847656 474.464844 L 166.023438 472.84375 L 165.738281 471.046875 L 166.023438 469.25 L 166.847656 467.628906 L 168.136719 466.339844 L 169.757813 465.515625 L 171.554688 465.230469 L 173.351563 465.515625 L 174.972656 466.339844 L 176.257813 467.628906 L 177.085938 469.25 L 177.148438 469.65625 L 176.207031 469.78125 L 174.339844 470.335938 L 168.992188 473.234375 L 168.214844 474.070313 Z M 167.644531 475.257813 "/>
<path style=" stroke:none;fill-rule:nonzero;fill:rgb(80.392157%,58.431373%,4.705882%);fill-opacity:1;" d="M 139.410156 322.675781 L 138.882813 321.644531 L 138.640625 320.097656 L 139.816406 316.644531 L 142.300781 315.023438 L 142.671875 314.308594 L 144.414063 314.03125 L 146.210938 314.316406 L 147.832031 315.140625 L 148.847656 316.15625 L 147.847656 318.148438 L 145.3125 320.636719 L 141.859375 323.019531 L 139.824219 322.464844 Z M 139.410156 322.675781 "/>
<path style=" stroke:none;fill-rule:nonzero;fill:rgb(80.392157%,58.431373%,4.705882%);fill-opacity:1;" d="M 182.742188 243.121094 L 182.726563 243.136719 L 181.105469 243.960938 L 179.308594 244.246094 L 177.511719 243.960938 L 175.890625 243.136719 L 174.601563 241.847656 L 174.289063 241.230469 L 178.0625 241.875 Z M 173.683594 239.636719 L 173.492188 238.429688 L 173.777344 236.632813 L 174.601563 235.011719 L 175.890625 233.726563 L 177.511719 232.898438 L 179.308594 232.617188 L 181.105469 232.898438 L 182.726563 233.726563 L 183.0625 234.0625 L 181.046875 235.800781 L 180.578125 237.003906 L 174.761719 240.109375 Z M 173.683594 239.636719 "/>
<path style=" stroke:none;fill-rule:nonzero;fill:rgb(80.392157%,58.431373%,4.705882%);fill-opacity:1;" d="M 177.347656 447.921875 L 177.085938 449.582031 L 176.257813 451.203125 L 174.972656 452.488281 L 173.351563 453.316406 L 171.554688 453.601563 L 169.757813 453.316406 L 168.136719 452.488281 L 166.847656 451.203125 L 166.023438 449.582031 L 165.738281 447.785156 L 165.996094 446.167969 L 166.046875 446.148438 L 167.527344 446.515625 L 169.484375 447.285156 L 170.039063 448.109375 L 170.757813 448.421875 L 173.15625 448.464844 Z M 177.347656 447.921875 "/>
<path style=" stroke:none;fill-rule:nonzero;fill:rgb(80.392157%,58.431373%,4.705882%);fill-opacity:1;" d="M 160.753906 169.664063 L 160.382813 169.472656 L 159.09375 168.1875 L 159.082031 168.160156 L 160.300781 168.324219 L 161.058594 169.320313 Z M 158.261719 166.515625 L 157.984375 164.769531 L 158.269531 162.972656 L 159.09375 161.351563 L 159.125 161.320313 L 161.363281 161.917969 L 164.042969 162.292969 L 165.242188 161.992188 L 166.015625 161.605469 L 166.75 160.257813 L 167.359375 160.203125 L 167.5625 160.40625 L 167.507813 160.828125 L 166.417969 162.609375 L 162.722656 166.96875 L 162.175781 167.183594 L 161.726563 166.894531 L 161.859375 165.949219 L 161.53125 165.507813 L 159.984375 165.785156 Z M 160.34375 160.101563 L 160.382813 160.066406 L 162.003906 159.238281 L 162.257813 159.199219 L 162.078125 159.632813 Z M 160.34375 160.101563 "/>
<path style=" stroke:none;fill-rule:nonzero;fill:rgb(80.392157%,58.431373%,4.705882%);fill-opacity:1;" d="M 138.707031 323.035156 L 138.882813 321.925781 L 139.710938 320.304688 L 140.996094 319.019531 L 142.617188 318.191406 L 144.414063 317.90625 L 146.210938 318.191406 L 147.261719 318.726563 L 145.3125 320.636719 L 141.859375 323.019531 L 139.824219 322.464844 Z M 138.707031 323.035156 "/>
</g>
</svg>
