<?xml version="1.0" encoding="UTF-8"?>
<svg xmlns="http://www.w3.org/2000/svg" xmlns:xlink="http://www.w3.org/1999/xlink" width="378pt" height="504pt" viewBox="0 0 378 504" version="1.1">
<g id="data">
<rect x="0" y="0" width="378" height="504" style="fill:rgb(100%,100%,100%);fill-opacity:1;stroke:none;"/>
<path style=" stroke:none;fill-rule:nonzero;fill:rgb(100%,100%,100%);fill-opacity:1;" d="M 53.308594 504 L 324.691406 504 L 324.691406 0 L 53.308594 0 Z M 53.308594 504 "/>
<path style=" stroke:none;fill-rule:nonzero;fill:rgb(22.745098%,53.333333%,16.078431%);fill-opacity:1;" d="M 202.910156 377.261719 L 204.476563 376.027344 L 205.753906 374.40625 L 207.136719 373.132813 L 208.859375 372.371094 L 210.730469 372.199219 L 212.457031 372.320313 L 214.214844 372.125 L 215.308594 371.820313 L 216.746094 371.117188 L 218.59375 370.566406 L 220.519531 370.652344 L 222.308594 371.359375 L 223.769531 372.617188 L 224.742188 374.277344 L 225.117188 376.167969 L 224.855469 378.078125 L 223.980469 379.796875 L 222.753906 381.457031 L 221.816406 382.453125 L 219.664063 384.261719 L 217.929688 386.621094 L 217.273438 388.1875 L 217.085938 389.695313 L 217.421875 391.558594 L 218.289063 393.167969 L 219.625 394.417969 L 221.394531 395.242188 L 223.390625 395.558594 L 225.546875 395.453125 L 227.402344 395.664063 L 229.09375 396.449219 L 231.058594 397.78125 L 232.714844 398.320313 L 233.984375 398.390625 L 235.109375 398.195313 L 236.75 397.441406 L 238.074219 396.25 L 238.976563 394.707031 L 239.546875 392.210938 L 240.175781 390.605469 L 241.246094 389.257813 L 242.667969 388.28125 L 244.3125 387.761719 L 246.035156 387.75 L 247.683594 388.242188 L 249.121094 389.199219 L 250.210938 390.53125 L 250.863281 392.125 L 251.519531 394.800781 L 252.496094 396.390625 L 254.738281 398.515625 L 256.734375 399.421875 L 258.332031 399.613281 L 264.925781 399.148438 L 266.535156 398.511719 L 268.664063 396.765625 L 270.238281 395.84375 L 272.015625 395.457031 L 273.828125 395.636719 L 275.5 396.371094 L 276.859375 397.582031 L 277.957031 398.929688 L 278.765625 399.601563 L 279.785156 400.160156 L 280.894531 400.503906 L 281.9375 400.621094 L 283.113281 400.523438 L 284.125 400.234375 L 285.675781 399.449219 L 287.25 398.9375 L 287.25 398.894531 L 287.695313 397.214844 L 288.648438 395.015625 L 288.859375 393.445313 L 288.636719 391.894531 L 287.605469 389.609375 L 287.117188 387.816406 L 287.222656 385.964844 L 287.90625 384.238281 L 289.101563 382.816406 L 290.683594 381.839844 L 292.488281 381.414063 L 295.03125 381.234375 L 297.414063 380.324219 L 299.492188 379.9375 L 303.371094 379.9375 L 305.097656 380.199219 L 305.460938 380.378906 L 306.730469 384.164063 L 307.179688 391.25 L 306.777344 393.191406 L 306.890625 393.976563 L 305.789063 396.917969 L 305.316406 399.195313 L 304.066406 399.101563 L 302.203125 399.570313 L 300.882813 400.34375 L 296.886719 403.882813 L 295.421875 404.828125 L 294.0625 405.210938 L 294.066406 405.433594 L 293.546875 407.15625 L 292.511719 409.300781 L 292.242188 410.855469 L 292.398438 412.421875 L 293.273438 414.636719 L 293.667969 416.445313 L 293.476563 418.289063 L 292.710938 419.976563 L 291.457031 421.339844 L 291.339844 421.433594 L 290.003906 421.65625 L 289.660156 421.574219 L 288.214844 419.332031 L 284.976563 421.730469 L 280.71875 424.230469 L 282.339844 425.378906 L 285.105469 424.398438 L 286.097656 423.375 L 286.894531 423.164063 L 287.328125 423.710938 L 287.414063 425.152344 L 286.476563 425.898438 L 283.714844 427.210938 L 282.15625 428.804688 L 281.6875 429.6875 L 281.347656 430.855469 L 281.261719 432.066406 L 281.316406 432.441406 L 279.644531 432.160156 L 274.75 433.78125 L 272.609375 436.117188 L 274.253906 436.015625 L 275.152344 434.667969 L 276.683594 434.363281 L 278.285156 434.328125 L 281.054688 434.949219 L 281.828125 435.589844 L 281.691406 436.328125 L 279.554688 436.347656 L 277.390625 437.65625 L 277.96875 438.546875 L 281.382813 438.964844 L 286.863281 440.339844 L 289.394531 439.9375 L 290.34375 439.382813 L 291.472656 439.214844 L 292.277344 438.789063 L 299.742188 437.757813 L 300.988281 440.148438 L 300.773438 446.324219 L 300.335938 447.820313 L 299.394531 449.050781 L 296.972656 450.242188 L 295.839844 450.375 L 292.621094 451.640625 L 291.179688 452.742188 L 290.503906 453.496094 L 289.0625 453.324219 L 287.726563 453.476563 L 286.542969 453.890625 L 285.460938 454.566406 L 283.601563 456.386719 L 282.886719 457.351563 L 282.324219 458.597656 L 282.054688 459.953125 L 281.042969 460.90625 L 278.484375 461.933594 L 274.789063 462.777344 L 272.597656 463.816406 L 270.539063 466.589844 L 269.761719 466.949219 L 259.269531 463.777344 L 256.070313 463.507813 L 254.949219 463.722656 L 254.914063 463.570313 L 254.828125 461.769531 L 254.488281 460.511719 L 253.941406 459.453125 L 253.175781 458.519531 L 252.230469 457.761719 L 251.15625 457.226563 L 249.878906 456.894531 L 248.648438 456.847656 L 247.621094 457.015625 L 246.527344 457.421875 L 245.550781 458.03125 L 244.710938 458.816406 L 244.035156 459.769531 L 243.601563 460.730469 L 243.332031 461.882813 L 243.273438 463.503906 L 242.949219 465.21875 L 242.132813 466.757813 L 240.964844 467.914063 L 238.210938 466.1875 L 238.632813 465.4375 L 239.46875 464.933594 L 237.714844 463.296875 L 231.496094 463.171875 L 231.378906 463.496094 L 232.574219 464.835938 L 232.214844 465.75 L 231.738281 466.042969 L 226.691406 465.496094 L 219.566406 468.449219 L 217.054688 467.824219 L 210.222656 468.96875 L 208.71875 468.898438 L 208.40625 467.6875 L 208.546875 465.800781 L 209.285156 464.058594 L 210.542969 462.648438 L 211.804688 461.628906 L 212.566406 460.722656 L 213.082031 459.78125 L 213.417969 458.75 L 213.558594 457.667969 L 213.492188 456.582031 L 213.222656 455.527344 L 212.777344 454.574219 L 212.0625 453.609375 L 210.421875 452.203125 L 209.800781 451.589844 L 208.304688 449.855469 L 207.425781 449.214844 L 206.515625 448.789063 L 205.148438 448.472656 L 203.808594 448.480469 L 202.507813 448.792969 L 200.710938 449.707031 L 198.964844 450.269531 L 197.132813 450.257813 L 195.394531 449.679688 L 193.921875 448.585938 L 192.863281 447.09375 L 192.320313 445.339844 L 192.351563 443.507813 L 192.953125 441.777344 L 193.722656 440.335938 L 194.050781 439.296875 L 194.171875 438.234375 L 194.082031 437.070313 L 193.769531 435.980469 L 193.195313 434.875 L 192.476563 434 L 191.136719 432.902344 L 190.664063 432.386719 L 190.867188 432.195313 L 195.792969 425.3125 L 197.929688 424.472656 L 198.285156 423.78125 L 198.070313 423.238281 L 197.8125 423.082031 L 196.09375 424.355469 L 192.90625 427.300781 L 190.570313 429.988281 L 189.667969 430.96875 L 189.265625 430.140625 L 189 428.476563 L 188.929688 423.269531 L 188.277344 421.164063 L 187.4375 419.960938 L 186.070313 418.859375 L 183.070313 417.5 L 180.363281 417.082031 L 178.539063 416.480469 L 177.007813 415.316406 L 175.941406 413.722656 L 175.453125 411.863281 L 175.597656 409.949219 L 176.355469 408.183594 L 177.648438 406.765625 L 179.613281 405.21875 L 180.46875 404.027344 L 181.203125 401.769531 L 181.390625 399.492188 L 181.261719 397.824219 L 181.390625 396.089844 L 182.03125 394.46875 L 183.117188 393.109375 L 185.160156 391.226563 L 185.972656 389.777344 L 186.351563 387.644531 L 185.808594 384.671875 L 185.757813 382.878906 L 186.257813 381.15625 L 187.261719 379.667969 L 188.667969 378.558594 L 190.34375 377.925781 L 192.136719 377.835938 L 193.867188 378.296875 L 196.5625 379.480469 L 198.589844 379.617188 L 200.519531 379.042969 Z M 282.757813 436.132813 L 283.277344 436.835938 L 284.621094 437.863281 L 287.269531 439.046875 L 287.535156 439.097656 L 286.679688 439.636719 L 283.058594 438.976563 L 282.164063 437.605469 L 282.484375 436.070313 Z M 232.984375 468.332031 L 232.925781 468.328125 L 231.726563 468.507813 L 230.589844 468.933594 L 229.566406 469.585938 L 228.703125 470.4375 L 228.035156 471.453125 L 227.375 473.15625 L 226.941406 473.886719 L 222.296875 470.886719 L 220.207031 471.1875 L 221.476563 469.683594 L 227.316406 466.367188 L 232.550781 467.761719 Z M 268.6875 386.390625 L 267.480469 385.050781 L 266.742188 383.40625 L 266.542969 381.613281 L 266.90625 379.84375 L 267.734375 378.367188 L 270.21875 378.804688 L 270.625 378.746094 L 271.910156 376.796875 L 272.027344 376.128906 L 272.539063 376.066406 L 276.828125 376.203125 L 278.707031 376.578125 L 280.359375 377.542969 L 281.613281 378.992188 L 282.324219 380.769531 L 282.417969 382.683594 L 281.890625 384.523438 L 280.789063 386.09375 L 279.238281 387.21875 L 276.6875 388.492188 L 275.113281 389.011719 L 273.453125 389.066406 L 271.847656 388.652344 L 270.425781 387.800781 Z M 234.441406 328.519531 L 233.492188 326.84375 L 233.140625 324.949219 L 233.429688 323.046875 L 234.324219 321.339844 L 235.726563 320.023438 L 237.484375 319.230469 L 239.402344 319.058594 L 241.269531 319.523438 L 243.796875 320.617188 L 245.625 320.78125 L 247.308594 320.402344 L 249.691406 318.992188 L 251.359375 318.324219 L 251.628906 318.308594 L 252.390625 319.148438 L 256.121094 320.875 L 257.207031 321.722656 L 254.738281 323.09375 L 253.890625 324.554688 L 253.765625 325.996094 L 254.984375 329.992188 L 255.191406 330.417969 L 254.765625 331.476563 L 254.609375 332.886719 L 254.902344 338.949219 L 254.808594 340.160156 L 253.664063 338.65625 L 252.601563 338.082031 L 245.550781 339.511719 L 244.589844 338.644531 L 243.40625 338.558594 L 241.210938 339.871094 L 241.886719 340.445313 L 246.324219 340.394531 L 249.617188 339.34375 L 251.976563 339.082031 L 254.359375 342.523438 L 254.140625 343.609375 L 253.554688 345.226563 L 252.519531 346.597656 L 251.128906 347.609375 L 249.503906 348.171875 L 247.355469 348.570313 L 245.28125 349.542969 L 243.578125 350.042969 L 241.804688 350.003906 L 240.125 349.433594 L 238.695313 348.378906 L 237.648438 346.945313 L 237.082031 345.265625 L 236.746094 343.3125 L 235.980469 341.488281 L 235.527344 339.410156 L 235.847656 337.308594 L 236.851563 334.441406 L 236.820313 332.402344 L 236.167969 330.652344 Z M 212.632813 321.894531 L 212.265625 320.101563 L 212.476563 318.28125 L 213.238281 316.617188 L 214.480469 315.273438 L 216.105469 313.996094 L 217.382813 312.375 L 218.625 311.199219 L 220.15625 310.4375 L 221.84375 310.15625 L 223.539063 310.375 L 225.101563 311.078125 L 226.386719 312.203125 L 227.289063 313.65625 L 228.273438 315.925781 L 229.855469 317.828125 L 230.847656 319.550781 L 231.203125 321.511719 L 230.875 323.472656 L 229.90625 325.210938 L 228.40625 326.519531 L 225.933594 328.023438 L 224.027344 330.367188 L 222.738281 331.539063 L 221.160156 332.277344 L 219.4375 332.511719 L 217.71875 332.230469 L 216.160156 331.449219 L 214.90625 330.242188 L 214.0625 328.71875 L 213.707031 327.011719 L 213.566406 324.371094 Z M 187.386719 263.644531 L 185.835938 262.511719 L 184.734375 260.933594 L 184.207031 259.085938 L 184.316406 257.164063 L 185.042969 255.386719 L 186.308594 253.9375 L 187.976563 252.984375 L 189.867188 252.628906 L 191.839844 252.585938 L 197.914063 251.59375 L 199.609375 251.566406 L 201.238281 252.03125 L 202.667969 252.945313 L 203.769531 254.234375 L 204.457031 255.785156 L 204.664063 257.46875 L 204.378906 259.140625 L 204.21875 259.625 L 203.492188 261.097656 L 202.386719 262.308594 L 200.402344 263.9375 L 199.464844 265.1875 L 198.085938 266.5 L 196.359375 267.296875 L 194.46875 267.496094 L 192.617188 267.074219 L 190.996094 266.078125 L 189.296875 264.597656 Z M 162.164063 434.21875 L 162.199219 434.125 L 163.359375 432.664063 L 164.925781 431.648438 L 166.734375 431.179688 L 168.308594 431.035156 L 169.945313 430.566406 L 171.710938 430.339844 L 173.460938 430.660156 L 175.03125 431.492188 L 176.277344 432.761719 L 177.082031 434.347656 L 177.367188 436.105469 L 177.113281 437.863281 L 176.425781 439.28125 L 174.058594 439.917969 L 170.558594 439.851563 L 166.820313 439 L 166.347656 438.652344 Z M 176.058594 448.089844 L 176.699219 448.953125 L 177.726563 450.902344 L 178.710938 451.980469 L 179.933594 452.78125 L 181.316406 453.246094 L 182.773438 453.347656 L 184.210938 453.082031 L 185.535156 452.460938 L 187.230469 451.058594 L 188.855469 450.109375 L 190.695313 449.726563 L 192.5625 449.953125 L 194.257813 450.765625 L 195.609375 452.074219 L 196.46875 453.742188 L 196.753906 455.601563 L 196.429688 457.453125 L 195.421875 460.339844 L 195.464844 462.566406 L 195.757813 463.523438 L 196.367188 464.609375 L 197.105469 465.46875 L 199.265625 467.289063 L 200.597656 468.90625 L 201.273438 470.890625 L 201.214844 472.46875 L 197.625 472.007813 L 196.175781 472.65625 L 195.679688 473.863281 L 195.832031 474.871094 L 196.757813 475.523438 L 196.488281 476.304688 L 195.917969 475.996094 L 194.851563 473.972656 L 190.289063 470.589844 L 185.898438 468.519531 L 183.121094 467.984375 L 181.648438 469.066406 L 176.207031 469.78125 L 174.339844 470.335938 L 168.992188 473.234375 L 168.214844 474.070313 L 167.203125 476.179688 L 167.011719 476.746094 L 165.714844 476.519531 L 163.984375 475.539063 L 162.578125 474.382813 L 161.503906 473.828125 L 160.320313 473.5 L 159.386719 473.441406 L 157.324219 473.859375 L 155.773438 474.761719 L 154.503906 476.210938 L 153.449219 478.75 L 152.417969 480.394531 L 150.902344 481.609375 L 149.070313 482.253906 L 147.128906 482.257813 L 145.292969 481.625 L 143.765625 480.425781 L 142.722656 478.789063 L 142.054688 477.210938 L 141.378906 476.199219 L 138.683594 473.109375 L 136.945313 471.742188 L 135.667969 470.347656 L 134.90625 468.625 L 134.878906 468.300781 L 135.859375 467.5625 L 138.636719 464.640625 L 139.128906 458.542969 L 139.796875 454.753906 L 142.492188 455.105469 L 144.269531 456.015625 L 145.761719 455.429688 L 148.429688 452.488281 L 148.105469 447.519531 L 151.105469 446.613281 L 151.132813 446.609375 L 152.355469 447.5 L 153.363281 448.816406 L 153.960938 450.363281 L 154.535156 452.878906 L 155.390625 454.355469 L 156.636719 455.519531 L 158.214844 456.285156 L 159.683594 456.539063 L 161.105469 456.414063 L 162.566406 455.882813 L 163.855469 454.988281 L 164.523438 454.273438 L 165.136719 453.300781 L 165.550781 452.226563 L 165.828125 450.652344 L 166.410156 448.953125 L 167.480469 447.511719 L 168.21875 446.980469 L 166.445313 446.484375 L 165.988281 446.171875 L 166.046875 446.148438 L 167.527344 446.515625 L 169.484375 447.285156 L 170.039063 448.109375 L 170.757813 448.421875 L 173.15625 448.464844 Z M 136.574219 448.265625 L 136.660156 448.082031 L 136.6875 448.207031 Z M 181.484375 212.9375 L 181.246094 211.160156 L 181.5625 209.398438 L 182.398438 207.816406 L 183.679688 206.5625 L 185.0625 205.570313 L 186.777344 204.730469 L 188.667969 204.492188 L 190.535156 204.875 L 192.179688 205.84375 L 193.421875 207.289063 L 194.128906 209.0625 L 194.222656 210.964844 L 193.699219 212.796875 L 192.664063 214.976563 L 191.6875 216.421875 L 190.324219 217.515625 L 188.695313 218.152344 L 186.957031 218.277344 L 185.253906 217.878906 L 183.75 216.996094 L 182.574219 215.707031 L 181.832031 214.125 Z M 178.152344 221.441406 L 179.917969 221.484375 L 181.585938 222.054688 L 181.699219 222.136719 L 177.804688 225.21875 L 178.117188 225.714844 L 179.84375 225.195313 L 183.316406 223.511719 L 184.054688 224.519531 L 184.625 226.191406 L 184.664063 227.957031 L 184.363281 230.300781 L 184.71875 232.636719 L 181.046875 235.800781 L 180.578125 237.003906 L 176.855469 238.992188 L 176.386719 238.84375 L 174.914063 237.792969 L 173.835938 236.339844 L 172.984375 234.710938 L 172.269531 233.839844 L 171.394531 233.121094 L 169.765625 232.269531 L 168.316406 231.191406 L 167.261719 229.71875 L 166.714844 227.996094 L 166.722656 226.1875 L 167.289063 224.46875 L 168.351563 223.003906 L 169.8125 221.941406 L 171.535156 221.378906 L 173.34375 221.367188 L 175.804688 221.746094 Z M 152.070313 408.648438 L 152.152344 408.570313 L 154.273438 406.660156 L 155.660156 404.164063 L 156.84375 402.675781 L 158.441406 401.648438 L 160.285156 401.1875 L 162.175781 401.347656 L 163.917969 402.109375 L 165.320313 403.394531 L 166.957031 405.476563 L 169.148438 406.972656 L 170.402344 408.132813 L 171.265625 409.613281 L 171.664063 411.277344 L 171.558594 412.984375 L 170.957031 414.589844 L 169.917969 415.949219 L 168.527344 416.949219 L 166.90625 417.5 L 164.828125 417.875 L 163.550781 418.449219 L 162.460938 419.308594 L 161.550781 420.492188 L 161 421.765625 L 160.773438 423.148438 L 160.886719 424.546875 L 161.558594 426.550781 L 161.859375 428.285156 L 161.628906 430.03125 L 160.882813 431.628906 L 160.578125 431.960938 L 159.03125 429.199219 L 155.65625 429.589844 L 151.058594 431.546875 L 149.878906 430.222656 L 148.21875 429.269531 L 147.300781 429.089844 L 148.539063 428.378906 L 150.066406 428.890625 L 151.640625 428.421875 L 152.765625 427.832031 L 153.085938 427.097656 L 152.808594 426.597656 L 147.785156 426.460938 L 143.210938 423.710938 L 139.503906 423.714844 L 137.148438 424.199219 L 137.054688 423.746094 L 137.300781 421.839844 L 138.160156 420.113281 L 139.53125 418.765625 L 140.941406 417.777344 L 141.667969 417.027344 L 142.304688 416.050781 L 142.90625 414.574219 L 143.925781 412.925781 L 145.429688 411.707031 L 147.25 411.046875 L 148.949219 410.738281 L 149.917969 410.363281 L 150.90625 409.742188 Z M 236.835938 466.113281 L 235.136719 465.644531 L 236.523438 463.683594 L 237.195313 464.164063 L 237.5 465.839844 Z M 236.835938 466.113281 "/>
<path style=" stroke:none;fill-rule:nonzero;fill:rgb(80.392157%,58.431373%,4.705882%);fill-opacity:1;" d="M 200.628906 339.230469 L 200.347656 341.027344 L 199.519531 342.648438 L 198.234375 343.933594 L 196.613281 344.761719 L 194.816406 345.046875 L 193.019531 344.761719 L 191.398438 343.933594 L 190.109375 342.648438 L 189.285156 341.027344 L 189 339.230469 L 189.285156 337.433594 L 190.109375 335.8125 L 191.398438 334.527344 L 193.019531 333.699219 L 194.816406 333.414063 L 196.613281 333.699219 L 198.234375 334.527344 L 199.519531 335.8125 L 200.347656 337.433594 Z M 200.628906 339.230469 "/>
<path style=" stroke:none;fill-rule:nonzero;fill:rgb(80.392157%,58.431373%,4.705882%);fill-opacity:1;" d="M 243.277344 354.738281 L 242.992188 356.535156 L 242.167969 358.15625 L 240.878906 359.441406 L 239.257813 360.269531 L 237.460938 360.554688 L 235.664063 360.269531 L 234.042969 359.441406 L 232.757813 358.15625 L 231.929688 356.535156 L 231.644531 354.738281 L 231.929688 352.941406 L 232.757813 351.320313 L 234.042969 350.035156 L 235.664063 349.207031 L 237.460938 348.921875 L 239.257813 349.207031 L 240.878906 350.035156 L 242.167969 351.320313 L 242.992188 352.941406 Z M 243.277344 354.738281 "/>
<path style=" stroke:none;fill-rule:nonzero;fill:rgb(80.392157%,58.431373%,4.705882%);fill-opacity:1;" d="M 254.90625 381.875 L 254.625 383.675781 L 253.796875 385.296875 L 252.511719 386.582031 L 250.890625 387.40625 L 249.09375 387.691406 L 247.296875 387.40625 L 245.675781 386.582031 L 244.386719 385.296875 L 243.5625 383.675781 L 243.277344 381.875 L 243.5625 380.078125 L 244.386719 378.457031 L 245.675781 377.171875 L 247.296875 376.347656 L 249.09375 376.0625 L 250.890625 376.347656 L 252.511719 377.171875 L 253.796875 378.457031 L 254.625 380.078125 Z M 254.90625 381.875 "/>
<path style=" stroke:none;fill-rule:nonzero;fill:rgb(80.392157%,58.431373%,4.705882%);fill-opacity:1;" d="M 189 366.371094 L 188.714844 368.167969 L 187.890625 369.789063 L 186.601563 371.074219 L 184.980469 371.898438 L 183.183594 372.183594 L 181.386719 371.898438 L 179.765625 371.074219 L 178.480469 369.789063 L 177.652344 368.167969 L 177.371094 366.371094 L 177.652344 364.570313 L 178.480469 362.949219 L 179.765625 361.664063 L 181.386719 360.839844 L 183.183594 360.554688 L 184.980469 360.839844 L 186.601563 361.664063 L 187.890625 362.949219 L 188.714844 364.570313 Z M 189 366.371094 "/>
<path style=" stroke:none;fill-rule:nonzero;fill:rgb(80.392157%,58.431373%,4.705882%);fill-opacity:1;" d="M 223.890625 354.738281 L 223.609375 356.535156 L 222.78125 358.15625 L 221.496094 359.441406 L 219.875 360.269531 L 218.078125 360.554688 L 216.28125 360.269531 L 214.660156 359.441406 L 213.371094 358.15625 L 212.546875 356.535156 L 212.261719 354.738281 L 212.546875 352.941406 L 213.371094 351.320313 L 214.660156 350.035156 L 216.28125 349.207031 L 218.078125 348.921875 L 219.875 349.207031 L 221.496094 350.035156 L 222.78125 351.320313 L 223.609375 352.941406 Z M 223.890625 354.738281 "/>
<path style=" stroke:none;fill-rule:nonzero;fill:rgb(80.392157%,58.431373%,4.705882%);fill-opacity:1;" d="M 227.769531 300.460938 L 227.484375 302.257813 L 226.660156 303.878906 L 225.371094 305.167969 L 223.75 305.992188 L 221.953125 306.277344 L 220.15625 305.992188 L 218.535156 305.167969 L 217.25 303.878906 L 216.421875 302.257813 L 216.136719 300.460938 L 216.421875 298.664063 L 217.25 297.042969 L 218.535156 295.757813 L 220.15625 294.929688 L 221.953125 294.644531 L 223.75 294.929688 L 225.371094 295.757813 L 226.660156 297.042969 L 227.484375 298.664063 Z M 227.769531 300.460938 "/>
<path style=" stroke:none;fill-rule:nonzero;fill:rgb(80.392157%,58.431373%,4.705882%);fill-opacity:1;" d="M 169.617188 253.9375 L 169.332031 255.734375 L 168.503906 257.355469 L 167.21875 258.644531 L 165.597656 259.46875 L 163.800781 259.753906 L 162.003906 259.46875 L 160.382813 258.644531 L 159.09375 257.355469 L 158.269531 255.734375 L 157.984375 253.9375 L 158.269531 252.140625 L 159.09375 250.519531 L 160.382813 249.234375 L 162.003906 248.40625 L 163.800781 248.125 L 165.597656 248.40625 L 167.21875 249.234375 L 168.503906 250.519531 L 169.332031 252.140625 Z M 169.617188 253.9375 "/>
<path style=" stroke:none;fill-rule:nonzero;fill:rgb(80.392157%,58.431373%,4.705882%);fill-opacity:1;" d="M 196.753906 284.953125 L 196.46875 286.75 L 195.644531 288.371094 L 194.355469 289.660156 L 192.734375 290.484375 L 190.9375 290.769531 L 189.140625 290.484375 L 187.519531 289.660156 L 186.234375 288.371094 L 185.40625 286.75 L 185.125 284.953125 L 185.40625 283.15625 L 186.234375 281.535156 L 187.519531 280.25 L 189.140625 279.421875 L 190.9375 279.136719 L 192.734375 279.421875 L 194.355469 280.25 L 195.644531 281.535156 L 196.46875 283.15625 Z M 196.753906 284.953125 "/>
<path style=" stroke:none;fill-rule:nonzero;fill:rgb(80.392157%,58.431373%,4.705882%);fill-opacity:1;" d="M 266.539063 354.738281 L 266.253906 356.535156 L 265.429688 358.15625 L 264.140625 359.441406 L 262.519531 360.269531 L 260.722656 360.554688 L 258.925781 360.269531 L 257.304688 359.441406 L 256.019531 358.15625 L 255.191406 356.535156 L 254.90625 354.738281 L 255.191406 352.941406 L 256.019531 351.320313 L 257.304688 350.035156 L 258.925781 349.207031 L 260.722656 348.921875 L 262.519531 349.207031 L 264.140625 350.035156 L 265.214844 351.109375 L 265.539063 351.542969 L 266.253906 352.941406 Z M 266.539063 354.738281 "/>
<path style=" stroke:none;fill-rule:nonzero;fill:rgb(80.392157%,58.431373%,4.705882%);fill-opacity:1;" d="M 189 288.832031 L 188.714844 290.628906 L 187.890625 292.25 L 186.601563 293.535156 L 184.980469 294.363281 L 183.183594 294.644531 L 181.386719 294.363281 L 179.765625 293.535156 L 178.480469 292.25 L 177.652344 290.628906 L 177.371094 288.832031 L 177.652344 287.035156 L 178.128906 286.097656 L 178.757813 285.980469 L 180.191406 286.804688 L 181.015625 286.710938 L 182.933594 286.238281 L 183.03125 285.160156 L 182.34375 284.746094 L 180.035156 285.351563 L 178.636719 285.257813 L 179.765625 284.125 L 181.386719 283.300781 L 183.183594 283.015625 L 184.980469 283.300781 L 186.601563 284.125 L 187.890625 285.414063 L 188.714844 287.035156 Z M 189 288.832031 "/>
<path style=" stroke:none;fill-rule:nonzero;fill:rgb(80.392157%,58.431373%,4.705882%);fill-opacity:1;" d="M 189 350.863281 L 188.714844 352.660156 L 187.890625 354.28125 L 186.601563 355.566406 L 185.78125 355.984375 L 183.8125 354.640625 L 179.976563 346.332031 L 180.195313 345.9375 L 181.386719 345.332031 L 183.183594 345.046875 L 184.980469 345.332031 L 186.601563 346.15625 L 187.890625 347.441406 L 188.714844 349.066406 Z M 183.964844 356.554688 L 183.183594 356.675781 L 181.386719 356.390625 L 179.765625 355.566406 L 178.480469 354.28125 L 177.925781 353.1875 L 178.242188 352.835938 L 180.867188 352.449219 L 181.503906 352.695313 L 181.914063 353.875 L 182.898438 354.332031 Z M 183.964844 356.554688 "/>
<path style=" stroke:none;fill-rule:nonzero;fill:rgb(80.392157%,58.431373%,4.705882%);fill-opacity:1;" d="M 108.082031 147.09375 L 107.726563 147.039063 L 107.539063 146.941406 L 108.015625 146.824219 Z M 106.714844 146.523438 L 106.105469 146.210938 L 104.816406 144.925781 L 103.992188 143.304688 L 103.707031 141.507813 L 103.992188 139.710938 L 104.816406 138.089844 L 106.105469 136.804688 L 107.726563 135.976563 L 109.523438 135.691406 L 111.320313 135.976563 L 112.800781 136.730469 L 112.328125 137.878906 L 110.105469 140.078125 L 109.925781 141.289063 L 111.058594 141.910156 L 112.367188 141.523438 L 113.644531 140.4375 L 114.097656 140.800781 L 113.746094 142.269531 L 112.140625 143.671875 L 111.234375 143.917969 L 109.761719 143.558594 L 108.839844 144.542969 L 108.40625 145.765625 Z M 106.714844 146.523438 "/>
<path style=" stroke:none;fill-rule:nonzero;fill:rgb(80.392157%,58.431373%,4.705882%);fill-opacity:1;" d="M 224.925781 289.886719 L 223.75 290.484375 L 221.953125 290.769531 L 220.15625 290.484375 L 218.535156 289.660156 L 217.25 288.371094 L 216.421875 286.75 L 216.136719 284.953125 L 216.421875 283.15625 L 217.25 281.535156 L 218.535156 280.25 L 220.15625 279.421875 L 220.925781 279.300781 L 221.269531 280.457031 L 222.984375 284.039063 L 223.773438 285.027344 Z M 224.925781 289.886719 "/>
<path style=" stroke:none;fill-rule:nonzero;fill:rgb(80.392157%,58.431373%,4.705882%);fill-opacity:1;" d="M 139.410156 322.675781 L 138.882813 321.644531 L 138.640625 320.097656 L 139.816406 316.644531 L 142.300781 315.023438 L 142.671875 314.308594 L 144.414063 314.03125 L 146.210938 314.316406 L 147.832031 315.140625 L 148.847656 316.15625 L 147.847656 318.148438 L 145.3125 320.636719 L 141.859375 323.019531 L 139.824219 322.464844 Z M 139.410156 322.675781 "/>
<path style=" stroke:none;fill-rule:nonzero;fill:rgb(80.392157%,58.431373%,4.705882%);fill-opacity:1;" d="M 150.996094 289.964844 L 151.339844 289.289063 L 152.628906 288.003906 L 154.25 287.175781 L 156.046875 286.890625 L 157.84375 287.175781 L 159.464844 288.003906 L 160.75 289.289063 L 161.578125 290.910156 L 161.738281 291.917969 L 159.410156 293.515625 L 156.15625 293.3125 L 155.160156 292.984375 Z M 150.996094 289.964844 "/>
<path style=" stroke:none;fill-rule:nonzero;fill:rgb(80.392157%,58.431373%,4.705882%);fill-opacity:1;" d="M 269.183594 360.441406 L 268.476563 360.554688 L 266.679688 360.269531 L 265.058594 359.441406 L 263.773438 358.15625 L 262.945313 356.535156 L 262.660156 354.738281 L 262.945313 352.941406 L 263.773438 351.320313 L 264.6875 350.40625 L 266.046875 352.214844 L 268.980469 359.304688 Z M 269.183594 360.441406 "/>
<path style=" stroke:none;fill-rule:nonzero;fill:rgb(80.392157%,58.431373%,4.705882%);fill-opacity:1;" d="M 88.429688 500.046875 L 88.566406 499.308594 L 88.941406 499.117188 L 89.34375 499.789063 Z M 88.429688 500.046875 "/>
</g>
</svg>
