<?xml version="1.0" encoding="UTF-8"?>
<svg xmlns="http://www.w3.org/2000/svg" xmlns:xlink="http://www.w3.org/1999/xlink" width="378pt" height="504pt" viewBox="0 0 378 504" version="1.1">
<g id="data">
<rect x="0" y="0" width="378" height="504" style="fill:rgb(100%,100%,100%);fill-opacity:1;stroke:none;"/>
<path style=" stroke:none;fill-rule:nonzero;fill:rgb(100%,100%,100%);fill-opacity:1;" d="M 53.308594 504 L 324.691406 504 L 324.691406 0 L 53.308594 0 Z M 53.308594 504 "/>
<path style=" stroke:none;fill-rule:nonzero;fill:rgb(22.745098%,53.333333%,16.078431%);fill-opacity:1;" d="M 303.371094 385.753906 L 305.074219 387.925781 L 307.070313 389.492188 L 307.179688 391.25 L 306.777344 393.191406 L 306.816406 393.476563 L 303.5625 393.234375 L 299.980469 394.128906 L 297.453125 395.613281 L 293.03125 399.527344 L 294.304688 396.589844 L 294.730469 393.417969 L 294.238281 390.125 L 292.902344 387.214844 L 296.304688 386.972656 L 299.492188 385.753906 Z M 206.445313 381.875 L 208.617188 380.171875 L 210.324219 378 L 212.574219 378.160156 L 215.324219 377.851563 L 217.382813 377.28125 L 219.304688 376.339844 L 218.078125 378 L 215.390625 380.257813 L 212.832031 383.734375 L 211.597656 386.683594 L 211.210938 389.855469 L 211.859375 393.503906 L 213.625 396.761719 L 216.324219 399.300781 L 219.683594 400.859375 L 223.078125 401.394531 L 225.832031 401.261719 L 228.59375 403.113281 L 231.636719 404.082031 L 234.324219 404.230469 L 236.847656 403.796875 L 240.089844 402.285156 L 242.640625 399.960938 L 244.445313 396.871094 L 245.214844 393.507813 L 246.085938 397.066406 L 247.9375 400.082031 L 251.445313 403.410156 L 255.152344 405.089844 L 258.191406 405.453125 L 266.230469 404.886719 L 269.519531 403.585938 L 272.355469 401.261719 L 273.808594 403.046875 L 275.589844 404.507813 L 277.621094 405.589844 L 279.703125 406.222656 L 281.863281 406.460938 L 284.160156 406.269531 L 286.25 405.675781 L 288.304688 404.636719 L 286.925781 407.503906 L 286.375 410.640625 L 286.695313 413.808594 L 287.863281 416.769531 L 285.691406 418.476563 L 283.984375 420.644531 L 280.28125 422.402344 L 277.421875 425.335938 L 276.269531 427.488281 L 275.589844 429.832031 L 275.417969 432.265625 L 275.59375 433.5 L 274.75 433.78125 L 272.609375 436.117188 L 274.253906 436.015625 L 275.152344 434.667969 L 275.738281 434.550781 L 275.757813 434.683594 L 277.117188 438.28125 L 279.089844 440.957031 L 281.628906 442.898438 L 285.496094 444.621094 L 289.386719 445.398438 L 293.3125 444.824219 L 296.816406 442.960938 L 299.492188 440.03125 L 298.011719 443.148438 L 295.679688 445.695313 L 292.824219 447.394531 L 291.738281 447.785156 L 289.078125 447.46875 L 286.417969 447.769531 L 284.007813 448.617188 L 281.84375 449.96875 L 279.207031 452.554688 L 277.847656 454.386719 L 276.75 456.808594 L 276.230469 459.414063 L 274.0625 461.121094 L 272.355469 463.292969 L 268.476563 463.292969 L 264.601563 462.628906 L 260.722656 463.292969 L 260.605469 460.863281 L 259.941406 458.394531 L 258.824219 456.234375 L 257.28125 454.355469 L 255.382813 452.839844 L 253.210938 451.75 L 250.722656 451.105469 L 248.285156 451.015625 L 246.003906 451.402344 L 243.957031 452.175781 L 241.992188 453.394531 L 240.304688 454.976563 L 238.964844 456.863281 L 238.066406 458.855469 L 237.539063 461.109375 L 237.460938 463.292969 L 237.457031 463.289063 L 235.109375 462.636719 L 232.675781 462.484375 L 230.257813 462.84375 L 227.972656 463.703125 L 225.917969 465.015625 L 224.515625 466.398438 L 219.566406 468.449219 L 217.066406 467.828125 L 216.320313 467.542969 L 214.199219 467.167969 L 215.898438 465.796875 L 217.3125 464.128906 L 218.386719 462.226563 L 219.117188 460.03125 L 219.394531 457.863281 L 219.261719 455.683594 L 218.722656 453.5625 L 217.796875 451.585938 L 216.347656 449.621094 L 214.199219 447.785156 L 212.269531 445.550781 L 210.402344 444.1875 L 208.425781 443.261719 L 205.796875 442.65625 L 203.101563 442.667969 L 200.484375 443.300781 L 198.078125 444.523438 L 199.109375 442.597656 L 199.761719 440.511719 L 200.015625 438.34375 L 199.835938 436.039063 L 199.152344 433.695313 L 198.070313 431.652344 L 196.605469 429.863281 L 194.816406 428.398438 L 194.792969 426.707031 L 195.792969 425.3125 L 197.929688 424.472656 L 198.285156 423.78125 L 198.070313 423.238281 L 197.8125 423.082031 L 196.09375 424.355469 L 194.777344 425.570313 L 194.734375 422.347656 L 193.5625 418.574219 L 191.730469 415.957031 L 189.148438 413.867188 L 184.742188 411.871094 L 181.246094 411.335938 L 183.765625 409.371094 L 185.71875 406.683594 L 186.941406 402.921875 L 187.222656 399.511719 L 187.0625 397.382813 L 189.699219 394.976563 L 191.527344 391.765625 L 192.261719 387.757813 L 191.527344 383.621094 L 195.28125 385.246094 L 199.242188 385.488281 L 203.167969 384.324219 Z M 222.769531 468.945313 L 222 470.929688 L 221.851563 470.949219 L 221.039063 470.199219 L 221.476563 469.683594 Z M 272.355469 381.875 L 276.644531 382.015625 L 274.089844 383.289063 Z M 238.957031 324.855469 L 242.339844 326.324219 L 245.882813 326.664063 L 249.480469 325.875 L 252.652344 323.996094 L 250.398438 326.742188 L 249.074219 330.046875 L 248.777344 332.699219 L 249.070313 338.796875 L 245.550781 339.511719 L 244.589844 338.644531 L 243.40625 338.558594 L 241.527344 339.683594 L 241.339844 339.230469 L 242.683594 335.382813 L 242.621094 331.308594 L 241.347656 327.839844 Z M 249.03125 339.53125 L 248.441406 342.453125 L 245.5625 342.992188 L 242.816406 344.277344 L 242.367188 341.667969 L 241.832031 340.398438 L 241.886719 340.445313 L 246.324219 340.394531 Z M 221.953125 315.96875 L 223.269531 319.007813 L 225.386719 321.550781 L 222.054688 323.574219 L 219.515625 326.699219 L 219.324219 323.160156 L 218.078125 319.847656 L 220.246094 318.140625 Z M 189.988281 258.441406 L 192.371094 258.390625 L 198.851563 257.332031 L 198.691406 257.816406 L 196.175781 259.886719 L 194.816406 261.691406 L 192.554688 259.726563 Z M 167.675781 459.414063 L 169.148438 457.84375 L 170.363281 455.914063 L 171.179688 453.78125 L 171.554688 451.660156 L 172.925781 454.269531 L 174.910156 456.445313 L 177.375 458.054688 L 180.167969 458.992188 L 183.105469 459.203125 L 186 458.664063 L 188.667969 457.417969 L 190.9375 455.539063 L 189.589844 459.40625 L 189.664063 463.5 L 190.386719 465.828125 L 191.578125 467.957031 L 193 469.613281 L 195.519531 471.734375 L 194.972656 474.207031 L 194.851563 473.972656 L 193.972656 473.320313 L 193.441406 472.316406 L 191.460938 470.140625 L 188.992188 468.527344 L 186.203125 467.589844 L 183.265625 467.382813 L 180.367188 467.921875 L 177.699219 469.167969 L 177.101563 469.664063 L 176.207031 469.78125 L 174.339844 470.335938 L 173.03125 471.046875 L 167.675781 471.046875 L 165.796875 469.5 L 163.632813 468.382813 L 161.289063 467.738281 L 158.984375 467.589844 L 155.347656 468.308594 L 152.023438 470.214844 L 149.5 473.097656 L 148.078125 476.523438 L 147.199219 474.4375 L 146.007813 472.65625 L 142.707031 468.875 L 140.539063 467.167969 L 141.984375 465.539063 L 143.097656 463.664063 L 143.875 461.492188 L 144.203125 459.335938 L 144.121094 457.160156 L 143.804688 455.777344 L 144.269531 456.015625 L 145.761719 455.429688 L 148.429688 452.488281 L 148.410156 452.171875 L 149.0625 455.027344 L 150.785156 458.015625 L 153.3125 460.367188 L 156.414063 461.875 L 159.441406 462.398438 L 162.371094 462.140625 L 165.144531 461.152344 Z M 187.0625 211.292969 L 188.445313 210.300781 L 187.410156 212.480469 Z M 178.898438 227.210938 L 178.492188 230.496094 L 178.988281 233.644531 L 177.863281 231.488281 L 176.402344 229.707031 L 174.617188 228.246094 L 172.464844 227.117188 L 175.738281 227.617188 Z M 167.269531 436.972656 L 169.386719 436.777344 L 171.554688 436.152344 L 169.914063 438.519531 L 169.507813 439.613281 L 167.5625 439.167969 Z M 156.046875 412.890625 L 158.886719 410.332031 L 160.746094 406.984375 L 162.9375 409.777344 L 165.871094 411.777344 L 163.089844 412.28125 L 160.515625 413.441406 L 158.292969 415.1875 L 156.496094 417.527344 L 155.378906 420.121094 L 154.921875 422.90625 L 155.148438 425.722656 L 156.046875 428.398438 L 153.492188 425.5625 L 150.273438 423.75 L 146.652344 423.035156 L 142.867188 423.527344 L 144.734375 422.222656 L 146.234375 420.671875 L 147.417969 418.875 L 148.292969 416.769531 L 150.414063 416.394531 L 152.542969 415.582031 L 154.472656 414.363281 Z M 156.046875 412.890625 "/>
<path style=" stroke:none;fill-rule:nonzero;fill:rgb(80.392157%,58.431373%,4.705882%);fill-opacity:1;" d="M 189 366.371094 L 188.714844 368.167969 L 187.890625 369.789063 L 186.601563 371.074219 L 184.980469 371.898438 L 183.183594 372.183594 L 181.386719 371.898438 L 179.765625 371.074219 L 178.480469 369.789063 L 177.652344 368.167969 L 177.371094 366.371094 L 177.652344 364.570313 L 178.480469 362.949219 L 179.765625 361.664063 L 181.386719 360.839844 L 183.183594 360.554688 L 184.980469 360.839844 L 186.601563 361.664063 L 187.890625 362.949219 L 188.714844 364.570313 Z M 189 366.371094 "/>
<path style=" stroke:none;fill-rule:nonzero;fill:rgb(80.392157%,58.431373%,4.705882%);fill-opacity:1;" d="M 165.738281 397.382813 L 165.453125 399.183594 L 164.628906 400.804688 L 163.339844 402.089844 L 161.71875 402.914063 L 159.921875 403.199219 L 158.125 402.914063 L 156.503906 402.089844 L 155.21875 400.804688 L 154.390625 399.183594 L 154.109375 397.382813 L 154.390625 395.585938 L 155.21875 393.964844 L 156.503906 392.679688 L 158.125 391.855469 L 159.921875 391.570313 L 161.71875 391.855469 L 163.339844 392.679688 L 164.628906 393.964844 L 165.453125 395.585938 Z M 165.738281 397.382813 "/>
<path style=" stroke:none;fill-rule:nonzero;fill:rgb(80.392157%,58.431373%,4.705882%);fill-opacity:1;" d="M 200.628906 339.230469 L 200.347656 341.027344 L 199.519531 342.648438 L 198.234375 343.933594 L 196.613281 344.761719 L 194.816406 345.046875 L 193.019531 344.761719 L 191.398438 343.933594 L 190.109375 342.648438 L 189.285156 341.027344 L 189 339.230469 L 189.285156 337.433594 L 190.109375 335.8125 L 191.398438 334.527344 L 193.019531 333.699219 L 194.816406 333.414063 L 196.613281 333.699219 L 198.234375 334.527344 L 199.519531 335.8125 L 200.347656 337.433594 Z M 200.628906 339.230469 "/>
<path style=" stroke:none;fill-rule:nonzero;fill:rgb(80.392157%,58.431373%,4.705882%);fill-opacity:1;" d="M 243.277344 354.738281 L 242.992188 356.535156 L 242.167969 358.15625 L 240.878906 359.441406 L 239.257813 360.269531 L 237.460938 360.554688 L 235.664063 360.269531 L 234.042969 359.441406 L 232.757813 358.15625 L 231.929688 356.535156 L 231.644531 354.738281 L 231.929688 352.941406 L 232.757813 351.320313 L 234.042969 350.035156 L 235.664063 349.207031 L 237.460938 348.921875 L 239.257813 349.207031 L 240.878906 350.035156 L 242.167969 351.320313 L 242.992188 352.941406 Z M 243.277344 354.738281 "/>
<path style=" stroke:none;fill-rule:nonzero;fill:rgb(80.392157%,58.431373%,4.705882%);fill-opacity:1;" d="M 192.875 378 L 192.59375 379.796875 L 191.765625 381.417969 L 190.480469 382.703125 L 188.859375 383.53125 L 187.0625 383.816406 L 185.265625 383.53125 L 183.644531 382.703125 L 182.355469 381.417969 L 181.53125 379.796875 L 181.246094 378 L 181.53125 376.203125 L 182.355469 374.582031 L 183.644531 373.296875 L 185.265625 372.46875 L 187.0625 372.183594 L 188.859375 372.46875 L 190.480469 373.296875 L 191.765625 374.582031 L 192.59375 376.203125 Z M 192.875 378 "/>
<path style=" stroke:none;fill-rule:nonzero;fill:rgb(80.392157%,58.431373%,4.705882%);fill-opacity:1;" d="M 220.015625 335.355469 L 219.730469 337.152344 L 218.90625 338.773438 L 217.617188 340.058594 L 215.996094 340.882813 L 214.199219 341.167969 L 212.402344 340.882813 L 210.78125 340.058594 L 209.496094 338.773438 L 208.667969 337.152344 L 208.382813 335.355469 L 208.667969 333.558594 L 209.496094 331.9375 L 210.78125 330.648438 L 212.402344 329.824219 L 214.199219 329.539063 L 215.996094 329.824219 L 217.617188 330.648438 L 218.90625 331.9375 L 219.730469 333.558594 Z M 220.015625 335.355469 "/>
<path style=" stroke:none;fill-rule:nonzero;fill:rgb(80.392157%,58.431373%,4.705882%);fill-opacity:1;" d="M 254.90625 381.875 L 254.625 383.675781 L 253.796875 385.296875 L 252.511719 386.582031 L 250.890625 387.40625 L 249.09375 387.691406 L 247.296875 387.40625 L 245.675781 386.582031 L 244.386719 385.296875 L 243.5625 383.675781 L 243.277344 381.875 L 243.5625 380.078125 L 244.386719 378.457031 L 245.675781 377.171875 L 247.296875 376.347656 L 249.09375 376.0625 L 250.890625 376.347656 L 252.511719 377.171875 L 253.796875 378.457031 L 254.625 380.078125 Z M 254.90625 381.875 "/>
<path style=" stroke:none;fill-rule:nonzero;fill:rgb(80.392157%,58.431373%,4.705882%);fill-opacity:1;" d="M 223.890625 354.738281 L 223.609375 356.535156 L 222.78125 358.15625 L 221.496094 359.441406 L 219.875 360.269531 L 218.078125 360.554688 L 216.28125 360.269531 L 214.660156 359.441406 L 213.371094 358.15625 L 212.546875 356.535156 L 212.261719 354.738281 L 212.546875 352.941406 L 213.371094 351.320313 L 214.660156 350.035156 L 216.28125 349.207031 L 218.078125 348.921875 L 219.875 349.207031 L 221.496094 350.035156 L 222.78125 351.320313 L 223.609375 352.941406 Z M 223.890625 354.738281 "/>
<path style=" stroke:none;fill-rule:nonzero;fill:rgb(80.392157%,58.431373%,4.705882%);fill-opacity:1;" d="M 181.246094 412.890625 L 180.960938 414.6875 L 180.136719 416.308594 L 178.847656 417.597656 L 177.226563 418.421875 L 175.429688 418.707031 L 173.632813 418.421875 L 172.011719 417.597656 L 170.726563 416.308594 L 169.898438 414.6875 L 169.617188 412.890625 L 169.898438 411.09375 L 170.726563 409.472656 L 172.011719 408.1875 L 173.632813 407.363281 L 175.429688 407.078125 L 177.226563 407.363281 L 178.847656 408.1875 L 180.136719 409.472656 L 180.960938 411.09375 Z M 181.246094 412.890625 "/>
<path style=" stroke:none;fill-rule:nonzero;fill:rgb(80.392157%,58.431373%,4.705882%);fill-opacity:1;" d="M 227.769531 300.460938 L 227.484375 302.257813 L 226.660156 303.878906 L 225.371094 305.167969 L 223.75 305.992188 L 221.953125 306.277344 L 220.15625 305.992188 L 218.535156 305.167969 L 217.25 303.878906 L 216.421875 302.257813 L 216.136719 300.460938 L 216.421875 298.664063 L 217.25 297.042969 L 218.535156 295.757813 L 220.15625 294.929688 L 221.953125 294.644531 L 223.75 294.929688 L 225.371094 295.757813 L 226.660156 297.042969 L 227.484375 298.664063 Z M 227.769531 300.460938 "/>
<path style=" stroke:none;fill-rule:nonzero;fill:rgb(80.392157%,58.431373%,4.705882%);fill-opacity:1;" d="M 196.753906 284.953125 L 196.46875 286.75 L 195.644531 288.371094 L 194.355469 289.660156 L 192.734375 290.484375 L 190.9375 290.769531 L 189.140625 290.484375 L 187.519531 289.660156 L 186.234375 288.371094 L 185.40625 286.75 L 185.125 284.953125 L 185.40625 283.15625 L 186.234375 281.535156 L 187.519531 280.25 L 189.140625 279.421875 L 190.9375 279.136719 L 192.734375 279.421875 L 194.355469 280.25 L 195.644531 281.535156 L 196.46875 283.15625 Z M 196.753906 284.953125 "/>
<path style=" stroke:none;fill-rule:nonzero;fill:rgb(80.392157%,58.431373%,4.705882%);fill-opacity:1;" d="M 169.617188 253.9375 L 169.332031 255.734375 L 168.503906 257.355469 L 167.21875 258.644531 L 165.597656 259.46875 L 163.800781 259.753906 L 162.003906 259.46875 L 160.382813 258.644531 L 159.09375 257.355469 L 158.269531 255.734375 L 157.984375 253.9375 L 158.269531 252.140625 L 159.09375 250.519531 L 160.382813 249.234375 L 162.003906 248.40625 L 163.800781 248.125 L 165.597656 248.40625 L 167.21875 249.234375 L 168.503906 250.519531 L 169.332031 252.140625 Z M 169.617188 253.9375 "/>
<path style=" stroke:none;fill-rule:nonzero;fill:rgb(80.392157%,58.431373%,4.705882%);fill-opacity:1;" d="M 289.800781 381.875 L 289.515625 383.675781 L 288.6875 385.296875 L 287.402344 386.582031 L 285.78125 387.40625 L 283.984375 387.691406 L 282.1875 387.40625 L 280.566406 386.582031 L 279.28125 385.296875 L 278.453125 383.675781 L 278.167969 381.875 L 278.453125 380.078125 L 279.28125 378.457031 L 280.566406 377.171875 L 282.1875 376.347656 L 283.984375 376.0625 L 285.78125 376.347656 L 287.402344 377.171875 L 288.6875 378.457031 L 289.515625 380.078125 Z M 289.800781 381.875 "/>
<path style=" stroke:none;fill-rule:nonzero;fill:rgb(80.392157%,58.431373%,4.705882%);fill-opacity:1;" d="M 266.539063 354.738281 L 266.253906 356.535156 L 265.429688 358.15625 L 264.140625 359.441406 L 262.519531 360.269531 L 260.722656 360.554688 L 258.925781 360.269531 L 257.304688 359.441406 L 256.019531 358.15625 L 255.191406 356.535156 L 254.90625 354.738281 L 255.191406 352.941406 L 256.019531 351.320313 L 257.304688 350.035156 L 258.925781 349.207031 L 260.722656 348.921875 L 262.519531 349.207031 L 264.140625 350.035156 L 265.214844 351.109375 L 266.253906 352.941406 Z M 266.539063 354.738281 "/>
<path style=" stroke:none;fill-rule:nonzero;fill:rgb(80.392157%,58.431373%,4.705882%);fill-opacity:1;" d="M 189 288.832031 L 188.714844 290.628906 L 187.890625 292.25 L 186.601563 293.535156 L 184.980469 294.363281 L 183.183594 294.644531 L 181.386719 294.363281 L 179.765625 293.535156 L 178.480469 292.25 L 177.652344 290.628906 L 177.371094 288.832031 L 177.652344 287.035156 L 178.128906 286.097656 L 178.757813 285.980469 L 180.191406 286.804688 L 182.933594 286.238281 L 183.03125 285.160156 L 182.34375 284.746094 L 180.035156 285.351563 L 178.636719 285.257813 L 179.765625 284.125 L 181.386719 283.300781 L 183.183594 283.015625 L 184.980469 283.300781 L 186.601563 284.125 L 187.890625 285.414063 L 188.714844 287.035156 Z M 189 288.832031 "/>
<path style=" stroke:none;fill-rule:nonzero;fill:rgb(80.392157%,58.431373%,4.705882%);fill-opacity:1;" d="M 182.046875 221.859375 L 181.53125 220.84375 L 181.246094 219.046875 L 181.53125 217.25 L 182.355469 215.628906 L 183.644531 214.339844 L 185.265625 213.515625 L 187.0625 213.230469 L 188.859375 213.515625 L 190.480469 214.339844 L 191.765625 215.628906 L 192.59375 217.25 L 192.78125 218.449219 L 191.214844 219.742188 L 185.519531 221.085938 L 182.847656 221.226563 Z M 188.9375 224.535156 L 187.0625 224.863281 L 185.265625 224.578125 L 183.375 223.484375 L 184.609375 222.886719 L 186.457031 221.386719 L 187.289063 221.316406 L 189.085938 221.875 L 189.332031 222.921875 Z M 188.9375 224.535156 "/>
<path style=" stroke:none;fill-rule:nonzero;fill:rgb(80.392157%,58.431373%,4.705882%);fill-opacity:1;" d="M 189 350.863281 L 188.714844 352.660156 L 187.890625 354.28125 L 185.78125 355.984375 L 183.8125 354.640625 L 179.976563 346.332031 L 181.386719 345.332031 L 183.183594 345.046875 L 184.980469 345.332031 L 186.601563 346.15625 L 187.890625 347.441406 L 188.714844 349.066406 Z M 183.964844 356.554688 L 181.386719 356.390625 L 179.765625 355.566406 L 178.480469 354.28125 L 177.925781 353.1875 L 178.242188 352.835938 L 180.867188 352.449219 L 181.503906 352.695313 L 181.914063 353.875 L 182.898438 354.332031 Z M 183.964844 356.554688 "/>
<path style=" stroke:none;fill-rule:nonzero;fill:rgb(80.392157%,58.431373%,4.705882%);fill-opacity:1;" d="M 210.738281 253.894531 L 209.863281 254.765625 L 208.242188 255.59375 L 206.445313 255.875 L 204.648438 255.59375 L 203.027344 254.765625 L 201.742188 253.480469 L 200.914063 251.859375 L 200.628906 250.0625 L 200.914063 248.265625 L 201.742188 246.644531 L 203.582031 245.074219 L 206.488281 246.65625 L 208.910156 251.429688 Z M 210.738281 253.894531 "/>
<path style=" stroke:none;fill-rule:nonzero;fill:rgb(80.392157%,58.431373%,4.705882%);fill-opacity:1;" d="M 106.714844 146.523438 L 104.816406 144.925781 L 103.992188 143.304688 L 103.707031 141.507813 L 103.992188 139.710938 L 104.816406 138.089844 L 106.105469 136.804688 L 107.726563 135.976563 L 109.523438 135.691406 L 111.320313 135.976563 L 112.800781 136.730469 L 112.328125 137.878906 L 110.105469 140.078125 L 109.925781 141.289063 L 111.058594 141.910156 L 112.367188 141.523438 L 113.644531 140.4375 L 114.097656 140.800781 L 113.746094 142.269531 L 112.140625 143.671875 L 111.234375 143.917969 L 109.761719 143.558594 L 108.839844 144.542969 L 108.40625 145.765625 Z M 108.082031 147.09375 L 107.539063 146.941406 L 108.015625 146.824219 Z M 108.082031 147.09375 "/>
<path style=" stroke:none;fill-rule:nonzero;fill:rgb(80.392157%,58.431373%,4.705882%);fill-opacity:1;" d="M 224.925781 289.886719 L 223.75 290.484375 L 221.953125 290.769531 L 220.15625 290.484375 L 218.535156 289.660156 L 217.25 288.371094 L 216.421875 286.75 L 216.136719 284.953125 L 216.421875 283.15625 L 217.25 281.535156 L 218.535156 280.25 L 220.925781 279.300781 L 222.984375 284.039063 L 223.773438 285.027344 Z M 224.925781 289.886719 "/>
<path style=" stroke:none;fill-rule:nonzero;fill:rgb(80.392157%,58.431373%,4.705882%);fill-opacity:1;" d="M 154.109375 482.675781 L 153.824219 484.472656 L 153.117188 485.855469 L 152.417969 486.300781 L 151.738281 486.164063 L 148.46875 482.535156 L 142.535156 483.046875 L 142.476563 482.675781 L 142.761719 480.878906 L 143.585938 479.257813 L 144.875 477.972656 L 146.496094 477.144531 L 148.292969 476.863281 L 150.089844 477.144531 L 151.710938 477.972656 L 152.996094 479.257813 L 153.824219 480.878906 Z M 154.109375 482.675781 "/>
<path style=" stroke:none;fill-rule:nonzero;fill:rgb(80.392157%,58.431373%,4.705882%);fill-opacity:1;" d="M 139.410156 322.675781 L 138.882813 321.644531 L 138.640625 320.097656 L 139.816406 316.644531 L 142.300781 315.023438 L 142.671875 314.308594 L 144.414063 314.03125 L 146.210938 314.316406 L 147.832031 315.140625 L 148.847656 316.15625 L 147.847656 318.148438 L 145.3125 320.636719 L 141.859375 323.019531 L 139.824219 322.464844 Z M 139.410156 322.675781 "/>
<path style=" stroke:none;fill-rule:nonzero;fill:rgb(80.392157%,58.431373%,4.705882%);fill-opacity:1;" d="M 150.996094 289.964844 L 152.628906 288.003906 L 154.25 287.175781 L 156.046875 286.890625 L 157.84375 287.175781 L 159.464844 288.003906 L 160.75 289.289063 L 161.578125 290.910156 L 161.738281 291.917969 L 159.410156 293.515625 L 156.15625 293.3125 L 155.160156 292.984375 Z M 150.996094 289.964844 "/>
<path style=" stroke:none;fill-rule:nonzero;fill:rgb(80.392157%,58.431373%,4.705882%);fill-opacity:1;" d="M 269.183594 360.441406 L 266.679688 360.269531 L 265.058594 359.441406 L 263.773438 358.15625 L 262.945313 356.535156 L 262.660156 354.738281 L 262.945313 352.941406 L 263.773438 351.320313 L 264.6875 350.40625 L 266.046875 352.214844 L 268.980469 359.304688 Z M 269.183594 360.441406 "/>
<path style=" stroke:none;fill-rule:nonzero;fill:rgb(80.392157%,58.431373%,4.705882%);fill-opacity:1;" d="M 136.210938 448.453125 L 135.929688 448.140625 L 136.109375 446.949219 L 136.398438 446.875 L 136.6875 448.207031 Z M 136.210938 448.453125 "/>
<path style=" stroke:none;fill-rule:nonzero;fill:rgb(80.392157%,58.431373%,4.705882%);fill-opacity:1;" d="M 88.429688 500.046875 L 88.566406 499.308594 L 88.941406 499.117188 L 89.34375 499.789063 Z M 88.429688 500.046875 "/>
</g>
</svg>
