<?xml version="1.0" encoding="UTF-8"?>
<svg xmlns="http://www.w3.org/2000/svg" xmlns:xlink="http://www.w3.org/1999/xlink" width="378pt" height="504pt" viewBox="0 0 378 504" version="1.1">
<g id="data">
<rect x="0" y="0" width="378" height="504" style="fill:rgb(100%,100%,100%);fill-opacity:1;stroke:none;"/>
<path style=" stroke:none;fill-rule:nonzero;fill:rgb(100%,100%,100%);fill-opacity:1;" d="M 53.308594 504 L 324.691406 504 L 324.691406 0 L 53.308594 0 Z M 53.308594 504 "/>
<path style=" stroke:none;fill-rule:nonzero;fill:rgb(22.745098%,53.333333%,16.078431%);fill-opacity:1;" d="M 264.527344 413.414063 L 263.304688 414.226563 L 261.722656 415.011719 L 260.242188 416.183594 L 258.574219 417.109375 L 256.695313 417.441406 L 254.808594 417.152344 L 253.117188 416.265625 L 251.671875 415.167969 L 250.582031 414.65625 L 249.410156 414.382813 L 247.597656 414.339844 L 245.886719 414.042969 L 244.335938 413.25 L 243.089844 412.035156 L 242.261719 410.503906 L 241.921875 408.796875 L 242.101563 407.066406 L 242.785156 405.46875 L 243.910156 404.140625 L 245.378906 403.207031 L 247.175781 402.414063 L 248.382813 401.496094 L 249.761719 399.933594 L 250.796875 397.902344 L 251.96875 396.332031 L 253.59375 395.242188 L 255.488281 394.75 L 257.4375 394.914063 L 259.1875 395.367188 L 260.992188 395.453125 L 262.878906 395.859375 L 264.527344 396.863281 L 266.679688 398.726563 L 269.195313 399.761719 L 270.660156 400.640625 L 271.808594 401.90625 L 272.539063 403.449219 L 272.789063 405.136719 L 272.539063 406.828125 L 271.808594 408.371094 L 270.660156 409.636719 L 269.195313 410.515625 L 266.679688 411.550781 Z M 236.011719 457.292969 L 234.324219 456.558594 L 232.953125 455.332031 L 232.03125 453.742188 L 231.652344 451.941406 L 231.855469 450.113281 L 232.617188 448.441406 L 233.867188 447.089844 L 235.53125 445.78125 L 237.042969 443.929688 L 238.425781 442.699219 L 240.128906 441.96875 L 241.042969 441.886719 L 240.328125 440.910156 L 239.757813 439.101563 L 239.457031 436.96875 L 239.492188 435.125 L 240.101563 433.382813 L 241.226563 431.921875 L 242.75 430.886719 L 244.523438 430.378906 L 248.558594 429.898438 L 250.492188 429.992188 L 252.289063 430.714844 L 253.746094 431.984375 L 254.707031 433.664063 L 255.066406 435.566406 L 254.777344 437.480469 L 254.617188 437.964844 L 253.632813 439.785156 L 252.070313 441.148438 L 248.496094 443.28125 L 246.726563 443.972656 L 246.019531 444.003906 L 246.542969 444.628906 L 247.226563 446.351563 L 247.855469 449.210938 L 249.402344 451.695313 L 250.089844 453.300781 L 250.269531 455.039063 L 249.925781 456.75 L 249.089844 458.285156 L 247.835938 459.5 L 246.273438 460.289063 L 244.550781 460.578125 L 242.820313 460.34375 L 241.238281 459.601563 L 238.878906 458.03125 Z M 208.785156 407.261719 L 208.394531 405.46875 L 208.578125 403.644531 L 209.324219 401.964844 L 210.558594 400.605469 L 212.152344 399.695313 L 213.949219 399.328125 L 215.773438 399.539063 L 217.441406 400.308594 L 218.785156 401.558594 L 220.433594 403.671875 L 221.292969 405.203125 L 221.65625 406.925781 L 221.488281 408.671875 L 220.804688 410.292969 L 219.671875 411.632813 L 218.1875 412.574219 L 216.488281 413.03125 L 214.734375 412.957031 L 213.078125 412.363281 L 212.039063 411.800781 L 210.453125 410.539063 L 209.394531 408.8125 Z M 208.785156 407.261719 "/>
<path style=" stroke:none;fill-rule:nonzero;fill:rgb(80.392157%,58.431373%,4.705882%);fill-opacity:1;" d="M 223.890625 378 L 223.609375 379.796875 L 222.78125 381.417969 L 221.496094 382.703125 L 219.875 383.53125 L 218.078125 383.816406 L 216.28125 383.53125 L 214.660156 382.703125 L 213.371094 381.417969 L 212.546875 379.796875 L 212.261719 378 L 212.546875 376.203125 L 213.371094 374.582031 L 214.660156 373.296875 L 216.28125 372.46875 L 218.078125 372.183594 L 219.875 372.46875 L 221.496094 373.296875 L 222.78125 374.582031 L 223.609375 376.203125 Z M 223.890625 378 "/>
<path style=" stroke:none;fill-rule:nonzero;fill:rgb(80.392157%,58.431373%,4.705882%);fill-opacity:1;" d="M 200.628906 339.230469 L 200.347656 341.027344 L 199.519531 342.648438 L 198.234375 343.933594 L 196.613281 344.761719 L 194.816406 345.046875 L 193.019531 344.761719 L 191.398438 343.933594 L 190.109375 342.648438 L 189.285156 341.027344 L 189 339.230469 L 189.285156 337.433594 L 190.109375 335.8125 L 191.398438 334.527344 L 193.019531 333.699219 L 194.816406 333.414063 L 196.613281 333.699219 L 198.234375 334.527344 L 199.519531 335.8125 L 200.347656 337.433594 Z M 200.628906 339.230469 "/>
<path style=" stroke:none;fill-rule:nonzero;fill:rgb(80.392157%,58.431373%,4.705882%);fill-opacity:1;" d="M 227.769531 335.355469 L 227.484375 337.152344 L 226.660156 338.773438 L 225.371094 340.058594 L 223.75 340.882813 L 221.953125 341.167969 L 220.15625 340.882813 L 218.535156 340.058594 L 217.25 338.773438 L 216.421875 337.152344 L 216.136719 335.355469 L 216.421875 333.558594 L 217.25 331.9375 L 218.535156 330.648438 L 220.15625 329.824219 L 221.953125 329.539063 L 223.75 329.824219 L 225.371094 330.648438 L 226.660156 331.9375 L 227.484375 333.558594 Z M 227.769531 335.355469 "/>
<path style=" stroke:none;fill-rule:nonzero;fill:rgb(80.392157%,58.431373%,4.705882%);fill-opacity:1;" d="M 251.03125 381.875 L 250.746094 383.675781 L 249.921875 385.296875 L 248.632813 386.582031 L 247.011719 387.40625 L 245.214844 387.691406 L 243.417969 387.40625 L 241.796875 386.582031 L 240.511719 385.296875 L 239.683594 383.675781 L 239.398438 381.875 L 239.683594 380.078125 L 240.511719 378.457031 L 241.796875 377.171875 L 243.417969 376.347656 L 245.214844 376.0625 L 247.011719 376.347656 L 248.632813 377.171875 L 249.921875 378.457031 L 250.746094 380.078125 Z M 251.03125 381.875 "/>
<path style=" stroke:none;fill-rule:nonzero;fill:rgb(80.392157%,58.431373%,4.705882%);fill-opacity:1;" d="M 204.507813 343.109375 L 204.222656 344.90625 L 203.398438 346.527344 L 202.109375 347.8125 L 200.488281 348.636719 L 198.691406 348.921875 L 196.894531 348.636719 L 195.273438 347.8125 L 193.988281 346.527344 L 193.160156 344.90625 L 192.875 343.109375 L 193.160156 341.3125 L 193.988281 339.691406 L 195.273438 338.402344 L 196.894531 337.578125 L 198.691406 337.292969 L 200.488281 337.578125 L 202.109375 338.402344 L 203.398438 339.691406 L 204.222656 341.3125 Z M 204.507813 343.109375 "/>
<path style=" stroke:none;fill-rule:nonzero;fill:rgb(80.392157%,58.431373%,4.705882%);fill-opacity:1;" d="M 227.769531 319.847656 L 227.484375 321.644531 L 226.660156 323.265625 L 225.371094 324.550781 L 223.75 325.375 L 221.953125 325.660156 L 220.15625 325.375 L 218.535156 324.550781 L 217.25 323.265625 L 216.421875 321.644531 L 216.136719 319.847656 L 216.421875 318.050781 L 217.25 316.429688 L 218.535156 315.140625 L 220.15625 314.316406 L 221.953125 314.03125 L 223.75 314.316406 L 225.371094 315.140625 L 226.660156 316.429688 L 227.484375 318.050781 Z M 227.769531 319.847656 "/>
<path style=" stroke:none;fill-rule:nonzero;fill:rgb(80.392157%,58.431373%,4.705882%);fill-opacity:1;" d="M 208.382813 350.863281 L 208.101563 352.660156 L 207.273438 354.28125 L 205.988281 355.566406 L 204.367188 356.390625 L 202.570313 356.675781 L 200.773438 356.390625 L 199.152344 355.566406 L 197.863281 354.28125 L 197.039063 352.660156 L 196.753906 350.863281 L 197.039063 349.066406 L 197.863281 347.441406 L 199.152344 346.15625 L 200.773438 345.332031 L 202.570313 345.046875 L 204.367188 345.332031 L 205.988281 346.15625 L 207.273438 347.441406 L 208.101563 349.066406 Z M 208.382813 350.863281 "/>
<path style=" stroke:none;fill-rule:nonzero;fill:rgb(80.392157%,58.431373%,4.705882%);fill-opacity:1;" d="M 254.90625 385.753906 L 254.625 387.550781 L 253.796875 389.171875 L 252.511719 390.457031 L 250.890625 391.285156 L 249.09375 391.570313 L 247.296875 391.285156 L 245.675781 390.457031 L 244.386719 389.171875 L 243.5625 387.550781 L 243.277344 385.753906 L 243.5625 383.957031 L 244.386719 382.335938 L 245.675781 381.050781 L 247.296875 380.222656 L 249.09375 379.9375 L 250.890625 380.222656 L 252.511719 381.050781 L 253.796875 382.335938 L 254.625 383.957031 Z M 254.90625 385.753906 "/>
<path style=" stroke:none;fill-rule:nonzero;fill:rgb(80.392157%,58.431373%,4.705882%);fill-opacity:1;" d="M 192.875 412.890625 L 192.59375 414.6875 L 191.765625 416.308594 L 190.480469 417.597656 L 188.859375 418.421875 L 187.0625 418.707031 L 185.265625 418.421875 L 183.644531 417.597656 L 182.355469 416.308594 L 181.53125 414.6875 L 181.246094 412.890625 L 181.53125 411.09375 L 182.355469 409.472656 L 183.644531 408.1875 L 185.265625 407.363281 L 187.0625 407.078125 L 188.859375 407.363281 L 190.480469 408.1875 L 191.765625 409.472656 L 192.59375 411.09375 Z M 192.875 412.890625 "/>
<path style=" stroke:none;fill-rule:nonzero;fill:rgb(80.392157%,58.431373%,4.705882%);fill-opacity:1;" d="M 223.890625 428.398438 L 223.609375 430.195313 L 222.78125 431.816406 L 221.496094 433.105469 L 219.875 433.929688 L 218.078125 434.214844 L 216.28125 433.929688 L 214.660156 433.105469 L 213.371094 431.816406 L 212.546875 430.195313 L 212.261719 428.398438 L 212.546875 426.601563 L 213.371094 424.980469 L 214.660156 423.695313 L 216.28125 422.871094 L 218.078125 422.585938 L 219.875 422.871094 L 221.496094 423.695313 L 222.78125 424.980469 L 223.609375 426.601563 Z M 223.890625 428.398438 "/>
<path style=" stroke:none;fill-rule:nonzero;fill:rgb(80.392157%,58.431373%,4.705882%);fill-opacity:1;" d="M 204.507813 257.816406 L 204.222656 259.613281 L 203.398438 261.234375 L 202.109375 262.519531 L 200.488281 263.347656 L 198.691406 263.628906 L 196.894531 263.347656 L 195.273438 262.519531 L 193.988281 261.234375 L 193.160156 259.613281 L 192.875 257.816406 L 193.160156 256.019531 L 193.988281 254.398438 L 195.273438 253.109375 L 196.894531 252.285156 L 198.691406 252 L 200.488281 252.285156 L 202.109375 253.109375 L 203.398438 254.398438 L 204.222656 256.019531 Z M 204.507813 257.816406 "/>
<path style=" stroke:none;fill-rule:nonzero;fill:rgb(80.392157%,58.431373%,4.705882%);fill-opacity:1;" d="M 289.800781 405.136719 L 289.515625 406.933594 L 288.6875 408.558594 L 287.402344 409.84375 L 285.78125 410.667969 L 283.984375 410.953125 L 282.1875 410.667969 L 280.566406 409.84375 L 279.28125 408.558594 L 278.453125 406.933594 L 278.167969 405.136719 L 278.453125 403.339844 L 279.28125 401.71875 L 280.566406 400.433594 L 282.1875 399.609375 L 283.984375 399.324219 L 285.78125 399.609375 L 287.402344 400.433594 L 288.6875 401.71875 L 289.515625 403.339844 Z M 289.800781 405.136719 "/>
<path style=" stroke:none;fill-rule:nonzero;fill:rgb(80.392157%,58.431373%,4.705882%);fill-opacity:1;" d="M 300.695313 446.59375 L 300.320313 447.324219 L 299.035156 448.613281 L 297.414063 449.4375 L 295.617188 449.722656 L 293.816406 449.4375 L 292.195313 448.613281 L 290.910156 447.324219 L 290.085938 445.703125 L 289.800781 443.90625 L 290.085938 442.109375 L 290.910156 440.488281 L 292.195313 439.203125 L 293.28125 438.652344 L 296.414063 438.21875 L 297.414063 438.375 L 299.035156 439.203125 L 300.320313 440.488281 L 300.933594 441.695313 L 300.773438 446.324219 Z M 300.695313 446.59375 "/>
<path style=" stroke:none;fill-rule:nonzero;fill:rgb(80.392157%,58.431373%,4.705882%);fill-opacity:1;" d="M 204.507813 420.644531 L 204.222656 422.441406 L 203.398438 424.0625 L 202.109375 425.351563 L 200.488281 426.175781 L 198.691406 426.460938 L 196.894531 426.175781 L 195.632813 425.535156 L 195.792969 425.3125 L 197.929688 424.472656 L 198.285156 423.78125 L 198.070313 423.238281 L 197.8125 423.082031 L 196.09375 424.355469 L 195.152344 425.226563 L 193.988281 424.0625 L 193.160156 422.441406 L 192.875 420.644531 L 193.160156 418.847656 L 193.988281 417.226563 L 195.273438 415.941406 L 196.894531 415.117188 L 198.691406 414.832031 L 200.488281 415.117188 L 202.109375 415.941406 L 203.398438 417.226563 L 204.222656 418.847656 Z M 204.507813 420.644531 "/>
<path style=" stroke:none;fill-rule:nonzero;fill:rgb(80.392157%,58.431373%,4.705882%);fill-opacity:1;" d="M 282.046875 378 L 281.761719 379.796875 L 280.933594 381.417969 L 279.648438 382.703125 L 278.027344 383.53125 L 276.230469 383.816406 L 274.433594 383.53125 L 272.8125 382.703125 L 271.527344 381.417969 L 270.699219 379.796875 L 270.535156 378.757813 L 270.625 378.746094 L 271.910156 376.796875 L 272.234375 374.960938 L 272.886719 373.257813 L 274.433594 372.46875 L 276.230469 372.183594 L 278.027344 372.46875 L 279.648438 373.296875 L 280.933594 374.582031 L 281.761719 376.203125 Z M 282.046875 378 "/>
<path style=" stroke:none;fill-rule:nonzero;fill:rgb(80.392157%,58.431373%,4.705882%);fill-opacity:1;" d="M 161.863281 288.832031 L 161.578125 290.628906 L 160.75 292.25 L 159.652344 293.347656 L 159.410156 293.515625 L 156.15625 293.3125 L 155.160156 292.984375 L 150.335938 289.484375 L 150.230469 288.832031 L 150.515625 287.035156 L 151.339844 285.414063 L 152.628906 284.125 L 154.25 283.300781 L 156.046875 283.015625 L 157.84375 283.300781 L 159.464844 284.125 L 160.75 285.414063 L 161.578125 287.035156 Z M 161.863281 288.832031 "/>
<path style=" stroke:none;fill-rule:nonzero;fill:rgb(80.392157%,58.431373%,4.705882%);fill-opacity:1;" d="M 173.492188 436.152344 L 173.207031 437.949219 L 172.382813 439.570313 L 172.074219 439.878906 L 170.558594 439.851563 L 166.820313 439 L 166.347656 438.652344 L 162.199219 434.253906 L 162.972656 432.734375 L 164.257813 431.449219 L 165.878906 430.625 L 167.675781 430.339844 L 169.472656 430.625 L 171.09375 431.449219 L 172.382813 432.734375 L 173.207031 434.355469 Z M 173.492188 436.152344 "/>
<path style=" stroke:none;fill-rule:nonzero;fill:rgb(80.392157%,58.431373%,4.705882%);fill-opacity:1;" d="M 181.246094 315.96875 L 180.960938 317.765625 L 180.136719 319.386719 L 178.847656 320.675781 L 177.226563 321.5 L 176.699219 321.582031 L 172.851563 314.925781 L 172.289063 311.832031 L 171.945313 311.332031 L 172.011719 311.265625 L 173.632813 310.4375 L 175.429688 310.152344 L 177.226563 310.4375 L 178.847656 311.265625 L 180.136719 312.550781 L 180.960938 314.171875 Z M 181.246094 315.96875 "/>
<path style=" stroke:none;fill-rule:nonzero;fill:rgb(80.392157%,58.431373%,4.705882%);fill-opacity:1;" d="M 177.371094 308.214844 L 177.085938 310.011719 L 176.257813 311.632813 L 174.972656 312.921875 L 173.351563 313.746094 L 172.65625 313.855469 L 172.289063 311.832031 L 167.40625 304.652344 L 167.59375 304.050781 L 168.136719 303.511719 L 169.757813 302.683594 L 171.554688 302.398438 L 173.351563 302.683594 L 174.972656 303.511719 L 176.257813 304.796875 L 177.085938 306.417969 Z M 177.371094 308.214844 "/>
<path style=" stroke:none;fill-rule:nonzero;fill:rgb(80.392157%,58.431373%,4.705882%);fill-opacity:1;" d="M 300.914063 442.285156 L 300.320313 443.449219 L 299.035156 444.734375 L 297.414063 445.5625 L 295.617188 445.847656 L 293.816406 445.5625 L 292.195313 444.734375 L 290.910156 443.449219 L 290.085938 441.828125 L 289.800781 440.03125 L 289.859375 439.664063 L 291.074219 438.957031 L 299.742188 437.757813 L 300.988281 440.148438 Z M 300.914063 442.285156 "/>
<path style=" stroke:none;fill-rule:nonzero;fill:rgb(80.392157%,58.431373%,4.705882%);fill-opacity:1;" d="M 181.246094 288.832031 L 180.960938 290.628906 L 180.136719 292.25 L 178.847656 293.535156 L 177.226563 294.363281 L 175.429688 294.644531 L 173.632813 294.363281 L 172.011719 293.535156 L 171.859375 293.382813 L 174.074219 288.722656 L 176.464844 286.417969 L 178.757813 285.980469 L 180.191406 286.804688 L 180.808594 286.734375 L 180.960938 287.035156 Z M 171.902344 284.238281 L 172.011719 284.125 L 173.632813 283.300781 L 175.429688 283.015625 L 177.226563 283.300781 L 178.847656 284.125 L 180.066406 285.34375 L 180.035156 285.351563 L 174.65625 284.980469 L 172.566406 284.292969 Z M 171.902344 284.238281 "/>
<path style=" stroke:none;fill-rule:nonzero;fill:rgb(80.392157%,58.431373%,4.705882%);fill-opacity:1;" d="M 154.109375 482.675781 L 153.824219 484.472656 L 153.117188 485.855469 L 152.417969 486.300781 L 151.738281 486.164063 L 148.46875 482.535156 L 142.796875 482.960938 L 142.535156 483.046875 L 142.476563 482.675781 L 142.761719 480.878906 L 143.585938 479.257813 L 144.875 477.972656 L 146.496094 477.144531 L 148.292969 476.863281 L 150.089844 477.144531 L 151.710938 477.972656 L 152.996094 479.257813 L 153.824219 480.878906 Z M 154.109375 482.675781 "/>
<path style=" stroke:none;fill-rule:nonzero;fill:rgb(80.392157%,58.431373%,4.705882%);fill-opacity:1;" d="M 169.617188 358.617188 L 169.332031 360.414063 L 168.503906 362.035156 L 167.21875 363.320313 L 165.597656 364.144531 L 163.800781 364.429688 L 162.003906 364.144531 L 160.382813 363.320313 L 159.09375 362.035156 L 158.269531 360.414063 L 157.984375 358.617188 L 158 358.511719 L 160.492188 357.457031 L 163.644531 357.28125 L 167.339844 357.714844 L 169.304688 356.765625 L 169.332031 356.816406 Z M 169.617188 358.617188 "/>
<path style=" stroke:none;fill-rule:nonzero;fill:rgb(80.392157%,58.431373%,4.705882%);fill-opacity:1;" d="M 231.644531 471.046875 L 231.363281 472.84375 L 230.871094 473.808594 L 229.960938 474.269531 L 228.117188 474.644531 L 222.296875 470.886719 L 220.207031 471.1875 L 221.476563 469.683594 L 227.316406 466.367188 L 229.984375 467.078125 L 230.535156 467.628906 L 231.363281 469.25 Z M 221.011719 467.847656 L 221.125 467.628906 L 222.414063 466.339844 L 224.035156 465.515625 L 225.832031 465.230469 L 227.628906 465.515625 L 227.835938 465.621094 L 226.691406 465.496094 Z M 221.011719 467.847656 "/>
<path style=" stroke:none;fill-rule:nonzero;fill:rgb(80.392157%,58.431373%,4.705882%);fill-opacity:1;" d="M 265.003906 350.828125 L 264.140625 351.6875 L 262.519531 352.515625 L 260.722656 352.800781 L 258.925781 352.515625 L 257.304688 351.6875 L 256.019531 350.402344 L 255.191406 348.78125 L 254.90625 346.984375 L 255.191406 345.1875 L 255.898438 343.804688 L 260.535156 347.621094 L 263.042969 349.058594 L 263.664063 349.039063 Z M 257.101563 342.480469 L 257.304688 342.28125 L 258.925781 341.453125 L 260.722656 341.167969 L 262.519531 341.453125 L 262.632813 341.511719 L 263.316406 342.46875 L 263.640625 343.980469 L 262.804688 345.191406 L 263.28125 343.65625 L 262.507813 342.839844 L 260.445313 342 L 258.378906 342.789063 L 257.507813 342.753906 Z M 257.101563 342.480469 "/>
<path style=" stroke:none;fill-rule:nonzero;fill:rgb(80.392157%,58.431373%,4.705882%);fill-opacity:1;" d="M 305.359375 398.992188 L 303.828125 398.210938 L 302.542969 396.925781 L 301.714844 395.304688 L 301.429688 393.507813 L 301.714844 391.710938 L 302.542969 390.089844 L 303.828125 388.804688 L 305.449219 387.976563 L 306.957031 387.738281 L 307.179688 391.25 L 306.777344 393.191406 L 306.890625 393.976563 L 305.789063 396.917969 Z M 305.359375 398.992188 "/>
<path style=" stroke:none;fill-rule:nonzero;fill:rgb(80.392157%,58.431373%,4.705882%);fill-opacity:1;" d="M 197.75 100.652344 L 196.894531 100.515625 L 195.273438 99.6875 L 194.96875 99.386719 L 195.332031 98.847656 L 196.15625 98.316406 L 199.542969 97.917969 L 199.804688 99.347656 Z M 197.75 100.652344 "/>
</g>
</svg>
