<?xml version="1.0" encoding="UTF-8"?>
<svg xmlns="http://www.w3.org/2000/svg" xmlns:xlink="http://www.w3.org/1999/xlink" width="378pt" height="504pt" viewBox="0 0 378 504" version="1.1">
<g id="data">
<rect x="0" y="0" width="378" height="504" style="fill:rgb(100%,100%,100%);fill-opacity:1;stroke:none;"/>
<path style=" stroke:none;fill-rule:nonzero;fill:rgb(100%,100%,100%);fill-opacity:1;" d="M 53.308594 504 L 324.691406 504 L 324.691406 0 L 53.308594 0 Z M 53.308594 504 "/>
<path style=" stroke:none;fill-rule:nonzero;fill:rgb(22.745098%,53.333333%,16.078431%);fill-opacity:1;" d="M 303.371094 397.382813 L 305.824219 394.324219 L 307.121094 390.621094 L 307.136719 391.457031 L 306.777344 393.191406 L 306.890625 393.976563 L 305.789063 396.917969 L 305.679688 397.441406 L 305.089844 397.460938 L 302.980469 397.933594 Z M 260.605469 347.660156 L 260.058594 350.863281 L 260.722656 354.738281 L 259.171875 356.941406 L 258.136719 359.566406 L 257.765625 362.234375 L 258.015625 364.917969 L 259.234375 368.15625 L 260.722656 370.246094 L 261.882813 372.609375 L 261.394531 373.164063 L 260.601563 374.816406 L 262.84375 374.3125 L 263.300781 374.574219 L 260.507813 375.09375 L 257.722656 376.421875 L 255.472656 378.335938 L 253.777344 380.753906 L 252.773438 383.398438 L 252.441406 386.207031 L 253.160156 391.027344 L 253.785156 393.113281 L 255.792969 396.378906 L 258.636719 398.75 L 262.085938 400.109375 L 265.785156 400.3125 L 269.707031 399.179688 L 273.378906 396.617188 L 275.738281 393.933594 L 277.136719 390.78125 L 280.109375 393.507813 L 281.996094 395.855469 L 283.984375 397.382813 L 285.621094 399.347656 L 287.980469 401.097656 L 290.210938 402.058594 L 292.59375 402.535156 L 294.894531 402.523438 L 297.269531 402.015625 L 295.867188 404.457031 L 295.089844 407.164063 L 294.984375 409.976563 L 295.402344 411.917969 L 295.039063 411.726563 L 294.351563 410.34375 L 292.628906 408.292969 L 290.371094 406.628906 L 287.902344 405.585938 L 281.609375 404.566406 L 279.425781 404.484375 L 276.402344 405.066406 L 273.742188 406.351563 L 271.070313 408.75 L 269.308594 411.730469 L 268.59375 414.332031 L 267.816406 421.199219 L 268.773438 425.3125 L 271.136719 428.816406 L 273.128906 430.4375 L 275.308594 431.539063 L 277.667969 432.160156 L 279.390625 432.242188 L 274.75 433.78125 L 272.609375 436.117188 L 274.253906 436.015625 L 275.152344 434.667969 L 276.683594 434.363281 L 278.285156 434.328125 L 281.054688 434.949219 L 281.472656 435.296875 L 281.789063 435.8125 L 281.691406 436.328125 L 279.554688 436.347656 L 277.390625 437.65625 L 277.96875 438.546875 L 281.382813 438.964844 L 286.863281 440.339844 L 287.640625 440.214844 L 287.917969 440.339844 L 290.699219 440.832031 L 293.265625 440.6875 L 295.617188 440.03125 L 299.492188 440.03125 L 299.492188 447.785156 L 297.71875 446.160156 L 295.53125 444.878906 L 289.261719 443.230469 L 285.039063 443.34375 L 281.242188 444.886719 L 279.234375 446.488281 L 277.699219 448.386719 L 275.09375 454.375 L 274.703125 456.644531 L 274.765625 458.949219 L 275.28125 461.191406 L 275.882813 462.527344 L 274.789063 462.777344 L 272.597656 463.816406 L 272.15625 464.414063 L 271.980469 464.480469 L 270.050781 465.695313 L 268.96875 466.710938 L 267.410156 466.238281 L 265.695313 464.742188 L 262.417969 463.339844 L 259.632813 462.976563 L 256.847656 463.292969 L 252.96875 462.628906 L 249.09375 463.292969 L 246.902344 461.371094 L 244.1875 460.015625 L 239.21875 458.878906 L 236.269531 458.804688 L 234 459.265625 L 231.984375 460.105469 L 230.160156 461.304688 L 228.589844 462.828125 L 227.335938 464.617188 L 226.925781 465.523438 L 226.691406 465.496094 L 219.566406 468.449219 L 217.054688 467.824219 L 210.222656 468.96875 L 208.164063 468.875 L 207.273438 468.058594 L 206.238281 469.769531 L 209.429688 471.089844 L 209.714844 470.9375 L 210.1875 472.128906 L 209.566406 473.890625 L 206.84375 474.453125 L 204.453125 473.097656 L 203.015625 472.699219 L 197.625 472.007813 L 196.175781 472.65625 L 195.679688 473.863281 L 195.78125 474.523438 L 195.257813 474.742188 L 194.851563 473.972656 L 191.496094 471.484375 L 190.9375 471.046875 L 190.9375 467.167969 L 194.960938 466.089844 L 196.917969 464.917969 L 198.691406 463.292969 L 202.414063 462.375 L 205.726563 460.210938 L 207.472656 458.167969 L 208.742188 455.65625 L 209.359375 453.039063 L 209.34375 450.222656 L 208.652344 447.492188 L 207.324219 445.011719 L 205.363281 442.835938 L 203.058594 441.277344 L 200.691406 440.371094 L 197.945313 439.929688 L 190.9375 440.03125 L 188.890625 438.101563 L 186.441406 436.722656 L 186.234375 436.664063 L 190.867188 432.195313 L 195.792969 425.3125 L 197.929688 424.472656 L 198.285156 423.78125 L 198.070313 423.238281 L 197.8125 423.082031 L 196.09375 424.355469 L 192.90625 427.300781 L 190.570313 429.988281 L 189.222656 431.449219 L 187.003906 432.378906 L 188.667969 430.992188 L 190.660156 428.476563 L 191.886719 425.511719 L 192.246094 421.941406 L 191.496094 418.429688 L 189.710938 415.316406 L 187.0625 412.890625 L 190.492188 413.917969 L 194.074219 413.855469 L 197.464844 412.703125 L 200.34375 410.574219 L 202.441406 407.671875 L 203.53125 404.394531 L 203.597656 400.816406 L 202.570313 397.382813 L 205.210938 399.390625 L 208.1875 400.539063 L 211.363281 400.839844 L 214.625 400.21875 L 215.199219 404.382813 L 216.398438 406.925781 L 218.078125 409.015625 L 218.390625 411.691406 L 219.308594 414.226563 L 221.304688 417.054688 L 224.042969 419.171875 L 227.535156 420.441406 L 231.246094 420.542969 L 234.804688 419.46875 L 237.933594 417.238281 L 239.464844 415.34375 L 240.617188 413.046875 L 241.945313 406.285156 L 241.933594 403.867188 L 241.15625 399.214844 L 240.105469 396.050781 L 238.949219 394.199219 L 237.367188 392.511719 L 235.597656 391.230469 L 233.617188 390.308594 L 226.84375 389.117188 L 224.5625 389.222656 L 222.46875 389.730469 L 222.308594 387.222656 L 221.269531 382.664063 L 219.996094 380.1875 L 218.078125 378 L 221.757813 377.617188 L 225.242188 376.03125 L 227.941406 373.496094 L 229.707031 370.246094 L 232.59375 370.875 L 235.671875 370.734375 L 238.488281 369.84375 L 241.085938 368.191406 L 243.304688 365.703125 L 244.726563 362.683594 L 245.230469 359.644531 L 244.957031 355.433594 L 243.902344 352.550781 L 242.132813 350.046875 L 239.984375 348.230469 L 237.460938 346.984375 L 235.929688 344.996094 L 233.585938 343.109375 L 231.261719 340.539063 L 227.5625 338.5 L 223.378906 337.917969 L 220.714844 338.347656 L 218.109375 339.445313 L 215.941406 341.046875 L 214.199219 343.109375 L 210.640625 343.457031 L 207.359375 344.867188 L 204.496094 347.410156 L 202.570313 350.863281 L 199.558594 348.910156 L 196.097656 347.972656 L 192.515625 348.128906 L 189.152344 349.371094 L 185.164063 352.304688 L 183.582031 354.148438 L 182.367188 351.515625 L 183.183594 350.863281 L 186.972656 350.226563 L 190.246094 348.472656 L 192.183594 346.597656 L 193.582031 344.441406 L 194.503906 341.910156 L 194.816406 339.230469 L 198.273438 340.546875 L 202.101563 340.695313 L 204.347656 340.179688 L 206.445313 339.230469 L 209.414063 338.589844 L 212.527344 336.902344 L 216.457031 333.558594 L 220.4375 328.804688 L 221.476563 326.753906 L 222.09375 324.542969 L 222.265625 322.25 L 221.953125 319.847656 L 224.125 318.140625 L 225.832031 315.96875 L 225.832031 319.847656 L 224.355469 321.625 L 223.210938 323.78125 L 222.539063 326.125 L 222.371094 328.429688 L 222.6875 330.851563 L 223.503906 333.148438 L 224.785156 335.226563 L 226.371094 336.910156 L 228.257813 338.246094 L 230.371094 339.179688 L 232.628906 339.679688 L 234.941406 339.71875 L 241.019531 338.359375 L 243.234375 337.128906 L 245.214844 335.355469 L 247.0625 338.707031 L 247.507813 339.117188 L 245.550781 339.511719 L 244.589844 338.644531 L 243.40625 338.558594 L 241.210938 339.871094 L 241.886719 340.445313 L 246.324219 340.394531 L 248.238281 339.785156 L 249.789063 341.207031 L 253.164063 342.726563 L 254.792969 342.894531 L 260.535156 347.621094 Z M 282.378906 436.582031 L 283.578125 437.890625 L 285.339844 439.1875 L 286.121094 439.535156 L 283.058594 438.976563 L 282.164063 437.605469 Z M 226.367188 466.902344 L 225.910156 468.863281 L 225.832031 471.046875 L 222.34375 469.765625 L 221.429688 469.734375 L 221.476563 469.683594 Z M 183.089844 354.726563 L 181.558594 356.511719 L 180.035156 359.285156 L 179.308594 362.492188 L 175.429688 362.492188 L 172.566406 360.011719 L 169.179688 358.617188 L 172.566406 357.21875 L 174.769531 355.3125 L 179.910156 359.441406 L 180.433594 358.429688 L 178.082031 354.1875 L 180.132813 353.3125 L 181.097656 352.539063 L 181.503906 352.695313 L 181.914063 353.875 L 182.898438 354.332031 Z M 272.355469 378 L 276.230469 378 L 275.152344 380.613281 Z M 218.078125 288.832031 L 220.246094 287.125 L 221.953125 284.953125 L 220.925781 287.390625 L 220.476563 290 Z M 190.9375 230.675781 L 191.078125 232.023438 L 190.277344 232.375 Z M 194.160156 239.171875 L 195.339844 240.460938 L 198.644531 242.28125 L 198.6875 242.3125 L 196.496094 245.910156 L 195.730469 250.0625 L 196.496094 254.210938 L 198.691406 257.816406 L 194.816406 257.148438 L 190.9375 257.816406 L 187.0625 257.816406 L 187.757813 255.210938 L 187.847656 252.640625 L 187.332031 249.996094 L 186.21875 247.539063 L 183.722656 244.617188 L 181.582031 243.191406 L 179.308594 242.308594 L 179.207031 242.179688 L 182.921875 243.167969 L 186.398438 241.730469 L 187.519531 239.417969 L 188.617188 238.355469 L 189.539063 238.171875 L 193.183594 238.5 Z M 176.433594 239.21875 L 175.429688 238.429688 L 177.058594 238.886719 Z M 168.195313 302.136719 L 168.269531 302.730469 L 169.570313 305.777344 L 167.675781 304.339844 L 167.722656 303.648438 Z M 128.90625 474.921875 L 130.902344 475.8125 L 133.027344 476.308594 L 135.210938 476.402344 L 137.496094 476.054688 L 139.550781 475.316406 L 141.433594 474.207031 L 143.074219 472.769531 L 144.414063 471.046875 L 146.683594 472.925781 L 149.351563 474.171875 L 152.25 474.707031 L 155.1875 474.5 L 157.976563 473.5625 L 160.445313 471.953125 L 162.425781 469.773438 L 163.800781 467.167969 L 167.675781 467.167969 L 167.675781 475.191406 L 167.203125 476.179688 L 165.5 481.167969 L 163.832031 480.390625 L 161.714844 479.855469 L 159.539063 479.722656 L 155.652344 480.527344 L 152.167969 482.675781 L 148.597656 482.675781 L 148.46875 482.535156 L 147.769531 482.585938 L 144.414063 482.011719 L 140.539063 482.675781 L 138.3125 482.128906 L 136.023438 482.027344 L 133.148438 482.554688 L 129.902344 484.003906 L 130.347656 481.769531 L 130.332031 479.363281 L 129.863281 477.128906 Z M 128.90625 474.921875 "/>
</g>
</svg>
