<?xml version="1.0" encoding="UTF-8"?>
<svg xmlns="http://www.w3.org/2000/svg" xmlns:xlink="http://www.w3.org/1999/xlink" width="378pt" height="504pt" viewBox="0 0 378 504" version="1.1">
<g id="data">
<rect x="0" y="0" width="378" height="504" style="fill:rgb(100%,100%,100%);fill-opacity:1;stroke:none;"/>
<path style=" stroke:none;fill-rule:nonzero;fill:rgb(100%,100%,100%);fill-opacity:1;" d="M 53.308594 504 L 324.691406 504 L 324.691406 0 L 53.308594 0 Z M 53.308594 504 "/>
<path style=" stroke:none;fill-rule:nonzero;fill:rgb(22.745098%,53.333333%,16.078431%);fill-opacity:1;" d="M 218.078125 284.953125 L 221.953125 284.953125 L 223.660156 287.125 L 224.410156 287.714844 L 225.878906 293.902344 L 226.132813 295.257813 L 227.558594 298.109375 L 229.707031 300.460938 L 226.980469 301.59375 L 224.535156 303.464844 L 222.667969 305.914063 L 221.539063 308.644531 L 221.136719 311.4375 L 221.449219 314.375 L 222.667969 317.898438 L 224.34375 320.480469 L 225.917969 322 L 227.746094 323.195313 L 229.765625 324.03125 L 231.902344 324.472656 L 234.730469 324.4375 L 237.460938 323.722656 L 241.339844 323.722656 L 244.296875 324.925781 L 247.601563 325.273438 L 250.378906 324.824219 L 252.96875 323.722656 L 251.355469 325.359375 L 250.097656 327.28125 L 249.242188 329.414063 L 248.808594 331.800781 L 249.074219 338.796875 L 245.550781 339.511719 L 244.589844 338.644531 L 243.40625 338.558594 L 241.210938 339.871094 L 241.886719 340.445313 L 246.324219 340.394531 L 249.023438 339.535156 L 248.488281 341.859375 L 248.507813 344.558594 L 249.390625 347.773438 L 251.0625 350.511719 L 253.851563 352.96875 L 257.273438 354.421875 L 264.21875 355.398438 L 266.378906 355.265625 L 267.222656 355.054688 L 268.089844 357.152344 L 267.808594 358.910156 L 268.671875 363.046875 L 269.339844 364.082031 L 269.210938 365.21875 L 264.953125 369.09375 L 261.394531 373.164063 L 260.601563 374.816406 L 262.84375 374.3125 L 264.9375 375.519531 L 266.9375 378.226563 L 270.21875 378.804688 L 270.625 378.746094 L 271.910156 376.796875 L 272.234375 374.960938 L 273.40625 371.914063 L 274.707031 370.632813 L 277.835938 370.089844 L 280.109375 370.246094 L 282.574219 371.3125 L 285.21875 371.78125 L 288.527344 371.507813 L 289.671875 371.058594 L 291.617188 371.265625 L 291.421875 372.90625 L 291.695313 375.445313 L 292.570313 377.976563 L 294.003906 380.242188 L 296.601563 382.863281 L 298.449219 384.203125 L 300.882813 385.273438 L 303.371094 385.753906 L 305.074219 387.925781 L 307.070313 389.492188 L 307.179688 391.25 L 306.777344 393.191406 L 306.828125 393.546875 L 303.8125 393.824219 L 300.734375 395.070313 L 298.042969 397.226563 L 296.164063 399.964844 L 294.585938 403.605469 L 294.066406 406.628906 L 294.414063 409.933594 L 295.167969 411.796875 L 292.742188 410.515625 L 292.480469 410.636719 L 293.703125 413.285156 L 292.886719 413.449219 L 290.367188 414.640625 L 285.960938 418.214844 L 283.984375 420.644531 L 281.710938 421.53125 L 279.769531 422.792969 L 277.277344 425.550781 L 275.816406 428.828125 L 275.414063 431.753906 L 275.609375 433.496094 L 274.75 433.78125 L 272.609375 436.117188 L 274.253906 436.015625 L 275.152344 434.667969 L 275.726563 434.550781 L 275.726563 434.558594 L 276.882813 437.824219 L 278.484375 440.292969 L 281.410156 442.769531 L 286.191406 444.863281 L 289.5625 445.402344 L 293.066406 444.902344 L 291.738281 447.785156 L 287.828125 448.460938 L 284.472656 450.332031 L 282.65625 452.148438 L 281.285156 454.320313 L 280.421875 456.738281 L 280.109375 459.414063 L 277.984375 459.789063 L 275.855469 460.605469 L 273.925781 461.820313 L 272.355469 463.292969 L 260.722656 463.292969 L 258.011719 462.15625 L 255.101563 461.734375 L 252.050781 462.089844 L 249.09375 463.292969 L 245.214844 463.292969 L 241.847656 462.636719 L 239.058594 462.851563 L 237.140625 463.285156 L 231.496094 463.171875 L 231.378906 463.496094 L 232.574219 464.835938 L 232.566406 464.863281 L 232.324219 464.972656 L 231.082031 465.972656 L 226.691406 465.496094 L 219.566406 468.449219 L 217.054688 467.824219 L 210.222656 468.96875 L 208.164063 468.875 L 207.273438 468.058594 L 206.238281 469.769531 L 209.429688 471.089844 L 209.714844 470.9375 L 210.1875 472.128906 L 209.566406 473.890625 L 208.5 474.113281 L 208.328125 474.035156 L 206.203125 473.535156 L 205.148438 473.492188 L 204.453125 473.097656 L 203.015625 472.699219 L 197.625 472.007813 L 196.175781 472.65625 L 195.679688 473.863281 L 195.832031 474.871094 L 196.757813 475.523438 L 196.488281 476.304688 L 195.917969 475.996094 L 194.851563 473.972656 L 190.289063 470.589844 L 185.898438 468.519531 L 183.121094 467.984375 L 181.648438 469.066406 L 176.207031 469.78125 L 174.339844 470.335938 L 168.992188 473.234375 L 168.214844 474.070313 L 167.203125 476.179688 L 166.25 478.972656 L 163.625 479.285156 L 159.992188 481.144531 L 157.660156 483.507813 L 156.074219 486.503906 L 155.582031 486.128906 L 154.273438 484.925781 L 152.316406 483.753906 L 150.167969 482.988281 L 148.660156 482.746094 L 148.46875 482.535156 L 147.691406 482.59375 L 147.671875 482.589844 L 135.125 482.691406 L 131.058594 483.761719 L 128.476563 485.421875 L 126.421875 487.695313 L 125.121094 490.25 L 124.039063 490.597656 L 123.742188 491.804688 L 123.558594 492.003906 L 122.34375 493.933594 L 121.527344 496.0625 L 121.285156 497.4375 L 120.660156 497.648438 L 120.394531 498.183594 L 118.253906 498.183594 L 117.96875 497.691406 L 118.09375 496.4375 L 117.15625 494.691406 L 115.984375 493.691406 L 113.410156 492.574219 L 112.542969 491.847656 L 110.023438 490.59375 L 113.917969 491.085938 L 118.90625 490.179688 L 121.640625 489.183594 L 124.140625 487.457031 L 126.878906 484.613281 L 128.476563 481.710938 L 129.199219 478.351563 L 128.90625 474.921875 L 130.714844 473.5625 L 131.378906 472.757813 L 132.105469 472.640625 L 132.679688 471.785156 L 132.890625 470.964844 L 134.953125 469.339844 L 140.128906 463.589844 L 141.140625 461.511719 L 141.703125 459.398438 L 141.859375 457.21875 L 141.585938 454.988281 L 142.492188 455.105469 L 144.269531 456.015625 L 145.761719 455.429688 L 148.429688 452.488281 L 148.125 447.851563 L 148.292969 447.785156 L 151.417969 447.105469 L 152.550781 446.53125 L 157.421875 446.269531 L 159.910156 445.683594 L 164.597656 446.761719 L 166.046875 446.148438 L 167.527344 446.515625 L 169.484375 447.285156 L 170.039063 448.109375 L 170.757813 448.421875 L 173.15625 448.464844 L 180.570313 447.503906 L 181.109375 445.632813 L 181.210938 443.15625 L 182.519531 440.25 L 190.867188 432.195313 L 195.792969 425.3125 L 197.929688 424.472656 L 198.285156 423.78125 L 198.070313 423.238281 L 197.8125 423.082031 L 196.09375 424.355469 L 192.90625 427.300781 L 190.570313 429.988281 L 189.222656 431.449219 L 185.628906 432.957031 L 183.714844 433.246094 L 182.441406 433.0625 L 178.394531 435.230469 L 177.398438 436.808594 L 177.039063 438.671875 L 176.445313 439.273438 L 174.058594 439.917969 L 170.558594 439.851563 L 166.820313 439 L 166.347656 438.652344 L 161.371094 433.375 L 159.03125 429.199219 L 156.867188 429.449219 L 153.964844 425.960938 L 150.949219 424.023438 L 147.480469 423.09375 L 143.898438 423.265625 L 142.707031 423.710938 L 139.902344 423.714844 L 138.832031 422.351563 L 136.660156 420.644531 L 139.914063 418.878906 L 142.445313 416.179688 L 144.035156 412.695313 L 144.414063 409.015625 L 146.574219 408.1875 L 148.425781 407.027344 L 150.113281 405.445313 L 151.457031 403.5625 L 152.511719 401.082031 L 152.964844 398.550781 L 152.875 396.589844 L 153.054688 396.195313 L 153.441406 394.699219 L 153.742188 394.980469 L 155.671875 396.195313 L 157.800781 397.011719 L 159.921875 397.382813 L 159.386719 399.503906 L 159.261719 401.8125 L 159.597656 404.101563 L 160.324219 406.164063 L 161.425781 408.050781 L 162.953125 409.789063 L 164.792969 411.191406 L 166.753906 412.15625 L 169.242188 412.796875 L 173.304688 413.054688 L 178.851563 412.378906 L 180.984375 411.480469 L 182.996094 410.097656 L 184.671875 408.324219 L 185.941406 406.242188 L 186.976563 402.671875 L 187.222656 399.511719 L 187.0625 397.382813 L 188.292969 394.300781 L 188.605469 390.992188 L 188.164063 388.34375 L 187.0625 385.753906 L 187.726563 381.875 L 187.0625 378 L 187.375 375.46875 L 187.101563 372.800781 L 185.679688 369.261719 L 183.183594 366.371094 L 183.183594 358.617188 L 183.648438 355.902344 L 184.078125 356.789063 L 185.613281 357.902344 L 188.359375 357.621094 L 190.335938 355.148438 L 189.90625 355.050781 L 188.667969 355.527344 L 188.3125 355.957031 L 186.378906 356.386719 L 183.835938 354.660156 L 183.183594 350.863281 L 185.359375 350.65625 L 187.574219 350 L 189.621094 348.917969 L 191.410156 347.453125 L 192.875 345.664063 L 193.953125 343.621094 L 194.609375 341.40625 L 194.816406 339.230469 L 197.777344 340.433594 L 201.078125 340.78125 L 203.609375 340.402344 L 206.445313 339.230469 L 209.414063 338.589844 L 212.117188 337.203125 L 215.539063 334.355469 L 217.050781 332.78125 L 218.242188 330.949219 L 219.238281 328.308594 L 219.570313 325.378906 L 219.152344 322.457031 L 218.078125 319.847656 L 219.375 318.089844 L 220.316406 316.121094 L 221.039063 311.964844 L 220.226563 307.824219 L 218.078125 304.339844 L 219.503906 302.359375 L 220.484375 300.128906 L 220.980469 297.738281 L 220.96875 295.300781 L 220.179688 292.195313 L 218.492188 289.320313 L 216.128906 287.078125 L 213.25 285.582031 L 215.632813 285.53125 Z M 229.78125 467.023438 L 227.808594 468.613281 L 225.832031 471.046875 L 220.535156 470.796875 L 221.476563 469.683594 L 227.316406 466.367188 Z M 187.0625 219.046875 L 186.914063 220.757813 L 186.34375 220.894531 Z M 186.863281 221.351563 L 186.769531 222.472656 L 187.492188 225.835938 L 188.9375 228.53125 L 190.9375 230.675781 L 191.195313 231.972656 L 189.460938 232.730469 L 188.34375 232.882813 L 187.070313 232.078125 L 185.40625 232.042969 L 181.046875 235.800781 L 180.578125 237.003906 L 174.761719 240.109375 L 170.214844 238.117188 L 168.015625 238.050781 L 169.964844 235.863281 L 171.078125 233.707031 L 171.835938 230.355469 L 171.554688 226.800781 L 173.90625 227.457031 L 176.339844 227.609375 L 178.753906 227.246094 L 181.042969 226.390625 L 183.097656 225.074219 L 184.835938 223.359375 L 185.761719 221.949219 L 186.457031 221.386719 Z M 195.007813 239.761719 L 195.292969 241.730469 L 196.757813 244.867188 L 198.785156 247.183594 L 201.351563 248.886719 L 204.144531 249.832031 L 207.726563 250.207031 L 204.347656 251.332031 L 201.464844 253.425781 L 199.933594 255.300781 L 198.691406 257.816406 L 197.0625 259.707031 L 195.828125 262.019531 L 194.816406 261.691406 L 193.042969 260.066406 L 191.085938 258.894531 L 187.0625 257.816406 L 186.546875 254.394531 L 185.046875 251.273438 L 182.695313 248.734375 L 179.582031 246.949219 L 177.226563 246.324219 L 174.535156 246.167969 L 172.246094 246.441406 L 170.058594 247.164063 L 168.054688 248.300781 L 166.230469 249.902344 L 164.777344 251.851563 L 163.800781 253.9375 L 162.34375 251.109375 L 160.273438 248.859375 L 157.6875 247.230469 L 154.765625 246.328125 L 158.472656 246.066406 L 160.945313 245.402344 L 163.421875 244.070313 L 165.503906 242.179688 L 166.765625 240.40625 L 167.179688 239.507813 L 168.246094 240.195313 L 178.0625 241.875 L 182.921875 243.167969 L 186.398438 241.730469 L 187.519531 239.417969 L 188.617188 238.355469 L 189.539063 238.171875 L 193.183594 238.5 Z M 201.289063 279.769531 L 202.570313 277.199219 L 204.007813 280.253906 Z M 187.0625 211.292969 L 188.445313 210.300781 L 187.410156 212.480469 Z M 171.554688 172.523438 L 173.675781 172.148438 L 175.804688 171.335938 L 177.734375 170.117188 L 179.308594 168.644531 L 181.015625 170.816406 L 183.183594 172.523438 L 182.519531 176.398438 L 183.183594 180.277344 L 179.90625 177.703125 L 177.796875 176.84375 L 175.429688 176.398438 L 172.371094 173.945313 L 168.664063 172.648438 Z M 152.9375 288.140625 L 155.097656 284.875 L 156.046875 281.078125 L 159.289063 281.730469 L 162.460938 281.472656 L 165.558594 280.304688 L 168.109375 278.398438 L 168.535156 280.921875 L 169.566406 283.402344 L 170.058594 284.082031 L 169.453125 284.03125 L 168.226563 288.992188 L 166.234375 288.695313 L 163.3125 290.011719 L 161.832031 291.855469 L 159.90625 293.171875 L 158.21875 292.789063 L 156.046875 292.707031 L 154.769531 290.238281 Z M 174.671875 288.144531 L 175.3125 288.492188 L 177.898438 289.214844 L 180.453125 289.335938 L 183.097656 288.859375 L 180.550781 290.003906 L 178.347656 291.722656 L 176.621094 293.917969 L 175.429688 296.585938 L 173.1875 296.992188 L 171.179688 297.773438 L 169.25 298.988281 L 169.160156 299.074219 L 169.164063 299.058594 L 174.074219 288.722656 Z M 149.246094 369.296875 L 149.246094 371.195313 L 148.292969 370.246094 Z M 149.246094 369.296875 "/>
</g>
</svg>
