<?xml version="1.0" encoding="UTF-8"?>
<svg xmlns="http://www.w3.org/2000/svg" xmlns:xlink="http://www.w3.org/1999/xlink" width="378pt" height="504pt" viewBox="0 0 378 504" version="1.1">
<g id="data">
<rect x="0" y="0" width="378" height="504" style="fill:rgb(100%,100%,100%);fill-opacity:1;stroke:none;"/>
<path style=" stroke:none;fill-rule:nonzero;fill:rgb(100%,100%,100%);fill-opacity:1;" d="M 53.308594 504 L 324.691406 504 L 324.691406 0 L 53.308594 0 Z M 53.308594 504 "/>
<path style=" stroke:none;fill-rule:nonzero;fill:rgb(22.745098%,53.333333%,16.078431%);fill-opacity:1;" d="M 305.214844 386.050781 L 306.835938 385.8125 L 307.058594 389.296875 Z M 190.9375 432.277344 L 193.816406 434.183594 L 197.253906 435.175781 L 200.703125 435.097656 L 203.980469 434.015625 L 206.792969 432.015625 L 208.898438 429.277344 L 209.988281 426.546875 L 210.976563 421.296875 L 214.199219 420.644531 L 220.25 420.566406 L 223.679688 419.5625 L 225.660156 418.378906 L 227.363281 416.832031 L 228.730469 414.980469 L 229.707031 412.890625 L 231.953125 412.484375 L 233.960938 411.703125 L 235.890625 410.488281 L 237.460938 409.015625 L 238.546875 411.195313 L 240.066406 413.101563 L 241.839844 414.574219 L 243.988281 415.722656 L 246.328125 416.394531 L 248.757813 416.566406 L 251.167969 416.230469 L 253.457031 415.394531 L 256.847656 412.890625 L 259.3125 411.820313 L 261.558594 410.121094 L 263.394531 407.824219 L 264.601563 405.136719 L 267.175781 404 L 269.492188 402.1875 L 271.214844 399.960938 L 272.355469 397.382813 L 274.613281 395.589844 L 276.878906 392.71875 L 278.324219 390.167969 L 279.085938 387.335938 L 279.113281 384.40625 L 278.457031 381.679688 L 280.132813 383.222656 L 282.078125 384.40625 L 284.214844 385.1875 L 286.464844 385.539063 L 284.820313 387.785156 L 283.164063 391.367188 L 282.554688 393.722656 L 282.449219 396.152344 L 282.847656 398.550781 L 283.984375 401.261719 L 284.855469 404.820313 L 286.160156 407.140625 L 287.863281 409.015625 L 285.734375 408.855469 L 281.429688 409.152344 L 279.085938 409.796875 L 277.035156 410.84375 L 274.121094 413.515625 L 272.355469 416.769531 L 270.652344 418.644531 L 269.398438 420.847656 L 267.703125 427.769531 L 267.742188 430.207031 L 268.332031 432.710938 L 269.59375 435.234375 L 271.335938 437.296875 L 273.617188 438.960938 L 276.230469 440.03125 L 274.011719 442.492188 L 272.617188 445.355469 L 272.046875 448.488281 L 272.355469 451.660156 L 269.101563 453.429688 L 266.570313 456.128906 L 264.980469 459.609375 L 264.601563 463.292969 L 260.722656 463.292969 L 259.777344 460.902344 L 258.414063 458.878906 L 256.558594 457.105469 L 254.355469 455.78125 L 252.167969 455.03125 L 249.875 454.726563 L 247.566406 454.882813 L 245.214844 455.539063 L 243.472656 453.480469 L 241.304688 451.875 L 238.824219 450.816406 L 236.296875 450.363281 L 232.71875 450.679688 L 229.300781 452.140625 L 223.660156 457.246094 L 221.953125 459.414063 L 219.117188 458.246094 L 216.203125 457.855469 L 213.160156 458.246094 L 210.324219 459.414063 L 211.496094 456.433594 L 211.804688 453.113281 L 211.199219 449.964844 L 209.683594 446.996094 L 208.261719 445.339844 L 206.445313 443.90625 L 205.5 441.519531 L 204.054688 439.394531 L 200.992188 436.867188 L 198.511719 435.808594 L 195.984375 435.359375 L 193.417969 435.476563 L 190.9375 436.152344 Z M 190.9375 432.277344 "/>
</g>
</svg>
