<?xml version="1.0" encoding="UTF-8"?>
<svg xmlns="http://www.w3.org/2000/svg" xmlns:xlink="http://www.w3.org/1999/xlink" width="378pt" height="504pt" viewBox="0 0 378 504" version="1.1">
<g id="data">
<rect x="0" y="0" width="378" height="504" style="fill:rgb(100%,100%,100%);fill-opacity:1;stroke:none;"/>
<path style=" stroke:none;fill-rule:nonzero;fill:rgb(100%,100%,100%);fill-opacity:1;" d="M 53.308594 504 L 324.691406 504 L 324.691406 0 L 53.308594 0 Z M 53.308594 504 "/>
<path style=" stroke:none;fill-rule:nonzero;fill:rgb(22.745098%,53.333333%,16.078431%);fill-opacity:1;" d="M 245.214844 420.644531 L 245.214844 416.769531 L 247.386719 415.0625 L 249.09375 412.890625 L 252.222656 412.992188 L 256.175781 412.164063 L 258.742188 410.789063 L 262.382813 407.789063 L 261.273438 410.183594 L 260.722656 412.890625 L 257.875 413.492188 L 255.261719 414.777344 L 250.980469 418.300781 L 249.09375 420.644531 Z M 245.214844 420.644531 "/>
<path style=" stroke:none;fill-rule:nonzero;fill:rgb(80.392157%,58.431373%,4.705882%);fill-opacity:1;" d="M 251.03125 362.492188 L 250.746094 364.289063 L 249.921875 365.910156 L 248.632813 367.195313 L 247.011719 368.023438 L 245.214844 368.308594 L 243.417969 368.023438 L 241.796875 367.195313 L 240.511719 365.910156 L 239.683594 364.289063 L 239.398438 362.492188 L 239.683594 360.695313 L 240.511719 359.074219 L 241.796875 357.789063 L 243.417969 356.960938 L 245.214844 356.675781 L 247.011719 356.960938 L 248.632813 357.789063 L 249.921875 359.074219 L 250.746094 360.695313 Z M 251.03125 362.492188 "/>
</g>
</svg>
