<?xml version="1.0" encoding="UTF-8"?>
<svg xmlns="http://www.w3.org/2000/svg" xmlns:xlink="http://www.w3.org/1999/xlink" width="378pt" height="504pt" viewBox="0 0 378 504" version="1.1">
<g id="data">
<rect x="0" y="0" width="378" height="504" style="fill:rgb(100%,100%,100%);fill-opacity:1;stroke:none;"/>
<path style=" stroke:none;fill-rule:nonzero;fill:rgb(100%,100%,100%);fill-opacity:1;" d="M 53.308594 504 L 324.691406 504 L 324.691406 0 L 53.308594 0 Z M 53.308594 504 "/>
<path style=" stroke:none;fill-rule:nonzero;fill:rgb(22.745098%,53.333333%,16.078431%);fill-opacity:1;" d="M 245.214844 426.460938 L 243.417969 426.175781 L 241.796875 425.351563 L 240.511719 424.0625 L 239.683594 422.441406 L 239.398438 420.644531 L 239.398438 416.769531 L 239.664063 415.042969 L 240.425781 413.472656 L 241.621094 412.199219 L 243.246094 410.921875 L 244.519531 409.296875 L 245.847656 408.066406 L 247.484375 407.304688 L 249.28125 407.078125 L 251.710938 407.160156 L 254.167969 406.644531 L 255.492188 405.933594 L 258.683594 403.300781 L 260.171875 402.410156 L 261.855469 401.996094 L 263.585938 402.097656 L 265.210938 402.707031 L 266.585938 403.765625 L 267.582031 405.183594 L 268.121094 406.832031 L 268.148438 408.566406 L 267.660156 410.230469 L 266.835938 412.011719 L 266.421875 414.050781 L 265.851563 415.636719 L 264.847656 416.992188 L 263.5 418 L 261.917969 418.582031 L 259.789063 419.03125 L 258.4375 419.699219 L 255.132813 422.410156 L 253.625 424.289063 L 252.355469 425.460938 L 250.800781 426.207031 L 249.09375 426.460938 Z M 245.214844 426.460938 "/>
<path style=" stroke:none;fill-rule:nonzero;fill:rgb(80.392157%,58.431373%,4.705882%);fill-opacity:1;" d="M 251.03125 362.492188 L 250.746094 364.289063 L 249.921875 365.910156 L 248.632813 367.195313 L 247.011719 368.023438 L 245.214844 368.308594 L 243.417969 368.023438 L 241.796875 367.195313 L 240.511719 365.910156 L 239.683594 364.289063 L 239.398438 362.492188 L 239.683594 360.695313 L 240.511719 359.074219 L 241.796875 357.789063 L 243.417969 356.960938 L 245.214844 356.675781 L 247.011719 356.960938 L 248.632813 357.789063 L 249.921875 359.074219 L 250.746094 360.695313 Z M 251.03125 362.492188 "/>
</g>
</svg>
