<?xml version="1.0" encoding="UTF-8"?>
<svg xmlns="http://www.w3.org/2000/svg" xmlns:xlink="http://www.w3.org/1999/xlink" width="378pt" height="504pt" viewBox="0 0 378 504" version="1.1">
<g id="data">
<rect x="0" y="0" width="378" height="504" style="fill:rgb(100%,100%,100%);fill-opacity:1;stroke:none;"/>
<path style=" stroke:none;fill-rule:nonzero;fill:rgb(100%,100%,100%);fill-opacity:1;" d="M 53.308594 504 L 324.691406 504 L 324.691406 0 L 53.308594 0 Z M 53.308594 504 "/>
<path style=" stroke:none;fill-rule:nonzero;fill:rgb(22.745098%,53.333333%,16.078431%);fill-opacity:1;" d="M 264.601563 405.136719 L 268.476563 405.136719 L 265.902344 406.277344 L 263.675781 408 L 261.859375 410.316406 L 260.722656 412.890625 L 258.148438 414.03125 L 255.921875 415.753906 L 254.171875 417.960938 L 252.96875 420.644531 L 250.800781 422.351563 L 249.09375 424.523438 L 247.386719 422.351563 L 245.214844 420.644531 L 245.214844 416.769531 L 247.386719 415.0625 L 249.09375 412.890625 L 251.609375 410.820313 L 252.96875 409.015625 L 255.847656 409.140625 L 259.574219 408.457031 L 262.304688 407.128906 Z M 264.601563 405.136719 "/>
</g>
</svg>
