<?xml version="1.0" encoding="UTF-8"?>
<svg xmlns="http://www.w3.org/2000/svg" xmlns:xlink="http://www.w3.org/1999/xlink" width="378pt" height="504pt" viewBox="0 0 378 504" version="1.1">
<g id="data">
<rect x="0" y="0" width="378" height="504" style="fill:rgb(100%,100%,100%);fill-opacity:1;stroke:none;"/>
<path style=" stroke:none;fill-rule:nonzero;fill:rgb(100%,100%,100%);fill-opacity:1;" d="M 53.308594 504 L 324.691406 504 L 324.691406 0 L 53.308594 0 Z M 53.308594 504 "/>
<path style=" stroke:none;fill-rule:nonzero;fill:rgb(22.745098%,53.333333%,16.078431%);fill-opacity:1;" d="M 272.636719 398.078125 L 271.457031 396.828125 L 270.695313 395.285156 L 270.414063 393.585938 L 270.648438 391.882813 L 271.367188 390.320313 L 272.511719 389.035156 L 273.984375 388.144531 L 275.652344 387.722656 L 277.390625 387.546875 L 278.402344 387.242188 L 279.433594 386.695313 L 280.324219 385.96875 L 281.050781 385.078125 L 281.589844 384.0625 L 281.917969 382.941406 L 282.070313 381.332031 L 282.488281 379.652344 L 283.382813 378.167969 L 284.667969 377.015625 L 286.242188 376.292969 L 287.957031 376.0625 L 289.664063 376.347656 L 291.210938 377.121094 L 292.460938 378.316406 L 293.304688 379.828125 L 293.875 381.34375 L 294.488281 382.335938 L 295.285156 383.1875 L 296.089844 383.765625 L 297.464844 384.363281 L 298.785156 384.589844 L 300.0625 384.515625 L 301.804688 384.03125 L 303.371094 383.816406 L 306.613281 383.816406 L 306.730469 384.164063 L 307.179688 391.25 L 306.777344 393.191406 L 306.890625 393.976563 L 305.789063 396.917969 L 303.519531 407.832031 L 300.71875 410.777344 L 299.492188 410.953125 L 295.617188 410.953125 L 294.632813 410.871094 L 292.824219 410.558594 L 292.742188 410.515625 L 292.695313 410.539063 L 291.738281 410.375 L 288.84375 410.871094 L 286.925781 410.878906 L 285.113281 410.261719 L 283.59375 409.089844 L 282.542969 407.488281 L 281.691406 405.5625 L 280.835938 404.457031 L 279.753906 403.597656 L 277.730469 402.691406 L 276.527344 401.96875 L 275.535156 400.980469 L 274.257813 399.355469 Z M 241.621094 417.464844 L 240.328125 416.042969 L 239.570313 414.28125 L 239.421875 412.371094 L 239.910156 410.515625 L 240.972656 408.917969 L 242.0625 407.75 L 242.683594 406.761719 L 243.0625 405.792969 L 243.371094 404.097656 L 243.949219 402.425781 L 245.003906 401.003906 L 246.433594 399.964844 L 248.113281 399.40625 L 249.882813 399.378906 L 251.578125 399.882813 L 253.046875 400.871094 L 254.308594 402.042969 L 255.191406 402.59375 L 256.28125 403.011719 L 257.855469 403.289063 L 259.457031 403.820313 L 260.839844 404.789063 L 261.882813 406.113281 L 262.507813 407.679688 L 262.652344 409.359375 L 262.535156 411.28125 L 262.824219 413.320313 L 263.308594 414.601563 L 264.347656 416.171875 L 265.089844 417.785156 L 265.308594 419.546875 L 264.988281 421.292969 L 264.15625 422.863281 L 262.886719 424.105469 L 261.304688 424.910156 L 259.550781 425.195313 L 257.792969 424.941406 L 256.195313 424.167969 L 254.449219 422.964844 L 253.234375 422.496094 L 251.835938 422.3125 L 249.742188 422.546875 L 247.785156 422.4375 L 245.976563 421.679688 L 244.519531 420.363281 L 243.246094 418.742188 Z M 242.574219 390.933594 L 241.179688 389.941406 L 240.136719 388.589844 L 239.53125 386.992188 L 239.417969 385.285156 L 239.804688 383.621094 L 240.675781 381.40625 L 240.835938 379.839844 L 240.5625 378.285156 L 239.53125 376.140625 L 239.015625 374.4375 L 239.035156 372.660156 L 239.59375 370.972656 L 240.636719 369.53125 L 242.070313 368.472656 L 243.75 367.894531 L 245.53125 367.855469 L 247.238281 368.351563 L 249.300781 369.320313 L 251.414063 369.710938 L 253.109375 370.304688 L 254.539063 371.386719 L 255.570313 372.851563 L 256.109375 374.5625 L 256.101563 376.355469 L 255.542969 378.0625 L 254.632813 379.855469 L 254.316406 381.15625 L 254.308594 382.492188 L 254.761719 384.453125 L 254.898438 386.082031 L 254.578125 387.683594 L 253.824219 389.132813 L 252.699219 390.316406 L 251.179688 391.515625 L 249.75 392.347656 L 248.144531 392.742188 L 246.492188 392.671875 L 244.929688 392.136719 Z M 213.527344 438.359375 L 212.546875 436.820313 L 212.09375 435.050781 L 212.207031 433.230469 L 212.882813 431.53125 L 214.046875 430.128906 L 215.59375 429.15625 L 217.363281 428.710938 L 219.183594 428.835938 L 221.394531 429.34375 L 222.988281 429.273438 L 224.484375 428.78125 L 226.460938 427.453125 L 228.226563 426.652344 L 230.15625 426.480469 L 232.039063 426.949219 L 233.660156 428.011719 L 234.925781 429.183594 L 235.808594 429.734375 L 236.898438 430.148438 L 238.472656 430.425781 L 240.132813 430.988281 L 241.554688 432.023438 L 242.601563 433.433594 L 243.179688 435.089844 L 243.234375 436.847656 L 242.765625 438.539063 L 241.8125 440.011719 L 240.417969 441.582031 L 239.832031 442.683594 L 238.890625 446.492188 L 238.761719 447.785156 L 238.890625 449.078125 L 239.828125 452.871094 L 240.472656 454.0625 L 241.792969 455.53125 L 242.8125 457.140625 L 243.261719 458.988281 L 243.089844 460.886719 L 242.3125 462.625 L 241.015625 464.019531 L 239.410156 464.878906 L 237.714844 463.296875 L 231.496094 463.171875 L 231.378906 463.496094 L 232.574219 464.835938 L 232.484375 465.070313 L 231.914063 464.984375 L 230.382813 464.269531 L 229.121094 463.144531 L 227.894531 461.671875 L 226.882813 460.898438 L 225.726563 460.363281 L 224.46875 460.089844 L 223.257813 460.09375 L 222.164063 460.324219 L 221.039063 460.8125 L 219.558594 461.871094 L 217.835938 462.714844 L 215.929688 462.949219 L 214.054688 462.554688 L 212.410156 461.570313 L 211.171875 460.101563 L 210.480469 458.3125 L 210.410156 456.398438 L 210.964844 454.5625 L 211.9375 452.601563 L 212.386719 450.460938 L 212.867188 449.078125 L 213.679688 447.855469 L 214.875 446.476563 L 215.378906 445.554688 L 215.886719 443.46875 L 215.847656 442.359375 L 215.5 441.046875 L 214.867188 439.867188 Z M 237.390625 465.230469 L 235.429688 465.230469 L 236.523438 463.683594 L 237.195313 464.164063 Z M 193.027344 344.683594 L 191.5625 343.640625 L 190.492188 342.199219 L 189.90625 340.5 L 189.871094 338.703125 L 190.382813 336.984375 L 191.398438 335.5 L 192.816406 334.398438 L 194.503906 333.78125 L 196.300781 333.710938 L 198.902344 334.007813 L 201.480469 333.519531 L 203.390625 333.472656 L 205.214844 334.050781 L 206.753906 335.191406 L 207.835938 336.765625 L 208.351563 338.609375 L 208.242188 340.519531 L 207.515625 342.289063 L 205.371094 345.753906 L 204.296875 347.039063 L 202.902344 347.960938 L 201.300781 348.449219 L 199.625 348.457031 L 198.019531 347.992188 L 196.609375 347.085938 L 194.96875 345.660156 Z M 193.027344 344.683594 "/>
<path style=" stroke:none;fill-rule:nonzero;fill:rgb(80.392157%,58.431373%,4.705882%);fill-opacity:1;" d="M 208.382813 354.738281 L 208.101563 356.535156 L 207.273438 358.15625 L 205.988281 359.441406 L 204.367188 360.269531 L 202.570313 360.554688 L 200.773438 360.269531 L 199.152344 359.441406 L 197.863281 358.15625 L 197.039063 356.535156 L 196.753906 354.738281 L 197.039063 352.941406 L 197.863281 351.320313 L 199.152344 350.035156 L 200.773438 349.207031 L 202.570313 348.921875 L 204.367188 349.207031 L 205.988281 350.035156 L 207.273438 351.320313 L 208.101563 352.941406 Z M 208.382813 354.738281 "/>
<path style=" stroke:none;fill-rule:nonzero;fill:rgb(80.392157%,58.431373%,4.705882%);fill-opacity:1;" d="M 208.382813 370.246094 L 208.101563 372.042969 L 207.273438 373.664063 L 205.988281 374.949219 L 204.367188 375.777344 L 202.570313 376.0625 L 200.773438 375.777344 L 199.152344 374.949219 L 197.863281 373.664063 L 197.039063 372.042969 L 196.753906 370.246094 L 197.039063 368.449219 L 197.863281 366.828125 L 199.152344 365.542969 L 200.773438 364.714844 L 202.570313 364.429688 L 204.367188 364.714844 L 205.988281 365.542969 L 207.273438 366.828125 L 208.101563 368.449219 Z M 208.382813 370.246094 "/>
<path style=" stroke:none;fill-rule:nonzero;fill:rgb(80.392157%,58.431373%,4.705882%);fill-opacity:1;" d="M 196.753906 459.414063 L 196.46875 461.210938 L 195.644531 462.832031 L 194.355469 464.121094 L 192.734375 464.945313 L 190.9375 465.230469 L 189.140625 464.945313 L 187.519531 464.121094 L 186.234375 462.832031 L 185.40625 461.210938 L 185.125 459.414063 L 185.40625 457.617188 L 186.234375 455.996094 L 187.519531 454.710938 L 189.140625 453.882813 L 190.9375 453.601563 L 192.734375 453.882813 L 194.355469 454.710938 L 195.644531 455.996094 L 196.46875 457.617188 Z M 196.753906 459.414063 "/>
<path style=" stroke:none;fill-rule:nonzero;fill:rgb(80.392157%,58.431373%,4.705882%);fill-opacity:1;" d="M 223.890625 409.015625 L 223.609375 410.8125 L 222.78125 412.433594 L 221.496094 413.71875 L 219.875 414.546875 L 218.078125 414.832031 L 216.28125 414.546875 L 214.660156 413.71875 L 213.371094 412.433594 L 212.546875 410.8125 L 212.261719 409.015625 L 212.546875 407.21875 L 213.371094 405.597656 L 214.660156 404.3125 L 216.28125 403.484375 L 218.078125 403.199219 L 219.875 403.484375 L 221.496094 404.3125 L 222.78125 405.597656 L 223.609375 407.21875 Z M 223.890625 409.015625 "/>
<path style=" stroke:none;fill-rule:nonzero;fill:rgb(80.392157%,58.431373%,4.705882%);fill-opacity:1;" d="M 196.753906 300.460938 L 196.46875 302.257813 L 195.644531 303.878906 L 194.355469 305.167969 L 192.734375 305.992188 L 190.9375 306.277344 L 189.140625 305.992188 L 187.519531 305.167969 L 186.234375 303.878906 L 185.40625 302.257813 L 185.125 300.460938 L 185.40625 298.664063 L 186.234375 297.042969 L 187.519531 295.757813 L 189.140625 294.929688 L 190.9375 294.644531 L 192.734375 294.929688 L 194.355469 295.757813 L 195.644531 297.042969 L 196.46875 298.664063 Z M 196.753906 300.460938 "/>
<path style=" stroke:none;fill-rule:nonzero;fill:rgb(80.392157%,58.431373%,4.705882%);fill-opacity:1;" d="M 289.800781 447.785156 L 289.515625 449.582031 L 288.6875 451.203125 L 287.402344 452.488281 L 285.78125 453.316406 L 283.984375 453.601563 L 282.1875 453.316406 L 280.566406 452.488281 L 279.28125 451.203125 L 278.453125 449.582031 L 278.167969 447.785156 L 278.453125 445.988281 L 279.28125 444.367188 L 280.566406 443.078125 L 282.1875 442.253906 L 283.984375 441.96875 L 285.78125 442.253906 L 287.402344 443.078125 L 288.6875 444.367188 L 289.515625 445.988281 Z M 289.800781 447.785156 "/>
<path style=" stroke:none;fill-rule:nonzero;fill:rgb(80.392157%,58.431373%,4.705882%);fill-opacity:1;" d="M 235.523438 304.339844 L 235.238281 306.136719 L 234.414063 307.757813 L 233.125 309.042969 L 231.503906 309.871094 L 229.707031 310.152344 L 227.910156 309.871094 L 226.289063 309.042969 L 225.003906 307.757813 L 224.175781 306.136719 L 223.890625 304.339844 L 224.175781 302.542969 L 225.003906 300.921875 L 226.289063 299.632813 L 227.910156 298.808594 L 229.007813 298.632813 L 229.304688 299.0625 L 234.765625 301.609375 L 235.238281 302.542969 Z M 235.523438 304.339844 "/>
<path style=" stroke:none;fill-rule:nonzero;fill:rgb(80.392157%,58.431373%,4.705882%);fill-opacity:1;" d="M 247.152344 343.109375 L 246.871094 344.90625 L 246.042969 346.527344 L 244.757813 347.8125 L 243.136719 348.636719 L 241.339844 348.921875 L 239.542969 348.636719 L 237.921875 347.8125 L 236.632813 346.527344 L 235.808594 344.90625 L 235.523438 343.109375 L 235.808594 341.3125 L 236.632813 339.691406 L 237.921875 338.402344 L 239.542969 337.578125 L 241.339844 337.292969 L 243.136719 337.578125 L 244.757813 338.402344 L 245.8125 339.457031 L 245.550781 339.511719 L 244.589844 338.644531 L 243.40625 338.558594 L 241.210938 339.871094 L 241.886719 340.445313 L 246.324219 340.394531 L 246.390625 340.371094 L 246.871094 341.3125 Z M 247.152344 343.109375 "/>
<path style=" stroke:none;fill-rule:nonzero;fill:rgb(80.392157%,58.431373%,4.705882%);fill-opacity:1;" d="M 196.683594 424.960938 L 196.46875 426.320313 L 195.644531 427.941406 L 194.355469 429.226563 L 192.734375 430.054688 L 192.355469 430.113281 L 195.792969 425.3125 Z M 190.335938 430.242188 L 189.140625 430.054688 L 187.519531 429.226563 L 186.234375 427.941406 L 185.40625 426.320313 L 185.125 424.523438 L 185.40625 422.726563 L 186.234375 421.105469 L 187.519531 419.816406 L 189.140625 418.992188 L 190.9375 418.707031 L 192.734375 418.992188 L 194.355469 419.816406 L 195.644531 421.105469 L 196.46875 422.726563 L 196.660156 423.9375 L 196.09375 424.355469 L 192.90625 427.300781 L 190.570313 429.988281 Z M 190.335938 430.242188 "/>
<path style=" stroke:none;fill-rule:nonzero;fill:rgb(80.392157%,58.431373%,4.705882%);fill-opacity:1;" d="M 177.371094 467.167969 L 177.085938 468.964844 L 176.703125 469.714844 L 176.207031 469.78125 L 174.339844 470.335938 L 169.929688 472.726563 L 169.757813 472.699219 L 168.136719 471.875 L 166.847656 470.585938 L 166.023438 468.964844 L 165.738281 467.167969 L 166.023438 465.371094 L 166.847656 463.75 L 168.136719 462.464844 L 169.757813 461.636719 L 171.554688 461.355469 L 173.351563 461.636719 L 174.972656 462.464844 L 176.257813 463.75 L 177.085938 465.371094 Z M 177.371094 467.167969 "/>
<path style=" stroke:none;fill-rule:nonzero;fill:rgb(80.392157%,58.431373%,4.705882%);fill-opacity:1;" d="M 200.628906 424.523438 L 200.347656 426.320313 L 199.519531 427.941406 L 198.234375 429.226563 L 196.613281 430.054688 L 194.816406 430.339844 L 193.019531 430.054688 L 192.5625 429.820313 L 195.792969 425.3125 L 197.929688 424.472656 L 198.285156 423.78125 L 198.070313 423.238281 L 197.8125 423.082031 L 196.09375 424.355469 L 192.90625 427.300781 L 191.308594 429.140625 L 190.109375 427.941406 L 189.285156 426.320313 L 189 424.523438 L 189.285156 422.726563 L 190.109375 421.105469 L 191.398438 419.816406 L 193.019531 418.992188 L 194.816406 418.707031 L 196.613281 418.992188 L 198.234375 419.816406 L 199.519531 421.105469 L 200.347656 422.726563 Z M 200.628906 424.523438 "/>
<path style=" stroke:none;fill-rule:nonzero;fill:rgb(80.392157%,58.431373%,4.705882%);fill-opacity:1;" d="M 264.039063 375.003906 L 262.519531 375.777344 L 260.722656 376.0625 L 258.925781 375.777344 L 257.304688 374.949219 L 256.019531 373.664063 L 255.191406 372.042969 L 254.90625 370.246094 L 255.191406 368.449219 L 256.019531 366.828125 L 257.304688 365.542969 L 258.925781 364.714844 L 260.722656 364.429688 L 262.519531 364.714844 L 264.140625 365.542969 L 265.429688 366.828125 L 266.066406 368.082031 L 264.953125 369.09375 L 261.394531 373.164063 L 260.601563 374.816406 L 262.84375 374.3125 Z M 264.039063 375.003906 "/>
<path style=" stroke:none;fill-rule:nonzero;fill:rgb(80.392157%,58.431373%,4.705882%);fill-opacity:1;" d="M 126.96875 486.554688 L 126.683594 488.351563 L 125.859375 489.972656 L 125.792969 490.039063 L 124.039063 490.597656 L 123.777344 491.664063 L 122.949219 492.085938 L 121.152344 492.371094 L 119.355469 492.085938 L 117.734375 491.257813 L 116.449219 489.972656 L 115.625 488.351563 L 115.53125 487.765625 L 118.144531 485.910156 L 121.425781 483.085938 L 123.164063 481.132813 L 124.570313 481.847656 L 125.859375 483.136719 L 126.683594 484.757813 Z M 126.96875 486.554688 "/>
<path style=" stroke:none;fill-rule:nonzero;fill:rgb(80.392157%,58.431373%,4.705882%);fill-opacity:1;" d="M 185.125 242.308594 L 184.839844 244.105469 L 184.011719 245.726563 L 182.726563 247.011719 L 181.105469 247.839844 L 179.308594 248.125 L 177.511719 247.839844 L 175.890625 247.011719 L 174.601563 245.726563 L 173.777344 244.105469 L 173.492188 242.308594 L 173.679688 241.125 L 178.0625 241.875 L 182.921875 243.167969 L 185.117188 242.261719 Z M 174.125 239.832031 L 174.601563 238.890625 L 175.890625 237.601563 L 177.511719 236.777344 L 179.308594 236.492188 L 180.691406 236.710938 L 180.578125 237.003906 L 174.761719 240.109375 Z M 174.125 239.832031 "/>
<path style=" stroke:none;fill-rule:nonzero;fill:rgb(80.392157%,58.431373%,4.705882%);fill-opacity:1;" d="M 164.636719 483.695313 L 164.257813 483.503906 L 162.972656 482.21875 L 162.144531 480.597656 L 161.863281 478.800781 L 162.144531 477.003906 L 162.972656 475.382813 L 164.257813 474.09375 L 165.878906 473.269531 L 167.675781 472.984375 L 169.050781 473.203125 L 168.992188 473.234375 L 168.214844 474.070313 L 167.203125 476.179688 Z M 164.636719 483.695313 "/>
<path style=" stroke:none;fill-rule:nonzero;fill:rgb(80.392157%,58.431373%,4.705882%);fill-opacity:1;" d="M 185.125 346.984375 L 184.839844 348.78125 L 184.011719 350.402344 L 182.726563 351.6875 L 182.5 351.804688 L 179.976563 346.332031 L 182.347656 342.085938 L 182.726563 342.28125 L 184.011719 343.566406 L 184.839844 345.1875 Z M 181.058594 352.523438 L 179.308594 352.800781 L 178.90625 352.738281 L 180.867188 352.449219 Z M 181.058594 352.523438 "/>
</g>
</svg>
