<?xml version="1.0" encoding="UTF-8"?>
<svg xmlns="http://www.w3.org/2000/svg" xmlns:xlink="http://www.w3.org/1999/xlink" width="378pt" height="504pt" viewBox="0 0 378 504" version="1.1">
<g id="data">
<rect x="0" y="0" width="378" height="504" style="fill:rgb(100%,100%,100%);fill-opacity:1;stroke:none;"/>
<path style=" stroke:none;fill-rule:nonzero;fill:rgb(100%,100%,100%);fill-opacity:1;" d="M 53.308594 504 L 324.691406 504 L 324.691406 0 L 53.308594 0 Z M 53.308594 504 "/>
<path style=" stroke:none;fill-rule:nonzero;fill:rgb(22.745098%,53.333333%,16.078431%);fill-opacity:1;" d="M 221.609375 293.914063 L 223.382813 295.128906 L 225.464844 296.039063 L 227.542969 296.503906 L 229.285156 299.039063 L 229.042969 300.460938 L 229.707031 304.339844 L 228.890625 308.484375 L 229.480469 312.28125 L 230.6875 314.835938 L 232.472656 317.023438 L 234.847656 318.777344 L 237.460938 319.847656 L 235.097656 323.191406 L 234.039063 327.144531 L 234.417969 331.222656 L 236.183594 334.917969 L 239.015625 337.699219 L 242.324219 339.207031 L 241.210938 339.871094 L 241.886719 340.445313 L 246.324219 340.394531 L 249.617188 339.34375 L 250.640625 339.230469 L 252.082031 339.230469 L 254.382813 342.558594 L 256.847656 344.585938 L 256.847656 346.984375 L 253.480469 347.753906 L 250.492188 349.476563 L 248.140625 352.003906 L 246.632813 355.109375 L 246.109375 358.132813 L 246.398438 361.191406 L 247.472656 364.066406 L 249.34375 366.660156 L 251.660156 368.660156 L 254.539063 370.023438 L 257.550781 370.550781 L 260.722656 370.246094 L 261.089844 373.800781 L 260.601563 374.816406 L 261.410156 374.632813 L 262.5625 377.226563 L 264.949219 379.90625 L 268.042969 381.730469 L 272.058594 382.546875 L 276.230469 381.875 L 278.941406 383.011719 L 281.980469 383.433594 L 285.027344 383.046875 L 287.863281 381.875 L 288.867188 384.378906 L 290.421875 386.582031 L 292.445313 388.367188 L 294.820313 389.640625 L 296.921875 390.246094 L 299.097656 390.449219 L 301.269531 390.242188 L 303.371094 389.628906 L 307.078125 389.628906 L 307.125 390.34375 L 306.582031 393.507813 L 306.734375 394.394531 L 305.789063 396.917969 L 305.519531 398.214844 L 304.023438 398.9375 L 301.347656 401.5 L 299.492188 405.136719 L 298.019531 406.710938 L 296.804688 408.640625 L 296.023438 410.648438 L 295.730469 412.257813 L 295.578125 412.011719 L 292.742188 410.515625 L 292.480469 410.636719 L 293.679688 413.234375 L 293.492188 413.265625 L 291.363281 414.082031 L 289.433594 415.296875 L 287.863281 416.769531 L 284.304688 417.117188 L 280.914063 418.597656 L 279.199219 419.941406 L 277.695313 421.683594 L 275.824219 425.742188 L 275.414063 428.667969 L 275.785156 431.726563 L 276.390625 433.238281 L 274.75 433.78125 L 272.609375 436.117188 L 274.253906 436.015625 L 275.152344 434.667969 L 276.683594 434.363281 L 276.835938 434.359375 L 276.878906 434.464844 L 278.679688 436.878906 L 277.390625 437.65625 L 277.96875 438.546875 L 281.382813 438.964844 L 281.652344 439.03125 L 283.984375 440.03125 L 287.085938 442.019531 L 289.765625 442.824219 L 292.6875 442.953125 L 291.738281 443.90625 L 289.25 444.386719 L 286.925781 445.394531 L 283.984375 447.785156 L 281.898438 448.761719 L 280.042969 450.128906 L 278.273438 452.144531 L 277.058594 454.398438 L 276.367188 456.859375 L 276.230469 459.414063 L 273.664063 461.703125 L 270.417969 463.179688 L 267.386719 463.605469 L 262.976563 463.132813 L 256.847656 463.292969 L 252.839844 462.628906 L 249.09375 463.292969 L 243.089844 463.132813 L 238.785156 463.429688 L 238.085938 463.640625 L 237.714844 463.296875 L 231.496094 463.171875 L 231.378906 463.496094 L 232.574219 464.835938 L 232.214844 465.75 L 231.738281 466.042969 L 226.691406 465.496094 L 220.546875 468.042969 L 220.269531 467.449219 L 217.371094 464.554688 L 213.648438 462.84375 L 209.5625 462.53125 L 206.445313 463.292969 L 203.011719 463.609375 L 199.933594 464.855469 L 196.824219 467.492188 L 194.816406 471.046875 L 192.882813 467.304688 L 191.394531 465.714844 L 189.636719 464.429688 L 184.078125 462.121094 L 181.789063 461.804688 L 179.480469 461.949219 L 176.890625 462.691406 L 174.539063 464.007813 L 172.898438 465.445313 L 170.003906 468.84375 L 168.753906 470.898438 L 167.957031 473.171875 L 167.679688 475.183594 L 167.203125 476.179688 L 165.804688 480.273438 L 165.507813 480.507813 L 163.800781 482.675781 L 160.195313 480.480469 L 156.046875 479.714844 L 151.894531 480.480469 L 148.488281 482.558594 L 148.46875 482.535156 L 148.226563 482.550781 L 146.523438 479.425781 L 143.824219 476.894531 L 140.34375 475.304688 L 136.660156 474.921875 L 138.90625 474.515625 L 140.914063 473.734375 L 142.84375 472.519531 L 144.414063 471.046875 L 146.25 474.269531 L 149.007813 476.75 L 152.402344 478.234375 L 156.09375 478.578125 L 158.617188 478.125 L 160.980469 477.128906 L 165.945313 473.085938 L 167.707031 470.558594 L 168.71875 467.785156 L 168.996094 464.84375 L 168.523438 461.929688 L 167.589844 459.675781 L 166.203125 457.664063 L 163.800781 455.539063 L 161.851563 453.21875 L 159.703125 451.660156 L 162.035156 449.933594 L 163.800781 447.785156 L 165.972656 447.578125 L 168.191406 446.921875 L 168.351563 446.839844 L 169.484375 447.285156 L 170.039063 448.109375 L 170.757813 448.421875 L 173.15625 448.464844 L 180.570313 447.503906 L 181.109375 445.632813 L 181.210938 443.15625 L 182.519531 440.25 L 190.867188 432.195313 L 195.792969 425.3125 L 197.929688 424.472656 L 198.285156 423.78125 L 198.070313 423.238281 L 197.8125 423.082031 L 196.09375 424.355469 L 192.90625 427.300781 L 190.570313 429.988281 L 189.222656 431.449219 L 189.011719 431.539063 L 189.238281 431.285156 L 190.621094 427.972656 L 190.9375 424.523438 L 191.503906 422.171875 L 191.546875 419.5 L 190.9375 416.769531 L 190.9375 412.890625 L 192.003906 410.425781 L 192.476563 407.78125 L 192.199219 404.472656 L 190.9375 401.261719 L 193.417969 401.9375 L 195.984375 402.054688 L 198.511719 401.605469 L 200.882813 400.613281 L 202.78125 399.292969 L 204.382813 397.621094 L 205.617188 395.667969 L 206.445313 393.507813 L 210.019531 393.160156 L 213.425781 391.667969 L 216.1875 389.179688 L 217.976563 386.066406 L 218.742188 382.300781 L 218.277344 378.613281 L 216.539063 374.617188 L 213.703125 371.65625 L 211.234375 370.285156 L 208.382813 369.527344 L 205.429688 369.515625 L 202.570313 370.246094 L 201.195313 367.640625 L 199.117188 365.378906 L 196.632813 363.796875 L 193.703125 362.867188 L 190.890625 362.714844 L 188 363.285156 L 185.34375 364.5625 L 183.183594 366.371094 L 182.804688 362.6875 L 181.285156 359.3125 L 180.375 358.320313 L 177.679688 353.460938 L 178.242188 352.835938 L 180.867188 352.449219 L 181.503906 352.695313 L 181.914063 353.875 L 182.898438 354.332031 L 184.078125 356.789063 L 185.613281 357.902344 L 188.359375 357.621094 L 190.335938 355.148438 L 189.90625 355.050781 L 188.667969 355.527344 L 188.3125 355.957031 L 186.378906 356.386719 L 183.8125 354.640625 L 179.996094 346.371094 L 182.078125 344.511719 L 183.972656 341.171875 L 184.351563 339.664063 L 185.429688 339.015625 L 185.140625 338.578125 L 184.574219 338.550781 L 184.640625 336.238281 L 184.1875 333.839844 L 183.183594 331.476563 L 185.105469 329.441406 L 186.433594 327.128906 L 187.21875 324.445313 L 187.261719 323.464844 L 187.28125 323.421875 L 187.515625 322.085938 L 188.574219 324.753906 L 190.726563 327.46875 L 193.46875 329.371094 L 196.640625 330.414063 L 199.589844 330.554688 L 202.601563 329.902344 L 209.898438 325.671875 L 211.621094 323.957031 L 212.945313 321.917969 L 213.96875 319.027344 L 214.199219 315.96875 L 216.589844 313.027344 L 217.597656 310.703125 L 218.078125 308.214844 L 219.996094 306.027344 L 221.269531 303.550781 L 222.261719 298.183594 L 222.136719 296.019531 Z M 236.949219 463.988281 L 236.128906 464.238281 L 236.523438 463.683594 Z M 231.78125 467.554688 L 231.097656 468.3125 L 229.707031 471.046875 L 222.542969 471.046875 L 222.296875 470.886719 L 221.90625 470.941406 L 221.371094 469.804688 L 221.476563 469.683594 L 227.316406 466.367188 Z M 174.8125 439.714844 L 175.199219 438.453125 L 175.429688 436.152344 L 177.574219 436.535156 L 177.398438 436.808594 L 177.039063 438.671875 L 176.445313 439.273438 Z M 175.429688 300.460938 L 176.519531 297.917969 L 176.96875 295.316406 L 179.597656 298.441406 L 183.023438 300.417969 L 186.914063 301.132813 L 190.9375 300.460938 L 187.636719 302.363281 L 185.191406 305.121094 L 183.734375 308.507813 L 183.417969 312.304688 L 183.183594 312.09375 L 182.734375 308.164063 L 181.214844 304.929688 L 178.683594 302.230469 Z M 125.03125 478.800781 L 127.71875 479.117188 L 125.703125 482.660156 L 125.03125 486.554688 L 121.777344 488.320313 L 119.246094 491.019531 L 117.65625 494.503906 L 117.5625 495.441406 L 117.15625 494.691406 L 115.984375 493.691406 L 113.378906 492.5625 L 112.207031 491.632813 L 109.523438 490.429688 L 113.574219 489.945313 L 117.207031 488.085938 L 119.539063 485.722656 L 120.527344 483.859375 L 121.425781 483.085938 L 123.269531 481.011719 L 123.324219 480.96875 L 123.445313 480.816406 L 124.375 479.769531 L 124.515625 479.453125 Z M 125.03125 478.800781 "/>
</g>
</svg>
