<?xml version="1.0" encoding="UTF-8"?>
<svg xmlns="http://www.w3.org/2000/svg" xmlns:xlink="http://www.w3.org/1999/xlink" width="378pt" height="504pt" viewBox="0 0 378 504" version="1.1">
<g id="data">
<rect x="0" y="0" width="378" height="504" style="fill:rgb(100%,100%,100%);fill-opacity:1;stroke:none;"/>
<path style=" stroke:none;fill-rule:nonzero;fill:rgb(100%,100%,100%);fill-opacity:1;" d="M 53.308594 504 L 324.691406 504 L 324.691406 0 L 53.308594 0 Z M 53.308594 504 "/>
<path style=" stroke:none;fill-rule:nonzero;fill:rgb(22.745098%,53.333333%,16.078431%);fill-opacity:1;" d="M 276.230469 393.507813 L 278.53125 393.277344 L 280.621094 392.648438 L 282.664063 391.566406 L 284.453125 390.101563 L 285.917969 388.3125 L 287 386.269531 L 287.632813 384.175781 L 287.863281 381.875 L 288.632813 383.921875 L 289.847656 385.890625 L 291.429688 387.578125 L 293.203125 388.851563 L 295.796875 389.976563 L 298.453125 390.433594 L 301.019531 390.289063 L 303.371094 389.628906 L 307.078125 389.628906 L 307.179688 391.25 L 306.777344 393.191406 L 306.890625 393.976563 L 305.789063 396.917969 L 305.535156 398.140625 L 304.671875 398.523438 L 302.445313 400.246094 L 300.695313 402.453125 L 299.492188 405.136719 L 295.617188 405.136719 L 291.738281 404.472656 L 287.863281 405.136719 L 286.722656 402.5625 L 285 400.335938 L 282.792969 398.589844 L 280.109375 397.382813 L 278.402344 395.214844 Z M 245.214844 412.890625 L 246.765625 411.21875 L 247.902344 409.390625 L 248.71875 407.261719 L 249.09375 405.136719 L 250.664063 406.613281 L 252.59375 407.828125 L 254.722656 408.640625 L 256.847656 409.015625 L 256.695313 411.519531 L 257.15625 414.773438 L 258.039063 417.152344 L 259.496094 419.382813 L 257.183594 417.785156 L 254.675781 416.820313 L 251.886719 416.453125 L 249.09375 416.769531 L 247.386719 414.597656 Z M 244.773438 373.621094 L 247.507813 374.902344 L 250.359375 375.429688 L 249.140625 377.828125 L 248.507813 380.441406 L 248.492188 383.132813 L 249.09375 385.753906 L 247.570313 386.957031 L 245.214844 385.753906 L 246.382813 382.792969 L 246.703125 379.625 L 246.152344 376.488281 Z M 217.882813 434.503906 L 220.988281 435.199219 L 224.167969 435.027344 L 227.066406 434.054688 L 229.707031 432.277344 L 231.28125 433.75 L 233.210938 434.964844 L 235.339844 435.78125 L 237.460938 436.152344 L 235.6875 438.132813 L 234.359375 440.582031 L 233.144531 445.503906 L 232.917969 447.785156 L 233.144531 450.066406 L 234.359375 454.988281 L 235.6875 457.4375 L 237.460938 459.414063 L 233.585938 459.414063 L 231.941406 457.449219 L 229.910156 455.890625 L 227.585938 454.816406 L 225.082031 454.273438 L 222.648438 454.28125 L 220.265625 454.792969 L 218.046875 455.789063 L 216.175781 457.140625 L 217.472656 454.519531 L 218.078125 451.660156 L 219.671875 449.816406 L 220.851563 447.679688 L 221.722656 444.066406 L 221.636719 441.5 L 220.945313 438.894531 L 219.667969 436.519531 Z M 195.632813 339.488281 L 199.121094 339.886719 L 202.570313 339.230469 L 200.425781 342.699219 L 198.230469 340.789063 Z M 195.632813 339.488281 "/>
<path style=" stroke:none;fill-rule:nonzero;fill:rgb(80.392157%,58.431373%,4.705882%);fill-opacity:1;" d="M 243.277344 366.371094 L 242.992188 368.167969 L 242.167969 369.789063 L 240.878906 371.074219 L 239.257813 371.898438 L 237.460938 372.183594 L 235.664063 371.898438 L 234.042969 371.074219 L 232.757813 369.789063 L 231.929688 368.167969 L 231.644531 366.371094 L 231.929688 364.570313 L 232.757813 362.949219 L 234.042969 361.664063 L 235.664063 360.839844 L 237.460938 360.554688 L 239.257813 360.839844 L 240.878906 361.664063 L 242.167969 362.949219 L 242.992188 364.570313 Z M 243.277344 366.371094 "/>
<path style=" stroke:none;fill-rule:nonzero;fill:rgb(80.392157%,58.431373%,4.705882%);fill-opacity:1;" d="M 208.382813 370.246094 L 208.101563 372.042969 L 207.273438 373.664063 L 205.988281 374.949219 L 204.367188 375.777344 L 202.570313 376.0625 L 200.773438 375.777344 L 199.152344 374.949219 L 197.863281 373.664063 L 197.039063 372.042969 L 196.753906 370.246094 L 197.039063 368.449219 L 197.863281 366.828125 L 199.152344 365.542969 L 200.773438 364.714844 L 202.570313 364.429688 L 204.367188 364.714844 L 205.988281 365.542969 L 207.273438 366.828125 L 208.101563 368.449219 Z M 208.382813 370.246094 "/>
<path style=" stroke:none;fill-rule:nonzero;fill:rgb(80.392157%,58.431373%,4.705882%);fill-opacity:1;" d="M 208.382813 354.738281 L 208.101563 356.535156 L 207.273438 358.15625 L 205.988281 359.441406 L 204.367188 360.269531 L 202.570313 360.554688 L 200.773438 360.269531 L 199.152344 359.441406 L 197.863281 358.15625 L 197.039063 356.535156 L 196.753906 354.738281 L 197.039063 352.941406 L 197.863281 351.320313 L 199.152344 350.035156 L 200.773438 349.207031 L 202.570313 348.921875 L 204.367188 349.207031 L 205.988281 350.035156 L 207.273438 351.320313 L 208.101563 352.941406 Z M 208.382813 354.738281 "/>
<path style=" stroke:none;fill-rule:nonzero;fill:rgb(80.392157%,58.431373%,4.705882%);fill-opacity:1;" d="M 223.890625 409.015625 L 223.609375 410.8125 L 222.78125 412.433594 L 221.496094 413.71875 L 219.875 414.546875 L 218.078125 414.832031 L 216.28125 414.546875 L 214.660156 413.71875 L 213.371094 412.433594 L 212.546875 410.8125 L 212.261719 409.015625 L 212.546875 407.21875 L 213.371094 405.597656 L 214.660156 404.3125 L 216.28125 403.484375 L 218.078125 403.199219 L 219.875 403.484375 L 221.496094 404.3125 L 222.78125 405.597656 L 223.609375 407.21875 Z M 223.890625 409.015625 "/>
<path style=" stroke:none;fill-rule:nonzero;fill:rgb(80.392157%,58.431373%,4.705882%);fill-opacity:1;" d="M 196.753906 459.414063 L 196.46875 461.210938 L 195.644531 462.832031 L 194.355469 464.121094 L 192.734375 464.945313 L 190.9375 465.230469 L 189.140625 464.945313 L 187.519531 464.121094 L 186.234375 462.832031 L 185.40625 461.210938 L 185.125 459.414063 L 185.40625 457.617188 L 186.234375 455.996094 L 187.519531 454.710938 L 189.140625 453.882813 L 190.9375 453.601563 L 192.734375 453.882813 L 194.355469 454.710938 L 195.644531 455.996094 L 196.46875 457.617188 Z M 196.753906 459.414063 "/>
<path style=" stroke:none;fill-rule:nonzero;fill:rgb(80.392157%,58.431373%,4.705882%);fill-opacity:1;" d="M 196.753906 300.460938 L 196.46875 302.257813 L 195.644531 303.878906 L 194.355469 305.167969 L 192.734375 305.992188 L 190.9375 306.277344 L 189.140625 305.992188 L 187.519531 305.167969 L 186.234375 303.878906 L 185.40625 302.257813 L 185.125 300.460938 L 185.40625 298.664063 L 186.234375 297.042969 L 187.519531 295.757813 L 189.140625 294.929688 L 190.9375 294.644531 L 192.734375 294.929688 L 194.355469 295.757813 L 195.644531 297.042969 L 196.46875 298.664063 Z M 196.753906 300.460938 "/>
<path style=" stroke:none;fill-rule:nonzero;fill:rgb(80.392157%,58.431373%,4.705882%);fill-opacity:1;" d="M 289.800781 447.785156 L 289.515625 449.582031 L 288.6875 451.203125 L 287.402344 452.488281 L 285.78125 453.316406 L 283.984375 453.601563 L 282.1875 453.316406 L 280.566406 452.488281 L 279.28125 451.203125 L 278.453125 449.582031 L 278.167969 447.785156 L 278.453125 445.988281 L 279.28125 444.367188 L 280.566406 443.078125 L 282.1875 442.253906 L 283.984375 441.96875 L 285.78125 442.253906 L 287.402344 443.078125 L 288.6875 444.367188 L 289.515625 445.988281 Z M 289.800781 447.785156 "/>
<path style=" stroke:none;fill-rule:nonzero;fill:rgb(80.392157%,58.431373%,4.705882%);fill-opacity:1;" d="M 235.523438 304.339844 L 235.238281 306.136719 L 234.414063 307.757813 L 233.125 309.042969 L 231.503906 309.871094 L 229.707031 310.152344 L 227.910156 309.871094 L 226.289063 309.042969 L 225.003906 307.757813 L 224.175781 306.136719 L 223.890625 304.339844 L 224.175781 302.542969 L 225.003906 300.921875 L 226.289063 299.632813 L 227.910156 298.808594 L 229.007813 298.632813 L 229.304688 299.0625 L 234.765625 301.609375 L 235.238281 302.542969 Z M 235.523438 304.339844 "/>
<path style=" stroke:none;fill-rule:nonzero;fill:rgb(80.392157%,58.431373%,4.705882%);fill-opacity:1;" d="M 247.152344 343.109375 L 246.871094 344.90625 L 246.042969 346.527344 L 244.757813 347.8125 L 243.136719 348.636719 L 241.339844 348.921875 L 239.542969 348.636719 L 237.921875 347.8125 L 236.632813 346.527344 L 235.808594 344.90625 L 235.523438 343.109375 L 235.808594 341.3125 L 236.632813 339.691406 L 237.921875 338.402344 L 239.542969 337.578125 L 241.339844 337.292969 L 243.136719 337.578125 L 244.757813 338.402344 L 245.8125 339.457031 L 244.589844 338.644531 L 243.40625 338.558594 L 241.210938 339.871094 L 241.886719 340.445313 L 246.390625 340.371094 L 246.871094 341.3125 Z M 247.152344 343.109375 "/>
<path style=" stroke:none;fill-rule:nonzero;fill:rgb(80.392157%,58.431373%,4.705882%);fill-opacity:1;" d="M 200.628906 424.523438 L 200.347656 426.320313 L 199.519531 427.941406 L 198.234375 429.226563 L 196.613281 430.054688 L 194.816406 430.339844 L 192.5625 429.820313 L 195.792969 425.3125 L 197.929688 424.472656 L 198.285156 423.78125 L 198.070313 423.238281 L 197.8125 423.082031 L 196.09375 424.355469 L 191.308594 429.140625 L 190.109375 427.941406 L 189.285156 426.320313 L 189 424.523438 L 189.285156 422.726563 L 190.109375 421.105469 L 191.398438 419.816406 L 193.019531 418.992188 L 194.816406 418.707031 L 196.613281 418.992188 L 198.234375 419.816406 L 199.519531 421.105469 L 200.347656 422.726563 Z M 200.628906 424.523438 "/>
<path style=" stroke:none;fill-rule:nonzero;fill:rgb(80.392157%,58.431373%,4.705882%);fill-opacity:1;" d="M 196.683594 424.960938 L 196.46875 426.320313 L 195.644531 427.941406 L 194.355469 429.226563 L 192.355469 430.113281 L 195.792969 425.3125 Z M 190.335938 430.242188 L 189.140625 430.054688 L 187.519531 429.226563 L 186.234375 427.941406 L 185.40625 426.320313 L 185.125 424.523438 L 185.40625 422.726563 L 186.234375 421.105469 L 187.519531 419.816406 L 189.140625 418.992188 L 190.9375 418.707031 L 192.734375 418.992188 L 194.355469 419.816406 L 195.644531 421.105469 L 196.46875 422.726563 L 196.660156 423.9375 L 192.90625 427.300781 Z M 190.335938 430.242188 "/>
<path style=" stroke:none;fill-rule:nonzero;fill:rgb(80.392157%,58.431373%,4.705882%);fill-opacity:1;" d="M 177.371094 467.167969 L 176.703125 469.714844 L 174.339844 470.335938 L 169.929688 472.726563 L 168.136719 471.875 L 166.847656 470.585938 L 166.023438 468.964844 L 165.738281 467.167969 L 166.023438 465.371094 L 166.847656 463.75 L 168.136719 462.464844 L 169.757813 461.636719 L 171.554688 461.355469 L 173.351563 461.636719 L 174.972656 462.464844 L 176.257813 463.75 L 177.085938 465.371094 Z M 177.371094 467.167969 "/>
<path style=" stroke:none;fill-rule:nonzero;fill:rgb(80.392157%,58.431373%,4.705882%);fill-opacity:1;" d="M 264.039063 375.003906 L 262.519531 375.777344 L 260.722656 376.0625 L 258.925781 375.777344 L 257.304688 374.949219 L 256.019531 373.664063 L 255.191406 372.042969 L 254.90625 370.246094 L 255.191406 368.449219 L 256.019531 366.828125 L 257.304688 365.542969 L 258.925781 364.714844 L 260.722656 364.429688 L 262.519531 364.714844 L 264.140625 365.542969 L 265.429688 366.828125 L 266.066406 368.082031 L 261.394531 373.164063 L 260.601563 374.816406 L 262.84375 374.3125 Z M 264.039063 375.003906 "/>
<path style=" stroke:none;fill-rule:nonzero;fill:rgb(80.392157%,58.431373%,4.705882%);fill-opacity:1;" d="M 126.96875 486.554688 L 126.683594 488.351563 L 125.792969 490.039063 L 124.039063 490.597656 L 123.777344 491.664063 L 122.949219 492.085938 L 121.152344 492.371094 L 119.355469 492.085938 L 117.734375 491.257813 L 116.449219 489.972656 L 115.53125 487.765625 L 121.425781 483.085938 L 123.164063 481.132813 L 124.570313 481.847656 L 125.859375 483.136719 L 126.683594 484.757813 Z M 126.96875 486.554688 "/>
<path style=" stroke:none;fill-rule:nonzero;fill:rgb(80.392157%,58.431373%,4.705882%);fill-opacity:1;" d="M 185.125 242.308594 L 184.839844 244.105469 L 184.011719 245.726563 L 182.726563 247.011719 L 181.105469 247.839844 L 179.308594 248.125 L 177.511719 247.839844 L 175.890625 247.011719 L 174.601563 245.726563 L 173.777344 244.105469 L 173.492188 242.308594 L 173.679688 241.125 L 178.0625 241.875 L 182.921875 243.167969 Z M 174.125 239.832031 L 174.601563 238.890625 L 175.890625 237.601563 L 177.511719 236.777344 L 179.308594 236.492188 L 180.691406 236.710938 L 180.578125 237.003906 L 174.761719 240.109375 Z M 174.125 239.832031 "/>
<path style=" stroke:none;fill-rule:nonzero;fill:rgb(80.392157%,58.431373%,4.705882%);fill-opacity:1;" d="M 164.636719 483.695313 L 162.972656 482.21875 L 162.144531 480.597656 L 161.863281 478.800781 L 162.144531 477.003906 L 162.972656 475.382813 L 164.257813 474.09375 L 165.878906 473.269531 L 167.675781 472.984375 L 169.050781 473.203125 L 168.214844 474.070313 L 167.203125 476.179688 Z M 164.636719 483.695313 "/>
<path style=" stroke:none;fill-rule:nonzero;fill:rgb(80.392157%,58.431373%,4.705882%);fill-opacity:1;" d="M 185.125 346.984375 L 184.839844 348.78125 L 184.011719 350.402344 L 182.5 351.804688 L 179.976563 346.332031 L 182.347656 342.085938 L 184.011719 343.566406 L 184.839844 345.1875 Z M 185.125 346.984375 "/>
</g>
</svg>
