<?xml version="1.0" encoding="UTF-8"?>
<svg xmlns="http://www.w3.org/2000/svg" xmlns:xlink="http://www.w3.org/1999/xlink" width="378pt" height="504pt" viewBox="0 0 378 504" version="1.1">
<g id="data">
<rect x="0" y="0" width="378" height="504" style="fill:rgb(100%,100%,100%);fill-opacity:1;stroke:none;"/>
<path style=" stroke:none;fill-rule:nonzero;fill:rgb(100%,100%,100%);fill-opacity:1;" d="M 53.308594 504 L 324.691406 504 L 324.691406 0 L 53.308594 0 Z M 53.308594 504 "/>
<path style=" stroke:none;fill-rule:nonzero;fill:rgb(22.745098%,53.333333%,16.078431%);fill-opacity:1;" d="M 238.59375 410.925781 L 237.132813 409.804688 L 236.09375 408.28125 L 235.585938 406.507813 L 235.65625 404.664063 L 236.300781 402.9375 L 237.453125 401.5 L 239 400.496094 L 240.78125 400.023438 L 242.480469 399.855469 L 243.648438 399.492188 L 244.714844 398.890625 L 245.554688 398.164063 L 246.304688 397.175781 L 246.789063 396.175781 L 247.089844 394.972656 L 247.160156 393.269531 L 247.539063 391.429688 L 248.480469 389.808594 L 249.890625 388.574219 L 251.621094 387.851563 L 253.492188 387.714844 L 255.308594 388.183594 L 256.882813 389.203125 L 258.046875 390.675781 L 259.484375 393.25 L 260.960938 394.546875 L 262.726563 395.261719 L 265.269531 395.425781 L 267.191406 395.0625 L 268.679688 394.269531 L 269.886719 393.0625 L 271.089844 390.785156 L 272.089844 389.421875 L 273.441406 388.40625 L 275.027344 387.820313 L 276.714844 387.710938 L 278.359375 388.097656 L 280.773438 389.046875 L 282.476563 389.1875 L 283.710938 388.964844 L 285.554688 388.167969 L 287.488281 387.703125 L 289.585938 387.570313 L 290.980469 387.128906 L 291.914063 386.582031 L 292.757813 385.832031 L 293.5 384.839844 L 294.222656 383.289063 L 295.332031 381.691406 L 296.90625 380.546875 L 298.765625 379.984375 L 300.710938 380.066406 L 302.519531 380.789063 L 303.988281 382.0625 L 306.3125 384.898438 L 306.835938 385.785156 L 307.179688 391.25 L 306.777344 393.191406 L 306.890625 393.976563 L 305.789063 396.917969 L 305.347656 399.039063 L 304.144531 399.671875 L 303 400.726563 L 302.230469 401.929688 L 301.757813 403.429688 L 301.683594 404.777344 L 301.96875 406.226563 L 302.609375 407.554688 L 303.160156 408.210938 L 297.144531 414.53125 L 295.578125 412.011719 L 292.742188 410.515625 L 292.480469 410.636719 L 293.898438 413.703125 L 295.890625 416.628906 L 296.3125 416.765625 L 296.164063 417.742188 L 295.429688 418.691406 L 294.695313 418.632813 L 291.53125 418.128906 L 287.347656 418.867188 L 286.285156 419.25 L 285.351563 419.796875 L 284.539063 420.511719 L 283.539063 421.792969 L 282.28125 422.980469 L 281.785156 423.226563 L 282.027344 423.460938 L 280.71875 424.230469 L 282.339844 425.378906 L 282.917969 425.175781 L 283.617188 427.121094 L 284.894531 428.976563 L 285.6875 430.640625 L 285.714844 430.847656 L 285.6875 430.875 L 283.441406 432.558594 L 282.84375 432.699219 L 279.644531 432.160156 L 274.75 433.78125 L 272.609375 436.117188 L 274.253906 436.015625 L 275.152344 434.667969 L 276.683594 434.363281 L 278.285156 434.328125 L 281.054688 434.949219 L 281.828125 435.589844 L 281.691406 436.328125 L 279.554688 436.347656 L 277.589844 437.539063 L 275.523438 436.734375 L 272.996094 436.554688 L 271.28125 436.164063 L 269.761719 435.28125 L 268.574219 433.984375 L 267.828125 432.390625 L 267.59375 430.648438 L 267.890625 428.917969 L 268.691406 427.351563 L 269.921875 426.097656 L 271.578125 424.855469 L 272.894531 423.261719 L 274.195313 422.097656 L 274.519531 421.949219 L 274.457031 421.890625 L 273.574219 420.40625 L 272.394531 417.515625 L 270.328125 415.015625 L 268.71875 414.019531 L 266.664063 413.570313 L 265.335938 413.679688 L 263.953125 414.164063 L 262.75 414.972656 L 261.222656 416.71875 L 259.703125 417.957031 L 257.855469 418.621094 L 256.28125 418.898438 L 255.207031 419.308594 L 254.234375 419.921875 L 253.066406 421.011719 L 251.585938 422.023438 L 249.863281 422.535156 L 248.066406 422.492188 L 246.371094 421.90625 L 244.933594 420.832031 L 243.890625 419.371094 L 243.34375 417.660156 L 242.9375 415.03125 L 242.15625 413.457031 L 240.933594 412.191406 Z M 284.074219 436.429688 L 283.3125 437.128906 L 282.1875 437.636719 L 282.164063 437.605469 L 282.484375 436.070313 Z M 251.183594 464.445313 L 251.054688 462.777344 L 251.539063 460.917969 L 252.601563 459.316406 L 253.695313 458.152344 L 254.316406 457.164063 L 254.691406 456.195313 L 255 454.496094 L 255.582031 452.820313 L 256.640625 451.398438 L 258.078125 450.359375 L 259.761719 449.804688 L 261.535156 449.78125 L 263.234375 450.292969 L 264.699219 451.292969 L 265.863281 452.386719 L 266.839844 453 L 267.914063 453.410156 L 269.488281 453.6875 L 271.246094 454.300781 L 272.722656 455.441406 L 273.761719 456.984375 L 274.257813 458.78125 L 274.160156 460.640625 L 273.480469 462.378906 L 272.289063 463.808594 L 269.992188 465.796875 L 268.726563 466.636719 L 268.722656 466.636719 L 259.269531 463.777344 L 256.070313 463.507813 Z M 242.867188 367.8125 L 241.324219 366.816406 L 240.171875 365.386719 L 239.519531 363.671875 L 239.4375 361.839844 L 239.929688 360.070313 L 240.945313 358.542969 L 242.386719 357.410156 L 244.113281 356.78125 L 245.988281 356.417969 L 246.898438 356.03125 L 249.328125 354.082031 L 250.523438 353.339844 L 253.289063 352.054688 L 254.738281 350.78125 L 256.144531 349.867188 L 257.757813 349.390625 L 259.4375 349.394531 L 261.042969 349.878906 L 262.445313 350.804688 L 263.527344 352.089844 L 265.667969 355.558594 L 266.386719 357.292969 L 266.511719 359.164063 L 266.035156 360.980469 L 265.003906 362.550781 L 263.527344 363.710938 L 261.011719 365.097656 L 259.789063 366.429688 L 259.039063 368.09375 L 258.753906 370.84375 L 258.253906 372.675781 L 257.1875 374.246094 L 255.675781 375.394531 L 253.875 375.992188 L 251.976563 375.976563 L 250.183594 375.351563 L 248.6875 374.183594 L 247.648438 372.59375 L 246.796875 370.667969 L 245.953125 369.574219 L 244.777344 368.65625 Z M 221.628906 378.8125 L 219.871094 378.753906 L 218.210938 378.167969 L 216.800781 377.117188 L 215.769531 375.691406 L 215.214844 374.019531 L 215.179688 372.261719 L 215.675781 370.574219 L 216.644531 368.507813 L 217.035156 366.386719 L 217.605469 364.734375 L 218.640625 363.328125 L 220.046875 362.289063 L 221.695313 361.71875 L 223.441406 361.664063 L 225.125 362.128906 L 226.59375 363.070313 L 227.71875 364.410156 L 229.25 366.917969 L 231.53125 368.773438 L 232.796875 370.210938 L 233.527344 371.976563 L 233.644531 373.886719 L 233.140625 375.730469 L 232.0625 377.308594 L 230.527344 378.453125 L 228.707031 379.039063 L 226.796875 379.003906 L 224.164063 378.511719 Z M 209.605469 355.957031 L 207.839844 355.4375 L 206.320313 354.390625 L 205.207031 352.921875 L 204.609375 351.175781 L 204.589844 349.332031 L 205.148438 347.574219 L 206.226563 346.078125 L 207.722656 344.996094 L 209.671875 344.015625 L 210.761719 343.058594 L 211.589844 341.851563 L 212.304688 339.90625 L 213.136719 338.394531 L 214.375 337.195313 L 215.910156 336.410156 L 217.605469 336.105469 L 219.316406 336.316406 L 220.890625 337.019531 L 222.191406 338.152344 L 223.101563 339.617188 L 223.542969 341.285156 L 223.75 343.175781 L 224.160156 344.375 L 224.816406 345.453125 L 226.140625 346.824219 L 227.128906 348.207031 L 227.671875 349.8125 L 227.734375 351.507813 L 227.300781 353.148438 L 226.480469 355.066406 L 226.144531 356.996094 L 225.511719 358.804688 L 224.328125 360.308594 L 222.71875 361.34375 L 220.863281 361.804688 L 218.957031 361.632813 L 217.207031 360.855469 L 215.804688 359.550781 L 214.40625 357.734375 L 213.195313 356.8125 L 211.773438 356.234375 Z M 202.570313 399.324219 L 200.90625 399.078125 L 199.382813 398.371094 L 198.121094 397.257813 L 197.238281 395.828125 L 196.796875 394.203125 L 196.835938 392.523438 L 197.335938 389.628906 L 196.835938 386.738281 L 196.835938 384.773438 L 197.488281 382.921875 L 198.722656 381.394531 L 200.390625 380.363281 L 202.308594 379.945313 L 204.085938 379.863281 L 205.691406 379.46875 L 207.632813 379.324219 L 209.511719 379.828125 L 211.121094 380.925781 L 212.277344 382.492188 L 212.851563 384.351563 L 212.78125 386.296875 L 212.269531 388.746094 L 212.261719 393.519531 L 211.972656 395.3125 L 211.148438 396.933594 L 209.859375 398.214844 L 208.242188 399.039063 L 206.445313 399.324219 Z M 202.570313 399.324219 "/>
<path style=" stroke:none;fill-rule:nonzero;fill:rgb(80.392157%,58.431373%,4.705882%);fill-opacity:1;" d="M 196.753906 312.09375 L 196.46875 313.890625 L 195.644531 315.511719 L 194.355469 316.796875 L 192.734375 317.625 L 190.9375 317.90625 L 189.140625 317.625 L 187.519531 316.796875 L 186.234375 315.511719 L 185.40625 313.890625 L 185.125 312.09375 L 185.40625 310.296875 L 186.234375 308.675781 L 187.519531 307.386719 L 189.140625 306.5625 L 190.9375 306.277344 L 192.734375 306.5625 L 194.355469 307.386719 L 195.644531 308.675781 L 196.46875 310.296875 Z M 196.753906 312.09375 "/>
<path style=" stroke:none;fill-rule:nonzero;fill:rgb(80.392157%,58.431373%,4.705882%);fill-opacity:1;" d="M 165.738281 478.800781 L 165.453125 480.597656 L 164.628906 482.21875 L 163.339844 483.503906 L 161.71875 484.332031 L 159.921875 484.617188 L 158.125 484.332031 L 156.503906 483.503906 L 155.21875 482.21875 L 154.390625 480.597656 L 154.109375 478.800781 L 154.390625 477.003906 L 155.21875 475.382813 L 156.503906 474.09375 L 158.125 473.269531 L 159.921875 472.984375 L 161.71875 473.269531 L 163.339844 474.09375 L 164.628906 475.382813 L 165.453125 477.003906 Z M 165.738281 478.800781 "/>
<path style=" stroke:none;fill-rule:nonzero;fill:rgb(80.392157%,58.431373%,4.705882%);fill-opacity:1;" d="M 239.398438 440.03125 L 239.117188 441.828125 L 238.289063 443.449219 L 237.003906 444.734375 L 235.382813 445.5625 L 233.585938 445.847656 L 231.789063 445.5625 L 230.167969 444.734375 L 228.878906 443.449219 L 228.054688 441.828125 L 227.769531 440.03125 L 228.054688 438.234375 L 228.878906 436.613281 L 230.167969 435.324219 L 231.789063 434.5 L 233.585938 434.214844 L 235.382813 434.5 L 237.003906 435.324219 L 238.289063 436.613281 L 239.117188 438.234375 Z M 239.398438 440.03125 "/>
<path style=" stroke:none;fill-rule:nonzero;fill:rgb(80.392157%,58.431373%,4.705882%);fill-opacity:1;" d="M 227.769531 409.015625 L 227.484375 410.8125 L 226.660156 412.433594 L 225.371094 413.71875 L 223.75 414.546875 L 221.953125 414.832031 L 220.15625 414.546875 L 218.535156 413.71875 L 217.25 412.433594 L 216.421875 410.8125 L 216.136719 409.015625 L 216.421875 407.21875 L 217.25 405.597656 L 218.535156 404.3125 L 220.15625 403.484375 L 221.953125 403.199219 L 223.75 403.484375 L 225.371094 404.3125 L 226.660156 405.597656 L 227.484375 407.21875 Z M 227.769531 409.015625 "/>
<path style=" stroke:none;fill-rule:nonzero;fill:rgb(80.392157%,58.431373%,4.705882%);fill-opacity:1;" d="M 192.875 211.292969 L 192.59375 213.089844 L 191.765625 214.710938 L 190.480469 215.996094 L 188.859375 216.824219 L 187.0625 217.109375 L 185.265625 216.824219 L 183.644531 215.996094 L 182.355469 214.710938 L 181.53125 213.089844 L 181.246094 211.292969 L 181.53125 209.496094 L 182.355469 207.875 L 183.644531 206.585938 L 185.265625 205.761719 L 187.0625 205.476563 L 188.859375 205.761719 L 190.480469 206.585938 L 191.765625 207.875 L 192.59375 209.496094 Z M 192.875 211.292969 "/>
<path style=" stroke:none;fill-rule:nonzero;fill:rgb(80.392157%,58.431373%,4.705882%);fill-opacity:1;" d="M 266.539063 440.03125 L 266.253906 441.828125 L 265.429688 443.449219 L 264.140625 444.734375 L 262.519531 445.5625 L 260.722656 445.847656 L 258.925781 445.5625 L 257.304688 444.734375 L 256.019531 443.449219 L 255.191406 441.828125 L 254.90625 440.03125 L 255.191406 438.234375 L 256.019531 436.613281 L 257.304688 435.324219 L 258.925781 434.5 L 260.722656 434.214844 L 262.519531 434.5 L 264.140625 435.324219 L 265.429688 436.613281 L 266.253906 438.234375 Z M 266.539063 440.03125 "/>
<path style=" stroke:none;fill-rule:nonzero;fill:rgb(80.392157%,58.431373%,4.705882%);fill-opacity:1;" d="M 200.628906 436.152344 L 200.347656 437.949219 L 199.519531 439.570313 L 198.234375 440.859375 L 196.613281 441.683594 L 194.816406 441.96875 L 193.019531 441.683594 L 191.398438 440.859375 L 190.109375 439.570313 L 189.285156 437.949219 L 189 436.152344 L 189.285156 434.355469 L 189.921875 433.105469 L 190.867188 432.195313 L 191.402344 431.445313 L 193.019531 430.625 L 194.816406 430.339844 L 196.613281 430.625 L 198.234375 431.449219 L 199.519531 432.734375 L 200.347656 434.355469 Z M 200.628906 436.152344 "/>
<path style=" stroke:none;fill-rule:nonzero;fill:rgb(80.392157%,58.431373%,4.705882%);fill-opacity:1;" d="M 181.246094 362.492188 L 180.960938 364.289063 L 180.136719 365.910156 L 178.847656 367.195313 L 177.226563 368.023438 L 175.429688 368.308594 L 173.632813 368.023438 L 172.011719 367.195313 L 170.726563 365.910156 L 169.898438 364.289063 L 169.617188 362.492188 L 169.898438 360.695313 L 170.726563 359.074219 L 172.011719 357.789063 L 173.632813 356.960938 L 175.429688 356.675781 L 176.726563 356.882813 L 179.910156 359.441406 L 180.113281 359.050781 L 180.136719 359.074219 L 180.960938 360.695313 Z M 181.246094 362.492188 "/>
<path style=" stroke:none;fill-rule:nonzero;fill:rgb(80.392157%,58.431373%,4.705882%);fill-opacity:1;" d="M 204.507813 424.523438 L 204.222656 426.320313 L 203.398438 427.941406 L 202.109375 429.226563 L 200.488281 430.054688 L 198.691406 430.339844 L 196.894531 430.054688 L 195.273438 429.226563 L 193.988281 427.941406 L 193.957031 427.878906 L 195.792969 425.3125 L 197.929688 424.472656 L 198.285156 423.78125 L 198.070313 423.238281 L 197.8125 423.082031 L 196.09375 424.355469 L 193.417969 426.828125 L 193.160156 426.320313 L 192.875 424.523438 L 193.160156 422.726563 L 193.988281 421.105469 L 195.273438 419.816406 L 196.894531 418.992188 L 198.691406 418.707031 L 200.488281 418.992188 L 202.109375 419.816406 L 203.398438 421.105469 L 204.222656 422.726563 Z M 204.507813 424.523438 "/>
<path style=" stroke:none;fill-rule:nonzero;fill:rgb(80.392157%,58.431373%,4.705882%);fill-opacity:1;" d="M 192.875 440.03125 L 192.59375 441.828125 L 191.765625 443.449219 L 190.480469 444.734375 L 188.859375 445.5625 L 187.0625 445.847656 L 185.265625 445.5625 L 183.644531 444.734375 L 182.355469 443.449219 L 181.679688 442.117188 L 182.519531 440.25 L 188.53125 434.449219 L 188.859375 434.5 L 190.480469 435.324219 L 191.765625 436.613281 L 192.59375 438.234375 Z M 192.875 440.03125 "/>
<path style=" stroke:none;fill-rule:nonzero;fill:rgb(80.392157%,58.431373%,4.705882%);fill-opacity:1;" d="M 165.738281 428.398438 L 165.453125 430.195313 L 164.628906 431.816406 L 163.339844 433.105469 L 161.835938 433.871094 L 161.371094 433.375 L 159.03125 429.199219 L 155.65625 429.589844 L 154.382813 430.132813 L 154.109375 428.398438 L 154.390625 426.601563 L 155.21875 424.980469 L 156.503906 423.695313 L 158.125 422.871094 L 159.921875 422.585938 L 161.71875 422.871094 L 163.339844 423.695313 L 164.628906 424.980469 L 165.453125 426.601563 Z M 165.738281 428.398438 "/>
<path style=" stroke:none;fill-rule:nonzero;fill:rgb(80.392157%,58.431373%,4.705882%);fill-opacity:1;" d="M 146.355469 242.308594 L 146.328125 242.46875 L 141.261719 240.453125 L 140.441406 240.5625 L 139.386719 240.085938 L 139.183594 238.121094 L 139.382813 236.675781 L 140.539063 236.492188 L 142.335938 236.777344 L 143.957031 237.601563 L 145.242188 238.890625 L 146.070313 240.511719 Z M 146.214844 243.179688 L 146.070313 244.105469 L 145.242188 245.726563 L 143.957031 247.011719 L 142.335938 247.839844 L 140.539063 248.125 L 138.742188 247.839844 L 138.019531 247.472656 L 138.6875 242.234375 L 140.710938 241.59375 L 142.886719 242.511719 L 146.15625 243.175781 Z M 135.476563 245.027344 L 135.007813 244.105469 L 134.722656 242.308594 L 135.007813 240.511719 L 135.832031 238.890625 L 137.121094 237.601563 L 138.742188 236.777344 L 138.964844 236.742188 L 138.320313 240.257813 L 136.15625 245.152344 Z M 135.476563 245.027344 "/>
<path style=" stroke:none;fill-rule:nonzero;fill:rgb(80.392157%,58.431373%,4.705882%);fill-opacity:1;" d="M 227.769531 467.167969 L 227.484375 468.964844 L 226.660156 470.585938 L 225.371094 471.875 L 224.507813 472.3125 L 222.296875 470.886719 L 220.207031 471.1875 L 221.476563 469.683594 L 227.316406 466.367188 L 227.65625 466.457031 Z M 216.261719 467.957031 L 216.136719 467.167969 L 216.421875 465.371094 L 217.25 463.75 L 218.535156 462.464844 L 220.15625 461.636719 L 221.953125 461.355469 L 223.75 461.636719 L 225.371094 462.464844 L 226.660156 463.75 L 227.484375 465.371094 L 227.519531 465.585938 L 226.691406 465.496094 L 219.566406 468.449219 L 217.054688 467.824219 Z M 216.261719 467.957031 "/>
<path style=" stroke:none;fill-rule:nonzero;fill:rgb(80.392157%,58.431373%,4.705882%);fill-opacity:1;" d="M 230.6875 299.707031 L 230.535156 300.003906 L 229.25 301.289063 L 227.628906 302.117188 L 225.832031 302.398438 L 224.035156 302.117188 L 222.414063 301.289063 L 221.125 300.003906 L 220.300781 298.382813 L 220.015625 296.585938 L 220.300781 294.789063 L 221.125 293.167969 L 222.414063 291.878906 L 224.035156 291.054688 L 225.160156 290.875 L 225.945313 294.183594 L 229.304688 299.0625 Z M 230.6875 299.707031 "/>
<path style=" stroke:none;fill-rule:nonzero;fill:rgb(80.392157%,58.431373%,4.705882%);fill-opacity:1;" d="M 185.125 242.308594 L 184.839844 244.105469 L 184.011719 245.726563 L 182.726563 247.011719 L 181.105469 247.839844 L 179.308594 248.125 L 177.511719 247.839844 L 175.890625 247.011719 L 174.601563 245.726563 L 173.777344 244.105469 L 173.492188 242.308594 L 173.679688 241.125 L 178.0625 241.875 L 182.921875 243.167969 L 185.117188 242.261719 Z M 174.125 239.832031 L 174.601563 238.890625 L 175.890625 237.601563 L 177.511719 236.777344 L 179.308594 236.492188 L 180.691406 236.710938 L 180.578125 237.003906 L 174.761719 240.109375 Z M 174.125 239.832031 "/>
<path style=" stroke:none;fill-rule:nonzero;fill:rgb(80.392157%,58.431373%,4.705882%);fill-opacity:1;" d="M 147.992188 317.859375 L 146.496094 317.625 L 144.875 316.796875 L 143.585938 315.511719 L 142.824219 314.011719 L 144.765625 310.230469 L 145.863281 309.40625 L 149.046875 308.269531 L 150.203125 313.453125 Z M 147.992188 317.859375 "/>
<path style=" stroke:none;fill-rule:nonzero;fill:rgb(80.392157%,58.431373%,4.705882%);fill-opacity:1;" d="M 262.355469 348.664063 L 260.722656 348.921875 L 258.925781 348.636719 L 257.304688 347.8125 L 256.019531 346.527344 L 255.191406 344.90625 L 254.90625 343.109375 L 254.925781 343.003906 L 260.535156 347.621094 Z M 255.390625 340.921875 L 256.019531 339.691406 L 257.304688 338.402344 L 258.925781 337.578125 L 259.730469 337.449219 L 263.316406 342.46875 L 263.640625 343.980469 L 262.804688 345.191406 L 263.28125 343.65625 L 262.507813 342.839844 L 260.445313 342 L 258.378906 342.789063 L 257.507813 342.753906 L 256.035156 341.773438 Z M 255.390625 340.921875 "/>
<path style=" stroke:none;fill-rule:nonzero;fill:rgb(80.392157%,58.431373%,4.705882%);fill-opacity:1;" d="M 190.710938 470.902344 L 191.398438 470.21875 L 193.019531 469.390625 L 194.816406 469.109375 L 196.613281 469.390625 L 198.234375 470.21875 L 199.519531 471.503906 L 199.925781 472.300781 L 197.625 472.007813 L 196.175781 472.65625 L 195.679688 473.863281 L 195.832031 474.871094 L 196.757813 475.523438 L 196.488281 476.304688 L 195.917969 475.996094 L 194.851563 473.972656 Z M 190.710938 470.902344 "/>
<path style=" stroke:none;fill-rule:nonzero;fill:rgb(80.392157%,58.431373%,4.705882%);fill-opacity:1;" d="M 138.601563 467.167969 L 138.316406 468.964844 L 137.488281 470.585938 L 136.203125 471.875 L 134.582031 472.699219 L 132.785156 472.984375 L 131.359375 472.757813 L 132.105469 472.640625 L 132.679688 471.785156 L 133.257813 469.527344 L 135.859375 467.5625 L 138.183594 465.113281 L 138.316406 465.371094 Z M 138.601563 467.167969 "/>
</g>
</svg>
