<?xml version="1.0" encoding="UTF-8"?>
<svg xmlns="http://www.w3.org/2000/svg" xmlns:xlink="http://www.w3.org/1999/xlink" width="378pt" height="504pt" viewBox="0 0 378 504" version="1.1">
<g id="data">
<rect x="0" y="0" width="378" height="504" style="fill:rgb(100%,100%,100%);fill-opacity:1;stroke:none;"/>
<path style=" stroke:none;fill-rule:nonzero;fill:rgb(100%,100%,100%);fill-opacity:1;" d="M 53.308594 504 L 324.691406 504 L 324.691406 0 L 53.308594 0 Z M 53.308594 504 "/>
<path style=" stroke:none;fill-rule:nonzero;fill:rgb(22.745098%,53.333333%,16.078431%);fill-opacity:1;" d="M 299.492188 385.753906 L 299.867188 387.875 L 300.679688 390.003906 L 301.894531 391.933594 L 303.371094 393.507813 L 300.761719 394.878906 L 298.585938 396.863281 L 296.976563 399.328125 L 296.035156 402.121094 L 295.828125 405.058594 L 296.367188 407.957031 L 297.613281 410.625 L 299.125 412.449219 L 298.703125 412.890625 L 296.125 412.890625 L 295.578125 412.011719 L 292.742188 410.515625 L 292.480469 410.636719 L 293.355469 412.53125 L 292.324219 412.367188 L 289.265625 412.726563 L 285.644531 414.351563 L 282.785156 417.101563 L 280.972656 420.777344 L 280.550781 424.847656 L 281.621094 428.933594 L 283.925781 432.195313 L 283.8125 432.28125 L 280.644531 432.328125 L 279.644531 432.160156 L 274.75 433.78125 L 273.734375 434.886719 L 273.4375 435.082031 L 270.5625 437.617188 L 269.167969 439.300781 L 268.113281 441.214844 L 267.410156 443.417969 L 267.152344 445.71875 L 267.359375 448.023438 L 268.015625 450.238281 L 269.097656 452.285156 L 270.5625 454.074219 L 272.355469 455.539063 L 270.558594 457.796875 L 267.003906 460.808594 L 265.089844 462.046875 L 263.089844 462.847656 L 260.722656 463.292969 L 256.847656 463.292969 L 257.472656 460.40625 L 257.355469 457.457031 L 256.496094 454.628906 L 254.875 452.011719 L 252.621094 449.914063 L 250.015625 448.523438 L 247.144531 447.832031 L 244.058594 447.84375 L 241.546875 448.378906 L 239.105469 449.519531 L 236.992188 451.191406 L 235.320313 453.304688 L 234.027344 456.238281 L 233.585938 459.414063 L 231.523438 461.816406 L 230.226563 464.5625 L 229.996094 465.855469 L 226.691406 465.496094 L 222.445313 467.257813 L 221.953125 467.167969 L 225.605469 465.078125 L 227.128906 463.527344 L 228.332031 461.714844 L 229.449219 458.722656 L 229.707031 455.539063 L 232.558594 452.964844 L 234.417969 449.601563 L 235.0625 446.332031 L 234.785156 443.140625 L 233.585938 440.03125 L 232.714844 436.472656 L 231.410156 434.152344 L 229.707031 432.277344 L 229.332031 430.15625 L 228.519531 428.023438 L 227.382813 426.195313 L 224.554688 422.808594 L 221.953125 420.644531 L 219.828125 418.242188 L 217.476563 416.679688 L 213.929688 415.566406 L 210.210938 415.625 L 207.277344 416.566406 L 204.597656 418.328125 L 202.570313 420.644531 L 199.800781 423 L 196.851563 427.300781 L 195.851563 430.609375 L 195.851563 433.941406 L 196.847656 437.253906 L 198.691406 440.03125 L 194.519531 440.554688 L 190.804688 442.53125 L 188.101563 445.589844 L 186.3125 449.832031 L 185.929688 453.136719 L 186.464844 456.292969 L 187.90625 459.289063 L 190.039063 461.671875 L 192.863281 463.4375 L 196.066406 464.332031 L 199.394531 464.28125 L 202.570313 463.292969 L 203.863281 465.785156 L 205.71875 467.898438 L 206.886719 468.699219 L 206.257813 469.738281 L 205.304688 469.570313 L 201.488281 469.980469 L 197.695313 471.835938 L 197.472656 472.074219 L 196.175781 472.65625 L 195.679688 473.863281 L 195.695313 473.980469 L 195.15625 474.554688 L 194.851563 473.972656 L 193.925781 473.289063 L 193.046875 471.671875 L 190.347656 469.140625 L 186.867188 467.550781 L 183.183594 467.167969 L 183.457031 463.488281 L 182.5625 459.90625 L 181.234375 457.578125 L 179.308594 455.539063 L 177.699219 452.046875 L 175.738281 449.839844 L 173.5625 448.414063 L 180.570313 447.503906 L 181.109375 445.632813 L 181.210938 443.15625 L 182.519531 440.25 L 190.867188 432.195313 L 195.792969 425.3125 L 197.929688 424.472656 L 198.285156 423.78125 L 198.070313 423.238281 L 197.8125 423.082031 L 196.09375 424.355469 L 192.90625 427.300781 L 190.570313 429.988281 L 189.222656 431.449219 L 185.628906 432.957031 L 183.714844 433.246094 L 182.441406 433.0625 L 178.394531 435.230469 L 177.398438 436.808594 L 177.039063 438.671875 L 176.445313 439.273438 L 174.058594 439.917969 L 170.558594 439.851563 L 166.820313 439 L 166.347656 438.652344 L 162.183594 434.238281 L 161.921875 433.890625 L 161.566406 433.585938 L 161.371094 433.375 L 159.03125 429.199219 L 156.179688 429.527344 L 155.71875 429.265625 L 153.15625 428.523438 L 159.921875 428.398438 L 162.710938 428.714844 L 165.121094 428.441406 L 168.664063 427.019531 L 171.554688 424.523438 L 174.199219 426.316406 L 177.234375 427.324219 L 180.429688 427.464844 L 183.660156 426.683594 L 186.128906 425.328125 L 188.117188 423.519531 L 190.070313 420.371094 L 190.9375 416.769531 L 193.023438 415.792969 L 194.878906 414.425781 L 196.425781 412.71875 L 197.660156 410.625 L 198.511719 407.945313 L 198.691406 405.136719 L 199.347656 401.769531 L 199.222656 399.484375 L 198.382813 395.507813 L 197.503906 393.132813 L 196.210938 391.101563 L 193.84375 388.660156 L 191.816406 387.210938 L 193.980469 387.183594 L 196.222656 386.722656 L 198.21875 385.890625 L 200.125 384.625 L 204.714844 379.523438 L 205.824219 377.511719 L 206.515625 375.320313 L 206.761719 372.90625 L 206.445313 370.246094 L 206.449219 365.089844 L 205.710938 361.589844 L 204.546875 359.3125 L 202.914063 357.34375 L 200.886719 355.78125 L 198.691406 354.738281 L 202.367188 353.816406 L 204.570313 352.5625 L 206.445313 350.863281 L 209.449219 350.226563 L 212.183594 348.828125 L 215.078125 345.949219 L 216.804688 342.246094 L 217.191406 339.328125 L 216.867188 336.53125 L 215.816406 333.78125 L 214.199219 331.476563 L 217.753906 329.46875 L 220.328125 326.46875 L 221.722656 322.90625 L 221.957031 318.566406 L 221.261719 315.1875 L 219.609375 312.160156 L 217.246094 309.828125 L 214.199219 308.214844 L 215.335938 305.503906 L 215.757813 302.464844 L 215.371094 299.421875 L 214.199219 296.585938 L 216.199219 294.441406 L 217.601563 291.863281 L 218.359375 288.507813 L 218.078125 284.953125 L 219.332031 283.570313 L 221.953125 284.953125 L 222.554688 287.800781 L 223.769531 290.308594 L 225.542969 292.480469 L 225.945313 294.183594 L 229.304688 299.0625 L 231.605469 300.136719 L 232.75 301.566406 L 234.886719 303.199219 L 237.460938 304.339844 L 239.308594 307.691406 L 242.144531 310.261719 L 245.410156 311.710938 L 247.824219 311.960938 L 249.289063 315.722656 L 252.390625 319.148438 L 255.792969 320.722656 L 254.242188 322.007813 L 251.351563 326.027344 L 250.195313 329.277344 L 250.039063 332.726563 L 251.175781 336.648438 L 252.265625 338.152344 L 245.550781 339.511719 L 244.589844 338.644531 L 243.40625 338.558594 L 241.210938 339.871094 L 241.886719 340.445313 L 246.324219 340.394531 L 249.617188 339.34375 L 251.976563 339.082031 L 254.382813 342.558594 L 260.480469 347.574219 L 259.554688 349.820313 L 259.164063 352.734375 L 259.554688 355.78125 L 260.722656 358.617188 L 257.472656 360.382813 L 254.941406 363.082031 L 253.351563 366.566406 L 252.96875 370.246094 L 249.355469 368.941406 L 245.644531 368.863281 L 243.277344 369.457031 L 240.976563 370.597656 L 238.984375 372.214844 L 237.460938 374.125 L 233.328125 373.460938 L 229.707031 374.125 L 227.078125 373.980469 L 223.832031 374.464844 L 220.691406 375.804688 L 218.078125 378 L 215.878906 379.042969 L 213.949219 380.515625 L 211.949219 383.007813 L 210.703125 385.949219 L 210.175781 391.003906 L 210.324219 393.507813 L 209.683594 396.519531 L 210.132813 400.722656 L 210.953125 402.75 L 212.132813 404.585938 L 214.976563 407.175781 L 218.628906 408.730469 L 228.234375 409.328125 L 231.027344 409.058594 L 234.570313 407.632813 L 237.460938 405.136719 L 240.21875 405.753906 L 242.914063 405.707031 L 245.648438 404.988281 L 248.128906 403.636719 L 250.292969 401.625 L 251.824219 399.253906 L 252.765625 396.453125 L 252.96875 393.507813 L 256.574219 395.703125 L 260.722656 396.46875 L 264.875 395.703125 L 268.476563 393.507813 L 271.714844 394.15625 L 274.003906 394.054688 L 276.230469 393.507813 L 280.234375 394.171875 L 286.539063 393.371094 L 289.472656 392.476563 L 292.167969 390.761719 L 294.226563 388.488281 L 295.617188 385.753906 Z M 229.785156 467.023438 L 229.582031 468.167969 L 229.707031 471.046875 L 228.136719 469.574219 L 226.207031 468.359375 L 224.773438 467.808594 L 227.316406 466.367188 Z M 169.011719 447.097656 L 166.789063 447.039063 L 163.800781 447.785156 L 164.246094 446.683594 L 164.597656 446.761719 L 166.046875 446.148438 L 167.527344 446.515625 Z M 255.710938 341.347656 L 256.886719 342.140625 L 258.808594 342.625 L 258.378906 342.789063 L 257.507813 342.753906 L 256.035156 341.773438 Z M 140.539063 242.308594 L 144.414063 242.972656 L 144.816406 242.902344 L 146.15625 243.175781 L 148.300781 243.253906 L 146.636719 242.59375 L 148.292969 242.308594 L 152.167969 242.308594 L 154.777344 243.382813 L 157.570313 243.800781 L 160.128906 243.582031 L 162.695313 242.757813 L 165.785156 240.695313 L 166.949219 239.355469 L 168.246094 240.195313 L 178.0625 241.875 L 182.921875 243.167969 L 186.398438 241.730469 L 187.519531 239.417969 L 188.617188 238.355469 L 189.539063 238.171875 L 190.8125 238.285156 L 190.9375 238.429688 L 192.707031 241.683594 L 194.988281 243.917969 L 198.519531 245.699219 L 202.570313 246.183594 L 201.621094 249.109375 L 201.476563 252.175781 L 202.179688 255.296875 L 203.632813 258.003906 L 206.464844 260.773438 L 210.1875 262.464844 L 214.265625 262.765625 L 218.078125 261.691406 L 218.078125 265.570313 L 216.820313 266.953125 L 212.222656 264.664063 L 208.449219 264.011719 L 205.40625 264.398438 L 202.570313 265.570313 L 198.691406 264.902344 L 194.816406 265.570313 L 190.9375 265.570313 L 190.164063 262.246094 L 188.457031 259.289063 L 185.953125 256.9375 L 182.972656 255.445313 L 180.335938 254.898438 L 177.515625 254.992188 L 174.328125 255.972656 L 171.554688 257.816406 L 167.675781 257.816406 L 166.957031 253.785156 L 164.964844 250.351563 L 161.9375 247.785156 L 158.09375 246.367188 L 153.667969 246.03125 L 149.992188 246.265625 L 147.746094 246.792969 L 144.171875 248.773438 L 141.4375 251.980469 L 142.011719 249.515625 L 142.039063 246.984375 L 141.558594 244.625 Z M 168.078125 238.054688 L 169.378906 236.554688 L 170.871094 233.765625 L 171.554688 230.675781 L 173.675781 230.304688 L 175.691406 229.542969 L 177.636719 228.351563 L 179.308594 226.800781 L 182.457031 225.414063 L 184.632813 223.636719 L 186.125 221.65625 L 186.359375 221.46875 L 187.0625 222.921875 L 186.441406 225.78125 L 186.574219 228.828125 L 187.347656 232.253906 L 187.070313 232.078125 L 185.40625 232.042969 L 181.046875 235.800781 L 180.578125 237.003906 L 174.761719 240.109375 L 170.214844 238.117188 Z M 175.429688 168.644531 L 183.183594 168.644531 L 183.183594 172.523438 L 181.015625 174.230469 L 179.308594 176.398438 L 177.222656 174.550781 L 174.640625 173.207031 L 172.183594 172.59375 L 168.664063 172.398438 L 172.371094 171.101563 Z M 176.1875 356.449219 L 176.777344 357.648438 L 178.480469 359.726563 L 180.613281 361.355469 L 183.183594 362.492188 L 175.429688 362.492188 L 176.09375 358.878906 L 175.707031 356.066406 Z M 125.574219 474.683594 L 127.605469 473.785156 L 128.199219 473.328125 L 128.386719 473.238281 L 132.105469 472.640625 L 132.679688 471.785156 L 133.257813 469.527344 L 134.414063 468.65625 L 135.140625 469.316406 L 137.988281 470.746094 L 141.242188 471.351563 L 144.414063 471.046875 L 145.609375 473.878906 L 147.503906 476.300781 L 150.078125 478.203125 L 152.945313 479.304688 L 150.40625 480.699219 L 148.441406 482.535156 L 148.132813 482.558594 L 146.425781 481.316406 L 144.324219 480.347656 L 142.078125 479.816406 L 139.765625 479.742188 L 136.03125 480.625 L 132.785156 482.675781 L 130.207031 483.8125 L 127.121094 486.488281 L 125.855469 488.414063 L 125.101563 490.257813 L 124.039063 490.597656 L 123.695313 492.007813 L 122.902344 492.9375 L 121.710938 495.457031 L 121.308594 497.429688 L 120.660156 497.648438 L 120.632813 497.707031 L 118.800781 496.039063 L 117.546875 495.417969 L 117.15625 494.691406 L 115.984375 493.691406 L 112.253906 492.070313 L 111.410156 491.984375 L 110.375 492.488281 L 110.242188 494.183594 L 110.191406 494.242188 L 109.523438 494.308594 L 109.523438 490.429688 L 113.203125 490.703125 L 116.667969 489.859375 L 119.515625 488.167969 L 122.765625 484.917969 L 124.140625 482.765625 L 125.042969 480.246094 L 125.347656 477.582031 L 125.132813 475.777344 Z M 125.574219 474.683594 "/>
</g>
</svg>
