<?xml version="1.0" encoding="UTF-8"?>
<svg xmlns="http://www.w3.org/2000/svg" xmlns:xlink="http://www.w3.org/1999/xlink" width="378pt" height="504pt" viewBox="0 0 378 504" version="1.1">
<g id="data">
<rect x="0" y="0" width="378" height="504" style="fill:rgb(100%,100%,100%);fill-opacity:1;stroke:none;"/>
<path style=" stroke:none;fill-rule:nonzero;fill:rgb(100%,100%,100%);fill-opacity:1;" d="M 53.308594 504 L 324.691406 504 L 324.691406 0 L 53.308594 0 Z M 53.308594 504 "/>
<path style=" stroke:none;fill-rule:nonzero;fill:rgb(22.745098%,53.333333%,16.078431%);fill-opacity:1;" d="M 241.359375 405.808594 L 243.773438 405.558594 L 245.964844 404.859375 L 248.082031 403.671875 L 249.816406 402.164063 L 251.289063 400.234375 L 252.285156 398.160156 L 252.875 395.804688 L 252.96875 393.507813 L 254.894531 396.960938 L 257.867188 399.570313 L 261.417969 401.003906 L 265.625 401.273438 L 269.015625 400.65625 L 272.183594 398.996094 L 274.617188 396.554688 L 276.230469 393.507813 L 279.441406 394.769531 L 282.75 395.042969 L 285.394531 394.574219 L 287.863281 393.507813 L 290.667969 393.328125 L 293.351563 392.476563 L 295.339844 391.316406 L 297.0625 389.789063 L 298.515625 387.839844 L 299.492188 385.753906 L 301.753906 388.476563 L 303.117188 391.878906 L 303.371094 393.507813 L 300.761719 394.878906 L 298.503906 396.960938 L 296.921875 399.445313 L 295.988281 402.375 L 295.847656 405.316406 L 296.40625 408.078125 L 297.683594 410.730469 L 299.125 412.453125 L 298.703125 412.890625 L 296.125 412.890625 L 295.578125 412.011719 L 292.742188 410.515625 L 292.480469 410.636719 L 293.355469 412.53125 L 291.484375 412.230469 L 285.84375 413.226563 L 283.800781 413.960938 L 281.929688 415.066406 L 280.296875 416.496094 L 278.957031 418.207031 L 277.445313 414.496094 L 274.203125 410.574219 L 270.933594 408.550781 L 267.054688 407.703125 L 264.109375 407.945313 L 261.324219 408.925781 L 258.777344 410.660156 L 256.847656 412.890625 L 254.601563 413.300781 L 252.59375 414.082031 L 250.664063 415.296875 L 249.09375 416.769531 L 248.546875 413.25 L 246.964844 410.0625 L 244.488281 407.503906 Z M 273.40625 430.753906 L 275.621094 429.09375 L 277.382813 426.960938 L 278.398438 429.796875 L 280.078125 432.230469 L 279.925781 432.207031 L 276.8125 430.996094 Z M 256.847656 463.292969 L 258.394531 461.621094 L 259.535156 459.789063 L 260.347656 457.660156 L 260.722656 455.539063 L 262.394531 457.089844 L 264.226563 458.226563 L 266.234375 459.007813 L 268.476563 459.414063 L 266.183594 461.40625 L 263.453125 462.734375 L 260.722656 463.292969 Z M 245.214844 362.492188 L 247.703125 362.011719 L 249.914063 361.066406 L 252.96875 358.617188 L 256.5 356.976563 L 258.578125 355.148438 L 260.722656 358.617188 L 257.371094 360.460938 L 254.867188 363.1875 L 253.351563 366.566406 L 252.96875 370.246094 L 251.832031 367.671875 L 250.109375 365.445313 L 247.792969 363.628906 Z M 220.945313 373.039063 L 222.230469 370.292969 L 222.753906 367.4375 L 224.804688 370.800781 L 227.863281 373.285156 L 224.484375 372.636719 Z M 210.34375 350.191406 L 212.949219 348.875 L 215.144531 346.949219 L 216.734375 344.652344 L 217.761719 341.921875 L 218.039063 344.449219 L 218.863281 346.859375 L 220.1875 349.03125 L 221.953125 350.863281 L 220.902344 353.28125 L 220.414063 356.003906 L 218.542969 353.574219 L 216.101563 351.714844 L 213.382813 350.59375 Z M 202.570313 393.507813 L 203.234375 389.628906 L 202.570313 385.753906 L 204.921875 385.648438 L 207.085938 385.113281 L 206.457031 388.144531 L 206.445313 393.507813 Z M 202.570313 393.507813 "/>
<path style=" stroke:none;fill-rule:nonzero;fill:rgb(80.392157%,58.431373%,4.705882%);fill-opacity:1;" d="M 220.015625 378 L 219.730469 379.796875 L 218.90625 381.417969 L 217.617188 382.703125 L 215.996094 383.53125 L 214.199219 383.816406 L 212.402344 383.53125 L 210.78125 382.703125 L 209.496094 381.417969 L 208.667969 379.796875 L 208.382813 378 L 208.667969 376.203125 L 209.496094 374.582031 L 210.78125 373.296875 L 212.402344 372.46875 L 214.199219 372.183594 L 215.996094 372.46875 L 217.617188 373.296875 L 218.90625 374.582031 L 219.730469 376.203125 Z M 220.015625 378 "/>
<path style=" stroke:none;fill-rule:nonzero;fill:rgb(80.392157%,58.431373%,4.705882%);fill-opacity:1;" d="M 196.753906 312.09375 L 196.46875 313.890625 L 195.644531 315.511719 L 194.355469 316.796875 L 192.734375 317.625 L 190.9375 317.90625 L 189.140625 317.625 L 187.519531 316.796875 L 186.234375 315.511719 L 185.40625 313.890625 L 185.125 312.09375 L 185.40625 310.296875 L 186.234375 308.675781 L 187.519531 307.386719 L 189.140625 306.5625 L 190.9375 306.277344 L 192.734375 306.5625 L 194.355469 307.386719 L 195.644531 308.675781 L 196.46875 310.296875 Z M 196.753906 312.09375 "/>
<path style=" stroke:none;fill-rule:nonzero;fill:rgb(80.392157%,58.431373%,4.705882%);fill-opacity:1;" d="M 165.738281 478.800781 L 165.453125 480.597656 L 164.628906 482.21875 L 163.339844 483.503906 L 161.71875 484.332031 L 159.921875 484.617188 L 158.125 484.332031 L 156.503906 483.503906 L 155.21875 482.21875 L 154.390625 480.597656 L 154.109375 478.800781 L 154.390625 477.003906 L 155.21875 475.382813 L 156.503906 474.09375 L 158.125 473.269531 L 159.921875 472.984375 L 161.71875 473.269531 L 163.339844 474.09375 L 164.628906 475.382813 L 165.453125 477.003906 Z M 165.738281 478.800781 "/>
<path style=" stroke:none;fill-rule:nonzero;fill:rgb(80.392157%,58.431373%,4.705882%);fill-opacity:1;" d="M 239.398438 440.03125 L 239.117188 441.828125 L 238.289063 443.449219 L 237.003906 444.734375 L 235.382813 445.5625 L 233.585938 445.847656 L 231.789063 445.5625 L 230.167969 444.734375 L 228.878906 443.449219 L 228.054688 441.828125 L 227.769531 440.03125 L 228.054688 438.234375 L 228.878906 436.613281 L 230.167969 435.324219 L 231.789063 434.5 L 233.585938 434.214844 L 235.382813 434.5 L 237.003906 435.324219 L 238.289063 436.613281 L 239.117188 438.234375 Z M 239.398438 440.03125 "/>
<path style=" stroke:none;fill-rule:nonzero;fill:rgb(80.392157%,58.431373%,4.705882%);fill-opacity:1;" d="M 227.769531 409.015625 L 227.484375 410.8125 L 226.660156 412.433594 L 225.371094 413.71875 L 223.75 414.546875 L 221.953125 414.832031 L 220.15625 414.546875 L 218.535156 413.71875 L 217.25 412.433594 L 216.421875 410.8125 L 216.136719 409.015625 L 216.421875 407.21875 L 217.25 405.597656 L 218.535156 404.3125 L 220.15625 403.484375 L 221.953125 403.199219 L 223.75 403.484375 L 225.371094 404.3125 L 226.660156 405.597656 L 227.484375 407.21875 Z M 227.769531 409.015625 "/>
<path style=" stroke:none;fill-rule:nonzero;fill:rgb(80.392157%,58.431373%,4.705882%);fill-opacity:1;" d="M 192.875 211.292969 L 192.59375 213.089844 L 191.765625 214.710938 L 190.480469 215.996094 L 188.859375 216.824219 L 187.0625 217.109375 L 185.265625 216.824219 L 183.644531 215.996094 L 182.355469 214.710938 L 181.53125 213.089844 L 181.246094 211.292969 L 181.53125 209.496094 L 182.355469 207.875 L 183.644531 206.585938 L 185.265625 205.761719 L 187.0625 205.476563 L 188.859375 205.761719 L 190.480469 206.585938 L 191.765625 207.875 L 192.59375 209.496094 Z M 192.875 211.292969 "/>
<path style=" stroke:none;fill-rule:nonzero;fill:rgb(80.392157%,58.431373%,4.705882%);fill-opacity:1;" d="M 266.539063 440.03125 L 266.253906 441.828125 L 265.429688 443.449219 L 264.140625 444.734375 L 262.519531 445.5625 L 260.722656 445.847656 L 258.925781 445.5625 L 257.304688 444.734375 L 256.019531 443.449219 L 255.191406 441.828125 L 254.90625 440.03125 L 255.191406 438.234375 L 256.019531 436.613281 L 257.304688 435.324219 L 258.925781 434.5 L 260.722656 434.214844 L 262.519531 434.5 L 264.140625 435.324219 L 265.429688 436.613281 L 266.253906 438.234375 Z M 266.539063 440.03125 "/>
<path style=" stroke:none;fill-rule:nonzero;fill:rgb(80.392157%,58.431373%,4.705882%);fill-opacity:1;" d="M 200.628906 436.152344 L 200.347656 437.949219 L 199.519531 439.570313 L 198.234375 440.859375 L 196.613281 441.683594 L 194.816406 441.96875 L 193.019531 441.683594 L 191.398438 440.859375 L 190.109375 439.570313 L 189.285156 437.949219 L 189 436.152344 L 189.285156 434.355469 L 189.921875 433.105469 L 191.402344 431.445313 L 193.019531 430.625 L 194.816406 430.339844 L 196.613281 430.625 L 198.234375 431.449219 L 199.519531 432.734375 L 200.347656 434.355469 Z M 200.628906 436.152344 "/>
<path style=" stroke:none;fill-rule:nonzero;fill:rgb(80.392157%,58.431373%,4.705882%);fill-opacity:1;" d="M 181.246094 362.492188 L 180.960938 364.289063 L 180.136719 365.910156 L 178.847656 367.195313 L 177.226563 368.023438 L 175.429688 368.308594 L 173.632813 368.023438 L 172.011719 367.195313 L 170.726563 365.910156 L 169.898438 364.289063 L 169.617188 362.492188 L 169.898438 360.695313 L 170.726563 359.074219 L 172.011719 357.789063 L 173.632813 356.960938 L 175.429688 356.675781 L 176.726563 356.882813 L 179.910156 359.441406 L 180.136719 359.074219 L 180.960938 360.695313 Z M 181.246094 362.492188 "/>
<path style=" stroke:none;fill-rule:nonzero;fill:rgb(80.392157%,58.431373%,4.705882%);fill-opacity:1;" d="M 204.507813 424.523438 L 204.222656 426.320313 L 203.398438 427.941406 L 202.109375 429.226563 L 200.488281 430.054688 L 198.691406 430.339844 L 196.894531 430.054688 L 195.273438 429.226563 L 193.957031 427.878906 L 195.792969 425.3125 L 197.929688 424.472656 L 198.285156 423.78125 L 198.070313 423.238281 L 197.8125 423.082031 L 196.09375 424.355469 L 193.417969 426.828125 L 192.875 424.523438 L 193.160156 422.726563 L 193.988281 421.105469 L 195.273438 419.816406 L 196.894531 418.992188 L 198.691406 418.707031 L 200.488281 418.992188 L 202.109375 419.816406 L 203.398438 421.105469 L 204.222656 422.726563 Z M 204.507813 424.523438 "/>
<path style=" stroke:none;fill-rule:nonzero;fill:rgb(80.392157%,58.431373%,4.705882%);fill-opacity:1;" d="M 192.875 440.03125 L 192.59375 441.828125 L 191.765625 443.449219 L 190.480469 444.734375 L 188.859375 445.5625 L 187.0625 445.847656 L 185.265625 445.5625 L 183.644531 444.734375 L 182.355469 443.449219 L 181.679688 442.117188 L 182.519531 440.25 L 188.53125 434.449219 L 190.480469 435.324219 L 191.765625 436.613281 L 192.59375 438.234375 Z M 192.875 440.03125 "/>
<path style=" stroke:none;fill-rule:nonzero;fill:rgb(80.392157%,58.431373%,4.705882%);fill-opacity:1;" d="M 165.738281 428.398438 L 165.453125 430.195313 L 164.628906 431.816406 L 163.339844 433.105469 L 161.835938 433.871094 L 159.03125 429.199219 L 155.65625 429.589844 L 154.382813 430.132813 L 154.109375 428.398438 L 154.390625 426.601563 L 155.21875 424.980469 L 156.503906 423.695313 L 158.125 422.871094 L 159.921875 422.585938 L 161.71875 422.871094 L 163.339844 423.695313 L 164.628906 424.980469 L 165.453125 426.601563 Z M 165.738281 428.398438 "/>
<path style=" stroke:none;fill-rule:nonzero;fill:rgb(80.392157%,58.431373%,4.705882%);fill-opacity:1;" d="M 146.355469 242.308594 L 141.261719 240.453125 L 140.441406 240.5625 L 139.386719 240.085938 L 139.183594 238.121094 L 139.382813 236.675781 L 140.539063 236.492188 L 142.335938 236.777344 L 143.957031 237.601563 L 145.242188 238.890625 L 146.070313 240.511719 Z M 146.214844 243.179688 L 145.242188 245.726563 L 143.957031 247.011719 L 142.335938 247.839844 L 140.539063 248.125 L 138.019531 247.472656 L 138.6875 242.234375 L 140.710938 241.59375 L 142.886719 242.511719 Z M 135.476563 245.027344 L 135.007813 244.105469 L 134.722656 242.308594 L 135.007813 240.511719 L 135.832031 238.890625 L 137.121094 237.601563 L 138.964844 236.742188 L 138.320313 240.257813 L 136.15625 245.152344 Z M 135.476563 245.027344 "/>
<path style=" stroke:none;fill-rule:nonzero;fill:rgb(80.392157%,58.431373%,4.705882%);fill-opacity:1;" d="M 227.769531 467.167969 L 227.484375 468.964844 L 226.660156 470.585938 L 225.371094 471.875 L 224.507813 472.3125 L 222.296875 470.886719 L 220.207031 471.1875 L 221.476563 469.683594 L 227.316406 466.367188 L 227.65625 466.457031 Z M 216.261719 467.957031 L 216.421875 465.371094 L 217.25 463.75 L 218.535156 462.464844 L 220.15625 461.636719 L 221.953125 461.355469 L 223.75 461.636719 L 225.371094 462.464844 L 226.660156 463.75 L 227.484375 465.371094 L 227.519531 465.585938 L 226.691406 465.496094 L 219.566406 468.449219 L 217.054688 467.824219 Z M 216.261719 467.957031 "/>
<path style=" stroke:none;fill-rule:nonzero;fill:rgb(80.392157%,58.431373%,4.705882%);fill-opacity:1;" d="M 230.6875 299.707031 L 229.25 301.289063 L 227.628906 302.117188 L 225.832031 302.398438 L 224.035156 302.117188 L 222.414063 301.289063 L 221.125 300.003906 L 220.300781 298.382813 L 220.015625 296.585938 L 220.300781 294.789063 L 221.125 293.167969 L 222.414063 291.878906 L 224.035156 291.054688 L 225.160156 290.875 L 225.945313 294.183594 L 229.304688 299.0625 Z M 230.6875 299.707031 "/>
<path style=" stroke:none;fill-rule:nonzero;fill:rgb(80.392157%,58.431373%,4.705882%);fill-opacity:1;" d="M 185.125 242.308594 L 184.839844 244.105469 L 184.011719 245.726563 L 182.726563 247.011719 L 181.105469 247.839844 L 179.308594 248.125 L 177.511719 247.839844 L 175.890625 247.011719 L 174.601563 245.726563 L 173.777344 244.105469 L 173.492188 242.308594 L 173.679688 241.125 L 178.0625 241.875 L 182.921875 243.167969 Z M 174.125 239.832031 L 174.601563 238.890625 L 175.890625 237.601563 L 177.511719 236.777344 L 179.308594 236.492188 L 180.691406 236.710938 L 180.578125 237.003906 L 174.761719 240.109375 Z M 174.125 239.832031 "/>
<path style=" stroke:none;fill-rule:nonzero;fill:rgb(80.392157%,58.431373%,4.705882%);fill-opacity:1;" d="M 147.992188 317.859375 L 146.496094 317.625 L 144.875 316.796875 L 143.585938 315.511719 L 142.824219 314.011719 L 144.765625 310.230469 L 145.863281 309.40625 L 149.046875 308.269531 L 150.203125 313.453125 Z M 147.992188 317.859375 "/>
<path style=" stroke:none;fill-rule:nonzero;fill:rgb(80.392157%,58.431373%,4.705882%);fill-opacity:1;" d="M 255.390625 340.921875 L 256.019531 339.691406 L 257.304688 338.402344 L 259.730469 337.449219 L 263.316406 342.46875 L 263.640625 343.980469 L 262.804688 345.191406 L 263.28125 343.65625 L 262.507813 342.839844 L 260.445313 342 L 258.378906 342.789063 L 257.507813 342.753906 L 256.035156 341.773438 Z M 262.355469 348.664063 L 260.722656 348.921875 L 258.925781 348.636719 L 257.304688 347.8125 L 256.019531 346.527344 L 255.191406 344.90625 L 254.925781 343.003906 L 260.535156 347.621094 Z M 262.355469 348.664063 "/>
<path style=" stroke:none;fill-rule:nonzero;fill:rgb(80.392157%,58.431373%,4.705882%);fill-opacity:1;" d="M 190.710938 470.902344 L 191.398438 470.21875 L 193.019531 469.390625 L 194.816406 469.109375 L 196.613281 469.390625 L 198.234375 470.21875 L 199.925781 472.300781 L 197.625 472.007813 L 196.175781 472.65625 L 195.679688 473.863281 L 195.832031 474.871094 L 196.757813 475.523438 L 196.488281 476.304688 L 195.917969 475.996094 L 194.851563 473.972656 Z M 190.710938 470.902344 "/>
<path style=" stroke:none;fill-rule:nonzero;fill:rgb(80.392157%,58.431373%,4.705882%);fill-opacity:1;" d="M 138.601563 467.167969 L 138.316406 468.964844 L 137.488281 470.585938 L 136.203125 471.875 L 134.582031 472.699219 L 132.785156 472.984375 L 131.359375 472.757813 L 132.105469 472.640625 L 132.679688 471.785156 L 133.257813 469.527344 L 135.859375 467.5625 L 138.183594 465.113281 Z M 138.601563 467.167969 "/>
</g>
</svg>
