<?xml version="1.0" encoding="UTF-8"?>
<svg xmlns="http://www.w3.org/2000/svg" xmlns:xlink="http://www.w3.org/1999/xlink" width="378pt" height="504pt" viewBox="0 0 378 504" version="1.1">
<g id="data">
<rect x="0" y="0" width="378" height="504" style="fill:rgb(100%,100%,100%);fill-opacity:1;stroke:none;"/>
<path style=" stroke:none;fill-rule:nonzero;fill:rgb(100%,100%,100%);fill-opacity:1;" d="M 53.308594 504 L 324.691406 504 L 324.691406 0 L 53.308594 0 Z M 53.308594 504 "/>
<path style=" stroke:none;fill-rule:nonzero;fill:rgb(22.745098%,53.333333%,16.078431%);fill-opacity:1;" d="M 291.738281 409.015625 L 293.027344 410.667969 L 292.742188 410.515625 L 292.480469 410.636719 L 292.347656 410.5625 Z M 218.078125 284.953125 L 221.953125 285.617188 L 223.835938 285.296875 L 224.328125 287.359375 L 223.730469 288.316406 L 222.878906 292.195313 L 223.007813 294.5 L 223.546875 296.617188 L 224.535156 298.707031 L 225.832031 300.460938 L 223.464844 303.804688 L 222.417969 307.632813 L 222.753906 311.714844 L 224.40625 315.324219 L 226.867188 317.933594 L 230.128906 319.710938 L 233.785156 320.371094 L 237.460938 319.847656 L 236.117188 323.433594 L 236.011719 327.257813 L 236.933594 330.449219 L 238.308594 333.339844 L 239.632813 335.226563 L 241.511719 336.964844 L 243.605469 338.199219 L 246.285156 339.050781 L 247.457031 339.125 L 245.550781 339.511719 L 244.589844 338.644531 L 243.40625 338.558594 L 241.210938 339.871094 L 241.886719 340.445313 L 246.324219 340.394531 L 249.316406 339.441406 L 250.664063 340.703125 L 252.59375 341.917969 L 254.484375 342.640625 L 259.363281 346.65625 L 258.347656 346.414063 L 255.78125 346.359375 L 253.386719 346.832031 L 251.140625 347.796875 L 249.148438 349.207031 L 247.496094 351.003906 L 246.25 353.101563 L 245.445313 355.542969 L 245.195313 357.84375 L 245.394531 361.417969 L 246.183594 363.980469 L 247.464844 366.191406 L 249.296875 368.152344 L 251.527344 369.640625 L 254.164063 370.609375 L 256.828125 370.917969 L 254.320313 372.167969 L 252.183594 373.980469 L 250.542969 376.25 L 249.460938 378.972656 L 248.949219 383.125 L 249.09375 385.753906 L 248.539063 388 L 248.4375 390.3125 L 249.019531 393.335938 L 250.375 396.101563 L 251.753906 397.800781 L 253.53125 399.28125 L 255.445313 400.332031 L 257.523438 401.003906 L 262.777344 401.199219 L 265.039063 400.695313 L 267.039063 399.820313 L 270.300781 397.132813 L 272.386719 393.457031 L 273.027344 389.667969 L 272.355469 385.753906 L 273.007813 382.53125 L 276.230469 381.875 L 278.300781 384.394531 L 281.945313 387.097656 L 284.734375 388.285156 L 287.863281 388.714844 L 285.675781 391.34375 L 284.320313 394.617188 L 283.976563 398.5 L 284.625 401.902344 L 281.84375 401.292969 L 278.824219 401.332031 L 276.195313 401.9375 L 273.886719 403.0625 L 271.792969 404.757813 L 270.144531 406.890625 L 269.03125 409.347656 L 268.511719 411.992188 L 268.765625 416.199219 L 270.304688 419.839844 L 272.878906 422.675781 L 276.230469 424.523438 L 276.3125 426.699219 L 276.796875 428.820313 L 277.664063 430.8125 L 278.78125 432.445313 L 274.75 433.78125 L 272.609375 436.117188 L 274.253906 436.015625 L 275.152344 434.667969 L 276.683594 434.363281 L 278.285156 434.328125 L 281.054688 434.949219 L 281.828125 435.589844 L 281.691406 436.328125 L 279.554688 436.347656 L 277.390625 437.65625 L 277.96875 438.546875 L 281.101563 438.929688 L 279.453125 441.949219 L 276.488281 440.539063 L 273.367188 440.015625 L 269.28125 440.261719 L 265.8125 441.601563 L 263.660156 443.222656 L 262.003906 445.1875 L 260.824219 447.472656 L 260.171875 449.957031 L 260.277344 453.925781 L 261.203125 458.027344 L 262.339844 460.570313 L 263.699219 462.398438 L 265.496094 464.023438 L 267.59375 465.25 L 269.777344 465.988281 L 270.890625 466.117188 L 270.539063 466.589844 L 269.761719 466.949219 L 267.519531 466.273438 L 266.90625 465.695313 L 265.089844 464.539063 L 261.480469 463.378906 L 258.847656 463.128906 L 249.09375 463.292969 L 246.613281 462.710938 L 244.195313 462.671875 L 240.488281 463.585938 L 238.960938 464.460938 L 237.714844 463.296875 L 233.117188 463.207031 L 233.097656 463.101563 L 231.746094 460.191406 L 229.554688 457.675781 L 226.972656 455.996094 L 224.039063 455.050781 L 220.960938 454.910156 L 218.078125 455.539063 L 216.191406 453.191406 L 211.738281 449.441406 L 208.996094 448.085938 L 206.125 447.5 L 199.515625 448.191406 L 197.242188 449.074219 L 195.105469 450.496094 L 193.328125 452.351563 L 192.003906 454.550781 L 191.195313 456.988281 L 190.9375 459.414063 L 188.769531 461.121094 L 187.0625 463.292969 L 185.285156 461.820313 L 183.136719 460.675781 L 180.921875 460.027344 L 178.496094 459.832031 L 176.082031 460.144531 L 173.902344 460.898438 L 171.8125 462.144531 L 170.109375 463.703125 L 169.09375 461.375 L 167.675781 459.414063 L 170.921875 458.691406 L 173.929688 457 L 176.3125 454.5 L 177.8125 451.535156 L 178.371094 448.90625 L 178.339844 447.792969 L 180.570313 447.503906 L 181.109375 445.632813 L 181.210938 443.15625 L 182.519531 440.25 L 186.476563 436.429688 L 188.589844 435.492188 L 190.515625 434.226563 L 192.394531 432.308594 L 193.835938 429.894531 L 194.582031 427.582031 L 194.632813 426.929688 L 195.792969 425.3125 L 197.929688 424.472656 L 198.285156 423.78125 L 198.070313 423.238281 L 197.8125 423.082031 L 196.09375 424.355469 L 194.734375 425.613281 L 194.816406 424.523438 L 195.546875 421.667969 L 195.382813 417.835938 L 194.632813 415.519531 L 193.417969 413.410156 L 191.789063 411.597656 L 189.707031 410.101563 L 193.265625 410.5 L 196.773438 409.796875 L 200.101563 407.902344 L 202.570313 405.136719 L 205.449219 405.261719 L 209.175781 404.582031 L 211.90625 403.25 L 214.199219 401.261719 L 218.203125 401.925781 L 222.167969 401.183594 L 223.039063 404.988281 L 224.183594 407.097656 L 225.832031 409.015625 L 226.390625 411.742188 L 227.578125 414.261719 L 230.558594 417.550781 L 233.761719 419.4375 L 236.113281 420.082031 L 238.550781 420.21875 L 240.960938 419.847656 L 243.125 419.039063 L 245.089844 417.816406 L 246.855469 416.132813 L 248.230469 414.117188 L 249.15625 411.859375 L 249.617188 408.429688 L 249.09375 405.136719 L 249.808594 402.40625 L 249.839844 399.582031 L 248.953125 396.234375 L 247.039063 393.199219 L 243.726563 390.574219 L 237.878906 388.3125 L 233.671875 388.222656 L 229.707031 389.628906 L 228.988281 385.597656 L 226.828125 381.96875 L 224.933594 380.238281 L 222.824219 379.011719 L 220.503906 378.257813 L 218.078125 378 L 217.15625 375.804688 L 215.886719 373.9375 L 218.972656 374.433594 L 221.953125 374.125 L 224.6875 374.835938 L 227.382813 374.886719 L 230.859375 373.984375 L 233.894531 372.070313 L 236.515625 368.757813 L 237.996094 364.25 L 237.875 360.027344 L 236.320313 356.234375 L 234.617188 354.140625 L 232.371094 352.429688 L 229.152344 351.148438 L 225.832031 350.863281 L 224.460938 349.164063 L 222.796875 347.753906 L 220.902344 346.679688 L 218.835938 345.976563 L 215.648438 345.671875 L 212.621094 346.203125 L 209.839844 347.511719 L 207.5 349.503906 L 208.847656 346.734375 L 209.414063 343.835938 L 209.207031 340.761719 L 208.257813 337.96875 L 206.550781 335.40625 L 204.339844 333.449219 L 201.703125 332.117188 L 198.691406 331.476563 L 200.164063 329.90625 L 201.378906 327.976563 L 202.195313 325.84375 L 202.570313 323.722656 L 205.175781 324.417969 L 208 324.484375 L 210.632813 323.910156 L 213.066406 322.746094 L 214.890625 321.320313 L 216.394531 319.566406 L 218.078125 315.96875 L 220.128906 312.722656 L 220.878906 310.136719 L 221.003906 307.316406 L 220.128906 303.707031 L 218.078125 300.460938 L 219.246094 297.625 L 219.636719 294.710938 L 219.246094 291.667969 L 218.078125 288.832031 Z M 283.761719 436.359375 L 282.261719 437.753906 L 282.164063 437.605469 L 282.484375 436.070313 Z M 283.140625 458.925781 L 283.511719 458.054688 L 283.984375 455.539063 L 283.6875 458.40625 Z M 237.417969 465.386719 L 236.757813 466.089844 L 235.136719 465.644531 L 236.523438 463.683594 L 237.195313 464.164063 Z M 234.152344 469.867188 L 234.085938 470.007813 L 233.585938 470.644531 L 233.582031 469.117188 Z M 175.429688 439.546875 L 175.429688 436.152344 L 177.359375 437.011719 L 177.039063 438.671875 L 176.445313 439.273438 Z M 181.160156 348.898438 L 181.234375 348.820313 L 182.613281 346.375 L 183.46875 342.785156 L 183.28125 340.421875 L 183.371094 340.257813 L 183.953125 339.90625 L 183.597656 342.5625 L 183.996094 345.605469 L 185.179688 348.4375 L 187.0625 350.863281 L 184.648438 353.617188 L 184.128906 354.859375 L 183.8125 354.640625 Z M 183.671875 355.949219 L 183.183594 357.113281 L 181.785156 353.726563 L 180.703125 352.472656 L 180.867188 352.449219 L 181.503906 352.695313 L 181.914063 353.875 L 182.898438 354.332031 Z M 175.429688 288.832031 L 179.308594 289.496094 L 175.746094 291.519531 Z M 121.152344 490.429688 L 117.40625 489.765625 L 113.398438 490.429688 L 112.121094 490.285156 L 115.386719 489.21875 L 118.289063 487.15625 L 119.980469 485.082031 L 120.613281 483.785156 L 121.425781 483.085938 L 122.328125 482.074219 L 123.984375 481.21875 L 126.3125 479.050781 L 127.695313 476.910156 L 128.609375 474.394531 L 128.996094 476.777344 L 129.867188 479.027344 L 131.101563 480.949219 L 132.785156 482.675781 L 130.207031 483.8125 L 127.980469 485.539063 L 126.234375 487.746094 L 125.109375 490.253906 L 124.558594 490.429688 Z M 121.152344 490.429688 "/>
</g>
</svg>
