<?xml version="1.0" encoding="UTF-8"?>
<svg xmlns="http://www.w3.org/2000/svg" xmlns:xlink="http://www.w3.org/1999/xlink" width="378pt" height="504pt" viewBox="0 0 378 504" version="1.1">
<g id="data">
<rect x="0" y="0" width="378" height="504" style="fill:rgb(100%,100%,100%);fill-opacity:1;stroke:none;"/>
<path style=" stroke:none;fill-rule:nonzero;fill:rgb(100%,100%,100%);fill-opacity:1;" d="M 53.308594 504 L 324.691406 504 L 324.691406 0 L 53.308594 0 Z M 53.308594 504 "/>
<path style=" stroke:none;fill-rule:nonzero;fill:rgb(22.745098%,53.333333%,16.078431%);fill-opacity:1;" d="M 243.359375 406.121094 L 243.332031 404.328125 L 243.855469 402.609375 L 244.875 401.132813 L 246.296875 400.039063 L 247.984375 399.429688 L 249.777344 399.363281 L 251.765625 399.597656 L 252.945313 399.464844 L 254.835938 398.683594 L 256.898438 396.878906 L 258.175781 396.035156 L 259.625 395.550781 L 261.152344 395.460938 L 263.902344 395.664063 L 265.796875 395.191406 L 266.957031 394.53125 L 269.75 392.152344 L 271.800781 389.742188 L 273.226563 388.527344 L 274.96875 387.832031 L 276.839844 387.722656 L 278.648438 388.21875 L 280.207031 389.265625 L 281.371094 390.355469 L 282.347656 390.96875 L 283.421875 391.378906 L 284.996094 391.65625 L 286.789063 392.289063 L 288.28125 393.46875 L 289.316406 395.066406 L 289.78125 396.910156 L 289.625 398.804688 L 288.863281 400.550781 L 287.578125 401.957031 L 285.957031 403.234375 L 284.679688 404.855469 L 282.972656 406.324219 L 280.832031 407.03125 L 277.722656 407.421875 L 275.777344 408.457031 L 274.789063 409.492188 L 273.632813 411.707031 L 272.15625 413.519531 L 270.816406 414.613281 L 270.085938 415.503906 L 269.546875 416.523438 L 269.222656 417.625 L 269.117188 418.789063 L 269.230469 419.855469 L 269.539063 420.878906 L 270.085938 421.910156 L 270.816406 422.800781 L 272.15625 423.898438 L 273.40625 425.3125 L 274.132813 427.054688 L 274.265625 428.9375 L 273.789063 430.761719 L 272.753906 432.339844 L 271.265625 433.503906 L 269.488281 434.128906 L 267.914063 434.40625 L 266.839844 434.816406 L 265.863281 435.429688 L 264.699219 436.519531 L 263.101563 437.582031 L 261.246094 438.070313 L 259.332031 437.921875 L 257.570313 437.164063 L 256.152344 435.871094 L 254.875 434.25 L 253.25 432.972656 L 252.085938 431.738281 L 251.324219 430.222656 L 251.03125 428.550781 L 251.238281 426.867188 L 251.738281 425.027344 L 251.792969 423.671875 L 251.535156 422.359375 L 250.957031 421.078125 L 250.351563 420.257813 L 249.566406 419.527344 L 248.558594 418.90625 L 247.042969 418.335938 L 245.324219 417.320313 L 244.046875 415.785156 L 243.367188 413.90625 L 243.359375 411.910156 L 243.855469 409.015625 Z M 212.261719 315.96875 L 212.574219 314.089844 L 213.476563 312.410156 L 214.878906 311.113281 L 216.621094 310.339844 L 218.519531 310.171875 L 220.371094 310.625 L 221.976563 311.65625 L 223.160156 313.148438 L 224.40625 315.386719 L 225.695313 316.617188 L 227.300781 317.398438 L 229.835938 317.777344 L 231.667969 318.375 L 233.207031 319.542969 L 234.277344 321.148438 L 234.765625 323.015625 L 234.613281 324.9375 L 233.839844 326.707031 L 232.199219 329.222656 L 231.511719 332.148438 L 230.847656 333.792969 L 229.71875 335.160156 L 228.226563 336.125 L 226.515625 336.59375 L 224.742188 336.527344 L 223.074219 335.929688 L 221.660156 334.851563 L 220.640625 333.402344 L 220.101563 331.710938 L 219.695313 329.074219 L 218.90625 327.496094 L 217.679688 326.230469 L 215.328125 324.972656 L 213.703125 323.675781 L 212.632813 321.890625 L 212.261719 319.847656 Z M 206.605469 424.761719 L 205.074219 425.699219 L 203.332031 426.125 L 201.542969 426 L 199.878906 425.335938 L 198.496094 424.195313 L 198.257813 423.828125 L 198.285156 423.78125 L 198.070313 423.238281 L 197.8125 423.082031 L 197.789063 423.101563 L 197.523438 422.6875 L 197.058594 420.953125 L 197.144531 419.164063 L 197.769531 417.484375 L 199.316406 414.730469 L 199.621094 412.757813 L 199.222656 410.789063 L 197.621094 408.195313 L 196.933594 406.574219 L 196.761719 404.828125 L 197.121094 403.105469 L 197.976563 401.570313 L 199.253906 400.363281 L 200.832031 399.589844 L 202.570313 399.324219 L 210.324219 399.324219 L 212.226563 399.644531 L 213.917969 400.570313 L 215.214844 401.996094 L 215.976563 403.769531 L 216.113281 405.695313 L 215.882813 408.066406 L 216.164063 409.621094 L 216.847656 411.023438 L 218.519531 412.875 L 219.476563 414.328125 L 219.964844 416 L 219.933594 417.746094 L 219.386719 419.398438 L 218.375 420.816406 L 216.988281 421.875 L 215.351563 422.46875 L 213.609375 422.554688 L 211.355469 422.324219 L 209.769531 422.589844 L 208.429688 423.214844 Z M 206.605469 424.761719 "/>
<path style=" stroke:none;fill-rule:nonzero;fill:rgb(80.392157%,58.431373%,4.705882%);fill-opacity:1;" d="M 227.769531 374.125 L 227.484375 375.921875 L 226.660156 377.542969 L 225.371094 378.828125 L 223.75 379.652344 L 221.953125 379.9375 L 220.15625 379.652344 L 218.535156 378.828125 L 217.25 377.542969 L 216.421875 375.921875 L 216.136719 374.125 L 216.421875 372.324219 L 217.25 370.703125 L 218.535156 369.417969 L 220.15625 368.59375 L 221.953125 368.308594 L 223.75 368.59375 L 225.371094 369.417969 L 226.660156 370.703125 L 227.484375 372.324219 Z M 227.769531 374.125 "/>
<path style=" stroke:none;fill-rule:nonzero;fill:rgb(80.392157%,58.431373%,4.705882%);fill-opacity:1;" d="M 204.507813 331.476563 L 204.222656 333.273438 L 203.398438 334.894531 L 202.109375 336.183594 L 200.488281 337.007813 L 198.691406 337.292969 L 196.894531 337.007813 L 195.273438 336.183594 L 193.988281 334.894531 L 193.160156 333.273438 L 192.875 331.476563 L 193.160156 329.679688 L 193.988281 328.058594 L 195.273438 326.773438 L 196.894531 325.945313 L 198.691406 325.660156 L 200.488281 325.945313 L 202.109375 326.773438 L 203.398438 328.058594 L 204.222656 329.679688 Z M 204.507813 331.476563 "/>
<path style=" stroke:none;fill-rule:nonzero;fill:rgb(80.392157%,58.431373%,4.705882%);fill-opacity:1;" d="M 196.753906 385.753906 L 196.46875 387.550781 L 195.644531 389.171875 L 194.355469 390.457031 L 192.734375 391.285156 L 190.9375 391.570313 L 189.140625 391.285156 L 187.519531 390.457031 L 186.234375 389.171875 L 185.40625 387.550781 L 185.125 385.753906 L 185.40625 383.957031 L 186.234375 382.335938 L 187.519531 381.050781 L 189.140625 380.222656 L 190.9375 379.9375 L 192.734375 380.222656 L 194.355469 381.050781 L 195.644531 382.335938 L 196.46875 383.957031 Z M 196.753906 385.753906 "/>
<path style=" stroke:none;fill-rule:nonzero;fill:rgb(80.392157%,58.431373%,4.705882%);fill-opacity:1;" d="M 212.261719 350.863281 L 211.976563 352.660156 L 211.152344 354.28125 L 209.863281 355.566406 L 208.242188 356.390625 L 206.445313 356.675781 L 204.648438 356.390625 L 203.027344 355.566406 L 201.742188 354.28125 L 200.914063 352.660156 L 200.628906 350.863281 L 200.914063 349.066406 L 201.742188 347.441406 L 203.027344 346.15625 L 204.648438 345.332031 L 206.445313 345.046875 L 208.242188 345.332031 L 209.863281 346.15625 L 211.152344 347.441406 L 211.976563 349.066406 Z M 212.261719 350.863281 "/>
<path style=" stroke:none;fill-rule:nonzero;fill:rgb(80.392157%,58.431373%,4.705882%);fill-opacity:1;" d="M 189 362.492188 L 188.714844 364.289063 L 187.890625 365.910156 L 186.601563 367.195313 L 184.980469 368.023438 L 183.183594 368.308594 L 181.386719 368.023438 L 179.765625 367.195313 L 178.480469 365.910156 L 177.652344 364.289063 L 177.371094 362.492188 L 177.652344 360.695313 L 178.480469 359.074219 L 178.914063 358.640625 L 179.910156 359.441406 L 180.433594 358.429688 L 180.011719 357.664063 L 181.386719 356.960938 L 183.183594 356.675781 L 184.125 356.824219 L 185.613281 357.902344 L 186.613281 357.800781 L 187.890625 359.074219 L 188.714844 360.695313 Z M 189 362.492188 "/>
<path style=" stroke:none;fill-rule:nonzero;fill:rgb(80.392157%,58.431373%,4.705882%);fill-opacity:1;" d="M 189 288.832031 L 188.714844 290.628906 L 187.890625 292.25 L 186.601563 293.535156 L 184.980469 294.363281 L 183.183594 294.644531 L 181.386719 294.363281 L 179.765625 293.535156 L 178.480469 292.25 L 177.652344 290.628906 L 177.371094 288.832031 L 177.652344 287.035156 L 178.128906 286.097656 L 178.757813 285.980469 L 180.191406 286.804688 L 181.015625 286.710938 L 182.933594 286.238281 L 183.03125 285.160156 L 182.34375 284.746094 L 180.035156 285.351563 L 178.636719 285.257813 L 179.765625 284.125 L 181.386719 283.300781 L 183.183594 283.015625 L 184.980469 283.300781 L 186.601563 284.125 L 187.890625 285.414063 L 188.714844 287.035156 Z M 189 288.832031 "/>
<path style=" stroke:none;fill-rule:nonzero;fill:rgb(80.392157%,58.431373%,4.705882%);fill-opacity:1;" d="M 189 246.183594 L 188.714844 247.980469 L 187.890625 249.601563 L 186.601563 250.890625 L 184.980469 251.714844 L 183.183594 252 L 181.386719 251.714844 L 179.765625 250.890625 L 178.480469 249.601563 L 177.652344 247.980469 L 177.371094 246.183594 L 177.652344 244.386719 L 178.480469 242.765625 L 179.09375 242.152344 L 182.921875 243.167969 L 186.398438 241.730469 L 186.539063 241.445313 L 186.601563 241.480469 L 187.890625 242.765625 L 188.714844 244.386719 Z M 189 246.183594 "/>
<path style=" stroke:none;fill-rule:nonzero;fill:rgb(80.392157%,58.431373%,4.705882%);fill-opacity:1;" d="M 189 447.785156 L 188.714844 449.582031 L 187.890625 451.203125 L 186.601563 452.488281 L 184.980469 453.316406 L 183.183594 453.601563 L 181.386719 453.316406 L 179.765625 452.488281 L 178.480469 451.203125 L 177.652344 449.582031 L 177.390625 447.917969 L 180.570313 447.503906 L 181.109375 445.632813 L 181.210938 443.15625 L 181.632813 442.214844 L 183.183594 441.96875 L 184.980469 442.253906 L 186.601563 443.078125 L 187.890625 444.367188 L 188.714844 445.988281 Z M 189 447.785156 "/>
<path style=" stroke:none;fill-rule:nonzero;fill:rgb(80.392157%,58.431373%,4.705882%);fill-opacity:1;" d="M 247.152344 463.292969 L 246.871094 465.089844 L 246.765625 465.289063 L 244.628906 465.699219 L 242.703125 466.390625 L 242.113281 466.964844 L 241.902344 467.984375 L 241.359375 468.164063 L 238.210938 466.1875 L 238.632813 465.4375 L 239.46875 464.933594 L 237.714844 463.296875 L 235.53125 463.253906 L 235.808594 461.496094 L 236.632813 459.875 L 237.921875 458.585938 L 239.542969 457.761719 L 241.339844 457.476563 L 243.136719 457.761719 L 244.757813 458.585938 L 246.042969 459.875 L 246.871094 461.496094 Z M 236.246094 465.949219 L 235.808594 465.089844 L 235.757813 464.765625 L 236.523438 463.683594 L 237.195313 464.164063 L 237.5 465.839844 L 236.835938 466.113281 Z M 236.246094 465.949219 "/>
<path style=" stroke:none;fill-rule:nonzero;fill:rgb(80.392157%,58.431373%,4.705882%);fill-opacity:1;" d="M 270.414063 463.292969 L 270.128906 465.089844 L 269.304688 466.710938 L 269.226563 466.789063 L 259.269531 463.777344 L 258.855469 463.742188 L 258.785156 463.292969 L 259.070313 461.496094 L 259.894531 459.875 L 261.183594 458.585938 L 262.804688 457.761719 L 264.601563 457.476563 L 266.398438 457.761719 L 268.019531 458.585938 L 269.304688 459.875 L 270.128906 461.496094 Z M 270.414063 463.292969 "/>
<path style=" stroke:none;fill-rule:nonzero;fill:rgb(80.392157%,58.431373%,4.705882%);fill-opacity:1;" d="M 210.738281 253.894531 L 209.863281 254.765625 L 208.242188 255.59375 L 206.445313 255.875 L 204.648438 255.59375 L 203.027344 254.765625 L 201.742188 253.480469 L 200.914063 251.859375 L 200.628906 250.0625 L 200.914063 248.265625 L 201.742188 246.644531 L 203.027344 245.355469 L 203.582031 245.074219 L 206.488281 246.65625 L 208.910156 251.429688 Z M 210.738281 253.894531 "/>
<path style=" stroke:none;fill-rule:nonzero;fill:rgb(80.392157%,58.431373%,4.705882%);fill-opacity:1;" d="M 185.125 242.308594 L 184.839844 244.105469 L 184.011719 245.726563 L 182.726563 247.011719 L 181.105469 247.839844 L 179.308594 248.125 L 177.511719 247.839844 L 175.890625 247.011719 L 174.601563 245.726563 L 173.777344 244.105469 L 173.492188 242.308594 L 173.679688 241.125 L 178.0625 241.875 L 182.921875 243.167969 L 185.117188 242.261719 Z M 174.125 239.832031 L 174.601563 238.890625 L 175.890625 237.601563 L 177.511719 236.777344 L 179.308594 236.492188 L 180.691406 236.710938 L 180.578125 237.003906 L 174.761719 240.109375 Z M 174.125 239.832031 "/>
<path style=" stroke:none;fill-rule:nonzero;fill:rgb(80.392157%,58.431373%,4.705882%);fill-opacity:1;" d="M 265.003906 350.828125 L 264.140625 351.6875 L 262.519531 352.515625 L 260.722656 352.800781 L 258.925781 352.515625 L 257.304688 351.6875 L 256.019531 350.402344 L 255.191406 348.78125 L 254.90625 346.984375 L 255.191406 345.1875 L 255.898438 343.804688 L 260.535156 347.621094 L 263.042969 349.058594 L 263.664063 349.039063 Z M 257.101563 342.480469 L 257.304688 342.28125 L 258.925781 341.453125 L 260.722656 341.167969 L 262.519531 341.453125 L 262.632813 341.511719 L 263.316406 342.46875 L 263.640625 343.980469 L 262.804688 345.191406 L 263.28125 343.65625 L 262.507813 342.839844 L 260.445313 342 L 258.378906 342.789063 L 257.507813 342.753906 Z M 257.101563 342.480469 "/>
<path style=" stroke:none;fill-rule:nonzero;fill:rgb(80.392157%,58.431373%,4.705882%);fill-opacity:1;" d="M 185.125 350.863281 L 184.839844 352.660156 L 184.011719 354.28125 L 183.761719 354.53125 L 179.976563 346.332031 L 180.582031 345.246094 L 181.105469 345.332031 L 182.726563 346.15625 L 184.011719 347.441406 L 184.839844 349.066406 Z M 183.242188 355.050781 L 182.726563 355.566406 L 181.105469 356.390625 L 179.453125 356.652344 L 177.679688 353.460938 L 178.242188 352.835938 L 180.867188 352.449219 L 181.503906 352.695313 L 181.914063 353.875 L 182.898438 354.332031 Z M 183.242188 355.050781 "/>
<path style=" stroke:none;fill-rule:nonzero;fill:rgb(80.392157%,58.431373%,4.705882%);fill-opacity:1;" d="M 263.160156 464.953125 L 263.773438 463.75 L 265.058594 462.464844 L 266.679688 461.636719 L 268.476563 461.355469 L 270.273438 461.636719 L 271.894531 462.464844 L 273.039063 463.609375 L 272.597656 463.816406 L 270.539063 466.589844 L 269.761719 466.949219 Z M 263.160156 464.953125 "/>
</g>
</svg>
