<?xml version="1.0" encoding="UTF-8"?>
<svg xmlns="http://www.w3.org/2000/svg" xmlns:xlink="http://www.w3.org/1999/xlink" width="378pt" height="504pt" viewBox="0 0 378 504" version="1.1">
<g id="data">
<rect x="0" y="0" width="378" height="504" style="fill:rgb(100%,100%,100%);fill-opacity:1;stroke:none;"/>
<path style=" stroke:none;fill-rule:nonzero;fill:rgb(100%,100%,100%);fill-opacity:1;" d="M 53.308594 504 L 324.691406 504 L 324.691406 0 L 53.308594 0 Z M 53.308594 504 "/>
<path style=" stroke:none;fill-rule:nonzero;fill:rgb(22.745098%,53.333333%,16.078431%);fill-opacity:1;" d="M 249.09375 405.136719 L 251.753906 405.453125 L 254.414063 405.152344 L 257.941406 403.6875 L 260.722656 401.261719 L 264.40625 401.535156 L 267.988281 400.640625 L 270.3125 399.308594 L 273.878906 396.277344 L 276.230469 393.507813 L 277.804688 394.980469 L 279.734375 396.195313 L 281.863281 397.011719 L 283.984375 397.382813 L 281.8125 399.089844 L 280.109375 401.261719 L 275.933594 401.785156 L 272.21875 403.761719 L 270.015625 406.070313 L 268.476563 409.015625 L 266.6875 410.480469 L 265.21875 412.269531 L 264.1875 414.195313 L 263.503906 416.40625 L 263.273438 418.707031 L 263.503906 421.007813 L 264.1875 423.21875 L 265.292969 425.253906 L 266.777344 427.027344 L 268.476563 428.398438 L 266.355469 428.773438 L 264.226563 429.589844 L 262.296875 430.804688 L 260.722656 432.277344 L 259.015625 430.105469 L 256.847656 428.398438 L 257.542969 425.792969 L 257.621094 423.097656 L 257.074219 420.457031 L 256.003906 418.121094 L 254.621094 416.269531 L 253 414.800781 L 251.136719 413.664063 L 249.09375 412.890625 L 249.757813 409.015625 Z M 218.078125 315.96875 L 219.75 318.984375 L 222.339844 321.453125 L 225.4375 322.976563 L 228.972656 323.527344 L 226.769531 326.898438 L 225.847656 330.816406 L 225.300781 327.289063 L 223.710938 324.09375 L 221.222656 321.535156 L 218.078125 319.847656 Z M 202.839844 420.332031 L 204.863281 416.78125 L 205.527344 412.621094 L 204.714844 408.617188 L 202.570313 405.136719 L 210.324219 405.136719 L 210.019531 408.308594 L 210.585938 411.445313 L 211.980469 414.308594 L 214.199219 416.769531 L 211.164063 416.460938 L 208.03125 416.988281 L 205.261719 418.273438 Z M 202.839844 420.332031 "/>
<path style=" stroke:none;fill-rule:nonzero;fill:rgb(80.392157%,58.431373%,4.705882%);fill-opacity:1;" d="M 243.277344 319.847656 L 242.992188 321.644531 L 242.167969 323.265625 L 240.878906 324.550781 L 239.257813 325.375 L 237.460938 325.660156 L 235.664063 325.375 L 234.042969 324.550781 L 232.757813 323.265625 L 231.929688 321.644531 L 231.644531 319.847656 L 231.929688 318.050781 L 232.757813 316.429688 L 234.042969 315.140625 L 235.664063 314.316406 L 237.460938 314.03125 L 239.257813 314.316406 L 240.878906 315.140625 L 242.167969 316.429688 L 242.992188 318.050781 Z M 243.277344 319.847656 "/>
<path style=" stroke:none;fill-rule:nonzero;fill:rgb(80.392157%,58.431373%,4.705882%);fill-opacity:1;" d="M 212.261719 350.863281 L 211.976563 352.660156 L 211.152344 354.28125 L 209.863281 355.566406 L 208.242188 356.390625 L 206.445313 356.675781 L 204.648438 356.390625 L 203.027344 355.566406 L 201.742188 354.28125 L 200.914063 352.660156 L 200.628906 350.863281 L 200.914063 349.066406 L 201.742188 347.441406 L 203.027344 346.15625 L 204.648438 345.332031 L 206.445313 345.046875 L 208.242188 345.332031 L 209.863281 346.15625 L 211.152344 347.441406 L 211.976563 349.066406 Z M 212.261719 350.863281 "/>
<path style=" stroke:none;fill-rule:nonzero;fill:rgb(80.392157%,58.431373%,4.705882%);fill-opacity:1;" d="M 196.753906 385.753906 L 196.46875 387.550781 L 195.644531 389.171875 L 194.355469 390.457031 L 192.734375 391.285156 L 190.9375 391.570313 L 189.140625 391.285156 L 187.519531 390.457031 L 186.234375 389.171875 L 185.40625 387.550781 L 185.125 385.753906 L 185.40625 383.957031 L 186.234375 382.335938 L 187.519531 381.050781 L 189.140625 380.222656 L 190.9375 379.9375 L 192.734375 380.222656 L 194.355469 381.050781 L 195.644531 382.335938 L 196.46875 383.957031 Z M 196.753906 385.753906 "/>
<path style=" stroke:none;fill-rule:nonzero;fill:rgb(80.392157%,58.431373%,4.705882%);fill-opacity:1;" d="M 204.507813 331.476563 L 204.222656 333.273438 L 203.398438 334.894531 L 202.109375 336.183594 L 200.488281 337.007813 L 198.691406 337.292969 L 196.894531 337.007813 L 195.273438 336.183594 L 193.988281 334.894531 L 193.160156 333.273438 L 192.875 331.476563 L 193.160156 329.679688 L 193.988281 328.058594 L 195.273438 326.773438 L 196.894531 325.945313 L 198.691406 325.660156 L 200.488281 325.945313 L 202.109375 326.773438 L 203.398438 328.058594 L 204.222656 329.679688 Z M 204.507813 331.476563 "/>
<path style=" stroke:none;fill-rule:nonzero;fill:rgb(80.392157%,58.431373%,4.705882%);fill-opacity:1;" d="M 227.769531 374.125 L 227.484375 375.921875 L 226.660156 377.542969 L 225.371094 378.828125 L 223.75 379.652344 L 221.953125 379.9375 L 220.15625 379.652344 L 218.535156 378.828125 L 217.25 377.542969 L 216.421875 375.921875 L 216.136719 374.125 L 216.421875 372.324219 L 217.25 370.703125 L 218.535156 369.417969 L 220.15625 368.59375 L 221.953125 368.308594 L 223.75 368.59375 L 225.371094 369.417969 L 226.660156 370.703125 L 227.484375 372.324219 Z M 227.769531 374.125 "/>
<path style=" stroke:none;fill-rule:nonzero;fill:rgb(80.392157%,58.431373%,4.705882%);fill-opacity:1;" d="M 189 362.492188 L 188.714844 364.289063 L 187.890625 365.910156 L 186.601563 367.195313 L 184.980469 368.023438 L 183.183594 368.308594 L 181.386719 368.023438 L 179.765625 367.195313 L 178.480469 365.910156 L 177.652344 364.289063 L 177.371094 362.492188 L 177.652344 360.695313 L 178.480469 359.074219 L 178.914063 358.640625 L 179.910156 359.441406 L 180.433594 358.429688 L 180.011719 357.664063 L 181.386719 356.960938 L 183.183594 356.675781 L 184.125 356.824219 L 185.613281 357.902344 L 186.613281 357.800781 L 187.890625 359.074219 L 188.714844 360.695313 Z M 189 362.492188 "/>
<path style=" stroke:none;fill-rule:nonzero;fill:rgb(80.392157%,58.431373%,4.705882%);fill-opacity:1;" d="M 189 288.832031 L 188.714844 290.628906 L 187.890625 292.25 L 186.601563 293.535156 L 184.980469 294.363281 L 183.183594 294.644531 L 181.386719 294.363281 L 179.765625 293.535156 L 178.480469 292.25 L 177.652344 290.628906 L 177.371094 288.832031 L 177.652344 287.035156 L 178.128906 286.097656 L 178.757813 285.980469 L 180.191406 286.804688 L 182.933594 286.238281 L 183.03125 285.160156 L 182.34375 284.746094 L 180.035156 285.351563 L 178.636719 285.257813 L 179.765625 284.125 L 181.386719 283.300781 L 183.183594 283.015625 L 184.980469 283.300781 L 186.601563 284.125 L 187.890625 285.414063 L 188.714844 287.035156 Z M 189 288.832031 "/>
<path style=" stroke:none;fill-rule:nonzero;fill:rgb(80.392157%,58.431373%,4.705882%);fill-opacity:1;" d="M 189 246.183594 L 188.714844 247.980469 L 187.890625 249.601563 L 186.601563 250.890625 L 184.980469 251.714844 L 183.183594 252 L 181.386719 251.714844 L 179.765625 250.890625 L 178.480469 249.601563 L 177.652344 247.980469 L 177.371094 246.183594 L 177.652344 244.386719 L 179.09375 242.152344 L 182.921875 243.167969 L 186.398438 241.730469 L 186.539063 241.445313 L 187.890625 242.765625 L 188.714844 244.386719 Z M 189 246.183594 "/>
<path style=" stroke:none;fill-rule:nonzero;fill:rgb(80.392157%,58.431373%,4.705882%);fill-opacity:1;" d="M 189 447.785156 L 188.714844 449.582031 L 187.890625 451.203125 L 186.601563 452.488281 L 184.980469 453.316406 L 183.183594 453.601563 L 181.386719 453.316406 L 179.765625 452.488281 L 178.480469 451.203125 L 177.652344 449.582031 L 177.390625 447.917969 L 180.570313 447.503906 L 181.109375 445.632813 L 181.210938 443.15625 L 181.632813 442.214844 L 183.183594 441.96875 L 184.980469 442.253906 L 186.601563 443.078125 L 187.890625 444.367188 L 188.714844 445.988281 Z M 189 447.785156 "/>
<path style=" stroke:none;fill-rule:nonzero;fill:rgb(80.392157%,58.431373%,4.705882%);fill-opacity:1;" d="M 247.152344 463.292969 L 246.765625 465.289063 L 242.703125 466.390625 L 242.113281 466.964844 L 241.902344 467.984375 L 241.359375 468.164063 L 238.210938 466.1875 L 238.632813 465.4375 L 239.46875 464.933594 L 237.714844 463.296875 L 235.53125 463.253906 L 235.808594 461.496094 L 236.632813 459.875 L 237.921875 458.585938 L 239.542969 457.761719 L 241.339844 457.476563 L 243.136719 457.761719 L 244.757813 458.585938 L 246.042969 459.875 L 246.871094 461.496094 Z M 236.246094 465.949219 L 235.757813 464.765625 L 236.523438 463.683594 L 237.195313 464.164063 L 237.5 465.839844 L 236.835938 466.113281 Z M 236.246094 465.949219 "/>
<path style=" stroke:none;fill-rule:nonzero;fill:rgb(80.392157%,58.431373%,4.705882%);fill-opacity:1;" d="M 270.414063 463.292969 L 270.128906 465.089844 L 269.226563 466.789063 L 258.855469 463.742188 L 258.785156 463.292969 L 259.070313 461.496094 L 259.894531 459.875 L 261.183594 458.585938 L 262.804688 457.761719 L 264.601563 457.476563 L 266.398438 457.761719 L 268.019531 458.585938 L 269.304688 459.875 L 270.128906 461.496094 Z M 270.414063 463.292969 "/>
<path style=" stroke:none;fill-rule:nonzero;fill:rgb(80.392157%,58.431373%,4.705882%);fill-opacity:1;" d="M 210.738281 253.894531 L 209.863281 254.765625 L 208.242188 255.59375 L 206.445313 255.875 L 204.648438 255.59375 L 203.027344 254.765625 L 201.742188 253.480469 L 200.914063 251.859375 L 200.628906 250.0625 L 200.914063 248.265625 L 201.742188 246.644531 L 203.582031 245.074219 L 206.488281 246.65625 L 208.910156 251.429688 Z M 210.738281 253.894531 "/>
<path style=" stroke:none;fill-rule:nonzero;fill:rgb(80.392157%,58.431373%,4.705882%);fill-opacity:1;" d="M 185.125 242.308594 L 184.839844 244.105469 L 184.011719 245.726563 L 182.726563 247.011719 L 181.105469 247.839844 L 179.308594 248.125 L 177.511719 247.839844 L 175.890625 247.011719 L 174.601563 245.726563 L 173.777344 244.105469 L 173.492188 242.308594 L 173.679688 241.125 L 178.0625 241.875 L 182.921875 243.167969 Z M 174.125 239.832031 L 174.601563 238.890625 L 175.890625 237.601563 L 177.511719 236.777344 L 179.308594 236.492188 L 180.691406 236.710938 L 180.578125 237.003906 L 174.761719 240.109375 Z M 174.125 239.832031 "/>
<path style=" stroke:none;fill-rule:nonzero;fill:rgb(80.392157%,58.431373%,4.705882%);fill-opacity:1;" d="M 265.003906 350.828125 L 264.140625 351.6875 L 262.519531 352.515625 L 260.722656 352.800781 L 258.925781 352.515625 L 257.304688 351.6875 L 256.019531 350.402344 L 255.191406 348.78125 L 254.90625 346.984375 L 255.191406 345.1875 L 255.898438 343.804688 L 260.535156 347.621094 L 263.042969 349.058594 L 263.664063 349.039063 Z M 257.101563 342.480469 L 258.925781 341.453125 L 260.722656 341.167969 L 262.519531 341.453125 L 263.316406 342.46875 L 263.640625 343.980469 L 262.804688 345.191406 L 263.28125 343.65625 L 262.507813 342.839844 L 260.445313 342 L 258.378906 342.789063 Z M 257.101563 342.480469 "/>
<path style=" stroke:none;fill-rule:nonzero;fill:rgb(80.392157%,58.431373%,4.705882%);fill-opacity:1;" d="M 185.125 350.863281 L 184.839844 352.660156 L 183.761719 354.53125 L 179.976563 346.332031 L 180.582031 345.246094 L 182.726563 346.15625 L 184.011719 347.441406 L 184.839844 349.066406 Z M 183.242188 355.050781 L 181.105469 356.390625 L 179.453125 356.652344 L 177.679688 353.460938 L 178.242188 352.835938 L 180.867188 352.449219 L 181.503906 352.695313 L 181.914063 353.875 L 182.898438 354.332031 Z M 183.242188 355.050781 "/>
<path style=" stroke:none;fill-rule:nonzero;fill:rgb(80.392157%,58.431373%,4.705882%);fill-opacity:1;" d="M 263.160156 464.953125 L 263.773438 463.75 L 265.058594 462.464844 L 266.679688 461.636719 L 268.476563 461.355469 L 270.273438 461.636719 L 271.894531 462.464844 L 273.039063 463.609375 L 272.597656 463.816406 L 270.539063 466.589844 L 269.761719 466.949219 Z M 263.160156 464.953125 "/>
</g>
</svg>
