<?xml version="1.0" encoding="UTF-8"?>
<svg xmlns="http://www.w3.org/2000/svg" xmlns:xlink="http://www.w3.org/1999/xlink" width="378pt" height="504pt" viewBox="0 0 378 504" version="1.1">
<g id="data">
<rect x="0" y="0" width="378" height="504" style="fill:rgb(100%,100%,100%);fill-opacity:1;stroke:none;"/>
<path style=" stroke:none;fill-rule:nonzero;fill:rgb(100%,100%,100%);fill-opacity:1;" d="M 53.308594 504 L 324.691406 504 L 324.691406 0 L 53.308594 0 Z M 53.308594 504 "/>
<path style=" stroke:none;fill-rule:nonzero;fill:rgb(22.745098%,53.333333%,16.078431%);fill-opacity:1;" d="M 296.726563 372.757813 L 296.753906 372.820313 L 298.476563 375.046875 L 300.683594 376.796875 L 303.371094 378 L 303.246094 380.878906 L 303.925781 384.605469 L 305.257813 387.335938 L 307.066406 389.421875 L 307.179688 391.25 L 306.777344 393.191406 L 306.890625 393.976563 L 305.789063 396.917969 L 305.164063 399.925781 L 304.558594 400.886719 L 303.777344 402.894531 L 303.371094 405.136719 L 301.667969 407.015625 L 300.363281 409.332031 L 299.765625 411.777344 L 298.519531 413.085938 L 296.882813 413.410156 L 296.542969 413.566406 L 295.578125 412.011719 L 292.742188 410.515625 L 292.480469 410.636719 L 293.898438 413.703125 L 294.449219 414.519531 L 291.738281 416.769531 L 288.488281 418.535156 L 286.371094 420.695313 L 284.976563 421.730469 L 280.71875 424.230469 L 282.339844 425.378906 L 284.390625 424.652344 L 284.367188 424.71875 L 284.003906 429.042969 L 284.328125 431.203125 L 284.519531 431.75 L 283.441406 432.558594 L 282.84375 432.699219 L 279.644531 432.160156 L 274.75 433.78125 L 272.609375 436.117188 L 274.253906 436.015625 L 275.152344 434.667969 L 276.683594 434.363281 L 278.285156 434.328125 L 281.054688 434.949219 L 281.828125 435.589844 L 281.691406 436.328125 L 279.554688 436.347656 L 277.390625 437.65625 L 277.96875 438.546875 L 281.382813 438.964844 L 286.863281 440.339844 L 289.394531 439.9375 L 291.011719 438.992188 L 292.5625 439.625 L 296.863281 440.171875 L 299.492188 440.03125 L 299.492188 443.90625 L 296.632813 443.289063 L 293.585938 443.421875 L 290.671875 444.34375 L 288.1875 445.914063 L 286.328125 447.855469 L 284.964844 450.167969 L 284.144531 452.859375 L 283.984375 455.539063 L 281.410156 456.675781 L 279.183594 458.398438 L 277.433594 460.605469 L 276.652344 462.351563 L 274.789063 462.777344 L 272.597656 463.816406 L 272.15625 464.414063 L 271.980469 464.480469 L 270.148438 465.617188 L 268.972656 466.710938 L 267.488281 466.261719 L 266.703125 465.542969 L 264.746094 464.371094 L 262.597656 463.601563 L 260.226563 463.21875 L 252.96875 463.292969 L 248.835938 462.628906 L 245.214844 463.292969 L 242.710938 463.144531 L 239.460938 463.601563 L 238.5 464.03125 L 237.714844 463.296875 L 231.496094 463.171875 L 231.378906 463.496094 L 232.574219 464.835938 L 232.214844 465.75 L 231.738281 466.042969 L 226.691406 465.496094 L 219.566406 468.449219 L 217.054688 467.824219 L 210.222656 468.96875 L 208.164063 468.875 L 207.273438 468.058594 L 206.238281 469.769531 L 209.429688 471.089844 L 209.714844 470.9375 L 210.1875 472.128906 L 209.566406 473.890625 L 206.84375 474.453125 L 204.453125 473.097656 L 203.015625 472.699219 L 197.625 472.007813 L 196.175781 472.65625 L 195.679688 473.863281 L 195.78125 474.523438 L 195.257813 474.742188 L 194.851563 473.972656 L 193.785156 473.183594 L 192.734375 471.40625 L 189.675781 468.886719 L 185.949219 467.542969 L 181.863281 467.546875 L 178.027344 468.96875 L 177.171875 469.652344 L 176.207031 469.78125 L 174.339844 470.335938 L 168.992188 473.234375 L 168.214844 474.070313 L 167.203125 476.179688 L 163.203125 487.882813 L 161.496094 488.957031 L 160.265625 490.109375 L 158.269531 489.722656 L 157.554688 489.058594 L 156.527344 486.851563 L 154.683594 485.4375 L 153.613281 485.542969 L 152.417969 486.300781 L 151.851563 486.183594 L 151.503906 485.902344 L 148.46875 482.535156 L 146.042969 482.714844 L 145.984375 482.691406 L 142.433594 482.390625 L 136.855469 483.058594 L 134.816406 483.816406 L 133.667969 484.511719 L 132.167969 484.859375 L 129.414063 488.195313 L 126.714844 489.746094 L 124.039063 490.597656 L 123.132813 494.289063 L 123.191406 494.398438 L 122.101563 495.941406 L 121.5 497.363281 L 120.660156 497.648438 L 120.625 497.722656 L 118.371094 495.757813 L 117.539063 495.398438 L 117.15625 494.691406 L 115.984375 493.691406 L 112.253906 492.070313 L 111.410156 491.984375 L 110.375 492.488281 L 110.25 494.089844 L 105.644531 494.308594 L 107.816406 492.601563 L 109.523438 490.429688 L 111.890625 489.988281 L 114.113281 489.066406 L 116 487.789063 L 117.40625 486.433594 L 118.144531 485.910156 L 121.425781 483.085938 L 124.375 479.769531 L 125.210938 477.886719 L 124.875 476.421875 L 125.570313 474.691406 L 127.382813 473.914063 L 128.195313 473.328125 L 128.386719 473.238281 L 132.105469 472.640625 L 132.679688 471.785156 L 133.257813 469.527344 L 135.859375 467.5625 L 138.636719 464.640625 L 138.859375 461.867188 L 139.0625 461.578125 L 140.117188 458.554688 L 140.324219 455.617188 L 140.171875 454.800781 L 142.492188 455.105469 L 144.269531 456.015625 L 145.761719 455.429688 L 148.429688 452.488281 L 148.105469 447.519531 L 151.105469 446.613281 L 157.421875 446.269531 L 159.910156 445.683594 L 164.597656 446.761719 L 166.046875 446.148438 L 167.527344 446.515625 L 169.484375 447.285156 L 170.039063 448.109375 L 170.757813 448.421875 L 173.15625 448.464844 L 180.570313 447.503906 L 181.109375 445.632813 L 181.210938 443.15625 L 182.519531 440.25 L 190.867188 432.195313 L 195.792969 425.3125 L 197.929688 424.472656 L 198.285156 423.78125 L 198.070313 423.238281 L 197.8125 423.082031 L 196.09375 424.355469 L 192.90625 427.300781 L 190.570313 429.988281 L 189.222656 431.449219 L 185.628906 432.957031 L 183.714844 433.246094 L 182.441406 433.0625 L 178.394531 435.230469 L 177.398438 436.808594 L 177.039063 438.671875 L 176.445313 439.273438 L 174.058594 439.917969 L 170.558594 439.851563 L 166.820313 439 L 166.347656 438.652344 L 161.371094 433.375 L 159.03125 429.199219 L 155.65625 429.589844 L 149.269531 432.308594 L 149.113281 432.746094 L 147.203125 431.632813 L 146.917969 429.308594 L 148.539063 428.378906 L 150.066406 428.890625 L 151.640625 428.421875 L 152.765625 427.832031 L 153.085938 427.097656 L 152.808594 426.597656 L 147.785156 426.460938 L 143.210938 423.710938 L 139.503906 423.714844 L 136.765625 424.277344 L 136.292969 426.515625 L 135.777344 427.203125 L 133.742188 427.917969 L 132.394531 427.265625 L 131.648438 427.453125 L 131.621094 427.476563 L 129.621094 425.886719 L 129.058594 425.699219 L 131.792969 424.328125 L 131.226563 422.867188 L 130.640625 424.257813 L 127.769531 424.613281 L 122.949219 424.152344 L 121.496094 423.164063 L 124.125 421.78125 L 125.167969 421.753906 L 125.464844 421.238281 L 124.929688 417.953125 L 123.328125 417.210938 L 121.445313 417.105469 L 121.683594 416.351563 L 123.324219 415.0625 L 123.925781 414.300781 L 125.933594 413.378906 L 126.140625 412.878906 L 131.082031 412.8125 L 134.972656 411.578125 L 136.792969 410.390625 L 138.367188 408.886719 L 139.628906 407.113281 L 139.859375 406.617188 L 141.359375 406.660156 L 142.21875 406.390625 L 149.359375 401.828125 L 152.136719 398.207031 L 153.054688 396.195313 L 153.882813 392.984375 L 156.046875 393.507813 L 158.128906 397.027344 L 161.1875 399.542969 L 164.035156 400.695313 L 167.210938 401.0625 L 170.859375 400.386719 L 174.003906 398.675781 L 177.277344 395.445313 L 179.085938 391.9375 L 179.621094 388.542969 L 179.148438 383.832031 L 178.347656 381.125 L 176.917969 378.691406 L 175.042969 376.753906 L 172.773438 375.300781 L 170.230469 374.40625 L 167.675781 374.125 L 165.152344 371.394531 L 161.898438 369.597656 L 157.726563 368.925781 L 153.710938 369.734375 L 151.226563 371.085938 L 149.230469 372.894531 L 148.820313 373.441406 L 145.449219 374.257813 L 143.757813 375.484375 L 142.050781 378.085938 L 140.539063 378 L 142.882813 376.113281 L 145.363281 372.90625 L 146.613281 370.519531 L 147.257813 368.035156 L 147.277344 367.367188 L 147.953125 364.523438 L 151.550781 360.582031 L 153.09375 359.609375 L 154.941406 359.808594 L 160.492188 357.457031 L 163.644531 357.28125 L 167.339844 357.714844 L 172.597656 355.179688 L 173.933594 355.046875 L 174.484375 355.082031 L 179.910156 359.441406 L 180.433594 358.429688 L 177.679688 353.460938 L 178.242188 352.835938 L 180.867188 352.449219 L 181.503906 352.695313 L 181.914063 353.875 L 182.898438 354.332031 L 184.078125 356.789063 L 185.613281 357.902344 L 188.359375 357.621094 L 190.335938 355.148438 L 189.90625 355.050781 L 188.667969 355.527344 L 188.3125 355.957031 L 186.378906 356.386719 L 183.8125 354.640625 L 181.335938 349.277344 L 182.589844 346.773438 L 183.082031 344.648438 L 183.347656 341.230469 L 183.34375 340.300781 L 183.371094 340.257813 L 185.429688 339.015625 L 185.140625 338.578125 L 183.34375 338.492188 L 183.332031 332.851563 L 183.148438 329.886719 L 184.695313 329.191406 L 187.28125 323.421875 L 187.71875 320.933594 L 187.855469 317.484375 L 184.742188 320.527344 L 180.109375 322.964844 L 179.921875 322.722656 L 177.84375 321.023438 L 175.796875 320.023438 L 175.449219 319.421875 L 175.730469 312.671875 L 174.90625 308.941406 L 173.003906 305.777344 L 169.847656 302.167969 L 168.515625 301.121094 L 169.082031 299.3125 L 169.464844 299.003906 L 170.855469 297.324219 L 171.960938 295.300781 L 172.617188 293.222656 L 172.832031 291.335938 L 174.074219 288.722656 L 175.640625 287.210938 L 178.050781 287.882813 L 180.484375 287.882813 L 182.867188 287.378906 L 185.089844 286.386719 L 187.0625 284.953125 L 190.9375 284.953125 L 193.484375 286.683594 L 196.519531 287.710938 L 198.820313 287.914063 L 201.117188 287.660156 L 203.902344 286.683594 L 206.445313 284.953125 L 210.273438 283.988281 L 212.886719 282.390625 L 214.523438 280.773438 L 215.746094 278.976563 L 216.613281 276.984375 L 217.109375 274.738281 L 218.972656 278.335938 L 221.269531 280.449219 L 221.269531 280.457031 L 221.875 281.714844 L 221.640625 283.609375 L 221.859375 286.023438 L 222.625 288.457031 L 223.90625 290.667969 L 225.570313 292.605469 L 225.945313 294.183594 L 229.304688 299.0625 L 233.917969 301.214844 L 234.722656 303.039063 L 236.445313 305.265625 L 238.761719 307.078125 L 241.339844 308.214844 L 242.75 311.226563 L 244.953125 313.714844 L 246.851563 315.023438 L 249.09375 315.96875 L 249.5 318.214844 L 250.28125 320.222656 L 251.496094 322.152344 L 252.96875 323.722656 L 251.902344 326.1875 L 251.441406 328.707031 L 251.558594 331.390625 L 252.242188 333.855469 L 253.914063 337.59375 L 255.5625 339.878906 L 257.929688 341.835938 L 259.273438 342.449219 L 258.378906 342.789063 L 257.507813 342.753906 L 256.035156 341.773438 L 253.664063 338.65625 L 252.601563 338.082031 L 245.550781 339.511719 L 244.589844 338.644531 L 243.40625 338.558594 L 241.210938 339.871094 L 241.886719 340.445313 L 246.324219 340.394531 L 249.617188 339.34375 L 251.976563 339.082031 L 254.382813 342.558594 L 260.398438 347.507813 L 258.515625 350.570313 L 257.734375 354.578125 L 258.382813 358.609375 L 260.386719 362.171875 L 261.921875 363.714844 L 263.722656 364.945313 L 265.960938 365.894531 L 268.035156 366.285156 L 264.953125 369.09375 L 261.394531 373.164063 L 260.601563 374.816406 L 262.84375 374.3125 L 264.9375 375.519531 L 266.9375 378.226563 L 270.21875 378.804688 L 270.625 378.746094 L 271.910156 376.796875 L 272.234375 374.960938 L 273.40625 371.914063 L 274.707031 370.632813 L 276.503906 370.320313 L 279.980469 370.910156 L 283.484375 370.328125 L 284.253906 370.867188 L 286.703125 370.742188 L 293.949219 371.515625 Z M 237.273438 464.582031 L 235.773438 465.25 L 235.296875 465.6875 L 235.136719 465.644531 L 236.523438 463.683594 L 237.195313 464.164063 Z M 232.753906 468.03125 L 232.515625 468.25 L 230.578125 471.363281 L 229.863281 474.289063 L 229.160156 474.433594 L 227.726563 473.148438 L 225.398438 471.867188 L 223.085938 471.195313 L 222.703125 471.148438 L 222.296875 470.886719 L 221.5 471 L 220.46875 470.875 L 221.476563 469.683594 L 227.316406 466.367188 L 232.550781 467.761719 Z M 147.050781 363.949219 L 146.863281 362.949219 L 145.839844 360.59375 L 144.414063 358.617188 L 145.082031 354.738281 L 144.484375 351.265625 L 144.664063 351.183594 L 144.675781 351.183594 L 146.027344 352.859375 L 147.929688 354.386719 L 150.230469 355.527344 L 152.722656 356.136719 L 153.617188 356.109375 L 155.546875 356.503906 L 154.066406 358.859375 L 150.984375 360.816406 L 147.425781 363.976563 Z M 152.167969 172.523438 L 153.320313 171.121094 L 156.390625 168.453125 L 157.75 167.980469 L 160.300781 168.324219 L 161.058594 169.320313 L 157.109375 173.804688 L 156.367188 175.339844 L 156.707031 175.816406 L 157.367188 175.984375 L 158.261719 175.542969 L 161.140625 173.015625 L 167.808594 170.273438 L 170.480469 169.527344 L 170.492188 169.949219 L 171.554688 169.839844 L 173.589844 168.316406 L 174.046875 166.78125 L 178.648438 166.167969 L 179.285156 167.089844 L 180.148438 167.667969 L 184.320313 169.011719 L 185.433594 168.386719 L 187.933594 168.761719 L 194.816406 168.644531 L 198.171875 170.746094 L 202.039063 171.597656 L 206.214844 171.023438 L 208.210938 170.148438 L 210.007813 168.917969 L 208.019531 171.234375 L 206.703125 173.984375 L 206.140625 177.113281 L 206.445313 180.277344 L 205.496094 182.375 L 204.980469 184.621094 L 205.105469 188.320313 L 206.445313 191.90625 L 206.445313 193.765625 L 206.226563 194.742188 L 203.9375 198.859375 L 203.921875 198.980469 L 203.011719 201.171875 L 202.570313 203.539063 L 200.179688 206.480469 L 199.898438 207.132813 L 199.179688 207.605469 L 197.078125 210.023438 L 197.433594 210.839844 L 197.785156 210.703125 L 197.761719 211.238281 L 197.234375 212.953125 L 196.773438 213.480469 L 195.414063 216.199219 L 195.394531 216.300781 L 191.214844 219.742188 L 185.519531 221.085938 L 182.847656 221.226563 L 177.804688 225.21875 L 178.117188 225.714844 L 179.84375 225.195313 L 184.609375 222.886719 L 186.457031 221.386719 L 187.289063 221.316406 L 189.085938 221.875 L 189.332031 222.921875 L 188.898438 224.691406 L 189.238281 225.953125 L 190.898438 226.824219 L 192.988281 227.191406 L 194.179688 228.445313 L 193.613281 229.910156 L 193.597656 230.121094 L 192.117188 231.570313 L 189.460938 232.730469 L 188.34375 232.882813 L 187.070313 232.078125 L 185.40625 232.042969 L 181.046875 235.800781 L 180.578125 237.003906 L 174.761719 240.109375 L 170.214844 238.117188 L 166.480469 238.003906 L 166.738281 239.222656 L 168.246094 240.195313 L 178.0625 241.875 L 182.921875 243.167969 L 186.398438 241.730469 L 187.519531 239.417969 L 188.617188 238.355469 L 189.539063 238.171875 L 193.183594 238.5 L 199.097656 242.59375 L 201.414063 244.570313 L 203.839844 245.664063 L 205.144531 245.925781 L 206.488281 246.65625 L 206.496094 246.675781 L 206.828125 249.867188 L 208.34375 253.242188 L 210.949219 256.046875 L 214.199219 257.816406 L 214.609375 260.058594 L 215.390625 262.066406 L 216.527344 263.894531 L 218.078125 265.570313 L 217.15625 267.660156 L 216.664063 269.894531 L 215.410156 267.167969 L 213.328125 264.632813 L 210.980469 262.878906 L 208.261719 261.773438 L 205.484375 261.378906 L 202.570313 261.691406 L 198.691406 261.027344 L 194.816406 261.691406 L 192.589844 261.144531 L 190.300781 261.042969 L 187.0625 261.691406 L 185.226563 259.546875 L 182.925781 257.902344 L 180.296875 256.867188 L 177.371094 256.492188 L 174.441406 256.867188 L 171.8125 257.902344 L 169.511719 259.546875 L 167.675781 261.691406 L 166.078125 258.773438 L 163.820313 256.507813 L 160.914063 254.890625 L 157.792969 254.179688 L 155.359375 254.222656 L 153.105469 254.730469 L 150.890625 255.738281 L 148.929688 257.183594 L 147.058594 259.089844 L 145.78125 260.980469 L 144.859375 263.203125 L 144.414063 265.570313 L 141.839844 266.707031 L 139.613281 268.429688 L 138.371094 270.019531 L 138.601563 268.871094 L 140.917969 265.085938 L 143.644531 263.800781 L 144.390625 261.886719 L 144.195313 260.621094 L 142.601563 256.71875 L 139.777344 254.832031 L 137.378906 252.511719 L 137.75 249.601563 L 137.960938 249.515625 L 139.8125 248.371094 L 141.585938 246.710938 L 143.042969 244.609375 L 143.757813 242.6875 L 146.15625 243.175781 L 148.300781 243.253906 L 144.15625 241.605469 L 144.414063 238.429688 L 146.414063 236.285156 L 147.816406 233.707031 L 148.574219 230.355469 L 148.292969 226.800781 L 150.59375 226.570313 L 152.683594 225.9375 L 154.726563 224.859375 L 156.515625 223.394531 L 157.980469 221.605469 L 159.0625 219.5625 L 159.71875 217.34375 L 159.921875 215.167969 L 162.09375 213.460938 L 163.800781 211.292969 L 171.105469 211.585938 L 175.058594 210.621094 L 177.164063 209.414063 L 178.972656 207.800781 L 180.535156 205.769531 L 181.636719 203.449219 L 182.257813 200.175781 L 181.957031 196.984375 L 180.796875 193.996094 L 178.796875 191.335938 L 176.527344 189.480469 L 173.738281 188.214844 L 170.71875 187.722656 L 167.675781 188.03125 L 167.472656 185.855469 L 166.816406 183.640625 L 165.734375 181.597656 L 164.269531 179.804688 L 161.9375 178 L 159.222656 176.84375 L 154.796875 176.257813 L 152.167969 176.398438 Z M 155.34375 167.757813 L 155.566406 167.257813 L 156.046875 164.769531 L 158.046875 162.625 L 158.808594 161.238281 L 161.363281 161.917969 L 164.042969 162.292969 L 165.242188 161.992188 L 166.015625 161.605469 L 166.75 160.257813 L 167.589844 160.183594 L 167.507813 160.828125 L 166.417969 162.609375 L 162.722656 166.96875 L 162.175781 167.183594 L 161.726563 166.894531 L 161.859375 165.949219 L 161.53125 165.507813 L 159.984375 165.785156 Z M 159.378906 160.203125 L 159.398438 160.167969 L 160.207031 156.691406 L 159.921875 153.136719 L 162.042969 152.765625 L 164.175781 151.949219 L 166.003906 150.8125 L 167.675781 149.261719 L 171.253906 149.261719 L 162.601563 156.074219 L 162.234375 157.082031 L 162.671875 158.175781 L 162.078125 159.632813 L 159.644531 160.289063 Z M 132.167969 263.480469 L 132.027344 263.347656 L 129.460938 261.890625 L 126.734375 261.144531 L 126.476563 261.136719 L 125.375 256.128906 L 125.988281 253.21875 L 128.179688 251.246094 L 129.539063 251.441406 L 131.390625 253.015625 L 132.984375 258.382813 L 133.019531 262.765625 L 132.308594 263.453125 Z M 121.71875 261.566406 L 121.152344 261.691406 L 122.324219 258.855469 L 122.710938 255.941406 L 122.324219 252.898438 L 121.152344 250.0625 L 122.980469 247.320313 L 124.675781 248.875 L 126.125 249.761719 L 124.449219 251.558594 L 123.367188 254.191406 Z M 134.300781 250.769531 L 135.113281 250.667969 L 135.242188 250.617188 L 135.222656 250.96875 L 134.8125 251.347656 Z M 179.308594 110.492188 L 181.660156 112.640625 L 184.628906 114.105469 L 181.886719 115.097656 L 179.308594 113.253906 Z M 187.691406 114.660156 L 187.765625 114.675781 L 190.9375 114.371094 L 190.9375 115.554688 L 189.996094 116.5625 Z M 167.804688 278.253906 L 168.402344 280.453125 L 169.417969 282.492188 L 167.675781 281.078125 Z M 137.972656 322.050781 L 139.234375 320.445313 L 140.09375 318.335938 L 140.496094 316.203125 L 142.300781 315.023438 L 144.765625 310.230469 L 145.863281 309.40625 L 148.304688 308.535156 L 148.132813 309.839844 L 148.292969 315.96875 L 146.121094 317.675781 L 144.414063 319.847656 L 141.898438 321.917969 L 141.203125 322.839844 L 139.824219 322.464844 L 137.933594 323.433594 L 137.675781 322.921875 Z M 147.261719 296.410156 L 147.070313 295.671875 L 145.734375 293.199219 L 148.292969 292.707031 L 148.660156 294.855469 L 149.367188 296.746094 L 149.308594 296.871094 L 148.746094 297.058594 Z M 132.785156 288.832031 L 134.691406 287.308594 L 135.34375 288.339844 Z M 117.875 215.332031 L 120.96875 215.972656 L 122.933594 215.761719 L 120.699219 217.253906 L 120.644531 217.207031 L 120.230469 216.390625 Z M 124.730469 221.566406 L 125.03125 222.921875 L 124.519531 223.375 L 124.058594 222.167969 L 124.160156 221.96875 Z M 123.902344 221.761719 L 123.660156 221.128906 L 124.476563 221.046875 Z M 286.679688 439.636719 L 283.058594 438.976563 L 282.164063 437.605469 L 282.484375 436.070313 L 286.839844 437.054688 L 287.960938 438.832031 Z M 286.679688 439.636719 "/>
</g>
</svg>
