<?xml version="1.0" encoding="UTF-8"?>
<svg xmlns="http://www.w3.org/2000/svg" xmlns:xlink="http://www.w3.org/1999/xlink" width="378pt" height="504pt" viewBox="0 0 378 504" version="1.1">
<g id="data">
<rect x="0" y="0" width="378" height="504" style="fill:rgb(100%,100%,100%);fill-opacity:1;stroke:none;"/>
<path style=" stroke:none;fill-rule:nonzero;fill:rgb(100%,100%,100%);fill-opacity:1;" d="M 53.308594 504 L 324.691406 504 L 324.691406 0 L 53.308594 0 Z M 53.308594 504 "/>
<path style=" stroke:none;fill-rule:nonzero;fill:rgb(22.745098%,53.333333%,16.078431%);fill-opacity:1;" d="M 154.136719 214.589844 L 154.554688 212.933594 L 155.4375 211.46875 L 156.710938 210.320313 L 158.257813 209.597656 L 159.953125 209.355469 L 161.644531 209.613281 L 163.1875 210.355469 L 165.164063 211.695313 L 166.652344 212.191406 L 168.328125 212.253906 L 169.851563 211.878906 L 171.210938 211.101563 L 172.378906 209.898438 L 173.117188 208.515625 L 173.625 206.179688 L 174.261719 204.527344 L 175.367188 203.140625 L 176.835938 202.152344 L 178.539063 201.652344 L 180.308594 201.6875 L 181.988281 202.253906 L 183.417969 203.300781 L 184.46875 204.730469 L 185.441406 206.609375 L 186.382813 207.671875 L 187.453125 208.421875 L 188.777344 208.9375 L 190.167969 209.113281 L 191.5625 208.953125 L 192.875 208.457031 L 194.617188 207.257813 L 196.238281 206.480469 L 198.019531 206.230469 L 199.792969 206.542969 L 200.347656 206.835938 L 199.179688 207.605469 L 197.078125 210.023438 L 197.433594 210.839844 L 197.785156 210.703125 L 197.761719 211.238281 L 196.796875 214.386719 L 195.867188 215.914063 L 191.214844 219.742188 L 185.519531 221.085938 L 182.847656 221.226563 L 177.804688 225.21875 L 178.117188 225.714844 L 179.84375 225.195313 L 184.609375 222.886719 L 186.457031 221.386719 L 187.289063 221.316406 L 189.085938 221.875 L 189.332031 222.921875 L 188.898438 224.691406 L 189.238281 225.953125 L 190.898438 226.824219 L 192.988281 227.191406 L 194.445313 228.726563 L 194.429688 229.304688 L 192.117188 231.570313 L 189.460938 232.730469 L 188.34375 232.882813 L 187.070313 232.078125 L 185.40625 232.042969 L 181.046875 235.800781 L 180.578125 237.003906 L 174.761719 240.109375 L 170.214844 238.117188 L 166.480469 238.003906 L 166.738281 239.222656 L 168.246094 240.195313 L 178.0625 241.875 L 182.921875 243.167969 L 186.398438 241.730469 L 187.519531 239.417969 L 188.617188 238.355469 L 189.539063 238.171875 L 193.183594 238.5 L 199.339844 242.761719 L 206.488281 246.65625 L 208.910156 251.429688 L 212.824219 256.707031 L 213.082031 256.777344 L 214.726563 258.855469 L 214.769531 258.933594 L 215.039063 258.976563 L 216.828125 259.582031 L 217.585938 259.664063 L 218.679688 263.09375 L 218.894531 265.933594 L 218.261719 267.402344 L 220.40625 277.574219 L 221.269531 280.457031 L 222.984375 284.039063 L 223.773438 285.027344 L 225.945313 294.183594 L 229.304688 299.0625 L 239.25 303.703125 L 239.097656 306.75 L 239.207031 307.957031 L 239.972656 309.953125 L 241.886719 312.195313 L 242.828125 313.726563 L 243.253906 315.472656 L 243.128906 317.265625 L 242.683594 319.214844 L 242.691406 320.542969 L 243.007813 321.851563 L 243.539063 322.921875 L 244.5625 324.132813 L 245.8125 324.996094 L 247.246094 325.503906 L 249.53125 325.679688 L 251.097656 326.019531 L 252.507813 326.769531 L 253.664063 327.882813 L 254.773438 329.292969 L 254.984375 329.992188 L 256.160156 332.453125 L 263.316406 342.46875 L 263.640625 343.980469 L 262.804688 345.191406 L 263.28125 343.65625 L 262.507813 342.839844 L 260.445313 342 L 258.378906 342.789063 L 257.507813 342.753906 L 256.035156 341.773438 L 253.664063 338.65625 L 252.601563 338.082031 L 245.550781 339.511719 L 244.589844 338.644531 L 243.40625 338.558594 L 241.210938 339.871094 L 241.886719 340.445313 L 246.324219 340.394531 L 249.617188 339.34375 L 251.976563 339.082031 L 254.382813 342.558594 L 260.535156 347.621094 L 263.042969 349.058594 L 263.242188 349.050781 L 263.003906 349.425781 L 262.59375 350.476563 L 262.421875 351.488281 L 262.953125 356.402344 L 263.335938 357.386719 L 264 358.402344 L 264.875 359.265625 L 265.773438 359.847656 L 267.164063 360.359375 L 269.152344 360.59375 L 269.214844 360.609375 L 269.535156 362.402344 L 269.210938 365.21875 L 264.953125 369.09375 L 261.394531 373.164063 L 260.601563 374.816406 L 262.84375 374.3125 L 264.9375 375.519531 L 266.9375 378.226563 L 270.21875 378.804688 L 270.625 378.746094 L 271.910156 376.796875 L 272.234375 374.960938 L 273.40625 371.914063 L 274.707031 370.632813 L 277.851563 370.085938 L 283.34375 370.234375 L 284.253906 370.867188 L 286.703125 370.742188 L 293.949219 371.515625 L 296.914063 372.84375 L 304.070313 378.085938 L 305.367188 380.105469 L 306.730469 384.164063 L 307.179688 391.25 L 306.777344 393.191406 L 306.890625 393.976563 L 305.789063 396.917969 L 303.519531 407.832031 L 297.144531 414.53125 L 295.578125 412.011719 L 292.742188 410.515625 L 292.480469 410.636719 L 293.898438 413.703125 L 295.890625 416.628906 L 296.3125 416.765625 L 296.164063 417.742188 L 294.574219 419.804688 L 292.191406 421.289063 L 290.003906 421.65625 L 289.660156 421.574219 L 288.214844 419.332031 L 284.976563 421.730469 L 280.71875 424.230469 L 282.339844 425.378906 L 285.105469 424.398438 L 286.097656 423.375 L 286.894531 423.164063 L 287.328125 423.710938 L 287.632813 428.84375 L 285.6875 430.875 L 283.441406 432.558594 L 282.84375 432.699219 L 279.644531 432.160156 L 274.75 433.78125 L 272.609375 436.117188 L 274.253906 436.015625 L 275.152344 434.667969 L 276.683594 434.363281 L 278.285156 434.328125 L 281.054688 434.949219 L 281.828125 435.589844 L 281.691406 436.328125 L 279.554688 436.347656 L 277.390625 437.65625 L 277.96875 438.546875 L 281.382813 438.964844 L 286.863281 440.339844 L 289.394531 439.9375 L 291.074219 438.957031 L 299.742188 437.757813 L 300.988281 440.148438 L 300.800781 445.449219 L 300.484375 445.621094 L 297.496094 446.707031 L 295.425781 448.402344 L 294.289063 449.132813 L 292.480469 450.015625 L 291.410156 450.890625 L 290.738281 451.738281 L 290.1875 452.832031 L 289.878906 454 L 289.871094 454.199219 L 289.847656 454.226563 L 289.460938 455.09375 L 289.214844 456.324219 L 289.414063 457.558594 L 289.234375 457.914063 L 286.253906 458.289063 L 284.1875 457.9375 L 281.042969 460.90625 L 278.484375 461.933594 L 274.789063 462.777344 L 272.597656 463.816406 L 270.539063 466.589844 L 269.761719 466.949219 L 259.269531 463.777344 L 256.070313 463.507813 L 244.628906 465.699219 L 242.703125 466.390625 L 242.113281 466.964844 L 241.902344 467.984375 L 241.359375 468.164063 L 238.210938 466.1875 L 238.632813 465.4375 L 239.46875 464.933594 L 237.714844 463.296875 L 231.496094 463.171875 L 231.378906 463.496094 L 232.574219 464.835938 L 232.214844 465.75 L 231.738281 466.042969 L 226.691406 465.496094 L 219.566406 468.449219 L 217.054688 467.824219 L 210.222656 468.96875 L 208.164063 468.875 L 207.273438 468.058594 L 206.238281 469.769531 L 209.429688 471.089844 L 209.714844 470.9375 L 210.1875 472.128906 L 209.566406 473.890625 L 206.84375 474.453125 L 204.453125 473.097656 L 203.015625 472.699219 L 197.625 472.007813 L 196.175781 472.65625 L 195.679688 473.863281 L 195.832031 474.871094 L 196.757813 475.523438 L 196.488281 476.304688 L 195.917969 475.996094 L 194.851563 473.972656 L 190.289063 470.589844 L 185.898438 468.519531 L 183.121094 467.984375 L 181.648438 469.066406 L 176.207031 469.78125 L 174.339844 470.335938 L 168.992188 473.234375 L 168.214844 474.070313 L 167.203125 476.179688 L 162.746094 489.226563 L 160.929688 490.242188 L 158.269531 489.722656 L 157.554688 489.058594 L 156.527344 486.851563 L 154.683594 485.4375 L 153.613281 485.542969 L 152.417969 486.300781 L 151.738281 486.164063 L 148.46875 482.535156 L 142.796875 482.960938 L 141.527344 483.375 L 140.734375 484.175781 L 140.242188 484.375 L 139.292969 483.132813 L 138.6875 481.4375 L 138.628906 479.636719 L 139.203125 475.058594 L 138.683594 472.03125 L 138.671875 470.136719 L 139.269531 468.335938 L 140.414063 466.828125 L 141.980469 465.765625 L 143.808594 465.261719 L 145.699219 465.375 L 147.457031 466.089844 L 148.886719 467.328125 L 150.585938 469.371094 L 153.191406 471.265625 L 154.722656 471.859375 L 156.203125 472 L 158.207031 471.558594 L 160.71875 469.992188 L 161.570313 469.550781 L 163.625 468.699219 L 164.722656 467.878906 L 165.640625 466.738281 L 166.269531 465.332031 L 166.484375 463.941406 L 165.402344 456.90625 L 164.902344 455.792969 L 164.089844 454.738281 L 163.054688 453.890625 L 161.25 453.011719 L 159.769531 451.976563 L 158.675781 450.535156 L 158.078125 448.832031 L 158.035156 447.023438 L 158.320313 446.058594 L 159.910156 445.683594 L 164.597656 446.761719 L 166.046875 446.148438 L 167.527344 446.515625 L 169.484375 447.285156 L 170.039063 448.109375 L 170.757813 448.421875 L 173.15625 448.464844 L 180.570313 447.503906 L 181.109375 445.632813 L 181.210938 443.15625 L 182.519531 440.25 L 190.867188 432.195313 L 195.792969 425.3125 L 197.929688 424.472656 L 198.285156 423.78125 L 198.070313 423.238281 L 197.8125 423.082031 L 196.09375 424.355469 L 192.90625 427.300781 L 190.570313 429.988281 L 189.222656 431.449219 L 185.628906 432.957031 L 183.714844 433.246094 L 182.441406 433.0625 L 178.394531 435.230469 L 177.398438 436.808594 L 177.039063 438.671875 L 176.445313 439.273438 L 174.058594 439.917969 L 170.558594 439.851563 L 167.820313 439.226563 L 168.34375 438.171875 L 168.652344 436.855469 L 168.652344 435.519531 L 168.332031 434.15625 L 167.902344 433.25 L 166.871094 431.847656 L 166.171875 430.597656 L 165.347656 428.582031 L 164.800781 427.800781 L 163.457031 426.625 L 161.898438 425.910156 L 160.582031 425.691406 L 159.175781 425.800781 L 157.554688 426.339844 L 156.3125 427.097656 L 155.390625 428.015625 L 154.652344 429.222656 L 154.363281 430.140625 L 149.269531 432.308594 L 149.113281 432.746094 L 147.203125 431.632813 L 146.917969 429.308594 L 148.539063 428.378906 L 150.066406 428.890625 L 151.640625 428.421875 L 152.765625 427.832031 L 153.085938 427.097656 L 152.808594 426.597656 L 147.785156 426.460938 L 143.210938 423.710938 L 139.503906 423.714844 L 136.765625 424.277344 L 136.292969 426.515625 L 135.777344 427.203125 L 133.742188 427.917969 L 132.394531 427.265625 L 131.648438 427.453125 L 129.4375 429.378906 L 126.53125 428.132813 L 127.425781 426.082031 L 128.796875 425.832031 L 131.792969 424.328125 L 131.226563 422.867188 L 130.640625 424.257813 L 127.769531 424.613281 L 122.949219 424.152344 L 121.496094 423.164063 L 124.125 421.78125 L 125.167969 421.753906 L 125.464844 421.238281 L 124.929688 417.953125 L 123.328125 417.210938 L 121.445313 417.105469 L 122.0625 415.152344 L 125.933594 413.378906 L 126.539063 411.90625 L 133.074219 411.34375 L 134.871094 409.289063 L 135.753906 407.632813 L 137.585938 406.550781 L 141.359375 406.660156 L 142.21875 406.390625 L 149.359375 401.828125 L 152.136719 398.207031 L 153.054688 396.195313 L 154.199219 391.746094 L 153.734375 388.820313 L 152.835938 387.0625 L 154.109375 387.125 L 157.296875 387.828125 L 158.890625 388.433594 L 160.238281 389.476563 L 161.226563 390.863281 L 162.429688 393.222656 L 163.03125 395.253906 L 162.867188 397.367188 L 161.957031 399.277344 L 159.449219 402.734375 L 159.121094 403.566406 L 158.921875 404.613281 L 158.929688 405.777344 L 159.164063 406.902344 L 159.617188 407.96875 L 160.082031 408.652344 L 161.8125 410.125 L 163.75 410.851563 L 166.652344 411.027344 L 168.09375 410.800781 L 169.257813 410.378906 L 170.261719 409.753906 L 171.199219 408.847656 L 171.875 407.84375 L 172.300781 406.777344 L 172.527344 405.265625 L 172.375 403.796875 L 171.898438 402.511719 L 170.640625 400.679688 L 169.8125 398.878906 L 169.636719 396.90625 L 170.132813 394.988281 L 171.242188 393.347656 L 172.570313 391.972656 L 173.230469 390.890625 L 173.636719 389.691406 L 173.765625 388.507813 L 173.105469 383.8125 L 172.703125 382.894531 L 171.921875 381.824219 L 171.101563 381.089844 L 170.035156 380.472656 L 168.882813 380.097656 L 167.066406 379.90625 L 165.011719 379.292969 L 163.320313 377.976563 L 161.730469 376.179688 L 160.492188 375.382813 L 158.425781 374.847656 L 156.421875 375.046875 L 154.609375 375.929688 L 152.496094 378.140625 L 152.320313 378.277344 L 152.269531 378.203125 L 152.683594 374.835938 L 153.175781 374.082031 L 152.804688 373.207031 L 150.203125 373.105469 L 145.449219 374.257813 L 143.757813 375.484375 L 143.070313 376.53125 L 142.675781 375.636719 L 142.480469 373.898438 L 142.8125 372.175781 L 143.027344 371.574219 L 147.132813 367.984375 L 147.953125 364.523438 L 151.550781 360.582031 L 153.09375 359.609375 L 154.941406 359.808594 L 160.492188 357.457031 L 163.644531 357.28125 L 167.339844 357.714844 L 172.597656 355.179688 L 173.933594 355.046875 L 174.484375 355.082031 L 179.910156 359.441406 L 180.433594 358.429688 L 177.679688 353.460938 L 178.242188 352.835938 L 180.867188 352.449219 L 181.503906 352.695313 L 181.914063 353.875 L 182.898438 354.332031 L 184.078125 356.789063 L 185.613281 357.902344 L 188.359375 357.621094 L 190.335938 355.148438 L 189.90625 355.050781 L 188.667969 355.527344 L 188.3125 355.957031 L 186.378906 356.386719 L 183.8125 354.640625 L 179.976563 346.332031 L 183.371094 340.257813 L 185.429688 339.015625 L 185.140625 338.578125 L 182.683594 338.460938 L 181.554688 337.164063 L 181.355469 336.117188 L 181.601563 331.078125 L 181.949219 330.421875 L 184.695313 329.191406 L 187.28125 323.421875 L 187.71875 320.933594 L 187.855469 317.484375 L 184.742188 320.527344 L 179.199219 323.441406 L 177.335938 322.691406 L 172.851563 314.925781 L 172.289063 311.832031 L 171.960938 311.351563 L 172.175781 311.152344 L 173.886719 310.363281 L 175.761719 310.164063 L 177.601563 310.574219 L 179.210938 311.550781 L 180.65625 312.789063 L 181.871094 313.421875 L 183.085938 313.738281 L 185.003906 313.804688 L 186.945313 314.210938 L 188.636719 315.242188 L 189.882813 316.78125 L 190.539063 318.652344 L 190.53125 320.632813 L 189.984375 323.722656 L 190.394531 325.890625 L 193.480469 331.457031 L 194.214844 332.304688 L 195 332.910156 L 197.027344 333.785156 L 198.515625 334.007813 L 201.617188 333.492188 L 203.378906 333.472656 L 204.988281 333.699219 L 205.808594 333.660156 L 208.171875 332.875 L 209.328125 332.03125 L 211.222656 329.933594 L 211.914063 328.59375 L 212.390625 326.371094 L 212.902344 324.941406 L 213.769531 323.695313 L 215.042969 322.289063 L 215.6875 321.152344 L 216.019531 320.148438 L 216.253906 318.488281 L 216.140625 312.199219 L 216.371094 310.464844 L 217.109375 308.875 L 218.484375 306.800781 L 218.945313 305.304688 L 218.914063 303.285156 L 218.144531 301.269531 L 216.035156 298.640625 L 215.304688 298.089844 L 214.359375 297.621094 L 213.136719 297.296875 L 212.003906 297.234375 L 210.867188 297.398438 L 209.890625 297.746094 L 208.453125 298.691406 L 206.945313 300.414063 L 205.90625 301.347656 L 204.675781 302.003906 L 202.980469 302.664063 L 201.945313 303.339844 L 201.199219 304.078125 L 200.269531 305.414063 L 199.113281 306.652344 L 197.644531 307.503906 L 195.996094 307.894531 L 194.304688 307.792969 L 192.710938 307.210938 L 191.355469 306.191406 L 190.351563 304.824219 L 189.460938 303.140625 L 188.613281 302.144531 L 186.40625 300.4375 L 185.117188 299.792969 L 183.800781 299.480469 L 182.5625 299.476563 L 181.242188 299.769531 L 179.433594 300.652344 L 177.644531 301.1875 L 175.777344 301.128906 L 174.023438 300.480469 L 172.570313 299.308594 L 171.558594 297.738281 L 171.097656 295.929688 L 171.027344 295.132813 L 174.074219 288.722656 L 176.464844 286.417969 L 178.757813 285.980469 L 180.191406 286.804688 L 181.015625 286.710938 L 182.933594 286.238281 L 183.03125 285.160156 L 182.34375 284.746094 L 180.035156 285.351563 L 174.65625 284.980469 L 172.566406 284.292969 L 169.453125 284.03125 L 168.640625 287.3125 L 166.878906 286.976563 L 165.6875 286.542969 L 164.085938 285.648438 L 162.839844 284.304688 L 162.074219 282.636719 L 161.867188 280.8125 L 161.996094 277.988281 L 162.351563 276.234375 L 163.222656 274.671875 L 164.53125 273.449219 L 166.148438 272.679688 L 167.921875 272.4375 L 169.683594 272.75 L 171.269531 273.582031 L 172.523438 274.855469 L 173.335938 276.449219 L 174.398438 279.707031 L 174.636719 281.226563 L 176.265625 281.410156 L 178.476563 282.023438 L 179.953125 282.03125 L 181.625 281.558594 L 183.878906 280.085938 L 185.402344 279.378906 L 187.0625 279.136719 L 190.9375 279.136719 L 192.664063 279.402344 L 194.234375 280.164063 L 196.066406 281.421875 L 197.347656 281.894531 L 198.820313 282.050781 L 200.316406 281.828125 L 201.4375 281.371094 L 203.097656 280.199219 L 204.964844 279.332031 L 208.152344 278.488281 L 209.3125 277.753906 L 210.070313 276.984375 L 210.660156 276.097656 L 211.082031 275.101563 L 211.425781 273.511719 L 211.699219 272.792969 L 211.332031 272.210938 L 210.585938 270.492188 L 209.710938 269.289063 L 208.949219 268.484375 L 208.667969 268.0625 L 208.546875 268.046875 L 206.074219 267.332031 L 202.875 267.5 L 201.492188 267.40625 L 198.707031 266.882813 L 197.808594 266.9375 L 196.234375 267.332031 L 194.832031 267.507813 L 193.425781 267.339844 L 191.761719 266.929688 L 190.75 266.886719 L 188.203125 267.394531 L 186.144531 267.433594 L 184.203125 266.757813 L 182.621094 265.445313 L 181.328125 263.917969 L 180.183594 263.082031 L 178.882813 262.550781 L 177.511719 262.351563 L 176.039063 262.507813 L 174.667969 263.023438 L 173.460938 263.878906 L 172.097656 265.472656 L 170.671875 266.675781 L 168.941406 267.367188 L 167.078125 267.476563 L 165.277344 266.988281 L 163.722656 265.957031 L 162.578125 264.488281 L 161.390625 262.320313 L 160.148438 261.101563 L 158.707031 260.339844 L 157.027344 260.003906 L 155.699219 260.09375 L 154.351563 260.527344 L 153.171875 261.246094 L 151.339844 262.984375 L 149.757813 264.050781 L 147.917969 264.550781 L 146.011719 264.425781 L 144.25 263.695313 L 143.832031 263.320313 L 144.390625 261.886719 L 144.195313 260.621094 L 142.601563 256.71875 L 141.121094 255.730469 L 140.769531 254.949219 L 139.703125 253.464844 L 138.835938 251.707031 L 138.609375 249.757813 L 139.039063 247.84375 L 139.921875 245.707031 L 140.109375 244.292969 L 139.914063 242.769531 L 139.578125 241.953125 L 140.710938 241.59375 L 142.886719 242.511719 L 146.15625 243.175781 L 148.300781 243.253906 L 141.261719 240.453125 L 140.441406 240.5625 L 139.386719 240.085938 L 139.183594 238.121094 L 139.414063 236.460938 L 140.238281 234.648438 L 139.96875 234.730469 L 140.117188 234.511719 L 141.722656 232.75 L 142.425781 231.355469 L 142.730469 229.710938 L 142.503906 227.355469 L 142.613281 225.546875 L 143.277344 223.855469 L 144.429688 222.453125 L 145.957031 221.472656 L 147.714844 221.011719 L 149.453125 220.839844 L 150.460938 220.535156 L 151.492188 219.988281 L 152.382813 219.261719 L 153.113281 218.371094 L 153.65625 217.339844 L 153.960938 216.328125 Z M 138.921875 356.25 L 139.023438 355.660156 L 139.253906 355.210938 L 140.597656 355.164063 L 141.484375 356.3125 L 142.226563 358.1875 L 141.734375 358.875 L 141.003906 358.070313 L 139.230469 356.960938 Z M 138.65625 238.4375 L 138.6875 237.421875 L 139.035156 236.363281 Z M 203.375 203.070313 L 202.144531 203.054688 L 200.523438 202.539063 L 199.121094 201.578125 L 198.054688 200.25 L 196.726563 197.980469 L 194.78125 196.210938 L 193.621094 194.753906 L 192.980469 193.003906 L 192.925781 191.140625 L 193.464844 189.359375 L 194.539063 187.835938 L 196.039063 186.730469 L 197.8125 186.160156 L 199.675781 186.175781 L 202.570313 186.671875 L 205.460938 186.175781 L 207.144531 186.132813 L 208.042969 186.378906 L 207.15625 188.339844 L 206.664063 191.242188 L 206.84375 191.972656 L 206.226563 194.742188 L 203.9375 198.859375 L 203.765625 200.121094 L 204.023438 201.304688 Z M 150.320313 163.757813 L 150.925781 162.011719 L 152.050781 160.542969 L 153.582031 159.503906 L 154.183594 159.21875 L 154.464844 159.796875 L 155.875 160.457031 L 161.363281 161.917969 L 164.042969 162.292969 L 165.242188 161.992188 L 166.015625 161.605469 L 166.75 160.257813 L 167.589844 160.183594 L 167.507813 160.828125 L 166.417969 162.609375 L 162.722656 166.96875 L 162.175781 167.183594 L 161.726563 166.894531 L 161.859375 165.949219 L 161.53125 165.507813 L 159.984375 165.785156 L 155.320313 167.769531 L 152.441406 170.8125 L 151.949219 171.945313 L 152.140625 172.144531 L 156.390625 168.453125 L 157.75 167.980469 L 160.300781 168.324219 L 161.058594 169.320313 L 157.109375 173.804688 L 156.367188 175.339844 L 156.707031 175.816406 L 157.367188 175.984375 L 158.261719 175.542969 L 161.140625 173.015625 L 167.808594 170.273438 L 170.480469 169.527344 L 170.492188 169.949219 L 171.554688 169.839844 L 173.589844 168.316406 L 174.046875 166.78125 L 178.648438 166.167969 L 179.285156 167.089844 L 180.148438 167.667969 L 184.320313 169.011719 L 187.675781 167.128906 L 196.699219 168.589844 L 196.613281 169.921875 L 195.941406 171.613281 L 194.777344 173.015625 L 193.019531 174.558594 L 191.734375 176.515625 L 190.644531 177.75 L 189.25 178.632813 L 187.664063 179.085938 L 186.015625 179.078125 L 184.4375 178.605469 L 182.023438 177.492188 L 180.230469 177.269531 L 178.589844 177.542969 L 175.449219 178.847656 L 174.410156 179.660156 L 173.546875 180.761719 L 172.976563 182.035156 L 172.601563 184.109375 L 172.007813 185.808594 L 170.925781 187.246094 L 169.457031 188.285156 L 167.738281 188.824219 L 165.941406 188.8125 L 164.230469 188.25 L 162.773438 187.191406 L 161.710938 185.742188 L 160.910156 184.191406 L 160.257813 183.367188 L 159.359375 182.597656 L 158.429688 182.074219 L 157.398438 181.726563 L 156.324219 181.574219 L 155.257813 181.628906 L 153.5625 182.046875 L 151.820313 182.203125 L 150.109375 181.839844 L 148.585938 180.980469 L 147.382813 179.703125 L 146.617188 178.128906 L 146.355469 176.398438 L 146.355469 172.523438 L 146.761719 170.386719 L 147.925781 168.546875 L 149.015625 167.382813 L 149.628906 166.40625 L 150.042969 165.332031 Z M 155.382813 158.65625 L 155.84375 158.441406 L 157.097656 157.34375 L 157.734375 156.433594 L 158.441406 154.753906 L 159.34375 153.28125 L 161.070313 151.21875 L 161.796875 149.703125 L 162.898438 148.128906 L 164.449219 147.003906 L 166.285156 146.441406 L 168.199219 146.507813 L 169.992188 147.195313 L 171.460938 148.425781 L 171.738281 148.882813 L 162.601563 156.074219 L 162.234375 157.082031 L 162.671875 158.175781 L 162.078125 159.632813 L 159.644531 160.289063 L 156.839844 159.359375 Z M 121.730469 482.742188 L 123.023438 483.90625 L 124.425781 484.589844 L 125.980469 484.871094 L 128.351563 484.640625 L 130.167969 484.753906 L 131.742188 485.375 L 129.414063 488.195313 L 126.714844 489.746094 L 124.039063 490.597656 L 123.132813 494.289063 L 123.664063 495.292969 L 123.496094 496.125 L 122.722656 496.945313 L 120.660156 497.648438 L 119.628906 499.730469 L 118.675781 498.910156 L 117.96875 497.691406 L 118.09375 496.4375 L 117.15625 494.691406 L 115.984375 493.691406 L 112.253906 492.070313 L 111.410156 491.984375 L 110.375 492.488281 L 110.242188 494.183594 L 109.421875 495.128906 L 106.824219 495.664063 L 105.398438 494.824219 L 105.628906 491.574219 L 106.074219 490.5625 L 111.738281 488.078125 L 112.199219 488.253906 L 112.445313 488.9375 L 113.574219 489.15625 L 118.144531 485.910156 L 121.425781 483.085938 Z M 147.425781 363.976563 L 146.109375 363.875 L 144.195313 361.613281 L 142.050781 357.363281 L 142.246094 352.273438 L 144.664063 351.183594 L 146.003906 350.957031 L 149.566406 352.007813 L 151.039063 355.578125 L 155.546875 356.503906 L 154.066406 358.859375 L 150.984375 360.816406 Z M 137.933594 323.433594 L 137.675781 322.921875 L 139.816406 316.644531 L 142.300781 315.023438 L 144.765625 310.230469 L 145.863281 309.40625 L 149.046875 308.269531 L 150.203125 313.453125 L 147.847656 318.148438 L 145.3125 320.636719 L 141.859375 323.019531 L 139.824219 322.464844 Z M 286.679688 439.636719 L 283.058594 438.976563 L 282.164063 437.605469 L 282.484375 436.070313 L 286.839844 437.054688 L 287.960938 438.832031 Z M 236.835938 466.113281 L 235.136719 465.644531 L 236.523438 463.683594 L 237.195313 464.164063 L 237.5 465.839844 Z M 228.117188 474.644531 L 222.296875 470.886719 L 220.207031 471.1875 L 221.476563 469.683594 L 227.316406 466.367188 L 232.550781 467.761719 L 234.171875 469.894531 L 231.242188 473.621094 L 229.960938 474.269531 Z M 228.117188 474.644531 "/>
<path style=" stroke:none;fill-rule:nonzero;fill:rgb(80.392157%,58.431373%,4.705882%);fill-opacity:1;" d="M 108.082031 147.09375 L 107.726563 147.039063 L 107.539063 146.941406 L 108.015625 146.824219 Z M 106.714844 146.523438 L 106.105469 146.210938 L 104.816406 144.925781 L 103.992188 143.304688 L 103.707031 141.507813 L 103.992188 139.710938 L 104.816406 138.089844 L 106.105469 136.804688 L 107.726563 135.976563 L 109.523438 135.691406 L 111.320313 135.976563 L 112.800781 136.730469 L 112.328125 137.878906 L 110.105469 140.078125 L 109.925781 141.289063 L 111.058594 141.910156 L 112.367188 141.523438 L 113.644531 140.4375 L 114.097656 140.800781 L 113.746094 142.269531 L 112.140625 143.671875 L 111.234375 143.917969 L 109.761719 143.558594 L 108.839844 144.542969 L 108.40625 145.765625 Z M 106.714844 146.523438 "/>
<path style=" stroke:none;fill-rule:nonzero;fill:rgb(80.392157%,58.431373%,4.705882%);fill-opacity:1;" d="M 130.847656 222.921875 L 130.5625 224.71875 L 129.734375 226.339844 L 128.449219 227.628906 L 126.828125 228.453125 L 125.03125 228.738281 L 123.234375 228.453125 L 122.046875 227.847656 L 122.070313 227.40625 L 122.761719 224.691406 L 124.160156 221.96875 L 126.660156 220.210938 L 128.792969 220.179688 L 129.328125 220.484375 L 130.199219 220.417969 L 130.5625 221.125 Z M 121.804688 227.726563 L 121.613281 227.628906 L 121.585938 227.601563 L 121.816406 227.683594 Z M 119.292969 223.421875 L 119.214844 222.921875 L 119.5 221.125 L 120.324219 219.503906 L 120.921875 218.910156 L 121.195313 219.144531 L 120.902344 221.207031 L 119.445313 223.339844 Z M 127.464844 217.714844 L 128.449219 218.21875 L 129.175781 218.945313 L 127.28125 218.265625 Z M 123.378906 222.417969 L 122.582031 222.078125 L 123.082031 221.191406 L 124.476563 221.046875 Z M 121.453125 227.109375 L 121.152344 226.972656 L 120.984375 225.621094 L 121.59375 224.800781 L 122.367188 224.816406 L 121.953125 226.621094 Z M 121.453125 227.109375 "/>
<path style=" stroke:none;fill-rule:nonzero;fill:rgb(80.392157%,58.431373%,4.705882%);fill-opacity:1;" d="M 146.355469 459.414063 L 146.070313 461.210938 L 145.242188 462.832031 L 143.957031 464.121094 L 142.335938 464.945313 L 140.539063 465.230469 L 138.742188 464.945313 L 138.472656 464.808594 L 138.636719 464.640625 L 139.128906 458.542969 L 139.796875 454.753906 L 142.492188 455.105469 L 144.269531 456.015625 L 144.980469 455.734375 L 145.242188 455.996094 L 146.070313 457.617188 Z M 146.355469 459.414063 "/>
<path style=" stroke:none;fill-rule:nonzero;fill:rgb(80.392157%,58.431373%,4.705882%);fill-opacity:1;" d="M 126.96875 234.554688 L 126.683594 236.351563 L 125.859375 237.972656 L 125.464844 238.367188 L 125.460938 238.363281 L 125.460938 238.367188 L 124.570313 239.257813 L 122.949219 240.085938 L 121.152344 240.371094 L 120.609375 240.28125 L 121.945313 238.054688 L 122.191406 237.09375 L 120.824219 237.742188 L 119.636719 239.75 L 119.449219 238.929688 L 123.929688 230.9375 L 123.671875 230.734375 L 122.386719 231.796875 L 121.808594 231.777344 L 121.984375 228.871094 L 122.949219 229.023438 L 124.570313 229.847656 L 125.859375 231.136719 L 126.683594 232.757813 Z M 116.648438 238.171875 L 116.449219 237.972656 L 115.625 236.351563 L 115.367188 234.730469 L 116.605469 233.660156 L 119.195313 232.023438 L 119.632813 233.128906 L 119.449219 233.945313 L 118.015625 235.730469 Z M 120.464844 228.847656 L 121.152344 228.738281 L 121.464844 228.789063 L 120.902344 230.566406 L 120.316406 229.273438 Z M 118.503906 231.671875 L 118.15625 231.449219 L 118.535156 230.824219 L 119.917969 230.164063 L 119.953125 231.257813 Z M 118.503906 231.671875 "/>
<path style=" stroke:none;fill-rule:nonzero;fill:rgb(80.392157%,58.431373%,4.705882%);fill-opacity:1;" d="M 125.996094 253.210938 L 125.984375 253.234375 L 125.988281 253.21875 Z M 123.066406 255.53125 L 122.949219 255.59375 L 121.152344 255.875 L 119.355469 255.59375 L 118.417969 255.113281 L 120.664063 249.058594 L 119.164063 246.890625 L 119.265625 244.578125 L 119.355469 244.53125 L 121.152344 244.246094 L 122.949219 244.53125 L 124.570313 245.355469 L 125.859375 246.644531 L 126.011719 246.941406 L 126.1875 249.699219 L 124.449219 251.558594 L 123.367188 254.191406 Z M 123.066406 255.53125 "/>
<path style=" stroke:none;fill-rule:nonzero;fill:rgb(80.392157%,58.431373%,4.705882%);fill-opacity:1;" d="M 126.96875 168.644531 L 126.683594 170.441406 L 126 171.785156 L 123.910156 171.675781 L 123.300781 171.917969 L 120.253906 167.773438 L 120.433594 162.945313 L 121.152344 162.832031 L 122.949219 163.117188 L 124.570313 163.941406 L 125.859375 165.226563 L 126.683594 166.847656 Z M 125.117188 172.808594 L 124.570313 173.351563 L 122.949219 174.175781 L 121.152344 174.460938 L 119.355469 174.175781 L 118.625 173.804688 L 119.414063 170.535156 L 120.097656 170.289063 L 120.859375 170.738281 L 121.429688 171.886719 L 123.644531 173.570313 L 124.390625 172.890625 Z M 116.421875 172.011719 L 115.984375 171.152344 L 116.085938 170.789063 L 116.59375 170.277344 L 116.765625 170.625 Z M 116.421875 172.011719 "/>
<path style=" stroke:none;fill-rule:nonzero;fill:rgb(80.392157%,58.431373%,4.705882%);fill-opacity:1;" d="M 138.601563 288.832031 L 138.597656 288.839844 L 138.398438 288.636719 L 137.464844 288.296875 L 135.511719 289.683594 L 134.605469 291.238281 L 135.472656 293.90625 L 134.582031 294.363281 L 134.527344 294.371094 L 133.472656 292.679688 L 130.894531 289.722656 L 129.605469 286.988281 L 129.300781 285.09375 L 129.449219 284.082031 L 130.988281 283.300781 L 132.785156 283.015625 L 134.582031 283.300781 L 136.203125 284.125 L 137.488281 285.414063 L 138.316406 287.035156 Z M 138.601563 288.832031 "/>
<path style=" stroke:none;fill-rule:nonzero;fill:rgb(80.392157%,58.431373%,4.705882%);fill-opacity:1;" d="M 126.96875 164.769531 L 126.683594 166.566406 L 125.859375 168.1875 L 124.570313 169.472656 L 122.949219 170.300781 L 122.199219 170.417969 L 120.253906 167.773438 L 120.550781 159.835938 L 120.835938 159.003906 L 121.152344 158.953125 L 122.949219 159.238281 L 123.777344 159.660156 L 124.035156 161.566406 L 125.066406 162.535156 L 125.355469 162.453125 L 125.667969 161.160156 L 125.859375 161.351563 L 126.683594 162.972656 Z M 120.398438 170.464844 L 119.847656 170.378906 L 120.097656 170.289063 Z M 120.398438 170.464844 "/>
<path style=" stroke:none;fill-rule:nonzero;fill:rgb(80.392157%,58.431373%,4.705882%);fill-opacity:1;" d="M 142.476563 273.324219 L 142.191406 275.121094 L 141.367188 276.742188 L 140.078125 278.027344 L 138.457031 278.855469 L 136.660156 279.136719 L 134.863281 278.855469 L 133.507813 278.160156 L 134.003906 276.632813 L 137.757813 273.035156 L 138.601563 268.871094 L 139.070313 268.105469 L 140.078125 268.617188 L 141.367188 269.90625 L 142.191406 271.527344 Z M 142.476563 273.324219 "/>
<path style=" stroke:none;fill-rule:nonzero;fill:rgb(80.392157%,58.431373%,4.705882%);fill-opacity:1;" d="M 126.96875 261.691406 L 126.9375 261.898438 L 126.582031 261.613281 L 125.84375 258.257813 L 125.859375 258.273438 L 126.683594 259.894531 Z M 121.164063 267.503906 L 121.152344 267.507813 L 119.355469 267.222656 L 117.734375 266.398438 L 116.449219 265.109375 L 115.902344 264.039063 L 117.226563 262.640625 L 117.917969 256.894531 L 119.355469 256.160156 L 121.152344 255.875 L 122.925781 256.15625 L 121.183594 263.964844 L 122.0625 266.289063 Z M 121.164063 267.503906 "/>
<path style=" stroke:none;fill-rule:nonzero;fill:rgb(80.392157%,58.431373%,4.705882%);fill-opacity:1;" d="M 212.847656 173.804688 L 212.121094 174.175781 L 210.324219 174.460938 L 208.527344 174.175781 L 206.90625 173.351563 L 205.617188 172.0625 L 204.792969 170.441406 L 204.507813 168.644531 L 204.515625 168.589844 L 205.648438 167.671875 L 207.910156 167.828125 L 210.3125 168.835938 L 212.550781 172.800781 Z M 212.847656 173.804688 "/>
<path style=" stroke:none;fill-rule:nonzero;fill:rgb(80.392157%,58.431373%,4.705882%);fill-opacity:1;" d="M 143.945313 292.808594 L 144.875 291.878906 L 146.496094 291.054688 L 148.292969 290.769531 L 148.496094 290.800781 L 149.574219 292.960938 L 149.839844 295.726563 L 149.308594 296.871094 L 148.746094 297.058594 L 145.816406 295.78125 L 144.601563 294.238281 L 144.507813 293.621094 Z M 143.945313 292.808594 "/>
<path style=" stroke:none;fill-rule:nonzero;fill:rgb(80.392157%,58.431373%,4.705882%);fill-opacity:1;" d="M 224.949219 69.644531 L 224.035156 69.5 L 222.757813 68.851563 L 222.910156 68.203125 L 223.429688 67.644531 L 224.308594 63.570313 L 223.730469 58.59375 L 224.035156 58.4375 L 225.832031 58.152344 L 225.976563 58.175781 L 226.023438 58.453125 L 227.246094 61.769531 L 226.800781 62.460938 L 226.285156 62.238281 L 225.40625 63.738281 L 225.265625 67.207031 Z M 220.765625 61.257813 L 221.125 60.550781 L 222.183594 59.492188 L 222.21875 59.898438 Z M 220.765625 61.257813 "/>
</g>
</svg>
