<?xml version="1.0" encoding="UTF-8"?>
<svg xmlns="http://www.w3.org/2000/svg" xmlns:xlink="http://www.w3.org/1999/xlink" width="378pt" height="504pt" viewBox="0 0 378 504" version="1.1">
<g id="data">
<rect x="0" y="0" width="378" height="504" style="fill:rgb(100%,100%,100%);fill-opacity:1;stroke:none;"/>
<path style=" stroke:none;fill-rule:nonzero;fill:rgb(100%,100%,100%);fill-opacity:1;" d="M 53.308594 504 L 324.691406 504 L 324.691406 0 L 53.308594 0 Z M 53.308594 504 "/>
<path style=" stroke:none;fill-rule:nonzero;fill:rgb(22.745098%,53.333333%,16.078431%);fill-opacity:1;" d="M 167.675781 211.292969 L 169.433594 212.589844 L 171.402344 213.535156 L 173.636719 214.113281 L 175.816406 214.246094 L 179.820313 213.394531 L 183.183594 211.292969 L 186.316406 211.394531 L 190.386719 210.515625 L 192.835938 209.191406 L 194.816406 207.414063 L 197.65625 205.953125 L 200.070313 203.671875 L 201.253906 201.847656 L 202.117188 199.710938 L 202.53125 197.578125 L 202.585938 195.125 L 205.71875 195.660156 L 203.9375 198.859375 L 203.914063 199.039063 L 203.757813 199.285156 L 202.976563 201.292969 L 202.570313 203.539063 L 200.3125 205.335938 L 197.296875 208.886719 L 196.0625 210.804688 L 195.257813 212.804688 L 194.679688 216.292969 L 194.710938 216.863281 L 191.214844 219.742188 L 185.519531 221.085938 L 182.847656 221.226563 L 177.804688 225.21875 L 178.117188 225.714844 L 179.84375 225.195313 L 184.609375 222.886719 L 186.457031 221.386719 L 187.289063 221.316406 L 189.085938 221.875 L 189.332031 222.921875 L 188.898438 224.691406 L 189.238281 225.953125 L 190.898438 226.824219 L 192.988281 227.191406 L 193.707031 227.949219 L 194.304688 229.421875 L 192.117188 231.570313 L 189.460938 232.730469 L 188.34375 232.882813 L 187.070313 232.078125 L 185.40625 232.042969 L 181.046875 235.800781 L 180.578125 237.003906 L 174.761719 240.109375 L 170.214844 238.117188 L 166.480469 238.003906 L 166.738281 239.222656 L 168.246094 240.195313 L 178.0625 241.875 L 182.921875 243.167969 L 186.398438 241.730469 L 187.519531 239.417969 L 188.617188 238.355469 L 189.539063 238.171875 L 193.183594 238.5 L 198.679688 242.304688 L 199.773438 243.378906 L 201.636719 244.695313 L 203.960938 245.703125 L 205.167969 245.9375 L 206.488281 246.65625 L 206.605469 246.890625 L 207.175781 249.390625 L 208.695313 252.164063 L 211.941406 256.019531 L 214.199219 257.816406 L 216.269531 260.332031 L 218.078125 261.691406 L 217.917969 267.820313 L 218.386719 271.320313 L 219.757813 274.585938 L 219.78125 274.609375 L 220.40625 277.574219 L 221.269531 280.457031 L 221.824219 281.609375 L 221.40625 283.300781 L 221.304688 285.589844 L 221.722656 288.101563 L 222.777344 290.847656 L 225.375 294.164063 L 226.457031 294.925781 L 229.304688 299.0625 L 235.136719 301.785156 L 236.308594 302.722656 L 240.207031 304.191406 L 240.320313 304.203125 L 244.476563 306.140625 L 245.132813 306.914063 L 245.113281 307.46875 L 245.945313 311.421875 L 247.859375 314.695313 L 250.800781 318.140625 L 252.96875 319.847656 L 252.84375 322.726563 L 253.488281 326.332031 L 254.558594 328.597656 L 254.984375 329.992188 L 256.160156 332.453125 L 257.457031 334.265625 L 258.273438 336.175781 L 260.722656 339.230469 L 260.757813 342.128906 L 260.445313 342 L 258.378906 342.789063 L 257.507813 342.753906 L 256.035156 341.773438 L 253.664063 338.65625 L 252.601563 338.082031 L 245.550781 339.511719 L 244.589844 338.644531 L 243.40625 338.558594 L 241.210938 339.871094 L 241.886719 340.445313 L 246.324219 340.394531 L 249.617188 339.34375 L 251.976563 339.082031 L 254.382813 342.558594 L 260.535156 347.621094 L 262.910156 348.984375 L 262.972656 349.085938 L 265.789063 352.480469 L 266.351563 352.953125 L 268.007813 356.957031 L 267.847656 357.722656 L 268.011719 360.769531 L 268.96875 363.675781 L 269.324219 364.226563 L 269.210938 365.21875 L 264.953125 369.09375 L 261.394531 373.164063 L 260.601563 374.816406 L 262.84375 374.3125 L 264.9375 375.519531 L 266.9375 378.226563 L 270.21875 378.804688 L 270.625 378.746094 L 271.910156 376.796875 L 272.234375 374.960938 L 273.40625 371.914063 L 274.707031 370.632813 L 277.820313 370.089844 L 281.859375 370.40625 L 283.554688 370.378906 L 284.253906 370.867188 L 286.703125 370.742188 L 291.929688 371.300781 L 292.148438 372.488281 L 292.984375 374.609375 L 294.140625 376.429688 L 295.617188 378 L 296.441406 380.015625 L 297.625 381.84375 L 300.25 384.273438 L 303.371094 385.753906 L 305.074219 387.925781 L 307.070313 389.492188 L 307.125 390.34375 L 306.582031 393.507813 L 306.734375 394.394531 L 305.789063 396.917969 L 305.164063 399.925781 L 304.558594 400.886719 L 303.777344 402.894531 L 303.371094 405.136719 L 301.59375 407.117188 L 300.363281 409.332031 L 299.765625 411.777344 L 298.019531 413.613281 L 296.910156 414.152344 L 295.578125 412.011719 L 292.742188 410.515625 L 292.480469 410.636719 L 293.898438 413.703125 L 295.132813 415.515625 L 293.59375 417.007813 L 291.738281 420.644531 L 291.195313 421.457031 L 290.003906 421.65625 L 289.660156 421.574219 L 288.214844 419.332031 L 284.976563 421.730469 L 280.71875 424.230469 L 282.339844 425.378906 L 285.105469 424.398438 L 286.097656 423.375 L 286.894531 423.164063 L 287.328125 423.710938 L 287.632813 428.84375 L 285.6875 430.875 L 283.441406 432.558594 L 282.84375 432.699219 L 279.644531 432.160156 L 274.75 433.78125 L 272.609375 436.117188 L 274.253906 436.015625 L 275.152344 434.667969 L 276.683594 434.363281 L 278.285156 434.328125 L 281.054688 434.949219 L 281.828125 435.589844 L 281.691406 436.328125 L 279.554688 436.347656 L 277.390625 437.65625 L 277.96875 438.546875 L 281.382813 438.964844 L 286.863281 440.339844 L 289.394531 439.9375 L 291.074219 438.957031 L 294.574219 438.472656 L 294.960938 438.726563 L 297.222656 439.628906 L 299.492188 440.03125 L 299.492188 447.785156 L 295.582031 448.808594 L 292.261719 451.109375 L 290.421875 453.035156 L 289.167969 454.9375 L 288.269531 457.171875 L 288.109375 458.058594 L 286.253906 458.289063 L 284.1875 457.9375 L 282.179688 459.832031 L 279.734375 460.605469 L 277.902344 461.742188 L 277.371094 462.1875 L 274.789063 462.777344 L 272.597656 463.816406 L 270.539063 466.589844 L 269.761719 466.949219 L 259.269531 463.777344 L 259.164063 463.769531 L 258.84375 463.632813 L 255.472656 463.144531 L 249.589844 463.21875 L 247.214844 463.601563 L 245.070313 464.371094 L 243.011719 465.617188 L 241.339844 467.167969 L 239.691406 467.117188 L 238.210938 466.1875 L 238.632813 465.4375 L 239.46875 464.933594 L 237.714844 463.296875 L 231.496094 463.171875 L 231.378906 463.496094 L 232.574219 464.835938 L 232.214844 465.75 L 231.738281 466.042969 L 226.691406 465.496094 L 219.566406 468.449219 L 217.054688 467.824219 L 210.222656 468.96875 L 208.164063 468.875 L 207.273438 468.058594 L 206.238281 469.769531 L 209.429688 471.089844 L 209.714844 470.9375 L 210.1875 472.128906 L 209.566406 473.890625 L 208.421875 474.128906 L 207.609375 473.785156 L 205.039063 473.429688 L 204.453125 473.097656 L 203.015625 472.699219 L 197.625 472.007813 L 196.175781 472.65625 L 195.679688 473.863281 L 195.832031 474.871094 L 195.90625 474.921875 L 195.351563 474.921875 L 194.851563 473.972656 L 190.289063 470.589844 L 185.898438 468.519531 L 183.121094 467.984375 L 181.648438 469.066406 L 176.207031 469.78125 L 174.339844 470.335938 L 168.992188 473.234375 L 168.214844 474.070313 L 167.203125 476.179688 L 163.601563 486.714844 L 161.28125 488.625 L 160.175781 490.09375 L 158.269531 489.722656 L 157.554688 489.058594 L 156.527344 486.851563 L 154.683594 485.4375 L 153.613281 485.542969 L 152.417969 486.300781 L 151.917969 486.199219 L 151.300781 485.675781 L 148.46875 482.535156 L 144.933594 482.800781 L 143.292969 482.542969 L 138.539063 482.515625 L 132.855469 483.09375 L 129.5 484.648438 L 126.796875 487.179688 L 125.128906 490.25 L 124.039063 490.597656 L 123.742188 491.804688 L 123.558594 492.003906 L 122.398438 493.820313 L 121.5625 495.941406 L 121.289063 497.433594 L 120.660156 497.648438 L 120.632813 497.707031 L 118.800781 496.039063 L 117.539063 495.40625 L 117.15625 494.691406 L 115.984375 493.691406 L 112.253906 492.070313 L 111.472656 491.992188 L 112.210938 490.804688 L 112.890625 489.023438 L 113.574219 489.15625 L 118.144531 485.910156 L 121.425781 483.085938 L 124.375 479.769531 L 125.210938 477.886719 L 124.875 476.421875 L 125.511719 474.832031 L 127.394531 474.480469 L 129.621094 473.558594 L 130.4375 472.90625 L 132.105469 472.640625 L 132.679688 471.785156 L 132.878906 471 L 135.199219 469.867188 L 137.1875 468.261719 L 138.710938 466.363281 L 139.804688 464.195313 L 140.421875 461.84375 L 140.539063 459.414063 L 142.707031 457.707031 L 144.105469 455.933594 L 144.269531 456.015625 L 145.761719 455.429688 L 148.429688 452.488281 L 148.375 451.667969 L 150.921875 451.804688 L 154.289063 451.289063 L 156.757813 450.296875 L 159.03125 448.6875 L 161.167969 445.972656 L 164.597656 446.761719 L 166.046875 446.148438 L 167.527344 446.515625 L 169.484375 447.285156 L 170.039063 448.109375 L 170.757813 448.421875 L 173.15625 448.464844 L 180.570313 447.503906 L 181.109375 445.632813 L 181.210938 443.15625 L 182.519531 440.25 L 190.867188 432.195313 L 195.792969 425.3125 L 197.929688 424.472656 L 198.285156 423.78125 L 198.070313 423.238281 L 197.8125 423.082031 L 196.09375 424.355469 L 192.90625 427.300781 L 190.570313 429.988281 L 189.222656 431.449219 L 185.628906 432.957031 L 183.714844 433.246094 L 182.441406 433.0625 L 178.394531 435.230469 L 177.398438 436.808594 L 177.039063 438.671875 L 176.445313 439.273438 L 174.058594 439.917969 L 170.558594 439.851563 L 166.820313 439 L 166.347656 438.652344 L 161.371094 433.375 L 159.03125 429.199219 L 156.148438 429.53125 L 154.777344 428.917969 L 152.167969 428.398438 L 151.992188 428.238281 L 152.765625 427.832031 L 153.085938 427.097656 L 152.808594 426.597656 L 149.964844 426.519531 L 148.324219 425.546875 L 146.042969 424.773438 L 144.515625 424.496094 L 143.210938 423.710938 L 139.503906 423.714844 L 136.765625 424.277344 L 136.714844 424.507813 L 136.660156 424.523438 L 132.785156 423.859375 L 131.683594 424.046875 L 131.226563 422.867188 L 130.65625 424.222656 L 129.949219 424.34375 L 128.496094 424.523438 L 126.828125 424.523438 L 125.167969 424.363281 L 127.019531 422.230469 L 128.347656 419.496094 L 129.03125 415.773438 L 128.90625 412.890625 L 131.394531 412.410156 L 133.71875 411.402344 L 138.46875 407.65625 L 139.335938 406.601563 L 141.359375 406.660156 L 142.21875 406.390625 L 149.359375 401.828125 L 152.136719 398.207031 L 153.054688 396.195313 L 154.199219 391.746094 L 153.734375 388.820313 L 152.566406 386.542969 L 153.179688 384.597656 L 154.652344 381.796875 L 152.269531 378.203125 L 152.683594 374.835938 L 153.175781 374.082031 L 152.804688 373.207031 L 150.203125 373.105469 L 148.4375 373.535156 L 148.839844 371.898438 L 148.933594 369.480469 L 147.902344 364.734375 L 147.953125 364.523438 L 151.550781 360.582031 L 153.09375 359.609375 L 154.941406 359.808594 L 160.492188 357.457031 L 163.644531 357.28125 L 167.339844 357.714844 L 172.597656 355.179688 L 173.933594 355.046875 L 174.484375 355.082031 L 179.910156 359.441406 L 180.433594 358.429688 L 177.679688 353.460938 L 178.242188 352.835938 L 180.867188 352.449219 L 181.503906 352.695313 L 181.914063 353.875 L 182.898438 354.332031 L 184.078125 356.789063 L 185.613281 357.902344 L 188.359375 357.621094 L 190.335938 355.148438 L 189.90625 355.050781 L 188.667969 355.527344 L 188.3125 355.957031 L 186.378906 356.386719 L 183.8125 354.640625 L 179.976563 346.332031 L 180.214844 345.902344 L 181.503906 344.371094 L 182.8125 341.351563 L 182.828125 341.226563 L 183.371094 340.257813 L 185.429688 339.015625 L 185.140625 338.578125 L 183.21875 338.488281 L 183.34375 337.605469 L 183.003906 332.546875 L 182.1875 330.316406 L 184.695313 329.191406 L 187.28125 323.421875 L 187.71875 320.933594 L 187.855469 317.484375 L 184.742188 320.527344 L 179.199219 323.441406 L 177.335938 322.691406 L 175.523438 319.546875 L 175.574219 317.21875 L 174.832031 313.121094 L 172.867188 309.589844 L 169.9375 306.132813 L 167.675781 304.339844 L 167.710938 303.675781 L 169.164063 299.058594 L 174.074219 288.722656 L 176.464844 286.417969 L 178.757813 285.980469 L 180.191406 286.804688 L 181.015625 286.710938 L 182.933594 286.238281 L 183.03125 285.160156 L 182.34375 284.746094 L 180.035156 285.351563 L 174.65625 284.980469 L 172.566406 284.292969 L 169.453125 284.03125 L 168.226563 288.992188 L 166.234375 288.695313 L 163.3125 290.011719 L 162.613281 290.882813 L 162.480469 290.773438 L 160.199219 289.597656 L 153.695313 288.265625 L 151.023438 288.222656 L 149.542969 288.550781 L 149.214844 288.042969 L 149.230469 287.167969 L 148.945313 287.023438 L 148.15625 288.078125 L 148.015625 288.761719 L 146.195313 288.300781 L 144.03125 288.171875 L 140.539063 288.832031 L 138.589844 288.832031 L 138.398438 288.636719 L 137.464844 288.296875 L 136.714844 288.832031 L 136.660156 288.832031 L 134.953125 286.660156 L 132.785156 284.953125 L 135.109375 282.121094 L 136.144531 279.808594 L 136.660156 277.199219 L 138.289063 275.425781 L 139.566406 273.238281 L 140.539063 269.445313 L 141.964844 267.46875 L 142.949219 265.234375 L 143.097656 264.058594 L 143.644531 263.800781 L 144.390625 261.886719 L 144.195313 260.621094 L 142.601563 256.71875 L 142.148438 256.417969 L 141.769531 255.585938 L 139.179688 252.132813 L 137.59375 250.828125 L 137.878906 248.578125 L 138.988281 247.230469 L 140.289063 243.9375 L 140.519531 241.65625 L 140.710938 241.59375 L 142.886719 242.511719 L 146.15625 243.175781 L 148.300781 243.253906 L 141.261719 240.453125 L 140.632813 240.539063 L 140.691406 239.929688 L 139.941406 235.582031 L 139.875 235.449219 L 140.238281 234.648438 L 139.574219 234.851563 L 138.582031 232.867188 L 136.660156 230.675781 L 136.554688 229.648438 L 136.953125 229.316406 L 138.316406 227.601563 L 136.460938 228.738281 L 136.28125 226.996094 L 134.691406 223.511719 L 132.160156 220.8125 L 131.273438 220.332031 L 131.4375 220.320313 L 132.492188 219.214844 L 135.574219 219.359375 L 138.355469 219 L 141.632813 217.597656 L 144.414063 215.167969 L 145.324219 217.144531 L 146.589844 218.917969 L 149.871094 221.550781 L 153.871094 222.84375 L 158.347656 222.691406 L 162.046875 221.257813 L 165.046875 218.660156 L 167 215.203125 Z M 233.113281 468.5 L 231.6875 469.269531 L 229.707031 471.046875 L 222.542969 471.046875 L 222.296875 470.886719 L 221.523438 470.996094 L 220.464844 470.878906 L 221.476563 469.683594 L 227.316406 466.367188 L 232.550781 467.761719 Z M 110.191406 494.242188 L 109.523438 494.308594 L 110.296875 493.472656 L 110.242188 494.183594 Z M 147.6875 363.742188 L 147.5625 363.164063 L 146.261719 360.699219 L 143.425781 357.230469 L 146.96875 358.65625 L 150.65625 358.871094 L 153.796875 358.363281 L 154.53125 358.121094 L 154.066406 358.859375 L 150.984375 360.816406 Z M 129.539063 219.074219 L 132.214844 219.203125 L 131.898438 219.546875 L 131.125 219.644531 Z M 160.5625 161.703125 L 161.628906 163.0625 L 164.164063 165.269531 L 162.722656 166.96875 L 162.175781 167.183594 L 161.726563 166.894531 L 161.859375 165.949219 L 161.53125 165.507813 L 159.984375 165.785156 L 155.320313 167.769531 L 152.441406 170.8125 L 151.949219 171.945313 L 152.140625 172.144531 L 156.390625 168.453125 L 157.75 167.980469 L 160.300781 168.324219 L 161.058594 169.320313 L 157.109375 173.804688 L 156.367188 175.339844 L 156.707031 175.816406 L 157.367188 175.984375 L 158.261719 175.542969 L 161.140625 173.015625 L 167.808594 170.273438 L 170.480469 169.527344 L 170.492188 169.949219 L 171.554688 169.839844 L 172.769531 168.933594 L 175.429688 168.644531 L 178.265625 169.816406 L 181.183594 170.203125 L 184.226563 169.816406 L 187.0625 168.644531 L 187.984375 172.324219 L 189.238281 174.523438 L 190.9375 176.398438 L 191.449219 178.988281 L 192.597656 181.503906 L 188.886719 178.539063 L 186 177.152344 L 182.464844 176.59375 L 178.925781 177.140625 L 176.472656 178.25 L 174.339844 179.886719 L 172.710938 181.867188 L 171.554688 184.152344 L 169.382813 185.859375 L 167.675781 188.03125 L 165.554688 188.40625 L 163.425781 189.21875 L 161.496094 190.433594 L 159.921875 191.90625 L 160.519531 189.304688 L 160.488281 186.503906 L 159.675781 183.425781 L 158.441406 181.035156 L 155.707031 178.175781 L 152.167969 176.398438 L 150.828125 173.496094 L 148.75 171.070313 L 146.769531 169.65625 L 144.414063 168.644531 L 150.339844 168.582031 L 154.128906 167.449219 L 156.078125 166.226563 L 157.664063 164.738281 L 158.949219 162.980469 L 159.65625 161.464844 Z M 286.679688 439.636719 L 283.058594 438.976563 L 282.164063 437.605469 L 282.484375 436.070313 L 286.839844 437.054688 L 287.960938 438.832031 Z M 236.835938 466.113281 L 235.136719 465.644531 L 236.523438 463.683594 L 237.195313 464.164063 L 237.5 465.839844 Z M 236.835938 466.113281 "/>
</g>
</svg>
