<?xml version="1.0" encoding="UTF-8"?>
<svg xmlns="http://www.w3.org/2000/svg" xmlns:xlink="http://www.w3.org/1999/xlink" width="378pt" height="504pt" viewBox="0 0 378 504" version="1.1">
<g id="data">
<rect x="0" y="0" width="378" height="504" style="fill:rgb(100%,100%,100%);fill-opacity:1;stroke:none;"/>
<path style=" stroke:none;fill-rule:nonzero;fill:rgb(100%,100%,100%);fill-opacity:1;" d="M 53.308594 504 L 324.691406 504 L 324.691406 0 L 53.308594 0 Z M 53.308594 504 "/>
<path style=" stroke:none;fill-rule:nonzero;fill:rgb(22.745098%,53.333333%,16.078431%);fill-opacity:1;" d="M 167.675781 211.292969 L 169.199219 213.199219 L 171.082031 214.746094 L 173.371094 215.914063 L 175.730469 216.53125 L 179.445313 216.496094 L 183.183594 215.167969 L 185.738281 215.03125 L 188.203125 214.339844 L 190.347656 213.199219 L 192.296875 211.542969 L 193.773438 209.613281 L 194.816406 207.414063 L 197.933594 205.933594 L 200.480469 203.605469 L 202.410156 200.148438 L 203.144531 197.742188 L 203.386719 195.375 L 205.703125 195.683594 L 203.9375 198.859375 L 203.914063 199.039063 L 203.757813 199.285156 L 202.941406 201.417969 L 202.570313 203.539063 L 200.050781 205.609375 L 196.367188 210.25 L 195.296875 212.683594 L 194.816406 215.167969 L 193.324219 217.257813 L 192.859375 218.390625 L 191.214844 219.742188 L 185.519531 221.085938 L 182.847656 221.226563 L 177.804688 225.21875 L 178.117188 225.714844 L 179.84375 225.195313 L 184.609375 222.886719 L 186.457031 221.386719 L 187.289063 221.316406 L 189.085938 221.875 L 189.332031 222.921875 L 188.898438 224.691406 L 189.238281 225.953125 L 190.898438 226.824219 L 192.75 227.148438 L 193.203125 228.359375 L 194.089844 229.636719 L 192.117188 231.570313 L 189.460938 232.730469 L 188.34375 232.882813 L 187.070313 232.078125 L 185.40625 232.042969 L 181.046875 235.800781 L 180.578125 237.003906 L 174.761719 240.109375 L 170.214844 238.117188 L 166.480469 238.003906 L 166.738281 239.222656 L 168.246094 240.195313 L 178.0625 241.875 L 182.921875 243.167969 L 186.398438 241.730469 L 187.519531 239.417969 L 188.617188 238.355469 L 189.539063 238.171875 L 193.183594 238.5 L 193.53125 238.738281 L 193.996094 240.570313 L 195.925781 244.613281 L 198.164063 247.234375 L 199.933594 248.5 L 202.027344 249.457031 L 204.273438 249.980469 L 206.445313 250.0625 L 208.152344 252.230469 L 210.324219 253.9375 L 211.460938 256.515625 L 213.183594 258.742188 L 215.390625 260.488281 L 218.078125 261.691406 L 217.914063 271.449219 L 218.164063 274.078125 L 219.441406 277.914063 L 221.15625 280.070313 L 221.269531 280.457031 L 221.785156 281.527344 L 220.722656 284.3125 L 220.5 287.765625 L 221.300781 291.128906 L 223.058594 294.113281 L 228.230469 298.644531 L 230.734375 299.863281 L 231.25 299.972656 L 234.914063 301.679688 L 235.359375 302.085938 L 237.429688 303.3125 L 239.972656 304.039063 L 244.476563 306.140625 L 245.234375 307.035156 L 245.253906 310.007813 L 246.042969 313.234375 L 247.1875 315.378906 L 248.75 317.242188 L 250.664063 318.738281 L 252.96875 319.847656 L 252.867188 322.976563 L 253.746094 327.046875 L 254.53125 328.5 L 254.984375 329.992188 L 256.160156 332.453125 L 257.460938 334.273438 L 258.335938 336.289063 L 260.722656 339.230469 L 260.746094 342.121094 L 260.445313 342 L 258.378906 342.789063 L 257.507813 342.753906 L 256.035156 341.773438 L 253.664063 338.65625 L 252.601563 338.082031 L 245.550781 339.511719 L 244.589844 338.644531 L 243.40625 338.558594 L 241.210938 339.871094 L 241.886719 340.445313 L 246.324219 340.394531 L 249.617188 339.34375 L 251.976563 339.082031 L 254.382813 342.558594 L 260.535156 347.621094 L 261.640625 348.253906 L 261.703125 348.480469 L 262.914063 350.585938 L 264.441406 352.308594 L 266.28125 353.695313 L 266.75 353.921875 L 267.992188 356.917969 L 267.867188 357.46875 L 267.949219 360.394531 L 268.753906 363.207031 L 269.328125 364.195313 L 269.210938 365.21875 L 264.953125 369.09375 L 261.394531 373.164063 L 260.601563 374.816406 L 262.84375 374.3125 L 264.9375 375.519531 L 266.9375 378.226563 L 270.21875 378.804688 L 270.625 378.746094 L 271.910156 376.796875 L 272.234375 374.960938 L 273.40625 371.914063 L 274.707031 370.632813 L 277.851563 370.085938 L 277.949219 370.089844 L 281.859375 370.40625 L 283.554688 370.378906 L 284.253906 370.867188 L 286.703125 370.742188 L 291.925781 371.300781 L 292.113281 372.367188 L 292.925781 374.496094 L 294.140625 376.429688 L 295.617188 378 L 297.46875 381.640625 L 300.039063 384.128906 L 303.371094 385.753906 L 303.246094 388.632813 L 303.925781 392.359375 L 305.257813 395.089844 L 306.105469 396.070313 L 305.789063 396.917969 L 305.164063 399.917969 L 304.921875 400.21875 L 303.886719 402.53125 L 303.371094 405.136719 L 301.894531 406.710938 L 300.679688 408.640625 L 299.867188 410.769531 L 299.671875 411.875 L 298.53125 413.074219 L 297.125 413.335938 L 296.546875 413.570313 L 295.578125 412.011719 L 292.742188 410.515625 L 292.480469 410.636719 L 293.898438 413.703125 L 294.503906 414.597656 L 291.738281 416.769531 L 289.652344 417.746094 L 287.796875 419.113281 L 286.328125 420.714844 L 286.3125 420.738281 L 284.976563 421.730469 L 280.71875 424.230469 L 282.339844 425.378906 L 284.40625 424.648438 L 284.332031 424.84375 L 283.988281 426.992188 L 284.050781 430.445313 L 284.394531 431.847656 L 283.441406 432.558594 L 282.84375 432.699219 L 279.644531 432.160156 L 274.75 433.78125 L 272.609375 436.117188 L 274.253906 436.015625 L 275.152344 434.667969 L 276.683594 434.363281 L 278.285156 434.328125 L 281.054688 434.949219 L 281.828125 435.589844 L 281.691406 436.328125 L 279.554688 436.347656 L 277.390625 437.65625 L 277.96875 438.546875 L 281.382813 438.964844 L 286.863281 440.339844 L 289.394531 439.9375 L 290.328125 439.390625 L 290.554688 439.539063 L 293.460938 440.496094 L 296.507813 440.660156 L 299.492188 440.03125 L 298.828125 443.90625 L 299.492188 447.785156 L 297.371094 448.160156 L 295.242188 448.972656 L 293.3125 450.1875 L 291.738281 451.660156 L 288.304688 453.363281 L 285.683594 455.980469 L 284.675781 458.019531 L 284.1875 457.9375 L 282.234375 459.785156 L 281.136719 460.015625 L 278.523438 461.300781 L 277.476563 462.160156 L 274.789063 462.777344 L 272.597656 463.816406 L 270.539063 466.589844 L 269.761719 466.949219 L 259.269531 463.777344 L 259.164063 463.769531 L 258.84375 463.632813 L 255.472656 463.144531 L 249.589844 463.21875 L 247.214844 463.601563 L 245.070313 464.371094 L 243.113281 465.542969 L 241.339844 467.167969 L 239.691406 467.117188 L 238.210938 466.1875 L 238.632813 465.4375 L 239.46875 464.933594 L 237.714844 463.296875 L 231.496094 463.171875 L 231.378906 463.496094 L 232.574219 464.835938 L 232.214844 465.75 L 231.738281 466.042969 L 226.691406 465.496094 L 219.566406 468.449219 L 217.054688 467.824219 L 210.222656 468.96875 L 208.164063 468.875 L 207.273438 468.058594 L 206.238281 469.769531 L 209.429688 471.089844 L 209.714844 470.9375 L 210.1875 472.128906 L 209.566406 473.890625 L 208.402344 474.132813 L 207.488281 473.753906 L 205.035156 473.425781 L 204.453125 473.097656 L 203.015625 472.699219 L 197.625 472.007813 L 196.175781 472.65625 L 195.679688 473.863281 L 195.832031 474.871094 L 195.90625 474.921875 L 195.351563 474.921875 L 194.851563 473.972656 L 190.289063 470.589844 L 185.898438 468.519531 L 183.121094 467.984375 L 181.648438 469.066406 L 176.207031 469.78125 L 174.339844 470.335938 L 168.992188 473.234375 L 168.214844 474.070313 L 167.203125 476.179688 L 165.3125 481.710938 L 165.289063 481.742188 L 164.28125 484.066406 L 163.984375 485.601563 L 163.605469 486.707031 L 161.628906 488.261719 L 160.1875 490.097656 L 158.269531 489.722656 L 157.554688 489.058594 L 156.527344 486.851563 L 154.683594 485.4375 L 153.613281 485.542969 L 152.417969 486.300781 L 151.929688 486.199219 L 151.265625 485.640625 L 148.46875 482.535156 L 144.851563 482.804688 L 143.667969 482.574219 L 140.539063 482.675781 L 138.1875 482.113281 L 135.769531 482.046875 L 131.816406 483.019531 L 128.644531 484.929688 L 126.441406 487.421875 L 125.113281 490.253906 L 124.039063 490.597656 L 123.851563 491.355469 L 122.859375 492.136719 L 121.152344 494.308594 L 118.273438 494.433594 L 116.515625 494.148438 L 115.984375 493.691406 L 112.253906 492.070313 L 112.121094 492.058594 L 113.398438 490.429688 L 116.515625 488.949219 L 119.144531 486.519531 L 120.328125 484.691406 L 120.746094 483.667969 L 121.425781 483.085938 L 124.375 479.769531 L 125.210938 477.886719 L 124.875 476.421875 L 125.515625 474.828125 L 127.519531 474.441406 L 129.730469 473.496094 L 130.472656 472.902344 L 132.105469 472.640625 L 132.679688 471.785156 L 132.882813 470.996094 L 135.726563 469.507813 L 137.539063 467.886719 L 138.910156 466.039063 L 139.890625 463.953125 L 140.441406 461.714844 L 140.539063 459.414063 L 142.707031 457.707031 L 144.105469 455.933594 L 144.269531 456.015625 L 145.761719 455.429688 L 148.429688 452.488281 L 148.375 451.667969 L 150.671875 451.816406 L 153.425781 451.488281 L 155.496094 450.886719 L 157.523438 449.84375 L 159.308594 448.425781 L 160.871094 446.570313 L 161.195313 445.980469 L 164.597656 446.761719 L 166.046875 446.148438 L 167.527344 446.515625 L 169.484375 447.285156 L 170.039063 448.109375 L 170.757813 448.421875 L 173.15625 448.464844 L 180.570313 447.503906 L 181.109375 445.632813 L 181.210938 443.15625 L 182.519531 440.25 L 190.867188 432.195313 L 195.792969 425.3125 L 197.929688 424.472656 L 198.285156 423.78125 L 198.070313 423.238281 L 197.8125 423.082031 L 196.09375 424.355469 L 192.90625 427.300781 L 190.570313 429.988281 L 189.222656 431.449219 L 185.628906 432.957031 L 183.714844 433.246094 L 182.441406 433.0625 L 178.394531 435.230469 L 177.398438 436.808594 L 177.039063 438.671875 L 176.445313 439.273438 L 174.058594 439.917969 L 170.558594 439.851563 L 166.820313 439 L 166.347656 438.652344 L 161.371094 433.375 L 159.03125 429.199219 L 156.148438 429.53125 L 154.777344 428.917969 L 152.167969 428.398438 L 151.992188 428.238281 L 152.765625 427.832031 L 153.085938 427.097656 L 152.808594 426.597656 L 149.953125 426.519531 L 148.4375 425.601563 L 146.167969 424.800781 L 144.527344 424.503906 L 143.210938 423.710938 L 139.503906 423.714844 L 136.765625 424.277344 L 136.714844 424.507813 L 136.660156 424.523438 L 132.785156 423.859375 L 131.683594 424.046875 L 131.226563 422.867188 L 130.65625 424.222656 L 129.949219 424.34375 L 128.496094 424.523438 L 126.828125 424.523438 L 125.167969 424.363281 L 127.019531 422.230469 L 128.347656 419.496094 L 129.03125 415.773438 L 128.90625 412.890625 L 131.394531 412.410156 L 133.71875 411.402344 L 138.46875 407.65625 L 139.335938 406.601563 L 141.359375 406.660156 L 142.21875 406.390625 L 149.359375 401.828125 L 152.136719 398.207031 L 153.054688 396.195313 L 154.199219 391.746094 L 153.734375 388.820313 L 152.566406 386.542969 L 153.179688 384.597656 L 154.652344 381.796875 L 152.269531 378.203125 L 152.683594 374.835938 L 153.175781 374.082031 L 152.804688 373.207031 L 150.203125 373.105469 L 148.390625 373.546875 L 148.957031 370.246094 L 148.292969 366.371094 L 149.84375 364.695313 L 150.980469 362.867188 L 151.796875 360.738281 L 151.855469 360.390625 L 153.09375 359.609375 L 154.941406 359.808594 L 160.492188 357.457031 L 163.644531 357.28125 L 167.339844 357.714844 L 172.597656 355.179688 L 173.933594 355.046875 L 174.484375 355.082031 L 179.910156 359.441406 L 180.433594 358.429688 L 177.679688 353.460938 L 178.242188 352.835938 L 180.867188 352.449219 L 181.503906 352.695313 L 181.914063 353.875 L 182.898438 354.332031 L 184.078125 356.789063 L 185.613281 357.902344 L 188.359375 357.621094 L 190.335938 355.148438 L 189.90625 355.050781 L 188.667969 355.527344 L 188.3125 355.957031 L 186.378906 356.386719 L 183.8125 354.640625 L 179.976563 346.332031 L 180.128906 346.058594 L 181.15625 344.902344 L 182.457031 342.4375 L 182.617188 341.605469 L 183.371094 340.257813 L 185.429688 339.015625 L 185.140625 338.578125 L 183.226563 338.488281 L 183.328125 337.984375 L 183.066406 332.925781 L 182.277344 330.277344 L 184.695313 329.191406 L 187.28125 323.421875 L 187.71875 320.933594 L 187.855469 317.484375 L 184.742188 320.527344 L 179.199219 323.441406 L 177.335938 322.691406 L 175.527344 319.558594 L 175.578125 317.34375 L 175.351563 313.796875 L 174.867188 311.675781 L 173.738281 309.238281 L 172.167969 307.214844 L 170.089844 305.515625 L 167.675781 304.339844 L 167.691406 303.742188 L 169.164063 299.058594 L 174.074219 288.722656 L 176.464844 286.417969 L 178.757813 285.980469 L 180.191406 286.804688 L 181.015625 286.710938 L 182.933594 286.238281 L 183.03125 285.160156 L 182.34375 284.746094 L 180.035156 285.351563 L 174.65625 284.980469 L 172.566406 284.292969 L 169.453125 284.03125 L 168.226563 288.992188 L 166.234375 288.695313 L 164.460938 289.492188 L 164.148438 289.09375 L 162.445313 287.734375 L 160.519531 286.71875 L 158.4375 286.078125 L 156.273438 285.839844 L 154.101563 286.007813 L 152 286.578125 L 150.039063 287.53125 L 149.257813 288.113281 L 149.214844 288.042969 L 149.230469 287.167969 L 148.945313 287.023438 L 148.15625 288.078125 L 148.011719 288.78125 L 144.414063 288.164063 L 140.539063 288.832031 L 138.964844 287.359375 L 137.035156 286.144531 L 135.027344 285.363281 L 132.785156 284.953125 L 135.171875 284.007813 L 137.296875 282.5625 L 139.050781 280.683594 L 140.347656 278.46875 L 141.078125 276.273438 L 141.355469 273.976563 L 141.171875 271.671875 L 140.539063 269.445313 L 141.835938 267.691406 L 142.824219 265.601563 L 143.21875 264.003906 L 143.644531 263.800781 L 144.390625 261.886719 L 144.195313 260.621094 L 142.601563 256.71875 L 142.039063 256.34375 L 140.539063 253.9375 L 140.539063 250.0625 L 141.066406 247.960938 L 141.199219 245.800781 L 140.539063 242.308594 L 140.554688 241.644531 L 140.710938 241.59375 L 142.886719 242.511719 L 146.15625 243.175781 L 148.300781 243.253906 L 141.261719 240.453125 L 140.578125 240.546875 L 140.613281 238.929688 L 139.941406 235.582031 L 139.875 235.449219 L 140.238281 234.648438 L 139.574219 234.851563 L 138.582031 232.867188 L 136.660156 230.675781 L 136.554688 229.648438 L 136.953125 229.316406 L 138.316406 227.601563 L 136.460938 228.738281 L 136.28125 226.996094 L 134.691406 223.511719 L 132.160156 220.8125 L 131.273438 220.332031 L 131.4375 220.320313 L 132.488281 219.21875 L 135.445313 219.363281 L 138.230469 219.03125 L 141.632813 217.597656 L 144.414063 215.167969 L 145.183594 217.214844 L 146.324219 219.078125 L 147.792969 220.699219 L 149.535156 222.011719 L 151.496094 222.980469 L 153.601563 223.5625 L 155.777344 223.742188 L 157.953125 223.507813 L 162.007813 221.949219 L 165.175781 219.179688 L 167.152344 215.464844 Z M 233.113281 468.5 L 231.6875 469.269531 L 229.707031 471.046875 L 222.542969 471.046875 L 222.296875 470.886719 L 221.523438 470.996094 L 220.464844 470.878906 L 221.476563 469.683594 L 227.316406 466.367188 L 232.550781 467.761719 Z M 110.242188 494.183594 L 109.523438 494.308594 L 110.277344 493.714844 Z M 151.882813 360.246094 L 152.167969 358.617188 L 154.414063 358.207031 L 154.496094 358.175781 L 154.066406 358.859375 Z M 129.542969 219.078125 L 132.210938 219.207031 L 131.898438 219.546875 L 131.125 219.644531 Z M 187.0625 172.523438 L 187.433594 174.632813 L 184.714844 172.832031 Z M 160.597656 161.714844 L 161.992188 163.410156 L 164.226563 165.195313 L 162.722656 166.96875 L 162.175781 167.183594 L 161.726563 166.894531 L 161.859375 165.949219 L 161.53125 165.507813 L 159.984375 165.785156 L 155.320313 167.769531 L 152.441406 170.8125 L 151.949219 171.945313 L 152.140625 172.144531 L 156.390625 168.453125 L 157.75 167.980469 L 160.300781 168.324219 L 161.058594 169.320313 L 157.109375 173.804688 L 156.367188 175.339844 L 156.707031 175.816406 L 157.367188 175.984375 L 158.261719 175.542969 L 161.140625 173.015625 L 167.808594 170.273438 L 170.480469 169.527344 L 170.492188 169.949219 L 171.554688 169.839844 L 172.777344 168.925781 L 173.28125 168.949219 L 175.429688 168.644531 L 177.234375 170.390625 L 179.375 171.710938 L 177.121094 172 L 174.714844 172.800781 L 172.804688 173.839844 L 171.027344 175.308594 L 169.507813 177.203125 L 168.414063 179.375 L 167.792969 181.726563 L 167.675781 184.152344 L 165.335938 185.15625 L 163.175781 186.726563 L 161.503906 188.644531 L 160.242188 190.996094 L 160.71875 188.351563 L 160.597656 185.796875 L 159.871094 183.207031 L 158.570313 180.855469 L 155.753906 178.074219 L 152.167969 176.398438 L 150.757813 173.390625 L 148.652344 170.984375 L 146.65625 169.59375 L 144.414063 168.644531 L 150.339844 168.582031 L 154.128906 167.449219 L 156.078125 166.226563 L 157.664063 164.738281 L 159.011719 162.867188 L 159.660156 161.464844 Z M 286.679688 439.636719 L 283.058594 438.976563 L 282.164063 437.605469 L 282.484375 436.070313 L 286.839844 437.054688 L 287.960938 438.832031 Z M 236.835938 466.113281 L 235.136719 465.644531 L 236.523438 463.683594 L 237.195313 464.164063 L 237.5 465.839844 Z M 236.835938 466.113281 "/>
<path style=" stroke:none;fill-rule:nonzero;fill:rgb(80.392157%,58.431373%,4.705882%);fill-opacity:1;" d="M 177.371094 137.628906 L 177.085938 139.429688 L 176.257813 141.050781 L 174.972656 142.335938 L 173.351563 143.160156 L 171.554688 143.445313 L 169.757813 143.160156 L 168.136719 142.335938 L 166.847656 141.050781 L 166.023438 139.429688 L 165.738281 137.628906 L 166.023438 135.832031 L 166.847656 134.210938 L 168.136719 132.925781 L 169.757813 132.101563 L 171.554688 131.816406 L 173.351563 132.101563 L 174.972656 132.925781 L 176.257813 134.210938 L 177.085938 135.832031 Z M 177.371094 137.628906 "/>
<path style=" stroke:none;fill-rule:nonzero;fill:rgb(80.392157%,58.431373%,4.705882%);fill-opacity:1;" d="M 200.628906 184.152344 L 200.347656 185.949219 L 199.519531 187.570313 L 198.234375 188.859375 L 196.613281 189.683594 L 194.816406 189.96875 L 193.019531 189.683594 L 191.398438 188.859375 L 190.109375 187.570313 L 189.285156 185.949219 L 189 184.152344 L 189.285156 182.355469 L 190.109375 180.734375 L 191.398438 179.449219 L 193.019531 178.625 L 194.816406 178.339844 L 196.613281 178.625 L 198.234375 179.449219 L 199.519531 180.734375 L 200.347656 182.355469 Z M 200.628906 184.152344 "/>
<path style=" stroke:none;fill-rule:nonzero;fill:rgb(80.392157%,58.431373%,4.705882%);fill-opacity:1;" d="M 196.753906 180.277344 L 196.46875 182.074219 L 195.644531 183.695313 L 194.355469 184.980469 L 192.734375 185.808594 L 190.9375 186.09375 L 189.140625 185.808594 L 187.519531 184.980469 L 186.234375 183.695313 L 185.40625 182.074219 L 185.125 180.277344 L 185.40625 178.480469 L 186.234375 176.859375 L 187.519531 175.570313 L 189.140625 174.746094 L 190.9375 174.460938 L 192.734375 174.746094 L 194.355469 175.570313 L 195.644531 176.859375 L 196.46875 178.480469 Z M 196.753906 180.277344 "/>
<path style=" stroke:none;fill-rule:nonzero;fill:rgb(80.392157%,58.431373%,4.705882%);fill-opacity:1;" d="M 146.355469 315.96875 L 146.070313 317.765625 L 145.242188 319.386719 L 143.957031 320.675781 L 142.335938 321.5 L 140.539063 321.785156 L 138.246094 321.25 L 139.816406 316.644531 L 142.300781 315.023438 L 144.140625 311.445313 L 145.242188 312.550781 L 146.070313 314.171875 Z M 146.355469 315.96875 "/>
</g>
</svg>
