<?xml version="1.0" encoding="UTF-8"?>
<svg xmlns="http://www.w3.org/2000/svg" xmlns:xlink="http://www.w3.org/1999/xlink" width="378pt" height="504pt" viewBox="0 0 378 504" version="1.1">
<g id="data">
<rect x="0" y="0" width="378" height="504" style="fill:rgb(100%,100%,100%);fill-opacity:1;stroke:none;"/>
<path style=" stroke:none;fill-rule:nonzero;fill:rgb(100%,100%,100%);fill-opacity:1;" d="M 53.308594 504 L 324.691406 504 L 324.691406 0 L 53.308594 0 Z M 53.308594 504 "/>
<path style=" stroke:none;fill-rule:nonzero;fill:rgb(22.745098%,53.333333%,16.078431%);fill-opacity:1;" d="M 218.078125 300.460938 L 220.789063 301.597656 L 223.828125 302.019531 L 226.871094 301.632813 L 229.707031 300.460938 L 232.300781 300.460938 L 232.914063 300.746094 L 230.636719 301.722656 L 228.054688 303.835938 L 226.183594 306.597656 L 225.167969 309.773438 L 225.085938 312.980469 L 225.832031 315.96875 L 225.558594 319.652344 L 226.308594 322.878906 L 228.257813 326.160156 L 231.414063 329.769531 L 233.585938 331.476563 L 230.066406 333.558594 L 227.425781 336.839844 L 226.144531 340.722656 L 226.3125 344.933594 L 227.566406 348.152344 L 229.707031 350.863281 L 228.9375 354.105469 L 229.09375 357.308594 L 230.117188 360.347656 L 231.933594 362.992188 L 234.292969 364.972656 L 237.460938 366.371094 L 239.390625 368.023438 L 241.753906 369.265625 L 245.351563 370.035156 L 249.011719 369.640625 L 248.445313 371.730469 L 248.273438 373.890625 L 249.09375 378 L 243.167969 378.066406 L 239.378906 379.195313 L 237.429688 380.421875 L 235.84375 381.910156 L 234.496094 383.777344 L 233.585938 385.753906 L 230.640625 385.957031 L 227.722656 386.957031 L 225.269531 388.597656 L 223.308594 390.804688 L 221.765625 394.046875 L 221.28125 397.476563 L 222.238281 403.8125 L 223.425781 406.925781 L 225.359375 409.484375 L 227.917969 411.417969 L 230.90625 412.578125 L 234.226563 412.910156 L 237.757813 412.367188 L 240.957031 410.777344 L 243.527344 408.289063 L 245.214844 405.136719 L 248.488281 407.585938 L 252.28125 408.730469 L 256.238281 408.539063 L 260.007813 406.964844 L 262.765625 404.484375 L 264.601563 401.261719 L 267.449219 400.664063 L 270.058594 399.375 L 272.355469 397.382813 L 276.003906 395.292969 L 278.671875 392.042969 L 279.757813 389.3125 L 280.109375 385.753906 L 281.171875 383.289063 L 281.644531 380.644531 L 281.339844 377.207031 L 280.109375 374.125 L 280.109375 370.246094 L 281.8125 372.417969 L 283.984375 374.125 L 284.960938 376.210938 L 286.328125 378.0625 L 289.214844 380.378906 L 291.320313 381.3125 L 293.695313 381.828125 L 303.371094 381.875 L 305.074219 384.046875 L 306.8125 385.410156 L 307.179688 391.25 L 306.777344 393.191406 L 306.835938 393.601563 L 303.882813 394.277344 L 300.792969 396.082031 L 298.46875 398.632813 L 296.957031 401.875 L 296.503906 404.785156 L 296.796875 407.714844 L 297.8125 410.476563 L 299.160156 412.414063 L 297.144531 414.53125 L 295.578125 412.011719 L 292.742188 410.515625 L 292.480469 410.636719 L 293.898438 413.703125 L 295.816406 416.523438 L 295.617188 416.769531 L 293.445313 418.476563 L 290.910156 421.503906 L 290.003906 421.65625 L 289.660156 421.574219 L 288.214844 419.332031 L 284.976563 421.730469 L 280.71875 424.230469 L 282.339844 425.378906 L 285.105469 424.398438 L 286.097656 423.375 L 286.894531 423.164063 L 287.328125 423.710938 L 287.632813 428.84375 L 285.6875 430.875 L 283.441406 432.558594 L 282.84375 432.699219 L 279.644531 432.160156 L 274.75 433.78125 L 272.609375 436.117188 L 274.253906 436.015625 L 275.152344 434.667969 L 276.683594 434.363281 L 278.285156 434.328125 L 281.054688 434.949219 L 281.828125 435.589844 L 281.691406 436.328125 L 279.554688 436.347656 L 277.390625 437.65625 L 277.96875 438.546875 L 281.382813 438.964844 L 286.863281 440.339844 L 288.949219 440.007813 L 286.523438 440.953125 L 283.957031 442.878906 L 282.558594 444.554688 L 281.449219 446.582031 L 280.757813 448.789063 L 280.519531 451.085938 L 280.742188 453.390625 L 281.414063 455.601563 L 282.507813 457.636719 L 283.386719 458.695313 L 282.699219 459.339844 L 279.921875 459.179688 L 276.140625 460.304688 L 274.191406 461.519531 L 270.640625 464.566406 L 268.878906 466.683594 L 267.355469 466.222656 L 265.367188 464.542969 L 261.414063 463.128906 L 249.09375 463.292969 L 246.105469 462.660156 L 242.933594 462.851563 L 239.550781 464 L 238.925781 464.425781 L 237.714844 463.296875 L 231.496094 463.171875 L 231.378906 463.496094 L 232.574219 464.835938 L 232.214844 465.75 L 231.738281 466.042969 L 226.691406 465.496094 L 219.566406 468.449219 L 217.054688 467.824219 L 214.855469 468.195313 L 214.199219 468.085938 L 210.050781 468.851563 L 209.882813 468.953125 L 208.164063 468.875 L 207.273438 468.058594 L 206.238281 469.769531 L 207.609375 470.335938 L 206.445313 471.046875 L 203.148438 470.746094 L 199.898438 471.390625 L 198.46875 472.113281 L 197.625 472.007813 L 196.175781 472.65625 L 195.679688 473.863281 L 195.714844 474.101563 L 195.175781 474.59375 L 194.851563 473.972656 L 193.785156 473.183594 L 192.734375 471.40625 L 189.5625 468.824219 L 185.695313 467.5 L 181.609375 467.597656 L 177.917969 469.035156 L 177.148438 469.65625 L 176.207031 469.78125 L 174.339844 470.335938 L 168.992188 473.234375 L 168.214844 474.070313 L 167.203125 476.179688 L 163.605469 486.707031 L 161.628906 488.261719 L 160.1875 490.097656 L 159.828125 490.027344 L 159.105469 486.949219 L 157.183594 483.777344 L 154.472656 481.441406 L 151.183594 480.042969 L 148.261719 479.683594 L 145.46875 480.042969 L 142.84375 481.058594 L 140.539063 482.675781 L 136.40625 482.015625 L 129.976563 482.859375 L 127.648438 483.554688 L 125.515625 484.71875 L 123.671875 486.300781 L 122.195313 488.234375 L 121.152344 490.429688 L 120.589844 492.777344 L 120.53125 495.316406 L 120.964844 497.546875 L 120.929688 497.558594 L 119.808594 495.273438 L 118.011719 493.109375 L 115.863281 491.5 L 113.398438 490.429688 L 113.398438 489.125 L 113.574219 489.15625 L 118.144531 485.910156 L 118.707031 485.425781 L 121.085938 484.210938 L 123.417969 481.847656 L 125.03125 478.800781 L 127.199219 477.09375 L 128.90625 474.921875 L 132.152344 475.695313 L 135.609375 475.488281 L 138.738281 474.335938 L 141.410156 472.34375 L 143.21875 470.007813 L 144.414063 467.167969 L 146.230469 465.738281 L 147.726563 463.976563 L 149.207031 460.988281 L 149.722656 458.605469 L 149.726563 456.164063 L 149.257813 453.902344 L 148.390625 451.890625 L 148.375 451.660156 L 152.167969 451.660156 L 153.566406 454.828125 L 155.835938 457.445313 L 158.773438 459.277344 L 162.121094 460.164063 L 165.578125 460.027344 L 168.851563 458.898438 L 171.578125 456.988281 L 173.648438 454.386719 L 175.007813 450.800781 L 175.089844 448.214844 L 180.570313 447.503906 L 181.109375 445.632813 L 181.210938 443.15625 L 182.519531 440.25 L 190.867188 432.195313 L 195.792969 425.3125 L 197.929688 424.472656 L 198.285156 423.78125 L 198.070313 423.238281 L 197.8125 423.082031 L 196.09375 424.355469 L 192.90625 427.300781 L 190.570313 429.988281 L 189.222656 431.449219 L 185.628906 432.957031 L 183.714844 433.246094 L 182.441406 433.0625 L 178.394531 435.230469 L 177.398438 436.808594 L 177.039063 438.671875 L 176.445313 439.273438 L 174.058594 439.917969 L 171.550781 439.871094 L 171.539063 438.472656 L 173.816406 437.371094 L 176.664063 435.285156 L 179.308594 432.277344 L 183.21875 431.601563 L 186.671875 429.648438 L 189.269531 426.644531 L 190.734375 422.820313 L 190.902344 418.855469 L 190.011719 415.390625 L 188.824219 413.273438 L 187.21875 411.445313 L 185.269531 409.992188 L 183.183594 409.015625 L 183.183594 405.136719 L 185.304688 404.765625 L 187.4375 403.949219 L 189.367188 402.734375 L 190.9375 401.261719 L 193.203125 401.726563 L 195.515625 401.734375 L 197.78125 401.289063 L 199.917969 400.398438 L 201.832031 399.105469 L 203.535156 397.359375 L 204.839844 395.296875 L 205.648438 393.128906 L 206.03125 389.949219 L 205.53125 386.78125 L 204.1875 383.871094 L 201.972656 381.210938 L 199.679688 379.382813 L 196.878906 378.148438 L 193.980469 377.691406 L 190.9375 378 L 192.714844 376.550781 L 194.167969 374.785156 L 195.25 372.765625 L 195.890625 370.699219 L 198.121094 373.617188 L 200.117188 375.414063 L 202.082031 376.625 L 205.886719 377.730469 L 209.714844 377.527344 L 212.371094 376.582031 L 214.820313 374.945313 L 216.777344 372.746094 L 218.078125 370.246094 L 221.320313 369.523438 L 224.230469 367.910156 L 226.167969 366.046875 L 227.625 363.789063 L 228.695313 360.375 L 228.675781 356.796875 L 227.679688 353.625 L 225.832031 350.863281 L 225.625 347.929688 L 224.632813 345.027344 L 223.167969 342.777344 L 221.328125 341 L 214.1875 336.910156 L 214.199219 335.355469 L 217.691406 333.746094 L 220.464844 331.085938 L 221.964844 328.394531 L 222.703125 325.402344 L 222.667969 322.578125 L 221.953125 319.847656 L 222.269531 313.4375 L 222.070313 311.148438 L 220.703125 307.449219 L 218.078125 304.339844 Z M 293.308594 438.648438 L 295.617188 440.03125 L 292.582031 439.511719 L 289.605469 439.8125 L 291.074219 438.957031 Z M 237.429688 465.445313 L 236.910156 465.800781 L 236.683594 466.070313 L 235.136719 465.644531 L 236.523438 463.683594 L 237.195313 464.164063 Z M 234.132813 469.84375 L 234.019531 470.09375 L 232.75 471.703125 L 231.414063 472.753906 L 230.398438 474.046875 L 229.960938 474.269531 L 229.164063 474.429688 L 227.832031 473.222656 L 225.746094 472.019531 L 222.933594 471.296875 L 222.296875 470.886719 L 221.828125 470.953125 L 220.945313 470.308594 L 221.476563 469.683594 L 227.316406 466.367188 L 232.550781 467.761719 Z M 249.09375 335.355469 L 249.660156 338.679688 L 248.914063 338.832031 L 247.675781 336.03125 Z M 218.078125 265.570313 L 218.078125 269.445313 L 214.199219 269.445313 L 214.871094 265.308594 Z M 206.445313 250.0625 L 205.777344 254.199219 L 202.570313 253.9375 L 202.917969 252.511719 L 204.796875 251.449219 Z M 183.183594 350.863281 L 182.480469 350.171875 L 183.285156 346.238281 L 183.183594 343.109375 L 183.605469 342.304688 L 184.871094 344.085938 L 186.445313 345.597656 L 188.273438 346.789063 L 190.296875 347.617188 L 192.433594 348.054688 L 194.617188 348.082031 L 198.691406 346.984375 L 196.265625 349.765625 L 194.832031 353.167969 L 194.5 355.828125 L 194.816406 358.617188 L 194.75 362.792969 L 193.058594 360.421875 L 190.9375 358.617188 L 189.800781 356.039063 L 189.714844 355.925781 L 190.335938 355.148438 L 189.90625 355.050781 L 189.242188 355.308594 L 188.167969 353.90625 L 185.871094 352.066406 Z M 171.554688 222.921875 L 173.441406 225.269531 L 176.433594 227.601563 L 178.550781 228.800781 L 180.75 229.503906 L 183.425781 229.757813 L 185.964844 229.425781 L 188.371094 228.542969 L 190.625 227.070313 L 188.566406 229.496094 L 187.3125 232.230469 L 187.070313 232.078125 L 185.40625 232.042969 L 181.046875 235.800781 L 180.578125 237.003906 L 176.433594 239.21875 L 175.429688 238.429688 L 175.746094 235.644531 L 175.382813 232.859375 L 173.980469 229.582031 L 171.554688 226.800781 Z M 179.6875 242.308594 L 179.308594 242.308594 L 179.207031 242.179688 Z M 286.679688 439.636719 L 283.058594 438.976563 L 282.164063 437.605469 L 282.484375 436.070313 L 286.839844 437.054688 L 287.960938 438.832031 Z M 286.679688 439.636719 "/>
</g>
</svg>
