<?xml version="1.0" encoding="UTF-8"?>
<svg xmlns="http://www.w3.org/2000/svg" xmlns:xlink="http://www.w3.org/1999/xlink" width="378pt" height="504pt" viewBox="0 0 378 504" version="1.1">
<g id="data">
<rect x="0" y="0" width="378" height="504" style="fill:rgb(100%,100%,100%);fill-opacity:1;stroke:none;"/>
<path style=" stroke:none;fill-rule:nonzero;fill:rgb(100%,100%,100%);fill-opacity:1;" d="M 53.308594 504 L 324.691406 504 L 324.691406 0 L 53.308594 0 Z M 53.308594 504 "/>
<path style=" stroke:none;fill-rule:nonzero;fill:rgb(22.745098%,53.333333%,16.078431%);fill-opacity:1;" d="M 127.695313 422.183594 L 125.890625 422.855469 L 123.96875 422.902344 L 122.742188 422.511719 L 124.125 421.78125 L 125.167969 421.753906 L 125.464844 421.238281 L 124.929688 417.953125 L 123.328125 417.210938 L 121.445313 417.105469 L 122.0625 415.152344 L 125.933594 413.378906 L 126.539063 411.90625 L 127.964844 411.78125 L 128.839844 412.253906 L 129.558594 413.019531 L 129.6875 412.742188 L 130.851563 411.535156 L 133.074219 411.34375 L 134.871094 409.289063 L 135.753906 407.632813 L 137.585938 406.550781 L 141.359375 406.660156 L 142.21875 406.390625 L 149.359375 401.828125 L 152.136719 398.207031 L 153.054688 396.195313 L 154.199219 391.746094 L 153.734375 388.820313 L 152.566406 386.542969 L 153.179688 384.597656 L 153.367188 384.238281 L 154.890625 383.929688 L 156.601563 383.84375 L 158.257813 384.253906 L 159.726563 385.128906 L 160.878906 386.394531 L 161.609375 387.941406 L 161.863281 389.628906 L 161.863281 393.507813 L 161.777344 394.492188 L 161.28125 397.382813 L 161.777344 400.277344 L 161.777344 402.238281 L 161.128906 404.085938 L 159.902344 405.617188 L 158.234375 406.648438 L 156.320313 407.070313 L 154.496094 407.15625 L 153.320313 407.464844 L 152.253906 408.007813 L 151.238281 408.832031 L 150.503906 409.757813 L 149.933594 410.921875 L 149.632813 412.179688 L 149.617188 413.203125 L 150.21875 415.550781 L 151.230469 417.191406 L 152.449219 418.25 L 154.605469 419.242188 L 156.609375 420.769531 L 157.914063 422.308594 L 158.976563 423.097656 L 160.285156 423.644531 L 161.667969 423.863281 L 163.066406 423.738281 L 164.359375 423.292969 L 165.660156 422.429688 L 167.175781 420.695313 L 168.851563 419.375 L 170.890625 418.746094 L 173.808594 418.410156 L 175.695313 417.472656 L 176.839844 416.324219 L 178.046875 414.046875 L 179.339844 412.40625 L 181.136719 411.328125 L 182.667969 410.75 L 183.582031 410.191406 L 184.453125 409.390625 L 185.03125 408.609375 L 185.652344 407.191406 L 185.871094 405.789063 L 184.785156 398.753906 L 184.285156 397.640625 L 183.472656 396.582031 L 182.441406 395.738281 L 180.636719 394.859375 L 179.167969 393.835938 L 178.082031 392.417969 L 177.476563 390.738281 L 177.410156 388.953125 L 177.886719 387.230469 L 178.863281 385.738281 L 180.25 384.609375 L 182.789063 383.125 L 184.085938 381.566406 L 184.765625 379.65625 L 184.75 377.6875 L 184.15625 375.992188 L 182.460938 373.804688 L 181.617188 372.285156 L 181.257813 370.585938 L 181.414063 368.855469 L 181.820313 367.207031 L 181.867188 365.972656 L 181.675781 364.824219 L 181.140625 363.34375 L 180.59375 362.4375 L 179.878906 361.632813 L 179.027344 360.972656 L 177.582031 360.238281 L 176.125 359.1875 L 175.058594 357.738281 L 174.484375 356.03125 L 174.472656 355.082031 L 174.484375 355.082031 L 179.910156 359.441406 L 180.433594 358.429688 L 177.679688 353.460938 L 178.242188 352.835938 L 180.867188 352.449219 L 181.503906 352.695313 L 181.914063 353.875 L 182.898438 354.332031 L 184.078125 356.789063 L 185.613281 357.902344 L 188.359375 357.621094 L 190.335938 355.148438 L 189.90625 355.050781 L 188.667969 355.527344 L 188.3125 355.957031 L 186.378906 356.386719 L 183.8125 354.640625 L 181.363281 349.339844 L 183.882813 349.652344 L 185.855469 349.222656 L 186.902344 348.660156 L 187.902344 347.773438 L 188.667969 346.683594 L 189.417969 344.816406 L 190.480469 343.105469 L 192.0625 341.863281 L 193.972656 341.230469 L 195.988281 341.289063 L 198.3125 341.765625 L 199.945313 341.652344 L 202 340.957031 L 203.34375 340.042969 L 204.5625 338.484375 L 205.199219 336.660156 L 205.265625 335.472656 L 204.652344 332.761719 L 204.507813 331.476563 L 204.507813 327.601563 L 204.785156 325.832031 L 205.585938 324.226563 L 206.835938 322.945313 L 208.417969 322.105469 L 210.179688 321.785156 L 211.957031 322.019531 L 213.578125 322.78125 L 214.890625 324 L 215.972656 325.371094 L 216.785156 326.070313 L 217.726563 326.609375 L 218.753906 326.964844 L 219.828125 327.125 L 220.914063 327.078125 L 221.972656 326.828125 L 223.464844 326.164063 L 225.148438 325.703125 L 226.894531 325.757813 L 228.542969 326.332031 L 229.949219 327.371094 L 230.980469 328.777344 L 231.550781 330.429688 L 231.605469 332.171875 L 231.226563 335.300781 L 231.730469 337.3125 L 232.921875 339.011719 L 234.71875 340.234375 L 236.261719 340.648438 L 238.0625 340.578125 L 239.660156 340.003906 L 241.726563 338.453125 L 243.265625 337.628906 L 244.980469 337.296875 L 246.71875 337.488281 L 248.320313 338.191406 L 249.03125 338.804688 L 245.550781 339.511719 L 244.589844 338.644531 L 243.40625 338.558594 L 241.210938 339.871094 L 241.886719 340.445313 L 246.324219 340.394531 L 249.617188 339.34375 L 249.644531 339.339844 L 250.5625 340.816406 L 251.320313 342.59375 L 251.957031 343.484375 L 253.234375 344.578125 L 255.40625 345.582031 L 256.574219 346.296875 L 257.539063 347.265625 L 258.816406 348.890625 L 260.441406 350.167969 L 261.429688 351.160156 L 262.152344 352.359375 L 263.054688 354.367188 L 263.984375 355.535156 L 265.007813 356.316406 L 266.949219 357.171875 L 268.621094 358.433594 L 268.980469 359.304688 L 269.535156 362.402344 L 269.210938 365.21875 L 264.953125 369.09375 L 261.394531 373.164063 L 260.601563 374.816406 L 262.84375 374.3125 L 264.9375 375.519531 L 266.9375 378.226563 L 270.21875 378.804688 L 270.625 378.746094 L 271.910156 376.796875 L 272.234375 374.960938 L 273.40625 371.914063 L 274.707031 370.632813 L 277.851563 370.085938 L 283.34375 370.234375 L 284.253906 370.867188 L 286.703125 370.742188 L 293.949219 371.515625 L 296.914063 372.84375 L 304.070313 378.085938 L 305.367188 380.105469 L 306.730469 384.164063 L 307.179688 391.25 L 306.777344 393.191406 L 306.890625 393.976563 L 305.789063 396.917969 L 303.519531 407.832031 L 297.144531 414.53125 L 295.578125 412.011719 L 292.742188 410.515625 L 292.480469 410.636719 L 293.898438 413.703125 L 295.890625 416.628906 L 296.3125 416.765625 L 296.164063 417.742188 L 294.574219 419.804688 L 292.191406 421.289063 L 290.003906 421.65625 L 289.660156 421.574219 L 288.214844 419.332031 L 284.976563 421.730469 L 280.71875 424.230469 L 282.339844 425.378906 L 285.105469 424.398438 L 286.097656 423.375 L 286.894531 423.164063 L 287.328125 423.710938 L 287.632813 428.84375 L 285.6875 430.875 L 283.441406 432.558594 L 282.84375 432.699219 L 279.644531 432.160156 L 274.75 433.78125 L 272.609375 436.117188 L 274.253906 436.015625 L 275.152344 434.667969 L 276.683594 434.363281 L 278.285156 434.328125 L 281.054688 434.949219 L 281.828125 435.589844 L 281.691406 436.328125 L 279.554688 436.347656 L 277.390625 437.65625 L 277.96875 438.546875 L 281.382813 438.964844 L 286.863281 440.339844 L 289.394531 439.9375 L 291.074219 438.957031 L 299.742188 437.757813 L 300.988281 440.148438 L 300.773438 446.324219 L 300.335938 447.820313 L 299.394531 449.050781 L 296.972656 450.242188 L 295.839844 450.375 L 292.621094 451.640625 L 291.179688 452.742188 L 289.847656 454.226563 L 289.460938 455.09375 L 289.214844 456.324219 L 289.464844 457.886719 L 286.253906 458.289063 L 284.1875 457.9375 L 281.042969 460.90625 L 278.484375 461.933594 L 274.789063 462.777344 L 272.597656 463.816406 L 270.539063 466.589844 L 269.761719 466.949219 L 259.269531 463.777344 L 256.070313 463.507813 L 244.628906 465.699219 L 242.703125 466.390625 L 242.113281 466.964844 L 241.902344 467.984375 L 241.359375 468.164063 L 238.210938 466.1875 L 238.632813 465.4375 L 239.46875 464.933594 L 237.714844 463.296875 L 231.496094 463.171875 L 231.378906 463.496094 L 232.574219 464.835938 L 232.214844 465.75 L 231.738281 466.042969 L 226.691406 465.496094 L 219.566406 468.449219 L 217.054688 467.824219 L 210.222656 468.96875 L 208.164063 468.875 L 207.273438 468.058594 L 206.238281 469.769531 L 209.429688 471.089844 L 209.714844 470.9375 L 210.1875 472.128906 L 209.566406 473.890625 L 206.84375 474.453125 L 204.453125 473.097656 L 203.015625 472.699219 L 197.625 472.007813 L 196.175781 472.65625 L 195.679688 473.863281 L 195.832031 474.871094 L 196.757813 475.523438 L 196.488281 476.304688 L 195.917969 475.996094 L 194.851563 473.972656 L 190.289063 470.589844 L 185.898438 468.519531 L 183.121094 467.984375 L 181.648438 469.066406 L 176.207031 469.78125 L 174.339844 470.335938 L 168.992188 473.234375 L 168.214844 474.070313 L 167.203125 476.179688 L 162.746094 489.226563 L 160.929688 490.242188 L 158.269531 489.722656 L 157.554688 489.058594 L 156.527344 486.851563 L 154.683594 485.4375 L 153.613281 485.542969 L 152.417969 486.300781 L 151.738281 486.164063 L 148.46875 482.535156 L 142.796875 482.960938 L 141.527344 483.375 L 140.734375 484.175781 L 139.910156 484.507813 L 134.507813 484.320313 L 132.167969 484.859375 L 129.414063 488.195313 L 126.714844 489.746094 L 124.039063 490.597656 L 123.132813 494.289063 L 123.664063 495.292969 L 123.496094 496.125 L 122.722656 496.945313 L 120.660156 497.648438 L 119.628906 499.730469 L 118.675781 498.910156 L 117.96875 497.691406 L 118.09375 496.4375 L 117.15625 494.691406 L 115.984375 493.691406 L 112.253906 492.070313 L 111.410156 491.984375 L 110.375 492.488281 L 110.242188 494.183594 L 109.664063 494.851563 L 109.511719 494.757813 L 108.359375 493.332031 L 107.707031 491.621094 L 107.625 489.882813 L 111.738281 488.078125 L 112.199219 488.253906 L 112.445313 488.9375 L 113.574219 489.15625 L 118.144531 485.910156 L 121.425781 483.085938 L 124.375 479.769531 L 125.210938 477.886719 L 124.875 476.421875 L 125.640625 474.519531 L 128.386719 473.238281 L 132.105469 472.640625 L 132.679688 471.785156 L 133.257813 469.527344 L 135.859375 467.5625 L 138.636719 464.640625 L 139.128906 458.542969 L 139.339844 457.347656 L 140.078125 456.953125 L 141.300781 455.722656 L 141.65625 454.996094 L 142.492188 455.105469 L 144.269531 456.015625 L 145.761719 455.429688 L 148.429688 452.488281 L 148.105469 447.519531 L 151.105469 446.613281 L 157.421875 446.269531 L 159.910156 445.683594 L 164.597656 446.761719 L 166.046875 446.148438 L 167.527344 446.515625 L 169.484375 447.285156 L 170.039063 448.109375 L 170.757813 448.421875 L 173.15625 448.464844 L 180.570313 447.503906 L 181.109375 445.632813 L 181.210938 443.15625 L 182.519531 440.25 L 190.867188 432.195313 L 195.792969 425.3125 L 197.929688 424.472656 L 198.285156 423.78125 L 198.070313 423.238281 L 197.8125 423.082031 L 196.09375 424.355469 L 192.90625 427.300781 L 190.570313 429.988281 L 189.222656 431.449219 L 185.628906 432.957031 L 183.714844 433.246094 L 182.441406 433.0625 L 178.394531 435.230469 L 177.398438 436.808594 L 177.039063 438.671875 L 176.445313 439.273438 L 174.058594 439.917969 L 170.558594 439.851563 L 166.820313 439 L 166.347656 438.652344 L 161.371094 433.375 L 159.03125 429.199219 L 155.65625 429.589844 L 149.269531 432.308594 L 149.113281 432.746094 L 147.203125 431.632813 L 146.917969 429.308594 L 148.539063 428.378906 L 150.066406 428.890625 L 151.640625 428.421875 L 152.765625 427.832031 L 153.085938 427.097656 L 152.808594 426.597656 L 147.785156 426.460938 L 143.210938 423.710938 L 139.503906 423.714844 L 136.765625 424.277344 L 136.628906 424.929688 L 136.238281 424.5625 L 134.507813 422.664063 L 131.703125 421.136719 L 130.179688 419.9375 L 130.15625 419.898438 L 129.65625 420.695313 L 128.191406 421.894531 Z M 146.355469 242.308594 L 146.660156 240.441406 L 147.550781 238.773438 L 148.929688 237.476563 L 150.652344 236.695313 L 152.535156 236.503906 L 154.378906 236.929688 L 155.988281 237.921875 L 157.691406 239.402344 L 159.597656 240.355469 L 161.148438 241.484375 L 162.246094 243.058594 L 162.773438 244.902344 L 162.671875 246.820313 L 161.953125 248.597656 L 160.695313 250.046875 L 159.03125 251.003906 L 157.148438 251.371094 L 155.253906 251.421875 L 153.535156 251.835938 L 151.796875 251.988281 L 150.089844 251.617188 L 148.574219 250.753906 L 147.378906 249.480469 L 146.617188 247.910156 L 146.355469 246.183594 L 146.355469 243.183594 L 148.300781 243.253906 L 146.355469 242.480469 Z M 286.679688 439.636719 L 283.058594 438.976563 L 282.164063 437.605469 L 282.484375 436.070313 L 286.839844 437.054688 L 287.960938 438.832031 Z M 236.835938 466.113281 L 235.136719 465.644531 L 236.523438 463.683594 L 237.195313 464.164063 L 237.5 465.839844 Z M 228.117188 474.644531 L 222.296875 470.886719 L 220.207031 471.1875 L 221.476563 469.683594 L 227.316406 466.367188 L 232.550781 467.761719 L 234.171875 469.894531 L 231.242188 473.621094 L 229.960938 474.269531 Z M 228.117188 474.644531 "/>
<path style=" stroke:none;fill-rule:nonzero;fill:rgb(80.392157%,58.431373%,4.705882%);fill-opacity:1;" d="M 192.875 331.476563 L 192.59375 333.273438 L 191.765625 334.894531 L 190.480469 336.183594 L 188.859375 337.007813 L 187.0625 337.292969 L 185.265625 337.007813 L 183.644531 336.183594 L 182.355469 334.894531 L 181.53125 333.273438 L 181.503906 333.097656 L 181.601563 331.078125 L 181.949219 330.421875 L 184.695313 329.191406 L 186.21875 325.796875 L 187.0625 325.660156 L 188.859375 325.945313 L 190.480469 326.773438 L 191.765625 328.058594 L 192.59375 329.679688 Z M 192.875 331.476563 "/>
<path style=" stroke:none;fill-rule:nonzero;fill:rgb(80.392157%,58.431373%,4.705882%);fill-opacity:1;" d="M 177.371094 172.523438 L 177.085938 174.320313 L 176.257813 175.941406 L 174.972656 177.226563 L 173.351563 178.054688 L 171.554688 178.339844 L 169.757813 178.054688 L 168.136719 177.226563 L 166.847656 175.941406 L 166.023438 174.320313 L 165.738281 172.523438 L 165.976563 171.027344 L 167.808594 170.273438 L 170.480469 169.527344 L 170.492188 169.949219 L 171.554688 169.839844 L 173.589844 168.316406 L 173.902344 167.273438 L 174.972656 167.816406 L 176.257813 169.105469 L 177.085938 170.726563 Z M 177.371094 172.523438 "/>
<path style=" stroke:none;fill-rule:nonzero;fill:rgb(80.392157%,58.431373%,4.705882%);fill-opacity:1;" d="M 188.9375 224.535156 L 188.859375 224.578125 L 187.0625 224.863281 L 185.265625 224.578125 L 183.644531 223.75 L 183.375 223.484375 L 184.609375 222.886719 L 186.457031 221.386719 L 187.289063 221.316406 L 189.085938 221.875 L 189.332031 222.921875 Z M 182.046875 221.859375 L 181.53125 220.84375 L 181.246094 219.046875 L 181.53125 217.25 L 182.355469 215.628906 L 183.644531 214.339844 L 185.265625 213.515625 L 187.0625 213.230469 L 188.859375 213.515625 L 190.480469 214.339844 L 191.765625 215.628906 L 192.59375 217.25 L 192.78125 218.449219 L 191.214844 219.742188 L 185.519531 221.085938 L 182.847656 221.226563 Z M 182.046875 221.859375 "/>
<path style=" stroke:none;fill-rule:nonzero;fill:rgb(80.392157%,58.431373%,4.705882%);fill-opacity:1;" d="M 181.183594 242.707031 L 180.960938 244.105469 L 180.136719 245.726563 L 178.847656 247.011719 L 177.226563 247.839844 L 175.429688 248.125 L 173.632813 247.839844 L 172.011719 247.011719 L 170.726563 245.726563 L 169.898438 244.105469 L 169.617188 242.308594 L 169.898438 240.511719 L 169.914063 240.480469 L 178.0625 241.875 Z M 171.105469 238.507813 L 172.011719 237.601563 L 173.632813 236.777344 L 175.429688 236.492188 L 177.226563 236.777344 L 178.847656 237.601563 L 179.0625 237.816406 L 174.761719 240.109375 Z M 171.105469 238.507813 "/>
<path style=" stroke:none;fill-rule:nonzero;fill:rgb(80.392157%,58.431373%,4.705882%);fill-opacity:1;" d="M 142.476563 288.832031 L 142.191406 290.628906 L 141.75 291.5 L 141.613281 291.4375 L 140.164063 290.433594 L 138.398438 288.636719 L 137.464844 288.296875 L 135.511719 289.683594 L 134.605469 291.238281 L 135.660156 294.488281 L 134.863281 294.363281 L 134.363281 294.105469 L 133.472656 292.679688 L 131.007813 289.851563 L 130.847656 288.832031 L 131.128906 287.035156 L 131.957031 285.414063 L 133.242188 284.125 L 134.863281 283.300781 L 136.660156 283.015625 L 138.457031 283.300781 L 140.078125 284.125 L 141.367188 285.414063 L 142.191406 287.035156 Z M 142.476563 288.832031 "/>
<path style=" stroke:none;fill-rule:nonzero;fill:rgb(80.392157%,58.431373%,4.705882%);fill-opacity:1;" d="M 169.617188 358.617188 L 169.332031 360.414063 L 168.503906 362.035156 L 167.21875 363.320313 L 165.597656 364.144531 L 163.800781 364.429688 L 162.003906 364.144531 L 160.382813 363.320313 L 159.09375 362.035156 L 158.269531 360.414063 L 157.984375 358.617188 L 158 358.511719 L 160.492188 357.457031 L 163.644531 357.28125 L 167.339844 357.714844 L 169.304688 356.765625 L 169.332031 356.816406 Z M 169.617188 358.617188 "/>
<path style=" stroke:none;fill-rule:nonzero;fill:rgb(80.392157%,58.431373%,4.705882%);fill-opacity:1;" d="M 192.875 323.722656 L 192.59375 325.519531 L 191.765625 327.140625 L 190.480469 328.429688 L 188.859375 329.253906 L 187.0625 329.539063 L 185.265625 329.253906 L 184.777344 329.007813 L 187.28125 323.421875 L 187.71875 320.933594 L 187.835938 318.03125 L 188.859375 318.191406 L 190.480469 319.019531 L 191.765625 320.304688 L 192.59375 321.925781 Z M 181.480469 322.242188 L 181.53125 321.925781 L 182.355469 320.304688 L 183.644531 319.019531 L 185.265625 318.191406 L 187.0625 317.90625 L 187.375 317.957031 L 184.742188 320.527344 Z M 181.480469 322.242188 "/>
<path style=" stroke:none;fill-rule:nonzero;fill:rgb(80.392157%,58.431373%,4.705882%);fill-opacity:1;" d="M 141.363281 372.316406 L 142.335938 372.46875 L 143.957031 373.296875 L 145.140625 374.480469 L 143.757813 375.484375 L 142.039063 378.097656 L 136.757813 378.433594 L 136.246094 378.0625 L 137.339844 376.066406 L 140.148438 373.019531 L 141.023438 372.414063 Z M 141.363281 372.316406 "/>
</g>
</svg>
