<?xml version="1.0" encoding="UTF-8"?>
<svg xmlns="http://www.w3.org/2000/svg" xmlns:xlink="http://www.w3.org/1999/xlink" width="378pt" height="504pt" viewBox="0 0 378 504" version="1.1">
<g id="data">
<rect x="0" y="0" width="378" height="504" style="fill:rgb(100%,100%,100%);fill-opacity:1;stroke:none;"/>
<path style=" stroke:none;fill-rule:nonzero;fill:rgb(100%,100%,100%);fill-opacity:1;" d="M 53.308594 504 L 324.691406 504 L 324.691406 0 L 53.308594 0 Z M 53.308594 504 "/>
<path style=" stroke:none;fill-rule:nonzero;fill:rgb(22.745098%,53.333333%,16.078431%);fill-opacity:1;" d="M 300.621094 375.558594 L 301.199219 376.292969 L 303.371094 378 L 305.4375 380.519531 L 305.53125 380.585938 L 306.730469 384.164063 L 306.855469 386.117188 L 304.160156 388.632813 L 303.03125 390.503906 L 302.269531 392.550781 L 301.898438 394.832031 L 301.964844 397.011719 L 302.441406 399.144531 L 303.371094 401.261719 L 301.378906 403.554688 L 300.050781 406.285156 L 299.367188 410.011719 L 299.457031 412.101563 L 298.839844 412.75 L 296.632813 412.273438 L 295.761719 412.304688 L 295.578125 412.011719 L 292.742188 410.515625 L 292.480469 410.636719 L 293.339844 412.496094 L 290.535156 413.332031 L 287.996094 414.824219 L 285.761719 417.109375 L 283.984375 420.644531 L 281.488281 423.535156 L 281.332031 423.871094 L 280.71875 424.230469 L 281.050781 424.464844 L 280.453125 425.726563 L 279.90625 427.960938 L 279.898438 431.144531 L 280.15625 432.246094 L 279.644531 432.160156 L 274.75 433.78125 L 272.609375 436.117188 L 274.253906 436.015625 L 275.152344 434.667969 L 276.683594 434.363281 L 278.285156 434.328125 L 280.777344 434.886719 L 281.027344 435.953125 L 281.265625 436.332031 L 279.554688 436.347656 L 277.390625 437.65625 L 277.96875 438.546875 L 281.382813 438.964844 L 283.582031 439.515625 L 285.632813 441.261719 L 289.0625 442.679688 L 292.765625 442.945313 L 296.363281 442.03125 L 299.492188 440.03125 L 299.492188 443.90625 L 296.164063 445.535156 L 293.59375 448.023438 L 291.738281 451.660156 L 290.265625 453.234375 L 289.050781 455.164063 L 288.234375 457.292969 L 288.101563 458.058594 L 286.253906 458.289063 L 284.1875 457.9375 L 282.730469 459.3125 L 281.230469 459.28125 L 276.78125 460.191406 L 274.332031 461.515625 L 270.925781 464.320313 L 268.890625 466.6875 L 267.242188 466.1875 L 265.3125 464.65625 L 261.480469 463.378906 L 258.847656 463.128906 L 249.09375 463.292969 L 246.433594 462.976563 L 243.398438 463.371094 L 241.019531 464.296875 L 238.902344 465.71875 L 238.300781 466.242188 L 238.210938 466.1875 L 238.632813 465.4375 L 239.46875 464.933594 L 237.714844 463.296875 L 231.496094 463.171875 L 231.378906 463.496094 L 232.574219 464.835938 L 232.214844 465.75 L 231.738281 466.042969 L 226.691406 465.496094 L 219.566406 468.449219 L 217.054688 467.824219 L 210.222656 468.96875 L 208.164063 468.875 L 207.273438 468.058594 L 206.238281 469.769531 L 209.429688 471.089844 L 209.714844 470.9375 L 210.1875 472.128906 L 209.566406 473.890625 L 206.84375 474.453125 L 204.453125 473.097656 L 203.015625 472.699219 L 197.625 472.007813 L 196.175781 472.65625 L 195.679688 473.863281 L 195.78125 474.523438 L 195.257813 474.742188 L 194.851563 473.972656 L 192.574219 472.285156 L 192.464844 472.15625 L 191.511719 471.496094 L 190.289063 470.589844 L 190.011719 470.457031 L 188.277344 469.257813 L 186.015625 468.578125 L 185.898438 468.519531 L 185.714844 468.484375 L 184.722656 468.1875 L 184.234375 468.199219 L 183.121094 467.984375 L 182.773438 468.242188 L 181.011719 468.289063 L 177.519531 469.554688 L 177.433594 469.617188 L 176.207031 469.78125 L 174.339844 470.335938 L 168.992188 473.234375 L 168.214844 474.070313 L 167.203125 476.179688 L 165.253906 481.886719 L 165.105469 482.078125 L 164.242188 484.1875 L 163.972656 485.636719 L 163.605469 486.707031 L 161.628906 488.261719 L 160.1875 490.097656 L 159.386719 489.941406 L 157.570313 488.285156 L 157.078125 488.039063 L 156.527344 486.851563 L 154.683594 485.4375 L 153.613281 485.542969 L 152.417969 486.300781 L 151.738281 486.164063 L 148.46875 482.535156 L 142.796875 482.960938 L 141.527344 483.375 L 141.238281 483.667969 L 139.765625 483.617188 L 136.429688 484.386719 L 134.507813 484.320313 L 132.167969 484.859375 L 130.304688 487.117188 L 129.578125 487.28125 L 126.601563 488.957031 L 125.3125 490.191406 L 124.039063 490.597656 L 123.726563 491.871094 L 122.707031 493.261719 L 121.632813 495.699219 L 121.300781 497.433594 L 120.660156 497.648438 L 120.617188 497.734375 L 118.539063 495.988281 L 117.652344 495.617188 L 117.15625 494.691406 L 115.984375 493.691406 L 112.253906 492.070313 L 111.410156 491.984375 L 110.375 492.488281 L 110.242188 494.183594 L 110.238281 494.1875 L 105.644531 494.308594 L 107.816406 492.601563 L 109.523438 490.429688 L 111.699219 490.226563 L 113.914063 489.570313 L 115.957031 488.488281 L 117.746094 487.023438 L 119.210938 485.234375 L 119.449219 484.789063 L 121.425781 483.085938 L 124.375 479.769531 L 125.210938 477.886719 L 124.945313 476.722656 L 125.957031 475.9375 L 127.703125 473.730469 L 127.800781 473.511719 L 128.386719 473.238281 L 132.105469 472.640625 L 132.679688 471.785156 L 133.257813 469.527344 L 135.859375 467.5625 L 137 466.359375 L 137.175781 466.308594 L 139.21875 465.226563 L 141.007813 463.761719 L 142.472656 461.972656 L 143.554688 459.929688 L 144.1875 457.839844 L 144.371094 455.976563 L 145.761719 455.429688 L 148.429688 452.488281 L 148.375 451.671875 L 151.207031 451.976563 L 154.234375 451.511719 L 157.03125 450.277344 L 159.324219 448.449219 L 161.207031 445.980469 L 164.597656 446.761719 L 166.046875 446.148438 L 167.527344 446.515625 L 169.484375 447.285156 L 170.039063 448.109375 L 170.757813 448.421875 L 173.15625 448.464844 L 180.570313 447.503906 L 181.109375 445.632813 L 181.210938 443.15625 L 182.519531 440.25 L 190.867188 432.195313 L 195.792969 425.3125 L 197.929688 424.472656 L 198.285156 423.78125 L 198.070313 423.238281 L 197.8125 423.082031 L 196.09375 424.355469 L 192.90625 427.300781 L 190.570313 429.988281 L 189.222656 431.449219 L 185.628906 432.957031 L 183.714844 433.246094 L 182.441406 433.0625 L 178.394531 435.230469 L 177.398438 436.808594 L 177.039063 438.671875 L 176.445313 439.273438 L 174.058594 439.917969 L 170.558594 439.851563 L 166.820313 439 L 166.347656 438.652344 L 164.117188 436.289063 L 166.164063 437.160156 L 168.6875 437.621094 L 171.125 437.535156 L 173.492188 436.945313 L 176.835938 435.046875 L 179.308594 432.277344 L 182.730469 431.761719 L 185.742188 430.335938 L 187.886719 428.5 L 189.527344 426.199219 L 190.597656 423.449219 L 190.9375 420.644531 L 192.140625 417.539063 L 192.351563 413.574219 L 191.773438 411.074219 L 190.65625 408.761719 L 189.058594 406.75 L 187.0625 405.136719 L 190.691406 405.9375 L 194.386719 405.554688 L 197.667969 404.089844 L 200.425781 401.597656 L 202.164063 398.605469 L 203.644531 393.570313 L 203.433594 389.871094 L 202.066406 386.421875 L 200.78125 384.664063 L 199.191406 383.171875 L 195.445313 381.242188 L 191.257813 380.769531 L 189.109375 381.125 L 187.0625 381.875 L 188.101563 379.390625 L 188.535156 376.859375 L 188.382813 374.167969 L 187.664063 371.703125 L 185.875 368.742188 L 183.183594 366.371094 L 181.09375 362.71875 L 177.84375 360.050781 L 175.480469 359.066406 L 173.089844 358.628906 L 169.632813 358.664063 L 167.015625 359.261719 L 164.710938 360.375 L 162.707031 361.964844 L 161.101563 363.957031 L 159.921875 366.371094 L 158.351563 364.894531 L 156.421875 363.679688 L 154.414063 362.902344 L 152.167969 362.492188 L 151.378906 360.773438 L 151.550781 360.582031 L 153.09375 359.609375 L 154.941406 359.808594 L 160.492188 357.457031 L 163.644531 357.28125 L 167.339844 357.714844 L 172.597656 355.179688 L 173.933594 355.046875 L 174.484375 355.082031 L 179.910156 359.441406 L 180.433594 358.429688 L 177.679688 353.460938 L 178.242188 352.835938 L 180.867188 352.449219 L 181.503906 352.695313 L 181.914063 353.875 L 182.898438 354.332031 L 184.078125 356.789063 L 185.613281 357.902344 L 188.359375 357.621094 L 190.335938 355.148438 L 189.90625 355.050781 L 188.667969 355.527344 L 188.3125 355.957031 L 186.378906 356.386719 L 183.8125 354.640625 L 179.976563 346.332031 L 180.113281 346.085938 L 181.082031 345.003906 L 182.363281 342.671875 L 182.566406 341.695313 L 183.371094 340.257813 L 185.429688 339.015625 L 185.140625 338.578125 L 183.238281 338.488281 L 183.320313 338.109375 L 183.183594 331.476563 L 185.640625 328.414063 L 186.9375 324.710938 L 187.3125 329.230469 L 188.742188 332.738281 L 192.183594 336.636719 L 195.421875 338.660156 L 199.527344 339.539063 L 204.445313 338.921875 L 207.921875 337.414063 L 210.964844 334.738281 L 213.226563 331.394531 L 214.199219 327.601563 L 215.75 325.925781 L 217 323.871094 L 218.078125 319.847656 L 219.972656 316.953125 L 220.917969 313.757813 L 221.003906 311.191406 L 220.5625 308.792969 L 219.566406 306.429688 L 218.078125 304.339844 L 220.273438 300.734375 L 221.039063 296.585938 L 220.273438 292.433594 L 218.078125 288.832031 L 218.078125 284.953125 L 221.953125 284.953125 L 222.335938 288.636719 L 223.925781 292.117188 L 226.175781 294.519531 L 229.304688 299.0625 L 229.707031 299.25 L 229.707031 300.460938 L 226.777344 303.136719 L 224.914063 306.640625 L 224.367188 309.410156 L 224.503906 312.230469 L 225.832031 315.96875 L 226.0625 319.027344 L 227.085938 321.917969 L 228.332031 323.855469 L 229.835938 325.425781 L 231.609375 326.6875 L 233.585938 327.601563 L 233.679688 329.910156 L 234.234375 332.15625 L 235.21875 334.25 L 236.601563 336.105469 L 239.175781 338.222656 L 242 339.398438 L 241.210938 339.871094 L 241.886719 340.445313 L 246.324219 340.394531 L 249.335938 339.433594 L 251.707031 341.425781 L 254.375 342.546875 L 254.382813 342.558594 L 260.535156 347.621094 L 261.511719 348.179688 L 261.265625 348.785156 L 260.929688 352.097656 L 261.546875 355.367188 L 262.507813 357.464844 L 263.777344 359.234375 L 265.976563 361.191406 L 268.476563 362.492188 L 269.246094 364.535156 L 269.28125 364.59375 L 269.210938 365.21875 L 264.953125 369.09375 L 261.394531 373.164063 L 260.601563 374.816406 L 262.84375 374.3125 L 264.9375 375.519531 L 266.9375 378.226563 L 270.21875 378.804688 L 270.625 378.746094 L 271.910156 376.796875 L 272.234375 374.960938 L 273.40625 371.914063 L 274.707031 370.632813 L 275.96875 370.410156 L 276.289063 370.554688 L 279.070313 371.046875 L 281.632813 370.902344 L 283.542969 370.371094 L 284.253906 370.867188 L 286.703125 370.742188 L 288.632813 370.949219 L 290.214844 372.394531 L 293.0625 373.820313 L 296.320313 374.429688 L 298.757813 374.195313 Z M 245.214844 401.261719 L 247.484375 400.859375 L 249.746094 399.957031 L 251.667969 398.6875 L 253.386719 396.960938 L 254.707031 394.917969 L 255.539063 392.769531 L 255.941406 390.367188 L 255.832031 387.9375 L 255.265625 385.703125 L 254.269531 383.625 L 252.117188 380.746094 L 250.445313 379.148438 L 248.492188 377.910156 L 246.332031 377.082031 L 244.046875 376.699219 L 241.609375 376.796875 L 239.003906 377.488281 L 236.625 378.765625 L 234.867188 380.269531 L 232.480469 383.132813 L 231.277344 385.105469 L 230.484375 387.277344 L 230.136719 389.5625 L 230.246094 391.871094 L 230.855469 394.234375 L 232.015625 396.523438 L 233.558594 398.414063 L 235.570313 400.011719 L 237.882813 401.128906 L 240.253906 401.691406 L 242.824219 401.738281 Z M 232.75 471.703125 L 231.414063 472.753906 L 230.398438 474.046875 L 229.960938 474.269531 L 228.117188 474.644531 L 222.296875 470.886719 L 220.207031 471.1875 L 221.476563 469.683594 L 227.316406 466.367188 L 232.550781 467.761719 L 234.171875 469.894531 Z M 151.304688 360.613281 L 150.84375 359.613281 L 148.792969 357.199219 L 151.816406 357.695313 L 154.742188 357.410156 L 155.046875 357.300781 L 154.066406 358.859375 Z M 263.117188 343.480469 L 263.511719 343.382813 L 263.640625 343.980469 L 262.804688 345.191406 L 263.28125 343.65625 Z M 187.0625 226.800781 L 188.0625 229.140625 L 189.632813 231.300781 L 190.675781 232.199219 L 189.460938 232.730469 L 188.34375 232.882813 L 187.070313 232.078125 L 185.40625 232.042969 L 181.046875 235.800781 L 180.578125 237.003906 L 175.734375 239.59375 L 173.796875 238.839844 L 171.554688 238.429688 L 173.796875 238.023438 L 175.804688 237.242188 L 177.734375 236.027344 L 179.308594 234.554688 L 182.945313 232.699219 L 185.433594 230.128906 Z M 179.34375 242.214844 L 179.308594 242.308594 L 179.15625 242.167969 Z M 187.0625 257.816406 L 187.207031 257.425781 L 188.328125 257.671875 Z M 181.90625 291.402344 L 183.183594 288.832031 L 184.621094 291.882813 Z M 152.167969 428.398438 L 151.679688 428.398438 L 151.972656 428.246094 Z M 148.605469 428.398438 L 148.5 428.398438 L 148.539063 428.378906 Z M 147.011719 425.996094 L 146.070313 424.722656 L 144.492188 423.253906 L 142.664063 422.101563 L 144.414063 420.644531 L 145.773438 422.453125 L 148.292969 424.523438 L 149.859375 426.515625 L 147.785156 426.460938 Z M 142.683594 314.28125 L 142.707031 314.261719 L 144.414063 312.09375 L 148.292969 312.09375 L 145.988281 313.203125 L 143.980469 314.789063 L 142.367188 316.773438 L 141.183594 319.1875 L 140.574219 316.152344 L 142.300781 315.023438 Z M 122.148438 423.609375 L 124.136719 421.78125 L 125.167969 421.753906 L 125.464844 421.238281 L 125.214844 419.699219 L 125.996094 418.183594 L 128.085938 420.878906 L 130.867188 422.847656 L 128.976563 424.464844 L 128.496094 424.523438 L 126.828125 424.523438 L 122.949219 424.152344 Z M 236.835938 466.113281 L 235.136719 465.644531 L 236.523438 463.683594 L 237.195313 464.164063 L 237.5 465.839844 Z M 88.429688 500.046875 L 88.566406 499.308594 L 88.941406 499.117188 L 89.34375 499.789063 Z M 88.429688 500.046875 "/>
</g>
</svg>
