<?xml version="1.0" encoding="UTF-8"?>
<svg xmlns="http://www.w3.org/2000/svg" xmlns:xlink="http://www.w3.org/1999/xlink" width="378pt" height="504pt" viewBox="0 0 378 504" version="1.1">
<g id="data">
<rect x="0" y="0" width="378" height="504" style="fill:rgb(100%,100%,100%);fill-opacity:1;stroke:none;"/>
<path style=" stroke:none;fill-rule:nonzero;fill:rgb(100%,100%,100%);fill-opacity:1;" d="M 53.308594 504 L 324.691406 504 L 324.691406 0 L 53.308594 0 Z M 53.308594 504 "/>
<path style=" stroke:none;fill-rule:nonzero;fill:rgb(22.745098%,53.333333%,16.078431%);fill-opacity:1;" d="M 238.390625 346.136719 L 237.601563 344.613281 L 237.292969 342.925781 L 237.492188 341.21875 L 238.179688 339.648438 L 239.296875 338.34375 L 240.746094 337.421875 L 242.398438 336.964844 L 244.113281 337.007813 L 246.222656 337.378906 L 247.910156 337.953125 L 249.058594 338.800781 L 245.550781 339.511719 L 244.589844 338.644531 L 243.40625 338.558594 L 241.210938 339.871094 L 241.886719 340.445313 L 246.324219 340.394531 L 249.589844 339.351563 L 250.390625 340.457031 L 250.953125 342.152344 L 250.972656 343.933594 L 250.449219 345.640625 L 249.710938 347.167969 L 248.746094 348.582031 L 247.414063 349.65625 L 246.847656 349.882813 L 247.816406 350.1875 L 249.292969 351.234375 L 250.378906 352.683594 L 250.964844 354.398438 L 251.3125 356.398438 L 251.796875 357.542969 L 252.589844 358.640625 L 253.511719 359.441406 L 255.355469 360.3125 L 259.667969 361.113281 L 261.292969 361.148438 L 263.335938 360.691406 L 265.253906 360.589844 L 267.101563 361.117188 L 268.675781 362.21875 L 269.433594 363.265625 L 269.210938 365.21875 L 264.953125 369.09375 L 261.394531 373.164063 L 260.601563 374.816406 L 262.84375 374.3125 L 264.9375 375.519531 L 266.9375 378.226563 L 270.21875 378.804688 L 270.625 378.746094 L 271.910156 376.796875 L 272.234375 374.960938 L 273.40625 371.914063 L 274.707031 370.632813 L 277.851563 370.085938 L 283.34375 370.234375 L 284.253906 370.867188 L 286.703125 370.742188 L 290.101563 371.105469 L 290.398438 371.882813 L 291.011719 372.859375 L 292.105469 374.023438 L 293.042969 375.359375 L 294.457031 378.136719 L 295.667969 379.308594 L 298.167969 380.527344 L 299.65625 381.574219 L 300.75 383.023438 L 301.34375 384.746094 L 301.621094 386.316406 L 302.03125 387.390625 L 302.644531 388.367188 L 303.734375 389.53125 L 304.664063 390.847656 L 305.195313 392.363281 L 305.289063 393.96875 L 305.078125 396.625 L 305.484375 398.378906 L 303.519531 407.832031 L 297.144531 414.53125 L 295.578125 412.011719 L 292.742188 410.515625 L 292.480469 410.636719 L 293.898438 413.703125 L 295.890625 416.628906 L 296.3125 416.765625 L 296.164063 417.742188 L 294.574219 419.804688 L 292.191406 421.289063 L 290.003906 421.65625 L 289.660156 421.574219 L 288.214844 419.332031 L 284.976563 421.730469 L 280.71875 424.230469 L 282.339844 425.378906 L 285.105469 424.398438 L 286.097656 423.375 L 286.894531 423.164063 L 287.328125 423.710938 L 287.632813 428.84375 L 285.6875 430.875 L 283.441406 432.558594 L 282.84375 432.699219 L 279.644531 432.160156 L 274.75 433.78125 L 272.609375 436.117188 L 274.253906 436.015625 L 275.152344 434.667969 L 276.683594 434.363281 L 278.285156 434.328125 L 281.054688 434.949219 L 281.828125 435.589844 L 281.691406 436.328125 L 279.554688 436.347656 L 277.390625 437.65625 L 277.96875 438.546875 L 281.382813 438.964844 L 286.863281 440.339844 L 289.394531 439.9375 L 291.074219 438.957031 L 297.585938 438.058594 L 299.210938 439.335938 L 300.429688 440.648438 L 300.933594 441.714844 L 300.773438 446.324219 L 300.691406 446.597656 L 300.269531 447.394531 L 298.988281 448.644531 L 297.386719 449.445313 L 295.617188 449.722656 L 291.738281 449.722656 L 289.761719 449.378906 L 287.066406 448.402344 L 284.992188 448.371094 L 283.992188 448.632813 L 282.90625 449.179688 L 281.972656 449.925781 L 280.757813 451.4375 L 279.527344 452.578125 L 278.019531 453.316406 L 276.363281 453.597656 L 274.699219 453.394531 L 272.84375 452.886719 L 271.566406 452.828125 L 270.3125 453.054688 L 269.316406 453.472656 L 267.601563 454.871094 L 266.523438 456.703125 L 265.917969 459.484375 L 265.964844 460.300781 L 266.363281 461.871094 L 266.519531 463.773438 L 266.050781 465.625 L 265.941406 465.792969 L 259.269531 463.777344 L 256.070313 463.507813 L 252.6875 464.15625 L 252.238281 463.9375 L 251.34375 463.78125 L 250.179688 463.8125 L 249.148438 464.039063 L 247.550781 464.742188 L 245.605469 465.21875 L 243.613281 465.007813 L 241.8125 464.132813 L 240.332031 463.066406 L 239.222656 462.578125 L 238.050781 462.332031 L 236.875 462.347656 L 235.132813 462.832031 L 234.511719 463.234375 L 231.496094 463.171875 L 231.378906 463.496094 L 232.324219 464.554688 L 231.460938 464.960938 L 229.929688 465.226563 L 228.378906 465.078125 L 226.511719 464.640625 L 225.390625 464.621094 L 223.1875 465.097656 L 222.359375 465.214844 L 220.167969 465.371094 L 218.691406 465.863281 L 217.847656 466.375 L 217.066406 467.078125 L 216.429688 467.929688 L 210.222656 468.96875 L 208.164063 468.875 L 207.273438 468.058594 L 206.238281 469.769531 L 209.429688 471.089844 L 209.714844 470.9375 L 210.1875 472.128906 L 209.566406 473.890625 L 206.84375 474.453125 L 204.453125 473.097656 L 203.015625 472.699219 L 197.625 472.007813 L 196.175781 472.65625 L 195.679688 473.863281 L 195.832031 474.871094 L 196.757813 475.523438 L 196.488281 476.304688 L 195.917969 475.996094 L 194.851563 473.972656 L 190.289063 470.589844 L 189 469.980469 L 189 467.167969 L 189.089844 466.15625 L 189.578125 463.386719 L 189.078125 460.367188 L 189.050781 458.636719 L 189.28125 456.929688 L 189.226563 456.03125 L 188.441406 453.84375 L 186.496094 451.535156 L 185.554688 449.980469 L 185.136719 448.207031 L 185.292969 446.394531 L 185.996094 444.71875 L 187.183594 443.34375 L 188.722656 442.042969 L 189.519531 440.96875 L 190.042969 439.742188 L 190.394531 437.757813 L 190.96875 436.0625 L 192.039063 434.625 L 193.492188 433.578125 L 195.195313 433.023438 L 196.988281 433.015625 L 198.695313 433.550781 L 200.671875 434.527344 L 202.164063 434.835938 L 203.308594 434.804688 L 205.082031 434.378906 L 207.492188 434.308594 L 210.195313 434.804688 L 212.066406 434.546875 L 213.445313 433.910156 L 214.648438 432.882813 L 215.527344 431.566406 L 216.046875 429.960938 L 216.285156 426.636719 L 216.109375 424.0625 L 215.8125 422.699219 L 215.378906 421.742188 L 214.113281 420.21875 L 212.433594 419.179688 L 210.734375 418.757813 L 206.378906 418.707031 L 204.597656 418.40625 L 202.996094 417.574219 L 201.726563 416.289063 L 200.910156 414.675781 L 200.628906 412.890625 L 200.628906 405.136719 L 200.871094 403.484375 L 201.574219 401.964844 L 202.679688 400.707031 L 204.097656 399.820313 L 206.023438 398.96875 L 207.117188 398.121094 L 208.035156 396.949219 L 208.878906 395.035156 L 209.847656 393.527344 L 211.234375 392.382813 L 212.898438 391.714844 L 214.6875 391.589844 L 216.433594 392.015625 L 217.960938 392.949219 L 219.835938 394.542969 L 221.386719 395.234375 L 223.402344 395.558594 L 225.546875 395.453125 L 226.75 395.519531 L 230.054688 396.046875 L 235.015625 395.410156 L 236.214844 395.085938 L 237.628906 394.320313 L 238.785156 393.207031 L 239.585938 391.835938 L 239.996094 390.230469 L 239.992188 388.941406 L 239.554688 387.085938 L 239.398438 385.753906 L 239.398438 381.875 L 239.535156 380.625 L 240.15625 377.816406 L 240.0625 376.488281 L 239.527344 374.957031 L 238.613281 373.660156 L 237.378906 372.660156 L 235.171875 371.714844 L 233.605469 370.722656 L 232.429688 369.285156 L 231.765625 367.550781 L 231.683594 365.695313 L 232.191406 363.90625 L 233.238281 362.371094 L 234.714844 361.246094 L 237.0625 359.984375 L 238.292969 358.71875 L 239.078125 357.140625 L 239.488281 354.503906 L 240.039063 352.78125 L 241.097656 351.308594 L 242.558594 350.234375 L 242.785156 350.160156 L 242.449219 350.085938 L 240.949219 349.261719 L 239.757813 348.035156 Z M 181.359375 375.273438 L 181.285156 373.457031 L 181.773438 371.707031 L 182.777344 370.191406 L 184.199219 369.058594 L 185.902344 368.425781 L 187.71875 368.34375 L 189.46875 368.832031 L 191.277344 369.652344 L 192.820313 370.679688 L 193.960938 372.132813 L 194.585938 373.875 L 194.632813 375.726563 L 194.097656 377.496094 L 192.933594 379.878906 L 191.902344 381.355469 L 190.46875 382.445313 L 188.769531 383.046875 L 186.96875 383.097656 L 185.238281 382.59375 L 183.746094 381.582031 L 182.632813 380.167969 L 182.007813 378.476563 Z M 286.679688 439.636719 L 283.058594 438.976563 L 282.164063 437.605469 L 282.484375 436.070313 L 286.839844 437.054688 L 287.960938 438.832031 Z M 286.679688 439.636719 "/>
<path style=" stroke:none;fill-rule:nonzero;fill:rgb(80.392157%,58.431373%,4.705882%);fill-opacity:1;" d="M 208.382813 346.984375 L 208.101563 348.78125 L 207.273438 350.402344 L 205.988281 351.6875 L 204.367188 352.515625 L 202.570313 352.800781 L 200.773438 352.515625 L 199.152344 351.6875 L 197.863281 350.402344 L 197.039063 348.78125 L 196.753906 346.984375 L 197.039063 345.1875 L 197.863281 343.566406 L 199.152344 342.28125 L 200.773438 341.453125 L 202.570313 341.167969 L 204.367188 341.453125 L 205.988281 342.28125 L 207.273438 343.566406 L 208.101563 345.1875 Z M 208.382813 346.984375 "/>
<path style=" stroke:none;fill-rule:nonzero;fill:rgb(80.392157%,58.431373%,4.705882%);fill-opacity:1;" d="M 208.382813 370.246094 L 208.101563 372.042969 L 207.273438 373.664063 L 205.988281 374.949219 L 204.367188 375.777344 L 202.570313 376.0625 L 200.773438 375.777344 L 199.152344 374.949219 L 197.863281 373.664063 L 197.039063 372.042969 L 196.753906 370.246094 L 197.039063 368.449219 L 197.863281 366.828125 L 199.152344 365.542969 L 200.773438 364.714844 L 202.570313 364.429688 L 204.367188 364.714844 L 205.988281 365.542969 L 207.273438 366.828125 L 208.101563 368.449219 Z M 208.382813 370.246094 "/>
<path style=" stroke:none;fill-rule:nonzero;fill:rgb(80.392157%,58.431373%,4.705882%);fill-opacity:1;" d="M 227.769531 319.847656 L 227.484375 321.644531 L 226.660156 323.265625 L 225.371094 324.550781 L 223.75 325.375 L 221.953125 325.660156 L 220.15625 325.375 L 218.535156 324.550781 L 217.25 323.265625 L 216.421875 321.644531 L 216.136719 319.847656 L 216.421875 318.050781 L 217.25 316.429688 L 218.535156 315.140625 L 220.15625 314.316406 L 221.953125 314.03125 L 223.75 314.316406 L 225.371094 315.140625 L 226.660156 316.429688 L 227.484375 318.050781 Z M 227.769531 319.847656 "/>
<path style=" stroke:none;fill-rule:nonzero;fill:rgb(80.392157%,58.431373%,4.705882%);fill-opacity:1;" d="M 227.769531 335.355469 L 227.484375 337.152344 L 226.660156 338.773438 L 225.371094 340.058594 L 223.75 340.882813 L 221.953125 341.167969 L 220.15625 340.882813 L 218.535156 340.058594 L 217.25 338.773438 L 216.421875 337.152344 L 216.136719 335.355469 L 216.421875 333.558594 L 217.25 331.9375 L 218.535156 330.648438 L 220.15625 329.824219 L 221.953125 329.539063 L 223.75 329.824219 L 225.371094 330.648438 L 226.660156 331.9375 L 227.484375 333.558594 Z M 227.769531 335.355469 "/>
<path style=" stroke:none;fill-rule:nonzero;fill:rgb(80.392157%,58.431373%,4.705882%);fill-opacity:1;" d="M 204.507813 257.816406 L 204.222656 259.613281 L 203.398438 261.234375 L 202.109375 262.519531 L 200.488281 263.347656 L 198.691406 263.628906 L 196.894531 263.347656 L 195.273438 262.519531 L 193.988281 261.234375 L 193.160156 259.613281 L 192.875 257.816406 L 193.160156 256.019531 L 193.988281 254.398438 L 195.273438 253.109375 L 196.894531 252.285156 L 198.691406 252 L 200.488281 252.285156 L 202.109375 253.109375 L 203.398438 254.398438 L 204.222656 256.019531 Z M 204.507813 257.816406 "/>
<path style=" stroke:none;fill-rule:nonzero;fill:rgb(80.392157%,58.431373%,4.705882%);fill-opacity:1;" d="M 169.617188 362.492188 L 169.332031 364.289063 L 168.503906 365.910156 L 167.21875 367.195313 L 165.597656 368.023438 L 163.800781 368.308594 L 162.003906 368.023438 L 160.382813 367.195313 L 159.09375 365.910156 L 158.269531 364.289063 L 157.984375 362.492188 L 158.269531 360.695313 L 159.09375 359.074219 L 160.382813 357.789063 L 161.097656 357.421875 L 163.644531 357.28125 L 167 357.675781 L 167.21875 357.789063 L 168.503906 359.074219 L 169.332031 360.695313 Z M 169.617188 362.492188 "/>
<path style=" stroke:none;fill-rule:nonzero;fill:rgb(80.392157%,58.431373%,4.705882%);fill-opacity:1;" d="M 196.683594 424.960938 L 196.46875 426.320313 L 195.644531 427.941406 L 194.355469 429.226563 L 192.734375 430.054688 L 192.355469 430.113281 L 195.792969 425.3125 Z M 190.335938 430.242188 L 189.140625 430.054688 L 187.519531 429.226563 L 186.234375 427.941406 L 185.40625 426.320313 L 185.125 424.523438 L 185.40625 422.726563 L 186.234375 421.105469 L 187.519531 419.816406 L 189.140625 418.992188 L 190.9375 418.707031 L 192.734375 418.992188 L 194.355469 419.816406 L 195.644531 421.105469 L 196.46875 422.726563 L 196.660156 423.9375 L 196.09375 424.355469 L 192.90625 427.300781 L 190.570313 429.988281 Z M 190.335938 430.242188 "/>
<path style=" stroke:none;fill-rule:nonzero;fill:rgb(80.392157%,58.431373%,4.705882%);fill-opacity:1;" d="M 150.230469 420.644531 L 149.945313 422.441406 L 149.121094 424.0625 L 147.832031 425.351563 L 146.808594 425.875 L 143.210938 423.710938 L 139.535156 423.714844 L 138.882813 422.441406 L 138.601563 420.644531 L 138.882813 418.847656 L 139.710938 417.226563 L 140.996094 415.941406 L 142.617188 415.117188 L 144.414063 414.832031 L 146.210938 415.117188 L 147.832031 415.941406 L 149.121094 417.226563 L 149.945313 418.847656 Z M 150.230469 420.644531 "/>
<path style=" stroke:none;fill-rule:nonzero;fill:rgb(80.392157%,58.431373%,4.705882%);fill-opacity:1;" d="M 196.753906 428.398438 L 196.46875 430.195313 L 195.644531 431.816406 L 194.355469 433.105469 L 192.734375 433.929688 L 190.9375 434.214844 L 189.140625 433.929688 L 189.09375 433.90625 L 190.867188 432.195313 L 195.792969 425.3125 L 195.808594 425.304688 L 196.46875 426.601563 Z M 186.859375 432.441406 L 186.234375 431.816406 L 185.40625 430.195313 L 185.125 428.398438 L 185.40625 426.601563 L 186.234375 424.980469 L 187.519531 423.695313 L 189.140625 422.871094 L 190.9375 422.585938 L 192.734375 422.871094 L 194.355469 423.695313 L 195.535156 424.871094 L 192.90625 427.300781 L 190.570313 429.988281 L 189.222656 431.449219 Z M 186.859375 432.441406 "/>
<path style=" stroke:none;fill-rule:nonzero;fill:rgb(80.392157%,58.431373%,4.705882%);fill-opacity:1;" d="M 167.007813 476.753906 L 165.878906 476.578125 L 164.257813 475.75 L 162.972656 474.464844 L 162.144531 472.84375 L 161.863281 471.046875 L 162.144531 469.25 L 162.972656 467.628906 L 164.257813 466.339844 L 165.878906 465.515625 L 167.675781 465.230469 L 169.472656 465.515625 L 171.09375 466.339844 L 172.382813 467.628906 L 173.207031 469.25 L 173.457031 470.816406 L 168.992188 473.234375 L 168.214844 474.070313 L 167.203125 476.179688 Z M 167.007813 476.753906 "/>
<path style=" stroke:none;fill-rule:nonzero;fill:rgb(80.392157%,58.431373%,4.705882%);fill-opacity:1;" d="M 177.347656 447.921875 L 177.085938 449.582031 L 176.257813 451.203125 L 174.972656 452.488281 L 173.351563 453.316406 L 171.554688 453.601563 L 169.757813 453.316406 L 168.136719 452.488281 L 166.847656 451.203125 L 166.023438 449.582031 L 165.738281 447.785156 L 165.996094 446.167969 L 166.046875 446.148438 L 167.527344 446.515625 L 169.484375 447.285156 L 170.039063 448.109375 L 170.757813 448.421875 L 173.15625 448.464844 Z M 177.347656 447.921875 "/>
<path style=" stroke:none;fill-rule:nonzero;fill:rgb(80.392157%,58.431373%,4.705882%);fill-opacity:1;" d="M 191.269531 114.40625 L 190.480469 115.195313 L 189.15625 115.871094 L 186.777344 113.90625 L 184.832031 114.03125 L 183.105469 114.65625 L 182.355469 113.910156 L 181.53125 112.289063 L 181.246094 110.492188 L 181.53125 108.695313 L 182.355469 107.074219 L 183.644531 105.789063 L 183.820313 105.699219 L 184.519531 106.003906 L 186.230469 108.273438 L 187.324219 111.371094 L 189.425781 112.382813 L 190.734375 113.441406 Z M 191.269531 114.40625 "/>
<path style=" stroke:none;fill-rule:nonzero;fill:rgb(80.392157%,58.431373%,4.705882%);fill-opacity:1;" d="M 88.429688 500.046875 L 88.566406 499.308594 L 88.941406 499.117188 L 89.34375 499.789063 Z M 88.429688 500.046875 "/>
</g>
</svg>
