<?xml version="1.0" encoding="UTF-8"?>
<svg xmlns="http://www.w3.org/2000/svg" xmlns:xlink="http://www.w3.org/1999/xlink" width="378pt" height="504pt" viewBox="0 0 378 504" version="1.1">
<g id="data">
<rect x="0" y="0" width="378" height="504" style="fill:rgb(100%,100%,100%);fill-opacity:1;stroke:none;"/>
<path style=" stroke:none;fill-rule:nonzero;fill:rgb(100%,100%,100%);fill-opacity:1;" d="M 53.308594 504 L 324.691406 504 L 324.691406 0 L 53.308594 0 Z M 53.308594 504 "/>
<path style=" stroke:none;fill-rule:nonzero;fill:rgb(22.745098%,53.333333%,16.078431%);fill-opacity:1;" d="M 300.5625 375.515625 L 301.023438 376.113281 L 303.742188 378.34375 L 305.359375 380.292969 L 305.585938 380.753906 L 306.730469 384.164063 L 306.851563 386.0625 L 305.074219 387.460938 L 303.371094 389.628906 L 300.976563 390.859375 L 299.015625 392.507813 L 297.335938 394.769531 L 296.246094 397.371094 L 295.816406 400.15625 L 296.070313 402.960938 L 297.285156 406.195313 L 299.492188 409.015625 L 299.492188 412.0625 L 298.820313 412.769531 L 295.871094 412.230469 L 295.726563 412.253906 L 295.578125 412.011719 L 292.742188 410.515625 L 292.480469 410.636719 L 293.398438 412.625 L 291.738281 412.890625 L 287.546875 412.675781 L 284.476563 413.515625 L 281.644531 415.238281 L 279.613281 417.359375 L 278.265625 419.546875 L 277.402344 422.097656 L 277.148438 424.652344 L 277.867188 428.554688 L 278.8125 430.519531 L 280.074219 432.230469 L 279.644531 432.160156 L 274.75 433.78125 L 273.691406 434.933594 L 272.847656 434.917969 L 269.761719 435.75 L 266.914063 437.46875 L 264.601563 440.03125 L 262.136719 441.101563 L 259.890625 442.800781 L 257.917969 445.320313 L 256.625 448.390625 L 256.035156 451.671875 L 256.398438 454.988281 L 257.625 457.949219 L 259.703125 460.558594 L 262.554688 462.523438 L 266.070313 463.707031 L 269.242188 463.933594 L 272.355469 463.292969 L 270.183594 465 L 268.863281 466.679688 L 267.261719 466.195313 L 265.421875 464.71875 L 261.730469 463.417969 L 258.847656 463.128906 L 249.09375 463.292969 L 245.847656 462.519531 L 242.519531 462.699219 L 239.488281 463.761719 L 238.765625 464.277344 L 237.714844 463.296875 L 231.496094 463.171875 L 231.378906 463.496094 L 232.574219 464.835938 L 232.214844 465.75 L 231.738281 466.042969 L 226.691406 465.496094 L 219.566406 468.449219 L 217.054688 467.824219 L 210.222656 468.96875 L 208.164063 468.875 L 207.273438 468.058594 L 206.238281 469.769531 L 209.261719 471.019531 L 204.195313 470.886719 L 200.691406 471.355469 L 198.769531 472.152344 L 197.625 472.007813 L 196.175781 472.65625 L 195.679688 473.863281 L 195.726563 474.167969 L 195.1875 474.613281 L 194.851563 473.972656 L 192.636719 472.332031 L 192.558594 472.238281 L 191.542969 471.519531 L 190.289063 470.589844 L 190.101563 470.5 L 188.507813 469.375 L 185.230469 468.265625 L 184.46875 468.246094 L 183.121094 467.984375 L 182.828125 468.199219 L 181.773438 468.171875 L 177.859375 469.375 L 177.523438 469.609375 L 176.207031 469.78125 L 174.339844 470.335938 L 168.992188 473.234375 L 168.214844 474.070313 L 167.203125 476.179688 L 165.273438 481.828125 L 165.164063 481.964844 L 164.242188 484.1875 L 163.972656 485.636719 L 163.605469 486.707031 L 161.628906 488.261719 L 160.1875 490.097656 L 159.386719 489.941406 L 157.570313 488.285156 L 157.082031 488.042969 L 156.527344 486.851563 L 154.683594 485.4375 L 153.613281 485.542969 L 152.417969 486.300781 L 151.738281 486.164063 L 148.46875 482.535156 L 144.277344 482.847656 L 144.167969 482.773438 L 147.835938 482.160156 L 150.851563 480.734375 L 153.417969 478.414063 L 155.136719 475.554688 L 155.816406 473.347656 L 156.046875 471.046875 L 157.605469 468.847656 L 158.621094 466.347656 L 159 464.199219 L 158.957031 461.886719 L 158.238281 459.023438 L 156.898438 456.535156 L 154.902344 454.363281 L 152.417969 452.761719 L 155.371094 452.613281 L 158.304688 451.667969 L 160.886719 449.988281 L 162.9375 447.6875 L 163.519531 446.515625 L 164.597656 446.761719 L 166.046875 446.148438 L 167.527344 446.515625 L 169.484375 447.285156 L 170.039063 448.109375 L 170.757813 448.421875 L 173.15625 448.464844 L 180.570313 447.503906 L 181.109375 445.632813 L 181.210938 443.15625 L 182.519531 440.25 L 190.867188 432.195313 L 195.03125 426.371094 L 195.726563 429.035156 L 197.78125 432.28125 L 200.667969 434.617188 L 203.269531 435.710938 L 206.445313 436.152344 L 208.789063 437.183594 L 211.300781 437.671875 L 214.742188 437.445313 L 218.078125 436.152344 L 215.8125 438.042969 L 214.09375 440.445313 L 213.035156 443.199219 L 212.707031 446.128906 L 213.195313 449.296875 L 214.804688 453.074219 L 216.375 455.410156 L 218.351563 457.226563 L 220.695313 458.539063 L 223.148438 459.257813 L 227.582031 459.578125 L 230.34375 459.347656 L 232.589844 458.820313 L 234.6875 457.863281 L 236.554688 456.507813 L 238.191406 454.710938 L 239.3125 452.84375 L 240.066406 450.800781 L 240.421875 448.652344 L 240.375 446.472656 L 239.367188 442.910156 L 236.167969 437.539063 L 233.621094 434.855469 L 230.367188 433.109375 L 226.851563 432.476563 L 223.191406 432.972656 L 224.773438 430.839844 L 225.832031 428.398438 L 228 426.691406 L 229.707031 424.523438 L 231.804688 425.050781 L 233.96875 425.183594 L 240.511719 424.117188 L 244.003906 422.507813 L 246.78125 419.851563 L 247.972656 417.871094 L 248.71875 415.820313 L 249.246094 410.515625 L 248.410156 405.929688 L 247.476563 403.988281 L 246.203125 402.25 L 248.382813 403.773438 L 250.972656 404.796875 L 254.863281 405.425781 L 257.664063 405.28125 L 261.488281 403.886719 L 264.601563 401.261719 L 267.53125 401.054688 L 270.320313 400.121094 L 272.183594 398.996094 L 273.800781 397.542969 L 275.320313 395.484375 L 276.808594 392.363281 L 277.769531 388.398438 L 277.492188 385.085938 L 276.230469 381.875 L 275.917969 379.199219 L 275.050781 376.785156 L 273.261719 374.125 L 272.726563 373.675781 L 273.40625 371.914063 L 274.402344 370.929688 L 275.273438 371.34375 L 277.554688 371.71875 L 279.734375 371.648438 L 281.867188 371.175781 L 283.601563 370.414063 L 284.253906 370.867188 L 284.476563 370.855469 L 285.597656 372.246094 L 287.609375 373.839844 L 289.921875 374.957031 L 292.421875 375.539063 L 296.007813 375.40625 L 298.941406 374.328125 Z M 280.652344 434.859375 L 280.710938 435.136719 L 281.300781 436.332031 L 279.859375 436.34375 L 279.230469 435.929688 L 276.175781 434.980469 L 274.957031 434.960938 L 275.152344 434.667969 L 276.683594 434.363281 L 278.285156 434.328125 Z M 237.394531 465.25 L 236.773438 465.695313 L 236.511719 466.023438 L 235.136719 465.644531 L 236.523438 463.683594 L 237.195313 464.164063 Z M 234.105469 469.808594 L 233.949219 470.179688 L 232.75 471.703125 L 231.414063 472.753906 L 230.398438 474.046875 L 229.960938 474.269531 L 228.117188 474.644531 L 222.296875 470.886719 L 221.601563 470.984375 L 221.539063 470.941406 L 220.6875 470.613281 L 221.476563 469.683594 L 227.316406 466.367188 L 232.550781 467.761719 Z M 209.75 471.03125 L 209.546875 471.027344 L 209.714844 470.9375 Z M 164.125 436.296875 L 165.917969 437.082031 L 168.046875 437.558594 L 170.230469 437.625 L 172.386719 437.285156 L 174.441406 436.546875 L 176.324219 435.441406 L 177.964844 434 L 179.308594 432.277344 L 182.234375 431.902344 L 185.085938 430.738281 L 187.441406 428.960938 L 189.335938 426.535156 L 190.53125 423.699219 L 190.9375 420.644531 L 194.816406 420.644531 L 194.882813 425.476563 L 192.90625 427.300781 L 190.570313 429.988281 L 189.222656 431.449219 L 185.628906 432.957031 L 183.714844 433.246094 L 182.441406 433.0625 L 178.394531 435.230469 L 177.398438 436.808594 L 177.039063 438.671875 L 176.445313 439.273438 L 174.058594 439.917969 L 170.558594 439.851563 L 166.820313 439 L 166.347656 438.652344 Z M 263.871094 370.332031 L 262.425781 370.460938 L 260.210938 371.117188 L 258.167969 372.195313 L 256.472656 373.570313 L 254.988281 375.339844 L 253.882813 377.371094 L 253.199219 379.578125 L 252.96875 381.875 L 250.226563 378.789063 L 247.34375 376.699219 L 245.023438 375.617188 L 242.902344 375.117188 L 240.601563 375.03125 L 238.324219 375.394531 L 236.164063 376.207031 L 234.007813 377.582031 L 232.203125 379.398438 L 230.839844 381.566406 L 229.953125 384.105469 L 229.550781 387.378906 L 229.78125 391.78125 L 230.421875 394.363281 L 231.625 396.730469 L 228.410156 398.488281 L 225.832031 401.261719 L 223.351563 400.585938 L 220.785156 400.46875 L 218.132813 400.953125 L 215.777344 401.972656 L 213.988281 403.230469 L 212.386719 404.902344 L 211.148438 406.855469 L 210.324219 409.015625 L 208.027344 408.453125 L 205.542969 408.378906 L 204.664063 404.566406 L 202.570313 401.261719 L 204.804688 399.328125 L 206.417969 397.011719 L 207.425781 394.375 L 207.769531 391.570313 L 207.394531 388.640625 L 206.359375 386.011719 L 204.714844 383.714844 L 202.570313 381.875 L 205.429688 383.019531 L 208.484375 383.371094 L 211.527344 382.90625 L 214.34375 381.660156 L 216.375 380.089844 L 218.078125 378 L 220.78125 376.558594 L 223.015625 374.457031 L 224.824219 371.375 L 225.617188 367.765625 L 227.316406 369.082031 L 229.234375 370.066406 L 231.320313 370.691406 L 233.492188 370.917969 L 235.671875 370.734375 L 237.773438 370.144531 L 239.730469 369.171875 L 241.472656 367.851563 L 243.234375 365.808594 L 244.476563 363.414063 L 245.136719 360.800781 L 245.234375 357.855469 L 244.96875 355.460938 L 244.210938 353.175781 L 243.003906 351.09375 L 241.390625 349.304688 L 244.421875 347.6875 L 246.773438 345.359375 L 248.375 342.460938 L 249.023438 339.535156 L 249.335938 339.433594 L 251.707031 341.425781 L 254.375 342.546875 L 254.382813 342.558594 L 260.351563 347.46875 L 259.558594 348.515625 L 258.339844 351.054688 L 257.769531 353.808594 L 257.902344 356.75 L 258.816406 359.679688 L 260.46875 362.269531 L 262.742188 364.335938 L 265.472656 365.734375 L 268.046875 366.277344 L 264.953125 369.09375 Z M 263.117188 343.480469 L 263.511719 343.382813 L 263.625 343.902344 L 263.0625 344.355469 L 263.28125 343.65625 Z M 285.488281 458.160156 L 285.957031 457.765625 L 287.582031 455.617188 L 288.671875 453.148438 L 289.160156 450.496094 L 289.046875 447.929688 L 288.324219 445.332031 L 287.097656 443.074219 L 285.308594 441.054688 L 288.183594 442.4375 L 291.453125 442.988281 L 294.746094 442.597656 L 297.792969 441.292969 L 294.300781 445.28125 L 293.101563 447.070313 L 292.183594 449.296875 L 291.738281 451.660156 L 290.039063 453.539063 L 288.734375 455.855469 L 288.195313 458.046875 L 286.253906 458.289063 Z M 221.953125 315.96875 L 225.832031 315.96875 L 224.765625 318.433594 L 224.292969 321.078125 L 224.597656 324.515625 L 225.832031 327.601563 L 225.832031 331.476563 L 224.550781 334.964844 L 224.433594 338.675781 L 224.996094 341.050781 L 226.113281 343.363281 L 227.710938 345.371094 L 229.707031 346.984375 L 227.53125 348.011719 L 225.617188 349.464844 L 225.292969 347.316406 L 224.515625 345.148438 L 223.40625 343.277344 L 221.96875 341.648438 L 220.25 340.3125 L 218.316406 339.324219 L 216.105469 338.644531 L 213.804688 338.414063 L 210.132813 339 L 206.734375 340.796875 L 204.179688 343.496094 L 202.570313 346.984375 L 198.691406 346.984375 L 196.984375 344.816406 L 194.816406 343.109375 L 192.785156 339.527344 L 194.816406 339.230469 L 197.039063 339.777344 L 199.328125 339.878906 L 204.8125 338.824219 L 207.378906 337.742188 L 210.324219 335.355469 L 212.597656 334.46875 L 214.539063 333.207031 L 217.03125 330.449219 L 218.523438 327.046875 L 218.867188 323.347656 L 218.078125 319.847656 L 220.246094 318.140625 Z M 148.792969 357.199219 L 151.433594 357.675781 L 153.988281 357.558594 L 155.105469 357.210938 L 154.066406 358.859375 L 151.304688 360.613281 L 150.84375 359.613281 Z M 161.480469 357.402344 L 160.183594 360.0625 L 159.617188 363.199219 L 159.921875 366.371094 L 158.351563 364.894531 L 156.421875 363.679688 L 154.289063 362.867188 L 152.167969 362.492188 L 151.378906 360.773438 L 151.550781 360.582031 L 153.09375 359.609375 L 154.941406 359.808594 L 160.492188 357.457031 Z M 152.167969 428.398438 L 151.679688 428.398438 L 151.96875 428.25 Z M 148.605469 428.398438 L 148.5 428.398438 L 148.539063 428.378906 Z M 147.898438 426.464844 L 147.742188 425.691406 L 146.632813 423.296875 L 148.292969 424.523438 L 149.933594 426.519531 Z M 142.683594 314.28125 L 142.707031 314.261719 L 144.414063 312.09375 L 148.292969 312.09375 L 145.988281 313.203125 L 143.886719 314.878906 L 142.296875 316.882813 L 141.183594 319.1875 L 140.574219 316.152344 L 142.300781 315.023438 Z M 120.710938 497.632813 L 119.265625 495.839844 L 114.984375 492.316406 L 112.371094 491.03125 L 109.523438 490.429688 L 113.695313 489.90625 L 117.410156 487.929688 L 119.617188 485.621094 L 120.542969 483.84375 L 121.425781 483.085938 L 122.230469 482.179688 L 124.058594 481.335938 L 126.484375 479.257813 L 127.960938 477.164063 L 128.90625 474.921875 L 129.730469 477.078125 L 130.964844 479.027344 L 132.65625 480.777344 L 134.5625 482.074219 L 132.625 483.003906 L 130.800781 484.355469 L 128.90625 486.554688 L 126.5625 488.441406 L 124.992188 490.292969 L 124.039063 490.597656 L 123.746094 491.785156 L 121.976563 494.742188 L 121.335938 497.417969 Z M 88.429688 500.046875 L 88.566406 499.308594 L 88.941406 499.117188 L 89.34375 499.789063 Z M 88.429688 500.046875 "/>
<path style=" stroke:none;fill-rule:nonzero;fill:rgb(80.392157%,58.431373%,4.705882%);fill-opacity:1;" d="M 227.769531 358.617188 L 227.484375 360.414063 L 226.660156 362.035156 L 225.371094 363.320313 L 223.75 364.144531 L 221.953125 364.429688 L 220.15625 364.144531 L 218.535156 363.320313 L 217.25 362.035156 L 216.421875 360.414063 L 216.136719 358.617188 L 216.421875 356.816406 L 217.25 355.195313 L 218.535156 353.910156 L 220.15625 353.085938 L 221.953125 352.800781 L 223.75 353.085938 L 225.371094 353.910156 L 226.660156 355.195313 L 227.484375 356.816406 Z M 227.769531 358.617188 "/>
<path style=" stroke:none;fill-rule:nonzero;fill:rgb(80.392157%,58.431373%,4.705882%);fill-opacity:1;" d="M 196.753906 257.816406 L 196.46875 259.613281 L 195.644531 261.234375 L 194.355469 262.519531 L 192.734375 263.347656 L 190.9375 263.628906 L 189.140625 263.347656 L 187.519531 262.519531 L 186.234375 261.234375 L 185.40625 259.613281 L 185.125 257.816406 L 185.40625 256.019531 L 186.234375 254.398438 L 187.519531 253.109375 L 189.140625 252.285156 L 190.9375 252 L 192.734375 252.285156 L 194.355469 253.109375 L 195.644531 254.398438 L 196.46875 256.019531 Z M 196.753906 257.816406 "/>
<path style=" stroke:none;fill-rule:nonzero;fill:rgb(80.392157%,58.431373%,4.705882%);fill-opacity:1;" d="M 189 288.832031 L 188.714844 290.628906 L 187.890625 292.25 L 186.601563 293.535156 L 184.980469 294.363281 L 183.183594 294.644531 L 181.386719 294.363281 L 179.765625 293.535156 L 178.480469 292.25 L 177.652344 290.628906 L 177.371094 288.832031 L 177.652344 287.035156 L 178.128906 286.097656 L 178.757813 285.980469 L 180.191406 286.804688 L 182.933594 286.238281 L 183.03125 285.160156 L 182.34375 284.746094 L 180.035156 285.351563 L 178.636719 285.257813 L 179.765625 284.125 L 181.386719 283.300781 L 183.183594 283.015625 L 184.980469 283.300781 L 186.601563 284.125 L 187.890625 285.414063 L 188.714844 287.035156 Z M 189 288.832031 "/>
<path style=" stroke:none;fill-rule:nonzero;fill:rgb(80.392157%,58.431373%,4.705882%);fill-opacity:1;" d="M 177.371094 172.523438 L 177.085938 174.320313 L 176.257813 175.941406 L 174.972656 177.226563 L 173.351563 178.054688 L 171.554688 178.339844 L 169.757813 178.054688 L 168.136719 177.226563 L 166.847656 175.941406 L 166.023438 174.320313 L 165.738281 172.523438 L 165.976563 171.027344 L 170.480469 169.527344 L 170.492188 169.949219 L 171.554688 169.839844 L 173.589844 168.316406 L 173.902344 167.273438 L 174.972656 167.816406 L 176.257813 169.105469 L 177.085938 170.726563 Z M 177.371094 172.523438 "/>
<path style=" stroke:none;fill-rule:nonzero;fill:rgb(80.392157%,58.431373%,4.705882%);fill-opacity:1;" d="M 161.863281 389.628906 L 161.578125 391.429688 L 160.75 393.050781 L 159.464844 394.335938 L 157.84375 395.160156 L 156.046875 395.445313 L 153.429688 394.742188 L 154.199219 391.746094 L 153.734375 388.820313 L 152.566406 386.542969 L 153.160156 384.652344 L 154.25 384.101563 L 156.046875 383.816406 L 157.84375 384.101563 L 159.464844 384.925781 L 160.75 386.210938 L 161.578125 387.832031 Z M 161.863281 389.628906 "/>
<path style=" stroke:none;fill-rule:nonzero;fill:rgb(80.392157%,58.431373%,4.705882%);fill-opacity:1;" d="M 185.125 242.308594 L 184.839844 244.105469 L 184.011719 245.726563 L 182.726563 247.011719 L 181.105469 247.839844 L 179.308594 248.125 L 177.511719 247.839844 L 175.890625 247.011719 L 174.601563 245.726563 L 173.777344 244.105469 L 173.492188 242.308594 L 173.679688 241.125 L 178.0625 241.875 L 182.921875 243.167969 Z M 174.125 239.832031 L 174.601563 238.890625 L 175.890625 237.601563 L 177.511719 236.777344 L 179.308594 236.492188 L 180.691406 236.710938 L 180.578125 237.003906 L 174.761719 240.109375 Z M 174.125 239.832031 "/>
<path style=" stroke:none;fill-rule:nonzero;fill:rgb(80.392157%,58.431373%,4.705882%);fill-opacity:1;" d="M 189 335.355469 L 188.714844 337.152344 L 187.890625 338.773438 L 186.601563 340.058594 L 184.980469 340.882813 L 182.886719 341.121094 L 183.371094 340.257813 L 185.429688 339.015625 L 185.140625 338.578125 L 182.683594 338.460938 L 181.554688 337.164063 L 181.355469 336.117188 L 181.601563 331.078125 L 181.949219 330.421875 L 183.730469 329.625 L 184.980469 329.824219 L 186.601563 330.648438 L 187.890625 331.9375 L 188.714844 333.558594 Z M 189 335.355469 "/>
<path style=" stroke:none;fill-rule:nonzero;fill:rgb(80.392157%,58.431373%,4.705882%);fill-opacity:1;" d="M 195.683594 240.230469 L 193.019531 240.085938 L 191.398438 239.257813 L 190.386719 238.25 L 193.183594 238.5 Z M 189.285156 232.753906 L 190.109375 231.136719 L 191.398438 229.847656 L 193.019531 229.023438 L 194.445313 228.796875 L 194.429688 229.304688 L 192.117188 231.570313 Z M 189.285156 232.753906 "/>
</g>
</svg>
