<?xml version="1.0" encoding="UTF-8"?>
<svg xmlns="http://www.w3.org/2000/svg" xmlns:xlink="http://www.w3.org/1999/xlink" width="378pt" height="504pt" viewBox="0 0 378 504" version="1.1">
<g id="data">
<rect x="0" y="0" width="378" height="504" style="fill:rgb(100%,100%,100%);fill-opacity:1;stroke:none;"/>
<path style=" stroke:none;fill-rule:nonzero;fill:rgb(100%,100%,100%);fill-opacity:1;" d="M 53.308594 504 L 324.691406 504 L 324.691406 0 L 53.308594 0 Z M 53.308594 504 "/>
<path style=" stroke:none;fill-rule:nonzero;fill:rgb(22.745098%,53.333333%,16.078431%);fill-opacity:1;" d="M 259.367188 398.726563 L 260.410156 397.230469 L 261.863281 396.128906 L 263.589844 395.535156 L 265.164063 395.257813 L 266.238281 394.847656 L 267.210938 394.234375 L 268.378906 393.140625 L 270.214844 391.976563 L 272.355469 391.570313 L 276.230469 391.570313 L 278.316406 391.957031 L 280.125 393.066406 L 281.964844 394.726563 L 283.472656 395.449219 L 284.917969 395.703125 L 287.304688 395.472656 L 289.363281 395.644531 L 291.230469 396.519531 L 292.871094 397.6875 L 294.121094 398.195313 L 295.347656 398.394531 L 296.546875 398.3125 L 298.464844 397.621094 L 299.933594 396.433594 L 300.949219 394.820313 L 301.59375 392.148438 L 302.359375 390.359375 L 303.671875 388.921875 L 305.382813 388 L 306.960938 387.746094 L 307.179688 391.25 L 306.777344 393.191406 L 306.890625 393.976563 L 305.789063 396.917969 L 303.519531 407.832031 L 297.144531 414.53125 L 295.578125 412.011719 L 292.742188 410.515625 L 292.480469 410.636719 L 293.898438 413.703125 L 295.890625 416.628906 L 296.3125 416.765625 L 296.164063 417.742188 L 294.574219 419.804688 L 292.191406 421.289063 L 290.003906 421.65625 L 289.660156 421.574219 L 288.214844 419.332031 L 287.25 420.046875 L 287.042969 419.523438 L 286.957031 417.628906 L 287.316406 414.628906 L 286.808594 412.546875 L 285.769531 410.957031 L 282.84375 408.390625 L 280.921875 407.347656 L 276.039063 406.066406 L 274.292969 406.058594 L 272.636719 406.539063 L 271.546875 407.195313 L 270.65625 408.058594 L 269.910156 409.207031 L 269.550781 410.191406 L 269.417969 412.539063 L 270.179688 415.132813 L 270.40625 416.472656 L 270.503906 418.375 L 270.96875 420.09375 L 271.164063 421.855469 L 271.058594 422.378906 L 271.601563 422.296875 L 273.363281 422.574219 L 275 423.101563 L 275.847656 423.207031 L 280 422.652344 L 281.808594 422.695313 L 282.761719 423.03125 L 280.71875 424.230469 L 282.339844 425.378906 L 284.992188 424.4375 L 285.992188 425.863281 L 286.523438 427.589844 L 286.5 429.398438 L 286.367188 430.164063 L 285.6875 430.875 L 283.441406 432.558594 L 282.84375 432.699219 L 279.644531 432.160156 L 274.75 433.78125 L 272.609375 436.117188 L 274.253906 436.015625 L 275.152344 434.667969 L 276.683594 434.363281 L 278.285156 434.328125 L 281.054688 434.949219 L 281.828125 435.589844 L 281.691406 436.328125 L 279.554688 436.347656 L 277.390625 437.65625 L 277.671875 438.09375 L 272.355469 438.09375 L 270.660156 437.839844 L 269.109375 437.105469 L 267.84375 435.949219 L 266.96875 434.472656 L 266.5625 432.808594 L 266.417969 431.222656 L 265.984375 429.6875 L 265.769531 427.917969 L 265.878906 427.339844 L 265.34375 427.421875 L 263.59375 427.152344 L 261.898438 426.613281 L 260.128906 426.429688 L 258.480469 426.011719 L 257.027344 425.132813 L 255.886719 423.875 L 255.160156 422.335938 L 254.90625 420.65625 L 255.152344 418.972656 L 255.925781 416.40625 L 255.90625 414.722656 L 255.390625 413.101563 L 253.933594 410.988281 L 253.125 409.28125 L 252.910156 407.40625 L 253.304688 405.558594 L 254.273438 403.9375 L 255.707031 402.710938 L 257.1875 401.8125 L 257.964844 401.109375 L 258.667969 400.171875 Z M 284.097656 436.433594 L 283.859375 436.722656 L 282.210938 437.675781 L 282.164063 437.605469 L 282.484375 436.070313 Z M 226.292969 431.449219 L 227.628906 430.722656 L 229.109375 430.371094 L 231.859375 430.085938 L 233.523438 429.335938 L 234.859375 428.113281 L 236.246094 425.59375 L 237.316406 424.199219 L 238.757813 423.1875 L 240.433594 422.65625 L 242.195313 422.648438 L 243.875 423.167969 L 245.324219 424.167969 L 246.410156 425.554688 L 247.027344 427.199219 L 247.128906 428.957031 L 246.898438 431.328125 L 247.179688 432.882813 L 247.863281 434.285156 L 249.535156 436.136719 L 250.644531 437.945313 L 251.03125 440.03125 L 251.03125 447.785156 L 250.679688 449.773438 L 249.671875 451.523438 L 248.121094 452.820313 L 246.226563 453.511719 L 244.652344 453.789063 L 243.578125 454.199219 L 242.601563 454.8125 L 241.4375 455.90625 L 239.886719 456.949219 L 238.082031 457.445313 L 236.21875 457.34375 L 234.480469 456.652344 L 233.050781 455.449219 L 232.074219 453.855469 L 231.65625 452.03125 L 231.523438 449.941406 L 231.0625 448.515625 L 230.324219 447.34375 L 229.324219 446.382813 L 228.023438 445.644531 L 226.6875 445.277344 L 225.285156 445.246094 L 223.222656 445.707031 L 221.476563 445.828125 L 219.777344 445.421875 L 218.273438 444.53125 L 217.101563 443.234375 L 216.367188 441.648438 L 216.140625 439.914063 L 216.4375 438.191406 L 216.582031 437.757813 L 217.597656 435.914063 L 219.207031 434.554688 L 221.191406 433.855469 L 222.871094 433.589844 L 223.84375 433.222656 Z M 210.207031 378.148438 L 209.378906 376.414063 L 209.164063 374.503906 L 209.582031 372.625 L 210.585938 370.988281 L 211.957031 369.421875 L 212.914063 367.574219 L 213.964844 366.132813 L 215.402344 365.082031 L 217.09375 364.515625 L 218.875 364.484375 L 220.582031 364.996094 L 222.054688 366.003906 L 223.21875 367.09375 L 224.191406 367.707031 L 225.265625 368.117188 L 226.839844 368.394531 L 228.523438 368.96875 L 229.957031 370.023438 L 231 371.460938 L 231.5625 373.148438 L 231.589844 374.925781 L 231.078125 376.628906 L 230.074219 378.097656 L 228.984375 379.265625 L 228.371094 380.238281 L 227.957031 381.3125 L 227.679688 382.886719 L 227.023438 384.722656 L 225.796875 386.242188 L 223.421875 388.332031 L 221.78125 389.351563 L 219.894531 389.777344 L 217.972656 389.558594 L 216.226563 388.722656 L 214.855469 387.359375 L 213.351563 385.269531 L 212.351563 382.886719 L 212.054688 381.203125 L 211.6875 380.265625 Z M 185.125 424.523438 L 185.125 424.5 L 185.140625 419.964844 L 185.390625 418.304688 L 186.101563 416.789063 L 187.214844 415.535156 L 188.640625 414.652344 L 190.257813 414.214844 L 191.9375 414.253906 L 195.792969 414.914063 L 198.21875 415.929688 L 199.75 417.035156 L 200.757813 417.46875 L 203.316406 417.816406 L 205.070313 417.226563 L 206.90625 416.050781 L 208.464844 415.351563 L 208.972656 415.285156 L 208.523438 414.164063 L 208.410156 412.335938 L 208.640625 409.964844 L 208.363281 408.425781 L 207.621094 406.929688 L 206.027344 405.179688 L 205.046875 403.707031 L 204.554688 402.003906 L 204.597656 400.234375 L 205.175781 398.558594 L 206.226563 397.132813 L 207.660156 396.089844 L 209.339844 395.53125 L 210.929688 395.257813 L 212.015625 394.84375 L 212.988281 394.234375 L 214.238281 393.046875 L 215.875 391.953125 L 217.78125 391.46875 L 219.742188 391.644531 L 221.527344 392.46875 L 222.941406 393.839844 L 224.152344 395.5 L 225.71875 396.828125 L 227.039063 398.441406 L 227.707031 400.414063 L 228.078125 402.921875 L 229.15625 405.21875 L 229.664063 406.964844 L 229.605469 408.78125 L 228.988281 410.492188 L 227.871094 411.929688 L 226.367188 412.953125 L 224.621094 413.460938 L 222.4375 413.738281 L 221.175781 414.230469 L 219.972656 415.085938 L 218.625 416.664063 L 217.230469 417.855469 L 215.535156 418.550781 L 215.308594 418.570313 L 215.457031 418.828125 L 215.839844 420.492188 L 216.121094 424.066406 L 215.957031 425.964844 L 215.1875 427.710938 L 213.894531 429.113281 L 212.21875 430.019531 L 210.335938 430.339844 L 208.453125 430.03125 L 206.507813 429.371094 L 204.636719 429.199219 L 202.664063 429.90625 L 201.320313 430.871094 L 200.3125 432.164063 L 199.402344 434.464844 L 198.472656 436.039063 L 197.097656 437.246094 L 195.414063 437.96875 L 193.59375 438.128906 L 191.808594 437.71875 L 190.242188 436.769531 L 189.046875 435.386719 L 188.492188 434.484375 L 190.867188 432.195313 L 195.792969 425.3125 L 197.929688 424.472656 L 198.285156 423.78125 L 198.070313 423.238281 L 197.8125 423.082031 L 196.09375 424.355469 L 192.90625 427.300781 L 190.570313 429.988281 L 189.222656 431.449219 L 186.785156 432.472656 L 186.757813 432.445313 L 185.546875 430.582031 L 185.125 428.398438 Z M 151.117188 469.144531 L 149.222656 469.101563 L 147.441406 468.453125 L 145.964844 467.265625 L 144.949219 465.667969 L 144.5 463.828125 L 144.664063 461.9375 L 145.429688 460.207031 L 146.523438 458.53125 L 147.207031 456.652344 L 148.136719 455 L 149.546875 453.734375 L 151.289063 452.988281 L 153.175781 452.84375 L 155.011719 453.3125 L 156.597656 454.347656 L 157.769531 455.835938 L 158.8125 457.738281 L 160.292969 459.320313 L 161.289063 460.773438 L 161.800781 462.457031 L 161.789063 464.21875 L 161.246094 465.894531 L 160.230469 467.332031 L 158.832031 468.398438 L 157.175781 468.996094 L 155.417969 469.074219 L 153.261719 468.839844 Z M 151.117188 469.144531 "/>
<path style=" stroke:none;fill-rule:nonzero;fill:rgb(80.392157%,58.431373%,4.705882%);fill-opacity:1;" d="M 251.03125 370.246094 L 250.746094 372.042969 L 249.921875 373.664063 L 248.632813 374.949219 L 247.011719 375.777344 L 245.214844 376.0625 L 243.417969 375.777344 L 241.796875 374.949219 L 240.511719 373.664063 L 239.683594 372.042969 L 239.398438 370.246094 L 239.683594 368.449219 L 240.511719 366.828125 L 241.796875 365.542969 L 243.417969 364.714844 L 245.214844 364.429688 L 247.011719 364.714844 L 248.632813 365.542969 L 249.921875 366.828125 L 250.746094 368.449219 Z M 251.03125 370.246094 "/>
<path style=" stroke:none;fill-rule:nonzero;fill:rgb(80.392157%,58.431373%,4.705882%);fill-opacity:1;" d="M 204.507813 346.984375 L 204.222656 348.78125 L 203.398438 350.402344 L 202.109375 351.6875 L 200.488281 352.515625 L 198.691406 352.800781 L 196.894531 352.515625 L 195.273438 351.6875 L 193.988281 350.402344 L 193.160156 348.78125 L 192.875 346.984375 L 193.160156 345.1875 L 193.988281 343.566406 L 195.273438 342.28125 L 196.894531 341.453125 L 198.691406 341.167969 L 200.488281 341.453125 L 202.109375 342.28125 L 203.398438 343.566406 L 204.222656 345.1875 Z M 204.507813 346.984375 "/>
<path style=" stroke:none;fill-rule:nonzero;fill:rgb(80.392157%,58.431373%,4.705882%);fill-opacity:1;" d="M 223.890625 339.230469 L 223.609375 341.027344 L 222.78125 342.648438 L 221.496094 343.933594 L 219.875 344.761719 L 218.078125 345.046875 L 216.28125 344.761719 L 214.660156 343.933594 L 213.371094 342.648438 L 212.546875 341.027344 L 212.261719 339.230469 L 212.546875 337.433594 L 213.371094 335.8125 L 214.660156 334.527344 L 216.28125 333.699219 L 218.078125 333.414063 L 219.875 333.699219 L 221.496094 334.527344 L 222.78125 335.8125 L 223.609375 337.433594 Z M 223.890625 339.230469 "/>
<path style=" stroke:none;fill-rule:nonzero;fill:rgb(80.392157%,58.431373%,4.705882%);fill-opacity:1;" d="M 204.507813 374.125 L 204.222656 375.921875 L 203.398438 377.542969 L 202.109375 378.828125 L 200.488281 379.652344 L 198.691406 379.9375 L 196.894531 379.652344 L 195.273438 378.828125 L 193.988281 377.542969 L 193.160156 375.921875 L 192.875 374.125 L 193.160156 372.324219 L 193.988281 370.703125 L 195.273438 369.417969 L 196.894531 368.59375 L 198.691406 368.308594 L 200.488281 368.59375 L 202.109375 369.417969 L 203.398438 370.703125 L 204.222656 372.324219 Z M 204.507813 374.125 "/>
<path style=" stroke:none;fill-rule:nonzero;fill:rgb(80.392157%,58.431373%,4.705882%);fill-opacity:1;" d="M 251.03125 405.136719 L 250.746094 406.933594 L 249.921875 408.558594 L 248.632813 409.84375 L 247.011719 410.667969 L 245.214844 410.953125 L 243.417969 410.667969 L 241.796875 409.84375 L 240.511719 408.558594 L 239.683594 406.933594 L 239.398438 405.136719 L 239.683594 403.339844 L 240.511719 401.71875 L 241.796875 400.433594 L 243.417969 399.609375 L 245.214844 399.324219 L 247.011719 399.609375 L 248.632813 400.433594 L 249.921875 401.71875 L 250.746094 403.339844 Z M 251.03125 405.136719 "/>
<path style=" stroke:none;fill-rule:nonzero;fill:rgb(80.392157%,58.431373%,4.705882%);fill-opacity:1;" d="M 189 409.015625 L 188.714844 410.8125 L 187.890625 412.433594 L 186.601563 413.71875 L 184.980469 414.546875 L 183.183594 414.832031 L 181.386719 414.546875 L 179.765625 413.71875 L 178.480469 412.433594 L 177.652344 410.8125 L 177.371094 409.015625 L 177.652344 407.21875 L 178.480469 405.597656 L 179.765625 404.3125 L 181.386719 403.484375 L 183.183594 403.199219 L 184.980469 403.484375 L 186.601563 404.3125 L 187.890625 405.597656 L 188.714844 407.21875 Z M 189 409.015625 "/>
<path style=" stroke:none;fill-rule:nonzero;fill:rgb(80.392157%,58.431373%,4.705882%);fill-opacity:1;" d="M 185.125 455.539063 L 184.839844 457.335938 L 184.011719 458.957031 L 182.726563 460.242188 L 181.105469 461.070313 L 179.308594 461.355469 L 177.511719 461.070313 L 175.890625 460.242188 L 174.601563 458.957031 L 173.777344 457.335938 L 173.492188 455.539063 L 173.777344 453.742188 L 174.601563 452.121094 L 175.890625 450.832031 L 177.511719 450.007813 L 179.308594 449.722656 L 181.105469 450.007813 L 182.726563 450.832031 L 184.011719 452.121094 L 184.839844 453.742188 Z M 185.125 455.539063 "/>
<path style=" stroke:none;fill-rule:nonzero;fill:rgb(80.392157%,58.431373%,4.705882%);fill-opacity:1;" d="M 196.753906 296.585938 L 196.46875 298.382813 L 195.644531 300.003906 L 194.355469 301.289063 L 192.734375 302.117188 L 190.9375 302.398438 L 189.140625 302.117188 L 187.519531 301.289063 L 186.234375 300.003906 L 185.40625 298.382813 L 185.125 296.585938 L 185.40625 294.789063 L 186.234375 293.167969 L 187.519531 291.878906 L 189.140625 291.054688 L 190.9375 290.769531 L 192.734375 291.054688 L 194.355469 291.878906 L 195.644531 293.167969 L 196.46875 294.789063 Z M 196.753906 296.585938 "/>
<path style=" stroke:none;fill-rule:nonzero;fill:rgb(80.392157%,58.431373%,4.705882%);fill-opacity:1;" d="M 208.382813 253.9375 L 208.101563 255.734375 L 207.273438 257.355469 L 205.988281 258.644531 L 204.367188 259.46875 L 202.570313 259.753906 L 200.773438 259.46875 L 199.152344 258.644531 L 197.863281 257.355469 L 197.039063 255.734375 L 196.753906 253.9375 L 197.039063 252.140625 L 197.863281 250.519531 L 199.152344 249.234375 L 200.773438 248.40625 L 202.570313 248.125 L 204.367188 248.40625 L 205.988281 249.234375 L 207.273438 250.519531 L 208.101563 252.140625 Z M 208.382813 253.9375 "/>
<path style=" stroke:none;fill-rule:nonzero;fill:rgb(80.392157%,58.431373%,4.705882%);fill-opacity:1;" d="M 157.984375 246.183594 L 157.699219 247.980469 L 156.875 249.601563 L 155.585938 250.890625 L 153.964844 251.714844 L 152.167969 252 L 150.371094 251.714844 L 148.75 250.890625 L 147.464844 249.601563 L 146.636719 247.980469 L 146.355469 246.183594 L 146.636719 244.386719 L 147.234375 243.214844 L 148.300781 243.253906 L 147.398438 242.894531 L 147.464844 242.765625 L 148.75 241.480469 L 150.371094 240.652344 L 152.167969 240.371094 L 153.964844 240.652344 L 155.585938 241.480469 L 156.875 242.765625 L 157.699219 244.386719 Z M 157.984375 246.183594 "/>
<path style=" stroke:none;fill-rule:nonzero;fill:rgb(80.392157%,58.431373%,4.705882%);fill-opacity:1;" d="M 285.921875 455.539063 L 285.636719 457.335938 L 285.242188 458.117188 L 284.1875 457.9375 L 281.042969 460.90625 L 279.980469 461.332031 L 278.3125 461.070313 L 276.691406 460.242188 L 275.402344 458.957031 L 274.578125 457.335938 L 274.292969 455.539063 L 274.578125 453.742188 L 275.402344 452.121094 L 276.691406 450.832031 L 278.3125 450.007813 L 280.109375 449.722656 L 281.90625 450.007813 L 283.527344 450.832031 L 284.8125 452.121094 L 285.636719 453.742188 Z M 285.921875 455.539063 "/>
<path style=" stroke:none;fill-rule:nonzero;fill:rgb(80.392157%,58.431373%,4.705882%);fill-opacity:1;" d="M 285.921875 374.125 L 285.636719 375.921875 L 284.8125 377.542969 L 283.527344 378.828125 L 281.90625 379.652344 L 280.109375 379.9375 L 278.3125 379.652344 L 276.691406 378.828125 L 275.402344 377.542969 L 274.578125 375.921875 L 274.292969 374.125 L 274.578125 372.324219 L 275.402344 370.703125 L 275.636719 370.46875 L 277.851563 370.085938 L 283.34375 370.234375 L 284.253906 370.867188 L 284.878906 370.835938 L 285.636719 372.324219 Z M 285.921875 374.125 "/>
<path style=" stroke:none;fill-rule:nonzero;fill:rgb(80.392157%,58.431373%,4.705882%);fill-opacity:1;" d="M 161.863281 389.628906 L 161.578125 391.429688 L 160.75 393.050781 L 159.464844 394.335938 L 157.84375 395.160156 L 156.046875 395.445313 L 154.25 395.160156 L 153.429688 394.742188 L 154.199219 391.746094 L 153.734375 388.820313 L 152.566406 386.542969 L 153.160156 384.652344 L 154.25 384.101563 L 156.046875 383.816406 L 157.84375 384.101563 L 159.464844 384.925781 L 160.75 386.210938 L 161.578125 387.832031 Z M 161.863281 389.628906 "/>
<path style=" stroke:none;fill-rule:nonzero;fill:rgb(80.392157%,58.431373%,4.705882%);fill-opacity:1;" d="M 270.414063 463.292969 L 270.128906 465.089844 L 269.304688 466.710938 L 269.226563 466.789063 L 259.269531 463.777344 L 258.855469 463.742188 L 258.785156 463.292969 L 259.070313 461.496094 L 259.894531 459.875 L 261.183594 458.585938 L 262.804688 457.761719 L 264.601563 457.476563 L 266.398438 457.761719 L 268.019531 458.585938 L 269.304688 459.875 L 270.128906 461.496094 Z M 270.414063 463.292969 "/>
<path style=" stroke:none;fill-rule:nonzero;fill:rgb(80.392157%,58.431373%,4.705882%);fill-opacity:1;" d="M 161.863281 428.398438 L 161.578125 430.195313 L 160.75 431.816406 L 160.589844 431.980469 L 159.03125 429.199219 L 155.65625 429.589844 L 151.175781 431.496094 L 150.515625 430.195313 L 150.296875 428.820313 L 151.640625 428.421875 L 152.765625 427.832031 L 153.085938 427.097656 L 152.808594 426.597656 L 150.550781 426.535156 L 151.339844 424.980469 L 152.628906 423.695313 L 154.25 422.871094 L 156.046875 422.585938 L 157.84375 422.871094 L 159.464844 423.695313 L 160.75 424.980469 L 161.578125 426.601563 Z M 161.863281 428.398438 "/>
<path style=" stroke:none;fill-rule:nonzero;fill:rgb(80.392157%,58.431373%,4.705882%);fill-opacity:1;" d="M 220.015625 467.167969 L 219.832031 468.339844 L 219.566406 468.449219 L 217.054688 467.824219 L 210.222656 468.96875 L 208.65625 468.894531 L 208.382813 467.167969 L 208.667969 465.371094 L 209.496094 463.75 L 210.78125 462.464844 L 212.402344 461.636719 L 214.199219 461.355469 L 215.996094 461.636719 L 217.617188 462.464844 L 218.90625 463.75 L 219.730469 465.371094 Z M 220.015625 467.167969 "/>
<path style=" stroke:none;fill-rule:nonzero;fill:rgb(80.392157%,58.431373%,4.705882%);fill-opacity:1;" d="M 189 343.109375 L 188.714844 344.90625 L 187.890625 346.527344 L 186.601563 347.8125 L 184.980469 348.636719 L 183.183594 348.921875 L 181.386719 348.636719 L 180.933594 348.40625 L 179.976563 346.332031 L 183.371094 340.257813 L 185.429688 339.015625 L 185.140625 338.578125 L 182.683594 338.460938 L 181.851563 337.503906 L 183.183594 337.292969 L 184.980469 337.578125 L 186.601563 338.402344 L 187.890625 339.691406 L 188.714844 341.3125 Z M 189 343.109375 "/>
<path style=" stroke:none;fill-rule:nonzero;fill:rgb(80.392157%,58.431373%,4.705882%);fill-opacity:1;" d="M 200.847656 472.421875 L 200.628906 471.046875 L 200.914063 469.25 L 201.742188 467.628906 L 203.027344 466.339844 L 204.648438 465.515625 L 206.445313 465.230469 L 208.242188 465.515625 L 209.863281 466.339844 L 211.152344 467.628906 L 211.707031 468.71875 L 210.222656 468.96875 L 208.164063 468.875 L 207.273438 468.058594 L 206.238281 469.769531 L 209.429688 471.089844 L 209.714844 470.9375 L 210.1875 472.128906 L 209.566406 473.890625 L 206.84375 474.453125 L 204.453125 473.097656 L 203.015625 472.699219 Z M 200.847656 472.421875 "/>
<path style=" stroke:none;fill-rule:nonzero;fill:rgb(80.392157%,58.431373%,4.705882%);fill-opacity:1;" d="M 167.644531 475.257813 L 166.847656 474.464844 L 166.023438 472.84375 L 165.738281 471.046875 L 166.023438 469.25 L 166.847656 467.628906 L 168.136719 466.339844 L 169.757813 465.515625 L 171.554688 465.230469 L 173.351563 465.515625 L 174.972656 466.339844 L 176.257813 467.628906 L 177.085938 469.25 L 177.148438 469.65625 L 176.207031 469.78125 L 174.339844 470.335938 L 168.992188 473.234375 L 168.214844 474.070313 Z M 167.644531 475.257813 "/>
<path style=" stroke:none;fill-rule:nonzero;fill:rgb(80.392157%,58.431373%,4.705882%);fill-opacity:1;" d="M 146.355469 405.136719 L 146.070313 406.933594 L 145.242188 408.558594 L 143.957031 409.84375 L 142.335938 410.667969 L 140.539063 410.953125 L 138.742188 410.667969 L 137.121094 409.84375 L 135.832031 408.558594 L 135.554688 408.007813 L 135.753906 407.632813 L 137.585938 406.550781 L 141.359375 406.660156 L 142.21875 406.390625 L 146.152344 403.875 Z M 146.355469 405.136719 "/>
<path style=" stroke:none;fill-rule:nonzero;fill:rgb(80.392157%,58.431373%,4.705882%);fill-opacity:1;" d="M 169.183594 356.828125 L 168.503906 358.15625 L 167.21875 359.441406 L 165.597656 360.269531 L 163.800781 360.554688 L 162.003906 360.269531 L 160.382813 359.441406 L 159.09375 358.15625 L 159.050781 358.066406 L 160.492188 357.457031 L 163.644531 357.28125 L 167.339844 357.714844 Z M 169.183594 356.828125 "/>
</g>
</svg>
