<?xml version="1.0" encoding="UTF-8"?>
<svg xmlns="http://www.w3.org/2000/svg" xmlns:xlink="http://www.w3.org/1999/xlink" width="378pt" height="504pt" viewBox="0 0 378 504" version="1.1">
<g id="data">
<rect x="0" y="0" width="378" height="504" style="fill:rgb(100%,100%,100%);fill-opacity:1;stroke:none;"/>
<path style=" stroke:none;fill-rule:nonzero;fill:rgb(100%,100%,100%);fill-opacity:1;" d="M 53.308594 504 L 324.691406 504 L 324.691406 0 L 53.308594 0 Z M 53.308594 504 "/>
<path style=" stroke:none;fill-rule:nonzero;fill:rgb(22.745098%,53.333333%,16.078431%);fill-opacity:1;" d="M 107.015625 495.625 L 106.636719 495.480469 L 105.421875 494.503906 L 105.628906 491.574219 L 106.074219 490.5625 L 111.738281 488.078125 L 112.199219 488.253906 L 112.445313 488.9375 L 113.574219 489.15625 L 118.144531 485.910156 L 121.425781 483.085938 L 124.375 479.769531 L 125.210938 477.886719 L 124.875 476.421875 L 125.640625 474.519531 L 128.386719 473.238281 L 132.105469 472.640625 L 132.679688 471.785156 L 132.929688 470.808594 L 133.492188 471.347656 L 134.339844 472.84375 L 134.957031 474.457031 L 135.5625 475.414063 L 136.425781 476.308594 L 137.835938 477.273438 L 139.105469 478.449219 L 139.589844 479.285156 L 139.847656 478.878906 L 141.375 477.671875 L 143.214844 477.035156 L 146.082031 476.558594 L 147.585938 475.847656 L 148.878906 474.675781 L 149.789063 473.164063 L 150.085938 472.191406 L 150.257813 470.46875 L 150.601563 469.003906 L 151.304688 467.679688 L 152.472656 466.035156 L 152.992188 464.746094 L 153.183594 463.644531 L 153.160156 462.671875 L 152.777344 461.15625 L 152.070313 459.859375 L 151.136719 458.855469 L 149.269531 457.652344 L 147.914063 456.4375 L 146.996094 454.867188 L 146.859375 454.222656 L 148.429688 452.488281 L 148.191406 448.871094 L 148.742188 448.257813 L 150.3125 447.34375 L 152.089844 446.957031 L 154.390625 446.828125 L 155.796875 446.355469 L 157.421875 446.269531 L 159.910156 445.683594 L 164.597656 446.761719 L 166.046875 446.148438 L 167.527344 446.515625 L 169.484375 447.285156 L 170.039063 448.109375 L 170.757813 448.421875 L 173.15625 448.464844 L 180.570313 447.503906 L 181.109375 445.632813 L 181.210938 443.15625 L 182.519531 440.25 L 190.867188 432.195313 L 195.792969 425.3125 L 197.929688 424.472656 L 198.285156 423.78125 L 198.070313 423.238281 L 197.8125 423.082031 L 196.09375 424.355469 L 192.90625 427.300781 L 190.570313 429.988281 L 189.222656 431.449219 L 185.628906 432.957031 L 183.714844 433.246094 L 182.441406 433.0625 L 178.394531 435.230469 L 177.398438 436.808594 L 177.039063 438.671875 L 176.445313 439.273438 L 174.058594 439.917969 L 170.558594 439.851563 L 166.820313 439 L 166.347656 438.652344 L 161.371094 433.375 L 160.34375 431.542969 L 160.644531 431.269531 L 162.390625 430.511719 L 164.289063 430.359375 L 166.132813 430.828125 L 167.734375 431.527344 L 168.78125 431.761719 L 169.867188 431.796875 L 170.941406 431.628906 L 171.960938 431.261719 L 172.898438 430.707031 L 173.714844 429.992188 L 174.722656 428.703125 L 176.429688 427.222656 L 178.570313 426.507813 L 180.742188 426.230469 L 182.171875 425.648438 L 183.382813 424.722656 L 184.308594 423.507813 L 184.890625 422.082031 L 185.171875 419.910156 L 185.617188 418.296875 L 186.507813 416.878906 L 187.765625 415.773438 L 189.28125 415.070313 L 190.9375 414.832031 L 194.816406 414.832031 L 196.597656 415.109375 L 198.207031 415.921875 L 199.492188 417.1875 L 200.324219 418.789063 L 200.628906 420.566406 L 200.691406 425.023438 L 201.128906 426.707031 L 202.117188 428.289063 L 203.699219 429.582031 L 204.824219 430.058594 L 207.246094 430.394531 L 208.78125 430.828125 L 210.535156 431.597656 L 211.65625 431.816406 L 213.566406 431.679688 L 215.949219 430.742188 L 217.71875 430.347656 L 218.074219 430.382813 L 218.519531 429.507813 L 219.703125 427.910156 L 220.496094 426.085938 L 221.226563 424.851563 L 222.234375 423.828125 L 223.859375 422.550781 L 225.136719 420.929688 L 226.34375 419.777344 L 227.828125 419.019531 L 229.46875 418.710938 L 231.128906 418.882813 L 232.699219 419.28125 L 233.671875 419.339844 L 238.796875 418.503906 L 240.6875 417.632813 L 242.199219 416.1875 L 242.699219 415.355469 L 243.003906 414.519531 L 243.378906 410.753906 L 242.828125 407.742188 L 242.46875 406.988281 L 241.515625 405.6875 L 240.683594 404.078125 L 240.390625 402.292969 L 240.65625 400.5 L 241.464844 398.878906 L 242.730469 397.585938 L 244.335938 396.742188 L 246.117188 396.433594 L 247.910156 396.691406 L 249.539063 397.484375 L 251.15625 398.617188 L 252.519531 399.15625 L 255.179688 399.585938 L 256.492188 399.519531 L 258.527344 398.777344 L 260.847656 396.816406 L 262.414063 395.871094 L 264.191406 395.460938 L 266.386719 395.304688 L 267.863281 394.8125 L 268.703125 394.300781 L 269.476563 393.609375 L 270.3125 392.476563 L 271.300781 390.40625 L 271.894531 387.941406 L 271.769531 386.417969 L 270.820313 384.003906 L 270.453125 382.550781 L 270.21875 380.53125 L 269.824219 379.421875 L 269.300781 378.644531 L 270.21875 378.804688 L 270.625 378.746094 L 271.910156 376.796875 L 272.234375 374.960938 L 273.40625 371.914063 L 274.707031 370.632813 L 277.851563 370.085938 L 283.34375 370.234375 L 284.253906 370.867188 L 286.703125 370.742188 L 293.949219 371.515625 L 296.914063 372.84375 L 304.070313 378.085938 L 305.367188 380.105469 L 306.730469 384.164063 L 307.179688 391.25 L 306.777344 393.191406 L 306.890625 393.976563 L 306.832031 394.132813 L 305.992188 394.820313 L 304.296875 395.679688 L 303.269531 396.535156 L 302.425781 397.667969 L 301.886719 398.960938 L 301.671875 400.339844 L 301.789063 401.652344 L 302.414063 403.3125 L 304.03125 405.378906 L 303.519531 407.832031 L 297.144531 414.53125 L 295.578125 412.011719 L 292.742188 410.515625 L 292.480469 410.636719 L 293.898438 413.703125 L 295.890625 416.628906 L 296.3125 416.765625 L 296.164063 417.742188 L 295.855469 418.140625 L 295.804688 418.128906 L 292.660156 418.632813 L 291.4375 418.699219 L 288.195313 418.53125 L 286.710938 418.945313 L 285.332031 419.796875 L 284.238281 420.9375 L 283.5625 422.035156 L 283.339844 422.691406 L 280.71875 424.230469 L 282.339844 425.378906 L 283.140625 425.097656 L 283.445313 426.734375 L 283.816406 427.507813 L 284.785156 428.824219 L 285.703125 430.863281 L 285.6875 430.875 L 283.441406 432.558594 L 282.84375 432.699219 L 279.644531 432.160156 L 274.75 433.78125 L 272.609375 436.117188 L 274.253906 436.015625 L 275.152344 434.667969 L 276.683594 434.363281 L 278.285156 434.328125 L 281.054688 434.949219 L 281.828125 435.589844 L 281.691406 436.328125 L 279.554688 436.347656 L 277.390625 437.65625 L 277.96875 438.546875 L 281.382813 438.964844 L 286.863281 440.339844 L 289.394531 439.9375 L 291.074219 438.957031 L 299.742188 437.757813 L 300.988281 440.148438 L 300.773438 446.324219 L 300.601563 446.914063 L 298.925781 448.828125 L 298.472656 449.503906 L 296.972656 450.242188 L 295.839844 450.375 L 292.621094 451.640625 L 291.179688 452.742188 L 289.847656 454.226563 L 289.460938 455.09375 L 289.214844 456.324219 L 289.464844 457.886719 L 286.253906 458.289063 L 284.1875 457.9375 L 281.042969 460.90625 L 278.75 461.824219 L 278.523438 461.414063 L 278.175781 459.683594 L 278.363281 457.925781 L 279.070313 456.308594 L 280.230469 454.976563 L 281.769531 453.671875 L 282.578125 452.582031 L 283.074219 451.441406 L 283.320313 450.105469 L 283.25 448.753906 L 282.910156 447.554688 L 282.25 446.355469 L 280.976563 444.933594 L 280.011719 443.453125 L 279.914063 443.105469 L 278.785156 442.597656 L 276.808594 441.28125 L 275.222656 440.78125 L 273.5625 440.75 L 272.078125 441.148438 L 270.582031 442.0625 L 268.9375 443.90625 L 266.917969 445.363281 L 265.089844 446.160156 L 264 446.984375 L 262.976563 448.292969 L 262.234375 450.054688 L 261.902344 451.890625 L 262.066406 453.453125 L 262.652344 454.914063 L 263.667969 456.210938 L 265.121094 457.238281 L 267.15625 457.945313 L 268.777344 458.078125 L 271.214844 457.589844 L 272.933594 457.503906 L 274.601563 457.929688 L 276.070313 458.820313 L 277.21875 460.105469 L 277.9375 461.667969 L 277.988281 462.046875 L 274.789063 462.777344 L 272.597656 463.816406 L 270.539063 466.589844 L 269.761719 466.949219 L 259.269531 463.777344 L 256.070313 463.507813 L 244.628906 465.699219 L 242.703125 466.390625 L 242.113281 466.964844 L 241.902344 467.984375 L 241.359375 468.164063 L 238.210938 466.1875 L 238.632813 465.4375 L 239.46875 464.933594 L 237.714844 463.296875 L 231.496094 463.171875 L 231.378906 463.496094 L 232.574219 464.835938 L 232.214844 465.75 L 231.738281 466.042969 L 226.691406 465.496094 L 219.566406 468.449219 L 217.054688 467.824219 L 210.222656 468.96875 L 208.164063 468.875 L 207.273438 468.058594 L 206.238281 469.769531 L 209.429688 471.089844 L 209.714844 470.9375 L 210.1875 472.128906 L 209.566406 473.890625 L 206.84375 474.453125 L 204.453125 473.097656 L 203.015625 472.699219 L 197.625 472.007813 L 196.175781 472.65625 L 195.679688 473.863281 L 195.832031 474.871094 L 196.757813 475.523438 L 196.488281 476.304688 L 195.917969 475.996094 L 194.851563 473.972656 L 190.289063 470.589844 L 185.898438 468.519531 L 183.121094 467.984375 L 181.648438 469.066406 L 176.207031 469.78125 L 174.339844 470.335938 L 168.992188 473.234375 L 168.214844 474.070313 L 167.203125 476.179688 L 162.746094 489.226563 L 160.929688 490.242188 L 158.269531 489.722656 L 157.554688 489.058594 L 156.527344 486.851563 L 154.683594 485.4375 L 153.613281 485.542969 L 152.417969 486.300781 L 151.738281 486.164063 L 148.46875 482.535156 L 142.796875 482.960938 L 141.527344 483.375 L 140.734375 484.175781 L 139.910156 484.507813 L 134.507813 484.320313 L 132.167969 484.859375 L 129.414063 488.195313 L 126.714844 489.746094 L 124.039063 490.597656 L 123.132813 494.289063 L 123.664063 495.292969 L 123.496094 496.125 L 122.722656 496.945313 L 120.660156 497.648438 L 119.628906 499.730469 L 118.675781 498.910156 L 117.96875 497.691406 L 118.09375 496.4375 L 117.15625 494.691406 L 115.984375 493.691406 L 112.253906 492.070313 L 111.410156 491.984375 L 110.375 492.488281 L 110.242188 494.183594 L 109.421875 495.128906 Z M 223.230469 438.710938 L 222.996094 439.253906 L 221.804688 440.617188 L 220.109375 442.03125 L 219.257813 443.222656 L 218.730469 444.589844 L 218.570313 446.011719 L 218.832031 447.691406 L 219.9375 450.289063 L 220.8125 451.589844 L 221.796875 452.492188 L 222.875 453.105469 L 224.203125 453.503906 L 227.550781 453.742188 L 229.4375 453.589844 L 230.695313 453.292969 L 231.742188 452.816406 L 232.65625 452.152344 L 233.503906 451.222656 L 234.042969 450.320313 L 234.417969 449.300781 L 234.597656 448.234375 L 234.578125 447.34375 L 233.980469 445.226563 L 231.503906 441.070313 L 230.039063 439.527344 L 228.519531 438.703125 L 226.707031 438.363281 L 223.972656 438.734375 Z M 265.46875 376.238281 L 264.550781 376.101563 L 263.519531 376.191406 L 262.414063 376.519531 L 261.398438 377.058594 L 260.507813 377.785156 L 259.78125 378.675781 L 259.234375 379.707031 L 258.929688 380.714844 L 258.753906 382.453125 L 258.253906 384.304688 L 257.179688 385.890625 L 255.648438 387.039063 L 253.824219 387.628906 L 251.910156 387.59375 L 250.109375 386.941406 L 248.621094 385.738281 L 246.300781 383.125 L 244.382813 381.734375 L 243.109375 381.140625 L 242.117188 380.90625 L 240.953125 380.863281 L 239.820313 381.046875 L 238.777344 381.4375 L 237.691406 382.128906 L 236.734375 383.105469 L 236.074219 384.175781 L 235.652344 385.417969 L 235.382813 387.582031 L 235.5625 390.925781 L 235.90625 392.320313 L 236.808594 394.09375 L 237.367188 395.789063 L 237.378906 397.578125 L 236.851563 399.285156 L 235.832031 400.75 L 234.414063 401.835938 L 232.027344 403.140625 L 230.089844 405.222656 L 228.40625 406.476563 L 226.386719 407.050781 L 224.296875 406.871094 L 222.457031 406.367188 L 221.089844 406.3125 L 219.847656 406.546875 L 218.648438 407.066406 L 217.738281 407.714844 L 216.9375 408.566406 L 216.378906 409.460938 L 215.753906 411.09375 L 214.9375 412.554688 L 213.734375 413.722656 L 212.253906 414.5 L 210.609375 414.824219 L 208.941406 414.664063 L 207.238281 414.246094 L 205.363281 414.191406 L 203.496094 413.820313 L 201.851563 412.871094 L 200.597656 411.441406 L 199.875 409.683594 L 199.21875 406.839844 L 197.65625 404.375 L 196.980469 402.871094 L 196.753906 401.238281 L 196.996094 399.605469 L 197.683594 398.105469 L 198.765625 396.863281 L 200.449219 395.40625 L 201.242188 394.269531 L 201.742188 392.960938 L 201.910156 391.585938 L 201.71875 390.101563 L 201.210938 388.8125 L 200.394531 387.671875 L 198.789063 386.296875 L 197.613281 384.921875 L 196.917969 383.25 L 196.769531 381.441406 L 197.183594 379.679688 L 198.121094 378.128906 L 199.488281 376.945313 L 201.15625 376.234375 L 202.960938 376.074219 L 204.726563 376.476563 L 206.863281 377.328125 L 208.378906 377.503906 L 209.886719 377.273438 L 211.328125 376.636719 L 212.355469 375.832031 L 213.550781 374.347656 L 215.339844 372.867188 L 217.363281 371.789063 L 218.421875 370.792969 L 219.339844 369.230469 L 219.9375 366.515625 L 220.664063 364.714844 L 221.945313 363.253906 L 223.636719 362.296875 L 225.550781 361.949219 L 227.46875 362.25 L 229.179688 363.167969 L 230.457031 364.15625 L 231.414063 364.648438 L 232.464844 364.964844 L 233.546875 365.078125 L 234.632813 364.984375 L 235.679688 364.691406 L 236.65625 364.207031 L 237.46875 363.589844 L 238.386719 362.527344 L 239.003906 361.335938 L 239.34375 359.984375 L 239.410156 358.082031 L 239.253906 356.710938 L 238.878906 355.570313 L 238.277344 354.535156 L 237.070313 353.199219 L 236.105469 351.730469 L 235.621094 350.039063 L 235.667969 348.285156 L 236.234375 346.621094 L 237.269531 345.203125 L 238.683594 344.15625 L 240.859375 343.015625 L 242.09375 341.800781 L 242.851563 340.433594 L 246.324219 340.394531 L 249.617188 339.34375 L 251.976563 339.082031 L 254.382813 342.558594 L 260.535156 347.621094 L 263.042969 349.058594 L 263.664063 349.039063 L 265.054688 350.894531 L 264.546875 351.5625 L 263.894531 352.925781 L 263.617188 354.261719 L 263.691406 355.816406 L 264.167969 357.277344 L 264.941406 358.476563 L 266.082031 359.511719 L 267.433594 360.203125 L 269.207031 360.578125 L 269.535156 362.402344 L 269.210938 365.21875 L 264.953125 369.09375 L 261.394531 373.164063 L 260.601563 374.816406 L 262.84375 374.3125 L 264.9375 375.519531 Z M 243.265625 338.644531 L 243.414063 337.96875 L 244.019531 336.386719 L 245.054688 335.046875 L 246.429688 334.0625 L 248.03125 333.511719 L 249.722656 333.449219 L 251.359375 333.875 L 252.804688 334.757813 L 254.855469 336.457031 L 256.617188 337.1875 L 259.976563 337.792969 L 263.316406 342.46875 L 263.640625 343.980469 L 262.804688 345.191406 L 263.28125 343.65625 L 262.507813 342.839844 L 260.445313 342 L 258.378906 342.789063 L 257.507813 342.753906 L 256.035156 341.773438 L 253.664063 338.65625 L 252.601563 338.082031 L 245.550781 339.511719 L 244.589844 338.644531 L 243.40625 338.558594 Z M 217.382813 312.375 L 218.65625 311.179688 L 220.226563 310.417969 L 221.953125 310.152344 L 225.832031 310.152344 L 227.714844 310.46875 L 229.394531 311.375 L 230.691406 312.773438 L 231.464844 314.519531 L 231.628906 316.421875 L 231.167969 318.277344 L 230.371094 320.121094 L 230.15625 321.339844 L 230.316406 323.152344 L 231.230469 325.441406 L 231.644531 327.601563 L 231.644531 331.476563 L 231.289063 333.484375 L 230.332031 336.085938 L 230.269531 338.082031 L 230.507813 339.089844 L 231.070313 340.253906 L 231.863281 341.25 L 233.359375 342.457031 L 234.648438 343.917969 L 235.386719 345.726563 L 235.480469 347.671875 L 234.929688 349.542969 L 233.792969 351.125 L 232.195313 352.242188 L 230.566406 353.011719 L 229.132813 354.101563 L 227.628906 354.921875 L 225.953125 355.273438 L 224.246094 355.117188 L 222.660156 354.472656 L 221.328125 353.394531 L 220.371094 351.976563 L 219.867188 350.335938 L 219.621094 348.726563 L 219.269531 347.722656 L 218.675781 346.707031 L 217.96875 345.90625 L 217.113281 345.242188 L 216.121094 344.730469 L 214.949219 344.371094 L 213.976563 344.273438 L 212.003906 344.589844 L 210.3125 345.484375 L 209.003906 346.878906 L 207.863281 349.390625 L 206.96875 350.785156 L 205.71875 351.875 L 204.210938 352.5625 L 202.570313 352.800781 L 198.691406 352.800781 L 196.964844 352.539063 L 195.394531 351.773438 L 194.121094 350.578125 L 192.84375 348.957031 L 191.21875 347.679688 L 189.757813 345.976563 L 187.726563 342.398438 L 187.074219 340.640625 L 187.019531 338.765625 L 187.558594 336.972656 L 188.644531 335.445313 L 190.15625 334.339844 L 191.945313 333.773438 L 193.976563 333.476563 L 196.203125 333.582031 L 197.871094 333.992188 L 198.902344 334.039063 L 203.117188 333.226563 L 204.359375 332.703125 L 206.65625 330.839844 L 208.214844 329.933594 L 209.929688 329.265625 L 210.734375 328.746094 L 212.082031 327.25 L 212.828125 325.554688 L 213 323.824219 L 212.398438 321.097656 L 212.273438 319.476563 L 212.601563 317.886719 L 213.359375 316.449219 L 214.480469 315.273438 L 216.105469 313.996094 Z M 144.363281 360.964844 L 143.429688 359.453125 L 143 357.726563 L 143.113281 355.953125 L 143.753906 354.296875 L 144.867188 352.910156 L 146.34375 351.925781 L 147.832031 351.496094 L 149.566406 352.007813 L 151.039063 355.578125 L 155.546875 356.503906 L 154.066406 358.859375 L 150.984375 360.816406 L 147.425781 363.976563 L 146.414063 363.898438 L 145.894531 362.769531 Z M 169.191406 356.820313 L 169.132813 357.054688 L 168.097656 358.65625 L 166.503906 360.40625 L 165.761719 361.902344 L 165.484375 363.441406 L 165.710938 365.8125 L 165.613281 367.5625 L 165 369.203125 L 163.925781 370.585938 L 162.488281 371.589844 L 160.816406 372.117188 L 159.066406 372.121094 L 157.390625 371.605469 L 155.945313 370.613281 L 154.78125 369.519531 L 153.792969 368.898438 L 152.824219 368.523438 L 151.128906 368.214844 L 149.382813 367.597656 L 147.917969 366.460938 L 147.605469 365.996094 L 147.953125 364.523438 L 151.550781 360.582031 L 153.09375 359.609375 L 154.941406 359.808594 L 160.492188 357.457031 L 163.644531 357.28125 L 167.339844 357.714844 Z M 155.664063 423.753906 L 156.921875 425.050781 L 157.722656 426.671875 L 157.984375 428.460938 L 157.835938 429.335938 L 155.65625 429.589844 L 149.269531 432.308594 L 149.113281 432.746094 L 147.203125 431.632813 L 146.917969 429.308594 L 148.539063 428.378906 L 150.066406 428.890625 L 151.640625 428.421875 L 152.765625 427.832031 L 153.085938 427.097656 L 152.808594 426.597656 L 147.785156 426.460938 L 143.210938 423.710938 L 140.859375 423.714844 L 140.964844 421.988281 L 141.695313 420.222656 L 142.957031 418.789063 L 144.617188 417.839844 L 146.492188 417.480469 L 148.382813 417.75 L 150.085938 418.617188 L 151.75 419.847656 L 152.785156 420.832031 L 154.414063 422.8125 Z M 137.933594 323.433594 L 137.675781 322.921875 L 139.816406 316.644531 L 142.300781 315.023438 L 144.765625 310.230469 L 145.863281 309.40625 L 149.046875 308.269531 L 150.203125 313.453125 L 147.847656 318.148438 L 145.3125 320.636719 L 141.859375 323.019531 L 139.824219 322.464844 Z M 286.679688 439.636719 L 283.058594 438.976563 L 282.164063 437.605469 L 282.484375 436.070313 L 286.839844 437.054688 L 287.960938 438.832031 Z M 236.835938 466.113281 L 235.136719 465.644531 L 236.523438 463.683594 L 237.195313 464.164063 L 237.5 465.839844 Z M 228.117188 474.644531 L 222.296875 470.886719 L 220.207031 471.1875 L 221.476563 469.683594 L 227.316406 466.367188 L 232.550781 467.761719 L 234.171875 469.894531 L 231.242188 473.621094 L 229.960938 474.269531 Z M 88.429688 500.046875 L 88.566406 499.308594 L 88.941406 499.117188 L 89.34375 499.789063 Z M 88.429688 500.046875 "/>
<path style=" stroke:none;fill-rule:nonzero;fill:rgb(80.392157%,58.431373%,4.705882%);fill-opacity:1;" d="M 196.753906 257.816406 L 196.46875 259.613281 L 195.644531 261.234375 L 194.355469 262.519531 L 192.734375 263.347656 L 190.9375 263.628906 L 189.140625 263.347656 L 187.519531 262.519531 L 186.234375 261.234375 L 185.40625 259.613281 L 185.125 257.816406 L 185.40625 256.019531 L 186.234375 254.398438 L 187.519531 253.109375 L 189.140625 252.285156 L 190.9375 252 L 192.734375 252.285156 L 194.355469 253.109375 L 195.644531 254.398438 L 196.46875 256.019531 Z M 196.753906 257.816406 "/>
<path style=" stroke:none;fill-rule:nonzero;fill:rgb(80.392157%,58.431373%,4.705882%);fill-opacity:1;" d="M 189 288.832031 L 188.714844 290.628906 L 187.890625 292.25 L 186.601563 293.535156 L 184.980469 294.363281 L 183.183594 294.644531 L 181.386719 294.363281 L 179.765625 293.535156 L 178.480469 292.25 L 177.652344 290.628906 L 177.371094 288.832031 L 177.652344 287.035156 L 178.128906 286.097656 L 178.757813 285.980469 L 180.191406 286.804688 L 181.015625 286.710938 L 182.933594 286.238281 L 183.03125 285.160156 L 182.34375 284.746094 L 180.035156 285.351563 L 178.636719 285.257813 L 179.765625 284.125 L 181.386719 283.300781 L 183.183594 283.015625 L 184.980469 283.300781 L 186.601563 284.125 L 187.890625 285.414063 L 188.714844 287.035156 Z M 189 288.832031 "/>
<path style=" stroke:none;fill-rule:nonzero;fill:rgb(80.392157%,58.431373%,4.705882%);fill-opacity:1;" d="M 177.371094 172.523438 L 177.085938 174.320313 L 176.257813 175.941406 L 174.972656 177.226563 L 173.351563 178.054688 L 171.554688 178.339844 L 169.757813 178.054688 L 168.136719 177.226563 L 166.847656 175.941406 L 166.023438 174.320313 L 165.738281 172.523438 L 165.976563 171.027344 L 167.808594 170.273438 L 170.480469 169.527344 L 170.492188 169.949219 L 171.554688 169.839844 L 173.589844 168.316406 L 173.902344 167.273438 L 174.972656 167.816406 L 176.257813 169.105469 L 177.085938 170.726563 Z M 177.371094 172.523438 "/>
<path style=" stroke:none;fill-rule:nonzero;fill:rgb(80.392157%,58.431373%,4.705882%);fill-opacity:1;" d="M 161.863281 389.628906 L 161.578125 391.429688 L 160.75 393.050781 L 159.464844 394.335938 L 157.84375 395.160156 L 156.046875 395.445313 L 154.25 395.160156 L 153.429688 394.742188 L 154.199219 391.746094 L 153.734375 388.820313 L 152.566406 386.542969 L 153.160156 384.652344 L 154.25 384.101563 L 156.046875 383.816406 L 157.84375 384.101563 L 159.464844 384.925781 L 160.75 386.210938 L 161.578125 387.832031 Z M 161.863281 389.628906 "/>
<path style=" stroke:none;fill-rule:nonzero;fill:rgb(80.392157%,58.431373%,4.705882%);fill-opacity:1;" d="M 185.125 242.308594 L 184.839844 244.105469 L 184.011719 245.726563 L 182.726563 247.011719 L 181.105469 247.839844 L 179.308594 248.125 L 177.511719 247.839844 L 175.890625 247.011719 L 174.601563 245.726563 L 173.777344 244.105469 L 173.492188 242.308594 L 173.679688 241.125 L 178.0625 241.875 L 182.921875 243.167969 L 185.117188 242.261719 Z M 174.125 239.832031 L 174.601563 238.890625 L 175.890625 237.601563 L 177.511719 236.777344 L 179.308594 236.492188 L 180.691406 236.710938 L 180.578125 237.003906 L 174.761719 240.109375 Z M 174.125 239.832031 "/>
<path style=" stroke:none;fill-rule:nonzero;fill:rgb(80.392157%,58.431373%,4.705882%);fill-opacity:1;" d="M 195.683594 240.230469 L 194.816406 240.371094 L 193.019531 240.085938 L 191.398438 239.257813 L 190.386719 238.25 L 193.183594 238.5 Z M 189.285156 232.753906 L 190.109375 231.136719 L 191.398438 229.847656 L 193.019531 229.023438 L 194.445313 228.796875 L 194.429688 229.304688 L 192.117188 231.570313 L 189.460938 232.730469 Z M 189.285156 232.753906 "/>
</g>
</svg>
