<?xml version="1.0" encoding="UTF-8"?>
<svg xmlns="http://www.w3.org/2000/svg" xmlns:xlink="http://www.w3.org/1999/xlink" width="378pt" height="504pt" viewBox="0 0 378 504" version="1.1">
<g id="data">
<rect x="0" y="0" width="378" height="504" style="fill:rgb(100%,100%,100%);fill-opacity:1;stroke:none;"/>
<path style=" stroke:none;fill-rule:nonzero;fill:rgb(100%,100%,100%);fill-opacity:1;" d="M 53.308594 504 L 324.691406 504 L 324.691406 0 L 53.308594 0 Z M 53.308594 504 "/>
<path style=" stroke:none;fill-rule:nonzero;fill:rgb(22.745098%,53.333333%,16.078431%);fill-opacity:1;" d="M 245.214844 354.738281 L 245.777344 352.421875 L 245.839844 349.910156 L 247.410156 352.890625 L 250.078125 355.726563 L 253.285156 357.746094 L 256.847656 358.617188 L 257.984375 361.191406 L 259.796875 363.507813 L 262.023438 365.230469 L 264.601563 366.371094 L 266.035156 368.109375 L 264.953125 369.09375 L 261.394531 373.164063 L 260.601563 374.816406 L 262.84375 374.3125 L 264.9375 375.519531 L 266.9375 378.226563 L 270.21875 378.804688 L 270.625 378.746094 L 271.910156 376.796875 L 272.234375 374.960938 L 273.40625 371.914063 L 273.671875 371.648438 L 274.320313 371.742188 L 277.25 371.386719 L 280.109375 370.246094 L 283.363281 370.246094 L 284.25 370.863281 L 284.992188 372.601563 L 286.492188 374.675781 L 288.945313 376.730469 L 291.738281 378 L 293.585938 381.351563 L 296.3125 383.855469 L 298.351563 384.925781 L 300.6875 385.59375 L 304.992188 385.914063 L 306.835938 385.78125 L 306.847656 385.964844 L 304.640625 387.125 L 302.460938 389.109375 L 300.851563 391.574219 L 299.914063 394.367188 L 299.707031 397.304688 L 300.242188 400.203125 L 301.492188 402.871094 L 303.371094 405.136719 L 299.628906 407.070313 L 296.886719 410.097656 L 295.796875 412.363281 L 295.578125 412.011719 L 292.742188 410.515625 L 292.480469 410.636719 L 293.898438 413.703125 L 295.035156 415.375 L 295.019531 418.042969 L 295.230469 418.957031 L 294.574219 419.804688 L 292.191406 421.289063 L 290.003906 421.65625 L 289.660156 421.574219 L 288.214844 419.332031 L 284.976563 421.730469 L 280.71875 424.230469 L 282.339844 425.378906 L 285.105469 424.398438 L 286.097656 423.375 L 286.894531 423.164063 L 287.328125 423.710938 L 287.632813 428.84375 L 285.6875 430.875 L 283.441406 432.558594 L 282.84375 432.699219 L 279.644531 432.160156 L 274.75 433.78125 L 272.609375 436.117188 L 274.253906 436.015625 L 275.152344 434.667969 L 276.683594 434.363281 L 278.285156 434.328125 L 281.054688 434.949219 L 281.828125 435.589844 L 281.691406 436.328125 L 279.554688 436.347656 L 277.390625 437.65625 L 277.96875 438.546875 L 281.382813 438.964844 L 286.863281 440.339844 L 289.394531 439.9375 L 290.972656 439.015625 L 292.929688 441.648438 L 295.617188 443.90625 L 293.304688 444.003906 L 291.058594 444.558594 L 289.074219 445.476563 L 287.203125 446.835938 L 285.714844 448.4375 L 284.496094 450.40625 L 283.691406 452.574219 L 283.332031 454.859375 L 282.214844 452.5625 L 280.71875 450.65625 L 278.746094 449.027344 L 276.472656 447.871094 L 273.984375 447.230469 L 271.417969 447.148438 L 269.015625 447.597656 L 266.648438 448.597656 L 263.566406 451.101563 L 261.554688 454.375 L 260.757813 457.613281 L 260.722656 463.292969 L 258.925781 461.113281 L 256.546875 459.371094 L 253.925781 458.316406 L 251.132813 457.921875 L 248.199219 458.242188 L 245.214844 459.414063 L 241.890625 460.191406 L 239.441406 461.515625 L 237.464844 463.292969 L 237.457031 463.289063 L 234.871094 462.191406 L 232.09375 461.742188 L 228.789063 462.089844 L 225.832031 463.292969 L 222.714844 462.53125 L 219.507813 462.652344 L 216.457031 463.644531 L 213.699219 465.519531 L 211.652344 467.988281 L 211.304688 468.789063 L 210.222656 468.96875 L 208.164063 468.875 L 207.273438 468.058594 L 206.238281 469.769531 L 209.429688 471.089844 L 209.714844 470.9375 L 209.792969 471.140625 L 208.203125 471.421875 L 206.070313 472.234375 L 204.585938 473.171875 L 204.453125 473.097656 L 203.015625 472.699219 L 197.625 472.007813 L 196.175781 472.65625 L 195.679688 473.863281 L 195.816406 474.75 L 195.308594 474.839844 L 194.851563 473.972656 L 191.496094 471.484375 L 190.9375 471.046875 L 193.5625 467.9375 L 194.957031 464.109375 L 195.128906 461.820313 L 194.816406 459.414063 L 195.113281 456.117188 L 194.292969 452.386719 L 192.550781 449.421875 L 188.453125 445.085938 L 185.371094 443.339844 L 181.90625 442.601563 L 183.183594 440.03125 L 185.160156 439.121094 L 187.027344 437.773438 L 188.515625 436.1875 L 189.742188 434.234375 L 190.144531 432.894531 L 190.867188 432.195313 L 195.792969 425.3125 L 197.929688 424.472656 L 198.285156 423.78125 L 198.070313 423.238281 L 197.8125 423.082031 L 196.09375 424.355469 L 192.90625 427.300781 L 190.882813 429.632813 L 190.9375 424.523438 L 193.554688 423.453125 L 195.832031 421.789063 L 197.644531 419.621094 L 198.878906 417.078125 L 199.511719 413.160156 L 198.691406 409.015625 L 198.691406 405.136719 L 199.863281 402.300781 L 200.25 399.257813 L 199.828125 396.21875 L 198.691406 393.507813 L 200.488281 395.683594 L 202.644531 397.300781 L 205.238281 398.414063 L 207.898438 398.863281 L 210.714844 398.667969 L 214.199219 397.382813 L 218.128906 396.933594 L 220.375 396.011719 L 222.285156 394.722656 L 224.441406 392.363281 L 225.832031 389.628906 L 228.347656 387.5625 L 230.941406 384.117188 L 232.242188 381.195313 L 232.699219 377.902344 L 232.484375 375.734375 L 231.867188 373.648438 L 230.875 371.710938 L 229.535156 369.992188 L 226.484375 367.671875 L 224.347656 366.808594 L 221.953125 366.371094 L 221.25 365.679688 L 221.953125 362.492188 L 224.527344 365.34375 L 227.890625 367.203125 L 231.671875 367.863281 L 235.464844 367.257813 L 239.875 365.191406 L 242.792969 362.523438 L 244.691406 358.910156 Z M 242.789063 342.644531 L 245.214844 343.109375 L 245.214844 346.984375 L 244.238281 344.683594 Z M 221.953125 284.953125 L 223.660156 287.125 L 224.410156 287.714844 L 224.675781 288.832031 L 221.953125 288.832031 L 220.246094 286.660156 L 218.078125 284.953125 Z M 185.320313 338.851563 L 187.4375 338.042969 L 189.367188 336.828125 L 190.9375 335.355469 L 192.074219 337.929688 L 193.800781 340.15625 L 196.007813 341.902344 L 198.691406 343.109375 L 200.398438 345.277344 L 202.570313 346.984375 L 199.550781 348.660156 L 197.082031 351.253906 L 195.558594 354.355469 L 195.011719 357.894531 L 195.457031 361.0625 L 196.746094 363.992188 L 200.136719 368.269531 L 202.570313 370.246094 L 200.269531 370.476563 L 198.058594 371.15625 L 196.027344 372.261719 L 194.164063 373.835938 L 192.671875 375.765625 L 191.660156 377.84375 L 191.078125 380.082031 L 190.917969 382.535156 L 187.0625 381.875 L 187.367188 378.707031 L 186.757813 375.449219 L 185.332031 372.601563 L 183.183594 370.246094 L 185.53125 368.359375 L 187.0625 366.371094 L 189.378906 364.339844 L 190.722656 362.457031 L 192.101563 358.597656 L 192.082031 354.628906 L 190.722656 350.894531 L 189.121094 348.726563 L 187.0625 346.984375 L 186.652344 344.742188 L 185.871094 342.734375 L 184.65625 340.804688 L 183.867188 339.957031 L 185.429688 339.015625 Z M 172.277344 239.023438 L 172.988281 239.007813 L 175.429688 238.429688 L 176.164063 239.363281 L 174.761719 240.109375 Z M 179.113281 242.15625 L 179.308594 242.308594 L 175.429688 242.308594 L 174.167969 241.210938 L 178.0625 241.875 Z M 286.679688 439.636719 L 283.058594 438.976563 L 282.164063 437.605469 L 282.484375 436.070313 L 286.839844 437.054688 L 287.960938 438.832031 Z M 286.679688 439.636719 "/>
</g>
</svg>
