<?xml version="1.0" encoding="UTF-8"?>
<svg xmlns="http://www.w3.org/2000/svg" xmlns:xlink="http://www.w3.org/1999/xlink" width="378pt" height="504pt" viewBox="0 0 378 504" version="1.1">
<g id="data">
<rect x="0" y="0" width="378" height="504" style="fill:rgb(100%,100%,100%);fill-opacity:1;stroke:none;"/>
<path style=" stroke:none;fill-rule:nonzero;fill:rgb(100%,100%,100%);fill-opacity:1;" d="M 53.308594 504 L 324.691406 504 L 324.691406 0 L 53.308594 0 Z M 53.308594 504 "/>
<path style=" stroke:none;fill-rule:nonzero;fill:rgb(22.745098%,53.333333%,16.078431%);fill-opacity:1;" d="M 186.277344 325.660156 L 187.0625 325.660156 L 188.703125 325.898438 L 190.210938 326.585938 L 191.460938 327.671875 L 192.355469 329.070313 L 193.304688 331.160156 L 194.339844 332.40625 L 195.109375 332.992188 L 197.195313 333.925781 L 198.105469 334.433594 L 199.957031 335.707031 L 201.609375 336.253906 L 203.554688 336.285156 L 204.527344 336.050781 L 205.5 335.605469 L 206.371094 334.988281 L 207.027344 334.296875 L 208.140625 332.207031 L 209.105469 327.835938 L 208.933594 325.769531 L 208.078125 323.910156 L 206.730469 322.539063 L 203.953125 321.222656 L 202.511719 320.253906 L 201.421875 318.898438 L 200.78125 317.285156 L 200.644531 315.554688 L 201.027344 313.859375 L 201.894531 312.351563 L 203.164063 311.167969 L 204.730469 310.414063 L 206.445313 310.152344 L 210.324219 310.152344 L 212.363281 310.523438 L 214.148438 311.585938 L 216.222656 313.398438 L 218.007813 314.152344 L 219.292969 314.304688 L 221.269531 314.070313 L 222.882813 314.105469 L 224.425781 314.582031 L 225.777344 315.464844 L 227.867188 317.289063 L 229.5625 318.011719 L 231.035156 318.203125 L 237.1875 317.914063 L 238.796875 318.0625 L 240.300781 318.648438 L 241.585938 319.625 L 242.554688 320.917969 L 243.941406 323.433594 L 245.277344 324.660156 L 246.941406 325.40625 L 249.691406 325.691406 L 251.527344 326.195313 L 253.101563 327.261719 L 254.246094 328.78125 L 254.839844 330.589844 L 254.820313 332.492188 L 254.328125 335.257813 L 254.828125 338.277344 L 254.859375 339.980469 L 254.832031 340.1875 L 253.664063 338.65625 L 252.601563 338.082031 L 245.550781 339.511719 L 244.589844 338.644531 L 243.40625 338.558594 L 241.210938 339.871094 L 241.886719 340.445313 L 246.324219 340.394531 L 249.617188 339.34375 L 251.976563 339.082031 L 254.382813 342.558594 L 254.753906 342.863281 L 255.453125 344.789063 L 257.414063 347.109375 L 258.46875 348.96875 L 258.78125 351.082031 L 258.691406 353.410156 L 259.132813 355.652344 L 260.390625 357.859375 L 262.601563 360.449219 L 264.316406 361.796875 L 265.386719 362.898438 L 266.132813 364.238281 L 266.503906 365.726563 L 266.699219 367.503906 L 264.953125 369.09375 L 261.394531 373.164063 L 260.601563 374.816406 L 262.84375 374.3125 L 264.9375 375.519531 L 266.9375 378.226563 L 270.21875 378.804688 L 270.625 378.746094 L 271.910156 376.796875 L 272.234375 374.960938 L 273.28125 372.230469 L 274.269531 372.316406 L 276.570313 372.046875 L 277.695313 371.664063 L 278.832031 370.992188 L 279.84375 370.140625 L 283.34375 370.234375 L 284.253906 370.867188 L 286.703125 370.742188 L 293.949219 371.515625 L 296.914063 372.84375 L 304.070313 378.085938 L 305.367188 380.105469 L 306.730469 384.164063 L 307.179688 391.25 L 306.777344 393.191406 L 306.890625 393.976563 L 305.789063 396.917969 L 303.519531 407.832031 L 297.144531 414.53125 L 295.578125 412.011719 L 292.742188 410.515625 L 292.480469 410.636719 L 293.898438 413.703125 L 295.890625 416.628906 L 296.3125 416.765625 L 296.164063 417.742188 L 294.574219 419.804688 L 292.191406 421.289063 L 290.003906 421.65625 L 289.660156 421.574219 L 288.214844 419.332031 L 284.976563 421.730469 L 280.71875 424.230469 L 282.339844 425.378906 L 285.105469 424.398438 L 286.097656 423.375 L 286.894531 423.164063 L 287.328125 423.710938 L 287.632813 428.84375 L 285.6875 430.875 L 283.441406 432.558594 L 282.84375 432.699219 L 279.644531 432.160156 L 274.75 433.78125 L 272.609375 436.117188 L 274.253906 436.015625 L 275.152344 434.667969 L 276.683594 434.363281 L 278.285156 434.328125 L 281.054688 434.949219 L 281.828125 435.589844 L 281.691406 436.328125 L 279.554688 436.347656 L 277.390625 437.65625 L 277.96875 438.546875 L 281.382813 438.964844 L 286.863281 440.339844 L 289.394531 439.9375 L 291.074219 438.957031 L 299.742188 437.757813 L 300.988281 440.148438 L 300.773438 446.324219 L 300.335938 447.820313 L 299.394531 449.050781 L 296.972656 450.242188 L 295.839844 450.375 L 292.621094 451.640625 L 291.179688 452.742188 L 289.847656 454.226563 L 289.460938 455.09375 L 289.214844 456.324219 L 289.464844 457.886719 L 286.253906 458.289063 L 284.1875 457.9375 L 281.042969 460.90625 L 278.484375 461.933594 L 274.789063 462.777344 L 272.597656 463.816406 L 270.539063 466.589844 L 269.761719 466.949219 L 259.269531 463.777344 L 256.070313 463.507813 L 244.628906 465.699219 L 242.703125 466.390625 L 242.113281 466.964844 L 241.902344 467.984375 L 241.359375 468.164063 L 238.210938 466.1875 L 238.632813 465.4375 L 239.46875 464.933594 L 237.714844 463.296875 L 231.496094 463.171875 L 231.378906 463.496094 L 232.574219 464.835938 L 232.214844 465.75 L 231.738281 466.042969 L 226.691406 465.496094 L 219.566406 468.449219 L 217.054688 467.824219 L 210.222656 468.96875 L 208.164063 468.875 L 207.273438 468.058594 L 206.238281 469.769531 L 209.429688 471.089844 L 209.714844 470.9375 L 210.1875 472.128906 L 209.566406 473.890625 L 206.84375 474.453125 L 204.453125 473.097656 L 203.015625 472.699219 L 197.625 472.007813 L 196.175781 472.65625 L 195.679688 473.863281 L 195.832031 474.871094 L 196.757813 475.523438 L 196.488281 476.304688 L 195.917969 475.996094 L 194.851563 473.972656 L 190.289063 470.589844 L 185.898438 468.519531 L 183.121094 467.984375 L 181.648438 469.066406 L 176.207031 469.78125 L 174.339844 470.335938 L 168.992188 473.234375 L 168.214844 474.070313 L 167.203125 476.179688 L 162.746094 489.226563 L 160.929688 490.242188 L 158.269531 489.722656 L 157.554688 489.058594 L 156.527344 486.851563 L 154.683594 485.4375 L 153.613281 485.542969 L 152.417969 486.300781 L 151.738281 486.164063 L 148.46875 482.535156 L 142.796875 482.960938 L 141.527344 483.375 L 140.734375 484.175781 L 139.910156 484.507813 L 134.507813 484.320313 L 132.167969 484.859375 L 129.414063 488.195313 L 126.714844 489.746094 L 124.039063 490.597656 L 123.132813 494.289063 L 123.664063 495.292969 L 123.496094 496.125 L 122.722656 496.945313 L 120.660156 497.648438 L 119.628906 499.730469 L 118.675781 498.910156 L 117.96875 497.691406 L 118.09375 496.4375 L 117.15625 494.691406 L 115.984375 493.691406 L 112.253906 492.070313 L 111.410156 491.984375 L 110.375 492.488281 L 110.242188 494.183594 L 109.421875 495.128906 L 106.824219 495.664063 L 105.398438 494.824219 L 105.628906 491.574219 L 106.074219 490.5625 L 111.738281 488.078125 L 112.199219 488.253906 L 112.445313 488.9375 L 113.574219 489.15625 L 118.144531 485.910156 L 121.425781 483.085938 L 124.375 479.769531 L 125.210938 477.886719 L 124.875 476.421875 L 125.640625 474.519531 L 128.386719 473.238281 L 132.105469 472.640625 L 132.679688 471.785156 L 133.257813 469.527344 L 135.859375 467.5625 L 138.636719 464.640625 L 139.128906 458.542969 L 139.796875 454.753906 L 142.492188 455.105469 L 144.269531 456.015625 L 145.761719 455.429688 L 148.429688 452.488281 L 148.105469 447.519531 L 151.105469 446.613281 L 157.421875 446.269531 L 159.910156 445.683594 L 164.597656 446.761719 L 166.046875 446.148438 L 167.527344 446.515625 L 169.484375 447.285156 L 170.039063 448.109375 L 170.757813 448.421875 L 173.15625 448.464844 L 180.570313 447.503906 L 181.109375 445.632813 L 181.210938 443.15625 L 182.519531 440.25 L 190.867188 432.195313 L 195.792969 425.3125 L 197.929688 424.472656 L 198.285156 423.78125 L 198.070313 423.238281 L 197.8125 423.082031 L 196.09375 424.355469 L 192.90625 427.300781 L 190.570313 429.988281 L 189.222656 431.449219 L 185.628906 432.957031 L 183.714844 433.246094 L 182.441406 433.0625 L 178.394531 435.230469 L 177.398438 436.808594 L 177.039063 438.671875 L 176.445313 439.273438 L 174.058594 439.917969 L 170.558594 439.851563 L 166.820313 439 L 166.347656 438.652344 L 161.371094 433.375 L 159.03125 429.199219 L 155.65625 429.589844 L 149.269531 432.308594 L 149.113281 432.746094 L 147.203125 431.632813 L 146.917969 429.308594 L 148.539063 428.378906 L 150.066406 428.890625 L 151.640625 428.421875 L 152.765625 427.832031 L 153.085938 427.097656 L 152.808594 426.597656 L 147.785156 426.460938 L 143.210938 423.710938 L 139.503906 423.714844 L 136.765625 424.277344 L 136.292969 426.515625 L 135.777344 427.203125 L 133.742188 427.917969 L 132.394531 427.265625 L 131.648438 427.453125 L 129.4375 429.378906 L 126.53125 428.132813 L 127.425781 426.082031 L 128.796875 425.832031 L 131.792969 424.328125 L 131.226563 422.867188 L 130.640625 424.257813 L 127.769531 424.613281 L 122.949219 424.152344 L 121.496094 423.164063 L 124.125 421.78125 L 125.167969 421.753906 L 125.464844 421.238281 L 124.929688 417.953125 L 123.328125 417.210938 L 121.445313 417.105469 L 122.0625 415.152344 L 125.933594 413.378906 L 126.539063 411.90625 L 133.074219 411.34375 L 134.871094 409.289063 L 135.753906 407.632813 L 137.585938 406.550781 L 141.359375 406.660156 L 142.21875 406.390625 L 149.359375 401.828125 L 152.136719 398.207031 L 153.054688 396.195313 L 154.199219 391.746094 L 153.734375 388.820313 L 152.566406 386.542969 L 153.179688 384.597656 L 154.652344 381.796875 L 152.269531 378.203125 L 152.484375 376.460938 L 152.886719 376.273438 L 154.558594 376.046875 L 156.101563 376.0625 L 157.8125 376.335938 L 159.363281 377.101563 L 160.621094 378.285156 L 161.472656 379.789063 L 161.847656 381.480469 L 161.707031 383.203125 L 161.269531 385.074219 L 161.25 386.261719 L 161.976563 389.992188 L 162.335938 391.011719 L 163.578125 392.785156 L 165.34375 394.035156 L 166.222656 394.355469 L 167.339844 394.523438 L 168.582031 394.453125 L 169.660156 394.167969 L 170.765625 393.613281 L 171.894531 392.722656 L 172.6875 391.824219 L 173.1875 390.960938 L 173.667969 389.28125 L 173.5 386.054688 L 173.597656 384.644531 L 174.117188 381.96875 L 174.074219 381.070313 L 173.660156 379.390625 L 173.503906 377.660156 L 173.859375 375.964844 L 174.800781 373.453125 L 174.890625 371.550781 L 174.648438 370.449219 L 174.058594 369.210938 L 173.273438 368.226563 L 171.78125 367.019531 L 170.488281 365.558594 L 169.753906 363.753906 L 169.65625 361.808594 L 170.207031 359.941406 L 171.339844 358.359375 L 172.9375 357.238281 L 175.265625 356.132813 L 175.511719 355.90625 L 179.910156 359.441406 L 180.433594 358.429688 L 177.679688 353.460938 L 178.242188 352.835938 L 180.867188 352.449219 L 181.503906 352.695313 L 181.914063 353.875 L 182.898438 354.332031 L 184.078125 356.789063 L 185.613281 357.902344 L 188.359375 357.621094 L 190.335938 355.148438 L 189.90625 355.050781 L 188.667969 355.527344 L 188.3125 355.957031 L 186.378906 356.386719 L 183.8125 354.640625 L 180.285156 347 L 180.289063 346.984375 L 180.167969 345.992188 L 183.371094 340.257813 L 185.429688 339.015625 L 185.140625 338.578125 L 182.683594 338.460938 L 181.554688 337.164063 L 181.355469 336.117188 L 181.601563 331.078125 L 181.949219 330.421875 L 184.695313 329.191406 Z M 221.953125 341.175781 L 220.464844 341.238281 L 219.347656 341.511719 L 218.308594 342 L 217.382813 342.6875 L 216.613281 343.542969 L 216.03125 344.535156 L 215.652344 345.625 L 215.5 346.75 L 215.589844 347.996094 L 216.0625 349.691406 L 216.546875 350.722656 L 217.234375 351.664063 L 218.074219 352.429688 L 219.144531 353.066406 L 220.21875 353.4375 L 221.328125 353.582031 L 222.648438 353.476563 L 224.425781 352.9375 L 225.457031 352.433594 L 226.386719 351.730469 L 227.144531 350.875 L 227.726563 349.871094 L 228.234375 348.398438 L 228.40625 347.148438 L 228.316406 345.9375 L 227.976563 344.773438 L 227.394531 343.6875 L 226.675781 342.832031 L 225.707031 342.070313 L 224.617188 341.535156 L 223.425781 341.234375 Z M 195.097656 262.386719 L 193.8125 260.980469 L 193.054688 259.234375 L 192.894531 257.339844 L 193.359375 255.492188 L 194.394531 253.894531 L 196 252.136719 L 196.699219 250.742188 L 197.007813 249.097656 L 196.78125 246.742188 L 196.902344 244.882813 L 197.601563 243.160156 L 198.460938 242.15625 L 199.339844 242.761719 L 206.488281 246.65625 L 208.910156 251.429688 L 210.769531 253.9375 L 210.742188 253.980469 L 209.136719 255.742188 L 208.4375 257.136719 L 208.132813 258.78125 L 208.359375 261.136719 L 208.238281 262.992188 L 207.535156 264.714844 L 206.328125 266.128906 L 204.734375 267.089844 L 202.917969 267.496094 L 201.066406 267.308594 L 199.367188 266.546875 L 198 265.289063 L 196.722656 263.664063 Z M 144.289063 351.355469 L 145.773438 351.855469 L 147.269531 352.648438 L 148.433594 352.988281 L 149.628906 353.082031 L 149.988281 353.035156 L 151.039063 355.578125 L 155.546875 356.503906 L 154.066406 358.859375 L 150.984375 360.816406 L 147.425781 363.976563 L 146.109375 363.875 L 144.195313 361.613281 L 142.050781 357.363281 L 142.246094 352.273438 Z M 157.917969 358.546875 L 157.882813 359.695313 L 157.269531 361.410156 L 156.15625 362.851563 L 154.648438 363.875 L 151.925781 365.160156 L 149.804688 367.296875 L 148.664063 368.144531 L 149.308594 369.675781 L 150.0625 372.730469 L 150.097656 373.132813 L 145.449219 374.257813 L 143.757813 375.484375 L 142.039063 378.097656 L 136.757813 378.433594 L 136.636719 378.34375 L 136.28125 378 L 137.339844 376.066406 L 140.148438 373.019531 L 141.023438 372.414063 L 142.589844 371.953125 L 147.132813 367.984375 L 147.953125 364.523438 L 151.550781 360.582031 L 153.09375 359.609375 L 154.941406 359.808594 Z M 141.734375 358.875 L 141.003906 358.070313 L 139.230469 356.960938 L 138.828125 356.035156 L 139.253906 355.210938 L 140.597656 355.164063 L 141.484375 356.3125 L 142.226563 358.1875 Z M 286.679688 439.636719 L 283.058594 438.976563 L 282.164063 437.605469 L 282.484375 436.070313 L 286.839844 437.054688 L 287.960938 438.832031 Z M 136.210938 448.453125 L 135.929688 448.140625 L 136.109375 446.949219 L 136.398438 446.875 L 136.6875 448.207031 Z M 236.835938 466.113281 L 235.136719 465.644531 L 236.523438 463.683594 L 237.195313 464.164063 L 237.5 465.839844 Z M 228.117188 474.644531 L 222.296875 470.886719 L 220.207031 471.1875 L 221.476563 469.683594 L 227.316406 466.367188 L 232.550781 467.761719 L 234.171875 469.894531 L 231.242188 473.621094 L 229.960938 474.269531 Z M 88.429688 500.046875 L 88.566406 499.308594 L 88.941406 499.117188 L 89.34375 499.789063 Z M 88.429688 500.046875 "/>
<path style=" stroke:none;fill-rule:nonzero;fill:rgb(80.392157%,58.431373%,4.705882%);fill-opacity:1;" d="M 200.628906 300.460938 L 200.347656 302.257813 L 199.519531 303.878906 L 198.234375 305.167969 L 196.613281 305.992188 L 194.816406 306.277344 L 193.019531 305.992188 L 191.398438 305.167969 L 190.109375 303.878906 L 189.285156 302.257813 L 189 300.460938 L 189.285156 298.664063 L 190.109375 297.042969 L 191.398438 295.757813 L 193.019531 294.929688 L 194.816406 294.644531 L 196.613281 294.929688 L 198.234375 295.757813 L 199.519531 297.042969 L 200.347656 298.664063 Z M 200.628906 300.460938 "/>
<path style=" stroke:none;fill-rule:nonzero;fill:rgb(80.392157%,58.431373%,4.705882%);fill-opacity:1;" d="M 165.738281 246.183594 L 165.453125 247.980469 L 164.628906 249.601563 L 163.339844 250.890625 L 161.71875 251.714844 L 159.921875 252 L 158.125 251.714844 L 156.503906 250.890625 L 155.21875 249.601563 L 154.390625 247.980469 L 154.109375 246.183594 L 154.390625 244.386719 L 155.21875 242.765625 L 156.503906 241.480469 L 158.125 240.652344 L 159.921875 240.371094 L 161.71875 240.652344 L 163.339844 241.480469 L 164.628906 242.765625 L 165.453125 244.386719 Z M 165.738281 246.183594 "/>
<path style=" stroke:none;fill-rule:nonzero;fill:rgb(80.392157%,58.431373%,4.705882%);fill-opacity:1;" d="M 196.753906 288.832031 L 196.46875 290.628906 L 195.644531 292.25 L 194.355469 293.535156 L 192.734375 294.363281 L 190.9375 294.644531 L 189.140625 294.363281 L 187.519531 293.535156 L 186.234375 292.25 L 185.40625 290.628906 L 185.125 288.832031 L 185.40625 287.035156 L 186.234375 285.414063 L 187.519531 284.125 L 189.140625 283.300781 L 190.9375 283.015625 L 192.734375 283.300781 L 194.355469 284.125 L 195.644531 285.414063 L 196.46875 287.035156 Z M 196.753906 288.832031 "/>
<path style=" stroke:none;fill-rule:nonzero;fill:rgb(80.392157%,58.431373%,4.705882%);fill-opacity:1;" d="M 189 222.921875 L 188.714844 224.71875 L 187.890625 226.339844 L 186.601563 227.628906 L 184.980469 228.453125 L 183.183594 228.738281 L 181.386719 228.453125 L 179.765625 227.628906 L 178.480469 226.339844 L 178.15625 225.703125 L 179.84375 225.195313 L 184.609375 222.886719 L 186.457031 221.386719 L 187.289063 221.316406 L 188.820313 221.792969 Z M 177.878906 225.160156 L 177.652344 224.71875 L 177.371094 222.921875 L 177.652344 221.125 L 178.480469 219.503906 L 179.765625 218.21875 L 181.386719 217.390625 L 183.183594 217.109375 L 184.980469 217.390625 L 186.601563 218.21875 L 187.890625 219.503906 L 188.355469 220.417969 L 185.519531 221.085938 L 182.847656 221.226563 Z M 177.878906 225.160156 "/>
<path style=" stroke:none;fill-rule:nonzero;fill:rgb(80.392157%,58.431373%,4.705882%);fill-opacity:1;" d="M 189 230.675781 L 188.714844 232.472656 L 188.519531 232.859375 L 188.34375 232.882813 L 187.070313 232.078125 L 185.40625 232.042969 L 181.046875 235.800781 L 180.972656 235.996094 L 179.765625 235.382813 L 178.480469 234.09375 L 177.652344 232.472656 L 177.371094 230.675781 L 177.652344 228.878906 L 178.480469 227.257813 L 179.765625 225.972656 L 181.386719 225.144531 L 183.183594 224.863281 L 184.980469 225.144531 L 186.601563 225.972656 L 187.890625 227.257813 L 188.714844 228.878906 Z M 189 230.675781 "/>
<path style=" stroke:none;fill-rule:nonzero;fill:rgb(80.392157%,58.431373%,4.705882%);fill-opacity:1;" d="M 225.710938 293.195313 L 225.371094 293.535156 L 223.75 294.363281 L 221.953125 294.644531 L 220.15625 294.363281 L 218.535156 293.535156 L 217.25 292.25 L 216.421875 290.628906 L 216.136719 288.832031 L 216.421875 287.035156 L 217.25 285.414063 L 218.535156 284.125 L 220.15625 283.300781 L 221.953125 283.015625 L 222.542969 283.109375 L 222.984375 284.039063 L 223.773438 285.027344 Z M 225.710938 293.195313 "/>
<path style=" stroke:none;fill-rule:nonzero;fill:rgb(80.392157%,58.431373%,4.705882%);fill-opacity:1;" d="M 181.246094 288.832031 L 180.960938 290.628906 L 180.136719 292.25 L 178.847656 293.535156 L 177.226563 294.363281 L 175.429688 294.644531 L 173.632813 294.363281 L 172.011719 293.535156 L 171.859375 293.382813 L 174.074219 288.722656 L 176.464844 286.417969 L 178.757813 285.980469 L 180.191406 286.804688 L 180.808594 286.734375 L 180.960938 287.035156 Z M 171.902344 284.238281 L 172.011719 284.125 L 173.632813 283.300781 L 175.429688 283.015625 L 177.226563 283.300781 L 178.847656 284.125 L 180.066406 285.34375 L 180.035156 285.351563 L 174.65625 284.980469 L 172.566406 284.292969 Z M 171.902344 284.238281 "/>
<path style=" stroke:none;fill-rule:nonzero;fill:rgb(80.392157%,58.431373%,4.705882%);fill-opacity:1;" d="M 117.148438 184.652344 L 116.816406 184.980469 L 115.195313 185.808594 L 113.398438 186.09375 L 111.601563 185.808594 L 109.980469 184.980469 L 108.695313 183.695313 L 107.871094 182.074219 L 107.777344 181.492188 L 107.789063 181.460938 L 107.769531 181.441406 L 107.585938 180.277344 L 107.871094 178.480469 L 108.695313 176.859375 L 109.980469 175.570313 L 111.601563 174.746094 L 112.203125 174.652344 L 111.832031 177.386719 L 112.054688 181.640625 Z M 114.390625 174.617188 L 115.195313 174.746094 L 115.890625 175.101563 L 115.367188 179.941406 L 114.945313 180.566406 L 113.875 180.957031 L 113.53125 180.855469 L 113.277344 179.863281 L 113.640625 176.351563 Z M 116.207031 183.113281 L 115.0625 182.589844 L 114.59375 181.914063 L 114.695313 181.441406 L 115.34375 181.214844 L 116.664063 181.757813 L 116.886719 182.648438 Z M 116.207031 183.113281 "/>
<path style=" stroke:none;fill-rule:nonzero;fill:rgb(80.392157%,58.431373%,4.705882%);fill-opacity:1;" d="M 138.601563 246.183594 L 138.316406 247.980469 L 137.835938 248.921875 L 138.371094 244.730469 Z M 127.648438 243.617188 L 128.078125 242.765625 L 129.367188 241.480469 L 130.988281 240.652344 L 132.785156 240.371094 L 134.582031 240.652344 L 136.203125 241.480469 L 137.296875 242.574219 L 136.15625 245.152344 L 135.023438 244.945313 L 131.566406 242.222656 L 130.757813 242.5 L 130.269531 243.347656 L 130.09375 244.535156 L 130.664063 246.308594 L 130.519531 246.613281 L 128.257813 245.464844 Z M 134.8125 251.347656 L 132.589844 248.835938 L 130.84375 244.566406 L 130.707031 243.464844 L 131.460938 242.613281 L 133.71875 244.574219 L 134.707031 246.3125 L 135.339844 249.003906 L 135.222656 250.96875 Z M 134.8125 251.347656 "/>
<path style=" stroke:none;fill-rule:nonzero;fill:rgb(80.392157%,58.431373%,4.705882%);fill-opacity:1;" d="M 81.769531 193.75 L 80.585938 193.5625 L 78.964844 192.734375 L 78.71875 192.484375 L 80.441406 190.269531 L 81.117188 190.9375 L 81.808594 193.710938 Z M 81.664063 182.328125 L 82.382813 182.214844 L 84.183594 182.5 L 85.089844 182.960938 L 85.140625 186.4375 L 86.054688 188.15625 L 85.625 188.976563 L 84.328125 188.382813 L 82.6875 188.554688 L 82.128906 188.101563 L 81.921875 187.375 L 81.515625 184.671875 Z M 81.664063 182.328125 "/>
</g>
</svg>
