<?xml version="1.0" encoding="UTF-8"?>
<svg xmlns="http://www.w3.org/2000/svg" xmlns:xlink="http://www.w3.org/1999/xlink" width="378pt" height="504pt" viewBox="0 0 378 504" version="1.1">
<g id="data">
<rect x="0" y="0" width="378" height="504" style="fill:rgb(100%,100%,100%);fill-opacity:1;stroke:none;"/>
<path style=" stroke:none;fill-rule:nonzero;fill:rgb(100%,100%,100%);fill-opacity:1;" d="M 53.308594 504 L 324.691406 504 L 324.691406 0 L 53.308594 0 Z M 53.308594 504 "/>
<path style=" stroke:none;fill-rule:nonzero;fill:rgb(22.745098%,53.333333%,16.078431%);fill-opacity:1;" d="M 295.617188 385.753906 L 295.988281 387.875 L 296.804688 390.003906 L 298.019531 391.933594 L 299.492188 393.507813 L 299.210938 397.0625 L 300.015625 400.535156 L 301.371094 402.992188 L 303.371094 405.136719 L 300.640625 405.695313 L 298.121094 406.886719 L 294.949219 409.613281 L 293.753906 411.046875 L 292.742188 410.515625 L 292.480469 410.636719 L 293.113281 412.007813 L 292.261719 413.617188 L 291.597656 415.949219 L 291.425781 418.242188 L 291.738281 420.644531 L 290.691406 421.542969 L 290.003906 421.65625 L 289.660156 421.574219 L 288.214844 419.332031 L 284.976563 421.730469 L 280.71875 424.230469 L 282.339844 425.378906 L 285.105469 424.398438 L 286.097656 423.375 L 286.894531 423.164063 L 287.328125 423.710938 L 287.464844 426.007813 L 286.878906 427.535156 L 286.585938 429.9375 L 285.6875 430.875 L 283.441406 432.558594 L 282.84375 432.699219 L 279.644531 432.160156 L 274.75 433.78125 L 272.609375 436.117188 L 274.253906 436.015625 L 275.152344 434.667969 L 276.683594 434.363281 L 278.285156 434.328125 L 281.054688 434.949219 L 281.828125 435.589844 L 281.691406 436.328125 L 279.554688 436.347656 L 277.390625 437.65625 L 277.96875 438.546875 L 281.382813 438.964844 L 286.863281 440.339844 L 289.394531 439.9375 L 290.695313 439.175781 L 291.738281 440.03125 L 293.445313 442.199219 L 295.617188 443.90625 L 291.738281 443.90625 L 288.125 442.601563 L 284.285156 442.546875 L 281.925781 443.164063 L 279.746094 444.257813 L 277.753906 445.878906 L 276.230469 447.785156 L 273.753906 447.105469 L 271.1875 446.992188 L 268.65625 447.441406 L 266.289063 448.433594 L 263.113281 451.027344 L 261.039063 454.558594 L 260.0625 459.03125 L 260.195313 461.195313 L 260.722656 463.292969 L 259.378906 461.570313 L 257.738281 460.128906 L 253.925781 458.316406 L 251.644531 457.941406 L 249.464844 458.011719 L 247.332031 458.488281 L 245.214844 459.414063 L 243.238281 457.988281 L 241.003906 457.007813 L 238.617188 456.511719 L 236.050781 456.539063 L 232.71875 457.464844 L 229.707031 459.414063 L 227.230469 458.835938 L 224.8125 458.792969 L 221.953125 459.414063 L 219.019531 459.621094 L 216.234375 460.554688 L 214.371094 461.683594 L 212.753906 463.132813 L 211.363281 464.972656 L 210.324219 467.167969 L 208.160156 468.871094 L 207.273438 468.058594 L 206.238281 469.769531 L 207.152344 470.148438 L 206.445313 471.046875 L 194.816406 471.046875 L 194.816406 467.167969 L 195.480469 463.417969 L 194.816406 459.414063 L 195.125 457.136719 L 194.976563 454.84375 L 193.628906 451.007813 L 190.9375 447.785156 L 192.992188 446.046875 L 194.59375 443.886719 L 195.65625 441.414063 L 196.121094 438.765625 L 198.761719 440.070313 L 201.644531 440.667969 L 204.078125 440.601563 L 206.445313 440.03125 L 210.066406 440.691406 L 213.714844 440.191406 L 216.613281 438.851563 L 219.042969 436.777344 L 220.8125 434.121094 L 221.796875 431.082031 L 222.113281 426.648438 L 221.882813 423.238281 L 221.359375 420.855469 L 220.351563 418.632813 L 217.886719 415.6875 L 214.714844 413.753906 L 211.480469 412.949219 L 206.445313 412.890625 L 206.445313 405.136719 L 209.023438 404 L 211.25 402.277344 L 212.996094 400.070313 L 214.199219 397.382813 L 216.707031 399.511719 L 219.710938 400.851563 L 223.078125 401.394531 L 225.832031 401.261719 L 229.960938 401.925781 L 236.152344 401.125 L 238.382813 400.523438 L 241.09375 399.058594 L 243.40625 396.832031 L 245.019531 394.058594 L 245.8125 390.953125 L 245.816406 388.382813 L 245.214844 385.753906 L 245.214844 381.875 L 245.988281 378.632813 L 245.832031 375.429688 L 244.804688 372.390625 L 242.902344 369.652344 L 240.410156 367.632813 L 237.460938 366.371094 L 240.609375 364.683594 L 243.09375 362.121094 L 244.6875 358.925781 L 245.234375 355.398438 L 245.660156 357.925781 L 246.695313 360.414063 L 248.273438 362.597656 L 250.308594 364.359375 L 253.550781 365.890625 L 259.070313 366.917969 L 261.867188 366.976563 L 264.601563 366.371094 L 265.644531 368.464844 L 264.953125 369.09375 L 261.394531 373.164063 L 260.601563 374.816406 L 262.84375 374.3125 L 264.9375 375.519531 L 266.9375 378.226563 L 270.21875 378.804688 L 270.625 378.746094 L 271.910156 376.796875 L 272.234375 374.960938 L 272.800781 373.480469 L 274.738281 373.902344 L 278.183594 373.613281 L 281.386719 372.324219 L 283.695313 370.476563 L 284.074219 370.742188 L 284.394531 372.488281 L 285.171875 374.496094 L 286.390625 376.429688 L 287.863281 378 L 289.714844 381.640625 L 292.285156 384.128906 Z M 243.105469 342.738281 L 245.214844 343.109375 L 244.476563 344.636719 Z M 187.0625 374.125 L 188.871094 374.945313 L 187.707031 377.328125 Z M 286.679688 439.636719 L 283.058594 438.976563 L 282.164063 437.605469 L 282.484375 436.070313 L 286.839844 437.054688 L 287.960938 438.832031 Z M 286.679688 439.636719 "/>
<path style=" stroke:none;fill-rule:nonzero;fill:rgb(80.392157%,58.431373%,4.705882%);fill-opacity:1;" d="M 208.382813 346.984375 L 208.101563 348.78125 L 207.273438 350.402344 L 205.988281 351.6875 L 204.367188 352.515625 L 202.570313 352.800781 L 200.773438 352.515625 L 199.152344 351.6875 L 197.863281 350.402344 L 197.039063 348.78125 L 196.753906 346.984375 L 197.039063 345.1875 L 197.863281 343.566406 L 199.152344 342.28125 L 200.773438 341.453125 L 202.570313 341.167969 L 204.367188 341.453125 L 205.988281 342.28125 L 207.273438 343.566406 L 208.101563 345.1875 Z M 208.382813 346.984375 "/>
<path style=" stroke:none;fill-rule:nonzero;fill:rgb(80.392157%,58.431373%,4.705882%);fill-opacity:1;" d="M 208.382813 370.246094 L 208.101563 372.042969 L 207.273438 373.664063 L 205.988281 374.949219 L 204.367188 375.777344 L 202.570313 376.0625 L 200.773438 375.777344 L 199.152344 374.949219 L 197.863281 373.664063 L 197.039063 372.042969 L 196.753906 370.246094 L 197.039063 368.449219 L 197.863281 366.828125 L 199.152344 365.542969 L 200.773438 364.714844 L 202.570313 364.429688 L 204.367188 364.714844 L 205.988281 365.542969 L 207.273438 366.828125 L 208.101563 368.449219 Z M 208.382813 370.246094 "/>
<path style=" stroke:none;fill-rule:nonzero;fill:rgb(80.392157%,58.431373%,4.705882%);fill-opacity:1;" d="M 227.769531 335.355469 L 227.484375 337.152344 L 226.660156 338.773438 L 225.371094 340.058594 L 223.75 340.882813 L 221.953125 341.167969 L 220.15625 340.882813 L 218.535156 340.058594 L 217.25 338.773438 L 216.421875 337.152344 L 216.136719 335.355469 L 216.421875 333.558594 L 217.25 331.9375 L 218.535156 330.648438 L 220.15625 329.824219 L 221.953125 329.539063 L 223.75 329.824219 L 225.371094 330.648438 L 226.660156 331.9375 L 227.484375 333.558594 Z M 227.769531 335.355469 "/>
<path style=" stroke:none;fill-rule:nonzero;fill:rgb(80.392157%,58.431373%,4.705882%);fill-opacity:1;" d="M 227.769531 319.847656 L 227.484375 321.644531 L 226.660156 323.265625 L 225.371094 324.550781 L 223.75 325.375 L 221.953125 325.660156 L 220.15625 325.375 L 218.535156 324.550781 L 217.25 323.265625 L 216.421875 321.644531 L 216.136719 319.847656 L 216.421875 318.050781 L 217.25 316.429688 L 218.535156 315.140625 L 220.15625 314.316406 L 221.953125 314.03125 L 223.75 314.316406 L 225.371094 315.140625 L 226.660156 316.429688 L 227.484375 318.050781 Z M 227.769531 319.847656 "/>
<path style=" stroke:none;fill-rule:nonzero;fill:rgb(80.392157%,58.431373%,4.705882%);fill-opacity:1;" d="M 204.507813 257.816406 L 204.222656 259.613281 L 203.398438 261.234375 L 202.109375 262.519531 L 200.488281 263.347656 L 198.691406 263.628906 L 196.894531 263.347656 L 195.273438 262.519531 L 193.988281 261.234375 L 193.160156 259.613281 L 192.875 257.816406 L 193.160156 256.019531 L 193.988281 254.398438 L 195.273438 253.109375 L 196.894531 252.285156 L 198.691406 252 L 200.488281 252.285156 L 202.109375 253.109375 L 203.398438 254.398438 L 204.222656 256.019531 Z M 204.507813 257.816406 "/>
<path style=" stroke:none;fill-rule:nonzero;fill:rgb(80.392157%,58.431373%,4.705882%);fill-opacity:1;" d="M 243.085938 340.433594 L 242.167969 342.648438 L 240.878906 343.933594 L 239.257813 344.761719 L 237.460938 345.046875 L 235.664063 344.761719 L 234.042969 343.933594 L 232.757813 342.648438 L 231.929688 341.027344 L 231.644531 339.230469 L 231.929688 337.433594 L 232.757813 335.8125 L 234.042969 334.527344 L 235.664063 333.699219 L 237.460938 333.414063 L 239.257813 333.699219 L 240.878906 334.527344 L 242.167969 335.8125 L 242.992188 337.433594 L 243.191406 338.6875 L 241.210938 339.871094 L 241.886719 340.445313 Z M 243.085938 340.433594 "/>
<path style=" stroke:none;fill-rule:nonzero;fill:rgb(80.392157%,58.431373%,4.705882%);fill-opacity:1;" d="M 169.617188 362.492188 L 169.332031 364.289063 L 168.503906 365.910156 L 167.21875 367.195313 L 165.597656 368.023438 L 163.800781 368.308594 L 162.003906 368.023438 L 160.382813 367.195313 L 159.09375 365.910156 L 158.269531 364.289063 L 157.984375 362.492188 L 158.269531 360.695313 L 159.09375 359.074219 L 160.382813 357.789063 L 161.097656 357.421875 L 163.644531 357.28125 L 167.21875 357.789063 L 168.503906 359.074219 L 169.332031 360.695313 Z M 169.617188 362.492188 "/>
<path style=" stroke:none;fill-rule:nonzero;fill:rgb(80.392157%,58.431373%,4.705882%);fill-opacity:1;" d="M 196.683594 424.960938 L 196.46875 426.320313 L 195.644531 427.941406 L 194.355469 429.226563 L 192.355469 430.113281 L 195.792969 425.3125 Z M 190.335938 430.242188 L 189.140625 430.054688 L 187.519531 429.226563 L 186.234375 427.941406 L 185.40625 426.320313 L 185.125 424.523438 L 185.40625 422.726563 L 186.234375 421.105469 L 187.519531 419.816406 L 189.140625 418.992188 L 190.9375 418.707031 L 192.734375 418.992188 L 194.355469 419.816406 L 195.644531 421.105469 L 196.46875 422.726563 L 196.660156 423.9375 L 192.90625 427.300781 Z M 190.335938 430.242188 "/>
<path style=" stroke:none;fill-rule:nonzero;fill:rgb(80.392157%,58.431373%,4.705882%);fill-opacity:1;" d="M 150.230469 420.644531 L 149.945313 422.441406 L 149.121094 424.0625 L 147.832031 425.351563 L 146.808594 425.875 L 143.210938 423.710938 L 139.535156 423.714844 L 138.882813 422.441406 L 138.601563 420.644531 L 138.882813 418.847656 L 139.710938 417.226563 L 140.996094 415.941406 L 142.617188 415.117188 L 144.414063 414.832031 L 146.210938 415.117188 L 147.832031 415.941406 L 149.121094 417.226563 L 149.945313 418.847656 Z M 150.230469 420.644531 "/>
<path style=" stroke:none;fill-rule:nonzero;fill:rgb(80.392157%,58.431373%,4.705882%);fill-opacity:1;" d="M 196.753906 428.398438 L 196.46875 430.195313 L 195.644531 431.816406 L 194.355469 433.105469 L 192.734375 433.929688 L 190.9375 434.214844 L 189.09375 433.90625 L 190.867188 432.195313 L 195.808594 425.304688 L 196.46875 426.601563 Z M 186.859375 432.441406 L 185.40625 430.195313 L 185.125 428.398438 L 185.40625 426.601563 L 186.234375 424.980469 L 187.519531 423.695313 L 189.140625 422.871094 L 190.9375 422.585938 L 192.734375 422.871094 L 194.355469 423.695313 L 195.535156 424.871094 L 192.90625 427.300781 L 189.222656 431.449219 Z M 186.859375 432.441406 "/>
<path style=" stroke:none;fill-rule:nonzero;fill:rgb(80.392157%,58.431373%,4.705882%);fill-opacity:1;" d="M 167.007813 476.753906 L 165.878906 476.578125 L 164.257813 475.75 L 162.972656 474.464844 L 162.144531 472.84375 L 161.863281 471.046875 L 162.144531 469.25 L 162.972656 467.628906 L 164.257813 466.339844 L 165.878906 465.515625 L 167.675781 465.230469 L 169.472656 465.515625 L 171.09375 466.339844 L 172.382813 467.628906 L 173.207031 469.25 L 173.457031 470.816406 L 168.992188 473.234375 L 168.214844 474.070313 Z M 167.007813 476.753906 "/>
<path style=" stroke:none;fill-rule:nonzero;fill:rgb(80.392157%,58.431373%,4.705882%);fill-opacity:1;" d="M 177.347656 447.921875 L 177.085938 449.582031 L 176.257813 451.203125 L 174.972656 452.488281 L 173.351563 453.316406 L 171.554688 453.601563 L 169.757813 453.316406 L 168.136719 452.488281 L 166.847656 451.203125 L 166.023438 449.582031 L 165.738281 447.785156 L 166.046875 446.148438 L 169.484375 447.285156 L 170.039063 448.109375 L 170.757813 448.421875 L 173.15625 448.464844 Z M 177.347656 447.921875 "/>
<path style=" stroke:none;fill-rule:nonzero;fill:rgb(80.392157%,58.431373%,4.705882%);fill-opacity:1;" d="M 191.269531 114.40625 L 190.480469 115.195313 L 189.15625 115.871094 L 186.777344 113.90625 L 184.832031 114.03125 L 183.105469 114.65625 L 182.355469 113.910156 L 181.53125 112.289063 L 181.246094 110.492188 L 181.53125 108.695313 L 182.355469 107.074219 L 183.820313 105.699219 L 184.519531 106.003906 L 186.230469 108.273438 L 187.324219 111.371094 L 189.425781 112.382813 L 190.734375 113.441406 Z M 191.269531 114.40625 "/>
<path style=" stroke:none;fill-rule:nonzero;fill:rgb(80.392157%,58.431373%,4.705882%);fill-opacity:1;" d="M 88.429688 500.046875 L 88.566406 499.308594 L 88.941406 499.117188 L 89.34375 499.789063 Z M 88.429688 500.046875 "/>
</g>
</svg>
