<?xml version="1.0" encoding="UTF-8"?>
<svg xmlns="http://www.w3.org/2000/svg" xmlns:xlink="http://www.w3.org/1999/xlink" width="378pt" height="504pt" viewBox="0 0 378 504" version="1.1">
<g id="data">
<rect x="0" y="0" width="378" height="504" style="fill:rgb(100%,100%,100%);fill-opacity:1;stroke:none;"/>
<path style=" stroke:none;fill-rule:nonzero;fill:rgb(100%,100%,100%);fill-opacity:1;" d="M 53.308594 504 L 324.691406 504 L 324.691406 0 L 53.308594 0 Z M 53.308594 504 "/>
<path style=" stroke:none;fill-rule:nonzero;fill:rgb(22.745098%,53.333333%,16.078431%);fill-opacity:1;" d="M 264.601563 401.261719 L 266.84375 400.851563 L 268.851563 400.074219 L 270.78125 398.859375 L 272.355469 397.382813 L 276.230469 397.382813 L 278.691406 399.605469 L 281.675781 401.039063 L 284.691406 401.566406 L 287.863281 401.261719 L 289.941406 402.757813 L 292.417969 403.796875 L 295.070313 404.238281 L 297.753906 404.0625 L 301.355469 402.757813 L 304.253906 400.449219 L 305.4375 398.613281 L 303.519531 407.832031 L 298.152344 413.46875 L 296.863281 414.078125 L 295.578125 412.011719 L 292.742188 410.515625 L 292.480469 410.636719 L 293.898438 413.703125 L 295.097656 415.46875 L 294.464844 415.980469 L 292.734375 418.316406 L 293.207031 414.148438 L 292.222656 410.199219 L 290.203125 407.109375 L 286.1875 403.589844 L 283.078125 401.902344 L 276.804688 400.253906 L 273.476563 400.238281 L 270.28125 401.167969 L 267.980469 402.558594 L 266.136719 404.339844 L 264.671875 406.597656 L 263.792969 409.003906 L 263.554688 413.210938 L 264.601563 416.769531 L 264.730469 419.289063 L 265.351563 421.605469 L 263.085938 420.890625 L 260.722656 420.644531 L 261.75 417.230469 L 261.710938 413.792969 L 260.671875 410.515625 L 258.71875 407.683594 L 260.679688 406.496094 L 262.28125 405.042969 L 263.589844 403.320313 Z M 272.355469 432.277344 L 272.160156 430.160156 L 271.582031 428.109375 L 273.746094 428.808594 L 275.878906 429.066406 L 280.765625 428.417969 L 280.113281 432.238281 L 279.644531 432.160156 L 279.289063 432.277344 Z M 229.707031 436.152344 L 233.390625 435.773438 L 236.765625 434.253906 L 239.492188 431.753906 L 241.339844 428.398438 L 241.039063 431.699219 L 241.640625 434.828125 L 243.066406 437.675781 L 245.214844 440.03125 L 245.214844 447.785156 L 243.09375 448.160156 L 240.964844 448.972656 L 239.035156 450.1875 L 237.460938 451.660156 L 237.28125 448.84375 L 236.425781 446.148438 L 234.945313 443.742188 L 232.828125 441.683594 L 230.261719 440.226563 L 227.535156 439.480469 L 224.710938 439.414063 L 221.953125 440.03125 L 222.097656 439.597656 L 224.363281 439.242188 L 226.625 438.390625 Z M 214.96875 374.8125 L 216.796875 372.714844 L 218.078125 370.246094 L 219.648438 371.71875 L 221.578125 372.933594 L 223.710938 373.75 L 225.832031 374.125 L 224.359375 375.695313 L 223.144531 377.625 L 222.328125 379.753906 L 221.953125 381.875 L 219.578125 383.96875 L 218.078125 381.875 L 217.679688 379.632813 L 216.855469 377.507813 Z M 210.324219 401.261719 L 212.589844 400.859375 L 214.734375 400.019531 L 216.671875 398.773438 L 218.242188 397.265625 L 219.859375 399.484375 L 221.953125 401.261719 L 222.449219 404.617188 L 223.890625 407.691406 L 220.996094 408.058594 L 218.390625 409.074219 L 216.105469 410.679688 L 214.199219 412.890625 L 214.503906 409.722656 L 213.9375 406.585938 L 212.46875 403.617188 Z M 210.324219 424.523438 L 207.71875 423.640625 L 204.980469 423.390625 L 207.71875 422.453125 L 210.042969 420.949219 Z M 190.9375 424.523438 L 190.957031 419.988281 L 194.816406 420.644531 L 196.863281 422.125 L 199.183594 423.125 L 202.929688 423.632813 L 199.820313 424.765625 L 197.152344 426.726563 L 195.210938 429.25 L 193.996094 432.328125 L 192.679688 430.199219 L 192.457031 429.96875 L 195.792969 425.3125 L 197.929688 424.472656 L 198.285156 423.78125 L 198.070313 423.238281 L 197.8125 423.082031 L 196.09375 424.355469 L 192.90625 427.300781 L 191.472656 428.953125 L 190.9375 428.398438 Z M 150.296875 463.386719 L 151.761719 461.148438 L 152.671875 458.636719 L 154.066406 461.175781 L 156.046875 463.292969 L 153.167969 462.980469 Z M 150.296875 463.386719 "/>
<path style=" stroke:none;fill-rule:nonzero;fill:rgb(80.392157%,58.431373%,4.705882%);fill-opacity:1;" d="M 223.890625 339.230469 L 223.609375 341.027344 L 222.78125 342.648438 L 221.496094 343.933594 L 219.875 344.761719 L 218.078125 345.046875 L 216.28125 344.761719 L 214.660156 343.933594 L 213.371094 342.648438 L 212.546875 341.027344 L 212.261719 339.230469 L 212.546875 337.433594 L 213.371094 335.8125 L 214.660156 334.527344 L 216.28125 333.699219 L 218.078125 333.414063 L 219.875 333.699219 L 221.496094 334.527344 L 222.78125 335.8125 L 223.609375 337.433594 Z M 223.890625 339.230469 "/>
<path style=" stroke:none;fill-rule:nonzero;fill:rgb(80.392157%,58.431373%,4.705882%);fill-opacity:1;" d="M 204.507813 374.125 L 204.222656 375.921875 L 203.398438 377.542969 L 202.109375 378.828125 L 200.488281 379.652344 L 198.691406 379.9375 L 196.894531 379.652344 L 195.273438 378.828125 L 193.988281 377.542969 L 193.160156 375.921875 L 192.875 374.125 L 193.160156 372.324219 L 193.988281 370.703125 L 195.273438 369.417969 L 196.894531 368.59375 L 198.691406 368.308594 L 200.488281 368.59375 L 202.109375 369.417969 L 203.398438 370.703125 L 204.222656 372.324219 Z M 204.507813 374.125 "/>
<path style=" stroke:none;fill-rule:nonzero;fill:rgb(80.392157%,58.431373%,4.705882%);fill-opacity:1;" d="M 204.507813 346.984375 L 204.222656 348.78125 L 203.398438 350.402344 L 202.109375 351.6875 L 200.488281 352.515625 L 198.691406 352.800781 L 196.894531 352.515625 L 195.273438 351.6875 L 193.988281 350.402344 L 193.160156 348.78125 L 192.875 346.984375 L 193.160156 345.1875 L 193.988281 343.566406 L 195.273438 342.28125 L 196.894531 341.453125 L 198.691406 341.167969 L 200.488281 341.453125 L 202.109375 342.28125 L 203.398438 343.566406 L 204.222656 345.1875 Z M 204.507813 346.984375 "/>
<path style=" stroke:none;fill-rule:nonzero;fill:rgb(80.392157%,58.431373%,4.705882%);fill-opacity:1;" d="M 251.03125 370.246094 L 250.746094 372.042969 L 249.921875 373.664063 L 248.632813 374.949219 L 247.011719 375.777344 L 245.214844 376.0625 L 243.417969 375.777344 L 241.796875 374.949219 L 240.511719 373.664063 L 239.683594 372.042969 L 239.398438 370.246094 L 239.683594 368.449219 L 240.511719 366.828125 L 241.796875 365.542969 L 243.417969 364.714844 L 245.214844 364.429688 L 247.011719 364.714844 L 248.632813 365.542969 L 249.921875 366.828125 L 250.746094 368.449219 Z M 251.03125 370.246094 "/>
<path style=" stroke:none;fill-rule:nonzero;fill:rgb(80.392157%,58.431373%,4.705882%);fill-opacity:1;" d="M 251.03125 405.136719 L 250.746094 406.933594 L 249.921875 408.558594 L 248.632813 409.84375 L 247.011719 410.667969 L 245.214844 410.953125 L 243.417969 410.667969 L 241.796875 409.84375 L 240.511719 408.558594 L 239.683594 406.933594 L 239.398438 405.136719 L 239.683594 403.339844 L 240.511719 401.71875 L 241.796875 400.433594 L 243.417969 399.609375 L 245.214844 399.324219 L 247.011719 399.609375 L 248.632813 400.433594 L 249.921875 401.71875 L 250.746094 403.339844 Z M 251.03125 405.136719 "/>
<path style=" stroke:none;fill-rule:nonzero;fill:rgb(80.392157%,58.431373%,4.705882%);fill-opacity:1;" d="M 185.125 455.539063 L 184.839844 457.335938 L 184.011719 458.957031 L 182.726563 460.242188 L 181.105469 461.070313 L 179.308594 461.355469 L 177.511719 461.070313 L 175.890625 460.242188 L 174.601563 458.957031 L 173.777344 457.335938 L 173.492188 455.539063 L 173.777344 453.742188 L 174.601563 452.121094 L 175.890625 450.832031 L 177.511719 450.007813 L 179.308594 449.722656 L 181.105469 450.007813 L 182.726563 450.832031 L 184.011719 452.121094 L 184.839844 453.742188 Z M 185.125 455.539063 "/>
<path style=" stroke:none;fill-rule:nonzero;fill:rgb(80.392157%,58.431373%,4.705882%);fill-opacity:1;" d="M 189 409.015625 L 188.714844 410.8125 L 187.890625 412.433594 L 186.601563 413.71875 L 184.980469 414.546875 L 183.183594 414.832031 L 181.386719 414.546875 L 179.765625 413.71875 L 178.480469 412.433594 L 177.652344 410.8125 L 177.371094 409.015625 L 177.652344 407.21875 L 178.480469 405.597656 L 179.765625 404.3125 L 181.386719 403.484375 L 183.183594 403.199219 L 184.980469 403.484375 L 186.601563 404.3125 L 187.890625 405.597656 L 188.714844 407.21875 Z M 189 409.015625 "/>
<path style=" stroke:none;fill-rule:nonzero;fill:rgb(80.392157%,58.431373%,4.705882%);fill-opacity:1;" d="M 200.628906 440.03125 L 200.347656 441.828125 L 199.519531 443.449219 L 198.234375 444.734375 L 196.613281 445.5625 L 194.816406 445.847656 L 193.019531 445.5625 L 191.398438 444.734375 L 190.109375 443.449219 L 189.285156 441.828125 L 189 440.03125 L 189.285156 438.234375 L 190.109375 436.613281 L 191.398438 435.324219 L 193.019531 434.5 L 194.816406 434.214844 L 196.613281 434.5 L 198.234375 435.324219 L 199.519531 436.613281 L 200.347656 438.234375 Z M 200.628906 440.03125 "/>
<path style=" stroke:none;fill-rule:nonzero;fill:rgb(80.392157%,58.431373%,4.705882%);fill-opacity:1;" d="M 239.398438 412.890625 L 239.117188 414.6875 L 238.289063 416.308594 L 237.003906 417.597656 L 235.382813 418.421875 L 233.585938 418.707031 L 231.789063 418.421875 L 230.167969 417.597656 L 228.878906 416.308594 L 228.054688 414.6875 L 227.769531 412.890625 L 228.054688 411.09375 L 228.878906 409.472656 L 230.167969 408.1875 L 231.789063 407.363281 L 233.585938 407.078125 L 235.382813 407.363281 L 237.003906 408.1875 L 238.289063 409.472656 L 239.117188 411.09375 Z M 239.398438 412.890625 "/>
<path style=" stroke:none;fill-rule:nonzero;fill:rgb(80.392157%,58.431373%,4.705882%);fill-opacity:1;" d="M 196.753906 296.585938 L 196.46875 298.382813 L 195.644531 300.003906 L 194.355469 301.289063 L 192.734375 302.117188 L 190.9375 302.398438 L 189.140625 302.117188 L 187.519531 301.289063 L 186.234375 300.003906 L 185.40625 298.382813 L 185.125 296.585938 L 185.40625 294.789063 L 186.234375 293.167969 L 187.519531 291.878906 L 189.140625 291.054688 L 190.9375 290.769531 L 192.734375 291.054688 L 194.355469 291.878906 L 195.644531 293.167969 L 196.46875 294.789063 Z M 196.753906 296.585938 "/>
<path style=" stroke:none;fill-rule:nonzero;fill:rgb(80.392157%,58.431373%,4.705882%);fill-opacity:1;" d="M 150.230469 467.167969 L 149.945313 468.964844 L 149.121094 470.585938 L 147.832031 471.875 L 146.210938 472.699219 L 144.414063 472.984375 L 142.617188 472.699219 L 140.996094 471.875 L 139.710938 470.585938 L 138.882813 468.964844 L 138.601563 467.167969 L 138.882813 465.371094 L 139.710938 463.75 L 140.996094 462.464844 L 142.617188 461.636719 L 144.414063 461.355469 L 146.210938 461.636719 L 147.832031 462.464844 L 149.121094 463.75 L 149.945313 465.371094 Z M 150.230469 467.167969 "/>
<path style=" stroke:none;fill-rule:nonzero;fill:rgb(80.392157%,58.431373%,4.705882%);fill-opacity:1;" d="M 208.382813 253.9375 L 208.101563 255.734375 L 207.273438 257.355469 L 205.988281 258.644531 L 204.367188 259.46875 L 202.570313 259.753906 L 200.773438 259.46875 L 199.152344 258.644531 L 197.863281 257.355469 L 197.039063 255.734375 L 196.753906 253.9375 L 197.039063 252.140625 L 197.863281 250.519531 L 199.152344 249.234375 L 200.773438 248.40625 L 202.570313 248.125 L 204.367188 248.40625 L 205.988281 249.234375 L 207.273438 250.519531 L 208.101563 252.140625 Z M 208.382813 253.9375 "/>
<path style=" stroke:none;fill-rule:nonzero;fill:rgb(80.392157%,58.431373%,4.705882%);fill-opacity:1;" d="M 157.984375 246.183594 L 157.699219 247.980469 L 156.875 249.601563 L 155.585938 250.890625 L 153.964844 251.714844 L 152.167969 252 L 150.371094 251.714844 L 148.75 250.890625 L 147.464844 249.601563 L 146.636719 247.980469 L 146.355469 246.183594 L 146.636719 244.386719 L 147.234375 243.214844 L 148.300781 243.253906 L 147.464844 242.765625 L 148.75 241.480469 L 150.371094 240.652344 L 152.167969 240.371094 L 153.964844 240.652344 L 155.585938 241.480469 L 156.875 242.765625 L 157.699219 244.386719 Z M 157.984375 246.183594 "/>
<path style=" stroke:none;fill-rule:nonzero;fill:rgb(80.392157%,58.431373%,4.705882%);fill-opacity:1;" d="M 285.921875 455.539063 L 285.242188 458.117188 L 284.1875 457.9375 L 281.042969 460.90625 L 279.980469 461.332031 L 278.3125 461.070313 L 276.691406 460.242188 L 275.402344 458.957031 L 274.578125 457.335938 L 274.292969 455.539063 L 274.578125 453.742188 L 275.402344 452.121094 L 276.691406 450.832031 L 278.3125 450.007813 L 280.109375 449.722656 L 281.90625 450.007813 L 283.527344 450.832031 L 284.8125 452.121094 L 285.636719 453.742188 Z M 285.921875 455.539063 "/>
<path style=" stroke:none;fill-rule:nonzero;fill:rgb(80.392157%,58.431373%,4.705882%);fill-opacity:1;" d="M 285.921875 374.125 L 285.636719 375.921875 L 284.8125 377.542969 L 283.527344 378.828125 L 281.90625 379.652344 L 280.109375 379.9375 L 278.3125 379.652344 L 276.691406 378.828125 L 275.402344 377.542969 L 274.578125 375.921875 L 274.292969 374.125 L 274.578125 372.324219 L 275.402344 370.703125 L 277.851563 370.085938 L 283.34375 370.234375 L 284.253906 370.867188 L 284.878906 370.835938 L 285.636719 372.324219 Z M 285.921875 374.125 "/>
<path style=" stroke:none;fill-rule:nonzero;fill:rgb(80.392157%,58.431373%,4.705882%);fill-opacity:1;" d="M 157.984375 451.660156 L 157.699219 453.457031 L 156.875 455.078125 L 155.585938 456.367188 L 153.964844 457.191406 L 152.167969 457.476563 L 150.371094 457.191406 L 148.75 456.367188 L 147.464844 455.078125 L 146.964844 454.101563 L 148.429688 452.488281 L 148.109375 447.597656 L 151.105469 446.613281 L 154.542969 446.425781 L 155.585938 446.957031 L 156.875 448.242188 L 157.699219 449.863281 Z M 157.984375 451.660156 "/>
<path style=" stroke:none;fill-rule:nonzero;fill:rgb(80.392157%,58.431373%,4.705882%);fill-opacity:1;" d="M 161.863281 389.628906 L 161.578125 391.429688 L 160.75 393.050781 L 159.464844 394.335938 L 157.84375 395.160156 L 156.046875 395.445313 L 153.429688 394.742188 L 154.199219 391.746094 L 153.734375 388.820313 L 152.566406 386.542969 L 153.160156 384.652344 L 154.25 384.101563 L 156.046875 383.816406 L 157.84375 384.101563 L 159.464844 384.925781 L 160.75 386.210938 L 161.578125 387.832031 Z M 161.863281 389.628906 "/>
<path style=" stroke:none;fill-rule:nonzero;fill:rgb(80.392157%,58.431373%,4.705882%);fill-opacity:1;" d="M 270.414063 463.292969 L 270.128906 465.089844 L 269.226563 466.789063 L 258.855469 463.742188 L 258.785156 463.292969 L 259.070313 461.496094 L 259.894531 459.875 L 261.183594 458.585938 L 262.804688 457.761719 L 264.601563 457.476563 L 266.398438 457.761719 L 268.019531 458.585938 L 269.304688 459.875 L 270.128906 461.496094 Z M 270.414063 463.292969 "/>
<path style=" stroke:none;fill-rule:nonzero;fill:rgb(80.392157%,58.431373%,4.705882%);fill-opacity:1;" d="M 161.863281 428.398438 L 161.578125 430.195313 L 160.589844 431.980469 L 159.03125 429.199219 L 155.65625 429.589844 L 151.175781 431.496094 L 150.515625 430.195313 L 150.296875 428.820313 L 152.765625 427.832031 L 153.085938 427.097656 L 152.808594 426.597656 L 150.550781 426.535156 L 151.339844 424.980469 L 152.628906 423.695313 L 154.25 422.871094 L 156.046875 422.585938 L 157.84375 422.871094 L 159.464844 423.695313 L 160.75 424.980469 L 161.578125 426.601563 Z M 161.863281 428.398438 "/>
<path style=" stroke:none;fill-rule:nonzero;fill:rgb(80.392157%,58.431373%,4.705882%);fill-opacity:1;" d="M 220.015625 467.167969 L 219.832031 468.339844 L 219.566406 468.449219 L 217.054688 467.824219 L 210.222656 468.96875 L 208.65625 468.894531 L 208.382813 467.167969 L 208.667969 465.371094 L 209.496094 463.75 L 210.78125 462.464844 L 212.402344 461.636719 L 214.199219 461.355469 L 215.996094 461.636719 L 217.617188 462.464844 L 218.90625 463.75 L 219.730469 465.371094 Z M 220.015625 467.167969 "/>
<path style=" stroke:none;fill-rule:nonzero;fill:rgb(80.392157%,58.431373%,4.705882%);fill-opacity:1;" d="M 189 343.109375 L 188.714844 344.90625 L 187.890625 346.527344 L 186.601563 347.8125 L 184.980469 348.636719 L 183.183594 348.921875 L 180.933594 348.40625 L 179.976563 346.332031 L 183.371094 340.257813 L 185.429688 339.015625 L 185.140625 338.578125 L 182.683594 338.460938 L 181.851563 337.503906 L 183.183594 337.292969 L 184.980469 337.578125 L 186.601563 338.402344 L 187.890625 339.691406 L 188.714844 341.3125 Z M 189 343.109375 "/>
<path style=" stroke:none;fill-rule:nonzero;fill:rgb(80.392157%,58.431373%,4.705882%);fill-opacity:1;" d="M 200.847656 472.421875 L 200.628906 471.046875 L 200.914063 469.25 L 201.742188 467.628906 L 203.027344 466.339844 L 204.648438 465.515625 L 206.445313 465.230469 L 208.242188 465.515625 L 209.863281 466.339844 L 211.152344 467.628906 L 211.707031 468.71875 L 208.164063 468.875 L 207.273438 468.058594 L 206.238281 469.769531 L 209.429688 471.089844 L 209.714844 470.9375 L 210.1875 472.128906 L 209.566406 473.890625 L 206.84375 474.453125 L 204.453125 473.097656 Z M 200.847656 472.421875 "/>
<path style=" stroke:none;fill-rule:nonzero;fill:rgb(80.392157%,58.431373%,4.705882%);fill-opacity:1;" d="M 167.644531 475.257813 L 166.847656 474.464844 L 166.023438 472.84375 L 165.738281 471.046875 L 166.023438 469.25 L 166.847656 467.628906 L 168.136719 466.339844 L 169.757813 465.515625 L 171.554688 465.230469 L 173.351563 465.515625 L 174.972656 466.339844 L 176.257813 467.628906 L 177.148438 469.65625 L 174.339844 470.335938 L 168.992188 473.234375 Z M 167.644531 475.257813 "/>
<path style=" stroke:none;fill-rule:nonzero;fill:rgb(80.392157%,58.431373%,4.705882%);fill-opacity:1;" d="M 306.390625 395.3125 L 305.449219 395.160156 L 303.828125 394.335938 L 302.542969 393.050781 L 301.714844 391.429688 L 301.429688 389.628906 L 301.714844 387.832031 L 302.542969 386.210938 L 303.828125 384.925781 L 305.449219 384.101563 L 306.644531 383.910156 L 307.179688 391.25 L 306.777344 393.191406 L 306.890625 393.976563 Z M 306.390625 395.3125 "/>
<path style=" stroke:none;fill-rule:nonzero;fill:rgb(80.392157%,58.431373%,4.705882%);fill-opacity:1;" d="M 146.355469 405.136719 L 146.070313 406.933594 L 145.242188 408.558594 L 143.957031 409.84375 L 142.335938 410.667969 L 140.539063 410.953125 L 138.742188 410.667969 L 137.121094 409.84375 L 135.554688 408.007813 L 137.585938 406.550781 L 141.359375 406.660156 L 142.21875 406.390625 L 146.152344 403.875 Z M 146.355469 405.136719 "/>
<path style=" stroke:none;fill-rule:nonzero;fill:rgb(80.392157%,58.431373%,4.705882%);fill-opacity:1;" d="M 169.183594 356.828125 L 168.503906 358.15625 L 167.21875 359.441406 L 165.597656 360.269531 L 163.800781 360.554688 L 162.003906 360.269531 L 160.382813 359.441406 L 159.050781 358.066406 L 160.492188 357.457031 L 163.644531 357.28125 L 167.339844 357.714844 Z M 169.183594 356.828125 "/>
</g>
</svg>
