<?xml version="1.0" encoding="UTF-8"?>
<svg xmlns="http://www.w3.org/2000/svg" xmlns:xlink="http://www.w3.org/1999/xlink" width="378pt" height="504pt" viewBox="0 0 378 504" version="1.1">
<g id="data">
<rect x="0" y="0" width="378" height="504" style="fill:rgb(100%,100%,100%);fill-opacity:1;stroke:none;"/>
<path style=" stroke:none;fill-rule:nonzero;fill:rgb(100%,100%,100%);fill-opacity:1;" d="M 53.308594 504 L 324.691406 504 L 324.691406 0 L 53.308594 0 Z M 53.308594 504 "/>
<path style=" stroke:none;fill-rule:nonzero;fill:rgb(22.745098%,53.333333%,16.078431%);fill-opacity:1;" d="M 300.621094 375.558594 L 301.199219 376.292969 L 303.371094 378 L 303.777344 380.242188 L 304.558594 382.25 L 305.695313 384.082031 L 306.800781 385.273438 L 306.945313 387.511719 L 306.582031 389.628906 L 307.003906 392.097656 L 306.777344 393.191406 L 306.882813 393.9375 L 305.050781 396.121094 L 303.679688 399.386719 L 303.210938 402.886719 L 303.34375 408.019531 L 297.144531 414.53125 L 295.578125 412.011719 L 292.742188 410.515625 L 292.480469 410.636719 L 293.898438 413.703125 L 295.816406 416.519531 L 295.617188 416.769531 L 293.902344 418.042969 L 292.375 419.710938 L 291.261719 421.445313 L 290.003906 421.65625 L 289.660156 421.574219 L 288.214844 419.332031 L 284.976563 421.730469 L 280.71875 424.230469 L 282.339844 425.378906 L 285.105469 424.398438 L 286.097656 423.375 L 286.894531 423.164063 L 287.328125 423.710938 L 287.632813 428.84375 L 285.6875 430.875 L 283.441406 432.558594 L 282.84375 432.699219 L 279.644531 432.160156 L 274.75 433.78125 L 272.609375 436.117188 L 274.253906 436.015625 L 275.152344 434.667969 L 276.683594 434.363281 L 278.285156 434.328125 L 281.054688 434.949219 L 281.828125 435.589844 L 281.691406 436.328125 L 279.554688 436.347656 L 277.390625 437.65625 L 277.96875 438.546875 L 281.382813 438.964844 L 286.863281 440.339844 L 289.394531 439.9375 L 291.074219 438.957031 L 294.59375 438.46875 L 295.304688 438.902344 L 297.347656 439.664063 L 299.492188 440.03125 L 299.492188 447.785156 L 296.761719 448.34375 L 294.246094 449.535156 L 289.839844 453.105469 L 287.863281 455.539063 L 285.847656 456.363281 L 284.019531 457.550781 L 281.660156 460.070313 L 281.433594 460.539063 L 281.042969 460.90625 L 278.484375 461.933594 L 274.789063 462.777344 L 273.777344 463.257813 L 250.96875 463.128906 L 247.585938 463.515625 L 244.171875 464.84375 L 241.339844 467.167969 L 240.136719 467.394531 L 238.210938 466.1875 L 238.632813 465.4375 L 239.46875 464.933594 L 237.714844 463.296875 L 231.496094 463.171875 L 231.378906 463.496094 L 232.574219 464.835938 L 232.214844 465.75 L 231.738281 466.042969 L 226.691406 465.496094 L 219.566406 468.449219 L 217.054688 467.824219 L 210.222656 468.96875 L 208.164063 468.875 L 207.273438 468.058594 L 206.238281 469.769531 L 209.429688 471.089844 L 209.714844 470.9375 L 209.988281 471.625 L 208.570313 472.519531 L 206.863281 474.449219 L 206.84375 474.453125 L 204.453125 473.097656 L 204.105469 473 L 203.613281 472.597656 L 200.320313 471.296875 L 197.320313 470.898438 L 194.816406 471.046875 L 191.195313 470.382813 L 190.195313 470.542969 L 185.898438 468.519531 L 183.121094 467.984375 L 182.402344 468.511719 L 179.949219 468.101563 L 177.386719 468.242188 L 174.445313 469.148438 L 171.554688 471.046875 L 168.714844 472.242188 L 166.847656 473.609375 L 165.289063 475.316406 L 163.839844 477.886719 L 163.082031 480.742188 L 163.070313 483.691406 L 163.738281 486.316406 L 163.660156 486.554688 L 156.136719 486.554688 L 154.683594 485.4375 L 153.613281 485.542969 L 152.417969 486.300781 L 151.867188 486.1875 L 150.007813 483.949219 L 149.257813 483.414063 L 148.46875 482.535156 L 148.082031 482.5625 L 146.089844 481.125 L 142.964844 479.972656 L 139.640625 479.75 L 135.910156 480.675781 L 132.785156 482.675781 L 130.484375 482.90625 L 128.273438 483.585938 L 126.351563 484.621094 L 124.558594 486.082031 L 122.753906 488.417969 L 121.597656 491.132813 L 121.011719 495.554688 L 121.117188 497.496094 L 120.882813 497.574219 L 120.015625 495.609375 L 118.292969 493.382813 L 115.976563 491.566406 L 113.398438 490.429688 L 116.007813 489.910156 L 118.429688 488.816406 L 120.355469 487.371094 L 123.003906 484.613281 L 124.304688 482.421875 L 125.097656 479.996094 L 125.34375 477.457031 L 125.136719 475.769531 L 125.445313 475.003906 L 128.429688 475.585938 L 131.875 475.214844 L 134.945313 473.917969 L 137.609375 471.703125 L 138.902344 469.941406 L 139.890625 467.851563 L 140.441406 465.605469 L 140.539063 463.292969 L 143.6875 461.601563 L 146.101563 459.140625 L 147.84375 455.589844 L 148.164063 452.78125 L 148.429688 452.488281 L 148.371094 451.59375 L 151.222656 449.117188 L 153.152344 446.5 L 157.421875 446.269531 L 159.910156 445.683594 L 164.597656 446.761719 L 166.046875 446.148438 L 167.527344 446.515625 L 169.484375 447.285156 L 170.039063 448.109375 L 170.757813 448.421875 L 173.15625 448.464844 L 180.570313 447.503906 L 181.109375 445.632813 L 181.210938 443.15625 L 182.519531 440.25 L 190.867188 432.195313 L 195.792969 425.3125 L 197.929688 424.472656 L 198.285156 423.78125 L 198.070313 423.238281 L 197.8125 423.082031 L 196.09375 424.355469 L 192.90625 427.300781 L 190.570313 429.988281 L 189.222656 431.449219 L 185.628906 432.957031 L 183.714844 433.246094 L 182.441406 433.0625 L 178.394531 435.230469 L 177.398438 436.808594 L 177.039063 438.671875 L 176.445313 439.273438 L 174.058594 439.917969 L 170.558594 439.851563 L 166.820313 439 L 166.347656 438.652344 L 161.371094 433.375 L 159.117188 429.351563 L 161.476563 429.71875 L 164.289063 429.46875 L 166.960938 428.546875 L 169.527344 426.84375 L 171.554688 424.523438 L 175.605469 424.035156 L 179.136719 422.257813 L 181.570313 419.816406 L 183.183594 416.769531 L 185.230469 416 L 187.09375 414.859375 L 188.800781 413.296875 L 190.09375 411.539063 L 191.28125 408.835938 L 191.753906 405.792969 L 190.414063 397.089844 L 189.3125 394.640625 L 187.675781 392.507813 L 185.597656 390.808594 L 183.183594 389.628906 L 186.703125 387.550781 L 189.21875 384.492188 L 190.585938 380.636719 L 190.558594 376.675781 L 189.328125 373.179688 L 187.0625 370.246094 L 187.609375 368.019531 L 187.703125 365.605469 L 187.328125 363.34375 L 186.414063 360.832031 L 185.300781 358.976563 L 183.859375 357.359375 L 182.148438 356.039063 L 180.21875 355.054688 L 183.445313 355.476563 L 184.078125 356.789063 L 185.613281 357.902344 L 188.359375 357.621094 L 190.335938 355.148438 L 189.90625 355.050781 L 188.667969 355.527344 L 188.3125 355.957031 L 186.378906 356.386719 L 184.878906 355.367188 L 187.890625 354.734375 L 190.253906 353.460938 L 192.265625 351.675781 L 193.8125 349.480469 L 194.816406 346.984375 L 197.929688 347.625 L 201.097656 347.398438 L 204.613281 346.214844 L 207.371094 344.335938 L 209.734375 341.308594 L 210.960938 337.796875 L 211.113281 334.976563 L 210.324219 331.476563 L 210.324219 327.601563 L 211.753906 329.414063 L 213.410156 330.835938 L 215.304688 331.925781 L 217.367188 332.640625 L 219.527344 332.957031 L 221.710938 332.863281 L 223.835938 332.363281 L 225.832031 331.476563 L 225.324219 335.667969 L 226.351563 339.765625 L 228.769531 343.222656 L 232.261719 345.59375 L 235.605469 346.496094 L 239.1875 346.351563 L 242.445313 345.183594 L 245.214844 343.109375 L 246.222656 345.460938 L 247.636719 347.441406 L 250.066406 349.523438 L 252.96875 350.863281 L 254.675781 353.03125 L 256.847656 354.738281 L 258.050781 357.425781 L 259.890625 359.722656 L 262.023438 361.355469 L 264.601563 362.492188 L 266.761719 365.09375 L 268.160156 366.171875 L 264.953125 369.09375 L 261.394531 373.164063 L 260.601563 374.816406 L 262.84375 374.3125 L 264.9375 375.519531 L 266.9375 378.226563 L 270.21875 378.804688 L 270.625 378.746094 L 271.910156 376.796875 L 272.234375 374.960938 L 273.40625 371.914063 L 274.707031 370.632813 L 276.652344 370.292969 L 276.976563 370.347656 L 283.375 370.253906 L 284.253906 370.867188 L 284.6875 370.84375 L 286.984375 372.804688 L 290.792969 374.242188 L 293.082031 374.4375 L 298.714844 374.160156 Z M 233.210938 471.117188 L 231.21875 471.488281 L 229.105469 472.351563 L 227.058594 473.960938 L 222.296875 470.886719 L 221.347656 471.023438 L 220.632813 470.679688 L 221.476563 469.683594 L 227.316406 466.367188 L 232.550781 467.761719 L 234.171875 469.894531 Z M 151.683594 431.28125 L 150.542969 428.949219 L 150.390625 428.792969 L 151.640625 428.421875 L 152.765625 427.832031 L 153.085938 427.097656 L 152.808594 426.597656 L 148.089844 426.46875 L 147.847656 426.222656 L 145.238281 424.929688 L 144.292969 424.363281 L 142.882813 422.53125 L 140.539063 420.644531 L 138.148438 418.023438 L 134.484375 416.027344 L 137.136719 414.050781 L 139.0625 411.519531 L 140.257813 408.433594 L 140.410156 406.632813 L 141.359375 406.660156 L 142.21875 406.390625 L 149.359375 401.828125 L 152.136719 398.207031 L 153.054688 396.195313 L 154.199219 391.746094 L 153.933594 390.058594 L 156.046875 389.628906 L 156.046875 393.507813 L 155.382813 397.382813 L 156.046875 401.261719 L 153.480469 401.398438 L 151.125 402.046875 L 148.960938 403.171875 L 147.074219 404.722656 L 145.558594 406.636719 L 144.425781 408.941406 L 143.832031 411.441406 L 143.789063 413.882813 L 144.804688 417.855469 L 146.753906 421.007813 L 149.265625 423.183594 L 152.167969 424.523438 L 153.910156 426.582031 L 156.082031 428.1875 L 158.601563 429.246094 L 155.65625 429.589844 Z M 152.167969 242.308594 L 154.429688 244.273438 L 156.996094 245.558594 L 154.488281 245.625 L 152.167969 246.183594 Z M 124.792969 417.144531 L 125.03125 416.769531 L 125.289063 416.859375 Z M 286.679688 439.636719 L 283.058594 438.976563 L 282.164063 437.605469 L 282.484375 436.070313 L 286.839844 437.054688 L 287.960938 438.832031 Z M 236.835938 466.113281 L 235.136719 465.644531 L 236.523438 463.683594 L 237.195313 464.164063 L 237.5 465.839844 Z M 236.835938 466.113281 "/>
<path style=" stroke:none;fill-rule:nonzero;fill:rgb(80.392157%,58.431373%,4.705882%);fill-opacity:1;" d="M 192.875 331.476563 L 192.59375 333.273438 L 191.765625 334.894531 L 190.480469 336.183594 L 188.859375 337.007813 L 187.0625 337.292969 L 185.265625 337.007813 L 183.644531 336.183594 L 182.355469 334.894531 L 181.503906 333.097656 L 181.601563 331.078125 L 181.949219 330.421875 L 184.695313 329.191406 L 186.21875 325.796875 L 187.0625 325.660156 L 188.859375 325.945313 L 190.480469 326.773438 L 191.765625 328.058594 L 192.59375 329.679688 Z M 192.875 331.476563 "/>
<path style=" stroke:none;fill-rule:nonzero;fill:rgb(80.392157%,58.431373%,4.705882%);fill-opacity:1;" d="M 177.371094 172.523438 L 177.085938 174.320313 L 176.257813 175.941406 L 174.972656 177.226563 L 173.351563 178.054688 L 171.554688 178.339844 L 169.757813 178.054688 L 168.136719 177.226563 L 166.847656 175.941406 L 166.023438 174.320313 L 165.738281 172.523438 L 165.976563 171.027344 L 170.480469 169.527344 L 170.492188 169.949219 L 171.554688 169.839844 L 173.589844 168.316406 L 173.902344 167.273438 L 174.972656 167.816406 L 176.257813 169.105469 L 177.085938 170.726563 Z M 177.371094 172.523438 "/>
<path style=" stroke:none;fill-rule:nonzero;fill:rgb(80.392157%,58.431373%,4.705882%);fill-opacity:1;" d="M 182.046875 221.859375 L 181.53125 220.84375 L 181.246094 219.046875 L 181.53125 217.25 L 182.355469 215.628906 L 183.644531 214.339844 L 185.265625 213.515625 L 187.0625 213.230469 L 188.859375 213.515625 L 190.480469 214.339844 L 191.765625 215.628906 L 192.59375 217.25 L 192.78125 218.449219 L 191.214844 219.742188 L 185.519531 221.085938 L 182.847656 221.226563 Z M 188.9375 224.535156 L 187.0625 224.863281 L 185.265625 224.578125 L 183.375 223.484375 L 184.609375 222.886719 L 186.457031 221.386719 L 187.289063 221.316406 L 189.085938 221.875 L 189.332031 222.921875 Z M 188.9375 224.535156 "/>
<path style=" stroke:none;fill-rule:nonzero;fill:rgb(80.392157%,58.431373%,4.705882%);fill-opacity:1;" d="M 181.183594 242.707031 L 180.960938 244.105469 L 180.136719 245.726563 L 178.847656 247.011719 L 177.226563 247.839844 L 175.429688 248.125 L 173.632813 247.839844 L 172.011719 247.011719 L 170.726563 245.726563 L 169.898438 244.105469 L 169.617188 242.308594 L 169.914063 240.480469 L 178.0625 241.875 Z M 171.105469 238.507813 L 172.011719 237.601563 L 173.632813 236.777344 L 175.429688 236.492188 L 177.226563 236.777344 L 179.0625 237.816406 L 174.761719 240.109375 Z M 171.105469 238.507813 "/>
<path style=" stroke:none;fill-rule:nonzero;fill:rgb(80.392157%,58.431373%,4.705882%);fill-opacity:1;" d="M 142.476563 288.832031 L 142.191406 290.628906 L 141.75 291.5 L 140.164063 290.433594 L 138.398438 288.636719 L 137.464844 288.296875 L 135.511719 289.683594 L 134.605469 291.238281 L 135.660156 294.488281 L 134.363281 294.105469 L 131.007813 289.851563 L 130.847656 288.832031 L 131.128906 287.035156 L 131.957031 285.414063 L 133.242188 284.125 L 134.863281 283.300781 L 136.660156 283.015625 L 138.457031 283.300781 L 140.078125 284.125 L 141.367188 285.414063 L 142.191406 287.035156 Z M 142.476563 288.832031 "/>
<path style=" stroke:none;fill-rule:nonzero;fill:rgb(80.392157%,58.431373%,4.705882%);fill-opacity:1;" d="M 169.617188 358.617188 L 169.332031 360.414063 L 168.503906 362.035156 L 167.21875 363.320313 L 165.597656 364.144531 L 163.800781 364.429688 L 162.003906 364.144531 L 160.382813 363.320313 L 159.09375 362.035156 L 158.269531 360.414063 L 157.984375 358.617188 L 160.492188 357.457031 L 163.644531 357.28125 L 167.339844 357.714844 L 169.304688 356.765625 Z M 169.617188 358.617188 "/>
<path style=" stroke:none;fill-rule:nonzero;fill:rgb(80.392157%,58.431373%,4.705882%);fill-opacity:1;" d="M 192.875 323.722656 L 192.59375 325.519531 L 191.765625 327.140625 L 190.480469 328.429688 L 188.859375 329.253906 L 187.0625 329.539063 L 184.777344 329.007813 L 187.28125 323.421875 L 187.835938 318.03125 L 188.859375 318.191406 L 190.480469 319.019531 L 191.765625 320.304688 L 192.59375 321.925781 Z M 181.480469 322.242188 L 182.355469 320.304688 L 183.644531 319.019531 L 185.265625 318.191406 L 187.375 317.957031 L 184.742188 320.527344 Z M 181.480469 322.242188 "/>
<path style=" stroke:none;fill-rule:nonzero;fill:rgb(80.392157%,58.431373%,4.705882%);fill-opacity:1;" d="M 141.363281 372.316406 L 142.335938 372.46875 L 143.957031 373.296875 L 145.140625 374.480469 L 143.757813 375.484375 L 142.039063 378.097656 L 136.757813 378.433594 L 136.246094 378.0625 L 137.339844 376.066406 L 140.148438 373.019531 Z M 141.363281 372.316406 "/>
</g>
</svg>
