<?xml version="1.0" encoding="UTF-8"?>
<svg xmlns="http://www.w3.org/2000/svg" xmlns:xlink="http://www.w3.org/1999/xlink" width="378pt" height="504pt" viewBox="0 0 378 504" version="1.1">
<g id="data">
<rect x="0" y="0" width="378" height="504" style="fill:rgb(100%,100%,100%);fill-opacity:1;stroke:none;"/>
<path style=" stroke:none;fill-rule:nonzero;fill:rgb(100%,100%,100%);fill-opacity:1;" d="M 53.308594 504 L 324.691406 504 L 324.691406 0 L 53.308594 0 Z M 53.308594 504 "/>
<path style=" stroke:none;fill-rule:nonzero;fill:rgb(22.745098%,53.333333%,16.078431%);fill-opacity:1;" d="M 300.621094 375.558594 L 301.199219 376.292969 L 303.371094 378 L 305.4375 380.519531 L 305.53125 380.585938 L 306.730469 384.164063 L 307.179688 391.25 L 306.777344 393.191406 L 306.890625 393.976563 L 305.789063 396.917969 L 305.183594 399.824219 L 303.925781 402.410156 L 303.246094 406.136719 L 303.328125 408.035156 L 297.144531 414.53125 L 295.578125 412.011719 L 292.742188 410.515625 L 292.480469 410.636719 L 293.898438 413.703125 L 295.808594 416.511719 L 295.617188 416.769531 L 293.441406 416.972656 L 291.222656 417.628906 L 289.179688 418.710938 L 288.28125 419.4375 L 288.214844 419.332031 L 284.976563 421.730469 L 280.71875 424.230469 L 282.339844 425.378906 L 284.789063 424.511719 L 284.003906 427.757813 L 284.101563 430.839844 L 284.386719 431.851563 L 283.441406 432.558594 L 282.84375 432.699219 L 279.644531 432.160156 L 274.75 433.78125 L 272.609375 436.117188 L 274.253906 436.015625 L 275.152344 434.667969 L 276.683594 434.363281 L 278.285156 434.328125 L 281.054688 434.949219 L 281.828125 435.589844 L 281.691406 436.328125 L 279.554688 436.347656 L 277.390625 437.65625 L 277.96875 438.546875 L 281.382813 438.964844 L 286.863281 440.339844 L 289.394531 439.9375 L 290.351563 439.378906 L 290.949219 439.734375 L 293.785156 440.5625 L 296.605469 440.660156 L 299.492188 440.03125 L 299.457031 444.808594 L 298.859375 447.695313 L 297.742188 449.863281 L 296.972656 450.242188 L 295.839844 450.375 L 292.621094 451.640625 L 291.179688 452.742188 L 289.847656 454.226563 L 289.460938 455.09375 L 289.417969 455.296875 L 286.605469 455.710938 L 284.535156 456.3125 L 282.191406 457.566406 L 280.109375 459.414063 L 277.742188 459.859375 L 275.628906 460.71875 L 270.640625 464.566406 L 268.878906 466.683594 L 267.261719 466.195313 L 265.421875 464.71875 L 261.605469 463.398438 L 258.847656 463.128906 L 245.214844 463.292969 L 242.863281 462.726563 L 240.574219 462.652344 L 237.730469 463.308594 L 237.714844 463.296875 L 231.496094 463.171875 L 231.378906 463.496094 L 232.574219 464.835938 L 232.214844 465.75 L 231.738281 466.042969 L 226.691406 465.496094 L 219.566406 468.449219 L 217.054688 467.824219 L 214.820313 468.199219 L 214.199219 468.085938 L 210.050781 468.851563 L 209.882813 468.953125 L 208.164063 468.875 L 207.273438 468.058594 L 206.238281 469.769531 L 207.609375 470.335938 L 206.445313 471.046875 L 204.691406 467.925781 L 201.960938 465.414063 L 198.582031 463.890625 L 194.894531 463.507813 L 192.738281 463.832031 L 190.683594 464.554688 L 188.695313 465.726563 L 187.0625 467.167969 L 184.835938 466.621094 L 182.546875 466.523438 L 176.457031 467.769531 L 173.636719 469.199219 L 169.894531 472.273438 L 170.960938 469.996094 L 171.554688 467.167969 L 172.753906 464.058594 L 173.046875 461.636719 L 172.851563 459.335938 L 172.105469 456.878906 L 170.839844 454.644531 L 165.578125 449.28125 L 169.0625 447.117188 L 169.484375 447.285156 L 170.039063 448.109375 L 170.757813 448.421875 L 173.15625 448.464844 L 180.570313 447.503906 L 181.109375 445.632813 L 181.210938 443.15625 L 182.519531 440.25 L 190.867188 432.195313 L 195.792969 425.3125 L 197.929688 424.472656 L 198.285156 423.78125 L 198.070313 423.238281 L 197.8125 423.082031 L 196.09375 424.355469 L 192.90625 427.300781 L 190.570313 429.988281 L 189.222656 431.449219 L 185.628906 432.957031 L 183.714844 433.246094 L 182.441406 433.0625 L 178.394531 435.230469 L 177.398438 436.808594 L 177.039063 438.671875 L 176.445313 439.273438 L 174.929688 439.683594 L 175.351563 438.328125 L 175.429688 432.277344 L 176.730469 430.53125 L 177.726563 428.449219 L 178.273438 426.34375 L 178.414063 424.042969 L 177.492188 419.933594 L 175.167969 416.421875 L 171.746094 413.96875 L 167.675781 412.890625 L 169.070313 411.234375 L 170.132813 409.347656 L 171.121094 405.28125 L 171.554688 405.136719 L 175.3125 405.945313 L 178.628906 405.617188 L 181.832031 404.296875 L 184.585938 401.992188 L 186.234375 399.542969 L 188.066406 395.023438 L 188.542969 392.238281 L 188.335938 389.425781 L 187.34375 386.511719 L 185.535156 383.863281 L 183.183594 381.875 L 181.296875 379.53125 L 177.964844 376.632813 L 174.941406 374.746094 L 171.359375 373.851563 L 167.675781 374.125 L 165.425781 373.660156 L 163.003906 373.65625 L 159.324219 374.671875 L 156.261719 376.734375 L 154.40625 375.246094 L 152.90625 374.492188 L 153.175781 374.082031 L 152.804688 373.207031 L 152.257813 373.1875 L 152.472656 370.953125 L 151.867188 367.695313 L 150.441406 364.847656 L 149.050781 363.324219 L 151.550781 360.582031 L 153.09375 359.609375 L 154.941406 359.808594 L 160.492188 357.457031 L 163.644531 357.28125 L 167.339844 357.714844 L 172.597656 355.179688 L 173.933594 355.046875 L 174.484375 355.082031 L 179.910156 359.441406 L 180.433594 358.429688 L 177.679688 353.460938 L 178.242188 352.835938 L 180.867188 352.449219 L 181.503906 352.695313 L 181.914063 353.875 L 182.898438 354.332031 L 184.078125 356.789063 L 185.613281 357.902344 L 188.359375 357.621094 L 190.335938 355.148438 L 189.90625 355.050781 L 188.667969 355.527344 L 188.3125 355.957031 L 186.378906 356.386719 L 183.8125 354.640625 L 179.976563 346.332031 L 180.234375 345.867188 L 181.566406 344.261719 L 182.585938 342.078125 L 182.753906 341.363281 L 183.371094 340.257813 L 185.429688 339.015625 L 185.140625 338.578125 L 183.234375 338.488281 L 183.347656 337.105469 L 183.027344 332.671875 L 182.269531 330.28125 L 184.695313 329.191406 L 187.28125 323.421875 L 187.71875 320.933594 L 187.851563 317.632813 L 188.542969 319.085938 L 190.871094 321.632813 L 193.609375 323.285156 L 197.421875 324.417969 L 200.628906 324.441406 L 203.601563 323.636719 L 206.359375 322 L 208.492188 319.773438 L 210.324219 315.96875 L 212.398438 313.71875 L 213.8125 311.007813 L 214.5 307.636719 L 214.199219 304.339844 L 215.566406 302.480469 L 216.539063 300.390625 L 217.082031 298.148438 L 217.171875 295.847656 L 216.160156 291.757813 L 213.847656 288.390625 L 210.402344 285.976563 L 206.445313 284.953125 L 210.1875 283.023438 L 212.996094 279.886719 L 215.371094 274.363281 L 215.726563 272.21875 L 215.664063 269.914063 L 214.878906 266.949219 L 212.738281 262.730469 L 210.554688 260.394531 L 207.707031 258.691406 L 204.617188 257.878906 L 198.691406 257.816406 L 195.324219 257.160156 L 193.164063 257.269531 L 190.9375 257.816406 L 187.0625 257.816406 L 183.578125 255.664063 L 179.566406 254.855469 L 177.386719 255.011719 L 175.277344 255.574219 L 173.308594 256.519531 L 171.554688 257.816406 L 169.261719 255.824219 L 166.527344 254.496094 L 162.804688 253.8125 L 159.921875 253.9375 L 158.5625 252.132813 L 156.046875 250.0625 L 154.339844 247.890625 L 150.695313 244.789063 L 148.019531 243.246094 L 148.300781 243.253906 L 143.730469 241.433594 L 142.707031 240.136719 L 140.539063 238.429688 L 144.414063 238.429688 L 146.300781 240.777344 L 150.027344 243.828125 L 152.265625 245.078125 L 154.722656 245.804688 L 157.410156 245.972656 L 160.058594 245.515625 L 162.535156 244.464844 L 164.707031 242.875 L 166.449219 240.824219 L 167.140625 239.480469 L 168.246094 240.195313 L 178.0625 241.875 L 182.921875 243.167969 L 186.398438 241.730469 L 187.519531 239.417969 L 188.617188 238.355469 L 189.539063 238.171875 L 193.183594 238.5 L 193.847656 238.957031 L 194.472656 239.703125 L 196.496094 241.265625 L 198.660156 242.292969 L 198.695313 242.316406 L 200.101563 245.320313 L 202.304688 247.808594 L 204.316406 249.175781 L 206.445313 250.0625 L 208.019531 251.535156 L 209.835938 252.691406 L 209.851563 252.699219 L 212.824219 256.707031 L 213.265625 256.828125 L 213.433594 256.585938 L 214.601563 257.097656 L 217.371094 258.992188 L 218.078125 261.207031 L 218.078125 265.570313 L 217.011719 268.035156 L 216.546875 270.550781 L 216.941406 274.488281 L 218.078125 277.199219 L 218.71875 280.167969 L 219.628906 282.121094 L 223.3125 286.761719 L 224.394531 287.652344 L 225.945313 294.183594 L 229.304688 299.0625 L 229.574219 299.1875 L 229.9375 303.535156 L 230.742188 305.972656 L 232.144531 308.28125 L 234.757813 310.738281 L 238.125 312.316406 L 241.6875 312.757813 L 245.214844 312.09375 L 247.101563 314.4375 L 251.105469 317.730469 L 252.390625 319.148438 L 255.808594 320.730469 L 254.078125 322.199219 L 251.125 326.5 L 250.09375 330.066406 L 250.261719 333.902344 L 251.671875 337.472656 L 252.214844 338.160156 L 245.550781 339.511719 L 244.589844 338.644531 L 243.40625 338.558594 L 241.210938 339.871094 L 241.886719 340.445313 L 246.324219 340.394531 L 249.617188 339.34375 L 251.976563 339.082031 L 254.382813 342.558594 L 260.535156 347.621094 L 263.042969 349.058594 L 263.664063 349.039063 L 264.527344 350.191406 L 264.339844 358.546875 L 264.945313 361.289063 L 266.1875 363.804688 L 268.308594 366.039063 L 264.953125 369.09375 L 261.394531 373.164063 L 260.601563 374.816406 L 262.84375 374.3125 L 264.9375 375.519531 L 266.9375 378.226563 L 270.21875 378.804688 L 270.625 378.746094 L 271.910156 376.796875 L 272.234375 374.960938 L 273.40625 371.914063 L 274.707031 370.632813 L 276.882813 370.253906 L 277.855469 370.40625 L 283.519531 370.355469 L 284.253906 370.867188 L 286.703125 370.742188 L 293.949219 371.515625 L 296.914063 372.84375 Z M 194.816406 339.230469 L 193.910156 341.210938 L 193.386719 343.320313 L 193.265625 345.496094 L 193.582031 347.777344 L 196.019531 353.546875 L 197.410156 355.386719 L 199.136719 356.914063 L 201.246094 358.125 L 203.679688 358.949219 L 205.96875 359.277344 L 208.152344 359.164063 L 210.394531 358.601563 L 212.484375 357.609375 L 214.335938 356.222656 L 215.875 354.496094 L 217.144531 352.261719 L 217.871094 349.929688 L 218.378906 344.835938 L 218.238281 342.414063 L 217.554688 339.957031 L 216.417969 337.8125 L 215.046875 336.132813 L 212.566406 333.910156 L 210.226563 332.585938 L 207.640625 331.835938 L 204.957031 331.695313 L 202.308594 332.179688 L 199.84375 333.261719 L 197.695313 334.875 L 196.042969 336.835938 Z M 231.566406 467.5 L 231.261719 467.824219 L 229.707031 471.046875 L 225.832031 470.382813 L 222.421875 470.964844 L 222.296875 470.886719 L 221.804688 470.957031 L 220.878906 470.390625 L 221.476563 469.683594 L 227.316406 466.367188 Z M 148.652344 362.886719 L 148.292969 362.492188 L 150.460938 360.785156 L 152.167969 358.617188 L 154.289063 358.242188 L 154.507813 358.160156 L 154.066406 358.859375 L 150.984375 360.816406 Z M 176.453125 321.164063 L 176.84375 319.386719 L 176.898438 317.21875 L 176.515625 314.960938 L 178.925781 316.132813 L 181.667969 316.734375 L 184.347656 316.679688 L 187.0625 315.96875 L 187.804688 317.535156 L 184.742188 320.527344 L 179.199219 323.441406 L 177.335938 322.691406 Z M 168.019531 238.050781 L 169.894531 235.972656 L 171.25 233.226563 L 171.863281 229.84375 L 171.554688 222.921875 L 173.722656 221.214844 L 175.429688 219.046875 L 179.605469 218.519531 L 183.316406 216.546875 L 185.742188 213.921875 L 187.574219 210.261719 L 188.492188 206.8125 L 188.292969 203.121094 L 187.007813 199.789063 L 184.679688 196.917969 L 188.195313 198.417969 L 191.875 198.707031 L 195.464844 197.828125 L 198.691406 195.785156 L 197.523438 198.621094 L 197.132813 201.535156 L 197.523438 204.578125 L 198.691406 207.414063 L 198.691406 208.167969 L 197.078125 210.023438 L 197.433594 210.839844 L 197.785156 210.703125 L 197.761719 211.238281 L 197.667969 211.542969 L 194.972656 212.210938 L 191.75 214.285156 L 189.378906 217.292969 L 188.28125 220.433594 L 185.519531 221.085938 L 182.847656 221.226563 L 177.804688 225.21875 L 178.117188 225.714844 L 179.84375 225.195313 L 184.609375 222.886719 L 186.457031 221.386719 L 187.289063 221.316406 L 188.070313 221.558594 L 187.949219 223.210938 L 188.273438 225.621094 L 189.320313 228.371094 L 190.9375 230.675781 L 191.011719 232.054688 L 189.460938 232.730469 L 188.34375 232.882813 L 187.070313 232.078125 L 185.40625 232.042969 L 181.046875 235.800781 L 180.578125 237.003906 L 174.761719 240.109375 L 170.214844 238.117188 Z M 175.867188 286.992188 L 176.941406 286.59375 L 177.472656 286.226563 L 178.757813 285.980469 L 180.191406 286.804688 L 181.015625 286.710938 L 181.230469 286.660156 L 182.808594 287.640625 L 184.816406 288.421875 L 187.0625 288.832031 L 189.179688 290.609375 L 191.65625 291.839844 L 191.050781 294.175781 L 190.9375 296.585938 L 190.054688 294.457031 L 188.765625 292.542969 L 187.128906 290.921875 L 185.3125 289.714844 L 182.941406 288.757813 L 180.550781 288.332031 L 178.125 288.414063 L 175.648438 289.039063 L 174.726563 288.09375 Z M 178.847656 285.269531 L 179.308594 284.953125 L 179.714844 285.332031 Z M 185.46875 168.367188 L 187.0625 168.644531 L 184.265625 169.917969 L 181.988281 171.78125 L 180.378906 173.933594 L 179.308594 176.398438 L 177.179688 179.085938 L 176.238281 181.171875 L 175.722656 183.402344 L 175.652344 185.691406 L 176.035156 187.949219 L 173.945313 187.382813 L 171.785156 187.214844 L 167.675781 188.03125 L 167.363281 185.351563 L 166.445313 182.820313 L 164.964844 180.566406 L 163.007813 178.710938 L 160.792969 177.414063 L 158.472656 176.65625 L 154.546875 176.246094 L 152.167969 176.398438 L 152.167969 172.523438 L 153.640625 170.949219 L 153.792969 170.710938 L 156.390625 168.453125 L 157.75 167.980469 L 160.300781 168.324219 L 161.058594 169.320313 L 157.109375 173.804688 L 156.367188 175.339844 L 156.707031 175.816406 L 157.367188 175.984375 L 158.261719 175.542969 L 161.140625 173.015625 L 167.808594 170.273438 L 170.480469 169.527344 L 170.492188 169.949219 L 171.554688 169.839844 L 173.589844 168.316406 L 174.046875 166.78125 L 178.648438 166.167969 L 179.285156 167.089844 L 180.148438 167.667969 L 184.320313 169.011719 Z M 155.339844 167.761719 L 155.671875 166.890625 L 156.046875 164.769531 L 157.820313 162.789063 L 158.699219 161.207031 L 161.363281 161.917969 L 164.042969 162.292969 L 165.242188 161.992188 L 166.015625 161.605469 L 166.75 160.257813 L 167.007813 160.234375 L 167.519531 160.726563 L 167.507813 160.828125 L 166.417969 162.609375 L 162.722656 166.96875 L 162.175781 167.183594 L 161.726563 166.894531 L 161.859375 165.949219 L 161.53125 165.507813 L 159.984375 165.785156 Z M 159.160156 160.128906 L 159.921875 157.015625 L 162.09375 155.308594 L 163.800781 153.136719 L 164.140625 154.859375 L 162.601563 156.074219 L 162.234375 157.082031 L 162.671875 158.175781 L 162.078125 159.632813 L 159.644531 160.289063 Z M 151.929688 448.160156 L 152.167969 447.785156 L 152.332031 447.925781 Z M 132.785156 482.675781 L 135.085938 482.445313 L 137.175781 481.816406 L 139.21875 480.734375 L 141.007813 479.269531 L 142.472656 477.480469 L 143.554688 475.4375 L 144.1875 473.347656 L 144.414063 471.046875 L 145.511719 473.714844 L 147.148438 475.9375 L 144.996094 477.0625 L 143.128906 478.605469 L 141.621094 480.507813 L 140.539063 482.675781 L 138.417969 483.050781 L 136.285156 483.867188 L 135.511719 484.355469 L 134.507813 484.320313 L 132.167969 484.859375 L 131.097656 486.15625 L 130.34375 485.976563 L 127.957031 485.925781 L 130.527344 484.644531 Z M 109.523438 490.429688 L 111.554688 490.726563 L 110.625 492.367188 L 110.375 492.488281 L 110.347656 492.855469 L 109.523438 494.308594 Z M 286.679688 439.636719 L 283.058594 438.976563 L 282.164063 437.605469 L 282.484375 436.070313 L 286.839844 437.054688 L 287.960938 438.832031 Z M 286.679688 439.636719 "/>
</g>
</svg>
