<?xml version="1.0" encoding="UTF-8"?>
<svg xmlns="http://www.w3.org/2000/svg" xmlns:xlink="http://www.w3.org/1999/xlink" width="378pt" height="504pt" viewBox="0 0 378 504" version="1.1">
<g id="data">
<rect x="0" y="0" width="378" height="504" style="fill:rgb(100%,100%,100%);fill-opacity:1;stroke:none;"/>
<path style=" stroke:none;fill-rule:nonzero;fill:rgb(100%,100%,100%);fill-opacity:1;" d="M 53.308594 504 L 324.691406 504 L 324.691406 0 L 53.308594 0 Z M 53.308594 504 "/>
<path style=" stroke:none;fill-rule:nonzero;fill:rgb(22.745098%,53.333333%,16.078431%);fill-opacity:1;" d="M 300.621094 375.558594 L 301.199219 376.292969 L 303.371094 378 L 305.4375 380.519531 L 305.53125 380.585938 L 306.730469 384.164063 L 307.179688 391.25 L 306.777344 393.191406 L 306.890625 393.976563 L 305.789063 396.917969 L 305.183594 399.824219 L 303.925781 402.410156 L 303.246094 406.136719 L 303.328125 408.035156 L 298.722656 412.871094 L 296.066406 412.796875 L 295.578125 412.011719 L 292.742188 410.515625 L 292.480469 410.636719 L 293.453125 412.746094 L 290.980469 412.980469 L 288.414063 413.667969 L 286.070313 414.921875 L 283.984375 416.769531 L 282.371094 419.085938 L 281.367188 421.722656 L 281.085938 424.015625 L 280.71875 424.230469 L 281.03125 424.453125 L 281.023438 424.523438 L 281.335938 427.199219 L 282.199219 429.617188 L 283.929688 432.195313 L 283.441406 432.558594 L 282.84375 432.699219 L 279.644531 432.160156 L 274.75 433.78125 L 272.609375 436.117188 L 274.253906 436.015625 L 275.152344 434.667969 L 276.683594 434.363281 L 278.285156 434.328125 L 281.054688 434.949219 L 281.828125 435.589844 L 281.691406 436.328125 L 279.554688 436.347656 L 277.390625 437.65625 L 277.96875 438.546875 L 281.382813 438.964844 L 286.863281 440.339844 L 289.394531 439.9375 L 290.027344 439.566406 L 290.46875 439.839844 L 293.425781 440.710938 L 296.503906 440.777344 L 299.492188 440.03125 L 299.457031 444.808594 L 298.898438 447.574219 L 297.753906 449.855469 L 296.972656 450.242188 L 295.839844 450.375 L 292.621094 451.640625 L 291.179688 452.742188 L 289.847656 454.226563 L 289.460938 455.09375 L 289.421875 455.289063 L 288.117188 455.535156 L 284.75 453.285156 L 281.328125 452.207031 L 277.613281 452.242188 L 274.097656 453.445313 L 270.96875 455.886719 L 268.839844 459.234375 L 267.957031 463.234375 L 268.394531 466.535156 L 267.382813 466.230469 L 266.078125 465.109375 L 263.210938 463.773438 L 259.351563 463.144531 L 252.96875 463.292969 L 249.960938 461.34375 L 246.625 460.417969 L 244.058594 460.386719 L 241.671875 460.882813 L 239.441406 461.867188 L 237.464844 463.292969 L 237.414063 463.289063 L 234.636719 463.164063 L 237.929688 462.082031 L 240.664063 460.171875 L 242.742188 457.5625 L 244.023438 454.34375 L 244.328125 451.535156 L 243.945313 448.734375 L 242.902344 446.109375 L 241.339844 443.90625 L 240.929688 441.664063 L 240.148438 439.65625 L 238.933594 437.726563 L 237.460938 436.152344 L 235.613281 432.800781 L 232.78125 430.230469 L 229.386719 428.75 L 225.832031 428.398438 L 223.359375 425.628906 L 220.257813 423.824219 L 217.394531 423.109375 L 214.445313 423.136719 L 212.316406 423.636719 L 210.324219 424.523438 L 206.378906 424.972656 L 203.238281 426.433594 L 201.441406 427.894531 L 199.976563 429.679688 L 198.890625 431.722656 L 198.230469 433.941406 L 198.078125 437.273438 L 198.917969 440.765625 L 200.21875 443.398438 L 202.234375 445.707031 L 204.78125 447.410156 L 207.8125 448.410156 L 211 448.550781 L 213.984375 447.867188 L 210.421875 450.097656 L 208.960938 451.710938 L 207.824219 453.570313 L 207.054688 455.605469 L 206.679688 457.746094 L 206.707031 459.921875 L 207.140625 462.054688 L 203.992188 459.949219 L 200.089844 458.835938 L 197.417969 458.820313 L 194.816406 459.414063 L 192.4375 459.261719 L 187.878906 459.648438 L 185.101563 460.613281 L 182.5625 462.328125 L 180.625 464.542969 L 179.308594 467.167969 L 176.484375 467.757813 L 174 468.957031 L 175.660156 466.519531 L 176.652344 463.746094 L 176.917969 460.808594 L 176.433594 457.898438 L 174.664063 453.636719 L 173.09375 451.300781 L 170.578125 449.125 L 167.675781 447.785156 L 169.210938 447.175781 L 169.484375 447.285156 L 170.039063 448.109375 L 170.757813 448.421875 L 173.15625 448.464844 L 180.570313 447.503906 L 181.109375 445.632813 L 181.210938 443.15625 L 182.519531 440.25 L 190.867188 432.195313 L 195.792969 425.3125 L 197.929688 424.472656 L 198.285156 423.78125 L 198.070313 423.238281 L 197.8125 423.082031 L 196.09375 424.355469 L 192.90625 427.300781 L 190.570313 429.988281 L 189.222656 431.449219 L 185.628906 432.957031 L 183.714844 433.246094 L 182.441406 433.0625 L 178.394531 435.230469 L 177.398438 436.808594 L 177.039063 438.671875 L 176.445313 439.273438 L 175.851563 439.433594 L 175.996094 438.976563 L 176.246094 436.808594 L 176.066406 434.5 L 175.429688 432.277344 L 176.863281 430.308594 L 177.851563 428.085938 L 178.359375 425.707031 L 178.34375 423.144531 L 177.226563 419.351563 L 174.898438 416.148438 L 171.632813 413.914063 L 167.675781 412.890625 L 169.796875 412.519531 L 171.929688 411.703125 L 173.859375 410.488281 L 175.429688 409.015625 L 175.871094 412.191406 L 177.164063 415.125 L 179.210938 417.59375 L 181.851563 419.414063 L 184.886719 420.441406 L 189.0625 420.808594 L 193.238281 420.417969 L 196.265625 419.355469 L 199.34375 417.054688 L 201.503906 413.878906 L 202.3125 411.441406 L 202.570313 409.015625 L 203.832031 405.804688 L 204.105469 402.496094 L 203.632813 399.851563 L 202.570313 397.382813 L 202.804688 393.320313 L 201.621094 389.425781 L 200.140625 387.191406 L 197.703125 384.761719 L 195.957031 383.484375 L 193.886719 382.511719 L 197.703125 382.191406 L 201.210938 380.644531 L 204.023438 378.046875 L 205.800781 374.796875 L 206.972656 382.171875 L 208.007813 384.511719 L 209.53125 386.566406 L 212.003906 388.589844 L 215.710938 390.34375 L 218.320313 391.015625 L 221.015625 391.074219 L 224.609375 390.132813 L 227.722656 388.105469 L 229.707031 385.753906 L 232.792969 382.875 L 233.980469 380.890625 L 234.746094 378.710938 L 235.078125 375.90625 L 234.726563 373.105469 L 233.585938 370.246094 L 232.507813 366.222656 L 231.257813 364.164063 L 229.707031 362.492188 L 229.867188 360.238281 L 229.585938 356.949219 L 228.417969 353.289063 L 226.570313 350.667969 L 224.1875 348.71875 L 221.253906 347.425781 L 218.078125 346.984375 L 218.324219 343.046875 L 217.1875 339.140625 L 215.972656 337.191406 L 212.925781 333.640625 L 210.324219 331.476563 L 212.46875 331.277344 L 214.65625 330.640625 L 216.570313 329.65625 L 218.273438 328.335938 L 218.582031 331.003906 L 219.441406 333.417969 L 220.804688 335.582031 L 222.613281 337.398438 L 224.65625 338.714844 L 228.316406 340.273438 L 230.847656 340.707031 L 233.539063 340.550781 L 236.003906 339.832031 L 238.355469 338.515625 L 240.171875 336.886719 L 242.140625 334.351563 L 243.289063 332.34375 L 244.015625 330.152344 L 244.296875 327.855469 L 244.117188 325.554688 L 242.890625 322.050781 L 240.230469 318.425781 L 237.648438 316.3125 L 234.574219 315.019531 L 231.003906 314.664063 L 227.492188 315.410156 L 224.375 317.195313 L 221.953125 319.847656 L 222.609375 317.496094 L 222.761719 315.058594 L 222.402344 312.644531 L 221.542969 310.359375 L 220.230469 308.300781 L 218.515625 306.566406 L 216.476563 305.222656 L 214.199219 304.339844 L 216.105469 302.816406 L 217.582031 301.039063 L 218.679688 299.003906 L 219.351563 296.792969 L 219.511719 293.335938 L 219.042969 291.070313 L 218.078125 288.832031 L 218.078125 284.953125 L 219.648438 286.425781 L 221.578125 287.640625 L 223.585938 288.421875 L 224.625 288.609375 L 225.945313 294.183594 L 229.304688 299.0625 L 229.714844 299.253906 L 229.722656 302.003906 L 230.355469 305.019531 L 231.476563 307.332031 L 233.078125 309.339844 L 235.632813 311.28125 L 238.75 312.476563 L 242.074219 312.738281 L 245.214844 312.09375 L 244.667969 314.316406 L 244.5625 316.480469 L 245.214844 319.847656 L 244.980469 323.910156 L 245.789063 326.992188 L 247.167969 329.433594 L 249.09375 331.476563 L 249.867188 334.800781 L 251.574219 337.757813 L 251.960938 338.210938 L 245.550781 339.511719 L 244.589844 338.644531 L 243.40625 338.558594 L 241.210938 339.871094 L 241.886719 340.445313 L 246.324219 340.394531 L 249.617188 339.34375 L 251.976563 339.082031 L 254.382813 342.558594 L 260.535156 347.621094 L 261.832031 348.363281 L 262.609375 349.332031 L 264.601563 350.863281 L 264.285156 357.269531 L 264.480469 359.558594 L 265.488281 362.582031 L 267.28125 365.21875 L 268.257813 366.085938 L 264.953125 369.09375 L 261.394531 373.164063 L 260.601563 374.816406 L 262.84375 374.3125 L 264.9375 375.519531 L 266.9375 378.226563 L 270.21875 378.804688 L 270.625 378.746094 L 271.910156 376.796875 L 272.234375 374.960938 L 273.40625 371.914063 L 274.707031 370.632813 L 276.78125 370.269531 L 278.105469 370.410156 L 283.523438 370.359375 L 284.253906 370.867188 L 286.703125 370.742188 L 293.949219 371.515625 L 296.914063 372.84375 Z M 286.769531 437.039063 L 286.976563 437.273438 L 287.960938 438.832031 L 286.679688 439.636719 L 283.058594 438.976563 L 282.164063 437.605469 L 282.484375 436.070313 Z M 218.078125 261.691406 L 217.949219 264.515625 L 217.351563 262.316406 L 216.402344 260.386719 L 215.113281 258.664063 L 213.429688 257.128906 L 215.359375 257.617188 L 217.371094 258.992188 L 218.078125 261.207031 Z M 187.0625 222.921875 L 186.859375 231.117188 L 187.128906 232.113281 L 187.070313 232.078125 L 185.40625 232.042969 L 181.046875 235.800781 L 180.578125 237.003906 L 174.761719 240.109375 L 170.214844 238.117188 L 169.554688 238.097656 L 169.945313 238.027344 L 172.09375 237.1875 L 173.929688 236.015625 L 175.601563 234.425781 L 177.726563 230.792969 L 178.421875 226.769531 L 178.21875 225.683594 L 179.84375 225.195313 L 184.609375 222.886719 L 186.457031 221.386719 L 187.210938 221.320313 Z M 190.824219 238.289063 L 191.644531 239.160156 L 193.554688 240.625 L 195.964844 241.75 L 198.679688 242.304688 L 198.695313 242.316406 L 199.699219 244.660156 L 201.113281 246.640625 L 203.542969 248.722656 L 206.445313 250.0625 L 208.050781 253.09375 L 210.46875 255.527344 L 207.871094 254.90625 L 205.078125 254.90625 L 201.660156 255.867188 L 198.691406 257.816406 L 194.816406 257.148438 L 190.9375 257.816406 L 189.230469 255.644531 L 187.0625 253.9375 L 185.582031 250.820313 L 183.25 248.273438 L 179.917969 246.386719 L 177.585938 245.652344 L 175.421875 245.371094 L 171.488281 245.914063 L 168.070313 247.671875 L 165.410156 250.449219 L 163.800781 253.9375 L 162.226563 252.464844 L 160.296875 251.25 L 158.289063 250.46875 L 156.046875 250.0625 L 154.339844 247.890625 L 152.167969 246.183594 L 151.984375 245.695313 L 154.550781 246.171875 L 158.09375 246.121094 L 161.882813 244.988281 L 163.730469 243.839844 L 165.417969 242.273438 L 166.765625 240.40625 L 167.179688 239.507813 L 168.246094 240.195313 L 178.0625 241.875 L 182.921875 243.167969 L 186.398438 241.730469 L 187.519531 239.417969 L 188.617188 238.355469 L 189.539063 238.171875 Z M 178.085938 224.996094 L 177.636719 222.632813 L 175.429688 219.046875 L 178.390625 220.25 L 181.566406 220.601563 L 184.59375 220.113281 L 187.839844 218.742188 L 187.292969 220.667969 L 185.519531 221.085938 L 182.847656 221.226563 Z M 190.9375 198.746094 L 195.03125 198.003906 L 196.964844 197.0625 L 198.691406 195.785156 L 196.496094 199.386719 L 195.730469 203.539063 L 196.496094 207.6875 L 197.574219 209.453125 L 197.078125 210.023438 L 197.433594 210.839844 L 197.785156 210.703125 L 197.761719 211.238281 L 197.714844 211.394531 L 196.324219 211.535156 L 194.054688 212.257813 L 194.8125 208.808594 L 194.511719 204.769531 L 193.1875 201.484375 Z M 185.875 326.5625 L 187.609375 326.671875 L 190.121094 326.277344 L 187.671875 329.359375 L 186.390625 333.085938 L 186.304688 336.140625 L 187.0625 339.230469 L 187.441406 342.914063 L 188.316406 345.179688 L 189.640625 347.21875 L 191.976563 349.398438 L 194.816406 350.863281 L 196.140625 353.738281 L 198.191406 356.15625 L 195.167969 355.660156 L 192.242188 355.941406 L 189.480469 356.949219 L 187.0625 358.617188 L 183.183594 358.617188 L 181.085938 358.085938 L 180.214844 358.035156 L 177.679688 353.460938 L 178.242188 352.835938 L 180.867188 352.449219 L 181.503906 352.695313 L 181.914063 353.875 L 182.898438 354.332031 L 184.078125 356.789063 L 185.613281 357.902344 L 188.359375 357.621094 L 190.335938 355.148438 L 189.90625 355.050781 L 188.667969 355.527344 L 188.3125 355.957031 L 186.378906 356.386719 L 183.8125 354.640625 L 179.976563 346.332031 L 180.085938 346.136719 L 180.933594 345.210938 L 182.160156 343.140625 L 182.75 341.367188 L 183.371094 340.257813 L 185.429688 339.015625 L 185.140625 338.578125 L 183.242188 338.488281 L 183.339844 337.730469 L 183.132813 333.433594 L 182.578125 330.9375 L 182.269531 330.277344 L 184.695313 329.191406 Z M 178.179688 358.050781 L 176.777344 358.230469 L 174.210938 359.023438 L 172.15625 360.082031 L 170.351563 361.527344 L 168.9375 363.199219 L 167.816406 365.21875 L 167.113281 367.421875 L 166.859375 369.722656 L 167.066406 372.023438 L 167.675781 374.125 L 164.074219 371.925781 L 159.921875 371.160156 L 155.773438 371.925781 L 152.980469 373.628906 L 152.804688 373.207031 L 152.257813 373.1875 L 152.472656 370.953125 L 151.90625 367.816406 L 150.441406 364.847656 L 149.050781 363.324219 L 149.964844 362.320313 L 151.972656 362.109375 L 155.347656 360.59375 L 157.289063 358.816406 L 160.492188 357.457031 L 163.644531 357.28125 L 166.375 357.601563 L 166.519531 357.644531 L 166.648438 357.636719 L 167.339844 357.714844 L 167.617188 357.582031 L 170.101563 357.445313 L 173.453125 356.164063 L 174.695313 355.25 Z M 148.652344 362.886719 L 148.292969 362.492188 L 149.203125 362.398438 Z M 166.402344 160.890625 L 167.46875 160.890625 L 166.417969 162.609375 L 162.722656 166.96875 L 162.175781 167.183594 L 161.726563 166.894531 L 161.859375 165.949219 L 161.53125 165.507813 L 159.984375 165.785156 L 157.707031 166.753906 L 158.035156 166.351563 L 159.324219 163.742188 L 159.796875 161.5 L 161.363281 161.917969 L 164.042969 162.292969 L 165.242188 161.992188 L 166.015625 161.605469 Z M 183.183594 168.644531 L 180.796875 171.589844 L 179.789063 173.914063 L 179.308594 176.398438 L 177.878906 178.011719 L 176.714844 179.972656 L 175.902344 182.371094 L 175.625 184.890625 L 171.554688 184.152344 L 170.667969 181.878906 L 169.410156 179.9375 L 167.691406 178.203125 L 165.761719 176.925781 L 163.371094 175.984375 L 160.960938 175.597656 L 158.398438 175.742188 L 156.046875 176.398438 L 154.339844 174.230469 L 152.167969 172.523438 L 154.515625 170.636719 L 156.109375 168.695313 L 156.390625 168.453125 L 157.75 167.980469 L 160.300781 168.324219 L 161.058594 169.320313 L 157.109375 173.804688 L 156.367188 175.339844 L 156.707031 175.816406 L 157.367188 175.984375 L 158.261719 175.542969 L 161.140625 173.015625 L 167.808594 170.273438 L 170.480469 169.527344 L 170.492188 169.949219 L 171.554688 169.839844 L 173.589844 168.316406 L 174.046875 166.78125 L 178.648438 166.167969 L 179.285156 167.089844 L 180.148438 167.667969 Z M 143.136719 238.574219 L 144.414063 238.429688 L 144.601563 238.921875 Z M 143.136719 238.574219 "/>
<path style=" stroke:none;fill-rule:nonzero;fill:rgb(80.392157%,58.431373%,4.705882%);fill-opacity:1;" d="M 165.738281 478.800781 L 165.453125 480.597656 L 164.628906 482.21875 L 163.339844 483.503906 L 161.71875 484.332031 L 159.921875 484.617188 L 158.125 484.332031 L 156.503906 483.503906 L 155.21875 482.21875 L 154.390625 480.597656 L 154.109375 478.800781 L 154.390625 477.003906 L 155.21875 475.382813 L 156.503906 474.09375 L 158.125 473.269531 L 159.921875 472.984375 L 161.71875 473.269531 L 163.339844 474.09375 L 164.628906 475.382813 L 165.453125 477.003906 Z M 165.738281 478.800781 "/>
<path style=" stroke:none;fill-rule:nonzero;fill:rgb(80.392157%,58.431373%,4.705882%);fill-opacity:1;" d="M 150.230469 471.046875 L 149.945313 472.84375 L 149.121094 474.464844 L 147.832031 475.75 L 146.210938 476.578125 L 144.414063 476.863281 L 142.617188 476.578125 L 140.996094 475.75 L 139.710938 474.464844 L 138.882813 472.84375 L 138.601563 471.046875 L 138.882813 469.25 L 139.710938 467.628906 L 140.996094 466.339844 L 142.617188 465.515625 L 144.414063 465.230469 L 146.210938 465.515625 L 147.832031 466.339844 L 149.121094 467.628906 L 149.945313 469.25 Z M 150.230469 471.046875 "/>
<path style=" stroke:none;fill-rule:nonzero;fill:rgb(80.392157%,58.431373%,4.705882%);fill-opacity:1;" d="M 189 195.785156 L 188.714844 197.582031 L 187.890625 199.203125 L 186.601563 200.488281 L 184.980469 201.316406 L 183.183594 201.601563 L 181.386719 201.316406 L 179.765625 200.488281 L 178.480469 199.203125 L 177.652344 197.582031 L 177.371094 195.785156 L 177.652344 193.988281 L 178.480469 192.367188 L 179.765625 191.078125 L 181.386719 190.253906 L 183.183594 189.96875 L 184.980469 190.253906 L 186.601563 191.078125 L 187.890625 192.367188 L 188.714844 193.988281 Z M 189 195.785156 "/>
<path style=" stroke:none;fill-rule:nonzero;fill:rgb(80.392157%,58.431373%,4.705882%);fill-opacity:1;" d="M 192.875 288.832031 L 192.59375 290.628906 L 191.765625 292.25 L 190.480469 293.535156 L 188.859375 294.363281 L 187.0625 294.644531 L 185.265625 294.363281 L 183.644531 293.535156 L 182.355469 292.25 L 181.53125 290.628906 L 181.246094 288.832031 L 181.53125 287.035156 L 181.792969 286.519531 L 182.933594 286.238281 L 183.03125 285.160156 L 182.769531 285 L 183.644531 284.125 L 185.265625 283.300781 L 187.0625 283.015625 L 188.859375 283.300781 L 190.480469 284.125 L 191.765625 285.414063 L 192.59375 287.035156 Z M 192.875 288.832031 "/>
<path style=" stroke:none;fill-rule:nonzero;fill:rgb(80.392157%,58.431373%,4.705882%);fill-opacity:1;" d="M 168.339844 288.539063 L 167.929688 288.949219 L 166.234375 288.695313 L 163.3125 290.011719 L 162.828125 290.613281 L 160.382813 289.660156 L 159.09375 288.371094 L 158.269531 286.75 L 157.984375 284.953125 L 158.269531 283.15625 L 159.09375 281.535156 L 160.382813 280.25 L 162.003906 279.421875 L 163.800781 279.136719 L 165.597656 279.421875 L 167.21875 280.25 L 168.503906 281.535156 L 169.46875 284.035156 Z M 168.339844 288.539063 "/>
<path style=" stroke:none;fill-rule:nonzero;fill:rgb(80.392157%,58.431373%,4.705882%);fill-opacity:1;" d="M 150.230469 420.644531 L 149.945313 422.441406 L 149.121094 424.0625 L 147.832031 425.351563 L 146.808594 425.875 L 143.210938 423.710938 L 139.535156 423.714844 L 138.882813 422.441406 L 138.601563 420.644531 L 138.882813 418.847656 L 139.710938 417.226563 L 140.996094 415.941406 L 142.617188 415.117188 L 144.414063 414.832031 L 146.210938 415.117188 L 147.832031 415.941406 L 149.121094 417.226563 L 149.945313 418.847656 Z M 150.230469 420.644531 "/>
<path style=" stroke:none;fill-rule:nonzero;fill:rgb(80.392157%,58.431373%,4.705882%);fill-opacity:1;" d="M 216.136719 467.167969 L 216.007813 468 L 210.222656 468.96875 L 208.164063 468.875 L 207.273438 468.058594 L 206.238281 469.769531 L 209.429688 471.089844 L 209.714844 470.9375 L 210.1875 472.128906 L 209.910156 472.917969 L 208.527344 472.699219 L 206.90625 471.875 L 205.617188 470.585938 L 204.792969 468.964844 L 204.507813 467.167969 L 204.792969 465.371094 L 205.617188 463.75 L 206.90625 462.464844 L 208.527344 461.636719 L 210.324219 461.355469 L 212.121094 461.636719 L 213.742188 462.464844 L 215.027344 463.75 L 215.855469 465.371094 Z M 216.136719 467.167969 "/>
<path style=" stroke:none;fill-rule:nonzero;fill:rgb(80.392157%,58.431373%,4.705882%);fill-opacity:1;" d="M 154.109375 424.523438 L 153.824219 426.320313 L 152.996094 427.941406 L 151.710938 429.226563 L 150.089844 430.054688 L 148.292969 430.339844 L 147.019531 430.136719 L 146.917969 429.308594 L 148.539063 428.378906 L 150.066406 428.890625 L 151.640625 428.421875 L 152.765625 427.832031 L 153.085938 427.097656 L 152.808594 426.597656 L 147.785156 426.460938 L 143.210938 423.710938 L 142.605469 423.710938 L 142.761719 422.726563 L 143.585938 421.105469 L 144.875 419.816406 L 146.496094 418.992188 L 148.292969 418.707031 L 150.089844 418.992188 L 151.710938 419.816406 L 152.996094 421.105469 L 153.824219 422.726563 Z M 154.109375 424.523438 "/>
<path style=" stroke:none;fill-rule:nonzero;fill:rgb(80.392157%,58.431373%,4.705882%);fill-opacity:1;" d="M 181.246094 288.832031 L 180.960938 290.628906 L 180.136719 292.25 L 178.847656 293.535156 L 177.226563 294.363281 L 175.429688 294.644531 L 173.632813 294.363281 L 171.859375 293.382813 L 174.074219 288.722656 L 176.464844 286.417969 L 178.757813 285.980469 L 180.191406 286.804688 L 180.808594 286.734375 Z M 171.902344 284.238281 L 173.632813 283.300781 L 175.429688 283.015625 L 177.226563 283.300781 L 178.847656 284.125 L 180.066406 285.34375 L 174.65625 284.980469 Z M 171.902344 284.238281 "/>
<path style=" stroke:none;fill-rule:nonzero;fill:rgb(80.392157%,58.431373%,4.705882%);fill-opacity:1;" d="M 191.269531 114.40625 L 190.480469 115.195313 L 189.15625 115.871094 L 186.777344 113.90625 L 184.832031 114.03125 L 183.105469 114.65625 L 182.355469 113.910156 L 181.53125 112.289063 L 181.246094 110.492188 L 181.53125 108.695313 L 182.355469 107.074219 L 183.820313 105.699219 L 184.519531 106.003906 L 186.230469 108.273438 L 187.324219 111.371094 L 189.425781 112.382813 L 190.734375 113.441406 Z M 191.269531 114.40625 "/>
<path style=" stroke:none;fill-rule:nonzero;fill:rgb(80.392157%,58.431373%,4.705882%);fill-opacity:1;" d="M 175.460938 319.445313 L 177.511719 318.191406 L 179.308594 317.90625 L 181.105469 318.191406 L 182.726563 319.019531 L 184.253906 320.78125 L 179.199219 323.441406 L 177.335938 322.691406 Z M 175.460938 319.445313 "/>
<path style=" stroke:none;fill-rule:nonzero;fill:rgb(80.392157%,58.431373%,4.705882%);fill-opacity:1;" d="M 174.644531 318.03125 L 177.226563 318.191406 L 178.847656 319.019531 L 180.136719 320.304688 L 181.046875 322.46875 L 179.199219 323.441406 L 177.335938 322.691406 Z M 174.644531 318.03125 "/>
<path style=" stroke:none;fill-rule:nonzero;fill:rgb(80.392157%,58.431373%,4.705882%);fill-opacity:1;" d="M 223.742188 66.191406 L 225.277344 66.96875 L 224.308594 74.617188 L 223.472656 74.351563 L 221.910156 72.433594 L 222.910156 68.203125 L 223.429688 67.644531 Z M 223.742188 66.191406 "/>
<path style=" stroke:none;fill-rule:nonzero;fill:rgb(80.392157%,58.431373%,4.705882%);fill-opacity:1;" d="M 189.007813 101.453125 L 189.121094 100.265625 L 187.730469 99.058594 L 186.953125 98.894531 L 186.835938 99.515625 L 186.335938 100.011719 L 184.679688 96.953125 L 188.613281 98.375 L 189.644531 99.757813 L 189.558594 100.558594 Z M 189.007813 101.453125 "/>
</g>
</svg>
