<?xml version="1.0" encoding="UTF-8"?>
<svg xmlns="http://www.w3.org/2000/svg" xmlns:xlink="http://www.w3.org/1999/xlink" width="378pt" height="504pt" viewBox="0 0 378 504" version="1.1">
<g id="data">
<rect x="0" y="0" width="378" height="504" style="fill:rgb(100%,100%,100%);fill-opacity:1;stroke:none;"/>
<path style=" stroke:none;fill-rule:nonzero;fill:rgb(100%,100%,100%);fill-opacity:1;" d="M 53.308594 504 L 324.691406 504 L 324.691406 0 L 53.308594 0 Z M 53.308594 504 "/>
<path style=" stroke:none;fill-rule:nonzero;fill:rgb(22.745098%,53.333333%,16.078431%);fill-opacity:1;" d="M 216.96875 322.734375 L 216.4375 321.683594 L 216.140625 319.988281 L 216.351563 318.28125 L 216.84375 316.523438 L 216.917969 315.3125 L 216.738281 314.109375 L 216.3125 312.972656 L 215.660156 311.949219 L 214.808594 311.085938 L 213.792969 310.421875 L 212.089844 309.757813 L 210.582031 308.890625 L 209.398438 307.617188 L 208.640625 306.046875 L 208.382813 304.328125 L 208.648438 302.605469 L 209.410156 301.042969 L 210.597656 299.773438 L 211.957031 298.699219 L 212.703125 297.824219 L 213.25 296.832031 L 213.574219 295.78125 L 213.667969 293.792969 L 213.46875 292.828125 L 212.738281 291.136719 L 212.261719 288.832031 L 212.261719 284.953125 L 212.578125 283.058594 L 213.496094 281.371094 L 214.914063 280.074219 L 216.675781 279.308594 L 218.59375 279.160156 L 220.453125 279.644531 L 221.171875 280.125 L 221.269531 280.457031 L 222.984375 284.039063 L 223.773438 285.027344 L 225.945313 294.183594 L 229.304688 299.0625 L 235.671875 302.03125 L 235.898438 303.125 L 236.429688 304.214844 L 237.171875 305.148438 L 238.492188 306.148438 L 240.0625 306.75 L 241.613281 306.882813 L 244.074219 306.390625 L 244.671875 306.371094 L 245.742188 307.636719 L 247.265625 310.527344 L 249.289063 315.722656 L 250.625 317.199219 L 250.925781 318.738281 L 251.019531 320.179688 L 250.839844 323.328125 L 251.222656 324.789063 L 251.882813 325.960938 L 253.324219 327.488281 L 254.214844 328.726563 L 254.753906 330.15625 L 255.335938 332.640625 L 256.347656 334.390625 L 258.726563 337.1875 L 260.441406 338.535156 L 260.6875 338.789063 L 263.316406 342.46875 L 263.640625 343.980469 L 262.804688 345.191406 L 263.28125 343.65625 L 262.507813 342.839844 L 260.445313 342 L 258.378906 342.789063 L 257.507813 342.753906 L 256.035156 341.773438 L 253.664063 338.65625 L 252.601563 338.082031 L 245.550781 339.511719 L 244.589844 338.644531 L 243.40625 338.558594 L 241.210938 339.871094 L 241.886719 340.445313 L 246.324219 340.394531 L 249.617188 339.34375 L 251.976563 339.082031 L 254.382813 342.558594 L 260.535156 347.621094 L 263.042969 349.058594 L 263.664063 349.039063 L 266.046875 352.214844 L 268.980469 359.304688 L 269.535156 362.402344 L 269.210938 365.21875 L 264.953125 369.09375 L 261.394531 373.164063 L 260.601563 374.816406 L 262.84375 374.3125 L 264.9375 375.519531 L 266.9375 378.226563 L 270.21875 378.804688 L 270.625 378.746094 L 271.910156 376.796875 L 272.234375 374.960938 L 273.40625 371.914063 L 274.707031 370.632813 L 277.851563 370.085938 L 283.34375 370.234375 L 284.253906 370.867188 L 286.703125 370.742188 L 293.949219 371.515625 L 296.914063 372.84375 L 304.070313 378.085938 L 305.367188 380.105469 L 306.730469 384.164063 L 307.179688 391.25 L 306.777344 393.191406 L 306.890625 393.976563 L 305.789063 396.917969 L 303.519531 407.832031 L 297.144531 414.53125 L 295.578125 412.011719 L 292.742188 410.515625 L 292.480469 410.636719 L 293.898438 413.703125 L 295.890625 416.628906 L 296.3125 416.765625 L 296.164063 417.742188 L 295.503906 418.597656 L 293.808594 418.554688 L 292.015625 418.722656 L 290.566406 419.113281 L 289.414063 419.726563 L 288.8125 420.261719 L 288.214844 419.332031 L 284.976563 421.730469 L 280.71875 424.230469 L 282.339844 425.378906 L 285.105469 424.398438 L 286.097656 423.375 L 286.894531 423.164063 L 287.027344 423.328125 L 286.878906 424.539063 L 287.035156 425.867188 L 287.429688 426.976563 L 287.53125 427.125 L 287.632813 428.84375 L 285.6875 430.875 L 283.441406 432.558594 L 282.84375 432.699219 L 279.644531 432.160156 L 274.75 433.78125 L 272.609375 436.117188 L 274.253906 436.015625 L 275.152344 434.667969 L 276.683594 434.363281 L 278.285156 434.328125 L 281.054688 434.949219 L 281.828125 435.589844 L 281.691406 436.328125 L 279.554688 436.347656 L 277.390625 437.65625 L 277.96875 438.546875 L 281.382813 438.964844 L 286.863281 440.339844 L 289.394531 439.9375 L 291.074219 438.957031 L 299.742188 437.757813 L 300.988281 440.148438 L 300.773438 446.324219 L 300.335938 447.820313 L 299.394531 449.050781 L 296.972656 450.242188 L 295.839844 450.375 L 292.621094 451.640625 L 291.179688 452.742188 L 289.847656 454.226563 L 289.460938 455.09375 L 289.214844 456.324219 L 289.464844 457.886719 L 286.253906 458.289063 L 284.1875 457.9375 L 282.96875 459.089844 L 282.210938 458.582031 L 280.460938 458.03125 L 278.609375 458.046875 L 276.90625 458.632813 L 275.339844 459.851563 L 274.289063 461.503906 L 273.90625 463.195313 L 272.597656 463.816406 L 270.539063 466.589844 L 269.761719 466.949219 L 259.269531 463.777344 L 256.070313 463.507813 L 244.628906 465.699219 L 242.703125 466.390625 L 242.113281 466.964844 L 242.078125 467.132813 L 240.980469 467.925781 L 238.210938 466.1875 L 238.632813 465.4375 L 239.46875 464.933594 L 237.714844 463.296875 L 231.496094 463.171875 L 231.378906 463.496094 L 232.574219 464.835938 L 232.214844 465.75 L 231.738281 466.042969 L 229.53125 465.804688 L 229.066406 464.828125 L 228.824219 463.054688 L 229.132813 461.292969 L 229.960938 459.707031 L 231.230469 458.449219 L 232.824219 457.636719 L 235.300781 456.824219 L 236.625 455.898438 L 237.707031 454.527344 L 238.328125 452.945313 L 238.472656 451.613281 L 238.28125 450.226563 L 237.757813 448.90625 L 236.597656 447.273438 L 235.617188 444.949219 L 235.308594 443.253906 L 234.929688 442.28125 L 234.308594 441.296875 L 233.21875 440.128906 L 232.367188 438.960938 L 230.988281 436.457031 L 229.566406 435.167969 L 227.996094 434.472656 L 225.230469 434.183594 L 223.167969 433.570313 L 221.46875 432.246094 L 219.707031 430.25 L 218.03125 429.261719 L 216.707031 428.929688 L 215.144531 428.945313 L 214.179688 429.171875 L 212.6875 429.835938 L 210.984375 430.300781 L 207.972656 430.644531 L 206.347656 431.398438 L 205.566406 432.035156 L 204.835938 432.925781 L 204.296875 433.941406 L 204.003906 434.917969 L 203.921875 436.714844 L 204.414063 438.753906 L 205.152344 440.222656 L 206.09375 441.292969 L 207.355469 442.136719 L 208.871094 442.636719 L 210.46875 442.707031 L 212.683594 442.199219 L 214.488281 442.074219 L 216.242188 442.507813 L 217.777344 443.457031 L 218.949219 444.835938 L 219.640625 446.503906 L 219.785156 448.304688 L 219.371094 450.066406 L 218.4375 451.609375 L 217.070313 452.796875 L 214.1875 454.601563 L 213.636719 455.210938 L 213.070313 456.136719 L 212.6875 457.148438 L 212.5 458.214844 L 212.515625 459.296875 L 212.839844 460.894531 L 212.933594 462.601563 L 212.523438 464.261719 L 211.648438 465.730469 L 210.382813 466.882813 L 208.839844 467.617188 L 207.148438 467.871094 L 205.457031 467.621094 L 203.914063 466.890625 L 201.519531 465.292969 L 199.261719 464.644531 L 198.058594 464.640625 L 196.113281 465.085938 L 194.4375 465.21875 L 192.496094 465.09375 L 189.097656 465.378906 L 187.710938 465.863281 L 186.511719 466.660156 L 185.484375 467.824219 L 185.203125 468.386719 L 183.121094 467.984375 L 181.648438 469.066406 L 176.207031 469.78125 L 174.339844 470.335938 L 169.707031 472.847656 L 169.59375 472.753906 L 168.605469 471.136719 L 168.191406 469.285156 L 168.394531 467.402344 L 169.191406 465.683594 L 170.433594 463.859375 L 170.929688 462.484375 L 171.058594 461.027344 L 170.808594 459.511719 L 169.515625 456.402344 L 168.699219 455.191406 L 167.394531 454.058594 L 165.238281 453.066406 L 163.648438 451.976563 L 162.496094 450.429688 L 161.917969 448.589844 L 161.972656 446.660156 L 162.144531 446.199219 L 164.597656 446.761719 L 166.046875 446.148438 L 167.527344 446.515625 L 169.484375 447.285156 L 170.039063 448.109375 L 170.757813 448.421875 L 173.15625 448.464844 L 180.570313 447.503906 L 181.109375 445.632813 L 181.210938 443.15625 L 182.519531 440.25 L 190.867188 432.195313 L 195.792969 425.3125 L 197.929688 424.472656 L 198.285156 423.78125 L 198.070313 423.238281 L 197.8125 423.082031 L 196.09375 424.355469 L 192.90625 427.300781 L 190.570313 429.988281 L 189.222656 431.449219 L 185.628906 432.957031 L 183.714844 433.246094 L 182.441406 433.0625 L 178.394531 435.230469 L 177.398438 436.808594 L 177.039063 438.671875 L 176.445313 439.273438 L 174.058594 439.917969 L 170.558594 439.851563 L 169.484375 439.609375 L 169.953125 438.800781 L 170.261719 437.84375 L 170.402344 436.683594 L 170.3125 435.539063 L 169.839844 433.871094 L 169.617188 432.136719 L 169.921875 430.410156 L 170.726563 428.855469 L 171.789063 427.394531 L 172.3125 426.203125 L 172.550781 425.03125 L 172.539063 424.015625 L 171.929688 421.957031 L 170.785156 420.378906 L 169.191406 419.289063 L 166.222656 418.523438 L 164.617188 417.835938 L 163.285156 416.703125 L 162.351563 415.226563 L 161.898438 413.539063 L 161.964844 411.792969 L 162.550781 410.148438 L 163.597656 408.75 L 165.011719 407.722656 L 166.667969 407.164063 L 168.242188 406.886719 L 169.332031 406.472656 L 170.214844 405.921875 L 171.476563 404.75 L 172.976563 403.742188 L 174.707031 403.246094 L 176.511719 403.300781 L 178.210938 403.90625 L 179.640625 405.003906 L 180.667969 406.488281 L 181.191406 408.214844 L 181.519531 410.585938 L 182.160156 412.039063 L 183.171875 413.265625 L 184.480469 414.164063 L 186.089844 414.710938 L 189.046875 414.96875 L 191.984375 414.691406 L 193.5 414.164063 L 195.082031 412.980469 L 196.238281 411.277344 L 196.597656 410.207031 L 196.785156 408.40625 L 197.15625 406.886719 L 198.105469 404.472656 L 198.246094 402.769531 L 198.027344 401.535156 L 197.230469 399.691406 L 196.761719 397.050781 L 196.9375 394.019531 L 196.304688 391.929688 L 195.621094 390.898438 L 193.921875 389.207031 L 192.890625 388.460938 L 191.4375 387.785156 L 189.867188 386.714844 L 188.726563 385.195313 L 188.136719 383.394531 L 188.160156 381.496094 L 188.789063 379.703125 L 189.964844 378.214844 L 191.558594 377.179688 L 193.398438 376.714844 L 196.25 376.476563 L 197.992188 375.707031 L 199.320313 374.496094 L 200.710938 371.980469 L 201.8125 370.5625 L 203.292969 369.546875 L 205.011719 369.035156 L 206.808594 369.066406 L 208.503906 369.648438 L 209.945313 370.71875 L 210.992188 372.175781 L 211.542969 373.882813 L 212.597656 380.511719 L 213.0625 381.566406 L 213.773438 382.523438 L 215.132813 383.636719 L 217.699219 384.851563 L 219.117188 385.21875 L 220.324219 385.242188 L 222.226563 384.746094 L 223.832031 383.699219 L 225.261719 382.003906 L 225.742188 381.5 L 228.222656 379.183594 L 228.6875 378.40625 L 229.046875 377.382813 L 229.222656 375.929688 L 229.050781 374.570313 L 228.183594 372.402344 L 227.96875 371.75 L 227.101563 368.515625 L 226.648438 367.761719 L 225.421875 366.421875 L 224.527344 365.132813 L 224.007813 363.648438 L 223.90625 362.085938 L 224.035156 360.28125 L 223.847656 358.09375 L 223.148438 355.910156 L 222.273438 354.667969 L 221.117188 353.722656 L 219.648438 353.074219 L 217.273438 352.746094 L 215.613281 352.253906 L 214.171875 351.292969 L 213.074219 349.949219 L 212.421875 348.34375 L 212.273438 346.617188 L 212.457031 343.695313 L 211.828125 341.539063 L 211.269531 340.644531 L 208.832031 337.796875 L 206.605469 335.949219 L 205.335938 334.472656 L 204.628906 332.65625 L 204.558594 330.710938 L 205.132813 328.851563 L 206.292969 327.285156 L 207.902344 326.1875 L 209.785156 325.6875 L 211.375 325.539063 L 212.496094 325.210938 L 213.433594 324.730469 L 214.707031 323.742188 L 216.238281 322.890625 Z M 223.285156 325.503906 L 223.585938 325.976563 L 224.050781 327.664063 L 224.28125 329.679688 L 224.703125 330.863281 L 225.382813 331.9375 L 226.292969 332.851563 L 227.390625 333.558594 L 229.953125 334.648438 L 231.273438 334.867188 L 232.515625 334.789063 L 233.828125 334.398438 L 234.9375 333.769531 L 235.898438 332.90625 L 237.296875 331.105469 L 237.953125 329.960938 L 238.316406 328.867188 L 238.453125 327.726563 L 238.378906 326.761719 L 237.6875 324.792969 L 235.976563 322.460938 L 234.617188 321.347656 L 233.125 320.71875 L 231.328125 320.539063 L 229.59375 320.910156 L 228.054688 321.789063 L 226.246094 323.769531 L 224.910156 324.855469 L 223.3125 325.5 Z M 233.308594 468.757813 L 232.621094 468.617188 L 231.058594 467.746094 L 230.578125 467.234375 L 232.550781 467.761719 Z M 141.796875 244.234375 L 140.128906 243.554688 L 138.75 242.394531 L 138.679688 242.285156 L 138.6875 242.234375 L 140.710938 241.59375 L 142.886719 242.511719 L 146.15625 243.175781 L 148.300781 243.253906 L 141.261719 240.453125 L 140.441406 240.5625 L 139.386719 240.085938 L 139.183594 238.121094 L 139.414063 236.460938 L 140.238281 234.648438 L 139.292969 234.9375 L 138.320313 240.257813 L 137.945313 241.113281 L 137.792969 240.871094 L 137.347656 239.128906 L 137.453125 237.332031 L 138.105469 235.652344 L 139.242188 234.253906 L 140.75 233.273438 L 142.484375 232.796875 L 143.765625 232.652344 L 145.675781 232.753906 L 147.449219 233.46875 L 148.894531 234.722656 L 149.855469 236.378906 L 150.042969 236.871094 L 150.40625 238.621094 L 150.242188 240.210938 L 151.300781 239.917969 L 153.050781 239.976563 L 155.046875 240.351563 L 157.199219 240.316406 L 159.476563 239.636719 L 160.1875 239.195313 L 161.050781 238.394531 L 161.671875 237.542969 L 162.410156 235.96875 L 163.449219 234.4375 L 164.914063 233.3125 L 166.660156 232.703125 L 168.363281 232.402344 L 169.429688 231.984375 L 170.40625 231.355469 L 171 230.78125 L 172.144531 228.855469 L 172.507813 226.800781 L 172.125 224.769531 L 170.476563 222.09375 L 169.78125 220.417969 L 169.632813 218.609375 L 170.050781 216.839844 L 170.992188 215.289063 L 172.367188 214.101563 L 174.042969 213.398438 L 175.851563 213.246094 L 177.617188 213.660156 L 179.832031 214.558594 L 181.421875 214.734375 L 182.976563 214.480469 L 185.574219 213.382813 L 187.382813 212.945313 L 188.328125 213.019531 L 188.261719 212.742188 L 188.375 211.011719 L 188.949219 208.390625 L 188.777344 206.101563 L 188.128906 204.484375 L 186.445313 202.441406 L 185.5625 200.964844 L 185.148438 199.292969 L 185.242188 197.574219 L 185.835938 195.957031 L 186.875 194.585938 L 188.269531 193.578125 L 189.898438 193.023438 L 193.207031 192.421875 L 193.9375 192.066406 L 195.234375 191.109375 L 196.800781 190.285156 L 198.546875 189.972656 L 200.304688 190.199219 L 201.914063 190.945313 L 203.222656 192.140625 L 204.113281 193.675781 L 204.496094 195.40625 L 204.339844 197.171875 L 203.660156 198.8125 L 202.019531 201.5 L 201.644531 203.539063 L 201.941406 205.148438 L 200.949219 206.4375 L 199.179688 207.605469 L 197.078125 210.023438 L 197.433594 210.839844 L 197.785156 210.703125 L 197.761719 211.238281 L 196.796875 214.386719 L 195.867188 215.914063 L 191.214844 219.742188 L 185.519531 221.085938 L 182.847656 221.226563 L 177.804688 225.21875 L 178.117188 225.714844 L 179.84375 225.195313 L 184.609375 222.886719 L 186.457031 221.386719 L 187.289063 221.316406 L 189.085938 221.875 L 189.332031 222.921875 L 188.898438 224.691406 L 189.238281 225.953125 L 190.898438 226.824219 L 192.773438 227.15625 L 192.695313 230.421875 L 192.816406 230.882813 L 192.117188 231.570313 L 189.460938 232.730469 L 188.34375 232.882813 L 187.070313 232.078125 L 185.40625 232.042969 L 181.046875 235.800781 L 180.578125 237.003906 L 174.761719 240.109375 L 170.214844 238.117188 L 166.480469 238.003906 L 166.738281 239.222656 L 168.246094 240.195313 L 178.0625 241.875 L 182.921875 243.167969 L 186.398438 241.730469 L 187.519531 239.417969 L 188.617188 238.355469 L 189.539063 238.171875 L 193.183594 238.5 L 199.339844 242.761719 L 206.488281 246.65625 L 208.910156 251.429688 L 212.824219 256.707031 L 213.265625 256.828125 L 213.433594 256.585938 L 214.601563 257.097656 L 217.371094 258.992188 L 218.679688 263.09375 L 218.894531 265.933594 L 218.261719 267.402344 L 218.851563 270.195313 L 217.65625 270.324219 L 215.871094 269.945313 L 214.289063 269.035156 L 213.066406 267.679688 L 212.328125 266.011719 L 211.917969 264.46875 L 211.410156 263.421875 L 210.789063 262.589844 L 209.515625 261.429688 L 209.335938 261.199219 L 209.113281 261.183594 L 207.1875 260.722656 L 205.882813 260.722656 L 204.097656 261.222656 L 201.882813 262.679688 L 199.878906 263.507813 L 197.707031 263.546875 L 194.816406 263.050781 L 191.921875 263.546875 L 189.851563 263.527344 L 187.917969 262.785156 L 186.367188 261.410156 L 185.089844 259.785156 L 183.464844 258.507813 L 181.808594 256.433594 L 180.703125 254.105469 L 179.582031 252.882813 L 177.582031 251.75 L 176.332031 251.355469 L 175.429688 251.238281 L 173.355469 251.511719 L 171.582031 252.410156 L 170.28125 253.769531 L 169.082031 256.375 L 168.070313 257.886719 L 166.640625 259.015625 L 164.929688 259.644531 L 163.113281 259.714844 L 161.359375 259.21875 L 159.847656 258.203125 L 158.582031 257.03125 L 157.6875 256.472656 L 156.699219 256.089844 L 155.003906 255.78125 L 153.046875 255.042969 L 151.476563 253.65625 L 150.199219 252.03125 L 148.574219 250.753906 L 147.480469 249.621094 L 146.726563 248.238281 L 146.542969 247.746094 L 146.179688 246.035156 L 146.328125 244.417969 L 145.046875 244.71875 L 143.261719 244.582031 Z M 174.640625 318.027344 L 175.429688 317.90625 L 179.308594 317.90625 L 180.992188 318.15625 L 182.53125 318.882813 L 184.597656 320.257813 L 184.914063 320.359375 L 184.742188 320.527344 L 179.199219 323.441406 L 177.335938 322.691406 Z M 187.726563 320.765625 L 189.210938 320.53125 L 190.949219 320.519531 L 192.613281 321.019531 L 194.054688 321.992188 L 195.140625 323.34375 L 195.785156 324.957031 L 195.921875 326.691406 L 195.539063 328.382813 L 194.675781 329.890625 L 192.847656 332.195313 L 192.179688 334.136719 L 192.140625 335.519531 L 192.710938 337.847656 L 192.847656 338.632813 L 193.148438 341.542969 L 193.523438 342.519531 L 194.128906 343.453125 L 195.355469 344.597656 L 197.480469 345.691406 L 199.019531 346.84375 L 200.097656 348.429688 L 201.089844 350.582031 L 202.621094 352.386719 L 203.550781 353.894531 L 203.980469 355.609375 L 203.878906 357.375 L 203.246094 359.03125 L 202.148438 360.417969 L 200.683594 361.410156 L 198.988281 361.914063 L 197.21875 361.886719 L 195.054688 361.519531 L 193.617188 361.644531 L 192.15625 362.167969 L 190.359375 363.40625 L 188.789063 364.167969 L 187.0625 364.429688 L 183.183594 364.429688 L 181.765625 364.253906 L 180.191406 363.859375 L 179.117188 363.792969 L 178.011719 363.933594 L 176.417969 364.425781 L 175.324219 364.992188 L 174.496094 365.648438 L 173.738281 366.535156 L 173.171875 367.554688 L 172.84375 368.558594 L 172.703125 369.714844 L 172.792969 370.863281 L 173.269531 372.527344 L 173.492188 374.25 L 173.195313 375.957031 L 172.40625 377.503906 L 171.199219 378.75 L 169.675781 379.582031 L 167.976563 379.929688 L 166.25 379.761719 L 164.652344 379.089844 L 161.964844 377.453125 L 159.921875 377.074219 L 157.882813 377.453125 L 155.195313 379.089844 L 153.5 379.785156 L 153.324219 379.796875 L 152.269531 378.203125 L 152.683594 374.835938 L 153.175781 374.082031 L 152.804688 373.207031 L 150.203125 373.105469 L 146.410156 374.027344 L 146.378906 373.566406 L 146.609375 371.195313 L 146.332031 369.65625 L 145.996094 368.980469 L 147.132813 367.984375 L 147.953125 364.523438 L 151.550781 360.582031 L 153.09375 359.609375 L 154.941406 359.808594 L 160.492188 357.457031 L 163.644531 357.28125 L 167.339844 357.714844 L 172.597656 355.179688 L 173.933594 355.046875 L 174.484375 355.082031 L 179.910156 359.441406 L 180.433594 358.429688 L 177.679688 353.460938 L 178.242188 352.835938 L 180.867188 352.449219 L 181.503906 352.695313 L 181.914063 353.875 L 182.898438 354.332031 L 184.078125 356.789063 L 185.613281 357.902344 L 188.359375 357.621094 L 190.335938 355.148438 L 189.90625 355.050781 L 188.667969 355.527344 L 188.3125 355.957031 L 186.378906 356.386719 L 183.8125 354.640625 L 179.976563 346.332031 L 183.371094 340.257813 L 185.429688 339.015625 L 185.140625 338.578125 L 182.683594 338.460938 L 181.554688 337.164063 L 181.355469 336.117188 L 181.601563 331.078125 L 181.949219 330.421875 L 184.695313 329.191406 L 187.28125 323.421875 L 187.71875 320.933594 Z M 143.21875 359.679688 L 143.25 359.59375 L 144.398438 358.171875 L 145.929688 357.179688 L 147.695313 356.707031 L 150.425781 356.425781 L 151.894531 355.753906 L 155.546875 356.503906 L 154.066406 358.859375 L 150.984375 360.816406 L 147.425781 363.976563 L 146.109375 363.875 L 144.195313 361.613281 Z M 154.230469 159.695313 L 154.316406 159.488281 L 154.464844 159.796875 L 155.875 160.457031 L 161.363281 161.917969 L 164.042969 162.292969 L 165.242188 161.992188 L 166.015625 161.605469 L 166.75 160.257813 L 167.589844 160.183594 L 167.507813 160.828125 L 166.417969 162.609375 L 162.722656 166.96875 L 162.175781 167.183594 L 161.726563 166.894531 L 161.859375 165.949219 L 161.53125 165.507813 L 159.984375 165.785156 L 155.320313 167.769531 L 152.441406 170.8125 L 151.949219 171.945313 L 152.140625 172.144531 L 156.390625 168.453125 L 157.75 167.980469 L 160.300781 168.324219 L 161.058594 169.320313 L 157.109375 173.804688 L 156.367188 175.339844 L 156.707031 175.816406 L 157.367188 175.984375 L 158.261719 175.542969 L 161.140625 173.015625 L 167.808594 170.273438 L 170.480469 169.527344 L 170.492188 169.949219 L 171.554688 169.839844 L 173.589844 168.316406 L 174.046875 166.78125 L 178.648438 166.167969 L 179.285156 167.089844 L 180.148438 167.667969 L 184.320313 169.011719 L 187.675781 167.128906 L 188.8125 167.3125 L 188.992188 168.921875 L 188.617188 170.71875 L 187.699219 172.3125 L 185.8125 174.632813 L 185.378906 175.640625 L 185.015625 177.503906 L 184.523438 178.972656 L 183.660156 180.257813 L 182.597656 181.453125 L 182.027344 182.417969 L 181.613281 183.640625 L 181.40625 185.523438 L 180.894531 187.351563 L 179.820313 188.917969 L 178.296875 190.054688 L 176.492188 190.640625 L 174.589844 190.613281 L 170.519531 189.875 L 168.667969 189.203125 L 167.148438 187.949219 L 166.132813 186.261719 L 165.464844 184.546875 L 164.847656 183.59375 L 164.054688 182.785156 L 163.03125 182.097656 L 161.921875 181.652344 L 160.644531 181.441406 L 159.355469 181.515625 L 157.609375 182 L 155.917969 182.214844 L 154.238281 181.925781 L 152.714844 181.164063 L 151.476563 179.996094 L 150.199219 178.371094 L 148.574219 177.09375 L 147.386719 175.828125 L 146.621094 174.269531 L 146.355469 172.554688 L 146.605469 170.835938 L 147.351563 169.269531 L 148.523438 167.992188 L 150.402344 166.480469 L 153.117188 163.179688 L 153.785156 161.828125 Z M 154.761719 158.359375 L 154.960938 157.863281 L 156.257813 156.375 L 157.980469 155.410156 L 159.921875 155.078125 L 163.867188 155.078125 L 162.601563 156.074219 L 162.234375 157.082031 L 162.671875 158.175781 L 162.078125 159.632813 L 159.644531 160.289063 L 156.839844 159.359375 Z M 286.679688 439.636719 L 283.058594 438.976563 L 282.164063 437.605469 L 282.484375 436.070313 L 286.839844 437.054688 L 287.960938 438.832031 Z M 236.835938 466.113281 L 235.136719 465.644531 L 236.523438 463.683594 L 237.195313 464.164063 L 237.5 465.839844 Z M 236.835938 466.113281 "/>
<path style=" stroke:none;fill-rule:nonzero;fill:rgb(80.392157%,58.431373%,4.705882%);fill-opacity:1;" d="M 165.738281 478.800781 L 165.453125 480.597656 L 164.628906 482.21875 L 163.339844 483.503906 L 161.71875 484.332031 L 159.921875 484.617188 L 158.125 484.332031 L 156.503906 483.503906 L 155.21875 482.21875 L 154.390625 480.597656 L 154.109375 478.800781 L 154.390625 477.003906 L 155.21875 475.382813 L 156.503906 474.09375 L 158.125 473.269531 L 159.921875 472.984375 L 161.71875 473.269531 L 163.339844 474.09375 L 164.628906 475.382813 L 165.453125 477.003906 Z M 165.738281 478.800781 "/>
<path style=" stroke:none;fill-rule:nonzero;fill:rgb(80.392157%,58.431373%,4.705882%);fill-opacity:1;" d="M 150.230469 471.046875 L 149.945313 472.84375 L 149.121094 474.464844 L 147.832031 475.75 L 146.210938 476.578125 L 144.414063 476.863281 L 142.617188 476.578125 L 140.996094 475.75 L 139.710938 474.464844 L 138.882813 472.84375 L 138.601563 471.046875 L 138.882813 469.25 L 139.710938 467.628906 L 140.996094 466.339844 L 142.617188 465.515625 L 144.414063 465.230469 L 146.210938 465.515625 L 147.832031 466.339844 L 149.121094 467.628906 L 149.945313 469.25 Z M 150.230469 471.046875 "/>
<path style=" stroke:none;fill-rule:nonzero;fill:rgb(80.392157%,58.431373%,4.705882%);fill-opacity:1;" d="M 192.875 288.832031 L 192.59375 290.628906 L 191.765625 292.25 L 190.480469 293.535156 L 188.859375 294.363281 L 187.0625 294.644531 L 185.265625 294.363281 L 183.644531 293.535156 L 182.355469 292.25 L 181.53125 290.628906 L 181.246094 288.832031 L 181.53125 287.035156 L 181.792969 286.519531 L 182.933594 286.238281 L 183.03125 285.160156 L 182.769531 285 L 183.644531 284.125 L 185.265625 283.300781 L 187.0625 283.015625 L 188.859375 283.300781 L 190.480469 284.125 L 191.765625 285.414063 L 192.59375 287.035156 Z M 192.875 288.832031 "/>
<path style=" stroke:none;fill-rule:nonzero;fill:rgb(80.392157%,58.431373%,4.705882%);fill-opacity:1;" d="M 168.339844 288.539063 L 167.929688 288.949219 L 166.234375 288.695313 L 163.3125 290.011719 L 162.828125 290.613281 L 162.003906 290.484375 L 160.382813 289.660156 L 159.09375 288.371094 L 158.269531 286.75 L 157.984375 284.953125 L 158.269531 283.15625 L 159.09375 281.535156 L 160.382813 280.25 L 162.003906 279.421875 L 163.800781 279.136719 L 165.597656 279.421875 L 167.21875 280.25 L 168.503906 281.535156 L 169.332031 283.15625 L 169.46875 284.035156 L 169.453125 284.03125 Z M 168.339844 288.539063 "/>
<path style=" stroke:none;fill-rule:nonzero;fill:rgb(80.392157%,58.431373%,4.705882%);fill-opacity:1;" d="M 150.230469 420.644531 L 149.945313 422.441406 L 149.121094 424.0625 L 147.832031 425.351563 L 146.808594 425.875 L 143.210938 423.710938 L 139.535156 423.714844 L 138.882813 422.441406 L 138.601563 420.644531 L 138.882813 418.847656 L 139.710938 417.226563 L 140.996094 415.941406 L 142.617188 415.117188 L 144.414063 414.832031 L 146.210938 415.117188 L 147.832031 415.941406 L 149.121094 417.226563 L 149.945313 418.847656 Z M 150.230469 420.644531 "/>
<path style=" stroke:none;fill-rule:nonzero;fill:rgb(80.392157%,58.431373%,4.705882%);fill-opacity:1;" d="M 154.109375 424.523438 L 153.824219 426.320313 L 152.996094 427.941406 L 151.710938 429.226563 L 150.089844 430.054688 L 148.292969 430.339844 L 147.019531 430.136719 L 146.917969 429.308594 L 148.539063 428.378906 L 150.066406 428.890625 L 151.640625 428.421875 L 152.765625 427.832031 L 153.085938 427.097656 L 152.808594 426.597656 L 147.785156 426.460938 L 143.210938 423.710938 L 142.605469 423.710938 L 142.761719 422.726563 L 143.585938 421.105469 L 144.875 419.816406 L 146.496094 418.992188 L 148.292969 418.707031 L 150.089844 418.992188 L 151.710938 419.816406 L 152.996094 421.105469 L 153.824219 422.726563 Z M 154.109375 424.523438 "/>
<path style=" stroke:none;fill-rule:nonzero;fill:rgb(80.392157%,58.431373%,4.705882%);fill-opacity:1;" d="M 181.246094 288.832031 L 180.960938 290.628906 L 180.136719 292.25 L 178.847656 293.535156 L 177.226563 294.363281 L 175.429688 294.644531 L 173.632813 294.363281 L 172.011719 293.535156 L 171.859375 293.382813 L 174.074219 288.722656 L 176.464844 286.417969 L 178.757813 285.980469 L 180.191406 286.804688 L 180.808594 286.734375 L 180.960938 287.035156 Z M 171.902344 284.238281 L 172.011719 284.125 L 173.632813 283.300781 L 175.429688 283.015625 L 177.226563 283.300781 L 178.847656 284.125 L 180.066406 285.34375 L 180.035156 285.351563 L 174.65625 284.980469 L 172.566406 284.292969 Z M 171.902344 284.238281 "/>
<path style=" stroke:none;fill-rule:nonzero;fill:rgb(80.392157%,58.431373%,4.705882%);fill-opacity:1;" d="M 191.269531 114.40625 L 190.480469 115.195313 L 189.15625 115.871094 L 186.777344 113.90625 L 184.832031 114.03125 L 183.105469 114.65625 L 182.355469 113.910156 L 181.53125 112.289063 L 181.246094 110.492188 L 181.53125 108.695313 L 182.355469 107.074219 L 183.644531 105.789063 L 183.820313 105.699219 L 184.519531 106.003906 L 186.230469 108.273438 L 187.324219 111.371094 L 189.425781 112.382813 L 190.734375 113.441406 Z M 191.269531 114.40625 "/>
<path style=" stroke:none;fill-rule:nonzero;fill:rgb(80.392157%,58.431373%,4.705882%);fill-opacity:1;" d="M 223.742188 66.191406 L 223.75 66.191406 L 225.277344 66.96875 L 225.265625 67.207031 L 224.308594 74.617188 L 223.472656 74.351563 L 221.910156 72.433594 L 222.910156 68.203125 L 223.429688 67.644531 Z M 223.742188 66.191406 "/>
<path style=" stroke:none;fill-rule:nonzero;fill:rgb(80.392157%,58.431373%,4.705882%);fill-opacity:1;" d="M 189.007813 101.453125 L 189.121094 100.265625 L 187.730469 99.058594 L 186.953125 98.894531 L 186.835938 99.515625 L 186.335938 100.011719 L 184.679688 96.953125 L 188.613281 98.375 L 189.644531 99.757813 L 189.558594 100.558594 Z M 189.007813 101.453125 "/>
</g>
</svg>
