<?xml version="1.0" encoding="UTF-8"?>
<svg xmlns="http://www.w3.org/2000/svg" xmlns:xlink="http://www.w3.org/1999/xlink" width="378pt" height="504pt" viewBox="0 0 378 504" version="1.1">
<g id="data">
<rect x="0" y="0" width="378" height="504" style="fill:rgb(100%,100%,100%);fill-opacity:1;stroke:none;"/>
<path style=" stroke:none;fill-rule:nonzero;fill:rgb(100%,100%,100%);fill-opacity:1;" d="M 53.308594 504 L 324.691406 504 L 324.691406 0 L 53.308594 0 Z M 53.308594 504 "/>
<path style=" stroke:none;fill-rule:nonzero;fill:rgb(22.745098%,53.333333%,16.078431%);fill-opacity:1;" d="M 304.632813 391.332031 L 306.789063 393.128906 L 306.777344 393.191406 L 306.875 393.867188 L 306.015625 394.695313 Z M 294.984375 446.898438 L 295.050781 449.3125 L 295.351563 450.566406 L 293.742188 451.199219 L 292.566406 450.910156 L 293.945313 449.082031 Z M 272.355469 424.523438 L 272.871094 421.566406 L 276.816406 421.652344 L 282.714844 420.128906 L 285.460938 418.828125 L 287.863281 416.769531 L 287.308594 420.003906 L 284.976563 421.730469 L 281.78125 423.605469 L 279.96875 423.75 L 276.246094 425.445313 L 273.414063 428.21875 Z M 287.367188 424.386719 L 285.589844 423.898438 L 286.097656 423.375 L 286.894531 423.164063 L 287.328125 423.710938 Z M 271.015625 465.949219 L 270.015625 465.035156 L 267.308594 463.648438 L 271.042969 462.03125 L 273.988281 459.226563 L 275.789063 455.578125 L 276.230469 451.660156 L 279.214844 453.617188 L 282.78125 454.585938 L 281.152344 456.839844 L 280.109375 459.414063 L 277.53125 460.554688 L 275.304688 462.277344 L 274.941406 462.742188 L 274.789063 462.777344 L 272.597656 463.816406 Z M 269.613281 438.203125 L 271.292969 436.335938 L 272.355469 440.03125 Z M 249.09375 416.769531 L 249.09375 412.890625 L 251.941406 412.292969 L 254.550781 411.003906 L 258.835938 407.484375 L 260.722656 405.136719 L 264.601563 405.136719 L 263.828125 407.273438 L 263.476563 409.640625 L 259.675781 409.535156 L 256.042969 410.65625 L 251.351563 414.082031 Z M 255.148438 343.1875 L 254.414063 343.222656 L 251.941406 343.886719 L 249.777344 345.003906 L 247.808594 346.640625 L 246.308594 348.558594 L 245.199219 350.867188 L 244.636719 353.234375 L 244.582031 355.667969 L 243.265625 353.058594 L 241.339844 350.863281 L 242.476563 348.148438 L 242.898438 345.109375 L 242.507813 342.066406 L 241.816406 340.386719 L 241.886719 340.445313 L 246.324219 340.394531 L 249.617188 339.34375 L 250.640625 339.230469 L 252.082031 339.230469 L 254.382813 342.558594 Z M 241.527344 339.683594 L 241.339844 339.230469 L 242.074219 339.355469 Z M 247.265625 464.757813 L 246.820313 465.28125 L 245.03125 465.621094 L 244.730469 463.109375 Z M 229.707031 455.539063 L 231.78125 452.242188 L 232.652344 448.441406 L 234.851563 450.355469 L 237.460938 451.660156 L 237.945313 455.707031 L 233.84375 454.867188 Z M 202.570313 409.015625 L 204.277344 411.1875 L 206.445313 412.890625 L 204.089844 415.78125 L 203.859375 412.34375 Z M 194.816406 432.277344 L 195.195313 435.957031 L 196.714844 439.332031 L 199.316406 442.140625 L 202.570313 443.90625 L 199.992188 445.046875 L 197.765625 446.769531 L 196.019531 448.976563 L 194.816406 451.660156 L 194.554688 448.476563 L 193.441406 445.484375 L 191.554688 442.90625 L 189.148438 441.007813 L 185.082031 439.125 L 183.929688 438.886719 L 186.664063 436.25 L 190.621094 435.28125 L 192.835938 434.050781 Z M 175.484375 439.53125 L 175.746094 437.152344 L 175.335938 434.28125 L 177.25 435.574219 L 177.984375 435.882813 L 177.398438 436.808594 L 177.039063 438.671875 L 176.445313 439.273438 Z M 187.0625 257.816406 L 188.769531 259.984375 L 190.9375 261.691406 L 187.0625 261.691406 Z M 125.363281 475.207031 L 126.976563 476.589844 L 129.242188 477.789063 L 131.714844 478.464844 L 134.273438 478.578125 L 137.53125 477.890625 L 140.457031 476.308594 L 142.816406 473.964844 L 144.414063 471.046875 L 147.898438 473.195313 L 151.785156 474 L 154.089844 473.847656 L 156.199219 473.289063 L 158.167969 472.34375 L 159.921875 471.046875 L 162.242188 472.066406 L 164.726563 472.558594 L 167.257813 472.503906 L 169.597656 471.945313 L 167.070313 473.910156 L 165.179688 476.492188 L 164.058594 479.488281 L 163.800781 482.675781 L 161.867188 480.441406 L 159.4375 478.769531 L 156.785156 477.789063 L 153.851563 477.476563 L 151.054688 477.882813 L 148.4375 478.949219 L 146.25 480.53125 L 144.414063 482.675781 L 140.539063 482.675781 L 138.1875 482.019531 L 135.75 481.867188 L 133.210938 482.261719 L 130.707031 483.265625 L 128.3125 484.988281 L 126.429688 487.261719 L 125.109375 490.257813 L 124.039063 490.597656 L 123.738281 491.824219 L 123.480469 492.105469 L 122.285156 494.046875 L 121.527344 496.0625 L 121.285156 497.4375 L 120.660156 497.648438 L 120.394531 498.183594 L 118.253906 498.183594 L 117.96875 497.691406 L 118.09375 496.4375 L 117.15625 494.691406 L 115.984375 493.691406 L 112.253906 492.070313 L 111.410156 491.984375 L 110.375 492.488281 L 110.242188 494.183594 L 110.03125 494.425781 L 108.148438 494.160156 L 105.644531 494.308594 L 105.441406 494.242188 L 105.628906 491.574219 L 106.074219 490.5625 L 106.324219 490.453125 L 108.777344 490.53125 L 112.847656 489.65625 L 114.875 488.613281 L 117.277344 486.554688 L 119.363281 485.578125 L 121.21875 484.210938 L 122.988281 482.191406 L 124.167969 480.003906 L 124.375 479.769531 L 125.210938 477.886719 L 124.9375 476.691406 L 124.960938 476.199219 Z M 137.828125 322.476563 L 138.132813 322.152344 L 139.347656 320.222656 L 140.164063 318.089844 L 140.496094 316.199219 L 141.511719 315.539063 L 143.113281 314.832031 L 145.339844 313.109375 L 147.15625 310.792969 L 148.121094 308.597656 L 148.292969 308.539063 L 148.292969 312.09375 L 146.820313 313.664063 L 145.605469 315.59375 L 144.789063 317.722656 L 144.414063 319.847656 L 142.246094 321.554688 L 141.226563 322.847656 L 139.824219 322.464844 L 137.933594 323.433594 L 137.675781 322.921875 Z M 88.53125 500.019531 L 88.453125 499.917969 L 88.566406 499.308594 L 88.941406 499.117188 L 89.34375 499.789063 Z M 88.53125 500.019531 "/>
</g>
</svg>
