<?xml version="1.0" encoding="UTF-8"?>
<svg xmlns="http://www.w3.org/2000/svg" xmlns:xlink="http://www.w3.org/1999/xlink" width="378pt" height="504pt" viewBox="0 0 378 504" version="1.1">
<g id="data">
<rect x="0" y="0" width="378" height="504" style="fill:rgb(100%,100%,100%);fill-opacity:1;stroke:none;"/>
<path style=" stroke:none;fill-rule:nonzero;fill:rgb(100%,100%,100%);fill-opacity:1;" d="M 53.308594 504 L 324.691406 504 L 324.691406 0 L 53.308594 0 Z M 53.308594 504 "/>
<path style=" stroke:none;fill-rule:nonzero;fill:rgb(22.745098%,53.333333%,16.078431%);fill-opacity:1;" d="M 198.691406 412.890625 L 201.296875 411.519531 L 203.476563 409.535156 L 205.085938 407.070313 L 206.023438 404.277344 L 206.230469 401.339844 L 205.695313 398.445313 L 204.445313 395.777344 L 202.570313 393.507813 L 204.691406 393.132813 L 206.820313 392.320313 L 208.75 391.105469 L 210.324219 389.628906 L 210.527344 391.804688 L 211.183594 394.023438 L 212.265625 396.066406 L 213.730469 397.855469 L 215.519531 399.320313 L 217.5625 400.402344 L 219.652344 401.03125 L 221.953125 401.261719 L 219.679688 402.148438 L 217.640625 403.488281 L 215.925781 405.226563 L 214.609375 407.28125 L 213.753906 409.566406 L 213.390625 411.980469 L 213.542969 414.417969 L 214.199219 416.769531 L 210.136719 416.535156 L 206.242188 417.714844 L 204.207031 419.035156 L 202.570313 420.644531 L 199.246094 422.5625 L 198.261719 423.722656 L 198.070313 423.238281 L 197.8125 423.082031 L 196.09375 424.355469 L 192.90625 427.300781 L 190.570313 429.988281 L 189.394531 431.261719 L 190.027344 430.375 L 190.9375 428.398438 L 193.542969 426.238281 L 197.445313 421.132813 L 198.605469 417.527344 L 198.851563 415.019531 Z M 197.464844 424.65625 L 196.597656 425.675781 L 195.238281 429.257813 L 195.132813 433.21875 L 196.363281 436.984375 L 198.691406 440.03125 L 196.339844 442.015625 L 194.589844 444.546875 L 193.566406 447.453125 L 193.332031 450.394531 L 193.773438 453.050781 L 194.816406 455.539063 L 194.949219 458.105469 L 195.597656 460.457031 L 197.09375 463.152344 L 199.242188 465.359375 L 202.136719 467.019531 L 205.378906 467.792969 L 207.820313 467.757813 L 214.128906 466.753906 L 216.722656 465.671875 L 218.984375 463.996094 L 220.707031 461.9375 L 221.953125 459.414063 L 224.207031 459.574219 L 228.761719 459.210938 L 231.203125 458.4375 L 233.414063 457.148438 L 235.695313 454.914063 L 237.460938 451.660156 L 239.722656 448.9375 L 240.820313 446.515625 L 241.339844 443.90625 L 244.398438 443.675781 L 247.171875 442.710938 L 249.714844 440.996094 L 251.722656 438.675781 L 254.035156 433.6875 L 254.464844 431.554688 L 254.488281 429.378906 L 253.996094 426.867188 L 252.96875 424.523438 L 253.273438 421.351563 L 252.707031 418.214844 L 251.3125 415.351563 L 249.09375 412.890625 L 249.757813 409.015625 L 249.09375 405.136719 L 251.261719 403.433594 L 252.96875 401.261719 L 255.523438 401.125 L 257.867188 400.480469 L 260.027344 399.363281 L 261.90625 397.820313 L 263.625 395.59375 L 265.273438 392.144531 L 265.933594 389.960938 L 266.160156 387.691406 L 267.5 389.558594 L 269.28125 391.203125 L 271.367188 392.441406 L 273.542969 393.191406 L 270.640625 393.558594 L 267.921875 394.640625 L 266.132813 395.855469 L 262.082031 399.453125 L 258.875 403.199219 L 257.519531 405.511719 L 256.644531 408.574219 L 256.636719 411.761719 L 257.21875 415.015625 L 258.152344 417.371094 L 259.488281 419.371094 L 261.96875 421.929688 L 263.945313 423.335938 L 266.289063 424.339844 L 268.800781 424.804688 L 271.222656 424.734375 L 274.839844 424.042969 L 277.707031 422.707031 L 280.925781 419.847656 L 282.679688 417.371094 L 283.539063 415.257813 L 283.984375 412.890625 L 285.28125 411.148438 L 286.234375 409.195313 L 286.953125 405.828125 L 286.867188 403.527344 L 286.289063 401.167969 L 285.234375 398.980469 L 283.835938 397.15625 L 287.894531 396.746094 L 291.5625 394.960938 L 293.941406 392.644531 L 295.617188 389.628906 L 297.371094 387.417969 L 298.652344 384.480469 L 299.078125 381.300781 L 298.625 378.128906 L 297.253906 375.089844 L 298.96875 374.347656 L 304.070313 378.085938 L 305.367188 380.105469 L 306.730469 384.164063 L 306.949219 387.582031 L 306.585938 390.011719 L 306.992188 392.15625 L 306.777344 393.191406 L 306.824219 393.539063 L 304.3125 393.714844 L 301.527344 394.648438 L 299.0625 396.253906 L 297.078125 398.421875 L 295.617188 401.261719 L 293.121094 404.152344 L 291.886719 406.953125 L 291.425781 409.976563 L 291.738281 416.769531 L 288.648438 419.511719 L 288.480469 419.746094 L 288.214844 419.332031 L 284.976563 421.730469 L 280.71875 424.230469 L 282.339844 425.378906 L 285.105469 424.398438 L 286.09375 423.378906 L 285.523438 424.585938 L 284.902344 427.585938 L 285.105469 430.769531 L 285.257813 431.199219 L 283.441406 432.558594 L 282.84375 432.699219 L 279.644531 432.160156 L 274.75 433.78125 L 272.609375 436.117188 L 274.253906 436.015625 L 275.152344 434.667969 L 276.683594 434.363281 L 278.285156 434.328125 L 281.054688 434.949219 L 281.828125 435.589844 L 281.691406 436.328125 L 279.554688 436.347656 L 277.390625 437.65625 L 277.96875 438.546875 L 280.207031 438.820313 L 278.222656 440.492188 L 276.230469 443.90625 L 274.109375 444.28125 L 271.980469 445.097656 L 270.050781 446.3125 L 268.476563 447.785156 L 266.9375 446.253906 L 265.03125 444.972656 L 262.910156 444.09375 L 260.65625 443.644531 L 258.359375 443.652344 L 254.949219 444.210938 L 252.890625 444.929688 L 250.902344 446.089844 L 249.089844 447.71875 L 247.660156 449.6875 L 246.671875 451.910156 L 246.164063 454.289063 L 246.164063 456.722656 L 246.671875 459.101563 L 247.660156 461.324219 L 249.09375 463.292969 L 246.921875 465 L 246.679688 465.308594 L 244.628906 465.699219 L 242.703125 466.390625 L 242.113281 466.964844 L 242.113281 466.972656 L 241.277344 466.921875 L 239.980469 467.296875 L 238.210938 466.1875 L 238.632813 465.4375 L 239.46875 464.933594 L 237.714844 463.296875 L 231.496094 463.171875 L 231.378906 463.496094 L 232.574219 464.835938 L 232.214844 465.75 L 231.738281 466.042969 L 226.691406 465.496094 L 219.566406 468.449219 L 217.054688 467.824219 L 210.222656 468.96875 L 208.164063 468.875 L 207.273438 468.058594 L 206.289063 469.691406 L 206.074219 469.644531 L 203.890625 469.574219 L 201.734375 469.914063 L 199.679688 470.652344 L 197.800781 471.761719 L 197.40625 472.105469 L 196.175781 472.65625 L 195.71875 473.761719 L 195.136719 474.511719 L 194.851563 473.972656 L 193.785156 473.183594 L 192.734375 471.40625 L 189.5625 468.824219 L 185.824219 467.519531 L 181.734375 467.570313 L 177.808594 469.101563 L 177.125 469.660156 L 176.207031 469.78125 L 174.339844 470.335938 L 168.992188 473.234375 L 168.214844 474.070313 L 167.203125 476.179688 L 162.746094 489.226563 L 160.929688 490.242188 L 158.269531 489.722656 L 157.554688 489.058594 L 156.527344 486.851563 L 154.683594 485.4375 L 153.613281 485.542969 L 152.417969 486.300781 L 151.738281 486.164063 L 148.46875 482.535156 L 142.796875 482.960938 L 142.34375 483.109375 L 139.542969 482.550781 L 135.378906 482.675781 L 133.105469 483.023438 L 131.058594 483.761719 L 129.078125 484.941406 L 127.460938 486.394531 L 126.007813 488.34375 L 125.113281 490.253906 L 124.039063 490.597656 L 123.65625 492.164063 L 122.519531 493.59375 L 121.597656 495.820313 L 121.292969 497.433594 L 120.660156 497.648438 L 120.394531 498.183594 L 118.253906 498.183594 L 117.96875 497.691406 L 118.09375 496.4375 L 117.15625 494.691406 L 115.984375 493.691406 L 112.253906 492.070313 L 111.410156 491.984375 L 110.375 492.488281 L 110.242188 494.183594 L 110.03125 494.425781 L 108.148438 494.160156 L 105.644531 494.308594 L 105.441406 494.242188 L 105.628906 491.574219 L 106.074219 490.5625 L 106.886719 490.203125 L 107.890625 490.023438 L 110.125 489.125 L 111.105469 488.355469 L 111.738281 488.078125 L 112.199219 488.253906 L 112.445313 488.9375 L 113.574219 489.15625 L 118.144531 485.910156 L 121.425781 483.085938 L 124.375 479.769531 L 125.210938 477.886719 L 124.875 476.421875 L 125.640625 474.519531 L 128.386719 473.238281 L 129.269531 473.097656 L 129.308594 473.316406 L 130.152344 475.460938 L 131.402344 477.402344 L 132.910156 478.96875 L 134.796875 480.296875 L 136.785156 481.183594 L 139.035156 481.699219 L 141.210938 481.769531 L 145.296875 480.757813 L 149.019531 478.277344 L 151.390625 475.777344 L 152.964844 472.574219 L 154.882813 473.601563 L 157.085938 474.28125 L 159.378906 474.511719 L 161.546875 474.308594 L 164.917969 473.117188 L 167.675781 471.046875 L 169.859375 470.96875 L 172.113281 470.441406 L 174.105469 469.542969 L 175.894531 468.285156 L 178.234375 465.5625 L 179.601563 462.382813 L 179.96875 458.9375 L 179.265625 455.417969 L 177.621094 452.390625 L 175.058594 449.90625 L 172.132813 448.449219 L 173.15625 448.464844 L 180.570313 447.503906 L 181.109375 445.632813 L 181.210938 443.15625 L 182.519531 440.25 L 190.867188 432.195313 L 195.792969 425.3125 Z M 284.933594 436.625 L 284.445313 436.660156 L 282.171875 437.574219 L 282.484375 436.070313 Z M 233.082031 471.28125 L 231.871094 472.320313 L 230.464844 474.011719 L 229.960938 474.269531 L 229.160156 474.433594 L 227.726563 473.148438 L 225.398438 471.867188 L 222.890625 471.269531 L 222.296875 470.886719 L 221.753906 470.964844 L 220.738281 470.554688 L 221.476563 469.683594 L 227.316406 466.367188 L 232.550781 467.761719 L 234.171875 469.894531 Z M 169.980469 448.019531 L 168.335938 447.765625 L 169.671875 447.5625 Z M 221.953125 312.09375 L 222.167969 312.015625 L 222.1875 312.304688 Z M 214.199219 343.109375 L 214.863281 339.230469 L 214.199219 335.355469 L 216.609375 335.242188 L 218.945313 334.636719 L 220.175781 337.113281 L 221.953125 339.230469 L 219.878906 342.527344 L 219.011719 346.324219 L 216.808594 344.414063 Z M 195.808594 251.386719 L 196.238281 249.308594 L 196.273438 247.0625 L 198.691406 250.0625 Z M 186.875 340.328125 L 184.929688 341.503906 L 183.25 343.035156 L 185.042969 340.332031 Z M 179.308594 352.679688 L 179.308594 354.738281 L 178.390625 354.742188 L 177.679688 353.460938 L 178.242188 352.835938 Z M 145.183594 362.78125 L 145.070313 360.964844 L 144.414063 358.617188 L 145.886719 357.042969 L 147.101563 355.113281 L 147.917969 352.984375 L 148.164063 351.59375 L 149.566406 352.007813 L 151.039063 355.578125 L 155.546875 356.503906 L 154.066406 358.859375 L 150.984375 360.816406 L 147.425781 363.976563 L 146.109375 363.875 Z M 170.558594 356.160156 L 170.71875 356.167969 L 167.675781 358.617188 L 161.671875 358.453125 L 157.417969 358.757813 L 160.492188 357.457031 L 163.644531 357.28125 L 167.339844 357.714844 Z M 154.257813 359.734375 L 154.179688 359.761719 L 151.511719 361.542969 L 149.648438 363.667969 L 148.304688 366.296875 L 147.621094 370.210938 L 148.199219 373.589844 L 145.449219 374.257813 L 143.757813 375.484375 L 142.089844 378.023438 L 136.660156 378 L 136.660156 377.304688 L 137.339844 376.066406 L 140.148438 373.019531 L 141.023438 372.414063 L 142.589844 371.953125 L 147.132813 367.984375 L 147.953125 364.523438 L 151.550781 360.582031 L 153.09375 359.609375 Z M 121.683594 416.351563 L 123.324219 415.0625 L 123.925781 414.300781 L 125.933594 413.378906 L 126.074219 413.039063 L 127.179688 413.195313 L 129.347656 413.09375 L 131.460938 412.589844 L 133.441406 411.703125 L 138.46875 407.65625 L 139.335938 406.601563 L 141.359375 406.660156 L 142.21875 406.390625 L 146.363281 403.742188 L 145.933594 404.363281 L 144.9375 407.011719 L 144.609375 409.820313 L 144.972656 412.621094 L 145.996094 415.257813 L 147.628906 417.566406 L 149.769531 419.414063 L 152.167969 420.644531 L 151 423.480469 L 150.609375 426.527344 L 150.613281 426.539063 L 147.785156 426.460938 L 143.210938 423.710938 L 139.503906 423.714844 L 136.765625 424.277344 L 136.292969 426.515625 L 135.777344 427.203125 L 135.25 427.386719 L 135.023438 427.433594 L 134.601563 427.617188 L 133.742188 427.917969 L 132.394531 427.265625 L 131.648438 427.453125 L 130.5625 428.398438 L 128.90625 428.398438 L 127.304688 426.363281 L 127.425781 426.082031 L 128.796875 425.832031 L 131.792969 424.328125 L 131.226563 422.867188 L 130.640625 424.257813 L 127.769531 424.613281 L 125 424.347656 L 124.621094 422.277344 L 124.425781 421.773438 L 125.167969 421.753906 L 125.464844 421.238281 L 124.929688 417.953125 L 123.328125 417.210938 L 121.46875 417.105469 L 121.453125 417.085938 Z M 150.90625 428.640625 L 151.03125 429.566406 L 151.742188 431.253906 L 149.269531 432.308594 L 149.113281 432.746094 L 148.320313 432.285156 L 147.292969 430.9375 L 147.097656 430.746094 L 146.917969 429.308594 L 148.539063 428.378906 L 150.066406 428.890625 Z M 157.425781 446.265625 L 159.230469 447.132813 L 155.378906 448.03125 L 152.140625 450.082031 L 149.75 453.070313 L 148.433594 456.804688 L 148.367188 452.558594 L 148.429688 452.488281 L 148.347656 451.21875 L 148.292969 447.785156 L 148.539063 447.386719 L 151.105469 446.613281 L 157.421875 446.269531 Z M 236.835938 466.113281 L 235.136719 465.644531 L 236.523438 463.683594 L 237.195313 464.164063 L 237.5 465.839844 Z M 88.429688 500.046875 L 88.566406 499.308594 L 88.941406 499.117188 L 89.34375 499.789063 Z M 88.429688 500.046875 "/>
<path style=" stroke:none;fill-rule:nonzero;fill:rgb(80.392157%,58.431373%,4.705882%);fill-opacity:1;" d="M 192.875 381.875 L 192.59375 383.675781 L 191.765625 385.296875 L 190.480469 386.582031 L 188.859375 387.40625 L 187.0625 387.691406 L 185.265625 387.40625 L 183.644531 386.582031 L 182.355469 385.296875 L 181.53125 383.675781 L 181.246094 381.875 L 181.53125 380.078125 L 182.355469 378.457031 L 183.644531 377.171875 L 185.265625 376.347656 L 187.0625 376.0625 L 188.859375 376.347656 L 190.480469 377.171875 L 191.765625 378.457031 L 192.59375 380.078125 Z M 192.875 381.875 "/>
<path style=" stroke:none;fill-rule:nonzero;fill:rgb(80.392157%,58.431373%,4.705882%);fill-opacity:1;" d="M 181.246094 385.753906 L 180.960938 387.550781 L 180.136719 389.171875 L 178.847656 390.457031 L 177.226563 391.285156 L 175.429688 391.570313 L 173.632813 391.285156 L 172.011719 390.457031 L 170.726563 389.171875 L 169.898438 387.550781 L 169.617188 385.753906 L 169.898438 383.957031 L 170.726563 382.335938 L 172.011719 381.050781 L 173.632813 380.222656 L 175.429688 379.9375 L 177.226563 380.222656 L 178.847656 381.050781 L 180.136719 382.335938 L 180.960938 383.957031 Z M 181.246094 385.753906 "/>
<path style=" stroke:none;fill-rule:nonzero;fill:rgb(80.392157%,58.431373%,4.705882%);fill-opacity:1;" d="M 243.277344 381.875 L 242.992188 383.675781 L 242.167969 385.296875 L 240.878906 386.582031 L 239.257813 387.40625 L 237.460938 387.691406 L 235.664063 387.40625 L 234.042969 386.582031 L 232.757813 385.296875 L 231.929688 383.675781 L 231.644531 381.875 L 231.929688 380.078125 L 232.757813 378.457031 L 234.042969 377.171875 L 235.664063 376.347656 L 237.460938 376.0625 L 239.257813 376.347656 L 240.878906 377.171875 L 242.167969 378.457031 L 242.992188 380.078125 Z M 243.277344 381.875 "/>
<path style=" stroke:none;fill-rule:nonzero;fill:rgb(80.392157%,58.431373%,4.705882%);fill-opacity:1;" d="M 231.644531 319.847656 L 231.363281 321.644531 L 230.535156 323.265625 L 229.25 324.550781 L 227.628906 325.375 L 225.832031 325.660156 L 224.035156 325.375 L 222.414063 324.550781 L 221.125 323.265625 L 220.300781 321.644531 L 220.015625 319.847656 L 220.300781 318.050781 L 221.125 316.429688 L 222.414063 315.140625 L 224.035156 314.316406 L 225.832031 314.03125 L 227.628906 314.316406 L 229.25 315.140625 L 230.535156 316.429688 L 231.363281 318.050781 Z M 231.644531 319.847656 "/>
<path style=" stroke:none;fill-rule:nonzero;fill:rgb(80.392157%,58.431373%,4.705882%);fill-opacity:1;" d="M 247.152344 354.738281 L 246.871094 356.535156 L 246.042969 358.15625 L 244.757813 359.441406 L 243.136719 360.269531 L 241.339844 360.554688 L 239.542969 360.269531 L 237.921875 359.441406 L 236.632813 358.15625 L 235.808594 356.535156 L 235.523438 354.738281 L 235.808594 352.941406 L 236.632813 351.320313 L 237.921875 350.035156 L 239.542969 349.207031 L 241.339844 348.921875 L 243.136719 349.207031 L 244.757813 350.035156 L 246.042969 351.320313 L 246.871094 352.941406 Z M 247.152344 354.738281 "/>
<path style=" stroke:none;fill-rule:nonzero;fill:rgb(80.392157%,58.431373%,4.705882%);fill-opacity:1;" d="M 227.769531 354.738281 L 227.484375 356.535156 L 226.660156 358.15625 L 225.371094 359.441406 L 223.75 360.269531 L 221.953125 360.554688 L 220.15625 360.269531 L 218.535156 359.441406 L 217.25 358.15625 L 216.421875 356.535156 L 216.136719 354.738281 L 216.421875 352.941406 L 217.25 351.320313 L 218.535156 350.035156 L 220.15625 349.207031 L 221.953125 348.921875 L 223.75 349.207031 L 225.371094 350.035156 L 226.660156 351.320313 L 227.484375 352.941406 Z M 227.769531 354.738281 "/>
<path style=" stroke:none;fill-rule:nonzero;fill:rgb(80.392157%,58.431373%,4.705882%);fill-opacity:1;" d="M 235.523438 428.398438 L 235.238281 430.195313 L 234.414063 431.816406 L 233.125 433.105469 L 231.503906 433.929688 L 229.707031 434.214844 L 227.910156 433.929688 L 226.289063 433.105469 L 225.003906 431.816406 L 224.175781 430.195313 L 223.890625 428.398438 L 224.175781 426.601563 L 225.003906 424.980469 L 226.289063 423.695313 L 227.910156 422.871094 L 229.707031 422.585938 L 231.503906 422.871094 L 233.125 423.695313 L 234.414063 424.980469 L 235.238281 426.601563 Z M 235.523438 428.398438 "/>
<path style=" stroke:none;fill-rule:nonzero;fill:rgb(80.392157%,58.431373%,4.705882%);fill-opacity:1;" d="M 196.753906 257.816406 L 196.46875 259.613281 L 195.644531 261.234375 L 194.355469 262.519531 L 192.734375 263.347656 L 190.9375 263.628906 L 189.140625 263.347656 L 187.519531 262.519531 L 186.234375 261.234375 L 185.40625 259.613281 L 185.125 257.816406 L 185.40625 256.019531 L 186.234375 254.398438 L 187.519531 253.109375 L 189.140625 252.285156 L 190.9375 252 L 192.734375 252.285156 L 194.355469 253.109375 L 195.644531 254.398438 L 196.46875 256.019531 Z M 196.753906 257.816406 "/>
<path style=" stroke:none;fill-rule:nonzero;fill:rgb(80.392157%,58.431373%,4.705882%);fill-opacity:1;" d="M 157.984375 246.183594 L 157.699219 247.980469 L 156.875 249.601563 L 155.585938 250.890625 L 153.964844 251.714844 L 152.167969 252 L 150.371094 251.714844 L 148.75 250.890625 L 147.464844 249.601563 L 146.636719 247.980469 L 146.355469 246.183594 L 146.636719 244.386719 L 147.234375 243.214844 L 148.300781 243.253906 L 147.464844 242.765625 L 148.75 241.480469 L 150.371094 240.652344 L 152.167969 240.371094 L 153.964844 240.652344 L 155.585938 241.480469 L 156.875 242.765625 L 157.699219 244.386719 Z M 157.984375 246.183594 "/>
<path style=" stroke:none;fill-rule:nonzero;fill:rgb(80.392157%,58.431373%,4.705882%);fill-opacity:1;" d="M 270.414063 381.875 L 270.128906 383.675781 L 269.304688 385.296875 L 268.019531 386.582031 L 266.398438 387.40625 L 264.601563 387.691406 L 262.804688 387.40625 L 261.183594 386.582031 L 259.894531 385.296875 L 259.070313 383.675781 L 258.785156 381.875 L 259.070313 380.078125 L 259.894531 378.457031 L 261.183594 377.171875 L 262.804688 376.347656 L 264.601563 376.0625 L 265.433594 376.195313 L 266.9375 378.226563 L 269.410156 378.664063 L 270.128906 380.078125 Z M 270.414063 381.875 "/>
<path style=" stroke:none;fill-rule:nonzero;fill:rgb(80.392157%,58.431373%,4.705882%);fill-opacity:1;" d="M 235.300781 301.859375 L 234.414063 303.878906 L 233.125 305.167969 L 231.503906 305.992188 L 229.707031 306.277344 L 227.910156 305.992188 L 226.289063 305.167969 L 225.003906 303.878906 L 224.175781 302.257813 L 223.890625 300.460938 L 224.175781 298.664063 L 225.003906 297.042969 L 226.835938 295.476563 L 229.304688 299.0625 Z M 235.300781 301.859375 "/>
<path style=" stroke:none;fill-rule:nonzero;fill:rgb(80.392157%,58.431373%,4.705882%);fill-opacity:1;" d="M 300.914063 442.285156 L 300.320313 443.449219 L 299.035156 444.734375 L 297.414063 445.5625 L 295.617188 445.847656 L 293.816406 445.5625 L 292.195313 444.734375 L 290.910156 443.449219 L 290.085938 441.828125 L 289.859375 439.664063 L 291.074219 438.957031 L 299.742188 437.757813 L 300.988281 440.148438 Z M 300.914063 442.285156 "/>
<path style=" stroke:none;fill-rule:nonzero;fill:rgb(80.392157%,58.431373%,4.705882%);fill-opacity:1;" d="M 139.410156 322.675781 L 138.882813 321.644531 L 138.640625 320.097656 L 139.816406 316.644531 L 142.300781 315.023438 L 142.671875 314.308594 L 144.414063 314.03125 L 146.210938 314.316406 L 147.832031 315.140625 L 148.847656 316.15625 L 147.847656 318.148438 L 145.3125 320.636719 L 141.859375 323.019531 L 139.824219 322.464844 Z M 139.410156 322.675781 "/>
<path style=" stroke:none;fill-rule:nonzero;fill:rgb(80.392157%,58.431373%,4.705882%);fill-opacity:1;" d="M 289.671875 371.058594 L 289.515625 372.042969 L 288.6875 373.664063 L 287.402344 374.949219 L 285.78125 375.777344 L 283.984375 376.0625 L 282.1875 375.777344 L 280.566406 374.949219 L 279.28125 373.664063 L 278.453125 372.042969 L 278.167969 370.246094 L 283.34375 370.234375 L 284.253906 370.867188 L 286.703125 370.742188 Z M 289.671875 371.058594 "/>
<path style=" stroke:none;fill-rule:nonzero;fill:rgb(80.392157%,58.431373%,4.705882%);fill-opacity:1;" d="M 300.796875 445.640625 L 299.492188 445.847656 L 297.695313 445.5625 L 296.074219 444.734375 L 294.789063 443.449219 L 293.960938 441.828125 L 293.675781 440.03125 L 293.910156 438.5625 L 299.742188 437.757813 L 300.988281 440.148438 Z M 300.796875 445.640625 "/>
<path style=" stroke:none;fill-rule:nonzero;fill:rgb(80.392157%,58.431373%,4.705882%);fill-opacity:1;" d="M 142.597656 314.449219 L 143.957031 315.140625 L 145.242188 316.429688 L 146.070313 318.050781 L 146.324219 319.648438 L 141.859375 323.019531 L 139.824219 322.464844 L 137.933594 323.433594 L 137.675781 322.921875 L 139.816406 316.644531 L 142.300781 315.023438 Z M 142.597656 314.449219 "/>
<path style=" stroke:none;fill-rule:nonzero;fill:rgb(80.392157%,58.431373%,4.705882%);fill-opacity:1;" d="M 157.984375 393.507813 L 157.699219 395.304688 L 156.875 396.925781 L 155.585938 398.210938 L 153.964844 399.039063 L 151.375 399.199219 L 153.054688 396.195313 L 154.199219 391.746094 L 153.734375 388.820313 L 153.246094 387.863281 L 155.585938 388.804688 L 156.875 390.089844 L 157.699219 391.710938 Z M 157.984375 393.507813 "/>
<path style=" stroke:none;fill-rule:nonzero;fill:rgb(80.392157%,58.431373%,4.705882%);fill-opacity:1;" d="M 174.644531 318.03125 L 177.226563 318.191406 L 178.847656 319.019531 L 180.136719 320.304688 L 181.046875 322.46875 L 179.199219 323.441406 L 177.335938 322.691406 Z M 174.644531 318.03125 "/>
<path style=" stroke:none;fill-rule:nonzero;fill:rgb(80.392157%,58.431373%,4.705882%);fill-opacity:1;" d="M 258.863281 342.605469 L 259.070313 341.3125 L 259.894531 339.691406 L 260.734375 338.851563 L 263.316406 342.46875 L 263.640625 343.980469 L 262.804688 345.191406 L 263.28125 343.65625 L 262.507813 342.839844 L 260.445313 342 Z M 258.863281 342.605469 "/>
</g>
</svg>
