<?xml version="1.0" encoding="UTF-8"?>
<svg xmlns="http://www.w3.org/2000/svg" xmlns:xlink="http://www.w3.org/1999/xlink" width="378pt" height="504pt" viewBox="0 0 378 504" version="1.1">
<g id="data">
<rect x="0" y="0" width="378" height="504" style="fill:rgb(100%,100%,100%);fill-opacity:1;stroke:none;"/>
<path style=" stroke:none;fill-rule:nonzero;fill:rgb(100%,100%,100%);fill-opacity:1;" d="M 53.308594 504 L 324.691406 504 L 324.691406 0 L 53.308594 0 Z M 53.308594 504 "/>
<path style=" stroke:none;fill-rule:nonzero;fill:rgb(22.745098%,53.333333%,16.078431%);fill-opacity:1;" d="M 152.003906 398.382813 L 152.265625 398.648438 L 153.066406 400.234375 L 153.351563 401.984375 L 153.097656 403.738281 L 152.328125 405.335938 L 151.125 407.078125 L 150.632813 408.390625 L 150.46875 409.785156 L 150.648438 411.175781 L 151.15625 412.484375 L 151.96875 413.628906 L 153.042969 414.558594 L 154.824219 415.472656 L 156.222656 416.476563 L 157.269531 417.851563 L 157.863281 419.46875 L 157.960938 421.191406 L 157.546875 422.863281 L 156.671875 424.984375 L 156.476563 426.507813 L 156.664063 427.921875 L 157.273438 429.402344 L 155.65625 429.589844 L 149.269531 432.308594 L 149.113281 432.746094 L 147.203125 431.632813 L 146.917969 429.308594 L 148.539063 428.378906 L 150.066406 428.890625 L 151.640625 428.421875 L 152.765625 427.832031 L 153.085938 427.097656 L 152.808594 426.597656 L 147.785156 426.460938 L 143.210938 423.710938 L 139.503906 423.714844 L 136.765625 424.277344 L 136.292969 426.515625 L 135.777344 427.203125 L 133.742188 427.917969 L 132.394531 427.265625 L 131.648438 427.453125 L 129.4375 429.378906 L 126.53125 428.132813 L 127.425781 426.082031 L 128.796875 425.832031 L 131.792969 424.328125 L 131.226563 422.867188 L 130.640625 424.257813 L 127.769531 424.613281 L 122.949219 424.152344 L 121.496094 423.164063 L 124.125 421.78125 L 125.167969 421.753906 L 125.464844 421.238281 L 124.929688 417.953125 L 123.328125 417.210938 L 121.445313 417.105469 L 122.0625 415.152344 L 125.933594 413.378906 L 126.539063 411.90625 L 133.074219 411.34375 L 134.871094 409.289063 L 135.753906 407.632813 L 137.585938 406.550781 L 141.359375 406.660156 L 142.21875 406.390625 L 149.359375 401.828125 Z M 172.070313 439.878906 L 172.578125 439.234375 L 173.0625 438.277344 L 173.363281 437.234375 L 173.519531 435.609375 L 173.902344 434.011719 L 174.71875 432.582031 L 175.898438 431.441406 L 177.355469 430.675781 L 178.964844 430.347656 L 180.96875 430.230469 L 182.25 429.847656 L 183.417969 429.175781 L 184.375 428.289063 L 184.976563 427.445313 L 185.65625 425.964844 L 187.222656 423.929688 L 189.320313 422.183594 L 192.214844 418.398438 L 192.878906 416.335938 L 193.015625 414.953125 L 192.894531 413.332031 L 193.011719 411.652344 L 193.601563 410.078125 L 194.621094 408.738281 L 195.984375 407.746094 L 197.933594 406.71875 L 199.011719 405.738281 L 199.808594 404.511719 L 200.277344 403.128906 L 200.378906 401.671875 L 200.113281 400.234375 L 199.492188 398.914063 L 198.089844 397.214844 L 197.199219 395.734375 L 196.78125 394.058594 L 196.875 392.332031 L 197.46875 390.710938 L 198.515625 389.335938 L 199.921875 388.328125 L 201.558594 387.78125 L 203.132813 387.503906 L 204.222656 387.085938 L 205.105469 386.535156 L 206.371094 385.367188 L 207.902344 384.34375 L 209.671875 383.851563 L 211.511719 383.9375 L 213.230469 384.59375 L 214.660156 385.753906 L 215.652344 387.304688 L 216.113281 389.085938 L 216.265625 390.695313 L 216.597656 391.816406 L 217.132813 392.832031 L 217.863281 393.722656 L 218.753906 394.449219 L 219.785156 394.996094 L 220.792969 395.300781 L 222.53125 395.476563 L 224.199219 395.898438 L 225.667969 396.789063 L 226.816406 398.070313 L 227.535156 399.632813 L 227.769531 401.335938 L 227.492188 403.03125 L 226.734375 404.574219 L 225.554688 405.828125 L 224.0625 406.679688 L 222.359375 407.34375 L 221.347656 408.011719 L 220.492188 408.875 L 219.839844 409.898438 L 219.414063 411.035156 L 219.234375 412.234375 L 219.308594 413.445313 L 219.800781 415.207031 L 220.007813 417.027344 L 219.640625 418.824219 L 218.730469 420.417969 L 217.367188 421.644531 L 215.691406 422.390625 L 213.867188 422.574219 L 210.835938 422.402344 L 208.714844 423.042969 L 207.863281 423.59375 L 206.652344 424.789063 L 205.476563 425.683594 L 203.023438 427.097656 L 201.6875 428.667969 L 201.007813 430.496094 L 200.96875 432.367188 L 201.539063 434.152344 L 203.332031 436.523438 L 204.167969 438.070313 L 204.503906 439.796875 L 204.308594 441.542969 L 203.597656 443.152344 L 202.441406 444.476563 L 200.683594 445.960938 L 199.816406 447.214844 L 199.304688 448.667969 L 199.1875 450.144531 L 199.402344 451.433594 L 200.179688 453.292969 L 200.625 455.261719 L 200.710938 457.074219 L 201.03125 458.257813 L 201.800781 459.648438 L 202.84375 460.71875 L 204.304688 461.558594 L 206.019531 461.96875 L 207.320313 461.949219 L 212.53125 461.121094 L 213.832031 460.578125 L 214.964844 459.734375 L 215.800781 458.738281 L 216.742188 456.835938 L 217.71875 455.429688 L 219.0625 454.371094 L 220.65625 453.746094 L 222.363281 453.613281 L 224.179688 453.742188 L 227.640625 453.464844 L 228.832031 453.085938 L 229.859375 452.488281 L 231 451.371094 L 232.351563 448.882813 L 232.988281 447.949219 L 234.746094 445.824219 L 235.246094 444.726563 L 235.636719 442.773438 L 236.296875 441.007813 L 237.492188 439.542969 L 239.09375 438.542969 L 240.929688 438.105469 L 243.109375 437.953125 L 244.5625 437.457031 L 245.824219 436.605469 L 246.789063 435.488281 L 248.46875 431.867188 L 248.65625 430.945313 L 248.667969 429.910156 L 248.414063 428.613281 L 247.644531 426.859375 L 247.226563 425.441406 L 247.179688 423.964844 L 247.410156 421.59375 L 247.132813 420.058594 L 246.390625 418.558594 L 244.796875 416.8125 L 243.820313 415.351563 L 243.328125 413.664063 L 243.359375 411.910156 L 243.855469 409.015625 L 243.359375 406.121094 L 243.378906 404.050781 L 244.125 402.117188 L 245.496094 400.566406 L 247.121094 399.289063 L 248.398438 397.667969 L 249.59375 396.523438 L 251.066406 395.765625 L 252.691406 395.453125 L 254.492188 395.367188 L 255.75 395.027344 L 256.808594 394.480469 L 257.707031 393.742188 L 258.644531 392.527344 L 259.835938 390.035156 L 260.203125 388.820313 L 260.371094 387.121094 L 260.804688 385.421875 L 261.722656 383.929688 L 263.046875 382.78125 L 264.652344 382.074219 L 266.394531 381.882813 L 268.113281 382.214844 L 269.65625 383.046875 L 270.882813 384.300781 L 271.875 385.6875 L 272.789063 386.527344 L 273.738281 387.097656 L 275.46875 387.707031 L 276.992188 388.511719 L 278.210938 389.730469 L 279.023438 391.25 L 279.351563 392.941406 L 279.277344 393.636719 L 280.066406 392.726563 L 281.554688 391.804688 L 283.253906 391.367188 L 286.28125 391.066406 L 288.175781 390.144531 L 289.273438 389.078125 L 290.53125 386.808594 L 291.058594 386.015625 L 292.34375 384.398438 L 292.988281 382.914063 L 293.207031 381.246094 L 292.964844 379.691406 L 291.964844 377.515625 L 291.472656 375.734375 L 291.5625 373.894531 L 292.222656 372.171875 L 292.851563 371.398438 L 293.949219 371.515625 L 296.914063 372.84375 L 304.070313 378.085938 L 305.367188 380.105469 L 306.730469 384.164063 L 307.179688 391.25 L 306.777344 393.191406 L 306.890625 393.976563 L 305.789063 396.917969 L 305.246094 399.535156 L 304.078125 399.925781 L 302.855469 400.722656 L 301.894531 401.773438 L 300.785156 403.925781 L 300.019531 405.0625 L 298.089844 407.292969 L 297.519531 408.589844 L 297.261719 410.285156 L 297.441406 414.21875 L 297.144531 414.53125 L 295.578125 412.011719 L 292.742188 410.515625 L 292.480469 410.636719 L 293.898438 413.703125 L 295.890625 416.628906 L 296.3125 416.765625 L 296.164063 417.742188 L 294.574219 419.804688 L 292.191406 421.289063 L 290.003906 421.65625 L 289.660156 421.574219 L 288.214844 419.332031 L 284.976563 421.730469 L 280.71875 424.230469 L 282.339844 425.378906 L 285.105469 424.398438 L 286.097656 423.375 L 286.894531 423.164063 L 287.328125 423.710938 L 287.632813 428.84375 L 285.6875 430.875 L 283.441406 432.558594 L 282.84375 432.699219 L 279.644531 432.160156 L 274.75 433.78125 L 272.609375 436.117188 L 274.253906 436.015625 L 275.152344 434.667969 L 276.683594 434.363281 L 278.285156 434.328125 L 281.054688 434.949219 L 281.828125 435.589844 L 281.691406 436.328125 L 279.554688 436.347656 L 277.390625 437.65625 L 277.96875 438.546875 L 281.382813 438.964844 L 286.863281 440.339844 L 289.394531 439.9375 L 291.074219 438.957031 L 293.296875 438.648438 L 292.835938 439.632813 L 291.648438 440.917969 L 290.136719 441.796875 L 288.433594 442.183594 L 285.878906 442.367188 L 284.265625 443.003906 L 282.742188 444.292969 L 281.253906 446.839844 L 280.207031 448.152344 L 278.832031 449.109375 L 277.242188 449.636719 L 275.667969 449.910156 L 274.59375 450.324219 L 273.617188 450.9375 L 272.453125 452.027344 L 270.988281 453.03125 L 269.292969 453.542969 L 267.519531 453.519531 L 265.832031 452.964844 L 264.394531 451.925781 L 263.171875 450.71875 L 262.199219 450.085938 L 261.230469 449.6875 L 260.09375 449.464844 L 258.839844 449.464844 L 256.386719 449.867188 L 255.335938 450.234375 L 254.347656 450.8125 L 253.433594 451.632813 L 252.722656 452.613281 L 252.230469 453.714844 L 251.980469 454.898438 L 251.980469 456.109375 L 252.230469 457.292969 L 252.722656 458.398438 L 253.796875 459.871094 L 254.609375 461.449219 L 254.90625 463.203125 L 254.832031 463.746094 L 244.628906 465.699219 L 242.703125 466.390625 L 242.113281 466.964844 L 241.902344 467.984375 L 241.359375 468.164063 L 238.210938 466.1875 L 238.632813 465.4375 L 239.46875 464.933594 L 237.714844 463.296875 L 231.496094 463.171875 L 231.378906 463.496094 L 232.574219 464.835938 L 232.214844 465.75 L 231.738281 466.042969 L 226.691406 465.496094 L 219.566406 468.449219 L 217.054688 467.824219 L 210.222656 468.96875 L 208.164063 468.875 L 207.273438 468.058594 L 206.238281 469.769531 L 209.429688 471.089844 L 209.714844 470.9375 L 210.1875 472.128906 L 209.566406 473.890625 L 206.84375 474.453125 L 204.453125 473.097656 L 203.015625 472.699219 L 197.625 472.007813 L 196.175781 472.65625 L 195.679688 473.863281 L 195.832031 474.871094 L 196.757813 475.523438 L 196.488281 476.304688 L 195.917969 475.996094 L 194.851563 473.972656 L 190.289063 470.589844 L 185.898438 468.519531 L 183.121094 467.984375 L 181.648438 469.066406 L 176.207031 469.78125 L 174.339844 470.335938 L 168.992188 473.234375 L 168.214844 474.070313 L 167.203125 476.179688 L 162.746094 489.226563 L 160.929688 490.242188 L 158.269531 489.722656 L 157.554688 489.058594 L 156.527344 486.851563 L 154.683594 485.4375 L 153.613281 485.542969 L 152.417969 486.300781 L 151.738281 486.164063 L 148.46875 482.535156 L 142.796875 482.960938 L 141.527344 483.375 L 140.734375 484.175781 L 139.910156 484.507813 L 134.507813 484.320313 L 132.167969 484.859375 L 129.414063 488.195313 L 126.714844 489.746094 L 124.039063 490.597656 L 123.132813 494.289063 L 123.664063 495.292969 L 123.496094 496.125 L 122.722656 496.945313 L 120.660156 497.648438 L 119.628906 499.730469 L 118.675781 498.910156 L 117.96875 497.691406 L 118.09375 496.4375 L 117.15625 494.691406 L 115.984375 493.691406 L 112.253906 492.070313 L 111.410156 491.984375 L 110.375 492.488281 L 110.242188 494.183594 L 109.421875 495.128906 L 106.824219 495.664063 L 105.398438 494.824219 L 105.628906 491.574219 L 106.074219 490.5625 L 111.738281 488.078125 L 112.199219 488.253906 L 112.445313 488.9375 L 113.574219 489.15625 L 118.144531 485.910156 L 121.425781 483.085938 L 124.375 479.769531 L 125.210938 477.886719 L 124.875 476.421875 L 125.640625 474.519531 L 128.386719 473.238281 L 132.105469 472.640625 L 132.679688 471.785156 L 133.257813 469.527344 L 134.203125 468.816406 L 134.632813 470.03125 L 134.9375 471.746094 L 135.324219 472.742188 L 135.886719 473.648438 L 136.679688 474.503906 L 137.621094 475.179688 L 138.578125 475.621094 L 139.710938 475.894531 L 140.613281 475.929688 L 142.914063 475.359375 L 145.238281 473.808594 L 146.617188 472.339844 L 147.730469 470.035156 L 148.804688 468.507813 L 150.304688 467.402344 L 152.082031 466.824219 L 153.949219 466.839844 L 155.714844 467.445313 L 157.136719 468.210938 L 158.246094 468.550781 L 159.402344 468.667969 L 160.289063 468.585938 L 162.136719 467.929688 L 164.1875 466.394531 L 165.738281 465.5625 L 167.464844 465.234375 L 169.085938 465.175781 L 170.238281 464.90625 L 171.214844 464.464844 L 171.972656 463.933594 L 173.191406 462.53125 L 173.914063 460.875 L 174.09375 459.203125 L 173.738281 457.4375 L 172.882813 455.886719 L 171.59375 454.660156 L 170.09375 453.925781 L 167.441406 453.511719 L 165.707031 452.953125 L 164.226563 451.882813 L 163.578125 450.988281 L 163.566406 451.007813 L 162.183594 452.144531 L 160.519531 452.804688 L 157.746094 453.433594 L 156.066406 454.484375 L 154.90625 455.933594 L 153.921875 458.734375 L 153.070313 460.316406 L 151.78125 461.5625 L 150.171875 462.355469 L 148.398438 462.621094 L 146.628906 462.332031 L 145.027344 461.519531 L 143.753906 460.253906 L 142.925781 458.664063 L 142.621094 456.898438 L 142.59375 455.160156 L 144.269531 456.015625 L 145.761719 455.429688 L 148.429688 452.488281 L 148.105469 447.519531 L 151.105469 446.613281 L 157.421875 446.269531 L 159.910156 445.683594 L 164.597656 446.761719 L 166.046875 446.148438 L 167.527344 446.515625 L 169.484375 447.285156 L 170.039063 448.109375 L 170.757813 448.421875 L 173.15625 448.464844 L 180.570313 447.503906 L 181.109375 445.632813 L 181.210938 443.15625 L 182.519531 440.25 L 190.867188 432.195313 L 195.792969 425.3125 L 197.929688 424.472656 L 198.285156 423.78125 L 198.070313 423.238281 L 197.8125 423.082031 L 196.09375 424.355469 L 192.90625 427.300781 L 190.570313 429.988281 L 189.222656 431.449219 L 185.628906 432.957031 L 183.714844 433.246094 L 182.441406 433.0625 L 178.394531 435.230469 L 177.398438 436.808594 L 177.039063 438.671875 L 176.445313 439.273438 L 174.058594 439.917969 Z M 278.101563 396.707031 L 277.378906 397.558594 L 275.929688 398.492188 L 274.273438 398.960938 L 272.101563 399.238281 L 270.664063 399.808594 L 269.714844 400.453125 L 266.242188 403.539063 L 263.628906 406.589844 L 262.910156 407.816406 L 262.457031 409.398438 L 262.453125 411.25 L 262.839844 413.414063 L 263.332031 414.65625 L 264.03125 415.699219 L 265.773438 417.5 L 266.808594 418.234375 L 268.003906 418.746094 L 269.15625 418.96875 L 270.601563 418.929688 L 273.039063 418.464844 L 274.480469 417.792969 L 276.5625 415.941406 L 277.546875 414.554688 L 277.933594 413.605469 L 278.269531 411.820313 L 279.320313 409.417969 L 280.292969 408.113281 L 280.695313 407.285156 L 281.117188 405.316406 L 281.078125 404.335938 L 280.785156 403.132813 L 280.304688 402.128906 L 279.199219 400.664063 L 278.363281 399.125 L 278.027344 397.402344 Z M 218.039063 316.390625 L 216.960938 315.074219 L 216.3125 313.503906 L 216.144531 311.808594 L 216.476563 310.140625 L 217.273438 308.640625 L 218.472656 307.433594 L 219.972656 306.625 L 220.183594 306.546875 L 221.9375 306.203125 L 223.710938 306.40625 L 225.339844 307.140625 L 226.667969 308.332031 L 227.574219 309.871094 L 227.96875 311.613281 L 227.988281 311.902344 L 227.851563 313.621094 L 227.21875 315.222656 L 226.144531 316.570313 L 224.722656 317.539063 L 223.074219 318.054688 L 221.351563 318.0625 L 219.703125 317.5625 L 218.273438 316.605469 Z M 211.597656 348.308594 L 210.097656 347.230469 L 209.011719 345.734375 L 208.449219 343.972656 L 208.46875 342.125 L 208.964844 339.230469 L 208.46875 336.335938 L 208.46875 334.375 L 209.117188 332.523438 L 210.347656 330.996094 L 212.015625 329.964844 L 213.933594 329.542969 L 215.734375 329.460938 L 217.484375 329.007813 L 219.449219 328.84375 L 221.359375 329.347656 L 222.988281 330.457031 L 224.152344 332.050781 L 225.074219 333.90625 L 226.40625 335.488281 L 227.347656 337.050781 L 227.753906 338.832031 L 227.59375 340.648438 L 226.875 342.328125 L 225.328125 344.789063 L 224.679688 347.621094 L 224.058594 349.210938 L 223.003906 350.554688 L 221.605469 351.53125 L 219.984375 352.058594 L 218.277344 352.09375 L 216.636719 351.632813 L 215.195313 350.714844 L 213.550781 349.285156 Z M 198.242188 256.671875 L 196.484375 257.164063 L 194.660156 257.089844 L 192.953125 256.453125 L 191.523438 255.316406 L 190.515625 253.796875 L 190.03125 252.039063 L 190.113281 250.214844 L 190.429688 248.671875 L 190.457031 246.976563 L 190.753906 245.226563 L 191.5625 243.652344 L 192.808594 242.390625 L 194.375 241.566406 L 196.121094 241.25 L 197.386719 241.410156 L 199.339844 242.761719 L 201.007813 243.671875 L 203.21875 246.410156 L 204.101563 247.925781 L 204.492188 249.636719 L 204.355469 251.386719 L 203.699219 253.019531 L 202.589844 254.378906 L 201.125 255.34375 Z M 139.03125 356.5 L 139.074219 356.3125 L 139.804688 355.191406 L 140.597656 355.164063 L 141.484375 356.3125 L 142.226563 358.1875 L 141.734375 358.875 L 141.003906 358.070313 L 139.230469 356.960938 Z M 181.367188 335.855469 L 181.484375 335.730469 L 183.15625 334.832031 L 185.023438 334.515625 L 186.859375 334.511719 L 188.71875 334.8125 L 190.382813 335.6875 L 191.679688 337.050781 L 192.476563 338.757813 L 192.683594 340.628906 L 192.28125 342.46875 L 191.316406 344.082031 L 189.882813 345.304688 L 188.425781 346.183594 L 187.167969 347.332031 L 185.609375 348.351563 L 184.609375 348.613281 L 184.851563 349.109375 L 185.125 350.863281 L 185.125 354.738281 L 185.007813 355.457031 L 183.8125 354.640625 L 179.976563 346.332031 L 183.371094 340.257813 L 185.429688 339.015625 L 185.140625 338.578125 L 182.683594 338.460938 L 181.554688 337.164063 L 181.355469 336.117188 Z M 184.539063 357.125 L 184.019531 358.144531 L 182.742188 359.429688 L 181.132813 360.261719 L 179.34375 360.554688 L 175.199219 360.578125 L 174.566406 360.480469 L 174.363281 360.703125 L 171.320313 363.148438 L 169.535156 364.125 L 167.519531 364.429688 L 161.804688 364.273438 L 158.351563 364.523438 L 156.738281 365.042969 L 155.378906 365.953125 L 154.496094 366.960938 L 153.882813 368.160156 L 153.523438 370.21875 L 154.023438 373.140625 L 154.066406 374.816406 L 153.628906 376.4375 L 152.742188 377.867188 L 152.351563 378.328125 L 152.269531 378.203125 L 152.683594 374.835938 L 153.175781 374.082031 L 152.804688 373.207031 L 150.203125 373.105469 L 145.449219 374.257813 L 143.757813 375.484375 L 142.039063 378.097656 L 136.757813 378.433594 L 136.246094 378.0625 L 137.339844 376.066406 L 140.148438 373.019531 L 141.023438 372.414063 L 142.589844 371.953125 L 147.132813 367.984375 L 147.953125 364.523438 L 151.550781 360.582031 L 153.09375 359.609375 L 154.941406 359.808594 L 160.492188 357.457031 L 163.644531 357.28125 L 167.339844 357.714844 L 172.597656 355.179688 L 173.933594 355.046875 L 174.484375 355.082031 L 179.910156 359.441406 L 180.433594 358.429688 L 177.679688 353.460938 L 178.242188 352.835938 L 180.867188 352.449219 L 181.503906 352.695313 L 181.914063 353.875 L 182.898438 354.332031 L 184.078125 356.789063 Z M 147.425781 363.976563 L 146.109375 363.875 L 144.195313 361.613281 L 142.050781 357.363281 L 142.246094 352.273438 L 144.664063 351.183594 L 146.003906 350.957031 L 149.566406 352.007813 L 151.039063 355.578125 L 155.546875 356.503906 L 154.066406 358.859375 L 150.984375 360.816406 Z M 286.679688 439.636719 L 283.058594 438.976563 L 282.164063 437.605469 L 282.484375 436.070313 L 286.839844 437.054688 L 287.960938 438.832031 Z M 236.835938 466.113281 L 235.136719 465.644531 L 236.523438 463.683594 L 237.195313 464.164063 L 237.5 465.839844 Z M 228.117188 474.644531 L 222.296875 470.886719 L 220.207031 471.1875 L 221.476563 469.683594 L 227.316406 466.367188 L 232.550781 467.761719 L 234.171875 469.894531 L 231.242188 473.621094 L 229.960938 474.269531 Z M 88.429688 500.046875 L 88.566406 499.308594 L 88.941406 499.117188 L 89.34375 499.789063 Z M 88.429688 500.046875 "/>
<path style=" stroke:none;fill-rule:nonzero;fill:rgb(80.392157%,58.431373%,4.705882%);fill-opacity:1;" d="M 243.277344 381.875 L 242.992188 383.675781 L 242.167969 385.296875 L 240.878906 386.582031 L 239.257813 387.40625 L 237.460938 387.691406 L 235.664063 387.40625 L 234.042969 386.582031 L 232.757813 385.296875 L 231.929688 383.675781 L 231.644531 381.875 L 231.929688 380.078125 L 232.757813 378.457031 L 234.042969 377.171875 L 235.664063 376.347656 L 237.460938 376.0625 L 239.257813 376.347656 L 240.878906 377.171875 L 242.167969 378.457031 L 242.992188 380.078125 Z M 243.277344 381.875 "/>
<path style=" stroke:none;fill-rule:nonzero;fill:rgb(80.392157%,58.431373%,4.705882%);fill-opacity:1;" d="M 192.875 381.875 L 192.59375 383.675781 L 191.765625 385.296875 L 190.480469 386.582031 L 188.859375 387.40625 L 187.0625 387.691406 L 185.265625 387.40625 L 183.644531 386.582031 L 182.355469 385.296875 L 181.53125 383.675781 L 181.246094 381.875 L 181.53125 380.078125 L 182.355469 378.457031 L 183.644531 377.171875 L 185.265625 376.347656 L 187.0625 376.0625 L 188.859375 376.347656 L 190.480469 377.171875 L 191.765625 378.457031 L 192.59375 380.078125 Z M 192.875 381.875 "/>
<path style=" stroke:none;fill-rule:nonzero;fill:rgb(80.392157%,58.431373%,4.705882%);fill-opacity:1;" d="M 181.246094 385.753906 L 180.960938 387.550781 L 180.136719 389.171875 L 178.847656 390.457031 L 177.226563 391.285156 L 175.429688 391.570313 L 173.632813 391.285156 L 172.011719 390.457031 L 170.726563 389.171875 L 169.898438 387.550781 L 169.617188 385.753906 L 169.898438 383.957031 L 170.726563 382.335938 L 172.011719 381.050781 L 173.632813 380.222656 L 175.429688 379.9375 L 177.226563 380.222656 L 178.847656 381.050781 L 180.136719 382.335938 L 180.960938 383.957031 Z M 181.246094 385.753906 "/>
<path style=" stroke:none;fill-rule:nonzero;fill:rgb(80.392157%,58.431373%,4.705882%);fill-opacity:1;" d="M 247.152344 354.738281 L 246.871094 356.535156 L 246.042969 358.15625 L 244.757813 359.441406 L 243.136719 360.269531 L 241.339844 360.554688 L 239.542969 360.269531 L 237.921875 359.441406 L 236.632813 358.15625 L 235.808594 356.535156 L 235.523438 354.738281 L 235.808594 352.941406 L 236.632813 351.320313 L 237.921875 350.035156 L 239.542969 349.207031 L 241.339844 348.921875 L 243.136719 349.207031 L 244.757813 350.035156 L 246.042969 351.320313 L 246.871094 352.941406 Z M 247.152344 354.738281 "/>
<path style=" stroke:none;fill-rule:nonzero;fill:rgb(80.392157%,58.431373%,4.705882%);fill-opacity:1;" d="M 235.523438 428.398438 L 235.238281 430.195313 L 234.414063 431.816406 L 233.125 433.105469 L 231.503906 433.929688 L 229.707031 434.214844 L 227.910156 433.929688 L 226.289063 433.105469 L 225.003906 431.816406 L 224.175781 430.195313 L 223.890625 428.398438 L 224.175781 426.601563 L 225.003906 424.980469 L 226.289063 423.695313 L 227.910156 422.871094 L 229.707031 422.585938 L 231.503906 422.871094 L 233.125 423.695313 L 234.414063 424.980469 L 235.238281 426.601563 Z M 235.523438 428.398438 "/>
<path style=" stroke:none;fill-rule:nonzero;fill:rgb(80.392157%,58.431373%,4.705882%);fill-opacity:1;" d="M 157.984375 246.183594 L 157.699219 247.980469 L 156.875 249.601563 L 155.585938 250.890625 L 153.964844 251.714844 L 152.167969 252 L 150.371094 251.714844 L 148.75 250.890625 L 147.464844 249.601563 L 146.636719 247.980469 L 146.355469 246.183594 L 146.636719 244.386719 L 147.234375 243.214844 L 148.300781 243.253906 L 147.398438 242.894531 L 147.464844 242.765625 L 148.75 241.480469 L 150.371094 240.652344 L 152.167969 240.371094 L 153.964844 240.652344 L 155.585938 241.480469 L 156.875 242.765625 L 157.699219 244.386719 Z M 157.984375 246.183594 "/>
<path style=" stroke:none;fill-rule:nonzero;fill:rgb(80.392157%,58.431373%,4.705882%);fill-opacity:1;" d="M 235.300781 301.859375 L 235.238281 302.257813 L 234.414063 303.878906 L 233.125 305.167969 L 231.503906 305.992188 L 229.707031 306.277344 L 227.910156 305.992188 L 226.289063 305.167969 L 225.003906 303.878906 L 224.175781 302.257813 L 223.890625 300.460938 L 224.175781 298.664063 L 225.003906 297.042969 L 226.289063 295.757813 L 226.835938 295.476563 L 229.304688 299.0625 Z M 235.300781 301.859375 "/>
<path style=" stroke:none;fill-rule:nonzero;fill:rgb(80.392157%,58.431373%,4.705882%);fill-opacity:1;" d="M 139.410156 322.675781 L 138.882813 321.644531 L 138.640625 320.097656 L 139.816406 316.644531 L 142.300781 315.023438 L 142.671875 314.308594 L 144.414063 314.03125 L 146.210938 314.316406 L 147.832031 315.140625 L 148.847656 316.15625 L 147.847656 318.148438 L 145.3125 320.636719 L 141.859375 323.019531 L 139.824219 322.464844 Z M 139.410156 322.675781 "/>
<path style=" stroke:none;fill-rule:nonzero;fill:rgb(80.392157%,58.431373%,4.705882%);fill-opacity:1;" d="M 289.671875 371.058594 L 289.515625 372.042969 L 288.6875 373.664063 L 287.402344 374.949219 L 285.78125 375.777344 L 283.984375 376.0625 L 282.1875 375.777344 L 280.566406 374.949219 L 279.28125 373.664063 L 278.453125 372.042969 L 278.167969 370.246094 L 278.191406 370.09375 L 283.34375 370.234375 L 284.253906 370.867188 L 286.703125 370.742188 Z M 289.671875 371.058594 "/>
<path style=" stroke:none;fill-rule:nonzero;fill:rgb(80.392157%,58.431373%,4.705882%);fill-opacity:1;" d="M 300.796875 445.640625 L 299.492188 445.847656 L 297.695313 445.5625 L 296.074219 444.734375 L 294.789063 443.449219 L 293.960938 441.828125 L 293.675781 440.03125 L 293.910156 438.5625 L 299.742188 437.757813 L 300.988281 440.148438 Z M 300.796875 445.640625 "/>
<path style=" stroke:none;fill-rule:nonzero;fill:rgb(80.392157%,58.431373%,4.705882%);fill-opacity:1;" d="M 142.597656 314.449219 L 143.957031 315.140625 L 145.242188 316.429688 L 146.070313 318.050781 L 146.324219 319.648438 L 145.3125 320.636719 L 141.859375 323.019531 L 139.824219 322.464844 L 137.933594 323.433594 L 137.675781 322.921875 L 139.816406 316.644531 L 142.300781 315.023438 Z M 142.597656 314.449219 "/>
<path style=" stroke:none;fill-rule:nonzero;fill:rgb(80.392157%,58.431373%,4.705882%);fill-opacity:1;" d="M 174.644531 318.03125 L 175.429688 317.90625 L 177.226563 318.191406 L 178.847656 319.019531 L 180.136719 320.304688 L 180.960938 321.925781 L 181.046875 322.46875 L 179.199219 323.441406 L 177.335938 322.691406 Z M 174.644531 318.03125 "/>
<path style=" stroke:none;fill-rule:nonzero;fill:rgb(80.392157%,58.431373%,4.705882%);fill-opacity:1;" d="M 258.863281 342.605469 L 259.070313 341.3125 L 259.894531 339.691406 L 260.734375 338.851563 L 263.316406 342.46875 L 263.640625 343.980469 L 262.804688 345.191406 L 263.28125 343.65625 L 262.507813 342.839844 L 260.445313 342 Z M 258.863281 342.605469 "/>
</g>
</svg>
