<?xml version="1.0" encoding="UTF-8"?>
<svg xmlns="http://www.w3.org/2000/svg" xmlns:xlink="http://www.w3.org/1999/xlink" width="378pt" height="504pt" viewBox="0 0 378 504" version="1.1">
<g id="data">
<rect x="0" y="0" width="378" height="504" style="fill:rgb(100%,100%,100%);fill-opacity:1;stroke:none;"/>
<path style=" stroke:none;fill-rule:nonzero;fill:rgb(100%,100%,100%);fill-opacity:1;" d="M 53.308594 504 L 324.691406 504 L 324.691406 0 L 53.308594 0 Z M 53.308594 504 "/>
<path style=" stroke:none;fill-rule:nonzero;fill:rgb(22.745098%,53.333333%,16.078431%);fill-opacity:1;" d="M 303.371094 378 L 305.074219 380.171875 L 305.503906 380.507813 L 306.730469 384.164063 L 306.851563 386.054688 L 305.347656 387.199219 L 303.371094 389.628906 L 300.847656 391.808594 L 299.511719 393.695313 L 298.578125 395.808594 L 298.09375 397.9375 L 298.027344 400.25 L 298.488281 402.777344 L 299.492188 405.136719 L 299.492188 409.015625 L 297.433594 411.414063 L 296.472656 413.449219 L 295.578125 412.011719 L 292.742188 410.515625 L 292.480469 410.636719 L 293.898438 413.703125 L 295.734375 416.398438 L 295.492188 417.765625 L 295.527344 418.570313 L 294.574219 419.804688 L 292.191406 421.289063 L 290.003906 421.65625 L 289.660156 421.574219 L 288.214844 419.332031 L 284.976563 421.730469 L 280.71875 424.230469 L 282.339844 425.378906 L 285.105469 424.398438 L 286.097656 423.375 L 286.894531 423.164063 L 287.328125 423.710938 L 287.632813 428.84375 L 285.6875 430.875 L 283.441406 432.558594 L 282.84375 432.699219 L 279.644531 432.160156 L 274.75 433.78125 L 272.609375 436.117188 L 274.253906 436.015625 L 275.152344 434.667969 L 276.683594 434.363281 L 278.285156 434.328125 L 281.054688 434.949219 L 281.828125 435.589844 L 281.691406 436.328125 L 279.554688 436.347656 L 277.390625 437.65625 L 277.96875 438.546875 L 281.382813 438.964844 L 286.863281 440.339844 L 289.394531 439.9375 L 291.074219 438.957031 L 299.492188 437.792969 L 299.492188 447.785156 L 297.320313 449.492188 L 296.707031 450.273438 L 295.839844 450.375 L 292.621094 451.640625 L 291.179688 452.742188 L 289.847656 454.226563 L 289.460938 455.09375 L 289.214844 456.324219 L 289.242188 456.503906 L 289.066406 456.730469 L 288.492188 458.007813 L 287.625 458.117188 L 287.421875 457.023438 L 286.496094 454.773438 L 285.125 452.765625 L 283.359375 451.085938 L 281.289063 449.8125 L 278.996094 448.996094 L 276.585938 448.675781 L 274.160156 448.863281 L 271.824219 449.550781 L 269.792969 450.636719 L 267.71875 452.347656 L 266.1875 454.226563 L 265.125 456.265625 L 264.460938 458.597656 L 264.289063 460.886719 L 264.601563 463.292969 L 261.640625 462.089844 L 258.464844 461.738281 L 255.679688 462.15625 L 252.96875 463.292969 L 250.746094 462.746094 L 248.582031 462.636719 L 240.921875 463.855469 L 239.179688 464.664063 L 237.714844 463.296875 L 231.496094 463.171875 L 231.378906 463.496094 L 232.574219 464.835938 L 232.214844 465.75 L 231.738281 466.042969 L 226.691406 465.496094 L 219.566406 468.449219 L 217.054688 467.824219 L 210.222656 468.96875 L 208.164063 468.875 L 207.273438 468.058594 L 206.238281 469.769531 L 209.429688 471.089844 L 209.714844 470.9375 L 210.1875 472.128906 L 209.566406 473.890625 L 207.179688 474.382813 L 206.523438 474.269531 L 204.453125 473.097656 L 203.015625 472.699219 L 197.625 472.007813 L 196.175781 472.65625 L 195.679688 473.863281 L 195.832031 474.871094 L 195.90625 474.921875 L 195.351563 474.921875 L 194.851563 473.972656 L 190.289063 470.589844 L 185.898438 468.519531 L 183.121094 467.984375 L 181.648438 469.066406 L 176.207031 469.78125 L 174.339844 470.335938 L 168.992188 473.234375 L 168.214844 474.070313 L 167.203125 476.179688 L 162.746094 489.226563 L 160.929688 490.242188 L 159.355469 489.933594 L 157.734375 488.511719 L 157.167969 488.226563 L 156.527344 486.851563 L 154.683594 485.4375 L 153.613281 485.542969 L 152.417969 486.300781 L 151.738281 486.164063 L 148.46875 482.535156 L 142.796875 482.960938 L 141.527344 483.375 L 141.234375 483.667969 L 139.894531 483.609375 L 136.65625 484.394531 L 134.507813 484.320313 L 132.167969 484.859375 L 129.414063 488.195313 L 126.714844 489.746094 L 124.039063 490.597656 L 123.132813 494.289063 L 123.664063 495.292969 L 123.640625 495.398438 L 122.859375 496.015625 L 121.910156 497.222656 L 120.660156 497.648438 L 120.625 497.722656 L 118.371094 495.757813 L 117.539063 495.398438 L 117.15625 494.691406 L 115.984375 493.691406 L 112.253906 492.070313 L 111.410156 491.984375 L 110.375 492.488281 L 110.25 494.089844 L 105.644531 494.308594 L 105.441406 494.242188 L 105.628906 491.574219 L 106.074219 490.5625 L 106.917969 490.191406 L 108.011719 489.988281 L 110.125 489.125 L 111.105469 488.355469 L 111.738281 488.078125 L 112.199219 488.253906 L 112.445313 488.9375 L 113.574219 489.15625 L 118.144531 485.910156 L 121.425781 483.085938 L 124.375 479.769531 L 125.210938 477.886719 L 124.875 476.421875 L 125.640625 474.519531 L 128.386719 473.238281 L 132.105469 472.640625 L 132.679688 471.785156 L 133.257813 469.527344 L 135.859375 467.5625 L 138.636719 464.640625 L 138.753906 463.214844 L 138.84375 463.214844 L 141.097656 462.6875 L 143.203125 461.722656 L 144.976563 460.449219 L 147.21875 457.808594 L 148.585938 454.628906 L 148.953125 451.183594 L 148.292969 447.785156 L 148.4375 447.417969 L 151.105469 446.613281 L 157.421875 446.269531 L 159.910156 445.683594 L 164.597656 446.761719 L 166.046875 446.148438 L 167.527344 446.515625 L 169.484375 447.285156 L 170.039063 448.109375 L 170.757813 448.421875 L 173.15625 448.464844 L 180.570313 447.503906 L 181.109375 445.632813 L 181.210938 443.15625 L 182.519531 440.25 L 190.867188 432.195313 L 195.792969 425.3125 L 197.929688 424.472656 L 198.285156 423.78125 L 198.070313 423.238281 L 197.8125 423.082031 L 196.09375 424.355469 L 192.90625 427.300781 L 190.570313 429.988281 L 189.222656 431.449219 L 185.628906 432.957031 L 183.714844 433.246094 L 182.441406 433.0625 L 178.394531 435.230469 L 177.398438 436.808594 L 177.039063 438.671875 L 176.445313 439.273438 L 174.058594 439.917969 L 170.558594 439.851563 L 166.820313 439 L 166.347656 438.652344 L 161.371094 433.375 L 159.03125 429.199219 L 155.65625 429.589844 L 149.269531 432.308594 L 149.113281 432.746094 L 147.203125 431.632813 L 146.917969 429.308594 L 148.539063 428.378906 L 150.066406 428.890625 L 150.765625 428.683594 L 152.113281 428.917969 L 156.046875 428.398438 L 158.777344 429.007813 L 161.574219 428.949219 L 167.953125 427.632813 L 170.234375 426.457031 L 172.113281 424.902344 L 173.558594 423.097656 L 174.570313 421.160156 L 175.199219 419.070313 L 175.429688 416.769531 L 178.546875 415.289063 L 181.011719 413.058594 L 182.300781 411.144531 L 183.183594 409.015625 L 184.804688 406.710938 L 185.789063 404.210938 L 186.15625 401.933594 L 186.066406 399.628906 L 185.480469 397.269531 L 184.484375 395.1875 L 183.097656 393.347656 L 181.273438 391.738281 L 179.269531 390.597656 L 177.078125 389.875 L 171.425781 388.964844 L 165.679688 389.972656 L 162.539063 391.3125 L 159.921875 393.507813 L 157.625 393.605469 L 155.386719 394.152344 L 153.414063 395.066406 L 153.328125 395.128906 L 154.199219 391.746094 L 153.734375 388.820313 L 152.566406 386.542969 L 153.179688 384.597656 L 154.652344 381.796875 L 152.269531 378.203125 L 152.597656 375.515625 L 153.328125 378.019531 L 154.601563 380.246094 L 157.242188 383.390625 L 159.085938 384.988281 L 161.34375 386.214844 L 163.816406 386.917969 L 166.253906 387.066406 L 170.011719 386.265625 L 173.304688 384.28125 L 175.429688 381.875 L 177.777344 379.992188 L 179.308594 378 L 181.832031 375.824219 L 183.164063 373.933594 L 184.101563 371.820313 L 184.671875 368.667969 L 184.386719 365.601563 L 182.785156 361.550781 L 181.28125 359.1875 L 180.398438 358.359375 L 177.679688 353.460938 L 178.242188 352.835938 L 180.867188 352.449219 L 181.503906 352.695313 L 181.914063 353.875 L 182.898438 354.332031 L 184.078125 356.789063 L 185.613281 357.902344 L 188.359375 357.621094 L 190.335938 355.148438 L 189.90625 355.050781 L 188.667969 355.527344 L 188.3125 355.957031 L 186.378906 356.386719 L 183.8125 354.640625 L 179.976563 346.332031 L 183.371094 340.257813 L 185.429688 339.015625 L 185.140625 338.578125 L 182.683594 338.460938 L 182.5 338.25 L 182.742188 337.71875 L 183.320313 334.230469 L 183.183594 331.476563 L 185.640625 328.414063 L 186.9375 324.710938 L 187.113281 331.980469 L 188.367188 335.953125 L 190.035156 338.339844 L 193.023438 341.078125 L 195.722656 342.464844 L 198.691406 343.109375 L 198.128906 345.460938 L 198.0625 347.875 L 199.613281 354.539063 L 200.867188 356.738281 L 202.570313 358.617188 L 204.496094 362.066406 L 206.214844 363.789063 L 208.25 365.113281 L 210.640625 366.019531 L 214.199219 366.371094 L 216.5625 367.375 L 218.960938 367.824219 L 222.285156 367.617188 L 225.417969 366.476563 L 228.09375 364.492188 L 231.628906 360.304688 L 232.984375 357.585938 L 233.585938 354.738281 L 235.339844 352.527344 L 236.46875 350.078125 L 237.035156 347.054688 L 236.808594 344.109375 L 235.796875 341.203125 L 234.140625 338.761719 L 231.597656 336.605469 L 228.675781 335.289063 L 225.375 334.824219 L 221.953125 335.355469 L 218.078125 335.355469 L 216.246094 334.003906 L 214.1875 333.035156 L 214.199219 331.476563 L 214.835938 329.253906 L 215.015625 326.945313 L 214.710938 324.523438 L 213.957031 322.335938 L 212.710938 320.238281 L 210.957031 318.359375 L 208.835938 316.914063 L 206.445313 315.96875 L 208.292969 313.886719 L 209.546875 311.539063 L 210.324219 308.214844 L 211.464844 305.355469 L 211.816406 302.554688 L 211.484375 299.753906 L 210.429688 296.996094 L 208.710938 294.597656 L 206.445313 292.707031 L 208.910156 291.636719 L 211.0625 290.027344 L 212.71875 288.070313 L 213.953125 285.683594 L 214.621094 283.074219 L 214.675781 280.378906 L 214.109375 277.742188 L 213.015625 275.417969 L 211.445313 273.390625 L 209.355469 271.683594 L 206.929688 270.507813 L 204.425781 269.933594 L 201.730469 269.9375 L 199.230469 270.519531 L 196.917969 271.636719 L 194.816406 273.324219 L 193.109375 271.152344 L 190.9375 269.445313 L 190.566406 267.324219 L 189.75 265.195313 L 188.535156 263.265625 L 187.0625 261.691406 L 187.210938 259.1875 L 186.78125 256.0625 L 185.984375 253.792969 L 184.734375 251.734375 L 181.476563 247.890625 L 177.429688 244.484375 L 174.640625 242.992188 L 171.554688 242.308594 L 170.851563 241.617188 L 171.058594 240.675781 L 178.0625 241.875 L 182.921875 243.167969 L 186.398438 241.730469 L 187.519531 239.417969 L 188.617188 238.355469 L 189.539063 238.171875 L 193.183594 238.5 L 198.691406 242.316406 L 198.949219 244.734375 L 199.703125 247.054688 L 201.003906 249.269531 L 202.664063 251.058594 L 204.882813 252.585938 L 207.519531 253.597656 L 210.800781 253.980469 L 212.824219 256.707031 L 213.265625 256.828125 L 213.433594 256.585938 L 214.601563 257.097656 L 217.371094 258.992188 L 218.023438 261.042969 L 217.914063 267.695313 L 218.355469 271.199219 L 219.691406 274.476563 L 219.773438 274.574219 L 220.40625 277.574219 L 221.269531 280.457031 L 222.984375 284.039063 L 223.773438 285.027344 L 225.945313 294.183594 L 229.304688 299.0625 L 229.707031 299.25 L 229.707031 300.460938 L 228.761719 303.386719 L 228.601563 306.324219 L 229.320313 309.574219 L 230.925781 312.488281 L 233.710938 315.125 L 237.078125 316.675781 L 240.890625 317.085938 L 243.042969 316.753906 L 245.214844 315.96875 L 249.09375 315.96875 L 250.664063 317.441406 L 251.085938 317.707031 L 252.390625 319.148438 L 256.121094 320.875 L 256.847656 321.4375 L 256.847656 321.921875 L 254.738281 323.09375 L 253.890625 324.554688 L 253.765625 325.996094 L 254.984375 329.992188 L 255.484375 331.039063 L 255.929688 333.050781 L 256.863281 335.164063 L 258.199219 337.054688 L 260.722656 339.230469 L 262.699219 341.664063 L 262.789063 341.730469 L 263.316406 342.46875 L 263.640625 343.980469 L 262.804688 345.191406 L 263.28125 343.65625 L 262.507813 342.839844 L 260.445313 342 L 258.378906 342.789063 L 257.507813 342.753906 L 256.035156 341.773438 L 253.664063 338.65625 L 252.601563 338.082031 L 245.550781 339.511719 L 244.589844 338.644531 L 243.40625 338.558594 L 241.210938 339.871094 L 241.886719 340.445313 L 246.324219 340.394531 L 249.617188 339.34375 L 251.976563 339.082031 L 254.382813 342.558594 L 260.535156 347.621094 L 261.738281 348.3125 L 259.355469 350.308594 L 257.613281 352.835938 L 256.519531 355.835938 L 256.183594 358.359375 L 256.433594 361.019531 L 257.402344 364.070313 L 258.832031 366.503906 L 260.414063 368.191406 L 262.410156 369.597656 L 263.945313 370.25 L 261.394531 373.164063 L 260.601563 374.816406 L 262.84375 374.3125 L 264.9375 375.519531 L 266.9375 378.226563 L 270.21875 378.804688 L 270.625 378.746094 L 271.910156 376.796875 L 272.234375 374.960938 L 273.40625 371.914063 L 274.707031 370.632813 L 276.925781 370.246094 L 283.363281 370.246094 L 284.253906 370.867188 L 286.703125 370.742188 L 293.949219 371.515625 L 296.914063 372.84375 L 300.621094 375.558594 L 301.199219 376.292969 Z M 237.488281 465.765625 L 237.28125 465.929688 L 236.835938 466.113281 L 235.136719 465.644531 L 236.523438 463.683594 L 237.195313 464.164063 Z M 234.152344 469.867188 L 234.082031 470.011719 L 232.75 471.703125 L 231.414063 472.753906 L 230.398438 474.046875 L 229.960938 474.269531 L 228.117188 474.644531 L 222.296875 470.886719 L 220.207031 471.1875 L 221.476563 469.683594 L 227.316406 466.367188 L 232.550781 467.761719 Z M 134.6875 427.585938 L 133.824219 427.230469 L 131.292969 426.851563 L 127.992188 427.199219 L 126.714844 427.714844 L 127.425781 426.082031 L 128.796875 425.832031 L 131.792969 424.328125 L 131.226563 422.867188 L 130.640625 424.257813 L 127.769531 424.613281 L 125.097656 424.359375 L 126.199219 421.6875 L 126.589844 418.773438 L 126.199219 415.726563 L 125.34375 413.648438 L 125.933594 413.378906 L 126.238281 412.636719 L 127.878906 412.292969 L 129.117188 411.683594 L 133.074219 411.34375 L 134.871094 409.289063 L 135.753906 407.632813 L 137.585938 406.550781 L 141.359375 406.660156 L 142.21875 406.390625 L 146.265625 403.804688 L 145.546875 404.878906 L 144.789063 406.894531 L 144.414063 409.015625 L 142.464844 411.558594 L 141.28125 414.539063 L 141.042969 418.753906 L 142.324219 422.777344 L 142.941406 423.710938 L 139.503906 423.714844 L 136.765625 424.277344 L 136.292969 426.515625 L 135.777344 427.203125 Z M 141.296875 378.144531 L 139.542969 377.875 L 136.660156 378 L 136.660156 377.304688 L 137.339844 376.066406 L 140.148438 373.019531 L 141.023438 372.414063 L 142.589844 371.953125 L 147.132813 367.984375 L 147.953125 364.523438 L 151.550781 360.582031 L 153.09375 359.609375 L 154.941406 359.808594 L 160.492188 357.457031 L 163.644531 357.28125 L 165.097656 357.453125 L 161.808594 360.144531 L 159.921875 362.492188 L 157.742188 363.578125 L 155.839844 365.097656 L 153.53125 368.3125 L 152.421875 372.25 L 152.449219 373.195313 L 150.203125 373.105469 L 145.449219 374.257813 L 143.757813 375.484375 L 142.039063 378.097656 Z M 140.539063 357.78125 L 140.539063 355.167969 L 140.597656 355.164063 L 141.484375 356.3125 L 142.226563 358.1875 L 141.734375 358.875 L 141.003906 358.070313 Z M 142.203125 353.429688 L 142.707031 353.03125 L 143.882813 351.535156 L 144.664063 351.183594 L 146.003906 350.957031 L 149.566406 352.007813 L 151.039063 355.578125 L 155.546875 356.503906 L 154.066406 358.859375 L 150.984375 360.816406 L 147.425781 363.976563 L 146.109375 363.875 L 144.195313 361.613281 L 142.050781 357.363281 Z M 174.742188 355.289063 L 173.777344 355.0625 L 173.933594 355.046875 L 174.484375 355.082031 Z M 171.5 238.679688 L 171.554688 238.429688 L 173.640625 237.457031 L 175.492188 236.085938 L 177.042969 234.382813 L 178.222656 232.40625 L 179.171875 229.355469 L 179.601563 225.269531 L 179.84375 225.195313 L 184.609375 222.886719 L 186.457031 221.386719 L 187.289063 221.316406 L 189.085938 221.875 L 189.332031 222.921875 L 188.898438 224.691406 L 189.238281 225.953125 L 190.898438 226.824219 L 192.988281 227.191406 L 194.445313 228.726563 L 194.429688 229.304688 L 192.117188 231.570313 L 189.460938 232.730469 L 188.34375 232.882813 L 187.070313 232.078125 L 185.40625 232.042969 L 181.046875 235.800781 L 180.578125 237.003906 L 174.761719 240.109375 Z M 179.773438 223.660156 L 179.945313 222.019531 L 182.660156 221.378906 Z M 183.414063 221.199219 L 183.875 221.089844 L 189.367188 217.9375 L 191.730469 215.984375 L 193.441406 213.59375 L 194.46875 210.972656 L 194.816406 207.414063 L 195.84375 205.070313 L 196.332031 202.558594 L 196.078125 198.992188 L 194.816406 195.785156 L 197.867188 195.378906 L 200.703125 194.183594 L 203.128906 192.285156 L 204.910156 189.933594 L 206.070313 187.082031 L 206.445313 184.152344 L 208.875 181.371094 L 210.277344 178.09375 L 210.636719 175.3125 L 210.332031 168.875 L 212.550781 172.800781 L 212.910156 174.011719 L 212.210938 174.816406 L 210.882813 177.546875 L 210.199219 181.273438 L 210.246094 182.339844 L 209.382813 183.425781 L 207.15625 188.339844 L 206.980469 189.367188 L 206.820313 189.785156 L 206.445313 191.90625 L 203.84375 194.070313 L 200.796875 197.621094 L 199.527344 199.6875 L 198.773438 201.722656 L 198.410156 203.859375 L 198.578125 208.296875 L 197.078125 210.023438 L 197.433594 210.839844 L 197.785156 210.703125 L 197.761719 211.238281 L 197.441406 212.277344 L 196.878906 212.722656 L 195.382813 214.484375 L 194.261719 216.507813 L 193.953125 217.488281 L 191.214844 219.742188 L 185.519531 221.085938 Z M 187.734375 320.507813 L 187.765625 320.535156 L 187.730469 320.664063 Z M 163.800781 172.523438 L 165.398438 171.265625 L 167.808594 170.273438 L 170.480469 169.527344 L 170.492188 169.949219 L 171.554688 169.839844 L 173.589844 168.316406 L 174.046875 166.78125 L 177.191406 166.359375 L 178.933594 167.457031 L 181.0625 168.273438 L 183.183594 168.644531 L 183.183594 172.523438 L 181.015625 174.230469 L 179.308594 176.398438 L 177.316406 177.929688 L 175.429688 180.277344 L 172.914063 182.347656 L 171.554688 184.152344 L 169.207031 186.039063 L 167.675781 188.03125 L 163.800781 188.03125 L 165.996094 184.425781 L 166.761719 180.277344 L 165.996094 176.125 Z M 117.527344 268.84375 L 118.445313 266.609375 L 118.835938 263.566406 L 118.445313 260.652344 L 117.6875 258.808594 L 117.992188 256.269531 L 120.449219 249.640625 L 123.546875 249.277344 L 126.09375 248.242188 L 126.1875 249.699219 L 124.449219 251.558594 L 123.367188 254.191406 L 121.183594 263.964844 L 122.0625 266.289063 L 120.679688 268.164063 L 119.945313 268.597656 Z M 132.605469 248.851563 L 135.289063 249.847656 L 135.222656 250.96875 L 134.8125 251.347656 Z M 137.695313 250.027344 L 143.453125 250.375 L 147.085938 249.71875 L 145.46875 252.277344 L 144.566406 255.167969 L 144.253906 259.566406 L 144.300781 261.304688 L 144.195313 260.621094 L 142.601563 256.71875 L 139.777344 254.832031 L 137.378906 252.511719 Z M 144.320313 262.066406 L 144.414063 265.570313 L 141.984375 267.546875 L 138.277344 272.167969 L 137.035156 275.078125 L 136.375 279.09375 L 136.519531 281.894531 L 137.386719 284.699219 L 138.769531 286.992188 L 140.539063 288.832031 L 140.914063 290.953125 L 140.164063 290.433594 L 138.398438 288.636719 L 137.464844 288.296875 L 135.511719 289.683594 L 134.605469 291.238281 L 135.144531 292.898438 L 133.527344 292.765625 L 133.472656 292.679688 L 132.796875 291.90625 L 132.945313 282.953125 L 132.738281 280.433594 L 132.777344 280.410156 L 134.003906 276.632813 L 137.757813 273.035156 L 138.601563 268.871094 L 140.917969 265.085938 L 143.644531 263.800781 Z M 112.269531 189.089844 L 113.398438 188.03125 L 112.996094 189.109375 L 112.75 189.558594 Z M 110.953125 199.960938 L 109.523438 199.660156 L 109.316406 198.496094 L 110.578125 197.179688 L 111.398438 197.769531 L 111.5 198.265625 L 111.128906 199.855469 Z M 108.238281 195.261719 L 107.117188 193.480469 L 106.019531 192.304688 L 106.722656 192.214844 L 107.992188 192.835938 L 108.445313 193.703125 Z M 109.734375 241.84375 L 109.851563 242.402344 L 109.523438 242.339844 L 109.585938 242.089844 Z M 108.582031 242.167969 L 106.433594 241.765625 L 106.871094 241.457031 L 108.433594 240.808594 L 108.667969 241.335938 Z M 83.628906 168.644531 L 86.261719 168.644531 L 84.910156 169.710938 L 84.914063 169.441406 Z M 286.679688 439.636719 L 283.058594 438.976563 L 282.164063 437.605469 L 282.484375 436.070313 L 286.839844 437.054688 L 287.960938 438.832031 Z M 88.429688 500.046875 L 88.566406 499.308594 L 88.941406 499.117188 L 89.34375 499.789063 Z M 106.976563 236.632813 L 105.476563 236.191406 L 106.28125 234.464844 L 107.839844 232.910156 L 108.882813 232.734375 L 107.535156 236.1875 Z M 130.613281 263.773438 L 129.152344 263.667969 L 126.582031 261.613281 L 125.375 256.128906 L 125.988281 253.21875 L 128.179688 251.246094 L 129.539063 251.441406 L 131.390625 253.015625 L 132.984375 258.382813 L 133.019531 262.765625 L 132.308594 263.453125 Z M 130.613281 263.773438 "/>
<path style=" stroke:none;fill-rule:nonzero;fill:rgb(80.392157%,58.431373%,4.705882%);fill-opacity:1;" d="M 173.492188 211.292969 L 173.207031 213.089844 L 172.382813 214.710938 L 171.09375 215.996094 L 169.472656 216.824219 L 167.675781 217.109375 L 165.878906 216.824219 L 164.257813 215.996094 L 162.972656 214.710938 L 162.144531 213.089844 L 161.863281 211.292969 L 162.144531 209.496094 L 162.972656 207.875 L 164.257813 206.585938 L 165.878906 205.761719 L 167.675781 205.476563 L 169.472656 205.761719 L 171.09375 206.585938 L 172.382813 207.875 L 173.207031 209.496094 Z M 173.492188 211.292969 "/>
<path style=" stroke:none;fill-rule:nonzero;fill:rgb(80.392157%,58.431373%,4.705882%);fill-opacity:1;" d="M 157.984375 207.414063 L 157.699219 209.210938 L 156.875 210.832031 L 155.585938 212.121094 L 153.964844 212.945313 L 152.167969 213.230469 L 150.371094 212.945313 L 148.75 212.121094 L 147.464844 210.832031 L 146.636719 209.210938 L 146.355469 207.414063 L 146.636719 205.617188 L 147.464844 203.996094 L 148.75 202.710938 L 150.371094 201.882813 L 152.167969 201.601563 L 153.964844 201.882813 L 155.585938 202.710938 L 156.875 203.996094 L 157.699219 205.617188 Z M 157.984375 207.414063 "/>
<path style=" stroke:none;fill-rule:nonzero;fill:rgb(80.392157%,58.431373%,4.705882%);fill-opacity:1;" d="M 157.984375 246.183594 L 157.699219 247.980469 L 156.875 249.601563 L 155.585938 250.890625 L 153.964844 251.714844 L 152.167969 252 L 150.371094 251.714844 L 148.75 250.890625 L 147.464844 249.601563 L 146.636719 247.980469 L 146.355469 246.183594 L 146.636719 244.386719 L 147.234375 243.214844 L 148.300781 243.253906 L 147.464844 242.765625 L 148.75 241.480469 L 150.371094 240.652344 L 152.167969 240.371094 L 153.964844 240.652344 L 155.585938 241.480469 L 156.875 242.765625 L 157.699219 244.386719 Z M 157.984375 246.183594 "/>
<path style=" stroke:none;fill-rule:nonzero;fill:rgb(80.392157%,58.431373%,4.705882%);fill-opacity:1;" d="M 126.96875 176.398438 L 126.550781 178.460938 L 120.484375 180.664063 L 119.382813 179.570313 L 118.449219 174.53125 L 119.328125 170.882813 L 120.859375 170.738281 L 121.429688 171.886719 L 123.644531 173.570313 L 124.390625 172.890625 L 125.625 172.75 L 126.683594 174.601563 Z M 122.472656 170.792969 L 124.585938 171.710938 L 123.300781 171.917969 Z M 115.582031 177.945313 L 115.339844 176.398438 L 116.027344 173.808594 Z M 115.582031 177.945313 "/>
<path style=" stroke:none;fill-rule:nonzero;fill:rgb(80.392157%,58.431373%,4.705882%);fill-opacity:1;" d="M 123.09375 203.539063 L 122.808594 205.335938 L 121.980469 206.957031 L 120.832031 208.105469 L 119.15625 207.757813 L 117.03125 209.015625 L 115.480469 209.070313 L 113.859375 208.242188 L 112.570313 206.957031 L 111.703125 205.054688 L 114.792969 204.496094 L 115.882813 205.636719 L 117.070313 206.34375 L 118.480469 204.378906 L 117.316406 203.507813 L 117.253906 202.640625 L 119.675781 202.136719 L 120.503906 202.316406 L 121.824219 201.292969 L 121.664063 200.792969 L 120.140625 199.953125 L 116.804688 200.417969 L 115.804688 199.949219 L 116.929688 197.777344 L 117.277344 197.722656 L 119.074219 198.007813 L 120.695313 198.832031 L 121.980469 200.121094 L 122.808594 201.742188 Z M 123.09375 203.539063 "/>
<path style=" stroke:none;fill-rule:nonzero;fill:rgb(80.392157%,58.431373%,4.705882%);fill-opacity:1;" d="M 138.601563 145.382813 L 138.316406 147.183594 L 137.488281 148.804688 L 136.203125 150.089844 L 134.582031 150.914063 L 132.785156 151.199219 L 130.988281 150.914063 L 130.140625 150.484375 L 129.429688 149.296875 L 129.746094 148.554688 L 130.132813 148.371094 L 132.507813 149.96875 L 133.015625 149.894531 L 133.449219 149.351563 L 133.714844 146.386719 L 133.191406 146.265625 L 131.136719 142.199219 L 131.269531 141.472656 L 135.539063 142.054688 L 137.308594 141.785156 L 138.316406 143.585938 Z M 138.601563 145.382813 "/>
<path style=" stroke:none;fill-rule:nonzero;fill:rgb(80.392157%,58.431373%,4.705882%);fill-opacity:1;" d="M 230.683594 35.046875 L 231.503906 35.175781 L 233.683594 36.5625 L 233.101563 38.984375 L 230.96875 38.972656 L 230.324219 38.394531 Z M 229.191406 46.441406 L 227.910156 46.238281 L 226.0625 45.1875 L 225.789063 41.242188 L 227.246094 36.808594 L 228.363281 36.574219 L 229.761719 37.023438 L 229.984375 39.984375 Z M 229.191406 46.441406 "/>
<path style=" stroke:none;fill-rule:nonzero;fill:rgb(80.392157%,58.431373%,4.705882%);fill-opacity:1;" d="M 162.40625 291.136719 L 161.863281 288.832031 L 162.144531 287.035156 L 162.972656 285.414063 L 164.257813 284.125 L 165.878906 283.300781 L 167.675781 283.015625 L 169.472656 283.300781 L 171.144531 284.171875 L 169.453125 284.03125 L 168.226563 288.992188 L 166.234375 288.695313 L 163.3125 290.011719 Z M 162.40625 291.136719 "/>
<path style=" stroke:none;fill-rule:nonzero;fill:rgb(80.392157%,58.431373%,4.705882%);fill-opacity:1;" d="M 141.746094 291.496094 L 142.617188 291.054688 L 144.414063 290.769531 L 146.210938 291.054688 L 147.832031 291.878906 L 149.121094 293.167969 L 149.703125 294.3125 L 149.839844 295.726563 L 149.308594 296.871094 L 148.746094 297.058594 L 145.816406 295.78125 L 144.601563 294.238281 L 144.507813 293.621094 L 143.632813 292.355469 Z M 141.746094 291.496094 "/>
<path style=" stroke:none;fill-rule:nonzero;fill:rgb(80.392157%,58.431373%,4.705882%);fill-opacity:1;" d="M 149.589844 310.710938 L 149.121094 311.632813 L 147.832031 312.921875 L 146.210938 313.746094 L 144.414063 314.03125 L 142.933594 313.796875 L 144.765625 310.230469 L 145.863281 309.40625 L 149.046875 308.269531 Z M 149.589844 310.710938 "/>
<path style=" stroke:none;fill-rule:nonzero;fill:rgb(80.392157%,58.431373%,4.705882%);fill-opacity:1;" d="M 106.777344 223.976563 L 107.488281 226.199219 L 106.027344 226.585938 L 104.691406 226.273438 L 103.734375 224.277344 L 103.851563 223.371094 L 104.191406 223.09375 L 105.628906 223.050781 Z M 102.664063 224.511719 L 102.054688 224.097656 L 102.589844 223.230469 L 103.304688 222.808594 L 103.460938 223.023438 Z M 102.664063 224.511719 "/>
<path style=" stroke:none;fill-rule:nonzero;fill:rgb(80.392157%,58.431373%,4.705882%);fill-opacity:1;" d="M 92.757813 213.933594 L 94.03125 214.816406 L 92.019531 216.296875 L 91.515625 217.839844 L 89.652344 217.246094 L 89.414063 215.113281 L 90.1875 214.519531 Z M 92.757813 213.933594 "/>
<path style=" stroke:none;fill-rule:nonzero;fill:rgb(80.392157%,58.431373%,4.705882%);fill-opacity:1;" d="M 222.230469 71.074219 L 224.035156 70.070313 L 224.914063 69.929688 L 224.308594 74.617188 L 223.472656 74.351563 L 221.910156 72.433594 Z M 222.230469 71.074219 "/>
</g>
</svg>
