<?xml version="1.0" encoding="UTF-8"?>
<svg xmlns="http://www.w3.org/2000/svg" xmlns:xlink="http://www.w3.org/1999/xlink" width="378pt" height="504pt" viewBox="0 0 378 504" version="1.1">
<g id="data">
<rect x="0" y="0" width="378" height="504" style="fill:rgb(100%,100%,100%);fill-opacity:1;stroke:none;"/>
<path style=" stroke:none;fill-rule:nonzero;fill:rgb(100%,100%,100%);fill-opacity:1;" d="M 53.308594 504 L 324.691406 504 L 324.691406 0 L 53.308594 0 Z M 53.308594 504 "/>
<path style=" stroke:none;fill-rule:nonzero;fill:rgb(22.745098%,53.333333%,16.078431%);fill-opacity:1;" d="M 181.351563 322.308594 L 181.253906 320.113281 L 181.433594 318.386719 L 182.109375 316.792969 L 183.230469 315.472656 L 184.6875 314.535156 L 186.359375 314.074219 L 188.089844 314.121094 L 189.730469 314.679688 L 191.132813 315.695313 L 191.835938 316.382813 L 193.019531 318.046875 L 193.554688 320.011719 L 193.378906 322.046875 L 192.804688 324.179688 L 192.71875 324.378906 L 192.75 324.570313 L 192.90625 331.019531 L 193.644531 333.351563 L 194.4375 334.484375 L 196.375 336.265625 L 197.699219 336.945313 L 199.917969 337.421875 L 201.640625 338.09375 L 203.0625 339.269531 L 204.042969 340.832031 L 204.488281 342.625 L 204.347656 344.464844 L 203.925781 346.226563 L 203.894531 347.285156 L 205.085938 352.394531 L 205.605469 353.304688 L 206.878906 354.710938 L 207.648438 355.78125 L 209.179688 358.53125 L 209.898438 359.25 L 210.898438 359.898438 L 211.980469 360.308594 L 214.765625 360.582031 L 216.476563 361.015625 L 218.257813 361.777344 L 219.324219 361.976563 L 221.082031 361.867188 L 222.632813 361.300781 L 224.089844 360.222656 L 226.734375 357.082031 L 227.449219 355.65625 L 227.894531 353.542969 L 229.050781 351.097656 L 230.300781 349.539063 L 230.894531 348.269531 L 231.171875 346.832031 L 231.0625 345.292969 L 230.554688 343.839844 L 229.769531 342.679688 L 228.464844 341.570313 L 227.046875 340.933594 L 225.414063 340.703125 L 222.839844 341.101563 L 221.953125 341.167969 L 218.078125 341.167969 L 216.257813 340.878906 L 214.625 340.035156 L 213.253906 339.023438 L 211.710938 338.296875 L 210.332031 337.386719 L 209.261719 336.128906 L 208.589844 334.617188 L 208.371094 332.980469 L 208.386719 331.421875 L 208.609375 329.882813 L 209.082031 328.214844 L 209.171875 327.070313 L 209.035156 325.941406 L 208.648438 324.792969 L 207.984375 323.683594 L 207.101563 322.761719 L 206.023438 322.046875 L 204.335938 321.386719 L 202.734375 320.445313 L 201.511719 319.046875 L 200.792969 317.335938 L 200.652344 315.480469 L 201.101563 313.679688 L 202.09375 312.109375 L 203.488281 310.539063 L 204.058594 309.472656 L 204.660156 306.894531 L 204.921875 306.058594 L 205.789063 303.890625 L 205.957031 302.550781 L 205.773438 301.066406 L 205.277344 299.789063 L 204.414063 298.585938 L 202.71875 297.171875 L 201.445313 295.671875 L 200.742188 293.835938 L 200.691406 291.867188 L 201.304688 289.992188 L 202.503906 288.433594 L 204.15625 287.363281 L 205.902344 286.613281 L 206.992188 285.816406 L 207.863281 284.800781 L 208.480469 283.601563 L 208.820313 282.28125 L 208.847656 280.921875 L 208.59375 279.703125 L 208.015625 278.460938 L 207.253906 277.476563 L 206.191406 276.609375 L 205.078125 276.0625 L 203.742188 275.746094 L 202.5 275.742188 L 201.175781 276.042969 L 199.960938 276.636719 L 198.480469 277.839844 L 196.890625 278.757813 L 195.089844 279.132813 L 193.265625 278.929688 L 191.59375 278.164063 L 190.246094 276.917969 L 188.96875 275.292969 L 187.34375 274.015625 L 185.949219 272.433594 L 185.210938 270.457031 L 184.933594 268.882813 L 184.523438 267.808594 L 183.910156 266.832031 L 182.816406 265.667969 L 181.910156 264.386719 L 181.375 262.914063 L 181.257813 261.347656 L 181.371094 259.414063 L 181.101563 257.4375 L 180.699219 256.292969 L 180 255.144531 L 177.359375 252.023438 L 174.152344 249.324219 L 172.605469 248.496094 L 170.296875 247.984375 L 168.78125 247.417969 L 167.480469 246.457031 L 166.777344 245.769531 L 165.632813 244.1875 L 165.078125 242.316406 L 165.171875 240.367188 L 165.875 237.179688 L 166.515625 235.527344 L 167.621094 234.148438 L 169.089844 233.164063 L 170.652344 232.433594 L 171.574219 231.75 L 172.34375 230.902344 L 172.875 230.015625 L 173.449219 228.175781 L 174.164063 221.40625 L 174.621094 219.679688 L 175.582031 218.175781 L 176.953125 217.03125 L 178.609375 216.359375 L 181.710938 215.625 L 186.058594 213.132813 L 187.375 212.054688 L 188.296875 210.78125 L 188.757813 209.605469 L 189.027344 206.847656 L 189.476563 205.109375 L 190.28125 203.25 L 190.488281 202.125 L 190.347656 200.3125 L 189.402344 197.914063 L 189.015625 196.203125 L 189.15625 194.453125 L 189.8125 192.824219 L 190.921875 191.464844 L 192.390625 190.5 L 194.078125 190.015625 L 196.25 189.738281 L 197.679688 189.15625 L 198.890625 188.230469 L 199.816406 187.015625 L 200.398438 185.589844 L 200.679688 183.417969 L 201.140625 181.769531 L 202.066406 180.332031 L 203.886719 178.242188 L 204.613281 176.546875 L 204.804688 175.070313 L 204.515625 168.921875 L 204.554688 168.558594 L 205.648438 167.671875 L 207.910156 167.828125 L 210.3125 168.835938 L 212.550781 172.800781 L 213.671875 176.582031 L 213.695313 178 L 209.382813 183.425781 L 207.15625 188.339844 L 206.664063 191.242188 L 206.84375 191.972656 L 206.226563 194.742188 L 203.9375 198.859375 L 203.765625 200.121094 L 204.023438 201.304688 L 203.230469 203.472656 L 200.949219 206.4375 L 199.179688 207.605469 L 197.078125 210.023438 L 197.433594 210.839844 L 197.785156 210.703125 L 197.761719 211.238281 L 196.796875 214.386719 L 195.867188 215.914063 L 191.214844 219.742188 L 185.519531 221.085938 L 182.847656 221.226563 L 177.804688 225.21875 L 178.117188 225.714844 L 179.84375 225.195313 L 184.609375 222.886719 L 186.457031 221.386719 L 187.289063 221.316406 L 189.085938 221.875 L 189.332031 222.921875 L 188.898438 224.691406 L 189.238281 225.953125 L 190.898438 226.824219 L 192.988281 227.191406 L 194.445313 228.726563 L 194.429688 229.304688 L 192.117188 231.570313 L 189.460938 232.730469 L 188.34375 232.882813 L 187.070313 232.078125 L 185.40625 232.042969 L 181.046875 235.800781 L 180.578125 237.003906 L 174.761719 240.109375 L 170.214844 238.117188 L 166.480469 238.003906 L 166.738281 239.222656 L 168.246094 240.195313 L 178.0625 241.875 L 182.921875 243.167969 L 186.398438 241.730469 L 187.519531 239.417969 L 188.617188 238.355469 L 189.539063 238.171875 L 193.183594 238.5 L 199.339844 242.761719 L 206.488281 246.65625 L 208.910156 251.429688 L 212.824219 256.707031 L 213.265625 256.828125 L 213.433594 256.585938 L 214.601563 257.097656 L 217.371094 258.992188 L 218.679688 263.09375 L 218.894531 265.933594 L 218.261719 267.402344 L 220.40625 277.574219 L 221.269531 280.457031 L 222.984375 284.039063 L 223.773438 285.027344 L 225.945313 294.183594 L 229.304688 299.0625 L 235.300781 301.859375 L 235.242188 302.253906 L 234.527344 304.453125 L 234.453125 305.847656 L 234.816406 307.503906 L 235.589844 308.902344 L 236.933594 310.191406 L 238.660156 310.996094 L 240.753906 311.222656 L 241.601563 311.089844 L 243.242188 310.5 L 245.214844 310.152344 L 247.070313 310.152344 L 247.265625 310.527344 L 249.289063 315.722656 L 252.390625 319.148438 L 256.121094 320.875 L 257.207031 321.722656 L 254.738281 323.09375 L 253.890625 324.554688 L 253.765625 325.996094 L 254.984375 329.992188 L 256.160156 332.453125 L 263.316406 342.46875 L 263.640625 343.980469 L 262.804688 345.191406 L 263.28125 343.65625 L 262.507813 342.839844 L 260.445313 342 L 258.378906 342.789063 L 257.507813 342.753906 L 256.035156 341.773438 L 253.664063 338.65625 L 252.601563 338.082031 L 245.550781 339.511719 L 244.589844 338.644531 L 243.40625 338.558594 L 241.210938 339.871094 L 241.886719 340.445313 L 246.324219 340.394531 L 249.617188 339.34375 L 251.976563 339.082031 L 254.382813 342.558594 L 260.535156 347.621094 L 263.042969 349.058594 L 263.664063 349.039063 L 266.046875 352.214844 L 266.222656 352.640625 L 264.851563 353.273438 L 263.703125 354.246094 L 262.820313 355.527344 L 262.199219 357.230469 L 262.035156 358.472656 L 262.164063 359.855469 L 262.746094 361.6875 L 263.507813 362.984375 L 264.320313 363.84375 L 265.253906 364.488281 L 266.292969 364.941406 L 267.46875 365.183594 L 268.824219 365.160156 L 269.230469 365.050781 L 269.210938 365.21875 L 264.953125 369.09375 L 261.394531 373.164063 L 260.601563 374.816406 L 262.84375 374.3125 L 264.9375 375.519531 L 266.9375 378.226563 L 270.21875 378.804688 L 270.625 378.746094 L 271.910156 376.796875 L 272.234375 374.960938 L 273.40625 371.914063 L 274.707031 370.632813 L 277.851563 370.085938 L 283.34375 370.234375 L 284.253906 370.867188 L 286.703125 370.742188 L 293.949219 371.515625 L 296.914063 372.84375 L 304.070313 378.085938 L 305.367188 380.105469 L 306.730469 384.164063 L 307.179688 391.25 L 306.777344 393.191406 L 306.890625 393.976563 L 306.726563 394.414063 L 305.183594 395.746094 L 304.59375 396.578125 L 304.125 397.644531 L 303.890625 398.675781 L 303.855469 399.808594 L 304.09375 401.09375 L 304.648438 402.40625 L 303.519531 407.832031 L 297.144531 414.53125 L 295.578125 412.011719 L 292.742188 410.515625 L 292.480469 410.636719 L 293.898438 413.703125 L 295.890625 416.628906 L 296.3125 416.765625 L 296.164063 417.742188 L 294.574219 419.804688 L 292.191406 421.289063 L 290.003906 421.65625 L 289.660156 421.574219 L 288.214844 419.332031 L 284.976563 421.730469 L 280.71875 424.230469 L 282.339844 425.378906 L 285.105469 424.398438 L 286.097656 423.375 L 286.894531 423.164063 L 287.328125 423.710938 L 287.632813 428.84375 L 285.6875 430.875 L 283.441406 432.558594 L 282.84375 432.699219 L 279.644531 432.160156 L 274.75 433.78125 L 272.609375 436.117188 L 274.253906 436.015625 L 275.152344 434.667969 L 276.683594 434.363281 L 278.285156 434.328125 L 281.054688 434.949219 L 281.828125 435.589844 L 281.691406 436.328125 L 279.554688 436.347656 L 277.390625 437.65625 L 277.96875 438.546875 L 281.382813 438.964844 L 286.863281 440.339844 L 289.394531 439.9375 L 291.074219 438.957031 L 299.742188 437.757813 L 300.988281 440.148438 L 300.773438 446.324219 L 300.335938 447.820313 L 299.394531 449.050781 L 296.972656 450.242188 L 295.839844 450.375 L 292.621094 451.640625 L 291.179688 452.742188 L 289.847656 454.226563 L 289.460938 455.09375 L 289.214844 456.324219 L 289.464844 457.886719 L 286.253906 458.289063 L 284.1875 457.9375 L 282.046875 459.957031 L 281.8125 458.671875 L 281.351563 457.550781 L 280.667969 456.554688 L 279.792969 455.71875 L 278.761719 455.085938 L 277.621094 454.679688 L 276.421875 454.519531 L 275.21875 454.613281 L 274.042969 454.960938 L 273.046875 455.492188 L 271.863281 456.46875 L 271.078125 457.433594 L 270.519531 458.519531 L 270.214844 459.605469 L 270.132813 460.726563 L 270.367188 462.542969 L 270.332031 464.269531 L 269.792969 465.910156 L 269.179688 466.773438 L 259.269531 463.777344 L 256.070313 463.507813 L 244.628906 465.699219 L 242.703125 466.390625 L 242.113281 466.964844 L 241.902344 467.984375 L 241.359375 468.164063 L 238.210938 466.1875 L 238.632813 465.4375 L 239.46875 464.933594 L 237.714844 463.296875 L 231.496094 463.171875 L 231.378906 463.496094 L 232.574219 464.835938 L 232.214844 465.75 L 231.738281 466.042969 L 226.691406 465.496094 L 219.566406 468.449219 L 217.054688 467.824219 L 210.222656 468.96875 L 208.164063 468.875 L 207.273438 468.058594 L 206.238281 469.769531 L 209.429688 471.089844 L 209.714844 470.9375 L 210.1875 472.128906 L 209.566406 473.890625 L 206.84375 474.453125 L 204.453125 473.097656 L 203.015625 472.699219 L 197.625 472.007813 L 196.175781 472.65625 L 195.679688 473.863281 L 195.832031 474.871094 L 196.757813 475.523438 L 196.488281 476.304688 L 195.917969 475.996094 L 194.851563 473.972656 L 190.289063 470.589844 L 185.898438 468.519531 L 183.121094 467.984375 L 181.648438 469.066406 L 176.207031 469.78125 L 174.339844 470.335938 L 168.992188 473.234375 L 168.214844 474.070313 L 167.203125 476.179688 L 162.746094 489.226563 L 160.929688 490.242188 L 158.269531 489.722656 L 157.554688 489.058594 L 156.527344 486.851563 L 154.683594 485.4375 L 153.613281 485.542969 L 152.417969 486.300781 L 151.738281 486.164063 L 148.46875 482.535156 L 142.796875 482.960938 L 141.527344 483.375 L 140.734375 484.175781 L 139.910156 484.507813 L 134.507813 484.320313 L 132.167969 484.859375 L 129.414063 488.195313 L 126.714844 489.746094 L 124.039063 490.597656 L 123.132813 494.289063 L 123.664063 495.292969 L 123.496094 496.125 L 122.722656 496.945313 L 120.660156 497.648438 L 119.628906 499.730469 L 118.675781 498.910156 L 117.96875 497.691406 L 118.09375 496.4375 L 117.15625 494.691406 L 115.984375 493.691406 L 112.253906 492.070313 L 111.410156 491.984375 L 110.375 492.488281 L 110.242188 494.183594 L 109.421875 495.128906 L 106.824219 495.664063 L 105.398438 494.824219 L 105.628906 491.574219 L 106.074219 490.5625 L 111.738281 488.078125 L 112.199219 488.253906 L 112.445313 488.9375 L 113.574219 489.15625 L 118.144531 485.910156 L 121.425781 483.085938 L 124.375 479.769531 L 125.210938 477.886719 L 124.875 476.421875 L 125.640625 474.519531 L 128.386719 473.238281 L 132.105469 472.640625 L 132.679688 471.785156 L 133.257813 469.527344 L 135.859375 467.5625 L 138.636719 464.640625 L 139.128906 458.542969 L 139.386719 457.074219 L 140.269531 456.671875 L 141.003906 456.140625 L 141.945313 455.035156 L 142.492188 455.105469 L 144.269531 456.015625 L 145.761719 455.429688 L 148.429688 452.488281 L 148.105469 447.519531 L 151.105469 446.613281 L 157.421875 446.269531 L 159.910156 445.683594 L 164.597656 446.761719 L 166.046875 446.148438 L 167.527344 446.515625 L 169.484375 447.285156 L 170.039063 448.109375 L 170.757813 448.421875 L 173.15625 448.464844 L 180.570313 447.503906 L 181.109375 445.632813 L 181.210938 443.15625 L 182.519531 440.25 L 190.867188 432.195313 L 195.792969 425.3125 L 197.929688 424.472656 L 198.285156 423.78125 L 198.070313 423.238281 L 197.8125 423.082031 L 196.09375 424.355469 L 192.90625 427.300781 L 190.570313 429.988281 L 189.222656 431.449219 L 185.628906 432.957031 L 183.714844 433.246094 L 182.441406 433.0625 L 178.394531 435.230469 L 177.398438 436.808594 L 177.039063 438.671875 L 176.445313 439.273438 L 174.058594 439.917969 L 170.558594 439.851563 L 166.820313 439 L 166.347656 438.652344 L 161.371094 433.375 L 159.03125 429.199219 L 155.65625 429.589844 L 149.269531 432.308594 L 149.113281 432.746094 L 147.203125 431.632813 L 146.917969 429.308594 L 148.539063 428.378906 L 150.066406 428.890625 L 151.640625 428.421875 L 152.765625 427.832031 L 153.085938 427.097656 L 152.808594 426.597656 L 147.785156 426.460938 L 143.210938 423.710938 L 139.503906 423.714844 L 136.765625 424.277344 L 136.292969 426.515625 L 135.777344 427.203125 L 133.742188 427.917969 L 132.394531 427.265625 L 131.648438 427.453125 L 129.4375 429.378906 L 126.53125 428.132813 L 127.425781 426.082031 L 128.796875 425.832031 L 131.792969 424.328125 L 131.226563 422.867188 L 130.640625 424.257813 L 127.769531 424.613281 L 122.949219 424.152344 L 121.496094 423.164063 L 124.125 421.78125 L 125.167969 421.753906 L 125.464844 421.238281 L 124.929688 417.953125 L 123.328125 417.210938 L 121.445313 417.105469 L 122.0625 415.152344 L 125.933594 413.378906 L 126.539063 411.90625 L 133.074219 411.34375 L 134.871094 409.289063 L 135.753906 407.632813 L 137.585938 406.550781 L 141.359375 406.660156 L 142.21875 406.390625 L 149.359375 401.828125 L 152.136719 398.207031 L 153.054688 396.195313 L 154.199219 391.746094 L 153.734375 388.820313 L 152.566406 386.542969 L 153.179688 384.597656 L 154.652344 381.796875 L 152.269531 378.203125 L 152.683594 374.835938 L 153.175781 374.082031 L 152.804688 373.207031 L 150.203125 373.105469 L 145.449219 374.257813 L 143.757813 375.484375 L 142.039063 378.097656 L 136.757813 378.433594 L 136.246094 378.0625 L 137.339844 376.066406 L 140.148438 373.019531 L 141.023438 372.414063 L 142.589844 371.953125 L 147.132813 367.984375 L 147.953125 364.523438 L 151.550781 360.582031 L 153.09375 359.609375 L 154.941406 359.808594 L 160.492188 357.457031 L 163.644531 357.28125 L 167.339844 357.714844 L 172.597656 355.179688 L 173.933594 355.046875 L 174.484375 355.082031 L 179.910156 359.441406 L 180.433594 358.429688 L 177.679688 353.460938 L 178.242188 352.835938 L 180.867188 352.449219 L 181.503906 352.695313 L 181.914063 353.875 L 182.898438 354.332031 L 184.078125 356.789063 L 185.613281 357.902344 L 188.359375 357.621094 L 190.335938 355.148438 L 189.90625 355.050781 L 188.667969 355.527344 L 188.3125 355.957031 L 186.378906 356.386719 L 183.8125 354.640625 L 179.976563 346.332031 L 183.371094 340.257813 L 185.429688 339.015625 L 185.140625 338.578125 L 182.683594 338.460938 L 181.554688 337.164063 L 181.355469 336.117188 L 181.601563 331.078125 L 181.949219 330.421875 L 184.695313 329.191406 L 187.28125 323.421875 L 187.71875 320.933594 L 187.855469 317.484375 L 184.742188 320.527344 Z M 153.09375 401.976563 L 153.117188 402.09375 L 152.890625 403.863281 L 152.140625 405.480469 L 150.753906 407.554688 L 150.421875 408.4375 L 150.140625 410.023438 L 149.738281 411.355469 L 149.03125 412.554688 L 147.570313 414.457031 L 147.035156 415.808594 L 146.910156 418.011719 L 147.613281 420.226563 L 148.125 420.992188 L 148.882813 421.75 L 149.765625 422.355469 L 150.75 422.777344 L 152.234375 423.035156 L 155.285156 422.632813 L 157.3125 422.722656 L 159.355469 423.179688 L 160.917969 423.144531 L 165.996094 422.097656 L 167.011719 421.578125 L 167.945313 420.800781 L 168.664063 419.90625 L 169.160156 418.957031 L 169.46875 417.929688 L 169.644531 416.191406 L 170.179688 414.269531 L 171.332031 412.644531 L 172.964844 411.503906 L 175.199219 410.457031 L 176.59375 409.207031 L 177.152344 408.378906 L 177.8125 406.785156 L 178.425781 405.671875 L 179.644531 403.9375 L 180.140625 402.679688 L 180.324219 401.5 L 180.269531 400.371094 L 179.988281 399.257813 L 179.5 398.238281 L 178.746094 397.25 L 177.890625 396.507813 L 176.894531 395.941406 L 175.695313 395.542969 L 171.464844 394.863281 L 167.34375 395.585938 L 165.617188 396.320313 L 163.660156 397.960938 L 162.027344 398.929688 L 160.167969 399.316406 L 158.449219 399.390625 L 157.335938 399.664063 L 156.285156 400.15625 L 154.984375 401.109375 L 153.453125 401.910156 Z M 171.097656 360.878906 L 169.921875 361.28125 L 168.835938 361.910156 L 165.960938 364.261719 L 164.453125 366.136719 L 162.519531 367.695313 L 160.886719 368.511719 L 160.105469 369.132813 L 158.808594 370.960938 L 158.257813 372.953125 L 158.296875 374.28125 L 158.71875 375.730469 L 159.390625 376.902344 L 161.390625 379.285156 L 162.5 380.234375 L 163.539063 380.792969 L 164.800781 381.152344 L 165.816406 381.214844 L 167.847656 380.78125 L 169.539063 379.761719 L 171.074219 378.023438 L 171.785156 377.34375 L 173.589844 375.894531 L 174.699219 374.453125 L 175.507813 373.597656 L 177.492188 371.882813 L 178.082031 371.050781 L 178.507813 370.089844 L 178.804688 368.492188 L 178.6875 367.046875 L 177.574219 364.195313 L 176.769531 362.929688 L 175.640625 361.875 L 174.300781 361.164063 L 172.808594 360.820313 Z M 158.835938 175.550781 L 158.675781 175.179688 L 161.140625 173.015625 L 167.808594 170.273438 L 170.480469 169.527344 L 170.492188 169.949219 L 171.554688 169.839844 L 173.589844 168.316406 L 174.046875 166.78125 L 178.648438 166.167969 L 179.285156 167.089844 L 180.148438 167.667969 L 184.320313 169.011719 L 187.675781 167.128906 L 188.761719 167.304688 L 189 168.644531 L 189 172.523438 L 188.738281 174.25 L 187.976563 175.820313 L 186.78125 177.09375 L 185.15625 178.371094 L 183.878906 179.996094 L 182.851563 181.007813 L 181.414063 182.117188 L 179.960938 183.921875 L 178.925781 184.925781 L 177.675781 185.867188 L 176.046875 187.847656 L 175.199219 188.6875 L 173.394531 190.136719 L 172.285156 191.574219 L 171.007813 192.796875 L 169.421875 193.578125 L 167.675781 193.847656 L 163.800781 193.847656 L 162.066406 193.582031 L 160.492188 192.8125 L 159.214844 191.609375 L 158.359375 190.082031 L 157.996094 188.367188 L 158.15625 186.621094 L 158.835938 185.003906 L 160.472656 182.316406 L 160.847656 180.277344 L 160.472656 178.238281 Z M 158.035156 172.753906 L 157.988281 172.328125 L 158.285156 170.671875 L 159.046875 169.171875 L 159.902344 168.269531 L 160.300781 168.324219 L 161.058594 169.320313 Z M 161.746094 166.738281 L 161.828125 166.675781 L 163.105469 165.050781 L 164.675781 163.664063 L 165.921875 163.195313 L 162.722656 166.96875 L 162.175781 167.183594 L 161.726563 166.894531 Z M 102.4375 248.046875 L 100.832031 248.046875 L 99.4375 247.578125 L 100.660156 243.785156 L 102.445313 243.214844 L 103.882813 243.558594 L 106.871094 241.457031 L 108.433594 240.808594 L 108.667969 241.335938 L 108.480469 243.175781 L 108.777344 246.292969 L 109.046875 247.320313 L 109.847656 248.140625 L 108.789063 248.121094 L 105.714844 247.546875 L 104.929688 247.679688 L 104.988281 247.472656 L 102.980469 247.105469 Z M 107.355469 223.933594 L 107.867188 224.253906 L 108.859375 224.644531 L 110.570313 224.957031 L 111.234375 225.203125 L 106.027344 226.585938 L 104.691406 226.273438 L 103.734375 224.277344 L 103.851563 223.371094 L 104.191406 223.09375 L 105.628906 223.050781 L 106.039063 223.617188 L 106.972656 224.074219 Z M 115.324219 234.769531 L 115.28125 235.355469 L 114.898438 238.117188 L 115.382813 240.433594 L 113.761719 243.328125 L 111.886719 247.292969 L 110.550781 247.070313 L 109.476563 246.144531 L 109.292969 243.285156 L 109.585938 242.089844 L 112.5625 237.15625 Z M 119.308594 243.585938 L 120.503906 243.777344 L 122.089844 243.59375 L 123.464844 243.035156 L 125.363281 241.574219 L 125.65625 241.417969 L 126.1875 249.699219 L 124.449219 251.558594 L 123.367188 254.191406 L 121.183594 263.964844 L 122.0625 266.289063 L 120.679688 268.164063 L 119.945313 268.597656 L 116.058594 268.992188 L 115.222656 268.382813 L 115.277344 264.699219 L 117.226563 262.640625 L 117.992188 256.269531 L 120.664063 249.058594 L 119.164063 246.890625 Z M 128.042969 240.515625 L 128.984375 240.371094 L 130.890625 240.71875 L 132.574219 241.667969 L 134.769531 243.453125 L 136.605469 244.132813 L 136.15625 245.152344 L 135.023438 244.945313 L 131.566406 242.222656 L 130.757813 242.5 L 130.269531 243.347656 L 130.09375 244.535156 L 130.664063 246.308594 L 130.519531 246.613281 L 128.257813 245.464844 L 127.46875 243.074219 Z M 138.429688 244.246094 L 143.105469 244.527344 L 146.050781 243.996094 L 147.964844 243.96875 L 149.78125 244.566406 L 151.308594 245.71875 L 152.378906 247.304688 L 152.875 249.152344 L 152.746094 251.0625 L 152.003906 252.824219 L 150.792969 254.738281 L 150.320313 256.253906 L 150.074219 259.695313 L 150.230469 265.414063 L 150.007813 267.167969 L 149.269531 268.773438 L 148.085938 270.082031 L 146.132813 271.667969 L 143.3125 275.1875 L 142.660156 276.71875 L 142.214844 279.402344 L 142.308594 280.964844 L 142.730469 282.308594 L 143.351563 283.355469 L 144.746094 284.816406 L 145.730469 286.207031 L 146.265625 287.820313 L 146.542969 289.394531 L 146.953125 290.46875 L 147.566406 291.441406 L 148.660156 292.609375 L 149.636719 294.019531 L 149.695313 294.207031 L 149.839844 295.726563 L 149.308594 296.871094 L 148.746094 297.058594 L 145.816406 295.78125 L 144.601563 294.238281 L 144.507813 293.621094 L 143.632813 292.355469 L 141.613281 291.4375 L 140.164063 290.433594 L 138.398438 288.636719 L 137.464844 288.296875 L 135.511719 289.683594 L 134.605469 291.238281 L 135.976563 295.472656 L 136.734375 296.308594 L 136.957031 298.523438 L 136.742188 298.695313 L 134.683594 297.484375 L 134.359375 296.304688 L 134.707031 295.457031 L 134.59375 294.480469 L 133.472656 292.679688 L 130.894531 289.722656 L 129.605469 286.988281 L 129.300781 285.09375 L 129.71875 282.265625 L 132.777344 280.410156 L 134.003906 276.632813 L 137.757813 273.035156 L 138.601563 268.871094 L 140.917969 265.085938 L 143.644531 263.800781 L 144.390625 261.886719 L 144.195313 260.621094 L 142.601563 256.71875 L 139.777344 254.832031 L 137.378906 252.511719 Z M 106.171875 185.902344 L 106.300781 185.878906 L 107.269531 185.5 L 108.257813 184.878906 L 109.425781 183.785156 L 110.84375 182.808594 L 112.492188 182.285156 L 113.136719 182.28125 L 117.5 184.859375 L 118.042969 184.625 L 118.398438 185.0625 L 119.050781 186.660156 L 119.203125 188.378906 L 118.847656 190.066406 L 118.710938 190.429688 L 118.089844 190.683594 L 116.035156 193.449219 L 114.023438 194.042969 L 113.570313 192.609375 L 115.183594 189.4375 L 113.980469 187.324219 L 112.75 189.558594 L 110.542969 187.414063 L 107.277344 187.777344 Z M 115.003906 182.507813 L 115.871094 182.765625 L 116.300781 183.050781 L 116.207031 183.113281 L 115.0625 182.589844 Z M 118.121094 195.46875 L 118.28125 196.054688 L 119.726563 198.308594 L 120.46875 200.027344 L 120.480469 200.140625 L 120.140625 199.953125 L 116.804688 200.417969 L 115.804688 199.949219 Z M 120.535156 202.292969 L 120.191406 203.710938 L 119.195313 205.292969 L 117.75 206.480469 L 116 207.148438 L 114.132813 207.222656 L 112.335938 206.703125 L 110.371094 205.769531 L 109.144531 205.519531 L 114.792969 204.496094 L 115.882813 205.636719 L 117.070313 206.34375 L 118.480469 204.378906 L 117.316406 203.507813 L 117.253906 202.640625 L 119.675781 202.136719 L 120.503906 202.316406 Z M 85.769531 177.222656 L 85.644531 177.339844 L 84.023438 178.101563 L 82.246094 178.335938 L 81.917969 178.277344 L 82.046875 176.234375 L 83.4375 175.515625 L 85.28125 176.539063 Z M 147.425781 363.976563 L 146.109375 363.875 L 144.195313 361.613281 L 142.050781 357.363281 L 142.246094 352.273438 L 144.664063 351.183594 L 146.003906 350.957031 L 149.566406 352.007813 L 151.039063 355.578125 L 155.546875 356.503906 L 154.066406 358.859375 L 150.984375 360.816406 Z M 141.734375 358.875 L 141.003906 358.070313 L 139.230469 356.960938 L 138.828125 356.035156 L 139.253906 355.210938 L 140.597656 355.164063 L 141.484375 356.3125 L 142.226563 358.1875 Z M 286.679688 439.636719 L 283.058594 438.976563 L 282.164063 437.605469 L 282.484375 436.070313 L 286.839844 437.054688 L 287.960938 438.832031 Z M 236.835938 466.113281 L 235.136719 465.644531 L 236.523438 463.683594 L 237.195313 464.164063 L 237.5 465.839844 Z M 228.117188 474.644531 L 222.296875 470.886719 L 220.207031 471.1875 L 221.476563 469.683594 L 227.316406 466.367188 L 232.550781 467.761719 L 234.171875 469.894531 L 231.242188 473.621094 L 229.960938 474.269531 Z M 88.429688 500.046875 L 88.566406 499.308594 L 88.941406 499.117188 L 89.34375 499.789063 Z M 86.902344 171.355469 L 84.875 171.125 L 84.914063 169.441406 L 82.996094 168.253906 L 81.464844 168.371094 L 80.089844 167.152344 L 80.046875 166.824219 L 81.617188 164.507813 L 86.457031 164.699219 L 87.222656 163.867188 L 88.554688 163.523438 L 91.023438 165.660156 L 91.214844 166.0625 L 88.9375 171.015625 L 88.773438 171.246094 Z M 85.394531 175.835938 L 84.546875 175.601563 L 83.046875 174.507813 L 82.722656 173.699219 L 82.824219 172.589844 L 83.972656 171.789063 L 86.566406 172.507813 L 87.433594 173.25 L 87.285156 175.226563 Z M 100.703125 192.265625 L 100.25 191.921875 L 101.515625 191.273438 L 102.835938 191.832031 Z M 106.597656 197.398438 L 105.582031 196.804688 L 103.613281 194.261719 L 105.34375 192.390625 L 106.722656 192.214844 L 107.992188 192.835938 L 108.445313 193.703125 L 108.09375 196.351563 L 107.546875 197.015625 Z M 110.160156 200.433594 L 108.972656 199.578125 L 108.9375 198.890625 L 110.578125 197.179688 L 111.398438 197.769531 L 111.5 198.265625 L 111.128906 199.855469 Z M 102.664063 224.511719 L 102.054688 224.097656 L 102.589844 223.230469 L 103.304688 222.808594 L 103.460938 223.023438 Z M 106.976563 236.632813 L 105.476563 236.191406 L 106.28125 234.464844 L 107.839844 232.910156 L 108.882813 232.734375 L 107.535156 236.1875 Z M 134.8125 251.347656 L 132.589844 248.835938 L 130.84375 244.566406 L 130.707031 243.464844 L 131.460938 242.613281 L 133.71875 244.574219 L 134.707031 246.3125 L 135.339844 249.003906 L 135.222656 250.96875 Z M 130.613281 263.773438 L 129.152344 263.667969 L 126.582031 261.613281 L 125.375 256.128906 L 125.988281 253.21875 L 128.179688 251.246094 L 129.539063 251.441406 L 131.390625 253.015625 L 132.984375 258.382813 L 133.019531 262.765625 L 132.308594 263.453125 Z M 130.613281 263.773438 "/>
<path style=" stroke:none;fill-rule:nonzero;fill:rgb(80.392157%,58.431373%,4.705882%);fill-opacity:1;" d="M 173.492188 211.292969 L 173.207031 213.089844 L 172.382813 214.710938 L 171.09375 215.996094 L 169.472656 216.824219 L 167.675781 217.109375 L 165.878906 216.824219 L 164.257813 215.996094 L 162.972656 214.710938 L 162.144531 213.089844 L 161.863281 211.292969 L 162.144531 209.496094 L 162.972656 207.875 L 164.257813 206.585938 L 165.878906 205.761719 L 167.675781 205.476563 L 169.472656 205.761719 L 171.09375 206.585938 L 172.382813 207.875 L 173.207031 209.496094 Z M 173.492188 211.292969 "/>
<path style=" stroke:none;fill-rule:nonzero;fill:rgb(80.392157%,58.431373%,4.705882%);fill-opacity:1;" d="M 157.984375 207.414063 L 157.699219 209.210938 L 156.875 210.832031 L 155.585938 212.121094 L 153.964844 212.945313 L 152.167969 213.230469 L 150.371094 212.945313 L 148.75 212.121094 L 147.464844 210.832031 L 146.636719 209.210938 L 146.355469 207.414063 L 146.636719 205.617188 L 147.464844 203.996094 L 148.75 202.710938 L 150.371094 201.882813 L 152.167969 201.601563 L 153.964844 201.882813 L 155.585938 202.710938 L 156.875 203.996094 L 157.699219 205.617188 Z M 157.984375 207.414063 "/>
<path style=" stroke:none;fill-rule:nonzero;fill:rgb(80.392157%,58.431373%,4.705882%);fill-opacity:1;" d="M 126.96875 176.398438 L 126.683594 178.195313 L 126.550781 178.460938 L 120.484375 180.664063 L 119.382813 179.570313 L 118.449219 174.53125 L 119.328125 170.882813 L 119.355469 170.871094 L 120.71875 170.652344 L 120.859375 170.738281 L 121.429688 171.886719 L 123.644531 173.570313 L 124.390625 172.890625 L 125.625 172.75 L 125.859375 172.980469 L 126.683594 174.601563 Z M 115.582031 177.945313 L 115.339844 176.398438 L 115.625 174.601563 L 116.027344 173.808594 L 116.03125 173.816406 Z M 122.472656 170.792969 L 122.949219 170.871094 L 124.570313 171.695313 L 124.585938 171.710938 L 123.910156 171.675781 L 123.300781 171.917969 Z M 122.472656 170.792969 "/>
<path style=" stroke:none;fill-rule:nonzero;fill:rgb(80.392157%,58.431373%,4.705882%);fill-opacity:1;" d="M 138.601563 145.382813 L 138.316406 147.183594 L 137.488281 148.804688 L 136.203125 150.089844 L 134.582031 150.914063 L 132.785156 151.199219 L 130.988281 150.914063 L 130.140625 150.484375 L 129.429688 149.296875 L 129.746094 148.554688 L 130.132813 148.371094 L 132.507813 149.96875 L 133.015625 149.894531 L 133.449219 149.351563 L 133.714844 146.386719 L 133.191406 146.265625 L 131.136719 142.199219 L 131.269531 141.472656 L 135.539063 142.054688 L 137.308594 141.785156 L 137.488281 141.964844 L 138.316406 143.585938 Z M 138.601563 145.382813 "/>
<path style=" stroke:none;fill-rule:nonzero;fill:rgb(80.392157%,58.431373%,4.705882%);fill-opacity:1;" d="M 229.191406 46.441406 L 227.910156 46.238281 L 226.289063 45.414063 L 226.0625 45.1875 L 225.789063 41.242188 L 227.246094 36.808594 L 228.363281 36.574219 L 229.761719 37.023438 L 229.984375 39.984375 Z M 230.683594 35.046875 L 231.503906 35.175781 L 233.125 36.003906 L 233.683594 36.5625 L 233.101563 38.984375 L 230.96875 38.972656 L 230.324219 38.394531 Z M 230.683594 35.046875 "/>
<path style=" stroke:none;fill-rule:nonzero;fill:rgb(80.392157%,58.431373%,4.705882%);fill-opacity:1;" d="M 173.226563 290.503906 L 173.207031 290.628906 L 172.621094 291.777344 Z M 162.40625 291.136719 L 162.144531 290.628906 L 161.863281 288.832031 L 162.144531 287.035156 L 162.972656 285.414063 L 164.257813 284.125 L 165.878906 283.300781 L 167.675781 283.015625 L 169.472656 283.300781 L 171.09375 284.125 L 171.144531 284.171875 L 169.453125 284.03125 L 168.226563 288.992188 L 166.234375 288.695313 L 163.3125 290.011719 Z M 162.40625 291.136719 "/>
<path style=" stroke:none;fill-rule:nonzero;fill:rgb(80.392157%,58.431373%,4.705882%);fill-opacity:1;" d="M 149.589844 310.710938 L 149.121094 311.632813 L 147.832031 312.921875 L 146.210938 313.746094 L 144.414063 314.03125 L 142.933594 313.796875 L 144.765625 310.230469 L 145.863281 309.40625 L 149.046875 308.269531 Z M 149.589844 310.710938 "/>
<path style=" stroke:none;fill-rule:nonzero;fill:rgb(80.392157%,58.431373%,4.705882%);fill-opacity:1;" d="M 92.757813 213.933594 L 93.558594 214.339844 L 94.03125 214.816406 L 93.804688 214.847656 L 92.019531 216.296875 L 91.515625 217.839844 L 89.652344 217.246094 L 89.414063 215.113281 L 90.1875 214.519531 Z M 92.757813 213.933594 "/>
<path style=" stroke:none;fill-rule:nonzero;fill:rgb(80.392157%,58.431373%,4.705882%);fill-opacity:1;" d="M 222.230469 71.074219 L 222.414063 70.894531 L 224.035156 70.070313 L 224.914063 69.929688 L 224.308594 74.617188 L 223.472656 74.351563 L 221.910156 72.433594 Z M 222.230469 71.074219 "/>
</g>
</svg>
