<?xml version="1.0" encoding="UTF-8"?>
<svg xmlns="http://www.w3.org/2000/svg" xmlns:xlink="http://www.w3.org/1999/xlink" width="378pt" height="504pt" viewBox="0 0 378 504" version="1.1">
<g id="data">
<rect x="0" y="0" width="378" height="504" style="fill:rgb(100%,100%,100%);fill-opacity:1;stroke:none;"/>
<path style=" stroke:none;fill-rule:nonzero;fill:rgb(100%,100%,100%);fill-opacity:1;" d="M 53.308594 504 L 324.691406 504 L 324.691406 0 L 53.308594 0 Z M 53.308594 504 "/>
<path style=" stroke:none;fill-rule:nonzero;fill:rgb(22.745098%,53.333333%,16.078431%);fill-opacity:1;" d="M 172.453125 302.417969 L 174.058594 304.578125 L 176.117188 306.308594 L 179.496094 307.832031 L 183.183594 308.214844 L 184.890625 310.386719 L 187.0625 312.09375 L 186.394531 315.96875 L 186.828125 318.488281 L 184.742188 320.527344 L 179.199219 323.441406 L 177.335938 322.691406 L 175.5625 319.617188 L 175.128906 317.292969 L 173.699219 314.445313 L 172.53125 313.164063 L 172.289063 311.832031 L 171.910156 311.277344 L 172.574219 309.773438 L 173.054688 307.417969 L 173.027344 304.886719 Z M 183.523438 329.71875 L 183.558594 330.363281 L 184.542969 333.410156 L 186.410156 336.164063 L 188.757813 338.144531 L 192.082031 339.808594 L 194.523438 340.574219 L 197.203125 340.78125 L 199.980469 340.332031 L 202.570313 339.230469 L 205.484375 339.542969 L 208.386719 339.117188 L 211.417969 337.78125 L 214.199219 335.355469 L 217.039063 334.15625 L 219.550781 332.164063 L 221.601563 329.21875 L 222.636719 325.914063 L 222.699219 322.835938 L 221.953125 319.847656 L 222.59375 316.734375 L 222.367188 313.5625 L 221.234375 310.457031 L 219.273438 307.792969 L 216.75 305.851563 L 213.671875 304.636719 L 216.054688 304.25 L 218.304688 303.378906 L 220.328125 302.066406 L 221.953125 300.460938 L 229.707031 300.460938 L 227.183594 302.640625 L 225.382813 305.441406 L 224.449219 308.644531 L 224.460938 311.976563 L 225.832031 315.96875 L 226.246094 319.773438 L 227.390625 322.480469 L 230.03125 325.59375 L 233.585938 327.601563 L 232.957031 330.484375 L 233.074219 333.4375 L 233.988281 336.378906 L 235.558594 338.878906 L 238.023438 341.125 L 240.902344 342.542969 L 243.800781 343.101563 L 247.769531 342.972656 L 250.703125 342.078125 L 253.035156 340.613281 L 254.382813 342.558594 L 257.308594 344.964844 L 254.636719 344.144531 L 251.050781 344.183594 L 247.417969 345.433594 L 244.398438 347.78125 L 242.308594 350.945313 L 241.339844 354.738281 L 239.691406 352.765625 L 237.757813 351.273438 L 235.4375 350.171875 L 233.058594 349.621094 L 229.851563 349.675781 L 226.78125 350.605469 L 224.078125 352.335938 L 221.953125 354.738281 L 220.523438 352.921875 L 218.761719 351.425781 L 216.738281 350.308594 L 214.53125 349.613281 L 210.441406 349.492188 L 206.445313 350.863281 L 203.5625 348.726563 L 200.167969 347.570313 L 196.578125 347.503906 L 193.027344 348.59375 L 190.183594 350.566406 L 187.984375 353.402344 L 186.941406 356.261719 L 186.378906 356.386719 L 183.8125 354.640625 L 179.976563 346.332031 L 180.070313 346.160156 L 180.859375 345.3125 L 182.105469 343.253906 L 182.484375 341.84375 L 183.371094 340.257813 L 185.429688 339.015625 L 185.140625 338.578125 L 183.378906 338.496094 L 183.882813 336.625 L 183.992188 334.441406 L 183.695313 332.277344 L 182.835938 330.027344 Z M 254.242188 339.414063 L 255.457031 338.085938 L 256.847656 335.355469 L 257.984375 337.929688 L 259.707031 340.15625 L 261.914063 341.902344 L 263.332031 342.539063 L 263.640625 343.980469 L 262.804688 345.191406 L 263.28125 343.65625 L 262.507813 342.839844 L 260.445313 342 L 258.378906 342.789063 L 257.507813 342.753906 L 256.035156 341.773438 Z M 264.472656 350.117188 L 264.601563 350.863281 L 263.066406 349.058594 L 263.664063 349.039063 Z M 186.714844 357.789063 L 186.609375 360.355469 L 187.46875 364.734375 L 188.613281 367.414063 L 190.9375 370.246094 L 191.761719 372.261719 L 193.027344 374.1875 L 194.550781 375.746094 L 196.339844 376.992188 L 199.054688 378.121094 L 201.421875 378.609375 L 203.96875 378.582031 L 206.445313 378 L 208.1875 380.058594 L 210.46875 381.726563 L 212.960938 382.757813 L 215.753906 383.195313 L 218.691406 382.917969 L 221.46875 381.910156 L 223.898438 380.234375 L 225.832031 378 L 228.183594 380.148438 L 231.035156 381.574219 L 234.289063 382.183594 L 237.460938 381.875 L 238.929688 385.152344 L 241.226563 387.742188 L 244.300781 389.59375 L 247.796875 390.414063 L 251.125 390.191406 L 255.214844 389.222656 L 257.335938 388.382813 L 262.4375 384.480469 L 264.601563 381.875 L 264.914063 384.554688 L 265.777344 386.972656 L 267.230469 389.242188 L 269.167969 391.117188 L 272.441406 392.875 L 276.230469 393.507813 L 278.179688 395.175781 L 280.441406 396.375 L 282.535156 396.980469 L 284.707031 397.1875 L 288.851563 396.429688 L 292.453125 394.246094 L 294.460938 391.917969 L 295.617188 389.628906 L 297.496094 387.210938 L 298.492188 384.992188 L 299.078125 381.085938 L 298.316406 377.207031 L 296.300781 373.804688 L 293.496094 371.46875 L 293.949219 371.515625 L 296.914063 372.84375 L 304.070313 378.085938 L 305.367188 380.105469 L 306.730469 384.164063 L 306.949219 387.601563 L 306.582031 389.886719 L 306.996094 392.136719 L 306.777344 393.191406 L 306.882813 393.925781 L 305.257813 395.800781 L 303.925781 398.53125 L 303.246094 402.257813 L 303.371094 405.136719 L 300.816406 405.421875 L 298.390625 406.257813 L 296.203125 407.609375 L 294.367188 409.402344 L 293.511719 410.921875 L 292.742188 410.515625 L 292.480469 410.636719 L 293.015625 411.796875 L 292.414063 412.859375 L 291.738281 416.769531 L 289.304688 418.746094 L 288.511719 419.792969 L 288.214844 419.332031 L 284.976563 421.730469 L 280.71875 424.230469 L 282.339844 425.378906 L 285.105469 424.398438 L 286.097656 423.375 L 286.132813 423.367188 L 285.441406 424.835938 L 284.898438 427.601563 L 285.019531 430.285156 L 285.273438 431.1875 L 283.441406 432.558594 L 282.84375 432.699219 L 279.644531 432.160156 L 274.75 433.78125 L 272.609375 436.117188 L 274.253906 436.015625 L 275.152344 434.667969 L 276.683594 434.363281 L 278.285156 434.328125 L 281.054688 434.949219 L 281.828125 435.589844 L 281.691406 436.328125 L 279.554688 436.347656 L 277.390625 437.65625 L 277.96875 438.546875 L 281.382813 438.964844 L 286.863281 440.339844 L 289.394531 439.9375 L 291.074219 438.957031 L 291.492188 438.898438 L 293.59375 439.695313 L 296.863281 440.171875 L 299.492188 440.03125 L 297.34375 442.386719 L 295.875 445.355469 L 295.308594 448.488281 L 295.503906 450.507813 L 292.621094 451.640625 L 292.550781 451.695313 L 289.691406 451.726563 L 285.902344 452.859375 L 284.054688 454.003906 L 282.363281 455.570313 L 281.082031 457.328125 L 280.109375 459.414063 L 278.113281 458.527344 L 275.988281 458.027344 L 273.804688 457.9375 L 271.644531 458.253906 L 269.464844 459.019531 L 267.582031 460.128906 L 265.941406 461.570313 L 264.601563 463.292969 L 260.722656 463.292969 L 258.359375 462.289063 L 255.964844 461.835938 L 253.78125 461.863281 L 251.640625 462.300781 L 247.992188 464.160156 L 246.988281 465.246094 L 244.628906 465.699219 L 242.703125 466.390625 L 242.171875 466.910156 L 240.898438 466.96875 L 239.859375 467.222656 L 238.210938 466.1875 L 238.632813 465.4375 L 239.46875 464.933594 L 237.714844 463.296875 L 231.496094 463.171875 L 231.378906 463.496094 L 232.574219 464.835938 L 232.214844 465.75 L 231.738281 466.042969 L 226.691406 465.496094 L 219.566406 468.449219 L 217.054688 467.824219 L 210.222656 468.96875 L 208.164063 468.875 L 207.273438 468.058594 L 206.238281 469.769531 L 209.140625 470.96875 L 207.945313 470.890625 L 203.261719 471.304688 L 200.496094 472.300781 L 200.40625 472.363281 L 197.625 472.007813 L 196.175781 472.65625 L 195.679688 473.863281 L 195.832031 474.871094 L 196.722656 475.496094 L 196.167969 476.132813 L 195.917969 475.996094 L 194.851563 473.972656 L 190.546875 470.78125 L 190.039063 470.320313 L 187.929688 469.097656 L 185.484375 468.3125 L 184.265625 468.207031 L 183.121094 467.984375 L 182.976563 468.089844 L 182.925781 468.085938 L 180.507813 468.398438 L 177.859375 469.375 L 177.523438 469.609375 L 176.207031 469.78125 L 174.339844 470.335938 L 168.992188 473.234375 L 168.214844 474.070313 L 167.203125 476.179688 L 162.746094 489.226563 L 160.929688 490.242188 L 158.269531 489.722656 L 157.554688 489.058594 L 156.527344 486.851563 L 154.683594 485.4375 L 153.613281 485.542969 L 152.417969 486.300781 L 151.738281 486.164063 L 148.46875 482.535156 L 142.796875 482.960938 L 141.527344 483.375 L 141.238281 483.664063 L 138.617188 483.75 L 136.613281 484.394531 L 134.507813 484.320313 L 132.167969 484.859375 L 130.347656 487.066406 L 129.9375 487.152344 L 127.21875 488.511719 L 125.359375 490.175781 L 124.039063 490.597656 L 123.722656 491.894531 L 122.902344 492.9375 L 121.710938 495.457031 L 121.308594 497.429688 L 120.660156 497.648438 L 120.394531 498.183594 L 118.253906 498.183594 L 117.96875 497.691406 L 118.09375 496.4375 L 117.15625 494.691406 L 115.984375 493.691406 L 112.253906 492.070313 L 111.410156 491.984375 L 110.375 492.488281 L 110.242188 494.183594 L 110.007813 494.453125 L 108.527344 494.183594 L 105.644531 494.308594 L 105.441406 494.242188 L 105.628906 491.574219 L 106.074219 490.5625 L 106.886719 490.203125 L 107.890625 490.023438 L 109.898438 489.242188 L 111.746094 488.078125 L 112.199219 488.253906 L 112.445313 488.9375 L 113.574219 489.15625 L 118.144531 485.910156 L 121.425781 483.085938 L 124.375 479.769531 L 125.210938 477.886719 L 124.875 476.421875 L 125.640625 474.519531 L 128.386719 473.238281 L 132.105469 472.640625 L 132.679688 471.785156 L 133.257813 469.527344 L 135.859375 467.5625 L 138.636719 464.640625 L 138.761719 463.082031 L 138.960938 463.0625 L 141.289063 462.332031 L 143.414063 461.132813 L 145.242188 459.515625 L 146.691406 457.550781 L 147.738281 455.207031 L 148.082031 452.871094 L 148.429688 452.488281 L 148.339844 451.121094 L 148.425781 450.539063 L 148.292969 447.785156 L 148.542969 447.386719 L 151.105469 446.613281 L 157.421875 446.269531 L 159.910156 445.683594 L 164.597656 446.761719 L 166.046875 446.148438 L 167.527344 446.515625 L 169.484375 447.285156 L 169.96875 448.003906 L 166.304688 447.636719 L 163.800781 447.785156 L 161.523438 447.476563 L 159.230469 447.621094 L 157.011719 448.214844 L 154.949219 449.234375 L 153.132813 450.636719 L 150.773438 453.132813 L 149.539063 455.050781 L 148.699219 457.171875 L 147.765625 462.964844 L 148.039063 465.386719 L 148.757813 467.585938 L 150.050781 469.804688 L 151.796875 471.6875 L 153.800781 473.078125 L 156.175781 474.054688 L 159.21875 474.507813 L 162.152344 474.179688 L 165.132813 472.996094 L 167.675781 471.046875 L 170.621094 470.839844 L 173.421875 469.902344 L 175.496094 468.609375 L 177.253906 466.917969 L 178.621094 464.894531 L 179.53125 462.628906 L 179.980469 459.582031 L 179.578125 456.398438 L 178.332031 453.453125 L 176.339844 450.957031 L 173.964844 449.21875 L 172.019531 448.445313 L 173.15625 448.464844 L 180.570313 447.503906 L 181.109375 445.632813 L 181.210938 443.15625 L 182.519531 440.25 L 190.867188 432.195313 L 195.792969 425.3125 L 197.929688 424.472656 L 198.285156 423.78125 L 198.070313 423.238281 L 197.8125 423.082031 L 196.09375 424.355469 L 192.90625 427.300781 L 190.570313 429.988281 L 189.222656 431.449219 L 185.628906 432.957031 L 183.714844 433.246094 L 182.441406 433.0625 L 178.394531 435.230469 L 177.398438 436.808594 L 177.039063 438.671875 L 176.445313 439.273438 L 174.058594 439.917969 L 170.558594 439.851563 L 166.820313 439 L 166.347656 438.652344 L 165.085938 437.3125 L 168.039063 437.25 L 170.25 436.566406 L 172.175781 435.535156 L 173.964844 434.066406 L 175.429688 432.277344 L 178.597656 430.878906 L 181.296875 428.511719 L 183.046875 425.671875 L 183.917969 422.453125 L 183.898438 419.503906 L 183.183594 416.769531 L 183.183594 412.890625 L 185.429688 412.484375 L 187.550781 411.644531 L 189.367188 410.488281 L 190.9375 409.015625 L 194.191406 407.246094 L 196.722656 404.546875 L 198.277344 401.191406 L 198.710938 397.898438 L 198.175781 393.960938 L 196.605469 390.738281 L 194.226563 388.222656 L 190.972656 386.429688 L 187.0625 385.753906 L 183.515625 384.417969 L 180.484375 384.21875 L 177.386719 384.855469 L 180.261719 382.511719 L 182.253906 379.386719 L 183.046875 376.683594 L 183.839844 369.738281 L 183.183594 366.371094 L 181.648438 363.425781 L 179.238281 360.957031 L 176.332031 359.351563 L 173.855469 358.714844 L 170.054688 358.460938 L 157.75 358.695313 L 156.992188 358.941406 L 160.492188 357.457031 L 163.644531 357.28125 L 167.339844 357.714844 L 172.597656 355.179688 L 173.933594 355.046875 L 174.484375 355.082031 L 179.910156 359.441406 L 180.433594 358.429688 L 177.679688 353.460938 L 178.242188 352.835938 L 180.867188 352.449219 L 181.503906 352.695313 L 181.914063 353.875 L 182.898438 354.332031 L 184.078125 356.789063 L 185.613281 357.902344 Z M 229.707031 428.398438 L 227.582031 425.996094 L 224.882813 424.265625 L 221.808594 423.335938 L 218.730469 423.269531 L 216.222656 423.832031 L 213.902344 424.933594 L 211.878906 426.519531 L 210.324219 428.398438 L 208.019531 429.507813 L 206.011719 431.09375 L 204.46875 432.972656 L 203.351563 435.132813 L 202.6875 437.601563 L 202.570313 440.03125 L 199.84375 441.164063 L 197.488281 442.945313 L 195.660156 445.261719 L 194.433594 448.089844 L 193.996094 451.136719 L 194.375 454.195313 L 195.699219 457.667969 L 197.675781 460.339844 L 199.558594 461.882813 L 202.570313 463.292969 L 204.304688 464.8125 L 206.308594 465.957031 L 209.253906 466.832031 L 212.453125 466.890625 L 215.429688 466.121094 L 218.199219 464.523438 L 220.433594 462.230469 L 221.953125 459.414063 L 224.707031 459.550781 L 228.222656 458.976563 L 230.921875 457.796875 L 233.144531 456.070313 L 234.820313 453.96875 L 235.925781 451.65625 L 236.511719 449.035156 L 236.484375 446.347656 L 235.542969 443.023438 L 233.585938 440.03125 L 233.875 436.605469 L 233.152344 433.242188 L 231.707031 430.546875 Z M 232.917969 471.488281 L 231.683594 472.492188 L 230.4375 474.027344 L 229.960938 474.269531 L 229.171875 474.429688 L 227.933594 473.296875 L 225.746094 472.019531 L 222.558594 471.054688 L 222.296875 470.886719 L 222.09375 470.914063 L 220.773438 470.515625 L 221.476563 469.683594 L 227.316406 466.367188 L 232.550781 467.761719 L 234.171875 469.894531 Z M 209.742188 471.007813 L 209.597656 471 L 209.714844 470.9375 Z M 148.246094 432.238281 L 147.621094 431.332031 L 147.105469 430.816406 L 146.917969 429.308594 L 148.539063 428.378906 L 150.066406 428.890625 L 151.640625 428.421875 L 152.765625 427.832031 L 152.785156 427.789063 L 153.421875 429.167969 L 154.265625 430.179688 L 149.269531 432.308594 L 149.113281 432.746094 Z M 130.5625 428.398438 L 128.90625 428.398438 L 127.304688 426.363281 L 127.425781 426.082031 L 128.796875 425.832031 L 131.792969 424.328125 L 131.226563 422.867188 L 130.640625 424.257813 L 127.769531 424.613281 L 125 424.347656 L 124.621094 422.277344 L 124.425781 421.773438 L 125.167969 421.753906 L 125.464844 421.238281 L 124.929688 417.953125 L 123.328125 417.210938 L 121.46875 417.105469 L 121.453125 417.085938 L 121.683594 416.351563 L 123.324219 415.0625 L 123.925781 414.300781 L 125.933594 413.378906 L 126.074219 413.039063 L 127.179688 413.195313 L 129.347656 413.09375 L 131.460938 412.589844 L 133.441406 411.703125 L 138.46875 407.65625 L 139.335938 406.601563 L 141.359375 406.660156 L 142.21875 406.390625 L 146.335938 403.757813 L 145.992188 404.25 L 144.96875 406.886719 L 144.613281 409.5625 L 144.882813 412.246094 L 145.820313 414.914063 L 147.457031 417.375 L 149.660156 419.339844 L 152.167969 420.644531 L 151.867188 422.796875 L 151.988281 425.089844 L 152.359375 426.585938 L 147.785156 426.460938 L 143.210938 423.710938 L 139.503906 423.714844 L 136.765625 424.277344 L 136.292969 426.515625 L 135.777344 427.203125 L 133.742188 427.917969 L 132.394531 427.265625 L 131.648438 427.453125 Z M 154.464844 359.757813 L 153.746094 359.988281 L 150.464844 362.621094 L 148.898438 364.957031 L 147.90625 367.714844 L 147.632813 370.628906 L 148.097656 373.515625 L 148.132813 373.609375 L 145.449219 374.257813 L 143.757813 375.484375 L 142.050781 378.082031 L 136.660156 378 L 136.660156 377.304688 L 137.339844 376.066406 L 140.148438 373.019531 L 141.023438 372.414063 L 142.589844 371.953125 L 147.132813 367.984375 L 147.953125 364.523438 L 151.550781 360.582031 L 153.09375 359.609375 Z M 154.136719 381.019531 L 156.046875 381.875 L 153.910156 384.214844 L 152.644531 386.691406 L 152.566406 386.542969 L 153.179688 384.597656 L 154.652344 381.796875 Z M 140.539063 357.78125 L 140.539063 355.167969 L 140.597656 355.164063 L 141.484375 356.3125 L 142.226563 358.1875 L 141.734375 358.875 L 141.003906 358.070313 Z M 142.164063 354.453125 L 142.660156 354.363281 L 144.789063 353.550781 L 146.71875 352.335938 L 147.667969 351.445313 L 149.566406 352.007813 L 151.039063 355.578125 L 155.546875 356.503906 L 154.066406 358.859375 L 150.984375 360.816406 L 147.425781 363.976563 L 146.109375 363.875 L 144.195313 361.613281 L 142.050781 357.363281 Z M 189.042969 259.257813 L 190.128906 256.925781 L 190.679688 254.417969 L 190.664063 251.847656 L 190.082031 249.339844 L 189.035156 247.136719 L 187.460938 245.105469 L 185.476563 243.46875 L 184.003906 242.722656 L 186.398438 241.730469 L 187.519531 239.417969 L 188.617188 238.355469 L 189.460938 238.1875 L 191.363281 240.382813 L 194.816406 242.308594 L 195.1875 244.429688 L 196.003906 246.558594 L 197.21875 248.488281 L 198.691406 250.0625 L 196.226563 251.132813 L 194.074219 252.742188 L 192.140625 255.128906 L 190.9375 257.816406 Z M 185.796875 232.050781 L 185.4375 230.441406 L 183.839844 227.527344 L 181.480469 225.183594 L 180.722656 224.769531 L 181.566406 224.359375 L 182.910156 225.113281 L 184.886719 226.929688 L 187.019531 230.554688 L 187.179688 232.148438 L 187.070313 232.078125 Z M 179.335938 224.007813 L 178.675781 223.648438 L 175.429688 222.921875 L 177.984375 223.058594 L 179.855469 223.597656 Z M 139.3125 321.507813 L 140.539063 319.847656 L 143.425781 319.96875 L 141.238281 320.566406 Z M 286.679688 439.636719 L 283.058594 438.976563 L 282.164063 437.605469 L 282.484375 436.070313 L 286.839844 437.054688 L 287.960938 438.832031 Z M 236.835938 466.113281 L 235.136719 465.644531 L 236.523438 463.683594 L 237.195313 464.164063 L 237.5 465.839844 Z M 88.429688 500.046875 L 88.566406 499.308594 L 88.941406 499.117188 L 89.34375 499.789063 Z M 88.429688 500.046875 "/>
</g>
</svg>
