<?xml version="1.0" encoding="UTF-8"?>
<svg xmlns="http://www.w3.org/2000/svg" xmlns:xlink="http://www.w3.org/1999/xlink" width="378pt" height="504pt" viewBox="0 0 378 504" version="1.1">
<g id="data">
<rect x="0" y="0" width="378" height="504" style="fill:rgb(100%,100%,100%);fill-opacity:1;stroke:none;"/>
<path style=" stroke:none;fill-rule:nonzero;fill:rgb(100%,100%,100%);fill-opacity:1;" d="M 53.308594 504 L 324.691406 504 L 324.691406 0 L 53.308594 0 Z M 53.308594 504 "/>
<path style=" stroke:none;fill-rule:nonzero;fill:rgb(22.745098%,53.333333%,16.078431%);fill-opacity:1;" d="M 212.910156 174.011719 L 212.210938 174.816406 L 210.882813 177.546875 L 210.199219 181.273438 L 210.246094 182.339844 L 209.382813 183.425781 L 207.15625 188.339844 L 206.980469 189.367188 L 206.820313 189.785156 L 206.445313 191.90625 L 203.84375 194.070313 L 200.796875 197.621094 L 199.527344 199.6875 L 198.773438 201.722656 L 198.410156 203.859375 L 198.578125 208.296875 L 197.078125 210.023438 L 197.433594 210.839844 L 197.785156 210.703125 L 197.761719 211.238281 L 197.441406 212.277344 L 196.878906 212.722656 L 195.382813 214.484375 L 194.3125 216.390625 L 193.957031 217.484375 L 191.214844 219.742188 L 185.519531 221.085938 L 182.847656 221.226563 L 178.683594 224.523438 L 177.507813 221.644531 L 175.429688 219.046875 L 177.53125 219.996094 L 179.902344 220.527344 L 182.207031 220.566406 L 184.472656 220.148438 L 189.902344 217.582031 L 191.816406 215.886719 L 193.253906 213.925781 L 194.433594 211.097656 L 194.816406 207.414063 L 195.84375 205.070313 L 196.332031 202.558594 L 196.078125 198.992188 L 194.816406 195.785156 L 197.867188 195.378906 L 200.703125 194.183594 L 203.128906 192.285156 L 204.910156 189.933594 L 206.070313 187.082031 L 206.445313 184.152344 L 208.875 181.371094 L 210.277344 178.09375 L 210.636719 175.3125 L 210.332031 168.875 L 212.550781 172.800781 Z M 198.699219 242.320313 L 199.9375 244.828125 L 201.851563 247.0625 L 203.699219 248.433594 L 205.785156 249.414063 L 208.023438 249.964844 L 208.167969 249.96875 L 208.910156 251.429688 L 212.824219 256.707031 L 213.265625 256.828125 L 213.433594 256.585938 L 214.601563 257.097656 L 217.371094 258.992188 L 218.023438 261.042969 L 217.914063 267.695313 L 218.355469 271.199219 L 219.691406 274.476563 L 219.773438 274.574219 L 220.40625 277.574219 L 221.269531 280.457031 L 222.984375 284.039063 L 223.773438 285.027344 L 225.945313 294.183594 L 229.304688 299.0625 L 229.707031 299.25 L 229.707031 300.460938 L 228.785156 303.257813 L 228.601563 306.324219 L 229.273438 309.453125 L 230.847656 312.386719 L 233.605469 315.050781 L 236.953125 316.640625 L 240.890625 317.085938 L 243.042969 316.753906 L 245.214844 315.96875 L 249.09375 315.96875 L 250.664063 317.441406 L 251.085938 317.707031 L 252.390625 319.148438 L 256.121094 320.875 L 256.847656 321.4375 L 256.847656 321.921875 L 254.738281 323.09375 L 253.890625 324.554688 L 253.765625 325.996094 L 254.984375 329.992188 L 255.484375 331.039063 L 255.929688 333.050781 L 256.863281 335.164063 L 258.199219 337.054688 L 260.722656 339.230469 L 262.699219 341.664063 L 262.789063 341.730469 L 263.316406 342.46875 L 263.640625 343.980469 L 262.804688 345.191406 L 263.28125 343.65625 L 262.507813 342.839844 L 260.445313 342 L 258.378906 342.789063 L 257.507813 342.753906 L 256.035156 341.773438 L 253.664063 338.65625 L 252.601563 338.082031 L 245.550781 339.511719 L 244.589844 338.644531 L 243.40625 338.558594 L 241.210938 339.871094 L 241.886719 340.445313 L 246.324219 340.394531 L 249.617188 339.34375 L 251.976563 339.082031 L 254.382813 342.558594 L 260.535156 347.621094 L 261.738281 348.3125 L 259.355469 350.308594 L 257.613281 352.835938 L 256.519531 355.835938 L 256.183594 358.488281 L 256.460938 361.144531 L 257.453125 364.1875 L 258.832031 366.503906 L 260.414063 368.191406 L 262.410156 369.597656 L 263.9375 370.257813 L 261.394531 373.164063 L 260.601563 374.816406 L 262.84375 374.3125 L 264.9375 375.519531 L 266.9375 378.226563 L 270.21875 378.804688 L 270.625 378.746094 L 271.910156 376.796875 L 272.234375 374.960938 L 273.40625 371.914063 L 274.707031 370.632813 L 276.925781 370.246094 L 283.363281 370.246094 L 284.253906 370.867188 L 286.703125 370.742188 L 293.949219 371.515625 L 296.914063 372.84375 L 300.621094 375.558594 L 301.199219 376.292969 L 303.371094 378 L 305.4375 380.519531 L 305.53125 380.585938 L 306.730469 384.164063 L 306.851563 386.058594 L 305.253906 387.285156 L 303.371094 389.628906 L 300.761719 391.90625 L 299.449219 393.808594 L 298.5 396.054688 L 298.0625 398.195313 L 298.035156 400.378906 L 298.488281 402.777344 L 299.492188 405.136719 L 299.492188 409.015625 L 297.503906 411.308594 L 296.464844 413.4375 L 295.578125 412.011719 L 292.742188 410.515625 L 292.480469 410.636719 L 293.898438 413.703125 L 295.738281 416.40625 L 295.492188 417.765625 L 295.527344 418.570313 L 294.574219 419.804688 L 292.191406 421.289063 L 290.003906 421.65625 L 289.660156 421.574219 L 288.214844 419.332031 L 284.976563 421.730469 L 280.71875 424.230469 L 282.339844 425.378906 L 285.105469 424.398438 L 286.097656 423.375 L 286.894531 423.164063 L 287.328125 423.710938 L 287.632813 428.84375 L 285.6875 430.875 L 283.441406 432.558594 L 282.84375 432.699219 L 279.644531 432.160156 L 274.75 433.78125 L 272.609375 436.117188 L 274.253906 436.015625 L 275.152344 434.667969 L 276.683594 434.363281 L 278.285156 434.328125 L 281.054688 434.949219 L 281.828125 435.589844 L 281.691406 436.328125 L 279.554688 436.347656 L 277.390625 437.65625 L 277.96875 438.546875 L 281.382813 438.964844 L 286.863281 440.339844 L 289.394531 439.9375 L 291.074219 438.957031 L 299.492188 437.792969 L 299.492188 447.785156 L 298.21875 449.5 L 297.917969 449.777344 L 296.972656 450.242188 L 295.839844 450.375 L 292.621094 451.640625 L 291.179688 452.742188 L 289.847656 454.226563 L 289.460938 455.09375 L 289.214844 456.324219 L 289.242188 456.503906 L 289.066406 456.730469 L 288.492188 458.007813 L 286.253906 458.289063 L 284.1875 457.9375 L 282.941406 459.113281 L 281.886719 458.804688 L 279.710938 458.597656 L 277.535156 458.800781 L 275.4375 459.40625 L 273.058594 460.679688 L 271.039063 462.464844 L 269.484375 464.667969 L 268.695313 466.628906 L 267.839844 466.367188 L 266.957031 465.261719 L 264.960938 463.644531 L 262.664063 462.503906 L 260.296875 461.910156 L 256.457031 462.011719 L 252.96875 463.292969 L 246.964844 463.132813 L 242.28125 463.5 L 239.265625 464.546875 L 239.144531 464.632813 L 237.714844 463.296875 L 231.496094 463.171875 L 231.378906 463.496094 L 232.574219 464.835938 L 232.214844 465.75 L 231.738281 466.042969 L 226.691406 465.496094 L 219.566406 468.449219 L 217.054688 467.824219 L 210.222656 468.96875 L 208.164063 468.875 L 207.273438 468.058594 L 206.238281 469.769531 L 209.429688 471.089844 L 209.714844 470.9375 L 210.1875 472.128906 L 209.566406 473.890625 L 207.179688 474.382813 L 206.523438 474.269531 L 204.453125 473.097656 L 203.015625 472.699219 L 197.625 472.007813 L 196.175781 472.65625 L 195.679688 473.863281 L 195.832031 474.871094 L 195.90625 474.921875 L 195.351563 474.921875 L 194.851563 473.972656 L 190.289063 470.589844 L 185.898438 468.519531 L 183.121094 467.984375 L 181.648438 469.066406 L 176.207031 469.78125 L 174.339844 470.335938 L 168.992188 473.234375 L 168.214844 474.070313 L 167.203125 476.179688 L 162.746094 489.226563 L 160.929688 490.242188 L 159.375 489.9375 L 157.941406 488.65625 L 157.171875 488.238281 L 156.527344 486.851563 L 154.683594 485.4375 L 153.613281 485.542969 L 152.417969 486.300781 L 151.738281 486.164063 L 148.46875 482.535156 L 142.796875 482.960938 L 141.527344 483.375 L 141.269531 483.636719 L 141.050781 483.601563 L 138.617188 483.75 L 136.644531 484.394531 L 134.507813 484.320313 L 132.167969 484.859375 L 129.414063 488.195313 L 126.714844 489.746094 L 124.039063 490.597656 L 123.132813 494.289063 L 123.664063 495.292969 L 123.640625 495.398438 L 122.859375 496.015625 L 121.910156 497.222656 L 120.660156 497.648438 L 120.394531 498.183594 L 118.253906 498.183594 L 117.96875 497.691406 L 118.09375 496.4375 L 117.15625 494.691406 L 115.984375 493.691406 L 112.253906 492.070313 L 111.410156 491.984375 L 110.375 492.488281 L 110.242188 494.183594 L 110.007813 494.453125 L 108.527344 494.183594 L 105.644531 494.308594 L 105.441406 494.242188 L 105.628906 491.574219 L 106.074219 490.5625 L 106.886719 490.203125 L 107.890625 490.023438 L 110.011719 489.183594 L 111.746094 488.078125 L 112.199219 488.253906 L 112.445313 488.9375 L 113.574219 489.15625 L 118.144531 485.910156 L 121.425781 483.085938 L 124.375 479.769531 L 125.210938 477.886719 L 124.875 476.421875 L 125.640625 474.519531 L 128.386719 473.238281 L 132.105469 472.640625 L 132.679688 471.785156 L 133.257813 469.527344 L 135.859375 467.5625 L 138.636719 464.640625 L 138.890625 461.511719 L 140.539063 459.414063 L 143.058594 458.167969 L 145.207031 456.351563 L 146.550781 454.558594 L 148.429688 452.488281 L 148.230469 449.445313 L 148.292969 447.785156 L 148.449219 447.414063 L 151.105469 446.613281 L 157.421875 446.269531 L 159.910156 445.683594 L 164.597656 446.761719 L 166.046875 446.148438 L 167.527344 446.515625 L 169.484375 447.285156 L 170.039063 448.109375 L 170.757813 448.421875 L 173.15625 448.464844 L 180.570313 447.503906 L 181.109375 445.632813 L 181.210938 443.15625 L 182.519531 440.25 L 190.867188 432.195313 L 195.792969 425.3125 L 197.929688 424.472656 L 198.285156 423.78125 L 198.070313 423.238281 L 197.8125 423.082031 L 196.09375 424.355469 L 192.90625 427.300781 L 190.570313 429.988281 L 189.222656 431.449219 L 185.628906 432.957031 L 183.714844 433.246094 L 182.441406 433.0625 L 178.394531 435.230469 L 177.398438 436.808594 L 177.039063 438.671875 L 176.445313 439.273438 L 174.058594 439.917969 L 170.558594 439.851563 L 166.820313 439 L 166.347656 438.652344 L 161.371094 433.375 L 159.03125 429.199219 L 155.65625 429.589844 L 149.269531 432.308594 L 149.113281 432.746094 L 147.203125 431.632813 L 146.917969 429.308594 L 148.539063 428.378906 L 150.066406 428.890625 L 151.640625 428.421875 L 152.765625 427.832031 L 153.085938 427.097656 L 152.808594 426.597656 L 147.785156 426.460938 L 143.210938 423.710938 L 139.503906 423.714844 L 136.765625 424.277344 L 136.292969 426.515625 L 135.777344 427.203125 L 134.015625 427.820313 L 133.804688 427.78125 L 133.46875 427.785156 L 132.394531 427.265625 L 131.648438 427.453125 L 131.171875 427.871094 L 128.90625 428.398438 L 127.15625 428.398438 L 126.53125 428.132813 L 127.425781 426.082031 L 128.796875 425.832031 L 131.792969 424.328125 L 131.226563 422.867188 L 130.640625 424.257813 L 127.769531 424.613281 L 124.941406 424.34375 L 124.472656 421.792969 L 124.460938 421.773438 L 125.167969 421.753906 L 125.464844 421.238281 L 124.929688 417.953125 L 123.328125 417.210938 L 121.445313 417.105469 L 121.683594 416.351563 L 123.324219 415.0625 L 123.925781 414.300781 L 125.933594 413.378906 L 126.246094 412.617188 L 128.238281 412.164063 L 129.113281 411.683594 L 133.074219 411.34375 L 134.871094 409.289063 L 135.753906 407.632813 L 137.585938 406.550781 L 141.359375 406.660156 L 142.21875 406.390625 L 146.074219 403.925781 L 146.03125 403.988281 L 145.054688 406.046875 L 143.769531 412.15625 L 144.226563 416.230469 L 146.070313 419.890625 L 148.433594 422.246094 L 151.367188 423.832031 L 153.605469 424.40625 L 156.046875 424.523438 L 158.464844 426.199219 L 161.226563 427.21875 L 163.640625 427.511719 L 166.0625 427.300781 L 169.871094 425.824219 L 173.015625 423.023438 L 174.300781 420.957031 L 175.15625 418.542969 L 175.578125 415.394531 L 175.429688 412.890625 L 178.15625 411.761719 L 180.511719 409.980469 L 182.339844 407.660156 L 183.566406 404.835938 L 183.976563 402.429688 L 183.863281 399.863281 L 182.980469 396.777344 L 181.914063 394.589844 L 180.324219 392.582031 L 178.441406 391.039063 L 176.277344 389.925781 L 173.707031 389.167969 L 170.027344 389.066406 L 164.234375 390.453125 L 161.902344 391.730469 L 159.921875 393.507813 L 157.316406 394.027344 L 154.894531 395.125 L 152.773438 396.808594 L 153.054688 396.195313 L 154.199219 391.746094 L 153.734375 388.820313 L 152.566406 386.542969 L 153.179688 384.597656 L 154.652344 381.796875 L 152.269531 378.203125 L 152.683594 374.835938 L 153.175781 374.082031 L 152.804688 373.207031 L 150.203125 373.105469 L 145.449219 374.257813 L 143.757813 375.484375 L 142.039063 378.097656 L 141.949219 378.105469 L 141.824219 378.070313 L 136.660156 378 L 136.660156 377.304688 L 137.339844 376.066406 L 140.148438 373.019531 L 141.023438 372.414063 L 142.589844 371.953125 L 147.132813 367.984375 L 147.953125 364.523438 L 151.550781 360.582031 L 153.09375 359.609375 L 154.941406 359.808594 L 160.492188 357.457031 L 163.644531 357.28125 L 167.339844 357.714844 L 172.597656 355.179688 L 173.933594 355.046875 L 174.484375 355.082031 L 179.910156 359.441406 L 180.433594 358.429688 L 177.679688 353.460938 L 178.242188 352.835938 L 180.867188 352.449219 L 181.503906 352.695313 L 181.914063 353.875 L 182.898438 354.332031 L 184.078125 356.789063 L 185.613281 357.902344 L 188.359375 357.621094 L 190.335938 355.148438 L 189.90625 355.050781 L 188.667969 355.527344 L 188.3125 355.957031 L 186.378906 356.386719 L 183.8125 354.640625 L 179.976563 346.332031 L 183.371094 340.257813 L 185.429688 339.015625 L 185.140625 338.578125 L 182.683594 338.460938 L 182.488281 338.234375 L 183.273438 334.730469 L 183.183594 331.476563 L 185.445313 328.753906 L 186.75 325.597656 L 186.957031 324.144531 L 187.28125 323.421875 L 187.71875 320.933594 L 187.742188 320.382813 L 189.769531 321.988281 L 192.988281 323.242188 L 196.433594 323.492188 L 199.679688 322.769531 L 202.28125 321.382813 L 204.363281 319.488281 L 206.445313 315.96875 L 208.503906 313.570313 L 209.683594 311.183594 L 210.324219 308.214844 L 211.464844 305.355469 L 211.816406 302.683594 L 211.351563 299.253906 L 209.902344 296.113281 L 208.351563 294.230469 L 206.445313 292.707031 L 204.832031 289.660156 L 202.398438 287.21875 L 198.742188 285.402344 L 194.816406 284.953125 L 195.078125 281.144531 L 194.140625 277.574219 L 192.785156 275.261719 L 189.746094 271.703125 L 187.0625 269.445313 L 187.164063 266.316406 L 186.332031 262.363281 L 184.960938 259.796875 L 182.078125 256.289063 L 177.117188 252.019531 L 174.402344 250.660156 L 171.554688 250.0625 L 169.203125 247.390625 L 166.035156 245.507813 L 167.917969 244.1875 L 169.503906 242.523438 L 170.710938 240.617188 L 178.0625 241.875 L 182.921875 243.167969 L 186.398438 241.730469 L 187.519531 239.417969 L 188.617188 238.355469 L 189.539063 238.171875 L 193.183594 238.5 Z M 198.691406 343.109375 L 198.113281 345.585938 L 198.082031 348.128906 L 198.570313 350.5 L 199.601563 352.835938 L 201.035156 354.800781 L 202.949219 356.5 L 205.1875 357.738281 L 207.640625 358.457031 L 214.582031 359.273438 L 218.078125 358.617188 L 222.457031 358.5625 L 225.160156 357.886719 L 227.832031 356.441406 L 230.042969 354.351563 L 231.613281 351.859375 L 232.53125 348.929688 L 232.648438 345.863281 L 231.960938 342.871094 L 230.511719 340.164063 L 228.40625 337.929688 L 226.253906 336.539063 L 223.851563 335.65625 L 220.582031 335.203125 L 218.078125 335.355469 L 215.417969 333.566406 L 212.242188 332.550781 L 209.808594 332.402344 L 207.523438 332.734375 L 205.230469 333.566406 L 203.160156 334.859375 L 201.417969 336.53125 L 200.058594 338.519531 L 199.136719 340.742188 Z M 237.488281 465.773438 L 237.242188 465.945313 L 236.835938 466.113281 L 235.136719 465.644531 L 236.523438 463.683594 L 237.195313 464.164063 Z M 234.167969 469.886719 L 234.140625 469.9375 L 232.75 471.703125 L 231.414063 472.753906 L 230.398438 474.046875 L 229.960938 474.269531 L 228.117188 474.644531 L 222.296875 470.886719 L 220.207031 471.1875 L 221.476563 469.683594 L 227.316406 466.367188 L 232.550781 467.761719 Z M 140.539063 357.78125 L 140.539063 355.167969 L 140.597656 355.164063 L 141.484375 356.3125 L 142.226563 358.1875 L 141.734375 358.875 L 141.003906 358.070313 Z M 142.203125 353.429688 L 142.707031 353.03125 L 143.882813 351.535156 L 144.664063 351.183594 L 146.003906 350.957031 L 149.410156 351.960938 L 149.640625 352.191406 L 151.039063 355.578125 L 155.546875 356.503906 L 154.066406 358.859375 L 150.984375 360.816406 L 147.425781 363.976563 L 146.109375 363.875 L 144.195313 361.613281 L 142.050781 357.363281 Z M 171.464844 238.664063 L 171.554688 238.429688 L 174.054688 237.132813 L 176.167969 235.269531 L 177.460938 233.511719 L 178.441406 231.425781 L 179.09375 228.164063 L 178.839844 225.496094 L 179.84375 225.195313 L 184.609375 222.886719 L 186.457031 221.386719 L 187.289063 221.316406 L 189.085938 221.875 L 189.332031 222.921875 L 188.898438 224.691406 L 189.238281 225.953125 L 190.898438 226.824219 L 192.988281 227.191406 L 194.445313 228.726563 L 194.429688 229.304688 L 192.117188 231.570313 L 189.460938 232.730469 L 188.34375 232.882813 L 187.070313 232.078125 L 185.40625 232.042969 L 181.046875 235.800781 L 180.578125 237.003906 L 174.761719 240.109375 Z M 224.414063 73.800781 L 224.125 73.429688 L 222.058594 71.804688 L 222.242188 71.039063 L 223.089844 69.011719 L 223.253906 67.832031 L 223.429688 67.644531 L 224.308594 63.570313 L 223.859375 59.703125 L 224.789063 59.515625 L 226.164063 58.839844 L 227.246094 61.769531 L 226.800781 62.460938 L 226.285156 62.238281 L 225.40625 63.738281 L 225.265625 67.207031 Z M 221.96875 60.128906 L 221.953125 60.09375 L 222.023438 60.078125 Z M 183.183594 168.644531 L 183.183594 172.523438 L 181.015625 174.230469 L 179.308594 176.398438 L 177.316406 177.929688 L 175.429688 180.277344 L 173.625 181.636719 L 171.554688 184.152344 L 169.207031 186.039063 L 167.675781 188.03125 L 163.800781 188.03125 L 161.953125 184.679688 L 159.226563 182.175781 L 155.851563 180.65625 L 152.167969 180.277344 L 152.167969 176.398438 L 154.289063 176.027344 L 156.421875 175.210938 L 156.433594 175.203125 L 156.367188 175.339844 L 156.707031 175.816406 L 157.367188 175.984375 L 158.261719 175.542969 L 161.140625 173.015625 L 167.808594 170.273438 L 170.480469 169.527344 L 170.492188 169.949219 L 171.554688 169.839844 L 173.589844 168.316406 L 174.046875 166.78125 L 178.648438 166.167969 L 179.285156 167.089844 L 180.148438 167.667969 Z M 165.628906 287.363281 L 167.675781 284.953125 L 167.675781 288.832031 Z M 107.472656 223.890625 L 108.6875 225.234375 L 109.414063 225.6875 L 106.027344 226.585938 L 104.691406 226.273438 L 103.734375 224.277344 L 103.851563 223.371094 L 104.191406 223.09375 L 105.628906 223.050781 L 106.039063 223.617188 L 106.972656 224.074219 Z M 121.132813 226.808594 L 121.152344 226.800781 L 121.132813 226.828125 Z M 118.933594 230.632813 L 118.550781 231.605469 L 118.542969 231.664063 L 118.503906 231.671875 L 118.15625 231.449219 L 118.535156 230.824219 Z M 118.425781 232.511719 L 118.164063 234.394531 L 118.265625 235.417969 L 118.015625 235.730469 L 113.761719 243.328125 L 113.210938 244.492188 L 112.152344 243.625 L 110.238281 242.585938 L 109.519531 242.355469 L 109.585938 242.089844 L 112.5625 237.15625 L 116.605469 233.660156 Z M 120.179688 241 L 120.816406 241.984375 L 122.859375 243.925781 L 125.1875 245.269531 L 125.914063 245.445313 L 126.1875 249.699219 L 124.449219 251.558594 L 123.367188 254.191406 L 121.183594 263.964844 L 122.0625 266.289063 L 120.679688 268.164063 L 119.945313 268.597656 L 117.519531 268.84375 L 118.511719 266.363281 L 118.820313 263.054688 L 118.378906 260.40625 L 117.691406 258.785156 L 117.992188 256.269531 L 120.664063 249.058594 L 119.164063 246.890625 L 119.359375 242.367188 Z M 131.984375 247.355469 L 132.140625 247.414063 L 134.996094 247.535156 L 135.339844 249.003906 L 135.222656 250.96875 L 134.8125 251.347656 L 132.589844 248.835938 Z M 138.066406 247.117188 L 138.480469 247.019531 L 140.792969 245.902344 L 142.804688 244.304688 L 144.058594 242.75 L 146.15625 243.175781 L 148.300781 243.253906 L 145.921875 242.308594 L 148.292969 242.308594 L 149.863281 243.78125 L 151.792969 244.996094 L 153.800781 245.777344 L 156.046875 246.183594 L 153.117188 246.558594 L 150.492188 247.597656 L 148.097656 249.324219 L 146.285156 251.488281 L 145.136719 253.785156 L 144.519531 256.277344 L 144.253906 259.566406 L 144.300781 261.304688 L 144.195313 260.621094 L 142.601563 256.71875 L 139.777344 254.832031 L 137.378906 252.511719 Z M 144.320313 262.066406 L 144.414063 265.570313 L 142.070313 267.457031 L 139.28125 270.910156 L 138.066406 273.023438 L 137.320313 275.347656 L 137.09375 278.417969 L 137.640625 281.316406 L 138.902344 283.984375 L 140.886719 286.339844 L 143.304688 288.027344 L 146.195313 289.085938 L 148.066406 289.242188 L 148.375 290.554688 L 148.601563 291.011719 L 146.21875 293.824219 L 145.597656 295.496094 L 144.601563 294.238281 L 144.507813 293.621094 L 143.632813 292.355469 L 141.613281 291.4375 L 140.164063 290.433594 L 138.398438 288.636719 L 137.464844 288.296875 L 135.511719 289.683594 L 134.605469 291.238281 L 135.171875 292.980469 L 133.542969 292.792969 L 133.472656 292.679688 L 132.796875 291.90625 L 132.945313 282.953125 L 132.746094 280.429688 L 132.777344 280.410156 L 134.003906 276.632813 L 137.757813 273.035156 L 138.601563 268.871094 L 140.917969 265.085938 L 143.644531 263.800781 Z M 149.976563 289.21875 L 152.167969 288.832031 L 150.652344 289.714844 L 149.984375 289.230469 Z M 108.59375 242.054688 L 108.175781 241.921875 L 106.511719 241.710938 L 106.871094 241.457031 L 108.433594 240.808594 L 108.667969 241.335938 Z M 112.261719 189.085938 L 113.398438 188.03125 L 112.730469 189.535156 Z M 110.582031 205.257813 L 109.179688 206.210938 L 109.304688 205.488281 Z M 109.503906 199.960938 L 109.308594 198.503906 L 110.578125 197.179688 L 111.398438 197.769531 L 111.5 198.265625 L 111.128906 199.855469 L 110.160156 200.433594 Z M 108.21875 195.421875 L 107.839844 194.523438 L 105.984375 192.308594 L 106.722656 192.214844 L 107.992188 192.835938 L 108.445313 193.703125 Z M 82.894531 168.261719 L 84.191406 167.289063 L 86.261719 164.769531 L 86.363281 164.695313 L 86.457031 164.699219 L 86.671875 164.46875 L 87.621094 163.765625 L 87.839844 163.707031 L 86.980469 165.460938 L 86.410156 167.523438 L 86.101563 170.269531 L 86.171875 171.273438 L 84.875 171.125 L 84.914063 169.441406 L 82.996094 168.253906 Z M 86.253906 172.421875 L 86.261719 172.523438 L 84.191406 174.765625 L 83.976563 175.183594 L 83.046875 174.507813 L 82.722656 173.699219 L 82.824219 172.589844 L 83.972656 171.789063 Z M 83.722656 175.671875 L 82.734375 177.585938 L 82.382813 176.398438 L 82.382813 176.058594 L 83.4375 175.515625 Z M 82.382813 188.03125 L 82.238281 188.191406 L 82.128906 188.101563 L 81.921875 187.375 L 81.792969 186.523438 L 82.261719 185.140625 Z M 80.03125 190.792969 L 78.808594 193.234375 L 78.492188 194.929688 L 78.007813 194.816406 L 78.179688 193.175781 Z M 286.679688 439.636719 L 283.058594 438.976563 L 282.164063 437.605469 L 282.484375 436.070313 L 286.839844 437.054688 L 287.960938 438.832031 Z M 88.429688 500.046875 L 88.566406 499.308594 L 88.941406 499.117188 L 89.34375 499.789063 Z M 102.664063 224.511719 L 102.054688 224.097656 L 102.589844 223.230469 L 103.304688 222.808594 L 103.460938 223.023438 Z M 106.976563 236.632813 L 105.476563 236.191406 L 106.28125 234.464844 L 107.839844 232.910156 L 108.882813 232.734375 L 107.535156 236.1875 Z M 130.613281 263.773438 L 129.152344 263.667969 L 126.582031 261.613281 L 125.375 256.128906 L 125.988281 253.21875 L 128.179688 251.246094 L 129.539063 251.441406 L 131.390625 253.015625 L 132.984375 258.382813 L 133.019531 262.765625 L 132.308594 263.453125 Z M 130.613281 263.773438 "/>
</g>
</svg>
