<?xml version="1.0" encoding="UTF-8"?>
<svg xmlns="http://www.w3.org/2000/svg" xmlns:xlink="http://www.w3.org/1999/xlink" width="378pt" height="504pt" viewBox="0 0 378 504" version="1.1">
<g id="data">
<rect x="0" y="0" width="378" height="504" style="fill:rgb(100%,100%,100%);fill-opacity:1;stroke:none;"/>
<path style=" stroke:none;fill-rule:nonzero;fill:rgb(100%,100%,100%);fill-opacity:1;" d="M 53.308594 504 L 324.691406 504 L 324.691406 0 L 53.308594 0 Z M 53.308594 504 "/>
<path style=" stroke:none;fill-rule:nonzero;fill:rgb(22.745098%,53.333333%,16.078431%);fill-opacity:1;" d="M 139.515625 423.714844 L 138.816406 422.222656 L 138.609375 420.347656 L 139.007813 418.507813 L 139.976563 416.890625 L 141.414063 415.667969 L 143.164063 414.96875 L 146.351563 414.265625 L 148.300781 414.171875 L 150.171875 414.726563 L 151.753906 415.871094 L 152.441406 416.574219 L 153.492188 418.039063 L 154.519531 420.09375 L 155.113281 420.816406 L 156.125 421.640625 L 157.945313 422.53125 L 158.414063 422.859375 L 159.457031 422.601563 L 161.863281 422.410156 L 163.28125 421.890625 L 164.523438 421.003906 L 165.503906 419.8125 L 166.105469 418.496094 L 166.367188 416.988281 L 166.289063 415.6875 L 165.539063 412.277344 L 165.046875 411.085938 L 164.234375 409.898438 L 161.898438 407.253906 L 160.378906 406.207031 L 159.117188 405.761719 L 157.722656 405.628906 L 156.339844 405.832031 L 154.386719 406.636719 L 152.6875 407.054688 L 150.945313 406.945313 L 149.3125 406.324219 L 147.933594 405.246094 L 146.941406 403.808594 L 146.828125 403.445313 L 149.359375 401.828125 L 152.136719 398.207031 L 153.054688 396.195313 L 154.199219 391.746094 L 153.734375 388.820313 L 153.46875 388.300781 L 153.5 388.277344 L 155.242188 387.746094 L 157.0625 387.78125 L 158.785156 388.378906 L 160.238281 389.476563 L 161.277344 390.96875 L 161.992188 392.4375 L 162.628906 393.296875 L 163.5 394.089844 L 164.414063 394.644531 L 165.433594 395.023438 L 166.5 395.207031 L 167.585938 395.1875 L 168.554688 394.988281 L 169.957031 394.347656 L 171.746094 392.882813 L 172.976563 392.113281 L 174.359375 391.667969 L 176.128906 391.335938 L 177.042969 390.957031 L 179.570313 388.953125 L 180.953125 388.136719 L 182.546875 387.476563 L 183.296875 386.972656 L 184.882813 385.078125 L 186.550781 380.953125 L 186.652344 380.097656 L 186.597656 379.277344 L 185.460938 376.070313 L 185.207031 375.117188 L 184.699219 372.164063 L 183.828125 370.585938 L 182.445313 369.308594 L 181.015625 368.628906 L 178.441406 368.242188 L 177 367.832031 L 175.140625 367.027344 L 174.019531 366.820313 L 172.203125 366.960938 L 169.804688 367.902344 L 167.675781 368.308594 L 159.921875 368.308594 L 158.195313 368.046875 L 156.625 367.28125 L 155.351563 366.085938 L 154.074219 364.464844 L 152.453125 363.1875 L 151.257813 361.914063 L 150.9375 361.257813 L 151.550781 360.582031 L 153.09375 359.609375 L 154.941406 359.808594 L 160.492188 357.457031 L 163.644531 357.28125 L 167.339844 357.714844 L 172.597656 355.179688 L 173.933594 355.046875 L 174.484375 355.082031 L 179.910156 359.441406 L 180.433594 358.429688 L 177.679688 353.460938 L 178.242188 352.835938 L 180.867188 352.449219 L 181.503906 352.695313 L 181.914063 353.875 L 182.898438 354.332031 L 184.078125 356.789063 L 185.613281 357.902344 L 188.359375 357.621094 L 190.335938 355.148438 L 189.90625 355.050781 L 188.667969 355.527344 L 188.3125 355.957031 L 186.378906 356.386719 L 183.8125 354.640625 L 179.976563 346.332031 L 183.371094 340.257813 L 185.429688 339.015625 L 185.140625 338.578125 L 182.683594 338.460938 L 181.554688 337.164063 L 181.355469 336.117188 L 181.601563 331.078125 L 181.949219 330.421875 L 184.695313 329.191406 L 187.28125 323.421875 L 187.71875 320.933594 L 187.855469 317.484375 L 184.742188 320.527344 L 179.199219 323.441406 L 177.335938 322.691406 L 172.851563 314.925781 L 172.289063 311.832031 L 171.058594 310.023438 L 171.226563 309.890625 L 172.871094 309.285156 L 174.625 309.191406 L 176.324219 309.628906 L 177.8125 310.550781 L 180.839844 313.125 L 181.914063 313.746094 L 183.804688 314.242188 L 186.664063 314.042969 L 188.8125 314.300781 L 190.71875 315.324219 L 192.578125 316.828125 L 193.914063 317.402344 L 196.109375 317.585938 L 198.355469 316.941406 L 199.054688 316.503906 L 199.855469 315.769531 L 200.5 314.898438 L 201.214844 313.429688 L 202.386719 311.808594 L 204.039063 310.675781 L 206.144531 309.71875 L 207.285156 308.785156 L 208.066406 307.738281 L 208.867188 305.894531 L 210.449219 303.769531 L 212.207031 302.285156 L 213.066406 301.042969 L 213.597656 299.515625 L 213.699219 297.894531 L 213.554688 297.03125 L 212.6875 294.894531 L 212.398438 293.960938 L 211.695313 290.773438 L 211.601563 288.820313 L 212.15625 286.949219 L 213.300781 285.371094 L 214.003906 284.679688 L 215.492188 283.621094 L 217.234375 283.078125 L 219.058594 283.097656 L 221.953125 283.59375 L 222.710938 283.464844 L 222.984375 284.039063 L 223.773438 285.027344 L 225.945313 294.183594 L 229.304688 299.0625 L 235.308594 301.863281 L 234.808594 303.253906 L 233.71875 304.671875 L 232.25 305.691406 L 230.542969 306.21875 L 228.074219 306.574219 L 226.578125 307.261719 L 225.324219 308.359375 L 224.484375 309.671875 L 224.011719 311.269531 L 224.011719 312.933594 L 224.445313 314.425781 L 225.308594 315.792969 L 226.746094 317.007813 L 228.648438 317.773438 L 233.304688 318.394531 L 234.320313 318.292969 L 235.953125 317.789063 L 237.933594 317.539063 L 239.878906 317.972656 L 241.566406 319.039063 L 242.792969 320.609375 L 243.417969 322.503906 L 243.707031 324.476563 L 244.203125 325.738281 L 244.886719 326.75 L 246.226563 328.097656 L 247.871094 329.082031 L 250.445313 329.699219 L 251.820313 330.21875 L 253.023438 331.066406 L 254.351563 332.285156 L 255.199219 332.789063 L 256.675781 333.175781 L 263.316406 342.46875 L 263.640625 343.980469 L 262.804688 345.191406 L 263.28125 343.65625 L 262.507813 342.839844 L 260.445313 342 L 258.378906 342.789063 L 257.507813 342.753906 L 256.035156 341.773438 L 253.664063 338.65625 L 252.601563 338.082031 L 245.550781 339.511719 L 244.589844 338.644531 L 243.40625 338.558594 L 241.210938 339.871094 L 241.886719 340.445313 L 246.324219 340.394531 L 249.617188 339.34375 L 251.976563 339.082031 L 254.382813 342.558594 L 260.535156 347.621094 L 263.042969 349.058594 L 263.664063 349.039063 L 265.285156 351.199219 L 265.089844 352.460938 L 265.210938 353.886719 L 265.582031 355.003906 L 266.828125 356.804688 L 268.277344 357.988281 L 268.546875 358.253906 L 268.980469 359.304688 L 269.535156 362.402344 L 269.210938 365.21875 L 264.953125 369.09375 L 261.394531 373.164063 L 260.601563 374.816406 L 262.84375 374.3125 L 264.9375 375.519531 L 266.9375 378.226563 L 270.21875 378.804688 L 270.625 378.746094 L 271.910156 376.796875 L 272.234375 374.960938 L 273.40625 371.914063 L 274.707031 370.632813 L 277.851563 370.085938 L 283.34375 370.234375 L 284.253906 370.867188 L 286.703125 370.742188 L 293.949219 371.515625 L 296.914063 372.84375 L 304.070313 378.085938 L 305.367188 380.105469 L 306.730469 384.164063 L 307.179688 391.25 L 306.777344 393.191406 L 306.890625 393.976563 L 305.789063 396.917969 L 303.519531 407.832031 L 297.144531 414.53125 L 295.578125 412.011719 L 292.742188 410.515625 L 292.480469 410.636719 L 293.898438 413.703125 L 295.890625 416.628906 L 296.3125 416.765625 L 296.164063 417.742188 L 294.574219 419.804688 L 292.191406 421.289063 L 290.003906 421.65625 L 289.660156 421.574219 L 288.214844 419.332031 L 284.976563 421.730469 L 280.71875 424.230469 L 282.339844 425.378906 L 285.105469 424.398438 L 286.097656 423.375 L 286.894531 423.164063 L 287.328125 423.710938 L 287.632813 428.84375 L 285.6875 430.875 L 283.441406 432.558594 L 282.84375 432.699219 L 279.644531 432.160156 L 274.75 433.78125 L 272.609375 436.117188 L 274.253906 436.015625 L 275.152344 434.667969 L 276.683594 434.363281 L 278.285156 434.328125 L 281.054688 434.949219 L 281.828125 435.589844 L 281.691406 436.328125 L 279.554688 436.347656 L 277.390625 437.65625 L 277.96875 438.546875 L 281.382813 438.964844 L 286.863281 440.339844 L 289.394531 439.9375 L 291.074219 438.957031 L 299.742188 437.757813 L 300.988281 440.148438 L 300.773438 446.324219 L 300.335938 447.820313 L 299.394531 449.050781 L 296.972656 450.242188 L 295.839844 450.375 L 292.621094 451.640625 L 291.179688 452.742188 L 289.847656 454.226563 L 289.460938 455.09375 L 289.214844 456.324219 L 289.464844 457.886719 L 286.253906 458.289063 L 284.1875 457.9375 L 281.042969 460.90625 L 278.484375 461.933594 L 274.789063 462.777344 L 272.597656 463.816406 L 270.539063 466.589844 L 269.761719 466.949219 L 259.269531 463.777344 L 256.070313 463.507813 L 244.628906 465.699219 L 242.703125 466.390625 L 242.113281 466.964844 L 241.902344 467.984375 L 241.359375 468.164063 L 238.210938 466.1875 L 238.632813 465.4375 L 239.46875 464.933594 L 237.714844 463.296875 L 231.496094 463.171875 L 231.378906 463.496094 L 232.574219 464.835938 L 232.214844 465.75 L 231.738281 466.042969 L 226.691406 465.496094 L 219.566406 468.449219 L 217.054688 467.824219 L 210.222656 468.96875 L 208.164063 468.875 L 207.273438 468.058594 L 206.238281 469.769531 L 206.914063 470.050781 L 205.605469 470.9375 L 205 471.609375 L 204.226563 473.035156 L 203.015625 472.699219 L 197.625 472.007813 L 196.175781 472.65625 L 195.679688 473.863281 L 195.832031 474.871094 L 196.757813 475.523438 L 196.488281 476.304688 L 195.917969 475.996094 L 194.851563 473.972656 L 190.289063 470.589844 L 189.699219 470.3125 L 189.449219 469.832031 L 188.605469 468.847656 L 186.46875 467.183594 L 185.28125 466.5625 L 183.800781 466.199219 L 182.386719 466.207031 L 181.183594 466.496094 L 180.042969 467.058594 L 179.050781 467.859375 L 178.277344 468.828125 L 177.9375 469.554688 L 176.207031 469.78125 L 174.339844 470.335938 L 168.992188 473.234375 L 168.214844 474.070313 L 167.203125 476.179688 L 163.523438 486.953125 L 161.964844 486.003906 L 159.921875 485.628906 L 157.882813 486.003906 L 156.511719 486.839844 L 154.683594 485.4375 L 153.613281 485.542969 L 152.417969 486.300781 L 151.738281 486.164063 L 148.46875 482.535156 L 142.796875 482.960938 L 141.527344 483.375 L 140.734375 484.175781 L 139.910156 484.507813 L 138.144531 484.445313 L 138.089844 484.386719 L 135.402344 482.996094 L 133.835938 481.8125 L 132.753906 480.175781 L 132.277344 478.269531 L 132.460938 476.316406 L 133.289063 474.535156 L 134.660156 473.128906 L 136.285156 471.949219 L 137.152344 470.9375 L 137.769531 469.753906 L 138.097656 468.460938 L 138.121094 467.128906 L 137.835938 465.828125 L 137.726563 465.597656 L 138.636719 464.640625 L 139.128906 458.542969 L 139.796875 454.753906 L 142.492188 455.105469 L 144.269531 456.015625 L 145.761719 455.429688 L 148.429688 452.488281 L 148.105469 447.519531 L 151.0625 446.625 L 151.824219 447.042969 L 154.097656 448.78125 L 155.875 449.371094 L 157.859375 449.34375 L 159.773438 448.640625 L 160.671875 447.988281 L 161.601563 446.933594 L 162.058594 446.179688 L 164.597656 446.761719 L 166.046875 446.148438 L 167.527344 446.515625 L 169.484375 447.285156 L 170.039063 448.109375 L 170.757813 448.421875 L 173.15625 448.464844 L 180.570313 447.503906 L 181.109375 445.632813 L 181.210938 443.15625 L 182.519531 440.25 L 190.867188 432.195313 L 195.792969 425.3125 L 197.929688 424.472656 L 198.285156 423.78125 L 198.070313 423.238281 L 197.8125 423.082031 L 196.09375 424.355469 L 192.90625 427.300781 L 190.570313 429.988281 L 189.222656 431.449219 L 185.628906 432.957031 L 183.714844 433.246094 L 182.441406 433.0625 L 178.394531 435.230469 L 177.398438 436.808594 L 177.039063 438.671875 L 176.445313 439.273438 L 174.058594 439.917969 L 170.558594 439.851563 L 166.820313 439 L 166.347656 438.652344 L 161.371094 433.375 L 159.03125 429.199219 L 155.65625 429.589844 L 149.269531 432.308594 L 149.113281 432.746094 L 147.40625 431.75 L 147.183594 431.46875 L 146.917969 429.308594 L 148.539063 428.378906 L 150.066406 428.890625 L 151.640625 428.421875 L 152.765625 427.832031 L 153.085938 427.097656 L 152.808594 426.597656 L 147.785156 426.460938 L 143.210938 423.710938 Z M 150.800781 360.980469 L 150.492188 360.34375 L 150.230469 358.617188 L 150.492188 356.890625 L 151.121094 355.597656 L 155.546875 356.503906 L 154.066406 358.859375 L 150.984375 360.816406 Z M 238.957031 312 L 239.117188 310.28125 L 239.769531 308.6875 L 240.863281 307.355469 L 242.300781 306.402344 L 243.949219 305.914063 L 243.988281 305.914063 L 244.476563 306.140625 L 245.742188 307.636719 L 247.265625 310.527344 L 249.289063 315.722656 L 249.480469 315.933594 L 249.015625 316.492188 L 247.355469 317.5 L 246.9375 317.664063 L 245.15625 318.0625 L 243.339844 317.886719 L 241.664063 317.15625 L 240.300781 315.945313 L 239.378906 314.371094 L 238.992188 312.585938 Z M 144.796875 246.957031 L 143.546875 245.671875 L 142.75 244.070313 L 142.484375 242.339844 L 142.886719 242.511719 L 146.15625 243.175781 L 148.300781 243.253906 L 142.679688 241.015625 L 142.753906 240.53125 L 143.558594 238.929688 L 144.808594 237.648438 L 146.390625 236.8125 L 148.15625 236.492188 L 149.929688 236.726563 L 152.570313 237.503906 L 154.476563 237.425781 L 156.238281 236.738281 L 157.730469 235.476563 L 158.570313 234.136719 L 159.011719 232.550781 L 158.988281 230.902344 L 158.246094 228.53125 L 157.984375 226.828125 L 158.230469 225.121094 L 158.96875 223.566406 L 160.128906 222.292969 L 161.667969 221.035156 L 162.53125 219.902344 L 163.054688 218.714844 L 163.429688 216.636719 L 164.0625 214.859375 L 165.226563 213.378906 L 166.804688 212.347656 L 168.632813 211.875 L 170.511719 212.015625 L 172.25 212.746094 L 173.660156 213.996094 L 175.515625 216.273438 L 177.25 217.3125 L 179.226563 217.6875 L 182.226563 217.1875 L 184 217.164063 L 185.699219 217.679688 L 187.164063 218.683594 L 188.257813 220.078125 L 188.382813 220.410156 L 185.519531 221.085938 L 182.847656 221.226563 L 177.804688 225.21875 L 178.117188 225.714844 L 179.84375 225.195313 L 184.609375 222.886719 L 186.457031 221.386719 L 187.289063 221.316406 L 188.882813 221.8125 L 188.96875 223.511719 L 188.523438 225.226563 L 187.792969 226.917969 L 187.566406 228.015625 L 187.570313 229.242188 L 187.832031 230.460938 L 188.253906 231.429688 L 188.78125 232.199219 L 189.382813 232.742188 L 188.34375 232.882813 L 187.070313 232.078125 L 185.40625 232.042969 L 181.046875 235.800781 L 180.578125 237.003906 L 174.761719 240.109375 L 170.214844 238.117188 L 166.480469 238.003906 L 166.738281 239.222656 L 168.246094 240.195313 L 178.0625 241.875 L 182.921875 243.167969 L 186.398438 241.730469 L 187.519531 239.417969 L 188.617188 238.355469 L 189.539063 238.171875 L 193.183594 238.5 L 199.339844 242.761719 L 206.488281 246.65625 L 208.910156 251.429688 L 208.933594 251.460938 L 206.644531 252.753906 L 205.34375 254.269531 L 204.71875 255.785156 L 204.484375 258.351563 L 203.996094 260.199219 L 202.9375 261.792969 L 201.84375 262.957031 L 201.230469 263.929688 L 200.820313 265.003906 L 200.542969 266.578125 L 199.945313 268.304688 L 198.84375 269.761719 L 198.628906 269.96875 L 197.128906 271.015625 L 195.375 271.539063 L 193.546875 271.496094 L 190.492188 270.9375 L 187.921875 271.320313 L 186.171875 271.316406 L 184.5 270.789063 L 183.0625 269.792969 L 181.988281 268.410156 L 181.371094 266.769531 L 181.273438 265.023438 L 181.699219 263.324219 L 182.46875 261.476563 L 182.695313 260.078125 L 182.574219 258.683594 L 182.128906 257.371094 L 181.359375 256.1875 L 179.359375 254.441406 L 178.613281 253.65625 L 177.308594 252 L 173.527344 248.933594 L 172.195313 248.347656 L 169.707031 247.886719 L 168.371094 247.859375 L 167.15625 248.09375 L 166.199219 248.484375 L 165.082031 249.21875 L 161.988281 251.914063 L 160.617188 253.65625 L 159.34375 254.851563 L 157.773438 255.613281 L 156.046875 255.875 L 154.320313 255.613281 L 152.75 254.851563 L 151.476563 253.65625 L 150.199219 252.03125 L 148.574219 250.753906 L 147.675781 249.878906 L 146.046875 247.894531 Z M 158.671875 197.585938 L 156.953125 196.90625 L 155.535156 195.722656 L 154.558594 194.15625 L 154.125 192.359375 L 154.277344 190.519531 L 154.691406 188.835938 L 154.730469 188.039063 L 154.09375 185.265625 L 153.503906 184.1875 L 152.671875 183.246094 L 151.640625 182.5 L 149.878906 181.746094 L 148.4375 180.863281 L 147.3125 179.601563 L 146.597656 178.070313 L 146.355469 176.398438 L 146.355469 172.523438 L 146.628906 170.757813 L 147.425781 169.15625 L 148.671875 167.875 L 150.25 167.035156 L 152.003906 166.710938 L 153.777344 166.933594 L 155.398438 167.6875 L 155.433594 167.71875 L 155.320313 167.769531 L 152.441406 170.8125 L 151.949219 171.945313 L 152.140625 172.144531 L 156.308594 168.523438 L 156.714844 168.898438 L 157.863281 170.335938 L 158.722656 171.050781 L 159.277344 171.34375 L 157.109375 173.804688 L 156.367188 175.339844 L 156.707031 175.816406 L 157.367188 175.984375 L 158.261719 175.542969 L 161.140625 173.015625 L 166.742188 170.714844 L 167.339844 170.59375 L 168.941406 170.722656 L 171.613281 171.320313 L 174.335938 171.054688 L 175.144531 171.109375 L 175.605469 170.238281 L 176.933594 168.515625 L 177.824219 166.394531 L 177.902344 166.265625 L 178.648438 166.167969 L 179.285156 167.089844 L 180.148438 167.667969 L 184.320313 169.011719 L 187.675781 167.128906 L 188.984375 167.339844 L 189.449219 168.359375 L 190.96875 170.15625 L 191.886719 171.65625 L 192.316406 173.363281 L 192.214844 175.117188 L 191.59375 176.765625 L 190.507813 178.148438 L 189.058594 179.144531 L 187.375 179.660156 L 185.617188 179.652344 L 183.265625 179.28125 L 180.898438 179.558594 L 179.972656 179.515625 L 179.484375 180.417969 L 178.21875 182.042969 L 177.632813 183.359375 L 177.257813 185.613281 L 177.363281 187.75 L 177.203125 189.402344 L 176.585938 190.945313 L 175.554688 192.25 L 174.199219 193.210938 L 172.625 193.746094 L 170.855469 194.078125 L 169.734375 194.542969 L 168.777344 195.191406 L 167.195313 196.75 L 165.621094 197.855469 L 163.777344 198.386719 L 161.859375 198.289063 Z M 139.496094 321.691406 L 138.246094 321.257813 L 139.816406 316.644531 L 142.300781 315.023438 L 144.765625 310.230469 L 145.863281 309.40625 L 149.046875 308.269531 L 150.203125 313.453125 L 147.847656 318.148438 L 145.3125 320.636719 L 142.492188 322.582031 L 142.164063 322.375 L 141.195313 322 Z M 286.679688 439.636719 L 283.058594 438.976563 L 282.164063 437.605469 L 282.484375 436.070313 L 286.839844 437.054688 L 287.960938 438.832031 Z M 236.835938 466.113281 L 235.136719 465.644531 L 236.523438 463.683594 L 237.195313 464.164063 L 237.5 465.839844 Z M 228.117188 474.644531 L 222.296875 470.886719 L 220.207031 471.1875 L 221.476563 469.683594 L 227.316406 466.367188 L 232.550781 467.761719 L 234.171875 469.894531 L 231.242188 473.621094 L 229.960938 474.269531 Z M 228.117188 474.644531 "/>
<path style=" stroke:none;fill-rule:nonzero;fill:rgb(80.392157%,58.431373%,4.705882%);fill-opacity:1;" d="M 196.753906 207.414063 L 196.46875 209.210938 L 195.644531 210.832031 L 194.355469 212.121094 L 192.734375 212.945313 L 190.9375 213.230469 L 189.140625 212.945313 L 187.519531 212.121094 L 186.234375 210.832031 L 185.40625 209.210938 L 185.125 207.414063 L 185.40625 205.617188 L 186.234375 203.996094 L 187.519531 202.710938 L 189.140625 201.882813 L 190.9375 201.601563 L 192.734375 201.882813 L 194.355469 202.710938 L 195.644531 203.996094 L 196.46875 205.617188 Z M 196.753906 207.414063 "/>
<path style=" stroke:none;fill-rule:nonzero;fill:rgb(80.392157%,58.431373%,4.705882%);fill-opacity:1;" d="M 189 292.707031 L 188.714844 294.503906 L 187.890625 296.125 L 186.601563 297.414063 L 184.980469 298.238281 L 183.183594 298.523438 L 181.386719 298.238281 L 179.765625 297.414063 L 178.480469 296.125 L 177.652344 294.503906 L 177.371094 292.707031 L 177.652344 290.910156 L 178.480469 289.289063 L 179.765625 288.003906 L 181.386719 287.175781 L 183.183594 286.890625 L 184.980469 287.175781 L 186.601563 288.003906 L 187.890625 289.289063 L 188.714844 290.910156 Z M 189 292.707031 "/>
<path style=" stroke:none;fill-rule:nonzero;fill:rgb(80.392157%,58.431373%,4.705882%);fill-opacity:1;" d="M 204.507813 284.953125 L 204.222656 286.75 L 203.398438 288.371094 L 202.109375 289.660156 L 200.488281 290.484375 L 198.691406 290.769531 L 196.894531 290.484375 L 195.273438 289.660156 L 193.988281 288.371094 L 193.160156 286.75 L 192.875 284.953125 L 193.160156 283.15625 L 193.988281 281.535156 L 195.273438 280.25 L 196.894531 279.421875 L 198.691406 279.136719 L 200.488281 279.421875 L 202.109375 280.25 L 203.398438 281.535156 L 204.222656 283.15625 Z M 204.507813 284.953125 "/>
<path style=" stroke:none;fill-rule:nonzero;fill:rgb(80.392157%,58.431373%,4.705882%);fill-opacity:1;" d="M 168.339844 288.539063 L 167.929688 288.949219 L 166.234375 288.695313 L 163.3125 290.011719 L 162.828125 290.613281 L 162.003906 290.484375 L 160.382813 289.660156 L 159.09375 288.371094 L 158.269531 286.75 L 157.984375 284.953125 L 158.269531 283.15625 L 159.09375 281.535156 L 160.382813 280.25 L 162.003906 279.421875 L 163.800781 279.136719 L 165.597656 279.421875 L 167.21875 280.25 L 168.503906 281.535156 L 169.332031 283.15625 L 169.46875 284.035156 L 169.453125 284.03125 Z M 168.339844 288.539063 "/>
<path style=" stroke:none;fill-rule:nonzero;fill:rgb(80.392157%,58.431373%,4.705882%);fill-opacity:1;" d="M 204.871094 197.179688 L 204.367188 197.4375 L 202.570313 197.722656 L 200.773438 197.4375 L 199.152344 196.613281 L 197.863281 195.324219 L 197.039063 193.703125 L 196.753906 191.90625 L 197.039063 190.109375 L 197.863281 188.488281 L 199.152344 187.203125 L 200.773438 186.375 L 202.570313 186.09375 L 204.367188 186.375 L 205.988281 187.203125 L 207.148438 188.367188 L 206.664063 191.242188 L 206.84375 191.972656 L 206.226563 194.742188 Z M 204.871094 197.179688 "/>
<path style=" stroke:none;fill-rule:nonzero;fill:rgb(80.392157%,58.431373%,4.705882%);fill-opacity:1;" d="M 138.601563 211.292969 L 138.316406 213.089844 L 137.488281 214.710938 L 136.203125 215.996094 L 134.582031 216.824219 L 134.5 216.835938 L 135.300781 215.007813 L 134.855469 215.347656 L 134.203125 216.882813 L 132.785156 217.109375 L 130.988281 216.824219 L 129.660156 216.148438 L 131.070313 215.113281 L 129.507813 214.882813 L 128.714844 215.34375 L 128.078125 214.710938 L 127.933594 214.421875 L 127.875 213.785156 L 129.65625 210.6875 L 133.738281 205.628906 L 134.582031 205.761719 L 136.203125 206.585938 L 137.488281 207.875 L 138.316406 209.496094 Z M 127.042969 211.746094 L 126.96875 211.292969 L 127.253906 209.496094 L 128.078125 207.875 L 129.367188 206.585938 L 130.988281 205.761719 L 132.785156 205.476563 L 133.109375 205.527344 Z M 127.042969 211.746094 "/>
<path style=" stroke:none;fill-rule:nonzero;fill:rgb(80.392157%,58.431373%,4.705882%);fill-opacity:1;" d="M 130.847656 261.691406 L 130.5625 263.488281 L 130.425781 263.757813 L 129.152344 263.667969 L 126.582031 261.613281 L 125.375 256.128906 L 125.417969 255.9375 L 126.828125 256.160156 L 128.449219 256.988281 L 129.734375 258.273438 L 130.5625 259.894531 Z M 121.882813 266.535156 L 121.613281 266.398438 L 120.324219 265.109375 L 119.5 263.488281 L 119.214844 261.691406 L 119.5 259.894531 L 120.324219 258.273438 L 121.613281 256.988281 L 122.886719 256.339844 L 121.183594 263.964844 L 122.0625 266.289063 Z M 121.882813 266.535156 "/>
<path style=" stroke:none;fill-rule:nonzero;fill:rgb(80.392157%,58.431373%,4.705882%);fill-opacity:1;" d="M 138.601563 277.199219 L 138.316406 278.996094 L 137.488281 280.617188 L 136.203125 281.90625 L 134.582031 282.730469 L 132.785156 283.015625 L 130.988281 282.730469 L 129.878906 282.167969 L 132.777344 280.410156 L 134.003906 276.632813 L 137.242188 273.53125 L 137.488281 273.78125 L 138.316406 275.402344 Z M 138.601563 277.199219 "/>
<path style=" stroke:none;fill-rule:nonzero;fill:rgb(80.392157%,58.431373%,4.705882%);fill-opacity:1;" d="M 173.226563 290.503906 L 173.207031 290.628906 L 172.621094 291.777344 Z M 162.40625 291.136719 L 162.144531 290.628906 L 161.863281 288.832031 L 162.144531 287.035156 L 162.972656 285.414063 L 164.257813 284.125 L 165.878906 283.300781 L 167.675781 283.015625 L 169.472656 283.300781 L 171.09375 284.125 L 171.144531 284.171875 L 169.453125 284.03125 L 168.226563 288.992188 L 166.234375 288.695313 L 163.3125 290.011719 Z M 162.40625 291.136719 "/>
<path style=" stroke:none;fill-rule:nonzero;fill:rgb(80.392157%,58.431373%,4.705882%);fill-opacity:1;" d="M 88.429688 500.046875 L 88.566406 499.308594 L 88.941406 499.117188 L 89.34375 499.789063 Z M 88.429688 500.046875 "/>
</g>
</svg>
