<?xml version="1.0" encoding="UTF-8"?>
<svg xmlns="http://www.w3.org/2000/svg" xmlns:xlink="http://www.w3.org/1999/xlink" width="378pt" height="504pt" viewBox="0 0 378 504" version="1.1">
<g id="data">
<rect x="0" y="0" width="378" height="504" style="fill:rgb(100%,100%,100%);fill-opacity:1;stroke:none;"/>
<path style=" stroke:none;fill-rule:nonzero;fill:rgb(100%,100%,100%);fill-opacity:1;" d="M 53.308594 504 L 324.691406 504 L 324.691406 0 L 53.308594 0 Z M 53.308594 504 "/>
<path style=" stroke:none;fill-rule:nonzero;fill:rgb(22.745098%,53.333333%,16.078431%);fill-opacity:1;" d="M 300.621094 375.558594 L 301.199219 376.292969 L 303.371094 378 L 303.777344 380.242188 L 304.558594 382.25 L 305.773438 384.183594 L 306.804688 385.28125 L 307.179688 391.25 L 306.777344 393.191406 L 306.890625 393.976563 L 305.789063 396.917969 L 305.183594 399.824219 L 303.925781 402.410156 L 303.246094 406.136719 L 303.328125 408.035156 L 298.085938 413.542969 L 296.875 414.097656 L 295.578125 412.011719 L 292.742188 410.515625 L 292.480469 410.636719 L 293.898438 413.703125 L 295.117188 415.492188 L 294.160156 416.3125 L 292.746094 418.292969 L 291.089844 421.472656 L 290.003906 421.65625 L 289.660156 421.574219 L 288.214844 419.332031 L 284.976563 421.730469 L 280.71875 424.230469 L 282.339844 425.378906 L 285.105469 424.398438 L 286.097656 423.375 L 286.894531 423.164063 L 287.328125 423.710938 L 287.632813 428.84375 L 285.6875 430.875 L 283.441406 432.558594 L 282.84375 432.699219 L 279.644531 432.160156 L 274.75 433.78125 L 272.609375 436.117188 L 274.253906 436.015625 L 275.152344 434.667969 L 276.683594 434.363281 L 278.285156 434.328125 L 281.054688 434.949219 L 281.828125 435.589844 L 281.691406 436.328125 L 279.554688 436.347656 L 277.390625 437.65625 L 277.96875 438.546875 L 281.382813 438.964844 L 286.863281 440.339844 L 289.394531 439.9375 L 291.074219 438.957031 L 294.535156 438.476563 L 294.625 438.542969 L 296.976563 439.554688 L 299.492188 440.03125 L 299.492188 447.785156 L 297.320313 449.492188 L 296.707031 450.273438 L 295.839844 450.375 L 292.621094 451.640625 L 291.179688 452.742188 L 289.847656 454.226563 L 289.460938 455.09375 L 289.214844 456.324219 L 289.242188 456.503906 L 289.066406 456.730469 L 288.492188 458.007813 L 286.253906 458.289063 L 284.1875 457.9375 L 282.140625 459.871094 L 280.660156 460.191406 L 278.210938 461.515625 L 277.496094 462.15625 L 274.789063 462.777344 L 272.597656 463.816406 L 272.101563 464.484375 L 271.417969 464.78125 L 269.023438 466.726563 L 267.261719 466.195313 L 265.421875 464.71875 L 261.855469 463.441406 L 259.097656 463.132813 L 250.96875 463.128906 L 247.710938 463.488281 L 244.171875 464.84375 L 241.339844 467.167969 L 239.566406 467.039063 L 238.210938 466.1875 L 238.632813 465.4375 L 239.46875 464.933594 L 237.714844 463.296875 L 231.496094 463.171875 L 231.378906 463.496094 L 232.574219 464.835938 L 232.214844 465.75 L 231.738281 466.042969 L 226.691406 465.496094 L 220.914063 467.890625 L 219.828125 467.449219 L 215.21875 466.546875 L 211.792969 466.753906 L 206.300781 468.246094 L 204.34375 469.417969 L 202.570313 471.046875 L 199.984375 472.308594 L 197.625 472.007813 L 196.175781 472.65625 L 195.679688 473.863281 L 195.832031 474.871094 L 196.527344 475.359375 L 196.515625 475.367188 L 196.144531 476.117188 L 195.917969 475.996094 L 194.851563 473.972656 L 192.875 472.507813 L 192.019531 471.238281 L 189.9375 469.332031 L 187.8125 468.128906 L 185.484375 467.398438 L 181.035156 466.867188 L 178.363281 467.050781 L 175.921875 467.792969 L 173.804688 468.972656 L 172.152344 470.378906 L 170.222656 472.566406 L 168.992188 473.234375 L 168.214844 474.070313 L 167.203125 476.179688 L 164.984375 482.675781 L 163.800781 482.675781 L 161.558594 481.710938 L 159.296875 481.242188 L 155.839844 481.402344 L 153.507813 482.125 L 151.484375 483.242188 L 150.136719 484.386719 L 148.46875 482.535156 L 142.796875 482.960938 L 142.789063 482.960938 L 142.230469 482.722656 L 139.195313 482.363281 L 133.855469 482.859375 L 130.941406 483.816406 L 128.378906 485.503906 L 126.347656 487.804688 L 125.121094 490.253906 L 124.039063 490.597656 L 124.035156 490.613281 L 122.785156 490.839844 L 120.777344 491.621094 L 118.847656 492.835938 L 117.277344 494.308594 L 116.5625 494.183594 L 115.984375 493.691406 L 112.253906 492.070313 L 111.410156 491.984375 L 110.375 492.488281 L 110.242188 494.183594 L 109.523438 494.308594 L 108.820313 493.617188 L 109.523438 490.429688 L 112.128906 491.027344 L 114.800781 491.011719 L 120.203125 490.054688 L 123.167969 488.828125 L 125.5 487.023438 L 127.371094 484.578125 L 128.535156 481.726563 L 128.90625 478.800781 L 132.585938 479.324219 L 136.242188 478.664063 L 139.5 476.886719 L 142.035156 474.171875 L 143.648438 470.542969 L 143.960938 466.714844 L 142.902344 462.757813 L 140.539063 459.414063 L 140.539063 455.539063 L 142.566406 455.144531 L 144.269531 456.015625 L 145.761719 455.429688 L 148.429688 452.488281 L 148.371094 451.617188 L 150.550781 449.867188 L 152.167969 447.785156 L 153.6875 446.472656 L 157.421875 446.269531 L 159.910156 445.683594 L 164.597656 446.761719 L 166.046875 446.148438 L 167.527344 446.515625 L 169.484375 447.285156 L 170.039063 448.109375 L 170.757813 448.421875 L 173.15625 448.464844 L 180.570313 447.503906 L 181.109375 445.632813 L 181.210938 443.15625 L 182.519531 440.25 L 190.867188 432.195313 L 195.792969 425.3125 L 197.929688 424.472656 L 198.285156 423.78125 L 198.070313 423.238281 L 197.8125 423.082031 L 196.09375 424.355469 L 192.90625 427.300781 L 190.570313 429.988281 L 189.222656 431.449219 L 185.628906 432.957031 L 183.714844 433.246094 L 182.441406 433.0625 L 178.394531 435.230469 L 177.398438 436.808594 L 177.039063 438.671875 L 176.445313 439.273438 L 174.058594 439.917969 L 170.558594 439.851563 L 166.820313 439 L 166.347656 438.652344 L 161.371094 433.375 L 159.03125 429.199219 L 155.65625 429.589844 L 154.179688 430.21875 L 152.167969 428.398438 L 152.027344 428.21875 L 152.765625 427.832031 L 153.085938 427.097656 L 152.808594 426.597656 L 150.691406 426.539063 L 150.375 426.140625 L 146.855469 423.078125 L 143.226563 420.996094 L 147.601563 419.945313 L 149.863281 422.117188 L 152.253906 423.550781 L 154.539063 424.300781 L 159.082031 425.042969 L 161.386719 424.898438 L 163.621094 424.300781 L 165.691406 423.273438 L 167.519531 421.855469 L 169.945313 418.558594 L 171.09375 414.492188 L 170.710938 410.289063 L 168.855469 406.496094 L 165.304688 402.449219 L 163.386719 401.15625 L 161.375 400.304688 L 159.113281 399.832031 L 156.671875 399.828125 L 154.410156 400.292969 L 152.167969 401.261719 L 153.640625 399.6875 L 154.855469 397.757813 L 155.636719 395.75 L 156.046875 393.507813 L 157.203125 395.792969 L 158.738281 397.683594 L 160.746094 399.277344 L 163.050781 400.398438 L 165.417969 400.964844 L 167.980469 401.019531 L 170.492188 400.511719 L 172.722656 399.527344 L 175.070313 397.75 L 177.625 394.769531 L 178.789063 392.238281 L 179.308594 389.628906 L 180.980469 387.199219 L 182.015625 384.300781 L 182.242188 381.105469 L 181.59375 377.96875 L 180.328125 375.445313 L 177.601563 371.953125 L 173.566406 368.710938 L 170.582031 367.300781 L 166.808594 366.785156 L 163.078125 367.519531 L 161.128906 363.808594 L 158.304688 360.410156 L 156.640625 359.089844 L 160.492188 357.457031 L 163.644531 357.28125 L 167.019531 357.679688 L 167.035156 357.683594 L 167.039063 357.683594 L 167.339844 357.714844 L 167.523438 357.628906 L 170.851563 357.257813 L 174.320313 355.613281 L 174.71875 355.269531 L 179.910156 359.441406 L 180.433594 358.429688 L 177.679688 353.460938 L 178.242188 352.835938 L 180.867188 352.449219 L 181.503906 352.695313 L 181.914063 353.875 L 182.898438 354.332031 L 184.078125 356.789063 L 185.613281 357.902344 L 188.359375 357.621094 L 190.335938 355.148438 L 189.90625 355.050781 L 188.667969 355.527344 L 188.3125 355.957031 L 186.378906 356.386719 L 183.8125 354.640625 L 180.015625 346.414063 L 181.304688 345.371094 L 182.902344 343.363281 L 183.972656 341.171875 L 184.339844 339.671875 L 185.429688 339.015625 L 185.140625 338.578125 L 184.578125 338.550781 L 184.386719 334.585938 L 182.640625 330.113281 L 184.695313 329.191406 L 187.28125 323.421875 L 187.71875 320.933594 L 187.855469 317.484375 L 184.742188 320.527344 L 179.199219 323.441406 L 177.335938 322.691406 L 175.601563 319.6875 L 174.90625 316.695313 L 173.554688 314.238281 L 172.523438 313.132813 L 172.289063 311.832031 L 171.191406 310.21875 L 171.074219 309.605469 L 170.003906 307.171875 L 167.675781 304.339844 L 168.566406 302.34375 L 169.0625 300.21875 L 169.105469 299.246094 L 169.164063 299.058594 L 174.074219 288.722656 L 176.3125 286.566406 L 177.484375 288.578125 L 179.867188 290.726563 L 182.746094 292.140625 L 185.773438 292.710938 L 189.742188 292.550781 L 192.667969 291.621094 L 195.246094 289.964844 L 197.300781 287.6875 L 198.691406 284.953125 L 200.914063 287.441406 L 203.753906 289.195313 L 206.972656 290.070313 L 210.308594 289.996094 L 213.015625 289.195313 L 215.453125 287.761719 L 219.261719 283.664063 L 220.941406 280.75 L 221.5 280.929688 L 222.355469 282.722656 L 222.824219 284.636719 L 224.128906 286.953125 L 224.265625 287.105469 L 225.945313 294.183594 L 229.304688 299.0625 L 231.828125 300.242188 L 231.964844 300.429688 L 233.859375 302.148438 L 236.203125 303.460938 L 238.785156 304.203125 L 240.519531 304.292969 L 241.441406 304.722656 L 242.363281 308.246094 L 244.664063 311.570313 L 246.589844 313.40625 L 248.492188 314.664063 L 248.949219 314.851563 L 249.289063 315.722656 L 251.105469 317.730469 L 250.082031 318.695313 L 248.320313 322.113281 L 247.769531 325.917969 L 248.488281 329.695313 L 250.648438 333.324219 L 252.96875 335.355469 L 254.855469 337.699219 L 256.847656 339.230469 L 257.253906 341.472656 L 257.753906 342.761719 L 257.507813 342.753906 L 256.035156 341.773438 L 253.664063 338.65625 L 252.601563 338.082031 L 245.550781 339.511719 L 244.589844 338.644531 L 243.40625 338.558594 L 241.210938 339.871094 L 241.886719 340.445313 L 246.324219 340.394531 L 249.617188 339.34375 L 251.976563 339.082031 L 254.382813 342.558594 L 260.535156 347.621094 L 260.785156 347.765625 L 260.980469 350.167969 L 262.097656 353.160156 L 264.730469 356.441406 L 266.5 357.703125 L 268.476563 358.617188 L 269.199219 362.648438 L 269.457031 363.089844 L 269.210938 365.21875 L 264.953125 369.09375 L 261.394531 373.164063 L 260.601563 374.816406 L 262.84375 374.3125 L 264.9375 375.519531 L 266.9375 378.226563 L 270.21875 378.804688 L 270.625 378.746094 L 271.910156 376.796875 L 272.234375 374.960938 L 273.40625 371.914063 L 274.707031 370.632813 L 277.851563 370.085938 L 279.542969 370.128906 L 281.730469 370.40625 L 283.550781 370.375 L 284.253906 370.867188 L 286.703125 370.742188 L 292.984375 371.414063 L 293.3125 371.71875 L 295.242188 372.933594 L 297.371094 373.75 L 298.398438 373.929688 Z M 233.035156 468.394531 L 231.75 469.121094 L 229.707031 471.046875 L 225.832031 471.046875 L 223.105469 468.785156 L 223.078125 468.773438 L 227.316406 466.367188 L 232.550781 467.761719 Z M 164.574219 289.441406 L 163.800781 288.832031 L 163.800781 284.953125 L 166.066406 282.019531 L 167.273438 278.648438 L 167.457031 275.710938 L 166.894531 272.816406 L 165.695313 270.269531 L 163.914063 268.082031 L 162.101563 266.65625 L 159.921875 265.570313 L 157.746094 263.046875 L 154.824219 261.191406 L 152.25 260.394531 L 149.5625 260.210938 L 146.902344 260.652344 L 144.414063 261.691406 L 144.363281 261.695313 L 144.195313 260.621094 L 143.691406 259.382813 L 146.027344 255.5 L 147.273438 251.601563 L 147.34375 249.164063 L 146.863281 246.640625 L 145.839844 244.285156 L 144.851563 242.910156 L 146.15625 243.175781 L 148.300781 243.253906 L 144.921875 241.910156 L 146.585938 240.601563 L 148.292969 238.429688 L 151.433594 239.078125 L 154.757813 238.816406 L 157.875 237.617188 L 160.429688 235.679688 L 161.960938 233.777344 L 163.0625 231.601563 L 163.683594 229.238281 L 163.800781 226.800781 L 166.226563 224.730469 L 168 222.082031 L 168.796875 219.925781 L 169.152344 217.65625 L 171.714844 220.777344 L 175.191406 222.835938 L 179.179688 223.585938 L 180.046875 223.445313 L 177.804688 225.21875 L 178.117188 225.714844 L 179.84375 225.195313 L 182.828125 223.75 L 182.21875 225.164063 L 181.75 227.425781 L 181.753906 229.867188 L 182.269531 232.25 L 183.058594 234.066406 L 181.046875 235.800781 L 180.578125 237.003906 L 174.761719 240.109375 L 170.214844 238.117188 L 166.480469 238.003906 L 166.738281 239.222656 L 168.246094 240.195313 L 178.0625 241.875 L 182.921875 243.167969 L 186.398438 241.730469 L 187.519531 239.417969 L 187.804688 239.144531 L 188.734375 239.980469 L 191.609375 241.578125 L 194.816406 242.308594 L 197.003906 244.226563 L 199.71875 245.585938 L 203.441406 246.296875 L 205.675781 246.214844 L 206.234375 246.519531 L 204.390625 249.402344 L 203.484375 253.113281 L 203.832031 256.914063 L 205.394531 260.402344 L 202.351563 260.570313 L 199.34375 261.578125 L 196.816406 263.273438 L 194.597656 265.777344 L 192.25 265.167969 L 189.953125 265.054688 L 183.03125 266.289063 L 179.894531 268.039063 L 177.445313 270.660156 L 175.804688 274.273438 L 174.757813 281.113281 L 175.46875 285.039063 L 174.65625 284.980469 L 172.566406 284.292969 L 169.453125 284.03125 L 168.226563 288.992188 L 166.234375 288.695313 Z M 201.011719 191.894531 L 202.570313 191.90625 L 199.984375 194.050781 Z M 183.183594 168.644531 L 184.058594 170.753906 L 185.242188 172.550781 L 186.742188 174.097656 L 188.609375 175.40625 L 185.972656 174.929688 L 183.296875 175.066406 L 180.84375 175.765625 L 178.496094 177.054688 L 176.589844 178.753906 L 173.304688 182.785156 L 172.113281 185.300781 L 171.554688 188.03125 L 168.703125 188.628906 L 166.09375 189.917969 L 162.773438 193 L 160.9375 196.113281 L 159.921875 195.785156 L 159.921875 191.90625 L 160.585938 187.902344 L 159.847656 183.910156 L 158.652344 181.359375 L 156.878906 179.171875 L 154.632813 177.472656 L 152.167969 176.398438 L 152.167969 172.523438 L 154.347656 175.046875 L 157.035156 176.792969 L 160.097656 177.742188 L 163.429688 177.804688 L 165.558594 177.328125 L 167.675781 176.398438 L 172.058594 176.347656 L 175.460938 175.375 L 177.535156 174.148438 L 180.925781 171.332031 Z M 148.535156 308.453125 L 148.996094 308.90625 L 147.652344 315.203125 L 147.746094 317.621094 L 147.867188 318.113281 L 147.847656 318.148438 L 147.179688 318.804688 L 146.71875 318.375 L 144.789063 317.160156 L 142.660156 316.34375 L 140.785156 316.011719 L 142.300781 315.023438 L 144.765625 310.230469 L 145.863281 309.40625 Z M 113.398438 211.292969 L 114.601563 212.8125 L 114.429688 213.152344 L 113.398438 211.792969 Z M 113.734375 214.515625 L 113.398438 215.167969 L 113.398438 213.371094 Z M 286.679688 439.636719 L 283.058594 438.976563 L 282.164063 437.605469 L 282.484375 436.070313 L 286.839844 437.054688 L 287.960938 438.832031 Z M 236.835938 466.113281 L 235.136719 465.644531 L 236.523438 463.683594 L 237.195313 464.164063 L 237.5 465.839844 Z M 236.835938 466.113281 "/>
</g>
</svg>
