<?xml version="1.0" encoding="UTF-8"?>
<svg xmlns="http://www.w3.org/2000/svg" xmlns:xlink="http://www.w3.org/1999/xlink" width="378pt" height="504pt" viewBox="0 0 378 504" version="1.1">
<g id="data">
<rect x="0" y="0" width="378" height="504" style="fill:rgb(100%,100%,100%);fill-opacity:1;stroke:none;"/>
<path style=" stroke:none;fill-rule:nonzero;fill:rgb(100%,100%,100%);fill-opacity:1;" d="M 53.308594 504 L 324.691406 504 L 324.691406 0 L 53.308594 0 Z M 53.308594 504 "/>
<path style=" stroke:none;fill-rule:nonzero;fill:rgb(22.745098%,53.333333%,16.078431%);fill-opacity:1;" d="M 300.621094 375.558594 L 301.199219 376.292969 L 303.371094 378 L 303.777344 380.242188 L 304.558594 382.25 L 305.695313 384.082031 L 306.800781 385.273438 L 307.179688 391.25 L 306.777344 393.191406 L 306.890625 393.976563 L 305.789063 396.917969 L 305.191406 399.796875 L 305.117188 399.890625 L 303.925781 402.410156 L 303.246094 406.136719 L 303.328125 408.035156 L 298.542969 413.058594 L 297.371094 413.265625 L 296.554688 413.578125 L 295.578125 412.011719 L 292.742188 410.515625 L 292.480469 410.636719 L 293.898438 413.703125 L 294.480469 414.558594 L 293.3125 415.296875 L 291.738281 416.769531 L 289.578125 417.597656 L 287.625 418.835938 L 285.246094 421.351563 L 285.113281 421.628906 L 284.976563 421.730469 L 280.71875 424.230469 L 282.339844 425.378906 L 283.621094 424.925781 L 283.167969 427.746094 L 283.542969 430.933594 L 284.007813 432.132813 L 283.441406 432.558594 L 282.84375 432.699219 L 279.644531 432.160156 L 274.75 433.78125 L 272.609375 436.117188 L 274.253906 436.015625 L 275.152344 434.667969 L 276.683594 434.363281 L 278.285156 434.328125 L 281.054688 434.949219 L 281.828125 435.589844 L 281.691406 436.328125 L 279.554688 436.347656 L 277.390625 437.65625 L 277.96875 438.546875 L 281.382813 438.964844 L 286.863281 440.339844 L 289.394531 439.9375 L 290.292969 439.410156 L 293.085938 440.417969 L 296.378906 440.671875 L 299.492188 440.03125 L 299.492188 443.90625 L 297.683594 445.265625 L 295.617188 447.785156 L 293.355469 449.582031 L 290.113281 453.4375 L 288.546875 456.328125 L 288.164063 458.050781 L 286.253906 458.289063 L 284.1875 457.9375 L 282.140625 459.871094 L 280.660156 460.191406 L 278.210938 461.515625 L 277.496094 462.15625 L 274.789063 462.777344 L 272.597656 463.816406 L 272.101563 464.484375 L 271.417969 464.78125 L 269.023438 466.726563 L 267.304688 466.207031 L 265.644531 464.84375 L 262.226563 463.515625 L 259.097656 463.132813 L 249.964844 463.179688 L 247.339844 463.570313 L 245.183594 464.316406 L 243.113281 465.542969 L 241.339844 467.167969 L 239.097656 466.203125 L 238.296875 466.039063 L 238.632813 465.4375 L 239.46875 464.933594 L 237.714844 463.296875 L 231.496094 463.171875 L 231.378906 463.496094 L 232.574219 464.835938 L 232.214844 465.75 L 231.738281 466.042969 L 226.691406 465.496094 L 221.019531 467.847656 L 220.5625 467.648438 L 218.078125 467.167969 L 216.234375 465.574219 L 213.984375 464.351563 L 210.882813 463.558594 L 207.8125 463.625 L 204.628906 464.597656 L 201.757813 466.515625 L 200.214844 468.230469 L 198.691406 471.046875 L 197.890625 472.039063 L 197.625 472.007813 L 196.230469 472.628906 L 196.199219 471.503906 L 195.535156 468.917969 L 194.296875 466.554688 L 192.644531 464.621094 L 189.625 462.269531 L 187.351563 461.085938 L 184.496094 460.378906 L 181.679688 460.394531 L 179.191406 460.996094 L 176.894531 462.125 L 174.898438 463.734375 L 173.304688 465.738281 L 172.105469 468.285156 L 171.554688 471.046875 L 170.242188 472.554688 L 168.992188 473.234375 L 168.214844 474.070313 L 167.203125 476.179688 L 165.449219 481.320313 L 164.074219 480.480469 L 159.921875 479.714844 L 155.773438 480.480469 L 152.167969 482.675781 L 148.597656 482.675781 L 148.46875 482.535156 L 146.570313 482.675781 L 144.414063 482.675781 L 141.675781 479.695313 L 138.078125 477.832031 L 140.25 476.253906 L 142 474.222656 L 143.242188 471.839844 L 143.902344 469.238281 L 143.945313 466.554688 L 143.375 463.929688 L 142.21875 461.507813 L 140.539063 459.414063 L 143.113281 458.277344 L 145.339844 456.554688 L 147.15625 454.238281 L 147.449219 453.570313 L 148.429688 452.488281 L 148.378906 451.730469 L 151.339844 453.992188 L 154.976563 455.203125 L 158.8125 455.164063 L 162.535156 453.820313 L 164.609375 452.3125 L 166.304688 450.390625 L 168.441406 446.875 L 169.484375 447.285156 L 170.039063 448.109375 L 170.757813 448.421875 L 173.15625 448.464844 L 180.570313 447.503906 L 181.109375 445.632813 L 181.210938 443.15625 L 182.519531 440.25 L 190.867188 432.195313 L 195.792969 425.3125 L 197.929688 424.472656 L 198.285156 423.78125 L 198.070313 423.238281 L 197.8125 423.082031 L 196.09375 424.355469 L 192.90625 427.300781 L 190.570313 429.988281 L 189.222656 431.449219 L 185.628906 432.957031 L 183.714844 433.246094 L 182.441406 433.0625 L 178.394531 435.230469 L 177.398438 436.808594 L 177.039063 438.671875 L 176.445313 439.273438 L 174.058594 439.917969 L 170.648438 439.855469 L 170.402344 437.515625 L 169.582031 435.089844 L 168.332031 433.003906 L 166.671875 431.222656 L 164.679688 429.824219 L 162.316406 428.839844 L 159.921875 428.398438 L 163.121094 428.140625 L 166.011719 427.082031 L 168.523438 425.296875 L 170.480469 422.917969 L 171.707031 420.230469 L 172.214844 417.320313 L 172.070313 414.882813 L 171.109375 410.527344 L 170.1875 408.304688 L 168.828125 406.316406 L 165.691406 402.785156 L 162.929688 400.921875 L 160.253906 400.011719 L 157.570313 399.769531 L 154.777344 400.1875 L 152.167969 401.261719 L 153.640625 399.6875 L 154.855469 397.757813 L 155.671875 395.628906 L 156.046875 393.507813 L 156.996094 395.46875 L 158.382813 397.3125 L 160.003906 398.769531 L 161.867188 399.902344 L 163.910156 400.664063 L 166.058594 401.03125 L 168.238281 400.992188 L 170.371094 400.546875 L 173.054688 399.332031 L 175.429688 397.382813 L 177.796875 396.941406 L 180.019531 396.019531 L 183.183594 393.507813 L 185.3125 392.625 L 187.226563 391.335938 L 189.929688 388.109375 L 192.230469 382.417969 L 192.492188 380.257813 L 192.347656 378.085938 L 190.9375 374.125 L 190.261719 370.210938 L 188.46875 366.957031 L 185.742188 364.433594 L 182.730469 363.007813 L 179.308594 362.492188 L 176.839844 361.425781 L 174.324219 360.964844 L 170.886719 361.230469 L 167.675781 362.492188 L 159.921875 362.492188 L 158.214844 360.320313 L 156.644531 359.085938 L 160.492188 357.457031 L 163.644531 357.28125 L 166.511719 357.621094 L 166.648438 357.65625 L 166.75 357.648438 L 167.339844 357.714844 L 167.609375 357.585938 L 170.351563 357.386719 L 173.785156 355.96875 L 174.703125 355.257813 L 179.910156 359.441406 L 180.433594 358.429688 L 177.679688 353.460938 L 178.242188 352.835938 L 180.867188 352.449219 L 181.503906 352.695313 L 181.914063 353.875 L 182.898438 354.332031 L 184.078125 356.789063 L 185.613281 357.902344 L 188.359375 357.621094 L 190.335938 355.148438 L 189.90625 355.050781 L 188.667969 355.527344 L 188.3125 355.957031 L 186.378906 356.386719 L 183.8125 354.640625 L 180 346.382813 L 181.914063 344.710938 L 183.789063 341.648438 L 184.414063 339.628906 L 185.429688 339.015625 L 185.140625 338.578125 L 184.546875 338.550781 L 184.675781 337.394531 L 183.988281 333.230469 L 182.632813 330.117188 L 184.695313 329.191406 L 187.28125 323.421875 L 187.71875 320.933594 L 187.738281 320.394531 L 189.550781 321.859375 L 192.492188 323.117188 L 196.691406 323.472656 L 200.738281 322.304688 L 202.589844 321.15625 L 204.195313 319.679688 L 205.496094 317.929688 L 206.445313 315.96875 L 209.242188 314.699219 L 211.519531 312.832031 L 213.128906 310.679688 L 214.199219 308.214844 L 216.550781 306.230469 L 218.300781 303.699219 L 219.324219 300.792969 L 219.542969 297.597656 L 219.1875 295.441406 L 218.078125 292.707031 L 217.375 289.519531 L 218.078125 288.832031 L 221.953125 289.496094 L 224.722656 289.019531 L 225.835938 293.710938 L 226.09375 295.136719 L 227.488281 298 L 229.707031 300.460938 L 226.410156 300.9375 L 223.488281 302.265625 L 220.957031 304.433594 L 219.140625 307.230469 L 218.195313 310.425781 L 218.195313 313.757813 L 219.089844 316.839844 L 220.871094 319.65625 L 223.707031 322.054688 L 227.15625 323.441406 L 233.335938 324.25 L 235.605469 323.992188 L 237.664063 323.347656 L 238.050781 325.984375 L 239.027344 328.464844 L 240.378906 330.460938 L 242.613281 332.710938 L 245.648438 334.53125 L 249.09375 335.355469 L 250.867188 336.980469 L 252.9375 338.207031 L 256.847656 339.230469 L 257.21875 341.351563 L 257.761719 342.761719 L 257.507813 342.753906 L 256.035156 341.773438 L 253.664063 338.65625 L 252.601563 338.082031 L 245.550781 339.511719 L 244.589844 338.644531 L 243.40625 338.558594 L 241.210938 339.871094 L 241.886719 340.445313 L 246.324219 340.394531 L 249.617188 339.34375 L 251.976563 339.082031 L 254.382813 342.558594 L 260.476563 347.574219 L 259.683594 349.472656 L 259.234375 352.257813 L 259.449219 354.945313 L 260.328125 357.628906 L 262.511719 360.789063 L 264.601563 362.492188 L 266.671875 365.011719 L 268.121094 366.207031 L 264.953125 369.09375 L 261.394531 373.164063 L 260.601563 374.816406 L 262.84375 374.3125 L 264.9375 375.519531 L 266.9375 378.226563 L 270.21875 378.804688 L 270.625 378.746094 L 271.910156 376.796875 L 272.234375 374.960938 L 273.40625 371.914063 L 274.707031 370.632813 L 276.695313 370.285156 L 277.101563 370.359375 L 283.457031 370.308594 L 284.253906 370.867188 L 286.703125 370.742188 L 292.984375 371.414063 L 293.3125 371.71875 L 295.242188 372.933594 L 297.371094 373.75 L 298.398438 373.929688 Z M 237.445313 465.863281 L 236.835938 465.734375 L 235.480469 465.738281 L 235.136719 465.644531 L 236.523438 463.683594 L 237.195313 464.164063 L 237.5 465.839844 Z M 230.300781 467.160156 L 228.503906 468.113281 L 225.832031 471.046875 L 223.050781 468.789063 L 227.316406 466.367188 Z M 175.640625 319.753906 L 175.613281 319.277344 L 175.042969 317.050781 L 174.046875 314.980469 L 177.472656 317.894531 L 179.679688 319.171875 L 183.378906 320.117188 L 185.304688 319.976563 L 184.742188 320.527344 L 179.199219 323.441406 L 177.335938 322.691406 Z M 244.765625 311.671875 L 245.214844 312.09375 L 244.796875 312.257813 Z M 148.292969 242.308594 L 151.851563 243.351563 L 155.679688 243.199219 L 159.253906 241.804688 L 162.179688 239.328125 L 163.945313 236.507813 L 164.839844 233.304688 L 164.789063 229.976563 L 163.800781 226.800781 L 165.875 225.109375 L 167.574219 222.878906 L 168.691406 220.304688 L 169.152344 217.667969 L 171.648438 220.734375 L 175.148438 222.835938 L 179.160156 223.59375 L 180.042969 223.445313 L 177.804688 225.21875 L 178.117188 225.714844 L 179.84375 225.195313 L 182.828125 223.75 L 182.21875 225.164063 L 181.75 227.425781 L 181.753906 229.867188 L 182.269531 232.25 L 183.058594 234.066406 L 181.046875 235.800781 L 180.578125 237.003906 L 174.761719 240.109375 L 170.214844 238.117188 L 166.480469 238.003906 L 166.738281 239.222656 L 168.246094 240.195313 L 178.0625 241.875 L 182.921875 243.167969 L 186.398438 241.730469 L 187.519531 239.417969 L 187.804688 239.144531 L 188.734375 239.980469 L 191.609375 241.578125 L 194.816406 242.308594 L 197.167969 244.453125 L 199.898438 245.839844 L 203.148438 246.484375 L 205.738281 246.25 L 206.039063 246.414063 L 202.992188 248.109375 L 200.320313 251.191406 L 199.007813 254.382813 L 198.691406 257.816406 L 197.21875 259.386719 L 196.003906 261.316406 L 195.222656 263.324219 L 194.816406 265.570313 L 194.597656 265.777344 L 190.464844 265.042969 L 187.0625 265.570313 L 188.136719 262.960938 L 188.546875 260.296875 L 188.308594 257.484375 L 187.402344 254.808594 L 185.792969 252.335938 L 183.183594 250.0625 L 181.476563 247.890625 L 176.585938 243.925781 L 173.917969 242.75 L 170.296875 242.082031 L 167.871094 242.035156 L 165.492188 242.492188 L 163.480469 243.3125 L 161.558594 244.570313 L 157.753906 247.890625 L 156.046875 250.0625 L 154.339844 247.890625 L 152.167969 246.183594 L 150.097656 243.667969 Z M 183.183594 168.644531 L 184.496094 171.503906 L 186.527344 173.910156 L 183.378906 173.410156 L 180.214844 173.785156 L 182 171.464844 Z M 159.921875 191.90625 L 160.46875 189.683594 L 160.578125 187.519531 L 159.582031 183.1875 L 158.296875 180.824219 L 156.597656 178.90625 L 154.523438 177.410156 L 152.167969 176.398438 L 152.167969 172.523438 L 153.601563 174.339844 L 155.46875 175.90625 L 157.625 177.050781 L 159.84375 177.699219 L 163.8125 177.75 L 167.675781 176.398438 L 171.253906 177.195313 L 174.898438 176.839844 L 173.128906 179.136719 L 172.015625 181.675781 L 171.417969 185.277344 L 171.554688 188.03125 L 169.1875 188.472656 L 166.964844 189.394531 L 165.074219 190.671875 L 163.109375 192.609375 Z M 144.414063 420.644531 L 147.601563 419.945313 L 148.292969 420.644531 L 149.609375 423.273438 L 150.988281 424.960938 L 152.976563 426.570313 L 155.386719 427.753906 L 152.167969 428.398438 L 152.027344 428.21875 L 152.765625 427.832031 L 153.085938 427.097656 L 152.808594 426.597656 L 150.707031 426.539063 L 150.460938 426.230469 L 148.292969 424.523438 L 146.222656 422.003906 Z M 148.292969 308.539063 L 148.292969 312.09375 L 147.628906 315.96875 L 147.960938 317.921875 L 147.847656 318.148438 L 147.179688 318.804688 L 146.71875 318.375 L 144.789063 317.160156 L 142.660156 316.34375 L 140.785156 316.011719 L 142.300781 315.023438 L 144.765625 310.230469 L 145.863281 309.40625 Z M 286.679688 439.636719 L 283.058594 438.976563 L 282.164063 437.605469 L 282.484375 436.070313 L 286.839844 437.054688 L 287.960938 438.832031 Z M 286.679688 439.636719 "/>
<path style=" stroke:none;fill-rule:nonzero;fill:rgb(80.392157%,58.431373%,4.705882%);fill-opacity:1;" d="M 196.753906 207.414063 L 196.46875 209.210938 L 195.644531 210.832031 L 194.355469 212.121094 L 192.734375 212.945313 L 190.9375 213.230469 L 189.140625 212.945313 L 187.519531 212.121094 L 186.234375 210.832031 L 185.40625 209.210938 L 185.125 207.414063 L 185.40625 205.617188 L 186.234375 203.996094 L 187.519531 202.710938 L 189.140625 201.882813 L 190.9375 201.601563 L 192.734375 201.882813 L 194.355469 202.710938 L 195.644531 203.996094 L 196.46875 205.617188 Z M 196.753906 207.414063 "/>
<path style=" stroke:none;fill-rule:nonzero;fill:rgb(80.392157%,58.431373%,4.705882%);fill-opacity:1;" d="M 173.492188 211.292969 L 173.207031 213.089844 L 172.382813 214.710938 L 171.09375 215.996094 L 169.472656 216.824219 L 167.675781 217.109375 L 165.878906 216.824219 L 164.257813 215.996094 L 162.972656 214.710938 L 162.144531 213.089844 L 161.863281 211.292969 L 162.144531 209.496094 L 162.972656 207.875 L 164.257813 206.585938 L 165.878906 205.761719 L 167.675781 205.476563 L 169.472656 205.761719 L 171.09375 206.585938 L 172.382813 207.875 L 173.207031 209.496094 Z M 173.492188 211.292969 "/>
<path style=" stroke:none;fill-rule:nonzero;fill:rgb(80.392157%,58.431373%,4.705882%);fill-opacity:1;" d="M 204.507813 284.953125 L 204.222656 286.75 L 203.398438 288.371094 L 202.109375 289.660156 L 200.488281 290.484375 L 198.691406 290.769531 L 196.894531 290.484375 L 195.273438 289.660156 L 193.988281 288.371094 L 193.160156 286.75 L 192.875 284.953125 L 193.160156 283.15625 L 193.988281 281.535156 L 195.273438 280.25 L 196.894531 279.421875 L 198.691406 279.136719 L 200.488281 279.421875 L 202.109375 280.25 L 203.398438 281.535156 L 204.222656 283.15625 Z M 204.507813 284.953125 "/>
<path style=" stroke:none;fill-rule:nonzero;fill:rgb(80.392157%,58.431373%,4.705882%);fill-opacity:1;" d="M 189 292.707031 L 188.714844 294.503906 L 187.890625 296.125 L 186.601563 297.414063 L 184.980469 298.238281 L 183.183594 298.523438 L 181.386719 298.238281 L 179.765625 297.414063 L 178.480469 296.125 L 177.652344 294.503906 L 177.371094 292.707031 L 177.652344 290.910156 L 178.480469 289.289063 L 179.765625 288.003906 L 181.386719 287.175781 L 183.183594 286.890625 L 184.980469 287.175781 L 186.601563 288.003906 L 187.890625 289.289063 L 188.714844 290.910156 Z M 189 292.707031 "/>
<path style=" stroke:none;fill-rule:nonzero;fill:rgb(80.392157%,58.431373%,4.705882%);fill-opacity:1;" d="M 168.339844 288.539063 L 167.929688 288.949219 L 166.234375 288.695313 L 163.3125 290.011719 L 162.828125 290.613281 L 160.382813 289.660156 L 159.09375 288.371094 L 158.269531 286.75 L 157.984375 284.953125 L 158.269531 283.15625 L 159.09375 281.535156 L 160.382813 280.25 L 162.003906 279.421875 L 163.800781 279.136719 L 165.597656 279.421875 L 167.21875 280.25 L 168.503906 281.535156 L 169.46875 284.035156 Z M 168.339844 288.539063 "/>
<path style=" stroke:none;fill-rule:nonzero;fill:rgb(80.392157%,58.431373%,4.705882%);fill-opacity:1;" d="M 134.722656 478.800781 L 134.4375 480.597656 L 133.613281 482.21875 L 132.324219 483.503906 L 130.703125 484.332031 L 128.90625 484.617188 L 127.109375 484.332031 L 125.488281 483.503906 L 124.203125 482.21875 L 123.472656 480.785156 L 124.375 479.769531 L 125.210938 477.886719 L 124.875 476.421875 L 125.640625 474.519531 L 128.386719 473.238281 L 130.703125 473.269531 L 132.324219 474.09375 L 133.613281 475.382813 L 134.4375 477.003906 Z M 134.722656 478.800781 "/>
<path style=" stroke:none;fill-rule:nonzero;fill:rgb(80.392157%,58.431373%,4.705882%);fill-opacity:1;" d="M 204.871094 197.179688 L 202.570313 197.722656 L 200.773438 197.4375 L 199.152344 196.613281 L 197.863281 195.324219 L 197.039063 193.703125 L 196.753906 191.90625 L 197.039063 190.109375 L 197.863281 188.488281 L 199.152344 187.203125 L 200.773438 186.375 L 202.570313 186.09375 L 204.367188 186.375 L 205.988281 187.203125 L 207.148438 188.367188 L 206.664063 191.242188 L 206.84375 191.972656 L 206.226563 194.742188 Z M 204.871094 197.179688 "/>
<path style=" stroke:none;fill-rule:nonzero;fill:rgb(80.392157%,58.431373%,4.705882%);fill-opacity:1;" d="M 138.601563 211.292969 L 138.316406 213.089844 L 137.488281 214.710938 L 136.203125 215.996094 L 134.582031 216.824219 L 135.300781 215.007813 L 134.855469 215.347656 L 134.203125 216.882813 L 132.785156 217.109375 L 130.988281 216.824219 L 129.660156 216.148438 L 131.070313 215.113281 L 129.507813 214.882813 L 128.714844 215.34375 L 127.933594 214.421875 L 127.875 213.785156 L 129.65625 210.6875 L 133.738281 205.628906 L 136.203125 206.585938 L 137.488281 207.875 L 138.316406 209.496094 Z M 127.042969 211.746094 L 127.253906 209.496094 L 128.078125 207.875 L 129.367188 206.585938 L 130.988281 205.761719 L 133.109375 205.527344 Z M 127.042969 211.746094 "/>
<path style=" stroke:none;fill-rule:nonzero;fill:rgb(80.392157%,58.431373%,4.705882%);fill-opacity:1;" d="M 245.886719 307.914063 L 244.757813 309.042969 L 243.136719 309.871094 L 241.339844 310.152344 L 239.542969 309.871094 L 237.921875 309.042969 L 236.632813 307.757813 L 235.808594 306.136719 L 235.523438 304.339844 L 235.992188 302.183594 L 244.476563 306.140625 Z M 245.886719 307.914063 "/>
<path style=" stroke:none;fill-rule:nonzero;fill:rgb(80.392157%,58.431373%,4.705882%);fill-opacity:1;" d="M 130.847656 261.691406 L 130.425781 263.757813 L 129.152344 263.667969 L 126.582031 261.613281 L 125.417969 255.9375 L 126.828125 256.160156 L 128.449219 256.988281 L 129.734375 258.273438 L 130.5625 259.894531 Z M 121.882813 266.535156 L 120.324219 265.109375 L 119.5 263.488281 L 119.214844 261.691406 L 119.5 259.894531 L 120.324219 258.273438 L 121.613281 256.988281 L 122.886719 256.339844 L 121.183594 263.964844 L 122.0625 266.289063 Z M 121.882813 266.535156 "/>
<path style=" stroke:none;fill-rule:nonzero;fill:rgb(80.392157%,58.431373%,4.705882%);fill-opacity:1;" d="M 138.601563 277.199219 L 138.316406 278.996094 L 137.488281 280.617188 L 136.203125 281.90625 L 134.582031 282.730469 L 132.785156 283.015625 L 130.988281 282.730469 L 129.878906 282.167969 L 132.777344 280.410156 L 134.003906 276.632813 L 137.242188 273.53125 L 138.316406 275.402344 Z M 138.601563 277.199219 "/>
<path style=" stroke:none;fill-rule:nonzero;fill:rgb(80.392157%,58.431373%,4.705882%);fill-opacity:1;" d="M 162.40625 291.136719 L 161.863281 288.832031 L 162.144531 287.035156 L 162.972656 285.414063 L 164.257813 284.125 L 165.878906 283.300781 L 167.675781 283.015625 L 169.472656 283.300781 L 171.144531 284.171875 L 169.453125 284.03125 L 168.226563 288.992188 L 166.234375 288.695313 L 163.3125 290.011719 Z M 162.40625 291.136719 "/>
<path style=" stroke:none;fill-rule:nonzero;fill:rgb(80.392157%,58.431373%,4.705882%);fill-opacity:1;" d="M 193.746094 473.152344 L 195.964844 473.167969 L 195.679688 473.863281 L 195.832031 474.871094 L 196.757813 475.523438 L 196.488281 476.304688 L 195.917969 475.996094 L 194.851563 473.972656 Z M 193.746094 473.152344 "/>
<path style=" stroke:none;fill-rule:nonzero;fill:rgb(80.392157%,58.431373%,4.705882%);fill-opacity:1;" d="M 88.429688 500.046875 L 88.566406 499.308594 L 88.941406 499.117188 L 89.34375 499.789063 Z M 88.429688 500.046875 "/>
</g>
</svg>
