<?xml version="1.0" encoding="UTF-8"?>
<svg xmlns="http://www.w3.org/2000/svg" xmlns:xlink="http://www.w3.org/1999/xlink" width="378pt" height="504pt" viewBox="0 0 378 504" version="1.1">
<g id="data">
<rect x="0" y="0" width="378" height="504" style="fill:rgb(100%,100%,100%);fill-opacity:1;stroke:none;"/>
<path style=" stroke:none;fill-rule:nonzero;fill:rgb(100%,100%,100%);fill-opacity:1;" d="M 53.308594 504 L 324.691406 504 L 324.691406 0 L 53.308594 0 Z M 53.308594 504 "/>
<path style=" stroke:none;fill-rule:nonzero;fill:rgb(22.745098%,53.333333%,16.078431%);fill-opacity:1;" d="M 146.15625 403.875 L 146.316406 404.496094 L 146.257813 406.1875 L 145.757813 408.917969 L 146.015625 410.734375 L 146.824219 412.363281 L 148.234375 413.769531 L 149.585938 414.472656 L 151.226563 414.816406 L 156.984375 414.808594 L 159.132813 414.265625 L 160.042969 413.757813 L 160.964844 412.949219 L 161.636719 412.058594 L 162.421875 410.402344 L 163.445313 408.902344 L 164.878906 407.796875 L 166.582031 407.179688 L 168.394531 407.121094 L 170.304688 407.359375 L 171.488281 407.25 L 172.640625 406.894531 L 173.578125 406.371094 L 175.910156 404.140625 L 176.84375 402.640625 L 177.542969 399.847656 L 177.75 399.195313 L 178.65625 396.808594 L 178.765625 394.796875 L 178.519531 393.695313 L 177.980469 392.539063 L 177.207031 391.546875 L 175.632813 390.261719 L 174.480469 388.992188 L 173.746094 387.449219 L 173.492188 385.753906 L 173.492188 378 L 173.75 376.28125 L 174.507813 374.71875 L 175.691406 373.445313 L 177.199219 372.582031 L 178.890625 372.199219 L 180.625 372.335938 L 182.238281 372.976563 L 183.589844 374.066406 L 184.5625 375.507813 L 185.347656 377.167969 L 186.03125 378.070313 L 186.875 378.820313 L 187.808594 379.355469 L 189.8125 379.894531 L 194.867188 379.9375 L 195.46875 379.976563 L 197.539063 380.207031 L 198.980469 380.011719 L 200.273438 379.476563 L 202.695313 377.433594 L 203.667969 376.769531 L 206.15625 375.417969 L 207.261719 374.285156 L 207.886719 373.199219 L 208.34375 371.640625 L 208.867188 367.089844 L 208.652344 365.277344 L 208.035156 363.8125 L 207.097656 362.632813 L 205.871094 361.726563 L 204.445313 361.179688 L 202.914063 361.019531 L 201.484375 361.242188 L 200.140625 361.828125 L 198.40625 363.191406 L 196.554688 364.164063 L 194.480469 364.421875 L 192.449219 363.929688 L 190.789063 363.1875 L 189.605469 362.9375 L 188.410156 362.9375 L 187.121094 363.21875 L 184.644531 364.335938 L 183.519531 365.105469 L 182.554688 366.160156 L 181.554688 368.003906 L 180.332031 369.546875 L 178.667969 370.597656 L 176.746094 371.03125 L 174.792969 370.800781 L 173.027344 369.929688 L 171.269531 368.652344 L 169.371094 367.882813 L 167.625 366.78125 L 166.296875 365.5625 L 165.429688 365.050781 L 159.273438 363.394531 L 157.542969 363.5 L 155.980469 364.09375 L 154.582031 365.199219 L 153.085938 367.410156 L 152.9375 367.5625 L 153.011719 367.949219 L 153.066406 369.816406 L 153.859375 372.441406 L 154.09375 374.546875 L 153.554688 376.59375 L 152.332031 378.300781 L 152.269531 378.203125 L 152.683594 374.835938 L 153.175781 374.082031 L 152.804688 373.207031 L 150.203125 373.105469 L 145.449219 374.257813 L 143.757813 375.484375 L 142.039063 378.097656 L 136.757813 378.433594 L 136.308594 378.105469 L 136.261719 378.035156 L 137.339844 376.066406 L 140.148438 373.019531 L 141.023438 372.414063 L 142.589844 371.953125 L 147.132813 367.984375 L 147.953125 364.523438 L 151.550781 360.582031 L 153.09375 359.609375 L 154.941406 359.808594 L 160.492188 357.457031 L 163.644531 357.28125 L 167.339844 357.714844 L 172.597656 355.179688 L 173.933594 355.046875 L 174.484375 355.082031 L 179.910156 359.441406 L 180.433594 358.429688 L 177.679688 353.460938 L 178.242188 352.835938 L 180.867188 352.449219 L 181.503906 352.695313 L 181.914063 353.875 L 182.898438 354.332031 L 184.078125 356.789063 L 185.613281 357.902344 L 188.359375 357.621094 L 190.335938 355.148438 L 189.90625 355.050781 L 188.667969 355.527344 L 188.3125 355.957031 L 186.378906 356.386719 L 183.8125 354.640625 L 179.976563 346.332031 L 180.574219 345.261719 L 181.640625 345.535156 L 183.242188 346.238281 L 184.289063 346.46875 L 185.359375 346.503906 L 186.265625 346.355469 L 188.601563 345.242188 L 189.222656 344.699219 L 190.230469 343.410156 L 191.75 342.042969 L 193.648438 341.289063 L 195.691406 340.871094 L 196.882813 340.304688 L 198.804688 338.671875 L 199.804688 337.992188 L 201.992188 336.808594 L 202.839844 336.035156 L 203.453125 335.199219 L 203.957031 334.132813 L 204.214844 333.113281 L 204.277344 331.949219 L 204.109375 330.796875 L 203.761719 329.804688 L 203.164063 328.789063 L 202.089844 327.578125 L 201.160156 326.148438 L 200.683594 324.511719 L 200.703125 322.808594 L 201.214844 321.183594 L 202.175781 319.773438 L 203.503906 318.707031 L 205.085938 318.070313 L 207.757813 317.425781 L 209.371094 316.410156 L 210.570313 314.925781 L 211.238281 313.105469 L 211.332031 311.902344 L 211.128906 310.582031 L 210.625 309.347656 L 209.460938 307.707031 L 208.667969 306.132813 L 208.386719 304.394531 L 208.636719 302.648438 L 209.398438 301.058594 L 210.597656 299.773438 L 211.957031 298.699219 L 212.703125 297.824219 L 213.25 296.832031 L 213.574219 295.78125 L 213.667969 293.792969 L 213.46875 292.828125 L 212.738281 291.136719 L 212.261719 288.832031 L 212.261719 284.953125 L 212.53125 283.210938 L 213.308594 281.625 L 214.527344 280.347656 L 216.070313 279.496094 L 217.800781 279.144531 L 219.558594 279.328125 L 221.140625 280.015625 L 221.269531 280.457031 L 222.984375 284.039063 L 223.773438 285.027344 L 225.945313 294.183594 L 229.304688 299.0625 L 244.476563 306.140625 L 245.742188 307.636719 L 247.265625 310.527344 L 249.289063 315.722656 L 252.390625 319.148438 L 256.121094 320.875 L 257.207031 321.722656 L 254.738281 323.09375 L 253.890625 324.554688 L 253.765625 325.996094 L 254.984375 329.992188 L 256.160156 332.453125 L 263.316406 342.46875 L 263.640625 343.980469 L 262.804688 345.191406 L 263.28125 343.65625 L 262.507813 342.839844 L 260.445313 342 L 258.378906 342.789063 L 257.507813 342.753906 L 256.035156 341.773438 L 253.664063 338.65625 L 252.601563 338.082031 L 245.550781 339.511719 L 244.589844 338.644531 L 243.40625 338.558594 L 241.210938 339.871094 L 241.886719 340.445313 L 246.324219 340.394531 L 249.617188 339.34375 L 251.976563 339.082031 L 254.382813 342.558594 L 260.535156 347.621094 L 263.042969 349.058594 L 263.664063 349.039063 L 266.046875 352.214844 L 268.980469 359.304688 L 269.535156 362.402344 L 269.210938 365.21875 L 264.953125 369.09375 L 261.394531 373.164063 L 260.601563 374.816406 L 262.84375 374.3125 L 264.9375 375.519531 L 266.9375 378.226563 L 270.21875 378.804688 L 270.625 378.746094 L 271.910156 376.796875 L 272.234375 374.960938 L 273.40625 371.914063 L 274.707031 370.632813 L 277.851563 370.085938 L 283.34375 370.234375 L 284.253906 370.867188 L 286.703125 370.742188 L 293.949219 371.515625 L 296.914063 372.84375 L 304.070313 378.085938 L 305.367188 380.105469 L 306.730469 384.164063 L 307.179688 391.25 L 306.777344 393.191406 L 306.890625 393.976563 L 305.789063 396.917969 L 303.519531 407.832031 L 297.144531 414.53125 L 295.578125 412.011719 L 292.742188 410.515625 L 292.480469 410.636719 L 293.898438 413.703125 L 295.890625 416.628906 L 296.3125 416.765625 L 296.164063 417.742188 L 294.574219 419.804688 L 292.191406 421.289063 L 290.003906 421.65625 L 289.660156 421.574219 L 288.214844 419.332031 L 284.976563 421.730469 L 280.71875 424.230469 L 282.339844 425.378906 L 285.105469 424.398438 L 286.097656 423.375 L 286.894531 423.164063 L 287.328125 423.710938 L 287.632813 428.84375 L 285.6875 430.875 L 283.441406 432.558594 L 282.84375 432.699219 L 279.644531 432.160156 L 274.75 433.78125 L 272.609375 436.117188 L 274.253906 436.015625 L 275.152344 434.667969 L 276.683594 434.363281 L 278.285156 434.328125 L 281.054688 434.949219 L 281.828125 435.589844 L 281.691406 436.328125 L 279.554688 436.347656 L 277.390625 437.65625 L 277.96875 438.546875 L 281.382813 438.964844 L 286.863281 440.339844 L 289.394531 439.9375 L 291.074219 438.957031 L 299.742188 437.757813 L 300.988281 440.148438 L 300.773438 446.324219 L 300.335938 447.820313 L 299.394531 449.050781 L 296.972656 450.242188 L 295.839844 450.375 L 292.621094 451.640625 L 291.179688 452.742188 L 289.847656 454.226563 L 289.460938 455.09375 L 289.214844 456.324219 L 289.464844 457.886719 L 286.253906 458.289063 L 284.1875 457.9375 L 281.042969 460.90625 L 278.484375 461.933594 L 274.789063 462.777344 L 272.597656 463.816406 L 270.539063 466.589844 L 269.761719 466.949219 L 259.269531 463.777344 L 256.070313 463.507813 L 244.628906 465.699219 L 242.703125 466.390625 L 242.113281 466.964844 L 241.902344 467.984375 L 241.359375 468.164063 L 238.210938 466.1875 L 238.632813 465.4375 L 239.46875 464.933594 L 237.714844 463.296875 L 231.496094 463.171875 L 231.378906 463.496094 L 232.574219 464.835938 L 232.214844 465.75 L 231.738281 466.042969 L 226.691406 465.496094 L 219.566406 468.449219 L 217.054688 467.824219 L 210.222656 468.96875 L 208.164063 468.875 L 207.273438 468.058594 L 206.238281 469.769531 L 209.429688 471.089844 L 209.714844 470.9375 L 210.1875 472.128906 L 209.566406 473.890625 L 206.84375 474.453125 L 204.453125 473.097656 L 203.015625 472.699219 L 197.625 472.007813 L 196.175781 472.65625 L 195.679688 473.863281 L 195.832031 474.871094 L 196.757813 475.523438 L 196.488281 476.304688 L 195.917969 475.996094 L 194.851563 473.972656 L 190.289063 470.589844 L 185.898438 468.519531 L 183.121094 467.984375 L 181.648438 469.066406 L 176.207031 469.78125 L 174.339844 470.335938 L 168.992188 473.234375 L 168.214844 474.070313 L 167.203125 476.179688 L 162.746094 489.226563 L 160.929688 490.242188 L 158.269531 489.722656 L 157.554688 489.058594 L 156.527344 486.851563 L 154.683594 485.4375 L 153.613281 485.542969 L 152.417969 486.300781 L 151.738281 486.164063 L 148.46875 482.535156 L 142.796875 482.960938 L 141.527344 483.375 L 140.734375 484.175781 L 139.910156 484.507813 L 134.507813 484.320313 L 132.167969 484.859375 L 129.414063 488.195313 L 126.714844 489.746094 L 124.039063 490.597656 L 123.132813 494.289063 L 123.664063 495.292969 L 123.496094 496.125 L 122.722656 496.945313 L 120.660156 497.648438 L 119.628906 499.730469 L 118.675781 498.910156 L 117.96875 497.691406 L 118.09375 496.4375 L 117.15625 494.691406 L 115.984375 493.691406 L 112.253906 492.070313 L 111.410156 491.984375 L 110.375 492.488281 L 110.242188 494.183594 L 109.648438 494.867188 L 109.617188 494.847656 L 108.503906 493.566406 L 107.804688 492.019531 L 107.585938 490.339844 L 107.664063 489.863281 L 111.738281 488.078125 L 112.199219 488.253906 L 112.445313 488.9375 L 113.574219 489.15625 L 118.144531 485.910156 L 121.425781 483.085938 L 124.375 479.769531 L 125.210938 477.886719 L 124.875 476.421875 L 125.640625 474.519531 L 128.386719 473.238281 L 132.105469 472.640625 L 132.679688 471.785156 L 133.257813 469.527344 L 135.859375 467.5625 L 138.636719 464.640625 L 139.128906 458.542969 L 139.796875 454.753906 L 142.492188 455.105469 L 144.269531 456.015625 L 145.761719 455.429688 L 148.429688 452.488281 L 148.105469 447.519531 L 151.105469 446.613281 L 157.421875 446.269531 L 159.910156 445.683594 L 164.597656 446.761719 L 166.046875 446.148438 L 167.527344 446.515625 L 169.484375 447.285156 L 170.039063 448.109375 L 170.757813 448.421875 L 173.15625 448.464844 L 180.570313 447.503906 L 181.109375 445.632813 L 181.210938 443.15625 L 182.519531 440.25 L 190.867188 432.195313 L 195.792969 425.3125 L 197.929688 424.472656 L 198.285156 423.78125 L 198.070313 423.238281 L 197.8125 423.082031 L 196.09375 424.355469 L 192.90625 427.300781 L 190.570313 429.988281 L 189.222656 431.449219 L 185.628906 432.957031 L 183.714844 433.246094 L 182.441406 433.0625 L 178.394531 435.230469 L 177.398438 436.808594 L 177.039063 438.671875 L 176.445313 439.273438 L 174.058594 439.917969 L 170.558594 439.851563 L 166.820313 439 L 166.347656 438.652344 L 161.371094 433.375 L 159.03125 429.199219 L 155.65625 429.589844 L 149.269531 432.308594 L 149.113281 432.746094 L 147.203125 431.632813 L 146.917969 429.308594 L 148.539063 428.378906 L 150.066406 428.890625 L 151.640625 428.421875 L 152.765625 427.832031 L 153.085938 427.097656 L 152.808594 426.597656 L 147.785156 426.460938 L 143.210938 423.710938 L 139.503906 423.714844 L 136.765625 424.277344 L 136.292969 426.515625 L 135.777344 427.203125 L 133.742188 427.917969 L 132.394531 427.265625 L 131.648438 427.453125 L 129.4375 429.378906 L 126.53125 428.132813 L 127.425781 426.082031 L 128.796875 425.832031 L 131.792969 424.328125 L 131.226563 422.867188 L 130.640625 424.257813 L 127.769531 424.613281 L 122.949219 424.152344 L 121.496094 423.164063 L 124.125 421.78125 L 125.167969 421.753906 L 125.464844 421.238281 L 124.929688 417.953125 L 123.328125 417.210938 L 121.445313 417.105469 L 122.0625 415.152344 L 125.933594 413.378906 L 126.539063 411.90625 L 133.074219 411.34375 L 134.871094 409.289063 L 135.753906 407.632813 L 137.585938 406.550781 L 141.359375 406.660156 L 142.21875 406.390625 Z M 148.132813 461.816406 L 146.765625 463.515625 L 146.042969 465.421875 L 145.917969 467.242188 L 146.367188 469.09375 L 146.921875 470.09375 L 147.769531 471.046875 L 148.804688 471.792969 L 149.964844 472.285156 L 151.300781 472.523438 L 152.636719 472.445313 L 153.917969 472.066406 L 155.078125 471.398438 L 156.351563 470.203125 L 157.097656 469.09375 L 157.59375 467.75 L 157.742188 466.503906 L 157.515625 464.871094 L 156.882813 463.417969 L 155.875 462.195313 L 154.554688 461.28125 L 152.917969 460.707031 L 151.335938 460.605469 L 149.789063 460.9375 Z M 143.257813 359.757813 L 144.046875 358.515625 L 145.140625 357.351563 L 145.761719 356.363281 L 146.140625 355.394531 L 146.449219 353.699219 L 147.144531 351.808594 L 147.496094 351.394531 L 149.566406 352.007813 L 151.039063 355.578125 L 155.546875 356.503906 L 154.066406 358.859375 L 150.984375 360.816406 L 147.425781 363.976563 L 146.109375 363.875 L 144.195313 361.613281 Z M 210.738281 253.894531 L 210.148438 254.546875 L 208.691406 255.425781 L 207.042969 255.847656 L 204.296875 256.128906 L 202.628906 256.878906 L 201.296875 258.105469 L 199.910156 260.621094 L 198.613281 262.21875 L 196.839844 263.265625 L 194.816406 263.628906 L 190.9375 263.628906 L 189.042969 263.3125 L 187.355469 262.394531 L 186.058594 260.976563 L 185.292969 259.214844 L 185.144531 257.300781 L 185.628906 255.441406 L 186.695313 253.839844 L 187.785156 252.671875 L 188.410156 251.6875 L 188.785156 250.714844 L 189.09375 249.019531 L 189.667969 247.355469 L 190.714844 245.9375 L 192.136719 244.898438 L 193.804688 244.335938 L 195.378906 244.058594 L 196.453125 243.644531 L 197.425781 243.03125 L 198.40625 242.117188 L 199.339844 242.761719 L 206.488281 246.65625 L 208.910156 251.429688 Z M 174.191406 317.246094 L 174.664063 316.347656 L 176.011719 315.054688 L 177.703125 314.257813 L 179.558594 314.035156 L 181.785156 314.132813 L 184.082031 313.710938 L 185.410156 313.066406 L 187.128906 311.578125 L 188.75 310.582031 L 190.609375 310.164063 L 192.5 310.367188 L 194.226563 311.171875 L 195.601563 312.492188 L 196.472656 314.183594 L 196.800781 315.199219 L 197.078125 317.203125 L 196.652344 319.179688 L 195.574219 320.890625 L 193.976563 322.128906 L 192.335938 322.992188 L 190.832031 324.273438 L 189.582031 325.085938 L 188.164063 325.554688 L 186.304688 325.914063 L 186.128906 325.992188 L 187.28125 323.421875 L 187.71875 320.933594 L 187.855469 317.484375 L 184.742188 320.527344 L 179.199219 323.441406 L 177.335938 322.691406 Z M 143.402344 321.953125 L 142.921875 321.675781 L 141.664063 320.21875 L 140.949219 318.433594 L 140.855469 316.515625 L 141.054688 315.839844 L 142.300781 315.023438 L 144.765625 310.230469 L 145.863281 309.40625 L 149.046875 308.269531 L 150.203125 313.453125 L 147.847656 318.148438 L 145.3125 320.636719 Z M 286.679688 439.636719 L 283.058594 438.976563 L 282.164063 437.605469 L 282.484375 436.070313 L 286.839844 437.054688 L 287.960938 438.832031 Z M 236.835938 466.113281 L 235.136719 465.644531 L 236.523438 463.683594 L 237.195313 464.164063 L 237.5 465.839844 Z M 228.117188 474.644531 L 222.296875 470.886719 L 220.207031 471.1875 L 221.476563 469.683594 L 227.316406 466.367188 L 232.550781 467.761719 L 234.171875 469.894531 L 231.242188 473.621094 L 229.960938 474.269531 Z M 228.117188 474.644531 "/>
<path style=" stroke:none;fill-rule:nonzero;fill:rgb(80.392157%,58.431373%,4.705882%);fill-opacity:1;" d="M 188.9375 224.535156 L 188.859375 224.578125 L 187.0625 224.863281 L 185.265625 224.578125 L 183.644531 223.75 L 183.375 223.484375 L 184.609375 222.886719 L 186.457031 221.386719 L 187.289063 221.316406 L 189.085938 221.875 L 189.332031 222.921875 Z M 182.046875 221.859375 L 181.53125 220.84375 L 181.246094 219.046875 L 181.53125 217.25 L 182.355469 215.628906 L 183.644531 214.339844 L 185.265625 213.515625 L 187.0625 213.230469 L 188.859375 213.515625 L 190.480469 214.339844 L 191.765625 215.628906 L 192.59375 217.25 L 192.78125 218.449219 L 191.214844 219.742188 L 185.519531 221.085938 L 182.847656 221.226563 Z M 182.046875 221.859375 "/>
<path style=" stroke:none;fill-rule:nonzero;fill:rgb(80.392157%,58.431373%,4.705882%);fill-opacity:1;" d="M 177.371094 300.460938 L 177.085938 302.257813 L 176.257813 303.878906 L 174.972656 305.167969 L 173.351563 305.992188 L 171.554688 306.277344 L 169.757813 305.992188 L 168.136719 305.167969 L 167.457031 304.488281 L 169.164063 299.058594 L 171.234375 294.695313 L 171.554688 294.644531 L 173.351563 294.929688 L 174.972656 295.757813 L 176.257813 297.042969 L 177.085938 298.664063 Z M 177.371094 300.460938 "/>
<path style=" stroke:none;fill-rule:nonzero;fill:rgb(80.392157%,58.431373%,4.705882%);fill-opacity:1;" d="M 181.246094 288.832031 L 180.960938 290.628906 L 180.136719 292.25 L 178.847656 293.535156 L 177.226563 294.363281 L 175.429688 294.644531 L 173.632813 294.363281 L 172.011719 293.535156 L 171.859375 293.382813 L 174.074219 288.722656 L 176.464844 286.417969 L 178.757813 285.980469 L 180.191406 286.804688 L 180.808594 286.734375 L 180.960938 287.035156 Z M 171.902344 284.238281 L 172.011719 284.125 L 173.632813 283.300781 L 175.429688 283.015625 L 177.226563 283.300781 L 178.847656 284.125 L 180.066406 285.34375 L 180.035156 285.351563 L 174.65625 284.980469 L 172.566406 284.292969 Z M 171.902344 284.238281 "/>
<path style=" stroke:none;fill-rule:nonzero;fill:rgb(80.392157%,58.431373%,4.705882%);fill-opacity:1;" d="M 219.066406 271.226563 L 218.078125 271.382813 L 216.28125 271.101563 L 214.660156 270.273438 L 213.371094 268.988281 L 212.546875 267.367188 L 212.261719 265.570313 L 212.546875 263.773438 L 213.371094 262.152344 L 214.660156 260.863281 L 216.28125 260.039063 L 217.636719 259.824219 L 218.679688 263.09375 L 218.894531 265.933594 L 218.261719 267.402344 Z M 219.066406 271.226563 "/>
<path style=" stroke:none;fill-rule:nonzero;fill:rgb(80.392157%,58.431373%,4.705882%);fill-opacity:1;" d="M 177.371094 168.644531 L 177.085938 170.441406 L 176.257813 172.0625 L 174.972656 173.351563 L 173.351563 174.175781 L 171.554688 174.460938 L 169.757813 174.175781 L 168.136719 173.351563 L 166.847656 172.0625 L 166.261719 170.910156 L 167.808594 170.273438 L 170.480469 169.527344 L 170.492188 169.949219 L 171.554688 169.839844 L 173.589844 168.316406 L 174.046875 166.78125 L 176.859375 166.40625 L 177.085938 166.847656 Z M 177.371094 168.644531 "/>
<path style=" stroke:none;fill-rule:nonzero;fill:rgb(80.392157%,58.431373%,4.705882%);fill-opacity:1;" d="M 146.355469 265.570313 L 146.070313 267.367188 L 145.242188 268.988281 L 143.957031 270.273438 L 142.335938 271.101563 L 140.539063 271.382813 L 138.742188 271.101563 L 138.207031 270.828125 L 138.601563 268.871094 L 140.917969 265.085938 L 143.644531 263.800781 L 144.390625 261.886719 L 144.285156 261.191406 L 145.242188 262.152344 L 146.070313 263.773438 Z M 146.355469 265.570313 "/>
<path style=" stroke:none;fill-rule:nonzero;fill:rgb(80.392157%,58.431373%,4.705882%);fill-opacity:1;" d="M 157.984375 393.507813 L 157.699219 395.304688 L 156.875 396.925781 L 155.585938 398.210938 L 153.964844 399.039063 L 152.167969 399.324219 L 151.375 399.199219 L 152.136719 398.207031 L 153.054688 396.195313 L 154.199219 391.746094 L 153.734375 388.820313 L 153.246094 387.863281 L 153.964844 387.976563 L 155.585938 388.804688 L 156.875 390.089844 L 157.699219 391.710938 Z M 157.984375 393.507813 "/>
</g>
</svg>
