<?xml version="1.0" encoding="UTF-8"?>
<svg xmlns="http://www.w3.org/2000/svg" xmlns:xlink="http://www.w3.org/1999/xlink" width="378pt" height="504pt" viewBox="0 0 378 504" version="1.1">
<g id="data">
<rect x="0" y="0" width="378" height="504" style="fill:rgb(100%,100%,100%);fill-opacity:1;stroke:none;"/>
<path style=" stroke:none;fill-rule:nonzero;fill:rgb(100%,100%,100%);fill-opacity:1;" d="M 53.308594 504 L 324.691406 504 L 324.691406 0 L 53.308594 0 Z M 53.308594 504 "/>
<path style=" stroke:none;fill-rule:nonzero;fill:rgb(22.745098%,53.333333%,16.078431%);fill-opacity:1;" d="M 171.039063 451.59375 L 170.121094 450.15625 L 169.660156 448.507813 L 169.683594 447.578125 L 170.039063 448.109375 L 170.757813 448.421875 L 173.15625 448.464844 L 180.570313 447.503906 L 181.109375 445.632813 L 181.210938 443.15625 L 182.519531 440.25 L 190.867188 432.195313 L 195.792969 425.3125 L 197.929688 424.472656 L 198.285156 423.78125 L 198.070313 423.238281 L 197.8125 423.082031 L 196.09375 424.355469 L 192.90625 427.300781 L 190.570313 429.988281 L 189.222656 431.449219 L 185.628906 432.957031 L 183.714844 433.246094 L 182.722656 433.101563 L 183.011719 432.894531 L 184.210938 431.082031 L 184.613281 429.523438 L 184.535156 427.8125 L 183.957031 426.203125 L 182.40625 424.132813 L 181.585938 422.601563 L 181.25 420.890625 L 181.4375 419.160156 L 182.128906 417.5625 L 183.265625 416.242188 L 184.738281 415.316406 L 186.417969 414.867188 L 188.347656 414.652344 L 189.464844 414.273438 L 190.585938 413.597656 L 191.300781 412.921875 L 192.429688 411 L 192.96875 407.992188 L 193.625 406.164063 L 194.84375 404.65625 L 196.492188 403.632813 L 198 403.015625 L 198.910156 402.425781 L 199.691406 401.675781 L 200.242188 400.910156 L 201.035156 398.9375 L 201.347656 396.613281 L 201.867188 394.871094 L 202.902344 393.371094 L 204.347656 392.265625 L 206.066406 391.664063 L 207.886719 391.621094 L 209.632813 392.144531 L 211.128906 393.179688 L 212.230469 394.628906 L 213.496094 396.972656 L 214.757813 398.199219 L 216.335938 398.984375 L 218.96875 399.390625 L 220.777344 399.988281 L 222.296875 401.136719 L 223.363281 402.714844 L 223.863281 404.554688 L 223.742188 406.453125 L 223.011719 408.214844 L 221.402344 410.800781 L 220.996094 412.769531 L 221.292969 414.753906 L 222.332031 416.648438 L 223.277344 417.558594 L 224.589844 418.296875 L 225.90625 418.664063 L 228.777344 418.960938 L 230.296875 418.683594 L 231.757813 417.960938 L 233.996094 415.863281 L 234.949219 414.453125 L 235.347656 413.390625 L 235.617188 411.722656 L 235.523438 405.222656 L 235.773438 403.445313 L 236.554688 401.828125 L 237.792969 400.527344 L 239.234375 399.421875 L 240.683594 397.617188 L 241.367188 396.902344 L 243.488281 395.03125 L 244.070313 394.15625 L 244.46875 393.136719 L 244.671875 390.71875 L 244.476563 389.734375 L 243.753906 388.058594 L 243.351563 386.691406 L 243.296875 385.265625 L 243.460938 383.328125 L 243.882813 381.585938 L 244.816406 380.058594 L 246.171875 378.882813 L 247.820313 378.179688 L 249.605469 378.011719 L 251.355469 378.394531 L 252.910156 379.292969 L 254.113281 380.617188 L 254.855469 382.25 L 255.347656 384.007813 L 255.910156 385.082031 L 256.683594 386.015625 L 257.558594 386.707031 L 259.074219 387.394531 L 261.554688 387.753906 L 262.902344 388.117188 L 264.125 388.789063 L 265.605469 389.859375 L 266.746094 390.359375 L 267.757813 390.582031 L 268.746094 390.605469 L 270.6875 390.132813 L 273.121094 388.59375 L 275.214844 387.78125 L 276.929688 387.476563 L 277.820313 387.132813 L 279.214844 386.191406 L 280.070313 385.234375 L 280.707031 384.058594 L 281.058594 382.773438 L 281.125 380.761719 L 281.503906 378.882813 L 282.476563 377.230469 L 283.929688 375.984375 L 285.710938 375.277344 L 287.628906 375.1875 L 289.46875 375.722656 L 291.03125 376.832031 L 291.957031 377.746094 L 293.097656 379.347656 L 293.640625 381.234375 L 293.855469 383.144531 L 294.210938 384.183594 L 295.566406 386.101563 L 296.289063 386.695313 L 297.308594 387.234375 L 298.425781 387.566406 L 300.039063 387.71875 L 301.699219 388.128906 L 303.171875 389.003906 L 304.320313 390.269531 L 305.054688 391.816406 L 305.308594 393.507813 L 305.308594 397.382813 L 305.066406 399.046875 L 304.355469 400.574219 L 303.242188 401.832031 L 301.8125 402.71875 L 300.191406 403.15625 L 298.507813 403.117188 L 295.617188 402.621094 L 292.722656 403.117188 L 290.175781 402.984375 L 288.398438 402.488281 L 287.300781 402.414063 L 286.019531 402.597656 L 284.742188 403.09375 L 283.699219 403.804688 L 282.8125 404.746094 L 282.175781 405.816406 L 281.519531 407.648438 L 281.28125 408.90625 L 281.292969 410.058594 L 281.53125 411.183594 L 281.988281 412.238281 L 282.644531 413.183594 L 283.476563 413.980469 L 284.445313 414.597656 L 286.0625 415.214844 L 287.636719 416.121094 L 288.855469 417.46875 L 289.597656 419.125 L 289.792969 420.933594 L 289.660156 421.574219 L 288.214844 419.332031 L 284.976563 421.730469 L 280.71875 424.230469 L 282.339844 425.378906 L 285.105469 424.398438 L 286.097656 423.375 L 286.894531 423.164063 L 287.328125 423.710938 L 287.441406 425.628906 L 286.679688 426.578125 L 286.003906 428.46875 L 285.851563 430.703125 L 285.6875 430.875 L 283.441406 432.558594 L 282.84375 432.699219 L 279.644531 432.160156 L 274.75 433.78125 L 272.609375 436.117188 L 274.253906 436.015625 L 275.152344 434.667969 L 276.683594 434.363281 L 278.285156 434.328125 L 281.054688 434.949219 L 281.828125 435.589844 L 281.691406 436.328125 L 279.554688 436.347656 L 277.390625 437.65625 L 277.96875 438.546875 L 281.382813 438.964844 L 286.863281 440.339844 L 289.394531 439.9375 L 291.074219 438.957031 L 293.949219 438.558594 L 294.160156 438.621094 L 295.550781 439.515625 L 296.632813 440.765625 L 297.320313 442.269531 L 297.554688 443.90625 L 297.554688 447.785156 L 297.277344 449.550781 L 296.933594 450.246094 L 295.839844 450.375 L 292.621094 451.640625 L 291.179688 452.742188 L 289.847656 454.226563 L 289.460938 455.09375 L 289.214844 456.324219 L 289.464844 457.886719 L 286.253906 458.289063 L 284.1875 457.9375 L 281.042969 460.90625 L 278.484375 461.933594 L 274.789063 462.777344 L 272.597656 463.816406 L 270.539063 466.589844 L 269.761719 466.949219 L 259.269531 463.777344 L 256.070313 463.507813 L 244.628906 465.699219 L 242.703125 466.390625 L 242.113281 466.964844 L 241.902344 467.984375 L 241.359375 468.164063 L 238.210938 466.1875 L 238.632813 465.4375 L 239.46875 464.933594 L 237.714844 463.296875 L 231.496094 463.171875 L 231.378906 463.496094 L 232.574219 464.835938 L 232.214844 465.75 L 231.738281 466.042969 L 226.691406 465.496094 L 219.566406 468.449219 L 217.054688 467.824219 L 210.222656 468.96875 L 208.164063 468.875 L 207.273438 468.058594 L 206.238281 469.769531 L 209.429688 471.089844 L 209.714844 470.9375 L 210.1875 472.128906 L 209.566406 473.890625 L 206.84375 474.453125 L 204.453125 473.097656 L 203.015625 472.699219 L 197.625 472.007813 L 196.175781 472.65625 L 195.679688 473.863281 L 195.832031 474.871094 L 196.757813 475.523438 L 196.488281 476.304688 L 195.917969 475.996094 L 194.851563 473.972656 L 190.289063 470.589844 L 185.898438 468.519531 L 183.910156 468.136719 L 183.445313 467.847656 L 180.917969 465.839844 L 180.007813 465.464844 L 178.234375 465.132813 L 176.667969 464.597656 L 175.316406 463.644531 L 174.285156 462.347656 L 173.664063 460.8125 L 173.496094 459.164063 L 173.59375 456.9375 L 173.171875 454.640625 L 172.527344 453.3125 Z M 169.679688 439.652344 L 169.671875 439.21875 L 170.195313 437.5 L 171.21875 436.023438 L 172.640625 434.929688 L 174.332031 434.320313 L 176.125 434.257813 L 179.460938 434.660156 L 178.394531 435.230469 L 177.398438 436.808594 L 177.039063 438.671875 L 176.445313 439.273438 L 174.058594 439.917969 L 170.558594 439.851563 Z M 286.679688 439.636719 L 283.058594 438.976563 L 282.164063 437.605469 L 282.484375 436.070313 L 286.839844 437.054688 L 287.960938 438.832031 Z M 236.835938 466.113281 L 235.136719 465.644531 L 236.523438 463.683594 L 237.195313 464.164063 L 237.5 465.839844 Z M 228.117188 474.644531 L 222.296875 470.886719 L 220.207031 471.1875 L 221.476563 469.683594 L 227.316406 466.367188 L 232.550781 467.761719 L 234.171875 469.894531 L 231.242188 473.621094 L 229.960938 474.269531 Z M 228.117188 474.644531 "/>
<path style=" stroke:none;fill-rule:nonzero;fill:rgb(80.392157%,58.431373%,4.705882%);fill-opacity:1;" d="M 247.152344 358.617188 L 246.871094 360.414063 L 246.042969 362.035156 L 244.757813 363.320313 L 243.136719 364.144531 L 241.339844 364.429688 L 239.542969 364.144531 L 237.921875 363.320313 L 236.632813 362.035156 L 235.808594 360.414063 L 235.523438 358.617188 L 235.808594 356.816406 L 236.632813 355.195313 L 237.921875 353.910156 L 239.542969 353.085938 L 241.339844 352.800781 L 243.136719 353.085938 L 244.757813 353.910156 L 246.042969 355.195313 L 246.871094 356.816406 Z M 247.152344 358.617188 "/>
<path style=" stroke:none;fill-rule:nonzero;fill:rgb(80.392157%,58.431373%,4.705882%);fill-opacity:1;" d="M 231.644531 374.125 L 231.363281 375.921875 L 230.535156 377.542969 L 229.25 378.828125 L 227.628906 379.652344 L 225.832031 379.9375 L 224.035156 379.652344 L 222.414063 378.828125 L 221.125 377.542969 L 220.300781 375.921875 L 220.015625 374.125 L 220.300781 372.324219 L 221.125 370.703125 L 222.414063 369.417969 L 224.035156 368.59375 L 225.832031 368.308594 L 227.628906 368.59375 L 229.25 369.417969 L 230.535156 370.703125 L 231.363281 372.324219 Z M 231.644531 374.125 "/>
<path style=" stroke:none;fill-rule:nonzero;fill:rgb(80.392157%,58.431373%,4.705882%);fill-opacity:1;" d="M 247.152344 315.96875 L 246.871094 317.765625 L 246.042969 319.386719 L 244.757813 320.675781 L 243.136719 321.5 L 241.339844 321.785156 L 239.542969 321.5 L 237.921875 320.675781 L 236.632813 319.386719 L 235.808594 317.765625 L 235.523438 315.96875 L 235.808594 314.171875 L 236.632813 312.550781 L 237.921875 311.265625 L 239.542969 310.4375 L 241.339844 310.152344 L 243.136719 310.4375 L 244.757813 311.265625 L 246.042969 312.550781 L 246.871094 314.171875 Z M 247.152344 315.96875 "/>
<path style=" stroke:none;fill-rule:nonzero;fill:rgb(80.392157%,58.431373%,4.705882%);fill-opacity:1;" d="M 143.792969 321.6875 L 142.617188 321.5 L 140.996094 320.675781 L 139.710938 319.386719 L 139.214844 318.414063 L 139.816406 316.644531 L 142.300781 315.023438 L 144.765625 310.230469 L 144.789063 310.214844 L 146.210938 310.4375 L 147.832031 311.265625 L 149.121094 312.550781 L 149.894531 314.070313 L 147.847656 318.148438 L 145.3125 320.636719 Z M 143.792969 321.6875 "/>
<path style=" stroke:none;fill-rule:nonzero;fill:rgb(80.392157%,58.431373%,4.705882%);fill-opacity:1;" d="M 169.617188 172.523438 L 169.332031 174.320313 L 168.503906 175.941406 L 167.21875 177.226563 L 165.597656 178.054688 L 163.800781 178.339844 L 162.003906 178.054688 L 160.382813 177.226563 L 159.09375 175.941406 L 158.699219 175.160156 L 161.140625 173.015625 L 167.808594 170.273438 L 168.941406 169.957031 L 169.332031 170.726563 Z M 158.023438 172.765625 L 157.984375 172.523438 L 158.269531 170.726563 L 159.09375 169.105469 L 159.925781 168.273438 L 160.300781 168.324219 L 161.058594 169.320313 Z M 161.933594 167.027344 L 162.003906 166.992188 L 162.8125 166.863281 L 162.722656 166.96875 L 162.175781 167.183594 Z M 161.933594 167.027344 "/>
<path style=" stroke:none;fill-rule:nonzero;fill:rgb(80.392157%,58.431373%,4.705882%);fill-opacity:1;" d="M 123.09375 253.9375 L 122.808594 255.734375 L 121.980469 257.355469 L 120.695313 258.644531 L 119.074219 259.46875 L 117.578125 259.707031 L 117.992188 256.269531 L 120.617188 249.195313 L 120.695313 249.234375 L 121.980469 250.519531 L 122.808594 252.140625 Z M 123.09375 253.9375 "/>
</g>
</svg>
