<?xml version="1.0" encoding="UTF-8"?>
<svg xmlns="http://www.w3.org/2000/svg" xmlns:xlink="http://www.w3.org/1999/xlink" width="378pt" height="504pt" viewBox="0 0 378 504" version="1.1">
<g id="data">
<rect x="0" y="0" width="378" height="504" style="fill:rgb(100%,100%,100%);fill-opacity:1;stroke:none;"/>
<path style=" stroke:none;fill-rule:nonzero;fill:rgb(100%,100%,100%);fill-opacity:1;" d="M 53.308594 504 L 324.691406 504 L 324.691406 0 L 53.308594 0 Z M 53.308594 504 "/>
<path style=" stroke:none;fill-rule:nonzero;fill:rgb(22.745098%,53.333333%,16.078431%);fill-opacity:1;" d="M 183.042969 439.742188 L 183.835938 439.457031 L 187.269531 437 L 189.597656 433.480469 L 189.621094 433.398438 L 190.867188 432.195313 L 195.792969 425.3125 L 197.929688 424.472656 L 198.285156 423.78125 L 198.070313 423.238281 L 197.8125 423.082031 L 196.09375 424.355469 L 192.90625 427.300781 L 190.570313 429.988281 L 190.464844 430.105469 L 190.304688 426.671875 L 189.136719 423.414063 L 187.0625 420.644531 L 189.613281 420.363281 L 191.925781 419.582031 L 194.125 418.253906 L 195.898438 416.578125 L 197.972656 413.046875 L 198.691406 409.015625 L 200.707031 408.191406 L 202.535156 407.003906 L 204.109375 405.5 L 205.375 403.726563 L 206.703125 400.4375 L 207.109375 397.382813 L 208.800781 400.523438 L 211.363281 403.003906 L 214.554688 404.59375 L 218.078125 405.136719 L 215.917969 408.605469 L 215.089844 412.605469 L 215.695313 416.644531 L 217.660156 420.222656 L 219.78125 422.265625 L 222.347656 423.707031 L 224.8125 424.398438 L 229.003906 424.828125 L 232.257813 424.222656 L 235.109375 422.792969 L 238.449219 419.660156 L 240.148438 417.144531 L 240.996094 414.890625 L 241.441406 412.144531 L 241.339844 405.136719 L 243.328125 403.609375 L 245.214844 401.261719 L 247.90625 398.886719 L 249.316406 396.742188 L 250.191406 394.464844 L 250.539063 390.386719 L 250.058594 387.992188 L 249.09375 385.753906 L 249.253906 383.816406 L 249.910156 386.164063 L 251.042969 388.320313 L 252.597656 390.199219 L 254.511719 391.710938 L 257.550781 393.066406 L 260.722656 393.507813 L 262.703125 394.933594 L 264.933594 395.917969 L 267.066406 396.382813 L 269.375 396.433594 L 272.984375 395.558594 L 276.230469 393.507813 L 278.5 393.105469 L 280.53125 392.320313 L 283.070313 390.605469 L 284.859375 388.597656 L 286.140625 386.238281 L 286.847656 383.644531 L 286.9375 380.960938 L 287.863281 381.875 L 288.144531 384.429688 L 288.980469 386.855469 L 291.269531 390.101563 L 293.058594 391.566406 L 295.101563 392.648438 L 297.191406 393.277344 L 299.492188 393.507813 L 299.492188 397.382813 L 295.617188 396.71875 L 291.738281 397.382813 L 289.386719 396.726563 L 287.078125 396.570313 L 284.535156 396.9375 L 282.023438 397.910156 L 279.894531 399.355469 L 278.140625 401.230469 L 276.890625 403.328125 L 275.894531 406.109375 L 275.457031 408.382813 L 275.480469 410.695313 L 275.960938 412.957031 L 276.878906 415.082031 L 278.199219 416.980469 L 279.871094 418.582031 L 281.824219 419.820313 L 283.984375 420.644531 L 281.597656 423.589844 L 281.539063 423.75 L 280.71875 424.230469 L 281.230469 424.59375 L 280.257813 427.269531 L 279.984375 431.28125 L 280.082031 432.234375 L 279.644531 432.160156 L 274.75 433.78125 L 272.609375 436.117188 L 274.253906 436.015625 L 275.152344 434.667969 L 276.683594 434.363281 L 278.285156 434.328125 L 280.421875 434.808594 L 280.882813 436.335938 L 279.554688 436.347656 L 277.390625 437.65625 L 277.96875 438.546875 L 281.382813 438.964844 L 282.519531 439.25 L 282.820313 439.742188 L 285.304688 441.964844 L 288.4375 443.429688 L 291.738281 443.90625 L 291.738281 447.785156 L 289.566406 449.492188 L 287.863281 451.660156 L 286.054688 453.019531 L 283.984375 455.539063 L 281.636719 457.425781 L 280.109375 459.414063 L 277.226563 459.289063 L 273.503906 459.972656 L 270.769531 461.300781 L 268.476563 463.292969 L 256.847656 463.292969 L 252.839844 462.628906 L 249.09375 463.292969 L 246.714844 463.136719 L 242.15625 463.523438 L 239.265625 464.546875 L 239.144531 464.628906 L 237.714844 463.296875 L 231.496094 463.171875 L 231.378906 463.496094 L 232.574219 464.835938 L 232.214844 465.75 L 231.738281 466.042969 L 226.691406 465.496094 L 219.566406 468.449219 L 217.054688 467.824219 L 210.222656 468.96875 L 208.164063 468.875 L 207.273438 468.058594 L 206.238281 469.769531 L 209.429688 471.089844 L 209.714844 470.9375 L 210.1875 472.128906 L 209.566406 473.890625 L 206.84375 474.453125 L 204.453125 473.097656 L 203.015625 472.699219 L 197.625 472.007813 L 196.175781 472.65625 L 195.679688 473.863281 L 195.832031 474.871094 L 196.757813 475.523438 L 196.675781 475.761719 L 195.519531 475.242188 L 194.851563 473.972656 L 194.753906 473.902344 L 194.65625 472.242188 L 193.886719 469.667969 L 192.550781 467.339844 L 190.710938 465.382813 L 187.0625 463.292969 L 183.785156 460.71875 L 181.550781 459.824219 L 179.308594 459.414063 L 179.433594 456.535156 L 178.75 452.808594 L 177.421875 450.078125 L 175.734375 448.132813 L 180.570313 447.503906 L 181.109375 445.632813 L 181.210938 443.15625 L 182.519531 440.25 Z M 237.488281 465.761719 L 237.179688 465.96875 L 236.835938 466.113281 L 235.136719 465.644531 L 236.523438 463.683594 L 237.195313 464.164063 Z M 234.167969 469.886719 L 234.140625 469.9375 L 233.269531 471.042969 L 222.347656 470.917969 L 222.296875 470.886719 L 222.089844 470.914063 L 220.449219 470.898438 L 221.476563 469.683594 L 227.316406 466.367188 L 232.550781 467.761719 Z M 234.167969 469.886719 "/>
<path style=" stroke:none;fill-rule:nonzero;fill:rgb(80.392157%,58.431373%,4.705882%);fill-opacity:1;" d="M 231.644531 374.125 L 231.363281 375.921875 L 230.535156 377.542969 L 229.25 378.828125 L 227.628906 379.652344 L 225.832031 379.9375 L 224.035156 379.652344 L 222.414063 378.828125 L 221.125 377.542969 L 220.300781 375.921875 L 220.015625 374.125 L 220.300781 372.324219 L 221.125 370.703125 L 222.414063 369.417969 L 224.035156 368.59375 L 225.832031 368.308594 L 227.628906 368.59375 L 229.25 369.417969 L 230.535156 370.703125 L 231.363281 372.324219 Z M 231.644531 374.125 "/>
<path style=" stroke:none;fill-rule:nonzero;fill:rgb(80.392157%,58.431373%,4.705882%);fill-opacity:1;" d="M 247.152344 358.617188 L 246.871094 360.414063 L 246.042969 362.035156 L 244.757813 363.320313 L 243.136719 364.144531 L 241.339844 364.429688 L 239.542969 364.144531 L 237.921875 363.320313 L 236.632813 362.035156 L 235.808594 360.414063 L 235.523438 358.617188 L 235.808594 356.816406 L 236.632813 355.195313 L 237.921875 353.910156 L 239.542969 353.085938 L 241.339844 352.800781 L 243.136719 353.085938 L 244.757813 353.910156 L 246.042969 355.195313 L 246.871094 356.816406 Z M 247.152344 358.617188 "/>
<path style=" stroke:none;fill-rule:nonzero;fill:rgb(80.392157%,58.431373%,4.705882%);fill-opacity:1;" d="M 247.152344 315.96875 L 246.871094 317.765625 L 246.042969 319.386719 L 244.757813 320.675781 L 243.136719 321.5 L 241.339844 321.785156 L 239.542969 321.5 L 237.921875 320.675781 L 236.632813 319.386719 L 235.808594 317.765625 L 235.523438 315.96875 L 235.808594 314.171875 L 236.632813 312.550781 L 237.921875 311.265625 L 239.542969 310.4375 L 241.339844 310.152344 L 243.136719 310.4375 L 244.757813 311.265625 L 246.042969 312.550781 L 246.871094 314.171875 Z M 247.152344 315.96875 "/>
<path style=" stroke:none;fill-rule:nonzero;fill:rgb(80.392157%,58.431373%,4.705882%);fill-opacity:1;" d="M 289.800781 374.125 L 289.515625 375.921875 L 288.6875 377.542969 L 287.402344 378.828125 L 285.78125 379.652344 L 283.984375 379.9375 L 282.1875 379.652344 L 280.566406 378.828125 L 279.28125 377.542969 L 278.453125 375.921875 L 278.167969 374.125 L 278.453125 372.324219 L 279.847656 370.140625 L 283.34375 370.234375 L 284.253906 370.867188 L 288.824219 370.96875 L 289.515625 372.324219 Z M 289.800781 374.125 "/>
<path style=" stroke:none;fill-rule:nonzero;fill:rgb(80.392157%,58.431373%,4.705882%);fill-opacity:1;" d="M 143.792969 321.6875 L 142.617188 321.5 L 140.996094 320.675781 L 139.710938 319.386719 L 139.214844 318.414063 L 139.816406 316.644531 L 142.300781 315.023438 L 144.789063 310.214844 L 146.210938 310.4375 L 147.832031 311.265625 L 149.121094 312.550781 L 149.894531 314.070313 L 147.847656 318.148438 L 145.3125 320.636719 Z M 143.792969 321.6875 "/>
<path style=" stroke:none;fill-rule:nonzero;fill:rgb(80.392157%,58.431373%,4.705882%);fill-opacity:1;" d="M 169.617188 172.523438 L 169.332031 174.320313 L 168.503906 175.941406 L 167.21875 177.226563 L 165.597656 178.054688 L 163.800781 178.339844 L 162.003906 178.054688 L 160.382813 177.226563 L 158.699219 175.160156 L 161.140625 173.015625 L 168.941406 169.957031 Z M 161.933594 167.027344 L 162.8125 166.863281 L 162.175781 167.183594 Z M 158.023438 172.765625 L 158.269531 170.726563 L 159.09375 169.105469 L 159.925781 168.273438 L 160.300781 168.324219 L 161.058594 169.320313 Z M 158.023438 172.765625 "/>
<path style=" stroke:none;fill-rule:nonzero;fill:rgb(80.392157%,58.431373%,4.705882%);fill-opacity:1;" d="M 169.675781 439.652344 L 169.898438 438.234375 L 170.726563 436.613281 L 172.011719 435.324219 L 173.632813 434.5 L 175.429688 434.214844 L 177.226563 434.5 L 178.527344 435.160156 L 177.398438 436.808594 L 177.039063 438.671875 L 176.445313 439.273438 L 174.058594 439.917969 Z M 169.675781 439.652344 "/>
<path style=" stroke:none;fill-rule:nonzero;fill:rgb(80.392157%,58.431373%,4.705882%);fill-opacity:1;" d="M 123.09375 253.9375 L 122.808594 255.734375 L 121.980469 257.355469 L 120.695313 258.644531 L 119.074219 259.46875 L 117.578125 259.707031 L 117.992188 256.269531 L 120.617188 249.195313 L 121.980469 250.519531 L 122.808594 252.140625 Z M 123.09375 253.9375 "/>
</g>
</svg>
