<?xml version="1.0" encoding="UTF-8"?>
<svg xmlns="http://www.w3.org/2000/svg" xmlns:xlink="http://www.w3.org/1999/xlink" width="378pt" height="504pt" viewBox="0 0 378 504" version="1.1">
<g id="data">
<rect x="0" y="0" width="378" height="504" style="fill:rgb(100%,100%,100%);fill-opacity:1;stroke:none;"/>
<path style=" stroke:none;fill-rule:nonzero;fill:rgb(100%,100%,100%);fill-opacity:1;" d="M 53.308594 504 L 324.691406 504 L 324.691406 0 L 53.308594 0 Z M 53.308594 504 "/>
<path style=" stroke:none;fill-rule:nonzero;fill:rgb(22.745098%,53.333333%,16.078431%);fill-opacity:1;" d="M 218.078125 284.953125 L 219.023438 287.195313 L 220.414063 289.191406 L 222.820313 291.296875 L 225.566406 292.585938 L 225.945313 294.183594 L 229.304688 299.0625 L 234.855469 301.652344 L 235.15625 301.933594 L 236.972656 303.09375 L 239.09375 303.929688 L 240.148438 304.121094 L 241.40625 304.707031 L 241.746094 306.582031 L 242.527344 308.589844 L 243.742188 310.519531 L 245.214844 312.09375 L 247.070313 315.730469 L 249.640625 318.21875 L 252.96875 319.847656 L 252.671875 327.023438 L 253.492188 330.75 L 254.921875 333.3125 L 258.121094 337.066406 L 260.722656 339.230469 L 262.699219 341.664063 L 262.789063 341.730469 L 263.316406 342.46875 L 263.640625 343.980469 L 262.804688 345.191406 L 263.28125 343.65625 L 262.507813 342.839844 L 260.445313 342 L 258.378906 342.789063 L 257.507813 342.753906 L 256.035156 341.773438 L 253.664063 338.65625 L 252.601563 338.082031 L 245.550781 339.511719 L 244.589844 338.644531 L 243.40625 338.558594 L 241.210938 339.871094 L 241.886719 340.445313 L 246.324219 340.394531 L 249.617188 339.34375 L 251.976563 339.082031 L 254.382813 342.558594 L 260.535156 347.621094 L 263.042969 349.058594 L 263.15625 349.054688 L 263.148438 349.796875 L 263.570313 352.066406 L 265.390625 355.734375 L 268.476563 358.617188 L 269.242188 362.765625 L 269.445313 363.175781 L 269.210938 365.21875 L 264.953125 369.09375 L 261.394531 373.164063 L 260.601563 374.816406 L 262.84375 374.3125 L 264.9375 375.519531 L 266.9375 378.226563 L 270.21875 378.804688 L 270.625 378.746094 L 271.910156 376.796875 L 272.234375 374.960938 L 273.40625 371.914063 L 274.707031 370.632813 L 277.851563 370.085938 L 278.285156 370.097656 L 278.3125 370.105469 L 281.984375 370.410156 L 283.570313 370.390625 L 284.253906 370.867188 L 286.703125 370.742188 L 293.949219 371.515625 L 296.722656 372.757813 L 298.210938 374.769531 L 300.574219 376.730469 L 303.371094 378 L 304.84375 379.570313 L 305.585938 380.753906 L 306.730469 384.164063 L 307.121094 390.28125 L 306.582031 393.378906 L 306.746094 394.363281 L 305.789063 396.917969 L 305.164063 399.925781 L 304.558594 400.886719 L 303.742188 403.015625 L 303.371094 405.136719 L 301.59375 407.117188 L 300.363281 409.332031 L 299.765625 411.777344 L 297.144531 414.53125 L 295.578125 412.011719 L 292.742188 410.515625 L 292.480469 410.636719 L 293.898438 413.703125 L 295.816406 416.523438 L 295.617188 416.769531 L 293.355469 418.566406 L 291.058594 421.480469 L 290.003906 421.65625 L 289.660156 421.574219 L 288.214844 419.332031 L 284.976563 421.730469 L 280.71875 424.230469 L 282.339844 425.378906 L 285.105469 424.398438 L 286.097656 423.375 L 286.894531 423.164063 L 287.328125 423.710938 L 287.632813 428.84375 L 285.6875 430.875 L 283.441406 432.558594 L 282.84375 432.699219 L 279.644531 432.160156 L 274.75 433.78125 L 272.609375 436.117188 L 274.253906 436.015625 L 275.152344 434.667969 L 276.683594 434.363281 L 278.285156 434.328125 L 281.054688 434.949219 L 281.828125 435.589844 L 281.691406 436.328125 L 279.554688 436.347656 L 277.390625 437.65625 L 277.96875 438.546875 L 281.382813 438.964844 L 286.863281 440.339844 L 289.394531 439.9375 L 291.074219 438.957031 L 294.585938 438.46875 L 295.074219 438.785156 L 297.222656 439.628906 L 299.492188 440.03125 L 299.492188 447.785156 L 297.125 448.226563 L 295.015625 449.089844 L 293.113281 450.347656 L 291.1875 452.183594 L 288.886719 455.507813 L 288.222656 458.042969 L 286.253906 458.289063 L 284.1875 457.9375 L 282.179688 459.832031 L 279.734375 460.605469 L 277.902344 461.742188 L 277.371094 462.1875 L 274.789063 462.777344 L 272.597656 463.816406 L 270.539063 466.589844 L 269.761719 466.949219 L 259.480469 463.839844 L 259.332031 463.773438 L 255.597656 463.148438 L 252.214844 463.378906 L 248.378906 464.65625 L 247.84375 465.085938 L 244.628906 465.699219 L 242.703125 466.390625 L 242.113281 466.964844 L 242.085938 467.109375 L 240.582031 467.257813 L 240.140625 467.398438 L 238.210938 466.1875 L 238.632813 465.4375 L 239.46875 464.933594 L 237.714844 463.296875 L 231.496094 463.171875 L 231.378906 463.496094 L 232.574219 464.835938 L 232.214844 465.75 L 231.738281 466.042969 L 226.691406 465.496094 L 219.566406 468.449219 L 217.054688 467.824219 L 210.222656 468.96875 L 208.164063 468.875 L 207.273438 468.058594 L 206.238281 469.769531 L 209.429688 471.089844 L 209.714844 470.9375 L 210.1875 472.128906 L 209.566406 473.890625 L 206.84375 474.453125 L 204.453125 473.097656 L 203.015625 472.699219 L 197.625 472.007813 L 196.175781 472.65625 L 195.679688 473.863281 L 195.832031 474.871094 L 196.757813 475.523438 L 196.488281 476.304688 L 195.917969 475.996094 L 194.851563 473.972656 L 190.289063 470.589844 L 185.898438 468.519531 L 183.121094 467.984375 L 181.648438 469.066406 L 176.207031 469.78125 L 174.339844 470.335938 L 168.992188 473.234375 L 168.214844 474.070313 L 167.203125 476.179688 L 162.746094 489.226563 L 160.929688 490.242188 L 158.269531 489.722656 L 157.554688 489.058594 L 156.527344 486.851563 L 154.683594 485.4375 L 153.613281 485.542969 L 152.417969 486.300781 L 151.929688 486.203125 L 151.3125 485.6875 L 148.46875 482.535156 L 144.929688 482.800781 L 142.0625 482.019531 L 138.09375 482.039063 L 134.929688 483.085938 L 132.527344 484.777344 L 132.167969 484.859375 L 129.414063 488.195313 L 126.714844 489.746094 L 124.039063 490.597656 L 123.132813 494.289063 L 123.210938 494.433594 L 122.292969 495.609375 L 121.519531 497.355469 L 120.882813 497.574219 L 120.015625 495.609375 L 118.292969 493.382813 L 116.085938 491.632813 L 113.398438 490.429688 L 115.746094 488.542969 L 117.585938 486.308594 L 118.144531 485.910156 L 121.425781 483.085938 L 124.375 479.769531 L 125.210938 477.886719 L 124.875 476.421875 L 125.640625 474.519531 L 128.386719 473.238281 L 132.105469 472.640625 L 132.679688 471.785156 L 133.257813 469.527344 L 135.859375 467.5625 L 138.636719 464.640625 L 138.890625 461.5 L 139.007813 461.40625 L 140.539063 459.414063 L 143.960938 457.722656 L 141.65625 460.589844 L 140.304688 464.160156 L 140.050781 467.742188 L 140.902344 471.226563 L 142.144531 473.472656 L 143.851563 475.394531 L 145.933594 476.890625 L 148.296875 477.898438 L 150.953125 478.367188 L 153.644531 478.214844 L 156.226563 477.445313 L 158.5625 476.101563 L 160.808594 473.996094 L 162.3125 471.761719 L 163.257813 469.246094 L 163.605469 466.449219 L 163.167969 463.277344 L 161.886719 460.347656 L 159.851563 457.875 L 157.222656 456.054688 L 154.085938 454.953125 L 150.902344 454.75 L 147.78125 455.421875 L 144.960938 456.914063 L 146.984375 454.515625 L 147.386719 453.640625 L 148.429688 452.488281 L 148.371094 451.597656 L 149.992188 450.289063 L 151.476563 448.515625 L 152.371094 446.542969 L 157.421875 446.269531 L 159.910156 445.683594 L 164.597656 446.761719 L 166.046875 446.148438 L 167.527344 446.515625 L 169.484375 447.285156 L 170.039063 448.109375 L 170.757813 448.421875 L 173.15625 448.464844 L 180.570313 447.503906 L 181.109375 445.632813 L 181.210938 443.15625 L 182.519531 440.25 L 190.867188 432.195313 L 195.792969 425.3125 L 197.929688 424.472656 L 198.285156 423.78125 L 198.070313 423.238281 L 197.8125 423.082031 L 196.09375 424.355469 L 192.90625 427.300781 L 190.570313 429.988281 L 189.222656 431.449219 L 185.628906 432.957031 L 183.714844 433.246094 L 182.441406 433.0625 L 178.394531 435.230469 L 177.398438 436.808594 L 177.039063 438.671875 L 176.445313 439.273438 L 174.058594 439.917969 L 170.558594 439.851563 L 166.820313 439 L 166.347656 438.652344 L 161.371094 433.375 L 159.03125 429.199219 L 155.65625 429.589844 L 149.269531 432.308594 L 149.113281 432.746094 L 148.484375 432.378906 L 147.144531 431.152344 L 146.917969 429.308594 L 148.539063 428.378906 L 150.066406 428.890625 L 151.640625 428.421875 L 152.765625 427.832031 L 153.085938 427.097656 L 152.808594 426.597656 L 147.785156 426.460938 L 143.210938 423.710938 L 139.503906 423.714844 L 136.765625 424.277344 L 136.292969 426.515625 L 135.777344 427.203125 L 133.839844 427.882813 L 133.574219 427.835938 L 132.394531 427.265625 L 131.648438 427.453125 L 130.933594 428.074219 L 128.90625 428.398438 L 127.335938 426.925781 L 127.117188 426.789063 L 127.425781 426.082031 L 128.796875 425.832031 L 131.792969 424.328125 L 131.226563 422.867188 L 130.640625 424.257813 L 127.769531 424.613281 L 122.949219 424.152344 L 121.496094 423.164063 L 124.125 421.78125 L 125.167969 421.753906 L 125.464844 421.238281 L 124.929688 417.953125 L 123.328125 417.210938 L 121.445313 417.105469 L 121.578125 416.691406 L 123.398438 416.359375 L 125.40625 415.582031 L 127.335938 414.363281 L 128.90625 412.890625 L 131.722656 411.457031 L 133.074219 411.34375 L 134.871094 409.289063 L 135.753906 407.632813 L 137.585938 406.550781 L 140.265625 406.628906 L 139.867188 408.796875 L 140.425781 412.597656 L 142.117188 415.910156 L 144.765625 418.519531 L 147.609375 419.996094 L 150.625 420.632813 L 157.710938 420.621094 L 161.300781 419.71875 L 163.316406 418.601563 L 165.160156 417.019531 L 166.636719 415.089844 L 167.675781 412.890625 L 170.210938 413.207031 L 172.625 412.988281 L 174.941406 412.269531 L 177.058594 411.089844 L 180.460938 407.835938 L 182.265625 404.9375 L 183.183594 401.261719 L 184.414063 398.027344 L 184.613281 394.316406 L 184.058594 391.8125 L 182.96875 389.488281 L 181.304688 387.367188 L 179.308594 385.753906 L 179.308594 378 L 180.347656 380.195313 L 181.738281 382.035156 L 183.460938 383.5625 L 185.566406 384.773438 L 189.019531 385.703125 L 194.816406 385.753906 L 197.601563 386.070313 L 200.632813 385.640625 L 203.335938 384.503906 L 206.445313 381.875 L 209.699219 380.109375 L 211.933594 377.828125 L 213.273438 375.5 L 214.042969 372.925781 L 214.71875 367.210938 L 214.332031 363.773438 L 213.085938 360.820313 L 211.171875 358.410156 L 208.691406 356.585938 L 205.820313 355.472656 L 202.886719 355.152344 L 199.84375 355.617188 L 197.136719 356.792969 L 194.816406 358.617188 L 192.59375 357.625 L 190.214844 357.121094 L 188.757813 357.121094 L 190.335938 355.148438 L 189.90625 355.050781 L 188.667969 355.527344 L 188.3125 355.957031 L 186.378906 356.386719 L 183.8125 354.640625 L 182.617188 352.054688 L 183.554688 352.265625 L 185.738281 352.332031 L 188.019531 351.960938 L 190.066406 351.199219 L 191.9375 350.070313 L 194.816406 346.984375 L 197.542969 346.425781 L 200.0625 345.234375 L 202.570313 343.109375 L 205.382813 341.585938 L 207.183594 339.945313 L 208.476563 338.1875 L 209.457031 336.101563 L 209.992188 333.988281 L 210.117188 331.683594 L 209.78125 329.402344 L 209.058594 327.34375 L 207.890625 325.355469 L 206.445313 323.722656 L 210.167969 322.804688 L 213.292969 320.816406 L 215.695313 317.832031 L 216.976563 314.355469 L 217.183594 311.675781 L 216.769531 309.019531 L 215.757813 306.53125 L 214.199219 304.339844 L 216.015625 302.90625 L 217.582031 301.039063 L 218.679688 299.003906 L 219.351563 296.792969 L 219.511719 293.335938 L 219.003906 290.949219 L 218.078125 288.832031 Z M 232.859375 471.5625 L 231.871094 472.320313 L 230.464844 474.011719 L 229.960938 474.269531 L 229.152344 474.433594 L 227.519531 473.003906 L 224.921875 471.6875 L 222.890625 471.269531 L 222.296875 470.886719 L 221.546875 470.992188 L 220.695313 470.820313 L 220.515625 470.816406 L 221.476563 469.683594 L 227.316406 466.367188 L 232.550781 467.761719 L 234.171875 469.894531 Z M 185.289063 357.664063 L 185.285156 357.667969 L 181.785156 359.246094 L 179.679688 360.6875 L 177.785156 362.757813 L 176.445313 365.222656 L 174.109375 363.527344 L 171.554688 362.492188 L 169.78125 360.867188 L 167.707031 359.640625 L 160.144531 357.605469 L 160.492188 357.457031 L 163.644531 357.28125 L 167.339844 357.714844 L 170.550781 356.164063 L 173.007813 355.695313 L 174.382813 355.074219 L 174.484375 355.082031 L 179.910156 359.441406 L 180.433594 358.429688 L 177.679688 353.460938 L 178.242188 352.835938 L 180.867188 352.449219 L 181.503906 352.695313 L 181.914063 353.875 L 182.898438 354.332031 L 184.078125 356.789063 Z M 154.28125 358.519531 L 153.078125 358.976563 L 150.269531 361.1875 L 149.828125 361.839844 L 148.28125 363.214844 L 148.292969 362.492188 L 149.84375 360.820313 L 150.980469 358.988281 L 151.796875 356.859375 L 151.988281 355.773438 L 155.546875 356.503906 Z M 202.570313 246.183594 L 205.621094 246.183594 L 206.445313 246.632813 L 206.445313 250.0625 L 202.765625 250.441406 L 199.390625 251.960938 L 196.582031 254.5625 L 194.816406 257.816406 L 190.9375 257.816406 L 192.410156 256.242188 L 193.625 254.3125 L 194.441406 252.183594 L 194.816406 250.0625 L 196.9375 249.6875 L 199.066406 248.871094 L 200.996094 247.65625 Z M 179.308594 319.847656 L 182.1875 319.96875 L 185.914063 319.289063 L 186.105469 319.195313 L 185.039063 320.238281 L 184.574219 320.328125 L 182.25 321.335938 L 180.492188 322.761719 L 179.308594 323.382813 Z M 187.820313 318.359375 L 188.644531 317.960938 L 190.9375 315.96875 L 191.265625 316.984375 L 189.058594 318.148438 L 187.785156 319.226563 Z M 140.539063 374.125 L 142.621094 373.148438 L 144.472656 371.785156 L 146.019531 370.085938 L 147.199219 368.113281 L 147.273438 370.753906 L 148.136719 373.605469 L 146.453125 374.015625 L 144.324219 373.597656 Z M 148.167969 313.082031 L 148.292969 315.96875 L 146.632813 317.195313 L 147.617188 315.152344 Z M 286.679688 439.636719 L 283.058594 438.976563 L 282.164063 437.605469 L 282.484375 436.070313 L 286.839844 437.054688 L 287.960938 438.832031 Z M 236.835938 466.113281 L 235.136719 465.644531 L 236.523438 463.683594 L 237.195313 464.164063 L 237.5 465.839844 Z M 236.835938 466.113281 "/>
<path style=" stroke:none;fill-rule:nonzero;fill:rgb(80.392157%,58.431373%,4.705882%);fill-opacity:1;" d="M 182.046875 221.859375 L 181.53125 220.84375 L 181.246094 219.046875 L 181.53125 217.25 L 182.355469 215.628906 L 183.644531 214.339844 L 185.265625 213.515625 L 187.0625 213.230469 L 188.859375 213.515625 L 190.480469 214.339844 L 191.765625 215.628906 L 192.59375 217.25 L 192.78125 218.449219 L 191.214844 219.742188 L 185.519531 221.085938 L 182.847656 221.226563 Z M 188.9375 224.535156 L 187.0625 224.863281 L 185.265625 224.578125 L 183.375 223.484375 L 184.609375 222.886719 L 186.457031 221.386719 L 187.289063 221.316406 L 189.085938 221.875 L 189.332031 222.921875 Z M 188.9375 224.535156 "/>
<path style=" stroke:none;fill-rule:nonzero;fill:rgb(80.392157%,58.431373%,4.705882%);fill-opacity:1;" d="M 177.371094 300.460938 L 177.085938 302.257813 L 176.257813 303.878906 L 174.972656 305.167969 L 173.351563 305.992188 L 171.554688 306.277344 L 169.757813 305.992188 L 168.136719 305.167969 L 167.457031 304.488281 L 169.164063 299.058594 L 171.234375 294.695313 L 173.351563 294.929688 L 174.972656 295.757813 L 176.257813 297.042969 L 177.085938 298.664063 Z M 177.371094 300.460938 "/>
<path style=" stroke:none;fill-rule:nonzero;fill:rgb(80.392157%,58.431373%,4.705882%);fill-opacity:1;" d="M 181.246094 288.832031 L 180.960938 290.628906 L 180.136719 292.25 L 178.847656 293.535156 L 177.226563 294.363281 L 175.429688 294.644531 L 173.632813 294.363281 L 171.859375 293.382813 L 174.074219 288.722656 L 176.464844 286.417969 L 178.757813 285.980469 L 180.191406 286.804688 L 180.808594 286.734375 Z M 171.902344 284.238281 L 173.632813 283.300781 L 175.429688 283.015625 L 177.226563 283.300781 L 178.847656 284.125 L 180.066406 285.34375 L 174.65625 284.980469 Z M 171.902344 284.238281 "/>
<path style=" stroke:none;fill-rule:nonzero;fill:rgb(80.392157%,58.431373%,4.705882%);fill-opacity:1;" d="M 219.066406 271.226563 L 218.078125 271.382813 L 216.28125 271.101563 L 214.660156 270.273438 L 213.371094 268.988281 L 212.546875 267.367188 L 212.261719 265.570313 L 212.546875 263.773438 L 213.371094 262.152344 L 214.660156 260.863281 L 216.28125 260.039063 L 217.636719 259.824219 L 218.679688 263.09375 L 218.894531 265.933594 L 218.261719 267.402344 Z M 219.066406 271.226563 "/>
<path style=" stroke:none;fill-rule:nonzero;fill:rgb(80.392157%,58.431373%,4.705882%);fill-opacity:1;" d="M 177.371094 168.644531 L 177.085938 170.441406 L 176.257813 172.0625 L 174.972656 173.351563 L 173.351563 174.175781 L 171.554688 174.460938 L 169.757813 174.175781 L 168.136719 173.351563 L 166.847656 172.0625 L 166.261719 170.910156 L 170.480469 169.527344 L 170.492188 169.949219 L 171.554688 169.839844 L 173.589844 168.316406 L 174.046875 166.78125 L 176.859375 166.40625 Z M 177.371094 168.644531 "/>
<path style=" stroke:none;fill-rule:nonzero;fill:rgb(80.392157%,58.431373%,4.705882%);fill-opacity:1;" d="M 146.355469 265.570313 L 146.070313 267.367188 L 145.242188 268.988281 L 143.957031 270.273438 L 142.335938 271.101563 L 140.539063 271.382813 L 138.207031 270.828125 L 138.601563 268.871094 L 140.917969 265.085938 L 143.644531 263.800781 L 144.390625 261.886719 L 144.285156 261.191406 L 145.242188 262.152344 L 146.070313 263.773438 Z M 146.355469 265.570313 "/>
<path style=" stroke:none;fill-rule:nonzero;fill:rgb(80.392157%,58.431373%,4.705882%);fill-opacity:1;" d="M 157.984375 393.507813 L 157.699219 395.304688 L 156.875 396.925781 L 155.585938 398.210938 L 153.964844 399.039063 L 151.375 399.199219 L 153.054688 396.195313 L 154.199219 391.746094 L 153.734375 388.820313 L 153.246094 387.863281 L 155.585938 388.804688 L 156.875 390.089844 L 157.699219 391.710938 Z M 157.984375 393.507813 "/>
<path style=" stroke:none;fill-rule:nonzero;fill:rgb(80.392157%,58.431373%,4.705882%);fill-opacity:1;" d="M 139.320313 318.101563 L 140.539063 317.90625 L 142.335938 318.191406 L 143.957031 319.019531 L 145.378906 320.574219 L 141.859375 323.019531 L 139.824219 322.464844 L 137.933594 323.433594 L 137.675781 322.921875 Z M 139.320313 318.101563 "/>
</g>
</svg>
