<?xml version="1.0" encoding="UTF-8"?>
<svg xmlns="http://www.w3.org/2000/svg" xmlns:xlink="http://www.w3.org/1999/xlink" width="378pt" height="504pt" viewBox="0 0 378 504" version="1.1">
<g id="data">
<rect x="0" y="0" width="378" height="504" style="fill:rgb(100%,100%,100%);fill-opacity:1;stroke:none;"/>
<path style=" stroke:none;fill-rule:nonzero;fill:rgb(100%,100%,100%);fill-opacity:1;" d="M 53.308594 504 L 324.691406 504 L 324.691406 0 L 53.308594 0 Z M 53.308594 504 "/>
<path style=" stroke:none;fill-rule:nonzero;fill:rgb(22.745098%,53.333333%,16.078431%);fill-opacity:1;" d="M 179.09375 218.980469 L 183.070313 219.71875 L 187.0625 219.046875 L 187.34375 220.65625 L 185.519531 221.085938 L 182.847656 221.226563 L 177.804688 225.21875 L 178.117188 225.714844 L 179.84375 225.195313 L 184.609375 222.886719 L 186.457031 221.386719 L 187.289063 221.316406 L 187.519531 221.386719 L 188.25 223.296875 L 188.964844 224.429688 L 188.898438 224.691406 L 189.238281 225.953125 L 190.898438 226.824219 L 190.914063 226.828125 L 189.535156 228.472656 L 188.46875 230.378906 L 187.777344 232.449219 L 187.765625 232.519531 L 187.070313 232.078125 L 185.40625 232.042969 L 181.046875 235.800781 L 180.578125 237.003906 L 174.761719 240.109375 L 171.453125 238.660156 L 171.554688 238.429688 L 173.554688 236.285156 L 174.953125 233.707031 L 175.714844 230.355469 L 175.429688 226.800781 L 176.875 225.171875 L 178.042969 223.183594 L 178.765625 221.132813 Z M 188.125 238.832031 L 188.210938 239.15625 L 189.230469 241.230469 L 190.554688 242.96875 L 193.476563 245.261719 L 196.847656 246.492188 L 199.535156 246.703125 L 202.570313 246.183594 L 205.621094 246.183594 L 206.488281 246.65625 L 206.550781 246.78125 L 206.820313 248.304688 L 207.636719 250.4375 L 208.851563 252.367188 L 210.324219 253.9375 L 212.175781 257.578125 L 214.75 260.066406 L 218.078125 261.691406 L 218.078125 265.570313 L 217.148438 267.6875 L 216.65625 269.945313 L 216.777344 273.402344 L 217.425781 275.621094 L 218.570313 277.777344 L 220.046875 279.554688 L 221.332031 280.578125 L 221.902344 281.773438 L 221.792969 283.203125 L 222.039063 285.710938 L 223.199219 289.320313 L 224.359375 291.136719 L 225.515625 292.371094 L 225.945313 294.183594 L 229.304688 299.0625 L 234.855469 301.652344 L 235.15625 301.933594 L 236.972656 303.09375 L 239.09375 303.929688 L 240.148438 304.121094 L 241.40625 304.707031 L 241.746094 306.582031 L 242.527344 308.589844 L 243.742188 310.519531 L 245.214844 312.09375 L 247.070313 315.730469 L 249.640625 318.21875 L 252.96875 319.847656 L 252.664063 326.894531 L 253.445313 330.632813 L 254.847656 333.207031 L 258.121094 337.066406 L 260.722656 339.230469 L 262.699219 341.664063 L 262.789063 341.730469 L 263.316406 342.46875 L 263.640625 343.980469 L 262.804688 345.191406 L 263.28125 343.65625 L 262.507813 342.839844 L 260.445313 342 L 258.378906 342.789063 L 257.507813 342.753906 L 256.035156 341.773438 L 253.664063 338.65625 L 252.601563 338.082031 L 245.550781 339.511719 L 244.589844 338.644531 L 243.40625 338.558594 L 241.210938 339.871094 L 241.886719 340.445313 L 246.324219 340.394531 L 249.617188 339.34375 L 251.976563 339.082031 L 254.382813 342.558594 L 260.535156 347.621094 L 263.042969 349.058594 L 263.152344 349.054688 L 263.136719 349.667969 L 263.535156 351.945313 L 265.390625 355.734375 L 268.476563 358.617188 L 269.113281 362.40625 L 269.460938 363.046875 L 269.210938 365.21875 L 264.953125 369.09375 L 261.394531 373.164063 L 260.601563 374.816406 L 262.84375 374.3125 L 264.9375 375.519531 L 266.9375 378.226563 L 270.21875 378.804688 L 270.625 378.746094 L 271.910156 376.796875 L 272.234375 374.960938 L 273.40625 371.914063 L 274.707031 370.632813 L 277.851563 370.085938 L 278.492188 370.101563 L 281.984375 370.410156 L 283.570313 370.390625 L 284.253906 370.867188 L 286.703125 370.742188 L 293.949219 371.515625 L 296.746094 372.769531 L 298.210938 374.769531 L 300.574219 376.730469 L 303.371094 378 L 305.628906 380.878906 L 306.730469 384.164063 L 307.125 390.34375 L 306.582031 393.507813 L 306.734375 394.394531 L 305.789063 396.917969 L 305.148438 399.996094 L 304.796875 400.4375 L 303.851563 402.652344 L 303.371094 405.136719 L 301.59375 407.117188 L 300.363281 409.332031 L 299.765625 411.777344 L 297.144531 414.53125 L 295.578125 412.011719 L 292.742188 410.515625 L 292.480469 410.636719 L 293.898438 413.703125 L 295.890625 416.628906 L 296.3125 416.765625 L 296.164063 417.742188 L 294.574219 419.804688 L 292.191406 421.289063 L 290.003906 421.65625 L 289.660156 421.574219 L 288.214844 419.332031 L 284.976563 421.730469 L 280.71875 424.230469 L 282.339844 425.378906 L 285.105469 424.398438 L 286.097656 423.375 L 286.894531 423.164063 L 287.328125 423.710938 L 287.632813 428.84375 L 285.6875 430.875 L 283.441406 432.558594 L 282.84375 432.699219 L 279.644531 432.160156 L 274.75 433.78125 L 272.609375 436.117188 L 274.253906 436.015625 L 275.152344 434.667969 L 276.683594 434.363281 L 278.285156 434.328125 L 281.054688 434.949219 L 281.828125 435.589844 L 281.691406 436.328125 L 279.554688 436.347656 L 277.390625 437.65625 L 277.96875 438.546875 L 281.382813 438.964844 L 286.863281 440.339844 L 289.394531 439.9375 L 291.074219 438.957031 L 296.363281 438.226563 L 299.492188 440.03125 L 299.492188 447.785156 L 297.320313 449.492188 L 296.707031 450.273438 L 295.839844 450.375 L 292.621094 451.640625 L 291.179688 452.742188 L 289.847656 454.226563 L 289.460938 455.09375 L 289.214844 456.324219 L 289.246094 456.523438 L 289 456.839844 L 288.480469 458.011719 L 286.253906 458.289063 L 284.1875 457.9375 L 282.179688 459.832031 L 279.734375 460.605469 L 277.902344 461.742188 L 277.371094 462.1875 L 274.789063 462.777344 L 272.597656 463.816406 L 270.539063 466.589844 L 269.761719 466.949219 L 259.480469 463.839844 L 259.332031 463.773438 L 255.597656 463.148438 L 252.214844 463.378906 L 248.378906 464.65625 L 247.84375 465.085938 L 244.628906 465.699219 L 242.703125 466.390625 L 242.113281 466.964844 L 242.085938 467.109375 L 240.582031 467.257813 L 240.140625 467.398438 L 238.210938 466.1875 L 238.632813 465.4375 L 239.46875 464.933594 L 237.714844 463.296875 L 231.496094 463.171875 L 231.378906 463.496094 L 232.574219 464.835938 L 232.214844 465.75 L 231.738281 466.042969 L 226.691406 465.496094 L 219.566406 468.449219 L 217.054688 467.824219 L 210.222656 468.96875 L 208.164063 468.875 L 207.273438 468.058594 L 206.238281 469.769531 L 209.429688 471.089844 L 209.714844 470.9375 L 210.1875 472.128906 L 209.566406 473.890625 L 206.84375 474.453125 L 204.453125 473.097656 L 203.015625 472.699219 L 197.625 472.007813 L 196.175781 472.65625 L 195.679688 473.863281 L 195.832031 474.871094 L 196.757813 475.523438 L 196.488281 476.304688 L 195.917969 475.996094 L 194.851563 473.972656 L 190.289063 470.589844 L 185.898438 468.519531 L 183.121094 467.984375 L 181.648438 469.066406 L 176.207031 469.78125 L 174.339844 470.335938 L 168.992188 473.234375 L 168.214844 474.070313 L 167.203125 476.179688 L 162.746094 489.226563 L 160.929688 490.242188 L 158.269531 489.722656 L 157.554688 489.058594 L 156.527344 486.851563 L 154.683594 485.4375 L 153.613281 485.542969 L 152.417969 486.300781 L 151.929688 486.203125 L 151.3125 485.6875 L 148.46875 482.535156 L 145.074219 482.789063 L 143.667969 482.574219 L 139.40625 482.824219 L 137.097656 483.5 L 135.496094 484.355469 L 134.507813 484.320313 L 132.167969 484.859375 L 129.414063 488.195313 L 126.714844 489.746094 L 124.039063 490.597656 L 123.132813 494.289063 L 123.214844 494.441406 L 122.5625 495.175781 L 121.546875 497.347656 L 120.710938 497.632813 L 119.265625 495.839844 L 114.984375 492.316406 L 112.371094 491.03125 L 109.523438 490.429688 L 111.691406 488.722656 L 112.09375 488.214844 L 112.199219 488.253906 L 112.445313 488.9375 L 113.574219 489.15625 L 118.144531 485.910156 L 121.425781 483.085938 L 124.375 479.769531 L 125.210938 477.886719 L 124.875 476.421875 L 125.640625 474.519531 L 128.386719 473.238281 L 132.105469 472.640625 L 132.679688 471.785156 L 133.257813 469.527344 L 135.859375 467.5625 L 138.636719 464.640625 L 138.980469 460.375 L 139.171875 460.128906 L 140.09375 457.902344 L 140.539063 455.539063 L 142.566406 455.144531 L 144.269531 456.015625 L 145.761719 455.429688 L 148.429688 452.488281 L 148.367188 451.542969 L 150.441406 449.824219 L 151.757813 448.082031 L 152.523438 446.535156 L 157.421875 446.269531 L 159.910156 445.683594 L 164.597656 446.761719 L 166.046875 446.148438 L 167.527344 446.515625 L 169.484375 447.285156 L 170.039063 448.109375 L 170.757813 448.421875 L 173.15625 448.464844 L 180.570313 447.503906 L 181.109375 445.632813 L 181.210938 443.15625 L 182.519531 440.25 L 190.867188 432.195313 L 195.792969 425.3125 L 197.929688 424.472656 L 198.285156 423.78125 L 198.070313 423.238281 L 197.8125 423.082031 L 196.09375 424.355469 L 192.90625 427.300781 L 190.570313 429.988281 L 189.222656 431.449219 L 185.628906 432.957031 L 183.714844 433.246094 L 182.441406 433.0625 L 178.394531 435.230469 L 177.398438 436.808594 L 177.039063 438.671875 L 176.445313 439.273438 L 174.058594 439.917969 L 170.558594 439.851563 L 166.820313 439 L 166.347656 438.652344 L 161.371094 433.375 L 159.03125 429.199219 L 155.65625 429.589844 L 149.269531 432.308594 L 149.113281 432.746094 L 148.398438 432.328125 L 147.140625 431.078125 L 147.136719 431.074219 L 146.917969 429.308594 L 148.539063 428.378906 L 150.066406 428.890625 L 151.640625 428.421875 L 152.765625 427.832031 L 153.085938 427.097656 L 152.808594 426.597656 L 147.785156 426.460938 L 143.210938 423.710938 L 139.503906 423.714844 L 136.765625 424.277344 L 136.292969 426.515625 L 135.777344 427.203125 L 133.742188 427.917969 L 132.394531 427.265625 L 131.648438 427.453125 L 130.5625 428.398438 L 128.90625 428.398438 L 127.335938 426.925781 L 127.117188 426.789063 L 127.425781 426.082031 L 128.796875 425.832031 L 131.792969 424.328125 L 131.226563 422.867188 L 130.640625 424.257813 L 127.769531 424.613281 L 122.949219 424.152344 L 121.496094 423.164063 L 124.125 421.78125 L 125.167969 421.753906 L 125.464844 421.238281 L 124.929688 417.953125 L 123.328125 417.210938 L 121.445313 417.105469 L 121.574219 416.695313 L 123.277344 416.394531 L 125.40625 415.582031 L 127.335938 414.363281 L 128.90625 412.890625 L 131.722656 411.457031 L 133.074219 411.34375 L 134.871094 409.289063 L 135.753906 407.632813 L 137.585938 406.550781 L 140.636719 406.640625 L 140.71875 407.945313 L 141.570313 410.625 L 143.039063 413.027344 L 144.941406 414.921875 L 148.292969 416.769531 L 150.671875 418.714844 L 152.863281 419.769531 L 156.125 420.433594 L 159.441406 420.144531 L 162.085938 419.171875 L 164.515625 417.507813 L 166.378906 415.394531 L 167.675781 412.890625 L 170.210938 413.207031 L 172.75 412.960938 L 175.175781 412.167969 L 177.367188 410.863281 L 181.117188 406.855469 L 182.21875 404.683594 L 182.828125 402.457031 L 182.8125 398.496094 L 181.464844 394.769531 L 178.949219 391.710938 L 175.429688 389.628906 L 177.492188 387.230469 L 178.828125 384.363281 L 179.441406 380.753906 L 179.308594 378 L 180.109375 374.371094 L 179.988281 371.933594 L 179.410156 369.691406 L 178.328125 367.503906 L 176.90625 365.679688 L 174.722656 363.890625 L 171.554688 362.492188 L 169.46875 360.644531 L 167.007813 359.34375 L 160.496094 357.605469 L 160.179688 357.589844 L 160.492188 357.457031 L 163.644531 357.28125 L 167.339844 357.714844 L 172.597656 355.179688 L 173.933594 355.046875 L 174.484375 355.082031 L 179.910156 359.441406 L 180.433594 358.429688 L 177.679688 353.460938 L 178.242188 352.835938 L 180.867188 352.449219 L 181.503906 352.695313 L 181.914063 353.875 L 182.898438 354.332031 L 184.078125 356.789063 L 185.613281 357.902344 L 188.359375 357.621094 L 190.335938 355.148438 L 189.90625 355.050781 L 188.667969 355.527344 L 188.3125 355.957031 L 186.378906 356.386719 L 183.8125 354.640625 L 179.976563 346.332031 L 180.332031 345.695313 L 181.820313 343.820313 L 182.8125 341.351563 L 182.832031 341.222656 L 183.371094 340.257813 L 185.429688 339.015625 L 185.140625 338.578125 L 183.285156 338.492188 L 183.285156 338.484375 L 183.183594 335.355469 L 183.5 332.566406 L 183.253906 330.28125 L 183.105469 329.90625 L 184.695313 329.191406 L 187.28125 323.421875 L 187.71875 320.933594 L 187.820313 318.359375 L 188.644531 317.960938 L 190.9375 315.96875 L 191.945313 318.472656 L 193.5 320.675781 L 195.519531 322.460938 L 197.898438 323.734375 L 200.503906 324.421875 L 203.074219 324.503906 L 205.597656 324.023438 L 208.3125 322.875 L 211.371094 320.375 L 213.417969 316.992188 L 214.195313 313.5 L 214.199219 304.339844 L 216.695313 301.449219 L 218.144531 297.78125 L 218.386719 294.984375 L 218.078125 292.707031 L 218.210938 289.953125 L 217.796875 287.078125 L 216.460938 283.800781 L 214.199219 281.078125 L 215.128906 278.960938 L 215.605469 276.828125 L 215.664063 274.519531 L 215.265625 272.242188 L 213.632813 268.761719 L 212.136719 267 L 210.324219 265.570313 L 209.414063 263.59375 L 208.148438 261.820313 L 205.425781 259.507813 L 202 258.101563 L 197.066406 257.65625 L 190.9375 257.816406 L 191.757813 253.671875 L 191.039063 249.507813 L 188.882813 245.875 L 185.574219 243.253906 L 184.09375 242.683594 L 186.398438 241.730469 L 187.519531 239.417969 Z M 232.859375 471.5625 L 231.871094 472.320313 L 230.464844 474.011719 L 229.960938 474.269531 L 228.117188 474.644531 L 222.296875 470.886719 L 220.207031 471.1875 L 221.476563 469.683594 L 227.316406 466.367188 L 232.550781 467.761719 L 234.171875 469.894531 Z M 154.34375 358.421875 L 153.742188 358.632813 L 151.570313 359.992188 L 149.667969 361.894531 L 149.535156 362.101563 L 147.425781 363.976563 L 146.109375 363.875 L 144.796875 362.324219 L 146.992188 361.355469 L 149.21875 359.632813 L 150.964844 357.425781 L 151.730469 355.722656 L 155.546875 356.503906 Z M 148.269531 364.179688 L 147.554688 366.207031 L 147.953125 364.523438 Z M 147.425781 366.75 L 147.15625 369.027344 L 147.421875 371.578125 L 148.117188 373.613281 L 146.410156 374.027344 L 144.070313 373.59375 L 140.539063 374.125 L 142.488281 371.984375 L 142.589844 371.953125 L 147.132813 367.984375 Z M 179.308594 323.382813 L 179.308594 319.847656 L 182.1875 319.96875 L 185.914063 319.289063 L 186.105469 319.195313 L 184.742188 320.527344 Z M 177.636719 241.804688 L 175.429688 242.308594 L 171.554688 242.308594 L 170.136719 241.632813 L 170.59375 240.597656 Z M 154.230469 292.308594 L 155.066406 291.132813 L 156.046875 288.832031 L 158.472656 288.574219 L 160.792969 287.816406 L 163.007813 286.519531 L 164.796875 284.859375 L 166.910156 281.351563 L 167.675781 277.199219 L 168.8125 279.777344 L 170.539063 282.003906 L 172.855469 283.816406 L 175.429688 284.953125 L 175.429688 285.035156 L 174.65625 284.980469 L 172.566406 284.292969 L 169.453125 284.03125 L 168.226563 288.992188 L 166.234375 288.695313 L 163.3125 290.011719 L 161.832031 291.855469 L 160.59375 292.703125 L 158.425781 292.554688 L 155.148438 292.972656 Z M 175.429688 287.414063 L 175.429688 288.832031 L 173.003906 291.613281 L 171.601563 294.890625 L 171.238281 297.671875 L 171.554688 300.460938 L 170.445313 298.15625 L 169.914063 297.476563 L 174.074219 288.722656 Z M 171.554688 172.523438 L 171.671875 169.753906 L 171.703125 169.730469 L 172.226563 171.707031 L 173.214844 173.75 Z M 140.539063 319.847656 L 143.113281 318.707031 L 145.339844 316.984375 L 147.089844 314.777344 L 148.292969 312.09375 L 148.292969 315.96875 L 146.121094 317.675781 L 144.414063 319.847656 L 141.898438 321.917969 L 141.203125 322.839844 L 140.539063 322.660156 Z M 286.679688 439.636719 L 283.058594 438.976563 L 282.164063 437.605469 L 282.484375 436.070313 L 286.839844 437.054688 L 287.960938 438.832031 Z M 236.835938 466.113281 L 235.136719 465.644531 L 236.523438 463.683594 L 237.195313 464.164063 L 237.5 465.839844 Z M 236.835938 466.113281 "/>
</g>
</svg>
