<?xml version="1.0" encoding="UTF-8"?>
<svg xmlns="http://www.w3.org/2000/svg" xmlns:xlink="http://www.w3.org/1999/xlink" width="378pt" height="504pt" viewBox="0 0 378 504" version="1.1">
<g id="data">
<rect x="0" y="0" width="378" height="504" style="fill:rgb(100%,100%,100%);fill-opacity:1;stroke:none;"/>
<path style=" stroke:none;fill-rule:nonzero;fill:rgb(100%,100%,100%);fill-opacity:1;" d="M 53.308594 504 L 324.691406 504 L 324.691406 0 L 53.308594 0 Z M 53.308594 504 "/>
<path style=" stroke:none;fill-rule:nonzero;fill:rgb(22.745098%,53.333333%,16.078431%);fill-opacity:1;" d="M 175.429688 436.152344 L 177.914063 435.996094 L 177.398438 436.808594 L 177.039063 438.671875 L 176.445313 439.273438 L 175.429688 439.546875 Z M 183.746094 433.242188 L 185.25 431.726563 L 186.765625 429.191406 L 187.589844 426.355469 L 187.691406 423.53125 L 187.0625 420.644531 L 189.613281 420.363281 L 192.042969 419.527344 L 194.328125 418.097656 L 196.144531 416.28125 L 198.058594 412.804688 L 198.691406 409.015625 L 201.210938 406.945313 L 204.257813 403.40625 L 205.433594 401.589844 L 206.425781 398.976563 L 206.761719 396.199219 L 208.324219 399.84375 L 211.121094 402.828125 L 214.414063 404.546875 L 218.078125 405.136719 L 220.070313 406.757813 L 222.371094 407.898438 L 225.25 408.550781 L 228.324219 408.4375 L 231.148438 407.570313 L 233.761719 405.945313 L 236.34375 402.933594 L 237.792969 399.101563 L 237.96875 396.285156 L 237.460938 393.507813 L 238.09375 391.304688 L 238.277344 389.015625 L 237.542969 385.148438 L 240.691406 385.558594 L 243.835938 385.101563 L 246.734375 383.808594 L 249.09375 381.875 L 250.800781 384.046875 L 254.410156 387.203125 L 257.8125 389.199219 L 261.171875 389.921875 L 264.601563 389.628906 L 267.710938 392.257813 L 271.410156 393.625 L 274.464844 393.785156 L 278.625 393.070313 L 281.097656 392.019531 L 283.171875 390.515625 L 284.9375 388.488281 L 286.144531 386.230469 L 286.925781 383 L 286.785156 379.804688 L 285.777344 376.769531 L 283.984375 374.125 L 286.15625 372.417969 L 287.410156 370.816406 L 287.972656 370.878906 L 288.234375 372.367188 L 289.050781 374.496094 L 290.265625 376.429688 L 291.738281 378 L 291.082031 380.351563 L 290.929688 382.789063 L 291.292969 385.203125 L 292.148438 387.488281 L 293.460938 389.542969 L 295.175781 391.28125 L 297.21875 392.621094 L 299.492188 393.507813 L 299.492188 397.382813 L 291.738281 397.382813 L 288.183594 397.101563 L 285.675781 397.570313 L 283.21875 398.636719 L 281.257813 400.0625 L 278.976563 402.484375 L 277.71875 404.421875 L 276.90625 406.445313 L 276.484375 408.582031 L 276.46875 410.761719 L 276.863281 412.90625 L 277.648438 414.941406 L 278.796875 416.789063 L 280.273438 418.394531 L 282.023438 419.695313 L 283.984375 420.644531 L 281.597656 423.589844 L 281.535156 423.75 L 280.71875 424.230469 L 281.226563 424.589844 L 280.28125 427.144531 L 279.972656 431.15625 L 280.082031 432.234375 L 279.644531 432.160156 L 274.75 433.78125 L 272.609375 436.117188 L 274.253906 436.015625 L 275.152344 434.667969 L 276.683594 434.363281 L 278.285156 434.328125 L 280.425781 434.808594 L 280.859375 436.335938 L 279.554688 436.347656 L 277.390625 437.65625 L 277.96875 438.546875 L 281.382813 438.964844 L 282.480469 439.242188 L 282.65625 439.542969 L 285.195313 441.894531 L 288.316406 443.394531 L 291.738281 443.90625 L 291.738281 451.660156 L 288.890625 452.261719 L 286.277344 453.546875 L 281.996094 457.070313 L 280.109375 459.414063 L 277.226563 459.289063 L 273.503906 459.972656 L 270.769531 461.300781 L 268.476563 463.292969 L 256.847656 463.292969 L 252.714844 462.628906 L 249.09375 463.292969 L 243.804688 463.296875 L 241.164063 463.78125 L 239.167969 464.652344 L 237.714844 463.296875 L 231.496094 463.171875 L 231.378906 463.496094 L 232.574219 464.835938 L 232.214844 465.75 L 231.738281 466.042969 L 226.691406 465.496094 L 219.566406 468.449219 L 217.054688 467.824219 L 210.222656 468.96875 L 208.164063 468.875 L 207.273438 468.058594 L 206.238281 469.769531 L 209.429688 471.089844 L 209.714844 470.9375 L 210.1875 472.128906 L 209.566406 473.890625 L 206.84375 474.453125 L 204.453125 473.097656 L 203.015625 472.699219 L 197.625 472.007813 L 196.175781 472.65625 L 195.679688 473.863281 L 195.78125 474.523438 L 195.257813 474.742188 L 194.851563 473.972656 L 194.175781 473.472656 L 193.679688 472.347656 L 191.953125 470.121094 L 189.636719 468.308594 L 187.0625 467.167969 L 185.652344 464.160156 L 183.449219 461.667969 L 181.550781 460.363281 L 179.308594 459.414063 L 179.433594 456.535156 L 178.75 452.808594 L 177.421875 450.078125 L 175.734375 448.132813 L 180.570313 447.503906 L 181.109375 445.632813 L 181.210938 443.15625 L 182.519531 440.25 L 190.867188 432.195313 L 195.792969 425.3125 L 197.929688 424.472656 L 198.285156 423.78125 L 198.070313 423.238281 L 197.8125 423.082031 L 196.09375 424.355469 L 192.90625 427.300781 L 190.570313 429.988281 L 189.222656 431.449219 L 185.628906 432.957031 Z M 237.488281 465.773438 L 237.289063 465.925781 L 236.835938 466.113281 L 235.136719 465.644531 L 236.523438 463.683594 L 237.195313 464.164063 Z M 234.15625 469.875 L 234.101563 469.988281 L 232.75 471.703125 L 231.414063 472.753906 L 230.398438 474.046875 L 229.960938 474.269531 L 229.160156 474.433594 L 227.726563 473.148438 L 225.398438 471.867188 L 223.085938 471.195313 L 222.703125 471.148438 L 222.296875 470.886719 L 221.5 471 L 220.46875 470.875 L 221.476563 469.683594 L 227.316406 466.367188 L 232.550781 467.761719 Z M 241.339844 358.617188 L 240.28125 356.484375 L 238.816406 354.613281 L 240.964844 355.449219 L 243.234375 355.84375 L 246.300781 355.660156 L 249.09375 354.738281 L 250.511719 355.414063 L 249.09375 358.617188 L 245.214844 357.949219 Z M 218.078125 335.355469 L 220.351563 334.46875 L 222.390625 333.128906 L 224.105469 331.390625 L 225.421875 329.332031 L 226.277344 327.046875 L 226.636719 324.632813 L 226.488281 322.199219 L 225.832031 319.847656 L 228.160156 320.839844 L 230.523438 321.296875 L 232.925781 321.257813 L 235.394531 320.683594 L 233.960938 323.9375 L 233.585938 327.601563 L 232.414063 330.4375 L 232.027344 333.480469 L 232.414063 336.394531 L 233.585938 339.230469 L 232.542969 342.785156 L 232.667969 346.484375 L 233.765625 349.621094 L 235.707031 352.316406 L 232.1875 351.1875 L 228.488281 351.222656 L 224.988281 352.414063 L 221.953125 354.738281 L 220.945313 352.679688 L 219.636719 350.957031 L 217.929688 349.425781 L 216.070313 348.316406 L 218.023438 345.484375 L 219.066406 342.207031 L 219.101563 338.769531 Z M 225.832031 374.125 L 227.378906 374.730469 L 227.941406 375.773438 Z M 225.832031 374.125 "/>
</g>
</svg>
