<?xml version="1.0" encoding="UTF-8"?>
<svg xmlns="http://www.w3.org/2000/svg" xmlns:xlink="http://www.w3.org/1999/xlink" width="378pt" height="504pt" viewBox="0 0 378 504" version="1.1">
<g id="data">
<rect x="0" y="0" width="378" height="504" style="fill:rgb(100%,100%,100%);fill-opacity:1;stroke:none;"/>
<path style=" stroke:none;fill-rule:nonzero;fill:rgb(100%,100%,100%);fill-opacity:1;" d="M 53.308594 504 L 324.691406 504 L 324.691406 0 L 53.308594 0 Z M 53.308594 504 "/>
<path style=" stroke:none;fill-rule:nonzero;fill:rgb(22.745098%,53.333333%,16.078431%);fill-opacity:1;" d="M 221.953125 420.644531 L 229.707031 420.644531 L 233.851563 421.464844 L 237.773438 420.835938 L 240.3125 419.597656 L 242.480469 417.789063 L 244.148438 415.507813 L 245.214844 412.890625 L 247.644531 412.777344 L 250.113281 412.109375 L 252.273438 410.992188 L 254.152344 409.449219 L 255.738281 407.445313 L 256.847656 405.136719 L 259.066406 402.679688 L 260.292969 400.296875 L 260.972656 397.445313 L 260.722656 393.507813 L 261.375 390.285156 L 265.214844 389.445313 L 267.984375 388.09375 L 270.46875 385.867188 L 272.214844 383.027344 L 273.035156 380.191406 L 273.113281 377.238281 L 272.414063 374.496094 L 273.40625 371.914063 L 274.296875 371.035156 L 275.3125 371.449219 L 278.488281 371.800781 L 281.394531 371.347656 L 283.597656 370.410156 L 284.253906 370.867188 L 286.703125 370.742188 L 287.164063 370.792969 L 287.863281 370.910156 L 288.023438 370.882813 L 293.949219 371.515625 L 295.550781 372.234375 L 295.515625 373.375 L 296.34375 377.328125 L 297.71875 379.898438 L 300.71875 383.539063 L 298.085938 382.351563 L 294.992188 381.789063 L 289.0625 382.1875 L 286.757813 382.996094 L 284.574219 384.347656 L 282.820313 386.042969 L 281.398438 388.179688 L 280.363281 391.082031 L 279.964844 394.753906 L 280.171875 398.019531 L 280.65625 400.132813 L 281.777344 402.5625 L 283.425781 404.671875 L 285.40625 406.277344 L 287.808594 407.457031 L 286.050781 409.453125 L 284.835938 411.679688 L 284.136719 414.113281 L 283.984375 416.769531 L 281.296875 419.027344 L 278.3125 423.292969 L 277.355469 426.074219 L 277.128906 429.011719 L 277.683594 432.03125 L 278.007813 432.699219 L 274.75 433.78125 L 272.609375 436.117188 L 274.253906 436.015625 L 275.152344 434.667969 L 276.683594 434.363281 L 278.285156 434.328125 L 278.847656 434.457031 L 279.011719 434.796875 L 280.339844 436.339844 L 279.554688 436.347656 L 277.390625 437.65625 L 277.96875 438.546875 L 281.382813 438.964844 L 286.863281 440.339844 L 288.117188 440.140625 L 290.449219 441.132813 L 292.84375 441.558594 L 296.28125 441.292969 L 299.492188 440.03125 L 299.492188 447.785156 L 296.984375 445.65625 L 293.980469 444.316406 L 290.617188 443.773438 L 287.863281 443.90625 L 285.203125 442.121094 L 282.15625 441.128906 L 279.59375 440.957031 L 277.183594 441.320313 L 274.671875 442.296875 L 272.355469 443.90625 L 269.59375 444.460938 L 267.046875 445.660156 L 264.597656 447.71875 L 262.804688 450.363281 L 261.800781 453.398438 L 261.671875 456.722656 L 262.640625 460.296875 L 264.601563 463.292969 L 264.601563 465.390625 L 259.269531 463.777344 L 258.640625 463.726563 L 257.601563 463.378906 L 255.097656 463.132813 L 252.96875 463.292969 L 249.09375 462.628906 L 245.214844 463.292969 L 239.417969 463.34375 L 238.121094 463.675781 L 237.714844 463.296875 L 231.496094 463.171875 L 231.378906 463.496094 L 232.574219 464.835938 L 232.214844 465.75 L 231.738281 466.042969 L 226.691406 465.496094 L 219.566406 468.449219 L 217.054688 467.824219 L 210.222656 468.96875 L 208.164063 468.875 L 207.273438 468.058594 L 206.238281 469.769531 L 209.429688 471.089844 L 209.714844 470.9375 L 209.921875 471.460938 L 208.058594 472.925781 L 206.832031 474.445313 L 204.453125 473.097656 L 203.015625 472.699219 L 197.625 472.007813 L 196.175781 472.65625 L 195.679688 473.863281 L 195.78125 474.523438 L 195.257813 474.742188 L 194.851563 473.972656 L 191.496094 471.484375 L 190.9375 471.046875 L 194.621094 470.664063 L 197.996094 469.148438 L 200.800781 466.542969 L 202.570313 463.292969 L 205.558594 464.039063 L 208.636719 463.972656 L 211.589844 463.101563 L 214.113281 461.566406 L 216.320313 459.238281 L 218.078125 455.539063 L 220.464844 452.597656 L 221.472656 450.273438 L 221.953125 447.785156 L 224.273438 445.757813 L 225.921875 443.304688 L 227.035156 439.761719 L 226.972656 436.042969 L 226.292969 433.699219 L 225.210938 431.652344 L 223.746094 429.863281 L 221.953125 428.398438 L 222.617188 424.523438 Z M 282.507813 438.132813 L 283.558594 438.84375 L 284.660156 439.269531 L 283.058594 438.976563 Z M 236.9375 463.980469 L 236.203125 464.171875 L 236.160156 464.195313 L 236.523438 463.683594 Z M 231.769531 467.550781 L 231.246094 468.101563 L 229.707031 471.046875 L 222.542969 471.046875 L 222.296875 470.886719 L 221.738281 470.964844 L 220.714844 470.582031 L 221.476563 469.683594 L 227.316406 466.367188 Z M 247.152344 377.835938 L 249.074219 377.339844 L 249.09375 378 Z M 179.6875 242.308594 L 179.308594 242.308594 L 179.449219 242.246094 Z M 132.851563 471.109375 L 134.511719 472.730469 L 136.546875 474.023438 L 138.6875 474.835938 L 141.066406 475.21875 L 138.324219 476.25 L 135.925781 477.933594 L 134.027344 480.164063 L 132.785156 482.675781 L 132.375 480.433594 L 131.59375 478.425781 L 130.457031 476.597656 L 128.90625 474.921875 L 128.90625 473.15625 L 132.105469 472.640625 L 132.679688 471.785156 Z M 132.851563 471.109375 "/>
</g>
</svg>
