<?xml version="1.0" encoding="UTF-8"?>
<svg xmlns="http://www.w3.org/2000/svg" xmlns:xlink="http://www.w3.org/1999/xlink" width="378pt" height="504pt" viewBox="0 0 378 504" version="1.1">
<g id="data">
<rect x="0" y="0" width="378" height="504" style="fill:rgb(100%,100%,100%);fill-opacity:1;stroke:none;"/>
<path style=" stroke:none;fill-rule:nonzero;fill:rgb(100%,100%,100%);fill-opacity:1;" d="M 53.308594 504 L 324.691406 504 L 324.691406 0 L 53.308594 0 Z M 53.308594 504 "/>
<path style=" stroke:none;fill-rule:nonzero;fill:rgb(22.745098%,53.333333%,16.078431%);fill-opacity:1;" d="M 210.324219 463.292969 L 212.597656 462.40625 L 214.636719 461.066406 L 216.351563 459.328125 L 217.667969 457.273438 L 218.523438 454.988281 L 218.882813 452.570313 L 218.734375 450.136719 L 218.078125 447.785156 L 221.203125 447.105469 L 224.023438 445.601563 L 226.40625 443.285156 L 227.992188 440.507813 L 228.730469 437.660156 L 228.710938 434.589844 L 227.734375 431.277344 L 225.832031 428.398438 L 225.832031 424.523438 L 227.6875 425.890625 L 229.65625 426.820313 L 231.765625 427.367188 L 234.066406 427.507813 L 236.351563 427.191406 L 238.410156 426.480469 L 240.40625 425.328125 L 242.136719 423.804688 L 243.789063 421.523438 L 244.8125 419.039063 L 245.347656 415.648438 L 245.214844 412.890625 L 248.566406 411.046875 L 251.070313 408.316406 L 252.589844 404.941406 L 252.96875 401.261719 L 255.546875 400.125 L 257.773438 398.402344 L 259.585938 396.082031 L 260.722656 393.507813 L 263.648438 393.132813 L 266.390625 392.035156 L 268.855469 390.191406 L 270.6875 387.878906 L 271.980469 384.804688 L 272.933594 379.398438 L 272.949219 376.726563 L 272.429688 374.453125 L 272.488281 374.296875 L 273.695313 375.84375 L 275.335938 377.285156 L 277.21875 378.394531 L 279.398438 379.164063 L 281.558594 379.480469 L 283.742188 379.386719 L 285.867188 378.886719 L 287.863281 378 L 290.476563 380.195313 L 293.738281 381.566406 L 299.109375 382.535156 L 301.269531 382.40625 L 303.371094 381.875 L 301.171875 385.480469 L 300.40625 389.628906 L 301.171875 393.78125 L 303.371094 397.382813 L 303.371094 405.136719 L 301.199219 406.84375 L 299.492188 409.015625 L 296.40625 409.699219 L 293.835938 411.089844 L 292.742188 410.515625 L 292.480469 410.636719 L 292.980469 411.714844 L 289.65625 414.511719 L 287.863281 416.769531 L 285.375 417.25 L 283.160156 418.195313 L 280.109375 420.644531 L 276.617188 422.253906 L 274.492188 424.117188 L 272.542969 427.132813 L 271.605469 430.597656 L 271.640625 433.421875 L 272.761719 439.210938 L 270.644531 439.40625 L 268.476563 440.03125 L 264.472656 439.367188 L 258.421875 440.128906 L 255.824219 440.8125 L 253.558594 442 L 251.789063 443.472656 L 250.339844 445.261719 L 247.890625 450.746094 L 247.554688 452.894531 L 247.644531 455.199219 L 248.144531 457.316406 L 249.09375 459.414063 L 245.214844 459.414063 L 242.207031 457.464844 L 238.617188 456.511719 L 235.289063 456.660156 L 232.253906 457.683594 L 228.859375 460.195313 L 226.664063 463.316406 L 225.953125 465.804688 L 221.132813 467.800781 L 219.769531 467.214844 L 216.988281 466.855469 L 210.324219 467.167969 Z M 225.597656 467.34375 L 225.832031 471.046875 L 223.167969 468.722656 Z M 233.585938 350.863281 L 229.707031 350.863281 L 231.347656 348.496094 L 232.355469 345.796875 L 233.585938 346.984375 L 233.972656 350.714844 Z M 105.644531 494.308594 L 107.816406 492.601563 L 109.523438 490.429688 L 112.761719 491.078125 L 115.050781 490.976563 L 117.277344 490.429688 L 119.71875 491.007813 L 122.105469 491.058594 L 119.535156 492.339844 L 117.277344 494.308594 L 116.84375 494.425781 L 115.984375 493.691406 L 112.253906 492.070313 L 111.410156 491.984375 L 110.375 492.488281 L 110.242188 494.183594 L 110.046875 494.410156 L 109.523438 494.308594 Z M 105.644531 494.308594 "/>
</g>
</svg>
