<?xml version="1.0" encoding="UTF-8"?>
<svg xmlns="http://www.w3.org/2000/svg" xmlns:xlink="http://www.w3.org/1999/xlink" width="378pt" height="504pt" viewBox="0 0 378 504" version="1.1">
<g id="data">
<rect x="0" y="0" width="378" height="504" style="fill:rgb(100%,100%,100%);fill-opacity:1;stroke:none;"/>
<path style=" stroke:none;fill-rule:nonzero;fill:rgb(100%,100%,100%);fill-opacity:1;" d="M 53.308594 504 L 324.691406 504 L 324.691406 0 L 53.308594 0 Z M 53.308594 504 "/>
<path style=" stroke:none;fill-rule:nonzero;fill:rgb(22.745098%,53.333333%,16.078431%);fill-opacity:1;" d="M 159.921875 149.261719 L 162.09375 147.554688 L 163.800781 145.382813 L 166.375 144.246094 L 168.601563 142.523438 L 170.417969 140.207031 L 171.554688 137.628906 L 171.960938 139.875 L 172.742188 141.882813 L 173.957031 143.8125 L 175.203125 145.140625 L 173.855469 147.214844 L 162.601563 156.074219 L 162.234375 157.082031 L 162.671875 158.175781 L 162.078125 159.632813 L 159.644531 160.289063 L 156.839844 159.359375 L 153.464844 157.734375 L 154.464844 159.796875 L 155.875 160.457031 L 161.363281 161.917969 L 164.042969 162.292969 L 165.242188 161.992188 L 166.015625 161.605469 L 166.75 160.257813 L 167.589844 160.183594 L 167.507813 160.828125 L 166.417969 162.609375 L 162.722656 166.96875 L 162.175781 167.183594 L 161.726563 166.894531 L 161.859375 165.949219 L 161.53125 165.507813 L 159.984375 165.785156 L 155.320313 167.769531 L 152.441406 170.8125 L 151.949219 171.945313 L 152.140625 172.144531 L 156.390625 168.453125 L 157.75 167.980469 L 160.300781 168.324219 L 161.058594 169.320313 L 157.109375 173.804688 L 156.367188 175.339844 L 156.707031 175.816406 L 157.367188 175.984375 L 158.261719 175.542969 L 161.140625 173.015625 L 167.808594 170.273438 L 170.480469 169.527344 L 170.492188 169.949219 L 171.554688 169.839844 L 173.589844 168.316406 L 174.046875 166.78125 L 178.648438 166.167969 L 179.285156 167.089844 L 180.148438 167.667969 L 184.320313 169.011719 L 184.332031 169.003906 L 185.121094 169.4375 L 187.617188 170.042969 L 190.054688 170.101563 L 192.453125 169.652344 L 194.816406 168.644531 L 193.730469 172.585938 L 194.109375 176.785156 L 195.957031 180.570313 L 199.03125 183.449219 L 201.695313 184.710938 L 204.585938 185.265625 L 207.527344 185.078125 L 208.828125 184.648438 L 207.15625 188.339844 L 206.980469 189.367188 L 206.820313 189.785156 L 206.445313 191.90625 L 204.058594 192.851563 L 201.835938 194.382813 L 200.105469 196.28125 L 198.78125 198.628906 L 198.101563 200.839844 L 197.875 203.015625 L 198.058594 205.191406 L 198.691406 207.414063 L 196.546875 209.769531 L 195.117188 212.617188 L 194.511719 215.875 L 194.613281 216.945313 L 191.214844 219.742188 L 185.519531 221.085938 L 182.847656 221.226563 L 177.804688 225.21875 L 178.117188 225.714844 L 179.84375 225.195313 L 184.609375 222.886719 L 186.457031 221.386719 L 187.289063 221.316406 L 189.085938 221.875 L 189.332031 222.921875 L 188.898438 224.691406 L 189.238281 225.953125 L 190.886719 226.820313 L 190.382813 229.046875 L 190.355469 232.125 L 190.410156 232.316406 L 189.460938 232.730469 L 188.34375 232.882813 L 187.070313 232.078125 L 185.40625 232.042969 L 181.046875 235.800781 L 180.578125 237.003906 L 174.761719 240.109375 L 170.214844 238.117188 L 166.480469 238.003906 L 166.738281 239.222656 L 168.246094 240.195313 L 178.0625 241.875 L 182.921875 243.167969 L 186.398438 241.730469 L 187.519531 239.417969 L 188.617188 238.355469 L 189.539063 238.171875 L 193.183594 238.5 L 193.433594 238.671875 L 195.375 240.328125 L 197.320313 241.363281 L 199.339844 242.761719 L 206.488281 246.65625 L 206.613281 246.90625 L 207.222656 249.507813 L 208.929688 252.464844 L 212.03125 256.109375 L 214.199219 257.816406 L 216.269531 260.332031 L 218.078125 261.691406 L 218.078125 265.570313 L 217.148438 267.6875 L 216.644531 270.074219 L 216.804688 273.53125 L 217.523438 275.859375 L 218.640625 277.882813 L 220.140625 279.644531 L 221.335938 280.589844 L 221.703125 281.359375 L 220.554688 282.648438 L 219.40625 284.554688 L 215.402344 283.820313 L 212.734375 284.113281 L 210.324219 284.953125 L 207.929688 284.476563 L 205.363281 284.523438 L 202.269531 285.367188 L 199.429688 287.109375 L 196.789063 290.238281 L 195.394531 294.089844 L 195.425781 298.183594 L 196.871094 302.015625 L 198.691406 304.339844 L 200.15625 307.175781 L 201.945313 309.179688 L 204.71875 311.007813 L 208.023438 311.996094 L 212.324219 312.253906 L 215.867188 311.972656 L 218.230469 311.371094 L 220.527344 310.21875 L 222.691406 308.410156 L 224.417969 306.015625 L 225.457031 303.390625 L 225.832031 300.460938 L 227.992188 303.0625 L 231.378906 305.886719 L 233.210938 307.027344 L 236.707031 308.128906 L 239.210938 308.375 L 241.339844 308.214844 L 241.457031 310.644531 L 242.074219 312.992188 L 243.167969 315.164063 L 244.6875 317.0625 L 246.679688 318.667969 L 249.09375 319.847656 L 252.257813 322.359375 L 254.480469 323.28125 L 254.613281 323.304688 L 253.890625 324.554688 L 253.765625 325.996094 L 254.984375 329.992188 L 255.527344 331.128906 L 255.683594 332.1875 L 256.5625 334.597656 L 257.953125 336.757813 L 260.722656 339.230469 L 262.609375 341.578125 L 262.765625 341.699219 L 263.316406 342.46875 L 263.640625 343.980469 L 262.804688 345.191406 L 263.28125 343.65625 L 262.507813 342.839844 L 260.445313 342 L 258.378906 342.789063 L 257.507813 342.753906 L 256.035156 341.773438 L 253.664063 338.65625 L 252.601563 338.082031 L 245.550781 339.511719 L 244.589844 338.644531 L 243.40625 338.558594 L 241.210938 339.871094 L 241.886719 340.445313 L 246.324219 340.394531 L 249.617188 339.34375 L 251.976563 339.082031 L 254.382813 342.558594 L 260.535156 347.621094 L 263.042969 349.058594 L 263.664063 349.039063 L 264.601563 350.289063 L 264.601563 354.738281 L 264.339844 358.546875 L 265.078125 361.648438 L 266.550781 364.328125 L 268.3125 366.035156 L 264.953125 369.09375 L 261.394531 373.164063 L 260.601563 374.816406 L 262.84375 374.3125 L 264.9375 375.519531 L 266.9375 378.226563 L 270.21875 378.804688 L 270.625 378.746094 L 271.910156 376.796875 L 272.234375 374.960938 L 273.40625 371.914063 L 274.707031 370.632813 L 276.8125 370.265625 L 278.105469 370.410156 L 283.523438 370.359375 L 284.253906 370.867188 L 286.703125 370.742188 L 293.949219 371.515625 L 296.914063 372.84375 L 300.511719 375.476563 L 300.851563 375.929688 L 303.371094 378 L 305.253906 380.347656 L 305.515625 380.546875 L 306.730469 384.164063 L 307.179688 391.25 L 306.777344 393.191406 L 306.890625 393.976563 L 305.789063 396.917969 L 305.183594 399.824219 L 303.925781 402.410156 L 303.246094 406.136719 L 303.328125 408.035156 L 297.144531 414.53125 L 295.578125 412.011719 L 292.742188 410.515625 L 292.480469 410.636719 L 293.898438 413.703125 L 295.890625 416.628906 L 296.3125 416.765625 L 296.164063 417.742188 L 294.574219 419.804688 L 292.191406 421.289063 L 290.003906 421.65625 L 289.660156 421.574219 L 288.214844 419.332031 L 284.976563 421.730469 L 280.71875 424.230469 L 282.339844 425.378906 L 285.105469 424.398438 L 286.097656 423.375 L 286.894531 423.164063 L 287.328125 423.710938 L 287.632813 428.84375 L 285.6875 430.875 L 283.441406 432.558594 L 282.84375 432.699219 L 279.644531 432.160156 L 274.75 433.78125 L 272.609375 436.117188 L 274.253906 436.015625 L 275.152344 434.667969 L 276.683594 434.363281 L 278.285156 434.328125 L 281.054688 434.949219 L 281.828125 435.589844 L 281.691406 436.328125 L 279.554688 436.347656 L 277.390625 437.65625 L 277.96875 438.546875 L 281.382813 438.964844 L 286.863281 440.339844 L 289.394531 439.9375 L 291.074219 438.957031 L 293.902344 438.566406 L 295.617188 440.03125 L 297.5 442.375 L 299.492188 443.90625 L 299.492188 447.785156 L 297.371094 448.160156 L 295.242188 448.972656 L 293.3125 450.1875 L 291.738281 451.660156 L 289.617188 452.035156 L 287.601563 452.792969 L 285.65625 453.988281 L 283.984375 455.539063 L 280.867188 457.019531 L 278.007813 459.753906 L 276.710938 462.335938 L 274.789063 462.777344 L 273.914063 463.191406 L 273.351563 463.167969 L 269.625 463.851563 L 266.894531 465.179688 L 266.121094 465.851563 L 259.269531 463.777344 L 258.460938 463.710938 L 255.125 462.828125 L 252.332031 462.644531 L 249.09375 463.292969 L 246.839844 463.132813 L 244.207031 463.417969 L 240.515625 464.71875 L 238.476563 466.355469 L 238.210938 466.1875 L 238.632813 465.4375 L 239.46875 464.933594 L 237.714844 463.296875 L 231.496094 463.171875 L 231.378906 463.496094 L 232.574219 464.835938 L 232.214844 465.75 L 231.738281 466.042969 L 226.691406 465.496094 L 219.566406 468.449219 L 217.054688 467.824219 L 210.222656 468.96875 L 208.164063 468.875 L 207.273438 468.058594 L 206.238281 469.769531 L 209.328125 471.046875 L 198.691406 471.046875 L 194.816406 470.382813 L 190.9375 471.046875 L 190.851563 471.007813 L 190.289063 470.589844 L 185.898438 468.519531 L 183.121094 467.984375 L 181.648438 469.066406 L 176.207031 469.78125 L 174.339844 470.335938 L 168.992188 473.234375 L 168.214844 474.070313 L 167.203125 476.179688 L 162.746094 489.226563 L 160.929688 490.242188 L 158.269531 489.722656 L 157.554688 489.058594 L 156.527344 486.851563 L 154.683594 485.4375 L 153.613281 485.542969 L 152.417969 486.300781 L 151.738281 486.164063 L 148.46875 482.535156 L 142.796875 482.960938 L 142.546875 483.042969 L 141.652344 483.050781 L 138.722656 483.980469 L 138 484.441406 L 134.507813 484.320313 L 132.167969 484.859375 L 129.414063 488.195313 L 126.714844 489.746094 L 124.039063 490.597656 L 123.132813 494.289063 L 123.300781 494.605469 L 122.765625 495.136719 L 121.609375 497.324219 L 120.660156 497.648438 L 120.632813 497.707031 L 118.800781 496.039063 L 117.546875 495.417969 L 117.15625 494.691406 L 115.984375 493.691406 L 112.253906 492.070313 L 111.410156 491.984375 L 110.375 492.488281 L 110.242188 494.183594 L 110.191406 494.242188 L 109.523438 494.308594 L 107.480469 492.832031 L 105.597656 492.019531 L 105.628906 491.574219 L 106.074219 490.5625 L 106.144531 490.53125 L 108.886719 491.078125 L 112.300781 490.757813 L 115.753906 489.421875 L 118.558594 487.203125 L 120.082031 485.140625 L 120.707031 483.703125 L 121.425781 483.085938 L 124.375 479.769531 L 125.210938 477.886719 L 124.875 476.421875 L 125.640625 474.519531 L 128.386719 473.238281 L 132.105469 472.640625 L 132.679688 471.785156 L 133.257813 469.527344 L 135.859375 467.5625 L 138.636719 464.640625 L 138.996094 460.191406 L 139.761719 458.863281 L 140.539063 455.539063 L 141.671875 455 L 142.492188 455.105469 L 144.269531 456.015625 L 145.761719 455.429688 L 148.429688 452.488281 L 148.144531 448.144531 L 148.292969 447.785156 L 148.566406 447.378906 L 151.105469 446.613281 L 157.421875 446.269531 L 159.910156 445.683594 L 164.597656 446.761719 L 166.046875 446.148438 L 167.527344 446.515625 L 169.484375 447.285156 L 170.039063 448.109375 L 170.757813 448.421875 L 173.15625 448.464844 L 180.570313 447.503906 L 181.109375 445.632813 L 181.210938 443.15625 L 182.519531 440.25 L 190.867188 432.195313 L 195.792969 425.3125 L 197.929688 424.472656 L 198.285156 423.78125 L 198.070313 423.238281 L 197.8125 423.082031 L 196.09375 424.355469 L 192.90625 427.300781 L 190.570313 429.988281 L 189.222656 431.449219 L 185.628906 432.957031 L 183.714844 433.246094 L 182.441406 433.0625 L 178.394531 435.230469 L 177.398438 436.808594 L 177.039063 438.671875 L 176.445313 439.273438 L 174.058594 439.917969 L 170.558594 439.851563 L 166.820313 439 L 166.347656 438.652344 L 161.371094 433.375 L 159.03125 429.199219 L 155.65625 429.589844 L 149.269531 432.308594 L 149.113281 432.746094 L 148.160156 432.191406 L 147.125 430.742188 L 147.09375 430.71875 L 146.917969 429.308594 L 148.539063 428.378906 L 150.066406 428.890625 L 151.640625 428.421875 L 152.765625 427.832031 L 153.085938 427.097656 L 152.808594 426.597656 L 147.785156 426.460938 L 143.210938 423.710938 L 139.503906 423.714844 L 136.765625 424.277344 L 136.292969 426.515625 L 135.777344 427.203125 L 133.742188 427.917969 L 132.394531 427.265625 L 131.648438 427.453125 L 130.5625 428.398438 L 127.15625 428.398438 L 126.53125 428.132813 L 127.425781 426.082031 L 128.796875 425.832031 L 131.792969 424.328125 L 131.226563 422.867188 L 130.640625 424.257813 L 127.769531 424.613281 L 122.949219 424.152344 L 121.496094 423.164063 L 124.125 421.78125 L 125.167969 421.753906 L 125.464844 421.238281 L 124.929688 417.953125 L 123.328125 417.210938 L 121.445313 417.105469 L 122.0625 415.152344 L 125.933594 413.378906 L 126.160156 412.824219 L 127.203125 412.8125 L 131.09375 411.578125 L 131.210938 411.503906 L 133.074219 411.34375 L 134.871094 409.289063 L 135.753906 407.632813 L 137.585938 406.550781 L 141.359375 406.660156 L 142.21875 406.390625 L 149.359375 401.828125 L 152.136719 398.207031 L 153.054688 396.195313 L 154.199219 391.746094 L 153.734375 388.820313 L 152.566406 386.542969 L 152.914063 385.445313 L 153.828125 387.171875 L 158.671875 392.4375 L 160.871094 393.765625 L 163.4375 394.601563 L 165.867188 394.832031 L 168.167969 394.574219 L 170.371094 393.871094 L 172.496094 392.667969 L 174.234375 391.144531 L 177.023438 387.789063 L 178.199219 385.65625 L 178.878906 383.453125 L 179.113281 381.027344 L 178.804688 378.484375 L 177.949219 376.066406 L 176.582031 373.898438 L 173.515625 371.199219 L 169.023438 368.507813 L 166.125 367.496094 L 163.574219 367.253906 L 161.160156 367.550781 L 158.859375 368.339844 L 156.773438 369.59375 L 154.992188 371.25 L 153.59375 373.242188 L 152.644531 375.484375 L 152.527344 376.101563 L 152.683594 374.835938 L 153.175781 374.082031 L 152.804688 373.207031 L 150.203125 373.105469 L 145.449219 374.257813 L 143.757813 375.484375 L 142.5 377.402344 L 141.457031 377.191406 L 137.890625 377.589844 L 140.261719 376.3125 L 142.363281 374.425781 L 143.890625 372.207031 L 144.679688 370.128906 L 147.132813 367.984375 L 147.953125 364.523438 L 151.550781 360.582031 L 153.09375 359.609375 L 154.941406 359.808594 L 160.492188 357.457031 L 163.644531 357.28125 L 167.339844 357.714844 L 172.597656 355.179688 L 173.933594 355.046875 L 174.484375 355.082031 L 179.910156 359.441406 L 180.433594 358.429688 L 177.679688 353.460938 L 178.242188 352.835938 L 180.867188 352.449219 L 181.503906 352.695313 L 181.914063 353.875 L 182.898438 354.332031 L 184.078125 356.789063 L 185.613281 357.902344 L 188.359375 357.621094 L 190.335938 355.148438 L 189.90625 355.050781 L 188.667969 355.527344 L 188.3125 355.957031 L 186.378906 356.386719 L 183.8125 354.640625 L 179.976563 346.332031 L 180.085938 346.136719 L 180.933594 345.210938 L 182.210938 343.023438 L 182.6875 341.480469 L 183.371094 340.257813 L 185.429688 339.015625 L 185.140625 338.578125 L 183.601563 338.507813 L 184.488281 335.617188 L 184.527344 331.648438 L 183.8125 329.585938 L 184.695313 329.191406 L 187.28125 323.421875 L 187.71875 320.933594 L 187.855469 317.484375 L 184.742188 320.527344 L 179.199219 323.441406 L 179.019531 323.367188 L 177.328125 321.289063 L 175.898438 320.203125 L 175.316406 319.191406 L 175.058594 317.722656 L 174.242188 315.59375 L 173.027344 313.664063 L 172.523438 313.128906 L 172.289063 311.832031 L 171.554688 310.753906 L 171.554688 308.214844 L 172.757813 305.253906 L 173.101563 301.953125 L 172.582031 298.929688 L 170.976563 295.238281 L 174.074219 288.722656 L 176.464844 286.417969 L 177.089844 286.296875 L 177.808594 286.898438 L 180.367188 288.078125 L 183.136719 288.609375 L 185.949219 288.457031 L 188.644531 287.632813 L 190.648438 286.492188 L 192.300781 285.070313 L 193.730469 283.257813 L 194.816406 281.078125 L 197.074219 279.28125 L 199.714844 276.046875 L 201.3125 273.265625 L 202.089844 270.15625 L 202.082031 267.589844 L 201.464844 264.964844 L 200.261719 262.550781 L 198.625 260.570313 L 196.152344 258.738281 L 193.160156 257.589844 L 190.097656 257.296875 L 187.0625 257.816406 L 185.355469 255.644531 L 183.183594 253.9375 L 182.464844 249.90625 L 180.304688 246.277344 L 177.332031 243.84375 L 173.601563 242.488281 L 169.050781 242.160156 L 165.375 242.40625 L 162.898438 243.042969 L 160.621094 244.207031 L 158.652344 245.839844 L 157.085938 247.867188 L 156.046875 250.0625 L 153.820313 249.515625 L 151.53125 249.414063 L 145.5625 250.621094 L 142.832031 251.949219 L 140.539063 253.9375 L 139.128906 254.203125 L 137.378906 252.511719 L 138.6875 242.234375 L 140.710938 241.59375 L 142.886719 242.511719 L 146.15625 243.175781 L 148.300781 243.253906 L 141.261719 240.453125 L 140.441406 240.5625 L 139.386719 240.085938 L 139.269531 238.957031 L 140.539063 238.429688 L 143.1875 238.929688 L 145.878906 238.804688 L 149.175781 237.746094 L 152.011719 235.761719 L 153.519531 234.011719 L 154.65625 232 L 155.367188 229.800781 L 155.632813 227.503906 L 155.4375 225.199219 L 154.789063 222.980469 L 153.71875 220.933594 L 152.167969 219.046875 L 154.519531 219.703125 L 156.957031 219.855469 L 159.371094 219.492188 L 161.65625 218.636719 L 163.714844 217.320313 L 165.449219 215.605469 L 166.792969 213.566406 L 167.675781 211.292969 L 171.554688 211.292969 L 174.328125 213.136719 L 177.640625 214.132813 L 180.464844 214.195313 L 183.214844 213.578125 L 185.738281 212.3125 L 187.964844 210.402344 L 189.574219 208.128906 L 190.628906 205.414063 L 191.226563 201.644531 L 191.101563 198.96875 L 189.6875 195.019531 L 187.0625 191.90625 L 187.730469 188.25 L 187.25 184.691406 L 185.484375 181.136719 L 182.625 178.382813 L 180.707031 177.332031 L 178.503906 176.632813 L 173.933594 176.246094 L 171.554688 176.398438 L 168.964844 175.296875 L 166.316406 174.855469 L 163.007813 175.167969 L 159.921875 176.398438 L 156.046875 176.398438 L 152.042969 175.734375 L 147.808594 176.558594 L 148.292969 172.523438 L 150.109375 171.089844 L 151.675781 169.222656 L 152.820313 167.070313 L 153.46875 164.851563 L 153.589844 161.390625 L 153.097656 159.132813 L 152.167969 157.015625 L 152.167969 153.136719 L 154.289063 152.765625 L 156.421875 151.949219 L 158.351563 150.734375 Z M 233.066406 468.441406 L 232.984375 468.472656 L 229.707031 471.046875 L 222.542969 471.046875 L 222.296875 470.886719 L 221.757813 470.964844 L 220.753906 470.535156 L 221.476563 469.683594 L 227.316406 466.367188 L 232.550781 467.761719 Z M 209.757813 471.046875 L 209.511719 471.046875 L 209.714844 470.9375 Z M 144.5 361.972656 L 145.078125 358.359375 L 144.414063 354.738281 L 144.414063 351.296875 L 144.664063 351.183594 L 144.730469 351.175781 L 145.953125 352.394531 L 147.75 353.613281 L 150.621094 354.570313 L 151.039063 355.578125 L 155.546875 356.503906 L 154.066406 358.859375 L 150.984375 360.816406 L 147.425781 363.976563 L 146.109375 363.875 Z M 164.382813 289.53125 L 163.742188 289.25 L 160.582031 288.8125 L 162.863281 288.453125 L 164.914063 287.707031 L 166.789063 286.589844 L 168.421875 285.140625 L 169.753906 283.414063 L 170.742188 281.46875 L 171.347656 279.371094 L 171.554688 277.199219 L 172.152344 280.050781 L 173.371094 282.554688 L 174.96875 284.519531 L 175.59375 285.046875 L 174.65625 284.980469 L 172.566406 284.292969 L 169.453125 284.03125 L 168.226563 288.992188 L 166.234375 288.695313 Z M 132.808594 257.796875 L 132.785156 257.816406 L 132.800781 257.773438 Z M 134.25 250.710938 L 133.773438 248.40625 L 132.785156 246.183594 L 132.496094 243.511719 L 133.71875 244.574219 L 134.707031 246.3125 L 135.339844 249.003906 L 135.222656 250.96875 L 134.8125 251.347656 Z M 132.429688 242.902344 L 132.375 242.398438 L 130.976563 239.265625 L 133.066406 239.789063 L 135.214844 239.917969 L 137.964844 239.496094 L 138.5 239.273438 L 138.320313 240.257813 L 136.15625 245.152344 L 135.023438 244.945313 Z M 133.082031 292.234375 L 134.832031 289.476563 L 135.726563 285.625 L 138.171875 287.695313 L 141.210938 289.058594 L 144.769531 289.496094 L 147.992188 288.886719 L 147.988281 288.910156 L 148.375 290.554688 L 149.046875 291.90625 L 147.199219 294.136719 L 146.289063 295.984375 L 145.816406 295.78125 L 144.601563 294.238281 L 144.507813 293.621094 L 143.632813 292.355469 L 141.613281 291.4375 L 140.164063 290.433594 L 138.398438 288.636719 L 137.464844 288.296875 L 135.511719 289.683594 L 134.605469 291.238281 L 135.976563 295.472656 L 136.734375 296.308594 L 136.769531 296.640625 L 136.660156 296.585938 L 134.953125 294.414063 L 134.167969 293.796875 L 133.472656 292.679688 Z M 150.8125 289.832031 L 151.417969 290.074219 L 151.285156 290.175781 Z M 148.292969 308.539063 L 148.292969 317.265625 L 147.847656 318.148438 L 145.464844 320.492188 L 144.039063 321.035156 L 142.210938 322.171875 L 141.425781 322.902344 L 139.824219 322.464844 L 137.933594 323.433594 L 137.675781 322.921875 L 137.953125 322.117188 L 139.113281 320.667969 L 140.058594 318.457031 L 140.492188 316.203125 L 142.300781 315.023438 L 144.765625 310.230469 L 145.863281 309.40625 Z M 88.742188 499.957031 L 89.144531 499.449219 L 89.34375 499.789063 Z M 286.679688 439.636719 L 283.058594 438.976563 L 282.164063 437.605469 L 282.484375 436.070313 L 286.839844 437.054688 L 287.960938 438.832031 Z M 236.835938 466.113281 L 235.136719 465.644531 L 236.523438 463.683594 L 237.195313 464.164063 L 237.5 465.839844 Z M 236.835938 466.113281 "/>
</g>
</svg>
