<?xml version="1.0" encoding="UTF-8"?>
<svg xmlns="http://www.w3.org/2000/svg" xmlns:xlink="http://www.w3.org/1999/xlink" width="378pt" height="504pt" viewBox="0 0 378 504" version="1.1">
<g id="data">
<rect x="0" y="0" width="378" height="504" style="fill:rgb(100%,100%,100%);fill-opacity:1;stroke:none;"/>
<path style=" stroke:none;fill-rule:nonzero;fill:rgb(100%,100%,100%);fill-opacity:1;" d="M 53.308594 504 L 324.691406 504 L 324.691406 0 L 53.308594 0 Z M 53.308594 504 "/>
<path style=" stroke:none;fill-rule:nonzero;fill:rgb(22.745098%,53.333333%,16.078431%);fill-opacity:1;" d="M 154.136719 382.78125 L 155.539063 383.121094 L 158.277344 384.261719 L 160.359375 385.730469 L 162.105469 387.660156 L 163.503906 388.503906 L 165.085938 388.917969 L 166.8125 388.851563 L 168.429688 388.28125 L 169.933594 387.171875 L 172.269531 384.335938 L 173.140625 382.234375 L 173.261719 381.148438 L 173.121094 379.882813 L 172.710938 378.675781 L 172.085938 377.660156 L 170.890625 376.5 L 168.789063 375.363281 L 167.402344 374.316406 L 166.382813 372.910156 L 165.289063 370.789063 L 164.1875 369.609375 L 162.976563 368.855469 L 161.601563 368.429688 L 159.675781 368.347656 L 158.242188 368.605469 L 156.894531 369.214844 L 155.71875 370.167969 L 154.972656 371.140625 L 154.480469 372.207031 L 153.199219 379.429688 L 153.160156 379.546875 L 152.269531 378.203125 L 152.683594 374.835938 L 153.175781 374.082031 L 152.804688 373.207031 L 150.203125 373.105469 L 145.449219 374.257813 L 143.757813 375.484375 L 142.039063 378.097656 L 136.757813 378.433594 L 136.246094 378.0625 L 137.339844 376.066406 L 140.148438 373.019531 L 141.023438 372.414063 L 142.589844 371.953125 L 147.132813 367.984375 L 147.953125 364.523438 L 151.550781 360.582031 L 153.09375 359.609375 L 154.941406 359.808594 L 160.492188 357.457031 L 163.644531 357.28125 L 167.339844 357.714844 L 172.597656 355.179688 L 173.933594 355.046875 L 174.484375 355.082031 L 179.910156 359.441406 L 180.433594 358.429688 L 177.679688 353.460938 L 178.242188 352.835938 L 180.867188 352.449219 L 181.503906 352.695313 L 181.914063 353.875 L 182.898438 354.332031 L 184.078125 356.789063 L 185.613281 357.902344 L 188.359375 357.621094 L 190.335938 355.148438 L 189.90625 355.050781 L 188.667969 355.527344 L 188.3125 355.957031 L 186.378906 356.386719 L 183.8125 354.640625 L 179.976563 346.332031 L 183.371094 340.257813 L 185.429688 339.015625 L 185.140625 338.578125 L 182.683594 338.460938 L 181.554688 337.164063 L 181.550781 337.15625 L 183.019531 336.652344 L 185.125 336.726563 L 188.3125 337.429688 L 190.066406 338.128906 L 191.5 339.351563 L 192.46875 340.96875 L 193.175781 342.757813 L 193.894531 343.8125 L 194.828125 344.683594 L 195.957031 345.34375 L 197.019531 345.695313 L 198.160156 345.835938 L 199.308594 345.746094 L 200.972656 345.269531 L 202.824219 345.050781 L 204.648438 345.429688 L 206.257813 346.367188 L 207.492188 347.765625 L 208.21875 349.480469 L 208.871094 352.152344 L 209.777344 353.625 L 211.199219 354.855469 L 212.988281 355.617188 L 213.867188 355.753906 L 215.027344 355.707031 L 216.144531 355.4375 L 217.199219 354.949219 L 218.050781 354.328125 L 218.839844 353.476563 L 219.441406 352.5 L 219.847656 351.390625 L 220.628906 346.699219 L 220.492188 345.609375 L 220.136719 344.601563 L 219.105469 343.074219 L 217.773438 342 L 216.167969 341.359375 L 213.699219 341.148438 L 212.050781 340.757813 L 210.585938 339.910156 L 209.425781 338.675781 L 208.671875 337.160156 L 208.386719 335.488281 L 208.59375 333.808594 L 209.398438 330.886719 L 209.210938 328.804688 L 208.296875 326.929688 L 206.761719 325.476563 L 205.421875 324.839844 L 203.902344 324.578125 L 202.542969 324.6875 L 200.542969 325.359375 L 199.125 325.644531 L 197.675781 325.574219 L 194.910156 325.082031 L 191.890625 325.582031 L 190.75 325.660156 L 188.167969 325.574219 L 186.628906 325.816406 L 186.128906 325.996094 L 187.28125 323.421875 L 187.71875 320.933594 L 187.855469 317.484375 L 184.742188 320.527344 L 179.199219 323.441406 L 177.335938 322.691406 L 172.851563 314.925781 L 172.289063 311.832031 L 167.40625 304.652344 L 169.164063 299.058594 L 174.074219 288.722656 L 176.464844 286.417969 L 178.757813 285.980469 L 180.191406 286.804688 L 181.015625 286.710938 L 182.933594 286.238281 L 183.03125 285.160156 L 182.34375 284.746094 L 180.035156 285.351563 L 174.65625 284.980469 L 172.566406 284.292969 L 171.464844 284.199219 L 173.148438 283.484375 L 174.753906 283.054688 L 176.414063 283.097656 L 179.308594 283.59375 L 182.203125 283.097656 L 183.183594 283.015625 L 187.0625 283.015625 L 188.683594 283.246094 L 190.171875 283.917969 L 192.640625 285.480469 L 195.484375 286.136719 L 197.25 286.863281 L 198.679688 288.125 L 199.628906 289.78125 L 199.992188 291.65625 L 200.035156 293.40625 L 200.472656 295.234375 L 200.625 296.859375 L 200.316406 298.46875 L 199.671875 300.355469 L 199.554688 301.601563 L 200.039063 303.910156 L 200.582031 304.910156 L 201.542969 305.972656 L 202.621094 306.707031 L 203.777344 307.140625 L 206.09375 307.273438 L 208.683594 306.511719 L 210.699219 306.289063 L 212.605469 306.414063 L 215.109375 306.167969 L 216.9375 305.527344 L 218.125 304.679688 L 219.132813 303.433594 L 219.765625 301.957031 L 220.066406 299.691406 L 220.628906 297.863281 L 221.753906 296.3125 L 223.324219 295.214844 L 225.164063 294.683594 L 226.332031 294.742188 L 229.304688 299.0625 L 244.476563 306.140625 L 245.742188 307.636719 L 247.265625 310.527344 L 249.289063 315.722656 L 252.390625 319.148438 L 256.121094 320.875 L 257.207031 321.722656 L 254.738281 323.09375 L 253.890625 324.554688 L 253.765625 325.996094 L 254.984375 329.992188 L 256.160156 332.453125 L 263.316406 342.46875 L 263.640625 343.980469 L 262.804688 345.191406 L 263.28125 343.65625 L 262.507813 342.839844 L 260.445313 342 L 258.378906 342.789063 L 257.507813 342.753906 L 256.035156 341.773438 L 253.664063 338.65625 L 252.601563 338.082031 L 245.550781 339.511719 L 244.589844 338.644531 L 243.40625 338.558594 L 241.210938 339.871094 L 241.886719 340.445313 L 246.324219 340.394531 L 249.617188 339.34375 L 251.976563 339.082031 L 254.382813 342.558594 L 260.535156 347.621094 L 263.042969 349.058594 L 263.664063 349.039063 L 266.046875 352.214844 L 268.980469 359.304688 L 269.535156 362.402344 L 269.210938 365.21875 L 264.953125 369.09375 L 261.394531 373.164063 L 260.601563 374.816406 L 262.84375 374.3125 L 264.9375 375.519531 L 266.9375 378.226563 L 270.21875 378.804688 L 270.625 378.746094 L 271.910156 376.796875 L 272.234375 374.960938 L 273.40625 371.914063 L 274.707031 370.632813 L 277.851563 370.085938 L 283.34375 370.234375 L 284.253906 370.867188 L 286.703125 370.742188 L 293.949219 371.515625 L 296.914063 372.84375 L 304.070313 378.085938 L 305.367188 380.105469 L 306.730469 384.164063 L 307.179688 391.25 L 306.777344 393.191406 L 306.890625 393.976563 L 305.789063 396.917969 L 303.519531 407.832031 L 297.144531 414.53125 L 295.578125 412.011719 L 292.742188 410.515625 L 292.480469 410.636719 L 293.898438 413.703125 L 295.890625 416.628906 L 296.3125 416.765625 L 296.164063 417.742188 L 294.574219 419.804688 L 292.191406 421.289063 L 290.003906 421.65625 L 289.660156 421.574219 L 288.214844 419.332031 L 284.976563 421.730469 L 280.71875 424.230469 L 282.339844 425.378906 L 285.105469 424.398438 L 286.097656 423.375 L 286.894531 423.164063 L 287.328125 423.710938 L 287.632813 428.84375 L 285.6875 430.875 L 283.441406 432.558594 L 282.84375 432.699219 L 279.644531 432.160156 L 274.75 433.78125 L 272.609375 436.117188 L 274.253906 436.015625 L 275.152344 434.667969 L 276.683594 434.363281 L 278.285156 434.328125 L 281.054688 434.949219 L 281.828125 435.589844 L 281.691406 436.328125 L 279.554688 436.347656 L 277.390625 437.65625 L 277.96875 438.546875 L 281.382813 438.964844 L 286.863281 440.339844 L 289.394531 439.9375 L 291.074219 438.957031 L 299.742188 437.757813 L 300.988281 440.148438 L 300.773438 446.324219 L 300.335938 447.820313 L 299.394531 449.050781 L 296.972656 450.242188 L 295.839844 450.375 L 292.621094 451.640625 L 291.179688 452.742188 L 289.847656 454.226563 L 289.460938 455.09375 L 289.214844 456.324219 L 289.464844 457.886719 L 286.253906 458.289063 L 284.1875 457.9375 L 281.042969 460.90625 L 278.484375 461.933594 L 274.789063 462.777344 L 272.597656 463.816406 L 270.539063 466.589844 L 269.761719 466.949219 L 259.269531 463.777344 L 256.070313 463.507813 L 244.628906 465.699219 L 242.703125 466.390625 L 242.113281 466.964844 L 241.902344 467.984375 L 241.359375 468.164063 L 238.210938 466.1875 L 238.632813 465.4375 L 239.46875 464.933594 L 237.714844 463.296875 L 231.496094 463.171875 L 231.378906 463.496094 L 232.574219 464.835938 L 232.214844 465.75 L 231.738281 466.042969 L 226.691406 465.496094 L 219.566406 468.449219 L 217.054688 467.824219 L 210.222656 468.96875 L 208.164063 468.875 L 207.273438 468.058594 L 206.238281 469.769531 L 209.429688 471.089844 L 209.714844 470.9375 L 210.1875 472.128906 L 209.566406 473.890625 L 206.84375 474.453125 L 204.453125 473.097656 L 203.015625 472.699219 L 197.625 472.007813 L 196.175781 472.65625 L 195.679688 473.863281 L 195.832031 474.871094 L 196.757813 475.523438 L 196.488281 476.304688 L 195.917969 475.996094 L 194.851563 473.972656 L 190.289063 470.589844 L 185.898438 468.519531 L 183.121094 467.984375 L 181.648438 469.066406 L 176.207031 469.78125 L 174.339844 470.335938 L 168.992188 473.234375 L 168.214844 474.070313 L 167.203125 476.179688 L 162.746094 489.226563 L 160.929688 490.242188 L 158.269531 489.722656 L 157.554688 489.058594 L 156.527344 486.851563 L 154.683594 485.4375 L 153.613281 485.542969 L 152.417969 486.300781 L 151.738281 486.164063 L 148.46875 482.535156 L 142.796875 482.960938 L 141.527344 483.375 L 140.734375 484.175781 L 139.910156 484.507813 L 134.507813 484.320313 L 132.167969 484.859375 L 129.414063 488.195313 L 126.714844 489.746094 L 124.039063 490.597656 L 123.132813 494.289063 L 123.664063 495.292969 L 123.496094 496.125 L 122.722656 496.945313 L 120.660156 497.648438 L 119.628906 499.730469 L 118.675781 498.910156 L 117.96875 497.691406 L 118.09375 496.4375 L 117.15625 494.691406 L 115.984375 493.691406 L 112.253906 492.070313 L 111.410156 491.984375 L 110.375 492.488281 L 110.242188 494.183594 L 109.691406 494.820313 L 109.167969 494.417969 L 108.128906 492.882813 L 107.625 491.097656 L 107.679688 489.859375 L 111.738281 488.078125 L 112.199219 488.253906 L 112.445313 488.9375 L 113.574219 489.15625 L 118.144531 485.910156 L 121.425781 483.085938 L 124.375 479.769531 L 125.210938 477.886719 L 124.875 476.421875 L 125.640625 474.519531 L 128.386719 473.238281 L 132.105469 472.640625 L 132.679688 471.785156 L 133.257813 469.527344 L 135.859375 467.5625 L 138.636719 464.640625 L 139.128906 458.542969 L 139.796875 454.753906 L 142.492188 455.105469 L 144.269531 456.015625 L 145.761719 455.429688 L 148.429688 452.488281 L 148.105469 447.519531 L 151.105469 446.613281 L 157.421875 446.269531 L 159.910156 445.683594 L 164.597656 446.761719 L 166.046875 446.148438 L 167.527344 446.515625 L 169.484375 447.285156 L 170.039063 448.109375 L 170.757813 448.421875 L 173.15625 448.464844 L 180.570313 447.503906 L 181.109375 445.632813 L 181.210938 443.15625 L 182.519531 440.25 L 190.867188 432.195313 L 195.792969 425.3125 L 197.929688 424.472656 L 198.285156 423.78125 L 198.070313 423.238281 L 197.8125 423.082031 L 196.09375 424.355469 L 192.90625 427.300781 L 190.570313 429.988281 L 189.222656 431.449219 L 185.628906 432.957031 L 183.714844 433.246094 L 182.441406 433.0625 L 178.394531 435.230469 L 177.398438 436.808594 L 177.039063 438.671875 L 176.445313 439.273438 L 174.058594 439.917969 L 170.558594 439.851563 L 166.820313 439 L 166.347656 438.652344 L 161.371094 433.375 L 159.03125 429.199219 L 155.65625 429.589844 L 149.269531 432.308594 L 149.113281 432.746094 L 147.203125 431.632813 L 146.917969 429.308594 L 148.539063 428.378906 L 150.066406 428.890625 L 151.640625 428.421875 L 152.765625 427.832031 L 153.085938 427.097656 L 152.808594 426.597656 L 147.785156 426.460938 L 143.210938 423.710938 L 139.503906 423.714844 L 136.765625 424.277344 L 136.292969 426.515625 L 135.777344 427.203125 L 133.742188 427.917969 L 132.394531 427.265625 L 131.648438 427.453125 L 129.4375 429.378906 L 126.53125 428.132813 L 127.425781 426.082031 L 128.796875 425.832031 L 131.792969 424.328125 L 131.226563 422.867188 L 130.640625 424.257813 L 127.769531 424.613281 L 122.949219 424.152344 L 121.496094 423.164063 L 124.125 421.78125 L 125.167969 421.753906 L 125.464844 421.238281 L 124.929688 417.953125 L 123.328125 417.210938 L 121.445313 417.105469 L 122.0625 415.152344 L 125.933594 413.378906 L 126.539063 411.90625 L 133.074219 411.34375 L 134.871094 409.289063 L 135.753906 407.632813 L 137.585938 406.550781 L 141.359375 406.660156 L 142.21875 406.390625 L 149.359375 401.828125 L 152.136719 398.207031 L 153.054688 396.195313 L 154.199219 391.746094 L 153.734375 388.820313 L 152.566406 386.542969 L 153.179688 384.597656 Z M 146.257813 405.703125 L 146.167969 406.59375 L 145.472656 408.214844 L 143.871094 410.785156 L 143.460938 412.832031 L 143.804688 414.890625 L 144.816406 416.644531 L 146.21875 417.835938 L 148.234375 418.613281 L 151.703125 418.929688 L 152.617188 418.761719 L 153.453125 418.429688 L 154.996094 417.332031 L 156.296875 415.671875 L 156.902344 414.085938 L 157.023438 412.238281 L 156.84375 411.253906 L 156.421875 410.203125 L 155.738281 409.167969 L 154.925781 408.359375 L 154.035156 407.765625 L 153.199219 407.410156 L 148.585938 406.691406 L 146.746094 406.078125 Z M 161.070313 292.375 L 160.652344 291.5 L 160.429688 289.609375 L 160.832031 287.75 L 161.808594 286.121094 L 163.261719 284.890625 L 165.035156 284.199219 L 166.933594 284.113281 L 169.359375 284.40625 L 168.226563 288.992188 L 166.234375 288.695313 L 163.3125 290.011719 L 161.832031 291.855469 Z M 186.40625 203.769531 L 187.675781 202.601563 L 189.230469 201.855469 L 190.9375 201.601563 L 198.691406 201.601563 L 200.464844 201.875 L 202.066406 202.679688 L 203.078125 203.667969 L 200.949219 206.4375 L 199.179688 207.605469 L 197.078125 210.023438 L 197.433594 210.839844 L 197.785156 210.703125 L 197.761719 211.238281 L 196.796875 214.386719 L 195.867188 215.914063 L 194.226563 217.261719 L 193.125 217.425781 L 191.464844 218.226563 L 190.648438 218.914063 L 189.933594 219.851563 L 189.84375 220.066406 L 185.519531 221.085938 L 182.847656 221.226563 L 177.804688 225.21875 L 178.117188 225.714844 L 179.84375 225.195313 L 184.609375 222.886719 L 186.457031 221.386719 L 187.289063 221.316406 L 189.085938 221.875 L 189.144531 222.125 L 188.875 224.382813 L 189.046875 228.089844 L 189.460938 229.667969 L 190.042969 230.742188 L 190.886719 231.714844 L 191.21875 231.964844 L 189.460938 232.730469 L 188.34375 232.882813 L 187.070313 232.078125 L 185.40625 232.042969 L 181.046875 235.800781 L 180.578125 237.003906 L 174.761719 240.109375 L 170.214844 238.117188 L 166.480469 238.003906 L 166.738281 239.222656 L 167.445313 239.679688 L 165.113281 240.21875 L 163.375 240.355469 L 161.675781 239.96875 L 160.128906 239.359375 L 158.671875 238.53125 L 157.515625 237.320313 L 155.1875 234.050781 L 154.347656 232.332031 L 154.113281 230.433594 L 154.507813 228.5625 L 155.484375 226.917969 L 156.945313 225.683594 L 158.726563 224.984375 L 160.859375 224.539063 L 162.109375 223.917969 L 164.332031 221.953125 L 165.222656 220.785156 L 165.707031 219.734375 L 165.964844 218.5625 L 165.742188 211.476563 L 165.972656 209.65625 L 166.757813 208 L 168.023438 206.671875 L 169.636719 205.800781 L 171.441406 205.476563 L 173.257813 205.730469 L 174.902344 206.539063 L 176.550781 207.699219 L 177.792969 208.195313 L 179.117188 208.394531 L 180.480469 208.28125 L 181.609375 207.929688 L 182.824219 207.242188 L 184.945313 205.589844 Z M 223.609375 284.820313 L 221.917969 285.570313 L 220.007813 285.742188 L 218.148438 285.277344 L 215.632813 284.1875 L 213.738281 284.03125 L 211.894531 284.492188 L 209.585938 285.972656 L 207.898438 286.707031 L 206.066406 286.878906 L 204.273438 286.472656 L 202.695313 285.523438 L 201.496094 284.128906 L 200.789063 282.425781 L 200.652344 280.59375 L 201.09375 278.804688 L 202.070313 277.246094 L 203.207031 275.945313 L 203.777344 274.949219 L 204.144531 273.847656 L 204.28125 272.800781 L 204.207031 271.640625 L 203.902344 270.515625 L 203.4375 269.570313 L 202.761719 268.683594 L 201.707031 267.785156 L 199.917969 266.867188 L 198.832031 266.148438 L 196.800781 264.445313 L 195.707031 263.933594 L 193.648438 263.511719 L 192.109375 262.960938 L 190.78125 262.003906 L 189.417969 260.6875 L 188.386719 260.070313 L 186.425781 259.546875 L 183.582031 259.738281 L 181.609375 259.535156 L 179.820313 258.683594 L 178.421875 257.277344 L 177.578125 255.480469 L 177.386719 253.507813 L 177.589844 250.742188 L 177.152344 248.953125 L 176.515625 247.824219 L 175.078125 246.296875 L 173.949219 244.566406 L 173.046875 242.429688 L 172.191406 241.324219 L 171.402344 240.734375 L 178.0625 241.875 L 182.921875 243.167969 L 186.398438 241.730469 L 187.519531 239.417969 L 188.617188 238.355469 L 189.539063 238.171875 L 193.183594 238.5 L 199.339844 242.761719 L 206.488281 246.65625 L 208.910156 251.429688 L 212.824219 256.707031 L 213.265625 256.828125 L 213.433594 256.585938 L 214.601563 257.097656 L 217.371094 258.992188 L 218.679688 263.09375 L 218.894531 265.933594 L 218.261719 267.402344 L 220.40625 277.574219 L 221.269531 280.457031 L 222.984375 284.039063 Z M 142.476563 172.464844 L 142.777344 170.683594 L 143.609375 169.078125 L 144.890625 167.804688 L 146.507813 166.988281 L 148.292969 166.707031 L 152.167969 166.707031 L 153.308594 166.820313 L 155.808594 167.320313 L 156.464844 167.28125 L 155.320313 167.769531 L 152.441406 170.8125 L 151.949219 171.945313 L 152.140625 172.144531 L 156.390625 168.453125 L 157.75 167.980469 L 160.300781 168.324219 L 161.058594 169.320313 L 157.109375 173.804688 L 156.367188 175.339844 L 156.707031 175.816406 L 157.367188 175.984375 L 158.261719 175.542969 L 161.140625 173.015625 L 167.808594 170.273438 L 170.480469 169.527344 L 170.492188 169.949219 L 171.554688 169.839844 L 173.589844 168.316406 L 174.046875 166.78125 L 178.648438 166.167969 L 179.285156 167.089844 L 180.148438 167.667969 L 184.320313 169.011719 L 187.675781 167.128906 L 188.796875 167.308594 L 189 168.644531 L 188.738281 170.371094 L 187.976563 171.945313 L 186.78125 173.21875 L 185.15625 174.496094 L 183.878906 176.117188 L 182.339844 177.488281 L 180.417969 178.230469 L 178.355469 178.261719 L 175.335938 177.757813 L 172.570313 178.25 L 171.175781 178.328125 L 169.339844 178.207031 L 167.707031 178.40625 L 165.714844 179.167969 L 163.613281 180.894531 L 162 181.832031 L 160.175781 182.210938 L 158.320313 181.992188 L 156.632813 181.195313 L 154.738281 179.894531 L 153.316406 179.398438 L 151.699219 179.292969 L 149.464844 179.757813 L 147.742188 179.855469 L 146.066406 179.445313 L 144.585938 178.5625 L 143.429688 177.28125 L 142.703125 175.71875 L 142.460938 174.011719 Z M 159.761719 165.878906 L 160.171875 165.574219 L 161.121094 164.292969 L 161.789063 162.441406 L 161.847656 161.984375 L 164.042969 162.292969 L 165.242188 161.992188 L 166.015625 161.605469 L 166.75 160.257813 L 167.589844 160.183594 L 167.507813 160.828125 L 166.417969 162.609375 L 162.722656 166.96875 L 162.175781 167.183594 L 161.726563 166.894531 L 161.859375 165.949219 L 161.53125 165.507813 L 159.984375 165.785156 Z M 162.199219 159.339844 L 162.433594 157.578125 L 162.671875 158.175781 Z M 162.363281 156.726563 L 161.933594 154.058594 L 161.972656 152.007813 L 162.71875 150.097656 L 164.082031 148.566406 L 165.707031 147.289063 L 166.984375 145.667969 L 168.269531 144.464844 L 169.855469 143.699219 L 171.597656 143.445313 L 173.335938 143.726563 L 174.914063 144.515625 L 175.339844 144.925781 L 173.855469 147.214844 L 162.601563 156.074219 Z M 133.582031 292.855469 L 133.773438 291.996094 L 134.773438 290.363281 L 135.425781 289.828125 L 134.605469 291.238281 L 135.976563 295.472656 L 136.734375 296.308594 L 136.957031 298.523438 L 136.742188 298.695313 L 134.683594 297.484375 L 134.359375 296.304688 L 134.707031 295.457031 L 134.59375 294.480469 Z M 136.171875 289.214844 L 136.253906 289.148438 L 136.28125 289.136719 Z M 138.003906 288.492188 L 138.046875 288.476563 L 140.355469 288.027344 L 142.355469 287.042969 L 144.0625 286.511719 L 145.851563 286.523438 L 147.554688 287.078125 L 148.429688 287.710938 L 148.15625 288.078125 L 147.988281 288.910156 L 148.375 290.554688 L 149.574219 292.960938 L 149.820313 295.5 L 149.25 296.699219 L 149.210938 296.90625 L 148.746094 297.058594 L 145.816406 295.78125 L 144.601563 294.238281 L 144.507813 293.621094 L 143.632813 292.355469 L 141.613281 291.4375 L 140.164063 290.433594 L 138.398438 288.636719 Z M 147.425781 363.976563 L 146.109375 363.875 L 144.195313 361.613281 L 142.050781 357.363281 L 142.246094 352.273438 L 144.664063 351.183594 L 146.003906 350.957031 L 149.566406 352.007813 L 151.039063 355.578125 L 155.546875 356.503906 L 154.066406 358.859375 L 150.984375 360.816406 Z M 141.734375 358.875 L 141.003906 358.070313 L 139.230469 356.960938 L 138.828125 356.035156 L 139.253906 355.210938 L 140.597656 355.164063 L 141.484375 356.3125 L 142.226563 358.1875 Z M 137.933594 323.433594 L 137.675781 322.921875 L 139.816406 316.644531 L 142.300781 315.023438 L 144.765625 310.230469 L 145.863281 309.40625 L 149.046875 308.269531 L 150.203125 313.453125 L 147.847656 318.148438 L 145.3125 320.636719 L 141.859375 323.019531 L 139.824219 322.464844 Z M 286.679688 439.636719 L 283.058594 438.976563 L 282.164063 437.605469 L 282.484375 436.070313 L 286.839844 437.054688 L 287.960938 438.832031 Z M 236.835938 466.113281 L 235.136719 465.644531 L 236.523438 463.683594 L 237.195313 464.164063 L 237.5 465.839844 Z M 228.117188 474.644531 L 222.296875 470.886719 L 220.207031 471.1875 L 221.476563 469.683594 L 227.316406 466.367188 L 232.550781 467.761719 L 234.171875 469.894531 L 231.242188 473.621094 L 229.960938 474.269531 Z M 88.429688 500.046875 L 88.566406 499.308594 L 88.941406 499.117188 L 89.34375 499.789063 Z M 88.429688 500.046875 "/>
<path style=" stroke:none;fill-rule:nonzero;fill:rgb(80.392157%,58.431373%,4.705882%);fill-opacity:1;" d="M 154.109375 250.0625 L 153.824219 251.859375 L 152.996094 253.480469 L 151.710938 254.765625 L 150.089844 255.59375 L 148.292969 255.875 L 146.496094 255.59375 L 144.875 254.765625 L 143.585938 253.480469 L 142.761719 251.859375 L 142.476563 250.0625 L 142.761719 248.265625 L 143.585938 246.644531 L 144.875 245.355469 L 146.496094 244.53125 L 148.292969 244.246094 L 150.089844 244.53125 L 151.710938 245.355469 L 152.996094 246.644531 L 153.824219 248.265625 Z M 154.109375 250.0625 "/>
<path style=" stroke:none;fill-rule:nonzero;fill:rgb(80.392157%,58.431373%,4.705882%);fill-opacity:1;" d="M 146.355469 184.152344 L 146.070313 185.949219 L 145.242188 187.570313 L 143.957031 188.859375 L 142.335938 189.683594 L 140.539063 189.96875 L 138.742188 189.683594 L 137.121094 188.859375 L 135.832031 187.570313 L 135.007813 185.949219 L 134.722656 184.152344 L 135.007813 182.355469 L 135.832031 180.734375 L 137.121094 179.449219 L 138.742188 178.625 L 140.539063 178.339844 L 142.335938 178.625 L 143.957031 179.449219 L 145.242188 180.734375 L 146.070313 182.355469 Z M 146.355469 184.152344 "/>
<path style=" stroke:none;fill-rule:nonzero;fill:rgb(80.392157%,58.431373%,4.705882%);fill-opacity:1;" d="M 130.847656 172.523438 L 130.5625 174.320313 L 129.734375 175.941406 L 128.449219 177.226563 L 126.828125 178.054688 L 125.03125 178.339844 L 123.234375 178.054688 L 121.613281 177.226563 L 120.324219 175.941406 L 119.5 174.320313 L 119.214844 172.523438 L 119.5 170.726563 L 119.636719 170.453125 L 120.097656 170.289063 L 120.859375 170.738281 L 121.429688 171.886719 L 123.644531 173.570313 L 124.390625 172.890625 L 127 172.59375 L 126.421875 171.808594 L 123.910156 171.675781 L 123.300781 171.917969 L 120.847656 168.582031 L 121.613281 167.816406 L 123.234375 166.992188 L 125.03125 166.707031 L 126.828125 166.992188 L 128.449219 167.816406 L 129.734375 169.105469 L 130.5625 170.726563 Z M 130.847656 172.523438 "/>
<path style=" stroke:none;fill-rule:nonzero;fill:rgb(80.392157%,58.431373%,4.705882%);fill-opacity:1;" d="M 130.8125 234.773438 L 130.5625 236.351563 L 129.734375 237.972656 L 128.449219 239.257813 L 128.3125 239.328125 L 128.453125 238.691406 Z M 125.585938 240.28125 L 125.03125 240.371094 L 123.234375 240.085938 L 121.613281 239.257813 L 121.371094 239.015625 L 121.945313 238.054688 L 122.191406 237.09375 L 120.824219 237.742188 L 120.554688 238.199219 L 120.324219 237.972656 L 120.164063 237.65625 L 123.929688 230.9375 L 123.671875 230.734375 L 122.386719 231.796875 L 121.808594 231.777344 L 121.933594 229.683594 L 123.234375 229.023438 L 125.03125 228.738281 L 126.828125 229.023438 L 128.449219 229.847656 L 129.734375 231.136719 L 130.5625 232.757813 L 130.703125 233.660156 L 130.363281 233.964844 L 126.449219 238.917969 L 125.671875 238.734375 L 125.460938 238.363281 Z M 119.277344 234.160156 L 119.496094 232.78125 L 119.632813 233.128906 L 119.449219 233.945313 Z M 120.902344 230.5625 L 120.90625 230.558594 L 120.902344 230.566406 Z M 120.902344 230.5625 "/>
<path style=" stroke:none;fill-rule:nonzero;fill:rgb(80.392157%,58.431373%,4.705882%);fill-opacity:1;" d="M 115.339844 222.921875 L 115.296875 223.191406 L 112.109375 224.96875 L 106.027344 226.585938 L 104.796875 226.300781 L 103.992188 224.71875 L 103.820313 223.625 L 103.851563 223.371094 L 104.191406 223.09375 L 105.628906 223.050781 L 106.039063 223.617188 L 106.972656 224.074219 L 112.214844 222.164063 L 112.035156 221.589844 L 109.863281 222.445313 L 108.199219 222.488281 L 107.824219 221.539063 L 109.386719 219.472656 L 112.511719 218 L 112.941406 218.21875 L 114.226563 219.503906 L 115.054688 221.125 Z M 107.1875 217.667969 L 107.726563 217.390625 L 108.804688 217.222656 L 109.105469 217.519531 L 109.070313 217.820313 L 108.136719 218.074219 L 107.207031 217.691406 Z M 109.359375 217.132813 L 109.523438 217.109375 L 110.65625 217.289063 L 109.90625 217.519531 Z M 109.359375 217.132813 "/>
<path style=" stroke:none;fill-rule:nonzero;fill:rgb(80.392157%,58.431373%,4.705882%);fill-opacity:1;" d="M 132.015625 263.507813 L 130.988281 263.347656 L 129.367188 262.519531 L 128.078125 261.234375 L 127.253906 259.613281 L 126.96875 257.816406 L 127.253906 256.019531 L 128.078125 254.398438 L 129.367188 253.109375 L 130.699219 252.429688 L 131.390625 253.015625 L 132.984375 258.382813 L 133.019531 262.765625 L 132.308594 263.453125 Z M 132.015625 263.507813 "/>
<path style=" stroke:none;fill-rule:nonzero;fill:rgb(80.392157%,58.431373%,4.705882%);fill-opacity:1;" d="M 207.054688 188.933594 L 206.90625 188.859375 L 205.617188 187.570313 L 204.792969 185.949219 L 204.507813 184.152344 L 204.792969 182.355469 L 205.617188 180.734375 L 206.90625 179.449219 L 208.527344 178.625 L 210.324219 178.339844 L 212.121094 178.625 L 212.886719 179.015625 L 209.382813 183.425781 L 207.15625 188.339844 Z M 207.054688 188.933594 "/>
</g>
</svg>
