<?xml version="1.0" encoding="UTF-8"?>
<svg xmlns="http://www.w3.org/2000/svg" xmlns:xlink="http://www.w3.org/1999/xlink" width="378pt" height="504pt" viewBox="0 0 378 504" version="1.1">
<g id="data">
<rect x="0" y="0" width="378" height="504" style="fill:rgb(100%,100%,100%);fill-opacity:1;stroke:none;"/>
<path style=" stroke:none;fill-rule:nonzero;fill:rgb(100%,100%,100%);fill-opacity:1;" d="M 53.308594 504 L 324.691406 504 L 324.691406 0 L 53.308594 0 Z M 53.308594 504 "/>
<path style=" stroke:none;fill-rule:nonzero;fill:rgb(22.745098%,53.333333%,16.078431%);fill-opacity:1;" d="M 258.789063 389.851563 L 258.964844 388.191406 L 259.605469 386.652344 L 260.65625 385.355469 L 262.03125 384.414063 L 263.617188 383.898438 L 265.21875 383.625 L 266.234375 383.246094 L 267.15625 382.6875 L 267.960938 381.96875 L 268.617188 381.113281 L 269.105469 380.148438 L 269.402344 379.109375 L 269.445313 378.671875 L 270.21875 378.804688 L 270.625 378.746094 L 271.910156 376.796875 L 272.234375 374.960938 L 273.082031 372.753906 L 274 372.375 L 275.796875 372.234375 L 277.546875 372.652344 L 279.089844 373.582031 L 280.929688 375.132813 L 282.230469 375.726563 L 285.378906 376.175781 L 287.578125 376.070313 L 289.296875 376.242188 L 289.789063 376.449219 L 289.898438 376.050781 L 290.945313 374.480469 L 291.367188 374.027344 L 292.589844 373.03125 L 294.039063 372.402344 L 295.480469 372.203125 L 296.914063 372.84375 L 304.070313 378.085938 L 305.367188 380.105469 L 306.730469 384.164063 L 307.179688 391.25 L 306.777344 393.191406 L 306.890625 393.976563 L 305.789063 396.917969 L 305.367188 398.9375 L 304.414063 398.585938 L 302.996094 397.476563 L 301.988281 395.988281 L 301.480469 394.261719 L 301.527344 392.460938 L 301.90625 390.386719 L 301.820313 388.988281 L 301.398438 387.65625 L 300.667969 386.460938 L 299.675781 385.476563 L 298.484375 384.769531 L 297.054688 384.34375 L 294.960938 384.261719 L 293.246094 383.910156 L 293.058594 384.488281 L 292.0625 385.898438 L 290.695313 386.957031 L 288.132813 388.386719 L 286.75 389.976563 L 286.136719 391.476563 L 285.898438 394.042969 L 285.769531 394.835938 L 285.351563 396.625 L 285.367188 398.355469 L 286.222656 402.140625 L 286.929688 403.554688 L 288.355469 405.179688 L 289.425781 406.964844 L 289.800781 409.015625 L 289.800781 412.890625 L 289.535156 414.628906 L 288.765625 416.203125 L 287.558594 417.480469 L 286.027344 418.335938 L 284.308594 418.699219 L 282.5625 418.53125 L 280.945313 417.847656 L 279.601563 416.714844 L 277.914063 414.78125 L 276.375 413.839844 L 274.746094 413.429688 L 272.933594 413.539063 L 269.21875 414.9375 L 267.75 415.914063 L 266.523438 417.449219 L 265.835938 419.386719 L 265.761719 420.515625 L 265.945313 421.738281 L 266.625 423.617188 L 267.3125 424.699219 L 268.640625 425.917969 L 270.972656 427.023438 L 272.511719 428.089844 L 273.632813 429.585938 L 274.777344 431.78125 L 275.957031 433.007813 L 276.359375 433.246094 L 274.75 433.78125 L 272.609375 436.117188 L 274.253906 436.015625 L 275.152344 434.667969 L 276.683594 434.363281 L 278.285156 434.328125 L 280.035156 434.722656 L 280.765625 435.066406 L 280.949219 435.238281 L 281 435.210938 L 281.300781 435.152344 L 281.828125 435.589844 L 281.691406 436.328125 L 279.554688 436.347656 L 277.390625 437.65625 L 277.96875 438.546875 L 281.382813 438.964844 L 286.863281 440.339844 L 289.394531 439.9375 L 291.074219 438.957031 L 299.742188 437.757813 L 300.988281 440.148438 L 300.773438 446.324219 L 300.421875 447.527344 L 299.210938 448.480469 L 297.515625 449.402344 L 295.617188 449.722656 L 287.863281 449.722656 L 285.824219 449.355469 L 284.042969 448.292969 L 282.339844 446.8125 L 280.433594 445.859375 L 279.609375 445.257813 L 278.363281 445.640625 L 275.777344 446.023438 L 274.414063 446.578125 L 272.140625 448.421875 L 270.554688 449.339844 L 268.925781 449.964844 L 268.238281 450.394531 L 266.601563 452.203125 L 265.96875 453.6875 L 265.792969 455.375 L 266.703125 459.882813 L 267.710938 462.191406 L 268.175781 464.007813 L 268.039063 465.878906 L 267.832031 466.367188 L 259.269531 463.777344 L 256.070313 463.507813 L 244.628906 465.699219 L 242.703125 466.390625 L 242.113281 466.964844 L 241.902344 467.984375 L 241.835938 468.007813 L 240.617188 466.851563 L 239.753906 465.289063 L 239.40625 463.535156 L 239.605469 461.761719 L 240.335938 460.128906 L 241.800781 457.867188 L 242.25 456.25 L 242.191406 454.464844 L 241.554688 452.6875 L 240.460938 451.132813 L 240.0625 450.476563 L 238.917969 448.292969 L 237.773438 447.117188 L 235.914063 446.167969 L 232.890625 445.804688 L 231.136719 445.304688 L 229.621094 444.285156 L 228.496094 442.847656 L 227.875 441.132813 L 227.511719 439.257813 L 227.042969 438.15625 L 226.371094 437.1875 L 224.980469 435.785156 L 223.230469 434.699219 L 220.570313 434.046875 L 218.964844 433.386719 L 217.621094 432.28125 L 216.667969 430.828125 L 216.1875 429.15625 L 216.222656 427.417969 L 216.71875 424.523438 L 216.222656 421.628906 L 216.203125 419.785156 L 216.761719 418.027344 L 217.839844 416.535156 L 219.335938 415.453125 L 221.09375 414.894531 L 222.9375 414.914063 L 225.832031 415.410156 L 228.722656 414.914063 L 230.761719 414.925781 L 232.667969 415.640625 L 234.214844 416.96875 L 235.5 418.546875 L 236.480469 419.308594 L 237.710938 419.875 L 239.085938 420.15625 L 240.09375 420.144531 L 241.097656 419.941406 L 244.835938 418.132813 L 245.808594 417.222656 L 246.546875 416.078125 L 247.015625 414.679688 L 247.167969 412.484375 L 247.679688 410.476563 L 248.859375 408.777344 L 250.5625 407.597656 L 252.652344 406.648438 L 253.875 405.636719 L 254.582031 404.679688 L 255.390625 402.820313 L 256.558594 401.078125 L 257.824219 399.78125 L 258.484375 398.734375 L 258.855469 397.769531 L 259.046875 396.667969 Z M 208.5625 474.097656 L 207.757813 473.15625 L 207.0625 471.507813 L 206.933594 470.058594 L 209.429688 471.089844 L 209.714844 470.9375 L 210.1875 472.128906 L 209.566406 473.890625 Z M 207.273438 468.058594 L 207.292969 467.980469 L 208.195313 466.4375 L 209.519531 465.238281 L 210.871094 464.355469 L 211.644531 463.609375 L 212.269531 462.738281 L 212.949219 461.273438 L 213.960938 459.765625 L 215.390625 458.640625 L 217.097656 458.015625 L 218.914063 457.945313 L 220.664063 458.441406 L 222.175781 459.453125 L 223.300781 460.882813 L 224.429688 462.902344 L 225.429688 463.9375 L 226.675781 464.699219 L 228.785156 465.335938 L 229.828125 465.835938 L 226.691406 465.496094 L 219.566406 468.449219 L 217.054688 467.824219 L 210.222656 468.96875 L 208.164063 468.875 Z M 231.8125 467.5625 L 232.53125 468.828125 L 232.902344 470.546875 L 232.800781 471.636719 L 231.242188 473.621094 L 229.960938 474.269531 L 228.117188 474.644531 L 222.296875 470.886719 L 220.207031 471.1875 L 221.476563 469.683594 L 227.316406 466.367188 Z M 286.679688 439.636719 L 283.058594 438.976563 L 282.164063 437.605469 L 282.484375 436.070313 L 286.839844 437.054688 L 287.960938 438.832031 Z M 286.679688 439.636719 "/>
<path style=" stroke:none;fill-rule:nonzero;fill:rgb(80.392157%,58.431373%,4.705882%);fill-opacity:1;" d="M 192.875 443.90625 L 192.59375 445.703125 L 191.765625 447.324219 L 190.480469 448.613281 L 188.859375 449.4375 L 187.0625 449.722656 L 185.265625 449.4375 L 183.644531 448.613281 L 182.355469 447.324219 L 181.53125 445.703125 L 181.246094 443.90625 L 181.449219 442.625 L 182.453125 440.394531 L 183.644531 439.203125 L 185.265625 438.375 L 187.0625 438.09375 L 188.859375 438.375 L 190.480469 439.203125 L 191.765625 440.488281 L 192.59375 442.109375 Z M 192.875 443.90625 "/>
<path style=" stroke:none;fill-rule:nonzero;fill:rgb(80.392157%,58.431373%,4.705882%);fill-opacity:1;" d="M 134.722656 474.921875 L 134.4375 476.71875 L 133.613281 478.339844 L 132.324219 479.628906 L 130.703125 480.453125 L 128.90625 480.738281 L 127.109375 480.453125 L 125.488281 479.628906 L 124.761719 478.898438 L 125.210938 477.886719 L 124.875 476.421875 L 125.640625 474.519531 L 128.386719 473.238281 L 132.105469 472.640625 L 132.679688 471.785156 L 132.925781 470.820313 L 133.613281 471.503906 L 134.4375 473.125 Z M 134.722656 474.921875 "/>
<path style=" stroke:none;fill-rule:nonzero;fill:rgb(80.392157%,58.431373%,4.705882%);fill-opacity:1;" d="M 185.125 242.308594 L 184.839844 244.105469 L 184.011719 245.726563 L 182.726563 247.011719 L 181.105469 247.839844 L 179.308594 248.125 L 177.511719 247.839844 L 175.890625 247.011719 L 174.601563 245.726563 L 173.777344 244.105469 L 173.492188 242.308594 L 173.679688 241.125 L 178.0625 241.875 L 182.921875 243.167969 L 185.117188 242.261719 Z M 174.125 239.832031 L 174.601563 238.890625 L 175.890625 237.601563 L 177.511719 236.777344 L 179.308594 236.492188 L 180.691406 236.710938 L 180.578125 237.003906 L 174.761719 240.109375 Z M 174.125 239.832031 "/>
<path style=" stroke:none;fill-rule:nonzero;fill:rgb(80.392157%,58.431373%,4.705882%);fill-opacity:1;" d="M 134.722656 471.046875 L 134.4375 472.84375 L 133.613281 474.464844 L 132.324219 475.75 L 130.703125 476.578125 L 128.90625 476.863281 L 127.109375 476.578125 L 125.488281 475.75 L 125.242188 475.503906 L 125.640625 474.519531 L 128.386719 473.238281 L 132.105469 472.640625 L 132.679688 471.785156 L 133.257813 469.527344 L 134.210938 468.804688 L 134.4375 469.25 Z M 134.722656 471.046875 "/>
</g>
</svg>
