<?xml version="1.0" encoding="UTF-8"?>
<svg xmlns="http://www.w3.org/2000/svg" xmlns:xlink="http://www.w3.org/1999/xlink" width="378pt" height="504pt" viewBox="0 0 378 504" version="1.1">
<g id="data">
<rect x="0" y="0" width="378" height="504" style="fill:rgb(100%,100%,100%);fill-opacity:1;stroke:none;"/>
<path style=" stroke:none;fill-rule:nonzero;fill:rgb(100%,100%,100%);fill-opacity:1;" d="M 53.308594 504 L 324.691406 504 L 324.691406 0 L 53.308594 0 Z M 53.308594 504 "/>
<path style=" stroke:none;fill-rule:nonzero;fill:rgb(22.745098%,53.333333%,16.078431%);fill-opacity:1;" d="M 288.851563 398.4375 L 291.21875 400.148438 L 293.816406 401.1875 L 296.585938 401.574219 L 299.492188 401.261719 L 299.492188 405.136719 L 297.320313 406.84375 L 295.617188 409.015625 L 293.039063 410.152344 L 290.8125 411.875 L 289.066406 414.082031 L 287.863281 416.769531 L 283.984375 416.769531 L 286.480469 415.472656 L 288.59375 413.613281 L 290.136719 411.414063 L 291.167969 408.796875 L 291.539063 406.136719 L 291.261719 403.335938 L 290.378906 400.800781 Z M 288.851563 398.4375 "/>
<path style=" stroke:none;fill-rule:nonzero;fill:rgb(80.392157%,58.431373%,4.705882%);fill-opacity:1;" d="M 173.492188 374.125 L 173.207031 375.921875 L 172.382813 377.542969 L 171.09375 378.828125 L 169.472656 379.652344 L 167.675781 379.9375 L 165.878906 379.652344 L 164.257813 378.828125 L 162.972656 377.542969 L 162.144531 375.921875 L 161.863281 374.125 L 162.144531 372.324219 L 162.972656 370.703125 L 164.257813 369.417969 L 165.878906 368.59375 L 167.675781 368.308594 L 169.472656 368.59375 L 171.09375 369.417969 L 172.382813 370.703125 L 173.207031 372.324219 Z M 173.492188 374.125 "/>
<path style=" stroke:none;fill-rule:nonzero;fill:rgb(80.392157%,58.431373%,4.705882%);fill-opacity:1;" d="M 254.90625 432.277344 L 254.625 434.074219 L 253.796875 435.695313 L 252.511719 436.980469 L 250.890625 437.808594 L 249.09375 438.09375 L 247.296875 437.808594 L 245.675781 436.980469 L 244.386719 435.695313 L 243.5625 434.074219 L 243.277344 432.277344 L 243.5625 430.480469 L 244.386719 428.859375 L 245.675781 427.570313 L 247.296875 426.746094 L 249.09375 426.460938 L 250.890625 426.746094 L 252.511719 427.570313 L 253.796875 428.859375 L 254.625 430.480469 Z M 254.90625 432.277344 "/>
<path style=" stroke:none;fill-rule:nonzero;fill:rgb(80.392157%,58.431373%,4.705882%);fill-opacity:1;" d="M 274.292969 436.152344 L 274.007813 437.949219 L 273.183594 439.570313 L 271.894531 440.859375 L 270.273438 441.683594 L 268.476563 441.96875 L 266.679688 441.683594 L 265.058594 440.859375 L 263.773438 439.570313 L 262.945313 437.949219 L 262.660156 436.152344 L 262.945313 434.355469 L 263.773438 432.734375 L 265.058594 431.449219 L 266.679688 430.625 L 268.476563 430.339844 L 270.273438 430.625 L 271.894531 431.449219 L 273.183594 432.734375 L 274.039063 434.554688 L 272.609375 436.117188 Z M 274.292969 436.152344 "/>
<path style=" stroke:none;fill-rule:nonzero;fill:rgb(80.392157%,58.431373%,4.705882%);fill-opacity:1;" d="M 190.046875 232.472656 L 187.519531 231.503906 L 186.234375 230.21875 L 185.40625 228.597656 L 185.125 226.800781 L 185.40625 225.003906 L 186.234375 223.382813 L 187.519531 222.09375 L 188.382813 221.65625 L 189.085938 221.875 L 189.332031 222.921875 L 188.898438 224.691406 L 189.238281 225.953125 L 190.898438 226.824219 L 192.988281 227.191406 L 194.445313 228.726563 L 194.429688 229.304688 L 192.117188 231.570313 Z M 190.046875 232.472656 "/>
</g>
</svg>
