<?xml version="1.0" encoding="UTF-8"?>
<svg xmlns="http://www.w3.org/2000/svg" xmlns:xlink="http://www.w3.org/1999/xlink" width="378pt" height="504pt" viewBox="0 0 378 504" version="1.1">
<g id="data">
<rect x="0" y="0" width="378" height="504" style="fill:rgb(100%,100%,100%);fill-opacity:1;stroke:none;"/>
<path style=" stroke:none;fill-rule:nonzero;fill:rgb(100%,100%,100%);fill-opacity:1;" d="M 53.308594 504 L 324.691406 504 L 324.691406 0 L 53.308594 0 Z M 53.308594 504 "/>
<path style=" stroke:none;fill-rule:nonzero;fill:rgb(22.745098%,53.333333%,16.078431%);fill-opacity:1;" d="M 251.527344 436.566406 L 250.570313 434.347656 L 249.09375 432.277344 L 252.445313 430.429688 L 254.945313 427.703125 L 256.464844 424.328125 L 256.847656 420.644531 L 259.839844 422.605469 L 263.289063 423.558594 L 266.863281 423.421875 L 270.230469 422.203125 L 272.515625 420.5625 L 274.410156 418.308594 L 275.679688 415.652344 L 276.230469 412.890625 L 279.035156 412.550781 L 281.558594 411.601563 L 283.792969 410.097656 L 285.699219 408.015625 L 286.902344 405.890625 L 287.632813 403.5625 L 288.015625 399.761719 L 287.863281 397.382813 L 291.21875 398.640625 L 294.800781 398.8125 L 298.265625 397.890625 L 301.28125 395.953125 L 300.167969 398.203125 L 299.558594 400.636719 L 299.328125 403.136719 L 299.492188 409.015625 L 296.433594 409.246094 L 293.429688 410.328125 L 292.960938 410.632813 L 292.742188 410.515625 L 292.480469 410.636719 L 292.589844 410.875 L 291.605469 411.515625 L 290.035156 413.019531 L 288.773438 414.792969 L 287.863281 416.769531 L 284.054688 417.183594 L 280.488281 418.886719 L 277.921875 421.375 L 276.230469 424.523438 L 274.324219 426.042969 L 272.777344 427.929688 L 271.4375 430.703125 L 270.867188 433.855469 L 271.179688 437.046875 L 272.355469 440.03125 L 270.46875 437.683594 L 266.914063 434.824219 L 264.554688 433.535156 L 262.085938 432.84375 L 259.144531 432.738281 L 256.269531 433.371094 L 253.644531 434.710938 Z M 251.527344 436.566406 "/>
</g>
</svg>
