<?xml version="1.0" encoding="UTF-8"?>
<svg xmlns="http://www.w3.org/2000/svg" xmlns:xlink="http://www.w3.org/1999/xlink" width="378pt" height="504pt" viewBox="0 0 378 504" version="1.1">
<g id="data">
<rect x="0" y="0" width="378" height="504" style="fill:rgb(100%,100%,100%);fill-opacity:1;stroke:none;"/>
<path style=" stroke:none;fill-rule:nonzero;fill:rgb(100%,100%,100%);fill-opacity:1;" d="M 53.308594 504 L 324.691406 504 L 324.691406 0 L 53.308594 0 Z M 53.308594 504 "/>
<path style=" stroke:none;fill-rule:nonzero;fill:rgb(22.745098%,53.333333%,16.078431%);fill-opacity:1;" d="M 300.621094 375.558594 L 301.199219 376.292969 L 303.371094 378 L 305.4375 380.519531 L 305.53125 380.585938 L 306.730469 384.164063 L 307.179688 391.25 L 306.777344 393.191406 L 306.890625 393.976563 L 305.789063 396.917969 L 305.183594 399.824219 L 303.925781 402.410156 L 303.246094 406.136719 L 303.328125 408.035156 L 297.144531 414.53125 L 295.578125 412.011719 L 292.742188 410.515625 L 292.480469 410.636719 L 293.898438 413.703125 L 295.890625 416.628906 L 296.3125 416.765625 L 296.164063 417.742188 L 294.574219 419.804688 L 292.191406 421.289063 L 290.003906 421.65625 L 289.660156 421.574219 L 288.214844 419.332031 L 284.976563 421.730469 L 280.71875 424.230469 L 282.339844 425.378906 L 285.105469 424.398438 L 286.097656 423.375 L 286.894531 423.164063 L 287.328125 423.710938 L 287.632813 428.84375 L 285.6875 430.875 L 283.441406 432.558594 L 282.84375 432.699219 L 279.644531 432.160156 L 274.75 433.78125 L 272.609375 436.117188 L 274.253906 436.015625 L 275.152344 434.667969 L 276.683594 434.363281 L 278.285156 434.328125 L 281.054688 434.949219 L 281.828125 435.589844 L 281.691406 436.328125 L 279.554688 436.347656 L 277.390625 437.65625 L 277.96875 438.546875 L 281.382813 438.964844 L 286.863281 440.339844 L 289.394531 439.9375 L 291.074219 438.957031 L 293.886719 438.566406 L 295.617188 440.03125 L 297.59375 442.464844 L 299.492188 443.90625 L 299.492188 447.785156 L 297.371094 448.160156 L 295.242188 448.972656 L 293.3125 450.1875 L 291.738281 451.660156 L 289.617188 452.035156 L 287.601563 452.792969 L 285.65625 453.988281 L 283.984375 455.539063 L 280.867188 457.019531 L 278.007813 459.753906 L 276.710938 462.335938 L 274.789063 462.777344 L 274.128906 463.089844 L 273.058594 462.988281 L 269.800781 463.59375 L 266.953125 465.023438 L 266.066406 465.832031 L 259.269531 463.777344 L 258.460938 463.710938 L 255.125 462.828125 L 252.332031 462.644531 L 249.09375 463.292969 L 246.839844 463.132813 L 244.207031 463.417969 L 240.515625 464.71875 L 238.476563 466.355469 L 238.210938 466.1875 L 238.632813 465.4375 L 239.46875 464.933594 L 237.714844 463.296875 L 231.496094 463.171875 L 231.378906 463.496094 L 232.574219 464.835938 L 232.214844 465.75 L 231.738281 466.042969 L 226.691406 465.496094 L 219.566406 468.449219 L 217.054688 467.824219 L 210.222656 468.96875 L 208.164063 468.875 L 207.273438 468.058594 L 206.238281 469.769531 L 209.328125 471.046875 L 198.691406 471.046875 L 194.816406 470.382813 L 190.9375 471.046875 L 190.871094 471.023438 L 190.289063 470.589844 L 185.898438 468.519531 L 183.121094 467.984375 L 181.648438 469.066406 L 176.207031 469.78125 L 174.339844 470.335938 L 168.992188 473.234375 L 168.214844 474.070313 L 167.203125 476.179688 L 162.746094 489.226563 L 160.929688 490.242188 L 158.269531 489.722656 L 157.554688 489.058594 L 156.527344 486.851563 L 154.683594 485.4375 L 153.613281 485.542969 L 152.417969 486.300781 L 151.785156 486.171875 L 151.65625 486.070313 L 148.46875 482.535156 L 144.855469 482.804688 L 142.539063 482.515625 L 137.691406 483.277344 L 135.53125 484.355469 L 134.507813 484.320313 L 132.167969 484.859375 L 130.613281 486.742188 L 129.476563 486.839844 L 126.496094 487.988281 L 123.242188 490.65625 L 121.152344 494.308594 L 119.582031 492.835938 L 117.652344 491.621094 L 115.644531 490.839844 L 113.398438 490.429688 L 115.863281 489.359375 L 117.925781 487.835938 L 119.882813 485.472656 L 120.671875 483.734375 L 121.425781 483.085938 L 122.171875 482.246094 L 123.394531 481.730469 L 125.488281 480.253906 L 127.566406 477.824219 L 128.90625 474.921875 L 131.078125 473.214844 L 131.449219 472.746094 L 132.105469 472.640625 L 132.679688 471.785156 L 132.878906 471 L 136.007813 469.492188 L 138.527344 467.136719 L 140.046875 464.613281 L 141.023438 461.445313 L 141.160156 458.398438 L 140.539063 455.539063 L 141.671875 455 L 142.492188 455.105469 L 144.269531 456.015625 L 145.761719 455.429688 L 148.429688 452.488281 L 148.144531 448.144531 L 148.292969 447.785156 L 148.921875 447.269531 L 151.105469 446.613281 L 157.421875 446.269531 L 159.910156 445.683594 L 164.597656 446.761719 L 166.046875 446.148438 L 167.527344 446.515625 L 169.484375 447.285156 L 170.039063 448.109375 L 170.757813 448.421875 L 173.15625 448.464844 L 180.570313 447.503906 L 181.109375 445.632813 L 181.210938 443.15625 L 182.519531 440.25 L 190.867188 432.195313 L 195.792969 425.3125 L 197.929688 424.472656 L 198.285156 423.78125 L 198.070313 423.238281 L 197.8125 423.082031 L 196.09375 424.355469 L 192.90625 427.300781 L 190.570313 429.988281 L 189.222656 431.449219 L 185.628906 432.957031 L 183.714844 433.246094 L 182.441406 433.0625 L 178.394531 435.230469 L 177.398438 436.808594 L 177.039063 438.671875 L 176.445313 439.273438 L 174.058594 439.917969 L 170.558594 439.851563 L 166.820313 439 L 166.347656 438.652344 L 161.371094 433.375 L 159.03125 429.199219 L 155.65625 429.589844 L 151.652344 431.292969 L 151.21875 430.316406 L 149.960938 428.855469 L 150.066406 428.890625 L 151.640625 428.421875 L 152.765625 427.832031 L 153.085938 427.097656 L 152.808594 426.597656 L 147.785156 426.460938 L 143.210938 423.710938 L 139.503906 423.714844 L 136.765625 424.277344 L 136.433594 425.855469 L 135.945313 426.011719 L 133.546875 427.824219 L 132.394531 427.265625 L 131.648438 427.453125 L 130.5625 428.398438 L 127.15625 428.398438 L 126.53125 428.132813 L 127.425781 426.082031 L 128.796875 425.832031 L 131.792969 424.328125 L 131.226563 422.867188 L 130.640625 424.257813 L 127.769531 424.613281 L 122.949219 424.152344 L 121.496094 423.164063 L 124.125 421.78125 L 125.167969 421.753906 L 125.464844 421.238281 L 124.929688 417.953125 L 123.328125 417.210938 L 121.445313 417.105469 L 122.0625 415.152344 L 125.59375 413.535156 L 129.875 412.550781 L 131.945313 411.441406 L 133.074219 411.34375 L 134.871094 409.289063 L 135.753906 407.632813 L 137.585938 406.550781 L 139.621094 406.609375 L 138.378906 408.605469 L 137.546875 412.734375 L 138.242188 416.886719 L 140.285156 420.421875 L 143.203125 422.90625 L 146.894531 424.332031 L 151.972656 424.796875 L 154.109375 424.410156 L 156.25 423.578125 L 159.054688 421.582031 L 161.417969 418.566406 L 162.648438 415.34375 L 162.875 411.898438 L 162.457031 409.628906 L 161.601563 407.488281 L 160.339844 405.558594 L 158.625 403.835938 L 156.8125 402.625 L 154.808594 401.773438 L 149.976563 401.023438 L 152.136719 398.207031 L 153.054688 396.195313 L 154.199219 391.746094 L 153.734375 388.820313 L 153.636719 388.628906 L 156.046875 389.628906 L 158.367188 392.199219 L 161.226563 393.921875 L 164.582031 394.773438 L 167.914063 394.628906 L 171.179688 393.480469 L 173.964844 391.421875 L 177.308594 387.363281 L 178.828125 383.703125 L 179.113281 381.15625 L 178.832031 378.609375 L 178.003906 376.183594 L 176.660156 374 L 174.367188 371.769531 L 171.554688 370.246094 L 170.089844 367.40625 L 167.910156 365.074219 L 165.410156 363.523438 L 162.605469 362.652344 L 159.28125 362.511719 L 156.5 363.007813 L 153.8125 364.226563 L 151.519531 366.082031 L 149.960938 368.121094 L 148.886719 370.457031 L 148.335938 373.558594 L 145.449219 374.257813 L 143.757813 375.484375 L 142.730469 377.046875 L 140.722656 376.902344 L 143.25 375.265625 L 145.964844 372.449219 L 147.46875 369.8125 L 148.222656 367 L 148.445313 363.992188 L 148.445313 363.984375 L 151.550781 360.582031 L 153.09375 359.609375 L 154.941406 359.808594 L 160.492188 357.457031 L 163.644531 357.28125 L 167.261719 357.707031 L 167.390625 357.726563 L 170.191406 357.460938 L 173.527344 356.171875 L 174.683594 355.242188 L 179.910156 359.441406 L 180.433594 358.429688 L 177.679688 353.460938 L 178.242188 352.835938 L 180.867188 352.449219 L 181.503906 352.695313 L 181.914063 353.875 L 182.898438 354.332031 L 184.078125 356.789063 L 185.613281 357.902344 L 188.359375 357.621094 L 190.335938 355.148438 L 189.90625 355.050781 L 188.667969 355.527344 L 188.3125 355.957031 L 186.378906 356.386719 L 183.8125 354.640625 L 180.019531 346.425781 L 181.476563 345.277344 L 183.875 342.40625 L 187.0625 343.109375 L 188.007813 345.496094 L 189.453125 347.621094 L 191.332031 349.375 L 193.546875 350.671875 L 195.742188 351.398438 L 198.039063 351.675781 L 200.34375 351.496094 L 202.570313 350.863281 L 203.390625 354.304688 L 205.292969 357.4375 L 208.082031 359.847656 L 211.375 361.25 L 213.65625 361.59375 L 215.832031 361.496094 L 218.074219 360.957031 L 220.164063 359.984375 L 222.019531 358.617188 L 223.570313 356.910156 L 224.753906 354.933594 L 225.496094 352.882813 L 226.5 346.820313 L 226.1875 344.269531 L 225.375 341.964844 L 223.523438 339.191406 L 220.851563 336.988281 L 217.648438 335.671875 L 214.199219 335.355469 L 215.296875 331.285156 L 214.90625 327.214844 L 213.058594 323.429688 L 210.089844 320.621094 L 207.199219 319.246094 L 204.171875 318.71875 L 201.363281 318.949219 L 198.691406 319.847656 L 194.941406 319.183594 L 190.9375 319.847656 L 187.808594 319.746094 L 187.765625 319.75 L 187.855469 317.484375 L 185.082031 320.191406 L 183.039063 320.925781 L 181.082031 322.097656 L 180.175781 322.929688 L 179.199219 323.441406 L 179.035156 323.375 L 177.601563 321.554688 L 175.914063 320.226563 L 175.316406 319.191406 L 175.058594 317.722656 L 174.242188 315.59375 L 173.027344 313.664063 L 172.523438 313.128906 L 172.289063 311.832031 L 171.554688 310.753906 L 171.554688 308.214844 L 172.582031 305.871094 L 173.074219 303.359375 L 173.046875 301.183594 L 172.582031 298.929688 L 170.917969 295.363281 L 173.664063 289.585938 L 175.429688 288.832031 L 179.308594 289.496094 L 183.183594 288.832031 L 187.0625 288.832031 L 190.367188 290.925781 L 194.175781 291.804688 L 194.253906 294.289063 L 194.816406 296.585938 L 193.917969 299.253906 L 193.683594 301.9375 L 194.519531 305.9375 L 195.804688 308.300781 L 197.695313 310.390625 L 199.921875 311.902344 L 202.558594 312.898438 L 206.765625 313.136719 L 210.324219 312.09375 L 212.703125 312.246094 L 216.375 311.886719 L 219.640625 310.742188 L 222.148438 308.953125 L 224.164063 306.460938 L 225.421875 303.511719 L 225.832031 300.460938 L 227.992188 303.0625 L 231.378906 305.886719 L 233.210938 307.027344 L 236.707031 308.128906 L 239.210938 308.375 L 241.339844 308.214844 L 241.457031 310.644531 L 242.074219 312.992188 L 243.167969 315.164063 L 244.6875 317.0625 L 246.679688 318.667969 L 249.09375 319.847656 L 252.257813 322.359375 L 254.480469 323.28125 L 254.613281 323.304688 L 253.890625 324.554688 L 253.765625 325.996094 L 254.984375 329.992188 L 255.527344 331.128906 L 255.683594 332.1875 L 256.5625 334.597656 L 257.953125 336.757813 L 260.722656 339.230469 L 262.609375 341.578125 L 262.765625 341.699219 L 263.316406 342.46875 L 263.640625 343.980469 L 262.804688 345.191406 L 263.28125 343.65625 L 262.507813 342.839844 L 260.445313 342 L 258.378906 342.789063 L 257.507813 342.753906 L 256.035156 341.773438 L 253.664063 338.65625 L 252.601563 338.082031 L 245.550781 339.511719 L 244.589844 338.644531 L 243.40625 338.558594 L 241.210938 339.871094 L 241.886719 340.445313 L 246.324219 340.394531 L 249.617188 339.34375 L 251.976563 339.082031 L 254.382813 342.558594 L 260.535156 347.621094 L 263.042969 349.058594 L 263.664063 349.039063 L 264.496094 350.148438 L 264.367188 358.800781 L 265.324219 362.234375 L 267.195313 365.125 L 268.265625 366.078125 L 264.953125 369.09375 L 261.394531 373.164063 L 260.601563 374.816406 L 262.84375 374.3125 L 264.9375 375.519531 L 266.9375 378.226563 L 270.21875 378.804688 L 270.625 378.746094 L 271.910156 376.796875 L 272.234375 374.960938 L 273.40625 371.914063 L 274.707031 370.632813 L 276.78125 370.269531 L 278.105469 370.410156 L 283.523438 370.359375 L 284.253906 370.867188 L 286.703125 370.742188 L 293.949219 371.515625 L 296.914063 372.84375 Z M 233.066406 468.441406 L 232.984375 468.472656 L 229.707031 471.046875 L 222.542969 471.046875 L 222.296875 470.886719 L 221.757813 470.964844 L 220.75 470.542969 L 221.476563 469.683594 L 227.316406 466.367188 L 232.550781 467.761719 Z M 209.757813 471.046875 L 209.511719 471.046875 L 209.714844 470.9375 Z M 148.335938 363.167969 L 148.011719 360.738281 L 146.675781 357.460938 L 144.414063 354.738281 L 144.414063 351.296875 L 144.664063 351.183594 L 144.761719 351.167969 L 147.089844 353.21875 L 150.476563 354.691406 L 150.683594 354.71875 L 151.039063 355.578125 L 155.546875 356.503906 L 154.066406 358.859375 L 150.984375 360.816406 Z M 190.9375 207.414063 L 198.691406 207.414063 L 196.523438 209.121094 L 194.816406 211.292969 L 191.394531 211.808594 L 188.273438 213.304688 L 186.324219 214.976563 L 184.851563 216.921875 L 183.527344 220.121094 L 183.398438 221.199219 L 182.847656 221.226563 L 177.804688 225.21875 L 178.117188 225.714844 L 179.84375 225.195313 L 183.109375 223.613281 L 183.042969 224.171875 L 183.265625 228.972656 L 184.011719 231.816406 L 184.539063 232.789063 L 181.046875 235.800781 L 180.578125 237.003906 L 177.484375 238.65625 L 176.304688 237.136719 L 173.628906 235.140625 L 170.625 234.015625 L 167.171875 233.769531 L 163.800781 234.554688 L 162.253906 233.945313 L 159.921875 230.675781 L 162.773438 230.078125 L 165.382813 228.789063 L 168.613281 225.929688 L 170.238281 223.800781 L 171.292969 221.476563 L 171.800781 219.105469 L 171.554688 211.292969 L 173.757813 212.84375 L 176.257813 213.847656 L 178.921875 214.246094 L 181.605469 214.023438 L 183.933594 213.292969 L 186.058594 212.09375 L 189.050781 209.761719 Z M 190.59375 238.265625 L 190.9375 238.429688 L 193.339844 240.492188 L 195.367188 241.53125 L 197.4375 242.136719 L 198.640625 242.277344 L 199.339844 242.761719 L 206.488281 246.65625 L 206.574219 246.824219 L 206.964844 248.792969 L 208.0625 251.214844 L 211.765625 255.835938 L 212.796875 256.675781 L 212.824219 256.707031 L 212.847656 256.714844 L 214.199219 257.816406 L 214.574219 259.9375 L 215.390625 262.066406 L 216.605469 263.996094 L 218.078125 265.570313 L 216.773438 269.164063 L 216.726563 273.113281 L 218.003906 276.847656 L 220.457031 279.941406 L 216.945313 278.445313 L 213.261719 278.152344 L 209.554688 279.082031 L 206.445313 281.078125 L 207.964844 279.339844 L 209.113281 277.339844 L 209.839844 275.148438 L 210.121094 272.988281 L 209.972656 270.683594 L 209.371094 268.457031 L 208.40625 266.5 L 207.011719 264.664063 L 204.964844 262.917969 L 202.570313 261.691406 L 199.953125 259.496094 L 197.542969 258.375 L 194.816406 257.816406 L 192.976563 256.042969 L 190.683594 254.664063 L 186.992188 253.675781 L 183.183594 253.9375 L 183.46875 250.382813 L 182.613281 246.792969 L 181.234375 244.347656 L 179.308594 242.308594 L 179.261719 242.195313 L 182.921875 243.167969 L 186.398438 241.730469 L 187.519531 239.417969 L 188.617188 238.355469 L 189.539063 238.171875 Z M 148.292969 172.523438 L 152.167969 172.523438 L 155.410156 173.171875 L 157.792969 173.027344 L 157.109375 173.804688 L 156.796875 174.453125 L 154.484375 173.648438 L 151.414063 173.429688 L 148.277344 174.066406 Z M 183.183594 168.644531 L 181.015625 170.351563 L 179.308594 172.523438 L 175.304688 171.859375 L 171.554688 172.523438 L 169.175781 172.367188 L 166.296875 172.71875 L 162.757813 174.074219 L 159.921875 176.398438 L 158.441406 175.382813 L 161.140625 173.015625 L 167.808594 170.273438 L 170.480469 169.527344 L 170.492188 169.949219 L 171.554688 169.839844 L 173.589844 168.316406 L 174.046875 166.78125 L 178.648438 166.167969 L 179.285156 167.089844 L 180.148438 167.667969 Z M 137.929688 322.175781 L 138.988281 320.890625 L 140.019531 318.578125 L 140.492188 316.203125 L 142.300781 315.023438 L 144.765625 310.230469 L 145.863281 309.40625 L 148.292969 308.539063 L 148.292969 317.265625 L 147.847656 318.148438 L 145.480469 320.476563 L 144.039063 321.035156 L 142.109375 322.25 L 141.417969 322.898438 L 139.824219 322.464844 L 137.933594 323.433594 L 137.675781 322.921875 Z M 143.90625 292.753906 L 144.917969 292.265625 L 144.367188 293.421875 Z M 88.742188 499.957031 L 89.144531 499.449219 L 89.34375 499.789063 Z M 286.679688 439.636719 L 283.058594 438.976563 L 282.164063 437.605469 L 282.484375 436.070313 L 286.839844 437.054688 L 287.960938 438.832031 Z M 236.835938 466.113281 L 235.136719 465.644531 L 236.523438 463.683594 L 237.195313 464.164063 L 237.5 465.839844 Z M 236.835938 466.113281 "/>
<path style=" stroke:none;fill-rule:nonzero;fill:rgb(80.392157%,58.431373%,4.705882%);fill-opacity:1;" d="M 146.355469 184.152344 L 146.070313 185.949219 L 145.242188 187.570313 L 143.957031 188.859375 L 142.335938 189.683594 L 140.539063 189.96875 L 138.742188 189.683594 L 137.121094 188.859375 L 135.832031 187.570313 L 135.007813 185.949219 L 134.722656 184.152344 L 135.007813 182.355469 L 135.832031 180.734375 L 137.121094 179.449219 L 138.742188 178.625 L 140.539063 178.339844 L 142.335938 178.625 L 143.957031 179.449219 L 145.242188 180.734375 L 146.070313 182.355469 Z M 146.355469 184.152344 "/>
<path style=" stroke:none;fill-rule:nonzero;fill:rgb(80.392157%,58.431373%,4.705882%);fill-opacity:1;" d="M 154.109375 250.0625 L 153.824219 251.859375 L 152.996094 253.480469 L 151.710938 254.765625 L 150.089844 255.59375 L 148.292969 255.875 L 146.496094 255.59375 L 144.875 254.765625 L 143.585938 253.480469 L 142.761719 251.859375 L 142.476563 250.0625 L 142.761719 248.265625 L 143.585938 246.644531 L 144.875 245.355469 L 146.496094 244.53125 L 148.292969 244.246094 L 150.089844 244.53125 L 151.710938 245.355469 L 152.996094 246.644531 L 153.824219 248.265625 Z M 154.109375 250.0625 "/>
<path style=" stroke:none;fill-rule:nonzero;fill:rgb(80.392157%,58.431373%,4.705882%);fill-opacity:1;" d="M 130.847656 172.523438 L 130.5625 174.320313 L 129.734375 175.941406 L 128.449219 177.226563 L 126.828125 178.054688 L 125.03125 178.339844 L 123.234375 178.054688 L 121.613281 177.226563 L 120.324219 175.941406 L 119.5 174.320313 L 119.214844 172.523438 L 119.5 170.726563 L 120.097656 170.289063 L 120.859375 170.738281 L 121.429688 171.886719 L 123.644531 173.570313 L 124.390625 172.890625 L 127 172.59375 L 126.421875 171.808594 L 123.910156 171.675781 L 123.300781 171.917969 L 120.847656 168.582031 L 121.613281 167.816406 L 123.234375 166.992188 L 125.03125 166.707031 L 126.828125 166.992188 L 128.449219 167.816406 L 129.734375 169.105469 L 130.5625 170.726563 Z M 130.847656 172.523438 "/>
<path style=" stroke:none;fill-rule:nonzero;fill:rgb(80.392157%,58.431373%,4.705882%);fill-opacity:1;" d="M 130.8125 234.773438 L 130.5625 236.351563 L 129.734375 237.972656 L 128.3125 239.328125 Z M 125.585938 240.28125 L 123.234375 240.085938 L 121.613281 239.257813 L 121.371094 239.015625 L 122.191406 237.09375 L 120.824219 237.742188 L 120.554688 238.199219 L 120.164063 237.65625 L 123.929688 230.9375 L 123.671875 230.734375 L 122.386719 231.796875 L 121.808594 231.777344 L 121.933594 229.683594 L 123.234375 229.023438 L 125.03125 228.738281 L 126.828125 229.023438 L 128.449219 229.847656 L 129.734375 231.136719 L 130.703125 233.660156 L 126.449219 238.917969 L 125.671875 238.734375 L 125.460938 238.363281 Z M 125.585938 240.28125 "/>
<path style=" stroke:none;fill-rule:nonzero;fill:rgb(80.392157%,58.431373%,4.705882%);fill-opacity:1;" d="M 159.972656 293.128906 L 159.09375 292.25 L 158.269531 290.628906 L 157.984375 288.832031 L 158.269531 287.035156 L 159.09375 285.414063 L 160.382813 284.125 L 162.003906 283.300781 L 163.800781 283.015625 L 165.597656 283.300781 L 167.21875 284.125 L 168.914063 286.214844 L 168.226563 288.992188 L 166.234375 288.695313 L 163.3125 290.011719 L 161.832031 291.855469 Z M 159.972656 293.128906 "/>
<path style=" stroke:none;fill-rule:nonzero;fill:rgb(80.392157%,58.431373%,4.705882%);fill-opacity:1;" d="M 115.339844 222.921875 L 115.296875 223.191406 L 112.109375 224.96875 L 106.027344 226.585938 L 104.796875 226.300781 L 103.992188 224.71875 L 103.820313 223.625 L 104.191406 223.09375 L 105.628906 223.050781 L 106.039063 223.617188 L 106.972656 224.074219 L 112.214844 222.164063 L 112.035156 221.589844 L 109.863281 222.445313 L 108.199219 222.488281 L 107.824219 221.539063 L 109.386719 219.472656 L 112.511719 218 L 114.226563 219.503906 L 115.054688 221.125 Z M 109.359375 217.132813 L 110.65625 217.289063 L 109.90625 217.519531 Z M 107.1875 217.667969 L 108.804688 217.222656 L 109.105469 217.519531 L 109.070313 217.820313 L 108.136719 218.074219 Z M 107.1875 217.667969 "/>
<path style=" stroke:none;fill-rule:nonzero;fill:rgb(80.392157%,58.431373%,4.705882%);fill-opacity:1;" d="M 166.878906 152.707031 L 166.023438 151.058594 L 165.738281 149.261719 L 166.023438 147.464844 L 166.847656 145.84375 L 168.136719 144.558594 L 169.757813 143.730469 L 171.554688 143.445313 L 173.351563 143.730469 L 175.339844 144.925781 L 173.855469 147.214844 Z M 166.878906 152.707031 "/>
<path style=" stroke:none;fill-rule:nonzero;fill:rgb(80.392157%,58.431373%,4.705882%);fill-opacity:1;" d="M 132.015625 263.507813 L 130.988281 263.347656 L 129.367188 262.519531 L 128.078125 261.234375 L 127.253906 259.613281 L 126.96875 257.816406 L 127.253906 256.019531 L 128.078125 254.398438 L 129.367188 253.109375 L 130.699219 252.429688 L 131.390625 253.015625 L 132.984375 258.382813 L 133.019531 262.765625 Z M 132.015625 263.507813 "/>
<path style=" stroke:none;fill-rule:nonzero;fill:rgb(80.392157%,58.431373%,4.705882%);fill-opacity:1;" d="M 207.054688 188.933594 L 205.617188 187.570313 L 204.792969 185.949219 L 204.507813 184.152344 L 204.792969 182.355469 L 205.617188 180.734375 L 206.90625 179.449219 L 208.527344 178.625 L 210.324219 178.339844 L 212.886719 179.015625 L 209.382813 183.425781 Z M 207.054688 188.933594 "/>
<path style=" stroke:none;fill-rule:nonzero;fill:rgb(80.392157%,58.431373%,4.705882%);fill-opacity:1;" d="M 162.691406 156.003906 L 162.144531 154.933594 L 161.863281 153.136719 L 162.144531 151.339844 L 162.972656 149.71875 L 164.257813 148.433594 L 165.878906 147.609375 L 167.675781 147.324219 L 169.472656 147.609375 L 171.628906 148.96875 Z M 162.691406 156.003906 "/>
<path style=" stroke:none;fill-rule:nonzero;fill:rgb(80.392157%,58.431373%,4.705882%);fill-opacity:1;" d="M 136.789063 296.828125 L 135.324219 297.859375 L 134.683594 297.484375 L 134.359375 296.304688 L 134.707031 295.457031 L 134.59375 294.480469 L 133.472656 292.679688 L 130.894531 289.722656 L 129.945313 287.707031 L 130.988281 287.175781 L 132.785156 286.890625 L 134.582031 287.175781 L 136.203125 288.003906 L 136.898438 288.699219 L 135.511719 289.683594 L 134.605469 291.238281 L 135.976563 295.472656 L 136.734375 296.308594 Z M 136.789063 296.828125 "/>
<path style=" stroke:none;fill-rule:nonzero;fill:rgb(80.392157%,58.431373%,4.705882%);fill-opacity:1;" d="M 164.058594 165.394531 L 162.972656 164.308594 L 162.039063 162.011719 L 164.042969 162.292969 L 165.242188 161.992188 L 166.015625 161.605469 L 166.75 160.257813 L 167.589844 160.183594 L 167.507813 160.828125 L 166.417969 162.609375 Z M 164.058594 165.394531 "/>
</g>
</svg>
