<?xml version="1.0" encoding="UTF-8"?>
<svg xmlns="http://www.w3.org/2000/svg" xmlns:xlink="http://www.w3.org/1999/xlink" width="378pt" height="504pt" viewBox="0 0 378 504" version="1.1">
<g id="data">
<rect x="0" y="0" width="378" height="504" style="fill:rgb(100%,100%,100%);fill-opacity:1;stroke:none;"/>
<path style=" stroke:none;fill-rule:nonzero;fill:rgb(100%,100%,100%);fill-opacity:1;" d="M 53.308594 504 L 324.691406 504 L 324.691406 0 L 53.308594 0 Z M 53.308594 504 "/>
<path style=" stroke:none;fill-rule:nonzero;fill:rgb(22.745098%,53.333333%,16.078431%);fill-opacity:1;" d="M 283.964844 401.585938 L 283.238281 399.957031 L 283.042969 398.179688 L 283.394531 396.429688 L 284.261719 394.867188 L 285.5625 393.640625 L 287.171875 392.867188 L 288.941406 392.621094 L 290.703125 392.921875 L 292.289063 393.742188 L 293.964844 394.96875 L 295.335938 395.527344 L 296.679688 395.714844 L 298.867188 395.480469 L 300.808594 395.597656 L 302.601563 396.347656 L 304.046875 397.644531 L 304.984375 399.347656 L 305.117188 400.144531 L 303.519531 407.832031 L 297.144531 414.53125 L 295.578125 412.011719 L 292.742188 410.515625 L 292.480469 410.636719 L 293.898438 413.703125 L 295.890625 416.628906 L 296.3125 416.765625 L 296.164063 417.742188 L 294.625 419.738281 L 294.332031 419.957031 L 293.941406 420.199219 L 291.609375 421.386719 L 290.003906 421.65625 L 289.660156 421.574219 L 288.214844 419.332031 L 284.976563 421.730469 L 283.621094 422.523438 L 282.085938 422.265625 L 280.394531 421.34375 L 279.097656 419.917969 L 278.335938 418.148438 L 278.195313 416.226563 L 278.6875 414.367188 L 279.765625 412.765625 L 281.304688 411.609375 L 283.1875 410.628906 L 284.167969 409.777344 L 284.988281 408.625 L 285.5 407.324219 L 285.6875 405.925781 L 285.550781 404.613281 L 285.113281 403.371094 Z M 283.964844 401.585938 "/>
<path style=" stroke:none;fill-rule:nonzero;fill:rgb(80.392157%,58.431373%,4.705882%);fill-opacity:1;" d="M 173.492188 374.125 L 173.207031 375.921875 L 172.382813 377.542969 L 171.09375 378.828125 L 169.472656 379.652344 L 167.675781 379.9375 L 165.878906 379.652344 L 164.257813 378.828125 L 162.972656 377.542969 L 162.144531 375.921875 L 161.863281 374.125 L 162.144531 372.324219 L 162.972656 370.703125 L 164.257813 369.417969 L 165.878906 368.59375 L 167.675781 368.308594 L 169.472656 368.59375 L 171.09375 369.417969 L 172.382813 370.703125 L 173.207031 372.324219 Z M 173.492188 374.125 "/>
<path style=" stroke:none;fill-rule:nonzero;fill:rgb(80.392157%,58.431373%,4.705882%);fill-opacity:1;" d="M 254.90625 432.277344 L 254.625 434.074219 L 253.796875 435.695313 L 252.511719 436.980469 L 250.890625 437.808594 L 249.09375 438.09375 L 247.296875 437.808594 L 245.675781 436.980469 L 244.386719 435.695313 L 243.5625 434.074219 L 243.277344 432.277344 L 243.5625 430.480469 L 244.386719 428.859375 L 245.675781 427.570313 L 247.296875 426.746094 L 249.09375 426.460938 L 250.890625 426.746094 L 252.511719 427.570313 L 253.796875 428.859375 L 254.625 430.480469 Z M 254.90625 432.277344 "/>
<path style=" stroke:none;fill-rule:nonzero;fill:rgb(80.392157%,58.431373%,4.705882%);fill-opacity:1;" d="M 274.292969 436.152344 L 274.007813 437.949219 L 273.183594 439.570313 L 271.894531 440.859375 L 270.273438 441.683594 L 268.476563 441.96875 L 266.679688 441.683594 L 265.058594 440.859375 L 263.773438 439.570313 L 262.945313 437.949219 L 262.660156 436.152344 L 262.945313 434.355469 L 263.773438 432.734375 L 265.058594 431.449219 L 266.679688 430.625 L 268.476563 430.339844 L 270.273438 430.625 L 271.894531 431.449219 L 273.183594 432.734375 L 274.007813 434.355469 L 274.039063 434.554688 L 272.609375 436.117188 L 274.253906 436.015625 L 274.265625 435.996094 Z M 274.292969 436.152344 "/>
<path style=" stroke:none;fill-rule:nonzero;fill:rgb(80.392157%,58.431373%,4.705882%);fill-opacity:1;" d="M 190.046875 232.472656 L 189.140625 232.332031 L 187.519531 231.503906 L 186.234375 230.21875 L 185.40625 228.597656 L 185.125 226.800781 L 185.40625 225.003906 L 186.234375 223.382813 L 187.519531 222.09375 L 188.382813 221.65625 L 189.085938 221.875 L 189.332031 222.921875 L 188.898438 224.691406 L 189.238281 225.953125 L 190.898438 226.824219 L 192.988281 227.191406 L 194.445313 228.726563 L 194.429688 229.304688 L 192.117188 231.570313 Z M 190.046875 232.472656 "/>
</g>
</svg>
