<?xml version="1.0" encoding="UTF-8"?>
<svg xmlns="http://www.w3.org/2000/svg" xmlns:xlink="http://www.w3.org/1999/xlink" width="378pt" height="504pt" viewBox="0 0 378 504" version="1.1">
<g id="data">
<rect x="0" y="0" width="378" height="504" style="fill:rgb(100%,100%,100%);fill-opacity:1;stroke:none;"/>
<path style=" stroke:none;fill-rule:nonzero;fill:rgb(100%,100%,100%);fill-opacity:1;" d="M 53.308594 504 L 324.691406 504 L 324.691406 0 L 53.308594 0 Z M 53.308594 504 "/>
<path style=" stroke:none;fill-rule:nonzero;fill:rgb(22.745098%,53.333333%,16.078431%);fill-opacity:1;" d="M 273.558594 401.605469 L 274.773438 399.832031 L 275.644531 397.871094 L 276.152344 395.652344 L 276.230469 393.507813 L 278.164063 391.148438 L 279.417969 388.371094 L 279.910156 385.109375 L 279.503906 381.960938 L 283.371094 382.695313 L 285.65625 382.507813 L 287.863281 381.875 L 293.023438 381.875 L 295.683594 382.328125 L 298.054688 383.320313 L 300.054688 384.722656 L 301.792969 386.613281 L 303.074219 388.839844 L 303.78125 391.042969 L 304.039063 393.214844 L 303.371094 397.382813 L 303.371094 405.136719 L 301.199219 406.84375 L 299.492188 409.015625 L 297.371094 409.390625 L 295.242188 410.203125 L 293.832031 411.089844 L 292.742188 410.515625 L 292.480469 410.636719 L 292.984375 411.726563 L 291.738281 412.890625 L 291.363281 409.964844 L 290.265625 407.226563 L 288.511719 404.851563 L 286.21875 402.996094 L 283.035156 401.636719 L 278.722656 401.019531 L 276.046875 401.027344 Z M 214.199219 467.167969 L 214.199219 463.292969 L 216.015625 461.859375 L 217.511719 460.097656 L 218.628906 458.074219 L 219.351563 455.746094 L 219.425781 451.652344 L 218.078125 447.785156 L 221.761719 448.84375 L 225.71875 448.621094 L 229.367188 447.082031 L 232.289063 444.40625 L 233.878906 441.628906 L 234.65625 438.523438 L 234.554688 435.328125 L 233.585938 432.277344 L 235.914063 429.007813 L 238.644531 427.910156 L 240.507813 426.785156 L 242.21875 425.242188 L 243.589844 423.390625 L 244.523438 421.429688 L 245.097656 419.195313 L 245.375 415.019531 L 245.214844 412.890625 L 249.09375 412.890625 L 251.84375 414.738281 L 254.875 415.710938 L 257.417969 415.871094 L 259.9375 415.476563 L 260.035156 418.105469 L 260.722656 420.644531 L 260.722656 424.523438 L 259.359375 426.390625 L 258.4375 428.367188 L 257.902344 430.484375 L 257.769531 432.664063 L 258.574219 436.546875 L 260.722656 440.03125 L 257.664063 440.261719 L 254.660156 441.34375 L 252.0625 443.203125 L 250.066406 445.699219 L 248.183594 449.761719 L 247.5625 452.765625 L 247.828125 456.207031 L 249.09375 459.414063 L 245.214844 459.414063 L 242.207031 457.464844 L 238.617188 456.511719 L 235.414063 456.636719 L 232.253906 457.683594 L 228.953125 460.101563 L 226.71875 463.203125 L 225.929688 465.816406 L 219.566406 468.449219 L 217.054688 467.824219 L 215.25 468.128906 Z M 225.625 467.328125 L 225.707031 471.074219 L 222.953125 471.308594 L 222.296875 470.886719 L 221.0625 471.0625 L 220.414063 470.9375 L 221.476563 469.683594 Z M 225.625 467.328125 "/>
<path style=" stroke:none;fill-rule:nonzero;fill:rgb(80.392157%,58.431373%,4.705882%);fill-opacity:1;" d="M 239.398438 350.863281 L 239.117188 352.660156 L 238.289063 354.28125 L 237.003906 355.566406 L 235.382813 356.390625 L 233.585938 356.675781 L 231.789063 356.390625 L 230.167969 355.566406 L 228.878906 354.28125 L 228.054688 352.660156 L 227.769531 350.863281 L 228.054688 349.066406 L 228.878906 347.441406 L 230.167969 346.15625 L 231.789063 345.332031 L 233.585938 345.046875 L 235.382813 345.332031 L 237.003906 346.15625 L 238.289063 347.441406 L 239.117188 349.066406 Z M 239.398438 350.863281 "/>
<path style=" stroke:none;fill-rule:nonzero;fill:rgb(80.392157%,58.431373%,4.705882%);fill-opacity:1;" d="M 235.523438 335.355469 L 235.238281 337.152344 L 234.414063 338.773438 L 233.125 340.058594 L 231.503906 340.882813 L 229.707031 341.167969 L 227.910156 340.882813 L 226.289063 340.058594 L 225.003906 338.773438 L 224.175781 337.152344 L 223.890625 335.355469 L 224.175781 333.558594 L 225.003906 331.9375 L 226.289063 330.648438 L 227.910156 329.824219 L 229.707031 329.539063 L 231.503906 329.824219 L 233.125 330.648438 L 234.414063 331.9375 L 235.238281 333.558594 Z M 235.523438 335.355469 "/>
<path style=" stroke:none;fill-rule:nonzero;fill:rgb(80.392157%,58.431373%,4.705882%);fill-opacity:1;" d="M 239.398438 346.984375 L 239.117188 348.78125 L 238.289063 350.402344 L 237.003906 351.6875 L 235.382813 352.515625 L 233.585938 352.800781 L 231.789063 352.515625 L 230.167969 351.6875 L 228.878906 350.402344 L 228.054688 348.78125 L 227.769531 346.984375 L 228.054688 345.1875 L 228.878906 343.566406 L 230.167969 342.28125 L 231.789063 341.453125 L 233.585938 341.167969 L 235.382813 341.453125 L 237.003906 342.28125 L 238.289063 343.566406 L 239.117188 345.1875 Z M 239.398438 346.984375 "/>
<path style=" stroke:none;fill-rule:nonzero;fill:rgb(80.392157%,58.431373%,4.705882%);fill-opacity:1;" d="M 227.769531 412.890625 L 227.484375 414.6875 L 226.660156 416.308594 L 225.371094 417.597656 L 223.75 418.421875 L 221.953125 418.707031 L 220.15625 418.421875 L 218.535156 417.597656 L 217.25 416.308594 L 216.421875 414.6875 L 216.136719 412.890625 L 216.421875 411.09375 L 217.25 409.472656 L 218.535156 408.1875 L 220.15625 407.363281 L 221.953125 407.078125 L 223.75 407.363281 L 225.371094 408.1875 L 226.660156 409.472656 L 227.484375 411.09375 Z M 227.769531 412.890625 "/>
<path style=" stroke:none;fill-rule:nonzero;fill:rgb(80.392157%,58.431373%,4.705882%);fill-opacity:1;" d="M 204.507813 412.890625 L 204.222656 414.6875 L 203.398438 416.308594 L 202.109375 417.597656 L 200.488281 418.421875 L 198.691406 418.707031 L 196.894531 418.421875 L 195.273438 417.597656 L 193.988281 416.308594 L 193.160156 414.6875 L 192.875 412.890625 L 193.160156 411.09375 L 193.988281 409.472656 L 195.273438 408.1875 L 196.894531 407.363281 L 198.691406 407.078125 L 200.488281 407.363281 L 202.109375 408.1875 L 203.398438 409.472656 L 204.222656 411.09375 Z M 204.507813 412.890625 "/>
<path style=" stroke:none;fill-rule:nonzero;fill:rgb(80.392157%,58.431373%,4.705882%);fill-opacity:1;" d="M 274.292969 405.136719 L 274.007813 406.933594 L 273.183594 408.558594 L 271.894531 409.84375 L 270.273438 410.667969 L 268.476563 410.953125 L 266.679688 410.667969 L 265.058594 409.84375 L 263.773438 408.558594 L 262.945313 406.933594 L 262.660156 405.136719 L 262.945313 403.339844 L 263.773438 401.71875 L 265.058594 400.433594 L 266.679688 399.609375 L 268.476563 399.324219 L 270.273438 399.609375 L 271.894531 400.433594 L 273.183594 401.71875 L 274.007813 403.339844 Z M 274.292969 405.136719 "/>
<path style=" stroke:none;fill-rule:nonzero;fill:rgb(80.392157%,58.431373%,4.705882%);fill-opacity:1;" d="M 278.167969 374.125 L 277.882813 375.921875 L 277.058594 377.542969 L 275.773438 378.828125 L 274.152344 379.652344 L 272.355469 379.9375 L 270.558594 379.652344 L 268.636719 378.527344 L 270.625 378.746094 L 271.910156 376.796875 L 272.234375 374.960938 L 273.40625 371.914063 L 274.707031 370.632813 L 276.648438 370.292969 L 277.058594 370.703125 L 277.882813 372.324219 Z M 278.167969 374.125 "/>
</g>
</svg>
