<?xml version="1.0" encoding="UTF-8"?>
<svg xmlns="http://www.w3.org/2000/svg" xmlns:xlink="http://www.w3.org/1999/xlink" width="378pt" height="504pt" viewBox="0 0 378 504" version="1.1">
<g id="data">
<rect x="0" y="0" width="378" height="504" style="fill:rgb(100%,100%,100%);fill-opacity:1;stroke:none;"/>
<path style=" stroke:none;fill-rule:nonzero;fill:rgb(100%,100%,100%);fill-opacity:1;" d="M 53.308594 504 L 324.691406 504 L 324.691406 0 L 53.308594 0 Z M 53.308594 504 "/>
<path style=" stroke:none;fill-rule:nonzero;fill:rgb(22.745098%,53.333333%,16.078431%);fill-opacity:1;" d="M 274.875 407.269531 L 273.140625 407.40625 L 271.445313 407.023438 L 269.941406 406.15625 L 268.757813 404.882813 L 268 403.316406 L 267.746094 401.597656 L 268.007813 399.878906 L 268.765625 398.3125 L 269.675781 396.988281 L 270.101563 396.023438 L 270.363281 394.890625 L 270.417969 393.300781 L 270.789063 391.453125 L 271.734375 389.820313 L 273.179688 388.058594 L 273.792969 386.695313 L 274.039063 385.140625 L 273.730469 382.675781 L 273.792969 380.859375 L 274.410156 379.152344 L 275.523438 377.71875 L 277.027344 376.695313 L 278.773438 376.191406 L 280.585938 376.246094 L 283.683594 376.832031 L 284.609375 376.757813 L 286.261719 376.285156 L 287.859375 376.0625 L 293.023438 376.058594 L 294.003906 376.140625 L 296.664063 376.59375 L 297.898438 376.949219 L 300.15625 377.878906 L 301.253906 378.476563 L 303.367188 379.941406 L 304.335938 380.785156 L 306.074219 382.679688 L 306.367188 383.078125 L 306.730469 384.164063 L 307.179688 391.25 L 306.777344 393.191406 L 306.890625 393.976563 L 305.789063 396.917969 L 303.519531 407.832031 L 297.144531 414.53125 L 295.578125 412.011719 L 292.742188 410.515625 L 292.480469 410.636719 L 293.898438 413.703125 L 295.890625 416.628906 L 296.164063 416.714844 L 295.714844 417.136719 L 294.210938 418.15625 L 292.464844 418.664063 L 290.648438 418.605469 L 288.9375 417.988281 L 287.503906 416.875 L 286.480469 415.375 L 285.96875 413.628906 L 285.691406 411.441406 L 285.144531 410.082031 L 284.277344 408.90625 L 283.1875 408.027344 L 281.453125 407.285156 L 278.320313 406.835938 L 276.71875 406.839844 Z M 208.667969 468.898438 L 208.605469 468.761719 L 208.382813 467.167969 L 208.382813 463.292969 L 208.644531 461.566406 L 209.40625 460 L 210.597656 458.726563 L 211.957031 457.652344 L 212.703125 456.777344 L 213.25 455.785156 L 213.550781 454.8125 L 213.59375 452.585938 L 212.585938 449.699219 L 212.261719 447.925781 L 212.5 446.136719 L 213.273438 444.503906 L 214.511719 443.191406 L 216.089844 442.320313 L 217.859375 441.972656 L 219.652344 442.1875 L 222.5 442.988281 L 224.460938 442.855469 L 226.167969 442.125 L 227.695313 440.726563 L 228.433594 439.4375 L 228.816406 437.902344 L 228.765625 436.316406 L 228.042969 434.039063 L 227.769531 432.269531 L 228.046875 430.503906 L 228.847656 428.902344 L 231.175781 425.632813 L 232.316406 424.4375 L 233.742188 423.613281 L 236.042969 422.6875 L 237.027344 422.09375 L 237.890625 421.316406 L 238.582031 420.382813 L 239.03125 419.433594 L 239.332031 418.273438 L 239.546875 415.046875 L 239.417969 413.332031 L 239.585938 411.433594 L 240.359375 409.691406 L 241.65625 408.292969 L 243.335938 407.390625 L 245.214844 407.078125 L 249.09375 407.078125 L 250.800781 407.332031 L 252.359375 408.082031 L 254.316406 409.410156 L 255.980469 409.953125 L 257.148438 410.027344 L 259.035156 409.730469 L 260.988281 409.753906 L 262.828125 410.425781 L 264.335938 411.671875 L 265.347656 413.34375 L 265.75 415.257813 L 265.824219 417.226563 L 266.335938 419.128906 L 266.539063 420.644531 L 266.539063 424.523438 L 266.246094 426.339844 L 265.402344 427.976563 L 264.429688 429.292969 L 263.960938 430.269531 L 263.6875 431.304688 L 263.625 432.242188 L 264.09375 434.453125 L 265.65625 436.949219 L 266.335938 438.503906 L 266.535156 440.1875 L 266.246094 441.855469 L 265.484375 443.371094 L 264.316406 444.601563 L 262.847656 445.445313 L 261.195313 445.828125 L 258.8125 446.019531 L 257.332031 446.574219 L 256.042969 447.515625 L 255.054688 448.765625 L 253.746094 451.597656 L 253.425781 453.140625 L 253.5625 454.886719 L 254.503906 457.285156 L 254.898438 459.121094 L 254.691406 460.988281 L 253.898438 462.6875 L 252.605469 464.050781 L 252.242188 464.242188 L 247.078125 465.230469 L 245.214844 465.230469 L 243.566406 464.992188 L 242.054688 464.296875 L 239.820313 462.847656 L 237.96875 462.355469 L 236.464844 462.414063 L 234.953125 462.917969 L 234.519531 463.234375 L 231.496094 463.171875 L 231.378906 463.496094 L 232.574219 464.835938 L 232.414063 465.246094 L 232.003906 465.816406 L 231.980469 465.898438 L 231.738281 466.042969 L 226.691406 465.496094 L 219.566406 468.449219 L 217.054688 467.824219 L 210.222656 468.96875 Z M 231.5 467.480469 L 231.445313 467.65625 L 231.519531 470.945313 L 231.296875 472.679688 L 230.75 473.867188 L 229.960938 474.269531 L 228.117188 474.644531 L 222.296875 470.886719 L 220.207031 471.1875 L 221.476563 469.683594 L 227.316406 466.367188 Z M 231.5 467.480469 "/>
<path style=" stroke:none;fill-rule:nonzero;fill:rgb(80.392157%,58.431373%,4.705882%);fill-opacity:1;" d="M 235.523438 335.355469 L 235.238281 337.152344 L 234.414063 338.773438 L 233.125 340.058594 L 231.503906 340.882813 L 229.707031 341.167969 L 227.910156 340.882813 L 226.289063 340.058594 L 225.003906 338.773438 L 224.175781 337.152344 L 223.890625 335.355469 L 224.175781 333.558594 L 225.003906 331.9375 L 226.289063 330.648438 L 227.910156 329.824219 L 229.707031 329.539063 L 231.503906 329.824219 L 233.125 330.648438 L 234.414063 331.9375 L 235.238281 333.558594 Z M 235.523438 335.355469 "/>
<path style=" stroke:none;fill-rule:nonzero;fill:rgb(80.392157%,58.431373%,4.705882%);fill-opacity:1;" d="M 239.398438 350.863281 L 239.117188 352.660156 L 238.289063 354.28125 L 237.003906 355.566406 L 235.382813 356.390625 L 233.585938 356.675781 L 231.789063 356.390625 L 230.167969 355.566406 L 228.878906 354.28125 L 228.054688 352.660156 L 227.769531 350.863281 L 228.054688 349.066406 L 228.878906 347.441406 L 230.167969 346.15625 L 231.789063 345.332031 L 233.585938 345.046875 L 235.382813 345.332031 L 237.003906 346.15625 L 238.289063 347.441406 L 239.117188 349.066406 Z M 239.398438 350.863281 "/>
<path style=" stroke:none;fill-rule:nonzero;fill:rgb(80.392157%,58.431373%,4.705882%);fill-opacity:1;" d="M 239.398438 346.984375 L 239.117188 348.78125 L 238.289063 350.402344 L 237.003906 351.6875 L 235.382813 352.515625 L 233.585938 352.800781 L 231.789063 352.515625 L 230.167969 351.6875 L 228.878906 350.402344 L 228.054688 348.78125 L 227.769531 346.984375 L 228.054688 345.1875 L 228.878906 343.566406 L 230.167969 342.28125 L 231.789063 341.453125 L 233.585938 341.167969 L 235.382813 341.453125 L 237.003906 342.28125 L 238.289063 343.566406 L 239.117188 345.1875 Z M 239.398438 346.984375 "/>
<path style=" stroke:none;fill-rule:nonzero;fill:rgb(80.392157%,58.431373%,4.705882%);fill-opacity:1;" d="M 227.769531 412.890625 L 227.484375 414.6875 L 226.660156 416.308594 L 225.371094 417.597656 L 223.75 418.421875 L 221.953125 418.707031 L 220.15625 418.421875 L 218.535156 417.597656 L 217.25 416.308594 L 216.421875 414.6875 L 216.136719 412.890625 L 216.421875 411.09375 L 217.25 409.472656 L 218.535156 408.1875 L 220.15625 407.363281 L 221.953125 407.078125 L 223.75 407.363281 L 225.371094 408.1875 L 226.660156 409.472656 L 227.484375 411.09375 Z M 227.769531 412.890625 "/>
<path style=" stroke:none;fill-rule:nonzero;fill:rgb(80.392157%,58.431373%,4.705882%);fill-opacity:1;" d="M 204.507813 412.890625 L 204.222656 414.6875 L 203.398438 416.308594 L 202.109375 417.597656 L 200.488281 418.421875 L 198.691406 418.707031 L 196.894531 418.421875 L 195.273438 417.597656 L 193.988281 416.308594 L 193.160156 414.6875 L 192.875 412.890625 L 193.160156 411.09375 L 193.988281 409.472656 L 195.273438 408.1875 L 196.894531 407.363281 L 198.691406 407.078125 L 200.488281 407.363281 L 202.109375 408.1875 L 203.398438 409.472656 L 204.222656 411.09375 Z M 204.507813 412.890625 "/>
</g>
</svg>
