<?xml version="1.0" encoding="UTF-8"?>
<svg xmlns="http://www.w3.org/2000/svg" xmlns:xlink="http://www.w3.org/1999/xlink" width="378pt" height="504pt" viewBox="0 0 378 504" version="1.1">
<g id="data">
<rect x="0" y="0" width="378" height="504" style="fill:rgb(100%,100%,100%);fill-opacity:1;stroke:none;"/>
<path style=" stroke:none;fill-rule:nonzero;fill:rgb(100%,100%,100%);fill-opacity:1;" d="M 53.308594 504 L 324.691406 504 L 324.691406 0 L 53.308594 0 Z M 53.308594 504 "/>
<path style=" stroke:none;fill-rule:nonzero;fill:rgb(22.745098%,53.333333%,16.078431%);fill-opacity:1;" d="M 299.492188 378 L 300.628906 380.574219 L 302.351563 382.800781 L 304.5625 384.550781 L 306.820313 385.5625 L 306.84375 385.9375 L 304.453125 387.023438 L 302 389.078125 L 300.628906 390.933594 L 299.492188 393.507813 L 297.542969 396.515625 L 296.667969 399.46875 L 296.617188 402.671875 L 297.542969 406.003906 L 299.492188 409.015625 L 299.492188 412.0625 L 298.132813 413.492188 L 296.917969 414.03125 L 296.859375 414.074219 L 295.578125 412.011719 L 292.742188 410.515625 L 292.480469 410.636719 L 293.898438 413.703125 L 295.085938 415.445313 L 294.691406 415.753906 L 292.941406 417.960938 L 291.738281 420.644531 L 291.394531 417.84375 L 290.386719 415.207031 L 288.773438 412.890625 L 286.648438 411.03125 L 283.53125 409.53125 L 280.109375 409.015625 L 277.542969 406.167969 L 274.191406 404.3125 L 270.675781 403.648438 L 267.246094 404.050781 L 270.402344 401.453125 L 272.503906 397.800781 L 273.167969 393.636719 L 272.355469 389.628906 L 274.742188 388.6875 L 276.964844 387.15625 L 278.695313 385.257813 L 279.96875 383.027344 L 280.644531 380.949219 L 280.921875 378.652344 L 280.742188 376.347656 L 280.109375 374.125 L 282.351563 373.714844 L 284.359375 372.933594 L 286.289063 371.71875 L 287.265625 370.800781 L 288.21875 370.90625 L 289.628906 373.496094 L 292.328125 376.03125 L 295.8125 377.617188 Z M 299.492188 443.90625 L 299.492188 447.785156 L 297.570313 447.835938 L 298.746094 445.90625 Z M 121.574219 416.695313 L 123.277344 416.394531 L 125.40625 415.582031 L 127.335938 414.363281 L 128.90625 412.890625 L 132.332031 412.578125 L 135.515625 411.273438 L 138.59375 408.613281 L 139.71875 406.613281 L 140.199219 406.625 L 139.933594 407.804688 L 139.957031 410.496094 L 140.648438 413.230469 L 141.90625 415.613281 L 143.867188 417.8125 L 146.433594 419.503906 L 149.226563 420.441406 L 152.167969 420.644531 L 152.726563 423.375 L 153.851563 425.785156 L 156.046875 428.398438 L 156.464844 429.496094 L 155.65625 429.589844 L 149.269531 432.308594 L 149.113281 432.746094 L 148.105469 432.160156 L 147.148438 431.1875 L 146.917969 429.308594 L 148.539063 428.378906 L 150.066406 428.890625 L 151.640625 428.421875 L 152.765625 427.832031 L 153.085938 427.097656 L 152.808594 426.597656 L 147.785156 426.460938 L 143.210938 423.710938 L 139.503906 423.714844 L 136.765625 424.277344 L 136.292969 426.515625 L 135.777344 427.203125 L 133.742188 427.917969 L 132.394531 427.265625 L 131.738281 427.429688 L 131.113281 426.851563 L 129.28125 425.710938 L 129.140625 425.65625 L 131.792969 424.328125 L 131.226563 422.867188 L 130.640625 424.257813 L 127.769531 424.613281 L 125 424.347656 L 124.65625 422.402344 L 124.417969 421.773438 L 125.167969 421.753906 L 125.464844 421.238281 L 124.929688 417.953125 L 123.328125 417.210938 L 121.46875 417.105469 L 121.453125 417.085938 Z M 164.359375 436.542969 L 165.613281 436.855469 L 168.566406 436.898438 L 171.554688 436.152344 L 174.761719 437.417969 L 177.246094 437.609375 L 177.039063 438.671875 L 176.445313 439.273438 L 174.058594 439.917969 L 170.558594 439.851563 L 166.820313 439 L 166.347656 438.652344 Z M 187.199219 435.730469 L 186.78125 437.921875 L 187.046875 441.476563 L 188.511719 445.003906 L 190.9375 447.785156 L 191.226563 451.09375 L 192.5 454.296875 L 195.140625 457.40625 L 198.691406 459.414063 L 200.023438 462.472656 L 202.164063 465.03125 L 204.597656 466.703125 L 207.5 467.734375 L 209.667969 467.984375 L 211.976563 467.804688 L 216.664063 466.097656 L 218.4375 464.832031 L 219.945313 463.257813 L 221.128906 461.429688 L 221.953125 459.414063 L 225.066406 461.667969 L 228.742188 462.785156 L 232.582031 462.640625 L 236.164063 461.253906 L 239.183594 458.679688 L 241.117188 455.359375 L 241.863281 451.589844 L 241.339844 447.785156 L 242.859375 449.691406 L 244.636719 451.167969 L 246.792969 452.3125 L 249.011719 452.960938 L 252.980469 453.011719 L 256.847656 451.660156 L 259.507813 451.976563 L 262.042969 451.703125 L 265.367188 450.410156 L 268.476563 447.785156 L 270.605469 446.898438 L 272.519531 445.613281 L 274.75 443.148438 L 276.230469 440.03125 L 276.367188 442.585938 L 277.058594 445.046875 L 278.273438 447.300781 L 279.949219 449.230469 L 282.121094 450.816406 L 284.574219 451.878906 L 287.027344 452.414063 L 289.535156 452.410156 L 287.863281 455.539063 L 285.691406 457.246094 L 285.035156 458.082031 L 284.1875 457.9375 L 282.308594 459.710938 L 281.863281 459.789063 L 279.734375 460.605469 L 277.804688 461.820313 L 277.425781 462.175781 L 274.789063 462.777344 L 273.703125 463.292969 L 268.476563 463.292969 L 266.9375 461.761719 L 265.144531 460.542969 L 263.152344 459.675781 L 261.035156 459.199219 L 256.847656 459.414063 L 253.417969 459.125 L 250.058594 459.847656 L 246.65625 461.84375 L 243.046875 465 L 241.339844 467.167969 L 240.015625 467.320313 L 238.210938 466.1875 L 238.632813 465.4375 L 239.46875 464.933594 L 237.714844 463.296875 L 231.496094 463.171875 L 231.378906 463.496094 L 232.574219 464.835938 L 232.214844 465.75 L 231.738281 466.042969 L 226.691406 465.496094 L 219.566406 468.449219 L 217.054688 467.824219 L 214.925781 468.179688 L 214.199219 468.085938 L 210.050781 468.851563 L 209.882813 468.953125 L 208.164063 468.875 L 207.273438 468.058594 L 206.238281 469.769531 L 207.609375 470.335938 L 206.445313 471.046875 L 203.148438 470.746094 L 199.898438 471.390625 L 198.46875 472.113281 L 197.625 472.007813 L 196.175781 472.65625 L 195.679688 473.863281 L 195.714844 474.101563 L 195.175781 474.59375 L 194.945313 474.15625 L 195.335938 471.890625 L 195.042969 468.824219 L 193.953125 465.945313 L 192.148438 463.449219 L 189.75 461.519531 L 186.933594 460.28125 L 183.886719 459.828125 L 180.707031 460.222656 L 178.542969 461.039063 L 176.484375 462.347656 L 174.359375 464.375 L 172.980469 466.34375 L 171.996094 468.679688 L 171.554688 471.046875 L 170.1875 472.585938 L 168.992188 473.234375 L 168.214844 474.070313 L 167.203125 476.179688 L 162.746094 489.226563 L 160.929688 490.242188 L 158.269531 489.722656 L 157.554688 489.058594 L 156.527344 486.851563 L 154.683594 485.4375 L 153.613281 485.542969 L 152.417969 486.300781 L 151.984375 486.210938 L 151.074219 485.425781 L 148.46875 482.535156 L 146.046875 482.714844 L 143.199219 482.363281 L 134.105469 482.8125 L 130.261719 484.175781 L 127.121094 486.78125 L 125.136719 490.246094 L 124.039063 490.597656 L 123.648438 492.191406 L 122.457031 493.707031 L 121.5625 495.941406 L 121.289063 497.433594 L 120.660156 497.648438 L 120.394531 498.183594 L 118.253906 498.183594 L 117.96875 497.691406 L 118.09375 496.4375 L 117.15625 494.691406 L 115.984375 493.691406 L 112.253906 492.070313 L 111.410156 491.984375 L 110.375 492.488281 L 110.242188 494.183594 L 110.007813 494.453125 L 108.527344 494.183594 L 105.644531 494.308594 L 105.441406 494.242188 L 105.628906 491.574219 L 106.074219 490.5625 L 107.289063 490.027344 L 109.207031 489.558594 L 111.421875 488.328125 L 111.664063 488.109375 L 111.738281 488.078125 L 112.199219 488.253906 L 112.445313 488.9375 L 113.574219 489.15625 L 118.144531 485.910156 L 121.425781 483.085938 L 122.328125 482.070313 L 124.894531 480.746094 L 127.355469 478.148438 L 128.90625 474.921875 L 131.253906 473.035156 L 131.5 472.738281 L 132.105469 472.640625 L 132.679688 471.785156 L 132.855469 471.097656 L 134.703125 468.859375 L 135.042969 468.175781 L 135.859375 467.5625 L 138.636719 464.640625 L 138.765625 463.070313 L 139.089844 463.035156 L 141.289063 462.332031 L 143.414063 461.132813 L 145.242188 459.515625 L 146.691406 457.550781 L 147.738281 455.207031 L 148.082031 452.871094 L 148.429688 452.488281 L 148.339844 451.121094 L 148.425781 450.539063 L 148.292969 447.785156 L 148.542969 447.386719 L 151.105469 446.613281 L 157.421875 446.269531 L 159.910156 445.683594 L 164.597656 446.761719 L 166.046875 446.148438 L 167.527344 446.515625 L 169.484375 447.285156 L 170.039063 448.109375 L 170.757813 448.421875 L 173.15625 448.464844 L 180.570313 447.503906 L 181.109375 445.632813 L 181.210938 443.15625 L 182.519531 440.25 Z M 233.804688 469.410156 L 233.757813 469.4375 L 231.320313 471.875 L 230.089844 474.203125 L 229.960938 474.269531 L 228.117188 474.644531 L 222.296875 470.886719 L 221.804688 470.957031 L 220.941406 470.316406 L 221.476563 469.683594 L 227.316406 466.367188 L 232.550781 467.761719 Z M 221.953125 315.96875 L 222.617188 311.835938 L 221.753906 307.613281 L 219.734375 304.117188 L 216.640625 301.519531 L 220.777344 301.996094 L 223.390625 301.519531 L 225.832031 300.460938 L 232.300781 300.460938 L 235.074219 301.753906 L 235.878906 302.453125 L 238.609375 303.78125 L 239.9375 304.023438 L 244.476563 306.140625 L 245.742188 307.636719 L 247.257813 310.511719 L 245.925781 309.578125 L 243.335938 308.554688 L 238.605469 307.605469 L 235.304688 307.75 L 231.34375 309.160156 L 228.167969 311.730469 L 226.320313 314.648438 L 224.949219 317.941406 L 224.417969 320.292969 L 223.417969 317.996094 Z M 229.707031 331.476563 L 226.519531 330.257813 L 223.117188 330.015625 L 224.246094 327.734375 L 224.863281 325.136719 L 226.726563 328.734375 Z M 221.882813 393.574219 L 220.347656 395.253906 L 219.171875 397.199219 L 219.179688 395.363281 Z M 202.726563 168.933594 L 204.414063 172 L 207.144531 174.5 L 210.519531 176.019531 L 213.597656 176.335938 L 213.671875 176.582031 L 213.675781 176.957031 L 212.726563 177.972656 L 211.511719 179.902344 L 210.890625 181.527344 L 209.382813 183.425781 L 208.921875 184.441406 L 207.441406 184.746094 L 204.90625 185.976563 L 202.65625 187.871094 L 200.949219 190.269531 L 199.769531 193.644531 L 199.671875 197.222656 L 200.664063 200.660156 L 202.570313 203.539063 L 201.019531 205.210938 L 199.882813 207.039063 L 199.828125 207.175781 L 199.179688 207.605469 L 197.078125 210.023438 L 197.433594 210.839844 L 197.785156 210.703125 L 197.761719 211.238281 L 197.570313 211.867188 L 196.296875 212.519531 L 194.25 214.265625 L 192.65625 216.433594 L 191.570313 219.03125 L 191.492188 219.511719 L 191.214844 219.742188 L 188.042969 220.492188 L 187.0625 219.046875 L 190.515625 217.121094 L 193.121094 214.148438 L 194.363281 211.34375 L 194.816406 207.414063 L 196.078125 204.207031 L 196.363281 202.046875 L 196.246094 199.875 L 195.722656 197.761719 L 194.816406 195.785156 L 195.761719 192.859375 L 195.917969 189.921875 L 195.523438 187.648438 L 194.742188 185.613281 L 192.21875 182.238281 L 190.488281 180.914063 L 188.542969 179.933594 L 186.320313 179.3125 L 184.015625 179.144531 L 181.601563 179.464844 L 179.308594 180.277344 L 175.429688 180.277344 L 173.820313 178.277344 L 171.808594 176.683594 L 169.496094 175.566406 L 167.121094 175 L 163.285156 175.144531 L 159.921875 176.398438 L 156.953125 177.042969 L 154.359375 178.355469 L 152.167969 180.277344 L 151.796875 178.15625 L 150.980469 176.023438 L 149.765625 174.09375 L 148.292969 172.523438 L 150.460938 170.816406 L 152.167969 168.644531 L 155.105469 167.996094 L 152.441406 170.8125 L 151.949219 171.945313 L 152.140625 172.144531 L 156.390625 168.453125 L 157.75 167.980469 L 160.300781 168.324219 L 161.058594 169.320313 L 157.109375 173.804688 L 156.367188 175.339844 L 156.707031 175.816406 L 157.367188 175.984375 L 158.261719 175.542969 L 161.140625 173.015625 L 167.808594 170.273438 L 170.480469 169.527344 L 170.492188 169.949219 L 171.554688 169.839844 L 173.589844 168.316406 L 174.042969 166.792969 L 176.175781 167.964844 L 180.933594 168.804688 L 183.605469 168.78125 L 184.320313 169.011719 L 184.75 168.769531 L 197.136719 168.660156 L 199.164063 168.988281 Z M 192.324219 227.074219 L 192.609375 227.855469 L 194.039063 229.683594 L 192.117188 231.570313 L 189.460938 232.730469 L 188.34375 232.882813 L 188.285156 232.847656 L 189.269531 231.035156 L 190.003906 227.921875 L 189.929688 226.316406 L 190.898438 226.824219 Z M 198.6875 242.308594 L 196.417969 243.191406 L 194.378906 244.535156 L 192.664063 246.269531 L 191.347656 248.328125 L 190.492188 250.613281 L 190.128906 253.027344 L 190.28125 255.464844 L 190.9375 257.816406 L 189.230469 255.644531 L 187.0625 253.9375 L 186.117188 251.550781 L 184.753906 249.523438 L 181.832031 247.027344 L 179.375 245.914063 L 176.726563 245.398438 L 174.160156 245.488281 L 171.554688 246.183594 L 173.722656 244.476563 L 175.429688 242.308594 L 176.320313 241.578125 L 178.0625 241.875 L 182.921875 243.167969 L 186.398438 241.730469 L 187.519531 239.417969 L 188.617188 238.355469 L 189.539063 238.171875 L 193.183594 238.5 Z M 189.304688 223.042969 L 188.898438 221.816406 L 189.085938 221.875 L 189.332031 222.921875 Z M 156.78125 167.148438 L 158.046875 166.46875 L 162.003906 163.152344 L 162.820313 162.121094 L 164.042969 162.292969 L 165.242188 161.992188 L 166.015625 161.605469 L 166.75 160.257813 L 167.589844 160.183594 L 167.507813 160.828125 L 166.417969 162.609375 L 162.722656 166.96875 L 162.175781 167.183594 L 161.726563 166.894531 L 161.859375 165.949219 L 161.53125 165.507813 L 159.984375 165.785156 Z M 174.5 284.023438 L 177.734375 284.726563 L 181.164063 284.464844 L 184.367188 283.210938 L 187.0625 281.078125 L 188.769531 283.246094 L 190.9375 284.953125 L 190.835938 288.082031 L 191.621094 291.917969 L 193.039063 294.605469 L 195.503906 297.339844 L 197.816406 299.144531 L 200.628906 300.347656 L 203.53125 300.773438 L 206.445313 300.460938 L 203.761719 301.664063 L 201.464844 303.503906 L 199.765625 305.75 L 198.691406 308.214844 L 196.496094 310.832031 L 195.257813 313.605469 L 194.25 318.320313 L 194.207031 320.992188 L 194.816406 323.722656 L 192.617188 324.765625 L 190.6875 326.238281 L 189.105469 328.085938 L 187.9375 330.21875 L 187.21875 332.671875 L 187.0625 335.355469 L 185.960938 337.941406 L 185.519531 340.59375 L 185.828125 343.898438 L 187.0625 346.984375 L 185.359375 348.859375 L 184.105469 351.0625 L 183.433594 353.820313 L 179.976563 346.332031 L 180.050781 346.195313 L 181.234375 344.941406 L 182.660156 342.382813 L 183.179688 340.601563 L 183.371094 340.257813 L 185.429688 339.015625 L 185.140625 338.578125 L 183.445313 338.5 L 183.5 337.886719 L 183.183594 335.355469 L 183.273438 332.097656 L 182.820313 330.03125 L 184.695313 329.191406 L 187.28125 323.421875 L 187.71875 320.933594 L 187.855469 317.484375 L 184.742188 320.527344 L 179.246094 323.417969 L 178.789063 321.113281 L 177.625 318.585938 L 173.988281 314.070313 L 172.472656 312.839844 L 172.289063 311.832031 L 171.234375 310.285156 L 171.179688 309.96875 L 170.363281 307.839844 L 169.148438 305.910156 L 167.675781 304.339844 L 170.128906 301.285156 L 171.074219 299.070313 L 171.554688 296.585938 L 173.425781 294.328125 L 174.632813 291.792969 L 175.234375 287.898438 L 175.1875 287.648438 L 176.464844 286.417969 L 178.757813 285.980469 L 180.191406 286.804688 L 181.015625 286.710938 L 182.933594 286.238281 L 183.03125 285.160156 L 182.34375 284.746094 L 180.035156 285.351563 L 174.679688 284.984375 Z M 183.167969 354.898438 L 182.605469 357.214844 L 182.699219 360.644531 L 184.207031 366.445313 L 186.265625 369.527344 L 189.1875 371.804688 L 192.425781 372.996094 L 195.871094 373.1875 L 199.457031 372.257813 L 202.570313 370.246094 L 206.445313 370.246094 L 204.632813 371.675781 L 203.207031 373.335938 L 202.121094 375.226563 L 201.40625 377.289063 L 201.089844 379.453125 L 201.183594 381.632813 L 201.679688 383.757813 L 202.570313 385.753906 L 200.304688 385.289063 L 197.863281 385.292969 L 195.601563 385.765625 L 193.476563 386.675781 L 191.574219 387.992188 L 189.972656 389.65625 L 188.726563 391.605469 L 187.894531 393.761719 L 187.476563 397.066406 L 188.011719 400.359375 L 188.988281 402.59375 L 190.9375 405.136719 L 192.640625 408.570313 L 194.074219 410.210938 L 195.898438 411.621094 L 198.691406 412.890625 L 201.28125 414.644531 L 203.757813 415.539063 L 202.570313 416.769531 L 200.015625 417.050781 L 197.472656 417.945313 L 194.34375 420.175781 L 192.003906 423.535156 L 191.222656 425.847656 L 190.9375 428.398438 L 190.3125 428.996094 L 190.953125 425.40625 L 190.902344 422.730469 L 190.453125 420.472656 L 189.375 418.011719 L 187.765625 415.863281 L 185.597656 414.070313 L 183.183594 412.890625 L 183.847656 409.144531 L 183.183594 405.136719 L 183.5 402.605469 L 183.277344 400.191406 L 181.867188 396.507813 L 179.308594 393.507813 L 181.875 391.183594 L 183.648438 388.210938 L 184.464844 384.84375 L 184.253906 381.386719 L 183.546875 379.183594 L 182.492188 377.269531 L 181.007813 375.496094 L 179.308594 374.125 L 179.617188 371.078125 L 179.121094 368.058594 L 177.859375 365.273438 L 176.003906 363.003906 L 173.226563 360.941406 L 170.101563 359.785156 L 166.777344 359.566406 L 163.527344 360.296875 L 157.402344 363.738281 L 154.832031 366.035156 L 153.605469 367.832031 L 152.734375 369.828125 L 152.25 371.949219 L 152.203125 373.183594 L 150.203125 373.105469 L 145.449219 374.257813 L 143.757813 375.484375 L 142.105469 378 L 136.660156 378 L 136.660156 377.304688 L 137.339844 376.066406 L 139.78125 373.414063 L 139.867188 373.394531 L 142.378906 372.015625 L 142.589844 371.953125 L 147.132813 367.984375 L 147.953125 364.523438 L 151.550781 360.582031 L 153.09375 359.609375 L 154.941406 359.808594 L 160.492188 357.457031 L 163.644531 357.28125 L 167.339844 357.714844 L 172.597656 355.179688 L 173.933594 355.046875 L 174.484375 355.082031 L 179.910156 359.441406 L 180.433594 358.429688 L 177.679688 353.460938 L 178.242188 352.835938 L 180.867188 352.449219 L 181.503906 352.695313 L 181.914063 353.875 L 182.898438 354.332031 Z M 148.195313 363.292969 L 148.941406 359.253906 L 148.839844 356.964844 L 148.292969 354.738281 L 148.292969 351.632813 L 149.566406 352.007813 L 151.039063 355.578125 L 155.546875 356.503906 L 154.066406 358.859375 L 150.984375 360.816406 Z M 190.9375 114.371094 L 188.816406 114.742188 L 188.117188 115.011719 L 186.777344 113.90625 L 184.832031 114.03125 L 182.359375 114.929688 L 181.996094 113.996094 L 180.78125 112.066406 L 179.308594 110.492188 L 179.308594 106.617188 L 182.234375 105.003906 L 184.519531 106.003906 L 186.230469 108.273438 L 187.324219 111.371094 L 189.425781 112.382813 L 190.734375 113.441406 L 191.015625 113.949219 Z M 186.195313 99.75 L 186.679688 98.667969 L 186.777344 97.710938 L 188.613281 98.375 L 189.644531 99.757813 L 189.558594 100.558594 L 189.007813 101.453125 L 189.121094 100.265625 L 187.730469 99.058594 L 186.953125 98.894531 L 186.835938 99.515625 L 186.335938 100.011719 Z M 194.816406 99.613281 L 194.816406 101.175781 L 194.695313 101.191406 L 193.226563 103.421875 L 193.136719 102.113281 Z M 140.539063 322.660156 L 140.539063 316.175781 L 142.300781 315.023438 L 142.765625 314.121094 L 144.414063 312.09375 L 147.265625 309.644531 L 147.996094 308.644531 L 149.046875 308.269531 L 149.160156 308.785156 L 148.394531 311.203125 L 148.132813 313.84375 L 148.226563 317.394531 L 147.847656 318.148438 L 145.480469 320.476563 L 144.039063 321.035156 L 142.109375 322.25 L 141.417969 322.898438 Z M 140.265625 240.484375 L 140.539063 238.429688 L 143.601563 240.886719 L 147.304688 242.183594 L 145.773438 242.25 L 141.261719 240.453125 L 140.441406 240.5625 Z M 134.949219 275.726563 L 134.332031 276.59375 L 133.96875 276.734375 L 134.003906 276.632813 Z M 117.34375 261.664063 L 119.742188 260.621094 L 121.894531 259.011719 L 122.441406 258.335938 L 121.671875 261.785156 L 119.90625 261.550781 L 117.34375 261.6875 Z M 125.984375 253.234375 L 126.691406 252.710938 L 125.492188 255.585938 Z M 236.835938 466.113281 L 235.136719 465.644531 L 236.523438 463.683594 L 237.195313 464.164063 L 237.5 465.839844 Z M 88.429688 500.046875 L 88.566406 499.308594 L 88.941406 499.117188 L 89.34375 499.789063 Z M 88.429688 500.046875 "/>
<path style=" stroke:none;fill-rule:nonzero;fill:rgb(80.392157%,58.431373%,4.705882%);fill-opacity:1;" d="M 223.890625 366.371094 L 223.609375 368.167969 L 222.78125 369.789063 L 221.496094 371.074219 L 219.875 371.898438 L 218.078125 372.183594 L 216.28125 371.898438 L 214.660156 371.074219 L 213.371094 369.789063 L 212.546875 368.167969 L 212.261719 366.371094 L 212.546875 364.570313 L 213.371094 362.949219 L 214.660156 361.664063 L 216.28125 360.839844 L 218.078125 360.554688 L 219.875 360.839844 L 221.496094 361.664063 L 222.78125 362.949219 L 223.609375 364.570313 Z M 223.890625 366.371094 "/>
<path style=" stroke:none;fill-rule:nonzero;fill:rgb(80.392157%,58.431373%,4.705882%);fill-opacity:1;" d="M 220.015625 335.355469 L 219.730469 337.152344 L 218.90625 338.773438 L 217.617188 340.058594 L 215.996094 340.882813 L 214.199219 341.167969 L 212.402344 340.882813 L 210.78125 340.058594 L 209.496094 338.773438 L 208.667969 337.152344 L 208.382813 335.355469 L 208.667969 333.558594 L 209.496094 331.9375 L 210.78125 330.648438 L 212.402344 329.824219 L 214.199219 329.539063 L 215.996094 329.824219 L 217.617188 330.648438 L 218.90625 331.9375 L 219.730469 333.558594 Z M 220.015625 335.355469 "/>
<path style=" stroke:none;fill-rule:nonzero;fill:rgb(80.392157%,58.431373%,4.705882%);fill-opacity:1;" d="M 239.398438 436.152344 L 239.117188 437.949219 L 238.289063 439.570313 L 237.003906 440.859375 L 235.382813 441.683594 L 233.585938 441.96875 L 231.789063 441.683594 L 230.167969 440.859375 L 228.878906 439.570313 L 228.054688 437.949219 L 227.769531 436.152344 L 228.054688 434.355469 L 228.878906 432.734375 L 230.167969 431.449219 L 231.789063 430.625 L 233.585938 430.339844 L 235.382813 430.625 L 237.003906 431.449219 L 238.289063 432.734375 L 239.117188 434.355469 Z M 239.398438 436.152344 "/>
<path style=" stroke:none;fill-rule:nonzero;fill:rgb(80.392157%,58.431373%,4.705882%);fill-opacity:1;" d="M 239.398438 432.277344 L 239.117188 434.074219 L 238.289063 435.695313 L 237.003906 436.980469 L 235.382813 437.808594 L 233.585938 438.09375 L 231.789063 437.808594 L 230.167969 436.980469 L 228.878906 435.695313 L 228.054688 434.074219 L 227.769531 432.277344 L 228.054688 430.480469 L 228.878906 428.859375 L 230.167969 427.570313 L 231.789063 426.746094 L 233.585938 426.460938 L 235.382813 426.746094 L 237.003906 427.570313 L 238.289063 428.859375 L 239.117188 430.480469 Z M 239.398438 432.277344 "/>
<path style=" stroke:none;fill-rule:nonzero;fill:rgb(80.392157%,58.431373%,4.705882%);fill-opacity:1;" d="M 220.015625 412.890625 L 219.730469 414.6875 L 218.90625 416.308594 L 217.617188 417.597656 L 215.996094 418.421875 L 214.199219 418.707031 L 212.402344 418.421875 L 210.78125 417.597656 L 209.496094 416.308594 L 208.667969 414.6875 L 208.382813 412.890625 L 208.667969 411.09375 L 209.496094 409.472656 L 210.78125 408.1875 L 212.402344 407.363281 L 214.199219 407.078125 L 215.996094 407.363281 L 217.617188 408.1875 L 218.90625 409.472656 L 219.730469 411.09375 Z M 220.015625 412.890625 "/>
<path style=" stroke:none;fill-rule:nonzero;fill:rgb(80.392157%,58.431373%,4.705882%);fill-opacity:1;" d="M 173.492188 277.199219 L 173.207031 278.996094 L 172.382813 280.617188 L 171.09375 281.90625 L 169.472656 282.730469 L 167.675781 283.015625 L 165.878906 282.730469 L 164.257813 281.90625 L 162.972656 280.617188 L 162.144531 278.996094 L 161.863281 277.199219 L 162.144531 275.402344 L 162.972656 273.78125 L 164.257813 272.496094 L 165.878906 271.667969 L 167.675781 271.382813 L 169.472656 271.667969 L 171.09375 272.496094 L 172.382813 273.78125 L 173.207031 275.402344 Z M 173.492188 277.199219 "/>
<path style=" stroke:none;fill-rule:nonzero;fill:rgb(80.392157%,58.431373%,4.705882%);fill-opacity:1;" d="M 161.863281 211.292969 L 161.578125 213.089844 L 160.75 214.710938 L 159.464844 215.996094 L 157.84375 216.824219 L 156.046875 217.109375 L 154.25 216.824219 L 152.628906 215.996094 L 151.339844 214.710938 L 150.515625 213.089844 L 150.230469 211.292969 L 150.515625 209.496094 L 151.339844 207.875 L 152.628906 206.585938 L 154.25 205.761719 L 156.046875 205.476563 L 157.84375 205.761719 L 159.464844 206.585938 L 160.75 207.875 L 161.578125 209.496094 Z M 161.863281 211.292969 "/>
<path style=" stroke:none;fill-rule:nonzero;fill:rgb(80.392157%,58.431373%,4.705882%);fill-opacity:1;" d="M 262.660156 350.863281 L 262.375 352.660156 L 261.550781 354.28125 L 260.265625 355.566406 L 258.644531 356.390625 L 256.847656 356.675781 L 255.050781 356.390625 L 253.429688 355.566406 L 252.140625 354.28125 L 251.316406 352.660156 L 251.03125 350.863281 L 251.316406 349.066406 L 252.140625 347.441406 L 253.429688 346.15625 L 255.050781 345.332031 L 256.847656 345.046875 L 257.539063 345.15625 L 260.535156 347.621094 L 262.097656 348.515625 Z M 262.660156 350.863281 "/>
<path style=" stroke:none;fill-rule:nonzero;fill:rgb(80.392157%,58.431373%,4.705882%);fill-opacity:1;" d="M 221.8125 281.585938 L 219.875 282.730469 L 218.078125 283.015625 L 216.28125 282.730469 L 214.660156 281.90625 L 213.371094 280.617188 L 212.546875 278.996094 L 212.261719 277.199219 L 212.546875 275.402344 L 213.371094 273.78125 L 214.660156 272.496094 L 216.28125 271.667969 L 218.078125 271.382813 L 219.136719 271.550781 L 220.40625 277.574219 Z M 221.8125 281.585938 "/>
<path style=" stroke:none;fill-rule:nonzero;fill:rgb(80.392157%,58.431373%,4.705882%);fill-opacity:1;" d="M 119.214844 222.921875 L 119.121094 223.515625 L 116.335938 225.03125 L 115.453125 224.539063 L 116.136719 223.339844 L 115.425781 223.117188 L 112.109375 224.96875 L 108.488281 225.933594 L 107.722656 223.800781 L 112.214844 222.164063 L 112.035156 221.589844 L 109.863281 222.445313 L 108.199219 222.488281 L 107.824219 221.539063 L 109.386719 219.472656 L 112.601563 217.957031 L 112.804688 217.203125 L 113.398438 217.109375 L 115.195313 217.390625 L 116.816406 218.21875 L 118.105469 219.503906 L 118.929688 221.125 Z M 119.214844 222.921875 "/>
<path style=" stroke:none;fill-rule:nonzero;fill:rgb(80.392157%,58.431373%,4.705882%);fill-opacity:1;" d="M 219.859375 274.980469 L 218.078125 275.261719 L 216.28125 274.976563 L 214.660156 274.152344 L 213.371094 272.863281 L 212.546875 271.242188 L 212.261719 269.445313 L 212.546875 267.648438 L 213.371094 266.027344 L 214.660156 264.742188 L 216.28125 263.914063 L 218.726563 263.734375 L 218.894531 265.933594 L 218.261719 267.402344 Z M 219.859375 274.980469 "/>
<path style=" stroke:none;fill-rule:nonzero;fill:rgb(80.392157%,58.431373%,4.705882%);fill-opacity:1;" d="M 218.28125 261.855469 L 215.996094 263.347656 L 214.199219 263.628906 L 212.402344 263.347656 L 210.78125 262.519531 L 209.496094 261.234375 L 208.667969 259.613281 L 208.382813 257.816406 L 208.667969 256.019531 L 209.496094 254.398438 L 210.421875 253.46875 L 212.824219 256.707031 L 213.265625 256.828125 L 213.433594 256.585938 L 214.601563 257.097656 L 217.371094 258.992188 Z M 218.28125 261.855469 "/>
<path style=" stroke:none;fill-rule:nonzero;fill:rgb(80.392157%,58.431373%,4.705882%);fill-opacity:1;" d="M 126.96875 184.152344 L 124.980469 183.324219 L 124.4375 181.292969 L 125.859375 180.734375 L 126.683594 182.355469 Z M 126.738281 185.621094 L 125.859375 187.570313 L 124.570313 188.859375 L 123.710938 189.296875 L 122.863281 188.511719 L 123.117188 185.351563 L 125.410156 184.53125 Z M 119.21875 178.691406 L 121.152344 178.339844 L 122.949219 178.625 L 124.265625 179.292969 L 120.484375 180.664063 L 119.382813 179.570313 Z M 119.65625 189.730469 L 117.734375 188.859375 L 116.449219 187.570313 L 115.625 185.949219 L 115.421875 183.628906 L 117.5 184.859375 L 120.773438 183.445313 L 123.167969 184.417969 L 122.46875 186.839844 Z M 115.550781 182.8125 L 116.054688 181.507813 L 116.664063 181.757813 L 116.886719 182.648438 L 116.207031 183.113281 Z M 115.550781 182.8125 "/>
<path style=" stroke:none;fill-rule:nonzero;fill:rgb(80.392157%,58.431373%,4.705882%);fill-opacity:1;" d="M 142.605469 291.886719 L 142.761719 290.910156 L 143.585938 289.289063 L 144.875 288.003906 L 146.496094 287.175781 L 148.292969 286.890625 L 150.089844 287.175781 L 151.710938 288.003906 L 152.996094 289.289063 L 153.824219 290.910156 L 154.019531 292.15625 L 149.984375 289.230469 L 149.214844 288.042969 L 149.230469 287.167969 L 148.945313 287.023438 L 148.15625 288.078125 L 147.988281 288.910156 L 148.375 290.554688 L 149.574219 292.960938 L 149.839844 295.726563 L 149.308594 296.871094 L 148.746094 297.058594 L 145.816406 295.78125 L 144.601563 294.238281 L 144.507813 293.621094 L 143.632813 292.355469 Z M 142.605469 291.886719 "/>
<path style=" stroke:none;fill-rule:nonzero;fill:rgb(80.392157%,58.431373%,4.705882%);fill-opacity:1;" d="M 166.878906 152.707031 L 166.023438 151.058594 L 165.738281 149.261719 L 166.023438 147.464844 L 166.847656 145.84375 L 168.136719 144.558594 L 169.757813 143.730469 L 171.554688 143.445313 L 173.351563 143.730469 L 175.339844 144.925781 L 173.855469 147.214844 Z M 166.878906 152.707031 "/>
</g>
</svg>
