<?xml version="1.0" encoding="UTF-8"?>
<svg xmlns="http://www.w3.org/2000/svg" xmlns:xlink="http://www.w3.org/1999/xlink" width="378pt" height="504pt" viewBox="0 0 378 504" version="1.1">
<g id="data">
<rect x="0" y="0" width="378" height="504" style="fill:rgb(100%,100%,100%);fill-opacity:1;stroke:none;"/>
<path style=" stroke:none;fill-rule:nonzero;fill:rgb(100%,100%,100%);fill-opacity:1;" d="M 53.308594 504 L 324.691406 504 L 324.691406 0 L 53.308594 0 Z M 53.308594 504 "/>
<path style=" stroke:none;fill-rule:nonzero;fill:rgb(22.745098%,53.333333%,16.078431%);fill-opacity:1;" d="M 218.078125 451.660156 L 218.222656 450.382813 L 218.78125 452.476563 L 219.71875 454.429688 L 221.089844 456.273438 L 222.691406 457.734375 L 225.832031 459.414063 L 227.402344 460.886719 L 229.21875 462.046875 L 231.339844 462.882813 L 233.105469 463.203125 L 231.496094 463.171875 L 231.378906 463.496094 L 232.574219 464.835938 L 232.214844 465.75 L 231.738281 466.042969 L 226.691406 465.496094 L 219.566406 468.449219 L 217.054688 467.824219 L 214.820313 468.199219 L 214.199219 468.085938 L 210.050781 468.851563 L 209.882813 468.953125 L 208.164063 468.875 L 207.273438 468.058594 L 206.238281 469.769531 L 207.609375 470.335938 L 206.445313 471.046875 L 205.730469 467.03125 L 203.757813 463.609375 L 209.746094 462.816406 L 212 461.878906 L 213.910156 460.582031 L 215.609375 458.828125 L 216.957031 456.640625 L 217.792969 454.214844 Z M 232.65625 467.898438 L 231.414063 468.875 L 229.707031 471.046875 L 225.832031 470.382813 L 222.421875 470.964844 L 222.296875 470.886719 L 221.804688 470.957031 L 220.878906 470.390625 L 221.476563 469.683594 L 227.316406 466.367188 L 232.550781 467.761719 Z M 215.097656 257.4375 L 215.390625 258.191406 L 216.605469 260.121094 L 218.078125 261.691406 L 218.078125 265.570313 L 217.410156 269.445313 L 218.078125 273.324219 L 218.078125 288.832031 L 214.199219 288.832031 L 215.5625 286.964844 L 216.570313 284.742188 L 217.089844 282.359375 L 217.105469 279.921875 L 216.300781 276.6875 L 214.199219 273.324219 L 213.558594 270.355469 L 212.097656 267.550781 L 210.511719 265.738281 L 208.457031 264.207031 L 206.234375 263.199219 L 203.851563 262.679688 L 201.414063 262.664063 L 199.027344 263.160156 L 196.792969 264.144531 L 194.816406 265.570313 L 193.109375 263.398438 L 190.9375 261.691406 L 190.9375 257.816406 L 191.457031 254.804688 L 191.320313 252.515625 L 190.339844 249.359375 L 188.511719 246.605469 L 191.753906 246.828125 L 194.816406 246.183594 L 196.914063 246.714844 L 199.074219 246.84375 L 202.570313 246.183594 L 204.457031 248.53125 L 208.738281 252.050781 L 209.734375 252.542969 L 212.824219 256.707031 L 213.265625 256.828125 L 213.433594 256.585938 L 214.601563 257.097656 Z M 183.183594 405.136719 L 185.777344 407.210938 L 188.847656 408.472656 L 192.148438 408.808594 L 195.53125 408.160156 L 194.929688 410.488281 L 194.816406 412.890625 L 192.304688 416.058594 L 191.382813 418.28125 L 190.9375 420.644531 L 188.832031 423.289063 L 187.605469 426.304688 L 187.0625 424.523438 L 187.640625 422.046875 L 187.65625 419.375 L 186.410156 415.097656 L 185.128906 413.027344 L 183.449219 411.269531 L 181.4375 409.898438 L 179.308594 409.015625 L 181.089844 406.890625 L 182.363281 404.289063 Z M 129.421875 285.835938 L 129.574219 284.953125 L 129.4375 284.167969 L 129.71875 282.265625 L 129.808594 282.210938 L 130.703125 283.335938 L 133.9375 285.976563 L 135.78125 287.148438 L 137.8125 287.953125 L 140.339844 288.394531 L 142.90625 288.273438 L 145.261719 287.636719 L 147.539063 286.449219 L 150.257813 283.917969 L 152.035156 280.65625 L 152.695313 277 L 152.167969 273.324219 L 153.511719 275.046875 L 155.152344 276.484375 L 157.035156 277.59375 L 159.089844 278.332031 L 161.375 278.679688 L 163.554688 278.585938 L 165.683594 278.085938 L 167.675781 277.199219 L 168.269531 280.867188 L 169.945313 284.074219 L 169.453125 284.03125 L 168.226563 288.992188 L 166.234375 288.695313 L 163.3125 290.011719 L 161.832031 291.855469 L 159.410156 293.515625 L 156.15625 293.3125 L 155.160156 292.984375 L 149.984375 289.230469 L 149.214844 288.042969 L 149.230469 287.167969 L 148.945313 287.023438 L 148.15625 288.078125 L 147.988281 288.910156 L 148.375 290.554688 L 149.574219 292.960938 L 149.839844 295.726563 L 149.308594 296.871094 L 148.746094 297.058594 L 145.816406 295.78125 L 144.601563 294.238281 L 144.507813 293.621094 L 143.632813 292.355469 L 141.613281 291.4375 L 140.164063 290.433594 L 138.398438 288.636719 L 137.464844 288.296875 L 135.511719 289.683594 L 134.605469 291.238281 L 135.976563 295.472656 L 136.734375 296.308594 L 136.886719 297.789063 L 136.027344 297.308594 L 134.542969 296.976563 L 134.359375 296.304688 L 134.707031 295.457031 L 134.59375 294.480469 L 133.472656 292.679688 L 130.894531 289.722656 L 129.605469 286.988281 Z M 174.972656 287.855469 L 176.007813 288.351563 L 181.328125 289.125 L 184.628906 288.84375 L 188.15625 287.382813 L 190.9375 284.953125 L 190.632813 288.125 L 191.199219 291.261719 L 192.667969 294.230469 L 194.816406 296.585938 L 192.210938 298.746094 L 188.671875 303.394531 L 187.488281 306.640625 L 187.328125 310.21875 L 188.109375 313.320313 L 189.707031 316.09375 L 192 318.324219 L 194.816406 319.847656 L 193.007813 321.203125 L 190.9375 323.722656 L 188.679688 325.519531 L 186.109375 328.808594 L 184.601563 331.914063 L 184.070313 335.449219 L 184.285156 337.617188 L 184.5625 338.550781 L 183.296875 338.492188 L 183.832031 335.992188 L 183.414063 332.207031 L 182.5 330.175781 L 184.695313 329.191406 L 187.28125 323.421875 L 187.71875 320.933594 L 187.855469 317.484375 L 184.742188 320.527344 L 179.199219 323.441406 L 177.335938 322.691406 L 175.570313 319.632813 L 175.167969 317.417969 L 173.773438 314.550781 L 172.53125 313.175781 L 172.289063 311.832031 L 171.175781 310.199219 L 171.035156 309.484375 L 169.9375 307.0625 L 168.664063 305.324219 L 167.527344 304.265625 L 169.164063 299.058594 L 174.074219 288.722656 Z M 184.808594 339.390625 L 184.902344 339.707031 L 185.894531 341.644531 L 187.234375 343.363281 L 188.871094 344.800781 L 190.746094 345.910156 L 194.816406 346.984375 L 192.210938 349.148438 L 189.167969 352.699219 L 187.894531 354.761719 L 187.503906 356.136719 L 186.378906 356.386719 L 183.8125 354.640625 L 179.976563 346.332031 L 180.128906 346.058594 L 181.15625 344.902344 L 182.457031 342.4375 L 182.644531 341.558594 L 183.371094 340.257813 Z M 187.042969 357.753906 L 186.8125 358.554688 L 187.0625 362.492188 L 185.113281 365.503906 L 184.171875 368.960938 L 184.304688 372.417969 L 185.449219 375.683594 L 188.253906 379.621094 L 190.9375 381.875 L 188.609375 385.144531 L 185.339844 386.5625 L 182.839844 388.496094 L 181.269531 390.484375 L 180.128906 392.886719 L 178.488281 391.335938 L 176.582031 390.132813 L 174.335938 389.257813 L 172.1875 388.859375 L 170 388.867188 L 167.734375 389.324219 L 165.714844 390.15625 L 163.886719 391.355469 L 161.605469 393.789063 L 159.921875 397.382813 L 158.296875 399.160156 L 157.125 401.113281 L 156.046875 405.136719 L 154.84375 408.097656 L 154.492188 411.273438 L 155.183594 414.910156 L 157.671875 420.097656 L 160.367188 422.820313 L 163.800781 424.523438 L 163.136719 428.144531 L 163.679688 431.914063 L 165.425781 435.605469 L 168.226563 438.40625 L 170.824219 439.78125 L 171.136719 439.863281 L 170.558594 439.851563 L 166.820313 439 L 166.347656 438.652344 L 161.371094 433.375 L 159.03125 429.199219 L 155.65625 429.589844 L 149.269531 432.308594 L 149.113281 432.746094 L 147.203125 431.632813 L 146.917969 429.308594 L 148.539063 428.378906 L 150.066406 428.890625 L 151.640625 428.421875 L 152.765625 427.832031 L 153.085938 427.097656 L 152.808594 426.597656 L 147.785156 426.460938 L 143.210938 423.710938 L 139.503906 423.714844 L 136.765625 424.277344 L 136.292969 426.515625 L 135.777344 427.203125 L 133.742188 427.917969 L 132.394531 427.265625 L 131.703125 427.441406 L 130.699219 426.550781 L 129.050781 425.703125 L 131.792969 424.328125 L 131.226563 422.867188 L 130.640625 424.257813 L 127.769531 424.613281 L 125 424.347656 L 124.65625 422.402344 L 124.417969 421.773438 L 125.167969 421.753906 L 125.464844 421.238281 L 124.929688 417.953125 L 123.328125 417.210938 L 121.46875 417.105469 L 121.453125 417.085938 L 121.683594 416.351563 L 123.324219 415.0625 L 123.925781 414.300781 L 125.933594 413.378906 L 126.191406 412.753906 L 129.082031 412.40625 L 130.773438 411.539063 L 133.074219 411.34375 L 134.871094 409.289063 L 135.753906 407.632813 L 137.585938 406.550781 L 141.359375 406.660156 L 142.21875 406.390625 L 149.359375 401.828125 L 152.136719 398.207031 L 153.054688 396.195313 L 154.199219 391.746094 L 153.734375 388.820313 L 152.566406 386.542969 L 153.179688 384.597656 L 154.652344 381.796875 L 152.269531 378.203125 L 152.683594 374.835938 L 153.175781 374.082031 L 152.804688 373.207031 L 150.203125 373.105469 L 145.449219 374.257813 L 143.757813 375.484375 L 142.039063 378.097656 L 141.507813 378.132813 L 139.289063 377.859375 L 136.660156 378 L 136.660156 377.304688 L 137.339844 376.066406 L 140.148438 373.019531 L 141.023438 372.414063 L 142.589844 371.953125 L 147.132813 367.984375 L 147.953125 364.523438 L 151.550781 360.582031 L 153.09375 359.609375 L 154.941406 359.808594 L 160.492188 357.457031 L 163.644531 357.28125 L 165.40625 357.488281 L 165.480469 357.515625 L 165.757813 357.53125 L 167.339844 357.714844 L 167.503906 357.636719 L 168.542969 357.699219 L 171.550781 357.078125 L 174.734375 355.285156 L 179.910156 359.441406 L 180.433594 358.429688 L 177.679688 353.460938 L 178.242188 352.835938 L 180.867188 352.449219 L 181.503906 352.695313 L 181.914063 353.875 L 182.898438 354.332031 L 184.078125 356.789063 L 185.613281 357.902344 Z M 187.292969 432.261719 L 187.53125 431.640625 L 187.6875 432.09375 Z M 188.554688 434.425781 L 190.066406 436.714844 L 192.230469 438.671875 L 194.816406 440.03125 L 192.757813 441.769531 L 191.222656 443.820313 L 190.132813 446.28125 L 189.640625 448.925781 L 189.769531 451.617188 L 190.460938 454.085938 L 191.679688 456.339844 L 193.457031 458.363281 L 189.945313 456.796875 L 185.992188 456.46875 L 182.273438 457.441406 L 179.070313 459.570313 L 176.566406 462.96875 L 175.800781 465.015625 L 175.429688 467.167969 L 172.828125 469.332031 L 169.90625 472.738281 L 168.992188 473.234375 L 168.214844 474.070313 L 167.203125 476.179688 L 165.449219 481.320313 L 164.074219 480.480469 L 161.96875 479.898438 L 159.792969 479.714844 L 155.773438 480.480469 L 152.167969 482.675781 L 148.558594 482.636719 L 148.46875 482.535156 L 147.308594 482.621094 L 138.285156 482.519531 L 134.175781 483.15625 L 130.886719 484.777344 L 127.835938 487.636719 L 126.480469 489.820313 L 124.039063 490.597656 L 123.132813 494.289063 L 123.664063 495.292969 L 123.640625 495.398438 L 122.859375 496.015625 L 121.910156 497.222656 L 120.660156 497.648438 L 120.394531 498.183594 L 118.253906 498.183594 L 117.96875 497.691406 L 118.09375 496.4375 L 117.15625 494.691406 L 115.984375 493.691406 L 112.253906 492.070313 L 111.410156 491.984375 L 110.375 492.488281 L 110.242188 494.183594 L 110.007813 494.453125 L 108.527344 494.183594 L 105.644531 494.308594 L 105.441406 494.242188 L 105.628906 491.574219 L 106.074219 490.5625 L 107.515625 489.929688 L 109.667969 489.351563 L 111.625 488.179688 L 111.738281 488.078125 L 112.199219 488.253906 L 112.445313 488.9375 L 113.574219 489.15625 L 118.144531 485.910156 L 121.425781 483.085938 L 124.375 479.769531 L 125.210938 477.886719 L 124.875 476.421875 L 125.570313 474.691406 L 127.382813 473.914063 L 128.195313 473.328125 L 128.386719 473.238281 L 132.105469 472.640625 L 132.679688 471.785156 L 133.257813 469.527344 L 135.859375 467.5625 L 138.636719 464.640625 L 138.878906 461.65625 L 139.671875 460.164063 L 140.332031 456.773438 L 140.199219 454.804688 L 142.492188 455.105469 L 144.269531 456.015625 L 145.761719 455.429688 L 148.429688 452.488281 L 148.105469 447.519531 L 151.105469 446.613281 L 157.421875 446.269531 L 159.910156 445.683594 L 164.597656 446.761719 L 166.046875 446.148438 L 167.527344 446.515625 L 169.484375 447.285156 L 170.039063 448.109375 L 170.757813 448.421875 L 173.15625 448.464844 L 180.570313 447.503906 L 181.109375 445.632813 L 181.210938 443.15625 L 182.519531 440.25 Z M 140.539063 357.78125 L 140.539063 355.167969 L 140.597656 355.164063 L 141.484375 356.3125 L 142.226563 358.1875 L 141.734375 358.875 L 141.003906 358.070313 Z M 149.5 351.988281 L 149.59375 352.074219 L 151.039063 355.578125 L 155.546875 356.503906 L 154.066406 358.859375 L 150.984375 360.816406 L 147.425781 363.976563 L 146.109375 363.875 L 144.195313 361.613281 L 142.050781 357.363281 L 142.246094 352.273438 L 144.664063 351.183594 L 146.003906 350.957031 Z M 149.164063 308.796875 L 148.566406 310.320313 L 148.132813 313.714844 L 148.230469 317.390625 L 147.847656 318.148438 L 145.3125 320.636719 L 141.859375 323.019531 L 139.824219 322.464844 L 139.628906 322.566406 L 138.832031 321.554688 L 138.289063 321.125 L 139.59375 317.296875 L 140.324219 316.316406 L 142.300781 315.023438 L 144.765625 310.230469 L 145.863281 309.40625 L 149.046875 308.269531 Z M 182.828125 120.46875 L 181.851563 117.683594 L 182.96875 119.6875 L 182.941406 120.441406 Z M 181.59375 117.21875 L 180.773438 116.195313 L 181.269531 116.636719 Z M 180.292969 113.960938 L 181.4375 113.484375 L 183.449219 112.113281 L 185.050781 110.457031 L 186.304688 108.480469 L 186.789063 109.859375 L 186.589844 110.023438 L 185.125 111.8125 L 184.046875 113.855469 L 183.890625 114.375 L 181.886719 115.097656 Z M 187.074219 98.917969 L 187.0625 98.863281 L 187.136719 98.933594 Z M 189.085938 100.621094 L 189.398438 100.816406 L 189.007813 101.453125 Z M 193.160156 102.4375 L 193.800781 102.554688 L 193.226563 103.421875 Z M 169.746094 245.363281 L 171.179688 242.101563 L 171.320313 240.722656 L 178.0625 241.875 L 182.15625 242.964844 L 179.445313 242.726563 L 176.550781 243.195313 L 173.859375 244.371094 L 171.554688 246.183594 Z M 171.527344 238.691406 L 171.554688 238.429688 L 175.042969 236.371094 L 177.617188 233.242188 L 179.308594 234.554688 L 179.398438 236.835938 L 179.570313 237.542969 L 174.761719 240.109375 Z M 176.710938 168.503906 L 175.429688 168.644531 L 174.777344 168 Z M 163.996094 165.46875 L 163.082031 165.625 L 163.695313 162.246094 L 164.042969 162.292969 L 165.242188 161.992188 L 166.015625 161.605469 L 166.75 160.257813 L 167.097656 160.226563 L 167.523438 160.714844 L 167.507813 160.828125 L 166.417969 162.609375 Z M 117.492188 260.4375 L 117.941406 257.816406 L 117.863281 257.347656 L 117.992188 256.269531 L 118.820313 254.035156 L 121.214844 254.1875 L 123.660156 253.472656 L 123.367188 254.191406 L 121.664063 261.820313 L 119.90625 261.550781 L 117.34375 261.6875 Z M 131.925781 247.214844 L 132.785156 246.183594 L 134.492188 248.355469 L 135.339844 249.023438 L 135.222656 250.96875 L 134.8125 251.347656 L 132.589844 248.835938 Z M 132.832031 257.875 L 132.660156 258.8125 L 132.785156 261.691406 L 130.3125 262.972656 L 129.484375 263.691406 L 129.152344 263.667969 L 126.582031 261.613281 L 125.375 256.128906 L 125.988281 253.21875 L 128.179688 251.246094 L 129.539063 251.441406 L 131.390625 253.015625 Z M 96.820313 212.742188 L 97.890625 211.292969 L 100.410156 209.222656 L 101.355469 207.964844 L 102.617188 207.75 L 102.652344 208.195313 L 101.386719 210.445313 L 99.980469 211.648438 L 99.179688 211.804688 L 96.867188 212.863281 Z M 88.429688 500.046875 L 88.566406 499.308594 L 88.941406 499.117188 L 89.34375 499.789063 Z M 88.429688 500.046875 "/>
<path style=" stroke:none;fill-rule:nonzero;fill:rgb(80.392157%,58.431373%,4.705882%);fill-opacity:1;" d="M 208.382813 401.261719 L 208.101563 403.058594 L 207.273438 404.679688 L 205.988281 405.964844 L 204.367188 406.792969 L 202.570313 407.078125 L 200.773438 406.792969 L 199.152344 405.964844 L 197.863281 404.679688 L 197.039063 403.058594 L 196.753906 401.261719 L 197.039063 399.464844 L 197.863281 397.84375 L 199.152344 396.558594 L 200.773438 395.730469 L 202.570313 395.445313 L 204.367188 395.730469 L 205.988281 396.558594 L 207.273438 397.84375 L 208.101563 399.464844 Z M 208.382813 401.261719 "/>
<path style=" stroke:none;fill-rule:nonzero;fill:rgb(80.392157%,58.431373%,4.705882%);fill-opacity:1;" d="M 227.769531 424.523438 L 227.484375 426.320313 L 226.660156 427.941406 L 225.371094 429.226563 L 223.75 430.054688 L 221.953125 430.339844 L 220.15625 430.054688 L 218.535156 429.226563 L 217.25 427.941406 L 216.421875 426.320313 L 216.136719 424.523438 L 216.421875 422.726563 L 217.25 421.105469 L 218.535156 419.816406 L 220.15625 418.992188 L 221.953125 418.707031 L 223.75 418.992188 L 225.371094 419.816406 L 226.660156 421.105469 L 227.484375 422.726563 Z M 227.769531 424.523438 "/>
<path style=" stroke:none;fill-rule:nonzero;fill:rgb(80.392157%,58.431373%,4.705882%);fill-opacity:1;" d="M 181.246094 219.046875 L 180.960938 220.84375 L 180.136719 222.464844 L 178.847656 223.75 L 177.226563 224.578125 L 175.429688 224.863281 L 173.632813 224.578125 L 172.011719 223.75 L 170.726563 222.464844 L 169.898438 220.84375 L 169.617188 219.046875 L 169.898438 217.25 L 170.726563 215.628906 L 172.011719 214.339844 L 173.632813 213.515625 L 175.429688 213.230469 L 177.226563 213.515625 L 178.847656 214.339844 L 180.136719 215.628906 L 180.960938 217.25 Z M 181.246094 219.046875 "/>
<path style=" stroke:none;fill-rule:nonzero;fill:rgb(80.392157%,58.431373%,4.705882%);fill-opacity:1;" d="M 161.863281 250.0625 L 161.578125 251.859375 L 160.75 253.480469 L 159.464844 254.765625 L 157.84375 255.59375 L 156.046875 255.875 L 154.25 255.59375 L 152.628906 254.765625 L 151.339844 253.480469 L 150.515625 251.859375 L 150.230469 250.0625 L 150.515625 248.265625 L 151.339844 246.644531 L 152.628906 245.355469 L 154.25 244.53125 L 156.046875 244.246094 L 157.84375 244.53125 L 159.464844 245.355469 L 160.75 246.644531 L 161.578125 248.265625 Z M 161.863281 250.0625 "/>
<path style=" stroke:none;fill-rule:nonzero;fill:rgb(80.392157%,58.431373%,4.705882%);fill-opacity:1;" d="M 239.398438 304.339844 L 239.117188 306.136719 L 238.289063 307.757813 L 237.003906 309.042969 L 235.382813 309.871094 L 233.585938 310.152344 L 231.789063 309.871094 L 230.167969 309.042969 L 228.878906 307.757813 L 228.054688 306.136719 L 227.769531 304.339844 L 228.054688 302.542969 L 228.878906 300.921875 L 230.339844 299.546875 L 239.304688 303.726563 Z M 239.398438 304.339844 "/>
<path style=" stroke:none;fill-rule:nonzero;fill:rgb(80.392157%,58.431373%,4.705882%);fill-opacity:1;" d="M 161.828125 172.734375 L 161.578125 174.320313 L 160.75 175.941406 L 159.464844 177.226563 L 157.84375 178.054688 L 156.046875 178.339844 L 154.25 178.054688 L 152.628906 177.226563 L 151.339844 175.941406 L 150.515625 174.320313 L 150.230469 172.523438 L 150.515625 170.726563 L 151.339844 169.105469 L 152.628906 167.816406 L 154.25 166.992188 L 156.046875 166.707031 L 157.335938 166.910156 L 155.320313 167.769531 L 152.441406 170.8125 L 151.949219 171.945313 L 152.140625 172.144531 L 156.390625 168.453125 L 157.75 167.980469 L 159.917969 168.273438 L 160.933594 169.460938 L 157.109375 173.804688 L 156.367188 175.339844 L 156.707031 175.816406 L 157.367188 175.984375 L 158.261719 175.542969 L 161.140625 173.015625 Z M 161.828125 172.734375 "/>
<path style=" stroke:none;fill-rule:nonzero;fill:rgb(80.392157%,58.431373%,4.705882%);fill-opacity:1;" d="M 162.445313 158.738281 L 160.382813 157.84375 L 159.09375 156.558594 L 158.269531 154.933594 L 157.984375 153.136719 L 158.269531 151.339844 L 159.09375 149.71875 L 160.382813 148.433594 L 162.003906 147.609375 L 163.800781 147.324219 L 165.597656 147.609375 L 167.21875 148.433594 L 168.503906 149.71875 L 169.125 150.9375 L 162.601563 156.074219 L 162.234375 157.082031 L 162.671875 158.175781 Z M 162.445313 158.738281 "/>
<path style=" stroke:none;fill-rule:nonzero;fill:rgb(80.392157%,58.431373%,4.705882%);fill-opacity:1;" d="M 138.601563 157.015625 L 138.316406 158.8125 L 137.488281 160.433594 L 136.203125 161.71875 L 134.582031 162.546875 L 132.785156 162.832031 L 130.988281 162.546875 L 129.367188 161.71875 L 128.078125 160.433594 L 127.253906 158.8125 L 126.96875 157.015625 L 128.898438 158.675781 L 129.609375 156.898438 L 131.765625 156.140625 L 134.503906 157.136719 L 136.507813 158.589844 L 137.039063 159.417969 L 137.175781 158.679688 L 135.242188 155.121094 L 133.609375 154.054688 L 130.878906 151.539063 L 132.785156 151.199219 L 134.582031 151.484375 L 136.203125 152.3125 L 137.488281 153.597656 L 138.316406 155.21875 Z M 138.601563 157.015625 "/>
<path style=" stroke:none;fill-rule:nonzero;fill:rgb(80.392157%,58.431373%,4.705882%);fill-opacity:1;" d="M 107.585938 137.628906 L 107.300781 139.429688 L 106.472656 141.050781 L 105.1875 142.335938 L 103.566406 143.160156 L 101.769531 143.445313 L 99.972656 143.160156 L 98.53125 142.429688 L 98.964844 142.257813 L 100.179688 142.804688 L 100.34375 142.296875 L 99.09375 139.5 L 98.9375 138.609375 L 99.460938 137.6875 L 102.429688 135.863281 L 102.902344 135.917969 L 103 136.214844 L 105.253906 135.441406 L 106.5625 134.386719 L 107.300781 135.832031 Z M 97.832031 141.816406 L 97.417969 141.402344 L 97.21875 139.679688 L 98.019531 139.84375 L 99.277344 141.320313 L 99.230469 141.953125 Z M 97.832031 141.816406 "/>
<path style=" stroke:none;fill-rule:nonzero;fill:rgb(80.392157%,58.431373%,4.705882%);fill-opacity:1;" d="M 138.601563 145.382813 L 138.316406 147.183594 L 137.488281 148.804688 L 136.203125 150.089844 L 134.582031 150.914063 L 132.785156 151.199219 L 130.988281 150.914063 L 130.140625 150.484375 L 129.429688 149.296875 L 129.746094 148.554688 L 130.132813 148.371094 L 132.507813 149.96875 L 133.015625 149.894531 L 133.449219 149.351563 L 133.714844 146.386719 L 133.191406 146.265625 L 131.136719 142.199219 L 131.269531 141.472656 L 135.539063 142.054688 L 137.308594 141.785156 L 138.316406 143.585938 Z M 138.601563 145.382813 "/>
<path style=" stroke:none;fill-rule:nonzero;fill:rgb(80.392157%,58.431373%,4.705882%);fill-opacity:1;" d="M 112.554688 143.3125 L 111.601563 143.160156 L 109.980469 142.335938 L 108.695313 141.050781 L 107.871094 139.429688 L 107.585938 137.628906 L 107.871094 135.832031 L 108.695313 134.210938 L 109.980469 132.925781 L 111.601563 132.101563 L 113.398438 131.816406 L 114.117188 133.539063 L 112.328125 137.878906 L 110.105469 140.078125 L 109.925781 141.289063 L 111.058594 141.910156 L 112.367188 141.523438 L 113.644531 140.4375 L 114.097656 140.800781 L 113.746094 142.269531 Z M 112.554688 143.3125 "/>
<path style=" stroke:none;fill-rule:nonzero;fill:rgb(80.392157%,58.431373%,4.705882%);fill-opacity:1;" d="M 98.960938 138.566406 L 99.546875 139.710938 L 99.742188 140.949219 Z M 99.664063 142.570313 L 98.71875 144.925781 L 97.433594 146.210938 L 95.8125 147.039063 L 94.015625 147.324219 L 92.082031 146.96875 L 91.417969 144.347656 L 93.265625 140.78125 L 93.941406 140.0625 L 96.675781 141.359375 L 95.960938 142.378906 L 97.386719 146.128906 L 97.359375 142.890625 L 98.964844 142.257813 Z M 98.214844 141.941406 L 97.453125 141.691406 L 97.21875 139.679688 L 98.019531 139.84375 L 99.277344 141.320313 L 99.230469 141.953125 Z M 98.214844 141.941406 "/>
<path style=" stroke:none;fill-rule:nonzero;fill:rgb(80.392157%,58.431373%,4.705882%);fill-opacity:1;" d="M 80.15625 167.210938 L 82.382813 166.707031 L 84.183594 166.992188 L 85.804688 167.816406 L 87.089844 169.105469 L 88.003906 171.289063 L 84.875 171.125 L 84.914063 169.441406 L 82.996094 168.253906 L 81.464844 168.371094 Z M 85.394531 175.835938 L 84.546875 175.601563 L 83.046875 174.507813 L 82.722656 173.699219 L 82.824219 172.589844 L 83.972656 171.789063 L 86.566406 172.507813 L 87.433594 173.25 L 87.285156 175.226563 Z M 85.78125 177.238281 L 84.183594 178.054688 L 81.917969 178.265625 L 82.046875 176.234375 L 83.4375 175.515625 L 85.28125 176.539063 Z M 85.78125 177.238281 "/>
<path style=" stroke:none;fill-rule:nonzero;fill:rgb(80.392157%,58.431373%,4.705882%);fill-opacity:1;" d="M 94.113281 156.746094 L 94.84375 157.472656 L 95.667969 159.09375 L 95.914063 160.648438 L 93.527344 162.226563 L 90.550781 158.175781 L 90.507813 157.148438 L 91.820313 157.980469 Z M 90.976563 166.574219 L 88.339844 166.421875 L 86.71875 165.597656 L 85.796875 164.671875 L 86.457031 164.699219 L 87.222656 163.867188 L 88.554688 163.523438 L 91.023438 165.660156 L 91.214844 166.0625 Z M 88.238281 162.863281 L 87.917969 162.585938 L 88.445313 161.890625 L 89.367188 161.550781 L 89.65625 162.238281 Z M 88.238281 162.863281 "/>
<path style=" stroke:none;fill-rule:nonzero;fill:rgb(80.392157%,58.431373%,4.705882%);fill-opacity:1;" d="M 81.664063 182.328125 L 84.183594 182.5 L 85.089844 182.960938 L 85.140625 186.4375 L 86.054688 188.15625 L 85.625 188.976563 L 84.328125 188.382813 L 82.6875 188.554688 L 82.128906 188.101563 L 81.515625 184.671875 Z M 81.769531 193.75 L 80.585938 193.5625 L 78.71875 192.484375 L 80.441406 190.269531 L 81.117188 190.9375 Z M 81.769531 193.75 "/>
<path style=" stroke:none;fill-rule:nonzero;fill:rgb(80.392157%,58.431373%,4.705882%);fill-opacity:1;" d="M 95.953125 149.261719 L 95.667969 151.058594 L 94.929688 152.511719 L 94.117188 152.148438 L 92.941406 152.324219 L 92.058594 151.863281 L 91.273438 150.875 L 92.699219 149.40625 L 91.417969 144.347656 L 91.753906 143.703125 L 93.558594 144.558594 L 94.84375 145.84375 L 95.667969 147.464844 Z M 93.617188 153.90625 L 91.878906 154.800781 L 92.882813 153.957031 Z M 93.617188 153.90625 "/>
<path style=" stroke:none;fill-rule:nonzero;fill:rgb(80.392157%,58.431373%,4.705882%);fill-opacity:1;" d="M 289.957031 421.644531 L 289.800781 420.644531 L 290.085938 418.847656 L 290.910156 417.226563 L 292.195313 415.941406 L 293.816406 415.117188 L 294.757813 414.964844 L 295.890625 416.628906 L 296.3125 416.765625 L 296.164063 417.742188 L 294.574219 419.804688 L 292.191406 421.289063 Z M 289.957031 421.644531 "/>
<path style=" stroke:none;fill-rule:nonzero;fill:rgb(80.392157%,58.431373%,4.705882%);fill-opacity:1;" d="M 115.132813 204.847656 L 114.226563 206.957031 L 112.941406 208.242188 L 111.777344 208.835938 L 108.898438 208.554688 L 108.144531 207.871094 L 107.96875 206.789063 L 109.109375 205.527344 L 114.792969 204.496094 Z M 109.988281 197.796875 L 111.320313 198.007813 L 111.5 198.265625 L 111.128906 199.855469 L 110.160156 200.433594 L 108.972656 199.578125 L 108.9375 198.890625 Z M 109.988281 197.796875 "/>
<path style=" stroke:none;fill-rule:nonzero;fill:rgb(80.392157%,58.431373%,4.705882%);fill-opacity:1;" d="M 95.953125 157.015625 L 95.667969 158.8125 L 94.84375 160.433594 L 93.265625 161.867188 L 90.550781 158.175781 L 90.507813 157.148438 L 91.820313 157.980469 L 95.769531 155.851563 Z M 91.824219 155.515625 L 91.882813 154.726563 L 92.882813 153.957031 L 93.789063 153.890625 L 93.378906 155.476563 Z M 91.734375 151.453125 L 93.4375 152.25 L 92.941406 152.324219 Z M 88.792969 162.617188 L 88.058594 162.402344 L 88.445313 161.890625 L 89.367188 161.550781 L 89.65625 162.238281 Z M 88.792969 162.617188 "/>
<path style=" stroke:none;fill-rule:nonzero;fill:rgb(80.392157%,58.431373%,4.705882%);fill-opacity:1;" d="M 136.210938 448.453125 L 135.929688 448.140625 L 136.109375 446.949219 L 136.398438 446.875 L 136.6875 448.207031 Z M 136.210938 448.453125 "/>
</g>
</svg>
