<?xml version="1.0" encoding="UTF-8"?>
<svg xmlns="http://www.w3.org/2000/svg" xmlns:xlink="http://www.w3.org/1999/xlink" width="378pt" height="504pt" viewBox="0 0 378 504" version="1.1">
<g id="data">
<rect x="0" y="0" width="378" height="504" style="fill:rgb(100%,100%,100%);fill-opacity:1;stroke:none;"/>
<path style=" stroke:none;fill-rule:nonzero;fill:rgb(100%,100%,100%);fill-opacity:1;" d="M 53.308594 504 L 324.691406 504 L 324.691406 0 L 53.308594 0 Z M 53.308594 504 "/>
<path style=" stroke:none;fill-rule:nonzero;fill:rgb(22.745098%,53.333333%,16.078431%);fill-opacity:1;" d="M 244.457031 418.402344 L 243.835938 420.839844 L 243.753906 423.359375 L 241.140625 422.117188 L 243 420.4375 Z M 214.199219 331.476563 L 217.410156 329.648438 L 219.816406 327.015625 L 221.3125 323.773438 L 221.75 320.105469 L 223.03125 322.742188 L 224.839844 324.890625 L 227.109375 326.539063 L 229.707031 327.601563 L 230.082031 329.722656 L 230.898438 331.851563 L 232.113281 333.78125 L 233.585938 335.355469 L 230.75 334.183594 L 227.832031 333.796875 L 224.789063 334.183594 L 221.953125 335.355469 L 220.382813 333.882813 L 218.453125 332.664063 L 216.445313 331.886719 Z M 228.265625 422.628906 L 230.675781 423.742188 L 229.707031 424.523438 Z M 226 473.277344 L 227.972656 472.339844 L 226.777344 473.78125 Z M 222.296875 305.542969 L 221.691406 308.285156 L 221.953125 312.09375 L 221.289063 314.492188 L 221.144531 316.855469 L 219.199219 313.304688 L 216.457031 310.011719 L 214.199219 308.214844 L 216.472656 308.121094 L 218.5625 307.628906 L 220.527344 306.757813 Z M 163.800781 226.800781 L 166.972656 227.105469 L 170.226563 226.5 L 173.078125 225.070313 L 175.429688 222.921875 L 175.742188 225.601563 L 176.664063 228.132813 L 178.144531 230.386719 L 180.101563 232.242188 L 183.261719 233.890625 L 181.046875 235.800781 L 180.578125 237.003906 L 174.761719 240.109375 L 170.214844 238.117188 L 166.480469 238.003906 L 166.738281 239.222656 L 168.246094 240.195313 L 178.0625 241.875 L 182.921875 243.167969 L 186.398438 241.730469 L 187.519531 239.417969 L 188.617188 238.355469 L 189.539063 238.171875 L 190.644531 238.273438 L 193.660156 240.691406 L 196.085938 241.789063 L 198.679688 242.304688 L 198.726563 242.335938 L 200.570313 244.007813 L 202.769531 245.265625 L 204.917969 245.800781 L 206.472656 246.648438 L 206.601563 248.847656 L 207.3125 251.289063 L 208.53125 253.515625 L 210.304688 255.511719 L 207.175781 254.875 L 203.996094 255.113281 L 200.996094 256.207031 L 198.304688 258.152344 L 196.332031 260.488281 L 195.039063 263.261719 L 194.511719 266.273438 L 194.816406 269.445313 L 193.242188 267.972656 L 191.3125 266.757813 L 189.183594 265.941406 L 187.0625 265.570313 L 186.503906 262.839844 L 185.3125 260.324219 L 181.742188 255.917969 L 179.308594 253.9375 L 178.421875 251.808594 L 177.136719 249.898438 L 174.671875 247.664063 L 171.554688 246.183594 L 168.640625 243.160156 L 165.578125 241.59375 L 162.0625 240.984375 L 158.648438 241.433594 L 155.519531 242.863281 L 156.046875 242.308594 L 158.320313 241.421875 L 160.359375 240.082031 L 161.996094 238.445313 L 163.332031 236.402344 L 164.246094 234 L 164.609375 231.585938 L 164.457031 229.152344 Z M 163.800781 288.832031 L 165.96875 287.125 L 167.675781 284.953125 L 168.742188 286.910156 L 168.226563 288.992188 L 166.234375 288.695313 L 163.3125 290.011719 L 161.832031 291.855469 L 160.882813 292.503906 L 159.921875 292.707031 L 162.09375 291 Z M 172.941406 291.101563 L 175.625 292.328125 L 179.308594 292.707031 L 179.90625 295.554688 L 181.195313 298.167969 L 184.714844 302.453125 L 187.0625 304.339844 L 186.757813 307.511719 L 187.324219 310.644531 L 188.71875 313.507813 L 190.9375 315.96875 L 190.9375 327.601563 L 188.9375 329.746094 L 187.585938 332.203125 L 186.84375 335.039063 L 186.820313 337.847656 L 187.460938 342.257813 L 188.90625 345.515625 L 191.460938 348.339844 L 194.796875 350.191406 L 192.132813 350.5 L 189.496094 351.46875 L 187.265625 352.957031 L 185.433594 354.917969 L 185.085938 355.511719 L 183.8125 354.640625 L 181.09375 348.753906 L 181.503906 348.246094 L 182.960938 344.613281 L 183.339844 341.609375 L 183.265625 340.449219 L 183.371094 340.257813 L 185.429688 339.015625 L 185.140625 338.578125 L 183.3125 338.492188 L 183.851563 335.355469 L 183.648438 333.199219 L 183.023438 330.988281 L 182.605469 330.128906 L 184.695313 329.191406 L 187.28125 323.421875 L 187.71875 320.933594 L 187.855469 317.484375 L 184.742188 320.527344 L 179.199219 323.441406 L 177.335938 322.691406 L 175.5625 319.617188 L 175.128906 317.292969 L 173.699219 314.445313 L 172.53125 313.164063 L 172.289063 311.832031 L 172.035156 311.457031 L 173.566406 309.4375 L 174.714844 306.441406 L 175 303.121094 L 174.367188 299.976563 L 173.457031 297.992188 L 172.109375 296.117188 L 171.039063 295.109375 Z M 184.257813 356.921875 L 184.207031 357.011719 L 183.4375 359.3125 L 182.910156 366.175781 L 183.617188 369.28125 L 185.214844 372.183594 L 188.769531 376.292969 L 190.9375 378 L 193.007813 380.519531 L 194.816406 381.875 L 192.128906 384.132813 L 189.207031 388.296875 L 188.117188 391.714844 L 188.097656 395.171875 L 189.152344 398.601563 L 190.9375 401.261719 L 192.871094 405.003906 L 195.46875 407.460938 L 198.691406 409.015625 L 196.765625 411.058594 L 195.339844 413.617188 L 194.53125 417.089844 L 194.816406 420.644531 L 193.34375 422.21875 L 192.128906 424.148438 L 191.3125 426.277344 L 190.9375 428.398438 L 188.253906 430.65625 L 186.65625 432.527344 L 185.628906 432.957031 L 183.714844 433.246094 L 182.441406 433.0625 L 178.394531 435.230469 L 177.398438 436.808594 L 177.039063 438.671875 L 176.445313 439.273438 L 174.058594 439.917969 L 170.558594 439.851563 L 166.820313 439 L 166.347656 438.652344 L 161.371094 433.375 L 159.03125 429.199219 L 155.65625 429.589844 L 149.269531 432.308594 L 149.113281 432.746094 L 148.566406 432.425781 L 146.988281 429.875 L 146.917969 429.308594 L 148.5 428.398438 L 148.605469 428.398438 L 150.066406 428.890625 L 151.640625 428.421875 L 151.679688 428.398438 L 152.167969 428.398438 L 154.269531 428.929688 L 156.429688 429.058594 L 161.972656 428.21875 L 165.363281 427.050781 L 168.328125 424.808594 L 170.644531 421.28125 L 171.324219 419.070313 L 171.554688 416.769531 L 173.449219 413.875 L 174.414063 410.554688 L 174.480469 408.117188 L 174 405.59375 L 172.980469 403.238281 L 171.554688 401.261719 L 173.855469 401.164063 L 176.210938 400.570313 L 178.285156 399.570313 L 180.214844 398.089844 L 181.792969 396.242188 L 182.90625 394.222656 L 183.597656 392.035156 L 183.851563 389.628906 L 183.625 387.351563 L 182.410156 382.429688 L 181.082031 379.980469 L 179.308594 378 L 180.609375 376.253906 L 181.605469 374.171875 L 182.152344 372.066406 L 182.292969 369.765625 L 182.003906 367.605469 L 181.320313 365.539063 L 180.261719 363.632813 L 178.773438 361.871094 L 175.625 359.691406 L 171.554688 358.617188 L 169.03125 356.898438 L 171.015625 355.941406 L 173.25 355.613281 L 174.355469 355.074219 L 174.484375 355.082031 L 179.910156 359.441406 L 180.433594 358.429688 L 177.679688 353.460938 L 178.242188 352.835938 L 180.867188 352.449219 L 181.503906 352.695313 L 181.914063 353.875 L 182.898438 354.332031 L 184.078125 356.789063 Z M 183.007813 439.777344 L 182.921875 440.097656 L 183.183594 443.90625 L 181.167969 444.199219 L 181.210938 443.15625 L 182.519531 440.25 Z M 174.117188 448.34375 L 172.566406 450.792969 L 171.808594 453.113281 L 171.554688 455.539063 L 170.320313 458.625 L 169.996094 461.417969 L 170.605469 465.070313 L 172.757813 469.527344 L 170.46875 472.433594 L 168.992188 473.234375 L 168.214844 474.070313 L 167.203125 476.179688 L 165.199219 482.039063 L 164.671875 482.992188 L 164.15625 485.097656 L 163.695313 486.449219 L 162.074219 484.871094 L 160.15625 483.636719 L 157.910156 482.769531 L 155.53125 482.382813 L 157.597656 481.679688 L 159.492188 480.605469 L 161.15625 479.195313 L 162.53125 477.5 L 163.5625 475.578125 L 164.214844 473.5 L 164.472656 471.203125 L 164.292969 469.03125 L 162.824219 465.082031 L 160.054688 461.914063 L 156.34375 459.941406 L 152.167969 459.414063 L 152.472656 456.242188 L 151.867188 452.988281 L 150.441406 450.140625 L 148.292969 447.785156 L 148.582031 447.375 L 151.105469 446.613281 L 157.421875 446.269531 L 159.910156 445.683594 L 164.597656 446.761719 L 166.046875 446.148438 L 167.527344 446.515625 L 169.484375 447.285156 L 170.039063 448.109375 L 170.757813 448.421875 L 173.15625 448.464844 Z M 154.21875 358.617188 L 152.167969 358.617188 L 149.042969 355.980469 L 150.898438 355.242188 L 151.039063 355.578125 L 155.546875 356.503906 Z M 191.015625 113.949219 L 190.9375 114.371094 L 189.398438 116.070313 L 186.777344 113.90625 L 184.832031 114.03125 L 181.886719 115.097656 L 179.308594 113.253906 L 179.308594 106.617188 L 182.253906 105.011719 L 184.519531 106.003906 L 186.230469 108.273438 L 187.324219 111.371094 L 189.425781 112.382813 L 190.734375 113.441406 Z M 188.074219 118.3125 L 187.933594 118.5625 L 187.0625 122.125 L 186.742188 122.371094 L 186.4375 122.070313 L 185.203125 119.125 L 185.941406 118.488281 Z M 179.308594 120.75 L 179.308594 114.898438 L 181.269531 116.636719 L 182.96875 119.6875 L 182.941406 120.441406 L 180.816406 120.886719 Z M 186.195313 99.75 L 186.679688 98.667969 L 186.777344 97.710938 L 188.613281 98.375 L 189.644531 99.757813 L 189.558594 100.558594 L 189.007813 101.453125 L 189.121094 100.265625 L 187.730469 99.058594 L 186.953125 98.894531 L 186.835938 99.515625 L 186.335938 100.011719 Z M 194.816406 99.613281 L 194.816406 101.175781 L 194.695313 101.191406 L 193.226563 103.421875 L 193.136719 102.113281 Z M 163.800781 164.769531 L 164.238281 165.179688 L 163.539063 166.003906 Z M 172.144531 169.398438 L 173.261719 170.816406 L 175.429688 172.523438 L 173.210938 174.984375 L 171.816406 177.847656 L 171.25 180.980469 L 171.554688 184.152344 L 170.644531 182.179688 L 169.296875 180.308594 L 167.710938 178.820313 L 165.757813 177.597656 L 161.96875 176.464844 L 156.046875 176.398438 L 156.757813 175.828125 L 157.367188 175.984375 L 158.261719 175.542969 L 161.140625 173.015625 L 167.808594 170.273438 L 170.480469 169.527344 L 170.492188 169.949219 L 171.554688 169.839844 Z M 148.292969 246.183594 L 151.105469 245.597656 L 153.6875 244.339844 L 152.167969 246.183594 L 150.003906 247.207031 L 148.183594 248.566406 Z M 141.507813 320.464844 L 142.980469 318.378906 L 143.964844 316.019531 L 144.871094 310.152344 L 145.863281 309.40625 L 148.292969 308.539063 L 148.292969 312.09375 L 146.820313 313.664063 L 145.605469 315.59375 L 144.789063 317.722656 L 144.414063 319.847656 Z M 142.628906 256.785156 L 144.523438 255.445313 L 144.253906 259.566406 L 144.414063 261.691406 L 144.351563 261.636719 L 144.195313 260.621094 Z M 125.476563 474.921875 L 128.90625 474.921875 L 130.015625 477.226563 L 131.6875 479.320313 L 133.6875 480.910156 L 135.984375 482.023438 L 133.824219 482.351563 L 131.644531 483.132813 L 129.769531 484.253906 L 128.046875 485.800781 L 126.667969 487.65625 L 125.679688 489.75 L 125.59375 490.101563 L 124.039063 490.597656 L 123.132813 494.289063 L 123.664063 495.292969 L 123.640625 495.398438 L 122.859375 496.015625 L 121.910156 497.222656 L 120.660156 497.648438 L 120.394531 498.183594 L 118.253906 498.183594 L 117.96875 497.691406 L 118.09375 496.4375 L 117.15625 494.691406 L 115.984375 493.691406 L 113.378906 492.5625 L 112.207031 491.632813 L 109.523438 490.429688 L 109.523438 489.050781 L 111.738281 488.078125 L 112.199219 488.253906 L 112.445313 488.9375 L 113.574219 489.15625 L 118.144531 485.910156 L 121.425781 483.085938 L 124.375 479.769531 L 125.210938 477.886719 L 124.875 476.421875 Z M 125.039063 416.789063 L 127.097656 420.394531 L 130.1875 422.984375 L 127.578125 423.433594 L 125.359375 424.382813 L 125.058594 424.355469 L 125.695313 420.65625 Z M 125.039063 416.789063 "/>
</g>
</svg>
