<?xml version="1.0" encoding="UTF-8"?>
<svg xmlns="http://www.w3.org/2000/svg" xmlns:xlink="http://www.w3.org/1999/xlink" width="378pt" height="504pt" viewBox="0 0 378 504" version="1.1">
<g id="data">
<rect x="0" y="0" width="378" height="504" style="fill:rgb(100%,100%,100%);fill-opacity:1;stroke:none;"/>
<path style=" stroke:none;fill-rule:nonzero;fill:rgb(100%,100%,100%);fill-opacity:1;" d="M 53.308594 504 L 324.691406 504 L 324.691406 0 L 53.308594 0 Z M 53.308594 504 "/>
<path style=" stroke:none;fill-rule:nonzero;fill:rgb(22.745098%,53.333333%,16.078431%);fill-opacity:1;" d="M 245.214844 416.769531 L 247.386719 415.0625 L 249.09375 412.890625 L 251.699219 412.375 L 254.121094 411.277344 L 256.847656 409.015625 L 260.484375 407.160156 L 262.898438 404.695313 L 264.601563 401.261719 L 266.074219 399.6875 L 267.289063 397.757813 L 268.070313 395.75 L 268.476563 393.507813 L 271.488281 390.730469 L 273.347656 387.082031 L 273.78125 384.945313 L 273.808594 382.761719 L 273.320313 380.238281 L 272.355469 378 L 272.355469 374.648438 L 272.554688 374.125 L 276.230469 374.125 L 276.070313 376.25 L 276.316406 378.757813 L 277.417969 382.25 L 278.558594 384.082031 L 281.382813 387.46875 L 283.984375 389.628906 L 284 398.921875 L 284.964844 402.757813 L 286.101563 404.757813 L 287.703125 406.585938 L 289.542969 407.972656 L 291.738281 409.015625 L 291.738281 416.769531 L 290.734375 414.265625 L 289.175781 412.0625 L 287.15625 410.277344 L 284.777344 409.003906 L 282.425781 408.355469 L 279.988281 408.207031 L 273.503906 409.574219 L 270.769531 410.902344 L 268.476563 412.890625 L 265.867188 413.410156 L 263.554688 414.445313 L 260.386719 417.15625 L 258.816406 419.648438 L 257.949219 422.324219 L 257.746094 425.132813 L 258.261719 428.03125 L 259.105469 430.039063 L 260.304688 431.855469 L 261.824219 433.414063 L 263.609375 434.664063 L 267.457031 436.03125 L 270.101563 436.3125 L 272.355469 436.152344 L 275.296875 438.542969 L 277.621094 439.550781 L 280.109375 440.03125 L 282.675781 442.320313 L 285.796875 443.757813 L 289.332031 444.21875 L 293.859375 443.535156 L 296.878906 442.226563 L 299.492188 440.03125 L 299.492188 447.785156 L 293.613281 447.621094 L 289.691406 447.847656 L 287.199219 448.433594 L 284.898438 449.546875 L 282.035156 452.085938 L 280.109375 455.539063 L 277.808594 455.769531 L 275.480469 456.5 L 273.355469 457.699219 L 271.613281 459.222656 L 270.277344 460.949219 L 269.289063 462.898438 L 268.683594 464.996094 L 268.53125 466.578125 L 267.261719 466.195313 L 265.421875 464.71875 L 261.855469 463.441406 L 259.097656 463.132813 L 256.847656 463.292969 L 253.097656 462.628906 L 249.09375 463.292969 L 245.214844 463.292969 L 241.878906 462 L 238.183594 461.796875 L 235.804688 462.304688 L 233.753906 463.21875 L 231.496094 463.171875 L 231.378906 463.496094 L 231.394531 463.519531 L 229.902344 463.671875 L 227.183594 464.789063 L 225.996094 465.785156 L 219.566406 468.449219 L 217.054688 467.824219 L 215.191406 468.136719 L 215.097656 468.121094 L 212.535156 468.203125 L 209.988281 468.957031 L 208.164063 468.875 L 207.273438 468.058594 L 206.238281 469.769531 L 207.558594 470.316406 L 206.445313 471.046875 L 204.324219 471.421875 L 202.308594 472.179688 L 201.730469 472.535156 L 197.625 472.007813 L 196.941406 472.3125 L 197.503906 471.421875 L 198.285156 469.414063 L 198.691406 467.167969 L 200.863281 465.460938 L 202.570313 463.292969 L 204.546875 462.382813 L 206.316406 461.117188 L 208.421875 458.71875 L 209.941406 455.34375 L 210.324219 451.660156 L 212.367188 450.890625 L 214.335938 449.675781 L 215.9375 448.191406 L 217.234375 446.429688 L 218.34375 443.972656 L 218.863281 441.328125 L 218.753906 438.632813 L 218.078125 436.152344 L 220.609375 436.46875 L 223.023438 436.246094 L 225.339844 435.53125 L 227.5625 434.277344 L 231.789063 430.660156 L 233.585938 428.398438 L 236.101563 426.328125 L 237.460938 424.523438 L 240.039063 423.386719 L 242.265625 421.664063 L 244.011719 419.453125 Z M 223.316406 468.636719 L 222.023438 470.925781 L 221.824219 470.953125 L 220.941406 470.316406 L 221.476563 469.683594 Z M 195.90625 474.921875 L 195.351563 474.921875 L 195.160156 474.558594 L 195.695313 473.980469 L 195.832031 474.871094 Z M 245.214844 312.09375 L 246.921875 314.261719 L 249.09375 315.96875 L 249.09375 319.847656 L 248.425781 323.722656 L 249.09375 327.601563 L 247.519531 326.128906 L 245.589844 324.914063 L 243.460938 324.097656 L 241.339844 323.722656 L 239.453125 321.375 L 236.089844 318.65625 L 238.375 317.898438 L 240.347656 316.761719 L 243.328125 314.4375 Z M 226.121094 316.789063 L 225.832031 315.96875 L 226.671875 316.65625 Z M 203.214844 409.675781 L 204.160156 411.703125 L 205.476563 413.511719 L 202.570313 412.890625 Z M 186.917969 240.660156 L 187.824219 240.425781 L 190.9375 238.429688 L 189.585938 240.261719 L 188.617188 242.320313 L 185.816406 241.972656 L 186.398438 241.730469 Z M 179.539063 242.269531 L 179.308594 242.308594 L 179.199219 242.179688 Z M 179.539063 242.269531 "/>
</g>
</svg>
