<?xml version="1.0" encoding="UTF-8"?>
<svg xmlns="http://www.w3.org/2000/svg" xmlns:xlink="http://www.w3.org/1999/xlink" width="378pt" height="504pt" viewBox="0 0 378 504" version="1.1">
<g id="data">
<rect x="0" y="0" width="378" height="504" style="fill:rgb(100%,100%,100%);fill-opacity:1;stroke:none;"/>
<path style=" stroke:none;fill-rule:nonzero;fill:rgb(100%,100%,100%);fill-opacity:1;" d="M 53.308594 504 L 324.691406 504 L 324.691406 0 L 53.308594 0 Z M 53.308594 504 "/>
<path style=" stroke:none;fill-rule:nonzero;fill:rgb(22.745098%,53.333333%,16.078431%);fill-opacity:1;" d="M 162.382813 236.027344 L 163.273438 234.628906 L 164.527344 233.542969 L 166.035156 232.851563 L 167.675781 232.617188 L 171.554688 232.617188 L 172.664063 232.722656 L 175.257813 233.226563 L 176.734375 233.113281 L 180.945313 231.992188 L 181.804688 231.484375 L 183.132813 230.265625 L 184.710938 229.234375 L 186.539063 228.761719 L 188.421875 228.898438 L 190.160156 229.632813 L 191.574219 230.886719 L 192.125 231.5625 L 192.117188 231.570313 L 189.460938 232.730469 L 188.34375 232.882813 L 187.070313 232.078125 L 185.40625 232.042969 L 181.046875 235.800781 L 180.578125 237.003906 L 174.761719 240.109375 L 170.214844 238.117188 L 166.480469 238.003906 L 166.738281 239.222656 L 168.246094 240.195313 L 178.0625 241.875 L 182.921875 243.167969 L 186.398438 241.730469 L 187.519531 239.417969 L 188.617188 238.355469 L 189.539063 238.171875 L 193.183594 238.5 L 199.339844 242.761719 L 206.488281 246.65625 L 208.910156 251.429688 L 208.917969 251.441406 L 207.246094 251.945313 L 204.875 252.273438 L 203.421875 252.914063 L 202.199219 253.925781 L 201.230469 255.328125 L 200.898438 256.207031 L 200.578125 258.585938 L 200.152344 260.121094 L 199.351563 261.980469 L 199.144531 263.105469 L 199.285156 264.917969 L 200.226563 267.316406 L 200.613281 269.011719 L 200.484375 270.742188 L 199.847656 272.359375 L 198.761719 273.714844 L 197.328125 274.691406 L 195.664063 275.199219 L 193.929688 275.195313 L 192.269531 274.675781 L 190.839844 273.691406 L 189.671875 272.597656 L 188.699219 271.984375 L 187.625 271.574219 L 186.050781 271.296875 L 184.484375 270.78125 L 183.125 269.847656 L 182.082031 268.570313 L 181.4375 267.050781 L 181.25 265.414063 L 181.402344 259.695313 L 181.152344 256.253906 L 180.628906 254.632813 L 179.828125 253.417969 L 178.496094 252.277344 L 176.945313 251.605469 L 175.164063 251.40625 L 172.664063 251.894531 L 170.6875 251.933594 L 168.808594 251.3125 L 167.25 250.09375 L 165.480469 248.148438 L 163.210938 246.820313 L 161.882813 245.757813 L 160.921875 244.355469 L 160.40625 242.734375 L 160.382813 241.035156 L 160.851563 239.398438 Z M 184.953125 131.53125 L 184.910156 131.554688 L 183.183594 131.816406 L 181.457031 131.554688 L 179.886719 130.789063 L 178.613281 129.59375 L 177.71875 128.457031 L 178 127.714844 L 177.503906 127.214844 L 177.972656 125.796875 L 185.5625 126.683594 Z M 186.289063 374.503906 L 187.554688 373.269531 L 189.132813 372.472656 L 190.875 372.183594 L 192.625 372.433594 L 194.21875 373.199219 L 195.507813 374.40625 L 196.785156 376.027344 L 198.410156 377.304688 L 199.578125 378.539063 L 200.339844 380.058594 L 200.628906 381.734375 L 200.421875 383.421875 L 199.734375 384.976563 L 198.628906 386.269531 L 196.183594 388.390625 L 194.773438 390.304688 L 193.972656 391.875 L 192.957031 393.28125 L 191.574219 394.328125 L 189.941406 394.921875 L 188.210938 395.007813 L 186.527344 394.578125 L 185.046875 393.667969 L 183.191406 392.105469 L 180.851563 391.082031 L 179.40625 390.175781 L 178.285156 388.886719 L 177.585938 387.328125 L 177.371094 385.636719 L 177.65625 383.953125 L 178.417969 382.421875 L 179.589844 381.183594 L 181.214844 379.90625 L 182.492188 378.28125 L 183.367188 377.382813 L 185.351563 375.757813 Z M 174.144531 317.164063 L 176.378906 314.554688 L 176.945313 313.648438 L 177.554688 311.597656 L 177.378906 308.550781 L 177.550781 306.765625 L 178.261719 305.121094 L 179.4375 303.769531 L 180.964844 302.839844 L 182.707031 302.417969 L 184.496094 302.550781 L 186.15625 303.21875 L 187.535156 304.359375 L 188.503906 305.867188 L 189.355469 307.792969 L 190.210938 308.898438 L 191.292969 309.753906 L 193.316406 310.664063 L 194.722656 311.554688 L 195.820313 312.808594 L 196.515625 314.320313 L 196.753906 315.96875 L 196.753906 327.601563 L 196.3125 329.820313 L 195.058594 331.703125 L 193.910156 332.855469 L 193.304688 333.75 L 192.875 334.742188 L 192.671875 335.636719 L 192.875 346.878906 L 192.636719 348.644531 L 191.871094 350.253906 L 190.65625 351.554688 L 189.03125 352.832031 L 187.753906 354.457031 L 186.4375 355.683594 L 185.789063 355.988281 L 183.8125 354.640625 L 179.976563 346.332031 L 183.371094 340.257813 L 185.429688 339.015625 L 185.140625 338.578125 L 182.683594 338.460938 L 181.554688 337.164063 L 181.355469 336.117188 L 181.601563 331.078125 L 181.949219 330.421875 L 184.695313 329.191406 L 187.28125 323.421875 L 187.71875 320.933594 L 187.855469 317.484375 L 184.742188 320.527344 L 179.199219 323.441406 L 177.335938 322.691406 Z M 183.964844 356.554688 L 183.019531 356.675781 L 182.363281 356.65625 L 180.691406 356.363281 L 179.179688 355.597656 L 178.519531 354.972656 L 177.679688 353.460938 L 178.242188 352.835938 L 180.867188 352.449219 L 181.503906 352.695313 L 181.914063 353.875 L 182.898438 354.332031 Z M 156.046875 182.214844 L 154.164063 181.902344 L 152.484375 180.996094 L 151.1875 179.59375 L 150.414063 177.847656 L 150.25 175.945313 L 150.707031 174.09375 L 151.742188 172.488281 L 153.242188 171.304688 L 155.757813 169.917969 L 156.980469 168.585938 L 157.160156 168.183594 L 157.75 167.980469 L 160.300781 168.324219 L 161.058594 169.320313 L 157.109375 173.804688 L 156.367188 175.339844 L 156.707031 175.816406 L 157.367188 175.984375 L 158.261719 175.542969 L 161.140625 173.015625 L 167.808594 170.273438 L 170.480469 169.527344 L 170.492188 169.949219 L 171.554688 169.839844 L 173.589844 168.316406 L 174.046875 166.78125 L 177.160156 166.367188 L 177.402344 166.675781 L 179.027344 167.953125 L 180.265625 169.292969 L 181.03125 170.953125 L 181.242188 172.769531 L 180.878906 174.558594 L 179.976563 176.148438 L 178.628906 177.382813 L 176.960938 178.132813 L 175.144531 178.332031 L 169.144531 178.039063 L 167.933594 178.148438 L 165.9375 178.914063 L 163.699219 180.824219 L 161.933594 181.855469 L 159.921875 182.214844 Z M 157.75 166.734375 L 158.015625 164.171875 L 158.492188 162.394531 L 159.183594 161.335938 L 161.363281 161.917969 L 164.042969 162.292969 L 165.242188 161.992188 L 166.015625 161.605469 L 166.75 160.257813 L 167.304688 160.207031 L 167.5625 160.382813 L 167.507813 160.828125 L 166.417969 162.609375 L 162.722656 166.96875 L 162.175781 167.183594 L 161.726563 166.894531 L 161.859375 165.949219 L 161.53125 165.507813 L 159.984375 165.785156 Z M 160.492188 160.0625 L 160.929688 159.710938 L 162.25 159.21875 L 162.078125 159.632813 Z M 166.15625 438.449219 L 166.496094 436.691406 L 167.417969 435.058594 L 168.816406 433.804688 L 171.242188 432.25 L 172.855469 431.535156 L 174.605469 431.335938 L 176.335938 431.667969 L 177.886719 432.507813 L 179.117188 433.773438 L 179.542969 434.617188 L 178.394531 435.230469 L 177.398438 436.808594 L 177.039063 438.671875 L 176.445313 439.273438 L 174.058594 439.917969 L 170.558594 439.851563 L 166.820313 439 L 166.347656 438.652344 Z M 150.136719 484.386719 L 149.761719 483.101563 L 149.828125 481.242188 L 150.480469 479.5 L 151.648438 478.054688 L 153.210938 477.046875 L 156.027344 475.824219 L 157.539063 474.390625 L 158.152344 473.320313 L 158.554688 471.878906 L 158.585938 470.496094 L 158.125 468.4375 L 158.03125 466.445313 L 158.613281 464.539063 L 159.804688 462.941406 L 161.46875 461.839844 L 163.808594 460.816406 L 165.664063 459.253906 L 167.378906 458.253906 L 169.335938 457.886719 L 171.296875 458.199219 L 173.039063 459.15625 L 174.359375 460.644531 L 176.5 464.113281 L 177.148438 465.578125 L 177.371094 467.167969 L 177.371094 469.628906 L 176.207031 469.78125 L 174.339844 470.335938 L 168.992188 473.234375 L 168.214844 474.070313 L 167.203125 476.179688 L 162.746094 489.226563 L 160.929688 490.242188 L 158.84375 489.835938 L 158.511719 489.503906 L 157.492188 488.84375 L 157.445313 488.824219 L 156.527344 486.851563 L 154.683594 485.4375 L 153.613281 485.542969 L 152.417969 486.300781 L 151.738281 486.164063 Z M 157.628906 293.402344 L 157.113281 292.496094 L 156.757813 290.621094 L 157.027344 288.734375 L 157.894531 287.035156 L 159.121094 285.375 L 160.105469 284.339844 L 162.089844 282.710938 L 163.027344 281.457031 L 164.328125 280.199219 L 165.949219 279.402344 L 167.738281 279.140625 L 169.519531 279.4375 L 171.125 280.269531 L 172.394531 281.554688 L 173.210938 283.167969 L 173.433594 284.578125 L 172.566406 284.292969 L 169.453125 284.03125 L 168.226563 288.992188 L 166.234375 288.695313 L 163.3125 290.011719 L 161.832031 291.855469 L 159.410156 293.515625 Z M 173.1875 290.585938 L 173.152344 290.792969 L 172.773438 291.460938 Z M 146.773438 425.851563 L 147.597656 424.804688 L 148.871094 423.609375 L 150.441406 422.847656 L 152.167969 422.585938 L 153.894531 422.847656 L 155.464844 423.609375 L 156.742188 424.804688 L 158.015625 426.429688 L 159.640625 427.707031 L 160.8125 428.945313 L 161.574219 430.476563 L 161.859375 432.160156 L 161.664063 433.6875 L 161.371094 433.375 L 159.03125 429.199219 L 155.65625 429.589844 L 149.269531 432.308594 L 149.113281 432.746094 L 147.203125 431.632813 L 146.917969 429.308594 L 148.539063 428.378906 L 150.066406 428.890625 L 151.640625 428.421875 L 152.765625 427.832031 L 153.085938 427.097656 L 152.808594 426.597656 L 147.785156 426.460938 Z M 137.527344 252.65625 L 139.136719 252.09375 L 140.667969 251.175781 L 142.269531 250.511719 L 142.996094 250.445313 L 142.660156 249.722656 L 142.429688 247.960938 L 142.480469 246.039063 L 142.796875 244.277344 L 143.640625 242.695313 L 143.667969 242.671875 L 146.15625 243.175781 L 148.300781 243.253906 L 144.582031 241.773438 L 144.921875 241.445313 L 146.523438 240.644531 L 148.292969 240.371094 L 152.167969 240.371094 L 153.9375 240.644531 L 155.535156 241.441406 L 156.816406 242.691406 L 157.660156 244.265625 L 157.984375 246.027344 L 157.753906 247.800781 L 157 249.421875 L 155.789063 250.734375 L 154.234375 251.621094 L 152.640625 252.226563 L 151.296875 253.054688 L 149.65625 253.746094 L 148.921875 253.8125 L 149.191406 254.351563 L 149.480469 256.0625 L 149.515625 258.230469 L 150.035156 260.203125 L 150.21875 262.058594 L 149.804688 263.875 L 148.835938 265.46875 L 147.414063 266.675781 L 145.683594 267.367188 L 143.824219 267.476563 L 142.023438 266.992188 L 140.46875 265.964844 L 140.414063 265.914063 L 140.917969 265.085938 L 143.644531 263.800781 L 144.390625 261.886719 L 144.195313 260.621094 L 142.601563 256.71875 L 139.777344 254.832031 Z M 145.414063 318.484375 L 143.429688 318.480469 L 141.566406 317.808594 L 140.035156 316.554688 L 140.011719 316.515625 L 142.300781 315.023438 L 144.765625 310.230469 L 145.863281 309.40625 L 149.046875 308.269531 L 150.203125 313.453125 L 147.894531 318.058594 Z M 130.414063 472.910156 L 130.671875 473.507813 L 130.832031 475.347656 L 130.40625 477.140625 L 129.523438 479.277344 L 129.335938 480.691406 L 129.53125 482.214844 L 130.40625 484.335938 L 130.832031 486.480469 L 129.414063 488.195313 L 126.714844 489.746094 L 124.039063 490.597656 L 123.132813 494.289063 L 123.664063 495.292969 L 123.496094 496.125 L 122.722656 496.945313 L 120.660156 497.648438 L 119.628906 499.730469 L 118.675781 498.910156 L 117.96875 497.691406 L 118.09375 496.4375 L 117.15625 494.691406 L 115.984375 493.691406 L 112.253906 492.070313 L 111.410156 491.984375 L 110.375 492.488281 L 110.242188 494.183594 L 109.421875 495.128906 L 107.035156 495.621094 L 106.617188 495.46875 L 105.421875 494.46875 L 105.628906 491.574219 L 106.074219 490.5625 L 111.738281 488.078125 L 112.199219 488.253906 L 112.445313 488.9375 L 113.574219 489.15625 L 118.144531 485.910156 L 121.425781 483.085938 L 124.375 479.769531 L 125.210938 477.886719 L 124.875 476.421875 L 125.640625 474.519531 L 128.386719 473.238281 Z M 189.007813 101.453125 L 189.121094 100.265625 L 187.730469 99.058594 L 186.953125 98.894531 L 186.835938 99.515625 L 186.335938 100.011719 L 184.679688 96.953125 L 188.613281 98.375 L 189.644531 99.757813 L 189.558594 100.558594 Z M 193.226563 103.421875 L 193.136719 102.113281 L 195.332031 98.847656 L 196.15625 98.316406 L 199.542969 97.917969 L 199.804688 99.347656 L 197.464844 100.832031 L 194.695313 101.191406 Z M 189.996094 116.5625 L 186.777344 113.90625 L 184.832031 114.03125 L 181.886719 115.097656 L 178.421875 112.621094 L 177.964844 110.527344 L 178.445313 106.398438 L 179.1875 105.574219 L 181.753906 104.792969 L 184.519531 106.003906 L 186.230469 108.273438 L 187.324219 111.371094 L 189.425781 112.382813 L 190.734375 113.441406 L 191.546875 114.902344 Z M 180.816406 120.886719 L 179.261719 120.746094 L 176.429688 116.660156 L 176.75 115.25 L 177.207031 114.695313 L 178.613281 114.28125 L 181.269531 116.636719 L 182.96875 119.6875 L 182.941406 120.441406 Z M 187.335938 122.957031 L 186.4375 122.070313 L 185.203125 119.125 L 185.941406 118.488281 L 188.300781 118.292969 L 188.792969 119.078125 L 187.910156 122.796875 Z M 187.335938 122.957031 "/>
<path style=" stroke:none;fill-rule:nonzero;fill:rgb(80.392157%,58.431373%,4.705882%);fill-opacity:1;" d="M 227.769531 312.09375 L 227.484375 313.890625 L 226.660156 315.511719 L 225.371094 316.796875 L 223.75 317.625 L 221.953125 317.90625 L 220.15625 317.625 L 218.535156 316.796875 L 217.25 315.511719 L 216.421875 313.890625 L 216.136719 312.09375 L 216.421875 310.296875 L 217.25 308.675781 L 218.535156 307.386719 L 220.15625 306.5625 L 221.953125 306.277344 L 223.75 306.5625 L 225.371094 307.386719 L 226.660156 308.675781 L 227.484375 310.296875 Z M 227.769531 312.09375 "/>
<path style=" stroke:none;fill-rule:nonzero;fill:rgb(80.392157%,58.431373%,4.705882%);fill-opacity:1;" d="M 220.015625 331.476563 L 219.730469 333.273438 L 218.90625 334.894531 L 217.617188 336.183594 L 215.996094 337.007813 L 214.199219 337.292969 L 212.402344 337.007813 L 210.78125 336.183594 L 209.496094 334.894531 L 208.667969 333.273438 L 208.382813 331.476563 L 208.667969 329.679688 L 209.496094 328.058594 L 210.78125 326.773438 L 212.402344 325.945313 L 214.199219 325.660156 L 215.996094 325.945313 L 217.617188 326.773438 L 218.90625 328.058594 L 219.730469 329.679688 Z M 220.015625 331.476563 "/>
<path style=" stroke:none;fill-rule:nonzero;fill:rgb(80.392157%,58.431373%,4.705882%);fill-opacity:1;" d="M 196.753906 401.261719 L 196.46875 403.058594 L 195.644531 404.679688 L 194.355469 405.964844 L 192.734375 406.792969 L 190.9375 407.078125 L 189.140625 406.792969 L 187.519531 405.964844 L 186.234375 404.679688 L 185.40625 403.058594 L 185.125 401.261719 L 185.40625 399.464844 L 186.234375 397.84375 L 187.519531 396.558594 L 189.140625 395.730469 L 190.9375 395.445313 L 192.734375 395.730469 L 194.355469 396.558594 L 195.644531 397.84375 L 196.46875 399.464844 Z M 196.753906 401.261719 "/>
<path style=" stroke:none;fill-rule:nonzero;fill:rgb(80.392157%,58.431373%,4.705882%);fill-opacity:1;" d="M 231.644531 420.644531 L 231.363281 422.441406 L 230.535156 424.0625 L 229.25 425.351563 L 227.628906 426.175781 L 225.832031 426.460938 L 224.035156 426.175781 L 222.414063 425.351563 L 221.125 424.0625 L 220.300781 422.441406 L 220.015625 420.644531 L 220.300781 418.847656 L 221.125 417.226563 L 222.414063 415.941406 L 224.035156 415.117188 L 225.832031 414.832031 L 227.628906 415.117188 L 229.25 415.941406 L 230.535156 417.226563 L 231.363281 418.847656 Z M 231.644531 420.644531 "/>
<path style=" stroke:none;fill-rule:nonzero;fill:rgb(80.392157%,58.431373%,4.705882%);fill-opacity:1;" d="M 200.628906 420.644531 L 200.347656 422.441406 L 199.519531 424.0625 L 198.234375 425.351563 L 196.613281 426.175781 L 194.988281 426.433594 L 195.792969 425.3125 L 197.929688 424.472656 L 198.285156 423.78125 L 198.070313 423.238281 L 197.8125 423.082031 L 196.09375 424.355469 L 193.960938 426.328125 L 193.019531 426.175781 L 191.398438 425.351563 L 190.109375 424.0625 L 189.285156 422.441406 L 189 420.644531 L 189.285156 418.847656 L 190.109375 417.226563 L 191.398438 415.941406 L 193.019531 415.117188 L 194.816406 414.832031 L 196.613281 415.117188 L 198.234375 415.941406 L 199.519531 417.226563 L 200.347656 418.847656 Z M 200.628906 420.644531 "/>
<path style=" stroke:none;fill-rule:nonzero;fill:rgb(80.392157%,58.431373%,4.705882%);fill-opacity:1;" d="M 282.046875 440.03125 L 281.761719 441.828125 L 280.933594 443.449219 L 279.648438 444.734375 L 278.027344 445.5625 L 276.230469 445.847656 L 274.433594 445.5625 L 272.8125 444.734375 L 271.527344 443.449219 L 270.699219 441.828125 L 270.414063 440.03125 L 270.699219 438.234375 L 271.527344 436.613281 L 272.8125 435.324219 L 273.789063 434.828125 L 272.609375 436.117188 L 274.253906 436.015625 L 275.152344 434.667969 L 276.683594 434.363281 L 277.101563 434.351563 L 278.027344 434.5 L 279.648438 435.324219 L 280.660156 436.335938 L 279.554688 436.347656 L 277.390625 437.65625 L 277.96875 438.546875 L 281.382813 438.964844 L 281.898438 439.09375 Z M 282.046875 440.03125 "/>
<path style=" stroke:none;fill-rule:nonzero;fill:rgb(80.392157%,58.431373%,4.705882%);fill-opacity:1;" d="M 177.371094 451.660156 L 177.085938 453.457031 L 176.257813 455.078125 L 174.972656 456.367188 L 173.351563 457.191406 L 171.554688 457.476563 L 169.757813 457.191406 L 168.136719 456.367188 L 166.847656 455.078125 L 166.023438 453.457031 L 165.738281 451.660156 L 166.023438 449.863281 L 166.847656 448.242188 L 168.136719 446.957031 L 168.359375 446.84375 L 169.484375 447.285156 L 170.039063 448.109375 L 170.757813 448.421875 L 173.15625 448.464844 L 176.101563 448.085938 L 176.257813 448.242188 L 177.085938 449.863281 Z M 177.371094 451.660156 "/>
<path style=" stroke:none;fill-rule:nonzero;fill:rgb(80.392157%,58.431373%,4.705882%);fill-opacity:1;" d="M 196.753906 428.398438 L 196.46875 430.195313 L 195.644531 431.816406 L 194.355469 433.105469 L 192.734375 433.929688 L 190.9375 434.214844 L 189.140625 433.929688 L 189.09375 433.90625 L 190.867188 432.195313 L 195.792969 425.3125 L 195.808594 425.304688 L 196.46875 426.601563 Z M 186.859375 432.441406 L 186.234375 431.816406 L 185.40625 430.195313 L 185.125 428.398438 L 185.40625 426.601563 L 186.234375 424.980469 L 187.519531 423.695313 L 189.140625 422.871094 L 190.9375 422.585938 L 192.734375 422.871094 L 194.355469 423.695313 L 195.535156 424.871094 L 192.90625 427.300781 L 190.570313 429.988281 L 189.222656 431.449219 Z M 186.859375 432.441406 "/>
<path style=" stroke:none;fill-rule:nonzero;fill:rgb(80.392157%,58.431373%,4.705882%);fill-opacity:1;" d="M 177.371094 358.617188 L 177.085938 360.414063 L 176.257813 362.035156 L 174.972656 363.320313 L 173.351563 364.144531 L 171.554688 364.429688 L 169.757813 364.144531 L 168.136719 363.320313 L 166.847656 362.035156 L 166.023438 360.414063 L 165.738281 358.617188 L 165.90625 357.546875 L 167.339844 357.714844 L 172.597656 355.179688 L 173.933594 355.046875 L 174.484375 355.082031 L 177.148438 357.222656 Z M 177.371094 358.617188 "/>
<path style=" stroke:none;fill-rule:nonzero;fill:rgb(80.392157%,58.431373%,4.705882%);fill-opacity:1;" d="M 130.847656 242.308594 L 130.820313 242.476563 L 130.757813 242.5 L 130.269531 243.347656 L 130.09375 244.535156 L 130.191406 244.835938 L 129.734375 245.726563 L 129.410156 246.050781 L 128.257813 245.464844 L 127.46875 243.074219 L 128.453125 238.691406 L 128.859375 238.015625 L 129.734375 238.890625 L 130.5625 240.511719 Z M 126.074219 247.957031 L 125.03125 248.125 L 123.234375 247.839844 L 121.613281 247.011719 L 120.324219 245.726563 L 119.5 244.105469 L 119.332031 243.039063 L 119.359375 242.367188 L 121.945313 238.054688 L 122.128906 237.339844 L 123.234375 236.777344 L 125.03125 236.492188 L 126.828125 236.777344 L 127.765625 237.253906 L 126.449219 238.917969 L 125.671875 238.734375 L 125.460938 238.363281 Z M 126.074219 247.957031 "/>
<path style=" stroke:none;fill-rule:nonzero;fill:rgb(80.392157%,58.431373%,4.705882%);fill-opacity:1;" d="M 224.046875 472.015625 L 223.890625 471.046875 L 224.175781 469.25 L 224.964844 467.699219 L 227.316406 466.367188 L 232.550781 467.761719 L 234.171875 469.894531 L 231.242188 473.621094 L 229.960938 474.269531 L 228.117188 474.644531 Z M 227.726563 465.609375 L 227.910156 465.515625 L 229.707031 465.230469 L 231.503906 465.515625 L 232.105469 465.820313 L 231.738281 466.042969 Z M 227.726563 465.609375 "/>
<path style=" stroke:none;fill-rule:nonzero;fill:rgb(80.392157%,58.431373%,4.705882%);fill-opacity:1;" d="M 130.847656 416.769531 L 130.5625 418.566406 L 129.734375 420.1875 L 128.449219 421.472656 L 126.828125 422.300781 L 125.03125 422.585938 L 123.234375 422.300781 L 123.1875 422.277344 L 124.125 421.78125 L 125.167969 421.753906 L 125.464844 421.238281 L 124.929688 417.953125 L 123.328125 417.210938 L 121.445313 417.105469 L 122.0625 415.152344 L 125.933594 413.378906 L 126.539063 411.90625 L 127.902344 411.785156 L 128.449219 412.066406 L 129.734375 413.351563 L 130.5625 414.972656 Z M 130.847656 416.769531 "/>
<path style=" stroke:none;fill-rule:nonzero;fill:rgb(80.392157%,58.431373%,4.705882%);fill-opacity:1;" d="M 177.347656 447.921875 L 177.085938 449.582031 L 176.257813 451.203125 L 174.972656 452.488281 L 173.351563 453.316406 L 171.554688 453.601563 L 169.757813 453.316406 L 168.136719 452.488281 L 166.847656 451.203125 L 166.023438 449.582031 L 165.738281 447.785156 L 165.996094 446.167969 L 166.046875 446.148438 L 167.527344 446.515625 L 169.484375 447.285156 L 170.039063 448.109375 L 170.757813 448.421875 L 173.15625 448.464844 Z M 177.347656 447.921875 "/>
<path style=" stroke:none;fill-rule:nonzero;fill:rgb(80.392157%,58.431373%,4.705882%);fill-opacity:1;" d="M 132.015625 263.507813 L 130.988281 263.347656 L 129.367188 262.519531 L 128.078125 261.234375 L 127.253906 259.613281 L 126.96875 257.816406 L 127.253906 256.019531 L 128.078125 254.398438 L 129.367188 253.109375 L 130.699219 252.429688 L 131.390625 253.015625 L 132.984375 258.382813 L 133.019531 262.765625 L 132.308594 263.453125 Z M 132.015625 263.507813 "/>
<path style=" stroke:none;fill-rule:nonzero;fill:rgb(80.392157%,58.431373%,4.705882%);fill-opacity:1;" d="M 154.109375 447.785156 L 153.824219 449.582031 L 152.996094 451.203125 L 151.710938 452.488281 L 150.089844 453.316406 L 148.292969 453.601563 L 147.53125 453.480469 L 148.429688 452.488281 L 148.105469 447.519531 L 151.105469 446.613281 L 153.898438 446.460938 Z M 154.109375 447.785156 "/>
<path style=" stroke:none;fill-rule:nonzero;fill:rgb(80.392157%,58.431373%,4.705882%);fill-opacity:1;" d="M 221.652344 470.980469 L 222.414063 470.21875 L 224.035156 469.390625 L 225.832031 469.109375 L 227.628906 469.390625 L 229.25 470.21875 L 230.535156 471.503906 L 231.363281 473.125 L 231.40625 473.410156 L 231.242188 473.621094 L 229.960938 474.269531 L 228.117188 474.644531 L 222.296875 470.886719 Z M 221.652344 470.980469 "/>
<path style=" stroke:none;fill-rule:nonzero;fill:rgb(80.392157%,58.431373%,4.705882%);fill-opacity:1;" d="M 107.585938 253.9375 L 107.582031 253.960938 L 103.964844 256.144531 L 102.714844 255.347656 L 104.570313 248.917969 L 105.1875 249.234375 L 106.472656 250.519531 L 107.300781 252.140625 Z M 99.019531 248.894531 L 99.972656 248.40625 L 101.769531 248.125 L 102.34375 248.214844 L 101.464844 249.738281 L 99.988281 251.246094 L 99.089844 251.691406 L 98.539063 251.066406 Z M 99.019531 248.894531 "/>
<path style=" stroke:none;fill-rule:nonzero;fill:rgb(80.392157%,58.431373%,4.705882%);fill-opacity:1;" d="M 139.167969 318.554688 L 140.078125 319.019531 L 141.367188 320.304688 L 142.191406 321.925781 L 142.316406 322.703125 L 141.859375 323.019531 L 139.824219 322.464844 L 137.933594 323.433594 L 137.675781 322.921875 Z M 139.167969 318.554688 "/>
<path style=" stroke:none;fill-rule:nonzero;fill:rgb(80.392157%,58.431373%,4.705882%);fill-opacity:1;" d="M 88.429688 500.046875 L 88.566406 499.308594 L 88.941406 499.117188 L 89.34375 499.789063 Z M 88.429688 500.046875 "/>
<path style=" stroke:none;fill-rule:nonzero;fill:rgb(80.392157%,58.431373%,4.705882%);fill-opacity:1;" d="M 88.429688 500.046875 L 88.566406 499.308594 L 88.941406 499.117188 L 89.34375 499.789063 Z M 88.429688 500.046875 "/>
</g>
</svg>
