<?xml version="1.0" encoding="UTF-8"?>
<svg xmlns="http://www.w3.org/2000/svg" xmlns:xlink="http://www.w3.org/1999/xlink" width="378pt" height="504pt" viewBox="0 0 378 504" version="1.1">
<g id="data">
<rect x="0" y="0" width="378" height="504" style="fill:rgb(100%,100%,100%);fill-opacity:1;stroke:none;"/>
<path style=" stroke:none;fill-rule:nonzero;fill:rgb(100%,100%,100%);fill-opacity:1;" d="M 53.308594 504 L 324.691406 504 L 324.691406 0 L 53.308594 0 Z M 53.308594 504 "/>
<path style=" stroke:none;fill-rule:nonzero;fill:rgb(22.745098%,53.333333%,16.078431%);fill-opacity:1;" d="M 125.511719 474.839844 L 127.152344 474.550781 L 129.28125 473.734375 L 130.648438 472.875 L 132.105469 472.640625 L 132.679688 471.785156 L 132.796875 471.328125 L 132.878906 473.332031 L 133.460938 475.675781 L 134.445313 477.742188 L 135.90625 479.667969 L 133.070313 481.144531 L 130.742188 483.335938 L 128.90625 486.554688 L 127.433594 488.125 L 126.324219 489.867188 L 124.039063 490.597656 L 123.132813 494.289063 L 123.664063 495.292969 L 123.640625 495.398438 L 122.859375 496.015625 L 121.910156 497.222656 L 120.660156 497.648438 L 120.394531 498.183594 L 118.253906 498.183594 L 117.96875 497.691406 L 118.09375 496.4375 L 117.15625 494.691406 L 115.984375 493.691406 L 112.253906 492.070313 L 111.410156 491.984375 L 110.375 492.488281 L 110.242188 494.183594 L 110.03125 494.425781 L 108.148438 494.160156 L 105.644531 494.308594 L 105.441406 494.242188 L 105.628906 491.574219 L 106.074219 490.5625 L 106.917969 490.191406 L 108.011719 489.988281 L 110.125 489.125 L 111.105469 488.355469 L 111.738281 488.078125 L 112.199219 488.253906 L 112.445313 488.9375 L 113.574219 489.15625 L 118.144531 485.910156 L 121.425781 483.085938 L 124.375 479.769531 L 125.210938 477.886719 L 124.875 476.421875 Z M 88.429688 500.046875 L 88.566406 499.308594 L 88.941406 499.117188 L 89.34375 499.789063 Z M 88.429688 500.046875 "/>
</g>
</svg>
