<?xml version="1.0" encoding="UTF-8"?>
<svg xmlns="http://www.w3.org/2000/svg" xmlns:xlink="http://www.w3.org/1999/xlink" width="378pt" height="504pt" viewBox="0 0 378 504" version="1.1">
<g id="data">
<rect x="0" y="0" width="378" height="504" style="fill:rgb(100%,100%,100%);fill-opacity:1;stroke:none;"/>
<path style=" stroke:none;fill-rule:nonzero;fill:rgb(100%,100%,100%);fill-opacity:1;" d="M 53.308594 504 L 324.691406 504 L 324.691406 0 L 53.308594 0 Z M 53.308594 504 "/>
<path style=" stroke:none;fill-rule:nonzero;fill:rgb(22.745098%,53.333333%,16.078431%);fill-opacity:1;" d="M 295.617188 374.125 L 295.992188 377.785156 L 297.425781 381.042969 L 299.777344 383.710938 L 302.941406 385.59375 L 299.082031 384.933594 L 295.226563 385.59375 L 295.628906 382.878906 L 295.386719 379.585938 L 294.503906 376.917969 L 292.925781 374.4375 Z M 218.078125 405.136719 L 221.25 405.445313 L 224.503906 404.835938 L 227.355469 403.410156 L 229.707031 401.261719 L 230.714844 403.765625 L 232.269531 405.96875 L 234.394531 407.824219 L 236.789063 409.070313 L 239.402344 409.734375 L 242.097656 409.773438 L 244.734375 409.195313 L 247.285156 407.996094 L 249.480469 406.230469 L 251.121094 404.097656 L 252.226563 401.644531 L 252.738281 399.003906 L 252.632813 396.316406 L 251.957031 393.84375 L 250.757813 391.578125 L 249.09375 389.628906 L 249.09375 385.753906 L 250.355469 388.703125 L 252.375 391.195313 L 254.996094 393.039063 L 258.023438 394.097656 L 261.355469 394.28125 L 264.601563 393.507813 L 266.824219 394.054688 L 268.988281 394.160156 L 272.355469 393.507813 L 274.109375 394.804688 L 276.078125 395.75 L 278.1875 396.308594 L 280.363281 396.464844 L 284.378906 395.65625 L 287.863281 393.507813 L 285.664063 397.113281 L 284.898438 401.261719 L 285.664063 405.410156 L 287.863281 409.015625 L 282.441406 409.027344 L 279.546875 409.621094 L 276.371094 411.292969 L 273.929688 413.75 L 272.457031 416.457031 L 271.753906 419.324219 L 271.765625 422.023438 L 272.355469 424.523438 L 271.707031 427.664063 L 271.941406 430.863281 L 272.925781 433.648438 L 273.753906 434.867188 L 272.609375 436.117188 L 274.253906 436.015625 L 274.394531 435.804688 L 274.660156 436.195313 L 277.007813 438.191406 L 279.671875 439.464844 L 281.800781 439.953125 L 283.984375 440.03125 L 286.695313 441.167969 L 289.480469 441.585938 L 292.65625 441.234375 L 295.617188 440.03125 L 299.492188 440.03125 L 299.492188 447.785156 L 297.371094 448.160156 L 295.242188 448.972656 L 293.3125 450.1875 L 291.738281 451.660156 L 289.359375 451.507813 L 286.605469 451.832031 L 284.535156 452.4375 L 282.613281 453.410156 L 280.632813 454.984375 L 278.046875 457.9375 L 276.789063 460.5625 L 276.414063 462.40625 L 274.789063 462.777344 L 272.597656 463.816406 L 272.15625 464.414063 L 271.980469 464.480469 L 270.050781 465.695313 L 268.96875 466.710938 L 267.367188 466.226563 L 265.96875 465.042969 L 262.96875 463.699219 L 259.222656 463.136719 L 252.96875 463.292969 L 251.101563 461.929688 L 249.003906 460.964844 L 246.882813 460.449219 L 244.574219 460.347656 L 241.917969 460.808594 L 239.441406 461.867188 L 237.492188 463.292969 L 231.496094 463.171875 L 231.378906 463.496094 L 232.574219 464.835938 L 232.214844 465.75 L 231.738281 466.042969 L 226.691406 465.496094 L 221.054688 467.832031 L 220.925781 467.769531 L 217.203125 467.054688 L 214.199219 467.167969 L 212.445313 465.875 L 210.476563 464.929688 L 208.367188 464.367188 L 206.1875 464.210938 L 202.78125 464.800781 L 199.800781 466.292969 L 197.300781 468.636719 L 195.59375 471.585938 L 195.246094 467.652344 L 193.527344 463.960938 L 190.640625 461.085938 L 187.0625 459.414063 L 191.25 459.632813 L 193.367188 459.152344 L 195.359375 458.289063 L 197.351563 456.90625 L 199.324219 454.898438 L 201.460938 451.566406 L 202.367188 447.449219 L 201.789063 443.40625 L 199.765625 439.707031 L 196.558594 436.976563 L 199.039063 437.601563 L 201.59375 437.671875 L 204.105469 437.179688 L 206.445313 436.152344 L 210.128906 436.425781 L 213.59375 435.582031 L 216.035156 434.203125 L 218.078125 432.277344 L 220.164063 431.300781 L 222.015625 429.933594 L 223.929688 427.703125 L 225.226563 425.0625 L 226.488281 417.152344 L 226.316406 414.738281 L 225.628906 412.285156 L 224.421875 409.882813 L 222.695313 407.820313 L 220.542969 406.210938 Z M 236.742188 463.839844 L 236.058594 464.339844 L 236.523438 463.683594 Z M 231.628906 467.515625 L 231.464844 467.542969 L 229.332031 468.359375 L 227.402344 469.574219 L 225.832031 471.046875 L 223.640625 469.125 L 223.011719 468.808594 L 227.316406 466.367188 Z M 240.792969 334.28125 L 239.351563 336.066406 L 238.289063 338.09375 L 237.667969 340.167969 L 237.441406 342.449219 L 237.085938 340.171875 L 236.34375 338.128906 L 235.15625 336.15625 L 233.601563 334.453125 L 237.210938 334.9375 Z M 226.859375 329.125 L 229.164063 331.964844 L 225.832031 331.476563 Z M 171.554688 242.308594 L 171.8125 240.804688 L 178.0625 241.875 L 182.921875 243.167969 L 186.398438 241.730469 L 187.519531 239.417969 L 188.617188 238.355469 L 189.539063 238.171875 L 193.183594 238.5 L 198.21875 241.988281 L 200.398438 244.476563 L 202.570313 246.183594 L 204.828125 248.871094 L 209.609375 252.574219 L 209.824219 252.660156 L 212.824219 256.707031 L 213.265625 256.828125 L 213.433594 256.585938 L 214.601563 257.097656 L 217.371094 258.992188 L 218.078125 261.207031 L 218.078125 261.691406 L 217.410156 265.570313 L 218.078125 269.445313 L 215.667969 269.558594 L 213.332031 270.164063 L 211.960938 267.476563 L 209.800781 265.015625 L 207.707031 263.375 L 205.296875 262.25 L 199.328125 261.042969 L 197.039063 261.144531 L 194.816406 261.691406 L 193.109375 259.523438 L 190.9375 257.816406 L 188.867188 255.296875 L 187.0625 253.9375 L 185.285156 250.402344 L 182.425781 247.664063 L 180.035156 246.433594 L 176.957031 245.621094 L 174.285156 245.574219 L 171.554688 246.183594 Z M 172.128906 238.957031 L 172.21875 238.429688 L 171.554688 234.554688 L 173.070313 232.820313 L 174.164063 230.9375 L 174.917969 228.761719 L 175.226563 226.476563 L 175.082031 224.175781 L 174.527344 222.070313 L 173.59375 220.105469 L 172.308594 218.347656 L 175.429688 219.046875 L 177.519531 220.535156 L 180.011719 221.566406 L 181.988281 221.910156 L 177.804688 225.21875 L 178.117188 225.714844 L 179.84375 225.195313 L 184.609375 222.886719 L 186.308594 221.507813 L 186.933594 221.347656 L 187.289063 221.316406 L 189.085938 221.875 L 189.332031 222.921875 L 188.898438 224.691406 L 189.238281 225.953125 L 190.898438 226.824219 L 192.988281 227.191406 L 193.6875 227.929688 L 193.714844 228.089844 L 194.289063 229.441406 L 192.117188 231.570313 L 189.460938 232.730469 L 188.34375 232.882813 L 187.070313 232.078125 L 185.40625 232.042969 L 181.046875 235.800781 L 180.578125 237.003906 L 174.761719 240.109375 Z M 189.378906 220.175781 L 189.722656 219.996094 L 192.929688 217.515625 L 194.816406 215.167969 L 194.816406 216.777344 L 191.214844 219.742188 Z M 175.429688 166.59375 L 175.429688 168.644531 L 173.261719 170.351563 L 171.554688 172.523438 L 167.878906 172.902344 L 164.503906 174.417969 L 161.699219 177.011719 L 159.929688 180.257813 L 160.589844 176.390625 L 160.15625 173.878906 L 161.140625 173.015625 L 161.882813 172.710938 L 163.09375 172.828125 L 166.230469 172.261719 L 169.09375 170.863281 L 170.484375 169.609375 L 170.492188 169.949219 L 171.554688 169.839844 L 173.589844 168.316406 L 174.046875 166.78125 Z M 175.429688 166.59375 "/>
<path style=" stroke:none;fill-rule:nonzero;fill:rgb(80.392157%,58.431373%,4.705882%);fill-opacity:1;" d="M 231.644531 319.847656 L 231.363281 321.644531 L 230.535156 323.265625 L 229.25 324.550781 L 227.628906 325.375 L 225.832031 325.660156 L 224.035156 325.375 L 222.414063 324.550781 L 221.125 323.265625 L 220.300781 321.644531 L 220.015625 319.847656 L 220.300781 318.050781 L 221.125 316.429688 L 222.414063 315.140625 L 224.035156 314.316406 L 225.832031 314.03125 L 227.628906 314.316406 L 229.25 315.140625 L 230.535156 316.429688 L 231.363281 318.050781 Z M 231.644531 319.847656 "/>
<path style=" stroke:none;fill-rule:nonzero;fill:rgb(80.392157%,58.431373%,4.705882%);fill-opacity:1;" d="M 192.875 416.769531 L 192.59375 418.566406 L 191.765625 420.1875 L 190.480469 421.472656 L 188.859375 422.300781 L 187.0625 422.585938 L 185.265625 422.300781 L 183.644531 421.472656 L 182.355469 420.1875 L 181.53125 418.566406 L 181.246094 416.769531 L 181.53125 414.972656 L 182.355469 413.351563 L 183.644531 412.066406 L 185.265625 411.238281 L 187.0625 410.953125 L 188.859375 411.238281 L 190.480469 412.066406 L 191.765625 413.351563 L 192.59375 414.972656 Z M 192.875 416.769531 "/>
<path style=" stroke:none;fill-rule:nonzero;fill:rgb(80.392157%,58.431373%,4.705882%);fill-opacity:1;" d="M 189 409.015625 L 188.714844 410.8125 L 187.890625 412.433594 L 186.601563 413.71875 L 184.980469 414.546875 L 183.183594 414.832031 L 181.386719 414.546875 L 179.765625 413.71875 L 178.480469 412.433594 L 177.652344 410.8125 L 177.371094 409.015625 L 177.652344 407.21875 L 178.480469 405.597656 L 179.765625 404.3125 L 181.386719 403.484375 L 183.183594 403.199219 L 184.980469 403.484375 L 186.601563 404.3125 L 187.890625 405.597656 L 188.714844 407.21875 Z M 189 409.015625 "/>
<path style=" stroke:none;fill-rule:nonzero;fill:rgb(80.392157%,58.431373%,4.705882%);fill-opacity:1;" d="M 165.738281 284.953125 L 165.453125 286.75 L 164.628906 288.371094 L 163.339844 289.660156 L 161.71875 290.484375 L 159.921875 290.769531 L 158.125 290.484375 L 156.503906 289.660156 L 155.21875 288.371094 L 154.390625 286.75 L 154.109375 284.953125 L 154.390625 283.15625 L 155.21875 281.535156 L 156.503906 280.25 L 158.125 279.421875 L 159.921875 279.136719 L 161.71875 279.421875 L 163.339844 280.25 L 164.628906 281.535156 L 165.453125 283.15625 Z M 165.738281 284.953125 "/>
<path style=" stroke:none;fill-rule:nonzero;fill:rgb(80.392157%,58.431373%,4.705882%);fill-opacity:1;" d="M 212.261719 284.953125 L 211.976563 286.75 L 211.152344 288.371094 L 209.863281 289.660156 L 208.242188 290.484375 L 206.445313 290.769531 L 204.648438 290.484375 L 203.027344 289.660156 L 201.742188 288.371094 L 200.914063 286.75 L 200.628906 284.953125 L 200.914063 283.15625 L 201.742188 281.535156 L 203.027344 280.25 L 204.648438 279.421875 L 206.445313 279.136719 L 208.242188 279.421875 L 209.863281 280.25 L 211.152344 281.535156 L 211.976563 283.15625 Z M 212.261719 284.953125 "/>
<path style=" stroke:none;fill-rule:nonzero;fill:rgb(80.392157%,58.431373%,4.705882%);fill-opacity:1;" d="M 197.222656 212.996094 L 195.273438 212.121094 L 193.988281 210.832031 L 193.160156 209.210938 L 192.875 207.414063 L 193.160156 205.617188 L 193.988281 203.996094 L 195.273438 202.710938 L 196.894531 201.882813 L 198.691406 201.601563 L 200.488281 201.882813 L 202.109375 202.710938 L 203.074219 203.675781 L 200.949219 206.4375 L 199.179688 207.605469 L 197.078125 210.023438 L 197.433594 210.839844 L 197.785156 210.703125 Z M 197.222656 212.996094 "/>
<path style=" stroke:none;fill-rule:nonzero;fill:rgb(80.392157%,58.431373%,4.705882%);fill-opacity:1;" d="M 123.09375 486.554688 L 122.808594 488.351563 L 121.980469 489.972656 L 120.695313 491.257813 L 119.074219 492.085938 L 117.277344 492.371094 L 115.480469 492.085938 L 113.859375 491.257813 L 112.570313 489.972656 L 111.707031 488.089844 L 112.199219 488.253906 L 112.445313 488.9375 L 113.574219 489.15625 L 118.144531 485.910156 L 121.664063 482.816406 L 122.808594 484.757813 Z M 123.09375 486.554688 "/>
<path style=" stroke:none;fill-rule:nonzero;fill:rgb(80.392157%,58.431373%,4.705882%);fill-opacity:1;" d="M 204.722656 197.449219 L 203.027344 196.613281 L 201.742188 195.324219 L 200.914063 193.703125 L 200.628906 191.90625 L 200.914063 190.109375 L 201.742188 188.488281 L 203.027344 187.203125 L 204.648438 186.375 L 206.445313 186.09375 L 208.058594 186.347656 L 207.15625 188.339844 L 206.664063 191.242188 L 206.84375 191.972656 L 206.226563 194.742188 Z M 204.722656 197.449219 "/>
<path style=" stroke:none;fill-rule:nonzero;fill:rgb(80.392157%,58.431373%,4.705882%);fill-opacity:1;" d="M 198.871094 207.960938 L 197.863281 206.957031 L 197.039063 205.335938 L 196.753906 203.539063 L 197.039063 201.742188 L 197.863281 200.121094 L 199.152344 198.832031 L 200.773438 198.007813 L 202.570313 197.722656 L 204.402344 198.027344 L 203.9375 198.859375 L 203.765625 200.121094 L 204.023438 201.304688 L 203.230469 203.472656 L 200.949219 206.4375 Z M 198.871094 207.960938 "/>
<path style=" stroke:none;fill-rule:nonzero;fill:rgb(80.392157%,58.431373%,4.705882%);fill-opacity:1;" d="M 289.671875 371.058594 L 289.515625 372.042969 L 288.6875 373.664063 L 287.402344 374.949219 L 285.78125 375.777344 L 283.984375 376.0625 L 282.1875 375.777344 L 280.566406 374.949219 L 279.28125 373.664063 L 278.453125 372.042969 L 278.167969 370.246094 L 283.34375 370.234375 L 284.253906 370.867188 L 286.703125 370.742188 Z M 289.671875 371.058594 "/>
<path style=" stroke:none;fill-rule:nonzero;fill:rgb(80.392157%,58.431373%,4.705882%);fill-opacity:1;" d="M 130.847656 474.921875 L 130.5625 476.71875 L 129.734375 478.339844 L 128.449219 479.628906 L 126.828125 480.453125 L 125.03125 480.738281 L 123.703125 480.527344 L 124.375 479.769531 L 125.210938 477.886719 L 124.875 476.421875 L 125.640625 474.519531 L 128.386719 473.238281 L 130.449219 472.90625 Z M 130.847656 474.921875 "/>
<path style=" stroke:none;fill-rule:nonzero;fill:rgb(80.392157%,58.431373%,4.705882%);fill-opacity:1;" d="M 146.355469 354.738281 L 146.070313 356.535156 L 145.242188 358.15625 L 143.273438 359.789063 L 142.050781 357.363281 L 142.246094 352.273438 L 145.042969 351.121094 L 146.070313 352.941406 Z M 141.734375 358.875 L 141.003906 358.070313 L 139.230469 356.960938 L 138.828125 356.035156 L 139.253906 355.210938 L 140.597656 355.164063 L 141.484375 356.3125 L 142.226563 358.1875 Z M 141.734375 358.875 "/>
<path style=" stroke:none;fill-rule:nonzero;fill:rgb(80.392157%,58.431373%,4.705882%);fill-opacity:1;" d="M 193.226563 103.421875 L 193.136719 102.113281 L 195.332031 98.847656 L 196.15625 98.316406 L 199.542969 97.917969 L 199.804688 99.347656 L 197.464844 100.832031 L 194.695313 101.191406 Z M 189.382813 100.847656 L 189.007813 98.90625 L 189.644531 99.757813 Z M 189.382813 100.847656 "/>
<path style=" stroke:none;fill-rule:nonzero;fill:rgb(80.392157%,58.431373%,4.705882%);fill-opacity:1;" d="M 193.925781 100.941406 L 196.121094 101.007813 L 194.695313 101.191406 L 193.226563 103.421875 L 193.136719 102.113281 Z M 193.925781 100.941406 "/>
</g>
</svg>
