<?xml version="1.0" encoding="UTF-8"?>
<svg xmlns="http://www.w3.org/2000/svg" xmlns:xlink="http://www.w3.org/1999/xlink" width="378pt" height="504pt" viewBox="0 0 378 504" version="1.1">
<g id="data">
<rect x="0" y="0" width="378" height="504" style="fill:rgb(100%,100%,100%);fill-opacity:1;stroke:none;"/>
<path style=" stroke:none;fill-rule:nonzero;fill:rgb(100%,100%,100%);fill-opacity:1;" d="M 53.308594 504 L 324.691406 504 L 324.691406 0 L 53.308594 0 Z M 53.308594 504 "/>
<path style=" stroke:none;fill-rule:nonzero;fill:rgb(22.745098%,53.333333%,16.078431%);fill-opacity:1;" d="M 206.445313 412.890625 L 210.195313 413.558594 L 214.199219 412.890625 L 216.734375 413.207031 L 219.148438 412.988281 L 222.832031 411.574219 L 225.832031 409.015625 L 226.3125 411.503906 L 227.257813 413.714844 L 228.636719 415.6875 L 230.402344 417.34375 L 232.484375 418.613281 L 234.785156 419.417969 L 237.203125 419.726563 L 239.636719 419.527344 L 241.96875 418.820313 L 244.105469 417.644531 L 247.207031 415.238281 L 249.09375 412.890625 L 251.214844 412.519531 L 253.34375 411.703125 L 255.273438 410.488281 L 256.847656 409.015625 L 260.382813 407.238281 L 262.972656 404.589844 L 264.601563 401.261719 L 266.878906 401.570313 L 269.171875 401.421875 L 271.273438 400.875 L 273.34375 399.878906 L 270.226563 403.769531 L 268.816406 407.015625 L 267.816406 412.636719 L 268.476563 416.769531 L 268.476563 420.644531 L 267.109375 422.503906 L 266.136719 424.59375 L 265.59375 426.835938 L 265.507813 429.136719 L 266.464844 433.109375 L 268.828125 436.59375 L 272.277344 439.011719 L 276.230469 440.03125 L 275.0625 442.867188 L 274.671875 445.78125 L 275.0625 448.824219 L 276.230469 451.660156 L 273.554688 451.972656 L 271.019531 452.894531 L 268.765625 454.375 L 266.914063 456.332031 L 265.613281 458.546875 L 264.855469 460.867188 L 264.445313 464.792969 L 264.480469 465.355469 L 262.632813 464.796875 L 260.722656 463.292969 L 261.378906 460.023438 L 261.105469 456.824219 L 259.910156 453.710938 L 257.878906 451.066406 L 255.296875 449.164063 L 252.289063 448.042969 L 248.0625 447.769531 L 245.148438 448.234375 L 243.003906 449.105469 L 240.972656 450.460938 L 239.351563 452.113281 L 238.03125 454.164063 L 237.203125 456.324219 L 236.808594 458.734375 L 236.90625 461.046875 L 237.460938 463.292969 L 231.496094 463.171875 L 231.378906 463.496094 L 232.574219 464.835938 L 232.214844 465.75 L 231.738281 466.042969 L 226.691406 465.496094 L 219.566406 468.449219 L 217.054688 467.824219 L 210.222656 468.96875 L 209.953125 468.957031 L 209.949219 468.925781 L 209.132813 466.792969 L 207.996094 464.964844 L 206.445313 463.292969 L 209.125 462.980469 L 211.542969 462.117188 L 213.8125 460.664063 L 215.6875 458.726563 L 217.484375 455.328125 L 218.078125 451.660156 L 220.601563 449.484375 L 222.453125 446.5625 L 223.273438 443.863281 L 223.421875 441.042969 L 222.957031 438.515625 L 221.953125 436.152344 L 221.855469 433.851563 L 221.304688 431.617188 L 220.191406 429.3125 L 218.511719 427.21875 L 216.503906 425.632813 L 214.199219 424.523438 L 211.90625 422.53125 L 209.890625 421.46875 L 205.824219 420.558594 L 202.570313 420.644531 L 204.042969 419.074219 L 205.257813 417.144531 L 206.070313 415.015625 Z M 236.542969 463.699219 L 236.5 463.71875 L 236.523438 463.683594 Z M 231.597656 467.507813 L 230.84375 468.46875 L 229.707031 471.046875 L 227.539063 472.753906 L 226.746094 473.761719 L 222.296875 470.886719 L 221.546875 470.992188 L 220.964844 470.652344 L 220.726563 470.566406 L 221.476563 469.683594 L 227.316406 466.367188 Z M 231.597656 467.507813 "/>
<path style=" stroke:none;fill-rule:nonzero;fill:rgb(80.392157%,58.431373%,4.705882%);fill-opacity:1;" d="M 185.125 378 L 184.839844 379.796875 L 184.011719 381.417969 L 182.726563 382.703125 L 181.105469 383.53125 L 179.308594 383.816406 L 177.511719 383.53125 L 175.890625 382.703125 L 174.601563 381.417969 L 173.777344 379.796875 L 173.492188 378 L 173.777344 376.203125 L 174.601563 374.582031 L 175.890625 373.296875 L 177.511719 372.46875 L 179.308594 372.183594 L 181.105469 372.46875 L 182.726563 373.296875 L 184.011719 374.582031 L 184.839844 376.203125 Z M 185.125 378 "/>
<path style=" stroke:none;fill-rule:nonzero;fill:rgb(80.392157%,58.431373%,4.705882%);fill-opacity:1;" d="M 220.015625 335.355469 L 219.730469 337.152344 L 218.90625 338.773438 L 217.617188 340.058594 L 215.996094 340.882813 L 214.199219 341.167969 L 212.402344 340.882813 L 210.78125 340.058594 L 209.496094 338.773438 L 208.667969 337.152344 L 208.382813 335.355469 L 208.667969 333.558594 L 209.496094 331.9375 L 210.78125 330.648438 L 212.402344 329.824219 L 214.199219 329.539063 L 215.996094 329.824219 L 217.617188 330.648438 L 218.90625 331.9375 L 219.730469 333.558594 Z M 220.015625 335.355469 "/>
<path style=" stroke:none;fill-rule:nonzero;fill:rgb(80.392157%,58.431373%,4.705882%);fill-opacity:1;" d="M 185.125 416.769531 L 184.839844 418.566406 L 184.011719 420.1875 L 182.726563 421.472656 L 181.105469 422.300781 L 179.308594 422.585938 L 177.511719 422.300781 L 175.890625 421.472656 L 174.601563 420.1875 L 173.777344 418.566406 L 173.492188 416.769531 L 173.777344 414.972656 L 174.601563 413.351563 L 175.890625 412.066406 L 177.511719 411.238281 L 179.308594 410.953125 L 181.105469 411.238281 L 182.726563 412.066406 L 184.011719 413.351563 L 184.839844 414.972656 Z M 185.125 416.769531 "/>
<path style=" stroke:none;fill-rule:nonzero;fill:rgb(80.392157%,58.431373%,4.705882%);fill-opacity:1;" d="M 204.507813 257.816406 L 204.222656 259.613281 L 203.398438 261.234375 L 202.109375 262.519531 L 200.488281 263.347656 L 198.691406 263.628906 L 196.894531 263.347656 L 195.273438 262.519531 L 193.988281 261.234375 L 193.160156 259.613281 L 192.875 257.816406 L 193.160156 256.019531 L 193.988281 254.398438 L 195.273438 253.109375 L 196.894531 252.285156 L 198.691406 252 L 200.488281 252.285156 L 202.109375 253.109375 L 203.398438 254.398438 L 204.222656 256.019531 Z M 204.507813 257.816406 "/>
<path style=" stroke:none;fill-rule:nonzero;fill:rgb(80.392157%,58.431373%,4.705882%);fill-opacity:1;" d="M 289.800781 381.875 L 289.515625 383.675781 L 288.6875 385.296875 L 287.402344 386.582031 L 285.78125 387.40625 L 283.984375 387.691406 L 282.1875 387.40625 L 280.566406 386.582031 L 279.28125 385.296875 L 278.453125 383.675781 L 278.167969 381.875 L 278.453125 380.078125 L 279.28125 378.457031 L 280.566406 377.171875 L 282.1875 376.347656 L 283.984375 376.0625 L 285.78125 376.347656 L 287.402344 377.171875 L 288.6875 378.457031 L 289.515625 380.078125 Z M 289.800781 381.875 "/>
<path style=" stroke:none;fill-rule:nonzero;fill:rgb(80.392157%,58.431373%,4.705882%);fill-opacity:1;" d="M 289.800781 378 L 289.515625 379.796875 L 288.6875 381.417969 L 287.402344 382.703125 L 285.78125 383.53125 L 283.984375 383.816406 L 282.1875 383.53125 L 280.566406 382.703125 L 279.28125 381.417969 L 278.453125 379.796875 L 278.167969 378 L 278.453125 376.203125 L 279.28125 374.582031 L 280.566406 373.296875 L 282.1875 372.46875 L 283.984375 372.183594 L 285.78125 372.46875 L 287.402344 373.296875 L 288.6875 374.582031 L 289.515625 376.203125 Z M 289.800781 378 "/>
<path style=" stroke:none;fill-rule:nonzero;fill:rgb(80.392157%,58.431373%,4.705882%);fill-opacity:1;" d="M 196.683594 424.960938 L 196.46875 426.320313 L 195.644531 427.941406 L 194.355469 429.226563 L 192.355469 430.113281 L 195.792969 425.3125 Z M 190.335938 430.242188 L 189.140625 430.054688 L 187.519531 429.226563 L 186.234375 427.941406 L 185.40625 426.320313 L 185.125 424.523438 L 185.40625 422.726563 L 186.234375 421.105469 L 187.519531 419.816406 L 189.140625 418.992188 L 190.9375 418.707031 L 192.734375 418.992188 L 194.355469 419.816406 L 195.644531 421.105469 L 196.46875 422.726563 L 196.660156 423.9375 L 192.90625 427.300781 Z M 190.335938 430.242188 "/>
<path style=" stroke:none;fill-rule:nonzero;fill:rgb(80.392157%,58.431373%,4.705882%);fill-opacity:1;" d="M 289.800781 374.125 L 289.515625 375.921875 L 288.6875 377.542969 L 287.402344 378.828125 L 285.78125 379.652344 L 283.984375 379.9375 L 282.1875 379.652344 L 280.566406 378.828125 L 279.28125 377.542969 L 278.453125 375.921875 L 278.167969 374.125 L 278.453125 372.324219 L 279.847656 370.140625 L 283.34375 370.234375 L 284.253906 370.867188 L 288.824219 370.96875 L 289.515625 372.324219 Z M 289.800781 374.125 "/>
<path style=" stroke:none;fill-rule:nonzero;fill:rgb(80.392157%,58.431373%,4.705882%);fill-opacity:1;" d="M 182.046875 221.859375 L 181.53125 220.84375 L 181.246094 219.046875 L 181.53125 217.25 L 182.355469 215.628906 L 183.644531 214.339844 L 185.265625 213.515625 L 187.0625 213.230469 L 188.859375 213.515625 L 190.480469 214.339844 L 191.765625 215.628906 L 192.59375 217.25 L 192.78125 218.449219 L 191.214844 219.742188 L 185.519531 221.085938 L 182.847656 221.226563 Z M 188.9375 224.535156 L 187.0625 224.863281 L 185.265625 224.578125 L 183.375 223.484375 L 184.609375 222.886719 L 186.457031 221.386719 L 187.289063 221.316406 L 189.085938 221.875 L 189.332031 222.921875 Z M 188.9375 224.535156 "/>
<path style=" stroke:none;fill-rule:nonzero;fill:rgb(80.392157%,58.431373%,4.705882%);fill-opacity:1;" d="M 287.042969 420.199219 L 286.207031 418.566406 L 285.921875 416.769531 L 286.207031 414.972656 L 287.035156 413.351563 L 288.320313 412.066406 L 289.941406 411.238281 L 291.738281 410.953125 L 292.699219 411.105469 L 293.898438 413.703125 L 295.890625 416.628906 L 296.3125 416.765625 L 296.164063 417.742188 L 294.574219 419.804688 L 292.191406 421.289063 L 289.660156 421.574219 L 288.214844 419.332031 Z M 287.042969 420.199219 "/>
</g>
</svg>
