<?xml version="1.0" encoding="UTF-8"?>
<svg xmlns="http://www.w3.org/2000/svg" xmlns:xlink="http://www.w3.org/1999/xlink" width="378pt" height="504pt" viewBox="0 0 378 504" version="1.1">
<g id="data">
<rect x="0" y="0" width="378" height="504" style="fill:rgb(100%,100%,100%);fill-opacity:1;stroke:none;"/>
<path style=" stroke:none;fill-rule:nonzero;fill:rgb(100%,100%,100%);fill-opacity:1;" d="M 53.308594 504 L 324.691406 504 L 324.691406 0 L 53.308594 0 Z M 53.308594 504 "/>
<path style=" stroke:none;fill-rule:nonzero;fill:rgb(22.745098%,53.333333%,16.078431%);fill-opacity:1;" d="M 269.464844 440.15625 L 276.230469 440.03125 L 278.316406 441.878906 L 280.660156 443.132813 L 285.582031 444.347656 L 287.863281 444.574219 L 290.140625 444.347656 L 295.0625 443.132813 L 297.410156 441.878906 L 299.492188 440.03125 L 299.492188 447.785156 L 296.949219 446.054688 L 294.164063 445.078125 L 291.222656 444.835938 L 288.195313 445.375 L 285.523438 446.625 L 283.167969 448.585938 L 281.46875 450.957031 L 280.382813 453.796875 L 280.359375 451.625 L 279.925781 449.492188 L 279.046875 447.363281 L 277.847656 445.546875 L 273.824219 441.84375 L 271.789063 440.800781 Z M 245.214844 416.769531 L 247.386719 415.0625 L 249.09375 412.890625 L 252.652344 412.019531 L 254.96875 410.714844 L 256.847656 409.015625 L 259.210938 408.570313 L 261.546875 407.589844 L 263.707031 406.039063 L 266.300781 403.261719 L 267.792969 400.472656 L 268.476563 397.382813 L 269.949219 395.8125 L 271.164063 393.882813 L 271.980469 391.753906 L 272.355469 389.628906 L 274.027344 387.199219 L 275.058594 384.300781 L 275.3125 381.621094 L 274.910156 378.828125 L 273.90625 376.324219 L 272.484375 374.308594 L 272.554688 374.125 L 276.230469 374.125 L 276.070313 376.25 L 276.316406 378.757813 L 277.417969 382.25 L 278.558594 384.082031 L 281.382813 387.46875 L 283.984375 389.628906 L 283.320313 393.507813 L 283.984375 397.382813 L 282.632813 399.214844 L 281.664063 401.277344 L 278.824219 401.332031 L 276.320313 401.894531 L 273.996094 402.996094 L 271.882813 404.667969 L 270.417969 406.457031 L 269.335938 408.5 L 268.683594 410.71875 L 268.476563 412.890625 L 264.683594 413.863281 L 262.601563 415.066406 L 260.722656 416.769531 L 258.113281 417.289063 L 255.800781 418.320313 L 252.96875 420.644531 L 250.726563 421.054688 L 248.605469 421.894531 L 246.394531 423.371094 L 244.5625 425.316406 L 242.789063 428.726563 L 242.230469 432.660156 L 242.976563 436.429688 L 244.914063 439.75 L 238.910156 440.285156 L 235.230469 441.765625 L 233.390625 443.167969 L 231.945313 444.804688 L 230.828125 446.679688 L 230.050781 448.859375 L 229.710938 453.074219 L 230.535156 456.691406 L 232.542969 459.964844 L 235.503906 462.40625 L 233.746094 463.21875 L 231.496094 463.171875 L 231.378906 463.496094 L 231.425781 463.550781 L 229.535156 463.78125 L 226.636719 465.121094 L 225.824219 465.859375 L 220.582031 468.027344 L 219.390625 466.339844 L 217.371094 464.554688 L 214.992188 463.28125 L 212.894531 462.675781 L 210.71875 462.472656 L 208.542969 462.679688 L 206.445313 463.292969 L 202.570313 463.292969 L 205.921875 461.445313 L 208.421875 458.71875 L 209.941406 455.34375 L 210.324219 451.660156 L 212.566406 451.253906 L 214.574219 450.472656 L 216.503906 449.257813 L 218.078125 447.785156 L 220.894531 447.605469 L 223.472656 446.800781 L 225.585938 445.582031 L 227.3125 444.042969 L 229.078125 441.519531 L 230.144531 438.492188 L 230.347656 435.289063 L 229.707031 432.277344 L 231.878906 430.570313 L 233.585938 428.398438 L 237.492188 427.375 L 240.816406 425.074219 L 242.652344 423.148438 L 243.910156 421.246094 L 244.808594 419.011719 Z M 223.265625 468.664063 L 222.019531 470.925781 L 221.910156 470.941406 L 221.425781 469.738281 L 221.476563 469.683594 Z M 246.269531 463.164063 L 248.839844 462.417969 L 251.273438 461.023438 L 253.304688 459.09375 L 254.816406 456.730469 L 258.121094 461.128906 L 260.722656 463.292969 L 256.847656 463.292969 L 253.097656 462.628906 L 249.09375 463.292969 Z M 252.96875 443.90625 L 255.210938 444.875 L 254.527344 446.101563 Z M 241.339844 323.722656 L 239.632813 321.554688 L 237.460938 319.847656 L 240.039063 318.707031 L 242.265625 316.984375 L 244.078125 314.667969 L 245.214844 312.09375 L 246.921875 314.261719 L 249.09375 315.96875 L 249.09375 319.847656 L 248.425781 323.722656 L 249.09375 327.601563 L 247.519531 326.128906 L 245.589844 324.910156 L 243.460938 324.097656 Z M 241.339844 323.722656 "/>
<path style=" stroke:none;fill-rule:nonzero;fill:rgb(80.392157%,58.431373%,4.705882%);fill-opacity:1;" d="M 223.890625 331.476563 L 223.609375 333.273438 L 222.78125 334.894531 L 221.496094 336.183594 L 219.875 337.007813 L 218.078125 337.292969 L 216.28125 337.007813 L 214.660156 336.183594 L 213.371094 334.894531 L 212.546875 333.273438 L 212.261719 331.476563 L 212.546875 329.679688 L 213.371094 328.058594 L 214.660156 326.773438 L 216.28125 325.945313 L 218.078125 325.660156 L 219.875 325.945313 L 221.496094 326.773438 L 222.78125 328.058594 L 223.609375 329.679688 Z M 223.890625 331.476563 "/>
<path style=" stroke:none;fill-rule:nonzero;fill:rgb(80.392157%,58.431373%,4.705882%);fill-opacity:1;" d="M 216.136719 335.355469 L 215.855469 337.152344 L 215.027344 338.773438 L 213.742188 340.058594 L 212.121094 340.882813 L 210.324219 341.167969 L 208.527344 340.882813 L 206.90625 340.058594 L 205.617188 338.773438 L 204.792969 337.152344 L 204.507813 335.355469 L 204.792969 333.558594 L 205.617188 331.9375 L 206.90625 330.648438 L 208.527344 329.824219 L 210.324219 329.539063 L 212.121094 329.824219 L 213.742188 330.648438 L 215.027344 331.9375 L 215.855469 333.558594 Z M 216.136719 335.355469 "/>
<path style=" stroke:none;fill-rule:nonzero;fill:rgb(80.392157%,58.431373%,4.705882%);fill-opacity:1;" d="M 258.785156 339.230469 L 258.5 341.027344 L 257.566406 342.753906 L 256.035156 341.773438 L 253.664063 338.65625 L 252.601563 338.082031 L 247.160156 339.183594 L 247.4375 337.433594 L 248.265625 335.8125 L 249.550781 334.527344 L 251.171875 333.699219 L 252.96875 333.414063 L 254.765625 333.699219 L 256.386719 334.527344 L 257.675781 335.8125 L 258.5 337.433594 Z M 256.183594 344.039063 L 254.765625 344.761719 L 252.96875 345.046875 L 251.171875 344.761719 L 249.550781 343.933594 L 248.265625 342.648438 L 247.4375 341.027344 L 247.289063 340.085938 L 249.617188 339.34375 L 251.976563 339.082031 L 254.382813 342.558594 Z M 256.183594 344.039063 "/>
<path style=" stroke:none;fill-rule:nonzero;fill:rgb(80.392157%,58.431373%,4.705882%);fill-opacity:1;" d="M 287.042969 420.199219 L 286.207031 418.566406 L 285.921875 416.769531 L 286.207031 414.972656 L 287.035156 413.351563 L 288.320313 412.066406 L 289.941406 411.238281 L 291.738281 410.953125 L 292.699219 411.105469 L 293.898438 413.703125 L 295.890625 416.628906 L 296.3125 416.765625 L 296.164063 417.742188 L 294.574219 419.804688 L 292.191406 421.289063 L 289.660156 421.574219 L 288.214844 419.332031 Z M 287.042969 420.199219 "/>
<path style=" stroke:none;fill-rule:nonzero;fill:rgb(80.392157%,58.431373%,4.705882%);fill-opacity:1;" d="M 157.984375 428.398438 L 157.835938 429.335938 L 155.65625 429.589844 L 149.269531 432.308594 L 149.113281 432.746094 L 147.441406 431.769531 L 146.917969 429.308594 L 148.539063 428.378906 L 150.066406 428.890625 L 151.640625 428.421875 L 152.765625 427.832031 L 153.085938 427.097656 L 152.808594 426.597656 L 147.785156 426.460938 L 146.960938 425.96875 L 147.464844 424.980469 L 148.75 423.695313 L 150.371094 422.871094 L 152.167969 422.585938 L 153.964844 422.871094 L 155.585938 423.695313 L 156.875 424.980469 L 157.699219 426.601563 Z M 157.984375 428.398438 "/>
</g>
</svg>
