<?xml version="1.0" encoding="UTF-8"?>
<svg xmlns="http://www.w3.org/2000/svg" xmlns:xlink="http://www.w3.org/1999/xlink" width="378pt" height="504pt" viewBox="0 0 378 504" version="1.1">
<g id="data">
<rect x="0" y="0" width="378" height="504" style="fill:rgb(100%,100%,100%);fill-opacity:1;stroke:none;"/>
<path style=" stroke:none;fill-rule:nonzero;fill:rgb(100%,100%,100%);fill-opacity:1;" d="M 53.308594 504 L 324.691406 504 L 324.691406 0 L 53.308594 0 Z M 53.308594 504 "/>
<path style=" stroke:none;fill-rule:nonzero;fill:rgb(22.745098%,53.333333%,16.078431%);fill-opacity:1;" d="M 219.484375 468.425781 L 219.621094 467.941406 L 220.710938 466.367188 L 222.253906 465.230469 L 224.265625 464.210938 L 225.863281 462.804688 L 227.324219 461.863281 L 228.996094 461.398438 L 230.730469 461.445313 L 232.375 462 L 233.78125 463.019531 L 233.988281 463.222656 L 231.496094 463.171875 L 231.378906 463.496094 L 232.574219 464.835938 L 232.214844 465.75 L 231.738281 466.042969 L 226.691406 465.496094 L 219.566406 468.449219 Z M 235.507813 465.121094 L 235.628906 465.289063 L 235.785156 465.820313 L 235.136719 465.644531 Z M 228.117188 474.644531 L 222.296875 470.886719 L 220.207031 471.1875 L 221.476563 469.683594 L 227.316406 466.367188 L 232.550781 467.761719 L 234.171875 469.894531 L 231.242188 473.621094 L 229.960938 474.269531 Z M 228.117188 474.644531 "/>
<path style=" stroke:none;fill-rule:nonzero;fill:rgb(80.392157%,58.431373%,4.705882%);fill-opacity:1;" d="M 220.015625 300.460938 L 219.730469 302.257813 L 218.90625 303.878906 L 217.617188 305.167969 L 215.996094 305.992188 L 214.199219 306.277344 L 212.402344 305.992188 L 210.78125 305.167969 L 209.496094 303.878906 L 208.667969 302.257813 L 208.382813 300.460938 L 208.667969 298.664063 L 209.496094 297.042969 L 210.78125 295.757813 L 212.402344 294.929688 L 214.199219 294.644531 L 215.996094 294.929688 L 217.617188 295.757813 L 218.90625 297.042969 L 219.730469 298.664063 Z M 220.015625 300.460938 "/>
<path style=" stroke:none;fill-rule:nonzero;fill:rgb(80.392157%,58.431373%,4.705882%);fill-opacity:1;" d="M 123.59375 495.632813 L 122.949219 495.960938 L 121.152344 496.246094 L 119.355469 495.960938 L 117.734375 495.136719 L 116.449219 493.847656 L 115.625 492.226563 L 115.339844 490.429688 L 115.625 488.632813 L 116.367188 487.171875 L 118.144531 485.910156 L 119.261719 484.949219 L 119.355469 484.898438 L 121.152344 484.617188 L 122.949219 484.898438 L 124.570313 485.726563 L 125.859375 487.011719 L 126.683594 488.632813 L 126.847656 489.667969 L 126.714844 489.746094 L 124.039063 490.597656 L 123.132813 494.289063 L 123.664063 495.292969 Z M 123.59375 495.632813 "/>
<path style=" stroke:none;fill-rule:nonzero;fill:rgb(80.392157%,58.431373%,4.705882%);fill-opacity:1;" d="M 254.90625 463.292969 L 254.835938 463.746094 L 244.628906 465.699219 L 243.988281 465.929688 L 243.5625 465.089844 L 243.277344 463.292969 L 243.5625 461.496094 L 244.386719 459.875 L 245.675781 458.585938 L 247.296875 457.761719 L 249.09375 457.476563 L 250.890625 457.761719 L 252.511719 458.585938 L 253.796875 459.875 L 254.625 461.496094 Z M 254.90625 463.292969 "/>
<path style=" stroke:none;fill-rule:nonzero;fill:rgb(80.392157%,58.431373%,4.705882%);fill-opacity:1;" d="M 126.96875 261.691406 L 126.9375 261.898438 L 126.582031 261.613281 L 125.84375 258.257813 L 125.859375 258.273438 L 126.683594 259.894531 Z M 121.164063 267.503906 L 121.152344 267.507813 L 119.355469 267.222656 L 117.734375 266.398438 L 116.449219 265.109375 L 115.902344 264.039063 L 117.226563 262.640625 L 117.917969 256.894531 L 119.355469 256.160156 L 121.152344 255.875 L 122.925781 256.15625 L 121.183594 263.964844 L 122.0625 266.289063 Z M 121.164063 267.503906 "/>
</g>
</svg>
