<?xml version="1.0" encoding="UTF-8"?>
<svg xmlns="http://www.w3.org/2000/svg" xmlns:xlink="http://www.w3.org/1999/xlink" width="378pt" height="504pt" viewBox="0 0 378 504" version="1.1">
<g id="data">
<rect x="0" y="0" width="378" height="504" style="fill:rgb(100%,100%,100%);fill-opacity:1;stroke:none;"/>
<path style=" stroke:none;fill-rule:nonzero;fill:rgb(100%,100%,100%);fill-opacity:1;" d="M 53.308594 504 L 324.691406 504 L 324.691406 0 L 53.308594 0 Z M 53.308594 504 "/>
<path style=" stroke:none;fill-rule:nonzero;fill:rgb(22.745098%,53.333333%,16.078431%);fill-opacity:1;" d="M 202.726563 168.933594 L 204.414063 172 L 207.144531 174.5 L 210.519531 176.019531 L 213.597656 176.335938 L 213.671875 176.582031 L 213.675781 176.957031 L 212.726563 177.972656 L 211.511719 179.902344 L 210.871094 181.554688 L 209.382813 183.425781 L 208.921875 184.441406 L 207.441406 184.746094 L 204.800781 186.046875 L 202.65625 187.871094 L 200.949219 190.269531 L 199.769531 193.644531 L 199.65625 197.097656 L 200.609375 200.542969 L 202.570313 203.539063 L 201.097656 205.109375 L 199.882813 207.039063 L 199.828125 207.175781 L 199.179688 207.605469 L 197.078125 210.023438 L 197.433594 210.839844 L 197.785156 210.703125 L 197.761719 211.238281 L 197.570313 211.859375 L 196.40625 212.449219 L 194.335938 214.171875 L 192.785156 216.210938 L 191.679688 218.664063 L 191.523438 219.484375 L 191.214844 219.742188 L 186.355469 220.890625 L 187.0625 219.046875 L 190.414063 217.199219 L 193.054688 214.257813 L 194.398438 211.21875 L 194.816406 207.414063 L 195.804688 205.195313 L 196.308594 202.816406 L 196.132813 199.246094 L 194.816406 195.785156 L 195.824219 192.480469 L 195.820313 189.027344 L 194.910156 185.960938 L 193.277344 183.355469 L 190.917969 181.195313 L 188.179688 179.800781 L 186.066406 179.273438 L 183.890625 179.148438 L 181.601563 179.464844 L 179.308594 180.277344 L 175.429688 180.277344 L 173.539063 178.011719 L 171.140625 176.292969 L 168.386719 175.238281 L 165.453125 174.90625 L 162.65625 175.289063 L 159.921875 176.398438 L 156.480469 177.222656 L 154.148438 178.5 L 152.167969 180.277344 L 151.796875 178.15625 L 150.980469 176.023438 L 149.765625 174.09375 L 148.292969 172.523438 L 150.894531 170.359375 L 153.71875 166.972656 L 154.855469 165.144531 L 155.960938 161.648438 L 156.070313 160.507813 L 161.363281 161.917969 L 164.042969 162.292969 L 165.242188 161.992188 L 166.015625 161.605469 L 166.75 160.257813 L 167.589844 160.183594 L 167.507813 160.828125 L 166.417969 162.609375 L 162.722656 166.96875 L 162.175781 167.183594 L 161.726563 166.894531 L 161.859375 165.949219 L 161.53125 165.507813 L 159.984375 165.785156 L 155.320313 167.769531 L 152.441406 170.8125 L 151.949219 171.945313 L 152.140625 172.144531 L 156.390625 168.453125 L 157.75 167.980469 L 160.300781 168.324219 L 161.058594 169.320313 L 157.109375 173.804688 L 156.367188 175.339844 L 156.707031 175.816406 L 157.367188 175.984375 L 158.261719 175.542969 L 161.140625 173.015625 L 167.808594 170.273438 L 170.480469 169.527344 L 170.492188 169.949219 L 171.554688 169.839844 L 173.589844 168.316406 L 174.046875 166.78125 L 174.132813 166.769531 L 175.574219 167.722656 L 177.90625 168.453125 L 180.804688 168.800781 L 183.605469 168.78125 L 184.320313 169.011719 L 184.746094 168.773438 L 197.28125 168.683594 L 199.164063 168.988281 Z M 192.3125 227.074219 L 192.546875 227.742188 L 194.042969 229.679688 L 192.117188 231.570313 L 189.460938 232.730469 L 188.34375 232.882813 L 187.070313 232.078125 L 185.40625 232.042969 L 181.046875 235.800781 L 180.578125 237.003906 L 174.761719 240.109375 L 170.214844 238.117188 L 168 238.050781 L 170.238281 235.429688 L 171.167969 233.46875 L 171.734375 231.242188 L 171.855469 228.949219 L 171.554688 226.800781 L 174.160156 227.496094 L 176.726563 227.585938 L 179.375 227.070313 L 181.71875 226.023438 L 183.492188 224.746094 L 185.074219 223.058594 L 185.773438 221.941406 L 186.457031 221.386719 L 187.289063 221.316406 L 189.085938 221.875 L 189.332031 222.921875 L 188.898438 224.691406 L 189.238281 225.953125 L 190.898438 226.824219 Z M 198.847656 242.421875 L 199.679688 243.292969 L 202.769531 245.265625 L 204.917969 245.800781 L 206.488281 246.65625 L 208.910156 251.429688 L 212.824219 256.707031 L 213.265625 256.828125 L 213.433594 256.585938 L 214.601563 257.097656 L 215.101563 257.441406 L 215.390625 258.191406 L 216.605469 260.121094 L 218.078125 261.691406 L 217.429688 264.933594 L 217.53125 267.222656 L 218.078125 269.445313 L 217.53125 271.671875 L 217.4375 274.085938 L 218.335938 280.382813 L 219.574219 283.601563 L 222.277344 286.824219 L 224.496094 288.078125 L 225.945313 294.183594 L 229.304688 299.0625 L 234.761719 301.609375 L 234.957031 301.777344 L 237.085938 303.148438 L 239.460938 304.027344 L 240.160156 304.128906 L 244.476563 306.140625 L 245.742188 307.636719 L 247.265625 310.527344 L 249.09375 315.21875 L 249.09375 315.96875 L 245.214844 315.96875 L 242.796875 315.125 L 240.121094 314.835938 L 237.449219 315.164063 L 234.925781 316.097656 L 233.085938 317.265625 L 231.410156 318.851563 L 230.144531 320.625 L 229.1875 322.726563 L 228.667969 324.972656 L 228.59375 327.152344 L 228.957031 329.429688 L 229.707031 331.476563 L 227.609375 330.554688 L 225.371094 330.0625 L 223.207031 330.007813 L 220.945313 330.390625 L 222.378906 327.125 L 222.753906 323.453125 L 221.953125 319.847656 L 221.605469 316.289063 L 219.910156 312.578125 L 217.144531 309.753906 L 211.074219 306.214844 L 207.472656 305.300781 L 203.769531 305.566406 L 201.703125 306.265625 L 199.695313 307.414063 L 197.964844 308.921875 L 196.632813 310.617188 L 195.296875 313.480469 L 194.269531 318.195313 L 194.207031 320.992188 L 194.816406 323.722656 L 192.617188 324.765625 L 190.6875 326.238281 L 189.105469 328.085938 L 187.988281 330.101563 L 187.160156 333.050781 L 187.0625 335.355469 L 186.441406 338.210938 L 186.480469 340.628906 L 187.667969 344.519531 L 190.03125 347.6875 L 191.851563 349.101563 L 194.035156 350.171875 L 196.390625 350.761719 L 198.691406 350.863281 L 200.238281 351.46875 L 202.570313 354.738281 L 203.203125 357.742188 L 204.605469 360.476563 L 206.671875 362.746094 L 209.257813 364.398438 L 212.441406 365.355469 L 215.894531 365.355469 L 219.074219 364.398438 L 221.953125 362.492188 L 220.785156 365.328125 L 220.394531 368.242188 L 220.785156 371.285156 L 221.953125 374.125 L 221.953125 378 L 220.464844 380.089844 L 219.433594 382.578125 L 219.003906 385.238281 L 219.171875 387.800781 L 220.222656 390.960938 L 222.210938 393.789063 L 224.792969 395.835938 L 227.96875 397.109375 L 225.03125 397.242188 L 222.105469 398.15625 L 219.617188 399.726563 L 217.503906 401.949219 L 216.015625 404.488281 L 215.214844 407.316406 L 215.136719 410.128906 L 215.777344 413 L 210.773438 412.601563 L 206.9375 413.515625 L 204.609375 414.84375 L 202.570313 416.769531 L 199.03125 418.546875 L 196.367188 421.300781 L 194.816406 424.523438 L 193.285156 426.0625 L 192.066406 427.855469 L 191.828125 428.542969 L 190.570313 429.988281 L 189.222656 431.449219 L 185.628906 432.957031 L 183.714844 433.246094 L 182.441406 433.0625 L 178.394531 435.230469 L 177.398438 436.808594 L 177.039063 438.671875 L 176.445313 439.273438 L 174.058594 439.917969 L 170.558594 439.851563 L 166.820313 439 L 166.347656 438.652344 L 163.039063 435.144531 L 166.058594 435.925781 L 168.621094 435.835938 L 171.097656 435.191406 L 173.484375 433.941406 L 175.429688 432.277344 L 178.433594 431.640625 L 181.273438 430.167969 L 183.1875 428.464844 L 184.617188 426.5 L 185.644531 424.152344 L 186.125 421.769531 L 185.960938 418.449219 L 184.804688 415.195313 L 181.910156 411.179688 L 179.308594 409.015625 L 180.375 406.550781 L 180.835938 404.03125 L 180.570313 400.59375 L 179.308594 397.382813 L 179.308594 393.507813 L 180.597656 390.171875 L 180.828125 386.730469 L 180.335938 384.21875 L 179.308594 381.875 L 179.464844 375.746094 L 179.019531 370.816406 L 177.808594 367.722656 L 175.773438 365.097656 L 173.640625 363.46875 L 170.292969 361.863281 L 168.21875 361.203125 L 166.058594 360.9375 L 163.761719 361.101563 L 161.660156 361.671875 L 158.40625 363.1875 L 156.503906 364.492188 L 153.824219 367.746094 L 152.480469 371.738281 L 152.453125 373.195313 L 150.203125 373.105469 L 145.449219 374.257813 L 143.757813 375.484375 L 142.183594 377.878906 L 136.660156 378 L 136.660156 377.304688 L 137.339844 376.066406 L 140.148438 373.019531 L 141.023438 372.414063 L 142.589844 371.953125 L 147.132813 367.984375 L 147.953125 364.523438 L 151.550781 360.582031 L 153.09375 359.609375 L 154.941406 359.808594 L 160.492188 357.457031 L 163.644531 357.28125 L 167.339844 357.714844 L 172.597656 355.179688 L 173.933594 355.046875 L 174.484375 355.082031 L 179.910156 359.441406 L 180.433594 358.429688 L 177.679688 353.460938 L 178.242188 352.835938 L 180.867188 352.449219 L 181.503906 352.695313 L 181.914063 353.875 L 182.898438 354.332031 L 184.078125 356.789063 L 185.613281 357.902344 L 188.359375 357.621094 L 190.335938 355.148438 L 189.90625 355.050781 L 188.667969 355.527344 L 188.3125 355.957031 L 186.378906 356.386719 L 183.8125 354.640625 L 179.976563 346.332031 L 180.214844 345.902344 L 181.503906 344.371094 L 182.664063 341.839844 L 182.75 341.367188 L 183.371094 340.257813 L 185.429688 339.015625 L 185.140625 338.578125 L 183.261719 338.488281 L 183.308594 338.234375 L 183.347656 333.226563 L 183.035156 330.34375 L 182.933594 329.980469 L 184.695313 329.191406 L 187.28125 323.421875 L 187.71875 320.933594 L 187.855469 317.484375 L 184.742188 320.527344 L 179.246094 323.417969 L 178.75 320.996094 L 177.625 318.585938 L 173.988281 314.070313 L 172.472656 312.839844 L 172.289063 311.832031 L 171.222656 310.261719 L 171.144531 309.847656 L 170.363281 307.839844 L 169.148438 305.910156 L 167.675781 304.339844 L 169.804688 301.832031 L 171.109375 298.949219 L 171.679688 295.585938 L 171.605469 293.917969 L 174.074219 288.722656 L 176.464844 286.417969 L 178.757813 285.980469 L 180.191406 286.804688 L 181.015625 286.710938 L 182.933594 286.238281 L 183.03125 285.160156 L 182.34375 284.746094 L 180.035156 285.351563 L 174.65625 284.980469 L 172.566406 284.292969 L 170.164063 284.09375 L 169.449219 282.914063 L 167.675781 281.078125 L 167.675781 277.199219 L 170.191406 276.726563 L 172.433594 275.773438 L 174.425781 274.378906 L 176.160156 272.496094 L 177.441406 270.277344 L 178.179688 267.960938 L 178.421875 265.539063 L 178.125 262.996094 L 177.390625 260.808594 L 176.234375 258.8125 L 174.5625 256.878906 L 172.757813 255.457031 L 170.707031 254.414063 L 168.496094 253.796875 L 166.203125 253.625 L 163.800781 253.9375 L 163.707031 251.652344 L 163.125 249.308594 L 162.070313 247.132813 L 160.679688 245.316406 L 163.089844 244.128906 L 165.164063 242.421875 L 166.589844 240.609375 L 167.148438 239.488281 L 168.246094 240.195313 L 178.0625 241.875 L 182.921875 243.167969 L 186.398438 241.730469 L 187.519531 239.417969 L 188.617188 238.355469 L 189.539063 238.171875 L 193.183594 238.5 Z M 190.9375 257.816406 L 188.300781 258.328125 L 185.738281 259.5 L 183.625 261.160156 L 181.882813 263.375 L 180.761719 265.816406 L 180.222656 268.578125 L 180.363281 271.390625 L 181.121094 273.96875 L 182.230469 275.992188 L 184.628906 279.097656 L 187.0625 281.078125 L 189.320313 283.761719 L 192.804688 286.316406 L 195.273438 287.402344 L 197.921875 287.890625 L 200.613281 287.757813 L 203.199219 287.007813 L 205.957031 285.367188 L 208.222656 282.972656 L 209.683594 280.167969 L 210.324219 277.199219 L 211.800781 275.421875 L 212.84375 273.503906 L 213.542969 271.300781 L 213.789063 269 L 213.546875 266.574219 L 212.859375 264.367188 L 211.601563 262.128906 L 209.976563 260.308594 L 207.894531 258.800781 L 205.535156 257.789063 L 202.113281 257.289063 L 198.691406 257.816406 L 194.816406 257.148438 Z M 190.730469 432.328125 L 190.628906 433.878906 L 190.9375 436.152344 L 189.734375 439.113281 L 189.390625 442.417969 L 189.769531 444.949219 L 190.9375 447.785156 L 191.539063 450.632813 L 193.582031 454.261719 L 196.347656 457.527344 L 198.691406 459.414063 L 200.871094 461.9375 L 204.148438 463.945313 L 207.769531 464.765625 L 211.835938 464.296875 L 217.210938 461.882813 L 220.101563 459.179688 L 221.953125 455.539063 L 224.859375 456.054688 L 227.675781 455.84375 L 230.472656 454.910156 L 232.847656 453.382813 L 235.007813 451.015625 L 236.441406 448.148438 L 237.035156 444.996094 L 236.746094 441.804688 L 235.535156 438.699219 L 233.585938 436.152344 L 233.324219 432.96875 L 232.148438 429.863281 L 229.480469 426.613281 L 225.832031 424.523438 L 225.140625 420.574219 L 225.832031 420.644531 L 227.882813 422.382813 L 230.28125 423.605469 L 232.769531 424.222656 L 235.332031 424.285156 L 238.570313 423.523438 L 241.359375 421.957031 L 243.691406 419.582031 L 245.214844 416.769531 L 248.675781 419.1875 L 250.738281 419.902344 L 252.898438 420.21875 L 257.085938 419.667969 L 260.796875 417.65625 L 263.140625 415.109375 L 264.625 411.984375 L 265.128906 408.558594 L 264.601563 405.136719 L 267.117188 403.066406 L 271.164063 398.039063 L 272.050781 396.058594 L 272.554688 393.949219 L 272.65625 391.78125 L 272.355469 389.628906 L 275.390625 386.695313 L 277.148438 382.992188 L 277.554688 379.8125 L 277.078125 376.636719 L 275.75 373.71875 L 273.851563 371.472656 L 273.9375 371.386719 L 277.058594 372.800781 L 280.878906 373.183594 L 284.617188 372.296875 L 287.023438 370.777344 L 288.230469 370.90625 L 289.789063 373.699219 L 292.761719 376.308594 L 295.933594 377.652344 L 299.492188 378 L 302.769531 380.570313 L 304.878906 381.433594 L 305.878906 381.621094 L 306.730469 384.164063 L 306.84375 385.945313 L 304.128906 387.234375 L 301.582031 389.566406 L 300.316406 391.492188 L 299.492188 393.507813 L 297.878906 395.824219 L 296.871094 398.460938 L 296.535156 400.875 L 296.710938 403.308594 L 297.707031 406.355469 L 299.492188 409.015625 L 299.492188 412.0625 L 298.175781 413.449219 L 297.25 413.839844 L 296.875 414.097656 L 295.578125 412.011719 L 292.742188 410.515625 L 292.480469 410.636719 L 293.898438 413.703125 L 295.074219 415.433594 L 293.148438 417.636719 L 291.738281 420.644531 L 289.8125 421.613281 L 289.660156 421.574219 L 288.214844 419.332031 L 284.976563 421.730469 L 280.71875 424.230469 L 282.339844 425.378906 L 285.105469 424.398438 L 286.097656 423.375 L 286.894531 423.164063 L 287.238281 423.597656 L 286.898438 423.898438 L 285.015625 426.789063 L 284.050781 430.230469 L 284.011719 432.132813 L 283.441406 432.558594 L 282.84375 432.699219 L 279.644531 432.160156 L 274.75 433.78125 L 272.609375 436.117188 L 274.253906 436.015625 L 275.152344 434.667969 L 276.683594 434.363281 L 278.285156 434.328125 L 281.054688 434.949219 L 281.828125 435.589844 L 281.691406 436.328125 L 279.554688 436.347656 L 277.390625 437.65625 L 277.96875 438.546875 L 281.382813 438.964844 L 286.613281 440.277344 L 286.828125 440.59375 L 289.46875 442.835938 L 292.648438 444.199219 L 296.09375 444.570313 L 299.492188 443.90625 L 299.492188 447.785156 L 295.6875 448.199219 L 292.117188 449.902344 L 289.550781 452.386719 L 287.863281 455.539063 L 286.054688 456.898438 L 285.074219 458.089844 L 284.1875 457.9375 L 281.042969 460.90625 L 278.484375 461.933594 L 274.789063 462.777344 L 272.597656 463.816406 L 271.199219 465.703125 L 270.648438 465 L 267.039063 461.84375 L 263.753906 459.890625 L 260.144531 459.117188 L 256.847656 459.414063 L 254.441406 459.105469 L 252.023438 459.296875 L 249.582031 460.039063 L 247.257813 461.367188 L 243.132813 464.910156 L 241.339844 467.167969 L 240.007813 467.3125 L 238.210938 466.1875 L 238.632813 465.4375 L 239.46875 464.933594 L 237.714844 463.296875 L 231.496094 463.171875 L 231.378906 463.496094 L 232.574219 464.835938 L 232.214844 465.75 L 231.738281 466.042969 L 226.691406 465.496094 L 219.566406 468.449219 L 217.054688 467.824219 L 210.222656 468.96875 L 208.164063 468.875 L 207.273438 468.058594 L 206.238281 469.769531 L 209.429688 471.089844 L 209.714844 470.9375 L 210.1875 472.128906 L 209.566406 473.890625 L 208.277344 474.15625 L 206.960938 473.667969 L 205.316406 473.585938 L 204.453125 473.097656 L 203.015625 472.699219 L 197.625 472.007813 L 196.175781 472.65625 L 195.679688 473.863281 L 195.832031 474.871094 L 196.757813 475.523438 L 196.488281 476.304688 L 195.917969 475.996094 L 194.851563 473.972656 L 190.863281 471.015625 L 188.644531 469.054688 L 185.792969 467.6875 L 182.308594 466.996094 L 179.886719 466.871094 L 177.367188 467.28125 L 175.113281 468.175781 L 173.191406 469.433594 L 170.566406 472.03125 L 170.152344 472.605469 L 168.992188 473.234375 L 168.214844 474.070313 L 167.203125 476.179688 L 162.746094 489.226563 L 160.929688 490.242188 L 158.269531 489.722656 L 157.554688 489.058594 L 156.527344 486.851563 L 154.683594 485.4375 L 153.613281 485.542969 L 152.417969 486.300781 L 151.917969 486.199219 L 151.300781 485.675781 L 148.46875 482.535156 L 144.828125 482.808594 L 142.792969 482.519531 L 135.65625 482.804688 L 133.574219 483.363281 L 131.632813 484.292969 L 128.179688 487.257813 L 126.464844 489.824219 L 124.039063 490.597656 L 123.132813 494.289063 L 123.664063 495.292969 L 123.640625 495.398438 L 122.859375 496.015625 L 121.910156 497.222656 L 120.660156 497.648438 L 120.394531 498.183594 L 118.253906 498.183594 L 117.96875 497.691406 L 118.09375 496.4375 L 117.15625 494.691406 L 115.984375 493.691406 L 112.253906 492.070313 L 111.410156 491.984375 L 110.375 492.488281 L 110.242188 494.183594 L 110.007813 494.453125 L 108.527344 494.183594 L 105.644531 494.308594 L 105.441406 494.242188 L 105.628906 491.574219 L 106.074219 490.5625 L 107.289063 490.027344 L 109.207031 489.558594 L 111.523438 488.253906 L 111.703125 488.09375 L 111.738281 488.078125 L 112.199219 488.253906 L 112.445313 488.9375 L 113.574219 489.15625 L 118.144531 485.910156 L 121.425781 483.085938 L 122.328125 482.070313 L 124.894531 480.746094 L 127.355469 478.148438 L 128.90625 474.921875 L 131.253906 473.035156 L 131.5 472.738281 L 132.105469 472.640625 L 132.679688 471.785156 L 132.855469 471.097656 L 134.703125 468.859375 L 135.042969 468.175781 L 135.859375 467.5625 L 138.636719 464.640625 L 138.765625 463.070313 L 139.089844 463.035156 L 141.40625 462.28125 L 143.519531 461.054688 L 145.242188 459.515625 L 146.753906 457.441406 L 147.738281 455.207031 L 148.082031 452.871094 L 148.429688 452.488281 L 148.339844 451.121094 L 148.425781 450.539063 L 148.292969 447.785156 L 148.542969 447.386719 L 151.105469 446.613281 L 157.421875 446.269531 L 159.910156 445.683594 L 164.597656 446.761719 L 166.046875 446.148438 L 167.527344 446.515625 L 169.484375 447.285156 L 170.039063 448.109375 L 170.757813 448.421875 L 173.15625 448.464844 L 180.570313 447.503906 L 181.109375 445.632813 L 181.210938 443.15625 L 182.519531 440.25 Z M 284.589844 436.546875 L 285.304688 438.367188 L 286.101563 439.53125 L 283.058594 438.976563 L 282.164063 437.605469 L 282.484375 436.070313 Z M 233.816406 469.425781 L 231.398438 471.773438 L 230.097656 474.199219 L 229.960938 474.269531 L 228.117188 474.644531 L 222.296875 470.886719 L 220.207031 471.1875 L 221.476563 469.683594 L 227.316406 466.367188 L 232.550781 467.761719 Z M 148.105469 432.160156 L 147.148438 431.1875 L 146.917969 429.308594 L 148.539063 428.378906 L 150.066406 428.890625 L 151.640625 428.421875 L 152.765625 427.832031 L 153.085938 427.097656 L 152.808594 426.597656 L 147.785156 426.460938 L 143.210938 423.710938 L 139.503906 423.714844 L 136.765625 424.277344 L 136.292969 426.515625 L 135.777344 427.203125 L 133.742188 427.917969 L 132.394531 427.265625 L 131.746094 427.429688 L 131.210938 426.925781 L 129.28125 425.710938 L 129.140625 425.65625 L 131.792969 424.328125 L 131.226563 422.867188 L 130.640625 424.257813 L 127.769531 424.613281 L 125 424.347656 L 124.65625 422.402344 L 124.417969 421.773438 L 125.167969 421.753906 L 125.464844 421.238281 L 124.929688 417.953125 L 123.328125 417.210938 L 121.46875 417.105469 L 121.453125 417.085938 L 121.578125 416.691406 L 123.398438 416.359375 L 125.40625 415.582031 L 127.335938 414.363281 L 128.90625 412.890625 L 131.964844 412.660156 L 134.859375 411.636719 L 136.792969 410.390625 L 138.367188 408.886719 L 139.628906 407.113281 L 139.859375 406.617188 L 141.359375 406.660156 L 142.21875 406.390625 L 145.035156 404.589844 L 144.445313 407.28125 L 144.464844 410.933594 L 145.105469 413.675781 L 146.386719 416.179688 L 148.917969 418.878906 L 152.167969 420.644531 L 152.648438 423.132813 L 153.59375 425.347656 L 156.046875 428.398438 L 156.59375 429.480469 L 155.65625 429.589844 L 149.269531 432.308594 L 149.113281 432.746094 Z M 152.613281 375.398438 L 153.042969 377.304688 L 154.308594 379.824219 L 156.046875 381.875 L 153.667969 383.890625 L 153.59375 383.808594 L 154.652344 381.796875 L 152.269531 378.203125 Z M 140.539063 357.78125 L 140.539063 355.167969 L 140.597656 355.164063 L 141.484375 356.3125 L 142.226563 358.1875 L 141.734375 358.875 L 141.003906 358.070313 Z M 142.164063 354.453125 L 142.660156 354.363281 L 144.789063 353.550781 L 146.71875 352.335938 L 147.667969 351.445313 L 149.566406 352.007813 L 151.039063 355.578125 L 155.546875 356.503906 L 154.066406 358.859375 L 150.984375 360.816406 L 147.425781 363.976563 L 146.109375 363.875 L 144.195313 361.613281 L 142.050781 357.363281 Z M 156.199219 159.050781 L 156.046875 157.015625 L 159.410156 157.796875 L 162.429688 157.570313 L 162.671875 158.175781 L 162.078125 159.632813 L 159.644531 160.289063 L 156.839844 159.359375 Z M 182.351563 114.929688 L 181.996094 113.996094 L 180.78125 112.066406 L 179.308594 110.492188 L 179.308594 106.617188 L 182.253906 105.011719 L 184.519531 106.003906 L 186.230469 108.273438 L 187.324219 111.371094 L 189.425781 112.382813 L 190.734375 113.441406 L 191.015625 113.949219 L 190.9375 114.371094 L 189.09375 115.820313 L 186.777344 113.90625 L 184.832031 114.03125 Z M 186.195313 99.75 L 186.679688 98.667969 L 186.777344 97.710938 L 188.613281 98.375 L 189.644531 99.757813 L 189.558594 100.558594 L 189.007813 101.453125 L 189.121094 100.265625 L 187.730469 99.058594 L 186.953125 98.894531 L 186.835938 99.515625 L 186.335938 100.011719 Z M 194.816406 99.613281 L 194.816406 101.175781 L 194.695313 101.191406 L 193.226563 103.421875 L 193.136719 102.113281 Z M 140.539063 322.660156 L 140.539063 316.175781 L 142.300781 315.023438 L 142.765625 314.121094 L 144.414063 312.09375 L 147.265625 309.644531 L 147.996094 308.644531 L 149.046875 308.269531 L 149.160156 308.785156 L 148.394531 311.203125 L 148.132813 313.84375 L 148.226563 317.394531 L 147.847656 318.148438 L 145.464844 320.492188 L 144.039063 321.035156 L 142.109375 322.25 L 141.417969 322.898438 Z M 140.265625 240.484375 L 140.539063 238.429688 L 143.601563 240.886719 L 147.304688 242.183594 L 145.773438 242.25 L 141.261719 240.453125 L 140.441406 240.5625 Z M 138.394531 269.886719 L 140.539063 269.445313 L 138.191406 271.332031 L 138.074219 271.488281 Z M 135.207031 275.480469 L 134.664063 276.441406 L 133.933594 278.757813 L 133.707031 281.433594 L 134.097656 284.09375 L 135.089844 286.589844 L 136.628906 288.792969 L 135.035156 287.316406 L 133.191406 286.160156 L 131.046875 285.332031 L 129.3125 285.027344 L 129.40625 284.378906 L 130.898438 282.660156 L 131.664063 281.085938 L 132.777344 280.410156 L 134.003906 276.632813 Z M 117.34375 261.664063 L 119.742188 260.621094 L 121.894531 259.011719 L 122.4375 258.347656 L 121.6875 261.714844 L 119.402344 261.53125 L 117.34375 261.6875 Z M 126.210938 253.015625 L 127.144531 252.289063 L 126.023438 254.714844 L 125.566406 257 L 125.375 256.128906 L 125.988281 253.21875 Z M 114.390625 221.871094 L 115.945313 219.445313 L 117.328125 219.867188 Z M 236.835938 466.113281 L 235.136719 465.644531 L 236.523438 463.683594 L 237.195313 464.164063 L 237.5 465.839844 Z M 88.429688 500.046875 L 88.566406 499.308594 L 88.941406 499.117188 L 89.34375 499.789063 Z M 88.429688 500.046875 "/>
</g>
</svg>
