<?xml version="1.0" encoding="UTF-8"?>
<svg xmlns="http://www.w3.org/2000/svg" xmlns:xlink="http://www.w3.org/1999/xlink" width="378pt" height="504pt" viewBox="0 0 378 504" version="1.1">
<g id="data">
<rect x="0" y="0" width="378" height="504" style="fill:rgb(100%,100%,100%);fill-opacity:1;stroke:none;"/>
<path style=" stroke:none;fill-rule:nonzero;fill:rgb(100%,100%,100%);fill-opacity:1;" d="M 53.308594 504 L 324.691406 504 L 324.691406 0 L 53.308594 0 Z M 53.308594 504 "/>
<path style=" stroke:none;fill-rule:nonzero;fill:rgb(22.745098%,53.333333%,16.078431%);fill-opacity:1;" d="M 187.753906 419.742188 L 191.855469 418.742188 L 195.238281 416.433594 L 197.613281 413.097656 L 198.691406 409.015625 L 200.570313 410.714844 L 202.769531 411.972656 L 205.066406 412.695313 L 207.945313 413.046875 L 214.199219 412.890625 L 216.988281 413.207031 L 219.398438 412.933594 L 222.941406 411.511719 L 225.832031 409.015625 L 229.078125 411.066406 L 232.8125 411.953125 L 235.125 411.875 L 237.371094 411.34375 L 239.472656 410.378906 L 241.339844 409.015625 L 244.230469 410.914063 L 247.425781 411.855469 L 250.886719 411.839844 L 254.070313 410.859375 L 258.652344 407.65625 L 260.722656 405.136719 L 263.15625 403.160156 L 264.601563 401.261719 L 267.875 399.792969 L 270.550781 397.398438 L 272.164063 394.777344 L 273.035156 391.820313 L 273.101563 388.742188 L 272.355469 385.753906 L 274.523438 384.046875 L 276.230469 381.875 L 278.804688 380.738281 L 281.035156 379.015625 L 282.847656 376.699219 L 283.984375 374.125 L 283.984375 381.875 L 281.660156 384.710938 L 280.625 387.023438 L 280.109375 389.628906 L 278.558594 391.304688 L 277.363281 393.246094 L 275.625 398.933594 L 273.484375 400.257813 L 271.367188 402.246094 L 269.964844 404.203125 L 268.996094 406.40625 L 268.324219 410.515625 L 268.476563 420.644531 L 267.660156 424.660156 L 268.289063 428.710938 L 270.28125 432.289063 L 272.953125 434.6875 L 273.640625 434.992188 L 272.609375 436.117188 L 274.253906 436.015625 L 274.636719 435.441406 L 276.230469 436.152344 L 277.488281 437.808594 L 277.96875 438.546875 L 278.339844 438.59375 L 280.109375 440.03125 L 282.125 442.410156 L 279.855469 444.078125 L 277.984375 446.351563 L 276.785156 448.898438 L 276.230469 451.660156 L 273.082031 453.351563 L 270.59375 455.917969 L 268.890625 459.488281 L 268.476563 463.292969 L 266.308594 465 L 265.730469 465.730469 L 262.632813 464.796875 L 260.722656 463.292969 L 261.363281 460.277344 L 261.160156 457.078125 L 260.09375 454.050781 L 258.328125 451.527344 L 256.070313 449.625 L 253.285156 448.3125 L 250.636719 447.796875 L 246.910156 447.863281 L 244.65625 448.390625 L 242.664063 449.289063 L 240.777344 450.628906 L 239.273438 452.214844 L 237.757813 454.75 L 236.929688 457.582031 L 236.832031 460.40625 L 237.460938 463.292969 L 231.496094 463.171875 L 231.378906 463.496094 L 232.574219 464.835938 L 232.214844 465.75 L 231.738281 466.042969 L 226.691406 465.496094 L 219.566406 468.449219 L 217.054688 467.824219 L 210.222656 468.96875 L 208.164063 468.875 L 207.273438 468.058594 L 206.238281 469.769531 L 209.429688 471.089844 L 209.714844 470.9375 L 209.96875 471.574219 L 208.28125 472.777344 L 206.847656 474.453125 L 206.84375 474.453125 L 206.25 474.117188 L 205.574219 471.363281 L 204.269531 469.046875 L 202.570313 467.167969 L 202.195313 465.046875 L 201.378906 462.917969 L 200.164063 460.988281 L 198.691406 459.414063 L 201.417969 458.285156 L 203.773438 456.503906 L 205.601563 454.183594 L 206.789063 451.480469 L 207.257813 447.792969 L 206.445313 443.90625 L 206.445313 440.03125 L 207.289063 437.609375 L 207.582031 435.0625 L 206.964844 431.28125 L 204.992188 427.699219 L 201.902344 425.023438 L 199.324219 423.886719 L 198.253906 423.699219 L 198.070313 423.238281 L 197.8125 423.082031 L 197.222656 423.519531 L 196.546875 423.402344 L 193.734375 423.601563 L 190.9375 424.523438 L 189.644531 421.933594 Z M 236.542969 463.699219 L 236.5 463.71875 L 236.523438 463.683594 Z M 231.597656 467.507813 L 230.84375 468.46875 L 229.707031 471.046875 L 227.539063 472.753906 L 226.746094 473.761719 L 222.296875 470.886719 L 221.390625 471.015625 L 220.605469 470.710938 L 221.476563 469.683594 L 227.316406 466.367188 Z M 202.570313 343.109375 L 204.796875 343.019531 L 207.085938 342.46875 L 206.535156 344.757813 L 206.445313 346.984375 L 204.738281 344.8125 Z M 202.570313 343.109375 "/>
</g>
</svg>
