<?xml version="1.0" encoding="UTF-8"?>
<svg xmlns="http://www.w3.org/2000/svg" xmlns:xlink="http://www.w3.org/1999/xlink" width="378pt" height="504pt" viewBox="0 0 378 504" version="1.1">
<g id="data">
<rect x="0" y="0" width="378" height="504" style="fill:rgb(100%,100%,100%);fill-opacity:1;stroke:none;"/>
<path style=" stroke:none;fill-rule:nonzero;fill:rgb(100%,100%,100%);fill-opacity:1;" d="M 53.308594 504 L 324.691406 504 L 324.691406 0 L 53.308594 0 Z M 53.308594 504 "/>
<path style=" stroke:none;fill-rule:nonzero;fill:rgb(22.745098%,53.333333%,16.078431%);fill-opacity:1;" d="M 267.9375 445.765625 L 266.261719 445.007813 L 264.90625 443.765625 L 264.007813 442.160156 L 263.652344 440.359375 L 263.878906 438.535156 L 264.667969 436.871094 L 265.929688 435.535156 L 267.550781 434.664063 L 269.359375 434.339844 L 274.320313 434.25 L 272.609375 436.117188 L 274.253906 436.015625 L 275.152344 434.667969 L 276.683594 434.363281 L 276.945313 434.355469 L 278.257813 434.582031 L 280.113281 435.699219 L 280.820313 436.335938 L 279.554688 436.347656 L 277.390625 437.65625 L 277.96875 438.546875 L 281.382813 438.964844 L 286.863281 440.339844 L 289.394531 439.9375 L 291.074219 438.957031 L 299.742188 437.757813 L 300.988281 440.148438 L 300.773438 446.324219 L 300.335938 447.820313 L 299.394531 449.050781 L 296.972656 450.242188 L 295.839844 450.375 L 293.882813 451.144531 L 292.941406 450.8125 L 291.5 450.691406 L 289.964844 450.964844 L 288.664063 451.574219 L 287.460938 452.578125 L 286.632813 453.730469 L 285.816406 455.871094 L 284.9375 457.417969 L 284.34375 457.964844 L 284.1875 457.9375 L 283.292969 458.78125 L 282.015625 459.378906 L 280.253906 459.613281 L 278.5 459.300781 L 276.925781 458.472656 L 275.671875 457.207031 L 274.863281 455.625 L 274.570313 453.867188 L 274.550781 452.238281 L 274.339844 451.191406 L 273.886719 450.105469 L 273.386719 449.347656 L 270.480469 446.667969 L 269.574219 446.210938 Z M 282.214844 437.363281 L 282.773438 437.664063 L 286.570313 438.601563 L 287.863281 438.730469 L 287.894531 438.726563 L 287.960938 438.832031 L 286.679688 439.636719 L 283.058594 438.976563 L 282.164063 437.605469 Z M 239.5 415.695313 L 240.242188 413.753906 L 241.621094 412.199219 L 243.246094 410.921875 L 244.519531 409.296875 L 245.945313 408.003906 L 247.710938 407.242188 L 250.511719 406.558594 L 251.46875 406.023438 L 252.964844 404.6875 L 254.257813 403.808594 L 255.742188 403.304688 L 257.621094 402.941406 L 258.675781 402.492188 L 259.851563 401.648438 L 261.53125 399.851563 L 262.289063 398.433594 L 262.800781 396.125 L 263.332031 394.671875 L 264.234375 393.410156 L 265.324219 392.242188 L 265.9375 391.269531 L 266.347656 390.195313 L 266.625 388.621094 L 267.5625 386.335938 L 268.804688 384.53125 L 269.339844 383.03125 L 269.457031 381.765625 L 269.253906 380.347656 L 268.761719 379.121094 L 268.300781 378.46875 L 270.21875 378.804688 L 270.625 378.746094 L 271.910156 376.796875 L 272.234375 374.960938 L 273.40625 371.914063 L 274.707031 370.632813 L 277.851563 370.085938 L 280.371094 370.152344 L 281.085938 370.921875 L 281.859375 372.664063 L 282.03125 374.5625 L 281.90625 376.183594 L 282.046875 377.582031 L 282.746094 379.804688 L 283.28125 380.667969 L 285.507813 383.335938 L 287.703125 385.160156 L 289.007813 386.699219 L 289.707031 388.59375 L 289.714844 390.613281 L 289.21875 393.507813 L 289.714844 396.402344 L 289.773438 397.957031 L 289.414063 399.472656 L 288.664063 400.835938 L 287.652344 402.207031 L 286.925781 403.75 L 286.046875 405.097656 L 284.832031 406.152344 L 283.371094 406.835938 L 281.78125 407.089844 L 279.527344 407.136719 L 278.242188 407.425781 L 277.003906 408.019531 L 275.996094 408.824219 L 275.289063 409.691406 L 274.742188 410.722656 L 274.4375 411.730469 L 274.261719 413.46875 L 273.824219 415.183594 L 272.886719 416.683594 L 271.546875 417.832031 L 269.921875 418.527344 L 266.917969 419.296875 L 265.96875 419.847656 L 264.652344 421.054688 L 263.351563 421.957031 L 261.855469 422.472656 L 259.890625 422.863281 L 258.886719 423.3125 L 256.660156 425.140625 L 255.414063 425.921875 L 254.011719 426.367188 L 252.328125 426.671875 L 251.320313 427.074219 L 250.175781 427.835938 L 249.347656 428.714844 L 248.40625 430.53125 L 248.125 432.5 L 248.492188 434.339844 L 249.9375 436.820313 L 250.621094 438.632813 L 250.621094 438.671875 L 251.578125 438.261719 L 253.453125 438.113281 L 255.273438 438.570313 L 257.515625 439.535156 L 259.136719 440.585938 L 260.328125 442.113281 L 260.949219 443.945313 L 260.9375 445.878906 L 260.289063 447.703125 L 259.609375 448.929688 L 258.390625 450.445313 L 256.914063 451.371094 L 258.125 451.945313 L 259.464844 453.238281 L 262.363281 457.09375 L 264.441406 458.820313 L 265.613281 460.148438 L 266.335938 461.765625 L 266.535156 463.527344 L 266.191406 465.269531 L 265.910156 465.785156 L 259.269531 463.777344 L 256.070313 463.507813 L 244.628906 465.699219 L 242.703125 466.390625 L 242.113281 466.964844 L 242.085938 467.101563 L 241.429688 466.386719 L 240.738281 464.890625 L 240.703125 465.015625 L 239.546875 466.585938 L 239.210938 466.816406 L 238.210938 466.1875 L 238.632813 465.4375 L 239.46875 464.933594 L 237.714844 463.296875 L 231.496094 463.171875 L 231.378906 463.496094 L 232.574219 464.835938 L 232.214844 465.75 L 231.738281 466.042969 L 226.691406 465.496094 L 219.566406 468.449219 L 217.054688 467.824219 L 212.425781 468.601563 L 211.792969 468.414063 L 210.726563 468.316406 L 209.644531 468.417969 L 208.144531 468.855469 L 207.273438 468.058594 L 206.660156 469.078125 L 206.445313 469.109375 L 202.570313 469.109375 L 200.683594 468.792969 L 199 467.882813 L 197.703125 466.476563 L 196.933594 464.726563 L 196.773438 462.820313 L 197.242188 460.964844 L 198.285156 459.359375 L 199.792969 458.183594 L 202.21875 456.863281 L 203.457031 455.542969 L 204.253906 453.796875 L 204.539063 451.0625 L 205.023438 449.261719 L 206.054688 447.710938 L 207.527344 446.5625 L 209.28125 445.941406 L 210.976563 445.632813 L 211.949219 445.253906 L 212.933594 444.632813 L 214.101563 443.539063 L 215.78125 442.441406 L 217.738281 441.980469 L 219.734375 441.863281 L 221.140625 441.433594 L 222.164063 440.84375 L 222.9375 440.152344 L 223.859375 438.835938 L 224.398438 437.304688 L 224.5 435.816406 L 224.011719 433.449219 L 223.90625 431.847656 L 224.246094 430.28125 L 225 428.863281 L 226.113281 427.707031 L 227.738281 426.429688 L 229.011719 424.804688 L 230.394531 423.535156 L 232.109375 422.773438 L 235.027344 422.011719 L 237.015625 420.632813 L 238.085938 419.511719 L 238.742188 418.519531 L 239.164063 417.484375 Z M 252.453125 451.464844 L 251.160156 450.84375 L 249.785156 449.46875 L 248.230469 447.277344 L 247.402344 445.589844 L 247.328125 445.035156 L 247.308594 445.050781 L 245.433594 445.542969 L 240.285156 446.003906 L 238.113281 446.871094 L 237.441406 447.378906 L 236.652344 448.261719 L 236.113281 449.167969 L 235.785156 450.089844 L 235.578125 452.652344 L 235.992188 454.46875 L 236.992188 456.097656 L 239.203125 457.917969 L 240.476563 459.390625 L 241.023438 460.777344 L 241.683594 459.585938 L 243.007813 458.347656 L 244.644531 457.578125 L 246.554688 457.023438 L 247.777344 456.324219 L 248.785156 455.367188 L 249.914063 453.597656 L 251.15625 452.210938 Z M 233.605469 469.148438 L 231.140625 469.441406 L 229.886719 470.027344 L 228.425781 471.347656 L 227.046875 473.851563 L 226.992188 473.921875 L 222.296875 470.886719 L 220.207031 471.1875 L 221.476563 469.683594 L 227.316406 466.367188 L 232.550781 467.761719 Z M 240.296875 329.445313 L 238.335938 328.703125 L 236.765625 327.316406 L 235.492188 325.695313 L 233.867188 324.417969 L 232.695313 323.179688 L 231.933594 321.652344 L 231.648438 319.972656 L 231.859375 318.28125 L 232.554688 316.726563 L 233.671875 315.4375 L 235.113281 314.527344 L 237.039063 313.675781 L 238.132813 312.832031 L 239.050781 311.65625 L 239.894531 309.742188 L 240.804688 308.300781 L 242.09375 307.1875 L 243.652344 306.492188 L 244.664063 306.363281 L 245.742188 307.636719 L 247.265625 310.527344 L 249.289063 315.722656 L 252.390625 319.148438 L 254.871094 320.296875 L 254.824219 320.828125 L 254.328125 323.722656 L 254.335938 323.785156 L 253.890625 324.554688 L 253.765625 325.996094 L 254.675781 328.980469 L 254.320313 330.148438 L 253.285156 331.628906 L 251.847656 332.71875 L 250.144531 333.320313 L 248.34375 333.367188 L 246.609375 332.859375 L 245.117188 331.84375 L 243.949219 330.75 L 242.964844 330.128906 L 241.992188 329.753906 Z M 236.835938 466.113281 L 235.136719 465.644531 L 236.523438 463.683594 L 237.195313 464.164063 L 237.5 465.839844 Z M 236.835938 466.113281 "/>
<path style=" stroke:none;fill-rule:nonzero;fill:rgb(80.392157%,58.431373%,4.705882%);fill-opacity:1;" d="M 223.890625 331.476563 L 223.609375 333.273438 L 222.78125 334.894531 L 221.496094 336.183594 L 219.875 337.007813 L 218.078125 337.292969 L 216.28125 337.007813 L 214.660156 336.183594 L 213.371094 334.894531 L 212.546875 333.273438 L 212.261719 331.476563 L 212.546875 329.679688 L 213.371094 328.058594 L 214.660156 326.773438 L 216.28125 325.945313 L 218.078125 325.660156 L 219.875 325.945313 L 221.496094 326.773438 L 222.78125 328.058594 L 223.609375 329.679688 Z M 223.890625 331.476563 "/>
<path style=" stroke:none;fill-rule:nonzero;fill:rgb(80.392157%,58.431373%,4.705882%);fill-opacity:1;" d="M 216.136719 335.355469 L 215.855469 337.152344 L 215.027344 338.773438 L 213.742188 340.058594 L 212.121094 340.882813 L 210.324219 341.167969 L 208.527344 340.882813 L 206.90625 340.058594 L 205.617188 338.773438 L 204.792969 337.152344 L 204.507813 335.355469 L 204.792969 333.558594 L 205.617188 331.9375 L 206.90625 330.648438 L 208.527344 329.824219 L 210.324219 329.539063 L 212.121094 329.824219 L 213.742188 330.648438 L 215.027344 331.9375 L 215.855469 333.558594 Z M 216.136719 335.355469 "/>
<path style=" stroke:none;fill-rule:nonzero;fill:rgb(80.392157%,58.431373%,4.705882%);fill-opacity:1;" d="M 258.785156 339.230469 L 258.5 341.027344 L 257.675781 342.648438 L 257.566406 342.753906 L 257.507813 342.753906 L 256.035156 341.773438 L 253.664063 338.65625 L 252.601563 338.082031 L 247.160156 339.183594 L 247.4375 337.433594 L 248.265625 335.8125 L 249.550781 334.527344 L 251.171875 333.699219 L 252.96875 333.414063 L 254.765625 333.699219 L 256.386719 334.527344 L 257.675781 335.8125 L 258.5 337.433594 Z M 256.183594 344.039063 L 254.765625 344.761719 L 252.96875 345.046875 L 251.171875 344.761719 L 249.550781 343.933594 L 248.265625 342.648438 L 247.4375 341.027344 L 247.289063 340.085938 L 249.617188 339.34375 L 251.976563 339.082031 L 254.382813 342.558594 Z M 256.183594 344.039063 "/>
<path style=" stroke:none;fill-rule:nonzero;fill:rgb(80.392157%,58.431373%,4.705882%);fill-opacity:1;" d="M 287.042969 420.199219 L 287.035156 420.1875 L 286.207031 418.566406 L 285.921875 416.769531 L 286.207031 414.972656 L 287.035156 413.351563 L 288.320313 412.066406 L 289.941406 411.238281 L 291.738281 410.953125 L 292.699219 411.105469 L 293.898438 413.703125 L 295.890625 416.628906 L 296.3125 416.765625 L 296.164063 417.742188 L 294.574219 419.804688 L 292.191406 421.289063 L 290.003906 421.65625 L 289.660156 421.574219 L 288.214844 419.332031 Z M 296.359375 413.265625 L 296.441406 413.351563 L 296.585938 413.632813 Z M 296.359375 413.265625 "/>
<path style=" stroke:none;fill-rule:nonzero;fill:rgb(80.392157%,58.431373%,4.705882%);fill-opacity:1;" d="M 157.984375 428.398438 L 157.835938 429.335938 L 155.65625 429.589844 L 149.269531 432.308594 L 149.113281 432.746094 L 147.441406 431.769531 L 147.152344 431.207031 L 146.917969 429.308594 L 148.539063 428.378906 L 150.066406 428.890625 L 151.640625 428.421875 L 152.765625 427.832031 L 153.085938 427.097656 L 152.808594 426.597656 L 147.785156 426.460938 L 146.960938 425.96875 L 147.464844 424.980469 L 148.75 423.695313 L 150.371094 422.871094 L 152.167969 422.585938 L 153.964844 422.871094 L 155.585938 423.695313 L 156.875 424.980469 L 157.699219 426.601563 Z M 157.984375 428.398438 "/>
</g>
</svg>
