<?xml version="1.0" encoding="UTF-8"?>
<svg xmlns="http://www.w3.org/2000/svg" xmlns:xlink="http://www.w3.org/1999/xlink" width="378pt" height="504pt" viewBox="0 0 378 504" version="1.1">
<g id="data">
<rect x="0" y="0" width="378" height="504" style="fill:rgb(100%,100%,100%);fill-opacity:1;stroke:none;"/>
<path style=" stroke:none;fill-rule:nonzero;fill:rgb(100%,100%,100%);fill-opacity:1;" d="M 53.308594 504 L 324.691406 504 L 324.691406 0 L 53.308594 0 Z M 53.308594 504 "/>
<path style=" stroke:none;fill-rule:nonzero;fill:rgb(22.745098%,53.333333%,16.078431%);fill-opacity:1;" d="M 295.617188 374.125 L 295.960938 377.664063 L 297.425781 381.042969 L 299.875 383.792969 L 302.941406 385.59375 L 299.296875 384.9375 L 295.628906 385.460938 L 292.210938 387.183594 L 289.609375 389.820313 L 287.863281 393.507813 L 285.910156 396.515625 L 284.945313 400.234375 L 284.984375 402.671875 L 285.492188 404.925781 L 286.5 407.148438 L 287.863281 409.015625 L 282.574219 409.019531 L 279.8125 409.539063 L 276.820313 410.984375 L 274.28125 413.316406 L 272.734375 415.816406 L 271.84375 418.742188 L 271.734375 421.664063 L 272.355469 424.523438 L 271.800781 426.769531 L 271.699219 429.082031 L 272.367188 432.347656 L 273.710938 434.914063 L 272.609375 436.117188 L 274.253906 436.015625 L 274.414063 435.773438 L 276.167969 437.597656 L 279.066406 439.246094 L 281.417969 439.894531 L 283.984375 440.03125 L 286.574219 441.132813 L 289.351563 441.582031 L 292.65625 441.234375 L 295.617188 440.03125 L 299.492188 440.03125 L 299.492188 447.785156 L 297.25 448.191406 L 295.242188 448.972656 L 293.3125 450.1875 L 291.738281 451.660156 L 289.359375 451.507813 L 286.605469 451.832031 L 284.535156 452.4375 L 282.613281 453.410156 L 280.632813 454.984375 L 278.046875 457.9375 L 276.789063 460.5625 L 276.414063 462.40625 L 274.789063 462.777344 L 272.597656 463.816406 L 272.15625 464.414063 L 271.980469 464.480469 L 270.050781 465.695313 L 268.96875 466.710938 L 267.242188 466.1875 L 265.3125 464.65625 L 261.480469 463.378906 L 258.972656 463.132813 L 245.214844 463.292969 L 241.277344 463.042969 L 239.152344 463.476563 L 238.285156 463.832031 L 237.714844 463.296875 L 231.496094 463.171875 L 231.378906 463.496094 L 232.574219 464.835938 L 232.214844 465.75 L 231.738281 466.042969 L 226.691406 465.496094 L 221.074219 467.824219 L 221.046875 467.808594 L 217.453125 467.082031 L 214.695313 467.097656 L 212.324219 467.480469 L 210.175781 468.246094 L 209.0625 468.914063 L 208.164063 468.875 L 207.273438 468.058594 L 206.238281 469.769531 L 207.339844 470.226563 L 206.445313 471.046875 L 202.890625 470.761719 L 199.539063 471.523438 L 198.453125 472.113281 L 197.625 472.007813 L 196.175781 472.65625 L 195.679688 473.863281 L 195.710938 474.085938 L 195.175781 474.585938 L 194.851563 473.972656 L 194.175781 473.472656 L 193.679688 472.347656 L 191.953125 470.121094 L 189.746094 468.371094 L 187.0625 467.167969 L 186.964844 464.871094 L 186.414063 462.632813 L 185.4375 460.550781 L 184.152344 458.796875 L 187.9375 459.589844 L 190.234375 459.71875 L 192.878906 459.300781 L 195.359375 458.289063 L 197.636719 456.648438 L 199.644531 454.332031 L 200.898438 451.953125 L 201.589844 449.222656 L 201.644531 446.789063 L 201.226563 444.523438 L 200.371094 442.382813 L 199.027344 440.351563 L 197.394531 438.726563 L 195.46875 437.457031 L 193.332031 436.589844 L 190.9375 436.152344 L 191.628906 435.453125 L 194.816406 436.152344 L 197.777344 437.355469 L 200.695313 437.710938 L 203.609375 437.324219 L 206.445313 436.152344 L 209.488281 436.464844 L 212.386719 436.003906 L 215.1875 434.773438 L 218.078125 432.277344 L 221.328125 430.507813 L 223.167969 428.730469 L 224.632813 426.480469 L 225.597656 423.703125 L 225.832031 420.644531 L 226.425781 418.042969 L 226.453125 415.75 L 226.0625 413.621094 L 225.066406 410.992188 L 223.660156 408.851563 L 221.195313 406.621094 L 218.078125 405.136719 L 218.367188 404.316406 L 221.410156 404.726563 L 224.453125 404.324219 L 227.285156 403.144531 L 229.707031 401.261719 L 230.59375 403.535156 L 231.933594 405.578125 L 233.671875 407.292969 L 235.726563 408.605469 L 238.011719 409.460938 L 240.429688 409.824219 L 242.863281 409.671875 L 245.335938 408.96875 L 247.925781 407.570313 L 250.164063 405.460938 L 251.769531 402.84375 L 252.617188 400.023438 L 252.761719 397.59375 L 252.429688 395.308594 L 251.171875 392.230469 L 249.09375 389.628906 L 249.09375 385.753906 L 250.097656 388.257813 L 251.652344 390.460938 L 253.675781 392.246094 L 256.050781 393.519531 L 258.277344 394.148438 L 260.585938 394.324219 L 264.601563 393.507813 L 268.03125 393.191406 L 270.890625 392.074219 L 273.355469 390.246094 L 275.054688 388.167969 L 276.230469 385.753906 L 278.582031 383.769531 L 280.273438 381.351563 L 281.269531 378.710938 L 281.601563 375.777344 L 281.183594 372.855469 L 280.109375 370.246094 L 283.363281 370.246094 L 284.253906 370.867188 L 284.671875 370.847656 L 286.765625 372.671875 L 290.042969 374.074219 L 292.828125 374.4375 Z M 237.214844 464.269531 L 237.144531 464.296875 L 235.222656 465.558594 L 235.144531 465.632813 L 236.523438 463.683594 L 237.195313 464.164063 Z M 231.628906 467.515625 L 231.464844 467.542969 L 229.332031 468.359375 L 227.402344 469.574219 L 225.832031 471.046875 L 223.640625 469.125 L 223.015625 468.808594 L 227.316406 466.367188 Z M 225.832031 339.230469 L 224.691406 336.65625 L 222.96875 334.429688 L 220.761719 332.679688 L 218.078125 331.476563 L 220.695313 330.164063 L 222.820313 328.335938 L 224.503906 325.9375 L 225.535156 323.195313 L 226.273438 326.664063 L 228.023438 329.75 L 230.816406 332.355469 L 234.039063 333.925781 L 237.203125 334.4375 L 240.511719 334.03125 L 242.785156 333.148438 L 245.214844 331.476563 L 248.097656 330.148438 L 247.640625 332.511719 L 247.667969 334.792969 L 248.136719 337.023438 L 248.917969 338.828125 L 247.632813 339.089844 L 245.921875 338.925781 L 245.070313 339.078125 L 244.589844 338.644531 L 243.40625 338.558594 L 241.210938 339.871094 L 241.5 340.117188 L 239.921875 340.890625 L 237.460938 343.109375 L 235.109375 340.960938 L 232.136719 339.492188 L 229.003906 338.925781 Z M 167.675781 215.167969 L 170.90625 214.449219 L 173.90625 212.773438 L 176.210938 210.398438 L 177.75 207.46875 L 179.957031 209.371094 L 182.683594 210.707031 L 185.160156 211.246094 L 189.691406 211.433594 L 192.691406 211.011719 L 195.078125 210.160156 L 197.019531 208.964844 L 200.351563 206.1875 L 199.925781 207.113281 L 199.179688 207.605469 L 197.078125 210.023438 L 197.433594 210.839844 L 197.785156 210.703125 L 197.761719 211.238281 L 197.253906 212.898438 L 196.917969 213.273438 L 195.6875 215.484375 L 195.511719 216.207031 L 191.214844 219.742188 L 185.519531 221.085938 L 182.847656 221.226563 L 177.804688 225.21875 L 178.117188 225.714844 L 179.84375 225.195313 L 184.609375 222.886719 L 186.457031 221.386719 L 187.289063 221.316406 L 189.085938 221.875 L 189.332031 222.921875 L 188.898438 224.691406 L 189.238281 225.953125 L 190.898438 226.824219 L 192.988281 227.191406 L 193.902344 228.15625 L 194.347656 229.382813 L 192.117188 231.570313 L 189.460938 232.730469 L 188.34375 232.882813 L 187.070313 232.078125 L 185.40625 232.042969 L 181.046875 235.800781 L 180.578125 237.003906 L 174.761719 240.109375 L 170.542969 238.261719 L 171.074219 237.039063 L 171.554688 234.554688 L 173.074219 232.816406 L 174.167969 230.933594 L 174.976563 228.5 L 175.234375 226.078125 L 174.6875 222.539063 L 173.164063 219.441406 L 170.796875 216.925781 Z M 198.824219 242.40625 L 199.492188 243.125 L 202.769531 245.265625 L 204.917969 245.800781 L 206.488281 246.65625 L 208.910156 251.429688 L 212.824219 256.707031 L 213.265625 256.828125 L 213.433594 256.585938 L 214.601563 257.097656 L 217.371094 258.992188 L 218.078125 261.207031 L 218.078125 261.691406 L 217.410156 265.570313 L 218.078125 269.445313 L 215.667969 269.558594 L 213.332031 270.164063 L 211.742188 267.167969 L 209.144531 264.417969 L 206.59375 262.769531 L 203.578125 261.820313 L 199.78125 261.378906 L 196.628906 261.839844 L 193.503906 263.28125 L 190.9375 265.570313 L 188.507813 264.542969 L 185.90625 264.09375 L 187.371094 260.714844 L 187.699219 256.921875 L 186.71875 252.96875 L 184.808594 249.796875 L 181.992188 247.386719 L 178.457031 245.917969 L 174.921875 245.53125 L 171.554688 246.183594 L 169.78125 244.09375 L 167.566406 242.476563 L 169.261719 240.367188 L 178.0625 241.875 L 182.921875 243.167969 L 186.398438 241.730469 L 187.519531 239.417969 L 188.617188 238.355469 L 189.539063 238.171875 L 193.183594 238.5 Z M 183.183594 409.015625 L 186.539063 407.167969 L 189.039063 404.441406 L 190.558594 401.066406 L 190.9375 397.382813 L 192.964844 398.851563 L 195.261719 399.847656 L 195.347656 402.398438 L 195.988281 404.871094 L 197.082031 407.035156 L 198.691406 409.015625 L 195.84375 409.613281 L 193.234375 410.902344 L 188.949219 414.421875 L 187.0625 416.769531 L 186.6875 414.648438 L 185.871094 412.519531 L 184.65625 410.585938 Z M 156.046875 160.890625 L 157.273438 163.285156 L 159.019531 165.335938 L 159.757813 165.878906 L 155.574219 167.660156 L 155.746094 167.320313 L 156.351563 164.0625 Z M 176.824219 166.410156 L 177.480469 167.179688 L 173.71875 169.921875 L 171.554688 172.523438 L 167.625 172.972656 L 163.972656 174.789063 L 161.535156 177.230469 L 159.921875 180.277344 L 158.214844 178.105469 L 156.046875 176.398438 L 153.976563 173.882813 L 152.167969 172.523438 L 153.9375 170.585938 L 156.390625 168.453125 L 157.75 167.980469 L 160.300781 168.324219 L 161.058594 169.320313 L 157.109375 173.804688 L 156.367188 175.339844 L 156.707031 175.816406 L 157.367188 175.984375 L 158.261719 175.542969 L 161.140625 173.015625 L 167.808594 170.273438 L 170.480469 169.527344 L 170.492188 169.949219 L 171.554688 169.839844 L 173.589844 168.316406 L 174.046875 166.78125 Z M 159.921875 357.699219 L 159.921875 358.617188 L 159.539063 357.859375 Z M 144.304688 285.015625 L 148.292969 284.953125 L 151.417969 286.195313 L 149.21875 288.050781 L 149.214844 288.042969 L 149.230469 287.167969 L 148.945313 287.023438 L 148.15625 288.078125 L 148.058594 288.546875 L 146.527344 286.683594 Z M 117.277344 486.554688 L 116.613281 490.429688 L 117.277344 494.308594 L 116.550781 494.175781 L 115.984375 493.691406 L 112.253906 492.070313 L 111.410156 491.984375 L 111.304688 492.035156 L 111.09375 491.902344 L 109.523438 490.429688 L 111.644531 490.058594 L 113.773438 489.242188 L 115.703125 488.027344 Z M 117.277344 486.554688 "/>
</g>
</svg>
