<?xml version="1.0" encoding="UTF-8"?>
<svg xmlns="http://www.w3.org/2000/svg" xmlns:xlink="http://www.w3.org/1999/xlink" width="378pt" height="504pt" viewBox="0 0 378 504" version="1.1">
<g id="data">
<rect x="0" y="0" width="378" height="504" style="fill:rgb(100%,100%,100%);fill-opacity:1;stroke:none;"/>
<path style=" stroke:none;fill-rule:nonzero;fill:rgb(100%,100%,100%);fill-opacity:1;" d="M 53.308594 504 L 324.691406 504 L 324.691406 0 L 53.308594 0 Z M 53.308594 504 "/>
<path style=" stroke:none;fill-rule:nonzero;fill:rgb(80.392157%,58.431373%,4.705882%);fill-opacity:1;" d="M 126.96875 490.429688 L 126.683594 492.226563 L 125.859375 493.847656 L 124.570313 495.136719 L 122.949219 495.960938 L 121.152344 496.246094 L 119.355469 495.960938 L 117.734375 495.136719 L 116.449219 493.847656 L 115.625 492.226563 L 115.339844 490.429688 L 115.625 488.632813 L 116.449219 487.011719 L 117.734375 485.726563 L 119.355469 484.898438 L 121.152344 484.617188 L 122.949219 484.898438 L 124.570313 485.726563 L 125.859375 487.011719 L 126.683594 488.632813 Z M 126.96875 490.429688 "/>
<path style=" stroke:none;fill-rule:nonzero;fill:rgb(80.392157%,58.431373%,4.705882%);fill-opacity:1;" d="M 130.847656 486.554688 L 130.5625 488.351563 L 129.734375 489.972656 L 128.449219 491.257813 L 126.828125 492.085938 L 125.03125 492.371094 L 123.234375 492.085938 L 121.613281 491.257813 L 120.324219 489.972656 L 119.5 488.351563 L 119.214844 486.554688 L 119.5 484.757813 L 120.324219 483.136719 L 121.613281 481.847656 L 123.234375 481.023438 L 125.03125 480.738281 L 126.828125 481.023438 L 128.449219 481.847656 L 129.734375 483.136719 L 130.5625 484.757813 Z M 130.847656 486.554688 "/>
<path style=" stroke:none;fill-rule:nonzero;fill:rgb(80.392157%,58.431373%,4.705882%);fill-opacity:1;" d="M 134.722656 474.921875 L 134.4375 476.71875 L 133.613281 478.339844 L 132.324219 479.628906 L 130.703125 480.453125 L 128.90625 480.738281 L 127.109375 480.453125 L 125.488281 479.628906 L 124.203125 478.339844 L 123.375 476.71875 L 123.09375 474.921875 L 123.375 473.125 L 124.203125 471.503906 L 125.488281 470.21875 L 127.109375 469.390625 L 128.90625 469.109375 L 130.703125 469.390625 L 132.324219 470.21875 L 133.613281 471.503906 L 134.4375 473.125 Z M 134.722656 474.921875 "/>
<path style=" stroke:none;fill-rule:nonzero;fill:rgb(80.392157%,58.431373%,4.705882%);fill-opacity:1;" d="M 92.078125 502.0625 L 91.792969 503.859375 L 90.964844 505.480469 L 89.679688 506.765625 L 88.058594 507.59375 L 86.261719 507.875 L 84.464844 507.59375 L 82.84375 506.765625 L 81.558594 505.480469 L 80.730469 503.859375 L 80.445313 502.0625 L 80.730469 500.265625 L 81.558594 498.644531 L 82.84375 497.355469 L 84.464844 496.53125 L 86.261719 496.246094 L 88.058594 496.53125 L 89.679688 497.355469 L 90.964844 498.644531 L 91.792969 500.265625 Z M 92.078125 502.0625 "/>
</g>
</svg>
