<?xml version="1.0" encoding="UTF-8"?>
<svg xmlns="http://www.w3.org/2000/svg" xmlns:xlink="http://www.w3.org/1999/xlink" width="378pt" height="504pt" viewBox="0 0 378 504" version="1.1">
<g id="data">
<rect x="0" y="0" width="378" height="504" style="fill:rgb(100%,100%,100%);fill-opacity:1;stroke:none;"/>
<path style=" stroke:none;fill-rule:nonzero;fill:rgb(100%,100%,100%);fill-opacity:1;" d="M 53.308594 504 L 324.691406 504 L 324.691406 0 L 53.308594 0 Z M 53.308594 504 "/>
<path style=" stroke:none;fill-rule:nonzero;fill:rgb(22.745098%,53.333333%,16.078431%);fill-opacity:1;" d="M 200.71875 411.882813 L 201.3125 410.160156 L 202.40625 408.707031 L 203.898438 407.664063 L 205.640625 407.132813 L 207.460938 407.167969 L 210.226563 407.65625 L 213.25 407.15625 L 214.949219 407.125 L 216.730469 407.355469 L 217.832031 407.261719 L 219.816406 406.503906 L 222.054688 404.59375 L 223.519531 403.679688 L 225.191406 403.234375 L 226.914063 403.300781 L 228.546875 403.871094 L 229.9375 404.898438 L 230.964844 406.285156 L 231.539063 407.914063 L 231.902344 409.789063 L 232.367188 410.875 L 233.054688 411.859375 L 233.941406 412.691406 L 234.988281 413.328125 L 236.128906 413.726563 L 237.332031 413.882813 L 238.542969 413.78125 L 239.703125 413.429688 L 240.902344 412.773438 L 243.101563 411.0625 L 244.558594 409.25 L 246.117188 407.894531 L 248.050781 407.171875 L 249.746094 406.863281 L 250.71875 406.484375 L 251.703125 405.863281 L 252.871094 404.769531 L 254.234375 403.820313 L 256.90625 402.476563 L 258.160156 401.195313 L 259.375 398.707031 L 260.414063 397.226563 L 261.859375 396.132813 L 263.570313 395.539063 L 265.378906 395.5 L 267.101563 395.730469 L 268.148438 395.671875 L 269.269531 395.382813 L 270.820313 394.636719 L 272.480469 394.125 L 274.214844 394.128906 L 275.871094 394.640625 L 277.304688 395.617188 L 278.382813 396.976563 L 279.015625 398.59375 L 279.140625 400.320313 L 278.753906 402.011719 L 277.882813 403.511719 L 275.25 406.796875 L 274.421875 408.707031 L 273.710938 412.691406 L 274.21875 415.847656 L 274.292969 416.769531 L 274.292969 420.644531 L 274.003906 422.460938 L 273.160156 424.09375 L 272.136719 425.484375 L 271.652344 426.523438 L 271.382813 427.636719 L 271.347656 428.558594 L 271.871094 430.71875 L 273.050781 432.457031 L 274.664063 433.601563 L 275.011719 433.695313 L 274.75 433.78125 L 272.609375 436.117188 L 274.253906 436.015625 L 275.152344 434.667969 L 276.683594 434.363281 L 277.480469 434.347656 L 277.714844 434.40625 L 279.507813 435.226563 L 280.65625 436.335938 L 279.554688 436.347656 L 277.390625 437.65625 L 277.96875 438.546875 L 281.382813 438.964844 L 281.890625 439.09375 L 282.039063 440.324219 L 281.605469 442.25 L 280.726563 444.382813 L 280.539063 445.796875 L 280.730469 447.324219 L 281.605469 449.445313 L 282.027344 451.175781 L 281.902344 452.953125 L 281.242188 454.609375 L 280.117188 455.988281 L 278.621094 456.960938 L 276.90625 457.4375 L 274.902344 457.671875 L 273.644531 458.128906 L 272.523438 458.863281 L 271.59375 459.847656 L 270.945313 460.949219 L 270.574219 462.082031 L 270.28125 464.90625 L 270.394531 466.660156 L 269.761719 466.949219 L 259.269531 463.777344 L 256.070313 463.507813 L 254.925781 463.726563 L 255.019531 462.148438 L 255.511719 459.707031 L 255.363281 458.0625 L 254.746094 456.511719 L 253.785156 455.269531 L 252.503906 454.328125 L 251.058594 453.789063 L 248.335938 453.617188 L 246.714844 453.875 L 245.738281 454.269531 L 244.703125 454.960938 L 243.910156 455.773438 L 243.289063 456.722656 L 242.835938 457.882813 L 242.648438 459.003906 L 242.683594 460.136719 L 243.113281 461.929688 L 243.242188 463.9375 L 242.675781 465.871094 L 241.484375 467.492188 L 240.90625 467.878906 L 238.210938 466.1875 L 238.632813 465.4375 L 239.46875 464.933594 L 237.714844 463.296875 L 231.496094 463.171875 L 231.378906 463.496094 L 232.574219 464.835938 L 232.214844 465.75 L 231.738281 466.042969 L 226.691406 465.496094 L 219.566406 468.449219 L 217.054688 467.824219 L 210.222656 468.96875 L 208.164063 468.875 L 207.273438 468.058594 L 206.238281 469.769531 L 209.429688 471.089844 L 209.714844 470.9375 L 210.1875 472.128906 L 209.566406 473.890625 L 206.84375 474.453125 L 205.066406 473.445313 L 204.597656 472.054688 L 204.320313 470.484375 L 203.90625 469.40625 L 203.292969 468.433594 L 202.203125 467.269531 L 201.175781 465.75 L 200.671875 463.992188 L 200.742188 462.160156 L 201.375 460.445313 L 202.511719 459.007813 L 204.039063 458 L 205.804688 457.511719 L 207.699219 457.300781 L 208.976563 456.855469 L 210.105469 456.132813 L 210.933594 455.273438 L 211.894531 453.457031 L 212.335938 450.734375 L 213 448.824219 L 214.277344 447.257813 L 216.152344 445.640625 L 217.121094 444.113281 L 217.503906 442.851563 L 217.578125 441.421875 L 217.355469 440.199219 L 216.601563 438.429688 L 216.144531 436.402344 L 216.070313 434.679688 L 215.804688 433.597656 L 215.246094 432.4375 L 214.390625 431.371094 L 213.40625 430.59375 L 211.679688 429.765625 L 210.390625 428.914063 L 208.601563 427.363281 L 207.859375 426.972656 L 205.257813 426.390625 L 202.726563 426.460938 L 200.800781 426.1875 L 199.074219 425.292969 L 198.058594 424.222656 L 198.285156 423.78125 L 198.070313 423.238281 L 197.8125 423.082031 L 197.488281 423.324219 L 196.941406 422.109375 L 196.773438 420.175781 L 197.253906 418.289063 L 198.324219 416.671875 L 199.417969 415.503906 L 200.03125 414.53125 L 200.441406 413.457031 Z M 236.835938 466.113281 L 235.136719 465.644531 L 236.523438 463.683594 L 237.195313 464.164063 L 237.5 465.839844 Z M 228.117188 474.644531 L 222.296875 470.886719 L 220.207031 471.1875 L 221.476563 469.683594 L 227.316406 466.367188 L 232.550781 467.761719 L 234.171875 469.894531 L 231.242188 473.621094 L 229.960938 474.269531 Z M 228.117188 474.644531 "/>
<path style=" stroke:none;fill-rule:nonzero;fill:rgb(80.392157%,58.431373%,4.705882%);fill-opacity:1;" d="M 185.125 378 L 184.839844 379.796875 L 184.011719 381.417969 L 182.726563 382.703125 L 181.105469 383.53125 L 179.308594 383.816406 L 177.511719 383.53125 L 175.890625 382.703125 L 174.601563 381.417969 L 173.777344 379.796875 L 173.492188 378 L 173.777344 376.203125 L 174.601563 374.582031 L 175.890625 373.296875 L 177.511719 372.46875 L 179.308594 372.183594 L 181.105469 372.46875 L 182.726563 373.296875 L 184.011719 374.582031 L 184.839844 376.203125 Z M 185.125 378 "/>
<path style=" stroke:none;fill-rule:nonzero;fill:rgb(80.392157%,58.431373%,4.705882%);fill-opacity:1;" d="M 220.015625 335.355469 L 219.730469 337.152344 L 218.90625 338.773438 L 217.617188 340.058594 L 215.996094 340.882813 L 214.199219 341.167969 L 212.402344 340.882813 L 210.78125 340.058594 L 209.496094 338.773438 L 208.667969 337.152344 L 208.382813 335.355469 L 208.667969 333.558594 L 209.496094 331.9375 L 210.78125 330.648438 L 212.402344 329.824219 L 214.199219 329.539063 L 215.996094 329.824219 L 217.617188 330.648438 L 218.90625 331.9375 L 219.730469 333.558594 Z M 220.015625 335.355469 "/>
<path style=" stroke:none;fill-rule:nonzero;fill:rgb(80.392157%,58.431373%,4.705882%);fill-opacity:1;" d="M 185.125 416.769531 L 184.839844 418.566406 L 184.011719 420.1875 L 182.726563 421.472656 L 181.105469 422.300781 L 179.308594 422.585938 L 177.511719 422.300781 L 175.890625 421.472656 L 174.601563 420.1875 L 173.777344 418.566406 L 173.492188 416.769531 L 173.777344 414.972656 L 174.601563 413.351563 L 175.890625 412.066406 L 177.511719 411.238281 L 179.308594 410.953125 L 181.105469 411.238281 L 182.726563 412.066406 L 184.011719 413.351563 L 184.839844 414.972656 Z M 185.125 416.769531 "/>
<path style=" stroke:none;fill-rule:nonzero;fill:rgb(80.392157%,58.431373%,4.705882%);fill-opacity:1;" d="M 204.507813 257.816406 L 204.222656 259.613281 L 203.398438 261.234375 L 202.109375 262.519531 L 200.488281 263.347656 L 198.691406 263.628906 L 196.894531 263.347656 L 195.273438 262.519531 L 193.988281 261.234375 L 193.160156 259.613281 L 192.875 257.816406 L 193.160156 256.019531 L 193.988281 254.398438 L 195.273438 253.109375 L 196.894531 252.285156 L 198.691406 252 L 200.488281 252.285156 L 202.109375 253.109375 L 203.398438 254.398438 L 204.222656 256.019531 Z M 204.507813 257.816406 "/>
<path style=" stroke:none;fill-rule:nonzero;fill:rgb(80.392157%,58.431373%,4.705882%);fill-opacity:1;" d="M 289.800781 381.875 L 289.515625 383.675781 L 288.6875 385.296875 L 287.402344 386.582031 L 285.78125 387.40625 L 283.984375 387.691406 L 282.1875 387.40625 L 280.566406 386.582031 L 279.28125 385.296875 L 278.453125 383.675781 L 278.167969 381.875 L 278.453125 380.078125 L 279.28125 378.457031 L 280.566406 377.171875 L 282.1875 376.347656 L 283.984375 376.0625 L 285.78125 376.347656 L 287.402344 377.171875 L 288.6875 378.457031 L 289.515625 380.078125 Z M 289.800781 381.875 "/>
<path style=" stroke:none;fill-rule:nonzero;fill:rgb(80.392157%,58.431373%,4.705882%);fill-opacity:1;" d="M 289.800781 378 L 289.515625 379.796875 L 288.6875 381.417969 L 287.402344 382.703125 L 285.78125 383.53125 L 283.984375 383.816406 L 282.1875 383.53125 L 280.566406 382.703125 L 279.28125 381.417969 L 278.453125 379.796875 L 278.167969 378 L 278.453125 376.203125 L 279.28125 374.582031 L 280.566406 373.296875 L 282.1875 372.46875 L 283.984375 372.183594 L 285.78125 372.46875 L 287.402344 373.296875 L 288.6875 374.582031 L 289.515625 376.203125 Z M 289.800781 378 "/>
<path style=" stroke:none;fill-rule:nonzero;fill:rgb(80.392157%,58.431373%,4.705882%);fill-opacity:1;" d="M 196.683594 424.960938 L 196.46875 426.320313 L 195.644531 427.941406 L 194.355469 429.226563 L 192.734375 430.054688 L 192.355469 430.113281 L 195.792969 425.3125 Z M 190.335938 430.242188 L 189.140625 430.054688 L 187.519531 429.226563 L 186.234375 427.941406 L 185.40625 426.320313 L 185.125 424.523438 L 185.40625 422.726563 L 186.234375 421.105469 L 187.519531 419.816406 L 189.140625 418.992188 L 190.9375 418.707031 L 192.734375 418.992188 L 194.355469 419.816406 L 195.644531 421.105469 L 196.46875 422.726563 L 196.660156 423.9375 L 196.09375 424.355469 L 192.90625 427.300781 L 190.570313 429.988281 Z M 190.335938 430.242188 "/>
<path style=" stroke:none;fill-rule:nonzero;fill:rgb(80.392157%,58.431373%,4.705882%);fill-opacity:1;" d="M 289.800781 374.125 L 289.515625 375.921875 L 288.6875 377.542969 L 287.402344 378.828125 L 285.78125 379.652344 L 283.984375 379.9375 L 282.1875 379.652344 L 280.566406 378.828125 L 279.28125 377.542969 L 278.453125 375.921875 L 278.167969 374.125 L 278.453125 372.324219 L 279.28125 370.703125 L 279.847656 370.140625 L 283.34375 370.234375 L 284.253906 370.867188 L 286.703125 370.742188 L 288.824219 370.96875 L 289.515625 372.324219 Z M 289.800781 374.125 "/>
<path style=" stroke:none;fill-rule:nonzero;fill:rgb(80.392157%,58.431373%,4.705882%);fill-opacity:1;" d="M 188.9375 224.535156 L 188.859375 224.578125 L 187.0625 224.863281 L 185.265625 224.578125 L 183.644531 223.75 L 183.375 223.484375 L 184.609375 222.886719 L 186.457031 221.386719 L 187.289063 221.316406 L 189.085938 221.875 L 189.332031 222.921875 Z M 182.046875 221.859375 L 181.53125 220.84375 L 181.246094 219.046875 L 181.53125 217.25 L 182.355469 215.628906 L 183.644531 214.339844 L 185.265625 213.515625 L 187.0625 213.230469 L 188.859375 213.515625 L 190.480469 214.339844 L 191.765625 215.628906 L 192.59375 217.25 L 192.78125 218.449219 L 191.214844 219.742188 L 185.519531 221.085938 L 182.847656 221.226563 Z M 182.046875 221.859375 "/>
<path style=" stroke:none;fill-rule:nonzero;fill:rgb(80.392157%,58.431373%,4.705882%);fill-opacity:1;" d="M 287.042969 420.199219 L 287.035156 420.1875 L 286.207031 418.566406 L 285.921875 416.769531 L 286.207031 414.972656 L 287.035156 413.351563 L 288.320313 412.066406 L 289.941406 411.238281 L 291.738281 410.953125 L 292.699219 411.105469 L 293.898438 413.703125 L 295.890625 416.628906 L 296.3125 416.765625 L 296.164063 417.742188 L 294.574219 419.804688 L 292.191406 421.289063 L 290.003906 421.65625 L 289.660156 421.574219 L 288.214844 419.332031 Z M 296.359375 413.265625 L 296.441406 413.351563 L 296.585938 413.632813 Z M 296.359375 413.265625 "/>
</g>
</svg>
