<?xml version="1.0" encoding="UTF-8"?>
<svg xmlns="http://www.w3.org/2000/svg" xmlns:xlink="http://www.w3.org/1999/xlink" width="378pt" height="504pt" viewBox="0 0 378 504" version="1.1">
<g id="data">
<rect x="0" y="0" width="378" height="504" style="fill:rgb(100%,100%,100%);fill-opacity:1;stroke:none;"/>
<path style=" stroke:none;fill-rule:nonzero;fill:rgb(100%,100%,100%);fill-opacity:1;" d="M 53.308594 504 L 324.691406 504 L 324.691406 0 L 53.308594 0 Z M 53.308594 504 "/>
<path style=" stroke:none;fill-rule:nonzero;fill:rgb(22.745098%,53.333333%,16.078431%);fill-opacity:1;" d="M 263.164063 458.589844 L 264.601563 455.539063 L 267.027344 455.28125 L 269.347656 454.527344 L 271.457031 453.300781 L 273.265625 451.664063 L 275.464844 448.058594 L 276.230469 443.90625 L 279.464844 445.953125 L 283.3125 446.851563 L 281.171875 449.402344 L 279.8125 452.582031 L 279.445313 456.019531 L 280.109375 459.414063 L 278.402344 461.585938 L 277.746094 462.101563 L 275.585938 462.59375 L 273.71875 460.570313 L 270.476563 458.777344 L 266.832031 458.09375 Z M 129.421875 285.835938 L 129.574219 284.953125 L 129.4375 284.167969 L 129.71875 282.265625 L 129.847656 282.183594 L 131.261719 283.84375 L 134.351563 286.285156 L 136.246094 287.371094 L 140.085938 288.378906 L 144.164063 288 L 146.320313 287.164063 L 148.265625 285.921875 L 150.015625 284.21875 L 151.308594 282.300781 L 152.195313 280.167969 L 152.644531 277.898438 L 152.636719 275.585938 L 152.167969 273.324219 L 154.4375 275.199219 L 157.105469 276.449219 L 160.003906 276.984375 L 162.941406 276.777344 L 165.730469 275.839844 L 168.199219 274.230469 L 170.179688 272.050781 L 171.554688 269.445313 L 171.023438 271.546875 L 170.894531 273.707031 L 171.921875 279.347656 L 173.375 282.617188 L 175.558594 285.042969 L 174.65625 284.980469 L 172.566406 284.292969 L 169.453125 284.03125 L 168.226563 288.992188 L 166.234375 288.695313 L 163.3125 290.011719 L 161.832031 291.855469 L 159.410156 293.515625 L 156.15625 293.3125 L 155.160156 292.984375 L 149.984375 289.230469 L 149.214844 288.042969 L 149.230469 287.167969 L 148.945313 287.023438 L 148.15625 288.078125 L 147.988281 288.910156 L 148.375 290.554688 L 149.574219 292.960938 L 149.839844 295.726563 L 149.308594 296.871094 L 148.746094 297.058594 L 145.816406 295.78125 L 144.601563 294.238281 L 144.507813 293.621094 L 143.632813 292.355469 L 141.613281 291.4375 L 140.164063 290.433594 L 138.398438 288.636719 L 137.464844 288.296875 L 135.511719 289.683594 L 134.605469 291.238281 L 135.976563 295.472656 L 136.734375 296.308594 L 136.882813 297.757813 L 136.386719 297.453125 L 134.554688 297.011719 L 134.359375 296.304688 L 134.707031 295.457031 L 134.59375 294.480469 L 133.472656 292.679688 L 130.894531 289.722656 L 129.605469 286.988281 Z M 177.425781 286.234375 L 179.433594 287.335938 L 183.472656 287.941406 L 187.472656 287.113281 L 190.9375 284.953125 L 190.632813 288.125 L 191.199219 291.261719 L 192.597656 294.125 L 194.816406 296.585938 L 192.128906 298.84375 L 189.324219 302.777344 L 188.179688 306.042969 L 188.046875 309.5 L 188.652344 312.125 L 189.847656 314.539063 L 192.382813 317.867188 L 194.816406 319.847656 L 192.128906 322.105469 L 189.144531 326.371094 L 188.074219 329.785156 L 188.09375 333.363281 L 189.320313 336.992188 L 191.65625 340.027344 L 194.855469 342.140625 L 198.691406 343.109375 L 198.386719 346.277344 L 198.953125 349.414063 L 200.421875 352.382813 L 202.570313 354.738281 L 199.964844 356.902344 L 197 360.351563 L 195.761719 362.289063 L 194.582031 366.183594 L 194.816406 370.246094 L 193.203125 372.5625 L 192.195313 375.199219 L 191.855469 378 L 192.195313 380.800781 L 193.203125 383.4375 L 194.816406 385.753906 L 191.910156 385.238281 L 188.84375 385.5 L 185.949219 386.554688 L 183.4375 388.332031 L 181.476563 390.707031 L 180.25 393.390625 L 179.726563 396.425781 L 180.023438 399.488281 L 181.050781 402.253906 L 182.738281 404.675781 L 185.128906 406.804688 L 187.992188 408.222656 L 191.007813 408.800781 L 193.941406 408.597656 L 196.84375 407.609375 L 199.390625 405.894531 L 198.691406 409.015625 L 195.921875 411.367188 L 193.113281 414.769531 L 191.859375 416.96875 L 190.867188 421.144531 L 190.9375 424.523438 L 189.972656 426.761719 L 189.503906 429.027344 L 189.578125 431.066406 L 189.222656 431.449219 L 185.628906 432.957031 L 183.714844 433.246094 L 182.441406 433.0625 L 178.394531 435.230469 L 177.398438 436.808594 L 177.039063 438.671875 L 176.445313 439.273438 L 174.058594 439.917969 L 170.558594 439.851563 L 166.820313 439 L 166.347656 438.652344 L 161.371094 433.375 L 159.03125 429.199219 L 155.65625 429.589844 L 149.269531 432.308594 L 149.113281 432.746094 L 147.203125 431.632813 L 146.917969 429.308594 L 148.539063 428.378906 L 150.066406 428.890625 L 151.640625 428.421875 L 152.765625 427.832031 L 153.085938 427.097656 L 152.808594 426.597656 L 147.785156 426.460938 L 143.210938 423.710938 L 139.503906 423.714844 L 136.765625 424.277344 L 136.292969 426.515625 L 135.777344 427.203125 L 133.742188 427.917969 L 132.394531 427.265625 L 131.648438 427.453125 L 130.226563 428.695313 L 128.90625 428.398438 L 127.304688 426.363281 L 127.425781 426.082031 L 128.796875 425.832031 L 131.792969 424.328125 L 131.226563 422.867188 L 130.640625 424.257813 L 127.769531 424.613281 L 125 424.347656 L 124.621094 422.277344 L 124.425781 421.773438 L 125.167969 421.753906 L 125.464844 421.238281 L 124.929688 417.953125 L 123.328125 417.210938 L 121.46875 417.105469 L 121.453125 417.085938 L 121.683594 416.351563 L 123.324219 415.0625 L 123.925781 414.300781 L 125.933594 413.378906 L 126.191406 412.753906 L 129.082031 412.40625 L 130.773438 411.539063 L 133.074219 411.34375 L 134.871094 409.289063 L 135.753906 407.632813 L 137.585938 406.550781 L 141.359375 406.660156 L 142.21875 406.390625 L 149.359375 401.828125 L 152.136719 398.207031 L 153.054688 396.195313 L 154.199219 391.746094 L 153.734375 388.820313 L 152.566406 386.542969 L 153.179688 384.597656 L 154.652344 381.796875 L 152.269531 378.203125 L 152.683594 374.835938 L 153.175781 374.082031 L 152.804688 373.207031 L 150.203125 373.105469 L 145.449219 374.257813 L 143.757813 375.484375 L 142.039063 378.097656 L 141.507813 378.132813 L 139.289063 377.859375 L 136.660156 378 L 136.660156 377.304688 L 137.339844 376.066406 L 140.148438 373.019531 L 141.023438 372.414063 L 142.589844 371.953125 L 147.132813 367.984375 L 147.953125 364.523438 L 151.550781 360.582031 L 153.09375 359.609375 L 154.941406 359.808594 L 160.492188 357.457031 L 163.644531 357.28125 L 165.40625 357.488281 L 165.480469 357.515625 L 165.757813 357.53125 L 167.339844 357.714844 L 167.503906 357.636719 L 168.542969 357.699219 L 171.550781 357.078125 L 174.734375 355.285156 L 179.910156 359.441406 L 180.433594 358.429688 L 177.679688 353.460938 L 178.242188 352.835938 L 180.867188 352.449219 L 181.503906 352.695313 L 181.914063 353.875 L 182.898438 354.332031 L 184.078125 356.789063 L 185.613281 357.902344 L 188.359375 357.621094 L 190.335938 355.148438 L 189.90625 355.050781 L 188.667969 355.527344 L 188.3125 355.957031 L 186.378906 356.386719 L 183.8125 354.640625 L 179.976563 346.332031 L 180.128906 346.058594 L 181.15625 344.902344 L 182.457031 342.4375 L 182.644531 341.558594 L 183.371094 340.257813 L 185.429688 339.015625 L 185.140625 338.578125 L 183.296875 338.492188 L 183.832031 335.992188 L 183.414063 332.207031 L 182.5 330.175781 L 184.695313 329.191406 L 187.28125 323.421875 L 187.71875 320.933594 L 187.855469 317.484375 L 184.742188 320.527344 L 179.199219 323.441406 L 177.335938 322.691406 L 175.570313 319.632813 L 175.167969 317.417969 L 173.773438 314.550781 L 172.53125 313.175781 L 172.289063 311.832031 L 171.160156 310.175781 L 170.996094 309.363281 L 169.871094 306.953125 L 168.578125 305.230469 L 167.527344 304.269531 L 169.164063 299.058594 L 174.074219 288.722656 L 176.464844 286.417969 Z M 156.046875 405.136719 L 155.097656 407.238281 L 154.597656 409.355469 L 154.503906 411.53125 L 154.84375 413.808594 L 157.316406 419.5625 L 158.726563 421.386719 L 160.578125 422.96875 L 162.476563 424.03125 L 165.847656 425.273438 L 167.996094 425.628906 L 170.304688 425.5625 L 172.671875 425 L 174.871094 423.957031 L 176.804688 422.476563 L 178.390625 420.625 L 179.503906 418.605469 L 180.199219 416.40625 L 180.441406 414.109375 L 180.230469 411.8125 L 179.308594 409.015625 L 178.933594 406.089844 L 178.1875 404.035156 L 176.511719 401.453125 L 174.324219 399.472656 L 171.949219 398.199219 L 169.34375 397.503906 L 166.269531 397.390625 L 163.625 397.871094 L 161.164063 398.945313 L 159.015625 400.558594 L 157.222656 402.726563 Z M 189.90625 433.121094 L 190.597656 435.28125 L 192.378906 437.949219 L 194.816406 440.03125 L 192.65625 443.496094 L 191.828125 447.496094 L 192.394531 451.414063 L 194.320313 455.015625 L 196.625 457.230469 L 199.324219 458.691406 L 203.699219 459.625 L 206.632813 459.648438 L 208.996094 459.113281 L 211.089844 458.164063 L 212.859375 456.90625 L 214.839844 454.925781 L 217.105469 451.578125 L 218.078125 447.785156 L 220.773438 449.917969 L 223.976563 451.171875 L 227.402344 451.4375 L 230.640625 450.730469 L 229.941406 453.839844 L 230.09375 456.894531 L 231.324219 460.375 L 233.523438 463.214844 L 231.496094 463.171875 L 231.378906 463.496094 L 232.574219 464.835938 L 232.214844 465.75 L 231.738281 466.042969 L 226.691406 465.496094 L 219.566406 468.449219 L 217.054688 467.824219 L 210.222656 468.96875 L 208.164063 468.875 L 207.273438 468.058594 L 206.238281 469.769531 L 209.328125 471.046875 L 206.445313 471.046875 L 202.570313 470.382813 L 198.691406 471.046875 L 195.582031 468.421875 L 191.632813 467.007813 L 189.339844 466.859375 L 187.0625 467.167969 L 184.960938 466.640625 L 182.800781 466.511719 L 177.308594 467.511719 L 175.167969 468.300781 L 173.226563 469.496094 L 170.617188 471.917969 L 170.015625 472.679688 L 168.992188 473.234375 L 168.214844 474.070313 L 167.203125 476.179688 L 165.449219 481.320313 L 164.074219 480.480469 L 161.96875 479.898438 L 159.792969 479.714844 L 155.652344 480.527344 L 152.167969 482.675781 L 148.558594 482.636719 L 148.46875 482.535156 L 147.308594 482.621094 L 138.285156 482.519531 L 134.175781 483.15625 L 130.886719 484.777344 L 127.835938 487.636719 L 126.480469 489.820313 L 124.039063 490.597656 L 123.132813 494.289063 L 123.664063 495.292969 L 123.640625 495.398438 L 122.859375 496.015625 L 121.910156 497.222656 L 120.660156 497.648438 L 120.394531 498.183594 L 118.253906 498.183594 L 117.96875 497.691406 L 118.09375 496.4375 L 117.15625 494.691406 L 115.984375 493.691406 L 112.253906 492.070313 L 111.410156 491.984375 L 110.375 492.488281 L 110.242188 494.183594 L 110.007813 494.453125 L 108.527344 494.183594 L 105.644531 494.308594 L 105.441406 494.242188 L 105.628906 491.574219 L 106.074219 490.5625 L 107.515625 489.929688 L 109.667969 489.351563 L 111.625 488.179688 L 111.738281 488.078125 L 112.199219 488.253906 L 112.445313 488.9375 L 113.574219 489.15625 L 118.144531 485.910156 L 121.425781 483.085938 L 124.375 479.769531 L 125.210938 477.886719 L 124.875 476.421875 L 125.570313 474.691406 L 127.382813 473.914063 L 128.195313 473.328125 L 128.386719 473.238281 L 132.105469 472.640625 L 132.679688 471.785156 L 133.257813 469.527344 L 135.859375 467.5625 L 138.636719 464.640625 L 138.878906 461.65625 L 139.671875 460.164063 L 140.332031 456.773438 L 140.210938 454.808594 L 142.492188 455.105469 L 144.269531 456.015625 L 145.761719 455.429688 L 148.429688 452.488281 L 148.105469 447.519531 L 151.105469 446.613281 L 157.421875 446.269531 L 159.910156 445.683594 L 164.597656 446.761719 L 166.046875 446.148438 L 167.527344 446.515625 L 169.484375 447.285156 L 170.039063 448.109375 L 170.757813 448.421875 L 173.15625 448.464844 L 180.570313 447.503906 L 181.109375 445.632813 L 181.210938 443.15625 L 182.519531 440.25 Z M 232.65625 467.898438 L 231.414063 468.875 L 229.707031 471.046875 L 225.832031 470.382813 L 222.421875 470.964844 L 222.296875 470.886719 L 221.757813 470.964844 L 220.75 470.542969 L 221.476563 469.683594 L 227.316406 466.367188 L 232.550781 467.761719 Z M 209.757813 471.046875 L 209.511719 471.046875 L 209.714844 470.9375 Z M 140.539063 357.78125 L 140.539063 355.167969 L 140.597656 355.164063 L 141.484375 356.3125 L 142.226563 358.1875 L 141.734375 358.875 L 141.003906 358.070313 Z M 149.144531 308.710938 L 148.460938 310.820313 L 148.132813 313.84375 L 148.226563 317.394531 L 147.847656 318.148438 L 145.3125 320.636719 L 141.859375 323.019531 L 139.824219 322.464844 L 137.933594 323.433594 L 137.675781 322.921875 L 139.605469 317.261719 L 139.671875 317.203125 L 140.320313 316.316406 L 142.300781 315.023438 L 144.765625 310.230469 L 145.863281 309.40625 L 149.046875 308.269531 Z M 218.078125 304.339844 L 219.34375 300.921875 L 220.816406 302.511719 Z M 215.101563 257.441406 L 215.390625 258.191406 L 216.605469 260.121094 L 218.078125 261.691406 L 218.078125 288.832031 L 217.167969 291.554688 L 214.199219 288.832031 L 215.871094 286.402344 L 216.878906 283.628906 L 217.15625 280.691406 L 216.683594 277.777344 L 215.691406 275.414063 L 214.199219 273.324219 L 213.71875 270.835938 L 212.710938 268.511719 L 211.226563 266.460938 L 209.214844 264.691406 L 205.742188 263.050781 L 201.796875 262.632813 L 198.0625 263.515625 L 194.816406 265.570313 L 192.171875 262.558594 L 189.324219 260.472656 L 187.046875 259.371094 L 186.855469 254.871094 L 185.425781 251.164063 L 182.632813 247.996094 L 179.015625 246.070313 L 175.210938 245.515625 L 171.554688 246.183594 L 167.8125 244.855469 L 163.847656 244.863281 L 161.5 245.535156 L 159.347656 246.675781 L 157.566406 248.15625 L 156.046875 250.0625 L 154.269531 247.96875 L 152.054688 246.351563 L 156.078125 245.507813 L 159.335938 243.714844 L 161.171875 241.921875 L 162.625 239.648438 L 163.488281 237.230469 L 163.800781 234.554688 L 167.117188 234.269531 L 170.105469 233.117188 L 172.667969 231.195313 L 174.609375 228.648438 L 176.710938 232.289063 L 180.78125 235.949219 L 180.949219 236.046875 L 180.578125 237.003906 L 174.761719 240.109375 L 170.214844 238.117188 L 166.480469 238.003906 L 166.738281 239.222656 L 168.246094 240.195313 L 178.0625 241.875 L 182.921875 243.167969 L 186.398438 241.730469 L 187.519531 239.417969 L 187.550781 239.390625 L 188.914063 242.070313 L 191.914063 244.84375 L 194.328125 246.023438 L 197.292969 246.765625 L 199.964844 246.78125 L 202.570313 246.183594 L 204.457031 248.53125 L 208.738281 252.050781 L 209.734375 252.542969 L 212.824219 256.707031 L 213.265625 256.828125 L 213.433594 256.585938 L 214.601563 257.097656 Z M 188.339844 111.859375 L 187.144531 114.207031 L 186.777344 113.90625 L 184.832031 114.03125 L 181.886719 115.097656 L 179.308594 113.253906 L 179.308594 110.492188 L 182.660156 108.644531 L 184.773438 106.339844 L 186.230469 108.273438 L 187.324219 111.371094 Z M 182.890625 120.453125 L 182.8125 120 L 182.082031 118.097656 L 182.96875 119.6875 L 182.941406 120.441406 Z M 181.65625 117.332031 L 181.152344 116.535156 L 181.269531 116.636719 Z M 187.054688 98.914063 L 187.0625 98.863281 L 187.136719 98.933594 Z M 189.085938 100.621094 L 189.398438 100.816406 L 189.007813 101.453125 Z M 193.160156 102.445313 L 193.796875 102.558594 L 193.226563 103.421875 Z M 176.710938 168.503906 L 175.429688 168.644531 L 174.777344 168 Z M 163.996094 165.46875 L 163.082031 165.625 L 163.785156 162.414063 L 163.789063 162.257813 L 164.042969 162.292969 L 165.242188 161.992188 L 166.015625 161.605469 L 166.75 160.257813 L 167.140625 160.222656 L 167.523438 160.703125 L 167.507813 160.828125 L 166.417969 162.609375 Z M 163.910156 155.042969 L 163.925781 154.128906 L 164.171875 154.835938 Z M 117.378906 268.859375 L 117.941406 265.570313 L 117.316406 261.914063 L 117.402344 261.175781 L 117.824219 259.46875 L 117.925781 257.179688 L 117.898438 257.046875 L 117.992188 256.269531 L 118.820313 254.035156 L 121.214844 254.1875 L 123.660156 253.472656 L 123.367188 254.191406 L 121.183594 263.964844 L 122.0625 266.289063 L 120.679688 268.164063 L 119.945313 268.597656 Z M 131.925781 247.214844 L 132.785156 246.183594 L 134.558594 248.277344 L 135.296875 248.8125 L 135.339844 249.003906 L 135.222656 250.96875 L 134.8125 251.347656 L 132.589844 248.835938 Z M 132.832031 257.875 L 132.660156 258.8125 L 132.785156 261.691406 L 129.667969 263.445313 L 129.4375 263.691406 L 129.152344 263.667969 L 126.582031 261.613281 L 125.375 256.128906 L 125.988281 253.21875 L 128.179688 251.246094 L 129.539063 251.441406 L 131.390625 253.015625 Z M 132.785156 157.015625 L 132.960938 156.574219 L 134.167969 157.015625 Z M 133.890625 154.238281 L 134.027344 153.890625 L 134.847656 154.859375 Z M 135.566406 155.714844 L 136.660156 157.015625 L 136.273438 157.015625 Z M 97.890625 211.292969 L 100.0625 209.585938 L 101.316406 207.992188 L 101.351563 207.964844 L 102.617188 207.75 L 102.652344 208.195313 L 101.386719 210.445313 L 99.425781 212.117188 L 96.976563 213.15625 L 96.796875 212.683594 Z M 109.417969 199.898438 L 109.523438 199.660156 L 109.523438 199.976563 Z M 94.550781 214.746094 L 95.449219 214.039063 L 95.671875 214.59375 Z M 104.542969 225.96875 L 105.066406 226.363281 L 104.691406 226.273438 Z M 99.550781 137.628906 L 101.769531 137.628906 L 102.570313 138.054688 L 100.695313 139.402344 L 99.585938 140.597656 L 99.09375 139.5 L 98.9375 138.609375 L 99.460938 137.6875 Z M 99.105469 141.121094 L 98.609375 141.945313 L 98.214844 141.941406 L 97.453125 141.691406 L 97.21875 139.679688 L 98.019531 139.84375 Z M 98.25 142.539063 L 97.859375 143.183594 L 97.375 144.558594 L 97.359375 142.890625 Z M 97.09375 145.355469 L 97.089844 145.359375 L 96.785156 148.933594 L 97.140625 151.089844 L 97.890625 153.136719 L 97.890625 157.015625 L 95.285156 157.535156 L 92.753906 158.699219 L 91.597656 159.597656 L 90.550781 158.175781 L 90.507813 157.148438 L 91.820313 157.980469 L 97.480469 154.929688 L 96.453125 153.484375 L 95.234375 152.652344 L 94.117188 152.148438 L 92.941406 152.324219 L 92.058594 151.863281 L 91.273438 150.875 L 92.699219 149.40625 L 91.421875 144.375 L 92.308594 143.679688 L 94.015625 141.507813 L 95.101563 140.613281 L 96.675781 141.359375 L 95.960938 142.378906 Z M 89.433594 161.710938 L 88.496094 162.746094 L 88.238281 162.863281 L 87.917969 162.585938 L 88.445313 161.890625 L 89.367188 161.550781 Z M 87.890625 163.695313 L 87.183594 164.96875 L 86.484375 167.140625 L 86.105469 170.144531 L 86.179688 171.273438 L 84.875 171.125 L 84.914063 169.441406 L 82.996094 168.253906 L 81.464844 168.371094 L 80.277344 167.316406 L 80.316406 167.289063 L 82.382813 164.769531 L 82.660156 164.546875 L 86.457031 164.699219 L 87.222656 163.867188 Z M 86.253906 172.421875 L 86.261719 172.523438 L 84.070313 175.253906 L 83.046875 174.507813 L 82.722656 173.699219 L 82.824219 172.589844 L 83.972656 171.789063 Z M 83.765625 175.699219 L 82.507813 179.289063 L 82.332031 176.085938 L 83.4375 175.515625 Z M 77.863281 194.785156 L 77.996094 194.496094 L 78.28125 193.042969 L 80.441406 190.269531 L 81.117188 190.9375 L 81.519531 192.558594 L 80.578125 193.265625 L 79.097656 195.066406 Z M 81.789063 186.488281 L 82.261719 185.140625 L 82.316406 188.257813 L 82.128906 188.101563 L 81.921875 187.375 Z M 147.425781 363.976563 L 146.109375 363.875 L 144.195313 361.613281 L 142.050781 357.363281 L 142.246094 352.273438 L 144.664063 351.183594 L 146.003906 350.957031 L 149.566406 352.007813 L 151.039063 355.578125 L 155.546875 356.503906 L 154.066406 358.859375 L 150.984375 360.816406 Z M 88.429688 500.046875 L 88.566406 499.308594 L 88.941406 499.117188 L 89.34375 499.789063 Z M 91.824219 155.515625 L 91.882813 154.726563 L 92.882813 153.957031 L 93.789063 153.890625 L 93.378906 155.476563 Z M 91.824219 155.515625 "/>
</g>
</svg>
