<?xml version="1.0" encoding="UTF-8"?>
<svg xmlns="http://www.w3.org/2000/svg" xmlns:xlink="http://www.w3.org/1999/xlink" width="378pt" height="504pt" viewBox="0 0 378 504" version="1.1">
<g id="data">
<rect x="0" y="0" width="378" height="504" style="fill:rgb(100%,100%,100%);fill-opacity:1;stroke:none;"/>
<path style=" stroke:none;fill-rule:nonzero;fill:rgb(100%,100%,100%);fill-opacity:1;" d="M 53.308594 504 L 324.691406 504 L 324.691406 0 L 53.308594 0 Z M 53.308594 504 "/>
<path style=" stroke:none;fill-rule:nonzero;fill:rgb(22.745098%,53.333333%,16.078431%);fill-opacity:1;" d="M 222.027344 470.925781 L 223.492188 468.535156 L 227.316406 466.367188 L 232.550781 467.761719 L 232.65625 467.898438 L 231.414063 468.875 L 229.707031 471.046875 L 222.542969 471.046875 L 222.296875 470.886719 Z M 224.429688 466.433594 L 224.714844 465.433594 L 224.914063 463.292969 L 226.699219 464.914063 L 227.929688 465.632813 L 226.691406 465.496094 Z M 114.558594 493.074219 L 115.808594 492.464844 L 117.792969 490.855469 L 119.378906 488.855469 L 120.488281 486.554688 L 121.152344 490.429688 L 121.152344 494.308594 L 117.277344 494.308594 L 116.5625 494.183594 L 115.984375 493.691406 Z M 114.558594 493.074219 "/>
</g>
</svg>
