<?xml version="1.0" encoding="UTF-8"?>
<svg xmlns="http://www.w3.org/2000/svg" xmlns:xlink="http://www.w3.org/1999/xlink" width="378pt" height="504pt" viewBox="0 0 378 504" version="1.1">
<g id="data">
<rect x="0" y="0" width="378" height="504" style="fill:rgb(100%,100%,100%);fill-opacity:1;stroke:none;"/>
<path style=" stroke:none;fill-rule:nonzero;fill:rgb(100%,100%,100%);fill-opacity:1;" d="M 53.308594 504 L 324.691406 504 L 324.691406 0 L 53.308594 0 Z M 53.308594 504 "/>
<path style=" stroke:none;fill-rule:nonzero;fill:rgb(22.745098%,53.333333%,16.078431%);fill-opacity:1;" d="M 215.757813 410.472656 L 214.222656 409.492188 L 213.066406 408.089844 L 212.398438 406.394531 L 212.289063 404.582031 L 212.742188 402.820313 L 213.722656 401.285156 L 215.125 400.128906 L 216.816406 399.460938 L 218.632813 399.351563 L 220.988281 399.578125 L 222.632813 399.269531 L 224.027344 398.570313 L 225.789063 396.964844 L 227.339844 395.949219 L 229.136719 395.472656 L 230.988281 395.589844 L 232.707031 396.28125 L 234.125 397.480469 L 235.089844 399.0625 L 235.898438 401.035156 L 236.671875 402.105469 L 237.683594 402.980469 L 238.871094 403.601563 L 240.171875 403.929688 L 241.511719 403.949219 L 242.847656 403.65625 L 244.199219 403.023438 L 245.238281 402.195313 L 246.054688 401.15625 L 246.652344 399.855469 L 246.902344 398.558594 L 246.847656 397.207031 L 246.515625 395.996094 L 245.921875 394.871094 L 244.675781 393.410156 L 243.636719 391.644531 L 243.277344 389.628906 L 243.277344 385.753906 L 243.542969 384.011719 L 244.320313 382.429688 L 245.535156 381.152344 L 247.074219 380.300781 L 248.800781 379.945313 L 250.554688 380.125 L 252.171875 380.820313 L 253.507813 381.96875 L 254.4375 383.464844 L 255.382813 385.671875 L 256.382813 386.902344 L 257.679688 387.816406 L 259.164063 388.335938 L 260.828125 388.425781 L 263.253906 387.851563 L 264.621094 387.691406 L 265.988281 387.859375 L 267.671875 388.273438 L 268.570313 388.320313 L 271.246094 387.800781 L 272.84375 387.710938 L 274.402344 388.066406 L 275.808594 388.828125 L 277.121094 389.800781 L 278.101563 390.269531 L 279.152344 390.546875 L 279.992188 390.609375 L 282.207031 390.164063 L 284.808594 388.558594 L 286.390625 387.882813 L 288.097656 387.695313 L 289.785156 388.019531 L 290.023438 388.144531 L 289.488281 386.558594 L 289.472656 384.738281 L 289.78125 382.660156 L 289.640625 380.730469 L 289.210938 379.429688 L 288.019531 377.5625 L 287.265625 375.765625 L 287.144531 373.820313 L 287.671875 371.941406 L 288.390625 370.921875 L 293.949219 371.515625 L 296.914063 372.84375 L 301.71875 376.363281 L 302.382813 377.875 L 303.535156 379.179688 L 305.4375 380.3125 L 306.730469 384.164063 L 307.078125 389.632813 L 306.929688 389.828125 L 305.457031 390.835938 L 303.75 391.351563 L 301.960938 391.328125 L 299.082031 390.835938 L 296.203125 391.328125 L 294.382813 391.347656 L 292.996094 390.914063 L 293.339844 391.550781 L 293.671875 393.238281 L 293.496094 394.949219 L 292.828125 396.535156 L 291.191406 399.222656 L 290.8125 401.261719 L 291.191406 403.300781 L 292.828125 405.988281 L 293.503906 407.605469 L 293.667969 409.347656 L 293.351563 410.835938 L 292.742188 410.515625 L 292.480469 410.636719 L 292.960938 411.675781 L 292.449219 412.589844 L 291.179688 413.792969 L 289.605469 414.5625 L 287.875 414.832031 L 283.039063 414.84375 L 281.511719 415.15625 L 279.945313 415.96875 L 278.632813 417.277344 L 277.925781 418.574219 L 277.570313 420.027344 L 277.566406 421.238281 L 278.023438 423.222656 L 278.050781 425.695313 L 277.566406 428.046875 L 277.683594 429.664063 L 278.15625 430.996094 L 279.027344 432.273438 L 279.101563 432.339844 L 274.75 433.78125 L 272.609375 436.117188 L 274.253906 436.015625 L 275.152344 434.667969 L 276.683594 434.363281 L 278.285156 434.328125 L 281.054688 434.949219 L 281.828125 435.589844 L 281.691406 436.328125 L 279.554688 436.347656 L 277.390625 437.65625 L 277.96875 438.546875 L 281.382813 438.964844 L 286.863281 440.339844 L 289.394531 439.9375 L 291.074219 438.957031 L 299.742188 437.757813 L 300.988281 440.148438 L 300.773438 446.324219 L 300.335938 447.820313 L 299.394531 449.050781 L 296.972656 450.242188 L 295.839844 450.375 L 292.621094 451.640625 L 291.179688 452.742188 L 289.847656 454.226563 L 289.460938 455.09375 L 289.214844 456.324219 L 289.382813 457.359375 L 287.769531 457.550781 L 286.683594 457.867188 L 285.953125 458.238281 L 284.1875 457.9375 L 281.042969 460.90625 L 278.484375 461.933594 L 274.789063 462.777344 L 272.597656 463.816406 L 270.539063 466.589844 L 269.761719 466.949219 L 259.269531 463.777344 L 256.070313 463.507813 L 244.628906 465.699219 L 242.703125 466.390625 L 242.113281 466.964844 L 242.078125 467.140625 L 240.996094 467.933594 L 238.210938 466.1875 L 238.632813 465.4375 L 239.46875 464.933594 L 237.714844 463.296875 L 231.496094 463.171875 L 231.378906 463.496094 L 232.574219 464.835938 L 232.214844 465.75 L 231.738281 466.042969 L 226.691406 465.496094 L 219.566406 468.449219 L 217.054688 467.824219 L 210.222656 468.96875 L 208.164063 468.875 L 207.273438 468.058594 L 206.238281 469.769531 L 207.042969 470.101563 L 206.480469 470.0625 L 204.617188 470.382813 L 203.164063 471.113281 L 201.90625 472.292969 L 201.761719 472.539063 L 197.625 472.007813 L 196.175781 472.65625 L 195.679688 473.863281 L 195.832031 474.871094 L 196.757813 475.523438 L 196.488281 476.304688 L 195.917969 475.996094 L 194.851563 473.972656 L 190.289063 470.589844 L 189.628906 470.277344 L 189.519531 469.089844 L 188.703125 467.363281 L 187.257813 465.925781 L 184.601563 464.683594 L 183.128906 463.699219 L 182.019531 462.3125 L 181.378906 460.65625 L 181.269531 458.886719 L 181.699219 457.164063 L 182.628906 455.652344 L 183.96875 454.492188 L 185.597656 453.785156 L 187.363281 453.609375 L 190.75 453.785156 L 191.550781 453.601563 L 192.511719 453.183594 L 193.585938 452.441406 L 194.753906 451.25 L 196.003906 449.300781 L 196.457031 447.246094 L 196.152344 445.195313 L 195.128906 443.375 L 192.8125 441.421875 L 191.667969 440.121094 L 190.957031 438.542969 L 190.746094 436.828125 L 191.046875 435.121094 L 191.835938 433.582031 L 193.042969 432.34375 L 194.5625 431.511719 L 196.261719 431.167969 L 197.984375 431.335938 L 199.839844 431.808594 L 201.109375 431.839844 L 202.355469 431.597656 L 204.109375 430.828125 L 205.464844 430.421875 L 206.875 430.355469 L 209.640625 430.558594 L 211.433594 430.121094 L 212.558594 429.484375 L 214.085938 428.046875 L 215.613281 427.007813 L 217.175781 426.277344 L 218.035156 425.644531 L 219.035156 424.476563 L 219.621094 423.285156 L 220.640625 416.898438 L 220.558594 415.742188 L 220.179688 414.394531 L 219.527344 413.097656 L 218.671875 412.074219 L 217.601563 411.273438 Z M 209.796875 471.148438 L 209.597656 471 L 209.714844 470.9375 Z M 221.535156 326.792969 L 222.433594 325.355469 L 223.707031 324.238281 L 225.25 323.539063 L 226.929688 323.3125 L 228.605469 323.578125 L 230.128906 324.316406 L 231.378906 325.464844 L 233.679688 328.300781 L 233.914063 328.699219 L 234.375 328.691406 L 237.070313 329.050781 L 239.746094 328.5625 L 241.503906 328.511719 L 243.199219 328.988281 L 244.671875 329.953125 L 245.792969 331.3125 L 246.453125 332.945313 L 246.59375 334.699219 L 246.203125 336.417969 L 245.316406 337.9375 L 244.679688 338.726563 L 244.589844 338.644531 L 243.40625 338.558594 L 241.210938 339.871094 L 241.886719 340.445313 L 243.664063 340.425781 L 243.382813 341.390625 L 243.234375 342.988281 L 242.765625 344.792969 L 241.75 346.359375 L 240.289063 347.519531 L 238.539063 348.160156 L 236.675781 348.214844 L 234.890625 347.675781 L 233.367188 346.597656 L 232.265625 345.09375 L 231.691406 343.320313 L 231.453125 341.726563 L 231.058594 340.628906 L 230.46875 339.648438 L 229.308594 338.375 L 228.867188 337.714844 L 228.320313 337.71875 L 224.988281 337.230469 L 223.292969 336.710938 L 221.832031 335.699219 L 220.746094 334.296875 L 220.132813 332.632813 L 220.046875 330.859375 L 220.503906 329.144531 Z M 165.738281 242.308594 L 165.820313 241.324219 L 166.320313 238.429688 L 165.820313 235.539063 L 165.785156 233.808594 L 166.257813 232.148438 L 167.199219 230.699219 L 168.269531 229.492188 L 168.859375 228.488281 L 169.234375 227.40625 L 169.390625 226.253906 L 169.328125 225.203125 L 169.035156 224.0625 L 168.578125 223.097656 L 167.613281 221.78125 L 166.804688 220.226563 L 166.496094 218.5 L 166.714844 216.761719 L 167.441406 215.164063 L 168.613281 213.859375 L 170.121094 212.960938 L 171.824219 212.554688 L 173.574219 212.671875 L 176.699219 213.371094 L 178.804688 214.308594 L 180.355469 215.414063 L 181.636719 215.945313 L 182.800781 216.148438 L 183.996094 216.101563 L 185.230469 215.78125 L 186.574219 215.078125 L 188.828125 213.335938 L 190.285156 211.523438 L 191.601563 210.324219 L 193.222656 209.578125 L 194.992188 209.355469 L 196.746094 209.683594 L 197.175781 209.914063 L 197.078125 210.023438 L 197.433594 210.839844 L 197.785156 210.703125 L 197.761719 211.238281 L 196.796875 214.386719 L 195.867188 215.914063 L 191.214844 219.742188 L 185.519531 221.085938 L 182.847656 221.226563 L 177.804688 225.21875 L 178.117188 225.714844 L 179.84375 225.195313 L 184.609375 222.886719 L 186.457031 221.386719 L 187.289063 221.316406 L 189.085938 221.875 L 189.332031 222.921875 L 188.898438 224.691406 L 189.238281 225.953125 L 190.898438 226.824219 L 192.988281 227.191406 L 194.445313 228.726563 L 194.429688 229.304688 L 192.117188 231.570313 L 189.460938 232.730469 L 188.34375 232.882813 L 187.070313 232.078125 L 185.40625 232.042969 L 181.046875 235.800781 L 180.578125 237.003906 L 174.761719 240.109375 L 170.214844 238.117188 L 166.480469 238.003906 L 166.738281 239.222656 L 168.246094 240.195313 L 178.0625 241.875 L 182.921875 243.167969 L 186.398438 241.730469 L 187.519531 239.417969 L 188.617188 238.355469 L 189.539063 238.171875 L 193.183594 238.5 L 199.339844 242.761719 L 206.488281 246.65625 L 208.910156 251.429688 L 212.824219 256.707031 L 213.265625 256.828125 L 213.433594 256.585938 L 214.601563 257.097656 L 217.371094 258.992188 L 218.679688 263.09375 L 218.894531 265.933594 L 218.261719 267.402344 L 219.847656 274.925781 L 218.34375 275.253906 L 216.539063 275.339844 L 214.792969 275.792969 L 212.84375 275.957031 L 210.945313 275.464844 L 209.320313 274.375 L 208.152344 272.804688 L 207.113281 270.769531 L 205.785156 269.257813 L 204.644531 268.363281 L 203.46875 267.8125 L 198.875 266.886719 L 197.871094 266.929688 L 196.203125 267.339844 L 194.550781 267.5 L 192.921875 267.191406 L 191.445313 266.433594 L 190.246094 265.289063 L 188.96875 263.664063 L 187.34375 262.386719 L 186.445313 261.507813 L 184.816406 259.527344 L 183.566406 258.585938 L 181.863281 256.546875 L 180.539063 253.910156 L 179.011719 252.449219 L 177.9375 251.894531 L 176.15625 251.421875 L 174.878906 251.402344 L 172.820313 251.859375 L 171.09375 251.980469 L 169.410156 251.589844 L 167.917969 250.722656 L 166.742188 249.453125 L 165.996094 247.894531 L 165.738281 246.183594 Z M 181.246094 168.023438 L 181.246094 168.644531 L 180.984375 170.371094 L 180.222656 171.945313 L 179.027344 173.21875 L 177.402344 174.496094 L 176.125 176.117188 L 175.015625 177.195313 L 173.65625 177.945313 L 172.152344 178.308594 L 169.40625 178.589844 L 167.757813 179.332031 L 166.347656 180.632813 L 165.035156 183.042969 L 163.933594 184.476563 L 162.441406 185.503906 L 160.710938 186.019531 L 158.902344 185.980469 L 157.191406 185.390625 L 155.746094 184.300781 L 154.707031 182.820313 L 154.175781 181.089844 L 154.195313 179.28125 L 154.6875 176.394531 L 154.191406 173.507813 L 154.160156 171.734375 L 154.667969 170.035156 L 154.804688 169.832031 L 156.390625 168.453125 L 157.75 167.980469 L 160.300781 168.324219 L 161.058594 169.320313 L 157.109375 173.804688 L 156.367188 175.339844 L 156.707031 175.816406 L 157.367188 175.984375 L 158.261719 175.542969 L 161.140625 173.015625 L 167.808594 170.273438 L 170.480469 169.527344 L 170.492188 169.949219 L 171.554688 169.839844 L 173.589844 168.316406 L 174.046875 166.78125 L 178.648438 166.167969 L 179.285156 167.089844 L 180.148438 167.667969 Z M 161.730469 166.855469 L 162.738281 166.953125 L 162.722656 166.96875 L 162.175781 167.183594 L 161.726563 166.894531 Z M 286.679688 439.636719 L 283.058594 438.976563 L 282.164063 437.605469 L 282.484375 436.070313 L 286.839844 437.054688 L 287.960938 438.832031 Z M 236.835938 466.113281 L 235.136719 465.644531 L 236.523438 463.683594 L 237.195313 464.164063 L 237.5 465.839844 Z M 228.117188 474.644531 L 222.296875 470.886719 L 220.207031 471.1875 L 221.476563 469.683594 L 227.316406 466.367188 L 232.550781 467.761719 L 234.171875 469.894531 L 231.242188 473.621094 L 229.960938 474.269531 Z M 228.117188 474.644531 "/>
<path style=" stroke:none;fill-rule:nonzero;fill:rgb(80.392157%,58.431373%,4.705882%);fill-opacity:1;" d="M 189 409.015625 L 188.714844 410.8125 L 187.890625 412.433594 L 186.601563 413.71875 L 184.980469 414.546875 L 183.183594 414.832031 L 181.386719 414.546875 L 179.765625 413.71875 L 178.480469 412.433594 L 177.652344 410.8125 L 177.371094 409.015625 L 177.652344 407.21875 L 178.480469 405.597656 L 179.765625 404.3125 L 181.386719 403.484375 L 183.183594 403.199219 L 184.980469 403.484375 L 186.601563 404.3125 L 187.890625 405.597656 L 188.714844 407.21875 Z M 189 409.015625 "/>
<path style=" stroke:none;fill-rule:nonzero;fill:rgb(80.392157%,58.431373%,4.705882%);fill-opacity:1;" d="M 192.875 416.769531 L 192.59375 418.566406 L 191.765625 420.1875 L 190.480469 421.472656 L 188.859375 422.300781 L 187.0625 422.585938 L 185.265625 422.300781 L 183.644531 421.472656 L 182.355469 420.1875 L 181.53125 418.566406 L 181.246094 416.769531 L 181.53125 414.972656 L 182.355469 413.351563 L 183.644531 412.066406 L 185.265625 411.238281 L 187.0625 410.953125 L 188.859375 411.238281 L 190.480469 412.066406 L 191.765625 413.351563 L 192.59375 414.972656 Z M 192.875 416.769531 "/>
<path style=" stroke:none;fill-rule:nonzero;fill:rgb(80.392157%,58.431373%,4.705882%);fill-opacity:1;" d="M 165.738281 284.953125 L 165.453125 286.75 L 164.628906 288.371094 L 163.339844 289.660156 L 161.71875 290.484375 L 159.921875 290.769531 L 158.125 290.484375 L 156.503906 289.660156 L 155.21875 288.371094 L 154.390625 286.75 L 154.109375 284.953125 L 154.390625 283.15625 L 155.21875 281.535156 L 156.503906 280.25 L 158.125 279.421875 L 159.921875 279.136719 L 161.71875 279.421875 L 163.339844 280.25 L 164.628906 281.535156 L 165.453125 283.15625 Z M 165.738281 284.953125 "/>
<path style=" stroke:none;fill-rule:nonzero;fill:rgb(80.392157%,58.431373%,4.705882%);fill-opacity:1;" d="M 212.261719 284.953125 L 211.976563 286.75 L 211.152344 288.371094 L 209.863281 289.660156 L 208.242188 290.484375 L 206.445313 290.769531 L 204.648438 290.484375 L 203.027344 289.660156 L 201.742188 288.371094 L 200.914063 286.75 L 200.628906 284.953125 L 200.914063 283.15625 L 201.742188 281.535156 L 203.027344 280.25 L 204.648438 279.421875 L 206.445313 279.136719 L 208.242188 279.421875 L 209.863281 280.25 L 211.152344 281.535156 L 211.976563 283.15625 Z M 212.261719 284.953125 "/>
<path style=" stroke:none;fill-rule:nonzero;fill:rgb(80.392157%,58.431373%,4.705882%);fill-opacity:1;" d="M 123.09375 486.554688 L 122.808594 488.351563 L 121.980469 489.972656 L 120.695313 491.257813 L 119.074219 492.085938 L 117.277344 492.371094 L 115.480469 492.085938 L 113.859375 491.257813 L 112.570313 489.972656 L 111.746094 488.351563 L 111.707031 488.089844 L 111.738281 488.078125 L 112.199219 488.253906 L 112.445313 488.9375 L 113.574219 489.15625 L 118.144531 485.910156 L 121.425781 483.085938 L 121.664063 482.816406 L 121.980469 483.136719 L 122.808594 484.757813 Z M 123.09375 486.554688 "/>
<path style=" stroke:none;fill-rule:nonzero;fill:rgb(80.392157%,58.431373%,4.705882%);fill-opacity:1;" d="M 204.722656 197.449219 L 204.648438 197.4375 L 203.027344 196.613281 L 201.742188 195.324219 L 200.914063 193.703125 L 200.628906 191.90625 L 200.914063 190.109375 L 201.742188 188.488281 L 203.027344 187.203125 L 204.648438 186.375 L 206.445313 186.09375 L 208.058594 186.347656 L 207.15625 188.339844 L 206.664063 191.242188 L 206.84375 191.972656 L 206.226563 194.742188 Z M 204.722656 197.449219 "/>
<path style=" stroke:none;fill-rule:nonzero;fill:rgb(80.392157%,58.431373%,4.705882%);fill-opacity:1;" d="M 198.871094 207.960938 L 197.863281 206.957031 L 197.039063 205.335938 L 196.753906 203.539063 L 197.039063 201.742188 L 197.863281 200.121094 L 199.152344 198.832031 L 200.773438 198.007813 L 202.570313 197.722656 L 204.367188 198.007813 L 204.402344 198.027344 L 203.9375 198.859375 L 203.765625 200.121094 L 204.023438 201.304688 L 203.230469 203.472656 L 200.949219 206.4375 L 199.179688 207.605469 Z M 198.871094 207.960938 "/>
<path style=" stroke:none;fill-rule:nonzero;fill:rgb(80.392157%,58.431373%,4.705882%);fill-opacity:1;" d="M 130.847656 474.921875 L 130.5625 476.71875 L 129.734375 478.339844 L 128.449219 479.628906 L 126.828125 480.453125 L 125.03125 480.738281 L 123.703125 480.527344 L 124.375 479.769531 L 125.210938 477.886719 L 124.875 476.421875 L 125.640625 474.519531 L 128.386719 473.238281 L 130.449219 472.90625 L 130.5625 473.125 Z M 130.847656 474.921875 "/>
<path style=" stroke:none;fill-rule:nonzero;fill:rgb(80.392157%,58.431373%,4.705882%);fill-opacity:1;" d="M 146.355469 354.738281 L 146.070313 356.535156 L 145.242188 358.15625 L 143.957031 359.441406 L 143.273438 359.789063 L 142.050781 357.363281 L 142.246094 352.273438 L 144.664063 351.183594 L 145.042969 351.121094 L 145.242188 351.320313 L 146.070313 352.941406 Z M 141.734375 358.875 L 141.003906 358.070313 L 139.230469 356.960938 L 138.828125 356.035156 L 139.253906 355.210938 L 140.597656 355.164063 L 141.484375 356.3125 L 142.226563 358.1875 Z M 141.734375 358.875 "/>
<path style=" stroke:none;fill-rule:nonzero;fill:rgb(80.392157%,58.431373%,4.705882%);fill-opacity:1;" d="M 189.382813 100.847656 L 189.285156 100.660156 L 189.007813 98.90625 L 189.644531 99.757813 L 189.558594 100.558594 Z M 193.226563 103.421875 L 193.136719 102.113281 L 195.332031 98.847656 L 196.15625 98.316406 L 199.542969 97.917969 L 199.804688 99.347656 L 197.464844 100.832031 L 194.695313 101.191406 Z M 193.226563 103.421875 "/>
<path style=" stroke:none;fill-rule:nonzero;fill:rgb(80.392157%,58.431373%,4.705882%);fill-opacity:1;" d="M 193.925781 100.941406 L 194.816406 100.800781 L 196.121094 101.007813 L 194.695313 101.191406 L 193.226563 103.421875 L 193.136719 102.113281 Z M 193.925781 100.941406 "/>
</g>
</svg>
