<?xml version="1.0" encoding="UTF-8"?>
<svg xmlns="http://www.w3.org/2000/svg" xmlns:xlink="http://www.w3.org/1999/xlink" width="378pt" height="504pt" viewBox="0 0 378 504" version="1.1">
<g id="data">
<rect x="0" y="0" width="378" height="504" style="fill:rgb(100%,100%,100%);fill-opacity:1;stroke:none;"/>
<path style=" stroke:none;fill-rule:nonzero;fill:rgb(100%,100%,100%);fill-opacity:1;" d="M 53.308594 504 L 324.691406 504 L 324.691406 0 L 53.308594 0 Z M 53.308594 504 "/>
<path style=" stroke:none;fill-rule:nonzero;fill:rgb(22.745098%,53.333333%,16.078431%);fill-opacity:1;" d="M 306.910156 392.539063 L 306.273438 393.078125 L 305.6875 393.871094 L 304.8125 395.855469 L 304.371094 396.671875 L 302.878906 398.972656 L 302.472656 400.355469 L 302.445313 401.925781 L 302.90625 403.589844 L 304.039063 405.339844 L 303.519531 407.832031 L 297.144531 414.53125 L 295.578125 412.011719 L 292.742188 410.515625 L 292.480469 410.636719 L 293.898438 413.703125 L 295.890625 416.628906 L 296.3125 416.765625 L 296.164063 417.742188 L 294.574219 419.804688 L 292.191406 421.289063 L 290.003906 421.65625 L 289.660156 421.574219 L 288.214844 419.332031 L 285.925781 421.023438 L 285.710938 419.253906 L 285.210938 417.945313 L 284.410156 416.796875 L 283.414063 415.925781 L 281.800781 415.152344 L 279.242188 414.765625 L 277.355469 414.136719 L 275.789063 412.910156 L 273.875 410.785156 L 272.175781 409.84375 L 270.566406 409.53125 L 267.894531 409.832031 L 266.039063 409.742188 L 264.308594 409.070313 L 262.878906 407.890625 L 261.890625 406.320313 L 261.449219 404.515625 L 261.597656 402.667969 L 262.320313 400.957031 L 263.546875 399.566406 L 265.886719 397.636719 L 266.929688 395.824219 L 267.261719 393.761719 L 266.65625 390.789063 L 266.601563 388.773438 L 267.242188 386.859375 L 268.496094 385.28125 L 270.214844 384.222656 L 272.003906 383.515625 L 273.042969 382.804688 L 273.976563 381.796875 L 274.625 380.660156 L 274.941406 379.6875 L 275.082031 378.53125 L 274.992188 377.382813 L 274.515625 375.71875 L 274.300781 373.792969 L 274.734375 371.902344 L 275.628906 370.472656 L 277.851563 370.085938 L 283.34375 370.234375 L 284.253906 370.867188 L 286.703125 370.742188 L 293.949219 371.515625 L 296.914063 372.84375 L 304.070313 378.085938 L 305.367188 380.105469 L 306.730469 384.164063 L 307.179688 391.25 Z M 287.371094 424.414063 L 286.558594 423.253906 L 286.894531 423.164063 L 287.328125 423.710938 Z M 146.125 403.894531 L 146.3125 404.597656 L 146.203125 406.425781 L 145.746094 408.503906 L 145.773438 409.824219 L 146.109375 411.117188 L 146.71875 412.273438 L 147.710938 413.386719 L 148.929688 414.199219 L 150.292969 414.675781 L 152.605469 414.847656 L 154.433594 415.289063 L 156.023438 416.292969 L 157.210938 417.75 L 157.871094 419.511719 L 158.257813 421.449219 L 158.808594 422.644531 L 160.5 424.660156 L 161.476563 426.320313 L 162.097656 427.9375 L 162.582031 428.703125 L 164.507813 430.40625 L 165.328125 430.792969 L 166.367188 431.050781 L 167.894531 431.074219 L 170.144531 430.511719 L 171.933594 430.351563 L 173.683594 430.742188 L 176.082031 431.683594 L 177.863281 431.824219 L 179.230469 431.554688 L 181.355469 430.636719 L 184.300781 428.546875 L 184.582031 428.40625 L 184.589844 427.972656 L 185.128906 424.949219 L 185.097656 423.363281 L 184.871094 422.222656 L 184.316406 420.957031 L 183.527344 419.902344 L 182.425781 418.992188 L 180.636719 418.117188 L 179.109375 417.039063 L 178 415.53125 L 177.433594 413.75 L 177.457031 411.878906 L 177.949219 409.109375 L 177.449219 406.089844 L 177.414063 404.421875 L 177.652344 402.511719 L 177.558594 401.519531 L 176.796875 399.523438 L 174.882813 397.28125 L 173.945313 395.761719 L 173.515625 394.027344 L 173.632813 392.246094 L 174.28125 390.582031 L 175.40625 389.195313 L 177.328125 387.457031 L 178.203125 385.988281 L 178.605469 384.324219 L 178.492188 382.46875 L 178.179688 381.496094 L 177.671875 380.570313 L 176.914063 379.664063 L 175.652344 378.644531 L 174.382813 377.214844 L 173.644531 375.445313 L 173.523438 373.535156 L 173.753906 371.257813 L 173.507813 369.761719 L 172.875 368.367188 L 171.957031 367.238281 L 170.429688 366.105469 L 168.878906 365.53125 L 167.230469 365.421875 L 165.632813 365.78125 L 160.804688 368.496094 L 159.234375 369.902344 L 158.714844 370.660156 L 158.28125 371.652344 L 158.039063 372.710938 L 157.980469 374.339844 L 157.578125 376.261719 L 156.554688 377.941406 L 155.03125 379.1875 L 153.324219 379.796875 L 152.269531 378.203125 L 152.683594 374.835938 L 153.175781 374.082031 L 152.804688 373.207031 L 150.203125 373.105469 L 145.449219 374.257813 L 143.757813 375.484375 L 142.039063 378.097656 L 136.757813 378.433594 L 136.246094 378.0625 L 137.339844 376.066406 L 140.148438 373.019531 L 141.023438 372.414063 L 142.589844 371.953125 L 147.132813 367.984375 L 147.953125 364.523438 L 151.550781 360.582031 L 153.09375 359.609375 L 154.941406 359.808594 L 160.492188 357.457031 L 163.644531 357.28125 L 167.339844 357.714844 L 172.597656 355.179688 L 173.933594 355.046875 L 174.484375 355.082031 L 179.910156 359.441406 L 180.433594 358.429688 L 177.679688 353.460938 L 178.242188 352.835938 L 180.867188 352.449219 L 181.503906 352.695313 L 181.914063 353.875 L 182.898438 354.332031 L 184.078125 356.789063 L 185.613281 357.902344 L 188.359375 357.621094 L 188.550781 357.382813 L 188.4375 357.835938 L 188.492188 359.824219 L 189.585938 364.03125 L 190.578125 365.515625 L 192.046875 366.660156 L 193.617188 367.238281 L 195.289063 367.332031 L 197.089844 366.863281 L 199.414063 365.363281 L 200.925781 364.667969 L 202.570313 364.429688 L 206.445313 364.429688 L 208.21875 364.707031 L 209.824219 365.511719 L 211.105469 366.769531 L 211.945313 368.355469 L 212.261719 370.121094 L 212.019531 371.902344 L 211.25 373.523438 L 210.023438 374.832031 L 208.730469 375.835938 L 208.015625 376.65625 L 207.472656 377.578125 L 207.078125 378.691406 L 206.921875 379.75 L 206.96875 380.835938 L 207.21875 381.894531 L 207.882813 383.390625 L 208.351563 385.140625 L 208.257813 386.953125 L 207.613281 388.648438 L 206.476563 390.0625 L 204.957031 391.054688 L 203.210938 391.535156 L 201.398438 391.449219 L 199.703125 391.101563 L 198.550781 391.097656 L 197.4375 391.316406 L 196.292969 391.800781 L 195.359375 392.445313 L 194.558594 393.273438 L 193.941406 394.242188 L 193.574219 395.195313 L 193.351563 396.960938 L 193.636719 398.703125 L 194.035156 399.621094 L 195.554688 401.601563 L 196.148438 402.558594 L 197.507813 405.296875 L 198.148438 406.019531 L 198.90625 406.601563 L 201.101563 407.597656 L 201.949219 408.074219 L 203.941406 409.421875 L 205.730469 410.070313 L 207.40625 411.011719 L 208.683594 412.449219 L 209.421875 414.222656 L 209.539063 416.140625 L 209.027344 417.992188 L 207.941406 419.578125 L 206.753906 420.808594 L 205.148438 421.980469 L 203.242188 422.546875 L 201.222656 422.78125 L 200.191406 423.148438 L 198.542969 424.324219 L 197.246094 426.183594 L 196.933594 427.117188 L 196.71875 429.042969 L 196.152344 430.980469 L 194.953125 432.605469 L 194.332031 433.203125 L 193.398438 433.847656 L 193.378906 434.378906 L 192.640625 438.253906 L 192.777344 440.113281 L 193.519531 441.894531 L 195.320313 443.960938 L 196.289063 445.507813 L 196.730469 447.28125 L 196.945313 449.738281 L 197.550781 451.261719 L 198.902344 452.855469 L 201.554688 454.351563 L 203.011719 455.523438 L 204.027344 457.097656 L 205.019531 459.382813 L 206.101563 460.671875 L 207.351563 461.523438 L 208.808594 462.03125 L 209.777344 462.144531 L 210.730469 462.066406 L 213.929688 460.902344 L 214.613281 460.414063 L 215.363281 459.632813 L 215.953125 458.722656 L 216.570313 457.214844 L 217.46875 455.714844 L 218.769531 454.550781 L 220.359375 453.824219 L 222.089844 453.601563 L 223.8125 453.90625 L 225.363281 454.703125 L 227.6875 456.386719 L 229.5 456.9375 L 231.390625 456.867188 L 233.144531 456.1875 L 234.65625 454.898438 L 235.601563 453.277344 L 235.96875 451.417969 L 235.578125 448.578125 L 235.625 446.691406 L 236.277344 444.921875 L 237.457031 443.453125 L 239.046875 442.441406 L 240.878906 441.988281 L 242.757813 442.144531 L 244.484375 442.894531 L 245.886719 444.160156 L 247.035156 445.597656 L 247.894531 446.3125 L 248.992188 446.898438 L 249.878906 447.15625 L 252.03125 447.183594 L 254.929688 446.171875 L 257.5625 445.890625 L 259.441406 446.125 L 260.667969 446 L 262.355469 445.339844 L 264.726563 443.339844 L 266.246094 442.414063 L 267.839844 441.75 L 268.683594 441.183594 L 269.863281 439.878906 L 270.976563 437.535156 L 272.070313 435.964844 L 273.617188 434.835938 L 273.847656 434.765625 L 272.609375 436.117188 L 274.253906 436.015625 L 275.152344 434.667969 L 276.683594 434.363281 L 277.414063 434.347656 L 279.148438 435 L 280.625 436.21875 L 280.695313 436.335938 L 279.554688 436.347656 L 277.390625 437.65625 L 277.96875 438.546875 L 281.382813 438.964844 L 281.898438 439.09375 L 282.039063 439.71875 L 282.140625 441.632813 L 282.484375 442.855469 L 283.085938 443.972656 L 283.910156 444.921875 L 285.023438 445.734375 L 286.367188 446.316406 L 287.652344 446.597656 L 289.53125 446.597656 L 291.21875 446.84375 L 291.863281 447.148438 L 291.929688 446.421875 L 292.621094 444.78125 L 293.449219 443.4375 L 294.054688 441.839844 L 294.941406 440.289063 L 296.257813 439.074219 L 297.878906 438.320313 L 299.652344 438.09375 L 299.945313 438.148438 L 300.988281 440.148438 L 300.773438 446.324219 L 300.335938 447.820313 L 299.394531 449.050781 L 296.972656 450.242188 L 295.839844 450.375 L 292.621094 451.640625 L 291.179688 452.742188 L 289.847656 454.226563 L 289.460938 455.09375 L 289.214844 456.324219 L 289.464844 457.886719 L 286.253906 458.289063 L 284.1875 457.9375 L 281.042969 460.90625 L 278.484375 461.933594 L 274.789063 462.777344 L 272.597656 463.816406 L 270.539063 466.589844 L 269.761719 466.949219 L 259.269531 463.777344 L 256.070313 463.507813 L 244.628906 465.699219 L 242.703125 466.390625 L 242.113281 466.964844 L 241.902344 467.984375 L 241.359375 468.164063 L 238.210938 466.1875 L 238.632813 465.4375 L 239.46875 464.933594 L 237.714844 463.296875 L 231.496094 463.171875 L 231.378906 463.496094 L 232.574219 464.835938 L 232.214844 465.75 L 231.738281 466.042969 L 226.691406 465.496094 L 219.566406 468.449219 L 217.054688 467.824219 L 210.222656 468.96875 L 208.164063 468.875 L 207.273438 468.058594 L 206.238281 469.769531 L 209.429688 471.089844 L 209.714844 470.9375 L 210.1875 472.128906 L 209.566406 473.890625 L 206.84375 474.453125 L 204.453125 473.097656 L 203.015625 472.699219 L 197.625 472.007813 L 196.175781 472.65625 L 195.679688 473.863281 L 195.832031 474.871094 L 196.757813 475.523438 L 196.488281 476.304688 L 195.917969 475.996094 L 194.851563 473.972656 L 190.289063 470.589844 L 189.320313 470.132813 L 188.789063 468.726563 L 187.894531 467.488281 L 186.71875 466.542969 L 185.230469 465.898438 L 183.734375 465.695313 L 182.140625 465.902344 L 181.070313 466.3125 L 180.097656 466.9375 L 178.792969 468.183594 L 178.097656 469.171875 L 177.941406 469.554688 L 176.207031 469.78125 L 174.339844 470.335938 L 168.992188 473.234375 L 168.214844 474.070313 L 167.203125 476.179688 L 162.746094 489.226563 L 160.929688 490.242188 L 158.269531 489.722656 L 157.554688 489.058594 L 156.527344 486.851563 L 154.683594 485.4375 L 153.613281 485.542969 L 152.417969 486.300781 L 151.738281 486.164063 L 148.46875 482.535156 L 142.796875 482.960938 L 141.527344 483.375 L 140.734375 484.175781 L 139.910156 484.507813 L 134.507813 484.320313 L 132.167969 484.859375 L 129.414063 488.195313 L 126.714844 489.746094 L 124.039063 490.597656 L 123.132813 494.289063 L 123.664063 495.292969 L 123.496094 496.125 L 122.722656 496.945313 L 120.660156 497.648438 L 119.628906 499.730469 L 118.675781 498.910156 L 117.96875 497.691406 L 118.09375 496.4375 L 117.15625 494.691406 L 115.984375 493.691406 L 112.253906 492.070313 L 111.410156 491.984375 L 110.375 492.488281 L 110.242188 494.183594 L 109.421875 495.128906 L 106.824219 495.664063 L 105.398438 494.824219 L 105.628906 491.574219 L 106.074219 490.5625 L 111.738281 488.078125 L 112.199219 488.253906 L 112.445313 488.9375 L 113.574219 489.15625 L 118.144531 485.910156 L 121.425781 483.085938 L 124.375 479.769531 L 125.210938 477.886719 L 124.875 476.421875 L 125.640625 474.519531 L 128.386719 473.238281 L 132.105469 472.640625 L 132.679688 471.785156 L 133.257813 469.527344 L 135.859375 467.5625 L 138.636719 464.640625 L 139.128906 458.542969 L 139.457031 456.6875 L 140.019531 456.371094 L 140.925781 455.566406 L 141.375 454.960938 L 142.492188 455.105469 L 144.269531 456.015625 L 145.761719 455.429688 L 148.429688 452.488281 L 148.105469 447.519531 L 151.105469 446.613281 L 157.421875 446.269531 L 159.910156 445.683594 L 164.597656 446.761719 L 166.046875 446.148438 L 167.527344 446.515625 L 169.484375 447.285156 L 170.039063 448.109375 L 170.757813 448.421875 L 173.15625 448.464844 L 180.570313 447.503906 L 181.109375 445.632813 L 181.210938 443.15625 L 182.519531 440.25 L 190.867188 432.195313 L 195.792969 425.3125 L 197.929688 424.472656 L 198.285156 423.78125 L 198.070313 423.238281 L 197.8125 423.082031 L 196.09375 424.355469 L 192.90625 427.300781 L 190.570313 429.988281 L 189.222656 431.449219 L 185.628906 432.957031 L 183.714844 433.246094 L 182.441406 433.0625 L 178.394531 435.230469 L 177.398438 436.808594 L 177.039063 438.671875 L 176.445313 439.273438 L 174.058594 439.917969 L 170.558594 439.851563 L 166.820313 439 L 166.347656 438.652344 L 161.371094 433.375 L 159.03125 429.199219 L 155.65625 429.589844 L 149.269531 432.308594 L 149.113281 432.746094 L 147.203125 431.632813 L 146.917969 429.308594 L 148.539063 428.378906 L 150.066406 428.890625 L 151.640625 428.421875 L 152.765625 427.832031 L 153.085938 427.097656 L 152.808594 426.597656 L 147.785156 426.460938 L 143.210938 423.710938 L 139.503906 423.714844 L 136.765625 424.277344 L 136.292969 426.515625 L 135.777344 427.203125 L 133.742188 427.917969 L 132.394531 427.265625 L 131.648438 427.453125 L 129.4375 429.378906 L 126.53125 428.132813 L 127.425781 426.082031 L 128.796875 425.832031 L 131.792969 424.328125 L 131.226563 422.867188 L 130.640625 424.257813 L 127.769531 424.613281 L 122.949219 424.152344 L 121.496094 423.164063 L 124.125 421.78125 L 125.167969 421.753906 L 125.464844 421.238281 L 124.929688 417.953125 L 123.328125 417.210938 L 121.445313 417.105469 L 122.0625 415.152344 L 125.933594 413.378906 L 126.539063 411.90625 L 133.074219 411.34375 L 134.871094 409.289063 L 135.753906 407.632813 L 137.585938 406.550781 L 141.359375 406.660156 L 142.21875 406.390625 Z M 143.019531 359.285156 L 143.101563 358.847656 L 143.054688 357.792969 L 142.644531 356.128906 L 142.476563 354.738281 L 142.476563 352.171875 L 144.664063 351.183594 L 146.003906 350.957031 L 149.566406 352.007813 L 151.039063 355.578125 L 155.546875 356.503906 L 154.066406 358.859375 L 150.984375 360.816406 L 147.425781 363.976563 L 146.109375 363.875 L 144.195313 361.613281 Z M 168.960938 286.023438 L 168.785156 285.105469 L 168.742188 283.207031 L 169.308594 281.394531 L 170.433594 279.863281 L 171.988281 278.777344 L 173.8125 278.246094 L 175.707031 278.332031 L 178.222656 278.867188 L 179.914063 278.71875 L 181.507813 278.074219 L 183.425781 276.539063 L 185.015625 275.632813 L 186.808594 275.265625 L 188.625 275.476563 L 190.289063 276.238281 L 191.632813 277.480469 L 192.910156 279.105469 L 194.535156 280.382813 L 195.765625 281.707031 L 196.527344 283.347656 L 196.75 285.140625 L 196.671875 287.585938 L 197.152344 289.9375 L 197.847656 291.25 L 199.484375 293.070313 L 200.808594 294.105469 L 202.144531 294.683594 L 203.566406 294.910156 L 205.855469 294.675781 L 207.671875 294.777344 L 209.363281 295.429688 L 210.773438 296.574219 L 211.761719 298.101563 L 211.835938 298.375 L 212.289063 297.65625 L 213.726563 296.488281 L 215.453125 295.824219 L 217.304688 295.742188 L 220.582031 296.117188 L 221.691406 295.917969 L 223.519531 295.125 L 225.832031 294.644531 L 226.265625 294.644531 L 229.304688 299.0625 L 244.476563 306.140625 L 245.742188 307.636719 L 247.265625 310.527344 L 249.289063 315.722656 L 250.042969 316.558594 L 249.863281 316.648438 L 248.121094 316.917969 L 246.378906 316.65625 L 244.792969 315.886719 L 243.070313 314.691406 L 241.699219 314.160156 L 238.15625 313.449219 L 236.433594 313.523438 L 234.230469 314.308594 L 232.570313 315.652344 L 231.5 317.339844 L 230.511719 319.714844 L 230.089844 321.578125 L 229.839844 322.207031 L 230.027344 322.464844 L 231.417969 325.148438 L 233.644531 327.195313 L 234.753906 328.585938 L 235.390625 330.246094 L 235.496094 332.019531 L 235.0625 333.746094 L 234.125 335.257813 L 232.777344 336.417969 L 231.140625 337.113281 L 229.367188 337.28125 L 227.628906 336.910156 L 225.25 335.996094 L 222.707031 335.816406 L 220.867188 335.378906 L 219.265625 334.371094 L 218.074219 332.90625 L 217.410156 331.136719 L 217.355469 329.25 L 217.902344 327.441406 L 218.738281 325.75 L 219.207031 323.789063 L 219.453125 323.1875 L 219.085938 322.613281 L 218.339844 320.894531 L 217.242188 319.375 L 216.296875 317.3125 L 216.210938 315.046875 L 216.707031 311.964844 L 216.246094 309.703125 L 215.210938 307.910156 L 212.902344 305.972656 L 211.691406 304.574219 L 211.289063 303.605469 L 210.34375 304.777344 L 208.824219 305.769531 L 206.816406 306.667969 L 205.652344 307.601563 L 204.871094 308.621094 L 204.011719 310.566406 L 203.125 311.976563 L 201.515625 313.878906 L 200.847656 315.332031 L 200.054688 318.988281 L 200.03125 320.398438 L 200.492188 322.457031 L 200.589844 324.40625 L 200.039063 326.273438 L 198.902344 327.859375 L 197.308594 328.976563 L 195.664063 329.757813 L 194.703125 330.492188 L 193.914063 331.40625 L 193.351563 332.441406 L 192.96875 333.769531 L 192.867188 335.664063 L 192.414063 337.632813 L 191.582031 339.582031 L 191.378906 340.800781 L 191.539063 342.519531 L 192.460938 344.824219 L 192.847656 346.398438 L 192.785156 348.015625 L 192.28125 349.550781 L 191.371094 350.890625 L 190.097656 352.296875 L 189.5625 353.234375 L 189.035156 355.386719 L 188.667969 355.527344 L 188.3125 355.957031 L 186.378906 356.386719 L 183.8125 354.640625 L 179.976563 346.332031 L 183.371094 340.257813 L 185.429688 339.015625 L 185.140625 338.578125 L 182.683594 338.460938 L 181.554688 337.164063 L 181.355469 336.117188 L 181.601563 331.078125 L 181.949219 330.421875 L 184.695313 329.191406 L 187.28125 323.421875 L 187.71875 320.933594 L 187.855469 317.484375 L 184.742188 320.527344 L 179.199219 323.441406 L 177.335938 322.691406 L 172.851563 314.925781 L 172.289063 311.832031 L 167.40625 304.652344 L 169.164063 299.058594 L 174.074219 288.722656 L 176.464844 286.417969 L 178.757813 285.980469 L 180.191406 286.804688 L 181.015625 286.710938 L 182.933594 286.238281 L 183.03125 285.160156 L 182.34375 284.746094 L 180.035156 285.351563 L 174.65625 284.980469 L 172.566406 284.292969 L 169.453125 284.03125 Z M 218.667969 388.726563 L 220.367188 387.957031 L 222.21875 387.765625 L 224.035156 388.171875 L 225.632813 389.128906 L 226.847656 390.542969 L 227.550781 392.269531 L 227.671875 394.128906 L 227.195313 395.929688 L 226.179688 397.492188 L 225.03125 398.75 L 224.152344 400.207031 L 222.929688 401.636719 L 221.316406 402.605469 L 219.476563 403.007813 L 217.605469 402.796875 L 215.898438 402.003906 L 214.535156 400.707031 L 213.65625 399.042969 L 213.359375 397.183594 L 213.363281 395.347656 L 213.679688 393.476563 L 214.578125 391.808594 L 215.964844 390.515625 Z M 209.011719 168.289063 L 209.050781 168.359375 L 210.382813 169.582031 L 210.851563 169.792969 L 212.550781 172.800781 L 213.671875 176.582031 L 213.695313 178 L 209.382813 183.425781 L 207.15625 188.339844 L 206.664063 191.242188 L 206.84375 191.972656 L 206.832031 192.03125 L 206.167969 192.964844 L 205.558594 194.710938 L 205.523438 196.011719 L 203.9375 198.859375 L 203.765625 200.121094 L 204.023438 201.304688 L 203.230469 203.472656 L 200.949219 206.4375 L 199.179688 207.605469 L 197.078125 210.023438 L 197.433594 210.839844 L 197.785156 210.703125 L 197.761719 211.238281 L 196.796875 214.386719 L 195.867188 215.914063 L 191.214844 219.742188 L 185.519531 221.085938 L 182.847656 221.226563 L 182.042969 221.863281 L 181.449219 220.566406 L 181.257813 218.65625 L 181.703125 216.789063 L 182.730469 215.167969 L 184.226563 213.96875 L 186.804688 212.53125 L 188.164063 210.980469 L 188.6875 209.800781 L 189.039063 206.753906 L 189.402344 205.285156 L 190.40625 202.738281 L 190.527344 201.824219 L 190.46875 200.742188 L 190.207031 199.691406 L 189.527344 198.207031 L 189.011719 196.125 L 189.28125 193.992188 L 189.996094 191.792969 L 190.078125 190.253906 L 189.917969 189.292969 L 189.59375 188.433594 L 188.046875 186.363281 L 187.390625 185.863281 L 186.4375 185.382813 L 185.3125 185.070313 L 184.1875 184.988281 L 182.96875 185.148438 L 181.25 185.757813 L 179.308594 186.09375 L 175.429688 186.09375 L 173.726563 185.835938 L 172.171875 185.09375 L 170.90625 183.929688 L 169.6875 182.417969 L 168.765625 181.679688 L 167.609375 181.105469 L 166.527344 180.84375 L 164.4375 180.921875 L 161.960938 181.847656 L 161.152344 182.085938 L 158.914063 182.566406 L 157.640625 183.210938 L 156.003906 184.648438 L 154.527344 185.59375 L 152.839844 186.054688 L 151.089844 185.992188 L 149.4375 185.410156 L 148.03125 184.363281 L 147.003906 182.945313 L 146.441406 181.285156 L 146.164063 179.714844 L 145.753906 178.636719 L 145.140625 177.664063 L 144.046875 176.5 L 142.984375 174.902344 L 142.5 173.046875 L 142.644531 171.132813 L 143.40625 169.371094 L 144.699219 167.953125 L 146.320313 166.675781 L 147.597656 165.050781 L 149.074219 163.722656 L 150.910156 162.96875 L 153.21875 162.457031 L 154.773438 161.625 L 156.097656 160.515625 L 161.363281 161.917969 L 164.042969 162.292969 L 165.242188 161.992188 L 166.015625 161.605469 L 166.75 160.257813 L 167.589844 160.183594 L 167.507813 160.828125 L 166.417969 162.609375 L 162.722656 166.96875 L 162.175781 167.183594 L 161.726563 166.894531 L 161.859375 165.949219 L 161.53125 165.507813 L 159.984375 165.785156 L 155.320313 167.769531 L 152.441406 170.8125 L 151.949219 171.945313 L 152.140625 172.144531 L 156.390625 168.453125 L 157.75 167.980469 L 160.300781 168.324219 L 161.058594 169.320313 L 157.109375 173.804688 L 156.367188 175.339844 L 156.707031 175.816406 L 157.367188 175.984375 L 158.261719 175.542969 L 161.140625 173.015625 L 167.808594 170.273438 L 170.480469 169.527344 L 170.492188 169.949219 L 171.554688 169.839844 L 173.589844 168.316406 L 174.046875 166.78125 L 178.648438 166.167969 L 179.285156 167.089844 L 180.148438 167.667969 L 184.320313 169.011719 L 187.675781 167.128906 L 199.164063 168.988281 L 204.117188 168.914063 L 205.648438 167.671875 L 207.910156 167.828125 Z M 203.726563 245.152344 L 203.628906 245.382813 L 202.40625 246.785156 L 200.800781 247.726563 L 199.097656 248.390625 L 198.085938 249.054688 L 197.230469 249.921875 L 196.578125 250.941406 L 196.152344 252.078125 L 195.972656 253.28125 L 196.046875 254.492188 L 196.539063 256.25 L 196.75 258.007813 L 196.425781 259.746094 L 195.589844 261.304688 L 194.328125 262.542969 L 192.75 263.339844 L 191.003906 263.628906 L 189.253906 263.382813 L 187.660156 262.617188 L 186.367188 261.410156 L 185.089844 259.785156 L 183.464844 258.507813 L 182.398438 257.414063 L 181.652344 256.078125 L 180.941406 254.273438 L 180.371094 253.429688 L 178.679688 251.984375 L 177.59375 251.492188 L 176.265625 251.234375 L 175.019531 251.277344 L 173.054688 251.800781 L 171.304688 251.996094 L 169.578125 251.652344 L 168.03125 250.8125 L 166.808594 249.542969 L 166.019531 247.96875 L 165.738281 246.230469 L 165.992188 244.488281 L 166.753906 242.898438 L 167.957031 241.613281 L 169.492188 240.40625 L 178.0625 241.875 L 182.921875 243.167969 L 186.398438 241.730469 L 187.519531 239.417969 L 188.617188 238.355469 L 189.539063 238.171875 L 193.183594 238.5 L 199.339844 242.761719 Z M 171.074219 238.496094 L 171.738281 237.816406 L 173.71875 236.1875 L 174.660156 234.933594 L 176.117188 233.570313 L 177.949219 232.777344 L 180.652344 232.125 L 182.214844 231.167969 L 183.15625 230.136719 L 183.78125 228.960938 L 184.15625 227.371094 L 184.085938 225.789063 L 183.589844 224.289063 L 183.125 223.605469 L 184.609375 222.886719 L 186.457031 221.386719 L 187.289063 221.316406 L 189.085938 221.875 L 189.332031 222.921875 L 188.898438 224.691406 L 189.238281 225.953125 L 190.898438 226.824219 L 192.988281 227.191406 L 194.445313 228.726563 L 194.429688 229.304688 L 192.117188 231.570313 L 189.460938 232.730469 L 188.34375 232.882813 L 187.070313 232.078125 L 185.40625 232.042969 L 181.046875 235.800781 L 180.578125 237.003906 L 174.761719 240.109375 Z M 157.292969 159.511719 L 157.816406 159.074219 L 159.25 157.273438 L 161.203125 155.6875 L 163.140625 154.722656 L 164.777344 153.308594 L 166.230469 152.386719 L 167.84375 151.945313 L 162.601563 156.074219 L 162.234375 157.082031 L 162.671875 158.175781 L 162.078125 159.632813 L 159.644531 160.289063 Z M 188.21875 121.5 L 187.160156 122.488281 L 186.984375 122.609375 L 186.4375 122.070313 L 185.203125 119.125 L 185.941406 118.488281 L 188.300781 118.292969 L 188.792969 119.078125 Z M 177.183594 117.746094 L 177.15625 117.589844 L 176.777344 116.621094 L 176.527344 116.226563 L 176.75 115.25 L 177.207031 114.695313 L 178.613281 114.28125 L 181.269531 116.636719 L 182.96875 119.6875 L 182.941406 120.441406 L 180.816406 120.886719 L 179.261719 120.746094 Z M 139.597656 247.28125 L 138.09375 246.890625 L 138.6875 242.234375 L 140.710938 241.59375 L 142.886719 242.511719 L 146.15625 243.175781 L 148.300781 243.253906 L 141.261719 240.453125 L 140.441406 240.5625 L 139.386719 240.085938 L 139.183594 238.121094 L 139.414063 236.460938 L 140.238281 234.648438 L 139.292969 234.9375 L 138.320313 240.257813 L 136.15625 245.152344 L 135.632813 245.054688 L 135.058594 244.335938 L 134.417969 242.582031 L 134.363281 240.71875 L 134.773438 237.660156 L 135.265625 235.980469 L 136.230469 234.523438 L 137.589844 233.417969 L 139.214844 232.769531 L 140.957031 232.628906 L 142.664063 233.015625 L 144.175781 233.894531 L 146.460938 235.726563 L 149.226563 236.695313 L 150.792969 237.53125 L 152.035156 238.804688 L 152.835938 240.390625 L 153.117188 242.148438 L 152.859375 243.90625 L 152.078125 245.503906 L 150.851563 246.789063 L 149.296875 247.648438 L 147.550781 247.992188 L 144.664063 248.117188 L 142.804688 247.894531 L 141.167969 247.425781 Z M 134.910156 282.613281 L 133.078125 283.007813 L 131.214844 282.800781 L 129.867188 282.171875 L 132.777344 280.410156 L 134.003906 276.632813 L 137.757813 273.035156 L 138.601563 268.871094 L 139.09375 268.0625 L 140.429688 268.894531 L 141.5625 270.191406 L 142.261719 271.761719 L 142.476563 273.46875 L 142.179688 275.164063 L 141.398438 276.699219 L 139.070313 279.964844 L 137.910156 281.175781 L 136.457031 282.003906 Z M 117.589844 267.5 L 115.808594 267.320313 L 115.242188 267.074219 L 115.277344 264.699219 L 117.226563 262.640625 L 117.992188 256.269531 L 119.765625 251.484375 L 120.511719 250.277344 L 121.574219 249.261719 L 123.234375 248.035156 L 124.914063 247.175781 L 126.015625 247.011719 L 126.1875 249.699219 L 124.449219 251.558594 L 123.367188 254.191406 L 121.183594 263.964844 L 122.0625 266.289063 L 121.113281 267.578125 L 119.675781 267.386719 Z M 132.003906 255.082031 L 130.914063 257.691406 L 130.28125 260.667969 L 130.171875 262.496094 L 129.890625 263.722656 L 129.152344 263.667969 L 126.582031 261.613281 L 125.375 256.128906 L 125.988281 253.21875 L 128.179688 251.246094 L 129.539063 251.441406 L 131.390625 253.015625 Z M 137.933594 323.433594 L 137.675781 322.921875 L 139.816406 316.644531 L 142.300781 315.023438 L 144.765625 310.230469 L 145.863281 309.40625 L 149.046875 308.269531 L 150.203125 313.453125 L 147.847656 318.148438 L 145.3125 320.636719 L 141.859375 323.019531 L 139.824219 322.464844 Z M 236.835938 466.113281 L 235.136719 465.644531 L 236.523438 463.683594 L 237.195313 464.164063 L 237.5 465.839844 Z M 228.117188 474.644531 L 222.296875 470.886719 L 220.207031 471.1875 L 221.476563 469.683594 L 227.316406 466.367188 L 232.550781 467.761719 L 234.171875 469.894531 L 231.242188 473.621094 L 229.960938 474.269531 Z M 88.429688 500.046875 L 88.566406 499.308594 L 88.941406 499.117188 L 89.34375 499.789063 Z M 189.007813 101.453125 L 189.121094 100.265625 L 187.730469 99.058594 L 186.953125 98.894531 L 186.835938 99.515625 L 186.335938 100.011719 L 184.679688 96.953125 L 188.613281 98.375 L 189.644531 99.757813 L 189.558594 100.558594 Z M 193.226563 103.421875 L 193.136719 102.113281 L 195.332031 98.847656 L 196.15625 98.316406 L 199.542969 97.917969 L 199.804688 99.347656 L 197.464844 100.832031 L 194.695313 101.191406 Z M 189.996094 116.5625 L 186.777344 113.90625 L 184.832031 114.03125 L 181.886719 115.097656 L 178.421875 112.621094 L 177.964844 110.527344 L 178.445313 106.398438 L 179.1875 105.574219 L 181.753906 104.792969 L 184.519531 106.003906 L 186.230469 108.273438 L 187.324219 111.371094 L 189.425781 112.382813 L 190.734375 113.441406 L 191.546875 114.902344 Z M 189.996094 116.5625 "/>
<path style=" stroke:none;fill-rule:nonzero;fill:rgb(80.392157%,58.431373%,4.705882%);fill-opacity:1;" d="M 223.890625 366.371094 L 223.609375 368.167969 L 222.78125 369.789063 L 221.496094 371.074219 L 219.875 371.898438 L 218.078125 372.183594 L 216.28125 371.898438 L 214.660156 371.074219 L 213.371094 369.789063 L 212.546875 368.167969 L 212.261719 366.371094 L 212.546875 364.570313 L 213.371094 362.949219 L 214.660156 361.664063 L 216.28125 360.839844 L 218.078125 360.554688 L 219.875 360.839844 L 221.496094 361.664063 L 222.78125 362.949219 L 223.609375 364.570313 Z M 223.890625 366.371094 "/>
<path style=" stroke:none;fill-rule:nonzero;fill:rgb(80.392157%,58.431373%,4.705882%);fill-opacity:1;" d="M 239.398438 432.277344 L 239.117188 434.074219 L 238.289063 435.695313 L 237.003906 436.980469 L 235.382813 437.808594 L 233.585938 438.09375 L 231.789063 437.808594 L 230.167969 436.980469 L 228.878906 435.695313 L 228.054688 434.074219 L 227.769531 432.277344 L 228.054688 430.480469 L 228.878906 428.859375 L 230.167969 427.570313 L 231.789063 426.746094 L 233.585938 426.460938 L 235.382813 426.746094 L 237.003906 427.570313 L 238.289063 428.859375 L 239.117188 430.480469 Z M 239.398438 432.277344 "/>
<path style=" stroke:none;fill-rule:nonzero;fill:rgb(80.392157%,58.431373%,4.705882%);fill-opacity:1;" d="M 239.398438 436.152344 L 239.117188 437.949219 L 238.289063 439.570313 L 237.003906 440.859375 L 235.382813 441.683594 L 233.585938 441.96875 L 231.789063 441.683594 L 230.167969 440.859375 L 228.878906 439.570313 L 228.054688 437.949219 L 227.769531 436.152344 L 228.054688 434.355469 L 228.878906 432.734375 L 230.167969 431.449219 L 231.789063 430.625 L 233.585938 430.339844 L 235.382813 430.625 L 237.003906 431.449219 L 238.289063 432.734375 L 239.117188 434.355469 Z M 239.398438 436.152344 "/>
<path style=" stroke:none;fill-rule:nonzero;fill:rgb(80.392157%,58.431373%,4.705882%);fill-opacity:1;" d="M 161.863281 211.292969 L 161.578125 213.089844 L 160.75 214.710938 L 159.464844 215.996094 L 157.84375 216.824219 L 156.046875 217.109375 L 154.25 216.824219 L 152.628906 215.996094 L 151.339844 214.710938 L 150.515625 213.089844 L 150.230469 211.292969 L 150.515625 209.496094 L 151.339844 207.875 L 152.628906 206.585938 L 154.25 205.761719 L 156.046875 205.476563 L 157.84375 205.761719 L 159.464844 206.585938 L 160.75 207.875 L 161.578125 209.496094 Z M 161.863281 211.292969 "/>
<path style=" stroke:none;fill-rule:nonzero;fill:rgb(80.392157%,58.431373%,4.705882%);fill-opacity:1;" d="M 262.660156 350.863281 L 262.375 352.660156 L 261.550781 354.28125 L 260.265625 355.566406 L 258.644531 356.390625 L 256.847656 356.675781 L 255.050781 356.390625 L 253.429688 355.566406 L 252.140625 354.28125 L 251.316406 352.660156 L 251.03125 350.863281 L 251.316406 349.066406 L 252.140625 347.441406 L 253.429688 346.15625 L 255.050781 345.332031 L 256.847656 345.046875 L 257.539063 345.15625 L 260.535156 347.621094 L 262.097656 348.515625 L 262.375 349.066406 Z M 262.660156 350.863281 "/>
<path style=" stroke:none;fill-rule:nonzero;fill:rgb(80.392157%,58.431373%,4.705882%);fill-opacity:1;" d="M 221.8125 281.585938 L 221.496094 281.90625 L 219.875 282.730469 L 218.078125 283.015625 L 216.28125 282.730469 L 214.660156 281.90625 L 213.371094 280.617188 L 212.546875 278.996094 L 212.261719 277.199219 L 212.546875 275.402344 L 213.371094 273.78125 L 214.660156 272.496094 L 216.28125 271.667969 L 218.078125 271.382813 L 219.136719 271.550781 L 220.40625 277.574219 L 221.269531 280.457031 Z M 221.8125 281.585938 "/>
<path style=" stroke:none;fill-rule:nonzero;fill:rgb(80.392157%,58.431373%,4.705882%);fill-opacity:1;" d="M 119.214844 222.921875 L 119.121094 223.515625 L 116.335938 225.03125 L 115.453125 224.539063 L 116.136719 223.339844 L 115.425781 223.117188 L 112.109375 224.96875 L 108.488281 225.933594 L 107.871094 224.71875 L 107.722656 223.800781 L 112.214844 222.164063 L 112.035156 221.589844 L 109.863281 222.445313 L 108.199219 222.488281 L 107.824219 221.539063 L 109.386719 219.472656 L 112.601563 217.957031 L 112.804688 217.203125 L 113.398438 217.109375 L 115.195313 217.390625 L 116.816406 218.21875 L 118.105469 219.503906 L 118.929688 221.125 Z M 119.214844 222.921875 "/>
<path style=" stroke:none;fill-rule:nonzero;fill:rgb(80.392157%,58.431373%,4.705882%);fill-opacity:1;" d="M 219.859375 274.980469 L 218.078125 275.261719 L 216.28125 274.976563 L 214.660156 274.152344 L 213.371094 272.863281 L 212.546875 271.242188 L 212.261719 269.445313 L 212.546875 267.648438 L 213.371094 266.027344 L 214.660156 264.742188 L 216.28125 263.914063 L 218.078125 263.628906 L 218.726563 263.734375 L 218.894531 265.933594 L 218.261719 267.402344 Z M 219.859375 274.980469 "/>
<path style=" stroke:none;fill-rule:nonzero;fill:rgb(80.392157%,58.431373%,4.705882%);fill-opacity:1;" d="M 218.28125 261.855469 L 217.617188 262.519531 L 215.996094 263.347656 L 214.199219 263.628906 L 212.402344 263.347656 L 210.78125 262.519531 L 209.496094 261.234375 L 208.667969 259.613281 L 208.382813 257.816406 L 208.667969 256.019531 L 209.496094 254.398438 L 210.421875 253.46875 L 212.824219 256.707031 L 213.265625 256.828125 L 213.433594 256.585938 L 214.601563 257.097656 L 217.371094 258.992188 Z M 218.28125 261.855469 "/>
<path style=" stroke:none;fill-rule:nonzero;fill:rgb(80.392157%,58.431373%,4.705882%);fill-opacity:1;" d="M 126.96875 184.152344 L 126.953125 184.257813 L 126.332031 183.683594 L 124.980469 183.324219 L 124.4375 181.292969 L 125.035156 181.238281 L 125.761719 180.640625 L 125.859375 180.734375 L 126.683594 182.355469 Z M 126.738281 185.621094 L 126.683594 185.949219 L 125.859375 187.570313 L 124.570313 188.859375 L 123.710938 189.296875 L 122.863281 188.511719 L 123.117188 185.351563 L 125.410156 184.53125 L 125.660156 184.984375 Z M 119.65625 189.730469 L 119.355469 189.683594 L 117.734375 188.859375 L 116.449219 187.570313 L 115.625 185.949219 L 115.339844 184.152344 L 115.421875 183.628906 L 117.5 184.859375 L 120.773438 183.445313 L 123.167969 184.417969 L 122.46875 186.839844 Z M 115.550781 182.8125 L 115.625 182.355469 L 116.054688 181.507813 L 116.664063 181.757813 L 116.886719 182.648438 L 116.207031 183.113281 Z M 119.21875 178.691406 L 119.355469 178.625 L 121.152344 178.339844 L 122.949219 178.625 L 124.265625 179.292969 L 120.484375 180.664063 L 119.382813 179.570313 Z M 119.21875 178.691406 "/>
<path style=" stroke:none;fill-rule:nonzero;fill:rgb(80.392157%,58.431373%,4.705882%);fill-opacity:1;" d="M 142.605469 291.886719 L 142.761719 290.910156 L 143.585938 289.289063 L 144.875 288.003906 L 146.496094 287.175781 L 148.292969 286.890625 L 150.089844 287.175781 L 151.710938 288.003906 L 152.996094 289.289063 L 153.824219 290.910156 L 154.019531 292.15625 L 149.984375 289.230469 L 149.214844 288.042969 L 149.230469 287.167969 L 148.945313 287.023438 L 148.15625 288.078125 L 147.988281 288.910156 L 148.375 290.554688 L 149.574219 292.960938 L 149.839844 295.726563 L 149.308594 296.871094 L 148.746094 297.058594 L 145.816406 295.78125 L 144.601563 294.238281 L 144.507813 293.621094 L 143.632813 292.355469 Z M 142.605469 291.886719 "/>
</g>
</svg>
