<?xml version="1.0" encoding="UTF-8"?>
<svg xmlns="http://www.w3.org/2000/svg" xmlns:xlink="http://www.w3.org/1999/xlink" width="378pt" height="504pt" viewBox="0 0 378 504" version="1.1">
<g id="data">
<rect x="0" y="0" width="378" height="504" style="fill:rgb(100%,100%,100%);fill-opacity:1;stroke:none;"/>
<path style=" stroke:none;fill-rule:nonzero;fill:rgb(100%,100%,100%);fill-opacity:1;" d="M 53.308594 504 L 324.691406 504 L 324.691406 0 L 53.308594 0 Z M 53.308594 504 "/>
<path style=" stroke:none;fill-rule:nonzero;fill:rgb(22.745098%,53.333333%,16.078431%);fill-opacity:1;" d="M 197.324219 212.667969 L 195.5625 213.59375 L 194.65625 214.410156 L 193.527344 216.292969 L 193.171875 218.132813 L 191.214844 219.742188 L 185.519531 221.085938 L 182.847656 221.226563 L 177.804688 225.21875 L 178.117188 225.714844 L 179.84375 225.195313 L 184.609375 222.886719 L 186.457031 221.386719 L 187.289063 221.316406 L 189.085938 221.875 L 189.332031 222.921875 L 188.898438 224.691406 L 189.238281 225.953125 L 190.898438 226.824219 L 192.988281 227.191406 L 194.445313 228.726563 L 194.429688 229.304688 L 192.117188 231.570313 L 189.460938 232.730469 L 188.34375 232.882813 L 187.070313 232.078125 L 185.40625 232.042969 L 181.046875 235.800781 L 180.578125 237.003906 L 174.761719 240.109375 L 170.214844 238.117188 L 166.480469 238.003906 L 166.738281 239.222656 L 168.246094 240.195313 L 178.0625 241.875 L 182.921875 243.167969 L 186.398438 241.730469 L 187.519531 239.417969 L 188.617188 238.355469 L 189.539063 238.171875 L 193.183594 238.5 L 199.339844 242.761719 L 206.488281 246.65625 L 208.359375 250.347656 L 208.300781 251.042969 L 207.808594 253.914063 L 208.238281 256.296875 L 208.761719 257.433594 L 209.640625 258.542969 L 210.746094 259.398438 L 212.671875 260.25 L 214.15625 261.195313 L 215.289063 262.546875 L 215.96875 264.171875 L 216.128906 265.925781 L 215.753906 267.644531 L 214.882813 269.175781 L 213.292969 271.1875 L 212.648438 272.871094 L 212.542969 274.558594 L 212.972656 276.347656 L 213.488281 277.3125 L 214.203125 278.171875 L 215.164063 278.9375 L 216.796875 279.75 L 218.769531 281.359375 L 220.046875 282.984375 L 221.671875 284.257813 L 222.660156 285.253906 L 223.382813 286.453125 L 224.289063 288.476563 L 224.722656 289.019531 L 225.945313 294.183594 L 229.304688 299.0625 L 239.371094 303.757813 L 239.558594 305.546875 L 239.9375 306.699219 L 240.550781 307.761719 L 241.265625 308.558594 L 242.460938 309.410156 L 243.734375 309.914063 L 246.664063 310.277344 L 247.121094 310.253906 L 247.265625 310.527344 L 249.289063 315.722656 L 252.390625 319.148438 L 256.121094 320.875 L 257.207031 321.722656 L 254.738281 323.09375 L 253.890625 324.554688 L 253.765625 325.996094 L 254.984375 329.992188 L 256.160156 332.453125 L 263.316406 342.46875 L 263.640625 343.980469 L 262.804688 345.191406 L 263.28125 343.65625 L 262.507813 342.839844 L 260.445313 342 L 258.378906 342.789063 L 257.507813 342.753906 L 256.035156 341.773438 L 253.664063 338.65625 L 252.601563 338.082031 L 245.550781 339.511719 L 244.589844 338.644531 L 243.40625 338.558594 L 241.210938 339.871094 L 241.886719 340.445313 L 246.324219 340.394531 L 249.617188 339.34375 L 251.976563 339.082031 L 254.382813 342.558594 L 260.535156 347.621094 L 263.042969 349.058594 L 263.664063 349.039063 L 266.046875 352.214844 L 266.1875 352.558594 L 266.0625 353.167969 L 265.339844 354.84375 L 265.140625 355.824219 L 265.351563 358.292969 L 265.644531 359.082031 L 266.070313 359.789063 L 268.566406 362.117188 L 269.4375 363.242188 L 269.210938 365.21875 L 264.953125 369.09375 L 261.394531 373.164063 L 260.601563 374.816406 L 262.84375 374.3125 L 264.9375 375.519531 L 266.9375 378.226563 L 270.21875 378.804688 L 270.625 378.746094 L 271.910156 376.796875 L 272.234375 374.960938 L 273.40625 371.914063 L 273.773438 371.550781 L 274.242188 371.800781 L 275.386719 372.117188 L 279.921875 372.777344 L 283.03125 372.261719 L 284.574219 372.214844 L 286.867188 372.449219 L 288.222656 372.234375 L 289.828125 371.496094 L 290.246094 371.121094 L 293.949219 371.515625 L 296.914063 372.84375 L 301.273438 376.035156 L 301.175781 377.050781 L 301.453125 378.589844 L 302.195313 380.085938 L 303.789063 381.835938 L 304.761719 383.296875 L 305.257813 384.980469 L 305.222656 386.734375 L 304.671875 388.398438 L 303.644531 389.824219 L 302.242188 390.878906 L 299.875 392.148438 L 298.738281 393.308594 L 297.851563 395.117188 L 297.515625 398.046875 L 296.886719 400.089844 L 295.5625 401.765625 L 293.613281 403.464844 L 292.660156 405.003906 L 292.308594 406.191406 L 292.230469 407.546875 L 292.441406 408.769531 L 293.226563 410.644531 L 293.261719 410.789063 L 292.742188 410.515625 L 292.480469 410.636719 L 293.605469 413.078125 L 293.496094 414.332031 L 292.746094 416.046875 L 291.492188 417.4375 L 289.859375 418.355469 L 288.019531 418.707031 L 286.164063 418.453125 L 284.488281 417.628906 L 282.910156 416.503906 L 281.808594 416.035156 L 280.632813 415.804688 L 279.457031 415.828125 L 277.703125 416.335938 L 275.542969 417.753906 L 273.617188 418.570313 L 271.53125 418.648438 L 268.785156 418.257813 L 266.914063 418.59375 L 265.5625 419.292969 L 264.382813 420.402344 L 263.640625 421.605469 L 263.191406 423.097656 L 263.148438 424.546875 L 263.46875 425.957031 L 264.203125 427.363281 L 265.496094 428.796875 L 266.738281 429.667969 L 268.78125 430.433594 L 270.320313 431.296875 L 271.53125 432.582031 L 272.296875 434.171875 L 272.550781 435.921875 L 272.269531 437.664063 L 271.480469 439.242188 L 270.25 440.511719 L 268.699219 441.351563 L 266.964844 441.6875 L 264.847656 441.773438 L 263.597656 442.125 L 262.367188 442.820313 L 260.835938 444.261719 L 259.597656 445.152344 L 258.175781 445.691406 L 255.558594 446.304688 L 254.035156 447.207031 L 253.121094 448.152344 L 252.421875 449.363281 L 252.03125 450.703125 L 251.949219 452.808594 L 251.625 454.511719 L 250.808594 456.042969 L 249.578125 457.265625 L 248.042969 458.074219 L 246.335938 458.390625 L 244.609375 458.1875 L 243.023438 457.488281 L 241.714844 456.351563 L 239.457031 453.703125 L 237.742188 452.355469 L 236.347656 450.773438 L 235.613281 448.792969 L 235.335938 447.222656 L 234.921875 446.144531 L 234.308594 445.171875 L 233.21875 444.007813 L 232.171875 442.449219 L 231.679688 440.636719 L 231.785156 438.761719 L 232.25 436.683594 L 232.226563 435.378906 L 231.867188 434.003906 L 231.203125 432.789063 L 230.195313 431.703125 L 228.949219 430.90625 L 227.648438 430.480469 L 225.425781 430.324219 L 223.480469 429.839844 L 221.8125 428.726563 L 220.621094 427.109375 L 220.054688 425.183594 L 219.753906 422.558594 L 219.824219 421.011719 L 218.699219 420.585938 L 216.175781 419.144531 L 213.191406 418.621094 L 211.632813 418.109375 L 210.28125 417.1875 L 208.519531 415.582031 L 207.109375 414.875 L 205.578125 414.582031 L 203.09375 414.808594 L 201.199219 414.667969 L 199.453125 413.925781 L 198.039063 412.660156 L 196.574219 410.839844 L 194.441406 409.175781 L 193.3125 408.53125 L 192.316406 408.207031 L 190.226563 408.113281 L 188.476563 408.621094 L 185.589844 410.601563 L 183.738281 412.78125 L 182.222656 414.046875 L 180.367188 414.734375 L 178.390625 414.757813 L 176.519531 414.121094 L 174.972656 412.890625 L 173.300781 411.019531 L 171.980469 410.195313 L 170.363281 409.734375 L 168.691406 409.746094 L 167.609375 410.019531 L 166.523438 410.558594 L 165.570313 411.3125 L 164.40625 412.722656 L 163.226563 413.800781 L 161.800781 414.519531 L 160.230469 414.824219 L 158.292969 414.925781 L 157.15625 415.238281 L 155.996094 415.847656 L 155.15625 416.558594 L 154.164063 417.921875 L 153.621094 419.414063 L 153.503906 421 L 153.988281 423.347656 L 154.074219 425.160156 L 153.59375 426.910156 L 152.601563 428.429688 L 151.1875 429.566406 L 149.492188 430.214844 L 147.679688 430.304688 L 147.019531 430.128906 L 146.917969 429.308594 L 148.539063 428.378906 L 150.066406 428.890625 L 151.640625 428.421875 L 152.765625 427.832031 L 153.085938 427.097656 L 152.808594 426.597656 L 147.785156 426.460938 L 143.210938 423.710938 L 139.503906 423.714844 L 136.765625 424.277344 L 136.292969 426.515625 L 135.777344 427.203125 L 133.742188 427.917969 L 132.394531 427.265625 L 131.648438 427.453125 L 129.4375 429.378906 L 126.9375 428.308594 L 126.859375 427.382813 L 127.425781 426.082031 L 128.796875 425.832031 L 131.792969 424.328125 L 131.226563 422.867188 L 130.640625 424.257813 L 127.769531 424.613281 L 125.816406 424.425781 L 125.257813 423.683594 L 123.355469 422.234375 L 123.324219 422.203125 L 124.125 421.78125 L 125.167969 421.753906 L 125.464844 421.238281 L 124.929688 417.953125 L 123.328125 417.210938 L 121.445313 417.105469 L 122.0625 415.152344 L 125.933594 413.378906 L 126.539063 411.90625 L 127.085938 411.855469 L 128.128906 411.925781 L 130.179688 412.378906 L 131.554688 412.34375 L 132.988281 411.945313 L 134.027344 411.351563 L 136.28125 408.929688 L 138.074219 407.625 L 140.207031 406.625 L 141.359375 406.660156 L 142.21875 406.390625 L 149.359375 401.828125 L 152.136719 398.207031 L 153.054688 396.195313 L 154.199219 391.746094 L 153.734375 388.820313 L 152.566406 386.542969 L 153.179688 384.597656 L 154.652344 381.796875 L 152.269531 378.203125 L 152.683594 374.835938 L 153.175781 374.082031 L 152.804688 373.207031 L 150.203125 373.105469 L 145.449219 374.257813 L 143.757813 375.484375 L 142.039063 378.097656 L 138.65625 378.3125 L 138.601563 377.871094 L 138.890625 376.183594 L 139.660156 374.652344 L 140.839844 373.414063 L 142.128906 372.410156 L 142.507813 371.980469 L 142.589844 371.953125 L 147.132813 367.984375 L 147.953125 364.523438 L 151.550781 360.582031 L 153.09375 359.609375 L 154.941406 359.808594 L 160.492188 357.457031 L 163.644531 357.28125 L 167.339844 357.714844 L 172.597656 355.179688 L 173.933594 355.046875 L 174.484375 355.082031 L 179.910156 359.441406 L 180.433594 358.429688 L 177.679688 353.460938 L 178.242188 352.835938 L 180.867188 352.449219 L 181.503906 352.695313 L 181.914063 353.875 L 182.898438 354.332031 L 184.078125 356.789063 L 185.613281 357.902344 L 188.359375 357.621094 L 190.335938 355.148438 L 189.90625 355.050781 L 188.667969 355.527344 L 188.3125 355.957031 L 186.378906 356.386719 L 183.8125 354.640625 L 179.976563 346.332031 L 183.371094 340.257813 L 185.429688 339.015625 L 185.140625 338.578125 L 182.683594 338.460938 L 181.554688 337.164063 L 181.355469 336.117188 L 181.601563 331.078125 L 181.949219 330.421875 L 184.695313 329.191406 L 187.28125 323.421875 L 187.71875 320.933594 L 187.855469 317.484375 L 184.742188 320.527344 L 179.199219 323.441406 L 178.054688 322.980469 L 178.046875 322.957031 L 176.644531 321.230469 L 176.367188 321.011719 L 172.851563 314.925781 L 172.289063 311.832031 L 167.40625 304.652344 L 169.164063 299.058594 L 174.074219 288.722656 L 176.464844 286.417969 L 178.757813 285.980469 L 180.191406 286.804688 L 181.015625 286.710938 L 182.933594 286.238281 L 183.03125 285.160156 L 182.34375 284.746094 L 180.035156 285.351563 L 174.65625 284.980469 L 172.566406 284.292969 L 169.453125 284.03125 L 168.226563 288.992188 L 166.234375 288.695313 L 163.3125 290.011719 L 161.976563 291.671875 L 161.484375 291.347656 L 160.082031 290.863281 L 158.449219 290.648438 L 156.359375 290.761719 L 155.519531 290.746094 L 152.941406 290.511719 L 151.964844 290.667969 L 149.984375 289.230469 L 149.214844 288.042969 L 149.230469 287.167969 L 148.945313 287.023438 L 148.15625 288.078125 L 147.988281 288.910156 L 148.375 290.554688 L 149.226563 292.261719 L 148.472656 292.996094 L 146.878906 294.097656 L 145.007813 294.617188 L 144.894531 294.609375 L 144.601563 294.238281 L 144.507813 293.621094 L 143.632813 292.355469 L 141.613281 291.4375 L 140.164063 290.433594 L 138.398438 288.636719 L 137.464844 288.296875 L 136.460938 289.011719 L 135.75 288.25 L 134.984375 286.679688 L 134.722656 284.953125 L 134.722656 281.078125 L 134.800781 280.125 L 135.199219 277.730469 L 135.066406 276.421875 L 134.824219 275.84375 L 137.757813 273.035156 L 138.601563 268.871094 L 140.917969 265.085938 L 143.644531 263.800781 L 144.390625 261.886719 L 144.195313 260.621094 L 142.601563 256.71875 L 139.777344 254.832031 L 137.378906 252.511719 L 138.6875 242.234375 L 140.710938 241.59375 L 142.886719 242.511719 L 146.15625 243.175781 L 148.300781 243.253906 L 141.261719 240.453125 L 140.441406 240.5625 L 139.386719 240.085938 L 139.183594 238.121094 L 139.414063 236.460938 L 140.238281 234.648438 L 139.292969 234.9375 L 138.320313 240.257813 L 136.15625 245.152344 L 135.023438 244.945313 L 131.566406 242.222656 L 130.757813 242.5 L 130.269531 243.347656 L 130.09375 244.535156 L 130.664063 246.308594 L 130.519531 246.613281 L 128.257813 245.464844 L 127.46875 243.074219 L 128.453125 238.691406 L 131.230469 234.078125 L 136.953125 229.316406 L 138.316406 227.601563 L 135.558594 229.292969 L 130.363281 233.964844 L 126.449219 238.917969 L 125.671875 238.734375 L 125.460938 238.363281 L 126.1875 249.699219 L 124.449219 251.558594 L 123.367188 254.191406 L 121.183594 263.964844 L 122.0625 266.289063 L 120.679688 268.164063 L 119.945313 268.597656 L 116.058594 268.992188 L 115.222656 268.382813 L 115.277344 264.699219 L 117.226563 262.640625 L 117.992188 256.269531 L 120.664063 249.058594 L 119.164063 246.890625 L 119.359375 242.367188 L 121.945313 238.054688 L 122.191406 237.09375 L 120.824219 237.742188 L 119.636719 239.75 L 119.449219 238.929688 L 123.929688 230.9375 L 123.671875 230.734375 L 122.386719 231.796875 L 121.808594 231.777344 L 122.070313 227.40625 L 122.761719 224.691406 L 124.160156 221.96875 L 126.660156 220.210938 L 128.792969 220.179688 L 129.328125 220.484375 L 131.4375 220.320313 L 134.28125 217.339844 L 135.300781 215.007813 L 134.855469 215.347656 L 134.105469 217.117188 L 131.898438 219.546875 L 131.125 219.644531 L 127.28125 218.265625 L 127.882813 216.460938 L 128.195313 216.742188 L 128.945313 216.671875 L 131.070313 215.113281 L 129.507813 214.882813 L 128.550781 215.441406 L 127.980469 214.949219 L 127.875 213.785156 L 129.65625 210.6875 L 134.21875 205.03125 L 134.59375 204.003906 L 123.476563 215.398438 L 120.675781 217.269531 L 120.230469 216.390625 L 115.878906 214.433594 L 114.8125 213.664063 L 113.113281 211.414063 L 113.132813 210.632813 L 113.96875 210.082031 L 116.167969 209.980469 L 120.585938 209.09375 L 123.988281 209.15625 L 124.257813 209.050781 L 124.117188 208.789063 L 119.15625 207.757813 L 117.03125 209.015625 L 115.34375 209.1875 L 108.898438 208.554688 L 108.144531 207.871094 L 107.96875 206.789063 L 109.109375 205.527344 L 114.792969 204.496094 L 115.882813 205.636719 L 117.070313 206.34375 L 118.480469 204.378906 L 117.316406 203.507813 L 117.253906 202.640625 L 119.675781 202.136719 L 120.503906 202.316406 L 121.824219 201.292969 L 121.664063 200.792969 L 120.140625 199.953125 L 116.804688 200.417969 L 115.804688 199.949219 L 118.253906 195.210938 L 118.835938 194.789063 L 120.441406 194.839844 L 120.773438 195.527344 L 122.574219 196.710938 L 124.417969 196.351563 L 125.527344 195.796875 L 122.886719 196.148438 L 119.445313 193.175781 L 119.640625 191.949219 L 120.992188 190.507813 L 122.769531 190.464844 L 125.425781 191.839844 L 128.601563 191.21875 L 128.128906 190.679688 L 126.691406 190.847656 L 125.089844 190.582031 L 122.863281 188.511719 L 123.117188 185.351563 L 125.410156 184.53125 L 125.660156 184.984375 L 127.679688 186.175781 L 128.171875 186.347656 L 128.714844 185.882813 L 126.332031 183.683594 L 124.980469 183.324219 L 124.4375 181.292969 L 125.035156 181.238281 L 127.738281 179.023438 L 128.101563 177.597656 L 126.824219 178.363281 L 120.484375 180.664063 L 119.382813 179.570313 L 118.449219 174.53125 L 119.328125 170.882813 L 120.234375 171.144531 L 121.074219 171.171875 L 121.429688 171.886719 L 123.644531 173.570313 L 124.390625 172.890625 L 127 172.59375 L 126.421875 171.808594 L 123.910156 171.675781 L 123.300781 171.917969 L 122.609375 170.976563 L 123.792969 170.71875 L 125.558594 170.609375 L 127.277344 171.035156 L 128.785156 171.957031 L 129.945313 173.292969 L 130.652344 174.914063 L 130.839844 176.671875 L 130.488281 178.40625 L 129.527344 181.023438 L 129.460938 182.78125 L 129.9375 184.484375 L 130.941406 186.007813 L 133.171875 187.875 L 134.195313 188.480469 L 135.601563 188.9375 L 136.835938 189.035156 L 138.519531 188.726563 L 140.066406 187.929688 L 141.238281 186.800781 L 142.019531 185.429688 L 143.101563 180.320313 L 143.058594 179.46875 L 142.644531 177.789063 L 142.476563 176.398438 L 142.476563 172.523438 L 142.574219 171.457031 L 143.082031 168.75 L 142.78125 166.261719 L 142.828125 164.554688 L 143.367188 162.9375 L 144.355469 161.542969 L 145.707031 160.5 L 147.300781 159.890625 L 150.914063 159.089844 L 152.453125 158.960938 L 154.097656 159.039063 L 154.464844 159.796875 L 155.875 160.457031 L 161.363281 161.917969 L 164.042969 162.292969 L 165.242188 161.992188 L 166.015625 161.605469 L 166.75 160.257813 L 167.589844 160.183594 L 167.507813 160.828125 L 166.417969 162.609375 L 162.722656 166.96875 L 162.175781 167.183594 L 161.726563 166.894531 L 161.859375 165.949219 L 161.53125 165.507813 L 159.984375 165.785156 L 155.320313 167.769531 L 152.441406 170.8125 L 151.949219 171.945313 L 152.140625 172.144531 L 156.390625 168.453125 L 157.75 167.980469 L 160.300781 168.324219 L 161.058594 169.320313 L 157.109375 173.804688 L 156.367188 175.339844 L 156.707031 175.816406 L 157.367188 175.984375 L 158.261719 175.542969 L 161.140625 173.015625 L 167.808594 170.273438 L 170.480469 169.527344 L 170.492188 169.949219 L 171.554688 169.839844 L 173.589844 168.316406 L 174.046875 166.78125 L 178.648438 166.167969 L 179.285156 167.089844 L 180.148438 167.667969 L 184.320313 169.011719 L 187.675781 167.128906 L 199.164063 168.988281 L 204.117188 168.914063 L 205.648438 167.671875 L 207.910156 167.828125 L 210.3125 168.835938 L 212.550781 172.800781 L 213.671875 176.582031 L 213.695313 178 L 209.382813 183.425781 L 207.15625 188.339844 L 206.664063 191.242188 L 206.84375 191.972656 L 206.226563 194.742188 L 203.9375 198.859375 L 203.765625 200.121094 L 204.023438 201.304688 L 203.230469 203.472656 L 200.949219 206.4375 L 199.179688 207.605469 L 197.078125 210.023438 L 197.433594 210.839844 L 197.785156 210.703125 L 197.761719 211.238281 Z M 227.28125 416.410156 L 228.574219 416.945313 L 230.597656 418.1875 L 232.121094 418.621094 L 234.160156 418.632813 L 235.855469 418.199219 L 236.835938 417.675781 L 237.761719 416.890625 L 238.515625 415.917969 L 238.914063 415.097656 L 240.011719 409.019531 L 239.898438 407.777344 L 239.429688 406.304688 L 238.699219 405.046875 L 237.652344 403.980469 L 236.445313 403.242188 L 234.84375 402.714844 L 233.191406 402.597656 L 231.546875 402.953125 L 230.160156 403.699219 L 228.972656 404.851563 L 228.3125 405.941406 L 227.910156 407.183594 L 227.753906 409.417969 L 227.652344 410.167969 L 227.164063 412.582031 L 227.375 415.039063 Z M 195.46875 304.105469 L 195.125 304.496094 L 193.789063 305.882813 L 193.171875 306.882813 L 192.746094 308.09375 L 192.589844 309.421875 L 192.890625 313.285156 L 193.164063 314.511719 L 193.78125 315.824219 L 194.777344 317.03125 L 195.625 317.683594 L 196.65625 318.1875 L 197.753906 318.476563 L 198.972656 318.539063 L 205.214844 317.515625 L 206.351563 316.964844 L 207.4375 316.0625 L 208.273438 314.941406 L 209.492188 312.34375 L 209.835938 311.074219 L 209.902344 309.882813 L 209.707031 308.660156 L 208.835938 306.585938 L 208.539063 305.667969 L 207.894531 302.921875 L 207.402344 301.996094 L 206.578125 301.027344 L 205.503906 300.230469 L 204.191406 299.671875 L 202.890625 299.453125 L 201.539063 299.542969 L 200.324219 299.910156 L 199.136719 300.570313 L 196.933594 302.285156 Z M 143.222656 359.683594 L 143.265625 359.566406 L 144.414063 358.160156 L 145.9375 357.175781 L 147.695313 356.707031 L 150.441406 356.421875 L 151.917969 355.761719 L 155.546875 356.503906 L 154.066406 358.859375 L 150.984375 360.816406 L 147.425781 363.976563 L 146.109375 363.875 L 144.195313 361.613281 Z M 93.878906 214.839844 L 94.519531 213.984375 L 95.226563 213.476563 L 95.671875 214.59375 Z M 96.796875 212.679688 L 97.648438 212.402344 L 99.433594 212.113281 L 99.425781 212.117188 L 96.976563 213.15625 Z M 155.792969 158.855469 L 156.785156 158.6875 L 158.21875 158.019531 L 160.011719 156.480469 L 161.496094 155.554688 L 163.183594 155.109375 L 163.789063 155.136719 L 162.601563 156.074219 L 162.234375 157.082031 L 162.671875 158.175781 L 162.078125 159.632813 L 159.644531 160.289063 L 156.839844 159.359375 Z M 148.292969 469.109375 L 150.261719 469.453125 L 152 470.441406 L 153.296875 471.964844 L 154.003906 473.835938 L 154.46875 476.261719 L 154.535156 477.980469 L 154.097656 479.644531 L 153.191406 481.109375 L 151.894531 482.242188 L 150.324219 482.949219 L 148.992188 483.117188 L 148.46875 482.535156 L 146.546875 482.679688 L 145.386719 482.089844 L 143.859375 481.007813 L 142.140625 480.273438 L 140.640625 479.347656 L 139.488281 478.011719 L 138.789063 476.394531 L 138.605469 474.640625 L 138.960938 472.910156 L 139.8125 471.367188 L 141.089844 470.152344 L 142.671875 469.375 L 144.414063 469.109375 Z M 137.933594 323.433594 L 137.675781 322.921875 L 139.816406 316.644531 L 142.300781 315.023438 L 144.765625 310.230469 L 145.863281 309.40625 L 149.046875 308.269531 L 150.203125 313.453125 L 147.847656 318.148438 L 145.3125 320.636719 L 141.859375 323.019531 L 139.824219 322.464844 Z M 118.089844 190.683594 L 116.035156 193.449219 L 114.023438 194.042969 L 113.570313 192.609375 L 115.183594 189.4375 L 113.980469 187.324219 L 112.75 189.558594 L 110.542969 187.414063 L 107.277344 187.777344 L 104.472656 183.015625 L 103.78125 181.25 L 105.464844 179.976563 L 107.179688 181.675781 L 107.667969 181.742188 L 107.789063 181.460938 L 102.875 176.632813 L 101.867188 177.609375 L 102.007813 179.089844 L 101.671875 179.800781 L 98.648438 178.089844 L 98.414063 176.53125 L 97.28125 175.296875 L 97.152344 174.433594 L 101.03125 167.96875 L 101.53125 168.039063 L 102.335938 169.03125 L 102.71875 170.644531 L 104.785156 172.40625 L 105.550781 172.625 L 106.867188 171.878906 L 106.617188 168.460938 L 106.121094 166.925781 L 108.003906 165.003906 L 108.964844 165.003906 L 111.609375 168.273438 L 112.355469 170.324219 L 112.300781 173.941406 L 111.832031 177.386719 L 112.054688 181.640625 L 117.5 184.859375 L 120.773438 183.445313 L 123.167969 184.417969 L 122.46875 186.839844 L 119.148438 190.25 Z M 116.21875 172.839844 L 115.832031 172.433594 L 115.832031 171.710938 L 116.085938 170.789063 L 116.59375 170.277344 L 116.765625 170.625 Z M 113.875 180.957031 L 113.53125 180.855469 L 113.277344 179.863281 L 113.640625 176.351563 L 114.757813 173.765625 L 115.464844 173.085938 L 116.03125 173.816406 L 115.367188 179.941406 L 114.945313 180.566406 Z M 116.207031 183.113281 L 115.0625 182.589844 L 114.59375 181.914063 L 114.695313 181.441406 L 115.34375 181.214844 L 116.664063 181.757813 L 116.886719 182.648438 Z M 100.703125 192.265625 L 100.25 191.921875 L 101.515625 191.273438 L 102.835938 191.832031 Z M 106.597656 197.398438 L 105.582031 196.804688 L 103.613281 194.261719 L 105.34375 192.390625 L 106.722656 192.214844 L 107.992188 192.835938 L 108.445313 193.703125 L 108.09375 196.351563 L 107.546875 197.015625 Z M 110.160156 200.433594 L 108.972656 199.578125 L 108.9375 198.890625 L 110.578125 197.179688 L 111.398438 197.769531 L 111.5 198.265625 L 111.128906 199.855469 Z M 110.59375 209.929688 L 111.976563 210.636719 L 113.289063 212.988281 L 113.785156 214.699219 L 116.457031 215.945313 L 117.929688 216.300781 L 121.195313 219.144531 L 120.902344 221.207031 L 119.445313 223.339844 L 116.335938 225.03125 L 115.453125 224.539063 L 116.136719 223.339844 L 115.425781 223.117188 L 112.109375 224.96875 L 106.027344 226.585938 L 104.691406 226.273438 L 103.734375 224.277344 L 103.851563 223.371094 L 104.191406 223.09375 L 105.628906 223.050781 L 106.039063 223.617188 L 106.972656 224.074219 L 112.214844 222.164063 L 112.035156 221.589844 L 109.863281 222.445313 L 108.199219 222.488281 L 107.824219 221.539063 L 109.386719 219.472656 L 112.601563 217.957031 L 112.90625 216.820313 L 112.554688 216.699219 L 109.90625 217.519531 L 105.058594 214.074219 L 105.636719 211.667969 L 108.914063 210.140625 L 110.03125 209.789063 Z M 108.136719 218.074219 L 107.207031 217.691406 L 106.753906 217.160156 L 107.335938 216.378906 L 108.085938 216.507813 L 109.105469 217.519531 L 109.070313 217.820313 Z M 123.378906 222.417969 L 122.582031 222.078125 L 123.082031 221.191406 L 124.476563 221.046875 Z M 102.664063 224.511719 L 102.054688 224.097656 L 102.589844 223.230469 L 103.304688 222.808594 L 103.460938 223.023438 Z M 121.453125 227.109375 L 121.152344 226.972656 L 120.984375 225.621094 L 121.59375 224.800781 L 122.367188 224.816406 L 121.953125 226.621094 Z M 120.902344 230.566406 L 120.316406 229.273438 L 120.976563 227.386719 L 121.816406 227.683594 Z M 118.503906 231.671875 L 118.15625 231.449219 L 118.535156 230.824219 L 119.917969 230.164063 L 119.953125 231.257813 Z M 111.886719 247.292969 L 110.550781 247.070313 L 109.476563 246.144531 L 109.292969 243.285156 L 109.585938 242.089844 L 112.5625 237.15625 L 116.605469 233.660156 L 119.195313 232.023438 L 119.632813 233.128906 L 119.449219 233.945313 L 118.015625 235.730469 L 113.761719 243.328125 Z M 106.976563 236.632813 L 105.476563 236.191406 L 106.28125 234.464844 L 107.839844 232.910156 L 108.882813 232.734375 L 107.535156 236.1875 Z M 103.964844 256.144531 L 102.714844 255.347656 L 104.988281 247.472656 L 102.980469 247.105469 L 101.464844 249.738281 L 99.988281 251.246094 L 99.089844 251.691406 L 98.539063 251.066406 L 99.023438 248.875 L 100.660156 243.785156 L 102.445313 243.214844 L 103.882813 243.558594 L 106.871094 241.457031 L 108.433594 240.808594 L 108.667969 241.335938 L 108.480469 243.175781 L 108.777344 246.292969 L 109.046875 247.320313 L 109.929688 248.226563 L 110.335938 251.851563 L 108.992188 253.109375 Z M 134.8125 251.347656 L 132.589844 248.835938 L 130.84375 244.566406 L 130.707031 243.464844 L 131.460938 242.613281 L 133.71875 244.574219 L 134.707031 246.3125 L 135.339844 249.003906 L 135.222656 250.96875 Z M 130.613281 263.773438 L 129.152344 263.667969 L 126.582031 261.613281 L 125.375 256.128906 L 125.988281 253.21875 L 128.179688 251.246094 L 129.539063 251.441406 L 131.390625 253.015625 L 132.984375 258.382813 L 133.019531 262.765625 L 132.308594 263.453125 Z M 130.613281 263.773438 "/>
<path style=" stroke:none;fill-rule:nonzero;fill:rgb(80.392157%,58.431373%,4.705882%);fill-opacity:1;" d="M 216.136719 451.660156 L 215.855469 453.457031 L 215.027344 455.078125 L 213.742188 456.367188 L 212.121094 457.191406 L 210.324219 457.476563 L 208.527344 457.191406 L 206.90625 456.367188 L 205.617188 455.078125 L 204.792969 453.457031 L 204.507813 451.660156 L 204.792969 449.863281 L 205.617188 448.242188 L 206.90625 446.957031 L 208.527344 446.128906 L 210.324219 445.847656 L 212.121094 446.128906 L 213.742188 446.957031 L 215.027344 448.242188 L 215.855469 449.863281 Z M 216.136719 451.660156 "/>
<path style=" stroke:none;fill-rule:nonzero;fill:rgb(80.392157%,58.431373%,4.705882%);fill-opacity:1;" d="M 192.875 451.660156 L 192.59375 453.457031 L 191.765625 455.078125 L 190.480469 456.367188 L 188.859375 457.191406 L 187.0625 457.476563 L 185.265625 457.191406 L 183.644531 456.367188 L 182.355469 455.078125 L 181.53125 453.457031 L 181.246094 451.660156 L 181.53125 449.863281 L 182.355469 448.242188 L 183.644531 446.957031 L 185.265625 446.128906 L 187.0625 445.847656 L 188.859375 446.128906 L 190.480469 446.957031 L 191.765625 448.242188 L 192.59375 449.863281 Z M 192.875 451.660156 "/>
<path style=" stroke:none;fill-rule:nonzero;fill:rgb(80.392157%,58.431373%,4.705882%);fill-opacity:1;" d="M 142.476563 157.015625 L 142.191406 158.8125 L 141.367188 160.433594 L 140.078125 161.71875 L 138.457031 162.546875 L 136.660156 162.832031 L 134.863281 162.546875 L 133.242188 161.71875 L 131.957031 160.433594 L 131.128906 158.8125 L 130.847656 157.015625 L 130.9375 156.429688 L 131.765625 156.140625 L 134.503906 157.136719 L 136.507813 158.589844 L 137.039063 159.417969 L 137.175781 158.679688 L 135.242188 155.121094 L 133.609375 154.054688 L 132.511719 153.042969 L 133.242188 152.3125 L 134.863281 151.484375 L 136.660156 151.199219 L 138.457031 151.484375 L 140.078125 152.3125 L 141.367188 153.597656 L 142.191406 155.21875 Z M 142.476563 157.015625 "/>
<path style=" stroke:none;fill-rule:nonzero;fill:rgb(80.392157%,58.431373%,4.705882%);fill-opacity:1;" d="M 226.511719 59.78125 L 225.371094 60.921875 L 224.078125 61.582031 L 223.632813 57.773438 L 221.078125 57.210938 L 222.089844 58.292969 L 222.21875 59.898438 L 220.292969 61.703125 L 218.738281 60.40625 L 218.746094 59.554688 L 216.808594 58.773438 L 216.421875 58.011719 L 216.136719 56.214844 L 216.316406 55.085938 L 220.695313 54.34375 L 222.421875 53.527344 L 222.960938 52.8125 L 221.535156 50.464844 L 221.953125 50.398438 L 223.75 50.683594 L 225.371094 51.511719 L 226.660156 52.796875 L 227.484375 54.417969 L 227.738281 56.011719 L 227.699219 56.234375 L 226.355469 57.007813 L 225.6875 56.476563 L 226.023438 58.453125 Z M 226.511719 59.78125 "/>
<path style=" stroke:none;fill-rule:nonzero;fill:rgb(80.392157%,58.431373%,4.705882%);fill-opacity:1;" d="M 150.230469 129.875 L 149.945313 131.675781 L 149.121094 133.296875 L 147.832031 134.582031 L 146.210938 135.40625 L 144.414063 135.691406 L 142.617188 135.40625 L 140.996094 134.582031 L 139.710938 133.296875 L 138.882813 131.675781 L 138.652344 130.21875 L 140.925781 126.128906 L 145.976563 127.269531 L 147.488281 129.277344 L 147.992188 130.773438 L 145.957031 133.847656 L 146.042969 134.238281 L 149.632813 130.886719 L 149.902344 129.097656 L 150.089844 128.976563 Z M 150.230469 129.875 "/>
<path style=" stroke:none;fill-rule:nonzero;fill:rgb(80.392157%,58.431373%,4.705882%);fill-opacity:1;" d="M 108.082031 147.09375 L 107.726563 147.039063 L 107.539063 146.941406 L 108.015625 146.824219 Z M 106.714844 146.523438 L 106.105469 146.210938 L 104.816406 144.925781 L 103.992188 143.304688 L 103.707031 141.507813 L 103.992188 139.710938 L 104.816406 138.089844 L 106.105469 136.804688 L 107.726563 135.976563 L 109.523438 135.691406 L 111.320313 135.976563 L 112.800781 136.730469 L 112.328125 137.878906 L 110.105469 140.078125 L 109.925781 141.289063 L 111.058594 141.910156 L 112.367188 141.523438 L 113.644531 140.4375 L 114.097656 140.800781 L 113.746094 142.269531 L 112.140625 143.671875 L 111.234375 143.917969 L 109.761719 143.558594 L 108.839844 144.542969 L 108.40625 145.765625 Z M 106.714844 146.523438 "/>
<path style=" stroke:none;fill-rule:nonzero;fill:rgb(80.392157%,58.431373%,4.705882%);fill-opacity:1;" d="M 154.027344 130.375 L 153.824219 131.675781 L 152.996094 133.296875 L 151.710938 134.582031 L 150.089844 135.40625 L 148.292969 135.691406 L 146.496094 135.40625 L 144.875 134.582031 L 143.585938 133.296875 L 142.761719 131.675781 L 142.476563 129.875 L 142.761719 128.078125 L 143.464844 126.703125 L 145.976563 127.269531 L 147.488281 129.277344 L 147.992188 130.773438 L 145.957031 133.847656 L 146.042969 134.238281 L 149.632813 130.886719 L 149.902344 129.097656 L 150.597656 128.644531 L 152.578125 129.367188 L 153.359375 129.816406 L 153.609375 130.328125 Z M 154.027344 130.375 "/>
<path style=" stroke:none;fill-rule:nonzero;fill:rgb(80.392157%,58.431373%,4.705882%);fill-opacity:1;" d="M 191.269531 114.40625 L 190.480469 115.195313 L 189.15625 115.871094 L 186.777344 113.90625 L 184.832031 114.03125 L 183.105469 114.65625 L 182.355469 113.910156 L 181.53125 112.289063 L 181.246094 110.492188 L 181.53125 108.695313 L 182.355469 107.074219 L 183.644531 105.789063 L 183.820313 105.699219 L 184.519531 106.003906 L 186.230469 108.273438 L 187.324219 111.371094 L 189.425781 112.382813 L 190.734375 113.441406 Z M 191.269531 114.40625 "/>
<path style=" stroke:none;fill-rule:nonzero;fill:rgb(80.392157%,58.431373%,4.705882%);fill-opacity:1;" d="M 85.121094 185.328125 L 84.183594 185.808594 L 82.382813 186.09375 L 81.714844 185.984375 L 81.515625 184.671875 L 82.046875 176.234375 L 83.4375 175.515625 L 85.28125 176.539063 L 86.578125 178.347656 L 85.882813 178.945313 L 85.144531 178.476563 L 85.03125 179.058594 Z M 83.148438 174.582031 L 84.183594 174.746094 L 85.804688 175.570313 L 85.902344 175.671875 L 85.394531 175.835938 L 84.546875 175.601563 Z M 83.148438 174.582031 "/>
<path style=" stroke:none;fill-rule:nonzero;fill:rgb(80.392157%,58.431373%,4.705882%);fill-opacity:1;" d="M 95.953125 149.261719 L 95.667969 151.058594 L 94.929688 152.511719 L 94.117188 152.148438 L 92.941406 152.324219 L 92.058594 151.863281 L 91.273438 150.875 L 92.699219 149.40625 L 91.417969 144.347656 L 91.753906 143.703125 L 91.933594 143.730469 L 93.558594 144.558594 L 94.84375 145.84375 L 95.667969 147.464844 Z M 93.617188 153.90625 L 93.558594 153.964844 L 91.933594 154.792969 L 91.878906 154.800781 L 91.882813 154.726563 L 92.882813 153.957031 Z M 93.617188 153.90625 "/>
</g>
</svg>
