<?xml version="1.0" encoding="UTF-8"?>
<svg xmlns="http://www.w3.org/2000/svg" xmlns:xlink="http://www.w3.org/1999/xlink" width="378pt" height="504pt" viewBox="0 0 378 504" version="1.1">
<g id="data">
<rect x="0" y="0" width="378" height="504" style="fill:rgb(100%,100%,100%);fill-opacity:1;stroke:none;"/>
<path style=" stroke:none;fill-rule:nonzero;fill:rgb(100%,100%,100%);fill-opacity:1;" d="M 53.308594 504 L 324.691406 504 L 324.691406 0 L 53.308594 0 Z M 53.308594 504 "/>
<path style=" stroke:none;fill-rule:nonzero;fill:rgb(22.745098%,53.333333%,16.078431%);fill-opacity:1;" d="M 213.679688 177.042969 L 211.8125 179.34375 L 210.832031 181.601563 L 209.382813 183.425781 L 207.15625 188.339844 L 206.714844 190.925781 L 206.34375 192.65625 L 206.390625 194.019531 L 206.226563 194.742188 L 205.027344 196.898438 L 204.277344 197.492188 L 202.570313 199.660156 L 200.214844 200.671875 L 198.042969 202.257813 L 196.085938 204.621094 L 194.816406 207.414063 L 191.695313 209.171875 L 189.183594 211.898438 L 187.882813 214.542969 L 187.289063 217.425781 L 187.417969 220.242188 L 187.53125 220.613281 L 185.519531 221.085938 L 182.847656 221.226563 L 177.804688 225.21875 L 178.117188 225.714844 L 179.84375 225.195313 L 184.609375 222.886719 L 186.457031 221.386719 L 187.289063 221.316406 L 187.792969 221.472656 L 188.273438 223.0625 L 188.992188 224.316406 L 188.898438 224.691406 L 189.238281 225.953125 L 190.792969 226.769531 L 192.046875 228.324219 L 193.859375 229.863281 L 192.117188 231.570313 L 189.460938 232.730469 L 188.34375 232.882813 L 187.070313 232.078125 L 185.40625 232.042969 L 181.046875 235.800781 L 180.578125 237.003906 L 174.761719 240.109375 L 170.214844 238.117188 L 166.480469 238.003906 L 166.738281 239.222656 L 168.246094 240.195313 L 178.0625 241.875 L 182.921875 243.167969 L 186.398438 241.730469 L 187.519531 239.417969 L 188.617188 238.355469 L 189.539063 238.171875 L 193.183594 238.5 L 199.339844 242.761719 L 202.511719 244.492188 L 202.40625 248.3125 L 202.675781 250.941406 L 203.390625 253.503906 L 204.671875 255.835938 L 208.152344 259.984375 L 212.199219 263.394531 L 214.988281 264.882813 L 218.078125 265.570313 L 216.152344 267.609375 L 214.820313 269.9375 L 214.058594 272.503906 L 213.910156 275.304688 L 214.449219 278.828125 L 215.171875 280.992188 L 216.449219 283.179688 L 218.078125 284.953125 L 219.558594 288.070313 L 222.292969 290.929688 L 225.566406 292.574219 L 225.945313 294.183594 L 225.960938 294.207031 L 226.117188 296.015625 L 227.328125 299.109375 L 229.933594 302.25 L 233.585938 304.339844 L 233.8125 306.640625 L 234.496094 308.847656 L 235.597656 310.878906 L 237.175781 312.742188 L 239.550781 314.496094 L 242.164063 315.5625 L 246.464844 316.113281 L 249.09375 315.96875 L 250.800781 318.140625 L 252.96875 319.847656 L 252.441406 321.945313 L 252.308594 324.105469 L 253.308594 329.597656 L 254.652344 332.738281 L 256.847656 335.355469 L 256.757813 338.609375 L 257.710938 342.761719 L 257.507813 342.753906 L 256.035156 341.773438 L 253.664063 338.65625 L 252.601563 338.082031 L 245.550781 339.511719 L 244.589844 338.644531 L 243.40625 338.558594 L 241.210938 339.871094 L 241.886719 340.445313 L 246.324219 340.394531 L 249.617188 339.34375 L 251.976563 339.082031 L 254.382813 342.558594 L 260.535156 347.621094 L 260.699219 347.714844 L 260.621094 350.113281 L 261.5 354.1875 L 262.824219 356.636719 L 264.601563 358.617188 L 263.992188 361.347656 L 264.070313 364.269531 L 264.980469 369.070313 L 264.953125 369.09375 L 261.394531 373.164063 L 260.601563 374.816406 L 262.84375 374.3125 L 264.9375 375.519531 L 266.9375 378.226563 L 270.21875 378.804688 L 270.625 378.746094 L 271.71875 377.089844 L 274.054688 377.796875 L 279.726563 378.660156 L 281.886719 378.527344 L 283.984375 378 L 287.027344 378.308594 L 289.925781 377.851563 L 293.050781 376.414063 L 295.617188 374.125 L 296.640625 378.03125 L 298.941406 381.355469 L 300.867188 383.191406 L 302.769531 384.449219 L 305.003906 385.34375 L 306.828125 385.679688 L 307.085938 389.757813 L 305.074219 391.335938 L 303.371094 393.507813 L 300.5625 393.6875 L 297.765625 394.59375 L 295.28125 396.167969 L 293.351563 398.214844 L 291.96875 400.664063 L 291.210938 403.359375 L 291.128906 406.285156 L 291.738281 409.015625 L 289.75 410.546875 L 287.863281 412.890625 L 285.960938 414.335938 L 283.984375 416.769531 L 281.132813 419.21875 L 278.550781 422.835938 L 277.355469 426.074219 L 277.121094 428.753906 L 277.503906 431.414063 L 278.003906 432.703125 L 274.75 433.78125 L 272.609375 436.117188 L 274.253906 436.015625 L 275.152344 434.667969 L 276.683594 434.363281 L 278.285156 434.328125 L 278.875 434.460938 L 279.9375 436.027344 L 280.265625 436.339844 L 279.554688 436.347656 L 277.390625 437.65625 L 277.96875 438.546875 L 281.382813 438.964844 L 286.863281 440.339844 L 287.96875 440.164063 L 289.933594 442.550781 L 294.625 446.265625 L 291.191406 446.496094 L 287.863281 447.785156 L 286.105469 446.488281 L 284.136719 445.542969 L 282.027344 444.984375 L 279.851563 444.824219 L 276.6875 445.335938 L 273.78125 446.691406 L 269.746094 450.058594 L 268.433594 451.960938 L 267.523438 454.085938 L 267.046875 456.347656 L 267.042969 458.789063 L 267.511719 461.050781 L 268.476563 463.292969 L 264.601563 463.292969 L 263.167969 461.476563 L 261.40625 459.980469 L 259.382813 458.863281 L 257.054688 458.140625 L 252.957031 458.066406 L 249.09375 459.414063 L 248.015625 455.390625 L 245.585938 452.007813 L 243.902344 450.636719 L 241.984375 449.601563 L 237.878906 448.679688 L 235.324219 448.863281 L 232.753906 449.648438 L 230.433594 451.007813 L 228.488281 452.863281 L 227.074219 455 L 226.167969 457.394531 L 225.6875 460.664063 L 225.832031 463.292969 L 223.1875 461.5 L 220.152344 460.492188 L 217.089844 460.339844 L 213.972656 461.035156 L 213.882813 458.476563 L 213.191406 455.875 L 211.988281 453.609375 L 210.324219 451.660156 L 212.46875 449.308594 L 213.9375 446.335938 L 214.503906 443.203125 L 214.199219 440.03125 L 216.382813 439.953125 L 218.636719 439.425781 L 220.738281 438.460938 L 222.515625 437.1875 L 224.097656 435.5 L 225.261719 433.648438 L 226.054688 431.613281 L 226.464844 429.335938 L 226.402344 426.898438 L 225.585938 422.875 L 224.34375 419.65625 L 221.632813 416.433594 L 219.828125 415.210938 L 217.828125 414.347656 L 213.785156 413.785156 L 209.792969 414.65625 L 207.867188 415.675781 L 205.113281 417.714844 L 202.570313 420.644531 L 198.894531 421.566406 L 195.800781 423.535156 L 193.042969 426.359375 L 191.78125 428.59375 L 190.570313 429.988281 L 189.222656 431.449219 L 185.628906 432.957031 L 183.714844 433.246094 L 182.441406 433.0625 L 178.394531 435.230469 L 177.699219 436.335938 L 175.429688 436.152344 L 178.96875 434.378906 L 181.632813 431.625 L 183.183594 428.398438 L 184.703125 426.664063 L 185.902344 424.542969 L 186.683594 421.96875 L 186.855469 419.410156 L 186.015625 415.542969 L 184.007813 412.273438 L 181.808594 410.316406 L 179.308594 409.015625 L 176.683594 406.207031 L 174.007813 404.675781 L 170.128906 403.824219 L 166.191406 404.328125 L 162.652344 406.128906 L 159.921875 409.015625 L 155.855469 409.503906 L 152.105469 411.449219 L 149.648438 414.066406 L 148.066406 417.433594 L 147.625 420.996094 L 148.292969 424.523438 L 146.296875 423.636719 L 144.171875 423.136719 L 141.988281 423.042969 L 139.703125 423.390625 L 137.859375 424.054688 L 136.765625 424.277344 L 136.675781 424.703125 L 135.769531 425.238281 L 134.128906 426.679688 L 133.320313 427.714844 L 132.703125 427.414063 L 132.523438 425.210938 L 131.40625 422.214844 L 129.511719 419.636719 L 126.878906 417.605469 L 129.617188 418.210938 L 132.546875 418.121094 L 135.246094 417.355469 L 137.679688 415.964844 L 140.539063 412.890625 L 143.65625 411.410156 L 146.121094 409.179688 L 147.40625 407.269531 L 148.292969 405.136719 L 150.679688 402.195313 L 151.945313 398.890625 L 152.011719 398.371094 L 152.136719 398.207031 L 153.054688 396.195313 L 154.199219 391.746094 L 153.734375 388.820313 L 152.566406 386.542969 L 153.179688 384.597656 L 154.652344 381.796875 L 152.269531 378.203125 L 152.683594 374.835938 L 153.175781 374.082031 L 152.804688 373.207031 L 150.203125 373.105469 L 148.332031 373.558594 L 148.992188 372.425781 L 149.773438 368.792969 L 149.402344 365.226563 L 148.761719 363.636719 L 151.550781 360.582031 L 153.09375 359.609375 L 154.941406 359.808594 L 160.492188 357.457031 L 163.644531 357.28125 L 167.339844 357.714844 L 172.597656 355.179688 L 173.933594 355.046875 L 174.484375 355.082031 L 179.910156 359.441406 L 180.433594 358.429688 L 177.679688 353.460938 L 178.242188 352.835938 L 180.867188 352.449219 L 181.503906 352.695313 L 181.914063 353.875 L 182.898438 354.332031 L 184.078125 356.789063 L 185.613281 357.902344 L 188.359375 357.621094 L 190.335938 355.148438 L 189.90625 355.050781 L 188.667969 355.527344 L 188.3125 355.957031 L 186.378906 356.386719 L 183.8125 354.640625 L 181.355469 349.316406 L 182.222656 347.734375 L 182.902344 345.660156 L 183.347656 341.359375 L 183.328125 340.332031 L 183.371094 340.257813 L 185.429688 339.015625 L 185.140625 338.578125 L 183.300781 338.492188 L 183.183594 331.476563 L 183.890625 329.550781 L 184.695313 329.191406 L 187.28125 323.421875 L 187.71875 320.933594 L 187.855469 317.484375 L 184.742188 320.527344 L 183.605469 321.125 L 183.410156 320.488281 L 181.03125 317.3125 L 176.253906 313.519531 L 174.039063 312.574219 L 172.363281 312.25 L 172.289063 311.832031 L 171.554688 310.753906 L 171.554688 308.214844 L 172.21875 304.339844 L 171.554688 300.460938 L 171.867188 297.929688 L 171.621094 295.390625 L 171.335938 294.484375 L 174.074219 288.722656 L 176.464844 286.417969 L 178.757813 285.980469 L 180.191406 286.804688 L 181.015625 286.710938 L 182.933594 286.238281 L 183.03125 285.160156 L 182.34375 284.746094 L 180.035156 285.351563 L 174.65625 284.980469 L 172.566406 284.292969 L 169.453125 284.03125 L 168.226563 288.992188 L 167.652344 288.90625 L 166.5 287.679688 L 164.175781 286.144531 L 161.429688 285.175781 L 158.675781 284.8125 L 156.046875 284.953125 L 152.746094 284.65625 L 150.351563 285.035156 L 148.085938 285.902344 L 146.050781 287.21875 L 144.414063 288.832031 L 142.707031 286.660156 L 140.539063 284.953125 L 140.539063 281.078125 L 141.0625 277.914063 L 140.765625 274.976563 L 139.289063 271.429688 L 138.308594 270.316406 L 138.601563 268.871094 L 140.917969 265.085938 L 143.644531 263.800781 L 144.390625 261.886719 L 144.195313 260.621094 L 142.601563 256.71875 L 139.777344 254.832031 L 137.378906 252.511719 L 138.6875 242.234375 L 140.710938 241.59375 L 142.886719 242.511719 L 146.15625 243.175781 L 148.300781 243.253906 L 141.261719 240.453125 L 140.441406 240.5625 L 139.386719 240.085938 L 139.183594 238.121094 L 139.414063 236.460938 L 140.238281 234.648438 L 139.292969 234.9375 L 138.320313 240.257813 L 136.15625 245.152344 L 135.023438 244.945313 L 131.566406 242.222656 L 130.757813 242.5 L 130.269531 243.347656 L 130.09375 244.535156 L 130.664063 246.308594 L 130.519531 246.613281 L 128.257813 245.464844 L 127.46875 243.074219 L 128.453125 238.691406 L 131.230469 234.078125 L 136.953125 229.316406 L 138.316406 227.601563 L 135.558594 229.292969 L 130.363281 233.964844 L 126.449219 238.917969 L 125.671875 238.734375 L 125.460938 238.363281 L 126.1875 249.699219 L 124.449219 251.558594 L 123.367188 254.191406 L 121.183594 263.964844 L 122.0625 266.289063 L 120.679688 268.164063 L 119.945313 268.597656 L 117.308594 268.863281 L 117.417969 266.816406 L 116.910156 262.976563 L 117.226563 262.640625 L 117.992188 256.269531 L 120.664063 249.058594 L 119.164063 246.890625 L 119.359375 242.367188 L 121.945313 238.054688 L 122.191406 237.09375 L 120.824219 237.742188 L 119.636719 239.75 L 119.449219 238.929688 L 123.929688 230.9375 L 123.671875 230.734375 L 122.386719 231.796875 L 121.808594 231.777344 L 122.070313 227.40625 L 122.761719 224.691406 L 124.160156 221.96875 L 126.660156 220.210938 L 128.792969 220.179688 L 129.328125 220.484375 L 131.4375 220.320313 L 134.28125 217.339844 L 135.300781 215.007813 L 134.855469 215.347656 L 134.105469 217.117188 L 131.898438 219.546875 L 131.125 219.644531 L 127.28125 218.265625 L 127.882813 216.460938 L 128.195313 216.742188 L 128.945313 216.671875 L 131.070313 215.113281 L 129.507813 214.882813 L 128.550781 215.441406 L 127.980469 214.949219 L 127.875 213.785156 L 129.65625 210.6875 L 134.21875 205.03125 L 134.59375 204.003906 L 123.476563 215.398438 L 120.675781 217.269531 L 120.230469 216.390625 L 115.878906 214.433594 L 114.8125 213.664063 L 113.113281 211.414063 L 113.132813 210.632813 L 113.96875 210.082031 L 116.167969 209.980469 L 120.585938 209.09375 L 123.988281 209.15625 L 124.257813 209.050781 L 124.117188 208.789063 L 119.15625 207.757813 L 117.03125 209.015625 L 115.34375 209.1875 L 108.898438 208.554688 L 108.144531 207.871094 L 108.144531 207.867188 L 108.257813 207.671875 L 108.875 205.78125 L 109.109375 205.527344 L 114.792969 204.496094 L 115.882813 205.636719 L 117.070313 206.34375 L 118.480469 204.378906 L 117.316406 203.507813 L 117.253906 202.640625 L 119.675781 202.136719 L 120.503906 202.316406 L 121.824219 201.292969 L 121.664063 200.792969 L 120.140625 199.953125 L 116.804688 200.417969 L 115.804688 199.949219 L 118.253906 195.210938 L 118.835938 194.789063 L 120.441406 194.839844 L 120.773438 195.527344 L 122.574219 196.710938 L 124.417969 196.351563 L 125.527344 195.796875 L 122.886719 196.148438 L 119.445313 193.175781 L 119.640625 191.949219 L 120.992188 190.507813 L 122.769531 190.464844 L 125.425781 191.839844 L 128.195313 191.296875 L 129.90625 192.710938 L 132.019531 193.917969 L 134.714844 194.730469 L 137.65625 194.859375 L 140.535156 194.246094 L 143.058594 193.003906 L 145.214844 191.1875 L 146.929688 188.796875 L 147.957031 186.175781 L 148.933594 181.042969 L 148.839844 178.625 L 148.292969 176.398438 L 148.292969 172.523438 L 148.960938 168.941406 L 148.554688 165.570313 L 150.875 165.195313 L 153.238281 164.332031 L 155.214844 163.15625 L 156.925781 161.613281 L 157.46875 160.878906 L 161.363281 161.917969 L 164.042969 162.292969 L 164.492188 162.179688 L 165.378906 163.835938 L 162.722656 166.96875 L 162.175781 167.183594 L 161.726563 166.894531 L 161.859375 165.949219 L 161.53125 165.507813 L 159.984375 165.785156 L 155.320313 167.769531 L 152.441406 170.8125 L 151.949219 171.945313 L 152.140625 172.144531 L 156.390625 168.453125 L 157.75 167.980469 L 160.300781 168.324219 L 161.058594 169.320313 L 157.109375 173.804688 L 156.367188 175.339844 L 156.707031 175.816406 L 157.367188 175.984375 L 158.261719 175.542969 L 161.140625 173.015625 L 167.808594 170.273438 L 170.480469 169.527344 L 170.492188 169.949219 L 171.554688 169.839844 L 173.480469 168.398438 L 177.054688 168.804688 L 183.371094 168.703125 L 184.320313 169.011719 L 184.910156 168.679688 L 187.0625 168.644531 L 190.8125 169.3125 L 194.816406 168.644531 L 198.054688 169.292969 L 200.34375 169.195313 L 201.308594 168.957031 L 203.660156 168.921875 L 204.667969 169.175781 L 206.828125 169.304688 L 210.003906 168.707031 L 210.3125 168.835938 L 212.550781 172.800781 L 213.671875 176.582031 Z M 282.5625 438.21875 L 283.558594 438.84375 L 284.660156 439.269531 L 283.058594 438.976563 Z M 190.738281 432.320313 L 190.648438 432.726563 L 190.9375 436.152344 L 188.097656 438.714844 L 186.238281 442.0625 L 184.207031 439.421875 L 183.734375 439.074219 Z M 148.511719 363.011719 L 147.585938 360.707031 L 146.039063 358.351563 L 143.550781 356.148438 L 142.121094 355.480469 L 142.152344 354.738281 L 144.414063 354.738281 L 148.292969 355.402344 L 150.789063 354.976563 L 151.039063 355.578125 L 155.546875 356.503906 L 154.066406 358.859375 L 150.984375 360.816406 Z M 107.234375 254.171875 L 104.398438 253.796875 L 103.144531 253.863281 L 104.988281 247.472656 L 102.980469 247.105469 L 101.464844 249.738281 L 99.988281 251.246094 L 99.625 251.425781 L 98.632813 250.644531 L 99.023438 248.875 L 99.132813 248.535156 L 100.28125 247.117188 L 101.289063 244.792969 L 101.539063 243.503906 L 102.445313 243.214844 L 103.882813 243.558594 L 106.871094 241.457031 L 108.433594 240.808594 L 108.667969 241.335938 L 108.480469 243.175781 L 108.777344 246.292969 L 109.046875 247.320313 L 109.929688 248.226563 L 110.335938 251.851563 L 108.992188 253.109375 Z M 102.855469 224.152344 L 102.363281 223.597656 L 102.589844 223.230469 L 103.304688 222.808594 L 103.460938 223.023438 Z M 107.613281 196.9375 L 107.109375 195.96875 L 104.789063 193.585938 L 104.425781 193.382813 L 105.34375 192.390625 L 106.722656 192.214844 L 107.992188 192.835938 L 108.445313 193.703125 L 108.09375 196.351563 Z M 101.953125 192.011719 L 101.769531 191.90625 L 101.867188 191.421875 L 102.835938 191.832031 Z M 98.328125 172.476563 L 101.574219 172.140625 L 103.472656 171.289063 L 104.785156 172.40625 L 105.550781 172.625 L 106.867188 171.878906 L 106.660156 169.054688 L 107.675781 168.121094 L 109.21875 165.320313 L 109.585938 165.773438 L 109.703125 167.589844 L 110.558594 170.28125 L 112.039063 172.6875 L 112.316406 172.957031 L 112.300781 173.941406 L 111.832031 177.386719 L 112.054688 181.640625 L 117.5 184.859375 L 120.773438 183.445313 L 123.167969 184.417969 L 122.46875 186.839844 L 119.148438 190.25 L 118.089844 190.683594 L 116.035156 193.449219 L 114.023438 194.042969 L 113.570313 192.609375 L 115.183594 189.4375 L 113.980469 187.324219 L 112.75 189.558594 L 110.542969 187.414063 L 107.277344 187.777344 L 104.472656 183.015625 L 103.78125 181.25 L 105.464844 179.976563 L 107.179688 181.675781 L 107.667969 181.742188 L 107.789063 181.460938 L 102.875 176.632813 L 101.867188 177.609375 L 102.007813 179.089844 L 101.671875 179.800781 L 98.648438 178.089844 L 98.414063 176.53125 L 97.28125 175.296875 L 97.152344 174.433594 Z M 114.300781 174.828125 L 115.824219 175.707031 L 115.367188 179.941406 L 114.945313 180.566406 L 113.875 180.957031 L 113.53125 180.855469 L 113.277344 179.863281 L 113.640625 176.351563 Z M 118.867188 176.800781 L 119.320313 176.929688 L 122.144531 177.027344 L 125.03125 176.398438 L 123.921875 179.417969 L 120.484375 180.664063 L 119.382813 179.570313 Z M 124.058594 185.015625 L 124.636719 187.042969 L 126.640625 190.015625 L 127.527344 190.75 L 126.691406 190.847656 L 125.089844 190.582031 L 122.863281 188.511719 L 123.117188 185.351563 Z M 158.246094 159.828125 L 158.296875 159.761719 L 159.277344 157.675781 L 159.824219 155.441406 L 159.921875 153.136719 L 160.332031 155.382813 L 161.167969 157.503906 L 162.253906 159.207031 L 162.078125 159.632813 L 159.644531 160.289063 Z M 221.953125 56.214844 L 222.4375 56.058594 L 222.113281 57.4375 L 222.089844 57.433594 Z M 187.0625 467.167969 L 183.730469 465.878906 L 180.296875 465.648438 L 182.121094 464.347656 L 184.546875 461.953125 L 185.804688 460.191406 L 186.710938 458.226563 L 188.140625 463.4375 L 189.3125 465.394531 L 190.9375 467.167969 Z M 183.183594 106.617188 L 184.890625 108.785156 L 186.996094 110.441406 L 187.023438 110.523438 L 184.890625 112.199219 L 183.183594 114.371094 L 181.476563 112.199219 L 179.308594 110.492188 L 181.476563 108.785156 Z M 148.292969 474.921875 L 150.339844 476.851563 L 152.789063 478.234375 L 155.5 478.984375 L 158.183594 479.078125 L 154.898438 480.414063 L 152.167969 482.675781 L 149.496094 480.316406 L 146.355469 478.914063 L 143.453125 478.488281 L 140.539063 478.800781 L 138.46875 478.273438 L 136.210938 478.136719 L 136.804688 473.675781 L 136.660156 471.046875 L 139.058594 470.796875 L 141.351563 470.058594 L 143.546875 468.789063 L 145.332031 467.167969 L 146.074219 471.261719 L 147.011719 473.195313 Z M 140.714844 322.707031 L 141.203125 319.847656 L 140.570313 316.152344 L 142.300781 315.023438 L 142.683594 314.28125 L 142.707031 314.261719 L 144.414063 312.09375 L 148.292969 312.09375 L 148.292969 315.96875 L 146.121094 317.675781 L 144.414063 319.847656 L 141.898438 321.917969 L 141.203125 322.839844 Z M 144.414063 129.875 L 147.304688 130 L 145.113281 130.59375 L 143.1875 131.539063 Z M 117.277344 490.429688 L 121.300781 489.351563 L 123.257813 488.179688 L 125.03125 486.554688 L 125.464844 486.546875 L 125.046875 490.273438 L 124.039063 490.597656 L 124.039063 490.601563 L 121.152344 491.097656 Z M 116.207031 183.113281 L 115.0625 182.589844 L 114.59375 181.914063 L 114.695313 181.441406 L 115.34375 181.214844 L 116.664063 181.757813 L 116.886719 182.648438 Z M 110.160156 200.433594 L 108.972656 199.578125 L 108.9375 198.890625 L 110.578125 197.179688 L 111.398438 197.769531 L 111.5 198.265625 L 111.128906 199.855469 Z M 110.59375 209.929688 L 111.976563 210.636719 L 113.289063 212.988281 L 113.785156 214.699219 L 116.457031 215.945313 L 117.929688 216.300781 L 121.195313 219.144531 L 120.902344 221.207031 L 119.445313 223.339844 L 116.335938 225.03125 L 115.453125 224.539063 L 116.136719 223.339844 L 115.425781 223.117188 L 112.109375 224.96875 L 106.027344 226.585938 L 104.691406 226.273438 L 103.734375 224.277344 L 103.851563 223.371094 L 104.191406 223.09375 L 105.628906 223.050781 L 106.039063 223.617188 L 106.972656 224.074219 L 112.214844 222.164063 L 112.035156 221.589844 L 109.863281 222.445313 L 108.199219 222.488281 L 107.824219 221.539063 L 109.386719 219.472656 L 112.601563 217.957031 L 112.90625 216.820313 L 112.554688 216.699219 L 109.90625 217.519531 L 105.058594 214.074219 L 105.636719 211.667969 L 108.914063 210.140625 L 110.03125 209.789063 Z M 108.136719 218.074219 L 107.207031 217.691406 L 106.753906 217.160156 L 107.335938 216.378906 L 108.085938 216.507813 L 109.105469 217.519531 L 109.070313 217.820313 Z M 123.378906 222.417969 L 122.582031 222.078125 L 123.082031 221.191406 L 124.476563 221.046875 Z M 121.453125 227.109375 L 121.152344 226.972656 L 120.984375 225.621094 L 121.59375 224.800781 L 122.367188 224.816406 L 121.953125 226.621094 Z M 120.902344 230.566406 L 120.316406 229.273438 L 120.976563 227.386719 L 121.816406 227.683594 Z M 118.503906 231.671875 L 118.15625 231.449219 L 118.535156 230.824219 L 119.917969 230.164063 L 119.953125 231.257813 Z M 111.886719 247.292969 L 110.550781 247.070313 L 109.476563 246.144531 L 109.292969 243.285156 L 109.585938 242.089844 L 112.5625 237.15625 L 116.605469 233.660156 L 119.195313 232.023438 L 119.632813 233.128906 L 119.449219 233.945313 L 118.015625 235.730469 L 113.761719 243.328125 Z M 106.976563 236.632813 L 105.476563 236.191406 L 106.28125 234.464844 L 107.839844 232.910156 L 108.882813 232.734375 L 107.535156 236.1875 Z M 134.8125 251.347656 L 132.589844 248.835938 L 130.84375 244.566406 L 130.707031 243.464844 L 131.460938 242.613281 L 133.71875 244.574219 L 134.707031 246.3125 L 135.339844 249.003906 L 135.222656 250.96875 Z M 130.613281 263.773438 L 129.152344 263.667969 L 126.582031 261.613281 L 125.375 256.128906 L 125.988281 253.21875 L 128.179688 251.246094 L 129.539063 251.441406 L 131.390625 253.015625 L 132.984375 258.382813 L 133.019531 262.765625 L 132.308594 263.453125 Z M 130.613281 263.773438 "/>
</g>
</svg>
