<?xml version="1.0" encoding="UTF-8"?>
<svg xmlns="http://www.w3.org/2000/svg" xmlns:xlink="http://www.w3.org/1999/xlink" width="378pt" height="504pt" viewBox="0 0 378 504" version="1.1">
<g id="data">
<rect x="0" y="0" width="378" height="504" style="fill:rgb(100%,100%,100%);fill-opacity:1;stroke:none;"/>
<path style=" stroke:none;fill-rule:nonzero;fill:rgb(100%,100%,100%);fill-opacity:1;" d="M 53.308594 504 L 324.691406 504 L 324.691406 0 L 53.308594 0 Z M 53.308594 504 "/>
<path style=" stroke:none;fill-rule:nonzero;fill:rgb(22.745098%,53.333333%,16.078431%);fill-opacity:1;" d="M 204.011719 395.09375 L 203.101563 393.65625 L 202.648438 392.019531 L 202.6875 390.320313 L 203.214844 388.703125 L 204.488281 386.148438 L 205.617188 384.597656 L 207.1875 383.496094 L 209.03125 382.96875 L 210.945313 383.066406 L 212.726563 383.785156 L 214.175781 385.042969 L 215.136719 386.703125 L 215.503906 388.582031 L 215.554688 390.390625 L 215.976563 392.148438 L 216.089844 393.773438 L 216.875 394.136719 L 219.082031 395.644531 L 220.796875 396.167969 L 221.820313 396.210938 L 224.539063 395.589844 L 225.832031 395.445313 L 229.707031 395.445313 L 231.46875 395.71875 L 233.75 396.441406 L 235.363281 396.496094 L 236.753906 396.164063 L 238.03125 395.488281 L 239.171875 394.429688 L 239.945313 393.210938 L 240.390625 391.820313 L 240.476563 390.328125 L 240.214844 388.945313 L 239.300781 386.671875 L 237.742188 384.679688 L 236.863281 384.058594 L 235.199219 383.359375 L 233.933594 382.621094 L 232.890625 381.59375 L 231.613281 379.972656 L 229.988281 378.695313 L 228.714844 377.304688 L 227.953125 375.578125 L 227.191406 372.625 L 225.90625 370.769531 L 225.261719 370.234375 L 224.328125 369.714844 L 223.207031 369.351563 L 222.164063 369.222656 L 220.988281 369.308594 L 219.957031 369.585938 L 218.980469 370.058594 L 217.671875 371.035156 L 216.144531 371.851563 L 214.445313 372.179688 L 212.722656 371.992188 L 211.132813 371.308594 L 209.8125 370.1875 L 208.882813 368.726563 L 207.464844 365.523438 L 207 363.800781 L 207.082031 362.011719 L 207.703125 360.335938 L 208.800781 358.929688 L 210.277344 357.917969 L 211.695313 357.242188 L 213.894531 356.683594 L 215.796875 356.585938 L 217.117188 356.207031 L 218.230469 355.585938 L 219.070313 354.847656 L 219.980469 353.542969 L 220.515625 352.03125 L 220.617188 350.425781 L 220.140625 348.191406 L 220.074219 346.152344 L 220.714844 344.21875 L 221.980469 342.625 L 223.722656 341.566406 L 225.4375 340.898438 L 226.378906 340.289063 L 227.25 339.421875 L 227.90625 338.421875 L 228.375 337.195313 L 228.550781 336.011719 L 228.476563 334.800781 L 227.984375 333.039063 L 227.769531 331.320313 L 227.96875 323.984375 L 227.773438 323.109375 L 227.339844 322.117188 L 226.734375 321.226563 L 225.585938 320.074219 L 224.5 318.5625 L 224.308594 317.9375 L 223.957031 318.191406 L 222.339844 318.746094 L 220.222656 319.136719 L 218.160156 320.101563 L 216.480469 320.597656 L 214.726563 320.570313 L 213.058594 320.019531 L 211.632813 318.996094 L 210.578125 317.597656 L 209.988281 315.945313 L 209.914063 314.191406 L 210.371094 312.5 L 211.308594 311.015625 L 212.730469 309.382813 L 213.707031 307.445313 L 214.847656 305.894531 L 216.433594 304.796875 L 218.289063 304.277344 L 220.214844 304.398438 L 221.992188 305.136719 L 223.433594 306.421875 L 225.816406 309.382813 L 226.679688 310.859375 L 226.726563 311.058594 L 227.3125 310.671875 L 229.109375 310.183594 L 231.859375 309.898438 L 233.523438 309.152344 L 234.859375 307.925781 L 236.246094 305.410156 L 237.375 303.960938 L 238.371094 303.292969 L 244.476563 306.140625 L 245.742188 307.636719 L 247.265625 310.527344 L 249.289063 315.722656 L 252.390625 319.148438 L 256.121094 320.875 L 257.207031 321.722656 L 254.738281 323.09375 L 253.890625 324.554688 L 253.765625 325.996094 L 254.984375 329.992188 L 256.160156 332.453125 L 257.765625 334.699219 L 256.773438 335.875 L 255.113281 337.308594 L 254.238281 338.597656 L 254.042969 339.152344 L 253.664063 338.65625 L 252.601563 338.082031 L 245.550781 339.511719 L 244.589844 338.644531 L 243.40625 338.558594 L 241.210938 339.871094 L 241.886719 340.445313 L 246.324219 340.394531 L 249.617188 339.34375 L 251.976563 339.082031 L 253.644531 341.488281 L 253.640625 341.535156 L 253.859375 342.808594 L 254.386719 344.039063 L 255.183594 345.117188 L 256.722656 346.421875 L 258.054688 348.042969 L 258.722656 350.027344 L 259.078125 352.476563 L 259.839844 354.101563 L 260.765625 355.171875 L 261.898438 355.964844 L 263.210938 356.464844 L 265.304688 356.71875 L 267.15625 357.269531 L 268.550781 358.269531 L 268.980469 359.304688 L 269.535156 362.402344 L 269.210938 365.21875 L 264.953125 369.09375 L 261.394531 373.164063 L 260.601563 374.816406 L 262.84375 374.3125 L 264.9375 375.519531 L 266.9375 378.226563 L 270.21875 378.804688 L 270.625 378.746094 L 271.910156 376.796875 L 272.234375 374.960938 L 273.40625 371.914063 L 274.707031 370.632813 L 277.851563 370.085938 L 283.34375 370.234375 L 284.253906 370.867188 L 286.703125 370.742188 L 293.503906 371.46875 L 293.460938 371.808594 L 292.972656 373.570313 L 292.894531 374.78125 L 293.074219 375.980469 L 293.5 377.117188 L 294.15625 378.140625 L 295.007813 379.003906 L 296.023438 379.671875 L 297.726563 380.335938 L 299.191406 381.167969 L 300.355469 382.386719 L 301.125 383.890625 L 301.425781 385.546875 L 301.242188 387.226563 L 300.707031 389.269531 L 300.691406 390.671875 L 301.007813 392.019531 L 301.632813 393.214844 L 303.085938 394.691406 L 305.863281 396.007813 L 306.078125 396.148438 L 305.789063 396.917969 L 303.519531 407.832031 L 297.144531 414.53125 L 295.578125 412.011719 L 292.742188 410.515625 L 292.480469 410.636719 L 293.898438 413.703125 L 295.890625 416.628906 L 296.3125 416.765625 L 296.164063 417.742188 L 294.574219 419.804688 L 292.191406 421.289063 L 290.003906 421.65625 L 289.660156 421.574219 L 288.214844 419.332031 L 286.960938 420.261719 L 286.597656 419.921875 L 285.621094 419.308594 L 284.546875 418.898438 L 282.976563 418.621094 L 280.722656 417.707031 L 278.730469 416.355469 L 277.226563 415.847656 L 276.101563 415.75 L 274.902344 415.894531 L 273.773438 416.28125 L 272.644531 416.96875 L 271.84375 417.722656 L 271.140625 418.726563 L 270.671875 419.824219 L 270.316406 421.722656 L 269.304688 424.066406 L 268.230469 425.539063 L 267.824219 426.453125 L 267.519531 428.652344 L 267.945313 430.601563 L 269.085938 432.367188 L 270.726563 433.585938 L 272.75 434.21875 L 274.167969 434.355469 L 274.226563 434.351563 L 272.609375 436.117188 L 274.253906 436.015625 L 275.152344 434.667969 L 276.683594 434.363281 L 277.421875 434.347656 L 278.859375 434.84375 L 280.160156 435.742188 L 280.804688 436.335938 L 279.554688 436.347656 L 277.390625 437.65625 L 277.96875 438.546875 L 281.382813 438.964844 L 286.863281 440.339844 L 289.394531 439.9375 L 291.074219 438.957031 L 299.742188 437.757813 L 300.988281 440.148438 L 300.773438 446.324219 L 300.335938 447.820313 L 299.394531 449.050781 L 296.972656 450.242188 L 295.839844 450.375 L 292.621094 451.640625 L 291.179688 452.742188 L 289.847656 454.226563 L 289.460938 455.09375 L 289.214844 456.324219 L 289.464844 457.886719 L 286.253906 458.289063 L 284.1875 457.9375 L 281.042969 460.90625 L 278.484375 461.933594 L 274.789063 462.777344 L 272.597656 463.816406 L 270.539063 466.589844 L 269.761719 466.949219 L 259.269531 463.777344 L 256.070313 463.507813 L 244.628906 465.699219 L 242.703125 466.390625 L 242.113281 466.964844 L 241.902344 467.984375 L 241.359375 468.164063 L 238.210938 466.1875 L 238.632813 465.4375 L 239.46875 464.933594 L 237.714844 463.296875 L 231.496094 463.171875 L 231.378906 463.496094 L 232.574219 464.835938 L 232.214844 465.75 L 231.738281 466.042969 L 226.691406 465.496094 L 219.566406 468.449219 L 217.054688 467.824219 L 210.222656 468.96875 L 208.164063 468.875 L 207.273438 468.058594 L 206.238281 469.769531 L 209.429688 471.089844 L 209.714844 470.9375 L 210.1875 472.128906 L 209.566406 473.890625 L 206.84375 474.453125 L 204.453125 473.097656 L 203.015625 472.699219 L 197.625 472.007813 L 196.175781 472.65625 L 195.679688 473.863281 L 195.832031 474.871094 L 196.757813 475.523438 L 196.488281 476.304688 L 195.917969 475.996094 L 194.851563 473.972656 L 192.972656 472.582031 L 192.757813 472.132813 L 192.058594 471.203125 L 191.195313 470.433594 L 190.292969 469.894531 L 189.199219 469.503906 L 188.054688 469.335938 L 187.667969 469.355469 L 185.898438 468.519531 L 183.121094 467.984375 L 181.648438 469.066406 L 181.09375 469.140625 L 180.308594 468.6875 L 179.113281 467.390625 L 178.363281 465.792969 L 178.125 464.042969 L 178.421875 462.304688 L 179.230469 460.734375 L 180.507813 458.96875 L 181.066406 457.550781 L 181.855469 452.332031 L 181.792969 450.699219 L 181.335938 449.226563 L 180.519531 447.9375 L 180.109375 447.566406 L 180.570313 447.503906 L 181.109375 445.632813 L 181.210938 443.15625 L 182.519531 440.25 L 190.867188 432.195313 L 195.792969 425.3125 L 197.929688 424.472656 L 198.285156 423.78125 L 198.070313 423.238281 L 197.8125 423.082031 L 196.09375 424.355469 L 192.90625 427.300781 L 190.570313 429.988281 L 189.222656 431.449219 L 185.628906 432.957031 L 183.714844 433.246094 L 183.355469 433.195313 L 184.03125 432.394531 L 184.9375 430.285156 L 185.144531 427.902344 L 185.378906 426.6875 L 186.15625 424.167969 L 186.230469 422.28125 L 186.582031 420.496094 L 187.46875 418.90625 L 188.808594 417.667969 L 191.582031 415.8125 L 192.839844 415.175781 L 194.214844 414.863281 L 196.949219 414.578125 L 198.695313 413.78125 L 200.015625 412.542969 L 201.335938 410.113281 L 202.339844 408.777344 L 203.679688 407.777344 L 205.796875 406.632813 L 206.90625 405.5625 L 207.628906 404.386719 L 208.039063 403.132813 L 208.144531 401.800781 L 207.84375 399.808594 L 207.863281 398.710938 L 207.402344 398.535156 L 205.917969 397.304688 Z M 282.210938 437.386719 L 282.34375 437.46875 L 286.570313 438.585938 L 287.835938 438.632813 L 287.960938 438.832031 L 286.679688 439.636719 L 283.058594 438.976563 L 282.164063 437.605469 Z M 174.25 439.867188 L 174.25 439.8125 L 174.792969 438.09375 L 175.839844 436.621094 L 177.285156 435.539063 L 178.761719 435.035156 L 178.394531 435.230469 L 177.398438 436.808594 L 177.039063 438.671875 L 176.445313 439.273438 Z M 195.097656 262.386719 L 193.789063 260.941406 L 193.03125 259.144531 L 192.910156 257.195313 L 193.441406 255.320313 L 194.5625 253.722656 L 196.144531 252.585938 L 198.546875 251.417969 L 200.257813 250.890625 L 202.046875 250.910156 L 203.746094 251.472656 L 205.191406 252.523438 L 206.253906 253.964844 L 206.824219 255.660156 L 207.160156 257.609375 L 207.929688 259.433594 L 208.367188 261.230469 L 208.21875 263.074219 L 207.5 264.777344 L 206.28125 266.167969 L 204.6875 267.109375 L 202.878906 267.5 L 201.042969 267.304688 L 199.359375 266.539063 L 198 265.289063 L 196.722656 263.664063 Z M 175.417969 319.367188 L 176.15625 318.582031 L 176.769531 317.609375 L 177.179688 316.53125 L 177.457031 314.960938 L 178.089844 313.164063 L 179.269531 311.671875 L 180.863281 310.636719 L 182.710938 310.171875 L 184.605469 310.332031 L 186.351563 311.089844 L 187.753906 312.375 L 189.03125 313.996094 L 190.65625 315.273438 L 191.953125 316.699219 L 192.710938 318.464844 L 192.851563 320.386719 L 192.359375 322.246094 L 191.660156 323.785156 L 191.390625 324.96875 L 191.371094 326.164063 L 191.714844 327.933594 L 191.785156 329.679688 L 191.335938 331.363281 L 190.402344 332.839844 L 189.078125 333.972656 L 187.476563 334.664063 L 185.738281 334.847656 L 184.027344 334.507813 L 182.496094 333.675781 L 181.523438 332.675781 L 181.601563 331.078125 L 181.949219 330.421875 L 184.695313 329.191406 L 187.28125 323.421875 L 187.71875 320.933594 L 187.855469 317.484375 L 184.742188 320.527344 L 179.199219 323.441406 L 177.335938 322.691406 Z M 155.757813 479.730469 L 156.511719 481.28125 L 156.777344 482.988281 L 156.53125 484.695313 L 155.792969 486.257813 L 155.777344 486.277344 L 154.683594 485.4375 L 153.613281 485.542969 L 152.417969 486.300781 L 151.738281 486.164063 L 148.46875 482.535156 L 142.796875 482.960938 L 141.527344 483.375 L 140.734375 484.175781 L 139.910156 484.507813 L 134.507813 484.320313 L 134.335938 484.359375 L 133.945313 483.449219 L 133.792969 481.570313 L 134.25 479.742188 L 135.269531 478.15625 L 136.738281 476.980469 L 139.71875 475.304688 L 142.371094 473.042969 L 143.722656 471.328125 L 145.007813 470.125 L 146.597656 469.359375 L 148.339844 469.109375 L 150.082031 469.390625 L 151.65625 470.179688 L 152.921875 471.40625 L 153.765625 472.953125 L 154.101563 474.683594 L 154.171875 476.398438 L 154.414063 477.425781 L 154.847656 478.402344 Z M 138.308594 323.242188 L 138.175781 323.164063 L 137.75 322.703125 L 139.816406 316.644531 L 142.300781 315.023438 L 144.765625 310.230469 L 145.863281 309.40625 L 149.046875 308.269531 L 150.203125 313.453125 L 147.847656 318.148438 L 145.3125 320.636719 L 141.859375 323.019531 L 139.824219 322.464844 Z M 123.53125 415.109375 L 123.398438 414.539063 L 125.933594 413.378906 L 126.539063 411.90625 L 133.074219 411.34375 L 134.132813 410.132813 L 134.5 410.605469 L 135.304688 411.3125 L 136.324219 411.90625 L 137.335938 412.257813 L 138.414063 412.414063 L 139.5 412.371094 L 140.558594 412.121094 L 142.050781 411.457031 L 143.910156 410.976563 L 145.824219 411.125 L 147.582031 411.890625 L 148.996094 413.1875 L 149.914063 414.875 L 150.230469 416.765625 L 150.234375 421.488281 L 150.621094 423.652344 L 150.648438 425.53125 L 150.332031 426.53125 L 147.785156 426.460938 L 143.210938 423.710938 L 139.503906 423.714844 L 136.765625 424.277344 L 136.292969 426.515625 L 135.777344 427.203125 L 133.742188 427.917969 L 132.394531 427.265625 L 131.648438 427.453125 L 129.4375 429.378906 L 126.53125 428.132813 L 127.425781 426.082031 L 128.796875 425.832031 L 131.792969 424.328125 L 131.226563 422.867188 L 130.640625 424.257813 L 127.769531 424.613281 L 123.117188 424.167969 L 123.109375 424.070313 L 123.53125 422.304688 L 123.644531 422.035156 L 124.125 421.78125 L 125.167969 421.753906 L 125.464844 421.238281 L 124.929688 417.953125 L 124.472656 417.742188 L 124.40625 417.230469 Z M 149.152344 428.582031 L 148.964844 428.835938 L 147.429688 429.914063 L 147.007813 430.039063 L 146.917969 429.308594 L 148.539063 428.378906 Z M 236.835938 466.113281 L 235.136719 465.644531 L 236.523438 463.683594 L 237.195313 464.164063 L 237.5 465.839844 Z M 228.117188 474.644531 L 222.296875 470.886719 L 220.207031 471.1875 L 221.476563 469.683594 L 227.316406 466.367188 L 232.550781 467.761719 L 234.171875 469.894531 L 231.242188 473.621094 L 229.960938 474.269531 Z M 228.117188 474.644531 "/>
<path style=" stroke:none;fill-rule:nonzero;fill:rgb(80.392157%,58.431373%,4.705882%);fill-opacity:1;" d="M 196.753906 393.507813 L 196.46875 395.304688 L 195.644531 396.925781 L 194.355469 398.210938 L 192.734375 399.039063 L 190.9375 399.324219 L 189.140625 399.039063 L 187.519531 398.210938 L 186.234375 396.925781 L 185.40625 395.304688 L 185.125 393.507813 L 185.40625 391.710938 L 186.234375 390.089844 L 187.519531 388.804688 L 189.140625 387.976563 L 190.9375 387.691406 L 192.734375 387.976563 L 194.355469 388.804688 L 195.644531 390.089844 L 196.46875 391.710938 Z M 196.753906 393.507813 "/>
<path style=" stroke:none;fill-rule:nonzero;fill:rgb(80.392157%,58.431373%,4.705882%);fill-opacity:1;" d="M 204.507813 358.617188 L 204.222656 360.414063 L 203.398438 362.035156 L 202.109375 363.320313 L 200.488281 364.144531 L 198.691406 364.429688 L 196.894531 364.144531 L 195.273438 363.320313 L 193.988281 362.035156 L 193.160156 360.414063 L 192.875 358.617188 L 193.160156 356.816406 L 193.988281 355.195313 L 195.273438 353.910156 L 196.894531 353.085938 L 198.691406 352.800781 L 200.488281 353.085938 L 202.109375 353.910156 L 203.398438 355.195313 L 204.222656 356.816406 Z M 204.507813 358.617188 "/>
<path style=" stroke:none;fill-rule:nonzero;fill:rgb(80.392157%,58.431373%,4.705882%);fill-opacity:1;" d="M 185.125 378 L 184.839844 379.796875 L 184.011719 381.417969 L 182.726563 382.703125 L 181.105469 383.53125 L 179.308594 383.816406 L 177.511719 383.53125 L 175.890625 382.703125 L 174.601563 381.417969 L 173.777344 379.796875 L 173.492188 378 L 173.777344 376.203125 L 174.601563 374.582031 L 175.890625 373.296875 L 177.511719 372.46875 L 179.308594 372.183594 L 181.105469 372.46875 L 182.726563 373.296875 L 184.011719 374.582031 L 184.839844 376.203125 Z M 185.125 378 "/>
<path style=" stroke:none;fill-rule:nonzero;fill:rgb(80.392157%,58.431373%,4.705882%);fill-opacity:1;" d="M 181.246094 412.890625 L 180.960938 414.6875 L 180.136719 416.308594 L 178.847656 417.597656 L 177.226563 418.421875 L 175.429688 418.707031 L 173.632813 418.421875 L 172.011719 417.597656 L 170.726563 416.308594 L 169.898438 414.6875 L 169.617188 412.890625 L 169.898438 411.09375 L 170.726563 409.472656 L 172.011719 408.1875 L 173.632813 407.363281 L 175.429688 407.078125 L 177.226563 407.363281 L 178.847656 408.1875 L 180.136719 409.472656 L 180.960938 411.09375 Z M 181.246094 412.890625 "/>
<path style=" stroke:none;fill-rule:nonzero;fill:rgb(80.392157%,58.431373%,4.705882%);fill-opacity:1;" d="M 165.738281 362.492188 L 165.453125 364.289063 L 164.628906 365.910156 L 163.339844 367.195313 L 161.71875 368.023438 L 159.921875 368.308594 L 158.125 368.023438 L 156.503906 367.195313 L 155.21875 365.910156 L 154.390625 364.289063 L 154.109375 362.492188 L 154.390625 360.695313 L 154.847656 359.800781 L 154.941406 359.808594 L 160.492188 357.457031 L 162.476563 357.347656 L 163.339844 357.789063 L 164.628906 359.074219 L 165.453125 360.695313 Z M 165.738281 362.492188 "/>
<path style=" stroke:none;fill-rule:nonzero;fill:rgb(80.392157%,58.431373%,4.705882%);fill-opacity:1;" d="M 177.371094 172.523438 L 177.085938 174.320313 L 176.257813 175.941406 L 174.972656 177.226563 L 173.351563 178.054688 L 171.554688 178.339844 L 169.757813 178.054688 L 168.136719 177.226563 L 166.847656 175.941406 L 166.023438 174.320313 L 165.738281 172.523438 L 165.976563 171.027344 L 167.808594 170.273438 L 170.480469 169.527344 L 170.492188 169.949219 L 171.554688 169.839844 L 173.589844 168.316406 L 173.902344 167.273438 L 174.972656 167.816406 L 176.257813 169.105469 L 177.085938 170.726563 Z M 177.371094 172.523438 "/>
<path style=" stroke:none;fill-rule:nonzero;fill:rgb(80.392157%,58.431373%,4.705882%);fill-opacity:1;" d="M 224.925781 289.886719 L 223.75 290.484375 L 221.953125 290.769531 L 220.15625 290.484375 L 218.535156 289.660156 L 217.25 288.371094 L 216.421875 286.75 L 216.136719 284.953125 L 216.421875 283.15625 L 217.25 281.535156 L 218.535156 280.25 L 220.15625 279.421875 L 220.925781 279.300781 L 221.269531 280.457031 L 222.984375 284.039063 L 223.773438 285.027344 Z M 224.925781 289.886719 "/>
<path style=" stroke:none;fill-rule:nonzero;fill:rgb(80.392157%,58.431373%,4.705882%);fill-opacity:1;" d="M 185.125 242.308594 L 184.839844 244.105469 L 184.011719 245.726563 L 182.726563 247.011719 L 181.105469 247.839844 L 179.308594 248.125 L 177.511719 247.839844 L 175.890625 247.011719 L 174.601563 245.726563 L 173.777344 244.105469 L 173.492188 242.308594 L 173.679688 241.125 L 178.0625 241.875 L 182.921875 243.167969 L 185.117188 242.261719 Z M 174.125 239.832031 L 174.601563 238.890625 L 175.890625 237.601563 L 177.511719 236.777344 L 179.308594 236.492188 L 180.691406 236.710938 L 180.578125 237.003906 L 174.761719 240.109375 Z M 174.125 239.832031 "/>
<path style=" stroke:none;fill-rule:nonzero;fill:rgb(80.392157%,58.431373%,4.705882%);fill-opacity:1;" d="M 123.519531 496.007813 L 123.234375 495.960938 L 121.613281 495.136719 L 120.324219 493.847656 L 119.5 492.226563 L 119.214844 490.429688 L 119.5 488.632813 L 120.324219 487.011719 L 121.613281 485.726563 L 123.234375 484.898438 L 125.03125 484.617188 L 126.828125 484.898438 L 128.449219 485.726563 L 129.734375 487.011719 L 129.984375 487.503906 L 129.414063 488.195313 L 126.714844 489.746094 L 124.039063 490.597656 L 123.132813 494.289063 L 123.664063 495.292969 Z M 123.519531 496.007813 "/>
<path style=" stroke:none;fill-rule:nonzero;fill:rgb(80.392157%,58.431373%,4.705882%);fill-opacity:1;" d="M 208.886719 251.386719 L 208.242188 251.714844 L 206.445313 252 L 204.648438 251.714844 L 203.027344 250.890625 L 201.742188 249.601563 L 200.914063 247.980469 L 200.628906 246.183594 L 200.914063 244.386719 L 201.222656 243.789063 L 206.488281 246.65625 Z M 208.886719 251.386719 "/>
</g>
</svg>
