<?xml version="1.0" encoding="UTF-8"?>
<svg xmlns="http://www.w3.org/2000/svg" xmlns:xlink="http://www.w3.org/1999/xlink" width="378pt" height="504pt" viewBox="0 0 378 504" version="1.1">
<g id="data">
<rect x="0" y="0" width="378" height="504" style="fill:rgb(100%,100%,100%);fill-opacity:1;stroke:none;"/>
<path style=" stroke:none;fill-rule:nonzero;fill:rgb(100%,100%,100%);fill-opacity:1;" d="M 53.308594 504 L 324.691406 504 L 324.691406 0 L 53.308594 0 Z M 53.308594 504 "/>
<path style=" stroke:none;fill-rule:nonzero;fill:rgb(22.745098%,53.333333%,16.078431%);fill-opacity:1;" d="M 241.339844 308.214844 L 242.476563 310.792969 L 244.199219 313.019531 L 246.40625 314.765625 L 249.09375 315.96875 L 250.800781 318.140625 L 252.96875 319.847656 L 251.832031 322.558594 L 251.410156 325.597656 L 251.800781 328.640625 L 252.96875 331.476563 L 250.523438 334.75 L 249.359375 338.671875 L 249.363281 338.738281 L 245.550781 339.511719 L 244.589844 338.644531 L 243.40625 338.558594 L 241.210938 339.871094 L 241.886719 340.445313 L 246.324219 340.394531 L 249.375 339.421875 L 249.425781 341.742188 L 250.289063 344.691406 L 251.433594 346.695313 L 252.945313 348.4375 L 254.777344 349.84375 L 256.847656 350.863281 L 258.050781 353.546875 L 259.890625 355.84375 L 262.136719 357.542969 L 264.601563 358.617188 L 264.679688 360.789063 L 265.164063 362.910156 L 266.035156 364.90625 L 267.261719 366.703125 L 267.425781 366.84375 L 264.953125 369.09375 L 261.394531 373.164063 L 260.601563 374.816406 L 262.84375 374.3125 L 264.9375 375.519531 L 266.9375 378.226563 L 270.21875 378.804688 L 270.625 378.746094 L 271.910156 376.796875 L 272.234375 374.960938 L 273.40625 371.914063 L 273.96875 371.355469 L 274.785156 371.917969 L 277.183594 372.832031 L 279.980469 373.207031 L 282.910156 372.867188 L 285.546875 371.859375 L 287.089844 370.785156 L 288.609375 370.945313 L 289.433594 371.71875 L 291.363281 372.933594 L 293.492188 373.75 L 295.617188 374.125 L 295.308594 377.292969 L 295.875 380.429688 L 297.273438 383.292969 L 299.492188 385.753906 L 299.179688 392.546875 L 299.640625 395.570313 L 301.078125 398.695313 L 303.371094 401.261719 L 303.371094 407.992188 L 298.539063 413.066406 L 297.25 413.300781 L 296.550781 413.574219 L 295.578125 412.011719 L 292.742188 410.515625 L 292.480469 410.636719 L 293.898438 413.703125 L 294.476563 414.554688 L 293.410156 415.21875 L 291.824219 416.675781 L 290.4375 418.515625 L 289.441406 420.59375 L 289.324219 421.054688 L 288.214844 419.332031 L 284.976563 421.730469 L 280.71875 424.230469 L 282.339844 425.378906 L 285.105469 424.398438 L 286.097656 423.375 L 286.894531 423.164063 L 287.328125 423.710938 L 287.632813 428.84375 L 285.6875 430.875 L 283.441406 432.558594 L 282.84375 432.699219 L 279.644531 432.160156 L 274.75 433.78125 L 272.609375 436.117188 L 274.253906 436.015625 L 275.152344 434.667969 L 276.683594 434.363281 L 278.285156 434.328125 L 281.054688 434.949219 L 281.828125 435.589844 L 281.691406 436.328125 L 279.554688 436.347656 L 277.390625 437.65625 L 277.96875 438.546875 L 281.382813 438.964844 L 286.863281 440.339844 L 289.394531 439.9375 L 291.074219 438.957031 L 299.492188 437.792969 L 299.492188 447.785156 L 297.320313 449.492188 L 296.707031 450.273438 L 295.839844 450.375 L 292.621094 451.640625 L 291.179688 452.742188 L 289.847656 454.226563 L 289.460938 455.09375 L 289.214844 456.324219 L 289.242188 456.503906 L 289.066406 456.730469 L 288.492188 458.007813 L 286.253906 458.289063 L 284.1875 457.9375 L 282.140625 459.871094 L 280.660156 460.191406 L 278.210938 461.515625 L 277.496094 462.15625 L 274.789063 462.777344 L 272.597656 463.816406 L 272.101563 464.484375 L 271.417969 464.78125 L 269.023438 466.726563 L 267.304688 466.207031 L 265.644531 464.84375 L 262.226563 463.515625 L 258.847656 463.128906 L 254.34375 463.144531 L 251.589844 463.488281 L 248.046875 464.84375 L 247.730469 465.105469 L 244.628906 465.699219 L 242.703125 466.390625 L 242.113281 466.964844 L 242.085938 467.101563 L 240.457031 467.277344 L 240.121094 467.386719 L 238.210938 466.1875 L 238.632813 465.4375 L 239.46875 464.933594 L 237.714844 463.296875 L 231.496094 463.171875 L 231.378906 463.496094 L 232.574219 464.835938 L 232.214844 465.75 L 231.738281 466.042969 L 226.691406 465.496094 L 219.566406 468.449219 L 217.054688 467.824219 L 210.222656 468.96875 L 208.164063 468.875 L 207.273438 468.058594 L 206.238281 469.769531 L 209.429688 471.089844 L 209.714844 470.9375 L 210.1875 472.128906 L 209.566406 473.890625 L 206.84375 474.453125 L 204.453125 473.097656 L 203.015625 472.699219 L 197.625 472.007813 L 196.175781 472.65625 L 195.679688 473.863281 L 195.78125 474.523438 L 195.257813 474.742188 L 194.851563 473.972656 L 190.289063 470.589844 L 185.898438 468.519531 L 183.121094 467.984375 L 181.648438 469.066406 L 176.207031 469.78125 L 174.339844 470.335938 L 168.992188 473.234375 L 168.214844 474.070313 L 167.203125 476.179688 L 165.804688 480.273438 L 165.507813 480.507813 L 163.800781 482.675781 L 161.679688 483.050781 L 159.546875 483.867188 L 157.617188 485.082031 L 156.085938 486.515625 L 155.089844 485.75 L 153.429688 484.359375 L 150.414063 483.050781 L 148.679688 482.769531 L 148.46875 482.535156 L 147.628906 482.597656 L 147.421875 482.5625 L 144.414063 482.675781 L 142.0625 482.113281 L 139.519531 482.054688 L 136.660156 482.675781 L 133.476563 482.9375 L 130.371094 484.113281 L 127.121094 486.78125 L 125.136719 490.246094 L 124.039063 490.597656 L 124.039063 490.605469 L 122.910156 490.804688 L 120.777344 491.621094 L 118.847656 492.835938 L 117.277344 494.308594 L 115.703125 492.835938 L 113.773438 491.621094 L 111.644531 490.804688 L 109.523438 490.429688 L 113.203125 490.050781 L 116.6875 488.460938 L 119.386719 485.929688 L 120.496094 483.886719 L 121.425781 483.085938 L 121.683594 482.796875 L 123.78125 483.28125 L 126.480469 483.261719 L 129.222656 482.574219 L 131.609375 481.324219 L 133.816406 479.359375 L 135.515625 476.792969 L 136.457031 473.992188 L 136.660156 471.046875 L 139.269531 470.527344 L 141.691406 469.429688 L 147.023438 464.894531 L 148.894531 461.835938 L 149.734375 458.476563 L 149.546875 455.023438 L 148.394531 451.933594 L 148.371094 451.59375 L 151.140625 449.214844 L 152.941406 446.511719 L 157.421875 446.269531 L 159.910156 445.683594 L 164.597656 446.761719 L 166.046875 446.148438 L 167.527344 446.515625 L 169.484375 447.285156 L 170.039063 448.109375 L 170.757813 448.421875 L 173.15625 448.464844 L 180.570313 447.503906 L 181.109375 445.632813 L 181.210938 443.15625 L 182.519531 440.25 L 190.867188 432.195313 L 195.792969 425.3125 L 197.929688 424.472656 L 198.285156 423.78125 L 198.070313 423.238281 L 197.8125 423.082031 L 196.09375 424.355469 L 192.90625 427.300781 L 190.570313 429.988281 L 189.222656 431.449219 L 185.628906 432.957031 L 183.714844 433.246094 L 182.441406 433.0625 L 178.394531 435.230469 L 177.398438 436.808594 L 177.039063 438.671875 L 176.445313 439.273438 L 174.058594 439.917969 L 170.558594 439.851563 L 169.707031 439.65625 L 170.164063 439.550781 L 172.816406 438.347656 L 175.875 435.691406 L 177.679688 433.050781 L 178.558594 430.644531 L 178.894531 427.976563 L 178.636719 425.425781 L 177.824219 422.996094 L 176.5 420.804688 L 174.628906 418.871094 L 172.480469 417.476563 L 169.953125 416.554688 L 172.585938 415.359375 L 175.429688 412.890625 L 178.476563 411.277344 L 181.355469 408.210938 L 182.539063 405.800781 L 183.132813 403.179688 L 183.160156 399.589844 L 182.578125 396.824219 L 180.507813 393.144531 L 177.257813 390.441406 L 175.015625 389.480469 L 172.621094 389.003906 L 170.179688 389.042969 L 167.675781 389.628906 L 165.910156 386.378906 L 163.210938 383.847656 L 159.726563 382.257813 L 156.046875 381.875 L 157.214844 379.039063 L 157.605469 376.125 L 157.214844 373.082031 L 156.046875 370.246094 L 158.242188 367.632813 L 159.613281 364.367188 L 160.582031 358.996094 L 160.488281 357.457031 L 160.492188 357.457031 L 163.644531 357.28125 L 167.339844 357.714844 L 172.597656 355.179688 L 173.933594 355.046875 L 174.484375 355.082031 L 179.910156 359.441406 L 180.433594 358.429688 L 177.679688 353.460938 L 177.867188 353.253906 L 178.175781 353.113281 L 178.609375 352.78125 L 180.867188 352.449219 L 181.503906 352.695313 L 181.914063 353.875 L 182.898438 354.332031 L 184.078125 356.789063 L 185.613281 357.902344 L 188.359375 357.621094 L 188.914063 356.929688 L 192.011719 358.273438 L 196.1875 358.765625 L 198.691406 358.617188 L 202.632813 359.703125 L 205.828125 359.554688 L 208.164063 358.863281 L 210.195313 357.769531 L 212.0625 356.207031 L 213.496094 354.398438 L 214.757813 351.738281 L 215.3125 348.84375 L 215.121094 345.90625 L 214.199219 343.109375 L 216.019531 340.792969 L 217.160156 338.214844 L 217.65625 335.3125 L 217.40625 332.378906 L 216.058594 328.925781 L 213.59375 325.988281 L 210.3125 324.011719 L 206.691406 323.214844 L 208.910156 322.257813 L 210.976563 320.785156 L 212.675781 318.894531 L 213.871094 316.796875 L 214.585938 314.621094 L 214.859375 312.476563 L 214.726563 310.3125 L 214.199219 308.214844 L 216.121094 306.027344 L 217.390625 303.550781 L 218.6875 298.363281 L 218.882813 295.675781 L 218.179688 292.15625 L 216.351563 288.917969 L 213.707031 286.492188 L 210.324219 284.953125 L 213.496094 285.257813 L 216.628906 284.691406 L 219.492188 283.296875 L 221.683594 281.320313 L 221.964844 281.902344 L 222.007813 285.457031 L 222.925781 288.746094 L 224.128906 290.832031 L 225.5625 292.566406 L 225.945313 294.183594 L 229.304688 299.0625 L 230.15625 299.460938 L 230.261719 300.128906 L 231.867188 303.335938 L 233.679688 305.335938 L 236.011719 306.925781 L 238.660156 307.902344 Z M 179.308594 370.246094 L 178.742188 372.597656 L 178.675781 375.015625 L 179.078125 377.269531 L 179.972656 379.527344 L 181.234375 381.453125 L 182.953125 383.171875 L 184.988281 384.5 L 187.257813 385.371094 L 193.566406 385.894531 L 196.464844 385.507813 L 198.769531 384.734375 L 200.96875 383.417969 L 202.824219 381.652344 L 204.246094 379.527344 L 205.171875 377.136719 L 205.539063 374.859375 L 205.46875 372.683594 L 204.949219 370.4375 L 204 368.335938 L 202.570313 366.371094 L 201.320313 363.847656 L 199.785156 361.964844 L 197.339844 360.113281 L 194.621094 358.996094 L 191.964844 358.601563 L 188.890625 358.796875 L 186.429688 359.527344 L 184.082031 360.851563 L 182.101563 362.683594 L 180.597656 364.921875 L 179.652344 367.445313 Z M 232.871094 471.550781 L 231.871094 472.320313 L 230.464844 474.011719 L 229.960938 474.269531 L 229.160156 474.433594 L 227.726563 473.148438 L 225.398438 471.867188 L 223.085938 471.195313 L 222.703125 471.148438 L 222.296875 470.886719 L 221.496094 471 L 220.46875 470.875 L 221.476563 469.683594 L 227.316406 466.367188 L 232.550781 467.761719 L 234.171875 469.894531 Z M 181.613281 349.878906 L 182.007813 349.398438 L 183.183594 346.984375 L 183.820313 350.773438 L 185.652344 354.148438 L 187.761719 356.078125 L 186.378906 356.386719 L 183.8125 354.640625 Z M 171.476563 238.671875 L 171.554688 238.429688 L 173.460938 236.910156 L 174.9375 235.132813 L 176.5625 231.511719 L 176.902344 229.355469 L 176.835938 227.171875 L 176.359375 225.039063 L 175.429688 222.921875 L 180.53125 223.058594 L 177.804688 225.21875 L 178.117188 225.714844 L 179.84375 225.195313 L 184.609375 222.886719 L 184.691406 222.816406 L 184.820313 222.808594 L 187.378906 222.140625 L 188.339844 221.644531 L 189.085938 221.875 L 189.332031 222.921875 L 188.898438 224.691406 L 189.238281 225.953125 L 190.898438 226.824219 L 191.285156 226.890625 L 192.6875 228.863281 L 193.859375 229.863281 L 192.117188 231.570313 L 189.460938 232.730469 L 188.34375 232.882813 L 187.070313 232.078125 L 185.40625 232.042969 L 181.046875 235.800781 L 180.578125 237.003906 L 174.761719 240.109375 Z M 206.363281 246.589844 L 205.792969 249.449219 L 206.121094 252.894531 L 207.445313 256.085938 L 209.652344 258.75 L 205.917969 259.597656 L 202.570313 261.691406 L 200.863281 259.523438 L 198.691406 257.816406 L 198.488281 254.871094 L 197.546875 252.070313 L 195.933594 249.597656 L 193.851563 247.6875 L 191.371094 246.332031 L 188.640625 245.617188 L 185.941406 245.570313 L 183.183594 246.183594 L 180.242188 243.796875 L 177.917969 242.789063 L 175.429688 242.308594 L 174.152344 241.207031 L 178.0625 241.875 L 182.921875 243.167969 L 186.398438 241.730469 L 187.519531 239.417969 L 188.617188 238.355469 L 189.539063 238.171875 L 193.183594 238.5 L 199.339844 242.761719 Z M 167.675781 305.050781 L 167.675781 304.339844 L 169.148438 302.765625 L 170.363281 300.835938 L 171.144531 298.828125 L 171.554688 296.585938 L 173.253906 294.707031 L 174.558594 292.390625 L 175.429688 288.832031 L 176.734375 291.339844 L 178.605469 293.457031 L 180.820313 295.003906 L 183.453125 296.027344 L 186.257813 296.390625 L 189.066406 296.0625 L 191.710938 295.066406 L 194.039063 293.460938 L 191.921875 296.640625 L 190.9375 300.460938 L 189.089844 302.402344 L 187.734375 304.710938 L 186.941406 307.269531 L 186.757813 309.941406 L 187.46875 314.335938 L 188.949219 317.550781 L 192.359375 321.28125 L 195.59375 323.21875 L 192.609375 324.382813 L 189.964844 326.402344 L 188.191406 328.753906 L 187.0625 331.476563 L 184.640625 334.476563 L 184.53125 331.683594 L 183.929688 329.535156 L 184.695313 329.191406 L 187.28125 323.421875 L 187.71875 320.933594 L 187.855469 317.484375 L 184.742188 320.527344 L 179.273438 323.402344 L 178.925781 320.042969 L 177.476563 316.773438 L 175.300781 314.265625 L 173.53125 313.003906 L 172.40625 312.484375 L 172.289063 311.832031 Z M 179.308594 168.644531 L 177.136719 170.351563 L 175.429688 172.523438 L 171.554688 172.523438 L 171.554688 169.839844 L 173.152344 168.644531 Z M 126.132813 412.890625 L 132.785156 412.890625 L 134.324219 414.425781 L 136.230469 415.703125 L 138.230469 416.546875 L 140.480469 417.015625 L 148.292969 416.769531 L 151.128906 417.9375 L 154.171875 418.328125 L 157.210938 417.90625 L 159.921875 416.769531 L 161.1875 416.914063 L 158.847656 417.566406 L 156.691406 418.691406 L 154.816406 420.242188 L 153.238281 422.257813 L 152.183594 424.449219 L 151.675781 426.566406 L 148.144531 426.46875 L 146.539063 425.402344 L 144.882813 424.71875 L 143.574219 423.933594 L 142.210938 422.972656 L 140.082031 422.074219 L 137.175781 421.574219 L 134.234375 421.816406 L 131.453125 422.792969 L 131.25 422.929688 L 131.226563 422.867188 L 131.179688 422.980469 L 129 424.460938 L 128.914063 424.472656 L 129.214844 421.351563 L 128.605469 418.09375 L 127.179688 415.246094 L 125.609375 413.527344 L 125.933594 413.378906 Z M 151.558594 428.445313 L 151.539063 429.367188 L 151.890625 431.191406 L 151.738281 431.257813 L 150.527344 428.929688 L 150.398438 428.792969 Z M 141.804688 318.621094 L 143.203125 316.664063 L 144.132813 314.582031 L 144.640625 312.359375 L 144.683594 310.390625 L 144.765625 310.230469 L 144.792969 310.207031 L 146.027344 313.238281 L 148.292969 315.96875 L 144.84375 316.792969 Z M 286.679688 439.636719 L 283.058594 438.976563 L 282.164063 437.605469 L 282.484375 436.070313 L 286.839844 437.054688 L 287.960938 438.832031 Z M 236.835938 466.113281 L 235.136719 465.644531 L 236.523438 463.683594 L 237.195313 464.164063 L 237.5 465.839844 Z M 236.835938 466.113281 "/>
</g>
</svg>
