<?xml version="1.0" encoding="UTF-8"?>
<svg xmlns="http://www.w3.org/2000/svg" xmlns:xlink="http://www.w3.org/1999/xlink" width="378pt" height="504pt" viewBox="0 0 378 504" version="1.1">
<g id="data">
<rect x="0" y="0" width="378" height="504" style="fill:rgb(100%,100%,100%);fill-opacity:1;stroke:none;"/>
<path style=" stroke:none;fill-rule:nonzero;fill:rgb(100%,100%,100%);fill-opacity:1;" d="M 53.308594 504 L 324.691406 504 L 324.691406 0 L 53.308594 0 Z M 53.308594 504 "/>
<path style=" stroke:none;fill-rule:nonzero;fill:rgb(22.745098%,53.333333%,16.078431%);fill-opacity:1;" d="M 230.695313 340.21875 L 233.785156 342.1875 L 237.460938 343.109375 L 235.292969 344.8125 L 233.585938 346.984375 L 232.664063 343.308594 Z M 230.695313 340.21875 "/>
<path style=" stroke:none;fill-rule:nonzero;fill:rgb(80.392157%,58.431373%,4.705882%);fill-opacity:1;" d="M 200.628906 366.371094 L 200.347656 368.167969 L 199.519531 369.789063 L 198.234375 371.074219 L 196.613281 371.898438 L 194.816406 372.183594 L 193.019531 371.898438 L 191.398438 371.074219 L 190.109375 369.789063 L 189.285156 368.167969 L 189 366.371094 L 189.285156 364.570313 L 190.109375 362.949219 L 191.398438 361.664063 L 193.019531 360.839844 L 194.816406 360.554688 L 196.613281 360.839844 L 198.234375 361.664063 L 199.519531 362.949219 L 200.347656 364.570313 Z M 200.628906 366.371094 "/>
<path style=" stroke:none;fill-rule:nonzero;fill:rgb(80.392157%,58.431373%,4.705882%);fill-opacity:1;" d="M 204.507813 378 L 204.222656 379.796875 L 203.398438 381.417969 L 202.109375 382.703125 L 200.488281 383.53125 L 198.691406 383.816406 L 196.894531 383.53125 L 195.273438 382.703125 L 193.988281 381.417969 L 193.160156 379.796875 L 192.875 378 L 193.160156 376.203125 L 193.988281 374.582031 L 195.273438 373.296875 L 196.894531 372.46875 L 198.691406 372.183594 L 200.488281 372.46875 L 202.109375 373.296875 L 203.398438 374.582031 L 204.222656 376.203125 Z M 204.507813 378 "/>
<path style=" stroke:none;fill-rule:nonzero;fill:rgb(80.392157%,58.431373%,4.705882%);fill-opacity:1;" d="M 235.523438 370.246094 L 235.238281 372.042969 L 234.414063 373.664063 L 233.125 374.949219 L 231.503906 375.777344 L 229.707031 376.0625 L 227.910156 375.777344 L 226.289063 374.949219 L 225.003906 373.664063 L 224.175781 372.042969 L 223.890625 370.246094 L 224.175781 368.449219 L 225.003906 366.828125 L 226.289063 365.542969 L 227.910156 364.714844 L 229.707031 364.429688 L 231.503906 364.714844 L 233.125 365.542969 L 234.414063 366.828125 L 235.238281 368.449219 Z M 235.523438 370.246094 "/>
<path style=" stroke:none;fill-rule:nonzero;fill:rgb(80.392157%,58.431373%,4.705882%);fill-opacity:1;" d="M 208.382813 393.507813 L 208.101563 395.304688 L 207.273438 396.925781 L 205.988281 398.210938 L 204.367188 399.039063 L 202.570313 399.324219 L 200.773438 399.039063 L 199.152344 398.210938 L 197.863281 396.925781 L 197.039063 395.304688 L 196.753906 393.507813 L 197.039063 391.710938 L 197.863281 390.089844 L 199.152344 388.804688 L 200.773438 387.976563 L 202.570313 387.691406 L 204.367188 387.976563 L 205.988281 388.804688 L 207.273438 390.089844 L 208.101563 391.710938 Z M 208.382813 393.507813 "/>
<path style=" stroke:none;fill-rule:nonzero;fill:rgb(80.392157%,58.431373%,4.705882%);fill-opacity:1;" d="M 220.015625 284.953125 L 219.730469 286.75 L 218.90625 288.371094 L 217.617188 289.660156 L 215.996094 290.484375 L 214.199219 290.769531 L 212.402344 290.484375 L 210.78125 289.660156 L 209.496094 288.371094 L 208.667969 286.75 L 208.382813 284.953125 L 208.667969 283.15625 L 209.496094 281.535156 L 210.78125 280.25 L 212.402344 279.421875 L 214.199219 279.136719 L 215.996094 279.421875 L 217.617188 280.25 L 218.90625 281.535156 L 219.730469 283.15625 Z M 220.015625 284.953125 "/>
<path style=" stroke:none;fill-rule:nonzero;fill:rgb(80.392157%,58.431373%,4.705882%);fill-opacity:1;" d="M 274.292969 436.152344 L 274.007813 437.949219 L 273.183594 439.570313 L 271.894531 440.859375 L 270.273438 441.683594 L 268.476563 441.96875 L 266.679688 441.683594 L 265.058594 440.859375 L 263.773438 439.570313 L 262.945313 437.949219 L 262.660156 436.152344 L 262.945313 434.355469 L 263.773438 432.734375 L 265.058594 431.449219 L 266.679688 430.625 L 268.476563 430.339844 L 270.273438 430.625 L 271.894531 431.449219 L 273.183594 432.734375 L 274.039063 434.554688 L 272.609375 436.117188 Z M 274.292969 436.152344 "/>
<path style=" stroke:none;fill-rule:nonzero;fill:rgb(80.392157%,58.431373%,4.705882%);fill-opacity:1;" d="M 293.675781 416.769531 L 293.390625 418.566406 L 292.566406 420.1875 L 291.316406 421.4375 L 289.660156 421.574219 L 288.214844 419.332031 L 284.960938 421.738281 L 283.15625 420.1875 L 282.332031 418.566406 L 282.046875 416.769531 L 282.332031 414.972656 L 283.15625 413.351563 L 284.441406 412.066406 L 286.066406 411.238281 L 287.863281 410.953125 L 289.660156 411.238281 L 291.28125 412.066406 L 292.566406 413.351563 L 293.390625 414.972656 Z M 293.675781 416.769531 "/>
</g>
</svg>
