<?xml version="1.0" encoding="UTF-8"?>
<svg xmlns="http://www.w3.org/2000/svg" xmlns:xlink="http://www.w3.org/1999/xlink" width="378pt" height="504pt" viewBox="0 0 378 504" version="1.1">
<g id="data">
<rect x="0" y="0" width="378" height="504" style="fill:rgb(100%,100%,100%);fill-opacity:1;stroke:none;"/>
<path style=" stroke:none;fill-rule:nonzero;fill:rgb(100%,100%,100%);fill-opacity:1;" d="M 53.308594 504 L 324.691406 504 L 324.691406 0 L 53.308594 0 Z M 53.308594 504 "/>
<path style=" stroke:none;fill-rule:nonzero;fill:rgb(22.745098%,53.333333%,16.078431%);fill-opacity:1;" d="M 237.460938 343.109375 L 239.035156 344.582031 L 240.964844 345.796875 L 243.09375 346.609375 L 245.214844 346.984375 L 242.589844 350.09375 L 241.21875 353.792969 L 241.027344 356.210938 L 241.339844 358.617188 L 240.675781 362.621094 L 241.351563 367.914063 L 238.214844 367.277344 L 235.148438 367.492188 L 232.242188 368.507813 L 229.707031 370.246094 L 229.644531 364.320313 L 228.511719 360.535156 L 227.285156 358.582031 L 225.796875 356.996094 L 224.039063 355.714844 L 221.953125 354.738281 L 221.574219 351.058594 L 220.054688 347.683594 L 217.550781 344.953125 L 214.199219 343.109375 L 214.199219 339.230469 L 218.078125 339.894531 L 221.953125 339.230469 L 224.179688 339.777344 L 226.46875 339.878906 L 229.707031 339.230469 L 231.28125 340.703125 L 233.210938 341.917969 L 235.339844 342.734375 Z M 202.570313 393.507813 L 201.839844 394.167969 L 201.355469 392.617188 Z M 189.640625 385.257813 L 192.421875 383.96875 L 194.679688 382.09375 L 196.398438 379.707031 L 197.492188 376.847656 L 198.691406 378 L 197.695313 380.335938 L 197.222656 382.957031 L 197.335938 385.492188 L 197.996094 387.941406 L 196.117188 386.65625 L 194.140625 385.800781 L 191.917969 385.308594 Z M 152.167969 358.617188 L 154.21875 358.617188 L 154.066406 358.859375 L 152.167969 360.0625 Z M 154.578125 359.769531 L 153.875 360.320313 L 152.167969 362.492188 L 152.167969 360.195313 L 153.09375 359.609375 Z M 154.578125 359.769531 "/>
</g>
</svg>
