<?xml version="1.0" encoding="UTF-8"?>
<svg xmlns="http://www.w3.org/2000/svg" xmlns:xlink="http://www.w3.org/1999/xlink" width="378pt" height="504pt" viewBox="0 0 378 504" version="1.1">
<g id="data">
<rect x="0" y="0" width="378" height="504" style="fill:rgb(100%,100%,100%);fill-opacity:1;stroke:none;"/>
<path style=" stroke:none;fill-rule:nonzero;fill:rgb(100%,100%,100%);fill-opacity:1;" d="M 53.308594 504 L 324.691406 504 L 324.691406 0 L 53.308594 0 Z M 53.308594 504 "/>
<path style=" stroke:none;fill-rule:nonzero;fill:rgb(22.745098%,53.333333%,16.078431%);fill-opacity:1;" d="M 241.339844 308.214844 L 242.476563 310.792969 L 244.199219 313.019531 L 246.40625 314.765625 L 249.09375 315.96875 L 250.800781 318.140625 L 252.96875 319.847656 L 251.832031 322.558594 L 251.410156 325.597656 L 251.800781 328.640625 L 252.96875 331.476563 L 250.734375 333.410156 L 249 335.953125 L 247.996094 338.867188 L 247.988281 339.019531 L 245.550781 339.511719 L 244.589844 338.644531 L 243.40625 338.558594 L 241.210938 339.871094 L 241.886719 340.445313 L 246.324219 340.394531 L 247.925781 339.882813 L 247.785156 341.8125 L 248.246094 344.46875 L 249.304688 346.949219 L 250.910156 349.121094 L 252.96875 350.863281 L 253.445313 354.160156 L 254.910156 357.296875 L 256.746094 359.441406 L 259.046875 361.082031 L 261.796875 362.148438 L 264.601563 362.492188 L 265.050781 366.421875 L 265.933594 368.199219 L 264.953125 369.09375 L 261.394531 373.164063 L 260.601563 374.816406 L 262.84375 374.3125 L 264.9375 375.519531 L 266.9375 378.226563 L 270.21875 378.804688 L 270.625 378.746094 L 271.910156 376.796875 L 272.234375 374.960938 L 272.53125 374.191406 L 273.625 374.742188 L 277.5 375.605469 L 281.558594 375.078125 L 285.1875 373.175781 L 287.347656 370.8125 L 289.917969 371.085938 L 290.476563 371.3125 L 292.664063 372.894531 L 295.148438 376.152344 L 296.332031 379.941406 L 296.292969 383.277344 L 294.816406 389.382813 L 294.933594 391.820313 L 295.558594 394.179688 L 296.804688 396.574219 L 298.664063 398.699219 L 300.867188 400.253906 L 303.371094 401.261719 L 303.371094 407.992188 L 302.289063 409.128906 L 299.6875 409.394531 L 296.3125 410.914063 L 295.285156 411.855469 L 292.742188 410.515625 L 292.480469 410.636719 L 293.710938 413.300781 L 293.585938 413.417969 L 291.738281 416.769531 L 290.167969 415.296875 L 288.234375 414.082031 L 286.105469 413.265625 L 283.984375 412.890625 L 281.339844 411.097656 L 278.429688 410.117188 L 276.003906 409.902344 L 273.589844 410.195313 L 271.289063 410.988281 L 269.101563 412.316406 L 267.421875 413.898438 L 266.027344 415.890625 L 265.074219 418.128906 L 264.601563 420.644531 L 263.167969 422.613281 L 262.179688 424.835938 L 261.617188 428.882813 L 262.488281 432.871094 L 264.683594 436.316406 L 268.050781 438.84375 L 271.589844 439.945313 L 274.105469 440.191406 L 276.230469 440.03125 L 278.003906 441.65625 L 280.078125 442.882813 L 285.707031 444.371094 L 289.132813 444.503906 L 294.226563 443.425781 L 297.09375 442.089844 L 299.492188 440.03125 L 299.492188 447.785156 L 297.191406 448.015625 L 294.980469 448.695313 L 293.058594 449.726563 L 291.269531 451.191406 L 289.804688 452.980469 L 288.722656 455.023438 L 288.066406 457.242188 L 287.988281 458.070313 L 286.253906 458.289063 L 284.1875 457.9375 L 282.140625 459.871094 L 280.660156 460.191406 L 278.210938 461.515625 L 277.496094 462.15625 L 274.789063 462.777344 L 272.597656 463.816406 L 272.101563 464.484375 L 271.417969 464.78125 L 269.023438 466.726563 L 267.367188 466.226563 L 265.96875 465.042969 L 262.96875 463.699219 L 259.601563 463.160156 L 256.847656 463.292969 L 253.359375 462.011719 L 249.648438 461.894531 L 247.273438 462.460938 L 244.960938 463.574219 L 242.949219 465.171875 L 241.339844 467.167969 L 239.996094 467.308594 L 238.210938 466.1875 L 238.632813 465.4375 L 239.46875 464.933594 L 237.714844 463.296875 L 231.496094 463.171875 L 231.378906 463.496094 L 232.574219 464.835938 L 232.214844 465.75 L 231.738281 466.042969 L 226.691406 465.496094 L 219.566406 468.449219 L 217.054688 467.824219 L 210.222656 468.96875 L 208.164063 468.875 L 207.273438 468.058594 L 206.238281 469.769531 L 209.429688 471.089844 L 209.714844 470.9375 L 210.1875 472.128906 L 209.566406 473.890625 L 206.84375 474.453125 L 204.453125 473.097656 L 204.203125 473.027344 L 202.945313 472.234375 L 200.9375 471.453125 L 198.691406 471.046875 L 197.679688 468.984375 L 196.363281 467.253906 L 194.648438 465.71875 L 192.78125 464.609375 L 190.617188 463.835938 L 188.472656 463.507813 L 186.171875 463.601563 L 183.941406 464.144531 L 185.652344 461.785156 L 186.71875 459.070313 L 187.6875 452.65625 L 187.570313 449.707031 L 186.660156 446.765625 L 185.011719 444.164063 L 182.738281 442.089844 L 181.886719 441.652344 L 182.519531 440.25 L 182.527344 440.238281 L 182.652344 440.21875 L 185.128906 439.152344 L 187.296875 437.542969 L 189.03125 435.484375 L 190.152344 432.886719 L 190.867188 432.195313 L 195.792969 425.3125 L 197.929688 424.472656 L 198.285156 423.78125 L 198.070313 423.238281 L 197.8125 423.082031 L 196.09375 424.355469 L 192.90625 427.300781 L 190.828125 429.695313 L 190.9375 428.398438 L 191.941406 425.148438 L 192.039063 422.503906 L 194.816406 420.644531 L 198.621094 420.230469 L 201.980469 418.675781 L 204.679688 416.144531 L 206.445313 412.890625 L 209.15625 411.445313 L 211.394531 409.339844 L 212.894531 406.957031 L 213.753906 404.40625 L 213.996094 401.597656 L 213.59375 398.941406 L 216.535156 400.945313 L 219.816406 401.949219 L 222.359375 402.050781 L 225.832031 401.261719 L 229.707031 401.261719 L 232.757813 402.230469 L 235.957031 402.332031 L 238.941406 401.605469 L 241.527344 400.195313 L 243.679688 398.183594 L 245.253906 395.695313 L 246.15625 392.890625 L 246.320313 389.949219 L 245.824219 387.304688 L 244.390625 383.738281 L 241.796875 380.421875 L 239.703125 378.945313 L 237.460938 378 L 235.753906 375.828125 L 233.585938 374.125 L 232.5625 370.167969 L 230.238281 366.8125 L 228.566406 365.417969 L 226.660156 364.359375 L 224.46875 363.644531 L 222.308594 363.382813 L 220.132813 363.527344 L 217.90625 364.117188 L 215.945313 365.070313 L 214.199219 366.371094 L 212.78125 363.167969 L 214.199219 362.492188 L 216.765625 362.355469 L 219.359375 361.613281 L 221.605469 360.363281 L 223.4375 358.75 L 225.203125 356.226563 L 226.269531 353.199219 L 226.46875 350 L 225.832031 346.984375 L 228.105469 346.097656 L 230.046875 344.839844 L 231.78125 343.121094 L 233.117188 341.078125 L 234.03125 338.679688 L 234.390625 336.265625 L 234.242188 333.828125 L 233.585938 331.476563 L 233.785156 323.28125 L 232.457031 319.300781 L 231.238281 317.507813 L 229.707031 315.96875 L 233.390625 315.589844 L 236.765625 314.070313 L 239.492188 311.566406 Z M 233.847656 469.46875 L 231.554688 471.570313 L 230.109375 474.191406 L 229.960938 474.269531 L 229.269531 474.410156 L 227.871094 472.777344 L 225.570313 471.132813 L 222.820313 470.066406 L 221.308594 469.878906 L 221.476563 469.683594 L 227.316406 466.367188 L 232.550781 467.761719 Z M 221.28125 313.027344 L 218.433594 313.554688 L 215.695313 314.835938 L 217.597656 312.648438 L 218.898438 310.0625 Z M 208.417969 391.296875 L 209.691406 388.746094 L 209.757813 391.160156 L 210.324219 393.507813 Z M 198.691406 257.816406 L 201.09375 256.644531 L 201.542969 259.253906 L 202.570313 261.691406 L 200.863281 259.523438 Z M 179.933594 323.054688 L 180.78125 322.152344 L 181.996094 320.222656 L 182.8125 318.089844 L 183.183594 315.96875 L 184.890625 318.140625 L 186.164063 319.140625 L 184.742188 320.527344 Z M 185.628906 327.105469 L 186.003906 329.039063 L 185.246094 327.964844 Z M 150.964844 483.019531 L 148.097656 482.402344 L 144.414063 482.675781 L 142.097656 482.117188 L 139.589844 482.050781 L 143.0625 480.097656 L 146.585938 477.09375 L 148.292969 474.921875 L 148.371094 477.070313 L 148.839844 479.164063 L 149.75 481.25 Z M 141.804688 318.621094 L 143.140625 316.773438 L 144.132813 314.582031 L 144.640625 312.359375 L 144.683594 310.390625 L 144.765625 310.230469 L 144.792969 310.207031 L 146.027344 313.238281 L 148.292969 315.96875 L 144.84375 316.792969 Z M 128.90625 412.890625 L 130.339844 414.707031 L 131.996094 416.128906 L 133.890625 417.21875 L 135.953125 417.933594 L 138.113281 418.25 L 140.292969 418.15625 L 142.421875 417.65625 L 144.414063 416.769531 L 144.417969 422.007813 L 144.898438 424.679688 L 140.8125 422.328125 L 136.789063 421.5625 L 132.632813 422.28125 L 131.257813 422.941406 L 131.226563 422.867188 L 131.179688 422.980469 L 130.664063 423.226563 L 128.988281 424.460938 L 128.929688 424.46875 L 130.078125 421.6875 L 130.464844 418.773438 L 130.078125 415.726563 Z M 236.835938 466.113281 L 235.136719 465.644531 L 236.523438 463.683594 L 237.195313 464.164063 L 237.5 465.839844 Z M 236.835938 466.113281 "/>
<path style=" stroke:none;fill-rule:nonzero;fill:rgb(80.392157%,58.431373%,4.705882%);fill-opacity:1;" d="M 196.753906 393.507813 L 196.46875 395.304688 L 195.644531 396.925781 L 194.355469 398.210938 L 192.734375 399.039063 L 190.9375 399.324219 L 189.140625 399.039063 L 187.519531 398.210938 L 186.234375 396.925781 L 185.40625 395.304688 L 185.125 393.507813 L 185.40625 391.710938 L 186.234375 390.089844 L 187.519531 388.804688 L 189.140625 387.976563 L 190.9375 387.691406 L 192.734375 387.976563 L 194.355469 388.804688 L 195.644531 390.089844 L 196.46875 391.710938 Z M 196.753906 393.507813 "/>
<path style=" stroke:none;fill-rule:nonzero;fill:rgb(80.392157%,58.431373%,4.705882%);fill-opacity:1;" d="M 185.125 378 L 184.839844 379.796875 L 184.011719 381.417969 L 182.726563 382.703125 L 181.105469 383.53125 L 179.308594 383.816406 L 177.511719 383.53125 L 175.890625 382.703125 L 174.601563 381.417969 L 173.777344 379.796875 L 173.492188 378 L 173.777344 376.203125 L 174.601563 374.582031 L 175.890625 373.296875 L 177.511719 372.46875 L 179.308594 372.183594 L 181.105469 372.46875 L 182.726563 373.296875 L 184.011719 374.582031 L 184.839844 376.203125 Z M 185.125 378 "/>
<path style=" stroke:none;fill-rule:nonzero;fill:rgb(80.392157%,58.431373%,4.705882%);fill-opacity:1;" d="M 204.507813 358.617188 L 204.222656 360.414063 L 203.398438 362.035156 L 202.109375 363.320313 L 200.488281 364.144531 L 198.691406 364.429688 L 196.894531 364.144531 L 195.273438 363.320313 L 193.988281 362.035156 L 193.160156 360.414063 L 192.875 358.617188 L 193.160156 356.816406 L 193.988281 355.195313 L 195.273438 353.910156 L 196.894531 353.085938 L 198.691406 352.800781 L 200.488281 353.085938 L 202.109375 353.910156 L 203.398438 355.195313 L 204.222656 356.816406 Z M 204.507813 358.617188 "/>
<path style=" stroke:none;fill-rule:nonzero;fill:rgb(80.392157%,58.431373%,4.705882%);fill-opacity:1;" d="M 181.246094 412.890625 L 180.960938 414.6875 L 180.136719 416.308594 L 178.847656 417.597656 L 177.226563 418.421875 L 175.429688 418.707031 L 173.632813 418.421875 L 172.011719 417.597656 L 170.726563 416.308594 L 169.898438 414.6875 L 169.617188 412.890625 L 169.898438 411.09375 L 170.726563 409.472656 L 172.011719 408.1875 L 173.632813 407.363281 L 175.429688 407.078125 L 177.226563 407.363281 L 178.847656 408.1875 L 180.136719 409.472656 L 180.960938 411.09375 Z M 181.246094 412.890625 "/>
<path style=" stroke:none;fill-rule:nonzero;fill:rgb(80.392157%,58.431373%,4.705882%);fill-opacity:1;" d="M 223.890625 300.460938 L 223.609375 302.257813 L 222.78125 303.878906 L 221.496094 305.167969 L 219.875 305.992188 L 218.078125 306.277344 L 216.28125 305.992188 L 214.660156 305.167969 L 213.371094 303.878906 L 212.546875 302.257813 L 212.261719 300.460938 L 212.546875 298.664063 L 213.371094 297.042969 L 214.660156 295.757813 L 216.28125 294.929688 L 218.078125 294.644531 L 219.875 294.929688 L 221.496094 295.757813 L 222.78125 297.042969 L 223.609375 298.664063 Z M 223.890625 300.460938 "/>
<path style=" stroke:none;fill-rule:nonzero;fill:rgb(80.392157%,58.431373%,4.705882%);fill-opacity:1;" d="M 165.738281 362.492188 L 165.453125 364.289063 L 164.628906 365.910156 L 163.339844 367.195313 L 161.71875 368.023438 L 159.921875 368.308594 L 158.125 368.023438 L 156.503906 367.195313 L 155.21875 365.910156 L 154.390625 364.289063 L 154.109375 362.492188 L 154.390625 360.695313 L 154.847656 359.800781 L 160.492188 357.457031 L 162.476563 357.347656 L 163.339844 357.789063 L 164.628906 359.074219 L 165.453125 360.695313 Z M 165.738281 362.492188 "/>
<path style=" stroke:none;fill-rule:nonzero;fill:rgb(80.392157%,58.431373%,4.705882%);fill-opacity:1;" d="M 177.371094 172.523438 L 177.085938 174.320313 L 176.257813 175.941406 L 174.972656 177.226563 L 173.351563 178.054688 L 171.554688 178.339844 L 169.757813 178.054688 L 168.136719 177.226563 L 166.847656 175.941406 L 166.023438 174.320313 L 165.738281 172.523438 L 165.976563 171.027344 L 170.480469 169.527344 L 170.492188 169.949219 L 171.554688 169.839844 L 173.589844 168.316406 L 173.902344 167.273438 L 174.972656 167.816406 L 176.257813 169.105469 L 177.085938 170.726563 Z M 177.371094 172.523438 "/>
<path style=" stroke:none;fill-rule:nonzero;fill:rgb(80.392157%,58.431373%,4.705882%);fill-opacity:1;" d="M 224.925781 289.886719 L 223.75 290.484375 L 221.953125 290.769531 L 220.15625 290.484375 L 218.535156 289.660156 L 217.25 288.371094 L 216.421875 286.75 L 216.136719 284.953125 L 216.421875 283.15625 L 217.25 281.535156 L 218.535156 280.25 L 220.925781 279.300781 L 222.984375 284.039063 L 223.773438 285.027344 Z M 224.925781 289.886719 "/>
<path style=" stroke:none;fill-rule:nonzero;fill:rgb(80.392157%,58.431373%,4.705882%);fill-opacity:1;" d="M 185.125 242.308594 L 184.839844 244.105469 L 184.011719 245.726563 L 182.726563 247.011719 L 181.105469 247.839844 L 179.308594 248.125 L 177.511719 247.839844 L 175.890625 247.011719 L 174.601563 245.726563 L 173.777344 244.105469 L 173.492188 242.308594 L 173.679688 241.125 L 178.0625 241.875 L 182.921875 243.167969 Z M 174.125 239.832031 L 174.601563 238.890625 L 175.890625 237.601563 L 177.511719 236.777344 L 179.308594 236.492188 L 180.691406 236.710938 L 180.578125 237.003906 L 174.761719 240.109375 Z M 174.125 239.832031 "/>
<path style=" stroke:none;fill-rule:nonzero;fill:rgb(80.392157%,58.431373%,4.705882%);fill-opacity:1;" d="M 123.519531 496.007813 L 121.613281 495.136719 L 120.324219 493.847656 L 119.5 492.226563 L 119.214844 490.429688 L 119.5 488.632813 L 120.324219 487.011719 L 121.613281 485.726563 L 123.234375 484.898438 L 125.03125 484.617188 L 126.828125 484.898438 L 128.449219 485.726563 L 129.984375 487.503906 L 129.414063 488.195313 L 126.714844 489.746094 L 124.039063 490.597656 L 123.132813 494.289063 L 123.664063 495.292969 Z M 123.519531 496.007813 "/>
<path style=" stroke:none;fill-rule:nonzero;fill:rgb(80.392157%,58.431373%,4.705882%);fill-opacity:1;" d="M 161.863281 486.554688 L 161.578125 488.351563 L 160.554688 490.167969 L 158.269531 489.722656 L 157.554688 489.058594 L 156.527344 486.851563 L 154.683594 485.4375 L 153.613281 485.542969 L 152.417969 486.300781 L 151.738281 486.164063 L 150.507813 484.796875 L 151.339844 483.136719 L 152.628906 481.847656 L 154.25 481.023438 L 156.046875 480.738281 L 157.84375 481.023438 L 159.464844 481.847656 L 160.75 483.136719 L 161.578125 484.757813 Z M 161.863281 486.554688 "/>
<path style=" stroke:none;fill-rule:nonzero;fill:rgb(80.392157%,58.431373%,4.705882%);fill-opacity:1;" d="M 166.011719 438.296875 L 166.847656 436.613281 L 168.136719 435.324219 L 169.757813 434.5 L 171.554688 434.214844 L 173.351563 434.5 L 174.972656 435.324219 L 176.257813 436.613281 L 177.101563 438.347656 L 176.445313 439.273438 L 174.058594 439.917969 L 170.558594 439.851563 L 166.820313 439 Z M 166.011719 438.296875 "/>
<path style=" stroke:none;fill-rule:nonzero;fill:rgb(80.392157%,58.431373%,4.705882%);fill-opacity:1;" d="M 169.886719 472.75 L 169.617188 471.046875 L 169.898438 469.25 L 170.726563 467.628906 L 172.011719 466.339844 L 173.632813 465.515625 L 175.429688 465.230469 L 177.226563 465.515625 L 178.847656 466.339844 L 180.136719 467.628906 L 180.917969 469.164063 L 176.207031 469.78125 L 174.339844 470.335938 Z M 169.886719 472.75 "/>
<path style=" stroke:none;fill-rule:nonzero;fill:rgb(80.392157%,58.431373%,4.705882%);fill-opacity:1;" d="M 208.886719 251.386719 L 206.445313 252 L 204.648438 251.714844 L 203.027344 250.890625 L 201.742188 249.601563 L 200.914063 247.980469 L 200.628906 246.183594 L 201.222656 243.789063 L 206.488281 246.65625 Z M 208.886719 251.386719 "/>
<path style=" stroke:none;fill-rule:nonzero;fill:rgb(80.392157%,58.431373%,4.705882%);fill-opacity:1;" d="M 169.675781 439.652344 L 169.898438 438.234375 L 170.726563 436.613281 L 172.011719 435.324219 L 173.632813 434.5 L 175.429688 434.214844 L 177.226563 434.5 L 178.527344 435.160156 L 177.398438 436.808594 L 177.039063 438.671875 L 176.445313 439.273438 L 174.058594 439.917969 Z M 169.675781 439.652344 "/>
<path style=" stroke:none;fill-rule:nonzero;fill:rgb(80.392157%,58.431373%,4.705882%);fill-opacity:1;" d="M 146.980469 429.808594 L 147.367188 429.054688 L 148.539063 428.378906 L 150.066406 428.890625 L 152.765625 427.832031 L 153.085938 427.097656 L 152.808594 426.597656 L 151.53125 426.5625 L 152.167969 426.460938 L 153.964844 426.746094 L 155.585938 427.570313 L 157.15625 429.414063 L 155.65625 429.589844 L 149.269531 432.308594 L 149.113281 432.746094 L 147.203125 431.632813 Z M 146.980469 429.808594 "/>
</g>
</svg>
