<?xml version="1.0" encoding="UTF-8"?>
<svg xmlns="http://www.w3.org/2000/svg" xmlns:xlink="http://www.w3.org/1999/xlink" width="378pt" height="504pt" viewBox="0 0 378 504" version="1.1">
<g id="data">
<rect x="0" y="0" width="378" height="504" style="fill:rgb(100%,100%,100%);fill-opacity:1;stroke:none;"/>
<path style=" stroke:none;fill-rule:nonzero;fill:rgb(100%,100%,100%);fill-opacity:1;" d="M 53.308594 504 L 324.691406 504 L 324.691406 0 L 53.308594 0 Z M 53.308594 504 "/>
<path style=" stroke:none;fill-rule:nonzero;fill:rgb(22.745098%,53.333333%,16.078431%);fill-opacity:1;" d="M 212.6875 173.261719 L 211.785156 173.699219 L 209.707031 175.398438 L 208.074219 177.53125 L 207.011719 179.859375 L 206.511719 182.105469 L 206.292969 185.652344 L 206.417969 193.894531 L 206.226563 194.742188 L 205.027344 196.898438 L 204.277344 197.492188 L 202.570313 199.660156 L 200.214844 200.671875 L 198.140625 202.167969 L 196.085938 204.621094 L 194.816406 207.414063 L 192.210938 208.789063 L 190.117188 210.671875 L 188.015625 214.179688 L 187.257813 218.070313 L 187.558594 220.605469 L 185.519531 221.085938 L 182.847656 221.226563 L 177.804688 225.21875 L 178.117188 225.714844 L 179.84375 225.195313 L 184.609375 222.886719 L 186.457031 221.386719 L 187.289063 221.316406 L 187.71875 221.449219 L 188.925781 224.3125 L 188.976563 224.378906 L 188.898438 224.691406 L 189.238281 225.953125 L 190.894531 226.824219 L 192.296875 228.605469 L 193.84375 229.878906 L 192.117188 231.570313 L 189.460938 232.730469 L 188.34375 232.882813 L 187.070313 232.078125 L 185.40625 232.042969 L 181.046875 235.800781 L 180.578125 237.003906 L 174.761719 240.109375 L 170.214844 238.117188 L 166.480469 238.003906 L 166.738281 239.222656 L 168.246094 240.195313 L 178.0625 241.875 L 182.921875 243.167969 L 186.398438 241.730469 L 187.519531 239.417969 L 188.617188 238.355469 L 189.539063 238.171875 L 193.183594 238.5 L 199.339844 242.761719 L 202.570313 244.523438 L 202.570313 250.0625 L 201.902344 253.9375 L 202.644531 258.058594 L 203.839844 260.609375 L 205.519531 262.707031 L 207.746094 264.433594 L 210.324219 265.570313 L 208.117188 268.390625 L 206.898438 271.621094 L 206.6875 275.070313 L 207.492188 278.429688 L 208.640625 280.578125 L 210.117188 282.351563 L 212.019531 283.867188 L 214.199219 284.953125 L 215.90625 287.125 L 218.078125 288.832031 L 219.28125 291.515625 L 221.027344 293.722656 L 223.253906 295.445313 L 225.832031 296.585938 L 226.96875 299.160156 L 228.78125 301.476563 L 231.007813 303.199219 L 233.585938 304.339844 L 233.839844 306.765625 L 234.546875 308.96875 L 235.746094 311.089844 L 237.363281 312.917969 L 239.660156 314.558594 L 242.289063 315.59375 L 246.464844 316.113281 L 249.09375 315.96875 L 250.800781 318.140625 L 252.96875 319.847656 L 252.421875 322.070313 L 252.316406 324.234375 L 253.378906 329.84375 L 254.71875 332.847656 L 256.847656 335.355469 L 256.574219 339.035156 L 257.46875 342.617188 L 257.546875 342.753906 L 257.507813 342.753906 L 256.035156 341.773438 L 253.664063 338.65625 L 252.601563 338.082031 L 245.550781 339.511719 L 244.589844 338.644531 L 243.40625 338.558594 L 241.210938 339.871094 L 241.886719 340.445313 L 246.324219 340.394531 L 249.617188 339.34375 L 251.976563 339.082031 L 254.382813 342.558594 L 260.535156 347.621094 L 260.722656 347.726563 L 260.722656 350.863281 L 259.757813 353.101563 L 259.277344 355.492188 L 259.625 359.574219 L 260.382813 361.621094 L 261.511719 363.488281 L 264.601563 366.371094 L 265.070313 368.988281 L 264.953125 369.09375 L 261.394531 373.164063 L 260.601563 374.816406 L 262.84375 374.3125 L 264.9375 375.519531 L 266.9375 378.226563 L 270.21875 378.804688 L 270.625 378.746094 L 271.742188 377.054688 L 272.078125 377.234375 L 274.183594 377.816406 L 279.980469 378.664063 L 283.984375 378 L 286.902344 378.3125 L 289.925781 377.851563 L 293.050781 376.414063 L 295.617188 374.125 L 295.308594 377.292969 L 295.875 380.429688 L 297.273438 383.292969 L 299.492188 385.753906 L 296.34375 387.445313 L 293.929688 389.90625 L 292.1875 393.457031 L 291.738281 397.382813 L 289.132813 399.660156 L 287.308594 402.601563 L 286.5625 405.058594 L 286.378906 407.746094 L 286.820313 410.40625 L 287.863281 412.890625 L 285.769531 411.402344 L 283.527344 410.445313 L 281.136719 409.976563 L 278.570313 410.03125 L 275.246094 410.996094 L 272.355469 412.890625 L 268.675781 412.367188 L 265.019531 413.027344 L 262.171875 414.5 L 259.835938 416.695313 L 258.238281 419.324219 L 257.40625 422.15625 L 257.3125 425.105469 L 257.964844 427.984375 L 259.394531 430.710938 L 261.617188 433.179688 L 264.007813 434.851563 L 266.738281 435.878906 L 264.054688 435.96875 L 261.34375 436.722656 L 258.894531 438.101563 L 256.847656 440.03125 L 253.363281 440.847656 L 250.394531 442.601563 L 248.441406 444.628906 L 247.035156 447.0625 L 246.25 449.765625 L 246.140625 452.578125 L 243.507813 449.492188 L 241.339844 447.785156 L 240.929688 445.539063 L 240.148438 443.53125 L 238.933594 441.601563 L 237.460938 440.03125 L 238.0625 437.402344 L 238.027344 434.578125 L 237.3125 431.84375 L 235.960938 429.363281 L 233.949219 427.199219 L 231.460938 425.613281 L 228.777344 424.726563 L 225.832031 424.523438 L 225.53125 421.898438 L 228.238281 423.5625 L 231.296875 424.429688 L 234.867188 424.453125 L 237.976563 423.664063 L 240.125 422.507813 L 241.898438 421.023438 L 243.414063 419.113281 L 244.496094 416.925781 L 245.878906 409.269531 L 245.628906 406.609375 L 244.777344 403.933594 L 243.363281 401.5 L 241.304688 399.394531 L 238.902344 397.925781 L 235.976563 396.964844 L 232.777344 396.738281 L 229.515625 397.441406 L 226.691406 398.960938 L 224.390625 401.195313 L 222.988281 403.503906 L 222.160156 406.070313 L 221.953125 409.015625 L 221.300781 412.25 L 221.582031 415.535156 L 218.179688 413.59375 L 214.199219 412.890625 L 211.847656 410.746094 L 208.996094 409.316406 L 205.742188 408.710938 L 202.570313 409.015625 L 200.683594 406.667969 L 197.6875 404.335938 L 195.683594 403.1875 L 193.363281 402.433594 L 189.527344 402.261719 L 185.960938 403.296875 L 181.660156 406.246094 L 179.308594 409.015625 L 177.085938 406.527344 L 174.363281 404.828125 L 171.15625 403.917969 L 167.949219 403.933594 L 165.582031 404.535156 L 163.394531 405.617188 L 161.480469 407.132813 L 159.921875 409.015625 L 157.484375 409.132813 L 155.003906 409.800781 L 152.835938 410.925781 L 150.863281 412.570313 L 148.980469 415.167969 L 147.878906 418.179688 L 147.644531 421.382813 L 148.292969 424.523438 L 146.296875 423.636719 L 144.171875 423.136719 L 141.988281 423.042969 L 139.828125 423.359375 L 137.871094 424.050781 L 136.765625 424.277344 L 136.675781 424.703125 L 135.769531 425.238281 L 134.128906 426.679688 L 133.320313 427.714844 L 132.699219 427.414063 L 132.496094 425.085938 L 131.34375 422.101563 L 129.421875 419.542969 L 126.878906 417.605469 L 129.617188 418.210938 L 132.546875 418.121094 L 135.246094 417.355469 L 137.679688 415.964844 L 140.539063 412.890625 L 143.550781 411.484375 L 146.039063 409.277344 L 147.40625 407.269531 L 148.292969 405.136719 L 150.679688 402.195313 L 151.890625 399.136719 L 151.992188 398.398438 L 152.136719 398.207031 L 153.054688 396.195313 L 154.199219 391.746094 L 153.734375 388.820313 L 152.566406 386.542969 L 153.179688 384.597656 L 154.652344 381.796875 L 152.269531 378.203125 L 152.683594 374.835938 L 153.175781 374.082031 L 152.804688 373.207031 L 150.203125 373.105469 L 148.453125 373.53125 L 148.6875 373.136719 L 149.425781 371.078125 L 149.773438 368.792969 L 149.679688 366.613281 L 149.179688 364.488281 L 148.789063 363.609375 L 149.964844 362.320313 L 151.972656 362.109375 L 155.457031 360.523438 L 157.265625 358.824219 L 160.492188 357.457031 L 163.066406 357.316406 L 163.824219 357.78125 L 166.230469 358.628906 L 168.765625 358.929688 L 173.21875 358.496094 L 175.464844 357.9375 L 177.058594 357.148438 L 179.910156 359.441406 L 180.433594 358.429688 L 178.988281 355.816406 L 180.046875 354.929688 L 181.527344 352.757813 L 181.914063 353.875 L 182.898438 354.332031 L 184.078125 356.789063 L 185.613281 357.902344 L 188.359375 357.621094 L 190.335938 355.148438 L 189.90625 355.050781 L 188.667969 355.527344 L 188.3125 355.957031 L 186.378906 356.386719 L 183.8125 354.640625 L 182.265625 351.292969 L 183.066406 348.652344 L 183.347656 345.109375 L 183.289063 340.402344 L 183.371094 340.257813 L 185.429688 339.015625 L 185.140625 338.578125 L 183.269531 338.488281 L 183.183594 331.476563 L 183.851563 329.570313 L 184.695313 329.191406 L 187.28125 323.421875 L 187.71875 320.933594 L 187.855469 317.484375 L 184.742188 320.527344 L 183.574219 321.140625 L 183.164063 320.035156 L 180.746094 317.050781 L 176.144531 313.457031 L 173.917969 312.535156 L 172.363281 312.242188 L 172.289063 311.832031 L 171.554688 310.753906 L 171.554688 308.214844 L 172.21875 304.339844 L 171.554688 300.460938 L 171.867188 297.929688 L 171.621094 295.390625 L 171.335938 294.484375 L 174.074219 288.722656 L 176.464844 286.417969 L 178.757813 285.980469 L 180.191406 286.804688 L 181.015625 286.710938 L 182.933594 286.238281 L 183.03125 285.160156 L 182.34375 284.746094 L 180.035156 285.351563 L 174.65625 284.980469 L 172.566406 284.292969 L 169.453125 284.03125 L 168.226563 288.992188 L 167.652344 288.90625 L 166.5 287.679688 L 164.175781 286.144531 L 161.429688 285.175781 L 158.675781 284.8125 L 156.046875 284.953125 L 152.746094 284.65625 L 150.351563 285.035156 L 148.085938 285.902344 L 146.050781 287.21875 L 144.414063 288.832031 L 142.707031 286.660156 L 140.539063 284.953125 L 140.539063 281.078125 L 141.0625 277.914063 L 140.765625 274.976563 L 139.289063 271.429688 L 138.308594 270.316406 L 138.601563 268.871094 L 140.917969 265.085938 L 143.644531 263.800781 L 144.390625 261.886719 L 144.195313 260.621094 L 142.601563 256.71875 L 139.777344 254.832031 L 137.378906 252.511719 L 138.6875 242.234375 L 140.710938 241.59375 L 142.886719 242.511719 L 146.15625 243.175781 L 148.300781 243.253906 L 141.261719 240.453125 L 140.441406 240.5625 L 139.386719 240.085938 L 139.183594 238.121094 L 139.414063 236.460938 L 140.238281 234.648438 L 139.292969 234.9375 L 138.320313 240.257813 L 136.15625 245.152344 L 135.023438 244.945313 L 131.566406 242.222656 L 130.757813 242.5 L 130.269531 243.347656 L 130.09375 244.535156 L 130.664063 246.308594 L 130.519531 246.613281 L 128.257813 245.464844 L 127.46875 243.074219 L 128.453125 238.691406 L 131.230469 234.078125 L 136.953125 229.316406 L 138.316406 227.601563 L 135.558594 229.292969 L 130.363281 233.964844 L 126.449219 238.917969 L 125.671875 238.734375 L 125.460938 238.363281 L 126.1875 249.699219 L 124.449219 251.558594 L 123.367188 254.191406 L 121.183594 263.964844 L 122.0625 266.289063 L 120.679688 268.164063 L 119.945313 268.597656 L 117.308594 268.863281 L 117.417969 266.816406 L 116.910156 262.976563 L 117.226563 262.640625 L 117.992188 256.269531 L 120.664063 249.058594 L 119.164063 246.890625 L 119.359375 242.367188 L 121.945313 238.054688 L 122.191406 237.09375 L 120.824219 237.742188 L 119.636719 239.75 L 119.449219 238.929688 L 123.929688 230.9375 L 123.671875 230.734375 L 122.386719 231.796875 L 121.808594 231.777344 L 122.070313 227.40625 L 122.761719 224.691406 L 124.160156 221.96875 L 126.660156 220.210938 L 128.792969 220.179688 L 129.328125 220.484375 L 131.4375 220.320313 L 134.28125 217.339844 L 135.300781 215.007813 L 134.855469 215.347656 L 134.105469 217.117188 L 131.898438 219.546875 L 131.125 219.644531 L 127.28125 218.265625 L 127.882813 216.460938 L 128.195313 216.742188 L 128.945313 216.671875 L 131.070313 215.113281 L 129.507813 214.882813 L 128.550781 215.441406 L 127.980469 214.949219 L 127.875 213.785156 L 129.65625 210.6875 L 134.21875 205.03125 L 134.59375 204.003906 L 123.476563 215.398438 L 120.675781 217.269531 L 120.230469 216.390625 L 115.878906 214.433594 L 114.8125 213.664063 L 113.113281 211.414063 L 113.132813 210.632813 L 113.96875 210.082031 L 116.167969 209.980469 L 120.585938 209.09375 L 123.988281 209.15625 L 124.257813 209.050781 L 124.117188 208.789063 L 119.15625 207.757813 L 117.03125 209.015625 L 115.34375 209.1875 L 109.285156 208.59375 L 109.859375 205.390625 L 114.792969 204.496094 L 115.882813 205.636719 L 117.070313 206.34375 L 118.480469 204.378906 L 117.316406 203.507813 L 117.253906 202.640625 L 119.675781 202.136719 L 120.503906 202.316406 L 121.824219 201.292969 L 121.664063 200.792969 L 120.140625 199.953125 L 116.804688 200.417969 L 115.804688 199.949219 L 118.253906 195.210938 L 118.835938 194.789063 L 120.441406 194.839844 L 120.773438 195.527344 L 122.574219 196.710938 L 124.417969 196.351563 L 125.527344 195.796875 L 122.886719 196.148438 L 119.445313 193.175781 L 119.640625 191.949219 L 120.992188 190.507813 L 122.769531 190.464844 L 125.425781 191.839844 L 128.199219 191.296875 L 129.800781 192.636719 L 131.785156 193.8125 L 134.464844 194.683594 L 137.144531 194.890625 L 140.414063 194.289063 L 143.484375 192.714844 L 145.878906 190.40625 L 147.523438 187.519531 L 148.945313 180.785156 L 148.839844 178.625 L 148.292969 176.398438 L 148.292969 172.523438 L 148.960938 168.941406 L 148.554688 165.570313 L 152.167969 164.769531 L 154.921875 164.902344 L 158.535156 164.289063 L 161.398438 162.953125 L 162.429688 162.066406 L 164.042969 162.292969 L 164.460938 162.1875 L 165.191406 163.625 L 165.378906 163.835938 L 162.722656 166.96875 L 162.175781 167.183594 L 161.726563 166.894531 L 161.859375 165.949219 L 161.53125 165.507813 L 159.984375 165.785156 L 155.320313 167.769531 L 152.441406 170.8125 L 151.949219 171.945313 L 152.140625 172.144531 L 156.390625 168.453125 L 157.75 167.980469 L 160.300781 168.324219 L 161.058594 169.320313 L 157.109375 173.804688 L 156.367188 175.339844 L 156.707031 175.816406 L 157.367188 175.984375 L 158.261719 175.542969 L 161.140625 173.015625 L 167.808594 170.273438 L 170.480469 169.527344 L 170.492188 169.949219 L 171.554688 169.839844 L 173.292969 168.539063 L 177.179688 168.808594 L 179.308594 168.644531 L 183.058594 169.3125 L 187.0625 168.644531 L 189.285156 169.195313 L 191.574219 169.292969 L 194.816406 168.644531 L 198.417969 170.84375 L 202.570313 171.609375 L 206.71875 170.84375 L 210.136719 168.761719 L 210.3125 168.835938 L 212.550781 172.800781 Z M 190.9375 300.460938 L 189.246094 302.199219 L 187.894531 304.363281 L 187.046875 306.769531 L 186.746094 309.304688 L 187.125 314.148438 L 187.628906 316.40625 L 188.902344 319.070313 L 190.710938 321.242188 L 192.542969 322.648438 L 194.621094 323.667969 L 196.859375 324.253906 L 199.296875 324.378906 L 206.984375 323.117188 L 209.519531 321.894531 L 211.683594 320.097656 L 213.289063 317.945313 L 214.972656 314.351563 L 215.609375 312.003906 L 215.742188 309.578125 L 215.371094 307.175781 L 214.199219 304.339844 L 213.382813 300.855469 L 212.238281 298.707031 L 210.578125 296.757813 L 208.308594 295.089844 L 205.832031 294.050781 L 203.179688 293.605469 L 200.496094 293.785156 L 198.042969 294.523438 L 195.917969 295.707031 L 192.824219 298.117188 Z M 148.519531 363.003906 L 148.292969 362.492188 L 149.203125 362.398438 Z M 107.234375 254.171875 L 104.398438 253.796875 L 103.144531 253.863281 L 104.988281 247.472656 L 102.980469 247.105469 L 101.464844 249.738281 L 99.988281 251.246094 L 99.625 251.425781 L 98.632813 250.644531 L 99.023438 248.875 L 99.121094 248.5625 L 100.21875 247.230469 L 101.25 244.914063 L 101.53125 243.507813 L 102.445313 243.214844 L 103.882813 243.558594 L 106.871094 241.457031 L 108.433594 240.808594 L 108.667969 241.335938 L 108.480469 243.175781 L 108.777344 246.292969 L 109.046875 247.320313 L 109.929688 248.226563 L 110.335938 251.851563 L 108.992188 253.109375 Z M 102.898438 224.070313 L 102.390625 223.554688 L 102.589844 223.230469 L 103.304688 222.808594 L 103.460938 223.023438 Z M 106.042969 214.773438 L 107.015625 213.785156 L 108.214844 211.957031 L 108.96875 210.125 L 110.03125 209.789063 L 110.59375 209.929688 L 111.976563 210.636719 L 113.289063 212.988281 L 113.785156 214.699219 L 116.457031 215.945313 L 117.929688 216.300781 L 121.195313 219.144531 L 120.902344 221.207031 L 119.445313 223.339844 L 116.335938 225.03125 L 115.453125 224.539063 L 116.136719 223.339844 L 115.425781 223.117188 L 112.109375 224.96875 L 106.027344 226.585938 L 104.691406 226.273438 L 103.734375 224.277344 L 103.851563 223.371094 L 104.191406 223.09375 L 105.628906 223.050781 L 106.039063 223.617188 L 106.972656 224.074219 L 112.214844 222.164063 L 112.035156 221.589844 L 109.863281 222.445313 L 108.199219 222.488281 L 107.824219 221.539063 L 109.386719 219.472656 L 112.601563 217.957031 L 112.90625 216.820313 L 112.554688 216.699219 L 109.90625 217.519531 Z M 109.628906 200.050781 L 109.605469 199.902344 L 109.054688 198.769531 L 110.578125 197.179688 L 111.398438 197.769531 L 111.5 198.265625 L 111.128906 199.855469 L 110.160156 200.433594 Z M 107.960938 196.515625 L 107.820313 196.226563 L 105.203125 193.609375 L 104.527344 193.273438 L 105.34375 192.390625 L 106.722656 192.214844 L 107.992188 192.835938 L 108.445313 193.703125 L 108.09375 196.351563 Z M 101.96875 192.007813 L 101.769531 191.90625 L 102.082031 191.511719 L 102.835938 191.832031 Z M 105.28125 184.386719 L 105.417969 182.535156 L 104.925781 180.386719 L 105.464844 179.976563 L 107.179688 181.675781 L 107.667969 181.742188 L 107.789063 181.460938 L 103.804688 177.546875 L 103.523438 177.007813 L 101.976563 175.125 L 100.070313 173.609375 L 98.207031 172.679688 L 98.328125 172.476563 L 101.574219 172.140625 L 103.472656 171.289063 L 104.785156 172.40625 L 105.550781 172.625 L 106.867188 171.878906 L 106.660156 169.054688 L 107.675781 168.121094 L 109.21875 165.320313 L 109.585938 165.773438 L 109.703125 167.589844 L 110.558594 170.28125 L 112.039063 172.6875 L 112.316406 172.957031 L 112.300781 173.941406 L 111.832031 177.386719 L 112.054688 181.640625 L 117.5 184.859375 L 120.773438 183.445313 L 123.167969 184.417969 L 122.46875 186.839844 L 119.148438 190.25 L 118.089844 190.683594 L 116.035156 193.449219 L 114.023438 194.042969 L 113.570313 192.609375 L 115.183594 189.4375 L 113.980469 187.324219 L 112.75 189.558594 L 110.542969 187.414063 L 107.277344 187.777344 Z M 114.296875 174.828125 L 115.824219 175.707031 L 115.367188 179.941406 L 114.945313 180.566406 L 113.875 180.957031 L 113.53125 180.855469 L 113.277344 179.863281 L 113.640625 176.351563 Z M 118.867188 176.800781 L 119.320313 176.929688 L 122.144531 177.027344 L 125.03125 176.398438 L 123.921875 179.417969 L 120.484375 180.664063 L 119.382813 179.570313 Z M 124.046875 185.015625 L 124.582031 186.925781 L 126.554688 189.921875 L 127.542969 190.746094 L 126.691406 190.847656 L 125.089844 190.582031 L 122.863281 188.511719 L 123.117188 185.351563 Z M 148.292969 474.921875 L 148.753906 477.347656 L 146.714844 475.902344 L 144.414063 474.921875 Z M 141.183594 319.1875 L 140.574219 316.152344 L 142.300781 315.023438 L 142.683594 314.28125 L 142.707031 314.261719 L 144.414063 312.09375 L 148.292969 312.09375 L 145.988281 313.203125 L 143.886719 314.878906 L 142.296875 316.882813 Z M 116.207031 183.113281 L 115.0625 182.589844 L 114.59375 181.914063 L 114.695313 181.441406 L 115.34375 181.214844 L 116.664063 181.757813 L 116.886719 182.648438 Z M 108.136719 218.074219 L 107.207031 217.691406 L 106.753906 217.160156 L 107.335938 216.378906 L 108.085938 216.507813 L 109.105469 217.519531 L 109.070313 217.820313 Z M 123.378906 222.417969 L 122.582031 222.078125 L 123.082031 221.191406 L 124.476563 221.046875 Z M 121.453125 227.109375 L 121.152344 226.972656 L 120.984375 225.621094 L 121.59375 224.800781 L 122.367188 224.816406 L 121.953125 226.621094 Z M 120.902344 230.566406 L 120.316406 229.273438 L 120.976563 227.386719 L 121.816406 227.683594 Z M 118.503906 231.671875 L 118.15625 231.449219 L 118.535156 230.824219 L 119.917969 230.164063 L 119.953125 231.257813 Z M 111.886719 247.292969 L 110.550781 247.070313 L 109.476563 246.144531 L 109.292969 243.285156 L 109.585938 242.089844 L 112.5625 237.15625 L 116.605469 233.660156 L 119.195313 232.023438 L 119.632813 233.128906 L 119.449219 233.945313 L 118.015625 235.730469 L 113.761719 243.328125 Z M 106.976563 236.632813 L 105.476563 236.191406 L 106.28125 234.464844 L 107.839844 232.910156 L 108.882813 232.734375 L 107.535156 236.1875 Z M 134.8125 251.347656 L 132.589844 248.835938 L 130.84375 244.566406 L 130.707031 243.464844 L 131.460938 242.613281 L 133.71875 244.574219 L 134.707031 246.3125 L 135.339844 249.003906 L 135.222656 250.96875 Z M 130.613281 263.773438 L 129.152344 263.667969 L 126.582031 261.613281 L 125.375 256.128906 L 125.988281 253.21875 L 128.179688 251.246094 L 129.539063 251.441406 L 131.390625 253.015625 L 132.984375 258.382813 L 133.019531 262.765625 L 132.308594 263.453125 Z M 130.613281 263.773438 "/>
<path style=" stroke:none;fill-rule:nonzero;fill:rgb(80.392157%,58.431373%,4.705882%);fill-opacity:1;" d="M 216.136719 451.660156 L 215.855469 453.457031 L 215.027344 455.078125 L 213.742188 456.367188 L 212.121094 457.191406 L 210.324219 457.476563 L 208.527344 457.191406 L 206.90625 456.367188 L 205.617188 455.078125 L 204.792969 453.457031 L 204.507813 451.660156 L 204.792969 449.863281 L 205.617188 448.242188 L 206.90625 446.957031 L 208.527344 446.128906 L 210.324219 445.847656 L 212.121094 446.128906 L 213.742188 446.957031 L 215.027344 448.242188 L 215.855469 449.863281 Z M 216.136719 451.660156 "/>
<path style=" stroke:none;fill-rule:nonzero;fill:rgb(80.392157%,58.431373%,4.705882%);fill-opacity:1;" d="M 192.875 451.660156 L 192.59375 453.457031 L 191.765625 455.078125 L 190.480469 456.367188 L 188.859375 457.191406 L 187.0625 457.476563 L 185.265625 457.191406 L 183.644531 456.367188 L 182.355469 455.078125 L 181.53125 453.457031 L 181.246094 451.660156 L 181.53125 449.863281 L 182.355469 448.242188 L 183.644531 446.957031 L 185.265625 446.128906 L 187.0625 445.847656 L 188.859375 446.128906 L 190.480469 446.957031 L 191.765625 448.242188 L 192.59375 449.863281 Z M 192.875 451.660156 "/>
<path style=" stroke:none;fill-rule:nonzero;fill:rgb(80.392157%,58.431373%,4.705882%);fill-opacity:1;" d="M 254.90625 459.414063 L 254.625 461.210938 L 253.796875 462.832031 L 252.511719 464.121094 L 247.988281 465.054688 L 245.675781 464.121094 L 244.386719 462.832031 L 243.5625 461.210938 L 243.277344 459.414063 L 243.5625 457.617188 L 244.386719 455.996094 L 245.675781 454.710938 L 247.296875 453.882813 L 249.09375 453.601563 L 250.890625 453.882813 L 252.511719 454.710938 L 253.796875 455.996094 L 254.625 457.617188 Z M 254.90625 459.414063 "/>
<path style=" stroke:none;fill-rule:nonzero;fill:rgb(80.392157%,58.431373%,4.705882%);fill-opacity:1;" d="M 142.476563 157.015625 L 142.191406 158.8125 L 141.367188 160.433594 L 140.078125 161.71875 L 138.457031 162.546875 L 136.660156 162.832031 L 134.863281 162.546875 L 133.242188 161.71875 L 131.957031 160.433594 L 131.128906 158.8125 L 130.847656 157.015625 L 130.9375 156.429688 L 131.765625 156.140625 L 134.503906 157.136719 L 136.507813 158.589844 L 137.039063 159.417969 L 137.175781 158.679688 L 135.242188 155.121094 L 132.511719 153.042969 L 133.242188 152.3125 L 134.863281 151.484375 L 136.660156 151.199219 L 138.457031 151.484375 L 140.078125 152.3125 L 141.367188 153.597656 L 142.191406 155.21875 Z M 142.476563 157.015625 "/>
<path style=" stroke:none;fill-rule:nonzero;fill:rgb(80.392157%,58.431373%,4.705882%);fill-opacity:1;" d="M 142.476563 471.046875 L 142.191406 472.84375 L 141.367188 474.464844 L 140.078125 475.75 L 138.457031 476.578125 L 136.660156 476.863281 L 134.863281 476.578125 L 133.242188 475.75 L 131.957031 474.464844 L 131.125 472.796875 L 132.105469 472.640625 L 132.679688 471.785156 L 133.257813 469.527344 L 135.859375 467.5625 L 137.890625 465.425781 L 140.078125 466.339844 L 141.367188 467.628906 L 142.191406 469.25 Z M 142.476563 471.046875 "/>
<path style=" stroke:none;fill-rule:nonzero;fill:rgb(80.392157%,58.431373%,4.705882%);fill-opacity:1;" d="M 157.984375 482.675781 L 157.699219 484.472656 L 156.292969 486.675781 L 154.683594 485.4375 L 153.613281 485.542969 L 152.417969 486.300781 L 151.738281 486.164063 L 148.46875 482.535156 L 146.355469 482.675781 L 146.636719 480.878906 L 147.464844 479.257813 L 148.75 477.972656 L 150.371094 477.144531 L 152.167969 476.863281 L 153.964844 477.144531 L 155.585938 477.972656 L 156.875 479.257813 L 157.699219 480.878906 Z M 157.984375 482.675781 "/>
<path style=" stroke:none;fill-rule:nonzero;fill:rgb(80.392157%,58.431373%,4.705882%);fill-opacity:1;" d="M 226.511719 59.78125 L 225.371094 60.921875 L 224.078125 61.582031 L 223.632813 57.773438 L 221.078125 57.210938 L 222.089844 58.292969 L 222.21875 59.898438 L 220.292969 61.703125 L 218.738281 60.40625 L 218.746094 59.554688 L 216.808594 58.773438 L 216.136719 56.214844 L 216.316406 55.085938 L 220.695313 54.34375 L 222.421875 53.527344 L 222.960938 52.8125 L 221.535156 50.464844 L 223.75 50.683594 L 225.371094 51.511719 L 226.660156 52.796875 L 227.484375 54.417969 L 227.699219 56.234375 L 226.355469 57.007813 L 225.6875 56.476563 Z M 226.511719 59.78125 "/>
<path style=" stroke:none;fill-rule:nonzero;fill:rgb(80.392157%,58.431373%,4.705882%);fill-opacity:1;" d="M 150.230469 129.875 L 149.945313 131.675781 L 149.121094 133.296875 L 147.832031 134.582031 L 146.210938 135.40625 L 144.414063 135.691406 L 142.617188 135.40625 L 140.996094 134.582031 L 139.710938 133.296875 L 138.882813 131.675781 L 138.652344 130.21875 L 140.925781 126.128906 L 145.976563 127.269531 L 147.488281 129.277344 L 147.992188 130.773438 L 145.957031 133.847656 L 146.042969 134.238281 L 149.632813 130.886719 L 150.089844 128.976563 Z M 150.230469 129.875 "/>
<path style=" stroke:none;fill-rule:nonzero;fill:rgb(80.392157%,58.431373%,4.705882%);fill-opacity:1;" d="M 106.714844 146.523438 L 104.816406 144.925781 L 103.992188 143.304688 L 103.707031 141.507813 L 103.992188 139.710938 L 104.816406 138.089844 L 106.105469 136.804688 L 107.726563 135.976563 L 109.523438 135.691406 L 111.320313 135.976563 L 112.800781 136.730469 L 112.328125 137.878906 L 110.105469 140.078125 L 109.925781 141.289063 L 111.058594 141.910156 L 112.367188 141.523438 L 113.644531 140.4375 L 114.097656 140.800781 L 113.746094 142.269531 L 112.140625 143.671875 L 111.234375 143.917969 L 109.761719 143.558594 L 108.839844 144.542969 L 108.40625 145.765625 Z M 108.082031 147.09375 L 107.539063 146.941406 L 108.015625 146.824219 Z M 108.082031 147.09375 "/>
<path style=" stroke:none;fill-rule:nonzero;fill:rgb(80.392157%,58.431373%,4.705882%);fill-opacity:1;" d="M 154.027344 130.375 L 153.824219 131.675781 L 152.996094 133.296875 L 151.710938 134.582031 L 150.089844 135.40625 L 148.292969 135.691406 L 146.496094 135.40625 L 144.875 134.582031 L 143.585938 133.296875 L 142.761719 131.675781 L 142.476563 129.875 L 142.761719 128.078125 L 143.464844 126.703125 L 145.976563 127.269531 L 147.488281 129.277344 L 147.992188 130.773438 L 145.957031 133.847656 L 146.042969 134.238281 L 149.632813 130.886719 L 149.902344 129.097656 L 150.597656 128.644531 L 152.578125 129.367188 L 153.359375 129.816406 L 153.609375 130.328125 Z M 154.027344 130.375 "/>
<path style=" stroke:none;fill-rule:nonzero;fill:rgb(80.392157%,58.431373%,4.705882%);fill-opacity:1;" d="M 191.269531 114.40625 L 190.480469 115.195313 L 189.15625 115.871094 L 186.777344 113.90625 L 184.832031 114.03125 L 183.105469 114.65625 L 182.355469 113.910156 L 181.53125 112.289063 L 181.246094 110.492188 L 181.53125 108.695313 L 182.355469 107.074219 L 183.820313 105.699219 L 184.519531 106.003906 L 186.230469 108.273438 L 187.324219 111.371094 L 189.425781 112.382813 L 190.734375 113.441406 Z M 191.269531 114.40625 "/>
<path style=" stroke:none;fill-rule:nonzero;fill:rgb(80.392157%,58.431373%,4.705882%);fill-opacity:1;" d="M 85.121094 185.328125 L 84.183594 185.808594 L 81.714844 185.984375 L 81.515625 184.671875 L 82.046875 176.234375 L 83.4375 175.515625 L 85.28125 176.539063 L 86.578125 178.347656 L 85.882813 178.945313 L 85.144531 178.476563 Z M 83.148438 174.582031 L 84.183594 174.746094 L 85.902344 175.671875 L 84.546875 175.601563 Z M 83.148438 174.582031 "/>
<path style=" stroke:none;fill-rule:nonzero;fill:rgb(80.392157%,58.431373%,4.705882%);fill-opacity:1;" d="M 138.648438 378.3125 L 138.882813 376.203125 L 139.710938 374.582031 L 140.996094 373.296875 L 142.617188 372.46875 L 144.414063 372.183594 L 146.210938 372.46875 L 148.144531 373.605469 L 145.449219 374.257813 L 143.757813 375.484375 L 142.039063 378.097656 Z M 138.648438 378.3125 "/>
<path style=" stroke:none;fill-rule:nonzero;fill:rgb(80.392157%,58.431373%,4.705882%);fill-opacity:1;" d="M 95.953125 149.261719 L 95.667969 151.058594 L 94.929688 152.511719 L 94.117188 152.148438 L 92.941406 152.324219 L 92.058594 151.863281 L 91.273438 150.875 L 92.699219 149.40625 L 91.417969 144.347656 L 91.753906 143.703125 L 93.558594 144.558594 L 94.84375 145.84375 L 95.667969 147.464844 Z M 93.617188 153.90625 L 91.878906 154.800781 L 92.882813 153.957031 Z M 93.617188 153.90625 "/>
<path style=" stroke:none;fill-rule:nonzero;fill:rgb(80.392157%,58.431373%,4.705882%);fill-opacity:1;" d="M 91.515625 217.839844 L 89.652344 217.246094 L 89.414063 215.113281 L 90.1875 214.519531 L 95.1875 213.382813 L 95.671875 214.59375 L 93.804688 214.847656 L 92.019531 216.296875 Z M 91.515625 217.839844 "/>
</g>
</svg>
