<?xml version="1.0" encoding="UTF-8"?>
<svg xmlns="http://www.w3.org/2000/svg" xmlns:xlink="http://www.w3.org/1999/xlink" width="378pt" height="504pt" viewBox="0 0 378 504" version="1.1">
<g id="data">
<rect x="0" y="0" width="378" height="504" style="fill:rgb(100%,100%,100%);fill-opacity:1;stroke:none;"/>
<path style=" stroke:none;fill-rule:nonzero;fill:rgb(100%,100%,100%);fill-opacity:1;" d="M 53.308594 504 L 324.691406 504 L 324.691406 0 L 53.308594 0 Z M 53.308594 504 "/>
<path style=" stroke:none;fill-rule:nonzero;fill:rgb(22.745098%,53.333333%,16.078431%);fill-opacity:1;" d="M 291.957031 401.054688 L 295.707031 401.785156 L 299.492188 401.261719 L 297.320313 402.96875 L 295.617188 405.136719 L 293.25 403.5 L 290.550781 402.492188 Z M 214.199219 370.246094 L 216.375 370.042969 L 218.589844 369.386719 L 220.636719 368.304688 L 222.425781 366.839844 L 223.886719 365.050781 L 224.96875 363.007813 L 225.601563 360.914063 L 225.832031 358.617188 L 226.035156 360.789063 L 226.644531 362.886719 L 227.632813 364.835938 L 228.96875 366.5625 L 230.707031 368.085938 L 232.832031 369.285156 L 235.035156 369.988281 L 237.460938 370.246094 L 238.597656 372.820313 L 240.320313 375.046875 L 242.53125 376.796875 L 245.214844 378 L 246.921875 380.171875 L 249.09375 381.875 L 250.488281 385.042969 L 252.757813 387.660156 L 255.460938 389.386719 L 258.40625 390.292969 L 261.613281 390.375 L 264.601563 389.628906 L 265.042969 391.996094 L 265.964844 394.21875 L 268.476563 397.382813 L 269.65625 399.796875 L 271.261719 401.789063 L 273.160156 403.308594 L 275.328125 404.402344 L 277.679688 405.023438 L 280.109375 405.136719 L 278.636719 406.710938 L 277.417969 408.640625 L 276.640625 410.648438 L 276.230469 412.890625 L 273.710938 414.960938 L 269.964844 419.710938 L 268.851563 422.402344 L 268.34375 425.644531 L 268.476563 428.398438 L 268.167969 431.445313 L 268.625 434.339844 L 270.0625 437.464844 L 272.355469 440.03125 L 272.902344 442.78125 L 274.09375 445.320313 L 275.953125 447.589844 L 278.320313 449.320313 L 281.042969 450.40625 L 283.949219 450.777344 L 282.324219 452.582031 L 281.113281 454.6875 L 280.363281 457 L 280.109375 459.414063 L 277.9375 461.121094 L 277.042969 462.261719 L 274.789063 462.777344 L 272.597656 463.816406 L 272.15625 464.414063 L 271.980469 464.480469 L 270.050781 465.695313 L 268.96875 466.710938 L 267.402344 466.238281 L 266.183594 465.179688 L 263.453125 463.851563 L 259.351563 463.144531 L 252.96875 463.292969 L 251.296875 461.742188 L 249.46875 460.605469 L 247.335938 459.789063 L 245.214844 459.414063 L 247.164063 456.40625 L 248.105469 452.945313 L 247.949219 449.363281 L 246.703125 445.996094 L 244.691406 443.355469 L 242.164063 441.457031 L 240.191406 440.589844 L 237.460938 440.03125 L 233.625 438.640625 L 229.542969 438.664063 L 225.832031 440.03125 L 223.714844 439.101563 L 221.453125 438.613281 L 219.144531 438.578125 L 216.871094 439 L 213.101563 440.898438 L 210.324219 443.90625 L 208.203125 444.28125 L 206.070313 445.097656 L 204.140625 446.3125 L 202.570313 447.785156 L 198.808594 448.1875 L 195.480469 449.703125 L 196.117188 446.570313 L 195.875 443.386719 L 195.167969 441.191406 L 194.113281 439.285156 L 192.722656 437.613281 L 190.9375 436.152344 L 191.605469 432.277344 L 191.449219 431.378906 L 195.792969 425.3125 L 197.929688 424.472656 L 198.285156 423.78125 L 198.070313 423.238281 L 197.8125 423.082031 L 196.09375 424.355469 L 192.90625 427.300781 L 191.105469 429.375 L 190.9375 428.398438 L 193.390625 425.347656 L 194.335938 423.132813 L 194.816406 420.644531 L 197.242188 417.863281 L 198.644531 414.585938 L 199.007813 411.804688 L 198.691406 409.015625 L 199.359375 405.136719 L 198.691406 401.261719 L 198.691406 397.382813 L 202.046875 395.539063 L 204.546875 392.8125 L 206.066406 389.433594 L 206.445313 385.753906 L 208.605469 384.925781 L 210.457031 383.765625 L 212.144531 382.1875 L 213.488281 380.300781 L 214.542969 377.820313 L 214.992188 375.289063 L 214.878906 372.722656 Z M 256.847656 443.90625 L 258.863281 443.082031 L 260.789063 441.816406 L 262.429688 440.195313 L 263.714844 438.28125 L 264.601563 436.152344 L 265.066406 433.890625 L 265.074219 431.578125 L 264.625 429.308594 L 263.796875 427.289063 L 262.527344 425.359375 L 260.898438 423.71875 L 258.976563 422.429688 L 256.839844 421.550781 L 254.699219 421.121094 L 252.386719 421.113281 L 250.121094 421.558594 L 247.984375 422.449219 L 246.066406 423.742188 L 244.433594 425.375 L 243.140625 427.292969 L 242.253906 429.425781 L 241.804688 431.695313 L 241.800781 433.878906 L 242.242188 436.148438 L 243.121094 438.285156 L 244.410156 440.207031 L 245.949219 441.753906 L 247.867188 443.046875 L 250.003906 443.933594 L 252.269531 444.382813 L 254.582031 444.375 Z M 225.832031 300.460938 L 226.128906 298.429688 L 229.707031 300.460938 Z M 218.078125 284.953125 L 221.953125 284.953125 L 221.953125 288.832031 L 220.246094 286.660156 Z M 218.078125 284.953125 "/>
<path style=" stroke:none;fill-rule:nonzero;fill:rgb(80.392157%,58.431373%,4.705882%);fill-opacity:1;" d="M 231.644531 327.601563 L 231.363281 329.398438 L 230.535156 331.019531 L 229.25 332.304688 L 227.628906 333.128906 L 225.832031 333.414063 L 224.035156 333.128906 L 222.414063 332.304688 L 221.125 331.019531 L 220.300781 329.398438 L 220.015625 327.601563 L 220.300781 325.804688 L 221.125 324.183594 L 222.414063 322.894531 L 224.035156 322.070313 L 225.832031 321.785156 L 227.628906 322.070313 L 229.25 322.894531 L 230.535156 324.183594 L 231.363281 325.804688 Z M 231.644531 327.601563 "/>
<path style=" stroke:none;fill-rule:nonzero;fill:rgb(80.392157%,58.431373%,4.705882%);fill-opacity:1;" d="M 220.015625 335.355469 L 219.730469 337.152344 L 218.90625 338.773438 L 217.617188 340.058594 L 215.996094 340.882813 L 214.199219 341.167969 L 212.402344 340.882813 L 210.78125 340.058594 L 209.496094 338.773438 L 208.667969 337.152344 L 208.382813 335.355469 L 208.667969 333.558594 L 209.496094 331.9375 L 210.78125 330.648438 L 212.402344 329.824219 L 214.199219 329.539063 L 215.996094 329.824219 L 217.617188 330.648438 L 218.90625 331.9375 L 219.730469 333.558594 Z M 220.015625 335.355469 "/>
<path style=" stroke:none;fill-rule:nonzero;fill:rgb(80.392157%,58.431373%,4.705882%);fill-opacity:1;" d="M 247.152344 319.847656 L 246.871094 321.644531 L 246.042969 323.265625 L 244.757813 324.550781 L 243.136719 325.375 L 241.339844 325.660156 L 239.542969 325.375 L 237.921875 324.550781 L 236.632813 323.265625 L 235.808594 321.644531 L 235.523438 319.847656 L 235.808594 318.050781 L 236.632813 316.429688 L 237.921875 315.140625 L 239.542969 314.316406 L 241.339844 314.03125 L 243.136719 314.316406 L 244.757813 315.140625 L 246.042969 316.429688 L 246.871094 318.050781 Z M 247.152344 319.847656 "/>
<path style=" stroke:none;fill-rule:nonzero;fill:rgb(80.392157%,58.431373%,4.705882%);fill-opacity:1;" d="M 243.277344 319.847656 L 242.992188 321.644531 L 242.167969 323.265625 L 240.878906 324.550781 L 239.257813 325.375 L 237.460938 325.660156 L 235.664063 325.375 L 234.042969 324.550781 L 232.757813 323.265625 L 231.929688 321.644531 L 231.644531 319.847656 L 231.929688 318.050781 L 232.757813 316.429688 L 234.042969 315.140625 L 235.664063 314.316406 L 237.460938 314.03125 L 239.257813 314.316406 L 240.878906 315.140625 L 242.167969 316.429688 L 242.992188 318.050781 Z M 243.277344 319.847656 "/>
<path style=" stroke:none;fill-rule:nonzero;fill:rgb(80.392157%,58.431373%,4.705882%);fill-opacity:1;" d="M 196.753906 455.539063 L 196.46875 457.335938 L 195.644531 458.957031 L 194.355469 460.242188 L 192.734375 461.070313 L 190.9375 461.355469 L 189.140625 461.070313 L 187.519531 460.242188 L 186.234375 458.957031 L 185.40625 457.335938 L 185.125 455.539063 L 185.40625 453.742188 L 186.234375 452.121094 L 187.519531 450.832031 L 189.140625 450.007813 L 190.9375 449.722656 L 192.734375 450.007813 L 194.355469 450.832031 L 195.644531 452.121094 L 196.46875 453.742188 Z M 196.753906 455.539063 "/>
<path style=" stroke:none;fill-rule:nonzero;fill:rgb(80.392157%,58.431373%,4.705882%);fill-opacity:1;" d="M 185.125 176.398438 L 184.839844 178.195313 L 184.011719 179.816406 L 182.726563 181.105469 L 181.105469 181.929688 L 179.308594 182.214844 L 177.511719 181.929688 L 175.890625 181.105469 L 174.601563 179.816406 L 173.777344 178.195313 L 173.492188 176.398438 L 173.777344 174.601563 L 174.601563 172.980469 L 175.890625 171.695313 L 177.511719 170.871094 L 179.308594 170.585938 L 181.105469 170.871094 L 182.726563 171.695313 L 184.011719 172.980469 L 184.839844 174.601563 Z M 185.125 176.398438 "/>
<path style=" stroke:none;fill-rule:nonzero;fill:rgb(80.392157%,58.431373%,4.705882%);fill-opacity:1;" d="M 293.675781 381.875 L 293.390625 383.675781 L 292.566406 385.296875 L 291.28125 386.582031 L 289.660156 387.40625 L 287.863281 387.691406 L 286.066406 387.40625 L 284.441406 386.582031 L 283.15625 385.296875 L 282.332031 383.675781 L 282.046875 381.875 L 282.332031 380.078125 L 283.15625 378.457031 L 284.441406 377.171875 L 286.066406 376.347656 L 287.863281 376.0625 L 289.660156 376.347656 L 291.28125 377.171875 L 292.566406 378.457031 L 293.390625 380.078125 Z M 293.675781 381.875 "/>
<path style=" stroke:none;fill-rule:nonzero;fill:rgb(80.392157%,58.431373%,4.705882%);fill-opacity:1;" d="M 189 288.832031 L 188.714844 290.628906 L 187.890625 292.25 L 186.601563 293.535156 L 184.980469 294.363281 L 183.183594 294.644531 L 181.386719 294.363281 L 179.765625 293.535156 L 178.480469 292.25 L 177.652344 290.628906 L 177.371094 288.832031 L 177.652344 287.035156 L 178.128906 286.097656 L 178.757813 285.980469 L 180.191406 286.804688 L 182.933594 286.238281 L 183.03125 285.160156 L 182.34375 284.746094 L 180.035156 285.351563 L 178.636719 285.257813 L 179.765625 284.125 L 181.386719 283.300781 L 183.183594 283.015625 L 184.980469 283.300781 L 186.601563 284.125 L 187.890625 285.414063 L 188.714844 287.035156 Z M 189 288.832031 "/>
<path style=" stroke:none;fill-rule:nonzero;fill:rgb(80.392157%,58.431373%,4.705882%);fill-opacity:1;" d="M 154.109375 478.800781 L 153.824219 480.597656 L 152.996094 482.21875 L 151.710938 483.503906 L 150.085938 484.332031 L 148.46875 482.535156 L 144.222656 482.851563 L 142.761719 480.597656 L 142.476563 478.800781 L 142.761719 477.003906 L 143.585938 475.382813 L 144.875 474.09375 L 146.496094 473.269531 L 148.292969 472.984375 L 150.089844 473.269531 L 151.710938 474.09375 L 152.996094 475.382813 L 153.824219 477.003906 Z M 154.109375 478.800781 "/>
<path style=" stroke:none;fill-rule:nonzero;fill:rgb(80.392157%,58.431373%,4.705882%);fill-opacity:1;" d="M 189 172.523438 L 188.714844 174.320313 L 187.890625 175.941406 L 186.601563 177.226563 L 184.980469 178.054688 L 183.183594 178.339844 L 181.386719 178.054688 L 179.765625 177.226563 L 178.480469 175.941406 L 177.652344 174.320313 L 177.371094 172.523438 L 177.652344 170.726563 L 178.480469 169.105469 L 180.109375 167.644531 L 184.320313 169.011719 L 186.601563 167.816406 L 187.890625 169.105469 L 188.714844 170.726563 Z M 189 172.523438 "/>
<path style=" stroke:none;fill-rule:nonzero;fill:rgb(80.392157%,58.431373%,4.705882%);fill-opacity:1;" d="M 297.554688 447.785156 L 296.929688 450.246094 L 295.839844 450.375 L 292.621094 451.640625 L 290.574219 453.414063 L 288.320313 452.488281 L 287.035156 451.203125 L 286.207031 449.582031 L 285.921875 447.785156 L 286.207031 445.988281 L 287.035156 444.367188 L 288.320313 443.078125 L 289.941406 442.253906 L 291.738281 441.96875 L 293.535156 442.253906 L 295.15625 443.078125 L 296.441406 444.367188 L 297.269531 445.988281 Z M 297.554688 447.785156 "/>
<path style=" stroke:none;fill-rule:nonzero;fill:rgb(80.392157%,58.431373%,4.705882%);fill-opacity:1;" d="M 258.683594 335.984375 L 258.5 337.152344 L 257.675781 338.773438 L 256.386719 340.058594 L 255.195313 340.667969 L 253.664063 338.65625 L 252.601563 338.082031 L 248.421875 338.929688 L 247.4375 337.152344 L 247.152344 335.355469 L 247.4375 333.558594 L 248.265625 331.9375 L 249.550781 330.648438 L 251.171875 329.824219 L 252.96875 329.539063 L 254.964844 329.925781 L 256.160156 332.453125 Z M 253.375 341.105469 L 251.171875 340.882813 L 249.027344 339.535156 L 251.976563 339.082031 Z M 253.375 341.105469 "/>
<path style=" stroke:none;fill-rule:nonzero;fill:rgb(80.392157%,58.431373%,4.705882%);fill-opacity:1;" d="M 258.785156 339.230469 L 258.5 341.027344 L 257.566406 342.753906 L 256.035156 341.773438 L 253.664063 338.65625 L 252.601563 338.082031 L 247.160156 339.183594 L 247.4375 337.433594 L 248.265625 335.8125 L 249.550781 334.527344 L 251.171875 333.699219 L 252.96875 333.414063 L 254.765625 333.699219 L 256.386719 334.527344 L 257.675781 335.8125 L 258.5 337.433594 Z M 256.183594 344.039063 L 254.765625 344.761719 L 252.96875 345.046875 L 251.171875 344.761719 L 249.550781 343.933594 L 248.265625 342.648438 L 247.4375 341.027344 L 247.289063 340.085938 L 249.617188 339.34375 L 251.976563 339.082031 L 254.382813 342.558594 Z M 256.183594 344.039063 "/>
<path style=" stroke:none;fill-rule:nonzero;fill:rgb(80.392157%,58.431373%,4.705882%);fill-opacity:1;" d="M 189 354.738281 L 188.886719 355.441406 L 188.3125 355.957031 L 186.378906 356.386719 L 183.8125 354.640625 L 181.320313 349.242188 L 183.183594 348.921875 L 184.980469 349.207031 L 186.601563 350.035156 L 187.890625 351.320313 L 188.714844 352.941406 Z M 179.957031 359.347656 L 180.433594 358.429688 L 177.679688 353.460938 L 178.242188 352.835938 L 180.867188 352.449219 L 181.503906 352.695313 L 181.914063 353.875 L 182.898438 354.332031 L 184.078125 356.789063 L 185.613281 357.902344 L 188.152344 357.640625 L 186.601563 359.441406 L 184.980469 360.269531 L 183.183594 360.554688 L 181.386719 360.269531 Z M 179.957031 359.347656 "/>
<path style=" stroke:none;fill-rule:nonzero;fill:rgb(80.392157%,58.431373%,4.705882%);fill-opacity:1;" d="M 150.230469 261.691406 L 149.945313 263.488281 L 149.121094 265.109375 L 147.832031 266.398438 L 146.210938 267.222656 L 144.414063 267.507813 L 142.617188 267.222656 L 140.453125 265.851563 L 140.917969 265.085938 L 143.644531 263.800781 L 144.390625 261.886719 L 144.195313 260.621094 L 142.601563 256.71875 L 142.136719 256.40625 L 142.617188 256.160156 L 144.414063 255.875 L 146.210938 256.160156 L 147.832031 256.988281 L 149.121094 258.273438 L 149.945313 259.894531 Z M 150.230469 261.691406 "/>
<path style=" stroke:none;fill-rule:nonzero;fill:rgb(80.392157%,58.431373%,4.705882%);fill-opacity:1;" d="M 181.246094 288.832031 L 180.960938 290.628906 L 180.136719 292.25 L 178.847656 293.535156 L 177.226563 294.363281 L 175.429688 294.644531 L 173.632813 294.363281 L 171.859375 293.382813 L 174.074219 288.722656 L 176.464844 286.417969 L 178.757813 285.980469 L 180.191406 286.804688 L 180.808594 286.734375 Z M 171.902344 284.238281 L 173.632813 283.300781 L 175.429688 283.015625 L 177.226563 283.300781 L 178.847656 284.125 L 180.066406 285.34375 L 174.65625 284.980469 Z M 171.902344 284.238281 "/>
<path style=" stroke:none;fill-rule:nonzero;fill:rgb(80.392157%,58.431373%,4.705882%);fill-opacity:1;" d="M 185.125 242.308594 L 184.839844 244.105469 L 184.011719 245.726563 L 182.726563 247.011719 L 181.105469 247.839844 L 179.308594 248.125 L 177.511719 247.839844 L 175.890625 247.011719 L 174.601563 245.726563 L 173.777344 244.105469 L 173.492188 242.308594 L 173.679688 241.125 L 178.0625 241.875 L 182.921875 243.167969 Z M 174.125 239.832031 L 174.601563 238.890625 L 175.890625 237.601563 L 177.511719 236.777344 L 179.308594 236.492188 L 180.691406 236.710938 L 180.578125 237.003906 L 174.761719 240.109375 Z M 174.125 239.832031 "/>
<path style=" stroke:none;fill-rule:nonzero;fill:rgb(80.392157%,58.431373%,4.705882%);fill-opacity:1;" d="M 224.046875 472.015625 L 223.890625 471.046875 L 224.175781 469.25 L 224.964844 467.699219 L 227.316406 466.367188 L 232.550781 467.761719 L 234.171875 469.894531 L 231.242188 473.621094 L 229.960938 474.269531 L 228.117188 474.644531 Z M 227.726563 465.609375 L 229.707031 465.230469 L 232.105469 465.820313 L 231.738281 466.042969 Z M 227.726563 465.609375 "/>
<path style=" stroke:none;fill-rule:nonzero;fill:rgb(80.392157%,58.431373%,4.705882%);fill-opacity:1;" d="M 300.796875 445.640625 L 299.492188 445.847656 L 297.695313 445.5625 L 296.074219 444.734375 L 294.789063 443.449219 L 293.960938 441.828125 L 293.675781 440.03125 L 293.910156 438.5625 L 299.742188 437.757813 L 300.988281 440.148438 Z M 300.796875 445.640625 "/>
<path style=" stroke:none;fill-rule:nonzero;fill:rgb(80.392157%,58.431373%,4.705882%);fill-opacity:1;" d="M 227.769531 471.046875 L 227.484375 472.84375 L 226.949219 473.890625 L 222.296875 470.886719 L 220.207031 471.1875 L 221.476563 469.683594 L 226.09375 467.0625 L 227.484375 469.25 Z M 217.136719 467.847656 L 218.535156 466.339844 L 220.15625 465.515625 L 221.953125 465.230469 L 223.75 465.515625 L 225.050781 466.179688 L 219.566406 468.449219 Z M 217.136719 467.847656 "/>
<path style=" stroke:none;fill-rule:nonzero;fill:rgb(80.392157%,58.431373%,4.705882%);fill-opacity:1;" d="M 175.460938 319.445313 L 177.511719 318.191406 L 179.308594 317.90625 L 181.105469 318.191406 L 182.726563 319.019531 L 184.253906 320.78125 L 179.199219 323.441406 L 177.335938 322.691406 Z M 175.460938 319.445313 "/>
</g>
</svg>
