<?xml version="1.0" encoding="UTF-8"?>
<svg xmlns="http://www.w3.org/2000/svg" xmlns:xlink="http://www.w3.org/1999/xlink" width="378pt" height="504pt" viewBox="0 0 378 504" version="1.1">
<g id="data">
<rect x="0" y="0" width="378" height="504" style="fill:rgb(100%,100%,100%);fill-opacity:1;stroke:none;"/>
<path style=" stroke:none;fill-rule:nonzero;fill:rgb(100%,100%,100%);fill-opacity:1;" d="M 53.308594 504 L 324.691406 504 L 324.691406 0 L 53.308594 0 Z M 53.308594 504 "/>
<path style=" stroke:none;fill-rule:nonzero;fill:rgb(22.745098%,53.333333%,16.078431%);fill-opacity:1;" d="M 295.617188 374.125 L 295.820313 376.296875 L 296.476563 378.515625 L 297.558594 380.558594 L 299.023438 382.347656 L 300.8125 383.8125 L 302.855469 384.894531 L 305.070313 385.546875 L 306.832031 385.714844 L 306.859375 386.164063 L 305.320313 387.796875 L 303.894531 390.355469 L 303.085938 393.832031 L 303.371094 397.382813 L 301.894531 398.957031 L 300.679688 400.886719 L 299.902344 402.894531 L 299.492188 405.136719 L 297.003906 405.617188 L 294.679688 406.625 L 292.820313 407.945313 L 290.585938 410.195313 L 288.734375 413.210938 L 287.863281 416.769531 L 284.441406 418.769531 L 281.890625 421.796875 L 280.925781 424.109375 L 280.71875 424.230469 L 280.839844 424.3125 L 280.707031 424.632813 L 280.304688 427.679688 L 280.746094 430.847656 L 281.460938 432.464844 L 279.644531 432.160156 L 274.75 433.78125 L 272.609375 436.117188 L 274.253906 436.015625 L 275.152344 434.667969 L 276.683594 434.363281 L 278.285156 434.328125 L 281.054688 434.949219 L 281.828125 435.589844 L 281.691406 436.328125 L 279.554688 436.347656 L 277.390625 437.65625 L 277.96875 438.546875 L 281.382813 438.964844 L 286.863281 440.339844 L 289.394531 439.9375 L 289.800781 439.699219 L 292.734375 440.15625 L 300.941406 440.058594 L 300.988281 440.148438 L 300.882813 443.214844 L 300.679688 443.53125 L 299.359375 447.996094 L 297.960938 449.753906 L 296.972656 450.242188 L 295.839844 450.375 L 292.867188 451.542969 L 289.183594 451.796875 L 285.335938 453.160156 L 282.449219 455.476563 L 281.082031 457.328125 L 280.109375 459.414063 L 277.9375 461.121094 L 277.042969 462.261719 L 274.789063 462.777344 L 272.597656 463.816406 L 272.15625 464.414063 L 271.980469 464.480469 L 270.050781 465.695313 L 268.96875 466.710938 L 259.269531 463.777344 L 258.542969 463.71875 L 256.097656 463.191406 L 252.96875 463.292969 L 250.539063 461.621094 L 247.765625 460.613281 L 244.445313 460.355469 L 241.304688 461.007813 L 238.570313 462.414063 L 237.613281 463.292969 L 231.496094 463.171875 L 231.378906 463.496094 L 232.574219 464.835938 L 232.214844 465.75 L 231.738281 466.042969 L 226.691406 465.496094 L 219.566406 468.449219 L 217.054688 467.824219 L 210.222656 468.96875 L 208.164063 468.875 L 207.273438 468.058594 L 206.238281 469.769531 L 209.429688 471.089844 L 209.714844 470.9375 L 209.917969 471.449219 L 208.058594 472.925781 L 206.832031 474.445313 L 204.453125 473.097656 L 203.015625 472.699219 L 197.625 472.007813 L 196.175781 472.65625 L 195.679688 473.863281 L 195.832031 474.871094 L 196.757813 475.523438 L 196.488281 476.304688 L 195.917969 475.996094 L 194.851563 473.972656 L 190.289063 470.589844 L 185.898438 468.519531 L 183.121094 467.984375 L 182.367188 468.539063 L 181.128906 468.203125 L 178.699219 468.070313 L 176.167969 468.476563 L 173.792969 469.425781 L 171.679688 470.875 L 170.011719 472.648438 L 169.984375 472.695313 L 168.992188 473.234375 L 168.214844 474.070313 L 167.203125 476.179688 L 165.070313 482.425781 L 164.503906 482.371094 L 161.25 482.980469 L 158.398438 484.40625 L 156.085938 486.515625 L 154.683594 485.4375 L 153.613281 485.542969 L 152.417969 486.300781 L 151.867188 486.1875 L 150.007813 483.949219 L 149.257813 483.410156 L 148.46875 482.535156 L 148.085938 482.5625 L 146.125 481.144531 L 142.929688 479.964844 L 139.652344 479.75 L 141.644531 477.425781 L 143.003906 474.542969 L 145.773438 476.796875 L 149.222656 478.132813 L 152.789063 478.332031 L 156.246094 477.4375 L 158.257813 476.320313 L 161.15625 474.054688 L 163.800781 471.046875 L 166.847656 469.433594 L 169.289063 466.996094 L 171.066406 463.464844 L 171.554688 459.414063 L 172.582031 457.070313 L 173.0625 454.6875 L 172.84375 451.121094 L 171.808594 448.441406 L 173.15625 448.464844 L 180.570313 447.503906 L 181.109375 445.632813 L 181.210938 443.15625 L 182.519531 440.25 L 190.867188 432.195313 L 195.792969 425.3125 L 197.929688 424.472656 L 198.285156 423.78125 L 198.070313 423.238281 L 197.8125 423.082031 L 196.09375 424.355469 L 192.90625 427.300781 L 190.570313 429.988281 L 190.039063 430.566406 L 190.433594 429.859375 L 191.351563 426.929688 L 191.601563 424.269531 L 190.164063 417.320313 L 188.835938 414.871094 L 187.0625 412.890625 L 190.359375 412.414063 L 193.390625 411.019531 L 195.898438 408.824219 L 197.679688 406.007813 L 198.554688 403.054688 L 198.835938 398.632813 L 198.300781 394.390625 L 196.753906 390.957031 L 200.261719 390.414063 L 203.339844 388.910156 L 205 387.527344 L 206.445313 385.753906 L 209.0625 384.6875 L 211.246094 383.105469 L 212.9375 381.171875 L 214.160156 378.914063 L 214.792969 376.820313 L 215.019531 374.519531 L 214.8125 372.34375 L 214.199219 370.246094 L 215.566406 368.390625 L 216.582031 366.175781 L 217.097656 363.929688 L 217.164063 361.625 L 216.699219 359.109375 L 215.695313 356.75 L 214.285156 354.769531 L 212.390625 353.046875 L 209.570313 351.539063 L 206.445313 350.863281 L 204.5 349.195313 L 202.234375 347.996094 L 199.886719 347.339844 L 197.457031 347.191406 L 194.1875 347.808594 L 191.125 349.398438 L 188.738281 351.71875 L 187.0625 354.738281 L 183.78125 354.582031 L 182.269531 351.304688 L 182.511719 350.878906 L 183.183594 346.984375 L 185.425781 347.953125 L 187.6875 348.417969 L 190.128906 348.414063 L 192.390625 347.941406 L 195.914063 346.117188 L 198.691406 343.109375 L 200.9375 343.660156 L 203.25 343.761719 L 205.660156 343.367188 L 207.820313 342.539063 L 210.738281 340.449219 L 212.820313 337.679688 L 213.941406 334.675781 L 214.199219 331.476563 L 216.253906 328.230469 L 217.136719 324.492188 L 217.058594 322.183594 L 216.527344 319.9375 L 215.5625 317.835938 L 214.199219 315.96875 L 216.523438 313.136719 L 217.597656 310.703125 L 218.078125 308.214844 L 219.703125 306.441406 L 220.875 304.484375 L 221.675781 302.214844 L 222.210938 298.949219 L 222.15625 296.144531 L 221.382813 293.316406 L 220 290.871094 L 218.078125 288.832031 L 218.078125 284.953125 L 221.953125 284.953125 L 221.8125 287.582031 L 222.394531 292.007813 L 223.554688 294.71875 L 225.359375 297.054688 L 227.148438 298.519531 L 229.191406 299.601563 L 231.410156 300.257813 L 231.976563 300.308594 L 233.273438 300.914063 L 231.84375 303.003906 L 230.828125 305.914063 L 230.617188 308.988281 L 231.21875 312.011719 L 232.59375 314.769531 L 234.640625 317.070313 L 237.339844 318.804688 L 240.285156 319.71875 L 235.9375 320.0625 L 232.484375 321.398438 L 229.535156 323.847656 L 227.5 327.242188 L 226.738281 330.738281 L 227.042969 334.175781 L 227.972656 336.699219 L 229.707031 339.230469 L 231.316406 342.722656 L 233.875 345.417969 L 237.273438 347.214844 L 241.070313 347.800781 L 244.734375 347.164063 L 248.261719 345.371094 L 250.925781 342.625 L 252.34375 339.609375 L 254.382813 342.558594 L 260.144531 347.300781 L 257.472656 348.753906 L 254.941406 351.453125 L 253.351563 354.933594 L 252.96875 358.617188 L 251.152344 360.046875 L 249.730469 361.703125 L 248.644531 363.597656 L 247.898438 365.785156 L 247.707031 370.003906 L 248.203125 372.128906 L 249.09375 374.125 L 248.472656 376.980469 L 248.605469 380.03125 L 249.75 383.6875 L 251.566406 386.484375 L 253.257813 388.066406 L 255.226563 389.277344 L 257.398438 390.078125 L 259.554688 390.425781 L 262.121094 390.308594 L 266.476563 389.320313 L 270.058594 387.742188 L 273.886719 384.214844 L 275.886719 380.671875 L 276.539063 377.167969 L 276.234375 370.367188 L 276.339844 370.347656 L 278.003906 371.871094 L 280.078125 373.097656 L 283.984375 374.125 L 287.570313 375.464844 L 291.777344 375.511719 Z M 284.359375 436.492188 L 284.691406 436.882813 L 287.148438 438.664063 L 287.808594 438.925781 L 286.679688 439.636719 L 283.058594 438.976563 L 282.164063 437.605469 L 282.484375 436.070313 Z M 236.898438 463.953125 L 236.226563 464.566406 L 235.519531 465.75 L 235.136719 465.644531 L 236.523438 463.683594 Z M 233.933594 469.582031 L 233.722656 470.46875 L 232.75 471.703125 L 231.414063 472.753906 L 230.398438 474.046875 L 229.960938 474.269531 L 229.152344 474.433594 L 227.519531 473.003906 L 224.921875 471.6875 L 222.839844 471.238281 L 222.296875 470.886719 L 221.738281 470.964844 L 220.714844 470.582031 L 221.476563 469.683594 L 227.316406 466.367188 L 232.550781 467.761719 Z M 171.332031 439.867188 L 170.164063 437.296875 L 167.402344 434.46875 L 163.851563 432.726563 L 160.8125 432.378906 L 159.527344 430.082031 L 159.1875 428.203125 L 161.582031 427.957031 L 163.871094 427.21875 L 165.960938 426.027344 L 167.675781 424.523438 L 167.964844 427.832031 L 169.238281 431.035156 L 171.394531 433.722656 L 174.246094 435.664063 L 177.453125 436.722656 L 177.398438 436.808594 L 177.039063 438.671875 L 176.445313 439.273438 L 174.058594 439.917969 Z M 183 354.542969 L 180.496094 354.421875 L 181.484375 352.6875 L 181.503906 352.695313 L 181.914063 353.875 L 182.898438 354.332031 Z M 252.667969 338.121094 L 252.96875 335.355469 L 253.566406 338.203125 L 254.023438 339.128906 L 253.664063 338.65625 Z M 198.691406 184.152344 L 198.011719 181.03125 L 196.507813 178.207031 L 194.292969 175.902344 L 191.535156 174.289063 L 188.4375 173.484375 L 185.242188 173.554688 L 182.417969 174.390625 L 179.308594 176.398438 L 179.195313 176.230469 L 181.410156 174.613281 L 183.183594 172.523438 L 183.921875 172.289063 L 187.742188 171.871094 L 191.492188 172.71875 L 194.5625 174.578125 L 196.921875 177.285156 L 198.34375 180.582031 Z M 187.0625 257.816406 L 187.207031 257.425781 L 188.328125 257.671875 Z M 147.0625 260.605469 L 149.996094 258.257813 L 151.003906 260.230469 Z M 113.398438 490.429688 L 115.644531 490.023438 L 117.652344 489.242188 L 119.582031 488.027344 L 121.152344 486.554688 L 124.136719 486.867188 L 127.21875 486.367188 L 125.890625 488.34375 L 125.101563 490.257813 L 124.039063 490.597656 L 123.742188 491.804688 L 123.558594 492.003906 L 122.398438 493.820313 L 121.5625 495.941406 L 121.289063 497.433594 L 120.660156 497.648438 L 120.53125 497.910156 L 118.578125 497.046875 L 118.070313 496.65625 L 118.09375 496.4375 L 117.15625 494.691406 L 115.984375 493.691406 L 114.589844 493.085938 Z M 113.398438 490.429688 "/>
</g>
</svg>
