<?xml version="1.0" encoding="UTF-8"?>
<svg xmlns="http://www.w3.org/2000/svg" xmlns:xlink="http://www.w3.org/1999/xlink" width="378pt" height="504pt" viewBox="0 0 378 504" version="1.1">
<g id="data">
<rect x="0" y="0" width="378" height="504" style="fill:rgb(100%,100%,100%);fill-opacity:1;stroke:none;"/>
<path style=" stroke:none;fill-rule:nonzero;fill:rgb(100%,100%,100%);fill-opacity:1;" d="M 53.308594 504 L 324.691406 504 L 324.691406 0 L 53.308594 0 Z M 53.308594 504 "/>
<path style=" stroke:none;fill-rule:nonzero;fill:rgb(22.745098%,53.333333%,16.078431%);fill-opacity:1;" d="M 256.847656 443.90625 L 256.847656 436.152344 L 259.324219 433.289063 L 260.722656 429.902344 L 261.992188 433.070313 L 264.601563 436.152344 L 266.117188 439.070313 L 267.808594 440.957031 L 269.757813 442.367188 L 266.785156 442.929688 L 263.214844 444.53125 L 261.027344 446.039063 L 259.238281 448.003906 L 258.253906 445.832031 Z M 260.703125 423.863281 L 260.007813 420.503906 L 258.355469 417.492188 L 255.898438 415.09375 L 252.96875 413.558594 L 256.847656 412.890625 L 259.890625 413.203125 L 262.785156 412.742188 L 265.910156 411.304688 L 268.476563 409.015625 L 268.476563 412.890625 L 265.332031 414.578125 L 262.84375 417.140625 L 261.253906 420.335938 Z M 252.085938 462.660156 L 255.183594 461.003906 L 257.644531 458.496094 L 258.886719 461.085938 L 260.722656 463.292969 L 256.847656 463.292969 L 254.5 462.726563 Z M 225.832031 424.523438 L 229.707031 424.523438 L 232.789063 426.761719 L 235.054688 427.609375 L 237.316406 427.96875 L 237.460938 428.398438 L 233.585938 427.734375 L 229.707031 428.398438 L 228.109375 426.414063 L 225.566406 424.5 Z M 229.707031 381.875 L 227.328125 383.890625 L 225.324219 381.285156 L 227.550781 381.796875 Z M 207.199219 400.5625 L 210.324219 401.261719 L 212.289063 402.140625 L 214.382813 402.640625 L 216.914063 402.722656 L 219.402344 402.253906 L 218.078125 405.136719 L 216.710938 406.992188 L 215.78125 408.960938 L 215.179688 411.445313 L 215.125 413.875 L 215.691406 416.628906 L 216.902344 419.167969 L 218.6875 421.339844 L 221.050781 423.085938 L 217.515625 423.277344 L 214.199219 424.523438 L 211.023438 423.535156 L 207.695313 423.484375 L 205.085938 424.132813 L 202.589844 425.441406 L 199.683594 428.316406 L 197.949219 432.015625 L 197.605469 436.089844 L 198.691406 440.03125 L 196.390625 440.261719 L 194.300781 440.890625 L 192.257813 441.972656 L 190.46875 443.4375 L 189.003906 445.226563 L 187.921875 447.269531 L 187.292969 449.359375 L 187.0625 451.660156 L 183.183594 450.996094 L 179.308594 451.660156 L 179.941406 449.449219 L 180.089844 447.566406 L 180.570313 447.503906 L 181.109375 445.632813 L 181.210938 443.15625 L 182.519531 440.25 L 186.683594 436.230469 L 188.359375 435.605469 L 191.097656 433.722656 L 193.253906 431.035156 L 194.527344 427.832031 L 194.601563 426.972656 L 195.792969 425.3125 L 197.929688 424.472656 L 198.082031 424.179688 L 199.714844 423.742188 L 201.980469 422.550781 L 203.839844 420.988281 L 205.335938 419.074219 L 206.445313 416.769531 L 208.585938 414.0625 L 209.964844 410.222656 L 210.113281 407.667969 L 209.695313 405.140625 L 208.675781 402.65625 Z M 176.617188 439.101563 L 176.308594 438.757813 L 174.457031 437.386719 L 172.371094 436.410156 L 175.859375 436.8125 L 177.609375 436.476563 L 177.398438 436.808594 L 177.039063 438.671875 Z M 194.71875 425.625 L 194.816406 424.523438 L 195.972656 424.46875 Z M 218.078125 374.125 L 219.238281 376.515625 L 220.914063 378.578125 L 218.078125 378 Z M 206.445313 471.046875 L 206.445313 469.855469 L 207.15625 470.148438 Z M 206.445313 469.429688 L 206.445313 467.167969 L 207.070313 468.394531 Z M 206.445313 469.429688 "/>
</g>
</svg>
