<?xml version="1.0" encoding="UTF-8"?>
<svg xmlns="http://www.w3.org/2000/svg" xmlns:xlink="http://www.w3.org/1999/xlink" width="378pt" height="504pt" viewBox="0 0 378 504" version="1.1">
<g id="data">
<rect x="0" y="0" width="378" height="504" style="fill:rgb(100%,100%,100%);fill-opacity:1;stroke:none;"/>
<path style=" stroke:none;fill-rule:nonzero;fill:rgb(100%,100%,100%);fill-opacity:1;" d="M 53.308594 504 L 324.691406 504 L 324.691406 0 L 53.308594 0 Z M 53.308594 504 "/>
<path style=" stroke:none;fill-rule:nonzero;fill:rgb(22.745098%,53.333333%,16.078431%);fill-opacity:1;" d="M 267.273438 411.371094 L 268.476563 409.015625 L 268.476563 412.890625 Z M 225.832031 424.523438 L 229.707031 424.523438 L 229.707031 428.398438 L 228 426.230469 Z M 225.832031 424.523438 "/>
<path style=" stroke:none;fill-rule:nonzero;fill:rgb(80.392157%,58.431373%,4.705882%);fill-opacity:1;" d="M 208.382813 397.382813 L 208.101563 399.183594 L 207.273438 400.804688 L 205.988281 402.089844 L 204.367188 402.914063 L 202.570313 403.199219 L 200.773438 402.914063 L 199.152344 402.089844 L 197.863281 400.804688 L 197.039063 399.183594 L 196.753906 397.382813 L 197.039063 395.585938 L 197.863281 393.964844 L 199.152344 392.679688 L 200.773438 391.855469 L 202.570313 391.570313 L 204.367188 391.855469 L 205.988281 392.679688 L 207.273438 393.964844 L 208.101563 395.585938 Z M 208.382813 397.382813 "/>
<path style=" stroke:none;fill-rule:nonzero;fill:rgb(80.392157%,58.431373%,4.705882%);fill-opacity:1;" d="M 216.136719 405.136719 L 215.855469 406.933594 L 215.027344 408.558594 L 213.742188 409.84375 L 212.121094 410.667969 L 210.324219 410.953125 L 208.527344 410.667969 L 206.90625 409.84375 L 205.617188 408.558594 L 204.792969 406.933594 L 204.507813 405.136719 L 204.792969 403.339844 L 205.617188 401.71875 L 206.90625 400.433594 L 208.527344 399.609375 L 210.324219 399.324219 L 212.121094 399.609375 L 213.742188 400.433594 L 215.027344 401.71875 L 215.855469 403.339844 Z M 216.136719 405.136719 "/>
<path style=" stroke:none;fill-rule:nonzero;fill:rgb(80.392157%,58.431373%,4.705882%);fill-opacity:1;" d="M 254.90625 412.890625 L 254.625 414.6875 L 253.796875 416.308594 L 252.511719 417.597656 L 250.890625 418.421875 L 249.09375 418.707031 L 247.296875 418.421875 L 245.675781 417.597656 L 244.386719 416.308594 L 243.5625 414.6875 L 243.277344 412.890625 L 243.5625 411.09375 L 244.386719 409.472656 L 245.675781 408.1875 L 247.296875 407.363281 L 249.09375 407.078125 L 250.890625 407.363281 L 252.511719 408.1875 L 253.796875 409.472656 L 254.625 411.09375 Z M 254.90625 412.890625 "/>
<path style=" stroke:none;fill-rule:nonzero;fill:rgb(80.392157%,58.431373%,4.705882%);fill-opacity:1;" d="M 282.046875 443.90625 L 281.761719 445.703125 L 280.933594 447.324219 L 279.648438 448.613281 L 278.027344 449.4375 L 276.230469 449.722656 L 274.433594 449.4375 L 272.8125 448.613281 L 271.527344 447.324219 L 270.699219 445.703125 L 270.414063 443.90625 L 270.699219 442.109375 L 271.527344 440.488281 L 272.8125 439.203125 L 274.433594 438.375 L 276.230469 438.09375 L 277.839844 438.347656 L 279.648438 439.203125 L 280.933594 440.488281 L 281.761719 442.109375 Z M 282.046875 443.90625 "/>
<path style=" stroke:none;fill-rule:nonzero;fill:rgb(80.392157%,58.431373%,4.705882%);fill-opacity:1;" d="M 200.628906 436.152344 L 200.347656 437.949219 L 199.519531 439.570313 L 198.234375 440.859375 L 196.613281 441.683594 L 194.816406 441.96875 L 193.019531 441.683594 L 191.398438 440.859375 L 190.109375 439.570313 L 189.285156 437.949219 L 189 436.152344 L 189.285156 434.355469 L 189.921875 433.105469 L 191.402344 431.445313 L 193.019531 430.625 L 194.816406 430.339844 L 196.613281 430.625 L 198.234375 431.449219 L 199.519531 432.734375 L 200.347656 434.355469 Z M 200.628906 436.152344 "/>
<path style=" stroke:none;fill-rule:nonzero;fill:rgb(80.392157%,58.431373%,4.705882%);fill-opacity:1;" d="M 192.875 288.832031 L 192.59375 290.628906 L 191.765625 292.25 L 190.480469 293.535156 L 188.859375 294.363281 L 187.0625 294.644531 L 185.265625 294.363281 L 183.644531 293.535156 L 182.355469 292.25 L 181.53125 290.628906 L 181.246094 288.832031 L 181.53125 287.035156 L 181.792969 286.519531 L 182.933594 286.238281 L 183.03125 285.160156 L 182.769531 285 L 183.644531 284.125 L 185.265625 283.300781 L 187.0625 283.015625 L 188.859375 283.300781 L 190.480469 284.125 L 191.765625 285.414063 L 192.59375 287.035156 Z M 192.875 288.832031 "/>
<path style=" stroke:none;fill-rule:nonzero;fill:rgb(80.392157%,58.431373%,4.705882%);fill-opacity:1;" d="M 177.371094 436.152344 L 177.085938 437.949219 L 176.40625 439.285156 L 174.058594 439.917969 L 170.558594 439.851563 L 166.820313 439 L 166.023438 437.949219 L 165.738281 436.152344 L 166.023438 434.355469 L 166.847656 432.734375 L 168.136719 431.449219 L 169.757813 430.625 L 171.554688 430.339844 L 173.351563 430.625 L 174.972656 431.449219 L 176.257813 432.734375 L 177.085938 434.355469 Z M 177.371094 436.152344 "/>
<path style=" stroke:none;fill-rule:nonzero;fill:rgb(80.392157%,58.431373%,4.705882%);fill-opacity:1;" d="M 196.753906 436.152344 L 196.46875 437.949219 L 195.644531 439.570313 L 194.355469 440.859375 L 192.734375 441.683594 L 190.9375 441.96875 L 189.140625 441.683594 L 187.519531 440.859375 L 186.234375 439.570313 L 185.339844 437.527344 L 190.867188 432.195313 L 192.066406 430.515625 L 194.355469 431.449219 L 195.644531 432.734375 L 196.46875 434.355469 Z M 186.289063 432.679688 L 187.519531 431.449219 L 189.140625 430.625 L 190.132813 430.464844 L 189.222656 431.449219 Z M 186.289063 432.679688 "/>
<path style=" stroke:none;fill-rule:nonzero;fill:rgb(80.392157%,58.431373%,4.705882%);fill-opacity:1;" d="M 254.90625 463.292969 L 254.835938 463.746094 L 243.988281 465.929688 L 243.5625 465.089844 L 243.277344 463.292969 L 243.5625 461.496094 L 244.386719 459.875 L 245.675781 458.585938 L 247.296875 457.761719 L 249.09375 457.476563 L 250.890625 457.761719 L 252.511719 458.585938 L 253.796875 459.875 L 254.625 461.496094 Z M 254.90625 463.292969 "/>
<path style=" stroke:none;fill-rule:nonzero;fill:rgb(80.392157%,58.431373%,4.705882%);fill-opacity:1;" d="M 231.644531 471.046875 L 231.363281 472.84375 L 230.871094 473.808594 L 228.117188 474.644531 L 222.296875 470.886719 L 220.207031 471.1875 L 221.476563 469.683594 L 227.316406 466.367188 L 229.984375 467.078125 L 230.535156 467.628906 L 231.363281 469.25 Z M 221.011719 467.847656 L 222.414063 466.339844 L 224.035156 465.515625 L 225.832031 465.230469 L 227.835938 465.621094 L 226.691406 465.496094 Z M 221.011719 467.847656 "/>
<path style=" stroke:none;fill-rule:nonzero;fill:rgb(80.392157%,58.431373%,4.705882%);fill-opacity:1;" d="M 108.691406 489.414063 L 110.351563 490.890625 L 111.007813 492.179688 L 110.375 492.488281 L 110.242188 494.183594 L 109.421875 495.128906 L 106.824219 495.664063 L 105.398438 494.824219 L 105.628906 491.574219 L 106.074219 490.5625 Z M 108.691406 489.414063 "/>
</g>
</svg>
