<?xml version="1.0" encoding="UTF-8"?>
<svg xmlns="http://www.w3.org/2000/svg" xmlns:xlink="http://www.w3.org/1999/xlink" width="378pt" height="504pt" viewBox="0 0 378 504" version="1.1">
<g id="data">
<rect x="0" y="0" width="378" height="504" style="fill:rgb(100%,100%,100%);fill-opacity:1;stroke:none;"/>
<path style=" stroke:none;fill-rule:nonzero;fill:rgb(100%,100%,100%);fill-opacity:1;" d="M 53.308594 504 L 324.691406 504 L 324.691406 0 L 53.308594 0 Z M 53.308594 504 "/>
<path style=" stroke:none;fill-rule:nonzero;fill:rgb(22.745098%,53.333333%,16.078431%);fill-opacity:1;" d="M 208.589844 371.777344 L 208.386719 370.109375 L 208.667969 368.449219 L 209.417969 366.9375 L 210.566406 365.707031 L 212.019531 364.855469 L 213.652344 364.457031 L 215.265625 364.304688 L 216.386719 363.972656 L 217.402344 363.433594 L 218.292969 362.707031 L 219.019531 361.816406 L 219.566406 360.785156 L 219.871094 359.777344 L 220.042969 358.039063 L 220.539063 356.207031 L 221.59375 354.632813 L 223.101563 353.480469 L 224.898438 352.875 L 226.792969 352.878906 L 228.589844 353.496094 L 230.089844 354.65625 L 231.136719 356.234375 L 231.621094 358.070313 L 231.773438 359.699219 L 232.078125 360.742188 L 232.570313 361.710938 L 233.222656 362.558594 L 234.089844 363.316406 L 235.160156 363.921875 L 236.332031 364.289063 L 238.039063 364.460938 L 240 365.011719 L 241.644531 366.207031 L 242.78125 367.898438 L 243.632813 369.824219 L 244.488281 370.929688 L 245.570313 371.785156 L 247.59375 372.691406 L 248.792969 373.417969 L 249.785156 374.40625 L 251.0625 376.027344 L 252.6875 377.304688 L 253.6875 378.3125 L 254.414063 379.53125 L 255.457031 381.898438 L 256.609375 383.226563 L 257.835938 384.019531 L 259.367188 384.5 L 260.972656 384.542969 L 263.191406 383.988281 L 265.074219 383.835938 L 266.902344 384.292969 L 268.492188 385.308594 L 269.671875 386.785156 L 270.316406 388.558594 L 270.648438 390.328125 L 271.027344 391.242188 L 273.03125 393.769531 L 273.71875 394.863281 L 274.539063 396.574219 L 275.402344 397.65625 L 276.320313 398.390625 L 277.402344 398.933594 L 278.570313 399.242188 L 280.386719 399.328125 L 282.226563 399.722656 L 283.847656 400.683594 L 284.789063 401.78125 L 285.292969 400.003906 L 286.390625 398.429688 L 287.792969 396.992188 L 289.335938 395.863281 L 291.160156 395.292969 L 293.070313 395.34375 L 295.871094 395.890625 L 298.695313 395.5 L 300.585938 395.550781 L 302.359375 396.203125 L 303.832031 397.390625 L 304.84375 398.988281 L 305.121094 400.128906 L 304.1875 404.632813 L 303.085938 405.832031 L 301.464844 407.109375 L 300.1875 408.734375 L 298.910156 409.929688 L 297.335938 410.695313 L 295.605469 410.953125 L 293.875 410.6875 L 292.304688 409.917969 L 290.535156 408.695313 L 288.515625 407.941406 L 286.855469 406.984375 L 285.863281 405.84375 L 285.398438 407.550781 L 284.351563 409.113281 L 283.257813 410.28125 L 282.636719 411.265625 L 282.261719 412.238281 L 281.953125 413.933594 L 281.246094 415.839844 L 279.921875 417.382813 L 277.890625 419.058594 L 275.03125 422.683594 L 274.492188 423.976563 L 274.175781 426.058594 L 274.285156 428.085938 L 274.261719 428.988281 L 274.027344 431.28125 L 274.242188 432.636719 L 274.765625 433.773438 L 274.75 433.78125 L 272.609375 436.117188 L 274.253906 436.015625 L 275.152344 434.667969 L 275.328125 434.632813 L 276.691406 436.160156 L 277.558594 437.433594 L 277.59375 437.535156 L 277.390625 437.65625 L 277.90625 438.449219 L 278.058594 438.890625 L 278.46875 440.949219 L 279.050781 442.195313 L 279.984375 443.332031 L 281.15625 444.191406 L 282.507813 444.730469 L 284.683594 445.007813 L 286.414063 445.507813 L 287.90625 446.515625 L 289.023438 447.929688 L 289.648438 449.617188 L 289.730469 451.417969 L 289.257813 453.15625 L 288.273438 454.664063 L 287.058594 456.019531 L 286.453125 457.066406 L 286.082031 458.214844 L 286.078125 458.257813 L 284.1875 457.9375 L 281.042969 460.90625 L 278.484375 461.933594 L 274.789063 462.777344 L 272.597656 463.816406 L 270.539063 466.589844 L 269.761719 466.949219 L 259.269531 463.777344 L 256.070313 463.507813 L 245.898438 465.457031 L 245.871094 465.445313 L 244.175781 465.136719 L 242.390625 464.496094 L 240.902344 463.316406 L 239.878906 461.722656 L 239.417969 459.882813 L 239.578125 457.992188 L 240.335938 456.253906 L 241.792969 454.003906 L 242.257813 452.296875 L 242.179688 450.527344 L 241.550781 448.828125 L 240.554688 447.519531 L 239.21875 446.519531 L 238.328125 446.132813 L 236.328125 445.734375 L 235.511719 445.511719 L 232.523438 444.445313 L 230.609375 444.46875 L 227.839844 445.488281 L 225.65625 445.84375 L 223.496094 445.355469 L 221.910156 444.664063 L 220.789063 444.417969 L 219.636719 444.402344 L 218.730469 444.570313 L 216.734375 445.558594 L 214.574219 447.875 L 213.109375 449.011719 L 211.363281 449.628906 L 209.667969 449.9375 L 208.699219 450.316406 L 207.710938 450.9375 L 206.546875 452.027344 L 204.976563 453.078125 L 203.15625 453.570313 L 200.457031 453.84375 L 197.867188 455.007813 L 196.113281 455.484375 L 194.300781 455.398438 L 192.605469 454.757813 L 191.1875 453.625 L 190.1875 452.109375 L 189.703125 450.359375 L 189.78125 448.546875 L 190.257813 446.207031 L 190.128906 444.511719 L 189.808594 443.515625 L 189.289063 442.582031 L 188.609375 441.757813 L 187.257813 440.65625 L 185.933594 439.113281 L 185.339844 437.527344 L 190.867188 432.195313 L 195.792969 425.3125 L 197.929688 424.472656 L 198.285156 423.78125 L 198.070313 423.238281 L 197.8125 423.082031 L 196.09375 424.355469 L 192.90625 427.300781 L 190.570313 429.988281 L 189.222656 431.449219 L 185.628906 432.957031 L 185.585938 432.964844 L 185.703125 432.277344 L 185.207031 429.382813 L 185.160156 427.75 L 185.570313 426.164063 L 186.402344 424.757813 L 188.355469 422.328125 L 188.742188 421.421875 L 189.105469 419.542969 L 189.589844 418.09375 L 190.433594 416.824219 L 192.257813 414.734375 L 192.980469 413.039063 L 193.148438 411.753906 L 192.914063 409.667969 L 192.960938 408.03125 L 193.457031 405.136719 L 192.960938 402.246094 L 192.875 401.261719 L 192.875 397.382813 L 193.242188 395.359375 L 194.289063 393.585938 L 195.886719 392.289063 L 198.402344 390.902344 L 199.628906 389.570313 L 200.378906 387.90625 L 200.660156 385.15625 L 201.046875 383.597656 L 201.839844 382.203125 L 202.988281 381.078125 L 204.398438 380.3125 L 205.914063 379.742188 L 206.90625 379.125 L 207.746094 378.339844 L 208.394531 377.429688 L 208.90625 376.242188 L 209.15625 374.894531 L 209.097656 373.632813 Z M 255.128906 438.324219 L 256.210938 437.875 L 257.160156 437.234375 L 257.980469 436.40625 L 258.5625 435.53125 L 259.015625 434.4375 L 259.253906 433.285156 L 259.257813 432.136719 L 259.035156 431.007813 L 258.59375 429.945313 L 257.941406 428.980469 L 257.191406 428.234375 L 256.222656 427.585938 L 255.160156 427.148438 L 254.015625 426.925781 L 252.960938 426.925781 L 251.816406 427.152344 L 250.753906 427.59375 L 249.785156 428.25 L 248.941406 429.089844 L 248.285156 430.0625 L 247.84375 431.125 L 247.621094 432.253906 L 247.625 433.417969 L 247.832031 434.453125 L 248.277344 435.53125 L 248.917969 436.488281 L 249.734375 437.296875 L 250.695313 437.929688 L 251.761719 438.359375 L 252.910156 438.574219 L 253.960938 438.5625 Z M 214.480469 289.523438 L 213.261719 288.214844 L 212.496094 286.59375 L 212.261719 284.816406 L 212.582031 283.050781 L 213.421875 281.46875 L 214.703125 280.214844 L 216.304688 279.414063 L 218.078125 279.136719 L 220.875 279.136719 L 221.269531 280.457031 L 222.984375 284.039063 L 223.773438 285.027344 L 225.945313 294.183594 L 229.304688 299.0625 L 235.335938 301.878906 L 235.332031 301.945313 L 234.550781 303.679688 L 233.257813 305.070313 L 231.582031 305.964844 L 229.707031 306.277344 L 225.832031 306.277344 L 223.875 305.9375 L 222.144531 304.960938 L 220.847656 303.457031 L 220.128906 301.605469 L 220.078125 299.621094 L 220.375 297.589844 L 220.9375 295.804688 L 221.8125 294.609375 L 220.316406 294.410156 L 218.695313 293.648438 L 217.382813 292.425781 L 216.105469 290.800781 Z M 214.480469 289.523438 "/>
<path style=" stroke:none;fill-rule:nonzero;fill:rgb(80.392157%,58.431373%,4.705882%);fill-opacity:1;" d="M 231.644531 327.601563 L 231.363281 329.398438 L 230.535156 331.019531 L 229.25 332.304688 L 227.628906 333.128906 L 225.832031 333.414063 L 224.035156 333.128906 L 222.414063 332.304688 L 221.125 331.019531 L 220.300781 329.398438 L 220.015625 327.601563 L 220.300781 325.804688 L 221.125 324.183594 L 222.414063 322.894531 L 224.035156 322.070313 L 225.832031 321.785156 L 227.628906 322.070313 L 229.25 322.894531 L 230.535156 324.183594 L 231.363281 325.804688 Z M 231.644531 327.601563 "/>
<path style=" stroke:none;fill-rule:nonzero;fill:rgb(80.392157%,58.431373%,4.705882%);fill-opacity:1;" d="M 247.152344 319.847656 L 246.871094 321.644531 L 246.042969 323.265625 L 244.757813 324.550781 L 243.136719 325.375 L 241.339844 325.660156 L 239.542969 325.375 L 237.921875 324.550781 L 236.632813 323.265625 L 235.808594 321.644531 L 235.523438 319.847656 L 235.808594 318.050781 L 236.632813 316.429688 L 237.921875 315.140625 L 239.542969 314.316406 L 241.339844 314.03125 L 243.136719 314.316406 L 244.757813 315.140625 L 246.042969 316.429688 L 246.871094 318.050781 Z M 247.152344 319.847656 "/>
<path style=" stroke:none;fill-rule:nonzero;fill:rgb(80.392157%,58.431373%,4.705882%);fill-opacity:1;" d="M 243.277344 319.847656 L 242.992188 321.644531 L 242.167969 323.265625 L 240.878906 324.550781 L 239.257813 325.375 L 237.460938 325.660156 L 235.664063 325.375 L 234.042969 324.550781 L 232.757813 323.265625 L 231.929688 321.644531 L 231.644531 319.847656 L 231.929688 318.050781 L 232.757813 316.429688 L 234.042969 315.140625 L 235.664063 314.316406 L 237.460938 314.03125 L 239.257813 314.316406 L 240.878906 315.140625 L 242.167969 316.429688 L 242.992188 318.050781 Z M 243.277344 319.847656 "/>
<path style=" stroke:none;fill-rule:nonzero;fill:rgb(80.392157%,58.431373%,4.705882%);fill-opacity:1;" d="M 220.015625 335.355469 L 219.730469 337.152344 L 218.90625 338.773438 L 217.617188 340.058594 L 215.996094 340.882813 L 214.199219 341.167969 L 212.402344 340.882813 L 210.78125 340.058594 L 209.496094 338.773438 L 208.667969 337.152344 L 208.382813 335.355469 L 208.667969 333.558594 L 209.496094 331.9375 L 210.78125 330.648438 L 212.402344 329.824219 L 214.199219 329.539063 L 215.996094 329.824219 L 217.617188 330.648438 L 218.90625 331.9375 L 219.730469 333.558594 Z M 220.015625 335.355469 "/>
<path style=" stroke:none;fill-rule:nonzero;fill:rgb(80.392157%,58.431373%,4.705882%);fill-opacity:1;" d="M 185.125 176.398438 L 184.839844 178.195313 L 184.011719 179.816406 L 182.726563 181.105469 L 181.105469 181.929688 L 179.308594 182.214844 L 177.511719 181.929688 L 175.890625 181.105469 L 174.601563 179.816406 L 173.777344 178.195313 L 173.492188 176.398438 L 173.777344 174.601563 L 174.601563 172.980469 L 175.890625 171.695313 L 177.511719 170.871094 L 179.308594 170.585938 L 181.105469 170.871094 L 182.726563 171.695313 L 184.011719 172.980469 L 184.839844 174.601563 Z M 185.125 176.398438 "/>
<path style=" stroke:none;fill-rule:nonzero;fill:rgb(80.392157%,58.431373%,4.705882%);fill-opacity:1;" d="M 293.675781 381.875 L 293.390625 383.675781 L 292.566406 385.296875 L 291.28125 386.582031 L 289.660156 387.40625 L 287.863281 387.691406 L 286.066406 387.40625 L 284.441406 386.582031 L 283.15625 385.296875 L 282.332031 383.675781 L 282.046875 381.875 L 282.332031 380.078125 L 283.15625 378.457031 L 284.441406 377.171875 L 286.066406 376.347656 L 287.863281 376.0625 L 289.660156 376.347656 L 291.28125 377.171875 L 292.566406 378.457031 L 293.390625 380.078125 Z M 293.675781 381.875 "/>
<path style=" stroke:none;fill-rule:nonzero;fill:rgb(80.392157%,58.431373%,4.705882%);fill-opacity:1;" d="M 189 288.832031 L 188.714844 290.628906 L 187.890625 292.25 L 186.601563 293.535156 L 184.980469 294.363281 L 183.183594 294.644531 L 181.386719 294.363281 L 179.765625 293.535156 L 178.480469 292.25 L 177.652344 290.628906 L 177.371094 288.832031 L 177.652344 287.035156 L 178.128906 286.097656 L 178.757813 285.980469 L 180.191406 286.804688 L 181.015625 286.710938 L 182.933594 286.238281 L 183.03125 285.160156 L 182.34375 284.746094 L 180.035156 285.351563 L 178.636719 285.257813 L 179.765625 284.125 L 181.386719 283.300781 L 183.183594 283.015625 L 184.980469 283.300781 L 186.601563 284.125 L 187.890625 285.414063 L 188.714844 287.035156 Z M 189 288.832031 "/>
<path style=" stroke:none;fill-rule:nonzero;fill:rgb(80.392157%,58.431373%,4.705882%);fill-opacity:1;" d="M 154.109375 478.800781 L 153.824219 480.597656 L 152.996094 482.21875 L 151.710938 483.503906 L 150.089844 484.332031 L 150.085938 484.332031 L 148.46875 482.535156 L 144.222656 482.851563 L 143.585938 482.21875 L 142.761719 480.597656 L 142.476563 478.800781 L 142.761719 477.003906 L 143.585938 475.382813 L 144.875 474.09375 L 146.496094 473.269531 L 148.292969 472.984375 L 150.089844 473.269531 L 151.710938 474.09375 L 152.996094 475.382813 L 153.824219 477.003906 Z M 154.109375 478.800781 "/>
<path style=" stroke:none;fill-rule:nonzero;fill:rgb(80.392157%,58.431373%,4.705882%);fill-opacity:1;" d="M 189 172.523438 L 188.714844 174.320313 L 187.890625 175.941406 L 186.601563 177.226563 L 184.980469 178.054688 L 183.183594 178.339844 L 181.386719 178.054688 L 179.765625 177.226563 L 178.480469 175.941406 L 177.652344 174.320313 L 177.371094 172.523438 L 177.652344 170.726563 L 178.480469 169.105469 L 179.765625 167.816406 L 180.109375 167.644531 L 180.148438 167.667969 L 184.320313 169.011719 L 186.519531 167.777344 L 186.601563 167.816406 L 187.890625 169.105469 L 188.714844 170.726563 Z M 189 172.523438 "/>
<path style=" stroke:none;fill-rule:nonzero;fill:rgb(80.392157%,58.431373%,4.705882%);fill-opacity:1;" d="M 258.683594 335.984375 L 258.5 337.152344 L 257.675781 338.773438 L 256.386719 340.058594 L 255.195313 340.667969 L 253.664063 338.65625 L 252.601563 338.082031 L 248.421875 338.929688 L 248.265625 338.773438 L 247.4375 337.152344 L 247.152344 335.355469 L 247.4375 333.558594 L 248.265625 331.9375 L 249.550781 330.648438 L 251.171875 329.824219 L 252.96875 329.539063 L 254.765625 329.824219 L 254.964844 329.925781 L 254.984375 329.992188 L 256.160156 332.453125 Z M 253.375 341.105469 L 252.96875 341.167969 L 251.171875 340.882813 L 249.550781 340.058594 L 249.027344 339.535156 L 249.617188 339.34375 L 251.976563 339.082031 Z M 253.375 341.105469 "/>
<path style=" stroke:none;fill-rule:nonzero;fill:rgb(80.392157%,58.431373%,4.705882%);fill-opacity:1;" d="M 258.785156 339.230469 L 258.5 341.027344 L 257.675781 342.648438 L 257.566406 342.753906 L 257.507813 342.753906 L 256.035156 341.773438 L 253.664063 338.65625 L 252.601563 338.082031 L 247.160156 339.183594 L 247.4375 337.433594 L 248.265625 335.8125 L 249.550781 334.527344 L 251.171875 333.699219 L 252.96875 333.414063 L 254.765625 333.699219 L 256.386719 334.527344 L 257.675781 335.8125 L 258.5 337.433594 Z M 256.183594 344.039063 L 254.765625 344.761719 L 252.96875 345.046875 L 251.171875 344.761719 L 249.550781 343.933594 L 248.265625 342.648438 L 247.4375 341.027344 L 247.289063 340.085938 L 249.617188 339.34375 L 251.976563 339.082031 L 254.382813 342.558594 Z M 256.183594 344.039063 "/>
<path style=" stroke:none;fill-rule:nonzero;fill:rgb(80.392157%,58.431373%,4.705882%);fill-opacity:1;" d="M 189 354.738281 L 188.886719 355.441406 L 188.667969 355.527344 L 188.3125 355.957031 L 186.378906 356.386719 L 183.8125 354.640625 L 181.320313 349.242188 L 181.386719 349.207031 L 183.183594 348.921875 L 184.980469 349.207031 L 186.601563 350.035156 L 187.890625 351.320313 L 188.714844 352.941406 Z M 188.152344 357.640625 L 187.890625 358.15625 L 186.601563 359.441406 L 184.980469 360.269531 L 183.183594 360.554688 L 181.386719 360.269531 L 179.765625 359.441406 L 179.164063 358.839844 L 179.910156 359.441406 L 180.433594 358.429688 L 177.679688 353.460938 L 178.242188 352.835938 L 180.867188 352.449219 L 181.503906 352.695313 L 181.914063 353.875 L 182.898438 354.332031 L 184.078125 356.789063 L 185.613281 357.902344 Z M 188.152344 357.640625 "/>
<path style=" stroke:none;fill-rule:nonzero;fill:rgb(80.392157%,58.431373%,4.705882%);fill-opacity:1;" d="M 150.230469 261.691406 L 149.945313 263.488281 L 149.121094 265.109375 L 147.832031 266.398438 L 146.210938 267.222656 L 144.414063 267.507813 L 142.617188 267.222656 L 140.996094 266.398438 L 140.453125 265.851563 L 140.917969 265.085938 L 143.644531 263.800781 L 144.390625 261.886719 L 144.195313 260.621094 L 142.601563 256.71875 L 142.136719 256.40625 L 142.617188 256.160156 L 144.414063 255.875 L 146.210938 256.160156 L 147.832031 256.988281 L 149.121094 258.273438 L 149.945313 259.894531 Z M 150.230469 261.691406 "/>
<path style=" stroke:none;fill-rule:nonzero;fill:rgb(80.392157%,58.431373%,4.705882%);fill-opacity:1;" d="M 181.246094 288.832031 L 180.960938 290.628906 L 180.136719 292.25 L 178.847656 293.535156 L 177.226563 294.363281 L 175.429688 294.644531 L 173.632813 294.363281 L 172.011719 293.535156 L 171.859375 293.382813 L 174.074219 288.722656 L 176.464844 286.417969 L 178.757813 285.980469 L 180.191406 286.804688 L 180.808594 286.734375 L 180.960938 287.035156 Z M 171.902344 284.238281 L 172.011719 284.125 L 173.632813 283.300781 L 175.429688 283.015625 L 177.226563 283.300781 L 178.847656 284.125 L 180.066406 285.34375 L 180.035156 285.351563 L 174.65625 284.980469 L 172.566406 284.292969 Z M 171.902344 284.238281 "/>
<path style=" stroke:none;fill-rule:nonzero;fill:rgb(80.392157%,58.431373%,4.705882%);fill-opacity:1;" d="M 185.125 242.308594 L 184.839844 244.105469 L 184.011719 245.726563 L 182.726563 247.011719 L 181.105469 247.839844 L 179.308594 248.125 L 177.511719 247.839844 L 175.890625 247.011719 L 174.601563 245.726563 L 173.777344 244.105469 L 173.492188 242.308594 L 173.679688 241.125 L 178.0625 241.875 L 182.921875 243.167969 L 185.117188 242.261719 Z M 174.125 239.832031 L 174.601563 238.890625 L 175.890625 237.601563 L 177.511719 236.777344 L 179.308594 236.492188 L 180.691406 236.710938 L 180.578125 237.003906 L 174.761719 240.109375 Z M 174.125 239.832031 "/>
<path style=" stroke:none;fill-rule:nonzero;fill:rgb(80.392157%,58.431373%,4.705882%);fill-opacity:1;" d="M 224.046875 472.015625 L 223.890625 471.046875 L 224.175781 469.25 L 224.964844 467.699219 L 227.316406 466.367188 L 232.550781 467.761719 L 234.171875 469.894531 L 231.242188 473.621094 L 229.960938 474.269531 L 228.117188 474.644531 Z M 227.726563 465.609375 L 227.910156 465.515625 L 229.707031 465.230469 L 231.503906 465.515625 L 232.105469 465.820313 L 231.738281 466.042969 Z M 227.726563 465.609375 "/>
<path style=" stroke:none;fill-rule:nonzero;fill:rgb(80.392157%,58.431373%,4.705882%);fill-opacity:1;" d="M 300.796875 445.640625 L 299.492188 445.847656 L 297.695313 445.5625 L 296.074219 444.734375 L 294.789063 443.449219 L 293.960938 441.828125 L 293.675781 440.03125 L 293.910156 438.5625 L 299.742188 437.757813 L 300.988281 440.148438 Z M 300.796875 445.640625 "/>
<path style=" stroke:none;fill-rule:nonzero;fill:rgb(80.392157%,58.431373%,4.705882%);fill-opacity:1;" d="M 227.769531 471.046875 L 227.484375 472.84375 L 226.949219 473.890625 L 222.296875 470.886719 L 220.207031 471.1875 L 221.476563 469.683594 L 226.09375 467.0625 L 226.660156 467.628906 L 227.484375 469.25 Z M 217.136719 467.847656 L 217.25 467.628906 L 218.535156 466.339844 L 220.15625 465.515625 L 221.953125 465.230469 L 223.75 465.515625 L 225.050781 466.179688 L 219.566406 468.449219 Z M 217.136719 467.847656 "/>
<path style=" stroke:none;fill-rule:nonzero;fill:rgb(80.392157%,58.431373%,4.705882%);fill-opacity:1;" d="M 175.460938 319.445313 L 175.890625 319.019531 L 177.511719 318.191406 L 179.308594 317.90625 L 181.105469 318.191406 L 182.726563 319.019531 L 184.011719 320.304688 L 184.253906 320.78125 L 179.199219 323.441406 L 177.335938 322.691406 Z M 175.460938 319.445313 "/>
</g>
</svg>
