<?xml version="1.0" encoding="UTF-8"?>
<svg xmlns="http://www.w3.org/2000/svg" xmlns:xlink="http://www.w3.org/1999/xlink" width="378pt" height="504pt" viewBox="0 0 378 504" version="1.1">
<g id="data">
<rect x="0" y="0" width="378" height="504" style="fill:rgb(100%,100%,100%);fill-opacity:1;stroke:none;"/>
<path style=" stroke:none;fill-rule:nonzero;fill:rgb(100%,100%,100%);fill-opacity:1;" d="M 53.308594 504 L 324.691406 504 L 324.691406 0 L 53.308594 0 Z M 53.308594 504 "/>
<path style=" stroke:none;fill-rule:nonzero;fill:rgb(22.745098%,53.333333%,16.078431%);fill-opacity:1;" d="M 148.3125 432.277344 L 149.269531 432.308594 L 149.113281 432.746094 Z M 167.402344 447.566406 L 167.703125 446.582031 L 169.484375 447.285156 L 170.039063 448.109375 L 170.757813 448.421875 L 173.15625 448.464844 L 180.570313 447.503906 L 181.109375 445.632813 L 181.210938 443.15625 L 182.519531 440.25 L 190.867188 432.195313 L 193.457031 428.578125 L 193.410156 428.769531 L 193.34375 430.953125 L 193.683594 433.109375 L 194.421875 435.167969 L 195.53125 437.046875 L 196.96875 438.6875 L 198.691406 440.03125 L 196.199219 442.921875 L 194.746094 446.589844 L 194.5 449.128906 L 194.816406 451.660156 L 194.289063 455.082031 L 194.753906 458.382813 L 196.496094 461.945313 L 199.445313 464.789063 L 203.195313 466.433594 L 207.285156 466.675781 L 211.085938 465.542969 L 214.199219 463.292969 L 217.632813 462.976563 L 220.824219 461.664063 L 223.902344 458.992188 L 225.832031 455.539063 L 229.105469 457.984375 L 232.898438 459.132813 L 236.851563 458.941406 L 240.625 457.363281 L 243.300781 454.984375 L 245.214844 451.660156 L 247.410156 449.046875 L 248.574219 446.515625 L 249.09375 443.90625 L 250.582031 441.816406 L 251.578125 439.453125 L 252.046875 436.539063 L 251.769531 433.601563 L 250.765625 430.832031 L 249.09375 428.398438 L 251.214844 428.027344 L 253.34375 427.210938 L 255.273438 425.996094 L 256.847656 424.523438 L 259.445313 426.601563 L 262.523438 427.859375 L 265.707031 428.199219 L 268.980469 427.617188 L 272.167969 425.984375 L 274.632813 423.5625 L 276.230469 420.644531 L 277.703125 419.074219 L 278.859375 417.257813 L 279.699219 415.136719 L 280.109375 412.890625 L 281.8125 415.0625 L 283.984375 416.769531 L 281.789063 420.371094 L 281.121094 423.992188 L 280.71875 424.230469 L 281.035156 424.453125 L 281.023438 424.523438 L 281.789063 428.671875 L 283.933594 432.191406 L 283.441406 432.558594 L 282.84375 432.699219 L 279.644531 432.160156 L 274.75 433.78125 L 272.609375 436.117188 L 274.253906 436.015625 L 275.152344 434.667969 L 276.683594 434.363281 L 278.285156 434.328125 L 281.054688 434.949219 L 281.828125 435.589844 L 281.691406 436.328125 L 279.554688 436.347656 L 277.390625 437.65625 L 277.96875 438.546875 L 281.382813 438.964844 L 281.59375 439.019531 L 280.78125 440.402344 L 279.847656 443.976563 L 280.109375 447.785156 L 277.816406 450.351563 L 276.378906 453.476563 L 275.917969 456.5 L 276.191406 462.457031 L 274.925781 462.746094 L 273.519531 462.15625 L 270.480469 461.734375 L 267.4375 462.121094 L 264.601563 463.292969 L 260.722656 462.628906 L 256.847656 463.292969 L 254.445313 461.234375 L 251.457031 459.859375 L 247.070313 459.121094 L 243.769531 459.402344 L 239.921875 461.074219 L 237.546875 463.292969 L 231.496094 463.171875 L 231.378906 463.496094 L 232.574219 464.835938 L 232.214844 465.75 L 231.738281 466.042969 L 226.691406 465.496094 L 219.566406 468.449219 L 217.054688 467.824219 L 210.222656 468.96875 L 208.164063 468.875 L 207.273438 468.058594 L 206.238281 469.769531 L 209.429688 471.089844 L 209.714844 470.9375 L 210.1875 472.128906 L 209.566406 473.890625 L 206.84375 474.453125 L 204.453125 473.097656 L 203.015625 472.699219 L 197.625 472.007813 L 196.175781 472.65625 L 195.679688 473.863281 L 195.816406 474.75 L 195.308594 474.839844 L 194.851563 473.972656 L 192.660156 472.347656 L 188.214844 468.785156 L 185.304688 467.542969 L 181.421875 466.890625 L 178.753906 466.984375 L 176.175781 467.6875 L 173.824219 468.957031 L 171.824219 470.730469 L 173.117188 468.820313 L 174.007813 466.691406 L 174.460938 464.429688 L 174.457031 462.125 L 173.699219 459.015625 L 171.554688 455.539063 L 170.996094 452.808594 L 169.871094 450.398438 L 168.492188 448.582031 Z M 167.289063 439.105469 L 166.351563 437.148438 L 168.839844 437.613281 L 171.242188 437.550781 L 173.34375 437.070313 L 175.429688 436.152344 L 177.949219 435.679688 L 178.1875 435.5625 L 177.398438 436.808594 L 177.039063 438.671875 L 176.445313 439.273438 L 174.058594 439.917969 L 170.558594 439.851563 Z M 182.097656 433.246094 L 183.6875 431.75 L 185.199219 429.222656 L 186.03125 426.394531 L 186.136719 423.578125 L 185.519531 420.699219 L 187.433594 422.402344 L 189.792969 423.691406 L 192.257813 424.386719 L 194.816406 424.523438 L 194.070313 426.226563 L 192.90625 427.300781 L 190.570313 429.988281 L 189.222656 431.449219 L 185.628906 432.957031 L 183.714844 433.246094 L 182.441406 433.0625 Z M 283.785156 436.363281 L 282.34375 437.875 L 282.164063 437.605469 L 282.484375 436.070313 Z M 236.867188 463.929688 L 236.390625 464.375 L 235.535156 465.753906 L 235.136719 465.644531 L 236.523438 463.683594 Z M 233.941406 469.589844 L 233.726563 470.460938 L 233.214844 471.109375 L 231.464844 471.421875 L 229.332031 472.234375 L 227.503906 473.371094 L 226.945313 473.890625 L 222.296875 470.886719 L 220.207031 471.1875 L 221.476563 469.683594 L 227.316406 466.367188 L 232.550781 467.761719 Z M 163.800781 474.921875 L 167.359375 474.050781 L 170.566406 472.035156 L 170.171875 472.59375 L 168.992188 473.234375 L 168.214844 474.070313 L 167.203125 476.179688 L 165.6875 480.613281 L 164.773438 479.660156 L 160.988281 477.871094 Z M 144.414063 474.921875 L 147.320313 477.9375 L 151.101563 479.730469 L 148.425781 482.539063 L 148.226563 482.550781 L 146.84375 479.964844 L 144.738281 477.730469 L 142.121094 476.121094 L 139.171875 475.253906 L 136.101563 475.191406 L 133.238281 475.886719 L 130.644531 477.28125 L 128.152344 479.488281 L 126.617188 481.367188 L 125.460938 483.640625 L 124.738281 487.003906 L 125.019531 490.285156 L 124.039063 490.597656 L 123.742188 491.804688 L 123.558594 492.003906 L 122.34375 493.933594 L 121.5625 495.941406 L 121.289063 497.433594 L 120.710938 497.632813 L 119.265625 495.839844 L 114.984375 492.316406 L 112.371094 491.03125 L 109.523438 490.429688 L 111.699219 490.351563 L 113.941406 489.824219 L 116.035156 488.867188 L 117.804688 487.601563 L 119.835938 485.304688 L 120.585938 483.808594 L 121.425781 483.085938 L 122.242188 482.167969 L 124.164063 481.265625 L 126.570313 479.160156 L 127.960938 477.164063 L 128.90625 474.921875 L 131.703125 473.652344 L 134.066406 471.695313 L 135.589844 469.632813 L 136.660156 467.167969 L 138.832031 465.460938 L 140.539063 463.292969 L 140.234375 466.464844 L 140.839844 469.71875 L 142.269531 472.570313 Z M 144.414063 474.921875 "/>
<path style=" stroke:none;fill-rule:nonzero;fill:rgb(80.392157%,58.431373%,4.705882%);fill-opacity:1;" d="M 204.507813 381.875 L 204.222656 383.675781 L 203.398438 385.296875 L 202.109375 386.582031 L 200.488281 387.40625 L 198.691406 387.691406 L 196.894531 387.40625 L 195.273438 386.582031 L 193.988281 385.296875 L 193.160156 383.675781 L 192.875 381.875 L 193.160156 380.078125 L 193.988281 378.457031 L 195.273438 377.171875 L 196.894531 376.347656 L 198.691406 376.0625 L 200.488281 376.347656 L 202.109375 377.171875 L 203.398438 378.457031 L 204.222656 380.078125 Z M 204.507813 381.875 "/>
<path style=" stroke:none;fill-rule:nonzero;fill:rgb(80.392157%,58.431373%,4.705882%);fill-opacity:1;" d="M 227.769531 401.261719 L 227.484375 403.058594 L 226.660156 404.679688 L 225.371094 405.964844 L 223.75 406.792969 L 221.953125 407.078125 L 220.15625 406.792969 L 218.535156 405.964844 L 217.25 404.679688 L 216.421875 403.058594 L 216.136719 401.261719 L 216.421875 399.464844 L 217.25 397.84375 L 218.535156 396.558594 L 220.15625 395.730469 L 221.953125 395.445313 L 223.75 395.730469 L 225.371094 396.558594 L 226.660156 397.84375 L 227.484375 399.464844 Z M 227.769531 401.261719 "/>
<path style=" stroke:none;fill-rule:nonzero;fill:rgb(80.392157%,58.431373%,4.705882%);fill-opacity:1;" d="M 216.136719 405.136719 L 215.855469 406.933594 L 215.027344 408.558594 L 213.742188 409.84375 L 212.121094 410.667969 L 210.324219 410.953125 L 208.527344 410.667969 L 206.90625 409.84375 L 205.617188 408.558594 L 204.792969 406.933594 L 204.507813 405.136719 L 204.792969 403.339844 L 205.617188 401.71875 L 206.90625 400.433594 L 208.527344 399.609375 L 210.324219 399.324219 L 212.121094 399.609375 L 213.742188 400.433594 L 215.027344 401.71875 L 215.855469 403.339844 Z M 216.136719 405.136719 "/>
<path style=" stroke:none;fill-rule:nonzero;fill:rgb(80.392157%,58.431373%,4.705882%);fill-opacity:1;" d="M 177.371094 246.183594 L 177.085938 247.980469 L 176.257813 249.601563 L 174.972656 250.890625 L 173.351563 251.714844 L 171.554688 252 L 169.757813 251.714844 L 168.136719 250.890625 L 166.847656 249.601563 L 166.023438 247.980469 L 165.738281 246.183594 L 166.023438 244.386719 L 166.847656 242.765625 L 168.136719 241.480469 L 170.363281 240.558594 L 174.972656 241.480469 L 176.257813 242.765625 L 177.085938 244.386719 Z M 177.371094 246.183594 "/>
<path style=" stroke:none;fill-rule:nonzero;fill:rgb(80.392157%,58.431373%,4.705882%);fill-opacity:1;" d="M 306.746094 394.355469 L 305.167969 395.160156 L 303.371094 395.445313 L 301.570313 395.160156 L 299.949219 394.335938 L 298.664063 393.050781 L 297.839844 391.429688 L 297.554688 389.628906 L 297.839844 387.832031 L 298.664063 386.210938 L 299.949219 384.925781 L 301.570313 384.101563 L 303.371094 383.816406 L 305.167969 384.101563 L 306.78125 384.921875 L 307.179688 391.25 Z M 306.746094 394.355469 "/>
<path style=" stroke:none;fill-rule:nonzero;fill:rgb(80.392157%,58.431373%,4.705882%);fill-opacity:1;" d="M 185.125 242.308594 L 184.839844 244.105469 L 184.011719 245.726563 L 182.726563 247.011719 L 181.105469 247.839844 L 179.308594 248.125 L 177.511719 247.839844 L 175.890625 247.011719 L 174.601563 245.726563 L 173.777344 244.105469 L 173.492188 242.308594 L 173.679688 241.125 L 178.0625 241.875 L 182.921875 243.167969 Z M 174.125 239.832031 L 174.601563 238.890625 L 175.890625 237.601563 L 177.511719 236.777344 L 179.308594 236.492188 L 180.691406 236.710938 L 180.578125 237.003906 L 174.761719 240.109375 Z M 174.125 239.832031 "/>
<path style=" stroke:none;fill-rule:nonzero;fill:rgb(80.392157%,58.431373%,4.705882%);fill-opacity:1;" d="M 154.109375 451.660156 L 153.824219 453.457031 L 152.996094 455.078125 L 151.710938 456.367188 L 150.089844 457.191406 L 148.292969 457.476563 L 146.496094 457.191406 L 144.453125 455.945313 L 145.761719 455.429688 L 148.429688 452.488281 L 148.105469 447.519531 L 151.058594 446.625 L 151.710938 446.957031 L 152.996094 448.242188 L 153.824219 449.863281 Z M 154.109375 451.660156 "/>
<path style=" stroke:none;fill-rule:nonzero;fill:rgb(80.392157%,58.431373%,4.705882%);fill-opacity:1;" d="M 189 242.308594 L 188.714844 244.105469 L 187.890625 245.726563 L 186.601563 247.011719 L 184.980469 247.839844 L 183.183594 248.125 L 181.386719 247.839844 L 179.765625 247.011719 L 178.480469 245.726563 L 177.652344 244.105469 L 177.371094 242.308594 L 177.453125 241.773438 L 182.921875 243.167969 L 186.398438 241.730469 L 187.949219 239.003906 L 188.714844 240.511719 Z M 189 242.308594 "/>
<path style=" stroke:none;fill-rule:nonzero;fill:rgb(80.392157%,58.431373%,4.705882%);fill-opacity:1;" d="M 165.738281 432.277344 L 165.453125 434.074219 L 164.078125 436.246094 L 161.371094 433.375 L 159.03125 429.199219 L 155.65625 429.589844 L 154.621094 430.027344 L 155.21875 428.859375 L 156.503906 427.570313 L 158.125 426.746094 L 159.921875 426.460938 L 161.71875 426.746094 L 163.339844 427.570313 L 164.628906 428.859375 L 165.453125 430.480469 Z M 165.738281 432.277344 "/>
<path style=" stroke:none;fill-rule:nonzero;fill:rgb(80.392157%,58.431373%,4.705882%);fill-opacity:1;" d="M 88.429688 500.046875 L 88.566406 499.308594 L 88.941406 499.117188 L 89.34375 499.789063 Z M 88.429688 500.046875 "/>
</g>
</svg>
