<?xml version="1.0" encoding="UTF-8"?>
<svg xmlns="http://www.w3.org/2000/svg" xmlns:xlink="http://www.w3.org/1999/xlink" width="378pt" height="504pt" viewBox="0 0 378 504" version="1.1">
<g id="data">
<rect x="0" y="0" width="378" height="504" style="fill:rgb(100%,100%,100%);fill-opacity:1;stroke:none;"/>
<path style=" stroke:none;fill-rule:nonzero;fill:rgb(100%,100%,100%);fill-opacity:1;" d="M 53.308594 504 L 324.691406 504 L 324.691406 0 L 53.308594 0 Z M 53.308594 504 "/>
<path style=" stroke:none;fill-rule:nonzero;fill:rgb(22.745098%,53.333333%,16.078431%);fill-opacity:1;" d="M 148.3125 432.277344 L 149.269531 432.308594 L 149.113281 432.746094 Z M 167.441406 447.554688 L 167.585938 447.242188 L 167.730469 446.59375 L 169.484375 447.285156 L 170.039063 448.109375 L 170.757813 448.421875 L 173.15625 448.464844 L 180.570313 447.503906 L 181.109375 445.632813 L 181.210938 443.15625 L 182.519531 440.25 L 190.867188 432.195313 L 195.792969 425.3125 L 197.324219 424.710938 L 196.597656 425.675781 L 195.519531 428.140625 L 195.011719 431.300781 L 195.386719 434.476563 L 196.613281 437.433594 L 198.691406 440.03125 L 198.691406 443.90625 L 198.019531 447.691406 L 198.539063 451.246094 L 199.503906 453.488281 L 200.914063 455.480469 L 202.710938 457.136719 L 204.8125 458.378906 L 207.503906 459.234375 L 210.324219 459.414063 L 213.558594 460.644531 L 216.238281 460.910156 L 219.035156 460.515625 L 221.652344 459.460938 L 223.941406 457.804688 L 225.832031 455.539063 L 228.992188 457.925781 L 232.640625 459.097656 L 236.601563 458.992188 L 240.296875 457.566406 L 243.21875 455.082031 L 245.214844 451.660156 L 247.273438 449.261719 L 248.492188 446.757813 L 249.09375 443.90625 L 251.195313 440.542969 L 251.984375 437.4375 L 251.894531 434.234375 L 250.933594 431.175781 L 249.09375 428.398438 L 251.4375 426.511719 L 254.960938 422.230469 L 256.246094 419.617188 L 256.847656 416.769531 L 258.9375 418.257813 L 261.300781 419.253906 L 263.957031 419.714844 L 266.519531 419.570313 L 269.695313 418.554688 L 272.355469 416.769531 L 274.476563 416.394531 L 276.492188 415.636719 L 278.433594 414.441406 L 280.109375 412.890625 L 287.863281 412.890625 L 290.179688 413.453125 L 292.6875 413.519531 L 289.214844 415.472656 L 285.953125 418.289063 L 284.265625 420.390625 L 283.238281 422.464844 L 283.148438 422.800781 L 280.71875 424.230469 L 282.339844 425.378906 L 282.605469 425.285156 L 282.496094 427.003906 L 282.8125 429.292969 L 283.960938 432.167969 L 283.441406 432.558594 L 282.84375 432.699219 L 279.644531 432.160156 L 274.75 433.78125 L 272.609375 436.117188 L 274.253906 436.015625 L 275.152344 434.667969 L 276.683594 434.363281 L 278.285156 434.328125 L 281.054688 434.949219 L 281.828125 435.589844 L 281.691406 436.328125 L 279.554688 436.347656 L 277.390625 437.65625 L 277.96875 438.546875 L 281.382813 438.964844 L 286.863281 440.339844 L 289.394531 439.9375 L 290.027344 439.566406 L 290.46875 439.839844 L 293.425781 440.710938 L 296.503906 440.777344 L 299.492188 440.03125 L 299.777344 443.585938 L 299.34375 445.972656 L 298.488281 448.101563 L 297.226563 450.023438 L 297.054688 450.199219 L 296.972656 450.242188 L 295.839844 450.375 L 293.800781 451.175781 L 293.011719 450.964844 L 290.3125 450.886719 L 287.671875 451.433594 L 285.339844 452.503906 L 282.417969 455 L 280.992188 457.140625 L 280.109375 459.414063 L 277.9375 461.121094 L 277.042969 462.261719 L 274.910156 462.746094 L 273.394531 462.121094 L 270.480469 461.734375 L 267.4375 462.121094 L 264.601563 463.292969 L 260.722656 462.628906 L 256.847656 463.292969 L 254.683594 461.484375 L 252.03125 460.207031 L 249.140625 459.636719 L 246.199219 459.8125 L 243.167969 460.832031 L 240.625 462.554688 L 238.953125 464.453125 L 237.714844 463.296875 L 231.496094 463.171875 L 231.378906 463.496094 L 232.574219 464.835938 L 232.214844 465.75 L 231.738281 466.042969 L 226.691406 465.496094 L 219.566406 468.449219 L 217.054688 467.824219 L 210.222656 468.96875 L 208.164063 468.875 L 207.273438 468.058594 L 206.238281 469.769531 L 209.429688 471.089844 L 209.714844 470.9375 L 210.1875 472.128906 L 209.566406 473.890625 L 206.84375 474.453125 L 204.453125 473.097656 L 203.015625 472.699219 L 197.625 472.007813 L 196.175781 472.65625 L 195.679688 473.863281 L 195.832031 474.871094 L 196.757813 475.523438 L 196.488281 476.304688 L 195.917969 475.996094 L 194.851563 473.972656 L 190.878906 471.027344 L 188.855469 469.199219 L 186.628906 467.992188 L 184.191406 467.296875 L 181.183594 467.007813 L 178.175781 467.316406 L 175.863281 467.992188 L 173.636719 469.199219 L 171 471.570313 L 170.148438 472.605469 L 168.992188 473.234375 L 168.214844 474.070313 L 167.203125 476.179688 L 165.742188 480.460938 L 163.449219 478.839844 L 160.824219 477.828125 L 157.902344 477.476563 L 159.765625 476.363281 L 161.476563 474.835938 L 162.855469 472.996094 L 163.800781 471.046875 L 166.402344 468.882813 L 169.371094 465.433594 L 170.605469 463.496094 L 171.539063 460.984375 L 171.867188 458.453125 L 171.425781 454.53125 L 170.824219 452.332031 L 169.453125 449.765625 Z M 167.292969 439.105469 L 166.699219 437.730469 L 165.25 435.691406 L 170.28125 436.75 L 173.707031 436.617188 L 178.273438 435.421875 L 177.398438 436.808594 L 177.039063 438.671875 L 176.445313 439.273438 L 174.058594 439.917969 L 170.558594 439.851563 Z M 182.3125 433.128906 L 183.269531 432.246094 L 185.4375 428.636719 L 186.175781 424.492188 L 185.390625 420.355469 L 183.183594 416.769531 L 185.53125 414.882813 L 189.050781 410.597656 L 190.339844 407.988281 L 190.9375 405.136719 L 193.515625 404 L 195.742188 402.277344 L 197.554688 399.960938 L 198.691406 397.382813 L 200.140625 400.09375 L 202.246094 402.332031 L 204.863281 403.941406 L 207.683594 404.785156 L 209.988281 404.9375 L 212.398438 404.597656 L 215.480469 403.339844 L 218.078125 401.261719 L 221.953125 401.261719 L 219.785156 402.96875 L 218.078125 405.136719 L 215.574219 404.988281 L 210.519531 405.519531 L 207.6875 406.699219 L 205.265625 408.578125 L 203.355469 411.140625 L 202.183594 414.238281 L 201.921875 417.40625 L 202.570313 420.644531 L 200.175781 421.875 L 198.214844 423.523438 L 198.195313 423.550781 L 198.070313 423.238281 L 197.8125 423.082031 L 196.09375 424.355469 L 192.90625 427.300781 L 190.570313 429.988281 L 189.222656 431.449219 L 185.628906 432.957031 L 183.714844 433.246094 L 182.441406 433.0625 Z M 233.214844 471.109375 L 231.464844 471.421875 L 229.332031 472.234375 L 227.402344 473.449219 L 226.9375 473.882813 L 222.296875 470.886719 L 220.207031 471.1875 L 221.476563 469.683594 L 227.316406 466.367188 L 232.550781 467.761719 L 234.171875 469.894531 Z M 108.820313 493.617188 L 109.523438 490.429688 L 113.695313 489.90625 L 117.308594 488.007813 L 119.617188 485.621094 L 120.542969 483.84375 L 121.425781 483.085938 L 122.230469 482.179688 L 124.058594 481.335938 L 126.484375 479.257813 L 127.898438 477.277344 L 128.90625 474.921875 L 131.429688 473.675781 L 133.578125 471.859375 L 135.035156 469.914063 L 136.015625 467.832031 L 136.15625 467.246094 L 138.636719 464.640625 L 138.773438 462.929688 L 140.519531 462.632813 L 140.414063 466.171875 L 141.136719 470.019531 L 142.640625 472.941406 L 144.957031 475.464844 L 146.785156 476.863281 L 148.730469 477.828125 L 150.820313 478.417969 L 152.984375 478.605469 L 150.363281 480.320313 L 148.414063 482.539063 L 147.820313 482.582031 L 145.050781 482.027344 L 142.761719 482.128906 L 140.539063 482.675781 L 138.3125 482.128906 L 135.898438 482.035156 L 133.148438 482.554688 L 130.097656 483.878906 L 127.042969 486.589844 L 125.855469 488.414063 L 125.101563 490.257813 L 124.039063 490.597656 L 123.695313 492.007813 L 122.902344 492.9375 L 121.710938 495.457031 L 121.308594 497.429688 L 120.660156 497.648438 L 120.632813 497.703125 L 118.90625 496.109375 L 117.535156 495.394531 L 117.15625 494.691406 L 115.984375 493.691406 L 112.253906 492.070313 L 111.410156 491.984375 L 110.375 492.488281 L 110.242188 494.183594 L 110.1875 494.246094 L 109.523438 494.308594 Z M 286.679688 439.636719 L 283.058594 438.976563 L 282.164063 437.605469 L 282.484375 436.070313 L 286.839844 437.054688 L 287.960938 438.832031 Z M 236.835938 466.113281 L 235.136719 465.644531 L 236.523438 463.683594 L 237.195313 464.164063 L 237.5 465.839844 Z M 236.835938 466.113281 "/>
</g>
</svg>
