<?xml version="1.0" encoding="UTF-8"?>
<svg xmlns="http://www.w3.org/2000/svg" xmlns:xlink="http://www.w3.org/1999/xlink" width="378pt" height="504pt" viewBox="0 0 378 504" version="1.1">
<g id="data">
<rect x="0" y="0" width="378" height="504" style="fill:rgb(100%,100%,100%);fill-opacity:1;stroke:none;"/>
<path style=" stroke:none;fill-rule:nonzero;fill:rgb(100%,100%,100%);fill-opacity:1;" d="M 53.308594 504 L 324.691406 504 L 324.691406 0 L 53.308594 0 Z M 53.308594 504 "/>
<path style=" stroke:none;fill-rule:nonzero;fill:rgb(22.745098%,53.333333%,16.078431%);fill-opacity:1;" d="M 148.660156 470.945313 L 150.769531 473.136719 L 153.589844 474.472656 L 155.097656 475.503906 L 155.53125 476.070313 L 155.746094 475.359375 L 156.78125 473.855469 L 159.589844 470.910156 L 160.886719 469.890625 L 162.417969 469.273438 L 165.058594 468.628906 L 167.09375 467.347656 L 167.976563 466.042969 L 168.417969 464.984375 L 168.644531 463.859375 L 168.640625 462.824219 L 168.269531 461.285156 L 166.605469 458.59375 L 165.855469 456.703125 L 165.4375 454.648438 L 164.863281 453.421875 L 164.164063 452.496094 L 163.4375 451.820313 L 162.421875 450.570313 L 161.789063 449.09375 L 161.585938 447.496094 L 161.792969 446.117188 L 164.597656 446.761719 L 166.046875 446.148438 L 167.527344 446.515625 L 169.484375 447.285156 L 170.039063 448.109375 L 170.757813 448.421875 L 173.15625 448.464844 L 180.570313 447.503906 L 181.109375 445.632813 L 181.210938 443.15625 L 182.519531 440.25 L 190.867188 432.195313 L 195.792969 425.3125 L 197.929688 424.472656 L 198.285156 423.78125 L 198.070313 423.238281 L 197.8125 423.082031 L 196.09375 424.355469 L 192.90625 427.300781 L 190.570313 429.988281 L 189.222656 431.449219 L 185.628906 432.957031 L 183.714844 433.246094 L 182.441406 433.0625 L 178.394531 435.230469 L 177.398438 436.808594 L 177.039063 438.671875 L 176.445313 439.273438 L 174.058594 439.917969 L 170.558594 439.851563 L 166.820313 439 L 166.347656 438.652344 L 161.71875 433.746094 L 162.347656 432.929688 L 163.851563 431.898438 L 165.601563 431.382813 L 167.421875 431.433594 L 169.300781 431.785156 L 170.496094 431.753906 L 171.601563 431.496094 L 173.058594 430.84375 L 174.351563 430.4375 L 176.125 430.105469 L 177.753906 429.324219 L 179.132813 428.042969 L 179.800781 426.945313 L 180.230469 425.53125 L 180.292969 424.070313 L 179.832031 421.917969 L 179.734375 420.105469 L 180.199219 418.347656 L 181.183594 416.820313 L 182.589844 415.671875 L 184.28125 415.015625 L 186.097656 414.910156 L 187.851563 415.371094 L 189.382813 416.351563 L 190.816406 417.625 L 191.914063 418.234375 L 193.230469 418.613281 L 195.128906 418.714844 L 196.953125 419.113281 L 198.558594 420.070313 L 199.777344 421.488281 L 200.480469 423.214844 L 200.605469 425.082031 L 200.128906 426.886719 L 199.464844 428.382813 L 199.214844 429.4375 L 199.167969 430.523438 L 199.324219 431.585938 L 199.71875 432.699219 L 200.261719 433.621094 L 200.976563 434.4375 L 202.269531 435.445313 L 203.542969 436.820313 L 204.3125 438.535156 L 204.496094 440.402344 L 204.074219 442.230469 L 203.09375 443.832031 L 201.242188 445.976563 L 200.457031 447.964844 L 200.351563 449.050781 L 200.585938 450.945313 L 200.5625 452.546875 L 200.164063 455.121094 L 200.382813 456.65625 L 201.269531 458.472656 L 202.734375 459.882813 L 204.578125 460.691406 L 206.625 460.8125 L 208.394531 460.296875 L 210.816406 458.5625 L 212.171875 457.84375 L 213.664063 457.5 L 216.230469 457.265625 L 217.730469 456.648438 L 219.324219 455.265625 L 220.753906 452.703125 L 221.996094 451.167969 L 223.683594 450.132813 L 225.617188 449.726563 L 227.578125 449.992188 L 229.335938 450.898438 L 231.683594 452.671875 L 233.621094 453.269531 L 235.644531 453.160156 L 237.472656 452.382813 L 238.730469 451.261719 L 240.179688 448.753906 L 240.761719 447.921875 L 242.453125 445.90625 L 243.003906 444.710938 L 243.386719 442.773438 L 244.355469 440.53125 L 245.472656 438.96875 L 245.945313 437.835938 L 246.1875 436.34375 L 246.050781 434.890625 L 245.550781 433.515625 L 244.300781 431.695313 L 243.488281 429.949219 L 243.289063 428.03125 L 243.730469 426.152344 L 244.757813 424.523438 L 246.265625 423.316406 L 248.082031 422.671875 L 249.65625 422.394531 L 250.746094 421.980469 L 251.628906 421.429688 L 252.894531 420.257813 L 254.25 419.320313 L 255.8125 418.800781 L 257.460938 418.742188 L 259.058594 419.144531 L 260.480469 419.980469 L 262.421875 421.535156 L 263.960938 422.164063 L 265.503906 422.328125 L 267.109375 422.042969 L 268.726563 421.214844 L 269.945313 420.019531 L 271.128906 417.851563 L 271.988281 416.671875 L 273.089844 415.492188 L 273.65625 414.601563 L 274.082031 413.53125 L 274.386719 411.851563 L 275.027344 410.0625 L 276.207031 408.578125 L 277.804688 407.550781 L 279.648438 407.09375 L 281.539063 407.253906 L 283.277344 408.015625 L 284.679688 409.296875 L 285.957031 410.921875 L 287.578125 412.199219 L 288.738281 413.417969 L 289.496094 414.917969 L 289.796875 416.574219 L 289.609375 418.246094 L 288.949219 419.796875 L 288.738281 420.144531 L 288.214844 419.332031 L 284.976563 421.730469 L 280.71875 424.230469 L 282.339844 425.378906 L 285.105469 424.398438 L 286.097656 423.375 L 286.894531 423.164063 L 287.132813 423.460938 L 286.9375 424.523438 L 287.3125 426.5625 L 287.515625 426.898438 L 287.632813 428.84375 L 285.6875 430.875 L 283.441406 432.558594 L 282.84375 432.699219 L 279.644531 432.160156 L 274.75 433.78125 L 272.609375 436.117188 L 274.253906 436.015625 L 275.152344 434.667969 L 276.683594 434.363281 L 278.285156 434.328125 L 281.054688 434.949219 L 281.828125 435.589844 L 281.691406 436.328125 L 279.554688 436.347656 L 277.390625 437.65625 L 277.96875 438.546875 L 281.382813 438.964844 L 286.863281 440.339844 L 288.222656 440.121094 L 288.195313 440.167969 L 286.8125 441.617188 L 286.210938 442.640625 L 285.703125 444.621094 L 285.90625 447.355469 L 285.816406 448.902344 L 285.316406 450.371094 L 284.445313 451.65625 L 282.734375 453.574219 L 282.003906 455.164063 L 281.753906 456.808594 L 281.90625 460.09375 L 281.042969 460.90625 L 278.484375 461.933594 L 274.789063 462.777344 L 272.597656 463.816406 L 270.539063 466.589844 L 269.761719 466.949219 L 259.269531 463.777344 L 256.070313 463.507813 L 247.667969 465.117188 L 246.832031 464.976563 L 245.214844 465.113281 L 243.160156 466.007813 L 242.777344 466.367188 L 242.703125 466.390625 L 242.113281 466.964844 L 242.109375 466.988281 L 241.058594 467.972656 L 238.210938 466.1875 L 238.632813 465.4375 L 239.46875 464.933594 L 237.714844 463.296875 L 231.496094 463.171875 L 231.378906 463.496094 L 232.574219 464.835938 L 232.214844 465.75 L 231.738281 466.042969 L 226.691406 465.496094 L 219.566406 468.449219 L 217.054688 467.824219 L 210.222656 468.96875 L 208.164063 468.875 L 207.273438 468.058594 L 206.238281 469.769531 L 209.429688 471.089844 L 209.714844 470.9375 L 210.1875 472.128906 L 209.566406 473.890625 L 206.84375 474.453125 L 204.453125 473.097656 L 203.015625 472.699219 L 197.625 472.007813 L 196.175781 472.65625 L 195.679688 473.863281 L 195.832031 474.871094 L 196.757813 475.523438 L 196.488281 476.304688 L 195.917969 475.996094 L 194.851563 473.972656 L 190.289063 470.589844 L 185.898438 468.519531 L 183.121094 467.984375 L 181.648438 469.066406 L 176.207031 469.78125 L 174.339844 470.335938 L 168.992188 473.234375 L 168.214844 474.070313 L 167.203125 476.179688 L 163.582031 486.78125 L 163.488281 486.710938 L 161.324219 484.460938 L 158.5 483.125 L 156.996094 482.097656 L 156.558594 481.53125 L 156.347656 482.242188 L 155.3125 483.742188 L 153.570313 485.570313 L 152.417969 486.300781 L 151.738281 486.164063 L 148.46875 482.535156 L 142.796875 482.960938 L 141.941406 483.238281 L 141.035156 482.277344 L 139.738281 481.480469 L 138.277344 481.054688 L 136.738281 481.019531 L 135.335938 481.363281 L 133.992188 482.082031 L 132.371094 483.519531 L 131.46875 484.640625 L 130.992188 485.585938 L 130.789063 486.53125 L 129.414063 488.195313 L 126.714844 489.746094 L 124.039063 490.597656 L 123.132813 494.289063 L 123.664063 495.292969 L 123.496094 496.125 L 122.722656 496.945313 L 120.660156 497.648438 L 119.628906 499.730469 L 118.675781 498.910156 L 117.96875 497.691406 L 118.09375 496.4375 L 117.15625 494.691406 L 115.984375 493.691406 L 112.253906 492.070313 L 111.410156 491.984375 L 110.375 492.488281 L 110.242188 494.183594 L 109.421875 495.128906 L 107.027344 495.621094 L 106.585938 495.449219 L 105.421875 494.488281 L 105.628906 491.574219 L 106.074219 490.5625 L 111.738281 488.078125 L 112.199219 488.253906 L 112.445313 488.9375 L 113.574219 489.15625 L 118.144531 485.910156 L 121.425781 483.085938 L 124.375 479.769531 L 125.210938 477.886719 L 124.875 476.421875 L 125.640625 474.519531 L 128.386719 473.238281 L 132.105469 472.640625 L 132.679688 471.785156 L 133.257813 469.527344 L 135.859375 467.5625 L 138.636719 464.640625 L 139.128906 458.542969 L 139.285156 457.648438 L 140.886719 457.488281 L 142.703125 457.894531 L 144.296875 458.855469 L 145.507813 460.269531 L 146.207031 461.992188 L 146.328125 463.847656 L 146.101563 466.203125 L 146.40625 467.847656 L 147.105469 469.246094 Z M 148.378906 426.476563 L 148.476563 426.464844 L 151.691406 426.566406 Z M 152.816406 426.613281 L 154.65625 426.980469 L 156.320313 427.960938 L 157.523438 429.371094 L 155.65625 429.589844 L 149.269531 432.308594 L 149.113281 432.746094 L 147.203125 431.632813 L 146.917969 429.308594 L 148.539063 428.378906 L 150.066406 428.890625 L 151.640625 428.421875 L 152.765625 427.832031 L 153.085938 427.097656 Z M 286.679688 439.636719 L 283.058594 438.976563 L 282.164063 437.605469 L 282.484375 436.070313 L 286.839844 437.054688 L 287.960938 438.832031 Z M 236.835938 466.113281 L 235.136719 465.644531 L 236.523438 463.683594 L 237.195313 464.164063 L 237.5 465.839844 Z M 228.117188 474.644531 L 222.296875 470.886719 L 220.207031 471.1875 L 221.476563 469.683594 L 227.316406 466.367188 L 232.550781 467.761719 L 234.171875 469.894531 L 231.242188 473.621094 L 229.960938 474.269531 Z M 228.117188 474.644531 "/>
<path style=" stroke:none;fill-rule:nonzero;fill:rgb(80.392157%,58.431373%,4.705882%);fill-opacity:1;" d="M 204.507813 381.875 L 204.222656 383.675781 L 203.398438 385.296875 L 202.109375 386.582031 L 200.488281 387.40625 L 198.691406 387.691406 L 196.894531 387.40625 L 195.273438 386.582031 L 193.988281 385.296875 L 193.160156 383.675781 L 192.875 381.875 L 193.160156 380.078125 L 193.988281 378.457031 L 195.273438 377.171875 L 196.894531 376.347656 L 198.691406 376.0625 L 200.488281 376.347656 L 202.109375 377.171875 L 203.398438 378.457031 L 204.222656 380.078125 Z M 204.507813 381.875 "/>
<path style=" stroke:none;fill-rule:nonzero;fill:rgb(80.392157%,58.431373%,4.705882%);fill-opacity:1;" d="M 227.769531 401.261719 L 227.484375 403.058594 L 226.660156 404.679688 L 225.371094 405.964844 L 223.75 406.792969 L 221.953125 407.078125 L 220.15625 406.792969 L 218.535156 405.964844 L 217.25 404.679688 L 216.421875 403.058594 L 216.136719 401.261719 L 216.421875 399.464844 L 217.25 397.84375 L 218.535156 396.558594 L 220.15625 395.730469 L 221.953125 395.445313 L 223.75 395.730469 L 225.371094 396.558594 L 226.660156 397.84375 L 227.484375 399.464844 Z M 227.769531 401.261719 "/>
<path style=" stroke:none;fill-rule:nonzero;fill:rgb(80.392157%,58.431373%,4.705882%);fill-opacity:1;" d="M 216.136719 405.136719 L 215.855469 406.933594 L 215.027344 408.558594 L 213.742188 409.84375 L 212.121094 410.667969 L 210.324219 410.953125 L 208.527344 410.667969 L 206.90625 409.84375 L 205.617188 408.558594 L 204.792969 406.933594 L 204.507813 405.136719 L 204.792969 403.339844 L 205.617188 401.71875 L 206.90625 400.433594 L 208.527344 399.609375 L 210.324219 399.324219 L 212.121094 399.609375 L 213.742188 400.433594 L 215.027344 401.71875 L 215.855469 403.339844 Z M 216.136719 405.136719 "/>
<path style=" stroke:none;fill-rule:nonzero;fill:rgb(80.392157%,58.431373%,4.705882%);fill-opacity:1;" d="M 177.371094 246.183594 L 177.085938 247.980469 L 176.257813 249.601563 L 174.972656 250.890625 L 173.351563 251.714844 L 171.554688 252 L 169.757813 251.714844 L 168.136719 250.890625 L 166.847656 249.601563 L 166.023438 247.980469 L 165.738281 246.183594 L 166.023438 244.386719 L 166.847656 242.765625 L 168.136719 241.480469 L 169.757813 240.652344 L 170.363281 240.558594 L 174.578125 241.277344 L 174.972656 241.480469 L 176.257813 242.765625 L 177.085938 244.386719 Z M 177.371094 246.183594 "/>
<path style=" stroke:none;fill-rule:nonzero;fill:rgb(80.392157%,58.431373%,4.705882%);fill-opacity:1;" d="M 306.746094 394.355469 L 305.167969 395.160156 L 303.371094 395.445313 L 301.570313 395.160156 L 299.949219 394.335938 L 298.664063 393.050781 L 297.839844 391.429688 L 297.554688 389.628906 L 297.839844 387.832031 L 298.664063 386.210938 L 299.949219 384.925781 L 301.570313 384.101563 L 303.371094 383.816406 L 305.167969 384.101563 L 306.78125 384.921875 L 307.179688 391.25 L 306.777344 393.191406 L 306.890625 393.976563 Z M 306.746094 394.355469 "/>
<path style=" stroke:none;fill-rule:nonzero;fill:rgb(80.392157%,58.431373%,4.705882%);fill-opacity:1;" d="M 185.125 242.308594 L 184.839844 244.105469 L 184.011719 245.726563 L 182.726563 247.011719 L 181.105469 247.839844 L 179.308594 248.125 L 177.511719 247.839844 L 175.890625 247.011719 L 174.601563 245.726563 L 173.777344 244.105469 L 173.492188 242.308594 L 173.679688 241.125 L 178.0625 241.875 L 182.921875 243.167969 L 185.117188 242.261719 Z M 174.125 239.832031 L 174.601563 238.890625 L 175.890625 237.601563 L 177.511719 236.777344 L 179.308594 236.492188 L 180.691406 236.710938 L 180.578125 237.003906 L 174.761719 240.109375 Z M 174.125 239.832031 "/>
<path style=" stroke:none;fill-rule:nonzero;fill:rgb(80.392157%,58.431373%,4.705882%);fill-opacity:1;" d="M 154.109375 451.660156 L 153.824219 453.457031 L 152.996094 455.078125 L 151.710938 456.367188 L 150.089844 457.191406 L 148.292969 457.476563 L 146.496094 457.191406 L 144.875 456.367188 L 144.453125 455.945313 L 145.761719 455.429688 L 148.429688 452.488281 L 148.105469 447.519531 L 151.058594 446.625 L 151.710938 446.957031 L 152.996094 448.242188 L 153.824219 449.863281 Z M 154.109375 451.660156 "/>
<path style=" stroke:none;fill-rule:nonzero;fill:rgb(80.392157%,58.431373%,4.705882%);fill-opacity:1;" d="M 189 242.308594 L 188.714844 244.105469 L 187.890625 245.726563 L 186.601563 247.011719 L 184.980469 247.839844 L 183.183594 248.125 L 181.386719 247.839844 L 179.765625 247.011719 L 178.480469 245.726563 L 177.652344 244.105469 L 177.371094 242.308594 L 177.453125 241.773438 L 178.0625 241.875 L 182.921875 243.167969 L 186.398438 241.730469 L 187.519531 239.417969 L 187.949219 239.003906 L 188.714844 240.511719 Z M 189 242.308594 "/>
<path style=" stroke:none;fill-rule:nonzero;fill:rgb(80.392157%,58.431373%,4.705882%);fill-opacity:1;" d="M 88.429688 500.046875 L 88.566406 499.308594 L 88.941406 499.117188 L 89.34375 499.789063 Z M 88.429688 500.046875 "/>
</g>
</svg>
