<?xml version="1.0" encoding="UTF-8"?>
<svg xmlns="http://www.w3.org/2000/svg" xmlns:xlink="http://www.w3.org/1999/xlink" width="378pt" height="504pt" viewBox="0 0 378 504" version="1.1">
<g id="data">
<rect x="0" y="0" width="378" height="504" style="fill:rgb(100%,100%,100%);fill-opacity:1;stroke:none;"/>
<path style=" stroke:none;fill-rule:nonzero;fill:rgb(100%,100%,100%);fill-opacity:1;" d="M 53.308594 504 L 324.691406 504 L 324.691406 0 L 53.308594 0 Z M 53.308594 504 "/>
<path style=" stroke:none;fill-rule:nonzero;fill:rgb(22.745098%,53.333333%,16.078431%);fill-opacity:1;" d="M 241.757813 304.875 L 243.046875 306.507813 L 245.214844 308.214844 L 243.589844 309.988281 L 242.363281 312.0625 L 240.875 317.691406 L 240.683594 320.355469 L 241.339844 323.722656 L 241.023438 326.382813 L 241.355469 329.167969 L 242.171875 331.453125 L 243.445313 333.515625 L 246.832031 337.433594 L 248.65625 338.882813 L 245.550781 339.511719 L 244.589844 338.644531 L 243.40625 338.558594 L 241.210938 339.871094 L 241.886719 340.445313 L 246.324219 340.394531 L 249.125 339.5 L 249.617188 343.421875 L 251.605469 347.148438 L 254.25 349.578125 L 257.507813 351.085938 L 261.070313 351.527344 L 264.601563 350.863281 L 264.050781 353.085938 L 263.945313 355.25 L 265.078125 361.914063 L 266.835938 365.472656 L 267.859375 366.449219 L 264.953125 369.09375 L 261.394531 373.164063 L 260.601563 374.816406 L 262.84375 374.3125 L 264.9375 375.519531 L 266.9375 378.226563 L 270.21875 378.804688 L 270.625 378.746094 L 271.910156 376.796875 L 272.234375 374.960938 L 273.40625 371.914063 L 274.707031 370.632813 L 276.425781 370.332031 L 278.574219 371.273438 L 281.085938 371.765625 L 284.527344 371.535156 L 286.558594 370.75 L 286.703125 370.742188 L 291.835938 371.289063 L 291.945313 372.421875 L 292.597656 374.636719 L 293.679688 376.679688 L 295.144531 378.46875 L 296.933594 379.933594 L 298.976563 381.015625 L 301.070313 381.648438 L 303.371094 381.875 L 301.171875 385.480469 L 300.40625 389.628906 L 301.171875 393.78125 L 303.371094 397.382813 L 303.371094 401.261719 L 301.199219 402.96875 L 299.492188 405.136719 L 295.441406 405.625 L 291.808594 407.480469 L 289.476563 409.84375 L 287.863281 412.890625 L 284.378906 413.710938 L 281.210938 415.628906 L 279.53125 417.390625 L 278.3125 419.351563 L 277.503906 421.507813 L 277.136719 423.785156 L 277.410156 427.097656 L 278.613281 430.199219 L 280.101563 432.234375 L 279.644531 432.160156 L 274.75 433.78125 L 272.609375 436.117188 L 274.253906 436.015625 L 275.152344 434.667969 L 276.683594 434.363281 L 278.285156 434.328125 L 281.054688 434.949219 L 281.828125 435.589844 L 281.691406 436.328125 L 279.554688 436.347656 L 277.390625 437.65625 L 277.96875 438.546875 L 281.382813 438.964844 L 286.476563 440.242188 L 288.347656 441.863281 L 290.597656 443.078125 L 293.0625 443.769531 L 295.617188 443.90625 L 297.320313 446.078125 L 299.492188 447.785156 L 297.25 448.191406 L 295.242188 448.972656 L 293.3125 450.1875 L 291.738281 451.660156 L 289.863281 449.960938 L 287.660156 448.707031 L 281.632813 447.21875 L 277.578125 447.398438 L 273.171875 449.113281 L 271.429688 450.433594 L 269.964844 452.054688 L 268.773438 454.035156 L 268.03125 456.089844 L 267.671875 459.535156 L 268.476563 463.292969 L 268.476563 466.5625 L 259.269531 463.777344 L 258.570313 463.71875 L 257.476563 463.363281 L 247.089844 463.128906 L 242.28125 463.5 L 239.265625 464.546875 L 239.144531 464.632813 L 237.714844 463.296875 L 231.496094 463.171875 L 231.378906 463.496094 L 232.574219 464.835938 L 232.214844 465.75 L 231.738281 466.042969 L 226.691406 465.496094 L 219.566406 468.449219 L 217.054688 467.824219 L 210.222656 468.96875 L 208.164063 468.875 L 207.273438 468.058594 L 206.238281 469.769531 L 209.429688 471.089844 L 209.714844 470.9375 L 210.1875 472.128906 L 209.566406 473.890625 L 206.84375 474.453125 L 204.453125 473.097656 L 203.015625 472.699219 L 197.625 472.007813 L 196.175781 472.65625 L 195.679688 473.863281 L 195.78125 474.523438 L 195.257813 474.742188 L 194.851563 473.972656 L 190.289063 470.589844 L 185.898438 468.519531 L 183.121094 467.984375 L 181.648438 469.066406 L 176.207031 469.78125 L 174.339844 470.335938 L 168.992188 473.234375 L 168.214844 474.070313 L 167.203125 476.179688 L 162.746094 489.226563 L 160.929688 490.242188 L 158.269531 489.722656 L 157.554688 489.058594 L 156.527344 486.851563 L 154.683594 485.4375 L 153.613281 485.542969 L 152.417969 486.300781 L 151.738281 486.164063 L 148.46875 482.535156 L 142.796875 482.960938 L 141.527344 483.375 L 141.214844 483.691406 L 139.765625 483.617188 L 137.117188 484.105469 L 136.484375 484.390625 L 134.507813 484.320313 L 132.167969 484.859375 L 129.414063 488.195313 L 126.714844 489.746094 L 124.039063 490.597656 L 123.132813 494.289063 L 123.214844 494.441406 L 122.632813 495.066406 L 121.550781 497.34375 L 120.660156 497.648438 L 120.394531 498.183594 L 118.253906 498.183594 L 117.96875 497.691406 L 118.09375 496.4375 L 117.15625 494.691406 L 115.984375 493.691406 L 112.253906 492.070313 L 111.410156 491.984375 L 110.375 492.488281 L 110.242188 494.183594 L 110.050781 494.402344 L 109.523438 494.308594 L 109.523438 490.429688 L 111.691406 488.722656 L 112.09375 488.214844 L 112.199219 488.253906 L 112.445313 488.9375 L 113.574219 489.15625 L 118.144531 485.910156 L 121.425781 483.085938 L 124.375 479.769531 L 125.210938 477.886719 L 124.875 476.421875 L 125.640625 474.519531 L 128.386719 473.238281 L 132.105469 472.640625 L 132.679688 471.785156 L 133.085938 470.199219 L 134.003906 469.871094 L 136.171875 468.496094 L 137.988281 466.679688 L 139.902344 463.203125 L 140.539063 459.414063 L 142.515625 458.503906 L 144.285156 457.242188 L 145.730469 455.441406 L 145.761719 455.429688 L 148.429688 452.488281 L 148.199219 448.945313 L 148.292969 447.785156 L 148.578125 447.375 L 151.105469 446.613281 L 157.421875 446.269531 L 159.910156 445.683594 L 164.597656 446.761719 L 166.046875 446.148438 L 167.527344 446.515625 L 169.484375 447.285156 L 170.039063 448.109375 L 170.757813 448.421875 L 173.15625 448.464844 L 180.570313 447.503906 L 181.109375 445.632813 L 181.210938 443.15625 L 182.519531 440.25 L 190.867188 432.195313 L 195.792969 425.3125 L 197.929688 424.472656 L 198.285156 423.78125 L 198.070313 423.238281 L 197.8125 423.082031 L 196.09375 424.355469 L 192.90625 427.300781 L 190.570313 429.988281 L 189.222656 431.449219 L 185.628906 432.957031 L 183.714844 433.246094 L 182.441406 433.0625 L 178.394531 435.230469 L 177.398438 436.808594 L 177.039063 438.671875 L 176.445313 439.273438 L 174.058594 439.917969 L 170.558594 439.851563 L 166.820313 439 L 166.347656 438.652344 L 161.371094 433.375 L 159.03125 429.199219 L 155.65625 429.589844 L 149.269531 432.308594 L 149.113281 432.746094 L 148.03125 432.113281 L 147.140625 431.101563 L 146.917969 429.308594 L 148.539063 428.378906 L 150.066406 428.890625 L 151.640625 428.421875 L 152.765625 427.832031 L 153.085938 427.097656 L 152.808594 426.597656 L 147.785156 426.460938 L 143.210938 423.710938 L 139.503906 423.714844 L 136.765625 424.277344 L 136.292969 426.515625 L 135.777344 427.203125 L 133.742188 427.917969 L 132.394531 427.265625 L 131.648438 427.453125 L 130.660156 428.316406 L 127.082031 428.371094 L 126.53125 428.132813 L 127.425781 426.082031 L 128.796875 425.832031 L 131.792969 424.328125 L 131.226563 422.867188 L 130.640625 424.257813 L 127.769531 424.613281 L 124.941406 424.34375 L 124.472656 421.792969 L 124.460938 421.773438 L 125.167969 421.753906 L 125.464844 421.238281 L 124.929688 417.953125 L 123.328125 417.210938 L 121.445313 417.105469 L 121.753906 416.128906 L 122.625 415.195313 L 122.894531 414.769531 L 125.933594 413.378906 L 126.539063 411.90625 L 133.074219 411.34375 L 134.871094 409.289063 L 135.753906 407.632813 L 137.585938 406.550781 L 141.359375 406.660156 L 142.21875 406.390625 L 149.359375 401.828125 L 152.136719 398.207031 L 153.054688 396.195313 L 154.199219 391.746094 L 153.734375 388.820313 L 152.566406 386.542969 L 153.179688 384.597656 L 154.652344 381.796875 L 152.269531 378.203125 L 152.683594 374.835938 L 153.175781 374.082031 L 152.804688 373.207031 L 150.203125 373.105469 L 145.449219 374.257813 L 143.757813 375.484375 L 142.039063 378.097656 L 141.65625 378.121094 L 139.164063 377.851563 L 136.660156 378 L 139.113281 374.945313 L 139.753906 373.445313 L 140.148438 373.019531 L 141.023438 372.414063 L 142.589844 371.953125 L 147.132813 367.984375 L 147.953125 364.523438 L 151.550781 360.582031 L 153.09375 359.609375 L 154.941406 359.808594 L 160.492188 357.457031 L 163.644531 357.28125 L 167.339844 357.714844 L 167.988281 357.402344 L 168.457031 357.625 L 171.226563 358.171875 L 173.921875 358.058594 L 176.277344 357.421875 L 176.960938 357.070313 L 179.910156 359.441406 L 180.433594 358.429688 L 179.007813 355.851563 L 180.339844 354.765625 L 181.648438 353.113281 L 181.914063 353.875 L 182.898438 354.332031 L 184.078125 356.789063 L 184.789063 357.304688 L 183.527344 359.820313 L 182.902344 362.816406 L 183.269531 367.78125 L 183.738281 369.914063 L 184.917969 372.480469 L 186.773438 374.773438 L 188.925781 376.398438 L 191.394531 377.484375 L 197.0625 378.554688 L 199.5 378.644531 L 202.398438 378.074219 L 205.058594 376.789063 L 207.308594 374.875 L 209.003906 372.460938 L 210.09375 369.441406 L 210.324219 366.371094 L 210.953125 363.382813 L 210.851563 360.714844 L 210.164063 358.132813 L 212.714844 358.605469 L 216 358.578125 L 218.390625 358.089844 L 220.515625 357.171875 L 222.515625 355.769531 L 224.253906 353.878906 L 225.535156 351.652344 L 226.292969 349.195313 L 226.445313 345.863281 L 225.601563 342.371094 L 224.222656 339.617188 L 222.261719 337.40625 L 219.578125 335.652344 L 216.519531 334.691406 L 213.3125 334.609375 L 210.324219 335.355469 L 211.988281 333.40625 L 213.1875 331.140625 L 213.84375 328.796875 L 213.988281 326.238281 L 213.601563 323.832031 L 212.667969 321.445313 L 211.3125 319.421875 L 209.464844 317.644531 L 207.042969 316.210938 L 204.09375 315.3125 L 201.273438 315.183594 L 198.503906 315.742188 L 195.949219 316.949219 L 193.761719 318.734375 L 192.070313 320.996094 L 190.9375 323.722656 L 188.644531 321.734375 L 187.664063 321.253906 L 187.71875 320.933594 L 187.855469 317.484375 L 185.03125 320.242188 L 182.1875 319.722656 L 179.308594 319.847656 L 177.601563 317.675781 L 175.429688 315.96875 L 173.359375 313.449219 L 172.460938 312.773438 L 172.289063 311.832031 L 171.234375 310.285156 L 171.179688 309.96875 L 170.363281 307.839844 L 169.148438 305.910156 L 167.675781 304.339844 L 167.632813 303.933594 L 169.164063 299.058594 L 173.679688 289.554688 L 175.429688 288.832031 L 179.5625 289.492188 L 185.484375 288.601563 L 189.183594 287.164063 L 192.183594 284.566406 L 194.136719 281.109375 L 194.816406 277.199219 L 198.691406 277.199219 L 202.570313 277.863281 L 206.445313 277.199219 L 207.976563 280.570313 L 205.957031 281.609375 L 204.179688 283.019531 L 201.546875 286.109375 L 200.375 287.949219 L 199.535156 290.105469 L 199.136719 292.382813 L 199.195313 294.691406 L 199.671875 296.824219 L 200.601563 298.941406 L 201.84375 300.734375 L 203.503906 302.347656 L 205.335938 303.535156 L 207.480469 304.402344 L 209.75 304.824219 L 211.9375 304.804688 L 214.199219 304.339844 L 214.378906 307.15625 L 215.234375 309.851563 L 216.714844 312.257813 L 218.628906 314.160156 L 221.761719 315.914063 L 225.148438 316.621094 L 231.753906 315.789063 L 234.335938 315.007813 L 237.171875 313.257813 L 239.394531 310.773438 L 240.859375 307.636719 L 241.292969 304.65625 Z M 284.117188 436.441406 L 284.960938 438.242188 L 285.898438 439.496094 L 283.058594 438.976563 L 282.164063 437.605469 L 282.484375 436.070313 Z M 237.488281 465.773438 L 237.242188 465.945313 L 236.835938 466.113281 L 235.136719 465.644531 L 236.523438 463.683594 L 237.195313 464.164063 Z M 234.167969 469.886719 L 234.140625 469.9375 L 232.75 471.703125 L 231.414063 472.753906 L 230.398438 474.046875 L 229.960938 474.269531 L 229.28125 474.40625 L 228.152344 473.042969 L 226.128906 471.457031 L 223.808594 470.355469 L 221.367188 469.808594 L 221.476563 469.683594 L 227.316406 466.367188 L 232.550781 467.761719 Z M 144.429688 361.890625 L 144.5625 361.117188 L 144.414063 354.738281 L 146.585938 353.03125 L 147.800781 351.484375 L 149.566406 352.007813 L 151.039063 355.578125 L 155.546875 356.503906 L 154.066406 358.859375 L 150.984375 360.816406 L 147.425781 363.976563 L 146.109375 363.875 Z M 182.453125 351.695313 L 183.007813 350.5625 L 183.617188 348.066406 L 183.664063 345.5 L 183.183594 343.109375 L 186.019531 342.53125 L 188.730469 341.203125 L 192.140625 344.054688 L 194.988281 345.484375 L 198.371094 346.09375 L 201.785156 345.691406 L 201.882813 348.320313 L 202.570313 350.863281 L 199.710938 349.71875 L 196.652344 349.367188 L 193.609375 349.832031 L 190.792969 351.078125 L 188.492188 352.921875 L 185.84375 356.027344 L 183.8125 354.640625 Z M 159.601563 293.382813 L 158.472656 292.964844 L 154.800781 292.722656 L 152.8125 291.28125 L 154 291.609375 L 156.175781 291.792969 L 160.195313 291.027344 L 163.800781 288.832031 L 164.914063 289.289063 L 163.3125 290.011719 L 161.832031 291.855469 Z M 169.179688 219.046875 L 172.566406 217.648438 L 175.429688 215.167969 L 177.890625 217.386719 L 180.753906 218.785156 L 183.890625 219.351563 L 187.0625 219.046875 L 187.0625 220.722656 L 185.519531 221.085938 L 182.847656 221.226563 L 177.945313 225.109375 L 174.101563 221.566406 L 171.792969 220.007813 Z M 187.0625 221.335938 L 187.0625 222.921875 L 184.914063 223.742188 L 182.96875 224.972656 L 181.304688 226.558594 L 179.984375 228.441406 L 178.308594 225.65625 L 179.84375 225.195313 L 184.609375 222.886719 L 186.457031 221.386719 Z M 168.027344 177.585938 L 167.675781 176.398438 L 168.308594 174.1875 L 168.492188 171.894531 L 168.183594 170.171875 L 170.480469 169.527344 L 170.492188 169.949219 L 171.554688 169.839844 L 172.597656 169.0625 L 174.679688 169.890625 L 172.765625 171.269531 L 170.191406 173.859375 L 168.933594 175.621094 Z M 127.878906 213.820313 L 129.832031 212.308594 L 131.582031 210.101563 L 132.785156 207.414063 L 132.785156 211.292969 L 130.527344 213.089844 L 128.558594 215.4375 L 128.550781 215.441406 L 127.980469 214.949219 Z M 125.398438 221.097656 L 125.15625 221.933594 L 125.140625 221.277344 Z M 125.398438 221.097656 "/>
<path style=" stroke:none;fill-rule:nonzero;fill:rgb(80.392157%,58.431373%,4.705882%);fill-opacity:1;" d="M 192.875 257.816406 L 192.59375 259.613281 L 191.765625 261.234375 L 190.480469 262.519531 L 188.859375 263.347656 L 187.0625 263.628906 L 185.265625 263.347656 L 183.644531 262.519531 L 182.355469 261.234375 L 181.53125 259.613281 L 181.246094 257.816406 L 181.53125 256.019531 L 182.355469 254.398438 L 183.644531 253.109375 L 185.265625 252.285156 L 187.0625 252 L 188.859375 252.285156 L 190.480469 253.109375 L 191.765625 254.398438 L 192.59375 256.019531 Z M 192.875 257.816406 "/>
<path style=" stroke:none;fill-rule:nonzero;fill:rgb(80.392157%,58.431373%,4.705882%);fill-opacity:1;" d="M 173.492188 184.152344 L 173.207031 185.949219 L 172.382813 187.570313 L 171.09375 188.859375 L 169.472656 189.683594 L 167.675781 189.96875 L 165.878906 189.683594 L 164.257813 188.859375 L 162.972656 187.570313 L 162.144531 185.949219 L 161.863281 184.152344 L 162.144531 182.355469 L 162.972656 180.734375 L 164.257813 179.449219 L 165.878906 178.625 L 167.675781 178.339844 L 169.472656 178.625 L 171.09375 179.449219 L 172.382813 180.734375 L 173.207031 182.355469 Z M 173.492188 184.152344 "/>
<path style=" stroke:none;fill-rule:nonzero;fill:rgb(80.392157%,58.431373%,4.705882%);fill-opacity:1;" d="M 157.984375 226.800781 L 157.699219 228.597656 L 156.875 230.21875 L 155.585938 231.503906 L 153.964844 232.332031 L 152.167969 232.617188 L 150.371094 232.332031 L 148.75 231.503906 L 147.464844 230.21875 L 146.636719 228.597656 L 146.355469 226.800781 L 146.636719 225.003906 L 147.464844 223.382813 L 148.75 222.09375 L 150.371094 221.269531 L 152.167969 220.984375 L 153.964844 221.269531 L 155.585938 222.09375 L 156.875 223.382813 L 157.699219 225.003906 Z M 157.984375 226.800781 "/>
<path style=" stroke:none;fill-rule:nonzero;fill:rgb(80.392157%,58.431373%,4.705882%);fill-opacity:1;" d="M 165.59375 161.816406 L 164.628906 164.308594 L 163.339844 165.597656 L 161.796875 166.382813 L 161.53125 165.507813 L 158.386719 166.464844 L 156.503906 165.597656 L 155.21875 164.308594 L 154.390625 162.6875 L 154.109375 160.890625 L 154.328125 159.511719 L 155.875 160.457031 L 161.363281 161.917969 L 164.042969 162.292969 Z M 154.765625 158.359375 L 155.21875 157.472656 L 156.503906 156.1875 L 158.125 155.363281 L 159.921875 155.078125 L 161.71875 155.363281 L 162.804688 155.914063 L 162.234375 157.082031 L 162.671875 158.175781 L 162.078125 159.632813 L 159.644531 160.289063 Z M 154.765625 158.359375 "/>
<path style=" stroke:none;fill-rule:nonzero;fill:rgb(80.392157%,58.431373%,4.705882%);fill-opacity:1;" d="M 224.925781 289.886719 L 223.75 290.484375 L 221.953125 290.769531 L 220.15625 290.484375 L 218.535156 289.660156 L 217.25 288.371094 L 216.421875 286.75 L 216.136719 284.953125 L 216.421875 283.15625 L 217.25 281.535156 L 218.535156 280.25 L 220.925781 279.300781 L 222.984375 284.039063 L 223.773438 285.027344 Z M 224.925781 289.886719 "/>
<path style=" stroke:none;fill-rule:nonzero;fill:rgb(80.392157%,58.431373%,4.705882%);fill-opacity:1;" d="M 125.695313 242.011719 L 124.570313 243.136719 L 122.949219 243.960938 L 121.152344 244.246094 L 119.292969 243.929688 L 119.359375 242.367188 L 121.945313 238.054688 L 122.191406 237.09375 L 120.824219 237.742188 L 119.636719 239.75 L 119.449219 238.929688 L 122.839844 232.882813 L 124.570313 233.726563 L 125.859375 235.011719 L 126.683594 236.632813 L 126.945313 238.289063 L 126.449219 238.917969 L 125.671875 238.734375 L 125.460938 238.363281 Z M 115.59375 240.054688 L 115.339844 238.429688 L 115.625 236.632813 L 116.449219 235.011719 L 117.734375 233.726563 L 119.53125 232.871094 L 119.449219 233.945313 L 118.015625 235.730469 Z M 115.59375 240.054688 "/>
<path style=" stroke:none;fill-rule:nonzero;fill:rgb(80.392157%,58.431373%,4.705882%);fill-opacity:1;" d="M 189 168.644531 L 188.714844 170.441406 L 187.890625 172.0625 L 186.601563 173.351563 L 184.980469 174.175781 L 183.183594 174.460938 L 181.386719 174.175781 L 179.765625 173.351563 L 178.480469 172.0625 L 177.652344 170.441406 L 177.371094 168.644531 L 177.953125 166.257813 L 178.648438 166.167969 L 179.285156 167.089844 L 180.148438 167.667969 L 184.320313 169.011719 L 187.675781 167.128906 L 188.789063 167.308594 Z M 189 168.644531 "/>
<path style=" stroke:none;fill-rule:nonzero;fill:rgb(80.392157%,58.431373%,4.705882%);fill-opacity:1;" d="M 139.410156 322.675781 L 138.882813 321.644531 L 138.640625 320.097656 L 139.816406 316.644531 L 142.300781 315.023438 L 142.671875 314.308594 L 144.414063 314.03125 L 146.210938 314.316406 L 147.832031 315.140625 L 148.847656 316.15625 L 147.847656 318.148438 L 145.3125 320.636719 L 141.859375 323.019531 L 139.824219 322.464844 Z M 139.410156 322.675781 "/>
<path style=" stroke:none;fill-rule:nonzero;fill:rgb(80.392157%,58.431373%,4.705882%);fill-opacity:1;" d="M 150.09375 312.957031 L 149.945313 313.890625 L 149.121094 315.511719 L 147.832031 316.796875 L 146.210938 317.625 L 144.414063 317.90625 L 142.617188 317.625 L 140.4375 316.238281 L 142.300781 315.023438 L 144.765625 310.230469 L 145.863281 309.40625 L 148.800781 308.355469 L 149.148438 308.730469 Z M 150.09375 312.957031 "/>
<path style=" stroke:none;fill-rule:nonzero;fill:rgb(80.392157%,58.431373%,4.705882%);fill-opacity:1;" d="M 173.683594 239.636719 L 173.492188 238.429688 L 173.777344 236.632813 L 174.601563 235.011719 L 175.890625 233.726563 L 177.511719 232.898438 L 179.308594 232.617188 L 181.105469 232.898438 L 183.0625 234.0625 L 181.046875 235.800781 L 180.578125 237.003906 L 174.761719 240.109375 Z M 182.742188 243.121094 L 181.105469 243.960938 L 179.308594 244.246094 L 177.511719 243.960938 L 175.890625 243.136719 L 174.289063 241.230469 Z M 182.742188 243.121094 "/>
<path style=" stroke:none;fill-rule:nonzero;fill:rgb(80.392157%,58.431373%,4.705882%);fill-opacity:1;" d="M 123.09375 242.308594 L 122.808594 244.105469 L 121.980469 245.726563 L 120.695313 247.011719 L 119.625 247.558594 L 119.164063 246.890625 L 119.359375 242.367188 L 121.648438 238.554688 L 122.808594 240.511719 Z M 120.304688 237.40625 L 120.832031 237.738281 L 119.636719 239.75 L 119.449219 238.929688 Z M 112.609375 245.761719 L 111.746094 244.105469 L 111.460938 242.308594 L 111.746094 240.511719 L 112.570313 238.890625 L 113.859375 237.601563 L 115.480469 236.777344 L 117.5625 236.539063 Z M 112.609375 245.761719 "/>
<path style=" stroke:none;fill-rule:nonzero;fill:rgb(80.392157%,58.431373%,4.705882%);fill-opacity:1;" d="M 149.589844 310.710938 L 149.121094 311.632813 L 147.832031 312.921875 L 146.210938 313.746094 L 144.414063 314.03125 L 142.933594 313.796875 L 144.765625 310.230469 L 145.863281 309.40625 L 149.046875 308.269531 Z M 149.589844 310.710938 "/>
</g>
</svg>
