<?xml version="1.0" encoding="UTF-8"?>
<svg xmlns="http://www.w3.org/2000/svg" xmlns:xlink="http://www.w3.org/1999/xlink" width="378pt" height="504pt" viewBox="0 0 378 504" version="1.1">
<g id="data">
<rect x="0" y="0" width="378" height="504" style="fill:rgb(100%,100%,100%);fill-opacity:1;stroke:none;"/>
<path style=" stroke:none;fill-rule:nonzero;fill:rgb(100%,100%,100%);fill-opacity:1;" d="M 53.308594 504 L 324.691406 504 L 324.691406 0 L 53.308594 0 Z M 53.308594 504 "/>
<path style=" stroke:none;fill-rule:nonzero;fill:rgb(22.745098%,53.333333%,16.078431%);fill-opacity:1;" d="M 145.824219 160.675781 L 149.074219 160.015625 L 152.003906 158.464844 L 154.453125 156.046875 L 156.046875 153.136719 L 158.164063 154.066406 L 160.421875 154.558594 L 162.734375 154.59375 L 165.046875 154.148438 L 162.601563 156.074219 L 162.234375 157.082031 L 162.671875 158.175781 L 162.078125 159.632813 L 159.644531 160.289063 L 156.839844 159.359375 L 153.464844 157.734375 L 154.464844 159.796875 L 155.875 160.457031 L 161.363281 161.917969 L 164.042969 162.292969 L 165.242188 161.992188 L 166.015625 161.605469 L 166.75 160.257813 L 167.589844 160.183594 L 167.507813 160.828125 L 166.417969 162.609375 L 162.722656 166.96875 L 162.175781 167.183594 L 161.726563 166.894531 L 161.859375 165.949219 L 161.53125 165.507813 L 159.984375 165.785156 L 155.320313 167.769531 L 152.441406 170.8125 L 151.949219 171.945313 L 152.140625 172.144531 L 156.390625 168.453125 L 157.75 167.980469 L 160.300781 168.324219 L 161.058594 169.320313 L 157.109375 173.804688 L 156.367188 175.339844 L 156.707031 175.816406 L 157.367188 175.984375 L 158.261719 175.542969 L 161.140625 173.015625 L 167.808594 170.273438 L 170.480469 169.527344 L 170.492188 169.949219 L 171.554688 169.839844 L 173.589844 168.316406 L 174.046875 166.78125 L 178.648438 166.167969 L 179.285156 167.089844 L 180.148438 167.667969 L 184.320313 169.011719 L 185.492188 168.355469 L 185.929688 168.496094 L 189.949219 168.769531 L 187.625 169.417969 L 185.378906 170.597656 L 181.195313 174.054688 L 179.308594 176.398438 L 177.066406 177.347656 L 175.070313 178.738281 L 172.894531 181.25 L 171.554688 184.152344 L 169.5625 185.683594 L 167.675781 188.03125 L 165.871094 189.390625 L 164.433594 190.972656 L 162.070313 194.453125 L 160.957031 197.996094 L 161.019531 201.707031 L 162.308594 205.324219 L 165.160156 209.222656 L 167.675781 211.292969 L 170.507813 214.253906 L 173.945313 215.976563 L 177.753906 216.488281 L 180.171875 216.152344 L 182.351563 215.371094 L 184.9375 213.695313 L 187.0625 211.292969 L 189.789063 210.734375 L 192.199219 209.609375 L 195.640625 206.660156 L 197.449219 204.289063 L 198.691406 207.414063 L 198.691406 208.167969 L 197.078125 210.023438 L 197.433594 210.839844 L 197.785156 210.703125 L 197.761719 211.238281 L 197.269531 212.84375 L 197.066406 213.066406 L 195.839844 215.136719 L 195.570313 216.15625 L 191.214844 219.742188 L 185.519531 221.085938 L 182.847656 221.226563 L 177.804688 225.21875 L 178.117188 225.714844 L 179.84375 225.195313 L 184.609375 222.886719 L 186.457031 221.386719 L 187.289063 221.316406 L 189.085938 221.875 L 189.332031 222.921875 L 188.898438 224.691406 L 189.238281 225.953125 L 190.898438 226.824219 L 192.988281 227.191406 L 194.390625 228.671875 L 194.199219 229.53125 L 192.117188 231.570313 L 189.460938 232.730469 L 188.34375 232.882813 L 187.070313 232.078125 L 185.40625 232.042969 L 181.046875 235.800781 L 180.578125 237.003906 L 174.761719 240.109375 L 171.570313 238.714844 L 173.75 234.828125 L 174.375 232.46875 L 174.488281 229.90625 L 174.109375 227.625 L 173.339844 225.582031 L 171.554688 222.921875 L 170.375 220.507813 L 169.035156 218.796875 L 166.324219 216.667969 L 162.980469 215.402344 L 156.300781 214.507813 L 152.167969 215.167969 L 152.167969 211.292969 L 152.78125 209.195313 L 152.988281 207.019531 L 152.761719 204.71875 L 152.132813 202.625 L 150.832031 200.261719 L 149.121094 198.347656 L 146.917969 196.789063 L 144.414063 195.785156 L 146.6875 195.382813 L 148.832031 194.539063 L 150.871094 193.210938 L 152.503906 191.585938 L 153.789063 189.667969 L 154.703125 187.414063 L 155.121094 185.148438 L 155.082031 182.84375 L 154.464844 180.226563 L 153.265625 177.820313 L 150.726563 174.5 L 148.292969 172.523438 L 148.941406 169.386719 L 148.707031 166.191406 L 147.609375 163.179688 Z M 218.078125 261.207031 L 218.078125 265.570313 L 216.90625 268.40625 L 216.519531 271.320313 L 216.90625 274.363281 L 218.078125 277.199219 L 216.84375 280.285156 L 216.53125 283.59375 L 216.976563 286.242188 L 218.078125 288.832031 L 218.519531 292.007813 L 219.8125 294.941406 L 222.144531 297.667969 L 225.078125 299.5 L 228.421875 300.390625 L 232.261719 300.441406 L 234.882813 301.667969 L 235.257813 302.011719 L 237.085938 303.148438 L 239.09375 303.929688 L 240.148438 304.121094 L 241.425781 304.71875 L 242.066406 307.546875 L 243.589844 310.316406 L 246.832031 314.171875 L 249.09375 315.96875 L 251.164063 318.488281 L 252.96875 319.847656 L 252.835938 322.601563 L 253.378906 325.96875 L 254.578125 328.652344 L 254.984375 329.992188 L 256.160156 332.453125 L 256.996094 333.625 L 257.050781 334.410156 L 258.042969 337.3125 L 259.265625 339.261719 L 260.753906 340.851563 L 262.625 342.195313 L 263.328125 342.523438 L 263.640625 343.980469 L 262.804688 345.191406 L 263.28125 343.65625 L 262.507813 342.839844 L 260.445313 342 L 258.378906 342.789063 L 257.507813 342.753906 L 256.035156 341.773438 L 253.664063 338.65625 L 252.601563 338.082031 L 245.550781 339.511719 L 244.589844 338.644531 L 243.40625 338.558594 L 241.210938 339.871094 L 241.886719 340.445313 L 246.324219 340.394531 L 249.617188 339.34375 L 251.976563 339.082031 L 254.382813 342.558594 L 260.535156 347.621094 L 263.042969 349.058594 L 263.664063 349.039063 L 264.449219 350.085938 L 265.082031 353.347656 L 266.417969 356.214844 L 268.476563 358.617188 L 268.707031 360.914063 L 269.335938 363.007813 L 269.441406 363.203125 L 269.210938 365.21875 L 264.953125 369.09375 L 261.394531 373.164063 L 260.601563 374.816406 L 262.84375 374.3125 L 264.9375 375.519531 L 266.9375 378.226563 L 270.21875 378.804688 L 270.625 378.746094 L 271.910156 376.796875 L 272.234375 374.960938 L 273.40625 371.914063 L 274.707031 370.632813 L 277.851563 370.085938 L 278.355469 370.097656 L 278.441406 370.125 L 281.984375 370.410156 L 283.570313 370.390625 L 284.253906 370.867188 L 286.703125 370.742188 L 293.949219 371.515625 L 296.914063 372.84375 L 300.621094 375.558594 L 301.199219 376.292969 L 303.371094 378 L 305.4375 380.519531 L 305.53125 380.585938 L 306.730469 384.164063 L 307.179688 391.25 L 306.777344 393.191406 L 306.890625 393.976563 L 305.789063 396.917969 L 305.183594 399.824219 L 303.925781 402.410156 L 303.246094 406.136719 L 303.328125 408.035156 L 297.144531 414.53125 L 295.578125 412.011719 L 292.742188 410.515625 L 292.480469 410.636719 L 293.898438 413.703125 L 295.890625 416.628906 L 296.3125 416.765625 L 296.164063 417.742188 L 294.574219 419.804688 L 292.191406 421.289063 L 290.003906 421.65625 L 289.660156 421.574219 L 288.214844 419.332031 L 284.976563 421.730469 L 280.71875 424.230469 L 282.339844 425.378906 L 285.105469 424.398438 L 286.097656 423.375 L 286.894531 423.164063 L 287.328125 423.710938 L 287.632813 428.84375 L 285.6875 430.875 L 283.441406 432.558594 L 282.84375 432.699219 L 279.644531 432.160156 L 274.75 433.78125 L 272.609375 436.117188 L 274.253906 436.015625 L 275.152344 434.667969 L 276.683594 434.363281 L 278.285156 434.328125 L 281.054688 434.949219 L 281.828125 435.589844 L 281.691406 436.328125 L 279.554688 436.347656 L 277.390625 437.65625 L 277.96875 438.546875 L 281.382813 438.964844 L 286.863281 440.339844 L 289.394531 439.9375 L 291.074219 438.957031 L 296.363281 438.226563 L 299.492188 440.03125 L 299.492188 447.785156 L 297.320313 449.492188 L 296.707031 450.273438 L 295.839844 450.375 L 292.621094 451.640625 L 291.179688 452.742188 L 289.847656 454.226563 L 289.460938 455.09375 L 289.214844 456.324219 L 289.246094 456.523438 L 289 456.839844 L 288.480469 458.011719 L 286.253906 458.289063 L 284.1875 457.9375 L 282.84375 459.207031 L 280.683594 459.117188 L 276.957031 459.9375 L 273.792969 461.84375 L 270.183594 465 L 268.863281 466.679688 L 267.261719 466.195313 L 265.421875 464.71875 L 261.730469 463.417969 L 259.097656 463.132813 L 250.84375 463.132813 L 247.09375 463.632813 L 243.953125 464.972656 L 241.339844 467.167969 L 240.167969 467.414063 L 238.210938 466.1875 L 238.632813 465.4375 L 239.46875 464.933594 L 237.714844 463.296875 L 231.496094 463.171875 L 231.378906 463.496094 L 232.574219 464.835938 L 232.214844 465.75 L 231.738281 466.042969 L 226.691406 465.496094 L 219.566406 468.449219 L 217.054688 467.824219 L 210.222656 468.96875 L 208.164063 468.875 L 207.273438 468.058594 L 206.238281 469.769531 L 209.429688 471.089844 L 209.714844 470.9375 L 210.1875 472.128906 L 209.566406 473.890625 L 206.84375 474.453125 L 204.453125 473.097656 L 203.015625 472.699219 L 197.625 472.007813 L 196.175781 472.65625 L 195.679688 473.863281 L 195.78125 474.523438 L 195.257813 474.742188 L 194.851563 473.972656 L 190.289063 470.589844 L 185.898438 468.519531 L 183.121094 467.984375 L 181.648438 469.066406 L 176.207031 469.78125 L 174.339844 470.335938 L 168.992188 473.234375 L 168.214844 474.070313 L 167.203125 476.179688 L 162.746094 489.226563 L 160.929688 490.242188 L 159.324219 489.929688 L 157.308594 488.234375 L 157.136719 488.164063 L 156.527344 486.851563 L 154.683594 485.4375 L 153.613281 485.542969 L 152.417969 486.300781 L 151.738281 486.164063 L 148.46875 482.535156 L 144.632813 482.824219 L 143.4375 481.886719 L 141.367188 480.695313 L 139.097656 479.949219 L 141.933594 477.386719 L 143.78125 474.042969 L 144.527344 470.175781 L 144.414063 467.167969 L 145.679688 463.960938 L 145.945313 460.519531 L 145.191406 457.15625 L 144.574219 455.898438 L 145.761719 455.429688 L 148.429688 452.488281 L 148.105469 447.519531 L 151.105469 446.613281 L 157.421875 446.269531 L 159.910156 445.683594 L 164.597656 446.761719 L 166.046875 446.148438 L 167.527344 446.515625 L 169.484375 447.285156 L 170.039063 448.109375 L 170.757813 448.421875 L 173.15625 448.464844 L 180.570313 447.503906 L 181.109375 445.632813 L 181.210938 443.15625 L 182.519531 440.25 L 190.867188 432.195313 L 195.792969 425.3125 L 197.929688 424.472656 L 198.285156 423.78125 L 198.070313 423.238281 L 197.8125 423.082031 L 196.09375 424.355469 L 192.90625 427.300781 L 190.570313 429.988281 L 189.222656 431.449219 L 185.628906 432.957031 L 183.714844 433.246094 L 182.441406 433.0625 L 178.394531 435.230469 L 177.398438 436.808594 L 177.039063 438.671875 L 176.445313 439.273438 L 174.058594 439.917969 L 170.558594 439.851563 L 166.820313 439 L 166.347656 438.652344 L 161.371094 433.375 L 159.03125 429.199219 L 155.65625 429.589844 L 149.269531 432.308594 L 149.113281 432.746094 L 148.226563 432.230469 L 147.25 430.082031 L 146.96875 429.726563 L 146.917969 429.308594 L 148.539063 428.378906 L 150.066406 428.890625 L 151.640625 428.421875 L 152.765625 427.832031 L 153.085938 427.097656 L 152.808594 426.597656 L 147.785156 426.460938 L 143.210938 423.710938 L 139.503906 423.714844 L 136.765625 424.277344 L 136.710938 424.527344 L 136.660156 424.523438 L 134.074219 423.421875 L 131.273438 422.984375 L 131.226563 422.867188 L 131.183594 422.972656 L 131.167969 422.96875 L 127.992188 423.320313 L 125.371094 424.382813 L 122.949219 424.152344 L 122.050781 423.542969 L 123.21875 422.257813 L 124.125 421.78125 L 125.167969 421.753906 L 125.464844 421.238281 L 124.960938 418.140625 L 125.335938 416.0625 L 125.113281 413.753906 L 125.933594 413.378906 L 126.113281 412.9375 L 127.910156 413.015625 L 131.636719 412.335938 L 134.367188 411.003906 L 136.660156 409.015625 L 142.339844 408.980469 L 145.816406 408.085938 L 147.945313 406.886719 L 149.773438 405.273438 L 151.292969 403.199219 L 152.28125 400.96875 L 152.839844 397.164063 L 152.773438 396.808594 L 153.054688 396.195313 L 154.199219 391.746094 L 154.132813 391.308594 L 154.457031 390.941406 L 155.933594 387.695313 L 156.359375 384.410156 L 155.847656 380.496094 L 154.296875 376.628906 L 152.6875 374.824219 L 153.175781 374.082031 L 152.804688 373.207031 L 151.191406 373.144531 L 151.183594 373.136719 L 147.976563 371.117188 L 144.515625 370.269531 L 147.132813 367.984375 L 147.953125 364.523438 L 151.550781 360.582031 L 153.09375 359.609375 L 154.941406 359.808594 L 160.492188 357.457031 L 163.644531 357.28125 L 167.339844 357.714844 L 172.597656 355.179688 L 173.933594 355.046875 L 174.484375 355.082031 L 179.910156 359.441406 L 180.433594 358.429688 L 177.679688 353.460938 L 178.242188 352.835938 L 180.867188 352.449219 L 181.503906 352.695313 L 181.914063 353.875 L 182.898438 354.332031 L 184.078125 356.789063 L 185.613281 357.902344 L 188.359375 357.621094 L 190.335938 355.148438 L 189.90625 355.050781 L 188.667969 355.527344 L 188.3125 355.957031 L 186.378906 356.386719 L 183.8125 354.640625 L 179.976563 346.332031 L 180.214844 345.902344 L 181.503906 344.371094 L 182.625 341.960938 L 182.726563 341.410156 L 183.371094 340.257813 L 185.429688 339.015625 L 185.140625 338.578125 L 183.261719 338.488281 L 183.308594 338.234375 L 183.183594 335.355469 L 184.914063 332.808594 L 185.917969 329.898438 L 186.144531 327.601563 L 186.011719 326.253906 L 187.28125 323.421875 L 187.71875 320.933594 L 187.855469 317.484375 L 184.742188 320.527344 L 183.910156 320.964844 L 182.386719 319.03125 L 179.222656 316.941406 L 175.429688 315.96875 L 173.722656 313.800781 L 172.464844 312.808594 L 172.289063 311.832031 L 171.191406 310.21875 L 171.074219 309.605469 L 170.128906 307.390625 L 168.746094 305.421875 L 167.523438 304.273438 L 169.164063 299.058594 L 169.535156 298.28125 L 170.363281 296.960938 L 171.144531 294.953125 L 171.164063 294.84375 L 172.554688 291.921875 L 173.722656 291 L 175.429688 288.832031 L 183.183594 288.832031 L 185.84375 289.144531 L 188.132813 288.925781 L 191.816406 287.515625 L 194.816406 284.953125 L 197.75 284.746094 L 200.535156 283.8125 L 203.191406 282.042969 L 205.269531 279.613281 L 206.605469 276.714844 L 207.109375 273.578125 L 206.773438 270.546875 L 205.660156 267.691406 L 203.839844 265.226563 L 201.4375 263.320313 L 198.25 262.007813 L 194.816406 261.691406 L 192.210938 261.097656 L 189.664063 261.097656 L 187.0625 261.691406 L 188.367188 258.078125 L 188.402344 254.113281 L 187.105469 250.363281 L 184.621094 247.265625 L 181.410156 244.558594 L 179.222656 243.28125 L 175.429688 242.308594 L 172.871094 241.246094 L 170.386719 240.832031 L 170.523438 240.585938 L 178.0625 241.875 L 182.921875 243.167969 L 186.398438 241.730469 L 187.519531 239.417969 L 188.617188 238.355469 L 189.539063 238.171875 L 193.183594 238.5 L 199.339844 242.761719 L 206.488281 246.65625 L 208.910156 251.429688 L 212.824219 256.707031 L 213.265625 256.828125 L 213.433594 256.585938 L 214.601563 257.097656 L 217.371094 258.992188 Z M 232.925781 471.480469 L 231.683594 472.492188 L 230.4375 474.027344 L 229.960938 474.269531 L 229.160156 474.433594 L 227.726563 473.148438 L 225.398438 471.867188 L 223.085938 471.195313 L 222.703125 471.148438 L 222.296875 470.886719 L 221.496094 471 L 220.46875 470.875 L 221.476563 469.683594 L 227.316406 466.367188 L 232.550781 467.761719 L 234.171875 469.894531 Z M 145.855469 363.578125 L 145.863281 363.488281 L 145.003906 360.035156 L 143.222656 357.101563 L 145.507813 358.230469 L 147.984375 358.835938 L 150.40625 358.894531 L 153.550781 358.417969 L 154.59375 358.019531 L 154.066406 358.859375 L 150.984375 360.816406 L 147.425781 363.976563 L 146.109375 363.875 Z M 206.445313 168.644531 L 209.863281 168.644531 L 210.3125 168.835938 L 212.550781 172.800781 L 213.617188 176.398438 L 210.324219 176.398438 L 209.914063 174.15625 L 209.132813 172.148438 L 207.917969 170.21875 Z M 140.539063 238.429688 L 144.414063 238.429688 L 146.863281 241.28125 L 150.273438 244.082031 L 152.722656 245.410156 L 156.792969 246.285156 L 159.921875 246.183594 L 157.753906 247.890625 L 156.046875 250.0625 L 153.507813 250.195313 L 150.941406 250.925781 L 148.714844 252.148438 L 146.71875 253.917969 L 147.375 249.898438 L 146.558594 245.773438 L 145.503906 243.730469 L 144.90625 242.921875 L 146.15625 243.175781 L 148.300781 243.253906 L 143.839844 241.480469 L 143.46875 240.976563 Z M 140.714844 322.707031 L 141.203125 319.847656 L 140.570313 316.152344 L 142.300781 315.023438 L 144.765625 310.230469 L 145.863281 309.40625 L 148.566406 308.441406 L 149.027344 308.824219 L 148.160156 313.214844 L 148.242188 317.363281 L 147.847656 318.148438 L 145.480469 320.476563 L 144.039063 321.035156 L 142.210938 322.171875 L 141.425781 322.902344 Z M 120.828125 497.59375 L 119.308594 494.832031 L 116.578125 492.328125 L 113.203125 490.8125 L 109.523438 490.429688 L 111.691406 488.722656 L 112.09375 488.214844 L 112.199219 488.253906 L 112.445313 488.9375 L 113.574219 489.15625 L 118.144531 485.910156 L 121.425781 483.085938 L 123.214844 481.074219 L 123.234375 481.058594 L 123.277344 481.003906 L 124.375 479.769531 L 124.523438 479.4375 L 125.03125 478.800781 L 127.511719 480.511719 L 130.347656 481.527344 L 128.183594 483.316406 L 126.449219 485.6875 L 125.46875 488.042969 L 125.058594 490.269531 L 124.039063 490.597656 L 123.722656 491.890625 L 123.253906 492.410156 L 122.023438 494.625 L 121.339844 497.417969 Z M 286.679688 439.636719 L 283.058594 438.976563 L 282.164063 437.605469 L 282.484375 436.070313 L 286.839844 437.054688 L 287.960938 438.832031 Z M 236.835938 466.113281 L 235.136719 465.644531 L 236.523438 463.683594 L 237.195313 464.164063 L 237.5 465.839844 Z M 236.835938 466.113281 "/>
<path style=" stroke:none;fill-rule:nonzero;fill:rgb(80.392157%,58.431373%,4.705882%);fill-opacity:1;" d="M 204.507813 195.785156 L 204.222656 197.582031 L 203.398438 199.203125 L 202.109375 200.488281 L 200.488281 201.316406 L 198.691406 201.601563 L 196.894531 201.316406 L 195.273438 200.488281 L 193.988281 199.203125 L 193.160156 197.582031 L 192.875 195.785156 L 193.160156 193.988281 L 193.988281 192.367188 L 195.273438 191.078125 L 196.894531 190.253906 L 198.691406 189.96875 L 200.488281 190.253906 L 202.109375 191.078125 L 203.398438 192.367188 L 204.222656 193.988281 Z M 204.507813 195.785156 "/>
<path style=" stroke:none;fill-rule:nonzero;fill:rgb(80.392157%,58.431373%,4.705882%);fill-opacity:1;" d="M 142.476563 157.015625 L 142.191406 158.8125 L 141.367188 160.433594 L 140.078125 161.71875 L 138.457031 162.546875 L 136.660156 162.832031 L 134.863281 162.546875 L 133.242188 161.71875 L 131.957031 160.433594 L 131.128906 158.8125 L 130.847656 157.015625 L 130.9375 156.429688 L 131.765625 156.140625 L 134.503906 157.136719 L 136.507813 158.589844 L 137.039063 159.417969 L 137.175781 158.679688 L 135.242188 155.121094 L 132.511719 153.042969 L 133.242188 152.3125 L 134.863281 151.484375 L 136.660156 151.199219 L 138.457031 151.484375 L 140.078125 152.3125 L 141.367188 153.597656 L 142.191406 155.21875 Z M 142.476563 157.015625 "/>
<path style=" stroke:none;fill-rule:nonzero;fill:rgb(80.392157%,58.431373%,4.705882%);fill-opacity:1;" d="M 146.355469 269.445313 L 146.070313 271.242188 L 145.242188 272.863281 L 143.957031 274.152344 L 142.335938 274.976563 L 140.539063 275.261719 L 138.742188 274.976563 L 136.863281 273.894531 L 137.757813 273.035156 L 138.601563 268.871094 L 140.917969 265.085938 L 142.847656 264.175781 L 143.957031 264.742188 L 145.242188 266.027344 L 146.070313 267.648438 Z M 146.355469 269.445313 "/>
<path style=" stroke:none;fill-rule:nonzero;fill:rgb(80.392157%,58.431373%,4.705882%);fill-opacity:1;" d="M 171.214844 149.292969 L 169.898438 147.183594 L 169.617188 145.382813 L 169.898438 143.585938 L 170.726563 141.964844 L 172.011719 140.679688 L 173.632813 139.855469 L 175.429688 139.570313 L 177.226563 139.855469 L 178.847656 140.679688 L 179.804688 141.636719 L 177.402344 142.480469 L 176.097656 143.761719 L 173.855469 147.214844 Z M 171.214844 149.292969 "/>
<path style=" stroke:none;fill-rule:nonzero;fill:rgb(80.392157%,58.431373%,4.705882%);fill-opacity:1;" d="M 166.878906 152.707031 L 166.023438 151.058594 L 165.738281 149.261719 L 166.023438 147.464844 L 166.847656 145.84375 L 168.136719 144.558594 L 169.757813 143.730469 L 171.554688 143.445313 L 173.351563 143.730469 L 175.339844 144.925781 L 173.855469 147.214844 Z M 166.878906 152.707031 "/>
<path style=" stroke:none;fill-rule:nonzero;fill:rgb(80.392157%,58.431373%,4.705882%);fill-opacity:1;" d="M 94.113281 156.746094 L 94.84375 157.472656 L 95.667969 159.09375 L 95.914063 160.648438 L 93.527344 162.226563 L 90.550781 158.175781 L 90.507813 157.148438 L 91.820313 157.980469 Z M 90.976563 166.574219 L 88.339844 166.421875 L 86.71875 165.597656 L 85.796875 164.671875 L 86.457031 164.699219 L 87.222656 163.867188 L 88.554688 163.523438 L 91.023438 165.660156 L 91.214844 166.0625 Z M 88.238281 162.863281 L 87.917969 162.585938 L 88.445313 161.890625 L 89.367188 161.550781 L 89.65625 162.238281 Z M 88.238281 162.863281 "/>
<path style=" stroke:none;fill-rule:nonzero;fill:rgb(80.392157%,58.431373%,4.705882%);fill-opacity:1;" d="M 185.179688 114.011719 L 185.40625 112.570313 L 186.234375 110.949219 L 186.929688 110.253906 L 187.324219 111.371094 L 189.425781 112.382813 L 190.734375 113.441406 L 191.546875 114.902344 L 189.996094 116.5625 L 186.777344 113.90625 Z M 188.65625 119.652344 L 186.859375 118.414063 L 188.300781 118.292969 L 188.792969 119.078125 Z M 188.65625 119.652344 "/>
<path style=" stroke:none;fill-rule:nonzero;fill:rgb(80.392157%,58.431373%,4.705882%);fill-opacity:1;" d="M 184.914063 97.386719 L 185.347656 97.195313 L 188.613281 98.375 L 189.644531 99.757813 L 189.558594 100.558594 L 189.007813 101.453125 L 189.121094 100.265625 L 187.730469 99.058594 L 186.953125 98.894531 L 186.835938 99.515625 L 186.335938 100.011719 Z M 186.285156 108.429688 L 185.265625 108.269531 L 183.644531 107.441406 L 182.355469 106.15625 L 181.675781 104.816406 L 184.519531 106.003906 Z M 186.285156 108.429688 "/>
<path style=" stroke:none;fill-rule:nonzero;fill:rgb(80.392157%,58.431373%,4.705882%);fill-opacity:1;" d="M 189.007813 101.453125 L 189.121094 100.265625 L 187.730469 99.058594 L 186.953125 98.894531 L 186.835938 99.515625 L 186.335938 100.011719 L 184.679688 96.953125 L 188.613281 98.375 L 189.644531 99.757813 L 189.558594 100.558594 Z M 189.007813 101.453125 "/>
<path style=" stroke:none;fill-rule:nonzero;fill:rgb(80.392157%,58.431373%,4.705882%);fill-opacity:1;" d="M 136.210938 448.453125 L 135.929688 448.140625 L 136.109375 446.949219 L 136.398438 446.875 L 136.6875 448.207031 Z M 136.210938 448.453125 "/>
<path style=" stroke:none;fill-rule:nonzero;fill:rgb(80.392157%,58.431373%,4.705882%);fill-opacity:1;" d="M 88.429688 500.046875 L 88.566406 499.308594 L 88.941406 499.117188 L 89.34375 499.789063 Z M 88.429688 500.046875 "/>
</g>
</svg>
