<?xml version="1.0" encoding="UTF-8"?>
<svg xmlns="http://www.w3.org/2000/svg" xmlns:xlink="http://www.w3.org/1999/xlink" width="378pt" height="504pt" viewBox="0 0 378 504" version="1.1">
<g id="data">
<rect x="0" y="0" width="378" height="504" style="fill:rgb(100%,100%,100%);fill-opacity:1;stroke:none;"/>
<path style=" stroke:none;fill-rule:nonzero;fill:rgb(100%,100%,100%);fill-opacity:1;" d="M 53.308594 504 L 324.691406 504 L 324.691406 0 L 53.308594 0 Z M 53.308594 504 "/>
<path style=" stroke:none;fill-rule:nonzero;fill:rgb(22.745098%,53.333333%,16.078431%);fill-opacity:1;" d="M 208.027344 352.800781 L 209.304688 352.382813 L 211.253906 352.421875 L 213.128906 352.777344 L 215.398438 352.765625 L 216.636719 352.511719 L 217.648438 352.078125 L 218.71875 351.316406 L 219.582031 350.355469 L 220.164063 349.328125 L 220.519531 348.1875 L 220.601563 346.425781 L 220.105469 344.382813 L 219.363281 342.90625 L 218.425781 341.847656 L 217.070313 340.957031 L 215.554688 340.484375 L 213.949219 340.441406 L 211.730469 340.996094 L 209.90625 341.15625 L 208.125 340.738281 L 206.558594 339.789063 L 205.367188 338.398438 L 204.667969 336.707031 L 204.527344 334.882813 L 204.960938 333.105469 L 205.925781 331.546875 L 207.109375 330.183594 L 207.722656 329.050781 L 208.074219 327.824219 L 208.144531 326.550781 L 207.933594 325.28125 L 207.496094 324.183594 L 206.765625 323.105469 L 205.9375 322.3125 L 204.679688 321.570313 L 203.101563 321.089844 L 201.71875 321.027344 L 200.34375 321.300781 L 199.078125 321.902344 L 198.003906 322.777344 L 197.113281 323.980469 L 196.320313 325.921875 L 195.371094 327.488281 L 193.980469 328.679688 L 192.289063 329.378906 L 190.460938 329.519531 L 188.683594 329.082031 L 187.128906 328.117188 L 185.722656 326.898438 L 187.28125 323.421875 L 187.71875 320.933594 L 187.855469 317.484375 L 184.742188 320.527344 L 179.199219 323.441406 L 177.335938 322.691406 L 172.851563 314.925781 L 172.289063 311.832031 L 167.40625 304.652344 L 169.164063 299.058594 L 174.074219 288.722656 L 176.464844 286.417969 L 178.757813 285.980469 L 180.191406 286.804688 L 181.015625 286.710938 L 182.933594 286.238281 L 183.03125 285.160156 L 182.34375 284.746094 L 180.035156 285.351563 L 174.65625 284.980469 L 172.566406 284.292969 L 171.417969 284.195313 L 173.210938 283.453125 L 174.757813 283.054688 L 176.351563 283.089844 L 179.589844 283.609375 L 183.980469 282.945313 L 186.140625 282.109375 L 187.617188 280.828125 L 188.578125 279.125 L 189.085938 276.207031 L 189.773438 274.304688 L 191.070313 272.75 L 192.820313 271.738281 L 194.816406 271.382813 L 198.691406 271.382813 L 199.675781 271.46875 L 202.570313 271.964844 L 205.460938 271.46875 L 207.367188 271.457031 L 209.171875 272.0625 L 210.683594 273.214844 L 211.742188 274.796875 L 213.269531 278.167969 L 213.746094 279.867188 L 213.695313 281.628906 L 213.113281 283.292969 L 212.0625 284.707031 L 210.636719 285.742188 L 209.125 286.519531 L 208.238281 287.222656 L 206.234375 289.570313 L 205.585938 290.589844 L 205.164063 291.679688 L 204.964844 292.8125 L 204.996094 293.976563 L 205.226563 295.007813 L 205.699219 296.089844 L 206.308594 296.96875 L 207.074219 297.71875 L 208.046875 298.359375 L 209.117188 298.789063 L 210.261719 299.003906 L 211.316406 298.996094 L 213.027344 298.640625 L 215.003906 298.578125 L 216.890625 299.183594 L 218.464844 300.382813 L 219.542969 302.042969 L 220.003906 303.96875 L 220.140625 306.09375 L 220.527344 307.339844 L 221.257813 308.558594 L 222.175781 309.480469 L 223.824219 310.402344 L 225.386719 310.730469 L 230.542969 310.078125 L 231.929688 309.660156 L 233.402344 308.75 L 234.492188 307.535156 L 235.226563 305.953125 L 235.582031 303.503906 L 236.003906 302.1875 L 244.476563 306.140625 L 245.742188 307.636719 L 247.265625 310.527344 L 248.375 313.375 L 248.285156 313.472656 L 247.777344 314.328125 L 246.636719 318.648438 L 246.539063 320.003906 L 247.046875 322.613281 L 247.113281 324.40625 L 246.878906 326.382813 L 247.050781 327.828125 L 247.441406 328.917969 L 248.148438 330.066406 L 250.878906 333.21875 L 252.710938 334.679688 L 254.164063 336.382813 L 254.863281 338.507813 L 255.121094 340.570313 L 253.664063 338.65625 L 252.601563 338.082031 L 245.550781 339.511719 L 244.589844 338.644531 L 243.40625 338.558594 L 241.210938 339.871094 L 241.886719 340.445313 L 246.324219 340.394531 L 249.617188 339.34375 L 251.976563 339.082031 L 254.382813 342.558594 L 260.535156 347.621094 L 263.042969 349.058594 L 263.664063 349.039063 L 266.046875 352.214844 L 268.980469 359.304688 L 269.535156 362.402344 L 269.210938 365.21875 L 264.953125 369.09375 L 261.394531 373.164063 L 260.601563 374.816406 L 262.84375 374.3125 L 264.9375 375.519531 L 266.9375 378.226563 L 270.21875 378.804688 L 270.625 378.746094 L 271.910156 376.796875 L 272.234375 374.960938 L 273.40625 371.914063 L 274.707031 370.632813 L 277.851563 370.085938 L 283.34375 370.234375 L 284.253906 370.867188 L 286.703125 370.742188 L 293.949219 371.515625 L 296.914063 372.84375 L 304.070313 378.085938 L 305.367188 380.105469 L 306.730469 384.164063 L 306.925781 387.214844 L 306.699219 387.589844 L 306.320313 389.628906 L 306.699219 391.671875 L 306.992188 392.15625 L 306.777344 393.191406 L 306.890625 393.976563 L 305.789063 396.917969 L 303.519531 407.832031 L 300.769531 410.722656 L 300.1875 410.914063 L 297.164063 411.277344 L 295.613281 412.066406 L 295.578125 412.011719 L 292.742188 410.515625 L 292.480469 410.636719 L 293.898438 413.703125 L 293.960938 413.800781 L 293 415.613281 L 292.03125 416.945313 L 290.726563 417.953125 L 289.191406 418.554688 L 286.605469 419.160156 L 284.871094 420.210938 L 284.199219 420.90625 L 283.585938 421.875 L 283.246094 422.746094 L 280.71875 424.230469 L 282.339844 425.378906 L 283.082031 425.117188 L 283.136719 425.78125 L 283.761719 427.386719 L 285.652344 429.980469 L 286.152344 430.390625 L 285.6875 430.875 L 283.441406 432.558594 L 282.84375 432.699219 L 279.644531 432.160156 L 274.75 433.78125 L 272.609375 436.117188 L 274.253906 436.015625 L 275.152344 434.667969 L 276.683594 434.363281 L 278.285156 434.328125 L 281.054688 434.949219 L 281.828125 435.589844 L 281.691406 436.328125 L 279.554688 436.347656 L 277.390625 437.65625 L 277.96875 438.546875 L 281.382813 438.964844 L 286.863281 440.339844 L 289.394531 439.9375 L 291.074219 438.957031 L 296.476563 438.210938 L 297.539063 438.417969 L 298.996094 439.175781 L 300.1875 440.3125 L 300.949219 441.28125 L 300.773438 446.324219 L 300.335938 447.820313 L 299.394531 449.050781 L 296.972656 450.242188 L 295.839844 450.375 L 292.621094 451.640625 L 291.179688 452.742188 L 289.847656 454.226563 L 289.460938 455.09375 L 289.214844 456.324219 L 289.3125 456.941406 L 289.269531 456.925781 L 287.832031 455.96875 L 286.429688 454.695313 L 285.484375 454.160156 L 281.054688 453.066406 L 278.792969 453.164063 L 276.035156 454.238281 L 275.375 454.738281 L 274.648438 455.546875 L 274.089844 456.460938 L 273.738281 457.417969 L 273.550781 459.21875 L 274.164063 462.070313 L 274.265625 463.023438 L 272.597656 463.816406 L 270.539063 466.589844 L 269.761719 466.949219 L 259.269531 463.777344 L 256.070313 463.507813 L 244.628906 465.699219 L 242.703125 466.390625 L 242.113281 466.964844 L 241.902344 467.984375 L 241.359375 468.164063 L 238.210938 466.1875 L 238.632813 465.4375 L 239.46875 464.933594 L 237.714844 463.296875 L 231.496094 463.171875 L 231.378906 463.496094 L 232.574219 464.835938 L 232.214844 465.75 L 231.738281 466.042969 L 226.691406 465.496094 L 219.566406 468.449219 L 217.054688 467.824219 L 210.222656 468.96875 L 208.164063 468.875 L 207.273438 468.058594 L 206.238281 469.769531 L 209.429688 471.089844 L 209.714844 470.9375 L 210.1875 472.128906 L 209.566406 473.890625 L 206.84375 474.453125 L 204.453125 473.097656 L 203.015625 472.699219 L 197.625 472.007813 L 196.175781 472.65625 L 195.679688 473.863281 L 195.832031 474.871094 L 196.757813 475.523438 L 196.488281 476.304688 L 195.917969 475.996094 L 194.851563 473.972656 L 190.289063 470.589844 L 185.898438 468.519531 L 183.121094 467.984375 L 181.648438 469.066406 L 176.207031 469.78125 L 174.339844 470.335938 L 168.992188 473.234375 L 168.214844 474.070313 L 167.203125 476.179688 L 162.746094 489.226563 L 160.929688 490.242188 L 158.269531 489.722656 L 157.554688 489.058594 L 156.527344 486.851563 L 154.683594 485.4375 L 153.613281 485.542969 L 152.417969 486.300781 L 151.738281 486.164063 L 148.46875 482.535156 L 142.796875 482.960938 L 141.527344 483.375 L 140.734375 484.175781 L 139.910156 484.507813 L 134.507813 484.320313 L 132.167969 484.859375 L 129.414063 488.195313 L 126.714844 489.746094 L 124.039063 490.597656 L 123.132813 494.289063 L 123.664063 495.292969 L 123.496094 496.125 L 122.722656 496.945313 L 120.660156 497.648438 L 119.628906 499.730469 L 118.675781 498.910156 L 117.96875 497.691406 L 118.09375 496.4375 L 117.15625 494.691406 L 115.984375 493.691406 L 112.253906 492.070313 L 111.410156 491.984375 L 110.375 492.488281 L 110.242188 494.183594 L 109.421875 495.128906 L 106.824219 495.664063 L 105.398438 494.824219 L 105.628906 491.574219 L 106.074219 490.5625 L 111.738281 488.078125 L 112.199219 488.253906 L 112.445313 488.9375 L 113.574219 489.15625 L 118.144531 485.910156 L 121.425781 483.085938 L 124.375 479.769531 L 125.210938 477.886719 L 124.875 476.421875 L 125.640625 474.519531 L 128.386719 473.238281 L 132.105469 472.640625 L 132.679688 471.785156 L 133.257813 469.527344 L 135.859375 467.5625 L 138.636719 464.640625 L 139.128906 458.542969 L 139.796875 454.753906 L 142.492188 455.105469 L 144.269531 456.015625 L 145.761719 455.429688 L 148.429688 452.488281 L 148.105469 447.519531 L 151.105469 446.613281 L 157.421875 446.269531 L 159.910156 445.683594 L 164.597656 446.761719 L 166.046875 446.148438 L 167.527344 446.515625 L 169.484375 447.285156 L 170.039063 448.109375 L 170.757813 448.421875 L 173.15625 448.464844 L 180.570313 447.503906 L 181.109375 445.632813 L 181.210938 443.15625 L 182.519531 440.25 L 190.867188 432.195313 L 195.792969 425.3125 L 197.929688 424.472656 L 198.285156 423.78125 L 198.070313 423.238281 L 197.8125 423.082031 L 196.09375 424.355469 L 192.90625 427.300781 L 190.570313 429.988281 L 189.222656 431.449219 L 185.628906 432.957031 L 183.714844 433.246094 L 182.441406 433.0625 L 178.394531 435.230469 L 177.398438 436.808594 L 177.039063 438.671875 L 176.445313 439.273438 L 174.058594 439.917969 L 170.558594 439.851563 L 166.820313 439 L 166.347656 438.652344 L 161.371094 433.375 L 159.03125 429.199219 L 155.65625 429.589844 L 149.269531 432.308594 L 149.113281 432.746094 L 147.203125 431.632813 L 146.917969 429.308594 L 148.539063 428.378906 L 150.066406 428.890625 L 151.640625 428.421875 L 152.765625 427.832031 L 153.085938 427.097656 L 152.808594 426.597656 L 147.785156 426.460938 L 143.210938 423.710938 L 139.503906 423.714844 L 136.765625 424.277344 L 136.292969 426.515625 L 135.777344 427.203125 L 133.742188 427.917969 L 132.394531 427.265625 L 131.648438 427.453125 L 129.4375 429.378906 L 126.53125 428.132813 L 127.425781 426.082031 L 128.796875 425.832031 L 131.792969 424.328125 L 131.226563 422.867188 L 130.640625 424.257813 L 127.769531 424.613281 L 122.949219 424.152344 L 121.496094 423.164063 L 124.125 421.78125 L 125.167969 421.753906 L 125.464844 421.238281 L 124.929688 417.953125 L 123.328125 417.210938 L 121.445313 417.105469 L 122.0625 415.152344 L 125.933594 413.378906 L 126.539063 411.90625 L 133.074219 411.34375 L 134.871094 409.289063 L 135.753906 407.632813 L 137.585938 406.550781 L 141.359375 406.660156 L 142.21875 406.390625 L 149.359375 401.828125 L 152.136719 398.207031 L 153.054688 396.195313 L 154.199219 391.746094 L 153.734375 388.820313 L 152.566406 386.542969 L 153.179688 384.597656 L 154.652344 381.796875 L 152.269531 378.203125 L 152.683594 374.835938 L 153.175781 374.082031 L 152.804688 373.207031 L 150.203125 373.105469 L 145.449219 374.257813 L 143.757813 375.484375 L 142.039063 378.097656 L 136.757813 378.433594 L 136.246094 378.0625 L 137.339844 376.066406 L 140.148438 373.019531 L 141.023438 372.414063 L 142.589844 371.953125 L 147.132813 367.984375 L 147.953125 364.523438 L 151.550781 360.582031 L 153.09375 359.609375 L 154.941406 359.808594 L 160.492188 357.457031 L 163.644531 357.28125 L 167.339844 357.714844 L 172.597656 355.179688 L 173.933594 355.046875 L 174.484375 355.082031 L 179.910156 359.441406 L 180.433594 358.429688 L 177.679688 353.460938 L 178.242188 352.835938 L 180.867188 352.449219 L 181.503906 352.695313 L 181.914063 353.875 L 182.898438 354.332031 L 184.078125 356.789063 L 185.613281 357.902344 L 188.359375 357.621094 L 190.335938 355.148438 L 189.90625 355.050781 L 188.667969 355.527344 L 188.3125 355.957031 L 186.378906 356.386719 L 183.8125 354.640625 L 179.976563 346.332031 L 183.371094 340.257813 L 185.429688 339.015625 L 185.140625 338.578125 L 182.683594 338.460938 L 181.832031 337.480469 L 182.023438 337.410156 L 184.128906 336.980469 L 186.171875 335.980469 L 187.757813 335.46875 L 189.425781 335.429688 L 191.039063 335.867188 L 192.460938 336.742188 L 195.351563 339.160156 L 196.847656 339.910156 L 198.550781 340.21875 L 201.101563 339.914063 L 203.011719 340.003906 L 204.789063 340.710938 L 206.242188 341.953125 L 207.210938 343.601563 L 207.59375 345.472656 L 207.667969 347.441406 L 208.183594 349.34375 L 208.375 351.164063 Z M 204.746094 356.179688 L 204.023438 356.492188 L 202.199219 356.664063 L 200.414063 356.261719 L 198.273438 355.410156 L 196.757813 355.234375 L 195.25 355.464844 L 193.839844 356.085938 L 192.558594 357.117188 L 189.722656 360.4375 L 189.066406 361.75 L 188.761719 363.203125 L 189.039063 366.9375 L 189.285156 368.054688 L 189.898438 369.386719 L 190.847656 370.5625 L 191.890625 371.351563 L 193.125 371.894531 L 197.710938 372.757813 L 199.039063 372.808594 L 200.539063 372.511719 L 201.859375 371.875 L 202.972656 370.925781 L 203.796875 369.753906 L 204.351563 368.214844 L 204.523438 365.933594 L 204.632813 365.167969 L 205.117188 362.886719 L 205.066406 361.582031 L 204.546875 359.628906 L 204.367188 357.6875 Z M 146.023438 295.867188 L 145.171875 294.15625 L 143.839844 292.574219 L 142.90625 291.019531 L 142.492188 289.253906 L 142.644531 287.449219 L 143.34375 285.777344 L 144.523438 284.402344 L 146.070313 283.457031 L 147.835938 283.035156 L 149.640625 283.175781 L 151.320313 283.863281 L 154.230469 285.640625 L 155.027344 285.859375 L 155.867188 285.929688 L 158.070313 285.511719 L 160.773438 283.863281 L 162.449219 283.175781 L 164.253906 283.035156 L 166.019531 283.453125 L 168.140625 284.328125 L 169.339844 284.484375 L 168.226563 288.992188 L 166.234375 288.695313 L 163.3125 290.011719 L 161.832031 291.855469 L 159.410156 293.515625 L 156.15625 293.3125 L 155.160156 292.984375 L 149.984375 289.230469 L 149.214844 288.042969 L 149.230469 287.167969 L 148.945313 287.023438 L 148.15625 288.078125 L 147.988281 288.910156 L 148.375 290.554688 L 149.574219 292.960938 L 149.839844 295.726563 L 149.308594 296.871094 L 148.746094 297.058594 Z M 167.167969 224.503906 L 165.644531 223.664063 L 164.441406 222.417969 L 163.65625 220.867188 L 163.363281 219.15625 L 163.589844 217.4375 L 164.316406 215.859375 L 165.472656 214.566406 L 166.960938 213.671875 L 169.472656 212.632813 L 171.625 210.769531 L 173.046875 209.867188 L 174.664063 209.40625 L 176.347656 209.425781 L 177.953125 209.929688 L 179.351563 210.871094 L 181.109375 212.476563 L 182.503906 213.179688 L 184.148438 213.484375 L 186.503906 213.257813 L 188.429688 213.394531 L 190.203125 214.152344 L 191.632813 215.449219 L 192.558594 217.144531 L 192.777344 218.457031 L 191.214844 219.742188 L 185.519531 221.085938 L 182.847656 221.226563 L 177.804688 225.21875 L 178.117188 225.714844 L 179.84375 225.195313 L 184.609375 222.886719 L 186.457031 221.386719 L 187.289063 221.316406 L 189.085938 221.875 L 189.332031 222.921875 L 188.898438 224.691406 L 189.238281 225.953125 L 190.898438 226.824219 L 191.230469 226.882813 L 190.65625 227.492188 L 189.136719 228.355469 L 187.53125 228.96875 L 186.5625 229.582031 L 185.734375 230.371094 L 184.746094 231.78125 L 183.398438 233.148438 L 181.683594 234 L 179.78125 234.25 L 177.902344 233.871094 L 176.25 232.898438 L 175.003906 231.441406 L 173.464844 228.890625 L 170.484375 226.140625 L 169.121094 225.222656 Z M 173.304688 180.027344 L 172.339844 181.488281 L 170.976563 182.597656 L 169.351563 183.25 L 167.601563 183.386719 L 165.890625 182.996094 L 164.375 182.113281 L 163.191406 180.820313 L 162.449219 179.230469 L 162.097656 178.042969 L 161.863281 176.425781 L 162.085938 174.800781 L 162.558594 173.144531 L 162.617188 172.410156 L 167.808594 170.273438 L 170.480469 169.527344 L 170.492188 169.949219 L 171.554688 169.839844 L 173.589844 168.316406 L 174.046875 166.78125 L 178.648438 166.167969 L 179.285156 167.089844 L 179.910156 167.511719 L 180.273438 168.304688 L 180.492188 170.058594 L 180.171875 171.800781 L 179.34375 173.363281 L 178.082031 174.605469 L 176.554688 175.707031 L 174.648438 177.625 L 173.984375 178.554688 Z M 162.164063 167.175781 L 162.574219 165.78125 L 163.574219 164.296875 L 164.980469 163.191406 L 166.367188 162.667969 L 162.722656 166.96875 L 162.175781 167.183594 Z M 119.214844 215.277344 L 119.433594 213.589844 L 120.128906 212.039063 L 121.242188 210.757813 L 122.679688 209.847656 L 124.609375 209 L 125.699219 208.152344 L 126.621094 206.976563 L 127.464844 205.066406 L 128.40625 203.585938 L 129.75 202.457031 L 131.367188 201.777344 L 133.113281 201.609375 L 134.828125 201.972656 L 136.359375 202.828125 L 137.566406 204.105469 L 138.335938 205.679688 L 138.601563 207.414063 L 138.601563 211.292969 L 138.339844 213.007813 L 137.585938 214.574219 L 136.402344 215.84375 L 134.605469 217.273438 L 132.007813 220.371094 L 131.296875 221.636719 L 130.738281 223.554688 L 129.960938 225.207031 L 128.707031 226.539063 L 127.101563 227.414063 L 125.304688 227.746094 L 123.492188 227.507813 L 122.203125 226.886719 L 122.761719 224.691406 L 124.160156 221.96875 L 126.660156 220.210938 L 128.792969 220.179688 L 129.328125 220.484375 L 131.4375 220.320313 L 134.28125 217.339844 L 135.300781 215.007813 L 134.855469 215.347656 L 134.105469 217.117188 L 131.898438 219.546875 L 131.125 219.644531 L 127.28125 218.265625 L 127.882813 216.460938 L 128.195313 216.742188 L 128.945313 216.671875 L 131.070313 215.113281 L 129.507813 214.882813 L 128.550781 215.441406 L 127.980469 214.949219 L 127.875 213.785156 L 129.65625 210.6875 L 134.21875 205.03125 L 134.59375 204.003906 L 123.476563 215.398438 L 120.675781 217.269531 L 120.230469 216.390625 L 119.230469 215.941406 Z M 121.851563 226.71875 L 121.84375 226.714844 L 121.023438 225.929688 L 120.984375 225.621094 L 121.59375 224.800781 L 122.367188 224.816406 L 121.953125 226.621094 Z M 119.546875 223.191406 L 119.339844 222.039063 L 119.257813 217.457031 L 121.195313 219.144531 L 120.902344 221.207031 Z M 147.425781 363.976563 L 146.109375 363.875 L 144.195313 361.613281 L 142.050781 357.363281 L 142.246094 352.273438 L 144.664063 351.183594 L 146.003906 350.957031 L 149.566406 352.007813 L 151.039063 355.578125 L 155.546875 356.503906 L 154.066406 358.859375 L 150.984375 360.816406 Z M 141.734375 358.875 L 141.003906 358.070313 L 139.230469 356.960938 L 138.828125 356.035156 L 139.253906 355.210938 L 140.597656 355.164063 L 141.484375 356.3125 L 142.226563 358.1875 Z M 286.679688 439.636719 L 283.058594 438.976563 L 282.164063 437.605469 L 282.484375 436.070313 L 286.839844 437.054688 L 287.960938 438.832031 Z M 236.835938 466.113281 L 235.136719 465.644531 L 236.523438 463.683594 L 237.195313 464.164063 L 237.5 465.839844 Z M 228.117188 474.644531 L 222.296875 470.886719 L 220.207031 471.1875 L 221.476563 469.683594 L 227.316406 466.367188 L 232.550781 467.761719 L 234.171875 469.894531 L 231.242188 473.621094 L 229.960938 474.269531 Z M 123.378906 222.417969 L 122.582031 222.078125 L 123.082031 221.191406 L 124.476563 221.046875 Z M 123.378906 222.417969 "/>
<path style=" stroke:none;fill-rule:nonzero;fill:rgb(80.392157%,58.431373%,4.705882%);fill-opacity:1;" d="M 192.875 257.816406 L 192.59375 259.613281 L 191.765625 261.234375 L 190.480469 262.519531 L 188.859375 263.347656 L 187.0625 263.628906 L 185.265625 263.347656 L 183.644531 262.519531 L 182.355469 261.234375 L 181.53125 259.613281 L 181.246094 257.816406 L 181.53125 256.019531 L 182.355469 254.398438 L 183.644531 253.109375 L 185.265625 252.285156 L 187.0625 252 L 188.859375 252.285156 L 190.480469 253.109375 L 191.765625 254.398438 L 192.59375 256.019531 Z M 192.875 257.816406 "/>
<path style=" stroke:none;fill-rule:nonzero;fill:rgb(80.392157%,58.431373%,4.705882%);fill-opacity:1;" d="M 157.984375 226.800781 L 157.699219 228.597656 L 156.875 230.21875 L 155.585938 231.503906 L 153.964844 232.332031 L 152.167969 232.617188 L 150.371094 232.332031 L 148.75 231.503906 L 147.464844 230.21875 L 146.636719 228.597656 L 146.355469 226.800781 L 146.636719 225.003906 L 147.464844 223.382813 L 148.75 222.09375 L 150.371094 221.269531 L 152.167969 220.984375 L 153.964844 221.269531 L 155.585938 222.09375 L 156.875 223.382813 L 157.699219 225.003906 Z M 157.984375 226.800781 "/>
<path style=" stroke:none;fill-rule:nonzero;fill:rgb(80.392157%,58.431373%,4.705882%);fill-opacity:1;" d="M 224.925781 289.886719 L 223.75 290.484375 L 221.953125 290.769531 L 220.15625 290.484375 L 218.535156 289.660156 L 217.25 288.371094 L 216.421875 286.75 L 216.136719 284.953125 L 216.421875 283.15625 L 217.25 281.535156 L 218.535156 280.25 L 220.15625 279.421875 L 220.925781 279.300781 L 221.269531 280.457031 L 222.984375 284.039063 L 223.773438 285.027344 Z M 224.925781 289.886719 "/>
<path style=" stroke:none;fill-rule:nonzero;fill:rgb(80.392157%,58.431373%,4.705882%);fill-opacity:1;" d="M 125.695313 242.011719 L 124.570313 243.136719 L 122.949219 243.960938 L 121.152344 244.246094 L 119.355469 243.960938 L 119.292969 243.929688 L 119.359375 242.367188 L 121.945313 238.054688 L 122.191406 237.09375 L 120.824219 237.742188 L 119.636719 239.75 L 119.449219 238.929688 L 122.839844 232.882813 L 122.949219 232.898438 L 124.570313 233.726563 L 125.859375 235.011719 L 126.683594 236.632813 L 126.945313 238.289063 L 126.449219 238.917969 L 125.671875 238.734375 L 125.460938 238.363281 Z M 115.59375 240.054688 L 115.339844 238.429688 L 115.625 236.632813 L 116.449219 235.011719 L 117.734375 233.726563 L 119.355469 232.898438 L 119.53125 232.871094 L 119.632813 233.128906 L 119.449219 233.945313 L 118.015625 235.730469 Z M 115.59375 240.054688 "/>
<path style=" stroke:none;fill-rule:nonzero;fill:rgb(80.392157%,58.431373%,4.705882%);fill-opacity:1;" d="M 139.410156 322.675781 L 138.882813 321.644531 L 138.640625 320.097656 L 139.816406 316.644531 L 142.300781 315.023438 L 142.671875 314.308594 L 144.414063 314.03125 L 146.210938 314.316406 L 147.832031 315.140625 L 148.847656 316.15625 L 147.847656 318.148438 L 145.3125 320.636719 L 141.859375 323.019531 L 139.824219 322.464844 Z M 139.410156 322.675781 "/>
<path style=" stroke:none;fill-rule:nonzero;fill:rgb(80.392157%,58.431373%,4.705882%);fill-opacity:1;" d="M 150.09375 312.957031 L 149.945313 313.890625 L 149.121094 315.511719 L 147.832031 316.796875 L 146.210938 317.625 L 144.414063 317.90625 L 142.617188 317.625 L 140.996094 316.796875 L 140.4375 316.238281 L 142.300781 315.023438 L 144.765625 310.230469 L 145.863281 309.40625 L 148.800781 308.355469 L 149.121094 308.675781 L 149.148438 308.730469 Z M 150.09375 312.957031 "/>
<path style=" stroke:none;fill-rule:nonzero;fill:rgb(80.392157%,58.431373%,4.705882%);fill-opacity:1;" d="M 123.09375 242.308594 L 122.808594 244.105469 L 121.980469 245.726563 L 120.695313 247.011719 L 119.625 247.558594 L 119.164063 246.890625 L 119.359375 242.367188 L 121.648438 238.554688 L 121.980469 238.890625 L 122.808594 240.511719 Z M 112.609375 245.761719 L 112.570313 245.726563 L 111.746094 244.105469 L 111.460938 242.308594 L 111.746094 240.511719 L 112.570313 238.890625 L 113.859375 237.601563 L 115.480469 236.777344 L 117.277344 236.492188 L 117.5625 236.539063 L 113.761719 243.328125 Z M 120.304688 237.40625 L 120.695313 237.601563 L 120.832031 237.738281 L 120.824219 237.742188 L 119.636719 239.75 L 119.449219 238.929688 Z M 120.304688 237.40625 "/>
<path style=" stroke:none;fill-rule:nonzero;fill:rgb(80.392157%,58.431373%,4.705882%);fill-opacity:1;" d="M 149.589844 310.710938 L 149.121094 311.632813 L 147.832031 312.921875 L 146.210938 313.746094 L 144.414063 314.03125 L 142.933594 313.796875 L 144.765625 310.230469 L 145.863281 309.40625 L 149.046875 308.269531 Z M 149.589844 310.710938 "/>
</g>
</svg>
