<?xml version="1.0" encoding="UTF-8"?>
<svg xmlns="http://www.w3.org/2000/svg" xmlns:xlink="http://www.w3.org/1999/xlink" width="378pt" height="504pt" viewBox="0 0 378 504" version="1.1">
<g id="data">
<rect x="0" y="0" width="378" height="504" style="fill:rgb(100%,100%,100%);fill-opacity:1;stroke:none;"/>
<path style=" stroke:none;fill-rule:nonzero;fill:rgb(100%,100%,100%);fill-opacity:1;" d="M 53.308594 504 L 324.691406 504 L 324.691406 0 L 53.308594 0 Z M 53.308594 504 "/>
<path style=" stroke:none;fill-rule:nonzero;fill:rgb(22.745098%,53.333333%,16.078431%);fill-opacity:1;" d="M 106.996094 495.628906 L 105.792969 494.894531 L 105.421875 494.476563 L 105.628906 491.574219 L 106.074219 490.5625 L 111.738281 488.078125 L 112.199219 488.253906 L 112.445313 488.9375 L 113.574219 489.15625 L 118.144531 485.910156 L 121.425781 483.085938 L 124.375 479.769531 L 125.210938 477.886719 L 124.875 476.421875 L 125.640625 474.519531 L 127.546875 473.628906 L 128.332031 474.011719 L 130.1875 475.292969 L 132.308594 476.050781 L 133.839844 476.875 L 134.054688 477.09375 L 134.101563 476.976563 L 135.195313 475.636719 L 137.3125 473.722656 L 138.246094 472.035156 L 138.691406 469.726563 L 138.605469 467.390625 L 139.003906 465.039063 L 139.945313 462.640625 L 140.078125 460.941406 L 139.664063 459.097656 L 139.199219 458.144531 L 139.796875 454.753906 L 142.492188 455.105469 L 144.269531 456.015625 L 145.761719 455.429688 L 148.429688 452.488281 L 148.105469 447.519531 L 151.105469 446.613281 L 157.421875 446.269531 L 159.910156 445.683594 L 164.597656 446.761719 L 166.046875 446.148438 L 167.527344 446.515625 L 169.484375 447.285156 L 170.039063 448.109375 L 170.757813 448.421875 L 173.15625 448.464844 L 180.570313 447.503906 L 181.109375 445.632813 L 181.210938 443.15625 L 182.519531 440.25 L 190.867188 432.195313 L 195.792969 425.3125 L 197.929688 424.472656 L 198.285156 423.78125 L 198.070313 423.238281 L 197.8125 423.082031 L 196.09375 424.355469 L 192.90625 427.300781 L 190.570313 429.988281 L 189.222656 431.449219 L 185.628906 432.957031 L 183.714844 433.246094 L 182.441406 433.0625 L 178.394531 435.230469 L 177.398438 436.808594 L 177.039063 438.671875 L 176.445313 439.273438 L 174.058594 439.917969 L 170.558594 439.851563 L 166.820313 439 L 166.347656 438.652344 L 161.371094 433.375 L 159.03125 429.199219 L 155.65625 429.589844 L 149.269531 432.308594 L 149.113281 432.746094 L 147.203125 431.632813 L 146.917969 429.308594 L 148.539063 428.378906 L 150.066406 428.890625 L 151.640625 428.421875 L 152.765625 427.832031 L 153.085938 427.097656 L 152.808594 426.597656 L 147.785156 426.460938 L 143.210938 423.710938 L 139.503906 423.714844 L 136.765625 424.277344 L 136.292969 426.515625 L 135.777344 427.203125 L 133.742188 427.917969 L 132.394531 427.265625 L 131.648438 427.453125 L 129.921875 428.957031 L 129.433594 429.011719 L 128.996094 429.191406 L 126.53125 428.132813 L 127.425781 426.082031 L 128.796875 425.832031 L 131.792969 424.328125 L 131.226563 422.867188 L 130.640625 424.257813 L 127.769531 424.613281 L 122.949219 424.152344 L 121.496094 423.164063 L 124.125 421.78125 L 125.167969 421.753906 L 125.464844 421.238281 L 124.929688 417.953125 L 123.328125 417.210938 L 121.445313 417.105469 L 122.0625 415.152344 L 125.933594 413.378906 L 126.539063 411.90625 L 133.074219 411.34375 L 134.871094 409.289063 L 135.753906 407.632813 L 137.585938 406.550781 L 141.359375 406.660156 L 142.21875 406.390625 L 149.359375 401.828125 L 152.136719 398.207031 L 153.054688 396.195313 L 154.199219 391.746094 L 153.734375 388.820313 L 152.566406 386.542969 L 153.179688 384.597656 L 154.652344 381.796875 L 152.269531 378.203125 L 152.683594 374.835938 L 153.175781 374.082031 L 152.804688 373.207031 L 150.203125 373.105469 L 145.449219 374.257813 L 143.757813 375.484375 L 143.425781 375.992188 L 143.035156 375.894531 L 141.238281 375.117188 L 139.804688 373.789063 L 139.671875 373.535156 L 140.148438 373.019531 L 141.023438 372.414063 L 142.589844 371.953125 L 147.132813 367.984375 L 147.953125 364.523438 L 151.550781 360.582031 L 153.09375 359.609375 L 154.941406 359.808594 L 160.492188 357.457031 L 163.644531 357.28125 L 167.339844 357.714844 L 172.597656 355.179688 L 173.933594 355.046875 L 174.484375 355.082031 L 179.910156 359.441406 L 180.433594 358.429688 L 177.679688 353.460938 L 178.242188 352.835938 L 180.867188 352.449219 L 181.503906 352.695313 L 181.914063 353.875 L 182.898438 354.332031 L 184.078125 356.789063 L 185.613281 357.902344 L 188.359375 357.621094 L 190.335938 355.148438 L 189.90625 355.050781 L 188.667969 355.527344 L 188.3125 355.957031 L 186.378906 356.386719 L 183.8125 354.640625 L 179.976563 346.332031 L 183.371094 340.257813 L 185.429688 339.015625 L 185.140625 338.578125 L 182.683594 338.460938 L 181.554688 337.164063 L 181.355469 336.117188 L 181.601563 331.078125 L 181.949219 330.421875 L 184.695313 329.191406 L 187.28125 323.421875 L 187.71875 320.933594 L 187.855469 317.484375 L 184.742188 320.527344 L 179.199219 323.441406 L 177.382813 322.710938 L 177.328125 322.671875 L 172.851563 314.925781 L 172.289063 311.832031 L 167.40625 304.652344 L 169.164063 299.058594 L 174.074219 288.722656 L 176.464844 286.417969 L 178.757813 285.980469 L 180.191406 286.804688 L 181.015625 286.710938 L 182.933594 286.238281 L 183.03125 285.160156 L 182.34375 284.746094 L 180.035156 285.351563 L 174.65625 284.980469 L 172.566406 284.292969 L 171.921875 284.238281 L 172.132813 284.039063 L 173.703125 283.277344 L 175.429688 283.015625 L 183.183594 283.015625 L 183.867188 283.054688 L 185.90625 283.296875 L 186.789063 283.210938 L 188.800781 282.441406 L 191.039063 280.53125 L 192.613281 279.570313 L 194.40625 279.152344 L 196.601563 279 L 197.953125 278.546875 L 199.296875 277.648438 L 200.324219 276.445313 L 200.988281 275.003906 L 201.242188 273.433594 L 201.078125 271.945313 L 200.523438 270.527344 L 199.621094 269.300781 L 198.46875 268.386719 L 196.847656 267.71875 L 194.28125 267.484375 L 193.519531 267.363281 L 191.554688 266.914063 L 190.320313 266.914063 L 188.359375 267.363281 L 186.589844 267.488281 L 184.863281 267.078125 L 183.34375 266.164063 L 182.167969 264.835938 L 181.449219 263.21875 L 181.25 261.457031 L 181.59375 259.714844 L 182.5625 257.035156 L 182.578125 255.0625 L 181.941406 253.214844 L 180.441406 251.347656 L 178.042969 249.324219 L 176.992188 248.710938 L 173.988281 247.941406 L 173.203125 247.679688 L 171.257813 246.871094 L 169.429688 246.566406 L 167.675781 245.976563 L 166.195313 244.867188 L 165.140625 243.347656 L 164.617188 241.574219 L 164.675781 239.726563 L 165.3125 237.988281 L 168.308594 232.636719 L 168.609375 231.488281 L 168.65625 230.277344 L 168.464844 229.144531 L 168.136719 228.261719 L 166.726563 226.164063 L 166.328125 225.472656 L 165.417969 223.609375 L 164.890625 222.933594 L 163.433594 221.789063 L 161.546875 221.074219 L 156.378906 220.382813 L 153.089844 220.910156 L 151.417969 220.9375 L 149.808594 220.484375 L 148.398438 219.59375 L 147.292969 218.339844 L 146.59375 216.824219 L 146.355469 215.167969 L 146.355469 211.292969 L 146.585938 209.667969 L 147.042969 208.09375 L 147.148438 207.011719 L 147.046875 205.929688 L 146.761719 204.949219 L 146.097656 203.710938 L 145.210938 202.707031 L 144.117188 201.933594 L 142.246094 201.179688 L 140.648438 200.214844 L 139.4375 198.792969 L 138.742188 197.0625 L 138.628906 195.199219 L 139.113281 193.398438 L 140.140625 191.839844 L 141.609375 190.691406 L 143.367188 190.0625 L 145.175781 189.734375 L 146.226563 189.308594 L 147.183594 188.675781 L 147.996094 187.867188 L 148.625 186.929688 L 149.09375 185.777344 L 149.296875 184.664063 L 149.277344 183.566406 L 148.960938 182.21875 L 148.308594 180.914063 L 146.523438 178.578125 L 144.625 177.035156 L 143.257813 175.433594 L 142.550781 173.453125 L 142.597656 171.347656 L 143.082031 169.003906 L 142.964844 167.402344 L 142.460938 166 L 141.070313 164.03125 L 140.242188 162.308594 L 140.015625 160.414063 L 140.414063 158.546875 L 141.394531 156.910156 L 142.851563 155.679688 L 144.632813 154.984375 L 147.164063 154.453125 L 148.59375 153.679688 L 149.753906 152.519531 L 150.945313 150.347656 L 151.980469 148.980469 L 153.367188 147.976563 L 154.984375 147.421875 L 156.695313 147.359375 L 158.351563 147.800781 L 160.042969 148.53125 L 161.152344 148.757813 L 162.304688 148.761719 L 163.207031 148.582031 L 165.207031 147.5625 L 167.28125 145.316406 L 168.035156 144.632813 L 169.929688 143.191406 L 171.605469 142.304688 L 173.476563 142.003906 L 175.34375 142.324219 L 176.773438 143.097656 L 176.097656 143.761719 L 173.855469 147.214844 L 162.601563 156.074219 L 162.234375 157.082031 L 162.671875 158.175781 L 162.078125 159.632813 L 159.644531 160.289063 L 156.839844 159.359375 L 153.464844 157.734375 L 154.464844 159.796875 L 155.875 160.457031 L 161.363281 161.917969 L 164.042969 162.292969 L 165.242188 161.992188 L 166.015625 161.605469 L 166.75 160.257813 L 167.589844 160.183594 L 167.507813 160.828125 L 166.417969 162.609375 L 162.722656 166.96875 L 162.175781 167.183594 L 161.726563 166.894531 L 161.859375 165.949219 L 161.53125 165.507813 L 159.984375 165.785156 L 155.320313 167.769531 L 152.441406 170.8125 L 151.949219 171.945313 L 152.140625 172.144531 L 156.390625 168.453125 L 157.75 167.980469 L 160.300781 168.324219 L 161.058594 169.320313 L 157.109375 173.804688 L 156.367188 175.339844 L 156.707031 175.816406 L 157.367188 175.984375 L 158.261719 175.542969 L 161.140625 173.015625 L 167.808594 170.273438 L 170.480469 169.527344 L 170.492188 169.949219 L 171.554688 169.839844 L 173.589844 168.316406 L 174.046875 166.78125 L 178.648438 166.167969 L 179.285156 167.089844 L 180.148438 167.667969 L 184.320313 169.011719 L 187.675781 167.128906 L 195.691406 168.425781 L 195.757813 169.066406 L 195.390625 170.828125 L 194.5 172.390625 L 193.171875 173.609375 L 191.539063 174.363281 L 189.695313 174.886719 L 188.632813 175.457031 L 185.355469 178.160156 L 183.839844 180.042969 L 182.8125 181.042969 L 181.570313 181.757813 L 179.890625 182.464844 L 178.992188 183.09375 L 177.828125 184.433594 L 176.835938 186.589844 L 176.097656 187.78125 L 175.097656 188.761719 L 173.660156 189.871094 L 172.207031 191.675781 L 171.148438 192.699219 L 169.875 193.640625 L 169.007813 194.589844 L 167.363281 197.011719 L 166.789063 198.839844 L 166.820313 200.65625 L 167.503906 202.574219 L 169.417969 205.195313 L 171.371094 206.800781 L 171.882813 207.273438 L 174.015625 209.507813 L 175.679688 210.34375 L 177.738281 210.617188 L 178.78125 210.472656 L 179.757813 210.125 L 181.105469 209.25 L 182.703125 207.441406 L 184.152344 206.257813 L 185.894531 205.59375 L 187.953125 205.175781 L 189.019531 204.675781 L 191.390625 202.644531 L 192.828125 200.761719 L 194.082031 199.546875 L 195.644531 198.761719 L 197.367188 198.476563 L 199.097656 198.714844 L 200.679688 199.453125 L 201.972656 200.632813 L 202.851563 202.140625 L 203.304688 203.273438 L 203.230469 203.472656 L 200.949219 206.4375 L 199.179688 207.605469 L 197.078125 210.023438 L 197.433594 210.839844 L 197.785156 210.703125 L 197.761719 211.238281 L 196.796875 214.386719 L 195.867188 215.914063 L 191.214844 219.742188 L 185.519531 221.085938 L 182.847656 221.226563 L 177.804688 225.21875 L 178.117188 225.714844 L 179.84375 225.195313 L 184.609375 222.886719 L 186.457031 221.386719 L 187.289063 221.316406 L 189.085938 221.875 L 189.332031 222.921875 L 188.898438 224.691406 L 189.238281 225.953125 L 190.898438 226.824219 L 192.988281 227.191406 L 194.445313 228.726563 L 194.429688 229.304688 L 192.117188 231.570313 L 189.460938 232.730469 L 188.34375 232.882813 L 187.070313 232.078125 L 185.40625 232.042969 L 181.046875 235.800781 L 180.578125 237.003906 L 174.761719 240.109375 L 170.214844 238.117188 L 166.480469 238.003906 L 166.738281 239.222656 L 168.246094 240.195313 L 178.0625 241.875 L 182.921875 243.167969 L 186.398438 241.730469 L 187.519531 239.417969 L 188.617188 238.355469 L 189.539063 238.171875 L 193.183594 238.5 L 199.339844 242.761719 L 206.488281 246.65625 L 208.910156 251.429688 L 212.824219 256.707031 L 213.265625 256.828125 L 213.433594 256.585938 L 214.601563 257.097656 L 217.371094 258.992188 L 218.679688 263.09375 L 218.894531 265.933594 L 218.261719 267.402344 L 220.40625 277.574219 L 221.269531 280.457031 L 222.4375 282.894531 L 222.394531 283.382813 L 222.597656 284.601563 L 223.429688 286.554688 L 223.835938 288.027344 L 224.167969 290.402344 L 224.789063 291.8125 L 225.613281 292.773438 L 225.945313 294.183594 L 229.304688 299.0625 L 244.476563 306.140625 L 245.742188 307.636719 L 247.265625 310.527344 L 249.289063 315.722656 L 252.390625 319.148438 L 256.121094 320.875 L 257.207031 321.722656 L 254.738281 323.09375 L 253.890625 324.554688 L 253.765625 325.996094 L 254.984375 329.992188 L 256.160156 332.453125 L 263.316406 342.46875 L 263.640625 343.980469 L 262.804688 345.191406 L 263.28125 343.65625 L 262.507813 342.839844 L 260.445313 342 L 258.378906 342.789063 L 257.507813 342.753906 L 256.035156 341.773438 L 253.664063 338.65625 L 252.601563 338.082031 L 245.550781 339.511719 L 244.589844 338.644531 L 243.40625 338.558594 L 241.210938 339.871094 L 241.886719 340.445313 L 246.324219 340.394531 L 249.617188 339.34375 L 251.976563 339.082031 L 254.382813 342.558594 L 260.535156 347.621094 L 263.042969 349.058594 L 263.664063 349.039063 L 266.046875 352.214844 L 268.980469 359.304688 L 269.535156 362.402344 L 269.210938 365.21875 L 264.953125 369.09375 L 261.394531 373.164063 L 260.601563 374.816406 L 262.84375 374.3125 L 264.9375 375.519531 L 266.9375 378.226563 L 270.21875 378.804688 L 270.625 378.746094 L 271.910156 376.796875 L 272.234375 374.960938 L 273.40625 371.914063 L 274.707031 370.632813 L 277.851563 370.085938 L 283.34375 370.234375 L 284.253906 370.867188 L 286.703125 370.742188 L 293.949219 371.515625 L 296.914063 372.84375 L 304.070313 378.085938 L 305.367188 380.105469 L 306.730469 384.164063 L 307.179688 391.25 L 306.777344 393.191406 L 306.890625 393.976563 L 305.789063 396.917969 L 303.519531 407.832031 L 297.144531 414.53125 L 295.578125 412.011719 L 292.742188 410.515625 L 292.480469 410.636719 L 293.898438 413.703125 L 295.890625 416.628906 L 296.3125 416.765625 L 296.164063 417.742188 L 294.574219 419.804688 L 292.191406 421.289063 L 290.003906 421.65625 L 289.660156 421.574219 L 288.214844 419.332031 L 284.976563 421.730469 L 280.71875 424.230469 L 282.339844 425.378906 L 285.105469 424.398438 L 286.097656 423.375 L 286.894531 423.164063 L 287.328125 423.710938 L 287.632813 428.84375 L 285.6875 430.875 L 283.441406 432.558594 L 282.84375 432.699219 L 279.644531 432.160156 L 274.75 433.78125 L 272.609375 436.117188 L 274.253906 436.015625 L 275.152344 434.667969 L 276.683594 434.363281 L 278.285156 434.328125 L 281.054688 434.949219 L 281.828125 435.589844 L 281.691406 436.328125 L 279.554688 436.347656 L 277.390625 437.65625 L 277.96875 438.546875 L 281.382813 438.964844 L 286.863281 440.339844 L 289.394531 439.9375 L 291.074219 438.957031 L 299.742188 437.757813 L 300.988281 440.148438 L 300.773438 446.324219 L 300.335938 447.820313 L 299.394531 449.050781 L 296.972656 450.242188 L 295.839844 450.375 L 292.621094 451.640625 L 291.179688 452.742188 L 289.847656 454.226563 L 289.460938 455.09375 L 289.214844 456.324219 L 289.464844 457.886719 L 286.253906 458.289063 L 284.1875 457.9375 L 281.042969 460.90625 L 278.484375 461.933594 L 274.789063 462.777344 L 272.597656 463.816406 L 270.539063 466.589844 L 269.761719 466.949219 L 259.269531 463.777344 L 256.070313 463.507813 L 244.628906 465.699219 L 242.703125 466.390625 L 242.113281 466.964844 L 241.902344 467.984375 L 241.359375 468.164063 L 238.210938 466.1875 L 238.632813 465.4375 L 239.46875 464.933594 L 237.714844 463.296875 L 231.496094 463.171875 L 231.378906 463.496094 L 232.574219 464.835938 L 232.214844 465.75 L 231.738281 466.042969 L 226.691406 465.496094 L 219.566406 468.449219 L 217.054688 467.824219 L 210.222656 468.96875 L 208.164063 468.875 L 207.273438 468.058594 L 206.238281 469.769531 L 209.429688 471.089844 L 209.714844 470.9375 L 210.1875 472.128906 L 209.566406 473.890625 L 206.84375 474.453125 L 204.453125 473.097656 L 203.015625 472.699219 L 197.625 472.007813 L 196.175781 472.65625 L 195.679688 473.863281 L 195.832031 474.871094 L 196.757813 475.523438 L 196.488281 476.304688 L 195.917969 475.996094 L 194.851563 473.972656 L 190.289063 470.589844 L 185.898438 468.519531 L 183.121094 467.984375 L 181.648438 469.066406 L 176.207031 469.78125 L 174.339844 470.335938 L 168.992188 473.234375 L 168.214844 474.070313 L 167.203125 476.179688 L 162.746094 489.226563 L 160.929688 490.242188 L 158.269531 489.722656 L 157.554688 489.058594 L 156.527344 486.851563 L 154.683594 485.4375 L 153.613281 485.542969 L 152.417969 486.300781 L 151.738281 486.164063 L 148.46875 482.535156 L 142.796875 482.960938 L 141.527344 483.375 L 140.734375 484.175781 L 139.910156 484.507813 L 134.507813 484.320313 L 132.167969 484.859375 L 129.414063 488.195313 L 126.714844 489.746094 L 124.039063 490.597656 L 123.132813 494.289063 L 123.664063 495.292969 L 123.496094 496.125 L 122.722656 496.945313 L 120.660156 497.648438 L 119.628906 499.730469 L 118.675781 498.910156 L 117.96875 497.691406 L 118.09375 496.4375 L 117.15625 494.691406 L 115.984375 493.691406 L 112.253906 492.070313 L 111.410156 491.984375 L 110.375 492.488281 L 110.242188 494.183594 L 109.421875 495.128906 Z M 144.191406 351.398438 L 145.792969 351.886719 L 147.503906 352.730469 L 148.75 353.035156 L 150.003906 353.066406 L 151.039063 355.578125 L 155.546875 356.503906 L 154.066406 358.859375 L 150.984375 360.816406 L 147.425781 363.976563 L 146.109375 363.875 L 144.195313 361.613281 L 142.050781 357.363281 L 142.246094 352.273438 Z M 167.324219 288.855469 L 167.957031 288.136719 L 168.554688 287.667969 L 168.226563 288.992188 Z M 202.203125 172.621094 L 201.136719 171.023438 L 200.652344 169.164063 L 200.667969 168.964844 L 204.117188 168.914063 L 205.648438 167.671875 L 207.910156 167.828125 L 210.3125 168.835938 L 212.550781 172.800781 L 213.671875 176.582031 L 213.695313 178 L 210.34375 182.214844 L 210.324219 182.214844 L 208.339844 181.867188 L 206.597656 180.863281 L 205.296875 179.328125 L 204.601563 177.441406 L 204.292969 175.746094 L 203.914063 174.773438 L 203.292969 173.789063 Z M 136.726563 242.820313 L 135.589844 241.480469 L 134.902344 239.863281 L 134.730469 238.117188 L 135.089844 236.394531 L 135.949219 234.859375 L 137.222656 233.652344 L 138.800781 232.878906 L 140.539063 232.617188 L 144.414063 232.617188 L 146.0625 232.851563 L 147.574219 233.546875 L 148.828125 234.640625 L 150.945313 237.109375 L 153.535156 239.234375 L 154.757813 239.898438 L 157.320313 240.449219 L 159.734375 240.371094 L 161.535156 240.597656 L 163.179688 241.367188 L 164.507813 242.605469 L 165.386719 244.195313 L 165.734375 245.976563 L 165.515625 247.777344 L 164.753906 249.425781 L 163.519531 250.753906 L 161.894531 252.03125 L 160.617188 253.65625 L 159.425781 254.792969 L 157.96875 255.550781 L 156.351563 255.867188 L 154.46875 255.96875 L 153.179688 256.335938 L 152.007813 256.988281 L 150.601563 258.246094 L 149.109375 259.222656 L 147.390625 259.695313 L 145.605469 259.628906 L 143.925781 259.023438 L 143.367188 258.589844 L 142.601563 256.71875 L 141.300781 255.847656 L 140.964844 254.765625 L 140.980469 252.980469 L 141.46875 249.996094 L 141.015625 247.710938 L 140.546875 246.8125 L 139.171875 244.945313 L 138.425781 244.296875 L 138.6875 242.234375 L 140.710938 241.59375 L 142.886719 242.511719 L 146.15625 243.175781 L 148.300781 243.253906 L 141.261719 240.453125 L 140.441406 240.5625 L 139.386719 240.085938 L 139.183594 238.121094 L 139.414063 236.460938 L 140.238281 234.648438 L 139.292969 234.9375 L 138.320313 240.257813 L 137.058594 243.113281 Z M 141.734375 358.875 L 141.003906 358.070313 L 139.230469 356.960938 L 138.828125 356.035156 L 139.253906 355.210938 L 140.597656 355.164063 L 141.484375 356.3125 L 142.226563 358.1875 Z M 137.933594 323.433594 L 137.675781 322.921875 L 139.816406 316.644531 L 142.300781 315.023438 L 144.765625 310.230469 L 145.863281 309.40625 L 149.046875 308.269531 L 150.203125 313.453125 L 147.847656 318.148438 L 145.3125 320.636719 L 141.859375 323.019531 L 139.824219 322.464844 Z M 286.679688 439.636719 L 283.058594 438.976563 L 282.164063 437.605469 L 282.484375 436.070313 L 286.839844 437.054688 L 287.960938 438.832031 Z M 136.210938 448.453125 L 135.929688 448.140625 L 136.109375 446.949219 L 136.398438 446.875 L 136.6875 448.207031 Z M 236.835938 466.113281 L 235.136719 465.644531 L 236.523438 463.683594 L 237.195313 464.164063 L 237.5 465.839844 Z M 228.117188 474.644531 L 222.296875 470.886719 L 220.207031 471.1875 L 221.476563 469.683594 L 227.316406 466.367188 L 232.550781 467.761719 L 234.171875 469.894531 L 231.242188 473.621094 L 229.960938 474.269531 Z M 228.117188 474.644531 "/>
<path style=" stroke:none;fill-rule:nonzero;fill:rgb(80.392157%,58.431373%,4.705882%);fill-opacity:1;" d="M 146.355469 269.445313 L 146.070313 271.242188 L 145.242188 272.863281 L 143.957031 274.152344 L 142.335938 274.976563 L 140.539063 275.261719 L 138.742188 274.976563 L 137.121094 274.152344 L 136.863281 273.894531 L 137.757813 273.035156 L 138.601563 268.871094 L 140.917969 265.085938 L 142.847656 264.175781 L 143.957031 264.742188 L 145.242188 266.027344 L 146.070313 267.648438 Z M 146.355469 269.445313 "/>
<path style=" stroke:none;fill-rule:nonzero;fill:rgb(80.392157%,58.431373%,4.705882%);fill-opacity:1;" d="M 90.976563 166.574219 L 90.136719 166.707031 L 88.339844 166.421875 L 86.71875 165.597656 L 85.796875 164.671875 L 86.457031 164.699219 L 87.222656 163.867188 L 88.554688 163.523438 L 91.023438 165.660156 L 91.214844 166.0625 Z M 91.835938 155.347656 L 91.933594 155.363281 L 92.214844 155.503906 L 91.824219 155.515625 Z M 94.113281 156.746094 L 94.84375 157.472656 L 95.667969 159.09375 L 95.914063 160.648438 L 93.527344 162.226563 L 90.550781 158.175781 L 90.507813 157.148438 L 91.820313 157.980469 Z M 88.238281 162.863281 L 87.917969 162.585938 L 88.445313 161.890625 L 89.367188 161.550781 L 89.65625 162.238281 Z M 88.238281 162.863281 "/>
<path style=" stroke:none;fill-rule:nonzero;fill:rgb(80.392157%,58.431373%,4.705882%);fill-opacity:1;" d="M 188.65625 119.652344 L 187.519531 119.074219 L 186.859375 118.414063 L 188.300781 118.292969 L 188.792969 119.078125 Z M 185.179688 114.011719 L 185.40625 112.570313 L 186.234375 110.949219 L 186.929688 110.253906 L 187.324219 111.371094 L 189.425781 112.382813 L 190.734375 113.441406 L 191.546875 114.902344 L 189.996094 116.5625 L 186.777344 113.90625 Z M 185.179688 114.011719 "/>
<path style=" stroke:none;fill-rule:nonzero;fill:rgb(80.392157%,58.431373%,4.705882%);fill-opacity:1;" d="M 186.285156 108.429688 L 185.265625 108.269531 L 183.644531 107.441406 L 182.355469 106.15625 L 181.675781 104.816406 L 181.753906 104.792969 L 184.519531 106.003906 L 186.230469 108.273438 Z M 184.914063 97.386719 L 185.265625 97.207031 L 185.347656 97.195313 L 188.613281 98.375 L 189.644531 99.757813 L 189.558594 100.558594 L 189.007813 101.453125 L 189.121094 100.265625 L 187.730469 99.058594 L 186.953125 98.894531 L 186.835938 99.515625 L 186.335938 100.011719 Z M 184.914063 97.386719 "/>
<path style=" stroke:none;fill-rule:nonzero;fill:rgb(80.392157%,58.431373%,4.705882%);fill-opacity:1;" d="M 189.007813 101.453125 L 189.121094 100.265625 L 187.730469 99.058594 L 186.953125 98.894531 L 186.835938 99.515625 L 186.335938 100.011719 L 184.679688 96.953125 L 188.613281 98.375 L 189.644531 99.757813 L 189.558594 100.558594 Z M 189.007813 101.453125 "/>
<path style=" stroke:none;fill-rule:nonzero;fill:rgb(80.392157%,58.431373%,4.705882%);fill-opacity:1;" d="M 88.429688 500.046875 L 88.566406 499.308594 L 88.941406 499.117188 L 89.34375 499.789063 Z M 88.429688 500.046875 "/>
</g>
</svg>
