<?xml version="1.0" encoding="UTF-8"?>
<svg xmlns="http://www.w3.org/2000/svg" xmlns:xlink="http://www.w3.org/1999/xlink" width="378pt" height="504pt" viewBox="0 0 378 504" version="1.1">
<g id="data">
<rect x="0" y="0" width="378" height="504" style="fill:rgb(100%,100%,100%);fill-opacity:1;stroke:none;"/>
<path style=" stroke:none;fill-rule:nonzero;fill:rgb(100%,100%,100%);fill-opacity:1;" d="M 53.308594 504 L 324.691406 504 L 324.691406 0 L 53.308594 0 Z M 53.308594 504 "/>
<path style=" stroke:none;fill-rule:nonzero;fill:rgb(22.745098%,53.333333%,16.078431%);fill-opacity:1;" d="M 163.800781 219.046875 L 166.972656 219.351563 L 170.226563 218.746094 L 173.078125 217.316406 L 175.429688 215.167969 L 177.785156 217.316406 L 180.753906 218.785156 L 183.890625 219.351563 L 187.0625 219.046875 L 187.0625 220.722656 L 185.519531 221.085938 L 182.847656 221.226563 L 177.804688 225.21875 L 178.117188 225.714844 L 179.84375 225.195313 L 184.609375 222.886719 L 186.457031 221.386719 L 187.0625 221.335938 L 187.0625 222.921875 L 184.949219 226.269531 L 184.082031 230.132813 L 184.40625 232.90625 L 181.046875 235.800781 L 180.578125 237.003906 L 176.503906 239.179688 L 173.792969 236.816406 L 171.984375 235.617188 L 169.863281 234.738281 L 166.84375 234.242188 L 163.800781 234.554688 L 161.464844 233.898438 L 158.917969 233.75 L 156.027344 234.269531 L 153.253906 235.5625 L 153.628906 233.429688 L 153.582031 231.136719 L 153.089844 228.898438 L 152.167969 226.800781 L 155.851563 226.417969 L 159.226563 224.902344 L 161.953125 222.398438 Z M 187.769531 239.175781 L 187.96875 239.402344 L 190.171875 240.945313 L 192.421875 241.871094 L 194.816406 242.308594 L 196.691406 244.007813 L 199.007813 245.3125 L 202.570313 246.183594 L 202.773438 248.359375 L 203.429688 250.574219 L 204.511719 252.621094 L 205.976563 254.410156 L 207.765625 255.875 L 209.808594 256.953125 L 212.027344 257.609375 L 214.199219 257.816406 L 214.199219 265.570313 L 212.769531 267.535156 L 211.738281 269.882813 L 211.257813 272.265625 L 211.285156 274.699219 L 212.40625 278.496094 L 214.734375 281.699219 L 218 283.933594 L 221.953125 284.953125 L 219.035156 286.550781 L 216.691406 288.910156 L 215.109375 291.839844 L 214.421875 295.09375 L 214.5 297.398438 L 215.074219 299.765625 L 216.269531 302.175781 L 218.078125 304.339844 L 218.628906 307.882813 L 220.238281 311.089844 L 222.746094 313.65625 L 226.039063 315.375 L 229.578125 315.96875 L 233.253906 315.414063 L 236.566406 313.734375 L 239.101563 311.195313 L 240.785156 307.882813 L 241.289063 304.652344 L 241.757813 304.875 L 243.046875 306.507813 L 245.214844 308.214844 L 244.910156 311.386719 L 245.515625 314.644531 L 246.945313 317.492188 L 249.09375 319.847656 L 248.445313 323.085938 L 248.546875 325.375 L 249.09375 327.601563 L 248.429688 331.730469 L 248.707031 334.007813 L 249.480469 336.441406 L 250.609375 338.488281 L 245.550781 339.511719 L 244.589844 338.644531 L 243.40625 338.558594 L 241.210938 339.871094 L 241.886719 340.445313 L 246.324219 340.394531 L 249.617188 339.34375 L 251.152344 339.171875 L 252.417969 340.601563 L 253.636719 341.480469 L 254.382813 342.558594 L 257.894531 345.449219 L 258.050781 345.792969 L 259.980469 348.179688 L 262.136719 349.789063 L 264.601563 350.863281 L 263.9375 354.992188 L 264.78125 360.664063 L 265.664063 363.480469 L 267.230469 365.980469 L 267.785156 366.515625 L 264.953125 369.09375 L 261.394531 373.164063 L 260.601563 374.816406 L 262.84375 374.3125 L 264.9375 375.519531 L 266.9375 378.226563 L 270.21875 378.804688 L 270.625 378.746094 L 271.910156 376.796875 L 272.234375 374.960938 L 273.40625 371.914063 L 274.707031 370.632813 L 276.457031 370.328125 L 280.070313 371.636719 L 283.390625 371.726563 L 285.761719 371.195313 L 286.75 370.746094 L 291.84375 371.292969 L 291.96875 372.546875 L 292.648438 374.757813 L 293.679688 376.679688 L 295.144531 378.46875 L 296.933594 379.933594 L 298.976563 381.015625 L 301.195313 381.671875 L 303.371094 381.875 L 305.074219 384.046875 L 306.8125 385.410156 L 306.859375 386.1875 L 304.957031 388.320313 L 303.515625 391.445313 L 303.054688 394.46875 L 303.371094 401.261719 L 301.222656 403.617188 L 299.753906 406.585938 L 299.1875 409.722656 L 299.417969 412.140625 L 298.726563 412.867188 L 296.058594 412.785156 L 295.578125 412.011719 L 292.742188 410.515625 L 292.480469 410.636719 L 293.433594 412.699219 L 291.679688 412.644531 L 289.308594 413.152344 L 286.984375 414.207031 L 282.660156 417.792969 L 281.097656 419.496094 L 279.644531 422.066406 L 278.867188 425.050781 L 278.941406 428.382813 L 280.015625 431.675781 L 280.433594 432.292969 L 279.644531 432.160156 L 274.75 433.78125 L 272.609375 436.117188 L 274.253906 436.015625 L 275.152344 434.667969 L 276.683594 434.363281 L 278.285156 434.328125 L 281.054688 434.949219 L 281.828125 435.589844 L 281.691406 436.328125 L 279.554688 436.347656 L 277.390625 437.65625 L 277.96875 438.546875 L 281.382813 438.964844 L 286.5 440.246094 L 288.242188 441.792969 L 290.480469 443.03125 L 293.0625 443.769531 L 295.617188 443.90625 L 297.320313 446.078125 L 299.492188 447.785156 L 297.371094 448.160156 L 295.242188 448.972656 L 293.3125 450.1875 L 291.738281 451.660156 L 289.25 452.140625 L 286.816406 453.214844 L 283.984375 455.539063 L 281.484375 454.949219 L 278.914063 454.925781 L 276.28125 455.507813 L 273.960938 456.613281 L 271.578125 458.566406 L 269.796875 461.078125 L 268.734375 463.972656 L 268.523438 466.578125 L 259.269531 463.777344 L 258.570313 463.71875 L 257.476563 463.363281 L 247.089844 463.128906 L 242.28125 463.5 L 239.378906 464.488281 L 239.15625 464.640625 L 237.714844 463.296875 L 231.496094 463.171875 L 231.378906 463.496094 L 232.574219 464.835938 L 232.214844 465.75 L 231.738281 466.042969 L 226.691406 465.496094 L 219.566406 468.449219 L 217.054688 467.824219 L 210.222656 468.96875 L 208.164063 468.875 L 207.273438 468.058594 L 206.238281 469.769531 L 209.429688 471.089844 L 209.714844 470.9375 L 210.1875 472.128906 L 209.566406 473.890625 L 206.84375 474.453125 L 204.453125 473.097656 L 203.015625 472.699219 L 197.625 472.007813 L 196.175781 472.65625 L 195.679688 473.863281 L 195.832031 474.871094 L 195.90625 474.921875 L 195.351563 474.921875 L 194.851563 473.972656 L 190.289063 470.589844 L 185.898438 468.519531 L 183.121094 467.984375 L 181.648438 469.066406 L 176.207031 469.78125 L 174.339844 470.335938 L 168.992188 473.234375 L 168.214844 474.070313 L 167.203125 476.179688 L 162.746094 489.226563 L 160.929688 490.242188 L 158.269531 489.722656 L 157.554688 489.058594 L 156.527344 486.851563 L 154.683594 485.4375 L 153.613281 485.542969 L 152.417969 486.300781 L 151.738281 486.164063 L 148.46875 482.535156 L 142.796875 482.960938 L 141.527344 483.375 L 141.238281 483.664063 L 138.617188 483.75 L 136.386719 484.359375 L 136.335938 484.382813 L 134.507813 484.320313 L 132.167969 484.859375 L 129.414063 488.195313 L 126.714844 489.746094 L 124.039063 490.597656 L 123.132813 494.289063 L 123.210938 494.433594 L 122.632813 495.066406 L 121.550781 497.34375 L 120.660156 497.648438 L 120.394531 498.183594 L 118.253906 498.183594 L 117.96875 497.691406 L 118.09375 496.4375 L 117.15625 494.691406 L 115.984375 493.691406 L 112.253906 492.070313 L 111.410156 491.984375 L 110.375 492.488281 L 110.242188 494.183594 L 110.054688 494.402344 L 109.523438 494.308594 L 109.523438 490.429688 L 111.691406 488.722656 L 112.09375 488.214844 L 112.199219 488.253906 L 112.445313 488.9375 L 113.574219 489.15625 L 118.144531 485.910156 L 121.425781 483.085938 L 124.375 479.769531 L 125.210938 477.886719 L 124.875 476.421875 L 125.640625 474.519531 L 128.386719 473.238281 L 132.105469 472.640625 L 132.679688 471.785156 L 133.082031 470.214844 L 133.769531 469.980469 L 135.867188 468.734375 L 137.742188 466.980469 L 139.246094 464.742188 L 140.195313 462.21875 L 140.6875 458.042969 L 140.539063 455.539063 L 141.671875 455 L 142.492188 455.105469 L 144.269531 456.015625 L 145.761719 455.429688 L 148.429688 452.488281 L 148.144531 448.144531 L 148.292969 447.785156 L 148.570313 447.378906 L 151.105469 446.613281 L 157.421875 446.269531 L 159.910156 445.683594 L 164.597656 446.761719 L 166.046875 446.148438 L 167.527344 446.515625 L 169.484375 447.285156 L 170.039063 448.109375 L 170.757813 448.421875 L 173.15625 448.464844 L 180.570313 447.503906 L 181.109375 445.632813 L 181.210938 443.15625 L 182.519531 440.25 L 190.867188 432.195313 L 195.792969 425.3125 L 197.929688 424.472656 L 198.285156 423.78125 L 198.070313 423.238281 L 197.8125 423.082031 L 196.09375 424.355469 L 192.90625 427.300781 L 190.570313 429.988281 L 189.222656 431.449219 L 185.628906 432.957031 L 183.714844 433.246094 L 182.441406 433.0625 L 178.394531 435.230469 L 177.398438 436.808594 L 177.039063 438.671875 L 176.445313 439.273438 L 174.058594 439.917969 L 170.558594 439.851563 L 166.820313 439 L 166.347656 438.652344 L 161.371094 433.375 L 159.03125 429.199219 L 155.65625 429.589844 L 149.269531 432.308594 L 149.113281 432.746094 L 148.164063 432.191406 L 147.957031 431.890625 L 147.15625 431.246094 L 146.917969 429.308594 L 148.539063 428.378906 L 150.066406 428.890625 L 151.640625 428.421875 L 152.765625 427.832031 L 153.085938 427.097656 L 152.808594 426.597656 L 147.785156 426.460938 L 143.210938 423.710938 L 139.503906 423.714844 L 136.765625 424.277344 L 136.292969 426.515625 L 135.777344 427.203125 L 133.742188 427.917969 L 132.394531 427.265625 L 131.648438 427.453125 L 130.5625 428.398438 L 127.15625 428.398438 L 126.53125 428.132813 L 127.425781 426.082031 L 128.796875 425.832031 L 131.792969 424.328125 L 131.226563 422.867188 L 130.640625 424.257813 L 127.769531 424.613281 L 122.949219 424.152344 L 121.496094 423.164063 L 124.125 421.78125 L 125.167969 421.753906 L 125.464844 421.238281 L 124.929688 417.953125 L 123.328125 417.210938 L 121.445313 417.105469 L 121.753906 416.128906 L 122.625 415.195313 L 122.894531 414.769531 L 125.933594 413.378906 L 126.539063 411.90625 L 133.074219 411.34375 L 134.871094 409.289063 L 135.753906 407.632813 L 137.585938 406.550781 L 141.359375 406.660156 L 142.21875 406.390625 L 149.359375 401.828125 L 152.136719 398.207031 L 153.054688 396.195313 L 154.199219 391.746094 L 153.734375 388.820313 L 152.566406 386.542969 L 153.179688 384.597656 L 154.652344 381.796875 L 152.269531 378.203125 L 152.683594 374.835938 L 153.175781 374.082031 L 152.804688 373.207031 L 150.203125 373.105469 L 145.449219 374.257813 L 143.757813 375.484375 L 142.085938 378.03125 L 141.949219 378.003906 L 136.660156 378 L 138.210938 376.328125 L 139.40625 374.382813 L 139.761719 373.433594 L 140.148438 373.019531 L 141.023438 372.414063 L 142.589844 371.953125 L 147.132813 367.984375 L 147.953125 364.523438 L 151.550781 360.582031 L 153.09375 359.609375 L 154.941406 359.808594 L 160.492188 357.457031 L 163.644531 357.28125 L 167.339844 357.714844 L 168.496094 357.15625 L 170.144531 357.613281 L 172.582031 357.65625 L 175.097656 357.148438 L 176.273438 356.519531 L 179.910156 359.441406 L 180.433594 358.429688 L 178.664063 355.234375 L 178.816406 355.152344 L 180.589844 353.492188 L 181.238281 352.59375 L 181.503906 352.695313 L 181.914063 353.875 L 182.898438 354.332031 L 184.078125 356.789063 L 185.613281 357.902344 L 188.359375 357.621094 L 190.335938 355.148438 L 189.90625 355.050781 L 188.667969 355.527344 L 188.3125 355.957031 L 186.378906 356.386719 L 183.8125 354.640625 L 182.175781 351.097656 L 182.839844 349.65625 L 183.367188 347.550781 L 183.488281 345.257813 L 183.183594 343.109375 L 185.234375 340.558594 L 186.492188 337.539063 L 187.507813 339.585938 L 188.992188 341.484375 L 193.46875 344.84375 L 195.621094 345.675781 L 197.890625 346.070313 L 200.195313 346.007813 L 202.320313 345.53125 L 205.722656 343.761719 L 208.289063 341.089844 L 209.6875 338.359375 L 210.324219 335.355469 L 212.652344 332.308594 L 213.84375 328.796875 L 213.988281 326.238281 L 213.53125 323.585938 L 212.542969 321.222656 L 210.976563 319.035156 L 208.945313 317.269531 L 206.6875 316.0625 L 204.09375 315.3125 L 201.402344 315.175781 L 197.308594 316.210938 L 193.941406 318.550781 L 192.070313 320.996094 L 190.9375 323.722656 L 189.171875 325.164063 L 187.648438 327.027344 L 186.109375 330.492188 L 185.054688 328.394531 L 187.28125 323.421875 L 187.71875 320.933594 L 187.855469 317.484375 L 184.742188 320.527344 L 179.242188 323.417969 L 178.707031 320.875 L 177.421875 318.261719 L 173.898438 313.980469 L 172.46875 312.828125 L 172.289063 311.832031 L 171.003906 309.941406 L 170.582031 308.300781 L 169.304688 306.113281 L 167.675781 304.339844 L 167.636719 303.917969 L 169.164063 299.058594 L 173.898438 289.09375 L 175.429688 288.832031 L 179.5625 289.492188 L 186.605469 288.316406 L 190.144531 286.519531 L 192.875 283.636719 L 194.222656 280.867188 L 194.816406 277.199219 L 196.046875 273.964844 L 196.195313 269.875 L 194.859375 265.871094 L 193.027344 263.394531 L 190.9375 261.691406 L 188.960938 259.257813 L 187.0625 257.816406 L 187.84375 254.441406 L 187.570313 250.863281 L 186.21875 247.539063 L 184.011719 244.867188 L 181.808594 243.3125 L 179.308594 242.308594 L 179.207031 242.179688 L 182.921875 243.167969 L 186.398438 241.730469 L 187.519531 239.417969 Z M 284.117188 436.441406 L 284.960938 438.242188 L 285.882813 439.492188 L 283.058594 438.976563 L 282.164063 437.605469 L 282.484375 436.070313 Z M 237.492188 465.78125 L 237.257813 465.9375 L 236.835938 466.113281 L 235.136719 465.644531 L 236.523438 463.683594 L 237.195313 464.164063 Z M 234.160156 469.878906 L 234.121094 469.964844 L 232.75 471.703125 L 231.414063 472.753906 L 230.398438 474.046875 L 229.960938 474.269531 L 229.28125 474.40625 L 228.152344 473.042969 L 226.128906 471.457031 L 223.808594 470.355469 L 221.367188 469.808594 L 221.476563 469.683594 L 227.316406 466.367188 L 232.550781 467.761719 Z M 141.027344 358.09375 L 141.84375 357.222656 L 142.226563 358.1875 L 141.734375 358.875 Z M 142.066406 356.957031 L 143.226563 355.113281 L 144.007813 353.105469 L 144.328125 351.335938 L 144.664063 351.183594 L 146.003906 350.957031 L 149.566406 352.007813 L 151.039063 355.578125 L 155.546875 356.503906 L 154.066406 358.859375 L 150.984375 360.816406 L 147.425781 363.976563 L 146.109375 363.875 L 144.195313 361.613281 L 142.050781 357.363281 Z M 159.597656 293.386719 L 158.597656 292.992188 L 154.800781 292.722656 L 152.683594 291.1875 L 156.175781 291.792969 L 160.316406 290.980469 L 163.800781 288.832031 L 165.933594 288.832031 L 163.3125 290.011719 L 161.832031 291.855469 Z M 167.152344 288.832031 L 167.675781 288.832031 L 168.242188 288.929688 L 168.226563 288.992188 Z M 168.027344 177.585938 L 167.675781 176.398438 L 168.308594 174.1875 L 168.492188 171.894531 L 168.183594 170.171875 L 170.480469 169.527344 L 170.492188 169.949219 L 171.554688 169.839844 L 172.597656 169.0625 L 174.679688 169.890625 L 172.765625 171.269531 L 170.191406 173.859375 L 168.933594 175.621094 Z M 143.03125 320.835938 L 144.066406 318.660156 L 144.414063 319.847656 Z M 136.46875 274.269531 L 136.007813 276.546875 L 133.890625 276.976563 L 134.003906 276.632813 Z M 127.878906 213.820313 L 129.832031 212.308594 L 131.582031 210.101563 L 132.785156 207.414063 L 132.785156 211.292969 L 131.3125 212.863281 L 130.097656 214.792969 L 130.03125 214.960938 L 129.507813 214.882813 L 128.550781 215.441406 L 127.980469 214.949219 Z M 129.535156 216.238281 L 129.316406 216.800781 L 128.941406 218.863281 L 127.28125 218.265625 L 127.882813 216.460938 L 128.195313 216.742188 L 128.945313 216.671875 Z M 127.410156 220.199219 L 126.917969 220.578125 L 124.480469 223.296875 L 124.824219 221.5 L 126.660156 220.210938 Z M 117.78125 236.148438 L 117.898438 233.535156 L 117.765625 232.925781 L 119.195313 232.023438 L 119.632813 233.128906 L 119.449219 233.945313 L 118.015625 235.730469 Z M 119.929688 230.5 L 119.75 231.316406 L 118.503906 231.671875 L 118.15625 231.449219 L 118.535156 230.824219 L 119.917969 230.164063 Z M 120.535156 236.996094 L 120.851563 237.730469 L 120.824219 237.742188 L 119.777344 239.515625 L 119.613281 239.640625 L 119.449219 238.929688 Z M 120.535156 236.996094 "/>
</g>
</svg>
