<?xml version="1.0" encoding="UTF-8"?>
<svg xmlns="http://www.w3.org/2000/svg" xmlns:xlink="http://www.w3.org/1999/xlink" width="378pt" height="504pt" viewBox="0 0 378 504" version="1.1">
<g id="data">
<rect x="0" y="0" width="378" height="504" style="fill:rgb(100%,100%,100%);fill-opacity:1;stroke:none;"/>
<path style=" stroke:none;fill-rule:nonzero;fill:rgb(100%,100%,100%);fill-opacity:1;" d="M 53.308594 504 L 324.691406 504 L 324.691406 0 L 53.308594 0 Z M 53.308594 504 "/>
<path style=" stroke:none;fill-rule:nonzero;fill:rgb(22.745098%,53.333333%,16.078431%);fill-opacity:1;" d="M 159.921875 153.136719 L 163.476563 153.421875 L 166.832031 152.660156 L 167.175781 152.472656 L 162.601563 156.074219 L 162.234375 157.082031 L 162.671875 158.175781 L 162.078125 159.632813 L 159.644531 160.289063 L 156.839844 159.359375 L 153.464844 157.734375 L 154.464844 159.796875 L 155.875 160.457031 L 161.363281 161.917969 L 164.042969 162.292969 L 165.242188 161.992188 L 166.015625 161.605469 L 166.75 160.257813 L 167.589844 160.183594 L 167.507813 160.828125 L 166.417969 162.609375 L 162.722656 166.96875 L 162.175781 167.183594 L 161.726563 166.894531 L 161.859375 165.949219 L 161.53125 165.507813 L 159.984375 165.785156 L 155.320313 167.769531 L 152.441406 170.8125 L 151.949219 171.945313 L 152.140625 172.144531 L 156.390625 168.453125 L 157.75 167.980469 L 160.300781 168.324219 L 161.058594 169.320313 L 157.109375 173.804688 L 156.367188 175.339844 L 156.707031 175.816406 L 157.367188 175.984375 L 158.261719 175.542969 L 161.140625 173.015625 L 167.808594 170.273438 L 170.480469 169.527344 L 170.492188 169.949219 L 171.554688 169.839844 L 173.589844 168.316406 L 174.046875 166.78125 L 178.648438 166.167969 L 179.285156 167.089844 L 180.148438 167.667969 L 184.320313 169.011719 L 185.492188 168.355469 L 185.929688 168.496094 L 189.949219 168.769531 L 187.507813 169.464844 L 185.378906 170.597656 L 181.195313 174.054688 L 179.308594 176.398438 L 177.066406 177.347656 L 175.070313 178.738281 L 172.964844 181.144531 L 171.554688 184.152344 L 169.5625 185.683594 L 167.675781 188.03125 L 165.964844 189.304688 L 164.433594 190.972656 L 162.011719 194.566406 L 160.941406 198.121094 L 161.066406 201.960938 L 162.503906 205.660156 L 165.507813 209.585938 L 170.054688 213.238281 L 173.730469 214.714844 L 177.5625 214.890625 L 180.175781 214.261719 L 182.683594 212.976563 L 185.304688 210.535156 L 187.0625 207.414063 L 190.101563 207.011719 L 192.933594 205.824219 L 195.261719 204.03125 L 197.132813 201.601563 L 197.53125 204.609375 L 198.691406 207.414063 L 198.691406 208.167969 L 197.078125 210.023438 L 197.433594 210.839844 L 197.785156 210.703125 L 197.761719 211.238281 L 197.269531 212.84375 L 197.066406 213.066406 L 195.839844 215.136719 L 195.570313 216.15625 L 191.214844 219.742188 L 185.519531 221.085938 L 182.847656 221.226563 L 177.804688 225.21875 L 178.117188 225.714844 L 179.84375 225.195313 L 184.609375 222.886719 L 186.457031 221.386719 L 187.289063 221.316406 L 189.085938 221.875 L 189.332031 222.921875 L 188.898438 224.691406 L 189.238281 225.953125 L 190.898438 226.824219 L 192.988281 227.191406 L 194.390625 228.671875 L 194.199219 229.53125 L 192.117188 231.570313 L 189.460938 232.730469 L 188.34375 232.882813 L 187.070313 232.078125 L 185.40625 232.042969 L 181.046875 235.800781 L 180.578125 237.003906 L 174.761719 240.109375 L 170.214844 238.117188 L 166.800781 238.015625 L 167.082031 237.4375 L 167.675781 234.554688 L 169.789063 231.207031 L 170.558594 228.367188 L 170.558594 225.167969 L 169.738281 222.210938 L 168.09375 219.46875 L 165.867188 217.351563 L 162.804688 215.761719 L 157.824219 214.640625 L 155.027344 214.546875 L 152.167969 215.167969 L 152.167969 211.292969 L 152.78125 209.195313 L 152.988281 207.019531 L 152.785156 204.84375 L 152.179688 202.746094 L 150.90625 200.367188 L 149.121094 198.347656 L 146.917969 196.789063 L 144.414063 195.785156 L 147.96875 193.777344 L 150.609375 190.667969 L 151.9375 187.210938 L 152.476563 181.878906 L 152.261719 179.207031 L 151.445313 176.65625 L 150.0625 174.359375 L 148.292969 172.523438 L 148.941406 169.386719 L 148.734375 166.316406 L 147.671875 163.292969 L 145.824219 160.675781 L 149.074219 160.015625 L 152.003906 158.464844 L 154.453125 156.046875 L 156.046875 153.136719 Z M 218.039063 261.085938 L 217.914063 271.449219 L 218.203125 274.328125 L 219.503906 278.023438 L 221.160156 280.089844 L 221.269531 280.457031 L 221.730469 281.417969 L 219.996094 284.070313 L 219.039063 287.519531 L 219.203125 291.222656 L 220.457031 294.570313 L 222.671875 297.382813 L 225.636719 299.386719 L 229.070313 300.394531 L 232.261719 300.441406 L 234.855469 301.652344 L 235.15625 301.933594 L 237.085938 303.148438 L 239.21875 303.964844 L 240.171875 304.132813 L 241.425781 304.71875 L 242.066406 307.546875 L 243.589844 310.316406 L 246.832031 314.171875 L 249.09375 315.96875 L 251.164063 318.488281 L 252.96875 319.847656 L 252.835938 322.601563 L 253.378906 325.96875 L 254.578125 328.652344 L 254.984375 329.992188 L 256.160156 332.453125 L 257.011719 333.644531 L 257.078125 334.535156 L 258.042969 337.3125 L 259.1875 339.160156 L 260.753906 340.851563 L 262.511719 342.132813 L 263.324219 342.511719 L 263.640625 343.980469 L 262.804688 345.191406 L 263.28125 343.65625 L 262.507813 342.839844 L 260.445313 342 L 258.378906 342.789063 L 257.507813 342.753906 L 256.035156 341.773438 L 253.664063 338.65625 L 252.601563 338.082031 L 245.550781 339.511719 L 244.589844 338.644531 L 243.40625 338.558594 L 241.210938 339.871094 L 241.886719 340.445313 L 246.324219 340.394531 L 249.617188 339.34375 L 251.976563 339.082031 L 254.382813 342.558594 L 260.535156 347.621094 L 263.042969 349.058594 L 263.664063 349.039063 L 264.449219 350.085938 L 265.082031 353.347656 L 266.417969 356.214844 L 268.476563 358.617188 L 268.683594 360.789063 L 269.335938 363.007813 L 269.441406 363.203125 L 269.210938 365.21875 L 264.953125 369.09375 L 261.394531 373.164063 L 260.601563 374.816406 L 262.84375 374.3125 L 264.9375 375.519531 L 266.9375 378.226563 L 270.21875 378.804688 L 270.625 378.746094 L 271.910156 376.796875 L 272.234375 374.960938 L 273.40625 371.914063 L 274.707031 370.632813 L 277.851563 370.085938 L 278.355469 370.097656 L 278.441406 370.125 L 281.984375 370.410156 L 283.570313 370.390625 L 284.253906 370.867188 L 286.703125 370.742188 L 293.949219 371.515625 L 296.914063 372.84375 L 300.621094 375.558594 L 301.199219 376.292969 L 303.371094 378 L 305.4375 380.519531 L 305.53125 380.585938 L 306.730469 384.164063 L 307.179688 391.25 L 306.777344 393.191406 L 306.890625 393.976563 L 305.789063 396.917969 L 305.183594 399.824219 L 303.925781 402.410156 L 303.246094 406.136719 L 303.328125 408.035156 L 297.144531 414.53125 L 295.578125 412.011719 L 292.742188 410.515625 L 292.480469 410.636719 L 293.898438 413.703125 L 295.890625 416.628906 L 296.3125 416.765625 L 296.164063 417.742188 L 294.574219 419.804688 L 292.191406 421.289063 L 290.003906 421.65625 L 289.660156 421.574219 L 288.214844 419.332031 L 284.976563 421.730469 L 280.71875 424.230469 L 282.339844 425.378906 L 285.105469 424.398438 L 286.097656 423.375 L 286.894531 423.164063 L 287.328125 423.710938 L 287.632813 428.84375 L 285.6875 430.875 L 283.441406 432.558594 L 282.84375 432.699219 L 279.644531 432.160156 L 274.75 433.78125 L 272.609375 436.117188 L 274.253906 436.015625 L 275.152344 434.667969 L 276.683594 434.363281 L 278.285156 434.328125 L 281.054688 434.949219 L 281.828125 435.589844 L 281.691406 436.328125 L 279.554688 436.347656 L 277.390625 437.65625 L 277.96875 438.546875 L 281.382813 438.964844 L 286.863281 440.339844 L 289.394531 439.9375 L 291.074219 438.957031 L 296.394531 438.222656 L 299.492188 440.03125 L 299.492188 447.785156 L 297.320313 449.492188 L 296.707031 450.273438 L 295.839844 450.375 L 292.621094 451.640625 L 291.179688 452.742188 L 289.847656 454.226563 L 289.460938 455.09375 L 289.214844 456.324219 L 289.246094 456.523438 L 289 456.839844 L 288.480469 458.011719 L 286.253906 458.289063 L 284.1875 457.9375 L 282.84375 459.207031 L 280.683594 459.117188 L 276.957031 459.9375 L 273.792969 461.84375 L 270.183594 465 L 268.863281 466.679688 L 267.261719 466.195313 L 265.421875 464.71875 L 261.730469 463.417969 L 259.097656 463.132813 L 250.84375 463.132813 L 247.09375 463.632813 L 243.953125 464.972656 L 241.339844 467.167969 L 240.167969 467.414063 L 238.210938 466.1875 L 238.632813 465.4375 L 239.46875 464.933594 L 237.714844 463.296875 L 231.496094 463.171875 L 231.378906 463.496094 L 232.574219 464.835938 L 232.214844 465.75 L 231.738281 466.042969 L 226.691406 465.496094 L 219.566406 468.449219 L 217.054688 467.824219 L 210.222656 468.96875 L 208.164063 468.875 L 207.273438 468.058594 L 206.238281 469.769531 L 209.429688 471.089844 L 209.714844 470.9375 L 210.1875 472.128906 L 209.566406 473.890625 L 206.84375 474.453125 L 204.453125 473.097656 L 203.015625 472.699219 L 197.625 472.007813 L 196.175781 472.65625 L 195.679688 473.863281 L 195.832031 474.871094 L 195.90625 474.921875 L 195.351563 474.921875 L 194.851563 473.972656 L 190.289063 470.589844 L 185.898438 468.519531 L 183.121094 467.984375 L 181.648438 469.066406 L 176.207031 469.78125 L 174.339844 470.335938 L 168.992188 473.234375 L 168.214844 474.070313 L 167.203125 476.179688 L 162.746094 489.226563 L 160.929688 490.242188 L 159.324219 489.929688 L 157.308594 488.234375 L 157.136719 488.164063 L 156.527344 486.851563 L 154.683594 485.4375 L 153.613281 485.542969 L 152.417969 486.300781 L 151.738281 486.164063 L 148.46875 482.535156 L 142.796875 482.960938 L 142.574219 483.035156 L 142.539063 483.019531 L 138.914063 482.519531 L 134.105469 482.8125 L 130.261719 484.175781 L 127.121094 486.78125 L 125.136719 490.246094 L 124.039063 490.597656 L 123.648438 492.191406 L 122.457031 493.707031 L 121.597656 495.820313 L 121.292969 497.433594 L 120.660156 497.648438 L 120.386719 498.203125 L 118.289063 498.246094 L 117.96875 497.691406 L 118.09375 496.4375 L 117.15625 494.691406 L 115.984375 493.691406 L 112.253906 492.070313 L 111.410156 491.984375 L 110.375 492.488281 L 110.242188 494.183594 L 110.183594 494.25 L 108.816406 494.003906 L 105.644531 494.308594 L 107.816406 492.601563 L 109.523438 490.429688 L 112.042969 488.359375 L 112.140625 488.230469 L 112.199219 488.253906 L 112.445313 488.9375 L 113.574219 489.15625 L 118.144531 485.910156 L 121.425781 483.085938 L 124.375 479.769531 L 124.804688 478.800781 L 125.03125 478.800781 L 127.507813 479.378906 L 130.179688 479.394531 L 133.765625 478.484375 L 136.484375 477.042969 L 138.3125 475.421875 L 139.824219 473.347656 L 140.808594 471.113281 L 141.3125 468.59375 L 141.234375 465.898438 L 140.539063 463.292969 L 141.90625 459.300781 L 141.761719 455.078125 L 141.734375 455.007813 L 142.492188 455.105469 L 144.269531 456.015625 L 145.761719 455.429688 L 148.429688 452.488281 L 148.105469 447.519531 L 151.105469 446.613281 L 157.421875 446.269531 L 159.910156 445.683594 L 164.597656 446.761719 L 166.046875 446.148438 L 167.527344 446.515625 L 169.484375 447.285156 L 170.039063 448.109375 L 170.757813 448.421875 L 173.15625 448.464844 L 180.570313 447.503906 L 181.109375 445.632813 L 181.210938 443.15625 L 182.519531 440.25 L 190.867188 432.195313 L 195.792969 425.3125 L 197.929688 424.472656 L 198.285156 423.78125 L 198.070313 423.238281 L 197.8125 423.082031 L 196.09375 424.355469 L 192.90625 427.300781 L 190.570313 429.988281 L 189.222656 431.449219 L 185.628906 432.957031 L 183.714844 433.246094 L 182.441406 433.0625 L 178.394531 435.230469 L 177.398438 436.808594 L 177.039063 438.671875 L 176.445313 439.273438 L 174.058594 439.917969 L 170.558594 439.851563 L 166.820313 439 L 166.347656 438.652344 L 161.371094 433.375 L 159.03125 429.199219 L 155.65625 429.589844 L 149.269531 432.308594 L 149.113281 432.746094 L 147.203125 431.632813 L 146.917969 429.308594 L 148.539063 428.378906 L 150.066406 428.890625 L 151.640625 428.421875 L 152.765625 427.832031 L 153.085938 427.097656 L 152.808594 426.597656 L 147.785156 426.460938 L 143.210938 423.710938 L 139.503906 423.714844 L 136.765625 424.277344 L 136.292969 426.515625 L 135.777344 427.203125 L 133.742188 427.917969 L 132.394531 427.265625 L 131.648438 427.453125 L 130.261719 428.664063 L 128.90625 428.398438 L 127.121094 426.78125 L 127.425781 426.082031 L 128.796875 425.832031 L 131.792969 424.328125 L 131.226563 422.867188 L 130.640625 424.257813 L 127.769531 424.613281 L 122.949219 424.152344 L 122.042969 423.539063 L 123.175781 422.28125 L 124.125 421.78125 L 125.167969 421.753906 L 125.464844 421.238281 L 124.960938 418.140625 L 125.335938 416.0625 L 125.113281 413.753906 L 125.933594 413.378906 L 126.109375 412.949219 L 127.660156 413.035156 L 131.03125 412.519531 L 134.152344 411.144531 L 136.660156 409.015625 L 139.039063 409.167969 L 143.734375 408.757813 L 146.398438 407.8125 L 148.753906 406.253906 L 150.742188 404.070313 L 152.113281 401.453125 L 152.839844 397.421875 L 152.746094 396.871094 L 153.054688 396.195313 L 154.199219 391.746094 L 154.113281 391.203125 L 154.792969 390.398438 L 156.207031 386.445313 L 156.335938 383.769531 L 155.796875 380.246094 L 155.074219 378.085938 L 153.871094 376 L 152.730469 374.765625 L 153.175781 374.082031 L 152.804688 373.207031 L 151.136719 373.144531 L 149.554688 371.929688 L 147.144531 370.804688 L 144.519531 370.269531 L 147.132813 367.984375 L 147.953125 364.523438 L 151.550781 360.582031 L 153.09375 359.609375 L 154.941406 359.808594 L 160.492188 357.457031 L 163.644531 357.28125 L 167.339844 357.714844 L 172.597656 355.179688 L 173.933594 355.046875 L 174.484375 355.082031 L 179.910156 359.441406 L 180.433594 358.429688 L 177.679688 353.460938 L 178.242188 352.835938 L 180.867188 352.449219 L 181.503906 352.695313 L 181.914063 353.875 L 182.898438 354.332031 L 184.078125 356.789063 L 185.613281 357.902344 L 188.359375 357.621094 L 190.335938 355.148438 L 189.90625 355.050781 L 188.667969 355.527344 L 188.3125 355.957031 L 186.378906 356.386719 L 183.8125 354.640625 L 179.976563 346.332031 L 180.214844 345.902344 L 181.503906 344.371094 L 182.703125 341.71875 L 182.761719 341.347656 L 183.371094 340.257813 L 185.429688 339.015625 L 185.140625 338.578125 L 183.207031 338.488281 L 183.34375 337.605469 L 182.980469 332.421875 L 182.25 330.289063 L 184.695313 329.191406 L 187.28125 323.421875 L 187.71875 320.933594 L 187.855469 317.484375 L 184.742188 320.527344 L 179.199219 323.441406 L 177.335938 322.691406 L 172.851563 314.925781 L 172.289063 311.832031 L 171.085938 310.066406 L 170.871094 309.003906 L 169.304688 306.113281 L 167.515625 304.308594 L 169.164063 299.058594 L 169.535156 298.28125 L 170.363281 296.960938 L 171.179688 294.828125 L 171.183594 294.804688 L 172.554688 291.921875 L 173.722656 291 L 175.429688 288.832031 L 177.949219 286.761719 L 178.5 286.027344 L 178.757813 285.980469 L 180.191406 286.804688 L 181.015625 286.710938 L 181.679688 286.546875 L 183.03125 287.195313 L 185.140625 287.757813 L 187.445313 287.910156 L 191.332031 287.101563 L 194.816406 284.953125 L 197.117188 284.855469 L 199.472656 284.261719 L 202.292969 282.761719 L 204.601563 280.550781 L 206.21875 277.796875 L 207.027344 274.722656 L 207.011719 271.796875 L 206.3125 269.085938 L 204.984375 266.605469 L 203 264.4375 L 200.421875 262.777344 L 197.496094 261.851563 L 193.066406 261.53125 L 187.0625 261.691406 L 185.925781 259.117188 L 184.199219 256.890625 L 181.882813 255.074219 L 179.308594 253.9375 L 178.390625 250.21875 L 176.316406 246.996094 L 173.640625 244.816406 L 170.441406 243.519531 L 166.875 243.222656 L 163.390625 244.023438 L 161.34375 245.089844 L 158.589844 247.132813 L 156.046875 250.0625 L 152.875 250.503906 L 149.832031 251.859375 L 147.921875 253.371094 L 146.363281 255.246094 L 145.234375 257.40625 L 144.578125 259.753906 L 144.414063 257.816406 L 146.144531 255.269531 L 147.121094 252.488281 L 147.375 250.191406 L 147.171875 247.886719 L 146.46875 245.554688 L 145.292969 243.417969 L 144.90625 242.921875 L 146.15625 243.175781 L 148.300781 243.253906 L 143.761719 241.449219 L 142.882813 240.316406 L 140.539063 238.429688 L 144.414063 238.429688 L 147.15625 241.519531 L 150.039063 243.609375 L 152.484375 244.730469 L 156.144531 245.300781 L 159.796875 244.691406 L 163.175781 242.882813 L 165.785156 240.078125 L 166.578125 238.464844 L 166.738281 239.222656 L 168.246094 240.195313 L 178.0625 241.875 L 182.921875 243.167969 L 186.398438 241.730469 L 187.519531 239.417969 L 188.617188 238.355469 L 189.539063 238.171875 L 193.183594 238.5 L 199.339844 242.761719 L 206.488281 246.65625 L 208.910156 251.429688 L 212.824219 256.707031 L 213.265625 256.828125 L 213.433594 256.585938 L 214.601563 257.097656 L 217.371094 258.992188 Z M 232.925781 471.480469 L 231.6875 472.492188 L 230.4375 474.027344 L 229.960938 474.269531 L 229.164063 474.429688 L 227.832031 473.222656 L 225.628906 471.96875 L 223.460938 471.269531 L 222.71875 471.15625 L 222.296875 470.886719 L 221.585938 470.988281 L 220.511719 470.824219 L 221.476563 469.683594 L 227.316406 466.367188 L 232.550781 467.761719 L 234.171875 469.894531 Z M 144.265625 361.695313 L 143.640625 359.167969 L 142.078125 356.625 L 142.097656 356.121094 L 143.816406 357.3125 L 146.417969 358.304688 L 149.792969 358.769531 L 152.925781 358.527344 L 154.632813 357.960938 L 154.066406 358.859375 L 150.984375 360.816406 L 147.425781 363.976563 L 146.109375 363.875 Z M 179.058594 285.285156 L 179.308594 284.953125 L 179.828125 285.339844 Z M 206.445313 168.644531 L 209.863281 168.644531 L 210.3125 168.835938 L 212.550781 172.800781 L 213.617188 176.398438 L 210.324219 176.398438 L 209.949219 174.277344 L 209.132813 172.148438 L 207.996094 170.320313 Z M 140.714844 322.707031 L 141.203125 319.847656 L 140.570313 316.152344 L 142.300781 315.023438 L 144.765625 310.230469 L 145.863281 309.40625 L 148.566406 308.441406 L 149.027344 308.824219 L 148.160156 313.214844 L 148.242188 317.363281 L 147.847656 318.148438 L 145.464844 320.492188 L 144.039063 321.035156 L 142.109375 322.25 L 141.417969 322.898438 Z M 144.292969 262.679688 L 144.414063 265.570313 L 142.753906 266.796875 L 143.742188 264.753906 Z M 286.679688 439.636719 L 283.058594 438.976563 L 282.164063 437.605469 L 282.484375 436.070313 L 286.839844 437.054688 L 287.960938 438.832031 Z M 236.835938 466.113281 L 235.136719 465.644531 L 236.523438 463.683594 L 237.195313 464.164063 L 237.5 465.839844 Z M 236.835938 466.113281 "/>
</g>
</svg>
