<?xml version="1.0" encoding="UTF-8"?>
<svg xmlns="http://www.w3.org/2000/svg" xmlns:xlink="http://www.w3.org/1999/xlink" width="378pt" height="504pt" viewBox="0 0 378 504" version="1.1">
<g id="data">
<rect x="0" y="0" width="378" height="504" style="fill:rgb(100%,100%,100%);fill-opacity:1;stroke:none;"/>
<path style=" stroke:none;fill-rule:nonzero;fill:rgb(100%,100%,100%);fill-opacity:1;" d="M 53.308594 504 L 324.691406 504 L 324.691406 0 L 53.308594 0 Z M 53.308594 504 "/>
<path style=" stroke:none;fill-rule:nonzero;fill:rgb(22.745098%,53.333333%,16.078431%);fill-opacity:1;" d="M 163.800781 129.875 L 167.070313 130.53125 L 170.265625 130.261719 L 173.382813 129.066406 L 174.636719 128.113281 L 177.664063 128.609375 L 178 127.714844 L 177.503906 127.214844 L 177.972656 125.796875 L 184.03125 126.507813 L 183.113281 130.375 L 183.183594 133.753906 L 181.710938 135.324219 L 180.496094 137.257813 L 179.683594 139.386719 L 179.308594 141.507813 L 177.066406 142.453125 L 175.070313 143.84375 L 173.40625 145.621094 L 172.097656 147.820313 L 171.703125 148.90625 L 162.601563 156.074219 L 162.234375 157.082031 L 162.671875 158.175781 L 162.078125 159.632813 L 159.644531 160.289063 L 156.839844 159.359375 L 153.464844 157.734375 L 154.464844 159.796875 L 155.875 160.457031 L 161.363281 161.917969 L 164.042969 162.292969 L 165.242188 161.992188 L 166.015625 161.605469 L 166.75 160.257813 L 167.589844 160.183594 L 167.507813 160.828125 L 166.417969 162.609375 L 162.722656 166.96875 L 162.175781 167.183594 L 161.726563 166.894531 L 161.859375 165.949219 L 161.53125 165.507813 L 159.984375 165.785156 L 155.320313 167.769531 L 152.441406 170.8125 L 151.949219 171.945313 L 152.140625 172.144531 L 156.390625 168.453125 L 157.75 167.980469 L 160.300781 168.324219 L 161.058594 169.320313 L 157.109375 173.804688 L 156.367188 175.339844 L 156.707031 175.816406 L 157.367188 175.984375 L 158.261719 175.542969 L 161.140625 173.015625 L 167.808594 170.273438 L 170.480469 169.527344 L 170.492188 169.949219 L 171.554688 169.839844 L 173.589844 168.316406 L 174.046875 166.78125 L 178.648438 166.167969 L 179.285156 167.089844 L 180.148438 167.667969 L 184.320313 169.011719 L 185.519531 168.339844 L 188.183594 168.78125 L 190.9375 168.644531 L 194.558594 169.308594 L 197.867188 168.777344 L 199.164063 168.988281 L 204.117188 168.914063 L 204.449219 168.644531 L 209.863281 168.644531 L 210.3125 168.835938 L 210.378906 168.953125 L 210.730469 170.890625 L 211.511719 172.898438 L 212.726563 174.828125 L 213.347656 175.488281 L 213.671875 176.582031 L 213.695313 178 L 209.382813 183.425781 L 209.21875 183.785156 L 208.5625 184.535156 L 207.375 186.652344 L 206.484375 190.117188 L 206.460938 193.703125 L 206.226563 194.742188 L 203.9375 198.859375 L 203.914063 199.039063 L 203.757813 199.285156 L 202.941406 201.417969 L 202.570313 203.539063 L 200.484375 204.515625 L 198.628906 205.882813 L 197.082031 207.585938 L 195.847656 209.679688 L 194.867188 213.25 L 194.835938 216.761719 L 191.214844 219.742188 L 185.519531 221.085938 L 182.847656 221.226563 L 177.804688 225.21875 L 178.117188 225.714844 L 179.84375 225.195313 L 184.609375 222.886719 L 186.457031 221.386719 L 187.289063 221.316406 L 189.085938 221.875 L 189.332031 222.921875 L 188.898438 224.691406 L 189.238281 225.953125 L 190.898438 226.824219 L 191.917969 227.003906 L 191.957031 228.339844 L 192.53125 230.707031 L 192.679688 231.023438 L 192.117188 231.570313 L 189.460938 232.730469 L 188.34375 232.882813 L 187.070313 232.078125 L 185.40625 232.042969 L 181.046875 235.800781 L 180.578125 237.003906 L 174.761719 240.109375 L 170.214844 238.117188 L 166.480469 238.003906 L 166.738281 239.222656 L 168.246094 240.195313 L 178.0625 241.875 L 182.921875 243.167969 L 186.398438 241.730469 L 187.519531 239.417969 L 188.617188 238.355469 L 189.539063 238.171875 L 193.183594 238.5 L 198.800781 242.390625 L 199.398438 243.035156 L 201.308594 244.503906 L 203.71875 245.625 L 205.125 245.914063 L 206.414063 246.617188 L 206.289063 248.4375 L 206.597656 252.710938 L 207.253906 255.023438 L 208.367188 257.148438 L 204.207031 256.496094 L 202.046875 256.753906 L 199.972656 257.410156 L 197.027344 259.214844 L 194.816406 261.691406 L 192.128906 263.949219 L 188.925781 268.058594 L 187.542969 271.496094 L 187.375 275.707031 L 188.65625 279.589844 L 190.730469 282.351563 L 193.410156 284.320313 L 197.652344 286.125 L 201.589844 286.472656 L 204.101563 285.980469 L 206.445313 284.953125 L 210.128906 284.574219 L 212.847656 283.457031 L 215.988281 280.851563 L 218.078125 277.199219 L 219.785156 279.371094 L 221.335938 280.589844 L 221.925781 281.824219 L 221.839844 284.082031 L 222.554688 287.804688 L 223.839844 290.414063 L 225.507813 292.335938 L 225.882813 293.90625 L 225.925781 295.019531 L 226.480469 297.265625 L 227.398438 299.246094 L 228.761719 301.121094 L 231.757813 303.527344 L 235.25 304.800781 L 237.9375 305 L 240.828125 304.4375 L 244.476563 306.140625 L 245.53125 307.386719 L 245.597656 308.019531 L 247.113281 311.394531 L 247.964844 312.320313 L 249.289063 315.722656 L 252.390625 319.148438 L 252.882813 319.375 L 252.8125 322.097656 L 253.277344 325.597656 L 254.613281 328.769531 L 254.984375 329.992188 L 256.160156 332.453125 L 256.847656 333.414063 L 256.847656 335.355469 L 256.183594 338.976563 L 256.585938 342.136719 L 256.035156 341.773438 L 253.664063 338.65625 L 252.601563 338.082031 L 245.550781 339.511719 L 244.589844 338.644531 L 243.40625 338.558594 L 241.210938 339.871094 L 241.886719 340.445313 L 246.324219 340.394531 L 249.617188 339.34375 L 251.976563 339.082031 L 254.382813 342.558594 L 257.820313 345.386719 L 259.527344 347.726563 L 261.804688 349.589844 L 264.601563 350.863281 L 264.417969 359.183594 L 265.222656 362.003906 L 266.628906 364.429688 L 268.308594 366.039063 L 264.953125 369.09375 L 261.394531 373.164063 L 260.601563 374.816406 L 262.84375 374.3125 L 264.9375 375.519531 L 266.9375 378.226563 L 270.21875 378.804688 L 270.625 378.746094 L 271.910156 376.796875 L 272.234375 374.960938 L 273.40625 371.914063 L 274.707031 370.632813 L 276.8125 370.265625 L 278.105469 370.410156 L 283.523438 370.359375 L 284.253906 370.867188 L 286.703125 370.742188 L 293.949219 371.515625 L 296.914063 372.84375 L 300.621094 375.558594 L 301.199219 376.292969 L 303.371094 378 L 305.4375 380.519531 L 305.53125 380.585938 L 306.730469 384.164063 L 307.132813 390.480469 L 307.082031 391.632813 L 307.085938 391.703125 L 306.777344 393.191406 L 306.890625 393.976563 L 305.789063 396.917969 L 305.160156 399.9375 L 304.445313 401.113281 L 303.371094 405.136719 L 301.820313 406.8125 L 300.625 408.753906 L 299.867188 410.769531 L 299.671875 411.875 L 297.144531 414.53125 L 295.578125 412.011719 L 292.742188 410.515625 L 292.480469 410.636719 L 293.898438 413.703125 L 295.890625 416.628906 L 296.3125 416.765625 L 296.164063 417.742188 L 294.574219 419.804688 L 292.191406 421.289063 L 290.003906 421.65625 L 289.660156 421.574219 L 288.214844 419.332031 L 284.976563 421.730469 L 280.71875 424.230469 L 282.339844 425.378906 L 285.105469 424.398438 L 286.097656 423.375 L 286.894531 423.164063 L 287.328125 423.710938 L 287.632813 428.84375 L 285.6875 430.875 L 283.441406 432.558594 L 282.84375 432.699219 L 279.644531 432.160156 L 274.75 433.78125 L 272.609375 436.117188 L 274.253906 436.015625 L 275.152344 434.667969 L 276.683594 434.363281 L 278.285156 434.328125 L 281.054688 434.949219 L 281.828125 435.589844 L 281.691406 436.328125 L 279.554688 436.347656 L 277.390625 437.65625 L 277.96875 438.546875 L 281.382813 438.964844 L 286.863281 440.339844 L 289.394531 439.9375 L 291.074219 438.957031 L 293.949219 438.558594 L 295.617188 440.03125 L 296.023438 442.273438 L 296.804688 444.28125 L 297.941406 446.113281 L 299.492188 447.785156 L 297.238281 447.625 L 292.933594 447.941406 L 290.597656 448.613281 L 288.453125 449.753906 L 285.753906 452.285156 L 283.984375 455.539063 L 281.8125 457.246094 L 280.109375 459.414063 L 277.589844 461.484375 L 277 462.273438 L 274.789063 462.777344 L 273.914063 463.191406 L 273.351563 463.167969 L 269.625 463.851563 L 266.894531 465.179688 L 266.121094 465.851563 L 262.457031 464.742188 L 262.226563 464.480469 L 259.144531 462.640625 L 255.652344 461.828125 L 251.949219 462.152344 L 249.09375 463.292969 L 245.070313 464.371094 L 243.113281 465.542969 L 241.339844 467.167969 L 239.964844 467.289063 L 238.210938 466.1875 L 238.632813 465.4375 L 239.46875 464.933594 L 237.714844 463.296875 L 231.496094 463.171875 L 231.378906 463.496094 L 232.574219 464.835938 L 232.214844 465.75 L 231.738281 466.042969 L 226.691406 465.496094 L 219.566406 468.449219 L 217.054688 467.824219 L 210.222656 468.96875 L 208.164063 468.875 L 207.273438 468.058594 L 206.238281 469.769531 L 209.429688 471.089844 L 209.714844 470.9375 L 209.941406 471.507813 L 208.335938 472.65625 L 206.839844 474.449219 L 204.453125 473.097656 L 203.015625 472.699219 L 197.625 472.007813 L 196.175781 472.65625 L 195.679688 473.863281 L 195.78125 474.523438 L 195.257813 474.742188 L 194.851563 473.972656 L 192.574219 472.285156 L 192.464844 472.15625 L 189.0625 469.34375 L 186.976563 468.140625 L 184.8125 467.417969 L 182.1875 467.042969 L 177.800781 467.390625 L 175.632813 468.089844 L 173.636719 469.199219 L 169.972656 472.703125 L 168.992188 473.234375 L 168.214844 474.070313 L 167.203125 476.179688 L 163.601563 486.714844 L 161.28125 488.625 L 160.175781 490.09375 L 159.339844 489.929688 L 157.523438 488.371094 L 157.152344 488.199219 L 156.527344 486.851563 L 154.683594 485.4375 L 153.613281 485.542969 L 152.417969 486.300781 L 151.738281 486.164063 L 148.46875 482.535156 L 142.796875 482.960938 L 141.527344 483.375 L 141.25 483.65625 L 140.667969 483.59375 L 138.492188 483.773438 L 136.59375 484.394531 L 134.507813 484.320313 L 132.167969 484.859375 L 130.347656 487.066406 L 129.9375 487.152344 L 127.21875 488.511719 L 125.359375 490.175781 L 124.039063 490.597656 L 123.722656 491.894531 L 122.902344 492.9375 L 121.710938 495.457031 L 121.308594 497.429688 L 120.660156 497.648438 L 120.394531 498.183594 L 118.253906 498.183594 L 117.96875 497.691406 L 118.09375 496.4375 L 117.15625 494.691406 L 115.984375 493.691406 L 112.253906 492.070313 L 111.410156 491.984375 L 110.375 492.488281 L 110.242188 494.183594 L 110.007813 494.453125 L 108.527344 494.183594 L 105.644531 494.308594 L 105.441406 494.242188 L 105.628906 491.574219 L 106.074219 490.5625 L 106.886719 490.203125 L 107.890625 490.023438 L 110.011719 489.183594 L 111.746094 488.078125 L 112.199219 488.253906 L 112.445313 488.9375 L 113.574219 489.15625 L 118.144531 485.910156 L 121.425781 483.085938 L 124.375 479.769531 L 125.210938 477.886719 L 124.875 476.421875 L 125.640625 474.519531 L 128.386719 473.238281 L 132.105469 472.640625 L 132.679688 471.785156 L 133.257813 469.527344 L 135.859375 467.5625 L 138.636719 464.640625 L 138.828125 462.273438 L 138.910156 462.160156 L 139.890625 460.078125 L 140.441406 457.839844 L 140.539063 455.539063 L 141.660156 454.996094 L 142.492188 455.105469 L 144.269531 456.015625 L 145.761719 455.429688 L 148.429688 452.488281 L 148.140625 448.078125 L 148.292969 447.785156 L 148.566406 447.378906 L 151.105469 446.613281 L 157.421875 446.269531 L 159.910156 445.683594 L 164.597656 446.761719 L 166.046875 446.148438 L 167.527344 446.515625 L 169.484375 447.285156 L 170.039063 448.109375 L 170.757813 448.421875 L 173.15625 448.464844 L 180.570313 447.503906 L 181.109375 445.632813 L 181.210938 443.15625 L 182.519531 440.25 L 190.867188 432.195313 L 195.792969 425.3125 L 197.929688 424.472656 L 198.285156 423.78125 L 198.070313 423.238281 L 197.8125 423.082031 L 196.09375 424.355469 L 192.90625 427.300781 L 190.570313 429.988281 L 189.222656 431.449219 L 185.628906 432.957031 L 183.714844 433.246094 L 182.441406 433.0625 L 178.394531 435.230469 L 177.398438 436.808594 L 177.039063 438.671875 L 176.445313 439.273438 L 174.058594 439.917969 L 170.558594 439.851563 L 166.820313 439 L 166.347656 438.652344 L 161.371094 433.375 L 159.03125 429.199219 L 155.65625 429.589844 L 149.269531 432.308594 L 149.113281 432.746094 L 148.160156 432.191406 L 147.125 430.742188 L 147.09375 430.71875 L 146.917969 429.308594 L 148.539063 428.378906 L 150.066406 428.890625 L 151.640625 428.421875 L 152.765625 427.832031 L 153.085938 427.097656 L 152.808594 426.597656 L 147.785156 426.460938 L 143.210938 423.710938 L 139.503906 423.714844 L 136.765625 424.277344 L 136.292969 426.515625 L 135.777344 427.203125 L 133.742188 427.917969 L 132.394531 427.265625 L 131.648438 427.453125 L 130.929688 428.082031 L 128.90625 427.734375 L 126.546875 428.140625 L 126.53125 428.132813 L 127.425781 426.082031 L 128.796875 425.832031 L 131.792969 424.328125 L 131.226563 422.867188 L 130.640625 424.257813 L 127.769531 424.613281 L 122.949219 424.152344 L 121.496094 423.164063 L 124.125 421.78125 L 125.167969 421.753906 L 125.464844 421.238281 L 124.929688 417.953125 L 123.328125 417.210938 L 121.445313 417.105469 L 122.0625 415.152344 L 125.933594 413.378906 L 126.539063 411.90625 L 133.074219 411.34375 L 134.871094 409.289063 L 135.753906 407.632813 L 137.585938 406.550781 L 141.359375 406.660156 L 142.21875 406.390625 L 149.359375 401.828125 L 152.136719 398.207031 L 153.054688 396.195313 L 154.199219 391.746094 L 153.734375 388.820313 L 152.566406 386.542969 L 153.179688 384.597656 L 154.652344 381.796875 L 152.269531 378.203125 L 152.683594 374.835938 L 153.175781 374.082031 L 152.804688 373.207031 L 150.203125 373.105469 L 145.449219 374.257813 L 143.757813 375.484375 L 142.085938 378.03125 L 141.949219 378.003906 L 136.660156 378 L 138.289063 376.226563 L 139.566406 374.039063 L 139.742188 373.457031 L 140.148438 373.019531 L 141.023438 372.414063 L 142.589844 371.953125 L 147.132813 367.984375 L 147.953125 364.523438 L 151.550781 360.582031 L 153.09375 359.609375 L 154.941406 359.808594 L 160.492188 357.457031 L 163.644531 357.28125 L 167.339844 357.714844 L 172.597656 355.179688 L 173.933594 355.046875 L 174.484375 355.082031 L 179.910156 359.441406 L 180.433594 358.429688 L 177.679688 353.460938 L 178.242188 352.835938 L 180.867188 352.449219 L 181.503906 352.695313 L 181.914063 353.875 L 182.898438 354.332031 L 184.078125 356.789063 L 185.613281 357.902344 L 188.359375 357.621094 L 190.335938 355.148438 L 189.90625 355.050781 L 188.667969 355.527344 L 188.3125 355.957031 L 186.378906 356.386719 L 183.8125 354.640625 L 179.976563 346.332031 L 180.058594 346.183594 L 180.78125 345.414063 L 181.996094 343.480469 L 182.84375 341.230469 L 182.851563 341.1875 L 183.371094 340.257813 L 185.429688 339.015625 L 185.140625 338.578125 L 183.269531 338.488281 L 183.121094 333.308594 L 182.316406 330.257813 L 184.695313 329.191406 L 187.28125 323.421875 L 187.71875 320.933594 L 187.855469 317.484375 L 184.742188 320.527344 L 179.199219 323.441406 L 177.335938 322.691406 L 175.28125 319.132813 L 175.089844 317.847656 L 173.75 314.707031 L 172.550781 313.28125 L 172.289063 311.832031 L 171.640625 310.878906 L 171.710938 309.839844 L 171.40625 307.082031 L 170.003906 303.292969 L 168.578125 301.351563 L 168.472656 301.257813 L 169.164063 299.058594 L 174.074219 288.722656 L 176.464844 286.417969 L 178.757813 285.980469 L 180.191406 286.804688 L 181.015625 286.710938 L 182.933594 286.238281 L 183.03125 285.160156 L 182.34375 284.746094 L 180.035156 285.351563 L 174.65625 284.980469 L 172.566406 284.292969 L 169.453125 284.03125 L 168.226563 288.992188 L 166.234375 288.695313 L 163.3125 290.011719 L 161.832031 291.855469 L 159.410156 293.515625 L 156.15625 293.3125 L 155.160156 292.984375 L 149.984375 289.230469 L 149.214844 288.042969 L 149.230469 287.167969 L 148.945313 287.023438 L 148.15625 288.078125 L 147.988281 288.910156 L 148.375 290.554688 L 149.574219 292.960938 L 149.839844 295.726563 L 149.308594 296.871094 L 148.746094 297.058594 L 145.816406 295.78125 L 144.601563 294.238281 L 144.507813 293.621094 L 143.632813 292.355469 L 141.613281 291.4375 L 140.164063 290.433594 L 138.398438 288.636719 L 137.464844 288.296875 L 135.511719 289.683594 L 134.605469 291.238281 L 135.976563 295.472656 L 136.734375 296.308594 L 136.769531 296.636719 L 136.660156 296.585938 L 134.953125 294.414063 L 134.167969 293.796875 L 133.472656 292.679688 L 132.597656 291.675781 L 132.375 290.464844 L 131.59375 288.457031 L 130.378906 286.527344 L 129.355469 285.433594 L 129.300781 285.09375 L 129.71875 282.265625 L 132.777344 280.410156 L 134.003906 276.632813 L 137.757813 273.035156 L 138.601563 268.871094 L 140.917969 265.085938 L 143.644531 263.800781 L 144.390625 261.886719 L 144.195313 260.621094 L 142.601563 256.71875 L 139.777344 254.832031 L 137.378906 252.511719 L 138.6875 242.234375 L 140.710938 241.59375 L 142.886719 242.511719 L 146.15625 243.175781 L 148.300781 243.253906 L 141.261719 240.453125 L 140.441406 240.5625 L 139.386719 240.085938 L 139.183594 238.121094 L 139.414063 236.460938 L 140.238281 234.648438 L 139.292969 234.9375 L 138.320313 240.257813 L 136.15625 245.152344 L 135.023438 244.945313 L 131.566406 242.222656 L 130.757813 242.5 L 130.269531 243.347656 L 130.09375 244.535156 L 130.664063 246.308594 L 130.519531 246.613281 L 128.257813 245.464844 L 127.46875 243.074219 L 128.453125 238.691406 L 131.230469 234.078125 L 136.953125 229.316406 L 138.316406 227.601563 L 135.558594 229.292969 L 130.363281 233.964844 L 126.449219 238.917969 L 125.671875 238.734375 L 125.460938 238.363281 L 126.1875 249.699219 L 124.449219 251.558594 L 123.367188 254.191406 L 121.183594 263.964844 L 122.0625 266.289063 L 120.679688 268.164063 L 119.945313 268.597656 L 117.3125 268.863281 L 117.425781 266.941406 L 116.953125 262.929688 L 117.226563 262.640625 L 117.992188 256.269531 L 120.664063 249.058594 L 119.164063 246.890625 L 119.359375 242.367188 L 121.945313 238.054688 L 122.191406 237.09375 L 120.824219 237.742188 L 119.636719 239.75 L 119.449219 238.929688 L 123.929688 230.9375 L 123.671875 230.734375 L 122.386719 231.796875 L 121.808594 231.777344 L 122.070313 227.40625 L 122.761719 224.691406 L 124.160156 221.96875 L 126.660156 220.210938 L 128.792969 220.179688 L 129.328125 220.484375 L 131.4375 220.320313 L 132.773438 218.917969 L 134.113281 222.105469 L 135.609375 224.035156 L 137.472656 225.609375 L 139.507813 226.714844 L 141.71875 227.390625 L 144.019531 227.617188 L 146.320313 227.386719 L 149.140625 226.507813 L 151.085938 225.527344 L 153.003906 224.027344 L 154.566406 222.164063 L 155.886719 219.535156 L 156.65625 216.316406 L 156.65625 214.023438 L 156.046875 211.292969 L 155.910156 208.726563 L 155.308594 206.492188 L 154.207031 204.3125 L 152.765625 202.503906 L 150.996094 201.015625 L 148.484375 199.71875 L 145.738281 199.0625 L 142.910156 199.089844 L 140.050781 199.820313 L 137.527344 201.070313 L 135.464844 202.796875 L 134.460938 204.140625 L 123.476563 215.398438 L 120.675781 217.269531 L 120.230469 216.390625 L 115.878906 214.433594 L 114.8125 213.664063 L 113.113281 211.414063 L 113.132813 210.632813 L 113.96875 210.082031 L 116.167969 209.980469 L 120.585938 209.09375 L 123.988281 209.15625 L 124.257813 209.050781 L 124.117188 208.789063 L 119.15625 207.757813 L 117.03125 209.015625 L 115.34375 209.1875 L 108.898438 208.554688 L 108.144531 207.871094 L 107.96875 206.789063 L 109.109375 205.527344 L 114.792969 204.496094 L 115.882813 205.636719 L 117.070313 206.34375 L 118.480469 204.378906 L 117.316406 203.507813 L 117.253906 202.640625 L 119.675781 202.136719 L 120.503906 202.316406 L 121.824219 201.292969 L 121.664063 200.792969 L 120.140625 199.953125 L 116.804688 200.417969 L 115.804688 199.949219 L 118.253906 195.210938 L 118.835938 194.789063 L 120.441406 194.839844 L 120.773438 195.527344 L 122.574219 196.710938 L 124.417969 196.351563 L 125.527344 195.796875 L 122.886719 196.148438 L 119.445313 193.175781 L 119.640625 191.949219 L 120.992188 190.507813 L 122.769531 190.464844 L 125.425781 191.839844 L 128.601563 191.21875 L 128.128906 190.679688 L 126.691406 190.847656 L 125.089844 190.582031 L 122.863281 188.511719 L 123.117188 185.351563 L 125.410156 184.53125 L 125.660156 184.984375 L 127.679688 186.175781 L 128.171875 186.347656 L 128.714844 185.882813 L 126.332031 183.683594 L 124.980469 183.324219 L 124.4375 181.292969 L 125.035156 181.238281 L 127.738281 179.023438 L 128.101563 177.597656 L 126.824219 178.363281 L 120.484375 180.664063 L 119.382813 179.570313 L 118.449219 174.53125 L 119.414063 170.535156 L 120.097656 170.289063 L 120.859375 170.738281 L 121.429688 171.886719 L 123.644531 173.570313 L 124.390625 172.890625 L 127 172.59375 L 126.421875 171.808594 L 123.910156 171.675781 L 123.300781 171.917969 L 120.253906 167.773438 L 120.550781 159.835938 L 121.035156 158.421875 L 122.082031 157.9375 L 122.960938 157.902344 L 123.679688 158.9375 L 124.035156 161.566406 L 125.066406 162.535156 L 125.355469 162.453125 L 126.003906 159.773438 L 125.019531 158.757813 L 124.640625 157.636719 L 124.695313 156.6875 L 125.515625 155.699219 L 128.898438 158.675781 L 129.609375 156.898438 L 131.765625 156.140625 L 134.503906 157.136719 L 136.507813 158.589844 L 137.039063 159.417969 L 137.175781 158.679688 L 135.242188 155.121094 L 133.609375 154.054688 L 130.640625 151.316406 L 129.429688 149.296875 L 129.746094 148.554688 L 130.132813 148.371094 L 132.507813 149.96875 L 133.015625 149.894531 L 133.449219 149.351563 L 133.714844 146.386719 L 133.191406 146.265625 L 131.304688 142.535156 L 132.523438 141.644531 L 135.539063 142.054688 L 138.566406 141.597656 L 137.367188 140.554688 L 136.433594 137.910156 L 139.050781 134.6875 L 140.058594 132.363281 L 140.539063 129.875 L 143.25 131.011719 L 146.289063 131.433594 L 147.671875 131.257813 L 145.957031 133.847656 L 146.042969 134.238281 L 149.5625 130.953125 L 152.167969 129.875 L 153.386719 129.875 L 153.609375 130.328125 L 157.023438 130.710938 L 161.488281 129.921875 L 162.453125 129.875 Z M 210.324219 288.832031 L 206.515625 288.308594 L 202.75 289.054688 L 199.429688 290.984375 L 196.917969 293.894531 L 195.835938 296.222656 L 195.289063 298.730469 L 195.308594 301.300781 L 195.890625 303.800781 L 197.144531 306.328125 L 199.035156 308.585938 L 200.875 310.132813 L 203.109375 311.3125 L 200.808594 311.351563 L 198.683594 311.804688 L 196.570313 312.707031 L 194.769531 313.921875 L 193.230469 315.453125 L 192 317.246094 L 190.429688 321.820313 L 190.289063 324.359375 L 190.671875 326.746094 L 191.648438 329.386719 L 193.027344 331.542969 L 194.648438 333.183594 L 196.5625 334.46875 L 200.324219 336.113281 L 202.558594 336.703125 L 206.398438 336.675781 L 210.023438 335.398438 L 212.855469 333.199219 L 215.636719 329.5 L 216.667969 327.144531 L 217.144531 324.75 L 217.09375 322.179688 L 216.523438 319.804688 L 215.402344 317.492188 L 213.890625 315.570313 L 212.011719 314.011719 L 209.847656 312.878906 L 212.15625 312.824219 L 214.285156 312.355469 L 216.289063 311.496094 L 218.199219 310.199219 L 219.734375 308.644531 L 220.949219 306.835938 L 222.460938 302.367188 L 222.59375 299.695313 L 222.148438 297.191406 L 221.105469 294.71875 L 219.609375 292.644531 L 217.59375 290.875 L 215.339844 289.660156 L 212.878906 288.96875 Z M 179.183594 120.632813 L 179.46875 116.371094 L 179.449219 115.023438 L 181.269531 116.636719 L 182.96875 119.6875 L 182.941406 120.441406 L 180.816406 120.886719 L 179.261719 120.746094 Z M 179.417969 113.335938 L 179.308594 106.617188 L 182.1875 106.738281 L 184.722656 106.273438 L 186.230469 108.273438 L 187.324219 111.371094 L 189.425781 112.382813 L 190.46875 113.226563 L 190.9375 114.371094 L 189.484375 116.140625 L 186.777344 113.90625 L 184.832031 114.03125 L 181.886719 115.097656 Z M 188.125 118.308594 L 187.542969 119.636719 L 187.0625 122.125 L 186.792969 122.421875 L 186.4375 122.070313 L 185.203125 119.125 L 185.941406 118.488281 Z M 233.894531 469.53125 L 231.796875 471.273438 L 230.132813 474.179688 L 229.960938 474.269531 L 229.160156 474.433594 L 227.726563 473.148438 L 225.277344 471.820313 L 222.878906 471.261719 L 222.296875 470.886719 L 221.75 470.964844 L 220.734375 470.558594 L 221.476563 469.683594 L 227.316406 466.367188 L 232.550781 467.761719 Z M 140.539063 357.78125 L 140.539063 355.167969 L 140.597656 355.164063 L 141.484375 356.3125 L 142.226563 358.1875 L 141.734375 358.875 L 141.003906 358.070313 Z M 149.550781 352.003906 L 149.570313 352.019531 L 151.039063 355.578125 L 155.546875 356.503906 L 154.066406 358.859375 L 150.984375 360.816406 L 147.425781 363.976563 L 146.109375 363.875 L 144.195313 361.613281 L 142.050781 357.363281 L 142.246094 352.273438 L 144.664063 351.183594 L 146.003906 350.957031 Z M 148.265625 308.550781 L 148.191406 308.960938 L 148.269531 317.3125 L 147.847656 318.148438 L 145.464844 320.492188 L 144.039063 321.035156 L 142.109375 322.25 L 141.417969 322.898438 L 139.824219 322.464844 L 137.933594 323.433594 L 137.675781 322.921875 L 139.628906 317.199219 L 140.410156 316.257813 L 142.300781 315.023438 L 144.765625 310.230469 L 145.863281 309.40625 Z M 107.191406 254.195313 L 104.523438 253.804688 L 103.140625 253.871094 L 104.988281 247.472656 L 102.980469 247.105469 L 101.464844 249.738281 L 99.988281 251.246094 L 99.625 251.425781 L 98.632813 250.644531 L 99.023438 248.875 L 99.132813 248.535156 L 100.28125 247.117188 L 101.289063 244.792969 L 101.539063 243.503906 L 102.445313 243.214844 L 103.882813 243.558594 L 106.871094 241.457031 L 108.433594 240.808594 L 108.667969 241.335938 L 108.480469 243.175781 L 108.777344 246.292969 L 109.046875 247.320313 L 109.929688 248.226563 L 110.335938 251.851563 L 108.992188 253.109375 Z M 102.839844 224.179688 L 102.355469 223.613281 L 102.589844 223.230469 L 103.304688 222.808594 L 103.460938 223.023438 Z M 93.101563 215.417969 L 91.457031 215.167969 L 94.21875 214.671875 L 95.480469 214.117188 L 95.671875 214.59375 L 93.804688 214.847656 Z M 97.589844 212.898438 L 98.902344 211.898438 L 100.59375 209.824219 L 101.515625 207.9375 L 102.617188 207.75 L 102.652344 208.195313 L 101.386719 210.445313 L 99.425781 212.117188 Z M 101.882813 192.023438 L 101.351563 191.359375 L 101.515625 191.273438 L 102.835938 191.832031 Z M 85.835938 188.574219 L 85.53125 188.722656 L 85.367188 188.859375 L 84.328125 188.382813 L 82.6875 188.554688 L 82.128906 188.101563 L 81.921875 187.375 L 81.804688 186.597656 L 82.132813 185.78125 L 82.527344 182.90625 L 82.546875 178.277344 L 82.3125 176.097656 L 83.4375 175.515625 L 85.28125 176.539063 L 86.578125 178.347656 L 85.882813 178.945313 L 85.144531 178.476563 L 85.03125 179.058594 L 85.140625 186.4375 L 86.054688 188.15625 Z M 81.527344 192.582031 L 80.214844 193.613281 L 79.074219 195.0625 L 78.507813 194.933594 L 78.507813 192.753906 L 80.441406 190.269531 L 81.117188 190.9375 Z M 92.078125 146.949219 L 92.828125 145.757813 L 93.640625 143.628906 L 94.015625 141.507813 L 96.042969 141.058594 L 96.675781 141.359375 L 95.960938 142.378906 L 97.386719 146.128906 L 97.359375 142.890625 L 98.964844 142.257813 L 100.179688 142.804688 L 100.34375 142.296875 L 99.183594 139.695313 L 99.996094 139.257813 L 103.851563 136.011719 L 103.949219 135.890625 L 105.253906 135.441406 L 111.003906 130.808594 L 111.84375 129.875 L 112.699219 129.875 L 113.019531 130.191406 L 113.238281 130.855469 L 112.875 133.039063 L 113.175781 135.824219 L 112.328125 137.878906 L 110.105469 140.078125 L 109.925781 141.289063 L 111.058594 141.910156 L 112.367188 141.523438 L 113.644531 140.4375 L 114.097656 140.800781 L 113.746094 142.269531 L 112.140625 143.671875 L 111.234375 143.917969 L 109.761719 143.558594 L 108.839844 144.542969 L 108.40625 145.765625 L 105.6875 146.980469 L 102.835938 147.460938 L 103.40625 147.65625 L 105.667969 147.414063 L 108.015625 146.824219 L 108.78125 149.976563 L 106.21875 152.621094 L 105.796875 153.449219 L 105.773438 153.792969 L 103.472656 154.890625 L 101.40625 154.195313 L 100.703125 152.269531 L 100.652344 150.535156 L 101.84375 148.921875 L 103.425781 148.886719 L 101.296875 148.414063 L 99.359375 150.839844 L 100.101563 152.9375 L 101.019531 153.988281 L 101.277344 156.078125 L 99.433594 158.316406 L 93.527344 162.226563 L 90.550781 158.175781 L 90.507813 157.148438 L 91.820313 157.980469 L 97.480469 154.929688 L 96.453125 153.484375 L 95.234375 152.652344 L 94.117188 152.148438 L 92.941406 152.324219 L 92.058594 151.863281 L 91.273438 150.875 L 92.699219 149.40625 Z M 97.335938 140.695313 L 98.300781 140.175781 L 99.277344 141.320313 L 99.230469 141.953125 L 98.214844 141.941406 L 97.453125 141.691406 Z M 132.785156 207.414063 L 131.835938 209.515625 L 131.335938 211.632813 L 131.246094 213.933594 L 131.582031 216.085938 L 132.675781 218.691406 L 131.898438 219.546875 L 131.125 219.644531 L 127.28125 218.265625 L 127.882813 216.460938 L 128.195313 216.742188 L 128.945313 216.671875 L 131.070313 215.113281 L 129.507813 214.882813 L 128.550781 215.441406 L 127.980469 214.949219 L 127.875 213.785156 L 129.65625 210.6875 L 133.355469 206.101563 Z M 225.117188 68.355469 L 224.445313 68.835938 L 225.269531 67.101563 L 225.265625 67.207031 Z M 286.679688 439.636719 L 283.058594 438.976563 L 282.164063 437.605469 L 282.484375 436.070313 L 286.839844 437.054688 L 287.960938 438.832031 Z M 236.835938 466.113281 L 235.136719 465.644531 L 236.523438 463.683594 L 237.195313 464.164063 L 237.5 465.839844 Z M 88.429688 500.046875 L 88.566406 499.308594 L 88.941406 499.117188 L 89.34375 499.789063 Z M 91.824219 155.515625 L 91.882813 154.726563 L 92.882813 153.957031 L 93.789063 153.890625 L 93.378906 155.476563 Z M 88.238281 162.863281 L 87.917969 162.585938 L 88.445313 161.890625 L 89.367188 161.550781 L 89.65625 162.238281 Z M 86.902344 171.355469 L 84.875 171.125 L 84.914063 169.441406 L 82.996094 168.253906 L 81.464844 168.371094 L 80.089844 167.152344 L 80.046875 166.824219 L 81.617188 164.507813 L 86.457031 164.699219 L 87.222656 163.867188 L 88.554688 163.523438 L 91.023438 165.660156 L 91.214844 166.0625 L 88.9375 171.015625 L 88.773438 171.246094 Z M 118.089844 190.683594 L 116.035156 193.449219 L 114.023438 194.042969 L 113.570313 192.609375 L 115.183594 189.4375 L 113.980469 187.324219 L 112.75 189.558594 L 110.542969 187.414063 L 107.277344 187.777344 L 104.472656 183.015625 L 103.78125 181.25 L 105.464844 179.976563 L 107.179688 181.675781 L 107.667969 181.742188 L 107.789063 181.460938 L 102.875 176.632813 L 101.867188 177.609375 L 102.007813 179.089844 L 101.671875 179.800781 L 98.648438 178.089844 L 98.414063 176.53125 L 97.28125 175.296875 L 97.152344 174.433594 L 101.03125 167.96875 L 101.53125 168.039063 L 102.335938 169.03125 L 102.71875 170.644531 L 104.785156 172.40625 L 105.550781 172.625 L 106.867188 171.878906 L 106.617188 168.460938 L 106.121094 166.925781 L 108.003906 165.003906 L 108.964844 165.003906 L 111.609375 168.273438 L 112.355469 170.324219 L 112.300781 173.941406 L 111.832031 177.386719 L 112.054688 181.640625 L 117.5 184.859375 L 120.773438 183.445313 L 123.167969 184.417969 L 122.46875 186.839844 L 119.148438 190.25 Z M 116.21875 172.839844 L 115.832031 172.433594 L 115.832031 171.710938 L 116.085938 170.789063 L 116.59375 170.277344 L 116.765625 170.625 Z M 113.875 180.957031 L 113.53125 180.855469 L 113.277344 179.863281 L 113.640625 176.351563 L 114.757813 173.765625 L 115.464844 173.085938 L 116.03125 173.816406 L 115.367188 179.941406 L 114.945313 180.566406 Z M 85.394531 175.835938 L 84.546875 175.601563 L 83.046875 174.507813 L 82.722656 173.699219 L 82.824219 172.589844 L 83.972656 171.789063 L 86.566406 172.507813 L 87.433594 173.25 L 87.285156 175.226563 Z M 116.207031 183.113281 L 115.0625 182.589844 L 114.59375 181.914063 L 114.695313 181.441406 L 115.34375 181.214844 L 116.664063 181.757813 L 116.886719 182.648438 Z M 106.597656 197.398438 L 105.582031 196.804688 L 103.613281 194.261719 L 105.34375 192.390625 L 106.722656 192.214844 L 107.992188 192.835938 L 108.445313 193.703125 L 108.09375 196.351563 L 107.546875 197.015625 Z M 110.160156 200.433594 L 108.972656 199.578125 L 108.9375 198.890625 L 110.578125 197.179688 L 111.398438 197.769531 L 111.5 198.265625 L 111.128906 199.855469 Z M 110.59375 209.929688 L 111.976563 210.636719 L 113.289063 212.988281 L 113.785156 214.699219 L 116.457031 215.945313 L 117.929688 216.300781 L 121.195313 219.144531 L 120.902344 221.207031 L 119.445313 223.339844 L 116.335938 225.03125 L 115.453125 224.539063 L 116.136719 223.339844 L 115.425781 223.117188 L 112.109375 224.96875 L 106.027344 226.585938 L 104.691406 226.273438 L 103.734375 224.277344 L 103.851563 223.371094 L 104.191406 223.09375 L 105.628906 223.050781 L 106.039063 223.617188 L 106.972656 224.074219 L 112.214844 222.164063 L 112.035156 221.589844 L 109.863281 222.445313 L 108.199219 222.488281 L 107.824219 221.539063 L 109.386719 219.472656 L 112.601563 217.957031 L 112.90625 216.820313 L 112.554688 216.699219 L 109.90625 217.519531 L 105.058594 214.074219 L 105.636719 211.667969 L 108.914063 210.140625 L 110.03125 209.789063 Z M 108.136719 218.074219 L 107.207031 217.691406 L 106.753906 217.160156 L 107.335938 216.378906 L 108.085938 216.507813 L 109.105469 217.519531 L 109.070313 217.820313 Z M 123.378906 222.417969 L 122.582031 222.078125 L 123.082031 221.191406 L 124.476563 221.046875 Z M 121.453125 227.109375 L 121.152344 226.972656 L 120.984375 225.621094 L 121.59375 224.800781 L 122.367188 224.816406 L 121.953125 226.621094 Z M 120.902344 230.566406 L 120.316406 229.273438 L 120.976563 227.386719 L 121.816406 227.683594 Z M 118.503906 231.671875 L 118.15625 231.449219 L 118.535156 230.824219 L 119.917969 230.164063 L 119.953125 231.257813 Z M 111.886719 247.292969 L 110.550781 247.070313 L 109.476563 246.144531 L 109.292969 243.285156 L 109.585938 242.089844 L 112.5625 237.15625 L 116.605469 233.660156 L 119.195313 232.023438 L 119.632813 233.128906 L 119.449219 233.945313 L 118.015625 235.730469 L 113.761719 243.328125 Z M 106.976563 236.632813 L 105.476563 236.191406 L 106.28125 234.464844 L 107.839844 232.910156 L 108.882813 232.734375 L 107.535156 236.1875 Z M 134.8125 251.347656 L 132.589844 248.835938 L 130.84375 244.566406 L 130.707031 243.464844 L 131.460938 242.613281 L 133.71875 244.574219 L 134.707031 246.3125 L 135.339844 249.003906 L 135.222656 250.96875 Z M 130.613281 263.773438 L 129.152344 263.667969 L 126.582031 261.613281 L 125.375 256.128906 L 125.988281 253.21875 L 128.179688 251.246094 L 129.539063 251.441406 L 131.390625 253.015625 L 132.984375 258.382813 L 133.019531 262.765625 L 132.308594 263.453125 Z M 130.613281 263.773438 "/>
<path style=" stroke:none;fill-rule:nonzero;fill:rgb(80.392157%,58.431373%,4.705882%);fill-opacity:1;" d="M 218.835938 265.179688 L 217.617188 266.398438 L 215.996094 267.222656 L 214.199219 267.507813 L 212.402344 267.222656 L 210.78125 266.398438 L 209.496094 265.109375 L 208.667969 263.488281 L 208.382813 261.691406 L 208.667969 259.894531 L 209.496094 258.273438 L 210.78125 256.988281 L 212.414063 256.160156 L 212.824219 256.707031 L 213.265625 256.828125 L 213.433594 256.585938 L 214.601563 257.097656 L 217.371094 258.992188 L 218.679688 263.09375 Z M 218.835938 265.179688 "/>
<path style=" stroke:none;fill-rule:nonzero;fill:rgb(80.392157%,58.431373%,4.705882%);fill-opacity:1;" d="M 225.320313 65.828125 L 223.882813 65.546875 L 224.308594 63.570313 L 223.632813 57.773438 L 221.078125 57.210938 L 222.089844 58.292969 L 222.21875 59.898438 L 220.292969 61.703125 L 220.015625 60.09375 L 220.300781 58.296875 L 221.125 56.675781 L 222.414063 55.386719 L 224.035156 54.5625 L 225.832031 54.277344 L 227.960938 54.730469 L 227.699219 56.234375 L 226.355469 57.007813 L 225.6875 56.476563 L 226.023438 58.453125 L 227.246094 61.769531 L 226.800781 62.460938 L 226.285156 62.238281 L 225.40625 63.738281 Z M 225.320313 65.828125 "/>
<path style=" stroke:none;fill-rule:nonzero;fill:rgb(80.392157%,58.431373%,4.705882%);fill-opacity:1;" d="M 195.265625 98.941406 L 196.472656 100.960938 L 194.695313 101.191406 L 193.226563 103.421875 L 193.136719 102.113281 Z M 186.101563 99.578125 L 187.582031 98.003906 L 188.613281 98.375 L 189.644531 99.757813 L 189.558594 100.558594 L 189.007813 101.453125 L 189.121094 100.265625 L 187.730469 99.058594 L 186.953125 98.894531 L 186.835938 99.515625 L 186.335938 100.011719 Z M 186.101563 99.578125 "/>
</g>
</svg>
