<?xml version="1.0" encoding="UTF-8"?>
<svg xmlns="http://www.w3.org/2000/svg" xmlns:xlink="http://www.w3.org/1999/xlink" width="378pt" height="504pt" viewBox="0 0 378 504" version="1.1">
<g id="data">
<rect x="0" y="0" width="378" height="504" style="fill:rgb(100%,100%,100%);fill-opacity:1;stroke:none;"/>
<path style=" stroke:none;fill-rule:nonzero;fill:rgb(100%,100%,100%);fill-opacity:1;" d="M 53.308594 504 L 324.691406 504 L 324.691406 0 L 53.308594 0 Z M 53.308594 504 "/>
<path style=" stroke:none;fill-rule:nonzero;fill:rgb(80.392157%,58.431373%,4.705882%);fill-opacity:1;" d="M 297.554688 397.382813 L 297.269531 399.183594 L 296.441406 400.804688 L 295.15625 402.089844 L 293.535156 402.914063 L 291.738281 403.199219 L 289.941406 402.914063 L 288.320313 402.089844 L 287.035156 400.804688 L 286.207031 399.183594 L 285.921875 397.382813 L 286.207031 395.585938 L 287.035156 393.964844 L 288.320313 392.679688 L 289.941406 391.855469 L 291.738281 391.570313 L 293.535156 391.855469 L 295.15625 392.679688 L 296.441406 393.964844 L 297.269531 395.585938 Z M 297.554688 397.382813 "/>
<path style=" stroke:none;fill-rule:nonzero;fill:rgb(80.392157%,58.431373%,4.705882%);fill-opacity:1;" d="M 285.921875 401.261719 L 285.636719 403.058594 L 284.8125 404.679688 L 283.527344 405.964844 L 281.90625 406.792969 L 280.109375 407.078125 L 278.3125 406.792969 L 276.691406 405.964844 L 275.402344 404.679688 L 274.578125 403.058594 L 274.292969 401.261719 L 274.578125 399.464844 L 275.402344 397.84375 L 276.691406 396.558594 L 278.3125 395.730469 L 280.109375 395.445313 L 281.90625 395.730469 L 283.527344 396.558594 L 284.8125 397.84375 L 285.636719 399.464844 Z M 285.921875 401.261719 "/>
<path style=" stroke:none;fill-rule:nonzero;fill:rgb(80.392157%,58.431373%,4.705882%);fill-opacity:1;" d="M 119.214844 180.277344 L 118.929688 182.074219 L 118.105469 183.695313 L 116.816406 184.980469 L 115.195313 185.808594 L 113.398438 186.09375 L 111.601563 185.808594 L 109.980469 184.980469 L 108.695313 183.695313 L 107.871094 182.074219 L 107.585938 180.277344 L 107.871094 178.480469 L 108.695313 176.859375 L 109.980469 175.570313 L 111.601563 174.746094 L 113.398438 174.460938 L 115.195313 174.746094 L 116.816406 175.570313 L 118.105469 176.859375 L 118.929688 178.480469 Z M 119.214844 180.277344 "/>
</g>
</svg>
