<?xml version="1.0" encoding="UTF-8"?>
<svg xmlns="http://www.w3.org/2000/svg" xmlns:xlink="http://www.w3.org/1999/xlink" width="378pt" height="504pt" viewBox="0 0 378 504" version="1.1">
<g id="data">
<rect x="0" y="0" width="378" height="504" style="fill:rgb(100%,100%,100%);fill-opacity:1;stroke:none;"/>
<path style=" stroke:none;fill-rule:nonzero;fill:rgb(100%,100%,100%);fill-opacity:1;" d="M 53.308594 504 L 324.691406 504 L 324.691406 0 L 53.308594 0 Z M 53.308594 504 "/>
<path style=" stroke:none;fill-rule:nonzero;fill:rgb(22.745098%,53.333333%,16.078431%);fill-opacity:1;" d="M 210.324219 284.953125 L 213.628906 283.050781 L 216.136719 280.183594 L 218.648438 283.050781 L 221.953125 284.953125 L 222.335938 288.636719 L 223.785156 291.902344 L 226.238281 294.613281 L 229.304688 299.0625 L 231.378906 300.03125 L 232.804688 301.847656 L 235.5 303.8125 L 238.640625 304.929688 L 241.972656 305.109375 L 242.167969 305.0625 L 244.476563 306.140625 L 244.925781 306.671875 L 244.902344 306.871094 L 245.148438 309.410156 L 245.941406 311.835938 L 247.242188 314.03125 L 249.890625 316.785156 L 251.015625 317.628906 L 252.390625 319.148438 L 256.121094 320.875 L 256.847656 321.4375 L 256.847656 321.921875 L 254.738281 323.09375 L 253.890625 324.554688 L 253.765625 325.996094 L 254.449219 328.234375 L 254.003906 329.65625 L 253.875 332.214844 L 254.347656 334.863281 L 255.820313 337.984375 L 258.144531 340.535156 L 261.144531 342.285156 L 260.445313 342 L 258.378906 342.789063 L 257.507813 342.753906 L 256.035156 341.773438 L 253.664063 338.65625 L 252.601563 338.082031 L 245.550781 339.511719 L 244.589844 338.644531 L 243.40625 338.558594 L 241.210938 339.871094 L 241.886719 340.445313 L 246.324219 340.394531 L 249.617188 339.34375 L 251.976563 339.082031 L 254.382813 342.558594 L 260.535156 347.621094 L 263.042969 349.058594 L 263.664063 349.039063 L 266.046875 352.214844 L 268.023438 356.996094 L 267.828125 357.976563 L 268.089844 361.144531 L 269.199219 364.132813 L 269.316406 364.292969 L 269.210938 365.21875 L 264.953125 369.09375 L 261.394531 373.164063 L 260.601563 374.816406 L 262.84375 374.3125 L 264.9375 375.519531 L 266.9375 378.226563 L 270.21875 378.804688 L 270.625 378.746094 L 271.910156 376.796875 L 272.234375 374.960938 L 273.40625 371.914063 L 274.707031 370.632813 L 277.714844 370.109375 L 281.859375 370.40625 L 283.554688 370.378906 L 284.253906 370.867188 L 286.703125 370.742188 L 292.21875 371.332031 L 292.875 372.820313 L 294.597656 375.046875 L 296.917969 376.863281 L 299.492188 378 L 300.902344 381.011719 L 303.105469 383.5 L 305.117188 384.871094 L 306.820313 385.578125 L 307.113281 390.210938 L 306.582031 393.507813 L 306.734375 394.394531 L 305.789063 396.917969 L 305.183594 399.824219 L 303.925781 402.410156 L 303.246094 406.136719 L 303.328125 408.035156 L 298.070313 413.558594 L 296.886719 414.113281 L 295.578125 412.011719 L 292.742188 410.515625 L 292.480469 410.636719 L 293.898438 413.703125 L 295.125 415.503906 L 293.992188 416.507813 L 292.625 418.515625 L 291.738281 420.644531 L 290.660156 421.546875 L 290.003906 421.65625 L 289.660156 421.574219 L 288.214844 419.332031 L 284.976563 421.730469 L 280.71875 424.230469 L 282.339844 425.378906 L 285.105469 424.398438 L 286.097656 423.375 L 286.894531 423.164063 L 287.328125 423.710938 L 287.457031 425.925781 L 287.171875 426.546875 L 286.621094 428.925781 L 286.675781 429.84375 L 285.6875 430.875 L 283.441406 432.558594 L 282.84375 432.699219 L 279.644531 432.160156 L 274.75 433.78125 L 272.609375 436.117188 L 274.253906 436.015625 L 275.152344 434.667969 L 276.683594 434.363281 L 278.285156 434.328125 L 281.054688 434.949219 L 281.828125 435.589844 L 281.691406 436.328125 L 279.554688 436.347656 L 277.390625 437.65625 L 277.96875 438.546875 L 281.382813 438.964844 L 286.863281 440.339844 L 289.394531 439.9375 L 290.660156 439.195313 L 294.140625 442.089844 L 296.761719 443.347656 L 299.492188 443.90625 L 299.492188 447.785156 L 296.285156 448.515625 L 293.511719 450.035156 L 289.65625 453.28125 L 287.863281 455.539063 L 285.34375 457.609375 L 284.992188 458.074219 L 284.1875 457.9375 L 282.710938 459.332031 L 281.605469 459.261719 L 278.851563 459.585938 L 276.78125 460.191406 L 274.859375 461.164063 L 270.453125 464.738281 L 268.875 466.683594 L 259.269531 463.777344 L 259.0625 463.761719 L 258.597656 463.570313 L 254.824219 462.996094 L 251.898438 463.199219 L 248.214844 464.609375 L 247.605469 465.128906 L 244.628906 465.699219 L 242.703125 466.390625 L 242.492188 466.597656 L 240.320313 466.546875 L 239.140625 466.769531 L 238.210938 466.1875 L 238.632813 465.4375 L 239.46875 464.933594 L 237.714844 463.296875 L 231.496094 463.171875 L 231.378906 463.496094 L 232.574219 464.835938 L 232.214844 465.75 L 231.738281 466.042969 L 226.691406 465.496094 L 219.566406 468.449219 L 217.054688 467.824219 L 210.222656 468.96875 L 208.164063 468.875 L 207.273438 468.058594 L 206.238281 469.769531 L 209.429688 471.089844 L 209.714844 470.9375 L 210.1875 472.128906 L 209.566406 473.890625 L 206.84375 474.453125 L 204.453125 473.097656 L 203.015625 472.699219 L 197.625 472.007813 L 196.175781 472.65625 L 195.679688 473.863281 L 195.816406 474.75 L 195.308594 474.839844 L 194.851563 473.972656 L 190.289063 470.589844 L 185.898438 468.519531 L 183.121094 467.984375 L 181.648438 469.066406 L 176.207031 469.78125 L 174.339844 470.335938 L 168.992188 473.234375 L 168.214844 474.070313 L 167.203125 476.179688 L 162.746094 489.226563 L 162.527344 489.351563 L 161.292969 488.304688 L 158.167969 486.929688 L 156.261719 486.648438 L 154.683594 485.4375 L 153.613281 485.542969 L 152.417969 486.300781 L 151.738281 486.164063 L 148.46875 482.535156 L 142.796875 482.960938 L 142.503906 483.054688 L 139.289063 482.535156 L 135.253906 482.683594 L 133.105469 483.023438 L 130.941406 483.816406 L 128.976563 485.019531 L 127.375 486.492188 L 126.007813 488.34375 L 125.113281 490.253906 L 124.039063 490.597656 L 123.648438 492.191406 L 122.457031 493.707031 L 121.5625 495.941406 L 121.289063 497.433594 L 120.660156 497.648438 L 120.394531 498.183594 L 118.253906 498.183594 L 117.96875 497.691406 L 118.09375 496.4375 L 117.15625 494.691406 L 115.984375 493.691406 L 112.253906 492.070313 L 111.410156 491.984375 L 110.375 492.488281 L 110.242188 494.183594 L 110.03125 494.425781 L 108.148438 494.160156 L 105.644531 494.308594 L 107.816406 492.601563 L 109.523438 490.429688 L 112.042969 488.359375 L 112.140625 488.230469 L 112.199219 488.253906 L 112.445313 488.9375 L 113.574219 489.15625 L 118.144531 485.910156 L 121.425781 483.085938 L 124.375 479.769531 L 125.210938 477.886719 L 124.875 476.421875 L 125.574219 474.679688 L 127.714844 473.71875 L 128.214844 473.320313 L 128.386719 473.238281 L 132.105469 472.640625 L 132.679688 471.785156 L 133.257813 469.527344 L 135.859375 467.5625 L 138.636719 464.640625 L 138.867188 461.800781 L 139.339844 461 L 140.140625 458.429688 L 140.316406 455.488281 L 140.179688 454.804688 L 142.492188 455.105469 L 144.269531 456.015625 L 145.761719 455.429688 L 148.429688 452.488281 L 148.105469 447.519531 L 151.105469 446.613281 L 157.421875 446.269531 L 159.910156 445.683594 L 164.597656 446.761719 L 166.046875 446.148438 L 167.527344 446.515625 L 169.484375 447.285156 L 170.039063 448.109375 L 170.757813 448.421875 L 173.15625 448.464844 L 180.570313 447.503906 L 181.109375 445.632813 L 181.210938 443.15625 L 182.519531 440.25 L 190.867188 432.195313 L 195.792969 425.3125 L 197.929688 424.472656 L 198.285156 423.78125 L 198.070313 423.238281 L 197.8125 423.082031 L 196.09375 424.355469 L 192.90625 427.300781 L 190.570313 429.988281 L 189.222656 431.449219 L 185.628906 432.957031 L 183.714844 433.246094 L 182.441406 433.0625 L 178.394531 435.230469 L 177.398438 436.808594 L 177.039063 438.671875 L 176.445313 439.273438 L 174.058594 439.917969 L 170.558594 439.851563 L 166.820313 439 L 166.347656 438.652344 L 161.371094 433.375 L 159.03125 429.199219 L 155.65625 429.589844 L 149.269531 432.308594 L 149.113281 432.746094 L 147.203125 431.632813 L 146.917969 429.308594 L 148.539063 428.378906 L 150.066406 428.890625 L 151.640625 428.421875 L 152.765625 427.832031 L 153.085938 427.097656 L 152.808594 426.597656 L 147.785156 426.460938 L 143.210938 423.710938 L 139.503906 423.714844 L 136.765625 424.277344 L 136.292969 426.515625 L 135.777344 427.203125 L 133.742188 427.917969 L 132.394531 427.265625 L 131.648438 427.453125 L 130.265625 428.65625 L 129.800781 428.503906 L 127.15625 428.238281 L 126.835938 428.261719 L 126.53125 428.132813 L 127.425781 426.082031 L 128.796875 425.832031 L 131.792969 424.328125 L 131.226563 422.867188 L 130.640625 424.257813 L 127.769531 424.613281 L 124.960938 424.34375 L 124.722656 422.648438 L 124.359375 421.773438 L 125.167969 421.753906 L 125.464844 421.238281 L 124.929688 417.953125 L 123.328125 417.210938 L 121.445313 417.105469 L 122.0625 415.152344 L 124.375 414.09375 L 126.007813 414.410156 L 128.566406 414.339844 L 130.925781 413.757813 L 134.914063 412.007813 L 137.214844 410.382813 L 139.265625 407.933594 L 139.867188 406.617188 L 141.359375 406.660156 L 142.21875 406.390625 L 144.269531 405.078125 L 142.363281 408.382813 L 141.488281 411.992188 L 141.828125 415.816406 L 143.464844 419.429688 L 145.59375 421.800781 L 148.144531 423.445313 L 152.167969 424.523438 L 154.136719 425.953125 L 156.359375 426.945313 L 160.40625 427.507813 L 163.917969 426.820313 L 167.054688 425.097656 L 168.816406 423.421875 L 170.191406 421.414063 L 171.117188 419.164063 L 171.554688 416.769531 L 174.863281 416.480469 L 178.066406 415.207031 L 180.667969 413.144531 L 182.636719 410.3125 L 184.320313 406.304688 L 184.738281 402.878906 L 184.171875 399.605469 L 182.300781 395.253906 L 180.761719 393.050781 L 178.863281 391.332031 L 175.429688 389.628906 L 172.554688 387.394531 L 169.863281 386.324219 L 172.644531 384.808594 L 174.832031 382.699219 L 177.160156 379.332031 L 178.253906 375.917969 L 178.347656 373.09375 L 177.714844 370.214844 L 173.578125 362.730469 L 171.519531 360.625 L 169.117188 359.160156 L 164.816406 357.472656 L 163.085938 357.3125 L 163.644531 357.28125 L 167.339844 357.714844 L 172.597656 355.179688 L 173.933594 355.046875 L 174.484375 355.082031 L 179.910156 359.441406 L 180.433594 358.429688 L 177.679688 353.460938 L 178.242188 352.835938 L 180.867188 352.449219 L 181.503906 352.695313 L 181.914063 353.875 L 182.898438 354.332031 L 184.078125 356.789063 L 185.613281 357.902344 L 188.359375 357.621094 L 190.335938 355.148438 L 189.90625 355.050781 L 188.667969 355.527344 L 188.3125 355.957031 L 186.378906 356.386719 L 183.8125 354.640625 L 179.976563 346.332031 L 180.113281 346.085938 L 181.082031 345.003906 L 182.3125 342.789063 L 182.609375 341.621094 L 183.371094 340.257813 L 185.429688 339.015625 L 185.140625 338.578125 L 183.398438 338.496094 L 183.648438 337.507813 L 183.839844 334.84375 L 183.023438 330.988281 L 182.570313 330.144531 L 184.695313 329.191406 L 187.28125 323.421875 L 187.476563 322.316406 L 187.695313 323.636719 L 189.609375 327.113281 L 192.582031 329.742188 L 196.140625 331.195313 L 201.351563 331.792969 L 205.121094 331.175781 L 207.863281 329.820313 L 210.324219 327.601563 L 212.503906 326.511719 L 214.5 324.90625 L 216.292969 322.570313 L 217.480469 319.738281 L 217.882813 316.820313 L 217.503906 313.769531 L 216.210938 310.703125 L 214.199219 308.214844 L 214.503906 306.066406 L 214.402344 303.898438 L 213.898438 301.785156 L 213.011719 299.804688 L 211.691406 297.925781 L 210.039063 296.339844 L 206.464844 294.296875 L 208.164063 292.402344 L 209.460938 290.066406 L 210.171875 287.621094 Z M 261.324219 342.359375 L 263.394531 342.832031 L 263.640625 343.980469 L 262.804688 345.191406 L 263.28125 343.65625 L 262.507813 342.839844 Z M 233.632813 469.183594 L 233.519531 469.261719 L 231.878906 470.882813 L 230.59375 472.792969 L 229.984375 474.253906 L 229.960938 474.269531 L 229.171875 474.429688 L 227.933594 473.296875 L 225.746094 472.019531 L 223.582031 471.296875 L 222.722656 471.160156 L 222.296875 470.886719 L 221.613281 470.984375 L 220.523438 470.8125 L 221.476563 469.683594 L 227.316406 466.367188 L 232.550781 467.761719 Z M 154.691406 359.78125 L 153.335938 360.960938 L 151.007813 364.03125 L 149.761719 366.703125 L 149.21875 369.730469 L 149.464844 372.671875 L 149.664063 373.238281 L 145.449219 374.257813 L 143.757813 375.484375 L 142.351563 377.621094 L 140.285156 377.335938 L 136.660156 378 L 138.921875 376.203125 L 142.539063 371.976563 L 142.542969 371.96875 L 142.589844 371.953125 L 147.132813 367.984375 L 147.953125 364.523438 L 151.550781 360.582031 L 153.09375 359.609375 Z M 152.28125 378.097656 L 153.359375 379.621094 L 156.046875 381.875 L 157.945313 384.082031 L 160.222656 385.6875 L 162.816406 386.707031 L 160.667969 387.785156 L 158.878906 389.199219 L 157.253906 391.140625 L 156.046875 393.507813 L 153.875 395.214844 L 152.984375 396.347656 L 153.054688 396.195313 L 154.199219 391.746094 L 153.734375 388.820313 L 152.566406 386.542969 L 153.179688 384.597656 L 154.652344 381.796875 L 152.269531 378.203125 Z M 144.21875 361.640625 L 143.855469 359.761719 L 142.527344 357.03125 L 142.082031 356.519531 L 142.125 355.402344 L 143.25 355.875 L 146.160156 356.296875 L 149.210938 355.941406 L 150.902344 355.253906 L 151.039063 355.578125 L 155.546875 356.503906 L 154.066406 358.859375 L 150.984375 360.816406 L 147.425781 363.976563 L 146.109375 363.875 Z M 175.429688 319.390625 L 175.429688 315.96875 L 177.726563 317.960938 L 180.457031 319.289063 L 184.183594 319.96875 L 185.363281 319.917969 L 184.742188 320.527344 L 179.199219 323.441406 L 177.335938 322.691406 Z M 163.800781 234.554688 L 165.972656 234.347656 L 168.191406 233.691406 L 170.234375 232.613281 L 172.023438 231.148438 L 173.488281 229.359375 L 174.570313 227.316406 L 175.226563 225.097656 L 175.429688 222.921875 L 178.984375 223.207031 L 180.894531 222.773438 L 177.804688 225.21875 L 178.117188 225.714844 L 179.84375 225.195313 L 184.609375 222.886719 L 186.457031 221.386719 L 187.289063 221.316406 L 189.085938 221.875 L 189.332031 222.921875 L 188.898438 224.691406 L 189.238281 225.953125 L 190.898438 226.824219 L 192.988281 227.191406 L 194.445313 228.726563 L 194.429688 229.304688 L 192.117188 231.570313 L 189.460938 232.730469 L 188.34375 232.882813 L 187.070313 232.078125 L 185.40625 232.042969 L 181.046875 235.800781 L 180.578125 237.003906 L 174.761719 240.109375 L 170.214844 238.117188 L 166.480469 238.003906 L 166.738281 239.222656 L 168.246094 240.195313 L 178.0625 241.875 L 182.921875 243.167969 L 186.398438 241.730469 L 187.519531 239.417969 L 188.617188 238.355469 L 189.539063 238.171875 L 193.183594 238.5 L 198.855469 242.425781 L 199.773438 243.378906 L 202.886719 245.3125 L 204.949219 245.816406 L 206.488281 246.65625 L 208.910156 251.429688 L 212.824219 256.707031 L 213.265625 256.828125 L 213.433594 256.585938 L 214.601563 257.097656 L 217.371094 258.992188 L 218.078125 261.207031 L 218.078125 265.570313 L 216.136719 267.933594 L 214.199219 265.570313 L 212.511719 262.417969 L 210.355469 260.238281 L 206.984375 258.421875 L 203.210938 257.796875 L 199.261719 258.101563 L 195.726563 259.574219 L 192.863281 262.117188 L 190.9375 265.570313 L 189.050781 263.222656 L 184.765625 259.703125 L 182.15625 258.414063 L 179.308594 257.816406 L 178.871094 255.421875 L 177.882813 253.058594 L 176.484375 251.066406 L 174.707031 249.40625 L 172.851563 248.265625 L 170.816406 247.492188 L 166.621094 247.121094 L 163.035156 248.050781 L 159.921875 250.0625 L 156.746094 249.070313 L 153.546875 249.007813 L 150.453125 249.816406 L 147.691406 251.4375 L 145.121094 254.277344 L 143.582031 257.929688 L 143.515625 258.957031 L 142.601563 256.71875 L 140.285156 255.167969 L 140.539063 253.9375 L 142.6875 251.585938 L 144.113281 248.734375 L 144.71875 245.480469 L 144.464844 242.832031 L 146.15625 243.175781 L 148.300781 243.253906 L 145.921875 242.308594 L 148.292969 242.308594 L 150.390625 242.917969 L 152.566406 243.125 L 154.742188 242.921875 L 156.839844 242.316406 L 159.21875 241.046875 L 161.238281 239.257813 L 162.792969 237.054688 Z M 184.765625 221.128906 L 184.917969 221.046875 L 187.0625 219.046875 L 189.96875 218.675781 L 192.691406 217.59375 L 195.9375 214.933594 L 195.484375 216.226563 L 191.214844 219.742188 L 185.519531 221.085938 Z M 143.804688 263.394531 L 144.414063 265.570313 L 140.898438 266.113281 L 140.023438 266.546875 L 140.917969 265.085938 L 143.644531 263.800781 Z M 199.957031 189.257813 L 202.996094 191.082031 L 206.445313 191.90625 L 204.183594 194.636719 L 202.84375 197.921875 L 202.792969 195.515625 L 202.289063 193.292969 L 201.359375 191.210938 Z M 191.992188 168.773438 L 194.816406 168.644531 L 194.125 169.347656 Z M 192.21875 296.441406 L 190.9375 296.585938 L 190.222656 295.917969 Z M 140.683594 321.125 L 140.542969 316.171875 L 142.300781 315.023438 L 144.765625 310.230469 L 145.863281 309.40625 L 149.046875 308.269531 L 149.144531 308.710938 L 148.804688 309.453125 L 148.292969 312.09375 L 145.152344 313.773438 L 142.742188 316.226563 L 141.429688 318.554688 Z M 146.535156 296.09375 L 146.476563 295.871094 L 144.667969 292.929688 L 143.015625 291.324219 L 141.078125 290.074219 L 139.019531 289.265625 L 138.398438 288.636719 L 137.464844 288.296875 L 136.703125 288.839844 L 136.660156 288.832031 L 136.957031 286.800781 L 140.539063 288.832031 L 143.046875 290.957031 L 145.445313 292.109375 L 149.570313 292.953125 L 149.574219 292.960938 L 149.839844 295.726563 L 149.308594 296.871094 L 148.746094 297.058594 Z M 155.101563 292.941406 L 156.046875 292.707031 L 157.039063 293.367188 L 156.15625 293.3125 L 155.160156 292.984375 Z M 172.53125 291.964844 L 173.171875 291.515625 L 175.429688 288.832031 L 179.308594 289.496094 L 183.183594 288.832031 L 184.558594 291.542969 L 186.589844 293.804688 L 183.460938 293.148438 L 180.269531 293.367188 L 177.257813 294.449219 L 174.65625 296.308594 L 172.59375 298.917969 L 171.386719 301.878906 L 171.03125 305.058594 L 171.554688 308.214844 L 170.28125 306.5 L 168.714844 305.050781 L 167.546875 304.210938 L 169.164063 299.058594 Z M 156.582031 173.910156 L 158.609375 171.503906 L 159.921875 168.644531 L 160.25 168.316406 L 160.300781 168.324219 L 161.058594 169.320313 L 157.109375 173.804688 L 157.105469 173.8125 Z M 161.757813 166.652344 L 162.730469 165.210938 L 163.777344 162.484375 L 163.804688 162.261719 L 164.042969 162.292969 L 164.960938 162.0625 L 164.980469 162.121094 L 165.777344 163.363281 L 162.722656 166.96875 L 162.175781 167.183594 L 161.726563 166.894531 Z M 173.527344 168.363281 L 174.402344 168.601563 L 183.183594 168.644531 L 179.855469 170.273438 L 177.285156 172.761719 L 175.429688 176.398438 L 173.957031 177.972656 L 172.742188 179.902344 L 171.929688 182.03125 L 171.554688 184.152344 L 171.078125 181.632813 L 170.0625 179.28125 L 168.554688 177.207031 L 166.523438 175.441406 L 164.261719 174.234375 L 161.789063 173.554688 L 160.59375 173.496094 L 161.140625 173.015625 L 167.808594 170.273438 L 170.480469 169.527344 L 170.492188 169.949219 L 171.554688 169.839844 Z M 88.945313 499.121094 L 88.542969 499.441406 L 88.566406 499.308594 L 88.941406 499.117188 Z M 286.679688 439.636719 L 283.058594 438.976563 L 282.164063 437.605469 L 282.484375 436.070313 L 286.839844 437.054688 L 287.960938 438.832031 Z M 236.835938 466.113281 L 235.136719 465.644531 L 236.523438 463.683594 L 237.195313 464.164063 L 237.5 465.839844 Z M 236.835938 466.113281 "/>
</g>
</svg>
