<?xml version="1.0" encoding="UTF-8"?>
<svg xmlns="http://www.w3.org/2000/svg" xmlns:xlink="http://www.w3.org/1999/xlink" width="378pt" height="504pt" viewBox="0 0 378 504" version="1.1">
<g id="data">
<rect x="0" y="0" width="378" height="504" style="fill:rgb(100%,100%,100%);fill-opacity:1;stroke:none;"/>
<path style=" stroke:none;fill-rule:nonzero;fill:rgb(100%,100%,100%);fill-opacity:1;" d="M 53.308594 504 L 324.691406 504 L 324.691406 0 L 53.308594 0 Z M 53.308594 504 "/>
<path style=" stroke:none;fill-rule:nonzero;fill:rgb(22.745098%,53.333333%,16.078431%);fill-opacity:1;" d="M 292.21875 371.332031 L 292.875 372.820313 L 294.597656 375.046875 L 296.917969 376.863281 L 299.492188 378 L 300.902344 381.011719 L 303.105469 383.5 L 305.117188 384.871094 L 306.820313 385.578125 L 307.089844 389.789063 L 305.714844 391.167969 L 304.433594 393.078125 L 303.273438 396.3125 L 303.054688 398.601563 L 303.371094 401.261719 L 303.371094 407.992188 L 298.070313 413.558594 L 296.886719 414.113281 L 295.578125 412.011719 L 292.742188 410.515625 L 292.480469 410.636719 L 293.898438 413.703125 L 295.125 415.503906 L 293.992188 416.507813 L 292.683594 418.40625 L 291.738281 420.644531 L 290.660156 421.546875 L 290.003906 421.65625 L 289.660156 421.574219 L 288.214844 419.332031 L 284.976563 421.730469 L 280.71875 424.230469 L 282.339844 425.378906 L 285.105469 424.398438 L 286.097656 423.375 L 286.894531 423.164063 L 287.328125 423.710938 L 287.460938 425.933594 L 287.171875 426.546875 L 286.640625 428.796875 L 286.691406 429.828125 L 285.6875 430.875 L 283.441406 432.558594 L 282.84375 432.699219 L 279.644531 432.160156 L 274.75 433.78125 L 272.609375 436.117188 L 274.253906 436.015625 L 275.152344 434.667969 L 276.683594 434.363281 L 278.285156 434.328125 L 281.054688 434.949219 L 281.828125 435.589844 L 281.691406 436.328125 L 279.554688 436.347656 L 277.390625 437.65625 L 277.96875 438.546875 L 281.382813 438.964844 L 286.863281 440.339844 L 289.394531 439.9375 L 290.660156 439.195313 L 294.140625 442.089844 L 296.644531 443.308594 L 299.492188 443.90625 L 299.492188 447.785156 L 296.40625 448.46875 L 293.511719 450.035156 L 289.65625 453.28125 L 287.863281 455.539063 L 285.34375 457.609375 L 284.992188 458.074219 L 284.1875 457.9375 L 282.722656 459.320313 L 281.859375 459.253906 L 279.351563 459.503906 L 275.855469 460.605469 L 274.027344 461.742188 L 270.640625 464.566406 L 268.878906 466.683594 L 259.269531 463.777344 L 259.078125 463.761719 L 257.976563 463.441406 L 254.1875 462.976563 L 251.648438 463.25 L 249.230469 464.070313 L 247.441406 465.160156 L 244.628906 465.699219 L 242.703125 466.390625 L 242.441406 466.644531 L 241.722656 466.511719 L 239.210938 466.816406 L 238.210938 466.1875 L 238.632813 465.4375 L 239.46875 464.933594 L 237.714844 463.296875 L 231.496094 463.171875 L 231.378906 463.496094 L 232.574219 464.835938 L 232.214844 465.75 L 231.738281 466.042969 L 226.691406 465.496094 L 219.566406 468.449219 L 217.054688 467.824219 L 210.222656 468.96875 L 208.164063 468.875 L 207.273438 468.058594 L 206.238281 469.769531 L 209.429688 471.089844 L 209.714844 470.9375 L 209.9375 471.503906 L 208.242188 472.746094 L 206.835938 474.449219 L 204.453125 473.097656 L 203.015625 472.699219 L 197.625 472.007813 L 196.175781 472.65625 L 195.679688 473.863281 L 195.816406 474.75 L 195.308594 474.839844 L 194.851563 473.972656 L 190.289063 470.589844 L 185.898438 468.519531 L 183.121094 467.984375 L 181.648438 469.066406 L 178.15625 469.523438 L 179.515625 468.441406 L 180.992188 466.667969 L 182.136719 464.519531 L 182.851563 461.925781 L 182.960938 459.367188 L 182.507813 456.84375 L 181.449219 454.371094 L 178.507813 450.84375 L 175.347656 448.757813 L 173.945313 448.363281 L 180.570313 447.503906 L 181.109375 445.632813 L 181.210938 443.15625 L 182.519531 440.25 L 190.867188 432.195313 L 195.792969 425.3125 L 197.929688 424.472656 L 198.285156 423.78125 L 198.070313 423.238281 L 197.8125 423.082031 L 196.09375 424.355469 L 192.90625 427.300781 L 190.570313 429.988281 L 189.222656 431.449219 L 185.628906 432.957031 L 183.714844 433.246094 L 182.441406 433.0625 L 178.394531 435.230469 L 177.398438 436.808594 L 177.039063 438.671875 L 176.445313 439.273438 L 174.058594 439.917969 L 170.558594 439.851563 L 167.070313 439.054688 L 168.578125 439.082031 L 170.726563 438.707031 L 174.53125 436.882813 L 176.417969 435.167969 L 177.820313 433.210938 L 178.828125 430.886719 L 179.308594 428.398438 L 182.628906 426.484375 L 185.078125 423.699219 L 186.464844 420.535156 L 186.863281 417.234375 L 186.582031 414.941406 L 185.851563 412.753906 L 184.703125 410.75 L 183.183594 409.015625 L 184.980469 406.367188 L 185.984375 403.332031 L 186.125 400.140625 L 185.34375 396.910156 L 183.761719 394.132813 L 181.375 391.8125 L 178.554688 390.308594 L 175.429688 389.628906 L 174.855469 386.796875 L 173.527344 384.085938 L 175.429688 381.875 L 176.863281 383.691406 L 178.519531 385.113281 L 180.414063 386.203125 L 182.476563 386.917969 L 184.636719 387.234375 L 186.816406 387.140625 L 188.945313 386.640625 L 190.9375 385.753906 L 192.734375 388.011719 L 196.753906 391.480469 L 198.949219 392.78125 L 201.375 393.578125 L 203.914063 393.820313 L 208.375 393.460938 L 212.191406 392.363281 L 214.761719 390.664063 L 216.722656 388.457031 L 218.109375 385.703125 L 218.722656 382.6875 L 218.59375 379.992188 L 217.4375 375.03125 L 216.121094 372.433594 L 214.199219 370.246094 L 214.863281 366.371094 L 214.199219 362.492188 L 221.25 362.796875 L 224.984375 362.015625 L 227.035156 360.972656 L 228.835938 359.550781 L 230.511719 357.617188 L 231.667969 355.621094 L 232.667969 351.660156 L 232.277344 347.722656 L 230.511719 344.039063 L 227.585938 341.191406 L 225.199219 339.953125 L 222.589844 339.296875 L 220.078125 339.066406 L 210.324219 339.230469 L 208.226563 338.621094 L 206.050781 338.414063 L 201.894531 339.175781 L 198.289063 341.371094 L 196.144531 343.925781 L 194.816406 346.984375 L 193.007813 348.34375 L 190.9375 350.863281 L 188.769531 352.566406 L 187.0625 354.738281 L 185.652344 355.894531 L 183.8125 354.640625 L 180.390625 347.230469 L 182.808594 347.777344 L 186.382813 347.464844 L 189.695313 346.074219 L 192.421875 343.742188 L 194.101563 341.160156 L 195.625 336.953125 L 195.949219 334.046875 L 195.507813 331.03125 L 198.691406 331.476563 L 200.304688 333.476563 L 202.207031 335.003906 L 204.386719 336.097656 L 206.746094 336.714844 L 210.585938 336.660156 L 214.199219 335.355469 L 217.5 335.652344 L 220.871094 334.96875 L 223.582031 333.550781 L 225.832031 331.476563 L 229.636719 329.644531 L 231.273438 328.195313 L 232.605469 326.464844 L 233.8125 323.910156 L 234.371094 321.140625 L 234.28125 318.574219 L 233.457031 314.925781 L 237.460938 315.96875 L 238.347656 318.097656 L 239.714844 320.109375 L 241.371094 321.710938 L 243.429688 323.015625 L 245.945313 323.953125 L 248.199219 324.355469 L 250.617188 324.289063 L 252.96875 323.722656 L 252.421875 325.949219 L 252.328125 328.363281 L 252.96875 331.476563 L 253.152344 334.285156 L 253.898438 336.730469 L 255.085938 338.851563 L 256.6875 340.679688 L 258.636719 342.132813 L 259.292969 342.441406 L 258.378906 342.789063 L 257.507813 342.753906 L 256.035156 341.773438 L 253.664063 338.65625 L 252.601563 338.082031 L 245.550781 339.511719 L 244.589844 338.644531 L 243.40625 338.558594 L 241.210938 339.871094 L 241.886719 340.445313 L 246.324219 340.394531 L 249.617188 339.34375 L 251.976563 339.082031 L 254.382813 342.558594 L 260.535156 347.621094 L 261.804688 348.347656 L 263.304688 351.09375 L 265.636719 353.273438 L 266.714844 353.828125 L 268.023438 356.996094 L 267.828125 357.976563 L 268.117188 361.269531 L 269.3125 364.328125 L 269.210938 365.21875 L 264.953125 369.09375 L 261.394531 373.164063 L 260.601563 374.816406 L 262.84375 374.3125 L 264.9375 375.519531 L 266.9375 378.226563 L 270.21875 378.804688 L 270.625 378.746094 L 271.910156 376.796875 L 272.234375 374.960938 L 273.40625 371.914063 L 274.707031 370.632813 L 277.667969 370.117188 L 281.984375 370.410156 L 283.558594 370.382813 L 284.253906 370.867188 L 286.703125 370.742188 Z M 233.675781 469.242188 L 232.84375 469.851563 L 230.910156 472.238281 L 230.011719 474.242188 L 229.960938 474.269531 L 229.160156 474.433594 L 227.726563 473.148438 L 225.277344 471.820313 L 222.878906 471.261719 L 222.296875 470.886719 L 221.75 470.964844 L 220.734375 470.558594 L 221.476563 469.683594 L 227.316406 466.367188 L 232.550781 467.761719 Z M 169.839844 447.808594 L 167.675781 447.785156 L 165.855469 446.226563 L 166.046875 446.148438 L 167.527344 446.515625 L 169.484375 447.285156 Z M 152.183594 446.554688 L 151.648438 446.878906 L 149.664063 449.054688 L 148.367188 451.519531 L 148.105469 447.519531 L 151.105469 446.613281 Z M 144.316406 455.996094 L 144.191406 456.179688 L 143.285156 458.582031 L 142.925781 461.125 L 143.273438 464.308594 L 144.414063 467.167969 L 143.695313 469.953125 L 143.664063 472.703125 L 141.242188 471.304688 L 138.433594 470.507813 L 135.511719 470.433594 L 132.875 471.027344 L 132.890625 470.964844 L 134.953125 469.339844 L 136.660156 467.167969 L 138.453125 465.703125 L 139.988281 463.808594 L 141.421875 460.65625 L 141.859375 457.21875 L 141.535156 454.980469 L 142.492188 455.105469 L 144.269531 456.015625 Z M 142.875 423.710938 L 144.414063 420.644531 L 146.121094 422.816406 L 148.292969 424.523438 L 148.597656 426.484375 L 147.785156 426.460938 L 143.210938 423.710938 Z M 149.09375 428.566406 L 150.453125 431.277344 L 150.796875 431.65625 L 149.269531 432.308594 L 149.113281 432.746094 L 147.203125 431.632813 L 146.917969 429.308594 L 148.539063 428.378906 Z M 184.386719 357.015625 L 183.183594 358.617188 L 181.210938 357.191406 L 179.277344 356.339844 L 177.679688 353.460938 L 178.242188 352.835938 L 180.867188 352.449219 L 181.503906 352.695313 L 181.914063 353.875 L 182.898438 354.332031 L 184.078125 356.789063 Z M 175.277344 355.71875 L 174.164063 355.722656 L 174.707031 355.261719 Z M 222.117188 289.332031 L 223.300781 291.742188 L 225 293.820313 L 226.464844 294.933594 L 228.636719 298.089844 L 228.15625 298.765625 L 227.179688 301.117188 L 226.738281 303.628906 L 226.875 306.300781 L 224.824219 305.574219 L 222.542969 305.238281 L 220.242188 305.355469 L 218.128906 305.882813 L 220.320313 303.214844 L 221.636719 300.023438 L 222.609375 293.226563 Z M 168.746094 235.355469 L 172.246094 234.601563 L 175.457031 232.738281 L 177.84375 230.070313 L 179.308594 226.800781 L 181.914063 227.394531 L 184.457031 227.394531 L 187.425781 226.683594 L 189.210938 225.847656 L 189.238281 225.953125 L 190.898438 226.824219 L 192.988281 227.191406 L 194.371094 228.648438 L 194.25 229.152344 L 194.242188 229.488281 L 192.117188 231.570313 L 189.460938 232.730469 L 188.34375 232.882813 L 187.070313 232.078125 L 185.40625 232.042969 L 181.046875 235.800781 L 180.578125 237.003906 L 174.761719 240.109375 L 174.195313 239.863281 L 172.84375 238.105469 L 170.996094 236.546875 Z M 198.699219 242.316406 L 200.320313 245.636719 L 202.207031 247.722656 L 204.203125 249.117188 L 206.445313 250.0625 L 208.019531 251.535156 L 209.835938 252.691406 L 209.851563 252.699219 L 212.824219 256.707031 L 213.265625 256.828125 L 213.433594 256.585938 L 214.601563 257.097656 L 217.371094 258.992188 L 218.019531 261.023438 L 217.953125 264.582031 L 216.53125 260.65625 L 213.808594 257.480469 L 210.234375 255.488281 L 206.1875 254.855469 L 204.019531 255.109375 L 201.9375 255.761719 L 198.691406 257.816406 L 195.578125 259.292969 L 192.875 261.820313 L 191.101563 265.070313 L 191.578125 260.921875 L 190.417969 255.207031 L 189.257813 252.675781 L 187.0625 250.0625 L 185.371094 246.910156 L 183.417969 244.886719 L 180.917969 243.339844 L 178.238281 242.488281 L 175.429688 242.308594 L 174.976563 241.347656 L 178.0625 241.875 L 182.921875 243.167969 L 186.398438 241.730469 L 187.519531 239.417969 L 188.617188 238.355469 L 189.539063 238.171875 L 193.183594 238.5 Z M 192.21875 296.441406 L 190.9375 296.585938 L 190.222656 295.917969 Z M 175.429688 319.390625 L 175.429688 315.96875 L 177.726563 317.960938 L 180.457031 319.289063 L 184.183594 319.96875 L 185.363281 319.917969 L 184.742188 320.527344 L 179.199219 323.441406 L 177.335938 322.691406 Z M 187.4375 322.535156 L 187.507813 323.03125 L 187.351563 323.015625 Z M 175.429688 288.832031 L 179.308594 289.496094 L 183.183594 288.832031 L 184.558594 291.542969 L 186.589844 293.804688 L 183.460938 293.148438 L 180.269531 293.367188 L 177.257813 294.449219 L 174.65625 296.308594 L 172.59375 298.917969 L 171.386719 301.878906 L 171.03125 305.058594 L 171.554688 308.214844 L 169.847656 306.046875 L 167.675781 304.339844 L 169.824219 301.984375 L 171.25 299.136719 L 171.859375 295.878906 L 171.660156 293.804688 L 172.554688 291.921875 L 173.722656 291 Z M 172.828125 168.890625 L 175 169.304688 L 178.488281 168.902344 L 176.085938 170.078125 L 174.105469 171.679688 L 172.519531 173.675781 L 171.40625 175.972656 L 169.441406 172.703125 L 166.945313 170.628906 L 167.808594 170.273438 L 170.480469 169.527344 L 170.492188 169.949219 L 171.554688 169.839844 Z M 167.675781 474.921875 L 167.816406 474.898438 L 167.203125 476.179688 L 162.746094 489.226563 L 162.601563 489.308594 L 162.226563 488.957031 L 160.296875 487.742188 L 158.289063 486.960938 L 156.164063 486.574219 L 155.546875 486.101563 L 154.167969 484.851563 L 151.851563 483.546875 L 148.683594 482.773438 L 148.46875 482.535156 L 148.289063 482.546875 L 148.246094 480.757813 L 150.859375 482.234375 L 154.648438 483.355469 L 157.726563 483.425781 L 160.714844 482.6875 L 163.09375 481.414063 L 165.117188 479.628906 L 166.671875 477.425781 Z M 167.675781 358.617188 L 166.410156 357.632813 L 166.609375 357.632813 L 167.339844 357.714844 L 167.515625 357.632813 L 168.945313 357.632813 Z M 142.125 355.414063 L 143.128906 355.839844 L 145.777344 356.28125 L 149.085938 355.972656 L 150.902344 355.246094 L 151.039063 355.578125 L 155.546875 356.503906 L 155.378906 356.773438 L 153.382813 357.667969 L 150.394531 360.59375 L 149.785156 361.878906 L 147.425781 363.976563 L 146.109375 363.875 L 144.21875 361.640625 L 143.855469 359.761719 L 142.527344 357.03125 L 142.082031 356.519531 Z M 149.160156 363.199219 L 148.667969 364.246094 L 147.980469 369.285156 L 148.222656 371.441406 L 148.839844 373.4375 L 145.449219 374.257813 L 143.757813 375.484375 L 142.40625 377.539063 L 141.558594 377.378906 L 139.140625 377.417969 L 136.660156 378 L 138.921875 376.203125 L 142.539063 371.976563 L 142.542969 371.96875 L 142.589844 371.953125 L 147.132813 367.984375 L 147.953125 364.523438 Z M 152.625 378.742188 L 153.875 380.171875 L 156.046875 381.875 L 154.066406 383.992188 L 152.671875 386.53125 L 152.617188 386.382813 L 153.179688 384.597656 L 154.652344 381.796875 Z M 140.683594 321.125 L 140.542969 316.171875 L 142.300781 315.023438 L 144.765625 310.230469 L 145.863281 309.40625 L 148.535156 308.453125 L 148.996094 308.90625 L 148.292969 312.09375 L 145.566406 313.476563 L 143.214844 315.621094 L 141.582031 318.207031 Z M 128.90625 428.398438 L 127.15625 428.398438 L 126.53125 428.132813 L 126.910156 427.265625 Z M 120.769531 483.648438 L 119.890625 485.886719 L 119.597656 488.429688 L 119.984375 491.472656 L 121.152344 494.308594 L 116.707031 494.308594 L 115.984375 493.691406 L 112.253906 492.070313 L 112.121094 492.058594 L 113.398438 490.429688 L 116.445313 488.816406 L 118.8125 486.484375 L 119.855469 484.4375 Z M 110.132813 494.308594 L 109.523438 494.308594 L 110.277344 493.714844 L 110.242188 494.183594 Z M 286.679688 439.636719 L 283.058594 438.976563 L 282.164063 437.605469 L 282.484375 436.070313 L 286.839844 437.054688 L 287.960938 438.832031 Z M 236.835938 466.113281 L 235.136719 465.644531 L 236.523438 463.683594 L 237.195313 464.164063 L 237.5 465.839844 Z M 236.835938 466.113281 "/>
<path style=" stroke:none;fill-rule:nonzero;fill:rgb(80.392157%,58.431373%,4.705882%);fill-opacity:1;" d="M 177.371094 184.152344 L 177.085938 185.949219 L 176.257813 187.570313 L 174.972656 188.859375 L 173.351563 189.683594 L 171.554688 189.96875 L 169.757813 189.683594 L 168.136719 188.859375 L 166.847656 187.570313 L 166.023438 185.949219 L 165.738281 184.152344 L 166.023438 182.355469 L 166.847656 180.734375 L 168.136719 179.449219 L 169.757813 178.625 L 171.554688 178.339844 L 173.351563 178.625 L 174.972656 179.449219 L 176.257813 180.734375 L 177.085938 182.355469 Z M 177.371094 184.152344 "/>
<path style=" stroke:none;fill-rule:nonzero;fill:rgb(80.392157%,58.431373%,4.705882%);fill-opacity:1;" d="M 201.785156 205.351563 L 200.773438 205.191406 L 199.152344 204.367188 L 197.863281 203.078125 L 197.039063 201.457031 L 196.753906 199.660156 L 197.039063 197.863281 L 197.863281 196.242188 L 199.152344 194.957031 L 200.773438 194.128906 L 202.570313 193.847656 L 204.367188 194.128906 L 206.066406 195.035156 L 203.9375 198.859375 L 203.765625 200.121094 L 204.023438 201.304688 L 203.230469 203.472656 Z M 201.785156 205.351563 "/>
<path style=" stroke:none;fill-rule:nonzero;fill:rgb(80.392157%,58.431373%,4.705882%);fill-opacity:1;" d="M 197.222656 212.996094 L 195.273438 212.121094 L 193.988281 210.832031 L 193.160156 209.210938 L 192.875 207.414063 L 193.160156 205.617188 L 193.988281 203.996094 L 195.273438 202.710938 L 196.894531 201.882813 L 198.691406 201.601563 L 200.488281 201.882813 L 202.109375 202.710938 L 203.074219 203.675781 L 200.949219 206.4375 L 199.179688 207.605469 L 197.078125 210.023438 L 197.433594 210.839844 L 197.785156 210.703125 Z M 197.222656 212.996094 "/>
<path style=" stroke:none;fill-rule:nonzero;fill:rgb(80.392157%,58.431373%,4.705882%);fill-opacity:1;" d="M 196.753906 168.644531 L 196.46875 170.441406 L 195.644531 172.0625 L 194.355469 173.351563 L 192.734375 174.175781 L 190.9375 174.460938 L 189.140625 174.175781 L 187.519531 173.351563 L 186.234375 172.0625 L 185.40625 170.441406 L 185.125 168.644531 L 187.675781 167.128906 Z M 196.753906 168.644531 "/>
<path style=" stroke:none;fill-rule:nonzero;fill:rgb(80.392157%,58.431373%,4.705882%);fill-opacity:1;" d="M 164.9375 171.457031 L 163.339844 173.351563 L 161.71875 174.175781 L 159.558594 174.402344 L 161.140625 173.015625 Z M 154.164063 168.992188 L 154.390625 166.847656 L 155.21875 165.226563 L 156.503906 163.941406 L 158.125 163.117188 L 159.921875 162.832031 L 161.71875 163.117188 L 163.339844 163.941406 L 164.394531 164.996094 L 162.722656 166.96875 L 162.175781 167.183594 L 161.726563 166.894531 L 161.859375 165.949219 L 161.53125 165.507813 L 159.984375 165.785156 L 155.320313 167.769531 Z M 157.199219 173.703125 L 155.21875 172.0625 L 154.355469 170.21875 L 156.390625 168.453125 L 157.75 167.980469 L 160.300781 168.324219 L 161.058594 169.320313 Z M 157.199219 173.703125 "/>
<path style=" stroke:none;fill-rule:nonzero;fill:rgb(80.392157%,58.431373%,4.705882%);fill-opacity:1;" d="M 157.984375 397.382813 L 157.699219 399.183594 L 156.875 400.804688 L 155.585938 402.089844 L 153.964844 402.914063 L 152.167969 403.199219 L 150.371094 402.914063 L 148.863281 402.144531 L 152.136719 398.207031 L 153.054688 396.195313 L 154.148438 391.945313 L 155.585938 392.679688 L 156.875 393.964844 L 157.699219 395.585938 Z M 157.984375 397.382813 "/>
<path style=" stroke:none;fill-rule:nonzero;fill:rgb(80.392157%,58.431373%,4.705882%);fill-opacity:1;" d="M 126.96875 261.691406 L 126.9375 261.898438 L 126.582031 261.613281 L 125.84375 258.257813 L 126.683594 259.894531 Z M 121.164063 267.503906 L 119.355469 267.222656 L 117.734375 266.398438 L 116.449219 265.109375 L 115.902344 264.039063 L 117.226563 262.640625 L 117.917969 256.894531 L 119.355469 256.160156 L 121.152344 255.875 L 122.925781 256.15625 L 121.183594 263.964844 L 122.0625 266.289063 Z M 121.164063 267.503906 "/>
<path style=" stroke:none;fill-rule:nonzero;fill:rgb(80.392157%,58.431373%,4.705882%);fill-opacity:1;" d="M 138.601563 277.199219 L 138.316406 278.996094 L 137.488281 280.617188 L 136.203125 281.90625 L 134.582031 282.730469 L 132.785156 283.015625 L 130.988281 282.730469 L 129.878906 282.167969 L 132.777344 280.410156 L 134.003906 276.632813 L 137.242188 273.53125 L 138.316406 275.402344 Z M 138.601563 277.199219 "/>
<path style=" stroke:none;fill-rule:nonzero;fill:rgb(80.392157%,58.431373%,4.705882%);fill-opacity:1;" d="M 157.984375 393.507813 L 157.699219 395.304688 L 156.875 396.925781 L 155.585938 398.210938 L 153.964844 399.039063 L 151.375 399.199219 L 153.054688 396.195313 L 154.199219 391.746094 L 153.734375 388.820313 L 153.246094 387.863281 L 155.585938 388.804688 L 156.875 390.089844 L 157.699219 391.710938 Z M 157.984375 393.507813 "/>
<path style=" stroke:none;fill-rule:nonzero;fill:rgb(80.392157%,58.431373%,4.705882%);fill-opacity:1;" d="M 189.1875 220.222656 L 189 219.046875 L 189.285156 217.25 L 190.109375 215.628906 L 191.398438 214.339844 L 193.019531 213.515625 L 194.816406 213.230469 L 197.003906 213.714844 L 195.867188 215.914063 L 191.214844 219.742188 Z M 189.1875 220.222656 "/>
<path style=" stroke:none;fill-rule:nonzero;fill:rgb(80.392157%,58.431373%,4.705882%);fill-opacity:1;" d="M 130.890625 428.113281 L 131.128906 426.601563 L 131.957031 424.980469 L 133.242188 423.695313 L 134.863281 422.871094 L 136.660156 422.585938 L 138.457031 422.871094 L 140.101563 423.714844 L 136.765625 424.277344 L 136.292969 426.515625 L 135.777344 427.203125 L 133.742188 427.917969 L 132.394531 427.265625 L 131.648438 427.453125 Z M 130.890625 428.113281 "/>
<path style=" stroke:none;fill-rule:nonzero;fill:rgb(80.392157%,58.431373%,4.705882%);fill-opacity:1;" d="M 126.96875 416.769531 L 126.683594 418.566406 L 125.375 420.671875 L 124.929688 417.953125 L 123.328125 417.210938 L 121.445313 417.105469 L 122.0625 415.152344 L 125.882813 413.402344 L 126.683594 414.972656 Z M 126.96875 416.769531 "/>
<path style=" stroke:none;fill-rule:nonzero;fill:rgb(80.392157%,58.431373%,4.705882%);fill-opacity:1;" d="M 165.738281 436.152344 L 165.488281 437.742188 L 161.371094 433.375 L 159.691406 430.375 L 161.71875 430.625 L 163.339844 431.449219 L 164.628906 432.734375 L 165.453125 434.355469 Z M 165.738281 436.152344 "/>
<path style=" stroke:none;fill-rule:nonzero;fill:rgb(80.392157%,58.431373%,4.705882%);fill-opacity:1;" d="M 126.96875 412.890625 L 126.683594 414.6875 L 125.859375 416.308594 L 124.570313 417.597656 L 121.445313 417.105469 L 122.0625 415.152344 L 125.933594 413.378906 L 126.539063 411.90625 L 126.808594 411.882813 Z M 126.96875 412.890625 "/>
<path style=" stroke:none;fill-rule:nonzero;fill:rgb(80.392157%,58.431373%,4.705882%);fill-opacity:1;" d="M 136.210938 448.453125 L 135.929688 448.140625 L 136.109375 446.949219 L 136.398438 446.875 L 136.6875 448.207031 Z M 136.210938 448.453125 "/>
<path style=" stroke:none;fill-rule:nonzero;fill:rgb(80.392157%,58.431373%,4.705882%);fill-opacity:1;" d="M 88.429688 500.046875 L 88.566406 499.308594 L 88.941406 499.117188 L 89.34375 499.789063 Z M 88.429688 500.046875 "/>
</g>
</svg>
