<?xml version="1.0" encoding="UTF-8"?>
<svg xmlns="http://www.w3.org/2000/svg" xmlns:xlink="http://www.w3.org/1999/xlink" width="378pt" height="504pt" viewBox="0 0 378 504" version="1.1">
<g id="data">
<rect x="0" y="0" width="378" height="504" style="fill:rgb(100%,100%,100%);fill-opacity:1;stroke:none;"/>
<path style=" stroke:none;fill-rule:nonzero;fill:rgb(100%,100%,100%);fill-opacity:1;" d="M 53.308594 504 L 324.691406 504 L 324.691406 0 L 53.308594 0 Z M 53.308594 504 "/>
<path style=" stroke:none;fill-rule:nonzero;fill:rgb(22.745098%,53.333333%,16.078431%);fill-opacity:1;" d="M 125.367188 420.628906 L 126.4375 420.660156 L 128.195313 421.3125 L 131.171875 423 L 130.640625 424.257813 L 127.769531 424.613281 L 122.949219 424.152344 L 121.496094 423.164063 L 124.125 421.78125 L 125.167969 421.753906 L 125.464844 421.238281 Z M 131.308594 423.074219 L 131.566406 423.222656 L 134.332031 422.960938 L 136.5 422.007813 L 137.894531 420.675781 L 139.21875 418.035156 L 140.367188 416.472656 L 141.960938 415.375 L 143.832031 414.859375 L 145.765625 414.988281 L 147.550781 415.75 L 148.988281 417.050781 L 150.261719 418.675781 L 151.886719 419.953125 L 153.3125 421.585938 L 154.039063 423.625 L 154.453125 426.273438 L 155.304688 427.976563 L 156.058594 428.816406 L 156.941406 429.441406 L 155.65625 429.589844 L 149.269531 432.308594 L 149.113281 432.746094 L 147.203125 431.632813 L 146.917969 429.308594 L 148.539063 428.378906 L 150.066406 428.890625 L 151.640625 428.421875 L 152.765625 427.832031 L 153.085938 427.097656 L 152.808594 426.597656 L 147.785156 426.460938 L 143.210938 423.710938 L 139.503906 423.714844 L 136.765625 424.277344 L 136.292969 426.515625 L 135.777344 427.203125 L 133.742188 427.917969 L 132.394531 427.265625 L 131.648438 427.453125 L 129.4375 429.378906 L 126.53125 428.132813 L 127.425781 426.082031 L 128.796875 425.832031 L 131.792969 424.328125 Z M 159.625 430.257813 L 160.628906 430.382813 L 163.085938 431.273438 L 165.332031 432.730469 L 167.21875 433.242188 L 168.125 433.257813 L 168.9375 433.117188 L 171.25 432.007813 L 172.050781 431.277344 L 172.730469 430.328125 L 173.238281 429.160156 L 173.597656 427.296875 L 174.140625 425.734375 L 175.101563 424.386719 L 176.402344 423.363281 L 178.894531 421.925781 L 180.113281 420.539063 L 180.792969 418.988281 L 181.003906 417.242188 L 180.878906 416.230469 L 180.515625 415.140625 L 179.945313 414.144531 L 178.808594 412.84375 L 177.804688 411.226563 L 177.378906 409.375 L 177.574219 407.480469 L 178.371094 405.753906 L 179.710938 403.773438 L 180.210938 402.269531 L 180.28125 400.707031 L 179.886719 399.074219 L 179.109375 397.714844 L 177.992188 396.613281 L 176.515625 395.816406 L 174.195313 395.3125 L 172.628906 394.726563 L 171.292969 393.714844 L 170.300781 392.367188 L 169.730469 390.789063 L 169.304688 388.6875 L 168.304688 386.644531 L 167.789063 385.035156 L 167.757813 383.34375 L 168.214844 381.71875 L 169.121094 380.289063 L 171.027344 378.078125 L 172.3125 376.96875 L 173.867188 376.273438 L 175.558594 376.0625 L 177.234375 376.347656 L 178.757813 377.109375 L 179.996094 378.277344 L 181.078125 379.648438 L 181.890625 380.34375 L 182.832031 380.886719 L 183.859375 381.242188 L 184.9375 381.398438 L 186.023438 381.355469 L 187.082031 381.105469 L 188.574219 380.441406 L 190.421875 379.960938 L 192.320313 380.105469 L 194.074219 380.855469 L 195.488281 382.132813 L 196.945313 383.964844 L 200.164063 386.742188 L 201.367188 387.457031 L 202.574219 387.851563 L 203.957031 387.984375 L 207.324219 387.710938 L 209.726563 387.019531 L 210.90625 386.242188 L 211.914063 385.09375 L 212.59375 383.707031 L 212.878906 382.253906 L 212.808594 380.796875 L 211.929688 377.035156 L 211.265625 375.71875 L 209.828125 374.082031 L 208.898438 372.636719 L 208.429688 370.980469 L 208.46875 369.261719 L 208.964844 366.371094 L 208.46875 363.476563 L 208.433594 361.753906 L 208.902344 360.097656 L 209.835938 358.648438 L 211.152344 357.539063 L 212.738281 356.863281 L 214.453125 356.683594 L 220.769531 356.957031 L 223.039063 356.480469 L 223.886719 356.050781 L 224.800781 355.328125 L 225.753906 354.226563 L 226.234375 353.394531 L 226.773438 351.316406 L 226.585938 349.300781 L 225.714844 347.488281 L 224.144531 345.960938 L 223.121094 345.429688 L 221.609375 345.046875 L 219.863281 344.886719 L 210.421875 345.046875 L 208.695313 344.8125 L 207.125 344.355469 L 206.285156 344.277344 L 204.074219 344.667969 L 202.1875 345.789063 L 201.136719 347.03125 L 200.148438 349.300781 L 199.398438 350.5625 L 198.359375 351.59375 L 196.921875 352.703125 L 195.46875 354.503906 L 194.632813 355.355469 L 192.648438 356.984375 L 191.710938 358.234375 L 190.65625 359.308594 L 189.03125 360.585938 L 187.753906 362.210938 L 186.460938 363.417969 L 184.863281 364.183594 L 183.109375 364.429688 L 181.359375 364.136719 L 179.78125 363.332031 L 178.304688 362.265625 L 177.195313 361.777344 L 176.011719 361.53125 L 174.1875 361.539063 L 173.285156 361.402344 L 172.511719 362.222656 L 171.246094 363.207031 L 169.5625 364.117188 L 167.675781 364.429688 L 165.789063 364.117188 L 164.109375 363.207031 L 162.839844 362.222656 L 162.082031 361.414063 L 161.582031 361.523438 L 158.539063 361.730469 L 156.707031 362.550781 L 155.207031 364.019531 L 154.308594 365.921875 L 153.839844 369.351563 L 153.941406 370.246094 L 154.203125 371.09375 L 155.5 373.191406 L 157.894531 375.933594 L 159.640625 377.304688 L 160.933594 378.722656 L 161.691406 380.484375 L 161.839844 382.398438 L 161.355469 384.253906 L 160.292969 385.847656 L 158.8125 387.433594 L 157.769531 389.332031 L 156.59375 390.828125 L 154.996094 391.863281 L 154.113281 392.085938 L 154.199219 391.746094 L 153.734375 388.820313 L 152.566406 386.542969 L 153.179688 384.597656 L 154.652344 381.796875 L 152.269531 378.203125 L 152.683594 374.835938 L 153.175781 374.082031 L 152.804688 373.207031 L 150.203125 373.105469 L 145.449219 374.257813 L 143.757813 375.484375 L 142.039063 378.097656 L 136.757813 378.433594 L 136.246094 378.0625 L 137.339844 376.066406 L 140.148438 373.019531 L 141.023438 372.414063 L 142.589844 371.953125 L 147.132813 367.984375 L 147.953125 364.523438 L 151.550781 360.582031 L 153.09375 359.609375 L 154.941406 359.808594 L 160.492188 357.457031 L 163.644531 357.28125 L 167.339844 357.714844 L 172.597656 355.179688 L 173.933594 355.046875 L 174.484375 355.082031 L 179.910156 359.441406 L 180.433594 358.429688 L 177.679688 353.460938 L 178.242188 352.835938 L 180.867188 352.449219 L 181.503906 352.695313 L 181.914063 353.875 L 182.898438 354.332031 L 184.078125 356.789063 L 185.613281 357.902344 L 188.359375 357.621094 L 190.335938 355.148438 L 189.90625 355.050781 L 188.667969 355.527344 L 188.3125 355.957031 L 186.378906 356.386719 L 183.8125 354.640625 L 179.976563 346.332031 L 182.535156 341.753906 L 183.207031 341.902344 L 184.972656 341.75 L 186.605469 341.0625 L 188.003906 339.867188 L 188.859375 338.550781 L 189.921875 335.621094 L 190.085938 334.148438 L 189.753906 331.878906 L 189.769531 330.085938 L 190.328125 328.386719 L 190.773438 327.769531 L 190.285156 328.140625 L 188.632813 328.738281 L 186.882813 328.8125 L 184.957031 328.605469 L 187.28125 323.421875 L 187.71875 320.933594 L 187.855469 317.484375 L 184.742188 320.527344 L 179.199219 323.441406 L 177.335938 322.691406 L 172.851563 314.925781 L 172.289063 311.832031 L 167.40625 304.652344 L 169.164063 299.058594 L 174.074219 288.722656 L 176.464844 286.417969 L 178.757813 285.980469 L 180.191406 286.804688 L 181.015625 286.710938 L 182.933594 286.238281 L 183.03125 285.160156 L 182.34375 284.746094 L 180.035156 285.351563 L 174.65625 284.980469 L 172.566406 284.292969 L 171.980469 284.242188 L 172.410156 283.863281 L 174.34375 283.117188 L 176.414063 283.097656 L 179.308594 283.59375 L 182.203125 283.097656 L 184.042969 283.078125 L 185.796875 283.636719 L 187.289063 284.710938 L 188.371094 286.199219 L 189.398438 288.230469 L 190.917969 289.921875 L 191.125 290.242188 L 191.695313 290.292969 L 193.691406 290.816406 L 195.328125 291.527344 L 196.671875 292.703125 L 197.597656 294.230469 L 198.015625 295.964844 L 197.886719 297.746094 L 197.222656 299.402344 L 196.089844 300.78125 L 194.589844 301.75 L 192.867188 302.21875 L 191.589844 302.363281 L 189.921875 302.3125 L 188.339844 301.789063 L 186.972656 300.839844 L 186.257813 300.171875 L 185.753906 299.515625 L 185.394531 299.496094 L 183.054688 299.003906 L 181.472656 299.113281 L 179.984375 299.648438 L 178.695313 300.570313 L 177.714844 301.796875 L 177.074219 303.347656 L 176.898438 304.902344 L 177.289063 307.261719 L 177.289063 309.171875 L 176.863281 310.410156 L 177.632813 310.585938 L 179.242188 311.578125 L 180.957031 313.066406 L 182.285156 313.710938 L 184.585938 314.132813 L 186.808594 314.035156 L 188.511719 314.214844 L 190.085938 314.878906 L 191.398438 315.972656 L 192.339844 317.402344 L 192.820313 319.042969 L 193.265625 322.226563 L 193.242188 323.984375 L 192.699219 325.652344 L 192.234375 326.308594 L 192.820313 325.875 L 194.519531 325.300781 L 196.308594 325.273438 L 199.496094 325.71875 L 201.574219 326.425781 L 203.238281 327.851563 L 204.378906 329.277344 L 205.316406 330.046875 L 206.378906 330.597656 L 207.46875 330.890625 L 209.527344 330.859375 L 212.222656 329.882813 L 214.726563 329.5625 L 217.175781 329.785156 L 218.90625 329.433594 L 220.207031 328.753906 L 221.886719 327.203125 L 223.308594 326.238281 L 226.382813 324.757813 L 227.003906 324.207031 L 227.617188 323.410156 L 228.25 322.070313 L 228.535156 320.664063 L 228.488281 319.320313 L 227.785156 316.207031 L 227.65625 314.515625 L 228.019531 312.859375 L 228.589844 311.84375 L 226.804688 312.117188 L 224.9375 311.78125 L 223.414063 311.246094 L 222.25 311.070313 L 221.199219 311.121094 L 219.503906 311.53125 L 217.703125 311.683594 L 215.941406 311.269531 L 214.394531 310.339844 L 213.203125 308.976563 L 212.492188 307.3125 L 212.324219 305.511719 L 212.71875 303.746094 L 213.636719 302.1875 L 215.277344 300.195313 L 215.980469 298.480469 L 216.738281 293.175781 L 216.347656 290.054688 L 216.40625 288.25 L 217.015625 286.546875 L 218.117188 285.113281 L 219.609375 284.085938 L 221.339844 283.570313 L 222.777344 283.601563 L 222.984375 284.039063 L 223.773438 285.027344 L 225.945313 294.183594 L 229.304688 299.0625 L 233.640625 301.085938 L 233.277344 301.601563 L 232.804688 302.742188 L 232.574219 304.082031 L 232.683594 305.96875 L 232.480469 307.859375 L 231.769531 309.386719 L 233.238281 309.113281 L 234.925781 309.296875 L 238.929688 310.34375 L 240.554688 311.042969 L 241.890625 312.203125 L 242.820313 313.707031 L 243.535156 315.402344 L 244.175781 316.332031 L 244.988281 317.117188 L 246.027344 317.777344 L 247.480469 318.320313 L 248.632813 318.523438 L 249.851563 318.492188 L 251.449219 318.109375 L 252.390625 319.148438 L 256.121094 320.875 L 257.207031 321.722656 L 254.738281 323.09375 L 253.890625 324.554688 L 253.765625 325.996094 L 254.984375 329.992188 L 256.160156 332.453125 L 263.316406 342.46875 L 263.640625 343.980469 L 262.804688 345.191406 L 263.28125 343.65625 L 262.507813 342.839844 L 260.445313 342 L 258.378906 342.789063 L 257.507813 342.753906 L 256.035156 341.773438 L 253.664063 338.65625 L 252.601563 338.082031 L 245.550781 339.511719 L 244.589844 338.644531 L 243.40625 338.558594 L 241.210938 339.871094 L 241.886719 340.445313 L 246.324219 340.394531 L 249.617188 339.34375 L 251.976563 339.082031 L 254.382813 342.558594 L 260.535156 347.621094 L 263.042969 349.058594 L 263.664063 349.039063 L 266.046875 352.214844 L 268.980469 359.304688 L 269.535156 362.402344 L 269.210938 365.21875 L 264.953125 369.09375 L 261.394531 373.164063 L 260.601563 374.816406 L 262.84375 374.3125 L 264.9375 375.519531 L 266.9375 378.226563 L 270.21875 378.804688 L 270.625 378.746094 L 271.910156 376.796875 L 272.234375 374.960938 L 273.40625 371.914063 L 274.707031 370.632813 L 277.851563 370.085938 L 283.34375 370.234375 L 284.253906 370.867188 L 286.703125 370.742188 L 293.949219 371.515625 L 296.914063 372.84375 L 304.070313 378.085938 L 305.367188 380.105469 L 306.730469 384.164063 L 307.179688 391.25 L 306.777344 393.191406 L 306.890625 393.976563 L 305.789063 396.917969 L 303.519531 407.832031 L 297.144531 414.53125 L 295.578125 412.011719 L 292.742188 410.515625 L 292.480469 410.636719 L 293.898438 413.703125 L 295.890625 416.628906 L 296.3125 416.765625 L 296.164063 417.742188 L 294.574219 419.804688 L 292.191406 421.289063 L 290.003906 421.65625 L 289.660156 421.574219 L 288.214844 419.332031 L 284.976563 421.730469 L 280.71875 424.230469 L 282.339844 425.378906 L 285.105469 424.398438 L 286.097656 423.375 L 286.894531 423.164063 L 287.328125 423.710938 L 287.632813 428.84375 L 285.6875 430.875 L 283.441406 432.558594 L 282.84375 432.699219 L 279.644531 432.160156 L 274.75 433.78125 L 272.609375 436.117188 L 274.253906 436.015625 L 275.152344 434.667969 L 276.683594 434.363281 L 278.285156 434.328125 L 281.054688 434.949219 L 281.828125 435.589844 L 281.691406 436.328125 L 279.554688 436.347656 L 277.390625 437.65625 L 277.96875 438.546875 L 281.382813 438.964844 L 286.863281 440.339844 L 289.394531 439.9375 L 291.074219 438.957031 L 299 437.863281 L 299.894531 438.050781 L 300.988281 440.148438 L 300.773438 446.324219 L 300.335938 447.820313 L 299.394531 449.050781 L 296.972656 450.242188 L 295.839844 450.375 L 292.621094 451.640625 L 291.179688 452.742188 L 289.847656 454.226563 L 289.460938 455.09375 L 289.214844 456.324219 L 289.464844 457.886719 L 286.253906 458.289063 L 284.1875 457.9375 L 281.042969 460.90625 L 278.484375 461.933594 L 274.789063 462.777344 L 272.597656 463.816406 L 270.539063 466.589844 L 269.761719 466.949219 L 259.269531 463.777344 L 256.070313 463.507813 L 244.628906 465.699219 L 242.703125 466.390625 L 242.113281 466.964844 L 241.902344 467.984375 L 241.359375 468.164063 L 238.210938 466.1875 L 238.632813 465.4375 L 239.46875 464.933594 L 237.714844 463.296875 L 231.496094 463.171875 L 231.378906 463.496094 L 232.574219 464.835938 L 232.214844 465.75 L 231.738281 466.042969 L 226.691406 465.496094 L 219.566406 468.449219 L 217.054688 467.824219 L 210.222656 468.96875 L 208.164063 468.875 L 207.273438 468.058594 L 206.238281 469.769531 L 209.429688 471.089844 L 209.714844 470.9375 L 210.1875 472.128906 L 209.566406 473.890625 L 206.84375 474.453125 L 204.453125 473.097656 L 203.015625 472.699219 L 197.625 472.007813 L 196.175781 472.65625 L 195.679688 473.863281 L 195.832031 474.871094 L 196.757813 475.523438 L 196.488281 476.304688 L 195.917969 475.996094 L 194.851563 473.972656 L 190.289063 470.589844 L 185.898438 468.519531 L 183.121094 467.984375 L 181.648438 469.066406 L 176.207031 469.78125 L 174.339844 470.335938 L 168.992188 473.234375 L 168.214844 474.070313 L 167.203125 476.179688 L 162.746094 489.226563 L 160.929688 490.242188 L 158.269531 489.722656 L 157.554688 489.058594 L 156.527344 486.851563 L 154.683594 485.4375 L 153.613281 485.542969 L 152.417969 486.300781 L 151.738281 486.164063 L 148.46875 482.535156 L 142.796875 482.960938 L 142.523438 483.050781 L 142.480469 482.820313 L 142.429688 480.902344 L 142.648438 479.167969 L 142.992188 478.421875 L 142.355469 478.371094 L 140.757813 477.738281 L 138.960938 476.703125 L 137.550781 476.300781 L 136.085938 476.265625 L 134.058594 476.71875 L 132.328125 476.84375 L 130.636719 476.449219 L 129.140625 475.578125 L 127.964844 474.300781 L 127.628906 473.59375 L 128.386719 473.238281 L 132.105469 472.640625 L 132.679688 471.785156 L 133.257813 469.527344 L 135.859375 467.5625 L 138.636719 464.640625 L 139.128906 458.542969 L 139.796875 454.753906 L 142.492188 455.105469 L 144.269531 456.015625 L 145.761719 455.429688 L 148.429688 452.488281 L 148.105469 447.519531 L 151.105469 446.613281 L 157.421875 446.269531 L 159.910156 445.683594 L 164.597656 446.761719 L 166.046875 446.148438 L 167.527344 446.515625 L 169.484375 447.285156 L 170.039063 448.109375 L 170.757813 448.421875 L 173.15625 448.464844 L 180.570313 447.503906 L 181.109375 445.632813 L 181.210938 443.15625 L 182.519531 440.25 L 190.867188 432.195313 L 195.792969 425.3125 L 197.929688 424.472656 L 198.285156 423.78125 L 198.070313 423.238281 L 197.8125 423.082031 L 196.09375 424.355469 L 192.90625 427.300781 L 190.570313 429.988281 L 189.222656 431.449219 L 185.628906 432.957031 L 183.714844 433.246094 L 182.441406 433.0625 L 178.394531 435.230469 L 177.398438 436.808594 L 177.039063 438.671875 L 176.445313 439.273438 L 174.058594 439.917969 L 170.558594 439.851563 L 166.820313 439 L 166.347656 438.652344 L 161.371094 433.375 Z M 148.925781 475.039063 L 149.472656 475.074219 L 151.105469 475.695313 L 153.144531 476.847656 L 155.554688 477.558594 L 157.085938 477.59375 L 158.613281 477.214844 L 159.753906 476.605469 L 160.757813 475.71875 L 161.527344 474.625 L 162.28125 472.753906 L 163.308594 471.085938 L 164.828125 469.855469 L 166.671875 469.195313 L 168.25 468.917969 L 169.75 468.355469 L 169.984375 468.304688 L 170.179688 468.046875 L 171.363281 466.886719 L 172.835938 465.84375 L 174.46875 465.027344 L 175.425781 464.265625 L 176.140625 463.40625 L 176.703125 462.351563 L 177.070313 461.019531 L 177.125 459.761719 L 176.902344 458.523438 L 176.4375 457.441406 L 174.589844 455.226563 L 172.902344 454.113281 L 171.226563 453.644531 L 167.605469 453.597656 L 165.628906 453.226563 L 163.894531 452.203125 L 162.4375 450.957031 L 161.3125 450.359375 L 160.101563 450.027344 L 158.878906 449.980469 L 156.957031 450.441406 L 155.394531 451.402344 L 154.464844 452.421875 L 153.4375 454.371094 L 152.042969 456.105469 L 150.285156 457.589844 L 149.378906 458.898438 L 148.953125 460.03125 L 148.78125 461.230469 L 148.945313 462.796875 L 149.828125 465.042969 L 150.222656 466.832031 L 150.035156 468.65625 L 149.515625 470.632813 L 149.480469 472.800781 L 149.195313 474.496094 Z M 167.308594 288.855469 L 167.957031 288.136719 L 168.554688 287.667969 L 168.226563 288.992188 Z M 166.050781 240.507813 L 164.625 239.460938 L 163.582031 238.03125 L 163.015625 236.355469 L 162.980469 234.585938 L 163.476563 232.886719 L 164.464844 231.417969 L 165.84375 230.3125 L 167.492188 229.675781 L 170.214844 229.074219 L 171.726563 228.1875 L 172.90625 226.867188 L 174 224.425781 L 175.109375 222.773438 L 176.710938 221.597656 L 178.617188 221.027344 L 180.605469 221.128906 L 182.441406 221.550781 L 177.804688 225.21875 L 178.117188 225.714844 L 179.84375 225.195313 L 184.609375 222.886719 L 186.457031 221.386719 L 187.289063 221.316406 L 189.085938 221.875 L 189.332031 222.921875 L 188.898438 224.691406 L 189.238281 225.953125 L 190.898438 226.824219 L 192.988281 227.191406 L 194.445313 228.726563 L 194.429688 229.304688 L 192.117188 231.570313 L 189.460938 232.730469 L 188.34375 232.882813 L 187.070313 232.078125 L 185.40625 232.042969 L 181.046875 235.800781 L 180.578125 237.003906 L 174.761719 240.109375 L 170.214844 238.117188 L 166.480469 238.003906 L 166.738281 239.222656 L 168.246094 240.195313 L 178.0625 241.875 L 182.921875 243.167969 L 186.398438 241.730469 L 187.519531 239.417969 L 188.617188 238.355469 L 189.539063 238.171875 L 193.183594 238.5 L 199.339844 242.761719 L 206.488281 246.65625 L 208.910156 251.429688 L 212.824219 256.707031 L 213.265625 256.828125 L 213.433594 256.585938 L 214.601563 257.097656 L 217.371094 258.992188 L 218.679688 263.09375 L 218.894531 265.933594 L 218.261719 267.402344 L 218.863281 270.253906 L 218.015625 270.394531 L 216.246094 270.140625 L 214.640625 269.359375 L 213.347656 268.128906 L 212.484375 266.5625 L 211.425781 263.636719 L 210.070313 262.054688 L 208.308594 261.074219 L 206.074219 260.722656 L 205.238281 260.820313 L 204.402344 261.085938 L 201.800781 262.730469 L 201.1875 263.070313 L 198.890625 264.160156 L 197.53125 265.429688 L 196.207031 267.855469 L 195.128906 269.261719 L 193.679688 270.28125 L 191.988281 270.816406 L 190.210938 270.816406 L 188.519531 270.28125 L 187.070313 269.257813 L 185.996094 267.847656 L 185.394531 266.179688 L 185.324219 264.40625 L 185.695313 261.171875 L 184.855469 257.023438 L 184.300781 255.816406 L 182.605469 253.800781 L 181.9375 252.8125 L 180.628906 250.371094 L 179.726563 249.4375 L 178.558594 248.703125 L 177.140625 248.246094 L 175.054688 248.109375 L 173.0625 247.621094 L 171.367188 246.46875 L 170.175781 244.796875 L 169.40625 243.175781 L 168.625 242.160156 L 167.640625 241.339844 Z M 185.808594 221.019531 L 186.535156 220.679688 L 188.136719 219.277344 L 189.578125 216.703125 L 190.675781 215.304688 L 192.144531 214.296875 L 193.851563 213.785156 L 195.632813 213.816406 L 196.847656 214.222656 L 196.796875 214.386719 L 195.867188 215.914063 L 191.214844 219.742188 Z M 184.234375 168.984375 L 184.203125 169.976563 L 183.597656 171.675781 L 182.5 173.113281 L 181.015625 174.140625 L 179.296875 174.96875 L 178.304688 175.753906 L 177.515625 176.726563 L 176.625 178.535156 L 175.613281 179.988281 L 174.210938 181.066406 L 172.550781 181.671875 L 170.785156 181.753906 L 169.074219 181.296875 L 167.582031 180.351563 L 166.441406 179 L 164.902344 176.472656 L 162.714844 174.675781 L 161.472656 173.257813 L 161.339844 172.933594 L 167.808594 170.273438 L 170.480469 169.527344 L 170.492188 169.949219 L 171.554688 169.839844 L 173.589844 168.316406 L 174.046875 166.78125 L 178.648438 166.167969 L 179.285156 167.089844 L 180.148438 167.667969 Z M 160.632813 169.800781 L 160.621094 169.632813 L 160.796875 168.972656 L 161.058594 169.320313 Z M 161.730469 166.859375 L 162.144531 166.230469 L 163.636719 165.074219 L 164.617188 164.734375 L 162.722656 166.96875 L 162.175781 167.183594 L 161.726563 166.894531 Z M 125.683594 474.5 L 126.871094 475.953125 L 127.539063 477.816406 L 127.546875 479.796875 L 126.886719 483.65625 L 126.566406 484.804688 L 125.582031 487.308594 L 125.453125 488.394531 L 125.65625 489.96875 L 125.695313 490.070313 L 124.039063 490.597656 L 123.132813 494.289063 L 123.664063 495.292969 L 123.496094 496.125 L 122.722656 496.945313 L 120.660156 497.648438 L 119.628906 499.730469 L 118.675781 498.910156 L 117.96875 497.691406 L 118.09375 496.4375 L 117.15625 494.691406 L 115.984375 493.691406 L 112.253906 492.070313 L 111.410156 491.984375 L 110.375 492.488281 L 110.242188 494.183594 L 109.421875 495.128906 L 106.824219 495.664063 L 105.398438 494.824219 L 105.628906 491.574219 L 106.074219 490.5625 L 111.738281 488.078125 L 112.199219 488.253906 L 112.445313 488.9375 L 113.574219 489.15625 L 118.144531 485.910156 L 121.425781 483.085938 L 124.375 479.769531 L 125.210938 477.886719 L 124.875 476.421875 L 125.640625 474.519531 Z M 147.425781 363.976563 L 146.109375 363.875 L 144.195313 361.613281 L 142.050781 357.363281 L 142.246094 352.273438 L 144.664063 351.183594 L 146.003906 350.957031 L 149.566406 352.007813 L 151.039063 355.578125 L 155.546875 356.503906 L 154.066406 358.859375 L 150.984375 360.816406 Z M 141.734375 358.875 L 141.003906 358.070313 L 139.230469 356.960938 L 138.828125 356.035156 L 139.253906 355.210938 L 140.597656 355.164063 L 141.484375 356.3125 L 142.226563 358.1875 Z M 137.933594 323.433594 L 137.675781 322.921875 L 139.816406 316.644531 L 142.300781 315.023438 L 144.765625 310.230469 L 145.863281 309.40625 L 149.046875 308.269531 L 150.203125 313.453125 L 147.847656 318.148438 L 145.3125 320.636719 L 141.859375 323.019531 L 139.824219 322.464844 Z M 286.679688 439.636719 L 283.058594 438.976563 L 282.164063 437.605469 L 282.484375 436.070313 L 286.839844 437.054688 L 287.960938 438.832031 Z M 136.210938 448.453125 L 135.929688 448.140625 L 136.109375 446.949219 L 136.398438 446.875 L 136.6875 448.207031 Z M 236.835938 466.113281 L 235.136719 465.644531 L 236.523438 463.683594 L 237.195313 464.164063 L 237.5 465.839844 Z M 228.117188 474.644531 L 222.296875 470.886719 L 220.207031 471.1875 L 221.476563 469.683594 L 227.316406 466.367188 L 232.550781 467.761719 L 234.171875 469.894531 L 231.242188 473.621094 L 229.960938 474.269531 Z M 228.117188 474.644531 "/>
<path style=" stroke:none;fill-rule:nonzero;fill:rgb(80.392157%,58.431373%,4.705882%);fill-opacity:1;" d="M 201.785156 205.351563 L 200.773438 205.191406 L 199.152344 204.367188 L 197.863281 203.078125 L 197.039063 201.457031 L 196.753906 199.660156 L 197.039063 197.863281 L 197.863281 196.242188 L 199.152344 194.957031 L 200.773438 194.128906 L 202.570313 193.847656 L 204.367188 194.128906 L 205.988281 194.957031 L 206.066406 195.035156 L 203.9375 198.859375 L 203.765625 200.121094 L 204.023438 201.304688 L 203.230469 203.472656 Z M 201.785156 205.351563 "/>
<path style=" stroke:none;fill-rule:nonzero;fill:rgb(80.392157%,58.431373%,4.705882%);fill-opacity:1;" d="M 197.222656 212.996094 L 196.894531 212.945313 L 195.273438 212.121094 L 193.988281 210.832031 L 193.160156 209.210938 L 192.875 207.414063 L 193.160156 205.617188 L 193.988281 203.996094 L 195.273438 202.710938 L 196.894531 201.882813 L 198.691406 201.601563 L 200.488281 201.882813 L 202.109375 202.710938 L 203.074219 203.675781 L 200.949219 206.4375 L 199.179688 207.605469 L 197.078125 210.023438 L 197.433594 210.839844 L 197.785156 210.703125 L 197.761719 211.238281 Z M 197.222656 212.996094 "/>
<path style=" stroke:none;fill-rule:nonzero;fill:rgb(80.392157%,58.431373%,4.705882%);fill-opacity:1;" d="M 196.753906 168.644531 L 196.46875 170.441406 L 195.644531 172.0625 L 194.355469 173.351563 L 192.734375 174.175781 L 190.9375 174.460938 L 189.140625 174.175781 L 187.519531 173.351563 L 186.234375 172.0625 L 185.40625 170.441406 L 185.125 168.644531 L 185.136719 168.550781 L 187.675781 167.128906 L 196.746094 168.597656 Z M 196.753906 168.644531 "/>
<path style=" stroke:none;fill-rule:nonzero;fill:rgb(80.392157%,58.431373%,4.705882%);fill-opacity:1;" d="M 126.96875 261.691406 L 126.9375 261.898438 L 126.582031 261.613281 L 125.84375 258.257813 L 125.859375 258.273438 L 126.683594 259.894531 Z M 121.164063 267.503906 L 121.152344 267.507813 L 119.355469 267.222656 L 117.734375 266.398438 L 116.449219 265.109375 L 115.902344 264.039063 L 117.226563 262.640625 L 117.917969 256.894531 L 119.355469 256.160156 L 121.152344 255.875 L 122.925781 256.15625 L 121.183594 263.964844 L 122.0625 266.289063 Z M 121.164063 267.503906 "/>
<path style=" stroke:none;fill-rule:nonzero;fill:rgb(80.392157%,58.431373%,4.705882%);fill-opacity:1;" d="M 138.601563 277.199219 L 138.316406 278.996094 L 137.488281 280.617188 L 136.203125 281.90625 L 134.582031 282.730469 L 132.785156 283.015625 L 130.988281 282.730469 L 129.878906 282.167969 L 132.777344 280.410156 L 134.003906 276.632813 L 137.242188 273.53125 L 137.488281 273.78125 L 138.316406 275.402344 Z M 138.601563 277.199219 "/>
<path style=" stroke:none;fill-rule:nonzero;fill:rgb(80.392157%,58.431373%,4.705882%);fill-opacity:1;" d="M 126.96875 412.890625 L 126.683594 414.6875 L 125.859375 416.308594 L 124.570313 417.597656 L 124.375 417.695313 L 123.328125 417.210938 L 121.445313 417.105469 L 122.0625 415.152344 L 125.933594 413.378906 L 126.539063 411.90625 L 126.808594 411.882813 Z M 126.96875 412.890625 "/>
<path style=" stroke:none;fill-rule:nonzero;fill:rgb(80.392157%,58.431373%,4.705882%);fill-opacity:1;" d="M 88.429688 500.046875 L 88.566406 499.308594 L 88.941406 499.117188 L 89.34375 499.789063 Z M 88.429688 500.046875 "/>
</g>
</svg>
