<?xml version="1.0" encoding="UTF-8"?>
<svg xmlns="http://www.w3.org/2000/svg" xmlns:xlink="http://www.w3.org/1999/xlink" width="378pt" height="504pt" viewBox="0 0 378 504" version="1.1">
<g id="data">
<rect x="0" y="0" width="378" height="504" style="fill:rgb(100%,100%,100%);fill-opacity:1;stroke:none;"/>
<path style=" stroke:none;fill-rule:nonzero;fill:rgb(100%,100%,100%);fill-opacity:1;" d="M 53.308594 504 L 324.691406 504 L 324.691406 0 L 53.308594 0 Z M 53.308594 504 "/>
<path style=" stroke:none;fill-rule:nonzero;fill:rgb(22.745098%,53.333333%,16.078431%);fill-opacity:1;" d="M 225.832031 315.96875 L 227.171875 317.691406 L 228.8125 319.132813 L 230.695313 320.242188 L 232.875 321.007813 L 235.035156 321.324219 L 237.21875 321.234375 L 239.34375 320.734375 L 241.339844 319.847656 L 239.808594 321.382813 L 238.527344 323.292969 L 237.644531 325.414063 L 237.214844 327.539063 L 237.183594 329.710938 L 237.691406 333.777344 L 238.324219 335.867188 L 239.332031 337.804688 L 241.144531 339.96875 L 243.539063 341.695313 L 246.164063 342.734375 L 249.09375 343.109375 L 249.917969 345.269531 L 251.238281 347.324219 L 252.957031 349.054688 L 254.996094 350.394531 L 257.398438 351.308594 L 259.8125 351.667969 L 262.25 351.519531 L 264.601563 350.863281 L 264.339844 354.671875 L 265.324219 358.359375 L 266.707031 360.65625 L 268.476563 362.492188 L 269.335938 364.117188 L 269.210938 365.21875 L 266.738281 367.46875 L 266.203125 367.058594 L 262.554688 365.839844 L 258.710938 365.875 L 254.757813 367.34375 L 251.59375 370.113281 L 249.617188 373.828125 L 249.09375 378 L 245.214844 377.335938 L 241.339844 378 L 242.367188 375.65625 L 242.867188 373.015625 L 242.769531 370.460938 L 242.066406 367.867188 L 240.390625 364.128906 L 238.65625 361.75 L 236.378906 359.886719 L 233.585938 358.617188 L 231.878906 356.445313 L 229.707031 354.738281 L 230.59375 352.742188 L 231.09375 350.617188 L 231.1875 348.4375 L 230.871094 346.277344 L 230.15625 344.210938 L 229.070313 342.320313 L 227.644531 340.664063 L 225.832031 339.230469 L 227.910156 336.632813 L 229.167969 333.554688 L 229.496094 330.113281 L 228.84375 326.851563 L 227.726563 324.546875 L 226.128906 322.539063 L 224.242188 321.003906 L 221.953125 319.847656 L 220.976563 317.546875 L 219.527344 315.507813 L 223.078125 316.101563 Z M 277.792969 370.09375 L 278.1875 370.195313 L 281.984375 370.410156 L 283.570313 370.390625 L 284.253906 370.867188 L 286.703125 370.742188 L 293.949219 371.515625 L 296.214844 372.53125 L 296.640625 374.15625 L 298.941406 377.476563 L 300.867188 379.316406 L 302.769531 380.570313 L 305.003906 381.46875 L 305.878906 381.628906 L 306.730469 384.164063 L 306.945313 387.511719 L 306.582031 389.628906 L 306.992188 392.148438 L 306.777344 393.191406 L 306.890625 393.976563 L 305.789063 396.917969 L 305.191406 399.800781 L 305.117188 399.890625 L 303.925781 402.410156 L 303.246094 406.136719 L 303.328125 408.035156 L 297.144531 414.53125 L 295.578125 412.011719 L 292.742188 410.515625 L 292.480469 410.636719 L 293.898438 413.703125 L 295.808594 416.511719 L 295.617188 416.769531 L 292.816406 415.847656 L 289.878906 415.65625 L 286.984375 416.210938 L 284.324219 417.472656 L 282.609375 418.816406 L 281.171875 420.457031 L 280.066406 422.335938 L 279.332031 424.386719 L 279.035156 428.464844 L 280.097656 432.234375 L 279.644531 432.160156 L 274.75 433.78125 L 272.609375 436.117188 L 274.253906 436.015625 L 275.152344 434.667969 L 276.683594 434.363281 L 278.285156 434.328125 L 279.648438 434.632813 L 279.617188 434.796875 L 279.65625 436.34375 L 279.554688 436.347656 L 277.390625 437.65625 L 277.96875 438.546875 L 280.066406 438.804688 L 280.328125 439.851563 L 281.566406 442.246094 L 284.109375 444.953125 L 287.253906 446.679688 L 290.90625 447.367188 L 294.585938 446.871094 L 292.839844 449.148438 L 291.738281 451.660156 L 289.226563 454.824219 L 288.304688 457.050781 L 288.117188 458.054688 L 286.253906 458.289063 L 284.5 457.988281 L 285.375 455.578125 L 285.328125 451.371094 L 283.097656 445.511719 L 280.609375 442.257813 L 277.847656 440.382813 L 274.796875 439.390625 L 271.59375 439.269531 L 268.476563 440.03125 L 266.460938 439.734375 L 267.925781 437.488281 L 268.839844 434.960938 L 269.132813 431.65625 L 268.476563 428.398438 L 270.296875 426.078125 L 271.476563 423.371094 L 271.9375 420.457031 L 271.648438 417.519531 L 270.042969 413.75 L 267.128906 410.695313 L 263.4375 408.914063 L 259.359375 408.527344 L 262 407.324219 L 264.601563 405.136719 L 266.574219 404.226563 L 268.347656 402.964844 L 270.382813 400.671875 L 271.75 397.925781 L 272.273438 395.683594 L 272.355469 393.507813 L 273.523438 390.671875 L 273.910156 387.5 L 273.492188 384.589844 L 272.355469 381.875 L 272.320313 376.199219 L 272.140625 375.503906 L 272.234375 374.960938 L 273.40625 371.914063 L 274.707031 370.632813 Z M 206.445313 463.292969 L 210.324219 463.957031 L 214.199219 463.292969 L 215.996094 465.46875 L 218.378906 467.214844 L 220.492188 468.066406 L 219.714844 468.386719 L 218.167969 468.101563 L 217.054688 467.824219 L 210.222656 468.96875 L 208.164063 468.875 L 207.273438 468.058594 L 206.238281 469.769531 L 209.328125 471.046875 L 202.570313 471.046875 L 204.042969 469.472656 L 205.257813 467.542969 L 206.070313 465.414063 Z M 223.394531 468.59375 L 223.917969 468.664063 L 227.097656 468.246094 L 230.050781 467.09375 L 232.550781 467.761719 L 234.171875 469.894531 L 233.304688 471 L 229.707031 470.382813 L 225.832031 471.046875 L 222.570313 469.058594 Z M 235.632813 463.253906 L 237.164063 460.917969 L 238.121094 457.855469 L 238.207031 454.648438 L 237.460938 451.660156 L 238.007813 449.4375 L 238.109375 447.148438 L 237.460938 443.90625 L 237.585938 441.027344 L 236.980469 437.542969 L 235.644531 434.675781 L 233.585938 432.277344 L 236.296875 433.414063 L 239.335938 433.835938 L 242.378906 433.445313 L 245.214844 432.277344 L 245.445313 434.578125 L 246.078125 436.667969 L 247.15625 438.710938 L 248.621094 440.5 L 250.410156 441.964844 L 252.453125 443.046875 L 254.671875 443.703125 L 256.847656 443.90625 L 254.648438 447.511719 L 253.882813 451.660156 L 254.648438 455.8125 L 256.847656 459.414063 L 254.496094 458.851563 L 252.078125 458.785156 L 249.820313 459.183594 L 247.304688 460.125 L 245.25 461.425781 L 243.59375 463.027344 L 242.285156 464.925781 L 241.339844 467.167969 L 240.117188 467.382813 L 238.210938 466.1875 L 238.632813 465.4375 L 239.46875 464.933594 L 237.714844 463.296875 Z M 209.757813 471.046875 L 209.511719 471.046875 L 209.714844 470.9375 Z M 251.742188 410.675781 L 252.96875 409.015625 L 255.859375 409.140625 L 253.785156 409.691406 Z M 221.953125 428.398438 L 224.28125 425.128906 L 225.832031 424.523438 L 226.808594 426.824219 L 228.257813 428.863281 L 224.707031 428.265625 Z M 200.195313 411.390625 L 201.722656 409.019531 L 202.605469 406.480469 L 202.882813 404.191406 L 202.570313 401.261719 L 202.714844 399.980469 L 203.613281 402.902344 L 205.328125 405.585938 L 207.597656 407.632813 L 210.324219 409.015625 L 207.652344 408.699219 L 204.980469 409.007813 L 202.449219 409.921875 Z M 196.753906 387.3125 L 199.765625 386.914063 L 202.570313 385.753906 L 206.445313 385.753906 L 208.363281 386.640625 L 205.933594 388.511719 L 204.074219 390.953125 L 202.953125 393.671875 L 202.550781 396.710938 L 202.050781 393.953125 L 200.839844 391.28125 L 198.996094 388.996094 Z M 177.382813 166.335938 L 178.492188 167.226563 L 182.195313 168.523438 L 178.675781 168.714844 L 176.21875 169.332031 L 173.742188 170.601563 L 171.554688 172.523438 L 164.789063 172.398438 L 168.492188 171.101563 L 170.4375 169.539063 L 170.480469 169.527344 L 170.492188 169.949219 L 171.554688 169.839844 L 173.589844 168.316406 L 174.046875 166.78125 Z M 175.289063 319.144531 L 174.878906 317.136719 L 173.769531 314.742188 L 175.429688 315.96875 L 175.984375 318.679688 L 177.09375 321.074219 L 175.890625 320.183594 Z M 162.382813 474.246094 L 163.800781 471.046875 L 165.789063 469.515625 L 167.675781 467.167969 L 169.886719 465.265625 L 172.597656 466.59375 L 175.429688 467.167969 L 173.261719 468.875 L 171.554688 471.046875 L 169.035156 473.117188 L 168.753906 473.488281 L 168.214844 474.070313 L 168.03125 474.453125 L 167.675781 474.921875 L 163.800781 474.921875 Z M 148.292969 447.785156 L 148.96875 447.257813 L 151.105469 446.613281 L 152.15625 446.554688 L 151.449219 447.050781 L 149.589844 449.164063 L 148.367188 451.519531 L 148.292969 450.386719 Z M 166.183594 446.179688 L 166.625 446.792969 L 165.792969 446.253906 L 166.046875 446.148438 Z M 141.5 358.617188 L 141.921875 358.617188 L 141.734375 358.875 Z M 142.679688 358.617188 L 144.414063 358.617188 L 146.121094 360.785156 L 148.292969 362.492188 L 148.21875 363.273438 L 147.425781 363.976563 L 146.109375 363.875 L 144.195313 361.613281 Z M 148.113281 364.347656 L 147.988281 365.664063 L 148.554688 368.800781 L 150.023438 371.769531 L 151.28125 373.148438 L 150.203125 373.105469 L 145.449219 374.257813 L 145.382813 374.304688 L 144.414063 374.125 L 145.304688 372.128906 L 145.800781 370.003906 L 145.839844 369.113281 L 147.132813 367.984375 L 147.953125 364.523438 Z M 152.542969 375.964844 L 152.722656 376.832031 L 153.832031 379.226563 L 152.289063 378.035156 Z M 144.414063 312.09375 L 144.414063 310.910156 L 144.765625 310.230469 L 145.863281 309.40625 L 147.539063 308.808594 L 146.121094 309.921875 Z M 236.835938 466.113281 L 235.136719 465.644531 L 236.523438 463.683594 L 237.195313 464.164063 L 237.5 465.839844 Z M 236.835938 466.113281 "/>
<path style=" stroke:none;fill-rule:nonzero;fill:rgb(80.392157%,58.431373%,4.705882%);fill-opacity:1;" d="M 196.753906 385.753906 L 196.46875 387.550781 L 195.644531 389.171875 L 194.355469 390.457031 L 192.734375 391.285156 L 190.9375 391.570313 L 189.140625 391.285156 L 187.519531 390.457031 L 186.234375 389.171875 L 185.40625 387.550781 L 185.125 385.753906 L 185.40625 383.957031 L 186.234375 382.335938 L 187.519531 381.050781 L 189.140625 380.222656 L 190.9375 379.9375 L 192.734375 380.222656 L 194.355469 381.050781 L 195.644531 382.335938 L 196.46875 383.957031 Z M 196.753906 385.753906 "/>
<path style=" stroke:none;fill-rule:nonzero;fill:rgb(80.392157%,58.431373%,4.705882%);fill-opacity:1;" d="M 223.890625 385.753906 L 223.609375 387.550781 L 222.78125 389.171875 L 221.496094 390.457031 L 219.875 391.285156 L 218.078125 391.570313 L 216.28125 391.285156 L 214.660156 390.457031 L 213.371094 389.171875 L 212.546875 387.550781 L 212.261719 385.753906 L 212.546875 383.957031 L 213.371094 382.335938 L 214.660156 381.050781 L 216.28125 380.222656 L 218.078125 379.9375 L 219.875 380.222656 L 221.496094 381.050781 L 222.78125 382.335938 L 223.609375 383.957031 Z M 223.890625 385.753906 "/>
<path style=" stroke:none;fill-rule:nonzero;fill:rgb(80.392157%,58.431373%,4.705882%);fill-opacity:1;" d="M 235.523438 389.628906 L 235.238281 391.429688 L 234.414063 393.050781 L 233.125 394.335938 L 231.503906 395.160156 L 229.707031 395.445313 L 227.910156 395.160156 L 226.289063 394.335938 L 225.003906 393.050781 L 224.175781 391.429688 L 223.890625 389.628906 L 224.175781 387.832031 L 225.003906 386.210938 L 226.289063 384.925781 L 227.910156 384.101563 L 229.707031 383.816406 L 231.503906 384.101563 L 233.125 384.925781 L 234.414063 386.210938 L 235.238281 387.832031 Z M 235.523438 389.628906 "/>
<path style=" stroke:none;fill-rule:nonzero;fill:rgb(80.392157%,58.431373%,4.705882%);fill-opacity:1;" d="M 220.015625 312.09375 L 219.730469 313.890625 L 218.90625 315.511719 L 217.617188 316.796875 L 215.996094 317.625 L 214.199219 317.90625 L 212.402344 317.625 L 210.78125 316.796875 L 209.496094 315.511719 L 208.667969 313.890625 L 208.382813 312.09375 L 208.667969 310.296875 L 209.496094 308.675781 L 210.78125 307.386719 L 212.402344 306.5625 L 214.199219 306.277344 L 215.996094 306.5625 L 217.617188 307.386719 L 218.90625 308.675781 L 219.730469 310.296875 Z M 220.015625 312.09375 "/>
<path style=" stroke:none;fill-rule:nonzero;fill:rgb(80.392157%,58.431373%,4.705882%);fill-opacity:1;" d="M 192.875 385.753906 L 192.59375 387.550781 L 191.765625 389.171875 L 190.480469 390.457031 L 188.859375 391.285156 L 187.0625 391.570313 L 185.265625 391.285156 L 183.644531 390.457031 L 182.355469 389.171875 L 181.53125 387.550781 L 181.246094 385.753906 L 181.53125 383.957031 L 182.355469 382.335938 L 183.644531 381.050781 L 185.265625 380.222656 L 187.0625 379.9375 L 188.859375 380.222656 L 190.480469 381.050781 L 191.765625 382.335938 L 192.59375 383.957031 Z M 192.875 385.753906 "/>
<path style=" stroke:none;fill-rule:nonzero;fill:rgb(80.392157%,58.431373%,4.705882%);fill-opacity:1;" d="M 200.628906 440.03125 L 200.347656 441.828125 L 199.519531 443.449219 L 198.234375 444.734375 L 196.613281 445.5625 L 194.816406 445.847656 L 193.019531 445.5625 L 191.398438 444.734375 L 190.109375 443.449219 L 189.285156 441.828125 L 189 440.03125 L 189.285156 438.234375 L 190.109375 436.613281 L 191.398438 435.324219 L 193.019531 434.5 L 194.816406 434.214844 L 196.613281 434.5 L 198.234375 435.324219 L 199.519531 436.613281 L 200.347656 438.234375 Z M 200.628906 440.03125 "/>
<path style=" stroke:none;fill-rule:nonzero;fill:rgb(80.392157%,58.431373%,4.705882%);fill-opacity:1;" d="M 154.109375 478.800781 L 153.824219 480.597656 L 152.996094 482.21875 L 151.710938 483.503906 L 150.085938 484.332031 L 148.46875 482.535156 L 144.222656 482.851563 L 142.761719 480.597656 L 142.476563 478.800781 L 142.761719 477.003906 L 143.585938 475.382813 L 144.875 474.09375 L 146.496094 473.269531 L 148.292969 472.984375 L 150.089844 473.269531 L 151.710938 474.09375 L 152.996094 475.382813 L 153.824219 477.003906 Z M 154.109375 478.800781 "/>
<path style=" stroke:none;fill-rule:nonzero;fill:rgb(80.392157%,58.431373%,4.705882%);fill-opacity:1;" d="M 142.476563 288.832031 L 142.191406 290.628906 L 141.75 291.5 L 140.164063 290.433594 L 138.398438 288.636719 L 137.464844 288.296875 L 135.511719 289.683594 L 134.605469 291.238281 L 135.660156 294.488281 L 134.363281 294.105469 L 131.007813 289.851563 L 130.847656 288.832031 L 131.128906 287.035156 L 131.957031 285.414063 L 133.242188 284.125 L 134.863281 283.300781 L 136.660156 283.015625 L 138.457031 283.300781 L 140.078125 284.125 L 141.367188 285.414063 L 142.191406 287.035156 Z M 142.476563 288.832031 "/>
<path style=" stroke:none;fill-rule:nonzero;fill:rgb(80.392157%,58.431373%,4.705882%);fill-opacity:1;" d="M 181.324219 222.433594 L 181.53125 221.125 L 182.355469 219.503906 L 183.644531 218.21875 L 185.265625 217.390625 L 187.0625 217.109375 L 188.859375 217.390625 L 190.480469 218.21875 L 191.648438 219.386719 L 191.214844 219.742188 L 185.519531 221.085938 L 182.847656 221.226563 Z M 191.226563 226.882813 L 190.480469 227.628906 L 188.859375 228.453125 L 187.0625 228.738281 L 185.265625 228.453125 L 183.644531 227.628906 L 182.355469 226.339844 L 181.480469 224.402344 L 184.609375 222.886719 L 186.457031 221.386719 L 187.289063 221.316406 L 189.085938 221.875 L 189.332031 222.921875 L 188.898438 224.691406 L 189.238281 225.953125 Z M 191.226563 226.882813 "/>
<path style=" stroke:none;fill-rule:nonzero;fill:rgb(80.392157%,58.431373%,4.705882%);fill-opacity:1;" d="M 189 343.109375 L 188.714844 344.90625 L 187.890625 346.527344 L 186.601563 347.8125 L 184.980469 348.636719 L 183.183594 348.921875 L 180.933594 348.40625 L 179.976563 346.332031 L 183.371094 340.257813 L 185.429688 339.015625 L 185.140625 338.578125 L 182.683594 338.460938 L 181.851563 337.503906 L 183.183594 337.292969 L 184.980469 337.578125 L 186.601563 338.402344 L 187.890625 339.691406 L 188.714844 341.3125 Z M 189 343.109375 "/>
<path style=" stroke:none;fill-rule:nonzero;fill:rgb(80.392157%,58.431373%,4.705882%);fill-opacity:1;" d="M 142.476563 409.015625 L 142.191406 410.8125 L 141.367188 412.433594 L 140.078125 413.71875 L 138.457031 414.546875 L 136.660156 414.832031 L 134.863281 414.546875 L 133.242188 413.71875 L 131.957031 412.433594 L 131.472656 411.480469 L 133.074219 411.34375 L 134.871094 409.289063 L 135.753906 407.632813 L 137.585938 406.550781 L 141.832031 406.511719 Z M 142.476563 409.015625 "/>
<path style=" stroke:none;fill-rule:nonzero;fill:rgb(80.392157%,58.431373%,4.705882%);fill-opacity:1;" d="M 169.617188 436.152344 L 169.332031 437.949219 L 168.589844 439.402344 L 166.820313 439 L 161.371094 433.375 L 160.324219 431.507813 L 162.003906 430.625 L 163.800781 430.339844 L 165.597656 430.625 L 167.21875 431.449219 L 168.503906 432.734375 L 169.332031 434.355469 Z M 169.617188 436.152344 "/>
<path style=" stroke:none;fill-rule:nonzero;fill:rgb(80.392157%,58.431373%,4.705882%);fill-opacity:1;" d="M 130.847656 474.921875 L 130.5625 476.71875 L 129.734375 478.339844 L 128.449219 479.628906 L 126.828125 480.453125 L 125.03125 480.738281 L 123.703125 480.527344 L 124.375 479.769531 L 125.210938 477.886719 L 124.875 476.421875 L 125.640625 474.519531 L 128.386719 473.238281 L 130.449219 472.90625 Z M 130.847656 474.921875 "/>
<path style=" stroke:none;fill-rule:nonzero;fill:rgb(80.392157%,58.431373%,4.705882%);fill-opacity:1;" d="M 185.125 346.984375 L 184.839844 348.78125 L 184.011719 350.402344 L 182.5 351.804688 L 179.976563 346.332031 L 182.347656 342.085938 L 184.011719 343.566406 L 184.839844 345.1875 Z M 185.125 346.984375 "/>
<path style=" stroke:none;fill-rule:nonzero;fill:rgb(80.392157%,58.431373%,4.705882%);fill-opacity:1;" d="M 146.980469 429.808594 L 147.367188 429.054688 L 148.539063 428.378906 L 150.066406 428.890625 L 152.765625 427.832031 L 153.085938 427.097656 L 152.808594 426.597656 L 151.53125 426.5625 L 152.167969 426.460938 L 153.964844 426.746094 L 155.585938 427.570313 L 157.15625 429.414063 L 155.65625 429.589844 L 149.269531 432.308594 L 149.113281 432.746094 L 147.203125 431.632813 Z M 146.980469 429.808594 "/>
<path style=" stroke:none;fill-rule:nonzero;fill:rgb(80.392157%,58.431373%,4.705882%);fill-opacity:1;" d="M 115.476563 268.566406 L 116.449219 266.027344 L 117.734375 264.742188 L 119.355469 263.914063 L 121.253906 263.648438 L 122.0625 266.289063 L 120.679688 268.164063 L 119.945313 268.597656 L 116.058594 268.992188 Z M 115.476563 268.566406 "/>
<path style=" stroke:none;fill-rule:nonzero;fill:rgb(80.392157%,58.431373%,4.705882%);fill-opacity:1;" d="M 165.738281 436.152344 L 165.488281 437.742188 L 161.371094 433.375 L 159.691406 430.375 L 161.71875 430.625 L 163.339844 431.449219 L 164.628906 432.734375 L 165.453125 434.355469 Z M 165.738281 436.152344 "/>
</g>
</svg>
