<?xml version="1.0" encoding="UTF-8"?>
<svg xmlns="http://www.w3.org/2000/svg" xmlns:xlink="http://www.w3.org/1999/xlink" width="378pt" height="504pt" viewBox="0 0 378 504" version="1.1">
<g id="data">
<rect x="0" y="0" width="378" height="504" style="fill:rgb(100%,100%,100%);fill-opacity:1;stroke:none;"/>
<path style=" stroke:none;fill-rule:nonzero;fill:rgb(100%,100%,100%);fill-opacity:1;" d="M 53.308594 504 L 324.691406 504 L 324.691406 0 L 53.308594 0 Z M 53.308594 504 "/>
<path style=" stroke:none;fill-rule:nonzero;fill:rgb(22.745098%,53.333333%,16.078431%);fill-opacity:1;" d="M 225.832031 312.09375 L 226.714844 314.367188 L 228.058594 316.40625 L 229.792969 318.121094 L 231.851563 319.4375 L 234.136719 320.292969 L 236.550781 320.652344 L 238.988281 320.503906 L 241.339844 319.847656 L 239.488281 321.785156 L 238.1875 323.980469 L 237.367188 326.53125 L 237.148438 329.074219 L 237.621094 333.398438 L 238.324219 335.867188 L 239.773438 338.4375 L 241.828125 340.558594 L 244.820313 342.292969 L 246.917969 342.902344 L 249.09375 343.109375 L 252.101563 345.058594 L 255.5625 346 L 258 346.011719 L 258.464844 345.917969 L 260.535156 347.621094 L 263.042969 349.058594 L 263.664063 349.039063 L 264.464844 350.109375 L 264.601563 350.863281 L 264.289063 353.90625 L 264.785156 356.925781 L 266.257813 360.03125 L 268.476563 362.492188 L 269.332031 364.171875 L 269.210938 365.21875 L 266.792969 367.417969 L 266.652344 367.308594 L 264.304688 366.257813 L 261.53125 365.722656 L 258.710938 365.875 L 256.011719 366.699219 L 253.59375 368.136719 L 251.59375 370.113281 L 250.125 372.511719 L 249.273438 375.191406 L 249.09375 378 L 244.960938 377.335938 L 238.808594 378.277344 L 240.953125 375.109375 L 241.941406 371.542969 L 241.757813 367.847656 L 240.328125 364.015625 L 237.824219 360.953125 L 235.828125 359.5625 L 233.585938 358.617188 L 231.878906 356.445313 L 229.707031 354.738281 L 230.355469 351.597656 L 230.144531 348.523438 L 229.136719 345.613281 L 227.3125 342.972656 L 225.375 341.285156 L 223.117188 340.0625 L 220.644531 339.367188 L 218.078125 339.230469 L 216.371094 337.0625 L 214.199219 335.355469 L 216.632813 333.375 L 219.886719 329.316406 L 221.164063 326.660156 L 221.738281 323.644531 L 221.355469 319.957031 L 219.902344 316.683594 L 217.421875 313.925781 L 214.199219 312.09375 L 215.363281 309.277344 L 215.757813 306.257813 L 217.625 308.695313 L 220.066406 310.558594 L 222.789063 311.683594 Z M 263.121094 344.175781 L 263.605469 343.824219 L 263.640625 343.980469 L 262.804688 345.191406 Z M 277.765625 370.101563 L 278.0625 370.183594 L 281.984375 370.410156 L 283.570313 370.390625 L 284.253906 370.867188 L 286.703125 370.742188 L 293.949219 371.515625 L 296.214844 372.53125 L 296.640625 374.15625 L 298.9375 377.476563 L 300.867188 379.316406 L 302.769531 380.570313 L 305.003906 381.46875 L 305.878906 381.628906 L 306.730469 384.164063 L 306.945313 387.511719 L 306.582031 389.628906 L 307.003906 392.097656 L 306.777344 393.191406 L 306.890625 393.976563 L 305.789063 396.917969 L 305.183594 399.824219 L 303.925781 402.410156 L 303.246094 406.136719 L 303.328125 408.035156 L 297.144531 414.53125 L 295.578125 412.011719 L 292.742188 410.515625 L 292.480469 410.636719 L 293.898438 413.703125 L 295.8125 416.515625 L 295.617188 416.769531 L 293.097656 418.839844 L 291.738281 420.644531 L 289.335938 421.074219 L 288.214844 419.332031 L 284.976563 421.730469 L 280.71875 424.230469 L 282.339844 425.378906 L 282.53125 425.3125 L 281.980469 425.949219 L 280.621094 428.855469 L 280.03125 432.222656 L 279.644531 432.160156 L 274.75 433.78125 L 272.609375 436.117188 L 274.253906 436.015625 L 275.152344 434.667969 L 276.683594 434.363281 L 278.285156 434.328125 L 279.664063 434.636719 L 279.640625 436.34375 L 279.554688 436.347656 L 277.390625 437.65625 L 277.96875 438.546875 L 280.097656 438.808594 L 280.375 439.972656 L 282.019531 442.871094 L 284.628906 445.332031 L 287.742188 446.84375 L 291.164063 447.371094 L 294.585938 446.871094 L 292.839844 449.148438 L 291.738281 451.660156 L 289.226563 454.824219 L 288.304688 457.050781 L 288.117188 458.054688 L 286.253906 458.289063 L 284.1875 457.9375 L 282.621094 459.414063 L 280.109375 459.414063 L 281.65625 457.53125 L 282.777344 455.363281 L 283.421875 453.007813 L 283.558594 450.574219 L 283.1875 448.160156 L 282.375 445.996094 L 281.074219 443.933594 L 279.371094 442.1875 L 276.765625 440.550781 L 273.691406 439.636719 L 270.996094 439.542969 L 268.476563 440.03125 L 264.285156 439.8125 L 261.214844 440.652344 L 258.484375 442.296875 L 256.117188 444.808594 L 254.648438 447.511719 L 253.929688 450.632813 L 254.066406 453.707031 L 255.058594 456.753906 L 256.847656 459.414063 L 252.910156 459.167969 L 249 460.304688 L 247.054688 461.519531 L 243.5 464.566406 L 241.339844 467.167969 L 240.117188 467.382813 L 238.210938 466.1875 L 238.632813 465.4375 L 239.46875 464.933594 L 237.714844 463.296875 L 231.496094 463.171875 L 231.378906 463.496094 L 232.574219 464.835938 L 232.214844 465.75 L 231.738281 466.042969 L 226.691406 465.496094 L 219.566406 468.449219 L 217.054688 467.824219 L 210.222656 468.96875 L 208.164063 468.875 L 207.273438 468.058594 L 206.238281 469.769531 L 209.328125 471.046875 L 198.691406 471.046875 L 201.269531 469.910156 L 203.496094 468.1875 L 205.242188 465.976563 L 206.445313 463.292969 L 214.199219 463.292969 L 216.179688 464.71875 L 218.410156 465.699219 L 220.796875 466.195313 L 223.238281 466.183594 L 225.375 465.738281 L 227.390625 464.90625 L 229.707031 463.292969 L 232.335938 461.972656 L 234.378906 460.230469 L 235.898438 458.171875 L 236.898438 455.957031 L 238.058594 449.058594 L 238.042969 446.386719 L 237.460938 443.90625 L 237.574219 440.902344 L 236.980469 437.542969 L 236.15625 435.554688 L 234.898438 433.648438 L 232.691406 431.375 L 230.96875 430.082031 L 229.039063 429.128906 L 226.960938 428.550781 L 224.207031 428.242188 L 221.953125 428.398438 L 222.730469 426.253906 L 223.074219 423.992188 L 226.4375 422.976563 L 229.707031 420.644531 L 232.546875 419.449219 L 234.414063 418.085938 L 235.894531 416.480469 L 237.375 413.925781 L 238.179688 410.953125 L 238.191406 408 L 237.460938 405.136719 L 239.394531 407.371094 L 241.824219 409.046875 L 244.601563 410.054688 L 247.667969 410.328125 L 250.332031 409.898438 L 252.824219 408.863281 L 255.011719 407.285156 L 256.847656 405.136719 L 259.578125 405.746094 L 262.25 405.703125 L 264.839844 405.050781 L 267.226563 403.820313 L 269.609375 401.691406 L 271.324219 398.996094 L 272.171875 396.316406 L 272.355469 393.507813 L 273.742188 389.667969 L 273.820313 386.222656 L 273.300781 383.976563 L 272.355469 381.875 L 272.320313 376.199219 L 272.140625 375.484375 L 272.234375 374.960938 L 273.40625 371.914063 L 274.707031 370.632813 Z M 233.265625 471.046875 L 222.542969 471.046875 L 222.296875 470.886719 L 221.753906 470.964844 L 220.746094 470.546875 L 221.476563 469.683594 L 227.316406 466.367188 L 232.550781 467.761719 L 234.171875 469.894531 Z M 209.757813 471.046875 L 209.511719 471.046875 L 209.714844 470.9375 Z M 182.089844 342.550781 L 183.183594 343.109375 L 183.441406 346.304688 L 184.503906 349.199219 L 186.289063 351.710938 L 188.777344 353.730469 L 191.109375 354.8125 L 193.621094 355.351563 L 196.191406 355.328125 L 198.691406 354.738281 L 197.203125 356.828125 L 196.171875 359.316406 L 195.742188 361.976563 L 195.933594 364.664063 L 196.960938 367.703125 L 198.691406 370.246094 L 198.898438 373.179688 L 199.832031 375.964844 L 201.355469 378.332031 L 203.503906 380.339844 L 205.964844 381.695313 L 208.671875 382.425781 L 211.46875 382.484375 L 214.199219 381.875 L 217.566406 383.980469 L 221.441406 384.828125 L 223.621094 384.71875 L 225.863281 384.160156 L 227.953125 383.171875 L 229.707031 381.875 L 232.90625 381.617188 L 231.046875 384.210938 L 229.933594 387.339844 L 228.894531 393.609375 L 229.058594 395.898438 L 229.625 397.988281 L 226.222656 397.585938 L 222.96875 398.148438 L 220.328125 399.394531 L 218.078125 401.261719 L 214.75 402.886719 L 212.832031 404.585938 L 211.269531 406.773438 L 210.253906 409.246094 L 209.8125 411.875 L 206.445313 412.890625 L 203.042969 412.363281 L 198.910156 413.101563 L 198.691406 412.890625 L 198.691406 409.015625 L 199.226563 406.898438 L 199.351563 404.585938 L 198.984375 402.171875 L 198.121094 399.890625 L 196.210938 397.15625 L 193.601563 395.078125 L 190.386719 393.792969 L 187.0625 393.507813 L 187.1875 390.628906 L 186.503906 386.902344 L 185.175781 384.171875 L 183.183594 381.875 L 183.183594 378 L 185.4375 374.886719 L 186.554688 371.210938 L 186.480469 367.75 L 185.394531 364.464844 L 183.390625 361.644531 L 180.53125 359.476563 L 180.003906 359.257813 L 180.433594 358.429688 L 177.679688 353.460938 L 178.242188 352.835938 L 180.867188 352.449219 L 181.503906 352.695313 L 181.914063 353.875 L 182.898438 354.332031 L 184.078125 356.789063 L 185.613281 357.902344 L 188.359375 357.621094 L 190.335938 355.148438 L 189.90625 355.050781 L 188.667969 355.527344 L 188.3125 355.957031 L 186.378906 356.386719 L 183.8125 354.640625 L 179.976563 346.332031 Z M 179.335938 358.980469 L 178.398438 358.589844 L 176.128906 358.140625 L 173.816406 358.148438 L 171.554688 358.617188 L 170.351563 356.261719 L 172.597656 355.179688 L 173.933594 355.046875 L 174.484375 355.082031 Z M 183.183594 440.03125 L 186.867188 439.648438 L 190.347656 438.058594 L 193.046875 435.527344 L 194.816406 432.277344 L 196.796875 435.796875 L 199.972656 438.492188 L 197.242188 438.976563 L 194.816406 440.03125 L 191.644531 439.726563 L 188.507813 440.292969 L 185.644531 441.6875 L 183.183594 443.90625 L 181.253906 443.058594 L 182.34375 440.640625 Z M 163.800781 172.523438 L 165.398438 171.265625 L 167.808594 170.273438 L 170.480469 169.527344 L 170.492188 169.949219 L 171.554688 169.839844 L 173.589844 168.316406 L 174.046875 166.78125 L 177.382813 166.335938 L 178.492188 167.226563 L 182.195313 168.523438 L 178.675781 168.714844 L 176.21875 169.332031 L 173.636719 170.675781 L 171.554688 172.523438 Z M 173.769531 314.742188 L 175.429688 315.96875 L 175.945313 318.558594 L 177.089844 321.074219 L 175.890625 320.183594 L 175.292969 319.152344 L 174.917969 317.257813 Z M 125.449219 474.996094 L 128.816406 475.59375 L 132.734375 474.953125 L 136.210938 473.03125 L 138.769531 470.164063 L 140.191406 466.867188 L 140.539063 463.292969 L 143.308594 460.941406 L 146.117188 457.539063 L 147.421875 455.222656 L 147.917969 453.050781 L 148.429688 452.488281 L 148.34375 451.191406 L 148.378906 451.039063 L 148.292969 447.785156 L 148.832031 447.296875 L 151.105469 446.613281 L 157.421875 446.269531 L 159.910156 445.683594 L 164.597656 446.761719 L 166.046875 446.148438 L 167.527344 446.515625 L 168.511719 446.902344 L 166.796875 448.886719 L 165.140625 452.34375 L 164.707031 456.277344 L 165.664063 460.246094 L 168.027344 463.730469 L 171.476563 466.148438 L 175.429688 467.167969 L 173.171875 468.964844 L 170.054688 472.660156 L 168.992188 473.234375 L 168.214844 474.070313 L 167.203125 476.179688 L 165.789063 480.316406 L 165.332031 480.6875 L 161.808594 484.972656 L 160.523438 487.582031 L 160 490.058594 L 158.269531 489.722656 L 157.554688 489.058594 L 156.527344 486.851563 L 155.425781 486.007813 L 154.546875 484.03125 L 153.300781 482.246094 L 150.269531 479.710938 L 145.183594 477.597656 L 141.988281 477.320313 L 138.71875 477.96875 L 135.359375 479.824219 L 132.785156 482.675781 L 128.710938 483.414063 L 128.464844 481.019531 L 127.726563 478.726563 L 126.609375 476.742188 L 125.335938 475.273438 Z M 160.769531 432.304688 L 163.652344 431.886719 L 164.765625 436.105469 L 166.570313 438.816406 L 166.347656 438.652344 L 161.371094 433.375 Z M 144.414063 358.617188 L 147.972656 357.746094 L 151.179688 355.726563 L 149.539063 358.128906 L 148.542969 360.863281 L 148.253906 363.242188 L 147.425781 363.976563 L 146.109375 363.875 L 144.195313 361.613281 L 142.679688 358.617188 Z M 148.136719 364.320313 L 148.441406 367.5 L 149.71875 371.070313 L 151.390625 373.152344 L 150.203125 373.105469 L 145.449219 374.257813 L 145.109375 374.503906 L 144.414063 374.125 L 145.304688 372.128906 L 145.800781 370.003906 L 145.839844 369.113281 L 147.132813 367.984375 L 147.953125 364.523438 Z M 152.53125 376.058594 L 152.613281 376.488281 L 153.472656 378.601563 L 156.046875 381.875 L 153.875 383.582031 L 153.382813 384.210938 L 154.652344 381.796875 L 152.269531 378.203125 Z M 141.5 358.617188 L 141.921875 358.617188 L 141.734375 358.875 Z M 144.414063 312.09375 L 144.414063 310.910156 L 144.765625 310.230469 L 145.863281 309.40625 L 147.539063 308.808594 L 146.121094 309.921875 Z M 133.921875 422.695313 L 135.667969 420.734375 L 136.976563 418.3125 L 138.15625 420.265625 L 139.695313 421.949219 L 141.53125 423.300781 L 142.414063 423.710938 L 139.503906 423.714844 L 136.765625 424.277344 L 136.714844 424.511719 L 136.660156 424.523438 Z M 236.835938 466.113281 L 235.136719 465.644531 L 236.523438 463.683594 L 237.195313 464.164063 L 237.5 465.839844 Z M 236.835938 466.113281 "/>
</g>
</svg>
