<?xml version="1.0" encoding="UTF-8"?>
<svg xmlns="http://www.w3.org/2000/svg" xmlns:xlink="http://www.w3.org/1999/xlink" width="378pt" height="504pt" viewBox="0 0 378 504" version="1.1">
<g id="data">
<rect x="0" y="0" width="378" height="504" style="fill:rgb(100%,100%,100%);fill-opacity:1;stroke:none;"/>
<path style=" stroke:none;fill-rule:nonzero;fill:rgb(100%,100%,100%);fill-opacity:1;" d="M 53.308594 504 L 324.691406 504 L 324.691406 0 L 53.308594 0 Z M 53.308594 504 "/>
<path style=" stroke:none;fill-rule:nonzero;fill:rgb(22.745098%,53.333333%,16.078431%);fill-opacity:1;" d="M 200.71875 462.28125 L 201.308594 460.566406 L 202.398438 459.117188 L 203.882813 458.074219 L 205.617188 457.535156 L 207.429688 457.5625 L 210.324219 458.058594 L 213.214844 457.5625 L 215.234375 457.570313 L 217.125 458.265625 L 218.664063 459.566406 L 220.089844 461.273438 L 221.210938 462.085938 L 222.496094 462.601563 L 223.929688 462.796875 L 225.640625 462.570313 L 228.769531 461.351563 L 230.058594 460.613281 L 230.941406 459.804688 L 231.855469 458.410156 L 232.332031 456.894531 L 232.375 455.289063 L 231.820313 453.070313 L 231.644531 451.671875 L 231.816406 450.273438 L 232.222656 448.605469 L 232.269531 447.597656 L 231.757813 445.046875 L 231.652344 443.625 L 231.757813 441.503906 L 231.378906 439.292969 L 230.710938 437.859375 L 229.171875 436.0625 L 228.257813 434.609375 L 228.253906 434.59375 L 227.292969 434.597656 L 224.363281 434.105469 L 222.238281 434.207031 L 220.394531 434.003906 L 218.714844 433.230469 L 217.359375 431.964844 L 216.472656 430.339844 L 216.140625 428.519531 L 216.398438 426.6875 L 217.21875 425.027344 L 219.546875 421.757813 L 220.703125 420.546875 L 222.160156 419.71875 L 223.707031 419.109375 L 225.449219 418.71875 L 227.230469 418.878906 L 228.878906 419.570313 L 230.238281 420.730469 L 231.183594 422.246094 L 231.914063 423.96875 L 233 425.496094 L 233.492188 426.523438 L 234.132813 426.488281 L 235.800781 426.902344 L 237.9375 427.78125 L 239.351563 427.96875 L 240.875 427.777344 L 242.996094 426.902344 L 244.746094 426.480469 L 246.539063 426.613281 L 248.207031 427.289063 L 249.585938 428.441406 L 250.550781 429.957031 L 251.003906 431.699219 L 251.175781 433.4375 L 251.480469 434.449219 L 252.027344 435.476563 L 252.753906 436.367188 L 253.644531 437.097656 L 254.660156 437.636719 L 255.78125 437.964844 L 257.390625 438.117188 L 259.277344 438.625 L 260.71875 439.609375 L 260.816406 438.328125 L 261.589844 436.554688 L 262.6875 434.875 L 263.113281 433.695313 L 263.265625 431.980469 L 262.777344 429.546875 L 262.683594 427.878906 L 263.070313 426.257813 L 263.902344 424.8125 L 265.265625 423.074219 L 265.847656 421.730469 L 266.078125 420.285156 L 265.949219 418.976563 L 265.101563 416.984375 L 263.714844 415.519531 L 261.925781 414.628906 L 258.777344 414.3125 L 258.515625 414.242188 L 257.351563 414.757813 L 255.816406 415.167969 L 254.269531 415.914063 L 252.425781 416.453125 L 250.503906 416.359375 L 248.71875 415.644531 L 247.265625 414.386719 L 246.300781 412.726563 L 245.929688 410.839844 L 246.195313 408.933594 L 247.066406 407.21875 L 248.292969 405.558594 L 249.644531 404.246094 L 251.347656 403.429688 L 253.21875 403.207031 L 256.105469 403.328125 L 256.644531 403.4375 L 256.949219 403.234375 L 258.863281 402.363281 L 260.859375 400.6875 L 262.167969 399.855469 L 263.644531 399.175781 L 264.4375 398.613281 L 265.519531 397.390625 L 266.238281 395.941406 L 266.484375 394.90625 L 266.542969 393.292969 L 266.976563 391.289063 L 267.847656 389.183594 L 268.042969 387.566406 L 267.839844 386.152344 L 266.992188 384.125 L 266.539063 381.914063 L 266.511719 377.652344 L 266.9375 378.226563 L 270.21875 378.804688 L 270.625 378.746094 L 271.910156 376.796875 L 272.234375 374.960938 L 273.40625 371.914063 L 274.707031 370.632813 L 277.851563 370.085938 L 283.34375 370.234375 L 284.253906 370.867188 L 286.703125 370.742188 L 293.949219 371.515625 L 296.914063 372.84375 L 304.070313 378.085938 L 305.367188 380.105469 L 306.730469 384.164063 L 307.179688 391.25 L 306.777344 393.191406 L 306.890625 393.976563 L 305.789063 396.917969 L 303.519531 407.832031 L 297.144531 414.53125 L 295.578125 412.011719 L 292.742188 410.515625 L 292.480469 410.636719 L 293.898438 413.703125 L 295.890625 416.628906 L 296.3125 416.765625 L 296.164063 417.742188 L 294.574219 419.804688 L 292.191406 421.289063 L 290.710938 421.539063 L 290.242188 421.507813 L 289.761719 421.601563 L 289.660156 421.574219 L 288.214844 419.332031 L 284.976563 421.730469 L 280.71875 424.230469 L 282.339844 425.378906 L 285.105469 424.398438 L 286.097656 423.375 L 286.421875 423.289063 L 285.910156 423.875 L 285.359375 424.8125 L 285.074219 425.601563 L 284.910156 427.871094 L 285.707031 430.699219 L 285.726563 430.835938 L 285.6875 430.875 L 283.441406 432.558594 L 282.84375 432.699219 L 279.644531 432.160156 L 274.75 433.78125 L 272.609375 436.117188 L 274.253906 436.015625 L 275.152344 434.667969 L 276.683594 434.363281 L 278.285156 434.328125 L 281.054688 434.949219 L 281.828125 435.589844 L 281.691406 436.328125 L 279.554688 436.347656 L 277.390625 437.65625 L 277.96875 438.546875 L 281.382813 438.964844 L 286.863281 440.339844 L 287.621094 440.21875 L 287.640625 440.242188 L 289.257813 441.140625 L 291.058594 441.480469 L 293.808594 441.109375 L 295.523438 441.132813 L 297.152344 441.652344 L 298.5625 442.628906 L 299.625 443.96875 L 300.253906 445.5625 L 300.386719 447.273438 L 300.238281 447.949219 L 299.394531 449.050781 L 296.972656 450.242188 L 295.839844 450.375 L 292.621094 451.640625 L 291.179688 452.742188 L 289.847656 454.226563 L 289.460938 455.09375 L 289.214844 456.324219 L 289.464844 457.886719 L 286.253906 458.289063 L 284.1875 457.9375 L 281.042969 460.90625 L 278.769531 461.820313 L 278.414063 461.089844 L 278.171875 459.253906 L 278.515625 457.4375 L 279.546875 454.589844 L 279.523438 452.46875 L 277.964844 448.371094 L 276.554688 446.527344 L 275.351563 445.699219 L 273.753906 445.171875 L 272.183594 445.113281 L 269.855469 445.679688 L 267.632813 445.785156 L 265.617188 445.488281 L 263.777344 444.894531 L 262.582031 443.992188 L 262.535156 445.121094 L 261.8125 446.933594 L 260.175781 449.621094 L 259.796875 451.660156 L 260.175781 453.703125 L 261.8125 456.390625 L 262.53125 458.195313 L 262.617188 460.140625 L 262.054688 462.003906 L 260.90625 463.578125 L 260.207031 464.0625 L 259.269531 463.777344 L 256.070313 463.507813 L 244.628906 465.699219 L 242.703125 466.390625 L 242.113281 466.964844 L 241.902344 467.984375 L 241.359375 468.164063 L 238.210938 466.1875 L 238.632813 465.4375 L 239.46875 464.933594 L 237.714844 463.296875 L 231.496094 463.171875 L 231.378906 463.496094 L 232.574219 464.835938 L 232.214844 465.75 L 231.738281 466.042969 L 226.691406 465.496094 L 219.566406 468.449219 L 217.054688 467.824219 L 210.222656 468.96875 L 208.164063 468.875 L 207.273438 468.058594 L 206.238281 469.769531 L 209.429688 471.089844 L 209.714844 470.9375 L 210.1875 472.128906 L 209.566406 473.890625 L 206.84375 474.453125 L 204.453125 473.097656 L 203.015625 472.699219 L 197.625 472.007813 L 196.914063 472.324219 L 196.777344 470.53125 L 197.261719 468.671875 L 198.324219 467.070313 L 199.417969 465.90625 L 200.03125 464.929688 L 200.441406 463.855469 Z M 262.464844 371.941406 L 261.636719 371.664063 L 259.785156 371.679688 L 257.785156 372.425781 L 256.226563 373.789063 L 255.253906 375.613281 L 254.863281 378.726563 L 254.332031 380.519531 L 253.261719 382.054688 L 251.757813 383.167969 L 249.980469 383.746094 L 248.109375 383.730469 L 245.214844 383.234375 L 242.320313 383.730469 L 240.539063 383.761719 L 238.832031 383.246094 L 237.359375 382.242188 L 236.261719 380.839844 L 235.640625 379.167969 L 235.554688 377.386719 L 236.011719 375.664063 L 236.777344 373.925781 L 237.027344 372.597656 L 236.96875 371.25 L 236.578125 369.839844 L 235.335938 367.0625 L 234.40625 365.792969 L 233.199219 364.816406 L 231.207031 363.921875 L 230.007813 363.199219 L 229.011719 362.210938 L 227.738281 360.585938 L 226.113281 359.308594 L 224.828125 357.902344 L 224.066406 356.152344 L 223.914063 354.253906 L 224.382813 352.402344 L 225.082031 350.804688 L 225.316406 349.757813 L 225.351563 348.671875 L 225.179688 347.597656 L 224.8125 346.574219 L 224.261719 345.640625 L 223.542969 344.824219 L 222.253906 343.816406 L 221.003906 342.476563 L 220.234375 340.8125 L 220.019531 338.988281 L 220.382813 337.191406 L 221.289063 335.597656 L 222.84375 333.65625 L 223.460938 332.148438 L 223.625 330.414063 L 223.285156 328.71875 L 222.765625 327.648438 L 222.039063 326.722656 L 221.042969 325.902344 L 219.328125 325.035156 L 217.707031 323.820313 L 216.601563 322.121094 L 215.871094 320.402344 L 214.785156 318.875 L 213.941406 317.121094 L 213.722656 315.1875 L 214.152344 313.289063 L 215.1875 311.636719 L 216.707031 310.421875 L 218.542969 309.777344 L 220.492188 309.773438 L 223.421875 310.265625 L 225.546875 310.160156 L 227.375 310.363281 L 229.046875 311.125 L 230.398438 312.367188 L 231.480469 313.738281 L 232.292969 314.4375 L 233.234375 314.980469 L 234.261719 315.335938 L 235.335938 315.492188 L 236.421875 315.445313 L 237.480469 315.199219 L 238.972656 314.53125 L 240.695313 314.066406 L 242.480469 314.144531 L 244.15625 314.757813 L 245.566406 315.851563 L 246.578125 317.320313 L 247.097656 319.03125 L 247.074219 320.8125 L 246.507813 322.507813 L 245.457031 323.949219 L 244.324219 325.089844 L 243.675781 326.054688 L 243.234375 327.125 L 243.019531 328.167969 L 243.003906 329.390625 L 243.402344 332.566406 L 243.730469 333.664063 L 244.195313 334.554688 L 245.136719 335.679688 L 246.351563 336.554688 L 247.625 337.058594 L 249.828125 337.339844 L 251.800781 337.960938 L 252.089844 338.1875 L 245.550781 339.511719 L 244.589844 338.644531 L 243.40625 338.558594 L 241.210938 339.871094 L 241.886719 340.445313 L 246.324219 340.394531 L 249.617188 339.34375 L 251.976563 339.082031 L 254.382813 342.558594 L 256.101563 343.972656 L 256.714844 344.578125 L 257.289063 344.953125 L 260.535156 347.621094 L 263.042969 349.058594 L 263.664063 349.039063 L 266.046875 352.214844 L 268.980469 359.304688 L 269.535156 362.402344 L 269.210938 365.21875 L 264.953125 369.09375 Z M 285.550781 436.761719 L 285.808594 437.78125 L 286.371094 438.871094 L 286.933594 439.476563 L 286.679688 439.636719 L 283.058594 438.976563 L 282.164063 437.605469 L 282.484375 436.070313 Z M 193.261719 391.960938 L 192.054688 390.742188 L 191.261719 389.222656 L 190.941406 387.539063 L 191.128906 385.835938 L 191.804688 384.257813 L 192.910156 382.949219 L 194.347656 382.019531 L 195.996094 381.546875 L 198.246094 381.25 L 200.34375 380.382813 L 202.570313 379.9375 L 206.445313 379.9375 L 208.882813 380.472656 L 210.804688 381.359375 L 212.230469 382.292969 L 213.324219 383.601563 L 213.992188 385.167969 L 214.175781 386.863281 L 213.863281 388.535156 L 213.078125 390.050781 L 211.886719 391.269531 L 210.148438 392.589844 L 209.203125 393.804688 L 208.617188 395.207031 L 208.3125 397.480469 L 208.152344 398.023438 L 208.269531 398.265625 L 208.9375 400.4375 L 209.804688 401.792969 L 210.917969 402.796875 L 212.957031 403.832031 L 214.414063 404.878906 L 215.476563 406.324219 L 216.054688 408.023438 L 216.082031 409.820313 L 215.5625 411.539063 L 214.542969 413.015625 L 213.125 414.113281 L 211.433594 414.722656 L 209.640625 414.789063 L 207.640625 414.554688 L 206.316406 414.707031 L 205.058594 415.160156 L 203.371094 416.261719 L 201.777344 416.984375 L 200.039063 417.203125 L 198.316406 416.894531 L 196.761719 416.082031 L 195.519531 414.847656 L 194.703125 413.300781 L 194.382813 411.578125 L 194.589844 409.839844 L 195.308594 408.238281 L 196.457031 406.453125 L 196.90625 405.160156 L 197.03125 404.152344 L 196.785156 401.878906 L 196.789063 400.609375 L 196.933594 399.332031 L 197.128906 398.613281 L 196.832031 397.777344 L 196.429688 395.605469 L 195.859375 394.371094 L 194.925781 393.210938 Z M 187.792969 167.148438 L 188.011719 168.453125 L 187.761719 170.207031 L 186.996094 171.804688 L 185.789063 173.09375 L 184.246094 173.964844 L 182.515625 174.328125 L 179.550781 174.492188 L 178.296875 174.804688 L 176.960938 175.5 L 175.414063 176.875 L 173.566406 177.980469 L 171.449219 178.335938 L 164.683594 178.214844 L 162.914063 177.90625 L 161.328125 177.074219 L 160.066406 175.796875 L 159.421875 174.523438 L 161.140625 173.015625 L 167.808594 170.273438 L 170.480469 169.527344 L 170.492188 169.949219 L 171.554688 169.839844 L 173.589844 168.316406 L 174.046875 166.78125 L 178.648438 166.167969 L 179.285156 167.089844 L 180.148438 167.667969 L 184.320313 169.011719 L 187.675781 167.128906 Z M 159.109375 171.535156 L 159.242188 170.652344 L 160.039063 169.046875 L 160.492188 168.578125 L 161.058594 169.320313 Z M 170.890625 309.78125 L 171.753906 309.289063 L 173.632813 308.929688 L 175.523438 309.195313 L 177.226563 310.066406 L 178.886719 311.292969 L 180.335938 312.84375 L 181.128906 314.808594 L 181.546875 316.851563 L 182.367188 318.628906 L 182.875 320.472656 L 182.808594 321.542969 L 179.199219 323.441406 L 177.335938 322.691406 L 172.851563 314.925781 L 172.289063 311.832031 Z M 159.878906 479.496094 L 158.402344 478.488281 L 157.300781 477.078125 L 156.683594 475.402344 L 156.601563 473.617188 L 157.066406 471.890625 L 158.484375 468.691406 L 159.226563 467.453125 L 160.253906 466.4375 L 161.695313 465.328125 L 163.144531 463.523438 L 163.878906 462.765625 L 166.089844 460.859375 L 167.523438 459.949219 L 169.160156 459.496094 L 170.859375 459.53125 L 172.472656 460.054688 L 174.398438 461.011719 L 176.621094 461.476563 L 178.371094 462.152344 L 179.816406 463.351563 L 180.804688 464.945313 L 181.234375 466.773438 L 181.054688 468.640625 L 180.820313 469.175781 L 176.207031 469.78125 L 174.339844 470.335938 L 168.992188 473.234375 L 168.214844 474.070313 L 167.203125 476.179688 L 165.644531 480.738281 L 163.800781 480.738281 L 161.296875 480.171875 Z M 146.96875 429.726563 L 147.027344 429.558594 L 147.429688 429.015625 L 148.539063 428.378906 L 150.066406 428.890625 L 151.640625 428.421875 L 152.765625 427.832031 L 153.085938 427.097656 L 152.808594 426.597656 L 151.253906 426.554688 L 152.835938 426.5 L 154.511719 426.953125 L 155.980469 427.882813 L 157.675781 429.355469 L 155.65625 429.589844 L 149.269531 432.308594 L 149.113281 432.746094 L 147.203125 431.632813 Z M 159.542969 430.113281 L 161.324219 430.441406 L 163.546875 430.34375 L 165.523438 430.601563 L 167.296875 431.507813 L 168.660156 432.960938 L 169.453125 434.789063 L 169.582031 436.777344 L 169.347656 438.964844 L 169.433594 439.597656 L 166.820313 439 L 166.347656 438.652344 L 161.371094 433.375 Z M 172.195313 448.449219 L 172.191406 448.472656 L 171.421875 450.082031 L 170.195313 451.382813 L 168.632813 452.25 L 166.882813 452.601563 L 165.105469 452.40625 L 163.472656 451.679688 L 161.703125 450.539063 L 160.367188 450.082031 L 159.074219 449.960938 L 157.675781 450.164063 L 156.367188 450.695313 L 155.308594 451.457031 L 154.378906 452.539063 L 153.46875 454.3125 L 152.316406 455.863281 L 150.71875 456.945313 L 148.855469 457.449219 L 146.929688 457.316406 L 145.152344 456.558594 L 144.46875 455.9375 L 145.761719 455.429688 L 148.429688 452.488281 L 148.105469 447.519531 L 151.105469 446.613281 L 157.421875 446.269531 L 159.910156 445.683594 L 164.597656 446.761719 L 166.046875 446.148438 L 167.527344 446.515625 L 169.484375 447.285156 L 170.039063 448.109375 L 170.757813 448.421875 Z M 142.226563 352.800781 L 144.414063 352.800781 L 146.140625 353.0625 L 147.714844 353.824219 L 148.988281 355.019531 L 150.261719 356.644531 L 151.886719 357.921875 L 153.183594 359.347656 L 153.207031 359.402344 L 150.984375 360.816406 L 147.425781 363.976563 L 146.109375 363.875 L 144.195313 361.613281 L 142.050781 357.363281 Z M 153.308594 359.632813 L 153.945313 361.125 L 154.082031 363.050781 L 153.851563 365.421875 L 154.132813 366.972656 L 154.816406 368.378906 L 156.488281 370.226563 L 157.367188 371.515625 L 157.875 372.992188 L 158.253906 374.914063 L 159.121094 376.8125 L 159.617188 378.667969 L 159.484375 380.589844 L 158.730469 382.359375 L 157.441406 383.785156 L 155.757813 384.714844 L 153.859375 385.042969 L 153.078125 384.914063 L 153.179688 384.597656 L 154.652344 381.796875 L 152.269531 378.203125 L 152.683594 374.835938 L 153.175781 374.082031 L 152.804688 373.207031 L 150.203125 373.105469 L 145.449219 374.257813 L 143.757813 375.484375 L 142.039063 378.097656 L 140.28125 378.210938 L 139.265625 376.824219 L 138.695313 375.179688 L 138.679688 374.613281 L 140.148438 373.019531 L 141.023438 372.414063 L 142.589844 371.953125 L 147.132813 367.984375 L 147.953125 364.523438 L 151.550781 360.582031 L 153.09375 359.609375 Z M 148.988281 315.6875 L 147.675781 316.910156 L 146.054688 317.671875 L 144.277344 317.90625 L 142.511719 317.585938 L 140.929688 316.746094 L 140.4375 316.242188 L 142.300781 315.023438 L 144.765625 310.230469 L 145.863281 309.40625 L 149.046875 308.269531 L 150.203125 313.453125 L 149.253906 315.347656 Z M 141.734375 358.875 L 141.003906 358.070313 L 139.230469 356.960938 L 138.828125 356.035156 L 139.253906 355.210938 L 140.597656 355.164063 L 141.484375 356.3125 L 142.226563 358.1875 Z M 236.835938 466.113281 L 235.136719 465.644531 L 236.523438 463.683594 L 237.195313 464.164063 L 237.5 465.839844 Z M 228.117188 474.644531 L 222.296875 470.886719 L 220.207031 471.1875 L 221.476563 469.683594 L 227.316406 466.367188 L 232.550781 467.761719 L 234.171875 469.894531 L 231.242188 473.621094 L 229.960938 474.269531 Z M 228.117188 474.644531 "/>
<path style=" stroke:none;fill-rule:nonzero;fill:rgb(80.392157%,58.431373%,4.705882%);fill-opacity:1;" d="M 235.523438 389.628906 L 235.238281 391.429688 L 234.414063 393.050781 L 233.125 394.335938 L 231.503906 395.160156 L 229.707031 395.445313 L 227.910156 395.160156 L 226.289063 394.335938 L 225.003906 393.050781 L 224.175781 391.429688 L 223.890625 389.628906 L 224.175781 387.832031 L 225.003906 386.210938 L 226.289063 384.925781 L 227.910156 384.101563 L 229.707031 383.816406 L 231.503906 384.101563 L 233.125 384.925781 L 234.414063 386.210938 L 235.238281 387.832031 Z M 235.523438 389.628906 "/>
<path style=" stroke:none;fill-rule:nonzero;fill:rgb(80.392157%,58.431373%,4.705882%);fill-opacity:1;" d="M 200.628906 440.03125 L 200.347656 441.828125 L 199.519531 443.449219 L 198.234375 444.734375 L 196.613281 445.5625 L 194.816406 445.847656 L 193.019531 445.5625 L 191.398438 444.734375 L 190.109375 443.449219 L 189.285156 441.828125 L 189 440.03125 L 189.285156 438.234375 L 190.109375 436.613281 L 191.398438 435.324219 L 193.019531 434.5 L 194.816406 434.214844 L 196.613281 434.5 L 198.234375 435.324219 L 199.519531 436.613281 L 200.347656 438.234375 Z M 200.628906 440.03125 "/>
<path style=" stroke:none;fill-rule:nonzero;fill:rgb(80.392157%,58.431373%,4.705882%);fill-opacity:1;" d="M 154.109375 478.800781 L 153.824219 480.597656 L 152.996094 482.21875 L 151.710938 483.503906 L 150.089844 484.332031 L 150.085938 484.332031 L 148.46875 482.535156 L 144.222656 482.851563 L 143.585938 482.21875 L 142.761719 480.597656 L 142.476563 478.800781 L 142.761719 477.003906 L 143.585938 475.382813 L 144.875 474.09375 L 146.496094 473.269531 L 148.292969 472.984375 L 150.089844 473.269531 L 151.710938 474.09375 L 152.996094 475.382813 L 153.824219 477.003906 Z M 154.109375 478.800781 "/>
<path style=" stroke:none;fill-rule:nonzero;fill:rgb(80.392157%,58.431373%,4.705882%);fill-opacity:1;" d="M 142.476563 288.832031 L 142.191406 290.628906 L 141.75 291.5 L 141.613281 291.4375 L 140.164063 290.433594 L 138.398438 288.636719 L 137.464844 288.296875 L 135.511719 289.683594 L 134.605469 291.238281 L 135.660156 294.488281 L 134.863281 294.363281 L 134.363281 294.105469 L 133.472656 292.679688 L 131.007813 289.851563 L 130.847656 288.832031 L 131.128906 287.035156 L 131.957031 285.414063 L 133.242188 284.125 L 134.863281 283.300781 L 136.660156 283.015625 L 138.457031 283.300781 L 140.078125 284.125 L 141.367188 285.414063 L 142.191406 287.035156 Z M 142.476563 288.832031 "/>
<path style=" stroke:none;fill-rule:nonzero;fill:rgb(80.392157%,58.431373%,4.705882%);fill-opacity:1;" d="M 191.226563 226.882813 L 190.480469 227.628906 L 188.859375 228.453125 L 187.0625 228.738281 L 185.265625 228.453125 L 183.644531 227.628906 L 182.355469 226.339844 L 181.53125 224.71875 L 181.480469 224.402344 L 184.609375 222.886719 L 186.457031 221.386719 L 187.289063 221.316406 L 189.085938 221.875 L 189.332031 222.921875 L 188.898438 224.691406 L 189.238281 225.953125 L 190.898438 226.824219 Z M 181.324219 222.433594 L 181.53125 221.125 L 182.355469 219.503906 L 183.644531 218.21875 L 185.265625 217.390625 L 187.0625 217.109375 L 188.859375 217.390625 L 190.480469 218.21875 L 191.648438 219.386719 L 191.214844 219.742188 L 185.519531 221.085938 L 182.847656 221.226563 Z M 181.324219 222.433594 "/>
<path style=" stroke:none;fill-rule:nonzero;fill:rgb(80.392157%,58.431373%,4.705882%);fill-opacity:1;" d="M 189 343.109375 L 188.714844 344.90625 L 187.890625 346.527344 L 186.601563 347.8125 L 184.980469 348.636719 L 183.183594 348.921875 L 181.386719 348.636719 L 180.933594 348.40625 L 179.976563 346.332031 L 183.371094 340.257813 L 185.429688 339.015625 L 185.140625 338.578125 L 182.683594 338.460938 L 181.851563 337.503906 L 183.183594 337.292969 L 184.980469 337.578125 L 186.601563 338.402344 L 187.890625 339.691406 L 188.714844 341.3125 Z M 189 343.109375 "/>
<path style=" stroke:none;fill-rule:nonzero;fill:rgb(80.392157%,58.431373%,4.705882%);fill-opacity:1;" d="M 142.476563 409.015625 L 142.191406 410.8125 L 141.367188 412.433594 L 140.078125 413.71875 L 138.457031 414.546875 L 136.660156 414.832031 L 134.863281 414.546875 L 133.242188 413.71875 L 131.957031 412.433594 L 131.472656 411.480469 L 133.074219 411.34375 L 134.871094 409.289063 L 135.753906 407.632813 L 137.585938 406.550781 L 141.359375 406.660156 L 141.832031 406.511719 L 142.191406 407.21875 Z M 142.476563 409.015625 "/>
<path style=" stroke:none;fill-rule:nonzero;fill:rgb(80.392157%,58.431373%,4.705882%);fill-opacity:1;" d="M 130.847656 474.921875 L 130.5625 476.71875 L 129.734375 478.339844 L 128.449219 479.628906 L 126.828125 480.453125 L 125.03125 480.738281 L 123.703125 480.527344 L 124.375 479.769531 L 125.210938 477.886719 L 124.875 476.421875 L 125.640625 474.519531 L 128.386719 473.238281 L 130.449219 472.90625 L 130.5625 473.125 Z M 130.847656 474.921875 "/>
<path style=" stroke:none;fill-rule:nonzero;fill:rgb(80.392157%,58.431373%,4.705882%);fill-opacity:1;" d="M 185.125 346.984375 L 184.839844 348.78125 L 184.011719 350.402344 L 182.726563 351.6875 L 182.5 351.804688 L 179.976563 346.332031 L 182.347656 342.085938 L 182.726563 342.28125 L 184.011719 343.566406 L 184.839844 345.1875 Z M 181.058594 352.523438 L 179.308594 352.800781 L 178.90625 352.738281 L 180.867188 352.449219 Z M 181.058594 352.523438 "/>
<path style=" stroke:none;fill-rule:nonzero;fill:rgb(80.392157%,58.431373%,4.705882%);fill-opacity:1;" d="M 115.476563 268.566406 L 115.625 267.648438 L 116.449219 266.027344 L 117.734375 264.742188 L 119.355469 263.914063 L 121.152344 263.628906 L 121.253906 263.648438 L 121.183594 263.964844 L 122.0625 266.289063 L 120.679688 268.164063 L 119.945313 268.597656 L 116.058594 268.992188 Z M 115.476563 268.566406 "/>
</g>
</svg>
