<?xml version="1.0" encoding="UTF-8"?>
<svg xmlns="http://www.w3.org/2000/svg" xmlns:xlink="http://www.w3.org/1999/xlink" width="378pt" height="504pt" viewBox="0 0 378 504" version="1.1">
<g id="data">
<rect x="0" y="0" width="378" height="504" style="fill:rgb(100%,100%,100%);fill-opacity:1;stroke:none;"/>
<path style=" stroke:none;fill-rule:nonzero;fill:rgb(100%,100%,100%);fill-opacity:1;" d="M 53.308594 504 L 324.691406 504 L 324.691406 0 L 53.308594 0 Z M 53.308594 504 "/>
<path style=" stroke:none;fill-rule:nonzero;fill:rgb(22.745098%,53.333333%,16.078431%);fill-opacity:1;" d="M 221.015625 416.15625 L 220.253906 414.535156 L 220.015625 412.757813 L 220.332031 410.996094 L 221.171875 409.410156 L 222.453125 408.160156 L 224.054688 407.355469 L 225.824219 407.078125 L 227.597656 407.351563 L 229.199219 408.152344 L 230.839844 409.316406 L 232.089844 409.824219 L 233.316406 410.023438 L 234.515625 409.945313 L 236.449219 409.246094 L 237.851563 408.125 L 238.882813 406.523438 L 239.570313 403.746094 L 240.234375 402.140625 L 241.34375 400.800781 L 242.800781 399.847656 L 244.472656 399.371094 L 246.210938 399.410156 L 247.859375 399.960938 L 249.273438 400.972656 L 250.574219 402.242188 L 251.605469 402.894531 L 252.644531 403.285156 L 253.886719 403.480469 L 255.035156 403.433594 L 257.703125 402.914063 L 258.761719 402.449219 L 260.226563 401.398438 L 261.808594 400.597656 L 263.5625 400.3125 L 265.320313 400.566406 L 266.917969 401.34375 L 268.207031 402.566406 L 269.070313 404.117188 L 269.421875 405.859375 L 269.230469 407.625 L 268.515625 409.25 L 267.054688 411.546875 L 266.363281 414.304688 L 265.679688 415.933594 L 264.539063 417.28125 L 263.042969 418.226563 L 261.183594 419.035156 L 260.226563 419.742188 L 259.214844 420.964844 L 258.261719 423.054688 L 257.011719 424.824219 L 255.199219 426.015625 L 253.605469 426.679688 L 252.65625 427.320313 L 251.847656 428.136719 L 251.261719 429.03125 L 250.449219 431.207031 L 250.269531 432.84375 L 250.523438 434.378906 L 251.589844 436.621094 L 252.097656 438.324219 L 252.066406 440.101563 L 251.5 441.789063 L 250.453125 443.222656 L 249.019531 444.273438 L 247.332031 444.84375 L 245.554688 444.878906 L 243.292969 444.574219 L 241.9375 444.75 L 239.941406 445.691406 L 237.773438 447.941406 L 236.179688 449.109375 L 234.292969 449.679688 L 232.320313 449.582031 L 230.261719 449.125 L 228.980469 449.144531 L 227.207031 449.613281 L 225.425781 450.523438 L 223.710938 451.085938 L 221.910156 451.09375 L 220.191406 450.554688 L 218.722656 449.511719 L 217.640625 448.070313 L 217.054688 446.367188 L 217.015625 444.566406 L 217.386719 441.824219 L 217.050781 440.027344 L 216.164063 438.425781 L 214.132813 436.550781 L 213.011719 435.132813 L 212.378906 433.441406 L 212.296875 431.640625 L 212.769531 429.898438 L 213.757813 428.382813 L 215.160156 427.246094 L 216.839844 426.59375 L 219.160156 426.089844 L 220.636719 425.292969 L 221.753906 424.195313 L 222.539063 422.820313 L 222.921875 421.28125 L 222.867188 419.714844 L 222.347656 418.121094 Z M 212.261719 331.476563 L 212.546875 329.679688 L 213.371094 328.058594 L 214.660156 326.773438 L 216.28125 325.945313 L 218.078125 325.660156 L 221.953125 325.660156 L 223.722656 325.9375 L 225.328125 326.738281 L 226.609375 327.992188 L 227.449219 329.574219 L 227.769531 331.339844 L 227.535156 333.113281 L 226.769531 334.738281 L 225.550781 336.046875 L 223.925781 337.324219 L 222.648438 338.949219 L 221.335938 340.171875 L 219.714844 340.933594 L 217.9375 341.167969 L 216.175781 340.847656 L 214.59375 340.007813 L 213.339844 338.726563 L 212.539063 337.125 L 212.261719 335.355469 Z M 209.28125 302.304688 L 207.605469 301.726563 L 206.183594 300.667969 L 205.144531 299.230469 L 204.585938 297.546875 L 204.566406 295.769531 L 205.078125 294.074219 L 206.078125 292.609375 L 207.171875 291.441406 L 207.792969 290.457031 L 208.171875 289.484375 L 208.480469 287.789063 L 209.175781 285.902344 L 210.472656 284.367188 L 212.21875 283.363281 L 214.199219 283.015625 L 218.078125 283.015625 L 219.980469 283.335938 L 221.671875 284.261719 L 222.96875 285.6875 L 223.730469 287.464844 L 223.867188 289.386719 L 223.640625 291.742188 L 223.945313 293.386719 L 224.644531 294.78125 L 226.25 296.542969 L 227.289063 298.148438 L 227.75 300 L 227.585938 301.902344 L 226.816406 303.652344 L 225.519531 305.054688 L 223.839844 305.964844 L 221.953125 306.277344 L 218.078125 306.277344 L 215.9375 305.871094 L 214.101563 304.707031 L 212.933594 303.613281 L 211.949219 302.992188 L 210.976563 302.613281 Z M 187 444.308594 L 185.890625 442.914063 L 185.253906 441.25 L 185.148438 439.472656 L 185.589844 437.742188 L 185.925781 436.960938 L 190.867188 432.195313 L 193.039063 429.15625 L 193.742188 429.199219 L 195.484375 429.894531 L 196.914063 431.113281 L 198.933594 433.492188 L 201.542969 434.964844 L 202.871094 435.988281 L 203.851563 437.347656 L 204.402344 438.929688 L 204.480469 440.605469 L 204.074219 442.230469 L 203.222656 443.675781 L 201.691406 445.582031 L 200.75 447.835938 L 200.113281 448.871094 L 200.960938 450.03125 L 201.765625 451.625 L 202.574219 452.628906 L 203.480469 453.363281 L 205.1875 454.222656 L 206.574219 455.199219 L 207.621094 456.53125 L 208.238281 458.109375 L 208.371094 459.800781 L 208.015625 461.457031 L 207.074219 463.960938 L 206.976563 465.625 L 207.410156 467.363281 L 208.335938 468.882813 L 208.164063 468.875 L 207.273438 468.058594 L 206.238281 469.769531 L 209.347656 471.054688 L 209.4375 471.273438 L 209.550781 473.144531 L 209.335938 473.9375 L 206.84375 474.453125 L 204.453125 473.097656 L 203.015625 472.699219 L 197.625 472.007813 L 196.175781 472.65625 L 195.679688 473.863281 L 195.832031 474.871094 L 196.757813 475.523438 L 196.488281 476.304688 L 195.917969 475.996094 L 194.851563 473.972656 L 190.289063 470.589844 L 185.898438 468.519531 L 183.984375 468.152344 L 183.242188 467.679688 L 182.132813 466.378906 L 181.449219 464.8125 L 181.25 463.117188 L 181.550781 461.433594 L 182.328125 459.914063 L 183.515625 458.683594 L 184.957031 457.574219 L 186.40625 455.769531 L 187.046875 455.09375 L 189.027344 453.3125 L 189.65625 452.351563 L 190.332031 450.582031 L 191.042969 449.363281 L 190.324219 448.464844 L 189.027344 446.175781 Z M 187.3125 432.25 L 187.359375 432.113281 L 188.503906 430.628906 L 190.0625 429.585938 L 191.191406 429.277344 L 190.570313 429.988281 L 189.222656 431.449219 Z M 192.960938 251.042969 L 192.953125 249.132813 L 193.566406 247.316406 L 194.734375 245.800781 L 196.332031 244.746094 L 198.183594 244.269531 L 200.09375 244.417969 L 201.847656 245.175781 L 203.261719 246.464844 L 204.539063 248.089844 L 206.164063 249.367188 L 207.359375 250.640625 L 208.121094 252.210938 L 208.382813 253.9375 L 208.121094 255.664063 L 207.359375 257.234375 L 206.164063 258.507813 L 204.539063 259.785156 L 203.261719 261.410156 L 201.847656 262.699219 L 200.09375 263.460938 L 198.183594 263.609375 L 196.332031 263.128906 L 194.734375 262.074219 L 193.566406 260.558594 L 192.953125 258.746094 L 192.960938 256.832031 L 193.457031 253.9375 Z M 169.160156 243.953125 L 167.367188 243.878906 L 165.679688 243.261719 L 164.261719 242.160156 L 163.246094 240.679688 L 162.734375 238.960938 L 162.769531 237.164063 L 163.351563 235.464844 L 164.421875 234.023438 L 165.882813 232.980469 L 167.851563 231.988281 L 168.878906 231.101563 L 169.722656 229.902344 L 170.492188 227.851563 L 171.429688 226.21875 L 172.84375 224.972656 L 174.585938 224.242188 L 176.464844 224.109375 L 178.289063 224.582031 L 178.464844 224.695313 L 177.804688 225.21875 L 178.117188 225.714844 L 179.421875 225.324219 L 179.867188 225.617188 L 181.03125 227.097656 L 182.074219 229 L 183.554688 230.582031 L 184.617188 232.179688 L 184.730469 232.625 L 181.046875 235.800781 L 180.578125 237.003906 L 174.761719 240.109375 L 170.214844 238.117188 L 166.480469 238.003906 L 166.738281 239.222656 L 168.246094 240.195313 L 178.0625 241.875 L 179.683594 242.308594 L 178.421875 243.417969 L 176.449219 244.15625 L 174.34375 244.144531 L 171.765625 243.652344 Z M 146.355469 420.644531 L 146.617188 418.921875 L 147.378906 417.351563 L 148.574219 416.078125 L 150.089844 415.214844 L 151.796875 414.84375 L 153.535156 414.992188 L 155.253906 415.410156 L 157.148438 415.460938 L 159.03125 415.824219 L 160.695313 416.785156 L 161.953125 418.234375 L 162.671875 420.011719 L 162.773438 421.925781 L 162.246094 423.773438 L 161.148438 425.34375 L 159.597656 426.472656 L 157.691406 427.425781 L 155.988281 428.910156 L 154.378906 429.902344 L 152.535156 430.328125 L 150.652344 430.136719 L 148.929688 429.351563 L 148.136719 428.609375 L 148.539063 428.378906 L 150.066406 428.890625 L 151.640625 428.421875 L 152.765625 427.832031 L 153.085938 427.097656 L 152.808594 426.597656 L 147.785156 426.460938 L 146.550781 425.71875 L 146.355469 424.523438 Z M 146.355469 420.644531 "/>
<path style=" stroke:none;fill-rule:nonzero;fill:rgb(80.392157%,58.431373%,4.705882%);fill-opacity:1;" d="M 243.277344 378 L 242.992188 379.796875 L 242.167969 381.417969 L 240.878906 382.703125 L 239.257813 383.53125 L 237.460938 383.816406 L 235.664063 383.53125 L 234.042969 382.703125 L 232.757813 381.417969 L 231.929688 379.796875 L 231.644531 378 L 231.929688 376.203125 L 232.757813 374.582031 L 234.042969 373.296875 L 235.664063 372.46875 L 237.460938 372.183594 L 239.257813 372.46875 L 240.878906 373.296875 L 242.167969 374.582031 L 242.992188 376.203125 Z M 243.277344 378 "/>
<path style=" stroke:none;fill-rule:nonzero;fill:rgb(80.392157%,58.431373%,4.705882%);fill-opacity:1;" d="M 235.523438 354.738281 L 235.238281 356.535156 L 234.414063 358.15625 L 233.125 359.441406 L 231.503906 360.269531 L 229.707031 360.554688 L 227.910156 360.269531 L 226.289063 359.441406 L 225.003906 358.15625 L 224.175781 356.535156 L 223.890625 354.738281 L 224.175781 352.941406 L 225.003906 351.320313 L 226.289063 350.035156 L 227.910156 349.207031 L 229.707031 348.921875 L 231.503906 349.207031 L 233.125 350.035156 L 234.414063 351.320313 L 235.238281 352.941406 Z M 235.523438 354.738281 "/>
<path style=" stroke:none;fill-rule:nonzero;fill:rgb(80.392157%,58.431373%,4.705882%);fill-opacity:1;" d="M 247.152344 358.617188 L 246.871094 360.414063 L 246.042969 362.035156 L 244.757813 363.320313 L 243.136719 364.144531 L 241.339844 364.429688 L 239.542969 364.144531 L 237.921875 363.320313 L 236.632813 362.035156 L 235.808594 360.414063 L 235.523438 358.617188 L 235.808594 356.816406 L 236.632813 355.195313 L 237.921875 353.910156 L 239.542969 353.085938 L 241.339844 352.800781 L 243.136719 353.085938 L 244.757813 353.910156 L 246.042969 355.195313 L 246.871094 356.816406 Z M 247.152344 358.617188 "/>
<path style=" stroke:none;fill-rule:nonzero;fill:rgb(80.392157%,58.431373%,4.705882%);fill-opacity:1;" d="M 251.03125 331.476563 L 250.746094 333.273438 L 249.921875 334.894531 L 248.632813 336.183594 L 247.011719 337.007813 L 245.214844 337.292969 L 243.417969 337.007813 L 241.796875 336.183594 L 240.511719 334.894531 L 239.683594 333.273438 L 239.398438 331.476563 L 239.683594 329.679688 L 240.511719 328.058594 L 241.796875 326.773438 L 243.417969 325.945313 L 245.214844 325.660156 L 247.011719 325.945313 L 248.632813 326.773438 L 249.921875 328.058594 L 250.746094 329.679688 Z M 251.03125 331.476563 "/>
<path style=" stroke:none;fill-rule:nonzero;fill:rgb(80.392157%,58.431373%,4.705882%);fill-opacity:1;" d="M 220.015625 358.617188 L 219.730469 360.414063 L 218.90625 362.035156 L 217.617188 363.320313 L 215.996094 364.144531 L 214.199219 364.429688 L 212.402344 364.144531 L 210.78125 363.320313 L 209.496094 362.035156 L 208.667969 360.414063 L 208.382813 358.617188 L 208.667969 356.816406 L 209.496094 355.195313 L 210.78125 353.910156 L 212.402344 353.085938 L 214.199219 352.800781 L 215.996094 353.085938 L 217.617188 353.910156 L 218.90625 355.195313 L 219.730469 356.816406 Z M 220.015625 358.617188 "/>
<path style=" stroke:none;fill-rule:nonzero;fill:rgb(80.392157%,58.431373%,4.705882%);fill-opacity:1;" d="M 297.554688 397.382813 L 297.269531 399.183594 L 296.441406 400.804688 L 295.15625 402.089844 L 293.535156 402.914063 L 291.738281 403.199219 L 289.941406 402.914063 L 288.320313 402.089844 L 287.035156 400.804688 L 286.207031 399.183594 L 285.921875 397.382813 L 286.207031 395.585938 L 287.035156 393.964844 L 288.320313 392.679688 L 289.941406 391.855469 L 291.738281 391.570313 L 293.535156 391.855469 L 295.15625 392.679688 L 296.441406 393.964844 L 297.269531 395.585938 Z M 297.554688 397.382813 "/>
<path style=" stroke:none;fill-rule:nonzero;fill:rgb(80.392157%,58.431373%,4.705882%);fill-opacity:1;" d="M 161.863281 250.0625 L 161.578125 251.859375 L 160.75 253.480469 L 159.464844 254.765625 L 157.84375 255.59375 L 156.046875 255.875 L 154.25 255.59375 L 152.628906 254.765625 L 151.339844 253.480469 L 150.515625 251.859375 L 150.230469 250.0625 L 150.515625 248.265625 L 151.339844 246.644531 L 152.628906 245.355469 L 154.25 244.53125 L 156.046875 244.246094 L 157.84375 244.53125 L 159.464844 245.355469 L 160.75 246.644531 L 161.578125 248.265625 Z M 161.863281 250.0625 "/>
<path style=" stroke:none;fill-rule:nonzero;fill:rgb(80.392157%,58.431373%,4.705882%);fill-opacity:1;" d="M 154.109375 172.523438 L 153.824219 174.320313 L 152.996094 175.941406 L 151.710938 177.226563 L 150.089844 178.054688 L 148.292969 178.339844 L 146.496094 178.054688 L 144.875 177.226563 L 143.585938 175.941406 L 142.761719 174.320313 L 142.476563 172.523438 L 142.761719 170.726563 L 143.585938 169.105469 L 144.875 167.816406 L 146.496094 166.992188 L 148.292969 166.707031 L 150.089844 166.992188 L 151.710938 167.816406 L 152.996094 169.105469 L 153.367188 169.832031 L 152.441406 170.8125 L 151.949219 171.945313 L 152.140625 172.144531 L 153.808594 170.695313 L 153.824219 170.726563 Z M 154.109375 172.523438 "/>
<path style=" stroke:none;fill-rule:nonzero;fill:rgb(80.392157%,58.431373%,4.705882%);fill-opacity:1;" d="M 278.167969 440.03125 L 277.882813 441.828125 L 277.058594 443.449219 L 275.773438 444.734375 L 274.152344 445.5625 L 272.355469 445.847656 L 270.558594 445.5625 L 268.9375 444.734375 L 267.648438 443.449219 L 266.824219 441.828125 L 266.539063 440.03125 L 266.824219 438.234375 L 267.648438 436.613281 L 268.9375 435.324219 L 270.558594 434.5 L 272.355469 434.214844 L 274.097656 434.492188 L 272.609375 436.117188 L 274.253906 436.015625 L 274.980469 434.921875 L 275.773438 435.324219 L 277.058594 436.613281 L 277.542969 437.566406 L 277.390625 437.65625 L 277.921875 438.476563 Z M 278.167969 440.03125 "/>
<path style=" stroke:none;fill-rule:nonzero;fill:rgb(80.392157%,58.431373%,4.705882%);fill-opacity:1;" d="M 282.046875 440.03125 L 281.761719 441.828125 L 280.933594 443.449219 L 279.648438 444.734375 L 278.027344 445.5625 L 276.230469 445.847656 L 274.433594 445.5625 L 272.8125 444.734375 L 271.527344 443.449219 L 270.699219 441.828125 L 270.414063 440.03125 L 270.699219 438.234375 L 271.527344 436.613281 L 272.8125 435.324219 L 273.789063 434.828125 L 272.609375 436.117188 L 274.253906 436.015625 L 275.152344 434.667969 L 276.683594 434.363281 L 277.101563 434.351563 L 278.027344 434.5 L 279.648438 435.324219 L 280.660156 436.335938 L 279.554688 436.347656 L 277.390625 437.65625 L 277.96875 438.546875 L 281.382813 438.964844 L 281.898438 439.09375 Z M 282.046875 440.03125 "/>
<path style=" stroke:none;fill-rule:nonzero;fill:rgb(80.392157%,58.431373%,4.705882%);fill-opacity:1;" d="M 289.800781 440.03125 L 289.515625 441.828125 L 288.6875 443.449219 L 287.402344 444.734375 L 285.78125 445.5625 L 283.984375 445.847656 L 282.1875 445.5625 L 280.566406 444.734375 L 279.28125 443.449219 L 278.453125 441.828125 L 278.167969 440.03125 L 278.394531 438.601563 L 281.382813 438.964844 L 286.863281 440.339844 L 289.394531 439.9375 L 289.753906 439.726563 Z M 279.53125 436.359375 L 280.566406 435.324219 L 281.152344 435.027344 L 281.828125 435.589844 L 281.691406 436.328125 L 279.554688 436.347656 Z M 286.679688 439.636719 L 283.058594 438.976563 L 282.164063 437.605469 L 282.484375 436.070313 L 286.839844 437.054688 L 287.960938 438.832031 Z M 286.679688 439.636719 "/>
<path style=" stroke:none;fill-rule:nonzero;fill:rgb(80.392157%,58.431373%,4.705882%);fill-opacity:1;" d="M 150.230469 358.617188 L 149.945313 360.414063 L 149.121094 362.035156 L 147.832031 363.320313 L 146.664063 363.917969 L 146.109375 363.875 L 144.195313 361.613281 L 142.050781 357.363281 L 142.207031 353.292969 L 142.617188 353.085938 L 144.414063 352.800781 L 146.210938 353.085938 L 147.832031 353.910156 L 149.121094 355.195313 L 149.945313 356.816406 Z M 139.039063 356.515625 L 139.710938 355.195313 L 140.597656 355.164063 L 141.484375 356.3125 L 142.226563 358.1875 L 141.734375 358.875 L 141.003906 358.070313 L 139.230469 356.960938 Z M 139.039063 356.515625 "/>
<path style=" stroke:none;fill-rule:nonzero;fill:rgb(80.392157%,58.431373%,4.705882%);fill-opacity:1;" d="M 243.09375 305.496094 L 242.992188 306.136719 L 242.167969 307.757813 L 240.878906 309.042969 L 239.257813 309.871094 L 237.460938 310.152344 L 235.664063 309.871094 L 234.042969 309.042969 L 232.757813 307.757813 L 231.929688 306.136719 L 231.644531 304.339844 L 231.929688 302.542969 L 232.757813 300.921875 L 232.925781 300.75 Z M 243.09375 305.496094 "/>
<path style=" stroke:none;fill-rule:nonzero;fill:rgb(80.392157%,58.431373%,4.705882%);fill-opacity:1;" d="M 150.230469 455.539063 L 149.945313 457.335938 L 149.121094 458.957031 L 147.832031 460.242188 L 146.210938 461.070313 L 144.414063 461.355469 L 142.617188 461.070313 L 140.996094 460.242188 L 139.710938 458.957031 L 139.222656 458 L 139.796875 454.753906 L 142.492188 455.105469 L 144.269531 456.015625 L 145.761719 455.429688 L 148.429688 452.488281 L 148.355469 451.355469 L 149.121094 452.121094 L 149.945313 453.742188 Z M 150.230469 455.539063 "/>
<path style=" stroke:none;fill-rule:nonzero;fill:rgb(80.392157%,58.431373%,4.705882%);fill-opacity:1;" d="M 290.25 453.78125 L 290.085938 453.457031 L 289.800781 451.660156 L 290.085938 449.863281 L 290.910156 448.242188 L 292.195313 446.957031 L 293.816406 446.128906 L 295.617188 445.847656 L 297.414063 446.128906 L 299.035156 446.957031 L 300.144531 448.070313 L 299.394531 449.050781 L 296.972656 450.242188 L 295.839844 450.375 L 292.621094 451.640625 L 291.179688 452.742188 Z M 290.25 453.78125 "/>
<path style=" stroke:none;fill-rule:nonzero;fill:rgb(80.392157%,58.431373%,4.705882%);fill-opacity:1;" d="M 263.160156 464.953125 L 263.773438 463.75 L 265.058594 462.464844 L 266.679688 461.636719 L 268.476563 461.355469 L 270.273438 461.636719 L 271.894531 462.464844 L 273.039063 463.609375 L 272.597656 463.816406 L 270.539063 466.589844 L 269.761719 466.949219 Z M 263.160156 464.953125 "/>
</g>
</svg>
