<?xml version="1.0" encoding="UTF-8"?>
<svg xmlns="http://www.w3.org/2000/svg" xmlns:xlink="http://www.w3.org/1999/xlink" width="378pt" height="504pt" viewBox="0 0 378 504" version="1.1">
<g id="data">
<rect x="0" y="0" width="378" height="504" style="fill:rgb(100%,100%,100%);fill-opacity:1;stroke:none;"/>
<path style=" stroke:none;fill-rule:nonzero;fill:rgb(100%,100%,100%);fill-opacity:1;" d="M 53.308594 504 L 324.691406 504 L 324.691406 0 L 53.308594 0 Z M 53.308594 504 "/>
<path style=" stroke:none;fill-rule:nonzero;fill:rgb(22.745098%,53.333333%,16.078431%);fill-opacity:1;" d="M 241.339844 358.617188 L 244.554688 359.382813 L 247.730469 359.242188 L 250.863281 358.1875 L 253.574219 356.292969 L 253.207031 360.363281 L 254.273438 364.308594 L 255.460938 366.289063 L 256.917969 367.910156 L 258.652344 369.226563 L 260.722656 370.246094 L 260.929688 372.421875 L 261.238281 373.492188 L 260.601563 374.816406 L 261.574219 374.597656 L 262.527344 376.464844 L 263.863281 378.191406 L 265.601563 379.714844 L 267.726563 380.917969 L 269.925781 381.621094 L 272.355469 381.875 L 274.5 383.878906 L 277.195313 385.324219 L 280.558594 386.046875 L 283.984375 385.753906 L 284.367188 389.433594 L 285.882813 392.8125 L 288.488281 395.617188 L 291.738281 397.382813 L 288.359375 397.3125 L 284.183594 398.304688 L 281.09375 400.273438 L 278.8125 403.019531 L 277.457031 406.339844 L 277.191406 410.042969 L 278.105469 413.640625 L 280.109375 416.769531 L 278.265625 415.175781 L 276.132813 414 L 273.800781 413.296875 L 271.375 413.089844 L 268.960938 413.394531 L 266.660156 414.195313 L 264.578125 415.460938 L 262.804688 417.128906 L 261.542969 418.90625 L 260.207031 421.679688 L 259.304688 425.023438 L 259.53125 428.984375 L 261.074219 432.640625 L 262.691406 434.632813 L 266.171875 437.625 L 267.988281 438.785156 L 269.988281 439.585938 L 273.476563 440.164063 L 276.230469 440.03125 L 279.726563 440.691406 L 281.886719 440.558594 L 283.984375 440.03125 L 285.503906 441.9375 L 287.5 443.554688 L 289.800781 444.699219 L 292.164063 445.289063 L 295.878906 445.214844 L 299.492188 443.90625 L 298.71875 447.234375 L 297.464844 449.578125 L 296.863281 450.253906 L 295.839844 450.375 L 294.453125 450.917969 L 292.386719 449.601563 L 288.789063 448.710938 L 284.972656 449.027344 L 281.464844 450.566406 L 278.804688 452.960938 L 277.046875 455.933594 L 276.144531 460.039063 L 276.207031 462.453125 L 274.789063 462.777344 L 272.597656 463.816406 L 272.15625 464.414063 L 271.980469 464.480469 L 270.148438 465.617188 L 268.972656 466.710938 L 267.511719 466.269531 L 266.332031 465.167969 L 263.875 463.816406 L 260.402344 463.007813 L 256.847656 463.292969 L 254.722656 460.890625 L 252.136719 459.210938 L 249.074219 458.25 L 245.996094 458.148438 L 243.484375 458.683594 L 241.152344 459.761719 L 239.109375 461.320313 L 237.460938 463.292969 L 231.496094 463.171875 L 231.378906 463.496094 L 232.179688 464.394531 L 230.511719 465.121094 L 229.734375 465.828125 L 226.691406 465.496094 L 220.796875 467.9375 L 218.636719 467.4375 L 215.945313 467.449219 L 212.972656 468.214844 L 212.257813 468.628906 L 210.222656 468.96875 L 208.164063 468.875 L 207.273438 468.058594 L 206.238281 469.769531 L 209.09375 470.949219 L 207.96875 472.109375 L 206.734375 474.390625 L 204.453125 473.097656 L 203.015625 472.699219 L 197.625 472.007813 L 196.175781 472.65625 L 195.679688 473.863281 L 195.78125 474.523438 L 195.257813 474.742188 L 194.851563 473.972656 L 194.707031 473.867188 L 194.433594 471.242188 L 192.917969 467.867188 L 190.3125 465.058594 L 187.0625 463.292969 L 189.992188 460.746094 L 192.035156 457.992188 L 193.050781 456.066406 L 193.921875 452.078125 L 193.320313 447.910156 L 191.820313 444.945313 L 189.4375 442.445313 L 186.429688 440.753906 L 183.183594 440.03125 L 185.617188 438.054688 L 188.496094 434.480469 L 190.867188 432.195313 L 195.792969 425.3125 L 197.929688 424.472656 L 198.285156 423.78125 L 198.070313 423.238281 L 197.8125 423.082031 L 196.09375 424.355469 L 192.90625 427.300781 L 190.601563 429.953125 L 190.9375 428.398438 L 192.140625 425.441406 L 192.46875 421.753906 L 191.964844 419.113281 L 190.9375 416.769531 L 191.605469 412.890625 L 190.9375 409.015625 L 195.128906 409.234375 L 197.246094 408.753906 L 199.234375 407.890625 L 201.605469 406.164063 L 204.417969 403.054688 L 205.804688 400.351563 L 206.445313 397.382813 L 208.933594 398.425781 L 211.464844 398.859375 L 214.027344 398.726563 L 216.5 398.035156 L 219.96875 395.859375 L 221.953125 393.507813 L 224.386719 391.53125 L 225.832031 389.628906 L 225.160156 393.800781 L 225.417969 395.972656 L 226.078125 398.054688 L 227.113281 399.980469 L 228.492188 401.675781 L 231.949219 404.101563 L 235.023438 405.023438 L 237.460938 405.136719 L 240.191406 405.746094 L 242.609375 405.734375 L 248.578125 404.367188 L 250.632813 403.316406 L 252.527344 401.792969 L 254.269531 399.582031 L 255.429688 397.015625 L 255.941406 394.246094 L 255.769531 391.433594 L 254.761719 388.398438 L 251.882813 383.574219 L 250.457031 381.761719 L 248.59375 380.191406 L 246.445313 379.046875 L 244.101563 378.375 L 241.675781 378.203125 L 239.261719 378.539063 L 235.960938 379.929688 L 233.585938 381.875 L 230.304688 383.46875 L 228.320313 385.21875 L 228.8125 381.332031 L 228.027344 377.617188 L 230.179688 378.425781 L 232.449219 378.796875 L 234.746094 378.710938 L 236.980469 378.179688 L 239.203125 377.179688 L 241.074219 375.832031 L 242.648438 374.144531 L 243.855469 372.179688 L 244.921875 368.625 L 244.8125 364.921875 L 243.542969 361.4375 Z M 228.726563 466.742188 L 227.675781 467.695313 L 225.832031 471.046875 L 223.667969 469.238281 L 222.914063 468.863281 L 227.316406 466.367188 Z M 175.429688 222.921875 L 177.890625 225.140625 L 177.898438 225.144531 L 177.804688 225.21875 L 178.117188 225.714844 L 178.703125 225.539063 L 180.753906 226.539063 L 183.890625 227.105469 L 187.0625 226.800781 L 187.113281 231.183594 L 187.4375 232.3125 L 187.070313 232.078125 L 185.40625 232.042969 L 181.046875 235.800781 L 180.578125 237.003906 L 174.761719 240.109375 L 170.214844 238.117188 L 168.550781 238.066406 L 170.402344 237.300781 L 172.847656 235.425781 L 174.84375 232.753906 L 175.996094 229.625 L 176.203125 226.167969 Z M 190.804688 238.285156 L 190.9375 238.429688 L 192.640625 241.863281 L 195.050781 244.332031 L 197.605469 245.796875 L 200.664063 246.691406 L 203.589844 246.804688 L 205.855469 246.3125 L 206.1875 246.496094 L 204.96875 247.964844 L 203.921875 249.878906 L 203.226563 252.085938 L 202.980469 254.382813 L 203.195313 256.6875 L 203.859375 258.898438 L 204.949219 260.9375 L 206.421875 262.722656 L 208.984375 264.644531 L 211.851563 265.765625 L 215.042969 266.089844 L 218.078125 265.570313 L 215.757813 267.597656 L 214.050781 270.164063 L 213.105469 272.960938 L 212.902344 276.035156 L 213.390625 278.6875 L 214.414063 281.042969 L 216.015625 283.210938 L 218.078125 284.953125 L 217.914063 293.402344 L 218.75 296.210938 L 220.261719 298.726563 L 224.328125 303.152344 L 226.132813 304.382813 L 228.132813 305.253906 L 230.519531 305.765625 L 232.957031 305.769531 L 235.222656 305.304688 L 237.460938 304.339844 L 237.667969 306.511719 L 238.324219 308.730469 L 239.402344 310.773438 L 240.867188 312.5625 L 242.65625 314.027344 L 244.699219 315.109375 L 246.917969 315.765625 L 249.09375 315.96875 L 247.371094 317.3125 L 245.929688 318.953125 L 244.820313 320.832031 L 244.082031 322.890625 L 243.734375 325.175781 L 243.828125 327.355469 L 244.328125 329.480469 L 245.214844 331.476563 L 242.992188 328.992188 L 240.152344 327.238281 L 236.9375 326.363281 L 233.601563 326.433594 L 230.65625 327.34375 L 228.152344 328.910156 L 224.515625 332.851563 L 223.085938 335.09375 L 222.234375 337.476563 L 221.664063 341.125 L 221.753906 343.546875 L 222.296875 345.78125 L 224.300781 349.324219 L 227.449219 352.941406 L 230.367188 355.464844 L 227.960938 356.328125 L 225.800781 357.691406 L 223.992188 359.496094 L 222.675781 361.535156 L 221.8125 363.804688 L 221.433594 366.332031 L 221.617188 368.878906 L 222.339844 371.414063 L 219.957031 370.546875 L 217.203125 370.132813 L 210.324219 370.246094 L 208.617188 368.074219 L 206.445313 366.371094 L 209.347656 365.03125 L 211.777344 362.949219 L 213.191406 360.96875 L 214.199219 358.617188 L 215.992188 357.152344 L 217.457031 355.363281 L 218.921875 352.222656 L 219.402344 349.050781 L 218.960938 345.746094 L 217.164063 342.0625 L 214.199219 339.230469 L 214.847656 336.09375 L 214.613281 332.898438 L 213.519531 329.890625 L 211.730469 327.386719 L 215.339844 326.589844 L 218.515625 324.699219 L 220.4375 322.652344 L 221.953125 319.847656 L 224.097656 317.136719 L 225.226563 314.417969 L 225.636719 311.371094 L 225.265625 308.449219 L 224.175781 305.714844 L 221.59375 302.542969 L 218.078125 300.460938 L 215.78125 298.472656 L 213.171875 297.183594 L 210.324219 296.585938 L 210.621094 293.285156 L 209.9375 289.914063 L 208.371094 286.996094 L 205.90625 284.414063 L 204.207031 283.09375 L 202.289063 282.109375 L 200.226563 281.496094 L 197.957031 281.273438 L 198.6875 277.578125 L 198.242188 273.273438 L 197.128906 270.6875 L 195.519531 268.539063 L 193.351563 266.746094 L 190.9375 265.570313 L 191.597656 262.074219 L 191.46875 259.914063 L 190.9375 257.816406 L 191.566406 254.929688 L 191.449219 251.980469 L 190.0625 248.121094 L 187.425781 244.984375 L 184.226563 243.089844 L 183.492188 242.933594 L 186.398438 241.730469 L 187.519531 239.417969 L 188.617188 238.355469 L 189.539063 238.171875 Z M 179.839844 242.347656 L 176.117188 242.566406 L 172.339844 244.140625 L 169.5 246.722656 L 167.65625 250.085938 L 167.003906 253.996094 L 167.664063 257.777344 L 166.121094 254.847656 L 163.714844 252.390625 L 160.085938 250.546875 L 156.046875 250.0625 L 154.339844 247.890625 L 152.167969 246.183594 L 158.21875 246.105469 L 162.109375 244.871094 L 163.933594 243.683594 L 165.503906 242.179688 L 166.765625 240.40625 L 167.179688 239.507813 L 168.246094 240.195313 L 178.0625 241.875 Z M 182.566406 315 L 183.183594 312.09375 L 186.402344 312.738281 L 184.375 313.683594 Z M 175.429688 296.585938 L 175.429688 288.832031 L 177.980469 289.921875 L 180.585938 290.371094 L 177.492188 292.96875 Z M 170.242188 356.429688 L 170.382813 356.246094 L 171.742188 355.589844 L 172.25 357.859375 Z M 145.910156 455.265625 L 146.660156 455.128906 L 148.667969 454.347656 L 150.597656 453.132813 L 152.167969 451.660156 L 156.046875 451.660156 L 155.394531 454.886719 L 153.222656 455.21875 L 150.472656 456.144531 L 148.574219 457.222656 L 146.816406 458.726563 L 144.882813 461.445313 L 143.800781 464.597656 L 143.757813 468.695313 L 145.300781 473.320313 L 147.695313 476.488281 L 151.019531 478.664063 L 153.726563 479.460938 L 156.421875 479.59375 L 159.074219 479.097656 L 161.789063 477.953125 L 164.417969 475.921875 L 166.304688 473.347656 L 167.417969 470.351563 L 167.675781 467.167969 L 171.554688 467.167969 L 169.554688 469.3125 L 168.199219 471.773438 L 167.394531 475.246094 L 167.429688 475.707031 L 167.203125 476.179688 L 165.257813 481.875 L 164.988281 482.300781 L 164.175781 484.433594 L 163.949219 485.699219 L 163.691406 486.460938 L 161.507813 484.5625 L 158.773438 483.234375 L 155.050781 482.550781 L 152.167969 482.675781 L 150.070313 481.726563 L 147.824219 481.210938 L 144.125 481.335938 L 140.539063 482.675781 L 136.660156 482.011719 L 132.785156 482.675781 L 134.683594 481.234375 L 136.660156 478.800781 L 139.015625 476.816406 L 141.089844 473.582031 L 141.859375 471 L 142.011719 468.308594 L 141.578125 465.777344 L 140.539063 463.292969 L 142.011719 461.71875 L 143.226563 459.789063 L 144.042969 457.660156 L 144.335938 455.988281 L 145.761719 455.429688 Z M 152.167969 420.644531 L 154.488281 421.207031 L 156.996094 421.273438 L 154.324219 422.625 L 152.167969 424.523438 Z M 117.277344 494.308594 L 119.363281 493.445313 L 121.339844 492.117188 L 120.84375 495.203125 L 121.082031 497.507813 L 120.660156 497.648438 L 120.609375 497.753906 L 118.984375 496.476563 Z M 117.277344 494.308594 "/>
</g>
</svg>
