<?xml version="1.0" encoding="UTF-8"?>
<svg xmlns="http://www.w3.org/2000/svg" xmlns:xlink="http://www.w3.org/1999/xlink" width="378pt" height="504pt" viewBox="0 0 378 504" version="1.1">
<g id="data">
<rect x="0" y="0" width="378" height="504" style="fill:rgb(100%,100%,100%);fill-opacity:1;stroke:none;"/>
<path style=" stroke:none;fill-rule:nonzero;fill:rgb(100%,100%,100%);fill-opacity:1;" d="M 53.308594 504 L 324.691406 504 L 324.691406 0 L 53.308594 0 Z M 53.308594 504 "/>
<path style=" stroke:none;fill-rule:nonzero;fill:rgb(22.745098%,53.333333%,16.078431%);fill-opacity:1;" d="M 138.894531 461.46875 L 139.414063 461.492188 L 141.097656 462.125 L 142.503906 463.238281 L 143.507813 464.730469 L 144.003906 466.457031 L 143.953125 468.25 L 143.464844 470.875 L 143.695313 472.738281 L 144.242188 474.050781 L 147.511719 479.3125 L 148.25 481.125 L 148.304688 482.277344 L 149.574219 481.351563 L 151.429688 480.785156 L 153.636719 480.503906 L 154.925781 479.996094 L 156.066406 479.179688 L 156.957031 478.140625 L 157.601563 476.8125 L 158.058594 473.996094 L 158.386719 472.792969 L 159.378906 470.273438 L 159.511719 469.1875 L 159.4375 468.273438 L 158.34375 465.300781 L 158.097656 464.433594 L 157.667969 462.285156 L 157.316406 461.484375 L 156.285156 460.113281 L 155.0625 459.183594 L 153.359375 458.550781 L 151.589844 458.464844 L 149.882813 458.921875 L 147.628906 460.367188 L 145.929688 461.105469 L 144.085938 461.273438 L 142.28125 460.855469 L 140.699219 459.886719 L 139.503906 458.46875 L 139.253906 457.839844 L 139.796875 454.753906 L 142.492188 455.105469 L 144.269531 456.015625 L 145.761719 455.429688 L 148.429688 452.488281 L 148.105469 447.519531 L 151.105469 446.613281 L 155.175781 446.390625 L 156.085938 446.816406 L 157.347656 447.101563 L 158.621094 447.101563 L 159.882813 446.816406 L 160.953125 446.316406 L 161.347656 446.015625 L 164.597656 446.761719 L 166.046875 446.148438 L 167.527344 446.515625 L 169.484375 447.285156 L 170.039063 448.109375 L 170.757813 448.421875 L 173.15625 448.464844 L 180.570313 447.503906 L 181.109375 445.632813 L 181.210938 443.15625 L 182.519531 440.25 L 190.867188 432.195313 L 195.792969 425.3125 L 197.929688 424.472656 L 198.285156 423.78125 L 198.070313 423.238281 L 197.8125 423.082031 L 196.09375 424.355469 L 192.90625 427.300781 L 190.570313 429.988281 L 189.222656 431.449219 L 185.628906 432.957031 L 183.714844 433.246094 L 182.441406 433.0625 L 178.394531 435.230469 L 177.398438 436.808594 L 177.039063 438.671875 L 176.445313 439.273438 L 174.058594 439.917969 L 170.558594 439.851563 L 166.820313 439 L 166.347656 438.652344 L 165.789063 438.058594 L 165.742188 436.3125 L 165.96875 434.527344 L 166.734375 432.898438 L 167.957031 431.582031 L 169.582031 430.304688 L 170.859375 428.683594 L 172.464844 427.273438 L 174.46875 426.542969 L 177.316406 426.066406 L 178.972656 425.175781 L 180.042969 424.09375 L 180.867188 422.601563 L 181.144531 421.574219 L 181.226563 420.488281 L 180.863281 418.132813 L 179.898438 416.390625 L 177.492188 414.339844 L 176.257813 412.871094 L 175.566406 411.078125 L 175.5 409.160156 L 176.058594 407.324219 L 177.1875 405.769531 L 178.757813 404.667969 L 180.605469 404.136719 L 182.523438 404.238281 L 184.558594 404.6875 L 185.988281 404.65625 L 187.230469 404.347656 L 190 403.148438 L 191.164063 402.410156 L 191.976563 401.625 L 192.621094 400.695313 L 193.335938 399 L 194.214844 397.550781 L 195.476563 396.414063 L 197.011719 395.695313 L 198.691406 395.445313 L 202.570313 395.445313 L 203.519531 395.523438 L 206.691406 396.050781 L 211.445313 395.453125 L 213.390625 394.882813 L 214.761719 393.996094 L 215.882813 392.679688 L 216.558594 391.105469 L 216.738281 389.40625 L 216.246094 386.863281 L 216.179688 385.050781 L 216.679688 383.304688 L 217.691406 381.800781 L 219.117188 380.675781 L 220.820313 380.050781 L 222.769531 379.660156 L 224.003906 379.105469 L 225.011719 378.347656 L 226.585938 376.664063 L 227.367188 375.246094 L 227.914063 372.832031 L 228.621094 371.09375 L 229.84375 369.671875 L 232.160156 367.722656 L 234.574219 364.898438 L 235.164063 363.921875 L 235.730469 361.839844 L 235.535156 359.011719 L 235.742188 357.035156 L 236.601563 355.242188 L 238.929688 351.972656 L 240.089844 350.761719 L 241.542969 349.933594 L 243.089844 349.324219 L 245.214844 348.921875 L 249.09375 348.921875 L 251.308594 349.363281 L 253.445313 350.242188 L 254.859375 350.433594 L 256.382813 350.238281 L 258.503906 349.363281 L 260.332031 348.9375 L 262.199219 349.113281 L 263.914063 349.875 L 265.128906 350.992188 L 266.046875 352.214844 L 268.980469 359.304688 L 269.535156 362.402344 L 269.210938 365.21875 L 267.285156 366.972656 L 266.007813 367.402344 L 262.761719 367.96875 L 261.792969 368.390625 L 261.09375 368.863281 L 259.636719 370.582031 L 258.820313 372.808594 L 258.179688 378.140625 L 259.027344 383.429688 L 259.394531 384.414063 L 259.953125 385.328125 L 260.75 386.199219 L 261.601563 386.828125 L 262.65625 387.328125 L 263.878906 387.628906 L 266.449219 387.84375 L 269.257813 387.707031 L 271.550781 387.101563 L 273.28125 385.929688 L 273.855469 385.265625 L 274.273438 384.550781 L 274.910156 382.058594 L 274.867188 380.953125 L 274.25 377.972656 L 273.070313 375.109375 L 272.734375 373.660156 L 273.40625 371.914063 L 274.707031 370.632813 L 277.851563 370.085938 L 283.34375 370.234375 L 284.253906 370.867188 L 284.929688 370.832031 L 286.230469 372.410156 L 287.480469 373.351563 L 288.515625 374.355469 L 289.96875 376.160156 L 291.40625 377.265625 L 292.972656 379.097656 L 294.289063 381.527344 L 295.742188 382.890625 L 296.667969 383.378906 L 297.835938 383.714844 L 301.125 383.957031 L 302.960938 383.828125 L 304.851563 384.007813 L 306.585938 384.785156 L 306.78125 384.96875 L 307.179688 391.25 L 306.777344 393.191406 L 306.890625 393.976563 L 305.789063 396.917969 L 303.519531 407.832031 L 297.144531 414.53125 L 295.578125 412.011719 L 292.742188 410.515625 L 292.480469 410.636719 L 293.898438 413.703125 L 295.890625 416.628906 L 296.3125 416.765625 L 296.164063 417.742188 L 294.574219 419.804688 L 292.191406 421.289063 L 290.003906 421.65625 L 289.660156 421.574219 L 288.214844 419.332031 L 284.976563 421.730469 L 280.71875 424.230469 L 282.339844 425.378906 L 285.105469 424.398438 L 286.097656 423.375 L 286.894531 423.164063 L 287.328125 423.710938 L 287.632813 428.84375 L 285.6875 430.875 L 283.441406 432.558594 L 282.84375 432.699219 L 279.644531 432.160156 L 274.75 433.78125 L 272.609375 436.117188 L 274.253906 436.015625 L 275.152344 434.667969 L 276.683594 434.363281 L 278.285156 434.328125 L 281.054688 434.949219 L 281.828125 435.589844 L 281.691406 436.328125 L 279.554688 436.347656 L 277.390625 437.65625 L 277.96875 438.546875 L 281.382813 438.964844 L 286.863281 440.339844 L 289.394531 439.9375 L 291.074219 438.957031 L 299.742188 437.757813 L 300.988281 440.148438 L 300.773438 446.324219 L 300.335938 447.820313 L 299.394531 449.050781 L 296.972656 450.242188 L 295.839844 450.375 L 292.621094 451.640625 L 291.179688 452.742188 L 289.847656 454.226563 L 289.460938 455.09375 L 289.214844 456.324219 L 289.464844 457.886719 L 286.253906 458.289063 L 284.1875 457.9375 L 281.042969 460.90625 L 278.484375 461.933594 L 274.789063 462.777344 L 272.597656 463.816406 L 270.539063 466.589844 L 269.761719 466.949219 L 259.269531 463.777344 L 256.070313 463.507813 L 244.628906 465.699219 L 242.703125 466.390625 L 242.113281 466.964844 L 241.902344 467.984375 L 241.359375 468.164063 L 238.210938 466.1875 L 238.632813 465.4375 L 239.46875 464.933594 L 237.714844 463.296875 L 231.496094 463.171875 L 231.378906 463.496094 L 232.574219 464.835938 L 232.214844 465.75 L 231.738281 466.042969 L 226.691406 465.496094 L 219.566406 468.449219 L 217.054688 467.824219 L 210.222656 468.96875 L 208.164063 468.875 L 207.273438 468.058594 L 206.238281 469.769531 L 209.429688 471.089844 L 209.714844 470.9375 L 210.1875 472.128906 L 209.566406 473.890625 L 206.84375 474.453125 L 204.453125 473.097656 L 203.015625 472.699219 L 197.625 472.007813 L 196.175781 472.65625 L 195.679688 473.863281 L 195.832031 474.871094 L 196.757813 475.523438 L 196.488281 476.304688 L 195.917969 475.996094 L 194.851563 473.972656 L 190.289063 470.589844 L 185.898438 468.519531 L 183.121094 467.984375 L 181.648438 469.066406 L 176.207031 469.78125 L 174.339844 470.335938 L 168.992188 473.234375 L 168.214844 474.070313 L 167.203125 476.179688 L 162.746094 489.226563 L 160.929688 490.242188 L 158.269531 489.722656 L 157.554688 489.058594 L 156.527344 486.851563 L 154.683594 485.4375 L 153.613281 485.542969 L 152.417969 486.300781 L 151.738281 486.164063 L 148.46875 482.535156 L 142.796875 482.960938 L 141.527344 483.375 L 140.734375 484.175781 L 139.910156 484.507813 L 134.507813 484.320313 L 132.167969 484.859375 L 129.414063 488.195313 L 126.714844 489.746094 L 124.039063 490.597656 L 123.132813 494.289063 L 123.664063 495.292969 L 123.496094 496.125 L 122.722656 496.945313 L 120.660156 497.648438 L 119.628906 499.730469 L 118.675781 498.910156 L 117.96875 497.691406 L 118.09375 496.4375 L 117.15625 494.691406 L 115.984375 493.691406 L 112.253906 492.070313 L 111.769531 492.019531 L 112.042969 490.429688 L 111.644531 488.117188 L 111.738281 488.078125 L 112.199219 488.253906 L 112.445313 488.9375 L 113.574219 489.15625 L 118.144531 485.910156 L 121.425781 483.085938 L 124.375 479.769531 L 125.210938 477.886719 L 124.875 476.421875 L 125.640625 474.519531 L 128.386719 473.238281 L 132.105469 472.640625 L 132.679688 471.785156 L 133.257813 469.527344 L 135.859375 467.5625 L 138.636719 464.640625 Z M 216.320313 286.902344 L 216.796875 285.164063 L 217.78125 283.65625 L 219.179688 282.519531 L 220.855469 281.871094 L 221.917969 281.804688 L 222.984375 284.039063 L 223.773438 285.027344 L 225.828125 293.679688 L 225.679688 293.816406 L 224.09375 294.5625 L 222.355469 294.804688 L 220.628906 294.515625 L 220.144531 294.359375 L 218.398438 293.433594 L 217.0625 291.976563 L 216.292969 290.152344 L 216.175781 288.179688 Z M 125.058594 418.746094 L 126.652344 418.9375 L 128.355469 419.753906 L 129.707031 421.066406 L 130.933594 422.726563 L 131.125 423.105469 L 130.640625 424.257813 L 127.769531 424.613281 L 122.949219 424.152344 L 121.496094 423.164063 L 124.125 421.78125 L 125.167969 421.753906 L 125.464844 421.238281 Z M 131.757813 424.347656 L 131.804688 424.441406 L 132.070313 426.347656 L 131.863281 427.398438 L 131.648438 427.453125 L 129.4375 429.378906 L 126.53125 428.132813 L 127.425781 426.082031 L 128.796875 425.832031 Z M 286.679688 439.636719 L 283.058594 438.976563 L 282.164063 437.605469 L 282.484375 436.070313 L 286.839844 437.054688 L 287.960938 438.832031 Z M 236.835938 466.113281 L 235.136719 465.644531 L 236.523438 463.683594 L 237.195313 464.164063 L 237.5 465.839844 Z M 228.117188 474.644531 L 222.296875 470.886719 L 220.207031 471.1875 L 221.476563 469.683594 L 227.316406 466.367188 L 232.550781 467.761719 L 234.171875 469.894531 L 231.242188 473.621094 L 229.960938 474.269531 Z M 228.117188 474.644531 "/>
<path style=" stroke:none;fill-rule:nonzero;fill:rgb(80.392157%,58.431373%,4.705882%);fill-opacity:1;" d="M 243.277344 319.847656 L 242.992188 321.644531 L 242.167969 323.265625 L 240.878906 324.550781 L 239.257813 325.375 L 237.460938 325.660156 L 235.664063 325.375 L 234.042969 324.550781 L 232.757813 323.265625 L 231.929688 321.644531 L 231.644531 319.847656 L 231.929688 318.050781 L 232.757813 316.429688 L 234.042969 315.140625 L 235.664063 314.316406 L 237.460938 314.03125 L 239.257813 314.316406 L 240.878906 315.140625 L 242.167969 316.429688 L 242.992188 318.050781 Z M 243.277344 319.847656 "/>
<path style=" stroke:none;fill-rule:nonzero;fill:rgb(80.392157%,58.431373%,4.705882%);fill-opacity:1;" d="M 235.523438 339.230469 L 235.238281 341.027344 L 234.414063 342.648438 L 233.125 343.933594 L 231.503906 344.761719 L 229.707031 345.046875 L 227.910156 344.761719 L 226.289063 343.933594 L 225.003906 342.648438 L 224.175781 341.027344 L 223.890625 339.230469 L 224.175781 337.433594 L 225.003906 335.8125 L 226.289063 334.527344 L 227.910156 333.699219 L 229.707031 333.414063 L 231.503906 333.699219 L 233.125 334.527344 L 234.414063 335.8125 L 235.238281 337.433594 Z M 235.523438 339.230469 "/>
<path style=" stroke:none;fill-rule:nonzero;fill:rgb(80.392157%,58.431373%,4.705882%);fill-opacity:1;" d="M 253.515625 319.667969 L 252.511719 320.675781 L 250.890625 321.5 L 249.09375 321.785156 L 247.296875 321.5 L 245.675781 320.675781 L 244.386719 319.386719 L 243.5625 317.765625 L 243.277344 315.96875 L 243.5625 314.171875 L 244.386719 312.550781 L 245.675781 311.265625 L 247.234375 310.46875 L 247.265625 310.527344 L 249.289063 315.722656 L 252.390625 319.148438 Z M 253.515625 319.667969 "/>
<path style=" stroke:none;fill-rule:nonzero;fill:rgb(80.392157%,58.431373%,4.705882%);fill-opacity:1;" d="M 88.429688 500.046875 L 88.566406 499.308594 L 88.941406 499.117188 L 89.34375 499.789063 Z M 88.429688 500.046875 "/>
</g>
</svg>
