<?xml version="1.0" encoding="UTF-8"?>
<svg xmlns="http://www.w3.org/2000/svg" xmlns:xlink="http://www.w3.org/1999/xlink" width="378pt" height="504pt" viewBox="0 0 378 504" version="1.1">
<g id="data">
<rect x="0" y="0" width="378" height="504" style="fill:rgb(100%,100%,100%);fill-opacity:1;stroke:none;"/>
<path style=" stroke:none;fill-rule:nonzero;fill:rgb(100%,100%,100%);fill-opacity:1;" d="M 53.308594 504 L 324.691406 504 L 324.691406 0 L 53.308594 0 Z M 53.308594 504 "/>
<path style=" stroke:none;fill-rule:nonzero;fill:rgb(22.745098%,53.333333%,16.078431%);fill-opacity:1;" d="M 225.867188 316.007813 L 227.5625 317.5625 L 229.414063 318.695313 L 231.445313 319.46875 L 233.585938 319.847656 L 232.179688 321.519531 L 231.113281 323.425781 L 230.136719 327.53125 L 230.226563 329.714844 L 230.726563 331.839844 L 232.777344 335.527344 L 235.351563 337.839844 L 238.496094 339.292969 L 241.5 339.699219 L 241.210938 339.871094 L 241.886719 340.445313 L 245.851563 340.398438 L 246.984375 342.484375 L 249.683594 345.015625 L 253.164063 346.605469 L 256.847656 346.984375 L 257.363281 349.59375 L 258.398438 351.90625 L 262.082031 356.546875 L 264.601563 358.617188 L 264.882813 361.167969 L 265.664063 363.480469 L 266.914063 365.574219 L 267.789063 366.511719 L 264.953125 369.09375 L 261.394531 373.164063 L 260.601563 374.816406 L 262.84375 374.3125 L 264.9375 375.519531 L 266.9375 378.226563 L 270.21875 378.804688 L 270.625 378.746094 L 271.910156 376.796875 L 272.234375 374.960938 L 273.40625 371.914063 L 274.707031 370.632813 L 276.265625 370.359375 L 278.707031 370.828125 L 281.378906 370.839844 L 283.515625 370.351563 L 284.253906 370.867188 L 286.703125 370.742188 L 292.984375 371.414063 L 293.3125 371.71875 L 295.242188 372.933594 L 297.25 373.714844 L 298.386719 373.921875 L 299.644531 374.84375 L 300.089844 376.972656 L 301.378906 379.582031 L 304.898438 383.867188 L 306.8125 385.402344 L 307.179688 391.25 L 306.777344 393.191406 L 306.890625 393.976563 L 305.789063 396.917969 L 305.164063 399.925781 L 304.558594 400.886719 L 303.742188 403.015625 L 303.371094 405.136719 L 301.59375 407.117188 L 300.363281 409.332031 L 299.765625 411.777344 L 297.144531 414.53125 L 295.578125 412.011719 L 292.742188 410.515625 L 292.480469 410.636719 L 293.898438 413.703125 L 295.777344 416.464844 L 293.949219 418.714844 L 292.804688 420.90625 L 292.191406 421.289063 L 290.003906 421.65625 L 289.660156 421.574219 L 288.214844 419.332031 L 284.976563 421.730469 L 280.71875 424.230469 L 282.339844 425.378906 L 285.105469 424.398438 L 286.097656 423.375 L 286.894531 423.164063 L 287.328125 423.710938 L 287.632813 428.84375 L 285.6875 430.875 L 283.441406 432.558594 L 282.84375 432.699219 L 279.644531 432.160156 L 274.75 433.78125 L 272.609375 436.117188 L 274.253906 436.015625 L 275.152344 434.667969 L 276.683594 434.363281 L 278.285156 434.328125 L 281.054688 434.949219 L 281.828125 435.589844 L 281.691406 436.328125 L 279.554688 436.347656 L 277.390625 437.65625 L 277.96875 438.546875 L 281.382813 438.964844 L 286.863281 440.339844 L 289.394531 439.9375 L 291.074219 438.957031 L 299.492188 437.792969 L 299.492188 447.785156 L 297.320313 449.492188 L 296.707031 450.273438 L 295.839844 450.375 L 292.621094 451.640625 L 291.179688 452.742188 L 289.847656 454.226563 L 289.460938 455.09375 L 289.214844 456.324219 L 289.242188 456.503906 L 289.066406 456.730469 L 288.492188 458.007813 L 286.253906 458.289063 L 284.1875 457.9375 L 282.140625 459.871094 L 280.660156 460.191406 L 278.316406 461.445313 L 277.515625 462.152344 L 274.789063 462.777344 L 272.597656 463.816406 L 272.101563 464.484375 L 271.417969 464.78125 L 269.023438 466.726563 L 259.269531 463.777344 L 258.8125 463.738281 L 257.976563 463.441406 L 254.96875 463.128906 L 248.210938 463.398438 L 244.390625 464.71875 L 241.339844 467.167969 L 240.160156 467.410156 L 238.210938 466.1875 L 238.632813 465.4375 L 239.46875 464.933594 L 237.714844 463.296875 L 231.496094 463.171875 L 231.378906 463.496094 L 232.574219 464.835938 L 232.214844 465.75 L 231.738281 466.042969 L 226.691406 465.496094 L 219.566406 468.449219 L 217.054688 467.824219 L 210.222656 468.96875 L 208.164063 468.875 L 207.273438 468.058594 L 206.238281 469.769531 L 209.429688 471.089844 L 209.714844 470.9375 L 210.1875 472.128906 L 209.566406 473.890625 L 206.84375 474.453125 L 204.453125 473.097656 L 203.015625 472.699219 L 197.625 472.007813 L 196.175781 472.65625 L 195.679688 473.863281 L 195.832031 474.871094 L 196.757813 475.523438 L 196.488281 476.304688 L 195.917969 475.996094 L 194.851563 473.972656 L 190.289063 470.589844 L 185.898438 468.519531 L 183.121094 467.984375 L 181.648438 469.066406 L 176.207031 469.78125 L 174.339844 470.335938 L 168.992188 473.234375 L 168.214844 474.070313 L 167.203125 476.179688 L 162.746094 489.226563 L 160.929688 490.242188 L 158.269531 489.722656 L 157.554688 489.058594 L 156.527344 486.851563 L 154.683594 485.4375 L 153.613281 485.542969 L 152.417969 486.300781 L 151.738281 486.164063 L 148.46875 482.535156 L 142.796875 482.960938 L 141.527344 483.375 L 140.734375 484.175781 L 139.910156 484.507813 L 134.507813 484.320313 L 132.167969 484.859375 L 129.414063 488.195313 L 126.714844 489.746094 L 124.039063 490.597656 L 123.132813 494.289063 L 123.277344 494.558594 L 123.082031 494.730469 L 121.636719 497.316406 L 120.660156 497.648438 L 120.394531 498.183594 L 118.253906 498.183594 L 117.96875 497.691406 L 118.09375 496.4375 L 117.15625 494.691406 L 115.984375 493.691406 L 112.253906 492.070313 L 111.410156 491.984375 L 110.375 492.488281 L 110.242188 494.183594 L 110.03125 494.425781 L 108.148438 494.160156 L 105.644531 494.308594 L 107.453125 492.949219 L 109.523438 490.429688 L 111.691406 488.722656 L 112.09375 488.214844 L 112.199219 488.253906 L 112.445313 488.9375 L 113.574219 489.15625 L 118.144531 485.910156 L 121.425781 483.085938 L 124.375 479.769531 L 125.210938 477.886719 L 124.875 476.421875 L 125.640625 474.519531 L 128.386719 473.238281 L 132.105469 472.640625 L 132.679688 471.785156 L 133.257813 469.527344 L 135.859375 467.5625 L 138.636719 464.640625 L 138.980469 460.375 L 139.171875 460.128906 L 140.09375 457.902344 L 140.539063 455.539063 L 141.636719 454.996094 L 142.492188 455.105469 L 144.269531 456.015625 L 145.761719 455.429688 L 148.429688 452.488281 L 148.140625 448.09375 L 148.292969 447.785156 L 148.566406 447.378906 L 151.105469 446.613281 L 157.421875 446.269531 L 159.910156 445.683594 L 164.597656 446.761719 L 166.046875 446.148438 L 167.527344 446.515625 L 169.484375 447.285156 L 170.039063 448.109375 L 170.757813 448.421875 L 173.15625 448.464844 L 180.570313 447.503906 L 181.109375 445.632813 L 181.210938 443.15625 L 182.519531 440.25 L 190.867188 432.195313 L 195.792969 425.3125 L 197.929688 424.472656 L 198.285156 423.78125 L 198.070313 423.238281 L 197.8125 423.082031 L 196.09375 424.355469 L 192.90625 427.300781 L 190.570313 429.988281 L 189.222656 431.449219 L 185.628906 432.957031 L 183.714844 433.246094 L 182.441406 433.0625 L 178.394531 435.230469 L 177.398438 436.808594 L 177.039063 438.671875 L 176.445313 439.273438 L 174.058594 439.917969 L 170.558594 439.851563 L 166.820313 439 L 166.347656 438.652344 L 163.191406 435.308594 L 165.546875 435.875 L 168.238281 435.886719 L 170.859375 435.277344 L 174.003906 433.566406 L 178.316406 429.550781 L 180.078125 426.132813 L 180.625 422.199219 L 180.078125 419.039063 L 178.6875 416.144531 L 177.222656 414.355469 L 175.429688 412.890625 L 174.496094 410.675781 L 173.128906 408.695313 L 170.003906 406.132813 L 172.515625 406.601563 L 175.0625 406.511719 L 177.535156 405.867188 L 179.804688 404.699219 L 186.035156 398.6875 L 187.402344 396.511719 L 188.28125 393.964844 L 188.550781 391.800781 L 188.410156 389.621094 L 187.0625 385.753906 L 186.535156 383.125 L 185.21875 380.359375 L 183.222656 378.035156 L 185.425781 379.574219 L 187.921875 380.5625 L 190.578125 380.957031 L 193.257813 380.726563 L 195.808594 379.894531 L 198.101563 378.492188 L 199.996094 376.640625 L 201.472656 374.308594 L 201.546875 376.871094 L 202.132813 379.234375 L 203.269531 381.53125 L 204.882813 383.527344 L 206.894531 385.117188 L 209.203125 386.230469 L 211.699219 386.808594 L 214.261719 386.828125 L 218.078125 385.753906 L 221.882813 385.339844 L 225.347656 383.710938 L 227.617188 381.652344 L 229.707031 378 L 232.140625 376.023438 L 234.609375 372.808594 L 235.695313 370.773438 L 236.382813 368.441406 L 236.574219 366.144531 L 236.308594 363.855469 L 235.542969 361.542969 L 234.390625 359.546875 L 232.867188 357.816406 L 231.03125 356.421875 L 228.714844 355.332031 L 225.832031 354.738281 L 222.722656 353.535156 L 220.300781 353.246094 L 217.996094 353.441406 L 215.777344 354.085938 L 213.730469 355.160156 L 211.84375 356.707031 L 210.324219 358.617188 L 208.148438 359.644531 L 206.230469 361.097656 L 205.574219 357.84375 L 204.023438 354.910156 L 201.707031 352.53125 L 198.691406 350.863281 L 206.445313 350.863281 L 209.433594 351.609375 L 212.640625 351.523438 L 214.753906 350.964844 L 216.722656 350.019531 L 219.886719 347.222656 L 221.125 345.269531 L 221.953125 343.109375 L 223.953125 340.960938 L 225.308594 338.503906 L 226.113281 335.03125 L 225.832031 331.476563 L 227.613281 328.824219 L 228.585938 325.914063 L 228.78125 323.238281 L 228.359375 320.582031 L 227.339844 318.097656 Z M 232.914063 471.496094 L 231.6875 472.492188 L 230.4375 474.027344 L 229.960938 474.269531 L 228.117188 474.644531 L 222.296875 470.886719 L 220.207031 471.1875 L 221.476563 469.683594 L 227.316406 466.367188 L 232.550781 467.761719 L 234.171875 469.894531 Z M 148.191406 432.207031 L 148.042969 431.984375 L 147.160156 431.257813 L 146.917969 429.308594 L 148.539063 428.378906 L 150.066406 428.890625 L 151.640625 428.421875 L 152.765625 427.832031 L 153.085938 427.097656 L 152.808594 426.597656 L 147.785156 426.460938 L 143.210938 423.710938 L 139.503906 423.714844 L 136.765625 424.277344 L 136.292969 426.515625 L 135.777344 427.203125 L 133.742188 427.917969 L 132.394531 427.265625 L 131.648438 427.453125 L 130.609375 428.359375 L 128.90625 428.398438 L 127.335938 426.925781 L 127.117188 426.789063 L 127.425781 426.082031 L 128.796875 425.832031 L 131.792969 424.328125 L 131.226563 422.867188 L 130.640625 424.257813 L 127.769531 424.613281 L 122.949219 424.152344 L 121.496094 423.164063 L 124.125 421.78125 L 125.167969 421.753906 L 125.464844 421.238281 L 124.929688 417.953125 L 123.328125 417.210938 L 121.445313 417.105469 L 122.0625 415.152344 L 125.933594 413.378906 L 126.539063 411.90625 L 133.074219 411.34375 L 134.871094 409.289063 L 135.753906 407.632813 L 137.585938 406.550781 L 141.359375 406.660156 L 142.21875 406.390625 L 149.359375 401.828125 L 152.136719 398.207031 L 153.054688 396.195313 L 154.199219 391.746094 L 153.816406 389.316406 L 156.046875 389.628906 L 155.886719 391.757813 L 156.164063 395.160156 L 157.375 398.910156 L 158.558594 400.726563 L 160.054688 402.292969 L 161.816406 403.554688 L 163.78125 404.464844 L 160.746094 404.871094 L 158.03125 405.988281 L 155.589844 407.839844 L 153.785156 410.152344 L 152.6875 412.601563 L 152.191406 415.105469 L 152.027344 419.398438 L 152.6875 423.253906 L 153.851563 425.785156 L 156.046875 428.398438 L 156.628906 429.476563 L 155.65625 429.589844 L 149.269531 432.308594 L 149.113281 432.746094 Z M 221.953125 288.832031 L 222.097656 287.550781 L 222.4375 288.988281 Z M 179.308594 354.738281 L 181.199219 356.367188 L 183.511719 357.601563 L 183.183594 358.617188 L 181.507813 359.964844 L 180.109375 361.605469 L 178.65625 364.410156 L 175.445313 362.925781 L 171.554688 362.492188 L 169.210938 361.464844 L 166.699219 360.972656 L 163.257813 361.203125 L 159.921875 362.492188 L 156.265625 361.824219 L 152.460938 362.378906 L 150.34375 363.304688 L 148.445313 364.628906 L 147.757813 365.351563 L 147.953125 364.523438 L 151.550781 360.582031 L 153.09375 359.609375 L 154.941406 359.808594 L 160.492188 357.457031 L 163.644531 357.28125 L 167.339844 357.714844 L 168.367188 357.222656 L 170.398438 357.644531 L 172.710938 357.644531 L 176.296875 356.6875 L 176.402344 356.621094 L 179.910156 359.441406 L 180.433594 358.429688 L 178.632813 355.175781 Z M 145.191406 369.679688 L 144.480469 372.066406 L 144.453125 374.980469 L 143.757813 375.484375 L 142.078125 378.042969 L 141.804688 377.996094 L 136.660156 378 L 139.007813 376.113281 L 141.339844 373.121094 L 141.882813 372.164063 L 142.589844 371.953125 Z M 143.148438 359.542969 L 144.503906 360.023438 L 148.582031 359.957031 L 152.167969 358.617188 L 154.625 357.972656 L 154.066406 358.859375 L 150.984375 360.816406 L 147.425781 363.976563 L 146.109375 363.875 L 144.195313 361.613281 Z M 144.414063 312.09375 L 148.292969 312.09375 L 148.292969 315.96875 L 146.121094 317.675781 L 144.414063 319.847656 L 145.082031 315.96875 Z M 286.679688 439.636719 L 283.058594 438.976563 L 282.164063 437.605469 L 282.484375 436.070313 L 286.839844 437.054688 L 287.960938 438.832031 Z M 236.835938 466.113281 L 235.136719 465.644531 L 236.523438 463.683594 L 237.195313 464.164063 L 237.5 465.839844 Z M 88.429688 500.046875 L 88.566406 499.308594 L 88.941406 499.117188 L 89.34375 499.789063 Z M 88.429688 500.046875 "/>
<path style=" stroke:none;fill-rule:nonzero;fill:rgb(80.392157%,58.431373%,4.705882%);fill-opacity:1;" d="M 154.109375 242.308594 L 153.824219 244.105469 L 152.996094 245.726563 L 151.710938 247.011719 L 150.089844 247.839844 L 148.292969 248.125 L 146.496094 247.839844 L 144.875 247.011719 L 143.585938 245.726563 L 142.761719 244.105469 L 142.480469 242.339844 L 146.15625 243.175781 L 148.300781 243.253906 L 142.679688 241.019531 L 143.585938 238.890625 L 144.875 237.601563 L 146.496094 236.777344 L 148.292969 236.492188 L 150.089844 236.777344 L 151.710938 237.601563 L 152.996094 238.890625 L 153.824219 240.511719 Z M 154.109375 242.308594 "/>
<path style=" stroke:none;fill-rule:nonzero;fill:rgb(80.392157%,58.431373%,4.705882%);fill-opacity:1;" d="M 181.246094 246.183594 L 180.960938 247.980469 L 180.136719 249.601563 L 178.847656 250.890625 L 177.226563 251.714844 L 175.429688 252 L 173.632813 251.714844 L 172.011719 250.890625 L 170.726563 249.601563 L 169.898438 247.980469 L 169.617188 246.183594 L 169.898438 244.386719 L 170.726563 242.765625 L 172.011719 241.480469 L 172.953125 241 L 179.671875 242.304688 L 180.960938 244.386719 Z M 181.246094 246.183594 "/>
<path style=" stroke:none;fill-rule:nonzero;fill:rgb(80.392157%,58.431373%,4.705882%);fill-opacity:1;" d="M 185.125 288.832031 L 184.839844 290.628906 L 184.011719 292.25 L 182.726563 293.535156 L 181.105469 294.363281 L 179.308594 294.644531 L 177.511719 294.363281 L 175.890625 293.535156 L 174.601563 292.25 L 173.777344 290.628906 L 173.625 289.667969 L 174.074219 288.722656 L 176.464844 286.417969 L 178.757813 285.980469 L 180.191406 286.804688 L 182.933594 286.238281 L 183.03125 285.160156 L 182.34375 284.746094 L 180.035156 285.351563 L 175.011719 285.003906 L 175.890625 284.125 L 177.511719 283.300781 L 179.308594 283.015625 L 181.105469 283.300781 L 182.726563 284.125 L 184.011719 285.414063 L 184.839844 287.035156 Z M 185.125 288.832031 "/>
<path style=" stroke:none;fill-rule:nonzero;fill:rgb(80.392157%,58.431373%,4.705882%);fill-opacity:1;" d="M 253.515625 319.667969 L 252.511719 320.675781 L 250.890625 321.5 L 249.09375 321.785156 L 247.296875 321.5 L 245.675781 320.675781 L 244.386719 319.386719 L 243.5625 317.765625 L 243.277344 315.96875 L 243.5625 314.171875 L 244.386719 312.550781 L 245.675781 311.265625 L 247.234375 310.46875 L 249.289063 315.722656 L 252.390625 319.148438 Z M 253.515625 319.667969 "/>
<path style=" stroke:none;fill-rule:nonzero;fill:rgb(80.392157%,58.431373%,4.705882%);fill-opacity:1;" d="M 233.429688 300.988281 L 231.503906 302.117188 L 229.707031 302.398438 L 227.910156 302.117188 L 226.289063 301.289063 L 225.003906 300.003906 L 224.175781 298.382813 L 223.890625 296.585938 L 224.175781 294.789063 L 225.003906 293.167969 L 225.570313 292.597656 L 225.945313 294.183594 L 229.304688 299.0625 Z M 233.429688 300.988281 "/>
</g>
</svg>
