<?xml version="1.0" encoding="UTF-8"?>
<svg xmlns="http://www.w3.org/2000/svg" xmlns:xlink="http://www.w3.org/1999/xlink" width="378pt" height="504pt" viewBox="0 0 378 504" version="1.1">
<g id="data">
<rect x="0" y="0" width="378" height="504" style="fill:rgb(100%,100%,100%);fill-opacity:1;stroke:none;"/>
<path style=" stroke:none;fill-rule:nonzero;fill:rgb(100%,100%,100%);fill-opacity:1;" d="M 53.308594 504 L 324.691406 504 L 324.691406 0 L 53.308594 0 Z M 53.308594 504 "/>
<path style=" stroke:none;fill-rule:nonzero;fill:rgb(22.745098%,53.333333%,16.078431%);fill-opacity:1;" d="M 245.214844 354.738281 L 249.09375 354.738281 L 251.804688 355.875 L 254.84375 356.296875 L 257.886719 355.910156 L 260.722656 354.738281 L 262.429688 356.910156 L 264.601563 358.617188 L 265.007813 361.671875 L 261.074219 362.359375 L 258.96875 363.277344 L 257.171875 364.5 L 254.53125 367.609375 L 253.128906 371.441406 L 252.308594 378.253906 L 253.375 384.929688 L 254.144531 386.972656 L 255.28125 388.835938 L 256.746094 390.457031 L 258.601563 391.839844 L 260.6875 392.832031 L 262.933594 393.386719 L 266.351563 393.667969 L 270.148438 393.484375 L 273.988281 392.472656 L 277.171875 390.316406 L 279.652344 386.894531 L 280.402344 384.84375 L 280.753906 382.6875 L 280.660156 380.246094 L 279.832031 376.261719 L 278.445313 372.894531 L 280.109375 374.125 L 282.179688 376.640625 L 283.984375 378 L 285.871094 380.347656 L 287.863281 381.875 L 289.628906 385.128906 L 292.328125 387.660156 L 294.476563 388.800781 L 296.8125 389.472656 L 301.117188 389.789063 L 303.371094 389.628906 L 303.371094 405.136719 L 301.894531 406.710938 L 300.679688 408.640625 L 299.867188 410.769531 L 299.671875 411.875 L 297.144531 414.53125 L 295.578125 412.011719 L 292.742188 410.515625 L 292.480469 410.636719 L 293.898438 413.703125 L 295.816406 416.523438 L 295.617188 416.769531 L 293.269531 418.65625 L 291.101563 421.472656 L 290.003906 421.65625 L 289.660156 421.574219 L 288.214844 419.332031 L 284.976563 421.730469 L 280.71875 424.230469 L 282.339844 425.378906 L 285.105469 424.398438 L 286.097656 423.375 L 286.894531 423.164063 L 287.328125 423.710938 L 287.632813 428.84375 L 285.6875 430.875 L 283.441406 432.558594 L 282.84375 432.699219 L 279.644531 432.160156 L 274.75 433.78125 L 272.609375 436.117188 L 274.253906 436.015625 L 275.152344 434.667969 L 276.683594 434.363281 L 278.285156 434.328125 L 281.054688 434.949219 L 281.828125 435.589844 L 281.691406 436.328125 L 279.554688 436.347656 L 277.390625 437.65625 L 277.96875 438.546875 L 281.382813 438.964844 L 286.863281 440.339844 L 289.394531 439.9375 L 291.074219 438.957031 L 294.59375 438.46875 L 295.191406 438.84375 L 297.347656 439.664063 L 299.492188 440.03125 L 299.492188 447.785156 L 297.320313 449.492188 L 296.707031 450.273438 L 295.839844 450.375 L 292.828125 451.558594 L 290.234375 451.886719 L 288.0625 452.582031 L 285.964844 453.761719 L 281.902344 457.15625 L 280.109375 459.414063 L 278.300781 460.773438 L 277.085938 462.25 L 274.789063 462.777344 L 272.597656 463.816406 L 270.539063 466.589844 L 269.761719 466.949219 L 259.480469 463.839844 L 259.332031 463.773438 L 255.597656 463.148438 L 252.210938 463.378906 L 248.378906 464.65625 L 247.84375 465.085938 L 244.628906 465.699219 L 242.703125 466.390625 L 242.113281 466.964844 L 242.085938 467.109375 L 240.582031 467.257813 L 240.140625 467.398438 L 238.210938 466.1875 L 238.632813 465.4375 L 239.46875 464.933594 L 237.714844 463.296875 L 231.496094 463.171875 L 231.378906 463.496094 L 232.574219 464.835938 L 232.214844 465.75 L 231.738281 466.042969 L 226.691406 465.496094 L 219.566406 468.449219 L 217.054688 467.824219 L 210.222656 468.96875 L 208.164063 468.875 L 207.273438 468.058594 L 206.238281 469.769531 L 209.429688 471.089844 L 209.714844 470.9375 L 210.1875 472.128906 L 209.566406 473.890625 L 206.84375 474.453125 L 204.453125 473.097656 L 203.015625 472.699219 L 197.625 472.007813 L 196.175781 472.65625 L 195.679688 473.863281 L 195.832031 474.871094 L 196.757813 475.523438 L 196.488281 476.304688 L 195.917969 475.996094 L 194.851563 473.972656 L 190.289063 470.589844 L 185.898438 468.519531 L 183.121094 467.984375 L 181.648438 469.066406 L 176.207031 469.78125 L 174.339844 470.335938 L 168.992188 473.234375 L 168.214844 474.070313 L 167.203125 476.179688 L 165.410156 481.425781 L 165.183594 481.691406 L 164.1875 483.761719 L 163.636719 485.859375 L 163.578125 486.785156 L 162.746094 489.226563 L 160.929688 490.242188 L 158.269531 489.722656 L 157.554688 489.058594 L 156.527344 486.851563 L 155.449219 486.027344 L 157.609375 485.203125 L 159.925781 483.589844 L 161.859375 481.359375 L 163.207031 478.589844 L 163.800781 474.921875 L 165.0625 471.714844 L 165.355469 469.300781 L 165.167969 467.003906 L 163.800781 463.292969 L 163.246094 460.527344 L 162.371094 458.53125 L 160.445313 455.972656 L 157.898438 454.035156 L 154.542969 452.785156 L 150.964844 452.613281 L 147.503906 453.539063 L 147.441406 453.578125 L 148.429688 452.488281 L 148.167969 448.488281 L 148.292969 447.785156 L 149.941406 449.757813 L 151.980469 451.316406 L 154.191406 452.351563 L 156.699219 452.914063 L 159.269531 452.914063 L 161.777344 452.351563 L 163.988281 451.316406 L 166.027344 449.757813 L 168.519531 446.90625 L 169.484375 447.285156 L 170.039063 448.109375 L 170.757813 448.421875 L 173.15625 448.464844 L 180.570313 447.503906 L 181.109375 445.632813 L 181.210938 443.15625 L 182.519531 440.25 L 190.867188 432.195313 L 195.792969 425.3125 L 197.929688 424.472656 L 198.285156 423.78125 L 198.070313 423.238281 L 197.8125 423.082031 L 196.09375 424.355469 L 192.90625 427.300781 L 190.570313 429.988281 L 189.222656 431.449219 L 185.628906 432.957031 L 183.714844 433.246094 L 182.441406 433.0625 L 178.394531 435.230469 L 177.398438 436.808594 L 177.039063 438.671875 L 176.445313 439.273438 L 174.058594 439.917969 L 171.539063 439.871094 L 171.640625 439.410156 L 171.554688 436.152344 L 173.722656 434.445313 L 175.429688 432.277344 L 179.097656 431.683594 L 182.492188 429.886719 L 184.75 427.605469 L 186.296875 424.796875 L 186.902344 422.566406 L 187.078125 420.261719 L 186.453125 416.222656 L 184.472656 412.648438 L 181.265625 409.914063 L 183.984375 410.519531 L 186.765625 410.457031 L 189.101563 409.871094 L 192.726563 408.308594 L 194.78125 407.003906 L 196.4375 405.402344 L 197.746094 403.503906 L 198.691406 401.261719 L 202.570313 401.261719 L 206.574219 401.925781 L 212.632813 401.164063 L 215.835938 400.226563 L 218.636719 398.417969 L 220.878906 395.777344 L 222.246094 392.597656 L 222.617188 389.152344 L 221.953125 385.753906 L 224.5625 385.234375 L 226.984375 384.136719 L 228.910156 382.691406 L 231.332031 380.101563 L 232.898438 377.210938 L 233.585938 374.125 L 236.269531 371.867188 L 239.308594 368.308594 L 240.558594 366.230469 L 241.585938 362.550781 L 241.339844 358.617188 L 243.667969 355.347656 Z M 232.859375 471.5625 L 231.871094 472.320313 L 230.464844 474.011719 L 229.960938 474.269531 L 229.152344 474.433594 L 227.519531 473.003906 L 224.921875 471.6875 L 222.890625 471.269531 L 222.296875 470.886719 L 221.546875 470.992188 L 220.695313 470.820313 L 220.515625 470.816406 L 221.476563 469.683594 L 227.316406 466.367188 L 232.550781 467.761719 L 234.171875 469.894531 Z M 222.097656 287.550781 L 222.4375 288.988281 L 221.953125 288.832031 Z M 133.015625 470.472656 L 134.011719 470.183594 L 136.242188 468.960938 L 138.234375 467.1875 L 137.582031 470.699219 L 138.023438 474.242188 L 139.054688 476.71875 L 142.570313 482.378906 L 137.859375 482.835938 L 134.933594 483.761719 L 133.683594 484.511719 L 132.167969 484.859375 L 129.414063 488.195313 L 126.714844 489.746094 L 124.039063 490.597656 L 123.628906 492.265625 L 122.726563 492.835938 L 121.152344 494.308594 L 117.277344 494.308594 L 117.941406 490.429688 L 117.277344 486.554688 L 117.351563 486.472656 L 118.144531 485.910156 L 121.425781 483.085938 L 124.375 479.769531 L 125.210938 477.886719 L 124.875 476.421875 L 125.640625 474.519531 L 128.386719 473.238281 L 132.105469 472.640625 L 132.679688 471.785156 Z M 286.679688 439.636719 L 283.058594 438.976563 L 282.164063 437.605469 L 282.484375 436.070313 L 286.839844 437.054688 L 287.960938 438.832031 Z M 236.835938 466.113281 L 235.136719 465.644531 L 236.523438 463.683594 L 237.195313 464.164063 L 237.5 465.839844 Z M 236.835938 466.113281 "/>
<path style=" stroke:none;fill-rule:nonzero;fill:rgb(80.392157%,58.431373%,4.705882%);fill-opacity:1;" d="M 243.277344 319.847656 L 242.992188 321.644531 L 242.167969 323.265625 L 240.878906 324.550781 L 239.257813 325.375 L 237.460938 325.660156 L 235.664063 325.375 L 234.042969 324.550781 L 232.757813 323.265625 L 231.929688 321.644531 L 231.644531 319.847656 L 231.929688 318.050781 L 232.757813 316.429688 L 234.042969 315.140625 L 235.664063 314.316406 L 237.460938 314.03125 L 239.257813 314.316406 L 240.878906 315.140625 L 242.167969 316.429688 L 242.992188 318.050781 Z M 243.277344 319.847656 "/>
<path style=" stroke:none;fill-rule:nonzero;fill:rgb(80.392157%,58.431373%,4.705882%);fill-opacity:1;" d="M 235.523438 339.230469 L 235.238281 341.027344 L 234.414063 342.648438 L 233.125 343.933594 L 231.503906 344.761719 L 229.707031 345.046875 L 227.910156 344.761719 L 226.289063 343.933594 L 225.003906 342.648438 L 224.175781 341.027344 L 223.890625 339.230469 L 224.175781 337.433594 L 225.003906 335.8125 L 226.289063 334.527344 L 227.910156 333.699219 L 229.707031 333.414063 L 231.503906 333.699219 L 233.125 334.527344 L 234.414063 335.8125 L 235.238281 337.433594 Z M 235.523438 339.230469 "/>
<path style=" stroke:none;fill-rule:nonzero;fill:rgb(80.392157%,58.431373%,4.705882%);fill-opacity:1;" d="M 177.371094 405.136719 L 177.085938 406.933594 L 176.257813 408.558594 L 174.972656 409.84375 L 173.351563 410.667969 L 171.554688 410.953125 L 169.757813 410.667969 L 168.136719 409.84375 L 166.847656 408.558594 L 166.023438 406.933594 L 165.738281 405.136719 L 166.023438 403.339844 L 166.847656 401.71875 L 168.136719 400.433594 L 169.757813 399.609375 L 171.554688 399.324219 L 173.351563 399.609375 L 174.972656 400.433594 L 176.257813 401.71875 L 177.085938 403.339844 Z M 177.371094 405.136719 "/>
<path style=" stroke:none;fill-rule:nonzero;fill:rgb(80.392157%,58.431373%,4.705882%);fill-opacity:1;" d="M 253.515625 319.667969 L 252.511719 320.675781 L 250.890625 321.5 L 249.09375 321.785156 L 247.296875 321.5 L 245.675781 320.675781 L 244.386719 319.386719 L 243.5625 317.765625 L 243.277344 315.96875 L 243.5625 314.171875 L 244.386719 312.550781 L 245.675781 311.265625 L 247.234375 310.46875 L 249.289063 315.722656 L 252.390625 319.148438 Z M 253.515625 319.667969 "/>
<path style=" stroke:none;fill-rule:nonzero;fill:rgb(80.392157%,58.431373%,4.705882%);fill-opacity:1;" d="M 130.796875 424.828125 L 130.5625 426.320313 L 129.734375 427.941406 L 128.640625 429.039063 L 126.53125 428.132813 L 127.425781 426.082031 L 128.796875 425.832031 Z M 125.054688 418.710938 L 126.828125 418.992188 L 128.449219 419.816406 L 129.734375 421.105469 L 130.5625 422.726563 L 130.640625 424.257813 L 127.769531 424.613281 L 122.949219 424.152344 L 121.496094 423.164063 L 124.125 421.78125 L 125.167969 421.753906 L 125.464844 421.238281 Z M 125.054688 418.710938 "/>
<path style=" stroke:none;fill-rule:nonzero;fill:rgb(80.392157%,58.431373%,4.705882%);fill-opacity:1;" d="M 233.429688 300.988281 L 231.503906 302.117188 L 229.707031 302.398438 L 227.910156 302.117188 L 226.289063 301.289063 L 225.003906 300.003906 L 224.175781 298.382813 L 223.890625 296.585938 L 224.175781 294.789063 L 225.003906 293.167969 L 225.570313 292.597656 L 225.945313 294.183594 L 229.304688 299.0625 Z M 233.429688 300.988281 "/>
<path style=" stroke:none;fill-rule:nonzero;fill:rgb(80.392157%,58.431373%,4.705882%);fill-opacity:1;" d="M 131.355469 423.203125 L 132.324219 423.695313 L 133.613281 424.980469 L 134.4375 426.601563 L 134.597656 427.617188 L 133.742188 427.917969 L 132.394531 427.265625 L 131.648438 427.453125 L 129.4375 429.378906 L 126.53125 428.132813 L 127.425781 426.082031 L 128.796875 425.832031 L 131.792969 424.328125 Z M 124.851563 424.335938 L 127.109375 422.871094 L 128.90625 422.585938 L 131.132813 423.085938 L 130.640625 424.257813 L 127.769531 424.613281 Z M 124.851563 424.335938 "/>
<path style=" stroke:none;fill-rule:nonzero;fill:rgb(80.392157%,58.431373%,4.705882%);fill-opacity:1;" d="M 126.96875 424.523438 L 122.949219 424.152344 L 121.496094 423.164063 L 124.125 421.78125 L 125.167969 421.753906 L 125.464844 421.238281 L 125.363281 420.609375 L 126.683594 422.726563 Z M 126.96875 424.523438 "/>
<path style=" stroke:none;fill-rule:nonzero;fill:rgb(80.392157%,58.431373%,4.705882%);fill-opacity:1;" d="M 88.429688 500.046875 L 88.566406 499.308594 L 88.941406 499.117188 L 89.34375 499.789063 Z M 88.429688 500.046875 "/>
</g>
</svg>
