<?xml version="1.0" encoding="UTF-8"?>
<svg xmlns="http://www.w3.org/2000/svg" xmlns:xlink="http://www.w3.org/1999/xlink" width="378pt" height="504pt" viewBox="0 0 378 504" version="1.1">
<g id="data">
<rect x="0" y="0" width="378" height="504" style="fill:rgb(100%,100%,100%);fill-opacity:1;stroke:none;"/>
<path style=" stroke:none;fill-rule:nonzero;fill:rgb(100%,100%,100%);fill-opacity:1;" d="M 53.308594 504 L 324.691406 504 L 324.691406 0 L 53.308594 0 Z M 53.308594 504 "/>
<path style=" stroke:none;fill-rule:nonzero;fill:rgb(22.745098%,53.333333%,16.078431%);fill-opacity:1;" d="M 168.132813 400.707031 L 169.164063 400.378906 L 171.074219 400.417969 L 172.949219 400.765625 L 174.21875 400.722656 L 175.445313 400.402344 L 176.382813 399.921875 L 181.488281 394.996094 L 182.121094 393.984375 L 182.585938 392.640625 L 182.714844 391.628906 L 182.660156 390.789063 L 181.570313 387.667969 L 181.359375 386.894531 L 180.976563 384.972656 L 180.300781 383.558594 L 178.808594 381.820313 L 177.839844 380.234375 L 177.421875 378.421875 L 177.59375 376.574219 L 178.34375 374.871094 L 179.589844 373.492188 L 181.210938 372.578125 L 183.035156 372.222656 L 184.878906 372.460938 L 186.550781 373.265625 L 188.199219 374.417969 L 189.441406 374.910156 L 190.761719 375.105469 L 192.089844 374.992188 L 193.359375 374.578125 L 194.496094 373.882813 L 195.503906 372.882813 L 196.542969 371.222656 L 197.757813 369.832031 L 199.351563 368.894531 L 201.160156 368.503906 L 202.996094 368.695313 L 204.679688 369.457031 L 206.042969 370.710938 L 206.941406 372.328125 L 207.285156 374.140625 L 207.339844 376.078125 L 207.625 377.21875 L 208.199219 378.375 L 209 379.367188 L 209.996094 380.15625 L 211.144531 380.710938 L 212.386719 381 L 213.480469 381.007813 L 216.5 380.15625 L 217.445313 379.972656 L 220.285156 379.664063 L 222.085938 378.820313 L 223.027344 377.960938 L 224.660156 375.109375 L 226.039063 373.488281 L 227.941406 371.941406 L 229.707031 369.644531 L 230.292969 368.542969 L 230.621094 367.460938 L 230.730469 366.222656 L 230.597656 365.101563 L 230.246094 364.011719 L 229.691406 363.023438 L 228.875 362.089844 L 228 361.421875 L 226.863281 360.886719 L 224.65625 360.433594 L 223.734375 360.164063 L 221.304688 359.222656 L 220.195313 359.089844 L 219.066406 359.1875 L 217.960938 359.507813 L 216.957031 360.035156 L 216.007813 360.8125 L 214.871094 362.242188 L 212.808594 363.871094 L 211.179688 364.640625 L 209.746094 365.730469 L 208.019531 366.632813 L 206.089844 366.910156 L 204.179688 366.539063 L 202.496094 365.554688 L 201.234375 364.070313 L 200.53125 362.25 L 200.042969 359.835938 L 199.222656 358.304688 L 198.074219 357.152344 L 195.898438 355.960938 L 194.398438 354.78125 L 193.359375 353.179688 L 192.894531 351.324219 L 193.058594 349.421875 L 193.828125 347.671875 L 195.125 346.269531 L 196.808594 345.359375 L 198.691406 345.046875 L 206.445313 345.046875 L 207.855469 345.21875 L 210.074219 345.773438 L 211.808594 345.726563 L 212.734375 345.480469 L 213.480469 345.125 L 215.417969 343.410156 L 215.902344 342.644531 L 216.523438 341.027344 L 217.699219 339.140625 L 219.207031 337.527344 L 219.824219 336.40625 L 220.246094 334.59375 L 220.035156 331.9375 L 220.207031 330.003906 L 221.003906 328.230469 L 222.347656 326.238281 L 222.839844 324.761719 L 222.933594 323.480469 L 222.722656 322.164063 L 222.210938 320.914063 L 221.117188 319.363281 L 220.292969 317.667969 L 220.054688 315.800781 L 220.425781 313.953125 L 221.367188 312.324219 L 222.78125 311.078125 L 224.515625 310.351563 L 226.394531 310.21875 L 228.21875 310.691406 L 229.796875 311.722656 L 231.078125 312.894531 L 231.984375 313.453125 L 232.996094 313.835938 L 234.597656 314.121094 L 236.242188 314.671875 L 237.648438 315.6875 L 238.695313 317.066406 L 239.285156 318.695313 L 239.371094 320.425781 L 238.941406 322.105469 L 238.039063 323.585938 L 236.988281 324.839844 L 236.582031 325.558594 L 236.042969 327.835938 L 236.347656 330.152344 L 236.675781 330.914063 L 237.191406 331.675781 L 238.589844 332.929688 L 240.15625 333.65625 L 241.757813 333.878906 L 244.328125 333.484375 L 246.105469 333.484375 L 247.796875 334.019531 L 249.25 335.042969 L 250.324219 336.453125 L 251.347656 338.335938 L 245.550781 339.511719 L 244.589844 338.644531 L 243.40625 338.558594 L 241.210938 339.871094 L 241.886719 340.445313 L 246.324219 340.394531 L 249.617188 339.34375 L 251.871094 339.09375 L 252.195313 339.398438 L 254.382813 342.558594 L 260.535156 347.621094 L 263.042969 349.058594 L 263.550781 349.042969 L 265.644531 351.679688 L 266.046875 352.214844 L 268.980469 359.304688 L 269.535156 362.402344 L 269.210938 365.21875 L 264.953125 369.09375 L 261.394531 373.164063 L 260.601563 374.816406 L 262.84375 374.3125 L 264.9375 375.519531 L 266.9375 378.226563 L 270.21875 378.804688 L 270.625 378.746094 L 271.910156 376.796875 L 272.234375 374.960938 L 273.40625 371.914063 L 274.707031 370.632813 L 277.851563 370.085938 L 283.34375 370.234375 L 284.253906 370.867188 L 286.703125 370.742188 L 293.949219 371.515625 L 296.914063 372.84375 L 304.070313 378.085938 L 305.367188 380.105469 L 306.730469 384.164063 L 307.179688 391.25 L 306.777344 393.191406 L 306.890625 393.976563 L 305.789063 396.917969 L 303.519531 407.832031 L 297.144531 414.53125 L 295.578125 412.011719 L 292.742188 410.515625 L 292.480469 410.636719 L 293.898438 413.703125 L 295.890625 416.628906 L 296.3125 416.765625 L 296.164063 417.742188 L 294.574219 419.804688 L 292.191406 421.289063 L 290.003906 421.65625 L 289.660156 421.574219 L 288.214844 419.332031 L 284.976563 421.730469 L 280.71875 424.230469 L 282.339844 425.378906 L 285.105469 424.398438 L 286.097656 423.375 L 286.894531 423.164063 L 287.328125 423.710938 L 287.632813 428.84375 L 285.6875 430.875 L 283.441406 432.558594 L 282.84375 432.699219 L 279.644531 432.160156 L 274.75 433.78125 L 272.609375 436.117188 L 274.253906 436.015625 L 275.152344 434.667969 L 276.683594 434.363281 L 278.285156 434.328125 L 281.054688 434.949219 L 281.828125 435.589844 L 281.691406 436.328125 L 279.554688 436.347656 L 277.390625 437.65625 L 277.96875 438.546875 L 281.382813 438.964844 L 286.863281 440.339844 L 289.394531 439.9375 L 291.074219 438.957031 L 299.742188 437.757813 L 300.988281 440.148438 L 300.773438 446.324219 L 300.335938 447.820313 L 299.394531 449.050781 L 296.972656 450.242188 L 295.839844 450.375 L 292.621094 451.640625 L 291.179688 452.742188 L 289.847656 454.226563 L 289.460938 455.09375 L 289.214844 456.324219 L 289.464844 457.886719 L 286.253906 458.289063 L 284.1875 457.9375 L 281.042969 460.90625 L 278.484375 461.933594 L 274.789063 462.777344 L 272.597656 463.816406 L 270.539063 466.589844 L 269.761719 466.949219 L 259.269531 463.777344 L 256.070313 463.507813 L 244.628906 465.699219 L 242.703125 466.390625 L 242.113281 466.964844 L 241.902344 467.984375 L 241.359375 468.164063 L 238.210938 466.1875 L 238.632813 465.4375 L 239.46875 464.933594 L 237.714844 463.296875 L 231.496094 463.171875 L 231.378906 463.496094 L 232.574219 464.835938 L 232.214844 465.75 L 231.738281 466.042969 L 226.691406 465.496094 L 219.566406 468.449219 L 217.054688 467.824219 L 210.222656 468.96875 L 208.164063 468.875 L 207.273438 468.058594 L 206.238281 469.769531 L 209.429688 471.089844 L 209.714844 470.9375 L 210.1875 472.128906 L 209.566406 473.890625 L 206.84375 474.453125 L 204.453125 473.097656 L 203.015625 472.699219 L 197.625 472.007813 L 196.175781 472.65625 L 195.679688 473.863281 L 195.832031 474.871094 L 196.757813 475.523438 L 196.488281 476.304688 L 195.917969 475.996094 L 194.851563 473.972656 L 190.289063 470.589844 L 185.898438 468.519531 L 183.121094 467.984375 L 181.648438 469.066406 L 176.207031 469.78125 L 174.339844 470.335938 L 168.992188 473.234375 L 168.214844 474.070313 L 167.203125 476.179688 L 162.746094 489.226563 L 160.929688 490.242188 L 158.269531 489.722656 L 157.554688 489.058594 L 156.527344 486.851563 L 154.683594 485.4375 L 153.613281 485.542969 L 152.417969 486.300781 L 151.738281 486.164063 L 148.46875 482.535156 L 142.796875 482.960938 L 141.527344 483.375 L 140.734375 484.175781 L 139.910156 484.507813 L 134.507813 484.320313 L 132.167969 484.859375 L 129.414063 488.195313 L 126.714844 489.746094 L 124.039063 490.597656 L 123.132813 494.289063 L 123.664063 495.292969 L 123.496094 496.125 L 122.722656 496.945313 L 120.660156 497.648438 L 119.628906 499.730469 L 118.675781 498.910156 L 117.96875 497.691406 L 118.09375 496.4375 L 117.15625 494.691406 L 115.984375 493.691406 L 112.253906 492.070313 L 111.410156 491.984375 L 110.375 492.488281 L 110.242188 494.183594 L 109.421875 495.128906 L 106.824219 495.664063 L 105.398438 494.824219 L 105.628906 491.574219 L 106.074219 490.5625 L 111.738281 488.078125 L 112.199219 488.253906 L 112.445313 488.9375 L 113.574219 489.15625 L 118.144531 485.910156 L 121.425781 483.085938 L 124.375 479.769531 L 125.210938 477.886719 L 124.875 476.421875 L 125.640625 474.519531 L 128.386719 473.238281 L 132.105469 472.640625 L 132.679688 471.785156 L 133.257813 469.527344 L 135.859375 467.5625 L 138.636719 464.640625 L 139.128906 458.542969 L 139.796875 454.753906 L 142.492188 455.105469 L 144.269531 456.015625 L 145.761719 455.429688 L 148.429688 452.488281 L 148.105469 447.519531 L 151.105469 446.613281 L 157.421875 446.269531 L 159.910156 445.683594 L 164.597656 446.761719 L 166.046875 446.148438 L 167.527344 446.515625 L 169.484375 447.285156 L 170.039063 448.109375 L 170.757813 448.421875 L 173.15625 448.464844 L 180.570313 447.503906 L 181.109375 445.632813 L 181.210938 443.15625 L 182.519531 440.25 L 190.867188 432.195313 L 195.792969 425.3125 L 197.929688 424.472656 L 198.285156 423.78125 L 198.070313 423.238281 L 197.8125 423.082031 L 196.09375 424.355469 L 192.90625 427.300781 L 190.570313 429.988281 L 189.222656 431.449219 L 185.628906 432.957031 L 183.714844 433.246094 L 182.441406 433.0625 L 178.394531 435.230469 L 177.398438 436.808594 L 177.039063 438.671875 L 176.445313 439.273438 L 174.058594 439.917969 L 170.558594 439.851563 L 166.820313 439 L 166.347656 438.652344 L 161.371094 433.375 L 159.03125 429.199219 L 155.65625 429.589844 L 149.269531 432.308594 L 149.113281 432.746094 L 147.203125 431.632813 L 146.917969 429.308594 L 148.539063 428.378906 L 150.066406 428.890625 L 151.640625 428.421875 L 152.765625 427.832031 L 153.085938 427.097656 L 152.808594 426.597656 L 147.785156 426.460938 L 143.210938 423.710938 L 139.503906 423.714844 L 136.765625 424.277344 L 136.292969 426.515625 L 135.777344 427.203125 L 133.742188 427.917969 L 132.394531 427.265625 L 131.648438 427.453125 L 129.4375 429.378906 L 126.53125 428.132813 L 127.425781 426.082031 L 128.796875 425.832031 L 131.792969 424.328125 L 131.226563 422.867188 L 130.640625 424.257813 L 127.769531 424.613281 L 122.949219 424.152344 L 121.496094 423.164063 L 124.125 421.78125 L 125.167969 421.753906 L 125.464844 421.238281 L 124.929688 417.953125 L 123.328125 417.210938 L 121.445313 417.105469 L 122.0625 415.152344 L 125.933594 413.378906 L 126.539063 411.90625 L 133.074219 411.34375 L 134.871094 409.289063 L 135.753906 407.632813 L 137.585938 406.550781 L 141.359375 406.660156 L 142.21875 406.390625 L 149.359375 401.828125 L 152.136719 398.207031 L 153.054688 396.195313 L 154.199219 391.746094 L 153.734375 388.820313 L 152.566406 386.542969 L 153.179688 384.597656 L 153.789063 383.441406 L 156.855469 383.871094 L 158.53125 384.371094 L 159.976563 385.347656 L 161.074219 386.707031 L 161.714844 388.328125 L 161.84375 390.070313 L 161.71875 391.738281 L 161.90625 394.015625 L 162.671875 396.386719 L 163.136719 397.101563 L 163.882813 397.878906 L 164.757813 398.507813 L 166.230469 399.191406 L 167.777344 400.242188 Z M 165.671875 409.890625 L 164.515625 410.234375 L 162.351563 410.511719 L 160.929688 411.085938 L 159.707031 412.015625 L 158.800781 413.175781 L 158.265625 414.375 L 157.984375 415.785156 L 157.863281 419.015625 L 158.289063 421.519531 L 158.808594 422.644531 L 160.5 424.660156 L 161.160156 425.632813 L 162.246094 427.636719 L 163.917969 429.226563 L 164.949219 429.75 L 166.25 430.0625 L 167.585938 430.066406 L 168.773438 429.792969 L 170.578125 428.8125 L 173.597656 425.996094 L 174.484375 424.257813 L 174.742188 422.3125 L 174.488281 420.828125 L 173.75 419.292969 L 173.089844 418.492188 L 171.75 417.394531 L 170.773438 416.375 L 170.070313 415.148438 L 169.371094 413.484375 L 168.808594 412.675781 L 166.316406 410.628906 Z M 255.445313 340.992188 L 257.445313 341.199219 L 259.222656 341.675781 L 259.984375 342.175781 L 258.378906 342.789063 L 257.507813 342.753906 L 256.035156 341.773438 Z M 220.144531 294.359375 L 218.398438 293.433594 L 217.0625 291.976563 L 216.292969 290.152344 L 216.175781 288.179688 L 216.320313 286.902344 L 216.796875 285.164063 L 217.78125 283.65625 L 219.179688 282.519531 L 220.859375 281.871094 L 221.917969 281.804688 L 222.984375 284.039063 L 223.773438 285.027344 L 225.828125 293.679688 L 225.679688 293.816406 L 224.09375 294.5625 L 222.355469 294.804688 L 220.625 294.515625 Z M 181.355469 349.320313 L 181.515625 349.359375 L 183.101563 350.332031 L 184.507813 351.539063 L 186.25 352.472656 L 187.835938 353.710938 L 188.902344 355.421875 L 188.90625 355.4375 L 188.667969 355.527344 L 188.3125 355.957031 L 186.378906 356.386719 L 183.8125 354.640625 Z M 189.160156 356.621094 L 189.324219 357.390625 L 189.046875 359.386719 L 188.71875 360.398438 L 187.976563 361.910156 L 186.835938 363.144531 L 185.578125 364.15625 L 184.964844 364.871094 L 183.820313 367.085938 L 182.777344 368.515625 L 181.351563 369.5625 L 179.679688 370.136719 L 177.914063 370.179688 L 176.214844 369.691406 L 173.859375 368.601563 L 170.910156 368.273438 L 169.21875 367.816406 L 167.464844 367.046875 L 166.34375 366.828125 L 164.433594 366.964844 L 162.050781 367.902344 L 160.484375 368.28125 L 158.875 368.210938 L 156.160156 367.714844 L 154.074219 368.019531 L 153.199219 368.402344 L 152.253906 369.0625 L 151.460938 369.894531 L 150.960938 370.691406 L 150.285156 372.941406 L 150.285156 373.109375 L 150.203125 373.105469 L 145.449219 374.257813 L 143.757813 375.484375 L 142.039063 378.097656 L 136.757813 378.433594 L 136.246094 378.0625 L 137.339844 376.066406 L 140.148438 373.019531 L 141.023438 372.414063 L 142.589844 371.953125 L 147.132813 367.984375 L 147.953125 364.523438 L 151.550781 360.582031 L 153.09375 359.609375 L 154.941406 359.808594 L 160.492188 357.457031 L 163.644531 357.28125 L 167.339844 357.714844 L 172.597656 355.179688 L 173.933594 355.046875 L 174.484375 355.082031 L 179.910156 359.441406 L 180.433594 358.429688 L 177.679688 353.460938 L 178.242188 352.835938 L 180.867188 352.449219 L 181.503906 352.695313 L 181.914063 353.875 L 182.898438 354.332031 L 184.078125 356.789063 L 185.613281 357.902344 L 188.359375 357.621094 Z M 142.214844 353.089844 L 142.515625 353.148438 L 145.363281 354.175781 L 147.5 354.152344 L 150.054688 353.195313 L 151.039063 355.578125 L 155.546875 356.503906 L 154.066406 358.859375 L 150.984375 360.816406 L 147.425781 363.976563 L 146.109375 363.875 L 144.195313 361.613281 L 142.050781 357.363281 Z M 139.371094 322.695313 L 139.289063 322.589844 L 138.675781 320.777344 L 138.679688 319.984375 L 139.816406 316.644531 L 142.300781 315.023438 L 144.765625 310.230469 L 145.863281 309.40625 L 149.046875 308.269531 L 150.203125 313.453125 L 147.847656 318.148438 L 145.3125 320.636719 L 141.859375 323.019531 L 139.824219 322.464844 Z M 141.734375 358.875 L 141.003906 358.070313 L 139.230469 356.960938 L 138.828125 356.035156 L 139.253906 355.210938 L 140.597656 355.164063 L 141.484375 356.3125 L 142.226563 358.1875 Z M 286.679688 439.636719 L 283.058594 438.976563 L 282.164063 437.605469 L 282.484375 436.070313 L 286.839844 437.054688 L 287.960938 438.832031 Z M 236.835938 466.113281 L 235.136719 465.644531 L 236.523438 463.683594 L 237.195313 464.164063 L 237.5 465.839844 Z M 228.117188 474.644531 L 222.296875 470.886719 L 220.207031 471.1875 L 221.476563 469.683594 L 227.316406 466.367188 L 232.550781 467.761719 L 234.171875 469.894531 L 231.242188 473.621094 L 229.960938 474.269531 Z M 88.429688 500.046875 L 88.566406 499.308594 L 88.941406 499.117188 L 89.34375 499.789063 Z M 88.429688 500.046875 "/>
<path style=" stroke:none;fill-rule:nonzero;fill:rgb(80.392157%,58.431373%,4.705882%);fill-opacity:1;" d="M 154.109375 242.308594 L 153.824219 244.105469 L 152.996094 245.726563 L 151.710938 247.011719 L 150.089844 247.839844 L 148.292969 248.125 L 146.496094 247.839844 L 144.875 247.011719 L 143.585938 245.726563 L 142.761719 244.105469 L 142.480469 242.339844 L 142.886719 242.511719 L 146.15625 243.175781 L 148.300781 243.253906 L 142.679688 241.019531 L 142.761719 240.511719 L 143.585938 238.890625 L 144.875 237.601563 L 146.496094 236.777344 L 148.292969 236.492188 L 150.089844 236.777344 L 151.710938 237.601563 L 152.996094 238.890625 L 153.824219 240.511719 Z M 154.109375 242.308594 "/>
<path style=" stroke:none;fill-rule:nonzero;fill:rgb(80.392157%,58.431373%,4.705882%);fill-opacity:1;" d="M 181.246094 246.183594 L 180.960938 247.980469 L 180.136719 249.601563 L 178.847656 250.890625 L 177.226563 251.714844 L 175.429688 252 L 173.632813 251.714844 L 172.011719 250.890625 L 170.726563 249.601563 L 169.898438 247.980469 L 169.617188 246.183594 L 169.898438 244.386719 L 170.726563 242.765625 L 172.011719 241.480469 L 172.953125 241 L 178.0625 241.875 L 179.671875 242.304688 L 180.136719 242.765625 L 180.960938 244.386719 Z M 181.246094 246.183594 "/>
<path style=" stroke:none;fill-rule:nonzero;fill:rgb(80.392157%,58.431373%,4.705882%);fill-opacity:1;" d="M 185.125 288.832031 L 184.839844 290.628906 L 184.011719 292.25 L 182.726563 293.535156 L 181.105469 294.363281 L 179.308594 294.644531 L 177.511719 294.363281 L 175.890625 293.535156 L 174.601563 292.25 L 173.777344 290.628906 L 173.625 289.667969 L 174.074219 288.722656 L 176.464844 286.417969 L 178.757813 285.980469 L 180.191406 286.804688 L 181.015625 286.710938 L 182.933594 286.238281 L 183.03125 285.160156 L 182.34375 284.746094 L 180.035156 285.351563 L 175.011719 285.003906 L 175.890625 284.125 L 177.511719 283.300781 L 179.308594 283.015625 L 181.105469 283.300781 L 182.726563 284.125 L 184.011719 285.414063 L 184.839844 287.035156 Z M 185.125 288.832031 "/>
<path style=" stroke:none;fill-rule:nonzero;fill:rgb(80.392157%,58.431373%,4.705882%);fill-opacity:1;" d="M 253.515625 319.667969 L 252.511719 320.675781 L 250.890625 321.5 L 249.09375 321.785156 L 247.296875 321.5 L 245.675781 320.675781 L 244.386719 319.386719 L 243.5625 317.765625 L 243.277344 315.96875 L 243.5625 314.171875 L 244.386719 312.550781 L 245.675781 311.265625 L 247.234375 310.46875 L 247.265625 310.527344 L 249.289063 315.722656 L 252.390625 319.148438 Z M 253.515625 319.667969 "/>
</g>
</svg>
