<?xml version="1.0" encoding="UTF-8"?>
<svg xmlns="http://www.w3.org/2000/svg" xmlns:xlink="http://www.w3.org/1999/xlink" width="378pt" height="504pt" viewBox="0 0 378 504" version="1.1">
<g id="data">
<rect x="0" y="0" width="378" height="504" style="fill:rgb(100%,100%,100%);fill-opacity:1;stroke:none;"/>
<path style=" stroke:none;fill-rule:nonzero;fill:rgb(100%,100%,100%);fill-opacity:1;" d="M 53.308594 504 L 324.691406 504 L 324.691406 0 L 53.308594 0 Z M 53.308594 504 "/>
<path style=" stroke:none;fill-rule:nonzero;fill:rgb(22.745098%,53.333333%,16.078431%);fill-opacity:1;" d="M 225.867188 316.007813 L 227.5625 317.5625 L 229.527344 318.753906 L 233.585938 319.847656 L 236.308594 320.953125 L 239.863281 321.328125 L 243.363281 320.605469 L 241.777344 324.496094 L 241.679688 328.695313 L 242.890625 332.320313 L 245.214844 335.355469 L 245.589844 338.28125 L 246.035156 339.414063 L 245.550781 339.511719 L 244.589844 338.644531 L 243.40625 338.558594 L 241.210938 339.871094 L 241.886719 340.445313 L 246.324219 340.394531 L 246.414063 340.367188 L 246.625 340.90625 L 248.53125 343.488281 L 250.957031 345.382813 L 253.792969 346.578125 L 256.847656 346.984375 L 257.328125 349.472656 L 258.398438 351.90625 L 262.082031 356.546875 L 264.601563 358.617188 L 264.882813 361.167969 L 265.664063 363.480469 L 266.914063 365.574219 L 267.789063 366.511719 L 264.953125 369.09375 L 261.394531 373.164063 L 260.601563 374.816406 L 262.84375 374.3125 L 264.9375 375.519531 L 266.9375 378.226563 L 270.21875 378.804688 L 270.625 378.746094 L 271.910156 376.796875 L 272.234375 374.960938 L 273.40625 371.914063 L 274.707031 370.632813 L 276.265625 370.359375 L 278.707031 370.828125 L 281.378906 370.839844 L 283.515625 370.351563 L 284.253906 370.867188 L 286.703125 370.742188 L 292.984375 371.414063 L 293.3125 371.71875 L 295.242188 372.933594 L 297.371094 373.75 L 298.398438 373.929688 L 299.644531 374.84375 L 300.089844 376.972656 L 301.378906 379.582031 L 304.898438 383.867188 L 306.8125 385.402344 L 307.179688 391.25 L 306.777344 393.191406 L 306.890625 393.976563 L 305.789063 396.917969 L 305.140625 400.035156 L 304.734375 400.550781 L 303.8125 402.773438 L 303.371094 405.136719 L 301.59375 407.117188 L 300.363281 409.332031 L 299.765625 411.777344 L 297.144531 414.53125 L 295.578125 412.011719 L 292.742188 410.515625 L 292.480469 410.636719 L 293.898438 413.703125 L 295.890625 416.628906 L 296.3125 416.765625 L 296.164063 417.742188 L 294.574219 419.804688 L 292.191406 421.289063 L 290.003906 421.65625 L 289.660156 421.574219 L 288.214844 419.332031 L 284.976563 421.730469 L 280.71875 424.230469 L 282.339844 425.378906 L 285.105469 424.398438 L 286.097656 423.375 L 286.894531 423.164063 L 287.328125 423.710938 L 287.632813 428.84375 L 285.6875 430.875 L 283.441406 432.558594 L 282.84375 432.699219 L 279.644531 432.160156 L 274.75 433.78125 L 272.609375 436.117188 L 274.253906 436.015625 L 275.152344 434.667969 L 276.683594 434.363281 L 278.285156 434.328125 L 281.054688 434.949219 L 281.828125 435.589844 L 281.691406 436.328125 L 279.554688 436.347656 L 277.390625 437.65625 L 277.96875 438.546875 L 281.382813 438.964844 L 286.863281 440.339844 L 289.394531 439.9375 L 291.074219 438.957031 L 299.492188 437.792969 L 299.492188 447.785156 L 297.320313 449.492188 L 296.707031 450.273438 L 295.839844 450.375 L 292.621094 451.640625 L 291.179688 452.742188 L 289.847656 454.226563 L 289.460938 455.09375 L 289.214844 456.324219 L 289.242188 456.503906 L 289.066406 456.730469 L 288.492188 458.007813 L 286.253906 458.289063 L 284.1875 457.9375 L 282.140625 459.871094 L 280.660156 460.191406 L 278.210938 461.515625 L 277.496094 462.15625 L 274.789063 462.777344 L 272.597656 463.816406 L 272.101563 464.484375 L 271.417969 464.78125 L 269.023438 466.726563 L 259.269531 463.777344 L 258.8125 463.738281 L 257.976563 463.441406 L 254.96875 463.128906 L 248.210938 463.398438 L 244.390625 464.71875 L 241.339844 467.167969 L 240.160156 467.410156 L 238.210938 466.1875 L 238.632813 465.4375 L 239.46875 464.933594 L 237.714844 463.296875 L 231.496094 463.171875 L 231.378906 463.496094 L 232.574219 464.835938 L 232.214844 465.75 L 231.738281 466.042969 L 226.691406 465.496094 L 219.566406 468.449219 L 217.054688 467.824219 L 210.222656 468.96875 L 208.164063 468.875 L 207.273438 468.058594 L 206.238281 469.769531 L 209.429688 471.089844 L 209.714844 470.9375 L 210.1875 472.128906 L 209.566406 473.890625 L 206.84375 474.453125 L 204.453125 473.097656 L 203.015625 472.699219 L 197.625 472.007813 L 196.175781 472.65625 L 195.679688 473.863281 L 195.832031 474.871094 L 196.757813 475.523438 L 196.488281 476.304688 L 195.917969 475.996094 L 194.851563 473.972656 L 190.289063 470.589844 L 185.898438 468.519531 L 183.121094 467.984375 L 181.648438 469.066406 L 176.207031 469.78125 L 174.339844 470.335938 L 168.992188 473.234375 L 168.214844 474.070313 L 167.203125 476.179688 L 162.746094 489.226563 L 160.929688 490.242188 L 158.269531 489.722656 L 157.554688 489.058594 L 156.527344 486.851563 L 154.683594 485.4375 L 153.613281 485.542969 L 152.417969 486.300781 L 151.738281 486.164063 L 148.46875 482.535156 L 142.796875 482.960938 L 141.527344 483.375 L 140.734375 484.175781 L 139.910156 484.507813 L 134.507813 484.320313 L 132.167969 484.859375 L 129.414063 488.195313 L 126.714844 489.746094 L 124.039063 490.597656 L 123.132813 494.289063 L 123.664063 495.292969 L 123.496094 496.125 L 122.722656 496.945313 L 120.660156 497.648438 L 120.394531 498.183594 L 118.253906 498.183594 L 117.96875 497.691406 L 118.09375 496.4375 L 117.15625 494.691406 L 115.984375 493.691406 L 112.253906 492.070313 L 111.410156 491.984375 L 110.375 492.488281 L 110.242188 494.183594 L 110.007813 494.453125 L 108.527344 494.183594 L 105.644531 494.308594 L 107.453125 492.949219 L 109.523438 490.429688 L 111.691406 488.722656 L 112.09375 488.214844 L 112.199219 488.253906 L 112.445313 488.9375 L 113.574219 489.15625 L 118.144531 485.910156 L 121.425781 483.085938 L 124.375 479.769531 L 125.210938 477.886719 L 124.875 476.421875 L 125.640625 474.519531 L 128.386719 473.238281 L 132.105469 472.640625 L 132.679688 471.785156 L 133.257813 469.527344 L 135.859375 467.5625 L 138.636719 464.640625 L 138.980469 460.378906 L 139.171875 460.128906 L 140.09375 457.902344 L 140.539063 455.539063 L 141.625 454.992188 L 142.492188 455.105469 L 144.269531 456.015625 L 145.761719 455.429688 L 148.429688 452.488281 L 148.140625 448.09375 L 148.292969 447.785156 L 148.566406 447.378906 L 151.105469 446.613281 L 157.421875 446.269531 L 159.910156 445.683594 L 164.597656 446.761719 L 166.046875 446.148438 L 167.527344 446.515625 L 169.484375 447.285156 L 170.039063 448.109375 L 170.757813 448.421875 L 173.15625 448.464844 L 180.570313 447.503906 L 181.109375 445.632813 L 181.210938 443.15625 L 182.519531 440.25 L 190.867188 432.195313 L 195.792969 425.3125 L 197.929688 424.472656 L 198.285156 423.78125 L 198.070313 423.238281 L 197.8125 423.082031 L 196.09375 424.355469 L 192.90625 427.300781 L 190.570313 429.988281 L 189.222656 431.449219 L 185.628906 432.957031 L 183.714844 433.246094 L 182.441406 433.0625 L 178.394531 435.230469 L 177.398438 436.808594 L 177.039063 438.671875 L 176.445313 439.273438 L 174.058594 439.917969 L 170.558594 439.851563 L 166.820313 439 L 166.347656 438.652344 L 161.371094 433.375 L 160.234375 431.347656 L 161.554688 431.867188 L 167.347656 432.804688 L 169.648438 432.558594 L 171.96875 431.8125 L 174.1875 430.519531 L 175.984375 428.867188 L 177.460938 426.769531 L 178.441406 424.394531 L 178.867188 421.992188 L 178.78125 419.554688 L 178.144531 417.066406 L 177.050781 414.886719 L 172.984375 410.042969 L 169.695313 407.648438 L 166.996094 406.480469 L 164.472656 406.042969 L 161.914063 406.171875 L 159.445313 406.855469 L 157.1875 408.0625 L 155.25 409.734375 L 153.65625 411.902344 L 152.644531 414.253906 L 152.167969 416.769531 L 152.011719 419.023438 L 152.316406 421.777344 L 152.898438 423.851563 L 153.851563 425.785156 L 155.144531 427.507813 L 157.128906 429.417969 L 155.65625 429.589844 L 149.269531 432.308594 L 149.113281 432.746094 L 148.191406 432.207031 L 148.042969 431.984375 L 147.160156 431.257813 L 146.917969 429.308594 L 148.539063 428.378906 L 150.066406 428.890625 L 151.640625 428.421875 L 152.765625 427.832031 L 153.085938 427.097656 L 152.808594 426.597656 L 147.785156 426.460938 L 143.210938 423.710938 L 139.503906 423.714844 L 136.765625 424.277344 L 136.292969 426.515625 L 135.777344 427.203125 L 133.742188 427.917969 L 132.394531 427.265625 L 131.648438 427.453125 L 130.609375 428.359375 L 128.90625 428.398438 L 127.335938 426.925781 L 127.117188 426.789063 L 127.425781 426.082031 L 128.796875 425.832031 L 131.792969 424.328125 L 131.226563 422.867188 L 130.640625 424.257813 L 127.769531 424.613281 L 122.949219 424.152344 L 121.496094 423.164063 L 124.125 421.78125 L 125.167969 421.753906 L 125.464844 421.238281 L 124.929688 417.953125 L 123.328125 417.210938 L 121.445313 417.105469 L 122.0625 415.152344 L 125.933594 413.378906 L 126.539063 411.90625 L 133.074219 411.34375 L 134.871094 409.289063 L 135.753906 407.632813 L 137.585938 406.550781 L 141.359375 406.660156 L 142.21875 406.390625 L 149.359375 401.828125 L 152.136719 398.207031 L 153.054688 396.195313 L 154.199219 391.746094 L 153.816406 389.316406 L 156.046875 389.628906 L 159.207031 392.019531 L 162.859375 393.191406 L 166.691406 393.109375 L 170.289063 391.789063 L 173.09375 389.558594 L 174.480469 387.714844 L 175.429688 385.753906 L 178.363281 383.078125 L 179.648438 381.003906 L 180.472656 378.710938 L 180.800781 375.777344 L 180.417969 372.980469 L 178.65625 368.574219 L 177.21875 366.304688 L 175.394531 364.503906 L 173.226563 363.144531 L 169.085938 361.425781 L 165.929688 360.9375 L 162.757813 361.320313 L 159.921875 362.492188 L 157.039063 361.863281 L 154.214844 361.960938 L 152.097656 362.503906 L 150.117188 363.433594 L 147.738281 365.433594 L 147.953125 364.523438 L 151.550781 360.582031 L 153.09375 359.609375 L 154.941406 359.808594 L 160.492188 357.457031 L 163.644531 357.28125 L 167.339844 357.714844 L 172.597656 355.179688 L 173.128906 355.125 L 173.777344 355.285156 L 174.792969 355.332031 L 179.910156 359.441406 L 180.433594 358.429688 L 178.480469 354.902344 L 179.308594 354.738281 L 181.304688 356.4375 L 183.511719 357.601563 L 182.695313 361.136719 L 182.929688 364.589844 L 184.171875 367.820313 L 186.308594 370.542969 L 189.035156 372.457031 L 192.066406 373.496094 L 195.398438 373.65625 L 198.636719 372.867188 L 201.414063 371.269531 L 203.859375 368.820313 L 205.386719 366.152344 L 206.179688 363.054688 L 205.972656 359.222656 L 204.53125 355.671875 L 202.011719 352.777344 L 198.691406 350.863281 L 200.910156 348.402344 L 202.308594 345.539063 L 202.875 342.402344 L 202.570313 339.230469 L 204.015625 341.941406 L 206.121094 344.179688 L 208.742188 345.785156 L 211.6875 346.652344 L 214.761719 346.714844 L 217.621094 346.019531 L 220.21875 344.628906 L 222.710938 342.417969 L 224.382813 340.324219 L 225.488281 338.027344 L 226.128906 334.777344 L 225.832031 331.476563 L 227.777344 328.476563 L 228.703125 325.15625 L 228.75 322.726563 L 228.289063 320.335938 L 227.339844 318.097656 Z M 232.914063 471.492188 L 231.683594 472.492188 L 230.4375 474.027344 L 229.960938 474.269531 L 228.117188 474.644531 L 222.296875 470.886719 L 220.207031 471.1875 L 221.476563 469.683594 L 227.316406 466.367188 L 232.550781 467.761719 L 234.171875 469.894531 Z M 145.042969 369.808594 L 144.429688 372.578125 L 144.425781 375 L 143.757813 375.484375 L 142.078125 378.042969 L 141.804688 377.996094 L 136.660156 378 L 136.660156 377.304688 L 137.339844 376.066406 L 140.148438 373.019531 L 141.023438 372.414063 L 142.589844 371.953125 Z M 140.539063 357.78125 L 140.539063 355.167969 L 140.597656 355.164063 L 141.484375 356.3125 L 142.226563 358.1875 L 141.734375 358.875 L 141.003906 358.070313 Z M 144.675781 351.183594 L 146.027344 352.859375 L 148.148438 354.523438 L 150.59375 355.65625 L 153.109375 356.179688 L 153.785156 356.144531 L 155.546875 356.503906 L 154.066406 358.859375 L 150.984375 360.816406 L 147.425781 363.976563 L 146.109375 363.875 L 144.195313 361.613281 L 142.050781 357.363281 L 142.246094 352.273438 L 144.664063 351.183594 Z M 221.953125 288.832031 L 222.097656 287.550781 L 222.4375 288.988281 Z M 140.539063 319.847656 L 142.089844 318.171875 L 143.226563 316.34375 L 144.007813 314.335938 L 144.414063 312.09375 L 148.292969 312.09375 L 148.292969 315.96875 L 146.121094 317.675781 L 144.414063 319.847656 Z M 140.539063 253.9375 L 142.9375 252.769531 L 143.386719 255.378906 L 144.414063 257.816406 L 142.707031 255.644531 Z M 286.679688 439.636719 L 283.058594 438.976563 L 282.164063 437.605469 L 282.484375 436.070313 L 286.839844 437.054688 L 287.960938 438.832031 Z M 236.835938 466.113281 L 235.136719 465.644531 L 236.523438 463.683594 L 237.195313 464.164063 L 237.5 465.839844 Z M 88.429688 500.046875 L 88.566406 499.308594 L 88.941406 499.117188 L 89.34375 499.789063 Z M 88.429688 500.046875 "/>
</g>
</svg>
