<?xml version="1.0" encoding="UTF-8"?>
<svg xmlns="http://www.w3.org/2000/svg" xmlns:xlink="http://www.w3.org/1999/xlink" width="378pt" height="504pt" viewBox="0 0 378 504" version="1.1">
<g id="data">
<rect x="0" y="0" width="378" height="504" style="fill:rgb(100%,100%,100%);fill-opacity:1;stroke:none;"/>
<path style=" stroke:none;fill-rule:nonzero;fill:rgb(100%,100%,100%);fill-opacity:1;" d="M 53.308594 504 L 324.691406 504 L 324.691406 0 L 53.308594 0 Z M 53.308594 504 "/>
<path style=" stroke:none;fill-rule:nonzero;fill:rgb(22.745098%,53.333333%,16.078431%);fill-opacity:1;" d="M 221.890625 377.785156 L 225.621094 376.9375 L 227.765625 375.785156 L 229.707031 374.125 L 232.316406 373.605469 L 234.738281 372.507813 L 238.398438 369.375 L 240.390625 366.574219 L 241.191406 364.554688 L 241.613281 362.296875 L 241.339844 358.617188 L 241.640625 356.464844 L 241.519531 354.171875 L 240.148438 350.207031 L 237.460938 346.984375 L 240.296875 348.15625 L 243.210938 348.542969 L 246.257813 348.15625 L 249.09375 346.984375 L 250.707031 350.03125 L 253.039063 352.394531 L 256.671875 354.25 L 260.722656 354.738281 L 262.429688 356.910156 L 264.601563 358.617188 L 265.007813 361.671875 L 261.191406 362.316406 L 257.371094 364.339844 L 254.664063 367.390625 L 253.199219 371.066406 L 252.304688 378 L 253.253906 384.429688 L 254.839844 388.203125 L 257.640625 391.195313 L 259.972656 392.546875 L 262.425781 393.300781 L 266.222656 393.667969 L 270.019531 393.496094 L 272.175781 393.125 L 274.335938 392.304688 L 276.191406 391.152344 L 277.886719 389.574219 L 279.230469 387.691406 L 280.179688 385.582031 L 280.691406 383.328125 L 280.734375 380.886719 L 279.238281 374.441406 L 278.007813 372.226563 L 276.324219 370.351563 L 276.925781 370.246094 L 280.109375 370.246094 L 280.707031 373.09375 L 281.996094 375.707031 L 284.597656 378.640625 L 286.707031 380.261719 L 290.605469 381.726563 L 293.363281 382.035156 L 295.617188 381.875 L 296.753906 384.453125 L 298.476563 386.679688 L 300.683594 388.425781 L 303.371094 389.628906 L 303.371094 405.136719 L 301.042969 407.972656 L 300.011719 410.285156 L 299.699219 411.84375 L 297.144531 414.53125 L 295.578125 412.011719 L 292.742188 410.515625 L 292.480469 410.636719 L 293.898438 413.703125 L 295.890625 416.628906 L 296.3125 416.765625 L 296.164063 417.742188 L 294.574219 419.804688 L 292.191406 421.289063 L 290.003906 421.65625 L 289.660156 421.574219 L 288.214844 419.332031 L 284.976563 421.730469 L 280.71875 424.230469 L 282.339844 425.378906 L 285.105469 424.398438 L 286.097656 423.375 L 286.894531 423.164063 L 287.328125 423.710938 L 287.632813 428.84375 L 285.6875 430.875 L 283.441406 432.558594 L 282.84375 432.699219 L 279.644531 432.160156 L 274.75 433.78125 L 272.609375 436.117188 L 274.253906 436.015625 L 275.152344 434.667969 L 276.683594 434.363281 L 278.285156 434.328125 L 281.054688 434.949219 L 281.828125 435.589844 L 281.691406 436.328125 L 279.554688 436.347656 L 277.390625 437.65625 L 277.96875 438.546875 L 281.382813 438.964844 L 286.863281 440.339844 L 289.394531 439.9375 L 291.074219 438.957031 L 296.332031 438.230469 L 299.492188 440.03125 L 299.492188 447.785156 L 297.320313 449.492188 L 296.707031 450.273438 L 295.839844 450.375 L 292.828125 451.558594 L 290.234375 451.886719 L 287.945313 452.632813 L 285.964844 453.761719 L 281.902344 457.15625 L 280.109375 459.414063 L 278.300781 460.773438 L 277.085938 462.25 L 274.789063 462.777344 L 272.597656 463.816406 L 270.539063 466.589844 L 269.761719 466.949219 L 259.480469 463.839844 L 259.332031 463.773438 L 255.597656 463.148438 L 252.214844 463.378906 L 248.378906 464.65625 L 247.84375 465.085938 L 244.628906 465.699219 L 242.703125 466.390625 L 242.113281 466.964844 L 242.085938 467.109375 L 240.582031 467.257813 L 240.140625 467.398438 L 238.210938 466.1875 L 238.632813 465.4375 L 239.46875 464.933594 L 237.714844 463.296875 L 231.496094 463.171875 L 231.378906 463.496094 L 232.574219 464.835938 L 232.214844 465.75 L 231.738281 466.042969 L 226.691406 465.496094 L 219.566406 468.449219 L 217.054688 467.824219 L 210.222656 468.96875 L 208.164063 468.875 L 207.273438 468.058594 L 206.238281 469.769531 L 209.429688 471.089844 L 209.714844 470.9375 L 210.1875 472.128906 L 209.566406 473.890625 L 206.84375 474.453125 L 204.453125 473.097656 L 203.015625 472.699219 L 197.625 472.007813 L 196.175781 472.65625 L 195.679688 473.863281 L 195.832031 474.871094 L 196.757813 475.523438 L 196.488281 476.304688 L 195.917969 475.996094 L 194.851563 473.972656 L 190.289063 470.589844 L 185.898438 468.519531 L 183.121094 467.984375 L 181.648438 469.066406 L 176.207031 469.78125 L 174.339844 470.335938 L 168.992188 473.234375 L 168.214844 474.070313 L 167.203125 476.179688 L 162.746094 489.226563 L 160.929688 490.242188 L 158.269531 489.722656 L 157.554688 489.058594 L 156.527344 486.851563 L 154.683594 485.4375 L 153.613281 485.542969 L 152.417969 486.300781 L 151.851563 486.183594 L 151.503906 485.902344 L 148.511719 482.582031 L 151.671875 482.75 L 156.007813 481.707031 L 157.90625 480.640625 L 159.570313 479.238281 L 161.089844 477.335938 L 162.175781 475.160156 L 162.785156 472.804688 L 162.902344 470.503906 L 162.558594 468.222656 L 161.773438 466.054688 L 158.730469 461.785156 L 157.101563 460.335938 L 155.113281 459.164063 L 152.9375 458.410156 L 150.777344 458.105469 L 148.476563 458.222656 L 146.363281 458.753906 L 144.273438 459.730469 L 142.515625 461.019531 L 143.8125 458.398438 L 144.320313 455.996094 L 145.761719 455.429688 L 148.429688 452.488281 L 148.15625 448.324219 L 148.292969 447.785156 L 149.941406 449.753906 L 151.980469 451.316406 L 154.191406 452.351563 L 156.699219 452.914063 L 159.269531 452.914063 L 161.777344 452.351563 L 163.988281 451.316406 L 166.027344 449.753906 L 168.519531 446.90625 L 169.484375 447.285156 L 170.039063 448.109375 L 170.757813 448.421875 L 173.15625 448.464844 L 180.570313 447.503906 L 181.109375 445.632813 L 181.210938 443.15625 L 182.519531 440.25 L 190.867188 432.195313 L 195.792969 425.3125 L 197.929688 424.472656 L 198.285156 423.78125 L 198.070313 423.238281 L 197.8125 423.082031 L 196.09375 424.355469 L 192.90625 427.300781 L 190.570313 429.988281 L 189.222656 431.449219 L 185.628906 432.957031 L 183.714844 433.246094 L 182.441406 433.0625 L 178.394531 435.230469 L 177.398438 436.808594 L 177.039063 438.671875 L 176.445313 439.273438 L 174.058594 439.917969 L 171.539063 439.871094 L 171.640625 439.410156 L 171.554688 436.152344 L 173.722656 434.445313 L 175.429688 432.277344 L 179.339844 431.601563 L 182.695313 429.726563 L 184.972656 427.292969 L 186.46875 424.3125 L 186.976563 422.058594 L 187.070313 419.5 L 186.777344 417.355469 L 186.09375 415.300781 L 184.96875 413.304688 L 183.472656 411.566406 L 181.664063 410.15625 L 179.734375 409.175781 L 182.230469 409.753906 L 184.789063 409.773438 L 187.289063 409.230469 L 189.722656 408.089844 L 192.519531 405.660156 L 193.933594 403.527344 L 194.816406 401.261719 L 196.984375 399.554688 L 198.691406 397.382813 L 200.328125 398.996094 L 202.25 400.257813 L 204.382813 401.113281 L 206.640625 401.535156 L 213.519531 401.003906 L 215.835938 400.226563 L 217.9375 398.984375 L 220.8125 395.886719 L 221.804688 393.941406 L 222.417969 391.84375 L 222.59375 388.765625 L 221.953125 385.753906 L 222.484375 383.664063 L 222.617188 381.382813 Z M 232.859375 471.5625 L 231.871094 472.320313 L 230.464844 474.011719 L 229.960938 474.269531 L 229.152344 474.433594 L 227.519531 473.003906 L 224.921875 471.6875 L 222.890625 471.269531 L 222.296875 470.886719 L 221.546875 470.992188 L 220.695313 470.820313 L 220.515625 470.816406 L 221.476563 469.683594 L 227.316406 466.367188 L 232.550781 467.761719 L 234.171875 469.894531 Z M 146.042969 482.714844 L 145.984375 482.691406 L 142.433594 482.390625 L 136.855469 483.058594 L 134.816406 483.816406 L 133.667969 484.511719 L 132.167969 484.859375 L 129.414063 488.195313 L 126.714844 489.746094 L 124.039063 490.597656 L 123.132813 494.289063 L 123.1875 494.394531 L 122.164063 495.832031 L 121.507813 497.359375 L 120.660156 497.648438 L 120.394531 498.183594 L 118.253906 498.183594 L 117.96875 497.691406 L 118.09375 496.4375 L 117.15625 494.691406 L 115.984375 493.691406 L 112.253906 492.070313 L 111.601563 492.003906 L 115.832031 488.453125 L 117.4375 486.410156 L 118.144531 485.910156 L 121.425781 483.085938 L 124.375 479.769531 L 125.210938 477.886719 L 124.875 476.421875 L 125.640625 474.519531 L 128.386719 473.238281 L 132.105469 472.640625 L 132.679688 471.785156 L 133.015625 470.472656 L 134.011719 470.179688 L 136.242188 468.960938 L 138.234375 467.1875 L 137.578125 471.082031 L 138.304688 475.09375 L 140.371094 478.605469 L 143.480469 481.1875 L 147.035156 482.503906 L 148.109375 482.5625 Z M 110.242188 494.171875 L 110.070313 494.121094 L 107.386719 494.03125 L 110.355469 492.746094 Z M 221.953125 284.953125 L 223.660156 287.125 L 224.410156 287.714844 L 225.039063 290.367188 L 224.253906 289.808594 L 221.953125 288.832031 Z M 123.109375 422.316406 L 124.867188 424.335938 L 122.949219 424.152344 L 121.496094 423.164063 Z M 88.945313 499.121094 L 88.542969 499.441406 L 88.566406 499.308594 L 88.941406 499.117188 Z M 286.679688 439.636719 L 283.058594 438.976563 L 282.164063 437.605469 L 282.484375 436.070313 L 286.839844 437.054688 L 287.960938 438.832031 Z M 236.835938 466.113281 L 235.136719 465.644531 L 236.523438 463.683594 L 237.195313 464.164063 L 237.5 465.839844 Z M 236.835938 466.113281 "/>
</g>
</svg>
