<?xml version="1.0" encoding="UTF-8"?>
<svg xmlns="http://www.w3.org/2000/svg" xmlns:xlink="http://www.w3.org/1999/xlink" width="378pt" height="504pt" viewBox="0 0 378 504" version="1.1">
<g id="data">
<rect x="0" y="0" width="378" height="504" style="fill:rgb(100%,100%,100%);fill-opacity:1;stroke:none;"/>
<path style=" stroke:none;fill-rule:nonzero;fill:rgb(100%,100%,100%);fill-opacity:1;" d="M 53.308594 504 L 324.691406 504 L 324.691406 0 L 53.308594 0 Z M 53.308594 504 "/>
<path style=" stroke:none;fill-rule:nonzero;fill:rgb(22.745098%,53.333333%,16.078431%);fill-opacity:1;" d="M 241.339844 335.355469 L 243.566406 333.5 L 245.269531 331.15625 L 246.878906 333.445313 L 249.09375 335.355469 L 245.214844 334.6875 Z M 245.214844 315.96875 L 249.09375 315.96875 L 246.964844 317.785156 L 245.332031 320.054688 L 244.824219 316.117188 Z M 233.585938 36.832031 L 233.585938 36.976563 L 233.101563 38.984375 L 230.96875 38.972656 L 230.324219 38.394531 L 230.816406 33.792969 L 231.292969 32.953125 L 233.585938 32.953125 Z M 221.917969 72.445313 L 221.917969 72.402344 L 222.910156 68.203125 L 223.429688 67.644531 L 224.308594 63.570313 L 223.632813 57.773438 L 221.078125 57.210938 L 222.089844 58.292969 L 222.21875 59.898438 L 220.292969 61.703125 L 218.738281 60.40625 L 218.746094 59.554688 L 215.621094 58.289063 L 215.003906 56.183594 L 215.039063 55.8125 L 215.808594 55.171875 L 220.695313 54.34375 L 222.421875 53.527344 L 222.960938 52.8125 L 220.238281 48.339844 L 217.292969 47.78125 L 217.703125 46.707031 L 217.941406 45.355469 L 218.683594 44.515625 L 220.628906 44.300781 L 223.058594 43.464844 L 223.507813 43.183594 L 223.417969 46.992188 L 223.628906 47.851563 L 228.960938 48.949219 L 227.699219 56.234375 L 226.355469 57.007813 L 225.6875 56.476563 L 226.023438 58.453125 L 227.246094 61.769531 L 226.800781 62.460938 L 226.285156 62.238281 L 225.40625 63.738281 L 225.265625 67.207031 L 224.308594 74.617188 L 223.472656 74.351563 Z M 225.8125 41.566406 L 227.160156 40.21875 L 229.046875 36.792969 L 229.761719 37.023438 L 229.984375 39.984375 L 229.175781 46.582031 L 227.496094 47.179688 L 226.742188 47.023438 L 226.078125 45.398438 Z M 215.1875 371.234375 L 218.394531 373.253906 L 221.953125 374.125 L 219.5 377.183594 L 218.199219 380.886719 L 218.164063 378.625 L 217.597656 375.515625 L 216.652344 373.300781 Z M 198.886719 97.996094 L 198.691406 98.863281 L 197.109375 100.878906 L 194.695313 101.191406 L 193.226563 103.421875 L 193.136719 102.113281 L 195.332031 98.847656 L 196.15625 98.316406 Z M 191.015625 113.953125 L 190.9375 114.371094 L 189.492188 116.148438 L 186.777344 113.90625 L 184.832031 114.03125 L 181.886719 115.097656 L 179.414063 113.332031 L 179.464844 112.746094 L 179.308594 106.617188 L 181.464844 104.882813 L 181.753906 104.792969 L 184.519531 106.003906 L 186.230469 108.273438 L 187.324219 111.371094 L 189.425781 112.382813 L 190.734375 113.441406 Z M 188.117188 118.308594 L 187.542969 119.636719 L 187.0625 122.125 L 186.796875 122.421875 L 186.4375 122.070313 L 185.203125 119.125 L 185.941406 118.488281 Z M 184.003906 126.503906 L 183.914063 126.671875 L 182.542969 132.988281 L 182.621094 135.28125 L 183.183594 137.628906 L 181.378906 138.988281 L 179.308594 141.507813 L 178.640625 142.042969 L 177.402344 142.480469 L 176.097656 143.761719 L 173.855469 147.214844 L 162.601563 156.074219 L 162.234375 157.082031 L 162.671875 158.175781 L 162.078125 159.632813 L 159.644531 160.289063 L 156.839844 159.359375 L 153.464844 157.734375 L 154.464844 159.796875 L 155.875 160.457031 L 161.363281 161.917969 L 164.042969 162.292969 L 165.242188 161.992188 L 166.015625 161.605469 L 166.75 160.257813 L 167.589844 160.183594 L 167.507813 160.828125 L 166.417969 162.609375 L 162.722656 166.96875 L 162.175781 167.183594 L 161.726563 166.894531 L 161.859375 165.949219 L 161.53125 165.507813 L 159.984375 165.785156 L 155.320313 167.769531 L 152.441406 170.8125 L 151.949219 171.945313 L 152.140625 172.144531 L 156.390625 168.453125 L 157.75 167.980469 L 160.300781 168.324219 L 161.058594 169.320313 L 157.109375 173.804688 L 156.367188 175.339844 L 156.707031 175.816406 L 157.367188 175.984375 L 158.261719 175.542969 L 161.140625 173.015625 L 167.808594 170.273438 L 170.480469 169.527344 L 170.492188 169.949219 L 171.554688 169.839844 L 173.589844 168.316406 L 174.046875 166.78125 L 178.648438 166.167969 L 179.285156 167.089844 L 180.148438 167.667969 L 184.320313 169.011719 L 185.421875 168.390625 L 185.433594 168.394531 L 188.558594 168.800781 L 197.609375 168.738281 L 199.164063 168.988281 L 204.117188 168.914063 L 204.394531 168.6875 L 209.867188 168.648438 L 210.3125 168.835938 L 210.375 168.949219 L 210.695313 170.769531 L 211.511719 172.898438 L 212.726563 174.828125 L 213.347656 175.488281 L 213.671875 176.582031 L 213.695313 178 L 209.382813 183.425781 L 207.15625 188.339844 L 206.714844 190.925781 L 206.34375 192.65625 L 206.390625 194.019531 L 206.226563 194.742188 L 205.359375 196.308594 L 204.140625 196.894531 L 202.132813 198.480469 L 200.523438 200.464844 L 199.382813 202.757813 L 198.691406 206.132813 L 198.691406 208.167969 L 197.078125 210.023438 L 197.433594 210.839844 L 197.785156 210.703125 L 197.761719 211.238281 L 196.796875 214.386719 L 195.867188 215.914063 L 191.214844 219.742188 L 185.519531 221.085938 L 182.847656 221.226563 L 178.234375 224.878906 L 178.328125 221.484375 L 177.390625 218.164063 L 175.429688 215.167969 L 177.390625 214.21875 L 179.140625 212.917969 L 180.617188 211.3125 L 181.769531 209.460938 L 182.554688 207.429688 L 182.945313 205.285156 L 182.542969 201.089844 L 181.046875 197.839844 L 177.84375 193.992188 L 175.285156 192.058594 L 172.292969 190.894531 L 168.84375 190.609375 L 165.339844 191.398438 L 162.246094 193.214844 L 159.921875 195.785156 L 158.492188 193.96875 L 156.835938 192.546875 L 154.941406 191.460938 L 152.878906 190.746094 L 150.71875 190.429688 L 148.535156 190.519531 L 146.410156 191.019531 L 144.414063 191.90625 L 140.46875 192.359375 L 136.90625 194.109375 L 134.140625 196.960938 L 132.460938 200.699219 L 132.128906 204.144531 L 132.527344 206.125 L 123.476563 215.398438 L 120.675781 217.269531 L 120.230469 216.390625 L 115.878906 214.433594 L 114.8125 213.664063 L 113.113281 211.414063 L 113.132813 210.632813 L 113.96875 210.082031 L 116.167969 209.980469 L 120.585938 209.09375 L 123.988281 209.15625 L 124.257813 209.050781 L 124.117188 208.789063 L 119.15625 207.757813 L 117.03125 209.015625 L 115.34375 209.1875 L 108.898438 208.554688 L 108.144531 207.871094 L 107.96875 206.789063 L 109.109375 205.527344 L 114.792969 204.496094 L 115.882813 205.636719 L 117.070313 206.34375 L 118.480469 204.378906 L 117.316406 203.507813 L 117.253906 202.640625 L 119.675781 202.136719 L 120.503906 202.316406 L 121.824219 201.292969 L 121.664063 200.792969 L 120.140625 199.953125 L 116.804688 200.417969 L 115.804688 199.949219 L 118.253906 195.210938 L 118.835938 194.789063 L 120.441406 194.839844 L 120.773438 195.527344 L 122.574219 196.710938 L 124.417969 196.351563 L 125.527344 195.796875 L 122.886719 196.148438 L 119.445313 193.175781 L 119.640625 191.949219 L 120.992188 190.507813 L 122.769531 190.464844 L 125.425781 191.839844 L 128.601563 191.21875 L 128.128906 190.679688 L 126.691406 190.847656 L 125.089844 190.582031 L 122.863281 188.511719 L 122.929688 187.683594 L 124.972656 188.277344 L 128.90625 188.03125 L 131.554688 189.824219 L 134.464844 190.804688 L 137.65625 190.984375 L 140.65625 190.328125 L 143.378906 188.910156 L 145.71875 186.730469 L 147.65625 183.28125 L 148.855469 177.925781 L 148.902344 175.253906 L 148.292969 172.523438 L 148.957031 168.996094 L 148.515625 165.433594 L 147.605469 163.167969 L 146.238281 161.144531 L 144.378906 159.371094 L 142.289063 158.105469 L 139.480469 157.195313 L 136.191406 156.863281 L 135.242188 155.121094 L 133.609375 154.054688 L 132.890625 153.394531 L 133.519531 151.058594 L 133.515625 148.601563 L 133.714844 146.386719 L 133.191406 146.265625 L 132.824219 145.535156 L 132.785156 145.382813 L 132.785156 141.679688 L 135.539063 142.054688 L 138.566406 141.597656 L 137.367188 140.554688 L 136.464844 138 L 138.652344 135.335938 L 139.941406 132.726563 L 140.539063 129.875 L 144.414063 130.542969 L 147.722656 129.976563 L 147.992188 130.773438 L 145.957031 133.847656 L 146.042969 134.238281 L 149.632813 130.886719 L 149.78125 129.894531 L 153.417969 129.9375 L 153.609375 130.328125 L 157.023438 130.710938 L 160.886719 130.027344 L 161.925781 130.039063 L 164.421875 129.789063 L 168.160156 129.621094 L 169.804688 128.105469 L 171.035156 127.402344 L 172.933594 127.351563 L 173.433594 127.917969 L 177.664063 128.609375 L 178 127.714844 L 177.503906 127.214844 L 177.972656 125.796875 Z M 214.085938 256.871094 L 214.757813 260.542969 L 216.085938 263.273438 L 218.078125 265.570313 L 215.316406 266.121094 L 212.765625 267.320313 L 210.582031 269.101563 L 208.824219 271.460938 L 204.609375 267.675781 L 201.960938 266.140625 L 198.496094 265.296875 L 194.816406 265.570313 L 193.019531 263.3125 L 189.566406 260.378906 L 185.914063 258.375 L 181.429688 257.414063 L 178.738281 257.328125 L 175.730469 257.992188 L 173.003906 259.421875 L 171.085938 261.128906 L 169.585938 263.210938 L 168.578125 265.574219 L 168.109375 268.230469 L 168.261719 270.921875 L 169.082031 273.621094 L 170.148438 275.527344 L 171.554688 277.199219 L 172.035156 279.6875 L 172.980469 281.902344 L 175.429688 284.953125 L 175.347656 285.027344 L 174.65625 284.980469 L 172.566406 284.292969 L 169.453125 284.03125 L 168.226563 288.992188 L 166.234375 288.695313 L 163.3125 290.011719 L 161.832031 291.855469 L 161.351563 292.183594 L 159.667969 292.046875 L 157.269531 292.347656 L 155.257813 293.015625 L 155.160156 292.984375 L 149.984375 289.230469 L 149.214844 288.042969 L 149.230469 287.167969 L 148.945313 287.023438 L 148.15625 288.078125 L 147.988281 288.910156 L 148.375 290.554688 L 149.574219 292.960938 L 149.839844 295.726563 L 149.308594 296.871094 L 148.746094 297.058594 L 145.816406 295.78125 L 144.601563 294.238281 L 144.507813 293.621094 L 143.632813 292.355469 L 141.613281 291.4375 L 140.164063 290.433594 L 138.398438 288.636719 L 137.464844 288.296875 L 135.511719 289.683594 L 134.605469 291.238281 L 135.976563 295.472656 L 136.734375 296.308594 L 136.882813 297.777344 L 135.910156 297.265625 L 134.542969 296.964844 L 134.359375 296.304688 L 134.707031 295.457031 L 134.59375 294.480469 L 133.472656 292.679688 L 130.894531 289.722656 L 129.605469 286.988281 L 129.480469 286.195313 L 129.527344 283.933594 L 129.5 283.753906 L 129.71875 282.265625 L 132.777344 280.410156 L 134.003906 276.632813 L 137.757813 273.035156 L 138.601563 268.871094 L 140.917969 265.085938 L 143.644531 263.800781 L 144.390625 261.886719 L 144.195313 260.621094 L 142.601563 256.71875 L 139.777344 254.832031 L 137.378906 252.511719 L 138.6875 242.234375 L 140.085938 241.792969 L 140.359375 241.941406 L 142.835938 242.488281 L 142.886719 242.511719 L 143.460938 242.628906 L 144.359375 242.828125 L 144.40625 242.820313 L 146.15625 243.175781 L 148.300781 243.253906 L 146.511719 242.542969 L 148.292969 242.308594 L 151.054688 244.15625 L 154.226563 245.152344 L 156.785156 245.277344 L 159.183594 244.878906 L 162.445313 243.402344 L 165.101563 241.007813 L 166.585938 238.5 L 166.738281 239.222656 L 168.246094 240.195313 L 178.0625 241.875 L 182.921875 243.167969 L 186.398438 241.730469 L 187.519531 239.417969 L 188.617188 238.355469 L 189.539063 238.171875 L 193.183594 238.5 L 199.339844 242.761719 L 206.488281 246.65625 L 208.910156 251.429688 L 212.824219 256.707031 L 213.265625 256.828125 L 213.433594 256.585938 Z M 170.347656 296.566406 L 170.558594 298.132813 L 169.984375 297.332031 Z M 148.292969 308.539063 L 148.292969 317.265625 L 147.847656 318.148438 L 145.464844 320.492188 L 144.039063 321.035156 L 142.109375 322.25 L 141.417969 322.898438 L 139.824219 322.464844 L 137.933594 323.433594 L 137.675781 322.921875 L 139.617188 317.234375 L 139.828125 317.003906 L 140.324219 316.316406 L 142.300781 315.023438 L 144.765625 310.230469 L 145.863281 309.40625 Z M 117.40625 268.855469 L 117.898438 266.589844 L 117.761719 263.539063 L 117.296875 262.066406 L 117.992188 256.269531 L 120.664063 249.058594 L 119.164063 246.890625 L 119.359375 242.367188 L 121.945313 238.054688 L 122.191406 237.09375 L 120.824219 237.742188 L 119.636719 239.75 L 119.449219 238.929688 L 123.929688 230.9375 L 123.671875 230.734375 L 122.386719 231.796875 L 121.808594 231.777344 L 122.070313 227.40625 L 122.761719 224.691406 L 124.160156 221.96875 L 126.660156 220.210938 L 128.792969 220.179688 L 129.328125 220.484375 L 131.4375 220.320313 L 132.851563 218.835938 L 133.277344 219.625 L 134.847656 221.492188 L 136.660156 222.921875 L 134.773438 225.355469 L 133.59375 228.199219 L 133.195313 231.25 L 133.21875 231.398438 L 130.363281 233.964844 L 126.449219 238.917969 L 125.671875 238.734375 L 125.460938 238.363281 L 126.1875 249.699219 L 124.449219 251.558594 L 123.367188 254.191406 L 121.183594 263.964844 L 122.0625 266.289063 L 120.679688 268.164063 L 119.945313 268.597656 Z M 107.429688 254.054688 L 105.644531 253.9375 L 104.074219 252.464844 L 103.628906 252.183594 L 104.988281 247.472656 L 102.980469 247.105469 L 101.464844 249.738281 L 100.574219 250.648438 L 100.015625 250.433594 L 98.730469 250.210938 L 99.023438 248.875 L 100.660156 243.785156 L 102.445313 243.214844 L 103.882813 243.558594 L 106.871094 241.457031 L 108.433594 240.808594 L 108.667969 241.335938 L 108.480469 243.175781 L 108.777344 246.292969 L 109.046875 247.320313 L 109.929688 248.226563 L 110.335938 251.851563 L 108.992188 253.109375 Z M 102.882813 224.101563 L 102.382813 223.566406 L 102.589844 223.230469 L 103.304688 222.808594 L 103.460938 223.023438 Z M 90.136719 217.402344 L 90.136719 215.167969 L 93.226563 214.484375 L 95.210938 213.4375 L 95.671875 214.59375 L 93.804688 214.847656 L 92.019531 216.296875 L 91.515625 217.839844 Z M 96.695313 212.417969 L 99.882813 209.761719 L 101.292969 208.007813 L 101.351563 207.964844 L 102.617188 207.75 L 102.652344 208.195313 L 101.386719 210.445313 L 99.425781 212.117188 L 96.976563 213.15625 Z M 109.046875 199.632813 L 109.175781 199.34375 L 109.25 198.566406 L 110.578125 197.179688 L 111.398438 197.769531 L 111.5 198.265625 L 111.128906 199.855469 L 110.160156 200.433594 Z M 110.046875 187.46875 L 110.996094 186.457031 L 112.210938 184.527344 L 113.027344 182.398438 L 113.054688 182.234375 L 117.5 184.859375 L 117.746094 184.753906 L 119.113281 185.925781 L 121.0625 187.140625 L 121.929688 187.394531 L 119.148438 190.25 L 118.089844 190.683594 L 116.035156 193.449219 L 114.023438 194.042969 L 113.570313 192.609375 L 115.183594 189.4375 L 113.980469 187.324219 L 112.75 189.558594 L 110.542969 187.414063 Z M 113.394531 180.3125 L 113.398438 180.277344 L 113.945313 180.933594 L 113.875 180.957031 L 113.53125 180.855469 Z M 114.628906 181.753906 L 115.484375 182.785156 L 115.0625 182.589844 L 114.59375 181.914063 Z M 133.746094 156.863281 L 130.914063 157.109375 L 131.4375 156.253906 L 131.765625 156.140625 Z M 178.324219 119.394531 L 179.019531 117.679688 L 179.273438 114.867188 L 181.269531 116.636719 L 182.96875 119.6875 L 182.941406 120.441406 L 180.816406 120.886719 L 179.261719 120.746094 Z M 185.839844 99.09375 L 186.460938 97.832031 L 186.507813 97.613281 L 188.613281 98.375 L 189.644531 99.757813 L 189.558594 100.558594 L 189.007813 101.453125 L 189.121094 100.265625 L 187.730469 99.058594 L 186.953125 98.894531 L 186.835938 99.515625 L 186.335938 100.011719 Z M 132.6875 206.929688 L 132.785156 207.414063 L 131.4375 211.28125 L 131.484375 215.25 L 132.183594 217.585938 L 132.738281 218.621094 L 131.898438 219.546875 L 131.125 219.644531 L 127.28125 218.265625 L 127.882813 216.460938 L 128.195313 216.742188 L 128.945313 216.671875 L 131.070313 215.113281 L 129.507813 214.882813 L 128.550781 215.441406 L 127.980469 214.949219 L 127.875 213.785156 L 129.65625 210.6875 Z M 133.34375 232.320313 L 133.617188 234.300781 L 134.570313 236.683594 L 136.105469 238.898438 L 138.113281 240.699219 L 138.125 240.707031 L 136.15625 245.152344 L 135.023438 244.945313 L 131.566406 242.222656 L 130.757813 242.5 L 130.269531 243.347656 L 130.09375 244.535156 L 130.664063 246.308594 L 130.519531 246.613281 L 128.257813 245.464844 L 127.46875 243.074219 L 128.453125 238.691406 L 131.230469 234.078125 Z M 166.863281 238.015625 L 167.675781 234.554688 L 170.558594 233.960938 L 173.199219 232.664063 L 175.433594 230.742188 L 177.050781 228.4375 L 178.042969 225.597656 L 178.117188 225.714844 L 179.84375 225.195313 L 184.609375 222.886719 L 186.457031 221.386719 L 187.289063 221.316406 L 189.085938 221.875 L 189.332031 222.921875 L 188.898438 224.691406 L 189.238281 225.953125 L 190.898438 226.824219 L 192.988281 227.191406 L 194.445313 228.726563 L 194.429688 229.304688 L 192.117188 231.570313 L 189.460938 232.730469 L 188.34375 232.882813 L 187.070313 232.078125 L 185.40625 232.042969 L 181.046875 235.800781 L 180.578125 237.003906 L 174.761719 240.109375 L 170.214844 238.117188 Z M 187.0625 331.476563 L 188.96875 333.769531 L 190.9375 335.355469 L 190.265625 339.34375 L 191.003906 343.324219 L 188.035156 343.886719 L 185.414063 345.128906 L 187.480469 342.066406 L 188.480469 338.507813 L 188.339844 334.945313 Z M 82.871094 168.265625 L 84.554688 166.9375 L 86.605469 164.539063 L 87.222656 163.867188 L 88.554688 163.523438 L 90.6875 165.371094 L 90.203125 168.261719 L 89.878906 168.964844 L 87.992188 171.292969 L 86.902344 171.355469 L 84.875 171.125 L 84.914063 169.441406 L 82.996094 168.253906 Z M 87.980469 162.640625 L 88.300781 162.082031 L 88.445313 161.890625 L 89.367188 161.550781 L 89.65625 162.238281 L 88.238281 162.863281 Z M 92.097656 143.035156 L 92.585938 142.535156 L 95.144531 140.632813 L 96.675781 141.359375 L 95.960938 142.378906 L 97.386719 146.128906 L 97.359375 142.890625 L 98.964844 142.257813 L 100.179688 142.804688 L 100.34375 142.296875 L 99.09375 139.5 L 98.9375 138.609375 L 99.425781 137.746094 L 100.019531 137.792969 L 104.324219 137.492188 L 106.667969 136.847656 L 108.71875 135.800781 L 111.554688 133.230469 L 113.097656 130.425781 L 113.398438 131.347656 L 113.398438 133.753906 L 111.925781 135.324219 L 110.710938 137.257813 L 109.898438 139.386719 L 109.523438 141.507813 L 107.132813 142.453125 L 104.914063 143.984375 L 103.179688 145.878906 L 101.90625 148.109375 L 101.773438 148.519531 L 101.296875 148.414063 L 99.359375 150.839844 L 100.101563 152.9375 L 101.019531 153.988281 L 101.277344 156.078125 L 100.378906 157.167969 L 99.21875 157.300781 L 96.671875 158.191406 L 94.503906 159.5625 L 92.820313 161.265625 L 90.550781 158.175781 L 90.507813 157.148438 L 91.820313 157.980469 L 97.480469 154.929688 L 96.453125 153.484375 L 95.234375 152.652344 L 94.117188 152.148438 L 92.941406 152.324219 L 92.058594 151.863281 L 91.273438 150.875 L 92.699219 149.40625 L 91.417969 144.347656 Z M 101.488281 149.402344 L 101.230469 150.1875 L 100.953125 152.484375 L 101 153.085938 L 100.703125 152.269531 L 100.652344 150.535156 Z M 87.136719 173 L 86.742188 173.914063 L 86.433594 175.5 L 85.394531 175.835938 L 84.546875 175.601563 L 83.046875 174.507813 L 82.722656 173.699219 L 82.824219 172.589844 L 83.972656 171.789063 L 86.566406 172.507813 Z M 85.660156 177.066406 L 84.070313 178.820313 L 82.636719 181.753906 L 82.382813 180.277344 L 83.046875 176.144531 L 82.976563 175.753906 L 83.4375 175.515625 L 85.28125 176.539063 Z M 81.535156 192.621094 L 79.699219 194.164063 L 79.054688 195.058594 L 77.859375 194.78125 L 78.027344 194.394531 L 78.289063 193.035156 L 80.441406 190.269531 L 81.117188 190.9375 Z M 81.878906 187.074219 L 82.132813 186.554688 L 82.207031 188.167969 L 82.128906 188.101563 L 81.921875 187.375 Z M 98.214844 141.941406 L 97.453125 141.691406 L 97.21875 139.679688 L 98.019531 139.84375 L 99.277344 141.320313 L 99.230469 141.953125 Z M 91.824219 155.515625 L 91.882813 154.726563 L 92.882813 153.957031 L 93.789063 153.890625 L 93.378906 155.476563 Z M 110.59375 209.929688 L 111.976563 210.636719 L 113.289063 212.988281 L 113.785156 214.699219 L 116.457031 215.945313 L 117.929688 216.300781 L 121.195313 219.144531 L 120.902344 221.207031 L 119.445313 223.339844 L 116.335938 225.03125 L 115.453125 224.539063 L 116.136719 223.339844 L 115.425781 223.117188 L 112.109375 224.96875 L 106.027344 226.585938 L 104.691406 226.273438 L 103.734375 224.277344 L 103.851563 223.371094 L 104.191406 223.09375 L 105.628906 223.050781 L 106.039063 223.617188 L 106.972656 224.074219 L 112.214844 222.164063 L 112.035156 221.589844 L 109.863281 222.445313 L 108.199219 222.488281 L 107.824219 221.539063 L 109.386719 219.472656 L 112.601563 217.957031 L 112.90625 216.820313 L 112.554688 216.699219 L 109.90625 217.519531 L 105.058594 214.074219 L 105.636719 211.667969 L 108.914063 210.140625 L 110.03125 209.789063 Z M 108.136719 218.074219 L 107.207031 217.691406 L 106.753906 217.160156 L 107.335938 216.378906 L 108.085938 216.507813 L 109.105469 217.519531 L 109.070313 217.820313 Z M 123.378906 222.417969 L 122.582031 222.078125 L 123.082031 221.191406 L 124.476563 221.046875 Z M 121.453125 227.109375 L 121.152344 226.972656 L 120.984375 225.621094 L 121.59375 224.800781 L 122.367188 224.816406 L 121.953125 226.621094 Z M 120.902344 230.566406 L 120.316406 229.273438 L 120.976563 227.386719 L 121.816406 227.683594 Z M 118.503906 231.671875 L 118.15625 231.449219 L 118.535156 230.824219 L 119.917969 230.164063 L 119.953125 231.257813 Z M 111.886719 247.292969 L 110.550781 247.070313 L 109.476563 246.144531 L 109.292969 243.285156 L 109.585938 242.089844 L 112.5625 237.15625 L 116.605469 233.660156 L 119.195313 232.023438 L 119.632813 233.128906 L 119.449219 233.945313 L 118.015625 235.730469 L 113.761719 243.328125 Z M 106.976563 236.632813 L 105.476563 236.191406 L 106.28125 234.464844 L 107.839844 232.910156 L 108.882813 232.734375 L 107.535156 236.1875 Z M 134.8125 251.347656 L 132.589844 248.835938 L 130.84375 244.566406 L 130.707031 243.464844 L 131.460938 242.613281 L 133.71875 244.574219 L 134.707031 246.3125 L 135.339844 249.003906 L 135.222656 250.96875 Z M 130.613281 263.773438 L 129.152344 263.667969 L 126.582031 261.613281 L 125.375 256.128906 L 125.988281 253.21875 L 128.179688 251.246094 L 129.539063 251.441406 L 131.390625 253.015625 L 132.984375 258.382813 L 133.019531 262.765625 L 132.308594 263.453125 Z M 130.613281 263.773438 "/>
</g>
</svg>
