<?xml version="1.0" encoding="UTF-8"?>
<svg xmlns="http://www.w3.org/2000/svg" xmlns:xlink="http://www.w3.org/1999/xlink" width="378pt" height="504pt" viewBox="0 0 378 504" version="1.1">
<g id="data">
<rect x="0" y="0" width="378" height="504" style="fill:rgb(100%,100%,100%);fill-opacity:1;stroke:none;"/>
<path style=" stroke:none;fill-rule:nonzero;fill:rgb(100%,100%,100%);fill-opacity:1;" d="M 53.308594 504 L 324.691406 504 L 324.691406 0 L 53.308594 0 Z M 53.308594 504 "/>
<path style=" stroke:none;fill-rule:nonzero;fill:rgb(22.745098%,53.333333%,16.078431%);fill-opacity:1;" d="M 241.667969 328.34375 L 243.332031 327.445313 L 245.199219 327.132813 L 247.066406 327.4375 L 248.738281 328.324219 L 250.15625 329.402344 L 251.640625 330.125 L 253.144531 331.183594 L 254.246094 332.660156 L 254.828125 334.402344 L 254.839844 336.242188 L 254.277344 337.992188 L 253.730469 338.742188 L 253.664063 338.65625 L 252.601563 338.082031 L 245.550781 339.511719 L 244.589844 338.644531 L 243.40625 338.558594 L 241.210938 339.871094 L 241.886719 340.445313 L 246.324219 340.394531 L 249.617188 339.34375 L 251.976563 339.082031 L 252.5625 339.929688 L 251.699219 340.550781 L 249.949219 341.105469 L 248.109375 341.085938 L 245.214844 340.589844 L 242.320313 341.085938 L 240.488281 341.105469 L 238.734375 340.554688 L 237.246094 339.484375 L 236.160156 338.003906 L 235.59375 336.257813 L 235.597656 334.421875 L 236.175781 332.679688 L 237.265625 331.203125 L 238.761719 330.140625 L 240.355469 329.351563 Z M 217.175781 258.859375 L 216.308594 259.359375 L 214.605469 260.019531 L 213.59375 260.6875 L 212.738281 261.550781 L 212.085938 262.574219 L 211.660156 263.710938 L 211.480469 264.910156 L 211.554688 266.121094 L 212.046875 267.882813 L 212.253906 269.738281 L 211.859375 271.566406 L 210.910156 273.175781 L 209.496094 274.398438 L 207.765625 275.109375 L 205.902344 275.234375 L 204.09375 274.765625 L 202.527344 273.742188 L 200.765625 272.136719 L 199.371094 271.4375 L 197.726563 271.132813 L 195.371094 271.359375 L 193.449219 271.222656 L 191.671875 270.460938 L 190.246094 269.164063 L 188.96875 267.539063 L 187.34375 266.261719 L 185.808594 264.429688 L 184.734375 262.417969 L 183.675781 261.304688 L 182.023438 260.375 L 180.128906 260.007813 L 178.757813 260.140625 L 177.609375 260.550781 L 175.035156 262.472656 L 173.988281 263.097656 L 171.292969 264.339844 L 170.242188 265.28125 L 169.371094 266.648438 L 168.925781 268.089844 L 168.875 269.644531 L 169.472656 272.257813 L 169.597656 274.015625 L 169.371094 274.96875 L 169.960938 275.554688 L 171.269531 277.320313 L 172.40625 278.234375 L 173.746094 278.84375 L 175.800781 279.210938 L 177.507813 279.804688 L 178.953125 280.890625 L 179.992188 282.371094 L 180.527344 284.097656 L 180.515625 285.226563 L 180.035156 285.351563 L 174.65625 284.980469 L 172.566406 284.292969 L 169.453125 284.03125 L 168.226563 288.992188 L 166.234375 288.695313 L 163.3125 290.011719 L 161.832031 291.855469 L 159.410156 293.515625 L 156.15625 293.3125 L 155.160156 292.984375 L 149.984375 289.230469 L 149.214844 288.042969 L 149.230469 287.167969 L 148.945313 287.023438 L 148.15625 288.078125 L 147.988281 288.910156 L 148.375 290.554688 L 149.574219 292.960938 L 149.839844 295.726563 L 149.308594 296.871094 L 148.746094 297.058594 L 145.816406 295.78125 L 144.601563 294.238281 L 144.507813 293.621094 L 143.632813 292.355469 L 141.613281 291.4375 L 140.164063 290.433594 L 138.398438 288.636719 L 137.464844 288.296875 L 135.511719 289.683594 L 134.605469 291.238281 L 135.976563 295.472656 L 136.734375 296.308594 L 136.957031 298.523438 L 136.742188 298.695313 L 134.683594 297.484375 L 134.359375 296.304688 L 134.707031 295.457031 L 134.59375 294.480469 L 133.472656 292.679688 L 130.894531 289.722656 L 129.605469 286.988281 L 129.300781 285.09375 L 129.71875 282.265625 L 132.777344 280.410156 L 134.003906 276.632813 L 137.757813 273.035156 L 138.601563 268.871094 L 140.917969 265.085938 L 143.644531 263.800781 L 144.390625 261.886719 L 144.195313 260.621094 L 142.601563 256.71875 L 139.777344 254.832031 L 137.378906 252.511719 L 138.6875 242.234375 L 140.710938 241.59375 L 142.886719 242.511719 L 146.15625 243.175781 L 148.300781 243.253906 L 141.261719 240.453125 L 140.441406 240.5625 L 139.386719 240.085938 L 139.183594 238.121094 L 139.414063 236.460938 L 140.140625 234.859375 L 141.054688 235.910156 L 143.417969 237.253906 L 144.550781 238.097656 L 146.003906 239.480469 L 147.023438 240.082031 L 149.007813 240.585938 L 151.738281 240.386719 L 152.515625 240.378906 L 154.46875 240.496094 L 157.527344 240.097656 L 159.582031 239.097656 L 160.433594 238.308594 L 161.171875 237.210938 L 161.667969 235.867188 L 161.902344 233.878906 L 162.441406 232.019531 L 163.566406 230.441406 L 165.144531 229.320313 L 167.003906 228.777344 L 169.023438 228.542969 L 170.210938 228.117188 L 171.273438 227.445313 L 172.101563 226.609375 L 173.207031 224.515625 L 174.023438 220.285156 L 174.089844 218.539063 L 173.625 216.402344 L 173.519531 214.59375 L 173.980469 212.835938 L 174.957031 211.308594 L 176.359375 210.15625 L 178.046875 209.492188 L 179.855469 209.378906 L 181.613281 209.832031 L 183.304688 210.558594 L 184.414063 210.789063 L 185.546875 210.792969 L 186.785156 210.542969 L 187.757813 210.132813 L 188.527344 209.617188 L 191.398438 206.476563 L 192.542969 204.472656 L 193.394531 200.886719 L 193.46875 199.140625 L 193.007813 197.019531 L 192.878906 195.628906 L 193.082031 194.25 L 193.585938 192.414063 L 193.640625 191.058594 L 193.382813 189.742188 L 192.835938 188.539063 L 191.953125 187.40625 L 190.945313 186.605469 L 189.488281 185.945313 L 187.222656 185.472656 L 186.238281 185.515625 L 184.574219 185.925781 L 182.996094 186.089844 L 180.480469 186.007813 L 178.59375 186.347656 L 177.136719 187.027344 L 175.339844 188.566406 L 173.984375 189.4375 L 172.445313 189.902344 L 169.800781 190.308594 L 168.320313 191.035156 L 166.96875 192.328125 L 165.710938 194.652344 L 164.589844 196.113281 L 163.066406 197.152344 L 161.292969 197.660156 L 159.449219 197.589844 L 157.722656 196.945313 L 156.285156 195.792969 L 155.277344 194.246094 L 154.808594 192.464844 L 154.640625 190.765625 L 154.269531 189.582031 L 153.730469 188.609375 L 152.921875 187.671875 L 152.042969 186.992188 L 150.929688 186.445313 L 149.851563 186.171875 L 148.019531 186.085938 L 146.09375 185.660156 L 144.417969 184.617188 L 143.191406 183.070313 L 142.550781 181.203125 L 142.570313 179.230469 L 143.078125 176.457031 L 142.65625 172.746094 L 142.726563 171 L 143.308594 169.347656 L 144.359375 167.945313 L 145.777344 166.921875 L 147.4375 166.363281 L 149.390625 166.019531 L 150.707031 165.449219 L 151.769531 164.664063 L 153.027344 163.289063 L 153.730469 161.957031 L 154.246094 159.632813 L 154.308594 159.472656 L 154.464844 159.796875 L 155.875 160.457031 L 161.363281 161.917969 L 164.042969 162.292969 L 165.242188 161.992188 L 166.015625 161.605469 L 166.75 160.257813 L 167.589844 160.183594 L 167.507813 160.828125 L 166.417969 162.609375 L 162.722656 166.96875 L 162.175781 167.183594 L 161.726563 166.894531 L 161.859375 165.949219 L 161.53125 165.507813 L 159.984375 165.785156 L 155.320313 167.769531 L 152.441406 170.8125 L 151.949219 171.945313 L 152.140625 172.144531 L 156.390625 168.453125 L 157.75 167.980469 L 160.300781 168.324219 L 161.058594 169.320313 L 157.109375 173.804688 L 156.367188 175.339844 L 156.707031 175.816406 L 157.367188 175.984375 L 158.261719 175.542969 L 161.140625 173.015625 L 167.808594 170.273438 L 170.480469 169.527344 L 170.492188 169.949219 L 171.554688 169.839844 L 173.589844 168.316406 L 174.046875 166.78125 L 178.648438 166.167969 L 179.285156 167.089844 L 180.148438 167.667969 L 184.320313 169.011719 L 187.675781 167.128906 L 199.164063 168.988281 L 204.117188 168.914063 L 205.648438 167.671875 L 207.910156 167.828125 L 210.3125 168.835938 L 212.550781 172.800781 L 213.671875 176.582031 L 213.695313 178 L 209.382813 183.425781 L 207.15625 188.339844 L 206.664063 191.242188 L 206.84375 191.972656 L 206.226563 194.742188 L 203.9375 198.859375 L 203.765625 200.121094 L 204.023438 201.304688 L 203.230469 203.472656 L 200.949219 206.4375 L 199.179688 207.605469 L 197.078125 210.023438 L 197.433594 210.839844 L 197.785156 210.703125 L 197.761719 211.238281 L 196.796875 214.386719 L 195.867188 215.914063 L 191.214844 219.742188 L 185.519531 221.085938 L 182.847656 221.226563 L 177.804688 225.21875 L 178.117188 225.714844 L 179.84375 225.195313 L 184.609375 222.886719 L 186.457031 221.386719 L 187.289063 221.316406 L 189.085938 221.875 L 189.332031 222.921875 L 188.898438 224.691406 L 189.238281 225.953125 L 190.898438 226.824219 L 192.988281 227.191406 L 194.445313 228.726563 L 194.429688 229.304688 L 192.117188 231.570313 L 189.460938 232.730469 L 188.34375 232.882813 L 187.070313 232.078125 L 185.40625 232.042969 L 181.046875 235.800781 L 180.578125 237.003906 L 174.761719 240.109375 L 170.214844 238.117188 L 166.480469 238.003906 L 166.738281 239.222656 L 168.246094 240.195313 L 178.0625 241.875 L 182.921875 243.167969 L 186.398438 241.730469 L 187.519531 239.417969 L 188.617188 238.355469 L 189.539063 238.171875 L 193.183594 238.5 L 199.339844 242.761719 L 206.488281 246.65625 L 208.910156 251.429688 L 212.824219 256.707031 L 213.265625 256.828125 L 213.433594 256.585938 L 214.601563 257.097656 Z M 154.089844 287.257813 L 156.234375 286.070313 L 157.535156 284.632813 L 159.113281 281.117188 L 159.539063 278.191406 L 159.71875 277.59375 L 159.089844 276.960938 L 157.953125 275.386719 L 156.179688 273.898438 L 155.566406 273.296875 L 153.914063 271.429688 L 152.992188 270.792969 L 151.933594 270.355469 L 150.421875 270.109375 L 148.964844 270.25 L 147.589844 270.75 L 146.445313 271.535156 L 144.410156 274.015625 L 143.632813 275.867188 L 143.515625 277.816406 L 144.128906 279.890625 L 145.347656 281.683594 L 145.734375 282.34375 L 147.046875 284.953125 L 148.75 286.546875 L 149.660156 287.007813 L 151.285156 287.453125 L 152.535156 287.511719 Z M 180.203125 286.804688 L 179.929688 287.621094 L 178.855469 289.074219 L 177.386719 290.128906 L 175.664063 290.683594 L 173.03125 291.089844 L 172.921875 291.144531 L 174.074219 288.722656 L 176.464844 286.417969 L 178.757813 285.980469 L 180.191406 286.804688 Z M 105.019531 196.078125 L 105.269531 195.695313 L 106.765625 194.089844 L 107.429688 192.871094 L 107.492188 192.589844 L 107.992188 192.835938 L 108.445313 193.703125 L 108.09375 196.351563 L 107.546875 197.015625 L 106.597656 197.398438 L 105.582031 196.804688 Z M 107.667969 187.734375 L 107.761719 186.601563 L 108.523438 184.859375 L 109.804688 183.460938 L 111.429688 182.183594 L 112.042969 181.402344 L 112.054688 181.640625 L 117.5 184.859375 L 120.773438 183.445313 L 123.167969 184.417969 L 122.46875 186.839844 L 119.148438 190.25 L 118.089844 190.683594 L 116.035156 193.449219 L 114.023438 194.042969 L 113.570313 192.609375 L 115.183594 189.4375 L 113.980469 187.324219 L 112.75 189.558594 L 110.542969 187.414063 Z M 113.316406 180.007813 L 114.144531 179.253906 L 115.503906 178.679688 L 115.367188 179.941406 L 114.945313 180.566406 L 113.875 180.957031 L 113.53125 180.855469 Z M 119.230469 178.746094 L 119.742188 178.886719 L 121.339844 179.992188 L 121.609375 180.257813 L 120.484375 180.664063 L 119.382813 179.570313 Z M 124.707031 182.292969 L 124.777344 182.320313 L 126.449219 182.582031 L 128.273438 183.191406 L 129.800781 184.363281 L 130.859375 185.964844 L 131.339844 187.828125 L 131.183594 189.746094 L 130.414063 191.507813 L 129.109375 192.921875 L 127.414063 193.832031 L 125.867188 194.359375 L 124.925781 194.894531 L 124.109375 195.585938 L 123.75 196.035156 L 122.886719 196.148438 L 119.445313 193.175781 L 119.640625 191.949219 L 120.992188 190.507813 L 122.769531 190.464844 L 125.425781 191.839844 L 128.601563 191.21875 L 128.128906 190.679688 L 126.691406 190.847656 L 125.089844 190.582031 L 122.863281 188.511719 L 123.117188 185.351563 L 125.410156 184.53125 L 125.660156 184.984375 L 127.679688 186.175781 L 128.171875 186.347656 L 128.714844 185.882813 L 126.332031 183.683594 L 124.980469 183.324219 Z M 123.34375 196.558594 L 122.875 197.453125 L 122.5625 198.492188 L 122.449219 199.558594 L 122.527344 200.480469 L 123.363281 202.652344 L 124.746094 204.199219 L 126.597656 205.15625 L 129.601563 205.519531 L 131.472656 206.074219 L 132.121094 206.539063 L 123.476563 215.398438 L 120.675781 217.269531 L 120.230469 216.390625 L 115.878906 214.433594 L 114.8125 213.664063 L 113.113281 211.414063 L 113.132813 210.632813 L 113.96875 210.082031 L 116.167969 209.980469 L 120.585938 209.09375 L 123.988281 209.15625 L 124.257813 209.050781 L 124.117188 208.789063 L 119.15625 207.757813 L 117.03125 209.015625 L 115.34375 209.1875 L 108.898438 208.554688 L 108.144531 207.871094 L 107.96875 206.789063 L 109.109375 205.527344 L 114.792969 204.496094 L 115.882813 205.636719 L 117.070313 206.34375 L 118.480469 204.378906 L 117.316406 203.507813 L 117.253906 202.640625 L 119.675781 202.136719 L 120.503906 202.316406 L 121.824219 201.292969 L 121.664063 200.792969 L 120.140625 199.953125 L 116.804688 200.417969 L 115.804688 199.949219 L 118.253906 195.210938 L 118.835938 194.789063 L 120.441406 194.839844 L 120.773438 195.527344 L 122.574219 196.710938 Z M 132.675781 206.941406 L 133.054688 207.214844 L 134.167969 208.816406 L 134.691406 210.695313 L 134.976563 213.441406 L 135.71875 215.09375 L 137.023438 216.5 L 139.4375 217.8125 L 141 219.050781 L 142.050781 220.738281 L 142.472656 222.6875 L 142.210938 224.660156 L 141.300781 226.429688 L 139.519531 228.789063 L 138.933594 230.648438 L 139.007813 232.617188 L 139.679688 234.328125 L 140.015625 234.714844 L 139.292969 234.9375 L 138.320313 240.257813 L 136.15625 245.152344 L 135.023438 244.945313 L 131.566406 242.222656 L 130.757813 242.5 L 130.269531 243.347656 L 130.09375 244.535156 L 130.664063 246.308594 L 130.519531 246.613281 L 128.257813 245.464844 L 127.46875 243.074219 L 128.453125 238.691406 L 131.230469 234.078125 L 136.953125 229.316406 L 138.316406 227.601563 L 135.558594 229.292969 L 130.363281 233.964844 L 126.449219 238.917969 L 125.671875 238.734375 L 125.460938 238.363281 L 126.1875 249.699219 L 124.449219 251.558594 L 123.367188 254.191406 L 121.183594 263.964844 L 122.0625 266.289063 L 120.679688 268.164063 L 119.945313 268.597656 L 116.058594 268.992188 L 115.222656 268.382813 L 115.277344 264.699219 L 117.226563 262.640625 L 117.992188 256.269531 L 120.664063 249.058594 L 119.164063 246.890625 L 119.359375 242.367188 L 121.945313 238.054688 L 122.191406 237.09375 L 120.824219 237.742188 L 119.636719 239.75 L 119.449219 238.929688 L 123.929688 230.9375 L 123.671875 230.734375 L 122.386719 231.796875 L 121.808594 231.777344 L 122.070313 227.40625 L 122.761719 224.691406 L 124.160156 221.96875 L 126.660156 220.210938 L 128.792969 220.179688 L 129.328125 220.484375 L 131.4375 220.320313 L 134.28125 217.339844 L 135.300781 215.007813 L 134.855469 215.347656 L 134.105469 217.117188 L 131.898438 219.546875 L 131.125 219.644531 L 127.28125 218.265625 L 127.882813 216.460938 L 128.195313 216.742188 L 128.945313 216.671875 L 131.070313 215.113281 L 129.507813 214.882813 L 128.550781 215.441406 L 127.980469 214.949219 L 127.875 213.785156 L 129.65625 210.6875 Z M 154.746094 158.351563 L 154.886719 157.980469 L 156 156.601563 L 157.992188 154.78125 L 158.851563 153.300781 L 159.226563 151.707031 L 159.128906 149.929688 L 158.820313 148.9375 L 158.324219 148.007813 L 157.582031 147.105469 L 156.242188 146.011719 L 154.949219 144.519531 L 154.226563 142.679688 L 153.785156 140.523438 L 153.132813 139.199219 L 152.246094 138.160156 L 151.152344 137.382813 L 149.175781 136.726563 L 147.175781 136.769531 L 145.476563 137.386719 L 142.285156 139.695313 L 140.582031 140.539063 L 140.203125 140.59375 L 140.222656 140.964844 L 139.683594 142.808594 L 138.9375 144.351563 L 138.527344 145.890625 L 137.789063 147.558594 L 137.265625 148.136719 L 138.386719 149.5625 L 139.429688 151.460938 L 140.910156 153.042969 L 141.902344 154.496094 L 142.417969 156.179688 L 142.402344 157.941406 L 141.863281 159.617188 L 140.847656 161.054688 L 139.445313 162.121094 L 137.789063 162.71875 L 136.03125 162.796875 L 133.878906 162.5625 L 131.730469 162.867188 L 129.835938 162.824219 L 128.058594 162.175781 L 126.582031 160.988281 L 125.949219 159.996094 L 126.003906 159.773438 L 125.542969 159.296875 L 125.113281 157.550781 L 125.25 156.019531 L 125.515625 155.699219 L 128.898438 158.675781 L 129.609375 156.898438 L 131.765625 156.140625 L 134.503906 157.136719 L 136.507813 158.589844 L 137.039063 159.417969 L 137.175781 158.679688 L 135.242188 155.121094 L 133.609375 154.054688 L 130.640625 151.316406 L 129.429688 149.296875 L 129.746094 148.554688 L 130.132813 148.371094 L 132.507813 149.96875 L 133.015625 149.894531 L 133.449219 149.351563 L 133.714844 146.386719 L 133.191406 146.265625 L 131.136719 142.199219 L 131.269531 141.472656 L 135.539063 142.054688 L 138.566406 141.597656 L 137.367188 140.554688 L 136.398438 137.808594 L 138.195313 131.046875 L 140.925781 126.128906 L 145.976563 127.269531 L 147.488281 129.277344 L 147.992188 130.773438 L 145.957031 133.847656 L 146.042969 134.238281 L 149.632813 130.886719 L 149.902344 129.097656 L 150.597656 128.644531 L 152.578125 129.367188 L 153.359375 129.816406 L 153.609375 130.328125 L 157.023438 130.710938 L 161.488281 129.921875 L 168.160156 129.621094 L 169.804688 128.105469 L 171.035156 127.402344 L 172.933594 127.351563 L 173.433594 127.917969 L 177.664063 128.609375 L 178 127.714844 L 177.503906 127.214844 L 177.972656 125.796875 L 185.5625 126.683594 L 184.539063 134.8125 L 182.976563 138.457031 L 180.960938 141.226563 L 177.402344 142.480469 L 176.097656 143.761719 L 173.855469 147.214844 L 162.601563 156.074219 L 162.234375 157.082031 L 162.671875 158.175781 L 162.078125 159.632813 L 159.644531 160.289063 L 156.839844 159.359375 Z M 112.058594 129.636719 L 112.816406 129.988281 L 113.019531 130.191406 L 114.117188 133.539063 L 112.328125 137.878906 L 110.105469 140.078125 L 109.925781 141.289063 L 111.058594 141.910156 L 112.367188 141.523438 L 113.644531 140.4375 L 114.097656 140.800781 L 113.746094 142.269531 L 112.140625 143.671875 L 111.234375 143.917969 L 109.761719 143.558594 L 108.839844 144.542969 L 108.40625 145.765625 L 105.6875 146.980469 L 102.835938 147.460938 L 103.40625 147.65625 L 105.667969 147.414063 L 108.015625 146.824219 L 108.472656 148.703125 L 108.0625 149.121094 L 107.410156 150.144531 L 106.984375 151.28125 L 106.886719 151.933594 L 106.21875 152.621094 L 105.796875 153.449219 L 105.773438 153.792969 L 103.472656 154.890625 L 101.40625 154.195313 L 100.703125 152.269531 L 100.652344 150.535156 L 101.84375 148.921875 L 103.425781 148.886719 L 101.296875 148.414063 L 99.359375 150.839844 L 100.101563 152.9375 L 101.019531 153.988281 L 101.277344 156.078125 L 99.433594 158.316406 L 93.527344 162.226563 L 90.550781 158.175781 L 90.507813 157.148438 L 91.820313 157.980469 L 97.480469 154.929688 L 96.453125 153.484375 L 95.234375 152.652344 L 94.117188 152.148438 L 92.941406 152.324219 L 92.058594 151.863281 L 91.273438 150.875 L 92.699219 149.40625 L 91.417969 144.347656 L 93.265625 140.78125 L 93.941406 140.0625 L 96.675781 141.359375 L 95.960938 142.378906 L 97.386719 146.128906 L 97.359375 142.890625 L 98.964844 142.257813 L 100.179688 142.804688 L 100.34375 142.296875 L 99.09375 139.5 L 98.9375 138.609375 L 99.460938 137.6875 L 102.429688 135.863281 L 102.902344 135.917969 L 103 136.214844 L 105.253906 135.441406 L 111.003906 130.808594 Z M 90.972656 166.589844 L 90.496094 166.695313 L 88.617188 166.503906 L 86.898438 165.71875 L 85.78125 164.671875 L 86.457031 164.699219 L 87.222656 163.867188 L 88.554688 163.523438 L 91.023438 165.660156 L 91.214844 166.0625 Z M 81.621094 182.980469 L 82.964844 183.203125 L 84.503906 183.972656 L 85.113281 184.546875 L 85.140625 186.4375 L 86.054688 188.15625 L 85.625 188.976563 L 84.328125 188.382813 L 82.6875 188.554688 L 82.128906 188.101563 L 81.921875 187.375 L 81.515625 184.671875 Z M 137.933594 323.433594 L 137.675781 322.921875 L 139.816406 316.644531 L 142.300781 315.023438 L 144.765625 310.230469 L 145.863281 309.40625 L 149.046875 308.269531 L 150.203125 313.453125 L 147.847656 318.148438 L 145.3125 320.636719 L 141.859375 323.019531 L 139.824219 322.464844 Z M 233.101563 38.984375 L 230.96875 38.972656 L 230.324219 38.394531 L 230.816406 33.792969 L 232.058594 31.609375 L 233.582031 31.753906 L 234.398438 32.242188 L 234.613281 32.71875 Z M 227.496094 47.179688 L 226.742188 47.023438 L 226.078125 45.398438 L 225.789063 41.242188 L 227.246094 36.808594 L 228.363281 36.574219 L 229.761719 37.023438 L 229.984375 39.984375 L 229.175781 46.582031 Z M 226.023438 58.453125 L 227.246094 61.769531 L 226.800781 62.460938 L 226.285156 62.238281 L 225.40625 63.738281 L 225.265625 67.207031 L 224.308594 74.617188 L 223.472656 74.351563 L 221.910156 72.433594 L 222.910156 68.203125 L 223.429688 67.644531 L 224.308594 63.570313 L 223.632813 57.773438 L 221.078125 57.210938 L 222.089844 58.292969 L 222.21875 59.898438 L 220.292969 61.703125 L 218.738281 60.40625 L 218.746094 59.554688 L 215.621094 58.289063 L 215.003906 56.183594 L 215.039063 55.8125 L 215.808594 55.171875 L 220.695313 54.34375 L 222.421875 53.527344 L 222.960938 52.8125 L 220.238281 48.339844 L 216.699219 47.671875 L 217.085938 46.324219 L 220.816406 42.097656 L 223.226563 40.707031 L 223.542969 41.710938 L 223.417969 46.992188 L 223.628906 47.851563 L 228.960938 48.949219 L 227.699219 56.234375 L 226.355469 57.007813 L 225.6875 56.476563 Z M 189.007813 101.453125 L 189.121094 100.265625 L 187.730469 99.058594 L 186.953125 98.894531 L 186.835938 99.515625 L 186.335938 100.011719 L 184.679688 96.953125 L 188.613281 98.375 L 189.644531 99.757813 L 189.558594 100.558594 Z M 193.226563 103.421875 L 193.136719 102.113281 L 195.332031 98.847656 L 196.15625 98.316406 L 199.542969 97.917969 L 199.804688 99.347656 L 197.464844 100.832031 L 194.695313 101.191406 Z M 189.996094 116.5625 L 186.777344 113.90625 L 184.832031 114.03125 L 181.886719 115.097656 L 178.421875 112.621094 L 177.964844 110.527344 L 178.445313 106.398438 L 179.1875 105.574219 L 181.753906 104.792969 L 184.519531 106.003906 L 186.230469 108.273438 L 187.324219 111.371094 L 189.425781 112.382813 L 190.734375 113.441406 L 191.546875 114.902344 Z M 180.816406 120.886719 L 179.261719 120.746094 L 176.429688 116.660156 L 176.75 115.25 L 177.207031 114.695313 L 178.613281 114.28125 L 181.269531 116.636719 L 182.96875 119.6875 L 182.941406 120.441406 Z M 187.335938 122.957031 L 186.4375 122.070313 L 185.203125 119.125 L 185.941406 118.488281 L 188.300781 118.292969 L 188.792969 119.078125 L 187.910156 122.796875 Z M 98.214844 141.941406 L 97.453125 141.691406 L 97.21875 139.679688 L 98.019531 139.84375 L 99.277344 141.320313 L 99.230469 141.953125 Z M 91.824219 155.515625 L 91.882813 154.726563 L 92.882813 153.957031 L 93.789063 153.890625 L 93.378906 155.476563 Z M 88.238281 162.863281 L 87.917969 162.585938 L 88.445313 161.890625 L 89.367188 161.550781 L 89.65625 162.238281 Z M 116.207031 183.113281 L 115.0625 182.589844 L 114.59375 181.914063 L 114.695313 181.441406 L 115.34375 181.214844 L 116.664063 181.757813 L 116.886719 182.648438 Z M 79.542969 195.171875 L 77.601563 194.722656 L 77.417969 194.15625 L 80.441406 190.269531 L 81.117188 190.9375 L 81.808594 193.710938 L 80.203125 195.140625 Z M 110.160156 200.433594 L 108.972656 199.578125 L 108.9375 198.890625 L 110.578125 197.179688 L 111.398438 197.769531 L 111.5 198.265625 L 111.128906 199.855469 Z M 96.976563 213.15625 L 96.5625 212.070313 L 98.742188 209.859375 L 101.351563 207.964844 L 102.617188 207.75 L 102.652344 208.195313 L 101.386719 210.445313 L 99.425781 212.117188 Z M 110.59375 209.929688 L 111.976563 210.636719 L 113.289063 212.988281 L 113.785156 214.699219 L 116.457031 215.945313 L 117.929688 216.300781 L 121.195313 219.144531 L 120.902344 221.207031 L 119.445313 223.339844 L 116.335938 225.03125 L 115.453125 224.539063 L 116.136719 223.339844 L 115.425781 223.117188 L 112.109375 224.96875 L 106.027344 226.585938 L 104.691406 226.273438 L 103.734375 224.277344 L 103.851563 223.371094 L 104.191406 223.09375 L 105.628906 223.050781 L 106.039063 223.617188 L 106.972656 224.074219 L 112.214844 222.164063 L 112.035156 221.589844 L 109.863281 222.445313 L 108.199219 222.488281 L 107.824219 221.539063 L 109.386719 219.472656 L 112.601563 217.957031 L 112.90625 216.820313 L 112.554688 216.699219 L 109.90625 217.519531 L 105.058594 214.074219 L 105.636719 211.667969 L 108.914063 210.140625 L 110.03125 209.789063 Z M 91.515625 217.839844 L 89.652344 217.246094 L 89.414063 215.113281 L 90.1875 214.519531 L 95.1875 213.382813 L 95.671875 214.59375 L 93.804688 214.847656 L 92.019531 216.296875 Z M 108.136719 218.074219 L 107.207031 217.691406 L 106.753906 217.160156 L 107.335938 216.378906 L 108.085938 216.507813 L 109.105469 217.519531 L 109.070313 217.820313 Z M 123.378906 222.417969 L 122.582031 222.078125 L 123.082031 221.191406 L 124.476563 221.046875 Z M 102.664063 224.511719 L 102.054688 224.097656 L 102.589844 223.230469 L 103.304688 222.808594 L 103.460938 223.023438 Z M 121.453125 227.109375 L 121.152344 226.972656 L 120.984375 225.621094 L 121.59375 224.800781 L 122.367188 224.816406 L 121.953125 226.621094 Z M 120.902344 230.566406 L 120.316406 229.273438 L 120.976563 227.386719 L 121.816406 227.683594 Z M 118.503906 231.671875 L 118.15625 231.449219 L 118.535156 230.824219 L 119.917969 230.164063 L 119.953125 231.257813 Z M 111.886719 247.292969 L 110.550781 247.070313 L 109.476563 246.144531 L 109.292969 243.285156 L 109.585938 242.089844 L 112.5625 237.15625 L 116.605469 233.660156 L 119.195313 232.023438 L 119.632813 233.128906 L 119.449219 233.945313 L 118.015625 235.730469 L 113.761719 243.328125 Z M 106.976563 236.632813 L 105.476563 236.191406 L 106.28125 234.464844 L 107.839844 232.910156 L 108.882813 232.734375 L 107.535156 236.1875 Z M 103.964844 256.144531 L 102.714844 255.347656 L 104.988281 247.472656 L 102.980469 247.105469 L 101.464844 249.738281 L 99.988281 251.246094 L 99.089844 251.691406 L 98.539063 251.066406 L 99.023438 248.875 L 100.660156 243.785156 L 102.445313 243.214844 L 103.882813 243.558594 L 106.871094 241.457031 L 108.433594 240.808594 L 108.667969 241.335938 L 108.480469 243.175781 L 108.777344 246.292969 L 109.046875 247.320313 L 109.929688 248.226563 L 110.335938 251.851563 L 108.992188 253.109375 Z M 134.8125 251.347656 L 132.589844 248.835938 L 130.84375 244.566406 L 130.707031 243.464844 L 131.460938 242.613281 L 133.71875 244.574219 L 134.707031 246.3125 L 135.339844 249.003906 L 135.222656 250.96875 Z M 130.613281 263.773438 L 129.152344 263.667969 L 126.582031 261.613281 L 125.375 256.128906 L 125.988281 253.21875 L 128.179688 251.246094 L 129.539063 251.441406 L 131.390625 253.015625 L 132.984375 258.382813 L 133.019531 262.765625 L 132.308594 263.453125 Z M 130.613281 263.773438 "/>
<path style=" stroke:none;fill-rule:nonzero;fill:rgb(80.392157%,58.431373%,4.705882%);fill-opacity:1;" d="M 220.015625 343.109375 L 219.730469 344.90625 L 218.90625 346.527344 L 217.617188 347.8125 L 215.996094 348.636719 L 214.199219 348.921875 L 212.402344 348.636719 L 210.78125 347.8125 L 209.496094 346.527344 L 208.667969 344.90625 L 208.382813 343.109375 L 208.667969 341.3125 L 209.496094 339.691406 L 210.78125 338.402344 L 212.402344 337.578125 L 214.199219 337.292969 L 215.996094 337.578125 L 217.617188 338.402344 L 218.90625 339.691406 L 219.730469 341.3125 Z M 220.015625 343.109375 "/>
<path style=" stroke:none;fill-rule:nonzero;fill:rgb(80.392157%,58.431373%,4.705882%);fill-opacity:1;" d="M 185.125 385.753906 L 184.839844 387.550781 L 184.011719 389.171875 L 182.726563 390.457031 L 181.105469 391.285156 L 179.308594 391.570313 L 177.511719 391.285156 L 175.890625 390.457031 L 174.601563 389.171875 L 173.777344 387.550781 L 173.492188 385.753906 L 173.777344 383.957031 L 174.601563 382.335938 L 175.890625 381.050781 L 177.511719 380.222656 L 179.308594 379.9375 L 181.105469 380.222656 L 182.726563 381.050781 L 184.011719 382.335938 L 184.839844 383.957031 Z M 185.125 385.753906 "/>
<path style=" stroke:none;fill-rule:nonzero;fill:rgb(80.392157%,58.431373%,4.705882%);fill-opacity:1;" d="M 235.523438 308.214844 L 235.238281 310.011719 L 234.414063 311.632813 L 233.125 312.921875 L 231.503906 313.746094 L 229.707031 314.03125 L 227.910156 313.746094 L 226.289063 312.921875 L 225.003906 311.632813 L 224.175781 310.011719 L 223.890625 308.214844 L 224.175781 306.417969 L 225.003906 304.796875 L 226.289063 303.511719 L 227.910156 302.683594 L 229.707031 302.398438 L 231.503906 302.683594 L 233.125 303.511719 L 234.414063 304.796875 L 235.238281 306.417969 Z M 235.523438 308.214844 "/>
<path style=" stroke:none;fill-rule:nonzero;fill:rgb(80.392157%,58.431373%,4.705882%);fill-opacity:1;" d="M 223.890625 288.832031 L 223.609375 290.628906 L 222.78125 292.25 L 221.496094 293.535156 L 219.875 294.363281 L 218.078125 294.644531 L 216.28125 294.363281 L 214.660156 293.535156 L 213.371094 292.25 L 212.546875 290.628906 L 212.261719 288.832031 L 212.546875 287.035156 L 213.371094 285.414063 L 214.660156 284.125 L 216.28125 283.300781 L 218.078125 283.015625 L 219.875 283.300781 L 221.496094 284.125 L 222.78125 285.414063 L 223.609375 287.035156 Z M 223.890625 288.832031 "/>
<path style=" stroke:none;fill-rule:nonzero;fill:rgb(80.392157%,58.431373%,4.705882%);fill-opacity:1;" d="M 266.539063 420.644531 L 266.253906 422.441406 L 265.429688 424.0625 L 264.140625 425.351563 L 262.519531 426.175781 L 260.722656 426.460938 L 258.925781 426.175781 L 257.304688 425.351563 L 256.019531 424.0625 L 255.191406 422.441406 L 254.90625 420.644531 L 255.191406 418.847656 L 256.019531 417.226563 L 257.304688 415.941406 L 258.925781 415.117188 L 260.722656 414.832031 L 262.519531 415.117188 L 264.140625 415.941406 L 265.429688 417.226563 L 266.253906 418.847656 Z M 266.539063 420.644531 "/>
<path style=" stroke:none;fill-rule:nonzero;fill:rgb(80.392157%,58.431373%,4.705882%);fill-opacity:1;" d="M 250.804688 317.394531 L 250.746094 317.765625 L 249.921875 319.386719 L 248.632813 320.675781 L 247.011719 321.5 L 245.214844 321.785156 L 243.417969 321.5 L 241.796875 320.675781 L 240.511719 319.386719 L 239.683594 317.765625 L 239.398438 315.96875 L 239.683594 314.171875 L 240.511719 312.550781 L 241.796875 311.265625 L 243.417969 310.4375 L 245.214844 310.152344 L 247.011719 310.4375 L 247.285156 310.578125 L 249.289063 315.722656 Z M 250.804688 317.394531 "/>
<path style=" stroke:none;fill-rule:nonzero;fill:rgb(80.392157%,58.431373%,4.705882%);fill-opacity:1;" d="M 192.875 319.847656 L 192.59375 321.644531 L 191.765625 323.265625 L 190.480469 324.550781 L 188.859375 325.375 L 187.0625 325.660156 L 186.328125 325.546875 L 187.28125 323.421875 L 187.71875 320.933594 L 187.855469 317.484375 L 184.742188 320.527344 L 181.761719 322.09375 L 181.53125 321.644531 L 181.246094 319.847656 L 181.53125 318.050781 L 182.355469 316.429688 L 183.644531 315.140625 L 185.265625 314.316406 L 187.0625 314.03125 L 188.859375 314.316406 L 190.480469 315.140625 L 191.765625 316.429688 L 192.59375 318.050781 Z M 192.875 319.847656 "/>
<path style=" stroke:none;fill-rule:nonzero;fill:rgb(80.392157%,58.431373%,4.705882%);fill-opacity:1;" d="M 85.074219 182.027344 L 84.464844 181.929688 L 82.84375 181.105469 L 81.804688 180.066406 L 82.046875 176.234375 L 83.4375 175.515625 L 85.28125 176.539063 L 86.578125 178.347656 L 85.882813 178.945313 L 85.144531 178.476563 L 85.03125 179.058594 Z M 84.882813 170.804688 L 86.261719 170.585938 L 88.058594 170.871094 L 88.777344 171.234375 L 88.773438 171.246094 L 86.902344 171.355469 L 84.875 171.125 Z M 85.394531 175.835938 L 84.546875 175.601563 L 83.046875 174.507813 L 82.722656 173.699219 L 82.824219 172.589844 L 83.972656 171.789063 L 86.566406 172.507813 L 87.433594 173.25 L 87.285156 175.226563 Z M 85.394531 175.835938 "/>
</g>
</svg>
