<?xml version="1.0" encoding="UTF-8"?>
<svg xmlns="http://www.w3.org/2000/svg" xmlns:xlink="http://www.w3.org/1999/xlink" width="378pt" height="504pt" viewBox="0 0 378 504" version="1.1">
<g id="data">
<rect x="0" y="0" width="378" height="504" style="fill:rgb(100%,100%,100%);fill-opacity:1;stroke:none;"/>
<path style=" stroke:none;fill-rule:nonzero;fill:rgb(100%,100%,100%);fill-opacity:1;" d="M 53.308594 504 L 324.691406 504 L 324.691406 0 L 53.308594 0 Z M 53.308594 504 "/>
<path style=" stroke:none;fill-rule:nonzero;fill:rgb(22.745098%,53.333333%,16.078431%);fill-opacity:1;" d="M 213.675781 176.839844 L 211.515625 178.65625 L 208.476563 182.214844 L 207.226563 184.292969 L 206.492188 186.335938 L 206.152344 188.480469 L 206.378906 194.070313 L 206.226563 194.742188 L 203.9375 198.859375 L 203.882813 199.253906 L 203.128906 200.808594 L 202.453125 204.480469 L 200.949219 206.4375 L 199.179688 207.605469 L 197.078125 210.023438 L 197.433594 210.839844 L 197.785156 210.703125 L 197.761719 211.238281 L 197.289063 212.78125 L 195.417969 216.28125 L 191.214844 219.742188 L 185.519531 221.085938 L 182.847656 221.226563 L 177.804688 225.21875 L 178.117188 225.714844 L 179.84375 225.195313 L 184.609375 222.886719 L 186.457031 221.386719 L 187.289063 221.316406 L 189.085938 221.875 L 189.332031 222.921875 L 188.898438 224.691406 L 189.238281 225.953125 L 190.898438 226.824219 L 192.988281 227.191406 L 194.445313 228.726563 L 194.429688 229.304688 L 192.117188 231.570313 L 189.460938 232.730469 L 188.34375 232.882813 L 187.070313 232.078125 L 185.40625 232.042969 L 181.046875 235.800781 L 180.578125 237.003906 L 174.761719 240.109375 L 170.214844 238.117188 L 166.480469 238.003906 L 166.738281 239.222656 L 168.246094 240.195313 L 178.0625 241.875 L 182.921875 243.167969 L 186.398438 241.730469 L 187.519531 239.417969 L 188.617188 238.355469 L 189.539063 238.171875 L 193.183594 238.5 L 199.339844 242.761719 L 206.488281 246.65625 L 208.910156 251.429688 L 212.824219 256.707031 L 213.265625 256.828125 L 213.433594 256.585938 L 214.132813 256.894531 L 214.050781 260.320313 L 214.679688 264.179688 L 216.015625 267.046875 L 218.078125 269.445313 L 218.558594 271.933594 L 219.503906 274.148438 L 219.746094 274.453125 L 220.40625 277.574219 L 221.269531 280.457031 L 222.984375 284.039063 L 223.773438 285.027344 L 225.097656 290.605469 L 225.097656 290.640625 L 225.234375 291.191406 L 225.945313 294.183594 L 227.183594 295.984375 L 227.242188 296.089844 L 227.289063 296.132813 L 229.304688 299.0625 L 234.019531 301.261719 L 235.351563 303.714844 L 238.050781 306.246094 L 241.535156 307.835938 L 245.214844 308.214844 L 246.921875 310.386719 L 247.335938 310.710938 L 249.289063 315.722656 L 252.390625 319.148438 L 256.121094 320.875 L 256.847656 321.4375 L 256.847656 321.921875 L 254.738281 323.09375 L 253.890625 324.554688 L 253.765625 325.996094 L 254.449219 328.226563 L 254.023438 329.53125 L 253.875 332.214844 L 254.3125 334.738281 L 255.820313 337.984375 L 258.144531 340.535156 L 261.023438 342.234375 L 260.445313 342 L 258.378906 342.789063 L 257.507813 342.753906 L 256.035156 341.773438 L 253.664063 338.65625 L 252.601563 338.082031 L 245.550781 339.511719 L 244.589844 338.644531 L 243.40625 338.558594 L 241.210938 339.871094 L 241.886719 340.445313 L 246.324219 340.394531 L 249.617188 339.34375 L 251.976563 339.082031 L 254.382813 342.558594 L 260.535156 347.621094 L 263.042969 349.058594 L 263.664063 349.039063 L 266.046875 352.214844 L 268 356.9375 L 267.855469 357.597656 L 267.949219 360.394531 L 268.753906 363.207031 L 269.328125 364.195313 L 269.210938 365.21875 L 264.953125 369.09375 L 261.394531 373.164063 L 260.601563 374.816406 L 262.84375 374.3125 L 264.9375 375.519531 L 266.9375 378.226563 L 270.21875 378.804688 L 270.625 378.746094 L 271.910156 376.796875 L 272.234375 374.960938 L 273.40625 371.914063 L 274.707031 370.632813 L 277.71875 370.109375 L 281.984375 370.410156 L 283.570313 370.390625 L 284.253906 370.867188 L 286.703125 370.742188 L 293.949219 371.515625 L 296.914063 372.84375 L 300.621094 375.558594 L 301.199219 376.292969 L 303.371094 378 L 305.4375 380.519531 L 305.53125 380.585938 L 306.730469 384.164063 L 307.179688 391.25 L 306.777344 393.191406 L 306.890625 393.976563 L 305.789063 396.917969 L 305.183594 399.824219 L 303.925781 402.410156 L 303.246094 406.136719 L 303.328125 408.035156 L 297.144531 414.53125 L 295.578125 412.011719 L 292.742188 410.515625 L 292.480469 410.636719 L 293.898438 413.703125 L 295.890625 416.628906 L 296.3125 416.765625 L 296.164063 417.742188 L 294.574219 419.804688 L 292.191406 421.289063 L 290.003906 421.65625 L 289.660156 421.574219 L 288.214844 419.332031 L 284.976563 421.730469 L 280.71875 424.230469 L 282.339844 425.378906 L 285.105469 424.398438 L 286.097656 423.375 L 286.894531 423.164063 L 287.328125 423.710938 L 287.632813 428.84375 L 285.6875 430.875 L 283.441406 432.558594 L 282.84375 432.699219 L 279.644531 432.160156 L 274.75 433.78125 L 272.609375 436.117188 L 274.253906 436.015625 L 275.152344 434.667969 L 276.683594 434.363281 L 278.285156 434.328125 L 281.054688 434.949219 L 281.828125 435.589844 L 281.691406 436.328125 L 279.554688 436.347656 L 277.390625 437.65625 L 277.96875 438.546875 L 281.382813 438.964844 L 286.863281 440.339844 L 289.394531 439.9375 L 291.074219 438.957031 L 299.492188 437.792969 L 299.492188 447.785156 L 295.582031 448.808594 L 292.261719 451.109375 L 290.421875 453.035156 L 289.167969 454.9375 L 288.304688 457.050781 L 288.117188 458.054688 L 286.253906 458.289063 L 284.1875 457.9375 L 282.5625 459.472656 L 281.9375 459.480469 L 278.148438 460.613281 L 276.300781 461.757813 L 275.339844 462.652344 L 274.789063 462.777344 L 272.597656 463.816406 L 270.539063 466.589844 L 269.761719 466.949219 L 259.269531 463.777344 L 258.707031 463.730469 L 257.726563 463.398438 L 254.96875 463.128906 L 248.335938 463.378906 L 244.503906 464.65625 L 241.339844 467.167969 L 240.128906 467.390625 L 238.210938 466.1875 L 238.632813 465.4375 L 239.46875 464.933594 L 237.714844 463.296875 L 231.496094 463.171875 L 231.378906 463.496094 L 232.574219 464.835938 L 232.214844 465.75 L 231.738281 466.042969 L 226.691406 465.496094 L 219.566406 468.449219 L 217.054688 467.824219 L 210.222656 468.96875 L 208.164063 468.875 L 207.273438 468.058594 L 206.238281 469.769531 L 209.429688 471.089844 L 209.714844 470.9375 L 210.1875 472.128906 L 209.566406 473.890625 L 206.84375 474.453125 L 204.453125 473.097656 L 203.015625 472.699219 L 197.625 472.007813 L 196.175781 472.65625 L 195.679688 473.863281 L 195.832031 474.871094 L 196.757813 475.523438 L 196.488281 476.304688 L 195.917969 475.996094 L 194.851563 473.972656 L 190.863281 471.015625 L 189.613281 469.832031 L 187.546875 468.542969 L 185.261719 467.710938 L 182.847656 467.371094 L 180.546875 467.519531 L 178.320313 468.121094 L 176.363281 469.085938 L 174.957031 470.152344 L 174.339844 470.335938 L 168.992188 473.234375 L 168.214844 474.070313 L 167.203125 476.179688 L 162.746094 489.226563 L 160.929688 490.242188 L 158.269531 489.722656 L 157.554688 489.058594 L 156.527344 486.851563 L 154.683594 485.4375 L 153.613281 485.542969 L 153.054688 485.898438 L 152.300781 485.175781 L 150.363281 483.929688 L 149.445313 483.617188 L 148.46875 482.535156 L 145.574219 482.75 L 144.414063 482.675781 L 141.554688 481.945313 L 139.371094 481.882813 L 135.628906 482.765625 L 132.394531 484.804688 L 132.167969 484.859375 L 129.414063 488.195313 L 126.714844 489.746094 L 124.039063 490.597656 L 123.132813 494.289063 L 123.207031 494.425781 L 122.359375 495.5 L 121.527344 497.355469 L 120.660156 497.648438 L 120.617188 497.738281 L 118.429688 495.925781 L 117.644531 495.597656 L 117.15625 494.691406 L 115.984375 493.691406 L 112.253906 492.070313 L 111.410156 491.984375 L 110.375 492.488281 L 110.277344 493.714844 L 109.90625 493.648438 L 107.746094 493.777344 L 105.644531 494.308594 L 105.441406 494.210938 L 105.628906 491.574219 L 106.074219 490.5625 L 106.863281 490.214844 L 107.769531 490.058594 L 109.898438 489.242188 L 111.746094 488.078125 L 112.199219 488.253906 L 112.445313 488.9375 L 113.574219 489.15625 L 118.144531 485.910156 L 121.425781 483.085938 L 124.375 479.769531 L 125.140625 478.042969 L 125.78125 477.839844 L 127.800781 476.714844 L 129.558594 475.210938 L 130.980469 473.386719 L 131.296875 472.769531 L 132.105469 472.640625 L 132.679688 471.785156 L 133.257813 469.527344 L 135.859375 467.5625 L 138.636719 464.640625 L 138.835938 462.152344 L 139.101563 461.828125 L 140.28125 458.722656 L 140.539063 455.539063 L 142.585938 455.15625 L 144.269531 456.015625 L 145.761719 455.429688 L 148.429688 452.488281 L 148.371094 451.617188 L 149.617188 450.640625 L 151.957031 447.75 L 152.402344 446.542969 L 157.421875 446.269531 L 159.910156 445.683594 L 164.597656 446.761719 L 166.046875 446.148438 L 167.527344 446.515625 L 169.484375 447.285156 L 170.039063 448.109375 L 170.757813 448.421875 L 173.15625 448.464844 L 180.570313 447.503906 L 181.109375 445.632813 L 181.210938 443.15625 L 182.519531 440.25 L 190.867188 432.195313 L 195.792969 425.3125 L 197.929688 424.472656 L 198.285156 423.78125 L 198.070313 423.238281 L 197.8125 423.082031 L 196.09375 424.355469 L 192.90625 427.300781 L 190.570313 429.988281 L 189.222656 431.449219 L 185.628906 432.957031 L 183.714844 433.246094 L 182.441406 433.0625 L 178.394531 435.230469 L 177.398438 436.808594 L 177.039063 438.671875 L 176.445313 439.273438 L 174.058594 439.917969 L 170.558594 439.851563 L 166.820313 439 L 166.347656 438.652344 L 161.371094 433.375 L 159.03125 429.199219 L 155.65625 429.589844 L 149.269531 432.308594 L 149.113281 432.746094 L 148.277344 432.257813 L 147.109375 430.859375 L 146.917969 429.308594 L 148.539063 428.378906 L 150.066406 428.890625 L 151.640625 428.421875 L 152.765625 427.832031 L 152.855469 427.625 L 153.925781 428.027344 L 157.65625 428.84375 L 160.859375 429.035156 L 164.824219 427.996094 L 168.183594 425.648438 L 169.714844 423.746094 L 170.816406 421.570313 L 171.4375 419.207031 L 171.554688 416.769531 L 175.15625 415.902344 L 178.207031 414.03125 L 180.542969 411.320313 L 181.945313 408.027344 L 182.269531 404.339844 L 181.371094 400.613281 L 179.308594 397.382813 L 178.75 394.65625 L 177.558594 392.136719 L 175.984375 390.152344 L 173.378906 387.894531 L 170.980469 386.671875 L 168.238281 386.023438 L 165.546875 386.03125 L 162.929688 386.664063 L 160.636719 387.804688 L 158.738281 389.332031 L 157.203125 391.21875 L 156.046875 393.507813 L 153.746094 394.484375 L 153.4375 394.703125 L 154.199219 391.746094 L 153.734375 388.820313 L 152.566406 386.542969 L 153.179688 384.597656 L 154.652344 381.796875 L 152.269531 378.203125 L 152.683594 374.835938 L 153.175781 374.082031 L 152.804688 373.207031 L 150.203125 373.105469 L 145.449219 374.257813 L 143.757813 375.484375 L 142.085938 378.027344 L 141.953125 378.003906 L 136.660156 378 L 138.210938 376.328125 L 139.40625 374.382813 L 139.761719 373.433594 L 140.148438 373.019531 L 141.023438 372.414063 L 142.589844 371.953125 L 147.132813 367.984375 L 147.953125 364.523438 L 151.550781 360.582031 L 153.09375 359.609375 L 154.941406 359.808594 L 160.492188 357.457031 L 163.644531 357.28125 L 167.339844 357.714844 L 172.597656 355.179688 L 173.933594 355.046875 L 174.484375 355.082031 L 179.910156 359.441406 L 180.433594 358.429688 L 177.679688 353.460938 L 178.242188 352.835938 L 180.867188 352.449219 L 181.503906 352.695313 L 181.914063 353.875 L 182.898438 354.332031 L 184.078125 356.789063 L 185.613281 357.902344 L 188.359375 357.621094 L 190.335938 355.148438 L 189.90625 355.050781 L 188.667969 355.527344 L 188.3125 355.957031 L 186.378906 356.386719 L 183.8125 354.640625 L 179.976563 346.332031 L 180.195313 345.9375 L 181.433594 344.476563 L 182.84375 341.230469 L 182.847656 341.191406 L 183.371094 340.257813 L 185.429688 339.015625 L 185.140625 338.578125 L 183.175781 338.484375 L 183.347656 337.105469 L 182.953125 332.296875 L 182.179688 330.320313 L 184.695313 329.191406 L 187.28125 323.421875 L 187.71875 320.933594 L 187.855469 317.484375 L 184.742188 320.527344 L 179.199219 323.441406 L 177.335938 322.691406 L 175.28125 319.132813 L 175.089844 317.847656 L 173.75 314.707031 L 172.550781 313.28125 L 172.289063 311.832031 L 171.640625 310.878906 L 171.710938 309.839844 L 171.449219 307.332031 L 170.25 303.738281 L 168.828125 301.640625 L 168.464844 301.28125 L 169.164063 299.058594 L 174.074219 288.722656 L 176.464844 286.417969 L 178.757813 285.980469 L 180.191406 286.804688 L 181.015625 286.710938 L 182.933594 286.238281 L 183.03125 285.160156 L 182.34375 284.746094 L 180.035156 285.351563 L 174.65625 284.980469 L 172.566406 284.292969 L 169.453125 284.03125 L 168.226563 288.992188 L 166.234375 288.695313 L 163.3125 290.011719 L 161.832031 291.855469 L 159.410156 293.515625 L 156.15625 293.3125 L 155.160156 292.984375 L 149.984375 289.230469 L 149.214844 288.042969 L 149.230469 287.167969 L 148.945313 287.023438 L 148.15625 288.078125 L 147.988281 288.910156 L 148.375 290.554688 L 149.574219 292.960938 L 149.839844 295.726563 L 149.308594 296.871094 L 148.746094 297.058594 L 145.816406 295.78125 L 144.601563 294.238281 L 144.507813 293.621094 L 143.632813 292.355469 L 141.613281 291.4375 L 140.164063 290.433594 L 138.398438 288.636719 L 137.464844 288.296875 L 135.511719 289.683594 L 134.605469 291.238281 L 135.976563 295.472656 L 136.734375 296.308594 L 136.769531 296.640625 L 136.660156 296.585938 L 134.953125 294.414063 L 134.167969 293.796875 L 133.472656 292.679688 L 130.894531 289.722656 L 129.605469 286.988281 L 129.300781 285.09375 L 129.402344 284.410156 L 130.609375 283.078125 L 131.789063 281.007813 L 132.777344 280.410156 L 134.003906 276.632813 L 137.757813 273.035156 L 138.601563 268.871094 L 140.917969 265.085938 L 143.644531 263.800781 L 144.390625 261.886719 L 144.195313 260.621094 L 142.601563 256.71875 L 139.777344 254.832031 L 137.378906 252.511719 L 138.6875 242.234375 L 140.710938 241.59375 L 142.886719 242.511719 L 146.15625 243.175781 L 148.300781 243.253906 L 141.261719 240.453125 L 140.441406 240.5625 L 139.386719 240.085938 L 139.246094 238.734375 L 140.539063 238.429688 L 144.414063 238.429688 L 148.410156 239.800781 L 152.503906 239.679688 L 155.058594 238.824219 L 157.351563 237.40625 L 159.921875 234.554688 L 161.984375 232.8125 L 163.386719 230.976563 L 164.402344 228.894531 L 164.964844 226.785156 L 165.121094 224.605469 L 164.867188 222.433594 L 164.164063 220.230469 L 163.109375 218.316406 L 161.621094 216.542969 L 159.921875 215.167969 L 162.960938 212.234375 L 164.714844 208.53125 L 165.078125 204.449219 L 163.949219 200.378906 L 162.328125 197.910156 L 159.921875 195.785156 L 158.21875 193.695313 L 154.707031 191.355469 L 152.121094 190.585938 L 149.5625 190.425781 L 146.902344 190.867188 L 144.414063 191.90625 L 144.042969 189.785156 L 143.226563 187.65625 L 142.011719 185.726563 L 140.539063 184.152344 L 142.84375 183.046875 L 144.851563 181.457031 L 146.464844 179.472656 L 147.601563 177.179688 L 148.15625 175.078125 L 148.960938 168.867188 L 148.730469 166.308594 L 147.945313 163.863281 L 145.984375 160.851563 L 143.089844 158.519531 L 139.984375 157.300781 L 136.660156 157.015625 L 135.867188 156.273438 L 135.242188 155.121094 L 133.609375 154.054688 L 130.640625 151.316406 L 130.578125 151.214844 L 130.898438 150.84375 L 131.617188 149.367188 L 132.507813 149.96875 L 133.015625 149.894531 L 133.449219 149.351563 L 133.714844 146.386719 L 133.191406 146.265625 L 132.730469 145.355469 L 132.910156 144.386719 L 132.792969 141.683594 L 135.539063 142.054688 L 137.085938 141.820313 L 137.074219 141.953125 L 137.261719 144.128906 L 137.855469 146.230469 L 139.734375 149.4375 L 142.523438 151.886719 L 145.945313 153.335938 L 149.777344 153.617188 L 154.972656 152.796875 L 157.949219 151.601563 L 160.835938 149.265625 L 162.839844 146.136719 L 163.714844 142.917969 L 164.109375 139.230469 L 163.941406 136.8125 L 162.546875 132.988281 L 160.160156 130.15625 L 161.488281 129.921875 L 162.453125 129.875 L 163.800781 129.875 L 167.539063 131.203125 L 171.378906 131.21875 L 173.734375 130.574219 L 175.902344 129.457031 L 177.054688 128.507813 L 177.664063 128.609375 L 178 127.714844 L 177.96875 127.679688 L 179.308594 126 L 179.714844 126 L 183.117188 126.398438 L 182.519531 129.875 L 183.183594 133.753906 L 179.640625 134.308594 L 176.328125 135.992188 L 173.714844 138.632813 L 172.105469 141.839844 L 171.417969 146.507813 L 171.542969 149.035156 L 162.601563 156.074219 L 162.234375 157.082031 L 162.671875 158.175781 L 162.078125 159.632813 L 159.644531 160.289063 L 156.839844 159.359375 L 153.464844 157.734375 L 154.464844 159.796875 L 155.875 160.457031 L 161.363281 161.917969 L 164.042969 162.292969 L 165.242188 161.992188 L 166.015625 161.605469 L 166.75 160.257813 L 167.589844 160.183594 L 167.507813 160.828125 L 166.417969 162.609375 L 162.722656 166.96875 L 162.175781 167.183594 L 161.726563 166.894531 L 161.859375 165.949219 L 161.53125 165.507813 L 159.984375 165.785156 L 155.320313 167.769531 L 152.441406 170.8125 L 151.949219 171.945313 L 152.140625 172.144531 L 156.390625 168.453125 L 157.75 167.980469 L 160.300781 168.324219 L 161.058594 169.320313 L 157.109375 173.804688 L 156.367188 175.339844 L 156.707031 175.816406 L 157.367188 175.984375 L 158.261719 175.542969 L 161.140625 173.015625 L 167.808594 170.273438 L 170.480469 169.527344 L 170.492188 169.949219 L 171.554688 169.839844 L 173.589844 168.316406 L 174.046875 166.78125 L 178.648438 166.167969 L 179.285156 167.089844 L 180.148438 167.667969 L 184.320313 169.011719 L 185.4375 168.382813 L 188.433594 168.796875 L 190.9375 168.644531 L 193.652344 169.78125 L 196.5625 170.203125 L 199.609375 169.847656 L 201.824219 168.949219 L 204.117188 168.914063 L 204.121094 168.914063 L 206.445313 169.3125 L 209.996094 168.703125 L 210.3125 168.835938 L 212.550781 172.800781 L 213.671875 176.582031 Z M 206.445313 315.96875 L 204.183594 315.503906 L 201.871094 315.496094 L 199.601563 315.941406 L 197.46875 316.832031 L 195.550781 318.125 L 193.847656 319.871094 L 192.605469 321.820313 L 191.769531 323.976563 L 191.378906 326.253906 L 191.445313 328.566406 L 191.96875 330.816406 L 192.929688 332.921875 L 194.285156 334.792969 L 196.140625 336.566406 L 198.089844 337.800781 L 200.246094 338.625 L 202.519531 339.007813 L 204.828125 338.933594 L 207.074219 338.40625 L 209.171875 337.449219 L 211.039063 336.09375 L 212.601563 334.394531 L 213.796875 332.421875 L 214.605469 330.257813 L 214.992188 327.976563 L 214.933594 325.792969 L 214.429688 323.535156 L 213.488281 321.421875 L 212.230469 319.636719 L 210.558594 318.035156 L 208.605469 316.796875 Z M 144.414063 261.691406 L 144.414063 265.570313 L 142.820313 267.410156 L 141.648438 269.542969 L 140.941406 271.875 L 140.738281 274.429688 L 141.101563 276.964844 L 141.957031 279.246094 L 143.34375 281.402344 L 145.070313 283.117188 L 151.65625 287.054688 L 154.253906 287.777344 L 156.945313 287.878906 L 159.34375 287.4375 L 161.597656 286.503906 L 166.511719 283.507813 L 168.75 281.402344 L 170.136719 279.246094 L 170.988281 276.964844 L 171.351563 274.429688 L 171.152344 271.875 L 169.882813 268.390625 L 167.675781 265.570313 L 167.949219 261.886719 L 167.054688 258.304688 L 165.492188 255.675781 L 163.3125 253.523438 L 160.570313 251.875 L 157.613281 251.058594 L 154.542969 251.039063 L 151.457031 251.875 L 148.714844 253.519531 L 146.523438 255.851563 L 145.050781 258.6875 Z M 261.214844 342.3125 L 263.394531 342.824219 L 263.640625 343.980469 L 262.804688 345.191406 L 263.28125 343.65625 L 262.507813 342.839844 Z M 233.265625 471.046875 L 222.542969 471.046875 L 222.296875 470.886719 L 221.53125 470.996094 L 220.472656 470.871094 L 221.476563 469.683594 L 227.316406 466.367188 L 232.550781 467.761719 L 234.171875 469.894531 Z M 131.683594 427.445313 L 130.492188 426.410156 L 129.042969 425.707031 L 131.792969 424.328125 L 131.226563 422.867188 L 130.640625 424.257813 L 127.769531 424.613281 L 122.949219 424.152344 L 121.496094 423.164063 L 124.125 421.78125 L 125.167969 421.753906 L 125.464844 421.238281 L 124.929688 417.953125 L 123.328125 417.210938 L 121.445313 417.105469 L 122.0625 415.152344 L 125.613281 413.527344 L 127.558594 413.277344 L 129.757813 412.597656 L 131.976563 411.4375 L 133.074219 411.34375 L 134.871094 409.289063 L 135.753906 407.632813 L 137.585938 406.550781 L 141.359375 406.660156 L 142.21875 406.390625 L 145.136719 404.523438 L 143.667969 406.960938 L 142.921875 411.113281 L 143.375 414.285156 L 144.414063 416.769531 L 145.015625 419.617188 L 145.96875 421.691406 L 148.996094 425.253906 L 150.863281 426.542969 L 147.785156 426.460938 L 143.210938 423.710938 L 139.503906 423.714844 L 136.765625 424.277344 L 136.292969 426.515625 L 135.777344 427.203125 L 133.742188 427.917969 L 132.394531 427.265625 Z M 143.070313 359.386719 L 143.058594 359.316406 L 142.066406 356.921875 L 142.164063 354.453125 L 142.660156 354.363281 L 144.789063 353.550781 L 146.71875 352.335938 L 147.667969 351.445313 L 149.511719 351.992188 L 149.589844 352.0625 L 151.039063 355.578125 L 155.546875 356.503906 L 154.066406 358.859375 L 150.984375 360.816406 L 147.425781 363.976563 L 146.109375 363.875 L 144.195313 361.613281 Z M 147.824219 308.707031 L 147.792969 309.445313 L 148.292969 312.09375 L 148.292969 317.265625 L 147.847656 318.148438 L 145.464844 320.492188 L 144.039063 321.035156 L 142.109375 322.25 L 141.417969 322.898438 L 139.824219 322.464844 L 137.933594 323.433594 L 137.675781 322.921875 L 139.59375 317.296875 L 140.429688 316.246094 L 142.300781 315.023438 L 144.765625 310.230469 L 145.863281 309.40625 Z M 122.207031 259.386719 L 119.886719 258.335938 L 117.792969 257.917969 L 117.992188 256.269531 L 120.664063 249.058594 L 119.164063 246.890625 L 119.359375 242.367188 L 121.945313 238.054688 L 122.191406 237.09375 L 120.824219 237.742188 L 119.636719 239.75 L 119.449219 238.929688 L 123.929688 230.9375 L 123.671875 230.734375 L 122.386719 231.796875 L 121.808594 231.777344 L 122.070313 227.40625 L 122.28125 226.578125 L 125.03125 226.800781 L 125.289063 229.996094 L 126.472656 233.117188 L 128.492188 235.769531 L 128.773438 235.976563 L 126.449219 238.917969 L 125.671875 238.734375 L 125.460938 238.363281 L 126.1875 249.699219 L 124.449219 251.558594 L 123.367188 254.191406 Z M 113.214844 244.484375 L 112.949219 244.199219 L 110.429688 242.65625 L 109.515625 242.378906 L 109.585938 242.089844 L 112.5625 237.15625 L 116.605469 233.660156 L 119.195313 232.023438 L 119.632813 233.128906 L 119.449219 233.945313 L 118.015625 235.730469 L 113.761719 243.328125 Z M 108.589844 242.097656 L 107.605469 241.796875 L 106.453125 241.753906 L 106.871094 241.457031 L 108.433594 240.808594 L 108.667969 241.335938 Z M 102.898438 224.070313 L 102.390625 223.554688 L 102.589844 223.230469 L 103.304688 222.808594 L 103.460938 223.023438 Z M 102.472656 208.515625 L 102.046875 207.847656 L 102.617188 207.75 L 102.652344 208.195313 Z M 109.148438 199.707031 L 109.523438 199.660156 L 109.496094 199.957031 Z M 109.699219 205.417969 L 109.824219 206.089844 L 111.171875 208.777344 L 108.898438 208.554688 L 108.144531 207.871094 L 107.96875 206.789063 L 109.109375 205.527344 Z M 113.125 210.992188 L 113.398438 211.292969 L 113.308594 211.671875 L 113.113281 211.414063 Z M 113.082031 212.617188 L 112.828125 213.664063 L 112.773438 216.234375 L 112.890625 216.816406 L 112.554688 216.699219 L 109.90625 217.519531 L 105.058594 214.074219 L 105.636719 211.667969 L 108.914063 210.140625 L 110.03125 209.789063 L 110.59375 209.929688 L 111.976563 210.636719 Z M 112.898438 216.851563 L 113.25 218.628906 L 114.277344 220.984375 L 116.089844 223.324219 L 115.425781 223.117188 L 112.109375 224.96875 L 106.027344 226.585938 L 104.691406 226.273438 L 103.734375 224.277344 L 103.851563 223.371094 L 104.191406 223.09375 L 105.628906 223.050781 L 106.039063 223.617188 L 106.972656 224.074219 L 112.214844 222.164063 L 112.035156 221.589844 L 109.863281 222.445313 L 108.199219 222.488281 L 107.824219 221.539063 L 109.386719 219.472656 L 112.601563 217.957031 Z M 116.121094 223.363281 L 116.242188 223.519531 L 117.464844 224.417969 L 116.335938 225.03125 L 115.453125 224.539063 Z M 121.0625 226.253906 L 121.832031 226.542969 L 121.96875 226.554688 L 121.953125 226.621094 L 121.453125 227.109375 L 121.152344 226.972656 Z M 129.6875 236.644531 L 131.183594 237.742188 L 133.324219 238.621094 L 135.597656 239.054688 L 138.039063 239.019531 L 138.570313 238.894531 L 138.320313 240.257813 L 136.15625 245.152344 L 135.023438 244.945313 L 131.566406 242.222656 L 130.757813 242.5 L 130.269531 243.347656 L 130.09375 244.535156 L 130.664063 246.308594 L 130.519531 246.613281 L 128.257813 245.464844 L 127.46875 243.074219 L 128.453125 238.691406 Z M 136.464844 138 L 138.652344 135.335938 L 139.941406 132.726563 L 140.539063 129.875 L 144.414063 129.875 L 141.566406 132.324219 L 139.0625 135.53125 L 137.917969 137.6875 L 137.292969 139.78125 L 137.25 140.222656 Z M 193.941406 100.917969 L 195.433594 99.828125 L 195.15625 101.132813 L 194.695313 101.191406 L 193.808594 102.535156 L 193.15625 102.40625 L 193.136719 102.113281 Z M 93.5 157.078125 L 96.902344 157.140625 L 94.699219 157.738281 L 92.652344 158.761719 L 91.644531 159.664063 L 90.550781 158.175781 L 90.507813 157.148438 L 91.820313 157.980469 Z M 89.414063 161.660156 L 88.773438 162.234375 L 88.390625 162.792969 L 88.238281 162.863281 L 87.917969 162.585938 L 88.445313 161.890625 L 89.367188 161.550781 Z M 87.757813 163.730469 L 87.265625 164.449219 L 86.277344 167.078125 L 85.945313 169.863281 L 86.113281 171.265625 L 84.875 171.125 L 84.914063 169.441406 L 82.996094 168.253906 L 81.464844 168.371094 L 81.046875 168 L 81.019531 167.933594 L 80.089844 166.761719 L 81.617188 164.507813 L 86.457031 164.699219 L 87.222656 163.867188 Z M 86.25 172.421875 L 86.261719 172.523438 L 83.074219 173.226563 L 82.792969 172.9375 L 82.824219 172.589844 L 83.972656 171.789063 Z M 79.710938 194.265625 L 79.078125 195.0625 L 78.507813 194.933594 L 78.507813 192.753906 L 78.769531 192.417969 Z M 286.679688 439.636719 L 283.058594 438.976563 L 282.164063 437.605469 L 282.484375 436.070313 L 286.839844 437.054688 L 287.960938 438.832031 Z M 236.835938 466.113281 L 235.136719 465.644531 L 236.523438 463.683594 L 237.195313 464.164063 L 237.5 465.839844 Z M 108.136719 218.074219 L 107.207031 217.691406 L 106.753906 217.160156 L 107.335938 216.378906 L 108.085938 216.507813 L 109.105469 217.519531 L 109.070313 217.820313 Z M 120.902344 230.566406 L 120.316406 229.273438 L 120.976563 227.386719 L 121.816406 227.683594 Z M 118.503906 231.671875 L 118.15625 231.449219 L 118.535156 230.824219 L 119.917969 230.164063 L 119.953125 231.257813 Z M 106.976563 236.632813 L 105.476563 236.191406 L 106.28125 234.464844 L 107.839844 232.910156 L 108.882813 232.734375 L 107.535156 236.1875 Z M 134.8125 251.347656 L 132.589844 248.835938 L 130.84375 244.566406 L 130.707031 243.464844 L 131.460938 242.613281 L 133.71875 244.574219 L 134.707031 246.3125 L 135.339844 249.003906 L 135.222656 250.96875 Z M 130.613281 263.773438 L 129.152344 263.667969 L 126.582031 261.613281 L 125.375 256.128906 L 125.988281 253.21875 L 128.179688 251.246094 L 129.539063 251.441406 L 131.390625 253.015625 L 132.984375 258.382813 L 133.019531 262.765625 L 132.308594 263.453125 Z M 130.613281 263.773438 "/>
<path style=" stroke:none;fill-rule:nonzero;fill:rgb(80.392157%,58.431373%,4.705882%);fill-opacity:1;" d="M 223.742188 66.191406 L 225.277344 66.96875 L 224.308594 74.617188 L 223.472656 74.351563 L 221.910156 72.433594 L 222.910156 68.203125 L 223.429688 67.644531 Z M 223.742188 66.191406 "/>
<path style=" stroke:none;fill-rule:nonzero;fill:rgb(80.392157%,58.431373%,4.705882%);fill-opacity:1;" d="M 184.914063 97.386719 L 185.347656 97.195313 L 188.613281 98.375 L 189.644531 99.757813 L 189.558594 100.558594 L 189.007813 101.453125 L 189.121094 100.265625 L 187.730469 99.058594 L 186.953125 98.894531 L 186.835938 99.515625 L 186.335938 100.011719 Z M 186.285156 108.429688 L 185.265625 108.269531 L 183.644531 107.441406 L 182.355469 106.15625 L 181.675781 104.816406 L 184.519531 106.003906 Z M 186.285156 108.429688 "/>
<path style=" stroke:none;fill-rule:nonzero;fill:rgb(80.392157%,58.431373%,4.705882%);fill-opacity:1;" d="M 197.75 100.652344 L 196.894531 100.515625 L 194.96875 99.386719 L 196.15625 98.316406 L 199.542969 97.917969 L 199.804688 99.347656 Z M 197.75 100.652344 "/>
<path style=" stroke:none;fill-rule:nonzero;fill:rgb(80.392157%,58.431373%,4.705882%);fill-opacity:1;" d="M 101.507813 191.277344 L 102.191406 191.960938 L 100.703125 192.265625 L 100.25 191.921875 Z M 101.507813 191.277344 "/>
<path style=" stroke:none;fill-rule:nonzero;fill:rgb(80.392157%,58.431373%,4.705882%);fill-opacity:1;" d="M 88.429688 500.046875 L 88.566406 499.308594 L 88.941406 499.117188 L 89.34375 499.789063 Z M 88.429688 500.046875 "/>
</g>
</svg>
