<?xml version="1.0" encoding="UTF-8"?>
<svg xmlns="http://www.w3.org/2000/svg" xmlns:xlink="http://www.w3.org/1999/xlink" width="378pt" height="504pt" viewBox="0 0 378 504" version="1.1">
<g id="data">
<rect x="0" y="0" width="378" height="504" style="fill:rgb(100%,100%,100%);fill-opacity:1;stroke:none;"/>
<path style=" stroke:none;fill-rule:nonzero;fill:rgb(100%,100%,100%);fill-opacity:1;" d="M 53.308594 504 L 324.691406 504 L 324.691406 0 L 53.308594 0 Z M 53.308594 504 "/>
<path style=" stroke:none;fill-rule:nonzero;fill:rgb(22.745098%,53.333333%,16.078431%);fill-opacity:1;" d="M 245.214844 332.949219 L 247.085938 334.375 L 249.09375 335.355469 L 245.214844 334.6875 L 241.339844 335.355469 L 243.34375 334.375 Z M 233.585938 32.953125 L 232.054688 34.492188 L 230.832031 36.285156 L 230.457031 37.152344 L 230.816406 33.792969 L 231.292969 32.953125 Z M 229.886719 38.648438 L 229.488281 40.394531 L 229.621094 42.941406 L 229.175781 46.582031 L 227.496094 47.179688 L 226.742188 47.023438 L 226.078125 45.398438 L 225.8125 41.578125 L 226.300781 41.179688 L 227.765625 39.390625 L 228.847656 37.34375 L 229.015625 36.785156 L 229.761719 37.023438 Z M 221.917969 72.445313 L 221.917969 72.402344 L 222.910156 68.203125 L 223.429688 67.644531 L 224.308594 63.570313 L 223.632813 57.773438 L 221.078125 57.210938 L 222.089844 58.292969 L 222.21875 59.898438 L 220.292969 61.703125 L 218.738281 60.40625 L 218.746094 59.554688 L 215.621094 58.289063 L 215.003906 56.183594 L 215.039063 55.8125 L 215.808594 55.171875 L 220.695313 54.34375 L 222.421875 53.527344 L 222.960938 52.8125 L 220.238281 48.339844 L 217.292969 47.78125 L 217.703125 46.707031 L 217.941406 45.355469 L 218.675781 44.523438 L 220.378906 44.355469 L 222.46875 43.722656 L 223.507813 43.171875 L 223.417969 46.992188 L 223.628906 47.851563 L 228.960938 48.949219 L 227.699219 56.234375 L 226.355469 57.007813 L 225.6875 56.476563 L 226.023438 58.453125 L 227.246094 61.769531 L 226.800781 62.460938 L 226.285156 62.238281 L 225.40625 63.738281 L 225.265625 67.207031 L 224.308594 74.617188 L 223.472656 74.351563 Z M 198.886719 97.996094 L 198.691406 98.863281 L 197.109375 100.878906 L 194.695313 101.191406 L 193.226563 103.421875 L 193.136719 102.113281 L 195.332031 98.847656 L 196.15625 98.316406 Z M 191.015625 113.953125 L 190.9375 114.371094 L 189.492188 116.148438 L 186.777344 113.90625 L 184.832031 114.03125 L 181.886719 115.097656 L 179.289063 113.242188 L 179.308594 110.492188 L 180.78125 108.921875 L 181.996094 106.988281 L 182.691406 105.203125 L 184.519531 106.003906 L 186.230469 108.273438 L 187.324219 111.371094 L 189.425781 112.382813 L 190.734375 113.441406 Z M 188.117188 118.308594 L 187.542969 119.636719 L 187.0625 122.125 L 186.796875 122.421875 L 186.4375 122.070313 L 185.203125 119.125 L 185.941406 118.488281 Z M 184.003906 126.503906 L 183.914063 126.671875 L 182.542969 132.988281 L 182.636719 135.40625 L 183.183594 137.628906 L 181.378906 138.988281 L 179.308594 141.507813 L 178.640625 142.042969 L 177.402344 142.480469 L 176.097656 143.761719 L 173.855469 147.214844 L 164.527344 154.554688 L 165.078125 152.230469 L 164.894531 148.898438 L 164.214844 146.6875 L 163.109375 144.65625 L 161.621094 142.882813 L 159.921875 141.507813 L 159.328125 138.625 L 158.03125 135.984375 L 156.113281 133.753906 L 153.808594 132.136719 L 150.050781 130.890625 L 149.617188 130.898438 L 149.632813 130.886719 L 149.746094 130.125 L 152.167969 130.542969 L 153.59375 130.296875 L 153.609375 130.328125 L 157.023438 130.710938 L 160.984375 130.007813 L 162.050781 130.039063 L 164.449219 129.789063 L 168.160156 129.621094 L 169.804688 128.105469 L 171.035156 127.402344 L 172.933594 127.351563 L 173.433594 127.917969 L 177.664063 128.609375 L 178 127.714844 L 177.503906 127.214844 L 177.972656 125.796875 Z M 185.421875 168.390625 L 185.433594 168.394531 L 188.558594 168.800781 L 197.609375 168.738281 L 199.164063 168.988281 L 204.117188 168.914063 L 204.394531 168.6875 L 209.867188 168.648438 L 210.3125 168.835938 L 210.378906 168.953125 L 210.730469 170.890625 L 211.511719 172.898438 L 212.726563 174.828125 L 213.347656 175.488281 L 213.671875 176.582031 L 213.695313 178 L 209.382813 183.425781 L 207.15625 188.339844 L 206.714844 190.929688 L 206.34375 192.65625 L 206.390625 194.019531 L 206.226563 194.742188 L 205.363281 196.296875 L 204.25 196.824219 L 202.410156 198.214844 L 200.808594 200.042969 L 199.621094 202.160156 L 198.851563 204.734375 L 198.691406 207.414063 L 196.496094 210.03125 L 195.15625 213.171875 L 194.671875 216.417969 L 194.699219 216.875 L 191.214844 219.742188 L 185.519531 221.085938 L 182.847656 221.226563 L 179.207031 224.109375 L 179.816406 220.949219 L 179.929688 218.027344 L 179.308594 215.167969 L 181.546875 216.136719 L 183.8125 216.601563 L 186.25 216.597656 L 188.515625 216.125 L 190.523438 215.273438 L 192.34375 214.0625 L 196.128906 209.917969 L 198.007813 206.625 L 199.179688 201.691406 L 199.3125 198.644531 L 198.691406 195.785156 L 199.390625 193.179688 L 199.476563 190.613281 L 198.921875 187.84375 L 197.78125 185.398438 L 196.109375 183.28125 L 193.996094 181.605469 L 190.453125 180.117188 L 187.570313 179.621094 L 185.410156 179.730469 L 183.183594 180.277344 L 180.054688 180.175781 L 176.820313 180.757813 L 173.953125 182.09375 L 171.554688 184.152344 L 168.15625 184.660156 L 164.953125 186.210938 L 162.285156 188.757813 L 160.59375 191.886719 L 160.367188 189.597656 L 159.644531 187.28125 L 158.527344 185.269531 L 156.949219 183.429688 L 155.125 182.023438 L 152.945313 180.960938 L 150.589844 180.371094 L 148.292969 180.277344 L 148.953125 176.65625 L 148.4375 172.089844 L 151.191406 171.59375 L 152.316406 171.101563 L 151.949219 171.945313 L 152.140625 172.144531 L 156.390625 168.453125 L 157.75 167.980469 L 160.300781 168.324219 L 161.058594 169.320313 L 157.109375 173.804688 L 156.367188 175.339844 L 156.707031 175.816406 L 157.367188 175.984375 L 158.261719 175.542969 L 161.140625 173.015625 L 167.808594 170.273438 L 170.480469 169.527344 L 170.492188 169.949219 L 171.554688 169.839844 L 173.589844 168.316406 L 174.046875 166.78125 L 178.648438 166.167969 L 179.285156 167.089844 L 180.148438 167.667969 L 184.320313 169.011719 Z M 211.589844 255.042969 L 209.886719 256.164063 L 208.171875 257.902344 L 206.855469 259.957031 L 206 262.246094 L 205.636719 264.660156 L 205.789063 267.09375 L 206.445313 269.445313 L 203.984375 267.226563 L 201.121094 265.832031 L 197.988281 265.265625 L 194.816406 265.570313 L 193.109375 263.398438 L 190.9375 261.691406 L 189.492188 258.980469 L 187.285156 256.664063 L 184.054688 254.847656 L 180.414063 254.140625 L 177.605469 254.390625 L 174.828125 255.367188 L 171.554688 257.816406 L 168.0625 259.425781 L 165.769531 261.480469 L 164.097656 264.066406 L 163.140625 267.128906 L 163.039063 270.207031 L 163.800781 273.546875 L 162.246094 271.398438 L 159.921875 269.445313 L 157.796875 267.042969 L 155.789063 265.65625 L 153.53125 264.722656 L 150.617188 264.25 L 147.675781 264.527344 L 144.902344 265.539063 L 142.46875 267.210938 L 139.378906 270.984375 L 137.890625 274.523438 L 137.648438 278.484375 L 138.808594 282.410156 L 140.539063 284.953125 L 142.316406 288.492188 L 145.390625 291.367188 L 147.5625 292.460938 L 149.578125 293.015625 L 149.839844 295.726563 L 149.308594 296.871094 L 148.746094 297.058594 L 145.816406 295.78125 L 144.601563 294.238281 L 144.507813 293.621094 L 143.632813 292.355469 L 141.613281 291.4375 L 140.164063 290.433594 L 138.398438 288.636719 L 137.464844 288.296875 L 135.511719 289.683594 L 134.605469 291.238281 L 135.976563 295.472656 L 136.734375 296.308594 L 136.886719 297.789063 L 135.789063 297.21875 L 134.539063 296.957031 L 134.359375 296.304688 L 134.707031 295.457031 L 134.59375 294.480469 L 133.472656 292.679688 L 130.894531 289.722656 L 129.605469 286.988281 L 129.480469 286.195313 L 129.527344 283.933594 L 129.5 283.753906 L 129.71875 282.265625 L 132.777344 280.410156 L 134.003906 276.632813 L 137.757813 273.035156 L 138.601563 268.871094 L 140.917969 265.085938 L 143.644531 263.800781 L 144.390625 261.886719 L 144.195313 260.621094 L 142.601563 256.71875 L 139.777344 254.832031 L 137.378906 252.511719 L 138.6875 242.234375 L 139.792969 241.882813 L 140.539063 242.308594 L 142.476563 244.15625 L 144.789063 245.511719 L 148.488281 246.457031 L 152.167969 246.183594 L 154.671875 246.332031 L 159.222656 245.742188 L 162.902344 243.949219 L 164.882813 242.117188 L 166.386719 239.878906 L 166.699219 239.042969 L 166.738281 239.222656 L 168.246094 240.195313 L 178.0625 241.875 L 182.921875 243.167969 L 186.398438 241.730469 L 187.519531 239.417969 L 188.617188 238.355469 L 189.539063 238.171875 L 193.183594 238.5 L 199.339844 242.761719 L 206.488281 246.65625 L 208.910156 251.429688 Z M 155.152344 292.976563 L 155.226563 292.964844 L 155.175781 292.988281 L 155.160156 292.984375 Z M 148.292969 308.539063 L 148.292969 317.265625 L 147.847656 318.148438 L 145.480469 320.476563 L 144.039063 321.035156 L 142.109375 322.25 L 141.417969 322.898438 L 139.824219 322.464844 L 137.933594 323.433594 L 137.675781 322.921875 L 139.617188 317.234375 L 139.828125 317.003906 L 140.324219 316.316406 L 142.300781 315.023438 L 144.765625 310.230469 L 145.863281 309.40625 Z M 117.40625 268.855469 L 117.898438 266.589844 L 117.761719 263.539063 L 117.296875 262.066406 L 117.992188 256.269531 L 120.664063 249.058594 L 119.164063 246.890625 L 119.359375 242.367188 L 121.945313 238.054688 L 122.191406 237.09375 L 120.824219 237.742188 L 119.636719 239.75 L 119.449219 238.929688 L 123.929688 230.9375 L 123.671875 230.734375 L 122.386719 231.796875 L 121.808594 231.777344 L 122.070313 227.40625 L 122.761719 224.691406 L 124.160156 221.96875 L 126.660156 220.210938 L 128.792969 220.179688 L 129.328125 220.484375 L 131.4375 220.320313 L 132.035156 219.691406 L 133.410156 221.15625 L 136.660156 222.921875 L 134.273438 226.082031 L 133.085938 229.863281 L 133.144531 231.464844 L 130.363281 233.964844 L 126.449219 238.917969 L 125.671875 238.734375 L 125.460938 238.363281 L 126.1875 249.699219 L 124.449219 251.558594 L 123.367188 254.191406 L 121.183594 263.964844 L 122.0625 266.289063 L 120.679688 268.164063 L 119.945313 268.597656 Z M 107.429688 254.054688 L 105.644531 253.9375 L 104.074219 252.464844 L 103.628906 252.183594 L 104.988281 247.472656 L 102.980469 247.105469 L 101.464844 249.738281 L 100.574219 250.648438 L 100.015625 250.433594 L 98.730469 250.210938 L 99.023438 248.875 L 100.660156 243.785156 L 102.445313 243.214844 L 103.882813 243.558594 L 106.871094 241.457031 L 108.433594 240.808594 L 108.667969 241.335938 L 108.480469 243.175781 L 108.777344 246.292969 L 109.046875 247.320313 L 109.929688 248.226563 L 110.335938 251.851563 L 108.992188 253.109375 Z M 102.882813 224.101563 L 102.382813 223.566406 L 102.589844 223.230469 L 103.304688 222.808594 L 103.460938 223.023438 Z M 90.136719 217.402344 L 90.136719 215.167969 L 92.988281 214.570313 L 95.222656 213.46875 L 95.671875 214.59375 L 93.804688 214.847656 L 92.019531 216.296875 L 91.515625 217.839844 Z M 96.683594 212.390625 L 99.882813 209.761719 L 101.292969 208.007813 L 101.351563 207.964844 L 102.617188 207.75 L 102.652344 208.195313 L 101.386719 210.445313 L 99.425781 212.117188 L 96.976563 213.15625 Z M 109.421875 199.902344 L 109.523438 199.660156 L 111.332031 197.722656 L 111.398438 197.769531 L 111.5 198.265625 L 111.128906 199.855469 L 110.160156 200.433594 Z M 113.425781 188.332031 L 113.398438 188.03125 L 113.734375 187.765625 Z M 114.078125 187.496094 L 115.570313 186.324219 L 116.96875 184.542969 L 117.5 184.859375 L 117.84375 184.710938 L 118.902344 185.757813 L 120.921875 187.070313 L 121.882813 187.441406 L 119.148438 190.25 L 118.089844 190.683594 L 116.035156 193.449219 L 114.023438 194.042969 L 113.570313 192.609375 L 115.183594 189.4375 Z M 122.917969 187.84375 L 123.167969 187.9375 L 125.546875 188.328125 L 123.445313 189.050781 L 122.863281 188.511719 Z M 121.097656 190.507813 L 120.550781 190.980469 L 120.992188 190.507813 Z M 116.753906 198.117188 L 116.605469 199.503906 L 116.679688 200.359375 L 115.804688 199.949219 Z M 117.28125 203.035156 L 117.523438 203.664063 L 117.316406 203.507813 Z M 118.035156 205 L 118.320313 205.734375 L 120.347656 208.003906 L 119.15625 207.757813 L 117.03125 209.015625 L 115.34375 209.1875 L 108.898438 208.554688 L 108.144531 207.871094 L 107.96875 206.789063 L 109.109375 205.527344 L 114.792969 204.496094 L 115.882813 205.636719 L 117.070313 206.34375 Z M 121.589844 209.113281 L 124.855469 210.804688 L 127.632813 211.140625 L 123.476563 215.398438 L 120.675781 217.269531 L 120.230469 216.390625 L 115.878906 214.433594 L 114.8125 213.664063 L 113.113281 211.414063 L 113.132813 210.632813 L 113.96875 210.082031 L 116.167969 209.980469 L 120.585938 209.09375 Z M 128.96875 211.882813 L 129.289063 214.972656 L 129.300781 215.003906 L 128.550781 215.441406 L 127.980469 214.949219 L 127.875 213.785156 Z M 129.785156 216.058594 L 130.878906 218.457031 L 131.902344 219.546875 L 131.898438 219.546875 L 131.125 219.644531 L 127.28125 218.265625 L 127.882813 216.460938 L 128.195313 216.742188 L 128.945313 216.671875 Z M 133.179688 232.457031 L 133.230469 233.820313 L 134.632813 237.390625 L 137.316406 240.472656 L 138.042969 240.886719 L 136.15625 245.152344 L 135.023438 244.945313 L 131.566406 242.222656 L 130.757813 242.5 L 130.269531 243.347656 L 130.09375 244.535156 L 130.664063 246.308594 L 130.519531 246.613281 L 128.257813 245.464844 L 127.46875 243.074219 L 128.453125 238.691406 L 131.230469 234.078125 Z M 167.082031 238.023438 L 167.335938 237.355469 L 167.675781 234.554688 L 170.355469 234.242188 L 172.773438 233.378906 L 174.941406 232.003906 L 176.839844 230.089844 L 178.753906 226.46875 L 178.945313 225.464844 L 179.84375 225.195313 L 184.609375 222.886719 L 186.457031 221.386719 L 187.289063 221.316406 L 189.085938 221.875 L 189.332031 222.921875 L 188.898438 224.691406 L 189.238281 225.953125 L 190.898438 226.824219 L 192.988281 227.191406 L 194.445313 228.726563 L 194.429688 229.304688 L 192.117188 231.570313 L 189.460938 232.730469 L 188.34375 232.882813 L 187.070313 232.078125 L 185.40625 232.042969 L 181.046875 235.800781 L 180.578125 237.003906 L 174.761719 240.109375 L 170.214844 238.117188 Z M 157.765625 166.730469 L 157.820313 166.667969 L 159.28125 163.859375 L 159.792969 161.5 L 161.363281 161.917969 L 164.042969 162.292969 L 165.242188 161.992188 L 166.015625 161.605469 L 166.75 160.257813 L 167.589844 160.183594 L 167.507813 160.828125 L 166.417969 162.609375 L 162.722656 166.96875 L 162.175781 167.183594 L 161.726563 166.894531 L 161.859375 165.949219 L 161.53125 165.507813 L 159.984375 165.785156 Z M 160.972656 159.929688 L 162.542969 158.5 L 162.078125 159.632813 Z M 147.882813 130.9375 L 146.09375 130.976563 L 142.730469 132.195313 L 138.878906 134.980469 L 139.988281 132.585938 L 140.539063 129.875 L 143.777344 130.523438 L 146.066406 130.425781 L 147.734375 130.015625 L 147.992188 130.773438 Z M 178.417969 119.527344 L 178.429688 119.503906 L 179.269531 116.160156 L 179.28125 114.871094 L 181.269531 116.636719 L 182.96875 119.6875 L 182.941406 120.441406 L 180.816406 120.886719 L 179.261719 120.746094 Z M 185.859375 99.132813 L 186.191406 98.542969 L 186.425781 97.585938 L 188.613281 98.375 L 189.644531 99.757813 L 189.558594 100.558594 L 189.007813 101.453125 L 189.121094 100.265625 L 187.730469 99.058594 L 186.953125 98.894531 L 186.835938 99.515625 L 186.335938 100.011719 Z M 156.546875 292.542969 L 159.894531 290.691406 L 162.460938 287.851563 L 164.753906 282.757813 L 165.292969 279.023438 L 167.042969 281.382813 L 169.222656 283.15625 L 171.453125 284.199219 L 169.453125 284.03125 L 168.792969 286.707031 L 168.050781 287.074219 L 166.363281 288.710938 L 166.234375 288.695313 L 163.3125 290.011719 L 161.832031 291.855469 L 161.265625 292.242188 L 160.1875 292.046875 Z M 174.191406 284.828125 L 174.773438 284.933594 L 174.597656 284.960938 Z M 130.914063 157.109375 L 131.480469 156.238281 L 131.765625 156.140625 L 133.4375 156.75 Z M 132.90625 153.410156 L 133.289063 152.359375 L 134.558594 154.675781 L 133.609375 154.054688 Z M 135.734375 156.023438 L 136.660156 157.015625 L 136.246094 156.96875 Z M 132.910156 144.394531 L 132.792969 141.683594 L 133.707031 141.804688 L 133.460938 142.324219 Z M 101.769531 137.628906 L 104.042969 137.535156 L 106.132813 137.042969 L 108.09375 136.175781 L 109.867188 134.960938 L 109.222656 138.210938 L 109.523438 141.507813 L 107.25 142.394531 L 105.207031 143.734375 L 103.492188 145.472656 L 102.179688 147.527344 L 101.804688 148.527344 L 101.296875 148.414063 L 99.359375 150.839844 L 100.101563 152.9375 L 101.019531 153.988281 L 101.277344 156.078125 L 100.546875 156.960938 L 98.890625 156.890625 L 95.164063 157.574219 L 92.433594 158.902344 L 91.609375 159.617188 L 90.550781 158.175781 L 90.507813 157.148438 L 91.820313 157.980469 L 97.480469 154.929688 L 96.453125 153.484375 L 95.234375 152.652344 L 94.117188 152.148438 L 92.941406 152.324219 L 92.058594 151.863281 L 91.273438 150.875 L 92.699219 149.40625 L 91.511719 144.71875 L 92.542969 143.078125 L 94.015625 141.507813 L 96.164063 141.117188 L 96.675781 141.359375 L 95.960938 142.378906 L 97.386719 146.128906 L 97.359375 142.890625 L 98.964844 142.257813 L 100.179688 142.804688 L 100.34375 142.296875 L 99.199219 139.730469 L 100.195313 139.105469 Z M 101.464844 149.433594 L 101.320313 149.8125 L 100.960938 152.226563 L 101.019531 153.132813 L 100.703125 152.269531 L 100.652344 150.535156 Z M 97.335938 140.679688 L 98.265625 140.320313 L 98.367188 140.253906 L 99.277344 141.320313 L 99.230469 141.953125 L 98.214844 141.941406 L 97.453125 141.691406 Z M 81.539063 192.628906 L 79.617188 194.261719 L 79.046875 195.054688 L 77.847656 194.78125 L 78.132813 194.027344 L 78.316406 193.003906 L 80.441406 190.269531 L 81.117188 190.9375 Z M 91.824219 155.515625 L 91.882813 154.726563 L 92.882813 153.957031 L 93.789063 153.890625 L 93.378906 155.476563 Z M 110.59375 209.929688 L 111.976563 210.636719 L 113.289063 212.988281 L 113.785156 214.699219 L 116.457031 215.945313 L 117.929688 216.300781 L 121.195313 219.144531 L 120.902344 221.207031 L 119.445313 223.339844 L 116.335938 225.03125 L 115.453125 224.539063 L 116.136719 223.339844 L 115.425781 223.117188 L 112.109375 224.96875 L 106.027344 226.585938 L 104.691406 226.273438 L 103.734375 224.277344 L 103.851563 223.371094 L 104.191406 223.09375 L 105.628906 223.050781 L 106.039063 223.617188 L 106.972656 224.074219 L 112.214844 222.164063 L 112.035156 221.589844 L 109.863281 222.445313 L 108.199219 222.488281 L 107.824219 221.539063 L 109.386719 219.472656 L 112.601563 217.957031 L 112.90625 216.820313 L 112.554688 216.699219 L 109.90625 217.519531 L 105.058594 214.074219 L 105.636719 211.667969 L 108.914063 210.140625 L 110.03125 209.789063 Z M 108.136719 218.074219 L 107.207031 217.691406 L 106.753906 217.160156 L 107.335938 216.378906 L 108.085938 216.507813 L 109.105469 217.519531 L 109.070313 217.820313 Z M 123.378906 222.417969 L 122.582031 222.078125 L 123.082031 221.191406 L 124.476563 221.046875 Z M 121.453125 227.109375 L 121.152344 226.972656 L 120.984375 225.621094 L 121.59375 224.800781 L 122.367188 224.816406 L 121.953125 226.621094 Z M 120.902344 230.566406 L 120.316406 229.273438 L 120.976563 227.386719 L 121.816406 227.683594 Z M 118.503906 231.671875 L 118.15625 231.449219 L 118.535156 230.824219 L 119.917969 230.164063 L 119.953125 231.257813 Z M 111.886719 247.292969 L 110.550781 247.070313 L 109.476563 246.144531 L 109.292969 243.285156 L 109.585938 242.089844 L 112.5625 237.15625 L 116.605469 233.660156 L 119.195313 232.023438 L 119.632813 233.128906 L 119.449219 233.945313 L 118.015625 235.730469 L 113.761719 243.328125 Z M 106.976563 236.632813 L 105.476563 236.191406 L 106.28125 234.464844 L 107.839844 232.910156 L 108.882813 232.734375 L 107.535156 236.1875 Z M 134.8125 251.347656 L 132.589844 248.835938 L 130.84375 244.566406 L 130.707031 243.464844 L 131.460938 242.613281 L 133.71875 244.574219 L 134.707031 246.3125 L 135.339844 249.003906 L 135.222656 250.96875 Z M 130.613281 263.773438 L 129.152344 263.667969 L 126.582031 261.613281 L 125.375 256.128906 L 125.988281 253.21875 L 128.179688 251.246094 L 129.539063 251.441406 L 131.390625 253.015625 L 132.984375 258.382813 L 133.019531 262.765625 L 132.308594 263.453125 Z M 130.613281 263.773438 "/>
<path style=" stroke:none;fill-rule:nonzero;fill:rgb(80.392157%,58.431373%,4.705882%);fill-opacity:1;" d="M 235.523438 308.214844 L 235.238281 310.011719 L 234.414063 311.632813 L 233.125 312.921875 L 231.503906 313.746094 L 229.707031 314.03125 L 227.910156 313.746094 L 226.289063 312.921875 L 225.003906 311.632813 L 224.175781 310.011719 L 223.890625 308.214844 L 224.175781 306.417969 L 225.003906 304.796875 L 226.289063 303.511719 L 227.910156 302.683594 L 229.707031 302.398438 L 231.503906 302.683594 L 233.125 303.511719 L 234.414063 304.796875 L 235.238281 306.417969 Z M 235.523438 308.214844 "/>
<path style=" stroke:none;fill-rule:nonzero;fill:rgb(80.392157%,58.431373%,4.705882%);fill-opacity:1;" d="M 220.015625 343.109375 L 219.730469 344.90625 L 218.90625 346.527344 L 217.617188 347.8125 L 215.996094 348.636719 L 214.199219 348.921875 L 212.402344 348.636719 L 210.78125 347.8125 L 209.496094 346.527344 L 208.667969 344.90625 L 208.382813 343.109375 L 208.667969 341.3125 L 209.496094 339.691406 L 210.78125 338.402344 L 212.402344 337.578125 L 214.199219 337.292969 L 215.996094 337.578125 L 217.617188 338.402344 L 218.90625 339.691406 L 219.730469 341.3125 Z M 220.015625 343.109375 "/>
<path style=" stroke:none;fill-rule:nonzero;fill:rgb(80.392157%,58.431373%,4.705882%);fill-opacity:1;" d="M 185.125 385.753906 L 184.839844 387.550781 L 184.011719 389.171875 L 182.726563 390.457031 L 181.105469 391.285156 L 179.308594 391.570313 L 177.511719 391.285156 L 175.890625 390.457031 L 174.601563 389.171875 L 173.777344 387.550781 L 173.492188 385.753906 L 173.777344 383.957031 L 174.601563 382.335938 L 175.890625 381.050781 L 177.511719 380.222656 L 179.308594 379.9375 L 181.105469 380.222656 L 182.726563 381.050781 L 184.011719 382.335938 L 184.839844 383.957031 Z M 185.125 385.753906 "/>
<path style=" stroke:none;fill-rule:nonzero;fill:rgb(80.392157%,58.431373%,4.705882%);fill-opacity:1;" d="M 223.890625 288.832031 L 223.609375 290.628906 L 222.78125 292.25 L 221.496094 293.535156 L 219.875 294.363281 L 218.078125 294.644531 L 216.28125 294.363281 L 214.660156 293.535156 L 213.371094 292.25 L 212.546875 290.628906 L 212.261719 288.832031 L 212.546875 287.035156 L 213.371094 285.414063 L 214.660156 284.125 L 216.28125 283.300781 L 218.078125 283.015625 L 219.875 283.300781 L 221.496094 284.125 L 222.78125 285.414063 L 223.609375 287.035156 Z M 223.890625 288.832031 "/>
<path style=" stroke:none;fill-rule:nonzero;fill:rgb(80.392157%,58.431373%,4.705882%);fill-opacity:1;" d="M 266.539063 420.644531 L 266.253906 422.441406 L 265.429688 424.0625 L 264.140625 425.351563 L 262.519531 426.175781 L 260.722656 426.460938 L 258.925781 426.175781 L 257.304688 425.351563 L 256.019531 424.0625 L 255.191406 422.441406 L 254.90625 420.644531 L 255.191406 418.847656 L 256.019531 417.226563 L 257.304688 415.941406 L 258.925781 415.117188 L 260.722656 414.832031 L 262.519531 415.117188 L 264.140625 415.941406 L 265.429688 417.226563 L 266.253906 418.847656 Z M 266.539063 420.644531 "/>
<path style=" stroke:none;fill-rule:nonzero;fill:rgb(80.392157%,58.431373%,4.705882%);fill-opacity:1;" d="M 250.804688 317.394531 L 249.921875 319.386719 L 248.632813 320.675781 L 247.011719 321.5 L 245.214844 321.785156 L 243.417969 321.5 L 241.796875 320.675781 L 240.511719 319.386719 L 239.683594 317.765625 L 239.398438 315.96875 L 239.683594 314.171875 L 240.511719 312.550781 L 241.796875 311.265625 L 243.417969 310.4375 L 245.214844 310.152344 L 247.011719 310.4375 L 247.285156 310.578125 L 249.289063 315.722656 Z M 250.804688 317.394531 "/>
<path style=" stroke:none;fill-rule:nonzero;fill:rgb(80.392157%,58.431373%,4.705882%);fill-opacity:1;" d="M 192.875 319.847656 L 192.59375 321.644531 L 191.765625 323.265625 L 190.480469 324.550781 L 188.859375 325.375 L 187.0625 325.660156 L 186.328125 325.546875 L 187.28125 323.421875 L 187.71875 320.933594 L 187.855469 317.484375 L 184.742188 320.527344 L 181.761719 322.09375 L 181.246094 319.847656 L 181.53125 318.050781 L 182.355469 316.429688 L 183.644531 315.140625 L 185.265625 314.316406 L 187.0625 314.03125 L 188.859375 314.316406 L 190.480469 315.140625 L 191.765625 316.429688 L 192.59375 318.050781 Z M 192.875 319.847656 "/>
<path style=" stroke:none;fill-rule:nonzero;fill:rgb(80.392157%,58.431373%,4.705882%);fill-opacity:1;" d="M 130.847656 160.890625 L 130.5625 162.6875 L 129.734375 164.308594 L 128.449219 165.597656 L 126.828125 166.421875 L 125.03125 166.707031 L 123.234375 166.421875 L 121.613281 165.597656 L 120.382813 164.367188 L 120.550781 159.835938 L 121.035156 158.421875 L 122.082031 157.9375 L 122.960938 157.902344 L 123.679688 158.9375 L 124.035156 161.566406 L 125.066406 162.535156 L 125.355469 162.453125 L 126.003906 159.773438 L 125.019531 158.757813 L 124.640625 157.636719 L 124.695313 156.6875 L 125.515625 155.699219 L 128.898438 158.675781 L 129.480469 157.21875 L 130.5625 159.09375 Z M 130.847656 160.890625 "/>
<path style=" stroke:none;fill-rule:nonzero;fill:rgb(80.392157%,58.431373%,4.705882%);fill-opacity:1;" d="M 85.121094 185.328125 L 84.183594 185.808594 L 81.714844 185.984375 L 81.515625 184.671875 L 82.046875 176.234375 L 83.4375 175.515625 L 85.28125 176.539063 L 86.578125 178.347656 L 85.882813 178.945313 L 85.144531 178.476563 Z M 83.148438 174.582031 L 84.183594 174.746094 L 85.902344 175.671875 L 84.546875 175.601563 Z M 83.148438 174.582031 "/>
<path style=" stroke:none;fill-rule:nonzero;fill:rgb(80.392157%,58.431373%,4.705882%);fill-opacity:1;" d="M 84.882813 170.804688 L 86.261719 170.585938 L 88.777344 171.234375 L 86.902344 171.355469 L 84.875 171.125 Z M 85.394531 175.835938 L 84.546875 175.601563 L 83.046875 174.507813 L 82.722656 173.699219 L 82.824219 172.589844 L 83.972656 171.789063 L 86.566406 172.507813 L 87.433594 173.25 L 87.285156 175.226563 Z M 85.074219 182.027344 L 82.84375 181.105469 L 81.804688 180.066406 L 82.046875 176.234375 L 83.4375 175.515625 L 85.28125 176.539063 L 86.578125 178.347656 L 85.882813 178.945313 L 85.144531 178.476563 Z M 85.074219 182.027344 "/>
<path style=" stroke:none;fill-rule:nonzero;fill:rgb(80.392157%,58.431373%,4.705882%);fill-opacity:1;" d="M 113.238281 135.667969 L 111.601563 135.40625 L 109.980469 134.582031 L 108.46875 132.851563 L 112.246094 129.429688 L 113.019531 130.191406 L 114.117188 133.539063 Z M 113.238281 135.667969 "/>
</g>
</svg>
