<?xml version="1.0" encoding="UTF-8"?>
<svg xmlns="http://www.w3.org/2000/svg" xmlns:xlink="http://www.w3.org/1999/xlink" width="378pt" height="504pt" viewBox="0 0 378 504" version="1.1">
<g id="data">
<rect x="0" y="0" width="378" height="504" style="fill:rgb(100%,100%,100%);fill-opacity:1;stroke:none;"/>
<path style=" stroke:none;fill-rule:nonzero;fill:rgb(100%,100%,100%);fill-opacity:1;" d="M 53.308594 504 L 324.691406 504 L 324.691406 0 L 53.308594 0 Z M 53.308594 504 "/>
<path style=" stroke:none;fill-rule:nonzero;fill:rgb(22.745098%,53.333333%,16.078431%);fill-opacity:1;" d="M 190.9375 428.398438 L 193.109375 426.691406 L 194.816406 424.523438 L 197.550781 423.132813 L 199.90625 420.976563 L 201.132813 419.179688 L 202.003906 417.1875 L 202.488281 415.066406 L 202.570313 412.890625 L 204.640625 411.875 L 206.46875 410.46875 L 207.984375 408.726563 L 209.125 406.722656 L 210.058594 403.265625 L 209.894531 399.6875 L 208.652344 396.328125 L 206.445313 393.507813 L 210.050781 395.703125 L 214.199219 396.46875 L 218.351563 395.703125 L 221.953125 393.507813 L 223.527344 394.980469 L 225.457031 396.195313 L 227.585938 397.011719 L 229.707031 397.382813 L 227.5625 397.753906 L 225.519531 398.515625 L 222.125 401.007813 L 219.84375 404.542969 L 218.964844 408.660156 L 219.574219 412.699219 L 221.617188 416.378906 L 223.199219 418.050781 L 224.953125 419.328125 L 226.914063 420.257813 L 229.015625 420.808594 L 231.433594 420.949219 L 236.390625 420.464844 L 238.71875 419.769531 L 240.855469 418.601563 L 243.824219 415.625 L 245.824219 411.34375 L 249.09375 409.015625 L 253.265625 408.492188 L 256.980469 406.515625 L 259.261719 404.101563 L 260.722656 401.261719 L 263.625 399.921875 L 266.054688 397.84375 L 267.53125 395.75 L 268.476563 393.507813 L 272.355469 394.171875 L 276.230469 393.507813 L 276.953125 397.539063 L 278.941406 400.972656 L 281.972656 403.535156 L 285.6875 404.933594 L 289.269531 405.054688 L 292.707031 404.082031 L 295.691406 402.109375 L 297.996094 399.210938 L 298.367188 402.128906 L 299.460938 404.859375 L 301.113281 407.132813 L 302.824219 408.5625 L 301.6875 409.757813 L 300.792969 410.152344 L 298.566406 411.875 L 296.847656 414.050781 L 295.578125 412.011719 L 292.742188 410.515625 L 292.480469 410.636719 L 293.589844 413.042969 L 291.703125 411.027344 L 288.949219 409.40625 L 284.429688 407.988281 L 280.976563 408.03125 L 277.804688 409.03125 L 275.042969 410.886719 L 272.855469 413.5625 L 271.519531 416.882813 L 271.257813 420.453125 L 272 423.699219 L 273.96875 427.570313 L 275.898438 429.613281 L 278.378906 431.191406 L 281.175781 432.09375 L 283.832031 432.265625 L 283.441406 432.558594 L 282.84375 432.699219 L 279.644531 432.160156 L 274.75 433.78125 L 272.609375 436.117188 L 274.253906 436.015625 L 275.152344 434.667969 L 276.683594 434.363281 L 278.285156 434.328125 L 281.054688 434.949219 L 281.828125 435.589844 L 281.691406 436.328125 L 279.554688 436.347656 L 277.390625 437.65625 L 277.96875 438.546875 L 281.382813 438.964844 L 286.863281 440.339844 L 289.394531 439.9375 L 289.984375 439.59375 L 290.121094 439.679688 L 292.289063 440.476563 L 294.703125 440.839844 L 297.140625 440.6875 L 299.492188 440.03125 L 299.46875 448.957031 L 299.394531 449.050781 L 296.972656 450.242188 L 295.839844 450.375 L 292.621094 451.640625 L 291.179688 452.742188 L 289.847656 454.226563 L 289.460938 455.09375 L 289.214844 456.324219 L 289.464844 457.886719 L 286.253906 458.289063 L 284.1875 457.9375 L 282.234375 459.785156 L 281.136719 460.015625 L 278.417969 461.371094 L 277.535156 462.148438 L 274.789063 462.777344 L 272.597656 463.816406 L 272.101563 464.484375 L 271.417969 464.78125 L 269.023438 466.726563 L 267.503906 466.269531 L 266.804688 465.617188 L 264.746094 464.371094 L 262.597656 463.601563 L 259.976563 463.191406 L 252.96875 463.292969 L 250.308594 462.976563 L 247.898438 463.222656 L 244.230469 464.675781 L 241.339844 467.167969 L 238.992188 465.222656 L 239.46875 464.933594 L 237.714844 463.296875 L 233.429688 463.210938 L 230.472656 462.652344 L 228.054688 462.746094 L 225.832031 463.292969 L 221.9375 462.621094 L 219.273438 462.929688 L 216.746094 463.839844 L 214.5 465.308594 L 212.570313 467.351563 L 213.25 464.484375 L 213.167969 461.414063 L 212.285156 458.472656 L 210.664063 455.863281 L 208.621094 453.921875 L 206.054688 452.480469 L 203.714844 451.804688 L 199.527344 451.351563 L 196.507813 451.847656 L 193.71875 453.109375 L 191.359375 455.058594 L 189.390625 457.730469 L 188.292969 460.59375 L 187.980469 463.511719 L 188.441406 466.542969 L 189.675781 469.347656 L 187.0625 467.167969 L 185.859375 464.484375 L 184.019531 462.1875 L 181.882813 460.554688 L 179.308594 459.414063 L 179.441406 456.660156 L 178.863281 453.171875 L 177.492188 450.183594 L 175.730469 448.132813 L 180.570313 447.503906 L 180.816406 446.648438 L 182.742188 446.371094 L 185.851563 444.863281 L 189.585938 441.730469 L 191.492188 438.691406 L 192.367188 435.34375 L 192.195313 431.761719 L 191.84375 430.824219 L 195.792969 425.3125 L 197.929688 424.472656 L 198.285156 423.78125 L 198.070313 423.238281 L 197.8125 423.082031 L 196.09375 424.355469 L 192.90625 427.300781 L 191.242188 429.214844 Z M 295.761719 416.441406 L 295.617188 416.769531 L 294.722656 414.914063 Z M 286.632813 437.007813 L 287.101563 437.472656 L 287.960938 438.832031 L 286.679688 439.636719 L 283.058594 438.976563 L 282.164063 437.605469 L 282.484375 436.070313 Z M 237.230469 464.34375 L 236.320313 463.972656 L 236.523438 463.683594 L 237.195313 464.164063 Z M 210.308594 333.035156 L 210.324219 331.476563 L 212.464844 334.0625 Z M 206.089844 474.027344 L 207.699219 473.246094 L 209.523438 471.863281 L 209.910156 471.429688 L 210.1875 472.128906 L 209.566406 473.890625 L 206.84375 474.453125 Z M 194.503906 473.714844 L 195.738281 474.242188 L 195.832031 474.871094 L 196.757813 475.523438 L 196.488281 476.304688 L 195.917969 475.996094 L 194.851563 473.972656 Z M 180.292969 358.703125 L 182.605469 358.914063 L 185.855469 358.273438 L 184.640625 360.042969 L 183.769531 362.007813 L 183.277344 364.097656 L 183.183594 366.371094 L 181.953125 367.554688 L 180.945313 364.859375 L 179.308594 362.492188 L 179.308594 358.957031 L 179.910156 359.441406 Z M 175.429688 288.832031 L 177.601563 287.125 L 178.457031 286.035156 L 178.757813 285.980469 L 180.191406 286.804688 L 180.71875 286.746094 L 181.015625 287.125 L 183.183594 288.832031 L 179.308594 288.164063 Z M 179.046875 285.285156 L 179.308594 284.953125 L 179.597656 285.324219 Z M 177.648438 243.535156 L 178.402344 241.96875 L 179.304688 242.207031 L 179.308594 242.308594 Z M 143.992188 481.875 L 144.414063 482.675781 L 143.722656 482.316406 Z M 143.992188 481.875 "/>
<path style=" stroke:none;fill-rule:nonzero;fill:rgb(80.392157%,58.431373%,4.705882%);fill-opacity:1;" d="M 200.628906 343.109375 L 200.347656 344.90625 L 199.519531 346.527344 L 198.234375 347.8125 L 196.613281 348.636719 L 194.816406 348.921875 L 193.019531 348.636719 L 191.398438 347.8125 L 190.109375 346.527344 L 189.285156 344.90625 L 189 343.109375 L 189.285156 341.3125 L 190.109375 339.691406 L 191.398438 338.402344 L 193.019531 337.578125 L 194.816406 337.292969 L 196.613281 337.578125 L 198.234375 338.402344 L 199.519531 339.691406 L 200.347656 341.3125 Z M 200.628906 343.109375 "/>
<path style=" stroke:none;fill-rule:nonzero;fill:rgb(80.392157%,58.431373%,4.705882%);fill-opacity:1;" d="M 185.125 378 L 184.839844 379.796875 L 184.011719 381.417969 L 182.726563 382.703125 L 181.105469 383.53125 L 179.308594 383.816406 L 177.511719 383.53125 L 175.890625 382.703125 L 174.601563 381.417969 L 173.777344 379.796875 L 173.492188 378 L 173.777344 376.203125 L 174.601563 374.582031 L 175.890625 373.296875 L 177.511719 372.46875 L 179.308594 372.183594 L 181.105469 372.46875 L 182.726563 373.296875 L 184.011719 374.582031 L 184.839844 376.203125 Z M 185.125 378 "/>
<path style=" stroke:none;fill-rule:nonzero;fill:rgb(80.392157%,58.431373%,4.705882%);fill-opacity:1;" d="M 231.644531 350.863281 L 231.363281 352.660156 L 230.535156 354.28125 L 229.25 355.566406 L 227.628906 356.390625 L 225.832031 356.675781 L 224.035156 356.390625 L 222.414063 355.566406 L 221.125 354.28125 L 220.300781 352.660156 L 220.015625 350.863281 L 220.300781 349.066406 L 221.125 347.441406 L 222.414063 346.15625 L 224.035156 345.332031 L 225.832031 345.046875 L 227.628906 345.332031 L 229.25 346.15625 L 230.535156 347.441406 L 231.363281 349.066406 Z M 231.644531 350.863281 "/>
<path style=" stroke:none;fill-rule:nonzero;fill:rgb(80.392157%,58.431373%,4.705882%);fill-opacity:1;" d="M 243.277344 366.371094 L 242.992188 368.167969 L 242.167969 369.789063 L 240.878906 371.074219 L 239.257813 371.898438 L 237.460938 372.183594 L 235.664063 371.898438 L 234.042969 371.074219 L 232.757813 369.789063 L 231.929688 368.167969 L 231.644531 366.371094 L 231.929688 364.570313 L 232.757813 362.949219 L 234.042969 361.664063 L 235.664063 360.839844 L 237.460938 360.554688 L 239.257813 360.839844 L 240.878906 361.664063 L 242.167969 362.949219 L 242.992188 364.570313 Z M 243.277344 366.371094 "/>
<path style=" stroke:none;fill-rule:nonzero;fill:rgb(80.392157%,58.431373%,4.705882%);fill-opacity:1;" d="M 235.523438 358.617188 L 235.238281 360.414063 L 234.414063 362.035156 L 233.125 363.320313 L 231.503906 364.144531 L 229.707031 364.429688 L 227.910156 364.144531 L 226.289063 363.320313 L 225.003906 362.035156 L 224.175781 360.414063 L 223.890625 358.617188 L 224.175781 356.816406 L 225.003906 355.195313 L 226.289063 353.910156 L 227.910156 353.085938 L 229.707031 352.800781 L 231.503906 353.085938 L 233.125 353.910156 L 234.414063 355.195313 L 235.238281 356.816406 Z M 235.523438 358.617188 "/>
<path style=" stroke:none;fill-rule:nonzero;fill:rgb(80.392157%,58.431373%,4.705882%);fill-opacity:1;" d="M 258.785156 350.863281 L 258.5 352.660156 L 257.675781 354.28125 L 256.386719 355.566406 L 254.765625 356.390625 L 252.96875 356.675781 L 251.171875 356.390625 L 249.550781 355.566406 L 248.265625 354.28125 L 247.4375 352.660156 L 247.152344 350.863281 L 247.4375 349.066406 L 248.265625 347.441406 L 249.550781 346.15625 L 251.171875 345.332031 L 252.96875 345.046875 L 254.765625 345.332031 L 256.386719 346.15625 L 257.675781 347.441406 L 258.5 349.066406 Z M 258.785156 350.863281 "/>
<path style=" stroke:none;fill-rule:nonzero;fill:rgb(80.392157%,58.431373%,4.705882%);fill-opacity:1;" d="M 150.230469 471.046875 L 149.945313 472.84375 L 149.121094 474.464844 L 147.832031 475.75 L 146.210938 476.578125 L 144.414063 476.863281 L 142.617188 476.578125 L 140.996094 475.75 L 139.710938 474.464844 L 138.882813 472.84375 L 138.601563 471.046875 L 138.882813 469.25 L 139.710938 467.628906 L 140.996094 466.339844 L 142.617188 465.515625 L 144.414063 465.230469 L 146.210938 465.515625 L 147.832031 466.339844 L 149.121094 467.628906 L 149.945313 469.25 Z M 150.230469 471.046875 "/>
<path style=" stroke:none;fill-rule:nonzero;fill:rgb(80.392157%,58.431373%,4.705882%);fill-opacity:1;" d="M 305.308594 393.507813 L 305.023438 395.304688 L 304.195313 396.925781 L 302.910156 398.210938 L 301.289063 399.039063 L 299.492188 399.324219 L 297.695313 399.039063 L 296.074219 398.210938 L 294.789063 396.925781 L 293.960938 395.304688 L 293.675781 393.507813 L 293.960938 391.710938 L 294.789063 390.089844 L 296.074219 388.804688 L 297.695313 387.976563 L 299.492188 387.691406 L 301.289063 387.976563 L 302.910156 388.804688 L 304.195313 390.089844 L 305.023438 391.710938 Z M 305.308594 393.507813 "/>
<path style=" stroke:none;fill-rule:nonzero;fill:rgb(80.392157%,58.431373%,4.705882%);fill-opacity:1;" d="M 146.355469 157.015625 L 146.070313 158.8125 L 145.242188 160.433594 L 143.957031 161.71875 L 142.335938 162.546875 L 140.539063 162.832031 L 138.742188 162.546875 L 137.121094 161.71875 L 135.832031 160.433594 L 135.007813 158.8125 L 134.773438 157.332031 L 136.507813 158.589844 L 137.039063 159.417969 L 137.175781 158.679688 L 135.105469 155.027344 L 135.832031 153.597656 L 137.121094 152.3125 L 138.742188 151.484375 L 140.539063 151.199219 L 142.335938 151.484375 L 143.957031 152.3125 L 145.242188 153.597656 L 146.070313 155.21875 Z M 146.355469 157.015625 "/>
<path style=" stroke:none;fill-rule:nonzero;fill:rgb(80.392157%,58.431373%,4.705882%);fill-opacity:1;" d="M 196.753906 354.738281 L 196.46875 356.535156 L 195.644531 358.15625 L 194.355469 359.441406 L 192.734375 360.269531 L 190.9375 360.554688 L 189.140625 360.269531 L 187.519531 359.441406 L 186.078125 357.855469 L 188.359375 357.621094 L 190.335938 355.148438 L 189.90625 355.050781 L 188.667969 355.527344 L 188.3125 355.957031 L 186.378906 356.386719 L 185.265625 355.632813 L 185.125 354.738281 L 185.40625 352.941406 L 186.234375 351.320313 L 187.519531 350.035156 L 189.140625 349.207031 L 190.9375 348.921875 L 192.734375 349.207031 L 194.355469 350.035156 L 195.644531 351.320313 L 196.46875 352.941406 Z M 196.753906 354.738281 "/>
<path style=" stroke:none;fill-rule:nonzero;fill:rgb(80.392157%,58.431373%,4.705882%);fill-opacity:1;" d="M 266.539063 378 L 266.253906 379.796875 L 265.429688 381.417969 L 264.140625 382.703125 L 262.519531 383.53125 L 260.722656 383.816406 L 258.925781 383.53125 L 257.304688 382.703125 L 256.019531 381.417969 L 255.191406 379.796875 L 254.90625 378 L 255.191406 376.203125 L 256.019531 374.582031 L 257.304688 373.296875 L 258.925781 372.46875 L 260.722656 372.183594 L 262.066406 372.398438 L 260.601563 374.816406 L 262.84375 374.3125 L 264.9375 375.519531 Z M 266.539063 378 "/>
<path style=" stroke:none;fill-rule:nonzero;fill:rgb(80.392157%,58.431373%,4.705882%);fill-opacity:1;" d="M 254.90625 339.230469 L 254.769531 340.105469 L 253.664063 338.65625 L 252.601563 338.082031 L 245.550781 339.511719 L 244.589844 338.644531 L 243.378906 338.574219 L 243.5625 337.433594 L 244.386719 335.8125 L 245.675781 334.527344 L 247.296875 333.699219 L 249.09375 333.414063 L 250.890625 333.699219 L 252.511719 334.527344 L 253.796875 335.8125 L 254.625 337.433594 Z M 254.070313 342.109375 L 252.511719 343.933594 L 250.890625 344.761719 L 249.09375 345.046875 L 247.296875 344.761719 L 245.675781 343.933594 L 244.386719 342.648438 L 243.464844 340.425781 L 246.324219 340.394531 L 249.617188 339.34375 L 251.976563 339.082031 Z M 254.070313 342.109375 "/>
<path style=" stroke:none;fill-rule:nonzero;fill:rgb(80.392157%,58.431373%,4.705882%);fill-opacity:1;" d="M 126.96875 486.554688 L 126.683594 488.351563 L 125.792969 490.039063 L 124.039063 490.597656 L 123.777344 491.664063 L 122.949219 492.085938 L 121.152344 492.371094 L 119.355469 492.085938 L 117.734375 491.257813 L 116.449219 489.972656 L 115.53125 487.765625 L 121.425781 483.085938 L 123.164063 481.132813 L 124.570313 481.847656 L 125.859375 483.136719 L 126.683594 484.757813 Z M 126.96875 486.554688 "/>
<path style=" stroke:none;fill-rule:nonzero;fill:rgb(80.392157%,58.431373%,4.705882%);fill-opacity:1;" d="M 173.492188 436.152344 L 173.207031 437.949219 L 172.382813 439.570313 L 172.074219 439.878906 L 170.558594 439.851563 L 166.820313 439 L 162.199219 434.253906 L 162.972656 432.734375 L 164.257813 431.449219 L 165.878906 430.625 L 167.675781 430.339844 L 169.472656 430.625 L 171.09375 431.449219 L 172.382813 432.734375 L 173.207031 434.355469 Z M 173.492188 436.152344 "/>
<path style=" stroke:none;fill-rule:nonzero;fill:rgb(80.392157%,58.431373%,4.705882%);fill-opacity:1;" d="M 210.738281 253.894531 L 209.863281 254.765625 L 208.242188 255.59375 L 206.445313 255.875 L 204.648438 255.59375 L 203.027344 254.765625 L 201.742188 253.480469 L 200.914063 251.859375 L 200.628906 250.0625 L 200.914063 248.265625 L 201.742188 246.644531 L 203.582031 245.074219 L 206.488281 246.65625 L 208.910156 251.429688 Z M 210.738281 253.894531 "/>
<path style=" stroke:none;fill-rule:nonzero;fill:rgb(80.392157%,58.431373%,4.705882%);fill-opacity:1;" d="M 150.230469 261.691406 L 149.945313 263.488281 L 149.121094 265.109375 L 147.832031 266.398438 L 146.210938 267.222656 L 144.414063 267.507813 L 142.617188 267.222656 L 140.453125 265.851563 L 140.917969 265.085938 L 143.644531 263.800781 L 144.390625 261.886719 L 144.195313 260.621094 L 142.601563 256.71875 L 142.136719 256.40625 L 142.617188 256.160156 L 144.414063 255.875 L 146.210938 256.160156 L 147.832031 256.988281 L 149.121094 258.273438 L 149.945313 259.894531 Z M 150.230469 261.691406 "/>
<path style=" stroke:none;fill-rule:nonzero;fill:rgb(80.392157%,58.431373%,4.705882%);fill-opacity:1;" d="M 124.636719 490.40625 L 123.375 488.351563 L 123.09375 486.554688 L 123.375 484.757813 L 124.203125 483.136719 L 125.488281 481.847656 L 127.109375 481.023438 L 128.90625 480.738281 L 130.703125 481.023438 L 132.324219 481.847656 L 133.613281 483.136719 L 134.246094 484.378906 L 132.167969 484.859375 L 129.414063 488.195313 L 126.714844 489.746094 Z M 124.636719 490.40625 "/>
<path style=" stroke:none;fill-rule:nonzero;fill:rgb(80.392157%,58.431373%,4.705882%);fill-opacity:1;" d="M 238.546875 303.375 L 237.003906 305.167969 L 235.382813 305.992188 L 233.585938 306.277344 L 231.789063 305.992188 L 230.167969 305.167969 L 228.878906 303.878906 L 228.054688 302.257813 L 227.769531 300.460938 L 228.054688 298.664063 L 228.46875 297.851563 L 229.304688 299.0625 Z M 238.546875 303.375 "/>
<path style=" stroke:none;fill-rule:nonzero;fill:rgb(80.392157%,58.431373%,4.705882%);fill-opacity:1;" d="M 111.460938 490.429688 L 111.199219 492.085938 L 110.375 492.488281 L 110.261719 493.941406 L 109.0625 495.136719 L 106.824219 495.664063 L 105.398438 494.824219 L 105.628906 491.574219 L 106.074219 490.5625 L 111.046875 488.378906 Z M 111.460938 490.429688 "/>
<path style=" stroke:none;fill-rule:nonzero;fill:rgb(80.392157%,58.431373%,4.705882%);fill-opacity:1;" d="M 113.875 192.011719 L 114.945313 193.773438 L 114.023438 194.042969 L 113.570313 192.609375 Z M 110.160156 200.433594 L 108.972656 199.578125 L 108.9375 198.890625 L 110.578125 197.179688 L 111.398438 197.769531 L 111.5 198.265625 L 111.128906 199.855469 Z M 103.890625 194.621094 L 104.144531 193.6875 L 105.34375 192.390625 L 106.722656 192.214844 L 107.992188 192.835938 L 108.445313 193.703125 L 108.09375 196.351563 L 107.546875 197.015625 L 106.597656 197.398438 L 105.582031 196.804688 Z M 103.890625 194.621094 "/>
</g>
</svg>
