<?xml version="1.0" encoding="UTF-8"?>
<svg xmlns="http://www.w3.org/2000/svg" xmlns:xlink="http://www.w3.org/1999/xlink" width="378pt" height="504pt" viewBox="0 0 378 504" version="1.1">
<g id="data">
<rect x="0" y="0" width="378" height="504" style="fill:rgb(100%,100%,100%);fill-opacity:1;stroke:none;"/>
<path style=" stroke:none;fill-rule:nonzero;fill:rgb(100%,100%,100%);fill-opacity:1;" d="M 53.308594 504 L 324.691406 504 L 324.691406 0 L 53.308594 0 Z M 53.308594 504 "/>
<path style=" stroke:none;fill-rule:nonzero;fill:rgb(22.745098%,53.333333%,16.078431%);fill-opacity:1;" d="M 210.324219 331.476563 L 213.675781 329.628906 L 216.175781 326.902344 L 217.695313 323.527344 L 218.078125 319.847656 L 220.5625 319.367188 L 222.886719 318.359375 L 225.832031 315.96875 L 229.519531 314.222656 L 232 311.824219 L 233.433594 309.402344 L 234.257813 306.578125 L 234.363281 303.765625 L 233.804688 301.160156 L 233.941406 301.226563 L 235.546875 303.957031 L 238.296875 306.40625 L 241.550781 307.839844 L 245.214844 308.214844 L 243.742188 309.789063 L 242.527344 311.71875 L 241.710938 313.847656 L 241.339844 315.96875 L 238.730469 318.246094 L 236.960938 321.066406 L 236.019531 324.660156 L 236.230469 328.242188 L 238.371094 333.453125 L 239.632813 335.226563 L 241.207031 336.730469 L 243.488281 338.144531 L 246.035156 339 L 247.476563 339.121094 L 245.550781 339.511719 L 244.589844 338.644531 L 243.40625 338.558594 L 241.210938 339.871094 L 241.886719 340.445313 L 246.324219 340.394531 L 249.617188 339.34375 L 249.832031 339.320313 L 250.589844 339.386719 L 252.117188 339.285156 L 254.382813 342.558594 L 260.535156 347.621094 L 261.789063 348.339844 L 262.429688 349.15625 L 264.601563 350.863281 L 262.253906 352.75 L 259.773438 355.953125 L 258.527344 358.34375 L 257.882813 360.828125 L 257.785156 363.261719 L 258.238281 365.789063 L 259.234375 368.15625 L 260.722656 370.246094 L 260.058594 374.125 L 260.722656 378 L 257.121094 375.804688 L 252.96875 375.039063 L 248.820313 375.804688 L 245.214844 378 L 245.035156 375.191406 L 244.183594 372.511719 L 242.714844 370.113281 L 240.714844 368.136719 L 238.527344 366.804688 L 234.375 365.136719 L 231.453125 364.8125 L 228.667969 365.199219 L 224.648438 366.859375 L 222.476563 368.214844 L 220.421875 370.316406 L 218.953125 372.863281 L 218.234375 375.320313 L 217.414063 381.75 L 217.636719 384.15625 L 218.851563 389.078125 L 220.558594 392.035156 L 223.625 395.058594 L 226.5 396.65625 L 229.707031 397.382813 L 229.1875 400.417969 L 229.480469 403.484375 L 230.570313 406.363281 L 232.375 408.855469 L 234.335938 410.511719 L 236.496094 411.648438 L 238.84375 412.3125 L 241.277344 412.46875 L 243.441406 412.179688 L 245.515625 411.488281 L 247.417969 410.417969 L 249.09375 409.015625 L 251.648438 408.878906 L 254.226563 408.136719 L 256.253906 407.046875 L 258.117188 405.480469 L 259.679688 403.457031 L 260.722656 401.261719 L 263.398438 398.90625 L 265.234375 395.851563 L 266.089844 391.742188 L 265.4375 387.601563 L 267.746094 390.5 L 270.96875 392.578125 L 273.671875 393.371094 L 280.660156 394.167969 L 282.949219 393.832031 L 285.125 393.050781 L 287.105469 391.855469 L 288.808594 390.289063 L 290.167969 388.417969 L 291.089844 386.433594 L 291.640625 384.1875 L 291.738281 381.875 L 294.09375 384.023438 L 296.941406 385.453125 L 300.199219 386.058594 L 303.371094 385.753906 L 301.519531 387.835938 L 300.265625 390.183594 L 299.492188 393.507813 L 298.351563 396.367188 L 297.996094 399.167969 L 298.359375 402.09375 L 299.386719 404.726563 L 301.105469 407.125 L 302.824219 408.5625 L 301.6875 409.757813 L 300.792969 410.152344 L 298.566406 411.875 L 296.855469 414.0625 L 295.578125 412.011719 L 292.742188 410.515625 L 292.480469 410.636719 L 293.898438 413.703125 L 295.761719 416.4375 L 295.617188 416.769531 L 293.304688 416.867188 L 291.058594 417.417969 L 288.964844 418.402344 L 287.011719 419.871094 L 286.136719 420.867188 L 284.976563 421.730469 L 280.71875 424.230469 L 282.339844 425.378906 L 283.921875 424.820313 L 283.660156 425.558594 L 283.332031 427.71875 L 283.539063 430.664063 L 284.007813 432.136719 L 283.441406 432.558594 L 282.84375 432.699219 L 279.644531 432.160156 L 274.75 433.78125 L 272.609375 436.117188 L 274.253906 436.015625 L 275.152344 434.667969 L 276.683594 434.363281 L 278.285156 434.328125 L 281.054688 434.949219 L 281.828125 435.589844 L 281.691406 436.328125 L 279.554688 436.347656 L 277.390625 437.65625 L 277.96875 438.546875 L 281.382813 438.964844 L 286.863281 440.339844 L 289.394531 439.9375 L 290.039063 439.558594 L 290.707031 439.945313 L 293.550781 440.730469 L 296.503906 440.777344 L 299.492188 440.03125 L 299.492188 447.785156 L 297.214844 447.476563 L 294.921875 447.621094 L 292.703125 448.214844 L 290.644531 449.234375 L 288.640625 450.816406 L 285.871094 453.957031 L 284.582031 456.566406 L 284.292969 457.953125 L 284.1875 457.9375 L 282.308594 459.710938 L 281.863281 459.789063 L 279.734375 460.605469 L 277.804688 461.820313 L 277.425781 462.175781 L 274.789063 462.777344 L 272.597656 463.816406 L 272.097656 464.492188 L 271.308594 464.84375 L 269.015625 466.726563 L 267.472656 466.257813 L 266.601563 465.46875 L 264.398438 464.214844 L 262.105469 463.488281 L 259.222656 463.136719 L 252.96875 463.292969 L 250.179688 462.976563 L 247.773438 463.25 L 244.230469 464.675781 L 241.339844 467.167969 L 239.1875 466.800781 L 238.210938 466.1875 L 238.632813 465.4375 L 239.46875 464.933594 L 237.714844 463.296875 L 231.496094 463.171875 L 231.378906 463.496094 L 232.574219 464.835938 L 232.214844 465.75 L 231.738281 466.042969 L 230.027344 465.859375 L 229.871094 465.804688 L 229.464844 465.796875 L 226.691406 465.496094 L 226.058594 465.761719 L 225.917969 465.757813 L 221.953125 467.167969 L 218.148438 467.585938 L 217.386719 467.90625 L 217.054688 467.824219 L 210.222656 468.96875 L 208.164063 468.875 L 207.273438 468.058594 L 206.238281 469.769531 L 209.429688 471.089844 L 209.714844 470.9375 L 210.1875 472.128906 L 209.566406 473.890625 L 206.84375 474.453125 L 204.453125 473.097656 L 203.015625 472.699219 L 197.625 472.007813 L 196.175781 472.65625 L 195.679688 473.863281 L 195.832031 474.871094 L 196.757813 475.523438 L 196.488281 476.304688 L 195.917969 475.996094 L 194.851563 473.972656 L 190.289063 470.589844 L 185.898438 468.519531 L 183.121094 467.984375 L 181.648438 469.066406 L 176.207031 469.78125 L 174.339844 470.335938 L 173.308594 470.894531 L 170.796875 471.132813 L 166.964844 472.410156 L 163.800781 474.921875 L 157.75 475.003906 L 153.972656 476.175781 L 152.035156 477.421875 L 150.464844 478.929688 L 149.203125 480.699219 L 148.355469 482.542969 L 146.570313 482.675781 L 140.539063 482.675781 L 137.367188 482.371094 L 133.273438 483.300781 L 130.949219 484.628906 L 127.382813 487.660156 L 125.207031 490.226563 L 124.558594 490.429688 L 121.152344 490.429688 L 118.316406 491.601563 L 115.402344 491.988281 L 112.359375 491.601563 L 109.523438 490.429688 L 113.203125 490.050781 L 116.6875 488.460938 L 119.386719 485.929688 L 120.496094 483.886719 L 121.425781 483.085938 L 121.628906 482.855469 L 124.738281 484.019531 L 128.441406 484.140625 L 130.683594 483.625 L 132.785156 482.675781 L 136.453125 482.082031 L 139.847656 480.285156 L 142.023438 478.109375 L 143.554688 475.4375 L 144.210938 473.21875 L 144.414063 471.046875 L 145.585938 468.0625 L 145.90625 465.644531 L 145.578125 462.582031 L 144.519531 459.828125 L 142.804688 457.429688 L 140.539063 455.539063 L 142.519531 455.121094 L 144.269531 456.015625 L 145.761719 455.429688 L 148.429688 452.488281 L 148.378906 451.695313 L 150.28125 450.128906 L 152.167969 447.785156 L 154.925781 448.402344 L 157.625 448.351563 L 160.355469 447.636719 L 162.738281 446.335938 L 164.597656 446.761719 L 166.046875 446.148438 L 167.527344 446.515625 L 169.484375 447.285156 L 170.039063 448.109375 L 170.757813 448.421875 L 173.15625 448.464844 L 180.570313 447.503906 L 181.109375 445.632813 L 181.210938 443.15625 L 182.519531 440.25 L 190.867188 432.195313 L 195.792969 425.3125 L 197.929688 424.472656 L 198.285156 423.78125 L 198.070313 423.238281 L 197.8125 423.082031 L 196.09375 424.355469 L 192.90625 427.300781 L 190.570313 429.988281 L 189.222656 431.449219 L 185.628906 432.957031 L 183.714844 433.246094 L 182.441406 433.0625 L 182.117188 433.234375 L 183.183594 432.277344 L 186.035156 431.679688 L 188.644531 430.390625 L 190.503906 428.863281 L 192.816406 426.132813 L 193.984375 423.707031 L 194.546875 421.207031 L 194.550781 418.644531 L 193.992188 416.140625 L 192.902344 413.824219 L 191.328125 411.800781 L 189.347656 410.171875 L 187.0625 409.015625 L 190.996094 409.261719 L 194.789063 408.183594 L 197.730469 406.164063 L 200.953125 402.414063 L 202.160156 399.628906 L 203.019531 395.257813 L 203.019531 392.578125 L 202.359375 389.847656 L 204.773438 386.808594 L 206.042969 383.324219 L 206.234375 380.515625 L 205.703125 377.617188 L 203.722656 373.898438 L 200.542969 371.132813 L 196.019531 369.347656 L 193.851563 369.113281 L 191.679688 369.285156 L 189.578125 369.859375 L 187.617188 370.816406 L 184.476563 373.628906 L 183.3125 375.46875 L 182.511719 377.496094 L 182.089844 381.691406 L 180.921875 379.757813 L 179.308594 378 L 179.871094 375.648438 L 179.9375 373.230469 L 179.308594 370.246094 L 179.101563 367.316406 L 178.28125 364.765625 L 177.125 362.777344 L 175.597656 361.054688 L 173.765625 359.664063 L 171.574219 358.621094 L 175.695313 359.277344 L 178.960938 358.679688 L 179.910156 359.441406 L 180.300781 358.683594 L 183.117188 358.875 L 185.855469 358.273438 L 186.917969 357.769531 L 188.359375 357.621094 L 189.613281 356.050781 L 189.882813 355.851563 L 192.523438 353.136719 L 193.996094 350.808594 L 195.160156 353.800781 L 197.101563 356.359375 L 199.664063 358.289063 L 202.660156 359.445313 L 205.984375 359.730469 L 208.144531 359.398438 L 210.324219 358.617188 L 212.472656 358.917969 L 214.765625 358.796875 L 217.351563 358.089844 L 219.703125 356.8125 L 222.605469 353.945313 L 224.375 350.546875 L 224.941406 346.632813 L 224.207031 342.871094 L 222.449219 339.753906 L 219.832031 337.316406 L 217.203125 335.988281 L 214.199219 335.355469 L 211.949219 333.761719 L 209.382813 332.746094 Z M 286.6875 437.019531 L 287.03125 437.359375 L 287.960938 438.832031 L 286.679688 439.636719 L 283.058594 438.976563 L 282.164063 437.605469 L 282.484375 436.070313 Z M 167.457031 439.144531 L 167.472656 439.101563 L 167.675781 436.152344 L 174.308594 436.289063 L 178.234375 435.484375 L 177.398438 436.808594 L 177.039063 438.671875 L 176.445313 439.273438 L 174.058594 439.917969 L 170.558594 439.851563 Z M 221.953125 284.953125 L 221.953125 288.832031 L 218.078125 288.832031 L 220.53125 285.769531 L 221.828125 282.066406 Z M 174.496094 231.335938 L 176.699219 233.25 L 179.308594 234.554688 L 180.078125 236.597656 L 180.390625 237.105469 L 174.761719 240.109375 L 171.277344 238.585938 L 172.34375 237.445313 L 173.855469 234.542969 Z M 185.726563 242.011719 L 186.996094 242.578125 L 189.640625 243.09375 L 192.335938 242.984375 L 194.816406 242.308594 L 196.582031 245.558594 L 199.28125 248.089844 L 202.765625 249.679688 L 206.445313 250.0625 L 206.789063 253.601563 L 208.253906 256.980469 L 206.039063 256.4375 L 203.890625 256.332031 L 201.144531 256.785156 L 198.691406 257.816406 L 194.816406 257.148438 L 190.9375 257.816406 L 190.679688 254.617188 L 189.617188 251.726563 L 187.746094 249.121094 L 185.34375 247.191406 L 183.378906 246.242188 L 181.140625 245.65625 L 178.316406 245.554688 L 175.429688 246.183594 L 172.570313 245.042969 L 169.386719 244.695313 L 166.59375 245.121094 L 163.988281 246.203125 L 161.71875 247.882813 L 159.921875 250.0625 L 157.570313 249.496094 L 155.027344 249.441406 L 152.53125 249.941406 L 150.199219 250.96875 L 148.148438 252.480469 L 146.472656 254.402344 L 145.257813 256.644531 L 144.558594 259.09375 L 144.414063 253.9375 L 146.5625 251.585938 L 147.992188 248.734375 L 148.597656 245.480469 L 148.292969 242.308594 L 151.253906 243.511719 L 154.429688 243.863281 L 157.335938 243.410156 L 159.921875 242.308594 L 163.605469 242.582031 L 167.070313 241.734375 L 169.34375 240.382813 L 178.0625 241.875 L 182.921875 243.167969 Z M 194.816406 335.355469 L 197.546875 336.460938 L 195.445313 340.117188 L 195.378906 337.703125 Z M 170.1875 283.332031 L 171.925781 284.238281 L 170.730469 284.140625 Z M 177.558594 285.183594 L 179.308594 284.953125 L 179.597656 285.324219 Z M 180.71875 286.746094 L 181.015625 287.125 L 183.183594 288.832031 L 180.882813 289.0625 L 178.792969 289.691406 L 176.75 290.773438 L 174.960938 292.238281 L 173.496094 294.027344 L 172.414063 296.070313 L 171.785156 298.160156 L 171.554688 300.460938 L 168.722656 300.460938 L 169.089844 299.292969 L 169.554688 298.910156 L 171.070313 297 L 172.152344 294.816406 L 172.753906 292.457031 L 172.796875 291.40625 L 174.074219 288.722656 L 176.464844 286.417969 L 178.757813 285.980469 L 180.191406 286.804688 Z M 167.722656 357.53125 L 168.625 357.988281 L 166.117188 358.054688 L 163.800781 358.617188 L 160.765625 357.441406 L 163.644531 357.28125 L 167.339844 357.714844 Z M 236.835938 466.113281 L 235.136719 465.644531 L 236.523438 463.683594 L 237.195313 464.164063 L 237.5 465.839844 Z M 236.835938 466.113281 "/>
</g>
</svg>
