<?xml version="1.0" encoding="UTF-8"?>
<svg xmlns="http://www.w3.org/2000/svg" xmlns:xlink="http://www.w3.org/1999/xlink" width="378pt" height="504pt" viewBox="0 0 378 504" version="1.1">
<g id="data">
<rect x="0" y="0" width="378" height="504" style="fill:rgb(100%,100%,100%);fill-opacity:1;stroke:none;"/>
<path style=" stroke:none;fill-rule:nonzero;fill:rgb(100%,100%,100%);fill-opacity:1;" d="M 53.308594 504 L 324.691406 504 L 324.691406 0 L 53.308594 0 Z M 53.308594 504 "/>
<path style=" stroke:none;fill-rule:nonzero;fill:rgb(22.745098%,53.333333%,16.078431%);fill-opacity:1;" d="M 185.503906 430.464844 L 185.128906 428.667969 L 185.335938 426.847656 L 186.097656 425.175781 L 187.34375 423.828125 L 188.96875 422.550781 L 190.246094 420.929688 L 192.179688 419.339844 L 194.210938 418.308594 L 195.484375 417.140625 L 196.023438 416.355469 L 196.457031 415.359375 L 196.699219 414.304688 L 196.757813 412.675781 L 197.203125 410.648438 L 198.332031 408.90625 L 200.003906 407.675781 L 201.554688 406.910156 L 202.464844 406.210938 L 203.214844 405.34375 L 203.703125 404.488281 L 204.207031 402.625 L 204.128906 400.855469 L 203.511719 399.199219 L 201.867188 397.089844 L 200.992188 395.527344 L 200.636719 393.773438 L 200.832031 391.992188 L 201.558594 390.355469 L 202.75 389.019531 L 204.289063 388.105469 L 206.035156 387.707031 L 207.816406 387.855469 L 209.472656 388.542969 L 212.160156 390.179688 L 214.199219 390.554688 L 216.238281 390.179688 L 218.925781 388.542969 L 220.664063 387.835938 L 222.535156 387.722656 L 224.34375 388.207031 L 225.90625 389.242188 L 227.171875 390.414063 L 228.054688 390.964844 L 229.144531 391.378906 L 230.71875 391.65625 L 232.371094 392.214844 L 233.78125 393.234375 L 234.828125 394.628906 L 235.414063 396.273438 L 235.488281 398.015625 L 235.042969 399.699219 L 234.117188 401.179688 L 232.792969 402.3125 L 231.191406 403.007813 L 228.15625 403.808594 L 226.472656 405.015625 L 225.1875 406.960938 L 224.9375 407.746094 L 224.835938 408.5625 L 225.199219 410.886719 L 226.335938 412.902344 L 227.054688 413.667969 L 227.9375 414.308594 L 228.914063 414.769531 L 229.929688 415.035156 L 231.320313 415.117188 L 235.265625 414.730469 L 236.46875 414.371094 L 237.332031 413.902344 L 238.988281 412.242188 L 240.554688 408.886719 L 241.351563 407.625 L 242.449219 406.609375 L 245.71875 404.277344 L 246.976563 403.597656 L 248.367188 403.246094 L 251.480469 402.855469 L 253.421875 401.820313 L 254.410156 400.785156 L 255.570313 398.570313 L 256.714844 397.050781 L 258.285156 395.980469 L 260.457031 394.980469 L 261.734375 393.886719 L 262.371094 392.992188 L 263.132813 391.21875 L 264.175781 389.589844 L 265.699219 388.398438 L 267.527344 387.769531 L 269.460938 387.777344 L 272.355469 388.273438 L 275.246094 387.777344 L 277.066406 387.753906 L 278.800781 388.292969 L 280.285156 389.339844 L 281.375 390.792969 L 281.960938 392.515625 L 282.464844 395.433594 L 283.429688 397.136719 L 284.894531 398.40625 L 286.855469 399.152344 L 288.558594 399.210938 L 290.257813 398.730469 L 291.714844 397.765625 L 293.449219 395.589844 L 294.890625 394.296875 L 296.675781 393.546875 L 298.609375 393.429688 L 300.476563 393.953125 L 302.066406 395.058594 L 303.203125 396.625 L 303.765625 398.476563 L 304.042969 400.660156 L 304.589844 402.027344 L 304.695313 402.171875 L 303.519531 407.832031 L 297.144531 414.53125 L 295.578125 412.011719 L 292.742188 410.515625 L 292.480469 410.636719 L 293.898438 413.703125 L 295.890625 416.628906 L 296.3125 416.765625 L 296.164063 417.742188 L 294.574219 419.804688 L 292.191406 421.289063 L 292.097656 421.304688 L 291.453125 420.832031 L 290.375 419.292969 L 289.210938 416.871094 L 288.03125 415.613281 L 286.574219 414.753906 L 283.578125 413.816406 L 281.90625 413.835938 L 280.367188 414.320313 L 278.929688 415.300781 L 277.925781 416.542969 L 277.253906 418.210938 L 277.121094 420.007813 L 277.507813 421.703125 L 278.761719 424.171875 L 279.703125 425.15625 L 280.859375 425.878906 L 282.277344 426.339844 L 284.359375 426.472656 L 285.96875 426.8125 L 287.421875 427.585938 L 287.566406 427.726563 L 287.632813 428.84375 L 285.6875 430.875 L 283.441406 432.558594 L 282.84375 432.699219 L 279.644531 432.160156 L 274.75 433.78125 L 272.609375 436.117188 L 274.253906 436.015625 L 275.152344 434.667969 L 276.683594 434.363281 L 278.285156 434.328125 L 281.054688 434.949219 L 281.828125 435.589844 L 281.691406 436.328125 L 279.554688 436.347656 L 277.390625 437.65625 L 277.96875 438.546875 L 281.382813 438.964844 L 286.863281 440.339844 L 289.394531 439.9375 L 291.074219 438.957031 L 299.742188 437.757813 L 300.988281 440.148438 L 300.773438 446.324219 L 300.335938 447.820313 L 299.394531 449.050781 L 296.972656 450.242188 L 295.839844 450.375 L 292.621094 451.640625 L 291.179688 452.742188 L 289.847656 454.226563 L 289.460938 455.09375 L 289.214844 456.324219 L 289.464844 457.886719 L 286.253906 458.289063 L 284.1875 457.9375 L 281.042969 460.90625 L 278.484375 461.933594 L 274.789063 462.777344 L 272.597656 463.816406 L 270.539063 466.589844 L 269.761719 466.949219 L 259.269531 463.777344 L 256.070313 463.507813 L 244.628906 465.699219 L 242.703125 466.390625 L 242.113281 466.964844 L 241.902344 467.984375 L 241.359375 468.164063 L 238.210938 466.1875 L 238.632813 465.4375 L 239.46875 464.933594 L 237.714844 463.296875 L 231.496094 463.171875 L 231.378906 463.496094 L 232.574219 464.835938 L 232.214844 465.75 L 231.738281 466.042969 L 226.691406 465.496094 L 219.566406 468.449219 L 217.054688 467.824219 L 210.222656 468.96875 L 208.164063 468.875 L 207.273438 468.058594 L 206.238281 469.769531 L 209.429688 471.089844 L 209.714844 470.9375 L 210.1875 472.128906 L 209.566406 473.890625 L 206.84375 474.453125 L 204.453125 473.097656 L 203.015625 472.699219 L 197.625 472.007813 L 196.175781 472.65625 L 195.679688 473.863281 L 195.832031 474.871094 L 196.757813 475.523438 L 196.488281 476.304688 L 195.917969 475.996094 L 194.851563 473.972656 L 190.289063 470.589844 L 185.898438 468.519531 L 183.121094 467.984375 L 181.648438 469.066406 L 181.546875 469.082031 L 180.855469 467.539063 L 179.933594 466.386719 L 178.816406 465.542969 L 176.988281 464.746094 L 175.503906 463.816406 L 174.367188 462.484375 L 173.679688 460.875 L 173.5 459.132813 L 173.601563 457 L 173.25 454.878906 L 172.597656 453.433594 L 170.996094 451.546875 L 169.980469 449.816406 L 169.617188 447.839844 L 169.613281 447.472656 L 170.039063 448.109375 L 170.757813 448.421875 L 173.15625 448.464844 L 180.570313 447.503906 L 181.109375 445.632813 L 181.210938 443.15625 L 182.519531 440.25 L 183.960938 438.855469 L 185.144531 437.863281 L 185.382813 437.484375 L 190.867188 432.195313 L 195.792969 425.3125 L 197.929688 424.472656 L 198.285156 423.78125 L 198.070313 423.238281 L 197.8125 423.082031 L 196.09375 424.355469 L 192.90625 427.300781 L 190.570313 429.988281 L 189.222656 431.449219 L 186.335938 432.660156 Z M 195.042969 467.167969 L 195.289063 467.289063 L 196.847656 468.394531 L 197.890625 468.839844 L 199.886719 469.203125 L 201.671875 469.230469 L 201.859375 469.265625 L 202.03125 469.1875 L 203.695313 468.734375 L 204.632813 468.273438 L 205.5625 467.570313 L 206.710938 466.28125 L 206.90625 466.128906 L 206.914063 466.011719 L 207.417969 463.882813 L 207.375 462.34375 L 206.9375 460.886719 L 206.125 459.582031 L 205.0625 458.578125 L 203.808594 457.886719 L 202.589844 457.535156 L 199.683594 457.21875 L 198.207031 457.460938 L 196.828125 458.085938 L 195.617188 459.085938 L 194.539063 460.546875 L 193.996094 461.96875 L 193.84375 463.386719 L 194.074219 464.902344 L 194.996094 467 Z M 233.617188 469.164063 L 230.023438 468.484375 L 228.964844 468.519531 L 227.1875 468.945313 L 224.839844 469.023438 L 223.148438 468.730469 L 227.316406 466.367188 L 232.550781 467.761719 Z M 207.808594 338.285156 L 206.4375 337.375 L 205.378906 336.117188 L 204.710938 334.609375 L 204.492188 332.980469 L 204.507813 331.421875 L 204.792969 329.679688 L 205.585938 328.101563 L 206.820313 326.835938 L 208.375 325.996094 L 210.109375 325.664063 L 211.867188 325.871094 L 213.476563 326.59375 L 214.800781 327.765625 L 216.941406 330.347656 L 217.84375 331.84375 L 218.257813 333.535156 L 218.152344 335.273438 L 217.539063 336.90625 L 216.46875 338.28125 L 215.039063 339.277344 L 213.375 339.804688 L 211.632813 339.816406 L 209.964844 339.3125 Z M 173.492188 358.617188 L 173.808594 356.71875 L 174.636719 355.203125 L 179.910156 359.441406 L 180.433594 358.429688 L 177.679688 353.460938 L 178.136719 352.953125 L 179.832031 352.824219 L 181.605469 352.984375 L 181.914063 353.875 L 182.898438 354.332031 L 184.078125 356.789063 L 185.613281 357.902344 L 188.359375 357.621094 L 190.335938 355.148438 L 189.90625 355.050781 L 188.667969 355.527344 L 188.3125 355.957031 L 186.378906 356.386719 L 183.8125 354.640625 L 183.011719 352.90625 L 184.726563 352.566406 L 186.441406 352.484375 L 188.101563 352.90625 L 189.570313 353.796875 L 190.710938 355.074219 L 191.433594 356.628906 L 191.671875 358.328125 L 191.402344 360.019531 L 190.652344 361.5625 L 189.742188 362.890625 L 189.3125 363.851563 L 189.054688 364.984375 L 188.996094 366.578125 L 188.496094 368.738281 L 187.222656 370.554688 L 185.992188 371.742188 L 184.417969 372.824219 L 182.578125 373.339844 L 180.667969 373.226563 L 178.898438 372.503906 L 177.460938 371.246094 L 176.507813 369.589844 L 175.753906 367.574219 L 174.527344 365.804688 L 173.757813 364.226563 L 173.492188 362.492188 Z M 176.414063 294.5625 L 174.5 294.570313 L 172.6875 293.957031 L 171.882813 293.335938 L 174.074219 288.722656 L 176.464844 286.417969 L 178.757813 285.980469 L 180.191406 286.804688 L 181.015625 286.710938 L 182.933594 286.238281 L 183.03125 285.160156 L 182.34375 284.746094 L 180.035156 285.351563 L 174.65625 284.980469 L 172.566406 284.292969 L 171.867188 284.234375 L 173.460938 282.984375 L 174.738281 281.359375 L 176.011719 280.164063 L 177.582031 279.402344 L 179.308594 279.136719 L 181.035156 279.402344 L 182.605469 280.164063 L 183.878906 281.359375 L 185.15625 282.984375 L 186.78125 284.257813 L 188.070313 285.675781 L 188.828125 287.429688 L 188.976563 289.339844 L 188.5 291.191406 L 187.445313 292.789063 L 185.929688 293.957031 L 184.117188 294.570313 L 182.203125 294.5625 L 179.308594 294.066406 Z M 181.101563 248.210938 L 179.386719 249.085938 L 177.476563 249.347656 L 175.585938 248.972656 L 173.921875 248.003906 L 172.667969 246.539063 L 171.960938 244.75 L 171.875 242.824219 L 172.421875 240.976563 L 172.453125 240.914063 L 178.0625 241.875 L 182.921875 243.167969 L 185.09375 242.273438 L 184.890625 243.929688 L 184.078125 245.632813 L 182.761719 246.984375 Z M 173.160156 239.410156 L 173.570313 237.894531 L 174.320313 236.234375 L 175.546875 234.882813 L 177.128906 233.980469 L 178.914063 233.609375 L 180.726563 233.8125 L 182.386719 234.566406 L 182.433594 234.605469 L 181.046875 235.800781 L 180.578125 237.003906 L 174.761719 240.109375 Z M 139.023438 478.855469 L 140.144531 477.515625 L 141.613281 476.566406 L 143.296875 476.101563 L 145.042969 476.152344 L 146.695313 476.722656 L 148.101563 477.757813 L 149.136719 479.164063 L 149.5625 479.96875 L 150.148438 481.707031 L 150.167969 483.539063 L 149.960938 484.191406 L 148.46875 482.535156 L 142.796875 482.960938 L 141.527344 483.375 L 140.734375 484.175781 L 139.910156 484.507813 L 138.363281 484.453125 L 137.941406 482.949219 L 138.046875 481.058594 L 138.753906 479.296875 Z M 286.679688 439.636719 L 283.058594 438.976563 L 282.164063 437.605469 L 282.484375 436.070313 L 286.839844 437.054688 L 287.960938 438.832031 Z M 236.835938 466.113281 L 235.136719 465.644531 L 236.523438 463.683594 L 237.195313 464.164063 L 237.5 465.839844 Z M 236.835938 466.113281 "/>
<path style=" stroke:none;fill-rule:nonzero;fill:rgb(80.392157%,58.431373%,4.705882%);fill-opacity:1;" d="M 200.628906 343.109375 L 200.347656 344.90625 L 199.519531 346.527344 L 198.234375 347.8125 L 196.613281 348.636719 L 194.816406 348.921875 L 193.019531 348.636719 L 191.398438 347.8125 L 190.109375 346.527344 L 189.285156 344.90625 L 189 343.109375 L 189.285156 341.3125 L 190.109375 339.691406 L 191.398438 338.402344 L 193.019531 337.578125 L 194.816406 337.292969 L 196.613281 337.578125 L 198.234375 338.402344 L 199.519531 339.691406 L 200.347656 341.3125 Z M 200.628906 343.109375 "/>
<path style=" stroke:none;fill-rule:nonzero;fill:rgb(80.392157%,58.431373%,4.705882%);fill-opacity:1;" d="M 243.277344 366.371094 L 242.992188 368.167969 L 242.167969 369.789063 L 240.878906 371.074219 L 239.257813 371.898438 L 237.460938 372.183594 L 235.664063 371.898438 L 234.042969 371.074219 L 232.757813 369.789063 L 231.929688 368.167969 L 231.644531 366.371094 L 231.929688 364.570313 L 232.757813 362.949219 L 234.042969 361.664063 L 235.664063 360.839844 L 237.460938 360.554688 L 239.257813 360.839844 L 240.878906 361.664063 L 242.167969 362.949219 L 242.992188 364.570313 Z M 243.277344 366.371094 "/>
<path style=" stroke:none;fill-rule:nonzero;fill:rgb(80.392157%,58.431373%,4.705882%);fill-opacity:1;" d="M 235.523438 358.617188 L 235.238281 360.414063 L 234.414063 362.035156 L 233.125 363.320313 L 231.503906 364.144531 L 229.707031 364.429688 L 227.910156 364.144531 L 226.289063 363.320313 L 225.003906 362.035156 L 224.175781 360.414063 L 223.890625 358.617188 L 224.175781 356.816406 L 225.003906 355.195313 L 226.289063 353.910156 L 227.910156 353.085938 L 229.707031 352.800781 L 231.503906 353.085938 L 233.125 353.910156 L 234.414063 355.195313 L 235.238281 356.816406 Z M 235.523438 358.617188 "/>
<path style=" stroke:none;fill-rule:nonzero;fill:rgb(80.392157%,58.431373%,4.705882%);fill-opacity:1;" d="M 231.644531 350.863281 L 231.363281 352.660156 L 230.535156 354.28125 L 229.25 355.566406 L 227.628906 356.390625 L 225.832031 356.675781 L 224.035156 356.390625 L 222.414063 355.566406 L 221.125 354.28125 L 220.300781 352.660156 L 220.015625 350.863281 L 220.300781 349.066406 L 221.125 347.441406 L 222.414063 346.15625 L 224.035156 345.332031 L 225.832031 345.046875 L 227.628906 345.332031 L 229.25 346.15625 L 230.535156 347.441406 L 231.363281 349.066406 Z M 231.644531 350.863281 "/>
<path style=" stroke:none;fill-rule:nonzero;fill:rgb(80.392157%,58.431373%,4.705882%);fill-opacity:1;" d="M 258.785156 350.863281 L 258.5 352.660156 L 257.675781 354.28125 L 256.386719 355.566406 L 254.765625 356.390625 L 252.96875 356.675781 L 251.171875 356.390625 L 249.550781 355.566406 L 248.265625 354.28125 L 247.4375 352.660156 L 247.152344 350.863281 L 247.4375 349.066406 L 248.265625 347.441406 L 249.550781 346.15625 L 251.171875 345.332031 L 252.96875 345.046875 L 254.765625 345.332031 L 256.386719 346.15625 L 257.675781 347.441406 L 258.5 349.066406 Z M 258.785156 350.863281 "/>
<path style=" stroke:none;fill-rule:nonzero;fill:rgb(80.392157%,58.431373%,4.705882%);fill-opacity:1;" d="M 146.355469 157.015625 L 146.070313 158.8125 L 145.242188 160.433594 L 143.957031 161.71875 L 142.335938 162.546875 L 140.539063 162.832031 L 138.742188 162.546875 L 137.121094 161.71875 L 135.832031 160.433594 L 135.007813 158.8125 L 134.773438 157.332031 L 136.507813 158.589844 L 137.039063 159.417969 L 137.175781 158.679688 L 135.242188 155.121094 L 135.105469 155.027344 L 135.832031 153.597656 L 137.121094 152.3125 L 138.742188 151.484375 L 140.539063 151.199219 L 142.335938 151.484375 L 143.957031 152.3125 L 145.242188 153.597656 L 146.070313 155.21875 Z M 146.355469 157.015625 "/>
<path style=" stroke:none;fill-rule:nonzero;fill:rgb(80.392157%,58.431373%,4.705882%);fill-opacity:1;" d="M 266.539063 378 L 266.253906 379.796875 L 265.429688 381.417969 L 264.140625 382.703125 L 262.519531 383.53125 L 260.722656 383.816406 L 258.925781 383.53125 L 257.304688 382.703125 L 256.019531 381.417969 L 255.191406 379.796875 L 254.90625 378 L 255.191406 376.203125 L 256.019531 374.582031 L 257.304688 373.296875 L 258.925781 372.46875 L 260.722656 372.183594 L 262.066406 372.398438 L 261.394531 373.164063 L 260.601563 374.816406 L 262.84375 374.3125 L 264.9375 375.519531 L 266.476563 377.601563 Z M 266.539063 378 "/>
<path style=" stroke:none;fill-rule:nonzero;fill:rgb(80.392157%,58.431373%,4.705882%);fill-opacity:1;" d="M 254.90625 339.230469 L 254.769531 340.105469 L 253.664063 338.65625 L 252.601563 338.082031 L 245.550781 339.511719 L 244.589844 338.644531 L 243.40625 338.558594 L 243.378906 338.574219 L 243.5625 337.433594 L 244.386719 335.8125 L 245.675781 334.527344 L 247.296875 333.699219 L 249.09375 333.414063 L 250.890625 333.699219 L 252.511719 334.527344 L 253.796875 335.8125 L 254.625 337.433594 Z M 254.070313 342.109375 L 253.796875 342.648438 L 252.511719 343.933594 L 250.890625 344.761719 L 249.09375 345.046875 L 247.296875 344.761719 L 245.675781 343.933594 L 244.386719 342.648438 L 243.5625 341.027344 L 243.464844 340.425781 L 246.324219 340.394531 L 249.617188 339.34375 L 251.976563 339.082031 Z M 254.070313 342.109375 "/>
<path style=" stroke:none;fill-rule:nonzero;fill:rgb(80.392157%,58.431373%,4.705882%);fill-opacity:1;" d="M 126.96875 486.554688 L 126.683594 488.351563 L 125.859375 489.972656 L 125.792969 490.039063 L 124.039063 490.597656 L 123.777344 491.664063 L 122.949219 492.085938 L 121.152344 492.371094 L 119.355469 492.085938 L 117.734375 491.257813 L 116.449219 489.972656 L 115.625 488.351563 L 115.53125 487.765625 L 118.144531 485.910156 L 121.425781 483.085938 L 123.164063 481.132813 L 124.570313 481.847656 L 125.859375 483.136719 L 126.683594 484.757813 Z M 126.96875 486.554688 "/>
<path style=" stroke:none;fill-rule:nonzero;fill:rgb(80.392157%,58.431373%,4.705882%);fill-opacity:1;" d="M 173.492188 436.152344 L 173.207031 437.949219 L 172.382813 439.570313 L 172.074219 439.878906 L 170.558594 439.851563 L 166.820313 439 L 166.347656 438.652344 L 162.199219 434.253906 L 162.972656 432.734375 L 164.257813 431.449219 L 165.878906 430.625 L 167.675781 430.339844 L 169.472656 430.625 L 171.09375 431.449219 L 172.382813 432.734375 L 173.207031 434.355469 Z M 173.492188 436.152344 "/>
<path style=" stroke:none;fill-rule:nonzero;fill:rgb(80.392157%,58.431373%,4.705882%);fill-opacity:1;" d="M 210.738281 253.894531 L 209.863281 254.765625 L 208.242188 255.59375 L 206.445313 255.875 L 204.648438 255.59375 L 203.027344 254.765625 L 201.742188 253.480469 L 200.914063 251.859375 L 200.628906 250.0625 L 200.914063 248.265625 L 201.742188 246.644531 L 203.027344 245.355469 L 203.582031 245.074219 L 206.488281 246.65625 L 208.910156 251.429688 Z M 210.738281 253.894531 "/>
<path style=" stroke:none;fill-rule:nonzero;fill:rgb(80.392157%,58.431373%,4.705882%);fill-opacity:1;" d="M 150.230469 261.691406 L 149.945313 263.488281 L 149.121094 265.109375 L 147.832031 266.398438 L 146.210938 267.222656 L 144.414063 267.507813 L 142.617188 267.222656 L 140.996094 266.398438 L 140.453125 265.851563 L 140.917969 265.085938 L 143.644531 263.800781 L 144.390625 261.886719 L 144.195313 260.621094 L 142.601563 256.71875 L 142.136719 256.40625 L 142.617188 256.160156 L 144.414063 255.875 L 146.210938 256.160156 L 147.832031 256.988281 L 149.121094 258.273438 L 149.945313 259.894531 Z M 150.230469 261.691406 "/>
<path style=" stroke:none;fill-rule:nonzero;fill:rgb(80.392157%,58.431373%,4.705882%);fill-opacity:1;" d="M 124.636719 490.40625 L 124.203125 489.972656 L 123.375 488.351563 L 123.09375 486.554688 L 123.375 484.757813 L 124.203125 483.136719 L 125.488281 481.847656 L 127.109375 481.023438 L 128.90625 480.738281 L 130.703125 481.023438 L 132.324219 481.847656 L 133.613281 483.136719 L 134.246094 484.378906 L 132.167969 484.859375 L 129.414063 488.195313 L 126.714844 489.746094 Z M 124.636719 490.40625 "/>
<path style=" stroke:none;fill-rule:nonzero;fill:rgb(80.392157%,58.431373%,4.705882%);fill-opacity:1;" d="M 238.546875 303.375 L 238.289063 303.878906 L 237.003906 305.167969 L 235.382813 305.992188 L 233.585938 306.277344 L 231.789063 305.992188 L 230.167969 305.167969 L 228.878906 303.878906 L 228.054688 302.257813 L 227.769531 300.460938 L 228.054688 298.664063 L 228.46875 297.851563 L 229.304688 299.0625 Z M 238.546875 303.375 "/>
<path style=" stroke:none;fill-rule:nonzero;fill:rgb(80.392157%,58.431373%,4.705882%);fill-opacity:1;" d="M 111.460938 490.429688 L 111.199219 492.085938 L 110.375 492.488281 L 110.261719 493.941406 L 109.0625 495.136719 L 108.84375 495.25 L 106.824219 495.664063 L 105.398438 494.824219 L 105.628906 491.574219 L 106.074219 490.5625 L 111.046875 488.378906 L 111.175781 488.632813 Z M 111.460938 490.429688 "/>
<path style=" stroke:none;fill-rule:nonzero;fill:rgb(80.392157%,58.431373%,4.705882%);fill-opacity:1;" d="M 103.890625 194.621094 L 103.992188 193.988281 L 104.144531 193.6875 L 105.34375 192.390625 L 106.722656 192.214844 L 107.992188 192.835938 L 108.445313 193.703125 L 108.09375 196.351563 L 107.546875 197.015625 L 106.597656 197.398438 L 105.582031 196.804688 Z M 113.875 192.011719 L 114.226563 192.367188 L 114.945313 193.773438 L 114.023438 194.042969 L 113.570313 192.609375 Z M 110.160156 200.433594 L 108.972656 199.578125 L 108.9375 198.890625 L 110.578125 197.179688 L 111.398438 197.769531 L 111.5 198.265625 L 111.128906 199.855469 Z M 110.160156 200.433594 "/>
</g>
</svg>
