<?xml version="1.0" encoding="UTF-8"?>
<svg xmlns="http://www.w3.org/2000/svg" xmlns:xlink="http://www.w3.org/1999/xlink" width="378pt" height="504pt" viewBox="0 0 378 504" version="1.1">
<g id="data">
<rect x="0" y="0" width="378" height="504" style="fill:rgb(100%,100%,100%);fill-opacity:1;stroke:none;"/>
<path style=" stroke:none;fill-rule:nonzero;fill:rgb(100%,100%,100%);fill-opacity:1;" d="M 53.308594 504 L 324.691406 504 L 324.691406 0 L 53.308594 0 Z M 53.308594 504 "/>
<path style=" stroke:none;fill-rule:nonzero;fill:rgb(22.745098%,53.333333%,16.078431%);fill-opacity:1;" d="M 229.707031 315.96875 L 233.390625 315.589844 L 236.765625 314.070313 L 239.492188 311.566406 L 241.339844 308.214844 L 242.363281 312.125 L 244.664063 315.445313 L 246.589844 317.285156 L 248.492188 318.542969 L 250.605469 319.402344 L 252.96875 319.847656 L 252.96875 323.722656 L 250.34375 326.832031 L 248.929688 330.785156 L 248.785156 333.078125 L 249.09375 335.355469 L 248.785156 338.527344 L 248.847656 338.84375 L 245.550781 339.511719 L 244.589844 338.644531 L 243.40625 338.558594 L 241.210938 339.871094 L 241.886719 340.445313 L 246.324219 340.394531 L 248.984375 339.546875 L 249.4375 341.902344 L 251.4375 345.445313 L 254.675781 349.15625 L 256.847656 350.863281 L 257.855469 353.214844 L 259.355469 355.292969 L 261.804688 357.34375 L 264.601563 358.617188 L 265.082031 361.101563 L 266.089844 363.425781 L 267.492188 365.382813 L 268.230469 366.109375 L 264.953125 369.09375 L 261.394531 373.164063 L 260.601563 374.816406 L 262.84375 374.3125 L 264.9375 375.519531 L 266.9375 378.226563 L 270.21875 378.804688 L 270.625 378.746094 L 271.910156 376.796875 L 272.234375 374.960938 L 273.40625 371.914063 L 274.707031 370.632813 L 276.6875 370.285156 L 276.976563 370.347656 L 283.421875 370.289063 L 284.253906 370.867188 L 286.703125 370.742188 L 293.949219 371.515625 L 296.019531 372.441406 L 296.804688 374.496094 L 298.019531 376.429688 L 299.492188 378 L 299.257813 382.0625 L 300.382813 385.84375 L 301.597656 387.792969 L 304.644531 391.34375 L 306.789063 393.128906 L 306.777344 393.191406 L 306.882813 393.925781 L 305.257813 395.800781 L 303.925781 398.53125 L 303.246094 402.257813 L 303.371094 405.136719 L 300.039063 406.765625 L 297.46875 409.253906 L 295.84375 412.441406 L 295.578125 412.011719 L 292.742188 410.515625 L 292.480469 410.636719 L 293.898438 413.703125 L 294.300781 414.296875 L 294.140625 414.464844 L 292.925781 416.394531 L 292.148438 418.402344 L 291.738281 420.644531 L 289.34375 421.085938 L 288.214844 419.332031 L 284.976563 421.730469 L 280.71875 424.230469 L 282.339844 425.378906 L 283.566406 424.945313 L 281.5625 428.648438 L 281.0625 432.398438 L 279.644531 432.160156 L 274.75 433.78125 L 272.609375 436.117188 L 274.253906 436.015625 L 275.152344 434.667969 L 276.683594 434.363281 L 278.285156 434.328125 L 281.054688 434.949219 L 281.378906 435.21875 L 281.382813 435.226563 L 281.726563 436.132813 L 281.691406 436.328125 L 279.554688 436.347656 L 277.390625 437.65625 L 277.96875 438.546875 L 281.382813 438.964844 L 283.546875 439.507813 L 283.570313 439.542969 L 285.359375 441.347656 L 287.828125 442.882813 L 290.605469 443.757813 L 293.488281 444.070313 L 299.492188 443.90625 L 299.492188 447.785156 L 297.371094 448.160156 L 295.242188 448.972656 L 293.3125 450.1875 L 291.738281 451.660156 L 289.863281 449.960938 L 287.660156 448.707031 L 281.632813 447.21875 L 277.578125 447.398438 L 273.171875 449.113281 L 271.429688 450.433594 L 269.890625 452.15625 L 268.773438 454.035156 L 268.03125 456.089844 L 267.671875 459.535156 L 268.476563 463.292969 L 268.476563 466.5625 L 267.285156 466.203125 L 265.535156 464.78125 L 261.980469 463.464844 L 258.972656 463.132813 L 249.09375 463.292969 L 245.378906 461.925781 L 241.425781 461.882813 L 239.320313 462.429688 L 237.300781 463.289063 L 231.496094 463.171875 L 231.378906 463.496094 L 232.574219 464.835938 L 232.214844 465.75 L 231.738281 466.042969 L 226.691406 465.496094 L 220.003906 468.265625 L 218.1875 468.105469 L 217.054688 467.824219 L 210.222656 468.96875 L 208.164063 468.875 L 207.273438 468.058594 L 206.238281 469.769531 L 209.429688 471.089844 L 209.714844 470.9375 L 209.882813 471.363281 L 208.332031 472.578125 L 206.832031 474.445313 L 204.453125 473.097656 L 203.015625 472.699219 L 197.625 472.007813 L 196.175781 472.65625 L 195.679688 473.863281 L 195.832031 474.871094 L 196.757813 475.523438 L 196.488281 476.304688 L 195.917969 475.996094 L 194.851563 473.972656 L 193.429688 472.921875 L 192.84375 471.636719 L 190.3125 468.9375 L 187.0625 467.167969 L 187.34375 463.613281 L 186.585938 460.261719 L 185.183594 457.683594 L 183.183594 455.539063 L 181.152344 451.957031 L 185.988281 451.320313 L 189.183594 449.996094 L 192.019531 447.59375 L 194.003906 444.304688 L 194.632813 442.078125 L 195.070313 438.519531 L 194.910156 435.082031 L 193.5 431.398438 L 192.375 430.085938 L 195.792969 425.3125 L 197.929688 424.472656 L 198.285156 423.78125 L 198.070313 423.238281 L 197.8125 423.082031 L 196.09375 424.355469 L 192.90625 427.300781 L 191.441406 428.988281 L 190.9375 428.398438 L 193.085938 426.046875 L 194.554688 423.078125 L 195.121094 419.941406 L 194.816406 416.769531 L 198.867188 416.28125 L 202.5 414.425781 L 205.128906 411.644531 L 207.15625 407.511719 L 207.910156 404.152344 L 207.621094 400.59375 L 206.261719 397.292969 L 204.0625 394.640625 L 207.453125 396.109375 L 211.261719 396.429688 L 214.847656 395.550781 L 218.078125 393.507813 L 219.855469 397.042969 L 222.605469 399.707031 L 225.832031 401.261719 L 229.195313 403.363281 L 231.410156 404.019531 L 233.585938 404.222656 L 237.492188 403.546875 L 240.949219 401.597656 L 243.765625 398.480469 L 245.285156 394.703125 L 245.53125 392.417969 L 245.214844 389.628906 L 245.371094 387.253906 L 244.839844 383.632813 L 243.257813 380.1875 L 240.445313 377.097656 L 237.027344 374.945313 L 231.988281 373.683594 L 228.941406 373.484375 L 225.832031 374.125 L 224.257813 372.648438 L 222.328125 371.433594 L 220.199219 370.621094 L 218.078125 370.246094 L 220.628906 369.960938 L 223.058594 369.125 L 225.242188 367.777344 L 226.996094 366.082031 L 228.796875 363.125 L 229.476563 360.914063 L 229.707031 358.617188 L 231.4375 356.070313 L 232.414063 353.285156 L 232.582031 349.449219 L 231.550781 345.882813 L 228.597656 341.582031 L 225.832031 339.230469 L 225.832031 335.355469 L 228.542969 333.90625 L 230.777344 331.800781 L 232.386719 329.183594 L 233.234375 326.363281 L 233.351563 323.546875 L 232.792969 320.785156 L 231.585938 318.238281 Z M 282.207031 437.394531 L 282.246094 437.5 L 283.222656 439.003906 L 283.058594 438.976563 L 282.164063 437.605469 Z M 231.566406 467.5 L 231.261719 467.824219 L 229.707031 471.046875 L 225.832031 471.046875 L 223.285156 469.316406 L 222.554688 469.070313 L 227.316406 466.367188 Z M 125.167969 477.703125 L 125.40625 477.609375 L 127.335938 476.394531 L 128.90625 474.921875 L 132.511719 477.121094 L 136.660156 477.886719 L 140.8125 477.121094 L 144.414063 474.921875 L 146.683594 476.800781 L 149.230469 478.007813 L 152.121094 478.578125 L 154.933594 478.425781 L 157.863281 477.496094 L 160.347656 475.914063 L 162.425781 473.652344 L 163.800781 471.046875 L 163.496094 474.21875 L 164.101563 477.472656 L 165.53125 480.324219 L 165.71875 480.527344 L 164.753906 483.347656 L 163.425781 483.867188 L 161.597656 485.003906 L 159.921875 486.554688 L 158.402344 484.648438 L 156.625 483.171875 L 154.585938 482.074219 L 152.375 481.402344 L 148.28125 481.328125 L 144.414063 482.675781 L 141.171875 481.90625 L 137.839844 482.085938 L 134.8125 483.144531 L 132.476563 484.785156 L 132.167969 484.859375 L 129.414063 488.195313 L 128.71875 488.59375 L 128.527344 486.75 L 126.9375 483.265625 L 124.40625 480.566406 L 123.90625 480.296875 L 124.375 479.769531 L 125.210938 477.886719 Z M 125.167969 477.703125 "/>
<path style=" stroke:none;fill-rule:nonzero;fill:rgb(80.392157%,58.431373%,4.705882%);fill-opacity:1;" d="M 196.753906 378 L 196.46875 379.796875 L 195.644531 381.417969 L 194.355469 382.703125 L 192.734375 383.53125 L 190.9375 383.816406 L 189.140625 383.53125 L 187.519531 382.703125 L 186.234375 381.417969 L 185.40625 379.796875 L 185.125 378 L 185.40625 376.203125 L 186.234375 374.582031 L 187.519531 373.296875 L 189.140625 372.46875 L 190.9375 372.183594 L 192.734375 372.46875 L 194.355469 373.296875 L 195.644531 374.582031 L 196.46875 376.203125 Z M 196.753906 378 "/>
<path style=" stroke:none;fill-rule:nonzero;fill:rgb(80.392157%,58.431373%,4.705882%);fill-opacity:1;" d="M 200.628906 389.628906 L 200.347656 391.429688 L 199.519531 393.050781 L 198.234375 394.335938 L 196.613281 395.160156 L 194.816406 395.445313 L 193.019531 395.160156 L 191.398438 394.335938 L 190.109375 393.050781 L 189.285156 391.429688 L 189 389.628906 L 189.285156 387.832031 L 190.109375 386.210938 L 191.398438 384.925781 L 193.019531 384.101563 L 194.816406 383.816406 L 196.613281 384.101563 L 198.234375 384.925781 L 199.519531 386.210938 L 200.347656 387.832031 Z M 200.628906 389.628906 "/>
<path style=" stroke:none;fill-rule:nonzero;fill:rgb(80.392157%,58.431373%,4.705882%);fill-opacity:1;" d="M 220.015625 284.953125 L 219.730469 286.75 L 218.90625 288.371094 L 217.617188 289.660156 L 215.996094 290.484375 L 214.199219 290.769531 L 212.402344 290.484375 L 210.78125 289.660156 L 209.496094 288.371094 L 208.667969 286.75 L 208.382813 284.953125 L 208.667969 283.15625 L 209.496094 281.535156 L 210.78125 280.25 L 212.402344 279.421875 L 214.199219 279.136719 L 215.996094 279.421875 L 217.617188 280.25 L 218.90625 281.535156 L 219.730469 283.15625 Z M 220.015625 284.953125 "/>
<path style=" stroke:none;fill-rule:nonzero;fill:rgb(80.392157%,58.431373%,4.705882%);fill-opacity:1;" d="M 196.753906 319.847656 L 196.46875 321.644531 L 195.644531 323.265625 L 194.355469 324.550781 L 192.734375 325.375 L 190.9375 325.660156 L 189.140625 325.375 L 187.007813 324.035156 L 187.71875 320.933594 L 187.855469 317.484375 L 185.164063 320.113281 L 185.125 319.847656 L 185.40625 318.050781 L 186.234375 316.429688 L 187.519531 315.140625 L 189.140625 314.316406 L 190.9375 314.03125 L 192.734375 314.316406 L 194.355469 315.140625 L 195.644531 316.429688 L 196.46875 318.050781 Z M 196.753906 319.847656 "/>
<path style=" stroke:none;fill-rule:nonzero;fill:rgb(80.392157%,58.431373%,4.705882%);fill-opacity:1;" d="M 177.347656 447.921875 L 177.085938 449.582031 L 176.257813 451.203125 L 174.972656 452.488281 L 173.351563 453.316406 L 171.554688 453.601563 L 169.757813 453.316406 L 168.136719 452.488281 L 166.847656 451.203125 L 166.023438 449.582031 L 165.738281 447.785156 L 166.046875 446.148438 L 169.484375 447.285156 L 170.039063 448.109375 L 170.757813 448.421875 L 173.15625 448.464844 Z M 177.347656 447.921875 "/>
<path style=" stroke:none;fill-rule:nonzero;fill:rgb(80.392157%,58.431373%,4.705882%);fill-opacity:1;" d="M 198.90625 242.464844 L 198.234375 243.136719 L 196.613281 243.960938 L 194.816406 244.246094 L 193.019531 243.960938 L 191.398438 243.136719 L 190.109375 241.847656 L 189.285156 240.226563 L 189.023438 238.273438 L 193.183594 238.5 Z M 198.90625 242.464844 "/>
<path style=" stroke:none;fill-rule:nonzero;fill:rgb(80.392157%,58.431373%,4.705882%);fill-opacity:1;" d="M 192.871094 238.46875 L 192.59375 240.226563 L 191.765625 241.847656 L 190.480469 243.136719 L 188.859375 243.960938 L 187.0625 244.246094 L 185.265625 243.960938 L 183.457031 242.949219 L 186.398438 241.730469 L 187.519531 239.417969 L 188.617188 238.355469 L 189.539063 238.171875 Z M 192.871094 238.46875 "/>
</g>
</svg>
