<?xml version="1.0" encoding="UTF-8"?>
<svg xmlns="http://www.w3.org/2000/svg" xmlns:xlink="http://www.w3.org/1999/xlink" width="378pt" height="504pt" viewBox="0 0 378 504" version="1.1">
<g id="data">
<rect x="0" y="0" width="378" height="504" style="fill:rgb(100%,100%,100%);fill-opacity:1;stroke:none;"/>
<path style=" stroke:none;fill-rule:nonzero;fill:rgb(100%,100%,100%);fill-opacity:1;" d="M 53.308594 504 L 324.691406 504 L 324.691406 0 L 53.308594 0 Z M 53.308594 504 "/>
<path style=" stroke:none;fill-rule:nonzero;fill:rgb(22.745098%,53.333333%,16.078431%);fill-opacity:1;" d="M 225.246094 319.703125 L 224.324219 318.167969 L 223.910156 316.425781 L 224.046875 314.640625 L 224.71875 312.980469 L 225.867188 311.601563 L 227.378906 310.640625 L 229.109375 310.183594 L 231.859375 309.898438 L 233.523438 309.152344 L 234.859375 307.925781 L 236.246094 305.410156 L 237.292969 304.039063 L 238.347656 303.28125 L 244.476563 306.140625 L 245.742188 307.636719 L 247.265625 310.527344 L 249.289063 315.722656 L 252.390625 319.148438 L 256.121094 320.875 L 257.207031 321.722656 L 254.738281 323.09375 L 253.890625 324.554688 L 253.765625 325.996094 L 254.984375 329.992188 L 255.214844 330.476563 L 254.683594 331.972656 L 254.625 332.871094 L 254.855469 334.574219 L 254.882813 335.910156 L 254.65625 338.25 L 254.96875 339.871094 L 256.042969 341.777344 L 256.035156 341.773438 L 253.664063 338.65625 L 252.601563 338.082031 L 245.550781 339.511719 L 244.589844 338.644531 L 243.40625 338.558594 L 241.210938 339.871094 L 241.886719 340.445313 L 246.324219 340.394531 L 249.617188 339.34375 L 251.976563 339.082031 L 254.382813 342.558594 L 260.535156 347.621094 L 262.191406 348.570313 L 262.945313 350.332031 L 263.652344 351.3125 L 264.851563 352.328125 L 266.382813 353.035156 L 268.980469 359.304688 L 269.535156 362.402344 L 269.210938 365.21875 L 264.953125 369.09375 L 261.394531 373.164063 L 260.601563 374.816406 L 262.84375 374.3125 L 264.9375 375.519531 L 266.9375 378.226563 L 270.21875 378.804688 L 270.625 378.746094 L 271.910156 376.796875 L 272.234375 374.960938 L 273.40625 371.914063 L 274.707031 370.632813 L 277.851563 370.085938 L 283.34375 370.234375 L 284.253906 370.867188 L 286.703125 370.742188 L 293.949219 371.515625 L 296.914063 372.84375 L 304.070313 378.085938 L 305.210938 379.859375 L 305.121094 381.382813 L 305.730469 383.433594 L 306.296875 384.339844 L 306.777344 384.902344 L 307.179688 391.25 L 306.777344 393.191406 L 306.890625 393.976563 L 305.789063 396.917969 L 303.519531 407.832031 L 297.144531 414.53125 L 295.578125 412.011719 L 292.742188 410.515625 L 292.480469 410.636719 L 293.898438 413.703125 L 295.890625 416.628906 L 296.3125 416.765625 L 296.164063 417.742188 L 294.574219 419.804688 L 292.191406 421.289063 L 290.003906 421.65625 L 289.660156 421.574219 L 288.214844 419.332031 L 284.976563 421.730469 L 280.71875 424.230469 L 282.339844 425.378906 L 285.105469 424.398438 L 286.097656 423.375 L 286.894531 423.164063 L 287.328125 423.710938 L 287.632813 428.84375 L 285.6875 430.875 L 283.441406 432.558594 L 282.84375 432.699219 L 279.644531 432.160156 L 274.75 433.78125 L 272.609375 436.117188 L 274.253906 436.015625 L 275.152344 434.667969 L 276.683594 434.363281 L 278.285156 434.328125 L 281.054688 434.949219 L 281.828125 435.589844 L 281.691406 436.328125 L 279.554688 436.347656 L 277.390625 437.65625 L 277.96875 438.546875 L 281.382813 438.964844 L 286.863281 440.339844 L 289.394531 439.9375 L 291.074219 438.957031 L 296.824219 438.160156 L 299.335938 438.09375 L 299.960938 438.179688 L 300.988281 440.148438 L 300.773438 446.324219 L 300.335938 447.820313 L 299.394531 449.050781 L 296.972656 450.242188 L 295.839844 450.375 L 292.621094 451.640625 L 291.179688 452.742188 L 289.847656 454.226563 L 289.460938 455.09375 L 289.214844 456.324219 L 289.3125 456.941406 L 289.269531 456.925781 L 287.832031 455.96875 L 286.429688 454.695313 L 285.484375 454.160156 L 281.054688 453.066406 L 278.792969 453.164063 L 276.035156 454.238281 L 275.390625 454.726563 L 274.601563 455.609375 L 274.054688 456.53125 L 273.738281 457.402344 L 273.550781 459.21875 L 274.164063 462.070313 L 274.265625 463.023438 L 272.597656 463.816406 L 270.539063 466.589844 L 269.761719 466.949219 L 259.269531 463.777344 L 256.070313 463.507813 L 244.628906 465.699219 L 242.703125 466.390625 L 242.113281 466.964844 L 241.949219 467.753906 L 241.199219 467.949219 L 241.089844 467.996094 L 238.210938 466.1875 L 238.632813 465.4375 L 239.46875 464.933594 L 237.714844 463.296875 L 231.496094 463.171875 L 231.378906 463.496094 L 232.574219 464.835938 L 232.214844 465.75 L 231.738281 466.042969 L 226.691406 465.496094 L 219.566406 468.449219 L 217.054688 467.824219 L 210.222656 468.96875 L 208.164063 468.875 L 207.273438 468.058594 L 206.238281 469.769531 L 209.429688 471.089844 L 209.714844 470.9375 L 210.1875 472.128906 L 209.566406 473.890625 L 206.84375 474.453125 L 204.453125 473.097656 L 203.015625 472.699219 L 197.625 472.007813 L 196.175781 472.65625 L 195.679688 473.863281 L 195.832031 474.871094 L 196.757813 475.523438 L 196.488281 476.304688 L 195.917969 475.996094 L 194.851563 473.972656 L 190.289063 470.589844 L 185.898438 468.519531 L 183.121094 467.984375 L 181.648438 469.066406 L 181.628906 469.070313 L 181.371094 468.375 L 181.265625 466.707031 L 181.476563 464.035156 L 181.089844 462.328125 L 180.425781 461.109375 L 178.929688 459.503906 L 178.125 458.40625 L 176.09375 454.828125 L 175.441406 453.058594 L 175.390625 451.171875 L 175.945313 449.367188 L 176.949219 447.976563 L 180.570313 447.503906 L 180.96875 446.117188 L 184.46875 445.652344 L 186.121094 444.96875 L 187.53125 443.773438 L 188.621094 441.96875 L 188.917969 440.921875 L 189.238281 438.300781 L 189.144531 436.289063 L 188.464844 434.511719 L 190.867188 432.195313 L 195.792969 425.3125 L 197.929688 424.472656 L 198.285156 423.78125 L 198.070313 423.238281 L 197.8125 423.082031 L 196.09375 424.355469 L 192.90625 427.300781 L 190.570313 429.988281 L 189.222656 431.449219 L 186.773438 432.476563 L 186.515625 432.175781 L 185.625 430.761719 L 185.171875 429.15625 L 185.195313 427.484375 L 185.691406 425.890625 L 186.621094 424.503906 L 188.289063 422.652344 L 188.972656 421.25 L 189.253906 419.699219 L 189.027344 417.328125 L 189.132813 415.539063 L 189.777344 413.863281 L 190.902344 412.46875 L 192.394531 411.480469 L 194.121094 410.996094 L 197.144531 410.632813 L 198.960938 409.703125 L 200.296875 408.289063 L 201.632813 405.566406 L 202.042969 403.742188 L 201.898438 401.96875 L 201.21875 400.324219 L 199.589844 398.355469 L 198.621094 396.6875 L 198.25 394.792969 L 198.523438 392.882813 L 199.402344 391.164063 L 200.796875 389.832031 L 202.550781 389.027344 L 204.46875 388.839844 L 206.347656 389.292969 L 208.984375 390.417969 L 210.785156 390.5625 L 212.542969 390.128906 L 214.964844 388.59375 L 216.746094 387.847656 L 218.675781 387.722656 L 220.539063 388.238281 L 222.128906 389.339844 L 223.273438 390.898438 L 224.605469 393.550781 L 225.976563 394.875 L 228.355469 396.023438 L 228.910156 396.328125 L 231.605469 398.011719 L 232.519531 398.28125 L 233.359375 398.359375 L 235.511719 397.988281 L 237.265625 396.996094 L 238.757813 395.347656 L 239.589844 393.28125 L 239.679688 392.433594 L 239.4375 390.285156 L 239.414063 389.253906 L 239.527344 387.488281 L 239.207031 385.300781 L 238.351563 383.4375 L 236.679688 381.597656 L 234.714844 380.363281 L 231.097656 379.457031 L 229.25 379.34375 L 227.035156 379.8125 L 225.179688 379.902344 L 223.394531 379.402344 L 221.855469 378.367188 L 220.6875 377.273438 L 219.714844 376.660156 L 218.640625 376.25 L 217.066406 375.972656 L 215.332031 375.371094 L 213.867188 374.257813 L 212.824219 372.746094 L 212.308594 370.980469 L 212.367188 369.144531 L 212.996094 367.417969 L 214.132813 365.972656 L 215.664063 364.957031 L 217.433594 364.464844 L 219.34375 364.253906 L 220.566406 363.832031 L 221.574219 363.21875 L 222.425781 362.402344 L 223.453125 360.71875 L 223.75 359.761719 L 223.921875 358.039063 L 224.242188 356.628906 L 224.898438 355.347656 L 226.203125 353.429688 L 226.640625 352.171875 L 226.730469 350.148438 L 226.226563 348.402344 L 224.242188 345.511719 L 222.066406 343.664063 L 220.960938 342.40625 L 220.257813 340.886719 L 220.015625 339.230469 L 220.015625 335.355469 L 220.386719 333.304688 L 221.460938 331.515625 L 223.09375 330.222656 L 225.121094 329.140625 L 226.230469 328.097656 L 227.035156 326.785156 L 227.453125 325.386719 L 227.511719 324.023438 L 227.207031 322.558594 L 226.601563 321.316406 Z M 132.984375 470.597656 L 134.621094 471.59375 L 136.660156 471.972656 L 138.703125 471.59375 L 141.390625 469.957031 L 143.054688 469.269531 L 144.851563 469.125 L 146.605469 469.535156 L 148.148438 470.464844 L 149.75 471.804688 L 151.082031 472.445313 L 152.53125 472.730469 L 153.878906 472.660156 L 155.378906 472.183594 L 156.582031 471.414063 L 157.636719 470.269531 L 158.65625 468.335938 L 159.710938 466.914063 L 161.144531 465.871094 L 162.824219 465.3125 L 164.597656 465.285156 L 166.292969 465.792969 L 167.761719 466.789063 L 168.859375 468.179688 L 169.488281 469.835938 L 169.589844 471.601563 L 169.457031 472.984375 L 168.992188 473.234375 L 168.214844 474.070313 L 167.203125 476.179688 L 162.746094 489.226563 L 160.929688 490.242188 L 158.269531 489.722656 L 157.554688 489.058594 L 156.527344 486.851563 L 154.683594 485.4375 L 153.613281 485.542969 L 152.417969 486.300781 L 151.738281 486.164063 L 148.46875 482.535156 L 142.796875 482.960938 L 141.527344 483.375 L 140.734375 484.175781 L 139.910156 484.507813 L 134.507813 484.320313 L 132.167969 484.859375 L 129.414063 488.195313 L 126.714844 489.746094 L 124.039063 490.597656 L 123.550781 492.589844 L 123.125 491.03125 L 122.839844 488.28125 L 122.089844 486.613281 L 120.867188 485.28125 L 119.652344 484.613281 L 121.425781 483.085938 L 124.375 479.769531 L 125.210938 477.886719 L 124.875 476.421875 L 125.640625 474.519531 L 128.386719 473.238281 L 132.105469 472.640625 L 132.679688 471.785156 Z M 286.679688 439.636719 L 283.058594 438.976563 L 282.164063 437.605469 L 282.484375 436.070313 L 286.839844 437.054688 L 287.960938 438.832031 Z M 236.835938 466.113281 L 235.136719 465.644531 L 236.523438 463.683594 L 237.195313 464.164063 L 237.5 465.839844 Z M 228.117188 474.644531 L 222.296875 470.886719 L 220.207031 471.1875 L 221.476563 469.683594 L 227.316406 466.367188 L 232.550781 467.761719 L 234.171875 469.894531 L 231.242188 473.621094 L 229.960938 474.269531 Z M 228.117188 474.644531 "/>
<path style=" stroke:none;fill-rule:nonzero;fill:rgb(80.392157%,58.431373%,4.705882%);fill-opacity:1;" d="M 196.753906 378 L 196.46875 379.796875 L 195.644531 381.417969 L 194.355469 382.703125 L 192.734375 383.53125 L 190.9375 383.816406 L 189.140625 383.53125 L 187.519531 382.703125 L 186.234375 381.417969 L 185.40625 379.796875 L 185.125 378 L 185.40625 376.203125 L 186.234375 374.582031 L 187.519531 373.296875 L 189.140625 372.46875 L 190.9375 372.183594 L 192.734375 372.46875 L 194.355469 373.296875 L 195.644531 374.582031 L 196.46875 376.203125 Z M 196.753906 378 "/>
<path style=" stroke:none;fill-rule:nonzero;fill:rgb(80.392157%,58.431373%,4.705882%);fill-opacity:1;" d="M 220.015625 284.953125 L 219.730469 286.75 L 218.90625 288.371094 L 217.617188 289.660156 L 215.996094 290.484375 L 214.199219 290.769531 L 212.402344 290.484375 L 210.78125 289.660156 L 209.496094 288.371094 L 208.667969 286.75 L 208.382813 284.953125 L 208.667969 283.15625 L 209.496094 281.535156 L 210.78125 280.25 L 212.402344 279.421875 L 214.199219 279.136719 L 215.996094 279.421875 L 217.617188 280.25 L 218.90625 281.535156 L 219.730469 283.15625 Z M 220.015625 284.953125 "/>
<path style=" stroke:none;fill-rule:nonzero;fill:rgb(80.392157%,58.431373%,4.705882%);fill-opacity:1;" d="M 196.753906 319.847656 L 196.46875 321.644531 L 195.644531 323.265625 L 194.355469 324.550781 L 192.734375 325.375 L 190.9375 325.660156 L 189.140625 325.375 L 187.519531 324.550781 L 187.007813 324.035156 L 187.28125 323.421875 L 187.71875 320.933594 L 187.855469 317.484375 L 185.164063 320.113281 L 185.125 319.847656 L 185.40625 318.050781 L 186.234375 316.429688 L 187.519531 315.140625 L 189.140625 314.316406 L 190.9375 314.03125 L 192.734375 314.316406 L 194.355469 315.140625 L 195.644531 316.429688 L 196.46875 318.050781 Z M 196.753906 319.847656 "/>
<path style=" stroke:none;fill-rule:nonzero;fill:rgb(80.392157%,58.431373%,4.705882%);fill-opacity:1;" d="M 198.90625 242.464844 L 198.234375 243.136719 L 196.613281 243.960938 L 194.816406 244.246094 L 193.019531 243.960938 L 191.398438 243.136719 L 190.109375 241.847656 L 189.285156 240.226563 L 189 238.429688 L 189.023438 238.273438 L 189.539063 238.171875 L 193.183594 238.5 Z M 198.90625 242.464844 "/>
<path style=" stroke:none;fill-rule:nonzero;fill:rgb(80.392157%,58.431373%,4.705882%);fill-opacity:1;" d="M 192.871094 238.46875 L 192.59375 240.226563 L 191.765625 241.847656 L 190.480469 243.136719 L 188.859375 243.960938 L 187.0625 244.246094 L 185.265625 243.960938 L 183.644531 243.136719 L 183.457031 242.949219 L 186.398438 241.730469 L 187.519531 239.417969 L 188.617188 238.355469 L 189.539063 238.171875 Z M 188.203125 232.796875 L 188.566406 232.855469 L 188.34375 232.882813 Z M 188.203125 232.796875 "/>
</g>
</svg>
