<?xml version="1.0" encoding="UTF-8"?>
<svg xmlns="http://www.w3.org/2000/svg" xmlns:xlink="http://www.w3.org/1999/xlink" width="378pt" height="504pt" viewBox="0 0 378 504" version="1.1">
<g id="data">
<rect x="0" y="0" width="378" height="504" style="fill:rgb(100%,100%,100%);fill-opacity:1;stroke:none;"/>
<path style=" stroke:none;fill-rule:nonzero;fill:rgb(100%,100%,100%);fill-opacity:1;" d="M 53.308594 504 L 324.691406 504 L 324.691406 0 L 53.308594 0 Z M 53.308594 504 "/>
<path style=" stroke:none;fill-rule:nonzero;fill:rgb(80.392157%,58.431373%,4.705882%);fill-opacity:1;" d="M 254.90625 416.769531 L 254.625 418.566406 L 253.796875 420.1875 L 252.511719 421.472656 L 250.890625 422.300781 L 249.09375 422.585938 L 247.296875 422.300781 L 245.675781 421.472656 L 244.386719 420.1875 L 243.5625 418.566406 L 243.277344 416.769531 L 243.5625 414.972656 L 244.386719 413.351563 L 245.675781 412.066406 L 247.296875 411.238281 L 249.09375 410.953125 L 250.890625 411.238281 L 252.511719 412.066406 L 253.796875 413.351563 L 254.625 414.972656 Z M 254.90625 416.769531 "/>
<path style=" stroke:none;fill-rule:nonzero;fill:rgb(80.392157%,58.431373%,4.705882%);fill-opacity:1;" d="M 235.523438 443.90625 L 235.238281 445.703125 L 234.414063 447.324219 L 233.125 448.613281 L 231.503906 449.4375 L 229.707031 449.722656 L 227.910156 449.4375 L 226.289063 448.613281 L 225.003906 447.324219 L 224.175781 445.703125 L 223.890625 443.90625 L 224.175781 442.109375 L 225.003906 440.488281 L 226.289063 439.203125 L 227.910156 438.375 L 229.707031 438.09375 L 231.503906 438.375 L 233.125 439.203125 L 234.414063 440.488281 L 235.238281 442.109375 Z M 235.523438 443.90625 "/>
</g>
</svg>
