<?xml version="1.0" encoding="UTF-8"?>
<svg xmlns="http://www.w3.org/2000/svg" xmlns:xlink="http://www.w3.org/1999/xlink" width="378pt" height="504pt" viewBox="0 0 378 504" version="1.1">
<g id="data">
<rect x="0" y="0" width="378" height="504" style="fill:rgb(100%,100%,100%);fill-opacity:1;stroke:none;"/>
<path style=" stroke:none;fill-rule:nonzero;fill:rgb(100%,100%,100%);fill-opacity:1;" d="M 53.308594 504 L 324.691406 504 L 324.691406 0 L 53.308594 0 Z M 53.308594 504 "/>
<path style=" stroke:none;fill-rule:nonzero;fill:rgb(22.745098%,53.333333%,16.078431%);fill-opacity:1;" d="M 241.339844 308.214844 L 242.476563 310.792969 L 244.199219 313.019531 L 246.515625 314.832031 L 249.09375 315.96875 L 250.800781 318.140625 L 252.96875 319.847656 L 252.96875 323.722656 L 251.183594 326.382813 L 250.1875 329.429688 L 250.019531 331.992188 L 250.414063 334.527344 L 251.417969 337.027344 L 252.214844 338.160156 L 245.550781 339.511719 L 244.589844 338.644531 L 243.40625 338.558594 L 241.210938 339.871094 L 241.886719 340.445313 L 246.324219 340.394531 L 249.617188 339.34375 L 251.976563 339.082031 L 253.097656 340.699219 L 253.257813 342.539063 L 254.46875 345.632813 L 257.074219 348.773438 L 260.722656 350.863281 L 261.5 354.1875 L 263.285156 357.242188 L 266.21875 360.695313 L 268.476563 362.492188 L 269.320313 364.25 L 269.210938 365.21875 L 264.953125 369.09375 L 261.394531 373.164063 L 260.601563 374.816406 L 262.84375 374.3125 L 264.9375 375.519531 L 266.9375 378.226563 L 270.21875 378.804688 L 270.625 378.746094 L 271.910156 376.796875 L 272.234375 374.960938 L 273.40625 371.914063 L 274.707031 370.632813 L 277.851563 370.085938 L 277.878906 370.085938 L 278.441406 370.222656 L 283.347656 370.234375 L 284.253906 370.867188 L 286.703125 370.742188 L 293.949219 371.515625 L 296.015625 372.441406 L 296.023438 372.488281 L 296.804688 374.496094 L 298.019531 376.429688 L 299.492188 378 L 299.808594 381.433594 L 301.121094 384.621094 L 303.792969 387.703125 L 307.074219 389.535156 L 307.179688 391.25 L 306.777344 393.191406 L 306.882813 393.945313 L 304.984375 396.230469 L 303.679688 399.386719 L 303.21875 402.636719 L 303.371094 405.136719 L 300.039063 406.765625 L 297.46875 409.253906 L 295.84375 412.441406 L 295.578125 412.011719 L 292.742188 410.515625 L 292.480469 410.636719 L 293.898438 413.703125 L 294.300781 414.296875 L 294.140625 414.464844 L 292.925781 416.394531 L 292.148438 418.402344 L 291.738281 420.644531 L 289.46875 421.046875 L 289.347656 421.09375 L 288.214844 419.332031 L 284.976563 421.730469 L 280.71875 424.230469 L 282.339844 425.378906 L 283.664063 424.910156 L 282.078125 427.335938 L 281.101563 430.644531 L 281.074219 432.402344 L 279.644531 432.160156 L 274.75 433.78125 L 272.609375 436.117188 L 274.253906 436.015625 L 275.152344 434.667969 L 276.683594 434.363281 L 278.285156 434.328125 L 281.054688 434.949219 L 281.480469 435.300781 L 281.6875 436.203125 L 281.707031 436.242188 L 281.691406 436.328125 L 279.554688 436.347656 L 277.390625 437.65625 L 277.96875 438.546875 L 281.382813 438.964844 L 283.660156 439.535156 L 284.78125 440.847656 L 287.375 442.660156 L 290.355469 443.710938 L 293.488281 444.070313 L 299.492188 443.90625 L 299.492188 447.785156 L 297.25 448.191406 L 295.242188 448.972656 L 293.3125 450.1875 L 291.738281 451.660156 L 289.863281 449.960938 L 287.660156 448.707031 L 281.632813 447.21875 L 277.578125 447.398438 L 273.171875 449.113281 L 271.429688 450.433594 L 269.890625 452.15625 L 268.773438 454.035156 L 268.03125 456.089844 L 267.671875 459.535156 L 268.476563 463.292969 L 268.476563 466.5625 L 267.285156 466.203125 L 265.535156 464.78125 L 261.980469 463.464844 L 258.972656 463.132813 L 249.09375 463.292969 L 245.378906 461.925781 L 241.425781 461.882813 L 239.199219 462.472656 L 237.398438 463.289063 L 231.496094 463.171875 L 231.378906 463.496094 L 232.574219 464.835938 L 232.214844 465.75 L 231.738281 466.042969 L 226.691406 465.496094 L 219.566406 468.449219 L 217.054688 467.824219 L 210.222656 468.96875 L 208.164063 468.875 L 207.273438 468.058594 L 206.238281 469.769531 L 209.429688 471.089844 L 209.714844 470.9375 L 210.1875 472.128906 L 209.566406 473.890625 L 206.84375 474.453125 L 204.453125 473.097656 L 203.015625 472.699219 L 197.625 472.007813 L 196.175781 472.65625 L 195.679688 473.863281 L 195.832031 474.871094 L 196.757813 475.523438 L 196.488281 476.304688 L 195.917969 475.996094 L 194.851563 473.972656 L 192.882813 472.511719 L 191.9375 471.140625 L 189.832031 469.257813 L 187.695313 468.078125 L 185.230469 467.351563 L 181.433594 467.007813 L 178.425781 467.277344 L 175.984375 467.945313 L 173.742188 469.125 L 172.078125 470.492188 L 170.203125 472.578125 L 168.992188 473.234375 L 168.214844 474.070313 L 167.203125 476.179688 L 164.75 483.359375 L 163.425781 483.867188 L 161.597656 485.003906 L 159.921875 486.554688 L 156.136719 486.554688 L 154.683594 485.4375 L 153.613281 485.542969 L 152.417969 486.300781 L 151.738281 486.164063 L 148.46875 482.535156 L 145.113281 482.785156 L 142.316406 482.148438 L 139.394531 482.066406 L 135.695313 483.019531 L 132.820313 484.6875 L 132.792969 484.714844 L 132.167969 484.859375 L 129.414063 488.195313 L 126.714844 489.746094 L 124.558594 490.429688 L 121.152344 490.429688 L 121.820313 486.554688 L 121.25 483.238281 L 121.425781 483.085938 L 124.375 479.769531 L 125.210938 477.886719 L 124.875 476.421875 L 125.476563 474.921875 L 132.785156 474.921875 L 135.496094 476.058594 L 138.535156 476.480469 L 141.578125 476.09375 L 144.414063 474.921875 L 147.777344 476.179688 L 151.359375 476.351563 L 153.867188 475.796875 L 156.300781 474.640625 L 158.3125 473.042969 L 159.921875 471.046875 L 165.855469 470.984375 L 169.429688 469.957031 L 172.015625 468.285156 L 174.003906 466.101563 L 175.375 463.484375 L 176.054688 460.480469 L 175.964844 457.65625 L 174.789063 452.570313 L 173.472656 449.972656 L 172.136719 448.449219 L 173.15625 448.464844 L 174.402344 448.304688 L 175.175781 448.445313 L 179.308594 447.785156 L 182.214844 448.300781 L 185.28125 448.039063 L 187.476563 447.320313 L 189.382813 446.25 L 191.054688 444.847656 L 192.507813 443.046875 L 193.949219 439.902344 L 194.402344 436.46875 L 194.128906 434.175781 L 193.460938 432.097656 L 192.359375 430.105469 L 195.792969 425.3125 L 197.929688 424.472656 L 198.285156 423.78125 L 198.070313 423.238281 L 197.8125 423.082031 L 196.09375 424.355469 L 192.90625 427.300781 L 191.4375 428.992188 L 190.9375 428.398438 L 191.824219 426.40625 L 192.324219 424.277344 L 192.417969 422.097656 L 192.101563 419.9375 L 191.332031 417.757813 L 190.222656 415.875 L 188.785156 414.234375 L 187.0625 412.890625 L 186.6875 410.769531 L 185.871094 408.640625 L 184.65625 406.710938 L 183.183594 405.136719 L 186.269531 402.257813 L 188.089844 398.589844 L 188.515625 396.316406 L 188.480469 394.007813 L 187.988281 391.746094 L 187.0625 389.628906 L 189.28125 387.171875 L 190.675781 384.308594 L 191.242188 381.171875 L 190.9375 378 L 194.109375 378.304688 L 197.246094 377.738281 L 200.214844 376.269531 L 202.570313 374.125 L 204.933594 375.128906 L 207.328125 375.578125 L 209.769531 375.523438 L 212.140625 374.957031 L 215.503906 373.097656 L 218.078125 370.246094 L 220.960938 369.652344 L 223.601563 368.355469 L 226.636719 365.4375 L 228.328125 362 L 228.816406 358.328125 L 227.992188 354.328125 L 225.832031 350.863281 L 227 348.027344 L 227.390625 344.980469 L 227 342.066406 L 225.832031 339.230469 L 225.992188 333.226563 L 225.683594 330.34375 L 224.960938 327.917969 L 223.65625 325.601563 L 220.335938 321.640625 L 218.078125 319.847656 L 220.601563 319.367188 L 222.960938 318.347656 L 225.039063 316.832031 L 226.734375 314.898438 L 227.914063 312.761719 L 228.640625 310.296875 L 228.8125 307.730469 L 228.414063 305.191406 L 231.082031 307.382813 L 234.402344 308.726563 L 237.972656 308.996094 Z M 282.234375 437.28125 L 282.960938 438.714844 L 283.203125 439 L 283.058594 438.976563 L 282.164063 437.605469 Z M 236.527344 463.6875 L 236.515625 463.691406 L 236.523438 463.683594 Z M 231.871094 467.578125 L 231.335938 468.300781 L 230.355469 470.386719 L 229.804688 472.621094 L 229.734375 474.316406 L 229.152344 474.433594 L 227.519531 473.003906 L 224.921875 471.6875 L 222.890625 471.269531 L 222.296875 470.886719 L 221.546875 470.992188 L 220.695313 470.820313 L 220.515625 470.816406 L 221.476563 469.683594 L 227.316406 466.367188 Z M 187.003906 232.078125 L 187.0625 230.675781 L 187.917969 232.617188 L 187.070313 232.078125 Z M 192.425781 238.429688 L 188.539063 238.429688 L 188.617188 238.355469 L 189.539063 238.171875 Z M 192.425781 238.429688 "/>
</g>
</svg>
