<?xml version="1.0" encoding="UTF-8"?>
<svg xmlns="http://www.w3.org/2000/svg" xmlns:xlink="http://www.w3.org/1999/xlink" width="378pt" height="504pt" viewBox="0 0 378 504" version="1.1">
<g id="data">
<rect x="0" y="0" width="378" height="504" style="fill:rgb(100%,100%,100%);fill-opacity:1;stroke:none;"/>
<path style=" stroke:none;fill-rule:nonzero;fill:rgb(100%,100%,100%);fill-opacity:1;" d="M 53.308594 504 L 324.691406 504 L 324.691406 0 L 53.308594 0 Z M 53.308594 504 "/>
<path style=" stroke:none;fill-rule:nonzero;fill:rgb(22.745098%,53.333333%,16.078431%);fill-opacity:1;" d="M 163.800781 207.414063 L 166.234375 209.300781 L 169.074219 210.484375 L 172.257813 210.878906 L 175.300781 210.425781 L 177.449219 209.566406 L 179.382813 208.300781 L 181.03125 206.679688 L 182.324219 204.761719 L 183.210938 202.628906 L 183.660156 200.359375 L 183.652344 198.050781 L 183.183594 195.785156 L 187.0625 196.449219 L 190.9375 195.785156 L 193.402344 196.820313 L 195.910156 197.257813 L 199.703125 196.871094 L 198.488281 199.402344 L 197.90625 202.277344 L 198 204.828125 L 198.691406 207.414063 L 198.691406 208.167969 L 197.078125 210.023438 L 197.433594 210.839844 L 197.785156 210.703125 L 197.761719 211.238281 L 197.582031 211.832031 L 196.730469 212.242188 L 194.980469 213.542969 L 193.507813 215.148438 L 192.355469 217 L 191.570313 219.03125 L 191.480469 219.523438 L 191.214844 219.742188 L 185.519531 221.085938 L 182.847656 221.226563 L 177.804688 225.21875 L 178.117188 225.714844 L 179.84375 225.195313 L 184.609375 222.886719 L 186.457031 221.386719 L 187.289063 221.316406 L 189.085938 221.875 L 189.332031 222.921875 L 188.898438 224.691406 L 189.238281 225.953125 L 190.898438 226.824219 L 192.320313 227.074219 L 192.871094 228.300781 L 194.019531 229.703125 L 192.117188 231.570313 L 189.460938 232.730469 L 188.34375 232.882813 L 187.070313 232.078125 L 185.40625 232.042969 L 181.046875 235.800781 L 180.578125 237.003906 L 174.761719 240.109375 L 170.214844 238.117188 L 166.480469 238.003906 L 166.738281 239.222656 L 168.246094 240.195313 L 178.0625 241.875 L 182.921875 243.167969 L 186.398438 241.730469 L 187.519531 239.417969 L 188.617188 238.355469 L 189.539063 238.171875 L 193.183594 238.5 L 198.390625 242.105469 L 200.3125 244.386719 L 202.570313 246.183594 L 204.640625 248.703125 L 206.445313 250.0625 L 206.855469 252.304688 L 207.691406 254.425781 L 208.851563 256.242188 L 210.324219 257.816406 L 211.207031 259.945313 L 212.578125 261.957031 L 215.066406 264.160156 L 218.078125 265.570313 L 217.929688 275.828125 L 218.761719 280.289063 L 220.105469 282.871094 L 221.953125 284.953125 L 222.367188 288.757813 L 223.925781 292.117188 L 226.175781 294.519531 L 229.304688 299.0625 L 230.089844 299.429688 L 230.117188 299.644531 L 226.777344 300.132813 L 222.664063 301.859375 L 219.964844 304.226563 L 218.113281 307.300781 L 217.375 310.027344 L 217.316406 312.851563 L 218.453125 318.898438 L 219.613281 321.746094 L 220.871094 323.53125 L 222.542969 325.132813 L 224.382813 326.308594 L 226.53125 327.15625 L 228.808594 327.566406 L 231.5 327.5625 L 233.757813 327.113281 L 235.769531 326.285156 L 237.890625 324.855469 L 239.648438 322.996094 L 240.792969 321.144531 L 242.367188 317.503906 L 242.832031 315.246094 L 242.832031 312.816406 L 242.328125 310.4375 L 241.339844 308.214844 L 245.214844 308.214844 L 245.597656 311.898438 L 247.1875 315.378906 L 249.71875 318.078125 L 252.96875 319.847656 L 252.96875 323.722656 L 252.386719 326.199219 L 252.347656 328.617188 L 253.34375 333.597656 L 254.394531 336.175781 L 256.03125 338.433594 L 259.035156 341.152344 L 261.75 342.507813 L 263.398438 342.855469 L 263.640625 343.980469 L 263.109375 344.753906 L 262.898438 344.984375 L 262.835938 345.09375 L 263.28125 343.65625 L 262.507813 342.839844 L 260.445313 342 L 258.378906 342.789063 L 257.507813 342.753906 L 256.035156 341.773438 L 253.664063 338.65625 L 252.601563 338.082031 L 245.550781 339.511719 L 244.589844 338.644531 L 243.40625 338.558594 L 241.210938 339.871094 L 241.886719 340.445313 L 246.324219 340.394531 L 249.617188 339.34375 L 251.976563 339.082031 L 254.382813 342.558594 L 260.535156 347.621094 L 261.410156 348.121094 L 259.976563 353.851563 L 259.949219 356.164063 L 260.34375 358.3125 L 261.191406 360.464844 L 262.445313 362.40625 L 265.199219 364.902344 L 268.121094 366.210938 L 264.953125 369.09375 L 261.394531 373.164063 L 260.601563 374.816406 L 262.84375 374.3125 L 264.9375 375.519531 L 266.9375 378.226563 L 270.21875 378.804688 L 270.625 378.746094 L 271.910156 376.796875 L 272.234375 374.960938 L 273.40625 371.914063 L 274.359375 370.972656 L 274.902344 371.238281 L 277.042969 371.675781 L 279.222656 371.703125 L 281.746094 371.214844 L 283.601563 370.410156 L 284.253906 370.867188 L 286.703125 370.742188 L 288.40625 370.925781 L 289.75 372.59375 L 294.03125 376.113281 L 296.644531 377.402344 L 299.492188 378 L 301.199219 380.171875 L 303.371094 381.875 L 305.4375 384.394531 L 306.8125 385.425781 L 307.179688 391.25 L 306.777344 393.191406 L 306.890625 393.976563 L 305.789063 396.917969 L 305.167969 399.90625 L 304.558594 400.886719 L 303.777344 402.894531 L 303.371094 405.136719 L 301.894531 406.710938 L 300.679688 408.640625 L 299.902344 410.648438 L 299.679688 411.867188 L 297.144531 414.53125 L 295.578125 412.011719 L 292.742188 410.515625 L 292.480469 410.636719 L 293.898438 413.703125 L 295.890625 416.628906 L 296.3125 416.765625 L 296.164063 417.742188 L 294.574219 419.804688 L 292.191406 421.289063 L 290.003906 421.65625 L 289.660156 421.574219 L 288.214844 419.332031 L 284.976563 421.730469 L 280.71875 424.230469 L 282.339844 425.378906 L 285.105469 424.398438 L 286.097656 423.375 L 286.894531 423.164063 L 287.328125 423.710938 L 287.632813 428.84375 L 285.6875 430.875 L 283.441406 432.558594 L 282.84375 432.699219 L 279.644531 432.160156 L 274.75 433.78125 L 272.609375 436.117188 L 274.253906 436.015625 L 275.152344 434.667969 L 276.683594 434.363281 L 278.285156 434.328125 L 281.054688 434.949219 L 281.828125 435.589844 L 281.691406 436.328125 L 279.554688 436.347656 L 277.390625 437.65625 L 277.96875 438.546875 L 281.382813 438.964844 L 286.863281 440.339844 L 289.394531 439.9375 L 291.074219 438.957031 L 296.363281 438.226563 L 299.492188 440.03125 L 299.492188 447.785156 L 297.320313 449.492188 L 296.707031 450.273438 L 295.839844 450.375 L 292.621094 451.640625 L 291.179688 452.742188 L 289.847656 454.226563 L 289.460938 455.09375 L 289.214844 456.324219 L 289.246094 456.523438 L 289 456.839844 L 288.480469 458.011719 L 286.253906 458.289063 L 284.1875 457.9375 L 282.179688 459.832031 L 279.734375 460.605469 L 277.902344 461.742188 L 277.371094 462.1875 L 274.789063 462.777344 L 272.597656 463.816406 L 270.539063 466.589844 L 269.761719 466.949219 L 267.261719 466.195313 L 265.421875 464.71875 L 261.730469 463.417969 L 258.972656 463.132813 L 249.714844 463.203125 L 247.09375 463.632813 L 244.953125 464.425781 L 243.011719 465.617188 L 241.339844 467.167969 L 240.144531 467.398438 L 238.210938 466.1875 L 238.632813 465.4375 L 239.46875 464.933594 L 237.714844 463.296875 L 231.496094 463.171875 L 231.378906 463.496094 L 232.574219 464.835938 L 232.214844 465.75 L 231.738281 466.042969 L 226.691406 465.496094 L 220.808594 467.933594 L 220.523438 467.808594 L 217.355469 467.363281 L 214.308594 467.765625 L 212.070313 468.660156 L 210.222656 468.96875 L 208.164063 468.875 L 207.273438 468.058594 L 206.238281 469.769531 L 209.050781 470.929688 L 207.671875 472.527344 L 206.722656 474.382813 L 204.453125 473.097656 L 203.015625 472.699219 L 197.625 472.007813 L 196.175781 472.65625 L 195.679688 473.863281 L 195.78125 474.523438 L 195.257813 474.742188 L 194.851563 473.972656 L 194.078125 473.398438 L 193.863281 472.960938 L 192.5625 471.210938 L 189.222656 468.644531 L 185.1875 467.433594 L 183.007813 467.402344 L 180.859375 467.773438 L 177.699219 469.167969 L 177.101563 469.664063 L 176.207031 469.78125 L 174.339844 470.335938 L 168.992188 473.234375 L 168.214844 474.070313 L 167.203125 476.179688 L 163.601563 486.714844 L 161.28125 488.625 L 160.175781 490.09375 L 159.558594 489.972656 L 158.125 488.171875 L 154.574219 485.160156 L 152.769531 483.980469 L 150.78125 483.15625 L 148.746094 482.839844 L 148.46875 482.535156 L 147.324219 482.621094 L 146.667969 482.519531 L 138.285156 482.519531 L 135.53125 482.824219 L 133.335938 483.453125 L 131.414063 484.425781 L 126.476563 488.53125 L 125.121094 490.25 L 124.039063 490.597656 L 123.671875 492.09375 L 122.578125 493.484375 L 121.632813 495.699219 L 121.300781 497.433594 L 120.660156 497.648438 L 120.394531 498.1875 L 118.265625 498.199219 L 117.96875 497.691406 L 118.09375 496.4375 L 117.15625 494.691406 L 115.984375 493.691406 L 113.386719 492.5625 L 112.097656 491.566406 L 109.523438 490.429688 L 112.492188 489.789063 L 115.191406 488.402344 L 119.082031 485.195313 L 119.347656 484.875 L 121.425781 483.085938 L 123.328125 480.949219 L 123.414063 480.878906 L 123.613281 480.625 L 124.375 479.769531 L 124.480469 479.53125 L 127.480469 475.746094 L 128.425781 473.535156 L 128.488281 473.222656 L 132.105469 472.640625 L 132.679688 471.785156 L 133.203125 469.746094 L 134.152344 469.296875 L 136.046875 467.8125 L 138.582031 464.980469 L 139.667969 462.976563 L 140.339844 460.796875 L 140.691406 457.917969 L 140.539063 455.539063 L 142.601563 455.164063 L 144.269531 456.015625 L 145.761719 455.429688 L 148.429688 452.488281 L 148.371094 451.617188 L 151.515625 449.828125 L 154.0625 446.960938 L 154.28125 446.4375 L 157.421875 446.269531 L 159.910156 445.683594 L 164.597656 446.761719 L 166.046875 446.148438 L 167.527344 446.515625 L 169.484375 447.285156 L 170.039063 448.109375 L 170.757813 448.421875 L 173.15625 448.464844 L 180.570313 447.503906 L 181.109375 445.632813 L 181.210938 443.15625 L 182.519531 440.25 L 190.867188 432.195313 L 195.792969 425.3125 L 197.929688 424.472656 L 198.285156 423.78125 L 198.070313 423.238281 L 197.8125 423.082031 L 196.09375 424.355469 L 192.90625 427.300781 L 190.570313 429.988281 L 189.222656 431.449219 L 185.628906 432.957031 L 183.714844 433.246094 L 182.441406 433.0625 L 178.394531 435.230469 L 177.398438 436.808594 L 177.039063 438.671875 L 176.445313 439.273438 L 174.058594 439.917969 L 170.558594 439.851563 L 166.820313 439 L 166.347656 438.652344 L 161.371094 433.375 L 159.03125 429.199219 L 155.65625 429.589844 L 151.503906 431.355469 L 150.808594 430.46875 L 148.378906 428.46875 L 148.539063 428.378906 L 150.066406 428.890625 L 151.640625 428.421875 L 152.765625 427.832031 L 153.085938 427.097656 L 152.808594 426.597656 L 147.953125 426.464844 L 147.917969 426.277344 L 147.101563 424.148438 L 145.886719 422.21875 L 144.414063 420.644531 L 143.648438 418.605469 L 142.4375 416.644531 L 140.265625 414.46875 L 137.480469 412.890625 L 139.742188 411.691406 L 141.691406 410.023438 L 143.351563 407.746094 L 144.414063 405.136719 L 145.445313 404.328125 L 148.414063 402.433594 L 148.671875 404.941406 L 150.261719 408.425781 L 152.792969 411.125 L 156.046875 412.890625 L 155.582031 415.15625 L 155.558594 417.339844 L 155.984375 419.613281 L 156.847656 421.757813 L 158.800781 424.457031 L 161.441406 426.492188 L 163.929688 427.535156 L 166.71875 427.980469 L 169.53125 427.742188 L 172.085938 426.886719 L 174.378906 425.46875 L 176.5625 423.296875 L 178.042969 420.902344 L 178.878906 418.34375 L 178.976563 414.257813 L 177.652344 410.390625 L 175.070313 407.21875 L 171.554688 405.136719 L 172.5625 401.835938 L 172.578125 398.507813 L 171.648438 395.3125 L 169.851563 392.511719 L 166.898438 390.066406 L 163.433594 388.742188 L 159.605469 388.585938 L 156.046875 389.628906 L 156.695313 386.390625 L 156.40625 383.101563 L 155.101563 379.488281 L 153.042969 376.703125 L 152.503906 376.300781 L 152.683594 374.835938 L 153.175781 374.082031 L 152.804688 373.207031 L 150.203125 373.105469 L 147.675781 373.71875 L 147.238281 373.558594 L 143.78125 373.351563 L 140.539063 374.125 L 142.6875 372.285156 L 143.472656 371.183594 L 147.132813 367.984375 L 147.953125 364.523438 L 151.550781 360.582031 L 153.09375 359.609375 L 154.941406 359.808594 L 158.367188 358.355469 L 162.175781 358.773438 L 166.40625 358.097656 L 167.246094 357.707031 L 167.339844 357.714844 L 172.597656 355.179688 L 173.933594 355.046875 L 174.484375 355.082031 L 179.910156 359.441406 L 180.433594 358.429688 L 177.679688 353.460938 L 178.242188 352.835938 L 180.867188 352.449219 L 181.503906 352.695313 L 181.914063 353.875 L 182.898438 354.332031 L 184.078125 356.789063 L 185.613281 357.902344 L 188.359375 357.621094 L 190.335938 355.148438 L 189.90625 355.050781 L 188.667969 355.527344 L 188.3125 355.957031 L 186.378906 356.386719 L 183.8125 354.640625 L 179.976563 346.332031 L 180.234375 345.867188 L 181.570313 344.261719 L 182.742188 341.378906 L 183.371094 340.257813 L 185.429688 339.015625 L 185.140625 338.578125 L 183.15625 338.484375 L 183.332031 336.726563 L 183.066406 332.925781 L 182.402344 330.457031 L 182.304688 330.265625 L 184.695313 329.191406 L 187.28125 323.421875 L 187.71875 320.933594 L 187.855469 317.484375 L 184.742188 320.527344 L 179.199219 323.441406 L 177.335938 322.691406 L 175.222656 319.03125 L 174.871094 317.117188 L 173.542969 314.386719 L 172.542969 313.230469 L 172.289063 311.832031 L 171.574219 310.78125 L 171.703125 301.835938 L 171.4375 298.023438 L 170.773438 295.664063 L 174.074219 288.722656 L 174.167969 288.628906 L 174.28125 288.691406 L 176.359375 289.367188 L 178.65625 289.648438 L 180.960938 289.464844 L 183.183594 288.832031 L 186.074219 288.953125 L 183.628906 289.648438 L 181.292969 290.929688 L 178.949219 293.078125 L 177.421875 295.140625 L 176.382813 297.488281 L 175.875 300.136719 L 175.96875 302.703125 L 176.671875 305.304688 L 178.5 308.390625 L 181.183594 310.773438 L 183.484375 311.914063 L 185.980469 312.523438 L 188.546875 312.570313 L 190.9375 312.09375 L 192.164063 314.488281 L 193.816406 316.445313 L 195.855469 317.996094 L 198.1875 319.0625 L 200.566406 319.582031 L 203.128906 319.578125 L 205.628906 319.011719 L 207.945313 317.914063 L 210.324219 315.96875 L 213.136719 314.445313 L 214.9375 312.808594 L 216.773438 310.03125 L 217.746094 306.851563 L 217.855469 304.289063 L 217.402344 301.765625 L 216.144531 298.960938 L 214.199219 296.585938 L 213.96875 293.527344 L 212.945313 290.636719 L 211.777344 288.796875 L 210.195313 287.128906 L 208.421875 285.863281 L 206.445313 284.953125 L 208.882813 282.871094 L 210.605469 280.320313 L 211.597656 277.40625 L 211.789063 274.335938 L 211.125 271.199219 L 209.304688 267.375 L 207.445313 265.089844 L 204.957031 263.285156 L 201.332031 262.042969 L 197.496094 262.050781 L 193.871094 263.300781 L 190.9375 265.570313 L 189.992188 263.179688 L 188.546875 261.058594 L 186.667969 259.304688 L 184.453125 258.003906 L 182.257813 257.277344 L 179.960938 257 L 177.65625 257.179688 L 175.429688 257.816406 L 173.683594 256.515625 L 171.605469 255.519531 L 169.496094 254.972656 L 167.195313 254.832031 L 163.085938 255.753906 L 159.574219 258.078125 L 157.121094 261.5 L 156.046875 265.570313 L 153.332031 264.433594 L 150.292969 264.011719 L 147.25 264.398438 L 144.414063 265.570313 L 140.625 265.570313 L 140.664063 265.503906 L 142.933594 264.34375 L 143.46875 263.882813 L 143.644531 263.800781 L 143.683594 263.703125 L 144.980469 262.597656 L 146.636719 260.316406 L 147.660156 257.828125 L 148.097656 254.660156 L 147.652344 251.492188 L 146.429688 248.671875 L 144.414063 246.183594 L 145.886719 244.613281 L 146.777344 243.199219 L 148.300781 243.253906 L 147.054688 242.757813 L 147.101563 242.683594 L 147.917969 240.550781 L 148.292969 238.429688 L 152.167969 238.429688 L 154.53125 239.433594 L 157.058594 239.898438 L 159.367188 239.828125 L 161.621094 239.304688 L 164.054688 238.148438 L 166.066406 236.550781 L 168.628906 233.34375 L 169.835938 231.085938 L 170.539063 228.492188 L 170.617188 225.679688 L 170.058594 223.046875 L 168.910156 220.617188 L 167.234375 218.515625 L 165.121094 216.855469 L 162.5625 215.683594 L 159.921875 215.167969 L 160.589844 211.292969 L 159.921875 207.414063 L 162.28125 206.214844 Z M 233.265625 471.046875 L 225.832031 471.046875 L 223.453125 469.101563 L 222.917969 468.863281 L 227.316406 466.367188 L 232.550781 467.761719 L 234.171875 469.894531 Z M 145.589844 363.261719 L 145.363281 361.5 L 144.328125 358.875 L 142.6875 356.574219 L 142.097656 356.074219 L 142.125 355.394531 L 143.375 355.910156 L 146.289063 356.296875 L 149.332031 355.910156 L 150.90625 355.257813 L 151.039063 355.578125 L 153.886719 356.164063 L 154.894531 357 L 155.167969 357.109375 L 154.066406 358.859375 L 150.984375 360.816406 L 147.425781 363.976563 L 146.109375 363.875 Z M 164.804688 289.339844 L 163.75 288.800781 L 160.601563 288.175781 L 162.898438 287.0625 L 164.988281 285.382813 L 166.570313 283.378906 L 167.675781 281.078125 L 168.621094 283.464844 L 169.332031 284.511719 L 168.226563 288.992188 L 166.234375 288.695313 Z M 175.429688 168.644531 L 177.601563 166.9375 L 178.15625 166.230469 L 178.648438 166.167969 L 179.285156 167.089844 L 179.308594 167.105469 L 179.308594 168.644531 Z M 156.046875 176.398438 L 158.320313 176.707031 L 160.609375 176.5625 L 162.949219 175.925781 L 164.996094 174.886719 L 163.113281 178.0625 L 162.324219 181.667969 L 159.664063 178.460938 Z M 286.679688 439.636719 L 283.058594 438.976563 L 282.164063 437.605469 L 282.484375 436.070313 L 286.839844 437.054688 L 287.960938 438.832031 Z M 236.835938 466.113281 L 235.136719 465.644531 L 236.523438 463.683594 L 237.195313 464.164063 L 237.5 465.839844 Z M 236.835938 466.113281 "/>
</g>
</svg>
