<?xml version="1.0" encoding="UTF-8"?>
<svg xmlns="http://www.w3.org/2000/svg" xmlns:xlink="http://www.w3.org/1999/xlink" width="378pt" height="504pt" viewBox="0 0 378 504" version="1.1">
<g id="data">
<rect x="0" y="0" width="378" height="504" style="fill:rgb(100%,100%,100%);fill-opacity:1;stroke:none;"/>
<path style=" stroke:none;fill-rule:nonzero;fill:rgb(100%,100%,100%);fill-opacity:1;" d="M 53.308594 504 L 324.691406 504 L 324.691406 0 L 53.308594 0 Z M 53.308594 504 "/>
<path style=" stroke:none;fill-rule:nonzero;fill:rgb(22.745098%,53.333333%,16.078431%);fill-opacity:1;" d="M 172.144531 292.78125 L 174.085938 293.023438 L 176.628906 292.777344 L 180.296875 291.324219 L 177.171875 295.589844 L 176.34375 297.613281 L 175.910156 299.75 L 175.894531 302.0625 L 176.332031 304.332031 L 177.214844 306.46875 L 178.5 308.390625 L 181.078125 310.703125 L 184.21875 312.15625 L 187.648438 312.617188 L 190.9375 312.09375 L 191.957031 314.164063 L 193.363281 315.992188 L 195.105469 317.507813 L 197.109375 318.648438 L 200.4375 319.566406 L 203.765625 319.488281 L 207.503906 318.175781 L 210.324219 315.96875 L 213.9375 313.804688 L 216.359375 310.828125 L 217.679688 307.230469 L 217.855469 304.289063 L 217.285156 301.398438 L 216.007813 298.746094 L 214.199219 296.585938 L 214.503906 293.414063 L 213.9375 290.277344 L 212.46875 287.308594 L 210.324219 284.953125 L 214.199219 284.953125 L 218.078125 285.617188 L 221.953125 284.953125 L 221.640625 287.871094 L 222.066406 290.769531 L 223.542969 294.019531 L 225.832031 296.585938 L 226.21875 300.316406 L 223.105469 301.59375 L 220.566406 303.558594 L 218.664063 306.140625 L 217.539063 309.144531 L 217.292969 312.597656 L 218.078125 315.96875 L 217.585938 318.488281 L 217.679688 321.183594 L 218.597656 324.257813 L 220.316406 326.960938 L 222.601563 329.023438 L 225.46875 330.457031 L 228.492188 331.042969 L 231.6875 330.792969 L 235.25 329.355469 L 237.460938 327.601563 L 240.15625 326.164063 L 242.136719 324.367188 L 243.472656 322.503906 L 244.453125 320.289063 L 244.941406 318.050781 L 244.980469 315.753906 L 246.6875 317.363281 L 248.605469 318.601563 L 250.726563 319.4375 L 252.96875 319.847656 L 252.96875 323.722656 L 252.308594 327.855469 L 253.277344 333.351563 L 254.652344 336.617188 L 256.847656 339.230469 L 256.628906 342.167969 L 256.035156 341.773438 L 253.664063 338.65625 L 252.601563 338.082031 L 245.550781 339.511719 L 244.589844 338.644531 L 243.40625 338.558594 L 241.210938 339.871094 L 241.886719 340.445313 L 246.324219 340.394531 L 249.617188 339.34375 L 251.976563 339.082031 L 254.382813 342.558594 L 257.027344 344.734375 L 257.46875 346.496094 L 258.796875 348.820313 L 260.722656 350.863281 L 259.796875 352.980469 L 259.320313 355.109375 L 259.25 357.292969 L 259.625 359.574219 L 261.214844 363.070313 L 262.691406 364.847656 L 264.601563 366.371094 L 265.753906 368.367188 L 264.953125 369.09375 L 261.394531 373.164063 L 260.601563 374.816406 L 262.84375 374.3125 L 264.9375 375.519531 L 266.9375 378.226563 L 270.21875 378.804688 L 270.625 378.746094 L 271.910156 376.796875 L 272.234375 374.960938 L 272.757813 373.59375 L 272.835938 373.621094 L 275.253906 373.925781 L 277.679688 373.71875 L 280.011719 373.015625 L 282.144531 371.839844 L 283.707031 370.484375 L 284.253906 370.867188 L 286.703125 370.742188 L 288.40625 370.925781 L 289.75 372.59375 L 294.03125 376.113281 L 296.644531 377.402344 L 299.492188 378 L 301.199219 380.171875 L 303.371094 381.875 L 305.4375 384.394531 L 306.8125 385.425781 L 307.179688 391.25 L 306.777344 393.191406 L 306.890625 393.976563 L 305.789063 396.917969 L 305.164063 399.925781 L 304.558594 400.886719 L 303.742188 403.015625 L 303.371094 405.136719 L 301.667969 407.015625 L 300.363281 409.332031 L 299.765625 411.777344 L 298.035156 413.59375 L 296.902344 414.140625 L 295.578125 412.011719 L 292.742188 410.515625 L 292.480469 410.636719 L 293.898438 413.703125 L 295.132813 415.519531 L 293.667969 416.90625 L 291.738281 420.644531 L 291.117188 421.46875 L 290.003906 421.65625 L 289.660156 421.574219 L 288.214844 419.332031 L 284.976563 421.730469 L 280.71875 424.230469 L 282.339844 425.378906 L 285.105469 424.398438 L 286.097656 423.375 L 286.894531 423.164063 L 287.328125 423.710938 L 287.632813 428.84375 L 285.6875 430.875 L 283.441406 432.558594 L 282.84375 432.699219 L 279.644531 432.160156 L 274.75 433.78125 L 272.609375 436.117188 L 274.253906 436.015625 L 275.152344 434.667969 L 276.683594 434.363281 L 278.285156 434.328125 L 281.054688 434.949219 L 281.828125 435.589844 L 281.691406 436.328125 L 279.554688 436.347656 L 277.390625 437.65625 L 277.96875 438.546875 L 281.382813 438.964844 L 286.863281 440.339844 L 289.394531 439.9375 L 291.074219 438.957031 L 293.109375 438.675781 L 293.652344 439.078125 L 295.617188 440.03125 L 297.320313 442.199219 L 299.492188 443.90625 L 299.492188 447.785156 L 297.320313 449.492188 L 296.707031 450.273438 L 295.839844 450.375 L 292.621094 451.640625 L 291.179688 452.742188 L 289.847656 454.226563 L 289.460938 455.09375 L 289.214844 456.324219 L 289.242188 456.503906 L 289.066406 456.730469 L 288.492188 458.007813 L 286.253906 458.289063 L 284.1875 457.9375 L 282.179688 459.832031 L 279.734375 460.605469 L 277.902344 461.742188 L 277.371094 462.1875 L 274.789063 462.777344 L 272.597656 463.816406 L 270.539063 466.589844 L 269.761719 466.949219 L 267.285156 466.203125 L 265.535156 464.78125 L 261.980469 463.464844 L 259.097656 463.132813 L 250.96875 463.128906 L 247.710938 463.488281 L 245.183594 464.316406 L 243.113281 465.542969 L 241.339844 467.167969 L 240.152344 467.40625 L 238.210938 466.1875 L 238.632813 465.4375 L 239.46875 464.933594 L 237.714844 463.296875 L 231.496094 463.171875 L 231.378906 463.496094 L 232.574219 464.835938 L 232.214844 465.75 L 231.738281 466.042969 L 226.691406 465.496094 L 222.421875 467.265625 L 220.078125 467.007813 L 215.269531 467.351563 L 212.355469 468.308594 L 211.742188 468.714844 L 210.222656 468.96875 L 208.164063 468.875 L 207.273438 468.058594 L 206.238281 469.769531 L 208.992188 470.90625 L 207.765625 472.296875 L 206.71875 474.382813 L 204.453125 473.097656 L 203.015625 472.699219 L 197.625 472.007813 L 196.175781 472.65625 L 195.679688 473.863281 L 195.78125 474.523438 L 195.257813 474.742188 L 194.851563 473.972656 L 193.761719 473.167969 L 192.648438 471.308594 L 189.335938 468.703125 L 185.441406 467.464844 L 181.234375 467.679688 L 178.027344 468.96875 L 177.171875 469.652344 L 176.207031 469.78125 L 174.339844 470.335938 L 171.824219 471.699219 L 170.335938 472.222656 L 166.9375 474.730469 L 165.273438 477.011719 L 164.175781 479.75 L 163.65625 483.925781 L 163.78125 486.195313 L 163.605469 486.707031 L 161.628906 488.261719 L 160.1875 490.097656 L 159.578125 489.976563 L 158.480469 488.53125 L 156.59375 487 L 156.527344 486.851563 L 155.878906 486.355469 L 154.0625 484.203125 L 150.59375 482.027344 L 148.121094 481.335938 L 145.554688 481.203125 L 143.023438 481.636719 L 140.539063 482.675781 L 140.308594 480.378906 L 139.679688 478.292969 L 138.671875 476.359375 L 137.320313 474.648438 L 135.675781 473.21875 L 133.792969 472.121094 L 132.691406 471.734375 L 133.015625 470.472656 L 134.902344 469.777344 L 137.234375 468.191406 L 139.117188 466.089844 L 140.394531 463.714844 L 141.105469 460.984375 L 141.152344 458.292969 L 140.539063 455.539063 L 142.941406 455.851563 L 143.816406 455.785156 L 144.269531 456.015625 L 145.097656 455.691406 L 145.234375 455.679688 L 147.566406 455.015625 L 149.710938 453.878906 L 154.898438 449.136719 L 156.25 446.953125 L 156.46875 446.320313 L 157.421875 446.269531 L 159.910156 445.683594 L 164.597656 446.761719 L 166.046875 446.148438 L 167.527344 446.515625 L 169.484375 447.285156 L 170.039063 448.109375 L 170.757813 448.421875 L 173.15625 448.464844 L 180.570313 447.503906 L 181.109375 445.632813 L 181.210938 443.15625 L 182.519531 440.25 L 190.867188 432.195313 L 195.792969 425.3125 L 197.929688 424.472656 L 198.285156 423.78125 L 198.070313 423.238281 L 197.8125 423.082031 L 196.09375 424.355469 L 192.90625 427.300781 L 190.570313 429.988281 L 189.222656 431.449219 L 185.628906 432.957031 L 183.714844 433.246094 L 182.441406 433.0625 L 178.394531 435.230469 L 177.398438 436.808594 L 177.039063 438.671875 L 176.445313 439.273438 L 174.058594 439.917969 L 170.558594 439.851563 L 166.820313 439 L 166.347656 438.652344 L 161.371094 433.375 L 159.03125 429.199219 L 155.65625 429.589844 L 151.441406 431.382813 L 150.191406 429.84375 L 148.382813 428.46875 L 148.539063 428.378906 L 150.066406 428.890625 L 151.640625 428.421875 L 152.765625 427.832031 L 153.085938 427.097656 L 152.808594 426.597656 L 147.953125 426.464844 L 147.917969 426.277344 L 147.101563 424.148438 L 145.886719 422.21875 L 144.414063 420.644531 L 146.613281 417.042969 L 147.378906 412.890625 L 146.613281 408.742188 L 144.414063 405.136719 L 145.445313 404.328125 L 148.417969 402.429688 L 148.707031 405.066406 L 150.261719 408.425781 L 152.792969 411.125 L 156.046875 412.890625 L 155.582031 415.15625 L 155.585938 417.597656 L 156.097656 419.980469 L 157.03125 422.097656 L 159.550781 425.164063 L 162.953125 427.203125 L 165.4375 427.859375 L 167.875 427.964844 L 170.28125 427.558594 L 172.660156 426.597656 L 174.773438 425.140625 L 176.722656 423.097656 L 178.042969 420.902344 L 178.828125 418.59375 L 179.011719 414.511719 L 177.714844 410.503906 L 175.167969 407.304688 L 171.554688 405.136719 L 173.085938 403.601563 L 174.367188 401.691406 L 175.246094 399.570313 L 175.679688 397.445313 L 175.429688 389.628906 L 176.09375 385.625 L 175.429688 381.875 L 176.570313 379.019531 L 176.925781 375.960938 L 176.460938 372.917969 L 175.148438 369.992188 L 173.085938 367.539063 L 169.585938 364.9375 L 166.75 363.765625 L 163.703125 363.378906 L 161.535156 363.59375 L 159.445313 364.210938 L 157.507813 365.203125 L 155.792969 366.542969 L 154.351563 368.175781 L 153.246094 370.050781 L 152.414063 373.195313 L 151.40625 373.152344 L 150.460938 371.953125 L 148.292969 370.246094 L 148.292969 366.371094 L 150.71875 363.585938 L 152.121094 360.308594 L 152.132813 360.214844 L 153.09375 359.609375 L 154.941406 359.808594 L 158.445313 358.324219 L 158.917969 358.488281 L 161.546875 358.773438 L 163.800781 358.617188 L 167.804688 359.28125 L 170.207031 359.003906 L 172.386719 358.285156 L 175.300781 356.441406 L 175.660156 356.027344 L 179.910156 359.441406 L 180.433594 358.429688 L 177.695313 353.484375 L 177.726563 353.410156 L 178.242188 352.835938 L 180.867188 352.449219 L 181.503906 352.695313 L 181.914063 353.875 L 182.898438 354.332031 L 184.078125 356.789063 L 185.613281 357.902344 L 188.359375 357.621094 L 190.335938 355.148438 L 189.90625 355.050781 L 188.667969 355.527344 L 188.3125 355.957031 L 186.378906 356.386719 L 183.8125 354.640625 L 179.976563 346.332031 L 180.121094 346.074219 L 181.597656 344.417969 L 183.070313 341.171875 L 183.121094 340.703125 L 183.371094 340.257813 L 185.429688 339.015625 L 185.140625 338.578125 L 183.359375 338.496094 L 183.480469 337.375 L 183.066406 332.925781 L 182.402344 330.457031 L 182.304688 330.265625 L 184.695313 329.191406 L 187.28125 323.421875 L 187.71875 320.933594 L 187.855469 317.484375 L 184.742188 320.527344 L 179.199219 323.441406 L 177.335938 322.691406 L 175.222656 319.03125 L 174.871094 317.117188 L 173.542969 314.386719 L 172.542969 313.230469 L 172.289063 311.832031 L 171.550781 310.746094 L 171.519531 298.675781 L 170.917969 295.9375 L 170.78125 295.65625 Z M 233.265625 471.046875 L 229.707031 471.046875 L 226.875 468.722656 L 224.660156 467.875 L 227.316406 466.367188 L 232.550781 467.761719 L 234.171875 469.894531 Z M 152.152344 360.074219 L 152.484375 357.527344 L 152.292969 355.835938 L 153.964844 356.179688 L 155.152344 357.132813 L 154.066406 358.859375 Z M 183.183594 195.785156 L 187.0625 196.449219 L 190.9375 195.785156 L 191.320313 199.464844 L 192.835938 202.839844 L 195.339844 205.570313 L 198.691406 207.414063 L 193.015625 207.449219 L 189.65625 208.296875 L 186.214844 210.519531 L 183.8125 213.683594 L 182.960938 215.832031 L 182.539063 218.238281 L 182.628906 220.675781 L 182.78125 221.28125 L 177.804688 225.21875 L 178.117188 225.714844 L 179.84375 225.195313 L 182.847656 223.738281 L 182.015625 225.757813 L 181.625 228.675781 L 182.082031 231.964844 L 182.953125 234.15625 L 181.046875 235.800781 L 180.578125 237.003906 L 174.761719 240.109375 L 170.214844 238.117188 L 166.480469 238.003906 L 166.738281 239.222656 L 168.246094 240.195313 L 178.0625 241.875 L 182.921875 243.167969 L 186.398438 241.730469 L 187.035156 240.417969 L 188.085938 241.261719 L 190.023438 242.269531 L 192.117188 242.898438 L 194.289063 243.125 L 196.46875 242.941406 L 198.683594 242.308594 L 198.695313 242.316406 L 199.828125 244.882813 L 201.554688 247.109375 L 203.761719 248.859375 L 206.445313 250.0625 L 204.277344 251.769531 L 202.570313 253.9375 L 201.84375 250.695313 L 200.234375 247.785156 L 197.863281 245.453125 L 194.933594 243.886719 L 191.933594 243.230469 L 188.738281 243.410156 L 185.714844 244.449219 L 183.183594 246.183594 L 180.804688 244.238281 L 178.003906 242.984375 L 174.964844 242.507813 L 172.035156 242.8125 L 169.621094 243.667969 L 167.453125 245.03125 L 165.246094 247.351563 L 163.800781 250.0625 L 160.203125 251.746094 L 157.308594 254.644531 L 155.988281 257.140625 L 155.3125 259.882813 L 155.332031 262.835938 L 156.046875 265.570313 L 153.210938 264.398438 L 150.292969 264.011719 L 147.25 264.398438 L 144.414063 265.570313 L 140.625 265.570313 L 140.664063 265.503906 L 142.933594 264.34375 L 143.457031 263.890625 L 143.644531 263.800781 L 143.6875 263.691406 L 145.066406 262.503906 L 146.636719 260.316406 L 147.660156 257.828125 L 148.097656 254.660156 L 147.652344 251.492188 L 146.429688 248.671875 L 144.414063 246.183594 L 145.964844 244.511719 L 146.78125 243.199219 L 148.300781 243.253906 L 147.054688 242.757813 L 147.101563 242.683594 L 147.917969 240.550781 L 148.292969 238.429688 L 152.167969 238.429688 L 154.65625 239.472656 L 157.1875 239.90625 L 159.496094 239.8125 L 161.863281 239.21875 L 164.269531 238.007813 L 166.335938 236.277344 L 168.839844 233.023438 L 170.058594 230.484375 L 170.660156 226.316406 L 170.371094 224.160156 L 169.6875 222.089844 L 168.09375 219.46875 L 165.765625 217.277344 L 162.925781 215.804688 L 159.921875 215.167969 L 160.582031 211.722656 L 160.179688 208.234375 L 161.429688 210.753906 L 163.25 212.898438 L 165.527344 214.542969 L 168.015625 215.558594 L 170.410156 215.964844 L 172.835938 215.863281 L 177.699219 214.765625 L 180.074219 213.804688 L 182.179688 212.347656 L 183.992188 210.359375 L 185.296875 208.011719 L 186.007813 205.550781 L 186.15625 202.867188 L 185.71875 200.34375 L 184.679688 197.863281 Z M 286.679688 439.636719 L 283.058594 438.976563 L 282.164063 437.605469 L 282.484375 436.070313 L 286.839844 437.054688 L 287.960938 438.832031 Z M 236.835938 466.113281 L 235.136719 465.644531 L 236.523438 463.683594 L 237.195313 464.164063 L 237.5 465.839844 Z M 236.835938 466.113281 "/>
<path style=" stroke:none;fill-rule:nonzero;fill:rgb(80.392157%,58.431373%,4.705882%);fill-opacity:1;" d="M 169.617188 188.03125 L 169.332031 189.828125 L 168.503906 191.449219 L 167.21875 192.734375 L 165.597656 193.5625 L 163.800781 193.847656 L 162.003906 193.5625 L 160.382813 192.734375 L 159.09375 191.449219 L 158.269531 189.828125 L 157.984375 188.03125 L 158.269531 186.234375 L 159.09375 184.613281 L 160.382813 183.324219 L 162.003906 182.5 L 163.800781 182.214844 L 165.597656 182.5 L 167.21875 183.324219 L 168.503906 184.613281 L 169.332031 186.234375 Z M 169.617188 188.03125 "/>
<path style=" stroke:none;fill-rule:nonzero;fill:rgb(80.392157%,58.431373%,4.705882%);fill-opacity:1;" d="M 157.984375 149.261719 L 157.699219 151.058594 L 156.875 152.679688 L 155.585938 153.964844 L 153.964844 154.792969 L 152.167969 155.078125 L 150.371094 154.792969 L 148.75 153.964844 L 147.464844 152.679688 L 146.636719 151.058594 L 146.355469 149.261719 L 146.636719 147.464844 L 147.464844 145.84375 L 148.75 144.558594 L 150.371094 143.730469 L 152.167969 143.445313 L 153.964844 143.730469 L 155.585938 144.558594 L 156.875 145.84375 L 157.699219 147.464844 Z M 157.984375 149.261719 "/>
<path style=" stroke:none;fill-rule:nonzero;fill:rgb(80.392157%,58.431373%,4.705882%);fill-opacity:1;" d="M 161.863281 176.398438 L 161.578125 178.195313 L 160.75 179.816406 L 159.464844 181.105469 L 157.84375 181.929688 L 156.046875 182.214844 L 154.25 181.929688 L 152.628906 181.105469 L 151.339844 179.816406 L 150.515625 178.195313 L 150.230469 176.398438 L 150.515625 174.601563 L 151.339844 172.980469 L 152.414063 171.910156 L 154.25 170.871094 L 156.046875 170.585938 L 157.84375 170.871094 L 159.121094 171.519531 L 157.109375 173.804688 L 156.367188 175.339844 L 156.707031 175.816406 L 157.367188 175.984375 L 158.261719 175.542969 L 160.882813 173.242188 L 161.578125 174.601563 Z M 161.863281 176.398438 "/>
<path style=" stroke:none;fill-rule:nonzero;fill:rgb(80.392157%,58.431373%,4.705882%);fill-opacity:1;" d="M 161.863281 288.832031 L 161.578125 290.628906 L 160.75 292.25 L 159.410156 293.515625 L 156.15625 293.3125 L 155.160156 292.984375 L 150.335938 289.484375 L 150.230469 288.832031 L 150.515625 287.035156 L 151.339844 285.414063 L 152.628906 284.125 L 154.25 283.300781 L 156.046875 283.015625 L 157.84375 283.300781 L 159.464844 284.125 L 160.75 285.414063 L 161.578125 287.035156 Z M 161.863281 288.832031 "/>
<path style=" stroke:none;fill-rule:nonzero;fill:rgb(80.392157%,58.431373%,4.705882%);fill-opacity:1;" d="M 246.898438 309.832031 L 246.042969 311.632813 L 244.757813 312.921875 L 243.136719 313.746094 L 241.339844 314.03125 L 239.542969 313.746094 L 237.921875 312.921875 L 236.632813 311.632813 L 235.808594 310.011719 L 235.523438 308.214844 L 235.808594 306.417969 L 236.632813 304.796875 L 238.359375 303.285156 L 244.476563 306.140625 L 245.742188 307.636719 Z M 246.898438 309.832031 "/>
<path style=" stroke:none;fill-rule:nonzero;fill:rgb(80.392157%,58.431373%,4.705882%);fill-opacity:1;" d="M 119.214844 219.046875 L 118.929688 220.84375 L 118.105469 222.464844 L 116.816406 223.75 L 115.527344 224.410156 L 116.136719 223.339844 L 115.425781 223.117188 L 112.546875 224.726563 L 111.601563 224.578125 L 109.414063 223.183594 L 112.214844 222.164063 L 112.035156 221.589844 L 109.863281 222.445313 L 108.707031 222.476563 L 108.0625 221.222656 L 109.386719 219.472656 L 112.601563 217.957031 L 112.90625 216.820313 L 112.554688 216.699219 L 109.90625 217.519531 L 108.308594 216.386719 L 109.980469 214.339844 L 111.601563 213.515625 L 113.359375 213.238281 L 113.785156 214.699219 L 116.457031 215.945313 L 117.929688 216.300781 L 118.929688 217.25 Z M 114.636719 213.425781 L 116.816406 214.339844 L 117.753906 215.277344 L 115.878906 214.433594 Z M 107.761719 217.921875 L 108.191406 216.617188 L 109.105469 217.519531 L 109.070313 217.820313 Z M 107.761719 217.921875 "/>
<path style=" stroke:none;fill-rule:nonzero;fill:rgb(80.392157%,58.431373%,4.705882%);fill-opacity:1;" d="M 157.984375 288.832031 L 157.699219 290.628906 L 156.875 292.25 L 155.894531 293.226563 L 155.160156 292.984375 L 149.984375 289.230469 L 149.214844 288.042969 L 149.230469 287.167969 L 148.945313 287.023438 L 148.15625 288.078125 L 147.988281 288.910156 L 148.375 290.554688 L 149.574219 292.960938 L 149.675781 294.007813 L 148.75 293.535156 L 147.464844 292.25 L 146.636719 290.628906 L 146.355469 288.832031 L 146.636719 287.035156 L 147.464844 285.414063 L 148.75 284.125 L 150.371094 283.300781 L 152.167969 283.015625 L 153.964844 283.300781 L 155.585938 284.125 L 156.875 285.414063 L 157.699219 287.035156 Z M 157.984375 288.832031 "/>
<path style=" stroke:none;fill-rule:nonzero;fill:rgb(80.392157%,58.431373%,4.705882%);fill-opacity:1;" d="M 150.09375 312.957031 L 149.945313 313.890625 L 149.121094 315.511719 L 147.832031 316.796875 L 146.210938 317.625 L 144.414063 317.90625 L 142.617188 317.625 L 140.4375 316.238281 L 142.300781 315.023438 L 144.765625 310.230469 L 145.863281 309.40625 L 148.800781 308.355469 L 149.148438 308.730469 Z M 150.09375 312.957031 "/>
<path style=" stroke:none;fill-rule:nonzero;fill:rgb(80.392157%,58.431373%,4.705882%);fill-opacity:1;" d="M 147.992188 317.859375 L 146.496094 317.625 L 144.875 316.796875 L 143.585938 315.511719 L 142.824219 314.011719 L 144.765625 310.230469 L 145.863281 309.40625 L 149.046875 308.269531 L 150.203125 313.453125 Z M 147.992188 317.859375 "/>
<path style=" stroke:none;fill-rule:nonzero;fill:rgb(80.392157%,58.431373%,4.705882%);fill-opacity:1;" d="M 114.609375 493.097656 L 115.480469 492.652344 L 117.277344 492.371094 L 119.074219 492.652344 L 120.695313 493.480469 L 121.980469 494.765625 L 122.871094 496.789063 L 120.660156 497.648438 L 119.628906 499.730469 L 118.675781 498.910156 L 117.96875 497.691406 L 118.09375 496.4375 L 117.15625 494.691406 L 115.984375 493.691406 Z M 114.609375 493.097656 "/>
<path style=" stroke:none;fill-rule:nonzero;fill:rgb(80.392157%,58.431373%,4.705882%);fill-opacity:1;" d="M 183.464844 168.734375 L 182.726563 169.472656 L 181.105469 170.300781 L 179.308594 170.585938 L 177.511719 170.300781 L 175.890625 169.472656 L 174.601563 168.1875 L 173.988281 166.980469 L 178.648438 166.167969 L 179.285156 167.089844 L 180.148438 167.667969 Z M 183.464844 168.734375 "/>
<path style=" stroke:none;fill-rule:nonzero;fill:rgb(80.392157%,58.431373%,4.705882%);fill-opacity:1;" d="M 80.410156 190.308594 L 81.117188 190.9375 L 81.808594 193.710938 L 80.203125 195.140625 L 77.601563 194.722656 L 77.417969 194.15625 Z M 80.410156 190.308594 "/>
</g>
</svg>
