<?xml version="1.0" encoding="UTF-8"?>
<svg xmlns="http://www.w3.org/2000/svg" xmlns:xlink="http://www.w3.org/1999/xlink" width="378pt" height="504pt" viewBox="0 0 378 504" version="1.1">
<g id="data">
<rect x="0" y="0" width="378" height="504" style="fill:rgb(100%,100%,100%);fill-opacity:1;stroke:none;"/>
<path style=" stroke:none;fill-rule:nonzero;fill:rgb(100%,100%,100%);fill-opacity:1;" d="M 53.308594 504 L 324.691406 504 L 324.691406 0 L 53.308594 0 Z M 53.308594 504 "/>
<path style=" stroke:none;fill-rule:nonzero;fill:rgb(22.745098%,53.333333%,16.078431%);fill-opacity:1;" d="M 166.574219 288.746094 L 167.335938 288.238281 L 168.550781 287.6875 L 168.226563 288.992188 Z M 176.167969 286.703125 L 177.289063 286.261719 L 178.757813 285.980469 L 180.191406 286.804688 L 181.015625 286.710938 L 182.933594 286.238281 L 182.933594 286.21875 L 183.535156 286.492188 L 184.898438 287.769531 L 185.789063 289.410156 L 186.113281 291.25 L 185.835938 293.09375 L 184.988281 294.757813 L 182.285156 298.453125 L 181.933594 299.308594 L 181.71875 300.355469 L 181.710938 301.523438 L 181.929688 302.652344 L 182.371094 303.714844 L 182.929688 304.550781 L 184.3125 305.792969 L 185.863281 306.507813 L 187.574219 306.742188 L 190.019531 306.351563 L 191.863281 306.351563 L 193.609375 306.925781 L 195.09375 308.023438 L 196.15625 309.527344 L 196.917969 311.074219 L 197.621094 311.984375 L 198.484375 312.738281 L 199.371094 313.242188 L 201.066406 313.722656 L 202.722656 313.691406 L 204.671875 313.007813 L 206.742188 311.386719 L 207.332031 310.980469 L 210.070313 309.339844 L 211.234375 307.910156 L 211.925781 306.027344 L 212.003906 304.683594 L 211.722656 303.253906 L 211.082031 301.921875 L 209.742188 300.316406 L 208.921875 299.023438 L 208.464844 297.558594 L 208.410156 296.027344 L 208.640625 293.65625 L 208.359375 292.101563 L 207.675781 290.699219 L 206.003906 288.847656 L 204.976563 287.242188 L 204.523438 285.390625 L 204.695313 283.492188 L 205.46875 281.753906 L 206.765625 280.355469 L 208.441406 279.449219 L 210.324219 279.136719 L 214.199219 279.136719 L 215.183594 279.222656 L 218.078125 279.71875 L 220.902344 279.234375 L 221.269531 280.457031 L 222.984375 284.039063 L 223.773438 285.027344 L 225.945313 294.183594 L 229.304688 299.0625 L 231.972656 300.308594 L 231.898438 301.570313 L 231.210938 303.296875 L 230.015625 304.722656 L 228.425781 305.695313 L 226.039063 306.675781 L 224.769531 307.660156 L 223.824219 308.9375 L 223.28125 310.394531 L 223.15625 312.132813 L 223.742188 314.65625 L 223.785156 317.078125 L 223.421875 318.949219 L 223.46875 320.238281 L 223.9375 321.820313 L 224.789063 323.160156 L 225.988281 324.230469 L 227.339844 324.894531 L 228.820313 325.183594 L 230.339844 325.0625 L 232.292969 324.277344 L 233.847656 323.042969 L 234.699219 322.480469 L 236.863281 321.3125 L 237.761719 320.492188 L 238.398438 319.601563 L 238.898438 318.472656 L 239.136719 317.375 L 239.167969 315.65625 L 239.511719 313.777344 L 240.449219 312.113281 L 241.871094 310.839844 L 243.632813 310.097656 L 245.539063 309.96875 L 247.203125 310.410156 L 247.265625 310.527344 L 249.289063 315.722656 L 252.390625 319.148438 L 256.121094 320.875 L 257.207031 321.722656 L 254.738281 323.09375 L 253.890625 324.554688 L 253.765625 325.996094 L 254.984375 329.992188 L 256.160156 332.453125 L 262.519531 341.351563 L 262.441406 342.410156 L 262.5625 342.898438 L 262.507813 342.839844 L 260.445313 342 L 258.378906 342.789063 L 257.507813 342.753906 L 256.035156 341.773438 L 253.664063 338.65625 L 252.601563 338.082031 L 245.550781 339.511719 L 244.589844 338.644531 L 243.40625 338.558594 L 241.210938 339.871094 L 241.886719 340.445313 L 246.324219 340.394531 L 249.617188 339.34375 L 251.976563 339.082031 L 254.382813 342.558594 L 260.535156 347.621094 L 263.042969 349.058594 L 263.664063 349.039063 L 266.046875 352.214844 L 266.210938 352.609375 L 266.050781 353.195313 L 265.347656 354.796875 L 265.113281 355.839844 L 265.082031 356.910156 L 265.238281 357.871094 L 266.179688 359.9375 L 266.855469 360.742188 L 268.199219 361.804688 L 269.4375 363.234375 L 269.210938 365.21875 L 264.953125 369.09375 L 261.394531 373.164063 L 260.601563 374.816406 L 262.84375 374.3125 L 264.9375 375.519531 L 266.9375 378.226563 L 270.21875 378.804688 L 270.625 378.746094 L 271.910156 376.796875 L 272.234375 374.960938 L 273.40625 371.914063 L 274.707031 370.632813 L 277.851563 370.085938 L 283.34375 370.234375 L 284.253906 370.867188 L 286.703125 370.742188 L 293.949219 371.515625 L 296.914063 372.84375 L 304.070313 378.085938 L 305.367188 380.105469 L 306.730469 384.164063 L 307.179688 391.25 L 306.777344 393.191406 L 306.890625 393.976563 L 305.789063 396.917969 L 303.519531 407.832031 L 297.144531 414.53125 L 295.578125 412.011719 L 292.742188 410.515625 L 292.480469 410.636719 L 293.898438 413.703125 L 295.890625 416.628906 L 296.3125 416.765625 L 296.164063 417.742188 L 294.574219 419.804688 L 292.191406 421.289063 L 290.003906 421.65625 L 289.660156 421.574219 L 288.214844 419.332031 L 284.976563 421.730469 L 280.71875 424.230469 L 282.339844 425.378906 L 285.105469 424.398438 L 286.097656 423.375 L 286.894531 423.164063 L 287.328125 423.710938 L 287.632813 428.84375 L 285.6875 430.875 L 283.441406 432.558594 L 282.84375 432.699219 L 279.644531 432.160156 L 274.75 433.78125 L 272.609375 436.117188 L 274.253906 436.015625 L 275.152344 434.667969 L 276.683594 434.363281 L 278.285156 434.328125 L 281.054688 434.949219 L 281.828125 435.589844 L 281.691406 436.328125 L 279.554688 436.347656 L 277.390625 437.65625 L 277.96875 438.546875 L 281.382813 438.964844 L 286.863281 440.339844 L 289.394531 439.9375 L 291.074219 438.957031 L 299.742188 437.757813 L 300.988281 440.148438 L 300.773438 446.324219 L 300.335938 447.820313 L 299.394531 449.050781 L 296.972656 450.242188 L 295.839844 450.375 L 292.621094 451.640625 L 291.179688 452.742188 L 289.847656 454.226563 L 289.460938 455.09375 L 289.214844 456.324219 L 289.464844 457.886719 L 286.253906 458.289063 L 284.1875 457.9375 L 281.042969 460.90625 L 278.484375 461.933594 L 274.789063 462.777344 L 272.597656 463.816406 L 270.539063 466.589844 L 269.761719 466.949219 L 259.269531 463.777344 L 256.070313 463.507813 L 244.628906 465.699219 L 242.703125 466.390625 L 242.113281 466.964844 L 241.902344 467.984375 L 241.359375 468.164063 L 238.210938 466.1875 L 238.632813 465.4375 L 239.46875 464.933594 L 237.714844 463.296875 L 231.496094 463.171875 L 231.378906 463.496094 L 232.574219 464.835938 L 232.214844 465.75 L 231.738281 466.042969 L 226.691406 465.496094 L 219.566406 468.449219 L 217.054688 467.824219 L 210.222656 468.96875 L 208.164063 468.875 L 207.273438 468.058594 L 206.238281 469.769531 L 209.429688 471.089844 L 209.714844 470.9375 L 210.1875 472.128906 L 209.566406 473.890625 L 206.84375 474.453125 L 204.453125 473.097656 L 203.015625 472.699219 L 197.625 472.007813 L 196.175781 472.65625 L 195.679688 473.863281 L 195.832031 474.871094 L 196.757813 475.523438 L 196.488281 476.304688 L 195.917969 475.996094 L 194.851563 473.972656 L 190.289063 470.589844 L 185.898438 468.519531 L 183.121094 467.984375 L 181.648438 469.066406 L 176.207031 469.78125 L 174.339844 470.335938 L 168.992188 473.234375 L 168.214844 474.070313 L 167.203125 476.179688 L 162.746094 489.226563 L 160.929688 490.242188 L 158.269531 489.722656 L 157.554688 489.058594 L 156.527344 486.851563 L 154.683594 485.4375 L 153.613281 485.542969 L 152.417969 486.300781 L 151.738281 486.164063 L 148.46875 482.535156 L 142.796875 482.960938 L 141.527344 483.375 L 140.734375 484.175781 L 139.910156 484.507813 L 135.035156 484.339844 L 134.75 483.222656 L 134.59375 481.597656 L 134.292969 480.554688 L 133.804688 479.585938 L 133.148438 478.738281 L 132.261719 477.960938 L 131.339844 477.421875 L 130.316406 477.0625 L 128.699219 476.8125 L 126.941406 476.246094 L 125.449219 475.15625 L 125.40625 475.097656 L 125.640625 474.519531 L 128.386719 473.238281 L 132.105469 472.640625 L 132.679688 471.785156 L 133.257813 469.527344 L 135.859375 467.5625 L 138.636719 464.640625 L 139.128906 458.542969 L 139.796875 454.753906 L 142.492188 455.105469 L 144.269531 456.015625 L 145.761719 455.429688 L 148.429688 452.488281 L 148.105469 447.519531 L 151.105469 446.613281 L 157.421875 446.269531 L 159.910156 445.683594 L 164.597656 446.761719 L 166.046875 446.148438 L 167.527344 446.515625 L 169.484375 447.285156 L 170.039063 448.109375 L 170.757813 448.421875 L 173.15625 448.464844 L 180.570313 447.503906 L 181.109375 445.632813 L 181.210938 443.15625 L 182.519531 440.25 L 190.867188 432.195313 L 195.792969 425.3125 L 197.929688 424.472656 L 198.285156 423.78125 L 198.070313 423.238281 L 197.8125 423.082031 L 196.09375 424.355469 L 192.90625 427.300781 L 190.570313 429.988281 L 189.222656 431.449219 L 185.628906 432.957031 L 183.714844 433.246094 L 182.441406 433.0625 L 178.394531 435.230469 L 177.398438 436.808594 L 177.039063 438.671875 L 176.445313 439.273438 L 174.058594 439.917969 L 170.558594 439.851563 L 166.820313 439 L 166.347656 438.652344 L 161.371094 433.375 L 159.03125 429.199219 L 155.65625 429.589844 L 149.269531 432.308594 L 149.113281 432.746094 L 147.203125 431.632813 L 146.917969 429.308594 L 148.539063 428.378906 L 150.066406 428.890625 L 151.640625 428.421875 L 152.765625 427.832031 L 153.085938 427.097656 L 152.808594 426.597656 L 147.785156 426.460938 L 143.210938 423.710938 L 139.566406 423.714844 L 139.125 423.058594 L 138.628906 421.242188 L 138.742188 419.363281 L 139.449219 417.621094 L 141.085938 414.933594 L 141.464844 412.890625 L 141.085938 410.851563 L 139.449219 408.164063 L 138.789063 406.617188 L 138.789063 406.585938 L 141.359375 406.660156 L 142.21875 406.390625 L 149.359375 401.828125 L 152.136719 398.207031 L 152.535156 397.335938 L 152.753906 397.53125 L 153.648438 399 L 154.078125 400.664063 L 154.363281 403.410156 L 155.105469 405.0625 L 156.410156 406.472656 L 158.824219 407.78125 L 160.285156 408.910156 L 161.320313 410.441406 L 161.824219 412.21875 L 161.742188 414.0625 L 161.398438 415.742188 L 161.398438 416.972656 L 161.65625 418.175781 L 162.03125 419.019531 L 163.40625 420.695313 L 165.238281 421.792969 L 166.3125 422.078125 L 167.507813 422.128906 L 168.691406 421.929688 L 169.886719 421.445313 L 170.976563 420.695313 L 172.070313 419.546875 L 172.738281 418.4375 L 173.054688 417.507813 L 173.15625 415.300781 L 172.507813 413.296875 L 171.273438 411.75 L 168.566406 410.125 L 167.21875 409.015625 L 166.261719 407.550781 L 165.785156 405.871094 L 165.828125 404.125 L 166.386719 402.472656 L 167.410156 401.058594 L 168.628906 399.820313 L 169.210938 398.945313 L 169.652344 397.875 L 169.855469 396.84375 L 169.617188 389.828125 L 169.6875 388.710938 L 170.191406 385.5625 L 169.710938 382.921875 L 169.644531 381.300781 L 170.03125 379.71875 L 170.882813 377.582031 L 171.054688 376.082031 L 170.804688 374.484375 L 170.183594 373.125 L 169.070313 371.800781 L 166.699219 370.039063 L 165.246094 369.4375 L 163.621094 369.230469 L 162.65625 369.324219 L 161.867188 369.558594 L 159.667969 370.945313 L 159.117188 371.554688 L 158.554688 372.484375 L 158.175781 373.5 L 157.902344 375.105469 L 157.273438 376.90625 L 156.101563 378.410156 L 154.503906 379.449219 L 153.296875 379.753906 L 152.269531 378.203125 L 152.683594 374.835938 L 153.175781 374.082031 L 152.804688 373.207031 L 150.203125 373.105469 L 145.449219 374.257813 L 144.691406 374.808594 L 143.503906 373.542969 L 142.738281 371.972656 L 142.71875 371.84375 L 147.132813 367.984375 L 147.953125 364.523438 L 151.550781 360.582031 L 153.09375 359.609375 L 154.941406 359.808594 L 160.492188 357.457031 L 163.644531 357.28125 L 167.339844 357.714844 L 172.597656 355.179688 L 173.933594 355.046875 L 174.484375 355.082031 L 179.910156 359.441406 L 180.433594 358.429688 L 177.679688 353.460938 L 178.242188 352.835938 L 180.867188 352.449219 L 181.503906 352.695313 L 181.914063 353.875 L 182.898438 354.332031 L 184.078125 356.789063 L 185.613281 357.902344 L 188.359375 357.621094 L 190.335938 355.148438 L 189.90625 355.050781 L 188.667969 355.527344 L 188.3125 355.957031 L 186.378906 356.386719 L 183.8125 354.640625 L 179.976563 346.332031 L 183.371094 340.257813 L 185.429688 339.015625 L 185.140625 338.578125 L 182.683594 338.460938 L 181.554688 337.164063 L 181.355469 336.117188 L 181.601563 331.078125 L 181.949219 330.421875 L 184.695313 329.191406 L 187.28125 323.421875 L 187.71875 320.933594 L 187.855469 317.484375 L 184.742188 320.527344 L 179.199219 323.441406 L 177.335938 322.691406 L 172.851563 314.925781 L 172.289063 311.832031 L 167.40625 304.652344 L 169.164063 299.058594 L 174.074219 288.722656 Z M 263.023438 344.492188 L 263.144531 344.703125 L 262.804688 345.191406 Z M 144.457031 361.921875 L 145.734375 360.457031 L 146.460938 358.761719 L 146.625 357.476563 L 146.390625 355.390625 L 146.449219 353.683594 L 147.003906 352.066406 L 147.488281 351.394531 L 149.566406 352.007813 L 151.039063 355.578125 L 155.546875 356.503906 L 154.066406 358.859375 L 150.984375 360.816406 L 147.425781 363.976563 L 146.109375 363.875 Z M 178.460938 199.179688 L 177.679688 197.65625 L 177.371094 195.972656 L 177.570313 194.273438 L 178.253906 192.703125 L 179.363281 191.398438 L 180.808594 190.476563 L 182.457031 190.015625 L 184.167969 190.054688 L 187.0625 190.550781 L 189.953125 190.054688 L 191.851563 190.042969 L 193.648438 190.640625 L 195.160156 191.785156 L 196.222656 193.355469 L 196.722656 195.1875 L 197.003906 197.917969 L 197.804688 199.664063 L 199.042969 200.984375 L 201.46875 202.304688 L 202.972656 203.480469 L 203.089844 203.65625 L 200.949219 206.4375 L 199.179688 207.605469 L 197.078125 210.023438 L 197.433594 210.839844 L 197.785156 210.703125 L 197.761719 211.238281 L 197.148438 213.242188 L 193.753906 213.261719 L 192.003906 213.703125 L 190.226563 214.847656 L 188.925781 216.566406 L 188.585938 217.421875 L 188.375 218.632813 L 188.417969 219.863281 L 188.546875 220.371094 L 185.519531 221.085938 L 182.847656 221.226563 L 177.804688 225.21875 L 178.117188 225.714844 L 179.84375 225.195313 L 184.609375 222.886719 L 186.457031 221.386719 L 187.289063 221.316406 L 188.855469 221.804688 L 188.984375 223.355469 L 188.558594 225.140625 L 187.679688 227.277344 L 187.496094 228.65625 L 187.746094 230.46875 L 188.6875 232.835938 L 188.34375 232.882813 L 187.070313 232.078125 L 185.40625 232.042969 L 181.046875 235.800781 L 180.578125 237.003906 L 174.761719 240.109375 L 170.214844 238.117188 L 166.480469 238.003906 L 166.738281 239.222656 L 168.246094 240.195313 L 178.0625 241.875 L 182.921875 243.167969 L 186.398438 241.730469 L 187.519531 239.417969 L 188.617188 238.355469 L 189.539063 238.171875 L 193.183594 238.5 L 199.339844 242.761719 L 206.488281 246.65625 L 208.910156 251.429688 L 210.738281 253.894531 L 210.042969 254.632813 L 208.417969 255.910156 L 207.140625 257.535156 L 205.765625 258.796875 L 204.0625 259.558594 L 202.207031 259.742188 L 200.386719 259.328125 L 198.792969 258.359375 L 197.585938 256.9375 L 196.894531 255.207031 L 196.351563 252.78125 L 195.554688 251.339844 L 194.382813 250.1875 L 192.902344 249.398438 L 191.464844 249.082031 L 189.867188 249.171875 L 188.355469 249.691406 L 186.472656 250.980469 L 184.789063 251.773438 L 182.9375 251.996094 L 181.113281 251.617188 L 179.5 250.683594 L 177.710938 249.21875 L 176.410156 248.628906 L 174.894531 248.375 L 173.3125 248.527344 L 172.171875 248.933594 L 171.164063 249.566406 L 170.003906 250.785156 L 168.929688 252.800781 L 167.800781 254.28125 L 166.265625 255.328125 L 163.59375 256.578125 L 162.042969 258.132813 L 161.464844 259.226563 L 161.132813 260.574219 L 161.140625 262.070313 L 161.671875 264.097656 L 161.851563 265.925781 L 161.449219 267.714844 L 160.511719 269.292969 L 159.132813 270.5 L 157.441406 271.214844 L 155.613281 271.367188 L 153.828125 270.945313 L 151.691406 270.0625 L 150.277344 269.875 L 148.753906 270.070313 L 146.632813 270.945313 L 144.414063 271.382813 L 140.539063 271.382813 L 138.636719 271.0625 L 138.207031 270.828125 L 138.601563 268.871094 L 140.917969 265.085938 L 143.644531 263.800781 L 144.390625 261.886719 L 144.195313 260.621094 L 142.601563 256.71875 L 141.996094 256.3125 L 142 256.300781 L 142.226563 254.667969 L 142.003906 253.097656 L 141.359375 251.632813 L 139.914063 249.867188 L 139.054688 248.4375 L 138.636719 246.824219 L 138.691406 245.160156 L 139.21875 243.578125 L 140.171875 242.207031 L 140.738281 241.605469 L 142.886719 242.511719 L 146.15625 243.175781 L 148.300781 243.253906 L 141.558594 240.570313 L 141.875 240.070313 L 142.289063 238.996094 L 142.566406 237.421875 L 143.257813 235.523438 L 144.554688 233.976563 L 146.304688 232.964844 L 148.292969 232.617188 L 152.167969 232.617188 L 154.414063 233.066406 L 156.289063 233.851563 L 157.5625 234.070313 L 158.664063 234.027344 L 159.824219 233.734375 L 161.050781 233.117188 L 162.113281 232.226563 L 163.863281 229.957031 L 164.542969 228.539063 L 164.773438 227.5625 L 164.808594 226.738281 L 164.238281 224.324219 L 163.535156 223.164063 L 162.367188 222.066406 L 160.949219 221.332031 L 158.71875 220.859375 L 157.039063 220.21875 L 155.636719 219.097656 L 154.640625 217.601563 L 154.152344 215.875 L 154.210938 214.082031 L 154.703125 211.503906 L 154.402344 208.898438 L 154.476563 207.101563 L 155.09375 205.414063 L 156.199219 203.992188 L 157.6875 202.980469 L 159.410156 202.46875 L 161.207031 202.511719 L 162.910156 203.097656 L 164.347656 204.179688 L 165.386719 205.648438 L 166.324219 207.53125 L 167.234375 208.609375 L 168.285156 209.375 L 169.636719 209.933594 L 170.777344 210.128906 L 172.070313 210.074219 L 175.957031 209.199219 L 177.292969 208.65625 L 178.324219 207.941406 L 179.246094 206.929688 L 179.855469 205.851563 L 180.242188 204.539063 L 180.316406 203.300781 L 180.09375 201.96875 L 179.570313 200.722656 Z M 286.679688 439.636719 L 283.058594 438.976563 L 282.164063 437.605469 L 282.484375 436.070313 L 286.839844 437.054688 L 287.960938 438.832031 Z M 236.835938 466.113281 L 235.136719 465.644531 L 236.523438 463.683594 L 237.195313 464.164063 L 237.5 465.839844 Z M 228.117188 474.644531 L 222.296875 470.886719 L 220.207031 471.1875 L 221.476563 469.683594 L 227.316406 466.367188 L 232.550781 467.761719 L 234.171875 469.894531 L 231.242188 473.621094 L 229.960938 474.269531 Z M 228.117188 474.644531 "/>
<path style=" stroke:none;fill-rule:nonzero;fill:rgb(80.392157%,58.431373%,4.705882%);fill-opacity:1;" d="M 169.617188 188.03125 L 169.332031 189.828125 L 168.503906 191.449219 L 167.21875 192.734375 L 165.597656 193.5625 L 163.800781 193.847656 L 162.003906 193.5625 L 160.382813 192.734375 L 159.09375 191.449219 L 158.269531 189.828125 L 157.984375 188.03125 L 158.269531 186.234375 L 159.09375 184.613281 L 160.382813 183.324219 L 162.003906 182.5 L 163.800781 182.214844 L 165.597656 182.5 L 167.21875 183.324219 L 168.503906 184.613281 L 169.332031 186.234375 Z M 169.617188 188.03125 "/>
<path style=" stroke:none;fill-rule:nonzero;fill:rgb(80.392157%,58.431373%,4.705882%);fill-opacity:1;" d="M 157.984375 149.261719 L 157.699219 151.058594 L 156.875 152.679688 L 155.585938 153.964844 L 153.964844 154.792969 L 152.167969 155.078125 L 150.371094 154.792969 L 148.75 153.964844 L 147.464844 152.679688 L 146.636719 151.058594 L 146.355469 149.261719 L 146.636719 147.464844 L 147.464844 145.84375 L 148.75 144.558594 L 150.371094 143.730469 L 152.167969 143.445313 L 153.964844 143.730469 L 155.585938 144.558594 L 156.875 145.84375 L 157.699219 147.464844 Z M 157.984375 149.261719 "/>
<path style=" stroke:none;fill-rule:nonzero;fill:rgb(80.392157%,58.431373%,4.705882%);fill-opacity:1;" d="M 161.863281 176.398438 L 161.578125 178.195313 L 160.75 179.816406 L 159.464844 181.105469 L 157.84375 181.929688 L 156.046875 182.214844 L 154.25 181.929688 L 152.628906 181.105469 L 151.339844 179.816406 L 150.515625 178.195313 L 150.230469 176.398438 L 150.515625 174.601563 L 151.339844 172.980469 L 152.414063 171.910156 L 152.707031 171.65625 L 154.25 170.871094 L 156.046875 170.585938 L 157.84375 170.871094 L 159.121094 171.519531 L 157.109375 173.804688 L 156.367188 175.339844 L 156.707031 175.816406 L 157.367188 175.984375 L 158.261719 175.542969 L 160.882813 173.242188 L 161.578125 174.601563 Z M 161.863281 176.398438 "/>
<path style=" stroke:none;fill-rule:nonzero;fill:rgb(80.392157%,58.431373%,4.705882%);fill-opacity:1;" d="M 161.863281 288.832031 L 161.578125 290.628906 L 160.75 292.25 L 159.652344 293.347656 L 159.410156 293.515625 L 156.15625 293.3125 L 155.160156 292.984375 L 150.335938 289.484375 L 150.230469 288.832031 L 150.515625 287.035156 L 151.339844 285.414063 L 152.628906 284.125 L 154.25 283.300781 L 156.046875 283.015625 L 157.84375 283.300781 L 159.464844 284.125 L 160.75 285.414063 L 161.578125 287.035156 Z M 161.863281 288.832031 "/>
<path style=" stroke:none;fill-rule:nonzero;fill:rgb(80.392157%,58.431373%,4.705882%);fill-opacity:1;" d="M 119.214844 219.046875 L 118.929688 220.84375 L 118.105469 222.464844 L 116.816406 223.75 L 115.527344 224.410156 L 116.136719 223.339844 L 115.425781 223.117188 L 112.546875 224.726563 L 111.601563 224.578125 L 109.980469 223.75 L 109.414063 223.183594 L 112.214844 222.164063 L 112.035156 221.589844 L 109.863281 222.445313 L 108.707031 222.476563 L 108.695313 222.464844 L 108.0625 221.222656 L 109.386719 219.472656 L 112.601563 217.957031 L 112.90625 216.820313 L 112.554688 216.699219 L 109.90625 217.519531 L 108.308594 216.386719 L 108.695313 215.628906 L 109.980469 214.339844 L 111.601563 213.515625 L 113.359375 213.238281 L 113.785156 214.699219 L 116.457031 215.945313 L 117.929688 216.300781 L 118.859375 217.113281 L 118.929688 217.25 Z M 107.761719 217.921875 L 107.871094 217.25 L 108.191406 216.617188 L 109.105469 217.519531 L 109.070313 217.820313 L 108.136719 218.074219 Z M 114.636719 213.425781 L 115.195313 213.515625 L 116.816406 214.339844 L 117.753906 215.277344 L 115.878906 214.433594 L 114.8125 213.664063 Z M 114.636719 213.425781 "/>
<path style=" stroke:none;fill-rule:nonzero;fill:rgb(80.392157%,58.431373%,4.705882%);fill-opacity:1;" d="M 157.984375 288.832031 L 157.699219 290.628906 L 156.875 292.25 L 155.894531 293.226563 L 155.160156 292.984375 L 149.984375 289.230469 L 149.214844 288.042969 L 149.230469 287.167969 L 148.945313 287.023438 L 148.15625 288.078125 L 147.988281 288.910156 L 148.375 290.554688 L 149.574219 292.960938 L 149.675781 294.007813 L 148.75 293.535156 L 147.464844 292.25 L 146.636719 290.628906 L 146.355469 288.832031 L 146.636719 287.035156 L 147.464844 285.414063 L 148.75 284.125 L 150.371094 283.300781 L 152.167969 283.015625 L 153.964844 283.300781 L 155.585938 284.125 L 156.875 285.414063 L 157.699219 287.035156 Z M 157.984375 288.832031 "/>
<path style=" stroke:none;fill-rule:nonzero;fill:rgb(80.392157%,58.431373%,4.705882%);fill-opacity:1;" d="M 150.09375 312.957031 L 149.945313 313.890625 L 149.121094 315.511719 L 147.832031 316.796875 L 146.210938 317.625 L 144.414063 317.90625 L 142.617188 317.625 L 140.996094 316.796875 L 140.4375 316.238281 L 142.300781 315.023438 L 144.765625 310.230469 L 145.863281 309.40625 L 148.800781 308.355469 L 149.121094 308.675781 L 149.148438 308.730469 Z M 150.09375 312.957031 "/>
<path style=" stroke:none;fill-rule:nonzero;fill:rgb(80.392157%,58.431373%,4.705882%);fill-opacity:1;" d="M 147.992188 317.859375 L 146.496094 317.625 L 144.875 316.796875 L 143.585938 315.511719 L 142.824219 314.011719 L 144.765625 310.230469 L 145.863281 309.40625 L 149.046875 308.269531 L 150.203125 313.453125 Z M 147.992188 317.859375 "/>
<path style=" stroke:none;fill-rule:nonzero;fill:rgb(80.392157%,58.431373%,4.705882%);fill-opacity:1;" d="M 114.609375 493.097656 L 115.480469 492.652344 L 117.277344 492.371094 L 119.074219 492.652344 L 120.695313 493.480469 L 121.980469 494.765625 L 122.808594 496.386719 L 122.871094 496.789063 L 122.722656 496.945313 L 120.660156 497.648438 L 119.628906 499.730469 L 118.675781 498.910156 L 117.96875 497.691406 L 118.09375 496.4375 L 117.15625 494.691406 L 115.984375 493.691406 Z M 114.609375 493.097656 "/>
<path style=" stroke:none;fill-rule:nonzero;fill:rgb(80.392157%,58.431373%,4.705882%);fill-opacity:1;" d="M 183.464844 168.734375 L 182.726563 169.472656 L 181.105469 170.300781 L 179.308594 170.585938 L 177.511719 170.300781 L 175.890625 169.472656 L 174.601563 168.1875 L 173.988281 166.980469 L 174.046875 166.78125 L 178.648438 166.167969 L 179.285156 167.089844 L 180.148438 167.667969 Z M 183.464844 168.734375 "/>
<path style=" stroke:none;fill-rule:nonzero;fill:rgb(80.392157%,58.431373%,4.705882%);fill-opacity:1;" d="M 80.410156 190.308594 L 80.554688 190.378906 L 81.117188 190.9375 L 81.808594 193.710938 L 80.203125 195.140625 L 79.542969 195.171875 L 77.601563 194.722656 L 77.417969 194.15625 Z M 80.410156 190.308594 "/>
</g>
</svg>
