<?xml version="1.0" encoding="UTF-8"?>
<svg xmlns="http://www.w3.org/2000/svg" xmlns:xlink="http://www.w3.org/1999/xlink" width="378pt" height="504pt" viewBox="0 0 378 504" version="1.1">
<g id="data">
<rect x="0" y="0" width="378" height="504" style="fill:rgb(100%,100%,100%);fill-opacity:1;stroke:none;"/>
<path style=" stroke:none;fill-rule:nonzero;fill:rgb(100%,100%,100%);fill-opacity:1;" d="M 53.308594 504 L 324.691406 504 L 324.691406 0 L 53.308594 0 Z M 53.308594 504 "/>
<path style=" stroke:none;fill-rule:nonzero;fill:rgb(22.745098%,53.333333%,16.078431%);fill-opacity:1;" d="M 154.421875 484.753906 L 152.996094 483.703125 L 151.949219 482.273438 L 151.382813 480.589844 L 151.351563 478.816406 L 151.855469 477.117188 L 152.847656 475.648438 L 154.238281 474.546875 L 155.894531 473.914063 L 158.511719 473.351563 L 160.046875 472.472656 L 161.230469 471.179688 L 162.382813 468.640625 L 163.101563 467.457031 L 164.082031 466.476563 L 165.707031 465.199219 L 166.984375 463.574219 L 169.039063 461.925781 L 170.761719 461.097656 L 172.175781 460.003906 L 172.972656 459.558594 L 173.042969 458.613281 L 173.429688 456.984375 L 173.496094 455.308594 L 173.941406 453.292969 L 175.0625 451.5625 L 176.15625 450.398438 L 176.769531 449.421875 L 177.179688 448.347656 L 177.253906 447.9375 L 180.570313 447.503906 L 181.109375 445.632813 L 181.210938 443.15625 L 181.640625 442.195313 L 181.761719 442.144531 L 184.625 441.421875 L 186.246094 440.339844 L 187.410156 438.777344 L 188.046875 436.707031 L 188.070313 435.789063 L 187.933594 435.023438 L 190.867188 432.195313 L 195.792969 425.3125 L 197.929688 424.472656 L 198.285156 423.78125 L 198.070313 423.238281 L 197.8125 423.082031 L 196.09375 424.355469 L 192.90625 427.300781 L 190.570313 429.988281 L 189.222656 431.449219 L 186.742188 432.492188 L 185.933594 431.667969 L 184.921875 430.992188 L 183.898438 430.574219 L 182.113281 430.238281 L 180.40625 429.632813 L 178.96875 428.527344 L 177.941406 427.035156 L 177.421875 425.300781 L 177.460938 423.488281 L 178.058594 421.777344 L 179.152344 420.335938 L 180.636719 419.296875 L 182.441406 418.414063 L 183.488281 417.5625 L 184.246094 416.582031 L 184.839844 415.296875 L 185.066406 414.304688 L 185.128906 412.675781 L 185.585938 410.613281 L 186.410156 408.679688 L 186.625 407.363281 L 186.441406 405.648438 L 185.550781 403.449219 L 185.136719 401.636719 L 185.3125 399.785156 L 186.066406 398.085938 L 187.316406 396.710938 L 188.9375 395.800781 L 190.765625 395.449219 L 192.609375 395.691406 L 194.28125 396.503906 L 196.003906 397.714844 L 197.308594 398.21875 L 198.675781 398.394531 L 200.160156 398.210938 L 201.445313 397.714844 L 202.589844 396.910156 L 203.496094 395.867188 L 204.15625 394.566406 L 204.632813 392.304688 L 204.832031 391.59375 L 205.914063 388.488281 L 205.96875 387.554688 L 205.828125 386.492188 L 205.488281 385.476563 L 204.902344 384.449219 L 204.21875 383.648438 L 202.84375 382.566406 L 201.453125 380.984375 L 200.71875 379.007813 L 200.441406 377.4375 L 200.03125 376.363281 L 199.417969 375.386719 L 198.324219 374.222656 L 197.265625 372.628906 L 196.777344 370.777344 L 196.921875 368.867188 L 197.480469 366.566406 L 198.179688 364.894531 L 199.355469 363.523438 L 199.695313 363.3125 L 199.476563 363.359375 L 197.613281 363.140625 L 195.917969 362.339844 L 194.328125 361.246094 L 193.328125 360.839844 L 186.242188 359.832031 L 184.46875 359.277344 L 182.960938 358.195313 L 181.867188 356.691406 L 181.308594 354.917969 L 181.335938 353.0625 L 181.46875 352.679688 L 181.503906 352.695313 L 181.914063 353.875 L 182.898438 354.332031 L 184.078125 356.789063 L 185.613281 357.902344 L 188.359375 357.621094 L 190.335938 355.148438 L 189.90625 355.050781 L 188.667969 355.527344 L 188.3125 355.957031 L 186.378906 356.386719 L 183.8125 354.640625 L 182.148438 351.042969 L 183.078125 349.835938 L 184.621094 348.796875 L 186.09375 348.113281 L 186.972656 347.484375 L 187.722656 346.707031 L 188.1875 345.988281 L 188.957031 343.613281 L 189.144531 341.339844 L 189.015625 339.671875 L 189.117188 338.074219 L 189.648438 336.5625 L 190.570313 335.253906 L 191.664063 334.089844 L 192.277344 333.113281 L 192.6875 332.039063 L 192.964844 330.46875 L 193.617188 328.640625 L 194.832031 327.125 L 196.480469 326.097656 L 198.375 325.671875 L 200.300781 325.890625 L 202.050781 326.730469 L 204.554688 328.5 L 206.40625 329.007813 L 208.441406 328.847656 L 211.117188 327.625 L 212.984375 327.128906 L 214.914063 327.269531 L 216.6875 328.035156 L 218.113281 329.339844 L 219.03125 331.039063 L 220.101563 334.167969 L 221.992188 336.570313 L 222.84375 338.070313 L 222.867188 338.179688 L 223.308594 337.867188 L 225.15625 337.332031 L 227.144531 337.097656 L 228.488281 336.601563 L 229.574219 335.875 L 230.542969 334.816406 L 231.179688 333.65625 L 231.542969 332.355469 L 231.621094 330.5 L 231.253906 328.445313 L 231.207031 326.6875 L 231.515625 325.597656 L 230.527344 325.820313 L 228.644531 325.621094 L 226.761719 325.101563 L 224.683594 325.023438 L 224.578125 325.003906 L 224.390625 325.125 L 220.894531 326.742188 L 219.25 327.222656 L 217.539063 327.203125 L 215.910156 326.6875 L 214.496094 325.71875 L 213.429688 324.382813 L 212.796875 322.792969 L 212.417969 321.179688 L 212.277344 319.445313 L 212.652344 317.746094 L 213.519531 316.234375 L 214.789063 315.046875 L 216.355469 314.292969 L 218.078125 314.03125 L 221.953125 314.03125 L 222.214844 314.070313 L 222.277344 314.023438 L 224.230469 313.035156 L 225.875 311.59375 L 227.394531 310.632813 L 229.132813 310.183594 L 230.925781 310.28125 L 232.601563 310.925781 L 234.003906 312.050781 L 234.996094 313.546875 L 235.480469 315.277344 L 235.96875 319.324219 L 235.882813 321.210938 L 235.675781 321.753906 L 237.40625 321.617188 L 239.117188 322.011719 L 240.636719 322.898438 L 243.171875 324.953125 L 244.503906 325.601563 L 246.179688 325.914063 L 248.535156 325.6875 L 250.460938 325.824219 L 252.234375 326.582031 L 253.664063 327.882813 L 254.773438 329.292969 L 254.984375 329.992188 L 256.160156 332.453125 L 263.316406 342.46875 L 263.640625 343.980469 L 262.804688 345.191406 L 263.28125 343.65625 L 262.507813 342.839844 L 260.445313 342 L 258.378906 342.789063 L 257.507813 342.753906 L 256.035156 341.773438 L 253.664063 338.65625 L 252.601563 338.082031 L 245.550781 339.511719 L 244.589844 338.644531 L 243.40625 338.558594 L 241.210938 339.871094 L 241.886719 340.445313 L 246.324219 340.394531 L 249.617188 339.34375 L 251.976563 339.082031 L 254.382813 342.558594 L 260.535156 347.621094 L 263.042969 349.058594 L 263.664063 349.039063 L 266.046875 352.214844 L 267.53125 355.804688 L 267.066406 356.128906 L 264.800781 357.1875 L 263.597656 358.242188 L 262.757813 359.503906 L 261.777344 362.078125 L 261.574219 363.683594 L 261.769531 365.117188 L 262.316406 366.453125 L 263.175781 367.589844 L 264.855469 368.789063 L 265.183594 368.882813 L 264.953125 369.09375 L 261.394531 373.164063 L 260.601563 374.816406 L 262.84375 374.3125 L 264.9375 375.519531 L 266.9375 378.226563 L 270.21875 378.804688 L 270.625 378.746094 L 271.910156 376.796875 L 272.234375 374.960938 L 273.40625 371.914063 L 274.707031 370.632813 L 277.851563 370.085938 L 283.34375 370.234375 L 284.253906 370.867188 L 284.8125 370.839844 L 285.441406 371.804688 L 286.25 373.664063 L 286.957031 374.621094 L 288.179688 375.632813 L 290.269531 376.582031 L 291.789063 377.589844 L 292.925781 379.015625 L 294.414063 381.652344 L 296.097656 383.066406 L 297.523438 383.621094 L 299.996094 383.835938 L 300.789063 383.960938 L 302.753906 384.410156 L 303.984375 384.410156 L 305.949219 383.960938 L 306.648438 383.917969 L 306.730469 384.164063 L 307.179688 391.25 L 306.777344 393.191406 L 306.890625 393.976563 L 305.789063 396.917969 L 303.519531 407.832031 L 297.144531 414.53125 L 295.578125 412.011719 L 292.742188 410.515625 L 292.480469 410.636719 L 293.898438 413.703125 L 295.890625 416.628906 L 296.3125 416.765625 L 296.164063 417.742188 L 294.574219 419.804688 L 292.191406 421.289063 L 290.003906 421.65625 L 289.660156 421.574219 L 288.214844 419.332031 L 284.976563 421.730469 L 280.71875 424.230469 L 282.339844 425.378906 L 285.105469 424.398438 L 286.097656 423.375 L 286.894531 423.164063 L 287.328125 423.710938 L 287.632813 428.84375 L 285.6875 430.875 L 283.441406 432.558594 L 282.84375 432.699219 L 279.644531 432.160156 L 274.75 433.78125 L 272.609375 436.117188 L 274.253906 436.015625 L 275.152344 434.667969 L 276.683594 434.363281 L 278.285156 434.328125 L 281.054688 434.949219 L 281.828125 435.589844 L 281.691406 436.328125 L 279.554688 436.347656 L 277.390625 437.65625 L 277.96875 438.546875 L 281.382813 438.964844 L 286.863281 440.339844 L 289.394531 439.9375 L 291.074219 438.957031 L 294.996094 438.414063 L 296.113281 438.558594 L 298.574219 438.164063 L 299.945313 438.144531 L 300.988281 440.148438 L 300.773438 446.324219 L 300.335938 447.820313 L 299.394531 449.050781 L 296.972656 450.242188 L 295.839844 450.375 L 292.621094 451.640625 L 291.488281 452.507813 L 288.304688 453.96875 L 286.722656 455.402344 L 285.316406 458.128906 L 284.1875 457.9375 L 281.042969 460.90625 L 279.753906 461.421875 L 278.902344 461.511719 L 277.746094 461.890625 L 277.148438 462.238281 L 274.789063 462.777344 L 272.597656 463.816406 L 270.539063 466.589844 L 269.761719 466.949219 L 259.269531 463.777344 L 256.070313 463.507813 L 244.628906 465.699219 L 242.703125 466.390625 L 242.113281 466.964844 L 241.902344 467.984375 L 241.359375 468.164063 L 238.210938 466.1875 L 238.632813 465.4375 L 239.46875 464.933594 L 237.714844 463.296875 L 231.496094 463.171875 L 231.378906 463.496094 L 232.574219 464.835938 L 232.214844 465.75 L 231.738281 466.042969 L 226.691406 465.496094 L 219.566406 468.449219 L 217.054688 467.824219 L 210.222656 468.96875 L 208.164063 468.875 L 207.273438 468.058594 L 206.238281 469.769531 L 209.429688 471.089844 L 209.714844 470.9375 L 210.1875 472.128906 L 209.566406 473.890625 L 206.84375 474.453125 L 204.589844 473.175781 L 204.679688 471.496094 L 203.972656 469.296875 L 203.460938 468.535156 L 202.324219 467.394531 L 201.027344 465.402344 L 200.371094 463.714844 L 199.652344 462.636719 L 198.71875 461.746094 L 197.695313 461.121094 L 196.566406 460.726563 L 195.234375 460.566406 L 194.214844 460.652344 L 192.535156 461.128906 L 190.5625 461.339844 L 188.714844 461.222656 L 187.207031 461.402344 L 185.023438 462.234375 L 182.445313 464.40625 L 181.476563 464.988281 L 181.453125 465.6875 L 180.996094 468.082031 L 181.09375 469.140625 L 176.207031 469.78125 L 174.339844 470.335938 L 168.992188 473.234375 L 168.214844 474.070313 L 167.203125 476.179688 L 162.746094 489.226563 L 160.929688 490.242188 L 159.144531 489.894531 L 158.550781 489.050781 L 157.71875 487.328125 L 157 486.410156 L 156.007813 485.582031 Z M 220.4375 345.066406 L 219.957031 345.394531 L 218.3125 345.910156 L 216.632813 346.171875 L 215.691406 346.515625 L 213.550781 347.945313 L 212.703125 348.414063 L 210.632813 349.339844 L 209.738281 350.027344 L 208.976563 350.921875 L 207.820313 353.355469 L 207.195313 354.382813 L 205.621094 356.457031 L 205.246094 357.304688 L 204.875 358.875 L 204.160156 360.609375 L 202.929688 362.023438 L 202.707031 362.152344 L 204.453125 362.28125 L 206.128906 362.960938 L 208.648438 364.476563 L 210.683594 364.875 L 213.375 364.488281 L 215.4375 364.5625 L 217.609375 365.035156 L 218.980469 364.988281 L 220.402344 364.574219 L 221.644531 363.832031 L 222.722656 362.726563 L 223.5 361.320313 L 223.796875 360.246094 L 223.902344 358.308594 L 224.332031 356.398438 L 225.136719 354.445313 L 225.339844 353.078125 L 225.191406 351.605469 L 224.679688 350.234375 L 223.851563 349.046875 L 222.082031 347.550781 L 220.835938 346.085938 Z M 184.183594 175.039063 L 182.199219 175.03125 L 180.335938 174.363281 L 178.804688 173.109375 L 177.78125 171.410156 L 177.390625 169.46875 L 177.371094 168.8125 L 177.613281 166.976563 L 177.960938 166.257813 L 178.648438 166.167969 L 179.285156 167.089844 L 180.148438 167.667969 L 184.320313 169.011719 L 187.675781 167.128906 L 192.757813 167.953125 L 192.859375 169.113281 L 192.394531 170.96875 L 191.351563 172.574219 L 189.847656 173.75 L 188.039063 174.378906 Z M 173.609375 233.394531 L 174.328125 231.546875 L 175.628906 230.050781 L 177.355469 229.078125 L 179.308594 228.738281 L 183.183594 228.738281 L 185.121094 229.070313 L 186.835938 230.027344 L 189.835938 232.449219 L 189.914063 232.53125 L 189.460938 232.730469 L 188.34375 232.882813 L 187.070313 232.078125 L 185.40625 232.042969 L 181.046875 235.800781 L 180.578125 237.003906 L 174.761719 240.109375 L 171.847656 238.832031 L 172.265625 237.367188 L 173.199219 235.402344 Z M 191.773438 238.371094 L 191.6875 238.851563 L 190.871094 240.417969 L 189.621094 241.667969 L 188.050781 242.480469 L 186.3125 242.789063 L 184.496094 242.828125 L 183.402344 243.078125 L 182.382813 243.53125 L 180.90625 244.589844 L 179.195313 245.433594 L 177.300781 245.675781 L 175.433594 245.292969 L 173.789063 244.324219 L 172.546875 242.875 L 171.835938 241.105469 L 171.824219 240.808594 L 178.0625 241.875 L 182.921875 243.167969 L 186.398438 241.730469 L 187.519531 239.417969 L 188.617188 238.355469 L 189.539063 238.171875 Z M 164.609375 177.726563 L 165.9375 179.039063 L 166.78125 180.707031 L 167.050781 182.554688 L 166.722656 184.390625 L 165.828125 186.03125 L 164.515625 187.722656 L 163.144531 188.996094 L 161.441406 189.765625 L 159.582031 189.960938 L 157.757813 189.550781 L 156.15625 188.582031 L 154.945313 187.15625 L 154.246094 185.421875 L 153.550781 182.296875 L 153.429688 180.558594 L 153.832031 178.859375 L 154.71875 177.355469 L 156.011719 176.183594 L 156.769531 175.832031 L 157.367188 175.984375 L 158.261719 175.542969 L 158.507813 175.328125 L 159.320313 175.214844 L 161.042969 175.507813 L 162.597656 176.292969 Z M 286.679688 439.636719 L 283.058594 438.976563 L 282.164063 437.605469 L 282.484375 436.070313 L 286.839844 437.054688 L 287.960938 438.832031 Z M 236.835938 466.113281 L 235.136719 465.644531 L 236.523438 463.683594 L 237.195313 464.164063 L 237.5 465.839844 Z M 228.117188 474.644531 L 222.296875 470.886719 L 220.207031 471.1875 L 221.476563 469.683594 L 227.316406 466.367188 L 232.550781 467.761719 L 234.171875 469.894531 L 231.242188 473.621094 L 229.960938 474.269531 Z M 228.117188 474.644531 "/>
<path style=" stroke:none;fill-rule:nonzero;fill:rgb(80.392157%,58.431373%,4.705882%);fill-opacity:1;" d="M 181.246094 385.753906 L 180.960938 387.550781 L 180.136719 389.171875 L 178.847656 390.457031 L 177.226563 391.285156 L 175.429688 391.570313 L 173.632813 391.285156 L 172.011719 390.457031 L 170.726563 389.171875 L 169.898438 387.550781 L 169.617188 385.753906 L 169.898438 383.957031 L 170.726563 382.335938 L 172.011719 381.050781 L 173.632813 380.222656 L 175.429688 379.9375 L 177.226563 380.222656 L 178.847656 381.050781 L 180.136719 382.335938 L 180.960938 383.957031 Z M 181.246094 385.753906 "/>
<path style=" stroke:none;fill-rule:nonzero;fill:rgb(80.392157%,58.431373%,4.705882%);fill-opacity:1;" d="M 181.246094 180.277344 L 180.960938 182.074219 L 180.136719 183.695313 L 178.847656 184.980469 L 177.226563 185.808594 L 175.429688 186.09375 L 173.632813 185.808594 L 172.011719 184.980469 L 170.726563 183.695313 L 169.898438 182.074219 L 169.617188 180.277344 L 169.898438 178.480469 L 170.726563 176.859375 L 172.011719 175.570313 L 173.632813 174.746094 L 175.429688 174.460938 L 177.226563 174.746094 L 178.847656 175.570313 L 180.136719 176.859375 L 180.960938 178.480469 Z M 181.246094 180.277344 "/>
<path style=" stroke:none;fill-rule:nonzero;fill:rgb(80.392157%,58.431373%,4.705882%);fill-opacity:1;" d="M 185.125 292.707031 L 184.839844 294.503906 L 184.011719 296.125 L 182.726563 297.414063 L 181.105469 298.238281 L 179.308594 298.523438 L 177.511719 298.238281 L 175.890625 297.414063 L 174.601563 296.125 L 173.777344 294.503906 L 173.492188 292.707031 L 173.777344 290.910156 L 174.601563 289.289063 L 175.890625 288.003906 L 177.511719 287.175781 L 179.308594 286.890625 L 181.105469 287.175781 L 182.726563 288.003906 L 184.011719 289.289063 L 184.839844 290.910156 Z M 185.125 292.707031 "/>
<path style=" stroke:none;fill-rule:nonzero;fill:rgb(80.392157%,58.431373%,4.705882%);fill-opacity:1;" d="M 223.890625 288.832031 L 223.609375 290.628906 L 222.78125 292.25 L 221.496094 293.535156 L 219.875 294.363281 L 218.078125 294.644531 L 216.28125 294.363281 L 214.660156 293.535156 L 213.371094 292.25 L 212.546875 290.628906 L 212.261719 288.832031 L 212.546875 287.035156 L 213.371094 285.414063 L 214.660156 284.125 L 216.28125 283.300781 L 218.078125 283.015625 L 219.875 283.300781 L 221.496094 284.125 L 222.78125 285.414063 L 223.609375 287.035156 Z M 223.890625 288.832031 "/>
<path style=" stroke:none;fill-rule:nonzero;fill:rgb(80.392157%,58.431373%,4.705882%);fill-opacity:1;" d="M 189 195.785156 L 188.714844 197.582031 L 187.890625 199.203125 L 186.601563 200.488281 L 184.980469 201.316406 L 183.183594 201.601563 L 181.386719 201.316406 L 179.765625 200.488281 L 178.480469 199.203125 L 177.652344 197.582031 L 177.371094 195.785156 L 177.652344 193.988281 L 178.480469 192.367188 L 179.765625 191.078125 L 181.386719 190.253906 L 183.183594 189.96875 L 184.980469 190.253906 L 186.601563 191.078125 L 187.890625 192.367188 L 188.714844 193.988281 Z M 189 195.785156 "/>
<path style=" stroke:none;fill-rule:nonzero;fill:rgb(80.392157%,58.431373%,4.705882%);fill-opacity:1;" d="M 161.863281 246.183594 L 161.578125 247.980469 L 160.75 249.601563 L 159.464844 250.890625 L 157.84375 251.714844 L 156.046875 252 L 154.25 251.714844 L 152.628906 250.890625 L 151.339844 249.601563 L 150.515625 247.980469 L 150.230469 246.183594 L 150.515625 244.386719 L 151.339844 242.765625 L 152.628906 241.480469 L 154.25 240.652344 L 156.046875 240.371094 L 157.84375 240.652344 L 159.464844 241.480469 L 160.75 242.765625 L 161.578125 244.386719 Z M 161.863281 246.183594 "/>
<path style=" stroke:none;fill-rule:nonzero;fill:rgb(80.392157%,58.431373%,4.705882%);fill-opacity:1;" d="M 142.476563 478.800781 L 142.191406 480.597656 L 141.367188 482.21875 L 140.078125 483.503906 L 138.457031 484.332031 L 137.804688 484.433594 L 134.878906 484.332031 L 134.863281 484.332031 L 133.242188 483.503906 L 131.957031 482.21875 L 131.128906 480.597656 L 130.847656 478.800781 L 131.128906 477.003906 L 131.957031 475.382813 L 133.242188 474.09375 L 134.863281 473.269531 L 136.660156 472.984375 L 138.457031 473.269531 L 140.078125 474.09375 L 141.367188 475.382813 L 142.191406 477.003906 Z M 142.476563 478.800781 "/>
<path style=" stroke:none;fill-rule:nonzero;fill:rgb(80.392157%,58.431373%,4.705882%);fill-opacity:1;" d="M 181.246094 362.492188 L 180.960938 364.289063 L 180.136719 365.910156 L 178.847656 367.195313 L 177.226563 368.023438 L 175.429688 368.308594 L 173.632813 368.023438 L 172.011719 367.195313 L 170.726563 365.910156 L 169.898438 364.289063 L 169.617188 362.492188 L 169.898438 360.695313 L 170.726563 359.074219 L 172.011719 357.789063 L 173.632813 356.960938 L 175.429688 356.675781 L 176.726563 356.882813 L 179.910156 359.441406 L 180.113281 359.050781 L 180.136719 359.074219 L 180.960938 360.695313 Z M 181.246094 362.492188 "/>
<path style=" stroke:none;fill-rule:nonzero;fill:rgb(80.392157%,58.431373%,4.705882%);fill-opacity:1;" d="M 189 288.832031 L 188.714844 290.628906 L 187.890625 292.25 L 186.601563 293.535156 L 184.980469 294.363281 L 183.183594 294.644531 L 181.386719 294.363281 L 179.765625 293.535156 L 178.480469 292.25 L 177.652344 290.628906 L 177.371094 288.832031 L 177.652344 287.035156 L 178.128906 286.097656 L 178.757813 285.980469 L 180.191406 286.804688 L 181.015625 286.710938 L 182.933594 286.238281 L 183.03125 285.160156 L 182.34375 284.746094 L 180.035156 285.351563 L 178.636719 285.257813 L 179.765625 284.125 L 181.386719 283.300781 L 183.183594 283.015625 L 184.980469 283.300781 L 186.601563 284.125 L 187.890625 285.414063 L 188.714844 287.035156 Z M 189 288.832031 "/>
<path style=" stroke:none;fill-rule:nonzero;fill:rgb(80.392157%,58.431373%,4.705882%);fill-opacity:1;" d="M 154.109375 424.523438 L 153.824219 426.320313 L 152.996094 427.941406 L 151.710938 429.226563 L 150.089844 430.054688 L 148.292969 430.339844 L 147.019531 430.136719 L 146.917969 429.308594 L 148.539063 428.378906 L 150.066406 428.890625 L 151.640625 428.421875 L 152.765625 427.832031 L 153.085938 427.097656 L 152.808594 426.597656 L 147.785156 426.460938 L 143.210938 423.710938 L 142.605469 423.710938 L 142.761719 422.726563 L 143.585938 421.105469 L 144.875 419.816406 L 146.496094 418.992188 L 148.292969 418.707031 L 150.089844 418.992188 L 151.710938 419.816406 L 152.996094 421.105469 L 153.824219 422.726563 Z M 154.109375 424.523438 "/>
<path style=" stroke:none;fill-rule:nonzero;fill:rgb(80.392157%,58.431373%,4.705882%);fill-opacity:1;" d="M 230.6875 299.707031 L 230.535156 300.003906 L 229.25 301.289063 L 227.628906 302.117188 L 225.832031 302.398438 L 224.035156 302.117188 L 222.414063 301.289063 L 221.125 300.003906 L 220.300781 298.382813 L 220.015625 296.585938 L 220.300781 294.789063 L 221.125 293.167969 L 222.414063 291.878906 L 224.035156 291.054688 L 225.160156 290.875 L 225.945313 294.183594 L 229.304688 299.0625 Z M 230.6875 299.707031 "/>
<path style=" stroke:none;fill-rule:nonzero;fill:rgb(80.392157%,58.431373%,4.705882%);fill-opacity:1;" d="M 181.246094 315.96875 L 180.960938 317.765625 L 180.136719 319.386719 L 178.847656 320.675781 L 177.226563 321.5 L 176.699219 321.582031 L 172.851563 314.925781 L 172.289063 311.832031 L 171.945313 311.332031 L 172.011719 311.265625 L 173.632813 310.4375 L 175.429688 310.152344 L 177.226563 310.4375 L 178.847656 311.265625 L 180.136719 312.550781 L 180.960938 314.171875 Z M 181.246094 315.96875 "/>
<path style=" stroke:none;fill-rule:nonzero;fill:rgb(80.392157%,58.431373%,4.705882%);fill-opacity:1;" d="M 210.738281 253.894531 L 209.863281 254.765625 L 208.242188 255.59375 L 206.445313 255.875 L 204.648438 255.59375 L 203.027344 254.765625 L 201.742188 253.480469 L 200.914063 251.859375 L 200.628906 250.0625 L 200.914063 248.265625 L 201.742188 246.644531 L 203.027344 245.355469 L 203.582031 245.074219 L 206.488281 246.65625 L 208.910156 251.429688 Z M 210.738281 253.894531 "/>
<path style=" stroke:none;fill-rule:nonzero;fill:rgb(80.392157%,58.431373%,4.705882%);fill-opacity:1;" d="M 150.230469 424.523438 L 149.945313 426.320313 L 149.847656 426.515625 L 147.785156 426.460938 L 143.210938 423.710938 L 139.503906 423.714844 L 138.703125 423.878906 L 138.882813 422.726563 L 139.710938 421.105469 L 140.996094 419.816406 L 142.617188 418.992188 L 144.414063 418.707031 L 146.210938 418.992188 L 147.832031 419.816406 L 149.121094 421.105469 L 149.945313 422.726563 Z M 148.648438 428.414063 L 147.832031 429.226563 L 146.964844 429.671875 L 146.917969 429.308594 L 148.539063 428.378906 Z M 148.648438 428.414063 "/>
<path style=" stroke:none;fill-rule:nonzero;fill:rgb(80.392157%,58.431373%,4.705882%);fill-opacity:1;" d="M 204.722656 197.449219 L 204.648438 197.4375 L 203.027344 196.613281 L 201.742188 195.324219 L 200.914063 193.703125 L 200.628906 191.90625 L 200.914063 190.109375 L 201.742188 188.488281 L 203.027344 187.203125 L 204.648438 186.375 L 206.445313 186.09375 L 208.058594 186.347656 L 207.15625 188.339844 L 206.664063 191.242188 L 206.84375 191.972656 L 206.226563 194.742188 Z M 204.722656 197.449219 "/>
<path style=" stroke:none;fill-rule:nonzero;fill:rgb(80.392157%,58.431373%,4.705882%);fill-opacity:1;" d="M 139.320313 318.101563 L 140.539063 317.90625 L 142.335938 318.191406 L 143.957031 319.019531 L 145.242188 320.304688 L 145.378906 320.574219 L 145.3125 320.636719 L 141.859375 323.019531 L 139.824219 322.464844 L 137.933594 323.433594 L 137.675781 322.921875 Z M 139.320313 318.101563 "/>
<path style=" stroke:none;fill-rule:nonzero;fill:rgb(80.392157%,58.431373%,4.705882%);fill-opacity:1;" d="M 126.96875 416.769531 L 126.683594 418.566406 L 125.859375 420.1875 L 125.375 420.671875 L 124.929688 417.953125 L 123.328125 417.210938 L 121.445313 417.105469 L 122.0625 415.152344 L 125.882813 413.402344 L 126.683594 414.972656 Z M 126.96875 416.769531 "/>
</g>
</svg>
