<?xml version="1.0" encoding="UTF-8"?>
<svg xmlns="http://www.w3.org/2000/svg" xmlns:xlink="http://www.w3.org/1999/xlink" width="378pt" height="504pt" viewBox="0 0 378 504" version="1.1">
<g id="data">
<rect x="0" y="0" width="378" height="504" style="fill:rgb(100%,100%,100%);fill-opacity:1;stroke:none;"/>
<path style=" stroke:none;fill-rule:nonzero;fill:rgb(100%,100%,100%);fill-opacity:1;" d="M 53.308594 504 L 324.691406 504 L 324.691406 0 L 53.308594 0 Z M 53.308594 504 "/>
<path style=" stroke:none;fill-rule:nonzero;fill:rgb(22.745098%,53.333333%,16.078431%);fill-opacity:1;" d="M 177.386719 316.695313 L 181.199219 317.082031 L 184.929688 316.203125 L 188.078125 314.246094 L 190.515625 311.289063 L 190.9375 312.09375 L 188.828125 315.441406 L 187.957031 319.429688 L 188.402344 323.109375 L 189.984375 326.457031 L 191.945313 328.65625 L 194.503906 330.347656 L 196.546875 331.109375 L 198.691406 331.476563 L 200.558594 332.839844 L 202.660156 333.804688 L 206.574219 334.4375 L 209.121094 334.125 L 211.65625 333.207031 L 213.808594 331.8125 L 215.890625 329.742188 L 217.242188 327.574219 L 218.117188 325.042969 L 218.390625 322.507813 L 218.078125 319.847656 L 220.957031 319.96875 L 224.683594 319.289063 L 227.414063 317.960938 L 229.707031 315.96875 L 232.542969 317.140625 L 235.457031 317.527344 L 238.503906 317.140625 L 241.339844 315.96875 L 245.214844 316.632813 L 249.09375 315.96875 L 247.304688 318.628906 L 246.3125 321.675781 L 246.1875 324.878906 L 246.941406 327.992188 L 248 330.046875 L 250.28125 333.097656 L 252.96875 335.355469 L 254.945313 337.785156 L 256.847656 339.230469 L 257.445313 342.078125 L 257.78125 342.765625 L 257.507813 342.753906 L 256.035156 341.773438 L 253.664063 338.65625 L 252.601563 338.082031 L 245.550781 339.511719 L 244.589844 338.644531 L 243.40625 338.558594 L 241.210938 339.871094 L 241.886719 340.445313 L 246.324219 340.394531 L 249.617188 339.34375 L 251.976563 339.082031 L 254.382813 342.558594 L 260.535156 347.621094 L 261.679688 348.277344 L 262.253906 348.976563 L 264.601563 350.863281 L 264.972656 352.984375 L 265.789063 355.113281 L 267.003906 357.042969 L 268.476563 358.617188 L 267.847656 361.5 L 267.96875 364.453125 L 268.417969 365.9375 L 264.953125 369.09375 L 261.394531 373.164063 L 260.601563 374.816406 L 262.84375 374.3125 L 264.9375 375.519531 L 266.9375 378.226563 L 270.21875 378.804688 L 270.625 378.746094 L 271.910156 376.796875 L 272.234375 374.960938 L 273.265625 372.269531 L 274.59375 373.085938 L 277.289063 373.941406 L 280.109375 374.125 L 281.179688 376.589844 L 282.703125 378.648438 L 285.066406 380.605469 L 287.863281 381.875 L 288.773438 383.851563 L 290.035156 385.625 L 293.316406 388.257813 L 296.308594 389.371094 L 299.492188 389.628906 L 302.222656 390.238281 L 304.769531 390.210938 L 307.082031 389.667969 L 307.125 390.34375 L 306.582031 393.507813 L 306.734375 394.394531 L 305.789063 396.917969 L 305.367188 398.945313 L 304.644531 399.546875 L 301.820313 402.933594 L 300.679688 404.765625 L 299.578125 408.257813 L 299.332031 410.765625 L 299.433594 412.125 L 298.054688 413.574219 L 296.894531 414.125 L 295.578125 412.011719 L 292.742188 410.515625 L 292.480469 410.636719 L 293.898438 413.703125 L 295.128906 415.511719 L 293.828125 416.703125 L 292.5625 418.628906 L 291.738281 420.644531 L 290.625 421.550781 L 290.003906 421.65625 L 289.660156 421.574219 L 288.214844 419.332031 L 284.976563 421.730469 L 280.71875 424.230469 L 282.339844 425.378906 L 285.105469 424.398438 L 286.097656 423.375 L 286.894531 423.164063 L 287.328125 423.710938 L 287.410156 425.121094 L 286.699219 426.0625 L 285.621094 428.246094 L 285.003906 430.738281 L 284.984375 431.402344 L 283.441406 432.558594 L 282.84375 432.699219 L 279.644531 432.160156 L 274.75 433.78125 L 272.609375 436.117188 L 274.253906 436.015625 L 275.152344 434.667969 L 276.683594 434.363281 L 278.285156 434.328125 L 281.054688 434.949219 L 281.828125 435.589844 L 281.691406 436.328125 L 279.554688 436.347656 L 277.390625 437.65625 L 277.96875 438.546875 L 281.382813 438.964844 L 286.863281 440.339844 L 288.03125 440.152344 L 290.109375 442.105469 L 293.0625 443.605469 L 296.320313 444.214844 L 299.492188 443.90625 L 299.492188 447.785156 L 295.617188 447.785156 L 293.136719 447.203125 L 290.71875 447.164063 L 287.496094 447.902344 L 285.066406 449.054688 L 282.363281 451.398438 L 280.992188 453.410156 L 280.109375 455.539063 L 277.9375 457.246094 L 276.230469 459.414063 L 273.4375 460.6875 L 271.070313 462.644531 L 269.484375 464.816406 L 268.707031 466.632813 L 267.261719 466.195313 L 265.421875 464.71875 L 261.730469 463.417969 L 258.847656 463.128906 L 249.09375 463.292969 L 246.234375 462.671875 L 243.4375 462.765625 L 238.242188 463.789063 L 237.714844 463.296875 L 231.496094 463.171875 L 231.378906 463.496094 L 232.574219 464.835938 L 232.214844 465.75 L 231.738281 466.042969 L 226.691406 465.496094 L 219.566406 468.449219 L 217.054688 467.824219 L 210.222656 468.96875 L 208.164063 468.875 L 207.273438 468.058594 L 206.238281 469.769531 L 209.429688 471.089844 L 209.714844 470.9375 L 210.1875 472.128906 L 209.566406 473.890625 L 206.84375 474.453125 L 204.453125 473.097656 L 203.015625 472.699219 L 197.625 472.007813 L 196.175781 472.65625 L 195.679688 473.863281 L 195.832031 474.871094 L 196.757813 475.523438 L 196.488281 476.304688 L 195.917969 475.996094 L 194.851563 473.972656 L 190.289063 470.589844 L 185.898438 468.519531 L 183.121094 467.984375 L 181.648438 469.066406 L 176.207031 469.78125 L 174.339844 470.335938 L 168.992188 473.234375 L 168.214844 474.070313 L 167.203125 476.179688 L 163.699219 486.429688 L 162.277344 484.648438 L 160.394531 483.097656 L 158.226563 481.976563 L 155.746094 481.3125 L 151.90625 481.371094 L 148.523438 482.59375 L 148.46875 482.535156 L 147.800781 482.585938 L 144.796875 482.019531 L 142.636719 482.148438 L 140.539063 482.675781 L 137.679688 482.054688 L 134.757813 482.167969 L 131.816406 483.019531 L 129.5625 484.230469 L 126.730469 486.996094 L 125.117188 490.253906 L 124.039063 490.597656 L 124.039063 490.605469 L 122.910156 490.804688 L 120.777344 491.621094 L 118.847656 492.835938 L 117.277344 494.308594 L 114.214844 491.851563 L 110.511719 490.554688 L 115.199219 490.394531 L 117.59375 489.90625 L 120.378906 488.59375 L 122.636719 486.6875 L 124.460938 484.050781 L 125.46875 481.140625 L 125.679688 478.066406 L 125.183594 475.65625 L 125.476563 474.921875 L 128.90625 474.921875 L 130.992188 476.769531 L 133.335938 478.023438 L 136.660156 478.800781 L 139.746094 480.03125 L 142.796875 480.355469 L 145.578125 479.9375 L 148.292969 478.800781 L 155.085938 479.113281 L 158.230469 478.617188 L 161.859375 476.769531 L 164.824219 473.609375 L 166.261719 470.609375 L 166.789063 467.328125 L 166.371094 464.03125 L 164.964844 460.878906 L 162.699219 458.277344 L 159.648438 456.40625 L 155.425781 455.449219 L 152.167969 455.539063 L 150.460938 453.367188 L 148.378906 451.730469 L 148.292969 450.386719 L 148.292969 447.785156 L 151.175781 448.414063 L 154 448.316406 L 156.71875 447.539063 L 159.167969 446.128906 L 159.542969 445.769531 L 159.910156 445.683594 L 164.597656 446.761719 L 166.046875 446.148438 L 167.527344 446.515625 L 169.484375 447.285156 L 170.039063 448.109375 L 170.757813 448.421875 L 173.15625 448.464844 L 180.570313 447.503906 L 181.109375 445.632813 L 181.210938 443.15625 L 181.363281 442.820313 L 181.808594 442.609375 L 184.492188 440.050781 L 186.238281 436.78125 L 186.265625 436.632813 L 190.867188 432.195313 L 195.792969 425.3125 L 197.929688 424.472656 L 198.285156 423.78125 L 198.070313 423.238281 L 197.8125 423.082031 L 196.09375 424.355469 L 192.90625 427.300781 L 190.570313 429.988281 L 189.222656 431.449219 L 186.75 432.488281 L 186.519531 430.199219 L 185.261719 427.121094 L 183.183594 424.523438 L 185.8125 423.207031 L 187.941406 421.367188 L 189.566406 419.070313 L 190.621094 416.324219 L 190.9375 412.890625 L 192.109375 410.054688 L 192.496094 407.011719 L 192.109375 404.097656 L 190.9375 401.261719 L 191.085938 398.757813 L 190.597656 394.582031 L 189.816406 392.40625 L 188.625 390.425781 L 187.066406 388.71875 L 185.195313 387.355469 L 181.230469 385.914063 L 177.683594 385.59375 L 175.429688 385.753906 L 177.625 383.140625 L 178.964844 380 L 179.621094 375.59375 L 179.121094 371.9375 L 178.300781 369.925781 L 177.042969 368.007813 L 173.722656 364.199219 L 171.554688 362.492188 L 170.523438 360.316406 L 169.15625 358.492188 L 167.871094 357.460938 L 172.597656 355.179688 L 173.933594 355.046875 L 174.484375 355.082031 L 179.910156 359.441406 L 180.433594 358.429688 L 177.679688 353.460938 L 178.242188 352.835938 L 180.867188 352.449219 L 181.503906 352.695313 L 181.914063 353.875 L 182.898438 354.332031 L 184.078125 356.789063 L 185.613281 357.902344 L 188.359375 357.621094 L 190.335938 355.148438 L 189.90625 355.050781 L 188.667969 355.527344 L 188.3125 355.957031 L 186.378906 356.386719 L 183.8125 354.640625 L 179.976563 346.332031 L 180.195313 345.9375 L 181.433594 344.476563 L 182.8125 341.351563 L 182.828125 341.226563 L 183.371094 340.257813 L 185.429688 339.015625 L 185.140625 338.578125 L 183.230469 338.488281 L 183.339844 337.730469 L 183.183594 331.476563 L 183.578125 329.691406 L 184.695313 329.191406 L 187.28125 323.421875 L 187.71875 320.933594 L 187.855469 317.484375 L 184.742188 320.527344 L 182.558594 321.675781 L 181.472656 319.949219 L 179.5625 318.050781 Z M 285.902344 436.84375 L 286.308594 437.828125 L 287.289063 439.253906 L 286.679688 439.636719 L 283.058594 438.976563 L 282.164063 437.605469 L 282.484375 436.070313 Z M 237.132813 464.121094 L 235.773438 464.746094 L 236.523438 463.683594 Z M 232.289063 467.691406 L 231.945313 468.066406 L 230.71875 470.175781 L 229.964844 472.496094 L 229.773438 474.304688 L 229.152344 474.433594 L 227.519531 473.003906 L 224.921875 471.6875 L 222.890625 471.269531 L 222.296875 470.886719 L 221.546875 470.992188 L 220.695313 470.820313 L 220.515625 470.816406 L 221.476563 469.683594 L 227.316406 466.367188 Z M 163.832031 249.175781 L 166.121094 248.949219 L 168.316406 248.277344 L 170.339844 247.1875 L 172.105469 245.722656 L 174.417969 242.371094 L 174.691406 241.296875 L 178.0625 241.875 L 182.921875 243.167969 L 186.398438 241.730469 L 187.519531 239.417969 L 188.617188 238.355469 L 189.539063 238.171875 L 193.183594 238.5 L 193.585938 238.777344 L 193.828125 240.085938 L 195.539063 243.949219 L 197.511719 246.621094 L 200.15625 248.625 L 203.261719 249.804688 L 206.445313 250.0625 L 207.582031 252.636719 L 209.308594 254.863281 L 211.625 256.679688 L 214.199219 257.816406 L 213.535156 261.691406 L 214.199219 265.570313 L 211.957031 265.976563 L 209.949219 266.757813 L 208.019531 267.972656 L 206.445313 269.445313 L 202.890625 269.164063 L 199.417969 269.96875 L 196.960938 271.324219 L 194.816406 273.324219 L 195.617188 269.695313 L 195.230469 265.996094 L 193.699219 262.609375 L 191.175781 259.878906 L 189.222656 258.640625 L 187.0625 257.816406 L 185.320313 255.753906 L 183.039063 254.089844 L 180.792969 253.128906 L 178.398438 252.660156 L 175.320313 252.796875 L 172.386719 253.734375 L 169.703125 255.496094 L 167.675781 257.816406 L 167.421875 255.398438 L 166.671875 253.085938 L 165.457031 250.984375 Z M 175.035156 239.964844 L 175.429688 238.429688 L 177.277344 236.492188 L 178.6875 234.0625 L 179.597656 230.226563 L 179.203125 225.917969 L 179.050781 225.433594 L 179.84375 225.195313 L 184.019531 223.171875 L 184.898438 223.390625 L 188.0625 223.554688 L 189.242188 223.289063 L 188.898438 224.691406 L 189.238281 225.953125 L 190.898438 226.824219 L 192.214844 227.054688 L 192.257813 227.179688 L 193.375 229.046875 L 193.984375 229.738281 L 192.117188 231.570313 L 189.460938 232.730469 L 188.34375 232.882813 L 187.070313 232.078125 L 185.40625 232.042969 L 181.046875 235.800781 L 180.578125 237.003906 Z M 178.753906 224.46875 L 178.230469 222.777344 L 176.417969 220.035156 L 179.859375 222.148438 L 181.25 222.492188 Z M 183.183594 168.644531 L 183.1875 168.644531 L 184.320313 169.011719 L 184.96875 168.644531 L 187.0625 168.644531 L 190.9375 169.3125 L 194.816406 168.644531 L 192 170.167969 L 189.707031 172.398438 L 188.109375 175.171875 L 187.328125 178.273438 L 187.398438 181.347656 L 188.273438 184.292969 L 189.570313 186.5 L 192.550781 190.027344 L 195.570313 192.191406 L 199.246094 193.304688 L 202.960938 193.1875 L 206.445313 191.90625 L 204.519531 193.949219 L 203.140625 196.390625 L 202.296875 199.855469 L 202.570313 203.539063 L 200.113281 206.601563 L 199.9375 207.105469 L 199.179688 207.605469 L 198.746094 208.105469 L 198.667969 205.742188 L 198.167969 203.222656 L 196.851563 200.4375 L 194.949219 198.179688 L 192.425781 196.414063 L 189.398438 195.347656 L 186.199219 195.144531 L 183.183594 195.785156 L 183.984375 192.15625 L 183.632813 188.582031 L 182.136719 185.179688 L 179.644531 182.421875 L 177.476563 181.046875 L 173.3125 179.347656 L 171.054688 178.859375 L 168.742188 178.824219 L 166.101563 179.359375 L 163.65625 180.492188 L 161.535156 182.15625 L 159.921875 184.152344 L 159.550781 182.03125 L 158.734375 179.902344 L 157.519531 177.972656 L 156.046875 176.398438 L 159.21875 176.707031 L 162.351563 176.136719 L 165.21875 174.742188 L 167.675781 172.523438 L 174.46875 172.835938 L 177.496094 172.375 L 180.617188 170.9375 Z M 179.308594 292.707031 L 181.476563 291 L 183.183594 288.832031 L 183.273438 291.058594 L 183.824219 293.347656 L 181.660156 292.8125 Z M 141.566406 423.714844 L 142.707031 422.816406 L 144.414063 420.644531 L 146.121094 422.816406 L 148.292969 424.523438 L 144.558594 424.523438 L 143.210938 423.710938 Z M 94.015625 141.507813 L 96.574219 141.507813 L 95.960938 142.378906 L 96.332031 143.359375 L 95.257813 144.632813 Z M 97.429688 141.507813 L 97.890625 141.507813 L 97.675781 141.765625 L 97.453125 141.691406 Z M 81.457031 164.742188 L 83.398438 164.726563 L 83.976563 164.601563 L 86.257813 164.691406 L 86.261719 164.769531 L 84.257813 165.746094 L 82.382813 167.171875 L 80.691406 165.871094 Z M 81.457031 164.742188 "/>
</g>
</svg>
