<?xml version="1.0" encoding="UTF-8"?>
<svg xmlns="http://www.w3.org/2000/svg" xmlns:xlink="http://www.w3.org/1999/xlink" width="378pt" height="504pt" viewBox="0 0 378 504" version="1.1">
<g id="data">
<rect x="0" y="0" width="378" height="504" style="fill:rgb(100%,100%,100%);fill-opacity:1;stroke:none;"/>
<path style=" stroke:none;fill-rule:nonzero;fill:rgb(100%,100%,100%);fill-opacity:1;" d="M 53.308594 504 L 324.691406 504 L 324.691406 0 L 53.308594 0 Z M 53.308594 504 "/>
<path style=" stroke:none;fill-rule:nonzero;fill:rgb(22.745098%,53.333333%,16.078431%);fill-opacity:1;" d="M 303.371094 389.628906 L 305.074219 391.800781 L 306.785156 393.144531 L 306.777344 393.191406 L 306.878906 393.902344 L 305.695313 395.179688 L 304.558594 397.011719 L 303.742188 399.140625 L 303.371094 401.261719 L 300.320313 402.875 L 297.957031 405.207031 L 296.101563 408.839844 L 295.699219 412.203125 L 295.578125 412.011719 L 292.742188 410.515625 L 292.480469 410.636719 L 293.898438 413.703125 L 294.136719 414.054688 L 293.445313 414.597656 L 291.738281 416.769531 L 289.171875 416.90625 L 286.699219 417.601563 L 284.4375 418.824219 L 282.5 420.511719 L 280.40625 423.734375 L 279.472656 427.460938 L 279.664063 430.664063 L 280.214844 432.253906 L 279.644531 432.160156 L 274.75 433.78125 L 272.609375 436.117188 L 274.253906 436.015625 L 275.152344 434.667969 L 276.683594 434.363281 L 278.285156 434.328125 L 281.054688 434.949219 L 281.828125 435.589844 L 281.691406 436.328125 L 279.554688 436.347656 L 277.390625 437.65625 L 277.96875 438.546875 L 281.382813 438.964844 L 286.863281 440.339844 L 289.394531 439.9375 L 289.574219 439.832031 L 291.738281 440.03125 L 294.210938 440.609375 L 296.875 440.628906 L 299.472656 440.039063 L 296.128906 441.886719 L 293.632813 444.613281 L 292.117188 447.984375 L 291.738281 451.660156 L 287.6875 452.148438 L 284.054688 454.003906 L 281.722656 456.367188 L 280.109375 459.414063 L 277.9375 461.121094 L 277.042969 462.261719 L 275.878906 462.527344 L 274.621094 459.800781 L 272.066406 457.105469 L 268.789063 455.351563 L 264.996094 454.71875 L 261.449219 455.277344 L 257.394531 457.164063 L 254.671875 459.859375 L 252.96875 463.292969 L 252.625 460.488281 L 251.558594 457.738281 L 249.832031 455.34375 L 247.664063 453.535156 L 245.371094 452.382813 L 242.878906 451.765625 L 239.335938 451.5 L 235.035156 451.777344 L 232.324219 452.539063 L 229.878906 453.929688 L 227.839844 455.863281 L 226.320313 458.230469 L 224.804688 461.757813 L 224.28125 464.78125 L 224.445313 466.429688 L 219.824219 468.339844 L 218.847656 468.109375 L 218.277344 468.128906 L 217.054688 467.824219 L 210.222656 468.96875 L 208.164063 468.875 L 207.273438 468.058594 L 206.253906 469.746094 L 203.125 469.648438 L 200.628906 470.257813 L 198.328125 471.398438 L 197.503906 472.058594 L 196.175781 472.65625 L 195.6875 473.839844 L 195.140625 474.519531 L 194.851563 473.972656 L 190.289063 470.589844 L 185.898438 468.519531 L 183.121094 467.984375 L 181.648438 469.066406 L 176.207031 469.78125 L 174.339844 470.335938 L 168.992188 473.234375 L 168.214844 474.070313 L 167.203125 476.179688 L 163.601563 486.714844 L 161.28125 488.625 L 160.175781 490.09375 L 159.558594 489.972656 L 158.125 488.171875 L 154.472656 485.082031 L 152.65625 483.921875 L 150.535156 483.085938 L 148.660156 482.75 L 148.46875 482.535156 L 147.757813 482.585938 L 144.542969 482.011719 L 140.539063 482.675781 L 138.285156 482.519531 L 133.730469 482.882813 L 130.039063 484.304688 L 127.039063 486.878906 L 125.132813 490.246094 L 124.039063 490.597656 L 123.742188 491.804688 L 123.558594 492.003906 L 122.398438 493.820313 L 121.5625 495.941406 L 121.289063 497.433594 L 120.660156 497.648438 L 120.632813 497.707031 L 118.800781 496.039063 L 117.539063 495.40625 L 117.15625 494.691406 L 115.984375 493.691406 L 112.253906 492.070313 L 111.410156 491.984375 L 110.375 492.488281 L 110.242188 494.183594 L 110.191406 494.242188 L 109.523438 494.308594 L 107.816406 492.136719 L 106.007813 490.714844 L 106.074219 490.5625 L 106.308594 490.460938 L 108.527344 490.554688 L 112.132813 489.910156 L 114.875 488.613281 L 117.277344 486.554688 L 119.519531 486.144531 L 121.640625 485.308594 L 126.746094 481.402344 L 128.90625 478.800781 L 130.996094 477.824219 L 132.847656 476.457031 L 134.902344 474.011719 L 136.210938 471.097656 L 136.664063 468.449219 L 136.664063 466.714844 L 138.636719 464.640625 L 138.898438 461.410156 L 140.539063 459.414063 L 142.707031 457.707031 L 144.105469 455.933594 L 144.269531 456.015625 L 145.160156 455.664063 L 148.292969 456.203125 L 152.167969 455.539063 L 155.378906 456.800781 L 158.945313 457.058594 L 161.457031 456.566406 L 163.800781 455.539063 L 166.835938 456.058594 L 170.023438 455.734375 L 172.664063 454.738281 L 174.988281 453.132813 L 176.554688 451.433594 L 177.8125 449.339844 L 178.339844 447.792969 L 180.570313 447.503906 L 181.109375 445.632813 L 181.210938 443.15625 L 182.519531 440.25 L 190.867188 432.195313 L 195.792969 425.3125 L 197.929688 424.472656 L 198.285156 423.78125 L 198.070313 423.238281 L 197.8125 423.082031 L 196.09375 424.355469 L 192.90625 427.300781 L 190.570313 429.988281 L 189.222656 431.449219 L 185.628906 432.957031 L 183.714844 433.246094 L 182.441406 433.0625 L 178.394531 435.230469 L 177.398438 436.808594 L 177.113281 438.292969 L 176.980469 438.039063 L 175.429688 436.152344 L 178.546875 434.671875 L 181.09375 432.34375 L 182.359375 430.414063 L 183.183594 428.398438 L 185.53125 426.511719 L 188.980469 422.335938 L 190.339844 419.617188 L 190.9375 416.769531 L 193.507813 414.445313 L 195.230469 411.589844 L 196.105469 407.976563 L 195.796875 404.273438 L 194.050781 400.425781 L 192.636719 398.757813 L 190.9375 397.382813 L 191.246094 395.109375 L 191.121094 392.941406 L 190.59375 390.835938 L 189.621094 388.753906 L 187.0625 385.753906 L 185.292969 382.503906 L 183.117188 380.34375 L 179.480469 378.488281 L 175.429688 378 L 177.699219 375.066406 L 178.929688 371.570313 L 178.996094 367.863281 L 177.890625 364.320313 L 176.503906 362.167969 L 174.574219 360.292969 L 169.5 357.144531 L 168.984375 356.921875 L 172.597656 355.179688 L 173.933594 355.046875 L 174.484375 355.082031 L 179.910156 359.441406 L 180.433594 358.429688 L 177.679688 353.460938 L 177.871094 353.246094 L 178.203125 353.105469 L 178.5625 352.785156 L 180.867188 352.449219 L 181.503906 352.695313 L 181.914063 353.875 L 182.898438 354.332031 L 184.078125 356.789063 L 185.613281 357.902344 L 188.359375 357.621094 L 190.335938 355.148438 L 189.90625 355.050781 L 188.667969 355.527344 L 188.3125 355.957031 L 186.378906 356.386719 L 183.8125 354.640625 L 181.628906 349.914063 L 182.554688 348.472656 L 183.375 346.445313 L 183.855469 343.144531 L 183.363281 340.269531 L 183.371094 340.257813 L 185.429688 339.015625 L 185.140625 338.578125 L 183.199219 338.488281 L 183.386719 329.777344 L 184.695313 329.191406 L 185.492188 327.417969 L 185.78125 327.867188 L 187.714844 329.746094 L 190.503906 331.328125 L 193.621094 332.089844 L 196.0625 332.078125 L 198.691406 331.476563 L 201.890625 331.21875 L 204.085938 330.496094 L 206.097656 329.347656 L 207.753906 327.921875 L 209.179688 326.101563 L 210.355469 323.671875 L 210.921875 321.167969 L 210.910156 318.46875 L 210.324219 315.96875 L 213.363281 314.363281 L 215.722656 312.039063 L 217.375 309.023438 L 218.078125 305.65625 L 218.734375 308.902344 L 220.355469 311.933594 L 222.789063 314.363281 L 225.832031 315.96875 L 225.058594 319.214844 L 225.265625 322.667969 L 226.480469 325.914063 L 228.503906 328.5625 L 230.859375 330.34375 L 233.585938 331.476563 L 235.566406 333.253906 L 237.894531 334.53125 L 241.960938 335.441406 L 245.214844 335.355469 L 246.828125 338.402344 L 247.527344 339.109375 L 245.550781 339.511719 L 244.589844 338.644531 L 243.40625 338.558594 L 241.648438 339.609375 L 240.429688 338.261719 L 238.339844 336.78125 L 236.101563 335.828125 L 233.585938 335.355469 L 231.320313 334.886719 L 228.878906 334.890625 L 226.617188 335.367188 L 224.492188 336.277344 L 222.589844 337.589844 L 220.90625 339.355469 L 219.628906 341.433594 L 218.84375 343.609375 L 218.503906 345.894531 L 218.621094 348.203125 L 219.195313 350.445313 L 220.199219 352.527344 L 221.507813 354.273438 L 223.625 356.289063 L 225.683594 357.539063 L 227.832031 358.304688 L 231.09375 358.855469 L 233.261719 358.898438 L 235.648438 358.46875 L 237.78125 357.609375 L 239.898438 356.1875 L 241.835938 354.148438 L 243.132813 352.09375 L 243.972656 349.808594 L 244.324219 347.273438 L 244.113281 344.71875 L 243.351563 342.277344 L 242.304688 340.441406 L 246.324219 340.394531 L 248.203125 339.796875 L 249.160156 340.765625 L 252.796875 342.621094 L 254.742188 342.855469 L 260.535156 347.621094 L 260.605469 347.660156 L 260.058594 350.863281 L 260.722656 354.738281 L 258.429688 353.925781 L 256.011719 353.605469 L 253.585938 353.796875 L 251.371094 354.441406 L 249.21875 355.582031 L 247.351563 357.148438 L 245.851563 359.066406 L 244.78125 361.253906 L 244.210938 363.488281 L 244.09375 365.792969 L 244.433594 368.074219 L 245.214844 370.246094 L 243.960938 373.605469 L 243.785156 377.191406 L 244.875 381.003906 L 247.183594 384.234375 L 251.636719 387.484375 L 253.671875 388.273438 L 255.945313 388.679688 L 258.257813 388.628906 L 260.511719 388.121094 L 262.734375 387.117188 L 264.601563 385.753906 L 268.117188 386.417969 L 271.546875 386.019531 L 274.925781 384.488281 L 277.570313 382.074219 L 279.351563 378.96875 L 280.109375 375.46875 L 280.609375 378.238281 L 281.765625 380.808594 L 283.503906 383.027344 L 285.722656 384.761719 L 288.050781 385.832031 L 290.558594 386.367188 L 293.121094 386.339844 L 295.617188 385.753906 L 297.1875 387.226563 L 299.117188 388.441406 L 301.246094 389.257813 Z M 190.9375 385.753906 L 191.417969 388.242188 L 192.363281 390.453125 L 193.746094 392.425781 L 195.613281 394.160156 L 197.707031 395.40625 L 200.019531 396.1875 L 202.570313 396.46875 L 204.996094 396.214844 L 207.546875 395.351563 L 210.324219 393.507813 L 213.050781 392.375 L 216.191406 389.742188 L 217.609375 387.601563 L 218.554688 385.078125 L 218.894531 382.53125 L 218.636719 379.84375 L 217.636719 376.796875 L 216.300781 374.464844 L 214.363281 372.417969 L 212.109375 370.953125 L 209.347656 369.949219 L 206.828125 369.585938 L 199.511719 370.476563 L 197.082031 371.277344 L 194.988281 372.511719 L 193.195313 374.15625 L 191.785156 376.136719 L 190.777344 378.484375 L 190.316406 380.859375 L 190.359375 383.277344 Z M 282.453125 436.21875 L 284.898438 438.269531 L 287.261719 439.269531 L 286.679688 439.636719 L 283.058594 438.976563 L 282.164063 437.605469 Z M 224.59375 467.910156 L 224.597656 467.960938 L 225.832031 471.046875 L 222.632813 469.023438 Z M 181.433594 322.265625 L 180.839844 321.382813 L 179.308594 319.847656 L 179.929688 317.007813 L 179.832031 314.101563 L 181.058594 317.164063 L 183.183594 319.847656 L 183.292969 321.289063 Z M 189.945313 212.34375 L 188.207031 215.175781 L 187.359375 218.253906 L 187.386719 220.648438 L 185.519531 221.085938 L 182.847656 221.226563 L 177.804688 225.21875 L 178.117188 225.714844 L 179.84375 225.195313 L 184.609375 222.886719 L 186.457031 221.386719 L 187.289063 221.316406 L 187.394531 221.347656 L 187.394531 221.578125 L 188.316406 224.636719 L 189.40625 226.519531 L 190.921875 228.257813 L 192.746094 229.660156 L 193.625 230.09375 L 192.117188 231.570313 L 189.460938 232.730469 L 188.34375 232.882813 L 187.070313 232.078125 L 185.40625 232.042969 L 181.046875 235.800781 L 180.578125 237.003906 L 176.433594 239.21875 L 175.429688 238.429688 L 176.53125 235.84375 L 176.976563 233.191406 L 176.664063 229.882813 L 175.429688 226.800781 L 176.105469 224.328125 L 176.214844 221.636719 L 175.398438 218.148438 L 173.558594 215.074219 L 176.300781 215.480469 L 179.308594 215.167969 L 181.578125 215.476563 L 183.863281 215.335938 L 187.125 214.292969 Z M 198.699219 242.320313 L 200.625 246.050781 L 203.222656 248.507813 L 206.445313 250.0625 L 207.855469 253.070313 L 209.960938 255.476563 L 211.957031 256.871094 L 214.199219 257.816406 L 213.542969 261.261719 L 213.945313 264.75 L 212.691406 262.230469 L 210.78125 260 L 208.480469 258.382813 L 205.863281 257.359375 L 202.304688 257.015625 L 198.691406 257.816406 L 194.558594 257.152344 L 190.9375 257.816406 L 187.0625 257.816406 L 187.757813 255.210938 L 187.835938 252.515625 L 187.289063 249.871094 L 186.21875 247.539063 L 183.722656 244.617188 L 181.582031 243.191406 L 179.308594 242.308594 L 179.207031 242.179688 L 182.921875 243.167969 L 186.398438 241.730469 L 187.519531 239.417969 L 188.617188 238.355469 L 189.539063 238.171875 L 193.183594 238.5 Z M 210.375 168.949219 L 210.695313 170.769531 L 211.511719 172.898438 L 212.726563 174.828125 L 213.347656 175.488281 L 213.601563 176.34375 L 210.902344 176.101563 L 207.652344 176.742188 L 208.867188 174.972656 L 209.734375 173.007813 L 210.230469 170.917969 L 210.316406 168.839844 Z M 159.511719 282.519531 L 161.332031 280.457031 L 162.570313 278.136719 L 164.878906 279.902344 L 167.675781 281.078125 L 169.109375 282.890625 L 170.5625 284.125 L 169.453125 284.03125 L 168.410156 288.242188 L 167.121094 286.871094 L 161.839844 283.539063 Z M 176.644531 286.382813 L 178.679688 286.386719 L 179.257813 286.269531 L 180.191406 286.804688 L 181.015625 286.710938 L 182.933594 286.238281 L 183.03125 285.160156 L 182.894531 285.078125 L 183.183594 284.953125 L 183.566406 288.636719 L 185.15625 292.117188 L 187.6875 294.816406 L 190.9375 296.585938 L 188.769531 298.292969 L 187.0625 300.460938 L 183.464844 302.613281 L 181.523438 304.804688 L 180.472656 306.703125 L 179.769531 308.886719 L 179.507813 311.039063 L 179.652344 313.203125 L 178.074219 309.570313 L 175.269531 306.601563 L 171.734375 304.824219 L 167.675781 304.339844 L 169.820313 301.628906 L 171.074219 298.410156 L 171.324219 294.964844 L 171.253906 294.65625 L 174.074219 288.722656 L 176.464844 286.417969 Z M 179.308594 168.644531 L 183.183594 168.644531 L 183.183594 172.523438 L 181.015625 174.230469 L 179.308594 176.398438 L 177.734375 174.925781 L 175.804688 173.710938 L 173.796875 172.929688 L 171.554688 172.523438 L 173.675781 172.148438 L 175.804688 171.335938 L 177.734375 170.117188 Z M 154.265625 358.539063 L 153.15625 358.492188 L 154.621094 357.980469 Z M 147.066406 240.648438 L 149.578125 241.796875 L 152.167969 242.308594 L 153.398438 243.96875 L 151 242.859375 L 148.292969 242.308594 Z M 144.414063 312.09375 L 148.292969 312.09375 L 146.324219 314.351563 L 145.042969 316.917969 L 144.992188 314.535156 Z M 144.414063 420.644531 L 142.246094 422.351563 L 141.175781 423.714844 L 140.878906 423.714844 L 141.566406 422.085938 L 142.015625 419.476563 Z M 144.414063 420.644531 "/>
</g>
</svg>
