<?xml version="1.0" encoding="UTF-8"?>
<svg xmlns="http://www.w3.org/2000/svg" xmlns:xlink="http://www.w3.org/1999/xlink" width="378pt" height="504pt" viewBox="0 0 378 504" version="1.1">
<g id="data">
<rect x="0" y="0" width="378" height="504" style="fill:rgb(100%,100%,100%);fill-opacity:1;stroke:none;"/>
<path style=" stroke:none;fill-rule:nonzero;fill:rgb(100%,100%,100%);fill-opacity:1;" d="M 53.308594 504 L 324.691406 504 L 324.691406 0 L 53.308594 0 Z M 53.308594 504 "/>
<path style=" stroke:none;fill-rule:nonzero;fill:rgb(22.745098%,53.333333%,16.078431%);fill-opacity:1;" d="M 303.371094 389.628906 L 305.074219 391.800781 L 306.785156 393.144531 L 306.777344 393.191406 L 306.863281 393.796875 L 305.4375 394.867188 L 303.371094 397.382813 L 301.199219 399.089844 L 299.492188 401.261719 L 300.628906 398.550781 L 301.050781 395.511719 L 300.664063 392.46875 L 299.492188 389.628906 Z M 275.976563 462.503906 L 275.902344 462.277344 L 278.214844 461.042969 L 280.109375 459.414063 L 278.402344 461.585938 L 277.746094 462.101563 Z M 214.199219 405.136719 L 216.777344 404 L 219.003906 402.277344 L 220.816406 399.960938 L 221.953125 397.382813 L 225.832031 397.382813 L 223.253906 398.523438 L 221.027344 400.246094 L 219.214844 402.5625 L 218.078125 405.136719 L 214.851563 405.914063 Z M 224.808594 428.496094 L 226.980469 427.410156 L 229.707031 424.523438 L 233.292969 426.730469 L 237.429688 427.515625 L 241.574219 426.777344 L 243.535156 425.824219 L 245.28125 424.523438 L 247.339844 422.078125 L 248.65625 419.164063 L 249.21875 415.773438 L 249.09375 412.890625 L 249.40625 410.351563 L 249.183594 407.925781 L 248.457031 405.601563 L 247.191406 403.375 L 245.5625 401.5625 L 247.933594 403.089844 L 250.597656 404 L 253.402344 404.246094 L 256.0625 403.84375 L 256.160156 406.472656 L 256.847656 409.015625 L 256.847656 412.890625 L 256.394531 415.03125 L 256.351563 417.21875 L 257.425781 421.308594 L 259.09375 423.898438 L 261.492188 426.03125 L 264.261719 427.386719 L 267.289063 427.96875 L 265.675781 430.027344 L 264.601563 432.277344 L 260.90625 434.03125 L 258.042969 436.953125 L 256.4375 440.4375 L 256.0625 444.382813 L 254.554688 441.695313 L 252.496094 439.574219 L 249.855469 437.988281 L 246.886719 437.15625 L 244.445313 437.066406 L 241.917969 437.527344 L 239.550781 438.53125 L 237.460938 440.03125 L 234.75 438.894531 L 231.710938 438.472656 L 228.667969 438.859375 L 225.832031 440.03125 L 226.839844 436.726563 L 226.835938 433.273438 L 225.8125 429.972656 Z M 257.839844 456.867188 L 258.269531 454.785156 L 258.300781 452.539063 L 260.722656 455.539063 Z M 228.585938 359.53125 L 232 359.933594 L 235.503906 359.28125 L 233.953125 362.730469 L 233.585938 366.371094 L 231.128906 369.429688 L 229.832031 373.132813 L 229.707031 370.246094 L 230.398438 367.671875 L 230.476563 364.878906 L 229.839844 362.027344 Z M 186.125 328.273438 L 188.789063 330.476563 L 191.984375 331.804688 L 195.425781 332.132813 L 198.691406 331.476563 L 200.125 333.292969 L 201.886719 334.789063 L 203.792969 335.855469 L 205.988281 336.574219 L 209.695313 336.785156 L 211.960938 336.320313 L 214.199219 335.355469 L 218.078125 335.355469 L 215.695313 338.503906 L 214.484375 342.394531 L 214.664063 346.335938 L 216.222656 350.101563 L 213.871094 349.496094 L 211.441406 349.386719 L 208.921875 349.824219 L 206.445313 350.863281 L 202.570313 350.863281 L 200.828125 348.800781 L 198.546875 347.136719 L 195.929688 346.066406 L 193.136719 345.664063 L 190.703125 345.863281 L 188.246094 346.621094 L 186.015625 347.898438 L 184.207031 349.535156 L 185.738281 346.15625 L 186.121094 342.335938 L 185.347656 339.0625 L 185.429688 339.015625 L 185.28125 338.792969 L 185.238281 338.597656 L 183.183594 335.355469 L 185.230469 332.121094 Z M 187.0625 432.277344 L 187.726563 428.398438 L 187.0625 424.523438 L 189.507813 427.375 L 191.476563 428.949219 L 190.570313 429.988281 L 189.222656 431.449219 L 187.128906 432.328125 Z M 192.5625 429.820313 L 192.769531 429.988281 L 195.011719 431.210938 L 197.085938 431.84375 L 199.242188 432.078125 L 201.40625 431.910156 L 203.5 431.34375 L 202.792969 434.582031 L 203.058594 438.011719 L 204.3125 441.210938 L 206.445313 443.90625 L 203.8125 444.054688 L 201.28125 444.789063 L 199.917969 441.652344 L 197.707031 439.042969 L 194.5 437.023438 L 190.9375 436.152344 L 189.230469 433.984375 L 189.109375 433.886719 L 190.867188 432.195313 Z M 197.921875 466.480469 L 196.09375 468.574219 L 194.816406 471.046875 L 195.121094 467.875 L 194.554688 464.738281 L 193.15625 461.875 L 190.9375 459.414063 L 194.542969 458.546875 L 195.714844 463.097656 Z M 197.921875 466.480469 "/>
<path style=" stroke:none;fill-rule:nonzero;fill:rgb(80.392157%,58.431373%,4.705882%);fill-opacity:1;" d="M 227.769531 354.738281 L 227.484375 356.535156 L 226.660156 358.15625 L 225.371094 359.441406 L 223.75 360.269531 L 221.953125 360.554688 L 220.15625 360.269531 L 218.535156 359.441406 L 217.25 358.15625 L 216.421875 356.535156 L 216.136719 354.738281 L 216.421875 352.941406 L 217.25 351.320313 L 218.535156 350.035156 L 220.15625 349.207031 L 221.953125 348.921875 L 223.75 349.207031 L 225.371094 350.035156 L 226.660156 351.320313 L 227.484375 352.941406 Z M 227.769531 354.738281 "/>
<path style=" stroke:none;fill-rule:nonzero;fill:rgb(80.392157%,58.431373%,4.705882%);fill-opacity:1;" d="M 189 366.371094 L 188.714844 368.167969 L 187.890625 369.789063 L 186.601563 371.074219 L 184.980469 371.898438 L 183.183594 372.183594 L 181.386719 371.898438 L 179.765625 371.074219 L 178.480469 369.789063 L 177.652344 368.167969 L 177.371094 366.371094 L 177.652344 364.570313 L 178.480469 362.949219 L 179.765625 361.664063 L 181.386719 360.839844 L 183.183594 360.554688 L 184.980469 360.839844 L 186.601563 361.664063 L 187.890625 362.949219 L 188.714844 364.570313 Z M 189 366.371094 "/>
<path style=" stroke:none;fill-rule:nonzero;fill:rgb(80.392157%,58.431373%,4.705882%);fill-opacity:1;" d="M 247.152344 354.738281 L 246.871094 356.535156 L 246.042969 358.15625 L 244.757813 359.441406 L 243.136719 360.269531 L 241.339844 360.554688 L 239.542969 360.269531 L 237.921875 359.441406 L 236.632813 358.15625 L 235.808594 356.535156 L 235.523438 354.738281 L 235.808594 352.941406 L 236.632813 351.320313 L 237.921875 350.035156 L 239.542969 349.207031 L 241.339844 348.921875 L 243.136719 349.207031 L 244.757813 350.035156 L 246.042969 351.320313 L 246.871094 352.941406 Z M 247.152344 354.738281 "/>
<path style=" stroke:none;fill-rule:nonzero;fill:rgb(80.392157%,58.431373%,4.705882%);fill-opacity:1;" d="M 196.753906 370.246094 L 196.46875 372.042969 L 195.644531 373.664063 L 194.355469 374.949219 L 192.734375 375.777344 L 190.9375 376.0625 L 189.140625 375.777344 L 187.519531 374.949219 L 186.234375 373.664063 L 185.40625 372.042969 L 185.125 370.246094 L 185.40625 368.449219 L 186.234375 366.828125 L 187.519531 365.542969 L 189.140625 364.714844 L 190.9375 364.429688 L 192.734375 364.714844 L 194.355469 365.542969 L 195.644531 366.828125 L 196.46875 368.449219 Z M 196.753906 370.246094 "/>
<path style=" stroke:none;fill-rule:nonzero;fill:rgb(80.392157%,58.431373%,4.705882%);fill-opacity:1;" d="M 216.136719 424.523438 L 215.855469 426.320313 L 215.027344 427.941406 L 213.742188 429.226563 L 212.121094 430.054688 L 210.324219 430.339844 L 208.527344 430.054688 L 206.90625 429.226563 L 205.617188 427.941406 L 204.792969 426.320313 L 204.507813 424.523438 L 204.792969 422.726563 L 205.617188 421.105469 L 206.90625 419.816406 L 208.527344 418.992188 L 210.324219 418.707031 L 212.121094 418.992188 L 213.742188 419.816406 L 215.027344 421.105469 L 215.855469 422.726563 Z M 216.136719 424.523438 "/>
<path style=" stroke:none;fill-rule:nonzero;fill:rgb(80.392157%,58.431373%,4.705882%);fill-opacity:1;" d="M 204.507813 257.816406 L 204.222656 259.613281 L 203.398438 261.234375 L 202.109375 262.519531 L 200.488281 263.347656 L 198.691406 263.628906 L 196.894531 263.347656 L 195.273438 262.519531 L 193.988281 261.234375 L 193.160156 259.613281 L 192.875 257.816406 L 193.160156 256.019531 L 193.988281 254.398438 L 195.273438 253.109375 L 196.894531 252.285156 L 198.691406 252 L 200.488281 252.285156 L 202.109375 253.109375 L 203.398438 254.398438 L 204.222656 256.019531 Z M 204.507813 257.816406 "/>
<path style=" stroke:none;fill-rule:nonzero;fill:rgb(80.392157%,58.431373%,4.705882%);fill-opacity:1;" d="M 185.125 176.398438 L 184.839844 178.195313 L 184.011719 179.816406 L 182.726563 181.105469 L 181.105469 181.929688 L 179.308594 182.214844 L 177.511719 181.929688 L 175.890625 181.105469 L 174.601563 179.816406 L 173.777344 178.195313 L 173.492188 176.398438 L 173.777344 174.601563 L 174.601563 172.980469 L 175.890625 171.695313 L 177.511719 170.871094 L 179.308594 170.585938 L 181.105469 170.871094 L 182.726563 171.695313 L 184.011719 172.980469 L 184.839844 174.601563 Z M 185.125 176.398438 "/>
<path style=" stroke:none;fill-rule:nonzero;fill:rgb(80.392157%,58.431373%,4.705882%);fill-opacity:1;" d="M 270.414063 393.507813 L 270.128906 395.304688 L 269.304688 396.925781 L 268.019531 398.210938 L 266.398438 399.039063 L 264.601563 399.324219 L 262.804688 399.039063 L 261.183594 398.210938 L 259.894531 396.925781 L 259.070313 395.304688 L 258.785156 393.507813 L 259.070313 391.710938 L 259.894531 390.089844 L 261.183594 388.804688 L 262.804688 387.976563 L 264.601563 387.691406 L 266.398438 387.976563 L 268.019531 388.804688 L 269.304688 390.089844 L 270.128906 391.710938 Z M 270.414063 393.507813 "/>
<path style=" stroke:none;fill-rule:nonzero;fill:rgb(80.392157%,58.431373%,4.705882%);fill-opacity:1;" d="M 161.863281 246.183594 L 161.578125 247.980469 L 160.75 249.601563 L 159.464844 250.890625 L 157.84375 251.714844 L 156.046875 252 L 154.25 251.714844 L 152.628906 250.890625 L 151.339844 249.601563 L 150.515625 247.980469 L 150.230469 246.183594 L 150.515625 244.386719 L 151.339844 242.765625 L 152.628906 241.480469 L 154.25 240.652344 L 156.046875 240.371094 L 157.84375 240.652344 L 159.464844 241.480469 L 160.75 242.765625 L 161.578125 244.386719 Z M 161.863281 246.183594 "/>
<path style=" stroke:none;fill-rule:nonzero;fill:rgb(80.392157%,58.431373%,4.705882%);fill-opacity:1;" d="M 150.230469 463.292969 L 149.945313 465.089844 L 149.121094 466.710938 L 147.832031 467.996094 L 146.210938 468.824219 L 144.414063 469.109375 L 142.617188 468.824219 L 140.996094 467.996094 L 139.710938 466.710938 L 138.882813 465.089844 L 138.695313 463.902344 L 138.890625 461.480469 L 139.710938 459.875 L 140.996094 458.585938 L 142.617188 457.761719 L 144.414063 457.476563 L 146.210938 457.761719 L 147.832031 458.585938 L 149.121094 459.875 L 149.945313 461.496094 Z M 150.230469 463.292969 "/>
<path style=" stroke:none;fill-rule:nonzero;fill:rgb(80.392157%,58.431373%,4.705882%);fill-opacity:1;" d="M 281.953125 425.105469 L 281.761719 426.320313 L 280.933594 427.941406 L 279.648438 429.226563 L 278.027344 430.054688 L 276.230469 430.339844 L 274.433594 430.054688 L 272.8125 429.226563 L 271.527344 427.941406 L 270.699219 426.320313 L 270.414063 424.523438 L 270.699219 422.726563 L 271.527344 421.105469 L 272.8125 419.816406 L 274.433594 418.992188 L 276.230469 418.707031 L 278.027344 418.992188 L 279.648438 419.816406 L 280.933594 421.105469 L 281.890625 423.542969 L 280.71875 424.230469 Z M 281.953125 425.105469 "/>
<path style=" stroke:none;fill-rule:nonzero;fill:rgb(80.392157%,58.431373%,4.705882%);fill-opacity:1;" d="M 142.476563 203.539063 L 142.191406 205.335938 L 141.367188 206.957031 L 140.078125 208.242188 L 138.457031 209.070313 L 136.660156 209.355469 L 134.863281 209.070313 L 133.242188 208.242188 L 132.347656 207.347656 L 134.21875 205.03125 L 134.59375 204.003906 L 131.875 206.792969 L 131.128906 205.335938 L 130.847656 203.539063 L 131.128906 201.742188 L 131.957031 200.121094 L 133.242188 198.832031 L 134.863281 198.007813 L 136.660156 197.722656 L 138.457031 198.007813 L 140.078125 198.832031 L 141.367188 200.121094 L 142.191406 201.742188 Z M 142.476563 203.539063 "/>
<path style=" stroke:none;fill-rule:nonzero;fill:rgb(80.392157%,58.431373%,4.705882%);fill-opacity:1;" d="M 218.648438 269.242188 L 217.617188 270.273438 L 215.996094 271.101563 L 214.199219 271.382813 L 212.402344 271.101563 L 210.78125 270.273438 L 209.496094 268.988281 L 208.667969 267.367188 L 208.382813 265.570313 L 208.667969 263.773438 L 209.496094 262.152344 L 210.78125 260.863281 L 212.402344 260.039063 L 214.199219 259.753906 L 215.996094 260.039063 L 217.617188 260.863281 L 218.128906 261.378906 L 218.679688 263.09375 L 218.894531 265.933594 L 218.261719 267.402344 Z M 218.648438 269.242188 "/>
<path style=" stroke:none;fill-rule:nonzero;fill:rgb(80.392157%,58.431373%,4.705882%);fill-opacity:1;" d="M 297.554688 412.890625 L 297.144531 414.53125 L 295.578125 412.011719 L 292.742188 410.515625 L 292.480469 410.636719 L 293.898438 413.703125 L 296.070313 416.683594 L 295.15625 417.597656 L 293.535156 418.421875 L 291.738281 418.707031 L 289.941406 418.421875 L 288.320313 417.597656 L 287.035156 416.308594 L 286.207031 414.6875 L 285.921875 412.890625 L 286.207031 411.09375 L 287.035156 409.472656 L 288.320313 408.1875 L 289.941406 407.363281 L 291.738281 407.078125 L 293.535156 407.363281 L 295.15625 408.1875 L 296.441406 409.472656 L 297.269531 411.09375 Z M 297.554688 412.890625 "/>
<path style=" stroke:none;fill-rule:nonzero;fill:rgb(80.392157%,58.431373%,4.705882%);fill-opacity:1;" d="M 177.371094 172.523438 L 177.085938 174.320313 L 176.257813 175.941406 L 174.972656 177.226563 L 173.351563 178.054688 L 171.554688 178.339844 L 169.757813 178.054688 L 168.136719 177.226563 L 166.847656 175.941406 L 166.023438 174.320313 L 165.738281 172.523438 L 165.976563 171.027344 L 170.480469 169.527344 L 170.492188 169.949219 L 171.554688 169.839844 L 173.589844 168.316406 L 173.902344 167.273438 L 174.972656 167.816406 L 176.257813 169.105469 L 177.085938 170.726563 Z M 177.371094 172.523438 "/>
<path style=" stroke:none;fill-rule:nonzero;fill:rgb(80.392157%,58.431373%,4.705882%);fill-opacity:1;" d="M 167.007813 476.753906 L 165.878906 476.578125 L 164.257813 475.75 L 162.972656 474.464844 L 162.144531 472.84375 L 161.863281 471.046875 L 162.144531 469.25 L 162.972656 467.628906 L 164.257813 466.339844 L 165.878906 465.515625 L 167.675781 465.230469 L 169.472656 465.515625 L 171.09375 466.339844 L 172.382813 467.628906 L 173.207031 469.25 L 173.457031 470.816406 L 168.992188 473.234375 L 168.214844 474.070313 Z M 167.007813 476.753906 "/>
<path style=" stroke:none;fill-rule:nonzero;fill:rgb(80.392157%,58.431373%,4.705882%);fill-opacity:1;" d="M 169.667969 238.101563 L 169.898438 236.632813 L 170.726563 235.011719 L 172.011719 233.726563 L 173.632813 232.898438 L 175.429688 232.617188 L 177.226563 232.898438 L 178.847656 233.726563 L 180.136719 235.011719 L 180.824219 236.367188 L 180.578125 237.003906 L 174.761719 240.109375 Z M 179.679688 242.304688 L 178.847656 243.136719 L 177.226563 243.960938 L 175.429688 244.246094 L 173.632813 243.960938 L 172.011719 243.136719 L 170.726563 241.847656 L 170.039063 240.5 Z M 179.679688 242.304688 "/>
<path style=" stroke:none;fill-rule:nonzero;fill:rgb(80.392157%,58.431373%,4.705882%);fill-opacity:1;" d="M 189 319.847656 L 188.714844 321.644531 L 187.890625 323.265625 L 186.914063 324.238281 L 187.71875 320.933594 L 187.855469 317.484375 L 184.742188 320.527344 L 179.199219 323.441406 L 178.40625 323.121094 L 177.652344 321.644531 L 177.371094 319.847656 L 177.652344 318.050781 L 178.480469 316.429688 L 179.765625 315.140625 L 181.386719 314.316406 L 183.183594 314.03125 L 184.980469 314.316406 L 186.601563 315.140625 L 187.890625 316.429688 L 188.714844 318.050781 Z M 189 319.847656 "/>
<path style=" stroke:none;fill-rule:nonzero;fill:rgb(80.392157%,58.431373%,4.705882%);fill-opacity:1;" d="M 220.015625 467.167969 L 219.832031 468.339844 L 219.566406 468.449219 L 217.054688 467.824219 L 210.222656 468.96875 L 208.65625 468.894531 L 208.382813 467.167969 L 208.667969 465.371094 L 209.496094 463.75 L 210.78125 462.464844 L 212.402344 461.636719 L 214.199219 461.355469 L 215.996094 461.636719 L 217.617188 462.464844 L 218.90625 463.75 L 219.730469 465.371094 Z M 220.015625 467.167969 "/>
<path style=" stroke:none;fill-rule:nonzero;fill:rgb(80.392157%,58.431373%,4.705882%);fill-opacity:1;" d="M 154.109375 482.675781 L 153.824219 484.472656 L 153.117188 485.855469 L 152.417969 486.300781 L 151.738281 486.164063 L 148.46875 482.535156 L 142.535156 483.046875 L 142.476563 482.675781 L 142.761719 480.878906 L 143.585938 479.257813 L 144.875 477.972656 L 146.496094 477.144531 L 148.292969 476.863281 L 150.089844 477.144531 L 151.710938 477.972656 L 152.996094 479.257813 L 153.824219 480.878906 Z M 154.109375 482.675781 "/>
<path style=" stroke:none;fill-rule:nonzero;fill:rgb(80.392157%,58.431373%,4.705882%);fill-opacity:1;" d="M 167.644531 475.257813 L 166.847656 474.464844 L 166.023438 472.84375 L 165.738281 471.046875 L 166.023438 469.25 L 166.847656 467.628906 L 168.136719 466.339844 L 169.757813 465.515625 L 171.554688 465.230469 L 173.351563 465.515625 L 174.972656 466.339844 L 176.257813 467.628906 L 177.148438 469.65625 L 174.339844 470.335938 L 168.992188 473.234375 Z M 167.644531 475.257813 "/>
<path style=" stroke:none;fill-rule:nonzero;fill:rgb(80.392157%,58.431373%,4.705882%);fill-opacity:1;" d="M 258.785156 463.292969 L 258.714844 463.730469 L 256.070313 463.507813 L 247.472656 465.15625 L 247.152344 463.292969 L 247.4375 461.496094 L 248.265625 459.875 L 249.550781 458.585938 L 251.171875 457.761719 L 252.96875 457.476563 L 254.765625 457.761719 L 256.386719 458.585938 L 257.675781 459.875 L 258.5 461.496094 Z M 258.785156 463.292969 "/>
<path style=" stroke:none;fill-rule:nonzero;fill:rgb(80.392157%,58.431373%,4.705882%);fill-opacity:1;" d="M 146.355469 459.414063 L 146.070313 461.210938 L 145.242188 462.832031 L 143.957031 464.121094 L 142.335938 464.945313 L 140.539063 465.230469 L 138.472656 464.808594 L 139.796875 454.753906 L 142.492188 455.105469 L 144.269531 456.015625 L 144.980469 455.734375 L 146.070313 457.617188 Z M 146.355469 459.414063 "/>
<path style=" stroke:none;fill-rule:nonzero;fill:rgb(80.392157%,58.431373%,4.705882%);fill-opacity:1;" d="M 265.003906 350.828125 L 264.140625 351.6875 L 262.519531 352.515625 L 260.722656 352.800781 L 258.925781 352.515625 L 257.304688 351.6875 L 256.019531 350.402344 L 255.191406 348.78125 L 254.90625 346.984375 L 255.191406 345.1875 L 255.898438 343.804688 L 260.535156 347.621094 L 263.042969 349.058594 L 263.664063 349.039063 Z M 257.101563 342.480469 L 258.925781 341.453125 L 260.722656 341.167969 L 262.519531 341.453125 L 263.316406 342.46875 L 263.640625 343.980469 L 262.804688 345.191406 L 263.28125 343.65625 L 262.507813 342.839844 L 260.445313 342 L 258.378906 342.789063 Z M 257.101563 342.480469 "/>
<path style=" stroke:none;fill-rule:nonzero;fill:rgb(80.392157%,58.431373%,4.705882%);fill-opacity:1;" d="M 150.09375 312.957031 L 149.945313 313.890625 L 149.121094 315.511719 L 147.832031 316.796875 L 146.210938 317.625 L 144.414063 317.90625 L 142.617188 317.625 L 140.4375 316.238281 L 142.300781 315.023438 L 144.765625 310.230469 L 145.863281 309.40625 L 148.800781 308.355469 L 149.148438 308.730469 Z M 150.09375 312.957031 "/>
<path style=" stroke:none;fill-rule:nonzero;fill:rgb(80.392157%,58.431373%,4.705882%);fill-opacity:1;" d="M 146.355469 424.523438 L 146.199219 425.507813 L 143.210938 423.710938 L 139.503906 423.714844 L 136.765625 424.277344 L 136.292969 426.515625 L 135.503906 427.296875 L 135.007813 426.320313 L 134.722656 424.523438 L 135.007813 422.726563 L 135.832031 421.105469 L 137.121094 419.816406 L 138.742188 418.992188 L 140.539063 418.707031 L 142.335938 418.992188 L 143.957031 419.816406 L 145.242188 421.105469 L 146.070313 422.726563 Z M 146.355469 424.523438 "/>
<path style=" stroke:none;fill-rule:nonzero;fill:rgb(80.392157%,58.431373%,4.705882%);fill-opacity:1;" d="M 178.578125 238.070313 L 177.652344 236.351563 L 177.371094 234.554688 L 177.652344 232.757813 L 178.480469 231.136719 L 179.765625 229.847656 L 181.386719 229.023438 L 183.183594 228.738281 L 184.980469 229.023438 L 186.601563 229.847656 L 187.890625 231.136719 L 188.726563 232.832031 L 188.34375 232.882813 L 187.070313 232.078125 L 185.40625 232.042969 L 181.046875 235.800781 L 180.578125 237.003906 Z M 178.578125 238.070313 "/>
<path style=" stroke:none;fill-rule:nonzero;fill:rgb(80.392157%,58.431373%,4.705882%);fill-opacity:1;" d="M 147.992188 317.859375 L 146.496094 317.625 L 144.875 316.796875 L 143.585938 315.511719 L 142.824219 314.011719 L 144.765625 310.230469 L 145.863281 309.40625 L 149.046875 308.269531 L 150.203125 313.453125 Z M 147.992188 317.859375 "/>
<path style=" stroke:none;fill-rule:nonzero;fill:rgb(80.392157%,58.431373%,4.705882%);fill-opacity:1;" d="M 189.417969 232.734375 L 189 230.675781 L 189.285156 228.878906 L 190.109375 227.257813 L 190.667969 226.703125 L 192.988281 227.191406 L 194.445313 228.726563 L 194.429688 229.304688 L 192.117188 231.570313 Z M 189.417969 232.734375 "/>
</g>
</svg>
