<?xml version="1.0" encoding="UTF-8"?>
<svg xmlns="http://www.w3.org/2000/svg" xmlns:xlink="http://www.w3.org/1999/xlink" width="378pt" height="504pt" viewBox="0 0 378 504" version="1.1">
<g id="data">
<rect x="0" y="0" width="378" height="504" style="fill:rgb(100%,100%,100%);fill-opacity:1;stroke:none;"/>
<path style=" stroke:none;fill-rule:nonzero;fill:rgb(100%,100%,100%);fill-opacity:1;" d="M 53.308594 504 L 324.691406 504 L 324.691406 0 L 53.308594 0 Z M 53.308594 504 "/>
<path style=" stroke:none;fill-rule:nonzero;fill:rgb(22.745098%,53.333333%,16.078431%);fill-opacity:1;" d="M 270.28125 408.34375 L 269.917969 410.078125 L 269.050781 411.617188 L 267.757813 412.828125 L 266.160156 413.59375 L 264.410156 413.839844 L 262.664063 413.550781 L 261.085938 412.75 L 259.820313 411.511719 L 258.988281 409.949219 L 258.019531 407.183594 L 256.1875 404.898438 L 255.347656 403.480469 L 254.941406 401.878906 L 255 400.230469 L 255.519531 398.664063 L 256.457031 397.308594 L 257.628906 396.042969 L 258.179688 395.160156 L 258.59375 394.070313 L 258.871094 392.5 L 259.503906 390.703125 L 260.683594 389.210938 L 262.28125 388.175781 L 264.125 387.710938 L 266.023438 387.867188 L 267.765625 388.628906 L 269.171875 389.914063 L 270.449219 391.535156 L 272.070313 392.8125 L 273.34375 394.199219 L 274.105469 395.921875 L 274.277344 397.792969 L 273.84375 399.625 L 272.847656 401.21875 L 271.402344 402.867188 L 270.761719 404.113281 L 270.445313 405.382813 Z M 192.421875 430.042969 L 192.40625 430.042969 L 195.792969 425.3125 L 197.929688 424.472656 L 198.285156 423.78125 L 198.070313 423.238281 L 197.8125 423.082031 L 196.09375 424.355469 L 192.90625 427.300781 L 190.59375 429.960938 L 188.910156 429.339844 L 187.488281 428.214844 L 186.480469 426.707031 L 185.984375 424.964844 L 186.050781 423.152344 L 186.667969 421.449219 L 187.785156 420.019531 L 189.285156 419.003906 L 190.847656 418.269531 L 191.765625 417.589844 L 192.523438 416.75 L 193.144531 415.695313 L 193.53125 414.535156 L 193.664063 413.414063 L 193.574219 412.269531 L 193.101563 410.613281 L 192.886719 408.6875 L 193.316406 406.796875 L 194.34375 405.152344 L 195.855469 403.9375 L 197.683594 403.289063 L 199.253906 403.011719 L 200.332031 402.601563 L 201.304688 401.988281 L 202.46875 400.894531 L 203.980469 399.871094 L 205.730469 399.367188 L 207.554688 399.429688 L 209.269531 400.054688 L 210.703125 401.175781 L 211.722656 402.691406 L 212.21875 404.445313 L 212.152344 406.265625 L 211.539063 409.367188 L 211.859375 411.320313 L 212.910156 413.144531 L 215.253906 415.074219 L 216.476563 416.464844 L 217.199219 418.167969 L 217.351563 420.011719 L 216.914063 421.8125 L 215.933594 423.382813 L 214.511719 424.566406 L 212.785156 425.242188 L 210.9375 425.34375 L 208.1875 425.050781 L 206.382813 425.441406 L 204.886719 426.316406 L 203.03125 428.394531 L 201.476563 429.628906 L 199.59375 430.269531 L 197.601563 430.234375 L 195.027344 429.746094 Z M 192.421875 430.042969 "/>
<path style=" stroke:none;fill-rule:nonzero;fill:rgb(80.392157%,58.431373%,4.705882%);fill-opacity:1;" d="M 227.769531 362.492188 L 227.484375 364.289063 L 226.660156 365.910156 L 225.371094 367.195313 L 223.75 368.023438 L 221.953125 368.308594 L 220.15625 368.023438 L 218.535156 367.195313 L 217.25 365.910156 L 216.421875 364.289063 L 216.136719 362.492188 L 216.421875 360.695313 L 217.25 359.074219 L 218.535156 357.789063 L 220.15625 356.960938 L 221.953125 356.675781 L 223.75 356.960938 L 225.371094 357.789063 L 226.660156 359.074219 L 227.484375 360.695313 Z M 227.769531 362.492188 "/>
<path style=" stroke:none;fill-rule:nonzero;fill:rgb(80.392157%,58.431373%,4.705882%);fill-opacity:1;" d="M 216.136719 350.863281 L 215.855469 352.660156 L 215.027344 354.28125 L 213.742188 355.566406 L 212.121094 356.390625 L 210.324219 356.675781 L 208.527344 356.390625 L 206.90625 355.566406 L 205.617188 354.28125 L 204.792969 352.660156 L 204.507813 350.863281 L 204.792969 349.066406 L 205.617188 347.441406 L 206.90625 346.15625 L 208.527344 345.332031 L 210.324219 345.046875 L 212.121094 345.332031 L 213.742188 346.15625 L 215.027344 347.441406 L 215.855469 349.066406 Z M 216.136719 350.863281 "/>
<path style=" stroke:none;fill-rule:nonzero;fill:rgb(80.392157%,58.431373%,4.705882%);fill-opacity:1;" d="M 212.261719 315.96875 L 211.976563 317.765625 L 211.152344 319.386719 L 209.863281 320.675781 L 208.242188 321.5 L 206.445313 321.785156 L 204.648438 321.5 L 203.027344 320.675781 L 201.742188 319.386719 L 200.914063 317.765625 L 200.628906 315.96875 L 200.914063 314.171875 L 201.742188 312.550781 L 203.027344 311.265625 L 204.648438 310.4375 L 206.445313 310.152344 L 208.242188 310.4375 L 209.863281 311.265625 L 211.152344 312.550781 L 211.976563 314.171875 Z M 212.261719 315.96875 "/>
<path style=" stroke:none;fill-rule:nonzero;fill:rgb(80.392157%,58.431373%,4.705882%);fill-opacity:1;" d="M 247.152344 315.96875 L 246.871094 317.765625 L 246.042969 319.386719 L 244.757813 320.675781 L 243.136719 321.5 L 241.339844 321.785156 L 239.542969 321.5 L 237.921875 320.675781 L 236.632813 319.386719 L 235.808594 317.765625 L 235.523438 315.96875 L 235.808594 314.171875 L 236.632813 312.550781 L 237.921875 311.265625 L 239.542969 310.4375 L 241.339844 310.152344 L 243.136719 310.4375 L 244.757813 311.265625 L 246.042969 312.550781 L 246.871094 314.171875 Z M 247.152344 315.96875 "/>
<path style=" stroke:none;fill-rule:nonzero;fill:rgb(80.392157%,58.431373%,4.705882%);fill-opacity:1;" d="M 247.152344 409.015625 L 246.871094 410.8125 L 246.042969 412.433594 L 244.757813 413.71875 L 243.136719 414.546875 L 241.339844 414.832031 L 239.542969 414.546875 L 237.921875 413.71875 L 236.632813 412.433594 L 235.808594 410.8125 L 235.523438 409.015625 L 235.808594 407.21875 L 236.632813 405.597656 L 237.921875 404.3125 L 239.542969 403.484375 L 241.339844 403.199219 L 243.136719 403.484375 L 244.757813 404.3125 L 246.042969 405.597656 L 246.871094 407.21875 Z M 247.152344 409.015625 "/>
<path style=" stroke:none;fill-rule:nonzero;fill:rgb(80.392157%,58.431373%,4.705882%);fill-opacity:1;" d="M 239.398438 432.277344 L 239.117188 434.074219 L 238.289063 435.695313 L 237.003906 436.980469 L 235.382813 437.808594 L 233.585938 438.09375 L 231.789063 437.808594 L 230.167969 436.980469 L 228.878906 435.695313 L 228.054688 434.074219 L 227.769531 432.277344 L 228.054688 430.480469 L 228.878906 428.859375 L 230.167969 427.570313 L 231.789063 426.746094 L 233.585938 426.460938 L 235.382813 426.746094 L 237.003906 427.570313 L 238.289063 428.859375 L 239.117188 430.480469 Z M 239.398438 432.277344 "/>
<path style=" stroke:none;fill-rule:nonzero;fill:rgb(80.392157%,58.431373%,4.705882%);fill-opacity:1;" d="M 227.769531 447.785156 L 227.484375 449.582031 L 226.660156 451.203125 L 225.371094 452.488281 L 223.75 453.316406 L 221.953125 453.601563 L 220.15625 453.316406 L 218.535156 452.488281 L 217.25 451.203125 L 216.421875 449.582031 L 216.136719 447.785156 L 216.421875 445.988281 L 217.25 444.367188 L 218.535156 443.078125 L 220.15625 442.253906 L 221.953125 441.96875 L 223.75 442.253906 L 225.371094 443.078125 L 226.660156 444.367188 L 227.484375 445.988281 Z M 227.769531 447.785156 "/>
<path style=" stroke:none;fill-rule:nonzero;fill:rgb(80.392157%,58.431373%,4.705882%);fill-opacity:1;" d="M 212.261719 467.167969 L 212.023438 468.667969 L 210.222656 468.96875 L 208.164063 468.875 L 207.273438 468.058594 L 206.238281 469.769531 L 209.429688 471.089844 L 209.714844 470.9375 L 210.023438 471.714844 L 209.863281 471.875 L 208.242188 472.699219 L 206.445313 472.984375 L 204.648438 472.699219 L 203.027344 471.875 L 201.742188 470.585938 L 200.914063 468.964844 L 200.628906 467.167969 L 200.914063 465.371094 L 201.742188 463.75 L 203.027344 462.464844 L 204.648438 461.636719 L 206.445313 461.355469 L 208.242188 461.636719 L 209.863281 462.464844 L 211.152344 463.75 L 211.976563 465.371094 Z M 212.261719 467.167969 "/>
<path style=" stroke:none;fill-rule:nonzero;fill:rgb(80.392157%,58.431373%,4.705882%);fill-opacity:1;" d="M 150.230469 242.308594 L 149.945313 244.105469 L 149.121094 245.726563 L 147.832031 247.011719 L 146.210938 247.839844 L 144.414063 248.125 L 142.617188 247.839844 L 140.996094 247.011719 L 139.710938 245.726563 L 138.882813 244.105469 L 138.644531 242.582031 L 138.6875 242.234375 L 140.710938 241.59375 L 142.886719 242.511719 L 146.15625 243.175781 L 148.300781 243.253906 L 141.261719 240.453125 L 140.441406 240.5625 L 139.386719 240.085938 L 139.335938 239.621094 L 139.710938 238.890625 L 140.996094 237.601563 L 142.617188 236.777344 L 144.414063 236.492188 L 146.210938 236.777344 L 147.832031 237.601563 L 149.121094 238.890625 L 149.945313 240.511719 Z M 150.230469 242.308594 "/>
<path style=" stroke:none;fill-rule:nonzero;fill:rgb(80.392157%,58.431373%,4.705882%);fill-opacity:1;" d="M 258.785156 339.230469 L 258.5 341.027344 L 257.675781 342.648438 L 257.566406 342.753906 L 257.507813 342.753906 L 256.035156 341.773438 L 253.664063 338.65625 L 252.601563 338.082031 L 247.160156 339.183594 L 247.4375 337.433594 L 248.265625 335.8125 L 249.550781 334.527344 L 251.171875 333.699219 L 252.96875 333.414063 L 254.765625 333.699219 L 256.386719 334.527344 L 257.675781 335.8125 L 258.5 337.433594 Z M 256.183594 344.039063 L 254.765625 344.761719 L 252.96875 345.046875 L 251.171875 344.761719 L 249.550781 343.933594 L 248.265625 342.648438 L 247.4375 341.027344 L 247.289063 340.085938 L 249.617188 339.34375 L 251.976563 339.082031 L 254.382813 342.558594 Z M 256.183594 344.039063 "/>
<path style=" stroke:none;fill-rule:nonzero;fill:rgb(80.392157%,58.431373%,4.705882%);fill-opacity:1;" d="M 243.277344 463.292969 L 242.992188 465.089844 L 242.167969 466.710938 L 240.960938 467.914063 L 238.210938 466.1875 L 238.632813 465.4375 L 239.46875 464.933594 L 237.714844 463.296875 L 231.664063 463.175781 L 231.929688 461.496094 L 232.757813 459.875 L 234.042969 458.585938 L 235.664063 457.761719 L 237.460938 457.476563 L 239.257813 457.761719 L 240.878906 458.585938 L 242.167969 459.875 L 242.992188 461.496094 Z M 232.238281 465.691406 L 231.929688 465.089844 L 231.742188 463.90625 L 232.574219 464.835938 Z M 236.835938 466.113281 L 235.136719 465.644531 L 236.523438 463.683594 L 237.195313 464.164063 L 237.5 465.839844 Z M 236.835938 466.113281 "/>
<path style=" stroke:none;fill-rule:nonzero;fill:rgb(80.392157%,58.431373%,4.705882%);fill-opacity:1;" d="M 190.710938 470.902344 L 191.398438 470.21875 L 193.019531 469.390625 L 194.816406 469.109375 L 196.613281 469.390625 L 198.234375 470.21875 L 199.519531 471.503906 L 199.925781 472.300781 L 197.625 472.007813 L 196.175781 472.65625 L 195.679688 473.863281 L 195.832031 474.871094 L 196.757813 475.523438 L 196.488281 476.304688 L 195.917969 475.996094 L 194.851563 473.972656 Z M 190.710938 470.902344 "/>
<path style=" stroke:none;fill-rule:nonzero;fill:rgb(80.392157%,58.431373%,4.705882%);fill-opacity:1;" d="M 164.992188 357.441406 L 164.628906 358.15625 L 163.339844 359.441406 L 161.71875 360.269531 L 159.921875 360.554688 L 158.125 360.269531 L 156.503906 359.441406 L 156.296875 359.234375 L 160.492188 357.457031 L 163.644531 357.28125 Z M 154.902344 357.535156 L 154.390625 356.535156 L 154.347656 356.257813 L 155.546875 356.503906 Z M 154.902344 357.535156 "/>
</g>
</svg>
