<?xml version="1.0" encoding="UTF-8"?>
<svg xmlns="http://www.w3.org/2000/svg" xmlns:xlink="http://www.w3.org/1999/xlink" width="378pt" height="504pt" viewBox="0 0 378 504" version="1.1">
<g id="data">
<rect x="0" y="0" width="378" height="504" style="fill:rgb(100%,100%,100%);fill-opacity:1;stroke:none;"/>
<path style=" stroke:none;fill-rule:nonzero;fill:rgb(100%,100%,100%);fill-opacity:1;" d="M 53.308594 504 L 324.691406 504 L 324.691406 0 L 53.308594 0 Z M 53.308594 504 "/>
<path style=" stroke:none;fill-rule:nonzero;fill:rgb(22.745098%,53.333333%,16.078431%);fill-opacity:1;" d="M 198.691406 409.015625 L 201.300781 408.496094 L 203.722656 407.398438 L 205.648438 405.953125 L 208.292969 403.199219 L 209.597656 401.003906 L 210.390625 398.582031 L 210.636719 396.039063 L 210.324219 393.507813 L 211.296875 395.59375 L 212.582031 397.351563 L 214.167969 398.839844 L 216.117188 400.066406 L 219.273438 401.101563 L 221.953125 401.261719 L 224.941406 402.007813 L 227.382813 402.023438 L 229.527344 401.605469 L 231.554688 400.792969 L 233.398438 399.617188 L 235.070313 398.019531 L 237.054688 394.726563 L 238.203125 391.496094 L 238.585938 389.003906 L 241.371094 389.203125 L 244.246094 388.699219 L 246.90625 387.492188 L 249.09375 385.753906 L 250.039063 388.144531 L 251.484375 390.265625 L 253.359375 392.019531 L 255.460938 393.265625 L 257.648438 394.015625 L 259.941406 394.320313 L 262.375 394.140625 L 264.601563 393.507813 L 266.347656 394.808594 L 268.304688 395.761719 L 270.40625 396.328125 L 272.707031 396.496094 L 276.824219 395.621094 L 278.753906 394.605469 L 280.457031 393.246094 L 282.910156 389.824219 L 283.984375 385.753906 L 286.71875 386.46875 L 289.667969 386.488281 L 292.410156 385.808594 L 294.910156 384.492188 L 297.808594 381.597656 L 299.492188 378 L 301.753906 380.722656 L 303.089844 384 L 303.371094 385.753906 L 299.363281 385.089844 L 292.921875 385.910156 L 289.988281 386.84375 L 287.398438 388.515625 L 284.734375 391.792969 L 283.417969 395.808594 L 283.621094 400.027344 L 285.265625 403.832031 L 283.132813 404.152344 L 281.09375 404.863281 L 277.671875 407.246094 L 273.78125 412.070313 L 272.835938 414.28125 L 272.355469 416.769531 L 270.257813 416.160156 L 268.082031 415.949219 L 265.90625 416.152344 L 263.804688 416.757813 L 261.859375 417.746094 L 260.128906 419.082031 L 257.617188 422.476563 L 255.675781 427.507813 L 255.417969 431.464844 L 255.851563 433.605469 L 256.679688 435.628906 L 257.871094 437.457031 L 259.382813 439.03125 L 263.269531 441.761719 L 267.195313 442.921875 L 269.632813 442.933594 L 272.019531 442.441406 L 274.253906 441.457031 L 276.230469 440.03125 L 279.355469 441.273438 L 276.230469 443.90625 L 272.980469 445.675781 L 270.820313 447.855469 L 268.964844 451.488281 L 268.476563 455.539063 L 265.769531 453.394531 L 262.421875 452.113281 L 258.976563 451.902344 L 255.617188 452.707031 L 253.46875 453.855469 L 251.605469 455.421875 L 250.109375 457.34375 L 249.09375 459.414063 L 245.660156 459.734375 L 242.46875 461.042969 L 239.386719 463.714844 L 238.96875 464.46875 L 237.714844 463.296875 L 231.496094 463.171875 L 231.378906 463.496094 L 232.574219 464.835938 L 232.214844 465.75 L 231.738281 466.042969 L 226.691406 465.496094 L 221.082031 467.820313 L 218.769531 467.007813 L 206.445313 467.167969 L 207.054688 465.621094 L 210.324219 463.292969 L 213.140625 463.113281 L 215.835938 462.257813 L 218.242188 460.777344 L 220.300781 458.660156 L 221.707031 456.210938 L 222.484375 453.492188 L 222.582031 450.671875 L 221.953125 447.785156 L 225.757813 445.953125 L 228.589844 442.988281 L 230.214844 439.230469 L 230.421875 435.011719 L 229.929688 432.882813 L 228.824219 430.148438 L 227.535156 428.234375 L 225.898438 426.613281 L 223.96875 425.347656 L 221.953125 424.523438 L 220.28125 422.972656 L 218.335938 421.777344 L 216.320313 421.019531 L 214.199219 420.644531 L 211.464844 419.535156 L 207.898438 419.167969 L 204.265625 419.949219 L 201.164063 421.75 L 198.691406 424.523438 L 197.96875 424.398438 L 198.285156 423.78125 L 198.070313 423.238281 L 197.8125 423.082031 L 196.398438 424.128906 L 194.824219 423.859375 L 190.957031 424.515625 L 192.929688 423.605469 L 194.792969 422.257813 L 196.277344 420.667969 L 197.5 418.71875 L 198.628906 414.9375 Z M 233.070313 468.445313 L 231.28125 469.574219 L 229.707031 471.046875 L 225.832031 471.046875 L 223.09375 468.761719 L 227.316406 466.367188 L 232.550781 467.761719 Z M 249.09375 346.984375 L 249.757813 343.109375 L 249.136719 339.496094 L 249.617188 339.34375 L 250.640625 339.230469 L 252.082031 339.230469 L 254.382813 342.558594 L 254.964844 343.039063 L 255.027344 343.132813 L 256.527344 344.683594 L 258.285156 345.925781 L 255.921875 345.46875 L 253.515625 345.511719 L 251.167969 346.042969 Z M 194.816406 346.984375 L 197.160156 345.097656 L 200.683594 340.8125 L 201.96875 338.203125 L 202.570313 335.355469 L 205.6875 333.601563 L 208.125 330.984375 L 209.617188 327.871094 L 210.128906 324.460938 L 213.164063 326.511719 L 215.558594 327.324219 L 218.078125 327.601563 L 221.542969 329.742188 L 219.304688 332.460938 L 217.882813 335.960938 L 217.417969 339.613281 L 218.078125 343.109375 L 216.199219 345.375 L 214.992188 347.921875 L 214.429688 350.683594 L 214.550781 353.5 L 215.449219 356.4375 L 217.085938 359.039063 L 219.242188 361.046875 L 221.953125 362.492188 L 222.402344 366.421875 L 224.21875 370.074219 L 226.660156 372.511719 L 229.707031 374.125 L 229.191406 377.078125 L 225.625 376.941406 L 221.953125 378 L 218.222656 378.390625 L 217.308594 375.957031 L 216.011719 373.886719 L 214.3125 372.132813 L 212.171875 370.714844 L 209.769531 369.800781 L 207.355469 369.4375 L 204.921875 369.589844 L 202.570313 370.246094 L 205.300781 367.722656 L 207.136719 364.34375 L 207.769531 360.683594 L 207.175781 356.882813 L 205.136719 353.183594 L 201.097656 349.46875 L 198.140625 347.761719 Z M 187.207031 257.425781 L 188.328125 257.671875 L 187.0625 257.816406 Z M 167.675781 467.167969 L 169.382813 469.339844 L 171.554688 471.046875 L 169.359375 471.96875 L 167.492188 473.234375 L 167.988281 470.152344 Z M 236.835938 466.113281 L 235.136719 465.644531 L 236.523438 463.683594 L 237.195313 464.164063 L 237.5 465.839844 Z M 236.835938 466.113281 "/>
</g>
</svg>
