<?xml version="1.0" encoding="UTF-8"?>
<svg xmlns="http://www.w3.org/2000/svg" xmlns:xlink="http://www.w3.org/1999/xlink" width="378pt" height="504pt" viewBox="0 0 378 504" version="1.1">
<g id="data">
<rect x="0" y="0" width="378" height="504" style="fill:rgb(100%,100%,100%);fill-opacity:1;stroke:none;"/>
<path style=" stroke:none;fill-rule:nonzero;fill:rgb(100%,100%,100%);fill-opacity:1;" d="M 53.308594 504 L 324.691406 504 L 324.691406 0 L 53.308594 0 Z M 53.308594 504 "/>
<path style=" stroke:none;fill-rule:nonzero;fill:rgb(22.745098%,53.333333%,16.078431%);fill-opacity:1;" d="M 214.199219 284.953125 L 215.828125 283.179688 L 217 281.222656 L 218.078125 277.199219 L 219.320313 274.074219 L 219.785156 274.625 L 220.40625 277.574219 L 221.269531 280.457031 L 221.824219 281.609375 L 221.40625 283.300781 L 221.300781 285.464844 L 221.65625 287.855469 L 222.605469 290.503906 L 223.808594 292.46875 L 225.277344 294.078125 L 226.460938 294.929688 L 229.304688 299.0625 L 233.664063 301.097656 L 234.109375 304.652344 L 236.019531 308.28125 L 238.636719 310.738281 L 242 312.316406 L 245.5625 312.757813 L 247.957031 312.304688 L 248.851563 314.597656 L 248.785156 315.265625 L 249.355469 318.398438 L 250.75 321.261719 L 252.96875 323.722656 L 252.40625 326.074219 L 252.339844 328.492188 L 253.792969 334.917969 L 255.53125 337.855469 L 258.519531 340.78125 L 261.394531 342.378906 L 263.394531 342.832031 L 263.640625 343.980469 L 262.804688 345.191406 L 263.28125 343.65625 L 262.507813 342.839844 L 260.445313 342 L 258.378906 342.789063 L 257.507813 342.753906 L 256.035156 341.773438 L 253.664063 338.65625 L 252.601563 338.082031 L 245.550781 339.511719 L 244.589844 338.644531 L 243.40625 338.558594 L 241.210938 339.871094 L 241.886719 340.445313 L 246.324219 340.394531 L 249.617188 339.34375 L 251.976563 339.082031 L 254.382813 342.558594 L 260.535156 347.621094 L 263.042969 349.058594 L 263.664063 349.039063 L 266.046875 352.214844 L 268.023438 356.996094 L 267.828125 357.976563 L 268.089844 361.144531 L 269.199219 364.132813 L 269.316406 364.292969 L 269.210938 365.21875 L 264.953125 369.09375 L 261.394531 373.164063 L 260.601563 374.816406 L 262.84375 374.3125 L 264.9375 375.519531 L 266.9375 378.226563 L 270.21875 378.804688 L 270.625 378.746094 L 271.910156 376.796875 L 272.234375 374.960938 L 273.40625 371.914063 L 274.707031 370.632813 L 277.695313 370.113281 L 277.804688 370.148438 L 281.984375 370.410156 L 283.570313 370.390625 L 284.253906 370.867188 L 286.703125 370.742188 L 293.949219 371.515625 L 296.914063 372.84375 L 300.621094 375.558594 L 301.199219 376.292969 L 303.371094 378 L 305.4375 380.519531 L 305.53125 380.585938 L 306.730469 384.164063 L 307.179688 391.25 L 306.777344 393.191406 L 306.890625 393.976563 L 305.789063 396.917969 L 305.195313 399.773438 L 305.1875 399.785156 L 303.925781 402.410156 L 303.246094 406.136719 L 303.328125 408.035156 L 297.144531 414.53125 L 295.578125 412.011719 L 292.742188 410.515625 L 292.480469 410.636719 L 293.898438 413.703125 L 295.816406 416.519531 L 295.617188 416.769531 L 292.605469 419.410156 L 291.203125 421.453125 L 290.003906 421.65625 L 289.660156 421.574219 L 288.214844 419.332031 L 284.976563 421.730469 L 280.71875 424.230469 L 282.339844 425.378906 L 285.105469 424.398438 L 286.097656 423.375 L 286.894531 423.164063 L 287.328125 423.710938 L 287.632813 428.84375 L 285.6875 430.875 L 283.441406 432.558594 L 282.84375 432.699219 L 279.644531 432.160156 L 274.75 433.78125 L 272.609375 436.117188 L 274.253906 436.015625 L 275.152344 434.667969 L 276.683594 434.363281 L 278.285156 434.328125 L 281.054688 434.949219 L 281.828125 435.589844 L 281.691406 436.328125 L 279.554688 436.347656 L 277.390625 437.65625 L 277.96875 438.546875 L 281.382813 438.964844 L 286.863281 440.339844 L 289.394531 439.9375 L 291.074219 438.957031 L 294.542969 438.476563 L 296.851563 439.519531 L 299.492188 440.03125 L 299.492188 443.90625 L 297.683594 445.265625 L 295.617188 447.785156 L 293.355469 449.582031 L 290.113281 453.4375 L 288.589844 456.207031 L 288.171875 458.050781 L 286.253906 458.289063 L 284.1875 457.9375 L 282.21875 459.796875 L 281.257813 459.972656 L 278.523438 461.300781 L 277.554688 462.144531 L 274.789063 462.777344 L 273.734375 463.277344 L 250.84375 463.132813 L 247.09375 463.632813 L 243.953125 464.972656 L 241.339844 467.167969 L 240.167969 467.414063 L 238.210938 466.1875 L 238.632813 465.4375 L 239.46875 464.933594 L 237.714844 463.296875 L 231.496094 463.171875 L 231.378906 463.496094 L 232.574219 464.835938 L 232.214844 465.75 L 231.738281 466.042969 L 226.691406 465.496094 L 219.566406 468.449219 L 217.054688 467.824219 L 210.222656 468.96875 L 208.164063 468.875 L 207.273438 468.058594 L 206.238281 469.769531 L 209.429688 471.089844 L 209.714844 470.9375 L 210.1875 472.128906 L 209.566406 473.890625 L 206.84375 474.453125 L 204.453125 473.097656 L 204.179688 473.019531 L 203.832031 472.726563 L 200.691406 471.386719 L 195.199219 470.386719 L 193.039063 470.519531 L 190.9375 471.046875 L 190.859375 471.011719 L 190.289063 470.589844 L 185.898438 468.519531 L 183.121094 467.984375 L 181.648438 469.066406 L 176.207031 469.78125 L 174.339844 470.335938 L 168.992188 473.234375 L 168.214844 474.070313 L 167.203125 476.179688 L 164.996094 482.640625 L 163.949219 485.421875 L 163.902344 485.839844 L 162.746094 489.226563 L 160.929688 490.242188 L 159.554688 489.972656 L 158.035156 488.085938 L 153.753906 484.5625 L 151.140625 483.277344 L 148.667969 482.753906 L 148.539063 482.613281 L 152.363281 481.601563 L 155.785156 479.148438 L 158.058594 475.753906 L 159.023438 471.65625 L 158.542969 467.726563 L 157.539063 465.371094 L 156.046875 463.292969 L 155.789063 460.109375 L 154.671875 457.117188 L 152.039063 453.835938 L 150.269531 452.570313 L 148.378906 451.703125 L 148.292969 450.386719 L 148.292969 447.785156 L 148.59375 447.371094 L 151.105469 446.613281 L 157.421875 446.269531 L 159.910156 445.683594 L 164.597656 446.761719 L 166.046875 446.148438 L 167.527344 446.515625 L 169.484375 447.285156 L 170.039063 448.109375 L 170.757813 448.421875 L 173.15625 448.464844 L 180.570313 447.503906 L 181.109375 445.632813 L 181.210938 443.15625 L 182.519531 440.25 L 190.867188 432.195313 L 195.792969 425.3125 L 197.929688 424.472656 L 198.285156 423.78125 L 198.070313 423.238281 L 197.8125 423.082031 L 196.09375 424.355469 L 192.90625 427.300781 L 190.570313 429.988281 L 189.222656 431.449219 L 185.628906 432.957031 L 183.714844 433.246094 L 182.441406 433.0625 L 178.394531 435.230469 L 177.398438 436.808594 L 177.039063 438.671875 L 176.445313 439.273438 L 174.058594 439.917969 L 170.558594 439.851563 L 166.820313 439 L 166.347656 438.652344 L 161.371094 433.375 L 159.03125 429.199219 L 155.65625 429.589844 L 149.269531 432.308594 L 149.261719 432.328125 L 149.179688 432.203125 L 147.457031 430.472656 L 147.027344 430.195313 L 146.917969 429.308594 L 148.539063 428.378906 L 150.066406 428.890625 L 151.640625 428.421875 L 152.765625 427.832031 L 153.085938 427.097656 L 152.808594 426.597656 L 147.785156 426.460938 L 143.210938 423.710938 L 139.503906 423.714844 L 136.765625 424.277344 L 136.292969 426.515625 L 135.777344 427.203125 L 133.742188 427.917969 L 132.394531 427.265625 L 131.648438 427.453125 L 130.5625 428.398438 L 128.90625 428.398438 L 127.304688 426.363281 L 127.425781 426.082031 L 128.796875 425.832031 L 131.792969 424.328125 L 131.226563 422.867188 L 130.640625 424.257813 L 127.769531 424.613281 L 125 424.347656 L 124.65625 422.402344 L 124.417969 421.773438 L 125.167969 421.753906 L 125.464844 421.238281 L 124.929688 417.953125 L 123.328125 417.210938 L 121.46875 417.105469 L 121.453125 417.085938 L 122.0625 415.152344 L 124.414063 414.074219 L 125.402344 414.296875 L 127.714844 414.355469 L 129.988281 413.957031 L 133.78125 412.101563 L 136.660156 409.015625 L 138.960938 408.917969 L 141.199219 408.367188 L 143.171875 407.453125 L 145.039063 406.101563 L 146.679688 404.308594 L 147.292969 403.148438 L 149.359375 401.828125 L 152.136719 398.207031 L 153.054688 396.195313 L 154.199219 391.746094 L 154.136719 391.34375 L 155.320313 389.375 L 156.308594 385.6875 L 156.046875 381.875 L 157.992188 383.542969 L 160.140625 384.695313 L 162.605469 385.398438 L 165.164063 385.542969 L 167.691406 385.121094 L 170.066406 384.160156 L 172.171875 382.699219 L 173.910156 380.816406 L 176.234375 376.246094 L 176.921875 372.597656 L 176.304688 368.550781 L 174.242188 364.867188 L 171.554688 362.492188 L 169.375 359.96875 L 166.574219 358.167969 L 163.878906 357.316406 L 163.5 357.292969 L 163.644531 357.28125 L 167.339844 357.714844 L 172.597656 355.179688 L 173.933594 355.046875 L 174.484375 355.082031 L 179.910156 359.441406 L 180.433594 358.429688 L 177.679688 353.460938 L 178.242188 352.835938 L 180.867188 352.449219 L 181.503906 352.695313 L 181.914063 353.875 L 182.898438 354.332031 L 184.078125 356.789063 L 185.613281 357.902344 L 188.359375 357.621094 L 190.335938 355.148438 L 189.90625 355.050781 L 188.667969 355.527344 L 188.3125 355.957031 L 186.378906 356.386719 L 183.8125 354.640625 L 180.015625 346.414063 L 181.652344 345.097656 L 184.777344 341.265625 L 186.519531 337.429688 L 186.832031 333.734375 L 186.015625 330.25 L 185.039063 328.421875 L 187.28125 323.421875 L 187.71875 320.933594 L 187.855469 317.484375 L 184.742188 320.527344 L 179.308594 323.382813 L 179.308594 319.847656 L 181.882813 318.707031 L 184.109375 316.984375 L 185.925781 314.667969 L 187.0625 312.09375 L 188.738281 315.113281 L 191.226563 317.507813 L 194.308594 319.0625 L 197.714844 319.648438 L 200.519531 319.363281 L 203.171875 318.414063 L 206.445313 315.96875 L 209.667969 314.417969 L 211.777344 312.550781 L 213.761719 309.421875 L 214.679688 305.828125 L 214.632813 303.269531 L 214.074219 300.902344 L 212.964844 298.59375 L 211.378906 296.585938 L 213.226563 294.132813 L 214.398438 291.160156 L 214.722656 288.105469 Z M 156.046875 393.507813 L 155.078125 395.746094 L 154.601563 398.140625 L 154.632813 400.578125 L 155.171875 402.957031 L 156.128906 405.0625 L 157.484375 406.933594 L 161.78125 410.382813 L 163.871094 411.355469 L 166.109375 411.898438 L 168.414063 411.984375 L 170.691406 411.617188 L 172.851563 410.808594 L 174.808594 409.589844 L 176.484375 408.011719 L 177.753906 406.242188 L 178.871094 403.65625 L 179.519531 400.128906 L 179.597656 397.835938 L 179.226563 395.566406 L 178.417969 393.417969 L 177.121094 391.367188 L 174.695313 388.914063 L 172.832031 387.550781 L 170.492188 386.503906 L 167.980469 385.996094 L 165.417969 386.050781 L 163.050781 386.617188 L 160.746094 387.738281 L 158.738281 389.332031 L 157.132813 391.328125 Z M 232.925781 471.480469 L 231.6875 472.492188 L 230.4375 474.027344 L 229.960938 474.269531 L 228.117188 474.644531 L 222.296875 470.886719 L 220.207031 471.1875 L 221.476563 469.683594 L 227.316406 466.367188 L 232.550781 467.761719 L 234.171875 469.894531 Z M 155.03125 357.324219 L 154.339844 356.445313 L 154.015625 356.191406 L 155.546875 356.503906 Z M 179.308594 226.800781 L 181.882813 225.664063 L 184.109375 223.9375 L 185.546875 222.125 L 186.457031 221.386719 L 187.289063 221.316406 L 189.085938 221.875 L 189.332031 222.921875 L 188.898438 224.691406 L 189.238281 225.953125 L 190.898438 226.824219 L 192.679688 227.136719 L 192.71875 227.324219 L 194.136719 229.589844 L 192.117188 231.570313 L 189.460938 232.730469 L 188.34375 232.882813 L 187.070313 232.078125 L 185.40625 232.042969 L 181.046875 235.800781 L 180.578125 237.003906 L 174.761719 240.109375 L 170.214844 238.117188 L 169.007813 238.082031 L 171.585938 237.40625 L 174.90625 235.105469 L 176.746094 233.179688 L 178.003906 231.277344 L 178.898438 229.042969 Z M 186.222656 220.921875 L 187.0625 219.046875 L 189.199219 218.667969 L 191.234375 217.898438 L 193.085938 216.761719 L 194.78125 215.207031 L 193.496094 216.964844 L 192.792969 218.445313 L 191.214844 219.742188 Z M 198.964844 242.503906 L 200.570313 244.007813 L 203.359375 245.5 L 205.054688 245.875 L 206.488281 246.65625 L 208.910156 251.429688 L 212.824219 256.707031 L 213.265625 256.828125 L 213.433594 256.585938 L 214.601563 257.097656 L 217.371094 258.992188 L 218.078125 261.207031 L 218.078125 265.570313 L 216.804688 262.773438 L 214.847656 260.410156 L 212.453125 258.699219 L 209.472656 257.550781 L 206.699219 257.152344 L 203.792969 257.457031 L 200.710938 258.558594 L 198.230469 260.242188 L 198.851563 255.6875 L 198.058594 250.933594 L 197.140625 248.960938 L 195.871094 247.191406 L 192.578125 244.566406 L 189.199219 243.382813 L 185.75 243.269531 L 182.300781 244.226563 L 179.308594 246.183594 L 177.460938 242.832031 L 176.042969 241.53125 L 178.0625 241.875 L 182.921875 243.167969 L 186.398438 241.730469 L 187.519531 239.417969 L 188.617188 238.355469 L 189.539063 238.171875 L 193.183594 238.5 Z M 172.554688 291.921875 L 173.722656 291 L 175.429688 288.832031 L 177.949219 286.761719 L 178.5 286.027344 L 178.757813 285.980469 L 180.191406 286.804688 L 180.730469 286.742188 L 181.105469 287.210938 L 184.960938 290.457031 L 187.730469 291.976563 L 190.9375 292.707031 L 192.644531 294.878906 L 194.816406 296.585938 L 192.210938 297.644531 L 189.847656 299.390625 L 187.992188 301.667969 L 186.769531 304.339844 L 185.425781 301.871094 L 183.621094 299.878906 L 181.296875 298.292969 L 178.65625 297.3125 L 175.988281 296.996094 L 173.191406 297.332031 L 170.558594 298.324219 L 169.070313 299.351563 L 169.164063 299.058594 L 169.875 297.5625 L 170.535156 296.605469 L 170.785156 295.644531 Z M 179.058594 285.285156 L 179.308594 284.953125 L 179.601563 285.324219 Z M 179.308594 167.105469 L 179.308594 168.644531 L 173.152344 168.644531 L 173.589844 168.316406 L 174.046875 166.78125 L 178.648438 166.167969 L 179.285156 167.089844 Z M 156.613281 175.679688 L 156.046875 176.398438 L 156.710938 172.523438 L 156.0625 168.738281 L 156.355469 168.480469 L 156.453125 168.429688 L 157.75 167.980469 L 160.300781 168.324219 L 161.058594 169.320313 L 157.109375 173.804688 L 156.367188 175.339844 Z M 160.421875 165.707031 L 161.535156 164.597656 L 162.816406 162.121094 L 164.042969 162.292969 L 165.242188 161.992188 L 166.015625 161.605469 L 166.75 160.257813 L 167.589844 160.183594 L 167.507813 160.828125 L 166.417969 162.609375 L 162.722656 166.96875 L 162.175781 167.183594 L 161.726563 166.894531 L 161.859375 165.949219 L 161.53125 165.507813 Z M 165.472656 153.8125 L 166.9375 151.945313 L 169.765625 149.96875 L 170.953125 149.5 Z M 106.167969 490.519531 L 109.523438 491.097656 L 113.398438 490.429688 L 114 492.832031 L 112.253906 492.070313 L 111.410156 491.984375 L 110.375 492.488281 L 110.242188 494.183594 L 110.019531 494.441406 L 108.402344 494.171875 L 105.644531 494.308594 L 105.441406 494.210938 L 105.628906 491.574219 L 106.074219 490.5625 Z M 88.945313 499.121094 L 88.542969 499.441406 L 88.566406 499.308594 L 88.941406 499.117188 Z M 286.679688 439.636719 L 283.058594 438.976563 L 282.164063 437.605469 L 282.484375 436.070313 L 286.839844 437.054688 L 287.960938 438.832031 Z M 236.835938 466.113281 L 235.136719 465.644531 L 236.523438 463.683594 L 237.195313 464.164063 L 237.5 465.839844 Z M 236.835938 466.113281 "/>
<path style=" stroke:none;fill-rule:nonzero;fill:rgb(80.392157%,58.431373%,4.705882%);fill-opacity:1;" d="M 200.628906 265.570313 L 200.347656 267.367188 L 199.519531 268.988281 L 198.234375 270.273438 L 196.613281 271.101563 L 194.816406 271.382813 L 193.019531 271.101563 L 191.398438 270.273438 L 190.109375 268.988281 L 189.285156 267.367188 L 189 265.570313 L 189.285156 263.773438 L 190.109375 262.152344 L 191.398438 260.863281 L 193.019531 260.039063 L 194.816406 259.753906 L 196.613281 260.039063 L 198.234375 260.863281 L 199.519531 262.152344 L 200.347656 263.773438 Z M 200.628906 265.570313 "/>
<path style=" stroke:none;fill-rule:nonzero;fill:rgb(80.392157%,58.431373%,4.705882%);fill-opacity:1;" d="M 181.246094 195.785156 L 180.960938 197.582031 L 180.136719 199.203125 L 178.847656 200.488281 L 177.226563 201.316406 L 175.429688 201.601563 L 173.632813 201.316406 L 172.011719 200.488281 L 170.726563 199.203125 L 169.898438 197.582031 L 169.617188 195.785156 L 169.898438 193.988281 L 170.726563 192.367188 L 172.011719 191.078125 L 173.632813 190.253906 L 175.429688 189.96875 L 177.226563 190.253906 L 178.847656 191.078125 L 180.136719 192.367188 L 180.960938 193.988281 Z M 181.246094 195.785156 "/>
<path style=" stroke:none;fill-rule:nonzero;fill:rgb(80.392157%,58.431373%,4.705882%);fill-opacity:1;" d="M 138.601563 284.953125 L 138.316406 286.75 L 137.515625 288.316406 L 135.511719 289.683594 L 135.238281 290.148438 L 132.785156 290.769531 L 131.652344 290.589844 L 130.894531 289.722656 L 129.605469 286.988281 L 129.300781 285.09375 L 129.71875 282.265625 L 132.777344 280.410156 L 133.171875 279.199219 L 134.582031 279.421875 L 136.203125 280.25 L 137.488281 281.535156 L 138.316406 283.15625 Z M 138.601563 284.953125 "/>
<path style=" stroke:none;fill-rule:nonzero;fill:rgb(80.392157%,58.431373%,4.705882%);fill-opacity:1;" d="M 146.355469 269.445313 L 146.070313 271.242188 L 145.242188 272.863281 L 143.957031 274.152344 L 142.335938 274.976563 L 140.539063 275.261719 L 138.742188 274.976563 L 136.863281 273.894531 L 137.757813 273.035156 L 138.601563 268.871094 L 140.917969 265.085938 L 142.847656 264.175781 L 143.957031 264.742188 L 145.242188 266.027344 L 146.070313 267.648438 Z M 146.355469 269.445313 "/>
<path style=" stroke:none;fill-rule:nonzero;fill:rgb(80.392157%,58.431373%,4.705882%);fill-opacity:1;" d="M 150.230469 261.691406 L 149.945313 263.488281 L 149.121094 265.109375 L 147.832031 266.398438 L 146.210938 267.222656 L 144.414063 267.507813 L 142.617188 267.222656 L 140.453125 265.851563 L 140.917969 265.085938 L 143.644531 263.800781 L 144.390625 261.886719 L 144.195313 260.621094 L 142.601563 256.71875 L 142.136719 256.40625 L 142.617188 256.160156 L 144.414063 255.875 L 146.210938 256.160156 L 147.832031 256.988281 L 149.121094 258.273438 L 149.945313 259.894531 Z M 150.230469 261.691406 "/>
<path style=" stroke:none;fill-rule:nonzero;fill:rgb(80.392157%,58.431373%,4.705882%);fill-opacity:1;" d="M 125.695313 242.011719 L 124.570313 243.136719 L 122.949219 243.960938 L 121.152344 244.246094 L 119.292969 243.929688 L 119.359375 242.367188 L 121.945313 238.054688 L 122.191406 237.09375 L 120.824219 237.742188 L 119.636719 239.75 L 119.449219 238.929688 L 122.839844 232.882813 L 124.570313 233.726563 L 125.859375 235.011719 L 126.683594 236.632813 L 126.945313 238.289063 L 126.449219 238.917969 L 125.671875 238.734375 L 125.460938 238.363281 Z M 115.59375 240.054688 L 115.339844 238.429688 L 115.625 236.632813 L 116.449219 235.011719 L 117.734375 233.726563 L 119.53125 232.871094 L 119.449219 233.945313 L 118.015625 235.730469 Z M 115.59375 240.054688 "/>
<path style=" stroke:none;fill-rule:nonzero;fill:rgb(80.392157%,58.431373%,4.705882%);fill-opacity:1;" d="M 142.476563 273.324219 L 142.191406 275.121094 L 141.367188 276.742188 L 140.078125 278.027344 L 138.457031 278.855469 L 136.660156 279.136719 L 134.863281 278.855469 L 133.507813 278.160156 L 134.003906 276.632813 L 137.757813 273.035156 L 138.601563 268.871094 L 139.070313 268.105469 L 140.078125 268.617188 L 141.367188 269.90625 L 142.191406 271.527344 Z M 142.476563 273.324219 "/>
<path style=" stroke:none;fill-rule:nonzero;fill:rgb(80.392157%,58.431373%,4.705882%);fill-opacity:1;" d="M 138.601563 277.199219 L 138.316406 278.996094 L 137.488281 280.617188 L 136.203125 281.90625 L 134.582031 282.730469 L 132.785156 283.015625 L 130.988281 282.730469 L 129.878906 282.167969 L 132.777344 280.410156 L 134.003906 276.632813 L 137.242188 273.53125 L 138.316406 275.402344 Z M 138.601563 277.199219 "/>
<path style=" stroke:none;fill-rule:nonzero;fill:rgb(80.392157%,58.431373%,4.705882%);fill-opacity:1;" d="M 136.789063 296.828125 L 135.324219 297.859375 L 134.683594 297.484375 L 134.359375 296.304688 L 134.707031 295.457031 L 134.59375 294.480469 L 133.472656 292.679688 L 130.894531 289.722656 L 129.945313 287.707031 L 130.988281 287.175781 L 132.785156 286.890625 L 134.582031 287.175781 L 136.203125 288.003906 L 136.898438 288.699219 L 135.511719 289.683594 L 134.605469 291.238281 L 135.976563 295.472656 L 136.734375 296.308594 Z M 136.789063 296.828125 "/>
<path style=" stroke:none;fill-rule:nonzero;fill:rgb(80.392157%,58.431373%,4.705882%);fill-opacity:1;" d="M 114.609375 493.097656 L 115.480469 492.652344 L 117.277344 492.371094 L 119.074219 492.652344 L 120.695313 493.480469 L 121.980469 494.765625 L 122.871094 496.789063 L 120.660156 497.648438 L 119.628906 499.730469 L 118.675781 498.910156 L 117.96875 497.691406 L 118.09375 496.4375 L 117.15625 494.691406 L 115.984375 493.691406 Z M 114.609375 493.097656 "/>
<path style=" stroke:none;fill-rule:nonzero;fill:rgb(80.392157%,58.431373%,4.705882%);fill-opacity:1;" d="M 150.054688 313.75 L 148.292969 314.03125 L 146.496094 313.746094 L 144.875 312.921875 L 143.890625 311.933594 L 144.765625 310.230469 L 145.863281 309.40625 L 149.046875 308.269531 L 150.203125 313.453125 Z M 150.054688 313.75 "/>
</g>
</svg>
