<?xml version="1.0" encoding="UTF-8"?>
<svg xmlns="http://www.w3.org/2000/svg" xmlns:xlink="http://www.w3.org/1999/xlink" width="378pt" height="504pt" viewBox="0 0 378 504" version="1.1">
<g id="data">
<rect x="0" y="0" width="378" height="504" style="fill:rgb(100%,100%,100%);fill-opacity:1;stroke:none;"/>
<path style=" stroke:none;fill-rule:nonzero;fill:rgb(100%,100%,100%);fill-opacity:1;" d="M 53.308594 504 L 324.691406 504 L 324.691406 0 L 53.308594 0 Z M 53.308594 504 "/>
<path style=" stroke:none;fill-rule:nonzero;fill:rgb(22.745098%,53.333333%,16.078431%);fill-opacity:1;" d="M 88.945313 499.121094 L 88.542969 499.441406 L 88.566406 499.308594 L 88.941406 499.117188 Z M 88.945313 499.121094 "/>
<path style=" stroke:none;fill-rule:nonzero;fill:rgb(80.392157%,58.431373%,4.705882%);fill-opacity:1;" d="M 220.015625 335.355469 L 219.730469 337.152344 L 218.90625 338.773438 L 217.617188 340.058594 L 215.996094 340.882813 L 214.199219 341.167969 L 212.402344 340.882813 L 210.78125 340.058594 L 209.496094 338.773438 L 208.667969 337.152344 L 208.382813 335.355469 L 208.667969 333.558594 L 209.496094 331.9375 L 210.78125 330.648438 L 212.402344 329.824219 L 214.199219 329.539063 L 215.996094 329.824219 L 217.617188 330.648438 L 218.90625 331.9375 L 219.730469 333.558594 Z M 220.015625 335.355469 "/>
<path style=" stroke:none;fill-rule:nonzero;fill:rgb(80.392157%,58.431373%,4.705882%);fill-opacity:1;" d="M 227.769531 339.230469 L 227.484375 341.027344 L 226.660156 342.648438 L 225.371094 343.933594 L 223.75 344.761719 L 221.953125 345.046875 L 220.15625 344.761719 L 218.535156 343.933594 L 217.25 342.648438 L 216.421875 341.027344 L 216.136719 339.230469 L 216.421875 337.433594 L 217.25 335.8125 L 218.535156 334.527344 L 220.15625 333.699219 L 221.953125 333.414063 L 223.75 333.699219 L 225.371094 334.527344 L 226.660156 335.8125 L 227.484375 337.433594 Z M 227.769531 339.230469 "/>
<path style=" stroke:none;fill-rule:nonzero;fill:rgb(80.392157%,58.431373%,4.705882%);fill-opacity:1;" d="M 227.769531 401.261719 L 227.484375 403.058594 L 226.660156 404.679688 L 225.371094 405.964844 L 223.75 406.792969 L 221.953125 407.078125 L 220.15625 406.792969 L 218.535156 405.964844 L 217.25 404.679688 L 216.421875 403.058594 L 216.136719 401.261719 L 216.421875 399.464844 L 217.25 397.84375 L 218.535156 396.558594 L 220.15625 395.730469 L 221.953125 395.445313 L 223.75 395.730469 L 225.371094 396.558594 L 226.660156 397.84375 L 227.484375 399.464844 Z M 227.769531 401.261719 "/>
<path style=" stroke:none;fill-rule:nonzero;fill:rgb(80.392157%,58.431373%,4.705882%);fill-opacity:1;" d="M 231.644531 447.785156 L 231.363281 449.582031 L 230.535156 451.203125 L 229.25 452.488281 L 227.628906 453.316406 L 225.832031 453.601563 L 224.035156 453.316406 L 222.414063 452.488281 L 221.125 451.203125 L 220.300781 449.582031 L 220.015625 447.785156 L 220.300781 445.988281 L 221.125 444.367188 L 222.414063 443.078125 L 224.035156 442.253906 L 225.832031 441.96875 L 227.628906 442.253906 L 229.25 443.078125 L 230.535156 444.367188 L 231.363281 445.988281 Z M 231.644531 447.785156 "/>
<path style=" stroke:none;fill-rule:nonzero;fill:rgb(80.392157%,58.431373%,4.705882%);fill-opacity:1;" d="M 165.738281 455.539063 L 165.453125 457.335938 L 164.628906 458.957031 L 163.339844 460.242188 L 161.71875 461.070313 L 159.921875 461.355469 L 158.125 461.070313 L 156.503906 460.242188 L 155.21875 458.957031 L 154.390625 457.335938 L 154.109375 455.539063 L 154.390625 453.742188 L 155.21875 452.121094 L 156.503906 450.832031 L 158.125 450.007813 L 159.921875 449.722656 L 161.71875 450.007813 L 163.339844 450.832031 L 164.628906 452.121094 L 165.453125 453.742188 Z M 165.738281 455.539063 "/>
<path style=" stroke:none;fill-rule:nonzero;fill:rgb(80.392157%,58.431373%,4.705882%);fill-opacity:1;" d="M 266.539063 443.90625 L 266.253906 445.703125 L 265.429688 447.324219 L 264.140625 448.613281 L 262.519531 449.4375 L 260.722656 449.722656 L 258.925781 449.4375 L 257.304688 448.613281 L 256.019531 447.324219 L 255.191406 445.703125 L 254.90625 443.90625 L 255.191406 442.109375 L 256.019531 440.488281 L 257.304688 439.203125 L 258.925781 438.375 L 260.722656 438.09375 L 262.519531 438.375 L 264.140625 439.203125 L 265.429688 440.488281 L 266.253906 442.109375 Z M 266.539063 443.90625 "/>
<path style=" stroke:none;fill-rule:nonzero;fill:rgb(80.392157%,58.431373%,4.705882%);fill-opacity:1;" d="M 167.007813 476.753906 L 165.878906 476.578125 L 164.257813 475.75 L 162.972656 474.464844 L 162.144531 472.84375 L 161.863281 471.046875 L 162.144531 469.25 L 162.972656 467.628906 L 164.257813 466.339844 L 165.878906 465.515625 L 167.675781 465.230469 L 169.472656 465.515625 L 171.09375 466.339844 L 172.382813 467.628906 L 173.207031 469.25 L 173.457031 470.816406 L 168.992188 473.234375 L 168.214844 474.070313 Z M 167.007813 476.753906 "/>
<path style=" stroke:none;fill-rule:nonzero;fill:rgb(80.392157%,58.431373%,4.705882%);fill-opacity:1;" d="M 131.703125 427.441406 L 131.128906 426.320313 L 130.886719 424.78125 L 131.792969 424.328125 L 131.226563 422.867188 L 131.035156 423.320313 L 131.128906 422.726563 L 131.957031 421.105469 L 133.242188 419.816406 L 134.863281 418.992188 L 136.660156 418.707031 L 138.457031 418.992188 L 140.078125 419.816406 L 141.367188 421.105469 L 142.191406 422.726563 L 142.347656 423.710938 L 139.503906 423.714844 L 136.765625 424.277344 L 136.292969 426.515625 L 135.777344 427.203125 L 133.742188 427.917969 L 132.394531 427.265625 Z M 131.703125 427.441406 "/>
<path style=" stroke:none;fill-rule:nonzero;fill:rgb(80.392157%,58.431373%,4.705882%);fill-opacity:1;" d="M 224.046875 472.015625 L 223.890625 471.046875 L 224.175781 469.25 L 224.964844 467.699219 L 227.316406 466.367188 L 232.550781 467.761719 L 234.171875 469.894531 L 231.242188 473.621094 L 229.960938 474.269531 L 228.117188 474.644531 Z M 227.726563 465.609375 L 229.707031 465.230469 L 232.105469 465.820313 L 231.738281 466.042969 Z M 227.726563 465.609375 "/>
<path style=" stroke:none;fill-rule:nonzero;fill:rgb(80.392157%,58.431373%,4.705882%);fill-opacity:1;" d="M 119.214844 490.429688 L 118.929688 492.226563 L 118.105469 493.847656 L 117.195313 494.757813 L 115.984375 493.691406 L 112.253906 492.070313 L 111.410156 491.984375 L 110.375 492.488281 L 110.242188 494.183594 L 109.679688 494.832031 L 108.695313 493.847656 L 107.871094 492.226563 L 107.585938 490.429688 L 107.675781 489.859375 L 111.738281 488.078125 L 112.199219 488.253906 L 112.445313 488.9375 L 113.574219 489.15625 L 117.476563 486.382813 L 118.929688 488.632813 Z M 119.214844 490.429688 "/>
<path style=" stroke:none;fill-rule:nonzero;fill:rgb(80.392157%,58.431373%,4.705882%);fill-opacity:1;" d="M 239.027344 465.199219 L 239.359375 466.90625 L 238.210938 466.1875 Z M 228.011719 465.640625 L 228.878906 463.75 L 230.167969 462.464844 L 231.789063 461.636719 L 233.585938 461.355469 L 235.382813 461.636719 L 237.003906 462.464844 L 238.367188 463.90625 L 237.714844 463.296875 L 231.496094 463.171875 L 231.378906 463.496094 L 232.574219 464.835938 L 232.214844 465.75 L 231.738281 466.042969 Z M 236.835938 466.113281 L 235.136719 465.644531 L 236.523438 463.683594 L 237.195313 464.164063 L 237.5 465.839844 Z M 231.945313 472.726563 L 230.167969 471.875 L 228.878906 470.585938 L 228.054688 468.964844 L 227.871094 466.515625 L 232.550781 467.761719 L 234.171875 469.894531 Z M 231.945313 472.726563 "/>
<path style=" stroke:none;fill-rule:nonzero;fill:rgb(80.392157%,58.431373%,4.705882%);fill-opacity:1;" d="M 115.339844 490.429688 L 115.054688 492.226563 L 114.609375 493.097656 L 112.253906 492.070313 L 111.410156 491.984375 L 110.375 492.488281 L 110.242188 494.183594 L 109.421875 495.128906 L 107.050781 495.617188 L 105.425781 494.453125 L 105.628906 491.574219 L 106.074219 490.5625 L 111.738281 488.078125 L 112.199219 488.253906 L 112.445313 488.9375 L 113.574219 489.15625 L 114.855469 488.246094 Z M 115.339844 490.429688 "/>
<path style=" stroke:none;fill-rule:nonzero;fill:rgb(80.392157%,58.431373%,4.705882%);fill-opacity:1;" d="M 190.710938 470.902344 L 191.398438 470.21875 L 193.019531 469.390625 L 194.816406 469.109375 L 196.613281 469.390625 L 198.234375 470.21875 L 199.925781 472.300781 L 197.625 472.007813 L 196.175781 472.65625 L 195.679688 473.863281 L 195.832031 474.871094 L 196.757813 475.523438 L 196.488281 476.304688 L 195.917969 475.996094 L 194.851563 473.972656 Z M 190.710938 470.902344 "/>
</g>
</svg>
