<?xml version="1.0" encoding="UTF-8"?>
<svg xmlns="http://www.w3.org/2000/svg" xmlns:xlink="http://www.w3.org/1999/xlink" width="378pt" height="504pt" viewBox="0 0 378 504" version="1.1">
<g id="data">
<rect x="0" y="0" width="378" height="504" style="fill:rgb(100%,100%,100%);fill-opacity:1;stroke:none;"/>
<path style=" stroke:none;fill-rule:nonzero;fill:rgb(100%,100%,100%);fill-opacity:1;" d="M 53.308594 504 L 324.691406 504 L 324.691406 0 L 53.308594 0 Z M 53.308594 504 "/>
<path style=" stroke:none;fill-rule:nonzero;fill:rgb(22.745098%,53.333333%,16.078431%);fill-opacity:1;" d="M 300.511719 375.476563 L 300.851563 375.929688 L 303.371094 378 L 305.253906 380.347656 L 305.515625 380.546875 L 306.730469 384.164063 L 307.179688 391.25 L 306.777344 393.191406 L 306.890625 393.976563 L 305.789063 396.917969 L 305.183594 399.824219 L 303.925781 402.410156 L 303.246094 406.136719 L 303.328125 408.035156 L 297.144531 414.53125 L 295.578125 412.011719 L 292.742188 410.515625 L 292.480469 410.636719 L 293.898438 413.703125 L 295.816406 416.519531 L 295.617188 416.769531 L 292.929688 419.027344 L 291.109375 421.46875 L 290.003906 421.65625 L 289.660156 421.574219 L 288.214844 419.332031 L 284.976563 421.730469 L 280.71875 424.230469 L 282.339844 425.378906 L 285.105469 424.398438 L 286.097656 423.375 L 286.894531 423.164063 L 287.328125 423.710938 L 287.632813 428.84375 L 285.6875 430.875 L 283.441406 432.558594 L 282.84375 432.699219 L 279.644531 432.160156 L 274.75 433.78125 L 272.609375 436.117188 L 274.253906 436.015625 L 275.152344 434.667969 L 276.683594 434.363281 L 278.285156 434.328125 L 281.054688 434.949219 L 281.828125 435.589844 L 281.691406 436.328125 L 279.554688 436.347656 L 277.390625 437.65625 L 277.96875 438.546875 L 281.382813 438.964844 L 286.863281 440.339844 L 289.394531 439.9375 L 291.074219 438.957031 L 294.628906 438.464844 L 296.609375 439.4375 L 299.492188 440.03125 L 299.492188 443.90625 L 298.019531 445.480469 L 296.804688 447.410156 L 295.988281 449.539063 L 295.84375 450.375 L 295.839844 450.375 L 292.621094 451.640625 L 291.179688 452.742188 L 289.847656 454.226563 L 289.460938 455.09375 L 289.214844 456.324219 L 289.242188 456.503906 L 289.066406 456.730469 L 288.492188 458.007813 L 286.253906 458.289063 L 284.1875 457.9375 L 282.140625 459.871094 L 280.660156 460.191406 L 278.210938 461.515625 L 277.496094 462.15625 L 274.789063 462.777344 L 272.597656 463.816406 L 272.101563 464.484375 L 271.417969 464.78125 L 269.023438 466.726563 L 267.261719 466.195313 L 265.421875 464.71875 L 261.730469 463.417969 L 259.097656 463.132813 L 250.84375 463.132813 L 247.09375 463.632813 L 243.953125 464.972656 L 241.339844 467.167969 L 240.167969 467.414063 L 238.210938 466.1875 L 238.632813 465.4375 L 239.46875 464.933594 L 237.714844 463.296875 L 231.496094 463.171875 L 231.378906 463.496094 L 232.574219 464.835938 L 232.214844 465.75 L 231.738281 466.042969 L 226.691406 465.496094 L 219.566406 468.449219 L 217.054688 467.824219 L 210.222656 468.96875 L 208.164063 468.875 L 207.273438 468.058594 L 206.238281 469.769531 L 209.429688 471.089844 L 209.714844 470.9375 L 210.1875 472.128906 L 209.566406 473.890625 L 206.84375 474.453125 L 204.453125 473.097656 L 203.015625 472.699219 L 197.625 472.007813 L 196.175781 472.65625 L 195.679688 473.863281 L 195.78125 474.523438 L 195.257813 474.742188 L 194.851563 473.972656 L 190.289063 470.589844 L 185.898438 468.519531 L 183.121094 467.984375 L 181.648438 469.066406 L 176.207031 469.78125 L 174.339844 470.335938 L 168.992188 473.234375 L 168.214844 474.070313 L 167.203125 476.179688 L 162.746094 489.226563 L 160.929688 490.242188 L 159.324219 489.929688 L 157.308594 488.234375 L 157.136719 488.164063 L 156.527344 486.851563 L 154.683594 485.4375 L 153.613281 485.542969 L 152.417969 486.300781 L 151.738281 486.164063 L 148.46875 482.535156 L 144.207031 482.855469 L 143.8125 482.585938 L 141.027344 481.609375 L 137.957031 481.371094 L 135.175781 481.867188 L 132.488281 483.089844 L 126.738281 488.261719 L 125.164063 490.238281 L 124.039063 490.597656 L 123.667969 492.121094 L 122.578125 493.484375 L 121.632813 495.699219 L 121.300781 497.433594 L 120.660156 497.648438 L 120.394531 498.183594 L 118.253906 498.183594 L 117.96875 497.691406 L 118.09375 496.4375 L 117.15625 494.691406 L 115.984375 493.691406 L 112.253906 492.070313 L 111.410156 491.984375 L 110.375 492.488281 L 110.242188 494.183594 L 110.007813 494.453125 L 108.652344 494.195313 L 105.644531 494.308594 L 105.441406 494.210938 L 105.628906 491.574219 L 106.074219 490.5625 L 106.28125 490.472656 L 108.023438 490.585938 L 112.707031 490.171875 L 115.359375 489.234375 L 117.609375 487.769531 L 119.765625 485.410156 L 120.574219 483.820313 L 121.425781 483.085938 L 124.375 479.769531 L 124.542969 479.394531 L 125.03125 478.800781 L 127.289063 477.003906 L 130.535156 473.148438 L 130.6875 472.867188 L 132.105469 472.640625 L 132.679688 471.785156 L 133.257813 469.527344 L 135.859375 467.5625 L 138.636719 464.640625 L 138.765625 463.070313 L 139.089844 463.035156 L 141.40625 462.28125 L 143.519531 461.054688 L 145.242188 459.515625 L 146.878906 457.214844 L 147.917969 454.589844 L 148.136719 452.8125 L 148.429688 452.488281 L 148.34375 451.15625 L 148.433594 450.414063 L 148.292969 447.785156 L 148.605469 447.367188 L 151.105469 446.613281 L 157.421875 446.269531 L 159.910156 445.683594 L 164.597656 446.761719 L 166.046875 446.148438 L 167.527344 446.515625 L 169.484375 447.285156 L 170.039063 448.109375 L 170.757813 448.421875 L 173.15625 448.464844 L 180.570313 447.503906 L 181.109375 445.632813 L 181.210938 443.15625 L 182.519531 440.25 L 190.867188 432.195313 L 195.792969 425.3125 L 197.929688 424.472656 L 198.285156 423.78125 L 198.070313 423.238281 L 197.8125 423.082031 L 196.09375 424.355469 L 192.90625 427.300781 L 190.570313 429.988281 L 189.222656 431.449219 L 185.628906 432.957031 L 183.714844 433.246094 L 182.441406 433.0625 L 178.394531 435.230469 L 177.398438 436.808594 L 177.039063 438.671875 L 176.445313 439.273438 L 174.058594 439.917969 L 170.558594 439.851563 L 166.820313 439 L 166.347656 438.652344 L 161.371094 433.375 L 159.03125 429.199219 L 155.65625 429.589844 L 149.269531 432.308594 L 149.234375 432.410156 L 148.847656 431.808594 L 147.042969 430.308594 L 146.917969 429.308594 L 148.539063 428.378906 L 150.066406 428.890625 L 151.640625 428.421875 L 152.765625 427.832031 L 153.085938 427.097656 L 152.808594 426.597656 L 147.785156 426.460938 L 143.210938 423.710938 L 139.503906 423.714844 L 136.765625 424.277344 L 136.292969 426.515625 L 135.777344 427.203125 L 133.742188 427.917969 L 132.394531 427.265625 L 131.648438 427.453125 L 130.5625 428.398438 L 128.90625 428.398438 L 127.304688 426.363281 L 127.425781 426.082031 L 128.796875 425.832031 L 131.792969 424.328125 L 131.226563 422.867188 L 130.640625 424.257813 L 127.769531 424.613281 L 125 424.347656 L 124.621094 422.277344 L 124.425781 421.773438 L 125.167969 421.753906 L 125.464844 421.238281 L 124.929688 417.953125 L 123.328125 417.210938 L 121.46875 417.105469 L 121.453125 417.085938 L 122.0625 415.152344 L 125.933594 413.378906 L 126.050781 413.097656 L 128.328125 413.191406 L 132.058594 412.367188 L 135.222656 410.464844 L 138.832031 407.308594 L 139.386719 406.601563 L 141.359375 406.660156 L 142.21875 406.390625 L 149.359375 401.828125 L 152.136719 398.207031 L 153.054688 396.195313 L 154.199219 391.746094 L 154.140625 391.382813 L 155.425781 389.140625 L 156.320313 385.558594 L 156.046875 381.875 L 158.425781 383.824219 L 161.230469 385.078125 L 164.265625 385.554688 L 167.441406 385.1875 L 170.289063 384.035156 L 172.738281 382.175781 L 174.546875 379.851563 L 175.917969 376.8125 L 176.441406 374.695313 L 176.558594 372.519531 L 176.234375 370.234375 L 175.523438 368.175781 L 174.441406 366.285156 L 173.023438 364.628906 L 171.214844 363.195313 L 169.277344 362.195313 L 167.1875 361.578125 L 165.019531 361.355469 L 160.867188 362.089844 L 158.414063 363.183594 L 156.617188 364.398438 L 154.992188 366.023438 L 153.722656 367.933594 L 153.296875 365.179688 L 152.167969 362.492188 L 152.167969 360.195313 L 153.09375 359.609375 L 154.941406 359.808594 L 160.492188 357.457031 L 163.644531 357.28125 L 167.339844 357.714844 L 172.597656 355.179688 L 173.933594 355.046875 L 174.484375 355.082031 L 179.910156 359.441406 L 180.433594 358.429688 L 177.679688 353.460938 L 178.242188 352.835938 L 180.867188 352.449219 L 181.503906 352.695313 L 181.914063 353.875 L 182.898438 354.332031 L 184.078125 356.789063 L 185.613281 357.902344 L 188.359375 357.621094 L 190.335938 355.148438 L 189.90625 355.050781 L 188.667969 355.527344 L 188.3125 355.957031 L 186.378906 356.386719 L 183.8125 354.640625 L 179.976563 346.332031 L 180.085938 346.136719 L 180.933594 345.210938 L 182.105469 343.253906 L 182.804688 341.273438 L 183.371094 340.257813 L 185.429688 339.015625 L 185.140625 338.578125 L 183.265625 338.488281 L 183.320313 338.109375 L 183.183594 335.355469 L 183.5 332.566406 L 183.226563 330.15625 L 183.121094 329.898438 L 184.695313 329.191406 L 187.28125 323.421875 L 187.71875 320.933594 L 187.855469 317.484375 L 184.742188 320.527344 L 179.308594 323.382813 L 179.308594 319.847656 L 181.882813 318.707031 L 184.109375 316.984375 L 185.859375 314.777344 L 187.0625 312.09375 L 189.058594 315.511719 L 191.980469 317.996094 L 195.675781 319.425781 L 199.636719 319.527344 L 203.398438 318.296875 L 206.445313 315.96875 L 208.460938 315.144531 L 210.289063 313.957031 L 212.71875 311.332031 L 214.238281 308.09375 L 214.691406 305.695313 L 214.632813 303.253906 L 214.066406 300.882813 L 213.015625 298.679688 L 211.53125 296.742188 L 209.675781 295.160156 L 207.53125 294 L 205.191406 293.308594 L 202.242188 293.152344 L 199.351563 293.738281 L 196.917969 294.898438 L 194.816406 296.585938 L 191.878906 297.839844 L 188.726563 300.621094 L 186.769531 304.339844 L 185.425781 301.871094 L 183.621094 299.878906 L 181.296875 298.292969 L 178.65625 297.3125 L 175.859375 296.996094 L 173.070313 297.363281 L 170.445313 298.386719 L 169.074219 299.34375 L 169.164063 299.058594 L 169.496094 298.359375 L 169.742188 298.050781 L 170.828125 295.90625 L 171.003906 295.179688 L 174.074219 288.722656 L 176.464844 286.417969 L 178.757813 285.980469 L 180.191406 286.804688 L 181.015625 286.710938 L 182.933594 286.238281 L 183.03125 285.160156 L 182.34375 284.746094 L 180.035156 285.351563 L 174.65625 284.980469 L 172.566406 284.292969 L 172.121094 284.253906 L 171.992188 283.726563 L 170.925781 281.539063 L 169.429688 279.621094 L 171.574219 280.457031 L 173.714844 280.839844 L 175.886719 280.820313 L 178.019531 280.394531 L 180.8125 279.140625 L 183.183594 277.199219 L 185.570313 276.765625 L 187.925781 275.78125 L 191.171875 273.125 L 191.265625 275.816406 L 191.980469 278.414063 L 193.273438 280.78125 L 195.074219 282.785156 L 202.175781 287.101563 L 204.90625 287.8125 L 207.730469 287.84375 L 209.988281 287.363281 L 211.996094 286.503906 L 213.808594 285.289063 L 215.433594 283.679688 L 217.300781 280.523438 L 218.078125 277.199219 L 219.292969 274.027344 L 219.78125 274.609375 L 220.40625 277.574219 L 221.269531 280.457031 L 221.824219 281.609375 L 221.40625 283.300781 L 221.304688 285.589844 L 221.6875 287.980469 L 222.660156 290.617188 L 223.808594 292.46875 L 225.277344 294.078125 L 226.460938 294.929688 L 229.304688 299.0625 L 233.664063 301.097656 L 234.109375 304.652344 L 236.019531 308.28125 L 238.636719 310.738281 L 242 312.316406 L 245.566406 312.757813 L 247.957031 312.304688 L 248.96875 314.90625 L 248.96875 314.972656 L 249.652344 318.699219 L 250.980469 321.429688 L 252.96875 323.722656 L 252.421875 325.949219 L 252.328125 328.363281 L 253.746094 334.800781 L 255.453125 337.757813 L 258.519531 340.78125 L 261.394531 342.378906 L 263.394531 342.832031 L 263.640625 343.980469 L 262.804688 345.191406 L 263.28125 343.65625 L 262.507813 342.839844 L 260.445313 342 L 258.378906 342.789063 L 257.507813 342.753906 L 256.035156 341.773438 L 253.664063 338.65625 L 252.601563 338.082031 L 245.550781 339.511719 L 244.589844 338.644531 L 243.40625 338.558594 L 241.210938 339.871094 L 241.886719 340.445313 L 246.324219 340.394531 L 249.617188 339.34375 L 251.976563 339.082031 L 254.382813 342.558594 L 260.535156 347.621094 L 263.042969 349.058594 L 263.664063 349.039063 L 266.046875 352.214844 L 268 356.9375 L 267.855469 357.597656 L 267.96875 360.519531 L 268.808594 363.328125 L 269.328125 364.191406 L 269.210938 365.21875 L 264.953125 369.09375 L 261.394531 373.164063 L 260.601563 374.816406 L 262.84375 374.3125 L 264.9375 375.519531 L 266.9375 378.226563 L 270.21875 378.804688 L 270.625 378.746094 L 271.910156 376.796875 L 272.234375 374.960938 L 273.40625 371.914063 L 274.707031 370.632813 L 277.71875 370.109375 L 281.984375 370.410156 L 283.570313 370.390625 L 284.253906 370.867188 L 286.703125 370.742188 L 293.949219 371.515625 L 296.914063 372.84375 Z M 232.925781 471.480469 L 231.6875 472.492188 L 230.4375 474.027344 L 229.960938 474.269531 L 228.117188 474.644531 L 222.296875 470.886719 L 220.207031 471.1875 L 221.476563 469.683594 L 227.316406 466.367188 L 232.550781 467.761719 L 234.171875 469.894531 Z M 152.167969 360.0625 L 152.167969 355.8125 L 155.546875 356.503906 L 154.066406 358.859375 Z M 218.0625 261.160156 L 218.039063 265.726563 L 215.96875 263.078125 L 211.710938 259.679688 L 208.644531 258.386719 L 205.339844 258.015625 L 201.820313 258.679688 L 198.773438 260.304688 L 196.570313 262.449219 L 194.816406 265.570313 L 193.894531 266.539063 L 193.800781 263.859375 L 193.09375 261.273438 L 191.816406 258.914063 L 189.976563 256.792969 L 187.605469 255.066406 L 185.003906 254.019531 L 182.222656 253.625 L 179.308594 253.9375 L 177.140625 250.324219 L 173.828125 247.71875 L 170.566406 246.582031 L 167.117188 246.453125 L 163.199219 247.613281 L 159.921875 250.0625 L 155.933594 249.390625 L 151.953125 250.125 L 151.625 247.976563 L 150.902344 245.921875 L 149.734375 243.9375 L 148.292969 242.308594 L 150.769531 242.984375 L 153.464844 243.09375 L 156.113281 242.578125 L 158.457031 241.53125 L 160.230469 240.253906 L 161.8125 238.566406 L 162.972656 236.714844 L 163.800781 234.554688 L 166.226563 234.296875 L 168.546875 233.542969 L 170.65625 232.316406 L 172.378906 230.777344 L 173.695313 229.03125 L 174.664063 227.074219 L 175.429688 222.921875 L 178.984375 223.207031 L 180.914063 222.757813 L 177.804688 225.21875 L 178.117188 225.714844 L 179.84375 225.195313 L 184.609375 222.886719 L 186.457031 221.386719 L 187.289063 221.316406 L 189.085938 221.875 L 189.332031 222.921875 L 188.898438 224.691406 L 189.238281 225.953125 L 190.898438 226.824219 L 192.679688 227.136719 L 192.71875 227.324219 L 194.136719 229.589844 L 192.117188 231.570313 L 189.460938 232.730469 L 188.34375 232.882813 L 187.070313 232.078125 L 185.40625 232.042969 L 181.046875 235.800781 L 180.578125 237.003906 L 174.761719 240.109375 L 170.214844 238.117188 L 166.480469 238.003906 L 166.738281 239.222656 L 168.246094 240.195313 L 178.0625 241.875 L 182.921875 243.167969 L 186.398438 241.730469 L 187.519531 239.417969 L 188.617188 238.355469 L 189.539063 238.171875 L 193.183594 238.5 L 198.832031 242.410156 L 200.066406 243.621094 L 203.003906 245.363281 L 204.976563 245.832031 L 206.488281 246.65625 L 208.910156 251.429688 L 212.824219 256.707031 L 213.265625 256.828125 L 213.433594 256.585938 L 214.601563 257.097656 L 217.371094 258.992188 Z M 184.769531 221.128906 L 184.917969 221.046875 L 187.0625 219.046875 L 189.199219 218.667969 L 191.234375 217.898438 L 193.085938 216.761719 L 194.78125 215.207031 L 193.496094 216.964844 L 192.792969 218.445313 L 191.214844 219.742188 L 185.519531 221.085938 Z M 197.46875 212.195313 L 197.03125 212.519531 L 197.773438 211.007813 L 197.761719 211.238281 Z M 156.308594 168.523438 L 156.664063 168.359375 L 157.75 167.980469 L 160.300781 168.324219 L 161.058594 169.320313 L 157.109375 173.804688 L 156.367188 175.339844 L 156.707031 175.816406 L 157.367188 175.984375 L 158.261719 175.542969 L 161.140625 173.015625 L 167.808594 170.273438 L 170.480469 169.527344 L 170.492188 169.949219 L 171.554688 169.839844 L 173.589844 168.316406 L 174.046875 166.78125 L 178.648438 166.167969 L 179.285156 167.089844 L 180.148438 167.667969 L 182.769531 168.511719 L 180.554688 168.503906 L 176.941406 169.089844 L 173.953125 170.464844 L 171.554688 172.523438 L 168.175781 172.449219 L 164 173.445313 L 161.800781 174.699219 L 159.921875 176.398438 L 156.046875 176.398438 L 156.710938 172.523438 L 156.0625 168.738281 Z M 160.542969 165.683594 L 161.457031 164.699219 L 162.601563 162.851563 L 162.820313 162.121094 L 164.042969 162.292969 L 165.242188 161.992188 L 166.015625 161.605469 L 166.75 160.257813 L 167.589844 160.183594 L 167.507813 160.828125 L 166.417969 162.609375 L 162.722656 166.96875 L 162.175781 167.183594 L 161.726563 166.894531 L 161.859375 165.949219 L 161.53125 165.507813 Z M 163.777344 155.148438 L 163.800781 153.136719 L 165.371094 151.664063 L 167.300781 150.449219 L 169.308594 149.667969 L 171.164063 149.332031 Z M 185.480469 168.359375 L 186.074219 168.523438 L 185.195313 168.519531 Z M 156.046875 277.199219 L 155.671875 276.308594 L 157.945313 276.152344 L 160.023438 275.601563 L 161.964844 274.675781 L 163.800781 273.324219 L 164.855469 275.453125 L 166.320313 277.324219 L 163.800781 276.390625 L 161.132813 276.066406 L 158.589844 276.328125 Z M 139.097656 271.339844 L 142.804688 266.714844 L 143.734375 264.765625 L 144.292969 262.679688 L 144.554688 266.683594 L 145.492188 269.648438 L 142.113281 270.046875 Z M 132.9375 292.070313 L 133.34375 290.390625 L 133.410156 287.882813 L 134.695313 290.449219 L 134.917969 290.703125 L 134.605469 291.238281 L 135.082031 292.707031 L 133.488281 292.707031 L 133.472656 292.679688 Z M 88.945313 499.121094 L 88.542969 499.441406 L 88.566406 499.308594 L 88.941406 499.117188 Z M 286.679688 439.636719 L 283.058594 438.976563 L 282.164063 437.605469 L 282.484375 436.070313 L 286.839844 437.054688 L 287.960938 438.832031 Z M 236.835938 466.113281 L 235.136719 465.644531 L 236.523438 463.683594 L 237.195313 464.164063 L 237.5 465.839844 Z M 236.835938 466.113281 "/>
</g>
</svg>
