<?xml version="1.0" encoding="UTF-8"?>
<svg xmlns="http://www.w3.org/2000/svg" xmlns:xlink="http://www.w3.org/1999/xlink" width="378pt" height="504pt" viewBox="0 0 378 504" version="1.1">
<g id="data">
<rect x="0" y="0" width="378" height="504" style="fill:rgb(100%,100%,100%);fill-opacity:1;stroke:none;"/>
<path style=" stroke:none;fill-rule:nonzero;fill:rgb(100%,100%,100%);fill-opacity:1;" d="M 53.308594 504 L 324.691406 504 L 324.691406 0 L 53.308594 0 Z M 53.308594 504 "/>
<path style=" stroke:none;fill-rule:nonzero;fill:rgb(22.745098%,53.333333%,16.078431%);fill-opacity:1;" d="M 167.300781 288.851563 L 167.957031 288.136719 L 168.554688 287.667969 L 168.226563 288.992188 Z M 171.867188 284.234375 L 173.71875 282.710938 L 174.660156 281.457031 L 175.921875 280.226563 L 177.492188 279.429688 L 179.230469 279.140625 L 180.972656 279.382813 L 182.566406 280.136719 L 183.859375 281.335938 L 185.292969 283.136719 L 188.25 285.625 L 189.902344 286.523438 L 192.195313 287.03125 L 194.035156 287.785156 L 195.507813 289.113281 L 196.785156 290.738281 L 198.410156 292.011719 L 199.59375 293.273438 L 200.359375 294.824219 L 200.628906 296.527344 L 200.390625 298.242188 L 199.65625 299.804688 L 198.496094 301.085938 L 197.011719 301.96875 L 195.078125 302.757813 L 193.894531 303.632813 L 192.972656 304.761719 L 192.058594 306.761719 L 191.195313 308.058594 L 192.144531 309.269531 L 193.398438 311.527344 L 194.628906 312.710938 L 196.152344 313.480469 L 197.917969 313.78125 L 199.226563 313.648438 L 200.390625 313.234375 L 202.964844 311.308594 L 203.921875 310.730469 L 206.417969 309.527344 L 207.304688 308.742188 L 208.355469 307.085938 L 208.855469 305.132813 L 208.839844 304.09375 L 208.550781 302.839844 L 208 301.691406 L 206.8125 300.1875 L 205.898438 298.527344 L 205.5625 296.664063 L 205.847656 294.792969 L 206.714844 293.109375 L 208.15625 291.179688 L 208.691406 289.792969 L 208.855469 288.183594 L 208.46875 285.9375 L 208.4375 284.167969 L 208.941406 282.46875 L 209.933594 281 L 211.085938 279.761719 L 211.597656 278.917969 L 212.460938 275.695313 L 212.671875 275.050781 L 213.917969 271.925781 L 214.773438 270.449219 L 214.859375 270.367188 L 213.738281 269.441406 L 212.785156 267.976563 L 211.832031 265.886719 L 210.851563 264.703125 L 209.671875 263.859375 L 207.992188 263.214844 L 206.589844 263.011719 L 205.09375 263.167969 L 203.363281 263.785156 L 201.496094 265.054688 L 199.765625 265.851563 L 197.871094 266.046875 L 196.015625 265.617188 L 194.394531 264.613281 L 193.1875 263.140625 L 192.523438 261.355469 L 192.46875 259.453125 L 192.972656 255.777344 L 192.453125 252.671875 L 192.09375 251.90625 L 191.613281 251.234375 L 189.726563 249.730469 L 188.136719 249.171875 L 186.367188 249.125 L 184.652344 249.621094 L 182.515625 251.035156 L 180.765625 251.816406 L 178.851563 251.980469 L 176.992188 251.519531 L 175.378906 250.472656 L 174.199219 248.960938 L 172.886719 246.546875 L 171.476563 245.242188 L 169.828125 244.5 L 167.078125 244.214844 L 165.347656 243.757813 L 163.835938 242.796875 L 162.691406 241.421875 L 162.015625 239.761719 L 161.878906 237.976563 L 162.292969 236.234375 L 163.214844 234.703125 L 164.5625 233.519531 L 166.203125 232.804688 L 169.117188 232.042969 L 171.109375 230.664063 L 172.179688 229.542969 L 172.824219 228.5625 L 173.285156 227.421875 L 173.585938 225.757813 L 174.21875 223.988281 L 175.382813 222.507813 L 176.957031 221.480469 L 178.886719 220.628906 L 179.992188 219.773438 L 180.847656 218.691406 L 181.753906 216.667969 L 182.789063 215.097656 L 184.273438 213.941406 L 186.046875 213.320313 L 187.648438 213.035156 L 188.660156 212.652344 L 189.570313 212.097656 L 190.851563 210.921875 L 192.4375 209.886719 L 194.269531 209.414063 L 196.160156 209.558594 L 197.125 209.96875 L 197.078125 210.023438 L 197.433594 210.839844 L 197.785156 210.703125 L 197.761719 211.238281 L 196.796875 214.386719 L 195.867188 215.914063 L 191.214844 219.742188 L 185.519531 221.085938 L 182.847656 221.226563 L 177.804688 225.21875 L 178.117188 225.714844 L 179.84375 225.195313 L 184.609375 222.886719 L 186.457031 221.386719 L 187.289063 221.316406 L 189.085938 221.875 L 189.332031 222.921875 L 188.898438 224.691406 L 189.238281 225.953125 L 190.898438 226.824219 L 192.988281 227.191406 L 194.445313 228.726563 L 194.429688 229.304688 L 192.117188 231.570313 L 189.460938 232.730469 L 188.34375 232.882813 L 187.070313 232.078125 L 185.40625 232.042969 L 181.046875 235.800781 L 180.578125 237.003906 L 174.761719 240.109375 L 170.214844 238.117188 L 166.480469 238.003906 L 166.738281 239.222656 L 168.246094 240.195313 L 178.0625 241.875 L 182.921875 243.167969 L 186.398438 241.730469 L 187.519531 239.417969 L 188.617188 238.355469 L 189.539063 238.171875 L 193.183594 238.5 L 199.339844 242.761719 L 206.488281 246.65625 L 208.910156 251.429688 L 212.824219 256.707031 L 213.265625 256.828125 L 213.433594 256.585938 L 214.601563 257.097656 L 217.371094 258.992188 L 218.679688 263.09375 L 218.894531 265.933594 L 218.261719 267.402344 L 220.40625 277.574219 L 221.269531 280.457031 L 222.984375 284.039063 L 223.773438 285.027344 L 225.945313 294.183594 L 229.304688 299.0625 L 240.484375 304.277344 L 240.710938 304.707031 L 241.957031 305.878906 L 243.558594 306.640625 L 245.070313 306.84375 L 245.742188 307.636719 L 247.265625 310.527344 L 249.289063 315.722656 L 252.390625 319.148438 L 256.121094 320.875 L 257.207031 321.722656 L 254.738281 323.09375 L 253.890625 324.554688 L 253.765625 325.996094 L 254.984375 329.992188 L 256.160156 332.453125 L 263.316406 342.46875 L 263.640625 343.980469 L 262.804688 345.191406 L 263.28125 343.65625 L 262.507813 342.839844 L 260.445313 342 L 258.378906 342.789063 L 257.507813 342.753906 L 256.035156 341.773438 L 253.664063 338.65625 L 252.601563 338.082031 L 245.550781 339.511719 L 244.589844 338.644531 L 243.40625 338.558594 L 241.210938 339.871094 L 241.886719 340.445313 L 246.324219 340.394531 L 249.617188 339.34375 L 251.976563 339.082031 L 254.382813 342.558594 L 260.535156 347.621094 L 263.042969 349.058594 L 263.664063 349.039063 L 266.046875 352.214844 L 268.980469 359.304688 L 269.535156 362.402344 L 269.210938 365.21875 L 264.953125 369.09375 L 261.394531 373.164063 L 260.601563 374.816406 L 262.84375 374.3125 L 264.9375 375.519531 L 266.9375 378.226563 L 270.21875 378.804688 L 270.625 378.746094 L 271.910156 376.796875 L 272.234375 374.960938 L 273.40625 371.914063 L 274.707031 370.632813 L 277.851563 370.085938 L 283.34375 370.234375 L 284.253906 370.867188 L 286.703125 370.742188 L 293.949219 371.515625 L 296.914063 372.84375 L 304.070313 378.085938 L 305.367188 380.105469 L 306.730469 384.164063 L 307.179688 391.25 L 306.777344 393.191406 L 306.890625 393.976563 L 305.789063 396.917969 L 303.519531 407.832031 L 297.144531 414.53125 L 295.578125 412.011719 L 292.742188 410.515625 L 292.480469 410.636719 L 293.898438 413.703125 L 295.890625 416.628906 L 296.3125 416.765625 L 296.164063 417.742188 L 294.574219 419.804688 L 292.191406 421.289063 L 290.003906 421.65625 L 289.660156 421.574219 L 288.214844 419.332031 L 284.976563 421.730469 L 280.71875 424.230469 L 282.339844 425.378906 L 285.105469 424.398438 L 286.097656 423.375 L 286.894531 423.164063 L 287.328125 423.710938 L 287.632813 428.84375 L 285.6875 430.875 L 283.441406 432.558594 L 282.84375 432.699219 L 279.644531 432.160156 L 274.75 433.78125 L 272.609375 436.117188 L 274.253906 436.015625 L 275.152344 434.667969 L 276.683594 434.363281 L 278.285156 434.328125 L 281.054688 434.949219 L 281.828125 435.589844 L 281.691406 436.328125 L 279.554688 436.347656 L 277.390625 437.65625 L 277.96875 438.546875 L 281.382813 438.964844 L 286.863281 440.339844 L 289.394531 439.9375 L 291.074219 438.957031 L 299.742188 437.757813 L 300.988281 440.148438 L 300.773438 446.324219 L 300.335938 447.820313 L 299.394531 449.050781 L 296.972656 450.242188 L 295.839844 450.375 L 292.621094 451.640625 L 291.179688 452.742188 L 289.847656 454.226563 L 289.460938 455.09375 L 289.214844 456.324219 L 289.464844 457.886719 L 286.253906 458.289063 L 284.1875 457.9375 L 281.042969 460.90625 L 278.484375 461.933594 L 274.789063 462.777344 L 272.597656 463.816406 L 270.539063 466.589844 L 269.761719 466.949219 L 259.269531 463.777344 L 256.070313 463.507813 L 244.628906 465.699219 L 242.703125 466.390625 L 242.113281 466.964844 L 241.902344 467.984375 L 241.359375 468.164063 L 238.210938 466.1875 L 238.632813 465.4375 L 239.46875 464.933594 L 237.714844 463.296875 L 231.496094 463.171875 L 231.378906 463.496094 L 232.574219 464.835938 L 232.214844 465.75 L 231.738281 466.042969 L 226.691406 465.496094 L 219.566406 468.449219 L 217.054688 467.824219 L 210.222656 468.96875 L 208.164063 468.875 L 207.273438 468.058594 L 206.238281 469.769531 L 209.429688 471.089844 L 209.714844 470.9375 L 210.1875 472.128906 L 209.566406 473.890625 L 206.84375 474.453125 L 204.453125 473.097656 L 203.015625 472.699219 L 197.625 472.007813 L 196.175781 472.65625 L 195.679688 473.863281 L 195.832031 474.871094 L 196.757813 475.523438 L 196.488281 476.304688 L 195.917969 475.996094 L 194.851563 473.972656 L 190.289063 470.589844 L 185.898438 468.519531 L 183.121094 467.984375 L 181.648438 469.066406 L 176.207031 469.78125 L 174.339844 470.335938 L 168.992188 473.234375 L 168.214844 474.070313 L 167.203125 476.179688 L 162.746094 489.226563 L 160.929688 490.242188 L 158.269531 489.722656 L 157.554688 489.058594 L 156.527344 486.851563 L 154.683594 485.4375 L 153.613281 485.542969 L 152.417969 486.300781 L 151.738281 486.164063 L 148.46875 482.535156 L 142.796875 482.960938 L 142.546875 483.042969 L 142.519531 481.960938 L 142.984375 480.300781 L 143.914063 478.851563 L 145.226563 477.734375 L 146.808594 477.054688 L 149.859375 476.25 L 151.472656 475.105469 L 152.644531 473.378906 L 153.125 471.332031 L 152.871094 469.25 L 152.441406 468.242188 L 151.324219 466.6875 L 150.585938 465.296875 L 150.25 463.761719 L 150.054688 461.382813 L 149.550781 460.023438 L 148.007813 458.101563 L 147.339844 457.625 L 145.859375 456.941406 L 144.472656 456.046875 L 144.402344 455.964844 L 145.761719 455.429688 L 148.429688 452.488281 L 148.105469 447.519531 L 151.105469 446.613281 L 157.421875 446.269531 L 159.910156 445.683594 L 164.597656 446.761719 L 166.046875 446.148438 L 167.527344 446.515625 L 169.484375 447.285156 L 170.039063 448.109375 L 170.757813 448.421875 L 173.15625 448.464844 L 180.570313 447.503906 L 181.109375 445.632813 L 181.210938 443.15625 L 182.519531 440.25 L 190.867188 432.195313 L 195.792969 425.3125 L 197.929688 424.472656 L 198.285156 423.78125 L 198.070313 423.238281 L 197.8125 423.082031 L 196.09375 424.355469 L 192.90625 427.300781 L 190.570313 429.988281 L 189.222656 431.449219 L 185.628906 432.957031 L 183.714844 433.246094 L 182.441406 433.0625 L 178.394531 435.230469 L 177.398438 436.808594 L 177.039063 438.671875 L 176.445313 439.273438 L 174.058594 439.917969 L 170.558594 439.851563 L 166.820313 439 L 166.347656 438.652344 L 161.371094 433.375 L 159.03125 429.199219 L 155.65625 429.589844 L 149.269531 432.308594 L 149.113281 432.746094 L 147.203125 431.632813 L 146.917969 429.308594 L 148.539063 428.378906 L 150.066406 428.890625 L 151.640625 428.421875 L 152.765625 427.832031 L 153.085938 427.097656 L 152.808594 426.597656 L 147.785156 426.460938 L 143.210938 423.710938 L 139.503906 423.714844 L 136.765625 424.277344 L 136.292969 426.515625 L 135.777344 427.203125 L 133.742188 427.917969 L 132.394531 427.265625 L 131.648438 427.453125 L 129.4375 429.378906 L 126.53125 428.132813 L 127.425781 426.082031 L 128.796875 425.832031 L 131.792969 424.328125 L 131.226563 422.867188 L 130.640625 424.257813 L 127.769531 424.613281 L 122.949219 424.152344 L 121.496094 423.164063 L 124.125 421.78125 L 125.167969 421.753906 L 125.464844 421.238281 L 124.929688 417.953125 L 123.328125 417.210938 L 121.445313 417.105469 L 122.0625 415.152344 L 125.933594 413.378906 L 126.539063 411.90625 L 133.074219 411.34375 L 134.871094 409.289063 L 135.753906 407.632813 L 137.585938 406.550781 L 141.359375 406.660156 L 142.21875 406.390625 L 149.359375 401.828125 L 152.136719 398.207031 L 153.054688 396.195313 L 154.199219 391.746094 L 153.734375 388.820313 L 152.566406 386.542969 L 153.179688 384.597656 L 154.652344 381.796875 L 152.269531 378.203125 L 152.363281 377.441406 L 152.617188 377.179688 L 154.355469 376.3125 L 156.285156 376.066406 L 158.1875 376.46875 L 159.851563 377.480469 L 161.21875 378.660156 L 162.351563 379.277344 L 163.574219 379.625 L 164.847656 379.699219 L 166.105469 379.492188 L 167.285156 379.011719 L 168.332031 378.285156 L 169.089844 377.464844 L 170.671875 374.351563 L 171.023438 372.492188 L 170.714844 370.46875 L 169.652344 368.570313 L 167.707031 366.851563 L 167.152344 366.292969 L 165.523438 364.40625 L 164.082031 363.480469 L 162.792969 363.070313 L 161.472656 362.980469 L 160.152344 363.199219 L 158.292969 363.980469 L 156.460938 364.414063 L 154.585938 364.246094 L 152.863281 363.484375 L 151.476563 362.210938 L 150.824219 361.382813 L 151.550781 360.582031 L 153.09375 359.609375 L 154.941406 359.808594 L 160.492188 357.457031 L 163.644531 357.28125 L 167.339844 357.714844 L 172.597656 355.179688 L 173.933594 355.046875 L 174.484375 355.082031 L 179.910156 359.441406 L 180.433594 358.429688 L 177.679688 353.460938 L 178.242188 352.835938 L 180.867188 352.449219 L 181.503906 352.695313 L 181.914063 353.875 L 182.898438 354.332031 L 184.078125 356.789063 L 185.613281 357.902344 L 188.359375 357.621094 L 190.335938 355.148438 L 189.90625 355.050781 L 188.667969 355.527344 L 188.3125 355.957031 L 186.378906 356.386719 L 183.8125 354.640625 L 179.976563 346.332031 L 183.371094 340.257813 L 185.429688 339.015625 L 185.140625 338.578125 L 182.683594 338.460938 L 181.554688 337.164063 L 181.355469 336.117188 L 181.601563 331.078125 L 181.949219 330.421875 L 184.695313 329.191406 L 187.28125 323.421875 L 187.71875 320.933594 L 187.855469 317.484375 L 184.742188 320.527344 L 179.199219 323.441406 L 177.335938 322.691406 L 174.179688 317.226563 L 174.433594 316.671875 L 175.539063 315.414063 L 176.957031 314.527344 L 178.886719 313.675781 L 179.976563 312.832031 L 180.898438 311.65625 L 181.742188 309.742188 L 182.628906 308.375 L 181.664063 307.121094 L 180.648438 305.257813 L 179.773438 304.292969 L 178.605469 303.5 L 177.28125 303.007813 L 175.988281 302.851563 L 174.585938 303.019531 L 173.28125 303.515625 L 171.546875 304.710938 L 169.9375 305.488281 L 168.164063 305.738281 L 168.140625 305.734375 L 167.40625 304.652344 L 169.164063 299.058594 L 174.074219 288.722656 L 176.464844 286.417969 L 178.757813 285.980469 L 180.191406 286.804688 L 181.015625 286.710938 L 182.933594 286.238281 L 183.03125 285.160156 L 182.34375 284.746094 L 180.035156 285.351563 L 174.65625 284.980469 L 172.566406 284.292969 Z M 161.316406 395.972656 L 160.660156 397.488281 L 160.421875 398.679688 L 160.4375 399.890625 L 160.710938 401.089844 L 161.179688 402.121094 L 161.734375 402.890625 L 164.882813 405.417969 L 165.722656 405.8125 L 166.851563 406.097656 L 167.996094 406.15625 L 169.132813 405.984375 L 170.210938 405.59375 L 171.191406 405 L 172.035156 404.222656 L 172.667969 403.347656 L 173.269531 401.957031 L 173.722656 399.5 L 173.765625 398.203125 L 173.582031 397.078125 L 173.183594 396.023438 L 172.542969 395.007813 L 170.890625 393.332031 L 169.886719 392.601563 L 168.78125 392.101563 L 167.523438 391.828125 L 166.25 391.84375 L 165.007813 392.132813 L 163.847656 392.695313 L 162.921875 393.425781 L 162.101563 394.417969 Z M 150.628906 361.132813 L 150.199219 360.585938 L 148.574219 359.308594 L 147.351563 357.996094 L 146.589844 356.375 L 146.355469 354.601563 L 146.671875 352.835938 L 147.445313 351.382813 L 149.566406 352.007813 L 151.039063 355.578125 L 155.546875 356.503906 L 154.066406 358.859375 L 150.984375 360.816406 Z M 185.125 168.558594 L 185.125 168.644531 L 184.839844 170.441406 L 184.011719 172.0625 L 182.726563 173.351563 L 181.105469 174.175781 L 179.308594 174.460938 L 171.554688 174.460938 L 170.933594 174.429688 L 168.816406 174.199219 L 167.171875 174.480469 L 164.898438 175.714844 L 161.988281 178.253906 L 160.617188 179.996094 L 159.203125 181.285156 L 157.445313 182.042969 L 155.539063 182.191406 L 153.683594 181.714844 L 152.085938 180.660156 L 150.917969 179.144531 L 150.304688 177.332031 L 150.316406 175.417969 L 150.8125 172.523438 L 150.316406 169.628906 L 150.289063 167.8125 L 150.828125 166.082031 L 151.871094 164.597656 L 153.324219 163.507813 L 155.601563 162.300781 L 156.785156 161.121094 L 156.976563 160.75 L 161.363281 161.917969 L 164.042969 162.292969 L 165.242188 161.992188 L 166.015625 161.605469 L 166.75 160.257813 L 167.589844 160.183594 L 167.507813 160.828125 L 166.417969 162.609375 L 162.722656 166.96875 L 162.175781 167.183594 L 161.726563 166.894531 L 161.859375 165.949219 L 161.53125 165.507813 L 159.984375 165.785156 L 155.320313 167.769531 L 152.441406 170.8125 L 151.949219 171.945313 L 152.140625 172.144531 L 156.390625 168.453125 L 157.75 167.980469 L 160.300781 168.324219 L 161.058594 169.320313 L 157.109375 173.804688 L 156.367188 175.339844 L 156.707031 175.816406 L 157.367188 175.984375 L 158.261719 175.542969 L 161.140625 173.015625 L 167.808594 170.273438 L 170.480469 169.527344 L 170.492188 169.949219 L 171.554688 169.839844 L 173.589844 168.316406 L 174.046875 166.78125 L 178.648438 166.167969 L 179.285156 167.089844 L 180.148438 167.667969 L 184.320313 169.011719 Z M 157.570313 159.601563 L 157.730469 159.292969 L 157.929688 158.429688 L 157.988281 156.800781 L 158.453125 154.726563 L 159.464844 152.371094 L 160.230469 151.078125 L 162.355469 148.359375 L 163.609375 147.171875 L 166.441406 145.199219 L 167.625 144.5625 L 169.410156 143.855469 L 171.195313 143.457031 L 173.015625 143.632813 L 174.691406 144.363281 L 175.332031 144.9375 L 173.855469 147.214844 L 162.601563 156.074219 L 162.234375 157.082031 L 162.671875 158.175781 L 162.078125 159.632813 L 159.644531 160.289063 Z M 138.386719 280.882813 L 137.410156 282.332031 L 136.046875 283.421875 L 134.421875 284.058594 L 132.679688 284.183594 L 130.976563 283.789063 L 129.609375 282.984375 L 129.71875 282.265625 L 132.777344 280.410156 L 134.003906 276.632813 L 137.757813 273.035156 L 137.996094 271.863281 L 139.144531 273.199219 L 139.851563 274.96875 L 139.945313 276.871094 L 139.421875 278.707031 Z M 117.5 486.367188 L 118.386719 487.441406 L 119.050781 489.050781 L 119.695313 491.691406 L 121.210938 494.097656 L 121.914063 495.722656 L 122.0625 497.171875 L 120.660156 497.648438 L 119.628906 499.730469 L 118.675781 498.910156 L 117.96875 497.691406 L 118.09375 496.4375 L 117.15625 494.691406 L 115.984375 493.691406 L 112.253906 492.070313 L 111.410156 491.984375 L 110.375 492.488281 L 110.242188 494.183594 L 109.421875 495.128906 L 106.824219 495.664063 L 105.398438 494.824219 L 105.628906 491.574219 L 106.074219 490.5625 L 111.738281 488.078125 L 112.199219 488.253906 L 112.445313 488.9375 L 113.574219 489.15625 Z M 286.679688 439.636719 L 283.058594 438.976563 L 282.164063 437.605469 L 282.484375 436.070313 L 286.839844 437.054688 L 287.960938 438.832031 Z M 236.835938 466.113281 L 235.136719 465.644531 L 236.523438 463.683594 L 237.195313 464.164063 L 237.5 465.839844 Z M 228.117188 474.644531 L 222.296875 470.886719 L 220.207031 471.1875 L 221.476563 469.683594 L 227.316406 466.367188 L 232.550781 467.761719 L 234.171875 469.894531 L 231.242188 473.621094 L 229.960938 474.269531 Z M 88.429688 500.046875 L 88.566406 499.308594 L 88.941406 499.117188 L 89.34375 499.789063 Z M 88.429688 500.046875 "/>
<path style=" stroke:none;fill-rule:nonzero;fill:rgb(80.392157%,58.431373%,4.705882%);fill-opacity:1;" d="M 181.246094 195.785156 L 180.960938 197.582031 L 180.136719 199.203125 L 178.847656 200.488281 L 177.226563 201.316406 L 175.429688 201.601563 L 173.632813 201.316406 L 172.011719 200.488281 L 170.726563 199.203125 L 169.898438 197.582031 L 169.617188 195.785156 L 169.898438 193.988281 L 170.726563 192.367188 L 172.011719 191.078125 L 173.632813 190.253906 L 175.429688 189.96875 L 177.226563 190.253906 L 178.847656 191.078125 L 180.136719 192.367188 L 180.960938 193.988281 Z M 181.246094 195.785156 "/>
<path style=" stroke:none;fill-rule:nonzero;fill:rgb(80.392157%,58.431373%,4.705882%);fill-opacity:1;" d="M 150.230469 261.691406 L 149.945313 263.488281 L 149.121094 265.109375 L 147.832031 266.398438 L 146.210938 267.222656 L 144.414063 267.507813 L 142.617188 267.222656 L 140.996094 266.398438 L 140.453125 265.851563 L 140.917969 265.085938 L 143.644531 263.800781 L 144.390625 261.886719 L 144.195313 260.621094 L 142.601563 256.71875 L 142.136719 256.40625 L 142.617188 256.160156 L 144.414063 255.875 L 146.210938 256.160156 L 147.832031 256.988281 L 149.121094 258.273438 L 149.945313 259.894531 Z M 150.230469 261.691406 "/>
<path style=" stroke:none;fill-rule:nonzero;fill:rgb(80.392157%,58.431373%,4.705882%);fill-opacity:1;" d="M 125.695313 242.011719 L 124.570313 243.136719 L 122.949219 243.960938 L 121.152344 244.246094 L 119.355469 243.960938 L 119.292969 243.929688 L 119.359375 242.367188 L 121.945313 238.054688 L 122.191406 237.09375 L 120.824219 237.742188 L 119.636719 239.75 L 119.449219 238.929688 L 122.839844 232.882813 L 122.949219 232.898438 L 124.570313 233.726563 L 125.859375 235.011719 L 126.683594 236.632813 L 126.945313 238.289063 L 126.449219 238.917969 L 125.671875 238.734375 L 125.460938 238.363281 Z M 115.59375 240.054688 L 115.339844 238.429688 L 115.625 236.632813 L 116.449219 235.011719 L 117.734375 233.726563 L 119.355469 232.898438 L 119.53125 232.871094 L 119.632813 233.128906 L 119.449219 233.945313 L 118.015625 235.730469 Z M 115.59375 240.054688 "/>
<path style=" stroke:none;fill-rule:nonzero;fill:rgb(80.392157%,58.431373%,4.705882%);fill-opacity:1;" d="M 136.789063 296.828125 L 136.203125 297.414063 L 135.324219 297.859375 L 134.683594 297.484375 L 134.359375 296.304688 L 134.707031 295.457031 L 134.59375 294.480469 L 133.472656 292.679688 L 130.894531 289.722656 L 129.945313 287.707031 L 130.988281 287.175781 L 132.785156 286.890625 L 134.582031 287.175781 L 136.203125 288.003906 L 136.898438 288.699219 L 135.511719 289.683594 L 134.605469 291.238281 L 135.976563 295.472656 L 136.734375 296.308594 Z M 136.789063 296.828125 "/>
<path style=" stroke:none;fill-rule:nonzero;fill:rgb(80.392157%,58.431373%,4.705882%);fill-opacity:1;" d="M 150.054688 313.75 L 148.292969 314.03125 L 146.496094 313.746094 L 144.875 312.921875 L 143.890625 311.933594 L 144.765625 310.230469 L 145.863281 309.40625 L 149.046875 308.269531 L 150.203125 313.453125 Z M 150.054688 313.75 "/>
</g>
</svg>
