<?xml version="1.0" encoding="UTF-8"?>
<svg xmlns="http://www.w3.org/2000/svg" xmlns:xlink="http://www.w3.org/1999/xlink" width="378pt" height="504pt" viewBox="0 0 378 504" version="1.1">
<g id="data">
<rect x="0" y="0" width="378" height="504" style="fill:rgb(100%,100%,100%);fill-opacity:1;stroke:none;"/>
<path style=" stroke:none;fill-rule:nonzero;fill:rgb(100%,100%,100%);fill-opacity:1;" d="M 53.308594 504 L 324.691406 504 L 324.691406 0 L 53.308594 0 Z M 53.308594 504 "/>
<path style=" stroke:none;fill-rule:nonzero;fill:rgb(22.745098%,53.333333%,16.078431%);fill-opacity:1;" d="M 275.632813 391.539063 L 274.125 391.175781 L 272.769531 390.425781 L 271.660156 389.347656 L 270.382813 387.726563 L 268.757813 386.449219 L 267.476563 385.042969 L 266.714844 383.300781 L 266.558594 381.402344 L 267.019531 379.558594 L 267.785156 378.378906 L 270.21875 378.804688 L 270.625 378.746094 L 271.910156 376.796875 L 272.046875 376.027344 L 272.917969 375.871094 L 273.992188 375.460938 L 274.964844 374.847656 L 276.132813 373.757813 L 277.738281 372.6875 L 279.605469 372.207031 L 281.480469 372.042969 L 282.6875 372.066406 L 286.5625 372.535156 L 288.058594 372.925781 L 291.101563 374.167969 L 292.371094 374.882813 L 294.40625 376.390625 L 295.394531 377.324219 L 297.511719 379.847656 L 299.210938 381.183594 L 300.382813 382.421875 L 301.144531 383.945313 L 301.429688 385.628906 L 301.214844 387.316406 L 300.523438 388.875 L 299.40625 390.164063 L 297.964844 391.074219 L 296.039063 391.925781 L 294.933594 392.78125 L 294.074219 393.863281 L 293.167969 395.886719 L 292.160156 397.425781 L 290.722656 398.570313 L 289 399.210938 L 287.164063 399.28125 L 285.394531 398.773438 L 283.875 397.742188 L 282.753906 396.285156 L 281.433594 393.855469 L 280.113281 392.617188 L 278.363281 391.820313 Z M 241.621094 417.464844 L 240.425781 416.191406 L 239.664063 414.617188 L 239.398438 412.890625 L 239.398438 409.015625 L 239.675781 407.246094 L 240.476563 405.640625 L 241.730469 404.359375 L 243.3125 403.519531 L 245.078125 403.203125 L 246.855469 403.433594 L 248.476563 404.199219 L 249.785156 405.421875 L 251.0625 407.042969 L 252.6875 408.320313 L 253.585938 409.199219 L 255.214844 411.179688 L 256.464844 412.121094 L 257.722656 413.417969 L 258.523438 415.039063 L 258.785156 416.828125 L 258.484375 418.613281 L 257.652344 420.214844 L 256.367188 421.488281 L 254.753906 422.304688 L 252.96875 422.585938 L 249.09375 422.585938 L 247.367188 422.324219 L 245.792969 421.558594 L 244.519531 420.363281 L 243.246094 418.742188 Z M 215.039063 468.164063 L 214.105469 467.539063 L 212.945313 466.027344 L 212.335938 464.222656 L 212.34375 462.320313 L 212.964844 460.519531 L 214.136719 459.015625 L 215.726563 457.972656 L 217.65625 457.121094 L 218.746094 456.277344 L 219.667969 455.101563 L 220.511719 453.1875 L 221.492188 451.667969 L 222.894531 450.519531 L 224.578125 449.859375 L 226.386719 449.75 L 228.742188 449.976563 L 230.386719 449.671875 L 231.78125 448.96875 L 233.542969 447.363281 L 235.0625 446.363281 L 236.820313 445.882813 L 238.640625 445.96875 L 240.34375 446.609375 L 241.765625 447.75 L 242.765625 449.273438 L 243.242188 451.03125 L 243.554688 453.886719 L 244.3125 455.527344 L 245.558594 456.859375 L 247.980469 458.179688 L 249.4375 459.304688 L 250.46875 460.832031 L 250.972656 462.601563 L 250.898438 464.441406 L 250.871094 464.503906 L 244.628906 465.699219 L 242.703125 466.390625 L 242.113281 466.964844 L 241.902344 467.984375 L 241.359375 468.164063 L 238.210938 466.1875 L 238.632813 465.4375 L 239.46875 464.933594 L 237.714844 463.296875 L 231.496094 463.171875 L 231.378906 463.496094 L 232.574219 464.835938 L 232.214844 465.75 L 231.738281 466.042969 L 226.691406 465.496094 L 219.566406 468.449219 L 217.054688 467.824219 Z M 222.214844 470.898438 L 222.078125 470.738281 L 221.222656 470.0625 L 221.175781 470.039063 L 221.476563 469.683594 L 227.316406 466.367188 L 232.550781 467.761719 L 234.171875 469.894531 L 231.242188 473.621094 L 229.960938 474.269531 L 228.117188 474.644531 L 222.296875 470.886719 Z M 196.753906 420.519531 L 197.050781 418.808594 L 197.84375 417.257813 L 199.054688 416.011719 L 200.582031 415.179688 L 202.285156 414.835938 L 204.015625 415.011719 L 205.617188 415.691406 L 206.945313 416.816406 L 207.882813 418.28125 L 208.34375 419.957031 L 208.824219 423.992188 L 208.730469 425.925781 L 208.011719 427.71875 L 206.738281 429.179688 L 205.058594 430.140625 L 203.15625 430.496094 L 201.242188 430.207031 L 200.761719 430.050781 L 199.316406 429.34375 L 198.121094 428.269531 L 197.265625 426.910156 L 196.816406 425.367188 L 196.75 424.933594 L 197.929688 424.472656 L 198.285156 423.78125 L 198.070313 423.238281 L 197.8125 423.082031 L 196.683594 423.917969 L 196.683594 423.898438 Z M 236.835938 466.113281 L 235.136719 465.644531 L 236.523438 463.683594 L 237.195313 464.164063 L 237.5 465.839844 Z M 236.835938 466.113281 "/>
<path style=" stroke:none;fill-rule:nonzero;fill:rgb(80.392157%,58.431373%,4.705882%);fill-opacity:1;" d="M 282.046875 420.644531 L 281.761719 422.441406 L 280.933594 424.0625 L 280.84375 424.15625 L 280.71875 424.230469 L 280.75 424.25 L 279.648438 425.351563 L 278.027344 426.175781 L 276.230469 426.460938 L 274.433594 426.175781 L 272.8125 425.351563 L 271.527344 424.0625 L 270.699219 422.441406 L 270.414063 420.644531 L 270.699219 418.847656 L 271.527344 417.226563 L 272.8125 415.941406 L 274.433594 415.117188 L 276.230469 414.832031 L 278.027344 415.117188 L 279.648438 415.941406 L 280.933594 417.226563 L 281.761719 418.847656 Z M 282.046875 420.644531 "/>
<path style=" stroke:none;fill-rule:nonzero;fill:rgb(80.392157%,58.431373%,4.705882%);fill-opacity:1;" d="M 281.953125 425.105469 L 281.761719 426.320313 L 280.933594 427.941406 L 279.648438 429.226563 L 278.027344 430.054688 L 276.230469 430.339844 L 274.433594 430.054688 L 272.8125 429.226563 L 271.527344 427.941406 L 270.699219 426.320313 L 270.414063 424.523438 L 270.699219 422.726563 L 271.527344 421.105469 L 272.8125 419.816406 L 274.433594 418.992188 L 276.230469 418.707031 L 278.027344 418.992188 L 279.648438 419.816406 L 280.933594 421.105469 L 281.761719 422.726563 L 281.890625 423.542969 L 280.71875 424.230469 Z M 281.953125 425.105469 "/>
<path style=" stroke:none;fill-rule:nonzero;fill:rgb(80.392157%,58.431373%,4.705882%);fill-opacity:1;" d="M 208.382813 467.167969 L 208.121094 468.835938 L 207.273438 468.058594 L 206.238281 469.769531 L 207.4375 470.265625 L 207.273438 470.585938 L 205.988281 471.875 L 204.367188 472.699219 L 203.507813 472.835938 L 203.015625 472.699219 L 200.011719 472.3125 L 199.152344 471.875 L 197.863281 470.585938 L 197.039063 468.964844 L 196.753906 467.167969 L 197.039063 465.371094 L 197.863281 463.75 L 199.152344 462.464844 L 200.773438 461.636719 L 202.570313 461.355469 L 204.367188 461.636719 L 205.988281 462.464844 L 207.273438 463.75 L 208.101563 465.371094 Z M 208.382813 467.167969 "/>
<path style=" stroke:none;fill-rule:nonzero;fill:rgb(80.392157%,58.431373%,4.705882%);fill-opacity:1;" d="M 294.613281 450.855469 L 293.960938 449.582031 L 293.675781 447.785156 L 293.960938 445.988281 L 294.789063 444.367188 L 296.074219 443.078125 L 297.695313 442.253906 L 299.492188 441.96875 L 300.917969 442.195313 L 300.773438 446.324219 L 300.335938 447.820313 L 299.394531 449.050781 L 296.972656 450.242188 L 295.839844 450.375 Z M 294.613281 450.855469 "/>
</g>
</svg>
