<?xml version="1.0" encoding="UTF-8"?>
<svg xmlns="http://www.w3.org/2000/svg" xmlns:xlink="http://www.w3.org/1999/xlink" width="378pt" height="504pt" viewBox="0 0 378 504" version="1.1">
<g id="data">
<rect x="0" y="0" width="378" height="504" style="fill:rgb(100%,100%,100%);fill-opacity:1;stroke:none;"/>
<path style=" stroke:none;fill-rule:nonzero;fill:rgb(100%,100%,100%);fill-opacity:1;" d="M 53.308594 504 L 324.691406 504 L 324.691406 0 L 53.308594 0 Z M 53.308594 504 "/>
<path style=" stroke:none;fill-rule:nonzero;fill:rgb(22.745098%,53.333333%,16.078431%);fill-opacity:1;" d="M 283.984375 378 L 286.832031 378.597656 L 289.445313 379.886719 L 291.394531 381.503906 L 293.625 384.222656 L 295.617188 385.753906 L 293.039063 386.890625 L 290.8125 388.613281 L 289 390.933594 L 287.863281 393.507813 L 286.324219 390.5625 L 283.914063 388.097656 L 280.28125 386.242188 L 276.230469 385.753906 L 274.523438 383.582031 L 272.355469 381.875 L 274.597656 381.46875 L 276.605469 380.6875 L 278.535156 379.472656 L 280.109375 378 Z M 245.214844 412.890625 L 245.214844 409.015625 L 246.921875 411.1875 L 249.09375 412.890625 L 251.164063 415.410156 L 252.96875 416.769531 L 249.09375 416.769531 L 247.386719 414.597656 Z M 218.078125 463.292969 L 220.652344 462.15625 L 222.878906 460.433594 L 224.628906 458.222656 L 225.832031 455.539063 L 229.003906 455.84375 L 232.257813 455.238281 L 235.109375 453.808594 L 237.460938 451.660156 L 237.875 455.460938 L 239.425781 458.816406 L 241.953125 461.515625 L 245.195313 463.285156 L 242.472656 462.683594 L 239.679688 462.746094 L 237.644531 463.292969 L 231.496094 463.171875 L 231.378906 463.496094 L 232.574219 464.835938 L 232.214844 465.75 L 231.738281 466.042969 L 226.691406 465.496094 L 225.46875 466.003906 L 224.398438 465.160156 L 222.34375 464.105469 L 220.25 463.496094 Z M 236.550781 463.707031 L 236.476563 463.746094 L 236.523438 463.683594 Z M 231.898438 467.585938 L 231.027344 468.851563 L 230.027344 471.476563 L 229.6875 474.265625 L 229.363281 472.105469 L 228.636719 470.050781 L 227.539063 468.164063 L 226.421875 466.875 L 227.316406 466.367188 Z M 202.570313 420.644531 L 203.050781 424.679688 L 202.570313 424.523438 L 202.480469 423.902344 Z M 202.570313 420.644531 "/>
<path style=" stroke:none;fill-rule:nonzero;fill:rgb(80.392157%,58.431373%,4.705882%);fill-opacity:1;" d="M 216.136719 432.277344 L 215.855469 434.074219 L 215.027344 435.695313 L 213.742188 436.980469 L 212.121094 437.808594 L 210.324219 438.09375 L 208.527344 437.808594 L 206.90625 436.980469 L 205.617188 435.695313 L 204.792969 434.074219 L 204.507813 432.277344 L 204.792969 430.480469 L 205.617188 428.859375 L 206.90625 427.570313 L 208.527344 426.746094 L 210.324219 426.460938 L 212.121094 426.746094 L 213.742188 427.570313 L 215.027344 428.859375 L 215.855469 430.480469 Z M 216.136719 432.277344 "/>
<path style=" stroke:none;fill-rule:nonzero;fill:rgb(80.392157%,58.431373%,4.705882%);fill-opacity:1;" d="M 282.046875 420.644531 L 281.761719 422.441406 L 280.84375 424.15625 L 279.648438 425.351563 L 278.027344 426.175781 L 276.230469 426.460938 L 274.433594 426.175781 L 272.8125 425.351563 L 271.527344 424.0625 L 270.699219 422.441406 L 270.414063 420.644531 L 270.699219 418.847656 L 271.527344 417.226563 L 272.8125 415.941406 L 274.433594 415.117188 L 276.230469 414.832031 L 278.027344 415.117188 L 279.648438 415.941406 L 280.933594 417.226563 L 281.761719 418.847656 Z M 282.046875 420.644531 "/>
<path style=" stroke:none;fill-rule:nonzero;fill:rgb(80.392157%,58.431373%,4.705882%);fill-opacity:1;" d="M 281.953125 425.105469 L 281.761719 426.320313 L 280.933594 427.941406 L 279.648438 429.226563 L 278.027344 430.054688 L 276.230469 430.339844 L 274.433594 430.054688 L 272.8125 429.226563 L 271.527344 427.941406 L 270.699219 426.320313 L 270.414063 424.523438 L 270.699219 422.726563 L 271.527344 421.105469 L 272.8125 419.816406 L 274.433594 418.992188 L 276.230469 418.707031 L 278.027344 418.992188 L 279.648438 419.816406 L 280.933594 421.105469 L 281.890625 423.542969 L 280.71875 424.230469 Z M 281.953125 425.105469 "/>
<path style=" stroke:none;fill-rule:nonzero;fill:rgb(80.392157%,58.431373%,4.705882%);fill-opacity:1;" d="M 208.382813 467.167969 L 208.121094 468.835938 L 207.273438 468.058594 L 206.238281 469.769531 L 207.4375 470.265625 L 207.273438 470.585938 L 205.988281 471.875 L 203.507813 472.835938 L 200.011719 472.3125 L 199.152344 471.875 L 197.863281 470.585938 L 197.039063 468.964844 L 196.753906 467.167969 L 197.039063 465.371094 L 197.863281 463.75 L 199.152344 462.464844 L 200.773438 461.636719 L 202.570313 461.355469 L 204.367188 461.636719 L 205.988281 462.464844 L 207.273438 463.75 L 208.101563 465.371094 Z M 208.382813 467.167969 "/>
<path style=" stroke:none;fill-rule:nonzero;fill:rgb(80.392157%,58.431373%,4.705882%);fill-opacity:1;" d="M 294.613281 450.855469 L 293.960938 449.582031 L 293.675781 447.785156 L 293.960938 445.988281 L 294.789063 444.367188 L 296.074219 443.078125 L 297.695313 442.253906 L 299.492188 441.96875 L 300.917969 442.195313 L 300.773438 446.324219 L 300.335938 447.820313 L 299.394531 449.050781 L 296.972656 450.242188 Z M 294.613281 450.855469 "/>
</g>
</svg>
