<?xml version="1.0" encoding="UTF-8"?>
<svg xmlns="http://www.w3.org/2000/svg" xmlns:xlink="http://www.w3.org/1999/xlink" width="378pt" height="504pt" viewBox="0 0 378 504" version="1.1">
<g id="data">
<rect x="0" y="0" width="378" height="504" style="fill:rgb(100%,100%,100%);fill-opacity:1;stroke:none;"/>
<path style=" stroke:none;fill-rule:nonzero;fill:rgb(100%,100%,100%);fill-opacity:1;" d="M 53.308594 504 L 324.691406 504 L 324.691406 0 L 53.308594 0 Z M 53.308594 504 "/>
<path style=" stroke:none;fill-rule:nonzero;fill:rgb(22.745098%,53.333333%,16.078431%);fill-opacity:1;" d="M 291.738281 381.875 L 293.445313 384.046875 L 295.617188 385.753906 L 292.183594 387.453125 L 289.414063 390.285156 L 287.015625 395.382813 L 286.367188 399.167969 L 286.699219 401.96875 L 287.757813 404.726563 L 289.472656 407.125 L 291.738281 409.015625 L 289.300781 409.132813 L 286.9375 409.753906 L 284.761719 410.855469 L 282.859375 412.386719 L 280.917969 414.941406 L 279.722656 418.054688 L 279.453125 421.253906 L 280.109375 424.523438 L 276.230469 424.523438 L 275.710938 421.914063 L 274.613281 419.492188 L 270.039063 414.207031 L 268.003906 412.867188 L 265.734375 411.980469 L 263.328125 411.585938 L 260.769531 411.722656 L 262.824219 410.5625 L 264.601563 409.015625 L 267.207031 409.710938 L 269.902344 409.789063 L 272.542969 409.246094 L 274.878906 408.171875 L 276.824219 406.703125 L 278.425781 404.859375 L 280.820313 399.75 L 281.457031 397.394531 L 281.59375 395.085938 L 281.269531 392.796875 L 280.503906 390.617188 L 278.496094 387.644531 L 276.230469 385.753906 L 274.253906 383.320313 L 272.355469 381.875 L 274.476563 381.503906 L 276.605469 380.6875 L 278.535156 379.472656 L 280.109375 378 L 283.984375 378 L 285.558594 379.472656 L 287.488281 380.6875 L 289.496094 381.46875 Z M 251.449219 417.972656 L 249.09375 416.769531 L 247.386719 414.597656 L 244.511719 412.203125 L 245.316406 408.269531 L 245.214844 405.136719 L 247.207031 408.550781 L 250.226563 411.097656 L 254.050781 412.511719 L 258 412.542969 L 255.230469 414.253906 L 252.96875 416.769531 Z M 216.269531 462.46875 L 217.597656 459.578125 L 218.078125 455.539063 L 219.1875 452.804688 L 221.15625 454.15625 L 223.238281 455.039063 L 228.460938 455.679688 L 231.214844 455.316406 L 233.5 454.566406 L 235.585938 453.363281 L 237.460938 451.660156 L 237.875 455.460938 L 239.425781 458.816406 L 241.953125 461.515625 L 245.195313 463.285156 L 242.472656 462.683594 L 239.679688 462.746094 L 237.644531 463.292969 L 231.496094 463.171875 L 231.378906 463.496094 L 232.574219 464.835938 L 232.214844 465.75 L 231.738281 466.042969 L 226.691406 465.496094 L 225.46875 466.003906 L 222.34375 464.105469 L 220.25 463.496094 L 218.078125 463.292969 Z M 236.550781 463.707031 L 236.476563 463.746094 L 236.523438 463.683594 Z M 231.898438 467.585938 L 230.96875 468.964844 L 230 471.601563 L 229.6875 474.265625 L 229.328125 471.984375 L 228.527344 469.816406 L 227.3125 467.851563 L 226.402344 466.882813 L 227.316406 466.367188 Z M 210.324219 432.277344 L 213.199219 433.214844 L 216.21875 433.378906 L 218.078125 436.152344 L 216.488281 438.40625 L 215.472656 440.96875 L 214.199219 440.03125 L 212.222656 437.597656 L 210.324219 436.152344 L 209.832031 432.09375 Z M 202.570313 424.523438 L 202.714844 423.242188 L 203.058594 424.707031 Z M 202.570313 424.523438 "/>
</g>
</svg>
