<?xml version="1.0" encoding="UTF-8"?>
<svg xmlns="http://www.w3.org/2000/svg" xmlns:xlink="http://www.w3.org/1999/xlink" width="378pt" height="504pt" viewBox="0 0 378 504" version="1.1">
<g id="data">
<rect x="0" y="0" width="378" height="504" style="fill:rgb(100%,100%,100%);fill-opacity:1;stroke:none;"/>
<path style=" stroke:none;fill-rule:nonzero;fill:rgb(100%,100%,100%);fill-opacity:1;" d="M 53.308594 504 L 324.691406 504 L 324.691406 0 L 53.308594 0 Z M 53.308594 504 "/>
<path style=" stroke:none;fill-rule:nonzero;fill:rgb(22.745098%,53.333333%,16.078431%);fill-opacity:1;" d="M 130.914063 157.109375 L 131.4375 156.253906 L 131.765625 156.140625 L 133.714844 156.851563 Z M 132.890625 153.394531 L 133.519531 151.058594 L 133.515625 148.601563 L 133.714844 146.386719 L 133.191406 146.265625 L 132.824219 145.535156 L 132.785156 145.382813 L 132.785156 141.679688 L 132.867188 141.691406 L 134.054688 144.300781 L 136.015625 146.667969 L 138.183594 148.253906 L 140.539063 149.261719 L 142.273438 150.953125 L 144.324219 152.25 L 146.476563 153.058594 L 148.871094 153.4375 L 155.601563 152.820313 L 158.902344 151.445313 L 161.625 149.132813 L 163.363281 146.453125 L 165.105469 141.773438 L 165.214844 138.3125 L 164.300781 134.976563 L 162.53125 132.152344 L 160.230469 130.144531 L 160.84375 130.035156 L 163.800781 130.542969 L 167.675781 129.875 L 171.554688 130.542969 L 176.429688 129.753906 L 179.308594 129.875 L 176.363281 131.414063 L 173.976563 133.722656 L 172.039063 137.457031 L 171.554688 141.507813 L 169.160156 142.734375 L 167.113281 144.480469 L 165.519531 146.648438 L 164.46875 149.125 L 163.996094 152.546875 L 164.347656 154.699219 L 162.601563 156.074219 L 162.234375 157.082031 L 162.671875 158.175781 L 162.078125 159.632813 L 159.644531 160.289063 L 156.839844 159.359375 L 153.464844 157.734375 L 154.464844 159.796875 L 155.875 160.457031 L 161.363281 161.917969 L 164.042969 162.292969 L 165.242188 161.992188 L 166.015625 161.605469 L 166.75 160.257813 L 167.140625 160.222656 L 167.523438 160.699219 L 167.507813 160.828125 L 166.417969 162.609375 L 162.722656 166.96875 L 162.175781 167.183594 L 161.726563 166.894531 L 161.859375 165.949219 L 161.53125 165.507813 L 159.984375 165.785156 L 155.320313 167.769531 L 152.441406 170.8125 L 151.949219 171.945313 L 152.140625 172.144531 L 156.390625 168.453125 L 157.75 167.980469 L 160.300781 168.324219 L 161.058594 169.320313 L 157.109375 173.804688 L 156.367188 175.339844 L 156.707031 175.816406 L 157.367188 175.984375 L 158.261719 175.542969 L 161.140625 173.015625 L 167.808594 170.273438 L 170.480469 169.527344 L 170.492188 169.949219 L 171.554688 169.839844 L 173.589844 168.316406 L 173.832031 167.5 L 174.769531 168 L 182.546875 169.292969 L 184.835938 169.195313 L 187.0625 168.644531 L 189.953125 171.140625 L 193.621094 172.589844 L 196.796875 172.8125 L 201.179688 172.042969 L 204.046875 170.707031 L 206.445313 168.644531 L 208.152344 170.816406 L 210.324219 172.523438 L 209.65625 176.398438 L 210.324219 180.277344 L 207.871094 183.332031 L 206.574219 187.023438 L 206.285156 189.78125 L 206.398438 193.980469 L 206.226563 194.742188 L 204.992188 196.96875 L 204.011719 197.761719 L 200.375 202.277344 L 199.421875 204.207031 L 198.839844 206.285156 L 198.621094 208.246094 L 197.078125 210.023438 L 197.433594 210.839844 L 197.785156 210.703125 L 197.761719 211.238281 L 197.445313 212.273438 L 196.523438 213 L 193.125 216.90625 L 191.945313 218.726563 L 191.695313 219.347656 L 191.214844 219.742188 L 185.519531 221.085938 L 182.847656 221.226563 L 177.804688 225.21875 L 178.117188 225.714844 L 179.84375 225.195313 L 184.609375 222.886719 L 186.457031 221.386719 L 187.289063 221.316406 L 189.085938 221.875 L 189.332031 222.921875 L 188.898438 224.691406 L 189.238281 225.953125 L 190.898438 226.824219 L 190.9375 226.832031 L 190.804688 229.554688 L 191.15625 231.992188 L 189.460938 232.730469 L 188.34375 232.882813 L 187.070313 232.078125 L 185.40625 232.042969 L 181.046875 235.800781 L 180.578125 237.003906 L 174.761719 240.109375 L 170.214844 238.117188 L 166.480469 238.003906 L 166.738281 239.222656 L 168.246094 240.195313 L 178.0625 241.875 L 182.921875 243.167969 L 186.398438 241.730469 L 187.519531 239.417969 L 188.617188 238.355469 L 189.539063 238.171875 L 193.183594 238.5 L 197.914063 241.773438 L 201.855469 244.820313 L 204.082031 245.742188 L 205.1875 245.949219 L 206.488281 246.65625 L 208.910156 251.429688 L 212.824219 256.707031 L 213.265625 256.828125 L 213.433594 256.585938 L 213.632813 256.675781 L 213.542969 258.199219 L 214.507813 263.570313 L 215.882813 266.832031 L 218.078125 269.445313 L 217.414063 273.449219 L 218.078125 277.199219 L 217.765625 280.242188 L 218.261719 283.261719 L 219.140625 285.386719 L 220.339844 287.195313 L 223.660156 291 L 225.542969 292.480469 L 225.945313 294.183594 L 226.109375 294.417969 L 226.425781 296.375 L 228.222656 299.769531 L 230.09375 301.707031 L 232.25 303.105469 L 234.785156 304.027344 L 237.460938 304.339844 L 239.167969 306.507813 L 241.339844 308.214844 L 243.039063 311.648438 L 245.761719 314.34375 L 249.09375 315.96875 L 250.664063 317.441406 L 251.085938 317.707031 L 252.390625 319.148438 L 256.003906 320.820313 L 254.351563 322.738281 L 252.902344 326.40625 L 252.65625 329.074219 L 253.191406 336.859375 L 254.128906 339.261719 L 253.664063 338.65625 L 252.601563 338.082031 L 245.550781 339.511719 L 244.589844 338.644531 L 243.40625 338.558594 L 241.210938 339.871094 L 241.886719 340.445313 L 246.324219 340.394531 L 249.617188 339.34375 L 251.976563 339.082031 L 254.382813 342.558594 L 256.867188 344.605469 L 256.914063 347.617188 L 257.980469 351.121094 L 259.171875 353.066406 L 261.914063 356.359375 L 264.601563 358.617188 L 265.242188 361.582031 L 266.703125 364.390625 L 268.335938 366.011719 L 264.953125 369.09375 L 261.394531 373.164063 L 260.601563 374.816406 L 262.84375 374.3125 L 264.9375 375.519531 L 266.9375 378.226563 L 270.21875 378.804688 L 270.625 378.746094 L 271.910156 376.796875 L 272.234375 374.960938 L 273.40625 371.914063 L 274.707031 370.632813 L 276.8125 370.265625 L 278.105469 370.410156 L 283.523438 370.359375 L 284.253906 370.867188 L 286.703125 370.742188 L 293.949219 371.515625 L 296.914063 372.84375 L 300.75 375.652344 L 301.5625 376.640625 L 303.371094 378 L 303.246094 380.878906 L 303.925781 384.605469 L 305.257813 387.335938 L 307.066406 389.421875 L 307.179688 391.25 L 306.777344 393.191406 L 306.890625 393.976563 L 305.789063 396.917969 L 305.164063 399.925781 L 304.558594 400.886719 L 303.742188 403.015625 L 303.371094 405.136719 L 301.894531 406.710938 L 300.738281 408.527344 L 299.902344 410.648438 L 299.679688 411.867188 L 297.144531 414.53125 L 295.578125 412.011719 L 292.742188 410.515625 L 292.480469 410.636719 L 293.898438 413.703125 L 295.890625 416.628906 L 296.3125 416.765625 L 296.164063 417.742188 L 294.574219 419.804688 L 292.191406 421.289063 L 290.003906 421.65625 L 289.660156 421.574219 L 288.214844 419.332031 L 284.976563 421.730469 L 280.71875 424.230469 L 282.339844 425.378906 L 285.105469 424.398438 L 286.097656 423.375 L 286.894531 423.164063 L 287.328125 423.710938 L 287.632813 428.84375 L 285.6875 430.875 L 283.441406 432.558594 L 282.84375 432.699219 L 279.644531 432.160156 L 274.75 433.78125 L 272.609375 436.117188 L 274.253906 436.015625 L 275.152344 434.667969 L 276.683594 434.363281 L 278.285156 434.328125 L 281.054688 434.949219 L 281.828125 435.589844 L 281.691406 436.328125 L 279.554688 436.347656 L 277.390625 437.65625 L 277.96875 438.546875 L 281.382813 438.964844 L 286.863281 440.339844 L 289.394531 439.9375 L 291.074219 438.957031 L 296.394531 438.222656 L 299.492188 440.03125 L 298.828125 443.90625 L 299.492188 447.785156 L 296.644531 448.382813 L 294.03125 449.671875 L 289.75 453.191406 L 287.863281 455.539063 L 285.738281 455.914063 L 283.609375 456.726563 L 281.679688 457.941406 L 280.109375 459.414063 L 277.621094 459.894531 L 275.1875 460.96875 L 272.355469 463.292969 L 250.84375 463.132813 L 246.363281 463.851563 L 243.632813 465.179688 L 241.339844 467.167969 L 240.167969 467.414063 L 238.210938 466.1875 L 238.632813 465.4375 L 239.46875 464.933594 L 237.714844 463.296875 L 231.496094 463.171875 L 231.378906 463.496094 L 232.574219 464.835938 L 232.214844 465.75 L 231.738281 466.042969 L 226.691406 465.496094 L 219.566406 468.449219 L 217.054688 467.824219 L 210.222656 468.96875 L 208.164063 468.875 L 207.273438 468.058594 L 206.238281 469.769531 L 209.261719 471.019531 L 204.195313 470.886719 L 200.691406 471.355469 L 198.789063 472.15625 L 197.625 472.007813 L 196.175781 472.65625 L 195.679688 473.863281 L 195.722656 474.160156 L 195.1875 474.609375 L 194.851563 473.972656 L 190.289063 470.589844 L 185.898438 468.519531 L 183.121094 467.984375 L 181.648438 469.066406 L 176.207031 469.78125 L 174.339844 470.335938 L 168.992188 473.234375 L 168.214844 474.070313 L 167.203125 476.179688 L 165.25 481.898438 L 164.574219 483.230469 L 163.972656 485.296875 L 163.910156 485.816406 L 162.746094 489.226563 L 160.929688 490.242188 L 159.34375 489.933594 L 157.03125 487.9375 L 156.527344 486.851563 L 154.683594 485.4375 L 153.613281 485.542969 L 152.417969 486.300781 L 151.738281 486.164063 L 148.46875 482.535156 L 142.796875 482.960938 L 141.527344 483.375 L 140.734375 484.175781 L 139.910156 484.507813 L 134.507813 484.320313 L 132.167969 484.859375 L 129.414063 488.195313 L 126.714844 489.746094 L 124.039063 490.597656 L 123.132813 494.289063 L 123.289063 494.585938 L 122.921875 494.933594 L 121.625 497.320313 L 120.710938 497.632813 L 119.265625 495.839844 L 114.984375 492.316406 L 112.371094 491.03125 L 109.523438 490.429688 L 112.011719 489.949219 L 114.335938 488.941406 L 117.277344 486.554688 L 120.324219 484.941406 L 122.285156 483.105469 L 123.59375 481.210938 L 124.082031 480.101563 L 124.375 479.769531 L 125.210938 477.886719 L 124.960938 476.800781 L 124.984375 476.144531 L 125.570313 474.695313 L 127.273438 473.976563 L 128.183594 473.335938 L 128.386719 473.238281 L 132.105469 472.640625 L 132.679688 471.785156 L 133.257813 469.527344 L 135.859375 467.5625 L 138.636719 464.640625 L 138.859375 461.894531 L 140.050781 459.589844 L 140.539063 455.539063 L 141.648438 454.996094 L 142.492188 455.105469 L 144.269531 456.015625 L 145.761719 455.429688 L 148.429688 452.488281 L 148.140625 448.082031 L 148.292969 447.785156 L 148.5625 447.378906 L 151.105469 446.613281 L 157.421875 446.269531 L 159.910156 445.683594 L 164.597656 446.761719 L 166.046875 446.148438 L 167.527344 446.515625 L 169.484375 447.285156 L 170.039063 448.109375 L 170.757813 448.421875 L 173.15625 448.464844 L 180.570313 447.503906 L 181.109375 445.632813 L 181.210938 443.15625 L 182.519531 440.25 L 190.867188 432.195313 L 195.792969 425.3125 L 197.929688 424.472656 L 198.285156 423.78125 L 198.070313 423.238281 L 197.8125 423.082031 L 196.09375 424.355469 L 192.90625 427.300781 L 190.570313 429.988281 L 189.222656 431.449219 L 185.628906 432.957031 L 183.714844 433.246094 L 182.441406 433.0625 L 178.394531 435.230469 L 177.398438 436.808594 L 177.039063 438.671875 L 176.445313 439.273438 L 174.058594 439.917969 L 170.558594 439.851563 L 166.820313 439 L 166.347656 438.652344 L 161.371094 433.375 L 159.03125 429.199219 L 155.65625 429.589844 L 149.269531 432.308594 L 149.113281 432.746094 L 148.117188 432.164063 L 147.78125 431.703125 L 147.152344 431.210938 L 146.917969 429.308594 L 148.539063 428.378906 L 150.066406 428.890625 L 151.640625 428.421875 L 152.765625 427.832031 L 153.085938 427.097656 L 152.808594 426.597656 L 147.785156 426.460938 L 143.210938 423.710938 L 139.503906 423.714844 L 136.765625 424.277344 L 136.292969 426.515625 L 135.777344 427.203125 L 133.742188 427.917969 L 132.394531 427.265625 L 131.648438 427.453125 L 130.5625 428.398438 L 128.90625 428.398438 L 127.335938 426.925781 L 127.117188 426.789063 L 127.425781 426.082031 L 128.796875 425.832031 L 131.792969 424.328125 L 131.226563 422.867188 L 130.640625 424.257813 L 127.769531 424.613281 L 122.949219 424.152344 L 121.496094 423.164063 L 124.125 421.78125 L 125.167969 421.753906 L 125.464844 421.238281 L 124.929688 417.953125 L 123.328125 417.210938 L 121.445313 417.105469 L 121.535156 416.820313 L 123.429688 417.078125 L 125.722656 416.929688 L 127.941406 416.339844 L 129.894531 415.386719 L 134.683594 411.449219 L 136.660156 409.015625 L 140.453125 408.042969 L 142.640625 406.765625 L 144.414063 405.136719 L 147.621094 404.410156 L 150.496094 402.8125 L 153.796875 399.488281 L 155.566406 395.996094 L 156.199219 392.007813 L 155.886719 387.710938 L 154.925781 384.652344 L 153.945313 383.140625 L 154.652344 381.796875 L 152.269531 378.203125 L 152.683594 374.835938 L 153.175781 374.082031 L 152.804688 373.207031 L 150.203125 373.105469 L 145.449219 374.257813 L 143.757813 375.484375 L 142.195313 377.863281 L 136.660156 378 L 136.660156 377.304688 L 137.339844 376.066406 L 140.148438 373.019531 L 141.023438 372.414063 L 142.589844 371.953125 L 147.132813 367.984375 L 147.953125 364.523438 L 151.550781 360.582031 L 153.09375 359.609375 L 154.941406 359.808594 L 160.492188 357.457031 L 163.644531 357.28125 L 167.339844 357.714844 L 172.597656 355.179688 L 173.933594 355.046875 L 174.484375 355.082031 L 179.910156 359.441406 L 180.433594 358.429688 L 177.679688 353.460938 L 178.242188 352.835938 L 180.867188 352.449219 L 181.503906 352.695313 L 181.914063 353.875 L 182.898438 354.332031 L 184.078125 356.789063 L 185.613281 357.902344 L 188.359375 357.621094 L 190.335938 355.148438 L 189.90625 355.050781 L 188.667969 355.527344 L 188.3125 355.957031 L 186.378906 356.386719 L 183.8125 354.640625 L 179.976563 346.332031 L 180.097656 346.113281 L 181.007813 345.109375 L 182.265625 342.90625 L 182.746094 341.371094 L 183.371094 340.257813 L 185.429688 339.015625 L 185.140625 338.578125 L 183.238281 338.488281 L 183.34375 337.605469 L 183.066406 332.925781 L 182.277344 330.277344 L 184.695313 329.191406 L 187.28125 323.421875 L 187.71875 320.933594 L 187.855469 317.484375 L 184.742188 320.527344 L 179.199219 323.441406 L 177.335938 322.691406 L 175.179688 318.957031 L 174.609375 316.402344 L 173.328125 314.070313 L 172.535156 313.1875 L 172.289063 311.832031 L 170.984375 309.914063 L 170.53125 308.183594 L 169.304688 306.113281 L 167.675781 304.339844 L 167.601563 304.03125 L 169.164063 299.058594 L 174.074219 288.722656 L 176.464844 286.417969 L 178.757813 285.980469 L 180.191406 286.804688 L 181.015625 286.710938 L 182.933594 286.238281 L 183.03125 285.160156 L 182.34375 284.746094 L 180.035156 285.351563 L 174.65625 284.980469 L 172.566406 284.292969 L 169.453125 284.03125 L 168.226563 288.992188 L 166.234375 288.695313 L 163.3125 290.011719 L 161.832031 291.855469 L 159.410156 293.515625 L 156.15625 293.3125 L 155.160156 292.984375 L 149.984375 289.230469 L 149.214844 288.042969 L 149.230469 287.167969 L 148.945313 287.023438 L 148.15625 288.078125 L 147.988281 288.910156 L 148.375 290.554688 L 149.574219 292.960938 L 149.816406 295.464844 L 148.292969 296.585938 L 146.367188 293.132813 L 143.285156 290.457031 L 140.09375 289.148438 L 138.78125 289.027344 L 138.398438 288.636719 L 137.464844 288.296875 L 136.707031 288.835938 L 136.660156 288.832031 L 135.089844 287.359375 L 133.160156 286.144531 L 131.03125 285.328125 L 129.3125 285.023438 L 129.71875 282.265625 L 132.777344 280.410156 L 134.003906 276.632813 L 137.757813 273.035156 L 138.601563 268.871094 L 140.917969 265.085938 L 143.644531 263.800781 L 144.390625 261.886719 L 144.195313 260.621094 L 142.601563 256.71875 L 139.777344 254.832031 L 137.378906 252.511719 L 138.6875 242.234375 L 140.710938 241.59375 L 142.886719 242.511719 L 146.15625 243.175781 L 148.300781 243.253906 L 141.261719 240.453125 L 140.441406 240.5625 L 139.386719 240.085938 L 139.183594 238.121094 L 139.414063 236.460938 L 140.238281 234.648438 L 139.292969 234.9375 L 138.320313 240.257813 L 136.15625 245.152344 L 135.023438 244.945313 L 131.566406 242.222656 L 130.757813 242.5 L 130.269531 243.347656 L 130.09375 244.535156 L 130.664063 246.308594 L 130.519531 246.613281 L 128.257813 245.464844 L 127.46875 243.074219 L 128.453125 238.691406 L 131.230469 234.078125 L 136.953125 229.316406 L 138.316406 227.601563 L 135.558594 229.292969 L 130.363281 233.964844 L 126.449219 238.917969 L 125.671875 238.734375 L 125.460938 238.363281 L 126.1875 249.699219 L 124.449219 251.558594 L 123.367188 254.191406 L 121.183594 263.964844 L 122.0625 266.289063 L 120.679688 268.164063 L 119.945313 268.597656 L 117.316406 268.863281 L 117.429688 267.066406 L 117.070313 263.394531 L 116.9375 262.945313 L 117.226563 262.640625 L 117.992188 256.269531 L 120.664063 249.058594 L 119.164063 246.890625 L 119.359375 242.367188 L 121.945313 238.054688 L 122.191406 237.09375 L 120.824219 237.742188 L 119.636719 239.75 L 119.449219 238.929688 L 123.929688 230.9375 L 123.671875 230.734375 L 122.386719 231.796875 L 121.808594 231.777344 L 122.070313 227.40625 L 122.761719 224.691406 L 124.160156 221.96875 L 126.660156 220.210938 L 128.792969 220.179688 L 129.328125 220.484375 L 131.4375 220.320313 L 134.28125 217.339844 L 135.300781 215.007813 L 134.855469 215.347656 L 134.105469 217.117188 L 131.898438 219.546875 L 131.125 219.644531 L 127.28125 218.265625 L 127.882813 216.460938 L 128.195313 216.742188 L 128.945313 216.671875 L 131.070313 215.113281 L 129.507813 214.882813 L 128.550781 215.441406 L 127.980469 214.949219 L 127.875 213.785156 L 129.65625 210.6875 L 134.21875 205.03125 L 134.59375 204.003906 L 123.476563 215.398438 L 120.675781 217.269531 L 120.230469 216.390625 L 115.878906 214.433594 L 114.8125 213.664063 L 113.113281 211.414063 L 113.132813 210.632813 L 113.96875 210.082031 L 116.167969 209.980469 L 120.585938 209.09375 L 123.988281 209.15625 L 124.257813 209.050781 L 124.117188 208.789063 L 119.15625 207.757813 L 117.03125 209.015625 L 115.34375 209.1875 L 108.898438 208.554688 L 108.144531 207.871094 L 107.980469 206.867188 L 108.007813 206.746094 L 109.109375 205.527344 L 114.792969 204.496094 L 115.882813 205.636719 L 117.070313 206.34375 L 118.480469 204.378906 L 117.316406 203.507813 L 117.253906 202.640625 L 119.675781 202.136719 L 120.503906 202.316406 L 121.824219 201.292969 L 121.664063 200.792969 L 120.140625 199.953125 L 116.804688 200.417969 L 115.804688 199.949219 L 118.253906 195.210938 L 118.835938 194.789063 L 120.230469 194.832031 L 120.625 195.21875 L 120.773438 195.527344 L 121.273438 195.855469 L 121.542969 196.121094 L 122.414063 196.605469 L 122.574219 196.710938 L 122.59375 196.707031 L 125.222656 198.164063 L 128.109375 198.746094 L 131.046875 198.585938 L 133.851563 197.691406 L 136.339844 196.121094 L 139.050781 192.898438 L 140.0625 190.546875 L 140.539063 188.03125 L 142.597656 185.628906 L 143.898438 182.886719 L 144.539063 179.28125 L 144.414063 176.398438 L 146.375 173.40625 L 147.328125 169.957031 L 147.238281 166.632813 L 146.152344 163.359375 L 143.695313 160.09375 L 140.144531 157.832031 L 136.277344 157.023438 L 135.242188 155.121094 L 133.609375 154.054688 Z M 232.917969 471.488281 L 231.59375 472.578125 L 230.421875 474.035156 L 229.960938 474.269531 L 229.164063 474.429688 L 227.832031 473.222656 L 225.515625 471.917969 L 222.90625 471.277344 L 222.296875 470.886719 L 221.757813 470.964844 L 220.75 470.542969 L 221.476563 469.683594 L 227.316406 466.367188 L 232.550781 467.761719 L 234.171875 469.894531 Z M 209.75 471.03125 L 209.546875 471.027344 L 209.714844 470.9375 Z M 145.183594 362.78125 L 145.070313 360.964844 L 144.414063 358.617188 L 145.886719 357.042969 L 147.101563 355.113281 L 147.882813 353.105469 L 148.160156 351.59375 L 149.566406 352.007813 L 151.039063 355.578125 L 155.546875 356.503906 L 154.066406 358.859375 L 150.984375 360.816406 L 147.425781 363.976563 L 146.109375 363.875 Z M 107.273438 254.148438 L 105.644531 253.9375 L 105.273438 251.816406 L 104.457031 249.6875 L 104.382813 249.570313 L 104.988281 247.472656 L 102.980469 247.105469 L 102.847656 247.335938 L 101.769531 246.183594 L 101.769531 243.429688 L 102.445313 243.214844 L 103.882813 243.558594 L 106.871094 241.457031 L 108.433594 240.808594 L 108.667969 241.335938 L 108.480469 243.175781 L 108.777344 246.292969 L 109.046875 247.320313 L 109.929688 248.226563 L 110.335938 251.851563 L 108.992188 253.109375 Z M 102.890625 224.085938 L 102.386719 223.5625 L 102.589844 223.230469 L 103.304688 222.808594 L 103.460938 223.023438 Z M 105.925781 214.6875 L 105.945313 214.589844 L 105.679688 211.648438 L 108.914063 210.140625 L 110.03125 209.789063 L 110.59375 209.929688 L 111.976563 210.636719 L 113.289063 212.988281 L 113.785156 214.699219 L 116.457031 215.945313 L 117.929688 216.300781 L 121.195313 219.144531 L 120.902344 221.207031 L 119.445313 223.339844 L 116.335938 225.03125 L 115.453125 224.539063 L 116.136719 223.339844 L 115.425781 223.117188 L 112.109375 224.96875 L 106.027344 226.585938 L 104.691406 226.273438 L 103.734375 224.277344 L 103.851563 223.371094 L 104.191406 223.09375 L 105.628906 223.050781 L 106.039063 223.617188 L 106.972656 224.074219 L 112.214844 222.164063 L 112.035156 221.589844 L 109.863281 222.445313 L 108.199219 222.488281 L 107.824219 221.539063 L 109.386719 219.472656 L 112.601563 217.957031 L 112.90625 216.820313 L 112.554688 216.699219 L 109.90625 217.519531 Z M 106.773438 197.328125 L 105.644531 195.785156 L 107.570313 192.628906 L 107.992188 192.835938 L 108.445313 193.703125 L 108.09375 196.351563 L 107.546875 197.015625 Z M 108.554688 187.636719 L 107.796875 183.761719 L 105.644531 180.277344 L 105.664063 180.171875 L 107.179688 181.675781 L 107.667969 181.742188 L 107.789063 181.460938 L 105.773438 179.480469 L 106.308594 176.144531 L 105.828125 172.464844 L 106.867188 171.878906 L 106.683594 169.414063 L 109.523438 168.644531 L 108.867188 170.996094 L 108.722656 173.5625 L 109.109375 175.972656 L 110.050781 178.363281 L 111.328125 180.289063 L 112.019531 180.976563 L 112.054688 181.640625 L 117.238281 184.703125 L 117.117188 186.40625 L 117.402344 189.039063 L 118.023438 190.773438 L 116.035156 193.449219 L 114.023438 194.042969 L 113.570313 192.609375 L 115.183594 189.4375 L 113.980469 187.324219 L 112.75 189.558594 L 110.542969 187.414063 Z M 140.539063 319.847656 L 142.992188 316.785156 L 144.292969 313.082031 L 144.414063 319.847656 Z M 93.785156 153.914063 L 93.320313 155.476563 L 92.039063 155.507813 L 92.542969 154.710938 L 93.273438 153.929688 L 93.789063 153.890625 Z M 93 157.347656 L 93.074219 160.261719 L 92.21875 160.445313 L 90.675781 158.34375 L 91.011719 157.46875 L 91.820313 157.980469 Z M 286.679688 439.636719 L 283.058594 438.976563 L 282.164063 437.605469 L 282.484375 436.070313 L 286.839844 437.054688 L 287.960938 438.832031 Z M 236.835938 466.113281 L 235.136719 465.644531 L 236.523438 463.683594 L 237.195313 464.164063 L 237.5 465.839844 Z M 110.160156 200.433594 L 108.972656 199.578125 L 108.9375 198.890625 L 110.578125 197.179688 L 111.398438 197.769531 L 111.5 198.265625 L 111.128906 199.855469 Z M 108.136719 218.074219 L 107.207031 217.691406 L 106.753906 217.160156 L 107.335938 216.378906 L 108.085938 216.507813 L 109.105469 217.519531 L 109.070313 217.820313 Z M 123.378906 222.417969 L 122.582031 222.078125 L 123.082031 221.191406 L 124.476563 221.046875 Z M 121.453125 227.109375 L 121.152344 226.972656 L 120.984375 225.621094 L 121.59375 224.800781 L 122.367188 224.816406 L 121.953125 226.621094 Z M 120.902344 230.566406 L 120.316406 229.273438 L 120.976563 227.386719 L 121.816406 227.683594 Z M 118.503906 231.671875 L 118.15625 231.449219 L 118.535156 230.824219 L 119.917969 230.164063 L 119.953125 231.257813 Z M 111.886719 247.292969 L 110.550781 247.070313 L 109.476563 246.144531 L 109.292969 243.285156 L 109.585938 242.089844 L 112.5625 237.15625 L 116.605469 233.660156 L 119.195313 232.023438 L 119.632813 233.128906 L 119.449219 233.945313 L 118.015625 235.730469 L 113.761719 243.328125 Z M 106.976563 236.632813 L 105.476563 236.191406 L 106.28125 234.464844 L 107.839844 232.910156 L 108.882813 232.734375 L 107.535156 236.1875 Z M 134.8125 251.347656 L 132.589844 248.835938 L 130.84375 244.566406 L 130.707031 243.464844 L 131.460938 242.613281 L 133.71875 244.574219 L 134.707031 246.3125 L 135.339844 249.003906 L 135.222656 250.96875 Z M 130.613281 263.773438 L 129.152344 263.667969 L 126.582031 261.613281 L 125.375 256.128906 L 125.988281 253.21875 L 128.179688 251.246094 L 129.539063 251.441406 L 131.390625 253.015625 L 132.984375 258.382813 L 133.019531 262.765625 L 132.308594 263.453125 Z M 130.613281 263.773438 "/>
<path style=" stroke:none;fill-rule:nonzero;fill:rgb(80.392157%,58.431373%,4.705882%);fill-opacity:1;" d="M 130.847656 160.890625 L 130.5625 162.6875 L 129.734375 164.308594 L 128.449219 165.597656 L 126.828125 166.421875 L 125.03125 166.707031 L 123.234375 166.421875 L 121.613281 165.597656 L 120.382813 164.367188 L 120.550781 159.835938 L 121.035156 158.421875 L 122.082031 157.9375 L 122.960938 157.902344 L 123.679688 158.9375 L 124.035156 161.566406 L 125.066406 162.535156 L 125.355469 162.453125 L 126.003906 159.773438 L 125.019531 158.757813 L 124.640625 157.636719 L 124.695313 156.6875 L 125.515625 155.699219 L 128.898438 158.675781 L 129.480469 157.21875 L 130.5625 159.09375 Z M 130.847656 160.890625 "/>
</g>
</svg>
