<?xml version="1.0" encoding="UTF-8"?>
<svg xmlns="http://www.w3.org/2000/svg" xmlns:xlink="http://www.w3.org/1999/xlink" width="378pt" height="504pt" viewBox="0 0 378 504" version="1.1">
<g id="data">
<rect x="0" y="0" width="378" height="504" style="fill:rgb(100%,100%,100%);fill-opacity:1;stroke:none;"/>
<path style=" stroke:none;fill-rule:nonzero;fill:rgb(100%,100%,100%);fill-opacity:1;" d="M 53.308594 504 L 324.691406 504 L 324.691406 0 L 53.308594 0 Z M 53.308594 504 "/>
<path style=" stroke:none;fill-rule:nonzero;fill:rgb(22.745098%,53.333333%,16.078431%);fill-opacity:1;" d="M 249.976563 345.066406 L 251.945313 347.59375 L 254.527344 349.488281 L 257.53125 350.605469 L 260.722656 350.863281 L 258.371094 352.847656 L 256.679688 355.265625 L 255.652344 358.03125 L 255.359375 361.09375 L 255.917969 364.253906 L 257.539063 367.886719 L 259.183594 370.175781 L 261.4375 372.070313 L 262.097656 372.363281 L 261.394531 373.164063 L 260.601563 374.816406 L 262.84375 374.3125 L 264.9375 375.519531 L 266.9375 378.226563 L 270.21875 378.804688 L 270.625 378.746094 L 271.910156 376.796875 L 272.234375 374.960938 L 273.164063 372.535156 L 274.496094 371.765625 L 276.058594 370.394531 L 276.925781 370.246094 L 283.363281 370.246094 L 284.253906 370.867188 L 286.703125 370.742188 L 292.636719 371.375 L 293.535156 372.503906 L 297.390625 375.75 L 300.164063 377.269531 L 303.371094 378 L 305.074219 380.171875 L 305.503906 380.507813 L 306.730469 384.164063 L 307.179688 391.25 L 306.777344 393.191406 L 306.890625 393.976563 L 305.789063 396.917969 L 305.183594 399.824219 L 303.925781 402.410156 L 303.246094 406.136719 L 303.328125 408.035156 L 297.144531 414.53125 L 295.578125 412.011719 L 292.742188 410.515625 L 292.480469 410.636719 L 293.898438 413.703125 L 295.890625 416.628906 L 296.3125 416.765625 L 296.164063 417.742188 L 294.574219 419.804688 L 292.191406 421.289063 L 290.003906 421.65625 L 289.660156 421.574219 L 288.214844 419.332031 L 284.976563 421.730469 L 280.71875 424.230469 L 282.339844 425.378906 L 285.105469 424.398438 L 286.097656 423.375 L 286.894531 423.164063 L 287.328125 423.710938 L 287.632813 428.84375 L 285.6875 430.875 L 283.441406 432.558594 L 282.84375 432.699219 L 279.644531 432.160156 L 274.75 433.78125 L 272.609375 436.117188 L 274.253906 436.015625 L 275.152344 434.667969 L 276.683594 434.363281 L 278.285156 434.328125 L 281.054688 434.949219 L 281.828125 435.589844 L 281.691406 436.328125 L 279.554688 436.347656 L 277.390625 437.65625 L 277.96875 438.546875 L 281.382813 438.964844 L 286.863281 440.339844 L 289.394531 439.9375 L 291.074219 438.957031 L 299.742188 437.757813 L 300.988281 440.148438 L 300.875 443.359375 L 300.050781 445.054688 L 299.367188 448.78125 L 299.378906 449.058594 L 296.972656 450.242188 L 295.839844 450.375 L 292.621094 451.640625 L 291.179688 452.742188 L 289.847656 454.226563 L 289.460938 455.09375 L 289.214844 456.324219 L 289.410156 457.53125 L 289.078125 457.933594 L 286.253906 458.289063 L 284.1875 457.9375 L 281.042969 460.90625 L 278.484375 461.933594 L 274.789063 462.777344 L 272.597656 463.816406 L 270.539063 466.589844 L 269.761719 466.949219 L 259.480469 463.839844 L 259.332031 463.773438 L 255.597656 463.148438 L 252.214844 463.378906 L 248.378906 464.65625 L 247.839844 465.085938 L 244.628906 465.699219 L 242.703125 466.390625 L 242.113281 466.964844 L 242.085938 467.109375 L 240.582031 467.257813 L 240.140625 467.398438 L 238.210938 466.1875 L 238.632813 465.4375 L 239.46875 464.933594 L 237.714844 463.296875 L 231.496094 463.171875 L 231.378906 463.496094 L 232.574219 464.835938 L 232.214844 465.75 L 231.738281 466.042969 L 226.691406 465.496094 L 219.566406 468.449219 L 217.054688 467.824219 L 210.222656 468.96875 L 208.164063 468.875 L 207.273438 468.058594 L 206.238281 469.769531 L 209.429688 471.089844 L 209.714844 470.9375 L 210.1875 472.128906 L 209.566406 473.890625 L 206.84375 474.453125 L 204.453125 473.097656 L 203.015625 472.699219 L 197.625 472.007813 L 196.175781 472.65625 L 195.679688 473.863281 L 195.832031 474.871094 L 196.757813 475.523438 L 196.488281 476.304688 L 195.917969 475.996094 L 194.851563 473.972656 L 190.289063 470.589844 L 185.898438 468.519531 L 183.121094 467.984375 L 181.648438 469.066406 L 176.207031 469.78125 L 174.339844 470.335938 L 168.992188 473.234375 L 168.214844 474.070313 L 167.203125 476.179688 L 164.753906 483.347656 L 163.425781 483.867188 L 161.496094 485.082031 L 159.921875 486.554688 L 157.570313 484.40625 L 154.71875 482.980469 L 151.589844 482.378906 L 148.574219 482.652344 L 148.46875 482.535156 L 148.152344 482.558594 L 146.132813 480.867188 L 143.71875 479.675781 L 140.972656 479.054688 L 138.152344 479.113281 L 134.960938 480.050781 L 132.164063 481.855469 L 130.28125 483.949219 L 128.90625 486.554688 L 126.738281 488.261719 L 125.1875 490.230469 L 124.039063 490.597656 L 124.03125 490.640625 L 122.207031 491.019531 L 119.722656 492.21875 L 121.65625 489.203125 L 122.582031 485.738281 L 122.410156 482.15625 L 122.363281 482.03125 L 124.375 479.769531 L 125.210938 477.886719 L 125.167969 477.703125 L 125.40625 477.609375 L 127.335938 476.394531 L 128.90625 474.921875 L 131.726563 474.742188 L 134.300781 473.941406 L 136.207031 472.871094 L 137.878906 471.460938 L 139.789063 468.882813 L 140.921875 465.882813 L 141.1875 462.558594 L 140.539063 459.414063 L 143.113281 458.277344 L 145.339844 456.554688 L 147.15625 454.238281 L 147.449219 453.570313 L 148.429688 452.488281 L 148.375 451.640625 L 152.363281 450.585938 L 155.785156 448.132813 L 157.140625 446.429688 L 157.222656 446.277344 L 157.421875 446.269531 L 159.910156 445.683594 L 164.597656 446.761719 L 166.046875 446.148438 L 167.527344 446.515625 L 169.484375 447.285156 L 170.039063 448.109375 L 170.757813 448.421875 L 173.15625 448.464844 L 180.570313 447.503906 L 181.109375 445.632813 L 181.210938 443.15625 L 182.519531 440.25 L 190.867188 432.195313 L 195.792969 425.3125 L 197.929688 424.472656 L 198.285156 423.78125 L 198.070313 423.238281 L 197.8125 423.082031 L 196.09375 424.355469 L 192.90625 427.300781 L 190.570313 429.988281 L 189.222656 431.449219 L 185.628906 432.957031 L 183.714844 433.246094 L 182.441406 433.0625 L 178.394531 435.230469 L 177.398438 436.808594 L 177.039063 438.671875 L 176.445313 439.273438 L 174.058594 439.917969 L 170.558594 439.851563 L 166.820313 439 L 166.347656 438.652344 L 161.371094 433.375 L 159.03125 429.199219 L 155.65625 429.589844 L 154.347656 430.144531 L 154.25 430.019531 L 151.949219 428.261719 L 152.765625 427.832031 L 153.085938 427.097656 L 152.808594 426.597656 L 148.90625 426.492188 L 147.214844 425.78125 L 146.554688 425.722656 L 143.210938 423.710938 L 139.503906 423.714844 L 136.765625 424.277344 L 136.292969 426.515625 L 135.777344 427.203125 L 133.742188 427.917969 L 132.394531 427.265625 L 131.683594 427.445313 L 130.492188 426.410156 L 129.042969 425.707031 L 131.792969 424.328125 L 131.226563 422.867188 L 130.640625 424.257813 L 127.769531 424.613281 L 122.949219 424.152344 L 121.496094 423.164063 L 124.125 421.78125 L 125.167969 421.753906 L 125.464844 421.238281 L 124.929688 417.953125 L 123.328125 417.210938 L 121.445313 417.105469 L 121.578125 416.691406 L 123.398438 416.359375 L 125.40625 415.582031 L 127.335938 414.363281 L 128.90625 412.890625 L 132.785156 413.558594 L 136.660156 412.890625 L 138.507813 416.246094 L 141.234375 418.746094 L 143.273438 419.816406 L 145.613281 420.488281 L 149.917969 420.804688 L 152.167969 420.644531 L 153.441406 423.441406 L 155.492188 425.890625 L 157.792969 427.515625 L 161.539063 429.175781 L 164.394531 429.878906 L 167.335938 429.847656 L 169.816406 429.21875 L 173.796875 427.453125 L 176.96875 424.882813 L 179.058594 421.375 L 179.964844 417.152344 L 179.835938 414.992188 L 179.308594 412.890625 L 181.386719 411.273438 L 183.183594 409.015625 L 185.175781 407.484375 L 187.0625 405.136719 L 189.378906 403.109375 L 190.910156 400.890625 L 191.886719 398.375 L 192.246094 394.804688 L 191.496094 391.292969 L 189.710938 388.175781 L 187.0625 385.753906 L 187.0625 381.875 L 187.875 377.898438 L 187.390625 374.246094 L 191.046875 374.792969 L 194.816406 374.125 L 194 378.136719 L 194.585938 382.066406 L 196.460938 385.566406 L 199.511719 388.300781 L 202.074219 389.484375 L 205.554688 390.261719 L 208.476563 390.117188 L 211.390625 389.195313 L 213.472656 387.941406 L 215.332031 386.183594 L 216.703125 384.175781 L 217.660156 381.804688 L 218.742188 374.125 L 217.6875 366.527344 L 221.707031 367.1875 L 225.832031 366.371094 L 229.316406 368.519531 L 233.199219 369.324219 L 236.757813 368.890625 L 240.015625 367.390625 L 241.890625 365.847656 L 243.398438 363.96875 L 244.65625 361.34375 L 245.214844 358.617188 L 247.0625 356.675781 L 248.417969 354.367188 L 249.363281 350.667969 L 249.09375 346.984375 Z M 232.859375 471.5625 L 231.871094 472.320313 L 230.464844 474.011719 L 229.960938 474.269531 L 228.117188 474.644531 L 222.296875 470.886719 L 220.207031 471.1875 L 221.476563 469.683594 L 227.316406 466.367188 L 232.550781 467.761719 L 234.171875 469.894531 Z M 231.792969 300.222656 L 234.863281 302.800781 L 232.136719 303.285156 L 229.707031 304.339844 L 230.371094 300.472656 L 230.203125 299.484375 Z M 215.300781 283.097656 L 215.296875 281.261719 L 216.472656 283.207031 L 218.003906 284.890625 Z M 202.570313 354.738281 L 205.445313 355.675781 L 208.464844 355.839844 L 210.324219 358.617188 L 207.445313 357.675781 L 204.425781 357.511719 Z M 189.109375 325.21875 L 192.121094 324.820313 L 194.816406 323.722656 L 196.523438 325.894531 L 198.691406 327.601563 L 196.761719 329.648438 L 195.382813 332.097656 L 194.628906 334.808594 L 194.539063 337.492188 L 193.203125 334.207031 L 190.9375 331.476563 L 190.472656 328.21875 Z M 183.183594 292.707031 L 190.9375 292.707031 L 192.125 293.058594 L 189.304688 294.515625 L 187.0625 296.585938 L 183.183594 296.585938 Z M 177.890625 363.167969 L 179.308594 362.492188 L 179.78125 366.507813 L 179.308594 366.371094 Z M 153.15625 358.492188 L 154.621094 357.980469 L 154.265625 358.539063 Z M 162.207031 357.363281 L 163.800781 358.617188 L 160.050781 357.949219 L 158.859375 358.148438 L 160.492188 357.457031 Z M 137.765625 323.097656 L 140.242188 321.691406 L 140.375 322.613281 L 139.824219 322.464844 L 137.933594 323.433594 Z M 286.679688 439.636719 L 283.058594 438.976563 L 282.164063 437.605469 L 282.484375 436.070313 L 286.839844 437.054688 L 287.960938 438.832031 Z M 236.835938 466.113281 L 235.136719 465.644531 L 236.523438 463.683594 L 237.195313 464.164063 L 237.5 465.839844 Z M 88.429688 500.046875 L 88.566406 499.308594 L 88.941406 499.117188 L 89.34375 499.789063 Z M 88.429688 500.046875 "/>
<path style=" stroke:none;fill-rule:nonzero;fill:rgb(80.392157%,58.431373%,4.705882%);fill-opacity:1;" d="M 223.890625 339.230469 L 223.609375 341.027344 L 222.78125 342.648438 L 221.496094 343.933594 L 219.875 344.761719 L 218.078125 345.046875 L 216.28125 344.761719 L 214.660156 343.933594 L 213.371094 342.648438 L 212.546875 341.027344 L 212.261719 339.230469 L 212.546875 337.433594 L 213.371094 335.8125 L 214.660156 334.527344 L 216.28125 333.699219 L 218.078125 333.414063 L 219.875 333.699219 L 221.496094 334.527344 L 222.78125 335.8125 L 223.609375 337.433594 Z M 223.890625 339.230469 "/>
<path style=" stroke:none;fill-rule:nonzero;fill:rgb(80.392157%,58.431373%,4.705882%);fill-opacity:1;" d="M 227.769531 319.847656 L 227.484375 321.644531 L 226.660156 323.265625 L 225.371094 324.550781 L 223.75 325.375 L 221.953125 325.660156 L 220.15625 325.375 L 218.535156 324.550781 L 217.25 323.265625 L 216.421875 321.644531 L 216.136719 319.847656 L 216.421875 318.050781 L 217.25 316.429688 L 218.535156 315.140625 L 220.15625 314.316406 L 221.953125 314.03125 L 223.75 314.316406 L 225.371094 315.140625 L 226.660156 316.429688 L 227.484375 318.050781 Z M 227.769531 319.847656 "/>
<path style=" stroke:none;fill-rule:nonzero;fill:rgb(80.392157%,58.431373%,4.705882%);fill-opacity:1;" d="M 204.507813 257.816406 L 204.222656 259.613281 L 203.398438 261.234375 L 202.109375 262.519531 L 200.488281 263.347656 L 198.691406 263.628906 L 196.894531 263.347656 L 195.273438 262.519531 L 193.988281 261.234375 L 193.160156 259.613281 L 192.875 257.816406 L 193.160156 256.019531 L 193.988281 254.398438 L 195.273438 253.109375 L 196.894531 252.285156 L 198.691406 252 L 200.488281 252.285156 L 202.109375 253.109375 L 203.398438 254.398438 L 204.222656 256.019531 Z M 204.507813 257.816406 "/>
<path style=" stroke:none;fill-rule:nonzero;fill:rgb(80.392157%,58.431373%,4.705882%);fill-opacity:1;" d="M 169.617188 269.445313 L 169.332031 271.242188 L 168.503906 272.863281 L 167.21875 274.152344 L 165.597656 274.976563 L 163.800781 275.261719 L 162.003906 274.976563 L 160.382813 274.152344 L 159.09375 272.863281 L 158.269531 271.242188 L 157.984375 269.445313 L 158.269531 267.648438 L 159.09375 266.027344 L 160.382813 264.742188 L 162.003906 263.914063 L 163.800781 263.628906 L 165.597656 263.914063 L 167.21875 264.742188 L 168.503906 266.027344 L 169.332031 267.648438 Z M 169.617188 269.445313 "/>
<path style=" stroke:none;fill-rule:nonzero;fill:rgb(80.392157%,58.431373%,4.705882%);fill-opacity:1;" d="M 165.738281 242.308594 L 165.453125 244.105469 L 164.628906 245.726563 L 163.339844 247.011719 L 161.71875 247.839844 L 159.921875 248.125 L 158.125 247.839844 L 156.503906 247.011719 L 155.21875 245.726563 L 154.390625 244.105469 L 154.109375 242.308594 L 154.390625 240.511719 L 155.21875 238.890625 L 156.503906 237.601563 L 158.125 236.777344 L 159.921875 236.492188 L 161.71875 236.777344 L 163.339844 237.601563 L 164.628906 238.890625 L 165.453125 240.511719 Z M 165.738281 242.308594 "/>
<path style=" stroke:none;fill-rule:nonzero;fill:rgb(80.392157%,58.431373%,4.705882%);fill-opacity:1;" d="M 196.753906 257.816406 L 196.46875 259.613281 L 195.644531 261.234375 L 194.355469 262.519531 L 192.734375 263.347656 L 190.9375 263.628906 L 189.140625 263.347656 L 187.519531 262.519531 L 186.234375 261.234375 L 185.40625 259.613281 L 185.125 257.816406 L 185.40625 256.019531 L 186.234375 254.398438 L 187.519531 253.109375 L 189.140625 252.285156 L 190.9375 252 L 192.734375 252.285156 L 194.355469 253.109375 L 195.644531 254.398438 L 196.46875 256.019531 Z M 196.753906 257.816406 "/>
<path style=" stroke:none;fill-rule:nonzero;fill:rgb(80.392157%,58.431373%,4.705882%);fill-opacity:1;" d="M 165.738281 222.921875 L 165.453125 224.71875 L 164.628906 226.339844 L 163.339844 227.628906 L 161.71875 228.453125 L 159.921875 228.738281 L 158.125 228.453125 L 156.503906 227.628906 L 155.21875 226.339844 L 154.390625 224.71875 L 154.109375 222.921875 L 154.390625 221.125 L 155.21875 219.503906 L 156.503906 218.21875 L 158.125 217.390625 L 159.921875 217.109375 L 161.71875 217.390625 L 163.339844 218.21875 L 164.628906 219.503906 L 165.453125 221.125 Z M 165.738281 222.921875 "/>
<path style=" stroke:none;fill-rule:nonzero;fill:rgb(80.392157%,58.431373%,4.705882%);fill-opacity:1;" d="M 204.507813 292.707031 L 204.222656 294.503906 L 203.398438 296.125 L 202.109375 297.414063 L 200.488281 298.238281 L 198.691406 298.523438 L 196.894531 298.238281 L 195.273438 297.414063 L 193.988281 296.125 L 193.160156 294.503906 L 192.875 292.707031 L 193.160156 290.910156 L 193.988281 289.289063 L 195.273438 288.003906 L 196.894531 287.175781 L 198.691406 286.890625 L 200.488281 287.175781 L 202.109375 288.003906 L 203.398438 289.289063 L 204.222656 290.910156 Z M 204.507813 292.707031 "/>
<path style=" stroke:none;fill-rule:nonzero;fill:rgb(80.392157%,58.431373%,4.705882%);fill-opacity:1;" d="M 254.90625 335.355469 L 254.625 337.152344 L 253.773438 338.796875 L 252.601563 338.082031 L 245.550781 339.511719 L 244.3125 338.625 L 243.5625 337.152344 L 243.277344 335.355469 L 243.5625 333.558594 L 244.386719 331.9375 L 245.675781 330.648438 L 247.296875 329.824219 L 249.09375 329.539063 L 250.890625 329.824219 L 252.511719 330.648438 L 253.796875 331.9375 L 254.625 333.558594 Z M 252.59375 339.972656 L 250.890625 340.882813 L 249.09375 341.167969 L 247.296875 340.882813 L 246.328125 340.394531 L 249.617188 339.34375 L 251.976563 339.082031 Z M 252.59375 339.972656 "/>
<path style=" stroke:none;fill-rule:nonzero;fill:rgb(80.392157%,58.431373%,4.705882%);fill-opacity:1;" d="M 161.863281 381.875 L 161.578125 383.675781 L 160.75 385.296875 L 159.464844 386.582031 L 157.84375 387.40625 L 156.046875 387.691406 L 154.25 387.40625 L 152.574219 386.527344 L 153.179688 384.597656 L 154.652344 381.796875 L 152.269531 378.203125 L 152.363281 377.4375 L 154.25 376.347656 L 156.046875 376.0625 L 157.84375 376.347656 L 159.464844 377.171875 L 160.75 378.457031 L 161.578125 380.078125 Z M 161.863281 381.875 "/>
<path style=" stroke:none;fill-rule:nonzero;fill:rgb(80.392157%,58.431373%,4.705882%);fill-opacity:1;" d="M 185.125 319.847656 L 184.742188 320.527344 L 179.199219 323.441406 L 177.335938 322.691406 L 174.1875 317.242188 L 175.890625 315.140625 L 177.511719 314.316406 L 179.308594 314.03125 L 181.105469 314.316406 L 182.726563 315.140625 L 184.011719 316.429688 L 184.839844 318.050781 Z M 185.125 319.847656 "/>
<path style=" stroke:none;fill-rule:nonzero;fill:rgb(80.392157%,58.431373%,4.705882%);fill-opacity:1;" d="M 185.125 242.308594 L 184.839844 244.105469 L 184.011719 245.726563 L 182.726563 247.011719 L 181.105469 247.839844 L 179.308594 248.125 L 177.511719 247.839844 L 175.890625 247.011719 L 174.601563 245.726563 L 173.777344 244.105469 L 173.492188 242.308594 L 173.679688 241.125 L 178.0625 241.875 L 182.921875 243.167969 Z M 174.125 239.832031 L 174.601563 238.890625 L 175.890625 237.601563 L 177.511719 236.777344 L 179.308594 236.492188 L 180.691406 236.710938 L 180.578125 237.003906 L 174.761719 240.109375 Z M 174.125 239.832031 "/>
<path style=" stroke:none;fill-rule:nonzero;fill:rgb(80.392157%,58.431373%,4.705882%);fill-opacity:1;" d="M 150.09375 312.957031 L 149.945313 313.890625 L 149.121094 315.511719 L 147.832031 316.796875 L 146.210938 317.625 L 144.414063 317.90625 L 142.617188 317.625 L 140.4375 316.238281 L 142.300781 315.023438 L 144.765625 310.230469 L 145.863281 309.40625 L 148.800781 308.355469 L 149.148438 308.730469 Z M 150.09375 312.957031 "/>
<path style=" stroke:none;fill-rule:nonzero;fill:rgb(80.392157%,58.431373%,4.705882%);fill-opacity:1;" d="M 245.886719 307.914063 L 244.757813 309.042969 L 243.136719 309.871094 L 241.339844 310.152344 L 239.542969 309.871094 L 237.921875 309.042969 L 236.632813 307.757813 L 235.808594 306.136719 L 235.523438 304.339844 L 235.992188 302.183594 L 244.476563 306.140625 Z M 245.886719 307.914063 "/>
<path style=" stroke:none;fill-rule:nonzero;fill:rgb(80.392157%,58.431373%,4.705882%);fill-opacity:1;" d="M 181.246094 319.847656 L 180.960938 321.644531 L 180.355469 322.832031 L 179.199219 323.441406 L 177.335938 322.691406 L 172.816406 314.734375 L 175.429688 314.03125 L 177.226563 314.316406 L 178.847656 315.140625 L 180.136719 316.429688 L 180.960938 318.050781 Z M 181.246094 319.847656 "/>
<path style=" stroke:none;fill-rule:nonzero;fill:rgb(80.392157%,58.431373%,4.705882%);fill-opacity:1;" d="M 117.570313 259.800781 L 119.074219 260.039063 L 120.695313 260.863281 L 121.660156 261.828125 L 121.183594 263.964844 L 122.0625 266.289063 L 120.679688 268.164063 L 119.945313 268.597656 L 116.058594 268.992188 L 115.222656 268.382813 L 115.277344 264.699219 L 117.226563 262.640625 Z M 117.570313 259.800781 "/>
<path style=" stroke:none;fill-rule:nonzero;fill:rgb(80.392157%,58.431373%,4.705882%);fill-opacity:1;" d="M 157.984375 393.507813 L 157.699219 395.304688 L 156.875 396.925781 L 155.585938 398.210938 L 153.964844 399.039063 L 151.375 399.199219 L 153.054688 396.195313 L 154.199219 391.746094 L 153.734375 388.820313 L 153.246094 387.863281 L 155.585938 388.804688 L 156.875 390.089844 L 157.699219 391.710938 Z M 157.984375 393.507813 "/>
</g>
</svg>
