<?xml version="1.0" encoding="UTF-8"?>
<svg xmlns="http://www.w3.org/2000/svg" xmlns:xlink="http://www.w3.org/1999/xlink" width="378pt" height="504pt" viewBox="0 0 378 504" version="1.1">
<g id="data">
<rect x="0" y="0" width="378" height="504" style="fill:rgb(100%,100%,100%);fill-opacity:1;stroke:none;"/>
<path style=" stroke:none;fill-rule:nonzero;fill:rgb(100%,100%,100%);fill-opacity:1;" d="M 53.308594 504 L 324.691406 504 L 324.691406 0 L 53.308594 0 Z M 53.308594 504 "/>
<path style=" stroke:none;fill-rule:nonzero;fill:rgb(22.745098%,53.333333%,16.078431%);fill-opacity:1;" d="M 172.574219 365.523438 L 172.109375 363.800781 L 172.191406 362.011719 L 172.808594 360.335938 L 173.910156 358.929688 L 175.386719 357.917969 L 176.804688 357.242188 L 177.074219 357.164063 L 179.910156 359.441406 L 180.433594 358.429688 L 179.507813 356.753906 L 180.394531 356.78125 L 182.117188 357.402344 L 183.5625 358.527344 L 184.585938 360.050781 L 185.082031 361.8125 L 185.554688 365.832031 L 185.464844 367.734375 L 184.964844 368.992188 L 186.460938 368.503906 L 188.25 368.496094 L 190.964844 368.902344 L 193.796875 368.398438 L 195.679688 368.371094 L 197.472656 368.949219 L 198.988281 370.070313 L 200.0625 371.621094 L 200.589844 373.429688 L 200.507813 375.3125 L 199.90625 378.195313 L 200.195313 380.226563 L 201.105469 381.921875 L 202.742188 383.386719 L 203.949219 383.945313 L 206.054688 384.414063 L 207.4375 384.347656 L 208.980469 383.859375 L 209.9375 383.28125 L 210.882813 382.386719 L 211.546875 381.414063 L 212.003906 380.289063 L 212.871094 374.117188 L 211.925781 367.328125 L 211.957031 365.523438 L 212.496094 363.949219 L 212.0625 364.164063 L 210.289063 364.429688 L 208.519531 364.144531 L 206.371094 363.441406 L 204.109375 363.320313 L 202.359375 362.949219 L 200.804688 362.0625 L 199.59375 360.746094 L 197.734375 357.972656 L 196.980469 356.347656 L 196.757813 354.566406 L 197.085938 352.804688 L 197.933594 351.226563 L 199.222656 349.984375 L 200.828125 349.1875 L 202.601563 348.921875 L 204.371094 349.210938 L 206.523438 349.910156 L 208.78125 350.035156 L 210.53125 350.40625 L 212.089844 351.289063 L 213.300781 352.605469 L 215.15625 355.382813 L 215.910156 357.007813 L 216.136719 358.785156 L 215.808594 360.546875 L 215.453125 361.210938 L 216.816406 360.777344 L 218.625 360.789063 L 221.609375 361.277344 L 224.699219 360.664063 L 226.878906 360.648438 L 228.910156 361.4375 L 231.410156 362.996094 L 233.460938 363.433594 L 235.152344 363.226563 L 236.902344 362.421875 L 237.730469 361.738281 L 238.453125 360.835938 L 239.074219 359.566406 L 239.523438 357.417969 L 240.070313 355.90625 L 241.007813 354.601563 L 242.390625 353.152344 L 242.988281 352.128906 L 243.496094 350.148438 L 243.292969 347.414063 L 243.371094 345.949219 L 243.8125 344.546875 L 244.699219 342.628906 L 245.625 341.207031 L 246.757813 340.257813 L 249.617188 339.34375 L 250.269531 339.273438 L 251.832031 339.554688 L 252.558594 339.921875 L 254.382813 342.558594 L 260.535156 347.621094 L 263.042969 349.058594 L 263.664063 349.039063 L 266.046875 352.214844 L 266.226563 352.652344 L 265.605469 354.023438 L 264.472656 355.304688 L 262.703125 356.800781 L 261.875 357.988281 L 261.371094 359.34375 L 261.222656 360.863281 L 261.519531 362.535156 L 262.609375 364.972656 L 263.484375 366.191406 L 264.539063 367.082031 L 266.3125 367.855469 L 264.953125 369.09375 L 261.394531 373.164063 L 260.601563 374.816406 L 262.84375 374.3125 L 264.9375 375.519531 L 266.9375 378.226563 L 270.21875 378.804688 L 270.625 378.746094 L 271.910156 376.796875 L 272.234375 374.960938 L 273.40625 371.914063 L 274.707031 370.632813 L 277.851563 370.085938 L 283.34375 370.234375 L 284.253906 370.867188 L 286.703125 370.742188 L 293.949219 371.515625 L 296.914063 372.84375 L 304.070313 378.085938 L 305.367188 380.105469 L 306.730469 384.164063 L 307.179688 391.25 L 306.777344 393.191406 L 306.890625 393.976563 L 305.789063 396.917969 L 303.519531 407.832031 L 297.144531 414.53125 L 295.578125 412.011719 L 292.742188 410.515625 L 292.480469 410.636719 L 293.898438 413.703125 L 295.890625 416.628906 L 296.3125 416.765625 L 296.164063 417.742188 L 294.574219 419.804688 L 292.191406 421.289063 L 290.003906 421.65625 L 289.660156 421.574219 L 288.214844 419.332031 L 284.976563 421.730469 L 280.71875 424.230469 L 282.339844 425.378906 L 285.105469 424.398438 L 286.097656 423.375 L 286.894531 423.164063 L 287.328125 423.710938 L 287.632813 428.84375 L 285.6875 430.875 L 283.441406 432.558594 L 282.84375 432.699219 L 279.644531 432.160156 L 274.75 433.78125 L 272.609375 436.117188 L 274.253906 436.015625 L 275.152344 434.667969 L 276.683594 434.363281 L 278.285156 434.328125 L 281.054688 434.949219 L 281.828125 435.589844 L 281.691406 436.328125 L 279.554688 436.347656 L 277.390625 437.65625 L 277.96875 438.546875 L 281.382813 438.964844 L 286.863281 440.339844 L 289.394531 439.9375 L 291.074219 438.957031 L 299.742188 437.757813 L 300.988281 440.148438 L 300.773438 446.324219 L 300.335938 447.820313 L 299.394531 449.050781 L 296.972656 450.242188 L 295.839844 450.375 L 292.621094 451.640625 L 291.179688 452.742188 L 289.847656 454.226563 L 289.460938 455.09375 L 289.214844 456.324219 L 289.464844 457.886719 L 286.253906 458.289063 L 284.1875 457.9375 L 281.042969 460.90625 L 278.484375 461.933594 L 274.789063 462.777344 L 272.597656 463.816406 L 270.539063 466.589844 L 269.761719 466.949219 L 259.269531 463.777344 L 256.070313 463.507813 L 244.628906 465.699219 L 242.703125 466.390625 L 242.113281 466.964844 L 241.902344 467.984375 L 241.359375 468.164063 L 238.210938 466.1875 L 238.632813 465.4375 L 239.46875 464.933594 L 237.714844 463.296875 L 231.496094 463.171875 L 231.378906 463.496094 L 232.574219 464.835938 L 232.214844 465.75 L 231.738281 466.042969 L 226.691406 465.496094 L 219.566406 468.449219 L 217.054688 467.824219 L 210.222656 468.96875 L 208.164063 468.875 L 207.273438 468.058594 L 206.238281 469.769531 L 209.429688 471.089844 L 209.714844 470.9375 L 210.1875 472.128906 L 209.566406 473.890625 L 206.84375 474.453125 L 204.453125 473.097656 L 203.015625 472.699219 L 197.625 472.007813 L 196.175781 472.65625 L 195.679688 473.863281 L 195.832031 474.871094 L 196.757813 475.523438 L 196.488281 476.304688 L 195.917969 475.996094 L 194.851563 473.972656 L 190.289063 470.589844 L 185.898438 468.519531 L 183.121094 467.984375 L 181.648438 469.066406 L 176.207031 469.78125 L 174.339844 470.335938 L 168.992188 473.234375 L 168.214844 474.070313 L 167.203125 476.179688 L 162.746094 489.226563 L 160.929688 490.242188 L 158.269531 489.722656 L 157.554688 489.058594 L 156.527344 486.851563 L 154.683594 485.4375 L 153.613281 485.542969 L 152.417969 486.300781 L 151.738281 486.164063 L 148.46875 482.535156 L 142.796875 482.960938 L 141.527344 483.375 L 140.734375 484.175781 L 139.910156 484.507813 L 134.507813 484.320313 L 132.167969 484.859375 L 129.414063 488.195313 L 126.714844 489.746094 L 124.039063 490.597656 L 123.132813 494.289063 L 123.664063 495.292969 L 123.496094 496.125 L 122.722656 496.945313 L 120.660156 497.648438 L 120.503906 497.96875 L 120.421875 497.992188 L 118.554688 497.917969 L 117.972656 497.695313 L 117.96875 497.691406 L 118.09375 496.4375 L 117.15625 494.691406 L 115.984375 493.691406 L 113.960938 492.8125 L 113.921875 492.660156 L 114.082031 490.796875 L 114.828125 489.078125 L 115.785156 487.585938 L 118.144531 485.910156 L 121.425781 483.085938 L 124.375 479.769531 L 125.210938 477.886719 L 124.875 476.421875 L 125.640625 474.519531 L 128.386719 473.238281 L 132.105469 472.640625 L 132.679688 471.785156 L 133.257813 469.527344 L 135.859375 467.5625 L 138.636719 464.640625 L 139.128906 458.542969 L 139.796875 454.753906 L 142.492188 455.105469 L 144.269531 456.015625 L 145.761719 455.429688 L 148.429688 452.488281 L 148.105469 447.519531 L 151.105469 446.613281 L 157.421875 446.269531 L 159.910156 445.683594 L 164.597656 446.761719 L 166.046875 446.148438 L 167.527344 446.515625 L 169.484375 447.285156 L 170.039063 448.109375 L 170.757813 448.421875 L 173.15625 448.464844 L 180.570313 447.503906 L 181.109375 445.632813 L 181.210938 443.15625 L 182.519531 440.25 L 190.867188 432.195313 L 195.792969 425.3125 L 197.929688 424.472656 L 198.285156 423.78125 L 198.070313 423.238281 L 197.8125 423.082031 L 196.09375 424.355469 L 192.90625 427.300781 L 190.570313 429.988281 L 189.222656 431.449219 L 185.628906 432.957031 L 183.714844 433.246094 L 182.441406 433.0625 L 178.394531 435.230469 L 177.398438 436.808594 L 177.039063 438.671875 L 176.445313 439.273438 L 174.058594 439.917969 L 170.558594 439.851563 L 166.820313 439 L 166.347656 438.652344 L 161.371094 433.375 L 159.03125 429.199219 L 155.65625 429.589844 L 149.269531 432.308594 L 149.113281 432.746094 L 147.203125 431.632813 L 146.917969 429.308594 L 148.539063 428.378906 L 150.066406 428.890625 L 151.640625 428.421875 L 152.765625 427.832031 L 153.085938 427.097656 L 152.808594 426.597656 L 147.785156 426.460938 L 143.210938 423.710938 L 139.503906 423.714844 L 136.765625 424.277344 L 136.292969 426.515625 L 135.777344 427.203125 L 133.742188 427.917969 L 132.394531 427.265625 L 131.648438 427.453125 L 129.4375 429.378906 L 126.53125 428.132813 L 127.425781 426.082031 L 128.796875 425.832031 L 131.792969 424.328125 L 131.226563 422.867188 L 130.640625 424.257813 L 127.769531 424.613281 L 122.949219 424.152344 L 121.496094 423.164063 L 124.125 421.78125 L 125.167969 421.753906 L 125.464844 421.238281 L 124.929688 417.953125 L 123.328125 417.210938 L 121.445313 417.105469 L 122.0625 415.152344 L 125.933594 413.378906 L 126.539063 411.90625 L 133.074219 411.34375 L 134.871094 409.289063 L 135.753906 407.632813 L 136.574219 407.148438 L 137.46875 407.132813 L 139.183594 407.652344 L 140.660156 408.667969 L 141.753906 410.085938 L 143.140625 412.605469 L 144.597656 413.9375 L 145.539063 414.425781 L 146.621094 414.730469 L 149.925781 414.972656 L 151.761719 414.84375 L 153.507813 414.988281 L 155.128906 415.640625 L 156.484375 416.75 L 157.449219 418.210938 L 158.457031 420.394531 L 159.453125 421.566406 L 160.675781 422.429688 L 163.429688 423.652344 L 165.074219 424.058594 L 166.578125 424.039063 L 167.910156 423.703125 L 170.734375 422.449219 L 172.503906 421.015625 L 173.574219 419.21875 L 174.113281 416.707031 L 174.0625 415.882813 L 173.667969 414.3125 L 173.496094 412.644531 L 173.808594 411 L 174.578125 409.511719 L 175.738281 408.300781 L 177.269531 407.109375 L 178.632813 405.394531 L 179.640625 404.40625 L 181.078125 403.296875 L 182.53125 401.496094 L 183.210938 400.78125 L 185.054688 399.148438 L 185.777344 398.078125 L 186.179688 397.023438 L 186.367188 395.128906 L 186 393.394531 L 185.117188 391.855469 L 183.136719 390.046875 L 182.113281 388.808594 L 181.46875 387.34375 L 181.246094 385.753906 L 181.246094 381.875 L 181.363281 380.710938 L 181.980469 377.695313 L 181.625 375.015625 L 181.664063 373.226563 L 182.164063 371.761719 L 181.886719 371.929688 L 180.023438 372.320313 L 178.132813 372.085938 L 177.660156 371.945313 L 176.140625 371.246094 L 174.882813 370.140625 L 173.992188 368.726563 Z M 223.980469 297.578125 L 223.957031 295.785156 L 224.480469 294.066406 L 225.503906 292.589844 L 225.558594 292.550781 L 225.945313 294.183594 L 229.304688 299.0625 L 240.417969 304.246094 L 240.160156 305.203125 L 239.117188 306.765625 L 237.628906 307.914063 L 235.851563 308.53125 L 233.917969 308.863281 L 231.996094 309.683594 L 230.273438 310.125 L 228.503906 310.027344 L 226.84375 309.398438 L 225.449219 308.296875 L 224.453125 306.828125 L 223.945313 305.128906 L 223.976563 303.351563 L 224.472656 300.464844 Z M 212.089844 287.945313 L 210.699219 286.652344 L 209.800781 284.984375 L 209.488281 283.113281 L 209.480469 281.277344 L 209.78125 279.421875 L 210.65625 277.753906 L 212.019531 276.457031 L 213.726563 275.664063 L 215.597656 275.457031 L 217.4375 275.855469 L 219.054688 276.824219 L 220.273438 278.253906 L 220.941406 279.363281 L 221.269531 280.457031 L 222.984375 284.039063 L 223.75 284.996094 L 223.671875 286.191406 L 222.96875 287.917969 L 221.757813 289.332031 L 220.160156 290.289063 L 218.339844 290.695313 L 216.488281 290.503906 L 214.792969 289.734375 Z M 187.769531 319.625 L 188.351563 319.453125 L 190.617188 319.152344 L 192.621094 318.339844 L 194.441406 317.917969 L 196.300781 318.101563 L 198.007813 318.863281 L 199.386719 320.128906 L 200.664063 321.75 L 202.289063 323.027344 L 203.582031 324.449219 L 204.339844 326.214844 L 204.484375 328.132813 L 203.992188 329.992188 L 202.925781 331.589844 L 201.480469 333.121094 L 200.789063 334.351563 L 200.433594 335.601563 L 200.351563 337.71875 L 200.019531 339.4375 L 199.191406 340.976563 L 197.945313 342.203125 L 196.390625 343.003906 L 194.671875 343.304688 L 192.9375 343.082031 L 191.347656 342.351563 L 190.046875 341.183594 L 189.152344 339.683594 L 188.152344 337.230469 L 186.460938 335.191406 L 185.621094 333.832031 L 185.183594 332.300781 L 184.832031 329.863281 L 184.554688 329.253906 L 184.695313 329.191406 L 187.28125 323.421875 L 187.71875 320.933594 Z M 177.371094 292.707031 L 177.652344 290.910156 L 178.480469 289.289063 L 179.765625 288.003906 L 181.386719 287.175781 L 183.183594 286.890625 L 190.9375 286.890625 L 192.582031 287.128906 L 193.769531 287.480469 L 195.332031 288.207031 L 196.613281 289.355469 L 197.5 290.832031 L 197.914063 292.503906 L 197.824219 294.226563 L 197.230469 295.84375 L 196.191406 297.214844 L 194.792969 298.222656 L 192.671875 299.320313 L 191.003906 300.859375 L 189.179688 302 L 187.0625 302.398438 L 183.183594 302.398438 L 181.386719 302.117188 L 179.765625 301.289063 L 178.480469 300.003906 L 177.652344 298.382813 L 177.371094 296.585938 Z M 152.910156 364.300781 L 151.164063 363.953125 L 149.609375 363.097656 L 149.429688 362.910156 L 151.550781 360.582031 L 153.09375 359.609375 L 154.941406 359.808594 L 160.492188 357.457031 L 163.644531 357.28125 L 167.339844 357.714844 L 169.257813 356.789063 L 169.445313 357.222656 L 169.59375 359.136719 L 169.109375 360.992188 L 168.046875 362.589844 L 166.523438 363.753906 L 164.703125 364.359375 L 162.785156 364.339844 L 160.019531 363.851563 L 157 364.351563 L 155.796875 364.425781 Z M 149.0625 362.523438 L 148.382813 361.808594 L 147.601563 360.210938 L 147.34375 358.453125 L 147.625 356.699219 L 148.425781 355.113281 L 149.667969 353.839844 L 150.203125 353.554688 L 151.039063 355.578125 L 155.546875 356.503906 L 154.066406 358.859375 L 150.984375 360.816406 Z M 140.914063 315.929688 L 141.003906 315.925781 L 142.796875 316.46875 L 144.324219 317.550781 L 145.429688 319.066406 L 145.78125 320.175781 L 145.3125 320.636719 L 141.859375 323.019531 L 139.824219 322.464844 L 137.933594 323.433594 L 137.675781 322.921875 L 139.816406 316.644531 Z M 286.679688 439.636719 L 283.058594 438.976563 L 282.164063 437.605469 L 282.484375 436.070313 L 286.839844 437.054688 L 287.960938 438.832031 Z M 236.835938 466.113281 L 235.136719 465.644531 L 236.523438 463.683594 L 237.195313 464.164063 L 237.5 465.839844 Z M 228.117188 474.644531 L 222.296875 470.886719 L 220.207031 471.1875 L 221.476563 469.683594 L 227.316406 466.367188 L 232.550781 467.761719 L 234.171875 469.894531 L 231.242188 473.621094 L 229.960938 474.269531 Z M 88.429688 500.046875 L 88.566406 499.308594 L 88.941406 499.117188 L 89.34375 499.789063 Z M 88.429688 500.046875 "/>
<path style=" stroke:none;fill-rule:nonzero;fill:rgb(80.392157%,58.431373%,4.705882%);fill-opacity:1;" d="M 223.890625 339.230469 L 223.609375 341.027344 L 222.78125 342.648438 L 221.496094 343.933594 L 219.875 344.761719 L 218.078125 345.046875 L 216.28125 344.761719 L 214.660156 343.933594 L 213.371094 342.648438 L 212.546875 341.027344 L 212.261719 339.230469 L 212.546875 337.433594 L 213.371094 335.8125 L 214.660156 334.527344 L 216.28125 333.699219 L 218.078125 333.414063 L 219.875 333.699219 L 221.496094 334.527344 L 222.78125 335.8125 L 223.609375 337.433594 Z M 223.890625 339.230469 "/>
<path style=" stroke:none;fill-rule:nonzero;fill:rgb(80.392157%,58.431373%,4.705882%);fill-opacity:1;" d="M 227.769531 319.847656 L 227.484375 321.644531 L 226.660156 323.265625 L 225.371094 324.550781 L 223.75 325.375 L 221.953125 325.660156 L 220.15625 325.375 L 218.535156 324.550781 L 217.25 323.265625 L 216.421875 321.644531 L 216.136719 319.847656 L 216.421875 318.050781 L 217.25 316.429688 L 218.535156 315.140625 L 220.15625 314.316406 L 221.953125 314.03125 L 223.75 314.316406 L 225.371094 315.140625 L 226.660156 316.429688 L 227.484375 318.050781 Z M 227.769531 319.847656 "/>
<path style=" stroke:none;fill-rule:nonzero;fill:rgb(80.392157%,58.431373%,4.705882%);fill-opacity:1;" d="M 165.738281 222.921875 L 165.453125 224.71875 L 164.628906 226.339844 L 163.339844 227.628906 L 161.71875 228.453125 L 159.921875 228.738281 L 158.125 228.453125 L 156.503906 227.628906 L 155.21875 226.339844 L 154.390625 224.71875 L 154.109375 222.921875 L 154.390625 221.125 L 155.21875 219.503906 L 156.503906 218.21875 L 158.125 217.390625 L 159.921875 217.109375 L 161.71875 217.390625 L 163.339844 218.21875 L 164.628906 219.503906 L 165.453125 221.125 Z M 165.738281 222.921875 "/>
<path style=" stroke:none;fill-rule:nonzero;fill:rgb(80.392157%,58.431373%,4.705882%);fill-opacity:1;" d="M 165.738281 242.308594 L 165.453125 244.105469 L 164.628906 245.726563 L 163.339844 247.011719 L 161.71875 247.839844 L 159.921875 248.125 L 158.125 247.839844 L 156.503906 247.011719 L 155.21875 245.726563 L 154.390625 244.105469 L 154.109375 242.308594 L 154.390625 240.511719 L 155.21875 238.890625 L 156.503906 237.601563 L 158.125 236.777344 L 159.921875 236.492188 L 161.71875 236.777344 L 163.339844 237.601563 L 164.628906 238.890625 L 165.453125 240.511719 Z M 165.738281 242.308594 "/>
<path style=" stroke:none;fill-rule:nonzero;fill:rgb(80.392157%,58.431373%,4.705882%);fill-opacity:1;" d="M 196.753906 257.816406 L 196.46875 259.613281 L 195.644531 261.234375 L 194.355469 262.519531 L 192.734375 263.347656 L 190.9375 263.628906 L 189.140625 263.347656 L 187.519531 262.519531 L 186.234375 261.234375 L 185.40625 259.613281 L 185.125 257.816406 L 185.40625 256.019531 L 186.234375 254.398438 L 187.519531 253.109375 L 189.140625 252.285156 L 190.9375 252 L 192.734375 252.285156 L 194.355469 253.109375 L 195.644531 254.398438 L 196.46875 256.019531 Z M 196.753906 257.816406 "/>
<path style=" stroke:none;fill-rule:nonzero;fill:rgb(80.392157%,58.431373%,4.705882%);fill-opacity:1;" d="M 204.507813 257.816406 L 204.222656 259.613281 L 203.398438 261.234375 L 202.109375 262.519531 L 200.488281 263.347656 L 198.691406 263.628906 L 196.894531 263.347656 L 195.273438 262.519531 L 193.988281 261.234375 L 193.160156 259.613281 L 192.875 257.816406 L 193.160156 256.019531 L 193.988281 254.398438 L 195.273438 253.109375 L 196.894531 252.285156 L 198.691406 252 L 200.488281 252.285156 L 202.109375 253.109375 L 203.398438 254.398438 L 204.222656 256.019531 Z M 204.507813 257.816406 "/>
<path style=" stroke:none;fill-rule:nonzero;fill:rgb(80.392157%,58.431373%,4.705882%);fill-opacity:1;" d="M 169.617188 269.445313 L 169.332031 271.242188 L 168.503906 272.863281 L 167.21875 274.152344 L 165.597656 274.976563 L 163.800781 275.261719 L 162.003906 274.976563 L 160.382813 274.152344 L 159.09375 272.863281 L 158.269531 271.242188 L 157.984375 269.445313 L 158.269531 267.648438 L 159.09375 266.027344 L 160.382813 264.742188 L 162.003906 263.914063 L 163.800781 263.628906 L 165.597656 263.914063 L 167.21875 264.742188 L 168.503906 266.027344 L 169.332031 267.648438 Z M 169.617188 269.445313 "/>
<path style=" stroke:none;fill-rule:nonzero;fill:rgb(80.392157%,58.431373%,4.705882%);fill-opacity:1;" d="M 161.863281 381.875 L 161.578125 383.675781 L 160.75 385.296875 L 159.464844 386.582031 L 157.84375 387.40625 L 156.046875 387.691406 L 154.25 387.40625 L 152.628906 386.582031 L 152.574219 386.527344 L 153.179688 384.597656 L 154.652344 381.796875 L 152.269531 378.203125 L 152.363281 377.4375 L 152.628906 377.171875 L 154.25 376.347656 L 156.046875 376.0625 L 157.84375 376.347656 L 159.464844 377.171875 L 160.75 378.457031 L 161.578125 380.078125 Z M 161.863281 381.875 "/>
<path style=" stroke:none;fill-rule:nonzero;fill:rgb(80.392157%,58.431373%,4.705882%);fill-opacity:1;" d="M 185.125 319.847656 L 185.066406 320.210938 L 184.742188 320.527344 L 179.199219 323.441406 L 177.335938 322.691406 L 174.1875 317.242188 L 174.601563 316.429688 L 175.890625 315.140625 L 177.511719 314.316406 L 179.308594 314.03125 L 181.105469 314.316406 L 182.726563 315.140625 L 184.011719 316.429688 L 184.839844 318.050781 Z M 185.125 319.847656 "/>
<path style=" stroke:none;fill-rule:nonzero;fill:rgb(80.392157%,58.431373%,4.705882%);fill-opacity:1;" d="M 185.125 242.308594 L 184.839844 244.105469 L 184.011719 245.726563 L 182.726563 247.011719 L 181.105469 247.839844 L 179.308594 248.125 L 177.511719 247.839844 L 175.890625 247.011719 L 174.601563 245.726563 L 173.777344 244.105469 L 173.492188 242.308594 L 173.679688 241.125 L 178.0625 241.875 L 182.921875 243.167969 L 185.117188 242.261719 Z M 174.125 239.832031 L 174.601563 238.890625 L 175.890625 237.601563 L 177.511719 236.777344 L 179.308594 236.492188 L 180.691406 236.710938 L 180.578125 237.003906 L 174.761719 240.109375 Z M 174.125 239.832031 "/>
<path style=" stroke:none;fill-rule:nonzero;fill:rgb(80.392157%,58.431373%,4.705882%);fill-opacity:1;" d="M 181.246094 319.847656 L 180.960938 321.644531 L 180.355469 322.832031 L 179.199219 323.441406 L 177.335938 322.691406 L 172.851563 314.925781 L 172.816406 314.734375 L 173.632813 314.316406 L 175.429688 314.03125 L 177.226563 314.316406 L 178.847656 315.140625 L 180.136719 316.429688 L 180.960938 318.050781 Z M 181.246094 319.847656 "/>
<path style=" stroke:none;fill-rule:nonzero;fill:rgb(80.392157%,58.431373%,4.705882%);fill-opacity:1;" d="M 117.570313 259.800781 L 119.074219 260.039063 L 120.695313 260.863281 L 121.660156 261.828125 L 121.183594 263.964844 L 122.0625 266.289063 L 120.679688 268.164063 L 119.945313 268.597656 L 116.058594 268.992188 L 115.222656 268.382813 L 115.277344 264.699219 L 117.226563 262.640625 Z M 117.570313 259.800781 "/>
<path style=" stroke:none;fill-rule:nonzero;fill:rgb(80.392157%,58.431373%,4.705882%);fill-opacity:1;" d="M 157.984375 393.507813 L 157.699219 395.304688 L 156.875 396.925781 L 155.585938 398.210938 L 153.964844 399.039063 L 152.167969 399.324219 L 151.375 399.199219 L 152.136719 398.207031 L 153.054688 396.195313 L 154.199219 391.746094 L 153.734375 388.820313 L 153.246094 387.863281 L 153.964844 387.976563 L 155.585938 388.804688 L 156.875 390.089844 L 157.699219 391.710938 Z M 157.984375 393.507813 "/>
</g>
</svg>
