<?xml version="1.0" encoding="UTF-8"?>
<svg xmlns="http://www.w3.org/2000/svg" xmlns:xlink="http://www.w3.org/1999/xlink" width="378pt" height="504pt" viewBox="0 0 378 504" version="1.1">
<g id="data">
<rect x="0" y="0" width="378" height="504" style="fill:rgb(100%,100%,100%);fill-opacity:1;stroke:none;"/>
<path style=" stroke:none;fill-rule:nonzero;fill:rgb(100%,100%,100%);fill-opacity:1;" d="M 53.308594 504 L 324.691406 504 L 324.691406 0 L 53.308594 0 Z M 53.308594 504 "/>
<path style=" stroke:none;fill-rule:nonzero;fill:rgb(22.745098%,53.333333%,16.078431%);fill-opacity:1;" d="M 191.609375 428.417969 L 191.972656 428.378906 L 191.898438 428.464844 Z M 193.746094 428.171875 L 194.285156 428.109375 L 196.933594 427.128906 L 199.265625 425.542969 L 201.148438 423.441406 L 202.472656 420.949219 L 203.136719 418.339844 L 203.171875 415.519531 L 202.570313 412.890625 L 205.40625 414.0625 L 208.320313 414.449219 L 211.363281 414.0625 L 214.199219 412.890625 L 218.078125 413.558594 L 221.953125 412.890625 L 222.363281 415.136719 L 223.144531 417.144531 L 224.359375 419.074219 L 225.832031 420.644531 L 225.832031 424.523438 L 223.328125 425.527344 L 221.125 427.085938 L 219.339844 429.105469 L 218.066406 431.484375 L 217.460938 433.582031 L 217.257813 435.757813 L 217.464844 437.933594 L 218.078125 440.03125 L 214.472656 437.835938 L 210.324219 437.070313 L 206.171875 437.835938 L 202.570313 440.03125 L 202.339844 437.734375 L 201.710938 435.644531 L 200.703125 433.710938 L 199.351563 432 L 197.707031 430.570313 L 195.820313 429.476563 L 193.765625 428.75 L 193.375 428.6875 Z M 193.746094 428.171875 "/>
<path style=" stroke:none;fill-rule:nonzero;fill:rgb(80.392157%,58.431373%,4.705882%);fill-opacity:1;" d="M 196.753906 455.539063 L 196.46875 457.335938 L 195.644531 458.957031 L 194.355469 460.242188 L 192.734375 461.070313 L 190.9375 461.355469 L 189.140625 461.070313 L 187.519531 460.242188 L 186.234375 458.957031 L 185.40625 457.335938 L 185.125 455.539063 L 185.40625 453.742188 L 186.234375 452.121094 L 187.519531 450.832031 L 189.140625 450.007813 L 190.9375 449.722656 L 192.734375 450.007813 L 194.355469 450.832031 L 195.644531 452.121094 L 196.46875 453.742188 Z M 196.753906 455.539063 "/>
<path style=" stroke:none;fill-rule:nonzero;fill:rgb(80.392157%,58.431373%,4.705882%);fill-opacity:1;" d="M 301.066406 410.410156 L 299.949219 409.84375 L 298.664063 408.558594 L 297.839844 406.933594 L 297.554688 405.136719 L 297.839844 403.339844 L 298.664063 401.71875 L 299.949219 400.433594 L 301.570313 399.609375 L 303.371094 399.324219 L 305.167969 399.609375 L 303.519531 407.832031 Z M 301.066406 410.410156 "/>
<path style=" stroke:none;fill-rule:nonzero;fill:rgb(80.392157%,58.431373%,4.705882%);fill-opacity:1;" d="M 138.601563 145.382813 L 138.316406 147.183594 L 137.488281 148.804688 L 136.203125 150.089844 L 134.582031 150.914063 L 132.785156 151.199219 L 130.988281 150.914063 L 130.140625 150.484375 L 129.429688 149.296875 L 129.746094 148.554688 L 130.132813 148.371094 L 132.507813 149.96875 L 133.015625 149.894531 L 133.449219 149.351563 L 133.714844 146.386719 L 133.191406 146.265625 L 131.136719 142.199219 L 131.269531 141.472656 L 135.539063 142.054688 L 137.308594 141.785156 L 138.316406 143.585938 Z M 138.601563 145.382813 "/>
<path style=" stroke:none;fill-rule:nonzero;fill:rgb(80.392157%,58.431373%,4.705882%);fill-opacity:1;" d="M 106.976563 236.632813 L 105.476563 236.191406 L 106.28125 234.464844 L 107.839844 232.910156 L 108.882813 232.734375 L 107.535156 236.1875 Z M 106.976563 236.632813 "/>
</g>
</svg>
