<?xml version="1.0" encoding="UTF-8"?>
<svg xmlns="http://www.w3.org/2000/svg" xmlns:xlink="http://www.w3.org/1999/xlink" width="378pt" height="504pt" viewBox="0 0 378 504" version="1.1">
<g id="data">
<rect x="0" y="0" width="378" height="504" style="fill:rgb(100%,100%,100%);fill-opacity:1;stroke:none;"/>
<path style=" stroke:none;fill-rule:nonzero;fill:rgb(100%,100%,100%);fill-opacity:1;" d="M 53.308594 504 L 324.691406 504 L 324.691406 0 L 53.308594 0 Z M 53.308594 504 "/>
<path style=" stroke:none;fill-rule:nonzero;fill:rgb(22.745098%,53.333333%,16.078431%);fill-opacity:1;" d="M 190.730469 434.167969 L 189.300781 433.707031 L 190.867188 432.195313 L 195.792969 425.3125 L 197.929688 424.472656 L 198.285156 423.78125 L 198.070313 423.238281 L 197.8125 423.082031 L 196.09375 424.355469 L 192.90625 427.300781 L 190.570313 429.988281 L 189.222656 431.449219 L 187.296875 432.257813 L 186.402344 431.007813 L 185.855469 429.242188 L 185.886719 427.394531 L 186.5 425.648438 L 187.625 424.183594 L 189.15625 423.148438 L 190.9375 422.644531 L 192.921875 422.410156 L 194.253906 421.921875 L 195.410156 421.132813 L 196.355469 420.078125 L 196.972656 418.929688 L 197.332031 417.558594 L 197.347656 416.140625 L 196.902344 414.191406 L 196.777344 412.386719 L 197.210938 410.628906 L 198.167969 409.09375 L 199.546875 407.921875 L 201.222656 407.234375 L 203.027344 407.09375 L 204.789063 407.515625 L 206.921875 408.398438 L 208.335938 408.585938 L 209.859375 408.390625 L 211.980469 407.515625 L 213.558594 407.113281 L 215.183594 407.160156 L 218.078125 407.65625 L 220.96875 407.160156 L 222.785156 407.136719 L 224.519531 407.671875 L 226 408.714844 L 227.089844 410.167969 L 227.679688 411.882813 L 227.957031 413.457031 L 228.371094 414.53125 L 228.984375 415.503906 L 230.074219 416.671875 L 231.238281 418.507813 L 231.644531 420.644531 L 231.644531 424.523438 L 231.390625 426.226563 L 230.648438 427.777344 L 229.484375 429.046875 L 228 429.917969 L 226.128906 430.671875 L 225.035156 431.445313 L 224.148438 432.449219 L 223.484375 433.6875 L 223.199219 434.667969 L 223.097656 435.75 L 223.203125 436.832031 L 223.660156 438.40625 L 223.890625 440.128906 L 223.601563 441.84375 L 222.820313 443.394531 L 221.613281 444.648438 L 220.089844 445.488281 L 218.386719 445.839844 L 216.65625 445.667969 L 215.050781 444.996094 L 212.363281 443.359375 L 210.324219 442.984375 L 208.28125 443.359375 L 205.59375 444.996094 L 203.78125 445.71875 L 201.832031 445.800781 L 199.960938 445.230469 L 198.390625 444.074219 L 197.285156 442.460938 L 196.78125 440.574219 L 196.625 438.949219 L 196.324219 437.90625 L 195.832031 436.941406 L 195.171875 436.082031 L 194.371094 435.371094 L 193.355469 434.769531 L 192.347656 434.414063 Z M 190.730469 434.167969 "/>
<path style=" stroke:none;fill-rule:nonzero;fill:rgb(80.392157%,58.431373%,4.705882%);fill-opacity:1;" d="M 196.753906 455.539063 L 196.46875 457.335938 L 195.644531 458.957031 L 194.355469 460.242188 L 192.734375 461.070313 L 190.9375 461.355469 L 189.140625 461.070313 L 187.519531 460.242188 L 186.234375 458.957031 L 185.40625 457.335938 L 185.125 455.539063 L 185.40625 453.742188 L 186.234375 452.121094 L 187.519531 450.832031 L 189.140625 450.007813 L 190.9375 449.722656 L 192.734375 450.007813 L 194.355469 450.832031 L 195.644531 452.121094 L 196.46875 453.742188 Z M 196.753906 455.539063 "/>
<path style=" stroke:none;fill-rule:nonzero;fill:rgb(80.392157%,58.431373%,4.705882%);fill-opacity:1;" d="M 301.066406 410.410156 L 299.949219 409.84375 L 298.664063 408.558594 L 297.839844 406.933594 L 297.554688 405.136719 L 297.839844 403.339844 L 298.664063 401.71875 L 299.949219 400.433594 L 301.570313 399.609375 L 303.371094 399.324219 L 305.167969 399.609375 L 305.222656 399.636719 L 303.519531 407.832031 Z M 301.066406 410.410156 "/>
<path style=" stroke:none;fill-rule:nonzero;fill:rgb(80.392157%,58.431373%,4.705882%);fill-opacity:1;" d="M 138.601563 145.382813 L 138.316406 147.183594 L 137.488281 148.804688 L 136.203125 150.089844 L 134.582031 150.914063 L 132.785156 151.199219 L 130.988281 150.914063 L 130.140625 150.484375 L 129.429688 149.296875 L 129.746094 148.554688 L 130.132813 148.371094 L 132.507813 149.96875 L 133.015625 149.894531 L 133.449219 149.351563 L 133.714844 146.386719 L 133.191406 146.265625 L 131.136719 142.199219 L 131.269531 141.472656 L 135.539063 142.054688 L 137.308594 141.785156 L 137.488281 141.964844 L 138.316406 143.585938 Z M 138.601563 145.382813 "/>
<path style=" stroke:none;fill-rule:nonzero;fill:rgb(80.392157%,58.431373%,4.705882%);fill-opacity:1;" d="M 106.976563 236.632813 L 105.476563 236.191406 L 106.28125 234.464844 L 107.839844 232.910156 L 108.882813 232.734375 L 107.535156 236.1875 Z M 106.976563 236.632813 "/>
</g>
</svg>
