<?xml version="1.0" encoding="UTF-8"?>
<svg xmlns="http://www.w3.org/2000/svg" xmlns:xlink="http://www.w3.org/1999/xlink" width="378pt" height="504pt" viewBox="0 0 378 504" version="1.1">
<g id="data">
<rect x="0" y="0" width="378" height="504" style="fill:rgb(100%,100%,100%);fill-opacity:1;stroke:none;"/>
<path style=" stroke:none;fill-rule:nonzero;fill:rgb(100%,100%,100%);fill-opacity:1;" d="M 53.308594 504 L 324.691406 504 L 324.691406 0 L 53.308594 0 Z M 53.308594 504 "/>
<path style=" stroke:none;fill-rule:nonzero;fill:rgb(22.745098%,53.333333%,16.078431%);fill-opacity:1;" d="M 295.226563 405.296875 L 297.660156 405.871094 L 300.03125 405.917969 L 297.695313 407.171875 L 295.617188 409.015625 Z M 249.09375 432.277344 L 245.214844 432.277344 L 244.390625 430.125 L 243.238281 428.277344 L 241.664063 426.59375 L 239.789063 425.25 L 241.339844 424.523438 L 242.476563 427.097656 L 244.199219 429.324219 L 246.40625 431.074219 Z M 191.609375 428.417969 L 191.972656 428.375 L 191.898438 428.464844 Z M 193.753906 428.15625 L 194.410156 428.078125 L 196.933594 427.128906 L 199.167969 425.628906 L 201.074219 423.546875 L 202.425781 421.070313 L 203.136719 418.339844 L 203.171875 415.519531 L 202.570313 412.890625 L 205.40625 414.0625 L 208.320313 414.449219 L 211.363281 414.0625 L 214.199219 412.890625 L 218.078125 413.558594 L 221.953125 412.890625 L 222.554688 415.742188 L 223.910156 418.457031 L 227.332031 422.535156 L 229.839844 424.472656 L 227.097656 425.042969 L 224.675781 426.140625 L 222.566406 427.757813 L 220.855469 429.824219 L 219.65625 432.234375 L 219.054688 434.726563 L 219.027344 437.417969 L 219.621094 440.046875 L 218.078125 440.03125 L 216.097656 438.605469 L 213.867188 437.621094 L 210.324219 437.070313 L 206.171875 437.835938 L 202.570313 440.03125 L 202.363281 437.859375 L 201.757813 435.765625 L 200.773438 433.820313 L 199.441406 432.09375 L 197.707031 430.570313 L 195.820313 429.476563 L 193.765625 428.75 L 193.375 428.6875 Z M 193.753906 428.15625 "/>
</g>
</svg>
