<?xml version="1.0" encoding="UTF-8"?>
<svg xmlns="http://www.w3.org/2000/svg" xmlns:xlink="http://www.w3.org/1999/xlink" width="378pt" height="504pt" viewBox="0 0 378 504" version="1.1">
<g id="data">
<rect x="0" y="0" width="378" height="504" style="fill:rgb(100%,100%,100%);fill-opacity:1;stroke:none;"/>
<path style=" stroke:none;fill-rule:nonzero;fill:rgb(100%,100%,100%);fill-opacity:1;" d="M 53.308594 504 L 324.691406 504 L 324.691406 0 L 53.308594 0 Z M 53.308594 504 "/>
<path style=" stroke:none;fill-rule:nonzero;fill:rgb(22.745098%,53.333333%,16.078431%);fill-opacity:1;" d="M 260.664063 347.695313 L 260.429688 350.410156 L 261.152344 353.773438 L 262.601563 356.46875 L 264.601563 358.617188 L 264.859375 361.8125 L 265.917969 364.707031 L 267.195313 366.636719 L 267.410156 366.855469 L 264.953125 369.09375 L 261.394531 373.164063 L 260.601563 374.816406 L 262.84375 374.3125 L 264.9375 375.519531 L 266.9375 378.226563 L 270.21875 378.804688 L 270.625 378.746094 L 271.910156 376.796875 L 272.234375 374.960938 L 273.40625 371.914063 L 274.601563 370.734375 L 275.164063 370.871094 L 277.734375 370.816406 L 280.109375 370.246094 L 283.363281 370.246094 L 284.253906 370.867188 L 286.703125 370.742188 L 291.941406 371.300781 L 292.21875 372.734375 L 293.164063 374.945313 L 297.320313 380.171875 L 302.546875 384.328125 L 304.757813 385.273438 L 306.828125 385.671875 L 307.179688 391.25 L 306.777344 393.191406 L 306.890625 393.976563 L 305.789063 396.917969 L 305.164063 399.925781 L 304.558594 400.886719 L 303.742188 403.015625 L 303.371094 405.136719 L 301.5625 406.496094 L 299.492188 409.015625 L 297.234375 410.8125 L 295.863281 412.472656 L 295.578125 412.011719 L 292.742188 410.515625 L 292.480469 410.636719 L 293.898438 413.703125 L 294.328125 414.335938 L 293.625 415.1875 L 292.335938 417.796875 L 291.738281 420.644531 L 290.632813 421.550781 L 290.003906 421.65625 L 289.660156 421.574219 L 288.214844 419.332031 L 284.976563 421.730469 L 280.71875 424.230469 L 282.339844 425.378906 L 285.105469 424.398438 L 286.097656 423.375 L 286.894531 423.164063 L 287.328125 423.710938 L 287.453125 425.839844 L 287.398438 425.945313 L 286.742188 428.164063 L 286.6875 429.832031 L 285.6875 430.875 L 283.441406 432.558594 L 282.84375 432.699219 L 279.644531 432.160156 L 274.75 433.78125 L 272.609375 436.117188 L 274.253906 436.015625 L 275.152344 434.667969 L 276.683594 434.363281 L 278.285156 434.328125 L 281.054688 434.949219 L 281.828125 435.589844 L 281.691406 436.328125 L 279.554688 436.347656 L 277.390625 437.65625 L 277.96875 438.546875 L 281.382813 438.964844 L 286.863281 440.339844 L 289.394531 439.9375 L 290.742188 439.148438 L 291.738281 440.03125 L 292.148438 442.273438 L 292.925781 444.28125 L 294.140625 446.210938 L 295.617188 447.785156 L 292.859375 447.167969 L 290.035156 447.234375 L 287.308594 447.980469 L 284.84375 449.363281 L 282.785156 451.296875 L 281.199219 453.785156 L 280.289063 456.597656 L 280.109375 459.414063 L 278.128906 461.191406 L 275.796875 462.46875 L 272.355469 463.292969 L 260.722656 463.292969 L 258.5 462.746094 L 256.335938 462.636719 L 250.847656 463.667969 L 247.722656 465.042969 L 247.621094 465.125 L 244.628906 465.699219 L 242.703125 466.390625 L 242.113281 466.964844 L 242.085938 467.101563 L 240.457031 467.277344 L 240.121094 467.386719 L 238.210938 466.1875 L 238.632813 465.4375 L 239.46875 464.933594 L 237.714844 463.296875 L 231.496094 463.171875 L 231.378906 463.496094 L 232.574219 464.835938 L 232.214844 465.75 L 231.738281 466.042969 L 226.691406 465.496094 L 219.566406 468.449219 L 217.054688 467.824219 L 210.222656 468.96875 L 208.164063 468.875 L 207.273438 468.058594 L 206.238281 469.769531 L 209.429688 471.089844 L 209.714844 470.9375 L 210.1875 472.128906 L 209.566406 473.890625 L 208.867188 474.035156 L 206.71875 472.726563 L 202.570313 471.960938 L 200.394531 472.363281 L 197.625 472.007813 L 196.175781 472.65625 L 195.679688 473.863281 L 195.753906 474.351563 L 195.222656 474.675781 L 194.851563 473.972656 L 190.289063 470.589844 L 185.898438 468.519531 L 183.121094 467.984375 L 181.648438 469.066406 L 176.207031 469.78125 L 174.339844 470.335938 L 168.992188 473.234375 L 168.214844 474.070313 L 167.203125 476.179688 L 163.601563 486.714844 L 161.28125 488.625 L 160.175781 490.09375 L 158.269531 489.722656 L 157.554688 489.058594 L 156.527344 486.851563 L 154.683594 485.4375 L 153.613281 485.542969 L 152.417969 486.300781 L 151.738281 486.164063 L 148.46875 482.535156 L 142.796875 482.960938 L 142.449219 483.074219 L 139.414063 482.542969 L 135.378906 482.675781 L 133.226563 482.992188 L 131.058594 483.761719 L 129.078125 484.941406 L 127.460938 486.394531 L 126.074219 488.234375 L 125.113281 490.253906 L 124.039063 490.597656 L 123.65625 492.164063 L 122.519531 493.59375 L 121.597656 495.820313 L 121.292969 497.433594 L 120.660156 497.648438 L 120.394531 498.183594 L 118.253906 498.183594 L 117.96875 497.691406 L 118.09375 496.4375 L 117.15625 494.691406 L 115.984375 493.691406 L 112.253906 492.070313 L 111.410156 491.984375 L 110.375 492.488281 L 110.242188 494.183594 L 110.007813 494.453125 L 108.652344 494.195313 L 105.644531 494.308594 L 105.441406 494.210938 L 105.628906 491.574219 L 106.074219 490.5625 L 106.324219 490.453125 L 108.777344 490.53125 L 112.609375 489.746094 L 115.398438 488.253906 L 117.21875 486.566406 L 118.144531 485.910156 L 121.425781 483.085938 L 124.375 479.769531 L 125.210938 477.886719 L 124.875 476.421875 L 125.640625 474.519531 L 128.386719 473.238281 L 132.105469 472.640625 L 132.679688 471.785156 L 133.257813 469.527344 L 135.859375 467.5625 L 138.636719 464.640625 L 138.855469 461.914063 L 140.011719 459.710938 L 140.539063 455.539063 L 141.671875 455 L 142.492188 455.105469 L 144.269531 456.015625 L 145.761719 455.429688 L 148.429688 452.488281 L 148.144531 448.136719 L 148.292969 447.785156 L 148.582031 447.375 L 151.105469 446.613281 L 157.421875 446.269531 L 159.910156 445.683594 L 164.597656 446.761719 L 166.046875 446.148438 L 167.527344 446.515625 L 169.484375 447.285156 L 170.039063 448.109375 L 170.757813 448.421875 L 173.15625 448.464844 L 180.570313 447.503906 L 181.109375 445.632813 L 181.210938 443.15625 L 182.519531 440.25 L 190.867188 432.195313 L 195.792969 425.3125 L 197.929688 424.472656 L 198.285156 423.78125 L 198.070313 423.238281 L 197.8125 423.082031 L 196.09375 424.355469 L 192.90625 427.300781 L 190.570313 429.988281 L 189.222656 431.449219 L 185.628906 432.957031 L 183.714844 433.246094 L 182.441406 433.0625 L 178.394531 435.230469 L 177.398438 436.808594 L 177.039063 438.671875 L 176.445313 439.273438 L 174.058594 439.917969 L 170.558594 439.851563 L 166.820313 439 L 166.347656 438.652344 L 161.371094 433.375 L 159.03125 429.199219 L 155.65625 429.589844 L 149.269531 432.308594 L 149.113281 432.746094 L 148.496094 432.386719 L 146.984375 429.847656 L 146.917969 429.308594 L 148.539063 428.378906 L 150.066406 428.890625 L 151.640625 428.421875 L 152.765625 427.832031 L 153.085938 427.097656 L 152.808594 426.597656 L 147.785156 426.460938 L 143.210938 423.710938 L 139.503906 423.714844 L 136.765625 424.277344 L 136.644531 424.855469 L 135.847656 424.824219 L 132.066406 426.011719 L 128.90625 428.398438 L 127.335938 426.925781 L 127.117188 426.789063 L 127.425781 426.082031 L 128.796875 425.832031 L 131.792969 424.328125 L 131.226563 422.867188 L 130.640625 424.257813 L 127.769531 424.613281 L 122.949219 424.152344 L 121.496094 423.164063 L 124.125 421.78125 L 125.167969 421.753906 L 125.464844 421.238281 L 124.929688 417.953125 L 123.328125 417.210938 L 121.445313 417.105469 L 121.683594 416.351563 L 123.324219 415.0625 L 123.925781 414.300781 L 125.933594 413.378906 L 126.191406 412.753906 L 129.082031 412.40625 L 130.773438 411.539063 L 133.074219 411.34375 L 134.871094 409.289063 L 135.753906 407.632813 L 137.585938 406.550781 L 141.359375 406.660156 L 142.21875 406.390625 L 149.359375 401.828125 L 152.136719 398.207031 L 153.054688 396.195313 L 154.199219 391.746094 L 153.734375 388.820313 L 152.566406 386.542969 L 153.179688 384.597656 L 154.652344 381.796875 L 152.269531 378.203125 L 152.683594 374.835938 L 153.175781 374.082031 L 152.804688 373.207031 L 150.203125 373.105469 L 145.449219 374.257813 L 144.414063 375.007813 L 144.414063 374.125 L 145.421875 371.761719 L 145.882813 369.234375 L 145.878906 369.082031 L 147.132813 367.984375 L 147.953125 364.523438 L 151.550781 360.582031 L 153.09375 359.609375 L 154.941406 359.808594 L 160.492188 357.457031 L 163.019531 357.316406 L 163.367188 357.550781 L 165.492188 358.429688 L 167.746094 358.875 L 171.554688 358.617188 L 174.597656 358.925781 L 177.25 358.535156 L 178.238281 358.097656 L 179.910156 359.441406 L 180.433594 358.429688 L 179.855469 357.386719 L 180.511719 357.097656 L 183.121094 354.796875 L 184.078125 356.789063 L 184.40625 357.03125 L 184.632813 357.449219 L 186.835938 359.765625 L 189.589844 361.394531 L 192.558594 362.195313 L 195.375 362.222656 L 197.996094 361.617188 L 200.410156 360.425781 L 202.570313 358.617188 L 204.25 362.210938 L 207.046875 365.03125 L 210.625 366.75 L 214.574219 367.160156 L 221.621094 365.816406 L 223.628906 364.957031 L 225.441406 363.738281 L 227.238281 361.902344 L 228.585938 359.71875 L 229.425781 357.289063 L 229.707031 354.738281 L 233.261719 355.023438 L 236.617188 354.261719 L 239.195313 352.863281 L 241.339844 350.863281 L 244.792969 348.933594 L 246.671875 347.015625 L 248.113281 344.601563 L 248.933594 341.910156 L 249.074219 339.515625 L 249.316406 339.441406 L 250.664063 340.703125 L 252.59375 341.917969 L 254.484375 342.640625 L 260.535156 347.621094 Z M 221.953125 374.125 L 219.519531 376.101563 L 216.914063 379.527344 L 215.695313 382.070313 L 215.125 384.824219 L 215.164063 387.132813 L 215.617188 389.261719 L 216.519531 391.382813 L 217.824219 393.285156 L 219.476563 394.890625 L 221.414063 396.140625 L 223.5625 396.980469 L 225.832031 397.382813 L 225.6875 397.816406 L 221.738281 398.753906 L 219.21875 400.246094 L 216.820313 402.722656 L 215.273438 405.675781 L 214.621094 409.074219 L 215 412.515625 L 216.304688 415.582031 L 218.519531 418.238281 L 220.957031 419.902344 L 223.734375 420.902344 L 226.671875 421.167969 L 229.460938 420.71875 L 232.171875 419.574219 L 234.511719 417.785156 L 236.324219 415.46875 L 237.460938 412.890625 L 239.863281 414.953125 L 242.726563 416.289063 L 246.980469 417.046875 L 250.164063 416.863281 L 254.0625 415.320313 L 256.847656 412.890625 L 259.472656 411.574219 L 261.6875 409.640625 L 263.039063 407.773438 L 263.996094 405.679688 L 264.519531 403.4375 L 264.601563 401.261719 L 265.589844 398.085938 L 265.621094 394.632813 L 264.640625 391.320313 L 262.375 388.070313 L 259.148438 385.769531 L 256.730469 384.917969 L 254.1875 384.617188 L 251.636719 384.882813 L 249.09375 385.753906 L 247.386719 383.582031 L 245.214844 381.875 L 245.742188 379.777344 L 245.875 377.617188 L 244.90625 372.246094 L 243.535156 368.984375 L 241.339844 366.371094 L 238.679688 364.582031 L 235.632813 363.589844 L 232.429688 363.464844 L 229.316406 364.21875 L 226.523438 365.796875 L 224.203125 368.144531 L 222.636719 371.035156 Z M 232.871094 471.550781 L 231.871094 472.320313 L 230.464844 474.011719 L 229.960938 474.269531 L 229.160156 474.433594 L 227.726563 473.148438 L 225.398438 471.867188 L 223.085938 471.195313 L 222.703125 471.148438 L 222.296875 470.886719 L 221.5 471 L 220.46875 470.875 L 221.476563 469.683594 L 227.316406 466.367188 L 232.550781 467.761719 L 234.171875 469.894531 Z M 141.027344 358.09375 L 141.84375 357.222656 L 142.226563 358.1875 L 141.734375 358.875 Z M 142.066406 356.957031 L 143.226563 355.113281 L 144.007813 353.105469 L 144.328125 351.335938 L 144.664063 351.183594 L 144.703125 351.179688 L 147.089844 353.792969 L 150.472656 355.613281 L 152.851563 356.152344 L 153.894531 356.167969 L 155.546875 356.503906 L 154.066406 358.859375 L 150.984375 360.816406 L 147.425781 363.976563 L 146.109375 363.875 L 144.195313 361.613281 L 142.050781 357.363281 Z M 225.832031 315.96875 L 229.707031 316.632813 L 233.585938 315.96875 L 235.292969 318.140625 L 237.460938 319.847656 L 235.132813 323.117188 L 233.585938 323.722656 L 231.160156 321.839844 L 228.328125 320.660156 L 225.285156 320.257813 L 222.246094 320.667969 L 221.953125 319.847656 L 224.125 318.140625 Z M 218.078125 284.953125 L 221.953125 284.953125 L 221.953125 288.832031 L 220.246094 286.660156 Z M 197.414063 257.671875 L 198.851563 257.332031 L 198.691406 257.816406 Z M 171.554688 238.429688 L 173.796875 238.023438 L 175.804688 237.242188 L 177.734375 236.027344 L 179.308594 234.554688 L 182.492188 234.554688 L 181.046875 235.800781 L 180.578125 237.003906 L 174.761719 240.109375 L 172.277344 239.023438 Z M 179.34375 242.214844 L 178.753906 244.546875 L 178.917969 248.757813 L 180.574219 252.632813 L 177.628906 253.191406 L 174.816406 254.550781 L 175.898438 252.507813 L 176.550781 250.289063 L 176.753906 247.988281 L 176.523438 245.816406 L 175.84375 243.605469 L 174.808594 241.683594 L 174.460938 241.257813 L 178.0625 241.875 Z M 168.328125 286.910156 L 168.699219 287.082031 L 168.226563 288.992188 L 167.257813 288.847656 Z M 174.105469 288.691406 L 175.429688 288.832031 L 173.585938 289.75 L 174.074219 288.722656 Z M 88.945313 499.121094 L 88.542969 499.441406 L 88.566406 499.308594 L 88.941406 499.117188 Z M 286.679688 439.636719 L 283.058594 438.976563 L 282.164063 437.605469 L 282.484375 436.070313 L 286.839844 437.054688 L 287.960938 438.832031 Z M 236.835938 466.113281 L 235.136719 465.644531 L 236.523438 463.683594 L 237.195313 464.164063 L 237.5 465.839844 Z M 236.835938 466.113281 "/>
</g>
</svg>
