<?xml version="1.0" encoding="UTF-8"?>
<svg xmlns="http://www.w3.org/2000/svg" xmlns:xlink="http://www.w3.org/1999/xlink" width="378pt" height="504pt" viewBox="0 0 378 504" version="1.1">
<g id="data">
<rect x="0" y="0" width="378" height="504" style="fill:rgb(100%,100%,100%);fill-opacity:1;stroke:none;"/>
<path style=" stroke:none;fill-rule:nonzero;fill:rgb(100%,100%,100%);fill-opacity:1;" d="M 53.308594 504 L 324.691406 504 L 324.691406 0 L 53.308594 0 Z M 53.308594 504 "/>
<path style=" stroke:none;fill-rule:nonzero;fill:rgb(22.745098%,53.333333%,16.078431%);fill-opacity:1;" d="M 280.109375 370.246094 L 283.363281 370.246094 L 284.253906 370.867188 L 286.703125 370.742188 L 291.941406 371.300781 L 292.21875 372.734375 L 293.164063 374.945313 L 297.320313 380.171875 L 302.546875 384.328125 L 304.757813 385.273438 L 306.828125 385.671875 L 307.179688 391.25 L 306.777344 393.191406 L 306.890625 393.976563 L 305.789063 396.917969 L 305.164063 399.925781 L 304.558594 400.886719 L 303.742188 403.015625 L 303.371094 405.136719 L 301.5625 406.496094 L 299.492188 409.015625 L 297.320313 410.722656 L 295.902344 412.53125 L 295.578125 412.011719 L 292.742188 410.515625 L 292.480469 410.636719 L 293.480469 412.800781 L 292.734375 412.769531 L 289.007813 413.449219 L 286.277344 414.777344 L 283.984375 416.769531 L 283.933594 412.382813 L 283.015625 409.054688 L 280.992188 405.953125 L 278.09375 403.644531 L 274.617188 402.363281 L 270.914063 402.238281 L 267.363281 403.289063 L 264.050781 405.511719 L 264.523438 403.414063 L 264.601563 401.261719 L 267.722656 400.582031 L 270.441406 399.152344 L 272.691406 397.0625 L 274.3125 394.457031 L 275.253906 391.136719 L 275.195313 387.8125 L 274.203125 384.640625 L 272.355469 381.875 L 275.605469 380.109375 L 278.136719 377.410156 L 279.726563 373.925781 Z M 121.683594 416.351563 L 123.324219 415.0625 L 123.925781 414.300781 L 125.933594 413.378906 L 126.191406 412.753906 L 129.082031 412.40625 L 130.773438 411.539063 L 133.074219 411.34375 L 134.871094 409.289063 L 135.753906 407.632813 L 137.585938 406.550781 L 141.359375 406.660156 L 142.21875 406.390625 L 149.359375 401.828125 L 152.136719 398.207031 L 153.054688 396.195313 L 154.199219 391.746094 L 153.734375 388.820313 L 152.566406 386.542969 L 153.179688 384.597656 L 154.652344 381.796875 L 152.269531 378.203125 L 152.320313 377.796875 L 153.535156 376.140625 L 154.507813 374.050781 L 155.050781 371.808594 L 155.132813 369.375 L 154.417969 366.125 L 152.816406 363.210938 L 150.882813 361.3125 L 151.550781 360.582031 L 153.09375 359.609375 L 154.941406 359.808594 L 160.492188 357.457031 L 163.136719 357.3125 L 165.246094 358.355469 L 168.125 358.90625 L 171.554688 358.617188 L 172.609375 358.816406 L 170.066406 359.023438 L 167.515625 359.835938 L 165.527344 360.980469 L 163.800781 362.492188 L 161.785156 363.316406 L 159.855469 364.582031 L 157.117188 367.78125 L 154.875 373.082031 L 154.507813 375.355469 L 154.597656 377.660156 L 155.140625 379.898438 L 156.046875 381.875 L 155.382813 386.007813 L 156.046875 389.628906 L 155.890625 392.007813 L 156.28125 395.8125 L 156.871094 397.789063 L 157.867188 399.738281 L 159.210938 401.464844 L 160.855469 402.910156 L 163.574219 404.371094 L 166.710938 405.078125 L 169.921875 404.902344 L 172.957031 403.851563 L 175.496094 402.097656 L 177.554688 399.628906 L 178.859375 396.691406 L 179.308594 393.507813 L 181.878906 392.226563 L 182.261719 394.605469 L 183.1875 396.96875 L 184.523438 398.972656 L 186.339844 400.742188 L 188.929688 402.625 L 191.394531 403.707031 L 194.171875 404.207031 L 196.988281 404.019531 L 200.480469 402.75 L 203.472656 400.371094 L 205.523438 397.183594 L 206.445313 393.507813 L 210.324219 393.507813 L 212.109375 395.675781 L 214.25 397.285156 L 216.828125 398.402344 L 219.46875 398.859375 L 216.511719 401.234375 L 214.476563 404.429688 L 213.570313 408.125 L 213.871094 411.792969 L 214.90625 414.679688 L 216.453125 417.03125 L 218.941406 419.238281 L 221.953125 420.644531 L 223.65625 424.078125 L 226.484375 426.847656 L 229.21875 428.238281 L 232.566406 429.019531 L 235.613281 428.886719 L 238.527344 427.964844 L 241.402344 426.058594 L 243.589844 423.390625 L 244.898438 420.203125 L 245.214844 416.769531 L 248.640625 417.0625 L 252.003906 416.339844 L 254.597656 414.964844 L 256.847656 412.890625 L 259.796875 411.351563 L 259.304688 413.601563 L 259.277344 416.03125 L 259.757813 418.414063 L 260.722656 420.644531 L 259.992188 423.507813 L 260.003906 426.460938 L 260.859375 429.550781 L 262.527344 432.289063 L 265.199219 434.6875 L 268.476563 436.152344 L 269.300781 438.167969 L 270.488281 439.996094 L 272.089844 441.652344 L 273.875 442.898438 L 276.59375 444.027344 L 278.960938 444.515625 L 281.507813 444.488281 L 283.984375 443.90625 L 286.21875 445.972656 L 289.027344 447.429688 L 285.730469 448.773438 L 282.90625 451.152344 L 281.652344 452.917969 L 280.703125 455.011719 L 280.183594 457.246094 L 280.109375 459.414063 L 278.269531 461.1875 L 276.183594 462.457031 L 274.789063 462.777344 L 273.65625 463.3125 L 271.648438 463.597656 L 269.480469 463.484375 L 265.363281 462.652344 L 262.949219 462.746094 L 260.722656 463.292969 L 256.847656 462.628906 L 250.96875 463.632813 L 247.832031 464.972656 L 247.65625 465.121094 L 244.628906 465.699219 L 242.703125 466.390625 L 242.113281 466.964844 L 242.0625 467.210938 L 239.890625 467.238281 L 238.210938 466.1875 L 238.632813 465.4375 L 239.46875 464.933594 L 237.714844 463.296875 L 231.496094 463.171875 L 231.378906 463.496094 L 232.574219 464.835938 L 232.214844 465.75 L 231.738281 466.042969 L 226.691406 465.496094 L 219.566406 468.449219 L 217.054688 467.824219 L 210.222656 468.96875 L 208.164063 468.875 L 207.273438 468.058594 L 206.238281 469.769531 L 209.429688 471.089844 L 209.714844 470.9375 L 210.1875 472.128906 L 209.566406 473.890625 L 208.867188 474.035156 L 206.71875 472.726563 L 202.570313 471.960938 L 200.394531 472.363281 L 197.625 472.007813 L 196.175781 472.65625 L 195.679688 473.863281 L 195.753906 474.351563 L 195.222656 474.675781 L 194.851563 473.972656 L 194.601563 473.789063 L 194.339844 472.40625 L 193.328125 470.054688 L 191.734375 467.886719 L 189.796875 466.214844 L 187.539063 465.007813 L 184.941406 464.304688 L 182.382813 464.207031 L 179.867188 464.671875 L 177.289063 465.804688 L 174.195313 468.035156 L 170.082031 472.617188 L 170.058594 472.65625 L 168.992188 473.234375 L 168.214844 474.070313 L 167.203125 476.179688 L 163.601563 486.714844 L 161.28125 488.625 L 160.175781 490.09375 L 158.269531 489.722656 L 157.554688 489.058594 L 156.527344 486.851563 L 154.683594 485.4375 L 153.613281 485.542969 L 152.417969 486.300781 L 151.925781 486.199219 L 151.28125 485.65625 L 148.46875 482.535156 L 144.746094 482.8125 L 142.789063 482.519531 L 133.980469 482.835938 L 130.148438 484.238281 L 127.121094 486.78125 L 125.136719 490.246094 L 124.039063 490.597656 L 123.648438 492.191406 L 122.457031 493.707031 L 121.597656 495.820313 L 121.292969 497.433594 L 120.660156 497.648438 L 120.394531 498.183594 L 118.253906 498.183594 L 117.96875 497.691406 L 118.09375 496.4375 L 117.15625 494.691406 L 115.984375 493.691406 L 112.253906 492.070313 L 111.410156 491.984375 L 110.375 492.488281 L 110.242188 494.183594 L 110.007813 494.453125 L 108.652344 494.195313 L 105.644531 494.308594 L 105.441406 494.210938 L 105.628906 491.574219 L 106.074219 490.5625 L 106.324219 490.453125 L 108.777344 490.53125 L 112.609375 489.746094 L 115.398438 488.253906 L 117.21875 486.566406 L 118.144531 485.910156 L 121.425781 483.085938 L 124.375 479.769531 L 125.210938 477.886719 L 124.875 476.421875 L 125.640625 474.519531 L 128.386719 473.238281 L 132.105469 472.640625 L 132.679688 471.785156 L 133.257813 469.527344 L 135.859375 467.5625 L 138.636719 464.640625 L 138.855469 461.929688 L 140.050781 459.589844 L 140.539063 455.539063 L 141.660156 454.996094 L 142.492188 455.105469 L 144.269531 456.015625 L 145.761719 455.429688 L 148.429688 452.488281 L 148.140625 448.082031 L 148.292969 447.785156 L 148.878906 447.285156 L 151.105469 446.613281 L 157.421875 446.269531 L 159.910156 445.683594 L 164.597656 446.761719 L 166.046875 446.148438 L 167.527344 446.515625 L 169.484375 447.285156 L 170.039063 448.109375 L 170.757813 448.421875 L 173.15625 448.464844 L 180.570313 447.503906 L 181.109375 445.632813 L 181.210938 443.15625 L 182.519531 440.25 L 190.867188 432.195313 L 195.792969 425.3125 L 197.929688 424.472656 L 198.285156 423.78125 L 198.070313 423.238281 L 197.8125 423.082031 L 196.09375 424.355469 L 192.90625 427.300781 L 190.570313 429.988281 L 189.222656 431.449219 L 185.628906 432.957031 L 183.714844 433.246094 L 182.441406 433.0625 L 178.394531 435.230469 L 177.398438 436.808594 L 177.039063 438.671875 L 176.445313 439.273438 L 174.058594 439.917969 L 170.558594 439.851563 L 166.820313 439 L 166.347656 438.652344 L 161.371094 433.375 L 159.03125 429.199219 L 155.65625 429.589844 L 151.378906 431.410156 L 149.992188 429.773438 L 148.453125 428.425781 L 148.539063 428.378906 L 150.066406 428.890625 L 151.640625 428.421875 L 152.765625 427.832031 L 153.085938 427.097656 L 152.808594 426.597656 L 147.785156 426.460938 L 143.210938 423.710938 L 139.503906 423.714844 L 136.765625 424.277344 L 136.742188 424.382813 L 135.589844 424.429688 L 131.90625 425.839844 L 128.90625 428.398438 L 127.335938 426.925781 L 127.117188 426.789063 L 127.425781 426.082031 L 128.796875 425.832031 L 131.792969 424.328125 L 131.226563 422.867188 L 130.640625 424.257813 L 127.769531 424.613281 L 122.949219 424.152344 L 121.496094 423.164063 L 124.125 421.78125 L 125.167969 421.753906 L 125.464844 421.238281 L 124.929688 417.953125 L 123.328125 417.210938 L 121.445313 417.105469 Z M 150.664063 361.101563 L 150.351563 360.792969 L 147.40625 359.246094 L 150.199219 359.125 L 154.535156 358.113281 L 154.066406 358.859375 L 150.984375 360.816406 Z M 233.820313 469.429688 L 233.453125 469.667969 L 231.882813 471.175781 L 230.617188 472.945313 L 230.023438 474.234375 L 229.960938 474.269531 L 229.160156 474.433594 L 227.726563 473.148438 L 225.398438 471.867188 L 223.085938 471.195313 L 222.703125 471.148438 L 222.296875 470.886719 L 221.496094 471 L 220.46875 470.875 L 221.476563 469.683594 L 227.316406 466.367188 L 232.550781 467.761719 Z M 202.570313 358.617188 L 202.972656 361.65625 L 204.160156 364.484375 L 205.953125 366.816406 L 208.382813 368.6875 L 205.375 369.085938 L 202.570313 370.246094 L 198.671875 369.574219 L 194.894531 370.203125 L 191.230469 372.269531 L 188.539063 375.5 L 188.074219 372.863281 L 186.960938 370.289063 L 185.261719 368.058594 L 183.183594 366.371094 L 181.015625 362.75 L 177.8125 360.203125 L 173.925781 358.925781 L 176.476563 358.714844 L 178.285156 358.136719 L 179.910156 359.441406 L 180.433594 358.429688 L 179.863281 357.398438 L 181.339844 356.515625 L 183.121094 354.796875 L 184.078125 356.789063 L 184.382813 357.011719 L 184.558594 357.34375 L 186.539063 359.523438 L 189.007813 361.132813 L 191.796875 362.070313 L 194.734375 362.277344 L 197.632813 361.742188 L 200.300781 360.492188 Z M 88.945313 499.121094 L 88.542969 499.441406 L 88.566406 499.308594 L 88.941406 499.117188 Z M 236.835938 466.113281 L 235.136719 465.644531 L 236.523438 463.683594 L 237.195313 464.164063 L 237.5 465.839844 Z M 236.835938 466.113281 "/>
<path style=" stroke:none;fill-rule:nonzero;fill:rgb(80.392157%,58.431373%,4.705882%);fill-opacity:1;" d="M 227.769531 319.847656 L 227.484375 321.644531 L 226.660156 323.265625 L 225.371094 324.550781 L 223.75 325.375 L 221.953125 325.660156 L 220.15625 325.375 L 218.535156 324.550781 L 217.25 323.265625 L 216.421875 321.644531 L 216.136719 319.847656 L 216.421875 318.050781 L 217.25 316.429688 L 218.535156 315.140625 L 220.15625 314.316406 L 221.953125 314.03125 L 223.75 314.316406 L 225.371094 315.140625 L 226.660156 316.429688 L 227.484375 318.050781 Z M 227.769531 319.847656 "/>
<path style=" stroke:none;fill-rule:nonzero;fill:rgb(80.392157%,58.431373%,4.705882%);fill-opacity:1;" d="M 231.644531 397.382813 L 231.363281 399.183594 L 230.535156 400.804688 L 229.25 402.089844 L 227.628906 402.914063 L 225.832031 403.199219 L 224.035156 402.914063 L 222.414063 402.089844 L 221.125 400.804688 L 220.300781 399.183594 L 220.015625 397.382813 L 220.300781 395.585938 L 221.125 393.964844 L 222.414063 392.679688 L 224.035156 391.855469 L 225.832031 391.570313 L 227.628906 391.855469 L 229.25 392.679688 L 230.535156 393.964844 L 231.363281 395.585938 Z M 231.644531 397.382813 "/>
<path style=" stroke:none;fill-rule:nonzero;fill:rgb(80.392157%,58.431373%,4.705882%);fill-opacity:1;" d="M 220.015625 370.246094 L 219.730469 372.042969 L 218.90625 373.664063 L 217.617188 374.949219 L 215.996094 375.777344 L 214.199219 376.0625 L 212.402344 375.777344 L 210.78125 374.949219 L 209.496094 373.664063 L 208.667969 372.042969 L 208.382813 370.246094 L 208.667969 368.449219 L 209.496094 366.828125 L 210.78125 365.542969 L 212.402344 364.714844 L 214.199219 364.429688 L 215.996094 364.714844 L 217.617188 365.542969 L 218.90625 366.828125 L 219.730469 368.449219 Z M 220.015625 370.246094 "/>
<path style=" stroke:none;fill-rule:nonzero;fill:rgb(80.392157%,58.431373%,4.705882%);fill-opacity:1;" d="M 192.875 381.875 L 192.59375 383.675781 L 191.765625 385.296875 L 190.480469 386.582031 L 188.859375 387.40625 L 187.0625 387.691406 L 185.265625 387.40625 L 183.644531 386.582031 L 182.355469 385.296875 L 181.53125 383.675781 L 181.246094 381.875 L 181.53125 380.078125 L 182.355469 378.457031 L 183.644531 377.171875 L 185.265625 376.347656 L 187.0625 376.0625 L 188.859375 376.347656 L 190.480469 377.171875 L 191.765625 378.457031 L 192.59375 380.078125 Z M 192.875 381.875 "/>
<path style=" stroke:none;fill-rule:nonzero;fill:rgb(80.392157%,58.431373%,4.705882%);fill-opacity:1;" d="M 247.152344 366.371094 L 246.871094 368.167969 L 246.042969 369.789063 L 244.757813 371.074219 L 243.136719 371.898438 L 241.339844 372.183594 L 239.542969 371.898438 L 237.921875 371.074219 L 236.632813 369.789063 L 235.808594 368.167969 L 235.523438 366.371094 L 235.808594 364.570313 L 236.632813 362.949219 L 237.921875 361.664063 L 239.542969 360.839844 L 241.339844 360.554688 L 243.136719 360.839844 L 244.757813 361.664063 L 246.042969 362.949219 L 246.871094 364.570313 Z M 247.152344 366.371094 "/>
<path style=" stroke:none;fill-rule:nonzero;fill:rgb(80.392157%,58.431373%,4.705882%);fill-opacity:1;" d="M 220.015625 335.355469 L 219.730469 337.152344 L 218.90625 338.773438 L 217.617188 340.058594 L 215.996094 340.882813 L 214.199219 341.167969 L 212.402344 340.882813 L 210.78125 340.058594 L 209.496094 338.773438 L 208.667969 337.152344 L 208.382813 335.355469 L 208.667969 333.558594 L 209.496094 331.9375 L 210.78125 330.648438 L 212.402344 329.824219 L 214.199219 329.539063 L 215.996094 329.824219 L 217.617188 330.648438 L 218.90625 331.9375 L 219.730469 333.558594 Z M 220.015625 335.355469 "/>
<path style=" stroke:none;fill-rule:nonzero;fill:rgb(80.392157%,58.431373%,4.705882%);fill-opacity:1;" d="M 251.03125 381.875 L 250.746094 383.675781 L 249.921875 385.296875 L 248.632813 386.582031 L 247.011719 387.40625 L 245.214844 387.691406 L 243.417969 387.40625 L 241.796875 386.582031 L 240.511719 385.296875 L 239.683594 383.675781 L 239.398438 381.875 L 239.683594 380.078125 L 240.511719 378.457031 L 241.796875 377.171875 L 243.417969 376.347656 L 245.214844 376.0625 L 247.011719 376.347656 L 248.632813 377.171875 L 249.921875 378.457031 L 250.746094 380.078125 Z M 251.03125 381.875 "/>
<path style=" stroke:none;fill-rule:nonzero;fill:rgb(80.392157%,58.431373%,4.705882%);fill-opacity:1;" d="M 254.90625 385.753906 L 254.625 387.550781 L 253.796875 389.171875 L 252.511719 390.457031 L 250.890625 391.285156 L 249.09375 391.570313 L 247.296875 391.285156 L 245.675781 390.457031 L 244.386719 389.171875 L 243.5625 387.550781 L 243.277344 385.753906 L 243.5625 383.957031 L 244.386719 382.335938 L 245.675781 381.050781 L 247.296875 380.222656 L 249.09375 379.9375 L 250.890625 380.222656 L 252.511719 381.050781 L 253.796875 382.335938 L 254.625 383.957031 Z M 254.90625 385.753906 "/>
<path style=" stroke:none;fill-rule:nonzero;fill:rgb(80.392157%,58.431373%,4.705882%);fill-opacity:1;" d="M 196.753906 188.03125 L 196.46875 189.828125 L 195.644531 191.449219 L 194.355469 192.734375 L 192.734375 193.5625 L 190.9375 193.847656 L 189.140625 193.5625 L 187.519531 192.734375 L 186.234375 191.449219 L 185.40625 189.828125 L 185.125 188.03125 L 185.40625 186.234375 L 186.234375 184.613281 L 187.519531 183.324219 L 189.140625 182.5 L 190.9375 182.214844 L 192.734375 182.5 L 194.355469 183.324219 L 195.644531 184.613281 L 196.46875 186.234375 Z M 196.753906 188.03125 "/>
<path style=" stroke:none;fill-rule:nonzero;fill:rgb(80.392157%,58.431373%,4.705882%);fill-opacity:1;" d="M 196.753906 257.816406 L 196.46875 259.613281 L 195.644531 261.234375 L 194.355469 262.519531 L 192.734375 263.347656 L 190.9375 263.628906 L 189.140625 263.347656 L 187.519531 262.519531 L 186.234375 261.234375 L 185.40625 259.613281 L 185.125 257.816406 L 185.40625 256.019531 L 186.234375 254.398438 L 187.519531 253.109375 L 189.140625 252.285156 L 190.9375 252 L 192.734375 252.285156 L 194.355469 253.109375 L 195.644531 254.398438 L 196.46875 256.019531 Z M 196.753906 257.816406 "/>
<path style=" stroke:none;fill-rule:nonzero;fill:rgb(80.392157%,58.431373%,4.705882%);fill-opacity:1;" d="M 196.753906 292.707031 L 196.46875 294.503906 L 195.644531 296.125 L 194.355469 297.414063 L 192.734375 298.238281 L 190.9375 298.523438 L 189.140625 298.238281 L 187.519531 297.414063 L 186.234375 296.125 L 185.40625 294.503906 L 185.125 292.707031 L 185.40625 290.910156 L 186.234375 289.289063 L 187.519531 288.003906 L 189.140625 287.175781 L 190.9375 286.890625 L 192.734375 287.175781 L 194.355469 288.003906 L 195.644531 289.289063 L 196.46875 290.910156 Z M 196.753906 292.707031 "/>
<path style=" stroke:none;fill-rule:nonzero;fill:rgb(80.392157%,58.431373%,4.705882%);fill-opacity:1;" d="M 200.628906 257.816406 L 200.347656 259.613281 L 199.519531 261.234375 L 198.234375 262.519531 L 196.613281 263.347656 L 194.816406 263.628906 L 193.019531 263.347656 L 191.398438 262.519531 L 190.109375 261.234375 L 189.285156 259.613281 L 189 257.816406 L 189.285156 256.019531 L 190.109375 254.398438 L 191.398438 253.109375 L 193.019531 252.285156 L 194.816406 252 L 196.613281 252.285156 L 198.234375 253.109375 L 199.519531 254.398438 L 200.347656 256.019531 Z M 200.628906 257.816406 "/>
<path style=" stroke:none;fill-rule:nonzero;fill:rgb(80.392157%,58.431373%,4.705882%);fill-opacity:1;" d="M 291.898438 452.191406 L 290.910156 451.203125 L 290.085938 449.582031 L 289.800781 447.785156 L 290.085938 445.988281 L 290.910156 444.367188 L 292.195313 443.078125 L 293.816406 442.253906 L 295.617188 441.96875 L 297.414063 442.253906 L 299.035156 443.078125 L 300.320313 444.367188 L 300.808594 445.320313 L 300.335938 447.820313 L 299.394531 449.050781 L 296.972656 450.242188 L 295.839844 450.375 L 292.621094 451.640625 Z M 291.898438 452.191406 "/>
<path style=" stroke:none;fill-rule:nonzero;fill:rgb(80.392157%,58.431373%,4.705882%);fill-opacity:1;" d="M 177.371094 308.214844 L 177.085938 310.011719 L 176.257813 311.632813 L 174.972656 312.921875 L 172.65625 313.855469 L 172.289063 311.832031 L 167.40625 304.652344 L 167.59375 304.050781 L 169.757813 302.683594 L 171.554688 302.398438 L 173.351563 302.683594 L 174.972656 303.511719 L 176.257813 304.796875 L 177.085938 306.417969 Z M 177.371094 308.214844 "/>
<path style=" stroke:none;fill-rule:nonzero;fill:rgb(80.392157%,58.431373%,4.705882%);fill-opacity:1;" d="M 210.738281 253.894531 L 209.863281 254.765625 L 208.242188 255.59375 L 206.445313 255.875 L 204.648438 255.59375 L 203.027344 254.765625 L 201.742188 253.480469 L 200.914063 251.859375 L 200.628906 250.0625 L 200.914063 248.265625 L 201.742188 246.644531 L 203.582031 245.074219 L 206.488281 246.65625 L 208.910156 251.429688 Z M 210.738281 253.894531 "/>
<path style=" stroke:none;fill-rule:nonzero;fill:rgb(80.392157%,58.431373%,4.705882%);fill-opacity:1;" d="M 181.246094 288.832031 L 180.960938 290.628906 L 180.136719 292.25 L 178.847656 293.535156 L 177.226563 294.363281 L 175.429688 294.644531 L 173.632813 294.363281 L 171.859375 293.382813 L 174.074219 288.722656 L 176.464844 286.417969 L 178.757813 285.980469 L 180.191406 286.804688 L 180.808594 286.734375 Z M 171.902344 284.238281 L 173.632813 283.300781 L 175.429688 283.015625 L 177.226563 283.300781 L 178.847656 284.125 L 180.066406 285.34375 L 174.65625 284.980469 Z M 171.902344 284.238281 "/>
<path style=" stroke:none;fill-rule:nonzero;fill:rgb(80.392157%,58.431373%,4.705882%);fill-opacity:1;" d="M 178.578125 238.070313 L 177.652344 236.351563 L 177.371094 234.554688 L 177.652344 232.757813 L 178.480469 231.136719 L 179.765625 229.847656 L 181.386719 229.023438 L 183.183594 228.738281 L 184.980469 229.023438 L 186.601563 229.847656 L 187.890625 231.136719 L 188.726563 232.832031 L 188.34375 232.882813 L 187.070313 232.078125 L 185.40625 232.042969 L 181.046875 235.800781 L 180.578125 237.003906 Z M 178.578125 238.070313 "/>
<path style=" stroke:none;fill-rule:nonzero;fill:rgb(80.392157%,58.431373%,4.705882%);fill-opacity:1;" d="M 147.992188 317.859375 L 146.496094 317.625 L 144.875 316.796875 L 143.585938 315.511719 L 142.824219 314.011719 L 144.765625 310.230469 L 145.863281 309.40625 L 149.046875 308.269531 L 150.203125 313.453125 Z M 147.992188 317.859375 "/>
<path style=" stroke:none;fill-rule:nonzero;fill:rgb(80.392157%,58.431373%,4.705882%);fill-opacity:1;" d="M 158.097656 293.433594 L 158.269531 290.910156 L 159.09375 289.289063 L 160.382813 288.003906 L 162.003906 287.175781 L 163.800781 286.890625 L 165.597656 287.175781 L 167.21875 288.003906 L 168.203125 288.988281 L 166.234375 288.695313 L 163.3125 290.011719 L 161.832031 291.855469 L 159.410156 293.515625 Z M 158.097656 293.433594 "/>
</g>
</svg>
