<?xml version="1.0" encoding="UTF-8"?>
<svg xmlns="http://www.w3.org/2000/svg" xmlns:xlink="http://www.w3.org/1999/xlink" width="378pt" height="504pt" viewBox="0 0 378 504" version="1.1">
<g id="data">
<rect x="0" y="0" width="378" height="504" style="fill:rgb(100%,100%,100%);fill-opacity:1;stroke:none;"/>
<path style=" stroke:none;fill-rule:nonzero;fill:rgb(100%,100%,100%);fill-opacity:1;" d="M 53.308594 504 L 324.691406 504 L 324.691406 0 L 53.308594 0 Z M 53.308594 504 "/>
<path style=" stroke:none;fill-rule:nonzero;fill:rgb(22.745098%,53.333333%,16.078431%);fill-opacity:1;" d="M 148.191406 373.59375 L 148.507813 373.164063 L 148.992188 372.121094 L 149.257813 371.023438 L 149.296875 369.910156 L 148.917969 368.191406 L 148.132813 366.761719 L 147.558594 366.195313 L 147.953125 364.523438 L 151.550781 360.582031 L 153.09375 359.609375 L 154.941406 359.808594 L 160.492188 357.457031 L 163.644531 357.28125 L 167.339844 357.714844 L 172.597656 355.179688 L 173.933594 355.046875 L 174.484375 355.082031 L 179.910156 359.441406 L 180.433594 358.429688 L 177.679688 353.460938 L 178.242188 352.835938 L 180.867188 352.449219 L 181.503906 352.695313 L 181.914063 353.875 L 182.898438 354.332031 L 184.078125 356.789063 L 185.613281 357.902344 L 188.359375 357.621094 L 190.335938 355.148438 L 189.90625 355.050781 L 188.667969 355.527344 L 188.3125 355.957031 L 186.378906 356.386719 L 183.8125 354.640625 L 181.34375 349.292969 L 182.320313 348.988281 L 184.109375 348.996094 L 185.8125 349.550781 L 187.261719 350.59375 L 188.332031 352.027344 L 189.355469 353.976563 L 190.339844 355.058594 L 191.5625 355.855469 L 192.949219 356.320313 L 194.40625 356.425781 L 195.839844 356.160156 L 197.164063 355.539063 L 198.863281 354.136719 L 200.375 353.230469 L 202.089844 352.820313 L 203.847656 352.941406 L 205.488281 353.585938 L 206.859375 354.691406 L 207.839844 356.15625 L 208.332031 357.847656 L 208.636719 360.140625 L 209.183594 361.457031 L 210.113281 362.679688 L 211.929688 364.078125 L 213.253906 365.507813 L 214.03125 367.292969 L 214.175781 369.234375 L 213.667969 371.117188 L 212.570313 372.722656 L 211.003906 373.878906 L 209.144531 374.453125 L 206.890625 374.75 L 204.792969 375.617188 L 203.214844 376.027344 L 201.582031 375.976563 L 198.65625 375.472656 L 196.859375 375.773438 L 195.011719 376.8125 L 193.003906 379.222656 L 191.585938 380.453125 L 189.851563 381.164063 L 187.980469 381.289063 L 186.167969 380.808594 L 184.597656 379.777344 L 183.441406 378.300781 L 182.8125 376.535156 L 182.4375 374.453125 L 181.910156 373.25 L 181.117188 372.203125 L 179.488281 370.859375 L 178.195313 369.359375 L 176.570313 366.648438 L 175.007813 365.40625 L 172.699219 364.644531 L 171.109375 364.785156 L 169.886719 365.179688 L 168.925781 365.734375 L 167.632813 366.867188 L 166 367.875 L 164.507813 368.484375 L 163.738281 368.992188 L 162.121094 370.878906 L 160.503906 374.699219 L 160.34375 375.710938 L 160.386719 376.871094 L 160.628906 377.894531 L 161.34375 379.480469 L 161.808594 381.105469 L 161.789063 382.796875 L 161.285156 385.945313 L 161.765625 388.585938 L 161.847656 390.007813 L 161.726563 391.902344 L 162.011719 394.675781 L 162.289063 395.613281 L 162.792969 396.597656 L 163.464844 397.460938 L 164.195313 398.105469 L 165.628906 398.875 L 167.199219 399.226563 L 168.789063 399.140625 L 170.292969 398.621094 L 171.597656 397.707031 L 172.601563 396.476563 L 173.238281 394.996094 L 173.546875 392.726563 L 174.09375 390.929688 L 175.191406 389.402344 L 176.714844 388.300781 L 179.285156 387.023438 L 181.003906 386.476563 L 182.808594 386.488281 L 184.519531 387.046875 L 185.980469 388.105469 L 187.042969 389.558594 L 187.613281 391.265625 L 187.929688 393.15625 L 188.363281 394.238281 L 189.082031 395.3125 L 190.082031 396.273438 L 191.84375 397.550781 L 193.101563 398.105469 L 194.496094 398.355469 L 195.78125 398.269531 L 197.601563 397.609375 L 199.101563 396.414063 L 200.117188 394.839844 L 200.804688 392.09375 L 201.570313 390.335938 L 202.867188 388.921875 L 204.554688 388.007813 L 206.445313 387.691406 L 210.324219 387.691406 L 212.007813 387.941406 L 213.546875 388.667969 L 214.8125 389.808594 L 216.15625 391.441406 L 217.207031 392.234375 L 218.410156 392.761719 L 220.496094 393.136719 L 222.277344 393.769531 L 223.765625 394.941406 L 224.792969 396.527344 L 225.261719 398.363281 L 225.113281 400.25 L 224.371094 401.988281 L 223.109375 403.398438 L 220.902344 405.167969 L 219.894531 406.746094 L 219.441406 408.589844 L 219.605469 410.550781 L 220.148438 412.0625 L 220.890625 413.191406 L 222.167969 414.324219 L 224.417969 415.378906 L 226.007813 416.476563 L 227.152344 418.035156 L 228.484375 420.691406 L 229.902344 422.0625 L 231.230469 422.738281 L 233.109375 423.175781 L 234.589844 423.109375 L 235.992188 422.667969 L 237.457031 421.695313 L 238.539063 420.375 L 239.1875 418.800781 L 239.425781 416.234375 L 239.871094 414.480469 L 240.835938 412.945313 L 242.222656 411.78125 L 243.902344 411.105469 L 245.707031 410.976563 L 248.269531 411.191406 L 249.996094 410.820313 L 251.210938 410.179688 L 252.902344 408.617188 L 254.152344 407.738281 L 257.101563 406.195313 L 258.261719 405.8125 L 258.375 404.234375 L 258.730469 402.664063 L 258.789063 401.050781 L 259.171875 399.171875 L 260.148438 397.519531 L 261.609375 396.273438 L 263.394531 395.570313 L 265.640625 395.097656 L 266.980469 394.410156 L 268.171875 393.316406 L 268.949219 392.066406 L 269.410156 390.472656 L 269.390625 388.730469 L 268.90625 387.179688 L 267.523438 385.113281 L 266.730469 383.363281 L 266.554688 381.453125 L 267.007813 379.589844 L 267.785156 378.378906 L 270.21875 378.804688 L 270.625 378.746094 L 271.910156 376.796875 L 272.179688 375.273438 L 273.289063 374.0625 L 274.039063 372.398438 L 274.167969 371.164063 L 274.707031 370.632813 L 277.851563 370.085938 L 283.34375 370.234375 L 284.253906 370.867188 L 286.703125 370.742188 L 293.949219 371.515625 L 296.914063 372.84375 L 303.6875 377.804688 L 304.101563 378.132813 L 305.367188 380.105469 L 306.730469 384.164063 L 307.179688 391.25 L 306.777344 393.191406 L 306.890625 393.976563 L 305.789063 396.917969 L 303.519531 407.832031 L 297.144531 414.53125 L 295.578125 412.011719 L 292.742188 410.515625 L 292.480469 410.636719 L 293.898438 413.703125 L 295.890625 416.628906 L 296.3125 416.765625 L 296.164063 417.742188 L 295.429688 418.695313 L 295.363281 418.703125 L 293.140625 418.605469 L 290.839844 419.027344 L 289.511719 419.671875 L 288.820313 420.273438 L 288.214844 419.332031 L 284.976563 421.730469 L 283.65625 422.503906 L 282.488281 422.390625 L 280.773438 421.617188 L 279.394531 420.339844 L 278.496094 418.6875 L 278.167969 416.835938 L 278.128906 413.203125 L 277.652344 411.472656 L 276.632813 409.914063 L 275.203125 408.777344 L 273.488281 408.144531 L 271.660156 408.082031 L 269.863281 408.613281 L 267.292969 410.339844 L 265.730469 411.078125 L 265.558594 411.105469 L 265.476563 412.589844 L 265.113281 414.257813 L 265.101563 415.484375 L 265.339844 416.667969 L 266.0625 418.339844 L 266.519531 420.1875 L 266.359375 422.085938 L 265.8125 424.226563 L 265.816406 425.65625 L 266.25 427.21875 L 267.050781 428.535156 L 268.40625 429.75 L 270.855469 430.847656 L 272.65625 432.109375 L 273.859375 433.953125 L 274.085938 434.503906 L 272.609375 436.117188 L 274.253906 436.015625 L 274.550781 435.570313 L 275.117188 436.433594 L 275.867188 437.195313 L 276.6875 437.769531 L 277.75 438.210938 L 277.96875 438.546875 L 281.382813 438.964844 L 286.863281 440.339844 L 288.429688 440.089844 L 289.667969 441.222656 L 291.675781 442.25 L 293.195313 443.371094 L 294.273438 444.917969 L 294.800781 446.730469 L 294.722656 448.617188 L 294.042969 450.375 L 293.167969 451.425781 L 292.621094 451.640625 L 291.179688 452.742188 L 291.054688 452.882813 L 288.773438 453.8125 L 287.21875 455.121094 L 286.714844 455.832031 L 286.230469 456.902344 L 285.988281 457.921875 L 285.976563 458.242188 L 284.1875 457.9375 L 281.042969 460.90625 L 278.484375 461.933594 L 274.789063 462.777344 L 272.597656 463.816406 L 270.539063 466.589844 L 269.761719 466.949219 L 259.269531 463.777344 L 256.070313 463.507813 L 244.628906 465.699219 L 242.703125 466.390625 L 242.113281 466.964844 L 241.902344 467.984375 L 241.359375 468.164063 L 238.210938 466.1875 L 238.632813 465.4375 L 239.46875 464.933594 L 237.714844 463.296875 L 231.496094 463.171875 L 231.378906 463.496094 L 232.574219 464.835938 L 232.214844 465.75 L 231.738281 466.042969 L 226.691406 465.496094 L 219.566406 468.449219 L 217.054688 467.824219 L 210.222656 468.96875 L 208.164063 468.875 L 207.273438 468.058594 L 206.238281 469.769531 L 209.429688 471.089844 L 209.714844 470.9375 L 210.1875 472.128906 L 209.566406 473.890625 L 206.84375 474.453125 L 204.453125 473.097656 L 203.015625 472.699219 L 197.625 472.007813 L 196.175781 472.65625 L 195.679688 473.863281 L 195.832031 474.871094 L 196.757813 475.523438 L 196.488281 476.304688 L 195.917969 475.996094 L 194.851563 473.972656 L 190.289063 470.589844 L 185.898438 468.519531 L 183.121094 467.984375 L 181.648438 469.066406 L 176.207031 469.78125 L 174.339844 470.335938 L 168.992188 473.234375 L 168.214844 474.070313 L 167.203125 476.179688 L 162.746094 489.226563 L 160.929688 490.242188 L 158.269531 489.722656 L 157.554688 489.058594 L 156.527344 486.851563 L 154.683594 485.4375 L 153.613281 485.542969 L 152.417969 486.300781 L 151.738281 486.164063 L 148.46875 482.535156 L 142.796875 482.960938 L 141.527344 483.375 L 140.734375 484.175781 L 139.910156 484.507813 L 134.507813 484.320313 L 132.167969 484.859375 L 129.414063 488.195313 L 126.714844 489.746094 L 124.039063 490.597656 L 123.132813 494.289063 L 123.664063 495.292969 L 123.496094 496.125 L 122.722656 496.945313 L 120.660156 497.648438 L 119.628906 499.730469 L 118.675781 498.910156 L 117.96875 497.691406 L 118.09375 496.4375 L 117.15625 494.691406 L 115.984375 493.691406 L 112.253906 492.070313 L 111.410156 491.984375 L 110.375 492.488281 L 110.242188 494.183594 L 109.421875 495.128906 L 106.824219 495.664063 L 105.398438 494.824219 L 105.628906 491.574219 L 106.074219 490.5625 L 111.738281 488.078125 L 112.199219 488.253906 L 112.445313 488.9375 L 113.574219 489.15625 L 118.144531 485.910156 L 121.425781 483.085938 L 124.375 479.769531 L 125.210938 477.886719 L 124.875 476.421875 L 125.640625 474.519531 L 128.386719 473.238281 L 132.105469 472.640625 L 132.679688 471.785156 L 133.257813 469.527344 L 135.859375 467.5625 L 138.636719 464.640625 L 139.128906 458.542969 L 139.796875 454.753906 L 142.492188 455.105469 L 144.269531 456.015625 L 145.761719 455.429688 L 148.429688 452.488281 L 148.105469 447.519531 L 151.105469 446.613281 L 157.421875 446.269531 L 159.910156 445.683594 L 164.597656 446.761719 L 166.046875 446.148438 L 167.527344 446.515625 L 169.484375 447.285156 L 170.039063 448.109375 L 170.757813 448.421875 L 173.15625 448.464844 L 180.570313 447.503906 L 181.109375 445.632813 L 181.210938 443.15625 L 182.519531 440.25 L 190.867188 432.195313 L 195.792969 425.3125 L 197.929688 424.472656 L 198.285156 423.78125 L 198.070313 423.238281 L 197.8125 423.082031 L 196.09375 424.355469 L 192.90625 427.300781 L 190.570313 429.988281 L 189.222656 431.449219 L 185.628906 432.957031 L 183.714844 433.246094 L 182.441406 433.0625 L 178.394531 435.230469 L 177.398438 436.808594 L 177.039063 438.671875 L 176.445313 439.273438 L 174.058594 439.917969 L 170.558594 439.851563 L 166.820313 439 L 166.347656 438.652344 L 161.371094 433.375 L 159.03125 429.199219 L 155.65625 429.589844 L 149.269531 432.308594 L 149.113281 432.746094 L 147.203125 431.632813 L 146.917969 429.308594 L 148.539063 428.378906 L 150.066406 428.890625 L 151.640625 428.421875 L 152.765625 427.832031 L 153.085938 427.097656 L 152.808594 426.597656 L 147.785156 426.460938 L 143.210938 423.710938 L 139.503906 423.714844 L 136.765625 424.277344 L 136.292969 426.515625 L 135.777344 427.203125 L 133.742188 427.917969 L 132.394531 427.265625 L 131.648438 427.453125 L 129.4375 429.378906 L 126.53125 428.132813 L 127.425781 426.082031 L 128.796875 425.832031 L 131.792969 424.328125 L 131.226563 422.867188 L 130.640625 424.257813 L 127.769531 424.613281 L 122.949219 424.152344 L 121.496094 423.164063 L 124.125 421.78125 L 125.167969 421.753906 L 125.464844 421.238281 L 124.929688 417.953125 L 123.328125 417.210938 L 121.445313 417.105469 L 122.0625 415.152344 L 125.933594 413.378906 L 126.539063 411.90625 L 133.074219 411.34375 L 134.871094 409.289063 L 135.753906 407.632813 L 137.585938 406.550781 L 141.359375 406.660156 L 142.21875 406.390625 L 149.359375 401.828125 L 152.136719 398.207031 L 153.054688 396.195313 L 154.199219 391.746094 L 153.734375 388.820313 L 152.566406 386.542969 L 153.179688 384.597656 L 154.652344 381.796875 L 152.269531 378.203125 L 152.683594 374.835938 L 153.175781 374.082031 L 152.804688 373.207031 L 150.203125 373.105469 Z M 141.683594 358.820313 L 141.730469 357.980469 L 141.941406 357.460938 L 142.226563 358.1875 L 141.734375 358.875 Z M 142.058594 357.171875 L 142.4375 356.226563 L 143.671875 354.789063 L 145.300781 353.828125 L 147.148438 353.4375 L 149.40625 353.335938 L 150.050781 353.1875 L 151.039063 355.578125 L 155.546875 356.503906 L 154.066406 358.859375 L 150.984375 360.816406 L 147.425781 363.976563 L 146.109375 363.875 L 144.195313 361.613281 L 142.050781 357.363281 Z M 282.59375 438.261719 L 282.65625 438.246094 L 284.527344 438.117188 L 286.339844 438.589844 L 287.324219 439.234375 L 286.679688 439.636719 L 283.058594 438.976563 Z M 158.097656 293.433594 L 158.003906 292.257813 L 158.429688 290.480469 L 159.386719 288.921875 L 160.78125 287.738281 L 162.472656 287.046875 L 164.296875 286.914063 L 166.847656 287.132813 L 168.789063 286.71875 L 168.226563 288.992188 L 166.234375 288.695313 L 163.3125 290.011719 L 161.832031 291.855469 L 159.410156 293.515625 Z M 174.65625 288.160156 L 174.664063 288.164063 L 175.78125 289.71875 L 176.332031 291.554688 L 176.257813 293.46875 L 175.5625 295.253906 L 173.691406 298.40625 L 172.449219 299.878906 L 170.792969 300.859375 L 168.90625 301.25 L 168.492188 301.195313 L 169.164063 299.058594 L 174.074219 288.722656 Z M 236.835938 466.113281 L 235.136719 465.644531 L 236.523438 463.683594 L 237.195313 464.164063 L 237.5 465.839844 Z M 228.117188 474.644531 L 222.296875 470.886719 L 220.207031 471.1875 L 221.476563 469.683594 L 227.316406 466.367188 L 232.550781 467.761719 L 234.171875 469.894531 L 231.242188 473.621094 L 229.960938 474.269531 Z M 88.429688 500.046875 L 88.566406 499.308594 L 88.941406 499.117188 L 89.34375 499.789063 Z M 88.429688 500.046875 "/>
<path style=" stroke:none;fill-rule:nonzero;fill:rgb(80.392157%,58.431373%,4.705882%);fill-opacity:1;" d="M 220.015625 335.355469 L 219.730469 337.152344 L 218.90625 338.773438 L 217.617188 340.058594 L 215.996094 340.882813 L 214.199219 341.167969 L 212.402344 340.882813 L 210.78125 340.058594 L 209.496094 338.773438 L 208.667969 337.152344 L 208.382813 335.355469 L 208.667969 333.558594 L 209.496094 331.9375 L 210.78125 330.648438 L 212.402344 329.824219 L 214.199219 329.539063 L 215.996094 329.824219 L 217.617188 330.648438 L 218.90625 331.9375 L 219.730469 333.558594 Z M 220.015625 335.355469 "/>
<path style=" stroke:none;fill-rule:nonzero;fill:rgb(80.392157%,58.431373%,4.705882%);fill-opacity:1;" d="M 251.03125 381.875 L 250.746094 383.675781 L 249.921875 385.296875 L 248.632813 386.582031 L 247.011719 387.40625 L 245.214844 387.691406 L 243.417969 387.40625 L 241.796875 386.582031 L 240.511719 385.296875 L 239.683594 383.675781 L 239.398438 381.875 L 239.683594 380.078125 L 240.511719 378.457031 L 241.796875 377.171875 L 243.417969 376.347656 L 245.214844 376.0625 L 247.011719 376.347656 L 248.632813 377.171875 L 249.921875 378.457031 L 250.746094 380.078125 Z M 251.03125 381.875 "/>
<path style=" stroke:none;fill-rule:nonzero;fill:rgb(80.392157%,58.431373%,4.705882%);fill-opacity:1;" d="M 227.769531 319.847656 L 227.484375 321.644531 L 226.660156 323.265625 L 225.371094 324.550781 L 223.75 325.375 L 221.953125 325.660156 L 220.15625 325.375 L 218.535156 324.550781 L 217.25 323.265625 L 216.421875 321.644531 L 216.136719 319.847656 L 216.421875 318.050781 L 217.25 316.429688 L 218.535156 315.140625 L 220.15625 314.316406 L 221.953125 314.03125 L 223.75 314.316406 L 225.371094 315.140625 L 226.660156 316.429688 L 227.484375 318.050781 Z M 227.769531 319.847656 "/>
<path style=" stroke:none;fill-rule:nonzero;fill:rgb(80.392157%,58.431373%,4.705882%);fill-opacity:1;" d="M 254.90625 385.753906 L 254.625 387.550781 L 253.796875 389.171875 L 252.511719 390.457031 L 250.890625 391.285156 L 249.09375 391.570313 L 247.296875 391.285156 L 245.675781 390.457031 L 244.386719 389.171875 L 243.5625 387.550781 L 243.277344 385.753906 L 243.5625 383.957031 L 244.386719 382.335938 L 245.675781 381.050781 L 247.296875 380.222656 L 249.09375 379.9375 L 250.890625 380.222656 L 252.511719 381.050781 L 253.796875 382.335938 L 254.625 383.957031 Z M 254.90625 385.753906 "/>
<path style=" stroke:none;fill-rule:nonzero;fill:rgb(80.392157%,58.431373%,4.705882%);fill-opacity:1;" d="M 247.152344 366.371094 L 246.871094 368.167969 L 246.042969 369.789063 L 244.757813 371.074219 L 243.136719 371.898438 L 241.339844 372.183594 L 239.542969 371.898438 L 237.921875 371.074219 L 236.632813 369.789063 L 235.808594 368.167969 L 235.523438 366.371094 L 235.808594 364.570313 L 236.632813 362.949219 L 237.921875 361.664063 L 239.542969 360.839844 L 241.339844 360.554688 L 243.136719 360.839844 L 244.757813 361.664063 L 246.042969 362.949219 L 246.871094 364.570313 Z M 247.152344 366.371094 "/>
<path style=" stroke:none;fill-rule:nonzero;fill:rgb(80.392157%,58.431373%,4.705882%);fill-opacity:1;" d="M 196.753906 292.707031 L 196.46875 294.503906 L 195.644531 296.125 L 194.355469 297.414063 L 192.734375 298.238281 L 190.9375 298.523438 L 189.140625 298.238281 L 187.519531 297.414063 L 186.234375 296.125 L 185.40625 294.503906 L 185.125 292.707031 L 185.40625 290.910156 L 186.234375 289.289063 L 187.519531 288.003906 L 189.140625 287.175781 L 190.9375 286.890625 L 192.734375 287.175781 L 194.355469 288.003906 L 195.644531 289.289063 L 196.46875 290.910156 Z M 196.753906 292.707031 "/>
<path style=" stroke:none;fill-rule:nonzero;fill:rgb(80.392157%,58.431373%,4.705882%);fill-opacity:1;" d="M 196.753906 257.816406 L 196.46875 259.613281 L 195.644531 261.234375 L 194.355469 262.519531 L 192.734375 263.347656 L 190.9375 263.628906 L 189.140625 263.347656 L 187.519531 262.519531 L 186.234375 261.234375 L 185.40625 259.613281 L 185.125 257.816406 L 185.40625 256.019531 L 186.234375 254.398438 L 187.519531 253.109375 L 189.140625 252.285156 L 190.9375 252 L 192.734375 252.285156 L 194.355469 253.109375 L 195.644531 254.398438 L 196.46875 256.019531 Z M 196.753906 257.816406 "/>
<path style=" stroke:none;fill-rule:nonzero;fill:rgb(80.392157%,58.431373%,4.705882%);fill-opacity:1;" d="M 200.628906 257.816406 L 200.347656 259.613281 L 199.519531 261.234375 L 198.234375 262.519531 L 196.613281 263.347656 L 194.816406 263.628906 L 193.019531 263.347656 L 191.398438 262.519531 L 190.109375 261.234375 L 189.285156 259.613281 L 189 257.816406 L 189.285156 256.019531 L 190.109375 254.398438 L 191.398438 253.109375 L 193.019531 252.285156 L 194.816406 252 L 196.613281 252.285156 L 198.234375 253.109375 L 199.519531 254.398438 L 200.347656 256.019531 Z M 200.628906 257.816406 "/>
<path style=" stroke:none;fill-rule:nonzero;fill:rgb(80.392157%,58.431373%,4.705882%);fill-opacity:1;" d="M 196.753906 188.03125 L 196.46875 189.828125 L 195.644531 191.449219 L 194.355469 192.734375 L 192.734375 193.5625 L 190.9375 193.847656 L 189.140625 193.5625 L 187.519531 192.734375 L 186.234375 191.449219 L 185.40625 189.828125 L 185.125 188.03125 L 185.40625 186.234375 L 186.234375 184.613281 L 187.519531 183.324219 L 189.140625 182.5 L 190.9375 182.214844 L 192.734375 182.5 L 194.355469 183.324219 L 195.644531 184.613281 L 196.46875 186.234375 Z M 196.753906 188.03125 "/>
<path style=" stroke:none;fill-rule:nonzero;fill:rgb(80.392157%,58.431373%,4.705882%);fill-opacity:1;" d="M 177.371094 308.214844 L 177.085938 310.011719 L 176.257813 311.632813 L 174.972656 312.921875 L 173.351563 313.746094 L 172.65625 313.855469 L 172.289063 311.832031 L 167.40625 304.652344 L 167.59375 304.050781 L 168.136719 303.511719 L 169.757813 302.683594 L 171.554688 302.398438 L 173.351563 302.683594 L 174.972656 303.511719 L 176.257813 304.796875 L 177.085938 306.417969 Z M 177.371094 308.214844 "/>
<path style=" stroke:none;fill-rule:nonzero;fill:rgb(80.392157%,58.431373%,4.705882%);fill-opacity:1;" d="M 210.738281 253.894531 L 209.863281 254.765625 L 208.242188 255.59375 L 206.445313 255.875 L 204.648438 255.59375 L 203.027344 254.765625 L 201.742188 253.480469 L 200.914063 251.859375 L 200.628906 250.0625 L 200.914063 248.265625 L 201.742188 246.644531 L 203.027344 245.355469 L 203.582031 245.074219 L 206.488281 246.65625 L 208.910156 251.429688 Z M 210.738281 253.894531 "/>
<path style=" stroke:none;fill-rule:nonzero;fill:rgb(80.392157%,58.431373%,4.705882%);fill-opacity:1;" d="M 178.578125 238.070313 L 178.480469 237.972656 L 177.652344 236.351563 L 177.371094 234.554688 L 177.652344 232.757813 L 178.480469 231.136719 L 179.765625 229.847656 L 181.386719 229.023438 L 183.183594 228.738281 L 184.980469 229.023438 L 186.601563 229.847656 L 187.890625 231.136719 L 188.714844 232.757813 L 188.726563 232.832031 L 188.34375 232.882813 L 187.070313 232.078125 L 185.40625 232.042969 L 181.046875 235.800781 L 180.578125 237.003906 Z M 178.578125 238.070313 "/>
<path style=" stroke:none;fill-rule:nonzero;fill:rgb(80.392157%,58.431373%,4.705882%);fill-opacity:1;" d="M 147.992188 317.859375 L 146.496094 317.625 L 144.875 316.796875 L 143.585938 315.511719 L 142.824219 314.011719 L 144.765625 310.230469 L 145.863281 309.40625 L 149.046875 308.269531 L 150.203125 313.453125 Z M 147.992188 317.859375 "/>
</g>
</svg>
