<?xml version="1.0" encoding="UTF-8"?>
<svg xmlns="http://www.w3.org/2000/svg" xmlns:xlink="http://www.w3.org/1999/xlink" width="378pt" height="504pt" viewBox="0 0 378 504" version="1.1">
<g id="data">
<rect x="0" y="0" width="378" height="504" style="fill:rgb(100%,100%,100%);fill-opacity:1;stroke:none;"/>
<path style=" stroke:none;fill-rule:nonzero;fill:rgb(100%,100%,100%);fill-opacity:1;" d="M 53.308594 504 L 324.691406 504 L 324.691406 0 L 53.308594 0 Z M 53.308594 504 "/>
<path style=" stroke:none;fill-rule:nonzero;fill:rgb(22.745098%,53.333333%,16.078431%);fill-opacity:1;" d="M 221.953125 319.847656 L 222.980469 317.40625 L 223.429688 314.800781 L 225.832031 315.96875 L 228.433594 316.566406 L 230.980469 316.566406 L 233.585938 315.96875 L 232.257813 319.707031 L 232.285156 323.804688 L 233.734375 327.632813 L 236.417969 330.726563 L 240.472656 333.425781 L 242.539063 334.125 L 244.703125 334.425781 L 246.882813 334.320313 L 249.125 333.761719 L 251.210938 332.773438 L 252.96875 331.476563 L 252.96875 335.355469 L 250.882813 336.328125 L 249.03125 337.695313 L 247.777344 339.058594 L 245.550781 339.511719 L 244.589844 338.644531 L 243.40625 338.558594 L 241.210938 339.871094 L 241.886719 340.445313 L 246.324219 340.394531 L 247.027344 340.171875 L 246.355469 341.265625 L 245.421875 344.050781 L 245.214844 346.984375 L 243.265625 349.996094 L 242.3125 353.582031 L 242.414063 356.660156 L 243.316406 359.601563 L 245.214844 362.492188 L 246.753906 365.875 L 249.28125 368.601563 L 252.417969 370.347656 L 255.808594 371.046875 L 258.371094 370.902344 L 260.722656 370.246094 L 263.945313 370.246094 L 261.394531 373.164063 L 260.601563 374.816406 L 262.84375 374.3125 L 264.9375 375.519531 L 266.9375 378.226563 L 270.21875 378.804688 L 270.625 378.746094 L 271.910156 376.796875 L 272.234375 374.960938 L 273.40625 371.914063 L 274.234375 371.09375 L 275.753906 370.449219 L 276.925781 370.246094 L 280.109375 370.246094 L 282.722656 372.441406 L 285.984375 373.8125 L 289.484375 374.28125 L 295.617188 374.125 L 296.753906 376.699219 L 298.476563 378.925781 L 300.792969 380.738281 L 303.371094 381.875 L 305.074219 384.046875 L 306.8125 385.410156 L 307.179688 391.25 L 306.777344 393.191406 L 306.867188 393.828125 L 304.476563 395.859375 L 301.667969 399.261719 L 300.464844 401.34375 L 299.542969 404.632813 L 299.492188 409.015625 L 297.71875 410.996094 L 296.425781 413.375 L 295.578125 412.011719 L 292.742188 410.515625 L 292.480469 410.636719 L 293.898438 413.703125 L 295.75 416.421875 L 295.515625 417.515625 L 295.546875 418.542969 L 294.574219 419.804688 L 292.191406 421.289063 L 290.003906 421.65625 L 289.660156 421.574219 L 288.214844 419.332031 L 284.976563 421.730469 L 280.71875 424.230469 L 282.339844 425.378906 L 285.105469 424.398438 L 286.097656 423.375 L 286.894531 423.164063 L 287.328125 423.710938 L 287.632813 428.84375 L 285.6875 430.875 L 283.441406 432.558594 L 282.84375 432.699219 L 279.644531 432.160156 L 274.75 433.78125 L 272.609375 436.117188 L 274.253906 436.015625 L 275.152344 434.667969 L 276.683594 434.363281 L 278.285156 434.328125 L 281.054688 434.949219 L 281.828125 435.589844 L 281.691406 436.328125 L 279.554688 436.347656 L 277.390625 437.65625 L 277.96875 438.546875 L 281.382813 438.964844 L 286.863281 440.339844 L 289.394531 439.9375 L 291.074219 438.957031 L 296.363281 438.226563 L 299.492188 440.03125 L 298.828125 443.90625 L 299.492188 447.785156 L 297.929688 449.769531 L 296.972656 450.242188 L 295.839844 450.375 L 293.800781 451.175781 L 293.011719 450.964844 L 290.3125 450.886719 L 287.550781 451.472656 L 285.117188 452.640625 L 282.417969 455 L 281.054688 457.027344 L 280.109375 459.414063 L 277.9375 461.121094 L 277.042969 462.261719 L 274.789063 462.777344 L 272.597656 463.816406 L 272.15625 464.414063 L 271.980469 464.480469 L 270.050781 465.695313 L 268.96875 466.710938 L 267.429688 466.246094 L 265.804688 464.808594 L 262.539063 463.371094 L 259.761719 462.980469 L 256.847656 463.292969 L 254.242188 462.695313 L 251.695313 462.695313 L 245.414063 464.214844 L 243.214844 465.46875 L 241.339844 467.167969 L 239.964844 467.289063 L 238.210938 466.1875 L 238.632813 465.4375 L 239.46875 464.933594 L 237.714844 463.296875 L 231.496094 463.171875 L 231.378906 463.496094 L 232.574219 464.835938 L 232.214844 465.75 L 231.738281 466.042969 L 226.691406 465.496094 L 219.566406 468.449219 L 217.054688 467.824219 L 214.925781 468.179688 L 214.199219 468.085938 L 210.050781 468.851563 L 209.882813 468.953125 L 208.164063 468.875 L 207.273438 468.058594 L 206.238281 469.769531 L 207.609375 470.335938 L 206.445313 471.046875 L 203.441406 470.933594 L 199.601563 471.6875 L 198.699219 472.144531 L 197.625 472.007813 L 196.175781 472.65625 L 195.679688 473.863281 L 195.71875 474.128906 L 195.183594 474.601563 L 194.851563 473.972656 L 194.117188 473.429688 L 193.132813 471.328125 L 190.234375 468.433594 L 186.632813 466.753906 L 182.679688 466.386719 L 178.578125 467.417969 L 175.566406 469.101563 L 174.417969 470.3125 L 174.339844 470.335938 L 171.554688 471.847656 L 171.554688 467.167969 L 173.773438 464.710938 L 175.167969 461.84375 L 175.734375 458.710938 L 175.429688 455.539063 L 178.039063 455.019531 L 180.570313 453.855469 L 186.035156 449.089844 L 187.761719 446.085938 L 188.523438 442.714844 L 188.292969 439.386719 L 187.0625 436.152344 L 189.234375 436.074219 L 191.355469 435.589844 L 193.460938 434.65625 L 195.246094 433.410156 L 196.765625 431.851563 L 197.96875 430.039063 L 198.855469 427.910156 L 199.296875 425.769531 L 199.292969 423.203125 L 198.722656 420.695313 L 197.617188 418.375 L 196.121094 416.445313 L 194.253906 414.875 L 191.980469 413.675781 L 189.628906 413.027344 L 187.0625 412.890625 L 185.355469 410.722656 L 183.183594 409.015625 L 181.113281 406.496094 L 179.308594 405.136719 L 180.78125 403.566406 L 181.996094 401.636719 L 182.8125 399.507813 L 183.183594 397.382813 L 186.835938 395.292969 L 189.503906 392.042969 L 190.558594 389.433594 L 190.9375 385.753906 L 191.90625 383.515625 L 192.371094 381.25 L 192.132813 377.417969 L 190.722656 373.980469 L 189.414063 372.230469 L 187.0625 370.246094 L 185.355469 368.074219 L 183.183594 366.371094 L 185.355469 364.664063 L 187.0625 362.492188 L 189.578125 360.421875 L 190.9375 358.617188 L 194.816406 358.617188 L 194.816406 362.492188 L 194.226563 364.992188 L 194.203125 367.5625 L 194.871094 370.4375 L 196.242188 373.054688 L 198.527344 375.484375 L 201.40625 377.167969 L 204.390625 377.9375 L 208.246094 377.964844 L 210.882813 377.394531 L 213.207031 376.296875 L 215.234375 374.71875 L 216.933594 372.625 L 218.066406 370.316406 L 218.675781 367.691406 L 218.664063 364.992188 L 218.078125 362.492188 L 219.914063 365.714844 L 222.667969 368.195313 L 226.066406 369.679688 L 229.757813 370.023438 L 233.128906 369.28125 L 236.238281 367.5 L 239.308594 364.429688 L 241.078125 361.046875 L 241.652344 357.269531 L 240.964844 352.617188 L 239.589844 349.492188 L 237.460938 346.984375 L 236.972656 342.914063 L 235.183594 339.371094 L 232.515625 336.78125 L 229.167969 335.164063 L 225.609375 334.683594 L 221.953125 335.355469 L 223.125 332.519531 L 223.511719 329.601563 L 223.125 326.558594 L 221.953125 323.722656 Z M 233.90625 469.542969 L 231.796875 471.273438 L 230.132813 474.179688 L 229.960938 474.269531 L 228.117188 474.644531 L 222.296875 470.886719 L 221.804688 470.957031 L 220.941406 470.316406 L 221.476563 469.683594 L 227.316406 466.367188 L 232.550781 467.761719 Z M 286.679688 439.636719 L 283.058594 438.976563 L 282.164063 437.605469 L 282.484375 436.070313 L 286.839844 437.054688 L 287.960938 438.832031 Z M 236.835938 466.113281 L 235.136719 465.644531 L 236.523438 463.683594 L 237.195313 464.164063 L 237.5 465.839844 Z M 236.835938 466.113281 "/>
</g>
</svg>
