<?xml version="1.0" encoding="UTF-8"?>
<svg xmlns="http://www.w3.org/2000/svg" xmlns:xlink="http://www.w3.org/1999/xlink" width="378pt" height="504pt" viewBox="0 0 378 504" version="1.1">
<g id="data">
<rect x="0" y="0" width="378" height="504" style="fill:rgb(100%,100%,100%);fill-opacity:1;stroke:none;"/>
<path style=" stroke:none;fill-rule:nonzero;fill:rgb(100%,100%,100%);fill-opacity:1;" d="M 53.308594 504 L 324.691406 504 L 324.691406 0 L 53.308594 0 Z M 53.308594 504 "/>
<path style=" stroke:none;fill-rule:nonzero;fill:rgb(22.745098%,53.333333%,16.078431%);fill-opacity:1;" d="M 187.617188 418.679688 L 185.664063 418.539063 L 183.867188 417.753906 L 182.433594 416.414063 L 181.527344 414.675781 L 181.25 412.738281 L 181.628906 410.8125 L 182.542969 408.433594 L 182.722656 405.890625 L 183.160156 404.050781 L 184.164063 402.453125 L 185.628906 401.257813 L 187.398438 400.597656 L 189.285156 400.539063 L 191.09375 401.085938 L 192.8125 401.933594 L 194.050781 402.234375 L 195.324219 402.253906 L 196.554688 402 L 197.875 401.394531 L 199.777344 400.015625 L 202.097656 397.402344 L 203.253906 396.398438 L 204.632813 395.734375 L 206.140625 395.453125 L 208.042969 395.355469 L 209.363281 394.976563 L 210.464844 394.363281 L 211.367188 393.558594 L 212.265625 392.242188 L 212.765625 390.800781 L 212.867188 389.292969 L 212.382813 386.929688 L 212.292969 385.140625 L 212.753906 383.414063 L 213.714844 381.90625 L 215.480469 379.910156 L 216.230469 378.207031 L 216.40625 376.941406 L 216.171875 374.742188 L 216.261719 372.921875 L 216.914063 371.222656 L 218.058594 369.804688 L 219.589844 368.808594 L 221.351563 368.339844 L 223.171875 368.4375 L 224.871094 369.09375 L 226.285156 370.242188 L 227.273438 371.773438 L 228.125 373.699219 L 228.980469 374.804688 L 230.0625 375.664063 L 232.085938 376.570313 L 233.535156 377.5 L 234.648438 378.808594 L 235.328125 380.390625 L 235.519531 382.097656 L 235.199219 383.789063 L 234.398438 385.3125 L 232.75 387.5625 L 232.203125 389.230469 L 232.191406 390.988281 L 232.792969 392.875 L 233.460938 393.882813 L 234.445313 394.8125 L 235.523438 395.4375 L 236.785156 395.828125 L 238.429688 395.921875 L 242.335938 395.34375 L 243.65625 394.929688 L 244.589844 394.410156 L 245.695313 393.421875 L 246.433594 392.347656 L 246.941406 391.023438 L 247.195313 388.925781 L 247.65625 387.269531 L 248.574219 385.820313 L 249.878906 384.703125 L 251.453125 384.015625 L 253.15625 383.820313 L 254.84375 384.125 L 256.371094 384.914063 L 257.851563 385.980469 L 258.960938 386.46875 L 260.148438 386.714844 L 261.246094 386.710938 L 262.890625 386.28125 L 265.367188 384.714844 L 267.210938 383.953125 L 269.621094 383.417969 L 271.234375 382.507813 L 272.027344 381.75 L 272.664063 380.816406 L 273.109375 379.777344 L 273.351563 378.574219 L 273.335938 377.347656 L 273.097656 376.261719 L 272.597656 375.140625 L 272.316406 374.75 L 273.40625 371.914063 L 274.707031 370.632813 L 277.851563 370.085938 L 283.34375 370.234375 L 284.253906 370.867188 L 286.703125 370.742188 L 293.949219 371.515625 L 296.914063 372.84375 L 298.15625 373.753906 L 298.160156 373.757813 L 299.566406 375.066406 L 300.554688 375.507813 L 304.070313 378.085938 L 305.367188 380.105469 L 306.730469 384.164063 L 307.179688 391.25 L 306.777344 393.191406 L 306.890625 393.976563 L 305.789063 396.917969 L 303.519531 407.832031 L 297.144531 414.53125 L 295.578125 412.011719 L 292.742188 410.515625 L 292.480469 410.636719 L 293.898438 413.703125 L 295.890625 416.628906 L 296.3125 416.765625 L 296.164063 417.742188 L 294.574219 419.804688 L 292.191406 421.289063 L 290.003906 421.65625 L 289.660156 421.574219 L 288.214844 419.332031 L 284.976563 421.730469 L 280.71875 424.230469 L 282.339844 425.378906 L 285.105469 424.398438 L 286.097656 423.375 L 286.894531 423.164063 L 287.328125 423.710938 L 287.632813 428.84375 L 285.6875 430.875 L 283.441406 432.558594 L 282.84375 432.699219 L 279.644531 432.160156 L 274.75 433.78125 L 272.609375 436.117188 L 274.253906 436.015625 L 275.152344 434.667969 L 276.683594 434.363281 L 278.285156 434.328125 L 281.054688 434.949219 L 281.507813 435.324219 L 280.292969 435.144531 L 278.917969 435.277344 L 277.546875 435.765625 L 275.644531 437.070313 L 274.246094 437.777344 L 272.710938 438.082031 L 271.148438 437.964844 L 269.550781 437.628906 L 268.464844 437.605469 L 267.390625 437.789063 L 266.617188 438.074219 L 264.714844 439.46875 L 263.585938 441.195313 L 263.171875 442.832031 L 263.300781 444.726563 L 263.890625 446.234375 L 265.339844 448.121094 L 266.113281 449.484375 L 266.5 451 L 266.835938 453.945313 L 267.714844 455.730469 L 269.003906 457.011719 L 270.574219 457.800781 L 272.335938 458.082031 L 275.277344 457.636719 L 277.125 457.652344 L 278.871094 458.25 L 280.34375 459.363281 L 281.265625 460.695313 L 281.042969 460.90625 L 278.484375 461.933594 L 274.789063 462.777344 L 272.597656 463.816406 L 270.539063 466.589844 L 269.761719 466.949219 L 259.269531 463.777344 L 256.070313 463.507813 L 244.628906 465.699219 L 242.703125 466.390625 L 242.113281 466.964844 L 241.902344 467.984375 L 241.359375 468.164063 L 238.210938 466.1875 L 238.632813 465.4375 L 239.46875 464.933594 L 237.714844 463.296875 L 231.496094 463.171875 L 231.378906 463.496094 L 232.574219 464.835938 L 232.214844 465.75 L 231.738281 466.042969 L 226.691406 465.496094 L 219.566406 468.449219 L 217.054688 467.824219 L 210.222656 468.96875 L 208.164063 468.875 L 207.273438 468.058594 L 206.238281 469.769531 L 209.429688 471.089844 L 209.714844 470.9375 L 210.1875 472.128906 L 209.566406 473.890625 L 206.84375 474.453125 L 204.453125 473.097656 L 203.015625 472.699219 L 200.859375 472.421875 L 200.824219 472.339844 L 200.695313 470.457031 L 201.179688 468.632813 L 202.21875 467.058594 L 203.316406 465.875 L 203.933594 464.875 L 204.3125 463.878906 L 204.597656 462.277344 L 205.160156 460.613281 L 206.199219 459.191406 L 207.613281 458.148438 L 209.5625 457.121094 L 210.644531 456.136719 L 211.441406 454.914063 L 211.90625 453.527344 L 212.007813 452.070313 L 211.742188 450.636719 L 211.125 449.3125 L 209.71875 447.617188 L 208.730469 445.878906 L 208.382813 443.90625 L 208.382813 440.03125 L 208.820313 437.824219 L 210.058594 435.949219 L 211.265625 434.722656 L 211.890625 433.769531 L 212.316406 432.707031 L 212.53125 431.566406 L 212.519531 430.417969 L 212.15625 428.230469 L 211.152344 426.011719 L 208.957031 423.6875 L 207.027344 422.625 L 205.222656 422.296875 L 198.953125 422.578125 L 196.710938 422.238281 L 194.773438 421.066406 L 193.011719 419.460938 L 191.617188 418.761719 L 189.972656 418.453125 Z M 287.542969 438.167969 L 286.207031 437.929688 L 284.65625 437.121094 L 283.554688 436.3125 L 286.839844 437.054688 Z M 232.136719 340.984375 L 230.449219 340.25 L 229.078125 339.027344 L 228.15625 337.4375 L 227.777344 335.636719 L 227.980469 333.808594 L 228.742188 332.132813 L 229.988281 330.78125 L 231.613281 329.503906 L 232.890625 327.882813 L 234.101563 326.730469 L 235.59375 325.96875 L 237.238281 325.664063 L 238.902344 325.84375 L 240.445313 326.484375 L 241.742188 327.542969 L 243.789063 329.765625 L 246.472656 331.15625 L 248.007813 332.308594 L 249.085938 333.894531 L 249.585938 335.746094 L 249.457031 337.664063 L 248.972656 338.820313 L 245.550781 339.511719 L 244.589844 338.644531 L 243.40625 338.558594 L 241.210938 339.871094 L 241.886719 340.445313 L 246.324219 340.394531 L 248.460938 339.714844 L 247.433594 340.863281 L 244.5 343.210938 L 242.890625 344.121094 L 241.074219 344.480469 L 239.238281 344.253906 L 237.570313 343.460938 L 235.070313 341.742188 Z M 177.195313 458.730469 L 177.121094 457.449219 L 177.5 454.019531 L 177.378906 452.007813 L 177.5625 450.179688 L 178.300781 448.503906 L 179.019531 447.707031 L 180.570313 447.503906 L 180.902344 446.347656 L 181.121094 446.226563 L 182.917969 445.851563 L 184.738281 446.058594 L 186.410156 446.820313 L 187.753906 448.066406 L 189.03125 449.691406 L 190.65625 450.96875 L 191.972656 452.421875 L 192.730469 454.234375 L 192.839844 456.191406 L 192.292969 458.078125 L 191.152344 459.671875 L 189.542969 460.796875 L 187.941406 461.554688 L 186.433594 462.707031 L 185.273438 463.316406 L 185.367188 464.441406 L 185.105469 467.644531 L 184.929688 468.335938 L 183.121094 467.984375 L 181.648438 469.066406 L 176.207031 469.78125 L 174.339844 470.335938 L 172.382813 471.398438 L 171.253906 470.550781 L 170.207031 469.054688 L 169.671875 467.308594 L 169.707031 465.480469 L 170.304688 463.757813 L 171.410156 462.300781 L 172.914063 461.261719 L 174.617188 460.445313 L 176.015625 459.363281 Z M 236.835938 466.113281 L 235.136719 465.644531 L 236.523438 463.683594 L 237.195313 464.164063 L 237.5 465.839844 Z M 228.117188 474.644531 L 222.296875 470.886719 L 220.207031 471.1875 L 221.476563 469.683594 L 227.316406 466.367188 L 232.550781 467.761719 L 234.171875 469.894531 L 231.242188 473.621094 L 229.960938 474.269531 Z M 228.117188 474.644531 "/>
<path style=" stroke:none;fill-rule:nonzero;fill:rgb(80.392157%,58.431373%,4.705882%);fill-opacity:1;" d="M 192.875 370.246094 L 192.59375 372.042969 L 191.765625 373.664063 L 190.480469 374.949219 L 188.859375 375.777344 L 187.0625 376.0625 L 185.265625 375.777344 L 183.644531 374.949219 L 182.355469 373.664063 L 181.53125 372.042969 L 181.246094 370.246094 L 181.53125 368.449219 L 182.355469 366.828125 L 183.644531 365.542969 L 185.265625 364.714844 L 187.0625 364.429688 L 188.859375 364.714844 L 190.480469 365.542969 L 191.765625 366.828125 L 192.59375 368.449219 Z M 192.875 370.246094 "/>
<path style=" stroke:none;fill-rule:nonzero;fill:rgb(80.392157%,58.431373%,4.705882%);fill-opacity:1;" d="M 247.152344 354.738281 L 246.871094 356.535156 L 246.042969 358.15625 L 244.757813 359.441406 L 243.136719 360.269531 L 241.339844 360.554688 L 239.542969 360.269531 L 237.921875 359.441406 L 236.632813 358.15625 L 235.808594 356.535156 L 235.523438 354.738281 L 235.808594 352.941406 L 236.632813 351.320313 L 237.921875 350.035156 L 239.542969 349.207031 L 241.339844 348.921875 L 243.136719 349.207031 L 244.757813 350.035156 L 246.042969 351.320313 L 246.871094 352.941406 Z M 247.152344 354.738281 "/>
<path style=" stroke:none;fill-rule:nonzero;fill:rgb(80.392157%,58.431373%,4.705882%);fill-opacity:1;" d="M 192.875 366.371094 L 192.59375 368.167969 L 191.765625 369.789063 L 190.480469 371.074219 L 188.859375 371.898438 L 187.0625 372.183594 L 185.265625 371.898438 L 183.644531 371.074219 L 182.355469 369.789063 L 181.53125 368.167969 L 181.246094 366.371094 L 181.53125 364.570313 L 182.355469 362.949219 L 183.644531 361.664063 L 185.265625 360.839844 L 187.0625 360.554688 L 188.859375 360.839844 L 190.480469 361.664063 L 191.765625 362.949219 L 192.59375 364.570313 Z M 192.875 366.371094 "/>
<path style=" stroke:none;fill-rule:nonzero;fill:rgb(80.392157%,58.431373%,4.705882%);fill-opacity:1;" d="M 200.628906 281.078125 L 200.347656 282.875 L 199.519531 284.496094 L 198.234375 285.78125 L 196.613281 286.609375 L 194.816406 286.890625 L 193.019531 286.609375 L 191.398438 285.78125 L 190.109375 284.496094 L 189.285156 282.875 L 189 281.078125 L 189.285156 279.28125 L 190.109375 277.660156 L 191.398438 276.371094 L 193.019531 275.546875 L 194.816406 275.261719 L 196.613281 275.546875 L 198.234375 276.371094 L 199.519531 277.660156 L 200.347656 279.28125 Z M 200.628906 281.078125 "/>
<path style=" stroke:none;fill-rule:nonzero;fill:rgb(80.392157%,58.431373%,4.705882%);fill-opacity:1;" d="M 185.125 292.707031 L 184.839844 294.503906 L 184.011719 296.125 L 182.726563 297.414063 L 181.105469 298.238281 L 179.308594 298.523438 L 177.511719 298.238281 L 175.890625 297.414063 L 174.601563 296.125 L 173.777344 294.503906 L 173.492188 292.707031 L 173.777344 290.910156 L 174.601563 289.289063 L 175.890625 288.003906 L 177.511719 287.175781 L 179.308594 286.890625 L 181.105469 287.175781 L 182.726563 288.003906 L 184.011719 289.289063 L 184.839844 290.910156 Z M 185.125 292.707031 "/>
<path style=" stroke:none;fill-rule:nonzero;fill:rgb(80.392157%,58.431373%,4.705882%);fill-opacity:1;" d="M 223.835938 285.296875 L 223.609375 286.75 L 222.78125 288.371094 L 221.496094 289.660156 L 219.875 290.484375 L 218.078125 290.769531 L 216.28125 290.484375 L 214.660156 289.660156 L 213.371094 288.371094 L 212.546875 286.75 L 212.261719 284.953125 L 212.546875 283.15625 L 213.371094 281.535156 L 214.660156 280.25 L 216.28125 279.421875 L 218.078125 279.136719 L 219.875 279.421875 L 221.15625 280.078125 L 221.269531 280.457031 L 222.984375 284.039063 L 223.773438 285.027344 Z M 223.835938 285.296875 "/>
<path style=" stroke:none;fill-rule:nonzero;fill:rgb(80.392157%,58.431373%,4.705882%);fill-opacity:1;" d="M 157.984375 362.492188 L 157.699219 364.289063 L 156.875 365.910156 L 155.585938 367.195313 L 153.964844 368.023438 L 152.167969 368.308594 L 150.371094 368.023438 L 148.75 367.195313 L 147.59375 366.039063 L 147.953125 364.523438 L 151.550781 360.582031 L 153.09375 359.609375 L 154.941406 359.808594 L 156.816406 359.015625 L 156.875 359.074219 L 157.699219 360.695313 Z M 146.578125 363.910156 L 146.355469 362.492188 L 146.636719 360.695313 L 147.464844 359.074219 L 148.75 357.789063 L 150.371094 356.960938 L 152.167969 356.675781 L 153.964844 356.960938 L 154.945313 357.460938 L 154.066406 358.859375 L 150.984375 360.816406 L 147.425781 363.976563 Z M 146.578125 363.910156 "/>
</g>
</svg>
