<?xml version="1.0" encoding="UTF-8"?>
<svg xmlns="http://www.w3.org/2000/svg" xmlns:xlink="http://www.w3.org/1999/xlink" width="378pt" height="504pt" viewBox="0 0 378 504" version="1.1">
<g id="data">
<rect x="0" y="0" width="378" height="504" style="fill:rgb(100%,100%,100%);fill-opacity:1;stroke:none;"/>
<path style=" stroke:none;fill-rule:nonzero;fill:rgb(100%,100%,100%);fill-opacity:1;" d="M 53.308594 504 L 324.691406 504 L 324.691406 0 L 53.308594 0 Z M 53.308594 504 "/>
<path style=" stroke:none;fill-rule:nonzero;fill:rgb(22.745098%,53.333333%,16.078431%);fill-opacity:1;" d="M 187.0625 412.890625 L 188.28125 409.707031 L 188.523438 406.304688 L 190.820313 407.433594 L 193.308594 408.035156 L 195.871094 408.078125 L 198.378906 407.558594 L 200.820313 406.4375 L 203.707031 404.351563 L 206.445313 401.261719 L 209.011719 401.125 L 211.484375 400.429688 L 213.746094 399.207031 L 215.769531 397.425781 L 217.507813 394.878906 L 218.515625 391.96875 L 218.722656 388.894531 L 218.078125 385.753906 L 220.4375 383.082031 L 221.875 379.816406 L 222.265625 377.039063 L 221.953125 374.125 L 223.089844 376.699219 L 224.8125 378.925781 L 227.023438 380.671875 L 229.707031 381.875 L 227.570313 384.761719 L 226.394531 388.285156 L 226.371094 391.871094 L 227.496094 395.410156 L 228.984375 397.660156 L 230.949219 399.503906 L 233.167969 400.796875 L 235.742188 401.59375 L 238.691406 401.761719 L 243.640625 401.03125 L 245.847656 400.351563 L 247.984375 399.175781 L 250.003906 397.386719 L 251.617188 395.070313 L 252.625 392.433594 L 252.96875 389.628906 L 254.949219 391.058594 L 257.179688 392.039063 L 259.566406 392.535156 L 262.007813 392.519531 L 265.230469 391.683594 L 268.476563 389.628906 L 271.839844 388.859375 L 274.730469 387.214844 L 276.402344 385.628906 L 277.789063 383.628906 L 278.691406 381.507813 L 279.171875 379.121094 L 279.144531 376.6875 L 278.652344 374.4375 L 277.660156 372.214844 L 276.308594 370.351563 L 276.925781 370.246094 L 280.109375 370.246094 L 282.890625 372.671875 L 286.167969 374.074219 L 288.949219 374.4375 L 291.738281 374.125 L 293.585938 377.476563 L 296.3125 379.976563 L 299.6875 381.496094 L 303.371094 381.875 L 303.742188 384 L 304.558594 386.128906 L 305.773438 388.058594 L 307.066406 389.4375 L 307.089844 389.824219 L 304.855469 392.574219 L 303.851563 394.898438 L 303.371094 397.382813 L 301.449219 399.574219 L 300.175781 402.050781 L 299.390625 405.886719 L 299.492188 409.015625 L 297.230469 411.738281 L 296.503906 413.5 L 295.578125 412.011719 L 292.742188 410.515625 L 292.480469 410.636719 L 293.898438 413.703125 L 295.714844 416.375 L 295.464844 418.140625 L 295.496094 418.609375 L 294.574219 419.804688 L 292.191406 421.289063 L 290.003906 421.65625 L 289.660156 421.574219 L 288.214844 419.332031 L 284.976563 421.730469 L 280.71875 424.230469 L 282.339844 425.378906 L 285.105469 424.398438 L 286.097656 423.375 L 286.894531 423.164063 L 287.328125 423.710938 L 287.632813 428.84375 L 285.800781 430.757813 L 283.222656 429.699219 L 280.441406 429.289063 L 277.644531 429.554688 L 274.765625 430.601563 L 272.355469 432.277344 L 270.21875 431.824219 L 268.035156 431.78125 L 265.878906 432.144531 L 263.832031 432.90625 L 260.515625 435.308594 L 258.1875 438.828125 L 257.296875 442.433594 L 257.558594 446.011719 L 258.710938 449.003906 L 260.722656 451.660156 L 261.175781 455.605469 L 262.925781 459.171875 L 265.5625 461.789063 L 268.769531 463.40625 L 272.316406 463.964844 L 272.511719 463.933594 L 270.539063 466.589844 L 269.785156 466.9375 L 269.746094 466.945313 L 268.03125 466.425781 L 266.3125 463.554688 L 263 460.949219 L 258.976563 459.695313 L 254.769531 459.957031 L 251.691406 461.214844 L 249.09375 463.292969 L 246.726563 463.734375 L 244.503906 464.65625 L 241.339844 467.167969 L 239.976563 467.296875 L 238.210938 466.1875 L 238.632813 465.4375 L 239.46875 464.933594 L 237.714844 463.296875 L 231.496094 463.171875 L 231.378906 463.496094 L 232.574219 464.835938 L 232.214844 465.75 L 231.738281 466.042969 L 226.691406 465.496094 L 219.566406 468.449219 L 217.054688 467.824219 L 214.945313 468.179688 L 213.585938 468.101563 L 211.058594 468.515625 L 209.984375 468.957031 L 208.300781 468.878906 L 209.117188 467.578125 L 209.910156 465.554688 L 210.324219 463.292969 L 212.929688 461.921875 L 215.105469 459.9375 L 216.71875 457.46875 L 217.65625 454.679688 L 217.863281 451.742188 L 217.324219 448.84375 L 216.078125 446.175781 L 214.199219 443.90625 L 214.199219 440.03125 L 215.8125 438.394531 L 217.070313 436.472656 L 217.929688 434.339844 L 218.351563 432.082031 L 218.332031 429.910156 L 217.765625 426.523438 L 216.046875 422.730469 L 212.5625 419.035156 L 208.996094 417.070313 L 205.613281 416.460938 L 198.691406 416.769531 L 196.339844 414.621094 L 193.488281 413.195313 L 190.234375 412.585938 Z M 233.886719 469.515625 L 231.632813 471.46875 L 230.117188 474.1875 L 229.960938 474.269531 L 228.117188 474.644531 L 222.296875 470.886719 L 221.851563 470.949219 L 220.976563 470.273438 L 221.476563 469.683594 L 227.316406 466.367188 L 232.550781 467.761719 Z M 207.503906 470.292969 L 206.484375 471.011719 L 207.25 470.1875 Z M 233.585938 335.355469 L 235.753906 333.648438 L 237.460938 331.476563 L 240.203125 334.460938 L 243.800781 336.320313 L 240.867188 338.667969 L 237.519531 336.367188 Z M 187.0625 455.539063 L 184.902344 456.558594 L 182.902344 458.085938 L 183.332031 454.164063 L 183.183594 451.660156 L 184.890625 453.832031 Z M 179.308594 467.167969 L 175.429688 466.503906 L 177.6875 465.417969 L 179.570313 463.964844 Z M 236.835938 466.113281 L 235.136719 465.644531 L 236.523438 463.683594 L 237.195313 464.164063 L 237.5 465.839844 Z M 236.835938 466.113281 "/>
<path style=" stroke:none;fill-rule:nonzero;fill:rgb(80.392157%,58.431373%,4.705882%);fill-opacity:1;" d="M 192.875 366.371094 L 192.59375 368.167969 L 191.765625 369.789063 L 190.480469 371.074219 L 188.859375 371.898438 L 187.0625 372.183594 L 185.265625 371.898438 L 183.644531 371.074219 L 182.355469 369.789063 L 181.53125 368.167969 L 181.246094 366.371094 L 181.53125 364.570313 L 182.355469 362.949219 L 183.644531 361.664063 L 185.265625 360.839844 L 187.0625 360.554688 L 188.859375 360.839844 L 190.480469 361.664063 L 191.765625 362.949219 L 192.59375 364.570313 Z M 192.875 366.371094 "/>
<path style=" stroke:none;fill-rule:nonzero;fill:rgb(80.392157%,58.431373%,4.705882%);fill-opacity:1;" d="M 189 397.382813 L 188.714844 399.183594 L 187.890625 400.804688 L 186.601563 402.089844 L 184.980469 402.914063 L 183.183594 403.199219 L 181.386719 402.914063 L 179.765625 402.089844 L 178.480469 400.804688 L 177.652344 399.183594 L 177.371094 397.382813 L 177.652344 395.585938 L 178.480469 393.964844 L 179.765625 392.679688 L 181.386719 391.855469 L 183.183594 391.570313 L 184.980469 391.855469 L 186.601563 392.679688 L 187.890625 393.964844 L 188.714844 395.585938 Z M 189 397.382813 "/>
<path style=" stroke:none;fill-rule:nonzero;fill:rgb(80.392157%,58.431373%,4.705882%);fill-opacity:1;" d="M 192.875 370.246094 L 192.59375 372.042969 L 191.765625 373.664063 L 190.480469 374.949219 L 188.859375 375.777344 L 187.0625 376.0625 L 185.265625 375.777344 L 183.644531 374.949219 L 182.355469 373.664063 L 181.53125 372.042969 L 181.246094 370.246094 L 181.53125 368.449219 L 182.355469 366.828125 L 183.644531 365.542969 L 185.265625 364.714844 L 187.0625 364.429688 L 188.859375 364.714844 L 190.480469 365.542969 L 191.765625 366.828125 L 192.59375 368.449219 Z M 192.875 370.246094 "/>
<path style=" stroke:none;fill-rule:nonzero;fill:rgb(80.392157%,58.431373%,4.705882%);fill-opacity:1;" d="M 247.152344 354.738281 L 246.871094 356.535156 L 246.042969 358.15625 L 244.757813 359.441406 L 243.136719 360.269531 L 241.339844 360.554688 L 239.542969 360.269531 L 237.921875 359.441406 L 236.632813 358.15625 L 235.808594 356.535156 L 235.523438 354.738281 L 235.808594 352.941406 L 236.632813 351.320313 L 237.921875 350.035156 L 239.542969 349.207031 L 241.339844 348.921875 L 243.136719 349.207031 L 244.757813 350.035156 L 246.042969 351.320313 L 246.871094 352.941406 Z M 247.152344 354.738281 "/>
<path style=" stroke:none;fill-rule:nonzero;fill:rgb(80.392157%,58.431373%,4.705882%);fill-opacity:1;" d="M 200.628906 281.078125 L 200.347656 282.875 L 199.519531 284.496094 L 198.234375 285.78125 L 196.613281 286.609375 L 194.816406 286.890625 L 193.019531 286.609375 L 191.398438 285.78125 L 190.109375 284.496094 L 189.285156 282.875 L 189 281.078125 L 189.285156 279.28125 L 190.109375 277.660156 L 191.398438 276.371094 L 193.019531 275.546875 L 194.816406 275.261719 L 196.613281 275.546875 L 198.234375 276.371094 L 199.519531 277.660156 L 200.347656 279.28125 Z M 200.628906 281.078125 "/>
<path style=" stroke:none;fill-rule:nonzero;fill:rgb(80.392157%,58.431373%,4.705882%);fill-opacity:1;" d="M 185.125 292.707031 L 184.839844 294.503906 L 184.011719 296.125 L 182.726563 297.414063 L 181.105469 298.238281 L 179.308594 298.523438 L 177.511719 298.238281 L 175.890625 297.414063 L 174.601563 296.125 L 173.777344 294.503906 L 173.492188 292.707031 L 173.777344 290.910156 L 174.601563 289.289063 L 175.890625 288.003906 L 177.511719 287.175781 L 179.308594 286.890625 L 181.105469 287.175781 L 182.726563 288.003906 L 184.011719 289.289063 L 184.839844 290.910156 Z M 185.125 292.707031 "/>
<path style=" stroke:none;fill-rule:nonzero;fill:rgb(80.392157%,58.431373%,4.705882%);fill-opacity:1;" d="M 223.835938 285.296875 L 223.609375 286.75 L 222.78125 288.371094 L 221.496094 289.660156 L 219.875 290.484375 L 218.078125 290.769531 L 216.28125 290.484375 L 214.660156 289.660156 L 213.371094 288.371094 L 212.546875 286.75 L 212.261719 284.953125 L 212.546875 283.15625 L 213.371094 281.535156 L 214.660156 280.25 L 216.28125 279.421875 L 218.078125 279.136719 L 219.875 279.421875 L 221.15625 280.078125 Z M 223.835938 285.296875 "/>
<path style=" stroke:none;fill-rule:nonzero;fill:rgb(80.392157%,58.431373%,4.705882%);fill-opacity:1;" d="M 157.984375 362.492188 L 157.699219 364.289063 L 156.875 365.910156 L 155.585938 367.195313 L 153.964844 368.023438 L 152.167969 368.308594 L 150.371094 368.023438 L 148.75 367.195313 L 147.59375 366.039063 L 147.953125 364.523438 L 151.550781 360.582031 L 153.09375 359.609375 L 154.941406 359.808594 L 156.816406 359.015625 L 157.699219 360.695313 Z M 146.578125 363.910156 L 146.355469 362.492188 L 146.636719 360.695313 L 147.464844 359.074219 L 148.75 357.789063 L 150.371094 356.960938 L 152.167969 356.675781 L 153.964844 356.960938 L 154.945313 357.460938 L 154.066406 358.859375 L 150.984375 360.816406 L 147.425781 363.976563 Z M 146.578125 363.910156 "/>
<path style=" stroke:none;fill-rule:nonzero;fill:rgb(80.392157%,58.431373%,4.705882%);fill-opacity:1;" d="M 258.683594 335.984375 L 258.5 337.152344 L 257.675781 338.773438 L 256.386719 340.058594 L 255.195313 340.667969 L 253.664063 338.65625 L 252.601563 338.082031 L 248.421875 338.929688 L 247.4375 337.152344 L 247.152344 335.355469 L 247.4375 333.558594 L 248.265625 331.9375 L 249.550781 330.648438 L 251.171875 329.824219 L 252.96875 329.539063 L 254.964844 329.925781 L 256.160156 332.453125 Z M 253.375 341.105469 L 251.171875 340.882813 L 249.027344 339.535156 L 251.976563 339.082031 Z M 253.375 341.105469 "/>
<path style=" stroke:none;fill-rule:nonzero;fill:rgb(80.392157%,58.431373%,4.705882%);fill-opacity:1;" d="M 297.554688 440.03125 L 297.269531 441.828125 L 296.441406 443.449219 L 295.15625 444.734375 L 293.535156 445.5625 L 291.738281 445.847656 L 289.941406 445.5625 L 288.320313 444.734375 L 287.035156 443.449219 L 286.207031 441.828125 L 285.933594 440.105469 L 286.863281 440.339844 L 289.394531 439.9375 L 291.074219 438.957031 L 297.207031 438.109375 Z M 286.003906 439.515625 L 286.207031 438.234375 L 286.839844 437.054688 L 287.960938 438.832031 L 286.679688 439.636719 Z M 286.003906 439.515625 "/>
</g>
</svg>
