<?xml version="1.0" encoding="UTF-8"?>
<svg xmlns="http://www.w3.org/2000/svg" xmlns:xlink="http://www.w3.org/1999/xlink" width="378pt" height="504pt" viewBox="0 0 378 504" version="1.1">
<g id="data">
<rect x="0" y="0" width="378" height="504" style="fill:rgb(100%,100%,100%);fill-opacity:1;stroke:none;"/>
<path style=" stroke:none;fill-rule:nonzero;fill:rgb(100%,100%,100%);fill-opacity:1;" d="M 53.308594 504 L 324.691406 504 L 324.691406 0 L 53.308594 0 Z M 53.308594 504 "/>
<path style=" stroke:none;fill-rule:nonzero;fill:rgb(22.745098%,53.333333%,16.078431%);fill-opacity:1;" d="M 221.953125 284.953125 L 223.660156 287.125 L 224.410156 287.714844 L 225.097656 290.605469 L 224.660156 291.667969 L 224.273438 294.710938 L 224.660156 297.625 L 225.832031 300.460938 L 224.574219 303.820313 L 224.390625 307.277344 L 224.914063 309.789063 L 225.914063 312.015625 L 227.441406 314.078125 L 229.707031 315.96875 L 231.734375 318.285156 L 233.503906 319.566406 L 235.484375 320.492188 L 238.109375 321.097656 L 240.804688 321.085938 L 243.425781 320.453125 L 245.828125 319.230469 L 244.523438 321.878906 L 243.914063 324.898438 L 244.097656 327.84375 L 245.015625 330.648438 L 247.035156 333.613281 L 249.09375 335.355469 L 251.070313 337.785156 L 251.699219 338.265625 L 245.550781 339.511719 L 244.589844 338.644531 L 243.40625 338.558594 L 241.210938 339.871094 L 241.886719 340.445313 L 246.324219 340.394531 L 249.617188 339.34375 L 251.976563 339.082031 L 252.753906 340.203125 L 252.359375 341.960938 L 252.421875 344.757813 L 253.261719 347.832031 L 254.59375 350.3125 L 257.289063 353.039063 L 260.722656 354.738281 L 262.429688 356.910156 L 264.601563 358.617188 L 264.582031 359.273438 L 262.492188 358.75 L 260.082031 358.597656 L 256.183594 359.261719 L 253.039063 360.957031 L 250.554688 363.53125 L 248.5625 367.675781 L 247.957031 371.335938 L 248.617188 375.242188 L 250.546875 378.699219 L 252.988281 380.960938 L 255.847656 382.394531 L 258.992188 382.996094 L 262.179688 382.71875 L 266.6875 380.902344 L 269.296875 378.644531 L 270.21875 378.804688 L 270.625 378.746094 L 271.910156 376.796875 L 272.234375 374.960938 L 273.40625 371.914063 L 274.632813 370.703125 L 275.59375 370.894531 L 277.882813 370.792969 L 280.109375 370.246094 L 283.984375 370.910156 L 284.25 370.867188 L 284.253906 370.867188 L 286.703125 370.742188 L 288.609375 370.945313 L 289.433594 371.71875 L 291.363281 372.933594 L 293.492188 373.75 L 295.617188 374.125 L 295.988281 376.246094 L 296.804688 378.375 L 298.019531 380.304688 L 299.492188 381.875 L 301.347656 385.515625 L 303.917969 388.003906 L 307.074219 389.546875 L 307.089844 389.8125 L 305.257813 391.925781 L 303.925781 394.65625 L 303.21875 398.757813 L 303.371094 405.136719 L 301.894531 406.710938 L 300.679688 408.640625 L 299.867188 410.769531 L 299.671875 411.875 L 298.714844 412.878906 L 296.089844 412.835938 L 295.578125 412.011719 L 292.742188 410.515625 L 292.480469 410.636719 L 293.476563 412.792969 L 292.609375 412.777344 L 289.863281 413.203125 L 287.601563 414.023438 L 285.457031 415.375 L 283.570313 417.261719 L 282.199219 419.429688 L 281.335938 421.847656 L 281.132813 423.984375 L 280.71875 424.230469 L 281.085938 424.488281 L 281.035156 425.039063 L 281.617188 428.1875 L 282.558594 430.296875 L 283.785156 432.300781 L 283.441406 432.558594 L 282.84375 432.699219 L 279.644531 432.160156 L 274.75 433.78125 L 272.609375 436.117188 L 274.253906 436.015625 L 275.152344 434.667969 L 276.683594 434.363281 L 278.285156 434.328125 L 281.054688 434.949219 L 281.828125 435.589844 L 281.691406 436.328125 L 279.554688 436.347656 L 277.390625 437.65625 L 277.96875 438.546875 L 281.382813 438.964844 L 286.863281 440.339844 L 289.394531 439.9375 L 290.691406 439.179688 L 292.808594 439.847656 L 295.617188 440.03125 L 295.171875 442.394531 L 294.25 444.621094 L 291.832031 447.699219 L 288.488281 449.550781 L 286.027344 452.144531 L 284.398438 455.609375 L 284.140625 457.980469 L 282.707031 459.335938 L 280.046875 459.167969 L 276.140625 460.304688 L 274.191406 461.519531 L 270.640625 464.566406 L 268.878906 466.683594 L 267.261719 466.195313 L 265.421875 464.71875 L 261.855469 463.441406 L 258.972656 463.132813 L 249.09375 463.292969 L 246.359375 462.578125 L 243.535156 462.542969 L 240.070313 463.480469 L 238.796875 464.304688 L 237.714844 463.296875 L 231.496094 463.171875 L 231.378906 463.496094 L 232.574219 464.835938 L 232.214844 465.75 L 231.738281 466.042969 L 226.691406 465.496094 L 219.566406 468.449219 L 217.054688 467.824219 L 210.222656 468.96875 L 208.164063 468.875 L 207.273438 468.058594 L 206.238281 469.769531 L 209.429688 471.089844 L 209.714844 470.9375 L 210.1875 472.128906 L 209.566406 473.890625 L 208.867188 474.035156 L 206.71875 472.726563 L 202.570313 471.960938 L 200.394531 472.363281 L 197.625 472.007813 L 196.175781 472.65625 L 195.679688 473.863281 L 195.753906 474.351563 L 195.222656 474.675781 L 194.851563 473.972656 L 190.289063 470.589844 L 185.898438 468.519531 L 184.25 468.203125 L 182.234375 466.910156 L 178.910156 465.945313 L 175.445313 466.003906 L 172.855469 466.753906 L 170.507813 468.082031 L 167.675781 471.046875 L 165.417969 472.84375 L 163.800781 474.921875 L 161.277344 476.171875 L 159.21875 477.894531 L 157.808594 479.710938 L 156.738281 481.894531 L 156.164063 484.125 L 156.050781 486.488281 L 154.683594 485.4375 L 154.644531 485.441406 L 152.882813 484.042969 L 149.175781 482.78125 L 148.640625 482.726563 L 148.46875 482.535156 L 147.503906 482.605469 L 146.667969 482.519531 L 144.414063 482.675781 L 140.921875 482.019531 L 138.761719 482.148438 L 136.660156 482.675781 L 132.785156 482.675781 L 130.15625 482.074219 L 127.332031 482.109375 L 123.316406 483.425781 L 121.503906 484.648438 L 119.953125 486.1875 L 118.71875 487.992188 L 117.84375 489.992188 L 117.355469 492.125 L 117.277344 494.308594 L 116.226563 493.902344 L 115.984375 493.691406 L 112.253906 492.070313 L 111.515625 491.996094 L 115.113281 489.15625 L 117.277344 486.554688 L 117.464844 486.390625 L 118.144531 485.910156 L 121.425781 483.085938 L 124.375 479.769531 L 125.210938 477.886719 L 124.875 476.421875 L 125.640625 474.519531 L 128.386719 473.238281 L 132.105469 472.640625 L 132.679688 471.785156 L 133.003906 470.511719 L 136.386719 468.855469 L 138.925781 466.339844 L 140.539063 463.292969 L 144.089844 461.285156 L 146.730469 458.171875 L 147.644531 456.199219 L 148.175781 454.089844 L 148.269531 452.664063 L 148.429688 452.488281 L 148.355469 451.367188 L 148.453125 449.910156 L 148.292969 447.785156 L 148.910156 447.273438 L 151.105469 446.613281 L 157.421875 446.269531 L 159.910156 445.683594 L 164.597656 446.761719 L 166.046875 446.148438 L 167.527344 446.515625 L 169.484375 447.285156 L 170.039063 448.109375 L 170.757813 448.421875 L 173.15625 448.464844 L 180.570313 447.503906 L 181.109375 445.632813 L 181.210938 443.15625 L 182.519531 440.25 L 190.867188 432.195313 L 195.792969 425.3125 L 197.929688 424.472656 L 198.285156 423.78125 L 198.070313 423.238281 L 197.8125 423.082031 L 196.09375 424.355469 L 192.90625 427.300781 L 190.570313 429.988281 L 189.222656 431.449219 L 185.628906 432.957031 L 183.714844 433.246094 L 182.441406 433.0625 L 178.394531 435.230469 L 177.398438 436.808594 L 177.039063 438.671875 L 176.445313 439.273438 L 174.058594 439.917969 L 170.558594 439.851563 L 166.820313 439 L 166.347656 438.652344 L 161.371094 433.375 L 161.335938 433.316406 L 163.976563 434.945313 L 166.96875 435.675781 L 170.042969 435.59375 L 172.160156 435.050781 L 174.132813 434.117188 L 177.316406 431.339844 L 178.789063 428.933594 L 179.640625 426.242188 L 179.816406 423.421875 L 179.308594 420.644531 L 181.46875 419.820313 L 183.421875 418.582031 L 185.175781 416.882813 L 186.472656 414.96875 L 187.597656 411.964844 L 187.855469 408.640625 L 187.0625 405.136719 L 186.746094 401.691406 L 185.359375 398.378906 L 182.734375 395.398438 L 179.257813 393.476563 L 175.46875 392.835938 L 171.554688 393.507813 L 171.328125 391.226563 L 170.707031 389.152344 L 169.644531 387.125 L 168.203125 385.339844 L 171.613281 384.832031 L 174.617188 383.414063 L 177.179688 381.109375 L 178.90625 378.269531 L 179.726563 375.3125 L 179.757813 372.375 L 178.867188 367.070313 L 177.292969 363.703125 L 175.042969 361.246094 L 172.1875 359.527344 L 169.726563 358.796875 L 163.546875 357.953125 L 157.628906 358.84375 L 155.757813 359.464844 L 160.492188 357.457031 L 163.644531 357.28125 L 167.339844 357.714844 L 172.597656 355.179688 L 173.933594 355.046875 L 174.484375 355.082031 L 179.910156 359.441406 L 180.433594 358.429688 L 177.679688 353.460938 L 177.964844 353.144531 L 178.53125 352.898438 L 178.675781 352.769531 L 180.867188 352.449219 L 181.503906 352.695313 L 181.914063 353.875 L 182.898438 354.332031 L 184.078125 356.789063 L 185.613281 357.902344 L 188.359375 357.621094 L 190.335938 355.148438 L 189.90625 355.050781 L 188.667969 355.527344 L 188.3125 355.957031 L 186.378906 356.386719 L 183.8125 354.640625 L 181.613281 349.878906 L 182.886719 347.773438 L 183.714844 344.941406 L 183.8125 342.117188 L 183.402344 340.238281 L 185.429688 339.015625 L 185.140625 338.578125 L 183.367188 338.496094 L 183.730469 337.003906 L 183.824219 334.589844 L 182.796875 330.042969 L 184.695313 329.191406 L 186.035156 326.199219 L 186.058594 326.605469 L 186.628906 328.839844 L 187.628906 330.917969 L 189.019531 332.757813 L 190.75 334.289063 L 192.746094 335.445313 L 196.320313 336.421875 L 199.898438 336.25 L 204.472656 334.589844 L 207.371094 332.492188 L 209.1875 330.175781 L 210.324219 327.601563 L 213.972656 325.511719 L 216.640625 322.257813 L 217.730469 319.527344 L 218.078125 315.96875 L 219.179688 313.378906 L 219.625 310.601563 L 219.277344 307.296875 L 218.078125 304.339844 L 219.140625 301.871094 L 219.613281 299.226563 L 219.464844 296.546875 L 218.757813 294.085938 L 216.972656 290.410156 L 215.027344 288.050781 L 212.308594 286.164063 L 209.042969 285.097656 L 214.199219 284.953125 L 218.203125 285.617188 Z M 237.386719 465.21875 L 237.054688 465.433594 L 236.550781 466.03125 L 235.136719 465.644531 L 236.523438 463.683594 L 237.195313 464.164063 Z M 234.117188 469.820313 L 233.976563 470.148438 L 232.75 471.703125 L 231.414063 472.753906 L 230.398438 474.046875 L 229.960938 474.269531 L 229.160156 474.433594 L 227.726563 473.148438 L 225.398438 471.867188 L 223.085938 471.195313 L 222.703125 471.148438 L 222.296875 470.886719 L 221.496094 471 L 220.46875 470.875 L 221.476563 469.683594 L 227.316406 466.367188 L 232.550781 467.761719 Z M 151.292969 431.445313 L 150.777344 430.625 L 148.371094 428.472656 L 148.539063 428.378906 L 150.066406 428.890625 L 151.640625 428.421875 L 152.765625 427.832031 L 153.085938 427.097656 L 152.808594 426.597656 L 149.972656 426.519531 L 150.980469 424.898438 L 151.761719 422.890625 L 152.167969 420.644531 L 152.328125 423.328125 L 153.097656 425.898438 L 154.4375 428.226563 L 155.707031 429.582031 L 155.65625 429.589844 Z M 154.851563 359.800781 L 152.09375 361.644531 L 149.851563 364.429688 L 149.621094 362.695313 L 151.550781 360.582031 L 153.09375 359.609375 Z M 149.542969 362.097656 L 149.453125 361.421875 L 148.292969 358.617188 L 151.171875 358.738281 L 154.527344 358.125 L 154.066406 358.859375 L 150.984375 360.816406 Z M 179.308594 323.382813 L 179.308594 319.847656 L 183.183594 320.511719 L 185.09375 320.183594 L 184.742188 320.527344 Z M 192.414063 279.699219 L 194.058594 281.945313 L 191.695313 283.101563 Z M 152.328125 241.917969 L 157.941406 242.597656 L 160.488281 242.488281 L 164.457031 241.121094 L 166.738281 239.214844 L 166.738281 239.222656 L 168.246094 240.195313 L 169.765625 240.457031 L 166.921875 242.996094 L 165.53125 244.660156 L 164.371094 246.792969 L 163.683594 249.117188 L 163.488281 251.535156 L 163.800781 253.9375 L 161.339844 251.71875 L 158.476563 250.324219 L 155.339844 249.757813 L 152.167969 250.0625 L 152.988281 245.941406 Z M 171.070313 238.492188 L 174.441406 238.554688 L 172.480469 239.113281 Z M 148.292969 370.246094 L 148.75 373.457031 L 147.378906 373.792969 L 147.882813 372.488281 Z M 286.679688 439.636719 L 283.058594 438.976563 L 282.164063 437.605469 L 282.484375 436.070313 L 286.839844 437.054688 L 287.960938 438.832031 Z M 286.679688 439.636719 "/>
</g>
</svg>
