<?xml version="1.0" encoding="UTF-8"?>
<svg xmlns="http://www.w3.org/2000/svg" xmlns:xlink="http://www.w3.org/1999/xlink" width="378pt" height="504pt" viewBox="0 0 378 504" version="1.1">
<g id="data">
<rect x="0" y="0" width="378" height="504" style="fill:rgb(100%,100%,100%);fill-opacity:1;stroke:none;"/>
<path style=" stroke:none;fill-rule:nonzero;fill:rgb(100%,100%,100%);fill-opacity:1;" d="M 53.308594 504 L 324.691406 504 L 324.691406 0 L 53.308594 0 Z M 53.308594 504 "/>
<path style=" stroke:none;fill-rule:nonzero;fill:rgb(22.745098%,53.333333%,16.078431%);fill-opacity:1;" d="M 181.398438 336.351563 L 181.355469 336.101563 L 181.46875 333.808594 L 181.480469 333.722656 L 182.222656 332.128906 L 183.960938 329.519531 L 184.695313 329.191406 L 185.109375 328.273438 L 185.421875 327.941406 L 187.207031 327.046875 L 189.191406 326.804688 L 191.136719 327.25 L 192.816406 328.328125 L 194.097656 329.5 L 195.007813 330.054688 L 196 330.433594 L 197.066406 330.617188 L 198.582031 330.535156 L 200.773438 329.820313 L 202.3125 329.542969 L 203.863281 329.683594 L 205.8125 330.128906 L 207.246094 330.121094 L 210.679688 329.429688 L 211.769531 329.046875 L 213.042969 328.265625 L 213.976563 327.332031 L 214.675781 326.195313 L 215.089844 324.941406 L 215.207031 323.515625 L 215.003906 322.214844 L 214.5 320.976563 L 213.335938 319.335938 L 212.5625 317.816406 L 212.265625 316.132813 L 212.46875 314.4375 L 213.15625 312.871094 L 214.265625 311.578125 L 215.707031 310.660156 L 217.351563 310.199219 L 219.058594 310.238281 L 221.953125 310.734375 L 224.847656 310.238281 L 225.832031 310.152344 L 229.707031 310.152344 L 231.414063 310.410156 L 232.96875 311.152344 L 234.234375 312.320313 L 235.105469 313.808594 L 235.503906 315.484375 L 235.390625 317.207031 L 234.921875 319.363281 L 234.980469 320.828125 L 235.40625 322.230469 L 236.179688 323.492188 L 237.183594 324.46875 L 238.320313 325.144531 L 239.585938 325.539063 L 241.710938 325.671875 L 243.566406 326.105469 L 245.179688 327.113281 L 246.386719 328.585938 L 247.953125 331.324219 L 249.5625 332.660156 L 251 333.222656 L 253.472656 333.4375 L 255.398438 333.945313 L 257.035156 335.074219 L 258.199219 336.6875 L 258.75 338.601563 L 258.625 340.589844 L 258.199219 342.347656 L 258.1875 342.78125 L 257.507813 342.753906 L 256.035156 341.773438 L 253.664063 338.65625 L 252.601563 338.082031 L 245.550781 339.511719 L 244.589844 338.644531 L 243.40625 338.558594 L 241.210938 339.871094 L 241.886719 340.445313 L 246.324219 340.394531 L 249.617188 339.34375 L 251.976563 339.082031 L 254.382813 342.558594 L 259.066406 346.414063 L 259.574219 347.210938 L 260.347656 348.011719 L 261.375 348.710938 L 262.953125 349.367188 L 264.414063 350.246094 L 265.308594 351.234375 L 265.632813 351.664063 L 266.289063 353.050781 L 266.539063 354.738281 L 266.539063 358.617188 L 266.292969 360.285156 L 265.578125 361.816406 L 264.457031 363.074219 L 263.015625 363.960938 L 261.386719 364.394531 L 258.46875 364.726563 L 256.628906 365.644531 L 255.320313 366.996094 L 254.171875 369.394531 L 253.84375 371.089844 L 254.015625 372.804688 L 254.679688 374.378906 L 255.753906 375.660156 L 257.34375 376.667969 L 259.039063 377.101563 L 260.859375 376.992188 L 263.125 376.164063 L 264.480469 375.253906 L 264.9375 375.519531 L 266.9375 378.226563 L 270.21875 378.804688 L 270.625 378.746094 L 271.910156 376.796875 L 272.234375 374.960938 L 273.40625 371.914063 L 274.707031 370.632813 L 277.851563 370.085938 L 283.34375 370.234375 L 284.253906 370.867188 L 286.703125 370.742188 L 293.949219 371.515625 L 296.914063 372.84375 L 304.070313 378.085938 L 305.367188 380.105469 L 306.730469 384.164063 L 307.179688 391.25 L 306.777344 393.191406 L 306.890625 393.976563 L 305.789063 396.917969 L 303.519531 407.832031 L 297.144531 414.53125 L 295.578125 412.011719 L 292.742188 410.515625 L 292.480469 410.636719 L 293.898438 413.703125 L 295.890625 416.628906 L 296.3125 416.765625 L 296.164063 417.742188 L 295.496094 418.605469 L 293.675781 418.558594 L 291.402344 418.863281 L 289.664063 419.59375 L 288.832031 420.292969 L 288.214844 419.332031 L 284.976563 421.730469 L 283.652344 422.507813 L 282.722656 422.445313 L 281.074219 421.804688 L 279.691406 420.691406 L 277.882813 418.714844 L 276.34375 417.832031 L 274.609375 417.460938 L 272.8125 417.640625 L 271.335938 418.261719 L 269.894531 419.457031 L 268.207031 421.777344 L 267.570313 423.660156 L 267.570313 425.488281 L 268.109375 427.136719 L 269.203125 428.640625 L 270.566406 429.632813 L 272.953125 430.359375 L 274.316406 430.476563 L 275.878906 430.324219 L 277.996094 429.605469 L 280.367188 427.722656 L 281.824219 426.878906 L 283.464844 426.484375 L 285.144531 426.578125 L 286.730469 427.148438 L 287.570313 427.769531 L 287.632813 428.84375 L 285.6875 430.875 L 283.441406 432.558594 L 282.84375 432.699219 L 279.644531 432.160156 L 274.75 433.78125 L 272.609375 436.117188 L 274.253906 436.015625 L 275.152344 434.667969 L 276.683594 434.363281 L 278.285156 434.328125 L 281.054688 434.949219 L 281.828125 435.589844 L 281.691406 436.328125 L 279.554688 436.347656 L 277.390625 437.65625 L 277.96875 438.546875 L 281.382813 438.964844 L 286.863281 440.339844 L 289.394531 439.9375 L 291.074219 438.957031 L 299.742188 437.757813 L 300.988281 440.148438 L 300.886719 443.082031 L 300.558594 444.527344 L 299.953125 446.089844 L 298.277344 449.066406 L 297.667969 449.898438 L 296.972656 450.242188 L 295.839844 450.375 L 292.621094 451.640625 L 291.179688 452.742188 L 289.847656 454.226563 L 289.460938 455.09375 L 289.214844 456.324219 L 289.464844 457.886719 L 286.253906 458.289063 L 284.1875 457.9375 L 281.042969 460.90625 L 278.484375 461.933594 L 274.789063 462.777344 L 272.597656 463.816406 L 270.539063 466.589844 L 269.761719 466.949219 L 259.269531 463.777344 L 256.070313 463.507813 L 244.628906 465.699219 L 242.703125 466.390625 L 242.113281 466.964844 L 241.902344 467.984375 L 241.359375 468.164063 L 238.210938 466.1875 L 238.632813 465.4375 L 239.46875 464.933594 L 237.714844 463.296875 L 231.496094 463.171875 L 231.378906 463.496094 L 232.574219 464.835938 L 232.214844 465.75 L 231.738281 466.042969 L 226.691406 465.496094 L 219.566406 468.449219 L 217.054688 467.824219 L 210.222656 468.96875 L 208.164063 468.875 L 207.273438 468.058594 L 206.238281 469.769531 L 209.429688 471.089844 L 209.714844 470.9375 L 210.1875 472.128906 L 209.894531 472.964844 L 209.0625 473.25 L 207.980469 473.90625 L 207.570313 474.304688 L 206.84375 474.453125 L 204.453125 473.097656 L 203.015625 472.699219 L 197.625 472.007813 L 196.175781 472.65625 L 195.679688 473.863281 L 195.832031 474.871094 L 196.757813 475.523438 L 196.488281 476.304688 L 195.917969 475.996094 L 194.851563 473.972656 L 190.289063 470.589844 L 185.898438 468.519531 L 185.359375 468.417969 L 185.386719 468.164063 L 185.160156 466.742188 L 184.582031 465.410156 L 183.546875 464.082031 L 181.730469 462.445313 L 180.414063 461.753906 L 178.0625 461.273438 L 175.621094 461.351563 L 173.964844 461.164063 L 172.429688 460.519531 L 171.140625 459.464844 L 170.203125 458.089844 L 169.316406 456.265625 L 168.527344 455.289063 L 167.53125 454.5 L 165.804688 453.667969 L 164.320313 452.640625 L 163.226563 451.207031 L 162.621094 449.503906 L 162.566406 447.699219 L 162.949219 446.382813 L 164.597656 446.761719 L 166.046875 446.148438 L 167.527344 446.515625 L 169.484375 447.285156 L 170.039063 448.109375 L 170.757813 448.421875 L 173.15625 448.464844 L 180.570313 447.503906 L 181.109375 445.632813 L 181.210938 443.15625 L 182.519531 440.25 L 190.867188 432.195313 L 195.792969 425.3125 L 197.929688 424.472656 L 198.285156 423.78125 L 198.070313 423.238281 L 197.8125 423.082031 L 196.09375 424.355469 L 192.90625 427.300781 L 190.570313 429.988281 L 189.222656 431.449219 L 185.628906 432.957031 L 183.714844 433.246094 L 182.441406 433.0625 L 181.730469 433.441406 L 182.011719 432.253906 L 182 431.234375 L 181.777344 430.1875 L 181.121094 428.773438 L 180.253906 427.710938 L 179.050781 426.824219 L 177.109375 426.03125 L 175.625 425.148438 L 174.46875 423.867188 L 173.734375 422.304688 L 173.492188 420.597656 L 173.761719 418.894531 L 174.519531 417.34375 L 175.699219 416.085938 L 177.199219 415.226563 L 178.902344 414.5625 L 179.914063 413.898438 L 180.769531 413.035156 L 181.421875 412.011719 L 181.847656 410.875 L 182.027344 409.675781 L 181.953125 408.460938 L 181.460938 406.703125 L 181.246094 405.03125 L 181.523438 403.367188 L 182.265625 401.851563 L 183.410156 400.613281 L 184.863281 399.753906 L 186.820313 398.957031 L 187.9375 398.136719 L 188.890625 396.984375 L 189.417969 395.863281 L 189.726563 393.800781 L 189.117188 390.789063 L 189.035156 388.996094 L 189.503906 387.265625 L 190.476563 385.757813 L 191.863281 384.621094 L 193.53125 383.957031 L 195.320313 383.835938 L 197.0625 384.265625 L 199.078125 385.109375 L 200.597656 385.324219 L 202.105469 385.128906 L 204.226563 384.253906 L 206.105469 383.824219 L 208.019531 384.03125 L 209.761719 384.851563 L 211.558594 386.097656 L 213.019531 386.628906 L 214.441406 386.753906 L 215.875 386.507813 L 217.570313 385.660156 L 218.945313 384.273438 L 219.761719 382.660156 L 220.546875 379.152344 L 220.613281 377.496094 L 220.148438 375.355469 L 220.195313 372.683594 L 220.742188 370.542969 L 220.738281 369.128906 L 220.269531 367.476563 L 219.480469 366.214844 L 217.960938 364.910156 L 215.878906 364.0625 L 214.011719 363.835938 L 211.402344 364.328125 L 209.4375 364.363281 L 207.570313 363.738281 L 206.023438 362.53125 L 204.964844 360.875 L 204.070313 358.75 L 203.128906 357.550781 L 201.90625 356.636719 L 200.546875 356.101563 L 198.714844 355.941406 L 196.097656 356.535156 L 195.191406 356.664063 L 193.074219 356.800781 L 191.816406 357.191406 L 190.710938 357.84375 L 189.652344 358.890625 L 188.292969 361.394531 L 187.648438 362.34375 L 185.550781 364.851563 L 185.035156 366.132813 L 184.761719 368.289063 L 184.210938 370.121094 L 183.097656 371.675781 L 181.539063 372.785156 L 179.703125 373.328125 L 177.792969 373.246094 L 176.011719 372.550781 L 174.550781 371.3125 L 173.574219 369.667969 L 172.703125 367.4375 L 171.746094 366.171875 L 170.480469 365.214844 L 168.792969 364.558594 L 164.609375 363.839844 L 162.859375 363.859375 L 158.007813 364.792969 L 157.113281 365.183594 L 155.769531 366.105469 L 154.242188 366.847656 L 152.5625 367.121094 L 150.875 366.894531 L 149.328125 366.191406 L 148.050781 365.066406 L 147.886719 364.804688 L 147.953125 364.523438 L 151.550781 360.582031 L 153.09375 359.609375 L 154.941406 359.808594 L 160.492188 357.457031 L 163.644531 357.28125 L 167.339844 357.714844 L 172.597656 355.179688 L 173.933594 355.046875 L 174.484375 355.082031 L 179.910156 359.441406 L 180.433594 358.429688 L 177.679688 353.460938 L 178.242188 352.835938 L 180.867188 352.449219 L 181.503906 352.695313 L 181.914063 353.875 L 182.898438 354.332031 L 184.078125 356.789063 L 185.613281 357.902344 L 188.359375 357.621094 L 190.335938 355.148438 L 189.90625 355.050781 L 188.667969 355.527344 L 188.3125 355.957031 L 186.378906 356.386719 L 183.8125 354.640625 L 180.945313 348.429688 L 181.628906 348.023438 L 182.472656 347.242188 L 183.386719 346.019531 L 183.882813 344.929688 L 184.140625 343.746094 L 184.148438 342.53125 L 183.902344 341.347656 L 183.414063 340.234375 L 183.410156 340.234375 L 185.429688 339.015625 L 185.140625 338.578125 L 182.683594 338.460938 L 181.554688 337.164063 Z M 147.367188 363.972656 L 147.152344 363.625 L 146.707031 361.980469 L 146.394531 359.292969 L 146.453125 357.546875 L 147.027344 355.898438 L 148.066406 354.492188 L 149.476563 353.460938 L 150.078125 353.253906 L 151.039063 355.578125 L 155.546875 356.503906 L 154.066406 358.859375 L 150.984375 360.816406 L 147.425781 363.976563 Z M 138.882813 461.574219 L 140.128906 461.089844 L 141.546875 460.179688 L 143.175781 459.460938 L 143.65625 459.40625 L 143.480469 459.042969 L 143.214844 457.34375 L 143.203125 455.472656 L 144.269531 456.015625 L 145.761719 455.429688 L 148.429688 452.488281 L 148.105469 447.519531 L 151.105469 446.613281 L 155.5625 446.371094 L 156.828125 446.769531 L 158.339844 447.875 L 159.425781 449.402344 L 159.964844 451.195313 L 159.910156 453.070313 L 159.257813 454.828125 L 157.226563 458.40625 L 156.277344 459.65625 L 155.023438 460.605469 L 151.886719 462.375 L 150.28125 462.988281 L 150.074219 463 L 150.246094 463.355469 L 150.503906 465.113281 L 150.492188 467.011719 L 150.78125 468.3125 L 151.402344 469.578125 L 152.75 471.1875 L 153.714844 472.824219 L 154.101563 474.683594 L 154.171875 476.398438 L 154.414063 477.425781 L 154.847656 478.402344 L 155.757813 479.730469 L 156.507813 481.269531 L 156.777344 482.964844 L 156.542969 484.664063 L 155.820313 486.21875 L 155.769531 486.273438 L 154.683594 485.4375 L 153.613281 485.542969 L 152.417969 486.300781 L 151.738281 486.164063 L 148.46875 482.535156 L 142.796875 482.960938 L 141.527344 483.375 L 140.734375 484.175781 L 139.910156 484.507813 L 138.871094 484.472656 L 138.273438 482.988281 L 137.449219 481.835938 L 136.371094 480.914063 L 135.367188 480.40625 L 133.125 480.019531 L 130.035156 480.628906 L 128.332031 480.710938 L 126.675781 480.292969 L 125.214844 479.414063 L 124.757813 478.910156 L 125.210938 477.886719 L 124.875 476.421875 L 125.640625 474.519531 L 128.386719 473.238281 L 132.105469 472.640625 L 132.679688 471.785156 L 133.257813 469.527344 L 135.859375 467.5625 L 138.636719 464.640625 Z M 286.679688 439.636719 L 283.058594 438.976563 L 282.164063 437.605469 L 282.484375 436.070313 L 286.839844 437.054688 L 287.960938 438.832031 Z M 236.835938 466.113281 L 235.136719 465.644531 L 236.523438 463.683594 L 237.195313 464.164063 L 237.5 465.839844 Z M 228.117188 474.644531 L 222.296875 470.886719 L 220.207031 471.1875 L 221.476563 469.683594 L 227.316406 466.367188 L 232.550781 467.761719 L 234.171875 469.894531 L 231.242188 473.621094 L 229.960938 474.269531 Z M 228.117188 474.644531 "/>
<path style=" stroke:none;fill-rule:nonzero;fill:rgb(80.392157%,58.431373%,4.705882%);fill-opacity:1;" d="M 177.371094 393.507813 L 177.085938 395.304688 L 176.257813 396.925781 L 174.972656 398.210938 L 173.351563 399.039063 L 171.554688 399.324219 L 169.757813 399.039063 L 168.136719 398.210938 L 166.847656 396.925781 L 166.023438 395.304688 L 165.738281 393.507813 L 166.023438 391.710938 L 166.847656 390.089844 L 168.136719 388.804688 L 169.757813 387.976563 L 171.554688 387.691406 L 173.351563 387.976563 L 174.972656 388.804688 L 176.257813 390.089844 L 177.085938 391.710938 Z M 177.371094 393.507813 "/>
<path style=" stroke:none;fill-rule:nonzero;fill:rgb(80.392157%,58.431373%,4.705882%);fill-opacity:1;" d="M 157.984375 420.644531 L 157.699219 422.441406 L 156.875 424.0625 L 155.585938 425.351563 L 153.964844 426.175781 L 152.167969 426.460938 L 150.371094 426.175781 L 148.75 425.351563 L 147.464844 424.0625 L 146.636719 422.441406 L 146.355469 420.644531 L 146.636719 418.847656 L 147.464844 417.226563 L 148.75 415.941406 L 150.371094 415.117188 L 152.167969 414.832031 L 153.964844 415.117188 L 155.585938 415.941406 L 156.875 417.226563 L 157.699219 418.847656 Z M 157.984375 420.644531 "/>
<path style=" stroke:none;fill-rule:nonzero;fill:rgb(80.392157%,58.431373%,4.705882%);fill-opacity:1;" d="M 169.617188 215.167969 L 169.332031 216.964844 L 168.503906 218.585938 L 167.21875 219.875 L 165.597656 220.699219 L 163.800781 220.984375 L 162.003906 220.699219 L 160.382813 219.875 L 159.09375 218.585938 L 158.269531 216.964844 L 157.984375 215.167969 L 158.269531 213.371094 L 159.09375 211.75 L 160.382813 210.464844 L 162.003906 209.636719 L 163.800781 209.355469 L 165.597656 209.636719 L 167.21875 210.464844 L 168.503906 211.75 L 169.332031 213.371094 Z M 169.617188 215.167969 "/>
<path style=" stroke:none;fill-rule:nonzero;fill:rgb(80.392157%,58.431373%,4.705882%);fill-opacity:1;" d="M 196.753906 273.324219 L 196.46875 275.121094 L 195.644531 276.742188 L 194.355469 278.027344 L 192.734375 278.855469 L 190.9375 279.136719 L 189.140625 278.855469 L 187.519531 278.027344 L 186.234375 276.742188 L 185.40625 275.121094 L 185.125 273.324219 L 185.40625 271.527344 L 186.234375 269.90625 L 187.519531 268.617188 L 189.140625 267.792969 L 190.9375 267.507813 L 192.734375 267.792969 L 194.355469 268.617188 L 195.644531 269.90625 L 196.46875 271.527344 Z M 196.753906 273.324219 "/>
<path style=" stroke:none;fill-rule:nonzero;fill:rgb(80.392157%,58.431373%,4.705882%);fill-opacity:1;" d="M 192.875 288.832031 L 192.59375 290.628906 L 191.765625 292.25 L 190.480469 293.535156 L 188.859375 294.363281 L 187.0625 294.644531 L 185.265625 294.363281 L 183.644531 293.535156 L 182.355469 292.25 L 181.53125 290.628906 L 181.246094 288.832031 L 181.53125 287.035156 L 181.792969 286.519531 L 182.933594 286.238281 L 183.03125 285.160156 L 182.769531 285 L 183.644531 284.125 L 185.265625 283.300781 L 187.0625 283.015625 L 188.859375 283.300781 L 190.480469 284.125 L 191.765625 285.414063 L 192.59375 287.035156 Z M 192.875 288.832031 "/>
<path style=" stroke:none;fill-rule:nonzero;fill:rgb(80.392157%,58.431373%,4.705882%);fill-opacity:1;" d="M 157.984375 424.523438 L 157.699219 426.320313 L 156.875 427.941406 L 155.585938 429.226563 L 153.964844 430.054688 L 152.167969 430.339844 L 150.371094 430.054688 L 148.75 429.226563 L 148.132813 428.609375 L 148.539063 428.378906 L 150.066406 428.890625 L 151.640625 428.421875 L 152.765625 427.832031 L 153.085938 427.097656 L 152.808594 426.597656 L 147.785156 426.460938 L 146.542969 425.714844 L 146.355469 424.523438 L 146.636719 422.726563 L 147.464844 421.105469 L 148.75 419.816406 L 150.371094 418.992188 L 152.167969 418.707031 L 153.964844 418.992188 L 155.585938 419.816406 L 156.875 421.105469 L 157.699219 422.726563 Z M 157.984375 424.523438 "/>
<path style=" stroke:none;fill-rule:nonzero;fill:rgb(80.392157%,58.431373%,4.705882%);fill-opacity:1;" d="M 188.9375 224.535156 L 188.859375 224.578125 L 187.0625 224.863281 L 185.265625 224.578125 L 183.644531 223.75 L 183.375 223.484375 L 184.609375 222.886719 L 186.457031 221.386719 L 187.289063 221.316406 L 189.085938 221.875 L 189.332031 222.921875 Z M 182.046875 221.859375 L 181.53125 220.84375 L 181.246094 219.046875 L 181.53125 217.25 L 182.355469 215.628906 L 183.644531 214.339844 L 185.265625 213.515625 L 187.0625 213.230469 L 188.859375 213.515625 L 190.480469 214.339844 L 191.765625 215.628906 L 192.59375 217.25 L 192.78125 218.449219 L 191.214844 219.742188 L 185.519531 221.085938 L 182.847656 221.226563 Z M 182.046875 221.859375 "/>
<path style=" stroke:none;fill-rule:nonzero;fill:rgb(80.392157%,58.431373%,4.705882%);fill-opacity:1;" d="M 192.875 319.847656 L 192.59375 321.644531 L 191.765625 323.265625 L 190.480469 324.550781 L 188.859375 325.375 L 187.0625 325.660156 L 186.328125 325.546875 L 187.28125 323.421875 L 187.71875 320.933594 L 187.855469 317.484375 L 184.742188 320.527344 L 181.761719 322.09375 L 181.53125 321.644531 L 181.246094 319.847656 L 181.53125 318.050781 L 182.355469 316.429688 L 183.644531 315.140625 L 185.265625 314.316406 L 187.0625 314.03125 L 188.859375 314.316406 L 190.480469 315.140625 L 191.765625 316.429688 L 192.59375 318.050781 Z M 192.875 319.847656 "/>
<path style=" stroke:none;fill-rule:nonzero;fill:rgb(80.392157%,58.431373%,4.705882%);fill-opacity:1;" d="M 157.984375 428.398438 L 157.835938 429.335938 L 155.65625 429.589844 L 149.269531 432.308594 L 149.113281 432.746094 L 147.441406 431.769531 L 147.152344 431.207031 L 146.917969 429.308594 L 148.539063 428.378906 L 150.066406 428.890625 L 151.640625 428.421875 L 152.765625 427.832031 L 153.085938 427.097656 L 152.808594 426.597656 L 147.785156 426.460938 L 146.960938 425.96875 L 147.464844 424.980469 L 148.75 423.695313 L 150.371094 422.871094 L 152.167969 422.585938 L 153.964844 422.871094 L 155.585938 423.695313 L 156.875 424.980469 L 157.699219 426.601563 Z M 157.984375 428.398438 "/>
<path style=" stroke:none;fill-rule:nonzero;fill:rgb(80.392157%,58.431373%,4.705882%);fill-opacity:1;" d="M 123.09375 486.554688 L 122.808594 488.351563 L 121.980469 489.972656 L 120.695313 491.257813 L 119.074219 492.085938 L 117.277344 492.371094 L 115.480469 492.085938 L 113.859375 491.257813 L 112.570313 489.972656 L 111.746094 488.351563 L 111.707031 488.089844 L 111.738281 488.078125 L 112.199219 488.253906 L 112.445313 488.9375 L 113.574219 489.15625 L 118.144531 485.910156 L 121.425781 483.085938 L 121.664063 482.816406 L 121.980469 483.136719 L 122.808594 484.757813 Z M 123.09375 486.554688 "/>
<path style=" stroke:none;fill-rule:nonzero;fill:rgb(80.392157%,58.431373%,4.705882%);fill-opacity:1;" d="M 146.355469 315.96875 L 146.070313 317.765625 L 145.242188 319.386719 L 143.957031 320.675781 L 142.335938 321.5 L 140.539063 321.785156 L 138.742188 321.5 L 138.246094 321.25 L 139.816406 316.644531 L 142.300781 315.023438 L 144.140625 311.445313 L 145.242188 312.550781 L 146.070313 314.171875 Z M 146.355469 315.96875 "/>
<path style=" stroke:none;fill-rule:nonzero;fill:rgb(80.392157%,58.431373%,4.705882%);fill-opacity:1;" d="M 150.054688 313.75 L 148.292969 314.03125 L 146.496094 313.746094 L 144.875 312.921875 L 143.890625 311.933594 L 144.765625 310.230469 L 145.863281 309.40625 L 149.046875 308.269531 L 150.203125 313.453125 Z M 150.054688 313.75 "/>
</g>
</svg>
