<?xml version="1.0" encoding="UTF-8"?>
<svg xmlns="http://www.w3.org/2000/svg" xmlns:xlink="http://www.w3.org/1999/xlink" width="378pt" height="504pt" viewBox="0 0 378 504" version="1.1">
<g id="data">
<rect x="0" y="0" width="378" height="504" style="fill:rgb(100%,100%,100%);fill-opacity:1;stroke:none;"/>
<path style=" stroke:none;fill-rule:nonzero;fill:rgb(100%,100%,100%);fill-opacity:1;" d="M 53.308594 504 L 324.691406 504 L 324.691406 0 L 53.308594 0 Z M 53.308594 504 "/>
<path style=" stroke:none;fill-rule:nonzero;fill:rgb(22.745098%,53.333333%,16.078431%);fill-opacity:1;" d="M 187.0625 335.355469 L 188.886719 332.613281 L 190.582031 334.164063 L 192.433594 335.300781 L 194.464844 336.070313 L 196.726563 336.460938 L 199.65625 336.296875 L 202.570313 335.355469 L 205.171875 335.949219 L 207.84375 335.933594 L 212.222656 335.050781 L 214.277344 334.332031 L 216.578125 332.9375 L 218.492188 331.054688 L 219.925781 328.78125 L 220.828125 326.113281 L 221.066406 323.433594 L 220.679688 320.773438 L 219.695313 318.273438 L 218.078125 315.96875 L 221.953125 316.632813 L 225.832031 315.96875 L 229.707031 315.96875 L 229.078125 318.855469 L 229.199219 321.804688 L 230.054688 324.628906 L 231.597656 327.148438 L 233.519531 329.042969 L 235.945313 330.496094 L 238.519531 331.296875 L 241.339844 331.476563 L 243.347656 335.027344 L 246.566406 337.734375 L 249.214844 338.769531 L 245.550781 339.511719 L 244.589844 338.644531 L 243.40625 338.558594 L 241.210938 339.871094 L 241.886719 340.445313 L 246.324219 340.394531 L 249.617188 339.34375 L 251.65625 339.117188 L 252.023438 339.148438 L 252.738281 340.183594 L 252.40625 341.582031 L 252.339844 344 L 252.738281 346.253906 L 253.675781 348.773438 L 254.902344 350.726563 L 256.582031 352.484375 L 258.59375 353.855469 L 260.722656 354.738281 L 260.722656 358.617188 L 256.792969 359.066406 L 253.140625 360.882813 L 250.410156 363.742188 L 248.605469 367.554688 L 247.964844 370.949219 L 248.351563 374.382813 L 249.726563 377.550781 L 251.878906 380.089844 L 255.011719 382.074219 L 258.480469 382.960938 L 262.054688 382.746094 L 265.785156 381.386719 L 268.632813 379.449219 L 269.28125 378.640625 L 270.21875 378.804688 L 270.625 378.746094 L 271.910156 376.796875 L 272.234375 374.960938 L 273.40625 371.914063 L 274.632813 370.703125 L 275.59375 370.894531 L 277.882813 370.792969 L 280.109375 370.246094 L 283.984375 370.910156 L 284.25 370.867188 L 284.253906 370.867188 L 286.703125 370.742188 L 288.609375 370.945313 L 289.433594 371.71875 L 291.363281 372.933594 L 293.492188 373.75 L 295.617188 374.125 L 295.988281 376.246094 L 296.804688 378.375 L 298.019531 380.304688 L 299.492188 381.875 L 300.011719 384.484375 L 301.042969 386.796875 L 303.371094 389.628906 L 302.703125 393.507813 L 303.371094 397.382813 L 303.371094 405.136719 L 301.894531 406.710938 L 300.679688 408.640625 L 299.867188 410.769531 L 299.671875 411.875 L 298.722656 412.871094 L 296.070313 412.804688 L 295.578125 412.011719 L 292.742188 410.515625 L 292.480469 410.636719 L 293.449219 412.734375 L 293.363281 412.734375 L 289.863281 413.203125 L 286.601563 414.574219 L 283.984375 416.769531 L 281.460938 414.039063 L 278.328125 412.289063 L 274.808594 411.578125 L 271.238281 411.976563 L 268.179688 413.304688 L 265.535156 415.542969 L 262.921875 419.1875 L 261.71875 422.957031 L 261.777344 426.535156 L 262.921875 429.925781 L 265.132813 432.898438 L 268.050781 434.96875 L 270.332031 435.816406 L 272.976563 436.242188 L 277.238281 436.027344 L 280.597656 434.847656 L 281.054688 434.949219 L 281.828125 435.589844 L 281.691406 436.328125 L 279.554688 436.347656 L 277.390625 437.65625 L 277.96875 438.546875 L 281.382813 438.964844 L 286.863281 440.339844 L 289.394531 439.9375 L 290.785156 439.125 L 291.933594 439.648438 L 295.617188 440.03125 L 294.839844 443.355469 L 293.210938 446.210938 L 291.738281 447.785156 L 289.761719 448.695313 L 287.992188 449.957031 L 285.613281 452.792969 L 284.300781 455.980469 L 284.113281 458.003906 L 282.707031 459.335938 L 280.046875 459.167969 L 276.140625 460.304688 L 274.191406 461.519531 L 270.640625 464.566406 L 268.878906 466.683594 L 267.285156 466.203125 L 265.535156 464.78125 L 261.980469 463.464844 L 258.972656 463.132813 L 249.09375 463.292969 L 246.742188 462.636719 L 244.175781 462.492188 L 240.542969 463.28125 L 238.796875 464.308594 L 237.714844 463.296875 L 231.496094 463.171875 L 231.378906 463.496094 L 232.574219 464.835938 L 232.214844 465.75 L 231.738281 466.042969 L 226.691406 465.496094 L 221.242188 467.753906 L 219.398438 467.128906 L 216.859375 466.855469 L 214.199219 467.167969 L 210.902344 466.871094 L 208.257813 467.316406 L 205.136719 468.757813 L 202.570313 471.046875 L 198.691406 470.382813 L 194.816406 471.046875 L 190.9375 471.046875 L 191.25 468.003906 L 190.789063 465.105469 L 189.621094 462.414063 L 187.816406 460.101563 L 185.082031 457.640625 L 182.394531 456.222656 L 178.5625 455.4375 L 175.429688 455.539063 L 174.320313 453.234375 L 172.644531 451.132813 L 170.640625 449.542969 L 168.335938 448.429688 L 170.027344 448.089844 L 170.039063 448.109375 L 170.757813 448.421875 L 173.15625 448.464844 L 174.0625 448.347656 L 176.238281 448.429688 L 179.621094 447.683594 L 179.765625 447.609375 L 180.570313 447.503906 L 180.671875 447.152344 L 181.6875 446.644531 L 183.507813 445.214844 L 184.933594 443.558594 L 186.078125 441.546875 L 186.855469 439.101563 L 187.0625 436.152344 L 187.152344 435.78125 L 190.867188 432.195313 L 195.792969 425.3125 L 197.929688 424.472656 L 198.285156 423.78125 L 198.070313 423.238281 L 197.8125 423.082031 L 196.09375 424.355469 L 192.90625 427.300781 L 190.570313 429.988281 L 189.222656 431.449219 L 187.824219 432.035156 L 187.808594 430.597656 L 187.332031 428.332031 L 186.082031 425.65625 L 184.296875 423.46875 L 181.921875 421.714844 L 179.308594 420.644531 L 181.582031 419.761719 L 183.621094 418.417969 L 185.335938 416.683594 L 186.652344 414.625 L 187.507813 412.339844 L 187.871094 409.925781 L 187.71875 407.488281 L 187.0625 405.136719 L 189.675781 404.070313 L 192.050781 402.316406 L 193.835938 400.128906 L 195.042969 397.574219 L 195.628906 393.515625 L 194.816406 389.628906 L 197.652344 390.800781 L 200.566406 391.1875 L 203.609375 390.800781 L 206.445313 389.628906 L 208.863281 391.308594 L 211.75 392.355469 L 214.683594 392.613281 L 217.707031 392.09375 L 221.023438 390.4375 L 223.722656 387.71875 L 225.277344 384.636719 L 226.339844 379.902344 L 226.453125 376.980469 L 225.832031 374.125 L 226.5625 371.261719 L 226.546875 368.308594 L 225.640625 365.101563 L 223.945313 362.378906 L 221.027344 359.878906 L 217.347656 358.382813 L 213.816406 357.957031 L 210.324219 358.617188 L 209.125 355.777344 L 207.226563 353.351563 L 204.757813 351.511719 L 201.890625 350.382813 L 198.316406 350.070313 L 194.816406 350.863281 L 192.007813 351.042969 L 189.445313 351.839844 L 187.128906 353.203125 L 184.953125 355.363281 L 184.929688 355.402344 L 183.8125 354.640625 L 183.394531 353.738281 L 185.121094 352.710938 L 186.8125 351.152344 L 188.421875 348.996094 L 189.429688 346.773438 L 189.953125 344.390625 L 189.964844 341.953125 L 189.46875 339.5625 L 188.488281 337.332031 Z M 237.378906 465.171875 L 236.597656 466.046875 L 235.136719 465.644531 L 236.523438 463.683594 L 237.195313 464.164063 Z M 234.128906 469.835938 L 234.003906 470.113281 L 233.304688 471 L 229.707031 470.382813 L 225.832031 471.046875 L 223.992188 469.273438 L 223.125 468.746094 L 227.316406 466.367188 L 232.550781 467.761719 Z M 184.148438 356.84375 L 183.183594 358.617188 L 180.5 361.828125 L 179.359375 364.65625 L 178.992188 367.554688 L 177.828125 364.570313 L 175.894531 362.015625 L 173.339844 360.085938 L 170.351563 358.925781 L 165.074219 358.019531 L 162.273438 358.050781 L 156.453125 359.167969 L 160.492188 357.457031 L 163.644531 357.28125 L 166.058594 357.566406 L 166.265625 357.613281 L 166.511719 357.621094 L 167.339844 357.714844 L 167.496094 357.640625 L 168.578125 357.664063 L 172.183594 356.789063 L 174.660156 355.222656 L 179.910156 359.441406 L 180.433594 358.429688 L 178.53125 354.996094 L 180.503906 354.808594 L 182.511719 354.152344 L 182.898438 354.332031 L 184.078125 356.789063 Z M 154.898438 359.804688 L 154.277344 360.078125 L 152.484375 361.304688 L 152.339844 360.085938 L 153.09375 359.609375 Z M 152.328125 359.964844 L 152.167969 358.617188 L 154.289063 358.242188 L 154.507813 358.160156 L 154.066406 358.859375 Z M 152.167969 451.660156 L 154.199219 451.957031 L 152.167969 455.539063 L 149.03125 457.308594 L 149.011719 454.4375 L 148.402344 452.089844 L 148.375 451.660156 Z M 132.820313 471.234375 L 135.695313 470.613281 L 138.289063 469.242188 L 140.539063 467.167969 L 142.777344 466.300781 L 144.691406 465.074219 L 144.6875 467.753906 L 145.253906 470.246094 L 146.488281 472.769531 L 148.292969 474.921875 L 148.371094 477.070313 L 148.878906 479.285156 L 149.746094 481.25 L 150.964844 483.019531 L 147.714844 482.378906 L 144.414063 482.675781 L 143.410156 480.175781 L 141.769531 477.875 L 139.726563 476.113281 L 137.214844 474.820313 L 133.050781 474.105469 L 128.90625 474.921875 L 128.90625 473.15625 L 132.105469 472.640625 L 132.679688 471.785156 Z M 286.679688 439.636719 L 283.058594 438.976563 L 282.164063 437.605469 L 282.484375 436.070313 L 286.839844 437.054688 L 287.960938 438.832031 Z M 286.679688 439.636719 "/>
<path style=" stroke:none;fill-rule:nonzero;fill:rgb(80.392157%,58.431373%,4.705882%);fill-opacity:1;" d="M 177.371094 393.507813 L 177.085938 395.304688 L 176.257813 396.925781 L 174.972656 398.210938 L 173.351563 399.039063 L 171.554688 399.324219 L 169.757813 399.039063 L 168.136719 398.210938 L 166.847656 396.925781 L 166.023438 395.304688 L 165.738281 393.507813 L 166.023438 391.710938 L 166.847656 390.089844 L 168.136719 388.804688 L 169.757813 387.976563 L 171.554688 387.691406 L 173.351563 387.976563 L 174.972656 388.804688 L 176.257813 390.089844 L 177.085938 391.710938 Z M 177.371094 393.507813 "/>
<path style=" stroke:none;fill-rule:nonzero;fill:rgb(80.392157%,58.431373%,4.705882%);fill-opacity:1;" d="M 185.125 378 L 184.839844 379.796875 L 184.011719 381.417969 L 182.726563 382.703125 L 181.105469 383.53125 L 179.308594 383.816406 L 177.511719 383.53125 L 175.890625 382.703125 L 174.601563 381.417969 L 173.777344 379.796875 L 173.492188 378 L 173.777344 376.203125 L 174.601563 374.582031 L 175.890625 373.296875 L 177.511719 372.46875 L 179.308594 372.183594 L 181.105469 372.46875 L 182.726563 373.296875 L 184.011719 374.582031 L 184.839844 376.203125 Z M 185.125 378 "/>
<path style=" stroke:none;fill-rule:nonzero;fill:rgb(80.392157%,58.431373%,4.705882%);fill-opacity:1;" d="M 157.984375 420.644531 L 157.699219 422.441406 L 156.875 424.0625 L 155.585938 425.351563 L 153.964844 426.175781 L 152.167969 426.460938 L 150.371094 426.175781 L 148.75 425.351563 L 147.464844 424.0625 L 146.636719 422.441406 L 146.355469 420.644531 L 146.636719 418.847656 L 147.464844 417.226563 L 148.75 415.941406 L 150.371094 415.117188 L 152.167969 414.832031 L 153.964844 415.117188 L 155.585938 415.941406 L 156.875 417.226563 L 157.699219 418.847656 Z M 157.984375 420.644531 "/>
<path style=" stroke:none;fill-rule:nonzero;fill:rgb(80.392157%,58.431373%,4.705882%);fill-opacity:1;" d="M 196.753906 273.324219 L 196.46875 275.121094 L 195.644531 276.742188 L 194.355469 278.027344 L 192.734375 278.855469 L 190.9375 279.136719 L 189.140625 278.855469 L 187.519531 278.027344 L 186.234375 276.742188 L 185.40625 275.121094 L 185.125 273.324219 L 185.40625 271.527344 L 186.234375 269.90625 L 187.519531 268.617188 L 189.140625 267.792969 L 190.9375 267.507813 L 192.734375 267.792969 L 194.355469 268.617188 L 195.644531 269.90625 L 196.46875 271.527344 Z M 196.753906 273.324219 "/>
<path style=" stroke:none;fill-rule:nonzero;fill:rgb(80.392157%,58.431373%,4.705882%);fill-opacity:1;" d="M 169.617188 215.167969 L 169.332031 216.964844 L 168.503906 218.585938 L 167.21875 219.875 L 165.597656 220.699219 L 163.800781 220.984375 L 162.003906 220.699219 L 160.382813 219.875 L 159.09375 218.585938 L 158.269531 216.964844 L 157.984375 215.167969 L 158.269531 213.371094 L 159.09375 211.75 L 160.382813 210.464844 L 162.003906 209.636719 L 163.800781 209.355469 L 165.597656 209.636719 L 167.21875 210.464844 L 168.503906 211.75 L 169.332031 213.371094 Z M 169.617188 215.167969 "/>
<path style=" stroke:none;fill-rule:nonzero;fill:rgb(80.392157%,58.431373%,4.705882%);fill-opacity:1;" d="M 192.875 288.832031 L 192.59375 290.628906 L 191.765625 292.25 L 190.480469 293.535156 L 188.859375 294.363281 L 187.0625 294.644531 L 185.265625 294.363281 L 183.644531 293.535156 L 182.355469 292.25 L 181.53125 290.628906 L 181.246094 288.832031 L 181.53125 287.035156 L 181.792969 286.519531 L 182.933594 286.238281 L 183.03125 285.160156 L 182.769531 285 L 183.644531 284.125 L 185.265625 283.300781 L 187.0625 283.015625 L 188.859375 283.300781 L 190.480469 284.125 L 191.765625 285.414063 L 192.59375 287.035156 Z M 192.875 288.832031 "/>
<path style=" stroke:none;fill-rule:nonzero;fill:rgb(80.392157%,58.431373%,4.705882%);fill-opacity:1;" d="M 157.984375 424.523438 L 157.699219 426.320313 L 156.875 427.941406 L 155.585938 429.226563 L 153.964844 430.054688 L 152.167969 430.339844 L 150.371094 430.054688 L 148.132813 428.609375 L 148.539063 428.378906 L 150.066406 428.890625 L 151.640625 428.421875 L 152.765625 427.832031 L 153.085938 427.097656 L 152.808594 426.597656 L 147.785156 426.460938 L 146.542969 425.714844 L 146.355469 424.523438 L 146.636719 422.726563 L 147.464844 421.105469 L 148.75 419.816406 L 150.371094 418.992188 L 152.167969 418.707031 L 153.964844 418.992188 L 155.585938 419.816406 L 156.875 421.105469 L 157.699219 422.726563 Z M 157.984375 424.523438 "/>
<path style=" stroke:none;fill-rule:nonzero;fill:rgb(80.392157%,58.431373%,4.705882%);fill-opacity:1;" d="M 182.046875 221.859375 L 181.53125 220.84375 L 181.246094 219.046875 L 181.53125 217.25 L 182.355469 215.628906 L 183.644531 214.339844 L 185.265625 213.515625 L 187.0625 213.230469 L 188.859375 213.515625 L 190.480469 214.339844 L 191.765625 215.628906 L 192.59375 217.25 L 192.78125 218.449219 L 191.214844 219.742188 L 185.519531 221.085938 L 182.847656 221.226563 Z M 188.9375 224.535156 L 187.0625 224.863281 L 185.265625 224.578125 L 183.375 223.484375 L 184.609375 222.886719 L 186.457031 221.386719 L 187.289063 221.316406 L 189.085938 221.875 L 189.332031 222.921875 Z M 188.9375 224.535156 "/>
<path style=" stroke:none;fill-rule:nonzero;fill:rgb(80.392157%,58.431373%,4.705882%);fill-opacity:1;" d="M 192.875 319.847656 L 192.59375 321.644531 L 191.765625 323.265625 L 190.480469 324.550781 L 188.859375 325.375 L 187.0625 325.660156 L 186.328125 325.546875 L 187.28125 323.421875 L 187.71875 320.933594 L 187.855469 317.484375 L 184.742188 320.527344 L 181.761719 322.09375 L 181.246094 319.847656 L 181.53125 318.050781 L 182.355469 316.429688 L 183.644531 315.140625 L 185.265625 314.316406 L 187.0625 314.03125 L 188.859375 314.316406 L 190.480469 315.140625 L 191.765625 316.429688 L 192.59375 318.050781 Z M 192.875 319.847656 "/>
<path style=" stroke:none;fill-rule:nonzero;fill:rgb(80.392157%,58.431373%,4.705882%);fill-opacity:1;" d="M 154.109375 370.246094 L 153.824219 372.042969 L 152.996094 373.664063 L 152.804688 373.207031 L 150.203125 373.105469 L 145.449219 374.257813 L 144.714844 374.792969 L 143.585938 373.664063 L 142.726563 371.835938 L 147.132813 367.984375 L 147.953125 364.523438 L 148.292969 364.429688 L 150.089844 364.714844 L 151.710938 365.542969 L 152.996094 366.828125 L 153.824219 368.449219 Z M 154.109375 370.246094 "/>
<path style=" stroke:none;fill-rule:nonzero;fill:rgb(80.392157%,58.431373%,4.705882%);fill-opacity:1;" d="M 157.984375 428.398438 L 157.835938 429.335938 L 155.65625 429.589844 L 149.269531 432.308594 L 149.113281 432.746094 L 147.441406 431.769531 L 146.917969 429.308594 L 148.539063 428.378906 L 150.066406 428.890625 L 151.640625 428.421875 L 152.765625 427.832031 L 153.085938 427.097656 L 152.808594 426.597656 L 147.785156 426.460938 L 146.960938 425.96875 L 147.464844 424.980469 L 148.75 423.695313 L 150.371094 422.871094 L 152.167969 422.585938 L 153.964844 422.871094 L 155.585938 423.695313 L 156.875 424.980469 L 157.699219 426.601563 Z M 157.984375 428.398438 "/>
<path style=" stroke:none;fill-rule:nonzero;fill:rgb(80.392157%,58.431373%,4.705882%);fill-opacity:1;" d="M 161.863281 486.554688 L 161.578125 488.351563 L 160.554688 490.167969 L 158.269531 489.722656 L 157.554688 489.058594 L 156.527344 486.851563 L 154.683594 485.4375 L 153.613281 485.542969 L 152.417969 486.300781 L 151.738281 486.164063 L 150.507813 484.796875 L 151.339844 483.136719 L 152.628906 481.847656 L 154.25 481.023438 L 156.046875 480.738281 L 157.84375 481.023438 L 159.464844 481.847656 L 160.75 483.136719 L 161.578125 484.757813 Z M 161.863281 486.554688 "/>
<path style=" stroke:none;fill-rule:nonzero;fill:rgb(80.392157%,58.431373%,4.705882%);fill-opacity:1;" d="M 123.09375 486.554688 L 122.808594 488.351563 L 121.980469 489.972656 L 120.695313 491.257813 L 119.074219 492.085938 L 117.277344 492.371094 L 115.480469 492.085938 L 113.859375 491.257813 L 112.570313 489.972656 L 111.707031 488.089844 L 112.199219 488.253906 L 112.445313 488.9375 L 113.574219 489.15625 L 118.144531 485.910156 L 121.664063 482.816406 L 122.808594 484.757813 Z M 123.09375 486.554688 "/>
<path style=" stroke:none;fill-rule:nonzero;fill:rgb(80.392157%,58.431373%,4.705882%);fill-opacity:1;" d="M 146.355469 315.96875 L 146.070313 317.765625 L 145.242188 319.386719 L 143.957031 320.675781 L 142.335938 321.5 L 140.539063 321.785156 L 138.246094 321.25 L 139.816406 316.644531 L 142.300781 315.023438 L 144.140625 311.445313 L 145.242188 312.550781 L 146.070313 314.171875 Z M 146.355469 315.96875 "/>
<path style=" stroke:none;fill-rule:nonzero;fill:rgb(80.392157%,58.431373%,4.705882%);fill-opacity:1;" d="M 150.054688 313.75 L 148.292969 314.03125 L 146.496094 313.746094 L 144.875 312.921875 L 143.890625 311.933594 L 144.765625 310.230469 L 145.863281 309.40625 L 149.046875 308.269531 L 150.203125 313.453125 Z M 150.054688 313.75 "/>
</g>
</svg>
