<?xml version="1.0" encoding="UTF-8"?>
<svg xmlns="http://www.w3.org/2000/svg" xmlns:xlink="http://www.w3.org/1999/xlink" width="378pt" height="504pt" viewBox="0 0 378 504" version="1.1">
<g id="data">
<rect x="0" y="0" width="378" height="504" style="fill:rgb(100%,100%,100%);fill-opacity:1;stroke:none;"/>
<path style=" stroke:none;fill-rule:nonzero;fill:rgb(100%,100%,100%);fill-opacity:1;" d="M 53.308594 504 L 324.691406 504 L 324.691406 0 L 53.308594 0 Z M 53.308594 504 "/>
<path style=" stroke:none;fill-rule:nonzero;fill:rgb(22.745098%,53.333333%,16.078431%);fill-opacity:1;" d="M 144.128906 351.425781 L 145.851563 352.25 L 147.476563 353.386719 L 149.3125 354.128906 L 150.8125 355.035156 L 151.039063 355.578125 L 151.382813 355.652344 L 151.753906 356.085938 L 151.847656 355.746094 L 155.546875 356.503906 L 154.066406 358.859375 L 150.984375 360.816406 L 147.425781 363.976563 L 146.109375 363.875 L 144.195313 361.613281 L 142.050781 357.363281 L 142.246094 352.273438 Z M 172.816406 314.734375 L 173.824219 314.257813 L 175.683594 314.035156 L 177.90625 314.132813 L 180.207031 313.710938 L 181.535156 313.066406 L 183.25 311.578125 L 184.847656 310.59375 L 186.671875 310.167969 L 188.539063 310.34375 L 190.25 311.105469 L 191.632813 312.375 L 192.910156 313.996094 L 194.535156 315.273438 L 195.699219 316.507813 L 196.460938 318.023438 L 196.75 319.695313 L 196.546875 321.378906 L 195.867188 322.933594 L 194.765625 324.222656 L 193.042969 325.730469 L 192.164063 327.070313 L 191.683594 328.601563 L 191.628906 330.191406 L 191.859375 331.300781 L 192.335938 332.382813 L 193.152344 333.488281 L 194.691406 334.789063 L 195.640625 335.8125 L 196.320313 337.027344 L 196.9375 338.539063 L 197.441406 339.3125 L 198.792969 340.578125 L 201.214844 341.746094 L 202.675781 342.746094 L 203.765625 344.144531 L 204.386719 345.800781 L 204.476563 347.570313 L 204.035156 349.28125 L 203.09375 350.785156 L 201.242188 352.929688 L 200.484375 354.84375 L 200.371094 356.535156 L 200.992188 361.175781 L 201.46875 362.234375 L 202.28125 363.292969 L 203.3125 364.136719 L 205.117188 365.019531 L 206.664063 366.117188 L 207.773438 367.652344 L 208.59375 369.296875 L 209.292969 370.1875 L 210.15625 370.917969 L 211.046875 371.40625 L 213.21875 371.890625 L 215.359375 371.605469 L 216.550781 371.046875 L 218.246094 369.644531 L 219.472656 368.863281 L 220.851563 368.414063 L 222.726563 368.050781 L 223.636719 367.664063 L 226.066406 365.710938 L 227.277344 364.960938 L 228.636719 364.53125 L 230.40625 364.199219 L 231.511719 363.738281 L 232.65625 362.957031 L 235.710938 360.152344 L 236.460938 358.945313 L 236.863281 357.667969 L 236.9375 356.019531 L 236.550781 354.332031 L 235.109375 351.0625 L 233.664063 349.394531 L 232.464844 348.65625 L 231 348.222656 L 229.472656 348.191406 L 227.238281 348.75 L 225.339844 348.902344 L 223.492188 348.429688 L 221.894531 347.386719 L 220.722656 345.886719 L 219.402344 343.457031 L 218.082031 342.21875 L 216.335938 341.421875 L 213.601563 341.136719 L 211.953125 340.71875 L 210.496094 339.839844 L 209.359375 338.574219 L 208.632813 337.035156 L 208.382813 335.355469 L 208.382813 331.476563 L 208.777344 329.375 L 209.902344 327.558594 L 211.507813 325.796875 L 212.207031 324.402344 L 212.515625 322.757813 L 212.289063 320.402344 L 212.46875 318.308594 L 213.382813 316.414063 L 214.382813 315.042969 L 214.898438 313.917969 L 215.144531 312.839844 L 215.1875 311.011719 L 215.546875 309.121094 L 216.503906 307.453125 L 217.953125 306.1875 L 219.738281 305.464844 L 221.660156 305.363281 L 223.507813 305.894531 L 225.082031 307.003906 L 226.855469 308.75 L 227.859375 309.445313 L 228.9375 309.917969 L 232.066406 310.789063 L 233.75 311.5625 L 235.101563 312.824219 L 235.992188 314.445313 L 236.324219 316.265625 L 236.070313 318.097656 L 235.253906 319.757813 L 233.957031 321.078125 L 232.410156 322.214844 L 231.570313 323.175781 L 230.964844 324.300781 L 230.617188 325.542969 L 230.550781 326.722656 L 230.753906 328.011719 L 231.5 329.898438 L 232.171875 330.96875 L 233.078125 331.886719 L 234.160156 332.585938 L 235.265625 333 L 236.542969 333.179688 L 237.828125 333.078125 L 238.957031 332.738281 L 240.101563 332.097656 L 241.523438 330.847656 L 243.160156 329.828125 L 245.039063 329.402344 L 246.953125 329.613281 L 248.695313 330.441406 L 250.070313 331.792969 L 251.285156 333.460938 L 252.859375 334.800781 L 254.136719 336.339844 L 254.820313 338.222656 L 255.097656 339.792969 L 255.507813 340.867188 L 256.105469 341.820313 L 256.035156 341.773438 L 253.664063 338.65625 L 252.601563 338.082031 L 245.550781 339.511719 L 244.589844 338.644531 L 243.40625 338.558594 L 241.210938 339.871094 L 241.886719 340.445313 L 246.324219 340.394531 L 249.617188 339.34375 L 251.976563 339.082031 L 254.382813 342.558594 L 258.683594 346.097656 L 258.773438 347.359375 L 258.652344 349.207031 L 258.859375 350.953125 L 259.175781 352.039063 L 259.621094 352.917969 L 262.574219 356.535156 L 264.34375 357.941406 L 265.273438 358.871094 L 266.714844 360.683594 L 269.398438 362.957031 L 269.464844 362.996094 L 269.210938 365.21875 L 264.953125 369.09375 L 261.394531 373.164063 L 260.601563 374.816406 L 262.84375 374.3125 L 264.9375 375.519531 L 266.9375 378.226563 L 270.21875 378.804688 L 270.625 378.746094 L 271.910156 376.796875 L 272.234375 374.960938 L 273.40625 371.914063 L 274.707031 370.632813 L 277.851563 370.085938 L 283.34375 370.234375 L 284.253906 370.867188 L 286.703125 370.742188 L 293.949219 371.515625 L 296.914063 372.84375 L 304.070313 378.085938 L 305.367188 380.105469 L 306.730469 384.164063 L 307.179688 391.25 L 306.777344 393.191406 L 306.890625 393.976563 L 305.789063 396.917969 L 303.519531 407.832031 L 297.144531 414.53125 L 295.578125 412.011719 L 292.742188 410.515625 L 292.480469 410.636719 L 293.898438 413.703125 L 295.890625 416.628906 L 296.3125 416.765625 L 296.164063 417.742188 L 294.574219 419.804688 L 292.191406 421.289063 L 290.003906 421.65625 L 289.660156 421.574219 L 288.214844 419.332031 L 284.976563 421.730469 L 280.71875 424.230469 L 282.339844 425.378906 L 285.105469 424.398438 L 286.097656 423.375 L 286.894531 423.164063 L 287.328125 423.710938 L 287.632813 428.84375 L 285.6875 430.875 L 283.441406 432.558594 L 282.84375 432.699219 L 279.644531 432.160156 L 274.75 433.78125 L 272.609375 436.117188 L 274.253906 436.015625 L 275.152344 434.667969 L 276.683594 434.363281 L 278.285156 434.328125 L 281.054688 434.949219 L 281.828125 435.589844 L 281.691406 436.328125 L 279.554688 436.347656 L 277.390625 437.65625 L 277.96875 438.546875 L 281.382813 438.964844 L 286.863281 440.339844 L 289.394531 439.9375 L 291.074219 438.957031 L 299.742188 437.757813 L 300.988281 440.148438 L 300.773438 446.324219 L 300.335938 447.820313 L 299.394531 449.050781 L 296.972656 450.242188 L 295.839844 450.375 L 292.621094 451.640625 L 291.179688 452.742188 L 289.847656 454.226563 L 289.460938 455.09375 L 289.214844 456.324219 L 289.464844 457.886719 L 286.253906 458.289063 L 284.1875 457.9375 L 281.042969 460.90625 L 278.484375 461.933594 L 274.789063 462.777344 L 272.597656 463.816406 L 270.539063 466.589844 L 269.761719 466.949219 L 259.269531 463.777344 L 256.070313 463.507813 L 244.628906 465.699219 L 242.703125 466.390625 L 242.113281 466.964844 L 241.902344 467.984375 L 241.359375 468.164063 L 238.210938 466.1875 L 238.632813 465.4375 L 239.46875 464.933594 L 237.714844 463.296875 L 231.496094 463.171875 L 231.378906 463.496094 L 232.574219 464.835938 L 232.214844 465.75 L 231.738281 466.042969 L 226.691406 465.496094 L 219.566406 468.449219 L 217.054688 467.824219 L 210.222656 468.96875 L 208.164063 468.875 L 207.273438 468.058594 L 206.238281 469.769531 L 209.429688 471.089844 L 209.714844 470.9375 L 210.1875 472.128906 L 209.566406 473.890625 L 206.84375 474.453125 L 204.453125 473.097656 L 203.015625 472.699219 L 197.625 472.007813 L 196.175781 472.65625 L 195.679688 473.863281 L 195.832031 474.871094 L 196.757813 475.523438 L 196.488281 476.304688 L 195.917969 475.996094 L 194.851563 473.972656 L 190.289063 470.589844 L 185.898438 468.519531 L 183.121094 467.984375 L 181.648438 469.066406 L 176.207031 469.78125 L 174.339844 470.335938 L 168.992188 473.234375 L 168.214844 474.070313 L 167.203125 476.179688 L 162.746094 489.226563 L 160.929688 490.242188 L 158.269531 489.722656 L 157.554688 489.058594 L 156.527344 486.851563 L 154.683594 485.4375 L 153.613281 485.542969 L 152.417969 486.300781 L 151.738281 486.164063 L 148.46875 482.535156 L 142.796875 482.960938 L 141.527344 483.375 L 140.734375 484.175781 L 139.910156 484.507813 L 134.507813 484.320313 L 132.167969 484.859375 L 129.414063 488.195313 L 126.714844 489.746094 L 124.039063 490.597656 L 123.132813 494.289063 L 123.664063 495.292969 L 123.496094 496.125 L 122.722656 496.945313 L 120.660156 497.648438 L 119.628906 499.730469 L 118.675781 498.910156 L 117.96875 497.691406 L 118.09375 496.4375 L 117.15625 494.691406 L 115.984375 493.691406 L 112.253906 492.070313 L 111.410156 491.984375 L 110.375 492.488281 L 110.242188 494.183594 L 109.421875 495.128906 L 106.824219 495.664063 L 105.398438 494.824219 L 105.628906 491.574219 L 106.074219 490.5625 L 111.738281 488.078125 L 112.199219 488.253906 L 112.445313 488.9375 L 113.574219 489.15625 L 118.144531 485.910156 L 121.425781 483.085938 L 124.375 479.769531 L 125.210938 477.886719 L 124.875 476.421875 L 125.640625 474.519531 L 128.386719 473.238281 L 132.105469 472.640625 L 132.679688 471.785156 L 133.257813 469.527344 L 135.859375 467.5625 L 138.636719 464.640625 L 139.128906 458.542969 L 139.796875 454.753906 L 142.492188 455.105469 L 144.269531 456.015625 L 145.761719 455.429688 L 148.429688 452.488281 L 148.105469 447.519531 L 151.105469 446.613281 L 157.421875 446.269531 L 159.910156 445.683594 L 164.597656 446.761719 L 166.046875 446.148438 L 167.527344 446.515625 L 169.484375 447.285156 L 170.039063 448.109375 L 170.757813 448.421875 L 173.15625 448.464844 L 180.570313 447.503906 L 181.109375 445.632813 L 181.210938 443.15625 L 182.519531 440.25 L 190.867188 432.195313 L 195.792969 425.3125 L 197.929688 424.472656 L 198.285156 423.78125 L 198.070313 423.238281 L 197.8125 423.082031 L 196.09375 424.355469 L 192.90625 427.300781 L 190.570313 429.988281 L 189.222656 431.449219 L 185.628906 432.957031 L 183.714844 433.246094 L 182.441406 433.0625 L 178.394531 435.230469 L 177.398438 436.808594 L 177.039063 438.671875 L 176.445313 439.273438 L 174.058594 439.917969 L 170.558594 439.851563 L 166.820313 439 L 166.347656 438.652344 L 161.371094 433.375 L 159.03125 429.199219 L 155.65625 429.589844 L 149.269531 432.308594 L 149.113281 432.746094 L 147.203125 431.632813 L 146.917969 429.308594 L 148.539063 428.378906 L 150.066406 428.890625 L 151.640625 428.421875 L 152.765625 427.832031 L 153.085938 427.097656 L 152.808594 426.597656 L 147.785156 426.460938 L 143.210938 423.710938 L 139.503906 423.714844 L 136.765625 424.277344 L 136.292969 426.515625 L 135.777344 427.203125 L 133.742188 427.917969 L 132.394531 427.265625 L 131.648438 427.453125 L 129.4375 429.378906 L 126.53125 428.132813 L 127.425781 426.082031 L 128.796875 425.832031 L 131.792969 424.328125 L 131.226563 422.867188 L 130.640625 424.257813 L 127.769531 424.613281 L 122.949219 424.152344 L 121.875 423.421875 L 123.125 422.308594 L 124.125 421.78125 L 125.167969 421.753906 L 125.464844 421.238281 L 124.929688 417.953125 L 124.375 417.695313 L 124.210938 416.15625 L 124.316406 414.269531 L 124.394531 414.085938 L 125.933594 413.378906 L 126.539063 411.90625 L 133.074219 411.34375 L 133.457031 410.90625 L 134.660156 412.066406 L 135.972656 413.835938 L 137.113281 414.75 L 138.445313 415.351563 L 139.949219 415.609375 L 141.09375 415.535156 L 142.851563 415.046875 L 145.003906 414.859375 L 147.296875 415.09375 L 148.652344 414.878906 L 150.257813 414.140625 L 152.175781 412.429688 L 153.617188 411.484375 L 155.277344 411.003906 L 157 411.03125 L 158.644531 411.566406 L 160.054688 412.558594 L 161.113281 413.917969 L 162.417969 416.234375 L 163.777344 417.484375 L 165.460938 418.246094 L 167.382813 418.457031 L 168.261719 418.332031 L 169.378906 417.945313 L 170.289063 417.417969 L 171.601563 416.269531 L 173.164063 415.292969 L 174.953125 414.851563 L 176.789063 414.992188 L 178.535156 415.410156 L 179.828125 415.4375 L 183.4375 414.734375 L 184.535156 414.363281 L 185.757813 413.636719 L 187.292969 412.203125 L 188.085938 411.203125 L 188.539063 410.324219 L 189.761719 405.066406 L 189.722656 403.890625 L 189.441406 402.777344 L 188.769531 401.472656 L 187.90625 400.472656 L 186.832031 399.695313 L 184.863281 398.890625 L 183.199219 397.855469 L 181.976563 396.328125 L 181.328125 394.480469 L 181.328125 392.523438 L 181.828125 389.628906 L 181.328125 386.738281 L 181.277344 385.167969 L 181.640625 383.644531 L 182.402344 382.273438 L 184.238281 379.816406 L 184.828125 377.871094 L 184.804688 376.382813 L 184.316406 374.757813 L 183.792969 373.863281 L 183.03125 373.007813 L 182.101563 372.308594 L 180.648438 371.601563 L 179.144531 370.554688 L 178.046875 369.089844 L 176.847656 366.828125 L 175.582031 365.574219 L 173.847656 364.6875 L 172.96875 364.488281 L 171.339844 364.425781 L 169.195313 363.929688 L 166.953125 362.933594 L 166.277344 362.5 L 165.488281 362.824219 L 163.859375 363.214844 L 162.332031 363.90625 L 160.820313 364.363281 L 159.238281 364.390625 L 157.707031 363.992188 L 155.09375 362.914063 L 153.507813 361.9375 L 152.695313 360.96875 L 152.449219 361.898438 L 151.425781 363.453125 L 148.699219 366.421875 L 147.28125 367.550781 L 147.230469 367.570313 L 147.953125 364.523438 L 151.550781 360.582031 L 153.09375 359.609375 L 154.941406 359.808594 L 160.492188 357.457031 L 163.644531 357.28125 L 167.339844 357.714844 L 172.597656 355.179688 L 173.933594 355.046875 L 174.484375 355.082031 L 179.910156 359.441406 L 180.433594 358.429688 L 177.679688 353.460938 L 178.242188 352.835938 L 180.867188 352.449219 L 181.503906 352.695313 L 181.914063 353.875 L 182.898438 354.332031 L 184.078125 356.789063 L 185.613281 357.902344 L 188.359375 357.621094 L 190.335938 355.148438 L 189.90625 355.050781 L 188.667969 355.527344 L 188.3125 355.957031 L 186.378906 356.386719 L 183.8125 354.640625 L 179.976563 346.332031 L 183.371094 340.257813 L 185.429688 339.015625 L 185.140625 338.578125 L 182.683594 338.460938 L 181.554688 337.164063 L 181.355469 336.117188 L 181.601563 331.078125 L 181.949219 330.421875 L 184.695313 329.191406 L 187.28125 323.421875 L 187.71875 320.933594 L 187.855469 317.484375 L 184.742188 320.527344 L 179.199219 323.441406 L 177.335938 322.691406 L 172.851563 314.925781 Z M 241.226563 322.515625 L 240.441406 320.957031 L 240.15625 319.238281 L 240.390625 317.511719 L 241.125 315.929688 L 242.296875 314.636719 L 243.800781 313.753906 L 245.496094 313.351563 L 247.238281 313.472656 L 248.523438 313.761719 L 249.289063 315.722656 L 252.390625 319.148438 L 254.816406 320.273438 L 254.722656 321.292969 L 253.980469 322.996094 L 252.742188 324.375 L 251.070313 325.722656 L 249.425781 326.652344 L 247.570313 327.007813 L 245.695313 326.746094 L 244.007813 325.902344 L 242.679688 324.558594 Z M 142.75 314.148438 L 144.261719 314.859375 L 145.554688 316.046875 L 146.433594 317.5625 L 146.800781 319.179688 L 145.3125 320.636719 L 141.859375 323.019531 L 139.824219 322.464844 L 137.933594 323.433594 L 137.675781 322.921875 L 139.816406 316.644531 L 142.300781 315.023438 Z M 141.734375 358.875 L 141.003906 358.070313 L 139.230469 356.960938 L 138.828125 356.035156 L 139.253906 355.210938 L 140.597656 355.164063 L 141.484375 356.3125 L 142.226563 358.1875 Z M 286.679688 439.636719 L 283.058594 438.976563 L 282.164063 437.605469 L 282.484375 436.070313 L 286.839844 437.054688 L 287.960938 438.832031 Z M 236.835938 466.113281 L 235.136719 465.644531 L 236.523438 463.683594 L 237.195313 464.164063 L 237.5 465.839844 Z M 228.117188 474.644531 L 222.296875 470.886719 L 220.207031 471.1875 L 221.476563 469.683594 L 227.316406 466.367188 L 232.550781 467.761719 L 234.171875 469.894531 L 231.242188 473.621094 L 229.960938 474.269531 Z M 228.117188 474.644531 "/>
<path style=" stroke:none;fill-rule:nonzero;fill:rgb(80.392157%,58.431373%,4.705882%);fill-opacity:1;" d="M 212.261719 284.953125 L 211.976563 286.75 L 211.152344 288.371094 L 209.863281 289.660156 L 208.242188 290.484375 L 206.445313 290.769531 L 204.648438 290.484375 L 203.027344 289.660156 L 201.742188 288.371094 L 200.914063 286.75 L 200.628906 284.953125 L 200.914063 283.15625 L 201.742188 281.535156 L 203.027344 280.25 L 204.648438 279.421875 L 206.445313 279.136719 L 208.242188 279.421875 L 209.863281 280.25 L 211.152344 281.535156 L 211.976563 283.15625 Z M 212.261719 284.953125 "/>
<path style=" stroke:none;fill-rule:nonzero;fill:rgb(80.392157%,58.431373%,4.705882%);fill-opacity:1;" d="M 154.109375 242.308594 L 153.824219 244.105469 L 152.996094 245.726563 L 151.710938 247.011719 L 150.089844 247.839844 L 148.292969 248.125 L 146.496094 247.839844 L 144.875 247.011719 L 143.585938 245.726563 L 142.761719 244.105469 L 142.480469 242.339844 L 142.886719 242.511719 L 146.15625 243.175781 L 148.300781 243.253906 L 142.679688 241.019531 L 142.761719 240.511719 L 143.585938 238.890625 L 144.875 237.601563 L 146.496094 236.777344 L 148.292969 236.492188 L 150.089844 236.777344 L 151.710938 237.601563 L 152.996094 238.890625 L 153.824219 240.511719 Z M 154.109375 242.308594 "/>
<path style=" stroke:none;fill-rule:nonzero;fill:rgb(80.392157%,58.431373%,4.705882%);fill-opacity:1;" d="M 189 288.832031 L 188.714844 290.628906 L 187.890625 292.25 L 186.601563 293.535156 L 184.980469 294.363281 L 183.183594 294.644531 L 181.386719 294.363281 L 179.765625 293.535156 L 178.480469 292.25 L 177.652344 290.628906 L 177.371094 288.832031 L 177.652344 287.035156 L 178.128906 286.097656 L 178.757813 285.980469 L 180.191406 286.804688 L 181.015625 286.710938 L 182.933594 286.238281 L 183.03125 285.160156 L 182.34375 284.746094 L 180.035156 285.351563 L 178.636719 285.257813 L 179.765625 284.125 L 181.386719 283.300781 L 183.183594 283.015625 L 184.980469 283.300781 L 186.601563 284.125 L 187.890625 285.414063 L 188.714844 287.035156 Z M 189 288.832031 "/>
<path style=" stroke:none;fill-rule:nonzero;fill:rgb(80.392157%,58.431373%,4.705882%);fill-opacity:1;" d="M 210.738281 253.894531 L 209.863281 254.765625 L 208.242188 255.59375 L 206.445313 255.875 L 204.648438 255.59375 L 203.027344 254.765625 L 201.742188 253.480469 L 200.914063 251.859375 L 200.628906 250.0625 L 200.914063 248.265625 L 201.742188 246.644531 L 203.027344 245.355469 L 203.582031 245.074219 L 206.488281 246.65625 L 208.910156 251.429688 Z M 210.738281 253.894531 "/>
<path style=" stroke:none;fill-rule:nonzero;fill:rgb(80.392157%,58.431373%,4.705882%);fill-opacity:1;" d="M 177.371094 296.585938 L 177.085938 298.382813 L 176.257813 300.003906 L 174.972656 301.289063 L 173.351563 302.117188 L 171.554688 302.398438 L 169.757813 302.117188 L 168.417969 301.433594 L 169.164063 299.058594 L 172.992188 290.996094 L 173.351563 291.054688 L 174.972656 291.878906 L 176.257813 293.167969 L 177.085938 294.789063 Z M 177.371094 296.585938 "/>
<path style=" stroke:none;fill-rule:nonzero;fill:rgb(80.392157%,58.431373%,4.705882%);fill-opacity:1;" d="M 146.355469 253.9375 L 146.070313 255.734375 L 145.242188 257.355469 L 143.957031 258.644531 L 143.484375 258.882813 L 142.601563 256.71875 L 139.777344 254.832031 L 137.378906 252.511719 L 137.84375 248.867188 L 138.742188 248.40625 L 140.539063 248.125 L 142.335938 248.40625 L 143.957031 249.234375 L 145.242188 250.519531 L 146.070313 252.140625 Z M 146.355469 253.9375 "/>
<path style=" stroke:none;fill-rule:nonzero;fill:rgb(80.392157%,58.431373%,4.705882%);fill-opacity:1;" d="M 182.742188 243.121094 L 182.726563 243.136719 L 181.105469 243.960938 L 179.308594 244.246094 L 177.511719 243.960938 L 175.890625 243.136719 L 174.601563 241.847656 L 174.289063 241.230469 L 178.0625 241.875 Z M 173.683594 239.636719 L 173.492188 238.429688 L 173.777344 236.632813 L 174.601563 235.011719 L 175.890625 233.726563 L 177.511719 232.898438 L 179.308594 232.617188 L 181.105469 232.898438 L 182.726563 233.726563 L 183.0625 234.0625 L 181.046875 235.800781 L 180.578125 237.003906 L 174.761719 240.109375 Z M 173.683594 239.636719 "/>
<path style=" stroke:none;fill-rule:nonzero;fill:rgb(80.392157%,58.431373%,4.705882%);fill-opacity:1;" d="M 226.222656 294.585938 L 225.832031 294.644531 L 224.035156 294.363281 L 222.414063 293.535156 L 221.125 292.25 L 220.300781 290.628906 L 220.015625 288.832031 L 220.300781 287.035156 L 221.125 285.414063 L 222.414063 284.125 L 222.90625 283.875 L 222.984375 284.039063 L 223.773438 285.027344 L 225.945313 294.183594 Z M 226.222656 294.585938 "/>
<path style=" stroke:none;fill-rule:nonzero;fill:rgb(80.392157%,58.431373%,4.705882%);fill-opacity:1;" d="M 157.984375 393.507813 L 157.699219 395.304688 L 156.875 396.925781 L 155.585938 398.210938 L 153.964844 399.039063 L 152.167969 399.324219 L 151.375 399.199219 L 152.136719 398.207031 L 153.054688 396.195313 L 154.199219 391.746094 L 153.734375 388.820313 L 153.246094 387.863281 L 153.964844 387.976563 L 155.585938 388.804688 L 156.875 390.089844 L 157.699219 391.710938 Z M 157.984375 393.507813 "/>
<path style=" stroke:none;fill-rule:nonzero;fill:rgb(80.392157%,58.431373%,4.705882%);fill-opacity:1;" d="M 88.429688 500.046875 L 88.566406 499.308594 L 88.941406 499.117188 L 89.34375 499.789063 Z M 88.429688 500.046875 "/>
<path style=" stroke:none;fill-rule:nonzero;fill:rgb(80.392157%,58.431373%,4.705882%);fill-opacity:1;" d="M 88.429688 500.046875 L 88.566406 499.308594 L 88.941406 499.117188 L 89.34375 499.789063 Z M 88.429688 500.046875 "/>
</g>
</svg>
