<?xml version="1.0" encoding="UTF-8"?>
<svg xmlns="http://www.w3.org/2000/svg" xmlns:xlink="http://www.w3.org/1999/xlink" width="378pt" height="504pt" viewBox="0 0 378 504" version="1.1">
<g id="data">
<rect x="0" y="0" width="378" height="504" style="fill:rgb(100%,100%,100%);fill-opacity:1;stroke:none;"/>
<path style=" stroke:none;fill-rule:nonzero;fill:rgb(100%,100%,100%);fill-opacity:1;" d="M 53.308594 504 L 324.691406 504 L 324.691406 0 L 53.308594 0 Z M 53.308594 504 "/>
<path style=" stroke:none;fill-rule:nonzero;fill:rgb(22.745098%,53.333333%,16.078431%);fill-opacity:1;" d="M 300.75 375.652344 L 301.5625 376.640625 L 303.371094 378 L 303.777344 380.242188 L 304.558594 382.25 L 305.773438 384.183594 L 306.804688 385.28125 L 307.179688 391.25 L 306.777344 393.191406 L 306.890625 393.976563 L 305.789063 396.917969 L 305.148438 399.996094 L 304.796875 400.4375 L 303.851563 402.652344 L 303.371094 405.136719 L 301.667969 407.015625 L 300.363281 409.332031 L 299.765625 411.777344 L 297.144531 414.53125 L 295.578125 412.011719 L 292.742188 410.515625 L 292.480469 410.636719 L 293.898438 413.703125 L 295.890625 416.628906 L 296.3125 416.765625 L 296.164063 417.742188 L 294.574219 419.804688 L 292.191406 421.289063 L 290.003906 421.65625 L 289.660156 421.574219 L 288.214844 419.332031 L 284.976563 421.730469 L 280.71875 424.230469 L 282.339844 425.378906 L 285.105469 424.398438 L 286.097656 423.375 L 286.894531 423.164063 L 287.328125 423.710938 L 287.632813 428.84375 L 285.6875 430.875 L 283.441406 432.558594 L 282.84375 432.699219 L 279.644531 432.160156 L 274.75 433.78125 L 272.609375 436.117188 L 274.253906 436.015625 L 275.152344 434.667969 L 276.683594 434.363281 L 278.285156 434.328125 L 281.054688 434.949219 L 281.828125 435.589844 L 281.691406 436.328125 L 279.554688 436.347656 L 277.390625 437.65625 L 277.96875 438.546875 L 281.382813 438.964844 L 286.863281 440.339844 L 289.394531 439.9375 L 291.074219 438.957031 L 299.742188 437.757813 L 300.988281 440.148438 L 300.875 443.359375 L 300.050781 445.054688 L 299.367188 448.78125 L 299.378906 449.058594 L 296.972656 450.242188 L 295.839844 450.375 L 292.621094 451.640625 L 291.179688 452.742188 L 289.847656 454.226563 L 289.460938 455.09375 L 289.214844 456.324219 L 289.292969 456.816406 L 288.648438 457.988281 L 286.253906 458.289063 L 284.1875 457.9375 L 281.042969 460.90625 L 278.484375 461.933594 L 274.789063 462.777344 L 272.597656 463.816406 L 270.539063 466.589844 L 269.761719 466.949219 L 259.480469 463.839844 L 259.332031 463.773438 L 255.597656 463.148438 L 252.214844 463.378906 L 248.378906 464.65625 L 247.84375 465.085938 L 244.628906 465.699219 L 242.703125 466.390625 L 242.113281 466.964844 L 242.085938 467.109375 L 240.582031 467.257813 L 240.140625 467.398438 L 238.210938 466.1875 L 238.632813 465.4375 L 239.46875 464.933594 L 237.714844 463.296875 L 231.496094 463.171875 L 231.378906 463.496094 L 232.574219 464.835938 L 232.214844 465.75 L 231.738281 466.042969 L 226.691406 465.496094 L 219.566406 468.449219 L 217.054688 467.824219 L 210.222656 468.96875 L 208.164063 468.875 L 207.273438 468.058594 L 206.238281 469.769531 L 209.429688 471.089844 L 209.714844 470.9375 L 210.1875 472.128906 L 209.566406 473.890625 L 206.84375 474.453125 L 204.453125 473.097656 L 203.015625 472.699219 L 197.625 472.007813 L 196.175781 472.65625 L 195.679688 473.863281 L 195.832031 474.871094 L 196.757813 475.523438 L 196.488281 476.304688 L 195.917969 475.996094 L 194.851563 473.972656 L 190.289063 470.589844 L 185.898438 468.519531 L 183.121094 467.984375 L 181.648438 469.066406 L 176.207031 469.78125 L 174.339844 470.335938 L 168.992188 473.234375 L 168.214844 474.070313 L 167.203125 476.179688 L 162.746094 489.226563 L 160.929688 490.242188 L 158.269531 489.722656 L 157.554688 489.058594 L 156.527344 486.851563 L 154.683594 485.4375 L 153.613281 485.542969 L 152.417969 486.300781 L 151.738281 486.164063 L 148.46875 482.535156 L 142.796875 482.960938 L 141.527344 483.375 L 141.214844 483.691406 L 139.765625 483.617188 L 136.703125 484.394531 L 134.507813 484.320313 L 132.167969 484.859375 L 129.414063 488.195313 L 126.714844 489.746094 L 124.039063 490.597656 L 123.132813 494.289063 L 123.664063 495.292969 L 123.636719 495.429688 L 122.683594 496.195313 L 121.886719 497.230469 L 120.660156 497.648438 L 120.394531 498.183594 L 118.253906 498.183594 L 117.96875 497.691406 L 118.09375 496.4375 L 117.15625 494.691406 L 115.984375 493.691406 L 112.253906 492.070313 L 111.410156 491.984375 L 110.375 492.488281 L 110.242188 494.183594 L 110.03125 494.425781 L 108.148438 494.160156 L 105.644531 494.308594 L 107.453125 492.949219 L 109.523438 490.429688 L 111.691406 488.722656 L 112.09375 488.214844 L 112.199219 488.253906 L 112.445313 488.9375 L 113.574219 489.15625 L 118.144531 485.910156 L 121.425781 483.085938 L 124.375 479.769531 L 125.210938 477.886719 L 124.875 476.421875 L 125.578125 474.671875 L 127.933594 473.582031 L 128.273438 473.292969 L 128.386719 473.238281 L 132.105469 472.640625 L 132.679688 471.785156 L 133.257813 469.527344 L 135.859375 467.5625 L 138.636719 464.640625 L 139.089844 459.035156 L 140.207031 458.863281 L 143.519531 457.179688 L 144.921875 455.757813 L 145.761719 455.429688 L 148.429688 452.488281 L 148.171875 448.574219 L 148.292969 447.785156 L 148.425781 447.421875 L 151.105469 446.613281 L 157.421875 446.269531 L 159.910156 445.683594 L 164.597656 446.761719 L 166.046875 446.148438 L 167.527344 446.515625 L 169.484375 447.285156 L 170.039063 448.109375 L 170.757813 448.421875 L 173.15625 448.464844 L 180.570313 447.503906 L 181.109375 445.632813 L 181.210938 443.15625 L 182.519531 440.25 L 190.867188 432.195313 L 195.792969 425.3125 L 197.929688 424.472656 L 198.285156 423.78125 L 198.070313 423.238281 L 197.8125 423.082031 L 196.09375 424.355469 L 192.90625 427.300781 L 190.570313 429.988281 L 189.222656 431.449219 L 185.628906 432.957031 L 183.714844 433.246094 L 182.441406 433.0625 L 178.394531 435.230469 L 177.398438 436.808594 L 177.039063 438.671875 L 176.445313 439.273438 L 174.058594 439.917969 L 170.558594 439.851563 L 166.820313 439 L 166.347656 438.652344 L 161.371094 433.375 L 159.03125 429.199219 L 155.65625 429.589844 L 149.269531 432.308594 L 149.113281 432.746094 L 147.203125 431.632813 L 146.917969 429.308594 L 148.539063 428.378906 L 150.066406 428.890625 L 151.640625 428.421875 L 152.765625 427.832031 L 153.085938 427.097656 L 152.808594 426.597656 L 147.785156 426.460938 L 143.210938 423.710938 L 139.503906 423.714844 L 136.765625 424.277344 L 136.292969 426.515625 L 135.777344 427.203125 L 133.742188 427.917969 L 132.394531 427.265625 L 131.648438 427.453125 L 130.5625 428.398438 L 127.15625 428.398438 L 126.53125 428.132813 L 127.28125 426.417969 L 127.714844 426.035156 L 127.71875 426.03125 L 128.796875 425.832031 L 131.792969 424.328125 L 131.226563 422.867188 L 130.640625 424.257813 L 128.617188 424.507813 L 129.601563 422.84375 L 130.386719 419.222656 L 129.992188 415.539063 L 131.753906 417.902344 L 134.046875 419.75 L 136.734375 420.957031 L 139.636719 421.453125 L 142.070313 421.300781 L 144.414063 420.644531 L 147.332031 420.960938 L 150.355469 420.496094 L 153.480469 419.058594 L 156.046875 416.769531 L 157.800781 419.890625 L 160.53125 422.402344 L 163.785156 423.890625 L 167.46875 424.316406 L 169.753906 423.984375 L 171.808594 423.257813 L 173.796875 422.089844 L 175.429688 420.644531 L 182.1875 420.769531 L 184.8125 420.394531 L 186.976563 419.675781 L 189.265625 418.320313 L 191.582031 416.15625 L 193 414.367188 L 194.039063 412.339844 L 194.6875 410.023438 L 195.125 405.972656 L 194.734375 403.320313 L 193.6875 400.71875 L 189.578125 395.578125 L 187.0625 393.507813 L 185.925781 390.933594 L 184.289063 388.796875 L 181.992188 386.957031 L 179.308594 385.753906 L 181.378906 384.734375 L 183.300781 383.238281 L 184.796875 381.484375 L 185.964844 379.347656 L 186.640625 377.140625 L 186.863281 374.714844 L 186.609375 372.421875 L 185.851563 370.109375 L 184.628906 368 L 181.910156 364.65625 L 177.636719 360.941406 L 174.878906 359.390625 L 171.554688 358.617188 L 169.234375 357.59375 L 171.554688 357.035156 L 173.714844 356.011719 L 174.707031 355.257813 L 179.910156 359.441406 L 180.433594 358.429688 L 177.679688 353.460938 L 178.242188 352.835938 L 180.867188 352.449219 L 181.503906 352.695313 L 181.914063 353.875 L 182.898438 354.332031 L 184.078125 356.789063 L 185.613281 357.902344 L 188.359375 357.621094 L 190.335938 355.148438 L 189.90625 355.050781 L 188.667969 355.527344 L 188.3125 355.957031 L 186.378906 356.386719 L 183.8125 354.640625 L 179.976563 346.332031 L 180.113281 346.085938 L 181.082031 345.003906 L 182.3125 342.789063 L 182.601563 341.632813 L 183.371094 340.257813 L 185.429688 339.015625 L 185.140625 338.578125 L 183.382813 338.496094 L 183.691406 337.257813 L 183.625 333.074219 L 182.511719 330.171875 L 184.695313 329.191406 L 187.28125 323.421875 L 187.71875 320.933594 L 187.855469 317.484375 L 184.742188 320.527344 L 179.199219 323.441406 L 177.335938 322.691406 L 175.53125 319.5625 L 175.722656 319.023438 L 178.761719 319.433594 L 181.804688 319.035156 L 184.636719 317.851563 L 187.0625 315.96875 L 188.769531 318.140625 L 190.9375 319.847656 L 189.765625 322.828125 L 189.457031 326.148438 L 190.105469 329.417969 L 191.652344 332.371094 L 193.476563 334.355469 L 197.75 337.621094 L 200.617188 338.71875 L 203.804688 339.023438 L 207.433594 338.277344 L 210.648438 336.425781 L 212.523438 334.496094 L 214.199219 331.476563 L 216.628906 328.695313 L 217.644531 326.636719 L 218.238281 324.414063 L 218.386719 322.121094 L 218.078125 319.847656 L 219.492188 317.886719 L 220.433594 315.796875 L 220.960938 313.433594 L 221 311.140625 L 223.230469 313.328125 L 225.34375 314.722656 L 227.464844 315.5625 L 229.707031 315.96875 L 232.792969 317.203125 L 235.074219 317.519531 L 237.246094 317.398438 L 239.359375 316.875 L 241.339844 315.96875 L 242.910156 317.441406 L 244.839844 318.65625 L 246.847656 319.4375 L 249.09375 319.847656 L 247.03125 323.074219 L 246.128906 326.800781 L 246.488281 330.613281 L 248.066406 334.105469 L 249.8125 336.152344 L 251.867188 337.679688 L 254.207031 338.71875 L 256.847656 339.230469 L 255.378906 340.90625 L 253.664063 338.65625 L 252.601563 338.082031 L 245.550781 339.511719 L 244.589844 338.644531 L 243.40625 338.558594 L 241.210938 339.871094 L 241.886719 340.445313 L 246.324219 340.394531 L 249.617188 339.34375 L 251.976563 339.082031 L 254.359375 342.523438 L 253.652344 343.898438 L 253.039063 346.355469 L 252.84375 349.863281 L 253.308594 352.859375 L 254.273438 355.339844 L 258.554688 360.785156 L 260.722656 362.492188 L 262.792969 365.011719 L 266.257813 367.90625 L 264.953125 369.09375 L 261.394531 373.164063 L 260.601563 374.816406 L 262.84375 374.3125 L 264.9375 375.519531 L 266.9375 378.226563 L 270.21875 378.804688 L 270.625 378.746094 L 271.910156 376.796875 L 272.234375 374.960938 L 273.40625 371.914063 L 274.707031 370.632813 L 276.082031 370.390625 L 283.496094 370.335938 L 284.253906 370.867188 L 286.703125 370.742188 L 293.949219 371.515625 L 296.914063 372.84375 Z M 221.953125 362.492188 L 223.734375 363.96875 L 225.769531 365.066406 L 227.980469 365.734375 L 230.28125 365.957031 L 232.582031 365.71875 L 234.789063 365.027344 L 236.921875 363.84375 L 238.671875 362.332031 L 240.089844 360.507813 L 241.117188 358.4375 L 241.714844 356.203125 L 241.863281 354.023438 L 241.574219 351.730469 L 240.785156 349.285156 L 239.65625 347.265625 L 238.148438 345.507813 L 236.328125 344.085938 L 234.378906 343.097656 L 232.152344 342.46875 L 229.847656 342.292969 L 227.550781 342.574219 L 225.234375 343.347656 L 223.226563 344.480469 L 221.476563 345.984375 L 220.128906 347.699219 L 219.078125 349.753906 L 218.449219 351.972656 L 218.277344 354.273438 L 218.558594 356.5625 L 219.289063 358.753906 L 220.433594 360.757813 Z M 232.859375 471.5625 L 231.871094 472.320313 L 230.464844 474.011719 L 229.960938 474.269531 L 229.152344 474.433594 L 227.519531 473.003906 L 224.921875 471.6875 L 222.890625 471.269531 L 222.296875 470.886719 L 221.546875 470.992188 L 220.695313 470.820313 L 220.515625 470.816406 L 221.476563 469.683594 L 227.316406 466.367188 L 232.550781 467.761719 L 234.171875 469.894531 Z M 206.445313 284.953125 L 208.976563 284.824219 L 211.535156 284.101563 L 213.867188 282.816406 L 215.757813 281.128906 L 217.296875 284.058594 L 219.601563 286.433594 L 222.601563 288.113281 L 224.613281 288.558594 L 224.773438 289.234375 L 223.683594 289.652344 L 221.738281 290.878906 L 220.074219 292.464844 L 218.753906 294.347656 L 216.703125 290.988281 L 212.527344 287.28125 L 209.652344 285.683594 Z M 174.8125 291.738281 L 175.429688 288.832031 L 178.648438 289.476563 L 176.621094 290.421875 Z M 142.515625 357.011719 L 146 359.144531 L 150.136719 359.941406 L 152.882813 359.613281 L 150.984375 360.816406 L 148.898438 362.667969 L 147.546875 362.390625 L 144.925781 362.476563 L 144.242188 361.667969 L 143.8125 359.632813 Z M 163.746094 357.296875 L 155.898438 359.695313 L 153.640625 361.097656 L 151.480469 363.195313 L 149.53125 362.796875 L 151.550781 360.582031 L 153.09375 359.609375 L 154.941406 359.808594 L 160.492188 357.457031 L 163.644531 357.28125 Z M 148.292969 242.308594 L 150 244.476563 L 152.167969 246.183594 L 148.488281 246.566406 L 145.113281 248.082031 L 142.386719 250.585938 L 140.539063 253.9375 L 140.917969 250.257813 L 142.4375 246.882813 L 145.039063 244.074219 L 146.660156 243.195313 L 148.300781 243.253906 L 147.289063 242.851563 Z M 140.539063 319.847656 L 141.019531 319.6875 L 140.683594 321.125 Z M 88.945313 499.121094 L 88.542969 499.441406 L 88.566406 499.308594 L 88.941406 499.117188 Z M 286.679688 439.636719 L 283.058594 438.976563 L 282.164063 437.605469 L 282.484375 436.070313 L 286.839844 437.054688 L 287.960938 438.832031 Z M 236.835938 466.113281 L 235.136719 465.644531 L 236.523438 463.683594 L 237.195313 464.164063 L 237.5 465.839844 Z M 236.835938 466.113281 "/>
</g>
</svg>
