<?xml version="1.0" encoding="UTF-8"?>
<svg xmlns="http://www.w3.org/2000/svg" xmlns:xlink="http://www.w3.org/1999/xlink" width="378pt" height="504pt" viewBox="0 0 378 504" version="1.1">
<g id="data">
<rect x="0" y="0" width="378" height="504" style="fill:rgb(100%,100%,100%);fill-opacity:1;stroke:none;"/>
<path style=" stroke:none;fill-rule:nonzero;fill:rgb(100%,100%,100%);fill-opacity:1;" d="M 53.308594 504 L 324.691406 504 L 324.691406 0 L 53.308594 0 Z M 53.308594 504 "/>
<path style=" stroke:none;fill-rule:nonzero;fill:rgb(22.745098%,53.333333%,16.078431%);fill-opacity:1;" d="M 300.75 375.652344 L 301.5625 376.640625 L 303.371094 378 L 303.742188 380.121094 L 304.558594 382.25 L 305.773438 384.183594 L 306.804688 385.28125 L 307.121094 390.296875 L 307.082031 391.632813 L 307.085938 391.699219 L 306.777344 393.191406 L 306.890625 393.976563 L 305.789063 396.917969 L 305.164063 399.929688 L 304.394531 401.230469 L 303.371094 405.136719 L 301.820313 406.8125 L 300.625 408.753906 L 299.867188 410.769531 L 299.671875 411.875 L 297.144531 414.53125 L 295.578125 412.011719 L 292.742188 410.515625 L 292.480469 410.636719 L 293.898438 413.703125 L 295.890625 416.628906 L 296.3125 416.765625 L 296.164063 417.742188 L 294.574219 419.804688 L 292.191406 421.289063 L 290.003906 421.65625 L 289.660156 421.574219 L 288.214844 419.332031 L 284.976563 421.730469 L 280.71875 424.230469 L 282.339844 425.378906 L 285.105469 424.398438 L 286.097656 423.375 L 286.894531 423.164063 L 287.328125 423.710938 L 287.632813 428.84375 L 285.6875 430.875 L 283.441406 432.558594 L 282.84375 432.699219 L 279.644531 432.160156 L 274.75 433.78125 L 272.609375 436.117188 L 274.253906 436.015625 L 275.152344 434.667969 L 276.683594 434.363281 L 278.285156 434.328125 L 281.054688 434.949219 L 281.828125 435.589844 L 281.691406 436.328125 L 279.554688 436.347656 L 277.390625 437.65625 L 277.96875 438.546875 L 281.382813 438.964844 L 286.863281 440.339844 L 289.394531 439.9375 L 291.074219 438.957031 L 299.742188 437.757813 L 300.988281 440.148438 L 300.875 443.359375 L 300.050781 445.054688 L 299.367188 448.78125 L 299.378906 449.058594 L 296.972656 450.242188 L 295.839844 450.375 L 292.621094 451.640625 L 291.179688 452.742188 L 289.847656 454.226563 L 289.460938 455.09375 L 289.214844 456.324219 L 289.292969 456.816406 L 288.648438 457.988281 L 286.253906 458.289063 L 284.1875 457.9375 L 281.042969 460.90625 L 278.484375 461.933594 L 274.789063 462.777344 L 272.597656 463.816406 L 270.539063 466.589844 L 269.761719 466.949219 L 259.480469 463.839844 L 259.332031 463.773438 L 255.597656 463.148438 L 252.214844 463.378906 L 248.378906 464.65625 L 247.84375 465.085938 L 244.628906 465.699219 L 242.703125 466.390625 L 242.113281 466.964844 L 242.085938 467.109375 L 240.582031 467.257813 L 240.140625 467.398438 L 238.210938 466.1875 L 238.632813 465.4375 L 239.46875 464.933594 L 237.714844 463.296875 L 231.496094 463.171875 L 231.378906 463.496094 L 232.574219 464.835938 L 232.214844 465.75 L 231.738281 466.042969 L 226.691406 465.496094 L 219.566406 468.449219 L 217.054688 467.824219 L 210.222656 468.96875 L 208.164063 468.875 L 207.273438 468.058594 L 206.238281 469.769531 L 209.429688 471.089844 L 209.714844 470.9375 L 210.1875 472.128906 L 209.566406 473.890625 L 206.84375 474.453125 L 204.453125 473.097656 L 203.015625 472.699219 L 197.625 472.007813 L 196.175781 472.65625 L 195.679688 473.863281 L 195.832031 474.871094 L 196.757813 475.523438 L 196.488281 476.304688 L 195.917969 475.996094 L 194.851563 473.972656 L 190.289063 470.589844 L 185.898438 468.519531 L 183.121094 467.984375 L 181.648438 469.066406 L 176.207031 469.78125 L 174.339844 470.335938 L 168.992188 473.234375 L 168.214844 474.070313 L 167.203125 476.179688 L 162.746094 489.226563 L 160.929688 490.242188 L 158.269531 489.722656 L 157.554688 489.058594 L 156.527344 486.851563 L 154.683594 485.4375 L 153.613281 485.542969 L 152.417969 486.300781 L 151.738281 486.164063 L 148.46875 482.535156 L 142.796875 482.960938 L 142.433594 483.078125 L 141.421875 482.78125 L 137.785156 482.542969 L 134.785156 482.988281 L 132.410156 483.867188 L 130.582031 485.003906 L 127.007813 488 L 125.199219 490.226563 L 124.039063 490.597656 L 123.667969 492.109375 L 122.640625 493.375 L 121.632813 495.699219 L 121.300781 497.433594 L 120.660156 497.648438 L 120.394531 498.183594 L 118.253906 498.183594 L 117.96875 497.691406 L 118.09375 496.4375 L 117.15625 494.691406 L 115.984375 493.691406 L 112.253906 492.070313 L 111.410156 491.984375 L 110.375 492.488281 L 110.242188 494.183594 L 110.03125 494.425781 L 108.148438 494.160156 L 105.644531 494.308594 L 107.816406 492.601563 L 109.523438 490.429688 L 113.429688 489.40625 L 116.753906 487.105469 L 117.375 486.457031 L 118.144531 485.910156 L 121.425781 483.085938 L 124.375 479.769531 L 125.210938 477.886719 L 125.164063 477.675781 L 125.742188 477.433594 L 127.632813 476.15625 L 129.550781 474.308594 L 130.515625 472.894531 L 132.105469 472.640625 L 132.679688 471.785156 L 133.257813 469.527344 L 135.859375 467.5625 L 138.636719 464.640625 L 139.089844 459.035156 L 140.207031 458.863281 L 143.519531 457.179688 L 144.921875 455.757813 L 145.761719 455.429688 L 148.429688 452.488281 L 148.171875 448.574219 L 148.292969 447.785156 L 148.425781 447.421875 L 151.105469 446.613281 L 157.421875 446.269531 L 159.910156 445.683594 L 164.597656 446.761719 L 166.046875 446.148438 L 167.527344 446.515625 L 169.484375 447.285156 L 170.039063 448.109375 L 170.757813 448.421875 L 173.15625 448.464844 L 180.570313 447.503906 L 181.109375 445.632813 L 181.210938 443.15625 L 182.519531 440.25 L 190.867188 432.195313 L 195.792969 425.3125 L 197.929688 424.472656 L 198.285156 423.78125 L 198.070313 423.238281 L 197.8125 423.082031 L 196.09375 424.355469 L 192.90625 427.300781 L 190.570313 429.988281 L 189.222656 431.449219 L 185.628906 432.957031 L 183.714844 433.246094 L 182.441406 433.0625 L 178.394531 435.230469 L 177.398438 436.808594 L 177.039063 438.671875 L 176.445313 439.273438 L 174.058594 439.917969 L 170.558594 439.851563 L 166.820313 439 L 166.347656 438.652344 L 161.371094 433.375 L 159.03125 429.199219 L 155.65625 429.589844 L 149.269531 432.308594 L 149.113281 432.746094 L 147.203125 431.632813 L 146.917969 429.308594 L 148.539063 428.378906 L 150.066406 428.890625 L 151.640625 428.421875 L 152.765625 427.832031 L 153.085938 427.097656 L 152.808594 426.597656 L 147.785156 426.460938 L 143.210938 423.710938 L 139.503906 423.714844 L 136.765625 424.277344 L 136.292969 426.515625 L 135.777344 427.203125 L 133.742188 427.917969 L 132.394531 427.265625 L 131.648438 427.453125 L 130.5625 428.398438 L 127.15625 428.398438 L 126.53125 428.132813 L 127.296875 426.378906 L 127.683594 426.035156 L 128.796875 425.832031 L 131.792969 424.328125 L 131.226563 422.867188 L 130.640625 424.257813 L 128.628906 424.507813 L 129.601563 422.84375 L 130.386719 419.222656 L 129.992188 415.539063 L 131.753906 417.902344 L 134.046875 419.75 L 136.734375 420.957031 L 139.636719 421.453125 L 142.070313 421.300781 L 144.414063 420.644531 L 147.460938 420.957031 L 150.355469 420.496094 L 153.480469 419.058594 L 156.046875 416.769531 L 157.882813 419.992188 L 160.53125 422.402344 L 163.910156 423.925781 L 167.46875 424.316406 L 169.628906 424.011719 L 171.808594 423.257813 L 173.695313 422.164063 L 175.429688 420.644531 L 177.910156 421.226563 L 180.328125 421.265625 L 184.9375 420.367188 L 186.976563 419.675781 L 189.265625 418.320313 L 191.582031 416.15625 L 192.996094 414.367188 L 194.039063 412.339844 L 195.597656 405.644531 L 195.515625 403.074219 L 194.917969 400.707031 L 193.625 398.195313 L 191.863281 396.15625 L 189.675781 394.574219 L 187.0625 393.507813 L 187.726563 389.628906 L 187.0625 385.753906 L 189.507813 382.480469 L 190.65625 378.6875 L 190.605469 375.488281 L 189.6875 372.421875 L 188.523438 370.429688 L 187.085938 368.792969 L 185.253906 367.386719 L 183.183594 366.371094 L 181.570313 363.320313 L 179.03125 360.804688 L 175.847656 359.179688 L 173.726563 358.695313 L 171.554688 358.617188 L 169.3125 357.621094 L 171.671875 357.035156 L 173.75 356.039063 L 174.738281 355.285156 L 179.910156 359.441406 L 180.433594 358.429688 L 177.679688 353.460938 L 178.242188 352.835938 L 180.867188 352.449219 L 181.503906 352.695313 L 181.914063 353.875 L 182.898438 354.332031 L 184.078125 356.789063 L 185.613281 357.902344 L 188.359375 357.621094 L 190.335938 355.148438 L 189.90625 355.050781 L 188.667969 355.527344 L 188.3125 355.957031 L 186.378906 356.386719 L 183.8125 354.640625 L 179.976563 346.332031 L 180.097656 346.113281 L 181.007813 345.109375 L 182.3125 342.789063 L 182.601563 341.632813 L 183.371094 340.257813 L 185.429688 339.015625 L 185.140625 338.578125 L 183.382813 338.496094 L 183.691406 337.257813 L 183.714844 333.574219 L 182.644531 330.109375 L 184.695313 329.191406 L 187.28125 323.421875 L 187.71875 320.933594 L 187.855469 317.484375 L 184.742188 320.527344 L 179.199219 323.441406 L 177.335938 322.691406 L 175.699219 319.859375 L 178.3125 319.96875 L 182.035156 319.289063 L 184.765625 317.960938 L 187.0625 315.96875 L 188.769531 318.140625 L 190.9375 319.847656 L 188.535156 321.972656 L 186.859375 324.554688 L 185.898438 327.617188 L 185.792969 330.695313 L 186.289063 333.085938 L 187.277344 335.320313 L 188.878906 337.488281 L 190.9375 339.230469 L 191.761719 341.246094 L 192.949219 343.074219 L 195.46875 345.433594 L 198.691406 346.984375 L 196.132813 349.984375 L 194.746094 353.542969 L 194.527344 356.722656 L 195.339844 362.789063 L 196.441406 365.238281 L 198.078125 367.371094 L 200.15625 369.070313 L 202.570313 370.246094 L 203.65625 372.425781 L 205.082031 374.238281 L 206.945313 375.808594 L 208.976563 376.902344 L 212.964844 377.792969 L 217.015625 377.25 L 219.683594 376 L 221.953125 374.125 L 224.320313 373.679688 L 226.65625 372.695313 L 229.707031 370.246094 L 232.074219 369.800781 L 234.296875 368.882813 L 236.285156 367.523438 L 240.234375 363.894531 L 241.785156 361.386719 L 242.636719 358.695313 L 242.785156 355.492188 L 242.097656 352.492188 L 240.078125 347.914063 L 237.476563 344.914063 L 234.851563 343.296875 L 231.898438 342.425781 L 228.820313 342.363281 L 225.832031 343.109375 L 224.0625 339.855469 L 221.257813 337.253906 L 217.882813 335.734375 L 214.199219 335.355469 L 214.199219 331.476563 L 216.347656 329.121094 L 217.773438 326.273438 L 218.375 323.144531 L 218.078125 319.847656 L 219.492188 317.886719 L 220.433594 315.796875 L 220.960938 313.433594 L 221 311.140625 L 223.132813 313.246094 L 225.007813 314.542969 L 226.980469 315.410156 L 230.511719 316.390625 L 228.441406 317.914063 L 226.757813 319.851563 L 225.542969 322.109375 L 224.847656 324.582031 L 224.707031 327.015625 L 225.113281 329.550781 L 226.289063 332.539063 L 227.585938 334.597656 L 229.382813 336.425781 L 231.539063 337.8125 L 233.941406 338.699219 L 236.355469 339.03125 L 238.910156 338.828125 L 241.242188 338.121094 L 243.480469 336.875 L 245.367188 335.210938 L 246.988281 337.441406 L 248.675781 338.878906 L 245.550781 339.511719 L 244.589844 338.644531 L 243.40625 338.558594 L 241.210938 339.871094 L 241.886719 340.445313 L 246.324219 340.394531 L 249.140625 339.496094 L 249.464844 341.351563 L 250.28125 343.480469 L 251.417969 345.3125 L 252.96875 346.984375 L 252.816406 349.363281 L 253.140625 352.117188 L 253.746094 354.1875 L 254.71875 356.109375 L 258.464844 360.695313 L 260.722656 362.492188 L 262.519531 364.75 L 266.074219 367.765625 L 266.285156 367.882813 L 264.953125 369.09375 L 261.394531 373.164063 L 260.601563 374.816406 L 262.84375 374.3125 L 264.9375 375.519531 L 266.9375 378.226563 L 270.21875 378.804688 L 270.625 378.746094 L 271.910156 376.796875 L 272.234375 374.960938 L 273.40625 371.914063 L 274.707031 370.632813 L 276.300781 370.355469 L 283.460938 370.3125 L 284.253906 370.867188 L 286.703125 370.742188 L 293.949219 371.515625 L 296.914063 372.84375 Z M 232.859375 471.5625 L 231.871094 472.320313 L 230.464844 474.011719 L 229.960938 474.269531 L 229.152344 474.433594 L 227.519531 473.003906 L 224.921875 471.6875 L 222.890625 471.269531 L 222.296875 470.886719 L 221.546875 470.992188 L 220.695313 470.820313 L 220.515625 470.816406 L 221.476563 469.683594 L 227.316406 466.367188 L 232.550781 467.761719 L 234.171875 469.894531 Z M 245.96875 319.148438 L 249.09375 319.847656 L 247.421875 321.191406 Z M 163.652344 357.285156 L 161.960938 357.6875 L 159.921875 358.617188 L 158.824219 358.164063 L 160.492188 357.457031 L 163.644531 357.28125 Z M 142.515625 357.011719 L 144.683594 358.53125 L 147.140625 359.523438 L 144.6875 362.195313 L 144.242188 361.667969 L 143.8125 359.632813 Z M 140.539063 319.847656 L 141.019531 319.6875 L 140.683594 321.125 Z M 286.679688 439.636719 L 283.058594 438.976563 L 282.164063 437.605469 L 282.484375 436.070313 L 286.839844 437.054688 L 287.960938 438.832031 Z M 236.835938 466.113281 L 235.136719 465.644531 L 236.523438 463.683594 L 237.195313 464.164063 L 237.5 465.839844 Z M 236.835938 466.113281 "/>
<path style=" stroke:none;fill-rule:nonzero;fill:rgb(80.392157%,58.431373%,4.705882%);fill-opacity:1;" d="M 223.890625 304.339844 L 223.609375 306.136719 L 222.78125 307.757813 L 221.496094 309.042969 L 219.875 309.871094 L 218.078125 310.152344 L 216.28125 309.871094 L 214.660156 309.042969 L 213.371094 307.757813 L 212.546875 306.136719 L 212.261719 304.339844 L 212.546875 302.542969 L 213.371094 300.921875 L 214.660156 299.632813 L 216.28125 298.808594 L 218.078125 298.523438 L 219.875 298.808594 L 221.496094 299.632813 L 222.78125 300.921875 L 223.609375 302.542969 Z M 223.890625 304.339844 "/>
<path style=" stroke:none;fill-rule:nonzero;fill:rgb(80.392157%,58.431373%,4.705882%);fill-opacity:1;" d="M 212.261719 284.953125 L 211.976563 286.75 L 211.152344 288.371094 L 209.863281 289.660156 L 208.242188 290.484375 L 206.445313 290.769531 L 204.648438 290.484375 L 203.027344 289.660156 L 201.742188 288.371094 L 200.914063 286.75 L 200.628906 284.953125 L 200.914063 283.15625 L 201.742188 281.535156 L 203.027344 280.25 L 204.648438 279.421875 L 206.445313 279.136719 L 208.242188 279.421875 L 209.863281 280.25 L 211.152344 281.535156 L 211.976563 283.15625 Z M 212.261719 284.953125 "/>
<path style=" stroke:none;fill-rule:nonzero;fill:rgb(80.392157%,58.431373%,4.705882%);fill-opacity:1;" d="M 154.109375 242.308594 L 153.824219 244.105469 L 152.996094 245.726563 L 151.710938 247.011719 L 150.089844 247.839844 L 148.292969 248.125 L 146.496094 247.839844 L 144.875 247.011719 L 143.585938 245.726563 L 142.761719 244.105469 L 142.480469 242.339844 L 146.15625 243.175781 L 148.300781 243.253906 L 142.679688 241.019531 L 143.585938 238.890625 L 144.875 237.601563 L 146.496094 236.777344 L 148.292969 236.492188 L 150.089844 236.777344 L 151.710938 237.601563 L 152.996094 238.890625 L 153.824219 240.511719 Z M 154.109375 242.308594 "/>
<path style=" stroke:none;fill-rule:nonzero;fill:rgb(80.392157%,58.431373%,4.705882%);fill-opacity:1;" d="M 189 288.832031 L 188.714844 290.628906 L 187.890625 292.25 L 186.601563 293.535156 L 184.980469 294.363281 L 183.183594 294.644531 L 181.386719 294.363281 L 179.765625 293.535156 L 178.480469 292.25 L 177.652344 290.628906 L 177.371094 288.832031 L 177.652344 287.035156 L 178.128906 286.097656 L 178.757813 285.980469 L 180.191406 286.804688 L 182.933594 286.238281 L 183.03125 285.160156 L 182.34375 284.746094 L 180.035156 285.351563 L 178.636719 285.257813 L 179.765625 284.125 L 181.386719 283.300781 L 183.183594 283.015625 L 184.980469 283.300781 L 186.601563 284.125 L 187.890625 285.414063 L 188.714844 287.035156 Z M 189 288.832031 "/>
<path style=" stroke:none;fill-rule:nonzero;fill:rgb(80.392157%,58.431373%,4.705882%);fill-opacity:1;" d="M 210.738281 253.894531 L 209.863281 254.765625 L 208.242188 255.59375 L 206.445313 255.875 L 204.648438 255.59375 L 203.027344 254.765625 L 201.742188 253.480469 L 200.914063 251.859375 L 200.628906 250.0625 L 200.914063 248.265625 L 201.742188 246.644531 L 203.582031 245.074219 L 206.488281 246.65625 L 208.910156 251.429688 Z M 210.738281 253.894531 "/>
<path style=" stroke:none;fill-rule:nonzero;fill:rgb(80.392157%,58.431373%,4.705882%);fill-opacity:1;" d="M 177.371094 296.585938 L 177.085938 298.382813 L 176.257813 300.003906 L 174.972656 301.289063 L 173.351563 302.117188 L 171.554688 302.398438 L 169.757813 302.117188 L 168.417969 301.433594 L 169.164063 299.058594 L 172.992188 290.996094 L 174.972656 291.878906 L 176.257813 293.167969 L 177.085938 294.789063 Z M 177.371094 296.585938 "/>
<path style=" stroke:none;fill-rule:nonzero;fill:rgb(80.392157%,58.431373%,4.705882%);fill-opacity:1;" d="M 146.355469 253.9375 L 146.070313 255.734375 L 145.242188 257.355469 L 143.484375 258.882813 L 142.601563 256.71875 L 139.777344 254.832031 L 137.378906 252.511719 L 137.84375 248.867188 L 138.742188 248.40625 L 140.539063 248.125 L 142.335938 248.40625 L 143.957031 249.234375 L 145.242188 250.519531 L 146.070313 252.140625 Z M 146.355469 253.9375 "/>
<path style=" stroke:none;fill-rule:nonzero;fill:rgb(80.392157%,58.431373%,4.705882%);fill-opacity:1;" d="M 173.683594 239.636719 L 173.492188 238.429688 L 173.777344 236.632813 L 174.601563 235.011719 L 175.890625 233.726563 L 177.511719 232.898438 L 179.308594 232.617188 L 181.105469 232.898438 L 183.0625 234.0625 L 181.046875 235.800781 L 180.578125 237.003906 L 174.761719 240.109375 Z M 182.742188 243.121094 L 181.105469 243.960938 L 179.308594 244.246094 L 177.511719 243.960938 L 175.890625 243.136719 L 174.289063 241.230469 Z M 182.742188 243.121094 "/>
<path style=" stroke:none;fill-rule:nonzero;fill:rgb(80.392157%,58.431373%,4.705882%);fill-opacity:1;" d="M 147.992188 317.859375 L 146.496094 317.625 L 144.875 316.796875 L 143.585938 315.511719 L 142.824219 314.011719 L 144.765625 310.230469 L 145.863281 309.40625 L 149.046875 308.269531 L 150.203125 313.453125 Z M 147.992188 317.859375 "/>
<path style=" stroke:none;fill-rule:nonzero;fill:rgb(80.392157%,58.431373%,4.705882%);fill-opacity:1;" d="M 226.222656 294.585938 L 224.035156 294.363281 L 222.414063 293.535156 L 221.125 292.25 L 220.300781 290.628906 L 220.015625 288.832031 L 220.300781 287.035156 L 221.125 285.414063 L 222.90625 283.875 L 223.773438 285.027344 Z M 226.222656 294.585938 "/>
<path style=" stroke:none;fill-rule:nonzero;fill:rgb(80.392157%,58.431373%,4.705882%);fill-opacity:1;" d="M 157.984375 393.507813 L 157.699219 395.304688 L 156.875 396.925781 L 155.585938 398.210938 L 153.964844 399.039063 L 151.375 399.199219 L 153.054688 396.195313 L 154.199219 391.746094 L 153.734375 388.820313 L 153.246094 387.863281 L 155.585938 388.804688 L 156.875 390.089844 L 157.699219 391.710938 Z M 157.984375 393.507813 "/>
<path style=" stroke:none;fill-rule:nonzero;fill:rgb(80.392157%,58.431373%,4.705882%);fill-opacity:1;" d="M 88.429688 500.046875 L 88.566406 499.308594 L 88.941406 499.117188 L 89.34375 499.789063 Z M 88.429688 500.046875 "/>
<path style=" stroke:none;fill-rule:nonzero;fill:rgb(80.392157%,58.431373%,4.705882%);fill-opacity:1;" d="M 88.429688 500.046875 L 88.566406 499.308594 L 88.941406 499.117188 L 89.34375 499.789063 Z M 88.429688 500.046875 "/>
</g>
</svg>
