<?xml version="1.0" encoding="UTF-8"?>
<svg xmlns="http://www.w3.org/2000/svg" xmlns:xlink="http://www.w3.org/1999/xlink" width="378pt" height="504pt" viewBox="0 0 378 504" version="1.1">
<g id="data">
<rect x="0" y="0" width="378" height="504" style="fill:rgb(100%,100%,100%);fill-opacity:1;stroke:none;"/>
<path style=" stroke:none;fill-rule:nonzero;fill:rgb(100%,100%,100%);fill-opacity:1;" d="M 53.308594 504 L 324.691406 504 L 324.691406 0 L 53.308594 0 Z M 53.308594 504 "/>
<path style=" stroke:none;fill-rule:nonzero;fill:rgb(22.745098%,53.333333%,16.078431%);fill-opacity:1;" d="M 296.722656 372.757813 L 296.753906 372.820313 L 298.476563 375.046875 L 300.792969 376.863281 L 303.371094 378 L 303.742188 380.121094 L 304.558594 382.25 L 305.773438 384.183594 L 306.804688 385.28125 L 307.089844 389.804688 L 304.957031 392.195313 L 303.515625 395.320313 L 303.054688 398.34375 L 303.371094 401.261719 L 301.894531 402.832031 L 300.679688 404.765625 L 299.867188 406.894531 L 299.492188 409.015625 L 297.789063 410.890625 L 296.488281 413.210938 L 296.441406 413.398438 L 295.578125 412.011719 L 292.742188 410.515625 L 292.480469 410.636719 L 293.898438 413.703125 L 295.714844 416.367188 L 295.617188 416.769531 L 292.070313 417.109375 L 288.683594 418.578125 L 286.488281 414.164063 L 283.484375 411.207031 L 281.574219 410.160156 L 279.5 409.488281 L 277.335938 409.21875 L 275.160156 409.351563 L 272.929688 409.933594 L 270.964844 410.878906 L 267.109375 414.234375 L 264.988281 417.855469 L 264.285156 421.863281 L 264.875 426.296875 L 265.964844 429.167969 L 268.035156 431.925781 L 270.828125 433.957031 L 273.703125 434.925781 L 272.609375 436.117188 L 274.253906 436.015625 L 274.855469 435.113281 L 277.667969 435.175781 L 279.609375 434.625 L 281.054688 434.949219 L 281.828125 435.589844 L 281.691406 436.328125 L 279.554688 436.347656 L 277.390625 437.65625 L 277.96875 438.546875 L 281.382813 438.964844 L 286.863281 440.339844 L 289.394531 439.9375 L 290.773438 439.128906 L 293.570313 439.964844 L 299.492188 440.03125 L 299.492188 447.785156 L 297.320313 449.492188 L 296.707031 450.273438 L 295.839844 450.375 L 294.628906 450.851563 L 292.78125 449.335938 L 289.367188 448.007813 L 286.363281 447.628906 L 283.984375 447.785156 L 281.8125 447 L 279.53125 446.664063 L 277.355469 446.761719 L 275.113281 447.308594 L 272.695313 448.488281 L 270.703125 450.101563 L 269.113281 452.109375 L 267.957031 454.542969 L 267.347656 458.710938 L 267.695313 461.121094 L 268.476563 463.292969 L 268.476563 466.5625 L 259.269531 463.777344 L 258.8125 463.738281 L 257.976563 463.441406 L 250.96875 463.128906 L 247.710938 463.488281 L 244.171875 464.84375 L 241.339844 467.167969 L 240.160156 467.410156 L 238.210938 466.1875 L 238.632813 465.4375 L 239.46875 464.933594 L 237.714844 463.296875 L 231.496094 463.171875 L 231.378906 463.496094 L 232.574219 464.835938 L 232.214844 465.75 L 231.738281 466.042969 L 226.691406 465.496094 L 219.566406 468.449219 L 217.054688 467.824219 L 210.222656 468.96875 L 208.164063 468.875 L 207.273438 468.058594 L 206.238281 469.769531 L 209.429688 471.089844 L 209.714844 470.9375 L 209.941406 471.507813 L 208.335938 472.65625 L 206.839844 474.449219 L 204.453125 473.097656 L 203.015625 472.699219 L 197.625 472.007813 L 196.175781 472.65625 L 195.679688 473.863281 L 195.78125 474.523438 L 195.257813 474.742188 L 194.851563 473.972656 L 194.242188 473.523438 L 193.992188 472.90625 L 192.804688 471.082031 L 191.203125 469.421875 L 189.414063 468.179688 L 183.703125 465.914063 L 181.273438 465.675781 L 178.847656 465.949219 L 176.535156 466.722656 L 174.332031 468.035156 L 170.082031 472.617188 L 170.058594 472.65625 L 168.992188 473.234375 L 168.214844 474.070313 L 167.203125 476.179688 L 165.980469 479.757813 L 164.125 480.808594 L 161.421875 484.03125 L 160.210938 487.121094 L 159.957031 490.050781 L 159.347656 489.933594 L 157.628906 488.441406 L 157.160156 488.210938 L 156.527344 486.851563 L 154.683594 485.4375 L 153.613281 485.542969 L 152.417969 486.300781 L 151.738281 486.164063 L 148.625 482.710938 L 149.039063 482.777344 L 154.722656 482.394531 L 156.796875 481.714844 L 158.816406 480.589844 L 160.921875 478.707031 L 162.507813 476.371094 L 163.488281 473.722656 L 163.800781 471.046875 L 166.195313 470.609375 L 168.332031 469.742188 L 170.253906 468.472656 L 171.972656 466.746094 L 173.894531 463.289063 L 174.542969 459.257813 L 173.714844 455.128906 L 171.554688 451.660156 L 171.554688 448.4375 L 173.15625 448.464844 L 180.570313 447.503906 L 181.109375 445.632813 L 181.210938 443.15625 L 182.519531 440.25 L 190.867188 432.195313 L 195.792969 425.3125 L 197.929688 424.472656 L 198.285156 423.78125 L 198.070313 423.238281 L 197.8125 423.082031 L 196.09375 424.355469 L 192.90625 427.300781 L 190.570313 429.988281 L 189.222656 431.449219 L 185.628906 432.957031 L 183.714844 433.246094 L 182.441406 433.0625 L 178.394531 435.230469 L 177.398438 436.808594 L 177.039063 438.671875 L 176.445313 439.273438 L 175.675781 439.480469 L 175.746094 438.941406 L 175.429688 432.277344 L 178.292969 433.007813 L 181.242188 432.996094 L 184.097656 432.238281 L 186.667969 430.789063 L 188.460938 429.132813 L 189.808594 427.25 L 190.9375 424.523438 L 192.898438 421.527344 L 193.800781 418.460938 L 193.910156 416.03125 L 193.542969 413.753906 L 192.675781 411.480469 L 191.355469 409.4375 L 189.640625 407.710938 L 187.714844 406.441406 L 185.453125 405.539063 L 183.183594 405.136719 L 185.378906 401.535156 L 186.144531 397.382813 L 185.378906 393.234375 L 183.183594 389.628906 L 186.070313 390.257813 L 188.894531 390.160156 L 191.609375 389.386719 L 194.058594 387.976563 L 196.097656 386.019531 L 197.65625 383.511719 L 198.511719 380.820313 L 198.691406 378 L 202.5 378.261719 L 206.191406 377.273438 L 208.785156 375.65625 L 213.296875 371.394531 L 211.671875 374.859375 L 211.265625 378.792969 L 212.152344 382.519531 L 214.199219 385.753906 L 212.679688 387.492188 L 211.535156 389.492188 L 210.804688 391.683594 L 210.523438 393.972656 L 210.988281 397.523438 L 212.515625 400.761719 L 214.957031 403.382813 L 218.078125 405.136719 L 219.488281 408.148438 L 221.59375 410.554688 L 223.816406 412.066406 L 227.019531 413.378906 L 230.285156 414.015625 L 233.71875 413.667969 L 236.792969 412.390625 L 239.464844 410.203125 L 241.207031 407.671875 L 242.230469 404.773438 L 242.382813 400.941406 L 241.339844 397.382813 L 243.535156 394.769531 L 244.90625 391.507813 L 245.875 386.136719 L 245.742188 383.976563 L 245.214844 381.875 L 246.417969 378.769531 L 246.695313 375.574219 L 246.207031 372.792969 L 245.132813 370.324219 L 243.515625 368.164063 L 241.339844 366.371094 L 243.347656 363.71875 L 244.527344 360.609375 L 244.777344 357.292969 L 244.078125 354.042969 L 242.785156 351.539063 L 240.832031 349.335938 L 238.503906 347.75 L 235.863281 346.773438 L 237.949219 345.890625 L 239.726563 344.699219 L 243.507813 341.402344 L 244.28125 340.417969 L 245.730469 340.402344 L 246.351563 341.804688 L 248.074219 344.035156 L 250.394531 345.847656 L 252.96875 346.984375 L 253.496094 351.15625 L 255.46875 354.871094 L 257.78125 357.078125 L 260.722656 358.617188 L 261.15625 362.5 L 258.804688 362.542969 L 256.550781 363.015625 L 254.546875 363.867188 L 252.636719 365.152344 L 250.003906 368.269531 L 247.828125 373.457031 L 247.585938 377.148438 L 248.460938 380.617188 L 250.769531 384.898438 L 253.902344 387.714844 L 257.328125 389.128906 L 261.15625 389.375 L 264.738281 388.421875 L 267.933594 386.296875 L 270.535156 383.355469 L 272.011719 380 L 272.515625 375.875 L 272.359375 374.628906 L 273.40625 371.914063 L 274.703125 370.636719 L 274.75 370.625 L 276.578125 370.304688 L 280.109375 370.910156 L 283.488281 370.332031 L 284.253906 370.867188 L 286.703125 370.742188 L 293.949219 371.515625 Z M 232.914063 471.492188 L 231.6875 472.492188 L 230.4375 474.027344 L 229.960938 474.269531 L 229.15625 474.433594 L 227.625 473.074219 L 225.277344 471.820313 L 222.878906 471.261719 L 222.296875 470.886719 L 221.75 470.964844 L 220.734375 470.558594 L 221.476563 469.683594 L 227.316406 466.367188 L 232.550781 467.761719 L 234.171875 469.894531 Z M 144.539063 482.828125 L 141.304688 480.667969 L 138.609375 479.855469 L 135.796875 479.714844 L 133.523438 480.105469 L 131.257813 481 L 129.230469 482.339844 L 127.523438 484.078125 L 125.800781 487.066406 L 125.066406 490.269531 L 124.039063 490.597656 L 123.734375 491.847656 L 123.40625 492.207031 L 122.125 494.390625 L 121.351563 497.414063 L 120.660156 497.648438 L 120.394531 498.183594 L 118.253906 498.183594 L 117.96875 497.691406 L 118.09375 496.4375 L 117.15625 494.691406 L 115.984375 493.691406 L 112.253906 492.070313 L 111.410156 491.984375 L 110.375 492.488281 L 110.242188 494.183594 L 110.207031 494.222656 L 108.433594 493.992188 L 105.644531 494.308594 L 107.886719 493.363281 L 109.785156 492.054688 L 111.992188 489.566406 L 112.375 488.742188 L 112.445313 488.9375 L 113.574219 489.15625 L 118.144531 485.910156 L 121.425781 483.085938 L 124.375 479.769531 L 125.210938 477.886719 L 124.875 476.421875 L 125.640625 474.519531 L 128.386719 473.238281 L 132.105469 472.640625 L 132.679688 471.785156 L 133.257813 469.527344 L 135.859375 467.5625 L 138.636719 464.640625 L 138.777344 462.902344 L 140.796875 462.53125 L 138.476563 466.523438 L 137.597656 469.988281 L 137.871094 473.8125 L 139.371094 477.335938 L 141.164063 479.507813 L 143.425781 481.1875 L 146.023438 482.273438 L 147.855469 482.582031 Z M 221.953125 284.953125 L 223.714844 284.953125 L 223.773438 285.027344 L 225.945313 294.183594 L 228.339844 297.660156 L 227.539063 298.292969 L 225.832031 300.460938 L 226.144531 297.671875 L 225.785156 294.890625 L 224.3125 291.503906 L 221.953125 288.832031 Z M 225.832031 315.96875 L 227.019531 317.199219 L 224.433594 318.148438 L 221.953125 319.847656 L 219.957031 320.59375 L 218.027344 321.769531 L 218.078125 319.847656 L 219.976563 318.402344 L 221.953125 315.96875 L 224.363281 313.921875 Z M 212.644531 335.367188 L 211.675781 333.308594 L 210.324219 331.476563 L 213.449219 329.804688 L 213.476563 332.5625 L 214.199219 335.355469 Z M 194.816406 242.308594 L 198.6875 242.308594 L 196.53125 243.136719 L 194.679688 244.292969 L 193.078125 245.78125 L 191.714844 247.648438 L 190.667969 249.996094 L 190.152344 252.640625 L 190.242188 255.210938 L 190.9375 257.816406 L 188.355469 259.957031 L 189.832031 256.15625 L 189.929688 252.203125 L 188.632813 248.335938 L 186.175781 245.234375 L 188.578125 245.171875 L 190.796875 244.652344 L 192.976563 243.652344 Z M 183.070313 354.6875 L 180.832031 353.707031 L 181.449219 353.328125 L 181.832031 353.640625 L 181.914063 353.875 L 182.394531 354.097656 L 183.035156 354.617188 Z M 175.429688 288.832031 L 176.960938 290.820313 L 179.386719 292.921875 L 175.554688 293.804688 L 172.328125 295.832031 L 174.445313 292.652344 Z M 165.117188 357.457031 L 163.800781 358.617188 L 162.234375 357.359375 L 163.644531 357.28125 Z M 156.667969 175.757813 L 156.046875 176.398438 L 153.867188 173.785156 L 156.582031 174.902344 L 156.367188 175.339844 Z M 148.128906 453.601563 L 148.292969 455.539063 L 147.53125 455.796875 Z M 147.875 308.6875 L 146.394531 310.371094 L 145.042969 313.042969 L 144.992188 310.65625 L 144.871094 310.152344 L 145.863281 309.40625 Z M 286.679688 439.636719 L 283.058594 438.976563 L 282.164063 437.605469 L 282.484375 436.070313 L 286.839844 437.054688 L 287.960938 438.832031 Z M 236.835938 466.113281 L 235.136719 465.644531 L 236.523438 463.683594 L 237.195313 464.164063 L 237.5 465.839844 Z M 236.835938 466.113281 "/>
</g>
</svg>
