<?xml version="1.0" encoding="UTF-8"?>
<svg xmlns="http://www.w3.org/2000/svg" xmlns:xlink="http://www.w3.org/1999/xlink" width="378pt" height="504pt" viewBox="0 0 378 504" version="1.1">
<g id="data">
<rect x="0" y="0" width="378" height="504" style="fill:rgb(100%,100%,100%);fill-opacity:1;stroke:none;"/>
<path style=" stroke:none;fill-rule:nonzero;fill:rgb(100%,100%,100%);fill-opacity:1;" d="M 53.308594 504 L 324.691406 504 L 324.691406 0 L 53.308594 0 Z M 53.308594 504 "/>
<path style=" stroke:none;fill-rule:nonzero;fill:rgb(22.745098%,53.333333%,16.078431%);fill-opacity:1;" d="M 229.066406 299.820313 L 231.234375 300.355469 L 232.167969 300.398438 L 233.484375 301.011719 L 232.914063 304.117188 L 233.433594 307.800781 L 235.085938 311.128906 L 237.707031 313.765625 L 241.269531 315.519531 L 245.214844 315.96875 L 247.675781 318.1875 L 250.660156 319.625 L 253.800781 320.15625 L 254.429688 320.09375 L 256.121094 320.875 L 256.847656 321.4375 L 256.847656 321.921875 L 254.738281 323.09375 L 253.890625 324.554688 L 253.765625 325.996094 L 254.984375 329.992188 L 255.488281 331.046875 L 255.675781 332.519531 L 256.847656 335.355469 L 256.53125 337.886719 L 256.777344 340.425781 L 257.539063 342.753906 L 257.507813 342.753906 L 256.035156 341.773438 L 253.664063 338.65625 L 252.601563 338.082031 L 245.550781 339.511719 L 244.589844 338.644531 L 243.40625 338.558594 L 241.210938 339.871094 L 241.886719 340.445313 L 246.324219 340.394531 L 249.617188 339.34375 L 251.976563 339.082031 L 254.382813 342.558594 L 260.535156 347.621094 L 261.644531 348.253906 L 262.339844 349.066406 L 264.601563 350.863281 L 263.320313 354.347656 L 263.183594 357.933594 L 264.152344 361.386719 L 266.125 364.382813 L 268.203125 366.136719 L 264.953125 369.09375 L 261.394531 373.164063 L 260.601563 374.816406 L 262.84375 374.3125 L 264.9375 375.519531 L 266.9375 378.226563 L 270.21875 378.804688 L 270.625 378.746094 L 271.910156 376.796875 L 272.234375 374.960938 L 273.40625 371.914063 L 274.34375 370.988281 L 276.023438 371.519531 L 280.117188 371.59375 L 283.570313 370.390625 L 284.253906 370.867188 L 286.703125 370.742188 L 293.949219 371.515625 L 296.914063 372.84375 L 300.75 375.652344 L 301.5625 376.640625 L 303.371094 378 L 303.742188 380.121094 L 304.558594 382.25 L 305.773438 384.183594 L 306.804688 385.28125 L 307.179688 391.25 L 306.777344 393.191406 L 306.886719 393.949219 L 304.921875 396.339844 L 303.886719 398.652344 L 303.371094 401.261719 L 301.371094 403.40625 L 300.015625 405.863281 L 299.210938 409.335938 L 299.429688 412.128906 L 298.035156 413.59375 L 296.902344 414.140625 L 295.578125 412.011719 L 292.742188 410.515625 L 292.480469 410.636719 L 293.898438 413.703125 L 295.140625 415.527344 L 293.59375 417.007813 L 291.738281 420.644531 L 291.195313 421.457031 L 290.003906 421.65625 L 289.660156 421.574219 L 288.214844 419.332031 L 284.976563 421.730469 L 280.71875 424.230469 L 282.339844 425.378906 L 285.105469 424.398438 L 286.097656 423.375 L 286.894531 423.164063 L 287.328125 423.710938 L 287.632813 428.84375 L 285.6875 430.875 L 283.441406 432.558594 L 282.84375 432.699219 L 279.644531 432.160156 L 274.75 433.78125 L 272.609375 436.117188 L 274.253906 436.015625 L 275.152344 434.667969 L 276.683594 434.363281 L 278.285156 434.328125 L 281.054688 434.949219 L 281.828125 435.589844 L 281.691406 436.328125 L 279.554688 436.347656 L 277.390625 437.65625 L 277.96875 438.546875 L 281.382813 438.964844 L 286.863281 440.339844 L 289.394531 439.9375 L 291.074219 438.957031 L 294.574219 438.472656 L 294.960938 438.726563 L 297.097656 439.59375 L 299.492188 440.03125 L 299.492188 447.785156 L 295.617188 447.785156 L 292.40625 446.523438 L 288.96875 446.257813 L 285.84375 446.921875 L 281.191406 449.054688 L 278.242188 451.695313 L 277.054688 453.523438 L 276.230469 455.539063 L 274.035156 458.152344 L 272.910156 460.5625 L 272.355469 463.292969 L 270.183594 465 L 268.863281 466.679688 L 259.269531 463.777344 L 258.792969 463.738281 L 257.976563 463.441406 L 255.222656 463.132813 L 246.589844 463.144531 L 242.03125 463.550781 L 239.210938 464.691406 L 237.714844 463.296875 L 231.496094 463.171875 L 231.378906 463.496094 L 232.574219 464.835938 L 232.214844 465.75 L 231.738281 466.042969 L 226.691406 465.496094 L 219.714844 468.386719 L 218.167969 468.101563 L 217.054688 467.824219 L 210.222656 468.96875 L 208.164063 468.875 L 207.273438 468.058594 L 206.238281 469.769531 L 209.328125 471.046875 L 194.816406 471.046875 L 194.609375 468.101563 L 193.726563 465.417969 L 192.21875 463.027344 L 190.183594 461.070313 L 187.734375 459.660156 L 185.015625 458.886719 L 182.066406 458.800781 L 179.308594 459.414063 L 181.71875 457.363281 L 183.542969 454.625 L 184.871094 456.515625 L 186.546875 458.109375 L 188.503906 459.335938 L 190.667969 460.152344 L 192.820313 460.519531 L 195.128906 460.460938 L 197.261719 459.984375 L 199.636719 459.015625 L 202.683594 456.902344 L 204.914063 453.9375 L 206.09375 450.421875 L 206.109375 446.714844 L 205.480469 444.363281 L 204.308594 442.085938 L 202.847656 440.296875 L 200.535156 438.304688 L 198.277344 437.132813 L 195.945313 436.5 L 193.53125 436.363281 L 191.019531 436.757813 L 191.585938 434.667969 L 191.753906 432.507813 L 191.511719 431.289063 L 195.792969 425.3125 L 197.929688 424.472656 L 198.285156 423.78125 L 198.070313 423.238281 L 197.8125 423.082031 L 196.09375 424.355469 L 192.90625 427.300781 L 191.128906 429.347656 L 190.9375 428.398438 L 191.101563 426.273438 L 190.824219 422.085938 L 189.847656 418.894531 L 187.921875 416.015625 L 185.234375 413.832031 L 182.148438 412.566406 L 178.703125 412.238281 L 175.429688 412.890625 L 177.75 410.863281 L 179.398438 408.414063 L 180.402344 405.503906 L 180.605469 402.429688 L 180.152344 399.898438 L 179.09375 397.417969 L 177.492188 395.25 L 175.429688 393.507813 L 173.957031 390.757813 L 178.882813 387.703125 L 181.558594 384.621094 L 182.867188 381.433594 L 183.183594 378 L 185.105469 375.8125 L 186.460938 373.09375 L 187.222656 368.371094 L 186.582031 363.882813 L 184.734375 360.289063 L 180.53125 355.699219 L 178.472656 354.417969 L 178.144531 354.300781 L 177.679688 353.460938 L 178.242188 352.835938 L 180.867188 352.449219 L 181.503906 352.695313 L 181.914063 353.875 L 182.898438 354.332031 L 184.078125 356.789063 L 185.613281 357.902344 L 188.359375 357.621094 L 189.871094 355.730469 L 190.480469 355.960938 L 193.675781 356.214844 L 197.773438 355.203125 L 200.886719 353.695313 L 203.09375 351.953125 L 204.617188 350.058594 L 205.710938 347.886719 L 206.328125 345.535156 L 206.445313 343.109375 L 208.53125 342.132813 L 210.386719 340.765625 L 211.933594 339.058594 L 213.113281 337.082031 L 214.019531 334.285156 L 214.199219 331.476563 L 216.488281 328.910156 L 217.929688 325.785156 L 218.386719 322.890625 L 218.078125 319.847656 L 220.246094 318.140625 L 221.953125 315.96875 L 224.039063 314.992188 L 225.988281 313.539063 L 228.511719 310.171875 L 229.328125 308.019531 L 229.710938 305.621094 L 229.652344 302.355469 Z M 233.265625 471.046875 L 225.832031 471.046875 L 222.570313 469.058594 L 227.316406 466.367188 L 232.550781 467.761719 L 234.171875 469.894531 Z M 209.757813 471.046875 L 209.511719 471.046875 L 209.714844 470.9375 Z M 181.808594 350.300781 L 182.574219 350.128906 L 184.886719 352.949219 L 187.363281 354.78125 L 189 355.398438 L 188.667969 355.527344 L 188.3125 355.957031 L 186.378906 356.386719 L 183.8125 354.640625 Z M 179.308594 222.921875 L 181.140625 222.578125 L 179.296875 224.039063 Z M 184.417969 221.144531 L 187.0625 219.046875 L 189.367188 217.9375 L 191.464844 216.261719 L 192.984375 214.363281 L 194.078125 212.195313 L 194.699219 209.84375 L 194.816406 207.414063 L 196.984375 205.707031 L 198.691406 203.539063 L 198.691406 207.414063 L 196.332031 210.089844 L 194.894531 213.351563 L 194.503906 216.128906 L 194.589844 216.960938 L 191.214844 219.742188 L 185.519531 221.085938 Z M 193.851563 228.101563 L 194.335938 229.394531 L 192.117188 231.570313 L 189.460938 232.730469 L 188.34375 232.882813 L 187.070313 232.078125 L 185.40625 232.042969 L 181.046875 235.800781 L 180.578125 237.003906 L 176.300781 239.289063 L 174.863281 238.71875 L 171.554688 238.429688 L 173.640625 237.457031 L 175.398438 236.171875 L 176.964844 234.484375 L 178.109375 232.636719 L 179.242188 228.847656 L 179.28125 225.363281 L 179.84375 225.195313 L 184.609375 222.886719 L 186.457031 221.386719 L 187.289063 221.316406 L 189.085938 221.875 L 189.332031 222.921875 L 188.898438 224.691406 L 189.238281 225.953125 L 190.898438 226.824219 L 192.988281 227.191406 Z M 198.886719 242.449219 L 199.492188 243.125 L 202.652344 245.210938 L 204.886719 245.785156 L 206.214844 246.507813 L 204.957031 248.273438 L 203.960938 250.640625 L 203.503906 253.296875 L 203.644531 255.859375 L 204.660156 259.03125 L 206.445313 261.691406 L 206.820313 263.8125 L 207.578125 265.832031 L 208.773438 267.773438 L 210.324219 269.445313 L 209.019531 273.039063 L 208.972656 276.988281 L 210.25 280.726563 L 212.703125 283.820313 L 208.941406 282.261719 L 204.746094 282.117188 L 201.453125 283.117188 L 195.957031 286.34375 L 193.765625 288.304688 L 192.078125 290.863281 L 191.144531 293.652344 L 190.9375 296.585938 L 188.769531 298.292969 L 187.0625 300.460938 L 183.59375 301.273438 L 180.53125 303.097656 L 178.382813 305.441406 L 176.988281 308.164063 L 174.992188 306.402344 L 172.765625 305.191406 L 170.332031 304.488281 L 167.675781 304.339844 L 169.667969 302.042969 L 170.996094 299.3125 L 171.679688 295.585938 L 171.605469 293.917969 L 172.347656 292.359375 L 174.128906 291.570313 L 176.355469 289.847656 L 178.105469 287.640625 L 178.828125 286.019531 L 180.191406 286.804688 L 181.015625 286.710938 L 182.933594 286.238281 L 182.992188 285.605469 L 183.058594 285.617188 L 187.0625 284.953125 L 190.191406 285.054688 L 193.453125 284.480469 L 196.246094 283.203125 L 198.429688 281.425781 L 200.125 279.175781 L 201.261719 276.460938 L 201.679688 273.675781 L 201.492188 271.25 L 200.804688 268.917969 L 198.691406 265.570313 L 198.25 263.203125 L 197.328125 260.980469 L 194.816406 257.816406 L 194.09375 253.785156 L 192.019531 250.253906 L 190.246094 248.574219 L 188.046875 247.25 L 185.738281 246.46875 L 183.183594 246.183594 L 181.222656 242.714844 L 182.921875 243.167969 L 186.398438 241.730469 L 187.519531 239.417969 L 188.617188 238.355469 L 189.539063 238.171875 L 193.183594 238.5 Z M 179.15625 285.292969 L 179.308594 284.953125 L 180.652344 285.191406 L 180.035156 285.351563 Z M 186.800781 330.714844 L 190.9375 331.476563 L 187.667969 332.210938 Z M 173.152344 168.644531 L 179.308594 168.644531 L 183.046875 169.308594 L 186.5625 168.808594 L 184.148438 169.992188 L 182.074219 171.695313 L 180.441406 173.828125 L 179.308594 176.398438 L 176.730469 177.539063 L 174.414063 179.351563 L 172.691406 181.578125 L 171.554688 184.152344 L 171.265625 180.84375 L 170.054688 177.753906 L 167.449219 174.613281 L 163.800781 172.523438 L 163.667969 171.976563 L 167.808594 170.273438 L 170.480469 169.527344 L 170.492188 169.949219 L 171.554688 169.839844 Z M 161.785156 166.472656 L 162.582031 167.023438 L 162.175781 167.183594 L 161.726563 166.894531 Z M 179.46875 321.785156 L 179.832031 323.109375 L 179.335938 323.367188 Z M 156.046875 381.875 L 156.746094 385.054688 L 158.222656 387.8125 L 156.046875 389.628906 L 155.765625 387.085938 L 154.988281 384.78125 L 153.972656 383.089844 L 154.652344 381.796875 L 154.421875 381.449219 Z M 139.203125 318.445313 L 140.015625 318 L 142.515625 315.273438 L 144.035156 311.898438 L 144.066406 311.589844 L 144.765625 310.230469 L 145.863281 309.40625 L 148.535156 308.453125 L 148.996094 308.90625 L 148.292969 312.09375 L 146.820313 313.664063 L 145.605469 315.59375 L 144.789063 317.722656 L 144.414063 319.847656 L 142.246094 321.554688 L 141.226563 322.847656 L 139.824219 322.464844 L 137.933594 323.433594 L 137.675781 322.921875 Z M 144.414063 361.875 L 144.414063 358.617188 L 146.121094 360.785156 L 148.292969 362.492188 L 147.324219 363.96875 L 146.109375 363.875 Z M 125.476563 474.921875 L 128.90625 474.921875 L 129.460938 477.683594 L 130.730469 480.339844 L 132.53125 482.503906 L 134.800781 484.175781 L 134.671875 484.324219 L 134.507813 484.320313 L 132.167969 484.859375 L 131.445313 485.734375 L 129.191406 484.363281 L 125.058594 483.59375 L 120.917969 484.34375 L 117.316406 486.519531 L 117.371094 486.460938 L 118.144531 485.910156 L 121.425781 483.085938 L 124.375 479.769531 L 125.210938 477.886719 L 124.875 476.421875 Z M 286.679688 439.636719 L 283.058594 438.976563 L 282.164063 437.605469 L 282.484375 436.070313 L 286.839844 437.054688 L 287.960938 438.832031 Z M 236.835938 466.113281 L 235.136719 465.644531 L 236.523438 463.683594 L 237.195313 464.164063 L 237.5 465.839844 Z M 236.835938 466.113281 "/>
<path style=" stroke:none;fill-rule:nonzero;fill:rgb(80.392157%,58.431373%,4.705882%);fill-opacity:1;" d="M 161.863281 242.308594 L 161.578125 244.105469 L 160.75 245.726563 L 159.464844 247.011719 L 157.84375 247.839844 L 156.046875 248.125 L 154.25 247.839844 L 152.628906 247.011719 L 151.339844 245.726563 L 150.515625 244.105469 L 150.230469 242.308594 L 150.515625 240.511719 L 151.339844 238.890625 L 152.628906 237.601563 L 154.25 236.777344 L 156.046875 236.492188 L 157.84375 236.777344 L 159.464844 237.601563 L 160.75 238.890625 L 161.578125 240.511719 Z M 161.863281 242.308594 "/>
<path style=" stroke:none;fill-rule:nonzero;fill:rgb(80.392157%,58.431373%,4.705882%);fill-opacity:1;" d="M 161.863281 451.660156 L 161.578125 453.457031 L 160.75 455.078125 L 159.464844 456.367188 L 157.84375 457.191406 L 156.046875 457.476563 L 154.25 457.191406 L 152.628906 456.367188 L 151.339844 455.078125 L 150.515625 453.457031 L 150.230469 451.660156 L 150.515625 449.863281 L 151.339844 448.242188 L 152.628906 446.957031 L 153.566406 446.476563 L 157.894531 446.15625 L 159.464844 446.957031 L 160.75 448.242188 L 161.578125 449.863281 Z M 161.863281 451.660156 "/>
<path style=" stroke:none;fill-rule:nonzero;fill:rgb(80.392157%,58.431373%,4.705882%);fill-opacity:1;" d="M 161.863281 482.675781 L 161.578125 484.472656 L 160.75 486.09375 L 159.464844 487.382813 L 157.203125 488.308594 L 156.527344 486.851563 L 154.683594 485.4375 L 153.613281 485.542969 L 152.417969 486.300781 L 151.738281 486.164063 L 150.515625 484.472656 L 150.230469 482.675781 L 150.515625 480.878906 L 151.339844 479.257813 L 152.628906 477.972656 L 154.25 477.144531 L 156.046875 476.863281 L 157.84375 477.144531 L 159.464844 477.972656 L 160.75 479.257813 L 161.578125 480.878906 Z M 161.863281 482.675781 "/>
<path style=" stroke:none;fill-rule:nonzero;fill:rgb(80.392157%,58.431373%,4.705882%);fill-opacity:1;" d="M 226.925781 295.605469 L 225.371094 297.414063 L 223.75 298.238281 L 221.953125 298.523438 L 220.15625 298.238281 L 218.535156 297.414063 L 217.25 296.125 L 216.421875 294.503906 L 216.136719 292.707031 L 216.421875 290.910156 L 217.25 289.289063 L 218.535156 288.003906 L 220.15625 287.175781 L 221.953125 286.890625 L 224.355469 287.484375 L 225.945313 294.183594 Z M 226.925781 295.605469 "/>
<path style=" stroke:none;fill-rule:nonzero;fill:rgb(80.392157%,58.431373%,4.705882%);fill-opacity:1;" d="M 150.230469 257.816406 L 149.945313 259.613281 L 149.121094 261.234375 L 147.832031 262.519531 L 146.210938 263.347656 L 143.753906 263.527344 L 144.390625 261.886719 L 144.195313 260.621094 L 142.601563 256.71875 L 139.585938 254.644531 L 140.996094 253.109375 L 142.617188 252.285156 L 144.414063 252 L 146.210938 252.285156 L 147.832031 253.109375 L 149.121094 254.398438 L 149.945313 256.019531 Z M 150.230469 257.816406 "/>
<path style=" stroke:none;fill-rule:nonzero;fill:rgb(80.392157%,58.431373%,4.705882%);fill-opacity:1;" d="M 134.722656 424.523438 L 134.4375 426.320313 L 133.648438 427.871094 L 132.394531 427.265625 L 131.648438 427.453125 L 129.4375 429.378906 L 126.53125 428.132813 L 127.425781 426.082031 L 128.796875 425.832031 L 131.792969 424.328125 L 131.226563 422.867188 L 130.640625 424.257813 L 127.769531 424.613281 L 123.148438 424.171875 L 123.761719 421.972656 L 125.167969 421.753906 L 125.464844 421.238281 L 125.269531 420.039063 L 125.488281 419.816406 L 127.109375 418.992188 L 128.90625 418.707031 L 130.703125 418.992188 L 132.324219 419.816406 L 133.613281 421.105469 L 134.4375 422.726563 Z M 134.722656 424.523438 "/>
<path style=" stroke:none;fill-rule:nonzero;fill:rgb(80.392157%,58.431373%,4.705882%);fill-opacity:1;" d="M 189 443.90625 L 188.714844 445.703125 L 187.890625 447.324219 L 186.601563 448.613281 L 184.980469 449.4375 L 183.183594 449.722656 L 181.386719 449.4375 L 179.765625 448.613281 L 178.878906 447.726563 L 180.570313 447.503906 L 181.109375 445.632813 L 181.210938 443.15625 L 182.519531 440.25 L 184.53125 438.304688 L 186.601563 439.203125 L 187.890625 440.488281 L 188.714844 442.109375 Z M 189 443.90625 "/>
<path style=" stroke:none;fill-rule:nonzero;fill:rgb(80.392157%,58.431373%,4.705882%);fill-opacity:1;" d="M 161.863281 428.398438 L 161.578125 430.195313 L 160.589844 431.980469 L 159.03125 429.199219 L 155.65625 429.589844 L 151.175781 431.496094 L 150.515625 430.195313 L 150.296875 428.820313 L 152.765625 427.832031 L 153.085938 427.097656 L 152.808594 426.597656 L 150.550781 426.535156 L 151.339844 424.980469 L 152.628906 423.695313 L 154.25 422.871094 L 156.046875 422.585938 L 157.84375 422.871094 L 159.464844 423.695313 L 160.75 424.980469 L 161.578125 426.601563 Z M 161.863281 428.398438 "/>
<path style=" stroke:none;fill-rule:nonzero;fill:rgb(80.392157%,58.431373%,4.705882%);fill-opacity:1;" d="M 154.109375 482.675781 L 153.824219 484.472656 L 153.117188 485.855469 L 152.417969 486.300781 L 151.738281 486.164063 L 148.46875 482.535156 L 142.535156 483.046875 L 142.476563 482.675781 L 142.761719 480.878906 L 143.585938 479.257813 L 144.875 477.972656 L 146.496094 477.144531 L 148.292969 476.863281 L 150.089844 477.144531 L 151.710938 477.972656 L 152.996094 479.257813 L 153.824219 480.878906 Z M 154.109375 482.675781 "/>
<path style=" stroke:none;fill-rule:nonzero;fill:rgb(80.392157%,58.431373%,4.705882%);fill-opacity:1;" d="M 134.722656 412.890625 L 134.4375 414.6875 L 133.613281 416.308594 L 132.324219 417.597656 L 130.703125 418.421875 L 128.90625 418.707031 L 127.109375 418.421875 L 125.488281 417.597656 L 124.203125 416.308594 L 123.355469 414.558594 L 125.933594 413.378906 L 126.539063 411.90625 L 133.074219 411.34375 L 134.015625 410.265625 Z M 134.722656 412.890625 "/>
<path style=" stroke:none;fill-rule:nonzero;fill:rgb(80.392157%,58.431373%,4.705882%);fill-opacity:1;" d="M 154.109375 451.660156 L 153.824219 453.457031 L 152.996094 455.078125 L 151.710938 456.367188 L 150.089844 457.191406 L 148.292969 457.476563 L 146.496094 457.191406 L 144.453125 455.945313 L 145.761719 455.429688 L 148.429688 452.488281 L 148.105469 447.519531 L 151.058594 446.625 L 151.710938 446.957031 L 152.996094 448.242188 L 153.824219 449.863281 Z M 154.109375 451.660156 "/>
<path style=" stroke:none;fill-rule:nonzero;fill:rgb(80.392157%,58.431373%,4.705882%);fill-opacity:1;" d="M 159.046875 489.875 L 158.269531 488.351563 L 157.984375 486.554688 L 158.269531 484.757813 L 159.09375 483.136719 L 160.382813 481.847656 L 162.003906 481.023438 L 163.800781 480.738281 L 165.550781 481.015625 L 162.746094 489.226563 L 160.929688 490.242188 Z M 159.046875 489.875 "/>
<path style=" stroke:none;fill-rule:nonzero;fill:rgb(80.392157%,58.431373%,4.705882%);fill-opacity:1;" d="M 138.648438 378.3125 L 138.882813 376.203125 L 139.710938 374.582031 L 140.996094 373.296875 L 142.617188 372.46875 L 144.414063 372.183594 L 146.210938 372.46875 L 148.144531 373.605469 L 145.449219 374.257813 L 143.757813 375.484375 L 142.039063 378.097656 Z M 138.648438 378.3125 "/>
<path style=" stroke:none;fill-rule:nonzero;fill:rgb(80.392157%,58.431373%,4.705882%);fill-opacity:1;" d="M 173.4375 355.097656 L 173.207031 356.535156 L 172.382813 358.15625 L 171.09375 359.441406 L 169.472656 360.269531 L 167.675781 360.554688 L 165.878906 360.269531 L 164.257813 359.441406 L 162.558594 357.34375 L 167.339844 357.714844 L 172.597656 355.179688 Z M 173.4375 355.097656 "/>
</g>
</svg>
