<?xml version="1.0" encoding="UTF-8"?>
<svg xmlns="http://www.w3.org/2000/svg" xmlns:xlink="http://www.w3.org/1999/xlink" width="378pt" height="504pt" viewBox="0 0 378 504" version="1.1">
<g id="data">
<rect x="0" y="0" width="378" height="504" style="fill:rgb(100%,100%,100%);fill-opacity:1;stroke:none;"/>
<path style=" stroke:none;fill-rule:nonzero;fill:rgb(100%,100%,100%);fill-opacity:1;" d="M 53.308594 504 L 324.691406 504 L 324.691406 0 L 53.308594 0 Z M 53.308594 504 "/>
<path style=" stroke:none;fill-rule:nonzero;fill:rgb(22.745098%,53.333333%,16.078431%);fill-opacity:1;" d="M 218.078125 354.738281 L 219.785156 356.910156 L 221.953125 358.617188 L 221.820313 361.371094 L 222.355469 364.761719 L 223.378906 367.25 L 225.035156 369.527344 L 227.1875 371.34375 L 229.589844 372.542969 L 232.335938 373.175781 L 235.148438 373.128906 L 237.269531 372.628906 L 239.257813 371.742188 L 241.339844 370.246094 L 244.074219 368.855469 L 246.265625 366.898438 L 247.53125 365.128906 L 248.488281 363.03125 L 249.011719 360.789063 L 249.09375 358.617188 L 250.566406 357.042969 L 251.78125 355.113281 L 252.5625 353.105469 L 252.96875 350.863281 L 255.324219 349.660156 L 256.847656 350.863281 L 257.253906 353.105469 L 258.035156 355.113281 L 259.25 357.042969 L 260.722656 358.617188 L 260.421875 365.792969 L 261.34375 369.757813 L 262.542969 371.851563 L 261.394531 373.164063 L 260.601563 374.816406 L 262.84375 374.3125 L 264.9375 375.519531 L 265.800781 376.6875 L 266.28125 377.71875 L 268.464844 380.070313 L 271.085938 381.6875 L 274.039063 382.558594 L 277.121094 382.621094 L 280.109375 381.875 L 281.539063 383.691406 L 283.40625 385.261719 L 285.441406 386.355469 L 287.78125 387.050781 L 291.238281 387.171875 L 293.5 386.683594 L 295.617188 385.753906 L 299.492188 385.753906 L 299.875 389.433594 L 301.390625 392.8125 L 303.894531 395.539063 L 305.894531 396.640625 L 305.789063 396.917969 L 305.496094 398.335938 L 303.996094 399.152344 L 301.460938 401.851563 L 299.875 405.332031 L 299.492188 409.015625 L 296.683594 409.195313 L 294.003906 410.046875 L 293.007813 410.65625 L 292.742188 410.515625 L 292.480469 410.636719 L 292.605469 410.902344 L 291.605469 411.515625 L 289.628906 413.515625 L 287.863281 416.769531 L 286.085938 418.75 L 284.855469 420.964844 L 284.605469 421.949219 L 280.71875 424.230469 L 282.339844 425.378906 L 283.863281 424.839844 L 283.566406 426.007813 L 283.3125 428.4375 L 283.984375 432.152344 L 283.441406 432.558594 L 282.84375 432.699219 L 279.644531 432.160156 L 274.75 433.78125 L 272.609375 436.117188 L 274.253906 436.015625 L 275.152344 434.667969 L 276.683594 434.363281 L 278.285156 434.328125 L 281.054688 434.949219 L 281.828125 435.589844 L 281.691406 436.328125 L 279.554688 436.347656 L 277.390625 437.65625 L 277.96875 438.546875 L 281.382813 438.964844 L 286.863281 440.339844 L 289.394531 439.9375 L 290.660156 439.195313 L 292.921875 439.875 L 295.617188 440.03125 L 297.320313 442.199219 L 299.492188 443.90625 L 299.492188 447.785156 L 295.8125 448.164063 L 292.433594 449.683594 L 289.707031 452.1875 L 287.863281 455.539063 L 284.867188 453.578125 L 281.546875 452.640625 L 278.097656 452.714844 L 274.820313 453.800781 L 272.382813 455.453125 L 270.367188 457.769531 L 269.070313 460.410156 L 268.476563 463.292969 L 254.84375 463.128906 L 252.214844 463.378906 L 248.378906 464.65625 L 247.839844 465.085938 L 244.628906 465.699219 L 242.703125 466.390625 L 242.15625 466.925781 L 241.660156 466.886719 L 239.945313 467.273438 L 238.210938 466.1875 L 238.632813 465.4375 L 239.46875 464.933594 L 237.714844 463.296875 L 231.496094 463.171875 L 231.378906 463.496094 L 232.574219 464.835938 L 232.214844 465.75 L 231.738281 466.042969 L 226.691406 465.496094 L 225.992188 465.789063 L 225.074219 464.945313 L 223.09375 463.75 L 220.917969 462.96875 L 218.757813 462.640625 L 216.320313 462.757813 L 213.960938 463.378906 L 211.785156 464.46875 L 209.886719 465.988281 L 208.34375 467.867188 L 207.933594 468.664063 L 207.273438 468.058594 L 206.238281 469.769531 L 207.191406 470.164063 L 206.5625 472.496094 L 206.480469 474.246094 L 204.453125 473.097656 L 203.015625 472.699219 L 197.625 472.007813 L 196.175781 472.65625 L 195.679688 473.863281 L 195.78125 474.523438 L 195.257813 474.742188 L 194.851563 473.972656 L 194.175781 473.472656 L 193.417969 471.753906 L 191.050781 469.054688 L 187.976563 467.207031 L 184.609375 466.394531 L 181.660156 466.511719 L 176.339844 467.808594 L 173.742188 469.125 L 171.554688 471.046875 L 169.734375 471.769531 L 170.589844 468.554688 L 170.5 465.230469 L 169.472656 462.0625 L 167.675781 459.414063 L 168.34375 455.539063 L 167.675781 451.660156 L 168.96875 448.328125 L 169.042969 447.109375 L 169.484375 447.285156 L 170.039063 448.109375 L 170.757813 448.421875 L 173.15625 448.464844 L 180.570313 447.503906 L 181.109375 445.632813 L 181.210938 443.15625 L 182.519531 440.25 L 190.867188 432.195313 L 195.792969 425.3125 L 197.929688 424.472656 L 198.285156 423.78125 L 198.070313 423.238281 L 197.8125 423.082031 L 196.09375 424.355469 L 192.90625 427.300781 L 190.570313 429.988281 L 189.222656 431.449219 L 185.628906 432.957031 L 183.714844 433.246094 L 182.441406 433.0625 L 178.394531 435.230469 L 177.398438 436.808594 L 177.039063 438.671875 L 176.445313 439.273438 L 174.058594 439.917969 L 170.558594 439.851563 L 167.238281 439.09375 L 166.703125 437.945313 L 164.800781 435.539063 L 162.222656 433.652344 L 161.339844 433.320313 L 159.03125 429.199219 L 155.65625 429.589844 L 154.292969 430.167969 L 153.882813 429.675781 L 152.128906 428.164063 L 152.765625 427.832031 L 152.871094 427.59375 L 154.292969 428.121094 L 159.082031 428.921875 L 161.765625 428.707031 L 164.449219 427.828125 L 166.839844 426.328125 L 168.722656 424.398438 L 170.109375 422.085938 L 170.953125 419.390625 L 171.117188 416.574219 L 170.640625 413.921875 L 172.917969 415.667969 L 175.429688 416.769531 L 176.953125 418.675781 L 178.835938 420.222656 L 180.765625 421.25 L 182.851563 421.894531 L 185.535156 422.136719 L 188.203125 421.753906 L 192.121094 420.15625 L 194.089844 418.957031 L 195.695313 417.488281 L 197 415.746094 L 197.957031 413.792969 L 198.535156 411.695313 L 198.710938 409.527344 L 198.492188 406.867188 L 197.898438 404.792969 L 196.863281 402.757813 L 200.84375 402.054688 L 204.355469 400.554688 L 206.3125 399.332031 L 208.984375 396.410156 L 211.144531 391.769531 L 211.753906 389.417969 L 211.867188 387.117188 L 211.425781 384.464844 L 210.324219 381.875 L 210.988281 378 L 210.324219 374.125 L 213.171875 371.675781 L 215.976563 368.265625 L 217.300781 365.816406 L 218.71875 359.378906 L 218.625 356.964844 Z M 233.050781 471.324219 L 231.414063 472.753906 L 230.398438 474.046875 L 229.960938 474.269531 L 229.683594 474.324219 L 229.609375 472.613281 L 229.058594 470.363281 L 228.074219 468.273438 L 226.859375 466.625 L 227.316406 466.367188 L 232.550781 467.761719 L 234.171875 469.894531 Z M 150.148438 426.523438 L 148.496094 425.46875 L 144.601563 424.289063 L 144.207031 424.3125 L 143.210938 423.710938 L 140.398438 423.714844 L 140.171875 422.375 L 139.410156 420.335938 L 138.203125 418.371094 L 136.730469 416.769531 L 138.203125 415.167969 L 139.351563 413.316406 L 140.171875 411.160156 L 140.539063 409.015625 L 142.433594 407.574219 L 141.089844 410.769531 L 140.757813 414.34375 L 141.480469 417.730469 L 143.171875 420.753906 L 145.367188 422.917969 L 148.292969 424.523438 L 149.863281 425.996094 L 150.71875 426.539063 Z M 245.214844 312.09375 L 246.351563 314.667969 L 248.074219 316.894531 L 250.285156 318.640625 L 252.96875 319.847656 L 254.675781 322.015625 L 255.503906 322.667969 L 254.738281 323.09375 L 253.890625 324.554688 L 253.765625 325.996094 L 254.96875 329.933594 L 254.011719 329.152344 L 250.597656 327.824219 L 247.46875 327.441406 L 241.339844 327.601563 L 238.605469 326.886719 L 235.652344 326.867188 L 232.316406 327.789063 L 229.398438 329.652344 L 227.160156 332.296875 L 225.832031 335.355469 L 224.257813 333.882813 L 222.441406 332.722656 L 220.320313 331.886719 L 218.078125 331.476563 L 216.503906 330.003906 L 214.6875 328.847656 L 212.566406 328.007813 L 210.324219 327.601563 L 207.046875 325.027344 L 204.933594 324.167969 L 202.570313 323.722656 L 200.589844 322.296875 L 198.234375 321.277344 L 195.714844 320.796875 L 193.277344 320.863281 L 189.953125 321.824219 L 187.183594 323.644531 L 187.28125 323.421875 L 187.71875 320.933594 L 187.765625 319.753906 L 190.007813 319.640625 L 192.101563 319.015625 L 194.148438 317.9375 L 196.960938 315.316406 L 198.765625 311.921875 L 199.363281 308.125 L 198.691406 304.339844 L 201.527344 305.507813 L 204.445313 305.898438 L 207.488281 305.507813 L 210.324219 304.339844 L 207.894531 307.121094 L 206.492188 310.398438 L 206.136719 313.691406 L 206.789063 317.96875 L 208.128906 321.109375 L 210.230469 323.636719 L 213.085938 325.574219 L 216.257813 326.566406 L 218.6875 326.699219 L 221.089844 326.328125 L 223.25 325.519531 L 225.308594 324.21875 L 227.050781 322.523438 L 228.402344 320.5 L 229.269531 318.363281 L 229.707031 315.96875 L 231.703125 316.855469 L 233.828125 317.355469 L 236.011719 317.449219 L 238.171875 317.132813 L 240.234375 316.417969 L 242.128906 315.328125 L 243.785156 313.90625 Z M 179.035156 323.375 L 177.601563 321.554688 L 175.914063 320.226563 L 175.429688 319.390625 L 175.429688 315.96875 L 177.105469 317.519531 L 179.160156 318.769531 L 181.308594 319.535156 L 183.929688 319.949219 L 185.410156 319.871094 L 184.742188 320.527344 L 179.199219 323.441406 Z M 202.570313 250.0625 L 206.445313 250.0625 L 204.09375 251.070313 L 202.015625 252.570313 L 199.964844 255.019531 L 198.691406 257.816406 L 196.699219 258.628906 L 194.789063 259.875 L 193.160156 261.46875 L 191.933594 263.242188 L 192.425781 259.453125 L 191.710938 255.832031 L 189.898438 252.617188 L 187.0625 250.0625 L 189.207031 249.691406 L 191.246094 248.929688 L 193.210938 247.726563 L 194.816406 246.253906 L 196.417969 247.726563 L 198.382813 248.929688 L 200.421875 249.691406 Z M 163.800781 478.800781 L 160.976563 478.671875 L 164.234375 477.609375 Z M 153.714844 393.636719 L 154.109375 393.671875 L 153.675781 393.78125 Z M 286.679688 439.636719 L 283.058594 438.976563 L 282.164063 437.605469 L 282.484375 436.070313 L 286.839844 437.054688 L 287.960938 438.832031 Z M 236.835938 466.113281 L 235.136719 465.644531 L 236.523438 463.683594 L 237.195313 464.164063 L 237.5 465.839844 Z M 236.835938 466.113281 "/>
<path style=" stroke:none;fill-rule:nonzero;fill:rgb(80.392157%,58.431373%,4.705882%);fill-opacity:1;" d="M 192.875 397.382813 L 192.59375 399.183594 L 191.765625 400.804688 L 190.480469 402.089844 L 188.859375 402.914063 L 187.0625 403.199219 L 185.265625 402.914063 L 183.644531 402.089844 L 182.355469 400.804688 L 181.53125 399.183594 L 181.246094 397.382813 L 181.53125 395.585938 L 182.355469 393.964844 L 183.644531 392.679688 L 185.265625 391.855469 L 187.0625 391.570313 L 188.859375 391.855469 L 190.480469 392.679688 L 191.765625 393.964844 L 192.59375 395.585938 Z M 192.875 397.382813 "/>
<path style=" stroke:none;fill-rule:nonzero;fill:rgb(80.392157%,58.431373%,4.705882%);fill-opacity:1;" d="M 212.261719 281.078125 L 211.976563 282.875 L 211.152344 284.496094 L 209.863281 285.78125 L 208.242188 286.609375 L 206.445313 286.890625 L 204.648438 286.609375 L 203.027344 285.78125 L 201.742188 284.496094 L 200.914063 282.875 L 200.628906 281.078125 L 200.914063 279.28125 L 201.742188 277.660156 L 203.027344 276.371094 L 204.648438 275.546875 L 206.445313 275.261719 L 208.242188 275.546875 L 209.863281 276.371094 L 211.152344 277.660156 L 211.976563 279.28125 Z M 212.261719 281.078125 "/>
<path style=" stroke:none;fill-rule:nonzero;fill:rgb(80.392157%,58.431373%,4.705882%);fill-opacity:1;" d="M 208.382813 281.078125 L 208.101563 282.875 L 207.273438 284.496094 L 205.988281 285.78125 L 204.367188 286.609375 L 202.570313 286.890625 L 200.773438 286.609375 L 199.152344 285.78125 L 197.863281 284.496094 L 197.039063 282.875 L 196.753906 281.078125 L 197.039063 279.28125 L 197.863281 277.660156 L 199.152344 276.371094 L 200.773438 275.546875 L 202.570313 275.261719 L 204.367188 275.546875 L 205.988281 276.371094 L 207.273438 277.660156 L 208.101563 279.28125 Z M 208.382813 281.078125 "/>
<path style=" stroke:none;fill-rule:nonzero;fill:rgb(80.392157%,58.431373%,4.705882%);fill-opacity:1;" d="M 192.875 354.738281 L 192.59375 356.535156 L 191.765625 358.15625 L 190.480469 359.441406 L 188.859375 360.269531 L 187.0625 360.554688 L 185.265625 360.269531 L 183.644531 359.441406 L 182.355469 358.15625 L 181.53125 356.535156 L 181.246094 354.738281 L 181.566406 352.871094 L 181.914063 353.875 L 182.898438 354.332031 L 184.078125 356.789063 L 185.613281 357.902344 L 188.359375 357.621094 L 190.335938 355.148438 L 189.90625 355.050781 L 188.667969 355.527344 L 188.3125 355.957031 L 186.378906 356.386719 L 183.8125 354.640625 L 182.316406 351.402344 L 183.644531 350.035156 L 185.265625 349.207031 L 187.0625 348.921875 L 188.859375 349.207031 L 190.480469 350.035156 L 191.765625 351.320313 L 192.59375 352.941406 Z M 192.875 354.738281 "/>
<path style=" stroke:none;fill-rule:nonzero;fill:rgb(80.392157%,58.431373%,4.705882%);fill-opacity:1;" d="M 157.984375 482.675781 L 157.699219 484.472656 L 156.292969 486.675781 L 154.683594 485.4375 L 153.613281 485.542969 L 152.417969 486.300781 L 151.738281 486.164063 L 148.46875 482.535156 L 146.355469 482.675781 L 146.636719 480.878906 L 147.464844 479.257813 L 148.75 477.972656 L 150.371094 477.144531 L 152.167969 476.863281 L 153.964844 477.144531 L 155.585938 477.972656 L 156.875 479.257813 L 157.699219 480.878906 Z M 157.984375 482.675781 "/>
<path style=" stroke:none;fill-rule:nonzero;fill:rgb(80.392157%,58.431373%,4.705882%);fill-opacity:1;" d="M 230.6875 299.707031 L 229.25 301.289063 L 227.628906 302.117188 L 225.832031 302.398438 L 224.035156 302.117188 L 222.414063 301.289063 L 221.125 300.003906 L 220.300781 298.382813 L 220.015625 296.585938 L 220.300781 294.789063 L 221.125 293.167969 L 222.414063 291.878906 L 224.035156 291.054688 L 225.160156 290.875 L 225.945313 294.183594 L 229.304688 299.0625 Z M 230.6875 299.707031 "/>
<path style=" stroke:none;fill-rule:nonzero;fill:rgb(80.392157%,58.431373%,4.705882%);fill-opacity:1;" d="M 154.109375 482.675781 L 153.824219 484.472656 L 153.117188 485.855469 L 152.417969 486.300781 L 151.738281 486.164063 L 148.46875 482.535156 L 142.535156 483.046875 L 142.476563 482.675781 L 142.761719 480.878906 L 143.585938 479.257813 L 144.875 477.972656 L 146.496094 477.144531 L 148.292969 476.863281 L 150.089844 477.144531 L 151.710938 477.972656 L 152.996094 479.257813 L 153.824219 480.878906 Z M 154.109375 482.675781 "/>
<path style=" stroke:none;fill-rule:nonzero;fill:rgb(80.392157%,58.431373%,4.705882%);fill-opacity:1;" d="M 151.550781 360.457031 L 150.371094 360.269531 L 148.75 359.441406 L 147.464844 358.15625 L 146.636719 356.535156 L 146.355469 354.738281 L 146.636719 352.941406 L 147.433594 351.378906 L 149.566406 352.007813 L 151.039063 355.578125 L 155.546875 356.503906 L 154.066406 358.859375 Z M 154.882813 359.800781 L 153.964844 360.269531 L 151.714844 360.480469 L 153.09375 359.609375 Z M 154.882813 359.800781 "/>
<path style=" stroke:none;fill-rule:nonzero;fill:rgb(80.392157%,58.431373%,4.705882%);fill-opacity:1;" d="M 119.214844 486.554688 L 118.929688 488.351563 L 118.105469 489.972656 L 116.816406 491.257813 L 115.195313 492.085938 L 113.398438 492.371094 L 111.40625 491.984375 L 109.980469 491.257813 L 108.460938 489.515625 L 111.738281 488.078125 L 112.199219 488.253906 L 112.445313 488.9375 L 113.574219 489.15625 L 118.996094 485.175781 Z M 119.214844 486.554688 "/>
<path style=" stroke:none;fill-rule:nonzero;fill:rgb(80.392157%,58.431373%,4.705882%);fill-opacity:1;" d="M 139.320313 318.101563 L 140.539063 317.90625 L 142.335938 318.191406 L 143.957031 319.019531 L 145.378906 320.574219 L 141.859375 323.019531 L 139.824219 322.464844 L 137.933594 323.433594 L 137.675781 322.921875 Z M 139.320313 318.101563 "/>
<path style=" stroke:none;fill-rule:nonzero;fill:rgb(80.392157%,58.431373%,4.705882%);fill-opacity:1;" d="M 189.417969 232.734375 L 189 230.675781 L 189.285156 228.878906 L 190.109375 227.257813 L 190.667969 226.703125 L 192.988281 227.191406 L 194.445313 228.726563 L 194.429688 229.304688 L 192.117188 231.570313 Z M 189.417969 232.734375 "/>
<path style=" stroke:none;fill-rule:nonzero;fill:rgb(80.392157%,58.431373%,4.705882%);fill-opacity:1;" d="M 126.96875 416.769531 L 126.683594 418.566406 L 125.375 420.671875 L 124.929688 417.953125 L 123.328125 417.210938 L 121.445313 417.105469 L 122.0625 415.152344 L 125.882813 413.402344 L 126.683594 414.972656 Z M 126.96875 416.769531 "/>
</g>
</svg>
