<?xml version="1.0" encoding="UTF-8"?>
<svg xmlns="http://www.w3.org/2000/svg" xmlns:xlink="http://www.w3.org/1999/xlink" width="378pt" height="504pt" viewBox="0 0 378 504" version="1.1">
<g id="data">
<rect x="0" y="0" width="378" height="504" style="fill:rgb(100%,100%,100%);fill-opacity:1;stroke:none;"/>
<path style=" stroke:none;fill-rule:nonzero;fill:rgb(100%,100%,100%);fill-opacity:1;" d="M 53.308594 504 L 324.691406 504 L 324.691406 0 L 53.308594 0 Z M 53.308594 504 "/>
<path style=" stroke:none;fill-rule:nonzero;fill:rgb(22.745098%,53.333333%,16.078431%);fill-opacity:1;" d="M 223.398438 301.125 L 223.289063 299.167969 L 223.835938 297.28125 L 224.976563 295.6875 L 226.328125 294.742188 L 229.304688 299.0625 L 238.929688 303.554688 L 238.804688 304.238281 L 239.0625 306.054688 L 239.875 307.699219 L 241.144531 308.976563 L 242.929688 309.855469 L 245.875 310.191406 L 247.285156 310.578125 L 249.289063 315.722656 L 252.390625 319.148438 L 256.121094 320.875 L 257.207031 321.722656 L 254.738281 323.09375 L 253.890625 324.554688 L 253.765625 325.996094 L 254.984375 329.992188 L 256.160156 332.453125 L 263.316406 342.46875 L 263.640625 343.980469 L 262.804688 345.191406 L 263.28125 343.65625 L 262.507813 342.839844 L 260.445313 342 L 258.378906 342.789063 L 257.507813 342.753906 L 256.035156 341.773438 L 253.664063 338.65625 L 252.601563 338.082031 L 245.550781 339.511719 L 244.589844 338.644531 L 243.40625 338.558594 L 241.210938 339.871094 L 241.886719 340.445313 L 246.324219 340.394531 L 249.617188 339.34375 L 251.976563 339.082031 L 254.382813 342.558594 L 260.535156 347.621094 L 263.042969 349.058594 L 263.664063 349.039063 L 266.046875 352.214844 L 268.980469 359.304688 L 269.535156 362.402344 L 269.210938 365.21875 L 264.953125 369.09375 L 261.394531 373.164063 L 260.601563 374.816406 L 262.84375 374.3125 L 264.9375 375.519531 L 266.9375 378.226563 L 270.21875 378.804688 L 270.625 378.746094 L 271.910156 376.796875 L 272.234375 374.960938 L 273.40625 371.914063 L 274.707031 370.632813 L 277.851563 370.085938 L 283.34375 370.234375 L 284.253906 370.867188 L 286.703125 370.742188 L 293.949219 371.515625 L 296.914063 372.84375 L 304.070313 378.085938 L 305.367188 380.105469 L 306.730469 384.164063 L 307.179688 391.25 L 306.777344 393.191406 L 306.890625 393.976563 L 305.789063 396.917969 L 303.519531 407.832031 L 297.144531 414.53125 L 295.578125 412.011719 L 292.742188 410.515625 L 292.480469 410.636719 L 293.898438 413.703125 L 295.890625 416.628906 L 296.3125 416.765625 L 296.164063 417.742188 L 294.574219 419.804688 L 292.191406 421.289063 L 290.003906 421.65625 L 289.660156 421.574219 L 288.214844 419.332031 L 284.976563 421.730469 L 280.71875 424.230469 L 282.339844 425.378906 L 285.105469 424.398438 L 286.097656 423.375 L 286.894531 423.164063 L 287.328125 423.710938 L 287.632813 428.84375 L 285.6875 430.875 L 283.441406 432.558594 L 282.84375 432.699219 L 279.644531 432.160156 L 274.75 433.78125 L 272.609375 436.117188 L 274.253906 436.015625 L 275.152344 434.667969 L 276.683594 434.363281 L 278.285156 434.328125 L 281.054688 434.949219 L 281.828125 435.589844 L 281.691406 436.328125 L 279.554688 436.347656 L 277.390625 437.65625 L 277.96875 438.546875 L 281.382813 438.964844 L 286.863281 440.339844 L 289.394531 439.9375 L 291.074219 438.957031 L 299.742188 437.757813 L 300.988281 440.148438 L 300.773438 446.324219 L 300.335938 447.820313 L 299.394531 449.050781 L 296.972656 450.242188 L 295.839844 450.375 L 292.621094 451.640625 L 291.570313 452.441406 L 291.089844 452.253906 L 289.355469 452.117188 L 287.683594 452.476563 L 284.414063 453.972656 L 282.695313 455.511719 L 282.230469 456.230469 L 281.613281 457.738281 L 280.683594 459.277344 L 278.984375 461.304688 L 278.738281 461.832031 L 278.484375 461.933594 L 274.789063 462.777344 L 272.597656 463.816406 L 270.539063 466.589844 L 269.761719 466.949219 L 259.269531 463.777344 L 256.070313 463.507813 L 244.628906 465.699219 L 242.703125 466.390625 L 242.113281 466.964844 L 241.902344 467.984375 L 241.359375 468.164063 L 238.210938 466.1875 L 238.632813 465.4375 L 239.46875 464.933594 L 237.714844 463.296875 L 231.496094 463.171875 L 231.378906 463.496094 L 232.574219 464.835938 L 232.214844 465.75 L 231.738281 466.042969 L 226.691406 465.496094 L 219.566406 468.449219 L 217.054688 467.824219 L 210.222656 468.96875 L 208.164063 468.875 L 207.273438 468.058594 L 206.238281 469.769531 L 209.429688 471.089844 L 209.714844 470.9375 L 210.1875 472.128906 L 209.566406 473.890625 L 206.84375 474.453125 L 204.453125 473.097656 L 203.015625 472.699219 L 197.625 472.007813 L 196.175781 472.65625 L 195.679688 473.863281 L 195.832031 474.871094 L 196.757813 475.523438 L 196.488281 476.304688 L 195.917969 475.996094 L 194.851563 473.972656 L 190.289063 470.589844 L 188.917969 469.941406 L 188.875 469.308594 L 188.453125 467.972656 L 187.726563 466.792969 L 186.652344 465.75 L 185.453125 465.058594 L 184.105469 464.671875 L 182.71875 464.625 L 180.542969 465.097656 L 178.628906 465.191406 L 176.785156 464.65625 L 175.21875 463.550781 L 174.09375 461.996094 L 173.539063 460.160156 L 173.613281 458.242188 L 174.304688 456.453125 L 175.539063 454.984375 L 177.332031 453.460938 L 178.703125 451.402344 L 179.980469 450.027344 L 181.625 449.132813 L 183.472656 448.808594 L 185.324219 449.089844 L 186.992188 449.941406 L 188.304688 451.28125 L 189.296875 452.699219 L 190.132813 453.492188 L 191.105469 454.101563 L 192.195313 454.515625 L 193.234375 454.691406 L 194.417969 454.660156 L 195.515625 454.417969 L 196.847656 453.871094 L 198.601563 452.65625 L 199.699219 451.195313 L 200.28125 449.460938 L 200.289063 447.480469 L 199.988281 446.378906 L 199.429688 445.304688 L 198.664063 444.371094 L 197.238281 443.140625 L 196.238281 442.617188 L 195.007813 442.273438 L 193.726563 442.207031 L 191.957031 442.496094 L 190.03125 442.488281 L 188.214844 441.851563 L 186.703125 440.65625 L 185.667969 439.03125 L 185.3125 437.550781 L 190.867188 432.195313 L 195.792969 425.3125 L 197.929688 424.472656 L 198.285156 423.78125 L 198.070313 423.238281 L 197.8125 423.082031 L 196.09375 424.355469 L 192.90625 427.300781 L 190.570313 429.988281 L 189.222656 431.449219 L 185.894531 432.847656 L 185.234375 429.535156 L 185.140625 427.960938 L 185.269531 426.246094 L 185.066406 423.15625 L 184.496094 421.328125 L 183.582031 419.972656 L 182.316406 418.9375 L 180.722656 418.273438 L 179 418.109375 L 176.574219 418.59375 L 174.675781 418.660156 L 172.863281 418.109375 L 171.320313 417.003906 L 170.214844 415.464844 L 169.664063 413.648438 L 169.726563 411.753906 L 170.398438 409.980469 L 171.601563 408.515625 L 173.335938 407 L 174.191406 405.714844 L 174.648438 404.355469 L 174.757813 402.753906 L 174.546875 401.574219 L 174.011719 400.328125 L 173.21875 399.25 L 171.675781 397.949219 L 170.304688 396.253906 L 168.832031 393.507813 L 168.246094 391.863281 L 168.175781 390.117188 L 168.628906 388.429688 L 169.5625 386.949219 L 170.890625 385.816406 L 175.070313 383.226563 L 176.539063 381.53125 L 177.15625 380.03125 L 177.394531 377.464844 L 177.84375 375.703125 L 178.8125 374.164063 L 180.238281 372.539063 L 180.863281 371.289063 L 181.34375 368.320313 L 180.960938 365.671875 L 179.917969 363.640625 L 176.777344 360.214844 L 175.925781 359.683594 L 174.113281 359.035156 L 172.582031 358.210938 L 171.359375 356.96875 L 170.867188 356.011719 L 172.597656 355.179688 L 173.933594 355.046875 L 174.484375 355.082031 L 179.910156 359.441406 L 180.433594 358.429688 L 177.679688 353.460938 L 178.242188 352.835938 L 180.867188 352.449219 L 181.503906 352.695313 L 181.914063 353.875 L 182.898438 354.332031 L 184.078125 356.789063 L 185.613281 357.902344 L 188.359375 357.621094 L 190.335938 355.148438 L 189.90625 355.050781 L 188.667969 355.527344 L 188.3125 355.957031 L 186.378906 356.386719 L 183.8125 354.640625 L 179.976563 346.332031 L 180.984375 344.523438 L 181.304688 344.453125 L 182.898438 344.320313 L 184.46875 344.628906 L 185.898438 345.355469 L 187.074219 346.441406 L 188.929688 348.707031 L 190.1875 349.636719 L 191.667969 350.207031 L 193.214844 350.335938 L 195.792969 349.703125 L 197.78125 348.738281 L 198.972656 347.800781 L 199.699219 346.894531 L 200.242188 345.816406 L 200.550781 344.644531 L 200.636719 342.828125 L 201.113281 340.789063 L 202.277344 339.050781 L 203.984375 337.839844 L 205.546875 337.109375 L 206.46875 336.429688 L 207.238281 335.582031 L 207.792969 334.652344 L 208.242188 333.28125 L 208.398438 331.070313 L 208.84375 329.214844 L 209.859375 327.605469 L 211.570313 325.6875 L 212.308594 324.085938 L 212.523438 322.726563 L 212.292969 320.433594 L 212.417969 318.5 L 213.179688 316.710938 L 214.480469 315.273438 L 216.105469 313.996094 L 217.382813 312.375 L 219.460938 310.714844 L 221.121094 309.929688 L 221.828125 309.394531 L 223.363281 307.34375 L 223.675781 306.515625 L 223.886719 305.210938 L 223.847656 303.066406 Z M 173.492188 222.859375 L 173.855469 220.90625 L 174.851563 219.183594 L 176.371094 217.902344 L 178.234375 217.207031 L 180.007813 216.875 L 180.917969 216.496094 L 183.445313 214.492188 L 184.511719 213.820313 L 186.332031 212.929688 L 187.320313 212.132813 L 188.066406 211.203125 L 188.613281 210.121094 L 188.917969 208.953125 L 189.007813 207.136719 L 189.320313 205.511719 L 190.078125 204.042969 L 191.21875 202.84375 L 192.84375 201.566406 L 194.121094 199.945313 L 195.433594 198.722656 L 197.054688 197.957031 L 198.832031 197.726563 L 200.59375 198.042969 L 202.175781 198.882813 L 203.429688 200.164063 L 204.011719 201.332031 L 203.230469 203.472656 L 200.949219 206.4375 L 199.179688 207.605469 L 197.078125 210.023438 L 197.433594 210.839844 L 197.785156 210.703125 L 197.761719 211.238281 L 196.796875 214.386719 L 195.867188 215.914063 L 191.214844 219.742188 L 185.519531 221.085938 L 182.847656 221.226563 L 177.804688 225.21875 L 178.117188 225.714844 L 179.84375 225.195313 L 184.609375 222.886719 L 186.457031 221.386719 L 187.289063 221.316406 L 189.085938 221.875 L 189.332031 222.921875 L 188.898438 224.691406 L 189.238281 225.953125 L 190.898438 226.824219 L 192.988281 227.191406 L 194.445313 228.726563 L 194.429688 229.304688 L 192.117188 231.570313 L 189.460938 232.730469 L 188.34375 232.882813 L 187.070313 232.078125 L 185.40625 232.042969 L 181.046875 235.800781 L 180.578125 237.003906 L 174.761719 240.109375 L 170.214844 238.117188 L 166.480469 238.003906 L 166.738281 239.222656 L 168.246094 240.195313 L 178.0625 241.875 L 182.921875 243.167969 L 186.398438 241.730469 L 187.519531 239.417969 L 188.617188 238.355469 L 189.539063 238.171875 L 193.183594 238.5 L 199.339844 242.761719 L 206.488281 246.65625 L 208.910156 251.429688 L 209.574219 252.324219 L 209.34375 253.636719 L 209.410156 254.792969 L 209.945313 256.472656 L 211.273438 258.449219 L 212.171875 260.683594 L 212.453125 262.273438 L 212.824219 263.261719 L 213.429688 264.242188 L 214.589844 265.492188 L 215.71875 267.277344 L 216.136719 269.34375 L 215.789063 271.425781 L 214.824219 274.09375 L 214.800781 276.054688 L 215.429688 277.898438 L 217.261719 280.207031 L 218.183594 281.875 L 218.519531 283.75 L 218.230469 285.632813 L 217.347656 287.320313 L 215.964844 288.632813 L 214.234375 289.429688 L 212.339844 289.625 L 210.480469 289.195313 L 207.691406 288.039063 L 205.511719 287.960938 L 203.804688 288.480469 L 199.402344 291.066406 L 198.195313 292.144531 L 197.394531 293.34375 L 196.890625 294.8125 L 196.738281 296.992188 L 196.40625 298.570313 L 195.648438 299.992188 L 194.535156 301.15625 L 192.910156 302.433594 L 191.632813 304.054688 L 190.1875 305.367188 L 188.386719 306.125 L 185.796875 306.730469 L 184.242188 307.65625 L 183.199219 308.792969 L 182.164063 310.8125 L 181.136719 312.238281 L 179.726563 313.292969 L 178.070313 313.875 L 176.316406 313.9375 L 174.621094 313.472656 L 173.140625 312.523438 L 172.1875 311.679688 L 167.40625 304.652344 L 169.164063 299.058594 L 174.074219 288.722656 L 176.464844 286.417969 L 178.757813 285.980469 L 180.191406 286.804688 L 181.015625 286.710938 L 182.933594 286.238281 L 183.03125 285.160156 L 182.34375 284.746094 L 180.035156 285.351563 L 174.65625 284.980469 L 173.144531 284.484375 L 174 282.574219 L 175.0625 280.980469 L 176.585938 279.816406 L 178.40625 279.207031 L 180.324219 279.226563 L 183.089844 279.71875 L 186.109375 279.21875 L 187.25 279.140625 L 189.777344 279.222656 L 191.710938 278.882813 L 193.136719 278.230469 L 194.265625 277.300781 L 195.082031 276.1875 L 195.617188 274.898438 L 195.832031 273.46875 L 195.742188 272.308594 L 195.453125 271.335938 L 193.773438 268.671875 L 192.976563 266.640625 L 192.644531 264.871094 L 192.265625 263.957031 L 190.261719 261.429688 L 189.515625 260.207031 L 189.089844 258.839844 L 188.554688 255.832031 L 187.421875 253.910156 L 186.707031 253.230469 L 185.585938 252.558594 L 184.46875 252.179688 L 182.542969 251.964844 L 180.78125 251.480469 L 179.257813 250.476563 L 178.121094 249.046875 L 176.625 246.394531 L 175.03125 245.042969 L 173.507813 244.4375 L 171.050781 244.222656 L 169.214844 243.753906 L 167.628906 242.722656 L 166.457031 241.230469 L 165.828125 239.445313 L 165.804688 237.550781 L 166.394531 235.75 L 167.527344 234.234375 L 169.089844 233.164063 L 170.667969 232.425781 L 171.53125 231.796875 L 172.257813 231.019531 L 172.765625 230.214844 L 173.4375 227.964844 Z M 167.285156 288.851563 L 167.738281 288.316406 L 168.515625 287.824219 L 168.226563 288.992188 Z M 174.832031 318.355469 L 175.039063 318.019531 L 176.398438 316.847656 L 178.054688 316.144531 L 179.84375 315.980469 L 181.597656 316.371094 L 183.148438 317.28125 L 184.347656 318.617188 L 185.0625 320.214844 L 184.742188 320.527344 L 179.199219 323.441406 L 177.335938 322.691406 Z M 186.585938 324.972656 L 187.851563 324.996094 L 191.988281 325.757813 L 193.65625 326.335938 L 195.070313 327.386719 L 196.109375 328.8125 L 196.667969 330.484375 L 196.703125 332.246094 L 196.207031 333.9375 L 195.226563 335.40625 L 193.851563 336.507813 L 192.210938 337.152344 L 188.941406 337.882813 L 187.113281 338 L 185.34375 337.539063 L 183.800781 336.550781 L 182.640625 335.132813 L 181.773438 333.636719 L 181.511719 332.945313 L 181.601563 331.078125 L 181.949219 330.421875 L 184.695313 329.191406 Z M 192.28125 167.875 L 192.316406 167.992188 L 192.289063 169.808594 L 191.699219 171.53125 L 190.609375 172.988281 L 189.117188 174.03125 L 187.316406 174.917969 L 186.285156 175.761719 L 185.484375 176.808594 L 184.628906 178.75 L 183.421875 180.511719 L 181.65625 181.71875 L 179.746094 182.5625 L 178.570313 183.484375 L 177.722656 184.574219 L 176.875 186.503906 L 175.824219 188.101563 L 174.316406 189.269531 L 172.511719 189.890625 L 170.601563 189.890625 L 168.792969 189.273438 L 167.285156 188.101563 L 166.234375 186.507813 L 165.761719 184.65625 L 165.546875 182.183594 L 164.980469 180.746094 L 163.648438 179.136719 L 160.910156 177.570313 L 159.660156 176.609375 L 158.714844 175.347656 L 158.65625 175.195313 L 161.140625 173.015625 L 167.808594 170.273438 L 170.480469 169.527344 L 170.492188 169.949219 L 171.554688 169.839844 L 173.589844 168.316406 L 174.046875 166.78125 L 178.648438 166.167969 L 179.285156 167.089844 L 180.148438 167.667969 L 184.320313 169.011719 L 187.675781 167.128906 Z M 157.910156 172.894531 L 157.527344 171.300781 L 156.164063 169.027344 L 156.050781 168.75 L 156.390625 168.453125 L 157.75 167.980469 L 160.300781 168.324219 L 161.058594 169.320313 Z M 155.597656 167.652344 L 155.5 167.410156 L 155.34375 165.671875 L 155.714844 163.960938 L 156.578125 162.441406 L 157.851563 161.246094 L 158.199219 161.074219 L 161.363281 161.917969 L 164.042969 162.292969 L 165.242188 161.992188 L 165.410156 161.910156 L 166.183594 162.441406 L 166.457031 162.546875 L 166.417969 162.609375 L 162.722656 166.96875 L 162.175781 167.183594 L 161.726563 166.894531 L 161.859375 165.949219 L 161.53125 165.507813 L 159.984375 165.785156 Z M 139.039063 356.519531 L 139.679688 355.242188 L 139.722656 355.195313 L 140.597656 355.164063 L 141.484375 356.3125 L 142.226563 358.1875 L 141.734375 358.875 L 141.003906 358.070313 L 139.230469 356.960938 Z M 142.207031 353.28125 L 142.511719 353.121094 L 144.277344 352.800781 L 146.054688 353.035156 L 147.675781 353.800781 L 148.988281 355.019531 L 150.261719 356.644531 L 151.886719 357.921875 L 153.066406 359.171875 L 153.1875 359.417969 L 150.984375 360.816406 L 147.425781 363.976563 L 146.109375 363.875 L 144.195313 361.613281 L 142.050781 357.363281 Z M 153.292969 359.632813 L 153.828125 360.714844 L 154.105469 362.414063 L 153.875 364.117188 L 153.15625 365.683594 L 151.210938 368.648438 L 149.910156 370.054688 L 149.496094 370.277344 L 150.074219 370.617188 L 151.339844 372.109375 L 151.96875 373.175781 L 150.203125 373.105469 L 145.449219 374.257813 L 143.757813 375.484375 L 142.039063 378.097656 L 138.648438 378.3125 L 138.765625 376.625 L 139.546875 374.820313 L 141.140625 372.378906 L 142.589844 371.953125 L 147.132813 367.984375 L 147.953125 364.523438 L 151.550781 360.582031 L 153.09375 359.609375 Z M 152.945313 374.433594 L 153.59375 375.128906 L 153.671875 375.238281 L 157.523438 376.253906 L 159 376.867188 L 160.25 377.859375 L 161.1875 379.15625 L 161.734375 380.660156 L 162.21875 382.929688 L 163.363281 385.09375 L 163.976563 386.964844 L 163.929688 388.933594 L 163.226563 390.773438 L 161.949219 392.273438 L 159.773438 394.09375 L 158.246094 395.015625 L 156.511719 395.425781 L 154.730469 395.296875 L 153.421875 394.769531 L 154.199219 391.746094 L 153.734375 388.820313 L 152.566406 386.542969 L 153.179688 384.597656 L 154.652344 381.796875 L 152.269531 378.203125 L 152.683594 374.835938 Z M 132.929688 470.8125 L 133.894531 471.929688 L 134.609375 473.78125 L 135.019531 475.832031 L 135.664063 477.179688 L 136.546875 478.242188 L 138.246094 479.488281 L 139.570313 480.847656 L 140.386719 482.5625 L 140.585938 484.234375 L 139.910156 484.507813 L 134.507813 484.320313 L 132.167969 484.859375 L 129.414063 488.195313 L 126.714844 489.746094 L 126.574219 489.789063 L 125.042969 489.503906 L 123.007813 489.875 L 120.324219 491.496094 L 118.617188 492.1875 L 116.777344 492.308594 L 114.996094 491.851563 L 113.445313 490.859375 L 112.28125 489.429688 L 111.769531 488.085938 L 112.199219 488.253906 L 112.445313 488.9375 L 113.574219 489.15625 L 118.144531 485.910156 L 121.425781 483.085938 L 124.375 479.769531 L 125.210938 477.886719 L 124.875 476.421875 L 125.640625 474.519531 L 128.386719 473.238281 L 132.105469 472.640625 L 132.679688 471.785156 Z M 137.933594 323.433594 L 137.675781 322.921875 L 139.816406 316.644531 L 142.300781 315.023438 L 144.765625 310.230469 L 145.863281 309.40625 L 149.046875 308.269531 L 150.203125 313.453125 L 147.847656 318.148438 L 145.3125 320.636719 L 141.859375 323.019531 L 139.824219 322.464844 Z M 286.679688 439.636719 L 283.058594 438.976563 L 282.164063 437.605469 L 282.484375 436.070313 L 286.839844 437.054688 L 287.960938 438.832031 Z M 236.835938 466.113281 L 235.136719 465.644531 L 236.523438 463.683594 L 237.195313 464.164063 L 237.5 465.839844 Z M 228.117188 474.644531 L 222.296875 470.886719 L 220.207031 471.1875 L 221.476563 469.683594 L 227.316406 466.367188 L 232.550781 467.761719 L 234.171875 469.894531 L 231.242188 473.621094 L 229.960938 474.269531 Z M 228.117188 474.644531 "/>
<path style=" stroke:none;fill-rule:nonzero;fill:rgb(80.392157%,58.431373%,4.705882%);fill-opacity:1;" d="M 161.863281 242.308594 L 161.578125 244.105469 L 160.75 245.726563 L 159.464844 247.011719 L 157.84375 247.839844 L 156.046875 248.125 L 154.25 247.839844 L 152.628906 247.011719 L 151.339844 245.726563 L 150.515625 244.105469 L 150.230469 242.308594 L 150.515625 240.511719 L 151.339844 238.890625 L 152.628906 237.601563 L 154.25 236.777344 L 156.046875 236.492188 L 157.84375 236.777344 L 159.464844 237.601563 L 160.75 238.890625 L 161.578125 240.511719 Z M 161.863281 242.308594 "/>
<path style=" stroke:none;fill-rule:nonzero;fill:rgb(80.392157%,58.431373%,4.705882%);fill-opacity:1;" d="M 161.863281 451.660156 L 161.578125 453.457031 L 160.75 455.078125 L 159.464844 456.367188 L 157.84375 457.191406 L 156.046875 457.476563 L 154.25 457.191406 L 152.628906 456.367188 L 151.339844 455.078125 L 150.515625 453.457031 L 150.230469 451.660156 L 150.515625 449.863281 L 151.339844 448.242188 L 152.628906 446.957031 L 153.566406 446.476563 L 157.421875 446.269531 L 157.894531 446.15625 L 159.464844 446.957031 L 160.75 448.242188 L 161.578125 449.863281 Z M 161.863281 451.660156 "/>
<path style=" stroke:none;fill-rule:nonzero;fill:rgb(80.392157%,58.431373%,4.705882%);fill-opacity:1;" d="M 161.863281 482.675781 L 161.578125 484.472656 L 160.75 486.09375 L 159.464844 487.382813 L 157.84375 488.207031 L 157.203125 488.308594 L 156.527344 486.851563 L 154.683594 485.4375 L 153.613281 485.542969 L 152.417969 486.300781 L 151.738281 486.164063 L 150.902344 485.234375 L 150.515625 484.472656 L 150.230469 482.675781 L 150.515625 480.878906 L 151.339844 479.257813 L 152.628906 477.972656 L 154.25 477.144531 L 156.046875 476.863281 L 157.84375 477.144531 L 159.464844 477.972656 L 160.75 479.257813 L 161.578125 480.878906 Z M 161.863281 482.675781 "/>
<path style=" stroke:none;fill-rule:nonzero;fill:rgb(80.392157%,58.431373%,4.705882%);fill-opacity:1;" d="M 150.230469 257.816406 L 149.945313 259.613281 L 149.121094 261.234375 L 147.832031 262.519531 L 146.210938 263.347656 L 144.414063 263.628906 L 143.753906 263.527344 L 144.390625 261.886719 L 144.195313 260.621094 L 142.601563 256.71875 L 139.777344 254.832031 L 139.585938 254.644531 L 139.710938 254.398438 L 140.996094 253.109375 L 142.617188 252.285156 L 144.414063 252 L 146.210938 252.285156 L 147.832031 253.109375 L 149.121094 254.398438 L 149.945313 256.019531 Z M 150.230469 257.816406 "/>
<path style=" stroke:none;fill-rule:nonzero;fill:rgb(80.392157%,58.431373%,4.705882%);fill-opacity:1;" d="M 134.722656 424.523438 L 134.4375 426.320313 L 133.648438 427.871094 L 132.394531 427.265625 L 131.648438 427.453125 L 129.4375 429.378906 L 126.53125 428.132813 L 127.425781 426.082031 L 128.796875 425.832031 L 131.792969 424.328125 L 131.226563 422.867188 L 130.640625 424.257813 L 127.769531 424.613281 L 123.148438 424.171875 L 123.375 422.726563 L 123.761719 421.972656 L 124.125 421.78125 L 125.167969 421.753906 L 125.464844 421.238281 L 125.269531 420.039063 L 125.488281 419.816406 L 127.109375 418.992188 L 128.90625 418.707031 L 130.703125 418.992188 L 132.324219 419.816406 L 133.613281 421.105469 L 134.4375 422.726563 Z M 134.722656 424.523438 "/>
<path style=" stroke:none;fill-rule:nonzero;fill:rgb(80.392157%,58.431373%,4.705882%);fill-opacity:1;" d="M 161.863281 428.398438 L 161.578125 430.195313 L 160.75 431.816406 L 160.589844 431.980469 L 159.03125 429.199219 L 155.65625 429.589844 L 151.175781 431.496094 L 150.515625 430.195313 L 150.296875 428.820313 L 151.640625 428.421875 L 152.765625 427.832031 L 153.085938 427.097656 L 152.808594 426.597656 L 150.550781 426.535156 L 151.339844 424.980469 L 152.628906 423.695313 L 154.25 422.871094 L 156.046875 422.585938 L 157.84375 422.871094 L 159.464844 423.695313 L 160.75 424.980469 L 161.578125 426.601563 Z M 161.863281 428.398438 "/>
<path style=" stroke:none;fill-rule:nonzero;fill:rgb(80.392157%,58.431373%,4.705882%);fill-opacity:1;" d="M 154.109375 482.675781 L 153.824219 484.472656 L 153.117188 485.855469 L 152.417969 486.300781 L 151.738281 486.164063 L 148.46875 482.535156 L 142.796875 482.960938 L 142.535156 483.046875 L 142.476563 482.675781 L 142.761719 480.878906 L 143.585938 479.257813 L 144.875 477.972656 L 146.496094 477.144531 L 148.292969 476.863281 L 150.089844 477.144531 L 151.710938 477.972656 L 152.996094 479.257813 L 153.824219 480.878906 Z M 154.109375 482.675781 "/>
<path style=" stroke:none;fill-rule:nonzero;fill:rgb(80.392157%,58.431373%,4.705882%);fill-opacity:1;" d="M 134.722656 412.890625 L 134.4375 414.6875 L 133.613281 416.308594 L 132.324219 417.597656 L 130.703125 418.421875 L 128.90625 418.707031 L 127.109375 418.421875 L 125.488281 417.597656 L 124.203125 416.308594 L 123.375 414.6875 L 123.355469 414.558594 L 125.933594 413.378906 L 126.539063 411.90625 L 133.074219 411.34375 L 134.015625 410.265625 L 134.4375 411.09375 Z M 134.722656 412.890625 "/>
<path style=" stroke:none;fill-rule:nonzero;fill:rgb(80.392157%,58.431373%,4.705882%);fill-opacity:1;" d="M 154.109375 451.660156 L 153.824219 453.457031 L 152.996094 455.078125 L 151.710938 456.367188 L 150.089844 457.191406 L 148.292969 457.476563 L 146.496094 457.191406 L 144.875 456.367188 L 144.453125 455.945313 L 145.761719 455.429688 L 148.429688 452.488281 L 148.105469 447.519531 L 151.058594 446.625 L 151.710938 446.957031 L 152.996094 448.242188 L 153.824219 449.863281 Z M 154.109375 451.660156 "/>
<path style=" stroke:none;fill-rule:nonzero;fill:rgb(80.392157%,58.431373%,4.705882%);fill-opacity:1;" d="M 159.046875 489.875 L 158.269531 488.351563 L 157.984375 486.554688 L 158.269531 484.757813 L 159.09375 483.136719 L 160.382813 481.847656 L 162.003906 481.023438 L 163.800781 480.738281 L 165.550781 481.015625 L 162.746094 489.226563 L 160.929688 490.242188 Z M 159.046875 489.875 "/>
</g>
</svg>
