<?xml version="1.0" encoding="UTF-8"?>
<svg xmlns="http://www.w3.org/2000/svg" xmlns:xlink="http://www.w3.org/1999/xlink" width="378pt" height="504pt" viewBox="0 0 378 504" version="1.1">
<g id="data">
<rect x="0" y="0" width="378" height="504" style="fill:rgb(100%,100%,100%);fill-opacity:1;stroke:none;"/>
<path style=" stroke:none;fill-rule:nonzero;fill:rgb(100%,100%,100%);fill-opacity:1;" d="M 53.308594 504 L 324.691406 504 L 324.691406 0 L 53.308594 0 Z M 53.308594 504 "/>
<path style=" stroke:none;fill-rule:nonzero;fill:rgb(22.745098%,53.333333%,16.078431%);fill-opacity:1;" d="M 200.636719 412.648438 L 200.9375 411.023438 L 201.6875 409.550781 L 202.820313 408.347656 L 204.246094 407.511719 L 205.847656 407.109375 L 208.597656 406.824219 L 210.261719 406.074219 L 211.597656 404.851563 L 212.984375 402.332031 L 214.121094 400.875 L 215.65625 399.851563 L 217.4375 399.359375 L 219.28125 399.449219 L 221.007813 400.113281 L 222.433594 401.285156 L 223.421875 402.847656 L 224.175781 404.609375 L 224.921875 405.640625 L 225.875 406.484375 L 227.148438 407.1875 L 229.382813 407.992188 L 230.742188 408.171875 L 232.132813 408.023438 L 233.394531 407.554688 L 235.035156 406.296875 L 236.246094 404.410156 L 236.527344 403.453125 L 236.625 402.246094 L 236.464844 401.046875 L 235.855469 399.328125 L 235.523438 397.246094 L 235.957031 395.183594 L 237.09375 393.410156 L 238.1875 392.242188 L 238.800781 391.269531 L 239.210938 390.195313 L 239.488281 388.621094 L 239.984375 387.085938 L 240.886719 385.75 L 242.226563 384.253906 L 242.757813 383.296875 L 243.445313 380.496094 L 244.125 378.855469 L 244.65625 378.222656 L 243.402344 377.121094 L 240.769531 373.992188 L 239.832031 372.445313 L 239.417969 370.683594 L 239.5625 368.878906 L 239.976563 367.160156 L 240.027344 365.265625 L 240.394531 363.382813 L 241.355469 361.722656 L 242.800781 360.460938 L 244.582031 359.742188 L 246.015625 359.667969 L 244.324219 359.667969 L 242.625 359.125 L 241.167969 358.097656 L 240.09375 356.675781 L 239.140625 354.902344 L 238.253906 353.902344 L 237.160156 353.132813 L 235.292969 352.378906 L 233.800781 351.503906 L 232.632813 350.222656 L 231.890625 348.65625 L 231.644531 346.941406 L 231.917969 345.230469 L 232.679688 343.675781 L 233.867188 342.414063 L 235.492188 341.136719 L 236.765625 339.511719 L 238.167969 338.234375 L 239.90625 337.472656 L 241.796875 337.308594 L 243.636719 337.765625 L 245.234375 338.789063 L 245.945313 339.433594 L 245.550781 339.511719 L 244.589844 338.644531 L 243.40625 338.558594 L 241.210938 339.871094 L 241.886719 340.445313 L 246.324219 340.394531 L 246.832031 340.230469 L 247.085938 340.460938 L 248.488281 341.144531 L 250.039063 341.425781 L 252.410156 341.195313 L 253.488281 341.261719 L 254.382813 342.558594 L 258.660156 346.078125 L 258.765625 346.519531 L 258.621094 348.351563 L 257.914063 350.046875 L 256.710938 351.433594 L 255.136719 352.378906 L 253.269531 353.132813 L 252.175781 353.902344 L 251.289063 354.902344 L 250.335938 356.671875 L 249.261719 358.097656 L 247.804688 359.125 L 246.125 359.660156 L 246.496094 359.640625 L 248.339844 360.167969 L 249.914063 361.269531 L 251.042969 362.820313 L 251.996094 364.726563 L 253.476563 366.425781 L 254.550781 368.242188 L 254.90625 370.324219 L 254.496094 372.394531 L 253.253906 375.519531 L 252.394531 376.996094 L 252.296875 377.089844 L 253.316406 377.878906 L 254.324219 379.339844 L 255.035156 380.808594 L 255.683594 381.679688 L 256.484375 382.414063 L 257.402344 382.984375 L 258.417969 383.378906 L 259.484375 383.574219 L 260.570313 383.566406 L 261.378906 383.40625 L 263.566406 382.292969 L 265.902344 379.910156 L 266.378906 379.027344 L 266.710938 377.917969 L 266.9375 378.226563 L 270.21875 378.804688 L 270.625 378.746094 L 271.910156 376.796875 L 272.234375 374.960938 L 273.40625 371.914063 L 274.707031 370.632813 L 277.851563 370.085938 L 283.34375 370.234375 L 284.253906 370.867188 L 286.703125 370.742188 L 293.46875 371.464844 L 293.273438 372.371094 L 292.398438 374.601563 L 292.242188 376.183594 L 292.523438 377.746094 L 293.265625 379.257813 L 293.992188 380.125 L 295.339844 381.1875 L 296.878906 383.03125 L 298.082031 385.308594 L 299.230469 386.457031 L 301.117188 387.394531 L 304.03125 387.730469 L 305.75 388.203125 L 307.042969 389.039063 L 307.179688 391.25 L 306.777344 393.191406 L 306.890625 393.976563 L 305.789063 396.917969 L 303.519531 407.832031 L 297.144531 414.53125 L 295.578125 412.011719 L 292.742188 410.515625 L 292.480469 410.636719 L 293.898438 413.703125 L 295.890625 416.628906 L 296.3125 416.765625 L 296.164063 417.742188 L 295.300781 418.859375 L 294.960938 418.921875 L 293.992188 419.300781 L 293.003906 419.921875 L 291.835938 421.011719 L 291.1875 421.457031 L 290.003906 421.65625 L 289.660156 421.574219 L 288.214844 419.332031 L 284.976563 421.730469 L 284.941406 421.75 L 283.796875 420.929688 L 282.734375 419.515625 L 282.148438 417.847656 L 281.792969 415.964844 L 281.292969 414.808594 L 280.484375 413.707031 L 279.546875 412.898438 L 278.335938 412.261719 L 277.121094 411.9375 L 275.867188 411.890625 L 274.683594 412.113281 L 272.523438 413.210938 L 270.804688 414.570313 L 269.957031 415.558594 L 269.441406 416.476563 L 269.097656 417.507813 L 268.949219 418.585938 L 269 419.507813 L 271.054688 426.238281 L 271.769531 427.34375 L 272.605469 428.140625 L 274.472656 429.097656 L 276.496094 429.355469 L 278.382813 428.933594 L 280.882813 427.359375 L 282.703125 426.605469 L 284.667969 426.503906 L 286.558594 427.0625 L 287.570313 427.796875 L 287.632813 428.84375 L 285.6875 430.875 L 283.441406 432.558594 L 282.84375 432.699219 L 279.644531 432.160156 L 274.75 433.78125 L 272.609375 436.117188 L 274.253906 436.015625 L 275.152344 434.667969 L 276.683594 434.363281 L 278.285156 434.328125 L 281.054688 434.949219 L 281.828125 435.589844 L 281.691406 436.328125 L 279.554688 436.347656 L 277.390625 437.65625 L 277.96875 438.546875 L 281.382813 438.964844 L 286.863281 440.339844 L 289.394531 439.9375 L 291.074219 438.957031 L 299.742188 437.757813 L 300.988281 440.148438 L 300.773438 446.324219 L 300.335938 447.820313 L 299.394531 449.050781 L 296.972656 450.242188 L 295.839844 450.375 L 292.621094 451.640625 L 291.59375 452.425781 L 291.214844 452.273438 L 289.59375 452.09375 L 288.277344 452.292969 L 286.230469 453.148438 L 284.261719 453.59375 L 282.253906 453.335938 L 279.878906 452.597656 L 278.121094 452.570313 L 277.070313 452.820313 L 275.878906 453.394531 L 274.996094 454.078125 L 274.242188 454.945313 L 273.671875 455.957031 L 273.382813 456.816406 L 273.222656 458.847656 L 273.375 459.757813 L 273.9375 461.289063 L 274.246094 463.035156 L 272.597656 463.816406 L 270.539063 466.589844 L 269.761719 466.949219 L 259.269531 463.777344 L 256.070313 463.507813 L 244.628906 465.699219 L 242.703125 466.390625 L 242.113281 466.964844 L 241.902344 467.984375 L 241.359375 468.164063 L 238.210938 466.1875 L 238.632813 465.4375 L 239.46875 464.933594 L 237.714844 463.296875 L 231.496094 463.171875 L 231.378906 463.496094 L 232.574219 464.835938 L 232.214844 465.75 L 231.738281 466.042969 L 226.691406 465.496094 L 219.566406 468.449219 L 217.054688 467.824219 L 210.222656 468.96875 L 208.164063 468.875 L 207.273438 468.058594 L 206.238281 469.769531 L 209.429688 471.089844 L 209.714844 470.9375 L 210.1875 472.128906 L 209.566406 473.890625 L 206.84375 474.453125 L 204.453125 473.097656 L 203.015625 472.699219 L 197.625 472.007813 L 196.429688 472.542969 L 196.054688 472.351563 L 194.714844 471.414063 L 193.550781 470.320313 L 192.5625 469.699219 L 191.59375 469.324219 L 189.898438 469.015625 L 188.144531 468.390625 L 186.675781 467.246094 L 185.644531 465.695313 L 185.15625 463.898438 L 184.765625 460.183594 L 184.863281 458.347656 L 185.53125 456.636719 L 186.695313 455.21875 L 188.25 454.234375 L 190.03125 453.78125 L 191.863281 453.910156 L 193.726563 454.34375 L 194.996094 454.351563 L 199.078125 453.472656 L 200.15625 453.078125 L 201.382813 452.320313 L 202.953125 450.804688 L 203.734375 449.742188 L 204.160156 448.808594 L 204.726563 446.054688 L 204.785156 444.839844 L 204.554688 443.480469 L 204.09375 442.386719 L 200.933594 438.460938 L 198.875 436.769531 L 197.328125 434.796875 L 196.492188 433.058594 L 195.78125 432.144531 L 194.726563 431.28125 L 192.925781 430.394531 L 192.414063 430.03125 L 195.792969 425.3125 L 197.929688 424.472656 L 198.285156 423.78125 L 198.070313 423.238281 L 197.8125 423.082031 L 196.09375 424.355469 L 192.90625 427.300781 L 191.296875 429.15625 L 190.335938 427.863281 L 189.753906 426.125 L 189.746094 424.289063 L 190.308594 422.542969 L 191.386719 421.058594 L 192.871094 419.984375 L 194.621094 419.425781 L 196.222656 419.183594 L 197.320313 418.789063 L 198.304688 418.195313 L 199.152344 417.414063 L 199.839844 416.472656 L 200.285156 415.515625 L 200.5625 414.378906 Z M 181.136719 444.9375 L 181.996094 445.636719 L 183.15625 446.914063 L 183.890625 448.480469 L 184.132813 450.1875 L 183.863281 451.894531 L 183.105469 453.445313 L 181.921875 454.707031 L 180.425781 455.5625 L 178.738281 455.941406 L 176.0625 456.136719 L 173.683594 457.074219 L 171.894531 457.46875 L 170.066406 457.285156 L 168.390625 456.542969 L 167.027344 455.3125 L 166.117188 453.722656 L 165.746094 451.925781 L 165.949219 450.105469 L 166.714844 448.4375 L 167.957031 447.089844 L 168.304688 446.820313 L 169.484375 447.285156 L 170.039063 448.109375 L 170.757813 448.421875 L 173.15625 448.464844 L 180.570313 447.503906 L 181.109375 445.632813 Z M 132.925781 470.820313 L 133.613281 471.503906 L 134.4375 473.125 L 134.722656 474.921875 L 134.722656 478.800781 L 134.347656 480.855469 L 133.269531 482.648438 L 131.515625 484.632813 L 130.738281 486.425781 L 130.714844 486.621094 L 129.414063 488.195313 L 126.714844 489.746094 L 124.039063 490.597656 L 123.132813 494.289063 L 123.664063 495.292969 L 123.527344 495.984375 L 122.8125 495.804688 L 120.675781 494.925781 L 119.261719 494.738281 L 117.738281 494.929688 L 117.367188 495.085938 L 117.15625 494.691406 L 115.984375 493.691406 L 112.253906 492.070313 L 111.410156 491.984375 L 110.375 492.488281 L 110.242188 494.183594 L 109.691406 494.820313 L 108.785156 493.96875 L 107.894531 492.296875 L 107.585938 490.429688 L 107.585938 489.898438 L 111.738281 488.078125 L 112.199219 488.253906 L 112.445313 488.9375 L 113.574219 489.15625 L 118.144531 485.910156 L 121.425781 483.085938 L 124.375 479.769531 L 125.210938 477.886719 L 124.875 476.421875 L 125.640625 474.519531 L 128.386719 473.238281 L 132.105469 472.640625 L 132.679688 471.785156 Z M 286.679688 439.636719 L 283.058594 438.976563 L 282.164063 437.605469 L 282.484375 436.070313 L 286.839844 437.054688 L 287.960938 438.832031 Z M 236.835938 466.113281 L 235.136719 465.644531 L 236.523438 463.683594 L 237.195313 464.164063 L 237.5 465.839844 Z M 228.117188 474.644531 L 222.296875 470.886719 L 220.207031 471.1875 L 221.476563 469.683594 L 227.316406 466.367188 L 232.550781 467.761719 L 234.171875 469.894531 L 231.242188 473.621094 L 229.960938 474.269531 Z M 228.117188 474.644531 "/>
<path style=" stroke:none;fill-rule:nonzero;fill:rgb(80.392157%,58.431373%,4.705882%);fill-opacity:1;" d="M 192.875 393.507813 L 192.59375 395.304688 L 191.765625 396.925781 L 190.480469 398.210938 L 188.859375 399.039063 L 187.0625 399.324219 L 185.265625 399.039063 L 183.644531 398.210938 L 182.355469 396.925781 L 181.53125 395.304688 L 181.246094 393.507813 L 181.53125 391.710938 L 182.355469 390.089844 L 183.644531 388.804688 L 185.265625 387.976563 L 187.0625 387.691406 L 188.859375 387.976563 L 190.480469 388.804688 L 191.765625 390.089844 L 192.59375 391.710938 Z M 192.875 393.507813 "/>
<path style=" stroke:none;fill-rule:nonzero;fill:rgb(80.392157%,58.431373%,4.705882%);fill-opacity:1;" d="M 220.015625 358.617188 L 219.730469 360.414063 L 218.90625 362.035156 L 217.617188 363.320313 L 215.996094 364.144531 L 214.199219 364.429688 L 212.402344 364.144531 L 210.78125 363.320313 L 209.496094 362.035156 L 208.667969 360.414063 L 208.382813 358.617188 L 208.667969 356.816406 L 209.496094 355.195313 L 210.78125 353.910156 L 212.402344 353.085938 L 214.199219 352.800781 L 215.996094 353.085938 L 217.617188 353.910156 L 218.90625 355.195313 L 219.730469 356.816406 Z M 220.015625 358.617188 "/>
<path style=" stroke:none;fill-rule:nonzero;fill:rgb(80.392157%,58.431373%,4.705882%);fill-opacity:1;" d="M 216.136719 374.125 L 215.855469 375.921875 L 215.027344 377.542969 L 213.742188 378.828125 L 212.121094 379.652344 L 210.324219 379.9375 L 208.527344 379.652344 L 206.90625 378.828125 L 205.617188 377.542969 L 204.792969 375.921875 L 204.507813 374.125 L 204.792969 372.324219 L 205.617188 370.703125 L 206.90625 369.417969 L 208.527344 368.59375 L 210.324219 368.308594 L 212.121094 368.59375 L 213.742188 369.417969 L 215.027344 370.703125 L 215.855469 372.324219 Z M 216.136719 374.125 "/>
<path style=" stroke:none;fill-rule:nonzero;fill:rgb(80.392157%,58.431373%,4.705882%);fill-opacity:1;" d="M 220.015625 385.753906 L 219.730469 387.550781 L 218.90625 389.171875 L 217.617188 390.457031 L 215.996094 391.285156 L 214.199219 391.570313 L 212.402344 391.285156 L 210.78125 390.457031 L 209.496094 389.171875 L 208.667969 387.550781 L 208.382813 385.753906 L 208.667969 383.957031 L 209.496094 382.335938 L 210.78125 381.050781 L 212.402344 380.222656 L 214.199219 379.9375 L 215.996094 380.222656 L 217.617188 381.050781 L 218.90625 382.335938 L 219.730469 383.957031 Z M 220.015625 385.753906 "/>
<path style=" stroke:none;fill-rule:nonzero;fill:rgb(80.392157%,58.431373%,4.705882%);fill-opacity:1;" d="M 216.136719 331.476563 L 215.855469 333.273438 L 215.027344 334.894531 L 213.742188 336.183594 L 212.121094 337.007813 L 210.324219 337.292969 L 208.527344 337.007813 L 206.90625 336.183594 L 205.617188 334.894531 L 204.792969 333.273438 L 204.507813 331.476563 L 204.792969 329.679688 L 205.617188 328.058594 L 206.90625 326.773438 L 208.527344 325.945313 L 210.324219 325.660156 L 212.121094 325.945313 L 213.742188 326.773438 L 215.027344 328.058594 L 215.855469 329.679688 Z M 216.136719 331.476563 "/>
<path style=" stroke:none;fill-rule:nonzero;fill:rgb(80.392157%,58.431373%,4.705882%);fill-opacity:1;" d="M 189 389.628906 L 188.714844 391.429688 L 187.890625 393.050781 L 186.601563 394.335938 L 184.980469 395.160156 L 183.183594 395.445313 L 181.386719 395.160156 L 179.765625 394.335938 L 178.480469 393.050781 L 177.652344 391.429688 L 177.371094 389.628906 L 177.652344 387.832031 L 178.480469 386.210938 L 179.765625 384.925781 L 181.386719 384.101563 L 183.183594 383.816406 L 184.980469 384.101563 L 186.601563 384.925781 L 187.890625 386.210938 L 188.714844 387.832031 Z M 189 389.628906 "/>
<path style=" stroke:none;fill-rule:nonzero;fill:rgb(80.392157%,58.431373%,4.705882%);fill-opacity:1;" d="M 196.753906 211.292969 L 196.46875 213.089844 L 195.644531 214.710938 L 194.355469 215.996094 L 192.734375 216.824219 L 190.9375 217.109375 L 189.140625 216.824219 L 187.519531 215.996094 L 186.234375 214.710938 L 185.40625 213.089844 L 185.125 211.292969 L 185.40625 209.496094 L 186.234375 207.875 L 187.519531 206.585938 L 189.140625 205.761719 L 190.9375 205.476563 L 192.734375 205.761719 L 194.355469 206.585938 L 195.644531 207.875 L 196.46875 209.496094 Z M 196.753906 211.292969 "/>
<path style=" stroke:none;fill-rule:nonzero;fill:rgb(80.392157%,58.431373%,4.705882%);fill-opacity:1;" d="M 181.246094 432.277344 L 181 433.835938 L 178.394531 435.230469 L 177.398438 436.808594 L 177.207031 437.8125 L 175.429688 438.09375 L 173.632813 437.808594 L 172.011719 436.980469 L 170.726563 435.695313 L 169.898438 434.074219 L 169.617188 432.277344 L 169.898438 430.480469 L 170.726563 428.859375 L 172.011719 427.570313 L 173.632813 426.746094 L 175.429688 426.460938 L 177.226563 426.746094 L 178.847656 427.570313 L 180.136719 428.859375 L 180.960938 430.480469 Z M 181.246094 432.277344 "/>
<path style=" stroke:none;fill-rule:nonzero;fill:rgb(80.392157%,58.431373%,4.705882%);fill-opacity:1;" d="M 231.644531 300.460938 L 231.363281 302.257813 L 230.535156 303.878906 L 229.25 305.167969 L 227.628906 305.992188 L 225.832031 306.277344 L 224.035156 305.992188 L 222.414063 305.167969 L 221.125 303.878906 L 220.300781 302.257813 L 220.015625 300.460938 L 220.300781 298.664063 L 221.125 297.042969 L 222.414063 295.757813 L 224.035156 294.929688 L 225.832031 294.644531 L 226.316406 294.722656 L 229.304688 299.0625 L 231.59375 300.128906 Z M 231.644531 300.460938 "/>
<path style=" stroke:none;fill-rule:nonzero;fill:rgb(80.392157%,58.431373%,4.705882%);fill-opacity:1;" d="M 189 354.738281 L 188.886719 355.441406 L 188.667969 355.527344 L 188.3125 355.957031 L 186.378906 356.386719 L 183.8125 354.640625 L 181.320313 349.242188 L 181.386719 349.207031 L 183.183594 348.921875 L 184.980469 349.207031 L 186.601563 350.035156 L 187.890625 351.320313 L 188.714844 352.941406 Z M 188.152344 357.640625 L 187.890625 358.15625 L 186.601563 359.441406 L 184.980469 360.269531 L 183.183594 360.554688 L 181.386719 360.269531 L 179.765625 359.441406 L 179.164063 358.839844 L 179.910156 359.441406 L 180.433594 358.429688 L 177.679688 353.460938 L 178.242188 352.835938 L 180.867188 352.449219 L 181.503906 352.695313 L 181.914063 353.875 L 182.898438 354.332031 L 184.078125 356.789063 L 185.613281 357.902344 Z M 188.152344 357.640625 "/>
<path style=" stroke:none;fill-rule:nonzero;fill:rgb(80.392157%,58.431373%,4.705882%);fill-opacity:1;" d="M 179.679688 242.304688 L 178.847656 243.136719 L 177.226563 243.960938 L 175.429688 244.246094 L 173.632813 243.960938 L 172.011719 243.136719 L 170.726563 241.847656 L 170.039063 240.5 L 178.0625 241.875 Z M 169.667969 238.101563 L 169.898438 236.632813 L 170.726563 235.011719 L 172.011719 233.726563 L 173.632813 232.898438 L 175.429688 232.617188 L 177.226563 232.898438 L 178.847656 233.726563 L 180.136719 235.011719 L 180.824219 236.367188 L 180.578125 237.003906 L 174.761719 240.109375 L 170.214844 238.117188 Z M 169.667969 238.101563 "/>
<path style=" stroke:none;fill-rule:nonzero;fill:rgb(80.392157%,58.431373%,4.705882%);fill-opacity:1;" d="M 143.792969 321.6875 L 142.617188 321.5 L 140.996094 320.675781 L 139.710938 319.386719 L 139.214844 318.414063 L 139.816406 316.644531 L 142.300781 315.023438 L 144.765625 310.230469 L 144.789063 310.214844 L 146.210938 310.4375 L 147.832031 311.265625 L 149.121094 312.550781 L 149.894531 314.070313 L 147.847656 318.148438 L 145.3125 320.636719 Z M 143.792969 321.6875 "/>
<path style=" stroke:none;fill-rule:nonzero;fill:rgb(80.392157%,58.431373%,4.705882%);fill-opacity:1;" d="M 185.125 242.308594 L 184.839844 244.105469 L 184.011719 245.726563 L 182.726563 247.011719 L 181.105469 247.839844 L 179.308594 248.125 L 177.511719 247.839844 L 175.890625 247.011719 L 174.601563 245.726563 L 173.777344 244.105469 L 173.492188 242.308594 L 173.679688 241.125 L 178.0625 241.875 L 182.921875 243.167969 L 185.117188 242.261719 Z M 174.125 239.832031 L 174.601563 238.890625 L 175.890625 237.601563 L 177.511719 236.777344 L 179.308594 236.492188 L 180.691406 236.710938 L 180.578125 237.003906 L 174.761719 240.109375 Z M 174.125 239.832031 "/>
<path style=" stroke:none;fill-rule:nonzero;fill:rgb(80.392157%,58.431373%,4.705882%);fill-opacity:1;" d="M 154.109375 451.660156 L 153.824219 453.457031 L 152.996094 455.078125 L 151.710938 456.367188 L 150.089844 457.191406 L 148.292969 457.476563 L 146.496094 457.191406 L 144.875 456.367188 L 144.453125 455.945313 L 145.761719 455.429688 L 148.429688 452.488281 L 148.105469 447.519531 L 151.058594 446.625 L 151.710938 446.957031 L 152.996094 448.242188 L 153.824219 449.863281 Z M 154.109375 451.660156 "/>
<path style=" stroke:none;fill-rule:nonzero;fill:rgb(80.392157%,58.431373%,4.705882%);fill-opacity:1;" d="M 139.320313 318.101563 L 140.539063 317.90625 L 142.335938 318.191406 L 143.957031 319.019531 L 145.242188 320.304688 L 145.378906 320.574219 L 145.3125 320.636719 L 141.859375 323.019531 L 139.824219 322.464844 L 137.933594 323.433594 L 137.675781 322.921875 Z M 139.320313 318.101563 "/>
<path style=" stroke:none;fill-rule:nonzero;fill:rgb(80.392157%,58.431373%,4.705882%);fill-opacity:1;" d="M 149.589844 310.710938 L 149.121094 311.632813 L 147.832031 312.921875 L 146.210938 313.746094 L 144.414063 314.03125 L 142.933594 313.796875 L 144.765625 310.230469 L 145.863281 309.40625 L 149.046875 308.269531 Z M 149.589844 310.710938 "/>
<path style=" stroke:none;fill-rule:nonzero;fill:rgb(80.392157%,58.431373%,4.705882%);fill-opacity:1;" d="M 126.96875 416.769531 L 126.683594 418.566406 L 125.859375 420.1875 L 125.375 420.671875 L 124.929688 417.953125 L 123.328125 417.210938 L 121.445313 417.105469 L 122.0625 415.152344 L 125.882813 413.402344 L 126.683594 414.972656 Z M 126.96875 416.769531 "/>
</g>
</svg>
