<?xml version="1.0" encoding="UTF-8"?>
<svg xmlns="http://www.w3.org/2000/svg" xmlns:xlink="http://www.w3.org/1999/xlink" width="378pt" height="504pt" viewBox="0 0 378 504" version="1.1">
<g id="data">
<rect x="0" y="0" width="378" height="504" style="fill:rgb(100%,100%,100%);fill-opacity:1;stroke:none;"/>
<path style=" stroke:none;fill-rule:nonzero;fill:rgb(100%,100%,100%);fill-opacity:1;" d="M 53.308594 504 L 324.691406 504 L 324.691406 0 L 53.308594 0 Z M 53.308594 504 "/>
<path style=" stroke:none;fill-rule:nonzero;fill:rgb(22.745098%,53.333333%,16.078431%);fill-opacity:1;" d="M 163.953125 471.839844 L 164.113281 470.273438 L 164.753906 467.871094 L 164.710938 466.210938 L 164.238281 464.730469 L 162.84375 462.652344 L 161.988281 460.628906 L 161.945313 458.433594 L 162.441406 455.539063 L 161.945313 452.644531 L 161.890625 451.082031 L 162.253906 449.5625 L 163.21875 447.070313 L 163.253906 446.453125 L 164.597656 446.761719 L 166.046875 446.148438 L 167.527344 446.515625 L 169.484375 447.285156 L 170.039063 448.109375 L 170.757813 448.421875 L 173.15625 448.464844 L 180.570313 447.503906 L 181.109375 445.632813 L 181.210938 443.15625 L 182.519531 440.25 L 190.867188 432.195313 L 195.792969 425.3125 L 197.929688 424.472656 L 198.285156 423.78125 L 198.070313 423.238281 L 197.8125 423.082031 L 196.09375 424.355469 L 192.90625 427.300781 L 190.570313 429.988281 L 189.222656 431.449219 L 185.628906 432.957031 L 183.714844 433.246094 L 182.441406 433.0625 L 178.394531 435.230469 L 177.398438 436.808594 L 177.039063 438.671875 L 176.445313 439.273438 L 174.058594 439.917969 L 170.558594 439.851563 L 166.820313 439 L 166.347656 438.652344 L 161.371094 433.375 L 159.03125 429.199219 L 155.65625 429.589844 L 149.269531 432.308594 L 149.113281 432.746094 L 147.316406 431.695313 L 147.199219 431.597656 L 146.917969 429.308594 L 148.539063 428.378906 L 150.066406 428.890625 L 151.640625 428.421875 L 152.765625 427.832031 L 153.085938 427.097656 L 152.808594 426.597656 L 147.785156 426.460938 L 143.210938 423.710938 L 139.503906 423.714844 L 136.765625 424.277344 L 136.292969 426.515625 L 135.777344 427.203125 L 135.464844 427.3125 L 135.34375 427.136719 L 134.8125 425.539063 L 134.507813 423.824219 L 134.125 422.828125 L 133.550781 421.90625 L 132.449219 420.707031 L 131.484375 419.277344 L 130.976563 417.628906 L 130.976563 415.90625 L 131.484375 414.261719 L 132.449219 412.832031 L 133.550781 411.632813 L 134.113281 410.726563 L 134.5 409.710938 L 134.871094 409.289063 L 135.753906 407.632813 L 137.585938 406.550781 L 141.359375 406.660156 L 142.21875 406.390625 L 146.578125 403.605469 L 147.285156 404.367188 L 148.058594 406.097656 L 148.234375 407.984375 L 147.792969 409.828125 L 146.792969 412.214844 L 146.625 413.902344 L 146.992188 415.671875 L 147.84375 417.195313 L 148.875 418.210938 L 151.089844 419.425781 L 152.269531 420.277344 L 153.445313 421.382813 L 154.28125 421.914063 L 155.796875 422.476563 L 159.332031 423.066406 L 160.613281 422.964844 L 161.976563 422.519531 L 163.085938 421.832031 L 164.09375 420.808594 L 164.765625 419.691406 L 165.1875 418.335938 L 165.273438 416.921875 L 164.917969 414.953125 L 164.871094 413.207031 L 165.339844 411.527344 L 166.289063 410.0625 L 167.628906 408.945313 L 169.238281 408.277344 L 170.976563 408.117188 L 172.683594 408.476563 L 174.207031 409.328125 L 175.816406 410.578125 L 177.792969 411.453125 L 178.984375 412.167969 L 179.976563 413.144531 L 181.117188 414.570313 L 182.078125 415.359375 L 183.011719 415.855469 L 183.984375 416.15625 L 185.382813 416.285156 L 186.667969 416.101563 L 189.492188 414.949219 L 190.582031 414.285156 L 191.367188 413.5625 L 192.019531 412.699219 L 192.496094 411.726563 L 192.78125 410.679688 L 192.875 409.53125 L 192.742188 407.914063 L 192.460938 406.929688 L 191.679688 405.390625 L 191.121094 403.675781 L 191.117188 401.875 L 191.664063 400.15625 L 192.707031 398.691406 L 194.152344 397.613281 L 195.855469 397.03125 L 199.171875 396.445313 L 201.65625 395.382813 L 202.554688 394.820313 L 204.089844 393.144531 L 205.652344 389.785156 L 205.960938 388.628906 L 206.023438 387.4375 L 205.804688 386.105469 L 204.972656 384.152344 L 204.546875 382.550781 L 204.589844 380.894531 L 205.089844 378 L 204.589844 375.105469 L 204.59375 373.117188 L 205.269531 371.246094 L 206.535156 369.710938 L 209 367.59375 L 211.128906 365.003906 L 211.796875 363.769531 L 212.878906 358.859375 L 212.835938 357.777344 L 212.429688 356.128906 L 212.273438 354.386719 L 212.640625 352.675781 L 213.5 351.152344 L 214.769531 349.953125 L 216.34375 349.1875 L 218.070313 348.921875 L 219.800781 349.183594 L 221.371094 349.945313 L 222.648438 351.144531 L 223.925781 352.765625 L 225.546875 354.042969 L 226.796875 355.394531 L 227.558594 357.070313 L 227.761719 358.898438 L 227.65625 361.054688 L 227.992188 363.179688 L 228.492188 364.394531 L 229.324219 365.539063 L 230.390625 366.4375 L 231.660156 367.0625 L 232.929688 367.347656 L 234.425781 367.324219 L 235.402344 367.09375 L 236.347656 366.671875 L 237.945313 365.523438 L 238.703125 365.0625 L 240.761719 364.015625 L 241.910156 362.988281 L 242.472656 362.199219 L 242.957031 361.144531 L 243.222656 360.011719 L 243.28125 358.398438 L 243.722656 356.378906 L 244.847656 354.640625 L 245.941406 353.472656 L 246.5625 352.488281 L 246.9375 351.515625 L 247.246094 349.820313 L 247.828125 348.144531 L 248.886719 346.71875 L 250.328125 345.679688 L 252.683594 344.480469 L 254.246094 343.945313 L 255.898438 343.871094 L 256.015625 343.902344 L 260.535156 347.621094 L 262.070313 348.5 L 262.574219 349.851563 L 262.851563 351.425781 L 263.261719 352.5 L 263.875 353.472656 L 264.96875 354.640625 L 265.859375 355.890625 L 266.394531 357.328125 L 266.535156 358.859375 L 266.265625 365.246094 L 266.777344 367.433594 L 264.953125 369.09375 L 261.394531 373.164063 L 260.601563 374.816406 L 262.84375 374.3125 L 264.9375 375.519531 L 266.9375 378.226563 L 270.21875 378.804688 L 270.625 378.746094 L 271.910156 376.796875 L 272.140625 375.484375 L 272.1875 375.535156 L 273.472656 376.328125 L 274.9375 376.761719 L 276.464844 376.792969 L 278.699219 376.234375 L 280.355469 376.066406 L 281.988281 376.375 L 283.46875 377.132813 L 284.675781 378.277344 L 285.734375 379.621094 L 286.675781 380.414063 L 287.761719 380.988281 L 288.710938 381.265625 L 290.714844 381.335938 L 291.695313 381.121094 L 293.28125 380.425781 L 295.617188 379.9375 L 299.492188 379.9375 L 301.175781 380.1875 L 302.714844 380.914063 L 303.976563 382.050781 L 304.855469 383.507813 L 305.277344 385.15625 L 305.5625 387.90625 L 306.3125 389.570313 L 307.132813 390.464844 L 307.179688 391.25 L 306.777344 393.191406 L 306.890625 393.976563 L 305.789063 396.917969 L 303.519531 407.832031 L 297.144531 414.53125 L 295.578125 412.011719 L 292.742188 410.515625 L 292.480469 410.636719 L 293.898438 413.703125 L 295.449219 415.980469 L 295.246094 416.105469 L 294.34375 417.019531 L 292.972656 419.546875 L 292.171875 420.675781 L 291.511719 421.402344 L 290.003906 421.65625 L 289.660156 421.574219 L 288.214844 419.332031 L 284.976563 421.730469 L 280.71875 424.230469 L 282.339844 425.378906 L 285.105469 424.398438 L 286.097656 423.375 L 286.894531 423.164063 L 287.328125 423.710938 L 287.632813 428.84375 L 285.6875 430.875 L 283.441406 432.558594 L 282.84375 432.699219 L 279.644531 432.160156 L 274.75 433.78125 L 272.609375 436.117188 L 274.253906 436.015625 L 275.152344 434.667969 L 276.683594 434.363281 L 278.285156 434.328125 L 281.054688 434.949219 L 281.828125 435.589844 L 281.691406 436.328125 L 279.554688 436.347656 L 277.390625 437.65625 L 277.96875 438.546875 L 281.382813 438.964844 L 286.863281 440.339844 L 289.394531 439.9375 L 291.074219 438.957031 L 299.742188 437.757813 L 300.988281 440.148438 L 300.773438 446.324219 L 300.335938 447.820313 L 299.394531 449.050781 L 296.972656 450.242188 L 295.839844 450.375 L 292.621094 451.640625 L 291.179688 452.742188 L 289.847656 454.226563 L 289.460938 455.09375 L 289.214844 456.324219 L 289.464844 457.886719 L 286.253906 458.289063 L 284.1875 457.9375 L 282.84375 459.207031 L 282.429688 458.933594 L 280.800781 458.472656 L 279.097656 458.511719 L 277.414063 459.066406 L 276.273438 459.839844 L 275.253906 461.011719 L 274.617188 462.308594 L 274.492188 462.917969 L 272.597656 463.816406 L 270.539063 466.589844 L 269.761719 466.949219 L 259.269531 463.777344 L 256.070313 463.507813 L 244.628906 465.699219 L 242.703125 466.390625 L 242.113281 466.964844 L 241.902344 467.984375 L 241.359375 468.164063 L 238.210938 466.1875 L 238.632813 465.4375 L 239.46875 464.933594 L 237.714844 463.296875 L 231.496094 463.171875 L 231.378906 463.496094 L 232.574219 464.835938 L 232.214844 465.75 L 231.738281 466.042969 L 226.691406 465.496094 L 219.566406 468.449219 L 217.054688 467.824219 L 210.222656 468.96875 L 208.164063 468.875 L 207.273438 468.058594 L 206.238281 469.769531 L 209.429688 471.089844 L 209.714844 470.9375 L 210.1875 472.128906 L 209.566406 473.890625 L 206.84375 474.453125 L 204.453125 473.097656 L 203.015625 472.699219 L 197.625 472.007813 L 196.175781 472.65625 L 195.679688 473.863281 L 195.832031 474.871094 L 196.757813 475.523438 L 196.488281 476.304688 L 195.917969 475.996094 L 194.851563 473.972656 L 190.289063 470.589844 L 185.898438 468.519531 L 183.121094 467.984375 L 181.648438 469.066406 L 176.207031 469.78125 L 174.339844 470.335938 L 168.992188 473.234375 L 168.214844 474.070313 L 167.203125 476.179688 L 164.355469 484.515625 L 163.535156 484.609375 L 160.710938 484.480469 L 158.957031 484.125 L 157.394531 483.253906 L 156.171875 481.945313 L 155.402344 480.328125 L 155.164063 478.554688 L 155.472656 476.792969 L 156.304688 475.210938 L 157.578125 473.953125 L 159.171875 473.140625 L 162.429688 472.078125 Z M 223.128906 471.421875 L 223.054688 471.261719 L 222.425781 470.410156 L 221.574219 469.625 L 227.316406 466.367188 L 232.550781 467.761719 L 234.171875 469.894531 L 231.242188 473.621094 L 229.960938 474.269531 L 228.117188 474.644531 Z M 240.628906 308.515625 L 241.867188 307.339844 L 243.390625 306.570313 L 244.652344 306.351563 L 245.742188 307.636719 L 247.265625 310.527344 L 249.289063 315.722656 L 252.390625 319.148438 L 256.121094 320.875 L 257.207031 321.722656 L 254.738281 323.09375 L 253.890625 324.554688 L 253.765625 325.996094 L 254.984375 329.992188 L 256.160156 332.453125 L 259.210938 336.722656 L 258.132813 337.148438 L 256.378906 337.273438 L 254.667969 336.871094 L 253.15625 335.972656 L 251.039063 334.234375 L 249.167969 333.507813 L 247.191406 333.265625 L 241.488281 333.414063 L 239.867188 333.226563 L 237.839844 332.695313 L 236.425781 332.6875 L 234.710938 333.160156 L 233.269531 334.082031 L 232.152344 335.402344 L 231.164063 337.671875 L 230.167969 339.226563 L 228.734375 340.390625 L 227.007813 341.046875 L 225.164063 341.132813 L 223.386719 340.628906 L 221.855469 339.597656 L 220.675781 338.496094 L 219.785156 337.925781 L 218.714844 337.503906 L 217.035156 337.199219 L 215.460938 336.671875 L 214.101563 335.722656 L 212.921875 334.617188 L 212.03125 334.050781 L 210.960938 333.628906 L 209.28125 333.320313 L 207.9375 332.902344 L 206.730469 332.175781 L 204.097656 330.105469 L 203.285156 329.773438 L 201.496094 329.4375 L 199.167969 328.441406 L 197.699219 327.382813 L 196.5 326.863281 L 195.34375 326.632813 L 194.164063 326.660156 L 192.414063 327.167969 L 190.25 328.585938 L 188.246094 329.417969 L 186.078125 329.453125 L 184.652344 329.210938 L 184.695313 329.191406 L 187.28125 323.421875 L 187.71875 320.933594 L 187.855469 317.484375 L 184.742188 320.527344 L 179.199219 323.441406 L 177.335938 322.691406 L 172.851563 314.925781 L 172.289063 311.832031 L 171.96875 311.363281 L 172.257813 311.097656 L 174.015625 310.328125 L 175.925781 310.175781 L 177.78125 310.648438 L 179.382813 311.703125 L 180.625 312.851563 L 181.675781 313.492188 L 182.75 313.875 L 184.238281 314.109375 L 189.011719 313.867188 L 189.890625 313.605469 L 190.75 313.152344 L 192.28125 311.726563 L 193.171875 310.050781 L 193.46875 308.179688 L 192.964844 305.355469 L 192.925781 303.585938 L 193.417969 301.886719 L 194.398438 300.414063 L 195.777344 299.304688 L 197.425781 298.664063 L 199.191406 298.542969 L 200.910156 298.960938 L 203.046875 299.84375 L 204.460938 300.03125 L 205.984375 299.835938 L 208.105469 298.960938 L 209.78125 298.546875 L 211.503906 298.644531 L 213.121094 299.238281 L 214.492188 300.285156 L 215.5 301.6875 L 216.050781 303.320313 L 216.09375 305.046875 L 215.632813 306.707031 L 214.703125 308.160156 L 212.882813 310.25 L 212.183594 311.886719 L 212 313.566406 L 212.425781 316.363281 L 213.144531 318.046875 L 214.175781 319.289063 L 215.636719 320.277344 L 217.304688 320.800781 L 218.398438 320.859375 L 219.609375 320.671875 L 220.652344 320.28125 L 221.691406 319.628906 L 222.558594 318.78125 L 223.238281 317.761719 L 223.65625 316.730469 L 223.988281 314.921875 L 224.554688 313.273438 L 225.589844 311.863281 L 226.992188 310.828125 L 228.640625 310.253906 L 230.386719 310.195313 L 232.070313 310.65625 L 233.566406 311.320313 L 234.625 311.570313 L 235.695313 311.613281 L 236.863281 311.4375 L 237.871094 311.074219 L 238.808594 310.523438 L 239.625 309.804688 Z M 210.734375 253.890625 L 210.230469 254.476563 L 208.738281 255.40625 L 206.976563 256.160156 L 206.007813 256.859375 L 204.929688 258.148438 L 203.984375 260.222656 L 202.734375 261.996094 L 200.917969 263.1875 L 199.324219 263.847656 L 198.445313 264.429688 L 197.683594 265.164063 L 196.695313 266.574219 L 195.347656 267.949219 L 193.621094 268.804688 L 191.714844 269.050781 L 189.828125 268.664063 L 188.175781 267.679688 L 186.929688 266.207031 L 186.238281 264.414063 L 186.167969 262.488281 L 186.535156 259.644531 L 186.1875 257.875 L 185.300781 256.300781 L 183.171875 254.382813 L 182.011719 252.945313 L 181.363281 251.214844 L 181.289063 249.371094 L 181.796875 247.59375 L 182.835938 246.066406 L 184.300781 244.941406 L 186.046875 244.335938 L 187.761719 244.03125 L 188.757813 243.648438 L 189.679688 243.074219 L 190.878906 241.972656 L 192.304688 241.003906 L 193.953125 240.5 L 195.675781 240.5 L 196.390625 240.71875 L 199.339844 242.761719 L 200.320313 243.296875 L 200.945313 243.679688 L 201.195313 243.773438 L 206.488281 246.65625 L 208.910156 251.429688 Z M 153.191406 387.757813 L 154.59375 387.875 L 156.347656 388.304688 L 157.886719 389.25 L 159.058594 390.621094 L 159.757813 392.285156 L 159.910156 394.085938 L 159.5 395.84375 L 158.574219 397.394531 L 157.21875 398.582031 L 155.5625 399.300781 L 153.640625 399.796875 L 151.917969 399.976563 L 150.929688 399.78125 L 152.136719 398.207031 L 153.054688 396.195313 L 154.199219 391.746094 L 153.734375 388.820313 Z M 286.679688 439.636719 L 283.058594 438.976563 L 282.164063 437.605469 L 282.484375 436.070313 L 286.839844 437.054688 L 287.960938 438.832031 Z M 236.835938 466.113281 L 235.136719 465.644531 L 236.523438 463.683594 L 237.195313 464.164063 L 237.5 465.839844 Z M 236.835938 466.113281 "/>
<path style=" stroke:none;fill-rule:nonzero;fill:rgb(80.392157%,58.431373%,4.705882%);fill-opacity:1;" d="M 208.382813 281.078125 L 208.101563 282.875 L 207.273438 284.496094 L 205.988281 285.78125 L 204.367188 286.609375 L 202.570313 286.890625 L 200.773438 286.609375 L 199.152344 285.78125 L 197.863281 284.496094 L 197.039063 282.875 L 196.753906 281.078125 L 197.039063 279.28125 L 197.863281 277.660156 L 199.152344 276.371094 L 200.773438 275.546875 L 202.570313 275.261719 L 204.367188 275.546875 L 205.988281 276.371094 L 207.273438 277.660156 L 208.101563 279.28125 Z M 208.382813 281.078125 "/>
<path style=" stroke:none;fill-rule:nonzero;fill:rgb(80.392157%,58.431373%,4.705882%);fill-opacity:1;" d="M 212.261719 281.078125 L 211.976563 282.875 L 211.152344 284.496094 L 209.863281 285.78125 L 208.242188 286.609375 L 206.445313 286.890625 L 204.648438 286.609375 L 203.027344 285.78125 L 201.742188 284.496094 L 200.914063 282.875 L 200.628906 281.078125 L 200.914063 279.28125 L 201.742188 277.660156 L 203.027344 276.371094 L 204.648438 275.546875 L 206.445313 275.261719 L 208.242188 275.546875 L 209.863281 276.371094 L 211.152344 277.660156 L 211.976563 279.28125 Z M 212.261719 281.078125 "/>
<path style=" stroke:none;fill-rule:nonzero;fill:rgb(80.392157%,58.431373%,4.705882%);fill-opacity:1;" d="M 192.875 354.738281 L 192.59375 356.535156 L 191.765625 358.15625 L 190.480469 359.441406 L 188.859375 360.269531 L 187.0625 360.554688 L 185.265625 360.269531 L 183.644531 359.441406 L 182.355469 358.15625 L 181.53125 356.535156 L 181.246094 354.738281 L 181.53125 352.941406 L 181.566406 352.871094 L 181.914063 353.875 L 182.898438 354.332031 L 184.078125 356.789063 L 185.613281 357.902344 L 188.359375 357.621094 L 190.335938 355.148438 L 189.90625 355.050781 L 188.667969 355.527344 L 188.3125 355.957031 L 186.378906 356.386719 L 183.8125 354.640625 L 182.316406 351.402344 L 182.355469 351.320313 L 183.644531 350.035156 L 185.265625 349.207031 L 187.0625 348.921875 L 188.859375 349.207031 L 190.480469 350.035156 L 191.765625 351.320313 L 192.59375 352.941406 Z M 192.875 354.738281 "/>
<path style=" stroke:none;fill-rule:nonzero;fill:rgb(80.392157%,58.431373%,4.705882%);fill-opacity:1;" d="M 230.6875 299.707031 L 230.535156 300.003906 L 229.25 301.289063 L 227.628906 302.117188 L 225.832031 302.398438 L 224.035156 302.117188 L 222.414063 301.289063 L 221.125 300.003906 L 220.300781 298.382813 L 220.015625 296.585938 L 220.300781 294.789063 L 221.125 293.167969 L 222.414063 291.878906 L 224.035156 291.054688 L 225.160156 290.875 L 225.945313 294.183594 L 229.304688 299.0625 Z M 230.6875 299.707031 "/>
<path style=" stroke:none;fill-rule:nonzero;fill:rgb(80.392157%,58.431373%,4.705882%);fill-opacity:1;" d="M 154.109375 482.675781 L 153.824219 484.472656 L 153.117188 485.855469 L 152.417969 486.300781 L 151.738281 486.164063 L 148.46875 482.535156 L 142.796875 482.960938 L 142.535156 483.046875 L 142.476563 482.675781 L 142.761719 480.878906 L 143.585938 479.257813 L 144.875 477.972656 L 146.496094 477.144531 L 148.292969 476.863281 L 150.089844 477.144531 L 151.710938 477.972656 L 152.996094 479.257813 L 153.824219 480.878906 Z M 154.109375 482.675781 "/>
<path style=" stroke:none;fill-rule:nonzero;fill:rgb(80.392157%,58.431373%,4.705882%);fill-opacity:1;" d="M 154.882813 359.800781 L 153.964844 360.269531 L 152.167969 360.554688 L 151.714844 360.480469 L 153.09375 359.609375 Z M 151.550781 360.457031 L 150.371094 360.269531 L 148.75 359.441406 L 147.464844 358.15625 L 146.636719 356.535156 L 146.355469 354.738281 L 146.636719 352.941406 L 147.433594 351.378906 L 149.566406 352.007813 L 151.039063 355.578125 L 155.546875 356.503906 L 154.066406 358.859375 Z M 151.550781 360.457031 "/>
<path style=" stroke:none;fill-rule:nonzero;fill:rgb(80.392157%,58.431373%,4.705882%);fill-opacity:1;" d="M 119.214844 486.554688 L 118.929688 488.351563 L 118.105469 489.972656 L 116.816406 491.257813 L 115.195313 492.085938 L 113.398438 492.371094 L 112.671875 492.253906 L 112.253906 492.070313 L 111.410156 491.984375 L 111.40625 491.984375 L 109.980469 491.257813 L 108.695313 489.972656 L 108.460938 489.515625 L 111.738281 488.078125 L 112.199219 488.253906 L 112.445313 488.9375 L 113.574219 489.15625 L 118.144531 485.910156 L 118.996094 485.175781 Z M 119.214844 486.554688 "/>
<path style=" stroke:none;fill-rule:nonzero;fill:rgb(80.392157%,58.431373%,4.705882%);fill-opacity:1;" d="M 139.320313 318.101563 L 140.539063 317.90625 L 142.335938 318.191406 L 143.957031 319.019531 L 145.242188 320.304688 L 145.378906 320.574219 L 145.3125 320.636719 L 141.859375 323.019531 L 139.824219 322.464844 L 137.933594 323.433594 L 137.675781 322.921875 Z M 139.320313 318.101563 "/>
<path style=" stroke:none;fill-rule:nonzero;fill:rgb(80.392157%,58.431373%,4.705882%);fill-opacity:1;" d="M 189.417969 232.734375 L 189.285156 232.472656 L 189 230.675781 L 189.285156 228.878906 L 190.109375 227.257813 L 190.667969 226.703125 L 190.898438 226.824219 L 192.988281 227.191406 L 194.445313 228.726563 L 194.429688 229.304688 L 192.117188 231.570313 L 189.460938 232.730469 Z M 189.417969 232.734375 "/>
<path style=" stroke:none;fill-rule:nonzero;fill:rgb(80.392157%,58.431373%,4.705882%);fill-opacity:1;" d="M 126.96875 416.769531 L 126.683594 418.566406 L 125.859375 420.1875 L 125.375 420.671875 L 124.929688 417.953125 L 123.328125 417.210938 L 121.445313 417.105469 L 122.0625 415.152344 L 125.882813 413.402344 L 126.683594 414.972656 Z M 126.96875 416.769531 "/>
</g>
</svg>
