<?xml version="1.0" encoding="UTF-8"?>
<svg xmlns="http://www.w3.org/2000/svg" xmlns:xlink="http://www.w3.org/1999/xlink" width="378pt" height="504pt" viewBox="0 0 378 504" version="1.1">
<g id="data">
<rect x="0" y="0" width="378" height="504" style="fill:rgb(100%,100%,100%);fill-opacity:1;stroke:none;"/>
<path style=" stroke:none;fill-rule:nonzero;fill:rgb(100%,100%,100%);fill-opacity:1;" d="M 53.308594 504 L 324.691406 504 L 324.691406 0 L 53.308594 0 Z M 53.308594 504 "/>
<path style=" stroke:none;fill-rule:nonzero;fill:rgb(22.745098%,53.333333%,16.078431%);fill-opacity:1;" d="M 252.96875 319.847656 L 254.675781 322.015625 L 255.503906 322.667969 L 254.738281 323.09375 L 253.890625 324.554688 L 253.765625 325.996094 L 254.984375 329.992188 L 256.042969 332.203125 L 254.277344 333.800781 L 252.507813 336.773438 L 252.167969 338.171875 L 245.550781 339.511719 L 244.589844 338.644531 L 243.40625 338.558594 L 241.898438 339.460938 L 241.339844 339.230469 L 239.0625 336.625 L 236.121094 334.800781 L 233.539063 334.03125 L 230.976563 333.871094 L 228.316406 334.3125 L 225.832031 335.355469 L 222.777344 332.902344 L 220.441406 331.921875 L 218.078125 331.476563 L 216.199219 329.777344 L 213.882813 328.472656 L 210.324219 327.601563 L 208.75 326.128906 L 206.820313 324.910156 L 204.691406 324.097656 L 202.570313 323.722656 L 200.023438 321.992188 L 196.988281 320.964844 L 194.300781 320.773438 L 191.640625 321.203125 L 189.152344 322.234375 L 187.1875 323.632813 L 187.28125 323.421875 L 187.71875 320.933594 L 187.855469 317.484375 L 184.742188 320.527344 L 179.199219 323.441406 L 179.035156 323.375 L 177.601563 321.554688 L 175.914063 320.226563 L 175.429688 319.390625 L 175.429688 315.96875 L 177.503906 312.671875 L 178.375 308.875 L 180.789063 310.925781 L 183.789063 312.3125 L 186.8125 312.890625 L 189.886719 312.65625 L 192.902344 311.566406 L 195.503906 309.691406 L 197.429688 307.289063 L 198.691406 304.339844 L 201.226563 304.652344 L 203.640625 304.433594 L 205.957031 303.714844 L 208.074219 302.535156 L 209.8125 301.035156 L 211.484375 298.9375 L 212.523438 296.886719 L 213.140625 294.671875 L 213.3125 292.378906 L 212.996094 289.972656 L 212.191406 287.683594 L 211.003906 285.714844 L 214.273438 287.878906 L 218.078125 288.832031 L 219.214844 291.40625 L 220.9375 293.632813 L 223.144531 295.382813 L 225.832031 296.585938 L 224.164063 298.53125 L 223.011719 300.675781 L 222.332031 303.015625 L 222.160156 305.574219 L 222.550781 308.105469 L 223.429688 310.378906 L 224.757813 312.417969 L 226.484375 314.132813 L 228.417969 315.394531 L 231.824219 316.898438 L 234.210938 317.402344 L 236.652344 317.398438 L 239.160156 316.84375 L 241.484375 315.753906 L 243.511719 314.179688 L 245.214844 312.09375 L 246.921875 314.261719 L 249.09375 315.96875 L 251.164063 318.488281 Z M 251.945313 339.085938 L 251.691406 340.140625 L 251.929688 343.722656 L 252.660156 345.917969 L 253.734375 347.820313 L 255.148438 349.488281 L 256.847656 350.863281 L 257.445313 353.710938 L 258.804688 356.425781 L 262.253906 360.605469 L 264.601563 362.492188 L 263.28125 365.953125 L 263.105469 369.523438 L 263.425781 370.84375 L 261.394531 373.164063 L 260.601563 374.816406 L 262.84375 374.3125 L 264.9375 375.519531 L 265.789063 376.675781 L 266.28125 377.71875 L 269.183594 380.613281 L 272.90625 382.324219 L 276.476563 382.675781 L 280.109375 381.875 L 282.34375 382.429688 L 284.515625 382.539063 L 287.414063 382.039063 L 290.09375 380.828125 L 292.386719 378.984375 L 294.140625 376.621094 L 294.636719 379.382813 L 295.71875 381.832031 L 297.328125 383.972656 L 299.492188 385.753906 L 299.839844 389.3125 L 301.253906 392.59375 L 303.792969 395.457031 L 305.894531 396.632813 L 305.789063 396.917969 L 305.496094 398.335938 L 303.996094 399.152344 L 301.390625 401.957031 L 299.875 405.332031 L 299.492188 409.015625 L 296.8125 409.175781 L 294.121094 409.996094 L 293.011719 410.65625 L 292.742188 410.515625 L 292.480469 410.636719 L 292.601563 410.902344 L 291.707031 411.4375 L 289.789063 413.316406 L 287.863281 416.769531 L 286.234375 418.542969 L 285.0625 420.5 L 284.515625 422 L 280.71875 424.230469 L 282.339844 425.378906 L 283.832031 424.851563 L 283.449219 426.640625 L 283.332031 429.082031 L 283.691406 431.367188 L 283.984375 432.152344 L 283.441406 432.558594 L 282.84375 432.699219 L 279.644531 432.160156 L 274.75 433.78125 L 272.609375 436.117188 L 274.253906 436.015625 L 275.152344 434.667969 L 276.683594 434.363281 L 278.285156 434.328125 L 281.054688 434.949219 L 281.828125 435.589844 L 281.691406 436.328125 L 279.554688 436.347656 L 277.390625 437.65625 L 277.96875 438.546875 L 281.382813 438.964844 L 286.863281 440.339844 L 289.394531 439.9375 L 290.6875 439.179688 L 292.796875 439.851563 L 295.617188 440.03125 L 297.320313 442.199219 L 299.492188 443.90625 L 299.492188 447.785156 L 297.320313 449.492188 L 296.707031 450.273438 L 295.839844 450.375 L 292.621094 451.640625 L 291.179688 452.742188 L 290.71875 453.257813 L 289.433594 454.066406 L 287.863281 455.539063 L 284.75 453.527344 L 281.164063 452.597656 L 277.34375 452.871094 L 273.925781 454.304688 L 271.214844 456.640625 L 269.34375 459.691406 L 268.390625 463.914063 L 268.460938 466.558594 L 267.304688 466.207031 L 265.644531 464.84375 L 262.226563 463.515625 L 258.847656 463.128906 L 254.34375 463.144531 L 251.589844 463.488281 L 248.046875 464.84375 L 247.730469 465.105469 L 244.628906 465.699219 L 242.703125 466.390625 L 242.113281 466.964844 L 242.105469 467.007813 L 241.023438 466.949219 L 239.960938 467.285156 L 238.210938 466.1875 L 238.632813 465.4375 L 239.46875 464.933594 L 237.714844 463.296875 L 231.496094 463.171875 L 231.378906 463.496094 L 232.574219 464.835938 L 232.214844 465.75 L 231.738281 466.042969 L 226.691406 465.496094 L 219.566406 468.449219 L 217.054688 467.824219 L 210.222656 468.96875 L 208.164063 468.875 L 207.273438 468.058594 L 206.238281 469.769531 L 209.429688 471.089844 L 209.714844 470.9375 L 210.1875 472.128906 L 209.566406 473.890625 L 206.84375 474.453125 L 204.453125 473.097656 L 203.015625 472.699219 L 197.625 472.007813 L 196.175781 472.65625 L 195.679688 473.863281 L 195.78125 474.523438 L 195.257813 474.742188 L 194.851563 473.972656 L 193.84375 473.226563 L 192.726563 471.273438 L 189.585938 468.667969 L 185.992188 467.351563 L 180.933594 467.011719 L 177.925781 467.367188 L 175.515625 468.140625 L 173.328125 469.417969 L 171.554688 471.046875 L 168.332031 472.597656 L 165.578125 475.261719 L 163.800781 478.800781 L 160.921875 478.675781 L 157.195313 479.359375 L 154.464844 480.6875 L 152.167969 482.675781 L 148.597656 482.675781 L 148.46875 482.535156 L 148.164063 482.558594 L 146.71875 481.203125 L 144.789063 479.988281 L 142.660156 479.175781 L 140.539063 478.800781 L 137.558594 476.613281 L 134.046875 475.472656 L 131.496094 475.359375 L 128.980469 475.804688 L 126.625 476.789063 L 125.191406 477.800781 L 124.875 476.421875 L 125.46875 474.945313 L 127.660156 475.066406 L 131.835938 474.546875 L 134.460938 473.511719 L 136.761719 471.871094 L 138.226563 470.253906 L 139.417969 468.273438 L 140.253906 465.84375 L 140.539063 463.292969 L 140.957031 463.136719 L 141.289063 465.542969 L 142.113281 467.832031 L 143.238281 469.691406 L 145.523438 472.464844 L 148.777344 474.957031 L 152.824219 476.175781 L 155.007813 476.210938 L 157.160156 475.839844 L 159.207031 475.070313 L 161.070313 473.933594 L 162.777344 472.371094 L 164.824219 469.730469 L 166.496094 465.867188 L 166.769531 462.554688 L 166.097656 459.296875 L 164.53125 456.367188 L 162.199219 453.996094 L 158.929688 452.253906 L 154.308594 451.261719 L 151.261719 451.207031 L 148.394531 451.925781 L 148.371094 451.597656 L 150.808594 449.589844 L 153.347656 446.488281 L 157.421875 446.269531 L 159.910156 445.683594 L 164.597656 446.761719 L 166.046875 446.148438 L 167.527344 446.515625 L 169.484375 447.285156 L 170.039063 448.109375 L 170.757813 448.421875 L 173.15625 448.464844 L 180.570313 447.503906 L 181.109375 445.632813 L 181.210938 443.15625 L 182.519531 440.25 L 190.867188 432.195313 L 195.792969 425.3125 L 197.929688 424.472656 L 198.285156 423.78125 L 198.070313 423.238281 L 197.8125 423.082031 L 196.09375 424.355469 L 192.90625 427.300781 L 190.570313 429.988281 L 189.222656 431.449219 L 185.628906 432.957031 L 183.714844 433.246094 L 182.441406 433.0625 L 178.394531 435.230469 L 177.398438 436.808594 L 177.039063 438.671875 L 176.445313 439.273438 L 174.058594 439.917969 L 170.558594 439.851563 L 166.820313 439 L 166.347656 438.652344 L 161.371094 433.375 L 159.03125 429.199219 L 155.65625 429.589844 L 152.242188 431.042969 L 151.3125 430.078125 L 148.398438 428.457031 L 148.539063 428.378906 L 150.066406 428.890625 L 151.640625 428.421875 L 152.765625 427.832031 L 153.085938 427.097656 L 152.808594 426.597656 L 147.785156 426.460938 L 143.210938 423.710938 L 139.503906 423.714844 L 136.765625 424.277344 L 136.710938 424.523438 L 136.660156 424.523438 L 135.34375 421.484375 L 133.226563 418.941406 L 135.992188 417.378906 L 138.304688 415.027344 L 139.824219 412.238281 L 140.539063 409.015625 L 142.652344 407.367188 L 141.144531 411.308594 L 141.121094 415.398438 L 142.582031 419.359375 L 145.257813 422.453125 L 148 424.109375 L 151.089844 424.957031 L 153.527344 425.011719 L 159.242188 424.265625 L 161.792969 423.378906 L 164.066406 421.929688 L 165.945313 419.992188 L 167.328125 417.675781 L 168.3125 413.828125 L 168.25 411.390625 L 167.675781 409.015625 L 168.238281 406.71875 L 168.316406 404.234375 L 172.125 403.355469 L 175.429688 401.261719 L 174.070313 403.128906 L 173.101563 405.226563 L 172.570313 407.476563 L 172.496094 409.785156 L 172.875 412.066406 L 173.644531 414.109375 L 176.597656 418.300781 L 179.949219 420.871094 L 183.996094 422.074219 L 187.953125 421.820313 L 192.351563 420.042969 L 195.25 417.953125 L 197.4375 414.964844 L 198.554688 411.570313 L 198.632813 407.859375 L 198.175781 405.59375 L 197.28125 403.460938 L 195.980469 401.550781 L 194.328125 399.933594 L 192.5 398.734375 L 190.484375 397.898438 L 185.042969 397.089844 L 186.78125 394.257813 L 187.632813 391.183594 L 187.675781 388.496094 L 187.0625 385.753906 L 188.199219 383.042969 L 188.617188 380.132813 L 188.453125 377.964844 L 187.882813 375.867188 L 189.316406 377.835938 L 191.125 379.464844 L 193.234375 380.679688 L 195.425781 381.402344 L 197.84375 381.679688 L 200.269531 381.449219 L 202.472656 380.769531 L 204.605469 379.59375 L 208.792969 376.113281 L 212.835938 370.957031 L 213.757813 368.734375 L 214.199219 366.371094 L 216.347656 364.015625 L 217.816406 361.046875 L 218.382813 357.910156 L 218.078125 354.738281 L 220.324219 356.8125 L 223.039063 358.230469 L 226.410156 358.914063 L 229.707031 358.617188 L 231.59375 360.164063 L 233.640625 361.238281 L 235.988281 361.90625 L 238.292969 362.074219 L 241.820313 361.429688 L 244.988281 359.738281 L 247.484375 357.164063 L 249.082031 353.953125 L 249.589844 351.304688 L 249.492188 348.738281 L 248.796875 346.136719 L 247.613281 343.867188 L 245.179688 341.242188 L 243.917969 340.421875 L 246.324219 340.394531 L 249.617188 339.34375 Z M 233.082031 471.28125 L 231.777344 472.40625 L 230.449219 474.019531 L 229.960938 474.269531 L 228.117188 474.644531 L 222.296875 470.886719 L 220.207031 471.1875 L 221.476563 469.683594 L 227.316406 466.367188 L 232.550781 467.761719 L 234.171875 469.894531 Z M 180.769531 231.839844 L 184.027344 233.230469 L 181.046875 235.800781 L 180.578125 237.003906 L 179.667969 237.492188 L 180.527344 235.246094 Z M 191.941406 238.386719 L 192.121094 241.070313 L 193.515625 244.503906 L 195.820313 247.238281 L 198.847656 249.144531 L 203.066406 250.132813 L 206.445313 250.0625 L 204.707031 252.113281 L 203.488281 254.511719 L 202.851563 257.128906 L 202.820313 259.691406 L 203.617188 262.921875 L 205.214844 265.691406 L 207.507813 267.925781 L 210.324219 269.445313 L 208.214844 272.785156 L 207.339844 276.761719 L 207.851563 280.675781 L 209.640625 284.191406 L 206.371094 282.03125 L 202.570313 281.078125 L 203.222656 277.804688 L 202.953125 274.609375 L 201.820313 271.609375 L 199.816406 268.941406 L 197.917969 267.40625 L 195.738281 266.308594 L 193.378906 265.683594 L 190.9375 265.570313 L 191.601563 261.4375 L 190.6875 256.1875 L 189.320313 252.785156 L 187.0625 250.0625 L 186.902344 247.378906 L 186.132813 244.808594 L 184.945313 242.6875 L 184.71875 242.425781 L 186.398438 241.730469 L 187.519531 239.417969 L 188.617188 238.355469 L 189.539063 238.171875 Z M 183.953125 354.738281 L 187.0625 354.738281 L 185.625 355.875 Z M 154.058594 390.847656 L 154.515625 390.203125 L 155.46875 387.179688 L 156.046875 389.628906 L 156.046875 393.507813 L 153.640625 393.917969 L 154.199219 391.746094 Z M 155.222656 382.167969 L 156.046875 381.875 L 155.546875 383.800781 Z M 120.046875 484.273438 L 121.117188 483.625 L 120.625 487.03125 L 121.152344 490.429688 L 121.152344 494.308594 L 118.316406 493.136719 L 115.402344 492.75 L 114.171875 492.90625 L 112.253906 492.070313 L 111.464844 491.988281 L 112.210938 490.804688 L 112.890625 489.023438 L 113.574219 489.15625 L 118.144531 485.910156 Z M 110.253906 494.003906 L 109.523438 494.308594 L 110.296875 493.480469 Z M 286.679688 439.636719 L 283.058594 438.976563 L 282.164063 437.605469 L 282.484375 436.070313 L 286.839844 437.054688 L 287.960938 438.832031 Z M 236.835938 466.113281 L 235.136719 465.644531 L 236.523438 463.683594 L 237.195313 464.164063 L 237.5 465.839844 Z M 236.835938 466.113281 "/>
</g>
</svg>
