<?xml version="1.0" encoding="UTF-8"?>
<svg xmlns="http://www.w3.org/2000/svg" xmlns:xlink="http://www.w3.org/1999/xlink" width="378pt" height="504pt" viewBox="0 0 378 504" version="1.1">
<g id="data">
<rect x="0" y="0" width="378" height="504" style="fill:rgb(100%,100%,100%);fill-opacity:1;stroke:none;"/>
<path style=" stroke:none;fill-rule:nonzero;fill:rgb(100%,100%,100%);fill-opacity:1;" d="M 53.308594 504 L 324.691406 504 L 324.691406 0 L 53.308594 0 Z M 53.308594 504 "/>
<path style=" stroke:none;fill-rule:nonzero;fill:rgb(22.745098%,53.333333%,16.078431%);fill-opacity:1;" d="M 206.445313 412.890625 L 210.128906 412.511719 L 213.503906 410.992188 L 216.230469 408.492188 L 218.078125 405.136719 L 219.085938 407.492188 L 220.585938 409.566406 L 222.503906 411.265625 L 224.746094 412.503906 L 228 413.675781 L 230.667969 414.027344 L 233.472656 413.726563 L 236.234375 412.703125 L 239.378906 410.296875 L 241.585938 406.855469 L 242.277344 404.523438 L 242.46875 402.09375 L 242.152344 399.679688 L 241.339844 397.382813 L 242.8125 395.8125 L 244.027344 393.882813 L 244.808594 391.875 L 245.214844 389.628906 L 246.917969 387.753906 L 248.222656 385.4375 L 249.09375 381.875 L 250.042969 383.839844 L 251.34375 385.585938 L 252.949219 387.0625 L 254.800781 388.214844 L 256.832031 389 L 258.976563 389.390625 L 261.15625 389.375 L 263.292969 388.953125 L 267.050781 387.042969 L 270.625 383.398438 L 271.78125 381.269531 L 272.472656 378.945313 L 272.664063 376.527344 L 272.40625 374.515625 L 272.644531 373.894531 L 274.523438 372.417969 L 276.121094 370.386719 L 276.578125 370.304688 L 280.109375 370.910156 L 283.488281 370.332031 L 284.253906 370.867188 L 286.703125 370.742188 L 287.628906 370.839844 L 286.6875 373.230469 L 286.375 376.421875 L 286.945313 379.574219 L 288.355469 382.453125 L 289.832031 384.234375 L 291.738281 385.753906 L 293.351563 388.800781 L 295.789063 391.242188 L 299.441406 393.058594 L 303.371094 393.507813 L 301.175781 396.121094 L 299.800781 399.386719 L 299.332031 402.886719 L 299.492188 409.015625 L 297.320313 410.722656 L 295.902344 412.53125 L 295.578125 412.011719 L 292.742188 410.515625 L 292.480469 410.636719 L 293.683594 413.242188 L 293.371094 413.300781 L 291.363281 414.082031 L 289.433594 415.296875 L 287.863281 416.769531 L 287.347656 414.128906 L 286.308594 411.789063 L 284.78125 409.734375 L 282.734375 407.992188 L 280.34375 406.761719 L 277.863281 406.132813 L 275.300781 406.0625 L 272.789063 406.554688 L 269.371094 408.285156 L 266.847656 410.269531 L 265.164063 412.207031 L 264.097656 414.113281 L 263.40625 416.183594 L 263.113281 418.347656 L 263.230469 420.53125 L 265.730469 428.710938 L 267.253906 431.078125 L 269.203125 432.929688 L 272.847656 434.777344 L 273.738281 434.882813 L 272.609375 436.117188 L 274.253906 436.015625 L 274.914063 435.027344 L 276.773438 435.253906 L 279.59375 434.621094 L 281.054688 434.949219 L 281.828125 435.589844 L 281.691406 436.328125 L 279.554688 436.347656 L 277.390625 437.65625 L 277.96875 438.546875 L 281.382813 438.964844 L 286.863281 440.339844 L 289.394531 439.9375 L 290.773438 439.128906 L 293.570313 439.964844 L 299.492188 440.03125 L 299.492188 447.785156 L 295.617188 447.785156 L 292.65625 446.582031 L 289.480469 446.230469 L 286.574219 446.683594 L 283.984375 447.785156 L 280.808594 446.792969 L 277.480469 446.746094 L 274.992188 447.351563 L 272.804688 448.421875 L 270.976563 449.832031 L 269.46875 451.578125 L 268.332031 453.585938 L 267.640625 455.652344 L 267.371094 459.09375 L 267.726563 461.246094 L 268.476563 463.292969 L 268.476563 466.5625 L 259.269531 463.777344 L 259.0625 463.761719 L 258.597656 463.570313 L 255.472656 463.144531 L 252.96875 463.292969 L 249.382813 461.949219 L 245.683594 461.828125 L 243.4375 462.34375 L 241.339844 463.292969 L 238.089844 463.648438 L 237.714844 463.296875 L 231.496094 463.171875 L 231.378906 463.496094 L 232.574219 464.835938 L 232.214844 465.75 L 231.738281 466.042969 L 226.691406 465.496094 L 219.566406 468.449219 L 217.054688 467.824219 L 210.222656 468.96875 L 208.164063 468.875 L 207.273438 468.058594 L 206.238281 469.769531 L 209.429688 471.089844 L 209.714844 470.9375 L 209.914063 471.4375 L 209.851563 471.46875 L 207.96875 473.015625 L 206.828125 474.445313 L 205.976563 473.960938 L 204.820313 471.59375 L 202.332031 469.023438 L 198.691406 467.167969 L 197.121094 465.695313 L 195.191406 464.480469 L 193.058594 463.667969 L 190.9375 463.292969 L 190.546875 459.574219 L 193.039063 460.152344 L 195.59375 460.171875 L 200.691406 459.074219 L 202.714844 458.335938 L 204.972656 456.933594 L 207.347656 454.648438 L 208.707031 452.816406 L 209.722656 450.632813 L 210.515625 446.78125 L 210.621094 444.484375 L 210.175781 441.84375 L 209.136719 439.375 L 205.085938 434.347656 L 202.570313 432.277344 L 201.460938 429.976563 L 199.96875 428.0625 L 197.898438 426.359375 L 195.785156 425.320313 L 195.792969 425.3125 L 196.566406 425.007813 L 197.777344 424.816406 L 199.949219 424.011719 L 201.8125 422.871094 L 203.515625 421.304688 L 204.8125 419.542969 L 205.796875 417.449219 L 206.347656 415.203125 Z M 236.917969 463.96875 L 236.066406 464.328125 L 236.523438 463.683594 Z M 231.695313 467.53125 L 229.707031 471.046875 L 222.542969 471.046875 L 222.296875 470.886719 L 221.730469 470.96875 L 220.699219 470.601563 L 221.476563 469.683594 L 227.316406 466.367188 Z M 241.339844 343.109375 L 243.691406 345.253906 L 246.664063 346.722656 L 249.796875 347.289063 L 252.96875 346.984375 L 250.472656 347.988281 L 248.273438 349.535156 L 246.488281 351.550781 L 245.214844 353.917969 L 243.941406 351.550781 L 242.15625 349.535156 L 239.957031 347.988281 L 237.460938 346.984375 L 239.632813 345.277344 Z M 245.214844 370.246094 L 245.792969 367.804688 L 245.839844 365.417969 L 247.125 367.988281 L 249.09375 370.246094 L 247.847656 373.371094 Z M 175.839844 448.117188 L 178.320313 450.140625 L 174.882813 450.371094 L 171.554688 451.660156 L 173.722656 449.953125 L 175.089844 448.214844 Z M 125.476563 474.921875 L 128.90625 474.921875 L 128.90625 478.800781 L 126.480469 481.582031 L 125.078125 484.859375 L 124.714844 487.644531 L 125.015625 490.285156 L 124.828125 490.34375 L 122.320313 489.292969 L 119.28125 488.871094 L 116.234375 489.261719 L 113.398438 490.429688 L 113.398438 489.125 L 113.574219 489.15625 L 118.144531 485.910156 L 121.425781 483.085938 L 124.375 479.769531 L 125.210938 477.886719 L 124.875 476.421875 Z M 286.679688 439.636719 L 283.058594 438.976563 L 282.164063 437.605469 L 282.484375 436.070313 L 286.839844 437.054688 L 287.960938 438.832031 Z M 286.679688 439.636719 "/>
<path style=" stroke:none;fill-rule:nonzero;fill:rgb(80.392157%,58.431373%,4.705882%);fill-opacity:1;" d="M 192.875 393.507813 L 192.59375 395.304688 L 191.765625 396.925781 L 190.480469 398.210938 L 188.859375 399.039063 L 187.0625 399.324219 L 185.265625 399.039063 L 183.644531 398.210938 L 182.355469 396.925781 L 181.53125 395.304688 L 181.246094 393.507813 L 181.53125 391.710938 L 182.355469 390.089844 L 183.644531 388.804688 L 185.265625 387.976563 L 187.0625 387.691406 L 188.859375 387.976563 L 190.480469 388.804688 L 191.765625 390.089844 L 192.59375 391.710938 Z M 192.875 393.507813 "/>
<path style=" stroke:none;fill-rule:nonzero;fill:rgb(80.392157%,58.431373%,4.705882%);fill-opacity:1;" d="M 220.015625 358.617188 L 219.730469 360.414063 L 218.90625 362.035156 L 217.617188 363.320313 L 215.996094 364.144531 L 214.199219 364.429688 L 212.402344 364.144531 L 210.78125 363.320313 L 209.496094 362.035156 L 208.667969 360.414063 L 208.382813 358.617188 L 208.667969 356.816406 L 209.496094 355.195313 L 210.78125 353.910156 L 212.402344 353.085938 L 214.199219 352.800781 L 215.996094 353.085938 L 217.617188 353.910156 L 218.90625 355.195313 L 219.730469 356.816406 Z M 220.015625 358.617188 "/>
<path style=" stroke:none;fill-rule:nonzero;fill:rgb(80.392157%,58.431373%,4.705882%);fill-opacity:1;" d="M 216.136719 374.125 L 215.855469 375.921875 L 215.027344 377.542969 L 213.742188 378.828125 L 212.121094 379.652344 L 210.324219 379.9375 L 208.527344 379.652344 L 206.90625 378.828125 L 205.617188 377.542969 L 204.792969 375.921875 L 204.507813 374.125 L 204.792969 372.324219 L 205.617188 370.703125 L 206.90625 369.417969 L 208.527344 368.59375 L 210.324219 368.308594 L 212.121094 368.59375 L 213.742188 369.417969 L 215.027344 370.703125 L 215.855469 372.324219 Z M 216.136719 374.125 "/>
<path style=" stroke:none;fill-rule:nonzero;fill:rgb(80.392157%,58.431373%,4.705882%);fill-opacity:1;" d="M 220.015625 385.753906 L 219.730469 387.550781 L 218.90625 389.171875 L 217.617188 390.457031 L 215.996094 391.285156 L 214.199219 391.570313 L 212.402344 391.285156 L 210.78125 390.457031 L 209.496094 389.171875 L 208.667969 387.550781 L 208.382813 385.753906 L 208.667969 383.957031 L 209.496094 382.335938 L 210.78125 381.050781 L 212.402344 380.222656 L 214.199219 379.9375 L 215.996094 380.222656 L 217.617188 381.050781 L 218.90625 382.335938 L 219.730469 383.957031 Z M 220.015625 385.753906 "/>
<path style=" stroke:none;fill-rule:nonzero;fill:rgb(80.392157%,58.431373%,4.705882%);fill-opacity:1;" d="M 216.136719 331.476563 L 215.855469 333.273438 L 215.027344 334.894531 L 213.742188 336.183594 L 212.121094 337.007813 L 210.324219 337.292969 L 208.527344 337.007813 L 206.90625 336.183594 L 205.617188 334.894531 L 204.792969 333.273438 L 204.507813 331.476563 L 204.792969 329.679688 L 205.617188 328.058594 L 206.90625 326.773438 L 208.527344 325.945313 L 210.324219 325.660156 L 212.121094 325.945313 L 213.742188 326.773438 L 215.027344 328.058594 L 215.855469 329.679688 Z M 216.136719 331.476563 "/>
<path style=" stroke:none;fill-rule:nonzero;fill:rgb(80.392157%,58.431373%,4.705882%);fill-opacity:1;" d="M 189 389.628906 L 188.714844 391.429688 L 187.890625 393.050781 L 186.601563 394.335938 L 184.980469 395.160156 L 183.183594 395.445313 L 181.386719 395.160156 L 179.765625 394.335938 L 178.480469 393.050781 L 177.652344 391.429688 L 177.371094 389.628906 L 177.652344 387.832031 L 178.480469 386.210938 L 179.765625 384.925781 L 181.386719 384.101563 L 183.183594 383.816406 L 184.980469 384.101563 L 186.601563 384.925781 L 187.890625 386.210938 L 188.714844 387.832031 Z M 189 389.628906 "/>
<path style=" stroke:none;fill-rule:nonzero;fill:rgb(80.392157%,58.431373%,4.705882%);fill-opacity:1;" d="M 196.753906 211.292969 L 196.46875 213.089844 L 195.644531 214.710938 L 194.355469 215.996094 L 192.734375 216.824219 L 190.9375 217.109375 L 189.140625 216.824219 L 187.519531 215.996094 L 186.234375 214.710938 L 185.40625 213.089844 L 185.125 211.292969 L 185.40625 209.496094 L 186.234375 207.875 L 187.519531 206.585938 L 189.140625 205.761719 L 190.9375 205.476563 L 192.734375 205.761719 L 194.355469 206.585938 L 195.644531 207.875 L 196.46875 209.496094 Z M 196.753906 211.292969 "/>
<path style=" stroke:none;fill-rule:nonzero;fill:rgb(80.392157%,58.431373%,4.705882%);fill-opacity:1;" d="M 181.246094 432.277344 L 181 433.835938 L 178.394531 435.230469 L 177.398438 436.808594 L 177.207031 437.8125 L 175.429688 438.09375 L 173.632813 437.808594 L 172.011719 436.980469 L 170.726563 435.695313 L 169.898438 434.074219 L 169.617188 432.277344 L 169.898438 430.480469 L 170.726563 428.859375 L 172.011719 427.570313 L 173.632813 426.746094 L 175.429688 426.460938 L 177.226563 426.746094 L 178.847656 427.570313 L 180.136719 428.859375 L 180.960938 430.480469 Z M 181.246094 432.277344 "/>
<path style=" stroke:none;fill-rule:nonzero;fill:rgb(80.392157%,58.431373%,4.705882%);fill-opacity:1;" d="M 231.644531 300.460938 L 231.363281 302.257813 L 230.535156 303.878906 L 229.25 305.167969 L 227.628906 305.992188 L 225.832031 306.277344 L 224.035156 305.992188 L 222.414063 305.167969 L 221.125 303.878906 L 220.300781 302.257813 L 220.015625 300.460938 L 220.300781 298.664063 L 221.125 297.042969 L 222.414063 295.757813 L 224.035156 294.929688 L 225.832031 294.644531 L 226.316406 294.722656 L 229.304688 299.0625 L 231.59375 300.128906 Z M 231.644531 300.460938 "/>
<path style=" stroke:none;fill-rule:nonzero;fill:rgb(80.392157%,58.431373%,4.705882%);fill-opacity:1;" d="M 189 354.738281 L 188.886719 355.441406 L 188.3125 355.957031 L 186.378906 356.386719 L 183.8125 354.640625 L 181.320313 349.242188 L 183.183594 348.921875 L 184.980469 349.207031 L 186.601563 350.035156 L 187.890625 351.320313 L 188.714844 352.941406 Z M 179.957031 359.347656 L 180.433594 358.429688 L 177.679688 353.460938 L 178.242188 352.835938 L 180.867188 352.449219 L 181.503906 352.695313 L 181.914063 353.875 L 182.898438 354.332031 L 184.078125 356.789063 L 185.613281 357.902344 L 188.152344 357.640625 L 186.601563 359.441406 L 184.980469 360.269531 L 183.183594 360.554688 L 181.386719 360.269531 Z M 179.957031 359.347656 "/>
<path style=" stroke:none;fill-rule:nonzero;fill:rgb(80.392157%,58.431373%,4.705882%);fill-opacity:1;" d="M 169.667969 238.101563 L 169.898438 236.632813 L 170.726563 235.011719 L 172.011719 233.726563 L 173.632813 232.898438 L 175.429688 232.617188 L 177.226563 232.898438 L 178.847656 233.726563 L 180.136719 235.011719 L 180.824219 236.367188 L 180.578125 237.003906 L 174.761719 240.109375 Z M 179.679688 242.304688 L 178.847656 243.136719 L 177.226563 243.960938 L 175.429688 244.246094 L 173.632813 243.960938 L 172.011719 243.136719 L 170.726563 241.847656 L 170.039063 240.5 Z M 179.679688 242.304688 "/>
<path style=" stroke:none;fill-rule:nonzero;fill:rgb(80.392157%,58.431373%,4.705882%);fill-opacity:1;" d="M 143.792969 321.6875 L 142.617188 321.5 L 140.996094 320.675781 L 139.710938 319.386719 L 139.214844 318.414063 L 139.816406 316.644531 L 142.300781 315.023438 L 144.789063 310.214844 L 146.210938 310.4375 L 147.832031 311.265625 L 149.121094 312.550781 L 149.894531 314.070313 L 147.847656 318.148438 L 145.3125 320.636719 Z M 143.792969 321.6875 "/>
<path style=" stroke:none;fill-rule:nonzero;fill:rgb(80.392157%,58.431373%,4.705882%);fill-opacity:1;" d="M 185.125 242.308594 L 184.839844 244.105469 L 184.011719 245.726563 L 182.726563 247.011719 L 181.105469 247.839844 L 179.308594 248.125 L 177.511719 247.839844 L 175.890625 247.011719 L 174.601563 245.726563 L 173.777344 244.105469 L 173.492188 242.308594 L 173.679688 241.125 L 178.0625 241.875 L 182.921875 243.167969 Z M 174.125 239.832031 L 174.601563 238.890625 L 175.890625 237.601563 L 177.511719 236.777344 L 179.308594 236.492188 L 180.691406 236.710938 L 180.578125 237.003906 L 174.761719 240.109375 Z M 174.125 239.832031 "/>
<path style=" stroke:none;fill-rule:nonzero;fill:rgb(80.392157%,58.431373%,4.705882%);fill-opacity:1;" d="M 154.109375 451.660156 L 153.824219 453.457031 L 152.996094 455.078125 L 151.710938 456.367188 L 150.089844 457.191406 L 148.292969 457.476563 L 146.496094 457.191406 L 144.453125 455.945313 L 145.761719 455.429688 L 148.429688 452.488281 L 148.105469 447.519531 L 151.058594 446.625 L 151.710938 446.957031 L 152.996094 448.242188 L 153.824219 449.863281 Z M 154.109375 451.660156 "/>
<path style=" stroke:none;fill-rule:nonzero;fill:rgb(80.392157%,58.431373%,4.705882%);fill-opacity:1;" d="M 139.320313 318.101563 L 140.539063 317.90625 L 142.335938 318.191406 L 143.957031 319.019531 L 145.378906 320.574219 L 141.859375 323.019531 L 139.824219 322.464844 L 137.933594 323.433594 L 137.675781 322.921875 Z M 139.320313 318.101563 "/>
<path style=" stroke:none;fill-rule:nonzero;fill:rgb(80.392157%,58.431373%,4.705882%);fill-opacity:1;" d="M 149.589844 310.710938 L 149.121094 311.632813 L 147.832031 312.921875 L 146.210938 313.746094 L 144.414063 314.03125 L 142.933594 313.796875 L 144.765625 310.230469 L 145.863281 309.40625 L 149.046875 308.269531 Z M 149.589844 310.710938 "/>
<path style=" stroke:none;fill-rule:nonzero;fill:rgb(80.392157%,58.431373%,4.705882%);fill-opacity:1;" d="M 126.96875 416.769531 L 126.683594 418.566406 L 125.375 420.671875 L 124.929688 417.953125 L 123.328125 417.210938 L 121.445313 417.105469 L 122.0625 415.152344 L 125.882813 413.402344 L 126.683594 414.972656 Z M 126.96875 416.769531 "/>
</g>
</svg>
