<?xml version="1.0" encoding="UTF-8"?>
<svg xmlns="http://www.w3.org/2000/svg" xmlns:xlink="http://www.w3.org/1999/xlink" width="378pt" height="504pt" viewBox="0 0 378 504" version="1.1">
<g id="data">
<rect x="0" y="0" width="378" height="504" style="fill:rgb(100%,100%,100%);fill-opacity:1;stroke:none;"/>
<path style=" stroke:none;fill-rule:nonzero;fill:rgb(100%,100%,100%);fill-opacity:1;" d="M 53.308594 504 L 324.691406 504 L 324.691406 0 L 53.308594 0 Z M 53.308594 504 "/>
<path style=" stroke:none;fill-rule:nonzero;fill:rgb(22.745098%,53.333333%,16.078431%);fill-opacity:1;" d="M 243.292969 343.539063 L 243.460938 341.65625 L 244.003906 340.421875 L 246.324219 340.394531 L 249.617188 339.34375 L 251.976563 339.082031 L 254.382813 342.558594 L 260.535156 347.621094 L 263.042969 349.058594 L 263.664063 349.039063 L 266.046875 352.214844 L 268.980469 359.304688 L 269.535156 362.402344 L 269.210938 365.21875 L 264.953125 369.09375 L 261.394531 373.164063 L 260.601563 374.816406 L 262.84375 374.3125 L 264.9375 375.519531 L 266.9375 378.226563 L 270.21875 378.804688 L 270.625 378.746094 L 271.910156 376.796875 L 272.234375 374.960938 L 273.40625 371.914063 L 274.707031 370.632813 L 277.851563 370.085938 L 283.34375 370.234375 L 284.253906 370.867188 L 286.703125 370.742188 L 293.949219 371.515625 L 296.914063 372.84375 L 304.070313 378.085938 L 305.367188 380.105469 L 306.730469 384.164063 L 307.179688 391.25 L 306.777344 393.191406 L 306.890625 393.976563 L 305.789063 396.917969 L 303.519531 407.832031 L 297.144531 414.53125 L 295.578125 412.011719 L 292.742188 410.515625 L 292.480469 410.636719 L 293.898438 413.703125 L 295.890625 416.628906 L 296.3125 416.765625 L 296.164063 417.742188 L 294.574219 419.804688 L 292.191406 421.289063 L 290.003906 421.65625 L 289.660156 421.574219 L 288.214844 419.332031 L 284.976563 421.730469 L 280.71875 424.230469 L 282.339844 425.378906 L 285.105469 424.398438 L 286.097656 423.375 L 286.894531 423.164063 L 287.328125 423.710938 L 287.632813 428.84375 L 285.6875 430.875 L 283.441406 432.558594 L 282.84375 432.699219 L 279.644531 432.160156 L 274.75 433.78125 L 272.609375 436.117188 L 274.253906 436.015625 L 275.152344 434.667969 L 276.683594 434.363281 L 278.285156 434.328125 L 281.054688 434.949219 L 281.828125 435.589844 L 281.691406 436.328125 L 279.554688 436.347656 L 277.390625 437.65625 L 277.96875 438.546875 L 281.382813 438.964844 L 286.863281 440.339844 L 289.394531 439.9375 L 291.074219 438.957031 L 299.742188 437.757813 L 300.988281 440.148438 L 300.773438 446.324219 L 300.335938 447.820313 L 299.394531 449.050781 L 296.972656 450.242188 L 295.839844 450.375 L 292.621094 451.640625 L 291.179688 452.742188 L 289.847656 454.226563 L 289.460938 455.09375 L 289.214844 456.324219 L 289.464844 457.886719 L 286.253906 458.289063 L 284.1875 457.9375 L 281.042969 460.90625 L 278.484375 461.933594 L 274.789063 462.777344 L 272.597656 463.816406 L 270.539063 466.589844 L 269.761719 466.949219 L 259.269531 463.777344 L 256.070313 463.507813 L 244.628906 465.699219 L 242.703125 466.390625 L 242.113281 466.964844 L 241.902344 467.984375 L 241.359375 468.164063 L 238.210938 466.1875 L 238.632813 465.4375 L 239.46875 464.933594 L 237.714844 463.296875 L 231.496094 463.171875 L 231.378906 463.496094 L 232.574219 464.835938 L 232.214844 465.75 L 231.738281 466.042969 L 226.691406 465.496094 L 219.566406 468.449219 L 217.054688 467.824219 L 210.222656 468.96875 L 208.164063 468.875 L 207.273438 468.058594 L 206.238281 469.769531 L 209.429688 471.089844 L 209.714844 470.9375 L 210.1875 472.128906 L 209.566406 473.890625 L 206.84375 474.453125 L 204.453125 473.097656 L 203.015625 472.699219 L 197.625 472.007813 L 196.175781 472.65625 L 195.679688 473.863281 L 195.832031 474.871094 L 196.757813 475.523438 L 196.488281 476.304688 L 195.917969 475.996094 L 194.851563 473.972656 L 190.289063 470.589844 L 185.898438 468.519531 L 183.121094 467.984375 L 181.648438 469.066406 L 176.207031 469.78125 L 174.339844 470.335938 L 168.992188 473.234375 L 168.214844 474.070313 L 167.203125 476.179688 L 162.886719 488.804688 L 162.175781 489.085938 L 161.1875 489.707031 L 160.671875 490.191406 L 158.269531 489.722656 L 157.554688 489.058594 L 156.527344 486.851563 L 154.683594 485.4375 L 153.613281 485.542969 L 152.417969 486.300781 L 151.738281 486.164063 L 148.46875 482.535156 L 142.796875 482.960938 L 141.527344 483.375 L 140.734375 484.175781 L 139.910156 484.507813 L 134.507813 484.320313 L 132.167969 484.859375 L 129.414063 488.195313 L 126.714844 489.746094 L 124.039063 490.597656 L 123.132813 494.289063 L 123.664063 495.292969 L 123.496094 496.125 L 122.722656 496.945313 L 120.660156 497.648438 L 119.628906 499.730469 L 118.675781 498.910156 L 117.96875 497.691406 L 118.09375 496.4375 L 117.15625 494.691406 L 115.984375 493.691406 L 112.253906 492.070313 L 111.410156 491.984375 L 110.945313 492.210938 L 110.914063 492.050781 L 110.824219 490.496094 L 110.984375 488.40625 L 111.738281 488.078125 L 112.199219 488.253906 L 112.445313 488.9375 L 113.574219 489.15625 L 118.144531 485.910156 L 121.425781 483.085938 L 124.375 479.769531 L 125.210938 477.886719 L 124.875 476.421875 L 125.640625 474.519531 L 128.386719 473.238281 L 132.105469 472.640625 L 132.679688 471.785156 L 133.257813 469.527344 L 135.859375 467.5625 L 138.636719 464.640625 L 139.128906 458.542969 L 139.410156 456.941406 L 140.867188 456.195313 L 141.941406 455.109375 L 141.976563 455.039063 L 142.492188 455.105469 L 144.269531 456.015625 L 145.761719 455.429688 L 148.429688 452.488281 L 148.109375 447.601563 L 148.246094 447.476563 L 151.105469 446.613281 L 157.421875 446.269531 L 159.910156 445.683594 L 164.597656 446.761719 L 166.046875 446.148438 L 167.527344 446.515625 L 169.484375 447.285156 L 170.039063 448.109375 L 170.757813 448.421875 L 173.15625 448.464844 L 180.570313 447.503906 L 181.109375 445.632813 L 181.210938 443.15625 L 182.519531 440.25 L 190.867188 432.195313 L 195.792969 425.3125 L 197.929688 424.472656 L 198.285156 423.78125 L 198.070313 423.238281 L 197.8125 423.082031 L 196.09375 424.355469 L 192.90625 427.300781 L 190.570313 429.988281 L 189.222656 431.449219 L 185.628906 432.957031 L 183.714844 433.246094 L 182.441406 433.0625 L 178.394531 435.230469 L 177.398438 436.808594 L 177.039063 438.671875 L 176.445313 439.273438 L 174.058594 439.917969 L 170.558594 439.851563 L 166.820313 439 L 166.347656 438.652344 L 165.613281 437.875 L 165.75 435.777344 L 166.191406 433.902344 L 167.222656 432.273438 L 168.726563 431.070313 L 170.542969 430.425781 L 172.117188 430.148438 L 173.191406 429.738281 L 174.167969 429.125 L 175.332031 428.03125 L 176.980469 426.945313 L 178.902344 426.476563 L 181.109375 426.320313 L 182.453125 425.878906 L 183.496094 425.242188 L 184.492188 424.261719 L 185.105469 423.328125 L 185.628906 422.054688 L 185.871094 420.949219 L 185.902344 419.863281 L 185.734375 418.808594 L 185.335938 417.714844 L 184.726563 416.722656 L 183.632813 415.535156 L 182.640625 414.046875 L 182.144531 412.328125 L 182.195313 410.542969 L 182.785156 408.855469 L 183.863281 407.425781 L 185.320313 406.390625 L 187.027344 405.851563 L 188.8125 405.851563 L 190.714844 406.152344 L 191.988281 406.066406 L 193.214844 405.703125 L 194.328125 405.082031 L 195.28125 404.230469 L 196.03125 403.175781 L 196.496094 402.085938 L 196.855469 400.179688 L 197.40625 398.589844 L 198.386719 397.21875 L 199.722656 396.191406 L 201.296875 395.585938 L 202.976563 395.460938 L 204.796875 395.589844 L 208.265625 395.3125 L 209.464844 394.933594 L 210.527344 394.3125 L 211.617188 393.261719 L 212.390625 392 L 212.792969 390.691406 L 212.90625 388.46875 L 213.304688 386.628906 L 214.273438 385.015625 L 215.703125 383.792969 L 217.449219 383.089844 L 219.328125 382.980469 L 221.140625 383.480469 L 222.703125 384.53125 L 223.84375 386.027344 L 225.058594 388.300781 L 226.269531 389.503906 L 227.792969 390.304688 L 229.4375 390.625 L 230.859375 390.515625 L 232.105469 390.09375 L 234.226563 388.675781 L 234.996094 388.242188 L 237.246094 387.1875 L 238.515625 386.0625 L 239.296875 384.859375 L 239.875 383.171875 L 240.015625 381.671875 L 239.800781 380.265625 L 239.136719 378.589844 L 238.273438 377.410156 L 237.160156 376.496094 L 235.054688 375.539063 L 233.554688 374.554688 L 232.425781 373.15625 L 231.78125 371.484375 L 231.671875 369.695313 L 232.117188 367.957031 L 233.070313 366.433594 L 234.558594 364.71875 L 235.203125 363.390625 L 235.625 361.089844 L 235.527344 358.867188 L 235.71875 357.121094 L 236.421875 355.511719 L 237.574219 354.183594 L 239.984375 352.136719 L 242.359375 349.339844 L 243.023438 348.183594 L 243.496094 346.289063 Z M 245.03125 339.042969 L 245.496094 338.535156 L 247.121094 337.257813 L 248.398438 335.636719 L 249.949219 334.261719 L 251.882813 333.519531 L 253.953125 333.5 L 256.847656 333.996094 L 257.21875 333.933594 L 263.316406 342.46875 L 263.640625 343.980469 L 262.804688 345.191406 L 263.28125 343.65625 L 262.507813 342.839844 L 260.445313 342 L 258.378906 342.789063 L 257.507813 342.753906 L 256.035156 341.773438 L 253.664063 338.65625 L 252.601563 338.082031 L 245.550781 339.511719 Z M 127.957031 411.78125 L 128.207031 411.898438 L 129.460938 413.003906 L 130.351563 414.421875 L 131.203125 416.347656 L 132.046875 417.4375 L 133.222656 418.359375 L 135.132813 419.203125 L 136.613281 420.144531 L 137.746094 421.488281 L 138.425781 423.105469 L 138.503906 423.921875 L 136.765625 424.277344 L 136.292969 426.515625 L 135.777344 427.203125 L 133.742188 427.917969 L 132.394531 427.265625 L 131.648438 427.453125 L 129.4375 429.378906 L 126.53125 428.132813 L 127.425781 426.082031 L 128.796875 425.832031 L 131.792969 424.328125 L 131.226563 422.867188 L 130.640625 424.257813 L 127.769531 424.613281 L 122.949219 424.152344 L 121.496094 423.164063 L 124.125 421.78125 L 125.167969 421.753906 L 125.464844 421.238281 L 124.929688 417.953125 L 123.328125 417.210938 L 121.445313 417.105469 L 122.0625 415.152344 L 125.933594 413.378906 L 126.539063 411.90625 Z M 286.679688 439.636719 L 283.058594 438.976563 L 282.164063 437.605469 L 282.484375 436.070313 L 286.839844 437.054688 L 287.960938 438.832031 Z M 236.835938 466.113281 L 235.136719 465.644531 L 236.523438 463.683594 L 237.195313 464.164063 L 237.5 465.839844 Z M 228.117188 474.644531 L 222.296875 470.886719 L 220.207031 471.1875 L 221.476563 469.683594 L 227.316406 466.367188 L 232.550781 467.761719 L 234.171875 469.894531 L 231.242188 473.621094 L 229.960938 474.269531 Z M 228.117188 474.644531 "/>
<path style=" stroke:none;fill-rule:nonzero;fill:rgb(80.392157%,58.431373%,4.705882%);fill-opacity:1;" d="M 192.875 381.875 L 192.59375 383.675781 L 191.765625 385.296875 L 190.480469 386.582031 L 188.859375 387.40625 L 187.0625 387.691406 L 185.265625 387.40625 L 183.644531 386.582031 L 182.355469 385.296875 L 181.53125 383.675781 L 181.246094 381.875 L 181.53125 380.078125 L 182.355469 378.457031 L 183.644531 377.171875 L 185.265625 376.347656 L 187.0625 376.0625 L 188.859375 376.347656 L 190.480469 377.171875 L 191.765625 378.457031 L 192.59375 380.078125 Z M 192.875 381.875 "/>
<path style=" stroke:none;fill-rule:nonzero;fill:rgb(80.392157%,58.431373%,4.705882%);fill-opacity:1;" d="M 139.953125 373.230469 L 140.078125 373.296875 L 141.367188 374.582031 L 142.191406 376.203125 L 142.40625 377.542969 L 142.039063 378.097656 L 136.757813 378.433594 L 136.246094 378.0625 L 137.339844 376.066406 Z M 139.953125 373.230469 "/>
</g>
</svg>
