<?xml version="1.0" encoding="UTF-8"?>
<svg xmlns="http://www.w3.org/2000/svg" xmlns:xlink="http://www.w3.org/1999/xlink" width="378pt" height="504pt" viewBox="0 0 378 504" version="1.1">
<g id="data">
<rect x="0" y="0" width="378" height="504" style="fill:rgb(100%,100%,100%);fill-opacity:1;stroke:none;"/>
<path style=" stroke:none;fill-rule:nonzero;fill:rgb(100%,100%,100%);fill-opacity:1;" d="M 53.308594 504 L 324.691406 504 L 324.691406 0 L 53.308594 0 Z M 53.308594 504 "/>
<path style=" stroke:none;fill-rule:nonzero;fill:rgb(22.745098%,53.333333%,16.078431%);fill-opacity:1;" d="M 249.09375 343.109375 L 251.261719 341.402344 L 252.496094 339.832031 L 254.382813 342.558594 L 260.535156 347.621094 L 263.042969 349.058594 L 263.054688 349.058594 L 263.367188 349.585938 L 266.308594 353.03125 L 266.421875 353.121094 L 268.015625 356.976563 L 267.835938 357.851563 L 268.089844 361.144531 L 269.292969 364.488281 L 269.210938 365.21875 L 264.953125 369.09375 L 261.394531 373.164063 L 260.601563 374.816406 L 262.84375 374.3125 L 264.9375 375.519531 L 266.9375 378.226563 L 270.21875 378.804688 L 270.625 378.746094 L 271.910156 376.796875 L 272.234375 374.960938 L 273.40625 371.914063 L 274.707031 370.632813 L 276.609375 370.300781 L 277.328125 370.574219 L 280.488281 370.90625 L 283.496094 370.339844 L 284.253906 370.867188 L 286.703125 370.742188 L 288.640625 370.949219 L 290.320313 372.464844 L 293.183594 373.863281 L 296.320313 374.429688 L 298.757813 374.195313 L 299.644531 374.84375 L 300.089844 376.972656 L 301.378906 379.582031 L 304.898438 383.867188 L 306.8125 385.402344 L 306.859375 386.199219 L 305.257813 388.046875 L 303.925781 390.777344 L 303.246094 394.503906 L 303.371094 397.382813 L 301.222656 399.738281 L 299.753906 402.707031 L 299.1875 405.84375 L 299.492188 409.015625 L 298.019531 410.585938 L 296.804688 412.519531 L 296.453125 413.417969 L 295.578125 412.011719 L 292.742188 410.515625 L 292.480469 410.636719 L 293.898438 413.703125 L 295.695313 416.339844 L 295.617188 416.769531 L 293.097656 418.839844 L 291.144531 421.464844 L 290.003906 421.65625 L 289.660156 421.574219 L 288.214844 419.332031 L 284.976563 421.730469 L 280.71875 424.230469 L 282.339844 425.378906 L 285.105469 424.398438 L 286.097656 423.375 L 286.894531 423.164063 L 287.328125 423.710938 L 287.632813 428.84375 L 285.6875 430.875 L 283.441406 432.558594 L 282.84375 432.699219 L 279.644531 432.160156 L 274.75 433.78125 L 272.609375 436.117188 L 274.253906 436.015625 L 275.152344 434.667969 L 276.683594 434.363281 L 278.285156 434.328125 L 281.054688 434.949219 L 281.828125 435.589844 L 281.691406 436.328125 L 279.554688 436.347656 L 277.390625 437.65625 L 277.96875 438.546875 L 281.382813 438.964844 L 286.863281 440.339844 L 289.394531 439.9375 L 291.074219 438.957031 L 294.578125 438.472656 L 294.960938 438.726563 L 297.097656 439.59375 L 299.492188 440.03125 L 299.492188 447.785156 L 295.582031 448.808594 L 292.261719 451.109375 L 290.421875 453.035156 L 289.167969 454.9375 L 288.304688 457.050781 L 288.117188 458.054688 L 286.253906 458.289063 L 284.1875 457.9375 L 281.042969 460.90625 L 278.484375 461.933594 L 274.789063 462.777344 L 272.597656 463.816406 L 270.539063 466.589844 L 269.761719 466.949219 L 259.480469 463.839844 L 259.332031 463.773438 L 255.597656 463.148438 L 252.214844 463.378906 L 248.378906 464.65625 L 247.839844 465.085938 L 244.628906 465.699219 L 242.703125 466.390625 L 242.113281 466.964844 L 242.085938 467.109375 L 240.582031 467.257813 L 240.140625 467.398438 L 238.210938 466.1875 L 238.632813 465.4375 L 239.46875 464.933594 L 237.714844 463.296875 L 231.496094 463.171875 L 231.378906 463.496094 L 232.574219 464.835938 L 232.214844 465.75 L 231.738281 466.042969 L 226.691406 465.496094 L 219.566406 468.449219 L 217.054688 467.824219 L 210.222656 468.96875 L 208.164063 468.875 L 207.273438 468.058594 L 206.238281 469.769531 L 209.429688 471.089844 L 209.714844 470.9375 L 210.1875 472.128906 L 209.566406 473.890625 L 206.84375 474.453125 L 204.453125 473.097656 L 203.015625 472.699219 L 197.625 472.007813 L 196.175781 472.65625 L 195.679688 473.863281 L 195.832031 474.871094 L 196.757813 475.523438 L 196.488281 476.304688 L 195.917969 475.996094 L 194.851563 473.972656 L 190.289063 470.589844 L 185.898438 468.519531 L 183.121094 467.984375 L 181.648438 469.066406 L 176.207031 469.78125 L 174.339844 470.335938 L 168.992188 473.234375 L 168.214844 474.070313 L 167.203125 476.179688 L 165.804688 480.273438 L 165.507813 480.507813 L 163.800781 482.675781 L 161.679688 483.050781 L 159.546875 483.867188 L 157.617188 485.082031 L 156.085938 486.515625 L 154.765625 485.503906 L 153.214844 484.230469 L 149.671875 482.875 L 148.71875 482.8125 L 148.46875 482.535156 L 146.597656 482.675781 L 141.753906 482.363281 L 138.351563 482.863281 L 135.351563 484.265625 L 135.257813 484.347656 L 134.507813 484.320313 L 132.167969 484.859375 L 130.257813 487.171875 L 129.226563 487.425781 L 126.015625 489.445313 L 125.265625 490.207031 L 124.039063 490.597656 L 123.742188 491.800781 L 122.578125 493.484375 L 121.632813 495.699219 L 121.300781 497.433594 L 120.660156 497.648438 L 120.394531 498.183594 L 118.253906 498.183594 L 117.96875 497.691406 L 118.09375 496.4375 L 117.277344 494.914063 L 117.277344 494.308594 L 116.621094 490.941406 L 116.835938 488.152344 L 117.277344 486.554688 L 117.351563 486.472656 L 118.144531 485.910156 L 121.425781 483.085938 L 124.375 479.769531 L 125.210938 477.886719 L 124.875 476.421875 L 125.640625 474.519531 L 128.386719 473.238281 L 132.105469 472.640625 L 132.679688 471.785156 L 133.257813 469.527344 L 135.859375 467.5625 L 138.636719 464.640625 L 138.765625 463.039063 L 140.710938 462.804688 L 144.347656 460.949219 L 146.679688 458.585938 L 148.292969 455.539063 L 150.460938 453.832031 L 152.167969 451.660156 L 155.597656 451.953125 L 158.957031 451.230469 L 161.65625 449.785156 L 163.800781 447.785156 L 166.574219 446.277344 L 167.527344 446.515625 L 169.484375 447.285156 L 170.039063 448.109375 L 170.757813 448.421875 L 173.15625 448.464844 L 180.570313 447.503906 L 181.109375 445.632813 L 181.210938 443.15625 L 182.519531 440.25 L 190.867188 432.195313 L 195.792969 425.3125 L 197.929688 424.472656 L 198.285156 423.78125 L 198.070313 423.238281 L 197.8125 423.082031 L 196.09375 424.355469 L 192.90625 427.300781 L 190.570313 429.988281 L 189.222656 431.449219 L 185.628906 432.957031 L 183.714844 433.246094 L 182.441406 433.0625 L 178.394531 435.230469 L 177.398438 436.808594 L 177.039063 438.671875 L 176.445313 439.273438 L 174.058594 439.917969 L 171.085938 439.863281 L 171.371094 438.960938 L 171.554688 436.152344 L 173.796875 435.746094 L 175.804688 434.964844 L 177.734375 433.75 L 179.308594 432.277344 L 182.242188 432.070313 L 184.914063 431.191406 L 187.195313 429.777344 L 189.011719 427.976563 L 190.273438 426.050781 L 191.199219 423.796875 L 191.667969 421.667969 L 191.734375 419.488281 L 191.355469 417.214844 L 190.59375 415.171875 L 189.464844 413.304688 L 187.914063 411.597656 L 190.453125 411.996094 L 193.019531 411.824219 L 195.484375 411.097656 L 197.726563 409.84375 L 199.644531 408.128906 L 201.132813 406.035156 L 202.128906 403.664063 L 202.570313 401.261719 L 204.820313 401.421875 L 209.390625 401.054688 L 211.839844 400.277344 L 214.058594 398.980469 L 216.1875 396.933594 L 217.730469 394.414063 L 218.5625 391.714844 L 218.714844 388.765625 L 220.339844 391.808594 L 222.683594 394.164063 L 225.71875 395.804688 L 229.101563 396.484375 L 232.035156 396.257813 L 234.699219 395.355469 L 237.460938 393.507813 L 240.472656 392.097656 L 242.960938 389.894531 L 244.5625 387.425781 L 245.601563 384.40625 L 245.878906 381.621094 L 245.445313 378.730469 L 244.269531 375.757813 L 242.535156 373.382813 L 240.148438 371.449219 L 237.460938 370.246094 L 239.453125 367.953125 L 240.78125 365.222656 L 241.464844 361.496094 L 241.339844 358.617188 L 244.105469 356.261719 L 247.140625 352.695313 L 248.46875 350.371094 L 249.363281 346.789063 Z M 254.273438 339.453125 L 256.847656 339.894531 L 260.722656 339.230469 L 260.632813 342.074219 L 260.445313 342 L 258.378906 342.789063 L 257.507813 342.753906 L 256.035156 341.773438 Z M 232.859375 471.5625 L 231.871094 472.320313 L 230.464844 474.011719 L 229.960938 474.269531 L 228.117188 474.644531 L 222.296875 470.886719 L 220.207031 471.1875 L 221.476563 469.683594 L 227.316406 466.367188 L 232.550781 467.761719 L 234.171875 469.894531 Z M 121.550781 416.769531 L 125.03125 416.769531 L 126.167969 419.34375 L 127.890625 421.570313 L 130.207031 423.386719 L 130.882813 423.683594 L 130.640625 424.257813 L 128.738281 424.492188 L 125.03125 423.859375 L 123.179688 424.175781 L 122.949219 424.152344 L 121.496094 423.164063 L 124.125 421.78125 L 125.167969 421.753906 L 125.464844 421.238281 L 124.929688 417.953125 L 123.328125 417.210938 L 121.445313 417.105469 Z M 131.679688 424.035156 L 132.785156 424.523438 L 131.40625 424.523438 L 131.792969 424.328125 Z M 286.679688 439.636719 L 283.058594 438.976563 L 282.164063 437.605469 L 282.484375 436.070313 L 286.839844 437.054688 L 287.960938 438.832031 Z M 236.835938 466.113281 L 235.136719 465.644531 L 236.523438 463.683594 L 237.195313 464.164063 L 237.5 465.839844 Z M 236.835938 466.113281 "/>
<path style=" stroke:none;fill-rule:nonzero;fill:rgb(80.392157%,58.431373%,4.705882%);fill-opacity:1;" d="M 192.875 381.875 L 192.59375 383.675781 L 191.765625 385.296875 L 190.480469 386.582031 L 188.859375 387.40625 L 187.0625 387.691406 L 185.265625 387.40625 L 183.644531 386.582031 L 182.355469 385.296875 L 181.53125 383.675781 L 181.246094 381.875 L 181.53125 380.078125 L 182.355469 378.457031 L 183.644531 377.171875 L 185.265625 376.347656 L 187.0625 376.0625 L 188.859375 376.347656 L 190.480469 377.171875 L 191.765625 378.457031 L 192.59375 380.078125 Z M 192.875 381.875 "/>
<path style=" stroke:none;fill-rule:nonzero;fill:rgb(80.392157%,58.431373%,4.705882%);fill-opacity:1;" d="M 139.953125 373.230469 L 141.367188 374.582031 L 142.191406 376.203125 L 142.40625 377.542969 L 142.039063 378.097656 L 136.757813 378.433594 L 136.246094 378.0625 L 137.339844 376.066406 Z M 139.953125 373.230469 "/>
</g>
</svg>
