<?xml version="1.0" encoding="UTF-8"?>
<svg xmlns="http://www.w3.org/2000/svg" xmlns:xlink="http://www.w3.org/1999/xlink" width="378pt" height="504pt" viewBox="0 0 378 504" version="1.1">
<g id="data">
<rect x="0" y="0" width="378" height="504" style="fill:rgb(100%,100%,100%);fill-opacity:1;stroke:none;"/>
<path style=" stroke:none;fill-rule:nonzero;fill:rgb(100%,100%,100%);fill-opacity:1;" d="M 53.308594 504 L 324.691406 504 L 324.691406 0 L 53.308594 0 Z M 53.308594 504 "/>
<path style=" stroke:none;fill-rule:nonzero;fill:rgb(22.745098%,53.333333%,16.078431%);fill-opacity:1;" d="M 241.339844 323.722656 L 244.511719 324.027344 L 247.765625 323.421875 L 250.613281 321.992188 L 252.96875 319.847656 L 251.964844 322.207031 L 251.503906 324.734375 L 251.625 327.425781 L 252.316406 329.898438 L 254.492188 333.367188 L 256.847656 335.355469 L 258.824219 337.785156 L 260.722656 339.230469 L 261.132813 341.472656 L 261.503906 342.429688 L 260.445313 342 L 258.378906 342.789063 L 257.507813 342.753906 L 256.035156 341.773438 L 253.664063 338.65625 L 252.601563 338.082031 L 248.625 338.886719 L 249.042969 337.273438 L 248.933594 332.671875 L 247.59375 328.953125 L 244.890625 325.730469 Z M 262.867188 344.996094 L 262.902344 345.054688 L 262.804688 345.191406 Z M 268.398438 357.902344 L 268.890625 362.421875 L 269.398438 363.59375 L 269.210938 365.21875 L 264.953125 369.09375 L 261.394531 373.164063 L 260.601563 374.816406 L 262.84375 374.3125 L 264.9375 375.519531 L 266.9375 378.226563 L 270.21875 378.804688 L 270.625 378.746094 L 271.910156 376.796875 L 272.234375 374.960938 L 273.40625 371.914063 L 274.707031 370.632813 L 276.636719 370.296875 L 277.453125 370.605469 L 280.488281 370.90625 L 283.496094 370.339844 L 284.253906 370.867188 L 286.703125 370.742188 L 288.632813 370.949219 L 290.214844 372.394531 L 293.183594 373.863281 L 296.320313 374.429688 L 298.757813 374.195313 L 299.644531 374.84375 L 300.089844 376.972656 L 301.378906 379.582031 L 304.898438 383.867188 L 306.8125 385.402344 L 306.859375 386.199219 L 305.257813 388.046875 L 303.925781 390.777344 L 303.246094 394.503906 L 303.371094 397.382813 L 301.109375 400.109375 L 299.773438 403.386719 L 299.34375 406.511719 L 299.492188 409.015625 L 298.019531 410.585938 L 296.804688 412.519531 L 296.453125 413.417969 L 295.578125 412.011719 L 292.742188 410.515625 L 292.480469 410.636719 L 293.898438 413.703125 L 295.695313 416.339844 L 295.617188 416.769531 L 293.097656 418.839844 L 291.144531 421.464844 L 290.003906 421.65625 L 289.660156 421.574219 L 288.214844 419.332031 L 284.976563 421.730469 L 280.71875 424.230469 L 282.339844 425.378906 L 285.105469 424.398438 L 286.097656 423.375 L 286.894531 423.164063 L 287.328125 423.710938 L 287.632813 428.84375 L 285.6875 430.875 L 283.441406 432.558594 L 282.84375 432.699219 L 279.644531 432.160156 L 274.75 433.78125 L 272.609375 436.117188 L 274.253906 436.015625 L 275.152344 434.667969 L 276.683594 434.363281 L 278.285156 434.328125 L 281.054688 434.949219 L 281.828125 435.589844 L 281.691406 436.328125 L 279.554688 436.347656 L 277.390625 437.65625 L 277.96875 438.546875 L 281.382813 438.964844 L 286.863281 440.339844 L 289.394531 439.9375 L 291.074219 438.957031 L 294.574219 438.472656 L 294.960938 438.726563 L 297.222656 439.628906 L 299.492188 440.03125 L 299.492188 447.785156 L 295.582031 448.808594 L 292.261719 451.109375 L 290.421875 453.035156 L 289.167969 454.9375 L 288.304688 457.050781 L 288.117188 458.054688 L 286.253906 458.289063 L 284.1875 457.9375 L 281.042969 460.90625 L 278.484375 461.933594 L 274.789063 462.777344 L 272.597656 463.816406 L 270.539063 466.589844 L 269.761719 466.949219 L 259.480469 463.839844 L 259.332031 463.773438 L 255.597656 463.148438 L 252.214844 463.378906 L 248.378906 464.65625 L 247.84375 465.085938 L 244.628906 465.699219 L 242.703125 466.390625 L 242.113281 466.964844 L 242.085938 467.109375 L 240.582031 467.257813 L 240.140625 467.398438 L 238.210938 466.1875 L 238.632813 465.4375 L 239.46875 464.933594 L 237.714844 463.296875 L 231.496094 463.171875 L 231.378906 463.496094 L 232.574219 464.835938 L 232.214844 465.75 L 231.738281 466.042969 L 226.691406 465.496094 L 219.566406 468.449219 L 217.054688 467.824219 L 210.222656 468.96875 L 208.164063 468.875 L 207.273438 468.058594 L 206.238281 469.769531 L 209.429688 471.089844 L 209.714844 470.9375 L 210.1875 472.128906 L 209.566406 473.890625 L 206.84375 474.453125 L 204.453125 473.097656 L 203.015625 472.699219 L 197.625 472.007813 L 196.175781 472.65625 L 195.679688 473.863281 L 195.832031 474.871094 L 196.757813 475.523438 L 196.488281 476.304688 L 195.917969 475.996094 L 194.851563 473.972656 L 190.289063 470.589844 L 185.898438 468.519531 L 183.121094 467.984375 L 181.648438 469.066406 L 176.207031 469.78125 L 174.339844 470.335938 L 168.992188 473.234375 L 168.214844 474.070313 L 167.203125 476.179688 L 165.773438 480.363281 L 165.160156 480.871094 L 163.800781 482.675781 L 161.679688 483.050781 L 159.546875 483.867188 L 157.617188 485.082031 L 156.085938 486.515625 L 154.683594 485.4375 L 153.613281 485.542969 L 152.417969 486.300781 L 151.738281 486.164063 L 148.46875 482.535156 L 142.796875 482.960938 L 141.527344 483.375 L 141.238281 483.664063 L 140.152344 483.597656 L 136.628906 484.269531 L 136.382813 484.386719 L 134.507813 484.320313 L 132.167969 484.859375 L 130.242188 487.191406 L 129.109375 487.476563 L 126.304688 489.195313 L 125.363281 490.175781 L 124.039063 490.597656 L 123.726563 491.871094 L 123.40625 492.207031 L 121.882813 494.976563 L 121.328125 497.421875 L 120.660156 497.648438 L 120.394531 498.183594 L 118.253906 498.183594 L 117.96875 497.691406 L 118.09375 496.4375 L 117.230469 494.828125 L 117.941406 490.429688 L 117.277344 486.554688 L 117.355469 486.46875 L 118.144531 485.910156 L 121.425781 483.085938 L 124.375 479.769531 L 125.210938 477.886719 L 124.875 476.421875 L 125.640625 474.519531 L 128.386719 473.238281 L 132.105469 472.640625 L 132.679688 471.785156 L 133.257813 469.527344 L 135.859375 467.5625 L 138.636719 464.640625 L 138.761719 463.082031 L 138.960938 463.0625 L 141.054688 462.429688 L 143.097656 461.351563 L 144.886719 459.886719 L 146.351563 458.097656 L 147.429688 456.054688 L 148.0625 453.960938 L 148.183594 452.761719 L 148.429688 452.488281 L 148.375 451.664063 L 155.976563 451.921875 L 158.476563 451.398438 L 160.691406 450.410156 L 163.800781 447.785156 L 166.574219 446.277344 L 167.527344 446.515625 L 169.484375 447.285156 L 170.039063 448.109375 L 170.757813 448.421875 L 173.15625 448.464844 L 180.570313 447.503906 L 181.109375 445.632813 L 181.210938 443.15625 L 182.519531 440.25 L 190.867188 432.195313 L 195.792969 425.3125 L 197.929688 424.472656 L 198.285156 423.78125 L 198.070313 423.238281 L 197.8125 423.082031 L 196.09375 424.355469 L 192.90625 427.300781 L 190.570313 429.988281 L 189.222656 431.449219 L 185.628906 432.957031 L 183.714844 433.246094 L 182.441406 433.0625 L 178.394531 435.230469 L 177.398438 436.808594 L 177.039063 438.671875 L 176.445313 439.273438 L 174.058594 439.917969 L 171.109375 439.863281 L 171.554688 436.152344 L 173.675781 435.78125 L 175.804688 434.964844 L 177.734375 433.75 L 179.308594 432.277344 L 182.113281 432.09375 L 184.914063 431.191406 L 187.292969 429.695313 L 189.171875 427.773438 L 190.449219 425.707031 L 191.410156 423.058594 L 191.753906 420.515625 L 191.558594 418.089844 L 190.859375 415.753906 L 189.617188 413.511719 L 187.914063 411.597656 L 185.832031 410.101563 L 189.769531 410.476563 L 193.609375 409.507813 L 196.808594 407.398438 L 198.691406 405.136719 L 201.125 403.160156 L 202.570313 401.261719 L 207.988281 401.25 L 210.882813 400.65625 L 214.058594 398.984375 L 216.5 396.523438 L 218.019531 393.699219 L 218.722656 390.441406 L 218.496094 387.238281 L 217.355469 384.113281 L 215.472656 381.53125 L 212.847656 379.496094 L 209.753906 378.289063 L 206.445313 378 L 207.917969 376.429688 L 209.132813 374.496094 L 209.914063 372.488281 L 210.324219 370.246094 L 211.296875 374.039063 L 213.46875 377.292969 L 216.628906 379.671875 L 220.414063 380.859375 L 223.746094 380.824219 L 226.929688 379.84375 L 229.707031 378 L 233.035156 376.375 L 235.835938 373.574219 L 237.460938 370.246094 L 239.972656 367.082031 L 241.140625 363.875 L 241.492188 360.992188 L 241.339844 358.617188 L 242.476563 355.902344 L 242.894531 352.992188 L 242.507813 349.820313 L 241.339844 346.984375 L 244.28125 345.445313 L 246.59375 343.242188 L 248.214844 340.488281 L 248.410156 339.730469 L 249.617188 339.34375 L 251.976563 339.082031 L 254.382813 342.558594 L 260.535156 347.621094 L 263.042969 349.058594 L 263.664063 349.039063 L 266.046875 352.214844 Z M 232.859375 471.5625 L 231.871094 472.320313 L 230.464844 474.011719 L 229.960938 474.269531 L 228.117188 474.644531 L 222.296875 470.886719 L 220.207031 471.1875 L 221.476563 469.683594 L 227.316406 466.367188 L 232.550781 467.761719 L 234.171875 469.894531 Z M 125.03125 416.769531 L 127.328125 417.332031 L 129.8125 417.40625 L 130.691406 421.21875 L 132.785156 424.523438 L 131.40625 424.523438 L 131.792969 424.328125 L 131.226563 422.867188 L 130.640625 424.257813 L 128.496094 424.523438 L 126.828125 424.523438 L 122.949219 424.152344 L 121.496094 423.164063 L 124.125 421.78125 L 125.167969 421.753906 L 125.464844 421.238281 L 124.929688 417.953125 L 123.328125 417.210938 L 121.445313 417.105469 L 121.550781 416.769531 Z M 286.679688 439.636719 L 283.058594 438.976563 L 282.164063 437.605469 L 282.484375 436.070313 L 286.839844 437.054688 L 287.960938 438.832031 Z M 236.835938 466.113281 L 235.136719 465.644531 L 236.523438 463.683594 L 237.195313 464.164063 L 237.5 465.839844 Z M 236.835938 466.113281 "/>
</g>
</svg>
