<?xml version="1.0" encoding="UTF-8"?>
<svg xmlns="http://www.w3.org/2000/svg" xmlns:xlink="http://www.w3.org/1999/xlink" width="378pt" height="504pt" viewBox="0 0 378 504" version="1.1">
<g id="data">
<rect x="0" y="0" width="378" height="504" style="fill:rgb(100%,100%,100%);fill-opacity:1;stroke:none;"/>
<path style=" stroke:none;fill-rule:nonzero;fill:rgb(100%,100%,100%);fill-opacity:1;" d="M 53.308594 504 L 324.691406 504 L 324.691406 0 L 53.308594 0 Z M 53.308594 504 "/>
<path style=" stroke:none;fill-rule:nonzero;fill:rgb(22.745098%,53.333333%,16.078431%);fill-opacity:1;" d="M 187.0625 257.816406 L 187.207031 257.425781 L 188.328125 257.671875 Z M 175.429688 436.152344 L 176.566406 438.730469 L 176.75 438.964844 L 176.445313 439.273438 L 175.429688 439.546875 Z M 181.261719 443.046875 L 183.183594 443.90625 L 180.921875 446.636719 L 180.582031 447.46875 L 181.109375 445.632813 L 181.210938 443.15625 Z M 180.566406 447.507813 L 179.585938 449.921875 L 179.507813 447.644531 Z M 132.785156 478.800781 L 135.792969 480.75 L 139.253906 481.691406 L 141.695313 481.703125 L 144.082031 481.207031 L 146.3125 480.226563 L 148.292969 478.800781 L 150.382813 480.289063 L 152.871094 481.320313 L 155.53125 481.75 L 158.21875 481.558594 L 161.484375 480.414063 L 164.355469 478.273438 L 166.433594 475.402344 L 167.554688 472.035156 L 167.675781 474.921875 L 165.480469 477.539063 L 164.140625 480.679688 L 163.65625 483.925781 L 163.78125 486.195313 L 163.660156 486.554688 L 156.136719 486.554688 L 154.683594 485.4375 L 153.613281 485.542969 L 152.417969 486.300781 L 151.738281 486.164063 L 148.46875 482.535156 L 144.792969 482.808594 L 141.683594 482.066406 L 139.011719 482.113281 L 132.144531 483.316406 L 132.679688 481.152344 Z M 120.394531 498.183594 L 118.253906 498.183594 L 117.96875 497.691406 L 118.09375 496.4375 L 117.15625 494.691406 L 115.984375 493.691406 L 113.824219 492.753906 L 117.25 493.390625 L 121.390625 492.640625 L 123.914063 491.117188 L 123.742188 491.816406 L 123.515625 492.058594 L 122.359375 493.898438 L 121.53125 496.046875 L 121.285156 497.4375 L 120.660156 497.648438 Z M 110.054688 494.402344 L 109.523438 494.308594 L 108.789063 493.699219 L 109.523438 490.429688 L 112.203125 492.066406 L 111.410156 491.984375 L 110.375 492.488281 L 110.242188 494.183594 Z M 88.429688 500.046875 L 88.566406 499.308594 L 88.941406 499.117188 L 89.34375 499.789063 Z M 88.429688 500.046875 "/>
</g>
</svg>
