<?xml version="1.0" encoding="UTF-8"?>
<svg xmlns="http://www.w3.org/2000/svg" xmlns:xlink="http://www.w3.org/1999/xlink" width="378pt" height="504pt" viewBox="0 0 378 504" version="1.1">
<g id="data">
<rect x="0" y="0" width="378" height="504" style="fill:rgb(100%,100%,100%);fill-opacity:1;stroke:none;"/>
<path style=" stroke:none;fill-rule:nonzero;fill:rgb(100%,100%,100%);fill-opacity:1;" d="M 53.308594 504 L 324.691406 504 L 324.691406 0 L 53.308594 0 Z M 53.308594 504 "/>
<path style=" stroke:none;fill-rule:nonzero;fill:rgb(22.745098%,53.333333%,16.078431%);fill-opacity:1;" d="M 272.644531 373.894531 L 274.523438 372.417969 L 276.121094 370.386719 L 276.925781 370.246094 L 280.109375 370.246094 L 282.945313 371.417969 L 285.859375 371.804688 L 288.902344 371.417969 L 289.746094 371.066406 L 292.648438 371.378906 L 293.625 372.59375 L 297.910156 376.113281 L 300.519531 377.402344 L 303.371094 378 L 301.59375 379.980469 L 300.363281 382.195313 L 299.664063 384.496094 L 299.328125 387.628906 L 299.640625 390.761719 L 300.363281 393.191406 L 301.59375 395.40625 L 303.371094 397.382813 L 300.917969 400.4375 L 299.972656 402.652344 L 299.492188 405.136719 L 297.71875 407.117188 L 296.488281 409.332031 L 295.757813 412.304688 L 295.578125 412.011719 L 292.742188 410.515625 L 292.480469 410.636719 L 293.898438 413.703125 L 294.304688 414.304688 L 294.066406 414.566406 L 292.871094 416.507813 L 292.113281 418.523438 L 291.738281 420.644531 L 291.136719 421.464844 L 290.003906 421.65625 L 289.660156 421.574219 L 288.214844 419.332031 L 284.976563 421.730469 L 280.71875 424.230469 L 282.339844 425.378906 L 285.105469 424.398438 L 286.097656 423.375 L 286.894531 423.164063 L 287.328125 423.710938 L 287.632813 428.84375 L 285.6875 430.875 L 283.441406 432.558594 L 282.84375 432.699219 L 279.644531 432.160156 L 274.75 433.78125 L 272.609375 436.117188 L 274.253906 436.015625 L 275.152344 434.667969 L 276.683594 434.363281 L 278.285156 434.328125 L 281.054688 434.949219 L 281.828125 435.589844 L 281.691406 436.328125 L 279.554688 436.347656 L 277.390625 437.65625 L 277.96875 438.546875 L 281.382813 438.964844 L 286.863281 440.339844 L 289.394531 439.9375 L 291.074219 438.957031 L 294.59375 438.46875 L 295.191406 438.84375 L 297.222656 439.628906 L 299.492188 440.03125 L 299.492188 447.785156 L 297.320313 449.492188 L 296.707031 450.273438 L 295.839844 450.375 L 292.621094 451.640625 L 291.179688 452.742188 L 290.667969 453.316406 L 289.738281 453.835938 L 287.863281 455.539063 L 285.375 456.019531 L 283.160156 456.964844 L 281.191406 458.34375 L 278.269531 461.1875 L 276.097656 462.476563 L 274.789063 462.777344 L 274.335938 462.992188 L 271.902344 463.585938 L 266.976563 463.136719 L 264.601563 463.292969 L 266.917969 461.265625 L 268.679688 458.582031 L 269.621094 455.648438 L 269.757813 452.570313 L 269.125 449.6875 L 267.785156 447.054688 L 266.113281 445.105469 L 262.851563 442.449219 L 264.773438 441.222656 L 266.421875 439.640625 L 267.667969 437.875 L 268.886719 435.351563 L 269.910156 431.648438 L 269.640625 427.691406 L 268.757813 425.277344 L 267.371094 423.121094 L 262.4375 418.835938 L 260.386719 417.78125 L 258.167969 417.148438 L 255.867188 416.96875 L 253.578125 417.242188 L 250.355469 418.488281 L 247.554688 420.71875 L 245.789063 423.234375 L 244.042969 427.507813 L 243.785156 431.464844 L 244.933594 435.398438 L 247.003906 438.328125 L 251.050781 441.703125 L 247.699219 444.265625 L 246.390625 446.011719 L 245.433594 447.972656 L 244.691406 451.738281 L 245.214844 455.539063 L 243.226563 457.832031 L 241.898438 460.5625 L 241.214844 464.289063 L 241.339844 467.167969 L 239.996094 467.308594 L 238.210938 466.1875 L 238.632813 465.4375 L 239.46875 464.933594 L 237.714844 463.296875 L 231.496094 463.171875 L 231.378906 463.496094 L 232.574219 464.835938 L 232.214844 465.75 L 231.738281 466.042969 L 226.691406 465.496094 L 221.28125 467.738281 L 220.078125 467.433594 L 217.390625 467.453125 L 214.773438 468.089844 L 214.425781 468.265625 L 210.222656 468.96875 L 208.164063 468.875 L 207.273438 468.058594 L 206.238281 469.769531 L 209.328125 471.046875 L 206.445313 471.046875 L 203.734375 469.910156 L 200.695313 469.488281 L 197.652344 469.875 L 194.816406 471.046875 L 195.445313 468.160156 L 195.34375 465.335938 L 194.570313 462.621094 L 193.160156 460.171875 L 191.203125 458.132813 L 188.695313 456.574219 L 186.003906 455.71875 L 183.183594 455.539063 L 184.730469 453.65625 L 185.800781 451.613281 L 186.472656 449.273438 L 186.644531 446.972656 L 186.332031 444.558594 L 185.578125 442.378906 L 184.332031 440.289063 L 183.460938 439.339844 L 185.910156 436.976563 L 187.0625 436.152344 L 189.488281 435.898438 L 191.808594 435.140625 L 194.914063 433.101563 L 196.53125 431.277344 L 197.730469 429.152344 L 198.460938 426.824219 L 198.691406 424.523438 L 201.269531 423.386719 L 203.496094 421.664063 L 205.242188 419.453125 L 206.445313 416.769531 L 210.101563 417.4375 L 213.660156 416.957031 L 216.902344 415.414063 L 219.519531 412.957031 L 220.808594 410.882813 L 221.636719 408.585938 L 222.085938 402.382813 L 221.703125 399.632813 L 220.980469 397.46875 L 219.703125 395.28125 L 218.078125 393.507813 L 221.953125 394.171875 L 225.832031 393.507813 L 227.539063 395.679688 L 229.707031 397.382813 L 228.089844 399.378906 L 226.992188 401.558594 L 226.355469 404.046875 L 226.273438 406.484375 L 226.734375 409.007813 L 227.675781 411.261719 L 229.066406 413.265625 L 230.949219 415.011719 L 233.765625 416.546875 L 236.761719 417.242188 L 239.074219 417.234375 L 241.339844 416.769531 L 243.457031 417.304688 L 245.636719 417.433594 L 249.164063 416.757813 L 252.109375 415.191406 L 254.566406 412.75 L 256.359375 409.207031 L 256.847656 405.136719 L 259.015625 403.433594 L 260.722656 401.261719 L 264.765625 401.933594 L 268.789063 401.160156 L 272.296875 399.039063 L 274.851563 395.835938 L 275.742188 393.699219 L 276.183594 391.558594 L 276.464844 381.691406 L 275.96875 379.445313 L 275.105469 377.457031 L 273.886719 375.660156 L 272.5 374.269531 Z M 233.847656 469.46875 L 231.554688 471.570313 L 230.109375 474.191406 L 229.960938 474.269531 L 229.414063 474.378906 L 228.1875 472.109375 L 225.953125 469.816406 L 223.617188 468.464844 L 227.316406 466.367188 L 232.550781 467.761719 Z M 209.757813 471.046875 L 209.511719 471.046875 L 209.714844 470.9375 Z M 202.570313 257.816406 L 204.820313 254.703125 L 205.9375 251.027344 L 205.792969 247.1875 L 205.351563 246.039063 L 206 246.390625 L 206.265625 247.242188 L 206.445313 250.0625 L 208.222656 253.597656 L 210.871094 256.1875 L 214.199219 257.816406 L 215.90625 259.984375 L 218.078125 261.691406 L 215.695313 263.707031 L 213.386719 260.808594 L 210.285156 258.785156 L 206.957031 257.867188 Z M 191.523438 238.351563 L 190.9375 238.429688 L 191.371094 238.335938 Z M 206.445313 281.078125 L 209.894531 280.25 L 212.933594 278.425781 L 211.535156 280.382813 L 210.605469 282.464844 L 210.097656 284.6875 L 210.046875 287.089844 L 208.710938 283.804688 Z M 198.691406 350.863281 L 202.570313 350.863281 L 202.570313 354.738281 L 200.863281 352.566406 Z M 179.308594 246.183594 L 179.308594 242.308594 L 179.929688 242.371094 L 182.921875 243.167969 L 185.34375 242.167969 L 184.105469 243.988281 L 183.183594 246.183594 Z M 183.183594 346.984375 L 185.234375 349.394531 L 182.722656 351.296875 L 182.4375 351.664063 L 182.078125 350.886719 L 182.664063 349.59375 Z M 181.542969 352.8125 L 180.859375 353.695313 L 179.789063 356.128906 L 179.625 356.96875 L 178.703125 355.304688 L 180.125 353.941406 L 181.160156 352.5625 L 181.503906 352.695313 Z M 179.128906 358.8125 L 177.605469 360.492188 L 176.351563 362.691406 L 175.429688 366.371094 L 174.292969 363.792969 L 172.570313 361.566406 L 170.253906 359.753906 L 167.675781 358.617188 L 170.210938 358.929688 L 172.75 358.683594 L 175.175781 357.890625 L 176.789063 356.933594 Z M 136.660156 409.015625 L 136.660156 407.09375 L 137.585938 406.550781 L 140.539063 406.636719 L 140.539063 409.015625 Z M 117.277344 486.554688 L 117.644531 486.261719 L 118.144531 485.910156 L 118.65625 485.46875 L 119.445313 484.847656 L 119.589844 484.664063 L 121.425781 483.085938 L 122.199219 482.214844 L 123.730469 481.539063 L 125.957031 479.816406 L 127.769531 477.5 L 128.90625 474.921875 L 130.046875 477.5 L 131.769531 479.726563 L 134.085938 481.539063 L 136.660156 482.675781 L 134.085938 483.8125 L 132.976563 484.671875 L 132.167969 484.859375 L 129.414063 488.195313 L 127.597656 489.238281 L 126.554688 488.285156 L 123.582031 486.816406 L 120.449219 486.25 Z M 286.679688 439.636719 L 283.058594 438.976563 L 282.164063 437.605469 L 282.484375 436.070313 L 286.839844 437.054688 L 287.960938 438.832031 Z M 236.835938 466.113281 L 235.136719 465.644531 L 236.523438 463.683594 L 237.195313 464.164063 L 237.5 465.839844 Z M 236.835938 466.113281 "/>
<path style=" stroke:none;fill-rule:nonzero;fill:rgb(80.392157%,58.431373%,4.705882%);fill-opacity:1;" d="M 212.261719 378 L 211.976563 379.796875 L 211.152344 381.417969 L 209.863281 382.703125 L 208.242188 383.53125 L 206.445313 383.816406 L 204.648438 383.53125 L 203.027344 382.703125 L 201.742188 381.417969 L 200.914063 379.796875 L 200.628906 378 L 200.914063 376.203125 L 201.742188 374.582031 L 203.027344 373.296875 L 204.648438 372.46875 L 206.445313 372.183594 L 208.242188 372.46875 L 209.863281 373.296875 L 211.152344 374.582031 L 211.976563 376.203125 Z M 212.261719 378 "/>
<path style=" stroke:none;fill-rule:nonzero;fill:rgb(80.392157%,58.431373%,4.705882%);fill-opacity:1;" d="M 212.261719 385.753906 L 211.976563 387.550781 L 211.152344 389.171875 L 209.863281 390.457031 L 208.242188 391.285156 L 206.445313 391.570313 L 204.648438 391.285156 L 203.027344 390.457031 L 201.742188 389.171875 L 200.914063 387.550781 L 200.628906 385.753906 L 200.914063 383.957031 L 201.742188 382.335938 L 203.027344 381.050781 L 204.648438 380.222656 L 206.445313 379.9375 L 208.242188 380.222656 L 209.863281 381.050781 L 211.152344 382.335938 L 211.976563 383.957031 Z M 212.261719 385.753906 "/>
<path style=" stroke:none;fill-rule:nonzero;fill:rgb(80.392157%,58.431373%,4.705882%);fill-opacity:1;" d="M 247.152344 315.96875 L 246.871094 317.765625 L 246.042969 319.386719 L 244.757813 320.675781 L 243.136719 321.5 L 241.339844 321.785156 L 239.542969 321.5 L 237.921875 320.675781 L 236.632813 319.386719 L 235.808594 317.765625 L 235.523438 315.96875 L 235.808594 314.171875 L 236.632813 312.550781 L 237.921875 311.265625 L 239.542969 310.4375 L 241.339844 310.152344 L 243.136719 310.4375 L 244.757813 311.265625 L 246.042969 312.550781 L 246.871094 314.171875 Z M 247.152344 315.96875 "/>
<path style=" stroke:none;fill-rule:nonzero;fill:rgb(80.392157%,58.431373%,4.705882%);fill-opacity:1;" d="M 165.738281 463.292969 L 165.453125 465.089844 L 164.628906 466.710938 L 163.339844 467.996094 L 161.71875 468.824219 L 159.921875 469.109375 L 158.125 468.824219 L 156.503906 467.996094 L 155.21875 466.710938 L 154.390625 465.089844 L 154.109375 463.292969 L 154.390625 461.496094 L 155.21875 459.875 L 156.503906 458.585938 L 158.125 457.761719 L 159.921875 457.476563 L 161.71875 457.761719 L 163.339844 458.585938 L 164.628906 459.875 L 165.453125 461.496094 Z M 165.738281 463.292969 "/>
<path style=" stroke:none;fill-rule:nonzero;fill:rgb(80.392157%,58.431373%,4.705882%);fill-opacity:1;" d="M 161.863281 420.644531 L 161.578125 422.441406 L 160.75 424.0625 L 159.464844 425.351563 L 157.84375 426.175781 L 156.046875 426.460938 L 154.25 426.175781 L 152.628906 425.351563 L 151.339844 424.0625 L 150.515625 422.441406 L 150.230469 420.644531 L 150.515625 418.847656 L 151.339844 417.226563 L 152.628906 415.941406 L 154.25 415.117188 L 156.046875 414.832031 L 157.84375 415.117188 L 159.464844 415.941406 L 160.75 417.226563 L 161.578125 418.847656 Z M 161.863281 420.644531 "/>
<path style=" stroke:none;fill-rule:nonzero;fill:rgb(80.392157%,58.431373%,4.705882%);fill-opacity:1;" d="M 177.371094 436.152344 L 177.085938 437.949219 L 176.40625 439.285156 L 174.058594 439.917969 L 170.558594 439.851563 L 166.820313 439 L 166.023438 437.949219 L 165.738281 436.152344 L 166.023438 434.355469 L 166.847656 432.734375 L 168.136719 431.449219 L 169.757813 430.625 L 171.554688 430.339844 L 173.351563 430.625 L 174.972656 431.449219 L 176.257813 432.734375 L 177.085938 434.355469 Z M 177.371094 436.152344 "/>
<path style=" stroke:none;fill-rule:nonzero;fill:rgb(80.392157%,58.431373%,4.705882%);fill-opacity:1;" d="M 134.722656 238.429688 L 134.4375 240.226563 L 133.613281 241.847656 L 132.503906 242.957031 L 131.566406 242.222656 L 130.757813 242.5 L 130.164063 244.046875 L 127.796875 244.070313 L 127.46875 243.074219 L 128.453125 238.691406 L 131.230469 234.078125 L 131.910156 233.515625 L 133.613281 235.011719 L 134.4375 236.632813 Z M 132.160156 243.21875 L 130.765625 243.929688 L 130.707031 243.464844 L 131.460938 242.613281 Z M 125.777344 243.28125 L 124.203125 241.847656 L 123.375 240.226563 L 123.09375 238.429688 L 123.375 236.632813 L 124.203125 235.011719 L 125.488281 233.726563 L 127.109375 232.898438 L 128.90625 232.617188 L 130.703125 232.898438 L 131.242188 233.175781 L 126.449219 238.917969 L 125.671875 238.734375 L 125.460938 238.363281 Z M 125.777344 243.28125 "/>
<path style=" stroke:none;fill-rule:nonzero;fill:rgb(80.392157%,58.431373%,4.705882%);fill-opacity:1;" d="M 161.863281 393.507813 L 161.578125 395.304688 L 160.75 396.925781 L 159.464844 398.210938 L 157.84375 399.039063 L 156.046875 399.324219 L 154.25 399.039063 L 152.289063 397.875 L 153.054688 396.195313 L 154.199219 391.746094 L 153.5 388.359375 L 154.25 387.976563 L 156.046875 387.691406 L 157.84375 387.976563 L 159.464844 388.804688 L 160.75 390.089844 L 161.578125 391.710938 Z M 161.863281 393.507813 "/>
<path style=" stroke:none;fill-rule:nonzero;fill:rgb(80.392157%,58.431373%,4.705882%);fill-opacity:1;" d="M 154.109375 482.675781 L 153.824219 484.472656 L 153.117188 485.855469 L 152.417969 486.300781 L 151.738281 486.164063 L 148.46875 482.535156 L 142.535156 483.046875 L 142.476563 482.675781 L 142.761719 480.878906 L 143.585938 479.257813 L 144.875 477.972656 L 146.496094 477.144531 L 148.292969 476.863281 L 150.089844 477.144531 L 151.710938 477.972656 L 152.996094 479.257813 L 153.824219 480.878906 Z M 154.109375 482.675781 "/>
<path style=" stroke:none;fill-rule:nonzero;fill:rgb(80.392157%,58.431373%,4.705882%);fill-opacity:1;" d="M 165.761719 480.394531 L 164.257813 479.628906 L 162.972656 478.339844 L 162.144531 476.71875 L 161.863281 474.921875 L 162.144531 473.125 L 162.972656 471.503906 L 164.257813 470.21875 L 165.878906 469.390625 L 167.675781 469.109375 L 169.472656 469.390625 L 171.09375 470.21875 L 172.3125 471.433594 L 168.992188 473.234375 L 168.214844 474.070313 Z M 165.761719 480.394531 "/>
<path style=" stroke:none;fill-rule:nonzero;fill:rgb(80.392157%,58.431373%,4.705882%);fill-opacity:1;" d="M 130.796875 424.828125 L 130.5625 426.320313 L 129.734375 427.941406 L 128.640625 429.039063 L 126.53125 428.132813 L 127.425781 426.082031 L 128.796875 425.832031 Z M 125.054688 418.710938 L 126.828125 418.992188 L 128.449219 419.816406 L 129.734375 421.105469 L 130.5625 422.726563 L 130.640625 424.257813 L 127.769531 424.613281 L 122.949219 424.152344 L 121.496094 423.164063 L 124.125 421.78125 L 125.167969 421.753906 L 125.464844 421.238281 Z M 125.054688 418.710938 "/>
<path style=" stroke:none;fill-rule:nonzero;fill:rgb(80.392157%,58.431373%,4.705882%);fill-opacity:1;" d="M 81.664063 182.328125 L 84.183594 182.5 L 85.089844 182.960938 L 85.140625 186.4375 L 86.054688 188.15625 L 85.625 188.976563 L 84.328125 188.382813 L 82.6875 188.554688 L 82.128906 188.101563 L 81.515625 184.671875 Z M 81.769531 193.75 L 80.585938 193.5625 L 78.71875 192.484375 L 80.441406 190.269531 L 81.117188 190.9375 Z M 81.769531 193.75 "/>
<path style=" stroke:none;fill-rule:nonzero;fill:rgb(80.392157%,58.431373%,4.705882%);fill-opacity:1;" d="M 126.96875 424.523438 L 122.949219 424.152344 L 121.496094 423.164063 L 124.125 421.78125 L 125.167969 421.753906 L 125.464844 421.238281 L 125.363281 420.609375 L 126.683594 422.726563 Z M 126.96875 424.523438 "/>
</g>
</svg>
