<?xml version="1.0" encoding="UTF-8"?>
<svg xmlns="http://www.w3.org/2000/svg" xmlns:xlink="http://www.w3.org/1999/xlink" width="378pt" height="504pt" viewBox="0 0 378 504" version="1.1">
<g id="data">
<rect x="0" y="0" width="378" height="504" style="fill:rgb(100%,100%,100%);fill-opacity:1;stroke:none;"/>
<path style=" stroke:none;fill-rule:nonzero;fill:rgb(100%,100%,100%);fill-opacity:1;" d="M 53.308594 504 L 324.691406 504 L 324.691406 0 L 53.308594 0 Z M 53.308594 504 "/>
<path style=" stroke:none;fill-rule:nonzero;fill:rgb(22.745098%,53.333333%,16.078431%);fill-opacity:1;" d="M 141.117188 483.789063 L 140.660156 482.832031 L 140.433594 480.941406 L 140.832031 479.078125 L 141.8125 477.441406 L 143.863281 475.03125 L 145.160156 473.902344 L 146.730469 473.199219 L 148.4375 472.988281 L 150.132813 473.285156 L 151.667969 474.0625 L 153.21875 475.167969 L 154.46875 475.6875 L 155.789063 475.902344 L 157.011719 475.8125 L 158.867188 475.152344 L 162.066406 472.851563 L 163.785156 472.003906 L 165.6875 471.761719 L 167.566406 472.152344 L 169.199219 473.121094 L 168.992188 473.234375 L 168.214844 474.070313 L 167.203125 476.179688 L 162.746094 489.226563 L 160.929688 490.242188 L 158.269531 489.722656 L 157.554688 489.058594 L 156.527344 486.851563 L 154.683594 485.4375 L 153.613281 485.542969 L 152.417969 486.300781 L 151.738281 486.164063 L 148.46875 482.535156 L 142.796875 482.960938 L 141.527344 483.375 Z M 88.429688 500.046875 L 88.566406 499.308594 L 88.941406 499.117188 L 89.34375 499.789063 Z M 88.429688 500.046875 "/>
<path style=" stroke:none;fill-rule:nonzero;fill:rgb(80.392157%,58.431373%,4.705882%);fill-opacity:1;" d="M 208.382813 389.628906 L 208.101563 391.429688 L 207.273438 393.050781 L 205.988281 394.335938 L 204.367188 395.160156 L 202.570313 395.445313 L 200.773438 395.160156 L 199.152344 394.335938 L 197.863281 393.050781 L 197.039063 391.429688 L 196.753906 389.628906 L 197.039063 387.832031 L 197.863281 386.210938 L 199.152344 384.925781 L 200.773438 384.101563 L 202.570313 383.816406 L 204.367188 384.101563 L 205.988281 384.925781 L 207.273438 386.210938 L 208.101563 387.832031 Z M 208.382813 389.628906 "/>
<path style=" stroke:none;fill-rule:nonzero;fill:rgb(80.392157%,58.431373%,4.705882%);fill-opacity:1;" d="M 251.03125 436.152344 L 250.746094 437.949219 L 249.921875 439.570313 L 248.632813 440.859375 L 247.011719 441.683594 L 245.214844 441.96875 L 243.417969 441.683594 L 241.796875 440.859375 L 240.511719 439.570313 L 239.683594 437.949219 L 239.398438 436.152344 L 239.683594 434.355469 L 240.511719 432.734375 L 241.796875 431.449219 L 243.417969 430.625 L 245.214844 430.339844 L 247.011719 430.625 L 248.632813 431.449219 L 249.921875 432.734375 L 250.746094 434.355469 Z M 251.03125 436.152344 "/>
<path style=" stroke:none;fill-rule:nonzero;fill:rgb(80.392157%,58.431373%,4.705882%);fill-opacity:1;" d="M 247.152344 451.660156 L 246.871094 453.457031 L 246.042969 455.078125 L 244.757813 456.367188 L 243.136719 457.191406 L 241.339844 457.476563 L 239.542969 457.191406 L 237.921875 456.367188 L 236.632813 455.078125 L 235.808594 453.457031 L 235.523438 451.660156 L 235.808594 449.863281 L 236.632813 448.242188 L 237.921875 446.957031 L 239.542969 446.128906 L 241.339844 445.847656 L 243.136719 446.128906 L 244.757813 446.957031 L 246.042969 448.242188 L 246.871094 449.863281 Z M 247.152344 451.660156 "/>
<path style=" stroke:none;fill-rule:nonzero;fill:rgb(80.392157%,58.431373%,4.705882%);fill-opacity:1;" d="M 196.753906 257.816406 L 196.46875 259.613281 L 195.644531 261.234375 L 194.355469 262.519531 L 192.734375 263.347656 L 190.9375 263.628906 L 189.140625 263.347656 L 187.519531 262.519531 L 186.234375 261.234375 L 185.40625 259.613281 L 185.125 257.816406 L 185.40625 256.019531 L 186.234375 254.398438 L 187.519531 253.109375 L 189.140625 252.285156 L 190.9375 252 L 192.734375 252.285156 L 194.355469 253.109375 L 195.644531 254.398438 L 196.46875 256.019531 Z M 196.753906 257.816406 "/>
<path style=" stroke:none;fill-rule:nonzero;fill:rgb(80.392157%,58.431373%,4.705882%);fill-opacity:1;" d="M 204.507813 257.816406 L 204.222656 259.613281 L 203.398438 261.234375 L 202.109375 262.519531 L 200.488281 263.347656 L 198.691406 263.628906 L 196.894531 263.347656 L 195.273438 262.519531 L 193.988281 261.234375 L 193.160156 259.613281 L 192.875 257.816406 L 193.160156 256.019531 L 193.988281 254.398438 L 195.273438 253.109375 L 196.894531 252.285156 L 198.691406 252 L 200.488281 252.285156 L 202.109375 253.109375 L 203.398438 254.398438 L 204.222656 256.019531 Z M 204.507813 257.816406 "/>
<path style=" stroke:none;fill-rule:nonzero;fill:rgb(80.392157%,58.431373%,4.705882%);fill-opacity:1;" d="M 270.414063 385.753906 L 270.128906 387.550781 L 269.304688 389.171875 L 268.019531 390.457031 L 266.398438 391.285156 L 264.601563 391.570313 L 262.804688 391.285156 L 261.183594 390.457031 L 259.894531 389.171875 L 259.070313 387.550781 L 258.785156 385.753906 L 259.070313 383.957031 L 259.894531 382.335938 L 261.183594 381.050781 L 262.804688 380.222656 L 264.601563 379.9375 L 266.398438 380.222656 L 268.019531 381.050781 L 269.304688 382.335938 L 270.128906 383.957031 Z M 270.414063 385.753906 "/>
<path style=" stroke:none;fill-rule:nonzero;fill:rgb(80.392157%,58.431373%,4.705882%);fill-opacity:1;" d="M 305.308594 393.507813 L 305.023438 395.304688 L 304.195313 396.925781 L 302.910156 398.210938 L 301.289063 399.039063 L 299.492188 399.324219 L 297.695313 399.039063 L 296.074219 398.210938 L 294.789063 396.925781 L 293.960938 395.304688 L 293.675781 393.507813 L 293.960938 391.710938 L 294.789063 390.089844 L 296.074219 388.804688 L 297.695313 387.976563 L 299.492188 387.691406 L 301.289063 387.976563 L 302.910156 388.804688 L 304.195313 390.089844 L 305.023438 391.710938 Z M 305.308594 393.507813 "/>
<path style=" stroke:none;fill-rule:nonzero;fill:rgb(80.392157%,58.431373%,4.705882%);fill-opacity:1;" d="M 208.382813 420.644531 L 208.101563 422.441406 L 207.273438 424.0625 L 205.988281 425.351563 L 204.367188 426.175781 L 202.570313 426.460938 L 200.773438 426.175781 L 199.152344 425.351563 L 198.046875 424.246094 L 198.285156 423.78125 L 198.070313 423.238281 L 197.8125 423.082031 L 197.488281 423.324219 L 197.039063 422.441406 L 196.753906 420.644531 L 197.039063 418.847656 L 197.863281 417.226563 L 199.152344 415.941406 L 200.773438 415.117188 L 202.570313 414.832031 L 204.367188 415.117188 L 205.988281 415.941406 L 207.273438 417.226563 L 208.101563 418.847656 Z M 208.382813 420.644531 "/>
<path style=" stroke:none;fill-rule:nonzero;fill:rgb(80.392157%,58.431373%,4.705882%);fill-opacity:1;" d="M 185.125 451.660156 L 184.839844 453.457031 L 184.011719 455.078125 L 182.726563 456.367188 L 181.105469 457.191406 L 179.308594 457.476563 L 177.511719 457.191406 L 175.890625 456.367188 L 174.601563 455.078125 L 173.777344 453.457031 L 173.492188 451.660156 L 173.777344 449.863281 L 174.582031 448.28125 L 180.570313 447.503906 L 180.972656 446.109375 L 181.105469 446.128906 L 182.726563 446.957031 L 184.011719 448.242188 L 184.839844 449.863281 Z M 185.125 451.660156 "/>
<path style=" stroke:none;fill-rule:nonzero;fill:rgb(80.392157%,58.431373%,4.705882%);fill-opacity:1;" d="M 138.601563 482.675781 L 138.320313 484.453125 L 134.507813 484.320313 L 132.167969 484.859375 L 129.871094 487.640625 L 129.367188 487.382813 L 128.078125 486.09375 L 127.253906 484.472656 L 126.96875 482.675781 L 127.253906 480.878906 L 128.078125 479.257813 L 129.367188 477.972656 L 130.988281 477.144531 L 132.785156 476.863281 L 134.582031 477.144531 L 136.203125 477.972656 L 137.488281 479.257813 L 138.316406 480.878906 Z M 138.601563 482.675781 "/>
<path style=" stroke:none;fill-rule:nonzero;fill:rgb(80.392157%,58.431373%,4.705882%);fill-opacity:1;" d="M 232.273438 472.308594 L 231.503906 472.699219 L 229.707031 472.984375 L 227.910156 472.699219 L 226.289063 471.875 L 225.003906 470.585938 L 224.175781 468.964844 L 224.058594 468.214844 L 227.316406 466.367188 L 232.550781 467.761719 L 234.171875 469.894531 Z M 223.980469 466.621094 L 224.175781 465.371094 L 225.003906 463.75 L 226.289063 462.464844 L 227.910156 461.636719 L 229.707031 461.355469 L 231.503906 461.636719 L 233.125 462.464844 L 233.882813 463.21875 L 231.496094 463.171875 L 231.378906 463.496094 L 232.574219 464.835938 L 232.214844 465.75 L 231.738281 466.042969 L 226.691406 465.496094 Z M 235.253906 465.476563 L 235.289063 465.683594 L 235.136719 465.644531 Z M 235.253906 465.476563 "/>
<path style=" stroke:none;fill-rule:nonzero;fill:rgb(80.392157%,58.431373%,4.705882%);fill-opacity:1;" d="M 189 443.90625 L 188.714844 445.703125 L 187.890625 447.324219 L 186.601563 448.613281 L 184.980469 449.4375 L 183.183594 449.722656 L 181.386719 449.4375 L 179.765625 448.613281 L 178.878906 447.726563 L 180.570313 447.503906 L 181.109375 445.632813 L 181.210938 443.15625 L 182.519531 440.25 L 184.53125 438.304688 L 184.980469 438.375 L 186.601563 439.203125 L 187.890625 440.488281 L 188.714844 442.109375 Z M 189 443.90625 "/>
<path style=" stroke:none;fill-rule:nonzero;fill:rgb(80.392157%,58.431373%,4.705882%);fill-opacity:1;" d="M 119.214844 494.308594 L 118.929688 496.105469 L 118.105469 497.726563 L 118.03125 497.796875 L 117.96875 497.691406 L 118.09375 496.4375 L 117.15625 494.691406 L 115.984375 493.691406 L 112.253906 492.070313 L 111.410156 491.984375 L 110.375 492.488281 L 110.242188 494.183594 L 109.421875 495.128906 L 107.769531 495.46875 L 107.585938 494.308594 L 107.871094 492.511719 L 108.695313 490.890625 L 109.980469 489.601563 L 111.601563 488.777344 L 112.347656 488.660156 L 112.445313 488.9375 L 113.574219 489.15625 L 114.308594 488.636719 L 115.195313 488.777344 L 116.816406 489.601563 L 118.105469 490.890625 L 118.929688 492.511719 Z M 119.214844 494.308594 "/>
<path style=" stroke:none;fill-rule:nonzero;fill:rgb(80.392157%,58.431373%,4.705882%);fill-opacity:1;" d="M 205.113281 473.472656 L 204.792969 472.84375 L 204.507813 471.046875 L 204.792969 469.25 L 205.617188 467.628906 L 206.90625 466.339844 L 208.527344 465.515625 L 210.324219 465.230469 L 212.121094 465.515625 L 213.742188 466.339844 L 215.027344 467.628906 L 215.28125 468.121094 L 210.222656 468.96875 L 208.164063 468.875 L 207.273438 468.058594 L 206.238281 469.769531 L 209.429688 471.089844 L 209.714844 470.9375 L 210.1875 472.128906 L 209.566406 473.890625 L 206.84375 474.453125 Z M 205.113281 473.472656 "/>
<path style=" stroke:none;fill-rule:nonzero;fill:rgb(80.392157%,58.431373%,4.705882%);fill-opacity:1;" d="M 116.816406 494.402344 L 117.734375 493.480469 L 119.355469 492.652344 L 121.152344 492.371094 L 122.949219 492.652344 L 123.46875 492.917969 L 123.132813 494.289063 L 123.664063 495.292969 L 123.496094 496.125 L 122.722656 496.945313 L 120.660156 497.648438 L 119.628906 499.730469 L 118.675781 498.910156 L 117.96875 497.691406 L 118.09375 496.4375 L 117.15625 494.691406 Z M 116.816406 494.402344 "/>
<path style=" stroke:none;fill-rule:nonzero;fill:rgb(80.392157%,58.431373%,4.705882%);fill-opacity:1;" d="M 190.710938 470.902344 L 191.398438 470.21875 L 193.019531 469.390625 L 194.816406 469.109375 L 196.613281 469.390625 L 198.234375 470.21875 L 199.519531 471.503906 L 199.925781 472.300781 L 197.625 472.007813 L 196.175781 472.65625 L 195.679688 473.863281 L 195.832031 474.871094 L 196.757813 475.523438 L 196.488281 476.304688 L 195.917969 475.996094 L 194.851563 473.972656 Z M 190.710938 470.902344 "/>
</g>
</svg>
