<?xml version="1.0" encoding="UTF-8"?>
<svg xmlns="http://www.w3.org/2000/svg" xmlns:xlink="http://www.w3.org/1999/xlink" width="378pt" height="504pt" viewBox="0 0 378 504" version="1.1">
<g id="data">
<rect x="0" y="0" width="378" height="504" style="fill:rgb(100%,100%,100%);fill-opacity:1;stroke:none;"/>
<path style=" stroke:none;fill-rule:nonzero;fill:rgb(100%,100%,100%);fill-opacity:1;" d="M 53.308594 504 L 324.691406 504 L 324.691406 0 L 53.308594 0 Z M 53.308594 504 "/>
<path style=" stroke:none;fill-rule:nonzero;fill:rgb(22.745098%,53.333333%,16.078431%);fill-opacity:1;" d="M 233.585938 36.832031 L 233.585938 36.976563 L 233.101563 38.984375 L 230.96875 38.972656 L 230.324219 38.394531 L 230.816406 33.792969 L 231.292969 32.953125 L 233.585938 32.953125 Z M 218.546875 48.019531 L 220.066406 46.167969 L 221.355469 43.554688 L 221.777344 41.542969 L 223.226563 40.707031 L 223.542969 41.710938 L 223.417969 46.992188 L 223.628906 47.851563 L 228.960938 48.949219 L 227.699219 56.234375 L 226.355469 57.007813 L 225.6875 56.476563 L 226.023438 58.453125 L 227.246094 61.769531 L 226.800781 62.460938 L 226.285156 62.238281 L 225.40625 63.738281 L 225.265625 67.207031 L 224.308594 74.617188 L 223.472656 74.351563 L 221.910156 72.433594 L 222.910156 68.203125 L 223.429688 67.644531 L 224.308594 63.570313 L 223.632813 57.773438 L 221.078125 57.210938 L 222.089844 58.292969 L 222.21875 59.898438 L 220.292969 61.703125 L 218.738281 60.40625 L 218.746094 59.554688 L 215.621094 58.289063 L 215.003906 56.183594 L 215.039063 55.8125 L 215.808594 55.171875 L 220.695313 54.34375 L 222.421875 53.527344 L 222.960938 52.8125 L 220.238281 48.339844 Z M 227.007813 37.527344 L 227.644531 36.726563 L 228.363281 36.574219 L 229.761719 37.023438 L 229.984375 39.984375 L 229.175781 46.582031 L 227.496094 47.179688 L 226.742188 47.023438 L 226.078125 45.398438 L 225.789063 41.242188 Z M 199.085938 97.972656 L 198.691406 98.863281 L 197.140625 100.535156 L 196.914063 100.902344 L 194.695313 101.191406 L 193.226563 103.421875 L 193.136719 102.113281 L 195.332031 98.847656 L 196.15625 98.316406 Z M 191.011719 113.945313 L 190.9375 114.371094 L 189.386719 116.042969 L 189.378906 116.054688 L 186.777344 113.90625 L 184.832031 114.03125 L 181.886719 115.097656 L 179.421875 113.335938 L 179.46875 112.492188 L 179.308594 106.617188 L 181.464844 104.882813 L 181.753906 104.792969 L 184.519531 106.003906 L 186.230469 108.273438 L 187.324219 111.371094 L 189.425781 112.382813 L 190.734375 113.441406 Z M 188.070313 118.3125 L 187.4375 120 L 187.0625 122.125 L 186.792969 122.421875 L 186.4375 122.070313 L 185.203125 119.125 L 185.941406 118.488281 Z M 183.992188 126.5 L 183.050781 131 L 183.183594 137.628906 L 182.144531 135.433594 L 180.753906 133.597656 L 178.929688 131.992188 L 176.808594 130.804688 L 173.21875 129.902344 L 165.09375 129.757813 L 168.160156 129.621094 L 169.804688 128.105469 L 171.035156 127.402344 L 172.933594 127.351563 L 173.433594 127.917969 L 177.664063 128.609375 L 178 127.714844 L 177.503906 127.214844 L 177.972656 125.796875 Z M 178.382813 119.476563 L 178.660156 118.90625 L 179.242188 116.417969 L 179.328125 114.917969 L 181.269531 116.636719 L 182.96875 119.6875 L 182.941406 120.441406 L 180.816406 120.886719 L 179.261719 120.746094 Z M 185.839844 99.09375 L 186.460938 97.832031 L 186.507813 97.613281 L 188.613281 98.375 L 189.644531 99.757813 L 189.558594 100.558594 L 189.007813 101.453125 L 189.121094 100.265625 L 187.730469 99.058594 L 186.953125 98.894531 L 186.835938 99.515625 L 186.335938 100.011719 Z M 171.554688 238.429688 L 177.90625 238.429688 L 174.761719 240.109375 L 171.492188 238.679688 Z M 179.308594 242.207031 L 179.308594 242.308594 L 176.679688 242.164063 L 173.308594 242.679688 L 170.84375 243.671875 L 168.664063 245.195313 L 170.683594 241.988281 L 171.007813 240.667969 L 178.0625 241.875 Z M 167.675781 284.953125 L 167.675781 288.832031 L 165.96875 286.660156 L 163.203125 284.328125 L 165.410156 284.859375 Z M 156.046875 281.078125 L 156.046875 277.199219 L 157.1875 279.554688 L 158.910156 281.679688 Z M 107.84375 133.355469 L 107.890625 133.34375 L 109.898438 132.566406 L 111.828125 131.351563 L 113.03125 130.222656 L 113.132813 130.527344 L 112.230469 132.714844 L 111.84375 135.628906 L 112.152344 138.054688 L 110.902344 139.289063 L 108.078125 137.890625 L 104.941406 137.324219 L 101.769531 137.628906 L 102.964844 136.109375 L 103 136.214844 L 105.253906 135.441406 Z M 113.136719 140.867188 L 113.398438 141.507813 L 112.910156 141.058594 Z M 90.136719 217.402344 L 90.136719 215.167969 L 93.410156 215.167969 L 92.019531 216.296875 L 91.816406 216.910156 L 91.171875 217.730469 Z M 86.261719 164.769531 L 83.78125 167.632813 L 83.417969 168.515625 L 82.996094 168.253906 L 81.464844 168.371094 L 81.191406 168.128906 L 80.988281 167.632813 L 80.152344 166.667969 L 81.132813 165.21875 L 82.382813 165.433594 Z M 86.261719 164.769531 "/>
</g>
</svg>
