<?xml version="1.0" encoding="UTF-8"?>
<svg xmlns="http://www.w3.org/2000/svg" xmlns:xlink="http://www.w3.org/1999/xlink" width="378pt" height="504pt" viewBox="0 0 378 504" version="1.1">
<g id="data">
<rect x="0" y="0" width="378" height="504" style="fill:rgb(100%,100%,100%);fill-opacity:1;stroke:none;"/>
<path style=" stroke:none;fill-rule:nonzero;fill:rgb(100%,100%,100%);fill-opacity:1;" d="M 53.308594 504 L 324.691406 504 L 324.691406 0 L 53.308594 0 Z M 53.308594 504 "/>
<path style=" stroke:none;fill-rule:nonzero;fill:rgb(22.745098%,53.333333%,16.078431%);fill-opacity:1;" d="M 198.171875 98.078125 L 199.269531 99 L 199.5625 99.503906 L 197.464844 100.832031 L 194.695313 101.191406 L 193.226563 103.421875 L 193.136719 102.113281 L 195.332031 98.847656 L 196.15625 98.316406 Z M 179.242188 141.832031 L 178.867188 141.527344 L 177.902344 140.066406 L 177.222656 138.585938 L 176.59375 137.703125 L 175.824219 136.964844 L 174.96875 136.414063 L 173.121094 135.796875 L 171.210938 135.683594 L 170.28125 135.550781 L 168.1875 135.082031 L 166.667969 135.066406 L 164.769531 134.726563 L 163.082031 133.78125 L 161.800781 132.339844 L 161.0625 130.558594 L 161.027344 130.003906 L 161.488281 129.921875 L 168.160156 129.621094 L 169.804688 128.105469 L 171.035156 127.402344 L 172.933594 127.351563 L 173.433594 127.917969 L 177.664063 128.609375 L 178 127.714844 L 177.503906 127.214844 L 177.972656 125.796875 L 185.5625 126.683594 L 184.539063 134.8125 L 182.976563 138.457031 L 180.960938 141.226563 Z M 174.167969 248.234375 L 172.242188 248.222656 L 170.425781 247.582031 L 168.921875 246.386719 L 167.886719 244.761719 L 167.441406 242.890625 L 167.628906 240.972656 L 168.046875 240.066406 L 168.246094 240.195313 L 178.0625 241.875 L 182.921875 243.167969 L 185.074219 242.28125 L 185.113281 242.671875 L 184.695313 244.492188 L 183.726563 246.089844 L 182.300781 247.292969 L 180.566406 247.984375 L 178.703125 248.089844 L 176.488281 247.859375 Z M 169.203125 238.085938 L 169.371094 237.839844 L 170.066406 236.183594 L 170.960938 234.710938 L 172.242188 233.566406 L 173.804688 232.847656 L 175.511719 232.617188 L 177.207031 232.894531 L 178.75 233.65625 L 180 234.835938 L 180.953125 236.042969 L 180.578125 237.003906 L 174.761719 240.109375 L 170.214844 238.117188 Z M 154.84375 286.765625 L 153.011719 286.039063 L 151.53125 284.738281 L 150.566406 283.019531 L 150.230469 281.078125 L 150.230469 277.199219 L 150.488281 275.492188 L 151.234375 273.933594 L 152.410156 272.664063 L 153.902344 271.792969 L 155.585938 271.402344 L 157.3125 271.523438 L 158.925781 272.148438 L 160.28125 273.214844 L 161.265625 274.636719 L 162.175781 276.492188 L 163.40625 277.992188 L 163.769531 278.605469 L 164.566406 278.675781 L 166.21875 279.074219 L 167.914063 279.144531 L 169.65625 279.484375 L 171.210938 280.335938 L 172.4375 281.613281 L 173.222656 283.203125 L 173.433594 284.578125 L 172.566406 284.292969 L 169.453125 284.03125 L 168.226563 288.992188 L 166.234375 288.695313 L 163.3125 290.011719 L 162.25 291.335938 L 161.765625 290.722656 L 159.457031 288.777344 L 158.316406 287.480469 L 158.28125 287.402344 L 157.710938 287.371094 Z M 173.234375 290.488281 L 173.214844 290.601563 L 172.519531 291.996094 Z M 108.660156 145.054688 L 107.722656 144.199219 L 106.324219 143.5 L 104.679688 143.191406 L 102.328125 143.417969 L 100.402344 143.28125 L 98.628906 142.523438 L 98.523438 142.429688 L 98.964844 142.257813 L 100.179688 142.804688 L 100.34375 142.296875 L 99.09375 139.5 L 98.9375 138.609375 L 99.460938 137.6875 L 102.429688 135.863281 L 102.902344 135.917969 L 103 136.214844 L 105.253906 135.441406 L 111.003906 130.808594 L 112.246094 129.429688 L 113.019531 130.191406 L 114.117188 133.539063 L 112.328125 137.878906 L 110.105469 140.078125 L 109.925781 141.289063 L 111.058594 141.910156 L 112.367188 141.523438 L 113.644531 140.4375 L 114.097656 140.800781 L 113.746094 142.269531 L 112.140625 143.671875 L 111.234375 143.917969 L 109.761719 143.558594 L 108.839844 144.542969 Z M 97.855469 141.824219 L 97.421875 141.429688 L 97.21875 139.679688 L 98.019531 139.84375 L 99.277344 141.320313 L 99.230469 141.953125 L 98.214844 141.941406 Z M 97.789063 210.824219 L 98.671875 211.683594 L 98.996094 212.300781 L 96.976563 213.15625 L 96.5625 212.070313 Z M 89.398438 170.019531 L 88.847656 170.644531 L 88.589844 171.257813 L 86.902344 171.355469 L 84.875 171.125 L 84.914063 169.441406 L 82.996094 168.253906 L 81.464844 168.371094 L 80.089844 167.152344 L 80.046875 166.824219 L 81.617188 164.507813 L 86.457031 164.699219 L 87.222656 163.867188 L 88.554688 163.523438 L 91.023438 165.660156 L 91.214844 166.0625 Z M 87.390625 173.835938 L 86.707031 174.914063 L 85.636719 175.757813 L 85.394531 175.835938 L 84.546875 175.601563 L 83.046875 174.507813 L 82.722656 173.699219 L 82.824219 172.589844 L 83.972656 171.789063 L 86.566406 172.507813 L 87.433594 173.25 Z M 84.777344 176.257813 L 83.34375 176.757813 L 82.015625 176.753906 L 82.046875 176.234375 L 83.4375 175.515625 Z M 233.101563 38.984375 L 230.96875 38.972656 L 230.324219 38.394531 L 230.816406 33.792969 L 232.058594 31.609375 L 233.582031 31.753906 L 234.398438 32.242188 L 234.613281 32.71875 Z M 227.496094 47.179688 L 226.742188 47.023438 L 226.078125 45.398438 L 225.789063 41.242188 L 227.246094 36.808594 L 228.363281 36.574219 L 229.761719 37.023438 L 229.984375 39.984375 L 229.175781 46.582031 Z M 226.023438 58.453125 L 227.246094 61.769531 L 226.800781 62.460938 L 226.285156 62.238281 L 225.40625 63.738281 L 225.265625 67.207031 L 224.308594 74.617188 L 223.472656 74.351563 L 221.910156 72.433594 L 222.910156 68.203125 L 223.429688 67.644531 L 224.308594 63.570313 L 223.632813 57.773438 L 221.078125 57.210938 L 222.089844 58.292969 L 222.21875 59.898438 L 220.292969 61.703125 L 218.738281 60.40625 L 218.746094 59.554688 L 215.621094 58.289063 L 215.003906 56.183594 L 215.039063 55.8125 L 215.808594 55.171875 L 220.695313 54.34375 L 222.421875 53.527344 L 222.960938 52.8125 L 220.238281 48.339844 L 216.699219 47.671875 L 217.085938 46.324219 L 220.816406 42.097656 L 223.226563 40.707031 L 223.542969 41.710938 L 223.417969 46.992188 L 223.628906 47.851563 L 228.960938 48.949219 L 227.699219 56.234375 L 226.355469 57.007813 L 225.6875 56.476563 Z M 189.007813 101.453125 L 189.121094 100.265625 L 187.730469 99.058594 L 186.953125 98.894531 L 186.835938 99.515625 L 186.335938 100.011719 L 184.679688 96.953125 L 188.613281 98.375 L 189.644531 99.757813 L 189.558594 100.558594 Z M 189.996094 116.5625 L 186.777344 113.90625 L 184.832031 114.03125 L 181.886719 115.097656 L 178.421875 112.621094 L 177.964844 110.527344 L 178.445313 106.398438 L 179.1875 105.574219 L 181.753906 104.792969 L 184.519531 106.003906 L 186.230469 108.273438 L 187.324219 111.371094 L 189.425781 112.382813 L 190.734375 113.441406 L 191.546875 114.902344 Z M 180.816406 120.886719 L 179.261719 120.746094 L 176.429688 116.660156 L 176.75 115.25 L 177.207031 114.695313 L 178.613281 114.28125 L 181.269531 116.636719 L 182.96875 119.6875 L 182.941406 120.441406 Z M 187.335938 122.957031 L 186.4375 122.070313 L 185.203125 119.125 L 185.941406 118.488281 L 188.300781 118.292969 L 188.792969 119.078125 L 187.910156 122.796875 Z M 88.238281 162.863281 L 87.917969 162.585938 L 88.445313 161.890625 L 89.367188 161.550781 L 89.65625 162.238281 Z M 91.515625 217.839844 L 89.652344 217.246094 L 89.414063 215.113281 L 90.1875 214.519531 L 95.1875 213.382813 L 95.671875 214.59375 L 93.804688 214.847656 L 92.019531 216.296875 Z M 91.515625 217.839844 "/>
<path style=" stroke:none;fill-rule:nonzero;fill:rgb(80.392157%,58.431373%,4.705882%);fill-opacity:1;" d="M 188.9375 224.535156 L 188.859375 224.578125 L 187.0625 224.863281 L 185.265625 224.578125 L 183.644531 223.75 L 183.375 223.484375 L 184.609375 222.886719 L 186.457031 221.386719 L 187.289063 221.316406 L 189.085938 221.875 L 189.332031 222.921875 Z M 182.046875 221.859375 L 181.53125 220.84375 L 181.246094 219.046875 L 181.53125 217.25 L 182.355469 215.628906 L 183.644531 214.339844 L 185.265625 213.515625 L 187.0625 213.230469 L 188.859375 213.515625 L 190.480469 214.339844 L 191.765625 215.628906 L 192.59375 217.25 L 192.78125 218.449219 L 191.214844 219.742188 L 185.519531 221.085938 L 182.847656 221.226563 Z M 182.046875 221.859375 "/>
<path style=" stroke:none;fill-rule:nonzero;fill:rgb(80.392157%,58.431373%,4.705882%);fill-opacity:1;" d="M 161.828125 172.734375 L 161.578125 174.320313 L 160.75 175.941406 L 159.464844 177.226563 L 157.84375 178.054688 L 156.046875 178.339844 L 154.25 178.054688 L 152.628906 177.226563 L 151.339844 175.941406 L 150.515625 174.320313 L 150.230469 172.523438 L 150.515625 170.726563 L 151.339844 169.105469 L 152.628906 167.816406 L 154.25 166.992188 L 156.046875 166.707031 L 157.335938 166.910156 L 155.320313 167.769531 L 152.441406 170.8125 L 151.949219 171.945313 L 152.140625 172.144531 L 156.390625 168.453125 L 157.75 167.980469 L 159.917969 168.273438 L 160.75 169.105469 L 160.933594 169.460938 L 157.109375 173.804688 L 156.367188 175.339844 L 156.707031 175.816406 L 157.367188 175.984375 L 158.261719 175.542969 L 161.140625 173.015625 Z M 161.828125 172.734375 "/>
<path style=" stroke:none;fill-rule:nonzero;fill:rgb(80.392157%,58.431373%,4.705882%);fill-opacity:1;" d="M 191.242188 219.71875 L 190.109375 218.585938 L 189.285156 216.964844 L 189 215.167969 L 189.285156 213.371094 L 190.109375 211.75 L 191.398438 210.464844 L 193.019531 209.636719 L 194.816406 209.355469 L 196.613281 209.636719 L 197.167969 209.921875 L 197.078125 210.023438 L 197.433594 210.839844 L 197.785156 210.703125 L 197.761719 211.238281 L 196.796875 214.386719 L 195.867188 215.914063 Z M 191.242188 219.71875 "/>
<path style=" stroke:none;fill-rule:nonzero;fill:rgb(80.392157%,58.431373%,4.705882%);fill-opacity:1;" d="M 138.601563 145.382813 L 138.316406 147.183594 L 137.488281 148.804688 L 136.203125 150.089844 L 134.582031 150.914063 L 132.785156 151.199219 L 130.988281 150.914063 L 130.140625 150.484375 L 129.429688 149.296875 L 129.746094 148.554688 L 130.132813 148.371094 L 132.507813 149.96875 L 133.015625 149.894531 L 133.449219 149.351563 L 133.714844 146.386719 L 133.191406 146.265625 L 131.136719 142.199219 L 131.269531 141.472656 L 135.539063 142.054688 L 137.308594 141.785156 L 137.488281 141.964844 L 138.316406 143.585938 Z M 138.601563 145.382813 "/>
<path style=" stroke:none;fill-rule:nonzero;fill:rgb(80.392157%,58.431373%,4.705882%);fill-opacity:1;" d="M 166.847656 161.910156 L 165.597656 162.546875 L 163.800781 162.832031 L 162.003906 162.546875 L 160.382813 161.71875 L 160.296875 161.632813 L 161.363281 161.917969 L 164.042969 162.292969 L 165.242188 161.992188 L 166.015625 161.605469 L 166.75 160.257813 L 167.589844 160.183594 L 167.507813 160.828125 Z M 158.894531 160.042969 L 158.269531 158.8125 L 157.984375 157.015625 L 158.269531 155.21875 L 159.09375 153.597656 L 160.382813 152.3125 L 162.003906 151.484375 L 163.800781 151.199219 L 165.597656 151.484375 L 167.21875 152.3125 L 167.289063 152.382813 L 162.601563 156.074219 L 162.234375 157.082031 L 162.671875 158.175781 L 162.078125 159.632813 L 159.644531 160.289063 Z M 158.894531 160.042969 "/>
<path style=" stroke:none;fill-rule:nonzero;fill:rgb(80.392157%,58.431373%,4.705882%);fill-opacity:1;" d="M 99.832031 157.015625 L 99.667969 158.03125 L 99.433594 158.316406 L 93.527344 162.226563 L 90.550781 158.175781 L 90.507813 157.148438 L 91.820313 157.980469 L 97.480469 154.929688 L 96.453125 153.484375 L 95.234375 152.652344 L 94.117188 152.148438 L 92.941406 152.324219 L 92.058594 151.863281 L 91.890625 151.652344 L 92.21875 151.484375 L 94.015625 151.199219 L 95.8125 151.484375 L 97.433594 152.3125 L 98.71875 153.597656 L 99.546875 155.21875 Z M 91.824219 155.515625 L 91.882813 154.726563 L 92.882813 153.957031 L 93.789063 153.890625 L 93.378906 155.476563 Z M 91.824219 155.515625 "/>
<path style=" stroke:none;fill-rule:nonzero;fill:rgb(80.392157%,58.431373%,4.705882%);fill-opacity:1;" d="M 85.644531 188.941406 L 85.59375 188.964844 L 84.328125 188.382813 L 82.6875 188.554688 L 82.128906 188.101563 L 81.921875 187.375 L 81.515625 184.671875 L 81.910156 178.414063 L 82.382813 178.339844 L 84.183594 178.625 L 85.03125 179.058594 L 85.140625 186.4375 L 86.054688 188.15625 Z M 85.644531 188.941406 "/>
<path style=" stroke:none;fill-rule:nonzero;fill:rgb(80.392157%,58.431373%,4.705882%);fill-opacity:1;" d="M 123.09375 253.9375 L 122.808594 255.734375 L 121.980469 257.355469 L 120.695313 258.644531 L 119.074219 259.46875 L 117.578125 259.707031 L 117.992188 256.269531 L 120.617188 249.195313 L 120.695313 249.234375 L 121.980469 250.519531 L 122.808594 252.140625 Z M 123.09375 253.9375 "/>
<path style=" stroke:none;fill-rule:nonzero;fill:rgb(80.392157%,58.431373%,4.705882%);fill-opacity:1;" d="M 123.09375 250.0625 L 122.808594 251.859375 L 121.980469 253.480469 L 120.695313 254.765625 L 119.074219 255.59375 L 118.191406 255.730469 L 120.664063 249.058594 L 119.164063 246.890625 L 119.261719 244.625 L 120.695313 245.355469 L 121.980469 246.644531 L 122.808594 248.265625 Z M 123.09375 250.0625 "/>
</g>
</svg>
