<?xml version="1.0" encoding="UTF-8"?>
<svg xmlns="http://www.w3.org/2000/svg" xmlns:xlink="http://www.w3.org/1999/xlink" width="378pt" height="504pt" viewBox="0 0 378 504" version="1.1">
<g id="data">
<rect x="0" y="0" width="378" height="504" style="fill:rgb(100%,100%,100%);fill-opacity:1;stroke:none;"/>
<path style=" stroke:none;fill-rule:nonzero;fill:rgb(100%,100%,100%);fill-opacity:1;" d="M 53.308594 504 L 324.691406 504 L 324.691406 0 L 53.308594 0 Z M 53.308594 504 "/>
<path style=" stroke:none;fill-rule:nonzero;fill:rgb(22.745098%,53.333333%,16.078431%);fill-opacity:1;" d="M 198.691406 401.261719 L 200.960938 400.378906 L 202.894531 399.128906 L 204.625 397.417969 L 205.902344 395.5 L 206.8125 393.246094 L 207.238281 390.851563 L 207.152344 388.421875 L 206.605469 386.183594 L 207.65625 388.21875 L 209.085938 390.011719 L 210.839844 391.488281 L 212.964844 392.640625 L 215.285156 393.328125 L 218.078125 393.507813 L 221.1875 394.148438 L 223.605469 394.054688 L 225.832031 393.507813 L 227.753906 394.910156 L 229.917969 395.894531 L 229.707031 397.382813 L 228.019531 399.488281 L 226.90625 401.800781 L 226.375 403.917969 L 226.257813 406.226563 L 226.628906 408.636719 L 227.554688 411.03125 L 228.902344 413.066406 L 230.746094 414.855469 L 233.644531 416.5 L 236.761719 417.242188 L 239.328125 417.207031 L 245.007813 416.175781 L 247.003906 415.296875 L 248.804688 414.058594 L 251.496094 410.804688 L 252.453125 408.5625 L 252.96875 405.136719 L 254.101563 402.320313 L 254.464844 399.433594 L 256.621094 400.511719 L 259.078125 401.144531 L 262.722656 401.425781 L 266.519531 401.101563 L 268.753906 400.496094 L 270.925781 399.390625 L 272.734375 397.945313 L 274.214844 396.171875 L 275.371094 394.023438 L 276.070313 391.550781 L 276.503906 382.070313 L 276.082031 379.8125 L 275.226563 377.679688 L 273.964844 375.761719 L 272.5 374.269531 L 272.644531 373.894531 L 274.523438 372.417969 L 276.121094 370.386719 L 276.925781 370.246094 L 280.109375 370.246094 L 282.945313 371.417969 L 285.859375 371.804688 L 288.902344 371.417969 L 289.746094 371.066406 L 292.648438 371.378906 L 293.625 372.59375 L 297.910156 376.113281 L 300.519531 377.402344 L 303.371094 378 L 301.59375 379.980469 L 300.363281 382.195313 L 299.664063 384.496094 L 299.328125 387.628906 L 299.640625 390.761719 L 300.363281 393.191406 L 301.59375 395.40625 L 303.371094 397.382813 L 300.917969 400.4375 L 299.972656 402.652344 L 299.492188 405.136719 L 297.71875 407.117188 L 296.488281 409.332031 L 295.757813 412.304688 L 295.578125 412.011719 L 292.742188 410.515625 L 292.480469 410.636719 L 293.898438 413.703125 L 294.304688 414.304688 L 294.066406 414.566406 L 292.871094 416.507813 L 292.113281 418.523438 L 291.738281 420.644531 L 291.136719 421.464844 L 290.003906 421.65625 L 289.660156 421.574219 L 288.214844 419.332031 L 284.976563 421.730469 L 280.71875 424.230469 L 282.339844 425.378906 L 285.105469 424.398438 L 286.097656 423.375 L 286.894531 423.164063 L 287.328125 423.710938 L 287.632813 428.84375 L 285.6875 430.875 L 283.441406 432.558594 L 282.84375 432.699219 L 279.644531 432.160156 L 274.75 433.78125 L 272.609375 436.117188 L 274.253906 436.015625 L 275.152344 434.667969 L 276.683594 434.363281 L 278.285156 434.328125 L 281.054688 434.949219 L 281.828125 435.589844 L 281.691406 436.328125 L 279.554688 436.347656 L 277.390625 437.65625 L 277.96875 438.546875 L 281.382813 438.964844 L 286.863281 440.339844 L 289.394531 439.9375 L 291.074219 438.957031 L 294.59375 438.46875 L 295.191406 438.84375 L 297.222656 439.628906 L 299.492188 440.03125 L 299.492188 447.785156 L 297.320313 449.492188 L 296.707031 450.273438 L 295.839844 450.375 L 292.621094 451.640625 L 291.179688 452.742188 L 290.667969 453.316406 L 289.738281 453.835938 L 287.863281 455.539063 L 285.617188 455.945313 L 283.496094 456.785156 L 281.480469 458.101563 L 277.21875 461.910156 L 275.914063 462.519531 L 274.789063 462.777344 L 273.84375 463.222656 L 272.414063 463.539063 L 266.851563 463.132813 L 264.601563 463.292969 L 263.964844 460.289063 L 262.492188 457.449219 L 260.300781 455.121094 L 257.558594 453.476563 L 255.484375 452.8125 L 253.195313 452.546875 L 251.023438 452.714844 L 248.800781 453.332031 L 245.3125 455.453125 L 242.703125 458.703125 L 241.445313 462.410156 L 241.179688 464.917969 L 241.339844 467.167969 L 239.996094 467.308594 L 238.210938 466.1875 L 238.632813 465.4375 L 239.46875 464.933594 L 237.714844 463.296875 L 231.496094 463.171875 L 231.378906 463.496094 L 232.574219 464.835938 L 232.214844 465.75 L 231.738281 466.042969 L 226.691406 465.496094 L 221.265625 467.746094 L 219.953125 467.421875 L 216.503906 467.597656 L 214.917969 468.183594 L 210.222656 468.96875 L 208.164063 468.875 L 207.273438 468.058594 L 206.238281 469.769531 L 209.429688 471.089844 L 209.714844 470.9375 L 209.878906 471.355469 L 208.515625 472.40625 L 206.835938 474.449219 L 204.453125 473.097656 L 203.015625 472.699219 L 198.546875 472.125 L 196.691406 471.355469 L 193.441406 470.898438 L 190.9375 471.046875 L 191.554688 468.289063 L 191.488281 465.464844 L 190.742188 462.738281 L 189.285156 460.171875 L 187.226563 458.054688 L 184.820313 456.574219 L 182.128906 455.71875 L 179.308594 455.539063 L 180.671875 453.683594 L 181.644531 451.597656 L 182.1875 449.363281 L 182.277344 447.0625 L 181.917969 444.789063 L 181.261719 443.035156 L 182.519531 440.25 L 185.90625 436.980469 L 187.0625 436.152344 L 189.738281 435.839844 L 192.15625 434.976563 L 195.195313 432.835938 L 197.339844 429.964844 L 198.347656 427.324219 L 198.691406 424.523438 L 200.792969 421.160156 L 201.644531 417.285156 L 201.535156 415.101563 L 200.976563 412.859375 L 200.054688 410.882813 L 198.691406 409.015625 L 199.359375 405.136719 Z M 233.847656 469.46875 L 231.554688 471.570313 L 230.109375 474.191406 L 229.960938 474.269531 L 229.414063 474.378906 L 228.1875 472.109375 L 225.953125 469.816406 L 223.617188 468.464844 L 227.316406 466.367188 L 232.550781 467.761719 Z M 249.09375 385.753906 L 249.09375 389.628906 L 247.171875 388.226563 L 245.003906 387.242188 L 245.214844 385.753906 Z M 240.71875 318.878906 L 241.339844 315.96875 L 244.558594 316.617188 L 242.527344 317.5625 Z M 206.445313 250.0625 L 207.582031 252.636719 L 209.308594 254.863281 L 211.625 256.679688 L 214.199219 257.816406 L 215.90625 259.984375 L 218.078125 261.691406 L 215.695313 263.707031 L 213.386719 260.808594 L 210.285156 258.785156 L 206.957031 257.867188 L 202.570313 257.816406 L 202.160156 254.019531 L 200.546875 250.558594 L 203.464844 250.699219 Z M 214.199219 300.460938 L 214.480469 296.886719 L 216.214844 298.082031 Z M 206.445313 281.078125 L 209.894531 280.25 L 212.933594 278.425781 L 211.597656 280.273438 L 210.605469 282.464844 L 210.085938 284.8125 L 210.046875 287.089844 L 208.710938 283.804688 Z M 183.183594 343.109375 L 184.191406 345.609375 L 185.746094 347.8125 L 187.765625 349.597656 L 190.144531 350.871094 L 192.242188 351.476563 L 194.417969 351.679688 L 196.59375 351.472656 L 198.691406 350.863281 L 202.570313 350.863281 L 202.570313 354.738281 L 199.910156 352.953125 L 196.734375 351.9375 L 193.40625 351.863281 L 190.1875 352.738281 L 187.0625 354.738281 L 184.941406 355.113281 L 184.660156 355.21875 L 183.8125 354.640625 L 182.074219 350.878906 L 182.5 350.074219 L 183.285156 346.238281 Z M 183.53125 355.652344 L 182.808594 355.925781 L 180.105469 357.800781 L 180.09375 357.8125 L 178.738281 355.363281 L 181.082031 352.757813 L 181.183594 352.570313 L 181.503906 352.695313 L 181.914063 353.875 L 182.898438 354.332031 Z M 179.125 358.808594 L 178.074219 359.890625 L 176.796875 361.78125 L 175.875 364.003906 L 175.429688 366.371094 L 174.292969 363.792969 L 172.570313 361.566406 L 170.363281 359.820313 L 167.675781 358.617188 L 170.722656 358.925781 L 173.617188 358.46875 L 176.308594 357.300781 L 176.78125 356.929688 Z M 167.675781 242.308594 L 170.082031 242.621094 L 172.371094 242.449219 L 174.585938 241.832031 L 175.394531 241.417969 L 178.0625 241.875 L 182.921875 243.167969 L 186.398438 241.730469 L 187.519531 239.417969 L 188.617188 238.355469 L 189.539063 238.171875 L 190.796875 238.285156 L 190.9375 238.429688 L 191.347656 242.226563 L 192.960938 245.6875 L 189.914063 245.558594 L 187.0625 246.183594 L 179.308594 246.183594 L 176.347656 244.980469 L 173.300781 244.628906 L 170.390625 245.046875 L 167.675781 246.183594 Z M 186.035156 232.054688 L 186.765625 230.148438 L 187.078125 232.082031 L 187.070313 232.078125 Z M 157.460938 481.710938 L 159.632813 480.132813 L 161.386719 478.097656 L 162.625 475.71875 L 163.285156 473.113281 L 163.332031 470.429688 L 162.761719 467.808594 L 161.605469 465.386719 L 159.921875 463.292969 L 161.65625 464.585938 L 163.597656 465.535156 L 167.710938 466.285156 L 167.011719 471.046875 L 167.675781 474.921875 L 165.53125 477.277344 L 164.101563 480.125 L 163.496094 483.382813 L 163.769531 486.230469 L 163.695313 486.441406 L 161.058594 483.570313 Z M 136.660156 409.015625 L 136.660156 407.09375 L 137.585938 406.550781 L 140.539063 406.636719 L 140.539063 409.015625 L 136.933594 409.882813 Z M 117.277344 486.554688 L 117.644531 486.261719 L 118.144531 485.910156 L 118.65625 485.46875 L 119.445313 484.847656 L 119.589844 484.664063 L 121.425781 483.085938 L 122.328125 482.074219 L 123.984375 481.21875 L 126.316406 479.046875 L 128.164063 475.851563 L 128.730469 473.183594 L 129.066406 473.128906 L 129.609375 475.730469 L 131.261719 478.746094 L 133.621094 481.070313 L 136.660156 482.675781 L 134.085938 483.8125 L 132.976563 484.671875 L 132.167969 484.859375 L 129.414063 488.195313 L 127.597656 489.238281 L 126.554688 488.285156 L 123.582031 486.816406 L 120.449219 486.25 Z M 131.734375 427.429688 L 131.027344 426.785156 L 129.183594 425.664063 L 129.152344 425.652344 L 130.691406 424.882813 L 131.214844 426.183594 L 132.035156 427.355469 Z M 126.164063 424.460938 L 127.664063 424.375 L 130.195313 423.640625 L 130.453125 424.28125 L 127.769531 424.613281 Z M 286.679688 439.636719 L 283.058594 438.976563 L 282.164063 437.605469 L 282.484375 436.070313 L 286.839844 437.054688 L 287.960938 438.832031 Z M 236.835938 466.113281 L 235.136719 465.644531 L 236.523438 463.683594 L 237.195313 464.164063 L 237.5 465.839844 Z M 236.835938 466.113281 "/>
</g>
</svg>
