<?xml version="1.0" encoding="UTF-8"?>
<svg xmlns="http://www.w3.org/2000/svg" xmlns:xlink="http://www.w3.org/1999/xlink" width="378pt" height="504pt" viewBox="0 0 378 504" version="1.1">
<g id="data">
<rect x="0" y="0" width="378" height="504" style="fill:rgb(100%,100%,100%);fill-opacity:1;stroke:none;"/>
<path style=" stroke:none;fill-rule:nonzero;fill:rgb(100%,100%,100%);fill-opacity:1;" d="M 53.308594 504 L 324.691406 504 L 324.691406 0 L 53.308594 0 Z M 53.308594 504 "/>
<path style=" stroke:none;fill-rule:nonzero;fill:rgb(22.745098%,53.333333%,16.078431%);fill-opacity:1;" d="M 241.375 304.695313 L 241.71875 308.019531 L 243.308594 311.5 L 245.839844 314.203125 L 249.09375 315.96875 L 248.84375 323.78125 L 249.394531 326.273438 L 250.410156 328.476563 L 252.035156 330.605469 L 255.261719 333.46875 L 257.765625 334.703125 L 263.316406 342.46875 L 263.640625 343.980469 L 262.804688 345.191406 L 263.28125 343.65625 L 262.507813 342.839844 L 260.445313 342 L 258.378906 342.789063 L 257.507813 342.753906 L 256.035156 341.773438 L 253.664063 338.65625 L 252.601563 338.082031 L 245.550781 339.511719 L 244.589844 338.644531 L 243.40625 338.558594 L 241.210938 339.871094 L 241.886719 340.445313 L 246.324219 340.394531 L 249.617188 339.34375 L 251.976563 339.082031 L 254.382813 342.558594 L 260.535156 347.621094 L 263.042969 349.058594 L 263.664063 349.039063 L 264.4375 350.070313 L 264.972656 352.984375 L 266.347656 356.109375 L 268.476563 358.617188 L 269.070313 362.28125 L 269.460938 363.035156 L 269.210938 365.21875 L 264.953125 369.09375 L 261.394531 373.164063 L 260.601563 374.816406 L 262.84375 374.3125 L 264.9375 375.519531 L 266.9375 378.226563 L 270.21875 378.804688 L 270.625 378.746094 L 271.910156 376.796875 L 272.234375 374.960938 L 273.40625 371.914063 L 274.707031 370.632813 L 277.851563 370.085938 L 278.710938 370.109375 L 283.601563 370.90625 L 284.25 370.867188 L 284.253906 370.867188 L 286.703125 370.742188 L 287.710938 370.851563 L 287.117188 373.234375 L 287.179688 376.3125 L 288.050781 379.269531 L 289.75 381.988281 L 292.019531 384.070313 L 295.617188 385.753906 L 298.667969 388.203125 L 300.882813 389.148438 L 303.371094 389.628906 L 305.074219 391.800781 L 306.785156 393.144531 L 306.777344 393.191406 L 306.890625 393.976563 L 305.789063 396.917969 L 305.167969 399.90625 L 304.617188 400.773438 L 303.777344 402.894531 L 303.371094 405.136719 L 301.894531 406.710938 L 300.738281 408.527344 L 299.902344 410.648438 L 299.679688 411.867188 L 297.144531 414.53125 L 295.578125 412.011719 L 292.742188 410.515625 L 292.480469 410.636719 L 293.898438 413.703125 L 295.890625 416.628906 L 296.3125 416.765625 L 296.164063 417.742188 L 294.574219 419.804688 L 292.191406 421.289063 L 290.003906 421.65625 L 289.660156 421.574219 L 288.214844 419.332031 L 284.976563 421.730469 L 280.71875 424.230469 L 282.339844 425.378906 L 285.105469 424.398438 L 286.097656 423.375 L 286.894531 423.164063 L 287.328125 423.710938 L 287.632813 428.84375 L 285.6875 430.875 L 283.441406 432.558594 L 282.84375 432.699219 L 279.644531 432.160156 L 274.75 433.78125 L 272.609375 436.117188 L 274.253906 436.015625 L 275.152344 434.667969 L 276.683594 434.363281 L 278.285156 434.328125 L 281.054688 434.949219 L 281.828125 435.589844 L 281.691406 436.328125 L 279.554688 436.347656 L 277.390625 437.65625 L 277.96875 438.546875 L 281.382813 438.964844 L 286.863281 440.339844 L 289.394531 439.9375 L 291.074219 438.957031 L 296.394531 438.222656 L 299.492188 440.03125 L 296.882813 440.550781 L 294.460938 441.648438 L 292.535156 443.089844 L 290.113281 445.683594 L 288.886719 447.753906 L 288.113281 450.03125 L 287.710938 453.035156 L 287.863281 455.539063 L 285.253906 456.058594 L 282.832031 457.15625 L 278.207031 460.859375 L 277.074219 462.253906 L 274.789063 462.777344 L 272.597656 463.816406 L 272.15625 464.414063 L 271.980469 464.480469 L 270.050781 465.695313 L 268.96875 466.710938 L 267.488281 466.261719 L 266.703125 465.542969 L 264.632813 464.316406 L 257.011719 461.925781 L 252.929688 461.902344 L 249.09375 463.292969 L 246.359375 462.683594 L 243.691406 462.726563 L 240.132813 463.730469 L 238.953125 464.453125 L 237.714844 463.296875 L 231.496094 463.171875 L 231.378906 463.496094 L 232.574219 464.835938 L 232.214844 465.75 L 231.738281 466.042969 L 226.691406 465.496094 L 219.566406 468.449219 L 217.054688 467.824219 L 210.222656 468.96875 L 208.164063 468.875 L 207.273438 468.058594 L 206.238281 469.769531 L 209.429688 471.089844 L 209.714844 470.9375 L 210.1875 472.128906 L 209.566406 473.890625 L 206.84375 474.453125 L 204.453125 473.097656 L 203.015625 472.699219 L 197.625 472.007813 L 196.175781 472.65625 L 195.679688 473.863281 L 195.78125 474.523438 L 195.257813 474.742188 L 194.851563 473.972656 L 193.832031 473.21875 L 192.898438 471.601563 L 190.007813 469.085938 L 186.453125 467.644531 L 182.625 467.4375 L 178.707031 468.601563 L 177.320313 469.632813 L 176.207031 469.78125 L 174.339844 470.335938 L 168.992188 473.234375 L 168.214844 474.070313 L 167.203125 476.179688 L 166.382813 478.578125 L 163.800781 478.136719 L 159.921875 478.800781 L 156.4375 477.519531 L 152.851563 477.386719 L 150.351563 477.96875 L 148.039063 479.082031 L 146.027344 480.679688 L 144.414063 482.675781 L 140.539063 482.675781 L 138.519531 482.382813 L 140.152344 479.785156 L 141.03125 476.980469 L 141.164063 473.917969 L 140.539063 471.046875 L 143.214844 470.734375 L 145.75 469.8125 L 148.003906 468.335938 L 149.855469 466.375 L 151.574219 463.082031 L 152.167969 459.414063 L 154.144531 458.503906 L 155.917969 457.242188 L 157.421875 455.671875 L 158.609375 453.847656 L 159.691406 450.84375 L 159.921875 447.785156 L 161.367188 446.15625 L 161.4375 446.035156 L 164.597656 446.761719 L 166.046875 446.148438 L 167.527344 446.515625 L 169.484375 447.285156 L 170.039063 448.109375 L 170.757813 448.421875 L 173.15625 448.464844 L 180.570313 447.503906 L 181.109375 445.632813 L 181.203125 443.378906 L 181.546875 443.367188 L 184.507813 442.515625 L 187.136719 440.917969 L 189.257813 438.683594 L 190.714844 435.976563 L 191.464844 431.949219 L 191.394531 431.457031 L 195.792969 425.3125 L 197.929688 424.472656 L 198.285156 423.78125 L 198.070313 423.238281 L 197.8125 423.082031 L 196.09375 424.355469 L 192.90625 427.300781 L 191.085938 429.398438 L 190.9375 428.398438 L 190.9375 420.644531 L 191.253906 417.984375 L 190.953125 415.324219 L 189.554688 411.90625 L 187.0625 409.015625 L 187.71875 406.664063 L 187.863281 404.097656 L 187.441406 401.566406 L 186.535156 399.296875 L 185.175781 397.273438 L 183.523438 395.652344 L 181.582031 394.394531 L 179.308594 393.507813 L 179.972656 389.628906 L 179.308594 385.753906 L 181.582031 388.359375 L 184.40625 390.132813 L 187.617188 391.03125 L 190.949219 390.980469 L 194.816406 389.628906 L 197.664063 389.03125 L 200.273438 387.742188 L 203.0625 385.164063 L 204.898438 381.789063 L 205.503906 378.769531 L 205.300781 375.699219 L 204.300781 372.789063 L 202.570313 370.246094 L 204.765625 369.203125 L 206.699219 367.730469 L 208.28125 365.882813 L 209.445313 363.75 L 210.164063 361.296875 L 210.824219 355.964844 L 210.347656 351.769531 L 209.140625 349.078125 L 207.199219 346.6875 L 204.699219 344.890625 L 201.941406 343.84375 L 199.007813 343.523438 L 195.964844 343.984375 L 193.261719 345.164063 L 190.9375 346.984375 L 192.109375 344.148438 L 192.496094 341.234375 L 192.109375 338.191406 L 190.9375 335.355469 L 191.710938 333.230469 L 194.546875 334.953125 L 197.628906 335.789063 L 200.570313 335.789063 L 205.085938 334.878906 L 207.324219 333.929688 L 209.316406 332.53125 L 210.976563 330.75 L 212.175781 328.78125 L 213.1875 325.480469 L 213.1875 322.03125 L 212.171875 318.730469 L 210.324219 315.96875 L 212.558594 314.039063 L 214.230469 311.605469 L 215.242188 308.832031 L 215.519531 305.890625 L 215.117188 303.222656 L 214.050781 300.609375 L 212.382813 298.328125 L 210.324219 296.585938 L 210.96875 293.367188 L 212.292969 295.992188 L 214.328125 298.289063 L 219.945313 301.824219 L 221.921875 302.746094 L 224.929688 303.386719 L 228.003906 303.21875 L 231.039063 302.191406 L 233.0625 300.816406 L 234.855469 301.652344 L 235.15625 301.933594 L 237.085938 303.148438 L 239.09375 303.929688 L 240.148438 304.121094 Z M 237.417969 465.390625 L 237.296875 465.464844 L 236.734375 466.082031 L 235.136719 465.644531 L 236.523438 463.683594 L 237.195313 464.164063 Z M 234.148438 469.863281 L 234.066406 470.03125 L 233.304688 471 L 229.707031 470.382813 L 225.832031 471.046875 L 222.089844 469.71875 L 221.445313 469.714844 L 221.476563 469.683594 L 227.316406 466.367188 L 232.550781 467.761719 Z M 179.308594 234.554688 L 181.300781 235.441406 L 181.429688 235.472656 L 181.046875 235.800781 L 180.578125 237.003906 L 179.800781 237.421875 Z M 193.648438 238.820313 L 194.027344 240.371094 L 195.167969 242.671875 L 196.695313 244.574219 L 198.691406 246.183594 L 197.523438 249.019531 L 197.132813 251.9375 L 197.523438 254.980469 L 198.691406 257.816406 L 198.691406 261.691406 L 197.554688 259.117188 L 195.832031 256.890625 L 193.625 255.140625 L 190.9375 253.9375 L 190.734375 251.765625 L 190.078125 249.546875 L 188.996094 247.503906 L 187.53125 245.714844 L 185.742188 244.25 L 183.699219 243.167969 L 183.25 243.03125 L 186.398438 241.730469 L 187.519531 239.417969 L 188.617188 238.355469 L 189.539063 238.171875 L 193.183594 238.5 Z M 179.914063 242.367188 L 179.308594 242.308594 L 179.324219 242.210938 Z M 175.429688 319.390625 L 175.429688 314.609375 L 174.949219 311.933594 L 178.320313 314.585938 L 181.492188 315.921875 L 184.273438 316.285156 L 190.9375 315.96875 L 189.019531 318.457031 L 187.835938 321.363281 L 187.664063 321.257813 L 187.71875 320.933594 L 187.855469 317.484375 L 185.410156 319.871094 L 185.117188 319.691406 L 181.917969 318.804688 L 178.601563 318.859375 L 175.652344 319.777344 Z M 171.554688 358.617188 L 173.796875 358.207031 L 175.804688 357.425781 L 176.699219 356.863281 L 179.878906 359.414063 L 179.570313 360.0625 L 179.003906 363.199219 L 179.308594 366.371094 L 178.171875 363.792969 L 176.445313 361.566406 L 174.238281 359.820313 Z M 178.703125 355.304688 L 179.308594 354.738281 L 182.863281 354.3125 L 182.898438 354.332031 L 183.042969 354.628906 L 180.894531 357.304688 L 180.390625 358.351563 Z M 175.578125 289.21875 L 175.429688 288.832031 L 176.695313 288.972656 Z M 121.152344 494.308594 L 120.703125 493.796875 L 121.390625 493.613281 Z M 286.679688 439.636719 L 283.058594 438.976563 L 282.164063 437.605469 L 282.484375 436.070313 L 286.839844 437.054688 L 287.960938 438.832031 Z M 286.679688 439.636719 "/>
<path style=" stroke:none;fill-rule:nonzero;fill:rgb(80.392157%,58.431373%,4.705882%);fill-opacity:1;" d="M 154.109375 416.769531 L 153.824219 418.566406 L 152.996094 420.1875 L 151.710938 421.472656 L 150.089844 422.300781 L 148.292969 422.585938 L 146.496094 422.300781 L 144.875 421.472656 L 143.585938 420.1875 L 142.761719 418.566406 L 142.476563 416.769531 L 142.761719 414.972656 L 143.585938 413.351563 L 144.875 412.066406 L 146.496094 411.238281 L 148.292969 410.953125 L 150.089844 411.238281 L 151.710938 412.066406 L 152.996094 413.351563 L 153.824219 414.972656 Z M 154.109375 416.769531 "/>
<path style=" stroke:none;fill-rule:nonzero;fill:rgb(80.392157%,58.431373%,4.705882%);fill-opacity:1;" d="M 169.617188 269.445313 L 169.332031 271.242188 L 168.503906 272.863281 L 167.21875 274.152344 L 165.597656 274.976563 L 163.800781 275.261719 L 162.003906 274.976563 L 160.382813 274.152344 L 159.09375 272.863281 L 158.269531 271.242188 L 157.984375 269.445313 L 158.269531 267.648438 L 159.09375 266.027344 L 160.382813 264.742188 L 162.003906 263.914063 L 163.800781 263.628906 L 165.597656 263.914063 L 167.21875 264.742188 L 168.503906 266.027344 L 169.332031 267.648438 Z M 169.617188 269.445313 "/>
<path style=" stroke:none;fill-rule:nonzero;fill:rgb(80.392157%,58.431373%,4.705882%);fill-opacity:1;" d="M 169.617188 211.292969 L 169.332031 213.089844 L 168.503906 214.710938 L 167.21875 215.996094 L 165.597656 216.824219 L 163.800781 217.109375 L 162.003906 216.824219 L 160.382813 215.996094 L 159.09375 214.710938 L 158.269531 213.089844 L 157.984375 211.292969 L 158.269531 209.496094 L 159.09375 207.875 L 160.382813 206.585938 L 162.003906 205.761719 L 163.800781 205.476563 L 165.597656 205.761719 L 167.21875 206.585938 L 168.503906 207.875 L 169.332031 209.496094 Z M 169.617188 211.292969 "/>
<path style=" stroke:none;fill-rule:nonzero;fill:rgb(80.392157%,58.431373%,4.705882%);fill-opacity:1;" d="M 189 288.832031 L 188.714844 290.628906 L 187.890625 292.25 L 186.601563 293.535156 L 184.980469 294.363281 L 183.183594 294.644531 L 181.386719 294.363281 L 179.765625 293.535156 L 178.480469 292.25 L 177.652344 290.628906 L 177.371094 288.832031 L 177.652344 287.035156 L 178.128906 286.097656 L 178.757813 285.980469 L 180.191406 286.804688 L 182.933594 286.238281 L 183.03125 285.160156 L 182.34375 284.746094 L 180.035156 285.351563 L 178.636719 285.257813 L 179.765625 284.125 L 181.386719 283.300781 L 183.183594 283.015625 L 184.980469 283.300781 L 186.601563 284.125 L 187.890625 285.414063 L 188.714844 287.035156 Z M 189 288.832031 "/>
<path style=" stroke:none;fill-rule:nonzero;fill:rgb(80.392157%,58.431373%,4.705882%);fill-opacity:1;" d="M 161.863281 428.398438 L 161.578125 430.195313 L 160.589844 431.980469 L 159.03125 429.199219 L 155.65625 429.589844 L 151.175781 431.496094 L 150.515625 430.195313 L 150.296875 428.820313 L 152.765625 427.832031 L 153.085938 427.097656 L 152.808594 426.597656 L 150.550781 426.535156 L 151.339844 424.980469 L 152.628906 423.695313 L 154.25 422.871094 L 156.046875 422.585938 L 157.84375 422.871094 L 159.464844 423.695313 L 160.75 424.980469 L 161.578125 426.601563 Z M 161.863281 428.398438 "/>
<path style=" stroke:none;fill-rule:nonzero;fill:rgb(80.392157%,58.431373%,4.705882%);fill-opacity:1;" d="M 133.011719 261.835938 L 132.324219 262.519531 L 130.703125 263.347656 L 129.070313 263.605469 L 126.582031 261.613281 L 125.375 256.128906 L 125.988281 253.21875 L 126.914063 252.386719 L 128.90625 252 L 130.488281 252.25 L 131.390625 253.015625 L 132.984375 258.382813 Z M 133.011719 261.835938 "/>
<path style=" stroke:none;fill-rule:nonzero;fill:rgb(80.392157%,58.431373%,4.705882%);fill-opacity:1;" d="M 124.636719 490.40625 L 123.375 488.351563 L 123.09375 486.554688 L 123.375 484.757813 L 124.203125 483.136719 L 125.488281 481.847656 L 127.109375 481.023438 L 128.90625 480.738281 L 130.703125 481.023438 L 132.324219 481.847656 L 133.613281 483.136719 L 134.246094 484.378906 L 132.167969 484.859375 L 129.414063 488.195313 L 126.714844 489.746094 Z M 124.636719 490.40625 "/>
<path style=" stroke:none;fill-rule:nonzero;fill:rgb(80.392157%,58.431373%,4.705882%);fill-opacity:1;" d="M 189 168.644531 L 188.714844 170.441406 L 187.890625 172.0625 L 186.601563 173.351563 L 184.980469 174.175781 L 183.183594 174.460938 L 181.386719 174.175781 L 179.765625 173.351563 L 178.480469 172.0625 L 177.652344 170.441406 L 177.371094 168.644531 L 177.953125 166.257813 L 178.648438 166.167969 L 179.285156 167.089844 L 180.148438 167.667969 L 184.320313 169.011719 L 187.675781 167.128906 L 188.789063 167.308594 Z M 189 168.644531 "/>
<path style=" stroke:none;fill-rule:nonzero;fill:rgb(80.392157%,58.431373%,4.705882%);fill-opacity:1;" d="M 196.753906 168.644531 L 196.46875 170.441406 L 195.644531 172.0625 L 194.355469 173.351563 L 192.734375 174.175781 L 190.9375 174.460938 L 189.140625 174.175781 L 187.519531 173.351563 L 186.234375 172.0625 L 185.40625 170.441406 L 185.125 168.644531 L 187.675781 167.128906 Z M 196.753906 168.644531 "/>
<path style=" stroke:none;fill-rule:nonzero;fill:rgb(80.392157%,58.431373%,4.705882%);fill-opacity:1;" d="M 166.011719 438.296875 L 166.847656 436.613281 L 168.136719 435.324219 L 169.757813 434.5 L 171.554688 434.214844 L 173.351563 434.5 L 174.972656 435.324219 L 176.257813 436.613281 L 177.101563 438.347656 L 176.445313 439.273438 L 174.058594 439.917969 L 170.558594 439.851563 L 166.820313 439 Z M 166.011719 438.296875 "/>
<path style=" stroke:none;fill-rule:nonzero;fill:rgb(80.392157%,58.431373%,4.705882%);fill-opacity:1;" d="M 115.339844 490.429688 L 115.054688 492.226563 L 114.609375 493.097656 L 112.253906 492.070313 L 111.410156 491.984375 L 110.375 492.488281 L 110.242188 494.183594 L 109.421875 495.128906 L 107.050781 495.617188 L 105.425781 494.453125 L 105.628906 491.574219 L 106.074219 490.5625 L 111.738281 488.078125 L 112.199219 488.253906 L 112.445313 488.9375 L 113.574219 489.15625 L 114.855469 488.246094 Z M 115.339844 490.429688 "/>
<path style=" stroke:none;fill-rule:nonzero;fill:rgb(80.392157%,58.431373%,4.705882%);fill-opacity:1;" d="M 163.046875 166.589844 L 161.808594 166.324219 L 161.53125 165.507813 L 160.382813 165.597656 L 159.09375 164.308594 L 158.269531 162.6875 L 158.003906 161.023438 L 164.042969 162.292969 L 166.015625 161.605469 L 166.75 160.257813 L 167.589844 160.183594 L 167.507813 160.828125 L 166.417969 162.609375 Z M 158.15625 159.796875 L 159.09375 157.472656 L 160.382813 156.1875 L 162.003906 155.363281 L 163.855469 155.085938 L 162.601563 156.074219 L 162.234375 157.082031 L 162.671875 158.175781 L 162.078125 159.632813 L 159.644531 160.289063 Z M 158.15625 159.796875 "/>
<path style=" stroke:none;fill-rule:nonzero;fill:rgb(80.392157%,58.431373%,4.705882%);fill-opacity:1;" d="M 173.492188 304.339844 L 173.207031 306.136719 L 172.382813 307.757813 L 170.574219 309.308594 L 167.40625 304.652344 L 169.296875 298.78125 L 171.09375 299.632813 L 172.382813 300.921875 L 173.207031 302.542969 Z M 173.492188 304.339844 "/>
<path style=" stroke:none;fill-rule:nonzero;fill:rgb(80.392157%,58.431373%,4.705882%);fill-opacity:1;" d="M 178.414063 112.574219 L 181.105469 112.714844 L 182.726563 113.542969 L 183.644531 114.460938 L 181.886719 115.097656 Z M 180.816406 120.886719 L 179.261719 120.746094 L 176.429688 116.660156 L 176.75 115.25 L 177.207031 114.695313 L 178.613281 114.28125 L 181.269531 116.636719 L 182.96875 119.6875 L 182.941406 120.441406 Z M 180.816406 120.886719 "/>
<path style=" stroke:none;fill-rule:nonzero;fill:rgb(80.392157%,58.431373%,4.705882%);fill-opacity:1;" d="M 188.894531 112.128906 L 187.0625 112.429688 L 185.265625 112.144531 L 183.644531 111.320313 L 182.355469 110.035156 L 181.53125 108.414063 L 181.246094 106.617188 L 181.523438 104.863281 L 184.519531 106.003906 L 186.230469 108.273438 L 187.324219 111.371094 Z M 188.894531 112.128906 "/>
<path style=" stroke:none;fill-rule:nonzero;fill:rgb(80.392157%,58.431373%,4.705882%);fill-opacity:1;" d="M 189.417969 232.734375 L 189 230.675781 L 189.285156 228.878906 L 190.109375 227.257813 L 190.667969 226.703125 L 192.988281 227.191406 L 194.445313 228.726563 L 194.429688 229.304688 L 192.117188 231.570313 Z M 189.417969 232.734375 "/>
<path style=" stroke:none;fill-rule:nonzero;fill:rgb(80.392157%,58.431373%,4.705882%);fill-opacity:1;" d="M 88.429688 500.046875 L 88.566406 499.308594 L 88.941406 499.117188 L 89.34375 499.789063 Z M 88.429688 500.046875 "/>
</g>
</svg>
