<?xml version="1.0" encoding="UTF-8"?>
<svg xmlns="http://www.w3.org/2000/svg" xmlns:xlink="http://www.w3.org/1999/xlink" width="378pt" height="504pt" viewBox="0 0 378 504" version="1.1">
<g id="data">
<rect x="0" y="0" width="378" height="504" style="fill:rgb(100%,100%,100%);fill-opacity:1;stroke:none;"/>
<path style=" stroke:none;fill-rule:nonzero;fill:rgb(100%,100%,100%);fill-opacity:1;" d="M 53.308594 504 L 324.691406 504 L 324.691406 0 L 53.308594 0 Z M 53.308594 504 "/>
<path style=" stroke:none;fill-rule:nonzero;fill:rgb(22.745098%,53.333333%,16.078431%);fill-opacity:1;" d="M 156.082031 397.625 L 154.207031 398.050781 L 152.300781 397.84375 L 153.054688 396.195313 L 154.199219 391.746094 L 153.734375 388.820313 L 152.566406 386.542969 L 153.179688 384.597656 L 153.179688 384.59375 L 154.863281 383.9375 L 156.808594 383.867188 L 158.667969 384.4375 L 160.230469 385.59375 L 161.417969 386.824219 L 162.488281 388.371094 L 163 390.148438 L 163.925781 389.0625 L 165.542969 388.097656 L 167.382813 387.699219 L 169.253906 387.910156 L 172.097656 388.710938 L 174.046875 388.578125 L 175.820313 387.808594 L 177.386719 386.324219 L 178.050781 385.117188 L 178.421875 383.5625 L 178.355469 381.960938 L 177.652344 379.792969 L 177.375 378.285156 L 177.503906 376.761719 L 177.96875 374.621094 L 177.902344 373.210938 L 177.160156 371.210938 L 175.789063 369.632813 L 173.957031 368.65625 L 170.828125 368.261719 L 168.691406 367.554688 L 166.984375 366.085938 L 165.632813 364.371094 L 162.980469 362.109375 L 160 360.433594 L 158.53125 359.257813 L 158.039063 358.496094 L 160.492188 357.457031 L 163.644531 357.28125 L 167.339844 357.714844 L 172.597656 355.179688 L 173.933594 355.046875 L 174.484375 355.082031 L 179.910156 359.441406 L 180.433594 358.429688 L 177.679688 353.460938 L 178.242188 352.835938 L 180.867188 352.449219 L 181.503906 352.695313 L 181.914063 353.875 L 182.898438 354.332031 L 184.078125 356.789063 L 185.613281 357.902344 L 188.359375 357.621094 L 190.335938 355.148438 L 189.90625 355.050781 L 188.667969 355.527344 L 188.3125 355.957031 L 186.378906 356.386719 L 183.8125 354.640625 L 179.976563 346.332031 L 183.371094 340.257813 L 185.429688 339.015625 L 185.140625 338.578125 L 182.683594 338.460938 L 181.554688 337.164063 L 181.355469 336.117188 L 181.601563 331.078125 L 181.949219 330.421875 L 184.695313 329.191406 L 185.9375 326.421875 L 186.363281 326.605469 L 187.769531 327.902344 L 188.777344 329.191406 L 189.59375 329.90625 L 190.53125 330.460938 L 191.550781 330.828125 L 192.625 330.996094 L 193.710938 330.960938 L 194.757813 330.730469 L 196.359375 330.027344 L 198.226563 329.558594 L 200.148438 329.722656 L 201.910156 330.507813 L 203.316406 331.828125 L 204.214844 333.53125 L 204.507813 335.4375 L 204.160156 337.335938 L 203.195313 340.003906 L 203.171875 341.964844 L 203.800781 343.804688 L 205.628906 346.113281 L 206.253906 347.203125 L 207.601563 347.636719 L 209.367188 348.519531 L 210.722656 349.457031 L 211.761719 350.734375 L 212.398438 352.25 L 212.585938 353.886719 L 212.308594 355.507813 L 211.980469 356.523438 L 211.167969 358.132813 L 209.902344 359.417969 L 208.300781 360.25 L 206.523438 360.554688 L 204.738281 360.296875 L 203.117188 359.507813 L 201.816406 358.257813 L 200.375 356.363281 L 199.835938 355.375 L 198.417969 354.898438 L 196.96875 354.15625 L 195.933594 353.847656 L 194.855469 353.742188 L 194.039063 353.8125 L 191.839844 354.640625 L 190.023438 356.226563 L 189.109375 357.839844 L 188.738281 359.84375 L 189.148438 364.238281 L 190.046875 366.355469 L 191.226563 367.644531 L 193.742188 369.027344 L 194.644531 369.644531 L 196.394531 371.089844 L 197.40625 371.589844 L 198.484375 371.859375 L 200.628906 371.777344 L 202.359375 371.097656 L 203.863281 369.804688 L 205.285156 367.339844 L 206.417969 365.9375 L 207.921875 364.949219 L 209.660156 364.46875 L 211.460938 364.542969 L 213.152344 365.164063 L 214.570313 366.273438 L 216.519531 368.359375 L 218.269531 369.273438 L 220.207031 369.542969 L 222.105469 369.148438 L 223.894531 368.042969 L 225.835938 365.675781 L 226.625 363.796875 L 226.753906 362.019531 L 226.226563 360.035156 L 224.84375 357.925781 L 224.511719 357.347656 L 223.171875 354.679688 L 221.886719 353.425781 L 219.402344 352.210938 L 217.921875 351.175781 L 216.828125 349.734375 L 216.234375 348.027344 L 216.1875 346.222656 L 216.699219 344.488281 L 217.71875 342.996094 L 219.148438 341.890625 L 221.664063 340.503906 L 222.890625 339.171875 L 223.636719 337.503906 L 223.921875 334.753906 L 224.433594 332.902344 L 225.519531 331.320313 L 227.0625 330.175781 L 228.894531 329.59375 L 230.816406 329.644531 L 233.492188 330.164063 L 234.390625 330.121094 L 236.074219 329.707031 L 237.433594 329.539063 L 238.792969 329.691406 L 240.648438 330.128906 L 241.90625 330.132813 L 243.65625 329.667969 L 245.148438 328.730469 L 246.140625 327.613281 L 246.730469 326.453125 L 248.050781 318.484375 L 248.609375 316.792969 L 249.339844 315.78125 L 252.390625 319.148438 L 256.121094 320.875 L 257.207031 321.722656 L 254.738281 323.09375 L 253.890625 324.554688 L 253.765625 325.996094 L 254.984375 329.992188 L 256.160156 332.453125 L 263.316406 342.46875 L 263.640625 343.980469 L 262.804688 345.191406 L 263.28125 343.65625 L 262.507813 342.839844 L 260.445313 342 L 258.378906 342.789063 L 257.507813 342.753906 L 256.035156 341.773438 L 253.664063 338.65625 L 252.601563 338.082031 L 245.550781 339.511719 L 244.589844 338.644531 L 243.40625 338.558594 L 241.210938 339.871094 L 241.886719 340.445313 L 246.324219 340.394531 L 249.617188 339.34375 L 251.976563 339.082031 L 254.382813 342.558594 L 260.535156 347.621094 L 263.042969 349.058594 L 263.664063 349.039063 L 266.046875 352.214844 L 268.980469 359.304688 L 269.535156 362.402344 L 269.210938 365.21875 L 264.953125 369.09375 L 261.394531 373.164063 L 260.601563 374.816406 L 262.84375 374.3125 L 264.9375 375.519531 L 266.9375 378.226563 L 270.21875 378.804688 L 270.625 378.746094 L 271.910156 376.796875 L 272.234375 374.960938 L 273.40625 371.914063 L 274.707031 370.632813 L 277.851563 370.085938 L 283.34375 370.234375 L 284.253906 370.867188 L 286.703125 370.742188 L 293.949219 371.515625 L 296.914063 372.84375 L 304.070313 378.085938 L 305.367188 380.105469 L 306.730469 384.164063 L 307.179688 391.25 L 306.777344 393.191406 L 306.890625 393.976563 L 305.789063 396.917969 L 303.519531 407.832031 L 297.144531 414.53125 L 295.578125 412.011719 L 292.742188 410.515625 L 292.480469 410.636719 L 293.898438 413.703125 L 295.890625 416.628906 L 296.3125 416.765625 L 296.164063 417.742188 L 294.574219 419.804688 L 292.191406 421.289063 L 290.003906 421.65625 L 289.660156 421.574219 L 288.214844 419.332031 L 284.976563 421.730469 L 280.71875 424.230469 L 282.339844 425.378906 L 285.105469 424.398438 L 286.097656 423.375 L 286.894531 423.164063 L 287.328125 423.710938 L 287.632813 428.84375 L 285.6875 430.875 L 283.441406 432.558594 L 282.84375 432.699219 L 279.644531 432.160156 L 274.75 433.78125 L 272.609375 436.117188 L 274.253906 436.015625 L 275.152344 434.667969 L 276.683594 434.363281 L 278.285156 434.328125 L 281.054688 434.949219 L 281.828125 435.589844 L 281.691406 436.328125 L 279.554688 436.347656 L 277.390625 437.65625 L 277.96875 438.546875 L 281.382813 438.964844 L 286.863281 440.339844 L 289.394531 439.9375 L 291.074219 438.957031 L 299.742188 437.757813 L 300.988281 440.148438 L 300.773438 446.324219 L 300.335938 447.820313 L 299.394531 449.050781 L 296.972656 450.242188 L 295.839844 450.375 L 292.621094 451.640625 L 291.179688 452.742188 L 289.847656 454.226563 L 289.460938 455.09375 L 289.214844 456.324219 L 289.464844 457.886719 L 286.253906 458.289063 L 284.1875 457.9375 L 281.042969 460.90625 L 278.484375 461.933594 L 274.789063 462.777344 L 272.597656 463.816406 L 270.539063 466.589844 L 269.761719 466.949219 L 259.269531 463.777344 L 256.070313 463.507813 L 244.628906 465.699219 L 242.703125 466.390625 L 242.113281 466.964844 L 241.902344 467.984375 L 241.359375 468.164063 L 238.210938 466.1875 L 238.632813 465.4375 L 239.46875 464.933594 L 237.714844 463.296875 L 231.496094 463.171875 L 231.378906 463.496094 L 232.574219 464.835938 L 232.214844 465.75 L 231.738281 466.042969 L 226.691406 465.496094 L 219.566406 468.449219 L 217.054688 467.824219 L 210.222656 468.96875 L 208.164063 468.875 L 207.273438 468.058594 L 206.238281 469.769531 L 209.429688 471.089844 L 209.714844 470.9375 L 210.1875 472.128906 L 209.566406 473.890625 L 206.84375 474.453125 L 204.453125 473.097656 L 203.015625 472.699219 L 197.625 472.007813 L 196.175781 472.65625 L 195.679688 473.863281 L 195.832031 474.871094 L 196.757813 475.523438 L 196.488281 476.304688 L 195.917969 475.996094 L 194.851563 473.972656 L 190.289063 470.589844 L 188.800781 469.886719 L 188.761719 469.566406 L 188.261719 468.304688 L 187.40625 467.117188 L 186.210938 466.140625 L 184.820313 465.519531 L 183.296875 465.28125 L 181.757813 465.441406 L 180.820313 465.761719 L 179.875 466.296875 L 179.046875 466.996094 L 178.371094 467.832031 L 177.828125 468.863281 L 177.609375 469.597656 L 176.207031 469.78125 L 174.339844 470.335938 L 168.992188 473.234375 L 168.214844 474.070313 L 167.203125 476.179688 L 162.746094 489.226563 L 160.929688 490.242188 L 158.269531 489.722656 L 157.554688 489.058594 L 156.527344 486.851563 L 154.683594 485.4375 L 153.613281 485.542969 L 152.417969 486.300781 L 151.738281 486.164063 L 148.46875 482.535156 L 142.796875 482.960938 L 141.527344 483.375 L 140.734375 484.175781 L 139.910156 484.507813 L 134.507813 484.320313 L 132.167969 484.859375 L 129.414063 488.195313 L 126.714844 489.746094 L 124.039063 490.597656 L 123.132813 494.289063 L 123.664063 495.292969 L 123.496094 496.125 L 122.722656 496.945313 L 120.660156 497.648438 L 119.628906 499.730469 L 118.675781 498.910156 L 117.96875 497.691406 L 118.09375 496.4375 L 117.15625 494.691406 L 115.984375 493.691406 L 112.253906 492.070313 L 111.410156 491.984375 L 110.375 492.488281 L 110.242188 494.183594 L 109.421875 495.128906 L 106.824219 495.664063 L 105.398438 494.824219 L 105.628906 491.574219 L 106.074219 490.5625 L 111.738281 488.078125 L 112.199219 488.253906 L 112.445313 488.9375 L 113.574219 489.15625 L 118.144531 485.910156 L 121.425781 483.085938 L 124.375 479.769531 L 125.210938 477.886719 L 124.875 476.421875 L 125.640625 474.519531 L 128.386719 473.238281 L 132.105469 472.640625 L 132.679688 471.785156 L 133.257813 469.527344 L 135.859375 467.5625 L 138.636719 464.640625 L 139.128906 458.542969 L 139.316406 457.476563 L 140.539063 457.476563 L 142.355469 457.769531 L 143.992188 458.613281 L 145.292969 459.574219 L 146.347656 460.074219 L 147.464844 460.351563 L 148.613281 460.402344 L 149.765625 460.222656 L 150.589844 459.921875 L 153.707031 457.78125 L 156.90625 454.21875 L 157.742188 452.8125 L 158.203125 450.964844 L 158 448.214844 L 158.171875 446.316406 L 158.285156 446.066406 L 159.910156 445.683594 L 164.597656 446.761719 L 166.046875 446.148438 L 167.527344 446.515625 L 169.484375 447.285156 L 170.039063 448.109375 L 170.757813 448.421875 L 173.15625 448.464844 L 180.570313 447.503906 L 181.109375 445.632813 L 181.210938 443.15625 L 182.101563 441.171875 L 182.652344 440.867188 L 184.082031 439.597656 L 185.609375 438.617188 L 186.0625 438.496094 L 185.683594 437.929688 L 185.519531 437.355469 L 190.867188 432.195313 L 195.792969 425.3125 L 197.929688 424.472656 L 198.285156 423.78125 L 198.070313 423.238281 L 197.8125 423.082031 L 196.09375 424.355469 L 192.90625 427.300781 L 190.570313 429.988281 L 189.222656 431.449219 L 185.628906 432.957031 L 184.566406 433.117188 L 184.46875 432.855469 L 183.671875 431.683594 L 182.628906 430.746094 L 181.378906 430.085938 L 180.113281 429.761719 L 178.679688 429.742188 L 176.730469 430.191406 L 175 430.324219 L 173.308594 429.9375 L 171.808594 429.070313 L 170.628906 427.800781 L 169.875 426.238281 L 169.617188 424.523438 L 169.617188 420.644531 L 169.6875 419.726563 L 170.195313 416.5625 L 169.507813 412.671875 L 168.730469 410.820313 L 167.097656 408.878906 L 166.019531 406.925781 L 165.753906 404.707031 L 165.957031 401.960938 L 165.484375 400.0625 L 164.898438 399.035156 L 163.445313 397.496094 L 162.394531 395.9375 L 161.917969 394.203125 L 161.046875 395.253906 L 159.445313 396.238281 Z M 192.835938 440.921875 L 193.261719 441.582031 L 193.730469 443.335938 L 193.917969 445.140625 L 194.289063 446.289063 L 194.882813 447.316406 L 195.648438 448.160156 L 197.296875 449.207031 L 200.082031 449.890625 L 201.773438 450.605469 L 203.15625 451.8125 L 204.570313 453.507813 L 205.628906 454.261719 L 207.808594 454.964844 L 209.683594 454.894531 L 212.164063 453.96875 L 212.941406 453.738281 L 215.265625 453.222656 L 216.570313 452.535156 L 217.78125 451.398438 L 218.484375 450.300781 L 218.902344 449.128906 L 219.0625 447.769531 L 218.929688 446.566406 L 218.414063 445.144531 L 217.164063 443.328125 L 216.347656 441.582031 L 216.148438 439.664063 L 216.335938 436.710938 L 215.820313 434.867188 L 214.835938 433.378906 L 212.539063 431.3125 L 210.871094 430.535156 L 206.765625 429.722656 L 205.378906 429.785156 L 200.554688 430.765625 L 199.128906 431.539063 L 197.964844 432.703125 L 197.183594 434.132813 L 196.648438 436.675781 L 196.007813 438.367188 L 194.875 439.78125 L 193.363281 440.777344 Z M 233.714844 406.71875 L 233.617188 406.75 L 231.8125 406.738281 L 230.03125 406.449219 L 228.746094 406.515625 L 227.523438 406.859375 L 226.40625 407.464844 L 225.433594 408.304688 L 224.730469 409.25 L 224.195313 410.421875 L 223.945313 411.613281 L 224.039063 414.5625 L 224.730469 416.417969 L 226.042969 417.960938 L 228.691406 419.460938 L 230.050781 420.523438 L 231.039063 421.9375 L 231.570313 423.578125 L 231.59375 425.300781 L 231.363281 427.007813 L 231.4375 428.148438 L 231.730469 429.253906 L 232.152344 430.101563 L 234.464844 432.722656 L 235.71875 433.675781 L 237.269531 434.300781 L 239.160156 434.472656 L 241.433594 434.144531 L 242.601563 433.78125 L 243.714844 433.164063 L 245.210938 431.824219 L 247.101563 430.691406 L 249.28125 430.339844 L 251.726563 430.421875 L 254.09375 429.9375 L 255.316406 429.296875 L 256.863281 427.925781 L 258.738281 426.808594 L 260.894531 426.464844 L 268.082031 426.675781 L 269.207031 426.414063 L 270.191406 425.941406 L 272.632813 423.761719 L 273.578125 422.472656 L 274.132813 421.136719 L 275.023438 417.085938 L 274.992188 415.476563 L 274.558594 414.011719 L 273.75 412.699219 L 272.722656 411.726563 L 271.222656 410.921875 L 268.941406 410.351563 L 267.78125 410.367188 L 265.925781 410.800781 L 264.160156 410.9375 L 262.453125 410.808594 L 259.230469 411.03125 L 257.671875 411.507813 L 256.398438 412.304688 L 255.308594 413.496094 L 254.277344 415.527344 L 253.367188 416.835938 L 252.132813 417.847656 L 250.671875 418.488281 L 249.09375 418.707031 L 241.339844 418.707031 L 239.660156 418.460938 L 238.125 417.738281 L 236.863281 416.605469 L 235.980469 415.152344 L 235.554688 413.511719 L 235.253906 410.6875 L 234.128906 408.21875 Z M 238.484375 400.121094 L 238.949219 400.007813 L 240.792969 400.15625 L 242.472656 400.5625 L 243.617188 400.609375 L 244.75 400.429688 L 245.734375 400.0625 L 247.078125 399.164063 L 248.589844 397.4375 L 250.265625 396.113281 L 252.308594 395.484375 L 255.253906 395.148438 L 257.070313 394.253906 L 258.242188 393.101563 L 259.117188 391.476563 L 259.371094 390.425781 L 259.40625 389.195313 L 259.199219 388.027344 L 258.648438 386.554688 L 258.054688 385.601563 L 257.207031 384.714844 L 256.195313 384.027344 L 254.613281 383.371094 L 252.941406 382.308594 L 251.722656 380.75 L 251.097656 378.871094 L 251.136719 376.890625 L 251.65625 374.214844 L 251.613281 373.316406 L 251.199219 371.636719 L 251.15625 369.042969 L 251.496094 367.441406 L 251.515625 366.421875 L 251.253906 365.058594 L 250.707031 363.859375 L 249.507813 362.445313 L 247.929688 361.476563 L 246.148438 361.054688 L 244.335938 361.21875 L 242.542969 362.011719 L 240.832031 363.546875 L 239.851563 365.164063 L 239.285156 367.539063 L 238.820313 370.246094 L 239.316406 373.140625 L 239.347656 374.90625 L 238.84375 376.601563 L 237.855469 378.070313 L 236.472656 379.167969 L 233.75 380.730469 L 232.367188 382.417969 L 231.820313 383.859375 L 231.628906 386.226563 L 231.527344 386.917969 L 230.90625 389.960938 L 231.125 391.628906 L 231.910156 393.289063 L 233.179688 394.621094 L 235.511719 395.882813 L 236.949219 396.980469 L 237.980469 398.460938 Z M 199.351563 401.5 L 200.003906 402.515625 L 200.878906 404.242188 L 201.621094 405.15625 L 202.644531 405.96875 L 203.714844 406.496094 L 204.890625 406.789063 L 206.085938 406.835938 L 207.371094 406.605469 L 208.300781 406.21875 L 212.433594 402.964844 L 214.519531 400.382813 L 215.191406 399.210938 L 215.574219 397.992188 L 215.683594 396.640625 L 215.476563 395.320313 L 214.96875 394.0625 L 214.246094 393.03125 L 213.300781 392.175781 L 212.175781 391.539063 L 211.078125 391.199219 L 209.648438 391.09375 L 207.460938 391.480469 L 205.273438 391.449219 L 203.5625 391.097656 L 202.523438 391.089844 L 201.300781 391.324219 L 200.214844 391.78125 L 199.097656 392.582031 L 198.21875 393.589844 L 197.59375 394.773438 L 197.257813 396.070313 L 197.230469 397.40625 L 197.511719 398.714844 L 198.089844 399.925781 Z M 167.324219 288.855469 L 167.957031 288.136719 L 168.554688 287.667969 L 168.226563 288.992188 Z M 171.949219 284.242188 L 172.269531 283.949219 L 174.019531 283.191406 L 176.777344 282.5 L 179.070313 281.039063 L 180.664063 280.332031 L 182.394531 280.128906 L 184.105469 280.449219 L 185.644531 281.261719 L 186.878906 282.492188 L 187.6875 284.03125 L 188.007813 285.746094 L 187.804688 287.472656 L 187.101563 289.066406 L 185.640625 291.359375 L 184.949219 294.121094 L 184.242188 295.785156 L 183.058594 297.152344 L 181.285156 298.648438 L 180.421875 299.886719 L 179.996094 300.953125 L 179.8125 302.039063 L 179.957031 303.796875 L 180.855469 306.117188 L 181.199219 307.488281 L 181.207031 308.898438 L 180.96875 310.890625 L 181.101563 312.066406 L 181.886719 313.957031 L 183.6875 316.023438 L 184.558594 317.351563 L 185.039063 318.863281 L 185.082031 320.191406 L 184.742188 320.527344 L 179.199219 323.441406 L 177.335938 322.691406 L 172.851563 314.925781 L 172.289063 311.832031 L 167.40625 304.652344 L 169.164063 299.058594 L 174.074219 288.722656 L 176.464844 286.417969 L 178.757813 285.980469 L 180.191406 286.804688 L 181.015625 286.710938 L 182.933594 286.238281 L 183.03125 285.160156 L 182.34375 284.746094 L 180.035156 285.351563 L 174.65625 284.980469 L 172.566406 284.292969 Z M 196.800781 245.457031 L 197.246094 243.84375 L 198.132813 242.421875 L 198.449219 242.144531 L 199.339844 242.761719 L 206.488281 246.65625 L 208.910156 251.429688 L 212.824219 256.707031 L 213.265625 256.828125 L 213.433594 256.585938 L 214.601563 257.097656 L 217.371094 258.992188 L 218.679688 263.09375 L 218.894531 265.933594 L 218.261719 267.402344 L 219.667969 274.070313 L 218.660156 274.382813 L 216.875 274.367188 L 215.179688 273.808594 L 213.734375 272.761719 L 212.671875 271.328125 L 211.511719 269.117188 L 210.441406 268 L 209.003906 267.164063 L 207.34375 266.761719 L 206 266.792969 L 204.074219 267.308594 L 202.371094 267.503906 L 200.683594 267.195313 L 197.707031 266.171875 L 195.382813 266.253906 L 194.507813 266.542969 L 193.589844 267.054688 L 192.699219 267.8125 L 191.628906 269.171875 L 190.355469 270.363281 L 188.785156 271.121094 L 187.0625 271.382813 L 185.339844 271.125 L 183.769531 270.363281 L 182.496094 269.171875 L 181.632813 267.65625 L 181.257813 265.957031 L 181.40625 264.21875 L 181.839844 262.390625 L 181.886719 260.640625 L 182.277344 258.683594 L 183.308594 256.976563 L 184.855469 255.714844 L 186.734375 255.054688 L 188.601563 254.738281 L 189.738281 254.277344 L 191.464844 253.0625 L 192.152344 252.644531 L 194.257813 251.558594 L 195.382813 250.5 L 196.40625 248.570313 Z M 170.054688 229.019531 L 169.628906 227.191406 L 169.804688 225.324219 L 170.566406 223.609375 L 171.835938 222.230469 L 173.460938 220.953125 L 174.738281 219.328125 L 175.613281 218.429688 L 177.597656 216.800781 L 178.535156 215.550781 L 179.835938 214.292969 L 181.457031 213.492188 L 183.246094 213.230469 L 185.027344 213.53125 L 186.632813 214.363281 L 187.902344 215.648438 L 188.71875 217.261719 L 189 219.046875 L 189 220.265625 L 185.519531 221.085938 L 182.847656 221.226563 L 177.804688 225.21875 L 178.117188 225.714844 L 179.84375 225.195313 L 184.609375 222.886719 L 186.457031 221.386719 L 187.289063 221.316406 L 189 221.851563 L 189 222.921875 L 188.628906 224.964844 L 187.566406 226.746094 L 185.742188 228.835938 L 185.019531 230.53125 L 184.851563 231.816406 L 184.921875 232.457031 L 181.046875 235.800781 L 180.578125 237.003906 L 174.761719 240.109375 L 170.214844 238.117188 L 169.726563 238.101563 L 170.042969 236.519531 L 170.941406 234.089844 L 171.125 232.582031 L 170.9375 231.152344 Z M 179.824219 242.34375 L 178.828125 243.308594 L 177.175781 244.109375 L 175.355469 244.355469 L 173.550781 244.023438 L 171.9375 243.144531 L 170.679688 241.804688 L 170.074219 240.507813 L 178.0625 241.875 Z M 130.339844 419.644531 L 129.011719 418.601563 L 128.039063 417.226563 L 127.503906 415.628906 L 127.449219 413.941406 L 127.878906 412.3125 L 128.21875 411.761719 L 133.074219 411.34375 L 134.871094 409.289063 L 135.753906 407.632813 L 137.585938 406.550781 L 141.359375 406.660156 L 142.21875 406.390625 L 144.980469 404.625 L 145.070313 404.699219 L 146.0625 406.289063 L 146.496094 408.109375 L 146.332031 409.972656 L 145.777344 412.132813 L 145.773438 413.621094 L 146.140625 415.054688 L 146.796875 416.257813 L 147.804688 417.34375 L 149.050781 418.136719 L 150.351563 418.566406 L 152.574219 418.722656 L 154.273438 419.101563 L 155.785156 419.96875 L 156.972656 421.242188 L 157.726563 422.8125 L 157.984375 424.535156 L 157.71875 426.257813 L 156.957031 427.824219 L 155.765625 429.09375 L 154.519531 430.074219 L 149.269531 432.308594 L 149.113281 432.746094 L 147.203125 431.632813 L 146.917969 429.308594 L 148.539063 428.378906 L 150.066406 428.890625 L 151.640625 428.421875 L 152.765625 427.832031 L 153.085938 427.097656 L 152.808594 426.597656 L 147.785156 426.460938 L 143.210938 423.710938 L 139.503906 423.714844 L 136.765625 424.277344 L 136.292969 426.515625 L 135.777344 427.203125 L 135.445313 427.320313 L 134.855469 425.753906 L 134.355469 423.449219 L 133.570313 421.980469 L 132.496094 420.875 Z M 286.679688 439.636719 L 283.058594 438.976563 L 282.164063 437.605469 L 282.484375 436.070313 L 286.839844 437.054688 L 287.960938 438.832031 Z M 236.835938 466.113281 L 235.136719 465.644531 L 236.523438 463.683594 L 237.195313 464.164063 L 237.5 465.839844 Z M 228.117188 474.644531 L 222.296875 470.886719 L 220.207031 471.1875 L 221.476563 469.683594 L 227.316406 466.367188 L 232.550781 467.761719 L 234.171875 469.894531 L 231.242188 473.621094 L 229.960938 474.269531 Z M 88.429688 500.046875 L 88.566406 499.308594 L 88.941406 499.117188 L 89.34375 499.789063 Z M 88.429688 500.046875 "/>
<path style=" stroke:none;fill-rule:nonzero;fill:rgb(80.392157%,58.431373%,4.705882%);fill-opacity:1;" d="M 223.890625 300.460938 L 223.609375 302.257813 L 222.78125 303.878906 L 221.496094 305.167969 L 219.875 305.992188 L 218.078125 306.277344 L 216.28125 305.992188 L 214.660156 305.167969 L 213.371094 303.878906 L 212.546875 302.257813 L 212.261719 300.460938 L 212.546875 298.664063 L 213.371094 297.042969 L 214.660156 295.757813 L 216.28125 294.929688 L 218.078125 294.644531 L 219.875 294.929688 L 221.496094 295.757813 L 222.78125 297.042969 L 223.609375 298.664063 Z M 223.890625 300.460938 "/>
<path style=" stroke:none;fill-rule:nonzero;fill:rgb(80.392157%,58.431373%,4.705882%);fill-opacity:1;" d="M 157.984375 246.183594 L 157.699219 247.980469 L 156.875 249.601563 L 155.585938 250.890625 L 153.964844 251.714844 L 152.167969 252 L 150.371094 251.714844 L 148.75 250.890625 L 147.464844 249.601563 L 146.636719 247.980469 L 146.355469 246.183594 L 146.636719 244.386719 L 147.234375 243.214844 L 148.300781 243.253906 L 147.398438 242.894531 L 147.464844 242.765625 L 148.75 241.480469 L 150.371094 240.652344 L 152.167969 240.371094 L 153.964844 240.652344 L 155.585938 241.480469 L 156.875 242.765625 L 157.699219 244.386719 Z M 157.984375 246.183594 "/>
<path style=" stroke:none;fill-rule:nonzero;fill:rgb(80.392157%,58.431373%,4.705882%);fill-opacity:1;" d="M 146.355469 277.199219 L 146.070313 278.996094 L 145.242188 280.617188 L 143.957031 281.90625 L 142.335938 282.730469 L 140.539063 283.015625 L 138.742188 282.730469 L 137.121094 281.90625 L 135.832031 280.617188 L 135.007813 278.996094 L 134.722656 277.199219 L 134.957031 275.71875 L 137.757813 273.035156 L 137.953125 272.070313 L 138.742188 271.667969 L 140.539063 271.382813 L 142.335938 271.667969 L 143.957031 272.496094 L 145.242188 273.78125 L 146.070313 275.402344 Z M 146.355469 277.199219 "/>
<path style=" stroke:none;fill-rule:nonzero;fill:rgb(80.392157%,58.431373%,4.705882%);fill-opacity:1;" d="M 154.109375 284.953125 L 153.824219 286.75 L 152.996094 288.371094 L 151.710938 289.660156 L 151.042969 290 L 149.984375 289.230469 L 149.214844 288.042969 L 149.230469 287.167969 L 148.945313 287.023438 L 148.15625 288.078125 L 147.988281 288.910156 L 148.375 290.554688 L 148.464844 290.742188 L 148.292969 290.769531 L 146.496094 290.484375 L 144.875 289.660156 L 143.585938 288.371094 L 142.761719 286.75 L 142.476563 284.953125 L 142.761719 283.15625 L 143.585938 281.535156 L 144.875 280.25 L 146.496094 279.421875 L 148.292969 279.136719 L 150.089844 279.421875 L 151.710938 280.25 L 152.996094 281.535156 L 153.824219 283.15625 Z M 154.109375 284.953125 "/>
<path style=" stroke:none;fill-rule:nonzero;fill:rgb(80.392157%,58.431373%,4.705882%);fill-opacity:1;" d="M 231.644531 300.460938 L 231.363281 302.257813 L 230.535156 303.878906 L 229.25 305.167969 L 227.628906 305.992188 L 225.832031 306.277344 L 224.035156 305.992188 L 222.414063 305.167969 L 221.125 303.878906 L 220.300781 302.257813 L 220.015625 300.460938 L 220.300781 298.664063 L 221.125 297.042969 L 222.414063 295.757813 L 224.035156 294.929688 L 225.832031 294.644531 L 226.316406 294.722656 L 229.304688 299.0625 L 231.59375 300.128906 Z M 231.644531 300.460938 "/>
<path style=" stroke:none;fill-rule:nonzero;fill:rgb(80.392157%,58.431373%,4.705882%);fill-opacity:1;" d="M 134.722656 215.167969 L 134.601563 215.949219 L 134.105469 217.117188 L 131.898438 219.546875 L 131.125 219.644531 L 127.28125 218.265625 L 127.882813 216.460938 L 128.195313 216.742188 L 128.945313 216.671875 L 131.070313 215.113281 L 129.507813 214.882813 L 128.550781 215.441406 L 127.980469 214.949219 L 127.875 213.785156 L 129.65625 210.6875 L 130.523438 209.609375 L 130.703125 209.636719 L 132.324219 210.464844 L 133.613281 211.75 L 134.4375 213.371094 Z M 134.210938 217.410156 L 133.613281 218.585938 L 132.324219 219.875 L 130.703125 220.699219 L 128.90625 220.984375 L 127.109375 220.699219 L 126.445313 220.359375 L 126.660156 220.210938 L 128.792969 220.179688 L 129.328125 220.484375 L 131.4375 220.320313 Z M 123.160156 215.609375 L 123.09375 215.167969 L 123.375 213.371094 L 124.203125 211.75 L 125.488281 210.464844 L 127.109375 209.636719 L 128.90625 209.355469 L 129.3125 209.417969 L 123.476563 215.398438 Z M 123.160156 215.609375 "/>
<path style=" stroke:none;fill-rule:nonzero;fill:rgb(80.392157%,58.431373%,4.705882%);fill-opacity:1;" d="M 196.753906 168.644531 L 196.46875 170.441406 L 195.644531 172.0625 L 194.355469 173.351563 L 192.734375 174.175781 L 190.9375 174.460938 L 189.140625 174.175781 L 187.519531 173.351563 L 186.234375 172.0625 L 185.40625 170.441406 L 185.125 168.644531 L 185.136719 168.550781 L 187.675781 167.128906 L 196.746094 168.597656 Z M 196.753906 168.644531 "/>
<path style=" stroke:none;fill-rule:nonzero;fill:rgb(80.392157%,58.431373%,4.705882%);fill-opacity:1;" d="M 134.703125 246.304688 L 134.4375 247.980469 L 133.613281 249.601563 L 133.429688 249.785156 L 132.589844 248.835938 L 130.84375 244.566406 L 130.707031 243.464844 L 131.460938 242.613281 L 133.71875 244.574219 Z M 129.992188 251.828125 L 128.90625 252 L 127.574219 251.789063 L 128.179688 251.246094 L 129.539063 251.441406 Z M 125.273438 250.675781 L 124.203125 249.601563 L 123.375 247.980469 L 123.09375 246.183594 L 123.375 244.386719 L 124.203125 242.765625 L 125.488281 241.480469 L 125.65625 241.394531 L 126.1875 249.699219 Z M 128.046875 240.503906 L 128.90625 240.371094 L 130.703125 240.652344 L 132.324219 241.480469 L 133.613281 242.765625 L 134.4375 244.386719 L 134.457031 244.496094 L 131.566406 242.222656 L 130.757813 242.5 L 130.269531 243.347656 L 130.09375 244.535156 L 130.664063 246.308594 L 130.519531 246.613281 L 128.257813 245.464844 L 127.46875 243.074219 Z M 128.046875 240.503906 "/>
<path style=" stroke:none;fill-rule:nonzero;fill:rgb(80.392157%,58.431373%,4.705882%);fill-opacity:1;" d="M 248.269531 313.105469 L 247.011719 313.746094 L 245.214844 314.03125 L 243.417969 313.746094 L 241.796875 312.921875 L 240.511719 311.632813 L 239.683594 310.011719 L 239.398438 308.214844 L 239.683594 306.417969 L 240.511719 304.796875 L 240.855469 304.453125 L 244.476563 306.140625 L 245.742188 307.636719 L 247.265625 310.527344 Z M 248.269531 313.105469 "/>
<path style=" stroke:none;fill-rule:nonzero;fill:rgb(80.392157%,58.431373%,4.705882%);fill-opacity:1;" d="M 126.96875 416.769531 L 126.683594 418.566406 L 125.859375 420.1875 L 125.375 420.671875 L 124.929688 417.953125 L 123.328125 417.210938 L 121.445313 417.105469 L 122.0625 415.152344 L 125.882813 413.402344 L 126.683594 414.972656 Z M 126.96875 416.769531 "/>
</g>
</svg>
