<?xml version="1.0" encoding="UTF-8"?>
<svg xmlns="http://www.w3.org/2000/svg" xmlns:xlink="http://www.w3.org/1999/xlink" width="378pt" height="504pt" viewBox="0 0 378 504" version="1.1">
<g id="data">
<rect x="0" y="0" width="378" height="504" style="fill:rgb(100%,100%,100%);fill-opacity:1;stroke:none;"/>
<path style=" stroke:none;fill-rule:nonzero;fill:rgb(100%,100%,100%);fill-opacity:1;" d="M 53.308594 504 L 324.691406 504 L 324.691406 0 L 53.308594 0 Z M 53.308594 504 "/>
<path style=" stroke:none;fill-rule:nonzero;fill:rgb(22.745098%,53.333333%,16.078431%);fill-opacity:1;" d="M 234.691406 324.828125 L 233.722656 323.171875 L 233.347656 321.289063 L 233.605469 319.386719 L 234.46875 317.671875 L 235.84375 316.332031 L 237.578125 315.511719 L 239.488281 315.300781 L 241.359375 315.722656 L 243.917969 316.769531 L 245.738281 316.894531 L 247.503906 316.441406 L 249.15625 315.382813 L 249.289063 315.722656 L 252.390625 319.148438 L 256.121094 320.875 L 257.207031 321.722656 L 254.738281 323.09375 L 253.890625 324.554688 L 253.765625 325.996094 L 254.984375 329.992188 L 256.160156 332.453125 L 263.316406 342.46875 L 263.640625 343.980469 L 262.804688 345.191406 L 263.28125 343.65625 L 262.507813 342.839844 L 260.445313 342 L 258.378906 342.789063 L 257.507813 342.753906 L 256.035156 341.773438 L 253.664063 338.65625 L 252.601563 338.082031 L 245.550781 339.511719 L 244.589844 338.644531 L 243.40625 338.558594 L 243.355469 338.589844 L 243.996094 335.671875 L 243.855469 333.515625 L 243.386719 332.265625 L 242.5 331.023438 L 241.253906 330.011719 L 239.050781 329.070313 L 237.863281 328.386719 L 236.871094 327.445313 Z M 266.214844 352.625 L 266.097656 353.078125 L 265.21875 355.214844 L 265.03125 356.628906 L 265.222656 358.152344 L 266.097656 360.273438 L 266.515625 361.976563 L 266.40625 363.730469 L 265.777344 365.367188 L 264.691406 366.746094 L 262.386719 368.890625 L 261.367188 370.976563 L 261.210938 371.871094 L 261.242188 373.035156 L 261.308594 373.34375 L 260.601563 374.816406 L 261.691406 374.570313 L 262.171875 375.664063 L 262.648438 377.621094 L 262.429688 379.621094 L 261.542969 381.425781 L 260.523438 382.824219 L 260.042969 383.871094 L 259.78125 384.988281 L 259.746094 386.007813 L 260.148438 387.890625 L 260.554688 388.738281 L 261.523438 390.054688 L 262.554688 392.40625 L 262.914063 394.265625 L 263.367188 395.3125 L 266.257813 398.972656 L 268.292969 400.644531 L 269.578125 402.128906 L 270.292969 403.957031 L 270.363281 405.917969 L 270.132813 407.621094 L 270.203125 408.761719 L 270.503906 409.882813 L 270.921875 410.738281 L 271.964844 412.03125 L 273.503906 413.175781 L 274.90625 413.710938 L 276.273438 413.847656 L 278.449219 413.371094 L 280.417969 412.082031 L 280.957031 411.464844 L 281.371094 410.761719 L 282.246094 407.511719 L 282.921875 405.949219 L 284.019531 404.648438 L 285.449219 403.722656 L 287.085938 403.253906 L 288.785156 403.273438 L 290.410156 403.789063 L 291.8125 404.75 L 293.078125 405.921875 L 293.960938 406.472656 L 295.050781 406.886719 L 296.625 407.164063 L 298.523438 407.855469 L 300.070313 409.152344 L 300.898438 410.585938 L 297.144531 414.53125 L 295.578125 412.011719 L 292.742188 410.515625 L 292.480469 410.636719 L 293.898438 413.703125 L 295.890625 416.628906 L 296.3125 416.765625 L 296.164063 417.742188 L 294.574219 419.804688 L 292.191406 421.289063 L 290.003906 421.65625 L 289.660156 421.574219 L 288.214844 419.332031 L 284.976563 421.730469 L 280.71875 424.230469 L 282.339844 425.378906 L 285.105469 424.398438 L 286.097656 423.375 L 286.894531 423.164063 L 287.328125 423.710938 L 287.632813 428.84375 L 285.6875 430.875 L 283.441406 432.558594 L 282.84375 432.699219 L 279.644531 432.160156 L 274.75 433.78125 L 272.609375 436.117188 L 274.253906 436.015625 L 275.152344 434.667969 L 276.683594 434.363281 L 278.285156 434.328125 L 281.054688 434.949219 L 281.828125 435.589844 L 281.691406 436.328125 L 279.554688 436.347656 L 277.390625 437.65625 L 277.96875 438.546875 L 281.382813 438.964844 L 286.863281 440.339844 L 289.394531 439.9375 L 291.074219 438.957031 L 293.03125 438.683594 L 292.6875 439.398438 L 291.363281 441.371094 L 290.824219 443.050781 L 290.761719 444.226563 L 290.96875 445.46875 L 291.492188 446.734375 L 292.597656 448.285156 L 293.402344 449.890625 L 293.613281 451.25 L 292.621094 451.640625 L 291.179688 452.742188 L 289.847656 454.226563 L 289.460938 455.09375 L 289.214844 456.324219 L 289.464844 457.886719 L 286.253906 458.289063 L 284.1875 457.9375 L 281.042969 460.90625 L 278.484375 461.933594 L 274.789063 462.777344 L 272.597656 463.816406 L 270.539063 466.589844 L 269.761719 466.949219 L 259.269531 463.777344 L 258.855469 463.742188 L 258.785156 463.269531 L 259.054688 461.535156 L 259.832031 459.964844 L 261.042969 458.691406 L 262.574219 457.839844 L 264.292969 457.484375 L 266.195313 457.382813 L 267.515625 457.003906 L 268.617188 456.394531 L 269.570313 455.542969 L 270.3125 454.503906 L 270.8125 453.328125 L 271.039063 452.074219 L 270.980469 450.753906 L 269.824219 446.222656 L 269.273438 445.277344 L 268.066406 443.960938 L 266.933594 442.140625 L 266.539063 440.03125 L 266.539063 436.152344 L 266.691406 434.824219 L 267.136719 432.933594 L 267.152344 431.785156 L 266.847656 430.367188 L 266.28125 429.210938 L 264.960938 427.757813 L 263.40625 426.871094 L 261.738281 426.5 L 258.847656 426.609375 L 257.863281 426.898438 L 256.925781 427.386719 L 256.011719 428.113281 L 255.304688 428.957031 L 254.660156 430.1875 L 254.332031 431.46875 L 254.3125 432.902344 L 254.761719 434.855469 L 254.875 436.777344 L 254.351563 438.632813 L 253.253906 440.214844 L 251.699219 441.351563 L 249.734375 442.339844 L 248.636719 443.296875 L 247.824219 444.488281 L 247.308594 445.9375 L 247.136719 448.222656 L 247.042969 448.910156 L 246.386719 452.246094 L 246.464844 453.148438 L 246.777344 454.203125 L 247.453125 455.433594 L 248.28125 456.363281 L 249.390625 457.144531 L 251.261719 457.898438 L 252.824219 458.832031 L 254.019531 460.203125 L 254.734375 461.878906 L 254.894531 463.691406 L 254.882813 463.734375 L 244.628906 465.699219 L 242.703125 466.390625 L 242.113281 466.964844 L 241.902344 467.984375 L 241.359375 468.164063 L 238.210938 466.1875 L 238.632813 465.4375 L 239.46875 464.933594 L 237.714844 463.296875 L 231.496094 463.171875 L 231.378906 463.496094 L 232.574219 464.835938 L 232.214844 465.75 L 231.738281 466.042969 L 226.691406 465.496094 L 219.566406 468.449219 L 217.054688 467.824219 L 210.222656 468.96875 L 208.164063 468.875 L 207.273438 468.058594 L 206.238281 469.769531 L 209.429688 471.089844 L 209.714844 470.9375 L 210.1875 472.128906 L 209.566406 473.890625 L 206.84375 474.453125 L 204.453125 473.097656 L 203.015625 472.699219 L 197.625 472.007813 L 196.175781 472.65625 L 195.679688 473.863281 L 195.832031 474.871094 L 196.757813 475.523438 L 196.488281 476.304688 L 195.917969 475.996094 L 194.851563 473.972656 L 190.289063 470.589844 L 185.898438 468.519531 L 183.121094 467.984375 L 181.648438 469.066406 L 176.207031 469.78125 L 174.339844 470.335938 L 168.992188 473.234375 L 168.214844 474.070313 L 167.203125 476.179688 L 162.746094 489.226563 L 160.929688 490.242188 L 158.269531 489.722656 L 157.554688 489.058594 L 156.527344 486.851563 L 154.683594 485.4375 L 153.613281 485.542969 L 152.417969 486.300781 L 151.738281 486.164063 L 148.46875 482.535156 L 142.796875 482.960938 L 141.527344 483.375 L 140.734375 484.175781 L 139.910156 484.507813 L 134.507813 484.320313 L 132.167969 484.859375 L 129.414063 488.195313 L 126.714844 489.746094 L 124.039063 490.597656 L 123.132813 494.289063 L 123.664063 495.292969 L 123.496094 496.125 L 122.722656 496.945313 L 120.660156 497.648438 L 119.628906 499.730469 L 118.675781 498.910156 L 117.96875 497.691406 L 118.09375 496.4375 L 117.15625 494.691406 L 115.984375 493.691406 L 112.253906 492.070313 L 111.410156 491.984375 L 110.375 492.488281 L 110.242188 494.183594 L 109.421875 495.128906 L 106.824219 495.664063 L 105.398438 494.824219 L 105.628906 491.574219 L 106.074219 490.5625 L 111.738281 488.078125 L 112.199219 488.253906 L 112.445313 488.9375 L 113.574219 489.15625 L 118.144531 485.910156 L 121.425781 483.085938 L 124.375 479.769531 L 125.210938 477.886719 L 124.875 476.421875 L 125.640625 474.519531 L 128.386719 473.238281 L 132.105469 472.640625 L 132.679688 471.785156 L 133.257813 469.527344 L 135.859375 467.5625 L 138.636719 464.640625 L 139.128906 458.542969 L 139.796875 454.753906 L 142.492188 455.105469 L 144.269531 456.015625 L 145.761719 455.429688 L 148.429688 452.488281 L 148.105469 447.519531 L 151.105469 446.613281 L 157.421875 446.269531 L 159.910156 445.683594 L 164.597656 446.761719 L 166.046875 446.148438 L 167.527344 446.515625 L 169.484375 447.285156 L 170.039063 448.109375 L 170.757813 448.421875 L 173.15625 448.464844 L 180.570313 447.503906 L 181.109375 445.632813 L 181.210938 443.15625 L 182.519531 440.25 L 190.867188 432.195313 L 195.792969 425.3125 L 197.929688 424.472656 L 198.285156 423.78125 L 198.070313 423.238281 L 197.8125 423.082031 L 196.09375 424.355469 L 192.90625 427.300781 L 190.570313 429.988281 L 189.222656 431.449219 L 185.628906 432.957031 L 183.714844 433.246094 L 182.441406 433.0625 L 178.394531 435.230469 L 177.398438 436.808594 L 177.039063 438.671875 L 176.445313 439.273438 L 174.058594 439.917969 L 170.558594 439.851563 L 166.820313 439 L 166.347656 438.652344 L 161.371094 433.375 L 159.03125 429.199219 L 155.65625 429.589844 L 149.269531 432.308594 L 149.113281 432.746094 L 147.203125 431.632813 L 146.917969 429.308594 L 148.539063 428.378906 L 150.066406 428.890625 L 151.640625 428.421875 L 152.765625 427.832031 L 153.085938 427.097656 L 152.808594 426.597656 L 147.785156 426.460938 L 143.210938 423.710938 L 139.503906 423.714844 L 136.765625 424.277344 L 136.292969 426.515625 L 135.777344 427.203125 L 133.742188 427.917969 L 132.394531 427.265625 L 131.648438 427.453125 L 129.4375 429.378906 L 126.53125 428.132813 L 127.425781 426.082031 L 128.796875 425.832031 L 131.792969 424.328125 L 131.226563 422.867188 L 130.640625 424.257813 L 127.769531 424.613281 L 122.949219 424.152344 L 121.496094 423.164063 L 124.125 421.78125 L 125.167969 421.753906 L 125.464844 421.238281 L 124.929688 417.953125 L 123.328125 417.210938 L 121.445313 417.105469 L 122.0625 415.152344 L 125.933594 413.378906 L 126.539063 411.90625 L 133.074219 411.34375 L 134.871094 409.289063 L 135.753906 407.632813 L 137.585938 406.550781 L 141.359375 406.660156 L 142.21875 406.390625 L 149.359375 401.828125 L 150.757813 400.003906 L 151.355469 400.929688 L 151.816406 402.785156 L 151.648438 404.6875 L 150.875 406.433594 L 149.519531 408.496094 L 149.027344 410.148438 L 149.042969 411.855469 L 149.570313 413.53125 L 150.390625 414.753906 L 152.117188 416.265625 L 153.636719 418.355469 L 154.390625 420.117188 L 155.097656 421.097656 L 156.296875 422.113281 L 158.484375 423.121094 L 159.984375 424.121094 L 161.109375 425.539063 L 162.605469 428.1875 L 164.199219 429.542969 L 165.722656 430.148438 L 168.179688 430.359375 L 169.699219 430.699219 L 171.070313 431.433594 L 172.628906 432.550781 L 173.632813 432.980469 L 175.894531 433.253906 L 177.113281 433.046875 L 178.460938 432.445313 L 179.601563 431.535156 L 180.476563 430.367188 L 181.09375 428.875 L 181.855469 424.902344 L 181.75 423.355469 L 181.261719 421.941406 L 180.304688 420.578125 L 178.9375 419.496094 L 177.414063 418.902344 L 174.929688 418.6875 L 173.097656 418.21875 L 171.511719 417.191406 L 170.339844 415.707031 L 169.707031 413.925781 L 169.679688 412.035156 L 170.257813 410.234375 L 171.386719 408.714844 L 172.9375 407.636719 L 174.597656 406.851563 L 175.5 406.171875 L 176.25 405.324219 L 176.875 404.234375 L 177.203125 403.253906 L 177.371094 401.980469 L 177.320313 399.957031 L 177.011719 398.628906 L 176.582031 397.703125 L 175.902344 396.761719 L 175.058594 395.984375 L 174.078125 395.386719 L 173 394.992188 L 171.871094 394.816406 L 170.730469 394.867188 L 169.066406 395.277344 L 167.160156 395.421875 L 165.308594 394.941406 L 163.714844 393.886719 L 162.546875 392.371094 L 161.9375 390.558594 L 161.945313 388.648438 L 162.441406 385.753906 L 161.945313 382.859375 L 161.914063 381.085938 L 162.421875 379.386719 L 163.414063 377.917969 L 164.804688 376.820313 L 166.464844 376.191406 L 168.234375 376.089844 L 170.589844 376.316406 L 172.234375 376.007813 L 173.628906 375.308594 L 175.390625 373.703125 L 176.851563 372.730469 L 178.535156 372.234375 L 180.292969 372.269531 L 183.183594 372.765625 L 186.078125 372.269531 L 188.148438 372.285156 L 190.078125 373.027344 L 191.628906 374.398438 L 192.691406 375.746094 L 193.644531 376.546875 L 194.628906 377.074219 L 195.617188 377.371094 L 197.753906 377.398438 L 200.652344 376.386719 L 202.847656 376.066406 L 209.414063 376.382813 L 211.101563 376.71875 L 212.617188 377.535156 L 213.828125 378.757813 L 214.628906 380.28125 L 214.945313 381.972656 L 214.757813 383.683594 L 214.074219 385.261719 L 212.804688 387.304688 L 212.371094 388.777344 L 212.308594 390.734375 L 212.699219 392.457031 L 213.113281 393.296875 L 213.824219 394.238281 L 214.609375 394.9375 L 215.609375 395.53125 L 216.707031 395.921875 L 217.742188 396.074219 L 218.898438 396.023438 L 220.566406 395.613281 L 222.308594 395.457031 L 224.019531 395.824219 L 225.542969 396.683594 L 226.742188 397.957031 L 227.507813 399.53125 L 227.769531 401.261719 L 227.769531 405.136719 L 227.390625 407.207031 L 226.40625 409.792969 L 226.324219 411.601563 L 228.070313 417.667969 L 229.207031 419.617188 L 230.089844 420.460938 L 231.164063 421.117188 L 232.460938 421.546875 L 233.714844 421.664063 L 234.960938 421.503906 L 236.242188 421.03125 L 237.292969 420.34375 L 238.101563 419.511719 L 239.003906 417.910156 L 239.539063 415.503906 L 240.050781 414.09375 L 240.90625 412.863281 L 242.167969 411.46875 L 242.855469 410.25 L 243.171875 409.253906 L 243.398438 407.539063 L 243.285156 405.453125 L 243.308594 404.550781 L 243.542969 402.242188 L 243.351563 400.992188 L 242.574219 399.285156 L 240.875 397.378906 L 239.78125 395.578125 L 239.398438 393.507813 L 239.398438 389.628906 L 239.480469 388.679688 L 239.976563 385.679688 L 239.527344 383.414063 L 239.03125 382.476563 L 238.195313 381.507813 L 237.171875 380.746094 L 235.976563 380.210938 L 234.746094 379.953125 L 231.566406 379.777344 L 227.457031 379.800781 L 224.367188 380.320313 L 222.421875 380.316406 L 220.582031 379.671875 L 219.0625 378.453125 L 218.03125 376.804688 L 217.597656 374.90625 L 217.816406 372.972656 L 218.664063 371.21875 L 219.746094 369.691406 L 220.480469 367.96875 L 221.589844 366.269531 L 223.214844 365.050781 L 225.160156 364.46875 L 227.1875 364.589844 L 228.949219 365.015625 L 230.070313 365.046875 L 232.382813 364.554688 L 233.992188 364.445313 L 235.789063 364.570313 L 238.101563 364.371094 L 240.191406 363.703125 L 241.011719 363.183594 L 241.894531 362.328125 L 242.582031 361.308594 L 242.960938 360.375 L 243.535156 356.421875 L 243.386719 354.6875 L 242.636719 352.875 L 240.832031 350.808594 L 239.933594 349.421875 L 239.460938 347.835938 L 239.457031 346.183594 L 239.914063 344.59375 L 240.800781 343.199219 L 242.332031 341.414063 L 242.78125 340.433594 L 246.324219 340.394531 L 249.617188 339.34375 L 251.976563 339.082031 L 254.382813 342.558594 L 260.535156 347.621094 L 263.042969 349.058594 L 263.664063 349.039063 L 266.046875 352.214844 Z M 213.652344 433.167969 L 212.417969 433.824219 L 211.0625 434.167969 L 208.855469 434.449219 L 207.582031 434.953125 L 206.382813 435.820313 L 205.398438 437.007813 L 204.910156 437.980469 L 204.617188 439.039063 L 204.367188 441.71875 L 204.492188 443.5 L 204.339844 445.292969 L 203.644531 446.957031 L 202 449.628906 L 201.574219 451.875 L 201.6875 452.945313 L 202.054688 454.0625 L 202.714844 455.171875 L 203.609375 456.121094 L 204.523438 456.753906 L 205.496094 457.175781 L 210.414063 458.0625 L 212.050781 457.820313 L 214.011719 456.929688 L 215.429688 455.566406 L 216.757813 452.929688 L 217.992188 451.28125 L 219.726563 450.167969 L 221.765625 449.320313 L 222.996094 448.386719 L 223.683594 447.566406 L 224.230469 446.554688 L 224.570313 445.457031 L 224.683594 444.292969 L 224.582031 443.226563 L 224.125 441.65625 L 223.964844 439.113281 L 224.359375 436.652344 L 224.152344 435.046875 L 223.410156 433.421875 L 222.203125 432.105469 L 220.308594 431.109375 L 218.25 430.859375 L 216.234375 431.363281 Z M 286.679688 439.636719 L 283.058594 438.976563 L 282.164063 437.605469 L 282.484375 436.070313 L 286.839844 437.054688 L 287.960938 438.832031 Z M 136.210938 448.453125 L 135.929688 448.140625 L 136.109375 446.949219 L 136.398438 446.875 L 136.6875 448.207031 Z M 236.835938 466.113281 L 235.136719 465.644531 L 236.523438 463.683594 L 237.195313 464.164063 L 237.5 465.839844 Z M 228.117188 474.644531 L 222.296875 470.886719 L 220.207031 471.1875 L 221.476563 469.683594 L 227.316406 466.367188 L 232.550781 467.761719 L 234.171875 469.894531 L 231.242188 473.621094 L 229.960938 474.269531 Z M 88.429688 500.046875 L 88.566406 499.308594 L 88.941406 499.117188 L 89.34375 499.789063 Z M 88.429688 500.046875 "/>
<path style=" stroke:none;fill-rule:nonzero;fill:rgb(80.392157%,58.431373%,4.705882%);fill-opacity:1;" d="M 157.984375 242.308594 L 157.699219 244.105469 L 156.875 245.726563 L 155.585938 247.011719 L 153.964844 247.839844 L 152.167969 248.125 L 150.371094 247.839844 L 148.75 247.011719 L 147.464844 245.726563 L 146.636719 244.105469 L 146.492188 243.1875 L 148.300781 243.253906 L 146.382813 242.492188 L 146.355469 242.308594 L 146.636719 240.511719 L 147.464844 238.890625 L 148.75 237.601563 L 150.371094 236.777344 L 152.167969 236.492188 L 153.964844 236.777344 L 155.585938 237.601563 L 156.875 238.890625 L 157.699219 240.511719 Z M 157.984375 242.308594 "/>
<path style=" stroke:none;fill-rule:nonzero;fill:rgb(80.392157%,58.431373%,4.705882%);fill-opacity:1;" d="M 157.984375 172.523438 L 157.929688 172.871094 L 157.109375 173.804688 L 156.367188 175.339844 L 156.707031 175.816406 L 156.910156 175.867188 L 156.875 175.941406 L 155.585938 177.226563 L 153.964844 178.054688 L 152.167969 178.339844 L 150.371094 178.054688 L 148.75 177.226563 L 147.464844 175.941406 L 146.636719 174.320313 L 146.355469 172.523438 L 146.636719 170.726563 L 147.464844 169.105469 L 148.75 167.816406 L 150.371094 166.992188 L 152.167969 166.707031 L 153.964844 166.992188 L 155.414063 167.730469 L 155.320313 167.769531 L 152.441406 170.8125 L 151.949219 171.945313 L 152.140625 172.144531 L 156.300781 168.53125 L 156.875 169.105469 L 157.699219 170.726563 Z M 157.984375 172.523438 "/>
<path style=" stroke:none;fill-rule:nonzero;fill:rgb(80.392157%,58.431373%,4.705882%);fill-opacity:1;" d="M 176.128906 239.378906 L 175.890625 239.257813 L 174.601563 237.972656 L 173.777344 236.351563 L 173.492188 234.554688 L 173.777344 232.757813 L 174.601563 231.136719 L 175.890625 229.847656 L 177.511719 229.023438 L 179.308594 228.738281 L 181.105469 229.023438 L 182.726563 229.847656 L 184.011719 231.136719 L 184.757813 232.601563 L 181.046875 235.800781 L 180.578125 237.003906 Z M 176.128906 239.378906 "/>
<path style=" stroke:none;fill-rule:nonzero;fill:rgb(80.392157%,58.431373%,4.705882%);fill-opacity:1;" d="M 169.617188 358.617188 L 169.332031 360.414063 L 168.503906 362.035156 L 167.21875 363.320313 L 165.597656 364.144531 L 163.800781 364.429688 L 162.003906 364.144531 L 160.382813 363.320313 L 159.09375 362.035156 L 158.269531 360.414063 L 157.984375 358.617188 L 158 358.511719 L 160.492188 357.457031 L 163.644531 357.28125 L 167.339844 357.714844 L 169.304688 356.765625 L 169.332031 356.816406 Z M 169.617188 358.617188 "/>
<path style=" stroke:none;fill-rule:nonzero;fill:rgb(80.392157%,58.431373%,4.705882%);fill-opacity:1;" d="M 139.320313 318.101563 L 140.539063 317.90625 L 142.335938 318.191406 L 143.957031 319.019531 L 145.242188 320.304688 L 145.378906 320.574219 L 145.3125 320.636719 L 141.859375 323.019531 L 139.824219 322.464844 L 137.933594 323.433594 L 137.675781 322.921875 Z M 139.320313 318.101563 "/>
<path style=" stroke:none;fill-rule:nonzero;fill:rgb(80.392157%,58.431373%,4.705882%);fill-opacity:1;" d="M 139.953125 373.230469 L 140.078125 373.296875 L 141.367188 374.582031 L 142.191406 376.203125 L 142.40625 377.542969 L 142.039063 378.097656 L 136.757813 378.433594 L 136.246094 378.0625 L 137.339844 376.066406 Z M 139.953125 373.230469 "/>
<path style=" stroke:none;fill-rule:nonzero;fill:rgb(80.392157%,58.431373%,4.705882%);fill-opacity:1;" d="M 164.992188 357.441406 L 164.628906 358.15625 L 163.339844 359.441406 L 161.71875 360.269531 L 159.921875 360.554688 L 158.125 360.269531 L 156.503906 359.441406 L 156.296875 359.234375 L 160.492188 357.457031 L 163.644531 357.28125 Z M 154.902344 357.535156 L 154.390625 356.535156 L 154.347656 356.257813 L 155.546875 356.503906 Z M 154.902344 357.535156 "/>
</g>
</svg>
