<?xml version="1.0" encoding="UTF-8"?>
<svg xmlns="http://www.w3.org/2000/svg" xmlns:xlink="http://www.w3.org/1999/xlink" width="378pt" height="504pt" viewBox="0 0 378 504" version="1.1">
<g id="data">
<rect x="0" y="0" width="378" height="504" style="fill:rgb(100%,100%,100%);fill-opacity:1;stroke:none;"/>
<path style=" stroke:none;fill-rule:nonzero;fill:rgb(100%,100%,100%);fill-opacity:1;" d="M 53.308594 504 L 324.691406 504 L 324.691406 0 L 53.308594 0 Z M 53.308594 504 "/>
<path style=" stroke:none;fill-rule:nonzero;fill:rgb(22.745098%,53.333333%,16.078431%);fill-opacity:1;" d="M 183.183594 219.046875 L 185.535156 218.941406 L 187.703125 218.40625 L 187.167969 220.570313 L 187.160156 220.699219 L 185.519531 221.085938 L 182.847656 221.226563 L 177.804688 225.21875 L 178.117188 225.714844 L 179.84375 225.195313 L 184.609375 222.886719 L 186.457031 221.386719 L 187.132813 221.328125 L 187.0625 222.921875 L 184.804688 224.71875 L 181.632813 228.472656 L 180.441406 230.417969 L 179.617188 232.679688 L 179.152344 236.050781 L 179.28125 237.699219 L 174.761719 240.109375 L 170.214844 238.117188 L 166.480469 238.003906 L 166.738281 239.222656 L 168.246094 240.195313 L 178.0625 241.875 L 180.492188 242.523438 L 181.335938 244.101563 L 184.46875 247.792969 L 186.332031 249.371094 L 189.085938 250.75 L 191.976563 251.351563 L 195.050781 251.179688 L 197.976563 250.207031 L 200.542969 248.503906 L 202.570313 246.183594 L 205.621094 246.183594 L 206.488281 246.65625 L 208.910156 251.429688 L 212.824219 256.707031 L 213.265625 256.828125 L 213.433594 256.585938 L 214.601563 257.097656 L 215.097656 257.4375 L 215.390625 258.191406 L 216.605469 260.121094 L 218.078125 261.691406 L 218.078125 269.445313 L 216.921875 270.972656 L 215.679688 267.640625 L 213.421875 264.722656 L 210.640625 262.699219 L 207.265625 261.550781 L 204.972656 261.378906 L 202.570313 261.691406 L 199.082031 260.410156 L 195.371094 260.292969 L 191.351563 261.585938 L 188.144531 264.132813 L 184.773438 268.136719 L 183.199219 271.753906 L 182.871094 274.539063 L 183.183594 277.199219 L 182.519531 281.078125 L 183.183594 284.953125 L 183.007813 285.144531 L 182.34375 284.746094 L 180.035156 285.351563 L 174.65625 284.980469 L 172.566406 284.292969 L 169.453125 284.03125 L 168.777344 286.761719 L 167.675781 284.953125 L 169.675781 283.34375 L 171.269531 281.332031 L 172.386719 279.019531 L 172.96875 276.515625 L 172.835938 272.933594 L 171.554688 269.445313 L 172.355469 265.816406 L 172 262.246094 L 170.710938 259.167969 L 168.695313 256.671875 L 166.75 255.199219 L 163.800781 253.9375 L 161.382813 252.261719 L 159.121094 251.371094 L 156.722656 250.96875 L 154.292969 251.074219 L 151.941406 251.683594 L 151.851563 249.121094 L 151.160156 246.519531 L 149.960938 244.253906 L 148.292969 242.308594 L 151.023438 243.023438 L 153.851563 243.054688 L 156.597656 242.410156 L 159.003906 241.191406 L 161.96875 238.359375 L 163.800781 234.554688 L 167.050781 232.785156 L 169.511719 230.191406 L 171.140625 226.726563 L 171.554688 222.921875 L 174.433594 223.046875 L 178.160156 222.363281 L 180.890625 221.035156 Z M 181.703125 286.542969 L 180.496094 288.457031 L 179.683594 290.585938 L 179.308594 292.707031 L 177.492188 294.140625 L 175.996094 295.902344 L 174.929688 297.804688 L 174.210938 300.003906 L 174.042969 304.09375 L 174.542969 306.21875 L 175.429688 308.214844 L 175.195313 312.277344 L 176.378906 316.175781 L 177.695313 318.210938 L 179.308594 319.847656 L 180.742188 322.628906 L 179.199219 323.441406 L 177.335938 322.691406 L 172.851563 314.925781 L 172.289063 311.832031 L 171.683594 310.941406 L 171.710938 309.839844 L 171.246094 306.339844 L 169.871094 303.078125 L 168.4375 301.367188 L 169.164063 299.058594 L 174.074219 288.722656 L 176.464844 286.417969 L 178.757813 285.980469 L 180.191406 286.804688 L 181.015625 286.710938 Z M 185.675781 327.007813 L 186.574219 327.441406 L 189.539063 328.179688 L 192.210938 328.195313 L 194.816406 327.601563 L 195.375 330.328125 L 196.566406 332.847656 L 198.230469 334.921875 L 200.449219 336.648438 L 203.023438 337.800781 L 205.804688 338.296875 L 208.621094 338.109375 L 211.191406 337.304688 L 213.402344 336.003906 L 216.722656 333.175781 L 218.359375 330.722656 L 219.296875 328.058594 L 219.445313 323.839844 L 218.078125 319.847656 L 218.742188 315.96875 L 218.078125 312.09375 L 219.308594 309.007813 L 219.621094 305.699219 L 219.179688 303.050781 L 218.078125 300.460938 L 219.410156 298.644531 L 220.367188 296.605469 L 222.261719 298.304688 L 224.597656 299.601563 L 227.039063 300.308594 L 229.707031 300.460938 L 230.59375 302.734375 L 232.015625 304.875 L 233.875 306.648438 L 235.960938 307.917969 L 238.261719 308.722656 L 240.554688 309.027344 L 242.992188 308.851563 L 245.214844 308.214844 L 245.660156 310.582031 L 246.519531 312.691406 L 247.777344 314.597656 L 249.527344 316.433594 L 250.660156 317.234375 L 252.390625 319.148438 L 256.121094 320.875 L 256.320313 321.027344 L 255.855469 322.066406 L 255.761719 322.527344 L 254.738281 323.09375 L 253.890625 324.554688 L 253.765625 325.996094 L 254.984375 329.992188 L 256.160156 332.453125 L 257.46875 334.285156 L 257.53125 334.566406 L 258.59375 336.722656 L 262.167969 341.128906 L 262.628906 341.503906 L 263.316406 342.46875 L 263.640625 343.980469 L 262.804688 345.191406 L 263.28125 343.65625 L 262.507813 342.839844 L 260.445313 342 L 258.378906 342.789063 L 257.507813 342.753906 L 256.035156 341.773438 L 253.664063 338.65625 L 252.601563 338.082031 L 245.550781 339.511719 L 244.589844 338.644531 L 243.40625 338.558594 L 241.210938 339.871094 L 241.886719 340.445313 L 246.324219 340.394531 L 249.617188 339.34375 L 251.976563 339.082031 L 254.382813 342.558594 L 260.535156 347.621094 L 263.042969 349.058594 L 263.664063 349.039063 L 266.046875 352.214844 L 268.40625 357.914063 L 268.789063 361.292969 L 269.453125 363.117188 L 269.210938 365.21875 L 264.953125 369.09375 L 261.394531 373.164063 L 260.601563 374.816406 L 262.84375 374.3125 L 264.9375 375.519531 L 266.9375 378.226563 L 270.21875 378.804688 L 270.625 378.746094 L 271.910156 376.796875 L 272.234375 374.960938 L 273.40625 371.914063 L 274.707031 370.632813 L 277.851563 370.085938 L 279.476563 370.128906 L 281.605469 370.402344 L 283.519531 370.351563 L 284.253906 370.867188 L 286.703125 370.742188 L 288.675781 370.953125 L 290.15625 372.238281 L 292.886719 373.566406 L 296.613281 374.246094 L 298.707031 374.15625 L 300.621094 375.558594 L 301.199219 376.292969 L 303.371094 378 L 305.4375 380.519531 L 305.53125 380.585938 L 306.730469 384.164063 L 307.179688 391.25 L 306.777344 393.191406 L 306.890625 393.976563 L 305.789063 396.917969 L 305.195313 399.773438 L 305.1875 399.785156 L 303.925781 402.410156 L 303.246094 406.136719 L 303.328125 408.035156 L 297.144531 414.53125 L 295.578125 412.011719 L 292.742188 410.515625 L 292.480469 410.636719 L 293.898438 413.703125 L 295.890625 416.628906 L 296.3125 416.765625 L 296.164063 417.742188 L 294.574219 419.804688 L 292.191406 421.289063 L 290.003906 421.65625 L 289.660156 421.574219 L 288.214844 419.332031 L 284.976563 421.730469 L 280.71875 424.230469 L 282.339844 425.378906 L 285.105469 424.398438 L 286.097656 423.375 L 286.894531 423.164063 L 287.328125 423.710938 L 287.632813 428.84375 L 285.6875 430.875 L 283.441406 432.558594 L 282.84375 432.699219 L 279.644531 432.160156 L 274.75 433.78125 L 272.609375 436.117188 L 274.253906 436.015625 L 275.152344 434.667969 L 276.683594 434.363281 L 278.285156 434.328125 L 281.054688 434.949219 L 281.828125 435.589844 L 281.691406 436.328125 L 279.554688 436.347656 L 277.390625 437.65625 L 277.96875 438.546875 L 281.382813 438.964844 L 286.863281 440.339844 L 289.394531 439.9375 L 291.074219 438.957031 L 296.363281 438.226563 L 299.492188 440.03125 L 299.492188 447.785156 L 297.320313 449.492188 L 296.707031 450.273438 L 295.839844 450.375 L 292.621094 451.640625 L 291.179688 452.742188 L 289.847656 454.226563 L 289.460938 455.09375 L 289.214844 456.324219 L 289.246094 456.523438 L 289 456.839844 L 288.480469 458.011719 L 286.253906 458.289063 L 284.1875 457.9375 L 281.042969 460.90625 L 278.484375 461.933594 L 274.789063 462.777344 L 272.597656 463.816406 L 272.085938 464.503906 L 270.5625 465.320313 L 268.988281 466.714844 L 259.269531 463.777344 L 258.8125 463.738281 L 257.976563 463.441406 L 254.96875 463.128906 L 248.210938 463.398438 L 244.503906 464.65625 L 241.339844 467.167969 L 240.160156 467.410156 L 238.210938 466.1875 L 238.632813 465.4375 L 239.46875 464.933594 L 237.714844 463.296875 L 231.496094 463.171875 L 231.378906 463.496094 L 232.574219 464.835938 L 232.214844 465.75 L 231.738281 466.042969 L 226.691406 465.496094 L 219.566406 468.449219 L 217.054688 467.824219 L 210.222656 468.96875 L 208.164063 468.875 L 207.273438 468.058594 L 206.238281 469.769531 L 209.429688 471.089844 L 209.714844 470.9375 L 210.1875 472.128906 L 209.566406 473.890625 L 206.84375 474.453125 L 204.453125 473.097656 L 203.015625 472.699219 L 197.625 472.007813 L 196.175781 472.65625 L 195.679688 473.863281 L 195.832031 474.871094 L 196.757813 475.523438 L 196.488281 476.304688 L 195.917969 475.996094 L 194.941406 474.144531 L 194.976563 472.796875 L 194.652344 469.121094 L 193.84375 466.40625 L 192.324219 463.867188 L 189.792969 461.492188 L 186.800781 460.007813 L 183.378906 459.433594 L 180.0625 459.859375 L 178.019531 460.640625 L 176.261719 461.71875 L 173.445313 464.707031 L 172.378906 466.765625 L 171.738281 468.992188 L 171.46875 471.890625 L 168.992188 473.234375 L 168.214844 474.070313 L 167.203125 476.179688 L 163.601563 486.714844 L 161.28125 488.625 L 160.175781 490.09375 L 159.339844 489.929688 L 157.523438 488.371094 L 157.152344 488.199219 L 156.527344 486.851563 L 154.683594 485.4375 L 153.613281 485.542969 L 152.417969 486.300781 L 151.738281 486.164063 L 148.46875 482.535156 L 142.796875 482.960938 L 141.527344 483.375 L 141.25 483.65625 L 140.667969 483.59375 L 138.492188 483.773438 L 136.339844 484.382813 L 134.507813 484.320313 L 132.167969 484.859375 L 129.414063 488.195313 L 126.714844 489.746094 L 124.039063 490.597656 L 123.132813 494.289063 L 123.214844 494.445313 L 122.5625 495.175781 L 121.546875 497.347656 L 120.660156 497.648438 L 120.394531 498.183594 L 118.253906 498.183594 L 117.96875 497.691406 L 118.09375 496.4375 L 117.15625 494.691406 L 115.984375 493.691406 L 112.253906 492.070313 L 111.410156 491.984375 L 110.375 492.488281 L 110.242188 494.183594 L 110.007813 494.453125 L 108.527344 494.183594 L 105.644531 494.308594 L 107.816406 492.601563 L 109.523438 490.429688 L 112.042969 488.359375 L 112.140625 488.230469 L 112.199219 488.253906 L 112.445313 488.9375 L 113.574219 489.15625 L 118.144531 485.910156 L 121.425781 483.085938 L 124.375 479.769531 L 125.210938 477.886719 L 124.875 476.421875 L 125.640625 474.519531 L 128.386719 473.238281 L 132.105469 472.640625 L 132.679688 471.785156 L 133.257813 469.527344 L 135.859375 467.5625 L 138.636719 464.640625 L 138.734375 463.414063 L 139.164063 463.441406 L 144.234375 462.910156 L 147.078125 461.722656 L 149.417969 459.921875 L 151.292969 457.476563 L 152.429688 454.75 L 152.832031 451.183594 L 152.167969 447.785156 L 152.859375 447.082031 L 157.894531 448.269531 L 160.304688 448.445313 L 163.195313 447.980469 L 166.375 446.648438 L 166.761719 446.324219 L 167.527344 446.515625 L 169.484375 447.285156 L 170.039063 448.109375 L 170.757813 448.421875 L 173.15625 448.464844 L 180.570313 447.503906 L 181.109375 445.632813 L 181.210938 443.15625 L 182.519531 440.25 L 190.867188 432.195313 L 195.792969 425.3125 L 197.929688 424.472656 L 198.285156 423.78125 L 198.070313 423.238281 L 197.8125 423.082031 L 196.09375 424.355469 L 192.90625 427.300781 L 190.570313 429.988281 L 189.222656 431.449219 L 185.628906 432.957031 L 183.714844 433.246094 L 182.441406 433.0625 L 178.394531 435.230469 L 177.398438 436.808594 L 177.039063 438.671875 L 176.445313 439.273438 L 174.058594 439.917969 L 171.722656 439.875 L 174.640625 437.152344 L 175.824219 435.167969 L 176.625 432.859375 L 176.917969 430.695313 L 176.800781 428.515625 L 175.429688 424.523438 L 175.429688 420.644531 L 176.09375 416.515625 L 175.152344 411.140625 L 173.75 407.753906 L 171.554688 405.136719 L 170.46875 402.960938 L 168.949219 401.054688 L 166.960938 399.4375 L 164.667969 398.292969 L 162.179688 397.679688 L 159.617188 397.625 L 156.144531 398.492188 L 154.011719 399.667969 L 152.167969 401.261719 L 149.460938 401.8125 L 149.175781 401.945313 L 149.359375 401.828125 L 152.136719 398.207031 L 153.054688 396.195313 L 154.148438 391.953125 L 154.339844 391.800781 L 156.046875 389.628906 L 158.828125 392.058594 L 162.230469 393.492188 L 165.015625 393.824219 L 167.675781 393.507813 L 169.722656 394.257813 L 171.875 394.613281 L 175.316406 394.34375 L 178.96875 392.804688 L 181.808594 390.230469 L 183.660156 386.871094 L 184.320313 383.09375 L 184.027344 380.421875 L 183.183594 378 L 183.332031 375.496094 L 182.871094 371.445313 L 181.894531 368.796875 L 180.390625 366.558594 L 178.617188 364.882813 L 176.535156 363.613281 L 174.105469 362.777344 L 171.554688 362.492188 L 169.882813 360.941406 L 168.050781 359.804688 L 165.921875 358.988281 L 163.800781 358.617188 L 162.789063 357.328125 L 163.644531 357.28125 L 167.339844 357.714844 L 172.597656 355.179688 L 173.933594 355.046875 L 174.484375 355.082031 L 179.910156 359.441406 L 180.433594 358.429688 L 177.679688 353.460938 L 178.242188 352.835938 L 180.867188 352.449219 L 181.503906 352.695313 L 181.914063 353.875 L 182.898438 354.332031 L 184.078125 356.789063 L 185.613281 357.902344 L 188.359375 357.621094 L 190.335938 355.148438 L 189.90625 355.050781 L 188.667969 355.527344 L 188.3125 355.957031 L 186.378906 356.386719 L 183.8125 354.640625 L 179.976563 346.332031 L 183.371094 340.257813 L 185.429688 339.015625 L 185.140625 338.578125 L 182.683594 338.460938 L 182.300781 338.023438 L 182.886719 336.167969 L 182.789063 332.460938 L 182.039063 330.382813 L 184.695313 329.191406 Z M 218.078125 412.890625 L 218.308594 415.949219 L 219.390625 418.957031 L 220.578125 420.78125 L 222.082031 422.351563 L 223.855469 423.613281 L 225.832031 424.523438 L 225.539063 427.949219 L 226.261719 431.3125 L 227.9375 434.316406 L 230.503906 436.804688 L 232.367188 437.941406 L 234.535156 438.742188 L 236.820313 439.097656 L 239.128906 438.996094 L 241.371094 438.4375 L 243.457031 437.449219 L 245.308594 436.070313 L 246.839844 434.378906 L 248.492188 431.25 L 249.726563 426.175781 L 249.886719 423.355469 L 249.359375 420.578125 L 248.113281 417.902344 L 246.328125 415.714844 L 244.066406 414.023438 L 241.339844 412.890625 L 241.15625 410.085938 L 240.308594 407.402344 L 238.757813 404.90625 L 236.734375 402.953125 L 233.824219 401.347656 L 230.570313 400.621094 L 227.367188 400.824219 L 224.230469 401.949219 L 221.539063 403.921875 L 219.582031 406.464844 L 218.363281 409.570313 Z M 232.914063 471.492188 L 231.6875 472.492188 L 230.4375 474.027344 L 229.960938 474.269531 L 228.117188 474.644531 L 222.296875 470.886719 L 220.207031 471.1875 L 221.476563 469.683594 L 227.316406 466.367188 L 232.550781 467.761719 L 234.171875 469.894531 Z M 214.199219 281.078125 L 215.355469 279.550781 L 216.816406 283.253906 Z M 121.519531 416.871094 L 122.589844 417.171875 L 121.445313 417.105469 Z M 123.832031 417.445313 L 125.941406 417.578125 L 128.355469 417.214844 L 130.640625 416.359375 L 132.699219 415.046875 L 134.433594 413.332031 L 135.777344 411.289063 L 136.660156 409.015625 L 138.800781 408.636719 L 140.945313 407.808594 L 142.789063 406.65625 L 144.378906 405.175781 L 142.554688 407.953125 L 141.609375 411.003906 L 141.527344 414.199219 L 142.316406 417.292969 L 143.921875 420.054688 L 146.191406 422.273438 L 148.960938 423.792969 L 152.167969 424.523438 L 150 426.230469 L 149.773438 426.515625 L 147.785156 426.460938 L 143.210938 423.710938 L 139.839844 423.714844 L 138.605469 422.289063 L 136.175781 420.613281 L 133.652344 419.664063 L 130.847656 419.320313 L 128.042969 419.664063 L 125.402344 420.671875 L 125.375 420.691406 L 124.929688 417.953125 Z M 122.984375 422.382813 L 122.015625 423.515625 L 121.496094 423.164063 Z M 145.871094 287.953125 L 145.851563 285.832031 L 145.410156 283.628906 L 148.292969 284.953125 Z M 88.945313 499.121094 L 88.542969 499.441406 L 88.566406 499.308594 L 88.941406 499.117188 Z M 286.679688 439.636719 L 283.058594 438.976563 L 282.164063 437.605469 L 282.484375 436.070313 L 286.839844 437.054688 L 287.960938 438.832031 Z M 236.835938 466.113281 L 235.136719 465.644531 L 236.523438 463.683594 L 237.195313 464.164063 L 237.5 465.839844 Z M 236.835938 466.113281 "/>
</g>
</svg>
