<?xml version="1.0" encoding="UTF-8"?>
<svg xmlns="http://www.w3.org/2000/svg" xmlns:xlink="http://www.w3.org/1999/xlink" width="378pt" height="504pt" viewBox="0 0 378 504" version="1.1">
<g id="data">
<rect x="0" y="0" width="378" height="504" style="fill:rgb(100%,100%,100%);fill-opacity:1;stroke:none;"/>
<path style=" stroke:none;fill-rule:nonzero;fill:rgb(100%,100%,100%);fill-opacity:1;" d="M 53.308594 504 L 324.691406 504 L 324.691406 0 L 53.308594 0 Z M 53.308594 504 "/>
<path style=" stroke:none;fill-rule:nonzero;fill:rgb(22.745098%,53.333333%,16.078431%);fill-opacity:1;" d="M 256.320313 321.027344 L 255.855469 322.066406 L 255.761719 322.527344 L 254.738281 323.09375 L 253.890625 324.554688 L 253.765625 325.996094 L 254.984375 329.992188 L 256.160156 332.453125 L 257.46875 334.285156 L 257.53125 334.566406 L 258.59375 336.722656 L 262.167969 341.128906 L 262.628906 341.503906 L 263.316406 342.46875 L 263.640625 343.980469 L 262.804688 345.191406 L 263.28125 343.65625 L 262.507813 342.839844 L 260.445313 342 L 258.378906 342.789063 L 257.507813 342.753906 L 256.035156 341.773438 L 253.664063 338.65625 L 252.601563 338.082031 L 245.550781 339.511719 L 244.589844 338.644531 L 243.40625 338.558594 L 241.210938 339.871094 L 241.886719 340.445313 L 246.324219 340.394531 L 249.617188 339.34375 L 251.976563 339.082031 L 254.382813 342.558594 L 260.535156 347.621094 L 263.042969 349.058594 L 263.664063 349.039063 L 266.046875 352.214844 L 268.40625 357.921875 L 268.820313 361.417969 L 269.453125 363.105469 L 269.210938 365.21875 L 264.953125 369.09375 L 261.394531 373.164063 L 260.601563 374.816406 L 262.84375 374.3125 L 264.9375 375.519531 L 266.9375 378.226563 L 270.21875 378.804688 L 270.625 378.746094 L 271.910156 376.796875 L 272.234375 374.960938 L 273.40625 371.914063 L 274.707031 370.632813 L 277.851563 370.085938 L 279.476563 370.128906 L 281.605469 370.402344 L 283.519531 370.351563 L 284.253906 370.867188 L 286.703125 370.742188 L 288.675781 370.953125 L 290.15625 372.238281 L 292.886719 373.566406 L 296.613281 374.246094 L 298.707031 374.15625 L 300.511719 375.476563 L 300.851563 375.929688 L 303.371094 378 L 305.074219 380.171875 L 305.503906 380.507813 L 306.730469 384.164063 L 307.125 390.34375 L 306.582031 393.507813 L 306.734375 394.394531 L 305.789063 396.917969 L 305.183594 399.824219 L 303.925781 402.410156 L 303.246094 406.136719 L 303.328125 408.035156 L 297.144531 414.53125 L 295.578125 412.011719 L 292.742188 410.515625 L 292.480469 410.636719 L 293.898438 413.703125 L 295.890625 416.628906 L 296.3125 416.765625 L 296.164063 417.742188 L 294.574219 419.804688 L 292.191406 421.289063 L 290.003906 421.65625 L 289.660156 421.574219 L 288.214844 419.332031 L 284.976563 421.730469 L 280.71875 424.230469 L 282.339844 425.378906 L 285.105469 424.398438 L 286.097656 423.375 L 286.894531 423.164063 L 287.328125 423.710938 L 287.632813 428.84375 L 285.6875 430.875 L 283.441406 432.558594 L 282.84375 432.699219 L 279.644531 432.160156 L 274.75 433.78125 L 272.609375 436.117188 L 274.253906 436.015625 L 275.152344 434.667969 L 276.683594 434.363281 L 278.285156 434.328125 L 281.054688 434.949219 L 281.828125 435.589844 L 281.691406 436.328125 L 279.554688 436.347656 L 277.390625 437.65625 L 277.96875 438.546875 L 281.382813 438.964844 L 286.863281 440.339844 L 289.394531 439.9375 L 291.074219 438.957031 L 296.363281 438.226563 L 299.492188 440.03125 L 299.492188 447.785156 L 297.320313 449.492188 L 296.707031 450.273438 L 295.839844 450.375 L 292.621094 451.640625 L 291.179688 452.742188 L 289.847656 454.226563 L 289.460938 455.09375 L 289.214844 456.324219 L 289.246094 456.523438 L 289 456.839844 L 288.480469 458.011719 L 286.253906 458.289063 L 284.1875 457.9375 L 282.140625 459.871094 L 280.660156 460.191406 L 278.210938 461.515625 L 277.496094 462.15625 L 274.789063 462.777344 L 272.597656 463.816406 L 272.101563 464.484375 L 271.417969 464.78125 L 269.023438 466.726563 L 259.269531 463.777344 L 258.8125 463.738281 L 257.976563 463.441406 L 250.96875 463.128906 L 247.710938 463.488281 L 244.171875 464.84375 L 241.339844 467.167969 L 240.160156 467.410156 L 238.210938 466.1875 L 238.632813 465.4375 L 239.46875 464.933594 L 237.714844 463.296875 L 231.496094 463.171875 L 231.378906 463.496094 L 232.574219 464.835938 L 232.214844 465.75 L 231.738281 466.042969 L 226.691406 465.496094 L 219.566406 468.449219 L 217.054688 467.824219 L 210.222656 468.96875 L 208.164063 468.875 L 207.273438 468.058594 L 206.238281 469.769531 L 209.429688 471.089844 L 209.714844 470.9375 L 210.1875 472.128906 L 209.566406 473.890625 L 206.84375 474.453125 L 204.453125 473.097656 L 203.015625 472.699219 L 197.625 472.007813 L 196.175781 472.65625 L 195.679688 473.863281 L 195.816406 474.75 L 195.308594 474.839844 L 194.863281 474 L 194.957031 472.292969 L 194.40625 467.996094 L 193.34375 465.378906 L 191.589844 463.007813 L 189.183594 461.082031 L 186.359375 459.855469 L 183.441406 459.417969 L 180.382813 459.757813 L 176.535156 461.503906 L 174.871094 462.914063 L 173.496094 464.609375 L 172.414063 466.65625 L 171.757813 468.871094 L 171.464844 471.894531 L 168.992188 473.234375 L 168.214844 474.070313 L 167.203125 476.179688 L 163.601563 486.714844 L 161.28125 488.625 L 160.175781 490.09375 L 159.347656 489.933594 L 157.628906 488.441406 L 157.160156 488.210938 L 156.527344 486.851563 L 154.683594 485.4375 L 153.613281 485.542969 L 152.417969 486.300781 L 151.738281 486.164063 L 148.46875 482.535156 L 142.796875 482.960938 L 141.527344 483.375 L 141.242188 483.664063 L 139.640625 483.628906 L 136.996094 484.144531 L 136.460938 484.386719 L 134.507813 484.320313 L 132.167969 484.859375 L 129.414063 488.195313 L 126.714844 489.746094 L 124.039063 490.597656 L 123.132813 494.289063 L 123.214844 494.441406 L 122.632813 495.066406 L 121.550781 497.34375 L 120.660156 497.648438 L 120.394531 498.183594 L 118.253906 498.183594 L 117.96875 497.691406 L 118.09375 496.4375 L 117.15625 494.691406 L 115.984375 493.691406 L 112.253906 492.070313 L 111.410156 491.984375 L 110.375 492.488281 L 110.242188 494.183594 L 110.054688 494.402344 L 109.523438 494.308594 L 108.820313 493.617188 L 109.523438 490.429688 L 111.691406 488.722656 L 112.09375 488.214844 L 112.199219 488.253906 L 112.445313 488.9375 L 113.574219 489.15625 L 118.144531 485.910156 L 121.425781 483.085938 L 124.375 479.769531 L 125.210938 477.886719 L 124.875 476.421875 L 125.640625 474.519531 L 128.386719 473.238281 L 132.105469 472.640625 L 132.679688 471.785156 L 133.257813 469.527344 L 135.859375 467.5625 L 138.636719 464.640625 L 138.746094 463.292969 L 140.539063 463.292969 L 142.292969 464.589844 L 144.382813 465.578125 L 146.625 466.132813 L 148.933594 466.234375 L 151.09375 465.910156 L 153.269531 465.136719 L 157.570313 462.183594 L 161.617188 457.679688 L 163.179688 455.046875 L 164.074219 451.464844 L 163.800781 447.785156 L 167.675781 447.785156 L 171.386719 449.152344 L 175.34375 449.195313 L 179.308594 447.785156 L 181.597656 447.558594 L 183.800781 446.882813 L 186.035156 445.640625 L 187.945313 443.941406 L 188.226563 446.476563 L 189 448.773438 L 190.230469 450.863281 L 191.867188 452.648438 L 194.984375 454.628906 L 198.691406 455.539063 L 200.582031 457.804688 L 202.984375 459.519531 L 207 460.8125 L 210.839844 460.671875 L 214.199219 459.414063 L 217.289063 458.730469 L 219.972656 457.3125 L 222.289063 455.148438 L 223.683594 452.992188 L 224.601563 450.460938 L 224.914063 447.785156 L 224.632813 445.234375 L 223.625 442.460938 L 221.953125 440.03125 L 222.203125 436.09375 L 221.175781 432.417969 L 219.273438 429.550781 L 215.78125 426.410156 L 212.6875 424.964844 L 207.210938 423.882813 L 204.667969 423.996094 L 198.542969 425.242188 L 195.515625 426.90625 L 193.1875 429.28125 L 191.625 432.222656 L 190.957031 435.480469 L 190.617188 432.679688 L 190.546875 432.5 L 190.867188 432.195313 L 195.792969 425.3125 L 197.929688 424.472656 L 198.285156 423.78125 L 198.070313 423.238281 L 197.8125 423.082031 L 196.09375 424.355469 L 192.90625 427.300781 L 190.570313 429.988281 L 189.882813 430.734375 L 189.667969 430.160156 L 188.082031 427.824219 L 185.980469 425.941406 L 183.609375 424.667969 L 180.878906 423.953125 L 178.054688 423.921875 L 175.429688 424.523438 L 175.429688 420.644531 L 176.09375 416.515625 L 175.121094 411.015625 L 173.75 407.753906 L 171.554688 405.136719 L 171.828125 401.457031 L 170.933594 397.875 L 169.601563 395.550781 L 167.675781 393.507813 L 171.488281 394.582031 L 175.441406 394.3125 L 179.074219 392.734375 L 182.042969 389.925781 L 183.527344 387.234375 L 184.265625 384.121094 L 184.152344 381.050781 L 183.183594 378 L 183.824219 374.984375 L 183.671875 372.039063 L 182.246094 368.195313 L 179.472656 365.007813 L 175.746094 363.019531 L 171.554688 362.492188 L 169.847656 360.320313 L 166.707031 357.640625 L 167.339844 357.714844 L 172.597656 355.179688 L 173.933594 355.046875 L 174.484375 355.082031 L 179.910156 359.441406 L 180.433594 358.429688 L 177.679688 353.460938 L 178.242188 352.835938 L 180.867188 352.449219 L 181.503906 352.695313 L 181.914063 353.875 L 182.898438 354.332031 L 183.59375 355.78125 L 183.570313 355.824219 L 182.871094 359.578125 L 183.441406 365.675781 L 185.082031 369.550781 L 187.585938 372.277344 L 190.9375 374.125 L 193.207031 376 L 195.390625 377.082031 L 197.878906 377.699219 L 201.710938 377.578125 L 205.40625 376.152344 L 208.324219 373.667969 L 210.324219 370.246094 L 212.949219 373.054688 L 216.46875 374.894531 L 220.402344 375.441406 L 224.289063 374.632813 L 227.777344 372.480469 L 230.867188 368.707031 L 232.355469 365.167969 L 232.625 361.464844 L 231.605469 357.632813 L 229.707031 354.738281 L 227.929688 351.203125 L 225.28125 348.609375 L 221.953125 346.984375 L 225.304688 345.136719 L 227.808594 342.410156 L 229.328125 339.035156 L 229.707031 335.355469 L 233.074219 336.007813 L 235.238281 335.902344 L 237.460938 335.355469 L 239.960938 335.941406 L 242.660156 335.953125 L 246.003906 335.058594 L 248.9375 333.214844 L 250.988281 330.917969 L 252.320313 328.28125 L 253.734375 319.769531 L 256.121094 320.875 Z M 233.585938 366.371094 L 232.917969 370.246094 L 233.585938 374.125 L 229.933594 376.214844 L 227.265625 379.464844 L 226.089844 382.570313 L 225.832031 385.753906 L 225.015625 389.746094 L 225.472656 393.285156 L 227.054688 396.625 L 229.503906 399.222656 L 232.746094 401 L 230.21875 400.601563 L 227.792969 400.746094 L 225.332031 401.4375 L 223.082031 402.648438 L 221.238281 404.230469 L 219.695313 406.269531 L 218.636719 408.597656 L 218.113281 411.101563 L 218.257813 415.699219 L 219.636719 419.40625 L 222.277344 422.515625 L 225.832031 424.523438 L 225.523438 426.800781 L 225.667969 429.09375 L 226.261719 431.3125 L 227.28125 433.371094 L 230.484375 437 L 232.816406 438.777344 L 235.890625 440.015625 L 239.316406 440.328125 L 242.71875 439.832031 L 244.898438 439.160156 L 247.113281 437.929688 L 249.09375 436.152344 L 252.222656 436.253906 L 256.058594 435.46875 L 258.640625 434.125 L 260.722656 432.277344 L 268.664063 432.511719 L 271.148438 431.933594 L 273.449219 430.828125 L 276.960938 427.695313 L 278.683594 425.347656 L 279.699219 422.890625 L 280.855469 417.65625 L 280.789063 414.578125 L 279.917969 411.625 L 278.382813 409.101563 L 276.160156 406.972656 L 273.335938 405.453125 L 269.621094 404.53125 L 267.078125 404.558594 L 264.601563 405.136719 L 262.472656 404.976563 L 258.167969 405.277344 L 255.117188 406.222656 L 252.539063 407.882813 L 250.480469 410.160156 L 249.09375 412.890625 L 241.339844 412.890625 L 240.96875 409.253906 L 239.417969 405.804688 L 241.65625 406.351563 L 243.960938 406.441406 L 246.238281 406.082031 L 248.398438 405.277344 L 250.949219 403.574219 L 252.96875 401.261719 L 256.914063 400.8125 L 260.480469 399.058594 L 262.945313 396.628906 L 264.589844 393.578125 L 265.167969 391.207031 L 265.238281 388.765625 L 264.835938 386.488281 L 263.890625 383.964844 L 262.589844 381.910156 L 260.988281 380.253906 L 259.089844 378.945313 L 256.847656 378 L 257.5 374.632813 L 257.394531 372.472656 L 256.847656 370.246094 L 257.296875 368.109375 L 257.34375 365.925781 L 256.835938 363.277344 L 255.664063 360.710938 L 253.242188 357.890625 L 250.175781 356.027344 L 246.5625 355.179688 L 242.859375 355.511719 L 239.347656 357.066406 L 236.308594 359.792969 L 234.40625 362.925781 Z M 194.816406 405.136719 L 195.902344 407.316406 L 197.417969 409.222656 L 199.40625 410.839844 L 201.578125 411.9375 L 204.0625 412.578125 L 206.496094 412.671875 L 209.015625 412.214844 L 211.265625 411.285156 L 216.546875 407.128906 L 219.332031 403.675781 L 220.546875 401.558594 L 221.320313 399.113281 L 221.535156 396.425781 L 221.121094 393.761719 L 220.109375 391.261719 L 218.632813 389.160156 L 216.730469 387.4375 L 214.5 386.167969 L 212.167969 385.445313 L 209.351563 385.238281 L 206.445313 385.753906 L 204.183594 385.289063 L 201.996094 385.265625 L 199.601563 385.726563 L 197.355469 386.675781 L 195.164063 388.246094 L 193.390625 390.277344 L 192.132813 392.660156 L 191.460938 395.273438 L 191.402344 397.964844 L 191.96875 400.601563 L 193.128906 403.035156 Z M 232.914063 471.492188 L 231.6875 472.492188 L 230.4375 474.027344 L 229.960938 474.269531 L 228.117188 474.644531 L 222.296875 470.886719 L 220.207031 471.1875 L 221.476563 469.683594 L 227.316406 466.367188 L 232.550781 467.761719 L 234.171875 469.894531 Z M 181.078125 348.714844 L 182.160156 347.015625 L 183.097656 343.863281 L 183.347656 341.359375 L 183.273438 340.429688 L 183.371094 340.257813 L 185.429688 339.015625 L 185.140625 338.578125 L 183.316406 338.492188 L 183.847656 335.480469 L 183.183594 331.476563 L 184.527344 333.199219 L 186.167969 334.640625 L 188.050781 335.75 L 190.105469 336.484375 L 192.390625 336.832031 L 194.570313 336.742188 L 196.699219 336.242188 L 198.691406 335.355469 L 197.367188 339.074219 L 197.363281 343.023438 L 198.683594 346.746094 L 201.074219 349.726563 L 199.144531 348.734375 L 197.058594 348.117188 L 194.898438 347.898438 L 192.734375 348.085938 L 188.808594 349.570313 L 185.449219 352.5 L 184.121094 354.851563 L 183.8125 354.640625 Z M 202.570313 246.183594 L 205.621094 246.183594 L 206.488281 246.65625 L 206.507813 246.695313 L 206.933594 250.234375 L 208.789063 253.867188 L 211.152344 256.203125 L 214.199219 257.816406 L 215.90625 259.984375 L 218.078125 261.691406 L 217.417969 265.140625 L 217.820313 268.628906 L 216.277344 265.6875 L 213.96875 263.304688 L 211.199219 261.714844 L 207.972656 260.925781 L 205.164063 260.996094 L 202.570313 261.691406 L 198.574219 260.324219 L 194.355469 260.472656 L 192.160156 261.191406 L 190.148438 262.332031 L 188.492188 263.753906 L 187.0625 265.570313 L 187.621094 263.273438 L 187.699219 260.789063 L 190.195313 260.367188 L 192.539063 259.417969 L 194.816406 257.816406 L 197.65625 256.351563 L 200.070313 254.070313 L 202.042969 250.359375 Z M 205.003906 352.84375 L 206.773438 353.722656 L 206.445313 354.738281 Z M 175.429688 226.800781 L 177.238281 225.441406 L 179.308594 222.921875 L 181.476563 221.214844 L 183.183594 219.046875 L 183.183594 221.210938 L 182.847656 221.226563 L 177.804688 225.21875 L 178.117188 225.714844 L 179.84375 225.195313 L 182.199219 224.054688 L 180.757813 225.703125 L 179.355469 228.984375 L 178.992188 231.765625 L 179.308594 234.554688 L 177.160156 236.316406 L 175.492188 238.542969 L 176.632813 235.46875 L 176.988281 232.550781 L 176.601563 229.636719 Z M 175.429688 288.832031 L 178.988281 287.960938 L 180.964844 286.71875 L 181.015625 286.710938 L 181.839844 286.507813 L 180.179688 289.148438 L 179.308594 292.707031 L 176.957031 294.691406 L 175.265625 297.113281 L 174.367188 299.378906 L 173.957031 301.785156 L 174.230469 305.105469 L 175.429688 308.214844 L 175.117188 310.875 L 175.417969 313.539063 L 176.8125 316.957031 L 179.308594 319.847656 L 178.996094 322.828125 L 179.085938 323.394531 L 177.335938 322.691406 L 175.222656 319.03125 L 174.871094 317.117188 L 173.542969 314.386719 L 172.542969 313.230469 L 172.289063 311.832031 L 171.582031 310.792969 L 171.625 308.710938 L 170.632813 304.539063 L 169.378906 302.339844 L 168.453125 301.316406 L 169.164063 299.058594 L 169.535156 298.28125 L 170.363281 296.960938 L 171.144531 294.953125 L 171.164063 294.84375 L 172.554688 291.921875 L 173.722656 291 Z M 154.164063 391.894531 L 156.046875 389.628906 L 157.234375 390.859375 L 154.09375 392.152344 Z M 133.226563 414.597656 L 135.34375 412.050781 L 136.660156 409.015625 L 140.695313 408.535156 L 139.964844 411.390625 L 139.953125 414.34375 L 140.640625 417.082031 L 142.039063 419.683594 L 144.050781 421.847656 L 146.539063 423.433594 L 149.222656 424.316406 L 152.167969 424.523438 L 150 426.230469 L 149.773438 426.515625 L 147.785156 426.460938 L 143.210938 423.710938 L 140.359375 423.714844 L 139.824219 421.300781 L 138.304688 418.511719 L 136.09375 416.234375 Z M 88.945313 499.121094 L 88.542969 499.441406 L 88.566406 499.308594 L 88.941406 499.117188 Z M 286.679688 439.636719 L 283.058594 438.976563 L 282.164063 437.605469 L 282.484375 436.070313 L 286.839844 437.054688 L 287.960938 438.832031 Z M 236.835938 466.113281 L 235.136719 465.644531 L 236.523438 463.683594 L 237.195313 464.164063 L 237.5 465.839844 Z M 236.835938 466.113281 "/>
<path style=" stroke:none;fill-rule:nonzero;fill:rgb(80.392157%,58.431373%,4.705882%);fill-opacity:1;" d="M 223.890625 300.460938 L 223.609375 302.257813 L 222.78125 303.878906 L 221.496094 305.167969 L 219.875 305.992188 L 218.078125 306.277344 L 216.28125 305.992188 L 214.660156 305.167969 L 213.371094 303.878906 L 212.546875 302.257813 L 212.261719 300.460938 L 212.546875 298.664063 L 213.371094 297.042969 L 214.660156 295.757813 L 216.28125 294.929688 L 218.078125 294.644531 L 219.875 294.929688 L 221.496094 295.757813 L 222.78125 297.042969 L 223.609375 298.664063 Z M 223.890625 300.460938 "/>
<path style=" stroke:none;fill-rule:nonzero;fill:rgb(80.392157%,58.431373%,4.705882%);fill-opacity:1;" d="M 181.246094 250.0625 L 180.960938 251.859375 L 180.136719 253.480469 L 178.847656 254.765625 L 177.226563 255.59375 L 175.429688 255.875 L 173.632813 255.59375 L 172.011719 254.765625 L 170.726563 253.480469 L 169.898438 251.859375 L 169.617188 250.0625 L 169.898438 248.265625 L 170.726563 246.644531 L 172.011719 245.355469 L 173.632813 244.53125 L 175.429688 244.246094 L 177.226563 244.53125 L 178.847656 245.355469 L 180.136719 246.644531 L 180.960938 248.265625 Z M 181.246094 250.0625 "/>
<path style=" stroke:none;fill-rule:nonzero;fill:rgb(80.392157%,58.431373%,4.705882%);fill-opacity:1;" d="M 157.984375 246.183594 L 157.699219 247.980469 L 156.875 249.601563 L 155.585938 250.890625 L 153.964844 251.714844 L 152.167969 252 L 150.371094 251.714844 L 148.75 250.890625 L 147.464844 249.601563 L 146.636719 247.980469 L 146.355469 246.183594 L 146.636719 244.386719 L 147.234375 243.214844 L 148.300781 243.253906 L 147.464844 242.765625 L 148.75 241.480469 L 150.371094 240.652344 L 152.167969 240.371094 L 153.964844 240.652344 L 155.585938 241.480469 L 156.875 242.765625 L 157.699219 244.386719 Z M 157.984375 246.183594 "/>
<path style=" stroke:none;fill-rule:nonzero;fill:rgb(80.392157%,58.431373%,4.705882%);fill-opacity:1;" d="M 146.355469 277.199219 L 146.070313 278.996094 L 145.242188 280.617188 L 143.957031 281.90625 L 142.335938 282.730469 L 140.539063 283.015625 L 138.742188 282.730469 L 137.121094 281.90625 L 135.832031 280.617188 L 135.007813 278.996094 L 134.722656 277.199219 L 134.957031 275.71875 L 137.757813 273.035156 L 137.953125 272.070313 L 140.539063 271.382813 L 142.335938 271.667969 L 143.957031 272.496094 L 145.242188 273.78125 L 146.070313 275.402344 Z M 146.355469 277.199219 "/>
<path style=" stroke:none;fill-rule:nonzero;fill:rgb(80.392157%,58.431373%,4.705882%);fill-opacity:1;" d="M 154.109375 284.953125 L 153.824219 286.75 L 152.996094 288.371094 L 151.042969 290 L 149.984375 289.230469 L 149.214844 288.042969 L 149.230469 287.167969 L 148.945313 287.023438 L 148.15625 288.078125 L 147.988281 288.910156 L 148.292969 290.769531 L 146.496094 290.484375 L 144.875 289.660156 L 143.585938 288.371094 L 142.761719 286.75 L 142.476563 284.953125 L 142.761719 283.15625 L 143.585938 281.535156 L 144.875 280.25 L 146.496094 279.421875 L 148.292969 279.136719 L 150.089844 279.421875 L 151.710938 280.25 L 152.996094 281.535156 L 153.824219 283.15625 Z M 154.109375 284.953125 "/>
<path style=" stroke:none;fill-rule:nonzero;fill:rgb(80.392157%,58.431373%,4.705882%);fill-opacity:1;" d="M 231.644531 300.460938 L 231.363281 302.257813 L 230.535156 303.878906 L 229.25 305.167969 L 227.628906 305.992188 L 225.832031 306.277344 L 224.035156 305.992188 L 222.414063 305.167969 L 221.125 303.878906 L 220.300781 302.257813 L 220.015625 300.460938 L 220.300781 298.664063 L 221.125 297.042969 L 222.414063 295.757813 L 224.035156 294.929688 L 225.832031 294.644531 L 226.316406 294.722656 L 229.304688 299.0625 L 231.59375 300.128906 Z M 231.644531 300.460938 "/>
<path style=" stroke:none;fill-rule:nonzero;fill:rgb(80.392157%,58.431373%,4.705882%);fill-opacity:1;" d="M 134.722656 215.167969 L 134.105469 217.117188 L 131.898438 219.546875 L 131.125 219.644531 L 127.28125 218.265625 L 127.882813 216.460938 L 128.195313 216.742188 L 128.945313 216.671875 L 131.070313 215.113281 L 129.507813 214.882813 L 128.550781 215.441406 L 127.980469 214.949219 L 127.875 213.785156 L 130.523438 209.609375 L 132.324219 210.464844 L 133.613281 211.75 L 134.4375 213.371094 Z M 134.210938 217.410156 L 133.613281 218.585938 L 132.324219 219.875 L 130.703125 220.699219 L 128.90625 220.984375 L 126.445313 220.359375 L 131.4375 220.320313 Z M 123.160156 215.609375 L 123.375 213.371094 L 124.203125 211.75 L 125.488281 210.464844 L 127.109375 209.636719 L 129.3125 209.417969 Z M 123.160156 215.609375 "/>
<path style=" stroke:none;fill-rule:nonzero;fill:rgb(80.392157%,58.431373%,4.705882%);fill-opacity:1;" d="M 196.753906 168.644531 L 196.46875 170.441406 L 195.644531 172.0625 L 194.355469 173.351563 L 192.734375 174.175781 L 190.9375 174.460938 L 189.140625 174.175781 L 187.519531 173.351563 L 186.234375 172.0625 L 185.40625 170.441406 L 185.125 168.644531 L 187.675781 167.128906 Z M 196.753906 168.644531 "/>
<path style=" stroke:none;fill-rule:nonzero;fill:rgb(80.392157%,58.431373%,4.705882%);fill-opacity:1;" d="M 134.703125 246.304688 L 134.4375 247.980469 L 133.429688 249.785156 L 132.589844 248.835938 L 130.84375 244.566406 L 130.707031 243.464844 L 131.460938 242.613281 L 133.71875 244.574219 Z M 128.046875 240.503906 L 130.703125 240.652344 L 132.324219 241.480469 L 133.613281 242.765625 L 134.457031 244.496094 L 131.566406 242.222656 L 130.757813 242.5 L 130.269531 243.347656 L 130.09375 244.535156 L 130.664063 246.308594 L 130.519531 246.613281 L 128.257813 245.464844 L 127.46875 243.074219 Z M 129.992188 251.828125 L 127.574219 251.789063 L 128.179688 251.246094 L 129.539063 251.441406 Z M 125.273438 250.675781 L 124.203125 249.601563 L 123.375 247.980469 L 123.09375 246.183594 L 123.375 244.386719 L 124.203125 242.765625 L 125.65625 241.394531 L 126.1875 249.699219 Z M 125.273438 250.675781 "/>
<path style=" stroke:none;fill-rule:nonzero;fill:rgb(80.392157%,58.431373%,4.705882%);fill-opacity:1;" d="M 248.269531 313.105469 L 247.011719 313.746094 L 245.214844 314.03125 L 243.417969 313.746094 L 241.796875 312.921875 L 240.511719 311.632813 L 239.683594 310.011719 L 239.398438 308.214844 L 239.683594 306.417969 L 240.855469 304.453125 L 244.476563 306.140625 L 245.742188 307.636719 Z M 248.269531 313.105469 "/>
<path style=" stroke:none;fill-rule:nonzero;fill:rgb(80.392157%,58.431373%,4.705882%);fill-opacity:1;" d="M 154.109375 401.261719 L 153.824219 403.058594 L 152.996094 404.679688 L 151.710938 405.964844 L 150.089844 406.792969 L 148.292969 407.078125 L 146.496094 406.792969 L 144.875 405.964844 L 144.097656 405.191406 L 149.359375 401.828125 L 152.519531 397.367188 L 153.824219 399.464844 Z M 154.109375 401.261719 "/>
<path style=" stroke:none;fill-rule:nonzero;fill:rgb(80.392157%,58.431373%,4.705882%);fill-opacity:1;" d="M 126.96875 416.769531 L 126.683594 418.566406 L 125.375 420.671875 L 124.929688 417.953125 L 123.328125 417.210938 L 121.445313 417.105469 L 122.0625 415.152344 L 125.882813 413.402344 L 126.683594 414.972656 Z M 126.96875 416.769531 "/>
<path style=" stroke:none;fill-rule:nonzero;fill:rgb(80.392157%,58.431373%,4.705882%);fill-opacity:1;" d="M 164.992188 357.441406 L 163.339844 359.441406 L 161.71875 360.269531 L 159.921875 360.554688 L 158.125 360.269531 L 156.296875 359.234375 L 160.492188 357.457031 Z M 154.902344 357.535156 L 154.347656 356.257813 L 155.546875 356.503906 Z M 154.902344 357.535156 "/>
</g>
</svg>
