<?xml version="1.0" encoding="UTF-8"?>
<svg xmlns="http://www.w3.org/2000/svg" xmlns:xlink="http://www.w3.org/1999/xlink" width="378pt" height="504pt" viewBox="0 0 378 504" version="1.1">
<g id="data">
<rect x="0" y="0" width="378" height="504" style="fill:rgb(100%,100%,100%);fill-opacity:1;stroke:none;"/>
<path style=" stroke:none;fill-rule:nonzero;fill:rgb(100%,100%,100%);fill-opacity:1;" d="M 53.308594 504 L 324.691406 504 L 324.691406 0 L 53.308594 0 Z M 53.308594 504 "/>
<path style=" stroke:none;fill-rule:nonzero;fill:rgb(22.745098%,53.333333%,16.078431%);fill-opacity:1;" d="M 88.429688 500.046875 L 88.566406 499.308594 L 88.941406 499.117188 L 89.34375 499.789063 Z M 88.429688 500.046875 "/>
<path style=" stroke:none;fill-rule:nonzero;fill:rgb(80.392157%,58.431373%,4.705882%);fill-opacity:1;" d="M 208.382813 381.875 L 208.101563 383.675781 L 207.273438 385.296875 L 205.988281 386.582031 L 204.367188 387.40625 L 202.570313 387.691406 L 200.773438 387.40625 L 199.152344 386.582031 L 197.863281 385.296875 L 197.039063 383.675781 L 196.753906 381.875 L 197.039063 380.078125 L 197.863281 378.457031 L 199.152344 377.171875 L 200.773438 376.347656 L 202.570313 376.0625 L 204.367188 376.347656 L 205.988281 377.171875 L 207.273438 378.457031 L 208.101563 380.078125 Z M 208.382813 381.875 "/>
<path style=" stroke:none;fill-rule:nonzero;fill:rgb(80.392157%,58.431373%,4.705882%);fill-opacity:1;" d="M 123.09375 486.554688 L 122.808594 488.351563 L 121.980469 489.972656 L 120.695313 491.257813 L 119.074219 492.085938 L 117.277344 492.371094 L 115.480469 492.085938 L 113.859375 491.257813 L 112.570313 489.972656 L 111.746094 488.351563 L 111.707031 488.089844 L 111.738281 488.078125 L 112.199219 488.253906 L 112.445313 488.9375 L 113.574219 489.15625 L 118.144531 485.910156 L 121.425781 483.085938 L 121.664063 482.816406 L 121.980469 483.136719 L 122.808594 484.757813 Z M 123.09375 486.554688 "/>
<path style=" stroke:none;fill-rule:nonzero;fill:rgb(80.392157%,58.431373%,4.705882%);fill-opacity:1;" d="M 110.457031 488.640625 L 111.320313 488.777344 L 112.941406 489.601563 L 114.226563 490.890625 L 115.054688 492.511719 L 115.1875 493.347656 L 112.253906 492.070313 L 111.410156 491.984375 L 110.375 492.488281 L 110.242188 494.183594 L 109.421875 495.128906 L 106.824219 495.664063 L 105.398438 494.824219 L 105.628906 491.574219 L 106.074219 490.5625 Z M 110.457031 488.640625 "/>
</g>
</svg>
