<?xml version="1.0" encoding="UTF-8"?>
<svg xmlns="http://www.w3.org/2000/svg" xmlns:xlink="http://www.w3.org/1999/xlink" width="378pt" height="504pt" viewBox="0 0 378 504" version="1.1">
<g id="data">
<rect x="0" y="0" width="378" height="504" style="fill:rgb(100%,100%,100%);fill-opacity:1;stroke:none;"/>
<path style=" stroke:none;fill-rule:nonzero;fill:rgb(100%,100%,100%);fill-opacity:1;" d="M 53.308594 504 L 324.691406 504 L 324.691406 0 L 53.308594 0 Z M 53.308594 504 "/>
<path style=" stroke:none;fill-rule:nonzero;fill:rgb(22.745098%,53.333333%,16.078431%);fill-opacity:1;" d="M 169.175781 363.921875 L 167.632813 362.910156 L 166.488281 361.46875 L 165.847656 359.742188 L 165.78125 357.898438 L 165.886719 357.546875 L 167.339844 357.714844 L 172.597656 355.179688 L 173.933594 355.046875 L 174.484375 355.082031 L 179.910156 359.441406 L 180.433594 358.429688 L 177.679688 353.460938 L 178.242188 352.835938 L 180.867188 352.449219 L 181.503906 352.695313 L 181.914063 353.875 L 182.898438 354.332031 L 184.078125 356.789063 L 185.613281 357.902344 L 188.019531 357.65625 L 187.878906 357.898438 L 185.847656 360.425781 L 185.152344 361.871094 L 184.867188 363.441406 L 185.097656 365.8125 L 184.984375 367.625 L 184.320313 369.316406 L 183.167969 370.71875 L 181.640625 371.695313 L 179.882813 372.15625 L 178.070313 372.050781 L 176.378906 371.394531 L 174.972656 370.246094 L 173.988281 368.71875 L 173.136719 366.792969 L 172.28125 365.6875 L 171.199219 364.828125 Z M 181.058594 348.671875 L 182.652344 348.480469 L 184.367188 348.53125 L 185.511719 348.917969 L 185.328125 348.511719 L 185.132813 346.617188 L 185.5625 344.765625 L 186.445313 342.628906 L 186.632813 341.21875 L 186.4375 339.691406 L 185.5625 337.570313 L 185.125 335.480469 L 185.472656 333.371094 L 186.242188 331.246094 L 187.058594 329.738281 L 188.277344 328.535156 L 189.792969 327.738281 L 191.476563 327.417969 L 193.179688 327.601563 L 194.757813 328.273438 L 196.777344 329.515625 L 198.421875 329.972656 L 199.988281 329.972656 L 203.355469 329.296875 L 204.488281 328.8125 L 205.480469 328.121094 L 206.316406 327.222656 L 206.828125 326.382813 L 207.371094 324.609375 L 207.371094 322.902344 L 206.867188 321.257813 L 205.492188 319.207031 L 204.769531 317.691406 L 204.507813 316.035156 L 204.730469 314.371094 L 205.421875 312.839844 L 206.519531 311.570313 L 208.191406 310.125 L 209.019531 308.917969 L 209.519531 307.542969 L 209.660156 306.070313 L 209.445313 304.683594 L 208.945313 303.476563 L 208.097656 302.316406 L 206.566406 301.023438 L 205.257813 299.441406 L 204.578125 297.496094 L 204.621094 295.4375 L 205.269531 292.222656 L 205.886719 290.539063 L 206.992188 289.125 L 208.472656 288.113281 L 210.191406 287.601563 L 211.984375 287.640625 L 213.679688 288.222656 L 215.121094 289.292969 L 216.164063 290.75 L 217.144531 292.699219 L 218.128906 293.808594 L 222.734375 296.707031 L 223.78125 297.195313 L 225.386719 297.539063 L 226.890625 297.457031 L 227.949219 297.097656 L 229.304688 299.0625 L 244.476563 306.140625 L 245.742188 307.636719 L 247.265625 310.527344 L 249.289063 315.722656 L 252.390625 319.148438 L 254.773438 320.25 L 254.679688 323.1875 L 253.890625 324.554688 L 253.765625 325.996094 L 254.984375 329.992188 L 256.160156 332.453125 L 263.316406 342.46875 L 263.640625 343.980469 L 262.804688 345.191406 L 263.28125 343.65625 L 262.507813 342.839844 L 260.445313 342 L 258.378906 342.789063 L 257.507813 342.753906 L 256.035156 341.773438 L 253.664063 338.65625 L 252.601563 338.082031 L 245.550781 339.511719 L 244.589844 338.644531 L 243.40625 338.558594 L 241.210938 339.871094 L 241.886719 340.445313 L 246.324219 340.394531 L 249.617188 339.34375 L 251.976563 339.082031 L 254.382813 342.558594 L 260.535156 347.621094 L 263.042969 349.058594 L 263.664063 349.039063 L 266.046875 352.214844 L 268.980469 359.304688 L 269.535156 362.402344 L 269.210938 365.21875 L 264.953125 369.09375 L 261.394531 373.164063 L 260.601563 374.816406 L 262.84375 374.3125 L 264.9375 375.519531 L 266.9375 378.226563 L 270.21875 378.804688 L 270.625 378.746094 L 271.910156 376.796875 L 272.234375 374.960938 L 273.40625 371.914063 L 274.707031 370.632813 L 277.851563 370.085938 L 283.34375 370.234375 L 284.253906 370.867188 L 286.703125 370.742188 L 293.523438 371.472656 L 293.503906 371.65625 L 292.945313 373.890625 L 292.976563 375.414063 L 293.40625 376.863281 L 294.261719 378.238281 L 295.292969 379.183594 L 298.078125 380.488281 L 299.253906 381.21875 L 301.675781 383.160156 L 302.6875 383.585938 L 304.441406 383.914063 L 306.382813 384.65625 L 306.785156 385.015625 L 307.179688 391.25 L 306.777344 393.191406 L 306.890625 393.976563 L 305.789063 396.917969 L 303.519531 407.832031 L 297.144531 414.53125 L 295.578125 412.011719 L 292.742188 410.515625 L 292.480469 410.636719 L 293.898438 413.703125 L 295.890625 416.628906 L 296.3125 416.765625 L 296.164063 417.742188 L 294.574219 419.804688 L 292.191406 421.289063 L 290.003906 421.65625 L 289.660156 421.574219 L 288.214844 419.332031 L 284.976563 421.730469 L 280.71875 424.230469 L 282.339844 425.378906 L 285.105469 424.398438 L 286.097656 423.375 L 286.894531 423.164063 L 287.328125 423.710938 L 287.632813 428.84375 L 285.6875 430.875 L 283.441406 432.558594 L 282.84375 432.699219 L 279.644531 432.160156 L 274.75 433.78125 L 272.609375 436.117188 L 274.253906 436.015625 L 275.152344 434.667969 L 276.683594 434.363281 L 278.285156 434.328125 L 281.054688 434.949219 L 281.828125 435.589844 L 281.691406 436.328125 L 279.554688 436.347656 L 277.390625 437.65625 L 277.96875 438.546875 L 281.382813 438.964844 L 286.863281 440.339844 L 289.394531 439.9375 L 291.074219 438.957031 L 299.742188 437.757813 L 300.988281 440.148438 L 300.792969 445.671875 L 300.625 445.734375 L 298.675781 446.121094 L 297.441406 446.679688 L 296.433594 447.4375 L 294.792969 449.191406 L 294.199219 450.195313 L 293.875 451.148438 L 292.621094 451.640625 L 291.179688 452.742188 L 289.847656 454.226563 L 289.460938 455.09375 L 289.214844 456.324219 L 289.464844 457.886719 L 286.253906 458.289063 L 284.1875 457.9375 L 281.042969 460.90625 L 278.484375 461.933594 L 274.789063 462.777344 L 272.597656 463.816406 L 270.539063 466.589844 L 269.761719 466.949219 L 259.269531 463.777344 L 256.070313 463.507813 L 244.628906 465.699219 L 242.703125 466.390625 L 242.113281 466.964844 L 241.902344 467.984375 L 241.359375 468.164063 L 238.210938 466.1875 L 238.632813 465.4375 L 239.46875 464.933594 L 237.714844 463.296875 L 231.496094 463.171875 L 231.378906 463.496094 L 232.574219 464.835938 L 232.214844 465.75 L 231.738281 466.042969 L 226.691406 465.496094 L 219.566406 468.449219 L 217.054688 467.824219 L 210.222656 468.96875 L 208.164063 468.875 L 207.273438 468.058594 L 206.238281 469.769531 L 209.429688 471.089844 L 209.714844 470.9375 L 210.1875 472.128906 L 209.566406 473.890625 L 206.84375 474.453125 L 204.453125 473.097656 L 203.015625 472.699219 L 197.625 472.007813 L 196.175781 472.65625 L 195.679688 473.863281 L 195.832031 474.871094 L 196.757813 475.523438 L 196.488281 476.304688 L 195.917969 475.996094 L 194.851563 473.972656 L 190.289063 470.589844 L 185.898438 468.519531 L 183.121094 467.984375 L 181.648438 469.066406 L 176.207031 469.78125 L 174.339844 470.335938 L 168.992188 473.234375 L 168.214844 474.070313 L 167.203125 476.179688 L 164.480469 484.152344 L 163.800781 484.035156 L 160.90625 484.53125 L 159.394531 484.589844 L 157.917969 484.257813 L 155.296875 483.296875 L 153.414063 483.226563 L 152.296875 483.484375 L 151.148438 484.039063 L 150.375 484.652344 L 148.46875 482.535156 L 142.796875 482.960938 L 141.527344 483.375 L 140.734375 484.175781 L 139.910156 484.507813 L 134.507813 484.320313 L 133.1875 484.625 L 132.734375 482.964844 L 132.859375 481.050781 L 133.597656 479.285156 L 134.828125 477.328125 L 135.253906 475.96875 L 135.320313 474.417969 L 134.855469 472.285156 L 134.765625 470.355469 L 135.308594 468.5 L 136.347656 467.046875 L 136.519531 466.867188 L 138.007813 465.808594 L 139.863281 465.269531 L 141.867188 465.035156 L 143.125 464.578125 L 144.246094 463.84375 L 145.074219 462.96875 L 145.984375 461.226563 L 146.429688 458.488281 L 147.027344 456.695313 L 148.171875 455.191406 L 149.734375 454.132813 L 151.214844 453.453125 L 152.097656 452.824219 L 152.847656 452.042969 L 153.367188 451.242188 L 153.953125 449.617188 L 154.125 447.34375 L 154.34375 446.4375 L 157.421875 446.269531 L 159.910156 445.683594 L 164.597656 446.761719 L 166.046875 446.148438 L 167.527344 446.515625 L 169.484375 447.285156 L 170.039063 448.109375 L 170.757813 448.421875 L 173.15625 448.464844 L 180.570313 447.503906 L 181.109375 445.632813 L 181.210938 443.15625 L 182.519531 440.25 L 190.867188 432.195313 L 195.792969 425.3125 L 197.929688 424.472656 L 198.285156 423.78125 L 198.070313 423.238281 L 197.8125 423.082031 L 196.09375 424.355469 L 192.90625 427.300781 L 190.570313 429.988281 L 189.222656 431.449219 L 185.628906 432.957031 L 185.355469 433 L 185.570313 431.839844 L 185.1875 429.253906 L 185.125 428.398438 L 185.125 420.644531 L 185.164063 419.960938 L 185.398438 417.972656 L 185.265625 416.792969 L 184.480469 414.902344 L 182.679688 412.839844 L 181.675781 411.214844 L 181.253906 409.351563 L 181.460938 407.453125 L 181.949219 405.707031 L 182.019531 404.398438 L 181.835938 403.234375 L 181.355469 402.015625 L 180.679688 401.007813 L 179.878906 400.226563 L 178.832031 399.550781 L 177.226563 398.9375 L 175.519531 397.921875 L 174.253906 396.386719 L 173.578125 394.511719 L 173.574219 392.523438 L 174.074219 389.628906 L 173.574219 386.738281 L 173.5625 384.859375 L 174.144531 383.074219 L 175.269531 381.570313 L 176.8125 380.5 L 178.613281 379.980469 L 180.492188 380.058594 L 182.242188 380.734375 L 183.6875 381.929688 L 185.398438 383.890625 L 186.78125 384.757813 L 188.371094 385.203125 L 189.921875 385.179688 L 192.898438 384.140625 L 193.617188 383.941406 L 195.75 383.492188 L 196.945313 382.902344 L 198.410156 381.546875 L 199.371094 379.78125 L 199.652344 378.382813 L 199.550781 376.859375 L 199.054688 375.417969 L 197.761719 373.515625 L 196.9375 371.695313 L 196.777344 369.707031 L 197.300781 367.78125 L 198.445313 366.144531 L 200.078125 364.992188 L 201.722656 364.210938 L 202.683594 363.476563 L 203.46875 362.5625 L 204.039063 361.515625 L 204.449219 360.113281 L 204.964844 355.9375 L 204.675781 353.339844 L 204.097656 352.074219 L 203.1875 350.96875 L 201.921875 350.058594 L 200.570313 349.542969 L 199.132813 349.386719 L 197.589844 349.621094 L 196.265625 350.199219 L 194.527344 351.558594 L 192.859375 352.472656 L 190.988281 352.800781 L 189.109375 352.503906 L 188.757813 352.320313 L 189.027344 353.039063 L 189.136719 354.75 L 188.980469 355.40625 L 188.667969 355.527344 L 188.3125 355.957031 L 186.378906 356.386719 L 183.8125 354.640625 Z M 162.296875 434.355469 L 162.792969 434.207031 L 164.644531 434.25 L 167.613281 434.796875 L 170.589844 434.296875 L 172.21875 434.253906 L 173.792969 434.664063 L 175.195313 435.496094 L 176.765625 436.757813 L 177.355469 437.039063 L 177.039063 438.671875 L 176.445313 439.273438 L 174.058594 439.917969 L 170.558594 439.851563 L 166.820313 439 L 166.347656 438.652344 Z M 173.574219 235.539063 L 173.546875 233.75 L 174.0625 232.039063 L 175.074219 230.566406 L 176.484375 229.46875 L 178.160156 228.851563 L 179.945313 228.773438 L 181.671875 229.242188 L 183.164063 229.90625 L 184.222656 230.152344 L 185.308594 230.199219 L 186.386719 230.042969 L 187.414063 229.6875 L 188.355469 229.144531 L 189.167969 228.449219 L 190.25 227.074219 L 190.65625 226.699219 L 190.898438 226.824219 L 192.988281 227.191406 L 194.445313 228.726563 L 194.429688 229.304688 L 192.117188 231.570313 L 189.460938 232.730469 L 188.34375 232.882813 L 187.070313 232.078125 L 185.40625 232.042969 L 181.046875 235.800781 L 180.578125 237.003906 L 174.761719 240.109375 L 173.851563 239.710938 L 174.074219 238.429688 Z M 204.394531 245.515625 L 204.492188 246.609375 L 204.054688 248.433594 L 203.210938 250.445313 L 203 251.96875 L 203.191406 253.476563 L 204.066406 255.597656 L 204.507813 257.816406 L 204.507813 261.691406 L 204.242188 263.425781 L 203.472656 265.003906 L 202.269531 266.277344 L 200.738281 267.136719 L 199.019531 267.5 L 197.273438 267.332031 L 195.65625 266.652344 L 194.316406 265.519531 L 193.371094 264.042969 L 192.523438 262.113281 L 191.667969 261.007813 L 190.582031 260.152344 L 188.558594 259.246094 L 186.882813 258.109375 L 185.699219 256.464844 L 185.152344 254.515625 L 184.976563 252.777344 L 184.671875 251.769531 L 184.128906 250.738281 L 183.398438 249.847656 L 182.507813 249.117188 L 181.476563 248.574219 L 180.46875 248.269531 L 178.730469 248.09375 L 176.894531 247.597656 L 175.316406 246.539063 L 174.167969 245.027344 L 173.566406 243.222656 L 173.574219 241.324219 L 173.613281 241.113281 L 178.0625 241.875 L 182.921875 243.167969 L 186.398438 241.730469 L 187.519531 239.417969 L 188.617188 238.355469 L 189.539063 238.171875 L 193.183594 238.5 L 199.339844 242.761719 Z M 170.175781 308.726563 L 170.609375 308.066406 L 171.953125 306.949219 L 173.570313 306.285156 L 175.3125 306.128906 L 177.023438 306.5 L 178.542969 307.363281 L 181.300781 309.53125 L 183.023438 310.257813 L 184.511719 310.449219 L 190.664063 310.160156 L 192.535156 310.375 L 194.234375 311.179688 L 195.59375 312.484375 L 196.460938 314.152344 L 196.753906 316.011719 L 196.4375 317.863281 L 195.542969 319.519531 L 194.109375 321.378906 L 193.226563 323.554688 L 192.375 325 L 191.148438 326.144531 L 189.648438 326.890625 L 187.996094 327.175781 L 186.332031 326.980469 L 185.792969 326.75 L 187.28125 323.421875 L 187.71875 320.933594 L 187.855469 317.484375 L 184.742188 320.527344 L 179.199219 323.441406 L 177.335938 322.691406 L 172.851563 314.925781 L 172.289063 311.832031 Z M 176.828125 294.898438 L 175.175781 295.023438 L 173.558594 294.675781 L 172.105469 293.886719 L 171.777344 293.558594 L 174.074219 288.722656 L 176.464844 286.417969 L 178.757813 285.980469 L 180.191406 286.804688 L 181.015625 286.710938 L 181.898438 286.492188 L 182.386719 287.769531 L 182.480469 289.578125 L 182.015625 291.328125 L 181.035156 292.847656 L 179.632813 293.992188 L 177.949219 294.652344 Z M 171.957031 284.242188 L 172.792969 283.648438 L 174.394531 283.109375 L 176.085938 283.050781 L 177.351563 283.195313 L 179.09375 283.675781 L 180.609375 284.667969 L 180.960938 285.109375 L 180.035156 285.351563 L 174.65625 284.980469 L 172.566406 284.292969 Z M 114.992188 493.261719 L 115.132813 492.125 L 116.003906 490.371094 L 117.40625 489.003906 L 119.183594 488.183594 L 119.871094 487.996094 L 121.648438 487.800781 L 123.402344 488.15625 L 124.964844 489.023438 L 125.886719 490.007813 L 124.039063 490.597656 L 123.132813 494.289063 L 123.664063 495.292969 L 123.496094 496.125 L 122.722656 496.945313 L 120.660156 497.648438 L 119.628906 499.730469 L 118.675781 498.910156 L 117.96875 497.691406 L 118.09375 496.4375 L 117.15625 494.691406 L 115.984375 493.691406 Z M 286.679688 439.636719 L 283.058594 438.976563 L 282.164063 437.605469 L 282.484375 436.070313 L 286.839844 437.054688 L 287.960938 438.832031 Z M 236.835938 466.113281 L 235.136719 465.644531 L 236.523438 463.683594 L 237.195313 464.164063 L 237.5 465.839844 Z M 228.117188 474.644531 L 222.296875 470.886719 L 220.207031 471.1875 L 221.476563 469.683594 L 227.316406 466.367188 L 232.550781 467.761719 L 234.171875 469.894531 L 231.242188 473.621094 L 229.960938 474.269531 Z M 228.117188 474.644531 "/>
<path style=" stroke:none;fill-rule:nonzero;fill:rgb(80.392157%,58.431373%,4.705882%);fill-opacity:1;" d="M 154.109375 416.769531 L 153.824219 418.566406 L 152.996094 420.1875 L 151.710938 421.472656 L 150.089844 422.300781 L 148.292969 422.585938 L 146.496094 422.300781 L 144.875 421.472656 L 143.585938 420.1875 L 142.761719 418.566406 L 142.476563 416.769531 L 142.761719 414.972656 L 143.585938 413.351563 L 144.875 412.066406 L 146.496094 411.238281 L 148.292969 410.953125 L 150.089844 411.238281 L 151.710938 412.066406 L 152.996094 413.351563 L 153.824219 414.972656 Z M 154.109375 416.769531 "/>
<path style=" stroke:none;fill-rule:nonzero;fill:rgb(80.392157%,58.431373%,4.705882%);fill-opacity:1;" d="M 169.617188 211.292969 L 169.332031 213.089844 L 168.503906 214.710938 L 167.21875 215.996094 L 165.597656 216.824219 L 163.800781 217.109375 L 162.003906 216.824219 L 160.382813 215.996094 L 159.09375 214.710938 L 158.269531 213.089844 L 157.984375 211.292969 L 158.269531 209.496094 L 159.09375 207.875 L 160.382813 206.585938 L 162.003906 205.761719 L 163.800781 205.476563 L 165.597656 205.761719 L 167.21875 206.585938 L 168.503906 207.875 L 169.332031 209.496094 Z M 169.617188 211.292969 "/>
<path style=" stroke:none;fill-rule:nonzero;fill:rgb(80.392157%,58.431373%,4.705882%);fill-opacity:1;" d="M 169.617188 269.445313 L 169.332031 271.242188 L 168.503906 272.863281 L 167.21875 274.152344 L 165.597656 274.976563 L 163.800781 275.261719 L 162.003906 274.976563 L 160.382813 274.152344 L 159.09375 272.863281 L 158.269531 271.242188 L 157.984375 269.445313 L 158.269531 267.648438 L 159.09375 266.027344 L 160.382813 264.742188 L 162.003906 263.914063 L 163.800781 263.628906 L 165.597656 263.914063 L 167.21875 264.742188 L 168.503906 266.027344 L 169.332031 267.648438 Z M 169.617188 269.445313 "/>
<path style=" stroke:none;fill-rule:nonzero;fill:rgb(80.392157%,58.431373%,4.705882%);fill-opacity:1;" d="M 161.863281 428.398438 L 161.578125 430.195313 L 160.75 431.816406 L 160.589844 431.980469 L 159.03125 429.199219 L 155.65625 429.589844 L 151.175781 431.496094 L 150.515625 430.195313 L 150.296875 428.820313 L 151.640625 428.421875 L 152.765625 427.832031 L 153.085938 427.097656 L 152.808594 426.597656 L 150.550781 426.535156 L 151.339844 424.980469 L 152.628906 423.695313 L 154.25 422.871094 L 156.046875 422.585938 L 157.84375 422.871094 L 159.464844 423.695313 L 160.75 424.980469 L 161.578125 426.601563 Z M 161.863281 428.398438 "/>
<path style=" stroke:none;fill-rule:nonzero;fill:rgb(80.392157%,58.431373%,4.705882%);fill-opacity:1;" d="M 133.011719 261.835938 L 132.324219 262.519531 L 130.703125 263.347656 L 129.070313 263.605469 L 126.582031 261.613281 L 125.375 256.128906 L 125.988281 253.21875 L 126.914063 252.386719 L 127.109375 252.285156 L 128.90625 252 L 130.488281 252.25 L 131.390625 253.015625 L 132.984375 258.382813 Z M 133.011719 261.835938 "/>
<path style=" stroke:none;fill-rule:nonzero;fill:rgb(80.392157%,58.431373%,4.705882%);fill-opacity:1;" d="M 189 168.644531 L 188.714844 170.441406 L 187.890625 172.0625 L 186.601563 173.351563 L 184.980469 174.175781 L 183.183594 174.460938 L 181.386719 174.175781 L 179.765625 173.351563 L 178.480469 172.0625 L 177.652344 170.441406 L 177.371094 168.644531 L 177.652344 166.847656 L 177.953125 166.257813 L 178.648438 166.167969 L 179.285156 167.089844 L 180.148438 167.667969 L 184.320313 169.011719 L 187.675781 167.128906 L 188.789063 167.308594 Z M 189 168.644531 "/>
<path style=" stroke:none;fill-rule:nonzero;fill:rgb(80.392157%,58.431373%,4.705882%);fill-opacity:1;" d="M 196.753906 168.644531 L 196.46875 170.441406 L 195.644531 172.0625 L 194.355469 173.351563 L 192.734375 174.175781 L 190.9375 174.460938 L 189.140625 174.175781 L 187.519531 173.351563 L 186.234375 172.0625 L 185.40625 170.441406 L 185.125 168.644531 L 185.136719 168.550781 L 187.675781 167.128906 L 196.746094 168.597656 Z M 196.753906 168.644531 "/>
<path style=" stroke:none;fill-rule:nonzero;fill:rgb(80.392157%,58.431373%,4.705882%);fill-opacity:1;" d="M 115.339844 490.429688 L 115.054688 492.226563 L 114.609375 493.097656 L 112.253906 492.070313 L 111.410156 491.984375 L 110.375 492.488281 L 110.242188 494.183594 L 109.421875 495.128906 L 107.050781 495.617188 L 106.105469 495.136719 L 105.425781 494.453125 L 105.628906 491.574219 L 106.074219 490.5625 L 111.738281 488.078125 L 112.199219 488.253906 L 112.445313 488.9375 L 113.574219 489.15625 L 114.855469 488.246094 L 115.054688 488.632813 Z M 115.339844 490.429688 "/>
<path style=" stroke:none;fill-rule:nonzero;fill:rgb(80.392157%,58.431373%,4.705882%);fill-opacity:1;" d="M 163.046875 166.589844 L 162.003906 166.421875 L 161.808594 166.324219 L 161.859375 165.949219 L 161.53125 165.507813 L 160.550781 165.683594 L 160.382813 165.597656 L 159.09375 164.308594 L 158.269531 162.6875 L 158.003906 161.023438 L 161.363281 161.917969 L 164.042969 162.292969 L 165.242188 161.992188 L 166.015625 161.605469 L 166.75 160.257813 L 167.589844 160.183594 L 167.507813 160.828125 L 166.417969 162.609375 Z M 158.15625 159.796875 L 158.269531 159.09375 L 159.09375 157.472656 L 160.382813 156.1875 L 162.003906 155.363281 L 163.800781 155.078125 L 163.855469 155.085938 L 162.601563 156.074219 L 162.234375 157.082031 L 162.671875 158.175781 L 162.078125 159.632813 L 159.644531 160.289063 Z M 158.15625 159.796875 "/>
<path style=" stroke:none;fill-rule:nonzero;fill:rgb(80.392157%,58.431373%,4.705882%);fill-opacity:1;" d="M 178.414063 112.574219 L 179.308594 112.429688 L 181.105469 112.714844 L 182.726563 113.542969 L 183.644531 114.460938 L 181.886719 115.097656 L 178.421875 112.621094 Z M 180.816406 120.886719 L 179.261719 120.746094 L 176.429688 116.660156 L 176.75 115.25 L 177.207031 114.695313 L 178.613281 114.28125 L 181.269531 116.636719 L 182.96875 119.6875 L 182.941406 120.441406 Z M 180.816406 120.886719 "/>
<path style=" stroke:none;fill-rule:nonzero;fill:rgb(80.392157%,58.431373%,4.705882%);fill-opacity:1;" d="M 188.894531 112.128906 L 188.859375 112.144531 L 187.0625 112.429688 L 185.265625 112.144531 L 183.644531 111.320313 L 182.355469 110.035156 L 181.53125 108.414063 L 181.246094 106.617188 L 181.523438 104.863281 L 181.753906 104.792969 L 184.519531 106.003906 L 186.230469 108.273438 L 187.324219 111.371094 Z M 189.035156 101.175781 L 189.144531 101.230469 L 189.007813 101.453125 Z M 189.035156 101.175781 "/>
<path style=" stroke:none;fill-rule:nonzero;fill:rgb(80.392157%,58.431373%,4.705882%);fill-opacity:1;" d="M 88.429688 500.046875 L 88.566406 499.308594 L 88.941406 499.117188 L 89.34375 499.789063 Z M 88.429688 500.046875 "/>
</g>
</svg>
