<?xml version="1.0" encoding="UTF-8"?>
<svg xmlns="http://www.w3.org/2000/svg" xmlns:xlink="http://www.w3.org/1999/xlink" width="378pt" height="504pt" viewBox="0 0 378 504" version="1.1">
<g id="data">
<rect x="0" y="0" width="378" height="504" style="fill:rgb(100%,100%,100%);fill-opacity:1;stroke:none;"/>
<path style=" stroke:none;fill-rule:nonzero;fill:rgb(100%,100%,100%);fill-opacity:1;" d="M 53.308594 504 L 324.691406 504 L 324.691406 0 L 53.308594 0 Z M 53.308594 504 "/>
<path style=" stroke:none;fill-rule:nonzero;fill:rgb(22.745098%,53.333333%,16.078431%);fill-opacity:1;" d="M 239.160156 321.109375 L 242.585938 322.507813 L 246.273438 322.757813 L 249.855469 321.84375 L 252.96875 319.847656 L 252.96875 323.722656 L 252.359375 325.820313 L 252.152344 327.996094 L 252.351563 330.171875 L 252.960938 332.269531 L 254.230469 334.648438 L 256.015625 336.667969 L 258.222656 338.226563 L 260.722656 339.230469 L 260.722656 342.113281 L 260.445313 342 L 258.378906 342.789063 L 257.507813 342.753906 L 256.035156 341.773438 L 253.664063 338.65625 L 252.601563 338.082031 L 249.273438 338.757813 L 249.851563 336.113281 L 249.601563 332.277344 L 248.566406 329.515625 L 246.777344 327.003906 L 244.289063 324.984375 L 241.339844 323.722656 Z M 260.105469 347.269531 L 260.722656 350.863281 L 259.554688 353.699219 L 259.164063 356.613281 L 259.554688 359.65625 L 260.722656 362.492188 L 257.636719 365.371094 L 255.78125 369.164063 L 255.382813 371.441406 L 255.441406 373.75 L 255.917969 375.882813 L 256.847656 378 L 255.484375 379.867188 L 254.519531 381.964844 L 253.988281 384.214844 L 253.910156 386.523438 L 254.605469 389.785156 L 255.550781 391.75 L 256.847656 393.507813 L 257.328125 395.996094 L 258.335938 398.320313 L 262.082031 403.066406 L 264.601563 405.136719 L 264.296875 407.289063 L 264.417969 409.582031 L 264.988281 411.808594 L 265.980469 413.878906 L 267.902344 416.257813 L 270.679688 418.320313 L 273.554688 419.417969 L 276.617188 419.722656 L 280.738281 418.820313 L 284.265625 416.511719 L 286.730469 413.152344 L 287.488281 411.136719 L 287.863281 409.015625 L 289.433594 410.488281 L 291.363281 411.703125 L 293.324219 412.464844 L 293.898438 413.703125 L 295.617188 416.226563 L 295.617188 418.453125 L 294.574219 419.804688 L 292.191406 421.289063 L 290.003906 421.65625 L 289.660156 421.574219 L 288.214844 419.332031 L 284.976563 421.730469 L 280.71875 424.230469 L 282.339844 425.378906 L 285.105469 424.398438 L 286.097656 423.375 L 286.894531 423.164063 L 287.328125 423.710938 L 287.609375 428.433594 L 287.414063 428.953125 L 287.394531 429.09375 L 285.6875 430.875 L 283.441406 432.558594 L 282.84375 432.699219 L 279.644531 432.160156 L 274.75 433.78125 L 272.609375 436.117188 L 274.253906 436.015625 L 275.152344 434.667969 L 276.683594 434.363281 L 278.285156 434.328125 L 281.054688 434.949219 L 281.828125 435.589844 L 281.691406 436.328125 L 279.554688 436.347656 L 277.390625 437.65625 L 277.96875 438.546875 L 281.382813 438.964844 L 285.679688 440.042969 L 285.058594 441.988281 L 284.917969 444.550781 L 285.378906 447.207031 L 286.371094 449.570313 L 287.863281 451.660156 L 287.863281 458.089844 L 286.253906 458.289063 L 284.1875 457.9375 L 283.976563 458.136719 L 282.84375 457.941406 L 280.28125 458.074219 L 277.808594 458.765625 L 274.339844 460.941406 L 272.355469 463.292969 L 269.921875 465.269531 L 268.851563 466.675781 L 267.851563 466.371094 L 266.769531 465 L 264.601563 463.292969 L 267.164063 463.15625 L 269.757813 462.410156 L 272.003906 461.164063 L 273.921875 459.453125 L 275.417969 457.367188 L 276.417969 455 L 276.875 452.46875 L 276.765625 449.902344 L 275.257813 443.992188 L 273.980469 441.804688 L 272.355469 440.03125 L 272.355469 436.152344 L 272.925781 433.78125 L 272.980469 431.210938 L 272.386719 428.449219 L 271.140625 425.910156 L 268.640625 423.160156 L 265.523438 421.382813 L 262.265625 420.660156 L 257.902344 420.828125 L 255.683594 421.476563 L 253.636719 422.554688 L 251.933594 423.925781 L 250.445313 425.699219 L 249.195313 428.085938 L 248.523438 430.699219 L 248.488281 433.523438 L 249.09375 436.152344 L 246.464844 437.472656 L 244.25 439.40625 L 242.535156 441.949219 L 241.570313 444.726563 L 241.339844 447.785156 L 240.519531 451.929688 L 240.722656 454.234375 L 241.375 456.453125 L 242.675781 458.816406 L 244.386719 460.730469 L 246.589844 462.285156 L 249.09375 463.292969 L 245.414063 464.214844 L 243.214844 465.46875 L 241.339844 467.167969 L 240.152344 467.40625 L 238.210938 466.1875 L 238.632813 465.4375 L 239.46875 464.933594 L 237.714844 463.296875 L 231.496094 463.171875 L 231.378906 463.496094 L 232.574219 464.835938 L 232.214844 465.75 L 231.738281 466.042969 L 226.691406 465.496094 L 219.566406 468.449219 L 217.054688 467.824219 L 210.222656 468.96875 L 208.164063 468.875 L 207.273438 468.058594 L 206.238281 469.769531 L 209.429688 471.089844 L 209.714844 470.9375 L 210.1875 472.128906 L 209.566406 473.890625 L 206.84375 474.453125 L 204.453125 473.097656 L 203.015625 472.699219 L 197.625 472.007813 L 196.175781 472.65625 L 195.679688 473.863281 L 195.832031 474.871094 L 196.757813 475.523438 L 196.488281 476.304688 L 195.917969 475.996094 L 194.851563 473.972656 L 190.289063 470.589844 L 185.898438 468.519531 L 183.121094 467.984375 L 181.648438 469.066406 L 176.207031 469.78125 L 174.339844 470.335938 L 168.992188 473.234375 L 168.214844 474.070313 L 167.203125 476.179688 L 162.746094 489.226563 L 160.929688 490.242188 L 158.269531 489.722656 L 157.554688 489.058594 L 156.527344 486.851563 L 154.683594 485.4375 L 153.613281 485.542969 L 152.417969 486.300781 L 151.738281 486.164063 L 148.46875 482.535156 L 142.796875 482.960938 L 141.527344 483.375 L 141.214844 483.691406 L 139.894531 483.609375 L 137.242188 484.070313 L 136.503906 484.390625 L 134.507813 484.320313 L 132.167969 484.859375 L 129.414063 488.195313 L 126.714844 489.746094 L 124.039063 490.597656 L 123.132813 494.289063 L 123.207031 494.429688 L 122.707031 494.960938 L 121.558594 497.34375 L 120.660156 497.648438 L 120.394531 498.183594 L 118.253906 498.183594 L 117.96875 497.691406 L 118.09375 496.4375 L 117.15625 494.691406 L 115.984375 493.691406 L 112.253906 492.070313 L 111.410156 491.984375 L 110.375 492.488281 L 110.242188 494.183594 L 110.03125 494.425781 L 108.273438 494.164063 L 105.644531 494.308594 L 105.441406 494.242188 L 105.628906 491.574219 L 106.074219 490.5625 L 106.917969 490.191406 L 108.011719 489.988281 L 110.125 489.125 L 111.105469 488.355469 L 111.738281 488.078125 L 112.199219 488.253906 L 112.445313 488.9375 L 113.574219 489.15625 L 118.144531 485.910156 L 121.425781 483.085938 L 124.375 479.769531 L 125.210938 477.886719 L 124.875 476.421875 L 125.640625 474.519531 L 128.386719 473.238281 L 132.105469 472.640625 L 132.679688 471.785156 L 133.210938 469.714844 L 135.089844 468.640625 L 138.132813 465.597656 L 139.855469 462.503906 L 140.679688 458.167969 L 140.386719 454.832031 L 142.492188 455.105469 L 144.269531 456.015625 L 145.761719 455.429688 L 148.429688 452.488281 L 148.105469 447.519531 L 151.105469 446.613281 L 157.421875 446.269531 L 159.910156 445.683594 L 164.597656 446.761719 L 166.046875 446.148438 L 167.527344 446.515625 L 169.484375 447.285156 L 170.039063 448.109375 L 170.757813 448.421875 L 173.15625 448.464844 L 180.570313 447.503906 L 181.109375 445.632813 L 181.210938 443.15625 L 182.519531 440.25 L 190.867188 432.195313 L 195.792969 425.3125 L 197.929688 424.472656 L 198.285156 423.78125 L 198.070313 423.238281 L 197.8125 423.082031 L 196.09375 424.355469 L 192.90625 427.300781 L 190.570313 429.988281 L 189.222656 431.449219 L 185.714844 432.921875 L 186.691406 430.546875 L 187.710938 425.257813 L 187.5 422.183594 L 186.492188 419.273438 L 184.578125 416.539063 L 181.859375 414.398438 L 178.753906 413.179688 L 175.429688 412.890625 L 177.628906 411.851563 L 179.464844 410.464844 L 180.992188 408.738281 L 182.207031 406.632813 L 182.925781 404.445313 L 183.199219 402.285156 L 183.121094 399.214844 L 182.539063 396.722656 L 181.558594 394.640625 L 180.1875 392.789063 L 178.582031 391.320313 L 176.613281 390.121094 L 174.457031 389.332031 L 172.191406 388.984375 L 169.902344 389.082031 L 167.675781 389.628906 L 168.34375 385.753906 L 167.675781 381.875 L 170.847656 382.183594 L 173.984375 381.617188 L 176.847656 380.21875 L 179.308594 378 L 183.183594 378.664063 L 187.0625 378 L 188.492188 379.816406 L 190.359375 381.382813 L 192.515625 382.527344 L 194.734375 383.175781 L 198.828125 383.203125 L 202.570313 381.875 L 209.136719 382.191406 L 207.503906 384.785156 L 206.585938 387.84375 L 206.472656 391.296875 L 207.183594 394.410156 L 208.140625 396.363281 L 209.53125 398.199219 L 211.152344 399.648438 L 213.132813 400.824219 L 215.300781 401.589844 L 217.441406 401.910156 L 219.730469 401.808594 L 221.953125 401.261719 L 221.953125 405.136719 L 220.636719 408.597656 L 220.472656 412.296875 L 222.683594 419.976563 L 224.597656 423.246094 L 226.519531 425.097656 L 228.707031 426.429688 L 231.261719 427.273438 L 233.808594 427.511719 L 236.351563 427.191406 L 238.757813 426.316406 L 240.917969 424.941406 L 242.800781 423.023438 L 244.492188 420.015625 L 245.214844 416.769531 L 246.992188 414.789063 L 248.222656 412.574219 L 248.867188 410.519531 L 249.234375 407.769531 L 249.09375 405.136719 L 249.402344 402.09375 L 248.980469 399.320313 L 247.503906 396.074219 L 245.214844 393.507813 L 245.214844 389.628906 L 245.886719 385.589844 L 245.066406 381.445313 L 243.859375 379.175781 L 242.1875 377.226563 L 240.125 375.691406 L 237.777344 374.648438 L 235.511719 374.171875 L 231.707031 373.960938 L 226.953125 373.988281 L 223.40625 374.585938 L 224.851563 372.546875 L 225.832031 370.246094 L 228.183594 370.8125 L 230.597656 370.878906 L 233.585938 370.246094 L 235.835938 370.40625 L 239.253906 370.105469 L 242.671875 369.011719 L 244.726563 367.695313 L 246.378906 366.082031 L 247.742188 364.054688 L 248.613281 361.914063 L 249.386719 356.59375 L 249.105469 353.292969 L 247.710938 349.875 L 245.214844 346.984375 L 247.273438 344.585938 L 248.648438 341.597656 L 249.105469 339.507813 L 249.617188 339.34375 L 251.976563 339.082031 L 254.382813 342.558594 Z M 210.324219 428.398438 L 207.519531 428.742188 L 204.769531 429.8125 L 202.375 431.539063 L 200.496094 433.8125 L 199.503906 435.757813 L 198.875 437.984375 L 198.535156 441.65625 L 198.691406 443.90625 L 197.390625 445.65625 L 196.441406 447.613281 L 195.699219 451.757813 L 195.96875 454.175781 L 196.785156 456.605469 L 198.117188 458.792969 L 199.894531 460.636719 L 201.800781 461.929688 L 203.808594 462.78125 L 210.324219 463.957031 L 213.714844 463.453125 L 217.316406 461.8125 L 220.175781 459.074219 L 221.953125 455.539063 L 224.679688 454.40625 L 227.035156 452.625 L 228.519531 450.851563 L 229.621094 448.816406 L 230.300781 446.605469 L 230.527344 444.304688 L 230.320313 442.128906 L 229.707031 440.03125 L 230.234375 436.738281 L 229.804688 433.433594 L 228.246094 430.0625 L 225.804688 427.433594 L 222.070313 425.464844 L 217.878906 424.957031 L 213.785156 425.980469 Z M 287.042969 437.375 L 286.074219 438.8125 L 285.859375 439.488281 L 283.058594 438.976563 L 282.164063 437.605469 L 282.484375 436.070313 L 286.839844 437.054688 Z M 232.890625 471.523438 L 231.6875 472.492188 L 230.4375 474.027344 L 229.960938 474.269531 L 228.117188 474.644531 L 222.296875 470.886719 L 220.207031 471.1875 L 221.476563 469.683594 L 227.316406 466.367188 L 232.550781 467.761719 L 234.171875 469.894531 Z M 130.261719 428.664063 L 128.90625 428.398438 L 127.121094 426.78125 L 127.425781 426.082031 L 128.796875 425.832031 L 131.792969 424.328125 L 131.226563 422.867188 L 130.640625 424.257813 L 127.769531 424.613281 L 122.949219 424.152344 L 121.496094 423.164063 L 124.125 421.78125 L 125.167969 421.753906 L 125.464844 421.238281 L 124.929688 417.953125 L 123.453125 417.269531 L 124.039063 417.398438 L 126.863281 417.300781 L 129.578125 416.523438 L 132.027344 415.113281 L 134.148438 413.058594 L 135.625 410.652344 L 136.480469 407.957031 L 136.53125 407.171875 L 137.585938 406.550781 L 141.359375 406.660156 L 142.21875 406.390625 L 145.214844 404.476563 L 144.136719 406.132813 L 143.1875 409.453125 L 143.253906 412.90625 L 144.277344 416.070313 L 145.980469 418.625 L 148.292969 420.644531 L 149.300781 423 L 150.800781 425.074219 L 152.609375 426.59375 L 147.785156 426.460938 L 143.210938 423.710938 L 139.503906 423.714844 L 136.765625 424.277344 L 136.292969 426.515625 L 135.777344 427.203125 L 133.742188 427.917969 L 132.394531 427.265625 L 131.648438 427.453125 Z M 121.527344 416.851563 L 123.140625 417.203125 L 121.445313 417.105469 Z M 152.976563 426.898438 L 153.25 427.128906 L 156.046875 428.398438 L 156.652344 429.472656 L 155.65625 429.589844 L 149.269531 432.308594 L 149.113281 432.746094 L 147.203125 431.632813 L 146.917969 429.308594 L 148.539063 428.378906 L 150.066406 428.890625 L 151.640625 428.421875 L 152.765625 427.832031 L 153.085938 427.097656 Z M 163.328125 435.453125 L 164.367188 435.867188 L 167.675781 436.152344 L 169.757813 437.648438 L 172.113281 438.652344 L 176.039063 439.132813 L 176.703125 439.011719 L 176.445313 439.273438 L 174.058594 439.917969 L 170.558594 439.851563 L 166.820313 439 L 166.347656 438.652344 Z M 88.53125 500.019531 L 88.453125 499.917969 L 88.566406 499.308594 L 88.941406 499.117188 L 89.34375 499.789063 Z M 236.835938 466.113281 L 235.136719 465.644531 L 236.523438 463.683594 L 237.195313 464.164063 L 237.5 465.839844 Z M 236.835938 466.113281 "/>
<path style=" stroke:none;fill-rule:nonzero;fill:rgb(80.392157%,58.431373%,4.705882%);fill-opacity:1;" d="M 223.890625 378 L 223.609375 379.796875 L 222.78125 381.417969 L 221.496094 382.703125 L 219.875 383.53125 L 218.078125 383.816406 L 216.28125 383.53125 L 214.660156 382.703125 L 213.371094 381.417969 L 212.546875 379.796875 L 212.261719 378 L 212.546875 376.203125 L 213.371094 374.582031 L 214.660156 373.296875 L 216.28125 372.46875 L 218.078125 372.183594 L 219.875 372.46875 L 221.496094 373.296875 L 222.78125 374.582031 L 223.609375 376.203125 Z M 223.890625 378 "/>
<path style=" stroke:none;fill-rule:nonzero;fill:rgb(80.392157%,58.431373%,4.705882%);fill-opacity:1;" d="M 157.984375 242.308594 L 157.699219 244.105469 L 156.875 245.726563 L 155.585938 247.011719 L 153.964844 247.839844 L 152.167969 248.125 L 150.371094 247.839844 L 148.75 247.011719 L 147.464844 245.726563 L 146.492188 243.1875 L 148.300781 243.253906 L 146.355469 242.308594 L 146.636719 240.511719 L 147.464844 238.890625 L 148.75 237.601563 L 150.371094 236.777344 L 152.167969 236.492188 L 153.964844 236.777344 L 155.585938 237.601563 L 156.875 238.890625 L 157.699219 240.511719 Z M 157.984375 242.308594 "/>
<path style=" stroke:none;fill-rule:nonzero;fill:rgb(80.392157%,58.431373%,4.705882%);fill-opacity:1;" d="M 157.984375 172.523438 L 156.367188 175.339844 L 156.910156 175.867188 L 155.585938 177.226563 L 153.964844 178.054688 L 152.167969 178.339844 L 150.371094 178.054688 L 148.75 177.226563 L 147.464844 175.941406 L 146.636719 174.320313 L 146.355469 172.523438 L 146.636719 170.726563 L 147.464844 169.105469 L 148.75 167.816406 L 150.371094 166.992188 L 152.167969 166.707031 L 153.964844 166.992188 L 155.414063 167.730469 L 152.441406 170.8125 L 151.949219 171.945313 L 152.140625 172.144531 L 156.300781 168.53125 L 157.699219 170.726563 Z M 157.984375 172.523438 "/>
<path style=" stroke:none;fill-rule:nonzero;fill:rgb(80.392157%,58.431373%,4.705882%);fill-opacity:1;" d="M 176.128906 239.378906 L 174.601563 237.972656 L 173.777344 236.351563 L 173.492188 234.554688 L 173.777344 232.757813 L 174.601563 231.136719 L 175.890625 229.847656 L 177.511719 229.023438 L 179.308594 228.738281 L 181.105469 229.023438 L 182.726563 229.847656 L 184.011719 231.136719 L 184.757813 232.601563 L 181.046875 235.800781 L 180.578125 237.003906 Z M 176.128906 239.378906 "/>
<path style=" stroke:none;fill-rule:nonzero;fill:rgb(80.392157%,58.431373%,4.705882%);fill-opacity:1;" d="M 169.617188 358.617188 L 169.332031 360.414063 L 168.503906 362.035156 L 167.21875 363.320313 L 165.597656 364.144531 L 163.800781 364.429688 L 162.003906 364.144531 L 160.382813 363.320313 L 159.09375 362.035156 L 158.269531 360.414063 L 157.984375 358.617188 L 160.492188 357.457031 L 163.644531 357.28125 L 167.339844 357.714844 L 169.304688 356.765625 Z M 169.617188 358.617188 "/>
<path style=" stroke:none;fill-rule:nonzero;fill:rgb(80.392157%,58.431373%,4.705882%);fill-opacity:1;" d="M 139.320313 318.101563 L 140.539063 317.90625 L 142.335938 318.191406 L 143.957031 319.019531 L 145.378906 320.574219 L 141.859375 323.019531 L 139.824219 322.464844 L 137.933594 323.433594 L 137.675781 322.921875 Z M 139.320313 318.101563 "/>
<path style=" stroke:none;fill-rule:nonzero;fill:rgb(80.392157%,58.431373%,4.705882%);fill-opacity:1;" d="M 139.953125 373.230469 L 141.367188 374.582031 L 142.191406 376.203125 L 142.40625 377.542969 L 142.039063 378.097656 L 136.757813 378.433594 L 136.246094 378.0625 L 137.339844 376.066406 Z M 139.953125 373.230469 "/>
<path style=" stroke:none;fill-rule:nonzero;fill:rgb(80.392157%,58.431373%,4.705882%);fill-opacity:1;" d="M 164.992188 357.441406 L 163.339844 359.441406 L 161.71875 360.269531 L 159.921875 360.554688 L 158.125 360.269531 L 156.296875 359.234375 L 160.492188 357.457031 Z M 154.902344 357.535156 L 154.347656 356.257813 L 155.546875 356.503906 Z M 154.902344 357.535156 "/>
<path style=" stroke:none;fill-rule:nonzero;fill:rgb(80.392157%,58.431373%,4.705882%);fill-opacity:1;" d="M 136.210938 448.453125 L 135.929688 448.140625 L 136.109375 446.949219 L 136.398438 446.875 L 136.6875 448.207031 Z M 136.210938 448.453125 "/>
</g>
</svg>
