<?xml version="1.0" encoding="UTF-8"?>
<svg xmlns="http://www.w3.org/2000/svg" xmlns:xlink="http://www.w3.org/1999/xlink" width="378pt" height="504pt" viewBox="0 0 378 504" version="1.1">
<g id="data">
<rect x="0" y="0" width="378" height="504" style="fill:rgb(100%,100%,100%);fill-opacity:1;stroke:none;"/>
<path style=" stroke:none;fill-rule:nonzero;fill:rgb(100%,100%,100%);fill-opacity:1;" d="M 53.308594 504 L 324.691406 504 L 324.691406 0 L 53.308594 0 Z M 53.308594 504 "/>
<path style=" stroke:none;fill-rule:nonzero;fill:rgb(22.745098%,53.333333%,16.078431%);fill-opacity:1;" d="M 303.371094 378 L 305.074219 380.171875 L 305.503906 380.507813 L 306.730469 384.164063 L 307.179688 391.25 L 306.777344 393.191406 L 306.882813 393.945313 L 304.984375 396.230469 L 303.679688 399.386719 L 303.210938 402.886719 L 303.34375 408.019531 L 297.144531 414.53125 L 295.578125 412.011719 L 292.742188 410.515625 L 292.480469 410.636719 L 293.898438 413.703125 L 295.890625 416.628906 L 296.3125 416.765625 L 296.164063 417.742188 L 294.574219 419.804688 L 292.191406 421.289063 L 290.003906 421.65625 L 289.660156 421.574219 L 288.214844 419.332031 L 284.976563 421.730469 L 280.71875 424.230469 L 282.339844 425.378906 L 285.105469 424.398438 L 286.097656 423.375 L 286.894531 423.164063 L 287.328125 423.710938 L 287.632813 428.84375 L 285.6875 430.875 L 283.441406 432.558594 L 282.84375 432.699219 L 279.644531 432.160156 L 274.75 433.78125 L 272.609375 436.117188 L 274.253906 436.015625 L 275.152344 434.667969 L 276.683594 434.363281 L 278.285156 434.328125 L 281.054688 434.949219 L 281.828125 435.589844 L 281.691406 436.328125 L 279.554688 436.347656 L 277.390625 437.65625 L 277.96875 438.546875 L 281.382813 438.964844 L 286.863281 440.339844 L 289.394531 439.9375 L 291.074219 438.957031 L 296.328125 438.230469 L 296.371094 438.277344 L 299.492188 440.03125 L 299.492188 447.785156 L 297.320313 449.492188 L 296.707031 450.273438 L 295.839844 450.375 L 292.621094 451.640625 L 292.089844 452.046875 L 291.808594 452.078125 L 288.242188 453.777344 L 285.675781 456.265625 L 284.726563 458.027344 L 284.1875 457.9375 L 282.234375 459.785156 L 281.136719 460.015625 L 278.523438 461.300781 L 277.476563 462.160156 L 274.789063 462.777344 L 272.597656 463.816406 L 270.539063 466.589844 L 269.761719 466.949219 L 259.269531 463.777344 L 258.640625 463.726563 L 257.601563 463.378906 L 250.96875 463.128906 L 247.960938 463.441406 L 244.390625 464.71875 L 241.339844 467.167969 L 240.160156 467.410156 L 238.210938 466.1875 L 238.632813 465.4375 L 239.46875 464.933594 L 237.714844 463.296875 L 231.496094 463.171875 L 231.378906 463.496094 L 232.574219 464.835938 L 232.214844 465.75 L 231.738281 466.042969 L 226.691406 465.496094 L 219.566406 468.449219 L 217.054688 467.824219 L 210.222656 468.96875 L 208.164063 468.875 L 207.273438 468.058594 L 206.238281 469.769531 L 209.429688 471.089844 L 209.714844 470.9375 L 210.1875 472.128906 L 209.566406 473.890625 L 206.84375 474.453125 L 204.453125 473.097656 L 203.015625 472.699219 L 197.625 472.007813 L 196.175781 472.65625 L 195.679688 473.863281 L 195.78125 474.523438 L 195.257813 474.742188 L 194.851563 473.972656 L 190.289063 470.589844 L 185.898438 468.519531 L 183.121094 467.984375 L 181.648438 469.066406 L 176.207031 469.78125 L 174.339844 470.335938 L 168.992188 473.234375 L 168.214844 474.070313 L 167.203125 476.179688 L 163.601563 486.714844 L 161.28125 488.625 L 160.175781 490.09375 L 158.269531 489.722656 L 157.554688 489.058594 L 156.527344 486.851563 L 154.683594 485.4375 L 153.613281 485.542969 L 152.417969 486.300781 L 151.738281 486.164063 L 148.46875 482.535156 L 142.796875 482.960938 L 141.527344 483.375 L 141.214844 483.691406 L 139.765625 483.617188 L 136.996094 484.144531 L 136.460938 484.386719 L 134.507813 484.320313 L 132.167969 484.859375 L 129.414063 488.195313 L 126.714844 489.746094 L 124.039063 490.597656 L 123.132813 494.289063 L 123.207031 494.429688 L 122.707031 494.960938 L 121.558594 497.34375 L 120.660156 497.648438 L 120.625 497.722656 L 118.371094 495.757813 L 117.542969 495.40625 L 117.15625 494.691406 L 115.984375 493.691406 L 112.253906 492.070313 L 111.410156 491.984375 L 110.375 492.488281 L 110.25 494.085938 L 105.644531 494.308594 L 107.816406 492.601563 L 109.523438 490.429688 L 112.042969 488.359375 L 112.140625 488.230469 L 112.199219 488.253906 L 112.445313 488.9375 L 113.574219 489.15625 L 118.144531 485.910156 L 121.425781 483.085938 L 123.679688 480.554688 L 123.839844 480.417969 L 124.121094 480.058594 L 124.375 479.769531 L 124.421875 479.667969 L 127.542969 475.636719 L 128.464844 473.410156 L 128.5 473.222656 L 132.105469 472.640625 L 132.679688 471.785156 L 133.257813 469.527344 L 135.859375 467.5625 L 138.636719 464.640625 L 138.785156 462.785156 L 139.402344 461.992188 L 140.539063 459.414063 L 142.796875 457.621094 L 144.179688 455.96875 L 144.269531 456.015625 L 145.761719 455.429688 L 148.429688 452.488281 L 148.160156 448.378906 L 148.292969 447.785156 L 148.578125 447.375 L 151.105469 446.613281 L 157.421875 446.269531 L 159.910156 445.683594 L 164.597656 446.761719 L 166.046875 446.148438 L 167.527344 446.515625 L 169.484375 447.285156 L 170.039063 448.109375 L 170.757813 448.421875 L 173.15625 448.464844 L 180.570313 447.503906 L 181.109375 445.632813 L 181.210938 443.15625 L 182.519531 440.25 L 190.867188 432.195313 L 195.792969 425.3125 L 197.929688 424.472656 L 198.285156 423.78125 L 198.070313 423.238281 L 197.8125 423.082031 L 196.09375 424.355469 L 192.90625 427.300781 L 190.570313 429.988281 L 189.222656 431.449219 L 185.628906 432.957031 L 183.714844 433.246094 L 182.441406 433.0625 L 178.394531 435.230469 L 177.398438 436.808594 L 177.039063 438.671875 L 176.445313 439.273438 L 174.058594 439.917969 L 170.558594 439.851563 L 166.820313 439 L 166.347656 438.652344 L 161.371094 433.375 L 159.03125 429.199219 L 155.65625 429.589844 L 149.269531 432.308594 L 149.113281 432.746094 L 148.105469 432.15625 L 147.167969 431.335938 L 146.917969 429.308594 L 148.539063 428.378906 L 150.066406 428.890625 L 151.640625 428.421875 L 152.765625 427.832031 L 153.085938 427.097656 L 152.808594 426.597656 L 147.785156 426.460938 L 143.210938 423.710938 L 139.503906 423.714844 L 136.765625 424.277344 L 136.292969 426.515625 L 135.777344 427.203125 L 133.742188 427.917969 L 132.394531 427.265625 L 131.648438 427.453125 L 130.90625 428.097656 L 128.652344 427.738281 L 126.535156 428.125 L 127.425781 426.082031 L 128.796875 425.832031 L 131.792969 424.328125 L 131.226563 422.867188 L 130.640625 424.257813 L 127.769531 424.613281 L 122.949219 424.152344 L 121.667969 423.28125 L 121.773438 423.019531 L 124.125 421.78125 L 125.167969 421.753906 L 125.464844 421.238281 L 124.929688 417.953125 L 123.328125 417.210938 L 122.507813 417.164063 L 122.324219 415.726563 L 122.082031 415.144531 L 125.933594 413.378906 L 126.230469 412.652344 L 129.054688 411.8125 L 129.300781 411.667969 L 133.074219 411.34375 L 134.871094 409.289063 L 135.753906 407.632813 L 137.585938 406.550781 L 141.359375 406.660156 L 142.21875 406.390625 L 149.359375 401.828125 L 152.136719 398.207031 L 152.847656 396.648438 L 153.640625 395.8125 L 154.855469 393.882813 L 155.671875 391.753906 L 156.714844 385.972656 L 156.507813 383.542969 L 155.847656 381.324219 L 153.992188 378.25 L 152.429688 376.890625 L 152.683594 374.835938 L 153.175781 374.082031 L 152.804688 373.207031 L 150.203125 373.105469 L 145.550781 374.234375 L 144.414063 374.125 L 145.804688 370.285156 L 145.792969 369.15625 L 147.132813 367.984375 L 147.953125 364.523438 L 151.550781 360.582031 L 153.09375 359.609375 L 154.941406 359.808594 L 160.492188 357.457031 L 163.644531 357.28125 L 167.339844 357.714844 L 172.597656 355.179688 L 173.933594 355.046875 L 174.484375 355.082031 L 179.910156 359.441406 L 180.433594 358.429688 L 177.679688 353.460938 L 178.242188 352.835938 L 180.867188 352.449219 L 181.503906 352.695313 L 181.914063 353.875 L 182.898438 354.332031 L 184.078125 356.789063 L 185.613281 357.902344 L 188.359375 357.621094 L 190.335938 355.148438 L 189.90625 355.050781 L 188.667969 355.527344 L 188.3125 355.957031 L 186.378906 356.386719 L 183.8125 354.640625 L 179.976563 346.332031 L 180.097656 346.113281 L 181.007813 345.109375 L 182.265625 342.90625 L 182.726563 341.410156 L 183.371094 340.257813 L 185.429688 339.015625 L 185.140625 338.578125 L 183.226563 338.488281 L 183.347656 337.355469 L 182.980469 332.421875 L 182.183594 330.320313 L 184.695313 329.191406 L 187.28125 323.421875 L 187.71875 320.933594 L 187.855469 317.484375 L 184.742188 320.527344 L 179.199219 323.441406 L 177.335938 322.691406 L 175.410156 319.351563 L 175.382813 314.050781 L 174.867188 311.675781 L 173.933594 309.566406 L 172.519531 307.589844 L 170.621094 305.875 L 167.675781 304.339844 L 167.535156 304.238281 L 169.164063 299.058594 L 174.074219 288.722656 L 176.464844 286.417969 L 178.757813 285.980469 L 180.191406 286.804688 L 181.015625 286.710938 L 182.933594 286.238281 L 183.03125 285.160156 L 182.34375 284.746094 L 180.035156 285.351563 L 174.65625 284.980469 L 172.566406 284.292969 L 169.453125 284.03125 L 168.226563 288.992188 L 166.234375 288.695313 L 163.3125 290.011719 L 161.832031 291.855469 L 159.410156 293.515625 L 156.15625 293.3125 L 155.160156 292.984375 L 149.984375 289.230469 L 149.214844 288.042969 L 149.230469 287.167969 L 148.945313 287.023438 L 148.15625 288.078125 L 147.988281 288.910156 L 148.375 290.554688 L 149.574219 292.960938 L 149.839844 295.726563 L 149.308594 296.871094 L 148.746094 297.058594 L 145.816406 295.78125 L 144.601563 294.238281 L 144.507813 293.621094 L 143.632813 292.355469 L 141.613281 291.4375 L 140.164063 290.433594 L 138.398438 288.636719 L 137.464844 288.296875 L 136.613281 288.902344 L 136.320313 287.863281 L 134.886719 285.292969 L 132.238281 282.703125 L 130.441406 281.824219 L 132.777344 280.410156 L 134.003906 276.632813 L 137.757813 273.035156 L 138.601563 268.871094 L 140.917969 265.085938 L 143.644531 263.800781 L 144.390625 261.886719 L 144.195313 260.621094 L 142.601563 256.71875 L 139.777344 254.832031 L 137.378906 252.511719 L 138.6875 242.234375 L 140.710938 241.59375 L 142.886719 242.511719 L 146.15625 243.175781 L 148.300781 243.253906 L 141.261719 240.453125 L 140.441406 240.5625 L 139.386719 240.085938 L 139.183594 238.121094 L 139.414063 236.460938 L 139.78125 235.65625 L 140.777344 236.578125 L 142.976563 237.886719 L 146.011719 238.933594 L 148.558594 239.25 L 150.988281 239.023438 L 154.582031 237.652344 L 157.613281 235.089844 L 159.039063 232.953125 L 159.921875 230.675781 L 162.25 227.628906 L 163.421875 224.246094 L 163.449219 220.285156 L 162.082031 216.433594 L 159.464844 213.289063 L 156.046875 211.292969 L 161.925781 211.453125 L 165.984375 211.214844 L 168.601563 210.554688 L 171.101563 209.238281 L 173.539063 206.964844 L 175.28125 203.972656 L 176.054688 200.726563 L 175.875 197.394531 L 174.292969 193.207031 L 173.007813 191.449219 L 171.417969 189.960938 L 167.675781 188.03125 L 164.402344 185.457031 L 162.289063 184.597656 L 159.921875 184.152344 L 157.433594 182.140625 L 154.371094 180.847656 L 150.167969 180.542969 L 148.03125 180.980469 L 146.015625 181.8125 L 142.703125 184.417969 L 140.539063 188.03125 L 138.25 190.597656 L 136.773438 193.84375 L 136.351563 196.617188 L 136.660156 199.660156 L 136.535156 202.542969 L 137.0625 205.808594 L 138.214844 208.519531 L 140.101563 210.941406 L 142.554688 212.789063 L 140.539063 215.167969 L 138.101563 217.25 L 136.378906 219.800781 L 135.261719 223.476563 L 135.40625 227.316406 L 136.070313 228.980469 L 135.558594 229.292969 L 130.363281 233.964844 L 126.449219 238.917969 L 125.671875 238.734375 L 125.460938 238.363281 L 126.1875 249.699219 L 124.449219 251.558594 L 123.367188 254.191406 L 121.183594 263.964844 L 122.0625 266.289063 L 120.679688 268.164063 L 119.945313 268.597656 L 117.316406 268.863281 L 117.429688 267.066406 L 117.070313 263.394531 L 116.9375 262.945313 L 117.226563 262.640625 L 117.992188 256.269531 L 120.664063 249.058594 L 119.164063 246.890625 L 119.359375 242.367188 L 121.945313 238.054688 L 122.191406 237.09375 L 120.824219 237.742188 L 119.636719 239.75 L 119.449219 238.929688 L 121.214844 235.78125 L 121.476563 235.625 L 123.730469 233.175781 L 125.851563 228.941406 L 126.558594 225.695313 L 126.320313 222.378906 L 125.734375 220.863281 L 126.660156 220.210938 L 128.792969 220.179688 L 129.328125 220.484375 L 131.4375 220.320313 L 134.28125 217.339844 L 135.300781 215.007813 L 134.855469 215.347656 L 134.105469 217.117188 L 131.898438 219.546875 L 131.125 219.644531 L 127.28125 218.265625 L 127.882813 216.460938 L 128.195313 216.742188 L 128.945313 216.671875 L 131.070313 215.113281 L 129.507813 214.882813 L 128.550781 215.441406 L 127.980469 214.949219 L 127.875 213.785156 L 129.65625 210.6875 L 134.21875 205.03125 L 134.59375 204.003906 L 124.289063 214.566406 L 123.71875 212.984375 L 122.449219 211.058594 L 120.828125 209.421875 L 120.398438 209.132813 L 120.585938 209.09375 L 123.988281 209.15625 L 124.257813 209.050781 L 124.117188 208.789063 L 119.15625 207.757813 L 118.679688 208.039063 L 116.792969 207.257813 L 113.65625 206.753906 L 110.5 207.117188 L 108.234375 207.953125 L 108.144531 207.871094 L 107.96875 206.789063 L 109.109375 205.527344 L 114.792969 204.496094 L 115.882813 205.636719 L 117.070313 206.34375 L 118.480469 204.378906 L 117.316406 203.507813 L 117.253906 202.640625 L 119.675781 202.136719 L 120.503906 202.316406 L 121.824219 201.292969 L 121.664063 200.792969 L 120.140625 199.953125 L 116.804688 200.417969 L 115.804688 199.949219 L 118.253906 195.210938 L 118.835938 194.789063 L 120.441406 194.839844 L 120.773438 195.527344 L 122.574219 196.710938 L 124.417969 196.351563 L 125.527344 195.796875 L 122.886719 196.148438 L 119.445313 193.175781 L 119.640625 191.949219 L 120.992188 190.507813 L 122.769531 190.464844 L 125.425781 191.839844 L 128.601563 191.21875 L 128.128906 190.679688 L 126.691406 190.847656 L 125.089844 190.582031 L 122.863281 188.511719 L 123.117188 185.351563 L 125.410156 184.53125 L 125.660156 184.984375 L 127.679688 186.175781 L 128.171875 186.347656 L 128.714844 185.882813 L 126.332031 183.683594 L 124.980469 183.324219 L 124.4375 181.292969 L 125.035156 181.238281 L 127.738281 179.023438 L 128.101563 177.597656 L 126.824219 178.363281 L 124.835938 179.085938 L 126.636719 178.277344 L 129.183594 176.132813 L 130.984375 173.800781 L 132.179688 170.96875 L 132.554688 168.824219 L 132.519531 166.644531 L 131.308594 162.605469 L 128.742188 159.265625 L 126.992188 157.964844 L 125.03125 157.015625 L 126.257813 156.347656 L 128.898438 158.675781 L 129.609375 156.898438 L 131.765625 156.140625 L 134.503906 157.136719 L 136.507813 158.589844 L 137.039063 159.417969 L 137.175781 158.679688 L 135.242188 155.121094 L 133.609375 154.054688 L 131.15625 151.792969 L 132.113281 149.703125 L 132.507813 149.96875 L 133.015625 149.894531 L 133.449219 149.351563 L 133.714844 146.386719 L 133.191406 146.265625 L 132.777344 145.445313 L 132.785156 145.382813 L 135.140625 144.246094 L 137.09375 142.695313 L 137.941406 146.445313 L 139.886719 149.617188 L 142.730469 152.015625 L 146.3125 153.417969 L 149.257813 153.652344 L 154.851563 152.980469 L 157.304688 152.261719 L 159.542969 151.023438 L 161.953125 148.738281 L 163.570313 145.984375 L 164.394531 142.78125 L 164.308594 139.605469 L 163.257813 136.191406 L 161.546875 133.492188 L 159.058594 131.285156 L 157.605469 130.609375 L 161.109375 129.988281 L 162.550781 130.019531 L 163.628906 129.824219 L 168.160156 129.621094 L 169.804688 128.105469 L 171.035156 127.402344 L 172.933594 127.351563 L 173.433594 127.917969 L 177.664063 128.609375 L 178 127.714844 L 177.503906 127.214844 L 177.972656 125.796875 L 184.105469 126.515625 L 183.558594 127.753906 L 183.03125 131.375 L 183.183594 137.628906 L 181.378906 138.988281 L 179.308594 141.507813 L 178.628906 142.050781 L 177.402344 142.480469 L 176.097656 143.761719 L 173.941406 147.085938 L 173.910156 147.121094 L 173.890625 147.164063 L 173.855469 147.214844 L 162.601563 156.074219 L 162.234375 157.082031 L 162.671875 158.175781 L 162.078125 159.632813 L 159.644531 160.289063 L 156.839844 159.359375 L 153.464844 157.734375 L 154.464844 159.796875 L 155.875 160.457031 L 161.363281 161.917969 L 164.042969 162.292969 L 165.242188 161.992188 L 166.015625 161.605469 L 166.75 160.257813 L 167.589844 160.183594 L 167.507813 160.828125 L 166.417969 162.609375 L 162.722656 166.96875 L 162.175781 167.183594 L 161.726563 166.894531 L 161.859375 165.949219 L 161.53125 165.507813 L 159.984375 165.785156 L 155.320313 167.769531 L 152.441406 170.8125 L 151.949219 171.945313 L 152.140625 172.144531 L 156.390625 168.453125 L 157.75 167.980469 L 160.300781 168.324219 L 161.058594 169.320313 L 157.109375 173.804688 L 156.367188 175.339844 L 156.707031 175.816406 L 157.367188 175.984375 L 158.261719 175.542969 L 161.140625 173.015625 L 167.808594 170.273438 L 170.480469 169.527344 L 170.492188 169.949219 L 171.554688 169.839844 L 173.589844 168.316406 L 174.046875 166.78125 L 178.648438 166.167969 L 179.285156 167.089844 L 180.148438 167.667969 L 183.078125 168.609375 L 184.722656 169.808594 L 186.667969 170.796875 L 189.273438 171.488281 L 191.964844 171.5625 L 195.566406 170.648438 L 198.359375 168.859375 L 199.164063 168.988281 L 204.117188 168.914063 L 204.449219 168.644531 L 209.863281 168.644531 L 210.3125 168.835938 L 210.316406 168.839844 L 210.199219 171.527344 L 210.882813 175.25 L 212.210938 177.984375 L 212.992188 178.882813 L 209.382813 183.425781 L 207.15625 188.339844 L 206.859375 190.089844 L 206.574219 190.902344 L 206.289063 193.53125 L 206.339844 194.25 L 206.226563 194.742188 L 203.9375 198.859375 L 203.914063 199.039063 L 203.757813 199.285156 L 202.976563 201.292969 L 202.570313 203.539063 L 200.867188 205.414063 L 199.902344 207.128906 L 199.179688 207.605469 L 197.078125 210.023438 L 197.433594 210.839844 L 197.785156 210.703125 L 197.761719 211.238281 L 197.390625 212.445313 L 195.605469 214.035156 L 193.519531 216.925781 L 192.839844 218.40625 L 191.214844 219.742188 L 185.519531 221.085938 L 182.847656 221.226563 L 177.804688 225.21875 L 178.117188 225.714844 L 179.84375 225.195313 L 184.609375 222.886719 L 186.457031 221.386719 L 187.289063 221.316406 L 189.085938 221.875 L 189.332031 222.921875 L 188.898438 224.691406 L 189.238281 225.953125 L 190.898438 226.824219 L 192.753906 227.152344 L 193.085938 228.132813 L 194.101563 229.625 L 192.117188 231.570313 L 189.460938 232.730469 L 188.34375 232.882813 L 187.070313 232.078125 L 185.40625 232.042969 L 181.046875 235.800781 L 180.578125 237.003906 L 174.761719 240.109375 L 170.214844 238.117188 L 166.480469 238.003906 L 166.738281 239.222656 L 168.246094 240.195313 L 178.0625 241.875 L 182.921875 243.167969 L 186.398438 241.730469 L 187.519531 239.417969 L 188.617188 238.355469 L 189.539063 238.171875 L 193.183594 238.5 L 199.339844 242.761719 L 206.488281 246.65625 L 206.558594 246.792969 L 206.855469 248.429688 L 207.636719 250.4375 L 208.851563 252.367188 L 210.324219 253.9375 L 210.640625 257.371094 L 211.949219 260.5625 L 214.625 263.644531 L 218.078125 265.570313 L 217.953125 268.449219 L 218.636719 272.175781 L 219.75 274.46875 L 220.40625 277.574219 L 221.269531 280.457031 L 221.878906 281.722656 L 221.792969 286.957031 L 222.039063 290.242188 L 222.765625 293.101563 L 224.191406 295.6875 L 226.019531 297.667969 L 228.375 299.230469 L 230.90625 300.148438 L 231.875 300.261719 L 234.855469 301.652344 L 235.15625 301.933594 L 237.085938 303.148438 L 239.21875 303.964844 L 240.171875 304.132813 L 241.757813 304.875 L 243.046875 306.507813 L 245.214844 308.214844 L 245.445313 310.515625 L 246.078125 312.605469 L 247.15625 314.648438 L 248.621094 316.441406 L 250.410156 317.902344 L 252.050781 318.769531 L 252.390625 319.148438 L 256.121094 320.875 L 256.132813 320.882813 L 255.175781 322.277344 L 254.914063 322.996094 L 254.738281 323.09375 L 253.890625 324.554688 L 253.765625 325.996094 L 254.003906 326.777344 L 253.890625 327.984375 L 254.363281 330.898438 L 255.355469 333.261719 L 256.847656 335.355469 L 257.253906 337.597656 L 258.152344 339.832031 L 259.988281 342.171875 L 258.378906 342.789063 L 257.507813 342.753906 L 256.035156 341.773438 L 253.664063 338.65625 L 252.601563 338.082031 L 245.550781 339.511719 L 244.589844 338.644531 L 243.40625 338.558594 L 241.210938 339.871094 L 241.886719 340.445313 L 246.324219 340.394531 L 249.617188 339.34375 L 251.976563 339.082031 L 254.382813 342.558594 L 260.535156 347.621094 L 260.867188 347.8125 L 261.746094 350.894531 L 262.972656 352.964844 L 264.601563 354.738281 L 265.007813 356.980469 L 265.847656 359.101563 L 267.003906 360.921875 L 268.476563 362.492188 L 269.339844 364.097656 L 269.210938 365.21875 L 264.953125 369.09375 L 261.394531 373.164063 L 260.601563 374.816406 L 262.84375 374.3125 L 264.9375 375.519531 L 266.9375 378.226563 L 270.21875 378.804688 L 270.625 378.746094 L 271.910156 376.796875 L 272.234375 374.960938 L 273.40625 371.914063 L 274.707031 370.632813 L 277.71875 370.109375 L 281.984375 370.410156 L 283.570313 370.390625 L 284.253906 370.867188 L 286.703125 370.742188 L 293.949219 371.515625 L 296.914063 372.84375 L 300.75 375.652344 L 301.5625 376.640625 Z M 232.914063 471.492188 L 231.683594 472.492188 L 230.4375 474.027344 L 229.960938 474.269531 L 228.117188 474.644531 L 222.296875 470.886719 L 220.207031 471.1875 L 221.476563 469.683594 L 227.316406 466.367188 L 232.550781 467.761719 L 234.171875 469.894531 Z M 144.175781 361.574219 L 143.390625 358.582031 L 142.164063 356.511719 L 142.085938 356.425781 L 142.125 355.414063 L 143.128906 355.839844 L 146.035156 356.292969 L 149.210938 355.941406 L 150.902344 355.253906 L 151.039063 355.578125 L 155.546875 356.503906 L 154.066406 358.859375 L 150.984375 360.816406 L 147.425781 363.976563 L 146.109375 363.875 L 144.195313 361.613281 Z M 149.136719 308.683594 L 148.929688 309.089844 L 148.179688 312.964844 L 148.292969 315.96875 L 146.121094 317.675781 L 144.414063 319.847656 L 141.898438 321.917969 L 141.203125 322.839844 L 139.824219 322.464844 L 137.933594 323.433594 L 137.675781 322.921875 L 137.953125 322.117188 L 139.113281 320.667969 L 140.058594 318.457031 L 140.492188 316.203125 L 142.300781 315.023438 L 144.765625 310.230469 L 145.863281 309.40625 L 149.046875 308.269531 Z M 136.769531 296.636719 L 136.660156 296.585938 L 136.726563 296.296875 L 136.734375 296.308594 Z M 107.285156 254.140625 L 105.644531 253.9375 L 105.238281 251.695313 L 104.457031 249.6875 L 104.382813 249.570313 L 104.988281 247.472656 L 102.980469 247.105469 L 102.847656 247.335938 L 101.769531 246.183594 L 103.917969 243.832031 L 104.144531 243.375 L 106.871094 241.457031 L 108.433594 240.808594 L 108.667969 241.335938 L 108.480469 243.175781 L 108.777344 246.292969 L 109.046875 247.320313 L 109.929688 248.226563 L 110.335938 251.851563 L 108.992188 253.109375 Z M 105.804688 236.289063 L 105.742188 235.617188 L 106.078125 234.894531 L 107.574219 236.078125 L 107.535156 236.1875 L 106.976563 236.632813 Z M 112.054688 238 L 115.148438 238.191406 L 116.875 237.765625 L 113.761719 243.328125 L 111.886719 247.292969 L 110.550781 247.070313 L 109.476563 246.144531 L 109.292969 243.285156 L 109.585938 242.089844 Z M 93.019531 215.484375 L 91.457031 215.167969 L 95.296875 214.28125 L 95.496094 214.15625 L 95.671875 214.59375 L 93.804688 214.847656 Z M 97.230469 213.050781 L 98.621094 212.160156 L 100.59375 209.824219 L 101.667969 207.910156 L 102.617188 207.75 L 102.652344 208.195313 L 101.386719 210.445313 L 99.425781 212.117188 Z M 101.851563 192.03125 L 101.769531 191.90625 L 101.933594 191.449219 L 102.835938 191.832031 Z M 101.0625 179.453125 L 100.902344 179.175781 L 98.476563 176.9375 L 98.414063 176.53125 L 97.28125 175.296875 L 97.152344 174.433594 L 101.03125 167.96875 L 101.53125 168.039063 L 102.335938 169.03125 L 102.71875 170.644531 L 104.785156 172.40625 L 105.550781 172.625 L 106.867188 171.878906 L 106.828125 171.351563 L 109.523438 172.523438 L 111.277344 175.644531 L 111.980469 176.296875 L 111.832031 177.386719 L 112.054688 181.640625 L 117.5 184.859375 L 120.773438 183.445313 L 123.167969 184.417969 L 122.46875 186.839844 L 119.148438 190.25 L 118.089844 190.683594 L 116.035156 193.449219 L 114.023438 194.042969 L 113.570313 192.609375 L 115.183594 189.4375 L 113.980469 187.324219 L 112.75 189.558594 L 110.542969 187.414063 L 107.277344 187.777344 L 104.472656 183.015625 L 103.78125 181.25 L 105.464844 179.976563 L 107.179688 181.675781 L 107.667969 181.742188 L 107.789063 181.460938 L 102.875 176.632813 L 101.867188 177.609375 L 102.007813 179.089844 L 101.671875 179.800781 Z M 88.871094 171.109375 L 86.84375 171.09375 L 86.097656 171.261719 L 84.921875 171.128906 L 87.214844 169.28125 L 89.304688 165.917969 L 89.660156 164.480469 L 91.023438 165.660156 L 91.214844 166.0625 L 88.9375 171.015625 Z M 92.90625 157.394531 L 93.945313 157.539063 L 97.714844 156.792969 L 101.035156 154.859375 L 101.113281 154.765625 L 101.277344 156.078125 L 99.433594 158.316406 L 93.527344 162.226563 L 90.550781 158.175781 L 90.507813 157.148438 L 91.820313 157.980469 Z M 101.5625 154.25 L 103.542969 151.953125 L 104.96875 148.382813 L 105.011719 147.484375 L 105.667969 147.414063 L 108.015625 146.824219 L 108.691406 149.601563 L 107.507813 150.085938 L 105.582031 151.351563 L 103.941406 152.972656 L 102.800781 154.667969 Z M 105.03125 147.09375 L 105.152344 144.546875 L 104.078125 140.859375 L 101.769531 137.628906 L 103.574219 136.273438 L 103.867188 135.917969 L 105.253906 135.441406 L 109.523438 132 L 109.523438 141.507813 L 109.039063 144.332031 L 108.839844 144.542969 L 108.40625 145.765625 L 105.6875 146.980469 Z M 113.5 177.710938 L 113.898438 178.082031 L 115.476563 178.925781 L 115.367188 179.941406 L 114.945313 180.566406 L 113.875 180.957031 L 113.53125 180.855469 L 113.277344 179.863281 Z M 119.808594 179.996094 L 121.074219 180.0625 L 123.066406 179.726563 L 120.484375 180.664063 Z M 178.371094 119.460938 L 179.148438 117.050781 L 179.304688 114.894531 L 181.269531 116.636719 L 182.96875 119.6875 L 182.941406 120.441406 L 180.816406 120.886719 L 179.261719 120.746094 Z M 179.417969 113.332031 L 179.46875 112.621094 L 179.308594 106.617188 L 181.464844 104.882813 L 181.753906 104.792969 L 184.519531 106.003906 L 186.230469 108.273438 L 187.324219 111.371094 L 189.425781 112.382813 L 190.734375 113.441406 L 190.886719 113.71875 L 190.9375 114.371094 L 189.503906 116.15625 L 186.777344 113.90625 L 184.832031 114.03125 L 181.886719 115.097656 Z M 185.839844 99.09375 L 186.460938 97.832031 L 186.507813 97.613281 L 188.613281 98.375 L 189.644531 99.757813 L 189.558594 100.558594 L 189.007813 101.453125 L 189.121094 100.265625 L 187.730469 99.058594 L 186.953125 98.894531 L 186.835938 99.515625 L 186.335938 100.011719 Z M 195.300781 98.890625 L 195.8125 98.984375 L 198.691406 98.863281 L 196.523438 100.566406 L 196.140625 101.003906 L 194.695313 101.191406 L 193.226563 103.421875 L 193.136719 102.113281 Z M 188.109375 118.308594 L 187.542969 119.636719 L 187.0625 122.125 L 186.800781 122.429688 L 186.4375 122.070313 L 185.203125 119.125 L 185.941406 118.488281 Z M 136.390625 229.785156 L 137.734375 233.140625 L 139.082031 235.011719 L 139.253906 235.167969 L 138.320313 240.257813 L 136.15625 245.152344 L 135.023438 244.945313 L 131.566406 242.222656 L 130.757813 242.5 L 130.269531 243.347656 L 130.09375 244.535156 L 130.664063 246.308594 L 130.519531 246.613281 L 128.257813 245.464844 L 127.46875 243.074219 L 128.453125 238.691406 L 131.230469 234.078125 Z M 230.550781 36.296875 L 230.898438 37.207031 L 232.011719 38.976563 L 230.96875 38.972656 L 230.324219 38.394531 Z M 224.683594 71.722656 L 222.078125 71.722656 L 222.910156 68.203125 L 223.429688 67.644531 L 224.308594 63.570313 L 223.632813 57.773438 L 221.078125 57.210938 L 222.089844 58.292969 L 222.21875 59.898438 L 220.292969 61.703125 L 218.738281 60.40625 L 218.746094 59.554688 L 215.621094 58.289063 L 215.003906 56.183594 L 215.039063 55.8125 L 215.808594 55.171875 L 220.695313 54.34375 L 222.421875 53.527344 L 222.960938 52.8125 L 220.238281 48.339844 L 217.292969 47.78125 L 217.703125 46.707031 L 217.941406 45.355469 L 219.863281 43.179688 L 220.246094 42.878906 L 220.894531 42.050781 L 223.226563 40.707031 L 223.542969 41.710938 L 223.417969 46.992188 L 223.628906 47.851563 L 228.960938 48.949219 L 227.699219 56.234375 L 226.355469 57.007813 L 225.6875 56.476563 L 226.023438 58.453125 L 227.246094 61.769531 L 226.800781 62.460938 L 226.285156 62.238281 L 225.40625 63.738281 L 225.265625 67.207031 Z M 227.007813 37.527344 L 227.644531 36.726563 L 228.363281 36.574219 L 229.761719 37.023438 L 229.984375 39.984375 L 229.175781 46.582031 L 227.496094 47.179688 L 226.742188 47.023438 L 226.078125 45.398438 L 225.789063 41.242188 Z M 140.539063 129.875 L 142.855469 130.4375 L 145.363281 130.503906 L 142.695313 131.855469 L 140.539063 133.753906 Z M 88.945313 499.121094 L 88.542969 499.441406 L 88.566406 499.308594 L 88.941406 499.117188 Z M 286.679688 439.636719 L 283.058594 438.976563 L 282.164063 437.605469 L 282.484375 436.070313 L 286.839844 437.054688 L 287.960938 438.832031 Z M 236.835938 466.113281 L 235.136719 465.644531 L 236.523438 463.683594 L 237.195313 464.164063 L 237.5 465.839844 Z M 116.207031 183.113281 L 115.0625 182.589844 L 114.59375 181.914063 L 114.695313 181.441406 L 115.34375 181.214844 L 116.664063 181.757813 L 116.886719 182.648438 Z M 106.597656 197.398438 L 105.582031 196.804688 L 103.613281 194.261719 L 105.34375 192.390625 L 106.722656 192.214844 L 107.992188 192.835938 L 108.445313 193.703125 L 108.09375 196.351563 L 107.546875 197.015625 Z M 110.160156 200.433594 L 108.972656 199.578125 L 108.9375 198.890625 L 110.578125 197.179688 L 111.398438 197.769531 L 111.5 198.265625 L 111.128906 199.855469 Z M 134.8125 251.347656 L 132.589844 248.835938 L 130.84375 244.566406 L 130.707031 243.464844 L 131.460938 242.613281 L 133.71875 244.574219 L 134.707031 246.3125 L 135.339844 249.003906 L 135.222656 250.96875 Z M 130.613281 263.773438 L 129.152344 263.667969 L 126.582031 261.613281 L 125.375 256.128906 L 125.988281 253.21875 L 128.179688 251.246094 L 129.539063 251.441406 L 131.390625 253.015625 L 132.984375 258.382813 L 133.019531 262.765625 L 132.308594 263.453125 Z M 130.613281 263.773438 "/>
<path style=" stroke:none;fill-rule:nonzero;fill:rgb(80.392157%,58.431373%,4.705882%);fill-opacity:1;" d="M 80.410156 190.308594 L 81.117188 190.9375 L 81.808594 193.710938 L 80.203125 195.140625 L 77.601563 194.722656 L 77.417969 194.15625 Z M 80.410156 190.308594 "/>
<path style=" stroke:none;fill-rule:nonzero;fill:rgb(80.392157%,58.431373%,4.705882%);fill-opacity:1;" d="M 107.429688 223.90625 L 106.472656 226.339844 L 106.027344 226.585938 L 104.691406 226.273438 L 103.734375 224.277344 L 103.851563 223.371094 L 104.191406 223.09375 L 105.628906 223.050781 L 106.039063 223.617188 L 106.972656 224.074219 Z M 102.664063 224.511719 L 102.054688 224.097656 L 102.589844 223.230469 L 103.304688 222.808594 L 103.460938 223.023438 Z M 102.664063 224.511719 "/>
</g>
</svg>
