<?xml version="1.0" encoding="UTF-8"?>
<svg xmlns="http://www.w3.org/2000/svg" xmlns:xlink="http://www.w3.org/1999/xlink" width="378pt" height="504pt" viewBox="0 0 378 504" version="1.1">
<g id="data">
<rect x="0" y="0" width="378" height="504" style="fill:rgb(100%,100%,100%);fill-opacity:1;stroke:none;"/>
<path style=" stroke:none;fill-rule:nonzero;fill:rgb(100%,100%,100%);fill-opacity:1;" d="M 53.308594 504 L 324.691406 504 L 324.691406 0 L 53.308594 0 Z M 53.308594 504 "/>
<path style=" stroke:none;fill-rule:nonzero;fill:rgb(22.745098%,53.333333%,16.078431%);fill-opacity:1;" d="M 252.96875 443.90625 L 255.542969 442.769531 L 257.773438 441.046875 L 259.519531 438.839844 L 260.722656 436.152344 L 261.097656 438.277344 L 261.914063 440.40625 L 263.128906 442.335938 L 264.601563 443.90625 L 263.789063 446.195313 L 263.472656 448.472656 L 263.613281 450.769531 L 264.199219 452.992188 L 262.292969 454.140625 L 260.722656 455.539063 L 260.34375 451.855469 L 258.753906 448.375 L 256.222656 445.675781 Z M 210.324219 401.261719 L 211.148438 403.421875 L 212.386719 405.375 L 213.988281 407.046875 L 215.886719 408.367188 L 218.257813 409.359375 L 220.785156 409.808594 L 223.351563 409.691406 L 225.832031 409.015625 L 227.402344 410.488281 L 229.332031 411.703125 L 231.464844 412.519531 L 233.585938 412.890625 L 235.511719 416.34375 L 238.59375 419.019531 L 241.78125 420.328125 L 245.214844 420.644531 L 243.019531 421.6875 L 241.179688 423.074219 L 239.578125 424.902344 L 238.390625 427.023438 L 237.691406 429.21875 L 237.445313 431.378906 L 237.539063 434.433594 L 238.179688 437.019531 L 235.703125 438.25 L 233.585938 440.03125 L 233.132813 436.101563 L 231.316406 432.449219 L 229.082031 430.167969 L 225.832031 428.398438 L 223.429688 426.339844 L 220.441406 424.964844 L 215.472656 423.929688 L 212.546875 423.976563 L 209.625 424.757813 L 210.128906 421.476563 L 209.714844 418.308594 L 208.457031 415.375 L 206.445313 412.890625 L 208.664063 410.433594 L 210.0625 407.570313 L 210.628906 404.433594 Z M 210.324219 288.832031 L 212.492188 287.125 L 214.199219 284.953125 L 216.910156 284.402344 L 219.304688 283.292969 L 216.179688 287.847656 L 215.425781 290.03125 L 215.117188 292.449219 L 215.273438 294.628906 L 215.835938 296.738281 L 216.78125 298.707031 L 218.078125 300.460938 L 218.089844 305.875 L 218.683594 308.753906 L 219.769531 311.070313 L 221.425781 313.183594 L 223.417969 314.792969 L 225.832031 315.96875 L 225.949219 318.398438 L 226.566406 320.746094 L 227.660156 322.917969 L 229.179688 324.816406 L 231.277344 326.492188 L 233.585938 327.601563 L 235.429688 330.953125 L 238.160156 333.453125 L 241.535156 334.972656 L 245.214844 335.355469 L 243.179688 338.695313 L 241.210938 339.871094 L 241.886719 340.445313 L 242.746094 340.4375 L 242.253906 343.109375 L 243.019531 347.257813 L 245.214844 350.863281 L 242.804688 352.910156 L 240.0625 349.148438 L 237.460938 346.984375 L 237.5625 343.855469 L 236.6875 339.78125 L 235.132813 337.027344 L 232.503906 334.285156 L 229.15625 332.253906 L 224.234375 331.039063 L 221.0625 330.847656 L 218.078125 331.476563 L 220.136719 329.078125 L 221.433594 326.332031 L 222.667969 320.988281 L 222.59375 317.402344 L 221.542969 314.234375 L 219.640625 311.496094 L 217.148438 309.476563 L 214.199219 308.214844 L 212.492188 306.046875 L 210.324219 304.339844 L 212.519531 300.734375 L 213.285156 296.585938 L 212.519531 292.433594 Z M 204.753906 368.933594 L 206.445313 370.246094 L 207.453125 372.75 L 208.921875 374.855469 L 212.238281 377.472656 L 214.503906 378.378906 L 217.039063 378.800781 L 219.601563 378.65625 L 221.953125 378 L 221.953125 381.875 L 218.667969 381.351563 L 215.488281 381.742188 L 212.539063 382.984375 L 210.039063 384.988281 L 208.558594 386.921875 L 207.515625 389.125 L 206.953125 391.492188 L 206.898438 393.929688 L 206.445313 393.507813 L 206.046875 391.246094 L 205.210938 389.105469 L 202.753906 385.859375 L 201.03125 384.542969 L 199.09375 383.5625 L 197.007813 382.964844 L 194.847656 382.761719 L 196.472656 380.957031 L 197.6875 378.851563 L 198.4375 376.539063 L 198.691406 374.125 L 202.183594 372.066406 Z M 195.320313 98.863281 L 198.691406 98.863281 L 195.304688 100.402344 L 194.976563 99.371094 Z M 175.429688 215.167969 L 178.339844 213.578125 L 180.757813 211.125 L 182.308594 208.195313 L 182.96875 204.945313 L 185.585938 206.792969 L 188.609375 207.855469 L 191.679688 208.0625 L 194.816406 207.414063 L 194.148438 211.292969 L 194.816406 215.167969 L 194.816406 216.777344 L 191.214844 219.742188 L 185.519531 221.085938 L 182.847656 221.226563 L 177.996094 225.066406 L 178.390625 222.921875 L 177.625 218.773438 Z M 189.234375 223.320313 L 188.960938 223.621094 L 187.441406 226.996094 L 187.0625 230.675781 L 183.183594 230.675781 L 179.308594 230.011719 L 175.429688 230.675781 L 177.625 227.074219 L 177.933594 225.417969 L 178.117188 225.714844 L 179.84375 225.195313 L 184.609375 222.886719 L 186.457031 221.386719 L 187.289063 221.316406 L 189.085938 221.875 L 189.332031 222.921875 Z M 183.183594 168.644531 L 183.191406 168.648438 L 184.320313 169.011719 L 184.550781 168.878906 L 187.0625 169.3125 L 190.9375 168.644531 L 194.816406 168.644531 L 192.894531 170.835938 L 191.621094 173.3125 L 190.023438 179.152344 L 189.835938 182.296875 L 184.222656 185.617188 L 181.730469 188 L 179.792969 191.734375 L 179.308594 195.785156 L 177.601563 193.613281 L 175.429688 191.90625 L 176.664063 188.824219 L 176.976563 185.515625 L 176.417969 182.5 L 174.722656 178.488281 L 173.5 176.535156 L 171.816406 174.777344 L 169.917969 173.46875 L 167.675781 172.523438 L 169.847656 170.816406 L 170.53125 169.945313 L 171.554688 169.839844 L 173.152344 168.644531 Z M 190.9375 114.371094 L 187.339844 114.371094 L 187.242188 114.289063 L 190.144531 112.964844 L 190.613281 113.34375 Z M 173.769531 297.8125 L 174.878906 295.417969 L 175.429688 292.707031 L 177.089844 291.480469 L 175.980469 293.875 L 175.429688 296.585938 Z M 173.769531 297.8125 "/>
</g>
</svg>
