<?xml version="1.0" encoding="UTF-8"?>
<svg xmlns="http://www.w3.org/2000/svg" xmlns:xlink="http://www.w3.org/1999/xlink" width="378pt" height="504pt" viewBox="0 0 378 504" version="1.1">
<g id="data">
<rect x="0" y="0" width="378" height="504" style="fill:rgb(100%,100%,100%);fill-opacity:1;stroke:none;"/>
<path style=" stroke:none;fill-rule:nonzero;fill:rgb(100%,100%,100%);fill-opacity:1;" d="M 53.308594 504 L 324.691406 504 L 324.691406 0 L 53.308594 0 Z M 53.308594 504 "/>
<path style=" stroke:none;fill-rule:nonzero;fill:rgb(22.745098%,53.333333%,16.078431%);fill-opacity:1;" d="M 252.96875 449.722656 L 251.234375 449.457031 L 249.660156 448.6875 L 248.382813 447.484375 L 247.523438 445.953125 L 247.164063 444.234375 L 247.328125 442.488281 L 248.007813 440.871094 L 249.140625 439.53125 L 250.621094 438.589844 L 252.546875 437.738281 L 253.652344 436.882813 L 254.507813 435.800781 L 255.417969 433.773438 L 256.425781 432.238281 L 257.863281 431.089844 L 259.585938 430.449219 L 261.421875 430.378906 L 263.191406 430.886719 L 264.710938 431.921875 L 265.832031 433.378906 L 266.445313 435.113281 L 266.753906 436.808594 L 267.128906 437.777344 L 267.75 438.765625 L 268.84375 439.933594 L 269.90625 441.53125 L 270.390625 443.390625 L 270.246094 445.308594 L 269.480469 447.070313 L 268.183594 448.488281 L 266.496094 449.40625 L 264.601563 449.722656 Z M 230.300781 339.164063 L 229.847656 337.4375 L 229.941406 335.65625 L 230.574219 333.984375 L 231.679688 332.582031 L 233.160156 331.585938 L 234.875 331.082031 L 237.140625 330.785156 L 239.140625 329.96875 L 241.339844 329.539063 L 245.214844 329.539063 L 247.117188 329.859375 L 248.8125 330.78125 L 250.109375 332.210938 L 250.867188 333.984375 L 251.003906 335.910156 L 250.503906 337.773438 L 249.925781 338.625 L 245.550781 339.511719 L 244.589844 338.644531 L 243.40625 338.558594 L 241.210938 339.871094 L 241.886719 340.445313 L 246.324219 340.394531 L 249.335938 339.433594 L 247.878906 340.523438 L 245.746094 341.621094 L 244.644531 342.636719 L 243.835938 343.917969 L 243.164063 346.101563 L 242.398438 347.679688 L 241.203125 348.957031 L 239.679688 349.820313 L 237.96875 350.191406 L 236.222656 350.035156 L 234.605469 349.367188 L 233.257813 348.25 L 232.304688 346.777344 L 231.832031 345.09375 L 231.425781 341.757813 Z M 209.628906 281.359375 L 211.160156 279.996094 L 213.070313 279.25 L 214.992188 278.867188 L 216.890625 278.003906 L 218.707031 277.507813 L 220.417969 277.609375 L 221.269531 280.457031 L 222.984375 284.039063 L 223.773438 285.027344 L 224.125 286.515625 L 224.085938 286.601563 L 221.453125 290.40625 L 221.125 291.328125 L 220.964844 292.386719 L 221.007813 293.457031 L 221.273438 294.59375 L 221.753906 295.636719 L 222.773438 297.035156 L 223.605469 298.660156 L 223.890625 300.460938 L 223.890625 304.339844 L 223.648438 306.003906 L 222.941406 307.527344 L 221.824219 308.785156 L 220.398438 309.671875 L 218.773438 310.113281 L 217.09375 310.070313 L 214.199219 309.574219 L 211.304688 310.070313 L 209.414063 310.082031 L 207.617188 309.488281 L 206.109375 308.34375 L 205.046875 306.78125 L 204.539063 304.957031 L 204.648438 303.066406 L 205.355469 301.3125 L 206.996094 298.625 L 207.371094 296.585938 L 206.996094 294.542969 L 205.355469 291.855469 L 204.699219 290.308594 L 204.511719 288.636719 L 204.808594 286.980469 L 205.570313 285.480469 L 206.726563 284.257813 L 208.351563 282.984375 Z M 197.613281 380.730469 L 196.042969 380.203125 L 194.6875 379.253906 L 193.652344 377.964844 L 193.019531 376.433594 L 192.847656 374.785156 L 192.882813 373.902344 L 193.285156 371.980469 L 194.308594 370.300781 L 195.832031 369.058594 L 197.683594 368.394531 L 199.253906 368.117188 L 200.332031 367.707031 L 201.304688 367.09375 L 202.46875 366.003906 L 204 364.96875 L 205.773438 364.46875 L 207.617188 364.550781 L 209.34375 365.203125 L 210.777344 366.363281 L 211.773438 367.914063 L 212.796875 370.253906 L 214.363281 372.109375 L 215.363281 373.828125 L 215.730469 375.78125 L 215.414063 377.742188 L 214.457031 379.484375 L 212.972656 380.804688 L 209.503906 382.945313 L 207.914063 383.628906 L 206.191406 383.808594 L 204.496094 383.480469 L 202.96875 382.664063 L 201.671875 381.695313 L 200.9375 381.335938 Z M 165.328125 177.84375 L 163.886719 176.933594 L 162.769531 175.644531 L 162.074219 174.085938 L 161.902344 172.703125 L 167.808594 170.273438 L 170.480469 169.527344 L 170.492188 169.949219 L 171.554688 169.839844 L 173.589844 168.316406 L 174.046875 166.78125 L 178.648438 166.167969 L 179.285156 167.089844 L 180.148438 167.667969 L 184.320313 169.011719 L 187.675781 167.128906 L 199.164063 168.988281 L 200.59375 168.96875 L 200.609375 169.164063 L 200.125 171.023438 L 199.058594 172.621094 L 197.96875 173.789063 L 197.34375 174.773438 L 196.96875 175.746094 L 196.660156 177.441406 L 196.09375 179.09375 L 195.058594 180.503906 L 193.65625 181.542969 L 192.003906 182.117188 L 190.257813 182.175781 L 188.574219 181.714844 L 187.082031 181.046875 L 186.023438 180.800781 L 184.9375 180.753906 L 183.859375 180.910156 L 182.832031 181.265625 L 181.890625 181.808594 L 181.078125 182.507813 L 179.996094 183.878906 L 178.757813 185.046875 L 177.234375 185.804688 L 175.554688 186.089844 L 173.863281 185.878906 L 172.308594 185.183594 L 171.019531 184.066406 L 170.109375 182.625 L 169.261719 180.699219 L 168.414063 179.605469 L 167.238281 178.6875 Z M 171.15625 218.894531 L 170.664063 217.03125 L 170.804688 215.113281 L 171.566406 213.34375 L 172.863281 211.921875 L 174.550781 211 L 176.453125 210.679688 L 178.351563 210.996094 L 180.042969 211.917969 L 182.449219 213.804688 L 184.285156 214.40625 L 186.214844 214.363281 L 189.066406 213.25 L 190.9375 212.859375 L 192.832031 213.09375 L 194.546875 213.929688 L 195.898438 215.277344 L 196.058594 215.597656 L 195.867188 215.914063 L 191.214844 219.742188 L 185.519531 221.085938 L 182.847656 221.226563 L 177.804688 225.21875 L 178.117188 225.714844 L 179.84375 225.195313 L 184.609375 222.886719 L 186.457031 221.386719 L 187.289063 221.316406 L 189.085938 221.875 L 189.332031 222.921875 L 188.898438 224.691406 L 189.238281 225.953125 L 190.898438 226.824219 L 192.960938 227.1875 L 192.785156 228.113281 L 192.871094 230.457031 L 192.820313 230.882813 L 192.117188 231.570313 L 189.460938 232.730469 L 188.34375 232.882813 L 187.070313 232.078125 L 185.40625 232.042969 L 181.046875 235.800781 L 180.898438 236.183594 L 179.308594 235.914063 L 176.414063 236.410156 L 174.507813 236.417969 L 172.703125 235.8125 L 171.1875 234.652344 L 170.128906 233.066406 L 169.640625 231.226563 L 169.773438 229.324219 L 170.515625 227.570313 L 172.046875 225.144531 L 172.484375 223.304688 L 172.292969 221.402344 Z M 177.226563 302.488281 L 175.527344 303.355469 L 173.640625 303.625 L 171.765625 303.269531 L 170.105469 302.328125 L 168.84375 300.902344 L 168.695313 300.546875 L 169.164063 299.058594 L 174.074219 288.722656 L 176.464844 286.417969 L 178.757813 285.980469 L 180.191406 286.804688 L 180.425781 286.777344 L 180.765625 286.972656 L 182.03125 288.40625 L 182.757813 290.175781 L 182.875 292.082031 L 182.367188 293.925781 L 181.546875 295.703125 L 181.128906 297.746094 L 180.335938 299.710938 L 178.886719 301.261719 Z M 177.226563 302.488281 "/>
<path style=" stroke:none;fill-rule:nonzero;fill:rgb(80.392157%,58.431373%,4.705882%);fill-opacity:1;" d="M 247.152344 366.371094 L 246.871094 368.167969 L 246.042969 369.789063 L 244.757813 371.074219 L 243.136719 371.898438 L 241.339844 372.183594 L 239.542969 371.898438 L 237.921875 371.074219 L 236.632813 369.789063 L 235.808594 368.167969 L 235.523438 366.371094 L 235.808594 364.570313 L 236.632813 362.949219 L 237.921875 361.664063 L 239.542969 360.839844 L 241.339844 360.554688 L 243.136719 360.839844 L 244.757813 361.664063 L 246.042969 362.949219 L 246.871094 364.570313 Z M 247.152344 366.371094 "/>
<path style=" stroke:none;fill-rule:nonzero;fill:rgb(80.392157%,58.431373%,4.705882%);fill-opacity:1;" d="M 227.769531 378 L 227.484375 379.796875 L 226.660156 381.417969 L 225.371094 382.703125 L 223.75 383.53125 L 221.953125 383.816406 L 220.15625 383.53125 L 218.535156 382.703125 L 217.25 381.417969 L 216.421875 379.796875 L 216.136719 378 L 216.421875 376.203125 L 217.25 374.582031 L 218.535156 373.296875 L 220.15625 372.46875 L 221.953125 372.183594 L 223.75 372.46875 L 225.371094 373.296875 L 226.660156 374.582031 L 227.484375 376.203125 Z M 227.769531 378 "/>
<path style=" stroke:none;fill-rule:nonzero;fill:rgb(80.392157%,58.431373%,4.705882%);fill-opacity:1;" d="M 192.875 385.753906 L 192.59375 387.550781 L 191.765625 389.171875 L 190.480469 390.457031 L 188.859375 391.285156 L 187.0625 391.570313 L 185.265625 391.285156 L 183.644531 390.457031 L 182.355469 389.171875 L 181.53125 387.550781 L 181.246094 385.753906 L 181.53125 383.957031 L 182.355469 382.335938 L 183.644531 381.050781 L 185.265625 380.222656 L 187.0625 379.9375 L 188.859375 380.222656 L 190.480469 381.050781 L 191.765625 382.335938 L 192.59375 383.957031 Z M 192.875 385.753906 "/>
<path style=" stroke:none;fill-rule:nonzero;fill:rgb(80.392157%,58.431373%,4.705882%);fill-opacity:1;" d="M 216.136719 401.261719 L 215.855469 403.058594 L 215.027344 404.679688 L 213.742188 405.964844 L 212.121094 406.792969 L 210.324219 407.078125 L 208.527344 406.792969 L 206.90625 405.964844 L 205.617188 404.679688 L 204.792969 403.058594 L 204.507813 401.261719 L 204.792969 399.464844 L 205.617188 397.84375 L 206.90625 396.558594 L 208.527344 395.730469 L 210.324219 395.445313 L 212.121094 395.730469 L 213.742188 396.558594 L 215.027344 397.84375 L 215.855469 399.464844 Z M 216.136719 401.261719 "/>
<path style=" stroke:none;fill-rule:nonzero;fill:rgb(80.392157%,58.431373%,4.705882%);fill-opacity:1;" d="M 216.136719 424.523438 L 215.855469 426.320313 L 215.027344 427.941406 L 213.742188 429.226563 L 212.121094 430.054688 L 210.324219 430.339844 L 208.527344 430.054688 L 206.90625 429.226563 L 205.617188 427.941406 L 204.792969 426.320313 L 204.507813 424.523438 L 204.792969 422.726563 L 205.617188 421.105469 L 206.90625 419.816406 L 208.527344 418.992188 L 210.324219 418.707031 L 212.121094 418.992188 L 213.742188 419.816406 L 215.027344 421.105469 L 215.855469 422.726563 Z M 216.136719 424.523438 "/>
<path style=" stroke:none;fill-rule:nonzero;fill:rgb(80.392157%,58.431373%,4.705882%);fill-opacity:1;" d="M 297.554688 385.753906 L 297.269531 387.550781 L 296.441406 389.171875 L 295.15625 390.457031 L 293.535156 391.285156 L 291.738281 391.570313 L 289.941406 391.285156 L 288.320313 390.457031 L 287.035156 389.171875 L 286.207031 387.550781 L 285.921875 385.753906 L 286.207031 383.957031 L 287.035156 382.335938 L 288.320313 381.050781 L 289.941406 380.222656 L 291.738281 379.9375 L 293.535156 380.222656 L 295.15625 381.050781 L 296.441406 382.335938 L 297.269531 383.957031 Z M 297.554688 385.753906 "/>
<path style=" stroke:none;fill-rule:nonzero;fill:rgb(80.392157%,58.431373%,4.705882%);fill-opacity:1;" d="M 185.125 428.398438 L 184.839844 430.195313 L 184.011719 431.816406 L 182.726563 433.101563 L 182.441406 433.0625 L 180.699219 433.996094 L 179.308594 434.214844 L 177.511719 433.929688 L 175.890625 433.105469 L 174.601563 431.816406 L 173.777344 430.195313 L 173.492188 428.398438 L 173.777344 426.601563 L 174.601563 424.980469 L 175.890625 423.695313 L 177.511719 422.871094 L 179.308594 422.585938 L 181.105469 422.871094 L 182.726563 423.695313 L 184.011719 424.980469 L 184.839844 426.601563 Z M 185.125 428.398438 "/>
<path style=" stroke:none;fill-rule:nonzero;fill:rgb(80.392157%,58.431373%,4.705882%);fill-opacity:1;" d="M 275.3125 462.65625 L 274.578125 461.210938 L 274.292969 459.414063 L 274.578125 457.617188 L 275.402344 455.996094 L 276.691406 454.710938 L 278.3125 453.882813 L 280.109375 453.601563 L 281.90625 453.882813 L 283.527344 454.710938 L 284.8125 455.996094 L 285.636719 457.617188 L 285.730469 458.199219 L 284.1875 457.9375 L 281.042969 460.90625 L 278.484375 461.933594 Z M 275.3125 462.65625 "/>
<path style=" stroke:none;fill-rule:nonzero;fill:rgb(80.392157%,58.431373%,4.705882%);fill-opacity:1;" d="M 228.871094 49.484375 L 227.628906 50.117188 L 225.832031 50.398438 L 224.035156 50.117188 L 222.414063 49.289063 L 221.125 48.003906 L 220.300781 46.382813 L 220.015625 44.585938 L 220.300781 42.789063 L 220.425781 42.542969 L 220.816406 42.097656 L 223.226563 40.707031 L 223.542969 41.710938 L 223.417969 46.992188 L 223.628906 47.851563 L 228.960938 48.949219 Z M 226.5625 38.886719 L 227.628906 39.054688 L 229.25 39.878906 L 229.917969 40.546875 L 229.175781 46.582031 L 227.496094 47.179688 L 226.742188 47.023438 L 226.078125 45.398438 L 225.789063 41.242188 Z M 226.5625 38.886719 "/>
<path style=" stroke:none;fill-rule:nonzero;fill:rgb(80.392157%,58.431373%,4.705882%);fill-opacity:1;" d="M 231.945313 472.726563 L 231.789063 472.699219 L 230.167969 471.875 L 228.878906 470.585938 L 228.054688 468.964844 L 227.769531 467.167969 L 227.871094 466.515625 L 232.550781 467.761719 L 234.171875 469.894531 Z M 228.011719 465.640625 L 228.054688 465.371094 L 228.878906 463.75 L 230.167969 462.464844 L 231.789063 461.636719 L 233.585938 461.355469 L 235.382813 461.636719 L 237.003906 462.464844 L 238.289063 463.75 L 238.367188 463.90625 L 237.714844 463.296875 L 231.496094 463.171875 L 231.378906 463.496094 L 232.574219 464.835938 L 232.214844 465.75 L 231.738281 466.042969 Z M 239.027344 465.199219 L 239.117188 465.371094 L 239.359375 466.90625 L 238.210938 466.1875 L 238.632813 465.4375 Z M 236.835938 466.113281 L 235.136719 465.644531 L 236.523438 463.683594 L 237.195313 464.164063 L 237.5 465.839844 Z M 236.835938 466.113281 "/>
<path style=" stroke:none;fill-rule:nonzero;fill:rgb(80.392157%,58.431373%,4.705882%);fill-opacity:1;" d="M 188.65625 119.652344 L 187.519531 119.074219 L 186.859375 118.414063 L 188.300781 118.292969 L 188.792969 119.078125 Z M 185.179688 114.011719 L 185.40625 112.570313 L 186.234375 110.949219 L 186.929688 110.253906 L 187.324219 111.371094 L 189.425781 112.382813 L 190.734375 113.441406 L 191.546875 114.902344 L 189.996094 116.5625 L 186.777344 113.90625 Z M 185.179688 114.011719 "/>
<path style=" stroke:none;fill-rule:nonzero;fill:rgb(80.392157%,58.431373%,4.705882%);fill-opacity:1;" d="M 189.382813 100.847656 L 189.285156 100.660156 L 189.007813 98.90625 L 189.644531 99.757813 L 189.558594 100.558594 Z M 193.226563 103.421875 L 193.136719 102.113281 L 195.332031 98.847656 L 196.15625 98.316406 L 199.542969 97.917969 L 199.804688 99.347656 L 197.464844 100.832031 L 194.695313 101.191406 Z M 193.226563 103.421875 "/>
<path style=" stroke:none;fill-rule:nonzero;fill:rgb(80.392157%,58.431373%,4.705882%);fill-opacity:1;" d="M 80.410156 190.308594 L 80.554688 190.378906 L 81.117188 190.9375 L 81.808594 193.710938 L 80.203125 195.140625 L 79.542969 195.171875 L 77.601563 194.722656 L 77.417969 194.15625 Z M 80.410156 190.308594 "/>
</g>
</svg>
