<?xml version="1.0" encoding="UTF-8"?>
<svg xmlns="http://www.w3.org/2000/svg" xmlns:xlink="http://www.w3.org/1999/xlink" width="378pt" height="504pt" viewBox="0 0 378 504" version="1.1">
<g id="data">
<rect x="0" y="0" width="378" height="504" style="fill:rgb(100%,100%,100%);fill-opacity:1;stroke:none;"/>
<path style=" stroke:none;fill-rule:nonzero;fill:rgb(100%,100%,100%);fill-opacity:1;" d="M 53.308594 504 L 324.691406 504 L 324.691406 0 L 53.308594 0 Z M 53.308594 504 "/>
<path style=" stroke:none;fill-rule:nonzero;fill:rgb(22.745098%,53.333333%,16.078431%);fill-opacity:1;" d="M 252.96875 443.90625 L 255.546875 442.769531 L 257.773438 441.046875 L 259.519531 438.839844 L 260.722656 436.152344 L 261.097656 438.277344 L 261.914063 440.40625 L 263.128906 442.335938 L 264.601563 443.90625 Z M 235.632813 336.847656 L 238.519531 336.484375 L 241.339844 335.355469 L 245.214844 335.355469 L 242.488281 336.738281 L 240.21875 338.785156 L 238.507813 341.46875 L 237.605469 344.386719 L 237.097656 340.214844 Z M 214.199219 284.953125 L 216.910156 284.402344 L 219.304688 283.292969 L 216.234375 287.730469 L 215.457031 289.90625 L 215.132813 292.066406 L 215.234375 294.375 L 215.75 296.496094 L 216.714844 298.59375 L 218.078125 300.460938 L 218.078125 304.339844 L 214.199219 303.671875 L 210.324219 304.339844 L 212.519531 300.734375 L 213.285156 296.585938 L 212.519531 292.433594 L 210.324219 288.832031 L 212.492188 287.125 Z M 198.660156 375.007813 L 198.691406 374.125 L 200.9375 373.714844 L 202.945313 372.933594 L 204.875 371.71875 L 206.445313 370.246094 L 207.808594 373.355469 L 209.914063 375.855469 L 206.445313 378 L 202.890625 375.804688 L 200.8125 375.207031 Z M 167.675781 172.523438 L 169.847656 170.816406 L 170.53125 169.945313 L 171.554688 169.839844 L 173.152344 168.644531 L 183.183594 168.644531 L 183.191406 168.648438 L 184.320313 169.011719 L 184.550781 168.878906 L 187.0625 169.3125 L 190.9375 168.644531 L 194.816406 168.644531 L 193.34375 170.21875 L 192.128906 172.148438 L 191.347656 174.15625 L 190.9375 176.398438 L 188.820313 175.472656 L 186.691406 174.996094 L 184.507813 174.925781 L 182.351563 175.269531 L 180.296875 176.003906 L 178.414063 177.113281 L 176.773438 178.554688 L 175.429688 180.277344 L 174.292969 177.703125 L 172.570313 175.472656 L 170.363281 173.726563 Z M 176.453125 216.492188 L 179.664063 219.011719 L 183.421875 220.246094 L 187.375 220.152344 L 191.175781 218.671875 L 190.054688 220.015625 L 185.519531 221.085938 L 182.847656 221.226563 L 178.070313 225.007813 L 178.359375 223.824219 L 178.019531 220 Z M 188.738281 221.769531 L 187.660156 223.949219 L 186.949219 227.671875 L 187.0625 230.675781 L 183.183594 230.675781 L 179.308594 230.011719 L 175.429688 230.675781 L 177.484375 227.433594 L 177.960938 225.464844 L 178.117188 225.714844 L 179.84375 225.195313 L 184.609375 222.886719 L 186.457031 221.386719 L 187.289063 221.316406 Z M 173.769531 297.8125 L 174.878906 295.417969 L 175.429688 292.707031 L 177.089844 291.480469 L 175.945313 293.996094 L 175.429688 296.585938 Z M 173.769531 297.8125 "/>
<path style=" stroke:none;fill-rule:nonzero;fill:rgb(80.392157%,58.431373%,4.705882%);fill-opacity:1;" d="M 231.644531 331.476563 L 231.363281 333.273438 L 230.535156 334.894531 L 229.25 336.183594 L 227.628906 337.007813 L 225.832031 337.292969 L 224.035156 337.007813 L 222.414063 336.183594 L 221.125 334.894531 L 220.300781 333.273438 L 220.015625 331.476563 L 220.300781 329.679688 L 221.125 328.058594 L 222.414063 326.773438 L 224.035156 325.945313 L 225.832031 325.660156 L 227.628906 325.945313 L 229.25 326.773438 L 230.535156 328.058594 L 231.363281 329.679688 Z M 231.644531 331.476563 "/>
<path style=" stroke:none;fill-rule:nonzero;fill:rgb(80.392157%,58.431373%,4.705882%);fill-opacity:1;" d="M 247.152344 366.371094 L 246.871094 368.167969 L 246.042969 369.789063 L 244.757813 371.074219 L 243.136719 371.898438 L 241.339844 372.183594 L 239.542969 371.898438 L 237.921875 371.074219 L 236.632813 369.789063 L 235.808594 368.167969 L 235.523438 366.371094 L 235.808594 364.570313 L 236.632813 362.949219 L 237.921875 361.664063 L 239.542969 360.839844 L 241.339844 360.554688 L 243.136719 360.839844 L 244.757813 361.664063 L 246.042969 362.949219 L 246.871094 364.570313 Z M 247.152344 366.371094 "/>
<path style=" stroke:none;fill-rule:nonzero;fill:rgb(80.392157%,58.431373%,4.705882%);fill-opacity:1;" d="M 192.875 385.753906 L 192.59375 387.550781 L 191.765625 389.171875 L 190.480469 390.457031 L 188.859375 391.285156 L 187.0625 391.570313 L 185.265625 391.285156 L 183.644531 390.457031 L 182.355469 389.171875 L 181.53125 387.550781 L 181.246094 385.753906 L 181.53125 383.957031 L 182.355469 382.335938 L 183.644531 381.050781 L 185.265625 380.222656 L 187.0625 379.9375 L 188.859375 380.222656 L 190.480469 381.050781 L 191.765625 382.335938 L 192.59375 383.957031 Z M 192.875 385.753906 "/>
<path style=" stroke:none;fill-rule:nonzero;fill:rgb(80.392157%,58.431373%,4.705882%);fill-opacity:1;" d="M 227.769531 378 L 227.484375 379.796875 L 226.660156 381.417969 L 225.371094 382.703125 L 223.75 383.53125 L 221.953125 383.816406 L 220.15625 383.53125 L 218.535156 382.703125 L 217.25 381.417969 L 216.421875 379.796875 L 216.136719 378 L 216.421875 376.203125 L 217.25 374.582031 L 218.535156 373.296875 L 220.15625 372.46875 L 221.953125 372.183594 L 223.75 372.46875 L 225.371094 373.296875 L 226.660156 374.582031 L 227.484375 376.203125 Z M 227.769531 378 "/>
<path style=" stroke:none;fill-rule:nonzero;fill:rgb(80.392157%,58.431373%,4.705882%);fill-opacity:1;" d="M 216.136719 401.261719 L 215.855469 403.058594 L 215.027344 404.679688 L 213.742188 405.964844 L 212.121094 406.792969 L 210.324219 407.078125 L 208.527344 406.792969 L 206.90625 405.964844 L 205.617188 404.679688 L 204.792969 403.058594 L 204.507813 401.261719 L 204.792969 399.464844 L 205.617188 397.84375 L 206.90625 396.558594 L 208.527344 395.730469 L 210.324219 395.445313 L 212.121094 395.730469 L 213.742188 396.558594 L 215.027344 397.84375 L 215.855469 399.464844 Z M 216.136719 401.261719 "/>
<path style=" stroke:none;fill-rule:nonzero;fill:rgb(80.392157%,58.431373%,4.705882%);fill-opacity:1;" d="M 216.136719 424.523438 L 215.855469 426.320313 L 215.027344 427.941406 L 213.742188 429.226563 L 212.121094 430.054688 L 210.324219 430.339844 L 208.527344 430.054688 L 206.90625 429.226563 L 205.617188 427.941406 L 204.792969 426.320313 L 204.507813 424.523438 L 204.792969 422.726563 L 205.617188 421.105469 L 206.90625 419.816406 L 208.527344 418.992188 L 210.324219 418.707031 L 212.121094 418.992188 L 213.742188 419.816406 L 215.027344 421.105469 L 215.855469 422.726563 Z M 216.136719 424.523438 "/>
<path style=" stroke:none;fill-rule:nonzero;fill:rgb(80.392157%,58.431373%,4.705882%);fill-opacity:1;" d="M 297.554688 385.753906 L 297.269531 387.550781 L 296.441406 389.171875 L 295.15625 390.457031 L 293.535156 391.285156 L 291.738281 391.570313 L 289.941406 391.285156 L 288.320313 390.457031 L 287.035156 389.171875 L 286.207031 387.550781 L 285.921875 385.753906 L 286.207031 383.957031 L 287.035156 382.335938 L 288.320313 381.050781 L 289.941406 380.222656 L 291.738281 379.9375 L 293.535156 380.222656 L 295.15625 381.050781 L 296.441406 382.335938 L 297.269531 383.957031 Z M 297.554688 385.753906 "/>
<path style=" stroke:none;fill-rule:nonzero;fill:rgb(80.392157%,58.431373%,4.705882%);fill-opacity:1;" d="M 185.125 428.398438 L 184.839844 430.195313 L 184.011719 431.816406 L 182.726563 433.101563 L 180.699219 433.996094 L 179.308594 434.214844 L 177.511719 433.929688 L 175.890625 433.105469 L 174.601563 431.816406 L 173.777344 430.195313 L 173.492188 428.398438 L 173.777344 426.601563 L 174.601563 424.980469 L 175.890625 423.695313 L 177.511719 422.871094 L 179.308594 422.585938 L 181.105469 422.871094 L 182.726563 423.695313 L 184.011719 424.980469 L 184.839844 426.601563 Z M 185.125 428.398438 "/>
<path style=" stroke:none;fill-rule:nonzero;fill:rgb(80.392157%,58.431373%,4.705882%);fill-opacity:1;" d="M 189 284.953125 L 188.714844 286.75 L 187.890625 288.371094 L 186.601563 289.660156 L 184.980469 290.484375 L 183.183594 290.769531 L 181.386719 290.484375 L 179.765625 289.660156 L 178.480469 288.371094 L 177.566406 286.207031 L 178.757813 285.980469 L 180.191406 286.804688 L 181.015625 286.710938 L 182.933594 286.238281 L 183.03125 285.160156 L 182.34375 284.746094 L 180.035156 285.351563 L 177.402344 285.171875 L 177.371094 284.953125 L 177.652344 283.15625 L 178.480469 281.535156 L 179.765625 280.25 L 181.386719 279.421875 L 183.183594 279.136719 L 184.980469 279.421875 L 186.601563 280.25 L 187.890625 281.535156 L 188.714844 283.15625 Z M 189 284.953125 "/>
<path style=" stroke:none;fill-rule:nonzero;fill:rgb(80.392157%,58.431373%,4.705882%);fill-opacity:1;" d="M 275.3125 462.65625 L 274.578125 461.210938 L 274.292969 459.414063 L 274.578125 457.617188 L 275.402344 455.996094 L 276.691406 454.710938 L 278.3125 453.882813 L 280.109375 453.601563 L 281.90625 453.882813 L 283.527344 454.710938 L 284.8125 455.996094 L 285.730469 458.199219 L 284.1875 457.9375 L 281.042969 460.90625 L 278.484375 461.933594 Z M 275.3125 462.65625 "/>
<path style=" stroke:none;fill-rule:nonzero;fill:rgb(80.392157%,58.431373%,4.705882%);fill-opacity:1;" d="M 226.5625 38.886719 L 227.628906 39.054688 L 229.25 39.878906 L 229.917969 40.546875 L 229.175781 46.582031 L 227.496094 47.179688 L 226.742188 47.023438 L 226.078125 45.398438 L 225.789063 41.242188 Z M 228.871094 49.484375 L 227.628906 50.117188 L 225.832031 50.398438 L 224.035156 50.117188 L 222.414063 49.289063 L 221.125 48.003906 L 220.300781 46.382813 L 220.015625 44.585938 L 220.425781 42.542969 L 223.226563 40.707031 L 223.542969 41.710938 L 223.417969 46.992188 L 223.628906 47.851563 L 228.960938 48.949219 Z M 228.871094 49.484375 "/>
<path style=" stroke:none;fill-rule:nonzero;fill:rgb(80.392157%,58.431373%,4.705882%);fill-opacity:1;" d="M 239.027344 465.199219 L 239.359375 466.90625 L 238.210938 466.1875 Z M 228.011719 465.640625 L 228.878906 463.75 L 230.167969 462.464844 L 231.789063 461.636719 L 233.585938 461.355469 L 235.382813 461.636719 L 237.003906 462.464844 L 238.367188 463.90625 L 237.714844 463.296875 L 231.496094 463.171875 L 231.378906 463.496094 L 232.574219 464.835938 L 232.214844 465.75 L 231.738281 466.042969 Z M 236.835938 466.113281 L 235.136719 465.644531 L 236.523438 463.683594 L 237.195313 464.164063 L 237.5 465.839844 Z M 231.945313 472.726563 L 230.167969 471.875 L 228.878906 470.585938 L 228.054688 468.964844 L 227.871094 466.515625 L 232.550781 467.761719 L 234.171875 469.894531 Z M 231.945313 472.726563 "/>
<path style=" stroke:none;fill-rule:nonzero;fill:rgb(80.392157%,58.431373%,4.705882%);fill-opacity:1;" d="M 185.179688 114.011719 L 185.40625 112.570313 L 186.234375 110.949219 L 186.929688 110.253906 L 187.324219 111.371094 L 189.425781 112.382813 L 190.734375 113.441406 L 191.546875 114.902344 L 189.996094 116.5625 L 186.777344 113.90625 Z M 188.65625 119.652344 L 186.859375 118.414063 L 188.300781 118.292969 L 188.792969 119.078125 Z M 188.65625 119.652344 "/>
<path style=" stroke:none;fill-rule:nonzero;fill:rgb(80.392157%,58.431373%,4.705882%);fill-opacity:1;" d="M 193.226563 103.421875 L 193.136719 102.113281 L 195.332031 98.847656 L 196.15625 98.316406 L 199.542969 97.917969 L 199.804688 99.347656 L 197.464844 100.832031 L 194.695313 101.191406 Z M 189.382813 100.847656 L 189.007813 98.90625 L 189.644531 99.757813 Z M 189.382813 100.847656 "/>
<path style=" stroke:none;fill-rule:nonzero;fill:rgb(80.392157%,58.431373%,4.705882%);fill-opacity:1;" d="M 80.410156 190.308594 L 81.117188 190.9375 L 81.808594 193.710938 L 80.203125 195.140625 L 77.601563 194.722656 L 77.417969 194.15625 Z M 80.410156 190.308594 "/>
</g>
</svg>
