<?xml version="1.0" encoding="UTF-8"?>
<svg xmlns="http://www.w3.org/2000/svg" xmlns:xlink="http://www.w3.org/1999/xlink" width="378pt" height="504pt" viewBox="0 0 378 504" version="1.1">
<g id="data">
<rect x="0" y="0" width="378" height="504" style="fill:rgb(100%,100%,100%);fill-opacity:1;stroke:none;"/>
<path style=" stroke:none;fill-rule:nonzero;fill:rgb(100%,100%,100%);fill-opacity:1;" d="M 53.308594 504 L 324.691406 504 L 324.691406 0 L 53.308594 0 Z M 53.308594 504 "/>
<path style=" stroke:none;fill-rule:nonzero;fill:rgb(22.745098%,53.333333%,16.078431%);fill-opacity:1;" d="M 299.492188 378 L 299.875 381.679688 L 301.460938 385.164063 L 303.996094 387.863281 L 307.074219 389.535156 L 307.179688 391.25 L 306.777344 393.191406 L 306.890625 393.976563 L 305.789063 396.917969 L 305.164063 399.925781 L 304.558594 400.886719 L 303.742188 403.015625 L 303.371094 405.136719 L 300.042969 405.914063 L 296.988281 407.699219 L 293.914063 410.890625 L 293.820313 411.082031 L 292.742188 410.515625 L 292.480469 410.636719 L 293.230469 412.257813 L 292.21875 414.28125 L 291.605469 417.890625 L 291.738281 420.644531 L 291.1875 421.457031 L 290.003906 421.65625 L 289.660156 421.574219 L 288.214844 419.332031 L 284.976563 421.730469 L 280.71875 424.230469 L 282.339844 425.378906 L 285.105469 424.398438 L 286.097656 423.375 L 286.894531 423.164063 L 287.328125 423.710938 L 287.632813 428.84375 L 285.6875 430.875 L 283.441406 432.558594 L 282.84375 432.699219 L 279.644531 432.160156 L 274.75 433.78125 L 272.609375 436.117188 L 274.253906 436.015625 L 275.152344 434.667969 L 276.683594 434.363281 L 278.285156 434.328125 L 281.054688 434.949219 L 281.828125 435.589844 L 281.691406 436.328125 L 279.554688 436.347656 L 277.390625 437.65625 L 277.96875 438.546875 L 281.382813 438.964844 L 286.863281 440.339844 L 289.394531 439.9375 L 291.074219 438.957031 L 294.738281 438.449219 L 295.890625 439.164063 L 299.492188 440.03125 L 299.492188 447.785156 L 297.320313 449.492188 L 296.707031 450.273438 L 295.839844 450.375 L 292.621094 451.640625 L 291.179688 452.742188 L 289.847656 454.226563 L 289.460938 455.09375 L 289.214844 456.324219 L 289.242188 456.503906 L 289.066406 456.730469 L 288.492188 458.007813 L 286.253906 458.289063 L 284.1875 457.9375 L 282.46875 459.558594 L 280.832031 459.9375 L 278.375 461.292969 L 277.429688 462.171875 L 274.789063 462.777344 L 272.597656 463.816406 L 272.097656 464.492188 L 271.308594 464.84375 L 269.015625 466.726563 L 259.269531 463.777344 L 258.640625 463.726563 L 257.601563 463.378906 L 247.089844 463.128906 L 243.835938 463.488281 L 240.515625 464.71875 L 238.476563 466.355469 L 238.210938 466.1875 L 238.632813 465.4375 L 239.46875 464.933594 L 237.714844 463.296875 L 231.496094 463.171875 L 231.378906 463.496094 L 232.574219 464.835938 L 232.214844 465.75 L 231.738281 466.042969 L 226.691406 465.496094 L 219.566406 468.449219 L 217.054688 467.824219 L 210.222656 468.96875 L 208.164063 468.875 L 207.273438 468.058594 L 206.238281 469.769531 L 209.429688 471.089844 L 209.714844 470.9375 L 210.1875 472.128906 L 209.566406 473.890625 L 206.84375 474.453125 L 204.453125 473.097656 L 203.015625 472.699219 L 197.625 472.007813 L 196.175781 472.65625 L 195.679688 473.863281 L 195.832031 474.871094 L 196.757813 475.523438 L 196.488281 476.304688 L 195.917969 475.996094 L 194.851563 473.972656 L 190.941406 471.070313 L 190.109375 470.316406 L 188.011719 469.085938 L 185.574219 468.296875 L 183.828125 468.121094 L 183.121094 467.984375 L 183.003906 468.070313 L 180.609375 468.351563 L 177.847656 469.367188 L 177.5 469.609375 L 176.207031 469.78125 L 174.339844 470.335938 L 168.992188 473.234375 L 168.214844 474.070313 L 167.910156 474.703125 L 167.675781 474.921875 L 164.589844 475.609375 L 161.699219 477.171875 L 159.105469 479.597656 L 157.664063 481.523438 L 156.566406 483.945313 L 156.058594 486.492188 L 154.683594 485.4375 L 153.613281 485.542969 L 152.417969 486.300781 L 151.738281 486.164063 L 148.46875 482.535156 L 145.101563 482.785156 L 144.921875 482.730469 L 142.539063 482.515625 L 138.617188 482.726563 L 134.703125 483.875 L 133.675781 484.511719 L 132.167969 484.859375 L 129.414063 488.195313 L 126.714844 489.746094 L 124.039063 490.597656 L 123.132813 494.289063 L 123.199219 494.414063 L 122.226563 495.71875 L 121.511719 497.359375 L 120.660156 497.648438 L 120.394531 498.183594 L 118.253906 498.183594 L 117.96875 497.691406 L 118.09375 496.4375 L 117.15625 494.691406 L 115.984375 493.691406 L 112.253906 492.070313 L 111.496094 491.992188 L 111.328125 491.789063 L 109.523438 490.429688 L 111.699219 490.226563 L 113.914063 489.570313 L 115.957031 488.488281 L 117.746094 487.023438 L 119.210938 485.234375 L 119.449219 484.789063 L 121.425781 483.085938 L 124.375 479.769531 L 125.210938 477.886719 L 124.875 476.421875 L 125.464844 474.949219 L 127.535156 475.070313 L 132.355469 474.605469 L 135.109375 473.542969 L 137.507813 471.820313 L 139.597656 469.21875 L 140.894531 466.007813 L 141.195313 462.6875 L 140.539063 459.414063 L 143.113281 458.277344 L 145.339844 456.554688 L 147.089844 454.347656 L 147.425781 453.597656 L 148.429688 452.488281 L 148.375 451.644531 L 150.929688 451.148438 L 153.492188 449.976563 L 155.695313 448.222656 L 157.210938 446.28125 L 157.421875 446.269531 L 159.910156 445.683594 L 164.597656 446.761719 L 166.046875 446.148438 L 167.527344 446.515625 L 169.484375 447.285156 L 170.039063 448.109375 L 170.757813 448.421875 L 173.15625 448.464844 L 180.570313 447.503906 L 181.109375 445.632813 L 181.210938 443.15625 L 182.519531 440.25 L 190.867188 432.195313 L 195.792969 425.3125 L 197.929688 424.472656 L 198.285156 423.78125 L 198.070313 423.238281 L 197.8125 423.082031 L 196.09375 424.355469 L 192.90625 427.300781 L 190.570313 429.988281 L 189.222656 431.449219 L 185.628906 432.957031 L 183.714844 433.246094 L 182.441406 433.0625 L 178.394531 435.230469 L 177.398438 436.808594 L 177.039063 438.671875 L 176.445313 439.273438 L 174.058594 439.917969 L 170.558594 439.851563 L 166.820313 439 L 166.347656 438.652344 L 161.371094 433.375 L 159.03125 429.199219 L 155.65625 429.589844 L 153.855469 430.355469 L 151.140625 429 L 150.296875 428.820313 L 151.640625 428.421875 L 152.765625 427.832031 L 152.808594 427.738281 L 153.09375 427.664063 L 155.269531 426.5625 L 157.261719 424.9375 L 159.234375 422.246094 L 160.335938 419.234375 L 160.570313 416.035156 L 159.921875 412.890625 L 162.5625 412.378906 L 165.121094 411.207031 L 167.324219 409.457031 L 168.976563 407.335938 L 170.246094 404.398438 L 170.667969 401.230469 L 169.882813 397.09375 L 167.675781 393.507813 L 168.613281 390.632813 L 168.777344 387.609375 L 173.839844 384.597656 L 175.636719 383.148438 L 177.523438 380.726563 L 178.710938 377.890625 L 179.113281 374.84375 L 178.667969 371.675781 L 177.445313 368.855469 L 175.429688 366.371094 L 174.988281 364.003906 L 174.125 361.890625 L 172.789063 359.890625 L 170.582031 357.640625 L 169.351563 356.746094 L 172.597656 355.179688 L 173.933594 355.046875 L 174.484375 355.082031 L 179.910156 359.441406 L 180.433594 358.429688 L 177.679688 353.460938 L 178.242188 352.835938 L 180.867188 352.449219 L 181.503906 352.695313 L 181.914063 353.875 L 182.898438 354.332031 L 184.078125 356.789063 L 185.613281 357.902344 L 188.359375 357.621094 L 190.335938 355.148438 L 189.90625 355.050781 L 188.667969 355.527344 L 188.3125 355.957031 L 186.378906 356.386719 L 183.8125 354.640625 L 181.28125 349.160156 L 182.617188 347.667969 L 184.058594 344.804688 L 184.664063 341.65625 L 184.484375 339.585938 L 185.429688 339.015625 L 185.140625 338.578125 L 184.394531 338.542969 L 184.386719 338.460938 L 183.183594 335.355469 L 185.789063 333.191406 L 189.691406 328.089844 L 190.789063 324.855469 L 191.21875 321.957031 L 191.1875 319.785156 L 190.636719 317.292969 L 189.554688 314.984375 L 188.171875 313.148438 L 185.785156 310.859375 L 182.75 309.039063 L 179.308594 308.214844 L 177.21875 304.566406 L 174.078125 301.960938 L 170.984375 300.75 L 168.695313 300.550781 L 169.164063 299.058594 L 174.074219 288.722656 L 174.6875 288.128906 L 176.84375 288.996094 L 180.027344 289.355469 L 183.183594 288.832031 L 184.320313 291.40625 L 186.046875 293.632813 L 188.253906 295.382813 L 190.9375 296.585938 L 190.625 299.246094 L 190.953125 302.03125 L 191.945313 304.65625 L 193.449219 306.875 L 195.503906 308.789063 L 197.578125 310.066406 L 199.996094 310.910156 L 202.539063 311.207031 L 205.832031 310.75 L 208.859375 309.382813 L 211.378906 307.210938 L 213.179688 304.417969 L 214.132813 301.097656 L 214.199219 296.585938 L 216.652344 293.53125 L 217.929688 289.960938 L 218.234375 287.207031 L 218.078125 284.953125 L 218.742188 281.203125 L 218.078125 277.199219 L 219.785156 279.371094 L 221.335938 280.589844 L 221.785156 281.527344 L 220.699219 284.4375 L 220.523438 288.019531 L 221.453125 291.484375 L 223.390625 294.503906 L 227.203125 297.898438 L 228.996094 299.097656 L 231.21875 300.019531 L 231.441406 300.058594 L 234.945313 301.695313 L 235.460938 302.164063 L 237.777344 303.46875 L 239.8125 303.964844 L 241.527344 304.765625 L 242.476563 306.914063 L 244.199219 309.140625 L 246.515625 310.953125 L 247.621094 311.441406 L 249.09375 315.21875 L 249.09375 319.847656 L 248.78125 322.890625 L 249.617188 326.875 L 251.042969 329.433594 L 254.242188 333.191406 L 256.847656 335.355469 L 258.824219 337.785156 L 260.722656 339.230469 L 260.664063 342.089844 L 260.445313 342 L 258.378906 342.789063 L 257.507813 342.753906 L 256.035156 341.773438 L 253.664063 338.65625 L 252.601563 338.082031 L 245.550781 339.511719 L 244.589844 338.644531 L 243.40625 338.558594 L 241.210938 339.871094 L 241.886719 340.445313 L 246.324219 340.394531 L 249.617188 339.34375 L 251.976563 339.082031 L 254.382813 342.558594 L 260.535156 347.621094 L 260.992188 347.882813 L 261.453125 350.191406 L 263.367188 353.464844 L 266.308594 356.910156 L 268.476563 358.617188 L 269.003906 362.808594 L 269.382813 363.707031 L 269.210938 365.21875 L 264.953125 369.09375 L 261.394531 373.164063 L 260.601563 374.816406 L 262.84375 374.3125 L 264.9375 375.519531 L 266.9375 378.226563 L 270.21875 378.804688 L 270.625 378.746094 L 271.910156 376.796875 L 272.234375 374.960938 L 273.40625 371.914063 L 274.707031 370.632813 L 276.808594 370.265625 L 278.148438 370.753906 L 281.097656 370.875 L 283.511719 370.347656 L 284.253906 370.867188 L 286.703125 370.742188 L 292.21875 371.332031 L 292.875 372.820313 L 294.597656 375.046875 L 296.808594 376.796875 Z M 233.632813 469.183594 L 233.519531 469.261719 L 231.1875 471.804688 L 230.039063 474.230469 L 229.960938 474.269531 L 229.152344 474.433594 L 227.519531 473.003906 L 224.921875 471.6875 L 222.890625 471.269531 L 222.296875 470.886719 L 221.546875 470.992188 L 220.695313 470.820313 L 220.515625 470.816406 L 221.476563 469.683594 L 227.316406 466.367188 L 232.550781 467.761719 Z M 149.125 428.574219 L 148.441406 428.433594 L 148.515625 428.390625 L 148.566406 428.386719 Z M 169.140625 285.285156 L 168.582031 284.433594 L 166.40625 282.449219 L 163.800781 281.078125 L 165.96875 279.371094 L 168.128906 276.777344 L 168.183594 279.214844 L 168.789063 281.707031 L 169.925781 284.003906 L 169.988281 284.078125 L 169.453125 284.03125 Z M 144.558594 259.082031 L 144.414063 253.9375 L 145.585938 251.101563 L 145.972656 248.058594 L 145.585938 245.144531 L 144.648438 242.871094 L 146.15625 243.175781 L 148.300781 243.253906 L 145.921875 242.308594 L 148.292969 242.308594 L 152.296875 242.972656 L 156.046875 242.308594 L 158.296875 242.464844 L 160.929688 242.179688 L 164.625 240.882813 L 166.730469 239.191406 L 166.738281 239.222656 L 168.246094 240.195313 L 178.0625 241.875 L 182.921875 243.167969 L 186.398438 241.730469 L 187.519531 239.417969 L 188.617188 238.355469 L 189.539063 238.171875 L 190.863281 238.292969 L 192.476563 241.816406 L 195.207031 244.695313 L 198.625 246.453125 L 202.558594 246.996094 L 205.847656 246.308594 L 206.417969 246.617188 L 206.292969 248.5625 L 206.703125 252.488281 L 207.457031 254.808594 L 208.757813 257.023438 L 210.613281 258.980469 L 212.867188 260.460938 L 215.398438 261.378906 L 218.078125 261.691406 L 216.25 264.433594 L 213.601563 262.238281 L 210.304688 260.878906 L 206.367188 260.621094 L 202.570313 261.691406 L 200.480469 260.203125 L 197.988281 259.171875 L 195.457031 258.75 L 192.894531 258.890625 L 189.722656 259.90625 L 187.0625 261.691406 L 184.710938 261.035156 L 182.273438 260.882813 L 179.859375 261.246094 L 177.574219 262.101563 L 175.515625 263.417969 L 173.78125 265.132813 L 172.4375 267.171875 L 171.554688 269.445313 L 171.847656 266.019531 L 171.121094 262.65625 L 169.75 260.066406 L 167.675781 257.816406 L 165.824219 254.175781 L 163.964844 252.234375 L 161.824219 250.828125 L 158.941406 249.761719 L 156.402344 249.394531 L 152.234375 250.023438 L 148.664063 252.015625 L 145.9375 255.234375 Z M 170.238281 238.128906 L 172.539063 237.363281 L 175.902344 235.023438 L 178.1875 231.78125 L 179.222656 228.210938 L 179.449219 225.3125 L 179.84375 225.195313 L 183.347656 223.496094 L 185.339844 223.386719 L 188.585938 222.339844 L 189.117188 222.003906 L 189.332031 222.921875 L 188.898438 224.691406 L 189.238281 225.953125 L 190.898438 226.824219 L 190.925781 226.828125 L 189.675781 230.007813 L 189.449219 232.730469 L 188.34375 232.882813 L 187.070313 232.078125 L 185.40625 232.042969 L 181.046875 235.800781 L 180.578125 237.003906 L 174.761719 240.109375 Z M 179.386719 223.96875 L 179.308594 222.921875 L 180.410156 223.15625 Z M 210.324219 172.523438 L 212.394531 172.523438 L 212.550781 172.800781 L 213.667969 176.570313 L 213.1875 176.726563 L 212.023438 174.519531 Z M 202.445313 200.648438 L 202.570313 203.539063 L 200.90625 204.765625 L 201.894531 202.722656 Z M 171.554688 172.523438 L 173.722656 170.816406 L 175.429688 168.644531 L 183.183594 168.644531 L 183.191406 168.648438 L 184.320313 169.011719 L 184.542969 168.886719 L 186.933594 169.3125 L 190.9375 168.644531 L 193.828125 168.769531 L 190.6875 169.773438 L 187.863281 171.707031 L 185.828125 173.796875 L 184.550781 175.6875 L 183.628906 177.910156 L 183.183594 180.277344 L 179.8125 181.804688 L 177.710938 178.382813 L 175.429688 176.398438 L 173.542969 174.054688 Z M 183.183594 106.617188 L 184.320313 109.191406 L 186.046875 111.417969 L 188.363281 113.230469 L 190.9375 114.371094 L 189.09375 115.820313 L 186.777344 113.90625 L 184.832031 114.03125 L 182.128906 115.011719 L 181.429688 114.742188 L 181.375 114.734375 L 179.308594 113.253906 L 179.308594 110.492188 L 181.476563 108.785156 Z M 148.292969 354.738281 L 150.691406 354.738281 L 151.039063 355.578125 L 154.957031 356.382813 L 154.429688 356.648438 L 152.167969 358.617188 L 150.460938 356.445313 Z M 286.679688 439.636719 L 283.058594 438.976563 L 282.164063 437.605469 L 282.484375 436.070313 L 286.839844 437.054688 L 287.960938 438.832031 Z M 236.835938 466.113281 L 235.136719 465.644531 L 236.523438 463.683594 L 237.195313 464.164063 L 237.5 465.839844 Z M 236.835938 466.113281 "/>
</g>
</svg>
