<?xml version="1.0" encoding="UTF-8"?>
<svg xmlns="http://www.w3.org/2000/svg" xmlns:xlink="http://www.w3.org/1999/xlink" width="378pt" height="504pt" viewBox="0 0 378 504" version="1.1">
<g id="data">
<rect x="0" y="0" width="378" height="504" style="fill:rgb(100%,100%,100%);fill-opacity:1;stroke:none;"/>
<path style=" stroke:none;fill-rule:nonzero;fill:rgb(100%,100%,100%);fill-opacity:1;" d="M 53.308594 504 L 324.691406 504 L 324.691406 0 L 53.308594 0 Z M 53.308594 504 "/>
<path style=" stroke:none;fill-rule:nonzero;fill:rgb(22.745098%,53.333333%,16.078431%);fill-opacity:1;" d="M 299.492188 378 L 299.875 381.679688 L 301.460938 385.164063 L 303.996094 387.863281 L 307.074219 389.535156 L 307.179688 391.25 L 306.777344 393.191406 L 306.890625 393.976563 L 305.789063 396.917969 L 305.160156 399.9375 L 304.445313 401.113281 L 303.371094 405.136719 L 300.519531 405.738281 L 298.015625 406.957031 L 295.0625 409.539063 L 293.832031 411.089844 L 292.742188 410.515625 L 292.480469 410.636719 L 293.175781 412.140625 L 292.515625 413.445313 L 291.910156 415.511719 L 291.585938 418.269531 L 291.738281 420.644531 L 291.160156 421.460938 L 290.003906 421.65625 L 289.660156 421.574219 L 288.214844 419.332031 L 284.976563 421.730469 L 280.71875 424.230469 L 282.339844 425.378906 L 285.105469 424.398438 L 286.097656 423.375 L 286.894531 423.164063 L 287.328125 423.710938 L 287.632813 428.84375 L 285.6875 430.875 L 283.441406 432.558594 L 282.84375 432.699219 L 279.644531 432.160156 L 274.75 433.78125 L 272.609375 436.117188 L 274.253906 436.015625 L 275.152344 434.667969 L 276.683594 434.363281 L 278.285156 434.328125 L 281.054688 434.949219 L 281.828125 435.589844 L 281.691406 436.328125 L 279.554688 436.347656 L 277.390625 437.65625 L 277.96875 438.546875 L 281.382813 438.964844 L 286.863281 440.339844 L 289.394531 439.9375 L 291.074219 438.957031 L 294.535156 438.476563 L 294.625 438.542969 L 296.976563 439.554688 L 299.492188 440.03125 L 299.492188 447.785156 L 296.617188 450.28125 L 295.839844 450.375 L 292.621094 451.640625 L 291.179688 452.742188 L 289.847656 454.226563 L 289.460938 455.09375 L 289.214844 456.324219 L 289.464844 457.886719 L 286.253906 458.289063 L 284.1875 457.9375 L 282.46875 459.558594 L 280.714844 459.988281 L 278.273438 461.367188 L 277.414063 462.175781 L 274.789063 462.777344 L 272.597656 463.816406 L 272.15625 464.414063 L 271.980469 464.480469 L 270.050781 465.695313 L 268.96875 466.710938 L 259.269531 463.777344 L 258.855469 463.742188 L 258.101563 463.464844 L 255.222656 463.132813 L 247.089844 463.128906 L 243.835938 463.488281 L 241.308594 464.316406 L 239.234375 465.542969 L 238.402344 466.308594 L 238.210938 466.1875 L 238.632813 465.4375 L 239.46875 464.933594 L 237.714844 463.296875 L 231.496094 463.171875 L 231.378906 463.496094 L 232.574219 464.835938 L 232.214844 465.75 L 231.738281 466.042969 L 226.691406 465.496094 L 222.007813 467.4375 L 221.617188 467.371094 L 218.683594 467.644531 L 217.722656 467.992188 L 217.054688 467.824219 L 210.222656 468.96875 L 208.164063 468.875 L 207.273438 468.058594 L 206.238281 469.769531 L 209.429688 471.089844 L 209.714844 470.9375 L 210.1875 472.128906 L 209.566406 473.890625 L 206.84375 474.453125 L 204.453125 473.097656 L 203.015625 472.699219 L 197.625 472.007813 L 196.175781 472.65625 L 195.679688 473.863281 L 195.832031 474.871094 L 196.757813 475.523438 L 196.488281 476.304688 L 195.917969 475.996094 L 194.851563 473.972656 L 190.953125 471.082031 L 190.214844 470.390625 L 188.125 469.140625 L 185.699219 468.320313 L 183.746094 468.105469 L 183.121094 467.984375 L 182.988281 468.082031 L 180.859375 468.296875 L 177.960938 469.308594 L 177.53125 469.605469 L 176.207031 469.78125 L 174.339844 470.335938 L 173.492188 470.792969 L 173.027344 470.734375 L 170.734375 470.90625 L 168.523438 471.523438 L 166.472656 472.5625 L 161.808594 476.453125 L 159.921875 478.800781 L 157.457031 479.871094 L 155.210938 481.570313 L 153.371094 483.867188 L 152.292969 486.277344 L 152.113281 486.238281 L 151.761719 484.308594 L 150.980469 482.300781 L 149.765625 480.371094 L 148.292969 478.800781 L 151.28125 479.546875 L 154.359375 479.480469 L 157.316406 478.609375 L 159.835938 477.074219 L 162.261719 474.429688 L 163.800781 471.046875 L 165.417969 468.742188 L 166.335938 466.488281 L 166.761719 464.09375 L 166.601563 461.152344 L 165.707031 458.351563 L 164.136719 455.859375 L 161.992188 453.84375 L 159.648438 452.527344 L 157.191406 451.804688 L 154.546875 451.507813 L 149.347656 451.53125 L 152.289063 450.621094 L 154.988281 448.886719 L 157.039063 446.585938 L 157.191406 446.28125 L 157.421875 446.269531 L 159.910156 445.683594 L 164.597656 446.761719 L 166.046875 446.148438 L 167.527344 446.515625 L 169.484375 447.285156 L 170.039063 448.109375 L 170.757813 448.421875 L 173.15625 448.464844 L 180.570313 447.503906 L 181.109375 445.632813 L 181.210938 443.15625 L 181.363281 442.816406 L 184.816406 442.914063 L 188.472656 441.769531 L 191.558594 439.496094 L 193.847656 436.113281 L 194.816406 432.277344 L 197.628906 430.753906 L 199.84375 428.625 L 201.472656 425.871094 L 202.273438 422.902344 L 202.191406 419.324219 L 201.019531 415.9375 L 198.109375 412.242188 L 195.457031 410.195313 L 197.511719 409.5 L 199.503906 408.359375 L 201.148438 406.941406 L 202.570313 405.136719 L 206.011719 404.316406 L 209.046875 402.496094 L 212.3125 399.730469 L 214.199219 397.382813 L 216.808594 395.109375 L 218.242188 392.980469 L 219.175781 390.589844 L 219.535156 386.636719 L 219.082031 384.238281 L 218.078125 381.875 L 218.390625 378.960938 L 217.964844 376.058594 L 216.558594 372.917969 L 214.199219 370.246094 L 214.472656 366.5625 L 213.527344 362.863281 L 212.171875 360.554688 L 210.324219 358.617188 L 212.457031 356.792969 L 214.09375 354.511719 L 215.167969 351.777344 L 215.523438 348.992188 L 217.90625 351.671875 L 220.996094 353.5 L 224.488281 354.296875 L 228.0625 353.992188 L 231.042969 352.8125 L 233.585938 350.863281 L 236.671875 350.175781 L 239.460938 348.6875 L 242.707031 345.457031 L 244.464844 342.046875 L 244.777344 340.414063 L 246.324219 340.394531 L 249.617188 339.34375 L 251.976563 339.082031 L 254.382813 342.558594 L 260.535156 347.621094 L 260.988281 347.882813 L 261.40625 350.074219 L 263.367188 353.464844 L 266.308594 356.910156 L 268.476563 358.617188 L 269.003906 362.808594 L 269.402344 363.554688 L 269.210938 365.21875 L 264.953125 369.09375 L 261.394531 373.164063 L 260.601563 374.816406 L 262.84375 374.3125 L 264.9375 375.519531 L 266.9375 378.226563 L 270.21875 378.804688 L 270.625 378.746094 L 271.910156 376.796875 L 272.234375 374.960938 L 273.40625 371.914063 L 274.707031 370.632813 L 276.777344 370.269531 L 278.023438 370.734375 L 281.097656 370.875 L 283.511719 370.347656 L 284.253906 370.867188 L 286.703125 370.742188 L 292.21875 371.332031 L 292.875 372.820313 L 294.597656 375.046875 L 296.917969 376.863281 Z M 233.09375 468.472656 L 232.539063 468.722656 L 229.707031 471.046875 L 227.328125 469.101563 L 224.648438 467.882813 L 224.644531 467.882813 L 227.316406 466.367188 L 232.550781 467.761719 Z M 161.125 432.9375 L 164.214844 432.429688 L 167.769531 430.40625 L 170.46875 427.167969 L 170.101563 431.238281 L 171.222656 435.296875 L 173.4375 438.421875 L 175.039063 439.652344 L 174.058594 439.917969 L 170.558594 439.851563 L 166.820313 439 L 166.347656 438.652344 L 161.371094 433.375 Z M 244.980469 338.996094 L 244.863281 336.59375 L 244.121094 334.007813 L 242.726563 331.558594 L 240.980469 329.683594 L 238.863281 328.234375 L 235.464844 326.710938 L 232.703125 326.144531 L 229.5 326.324219 L 226.472656 327.375 L 223.9375 329.125 L 221.953125 331.476563 L 219.710938 332.421875 L 217.714844 333.816406 L 216.054688 335.589844 L 214.742188 337.792969 L 213.945313 340.183594 L 213.671875 342.625 L 212.171875 340.753906 L 210.324219 339.230469 L 210.980469 336.878906 L 211.132813 334.441406 L 210.769531 332.027344 L 209.914063 329.742188 L 208.597656 327.6875 L 206.882813 325.949219 L 204.84375 324.609375 L 202.570313 323.722656 L 206.140625 323.375 L 209.332031 322.019531 L 212.0625 319.691406 L 213.953125 316.640625 L 214.613281 314.558594 L 214.871094 312.257813 L 214.199219 308.214844 L 214.863281 304.339844 L 214.199219 300.460938 L 214.199219 296.585938 L 218.078125 296.585938 L 221.953125 297.25 L 225.832031 296.585938 L 227.402344 298.058594 L 229.332031 299.273438 L 231.464844 300.085938 L 231.523438 300.097656 L 234.976563 301.707031 L 235.5625 302.238281 L 237.777344 303.46875 L 239.8125 303.964844 L 241.527344 304.765625 L 242.476563 306.914063 L 244.199219 309.140625 L 246.40625 310.886719 L 247.617188 311.429688 L 249.09375 315.21875 L 249.09375 319.847656 L 248.78125 322.890625 L 249.617188 326.875 L 251.042969 329.433594 L 254.242188 333.191406 L 256.847656 335.355469 L 258.824219 337.785156 L 260.722656 339.230469 L 260.660156 342.085938 L 260.445313 342 L 258.378906 342.789063 L 257.507813 342.753906 L 256.035156 341.773438 L 253.664063 338.65625 L 252.601563 338.082031 L 245.550781 339.511719 Z M 187.0625 222.921875 L 189.132813 222.066406 L 189.332031 222.921875 L 188.898438 224.691406 L 189.238281 225.953125 L 190.867188 226.808594 L 188.570313 227.042969 L 186.300781 227.765625 L 186.929688 225.445313 Z M 179.308594 234.554688 L 180.085938 234.25 L 179.46875 236.492188 Z M 286.679688 439.636719 L 283.058594 438.976563 L 282.164063 437.605469 L 282.484375 436.070313 L 286.839844 437.054688 L 287.960938 438.832031 Z M 236.835938 466.113281 L 235.136719 465.644531 L 236.523438 463.683594 L 237.195313 464.164063 L 237.5 465.839844 Z M 236.835938 466.113281 "/>
<path style=" stroke:none;fill-rule:nonzero;fill:rgb(80.392157%,58.431373%,4.705882%);fill-opacity:1;" d="M 192.875 381.875 L 192.59375 383.675781 L 191.765625 385.296875 L 190.480469 386.582031 L 188.859375 387.40625 L 187.0625 387.691406 L 185.265625 387.40625 L 183.644531 386.582031 L 182.355469 385.296875 L 181.53125 383.675781 L 181.246094 381.875 L 181.53125 380.078125 L 182.355469 378.457031 L 183.644531 377.171875 L 185.265625 376.347656 L 187.0625 376.0625 L 188.859375 376.347656 L 190.480469 377.171875 L 191.765625 378.457031 L 192.59375 380.078125 Z M 192.875 381.875 "/>
<path style=" stroke:none;fill-rule:nonzero;fill:rgb(80.392157%,58.431373%,4.705882%);fill-opacity:1;" d="M 181.246094 366.371094 L 180.960938 368.167969 L 180.136719 369.789063 L 178.847656 371.074219 L 177.226563 371.898438 L 175.429688 372.183594 L 173.632813 371.898438 L 172.011719 371.074219 L 170.726563 369.789063 L 169.898438 368.167969 L 169.617188 366.371094 L 169.898438 364.570313 L 170.726563 362.949219 L 172.011719 361.664063 L 173.632813 360.839844 L 175.429688 360.554688 L 177.226563 360.839844 L 178.847656 361.664063 L 180.136719 362.949219 L 180.960938 364.570313 Z M 181.246094 366.371094 "/>
<path style=" stroke:none;fill-rule:nonzero;fill:rgb(80.392157%,58.431373%,4.705882%);fill-opacity:1;" d="M 192.875 409.015625 L 192.59375 410.8125 L 191.765625 412.433594 L 190.480469 413.71875 L 188.859375 414.546875 L 187.0625 414.832031 L 185.265625 414.546875 L 183.644531 413.71875 L 182.355469 412.433594 L 181.53125 410.8125 L 181.246094 409.015625 L 181.53125 407.21875 L 182.355469 405.597656 L 183.644531 404.3125 L 185.265625 403.484375 L 187.0625 403.199219 L 188.859375 403.484375 L 190.480469 404.3125 L 191.765625 405.597656 L 192.59375 407.21875 Z M 192.875 409.015625 "/>
<path style=" stroke:none;fill-rule:nonzero;fill:rgb(80.392157%,58.431373%,4.705882%);fill-opacity:1;" d="M 196.753906 296.585938 L 196.46875 298.382813 L 195.644531 300.003906 L 194.355469 301.289063 L 192.734375 302.117188 L 190.9375 302.398438 L 189.140625 302.117188 L 187.519531 301.289063 L 186.234375 300.003906 L 185.40625 298.382813 L 185.125 296.585938 L 185.40625 294.789063 L 186.234375 293.167969 L 187.519531 291.878906 L 189.140625 291.054688 L 190.9375 290.769531 L 192.734375 291.054688 L 194.355469 291.878906 L 195.644531 293.167969 L 196.46875 294.789063 Z M 196.753906 296.585938 "/>
<path style=" stroke:none;fill-rule:nonzero;fill:rgb(80.392157%,58.431373%,4.705882%);fill-opacity:1;" d="M 189 288.832031 L 188.714844 290.628906 L 187.890625 292.25 L 186.601563 293.535156 L 184.980469 294.363281 L 183.183594 294.644531 L 181.386719 294.363281 L 179.765625 293.535156 L 178.480469 292.25 L 177.652344 290.628906 L 177.371094 288.832031 L 177.652344 287.035156 L 178.128906 286.097656 L 178.757813 285.980469 L 180.191406 286.804688 L 182.933594 286.238281 L 183.03125 285.160156 L 182.34375 284.746094 L 180.035156 285.351563 L 178.636719 285.257813 L 179.765625 284.125 L 181.386719 283.300781 L 183.183594 283.015625 L 184.980469 283.300781 L 186.601563 284.125 L 187.890625 285.414063 L 188.714844 287.035156 Z M 189 288.832031 "/>
<path style=" stroke:none;fill-rule:nonzero;fill:rgb(80.392157%,58.431373%,4.705882%);fill-opacity:1;" d="M 192.875 331.476563 L 192.59375 333.273438 L 191.765625 334.894531 L 190.480469 336.183594 L 188.859375 337.007813 L 187.0625 337.292969 L 185.265625 337.007813 L 183.644531 336.183594 L 182.355469 334.894531 L 181.503906 333.097656 L 181.601563 331.078125 L 181.949219 330.421875 L 184.695313 329.191406 L 186.21875 325.796875 L 187.0625 325.660156 L 188.859375 325.945313 L 190.480469 326.773438 L 191.765625 328.058594 L 192.59375 329.679688 Z M 192.875 331.476563 "/>
<path style=" stroke:none;fill-rule:nonzero;fill:rgb(80.392157%,58.431373%,4.705882%);fill-opacity:1;" d="M 177.371094 172.523438 L 177.085938 174.320313 L 176.257813 175.941406 L 174.972656 177.226563 L 173.351563 178.054688 L 171.554688 178.339844 L 169.757813 178.054688 L 168.136719 177.226563 L 166.847656 175.941406 L 166.023438 174.320313 L 165.738281 172.523438 L 165.976563 171.027344 L 170.480469 169.527344 L 170.492188 169.949219 L 171.554688 169.839844 L 173.589844 168.316406 L 173.902344 167.273438 L 174.972656 167.816406 L 176.257813 169.105469 L 177.085938 170.726563 Z M 177.371094 172.523438 "/>
<path style=" stroke:none;fill-rule:nonzero;fill:rgb(80.392157%,58.431373%,4.705882%);fill-opacity:1;" d="M 134.722656 211.292969 L 134.4375 213.089844 L 133.613281 214.710938 L 132.324219 215.996094 L 130.703125 216.824219 L 128.90625 217.109375 L 127.730469 216.921875 L 127.882813 216.460938 L 128.195313 216.742188 L 128.945313 216.671875 L 131.070313 215.113281 L 129.507813 214.882813 L 128.550781 215.441406 L 127.980469 214.949219 L 127.875 213.785156 L 129.65625 210.6875 L 132.679688 206.941406 L 133.613281 207.875 L 134.4375 209.496094 Z M 124.183594 214.671875 L 123.375 213.089844 L 123.09375 211.292969 L 123.554688 209.148438 L 124.257813 209.050781 L 123.773438 208.71875 L 124.203125 207.875 L 125.488281 206.585938 L 127.109375 205.761719 L 128.90625 205.476563 L 130.703125 205.761719 L 132.15625 206.503906 Z M 124.183594 214.671875 "/>
<path style=" stroke:none;fill-rule:nonzero;fill:rgb(80.392157%,58.431373%,4.705882%);fill-opacity:1;" d="M 181.246094 358.617188 L 180.960938 360.414063 L 180.136719 362.035156 L 178.847656 363.320313 L 177.226563 364.144531 L 175.429688 364.429688 L 173.632813 364.144531 L 172.011719 363.320313 L 170.726563 362.035156 L 169.898438 360.414063 L 169.617188 358.617188 L 170.128906 356.371094 L 172.597656 355.179688 L 174.484375 355.082031 L 179.910156 359.441406 L 180.433594 358.429688 L 177.769531 353.359375 L 178.847656 353.910156 L 180.136719 355.195313 L 180.960938 356.816406 Z M 181.246094 358.617188 "/>
<path style=" stroke:none;fill-rule:nonzero;fill:rgb(80.392157%,58.431373%,4.705882%);fill-opacity:1;" d="M 153.882813 356.164063 L 152.996094 358.15625 L 151.710938 359.441406 L 150.089844 360.269531 L 148.292969 360.554688 L 146.496094 360.269531 L 144.875 359.441406 L 143.585938 358.15625 L 142.761719 356.535156 L 142.476563 354.738281 L 142.761719 352.941406 L 143.355469 351.773438 L 146.003906 350.957031 L 149.566406 352.007813 L 151.039063 355.578125 Z M 153.882813 356.164063 "/>
<path style=" stroke:none;fill-rule:nonzero;fill:rgb(80.392157%,58.431373%,4.705882%);fill-opacity:1;" d="M 150.230469 261.691406 L 149.945313 263.488281 L 149.121094 265.109375 L 147.832031 266.398438 L 146.210938 267.222656 L 144.414063 267.507813 L 142.617188 267.222656 L 140.453125 265.851563 L 140.917969 265.085938 L 143.644531 263.800781 L 144.390625 261.886719 L 144.195313 260.621094 L 142.601563 256.71875 L 142.136719 256.40625 L 142.617188 256.160156 L 144.414063 255.875 L 146.210938 256.160156 L 147.832031 256.988281 L 149.121094 258.273438 L 149.945313 259.894531 Z M 150.230469 261.691406 "/>
<path style=" stroke:none;fill-rule:nonzero;fill:rgb(80.392157%,58.431373%,4.705882%);fill-opacity:1;" d="M 181.246094 288.832031 L 180.960938 290.628906 L 180.136719 292.25 L 178.847656 293.535156 L 177.226563 294.363281 L 175.429688 294.644531 L 173.632813 294.363281 L 171.859375 293.382813 L 174.074219 288.722656 L 176.464844 286.417969 L 178.757813 285.980469 L 180.191406 286.804688 L 180.808594 286.734375 Z M 171.902344 284.238281 L 173.632813 283.300781 L 175.429688 283.015625 L 177.226563 283.300781 L 178.847656 284.125 L 180.066406 285.34375 L 174.65625 284.980469 Z M 171.902344 284.238281 "/>
<path style=" stroke:none;fill-rule:nonzero;fill:rgb(80.392157%,58.431373%,4.705882%);fill-opacity:1;" d="M 131.703125 427.441406 L 131.128906 426.320313 L 130.886719 424.78125 L 131.792969 424.328125 L 131.226563 422.867188 L 131.035156 423.320313 L 131.128906 422.726563 L 131.957031 421.105469 L 133.242188 419.816406 L 134.863281 418.992188 L 136.660156 418.707031 L 138.457031 418.992188 L 140.078125 419.816406 L 141.367188 421.105469 L 142.191406 422.726563 L 142.347656 423.710938 L 139.503906 423.714844 L 136.765625 424.277344 L 136.292969 426.515625 L 135.777344 427.203125 L 133.742188 427.917969 L 132.394531 427.265625 Z M 131.703125 427.441406 "/>
<path style=" stroke:none;fill-rule:nonzero;fill:rgb(80.392157%,58.431373%,4.705882%);fill-opacity:1;" d="M 189 168.644531 L 188.714844 170.441406 L 187.890625 172.0625 L 186.601563 173.351563 L 184.980469 174.175781 L 183.183594 174.460938 L 181.386719 174.175781 L 179.765625 173.351563 L 178.480469 172.0625 L 177.652344 170.441406 L 177.371094 168.644531 L 177.953125 166.257813 L 178.648438 166.167969 L 179.285156 167.089844 L 180.148438 167.667969 L 184.320313 169.011719 L 187.675781 167.128906 L 188.789063 167.308594 Z M 189 168.644531 "/>
<path style=" stroke:none;fill-rule:nonzero;fill:rgb(80.392157%,58.431373%,4.705882%);fill-opacity:1;" d="M 191.242188 219.71875 L 190.109375 218.585938 L 189.285156 216.964844 L 189 215.167969 L 189.285156 213.371094 L 190.109375 211.75 L 191.398438 210.464844 L 193.019531 209.636719 L 194.816406 209.355469 L 197.167969 209.921875 L 197.433594 210.839844 L 197.785156 210.703125 L 197.761719 211.238281 L 196.796875 214.386719 L 195.867188 215.914063 Z M 191.242188 219.71875 "/>
<path style=" stroke:none;fill-rule:nonzero;fill:rgb(80.392157%,58.431373%,4.705882%);fill-opacity:1;" d="M 119.214844 490.429688 L 118.929688 492.226563 L 118.105469 493.847656 L 117.195313 494.757813 L 115.984375 493.691406 L 112.253906 492.070313 L 111.410156 491.984375 L 110.375 492.488281 L 110.242188 494.183594 L 109.679688 494.832031 L 108.695313 493.847656 L 107.871094 492.226563 L 107.585938 490.429688 L 107.675781 489.859375 L 111.738281 488.078125 L 112.199219 488.253906 L 112.445313 488.9375 L 113.574219 489.15625 L 117.476563 486.382813 L 118.929688 488.632813 Z M 119.214844 490.429688 "/>
<path style=" stroke:none;fill-rule:nonzero;fill:rgb(80.392157%,58.431373%,4.705882%);fill-opacity:1;" d="M 151.550781 360.457031 L 150.371094 360.269531 L 148.75 359.441406 L 147.464844 358.15625 L 146.636719 356.535156 L 146.355469 354.738281 L 146.636719 352.941406 L 147.433594 351.378906 L 149.566406 352.007813 L 151.039063 355.578125 L 155.546875 356.503906 L 154.066406 358.859375 Z M 154.882813 359.800781 L 153.964844 360.269531 L 151.714844 360.480469 L 153.09375 359.609375 Z M 154.882813 359.800781 "/>
<path style=" stroke:none;fill-rule:nonzero;fill:rgb(80.392157%,58.431373%,4.705882%);fill-opacity:1;" d="M 225.320313 65.828125 L 223.882813 65.546875 L 224.308594 63.570313 L 223.632813 57.773438 L 221.078125 57.210938 L 222.089844 58.292969 L 222.21875 59.898438 L 220.292969 61.703125 L 220.015625 60.09375 L 220.300781 58.296875 L 221.125 56.675781 L 222.414063 55.386719 L 224.035156 54.5625 L 225.832031 54.277344 L 227.960938 54.730469 L 227.699219 56.234375 L 226.355469 57.007813 L 225.6875 56.476563 L 226.023438 58.453125 L 227.246094 61.769531 L 226.800781 62.460938 L 226.285156 62.238281 L 225.40625 63.738281 Z M 225.320313 65.828125 "/>
<path style=" stroke:none;fill-rule:nonzero;fill:rgb(80.392157%,58.431373%,4.705882%);fill-opacity:1;" d="M 146.355469 405.136719 L 146.070313 406.933594 L 145.242188 408.558594 L 143.957031 409.84375 L 142.335938 410.667969 L 140.539063 410.953125 L 138.742188 410.667969 L 137.121094 409.84375 L 135.554688 408.007813 L 137.585938 406.550781 L 141.359375 406.660156 L 142.21875 406.390625 L 146.152344 403.875 Z M 146.355469 405.136719 "/>
<path style=" stroke:none;fill-rule:nonzero;fill:rgb(80.392157%,58.431373%,4.705882%);fill-opacity:1;" d="M 126.96875 478.800781 L 126.683594 480.597656 L 125.859375 482.21875 L 124.570313 483.503906 L 122.949219 484.332031 L 121.152344 484.617188 L 119.882813 484.414063 L 124.375 479.769531 L 125.210938 477.886719 L 124.875 476.421875 L 125.453125 474.976563 L 126.683594 477.003906 Z M 126.96875 478.800781 "/>
<path style=" stroke:none;fill-rule:nonzero;fill:rgb(80.392157%,58.431373%,4.705882%);fill-opacity:1;" d="M 88.429688 500.046875 L 88.566406 499.308594 L 88.941406 499.117188 L 89.34375 499.789063 Z M 88.429688 500.046875 "/>
</g>
</svg>
