<?xml version="1.0" encoding="UTF-8"?>
<svg xmlns="http://www.w3.org/2000/svg" xmlns:xlink="http://www.w3.org/1999/xlink" width="378pt" height="504pt" viewBox="0 0 378 504" version="1.1">
<g id="data">
<rect x="0" y="0" width="378" height="504" style="fill:rgb(100%,100%,100%);fill-opacity:1;stroke:none;"/>
<path style=" stroke:none;fill-rule:nonzero;fill:rgb(100%,100%,100%);fill-opacity:1;" d="M 53.308594 504 L 324.691406 504 L 324.691406 0 L 53.308594 0 Z M 53.308594 504 "/>
<path style=" stroke:none;fill-rule:nonzero;fill:rgb(22.745098%,53.333333%,16.078431%);fill-opacity:1;" d="M 210.097656 347.117188 L 209.132813 346.261719 L 208.011719 344.859375 L 206.625 343.71875 L 205.5 342.480469 L 204.777344 340.976563 L 204.507813 339.324219 L 204.722656 337.667969 L 205.214844 335.90625 L 205.289063 334.695313 L 205.109375 333.496094 L 204.683594 332.359375 L 204.03125 331.335938 L 203.175781 330.472656 L 202.164063 329.804688 L 200.460938 329.140625 L 198.964844 328.289063 L 197.789063 327.03125 L 197.027344 325.488281 L 196.753906 323.789063 L 196.988281 322.085938 L 197.714844 320.523438 L 198.863281 319.242188 L 200.335938 318.355469 L 202.003906 317.933594 L 204.691406 317.671875 L 206.234375 317.015625 L 207.597656 315.855469 L 208.628906 314.195313 L 208.898438 313.34375 L 209 312.410156 L 208.464844 309.167969 L 208.46875 307.230469 L 208.964844 304.339844 L 208.46875 301.445313 L 208.382813 300.460938 L 208.382813 296.585938 L 208.667969 294.789063 L 209.496094 293.167969 L 210.78125 291.878906 L 212.402344 291.054688 L 214.199219 290.769531 L 218.078125 290.769531 L 219.058594 290.851563 L 221.953125 291.347656 L 224.847656 290.851563 L 225.15625 290.847656 L 225.945313 294.183594 L 229.304688 299.0625 L 244.476563 306.140625 L 245.742188 307.636719 L 247.265625 310.527344 L 249.289063 315.722656 L 252.390625 319.148438 L 254.882813 320.300781 L 254.878906 320.433594 L 254.660156 322.582031 L 254.761719 323.078125 L 254.738281 323.09375 L 253.890625 324.554688 L 253.765625 325.996094 L 254.984375 329.992188 L 256.160156 332.453125 L 263.316406 342.46875 L 263.640625 343.980469 L 262.804688 345.191406 L 263.28125 343.65625 L 262.507813 342.839844 L 260.445313 342 L 258.378906 342.789063 L 257.507813 342.753906 L 256.035156 341.773438 L 253.664063 338.65625 L 252.601563 338.082031 L 245.550781 339.511719 L 244.589844 338.644531 L 243.40625 338.558594 L 241.210938 339.871094 L 241.886719 340.445313 L 246.324219 340.394531 L 249.617188 339.34375 L 251.976563 339.082031 L 254.382813 342.558594 L 260.535156 347.621094 L 263.042969 349.058594 L 263.664063 349.039063 L 266.046875 352.214844 L 268.980469 359.304688 L 269.535156 362.402344 L 269.210938 365.21875 L 264.953125 369.09375 L 261.394531 373.164063 L 260.601563 374.816406 L 262.84375 374.3125 L 264.9375 375.519531 L 266.9375 378.226563 L 270.21875 378.804688 L 270.625 378.746094 L 271.910156 376.796875 L 272.234375 374.960938 L 273.40625 371.914063 L 274.707031 370.632813 L 277.851563 370.085938 L 283.34375 370.234375 L 284.253906 370.867188 L 286.703125 370.742188 L 293.949219 371.515625 L 296.914063 372.84375 L 304.070313 378.085938 L 305.367188 380.105469 L 306.730469 384.164063 L 307.179688 391.25 L 306.777344 393.191406 L 306.890625 393.976563 L 305.789063 396.917969 L 303.519531 407.832031 L 297.144531 414.53125 L 295.578125 412.011719 L 292.742188 410.515625 L 292.480469 410.636719 L 293.898438 413.703125 L 295.890625 416.628906 L 296.3125 416.765625 L 296.164063 417.742188 L 294.574219 419.804688 L 292.191406 421.289063 L 290.003906 421.65625 L 289.660156 421.574219 L 288.214844 419.332031 L 284.976563 421.730469 L 280.71875 424.230469 L 282.339844 425.378906 L 285.105469 424.398438 L 286.097656 423.375 L 286.894531 423.164063 L 287.328125 423.710938 L 287.632813 428.84375 L 285.6875 430.875 L 283.441406 432.558594 L 282.84375 432.699219 L 279.644531 432.160156 L 274.75 433.78125 L 272.609375 436.117188 L 274.253906 436.015625 L 275.152344 434.667969 L 276.683594 434.363281 L 278.285156 434.328125 L 281.054688 434.949219 L 281.828125 435.589844 L 281.691406 436.328125 L 279.554688 436.347656 L 277.390625 437.65625 L 277.96875 438.546875 L 281.382813 438.964844 L 286.863281 440.339844 L 289.394531 439.9375 L 291.074219 438.957031 L 299.742188 437.757813 L 300.988281 440.148438 L 300.773438 446.324219 L 300.335938 447.820313 L 299.394531 449.050781 L 296.972656 450.242188 L 295.839844 450.375 L 292.621094 451.640625 L 291.179688 452.742188 L 289.847656 454.226563 L 289.460938 455.09375 L 289.214844 456.324219 L 289.464844 457.886719 L 286.253906 458.289063 L 284.1875 457.9375 L 281.042969 460.90625 L 278.484375 461.933594 L 274.789063 462.777344 L 272.597656 463.816406 L 270.539063 466.589844 L 269.761719 466.949219 L 259.269531 463.777344 L 256.070313 463.507813 L 244.628906 465.699219 L 242.703125 466.390625 L 242.113281 466.964844 L 241.902344 467.984375 L 241.359375 468.164063 L 238.210938 466.1875 L 238.632813 465.4375 L 239.46875 464.933594 L 237.714844 463.296875 L 231.496094 463.171875 L 231.378906 463.496094 L 232.574219 464.835938 L 232.214844 465.75 L 231.738281 466.042969 L 226.691406 465.496094 L 219.566406 468.449219 L 217.054688 467.824219 L 210.222656 468.96875 L 208.164063 468.875 L 207.273438 468.058594 L 206.238281 469.769531 L 209.429688 471.089844 L 209.714844 470.9375 L 210.1875 472.128906 L 209.566406 473.890625 L 206.84375 474.453125 L 204.453125 473.097656 L 203.015625 472.699219 L 197.625 472.007813 L 196.175781 472.65625 L 195.679688 473.863281 L 195.832031 474.871094 L 196.757813 475.523438 L 196.488281 476.304688 L 195.917969 475.996094 L 194.851563 473.972656 L 190.289063 470.589844 L 185.898438 468.519531 L 183.121094 467.984375 L 181.648438 469.066406 L 176.207031 469.78125 L 174.339844 470.335938 L 168.992188 473.234375 L 168.214844 474.070313 L 167.203125 476.179688 L 165.511719 481.128906 L 164.453125 482.445313 L 163.464844 483.414063 L 162.273438 484.121094 L 160.332031 484.976563 L 159.308594 485.757813 L 158.375 486.921875 L 157.484375 488.910156 L 156.527344 486.851563 L 154.683594 485.4375 L 153.613281 485.542969 L 152.417969 486.300781 L 151.738281 486.164063 L 148.46875 482.535156 L 144.128906 482.859375 L 144.046875 482.777344 L 143.011719 481.234375 L 142.511719 479.441406 L 142.605469 477.585938 L 143.277344 475.855469 L 144.464844 474.421875 L 146.042969 473.4375 L 147.847656 473 L 149.699219 473.15625 L 151.933594 473.714844 L 153.476563 473.683594 L 154.851563 473.285156 L 156.117188 472.523438 L 157.351563 471.183594 L 158.503906 468.640625 L 159.042969 467.703125 L 160.28125 465.941406 L 160.71875 464.863281 L 160.917969 463.738281 L 160.835938 462.214844 L 160.390625 460.824219 L 159.613281 459.589844 L 158.511719 458.554688 L 157.464844 457.960938 L 156.019531 457.527344 L 154.234375 457.324219 L 149.375 457.347656 L 147.5625 457.070313 L 145.929688 456.238281 L 145.300781 455.609375 L 145.761719 455.429688 L 148.429688 452.488281 L 148.105469 447.519531 L 151.105469 446.613281 L 157.421875 446.269531 L 159.910156 445.683594 L 164.597656 446.761719 L 166.046875 446.148438 L 167.527344 446.515625 L 169.484375 447.285156 L 170.039063 448.109375 L 170.757813 448.421875 L 173.15625 448.464844 L 180.570313 447.503906 L 181.109375 445.632813 L 181.210938 443.15625 L 182.519531 440.25 L 190.867188 432.195313 L 195.792969 425.3125 L 197.929688 424.472656 L 198.285156 423.78125 L 198.070313 423.238281 L 197.8125 423.082031 L 196.09375 424.355469 L 192.90625 427.300781 L 190.570313 429.988281 L 189.222656 431.449219 L 189 431.542969 L 189.183594 430.824219 L 189.789063 429.351563 L 190.769531 428.101563 L 192.050781 427.160156 L 194.167969 426.015625 L 195.242188 424.984375 L 196.066406 423.589844 L 196.441406 422.199219 L 196.398438 420.382813 L 195.800781 418.679688 L 194 416.417969 L 191.902344 414.800781 L 190.675781 413.507813 L 189.898438 411.90625 L 189.640625 410.144531 L 189.929688 408.386719 L 190.734375 406.800781 L 191.984375 405.53125 L 193.558594 404.699219 L 195.199219 404.132813 L 196.105469 403.605469 L 196.992188 402.835938 L 197.980469 401.566406 L 199.421875 400.25 L 201.21875 399.480469 L 203.789063 398.867188 L 205.652344 397.75 L 208.128906 395.652344 L 209.667969 393.742188 L 210.375 393.003906 L 212.410156 391.226563 L 213.058594 390.265625 L 213.457031 389.242188 L 213.667969 386.917969 L 213.484375 385.9375 L 212.726563 384.152344 L 212.324219 382.730469 L 212.292969 381.257813 L 212.527344 379.074219 L 212.328125 377.714844 L 211.5625 376.023438 L 209.859375 374.117188 L 208.992188 372.832031 L 208.492188 371.363281 L 208.402344 369.816406 L 208.601563 367.082031 L 208.097656 365.101563 L 207.496094 364.078125 L 206.113281 362.628906 L 205.050781 361.074219 L 204.542969 359.261719 L 204.640625 357.382813 L 205.332031 355.628906 L 206.546875 354.191406 L 208.144531 352.828125 L 208.949219 351.710938 L 209.492188 350.324219 L 209.757813 348.257813 Z M 219.097656 344.503906 L 219.871094 345.128906 L 221.648438 347.128906 L 223.175781 348.03125 L 224.902344 348.425781 L 226.714844 348.273438 L 228.144531 347.703125 L 230.046875 346.246094 L 232.324219 345.183594 L 234.632813 344.671875 L 235.964844 343.960938 L 237.957031 341.980469 L 238.910156 340.128906 L 239.152344 338.867188 L 239.089844 337.566406 L 238.683594 336.191406 L 238.015625 335.035156 L 237.160156 334.113281 L 236.011719 333.328125 L 233.671875 332.28125 L 232.273438 331.992188 L 230.640625 332.085938 L 229.125 332.609375 L 227.882813 333.46875 L 226.398438 335.226563 L 224.214844 336.835938 L 222.535156 337.542969 L 221.542969 338.234375 L 220.726563 339.105469 L 220.0625 340.226563 L 219.65625 341.441406 L 219.449219 343.273438 Z M 150.292969 431.871094 L 150.472656 430.621094 L 151.199219 429.0625 L 151.902344 428.285156 L 152.765625 427.832031 L 152.9375 427.433594 L 153.824219 426.902344 L 155.488281 426.488281 L 157.207031 426.578125 L 160.179688 427.183594 L 162.242188 426.855469 L 164.050781 425.8125 L 165.980469 423.46875 L 167.355469 422.257813 L 169.042969 421.53125 L 170.871094 421.367188 L 172.660156 421.785156 L 174.230469 422.734375 L 175.425781 424.128906 L 176.125 425.828125 L 176.261719 427.65625 L 175.996094 430.804688 L 176.546875 432.753906 L 177.671875 434.34375 L 178.652344 435.09375 L 178.394531 435.230469 L 177.398438 436.808594 L 177.039063 438.671875 L 176.445313 439.273438 L 174.058594 439.917969 L 170.558594 439.851563 L 166.820313 439 L 166.347656 438.652344 L 161.371094 433.375 L 159.03125 429.199219 L 155.65625 429.589844 Z M 173.511719 235.039063 L 173.652344 233.191406 L 174.371094 231.480469 L 175.585938 230.085938 L 177.183594 229.140625 L 177.960938 228.835938 L 179.75 228.441406 L 180.59375 228.527344 L 180.492188 228.007813 L 180.6875 226.242188 L 181.144531 224.566406 L 184.609375 222.886719 L 186.457031 221.386719 L 187.289063 221.316406 L 189.085938 221.875 L 189.332031 222.921875 L 188.898438 224.691406 L 189.238281 225.953125 L 190.898438 226.824219 L 192.988281 227.191406 L 194.445313 228.726563 L 194.429688 229.304688 L 192.117188 231.570313 L 189.460938 232.730469 L 188.34375 232.882813 L 187.070313 232.078125 L 185.40625 232.042969 L 181.046875 235.800781 L 180.578125 237.003906 L 174.902344 240.035156 L 174.101563 238.722656 L 173.675781 236.980469 Z M 181.285156 222.464844 L 181.566406 221.023438 L 182.304688 219.578125 L 183.417969 218.390625 L 184.8125 217.558594 L 186.472656 216.863281 L 187.855469 215.925781 L 189.605469 215.121094 L 191.519531 214.933594 L 193.390625 215.378906 L 195.015625 216.414063 L 195.113281 216.535156 L 191.214844 219.742188 L 185.519531 221.085938 L 182.847656 221.226563 Z M 179.539063 242.269531 L 178.046875 242.132813 L 177.035156 241.699219 L 178.0625 241.875 Z M 286.679688 439.636719 L 283.058594 438.976563 L 282.164063 437.605469 L 282.484375 436.070313 L 286.839844 437.054688 L 287.960938 438.832031 Z M 236.835938 466.113281 L 235.136719 465.644531 L 236.523438 463.683594 L 237.195313 464.164063 L 237.5 465.839844 Z M 228.117188 474.644531 L 222.296875 470.886719 L 220.207031 471.1875 L 221.476563 469.683594 L 227.316406 466.367188 L 232.550781 467.761719 L 234.171875 469.894531 L 231.242188 473.621094 L 229.960938 474.269531 Z M 228.117188 474.644531 "/>
<path style=" stroke:none;fill-rule:nonzero;fill:rgb(80.392157%,58.431373%,4.705882%);fill-opacity:1;" d="M 181.246094 366.371094 L 180.960938 368.167969 L 180.136719 369.789063 L 178.847656 371.074219 L 177.226563 371.898438 L 175.429688 372.183594 L 173.632813 371.898438 L 172.011719 371.074219 L 170.726563 369.789063 L 169.898438 368.167969 L 169.617188 366.371094 L 169.898438 364.570313 L 170.726563 362.949219 L 172.011719 361.664063 L 173.632813 360.839844 L 175.429688 360.554688 L 177.226563 360.839844 L 178.847656 361.664063 L 180.136719 362.949219 L 180.960938 364.570313 Z M 181.246094 366.371094 "/>
<path style=" stroke:none;fill-rule:nonzero;fill:rgb(80.392157%,58.431373%,4.705882%);fill-opacity:1;" d="M 192.875 381.875 L 192.59375 383.675781 L 191.765625 385.296875 L 190.480469 386.582031 L 188.859375 387.40625 L 187.0625 387.691406 L 185.265625 387.40625 L 183.644531 386.582031 L 182.355469 385.296875 L 181.53125 383.675781 L 181.246094 381.875 L 181.53125 380.078125 L 182.355469 378.457031 L 183.644531 377.171875 L 185.265625 376.347656 L 187.0625 376.0625 L 188.859375 376.347656 L 190.480469 377.171875 L 191.765625 378.457031 L 192.59375 380.078125 Z M 192.875 381.875 "/>
<path style=" stroke:none;fill-rule:nonzero;fill:rgb(80.392157%,58.431373%,4.705882%);fill-opacity:1;" d="M 196.753906 296.585938 L 196.46875 298.382813 L 195.644531 300.003906 L 194.355469 301.289063 L 192.734375 302.117188 L 190.9375 302.398438 L 189.140625 302.117188 L 187.519531 301.289063 L 186.234375 300.003906 L 185.40625 298.382813 L 185.125 296.585938 L 185.40625 294.789063 L 186.234375 293.167969 L 187.519531 291.878906 L 189.140625 291.054688 L 190.9375 290.769531 L 192.734375 291.054688 L 194.355469 291.878906 L 195.644531 293.167969 L 196.46875 294.789063 Z M 196.753906 296.585938 "/>
<path style=" stroke:none;fill-rule:nonzero;fill:rgb(80.392157%,58.431373%,4.705882%);fill-opacity:1;" d="M 189 288.832031 L 188.714844 290.628906 L 187.890625 292.25 L 186.601563 293.535156 L 184.980469 294.363281 L 183.183594 294.644531 L 181.386719 294.363281 L 179.765625 293.535156 L 178.480469 292.25 L 177.652344 290.628906 L 177.371094 288.832031 L 177.652344 287.035156 L 178.128906 286.097656 L 178.757813 285.980469 L 180.191406 286.804688 L 181.015625 286.710938 L 182.933594 286.238281 L 183.03125 285.160156 L 182.34375 284.746094 L 180.035156 285.351563 L 178.636719 285.257813 L 179.765625 284.125 L 181.386719 283.300781 L 183.183594 283.015625 L 184.980469 283.300781 L 186.601563 284.125 L 187.890625 285.414063 L 188.714844 287.035156 Z M 189 288.832031 "/>
<path style=" stroke:none;fill-rule:nonzero;fill:rgb(80.392157%,58.431373%,4.705882%);fill-opacity:1;" d="M 192.875 331.476563 L 192.59375 333.273438 L 191.765625 334.894531 L 190.480469 336.183594 L 188.859375 337.007813 L 187.0625 337.292969 L 185.265625 337.007813 L 183.644531 336.183594 L 182.355469 334.894531 L 181.53125 333.273438 L 181.503906 333.097656 L 181.601563 331.078125 L 181.949219 330.421875 L 184.695313 329.191406 L 186.21875 325.796875 L 187.0625 325.660156 L 188.859375 325.945313 L 190.480469 326.773438 L 191.765625 328.058594 L 192.59375 329.679688 Z M 192.875 331.476563 "/>
<path style=" stroke:none;fill-rule:nonzero;fill:rgb(80.392157%,58.431373%,4.705882%);fill-opacity:1;" d="M 177.371094 172.523438 L 177.085938 174.320313 L 176.257813 175.941406 L 174.972656 177.226563 L 173.351563 178.054688 L 171.554688 178.339844 L 169.757813 178.054688 L 168.136719 177.226563 L 166.847656 175.941406 L 166.023438 174.320313 L 165.738281 172.523438 L 165.976563 171.027344 L 167.808594 170.273438 L 170.480469 169.527344 L 170.492188 169.949219 L 171.554688 169.839844 L 173.589844 168.316406 L 173.902344 167.273438 L 174.972656 167.816406 L 176.257813 169.105469 L 177.085938 170.726563 Z M 177.371094 172.523438 "/>
<path style=" stroke:none;fill-rule:nonzero;fill:rgb(80.392157%,58.431373%,4.705882%);fill-opacity:1;" d="M 134.722656 211.292969 L 134.4375 213.089844 L 133.613281 214.710938 L 132.324219 215.996094 L 130.703125 216.824219 L 128.90625 217.109375 L 127.730469 216.921875 L 127.882813 216.460938 L 128.195313 216.742188 L 128.945313 216.671875 L 131.070313 215.113281 L 129.507813 214.882813 L 128.550781 215.441406 L 127.980469 214.949219 L 127.875 213.785156 L 129.65625 210.6875 L 132.679688 206.941406 L 133.613281 207.875 L 134.4375 209.496094 Z M 124.183594 214.671875 L 123.375 213.089844 L 123.09375 211.292969 L 123.375 209.496094 L 123.554688 209.148438 L 123.988281 209.15625 L 124.257813 209.050781 L 124.117188 208.789063 L 123.773438 208.71875 L 124.203125 207.875 L 125.488281 206.585938 L 127.109375 205.761719 L 128.90625 205.476563 L 130.703125 205.761719 L 132.15625 206.503906 Z M 124.183594 214.671875 "/>
<path style=" stroke:none;fill-rule:nonzero;fill:rgb(80.392157%,58.431373%,4.705882%);fill-opacity:1;" d="M 181.246094 358.617188 L 180.960938 360.414063 L 180.136719 362.035156 L 178.847656 363.320313 L 177.226563 364.144531 L 175.429688 364.429688 L 173.632813 364.144531 L 172.011719 363.320313 L 170.726563 362.035156 L 169.898438 360.414063 L 169.617188 358.617188 L 169.898438 356.816406 L 170.128906 356.371094 L 172.597656 355.179688 L 173.933594 355.046875 L 174.484375 355.082031 L 179.910156 359.441406 L 180.433594 358.429688 L 177.679688 353.460938 L 177.769531 353.359375 L 178.847656 353.910156 L 180.136719 355.195313 L 180.960938 356.816406 Z M 181.246094 358.617188 "/>
<path style=" stroke:none;fill-rule:nonzero;fill:rgb(80.392157%,58.431373%,4.705882%);fill-opacity:1;" d="M 153.882813 356.164063 L 153.824219 356.535156 L 152.996094 358.15625 L 151.710938 359.441406 L 150.089844 360.269531 L 148.292969 360.554688 L 146.496094 360.269531 L 144.875 359.441406 L 143.585938 358.15625 L 142.761719 356.535156 L 142.476563 354.738281 L 142.761719 352.941406 L 143.355469 351.773438 L 144.664063 351.183594 L 146.003906 350.957031 L 149.566406 352.007813 L 151.039063 355.578125 Z M 153.882813 356.164063 "/>
<path style=" stroke:none;fill-rule:nonzero;fill:rgb(80.392157%,58.431373%,4.705882%);fill-opacity:1;" d="M 150.230469 261.691406 L 149.945313 263.488281 L 149.121094 265.109375 L 147.832031 266.398438 L 146.210938 267.222656 L 144.414063 267.507813 L 142.617188 267.222656 L 140.996094 266.398438 L 140.453125 265.851563 L 140.917969 265.085938 L 143.644531 263.800781 L 144.390625 261.886719 L 144.195313 260.621094 L 142.601563 256.71875 L 142.136719 256.40625 L 142.617188 256.160156 L 144.414063 255.875 L 146.210938 256.160156 L 147.832031 256.988281 L 149.121094 258.273438 L 149.945313 259.894531 Z M 150.230469 261.691406 "/>
<path style=" stroke:none;fill-rule:nonzero;fill:rgb(80.392157%,58.431373%,4.705882%);fill-opacity:1;" d="M 181.246094 288.832031 L 180.960938 290.628906 L 180.136719 292.25 L 178.847656 293.535156 L 177.226563 294.363281 L 175.429688 294.644531 L 173.632813 294.363281 L 172.011719 293.535156 L 171.859375 293.382813 L 174.074219 288.722656 L 176.464844 286.417969 L 178.757813 285.980469 L 180.191406 286.804688 L 180.808594 286.734375 L 180.960938 287.035156 Z M 171.902344 284.238281 L 172.011719 284.125 L 173.632813 283.300781 L 175.429688 283.015625 L 177.226563 283.300781 L 178.847656 284.125 L 180.066406 285.34375 L 180.035156 285.351563 L 174.65625 284.980469 L 172.566406 284.292969 Z M 171.902344 284.238281 "/>
<path style=" stroke:none;fill-rule:nonzero;fill:rgb(80.392157%,58.431373%,4.705882%);fill-opacity:1;" d="M 131.703125 427.441406 L 131.128906 426.320313 L 130.886719 424.78125 L 131.792969 424.328125 L 131.226563 422.867188 L 131.035156 423.320313 L 131.128906 422.726563 L 131.957031 421.105469 L 133.242188 419.816406 L 134.863281 418.992188 L 136.660156 418.707031 L 138.457031 418.992188 L 140.078125 419.816406 L 141.367188 421.105469 L 142.191406 422.726563 L 142.347656 423.710938 L 139.503906 423.714844 L 136.765625 424.277344 L 136.292969 426.515625 L 135.777344 427.203125 L 133.742188 427.917969 L 132.394531 427.265625 Z M 131.703125 427.441406 "/>
<path style=" stroke:none;fill-rule:nonzero;fill:rgb(80.392157%,58.431373%,4.705882%);fill-opacity:1;" d="M 189 168.644531 L 188.714844 170.441406 L 187.890625 172.0625 L 186.601563 173.351563 L 184.980469 174.175781 L 183.183594 174.460938 L 181.386719 174.175781 L 179.765625 173.351563 L 178.480469 172.0625 L 177.652344 170.441406 L 177.371094 168.644531 L 177.652344 166.847656 L 177.953125 166.257813 L 178.648438 166.167969 L 179.285156 167.089844 L 180.148438 167.667969 L 184.320313 169.011719 L 187.675781 167.128906 L 188.789063 167.308594 Z M 189 168.644531 "/>
<path style=" stroke:none;fill-rule:nonzero;fill:rgb(80.392157%,58.431373%,4.705882%);fill-opacity:1;" d="M 119.214844 490.429688 L 118.929688 492.226563 L 118.105469 493.847656 L 117.195313 494.757813 L 117.15625 494.691406 L 115.984375 493.691406 L 112.253906 492.070313 L 111.410156 491.984375 L 110.375 492.488281 L 110.242188 494.183594 L 109.679688 494.832031 L 108.695313 493.847656 L 107.871094 492.226563 L 107.585938 490.429688 L 107.675781 489.859375 L 111.738281 488.078125 L 112.199219 488.253906 L 112.445313 488.9375 L 113.574219 489.15625 L 117.476563 486.382813 L 118.105469 487.011719 L 118.929688 488.632813 Z M 119.214844 490.429688 "/>
<path style=" stroke:none;fill-rule:nonzero;fill:rgb(80.392157%,58.431373%,4.705882%);fill-opacity:1;" d="M 154.882813 359.800781 L 153.964844 360.269531 L 152.167969 360.554688 L 151.714844 360.480469 L 153.09375 359.609375 Z M 151.550781 360.457031 L 150.371094 360.269531 L 148.75 359.441406 L 147.464844 358.15625 L 146.636719 356.535156 L 146.355469 354.738281 L 146.636719 352.941406 L 147.433594 351.378906 L 149.566406 352.007813 L 151.039063 355.578125 L 155.546875 356.503906 L 154.066406 358.859375 Z M 151.550781 360.457031 "/>
<path style=" stroke:none;fill-rule:nonzero;fill:rgb(80.392157%,58.431373%,4.705882%);fill-opacity:1;" d="M 146.355469 405.136719 L 146.070313 406.933594 L 145.242188 408.558594 L 143.957031 409.84375 L 142.335938 410.667969 L 140.539063 410.953125 L 138.742188 410.667969 L 137.121094 409.84375 L 135.832031 408.558594 L 135.554688 408.007813 L 135.753906 407.632813 L 137.585938 406.550781 L 141.359375 406.660156 L 142.21875 406.390625 L 146.152344 403.875 Z M 146.355469 405.136719 "/>
<path style=" stroke:none;fill-rule:nonzero;fill:rgb(80.392157%,58.431373%,4.705882%);fill-opacity:1;" d="M 225.320313 65.828125 L 224.035156 65.625 L 223.882813 65.546875 L 224.308594 63.570313 L 223.632813 57.773438 L 221.078125 57.210938 L 222.089844 58.292969 L 222.21875 59.898438 L 220.292969 61.703125 L 220.265625 61.679688 L 220.015625 60.09375 L 220.300781 58.296875 L 221.125 56.675781 L 222.414063 55.386719 L 224.035156 54.5625 L 225.832031 54.277344 L 227.628906 54.5625 L 227.960938 54.730469 L 227.699219 56.234375 L 226.355469 57.007813 L 225.6875 56.476563 L 226.023438 58.453125 L 227.246094 61.769531 L 226.800781 62.460938 L 226.285156 62.238281 L 225.40625 63.738281 Z M 225.320313 65.828125 "/>
<path style=" stroke:none;fill-rule:nonzero;fill:rgb(80.392157%,58.431373%,4.705882%);fill-opacity:1;" d="M 126.96875 478.800781 L 126.683594 480.597656 L 125.859375 482.21875 L 124.570313 483.503906 L 122.949219 484.332031 L 121.152344 484.617188 L 119.882813 484.414063 L 121.425781 483.085938 L 124.375 479.769531 L 125.210938 477.886719 L 124.875 476.421875 L 125.453125 474.976563 L 125.859375 475.382813 L 126.683594 477.003906 Z M 126.96875 478.800781 "/>
<path style=" stroke:none;fill-rule:nonzero;fill:rgb(80.392157%,58.431373%,4.705882%);fill-opacity:1;" d="M 88.429688 500.046875 L 88.566406 499.308594 L 88.941406 499.117188 L 89.34375 499.789063 Z M 88.429688 500.046875 "/>
</g>
</svg>
