<?xml version="1.0" encoding="UTF-8"?>
<svg xmlns="http://www.w3.org/2000/svg" xmlns:xlink="http://www.w3.org/1999/xlink" width="378pt" height="504pt" viewBox="0 0 378 504" version="1.1">
<g id="data">
<rect x="0" y="0" width="378" height="504" style="fill:rgb(100%,100%,100%);fill-opacity:1;stroke:none;"/>
<path style=" stroke:none;fill-rule:nonzero;fill:rgb(100%,100%,100%);fill-opacity:1;" d="M 53.308594 504 L 324.691406 504 L 324.691406 0 L 53.308594 0 Z M 53.308594 504 "/>
<path style=" stroke:none;fill-rule:nonzero;fill:rgb(22.745098%,53.333333%,16.078431%);fill-opacity:1;" d="M 159.921875 153.136719 L 163.800781 153.136719 L 164.011719 154.960938 L 162.601563 156.074219 L 162.234375 157.082031 L 162.671875 158.175781 L 162.078125 159.632813 L 159.644531 160.289063 L 158.199219 159.8125 L 158.542969 159.34375 L 159.664063 156.335938 Z M 166.542969 160.632813 L 167.230469 161.28125 L 166.417969 162.609375 L 162.722656 166.96875 L 162.175781 167.183594 L 161.726563 166.894531 L 161.859375 165.949219 L 161.53125 165.507813 L 159.984375 165.785156 L 155.320313 167.769531 L 152.441406 170.8125 L 151.949219 171.945313 L 152.140625 172.144531 L 156.390625 168.453125 L 157.75 167.980469 L 160.300781 168.324219 L 161.058594 169.320313 L 157.109375 173.804688 L 156.367188 175.339844 L 156.707031 175.816406 L 157.367188 175.984375 L 158.261719 175.542969 L 161.140625 173.015625 L 167.808594 170.273438 L 170.480469 169.527344 L 170.492188 169.949219 L 171.554688 169.839844 L 173.589844 168.316406 L 174.046875 166.78125 L 177.1875 166.363281 L 177.308594 166.46875 L 179.507813 167.726563 L 181.679688 168.421875 L 183.066406 168.605469 L 184.320313 169.011719 L 184.722656 168.785156 L 194.816406 168.644531 L 196.960938 170.644531 L 199.417969 172 L 202.890625 172.804688 L 206.445313 172.523438 L 208.019531 173.996094 L 209.949219 175.210938 L 212.078125 176.027344 L 213.585938 176.292969 L 213.671875 176.582031 L 213.679688 177.035156 L 211.875 179.234375 L 210.839844 181.546875 L 210.832031 181.605469 L 209.382813 183.425781 L 207.15625 188.339844 L 206.847656 190.15625 L 206.5 191.402344 L 206.472656 193.648438 L 206.226563 194.742188 L 203.9375 198.859375 L 203.914063 199.039063 L 203.757813 199.285156 L 202.941406 201.417969 L 202.570313 203.539063 L 200.792969 205.519531 L 199.898438 207.132813 L 199.179688 207.605469 L 197.078125 210.023438 L 197.433594 210.839844 L 197.785156 210.703125 L 197.761719 211.238281 L 197.445313 212.273438 L 196.523438 213 L 194.816406 215.167969 L 192.617188 216.210938 L 190.6875 217.6875 L 189.175781 219.425781 L 188.648438 220.347656 L 185.519531 221.085938 L 182.847656 221.226563 L 177.804688 225.21875 L 178.117188 225.714844 L 179.84375 225.195313 L 184.609375 222.886719 L 186.457031 221.386719 L 187.289063 221.316406 L 188.023438 221.542969 L 187.199219 224.246094 L 186.898438 228.550781 L 187.210938 231.808594 L 187.34375 232.25 L 187.070313 232.078125 L 185.40625 232.042969 L 181.046875 235.800781 L 180.578125 237.003906 L 174.761719 240.109375 L 170.214844 238.117188 L 166.480469 238.003906 L 166.738281 239.222656 L 168.246094 240.195313 L 178.0625 241.875 L 182.921875 243.167969 L 186.398438 241.730469 L 187.519531 239.417969 L 188.617188 238.355469 L 189.539063 238.171875 L 190.777344 238.285156 L 192.28125 239.796875 L 194.273438 241.183594 L 198.253906 242.507813 L 199.023438 242.542969 L 199.339844 242.761719 L 206.488281 246.65625 L 208.910156 251.429688 L 212.824219 256.707031 L 213.265625 256.828125 L 213.433594 256.585938 L 214.0625 256.863281 L 213.886719 260.605469 L 214.246094 263.386719 L 215.648438 266.664063 L 218.078125 269.445313 L 216.289063 272.105469 L 215.320313 275.027344 L 215.160156 278.226563 L 215.878906 281.351563 L 218.078125 284.953125 L 218.332031 287.378906 L 219.140625 289.816406 L 221.128906 292.804688 L 222.953125 294.421875 L 225.078125 295.625 L 227.28125 296.328125 L 227.433594 296.34375 L 229.304688 299.0625 L 230.464844 299.605469 L 230.628906 300.261719 L 231.882813 302.460938 L 233.585938 304.339844 L 234.21875 308.128906 L 236.132813 311.605469 L 237.652344 313.175781 L 239.550781 314.496094 L 242.289063 315.59375 L 245.214844 315.96875 L 247.300781 317.816406 L 249.644531 319.070313 L 253.714844 319.949219 L 254.089844 319.933594 L 255.984375 320.8125 L 254.554688 322.414063 L 253.152344 325.414063 L 252.660156 328.433594 L 252.96875 331.476563 L 252.316406 334.84375 L 252.421875 337.003906 L 252.699219 338.136719 L 252.601563 338.082031 L 245.550781 339.511719 L 244.589844 338.644531 L 243.40625 338.558594 L 241.210938 339.871094 L 241.886719 340.445313 L 246.324219 340.394531 L 249.617188 339.34375 L 251.976563 339.082031 L 252.734375 340.179688 L 252.421875 341.457031 L 252.320313 343.746094 L 252.96875 346.984375 L 253.066406 349.285156 L 253.796875 352 L 255.234375 354.566406 L 257.472656 356.847656 L 260.722656 358.617188 L 263.445313 360.875 L 265.867188 361.972656 L 268.476563 362.492188 L 269.09375 365.324219 L 264.953125 369.09375 L 261.394531 373.164063 L 260.601563 374.816406 L 262.84375 374.3125 L 264.9375 375.519531 L 266.9375 378.226563 L 270.21875 378.804688 L 270.625 378.746094 L 271.910156 376.796875 L 272.234375 374.960938 L 273.40625 371.914063 L 273.953125 371.371094 L 275.875 372.453125 L 278.601563 373.144531 L 281.417969 373.160156 L 284.867188 372.203125 L 287.046875 370.777344 L 293.949219 371.515625 L 296.914063 372.84375 L 299.445313 374.695313 L 299.199219 377.550781 L 299.921875 380.914063 L 301.371094 383.609375 L 303.371094 385.753906 L 304.242188 389.3125 L 305.542969 391.632813 L 306.808594 393.027344 L 306.777344 393.191406 L 306.890625 393.976563 L 305.789063 396.917969 L 305.1875 399.808594 L 305.117188 399.890625 L 303.8125 402.773438 L 303.234375 406.261719 L 303.320313 408.039063 L 297.144531 414.53125 L 295.578125 412.011719 L 292.742188 410.515625 L 292.480469 410.636719 L 293.898438 413.703125 L 295.890625 416.628906 L 296.3125 416.765625 L 296.164063 417.742188 L 294.574219 419.804688 L 292.191406 421.289063 L 290.003906 421.65625 L 289.660156 421.574219 L 288.214844 419.332031 L 284.976563 421.730469 L 280.71875 424.230469 L 282.339844 425.378906 L 285.105469 424.398438 L 286.097656 423.375 L 286.894531 423.164063 L 287.328125 423.710938 L 287.632813 428.84375 L 285.6875 430.875 L 283.441406 432.558594 L 282.84375 432.699219 L 279.644531 432.160156 L 274.75 433.78125 L 272.609375 436.117188 L 274.253906 436.015625 L 275.152344 434.667969 L 276.683594 434.363281 L 278.285156 434.328125 L 281.054688 434.949219 L 281.828125 435.589844 L 281.691406 436.328125 L 279.554688 436.347656 L 277.390625 437.65625 L 277.96875 438.546875 L 281.382813 438.964844 L 286.863281 440.339844 L 289.394531 439.9375 L 291.074219 438.957031 L 296.425781 438.214844 L 299.492188 440.03125 L 298.019531 441.601563 L 296.804688 443.53125 L 295.988281 445.664063 L 295.617188 447.785156 L 293.445313 449.492188 L 291.738281 451.660156 L 289.933594 453.019531 L 287.863281 455.539063 L 285.515625 457.425781 L 285.011719 458.078125 L 284.1875 457.9375 L 282.308594 459.710938 L 281.863281 459.789063 L 279.734375 460.605469 L 277.804688 461.820313 L 277.425781 462.175781 L 274.789063 462.777344 L 272.597656 463.816406 L 272.097656 464.492188 L 271.308594 464.84375 L 269.015625 466.726563 L 267.472656 466.257813 L 266.601563 465.46875 L 264.398438 464.214844 L 256.25 461.8125 L 252.550781 461.976563 L 249.09375 463.292969 L 244.960938 462.628906 L 238.28125 463.523438 L 238.046875 463.605469 L 237.714844 463.296875 L 231.496094 463.171875 L 231.378906 463.496094 L 232.574219 464.835938 L 232.214844 465.75 L 231.738281 466.042969 L 226.691406 465.496094 L 219.566406 468.449219 L 217.054688 467.824219 L 210.222656 468.96875 L 208.164063 468.875 L 207.273438 468.058594 L 206.238281 469.769531 L 209.429688 471.089844 L 209.714844 470.9375 L 210.1875 472.128906 L 209.566406 473.890625 L 208.867188 474.035156 L 206.71875 472.726563 L 202.570313 471.960938 L 200.394531 472.363281 L 197.625 472.007813 L 196.175781 472.65625 L 195.679688 473.863281 L 195.753906 474.351563 L 195.222656 474.675781 L 194.851563 473.972656 L 192.574219 472.285156 L 192.464844 472.15625 L 191.6875 471.628906 L 190.289063 470.589844 L 189.878906 470.394531 L 188.046875 469.148438 L 186.121094 468.625 L 185.898438 468.519531 L 185.332031 468.410156 L 184.339844 468.140625 L 184.03125 468.160156 L 183.121094 467.984375 L 182.777344 468.238281 L 180.632813 468.367188 L 177.859375 469.375 L 177.523438 469.609375 L 176.207031 469.78125 L 174.339844 470.335938 L 168.992188 473.234375 L 168.214844 474.070313 L 167.925781 474.675781 L 166.566406 475.980469 L 164.925781 478.257813 L 163.847656 480.984375 L 163.484375 483.765625 L 163.765625 486.242188 L 163.71875 486.378906 L 162.890625 484.578125 L 161.542969 482.710938 L 159.957031 481.222656 L 158.003906 479.996094 L 154.214844 478.863281 L 148.292969 478.800781 L 146.660156 477.355469 L 144.785156 476.242188 L 140.714844 475.15625 L 136.894531 475.488281 L 133.285156 477.117188 L 130.824219 479.355469 L 128.90625 482.675781 L 127.746094 483.863281 L 128.613281 481.398438 L 128.90625 478.800781 L 131.296875 477.855469 L 133.417969 476.410156 L 135.25 474.425781 L 136.523438 472.195313 L 137.199219 470.117188 L 137.476563 467.824219 L 137.335938 466.007813 L 138.636719 464.640625 L 138.78125 462.847656 L 139.511719 462.691406 L 142.226563 461.335938 L 145.144531 458.710938 L 146.804688 456.472656 L 148.097656 452.855469 L 148.429688 452.488281 L 148.335938 451.078125 L 148.449219 450.039063 L 148.292969 447.785156 L 149.792969 447.007813 L 151.105469 446.613281 L 155.246094 446.386719 L 155.328125 446.445313 L 158.292969 447.542969 L 161.296875 447.933594 L 163.800781 447.785156 L 166.8125 448.421875 L 169.125 448.367188 L 170.128906 448.148438 L 170.757813 448.421875 L 173.15625 448.464844 L 180.570313 447.503906 L 181.109375 445.632813 L 181.210938 443.15625 L 182.519531 440.25 L 190.867188 432.195313 L 195.792969 425.3125 L 197.929688 424.472656 L 198.285156 423.78125 L 198.070313 423.238281 L 197.8125 423.082031 L 196.09375 424.355469 L 192.90625 427.300781 L 190.570313 429.988281 L 189.222656 431.449219 L 185.628906 432.957031 L 183.714844 433.246094 L 182.441406 433.0625 L 181.210938 433.722656 L 181.515625 433.332031 L 182.757813 429.976563 L 182.988281 427.808594 L 182.8125 425.636719 L 182.230469 423.535156 L 181.269531 421.578125 L 179.046875 418.933594 L 176.257813 417.117188 L 172.195313 415.539063 L 168.105469 415.386719 L 165.859375 415.9375 L 163.65625 416.984375 L 161.625 418.558594 L 159.921875 420.644531 L 157.90625 421.46875 L 155.980469 422.738281 L 153.648438 425.28125 L 152.925781 426.808594 L 152.808594 426.597656 L 150.160156 426.527344 L 148.152344 425.300781 L 145.734375 424.480469 L 144.21875 424.316406 L 143.210938 423.710938 L 139.503906 423.714844 L 136.765625 424.277344 L 136.46875 425.691406 L 134.765625 426.625 L 133.46875 427.785156 L 132.394531 427.265625 L 131.683594 427.445313 L 130.492188 426.410156 L 129.042969 425.707031 L 131.792969 424.328125 L 131.226563 422.867188 L 130.640625 424.257813 L 127.769531 424.613281 L 122.949219 424.152344 L 121.496094 423.164063 L 124.125 421.78125 L 125.167969 421.753906 L 125.464844 421.238281 L 124.929688 417.953125 L 123.328125 417.210938 L 121.445313 417.105469 L 121.753906 416.128906 L 122.625 415.195313 L 122.894531 414.769531 L 125.933594 413.378906 L 126.539063 411.90625 L 133.074219 411.34375 L 134.871094 409.289063 L 135.753906 407.632813 L 137.585938 406.550781 L 141.359375 406.660156 L 142.21875 406.390625 L 145.871094 404.058594 L 146.601563 403.824219 L 148.722656 402.394531 L 149.105469 401.992188 L 149.359375 401.828125 L 149.796875 401.257813 L 150.480469 400.535156 L 150.84375 399.890625 L 152.136719 398.207031 L 153.054688 396.195313 L 153.148438 395.835938 L 154.507813 393.4375 L 155.152344 390.046875 L 154.773438 386.617188 L 153.574219 383.84375 L 154.652344 381.796875 L 152.269531 378.203125 L 152.683594 374.835938 L 153.175781 374.082031 L 152.804688 373.207031 L 150.203125 373.105469 L 145.449219 374.257813 L 143.757813 375.484375 L 142.410156 377.535156 L 139.648438 377.367188 L 136.660156 378 L 138.832031 376.292969 L 140.539063 374.125 L 142.933594 372.894531 L 144.894531 371.246094 L 146.574219 368.984375 L 146.910156 368.179688 L 147.132813 367.984375 L 147.320313 367.199219 L 147.660156 366.382813 L 147.9375 364.597656 L 147.953125 364.523438 L 151.550781 360.582031 L 153.09375 359.609375 L 154.941406 359.808594 L 158.132813 358.457031 L 161.296875 358.765625 L 166.304688 358.765625 L 169.183594 358.390625 L 171.46875 357.644531 L 173.554688 356.441406 L 174.785156 355.324219 L 179.910156 359.441406 L 180.433594 358.429688 L 177.695313 353.488281 L 178.785156 352.890625 L 178.921875 352.734375 L 180.867188 352.449219 L 181.503906 352.695313 L 181.914063 353.875 L 182.898438 354.332031 L 184.078125 356.789063 L 185.613281 357.902344 L 188.359375 357.621094 L 190.335938 355.148438 L 189.90625 355.050781 L 188.667969 355.527344 L 188.3125 355.957031 L 186.378906 356.386719 L 183.8125 354.640625 L 181.550781 349.738281 L 181.558594 349.730469 L 182.867188 346.539063 L 183.183594 343.109375 L 185.199219 340.621094 L 186.421875 337.800781 L 186.859375 335.019531 L 186.613281 332.210938 L 185.644531 329.429688 L 185.015625 328.476563 L 187.097656 323.835938 L 188.140625 327.746094 L 189.3125 329.703125 L 190.9375 331.476563 L 191.496094 334.207031 L 192.621094 336.617188 L 194.816406 339.230469 L 196.59375 342.769531 L 198.929688 345.132813 L 201.011719 346.386719 L 203.429688 347.253906 L 205.710938 347.632813 L 207.894531 347.570313 L 210.152344 347.058594 L 212.261719 346.109375 L 214.144531 344.761719 L 215.71875 343.070313 L 217.382813 340.03125 L 217.960938 337.792969 L 218.078125 335.355469 L 220.078125 332.226563 L 220.980469 328.753906 L 220.96875 326.316406 L 220.445313 323.933594 L 219.4375 321.714844 L 218.078125 319.847656 L 219.976563 318.402344 L 221.953125 315.96875 L 224.476563 313.792969 L 225.746094 312.015625 L 226.664063 310.035156 L 227.257813 307.40625 L 227.234375 304.710938 L 226.675781 302.335938 L 225.339844 299.277344 L 224.0625 297.210938 L 222.382813 295.453125 L 220.375 294.082031 L 218.25 293.195313 L 210.285156 292.035156 L 207.734375 292.324219 L 205.304688 293.164063 L 202.433594 295.101563 L 200.261719 297.796875 L 198.980469 301.015625 L 198.691406 304.339844 L 196.015625 304.652344 L 193.480469 305.570313 L 191.226563 307.050781 L 189.375 309.007813 L 187.578125 312.546875 L 186.480469 318.445313 L 186.492188 318.820313 L 184.742188 320.527344 L 179.269531 323.402344 L 178.855469 319.792969 L 177.042969 316.140625 L 174.601563 313.707031 L 172.417969 312.550781 L 172.289063 311.832031 L 171.554688 310.753906 L 171.554688 308.214844 L 172.109375 305.96875 L 172.199219 303.53125 L 171.667969 300.753906 L 170.546875 298.300781 L 169.917969 297.46875 L 174.074219 288.722656 L 176.464844 286.417969 L 178.757813 285.980469 L 180.191406 286.804688 L 181.015625 286.710938 L 182.933594 286.238281 L 183.03125 285.160156 L 182.34375 284.746094 L 180.035156 285.351563 L 174.65625 284.980469 L 172.566406 284.292969 L 169.453125 284.03125 L 168.226563 288.992188 L 166.234375 288.695313 L 163.3125 290.011719 L 161.832031 291.855469 L 160.472656 292.785156 L 158.636719 292.703125 L 155.851563 293.210938 L 155.160156 292.984375 L 149.984375 289.230469 L 149.214844 288.042969 L 149.230469 287.167969 L 148.945313 287.023438 L 148.15625 288.078125 L 147.988281 288.910156 L 148.375 290.554688 L 149.574219 292.960938 L 149.839844 295.726563 L 149.308594 296.871094 L 148.746094 297.058594 L 145.816406 295.78125 L 144.601563 294.238281 L 144.507813 293.621094 L 143.632813 292.355469 L 141.613281 291.4375 L 140.164063 290.433594 L 138.398438 288.636719 L 137.464844 288.296875 L 135.511719 289.683594 L 135.085938 290.414063 L 134.242188 288.796875 L 131.851563 286.492188 L 129.3125 285.164063 L 129.300781 285.09375 L 129.71875 282.265625 L 132.777344 280.410156 L 134.003906 276.632813 L 137.757813 273.035156 L 138.601563 268.871094 L 140.917969 265.085938 L 143.644531 263.800781 L 144.390625 261.886719 L 144.195313 260.621094 L 142.601563 256.71875 L 139.777344 254.832031 L 137.378906 252.511719 L 138.6875 242.234375 L 140.710938 241.59375 L 142.886719 242.511719 L 146.15625 243.175781 L 148.300781 243.253906 L 141.261719 240.453125 L 140.441406 240.5625 L 139.386719 240.085938 L 139.3125 239.390625 L 140.539063 238.429688 L 144.414063 238.429688 L 147.707031 238.957031 L 150.886719 238.5625 L 154.382813 236.96875 L 157.171875 234.324219 L 159.019531 230.671875 L 159.480469 226.472656 L 158.464844 222.507813 L 156.046875 219.046875 L 158.894531 216.597656 L 161.699219 213.1875 L 163.023438 210.742188 L 163.628906 208.671875 L 164.109375 205.136719 L 163.960938 202.84375 L 163.367188 200.625 L 161.289063 197.125 L 158.125 193.605469 L 155.746094 191.863281 L 153.003906 190.777344 L 150.074219 190.414063 L 147.148438 190.796875 L 144.414063 191.90625 L 142.707031 189.738281 L 140.539063 188.03125 L 142.332031 185.382813 L 143.359375 182.222656 L 143.464844 179.027344 L 142.699219 175.921875 L 141.113281 173.144531 L 138.832031 170.90625 L 135.910156 169.324219 L 132.785156 168.644531 L 133.191406 166.402344 L 133.972656 164.394531 L 135.1875 162.464844 L 136.660156 160.890625 L 138.4375 162.519531 L 140.507813 163.746094 L 146.28125 165.261719 L 150.378906 165.257813 L 154.109375 163.894531 L 156.644531 161.925781 L 157.421875 160.867188 L 161.363281 161.917969 L 164.042969 162.292969 L 165.242188 161.992188 L 166.015625 161.605469 Z M 236.945313 463.988281 L 236.097656 464.28125 L 236.523438 463.683594 Z M 231.785156 467.558594 L 231.027344 468.417969 L 229.707031 471.046875 L 222.542969 471.046875 L 222.296875 470.886719 L 221.53125 470.996094 L 220.472656 470.871094 L 221.476563 469.683594 L 227.316406 466.367188 Z M 152.332031 428.058594 L 152.167969 428.398438 L 151.996094 428.234375 Z M 148.074219 363.402344 L 147.839844 360.792969 L 146.558594 357.449219 L 144.414063 354.738281 L 144.414063 351.296875 L 144.664063 351.183594 L 146.003906 350.957031 L 148.746094 351.765625 L 149.609375 353.488281 L 150.695313 354.742188 L 151.039063 355.578125 L 151.542969 355.683594 L 153.746094 357.242188 L 154.824219 357.65625 L 154.066406 358.859375 L 150.984375 360.816406 Z M 148.292969 308.539063 L 148.292969 315.96875 L 146.121094 317.675781 L 144.414063 319.847656 L 140.855469 320.714844 L 137.765625 322.660156 L 137.847656 322.417969 L 139.667969 319.527344 L 140.480469 316.214844 L 142.300781 315.023438 L 144.765625 310.230469 L 145.863281 309.40625 Z M 136.769531 296.640625 L 136.660156 296.585938 L 136.609375 296.167969 L 136.734375 296.308594 Z M 117.386719 268.855469 L 117.9375 265.953125 L 117.804688 263.792969 L 117.320313 261.867188 L 117.492188 260.4375 L 117.941406 257.816406 L 117.863281 257.347656 L 117.992188 256.269531 L 120.664063 249.058594 L 119.164063 246.890625 L 119.359375 242.367188 L 121.945313 238.054688 L 122.191406 237.09375 L 120.824219 237.742188 L 119.636719 239.75 L 119.488281 239.09375 L 120.046875 237.867188 L 121.652344 235.003906 L 121.671875 235.085938 L 122.988281 237.292969 L 124.855469 239.238281 L 125.546875 239.6875 L 126.1875 249.699219 L 124.449219 251.558594 L 123.367188 254.191406 L 121.183594 263.964844 L 122.0625 266.289063 L 120.679688 268.164063 L 119.945313 268.597656 Z M 119.921875 230.265625 L 119.886719 230.179688 L 119.917969 230.164063 Z M 116.367188 225.011719 L 116.136719 224.753906 L 115.507813 224.441406 L 116.136719 223.339844 L 115.425781 223.117188 L 114.21875 223.792969 L 112.363281 222.859375 L 110.753906 222.695313 L 112.214844 222.164063 L 112.035156 221.589844 L 109.863281 222.445313 L 108.601563 222.480469 L 108.175781 222.4375 L 108.175781 222.425781 L 111.011719 221.097656 L 113.398438 219.046875 L 116.703125 221.140625 L 120.371094 221.984375 L 119.445313 223.339844 Z M 121.105469 226.59375 L 121.152344 226.800781 L 121.140625 226.871094 Z M 121.03125 227.402344 L 120.6875 229.0625 L 120.679688 230.074219 L 120.316406 229.273438 L 120.976563 227.386719 Z M 127.9375 240.984375 L 129.535156 241.574219 L 132.46875 241.894531 L 135.511719 241.429688 L 138.214844 240.253906 L 138.339844 240.15625 L 138.320313 240.257813 L 136.15625 245.152344 L 135.023438 244.945313 L 131.566406 242.222656 L 130.757813 242.5 L 130.269531 243.347656 L 130.09375 244.535156 L 130.664063 246.308594 L 130.519531 246.613281 L 128.257813 245.464844 L 127.46875 243.074219 Z M 121.152344 494.308594 L 118.914063 492.238281 L 116.089844 490.78125 L 119.8125 490.152344 L 121.992188 489.429688 L 124.199219 488.148438 L 126.152344 486.316406 L 125.402344 488.324219 L 125.058594 490.273438 L 124.039063 490.597656 L 123.851563 491.355469 L 122.859375 492.136719 Z M 286.679688 439.636719 L 283.058594 438.976563 L 282.164063 437.605469 L 282.484375 436.070313 L 286.839844 437.054688 L 287.960938 438.832031 Z M 134.8125 251.347656 L 132.589844 248.835938 L 130.84375 244.566406 L 130.707031 243.464844 L 131.460938 242.613281 L 133.71875 244.574219 L 134.707031 246.3125 L 135.339844 249.003906 L 135.222656 250.96875 Z M 130.613281 263.773438 L 129.152344 263.667969 L 126.582031 261.613281 L 125.375 256.128906 L 125.988281 253.21875 L 128.179688 251.246094 L 129.539063 251.441406 L 131.390625 253.015625 L 132.984375 258.382813 L 133.019531 262.765625 L 132.308594 263.453125 Z M 130.613281 263.773438 "/>
</g>
</svg>
