<?xml version="1.0" encoding="UTF-8"?>
<svg xmlns="http://www.w3.org/2000/svg" xmlns:xlink="http://www.w3.org/1999/xlink" width="378pt" height="504pt" viewBox="0 0 378 504" version="1.1">
<g id="data">
<rect x="0" y="0" width="378" height="504" style="fill:rgb(100%,100%,100%);fill-opacity:1;stroke:none;"/>
<path style=" stroke:none;fill-rule:nonzero;fill:rgb(100%,100%,100%);fill-opacity:1;" d="M 53.308594 504 L 324.691406 504 L 324.691406 0 L 53.308594 0 Z M 53.308594 504 "/>
<path style=" stroke:none;fill-rule:nonzero;fill:rgb(22.745098%,53.333333%,16.078431%);fill-opacity:1;" d="M 120.519531 483.867188 L 121.90625 483.652344 L 122.421875 483.730469 L 122.320313 483.222656 L 122.472656 481.90625 L 124.375 479.769531 L 125.210938 477.886719 L 124.875 476.421875 L 125.640625 474.519531 L 128.386719 473.238281 L 132.105469 472.640625 L 132.679688 471.785156 L 133.078125 470.21875 L 133.960938 469.257813 L 134.164063 468.84375 L 135.859375 467.5625 L 138.636719 464.640625 L 139.128906 458.542969 L 139.503906 456.414063 L 140.769531 454.878906 L 142.492188 455.105469 L 144.269531 456.015625 L 145.761719 455.429688 L 148.429688 452.488281 L 148.105469 447.519531 L 151.105469 446.613281 L 157.421875 446.269531 L 159.910156 445.683594 L 164.597656 446.761719 L 165.722656 446.285156 L 166.175781 447.121094 L 167.28125 448.257813 L 168.667969 449.058594 L 170.175781 449.445313 L 171.460938 449.453125 L 172.761719 449.152344 L 173.945313 448.566406 L 174.230469 448.328125 L 180.570313 447.503906 L 180.96875 446.121094 L 182.457031 446.773438 L 183.824219 447.996094 L 184.742188 449.589844 L 185.117188 451.386719 L 185.203125 453.210938 L 185.511719 454.386719 L 186.058594 455.46875 L 186.820313 456.414063 L 187.765625 457.179688 L 188.84375 457.730469 L 190.019531 458.046875 L 191.164063 458.105469 L 192.726563 457.820313 L 194.523438 457.027344 L 195.667969 456.078125 L 196.546875 454.832031 L 197.210938 453.011719 L 197.363281 451.472656 L 197.105469 449.917969 L 196.398438 448.269531 L 194.9375 446.640625 L 192.148438 445.199219 L 190.617188 444.054688 L 189.542969 442.480469 L 189.03125 440.640625 L 188.839844 438.808594 L 188.5 437.742188 L 187.894531 436.671875 L 187.242188 435.9375 L 187.085938 435.839844 L 190.867188 432.195313 L 195.792969 425.3125 L 197.929688 424.472656 L 198.285156 423.78125 L 198.070313 423.238281 L 197.8125 423.082031 L 196.09375 424.355469 L 192.90625 427.300781 L 190.570313 429.988281 L 189.222656 431.449219 L 185.628906 432.957031 L 183.714844 433.246094 L 182.441406 433.0625 L 181.050781 433.804688 L 181.023438 433.796875 L 179.582031 432.964844 L 178.4375 431.761719 L 177.683594 430.28125 L 177.375 428.648438 L 177.300781 426.941406 L 177.003906 425.753906 L 176.464844 424.652344 L 175.839844 423.847656 L 174.441406 422.730469 L 171.660156 421.449219 L 170.464844 421.171875 L 169.175781 421.152344 L 167.910156 421.417969 L 166.847656 421.894531 L 165.761719 422.707031 L 164.410156 424.347656 L 162.273438 425.964844 L 160.34375 426.816406 L 159.238281 427.671875 L 158.382813 428.753906 L 158.136719 429.300781 L 155.65625 429.589844 L 149.269531 432.308594 L 149.113281 432.746094 L 147.203125 431.632813 L 146.917969 429.308594 L 148.539063 428.378906 L 150.066406 428.890625 L 151.640625 428.421875 L 152.765625 427.832031 L 153.085938 427.097656 L 152.808594 426.597656 L 147.785156 426.460938 L 143.210938 423.710938 L 139.503906 423.714844 L 136.765625 424.277344 L 136.292969 426.515625 L 135.777344 427.203125 L 133.742188 427.917969 L 132.394531 427.265625 L 131.648438 427.453125 L 129.4375 429.378906 L 126.53125 428.132813 L 127.425781 426.082031 L 128.796875 425.832031 L 131.792969 424.328125 L 131.226563 422.867188 L 130.640625 424.257813 L 127.769531 424.613281 L 122.949219 424.152344 L 121.496094 423.164063 L 124.125 421.78125 L 125.167969 421.753906 L 125.464844 421.238281 L 124.929688 417.953125 L 123.328125 417.210938 L 121.445313 417.105469 L 122.0625 415.152344 L 125.933594 413.378906 L 126.539063 411.90625 L 133.074219 411.34375 L 134.871094 409.289063 L 135.753906 407.632813 L 137.585938 406.550781 L 141.359375 406.660156 L 142.21875 406.390625 L 149.359375 401.828125 L 152.136719 398.207031 L 153.054688 396.195313 L 154.199219 391.746094 L 153.734375 388.820313 L 152.566406 386.542969 L 153.179688 384.597656 L 154.652344 381.796875 L 152.269531 378.203125 L 152.683594 374.835938 L 153.175781 374.082031 L 152.804688 373.207031 L 150.203125 373.105469 L 145.449219 374.257813 L 143.757813 375.484375 L 142.039063 378.097656 L 136.757813 378.433594 L 136.246094 378.0625 L 137.339844 376.066406 L 140.148438 373.019531 L 141.023438 372.414063 L 142.589844 371.953125 L 147.132813 367.984375 L 147.953125 364.523438 L 151.550781 360.582031 L 153.09375 359.609375 L 154.941406 359.808594 L 160.492188 357.457031 L 163.644531 357.28125 L 167.339844 357.714844 L 172.597656 355.179688 L 173.933594 355.046875 L 174.484375 355.082031 L 179.910156 359.441406 L 180.433594 358.429688 L 177.679688 353.460938 L 178.242188 352.835938 L 180.867188 352.449219 L 181.503906 352.695313 L 181.914063 353.875 L 182.898438 354.332031 L 184.078125 356.789063 L 185.613281 357.902344 L 188.359375 357.621094 L 190.335938 355.148438 L 189.90625 355.050781 L 188.667969 355.527344 L 188.3125 355.957031 L 186.378906 356.386719 L 183.8125 354.640625 L 182.945313 352.761719 L 183.664063 353.019531 L 184.695313 353.082031 L 186.664063 352.816406 L 188.765625 352.136719 L 190.335938 350.953125 L 191.445313 349.253906 L 191.898438 347.277344 L 191.535156 344.359375 L 191.582031 342.625 L 192.136719 340.980469 L 193.152344 339.574219 L 194.539063 338.527344 L 196.167969 337.9375 L 197.902344 337.859375 L 199.582031 338.289063 L 201.058594 339.199219 L 202.855469 340.71875 L 204.996094 341.699219 L 206.710938 342.902344 L 207.890625 344.636719 L 208.933594 347.003906 L 210.121094 348.371094 L 211.164063 349.074219 L 212.203125 349.46875 L 214.195313 349.65625 L 216.792969 349.066406 L 219.484375 349.097656 L 221.71875 349.652344 L 223.179688 349.625 L 224.917969 349.070313 L 226.378906 348.015625 L 227.589844 346.28125 L 228.367188 343.488281 L 228.355469 342.414063 L 227.921875 340.558594 L 227.769531 339.269531 L 227.738281 334.269531 L 227.339844 332.613281 L 226.519531 331.167969 L 225.339844 330.027344 L 223.136719 328.878906 L 221.855469 327.96875 L 220.6875 326.875 L 219.714844 326.261719 L 218.640625 325.851563 L 217.066406 325.574219 L 215.273438 324.941406 L 213.777344 323.761719 L 212.746094 322.164063 L 212.28125 320.320313 L 212.4375 318.425781 L 213.199219 316.679688 L 214.480469 315.273438 L 216.105469 313.996094 L 217.382813 312.375 L 218.5 311.292969 L 219.863281 310.542969 L 221.375 310.183594 L 223.113281 310.007813 L 224.125 309.703125 L 225.15625 309.160156 L 226.046875 308.429688 L 226.773438 307.539063 L 227.320313 306.507813 L 227.625 305.5 L 227.796875 303.761719 L 228.28125 301.949219 L 229.320313 300.386719 L 230.375 299.5625 L 239.375 303.761719 L 239.636719 305.804688 L 240.144531 307.09375 L 240.957031 308.234375 L 241.960938 309.09375 L 243.597656 309.859375 L 246.046875 310.214844 L 247.285156 310.574219 L 249.289063 315.722656 L 252.390625 319.148438 L 256.121094 320.875 L 257.207031 321.722656 L 254.738281 323.09375 L 253.890625 324.554688 L 253.765625 325.996094 L 254.984375 329.992188 L 256.160156 332.453125 L 258.238281 335.363281 L 258.710938 338.308594 L 258.617188 340.621094 L 258.207031 342.285156 L 258.183594 342.78125 L 257.507813 342.753906 L 256.035156 341.773438 L 253.664063 338.65625 L 252.601563 338.082031 L 245.550781 339.511719 L 244.589844 338.644531 L 243.40625 338.558594 L 241.210938 339.871094 L 241.886719 340.445313 L 246.324219 340.394531 L 249.617188 339.34375 L 251.976563 339.082031 L 254.382813 342.558594 L 258.707031 346.117188 L 258.773438 346.609375 L 258.902344 348.644531 L 259.457031 350.261719 L 260.441406 351.65625 L 261.480469 352.515625 L 263.273438 353.390625 L 264.363281 354.082031 L 266.792969 356.03125 L 267.703125 356.417969 L 267.792969 356.4375 L 268.980469 359.304688 L 269.535156 362.402344 L 269.210938 365.21875 L 264.953125 369.09375 L 261.394531 373.164063 L 260.601563 374.816406 L 262.84375 374.3125 L 264.9375 375.519531 L 266.9375 378.226563 L 270.21875 378.804688 L 270.625 378.746094 L 271.910156 376.796875 L 272.234375 374.960938 L 273.40625 371.914063 L 274.707031 370.632813 L 277.851563 370.085938 L 283.34375 370.234375 L 284.253906 370.867188 L 286.703125 370.742188 L 293.949219 371.515625 L 296.914063 372.84375 L 304.070313 378.085938 L 305.367188 380.105469 L 306.730469 384.164063 L 307.179688 391.25 L 306.777344 393.191406 L 306.890625 393.976563 L 305.789063 396.917969 L 303.519531 407.832031 L 297.144531 414.53125 L 295.578125 412.011719 L 292.742188 410.515625 L 292.480469 410.636719 L 293.898438 413.703125 L 295.890625 416.628906 L 296.3125 416.765625 L 296.164063 417.742188 L 294.574219 419.804688 L 292.191406 421.289063 L 290.003906 421.65625 L 289.660156 421.574219 L 288.214844 419.332031 L 284.976563 421.730469 L 280.71875 424.230469 L 282.339844 425.378906 L 285.105469 424.398438 L 286.097656 423.375 L 286.894531 423.164063 L 287.328125 423.710938 L 287.632813 428.84375 L 285.6875 430.875 L 283.441406 432.558594 L 282.84375 432.699219 L 279.644531 432.160156 L 274.75 433.78125 L 272.609375 436.117188 L 274.253906 436.015625 L 275.152344 434.667969 L 276.683594 434.363281 L 278.285156 434.328125 L 281.054688 434.949219 L 281.828125 435.589844 L 281.691406 436.328125 L 279.554688 436.347656 L 277.390625 437.65625 L 277.96875 438.546875 L 281.382813 438.964844 L 286.863281 440.339844 L 289.394531 439.9375 L 291.074219 438.957031 L 299.742188 437.757813 L 300.988281 440.148438 L 300.773438 446.324219 L 300.625 446.824219 L 298.875 448.898438 L 298.5625 449.460938 L 296.972656 450.242188 L 295.839844 450.375 L 292.621094 451.640625 L 291.179688 452.742188 L 289.847656 454.226563 L 289.460938 455.09375 L 289.214844 456.324219 L 289.464844 457.886719 L 286.253906 458.289063 L 284.1875 457.9375 L 281.042969 460.90625 L 278.484375 461.933594 L 274.789063 462.777344 L 272.597656 463.816406 L 270.539063 466.589844 L 269.761719 466.949219 L 259.269531 463.777344 L 256.070313 463.507813 L 244.628906 465.699219 L 242.703125 466.390625 L 242.113281 466.964844 L 241.902344 467.984375 L 241.359375 468.164063 L 238.210938 466.1875 L 238.632813 465.4375 L 239.46875 464.933594 L 237.714844 463.296875 L 231.496094 463.171875 L 231.378906 463.496094 L 232.574219 464.835938 L 232.214844 465.75 L 231.738281 466.042969 L 226.691406 465.496094 L 219.566406 468.449219 L 217.054688 467.824219 L 210.222656 468.96875 L 208.164063 468.875 L 207.273438 468.058594 L 206.238281 469.769531 L 209.429688 471.089844 L 209.714844 470.9375 L 210.1875 472.128906 L 209.566406 473.890625 L 206.84375 474.453125 L 204.453125 473.097656 L 203.015625 472.699219 L 197.625 472.007813 L 196.175781 472.65625 L 195.679688 473.863281 L 195.832031 474.871094 L 196.757813 475.523438 L 196.488281 476.304688 L 195.917969 475.996094 L 194.851563 473.972656 L 190.289063 470.589844 L 185.898438 468.519531 L 183.121094 467.984375 L 181.648438 469.066406 L 176.207031 469.78125 L 174.339844 470.335938 L 168.992188 473.234375 L 168.214844 474.070313 L 167.203125 476.179688 L 162.746094 489.226563 L 160.929688 490.242188 L 159.117188 489.886719 L 158.660156 489.273438 L 157.460938 487.011719 L 156.230469 485.792969 L 154.4375 484.914063 L 151.507813 484.578125 L 149.847656 484.066406 L 148.46875 482.535156 L 147.757813 482.585938 L 146.085938 480.675781 L 144.550781 479.722656 L 143.359375 479.371094 L 142.007813 479.292969 L 140.78125 479.503906 L 138.90625 480.289063 L 137.21875 480.710938 L 136.597656 480.679688 L 136.074219 481.707031 L 134.992188 483.230469 L 134.527344 484.320313 L 134.507813 484.320313 L 132.167969 484.859375 L 129.414063 488.195313 L 128.394531 488.78125 L 127.621094 488.703125 L 127.714844 489.171875 L 126.714844 489.746094 L 124.039063 490.597656 L 123.132813 494.289063 L 123.664063 495.292969 L 123.496094 496.125 L 122.722656 496.945313 L 120.660156 497.648438 L 119.628906 499.730469 L 118.675781 498.910156 L 117.96875 497.691406 L 118.09375 496.4375 L 117.15625 494.691406 L 115.984375 493.691406 L 112.253906 492.070313 L 111.410156 491.984375 L 110.558594 492.398438 L 110.394531 491.949219 L 110.300781 490.226563 L 110.714844 488.558594 L 110.742188 488.515625 L 111.738281 488.078125 L 112.199219 488.253906 L 112.445313 488.9375 L 113.574219 489.15625 L 118.144531 485.910156 Z M 109.746094 214.519531 L 111.308594 213.621094 L 113.066406 213.242188 L 113.371094 213.269531 L 113.785156 214.699219 L 116.457031 215.945313 L 117.929688 216.300781 L 121.195313 219.144531 L 120.902344 221.207031 L 119.445313 223.339844 L 116.335938 225.03125 L 115.453125 224.539063 L 116.136719 223.339844 L 115.425781 223.117188 L 112.109375 224.96875 L 107.210938 226.273438 L 106.847656 226.070313 L 105.644531 224.8125 L 104.867188 223.25 L 104.835938 223.074219 L 105.628906 223.050781 L 106.039063 223.617188 L 106.972656 224.074219 L 112.214844 222.164063 L 112.035156 221.589844 L 109.863281 222.445313 L 108.199219 222.488281 L 107.824219 221.539063 L 109.386719 219.472656 L 112.601563 217.957031 L 112.90625 216.820313 L 112.554688 216.699219 L 109.90625 217.519531 L 107.847656 216.054688 Z M 114.609375 213.390625 L 114.859375 213.417969 L 116.511719 214.132813 L 118.976563 215.695313 L 121.824219 216.351563 L 121.960938 216.410156 L 120.675781 217.269531 L 120.230469 216.390625 L 115.878906 214.433594 L 114.8125 213.664063 Z M 126.085938 220.613281 L 126.328125 221.839844 L 126.386719 223.714844 L 126.804688 225.417969 L 126.960938 227.132813 L 126.605469 228.820313 L 125.777344 230.328125 L 124.539063 231.527344 L 123.222656 232.203125 L 123.929688 230.9375 L 123.671875 230.734375 L 122.386719 231.796875 L 121.808594 231.777344 L 122.070313 227.40625 L 122.761719 224.691406 L 124.160156 221.96875 Z M 123.171875 232.289063 L 124.207031 232.234375 L 125.980469 232.71875 L 127.515625 233.730469 L 128.777344 234.886719 L 129.359375 235.234375 L 126.449219 238.917969 L 125.671875 238.734375 L 125.460938 238.363281 L 126.1875 249.699219 L 124.449219 251.558594 L 123.367188 254.191406 L 121.183594 263.964844 L 122.0625 266.289063 L 120.679688 268.164063 L 119.945313 268.597656 L 116.058594 268.992188 L 115.222656 268.382813 L 115.277344 264.699219 L 117.226563 262.640625 L 117.992188 256.269531 L 120.664063 249.058594 L 119.164063 246.890625 L 119.359375 242.367188 L 121.945313 238.054688 L 122.191406 237.09375 L 120.824219 237.742188 L 119.636719 239.75 L 119.449219 238.929688 Z M 130.273438 235.671875 L 130.898438 235.886719 L 132.117188 236.046875 L 133.339844 235.949219 L 134.425781 235.628906 L 135.425781 235.105469 L 136.847656 233.9375 L 138.578125 232.957031 L 140.539063 232.617188 L 144.414063 232.617188 L 145.605469 232.738281 L 148.554688 233.355469 L 150.296875 233.144531 L 151.773438 232.484375 L 153.128906 231.328125 L 153.675781 230.5625 L 154.550781 228.449219 L 154.972656 227.625 L 156.636719 224.925781 L 156.984375 223.496094 L 156.921875 221.910156 L 156.433594 220.402344 L 155.097656 218.410156 L 154.324219 216.746094 L 154.113281 214.921875 L 154.480469 213.125 L 155.386719 211.527344 L 157.21875 209.25 L 158 207.023438 L 158.257813 205.265625 L 158.242188 204.121094 L 158.003906 202.988281 L 157.648438 202.15625 L 154.375 198.140625 L 152.5625 196.828125 L 151.363281 196.40625 L 149.96875 196.273438 L 148.585938 196.480469 L 146.632813 197.285156 L 144.804688 197.710938 L 142.9375 197.53125 L 141.226563 196.769531 L 139.84375 195.503906 L 138.566406 193.878906 L 136.945313 192.601563 L 135.65625 191.1875 L 134.894531 189.433594 L 134.746094 187.527344 L 135.222656 185.671875 L 136.273438 184.074219 L 137.789063 182.90625 L 140.140625 181.644531 L 141.371094 180.375 L 142.15625 178.792969 L 142.460938 176.820313 L 142.277344 174.46875 L 141.539063 172.691406 L 140.296875 171.292969 L 137.703125 169.847656 L 136.214844 168.660156 L 135.191406 167.054688 L 134.738281 165.203125 L 134.910156 163.304688 L 135.683594 161.566406 L 136.980469 160.167969 L 138.660156 159.265625 L 140.539063 158.953125 L 144.414063 158.953125 L 146.71875 159.429688 L 148.410156 160.160156 L 149.378906 160.359375 L 151.367188 160.269531 L 152.414063 159.941406 L 153.410156 159.394531 L 154.019531 158.875 L 154.464844 159.796875 L 155.875 160.457031 L 161.363281 161.917969 L 164.042969 162.292969 L 165.242188 161.992188 L 166.015625 161.605469 L 166.75 160.257813 L 167.589844 160.183594 L 167.507813 160.828125 L 166.417969 162.609375 L 162.722656 166.96875 L 162.175781 167.183594 L 161.726563 166.894531 L 161.859375 165.949219 L 161.53125 165.507813 L 159.984375 165.785156 L 155.320313 167.769531 L 152.441406 170.8125 L 151.949219 171.945313 L 152.140625 172.144531 L 156.390625 168.453125 L 157.75 167.980469 L 160.300781 168.324219 L 161.058594 169.320313 L 157.109375 173.804688 L 156.367188 175.339844 L 156.707031 175.816406 L 157.367188 175.984375 L 158.261719 175.542969 L 161.140625 173.015625 L 167.808594 170.273438 L 170.480469 169.527344 L 170.492188 169.949219 L 171.554688 169.839844 L 173.589844 168.316406 L 174.046875 166.78125 L 178.648438 166.167969 L 179.285156 167.089844 L 180.148438 167.667969 L 184.320313 169.011719 L 187.675781 167.128906 L 199.164063 168.988281 L 204.117188 168.914063 L 205.648438 167.671875 L 207.910156 167.828125 L 210.3125 168.835938 L 212.550781 172.800781 L 213.671875 176.582031 L 213.695313 178 L 209.382813 183.425781 L 207.15625 188.339844 L 206.664063 191.242188 L 206.84375 191.972656 L 206.226563 194.742188 L 203.9375 198.859375 L 203.765625 200.121094 L 204.023438 201.304688 L 203.230469 203.472656 L 200.949219 206.4375 L 199.179688 207.605469 L 197.078125 210.023438 L 197.433594 210.839844 L 197.785156 210.703125 L 197.761719 211.238281 L 196.796875 214.386719 L 195.867188 215.914063 L 191.214844 219.742188 L 185.519531 221.085938 L 182.847656 221.226563 L 177.804688 225.21875 L 178.117188 225.714844 L 179.84375 225.195313 L 184.609375 222.886719 L 186.457031 221.386719 L 187.289063 221.316406 L 189.085938 221.875 L 189.332031 222.921875 L 188.898438 224.691406 L 189.238281 225.953125 L 190.898438 226.824219 L 192.886719 227.175781 L 192.765625 229.289063 L 192.980469 230.726563 L 192.117188 231.570313 L 189.460938 232.730469 L 188.34375 232.882813 L 187.070313 232.078125 L 185.40625 232.042969 L 181.046875 235.800781 L 180.578125 237.003906 L 174.761719 240.109375 L 170.214844 238.117188 L 166.480469 238.003906 L 166.738281 239.222656 L 168.246094 240.195313 L 178.0625 241.875 L 182.921875 243.167969 L 186.398438 241.730469 L 187.519531 239.417969 L 188.617188 238.355469 L 189.539063 238.171875 L 193.183594 238.5 L 199.339844 242.761719 L 206.488281 246.65625 L 208.910156 251.429688 L 212.824219 256.707031 L 213.265625 256.828125 L 213.433594 256.585938 L 214.601563 257.097656 L 217.371094 258.992188 L 218.679688 263.09375 L 218.894531 265.933594 L 218.261719 267.402344 L 220.40625 277.574219 L 221.269531 280.457031 L 222.984375 284.039063 L 223.773438 285.027344 L 223.890625 285.527344 L 223.890625 288.832031 L 223.628906 290.566406 L 222.855469 292.140625 L 221.652344 293.417969 L 220.121094 294.273438 L 218.402344 294.636719 L 216.65625 294.46875 L 215.085938 294.074219 L 214.050781 294.011719 L 208.441406 294.800781 L 206.609375 295.578125 L 205.09375 296.929688 L 204.390625 298.078125 L 203.964844 299.480469 L 203.90625 300.945313 L 204.375 303.101563 L 204.472656 304.992188 L 203.953125 306.816406 L 202.878906 308.375 L 201.359375 309.507813 L 199.558594 310.089844 L 197.015625 310.472656 L 195.394531 311.261719 L 194.164063 312.425781 L 193.242188 314.058594 L 192.945313 315.125 L 192.25 319.886719 L 192.355469 321.078125 L 193.34375 325.304688 L 193.480469 327.058594 L 193.089844 328.769531 L 192.203125 330.289063 L 190.902344 331.472656 L 189.308594 332.214844 L 187.566406 332.445313 L 185.835938 332.148438 L 184.273438 331.34375 L 182.863281 330.324219 L 182.523438 330.167969 L 184.695313 329.191406 L 187.28125 323.421875 L 187.71875 320.933594 L 187.855469 317.484375 L 184.742188 320.527344 L 179.199219 323.441406 L 177.335938 322.691406 L 172.851563 314.925781 L 172.289063 311.832031 L 167.40625 304.652344 L 169.164063 299.058594 L 174.074219 288.722656 L 176.464844 286.417969 L 178.757813 285.980469 L 180.191406 286.804688 L 181.015625 286.710938 L 182.933594 286.238281 L 183.03125 285.160156 L 182.34375 284.746094 L 180.035156 285.351563 L 174.65625 284.980469 L 172.566406 284.292969 L 169.453125 284.03125 L 168.226563 288.992188 L 166.234375 288.695313 L 163.3125 290.011719 L 161.832031 291.855469 L 159.410156 293.515625 L 156.15625 293.3125 L 155.160156 292.984375 L 149.984375 289.230469 L 149.214844 288.042969 L 149.230469 287.167969 L 148.945313 287.023438 L 148.15625 288.078125 L 147.988281 288.910156 L 148.375 290.554688 L 149.574219 292.960938 L 149.839844 295.726563 L 149.308594 296.871094 L 148.746094 297.058594 L 145.816406 295.78125 L 144.601563 294.238281 L 144.507813 293.621094 L 143.632813 292.355469 L 141.613281 291.4375 L 140.164063 290.433594 L 138.398438 288.636719 L 137.464844 288.296875 L 135.511719 289.683594 L 134.605469 291.238281 L 135.976563 295.472656 L 136.734375 296.308594 L 136.957031 298.523438 L 136.742188 298.695313 L 134.683594 297.484375 L 134.359375 296.304688 L 134.707031 295.457031 L 134.59375 294.480469 L 133.472656 292.679688 L 130.894531 289.722656 L 129.605469 286.988281 L 129.300781 285.09375 L 129.71875 282.265625 L 132.777344 280.410156 L 134.003906 276.632813 L 137.757813 273.035156 L 138.601563 268.871094 L 140.917969 265.085938 L 143.644531 263.800781 L 144.390625 261.886719 L 144.195313 260.621094 L 142.601563 256.71875 L 139.777344 254.832031 L 137.378906 252.511719 L 138.6875 242.234375 L 140.710938 241.59375 L 142.886719 242.511719 L 146.15625 243.175781 L 148.300781 243.253906 L 141.261719 240.453125 L 140.441406 240.5625 L 139.386719 240.085938 L 139.183594 238.121094 L 139.414063 236.460938 L 140.238281 234.648438 L 139.292969 234.9375 L 138.320313 240.257813 L 136.15625 245.152344 L 135.023438 244.945313 L 131.566406 242.222656 L 130.757813 242.5 L 130.269531 243.347656 L 130.09375 244.535156 L 130.664063 246.308594 L 130.519531 246.613281 L 128.257813 245.464844 L 127.46875 243.074219 L 128.453125 238.691406 Z M 154.582031 158.273438 L 155.355469 157.292969 L 156.628906 156.097656 L 158.199219 155.339844 L 159.921875 155.078125 L 163.800781 155.078125 L 163.855469 155.085938 L 162.601563 156.074219 L 162.234375 157.082031 L 162.671875 158.175781 L 162.078125 159.632813 L 159.644531 160.289063 L 156.839844 159.359375 Z M 119.078125 234.40625 L 119.230469 234.164063 L 119.351563 234.066406 Z M 119.292969 232.265625 L 119.007813 232.140625 L 119.195313 232.023438 Z M 107.167969 216.601563 L 107.425781 216.394531 L 108.085938 216.507813 L 109.105469 217.519531 L 109.070313 217.820313 L 108.136719 218.074219 L 107.207031 217.691406 L 106.753906 217.160156 Z M 147.425781 363.976563 L 146.109375 363.875 L 144.195313 361.613281 L 142.050781 357.363281 L 142.246094 352.273438 L 144.664063 351.183594 L 146.003906 350.957031 L 149.566406 352.007813 L 151.039063 355.578125 L 155.546875 356.503906 L 154.066406 358.859375 L 150.984375 360.816406 Z M 141.734375 358.875 L 141.003906 358.070313 L 139.230469 356.960938 L 138.828125 356.035156 L 139.253906 355.210938 L 140.597656 355.164063 L 141.484375 356.3125 L 142.226563 358.1875 Z M 137.933594 323.433594 L 137.675781 322.921875 L 139.816406 316.644531 L 142.300781 315.023438 L 144.765625 310.230469 L 145.863281 309.40625 L 149.046875 308.269531 L 150.203125 313.453125 L 147.847656 318.148438 L 145.3125 320.636719 L 141.859375 323.019531 L 139.824219 322.464844 Z M 286.679688 439.636719 L 283.058594 438.976563 L 282.164063 437.605469 L 282.484375 436.070313 L 286.839844 437.054688 L 287.960938 438.832031 Z M 236.835938 466.113281 L 235.136719 465.644531 L 236.523438 463.683594 L 237.195313 464.164063 L 237.5 465.839844 Z M 228.117188 474.644531 L 222.296875 470.886719 L 220.207031 471.1875 L 221.476563 469.683594 L 227.316406 466.367188 L 232.550781 467.761719 L 234.171875 469.894531 L 231.242188 473.621094 L 229.960938 474.269531 Z M 123.378906 222.417969 L 122.582031 222.078125 L 123.082031 221.191406 L 124.476563 221.046875 Z M 121.453125 227.109375 L 121.152344 226.972656 L 120.984375 225.621094 L 121.59375 224.800781 L 122.367188 224.816406 L 121.953125 226.621094 Z M 120.902344 230.566406 L 120.316406 229.273438 L 120.976563 227.386719 L 121.816406 227.683594 Z M 118.503906 231.671875 L 118.15625 231.449219 L 118.535156 230.824219 L 119.917969 230.164063 L 119.953125 231.257813 Z M 134.8125 251.347656 L 132.589844 248.835938 L 130.84375 244.566406 L 130.707031 243.464844 L 131.460938 242.613281 L 133.71875 244.574219 L 134.707031 246.3125 L 135.339844 249.003906 L 135.222656 250.96875 Z M 130.613281 263.773438 L 129.152344 263.667969 L 126.582031 261.613281 L 125.375 256.128906 L 125.988281 253.21875 L 128.179688 251.246094 L 129.539063 251.441406 L 131.390625 253.015625 L 132.984375 258.382813 L 133.019531 262.765625 L 132.308594 263.453125 Z M 130.613281 263.773438 "/>
<path style=" stroke:none;fill-rule:nonzero;fill:rgb(80.392157%,58.431373%,4.705882%);fill-opacity:1;" d="M 138.601563 211.292969 L 138.316406 213.089844 L 137.488281 214.710938 L 136.203125 215.996094 L 134.582031 216.824219 L 134.5 216.835938 L 135.300781 215.007813 L 134.855469 215.347656 L 134.203125 216.882813 L 132.785156 217.109375 L 130.988281 216.824219 L 129.660156 216.148438 L 131.070313 215.113281 L 129.507813 214.882813 L 128.714844 215.34375 L 128.078125 214.710938 L 127.933594 214.421875 L 127.875 213.785156 L 129.65625 210.6875 L 133.738281 205.628906 L 134.582031 205.761719 L 136.203125 206.585938 L 137.488281 207.875 L 138.316406 209.496094 Z M 127.042969 211.746094 L 126.96875 211.292969 L 127.253906 209.496094 L 128.078125 207.875 L 129.367188 206.585938 L 130.988281 205.761719 L 132.785156 205.476563 L 133.109375 205.527344 Z M 127.042969 211.746094 "/>
<path style=" stroke:none;fill-rule:nonzero;fill:rgb(80.392157%,58.431373%,4.705882%);fill-opacity:1;" d="M 229.660156 42.636719 L 227.910156 42.363281 L 226.289063 41.535156 L 225.839844 41.085938 L 227.246094 36.808594 L 228.363281 36.574219 L 229.761719 37.023438 L 229.984375 39.984375 Z M 232.128906 31.617188 L 233.125 32.125 L 234.414063 33.414063 L 234.433594 33.457031 L 233.101563 38.984375 L 230.96875 38.972656 L 230.324219 38.394531 L 230.816406 33.792969 L 232.058594 31.609375 Z M 232.128906 31.617188 "/>
</g>
</svg>
