<?xml version="1.0" encoding="UTF-8"?>
<svg xmlns="http://www.w3.org/2000/svg" xmlns:xlink="http://www.w3.org/1999/xlink" width="378pt" height="504pt" viewBox="0 0 378 504" version="1.1">
<g id="data">
<rect x="0" y="0" width="378" height="504" style="fill:rgb(100%,100%,100%);fill-opacity:1;stroke:none;"/>
<path style=" stroke:none;fill-rule:nonzero;fill:rgb(100%,100%,100%);fill-opacity:1;" d="M 53.308594 504 L 324.691406 504 L 324.691406 0 L 53.308594 0 Z M 53.308594 504 "/>
<path style=" stroke:none;fill-rule:nonzero;fill:rgb(22.745098%,53.333333%,16.078431%);fill-opacity:1;" d="M 213.675781 176.835938 L 211.597656 178.5625 L 208.550781 182.113281 L 207.335938 184.0625 L 206.558594 186.089844 L 206.164063 188.351563 L 206.378906 194.058594 L 206.226563 194.742188 L 204.976563 196.992188 L 203.929688 197.855469 L 200.179688 202.605469 L 198.820313 206.410156 L 198.621094 208.25 L 197.078125 210.023438 L 197.433594 210.839844 L 197.785156 210.703125 L 197.761719 211.238281 L 197.378906 212.492188 L 195.761719 213.96875 L 193.886719 217.542969 L 191.214844 219.742188 L 185.519531 221.085938 L 182.847656 221.226563 L 177.804688 225.21875 L 178.117188 225.714844 L 179.84375 225.195313 L 184.609375 222.886719 L 186.457031 221.386719 L 187.289063 221.316406 L 189.085938 221.875 L 189.332031 222.921875 L 188.898438 224.691406 L 189.238281 225.953125 L 190.898438 226.824219 L 192.988281 227.191406 L 194.445313 228.726563 L 194.429688 229.304688 L 192.117188 231.570313 L 189.460938 232.730469 L 188.34375 232.882813 L 187.070313 232.078125 L 185.40625 232.042969 L 181.046875 235.800781 L 180.578125 237.003906 L 174.761719 240.109375 L 170.214844 238.117188 L 166.480469 238.003906 L 166.738281 239.222656 L 168.246094 240.195313 L 178.0625 241.875 L 182.921875 243.167969 L 186.398438 241.730469 L 187.519531 239.417969 L 188.617188 238.355469 L 189.539063 238.171875 L 193.183594 238.5 L 199.339844 242.761719 L 206.488281 246.65625 L 208.910156 251.429688 L 212.824219 256.707031 L 213.265625 256.828125 L 213.433594 256.585938 L 214.601563 257.097656 L 215.097656 257.4375 L 215.390625 258.191406 L 216.605469 260.121094 L 218.078125 261.691406 L 218.078125 269.445313 L 217.765625 272.363281 L 218.300781 275.632813 L 219.734375 278.617188 L 221.210938 280.253906 L 221.269531 280.457031 L 221.964844 281.902344 L 222.007813 285.457031 L 222.925781 288.746094 L 224.203125 290.933594 L 225.515625 292.363281 L 225.945313 294.183594 L 229.304688 299.0625 L 235.230469 301.828125 L 236.308594 302.722656 L 238.730469 303.820313 L 240.074219 304.085938 L 241.757813 304.875 L 243.046875 306.507813 L 245.214844 308.214844 L 246.746094 310.207031 L 247.320313 310.667969 L 249.289063 315.722656 L 252.390625 319.148438 L 256.121094 320.875 L 256.847656 321.4375 L 256.847656 321.921875 L 254.738281 323.09375 L 253.890625 324.554688 L 253.765625 325.996094 L 254.984375 329.992188 L 256.160156 332.453125 L 257.480469 334.300781 L 258.035156 335.730469 L 259.25 337.660156 L 262.339844 341.3125 L 262.6875 341.585938 L 263.316406 342.46875 L 263.640625 343.980469 L 262.804688 345.191406 L 263.28125 343.65625 L 262.507813 342.839844 L 260.445313 342 L 258.378906 342.789063 L 257.507813 342.753906 L 256.035156 341.773438 L 253.664063 338.65625 L 252.601563 338.082031 L 245.550781 339.511719 L 244.589844 338.644531 L 243.40625 338.558594 L 241.210938 339.871094 L 241.886719 340.445313 L 246.324219 340.394531 L 249.617188 339.34375 L 251.976563 339.082031 L 254.382813 342.558594 L 260.535156 347.621094 L 263.042969 349.058594 L 263.664063 349.039063 L 266.046875 352.214844 L 268 356.9375 L 267.855469 357.597656 L 267.949219 360.394531 L 268.753906 363.207031 L 269.328125 364.195313 L 269.210938 365.21875 L 264.953125 369.09375 L 261.394531 373.164063 L 260.601563 374.816406 L 262.84375 374.3125 L 264.9375 375.519531 L 266.9375 378.226563 L 270.21875 378.804688 L 270.625 378.746094 L 271.910156 376.796875 L 272.234375 374.960938 L 273.40625 371.914063 L 274.707031 370.632813 L 277.71875 370.109375 L 281.984375 370.410156 L 283.570313 370.390625 L 284.253906 370.867188 L 286.703125 370.742188 L 293.949219 371.515625 L 296.914063 372.84375 L 300.75 375.652344 L 301.5625 376.640625 L 303.371094 378 L 305.074219 380.171875 L 305.503906 380.507813 L 306.730469 384.164063 L 307.179688 391.25 L 306.777344 393.191406 L 306.890625 393.976563 L 305.789063 396.917969 L 305.140625 400.035156 L 304.734375 400.550781 L 303.8125 402.773438 L 303.371094 405.136719 L 301.59375 407.117188 L 300.363281 409.332031 L 299.765625 411.777344 L 297.144531 414.53125 L 295.578125 412.011719 L 292.742188 410.515625 L 292.480469 410.636719 L 293.898438 413.703125 L 295.890625 416.628906 L 296.3125 416.765625 L 296.164063 417.742188 L 294.574219 419.804688 L 292.191406 421.289063 L 290.003906 421.65625 L 289.660156 421.574219 L 288.214844 419.332031 L 284.976563 421.730469 L 280.71875 424.230469 L 282.339844 425.378906 L 285.105469 424.398438 L 286.097656 423.375 L 286.894531 423.164063 L 287.328125 423.710938 L 287.632813 428.84375 L 285.6875 430.875 L 283.441406 432.558594 L 282.84375 432.699219 L 279.644531 432.160156 L 274.75 433.78125 L 272.609375 436.117188 L 274.253906 436.015625 L 275.152344 434.667969 L 276.683594 434.363281 L 278.285156 434.328125 L 281.054688 434.949219 L 281.828125 435.589844 L 281.691406 436.328125 L 279.554688 436.347656 L 277.390625 437.65625 L 277.96875 438.546875 L 281.382813 438.964844 L 286.863281 440.339844 L 289.394531 439.9375 L 291.074219 438.957031 L 299.742188 437.757813 L 300.988281 440.148438 L 300.875 443.359375 L 300.050781 445.054688 L 299.367188 448.78125 L 299.378906 449.058594 L 296.972656 450.242188 L 295.839844 450.375 L 292.621094 451.640625 L 291.179688 452.742188 L 289.847656 454.226563 L 289.460938 455.09375 L 289.214844 456.324219 L 289.289063 456.789063 L 288.636719 457.992188 L 286.253906 458.289063 L 284.1875 457.9375 L 282.191406 459.824219 L 279.171875 460.902344 L 277.621094 462.128906 L 274.789063 462.777344 L 272.597656 463.816406 L 270.539063 466.589844 L 269.761719 466.949219 L 259.480469 463.839844 L 259.332031 463.773438 L 255.597656 463.148438 L 252.214844 463.378906 L 248.378906 464.65625 L 247.84375 465.085938 L 244.628906 465.699219 L 242.703125 466.390625 L 242.113281 466.964844 L 242.085938 467.109375 L 240.582031 467.257813 L 240.140625 467.398438 L 238.210938 466.1875 L 238.632813 465.4375 L 239.46875 464.933594 L 237.714844 463.296875 L 231.496094 463.171875 L 231.378906 463.496094 L 232.574219 464.835938 L 232.214844 465.75 L 231.738281 466.042969 L 226.691406 465.496094 L 219.566406 468.449219 L 217.054688 467.824219 L 210.222656 468.96875 L 208.164063 468.875 L 207.273438 468.058594 L 206.238281 469.769531 L 209.429688 471.089844 L 209.714844 470.9375 L 210.1875 472.128906 L 209.566406 473.890625 L 206.84375 474.453125 L 204.453125 473.097656 L 203.015625 472.699219 L 197.625 472.007813 L 196.175781 472.65625 L 195.679688 473.863281 L 195.832031 474.871094 L 196.757813 475.523438 L 196.488281 476.304688 L 195.917969 475.996094 L 194.851563 473.972656 L 190.289063 470.589844 L 185.898438 468.519531 L 183.121094 467.984375 L 181.648438 469.066406 L 176.207031 469.78125 L 174.339844 470.335938 L 168.992188 473.234375 L 168.214844 474.070313 L 167.203125 476.179688 L 162.746094 489.226563 L 160.929688 490.242188 L 158.269531 489.722656 L 157.554688 489.058594 L 156.527344 486.851563 L 154.683594 485.4375 L 153.613281 485.542969 L 152.417969 486.300781 L 151.738281 486.164063 L 148.46875 482.535156 L 142.796875 482.960938 L 141.527344 483.375 L 141.238281 483.664063 L 138.617188 483.75 L 136.710938 484.398438 L 134.507813 484.320313 L 132.167969 484.859375 L 129.414063 488.195313 L 126.714844 489.746094 L 124.039063 490.597656 L 123.132813 494.289063 L 123.664063 495.292969 L 123.636719 495.429688 L 122.683594 496.195313 L 121.886719 497.230469 L 120.660156 497.648438 L 120.394531 498.183594 L 118.253906 498.183594 L 117.96875 497.691406 L 118.09375 496.4375 L 117.15625 494.691406 L 115.984375 493.691406 L 112.253906 492.070313 L 111.410156 491.984375 L 110.375 492.488281 L 110.242188 494.183594 L 110.007813 494.453125 L 108.527344 494.183594 L 105.644531 494.308594 L 105.441406 494.242188 L 105.628906 491.574219 L 106.074219 490.5625 L 111.738281 488.078125 L 112.199219 488.253906 L 112.445313 488.9375 L 113.574219 489.15625 L 118.144531 485.910156 L 121.425781 483.085938 L 124.375 479.769531 L 125.210938 477.886719 L 124.875 476.421875 L 125.640625 474.519531 L 128.386719 473.238281 L 132.105469 472.640625 L 132.679688 471.785156 L 133.257813 469.527344 L 135.859375 467.5625 L 138.636719 464.640625 L 138.996094 460.191406 L 139.761719 458.863281 L 140.539063 455.539063 L 141.660156 454.996094 L 142.492188 455.105469 L 144.269531 456.015625 L 145.761719 455.429688 L 148.429688 452.488281 L 148.144531 448.136719 L 148.394531 447.429688 L 151.105469 446.613281 L 157.421875 446.269531 L 159.910156 445.683594 L 164.597656 446.761719 L 166.046875 446.148438 L 167.527344 446.515625 L 169.484375 447.285156 L 170.039063 448.109375 L 170.757813 448.421875 L 173.15625 448.464844 L 180.570313 447.503906 L 181.109375 445.632813 L 181.210938 443.15625 L 182.519531 440.25 L 190.867188 432.195313 L 195.792969 425.3125 L 197.929688 424.472656 L 198.285156 423.78125 L 198.070313 423.238281 L 197.8125 423.082031 L 196.09375 424.355469 L 192.90625 427.300781 L 190.570313 429.988281 L 189.222656 431.449219 L 185.628906 432.957031 L 183.714844 433.246094 L 182.441406 433.0625 L 178.394531 435.230469 L 177.398438 436.808594 L 177.039063 438.671875 L 176.445313 439.273438 L 174.058594 439.917969 L 170.558594 439.851563 L 166.820313 439 L 166.347656 438.652344 L 161.371094 433.375 L 159.03125 429.199219 L 155.65625 429.589844 L 149.269531 432.308594 L 149.113281 432.746094 L 147.203125 431.632813 L 146.917969 429.308594 L 148.539063 428.378906 L 150.066406 428.890625 L 151.640625 428.421875 L 152.765625 427.832031 L 153.085938 427.097656 L 152.808594 426.597656 L 147.785156 426.460938 L 143.210938 423.710938 L 139.503906 423.714844 L 136.765625 424.277344 L 136.292969 426.515625 L 135.777344 427.203125 L 133.742188 427.917969 L 132.394531 427.265625 L 131.648438 427.453125 L 130.613281 428.355469 L 127.117188 428.382813 L 126.53125 428.132813 L 127.425781 426.082031 L 128.796875 425.832031 L 131.792969 424.328125 L 131.226563 422.867188 L 130.640625 424.257813 L 127.769531 424.613281 L 122.949219 424.152344 L 121.496094 423.164063 L 124.125 421.78125 L 125.167969 421.753906 L 125.464844 421.238281 L 124.929688 417.953125 L 123.328125 417.210938 L 121.445313 417.105469 L 122.0625 415.152344 L 125.933594 413.378906 L 126.199219 412.730469 L 126.289063 412.71875 L 128.355469 412.117188 L 129.21875 411.675781 L 133.074219 411.34375 L 134.871094 409.289063 L 135.753906 407.632813 L 137.585938 406.550781 L 141.359375 406.660156 L 142.21875 406.390625 L 149.359375 401.828125 L 152.136719 398.207031 L 153.054688 396.195313 L 154.199219 391.746094 L 153.734375 388.820313 L 152.566406 386.542969 L 153.179688 384.597656 L 154.652344 381.796875 L 152.269531 378.203125 L 152.683594 374.835938 L 153.175781 374.082031 L 152.804688 373.207031 L 150.203125 373.105469 L 145.449219 374.257813 L 143.757813 375.484375 L 142.039063 378.097656 L 141.78125 378.113281 L 139.164063 377.851563 L 136.660156 378 L 139.007813 376.113281 L 141.488281 372.90625 L 141.882813 372.164063 L 142.589844 371.953125 L 147.132813 367.984375 L 147.953125 364.523438 L 151.550781 360.582031 L 153.09375 359.609375 L 154.941406 359.808594 L 160.492188 357.457031 L 163.644531 357.28125 L 167.339844 357.714844 L 172.597656 355.179688 L 173.933594 355.046875 L 174.484375 355.082031 L 179.910156 359.441406 L 180.433594 358.429688 L 177.679688 353.460938 L 178.242188 352.835938 L 180.867188 352.449219 L 181.503906 352.695313 L 181.914063 353.875 L 182.898438 354.332031 L 184.078125 356.789063 L 185.613281 357.902344 L 188.359375 357.621094 L 190.335938 355.148438 L 189.90625 355.050781 L 188.667969 355.527344 L 188.3125 355.957031 L 186.378906 356.386719 L 183.8125 354.640625 L 181.097656 348.761719 L 181.695313 347.917969 L 182.625 345.835938 L 183.328125 341.859375 L 183.292969 340.394531 L 183.371094 340.257813 L 185.429688 339.015625 L 185.140625 338.578125 L 183.253906 338.488281 L 183.183594 335.355469 L 183.457031 331.671875 L 183.078125 329.914063 L 184.695313 329.191406 L 187.28125 323.421875 L 187.71875 320.933594 L 187.855469 317.484375 L 184.742188 320.527344 L 179.210938 323.433594 L 177.777344 321.734375 L 175.921875 320.242188 L 175.222656 319.027344 L 174.457031 316.054688 L 173.179688 313.867188 L 172.527344 313.15625 L 172.289063 311.832031 L 171.128906 310.128906 L 170.914063 309.125 L 169.453125 306.316406 L 167.957031 304.59375 L 167.53125 304.257813 L 169.164063 299.058594 L 174.074219 288.722656 L 176.464844 286.417969 L 178.757813 285.980469 L 180.191406 286.804688 L 181.015625 286.710938 L 182.933594 286.238281 L 183.03125 285.160156 L 182.34375 284.746094 L 180.035156 285.351563 L 174.65625 284.980469 L 172.566406 284.292969 L 169.453125 284.03125 L 168.226563 288.992188 L 166.234375 288.695313 L 163.3125 290.011719 L 161.832031 291.855469 L 159.410156 293.515625 L 156.15625 293.3125 L 155.160156 292.984375 L 149.984375 289.230469 L 149.289063 288.15625 L 151.210938 288.410156 L 155.386719 287.800781 L 157.820313 286.640625 L 159.921875 284.953125 L 163.726563 284.539063 L 167.296875 282.835938 L 169.296875 281.042969 L 170.832031 278.839844 L 171.820313 276.347656 L 172.210938 273.707031 L 171.96875 270.917969 L 170.480469 265.375 L 168.5625 262.503906 L 165.886719 260.324219 L 162.4375 258.96875 L 158.738281 258.765625 L 155.164063 259.734375 L 152.167969 261.691406 L 149.617188 261.976563 L 147.1875 262.8125 L 145.105469 264.082031 L 143.25 265.859375 L 141.949219 267.769531 L 141.054688 269.902344 L 140.019531 276.355469 L 140.164063 278.664063 L 140.761719 280.898438 L 141.722656 282.859375 L 143.117188 284.703125 L 144.851563 286.230469 L 146.851563 287.386719 L 148.304688 287.875 L 148.15625 288.078125 L 147.988281 288.910156 L 148.375 290.554688 L 149.574219 292.960938 L 149.839844 295.726563 L 149.308594 296.871094 L 148.746094 297.058594 L 145.816406 295.78125 L 144.601563 294.238281 L 144.507813 293.621094 L 143.632813 292.355469 L 141.613281 291.4375 L 140.164063 290.433594 L 138.398438 288.636719 L 137.464844 288.296875 L 135.511719 289.683594 L 134.605469 291.238281 L 135.976563 295.472656 L 136.734375 296.308594 L 136.769531 296.636719 L 136.660156 296.585938 L 134.953125 294.414063 L 134.167969 293.796875 L 133.472656 292.679688 L 132.597656 291.675781 L 132.375 290.464844 L 131.59375 288.457031 L 130.378906 286.527344 L 129.355469 285.433594 L 129.300781 285.09375 L 129.71875 282.265625 L 132.777344 280.410156 L 134.003906 276.632813 L 137.757813 273.035156 L 138.601563 268.871094 L 140.917969 265.085938 L 143.644531 263.800781 L 144.390625 261.886719 L 144.195313 260.621094 L 142.601563 256.71875 L 139.777344 254.832031 L 137.378906 252.511719 L 138.6875 242.234375 L 140.710938 241.59375 L 142.886719 242.511719 L 146.15625 243.175781 L 148.300781 243.253906 L 141.261719 240.453125 L 140.441406 240.5625 L 139.386719 240.085938 L 139.183594 238.121094 L 139.414063 236.460938 L 140.238281 234.648438 L 139.292969 234.9375 L 138.320313 240.257813 L 136.15625 245.152344 L 135.023438 244.945313 L 131.566406 242.222656 L 130.757813 242.5 L 130.269531 243.347656 L 130.09375 244.535156 L 130.664063 246.308594 L 130.519531 246.613281 L 128.257813 245.464844 L 127.46875 243.074219 L 128.453125 238.691406 L 131.230469 234.078125 L 131.410156 233.929688 L 133.449219 234.777344 L 136.238281 235.21875 L 138.417969 235.089844 L 140.539063 234.554688 L 143.652344 235.195313 L 146.820313 234.96875 L 150.046875 233.769531 L 152.695313 231.769531 L 155.015625 228.410156 L 155.863281 225.730469 L 156.046875 222.921875 L 157.519531 221.351563 L 158.734375 219.421875 L 159.515625 217.414063 L 159.921875 215.167969 L 161.699219 213.1875 L 162.929688 210.976563 L 163.800781 207.414063 L 165.6875 209.761719 L 169.035156 212.472656 L 171.019531 213.65625 L 173.199219 214.425781 L 175.875 214.757813 L 178.554688 214.464844 L 181.097656 213.5625 L 183.261719 212.179688 L 185.226563 210.152344 L 186.695313 207.59375 L 187.574219 203.726563 L 187.0625 199.660156 L 189.238281 197.863281 L 190.917969 195.597656 L 192.003906 192.988281 L 192.429688 190.199219 L 192.046875 186.886719 L 190.554688 183.203125 L 189.171875 180.902344 L 187.292969 178.980469 L 183.964844 177.089844 L 181.734375 176.515625 L 179.308594 176.398438 L 175.824219 174.25 L 171.941406 173.445313 L 169.632813 173.597656 L 167.523438 174.160156 L 165.554688 175.105469 L 163.800781 176.398438 L 156.046875 176.398438 L 153.386719 176.085938 L 150.601563 176.417969 L 147.195313 177.847656 L 144.414063 180.277344 L 141.890625 177.546875 L 138.757813 175.796875 L 135.109375 175.082031 L 131.546875 175.519531 L 129.394531 176.367188 L 127.554688 177.546875 L 126.773438 178.382813 L 120.484375 180.664063 L 119.382813 179.570313 L 119.3125 179.1875 L 119.714844 179.296875 L 122.785156 179.28125 L 126.554688 178.078125 L 129.617188 175.773438 L 131.816406 172.484375 L 132.785156 168.644531 L 134.675781 170.910156 L 137.074219 172.628906 L 139.828125 173.6875 L 142.632813 174.019531 L 145.804688 173.5625 L 150.222656 171.808594 L 152.507813 170.378906 L 154.402344 168.457031 L 156.101563 165.441406 L 156.832031 162.1875 L 156.78125 160.695313 L 161.363281 161.917969 L 164.042969 162.292969 L 165.242188 161.992188 L 166.015625 161.605469 L 166.75 160.257813 L 167.589844 160.183594 L 167.507813 160.828125 L 166.417969 162.609375 L 162.722656 166.96875 L 162.175781 167.183594 L 161.726563 166.894531 L 161.859375 165.949219 L 161.53125 165.507813 L 159.984375 165.785156 L 155.320313 167.769531 L 152.441406 170.8125 L 151.949219 171.945313 L 152.140625 172.144531 L 156.390625 168.453125 L 157.75 167.980469 L 160.300781 168.324219 L 161.058594 169.320313 L 157.109375 173.804688 L 156.367188 175.339844 L 156.707031 175.816406 L 157.367188 175.984375 L 158.261719 175.542969 L 161.140625 173.015625 L 167.808594 170.273438 L 170.480469 169.527344 L 170.492188 169.949219 L 171.554688 169.839844 L 173.589844 168.316406 L 174.046875 166.78125 L 178.648438 166.167969 L 179.285156 167.089844 L 180.148438 167.667969 L 184.320313 169.011719 L 185.511719 168.34375 L 188.558594 168.800781 L 194.816406 168.644531 L 198.566406 169.3125 L 200.640625 168.964844 L 203.683594 168.921875 L 204.792969 169.195313 L 207.082031 169.292969 L 210.011719 168.707031 L 210.3125 168.835938 L 212.550781 172.800781 L 213.671875 176.582031 Z M 232.859375 471.5625 L 231.871094 472.320313 L 230.464844 474.011719 L 229.960938 474.269531 L 228.117188 474.644531 L 222.296875 470.886719 L 220.207031 471.1875 L 221.476563 469.683594 L 227.316406 466.367188 L 232.550781 467.761719 L 234.171875 469.894531 Z M 140.539063 357.78125 L 140.539063 355.167969 L 140.597656 355.164063 L 141.484375 356.3125 L 142.226563 358.1875 L 141.734375 358.875 L 141.003906 358.070313 Z M 142.203125 353.429688 L 142.707031 353.03125 L 143.882813 351.535156 L 144.664063 351.183594 L 144.75 351.171875 L 146.191406 352.488281 L 148.261719 353.714844 L 150.417969 354.457031 L 150.585938 354.484375 L 151.039063 355.578125 L 155.546875 356.503906 L 154.066406 358.859375 L 150.984375 360.816406 L 147.425781 363.976563 L 146.109375 363.875 L 144.195313 361.613281 L 142.050781 357.363281 Z M 149.132813 308.667969 L 148.4375 310.945313 L 148.132813 313.84375 L 148.226563 317.394531 L 147.847656 318.148438 L 145.3125 320.636719 L 141.859375 323.019531 L 139.824219 322.464844 L 137.933594 323.433594 L 137.675781 322.921875 L 139.628906 317.199219 L 140.414063 316.257813 L 142.300781 315.023438 L 144.765625 310.230469 L 145.863281 309.40625 L 149.046875 308.269531 Z M 117.277344 268.867188 L 117.277344 262.234375 L 117.355469 261.578125 L 119.695313 258.230469 L 120.410156 256.167969 L 120.726563 254.007813 L 120.261719 250.152344 L 120.664063 249.058594 L 119.164063 246.890625 L 119.359375 242.367188 L 121.945313 238.054688 L 122.191406 237.09375 L 120.824219 237.742188 L 119.636719 239.75 L 119.449219 238.929688 L 123.929688 230.9375 L 123.671875 230.734375 L 122.386719 231.796875 L 121.808594 231.777344 L 122.070313 227.40625 L 122.761719 224.691406 L 124.160156 221.96875 L 124.890625 221.453125 L 125.109375 225.105469 L 125.769531 227.722656 L 127.011719 230.117188 L 128.773438 232.160156 L 130.765625 233.605469 L 130.363281 233.964844 L 126.449219 238.917969 L 125.671875 238.734375 L 125.460938 238.363281 L 126.1875 249.699219 L 124.449219 251.558594 L 123.367188 254.191406 L 121.183594 263.964844 L 122.0625 266.289063 L 120.679688 268.164063 L 119.945313 268.597656 Z M 113.988281 242.921875 L 112.734375 242.359375 L 110.351563 241.847656 L 109.734375 241.84375 L 112.5625 237.15625 L 116.605469 233.660156 L 119.195313 232.023438 L 119.632813 233.128906 L 119.449219 233.945313 L 118.015625 235.730469 Z M 108.617188 241.84375 L 107.910156 241.839844 L 105.644531 242.320313 L 106.871094 241.457031 L 108.433594 240.808594 L 108.667969 241.335938 Z M 103.195313 243.394531 L 101.308594 244.734375 L 101.542969 243.503906 L 102.445313 243.214844 Z M 102.839844 224.179688 L 102.355469 223.613281 L 102.589844 223.230469 L 103.304688 222.808594 L 103.460938 223.023438 Z M 94.574219 214.742188 L 95.460938 214.070313 L 95.671875 214.59375 Z M 96.785156 212.652344 L 97.890625 211.292969 L 100.578125 209.035156 L 101.386719 207.960938 L 102.617188 207.75 L 102.652344 208.195313 L 101.386719 210.445313 L 99.425781 212.117188 L 96.976563 213.15625 Z M 101.851563 192.03125 L 101.769531 191.90625 L 102.609375 191.734375 L 102.835938 191.832031 Z M 109.953125 187.480469 L 111.207031 185.671875 L 112.25 182.78125 L 112.335938 181.808594 L 117.5 184.859375 L 120.773438 183.445313 L 122.292969 184.0625 L 121.976563 184.589844 L 121.152344 188.03125 L 119.527344 189.804688 L 119.445313 189.949219 L 119.148438 190.25 L 118.089844 190.683594 L 116.035156 193.449219 L 114.023438 194.042969 L 113.570313 192.609375 L 115.183594 189.4375 L 113.980469 187.324219 L 112.75 189.558594 L 110.542969 187.414063 Z M 111.921875 176.730469 L 110.816406 174.257813 L 112.113281 175.324219 Z M 113.617188 176.5625 L 114.398438 177.203125 L 115.589844 177.875 L 115.367188 179.941406 L 114.945313 180.566406 L 113.875 180.957031 L 113.53125 180.855469 L 113.277344 179.863281 Z M 156.648438 159.269531 L 156.046875 157.015625 L 156.96875 154.214844 L 157.164063 151.398438 L 156.847656 149.242188 L 156.078125 147.0625 L 154.972656 145.183594 L 153.53125 143.542969 L 149.988281 141.25 L 145.859375 140.375 L 141.691406 141.03125 L 144.460938 139.179688 L 146.65625 136.511719 L 147.972656 133.316406 L 148.0625 132.351563 L 149.632813 130.886719 L 149.746094 130.125 L 152.167969 130.542969 L 153.59375 130.296875 L 153.609375 130.328125 L 157.023438 130.710938 L 157.167969 130.683594 L 158.023438 131.304688 L 160.257813 132.285156 L 162.644531 132.78125 L 165.082031 132.769531 L 168.542969 131.828125 L 171.554688 129.875 L 175.507813 128.855469 L 176.203125 128.371094 L 177.664063 128.609375 L 178 127.714844 L 177.648438 127.359375 L 178.957031 126.441406 L 179.351563 125.957031 L 182.382813 126.3125 L 180.910156 126.886719 L 178.96875 128.144531 L 177.234375 129.863281 L 175.957031 131.792969 L 175.015625 134.179688 L 174.628906 136.589844 L 174.753906 139.03125 L 175.429688 141.507813 L 173.34375 142.484375 L 171.492188 143.851563 L 169.941406 145.554688 L 168.761719 147.535156 L 168.023438 149.582031 L 167.675781 151.855469 L 167.679688 152.074219 L 162.601563 156.074219 L 162.234375 157.082031 L 162.671875 158.175781 L 162.078125 159.632813 L 159.644531 160.289063 L 156.839844 159.359375 Z M 182.046875 120.628906 L 182.296875 118.601563 L 182.285156 118.464844 L 182.96875 119.6875 L 182.941406 120.441406 Z M 181.777344 115.023438 L 181.558594 114.199219 L 180.609375 112.238281 L 179.308594 110.492188 L 181.4375 109.609375 L 183.449219 108.238281 L 184.988281 106.625 L 186.230469 108.273438 L 187.324219 111.371094 L 189.425781 112.382813 L 190.6875 113.40625 L 190.9375 114.371094 L 188.777344 115.558594 L 186.777344 113.90625 L 184.832031 114.03125 L 181.886719 115.097656 Z M 187.671875 99.046875 L 187.644531 98.027344 L 188.613281 98.375 L 189.644531 99.757813 L 189.558594 100.558594 L 189.007813 101.453125 L 189.121094 100.265625 L 187.730469 99.058594 Z M 198.691406 98.019531 L 198.691406 98.863281 L 195.097656 100.542969 L 193.164063 102.480469 L 193.136719 102.113281 L 195.332031 98.847656 L 196.15625 98.316406 Z M 116.757813 198.109375 L 116.683594 200.359375 L 115.804688 199.949219 Z M 117.484375 205.769531 L 117.800781 207.710938 L 118.101563 208.382813 L 117.03125 209.015625 L 115.34375 209.1875 L 108.898438 208.554688 L 108.144531 207.871094 L 107.96875 206.789063 L 109.109375 205.527344 L 114.792969 204.496094 L 115.882813 205.636719 L 117.070313 206.34375 Z M 118.601563 209.492188 L 118.902344 210.160156 L 120.539063 212.292969 L 122.617188 213.992188 L 124.128906 214.730469 L 123.476563 215.398438 L 120.675781 217.269531 L 120.230469 216.390625 L 115.878906 214.433594 L 114.8125 213.664063 L 113.113281 211.414063 L 113.132813 210.632813 L 113.96875 210.082031 L 116.167969 209.980469 Z M 109.523438 137.628906 L 111.183594 136.402344 L 110.199219 138.445313 L 109.648438 140.519531 Z M 82.382813 164.769531 L 84.007813 164.601563 L 86.457031 164.699219 L 87.222656 163.867188 L 88.554688 163.523438 L 89.351563 164.214844 L 87.886719 165.902344 L 86.578125 169.089844 L 86.375 171.296875 L 84.875 171.125 L 84.914063 169.441406 L 82.996094 168.253906 L 81.75 168.351563 L 81.738281 168.007813 Z M 92.152344 160.355469 L 92.246094 160.265625 L 94.015625 157.015625 L 94.015625 160.890625 L 92.976563 161.472656 Z M 86.269531 172.425781 L 86.261719 172.523438 L 84.789063 174.09375 L 84.0625 175.25 L 83.046875 174.507813 L 82.722656 173.699219 L 82.824219 172.589844 L 83.972656 171.789063 Z M 83.777344 175.703125 L 83.574219 176.023438 L 82.757813 178.15625 L 82.382813 180.277344 L 81.953125 177.75 L 82.046875 176.234375 L 83.4375 175.515625 Z M 286.679688 439.636719 L 283.058594 438.976563 L 282.164063 437.605469 L 282.484375 436.070313 L 286.839844 437.054688 L 287.960938 438.832031 Z M 236.835938 466.113281 L 235.136719 465.644531 L 236.523438 463.683594 L 237.195313 464.164063 L 237.5 465.839844 Z M 88.429688 500.046875 L 88.566406 499.308594 L 88.941406 499.117188 L 89.34375 499.789063 Z M 116.207031 183.113281 L 115.0625 182.589844 L 114.59375 181.914063 L 114.695313 181.441406 L 115.34375 181.214844 L 116.664063 181.757813 L 116.886719 182.648438 Z M 106.597656 197.398438 L 105.582031 196.804688 L 103.613281 194.261719 L 105.34375 192.390625 L 106.722656 192.214844 L 107.992188 192.835938 L 108.445313 193.703125 L 108.09375 196.351563 L 107.546875 197.015625 Z M 110.160156 200.433594 L 108.972656 199.578125 L 108.9375 198.890625 L 110.578125 197.179688 L 111.398438 197.769531 L 111.5 198.265625 L 111.128906 199.855469 Z M 110.59375 209.929688 L 111.976563 210.636719 L 113.289063 212.988281 L 113.785156 214.699219 L 116.457031 215.945313 L 117.929688 216.300781 L 121.195313 219.144531 L 120.902344 221.207031 L 119.445313 223.339844 L 116.335938 225.03125 L 115.453125 224.539063 L 116.136719 223.339844 L 115.425781 223.117188 L 112.109375 224.96875 L 106.027344 226.585938 L 104.691406 226.273438 L 103.734375 224.277344 L 103.851563 223.371094 L 104.191406 223.09375 L 105.628906 223.050781 L 106.039063 223.617188 L 106.972656 224.074219 L 112.214844 222.164063 L 112.035156 221.589844 L 109.863281 222.445313 L 108.199219 222.488281 L 107.824219 221.539063 L 109.386719 219.472656 L 112.601563 217.957031 L 112.90625 216.820313 L 112.554688 216.699219 L 109.90625 217.519531 L 105.058594 214.074219 L 105.636719 211.667969 L 108.914063 210.140625 L 110.03125 209.789063 Z M 108.136719 218.074219 L 107.207031 217.691406 L 106.753906 217.160156 L 107.335938 216.378906 L 108.085938 216.507813 L 109.105469 217.519531 L 109.070313 217.820313 Z M 123.378906 222.417969 L 122.582031 222.078125 L 123.082031 221.191406 L 124.476563 221.046875 Z M 121.453125 227.109375 L 121.152344 226.972656 L 120.984375 225.621094 L 121.59375 224.800781 L 122.367188 224.816406 L 121.953125 226.621094 Z M 120.902344 230.566406 L 120.316406 229.273438 L 120.976563 227.386719 L 121.816406 227.683594 Z M 118.503906 231.671875 L 118.15625 231.449219 L 118.535156 230.824219 L 119.917969 230.164063 L 119.953125 231.257813 Z M 106.976563 236.632813 L 105.476563 236.191406 L 106.28125 234.464844 L 107.839844 232.910156 L 108.882813 232.734375 L 107.535156 236.1875 Z M 134.8125 251.347656 L 132.589844 248.835938 L 130.84375 244.566406 L 130.707031 243.464844 L 131.460938 242.613281 L 133.71875 244.574219 L 134.707031 246.3125 L 135.339844 249.003906 L 135.222656 250.96875 Z M 130.613281 263.773438 L 129.152344 263.667969 L 126.582031 261.613281 L 125.375 256.128906 L 125.988281 253.21875 L 128.179688 251.246094 L 129.539063 251.441406 L 131.390625 253.015625 L 132.984375 258.382813 L 133.019531 262.765625 L 132.308594 263.453125 Z M 130.613281 263.773438 "/>
</g>
</svg>
