<?xml version="1.0" encoding="UTF-8"?>
<svg xmlns="http://www.w3.org/2000/svg" xmlns:xlink="http://www.w3.org/1999/xlink" width="378pt" height="504pt" viewBox="0 0 378 504" version="1.1">
<g id="data">
<rect x="0" y="0" width="378" height="504" style="fill:rgb(100%,100%,100%);fill-opacity:1;stroke:none;"/>
<path style=" stroke:none;fill-rule:nonzero;fill:rgb(100%,100%,100%);fill-opacity:1;" d="M 53.308594 504 L 324.691406 504 L 324.691406 0 L 53.308594 0 Z M 53.308594 504 "/>
<path style=" stroke:none;fill-rule:nonzero;fill:rgb(22.745098%,53.333333%,16.078431%);fill-opacity:1;" d="M 142.5 129.339844 L 142.988281 127.496094 L 143.507813 126.710938 L 145.976563 127.269531 L 147.488281 129.277344 L 147.992188 130.773438 L 145.957031 133.847656 L 146.042969 134.238281 L 149.632813 130.886719 L 149.902344 129.097656 L 150.597656 128.644531 L 152.578125 129.367188 L 153.359375 129.816406 L 153.609375 130.328125 L 157.023438 130.710938 L 161.488281 129.921875 L 161.839844 129.90625 L 161.859375 130.058594 L 161.554688 131.742188 L 160.773438 133.265625 L 159.066406 135.644531 L 158.515625 137.585938 L 158.667969 139.597656 L 159.578125 141.628906 L 161.074219 142.972656 L 162.683594 143.695313 L 164.4375 143.902344 L 167.054688 143.394531 L 168.910156 143.335938 L 170.6875 143.867188 L 172.210938 144.929688 L 173.316406 146.421875 L 173.636719 147.386719 L 162.601563 156.074219 L 162.234375 157.082031 L 162.671875 158.175781 L 162.078125 159.632813 L 159.644531 160.289063 L 156.839844 159.359375 L 153.464844 157.734375 L 154.464844 159.796875 L 155.875 160.457031 L 161.363281 161.917969 L 164.042969 162.292969 L 165.242188 161.992188 L 166.015625 161.605469 L 166.75 160.257813 L 167.589844 160.183594 L 167.507813 160.828125 L 166.417969 162.609375 L 162.722656 166.96875 L 162.175781 167.183594 L 161.726563 166.894531 L 161.859375 165.949219 L 161.53125 165.507813 L 159.984375 165.785156 L 155.320313 167.769531 L 152.441406 170.8125 L 151.949219 171.945313 L 152.140625 172.144531 L 156.390625 168.453125 L 157.75 167.980469 L 160.300781 168.324219 L 161.058594 169.320313 L 157.109375 173.804688 L 156.367188 175.339844 L 156.707031 175.816406 L 157.367188 175.984375 L 158.261719 175.542969 L 161.140625 173.015625 L 167.808594 170.273438 L 170.480469 169.527344 L 170.492188 169.949219 L 171.554688 169.839844 L 173.589844 168.316406 L 174.046875 166.78125 L 178.648438 166.167969 L 179.285156 167.089844 L 180.148438 167.667969 L 184.320313 169.011719 L 187.675781 167.128906 L 199.164063 168.988281 L 204.117188 168.914063 L 205.648438 167.671875 L 206.136719 167.703125 L 206.894531 168.015625 L 208.511719 168.214844 L 208.746094 168.179688 L 210.3125 168.835938 L 212.550781 172.800781 L 213.671875 176.582031 L 213.695313 178 L 209.382813 183.425781 L 207.15625 188.339844 L 206.664063 191.242188 L 206.84375 191.972656 L 206.226563 194.742188 L 203.9375 198.859375 L 203.765625 200.121094 L 204.023438 201.304688 L 203.230469 203.472656 L 200.949219 206.4375 L 199.179688 207.605469 L 197.078125 210.023438 L 197.433594 210.839844 L 197.785156 210.703125 L 197.761719 211.238281 L 196.796875 214.386719 L 195.867188 215.914063 L 191.214844 219.742188 L 185.519531 221.085938 L 182.847656 221.226563 L 177.804688 225.21875 L 178.117188 225.714844 L 179.84375 225.195313 L 184.609375 222.886719 L 186.457031 221.386719 L 187.289063 221.316406 L 189.085938 221.875 L 189.332031 222.921875 L 188.898438 224.691406 L 189.238281 225.953125 L 190.898438 226.824219 L 192.988281 227.191406 L 194.445313 228.726563 L 194.429688 229.304688 L 192.117188 231.570313 L 189.460938 232.730469 L 188.34375 232.882813 L 187.070313 232.078125 L 185.40625 232.042969 L 181.046875 235.800781 L 180.578125 237.003906 L 174.761719 240.109375 L 170.214844 238.117188 L 166.480469 238.003906 L 166.738281 239.222656 L 168.246094 240.195313 L 178.0625 241.875 L 182.921875 243.167969 L 186.398438 241.730469 L 187.519531 239.417969 L 188.617188 238.355469 L 189.539063 238.171875 L 193.183594 238.5 L 199.339844 242.761719 L 206.488281 246.65625 L 208.910156 251.429688 L 212.824219 256.707031 L 213.265625 256.828125 L 213.433594 256.585938 L 214.601563 257.097656 L 217.371094 258.992188 L 218.679688 263.09375 L 218.894531 265.933594 L 218.261719 267.402344 L 220.40625 277.574219 L 221.269531 280.457031 L 222.984375 284.039063 L 223.773438 285.027344 L 225.945313 294.183594 L 229.304688 299.0625 L 244.476563 306.140625 L 245.742188 307.636719 L 247.265625 310.527344 L 249.289063 315.722656 L 252.390625 319.148438 L 256.121094 320.875 L 257.207031 321.722656 L 254.738281 323.09375 L 253.890625 324.554688 L 253.765625 325.996094 L 254.984375 329.992188 L 256.160156 332.453125 L 263.316406 342.46875 L 263.640625 343.980469 L 262.804688 345.191406 L 263.28125 343.65625 L 262.507813 342.839844 L 260.445313 342 L 258.378906 342.789063 L 257.507813 342.753906 L 256.035156 341.773438 L 253.664063 338.65625 L 252.601563 338.082031 L 245.550781 339.511719 L 244.589844 338.644531 L 243.40625 338.558594 L 241.210938 339.871094 L 241.886719 340.445313 L 246.324219 340.394531 L 249.617188 339.34375 L 251.976563 339.082031 L 254.382813 342.558594 L 260.535156 347.621094 L 263.042969 349.058594 L 263.664063 349.039063 L 266.046875 352.214844 L 268.980469 359.304688 L 269.535156 362.402344 L 269.210938 365.21875 L 264.953125 369.09375 L 261.394531 373.164063 L 260.601563 374.816406 L 262.84375 374.3125 L 264.9375 375.519531 L 266.9375 378.226563 L 270.21875 378.804688 L 270.625 378.746094 L 271.910156 376.796875 L 272.234375 374.960938 L 273.40625 371.914063 L 274.707031 370.632813 L 277.851563 370.085938 L 283.34375 370.234375 L 284.253906 370.867188 L 286.703125 370.742188 L 293.949219 371.515625 L 296.914063 372.84375 L 304.070313 378.085938 L 305.367188 380.105469 L 306.730469 384.164063 L 307.179688 391.25 L 306.777344 393.191406 L 306.890625 393.976563 L 305.789063 396.917969 L 303.519531 407.832031 L 297.144531 414.53125 L 295.578125 412.011719 L 292.742188 410.515625 L 292.480469 410.636719 L 293.898438 413.703125 L 295.890625 416.628906 L 296.3125 416.765625 L 296.164063 417.742188 L 294.574219 419.804688 L 292.191406 421.289063 L 290.003906 421.65625 L 289.660156 421.574219 L 288.214844 419.332031 L 284.976563 421.730469 L 280.71875 424.230469 L 282.339844 425.378906 L 285.105469 424.398438 L 286.097656 423.375 L 286.894531 423.164063 L 287.328125 423.710938 L 287.632813 428.84375 L 285.6875 430.875 L 283.441406 432.558594 L 282.84375 432.699219 L 279.644531 432.160156 L 274.75 433.78125 L 272.609375 436.117188 L 274.253906 436.015625 L 275.152344 434.667969 L 276.683594 434.363281 L 278.285156 434.328125 L 281.054688 434.949219 L 281.828125 435.589844 L 281.691406 436.328125 L 279.554688 436.347656 L 277.390625 437.65625 L 277.96875 438.546875 L 281.382813 438.964844 L 286.863281 440.339844 L 289.394531 439.9375 L 291.074219 438.957031 L 299.742188 437.757813 L 300.988281 440.148438 L 300.773438 446.324219 L 300.335938 447.820313 L 299.394531 449.050781 L 296.972656 450.242188 L 295.839844 450.375 L 292.621094 451.640625 L 291.179688 452.742188 L 289.847656 454.226563 L 289.460938 455.09375 L 289.214844 456.324219 L 289.464844 457.886719 L 286.253906 458.289063 L 284.1875 457.9375 L 281.042969 460.90625 L 278.484375 461.933594 L 274.789063 462.777344 L 272.597656 463.816406 L 270.539063 466.589844 L 269.761719 466.949219 L 259.269531 463.777344 L 256.070313 463.507813 L 244.628906 465.699219 L 242.703125 466.390625 L 242.113281 466.964844 L 241.902344 467.984375 L 241.359375 468.164063 L 238.210938 466.1875 L 238.632813 465.4375 L 239.46875 464.933594 L 237.714844 463.296875 L 231.496094 463.171875 L 231.378906 463.496094 L 232.574219 464.835938 L 232.214844 465.75 L 231.738281 466.042969 L 226.691406 465.496094 L 219.566406 468.449219 L 217.054688 467.824219 L 210.222656 468.96875 L 208.164063 468.875 L 207.273438 468.058594 L 206.238281 469.769531 L 209.429688 471.089844 L 209.714844 470.9375 L 210.1875 472.128906 L 209.566406 473.890625 L 206.84375 474.453125 L 204.453125 473.097656 L 203.015625 472.699219 L 197.625 472.007813 L 196.175781 472.65625 L 195.679688 473.863281 L 195.832031 474.871094 L 196.757813 475.523438 L 196.488281 476.304688 L 195.917969 475.996094 L 194.851563 473.972656 L 190.289063 470.589844 L 185.898438 468.519531 L 183.121094 467.984375 L 181.648438 469.066406 L 176.207031 469.78125 L 174.339844 470.335938 L 168.992188 473.234375 L 168.214844 474.070313 L 167.203125 476.179688 L 162.746094 489.226563 L 160.929688 490.242188 L 158.269531 489.722656 L 157.554688 489.058594 L 156.527344 486.851563 L 154.683594 485.4375 L 153.613281 485.542969 L 152.417969 486.300781 L 151.738281 486.164063 L 148.46875 482.535156 L 142.796875 482.960938 L 141.527344 483.375 L 140.734375 484.175781 L 139.910156 484.507813 L 134.507813 484.320313 L 132.167969 484.859375 L 129.414063 488.195313 L 126.714844 489.746094 L 124.039063 490.597656 L 123.132813 494.289063 L 123.664063 495.292969 L 123.496094 496.125 L 122.722656 496.945313 L 120.660156 497.648438 L 119.628906 499.730469 L 118.675781 498.910156 L 117.96875 497.691406 L 118.09375 496.4375 L 117.15625 494.691406 L 115.984375 493.691406 L 112.253906 492.070313 L 111.410156 491.984375 L 110.375 492.488281 L 110.242188 494.183594 L 109.421875 495.128906 L 106.824219 495.664063 L 105.398438 494.824219 L 105.628906 491.574219 L 106.074219 490.5625 L 111.738281 488.078125 L 112.199219 488.253906 L 112.445313 488.9375 L 113.574219 489.15625 L 118.144531 485.910156 L 121.425781 483.085938 L 124.375 479.769531 L 125.210938 477.886719 L 124.875 476.421875 L 125.640625 474.519531 L 128.386719 473.238281 L 132.105469 472.640625 L 132.679688 471.785156 L 133.257813 469.527344 L 135.859375 467.5625 L 138.636719 464.640625 L 139.128906 458.542969 L 139.796875 454.753906 L 142.492188 455.105469 L 144.269531 456.015625 L 145.761719 455.429688 L 148.429688 452.488281 L 148.105469 447.519531 L 151.105469 446.613281 L 157.421875 446.269531 L 159.910156 445.683594 L 164.597656 446.761719 L 166.046875 446.148438 L 167.527344 446.515625 L 169.484375 447.285156 L 170.039063 448.109375 L 170.757813 448.421875 L 173.15625 448.464844 L 180.570313 447.503906 L 181.109375 445.632813 L 181.210938 443.15625 L 182.519531 440.25 L 190.867188 432.195313 L 195.792969 425.3125 L 197.929688 424.472656 L 198.285156 423.78125 L 198.070313 423.238281 L 197.8125 423.082031 L 196.09375 424.355469 L 192.90625 427.300781 L 190.570313 429.988281 L 189.222656 431.449219 L 185.628906 432.957031 L 183.714844 433.246094 L 182.441406 433.0625 L 178.394531 435.230469 L 177.398438 436.808594 L 177.039063 438.671875 L 176.445313 439.273438 L 174.058594 439.917969 L 170.558594 439.851563 L 166.820313 439 L 166.347656 438.652344 L 161.371094 433.375 L 159.03125 429.199219 L 155.65625 429.589844 L 149.269531 432.308594 L 149.113281 432.746094 L 147.203125 431.632813 L 146.917969 429.308594 L 148.539063 428.378906 L 150.066406 428.890625 L 151.640625 428.421875 L 152.765625 427.832031 L 153.085938 427.097656 L 152.808594 426.597656 L 147.785156 426.460938 L 143.210938 423.710938 L 139.503906 423.714844 L 136.765625 424.277344 L 136.292969 426.515625 L 135.777344 427.203125 L 133.742188 427.917969 L 132.394531 427.265625 L 131.648438 427.453125 L 129.4375 429.378906 L 126.53125 428.132813 L 127.425781 426.082031 L 128.796875 425.832031 L 131.792969 424.328125 L 131.226563 422.867188 L 130.640625 424.257813 L 127.769531 424.613281 L 122.949219 424.152344 L 121.496094 423.164063 L 124.125 421.78125 L 125.167969 421.753906 L 125.464844 421.238281 L 124.929688 417.953125 L 123.328125 417.210938 L 121.445313 417.105469 L 122.0625 415.152344 L 125.933594 413.378906 L 126.539063 411.90625 L 133.074219 411.34375 L 134.871094 409.289063 L 135.753906 407.632813 L 137.585938 406.550781 L 141.359375 406.660156 L 142.21875 406.390625 L 149.359375 401.828125 L 152.136719 398.207031 L 153.054688 396.195313 L 154.199219 391.746094 L 153.734375 388.820313 L 152.566406 386.542969 L 153.179688 384.597656 L 154.652344 381.796875 L 152.269531 378.203125 L 152.683594 374.835938 L 153.175781 374.082031 L 152.804688 373.207031 L 150.203125 373.105469 L 145.449219 374.257813 L 143.757813 375.484375 L 142.039063 378.097656 L 136.757813 378.433594 L 136.246094 378.0625 L 137.339844 376.066406 L 140.148438 373.019531 L 141.023438 372.414063 L 142.589844 371.953125 L 147.132813 367.984375 L 147.953125 364.523438 L 151.550781 360.582031 L 153.09375 359.609375 L 154.941406 359.808594 L 160.492188 357.457031 L 163.644531 357.28125 L 167.339844 357.714844 L 172.597656 355.179688 L 173.933594 355.046875 L 174.484375 355.082031 L 179.910156 359.441406 L 180.433594 358.429688 L 177.679688 353.460938 L 178.242188 352.835938 L 180.867188 352.449219 L 181.503906 352.695313 L 181.914063 353.875 L 182.898438 354.332031 L 184.078125 356.789063 L 185.613281 357.902344 L 188.359375 357.621094 L 190.335938 355.148438 L 189.90625 355.050781 L 188.667969 355.527344 L 188.3125 355.957031 L 186.378906 356.386719 L 183.8125 354.640625 L 179.976563 346.332031 L 183.371094 340.257813 L 185.429688 339.015625 L 185.140625 338.578125 L 182.683594 338.460938 L 181.554688 337.164063 L 181.355469 336.117188 L 181.601563 331.078125 L 181.949219 330.421875 L 184.695313 329.191406 L 187.28125 323.421875 L 187.71875 320.933594 L 187.855469 317.484375 L 184.742188 320.527344 L 179.199219 323.441406 L 177.335938 322.691406 L 172.851563 314.925781 L 172.289063 311.832031 L 167.40625 304.652344 L 169.164063 299.058594 L 174.074219 288.722656 L 176.464844 286.417969 L 178.757813 285.980469 L 180.191406 286.804688 L 181.015625 286.710938 L 182.933594 286.238281 L 183.03125 285.160156 L 182.34375 284.746094 L 180.035156 285.351563 L 174.65625 284.980469 L 172.566406 284.292969 L 169.453125 284.03125 L 168.226563 288.992188 L 166.234375 288.695313 L 163.3125 290.011719 L 161.832031 291.855469 L 159.410156 293.515625 L 156.15625 293.3125 L 155.160156 292.984375 L 149.984375 289.230469 L 149.214844 288.042969 L 149.222656 287.527344 L 150.304688 287.398438 L 152.074219 286.527344 L 153.449219 285.109375 L 154.640625 282.519531 L 155.832031 280.824219 L 157.539063 279.648438 L 159.546875 279.152344 L 161.648438 279.015625 L 162.980469 278.59375 L 164.167969 277.863281 L 165.070313 276.953125 L 166.445313 274.421875 L 167.121094 273.4375 L 168.785156 271.476563 L 169.199219 270.632813 L 169.851563 267.449219 L 169.785156 265.699219 L 169.421875 264.46875 L 168.835938 263.433594 L 166.925781 261.402344 L 165.984375 260.671875 L 164.675781 260.054688 L 162.632813 259.636719 L 160.40625 258.660156 L 158.847656 257.542969 L 157.691406 257.050781 L 156.363281 256.8125 L 155.015625 256.886719 L 153.824219 257.230469 L 152.640625 257.886719 L 151.65625 258.785156 L 150.871094 259.929688 L 150.464844 260.929688 L 150.136719 262.738281 L 149.664063 264.195313 L 148.828125 265.480469 L 147.277344 267.285156 L 146.644531 268.625 L 146.25 270.832031 L 146.347656 273.070313 L 146.050781 275.175781 L 145.019531 277.03125 L 143.605469 278.742188 L 143.019531 279.972656 L 142.730469 281.441406 L 142.796875 282.671875 L 143.507813 284.648438 L 144.757813 286.167969 L 146.378906 287.148438 L 148.46875 287.621094 L 148.5 287.617188 L 148.15625 288.078125 L 147.988281 288.910156 L 148.375 290.554688 L 149.574219 292.960938 L 149.839844 295.726563 L 149.308594 296.871094 L 148.746094 297.058594 L 145.816406 295.78125 L 144.601563 294.238281 L 144.507813 293.621094 L 143.632813 292.355469 L 141.613281 291.4375 L 140.164063 290.433594 L 138.398438 288.636719 L 137.464844 288.296875 L 135.511719 289.683594 L 134.605469 291.238281 L 135.976563 295.472656 L 136.734375 296.308594 L 136.957031 298.523438 L 136.742188 298.695313 L 134.683594 297.484375 L 134.359375 296.304688 L 134.707031 295.457031 L 134.59375 294.480469 L 133.472656 292.679688 L 130.894531 289.722656 L 129.605469 286.988281 L 129.300781 285.09375 L 129.71875 282.265625 L 132.777344 280.410156 L 134.003906 276.632813 L 137.757813 273.035156 L 138.601563 268.871094 L 140.917969 265.085938 L 143.644531 263.800781 L 144.390625 261.886719 L 144.195313 260.621094 L 142.601563 256.71875 L 139.777344 254.832031 L 137.378906 252.511719 L 138.6875 242.234375 L 140.710938 241.59375 L 142.886719 242.511719 L 146.15625 243.175781 L 148.300781 243.253906 L 141.261719 240.453125 L 140.441406 240.5625 L 139.386719 240.085938 L 139.183594 238.121094 L 139.414063 236.460938 L 140.238281 234.648438 L 139.292969 234.9375 L 138.320313 240.257813 L 136.15625 245.152344 L 135.023438 244.945313 L 131.566406 242.222656 L 130.757813 242.5 L 130.269531 243.347656 L 130.09375 244.535156 L 130.664063 246.308594 L 130.519531 246.613281 L 128.257813 245.464844 L 127.46875 243.074219 L 128.453125 238.691406 L 131.230469 234.078125 L 132.636719 232.910156 L 132.742188 232.988281 L 134.175781 233.554688 L 135.246094 233.71875 L 136.234375 233.675781 L 141.550781 232.277344 L 142.730469 231.679688 L 144.480469 230.160156 L 145.742188 229.328125 L 147.5625 228.4375 L 148.386719 227.773438 L 149.734375 225.824219 L 150.105469 224.648438 L 150.242188 222.546875 L 150.710938 220.613281 L 151.800781 218.945313 L 152.894531 217.78125 L 153.507813 216.808594 L 153.917969 215.734375 L 154.195313 214.160156 L 154.699219 212.609375 L 155.613281 211.261719 L 156.878906 209.871094 L 157.46875 208.816406 L 158.152344 206.035156 L 158.871094 204.328125 L 160.089844 202.9375 L 161.679688 202 L 163.488281 201.609375 L 165.328125 201.804688 L 167.011719 202.566406 L 168.371094 203.820313 L 169.648438 205.445313 L 171.273438 206.722656 L 172.945313 208.828125 L 174.207031 211.527344 L 175.660156 213.007813 L 176.484375 213.492188 L 177.570313 213.867188 L 178.714844 214.015625 L 179.695313 213.949219 L 182.371094 213.058594 L 184.035156 211.824219 L 184.808594 210.800781 L 185.605469 208.972656 L 186.632813 207.382813 L 188.117188 206.207031 L 190.371094 204.957031 L 191.601563 203.675781 L 192.25 202.460938 L 192.617188 200.898438 L 192.601563 199.671875 L 192.34375 198.558594 L 191.707031 197.257813 L 190.355469 195.640625 L 189.558594 194.390625 L 189.101563 192.980469 L 188.765625 191.207031 L 188.390625 190.296875 L 186.382813 187.769531 L 185.859375 186.988281 L 184.4375 184.4375 L 182.769531 183.007813 L 181.261719 182.40625 L 178.804688 182.195313 L 177.449219 181.910156 L 176.199219 181.316406 L 173.789063 179.792969 L 171.644531 179.296875 L 170.804688 179.328125 L 169.667969 179.597656 L 168.625 180.078125 L 167.226563 181.097656 L 165.601563 181.929688 L 163.800781 182.214844 L 156.046875 182.214844 L 153.910156 181.808594 L 152.070313 180.644531 L 150.90625 179.550781 L 149.929688 178.9375 L 148.855469 178.527344 L 147.28125 178.25 L 145.527344 177.640625 L 144.054688 176.503906 L 143.015625 174.964844 L 142.511719 173.175781 L 142.601563 171.316406 L 143.273438 169.582031 L 144.457031 168.152344 L 146.035156 167.164063 L 148.171875 166.261719 L 149.304688 165.386719 L 150.238281 164.160156 L 150.789063 162.808594 L 150.96875 160.992188 L 150.367188 158.265625 L 150.238281 156.71875 L 150.523438 155.191406 L 151.207031 153.117188 L 151.300781 151.566406 L 151.015625 150.167969 L 150.226563 148.566406 L 148.753906 147.230469 L 147.132813 146.480469 L 145.382813 146.261719 L 142.753906 146.75 L 141 146.804688 L 139.304688 146.332031 L 137.828125 145.378906 L 136.707031 144.023438 L 136.039063 142.398438 L 136.003906 141.984375 L 138.566406 141.597656 L 137.367188 140.554688 L 136.59375 138.367188 L 137.144531 137.40625 L 138.433594 136.214844 L 140.574219 134.765625 L 141.65625 133.421875 L 142.261719 131.925781 Z M 109.460938 247.746094 L 109.085938 247.679688 L 106.171875 248.191406 L 104.773438 248.210938 L 104.988281 247.472656 L 102.980469 247.105469 L 102.644531 247.6875 L 102.546875 247.660156 L 101.042969 246.570313 L 100.160156 245.339844 L 100.660156 243.785156 L 102.445313 243.214844 L 103.882813 243.558594 L 106.871094 241.457031 L 108.433594 240.808594 L 108.667969 241.335938 L 108.480469 243.175781 L 108.777344 246.292969 L 109.046875 247.320313 Z M 105.160156 184.183594 L 105.316406 184.03125 L 105.917969 183.167969 L 106.386719 182.105469 L 106.605469 181.105469 L 107.179688 181.675781 L 107.667969 181.742188 L 107.789063 181.460938 L 106.644531 180.335938 L 106.660156 179.257813 L 107.015625 177.363281 L 107.972656 175.683594 L 109.421875 174.410156 L 111.210938 173.683594 L 112.304688 173.628906 L 112.300781 173.941406 L 111.832031 177.386719 L 112.054688 181.640625 L 117.5 184.859375 L 119.214844 184.117188 L 119.214844 184.152344 L 119.132813 185.136719 L 118.636719 188.03125 L 119.023438 190.300781 L 118.089844 190.683594 L 116.035156 193.449219 L 114.023438 194.042969 L 113.570313 192.609375 L 115.183594 189.4375 L 113.980469 187.324219 L 112.75 189.558594 L 110.542969 187.414063 L 107.277344 187.777344 Z M 114.648438 174.019531 L 114.992188 174.117188 L 115.925781 174.777344 L 115.367188 179.941406 L 114.945313 180.566406 L 113.875 180.957031 L 113.53125 180.855469 L 113.277344 179.863281 L 113.640625 176.351563 Z M 118.359375 195.136719 L 117.964844 196.089844 L 117.792969 197.203125 L 118.128906 199.503906 L 118.496094 200.179688 L 116.804688 200.417969 L 115.804688 199.949219 L 118.253906 195.210938 Z M 120.257813 202.261719 L 121.195313 203.121094 L 122.621094 205.125 L 123.378906 206.886719 L 124.074219 207.851563 L 125.363281 208.933594 L 127.4375 209.875 L 128.316406 210.4375 L 123.476563 215.398438 L 120.675781 217.269531 L 120.230469 216.390625 L 115.878906 214.433594 L 114.8125 213.664063 L 113.113281 211.414063 L 113.132813 210.632813 L 113.96875 210.082031 L 116.167969 209.980469 L 120.585938 209.09375 L 123.988281 209.15625 L 124.257813 209.050781 L 124.117188 208.789063 L 119.15625 207.757813 L 117.03125 209.015625 L 115.34375 209.1875 L 108.898438 208.554688 L 108.144531 207.871094 L 107.96875 206.789063 L 109.109375 205.527344 L 114.792969 204.496094 L 115.882813 205.636719 L 117.070313 206.34375 L 118.480469 204.378906 L 117.316406 203.507813 L 117.253906 202.640625 L 119.675781 202.136719 Z M 129.300781 211.304688 L 129.921875 212.023438 L 130.609375 213.527344 L 130.832031 215.078125 L 129.507813 214.882813 L 128.550781 215.441406 L 127.980469 214.949219 L 127.875 213.785156 Z M 130.847656 215.28125 L 130.847656 219.542969 L 127.28125 218.265625 L 127.882813 216.460938 L 128.195313 216.742188 L 128.945313 216.671875 Z M 130.847656 220.367188 L 130.847656 222.921875 L 130.5 224.894531 L 129.921875 226.507813 L 129.773438 227.527344 L 130.078125 229.789063 L 130.636719 230.996094 L 131.5625 232.125 L 132.03125 232.46875 L 130.363281 233.964844 L 126.449219 238.917969 L 125.671875 238.734375 L 125.460938 238.363281 L 126.1875 249.699219 L 124.449219 251.558594 L 123.367188 254.191406 L 121.183594 263.964844 L 122.0625 266.289063 L 120.679688 268.164063 L 119.945313 268.597656 L 116.058594 268.992188 L 115.222656 268.382813 L 115.277344 264.699219 L 117.226563 262.640625 L 117.992188 256.269531 L 120.664063 249.058594 L 119.164063 246.890625 L 119.359375 242.367188 L 121.945313 238.054688 L 122.191406 237.09375 L 120.824219 237.742188 L 119.636719 239.75 L 119.449219 238.929688 L 123.929688 230.9375 L 123.671875 230.734375 L 122.386719 231.796875 L 121.808594 231.777344 L 122.070313 227.40625 L 122.761719 224.691406 L 124.160156 221.96875 L 126.660156 220.210938 L 128.792969 220.179688 L 129.328125 220.484375 Z M 188.070313 122.121094 L 186.597656 122.164063 L 186.507813 122.136719 L 186.4375 122.070313 L 185.203125 119.125 L 185.941406 118.488281 L 188.300781 118.292969 L 188.792969 119.078125 Z M 182.953125 120.101563 L 182.167969 119.027344 L 181.605469 117.242188 L 181.601563 117.238281 L 182.96875 119.6875 Z M 181.320313 114.695313 L 181.363281 113.207031 L 182.09375 111.34375 L 183.417969 109.839844 L 184.648438 108.847656 L 185.714844 107.589844 L 186.230469 108.273438 L 187.324219 111.371094 L 189.425781 112.382813 L 190.734375 113.441406 L 191.546875 114.902344 L 189.996094 116.5625 L 186.777344 113.90625 L 184.832031 114.03125 L 181.886719 115.097656 Z M 147.425781 363.976563 L 146.109375 363.875 L 144.195313 361.613281 L 142.050781 357.363281 L 142.246094 352.273438 L 144.664063 351.183594 L 146.003906 350.957031 L 149.566406 352.007813 L 151.039063 355.578125 L 155.546875 356.503906 L 154.066406 358.859375 L 150.984375 360.816406 Z M 141.734375 358.875 L 141.003906 358.070313 L 139.230469 356.960938 L 138.828125 356.035156 L 139.253906 355.210938 L 140.597656 355.164063 L 141.484375 356.3125 L 142.226563 358.1875 Z M 137.933594 323.433594 L 137.675781 322.921875 L 139.816406 316.644531 L 142.300781 315.023438 L 144.765625 310.230469 L 145.863281 309.40625 L 149.046875 308.269531 L 150.203125 313.453125 L 147.847656 318.148438 L 145.3125 320.636719 L 141.859375 323.019531 L 139.824219 322.464844 Z M 286.679688 439.636719 L 283.058594 438.976563 L 282.164063 437.605469 L 282.484375 436.070313 L 286.839844 437.054688 L 287.960938 438.832031 Z M 236.835938 466.113281 L 235.136719 465.644531 L 236.523438 463.683594 L 237.195313 464.164063 L 237.5 465.839844 Z M 228.117188 474.644531 L 222.296875 470.886719 L 220.207031 471.1875 L 221.476563 469.683594 L 227.316406 466.367188 L 232.550781 467.761719 L 234.171875 469.894531 L 231.242188 473.621094 L 229.960938 474.269531 Z M 88.429688 500.046875 L 88.566406 499.308594 L 88.941406 499.117188 L 89.34375 499.789063 Z M 189.007813 101.453125 L 189.121094 100.265625 L 187.730469 99.058594 L 186.953125 98.894531 L 186.835938 99.515625 L 186.335938 100.011719 L 184.679688 96.953125 L 188.613281 98.375 L 189.644531 99.757813 L 189.558594 100.558594 Z M 193.226563 103.421875 L 193.136719 102.113281 L 195.332031 98.847656 L 196.15625 98.316406 L 199.542969 97.917969 L 199.804688 99.347656 L 197.464844 100.832031 L 194.695313 101.191406 Z M 116.207031 183.113281 L 115.0625 182.589844 L 114.59375 181.914063 L 114.695313 181.441406 L 115.34375 181.214844 L 116.664063 181.757813 L 116.886719 182.648438 Z M 100.703125 192.265625 L 100.25 191.921875 L 101.515625 191.273438 L 102.835938 191.832031 Z M 106.597656 197.398438 L 105.582031 196.804688 L 103.613281 194.261719 L 105.34375 192.390625 L 106.722656 192.214844 L 107.992188 192.835938 L 108.445313 193.703125 L 108.09375 196.351563 L 107.546875 197.015625 Z M 110.160156 200.433594 L 108.972656 199.578125 L 108.9375 198.890625 L 110.578125 197.179688 L 111.398438 197.769531 L 111.5 198.265625 L 111.128906 199.855469 Z M 96.976563 213.15625 L 96.5625 212.070313 L 98.742188 209.859375 L 101.351563 207.964844 L 102.617188 207.75 L 102.652344 208.195313 L 101.386719 210.445313 L 99.425781 212.117188 Z M 110.59375 209.929688 L 111.976563 210.636719 L 113.289063 212.988281 L 113.785156 214.699219 L 116.457031 215.945313 L 117.929688 216.300781 L 121.195313 219.144531 L 120.902344 221.207031 L 119.445313 223.339844 L 116.335938 225.03125 L 115.453125 224.539063 L 116.136719 223.339844 L 115.425781 223.117188 L 112.109375 224.96875 L 106.027344 226.585938 L 104.691406 226.273438 L 103.734375 224.277344 L 103.851563 223.371094 L 104.191406 223.09375 L 105.628906 223.050781 L 106.039063 223.617188 L 106.972656 224.074219 L 112.214844 222.164063 L 112.035156 221.589844 L 109.863281 222.445313 L 108.199219 222.488281 L 107.824219 221.539063 L 109.386719 219.472656 L 112.601563 217.957031 L 112.90625 216.820313 L 112.554688 216.699219 L 109.90625 217.519531 L 105.058594 214.074219 L 105.636719 211.667969 L 108.914063 210.140625 L 110.03125 209.789063 Z M 91.515625 217.839844 L 89.652344 217.246094 L 89.414063 215.113281 L 90.1875 214.519531 L 95.1875 213.382813 L 95.671875 214.59375 L 93.804688 214.847656 L 92.019531 216.296875 Z M 108.136719 218.074219 L 107.207031 217.691406 L 106.753906 217.160156 L 107.335938 216.378906 L 108.085938 216.507813 L 109.105469 217.519531 L 109.070313 217.820313 Z M 123.378906 222.417969 L 122.582031 222.078125 L 123.082031 221.191406 L 124.476563 221.046875 Z M 102.664063 224.511719 L 102.054688 224.097656 L 102.589844 223.230469 L 103.304688 222.808594 L 103.460938 223.023438 Z M 121.453125 227.109375 L 121.152344 226.972656 L 120.984375 225.621094 L 121.59375 224.800781 L 122.367188 224.816406 L 121.953125 226.621094 Z M 120.902344 230.566406 L 120.316406 229.273438 L 120.976563 227.386719 L 121.816406 227.683594 Z M 118.503906 231.671875 L 118.15625 231.449219 L 118.535156 230.824219 L 119.917969 230.164063 L 119.953125 231.257813 Z M 111.886719 247.292969 L 110.550781 247.070313 L 109.476563 246.144531 L 109.292969 243.285156 L 109.585938 242.089844 L 112.5625 237.15625 L 116.605469 233.660156 L 119.195313 232.023438 L 119.632813 233.128906 L 119.449219 233.945313 L 118.015625 235.730469 L 113.761719 243.328125 Z M 106.976563 236.632813 L 105.476563 236.191406 L 106.28125 234.464844 L 107.839844 232.910156 L 108.882813 232.734375 L 107.535156 236.1875 Z M 134.8125 251.347656 L 132.589844 248.835938 L 130.84375 244.566406 L 130.707031 243.464844 L 131.460938 242.613281 L 133.71875 244.574219 L 134.707031 246.3125 L 135.339844 249.003906 L 135.222656 250.96875 Z M 130.613281 263.773438 L 129.152344 263.667969 L 126.582031 261.613281 L 125.375 256.128906 L 125.988281 253.21875 L 128.179688 251.246094 L 129.539063 251.441406 L 131.390625 253.015625 L 132.984375 258.382813 L 133.019531 262.765625 L 132.308594 263.453125 Z M 130.613281 263.773438 "/>
<path style=" stroke:none;fill-rule:nonzero;fill:rgb(80.392157%,58.431373%,4.705882%);fill-opacity:1;" d="M 89.636719 169.496094 L 88.058594 170.300781 L 86.261719 170.585938 L 84.890625 170.367188 L 84.914063 169.441406 L 82.996094 168.253906 L 81.722656 168.351563 L 81.558594 168.1875 L 80.730469 166.566406 L 80.632813 165.957031 L 81.617188 164.507813 L 86.457031 164.699219 L 87.222656 163.867188 L 88.554688 163.523438 L 91.023438 165.660156 L 91.214844 166.0625 Z M 88.238281 162.863281 L 87.917969 162.585938 L 88.445313 161.890625 L 89.367188 161.550781 L 89.65625 162.238281 Z M 88.238281 162.863281 "/>
<path style=" stroke:none;fill-rule:nonzero;fill:rgb(80.392157%,58.431373%,4.705882%);fill-opacity:1;" d="M 85.121094 185.328125 L 84.183594 185.808594 L 82.382813 186.09375 L 81.714844 185.984375 L 81.515625 184.671875 L 82.046875 176.234375 L 83.4375 175.515625 L 85.28125 176.539063 L 86.578125 178.347656 L 85.882813 178.945313 L 85.144531 178.476563 L 85.03125 179.058594 Z M 83.148438 174.582031 L 84.183594 174.746094 L 85.804688 175.570313 L 85.902344 175.671875 L 85.394531 175.835938 L 84.546875 175.601563 Z M 83.148438 174.582031 "/>
<path style=" stroke:none;fill-rule:nonzero;fill:rgb(80.392157%,58.431373%,4.705882%);fill-opacity:1;" d="M 85.644531 188.941406 L 85.59375 188.964844 L 84.328125 188.382813 L 82.6875 188.554688 L 82.128906 188.101563 L 81.921875 187.375 L 81.515625 184.671875 L 81.910156 178.414063 L 82.382813 178.339844 L 84.183594 178.625 L 85.03125 179.058594 L 85.140625 186.4375 L 86.054688 188.15625 Z M 85.644531 188.941406 "/>
<path style=" stroke:none;fill-rule:nonzero;fill:rgb(80.392157%,58.431373%,4.705882%);fill-opacity:1;" d="M 91.117188 165.863281 L 90.597656 165.597656 L 89.3125 164.308594 L 89.191406 164.078125 L 91.023438 165.660156 Z M 88.511719 162.742188 L 88.484375 162.6875 L 88.375 161.988281 L 88.445313 161.890625 L 89.367188 161.550781 L 89.65625 162.238281 Z M 91.921875 155.511719 L 92.21875 155.363281 L 93.460938 155.164063 L 93.378906 155.476563 Z M 96.257813 155.589844 L 97.433594 156.1875 L 98.71875 157.472656 L 99.222656 158.457031 L 93.527344 162.226563 L 90.550781 158.175781 L 90.507813 157.148438 L 91.820313 157.980469 Z M 96.257813 155.589844 "/>
<path style=" stroke:none;fill-rule:nonzero;fill:rgb(80.392157%,58.431373%,4.705882%);fill-opacity:1;" d="M 225.054688 68.835938 L 223.75 69.5 L 222.558594 69.6875 L 222.910156 68.203125 L 223.429688 67.644531 L 224.308594 63.570313 L 223.710938 58.433594 L 223.75 58.4375 L 225.371094 59.265625 L 226.660156 60.550781 L 227.160156 61.539063 L 227.246094 61.769531 L 226.800781 62.460938 L 226.285156 62.238281 L 225.40625 63.738281 L 225.265625 67.207031 Z M 218.390625 59.410156 L 218.535156 59.265625 L 220.15625 58.4375 L 221.953125 58.152344 L 221.960938 58.15625 L 222.089844 58.292969 L 222.21875 59.898438 L 220.292969 61.703125 L 218.738281 60.40625 L 218.746094 59.554688 Z M 218.390625 59.410156 "/>
<path style=" stroke:none;fill-rule:nonzero;fill:rgb(80.392157%,58.431373%,4.705882%);fill-opacity:1;" d="M 223.742188 66.191406 L 223.75 66.191406 L 225.277344 66.96875 L 225.265625 67.207031 L 224.308594 74.617188 L 223.472656 74.351563 L 221.910156 72.433594 L 222.910156 68.203125 L 223.429688 67.644531 Z M 223.742188 66.191406 "/>
</g>
</svg>
