<?xml version="1.0" encoding="UTF-8"?>
<svg xmlns="http://www.w3.org/2000/svg" xmlns:xlink="http://www.w3.org/1999/xlink" width="378pt" height="504pt" viewBox="0 0 378 504" version="1.1">
<g id="data">
<rect x="0" y="0" width="378" height="504" style="fill:rgb(100%,100%,100%);fill-opacity:1;stroke:none;"/>
<path style=" stroke:none;fill-rule:nonzero;fill:rgb(100%,100%,100%);fill-opacity:1;" d="M 53.308594 504 L 324.691406 504 L 324.691406 0 L 53.308594 0 Z M 53.308594 504 "/>
<path style=" stroke:none;fill-rule:nonzero;fill:rgb(22.745098%,53.333333%,16.078431%);fill-opacity:1;" d="M 166.207031 365.320313 L 165.140625 363.773438 L 164.625 361.964844 L 164.710938 360.085938 L 165.394531 358.332031 L 166.035156 357.5625 L 167.339844 357.714844 L 172.597656 355.179688 L 173.933594 355.046875 L 174.484375 355.082031 L 179.910156 359.441406 L 180.433594 358.429688 L 177.679688 353.460938 L 178.242188 352.835938 L 180.867188 352.449219 L 181.503906 352.695313 L 181.914063 353.875 L 182.898438 354.332031 L 184.078125 356.789063 L 185.613281 357.902344 L 188.359375 357.621094 L 190.335938 355.148438 L 189.90625 355.050781 L 188.667969 355.527344 L 188.3125 355.957031 L 186.378906 356.386719 L 183.8125 354.640625 L 179.976563 346.332031 L 180.585938 345.238281 L 181.835938 345.625 L 183.261719 346.597656 L 184.523438 347.765625 L 185.410156 348.316406 L 186.5 348.734375 L 188.070313 349.011719 L 189.90625 349.664063 L 191.417969 350.886719 L 192.445313 352.542969 L 192.871094 354.441406 L 192.640625 356.375 L 191.863281 359.035156 L 191.925781 360.882813 L 192.523438 362.515625 L 193.726563 364.046875 L 194.828125 364.828125 L 196.269531 365.371094 L 197.804688 365.511719 L 199.964844 365.148438 L 200.488281 365.140625 L 201.128906 364.671875 L 202.679688 363.867188 L 203.507813 363.214844 L 204.261719 362.324219 L 204.824219 361.320313 L 205.171875 360.222656 L 205.300781 359.066406 L 205.210938 358.015625 L 204.730469 356.332031 L 204.507813 354.65625 L 204.777344 352.984375 L 205.519531 351.460938 L 206.667969 350.214844 L 208.125 349.355469 L 210.082031 348.554688 L 211.199219 347.738281 L 212.152344 346.585938 L 212.765625 345.289063 L 213.015625 344.132813 L 213.027344 343.066406 L 211.671875 336.800781 L 211.207031 335.949219 L 210.425781 335.035156 L 209.46875 334.300781 L 207.835938 333.519531 L 206.296875 332.449219 L 205.179688 330.949219 L 204.597656 329.171875 L 204.609375 327.300781 L 205.214844 325.53125 L 206.351563 324.042969 L 207.902344 322.992188 L 209.703125 322.492188 L 211.605469 322.28125 L 212.804688 321.871094 L 213.875 321.214844 L 214.871094 320.238281 L 215.460938 319.335938 L 215.855469 318.34375 L 216.40625 313.5 L 216.15625 311.65625 L 215.464844 310.132813 L 212.449219 306.515625 L 210.554688 304.992188 L 209.054688 303.167969 L 208.023438 301.210938 L 207.125 300.210938 L 205.832031 299.351563 L 204.394531 298.875 L 202.878906 298.785156 L 200.636719 299.253906 L 198.878906 299.347656 L 197.175781 298.914063 L 195.675781 297.988281 L 194.523438 296.65625 L 193.824219 295.042969 L 193.636719 293.292969 L 193.984375 291.566406 L 194.832031 290.023438 L 195.863281 288.679688 L 196.394531 287.585938 L 196.6875 286.40625 L 196.757813 284.710938 L 197.066406 283.074219 L 197.824219 281.589844 L 198.972656 280.382813 L 200.710938 279.015625 L 203.46875 275.847656 L 204.175781 274.742188 L 204.519531 273.875 L 204.773438 272.144531 L 204.476563 269.597656 L 204.054688 268.15625 L 203.453125 267.085938 L 201.339844 264.925781 L 199.507813 263.945313 L 196.890625 263.492188 L 191.074219 263.628906 L 188.902344 263.261719 L 187.019531 262.113281 L 185.273438 260.519531 L 183.773438 259.777344 L 182.234375 259.5 L 179.863281 259.726563 L 178.140625 259.636719 L 176.519531 259.042969 L 175.144531 258 L 174.136719 256.597656 L 173.582031 254.964844 L 173.535156 253.238281 L 173.996094 251.574219 L 174.660156 250.082031 L 174.90625 249.023438 L 174.953125 247.953125 L 174.773438 246.785156 L 174.414063 245.777344 L 173.863281 244.839844 L 173.144531 244.023438 L 171.855469 243.015625 L 170.570313 241.625 L 170.074219 240.507813 L 178.0625 241.875 L 182.921875 243.167969 L 186.398438 241.730469 L 187.519531 239.417969 L 188.617188 238.355469 L 189.539063 238.171875 L 193.183594 238.5 L 197.957031 241.804688 L 198.519531 242.640625 L 199.335938 243.449219 L 200.292969 244.082031 L 201.363281 244.515625 L 202.507813 244.726563 L 202.9375 244.722656 L 206.488281 246.65625 L 208.910156 251.429688 L 212.824219 256.707031 L 213.265625 256.828125 L 213.433594 256.585938 L 214.601563 257.097656 L 217.371094 258.992188 L 218.679688 263.09375 L 218.894531 265.933594 L 218.261719 267.402344 L 220.40625 277.574219 L 221.269531 280.457031 L 222.984375 284.039063 L 223.773438 285.027344 L 225.945313 294.183594 L 227.769531 296.832031 L 227.769531 300.460938 L 227.722656 301.1875 L 227.324219 304.351563 L 227.578125 305.722656 L 228.265625 307.140625 L 229.105469 308.140625 L 230.109375 308.898438 L 231.257813 309.417969 L 232.601563 309.6875 L 233.863281 309.648438 L 235.097656 309.332031 L 236.25 308.746094 L 237.648438 307.597656 L 239.378906 306.617188 L 241.339844 306.277344 L 244.589844 306.277344 L 245.742188 307.636719 L 247.265625 310.527344 L 249.289063 315.722656 L 252.390625 319.148438 L 256.121094 320.875 L 257.207031 321.722656 L 254.738281 323.09375 L 253.890625 324.554688 L 253.765625 325.996094 L 254.984375 329.992188 L 256.160156 332.453125 L 263.316406 342.46875 L 263.640625 343.980469 L 262.804688 345.191406 L 263.28125 343.65625 L 262.507813 342.839844 L 260.445313 342 L 258.378906 342.789063 L 257.507813 342.753906 L 256.035156 341.773438 L 253.664063 338.65625 L 252.601563 338.082031 L 245.550781 339.511719 L 244.589844 338.644531 L 243.40625 338.558594 L 241.210938 339.871094 L 241.886719 340.445313 L 246.324219 340.394531 L 249.617188 339.34375 L 251.976563 339.082031 L 254.382813 342.558594 L 260.535156 347.621094 L 263.042969 349.058594 L 263.664063 349.039063 L 266.046875 352.214844 L 268.980469 359.304688 L 269.535156 362.402344 L 269.210938 365.21875 L 264.953125 369.09375 L 261.394531 373.164063 L 260.601563 374.816406 L 262.84375 374.3125 L 264.9375 375.519531 L 266.9375 378.226563 L 270.21875 378.804688 L 270.625 378.746094 L 271.910156 376.796875 L 272.234375 374.960938 L 273.40625 371.914063 L 274.707031 370.632813 L 277.851563 370.085938 L 283.34375 370.234375 L 284.253906 370.867188 L 286.703125 370.742188 L 293.949219 371.515625 L 296.914063 372.84375 L 304.070313 378.085938 L 305.367188 380.105469 L 306.730469 384.164063 L 307.179688 391.25 L 306.777344 393.191406 L 306.890625 393.976563 L 305.789063 396.917969 L 303.519531 407.832031 L 297.144531 414.53125 L 295.578125 412.011719 L 292.742188 410.515625 L 292.480469 410.636719 L 293.898438 413.703125 L 295.890625 416.628906 L 296.3125 416.765625 L 296.164063 417.742188 L 294.574219 419.804688 L 292.191406 421.289063 L 290.003906 421.65625 L 289.660156 421.574219 L 288.214844 419.332031 L 284.976563 421.730469 L 280.71875 424.230469 L 282.339844 425.378906 L 285.105469 424.398438 L 286.097656 423.375 L 286.894531 423.164063 L 287.328125 423.710938 L 287.457031 425.878906 L 287.070313 425.886719 L 285.726563 426.234375 L 284.417969 426.960938 L 283.421875 427.898438 L 282.617188 429.160156 L 282.175781 430.492188 L 282.007813 432.558594 L 279.644531 432.160156 L 274.75 433.78125 L 272.609375 436.117188 L 274.253906 436.015625 L 275.152344 434.667969 L 276.683594 434.363281 L 278.285156 434.328125 L 281.054688 434.949219 L 281.808594 435.574219 L 281.820313 435.640625 L 281.691406 436.328125 L 279.554688 436.347656 L 277.390625 437.65625 L 277.96875 438.546875 L 281.382813 438.964844 L 284.183594 439.667969 L 284.808594 440.148438 L 285.992188 440.710938 L 287.144531 440.976563 L 288.4375 440.988281 L 289.699219 440.71875 L 290.773438 440.230469 L 291.824219 439.453125 L 292.414063 438.769531 L 299.742188 437.757813 L 300.988281 440.148438 L 300.773438 446.324219 L 300.335938 447.820313 L 299.394531 449.050781 L 296.972656 450.242188 L 295.839844 450.375 L 292.621094 451.640625 L 291.179688 452.742188 L 289.847656 454.226563 L 289.460938 455.09375 L 289.214844 456.324219 L 289.464844 457.886719 L 286.253906 458.289063 L 284.1875 457.9375 L 281.042969 460.90625 L 278.484375 461.933594 L 274.789063 462.777344 L 272.597656 463.816406 L 270.539063 466.589844 L 269.761719 466.949219 L 259.269531 463.777344 L 256.070313 463.507813 L 244.628906 465.699219 L 242.703125 466.390625 L 242.113281 466.964844 L 241.902344 467.984375 L 241.359375 468.164063 L 238.210938 466.1875 L 238.632813 465.4375 L 239.46875 464.933594 L 237.714844 463.296875 L 231.496094 463.171875 L 231.378906 463.496094 L 232.574219 464.835938 L 232.214844 465.75 L 231.738281 466.042969 L 226.691406 465.496094 L 219.566406 468.449219 L 217.054688 467.824219 L 211.539063 468.75 L 210.976563 468.335938 L 209.640625 467.824219 L 208.1875 467.660156 L 206.722656 467.871094 L 204.785156 468.667969 L 203.0625 469.085938 L 201.292969 468.964844 L 199.644531 468.320313 L 198.265625 467.203125 L 197.289063 465.726563 L 196.082031 463.109375 L 194.84375 461.800781 L 193.140625 460.902344 L 190.417969 460.460938 L 188.691406 459.894531 L 187.226563 458.820313 L 186.160156 457.351563 L 185.601563 455.621094 L 185.605469 453.804688 L 186.167969 452.074219 L 187.238281 450.605469 L 188.707031 449.539063 L 190.148438 448.804688 L 191.066406 448.085938 L 191.824219 447.199219 L 192.246094 446.453125 L 192.882813 443.988281 L 193.027344 441.976563 L 192.875 439.074219 L 192.449219 437.289063 L 191.628906 435.84375 L 190.445313 434.703125 L 189.03125 433.964844 L 190.867188 432.195313 L 195.792969 425.3125 L 197.929688 424.472656 L 198.285156 423.78125 L 198.070313 423.238281 L 197.8125 423.082031 L 196.09375 424.355469 L 192.90625 427.300781 L 190.570313 429.988281 L 189.222656 431.449219 L 186.796875 432.46875 L 185.796875 431.117188 L 185.222656 429.46875 L 185.164063 427.722656 L 185.625 426.035156 L 186.289063 424.542969 L 186.539063 423.484375 L 186.585938 422.398438 L 186.425781 421.324219 L 186.070313 420.296875 L 185.53125 419.351563 L 184.832031 418.539063 L 183.460938 417.457031 L 182.195313 416.074219 L 181.433594 414.359375 L 181.261719 412.492188 L 181.6875 410.667969 L 182.675781 409.070313 L 184.121094 407.875 L 185.871094 407.199219 L 187.746094 407.117188 L 189.71875 407.351563 L 191.121094 407.183594 L 192.4375 406.6875 L 193.613281 405.890625 L 195.632813 403.847656 L 196.449219 402.539063 L 196.960938 400.625 L 196.765625 397.78125 L 196.949219 395.886719 L 197.734375 394.152344 L 199.59375 391.375 L 200.746094 390.105469 L 202.222656 389.226563 L 203.890625 388.820313 L 206.910156 388.539063 L 210.28125 387.164063 L 211.691406 385.925781 L 212.710938 384.121094 L 213.015625 382.644531 L 212.910156 381.09375 L 212.128906 378.722656 L 211.175781 377.25 L 210 376.234375 L 208.46875 375.53125 L 206.914063 375.300781 L 204.539063 375.605469 L 204.257813 375.597656 L 203.96875 375.839844 L 202.429688 376.78125 L 201.558594 377.605469 L 200.875 378.59375 L 200.175781 380.253906 L 199.28125 381.726563 L 197.992188 382.871094 L 196.425781 383.589844 L 194.71875 383.816406 L 193.019531 383.53125 L 191.476563 382.761719 L 190.230469 381.574219 L 189.222656 380.285156 L 188.40625 379.570313 L 187.46875 379.015625 L 186.460938 378.65625 L 185.292969 378.476563 L 184.222656 378.523438 L 183.164063 378.773438 L 181.671875 379.4375 L 179.917969 379.90625 L 178.105469 379.8125 L 176.410156 379.164063 L 174.996094 378.023438 L 174.003906 376.503906 L 173.527344 374.753906 L 173.214844 371.914063 L 172.386719 370.144531 L 171.367188 369.046875 L 168.71875 367.570313 L 167.359375 366.523438 Z M 224.230469 356.222656 L 222.96875 356.84375 L 222.058594 357.542969 L 221.304688 358.410156 L 220.746094 359.390625 L 220.363281 360.574219 L 220.238281 361.699219 L 220.34375 362.84375 L 220.667969 363.945313 L 221.214844 364.972656 L 221.945313 365.875 L 223.152344 366.964844 L 224.21875 367.582031 L 225.292969 367.941406 L 226.433594 368.082031 L 227.558594 367.996094 L 228.722656 367.660156 L 229.871094 367.039063 L 230.777344 366.261719 L 231.519531 365.285156 L 232.246094 363.769531 L 232.640625 362.507813 L 232.753906 361.460938 L 232.65625 360.300781 L 232.339844 359.210938 L 231.757813 358.113281 L 231.046875 357.253906 L 230.074219 356.476563 L 229.066406 355.964844 L 227.976563 355.660156 L 226.75 355.578125 L 225.539063 355.75 Z M 169.640625 238.101563 L 169.632813 238.003906 L 170.078125 236.160156 L 171.089844 234.558594 L 172.792969 232.652344 L 173.558594 230.960938 L 173.777344 229.472656 L 173.527344 225.496094 L 173.675781 223.769531 L 174.484375 220.402344 L 174.976563 219.082031 L 175.984375 217.140625 L 176.578125 216.222656 L 177.929688 214.507813 L 178.683594 213.714844 L 180.332031 212.28125 L 181.25 211.628906 L 183.253906 210.476563 L 184.28125 210.011719 L 186.347656 209.308594 L 187.410156 209.054688 L 189.574219 208.75 L 190.667969 208.699219 L 192.851563 208.804688 L 193.964844 208.96875 L 196.210938 209.523438 L 197.160156 209.925781 L 197.078125 210.023438 L 197.433594 210.839844 L 197.785156 210.703125 L 197.761719 211.238281 L 196.796875 214.386719 L 195.867188 215.914063 L 191.214844 219.742188 L 185.519531 221.085938 L 182.847656 221.226563 L 177.804688 225.21875 L 178.117188 225.714844 L 179.84375 225.195313 L 184.609375 222.886719 L 186.457031 221.386719 L 187.289063 221.316406 L 189.085938 221.875 L 189.332031 222.921875 L 188.898438 224.691406 L 189.238281 225.953125 L 190.898438 226.824219 L 192.988281 227.191406 L 194.445313 228.726563 L 194.429688 229.304688 L 192.117188 231.570313 L 189.460938 232.730469 L 188.34375 232.882813 L 187.070313 232.078125 L 185.40625 232.042969 L 181.046875 235.800781 L 180.578125 237.003906 L 174.761719 240.109375 L 170.214844 238.117188 Z M 282.238281 437.253906 L 282.269531 437.34375 L 282.84375 438.335938 L 283.484375 439.054688 L 283.058594 438.976563 L 282.164063 437.605469 Z M 233.808594 469.414063 L 233.167969 469.851563 L 232.164063 471.0625 L 231.164063 473.363281 L 230.898438 473.792969 L 229.960938 474.269531 L 228.117188 474.644531 L 222.296875 470.886719 L 220.207031 471.1875 L 221.476563 469.683594 L 227.316406 466.367188 L 232.550781 467.761719 Z M 138.980469 478.128906 L 137.644531 476.773438 L 136.816406 475.058594 L 136.589844 473.167969 L 136.984375 471.304688 L 137.960938 469.667969 L 139.976563 467.289063 L 141.707031 465.898438 L 143.667969 464.871094 L 144.691406 463.949219 L 145.476563 462.792969 L 146.203125 460.824219 L 147.144531 459.175781 L 148.5625 457.917969 L 150.3125 457.183594 L 152.207031 457.050781 L 154.039063 457.535156 L 155.621094 458.585938 L 157.238281 460.089844 L 158.15625 460.691406 L 159.207031 461.117188 L 160.996094 461.453125 L 162.714844 462.070313 L 164.160156 463.1875 L 165.1875 464.699219 L 165.695313 466.453125 L 165.632813 468.28125 L 165.003906 469.996094 L 163.875 471.433594 L 162.355469 472.449219 L 160.597656 472.945313 L 158.609375 473.175781 L 157.265625 473.675781 L 156.179688 474.402344 L 155.210938 475.460938 L 154.574219 476.621094 L 154.210938 477.921875 L 154.132813 479.769531 L 154.5 481.808594 L 154.550781 483.515625 L 154.101563 485.164063 L 153.882813 485.515625 L 153.613281 485.542969 L 152.417969 486.300781 L 151.738281 486.164063 L 148.46875 482.535156 L 142.796875 482.960938 L 142.4375 483.078125 L 142.15625 481.710938 L 141.449219 480.289063 L 140.609375 479.3125 Z M 236.835938 466.113281 L 235.136719 465.644531 L 236.523438 463.683594 L 237.195313 464.164063 L 237.5 465.839844 Z M 236.835938 466.113281 "/>
<path style=" stroke:none;fill-rule:nonzero;fill:rgb(80.392157%,58.431373%,4.705882%);fill-opacity:1;" d="M 154.109375 269.445313 L 153.824219 271.242188 L 152.996094 272.863281 L 151.710938 274.152344 L 150.089844 274.976563 L 148.292969 275.261719 L 146.496094 274.976563 L 144.875 274.152344 L 143.585938 272.863281 L 142.761719 271.242188 L 142.476563 269.445313 L 142.761719 267.648438 L 143.585938 266.027344 L 144.875 264.742188 L 146.496094 263.914063 L 148.292969 263.628906 L 150.089844 263.914063 L 151.710938 264.742188 L 152.996094 266.027344 L 153.824219 267.648438 Z M 154.109375 269.445313 "/>
<path style=" stroke:none;fill-rule:nonzero;fill:rgb(80.392157%,58.431373%,4.705882%);fill-opacity:1;" d="M 161.863281 393.507813 L 161.578125 395.304688 L 160.75 396.925781 L 159.464844 398.210938 L 157.84375 399.039063 L 156.046875 399.324219 L 154.25 399.039063 L 152.628906 398.210938 L 152.289063 397.875 L 153.054688 396.195313 L 154.199219 391.746094 L 153.734375 388.820313 L 153.5 388.359375 L 154.25 387.976563 L 156.046875 387.691406 L 157.84375 387.976563 L 159.464844 388.804688 L 160.75 390.089844 L 161.578125 391.710938 Z M 161.863281 393.507813 "/>
<path style=" stroke:none;fill-rule:nonzero;fill:rgb(80.392157%,58.431373%,4.705882%);fill-opacity:1;" d="M 181.246094 288.832031 L 180.960938 290.628906 L 180.136719 292.25 L 178.847656 293.535156 L 177.226563 294.363281 L 175.429688 294.644531 L 173.632813 294.363281 L 172.011719 293.535156 L 171.859375 293.382813 L 174.074219 288.722656 L 176.464844 286.417969 L 178.757813 285.980469 L 180.191406 286.804688 L 180.808594 286.734375 L 180.960938 287.035156 Z M 171.902344 284.238281 L 172.011719 284.125 L 173.632813 283.300781 L 175.429688 283.015625 L 177.226563 283.300781 L 178.847656 284.125 L 180.066406 285.34375 L 180.035156 285.351563 L 174.65625 284.980469 L 172.566406 284.292969 Z M 171.902344 284.238281 "/>
<path style=" stroke:none;fill-rule:nonzero;fill:rgb(80.392157%,58.431373%,4.705882%);fill-opacity:1;" d="M 123.09375 494.308594 L 122.808594 496.105469 L 122.308594 497.085938 L 120.660156 497.648438 L 119.746094 499.496094 L 119.503906 499.621094 L 118.675781 498.910156 L 117.96875 497.691406 L 118.09375 496.4375 L 117.15625 494.691406 L 115.984375 493.691406 L 112.253906 492.070313 L 111.984375 492.042969 L 112.570313 490.890625 L 113.859375 489.601563 L 115.480469 488.777344 L 117.277344 488.492188 L 119.074219 488.777344 L 120.695313 489.601563 L 121.980469 490.890625 L 122.808594 492.511719 Z M 123.09375 494.308594 "/>
<path style=" stroke:none;fill-rule:nonzero;fill:rgb(80.392157%,58.431373%,4.705882%);fill-opacity:1;" d="M 134.722656 474.921875 L 134.4375 476.71875 L 133.613281 478.339844 L 132.324219 479.628906 L 130.703125 480.453125 L 128.90625 480.738281 L 127.109375 480.453125 L 125.488281 479.628906 L 124.761719 478.898438 L 125.210938 477.886719 L 124.875 476.421875 L 125.640625 474.519531 L 128.386719 473.238281 L 132.105469 472.640625 L 132.679688 471.785156 L 132.925781 470.820313 L 133.613281 471.503906 L 134.4375 473.125 Z M 134.722656 474.921875 "/>
<path style=" stroke:none;fill-rule:nonzero;fill:rgb(80.392157%,58.431373%,4.705882%);fill-opacity:1;" d="M 154.109375 451.660156 L 153.824219 453.457031 L 152.996094 455.078125 L 151.710938 456.367188 L 150.089844 457.191406 L 148.292969 457.476563 L 146.496094 457.191406 L 144.875 456.367188 L 144.453125 455.945313 L 145.761719 455.429688 L 148.429688 452.488281 L 148.105469 447.519531 L 151.058594 446.625 L 151.710938 446.957031 L 152.996094 448.242188 L 153.824219 449.863281 Z M 154.109375 451.660156 "/>
<path style=" stroke:none;fill-rule:nonzero;fill:rgb(80.392157%,58.431373%,4.705882%);fill-opacity:1;" d="M 123.09375 486.554688 L 122.808594 488.351563 L 121.980469 489.972656 L 120.695313 491.257813 L 119.074219 492.085938 L 117.277344 492.371094 L 115.480469 492.085938 L 113.859375 491.257813 L 112.570313 489.972656 L 111.746094 488.351563 L 111.707031 488.089844 L 111.738281 488.078125 L 112.199219 488.253906 L 112.445313 488.9375 L 113.574219 489.15625 L 118.144531 485.910156 L 121.425781 483.085938 L 121.664063 482.816406 L 121.980469 483.136719 L 122.808594 484.757813 Z M 123.09375 486.554688 "/>
<path style=" stroke:none;fill-rule:nonzero;fill:rgb(80.392157%,58.431373%,4.705882%);fill-opacity:1;" d="M 154.109375 447.785156 L 153.824219 449.582031 L 152.996094 451.203125 L 151.710938 452.488281 L 150.089844 453.316406 L 148.292969 453.601563 L 147.53125 453.480469 L 148.429688 452.488281 L 148.105469 447.519531 L 151.105469 446.613281 L 153.898438 446.460938 Z M 154.109375 447.785156 "/>
<path style=" stroke:none;fill-rule:nonzero;fill:rgb(80.392157%,58.431373%,4.705882%);fill-opacity:1;" d="M 175.460938 319.445313 L 175.890625 319.019531 L 177.511719 318.191406 L 179.308594 317.90625 L 181.105469 318.191406 L 182.726563 319.019531 L 184.011719 320.304688 L 184.253906 320.78125 L 179.199219 323.441406 L 177.335938 322.691406 Z M 175.460938 319.445313 "/>
<path style=" stroke:none;fill-rule:nonzero;fill:rgb(80.392157%,58.431373%,4.705882%);fill-opacity:1;" d="M 126.96875 478.800781 L 126.683594 480.597656 L 125.859375 482.21875 L 124.570313 483.503906 L 122.949219 484.332031 L 121.152344 484.617188 L 119.882813 484.414063 L 121.425781 483.085938 L 124.375 479.769531 L 125.210938 477.886719 L 124.875 476.421875 L 125.453125 474.976563 L 125.859375 475.382813 L 126.683594 477.003906 Z M 126.96875 478.800781 "/>
</g>
</svg>
