<?xml version="1.0" encoding="UTF-8"?>
<svg xmlns="http://www.w3.org/2000/svg" xmlns:xlink="http://www.w3.org/1999/xlink" width="378pt" height="504pt" viewBox="0 0 378 504" version="1.1">
<g id="data">
<rect x="0" y="0" width="378" height="504" style="fill:rgb(100%,100%,100%);fill-opacity:1;stroke:none;"/>
<path style=" stroke:none;fill-rule:nonzero;fill:rgb(100%,100%,100%);fill-opacity:1;" d="M 53.308594 504 L 324.691406 504 L 324.691406 0 L 53.308594 0 Z M 53.308594 504 "/>
<path style=" stroke:none;fill-rule:nonzero;fill:rgb(22.745098%,53.333333%,16.078431%);fill-opacity:1;" d="M 194.816406 215.167969 L 192.863281 218.179688 L 192.792969 218.441406 L 191.214844 219.742188 L 185.519531 221.085938 L 182.847656 221.226563 L 179.664063 223.75 L 180.140625 221.761719 L 181.148438 219.820313 L 182.589844 218.011719 L 184.253906 216.597656 L 186.152344 215.519531 L 188.222656 214.8125 L 190.515625 214.503906 L 192.695313 214.632813 Z M 192.703125 227.140625 L 193.390625 228.699219 L 194.074219 229.652344 L 192.117188 231.570313 L 189.460938 232.730469 L 188.34375 232.882813 L 187.070313 232.078125 L 185.40625 232.042969 L 181.046875 235.800781 L 180.578125 237.003906 L 176.429688 239.21875 L 175.429688 238.429688 L 177.71875 235.863281 L 179.195313 232.617188 L 179.621094 229.714844 L 179.34375 225.34375 L 179.84375 225.195313 L 184.609375 222.886719 L 186.457031 221.386719 L 187.289063 221.316406 L 189.085938 221.875 L 189.332031 222.921875 L 188.898438 224.691406 L 189.238281 225.953125 L 190.898438 226.824219 Z M 191.457031 238.34375 L 191.355469 239.261719 L 191.839844 242.300781 L 192.722656 244.4375 L 194.007813 246.359375 L 195.652344 247.988281 L 197.582031 249.261719 L 199.726563 250.125 L 201.871094 250.535156 L 204.183594 250.527344 L 206.445313 250.0625 L 208.019531 251.535156 L 209.835938 252.679688 L 212.824219 256.707031 L 213.265625 256.828125 L 213.433594 256.585938 L 214.601563 257.097656 L 215.101563 257.441406 L 215.390625 258.191406 L 216.605469 260.121094 L 218.078125 261.691406 L 218.078125 269.445313 L 217.761719 272.105469 L 217.984375 274.394531 L 219.394531 278.078125 L 221.1875 280.179688 L 221.269531 280.457031 L 221.953125 281.882813 L 221.953125 288.832031 L 221.289063 292.707031 L 221.953125 296.585938 L 221.953125 300.460938 L 221.441406 304.523438 L 222.003906 307.550781 L 223.34375 310.324219 L 225.078125 312.386719 L 227.128906 313.933594 L 229.46875 314.988281 L 232.109375 315.519531 L 234.675781 315.445313 L 237.042969 314.851563 L 239.34375 313.710938 L 241.339844 312.09375 L 245.214844 312.09375 L 246.921875 314.261719 L 249.09375 315.96875 L 251.164063 318.488281 L 252.96875 319.847656 L 252.808594 329.601563 L 253.027344 332.632813 L 253.5625 335.144531 L 254.703125 337.585938 L 256.558594 339.882813 L 258.933594 341.632813 L 260.136719 342.117188 L 258.378906 342.789063 L 257.507813 342.753906 L 256.035156 341.773438 L 253.664063 338.65625 L 252.601563 338.082031 L 245.550781 339.511719 L 244.589844 338.644531 L 243.40625 338.558594 L 241.210938 339.871094 L 241.886719 340.445313 L 246.324219 340.394531 L 249.617188 339.34375 L 251.976563 339.082031 L 254.382813 342.558594 L 260.535156 347.621094 L 263.042969 349.058594 L 263.664063 349.039063 L 266.046875 352.214844 L 268 356.9375 L 267.855469 357.597656 L 267.988281 360.644531 L 268.914063 363.558594 L 269.324219 364.210938 L 269.210938 365.21875 L 264.953125 369.09375 L 261.394531 373.164063 L 260.601563 374.816406 L 262.84375 374.3125 L 264.9375 375.519531 L 266.9375 378.226563 L 270.21875 378.804688 L 270.625 378.746094 L 271.910156 376.796875 L 272.234375 374.960938 L 273.40625 371.914063 L 274.707031 370.632813 L 277.667969 370.117188 L 281.984375 370.410156 L 283.570313 370.390625 L 284.253906 370.867188 L 286.703125 370.742188 L 293.949219 371.515625 L 295.835938 372.359375 L 295.996094 373.925781 L 297.585938 377.410156 L 300.015625 380.03125 L 303.921875 382.398438 L 305.429688 384.277344 L 306.472656 386.304688 L 307.035156 388.917969 L 307.179688 391.25 L 306.777344 393.191406 L 306.886719 393.949219 L 304.921875 396.339844 L 303.851563 398.773438 L 303.371094 401.261719 L 301.667969 403.136719 L 300.414063 405.339844 L 299.417969 409.511719 L 299.476563 412.082031 L 297.144531 414.53125 L 295.578125 412.011719 L 292.742188 410.515625 L 292.480469 410.636719 L 293.898438 413.703125 L 295.890625 416.628906 L 296.3125 416.765625 L 296.164063 417.742188 L 294.574219 419.804688 L 292.6875 420.980469 L 292.457031 420.867188 L 289.109375 420.042969 L 288.675781 420.046875 L 288.214844 419.332031 L 287.21875 420.066406 L 286.285156 420.078125 L 283.550781 420.792969 L 281.070313 422.148438 L 278.90625 424.15625 L 277.320313 426.648438 L 276.4375 429.332031 L 276.113281 433.328125 L 274.75 433.78125 L 272.609375 436.117188 L 274.253906 436.015625 L 275.152344 434.667969 L 276.019531 434.492188 L 275.929688 435.578125 L 276.246094 437.722656 L 276.957031 439.773438 L 278.109375 441.761719 L 279.722656 443.570313 L 281.753906 445.136719 L 284.074219 446.234375 L 286.449219 446.785156 L 289.015625 446.8125 L 291.40625 446.316406 L 293.75 445.269531 L 295.804688 443.738281 L 297.46875 441.820313 L 298.675781 439.585938 L 299.171875 437.835938 L 299.375 437.808594 L 299.484375 448.171875 L 299.320313 449.089844 L 296.972656 450.242188 L 295.839844 450.375 L 292.621094 451.640625 L 291.179688 452.742188 L 289.847656 454.226563 L 289.460938 455.09375 L 289.214844 456.324219 L 289.464844 457.886719 L 286.253906 458.289063 L 284.1875 457.9375 L 284.054688 458.0625 L 283.898438 458.003906 L 279.816406 458.074219 L 276.230469 459.414063 L 272.324219 460.441406 L 270.25 461.667969 L 268.476563 463.292969 L 256.847656 463.292969 L 254.132813 462.15625 L 251.222656 461.734375 L 248.175781 462.089844 L 245.214844 463.292969 L 241.339844 463.292969 L 237.835938 462.5 L 235.015625 462.652344 L 233.308594 463.207031 L 231.496094 463.171875 L 231.378906 463.496094 L 231.679688 463.839844 L 229.207031 465.519531 L 229.015625 465.75 L 226.691406 465.496094 L 219.621094 468.425781 L 218.078125 467.167969 L 216.375 465.082031 L 213.785156 463.1875 L 211.03125 462.128906 L 208.101563 461.796875 L 205.179688 462.214844 L 202.570313 463.292969 L 200.960938 459.804688 L 198.410156 457.109375 L 195.136719 455.355469 L 191.347656 454.71875 L 193.398438 453.660156 L 195.109375 452.304688 L 196.609375 450.550781 L 197.683594 448.648438 L 198.648438 444.933594 L 198.855469 442.03125 L 198.65625 438.238281 L 197.863281 435.011719 L 196.191406 432.144531 L 193.882813 429.9375 L 192.863281 429.40625 L 195.792969 425.3125 L 197.929688 424.472656 L 198.285156 423.78125 L 198.070313 423.238281 L 197.8125 423.082031 L 196.09375 424.355469 L 192.90625 427.300781 L 191.636719 428.765625 L 190.9375 428.398438 L 191.824219 426.40625 L 192.324219 424.277344 L 192.417969 422.097656 L 192.101563 419.9375 L 191.332031 417.757813 L 190.222656 415.875 L 188.785156 414.234375 L 187.0625 412.890625 L 189.722656 413.207031 L 192.507813 412.875 L 195.132813 411.886719 L 197.351563 410.382813 L 200.222656 407.476563 L 201.84375 404.882813 L 202.832031 401.195313 L 202.570313 397.382813 L 204.425781 394.609375 L 208.308594 394.25 L 213.273438 392.246094 L 216.273438 389.644531 L 218.222656 386.1875 L 218.871094 383.042969 L 218.664063 379.972656 L 217.417969 376.1875 L 215.601563 373.390625 L 213.175781 371.296875 L 210.269531 369.941406 L 207.105469 369.429688 L 203.796875 369.835938 L 205.742188 368.84375 L 207.5625 367.417969 L 209.0625 365.660156 L 210.1875 363.640625 L 210.863281 361.5625 L 211.140625 359.265625 L 210.957031 356.960938 L 210.324219 354.738281 L 212.9375 353.671875 L 215.21875 352.003906 L 217.097656 349.726563 L 218.304688 347.171875 L 218.8125 344.917969 L 218.847656 342.476563 L 217.179688 334.753906 L 216.023438 332.628906 L 214.449219 330.789063 L 212.527344 329.316406 L 210.34375 328.273438 L 212.882813 327.992188 L 215.414063 327.109375 L 217.578125 325.75 L 219.390625 323.949219 L 220.652344 322.027344 L 221.542969 319.769531 L 222.269531 313.4375 L 221.804688 310.027344 L 220.4375 307.011719 L 216.546875 302.347656 L 214.199219 300.460938 L 212.90625 297.96875 L 210.957031 295.773438 L 208.40625 294.082031 L 205.5 293.113281 L 202.445313 292.933594 L 199.445313 293.5625 L 200.90625 291.640625 L 201.890625 289.578125 L 202.457031 287.363281 L 202.570313 284.953125 L 204.738281 283.246094 L 208.136719 279.339844 L 209.375 277.40625 L 210.175781 275.386719 L 210.636719 272.234375 L 210.195313 268.4375 L 209.453125 265.886719 L 208.148438 263.570313 L 204.875 260.21875 L 201.421875 258.375 L 197.320313 257.667969 L 190.9375 257.816406 L 188.585938 255.667969 L 185.613281 254.199219 L 182.480469 253.632813 L 179.308594 253.9375 L 180.195313 251.945313 L 180.695313 249.816406 L 180.789063 247.636719 L 180.472656 245.476563 L 179.757813 243.414063 L 179.019531 242.128906 L 182.921875 243.167969 L 186.398438 241.730469 L 187.519531 239.417969 L 188.617188 238.355469 L 189.539063 238.171875 Z M 221.953125 350.863281 L 219.882813 351.878906 L 218.054688 353.285156 L 216.539063 355.027344 L 215.398438 357.03125 L 214.675781 359.222656 L 214.398438 361.515625 L 214.601563 363.941406 L 215.257813 366.152344 L 216.269531 368.085938 L 217.710938 369.886719 L 219.710938 371.691406 L 221.816406 372.914063 L 224.003906 373.640625 L 226.292969 373.925781 L 228.59375 373.75 L 230.9375 373.074219 L 233.191406 371.855469 L 235.035156 370.269531 L 236.511719 368.332031 L 237.671875 365.902344 L 238.359375 363.699219 L 238.597656 361.402344 L 238.378906 359.105469 L 237.757813 357.015625 L 236.6875 354.972656 L 235.144531 353.085938 L 233.242188 351.566406 L 231.1875 350.519531 L 228.964844 349.898438 L 226.535156 349.734375 L 224.25 350.046875 Z M 262.507813 342.839844 L 263.421875 342.957031 L 263.640625 343.980469 L 262.804688 345.191406 L 263.28125 343.65625 Z M 228.289063 466.625 L 227.160156 467.988281 L 225.832031 471.046875 L 222.542969 471.046875 L 222.296875 470.886719 L 221.878906 470.945313 L 221.179688 470.03125 L 221.476563 469.683594 L 227.316406 466.367188 Z M 170.398438 361.292969 L 173.804688 359.882813 L 176.515625 357.578125 L 176.871094 357 L 179.910156 359.441406 L 180.433594 358.429688 L 178.332031 354.632813 L 178.449219 354.445313 L 178.855469 352.742188 L 180.867188 352.449219 L 181.371094 352.644531 L 181.519531 352.738281 L 181.914063 353.875 L 182.898438 354.332031 L 184.078125 356.789063 L 185.613281 357.902344 L 186.148438 357.847656 L 186.015625 358.300781 L 186.148438 362.011719 L 187.441406 365.492188 L 189.671875 368.300781 L 192.191406 370.070313 L 194.960938 371.089844 L 198.023438 371.371094 L 200.933594 370.882813 L 198.875 372.140625 L 197.125 373.796875 L 195.75 375.777344 L 194.816406 378 L 193.472656 376.277344 L 191.726563 374.761719 L 189.832031 373.675781 L 187.769531 372.960938 L 185.609375 372.644531 L 183.429688 372.738281 L 181.300781 373.234375 L 179.308594 374.125 L 178.894531 370.316406 L 177.265625 366.855469 L 175.007813 364.417969 L 171.554688 362.492188 Z M 183.414063 353.78125 L 184.941406 354.363281 L 187.0625 354.738281 L 186.589844 356.339844 L 186.378906 356.386719 L 183.8125 354.640625 Z M 142.398438 473.425781 L 144.414063 471.046875 L 147.015625 469.679688 L 149.105469 467.800781 L 150.683594 465.476563 L 151.660156 462.839844 L 153.640625 464.6875 L 155.445313 465.863281 L 157.558594 466.726563 L 159.921875 467.167969 L 157.121094 467.511719 L 154.597656 468.460938 L 152.359375 469.964844 L 150.453125 472.046875 L 149.152344 474.410156 L 148.429688 477.007813 L 148.292969 480.160156 L 148.773438 482.835938 L 148.722656 482.816406 L 148.46875 482.535156 L 148.265625 482.550781 L 147.65625 479.671875 L 146.328125 477.046875 L 144.574219 475.007813 Z M 142.398438 473.425781 "/>
<path style=" stroke:none;fill-rule:nonzero;fill:rgb(80.392157%,58.431373%,4.705882%);fill-opacity:1;" d="M 154.109375 269.445313 L 153.824219 271.242188 L 152.996094 272.863281 L 151.710938 274.152344 L 150.089844 274.976563 L 148.292969 275.261719 L 146.496094 274.976563 L 144.875 274.152344 L 143.585938 272.863281 L 142.761719 271.242188 L 142.476563 269.445313 L 142.761719 267.648438 L 143.585938 266.027344 L 144.875 264.742188 L 146.496094 263.914063 L 148.292969 263.628906 L 150.089844 263.914063 L 151.710938 264.742188 L 152.996094 266.027344 L 153.824219 267.648438 Z M 154.109375 269.445313 "/>
<path style=" stroke:none;fill-rule:nonzero;fill:rgb(80.392157%,58.431373%,4.705882%);fill-opacity:1;" d="M 161.863281 393.507813 L 161.578125 395.304688 L 160.75 396.925781 L 159.464844 398.210938 L 157.84375 399.039063 L 156.046875 399.324219 L 154.25 399.039063 L 152.289063 397.875 L 153.054688 396.195313 L 154.199219 391.746094 L 153.5 388.359375 L 154.25 387.976563 L 156.046875 387.691406 L 157.84375 387.976563 L 159.464844 388.804688 L 160.75 390.089844 L 161.578125 391.710938 Z M 161.863281 393.507813 "/>
<path style=" stroke:none;fill-rule:nonzero;fill:rgb(80.392157%,58.431373%,4.705882%);fill-opacity:1;" d="M 181.246094 288.832031 L 180.960938 290.628906 L 180.136719 292.25 L 178.847656 293.535156 L 177.226563 294.363281 L 175.429688 294.644531 L 173.632813 294.363281 L 171.859375 293.382813 L 174.074219 288.722656 L 176.464844 286.417969 L 178.757813 285.980469 L 180.191406 286.804688 L 180.808594 286.734375 Z M 171.902344 284.238281 L 173.632813 283.300781 L 175.429688 283.015625 L 177.226563 283.300781 L 178.847656 284.125 L 180.066406 285.34375 L 174.65625 284.980469 Z M 171.902344 284.238281 "/>
<path style=" stroke:none;fill-rule:nonzero;fill:rgb(80.392157%,58.431373%,4.705882%);fill-opacity:1;" d="M 123.09375 494.308594 L 122.808594 496.105469 L 122.308594 497.085938 L 120.660156 497.648438 L 119.503906 499.621094 L 118.675781 498.910156 L 117.96875 497.691406 L 118.09375 496.4375 L 117.15625 494.691406 L 115.984375 493.691406 L 111.984375 492.042969 L 112.570313 490.890625 L 113.859375 489.601563 L 115.480469 488.777344 L 117.277344 488.492188 L 119.074219 488.777344 L 120.695313 489.601563 L 121.980469 490.890625 L 122.808594 492.511719 Z M 123.09375 494.308594 "/>
<path style=" stroke:none;fill-rule:nonzero;fill:rgb(80.392157%,58.431373%,4.705882%);fill-opacity:1;" d="M 134.722656 474.921875 L 134.4375 476.71875 L 133.613281 478.339844 L 132.324219 479.628906 L 130.703125 480.453125 L 128.90625 480.738281 L 127.109375 480.453125 L 125.488281 479.628906 L 124.761719 478.898438 L 125.210938 477.886719 L 124.875 476.421875 L 125.640625 474.519531 L 128.386719 473.238281 L 132.105469 472.640625 L 132.925781 470.820313 L 133.613281 471.503906 L 134.4375 473.125 Z M 134.722656 474.921875 "/>
<path style=" stroke:none;fill-rule:nonzero;fill:rgb(80.392157%,58.431373%,4.705882%);fill-opacity:1;" d="M 154.109375 451.660156 L 153.824219 453.457031 L 152.996094 455.078125 L 151.710938 456.367188 L 150.089844 457.191406 L 148.292969 457.476563 L 146.496094 457.191406 L 144.453125 455.945313 L 145.761719 455.429688 L 148.429688 452.488281 L 148.105469 447.519531 L 151.058594 446.625 L 151.710938 446.957031 L 152.996094 448.242188 L 153.824219 449.863281 Z M 154.109375 451.660156 "/>
<path style=" stroke:none;fill-rule:nonzero;fill:rgb(80.392157%,58.431373%,4.705882%);fill-opacity:1;" d="M 165.738281 358.617188 L 165.453125 360.414063 L 164.628906 362.035156 L 163.339844 363.320313 L 161.71875 364.144531 L 159.921875 364.429688 L 158.125 364.144531 L 156.503906 363.320313 L 155.21875 362.035156 L 154.285156 359.738281 L 154.941406 359.808594 L 160.492188 357.457031 L 163.644531 357.28125 L 165.5625 357.507813 Z M 154.128906 358.757813 L 154.644531 356.320313 L 155.546875 356.503906 Z M 154.128906 358.757813 "/>
<path style=" stroke:none;fill-rule:nonzero;fill:rgb(80.392157%,58.431373%,4.705882%);fill-opacity:1;" d="M 123.09375 486.554688 L 122.808594 488.351563 L 121.980469 489.972656 L 120.695313 491.257813 L 119.074219 492.085938 L 117.277344 492.371094 L 115.480469 492.085938 L 113.859375 491.257813 L 112.570313 489.972656 L 111.707031 488.089844 L 112.199219 488.253906 L 112.445313 488.9375 L 113.574219 489.15625 L 118.144531 485.910156 L 121.664063 482.816406 L 122.808594 484.757813 Z M 123.09375 486.554688 "/>
<path style=" stroke:none;fill-rule:nonzero;fill:rgb(80.392157%,58.431373%,4.705882%);fill-opacity:1;" d="M 154.109375 447.785156 L 153.824219 449.582031 L 152.996094 451.203125 L 151.710938 452.488281 L 150.089844 453.316406 L 147.53125 453.480469 L 148.429688 452.488281 L 148.105469 447.519531 L 151.105469 446.613281 L 153.898438 446.460938 Z M 154.109375 447.785156 "/>
<path style=" stroke:none;fill-rule:nonzero;fill:rgb(80.392157%,58.431373%,4.705882%);fill-opacity:1;" d="M 175.460938 319.445313 L 177.511719 318.191406 L 179.308594 317.90625 L 181.105469 318.191406 L 182.726563 319.019531 L 184.253906 320.78125 L 179.199219 323.441406 L 177.335938 322.691406 Z M 175.460938 319.445313 "/>
<path style=" stroke:none;fill-rule:nonzero;fill:rgb(80.392157%,58.431373%,4.705882%);fill-opacity:1;" d="M 126.96875 478.800781 L 126.683594 480.597656 L 125.859375 482.21875 L 124.570313 483.503906 L 122.949219 484.332031 L 121.152344 484.617188 L 119.882813 484.414063 L 124.375 479.769531 L 125.210938 477.886719 L 124.875 476.421875 L 125.453125 474.976563 L 126.683594 477.003906 Z M 126.96875 478.800781 "/>
<path style=" stroke:none;fill-rule:nonzero;fill:rgb(80.392157%,58.431373%,4.705882%);fill-opacity:1;" d="M 152.113281 486.238281 L 154.25 484.898438 L 156.046875 484.617188 L 157.84375 484.898438 L 159.464844 485.726563 L 160.75 487.011719 L 161.578125 488.632813 L 161.757813 489.777344 L 160.929688 490.242188 L 158.269531 489.722656 L 157.554688 489.058594 L 156.527344 486.851563 L 154.683594 485.4375 L 153.613281 485.542969 Z M 152.113281 486.238281 "/>
</g>
</svg>
