<?xml version="1.0" encoding="UTF-8"?>
<svg xmlns="http://www.w3.org/2000/svg" xmlns:xlink="http://www.w3.org/1999/xlink" width="378pt" height="504pt" viewBox="0 0 378 504" version="1.1">
<g id="data">
<rect x="0" y="0" width="378" height="504" style="fill:rgb(100%,100%,100%);fill-opacity:1;stroke:none;"/>
<path style=" stroke:none;fill-rule:nonzero;fill:rgb(100%,100%,100%);fill-opacity:1;" d="M 53.308594 504 L 324.691406 504 L 324.691406 0 L 53.308594 0 Z M 53.308594 504 "/>
<path style=" stroke:none;fill-rule:nonzero;fill:rgb(22.745098%,53.333333%,16.078431%);fill-opacity:1;" d="M 167.050781 238.023438 L 167.675781 234.554688 L 170.359375 234.394531 L 173.046875 233.574219 L 175.363281 232.210938 L 177.300781 230.351563 L 179.308594 226.800781 L 180.78125 225.226563 L 181.230469 224.523438 L 184.609375 222.886719 L 186.457031 221.386719 L 187.289063 221.316406 L 189.085938 221.875 L 189.332031 222.921875 L 188.898438 224.691406 L 189.238281 225.953125 L 190.898438 226.824219 L 192.988281 227.191406 L 194.445313 228.726563 L 194.429688 229.304688 L 192.117188 231.570313 L 189.460938 232.730469 L 188.34375 232.882813 L 187.070313 232.078125 L 185.40625 232.042969 L 181.046875 235.800781 L 180.578125 237.003906 L 174.761719 240.109375 L 170.214844 238.117188 Z M 182.777344 221.28125 L 183.183594 219.046875 L 186.738281 219.328125 L 190.09375 218.570313 L 192.671875 217.167969 L 196.476563 213.941406 L 195.496094 216.21875 L 191.214844 219.742188 L 185.519531 221.085938 L 182.847656 221.226563 Z M 198.699219 242.320313 L 200.394531 245.742188 L 202.402344 247.890625 L 204.316406 249.175781 L 206.445313 250.0625 L 208.019531 251.535156 L 209.835938 252.691406 L 209.851563 252.699219 L 212.824219 256.707031 L 213.265625 256.828125 L 213.433594 256.585938 L 214.601563 257.097656 L 215.101563 257.441406 L 215.390625 258.191406 L 216.605469 260.121094 L 218.078125 261.691406 L 218.078125 269.445313 L 217.765625 272.488281 L 218.601563 276.472656 L 219.953125 278.933594 L 221.222656 280.292969 L 221.269531 280.457031 L 222.226563 282.453125 L 222.472656 283.683594 L 223.503906 285.996094 L 224.207031 286.851563 L 225.945313 294.183594 L 229.304688 299.0625 L 233.683594 301.105469 L 234.136719 304.007813 L 235.820313 307.320313 L 238.253906 309.78125 L 241.304688 311.414063 L 244.1875 312.046875 L 247.871094 312.082031 L 249.289063 315.722656 L 251.261719 317.902344 L 251.496094 318.273438 L 252.96875 319.847656 L 252.820313 330.105469 L 253.152344 333.523438 L 253.832031 335.867188 L 255.597656 338.84375 L 258.164063 341.164063 L 260.171875 342.105469 L 258.378906 342.789063 L 257.507813 342.753906 L 256.035156 341.773438 L 253.664063 338.65625 L 252.601563 338.082031 L 245.550781 339.511719 L 244.589844 338.644531 L 243.40625 338.558594 L 241.210938 339.871094 L 241.886719 340.445313 L 246.324219 340.394531 L 249.617188 339.34375 L 251.976563 339.082031 L 254.382813 342.558594 L 260.535156 347.621094 L 263.042969 349.058594 L 263.664063 349.039063 L 266.046875 352.214844 L 268.402344 357.910156 L 268.660156 360.664063 L 269.242188 362.765625 L 269.445313 363.171875 L 269.210938 365.21875 L 264.953125 369.09375 L 261.394531 373.164063 L 260.601563 374.816406 L 262.84375 374.3125 L 264.9375 375.519531 L 266.9375 378.226563 L 270.21875 378.804688 L 270.625 378.746094 L 271.910156 376.796875 L 272.234375 374.960938 L 273.40625 371.914063 L 274.707031 370.632813 L 277.851563 370.085938 L 278.921875 370.113281 L 281.859375 370.40625 L 283.566406 370.386719 L 284.253906 370.867188 L 286.703125 370.742188 L 293.949219 371.515625 L 295.859375 372.371094 L 296.066406 374.175781 L 297.730469 377.621094 L 300.21875 380.1875 L 303.371094 381.875 L 305.496094 384.382813 L 306.472656 386.304688 L 306.976563 388.046875 L 307.179688 391.25 L 306.777344 393.191406 L 306.886719 393.953125 L 304.855469 396.449219 L 303.851563 398.773438 L 303.371094 401.261719 L 301.59375 403.242188 L 300.316406 405.574219 L 299.40625 409.636719 L 299.46875 412.085938 L 297.144531 414.53125 L 295.578125 412.011719 L 292.742188 410.515625 L 292.480469 410.636719 L 293.898438 413.703125 L 295.890625 416.628906 L 296.3125 416.765625 L 296.164063 417.742188 L 294.574219 419.804688 L 292.191406 421.289063 L 290.003906 421.65625 L 289.660156 421.574219 L 288.214844 419.332031 L 284.976563 421.730469 L 280.71875 424.230469 L 282.339844 425.378906 L 285.105469 424.398438 L 286.097656 423.375 L 286.894531 423.164063 L 287.328125 423.710938 L 287.632813 428.84375 L 285.6875 430.875 L 283.441406 432.558594 L 282.84375 432.699219 L 279.644531 432.160156 L 274.75 433.78125 L 272.609375 436.117188 L 274.253906 436.015625 L 275.152344 434.667969 L 276.683594 434.363281 L 278.285156 434.328125 L 281.054688 434.949219 L 281.828125 435.589844 L 281.691406 436.328125 L 279.554688 436.347656 L 277.390625 437.65625 L 277.96875 438.546875 L 281.382813 438.964844 L 286.863281 440.339844 L 289.394531 439.9375 L 291.074219 438.957031 L 299.492188 437.792969 L 299.492188 447.785156 L 297.320313 449.492188 L 296.707031 450.273438 L 295.839844 450.375 L 292.621094 451.640625 L 291.179688 452.742188 L 289.847656 454.226563 L 289.460938 455.09375 L 289.214844 456.324219 L 289.246094 456.523438 L 289 456.839844 L 288.480469 458.011719 L 286.253906 458.289063 L 284.1875 457.9375 L 284.074219 458.042969 L 284.023438 458.027344 L 279.816406 458.074219 L 276.230469 459.414063 L 272.324219 460.441406 L 270.25 461.667969 L 268.476563 463.292969 L 256.847656 463.292969 L 254.011719 462.121094 L 250.964844 461.734375 L 248.050781 462.121094 L 245.214844 463.292969 L 242.960938 463.132813 L 238.40625 463.5 L 238.054688 463.617188 L 237.714844 463.296875 L 231.496094 463.171875 L 231.378906 463.496094 L 232.574219 464.835938 L 232.214844 465.75 L 231.738281 466.042969 L 226.691406 465.496094 L 219.566406 468.449219 L 217.054688 467.824219 L 210.222656 468.96875 L 208.164063 468.875 L 207.273438 468.058594 L 206.238281 469.769531 L 209.429688 471.089844 L 209.714844 470.9375 L 210.1875 472.128906 L 209.566406 473.890625 L 208.867188 474.035156 L 206.71875 472.726563 L 202.570313 471.960938 L 200.394531 472.363281 L 197.625 472.007813 L 196.175781 472.65625 L 195.679688 473.863281 L 195.753906 474.351563 L 195.222656 474.675781 L 194.851563 473.972656 L 194.230469 473.511719 L 193.929688 472.792969 L 192.644531 470.882813 L 191.101563 469.339844 L 189.191406 468.054688 L 185.550781 466.457031 L 183.449219 465.863281 L 180.757813 465.691406 L 178.226563 466.105469 L 176.070313 466.945313 L 174.027344 468.273438 L 170.0625 472.65625 L 168.992188 473.234375 L 168.214844 474.070313 L 167.203125 476.179688 L 164.414063 484.347656 L 162.875 485.539063 L 161.125 487.746094 L 160.082031 490.074219 L 158.269531 489.722656 L 157.554688 489.058594 L 156.527344 486.851563 L 154.683594 485.4375 L 153.613281 485.542969 L 152.417969 486.300781 L 151.917969 486.199219 L 151.355469 485.738281 L 148.46875 482.535156 L 144.941406 482.800781 L 144.414063 482.675781 L 140.828125 481.335938 L 138.664063 481.117188 L 136.496094 481.308594 L 134.402344 481.902344 L 130.769531 483.5 L 127.539063 486 L 126.039063 488.078125 L 125.105469 490.257813 L 124.039063 490.597656 L 123.648438 492.191406 L 122.457031 493.707031 L 121.5625 495.941406 L 121.289063 497.433594 L 120.660156 497.648438 L 120.394531 498.183594 L 118.253906 498.183594 L 117.96875 497.691406 L 118.09375 496.4375 L 117.15625 494.691406 L 115.984375 493.691406 L 112.253906 492.070313 L 111.410156 491.984375 L 110.375 492.488281 L 110.242188 494.183594 L 110.179688 494.257813 L 108.816406 494.003906 L 105.644531 494.308594 L 107.816406 492.601563 L 109.523438 490.429688 L 112.964844 489.609375 L 116.097656 487.707031 L 117.3125 486.5 L 118.144531 485.910156 L 121.425781 483.085938 L 124.375 479.769531 L 125.210938 477.886719 L 125.152344 477.632813 L 126.613281 476.914063 L 130.898438 473.390625 L 131.414063 472.75 L 132.105469 472.640625 L 132.679688 471.785156 L 132.859375 471.074219 L 136.621094 472.433594 L 140.828125 472.386719 L 142.917969 471.773438 L 145.933594 470.351563 L 148.945313 467.980469 L 150.320313 466.128906 L 151.261719 464.160156 L 151.816406 462.054688 L 151.96875 459.75 L 151.660156 457.464844 L 150.90625 455.285156 L 149.738281 453.292969 L 148.382813 451.761719 L 148.292969 450.386719 L 148.292969 447.785156 L 151.53125 448.433594 L 153.820313 448.332031 L 156.046875 447.785156 L 159.960938 448.457031 L 163.871094 447.773438 L 166.574219 446.277344 L 167.527344 446.515625 L 169.484375 447.285156 L 170.039063 448.109375 L 170.757813 448.421875 L 173.15625 448.464844 L 180.570313 447.503906 L 181.109375 445.632813 L 181.210938 443.15625 L 182.519531 440.25 L 190.867188 432.195313 L 195.792969 425.3125 L 197.929688 424.472656 L 198.285156 423.78125 L 198.070313 423.238281 L 197.8125 423.082031 L 196.09375 424.355469 L 192.90625 427.300781 L 190.570313 429.988281 L 189.222656 431.449219 L 189.023438 431.535156 L 189.246094 431.253906 L 190.414063 428.695313 L 190.875 426.570313 L 191.25 421.605469 L 190.921875 419.078125 L 190.105469 416.792969 L 188.832031 414.730469 L 187.0625 412.890625 L 189.234375 412.8125 L 191.476563 412.285156 L 193.574219 411.332031 L 195.4375 409.980469 L 197.230469 407.976563 L 198.691406 405.136719 L 200.378906 403.035156 L 201.792969 399.738281 L 202.15625 396.9375 L 201.863281 394.257813 L 200.960938 391.71875 L 199.414063 389.355469 L 196.816406 387.074219 L 193.78125 385.691406 L 190.351563 385.226563 L 187.0625 385.753906 L 186.773438 382.445313 L 185.5 379.242188 L 183.34375 376.550781 L 180.492188 374.613281 L 176.964844 373.09375 L 174.070313 372.578125 L 170.761719 372.890625 L 167.675781 374.125 L 165.289063 373.644531 L 162.855469 373.675781 L 158.832031 374.914063 L 155.511719 377.507813 L 154.015625 375.640625 L 152.804688 374.648438 L 153.175781 374.082031 L 152.804688 373.207031 L 152.554688 373.199219 L 153.304688 371.410156 L 153.726563 368.371094 L 153.339844 365.328125 L 152.167969 362.492188 L 154.289063 362.117188 L 156.421875 361.304688 L 158.351563 360.089844 L 159.921875 358.617188 L 163.382813 359.933594 L 167.082031 360.097656 L 170.175781 359.292969 L 175.195313 356.761719 L 175.800781 356.140625 L 179.910156 359.441406 L 180.433594 358.429688 L 177.859375 353.785156 L 178.335938 352.820313 L 180.867188 352.449219 L 181.503906 352.695313 L 181.914063 353.875 L 182.898438 354.332031 L 184.078125 356.789063 L 185.613281 357.902344 L 188.359375 357.621094 L 190.335938 355.148438 L 189.90625 355.050781 L 188.667969 355.527344 L 188.3125 355.957031 L 186.378906 356.386719 L 183.8125 354.640625 L 181.164063 348.90625 L 182.460938 346.730469 L 183.445313 343.039063 L 183.269531 340.441406 L 183.371094 340.257813 L 183.636719 340.097656 L 184.722656 342.175781 L 187.027344 344.5625 L 190.640625 346.460938 L 194.816406 346.984375 L 196.078125 349.933594 L 198.097656 352.425781 L 200.71875 354.269531 L 203.75 355.328125 L 206.050781 355.558594 L 208.351563 355.324219 L 210.679688 354.597656 L 212.71875 353.511719 L 214.5 352.042969 L 215.957031 350.253906 L 217.03125 348.210938 L 217.679688 346 L 217.882813 343.828125 L 217.675781 341.660156 L 216.144531 337.730469 L 214.199219 335.355469 L 213.0625 332.777344 L 211.429688 330.644531 L 209.132813 328.804688 L 206.445313 327.601563 L 209.449219 326.964844 L 212.078125 325.636719 L 214.371094 323.597656 L 215.996094 321.144531 L 216.976563 318.234375 L 217.160156 315.167969 L 216.582031 312.285156 L 215.222656 309.53125 L 211.925781 305.609375 L 210.136719 304.359375 L 208.144531 303.464844 L 205.761719 302.925781 L 203.324219 302.894531 L 200.933594 303.371094 L 198.691406 304.339844 L 196.546875 302.339844 L 193.96875 300.9375 L 190.488281 300.167969 L 187.0625 300.460938 L 186.425781 299.5625 L 189.453125 299.320313 L 192.425781 298.246094 L 197.964844 294.894531 L 200.597656 292.117188 L 202.152344 288.757813 L 202.570313 284.953125 L 204.738281 283.246094 L 208.058594 279.441406 L 210.0625 275.753906 L 210.558594 273.507813 L 210.601563 271.210938 L 210.042969 267.691406 L 209.246094 265.421875 L 207.839844 263.164063 L 205.648438 260.875 L 203.9375 259.566406 L 201.898438 258.542969 L 197.570313 257.679688 L 190.9375 257.816406 L 188.585938 255.667969 L 185.613281 254.199219 L 182.480469 253.632813 L 179.308594 253.9375 L 179.621094 251.277344 L 179.347656 248.742188 L 178.472656 246.210938 L 177.042969 243.945313 L 174.417969 241.347656 L 174.222656 241.21875 L 178.0625 241.875 L 182.921875 243.167969 L 186.398438 241.730469 L 187.519531 239.417969 L 188.617188 238.355469 L 189.539063 238.171875 L 193.183594 238.5 Z M 262.375 342.785156 L 263.417969 342.9375 L 263.640625 343.980469 L 262.804688 345.191406 L 263.28125 343.65625 L 262.507813 342.839844 Z M 236.945313 463.988281 L 236.109375 464.269531 L 236.523438 463.683594 Z M 231.777344 467.554688 L 231.097656 468.3125 L 229.707031 471.046875 L 222.542969 471.046875 L 222.296875 470.886719 L 221.53125 470.996094 L 220.472656 470.871094 L 221.476563 469.683594 L 227.316406 466.367188 Z M 171.167969 439.863281 L 171.171875 439.851563 L 171.554688 436.152344 L 175.429688 436.152344 L 177.546875 436.578125 L 177.398438 436.808594 L 177.039063 438.671875 L 176.445313 439.273438 L 174.058594 439.917969 Z M 186.503906 325.15625 L 188.179688 324.871094 L 185.804688 326.714844 Z M 174.4375 288.371094 L 175.429688 288.832031 L 176.183594 292.148438 L 177.863281 295.105469 L 174.601563 295.398438 L 171.554688 296.585938 L 172.511719 294.378906 L 172.980469 292.144531 L 172.992188 290.996094 L 174.074219 288.722656 Z M 156.046875 393.507813 L 153.746094 393.507813 L 154.199219 391.746094 L 154.199219 391.742188 L 154.441406 391.535156 Z M 141.335938 255.871094 L 140.539063 253.9375 L 144.152344 254.738281 L 143.765625 258.488281 L 144.132813 260.472656 L 142.601563 256.71875 Z M 144.359375 261.671875 L 144.664063 263.320313 L 145.660156 266.054688 L 147.304688 268.457031 L 144.097656 266.441406 L 140.613281 265.585938 L 140.917969 265.085938 L 143.644531 263.800781 L 144.390625 261.886719 Z M 125.03125 416.769531 L 127.855469 416.179688 L 130.339844 414.980469 L 128.695313 417.386719 L 127.726563 420.003906 Z M 286.679688 439.636719 L 283.058594 438.976563 L 282.164063 437.605469 L 282.484375 436.070313 L 286.839844 437.054688 L 287.960938 438.832031 Z M 286.679688 439.636719 "/>
</g>
</svg>
