<?xml version="1.0" encoding="UTF-8"?>
<svg xmlns="http://www.w3.org/2000/svg" xmlns:xlink="http://www.w3.org/1999/xlink" width="378pt" height="504pt" viewBox="0 0 378 504" version="1.1">
<g id="data">
<rect x="0" y="0" width="378" height="504" style="fill:rgb(100%,100%,100%);fill-opacity:1;stroke:none;"/>
<path style=" stroke:none;fill-rule:nonzero;fill:rgb(100%,100%,100%);fill-opacity:1;" d="M 53.308594 504 L 324.691406 504 L 324.691406 0 L 53.308594 0 Z M 53.308594 504 "/>
<path style=" stroke:none;fill-rule:nonzero;fill:rgb(22.745098%,53.333333%,16.078431%);fill-opacity:1;" d="M 295.417969 418.707031 L 291.738281 418.707031 L 289.601563 418.300781 L 287.761719 417.136719 L 286.597656 416.042969 L 285.621094 415.429688 L 284.546875 415.019531 L 282.976563 414.742188 L 281.375 414.210938 L 279.996094 413.246094 L 278.46875 411.808594 L 277.355469 411.179688 L 275.453125 410.726563 L 272.816406 410.933594 L 270.597656 410.683594 L 268.640625 409.613281 L 267.90625 409.003906 L 266.550781 407.378906 L 265.867188 405.375 L 265.945313 403.257813 L 266.679688 399.988281 L 267.617188 397.886719 L 268.722656 396.335938 L 269.261719 395.039063 L 269.449219 393.972656 L 269.421875 392.9375 L 268.777344 390.878906 L 267.59375 389.308594 L 265.988281 388.234375 L 263.15625 387.511719 L 261.488281 386.789063 L 260.121094 385.585938 L 259.195313 384.019531 L 258.796875 382.246094 L 258.964844 380.433594 L 259.6875 378.765625 L 261.25 376.296875 L 261.644531 374.582031 L 262.84375 374.3125 L 264.9375 375.519531 L 266.9375 378.226563 L 270.21875 378.804688 L 270.625 378.746094 L 271.910156 376.796875 L 272.234375 374.960938 L 273.40625 371.914063 L 274.707031 370.632813 L 277.851563 370.085938 L 283.34375 370.234375 L 284.253906 370.867188 L 286.703125 370.742188 L 293.949219 371.515625 L 296.914063 372.84375 L 304.070313 378.085938 L 305.367188 380.105469 L 306.730469 384.164063 L 307.179688 391.25 L 306.777344 393.191406 L 306.890625 393.976563 L 305.789063 396.917969 L 303.519531 407.832031 L 297.144531 414.53125 L 295.578125 412.011719 L 292.742188 410.515625 L 292.480469 410.636719 L 293.898438 413.703125 L 295.890625 416.628906 L 296.3125 416.765625 L 296.164063 417.742188 Z M 262.585938 371.804688 L 262.628906 371.695313 L 263.882813 370.265625 L 263.976563 370.214844 Z M 149.230469 401.910156 L 149.980469 403.453125 L 150.230469 405.285156 L 149.890625 407.101563 L 148.996094 408.722656 L 147.347656 410.828125 L 146.734375 412.488281 L 146.65625 414.238281 L 147.1875 416.175781 L 147.722656 417.078125 L 148.386719 417.800781 L 151.28125 419.535156 L 151.90625 419.96875 L 154.320313 421.882813 L 156.128906 422.53125 L 157.699219 422.714844 L 159.546875 422.597656 L 162.046875 422.988281 L 163.59375 423.59375 L 165.050781 424.421875 L 166.207031 425.632813 L 168.535156 428.902344 L 169.339844 430.511719 L 169.617188 432.289063 L 169.332031 434.066406 L 168.523438 435.671875 L 167.402344 437.226563 L 166.90625 438.398438 L 166.796875 438.980469 L 166.347656 438.652344 L 161.371094 433.375 L 159.03125 429.199219 L 155.65625 429.589844 L 149.269531 432.308594 L 149.113281 432.746094 L 147.203125 431.632813 L 146.917969 429.308594 L 148.539063 428.378906 L 150.066406 428.890625 L 151.640625 428.421875 L 152.765625 427.832031 L 153.085938 427.097656 L 152.808594 426.597656 L 147.785156 426.460938 L 143.210938 423.710938 L 139.503906 423.714844 L 136.765625 424.277344 L 136.292969 426.515625 L 135.777344 427.203125 L 133.742188 427.917969 L 132.394531 427.265625 L 131.648438 427.453125 L 129.4375 429.378906 L 126.53125 428.132813 L 127.425781 426.082031 L 128.796875 425.832031 L 131.792969 424.328125 L 131.226563 422.867188 L 130.640625 424.257813 L 127.769531 424.613281 L 122.949219 424.152344 L 121.496094 423.164063 L 124.125 421.78125 L 125.167969 421.753906 L 125.464844 421.238281 L 124.929688 417.953125 L 123.328125 417.210938 L 121.445313 417.105469 L 122.0625 415.152344 L 125.933594 413.378906 L 126.539063 411.90625 L 133.074219 411.34375 L 134.871094 409.289063 L 135.753906 407.632813 L 137.585938 406.550781 L 141.359375 406.660156 L 142.21875 406.390625 Z M 181.195313 443.519531 L 183.046875 443.234375 L 184.949219 443.582031 L 186.628906 444.53125 L 187.90625 445.566406 L 189.699219 446.480469 L 190.417969 446.914063 L 193.046875 448.773438 L 194.207031 449.152344 L 195.652344 449.25 L 197.242188 448.933594 L 198.652344 448.207031 L 199.816406 447.125 L 200.609375 445.808594 L 201.101563 443.886719 L 201.097656 442.898438 L 200.75 441.203125 L 200.71875 439.015625 L 201.25 436.027344 L 201.136719 434.902344 L 200.785156 433.828125 L 199.984375 432.523438 L 198.917969 431.496094 L 197.726563 430.816406 L 196.269531 430.414063 L 193.875 430.359375 L 192.441406 430.628906 L 191.757813 430.949219 L 195.792969 425.3125 L 197.929688 424.472656 L 198.285156 423.78125 L 198.070313 423.238281 L 197.8125 423.082031 L 196.09375 424.355469 L 192.90625 427.300781 L 190.570313 429.988281 L 189.222656 431.449219 L 185.628906 432.957031 L 183.714844 433.246094 L 182.441406 433.0625 L 182.289063 433.140625 L 181.097656 432.128906 L 180.148438 430.578125 L 179.722656 428.8125 L 179.859375 427.003906 L 180.28125 425.230469 L 180.308594 424.019531 L 180.085938 422.828125 L 179.636719 421.757813 L 178.804688 420.59375 L 177.660156 419.632813 L 176.429688 419.035156 L 174.257813 418.589844 L 172.566406 417.953125 L 171.148438 416.828125 L 170.148438 415.324219 L 169.65625 413.585938 L 169.171875 409.539063 L 169.242188 407.714844 L 169.464844 407.113281 L 169.460938 407.113281 L 167.769531 407.246094 L 166.109375 406.886719 L 165.625 406.703125 L 163.9375 405.714844 L 162.671875 404.21875 L 161.972656 402.390625 L 161.589844 400.46875 L 160.726563 398.574219 L 160.230469 396.730469 L 160.355469 394.828125 L 161.089844 393.070313 L 162.351563 391.640625 L 164.011719 390.699219 L 165.886719 390.34375 L 167.773438 390.613281 L 169.472656 391.480469 L 171.132813 392.707031 L 172.261719 393.808594 L 173.054688 395.167969 L 173.453125 396.695313 L 173.9375 400.753906 L 173.890625 402.449219 L 173.625 403.253906 L 174.285156 403.066406 L 176.109375 403.148438 L 179.171875 403.773438 L 182.253906 403.273438 L 183.941406 403.25 L 185.566406 403.710938 L 186.988281 404.617188 L 188.382813 405.824219 L 189.375 406.375 L 190.453125 406.71875 L 191.675781 406.847656 L 192.882813 406.722656 L 194.035156 406.34375 L 195.085938 405.734375 L 196.441406 404.507813 L 197.941406 403.523438 L 199.675781 403.042969 L 201.472656 403.113281 L 203.160156 403.730469 L 204.578125 404.835938 L 205.59375 406.320313 L 206.105469 408.042969 L 206.070313 409.839844 L 205.519531 412.917969 L 205.945313 415.1875 L 206.378906 416.046875 L 207.535156 417.59375 L 209.480469 419.273438 L 210.238281 419.640625 L 211.382813 419.9375 L 212.453125 420.003906 L 213.53125 419.867188 L 214.566406 419.527344 L 215.503906 419.011719 L 216.414063 418.25 L 217.429688 416.992188 L 218.835938 415.738281 L 220.566406 415 L 222.441406 414.851563 L 224.265625 415.308594 L 225.847656 416.328125 L 227.023438 417.796875 L 228.34375 420.140625 L 229.574219 421.300781 L 231.089844 422.046875 L 232.96875 422.335938 L 234.199219 422.191406 L 235.183594 421.839844 L 237.882813 419.84375 L 239.019531 419.191406 L 240.863281 418.386719 L 241.855469 417.648438 L 242.972656 416.21875 L 243.710938 414.308594 L 243.875 412.65625 L 243.382813 410.125 L 243.308594 408.421875 L 243.726563 406.773438 L 244.605469 405.316406 L 245.867188 404.175781 L 247.410156 403.449219 L 249.09375 403.199219 L 252.96875 403.199219 L 254.941406 403.546875 L 256.683594 404.539063 L 257.417969 405.148438 L 258.765625 406.761719 L 259.453125 408.746094 L 259.386719 410.847656 L 258.167969 416.511719 L 258.210938 417.605469 L 258.617188 419.257813 L 258.769531 421.050781 L 258.371094 422.800781 L 257.515625 424.941406 L 257.347656 426.421875 L 257.617188 428.082031 L 258.398438 429.699219 L 258.964844 430.390625 L 260.496094 431.628906 L 261.050781 432.136719 L 263.277344 434.464844 L 264.359375 435.070313 L 265.664063 435.425781 L 267.285156 435.433594 L 268.886719 434.976563 L 270.296875 434.085938 L 271.875 432.300781 L 273.21875 431.179688 L 274.835938 430.507813 L 276.578125 430.347656 L 278.289063 430.714844 L 279.816406 431.574219 L 280.503906 432.304688 L 279.644531 432.160156 L 274.75 433.78125 L 272.609375 436.117188 L 274.253906 436.015625 L 275.152344 434.667969 L 276.683594 434.363281 L 278.285156 434.328125 L 281.054688 434.949219 L 281.828125 435.589844 L 281.691406 436.328125 L 279.554688 436.347656 L 277.390625 437.65625 L 277.96875 438.546875 L 281.382813 438.964844 L 282.046875 439.132813 L 282.046875 440.03125 L 281.972656 440.953125 L 281.433594 444.300781 L 281.546875 445.214844 L 281.859375 446.171875 L 282.5625 447.382813 L 283.480469 448.355469 L 284.597656 449.089844 L 286.492188 449.777344 L 288.148438 450.714844 L 289.414063 452.136719 L 290.152344 453.886719 L 289.847656 454.226563 L 289.460938 455.09375 L 289.214844 456.324219 L 289.464844 457.886719 L 286.253906 458.289063 L 284.1875 457.9375 L 281.042969 460.90625 L 278.484375 461.933594 L 274.789063 462.777344 L 272.597656 463.816406 L 272.542969 463.890625 L 272.457031 463.839844 L 270.214844 461.929688 L 268.234375 461.167969 L 266.929688 461.058594 L 258.722656 461.550781 L 257.441406 462.011719 L 256.234375 462.835938 L 255.5625 463.605469 L 244.628906 465.699219 L 242.703125 466.390625 L 242.113281 466.964844 L 241.902344 467.984375 L 241.359375 468.164063 L 238.210938 466.1875 L 238.632813 465.4375 L 239.46875 464.933594 L 237.714844 463.296875 L 231.496094 463.171875 L 231.378906 463.496094 L 232.574219 464.835938 L 232.214844 465.75 L 231.738281 466.042969 L 226.691406 465.496094 L 219.566406 468.449219 L 217.054688 467.824219 L 210.222656 468.96875 L 208.164063 468.875 L 207.273438 468.058594 L 206.238281 469.769531 L 209.429688 471.089844 L 209.714844 470.9375 L 210.1875 472.128906 L 209.566406 473.890625 L 206.84375 474.453125 L 204.453125 473.097656 L 203.015625 472.699219 L 197.625 472.007813 L 196.175781 472.65625 L 195.679688 473.863281 L 195.832031 474.871094 L 196.757813 475.523438 L 196.488281 476.304688 L 195.917969 475.996094 L 194.851563 473.972656 L 190.289063 470.589844 L 185.898438 468.519531 L 183.121094 467.984375 L 181.648438 469.066406 L 176.207031 469.78125 L 174.339844 470.335938 L 168.992188 473.234375 L 168.214844 474.070313 L 167.203125 476.179688 L 162.746094 489.226563 L 160.929688 490.242188 L 158.269531 489.722656 L 157.554688 489.058594 L 156.527344 486.851563 L 154.683594 485.4375 L 153.613281 485.542969 L 152.417969 486.300781 L 151.738281 486.164063 L 148.46875 482.535156 L 142.796875 482.960938 L 141.527344 483.375 L 140.734375 484.175781 L 139.910156 484.507813 L 134.507813 484.320313 L 132.167969 484.859375 L 129.414063 488.195313 L 126.714844 489.746094 L 124.039063 490.597656 L 123.132813 494.289063 L 123.664063 495.292969 L 123.496094 496.125 L 122.722656 496.945313 L 120.660156 497.648438 L 119.628906 499.730469 L 118.675781 498.910156 L 117.96875 497.691406 L 118.09375 496.4375 L 117.15625 494.691406 L 115.984375 493.691406 L 112.253906 492.070313 L 111.410156 491.984375 L 110.375 492.488281 L 110.242188 494.183594 L 109.421875 495.128906 L 106.824219 495.664063 L 105.398438 494.824219 L 105.628906 491.574219 L 106.074219 490.5625 L 111.738281 488.078125 L 112.199219 488.253906 L 112.445313 488.9375 L 113.574219 489.15625 L 118.144531 485.910156 L 121.425781 483.085938 L 124.375 479.769531 L 125.210938 477.886719 L 124.875 476.421875 L 125.640625 474.519531 L 128.386719 473.238281 L 132.105469 472.640625 L 132.679688 471.785156 L 133.125 470.050781 L 133.535156 470.167969 L 134.703125 470.125 L 136.738281 469.410156 L 138.339844 468.085938 L 139.226563 466.628906 L 139.671875 464.800781 L 139.636719 463.675781 L 138.90625 461.289063 L 139.128906 458.542969 L 139.796875 454.753906 L 142.492188 455.105469 L 144.269531 456.015625 L 145.761719 455.429688 L 148.429688 452.488281 L 148.105469 447.519531 L 151.105469 446.613281 L 157.421875 446.269531 L 159.910156 445.683594 L 164.597656 446.761719 L 166.046875 446.148438 L 167.527344 446.515625 L 169.484375 447.285156 L 170.039063 448.109375 L 170.757813 448.421875 L 173.15625 448.464844 L 180.570313 447.503906 L 181.109375 445.632813 Z M 229.242188 354.730469 L 228.261719 353.199219 L 227.796875 351.441406 L 227.902344 349.628906 L 228.558594 347.933594 L 229.707031 346.527344 L 231.234375 345.542969 L 233.164063 344.691406 L 234.253906 343.84375 L 235.175781 342.671875 L 236.019531 340.757813 L 237.019531 339.214844 L 238.449219 338.0625 L 240.167969 337.410156 L 242.003906 337.332031 L 243.777344 337.828125 L 245.300781 338.851563 L 245.78125 339.464844 L 245.550781 339.511719 L 244.589844 338.644531 L 243.40625 338.558594 L 241.210938 339.871094 L 241.886719 340.445313 L 246.324219 340.394531 L 246.460938 340.351563 L 247.820313 342.820313 L 249.152344 344.042969 L 250.820313 344.792969 L 253.566406 345.078125 L 255.375 345.566406 L 256.933594 346.605469 L 258.078125 348.085938 L 258.695313 349.851563 L 258.972656 351.425781 L 259.386719 352.5 L 259.996094 353.472656 L 261.089844 354.640625 L 262.253906 356.476563 L 262.660156 358.617188 L 262.660156 362.492188 L 262.375 364.289063 L 261.550781 365.910156 L 260.265625 367.195313 L 258.644531 368.023438 L 256.847656 368.308594 L 252.96875 368.308594 L 251.304688 368.066406 L 249.78125 367.355469 L 248.523438 366.242188 L 247.636719 364.8125 L 246.828125 362.953125 L 246.082031 361.941406 L 245.132813 361.121094 L 243.691406 360.355469 L 241.796875 359.664063 L 240.632813 359.464844 L 239.425781 359.503906 L 237.554688 359.976563 L 235.714844 360.140625 L 233.914063 359.714844 L 232.339844 358.75 L 231.148438 357.335938 L 230.28125 355.894531 Z M 171.675781 355.621094 L 172.21875 356.699219 L 172.503906 358.453125 L 172.242188 360.210938 L 171.464844 361.808594 L 170.238281 363.097656 L 168.679688 363.953125 L 166.9375 364.300781 L 164.050781 364.425781 L 163.210938 364.402344 L 160.902344 364.164063 L 159.652344 364.355469 L 157.945313 365.132813 L 156.039063 366.832031 L 154.605469 367.773438 L 152.957031 368.253906 L 151.242188 368.234375 L 149.605469 367.710938 L 148.195313 366.734375 L 147.566406 366.152344 L 147.953125 364.523438 L 151.550781 360.582031 L 153.09375 359.609375 L 154.941406 359.808594 L 160.492188 357.457031 L 163.644531 357.28125 L 167.339844 357.714844 Z M 147.425781 363.976563 L 146.109375 363.875 L 144.195313 361.613281 L 142.050781 357.363281 L 142.246094 352.273438 L 144.664063 351.183594 L 146.003906 350.957031 L 149.566406 352.007813 L 151.039063 355.578125 L 155.546875 356.503906 L 154.066406 358.859375 L 150.984375 360.816406 Z M 141.734375 358.875 L 141.003906 358.070313 L 139.230469 356.960938 L 138.828125 356.035156 L 139.253906 355.210938 L 140.597656 355.164063 L 141.484375 356.3125 L 142.226563 358.1875 Z M 136.210938 448.453125 L 135.929688 448.140625 L 136.109375 446.949219 L 136.398438 446.875 L 136.6875 448.207031 Z M 236.835938 466.113281 L 235.136719 465.644531 L 236.523438 463.683594 L 237.195313 464.164063 L 237.5 465.839844 Z M 228.117188 474.644531 L 222.296875 470.886719 L 220.207031 471.1875 L 221.476563 469.683594 L 227.316406 466.367188 L 232.550781 467.761719 L 234.171875 469.894531 L 231.242188 473.621094 L 229.960938 474.269531 Z M 88.429688 500.046875 L 88.566406 499.308594 L 88.941406 499.117188 L 89.34375 499.789063 Z M 88.429688 500.046875 "/>
<path style=" stroke:none;fill-rule:nonzero;fill:rgb(80.392157%,58.431373%,4.705882%);fill-opacity:1;" d="M 196.753906 335.355469 L 196.46875 337.152344 L 195.644531 338.773438 L 194.355469 340.058594 L 192.734375 340.882813 L 190.9375 341.167969 L 189.140625 340.882813 L 187.519531 340.058594 L 186.234375 338.773438 L 185.40625 337.152344 L 185.125 335.355469 L 185.40625 333.558594 L 186.234375 331.9375 L 187.519531 330.648438 L 189.140625 329.824219 L 190.9375 329.539063 L 192.734375 329.824219 L 194.355469 330.648438 L 195.644531 331.9375 L 196.46875 333.558594 Z M 196.753906 335.355469 "/>
<path style=" stroke:none;fill-rule:nonzero;fill:rgb(80.392157%,58.431373%,4.705882%);fill-opacity:1;" d="M 220.015625 370.246094 L 219.730469 372.042969 L 218.90625 373.664063 L 217.617188 374.949219 L 215.996094 375.777344 L 214.199219 376.0625 L 212.402344 375.777344 L 210.78125 374.949219 L 209.496094 373.664063 L 208.667969 372.042969 L 208.382813 370.246094 L 208.667969 368.449219 L 209.496094 366.828125 L 210.78125 365.542969 L 212.402344 364.714844 L 214.199219 364.429688 L 215.996094 364.714844 L 217.617188 365.542969 L 218.90625 366.828125 L 219.730469 368.449219 Z M 220.015625 370.246094 "/>
<path style=" stroke:none;fill-rule:nonzero;fill:rgb(80.392157%,58.431373%,4.705882%);fill-opacity:1;" d="M 204.507813 346.984375 L 204.222656 348.78125 L 203.398438 350.402344 L 202.109375 351.6875 L 200.488281 352.515625 L 198.691406 352.800781 L 196.894531 352.515625 L 195.273438 351.6875 L 193.988281 350.402344 L 193.160156 348.78125 L 192.875 346.984375 L 193.160156 345.1875 L 193.988281 343.566406 L 195.273438 342.28125 L 196.894531 341.453125 L 198.691406 341.167969 L 200.488281 341.453125 L 202.109375 342.28125 L 203.398438 343.566406 L 204.222656 345.1875 Z M 204.507813 346.984375 "/>
<path style=" stroke:none;fill-rule:nonzero;fill:rgb(80.392157%,58.431373%,4.705882%);fill-opacity:1;" d="M 200.628906 343.109375 L 200.347656 344.90625 L 199.519531 346.527344 L 198.234375 347.8125 L 196.613281 348.636719 L 194.816406 348.921875 L 193.019531 348.636719 L 191.398438 347.8125 L 190.109375 346.527344 L 189.285156 344.90625 L 189 343.109375 L 189.285156 341.3125 L 190.109375 339.691406 L 191.398438 338.402344 L 193.019531 337.578125 L 194.816406 337.292969 L 196.613281 337.578125 L 198.234375 338.402344 L 199.519531 339.691406 L 200.347656 341.3125 Z M 200.628906 343.109375 "/>
<path style=" stroke:none;fill-rule:nonzero;fill:rgb(80.392157%,58.431373%,4.705882%);fill-opacity:1;" d="M 251.03125 381.875 L 250.746094 383.675781 L 249.921875 385.296875 L 248.632813 386.582031 L 247.011719 387.40625 L 245.214844 387.691406 L 243.417969 387.40625 L 241.796875 386.582031 L 240.511719 385.296875 L 239.683594 383.675781 L 239.398438 381.875 L 239.683594 380.078125 L 240.511719 378.457031 L 241.796875 377.171875 L 243.417969 376.347656 L 245.214844 376.0625 L 247.011719 376.347656 L 248.632813 377.171875 L 249.921875 378.457031 L 250.746094 380.078125 Z M 251.03125 381.875 "/>
<path style=" stroke:none;fill-rule:nonzero;fill:rgb(80.392157%,58.431373%,4.705882%);fill-opacity:1;" d="M 204.507813 362.492188 L 204.222656 364.289063 L 203.398438 365.910156 L 202.109375 367.195313 L 200.488281 368.023438 L 198.691406 368.308594 L 196.894531 368.023438 L 195.273438 367.195313 L 193.988281 365.910156 L 193.160156 364.289063 L 192.875 362.492188 L 193.160156 360.695313 L 193.988281 359.074219 L 195.273438 357.789063 L 196.894531 356.960938 L 198.691406 356.675781 L 200.488281 356.960938 L 202.109375 357.789063 L 203.398438 359.074219 L 204.222656 360.695313 Z M 204.507813 362.492188 "/>
<path style=" stroke:none;fill-rule:nonzero;fill:rgb(80.392157%,58.431373%,4.705882%);fill-opacity:1;" d="M 189 378 L 188.714844 379.796875 L 187.890625 381.417969 L 186.601563 382.703125 L 184.980469 383.53125 L 183.183594 383.816406 L 181.386719 383.53125 L 179.765625 382.703125 L 178.480469 381.417969 L 177.652344 379.796875 L 177.371094 378 L 177.652344 376.203125 L 178.480469 374.582031 L 179.765625 373.296875 L 181.386719 372.46875 L 183.183594 372.183594 L 184.980469 372.46875 L 186.601563 373.296875 L 187.890625 374.582031 L 188.714844 376.203125 Z M 189 378 "/>
<path style=" stroke:none;fill-rule:nonzero;fill:rgb(80.392157%,58.431373%,4.705882%);fill-opacity:1;" d="M 227.769531 319.847656 L 227.484375 321.644531 L 226.660156 323.265625 L 225.371094 324.550781 L 223.75 325.375 L 221.953125 325.660156 L 220.15625 325.375 L 218.535156 324.550781 L 217.25 323.265625 L 216.421875 321.644531 L 216.136719 319.847656 L 216.421875 318.050781 L 217.25 316.429688 L 218.535156 315.140625 L 220.15625 314.316406 L 221.953125 314.03125 L 223.75 314.316406 L 225.371094 315.140625 L 226.660156 316.429688 L 227.484375 318.050781 Z M 227.769531 319.847656 "/>
<path style=" stroke:none;fill-rule:nonzero;fill:rgb(80.392157%,58.431373%,4.705882%);fill-opacity:1;" d="M 235.523438 370.246094 L 235.238281 372.042969 L 234.414063 373.664063 L 233.125 374.949219 L 231.503906 375.777344 L 229.707031 376.0625 L 227.910156 375.777344 L 226.289063 374.949219 L 225.003906 373.664063 L 224.175781 372.042969 L 223.890625 370.246094 L 224.175781 368.449219 L 225.003906 366.828125 L 226.289063 365.542969 L 227.910156 364.714844 L 229.707031 364.429688 L 231.503906 364.714844 L 233.125 365.542969 L 234.414063 366.828125 L 235.238281 368.449219 Z M 235.523438 370.246094 "/>
<path style=" stroke:none;fill-rule:nonzero;fill:rgb(80.392157%,58.431373%,4.705882%);fill-opacity:1;" d="M 177.371094 184.152344 L 177.085938 185.949219 L 176.257813 187.570313 L 174.972656 188.859375 L 173.351563 189.683594 L 171.554688 189.96875 L 169.757813 189.683594 L 168.136719 188.859375 L 166.847656 187.570313 L 166.023438 185.949219 L 165.738281 184.152344 L 166.023438 182.355469 L 166.847656 180.734375 L 168.136719 179.449219 L 169.757813 178.625 L 171.554688 178.339844 L 173.351563 178.625 L 174.972656 179.449219 L 176.257813 180.734375 L 177.085938 182.355469 Z M 177.371094 184.152344 "/>
<path style=" stroke:none;fill-rule:nonzero;fill:rgb(80.392157%,58.431373%,4.705882%);fill-opacity:1;" d="M 173.492188 211.292969 L 173.207031 213.089844 L 172.382813 214.710938 L 171.09375 215.996094 L 169.472656 216.824219 L 167.675781 217.109375 L 165.878906 216.824219 L 164.257813 215.996094 L 162.972656 214.710938 L 162.144531 213.089844 L 161.863281 211.292969 L 162.144531 209.496094 L 162.972656 207.875 L 164.257813 206.585938 L 165.878906 205.761719 L 167.675781 205.476563 L 169.472656 205.761719 L 171.09375 206.585938 L 172.382813 207.875 L 173.207031 209.496094 Z M 173.492188 211.292969 "/>
<path style=" stroke:none;fill-rule:nonzero;fill:rgb(80.392157%,58.431373%,4.705882%);fill-opacity:1;" d="M 204.507813 257.816406 L 204.222656 259.613281 L 203.398438 261.234375 L 202.109375 262.519531 L 200.488281 263.347656 L 198.691406 263.628906 L 196.894531 263.347656 L 195.273438 262.519531 L 193.988281 261.234375 L 193.160156 259.613281 L 192.875 257.816406 L 193.160156 256.019531 L 193.988281 254.398438 L 195.273438 253.109375 L 196.894531 252.285156 L 198.691406 252 L 200.488281 252.285156 L 202.109375 253.109375 L 203.398438 254.398438 L 204.222656 256.019531 Z M 204.507813 257.816406 "/>
<path style=" stroke:none;fill-rule:nonzero;fill:rgb(80.392157%,58.431373%,4.705882%);fill-opacity:1;" d="M 196.753906 257.816406 L 196.46875 259.613281 L 195.644531 261.234375 L 194.355469 262.519531 L 192.734375 263.347656 L 190.9375 263.628906 L 189.140625 263.347656 L 187.519531 262.519531 L 186.234375 261.234375 L 185.40625 259.613281 L 185.125 257.816406 L 185.40625 256.019531 L 186.234375 254.398438 L 187.519531 253.109375 L 189.140625 252.285156 L 190.9375 252 L 192.734375 252.285156 L 194.355469 253.109375 L 195.644531 254.398438 L 196.46875 256.019531 Z M 196.753906 257.816406 "/>
<path style=" stroke:none;fill-rule:nonzero;fill:rgb(80.392157%,58.431373%,4.705882%);fill-opacity:1;" d="M 173.492188 188.03125 L 173.207031 189.828125 L 172.382813 191.449219 L 171.09375 192.734375 L 169.472656 193.5625 L 167.675781 193.847656 L 165.878906 193.5625 L 164.257813 192.734375 L 162.972656 191.449219 L 162.144531 189.828125 L 161.863281 188.03125 L 162.144531 186.234375 L 162.972656 184.613281 L 164.257813 183.324219 L 165.878906 182.5 L 167.675781 182.214844 L 169.472656 182.5 L 171.09375 183.324219 L 172.382813 184.613281 L 173.207031 186.234375 Z M 173.492188 188.03125 "/>
<path style=" stroke:none;fill-rule:nonzero;fill:rgb(80.392157%,58.431373%,4.705882%);fill-opacity:1;" d="M 181.246094 292.707031 L 180.960938 294.503906 L 180.136719 296.125 L 178.847656 297.414063 L 177.226563 298.238281 L 175.429688 298.523438 L 173.632813 298.238281 L 172.011719 297.414063 L 170.726563 296.125 L 170.636719 295.953125 L 174.074219 288.722656 L 175.894531 286.964844 L 177.226563 287.175781 L 178.847656 288.003906 L 180.136719 289.289063 L 180.960938 290.910156 Z M 181.246094 292.707031 "/>
<path style=" stroke:none;fill-rule:nonzero;fill:rgb(80.392157%,58.431373%,4.705882%);fill-opacity:1;" d="M 179.679688 242.304688 L 178.847656 243.136719 L 177.226563 243.960938 L 175.429688 244.246094 L 173.632813 243.960938 L 172.011719 243.136719 L 170.726563 241.847656 L 170.039063 240.5 L 178.0625 241.875 Z M 169.667969 238.101563 L 169.898438 236.632813 L 170.726563 235.011719 L 172.011719 233.726563 L 173.632813 232.898438 L 175.429688 232.617188 L 177.226563 232.898438 L 178.847656 233.726563 L 180.136719 235.011719 L 180.824219 236.367188 L 180.578125 237.003906 L 174.761719 240.109375 L 170.214844 238.117188 Z M 169.667969 238.101563 "/>
<path style=" stroke:none;fill-rule:nonzero;fill:rgb(80.392157%,58.431373%,4.705882%);fill-opacity:1;" d="M 181.246094 315.96875 L 180.960938 317.765625 L 180.136719 319.386719 L 178.847656 320.675781 L 177.226563 321.5 L 176.699219 321.582031 L 172.851563 314.925781 L 172.289063 311.832031 L 171.945313 311.332031 L 172.011719 311.265625 L 173.632813 310.4375 L 175.429688 310.152344 L 177.226563 310.4375 L 178.847656 311.265625 L 180.136719 312.550781 L 180.960938 314.171875 Z M 181.246094 315.96875 "/>
<path style=" stroke:none;fill-rule:nonzero;fill:rgb(80.392157%,58.431373%,4.705882%);fill-opacity:1;" d="M 134.722656 215.167969 L 134.601563 215.949219 L 134.105469 217.117188 L 131.898438 219.546875 L 131.125 219.644531 L 127.28125 218.265625 L 127.882813 216.460938 L 128.195313 216.742188 L 128.945313 216.671875 L 131.070313 215.113281 L 129.507813 214.882813 L 128.550781 215.441406 L 127.980469 214.949219 L 127.875 213.785156 L 129.65625 210.6875 L 130.523438 209.609375 L 130.703125 209.636719 L 132.324219 210.464844 L 133.613281 211.75 L 134.4375 213.371094 Z M 134.210938 217.410156 L 133.613281 218.585938 L 132.324219 219.875 L 130.703125 220.699219 L 128.90625 220.984375 L 127.109375 220.699219 L 126.445313 220.359375 L 126.660156 220.210938 L 128.792969 220.179688 L 129.328125 220.484375 L 131.4375 220.320313 Z M 123.160156 215.609375 L 123.09375 215.167969 L 123.375 213.371094 L 124.203125 211.75 L 125.488281 210.464844 L 127.109375 209.636719 L 128.90625 209.355469 L 129.3125 209.417969 L 123.476563 215.398438 Z M 123.160156 215.609375 "/>
<path style=" stroke:none;fill-rule:nonzero;fill:rgb(80.392157%,58.431373%,4.705882%);fill-opacity:1;" d="M 185.125 242.308594 L 184.839844 244.105469 L 184.011719 245.726563 L 182.726563 247.011719 L 181.105469 247.839844 L 179.308594 248.125 L 177.511719 247.839844 L 175.890625 247.011719 L 174.601563 245.726563 L 173.777344 244.105469 L 173.492188 242.308594 L 173.679688 241.125 L 178.0625 241.875 L 182.921875 243.167969 L 185.117188 242.261719 Z M 174.125 239.832031 L 174.601563 238.890625 L 175.890625 237.601563 L 177.511719 236.777344 L 179.308594 236.492188 L 180.691406 236.710938 L 180.578125 237.003906 L 174.761719 240.109375 Z M 174.125 239.832031 "/>
<path style=" stroke:none;fill-rule:nonzero;fill:rgb(80.392157%,58.431373%,4.705882%);fill-opacity:1;" d="M 224.949219 69.644531 L 224.035156 69.5 L 222.757813 68.851563 L 222.910156 68.203125 L 223.429688 67.644531 L 224.308594 63.570313 L 223.730469 58.59375 L 224.035156 58.4375 L 225.832031 58.152344 L 225.976563 58.175781 L 226.023438 58.453125 L 227.246094 61.769531 L 226.800781 62.460938 L 226.285156 62.238281 L 225.40625 63.738281 L 225.265625 67.207031 Z M 220.765625 61.257813 L 221.125 60.550781 L 222.183594 59.492188 L 222.21875 59.898438 Z M 220.765625 61.257813 "/>
</g>
</svg>
