<?xml version="1.0" encoding="UTF-8"?>
<svg xmlns="http://www.w3.org/2000/svg" xmlns:xlink="http://www.w3.org/1999/xlink" width="378pt" height="504pt" viewBox="0 0 378 504" version="1.1">
<g id="data">
<rect x="0" y="0" width="378" height="504" style="fill:rgb(100%,100%,100%);fill-opacity:1;stroke:none;"/>
<path style=" stroke:none;fill-rule:nonzero;fill:rgb(100%,100%,100%);fill-opacity:1;" d="M 53.308594 504 L 324.691406 504 L 324.691406 0 L 53.308594 0 Z M 53.308594 504 "/>
<path style=" stroke:none;fill-rule:nonzero;fill:rgb(22.745098%,53.333333%,16.078431%);fill-opacity:1;" d="M 199.035156 168.96875 L 200.265625 170.117188 L 202.195313 171.335938 L 204.324219 172.148438 L 206.445313 172.523438 L 208.324219 174.222656 L 210.640625 175.527344 L 213.570313 176.246094 L 213.671875 176.582031 L 213.671875 176.605469 L 211.925781 177.285156 L 209.984375 178.546875 L 208.332031 180.164063 L 206.972656 182.191406 L 206.066406 184.457031 L 205.644531 186.992188 L 205.789063 189.554688 L 206.445313 191.90625 L 203.933594 195.070313 L 203.011719 197.296875 L 202.570313 199.660156 L 200.117188 202.714844 L 199.171875 204.929688 L 198.691406 207.414063 L 196.703125 209.710938 L 195.375 212.441406 L 194.816406 215.167969 L 193.808594 217.605469 L 191.214844 219.742188 L 185.519531 221.085938 L 185.414063 221.09375 L 187.0625 219.046875 L 189.457031 217.820313 L 191.503906 216.074219 L 193.339844 213.453125 L 194.394531 210.433594 L 194.582031 207.238281 L 193.894531 204.113281 L 192.457031 201.398438 L 190.070313 198.726563 L 187.71875 196.972656 L 185.003906 195.863281 L 182.222656 195.472656 L 179.308594 195.785156 L 181.367188 194.042969 L 182.96875 191.875 L 184.066406 189.269531 L 184.496094 186.605469 L 184.277344 183.789063 L 183.441406 181.226563 L 182.039063 178.921875 L 180.140625 177.007813 L 177.769531 175.238281 L 175.582031 174.160156 L 173.09375 173.539063 L 170.527344 173.484375 L 166.925781 174.398438 L 163.800781 176.398438 L 161.246094 176.535156 L 158.90625 177.179688 L 155.425781 179.308594 L 156.160156 175.527344 L 156.046875 172.523438 L 156.933594 170.527344 L 157.433594 168.402344 L 157.433594 168.089844 L 157.75 167.980469 L 160.300781 168.324219 L 161.058594 169.320313 L 157.109375 173.804688 L 156.367188 175.339844 L 156.707031 175.816406 L 157.367188 175.984375 L 158.261719 175.542969 L 161.140625 173.015625 L 167.808594 170.273438 L 170.480469 169.527344 L 170.492188 169.949219 L 171.554688 169.839844 L 173.292969 168.539063 L 176.929688 168.800781 L 183.445313 168.730469 L 184.320313 169.011719 L 184.851563 168.714844 L 190.9375 168.644531 L 194.941406 169.3125 L 197.910156 168.785156 Z M 195.625 240.1875 L 195.691406 240.371094 L 198.132813 243.339844 L 200.019531 244.679688 L 202.007813 245.578125 L 204.261719 246.105469 L 205.5625 246.152344 L 206.488281 246.65625 L 208.910156 251.429688 L 212.824219 256.707031 L 213.265625 256.828125 L 213.433594 256.585938 L 214.085938 256.871094 L 214.757813 260.542969 L 216.085938 263.273438 L 218.078125 265.570313 L 217.765625 272.363281 L 218.226563 275.386719 L 219.664063 278.511719 L 221.207031 280.238281 L 221.269531 280.457031 L 221.777344 281.507813 L 220.878906 283.6875 L 220.460938 286.609375 L 220.761719 289.414063 L 221.730469 292.066406 L 223.476563 294.597656 L 225.832031 296.585938 L 226.714844 298.714844 L 228.003906 300.625 L 230.789063 303.066406 L 233.097656 304.179688 L 236.0625 304.917969 L 238.734375 304.933594 L 240.851563 304.449219 L 241.375 304.695313 L 241.71875 308.019531 L 243.308594 311.5 L 245.839844 314.203125 L 249.09375 315.96875 L 249.5 318.214844 L 250.28125 320.222656 L 251.496094 322.152344 L 252.96875 323.722656 L 251.183594 326.382813 L 250.167969 329.558594 L 250.09375 332.886719 L 250.96875 336.101563 L 252.335938 338.136719 L 245.550781 339.511719 L 244.589844 338.644531 L 243.40625 338.558594 L 241.210938 339.871094 L 241.886719 340.445313 L 246.324219 340.394531 L 249.617188 339.34375 L 251.976563 339.082031 L 254.382813 342.558594 L 260.535156 347.621094 L 263.042969 349.058594 L 263.664063 349.039063 L 266.046875 352.214844 L 268.015625 356.976563 L 267.835938 357.851563 L 268.0625 361.019531 L 269.140625 364.019531 L 269.320313 364.269531 L 269.210938 365.21875 L 264.953125 369.09375 L 261.394531 373.164063 L 260.601563 374.816406 L 262.84375 374.3125 L 264.9375 375.519531 L 266.9375 378.226563 L 270.21875 378.804688 L 270.625 378.746094 L 271.910156 376.796875 L 272.234375 374.960938 L 273.40625 371.914063 L 274.707031 370.632813 L 277.714844 370.109375 L 281.859375 370.40625 L 283.554688 370.378906 L 284.253906 370.867188 L 286.703125 370.742188 L 292.984375 371.414063 L 293.3125 371.71875 L 295.242188 372.933594 L 297.25 373.714844 L 298.386719 373.921875 L 299.898438 375.027344 L 300.695313 376.808594 L 302.445313 379.015625 L 304.671875 380.738281 L 305.738281 381.210938 L 306.730469 384.164063 L 306.9375 387.421875 L 306.582031 389.628906 L 306.992188 392.148438 L 306.777344 393.191406 L 306.890625 393.976563 L 305.789063 396.917969 L 305.191406 399.800781 L 305.117188 399.890625 L 303.925781 402.410156 L 303.246094 406.136719 L 303.328125 408.035156 L 302.183594 409.238281 L 301.003906 409.460938 L 298.667969 410.441406 L 295.945313 412.601563 L 295.578125 412.011719 L 292.742188 410.515625 L 292.480469 410.636719 L 293.898438 413.703125 L 294.125 414.042969 L 293.535156 414.511719 L 290.179688 418.960938 L 289.316406 420.960938 L 289.300781 421.023438 L 288.214844 419.332031 L 284.976563 421.730469 L 280.71875 424.230469 L 282.339844 425.378906 L 285.105469 424.398438 L 286.097656 423.375 L 286.894531 423.164063 L 287.328125 423.710938 L 287.632813 428.84375 L 285.6875 430.875 L 283.441406 432.558594 L 282.84375 432.699219 L 279.644531 432.160156 L 274.75 433.78125 L 272.609375 436.117188 L 274.253906 436.015625 L 275.152344 434.667969 L 276.683594 434.363281 L 278.285156 434.328125 L 281.054688 434.949219 L 281.828125 435.589844 L 281.691406 436.328125 L 279.554688 436.347656 L 277.390625 437.65625 L 277.96875 438.546875 L 281.382813 438.964844 L 286.863281 440.339844 L 289.394531 439.9375 L 291.074219 438.957031 L 299.492188 437.792969 L 299.492188 443.90625 L 298.019531 445.480469 L 296.804688 447.410156 L 296.023438 449.417969 L 295.851563 450.375 L 295.839844 450.375 L 292.621094 451.640625 L 292.125 452.019531 L 289.214844 453.160156 L 286.074219 455.765625 L 284.773438 458.035156 L 284.1875 457.9375 L 282.296875 459.722656 L 281.742188 459.824219 L 279.734375 460.605469 L 277.804688 461.820313 L 277.425781 462.175781 L 274.789063 462.777344 L 272.597656 463.816406 L 272.097656 464.492188 L 271.308594 464.84375 L 269.015625 466.726563 L 259.269531 463.777344 L 259.007813 463.757813 L 258.476563 463.542969 L 255.222656 463.132813 L 252.085938 463.398438 L 248.378906 464.65625 L 247.839844 465.085938 L 244.628906 465.699219 L 242.703125 466.390625 L 242.113281 466.964844 L 242.085938 467.109375 L 240.582031 467.257813 L 240.140625 467.398438 L 238.210938 466.1875 L 238.632813 465.4375 L 239.46875 464.933594 L 237.714844 463.296875 L 231.496094 463.171875 L 231.378906 463.496094 L 232.574219 464.835938 L 232.214844 465.75 L 231.738281 466.042969 L 226.691406 465.496094 L 219.566406 468.449219 L 217.054688 467.824219 L 210.222656 468.96875 L 208.164063 468.875 L 207.273438 468.058594 L 206.238281 469.769531 L 209.429688 471.089844 L 209.714844 470.9375 L 210.1875 472.128906 L 209.566406 473.890625 L 206.84375 474.453125 L 204.453125 473.097656 L 203.015625 472.699219 L 197.625 472.007813 L 196.175781 472.65625 L 195.679688 473.863281 L 195.832031 474.871094 L 196.757813 475.523438 L 196.488281 476.304688 L 195.917969 475.996094 L 194.851563 473.972656 L 190.289063 470.589844 L 185.898438 468.519531 L 183.121094 467.984375 L 181.648438 469.066406 L 176.207031 469.78125 L 174.339844 470.335938 L 168.992188 473.234375 L 168.214844 474.070313 L 167.203125 476.179688 L 163.601563 486.714844 L 161.28125 488.625 L 160.175781 490.09375 L 158.269531 489.722656 L 157.554688 489.058594 L 156.527344 486.851563 L 154.683594 485.4375 L 153.613281 485.542969 L 152.417969 486.300781 L 151.925781 486.199219 L 151.28125 485.65625 L 148.46875 482.535156 L 144.746094 482.8125 L 143.042969 482.527344 L 140.539063 482.675781 L 137.75 482.363281 L 135.589844 482.582031 L 133.390625 483.25 L 131.472656 484.265625 L 126.390625 488.625 L 125.121094 490.25 L 124.039063 490.597656 L 123.664063 492.121094 L 122.519531 493.59375 L 121.597656 495.820313 L 121.292969 497.433594 L 120.660156 497.648438 L 120.628906 497.710938 L 118.695313 495.964844 L 117.539063 495.402344 L 117.15625 494.691406 L 115.984375 493.691406 L 112.253906 492.070313 L 111.464844 491.988281 L 112.210938 490.804688 L 112.890625 489.023438 L 113.574219 489.15625 L 118.144531 485.910156 L 121.425781 483.085938 L 124.375 479.769531 L 125.210938 477.886719 L 124.945313 476.722656 L 125.957031 475.9375 L 127.703125 473.730469 L 127.800781 473.511719 L 128.386719 473.238281 L 132.105469 472.640625 L 132.679688 471.785156 L 133.019531 470.460938 L 134.160156 470.117188 L 136.488281 468.78125 L 138.367188 467.039063 L 139.628906 465.269531 L 140.539063 463.292969 L 142.988281 460.238281 L 143.933594 458.027344 L 144.328125 455.992188 L 145.761719 455.429688 L 148.429688 452.488281 L 148.15625 448.332031 L 148.292969 447.785156 L 148.921875 447.269531 L 151.105469 446.613281 L 157.421875 446.269531 L 159.910156 445.683594 L 164.597656 446.761719 L 166.046875 446.148438 L 167.527344 446.515625 L 169.484375 447.285156 L 170.039063 448.109375 L 170.757813 448.421875 L 173.15625 448.464844 L 180.570313 447.503906 L 181.109375 445.632813 L 181.210938 443.15625 L 182.519531 440.25 L 190.867188 432.195313 L 195.792969 425.3125 L 197.929688 424.472656 L 198.285156 423.78125 L 198.070313 423.238281 L 197.8125 423.082031 L 196.09375 424.355469 L 192.90625 427.300781 L 190.570313 429.988281 L 189.222656 431.449219 L 185.628906 432.957031 L 183.714844 433.246094 L 182.441406 433.0625 L 178.394531 435.230469 L 177.398438 436.808594 L 177.039063 438.671875 L 176.445313 439.273438 L 174.058594 439.917969 L 170.558594 439.851563 L 166.820313 439 L 166.347656 438.652344 L 161.371094 433.375 L 159.03125 429.199219 L 155.65625 429.589844 L 151.335938 431.425781 L 149.710938 429.507813 L 148.441406 428.433594 L 148.539063 428.378906 L 150.066406 428.890625 L 151.640625 428.421875 L 152.765625 427.832031 L 153.085938 427.097656 L 152.808594 426.597656 L 147.785156 426.460938 L 143.210938 423.710938 L 139.503906 423.714844 L 137.921875 424.039063 L 138.820313 423.695313 L 140.671875 422.535156 L 142.277344 421.050781 L 143.574219 419.292969 L 144.683594 416.835938 L 145.199219 414.1875 L 145.09375 411.492188 L 144.414063 409.015625 L 145.886719 407.441406 L 147.101563 405.511719 L 147.882813 403.503906 L 148.035156 402.671875 L 149.359375 401.828125 L 150.757813 400.007813 L 151.933594 399.40625 L 154.636719 396.519531 L 156.046875 393.507813 L 158.003906 390.511719 L 158.972656 386.9375 L 158.945313 384.25 L 158.253906 381.519531 L 157 379.140625 L 155.136719 377.03125 L 152.9375 375.488281 L 152.617188 375.359375 L 152.683594 374.835938 L 153.175781 374.082031 L 152.804688 373.207031 L 150.203125 373.105469 L 146.464844 374.011719 L 144.414063 374.125 L 145.710938 372.367188 L 146.699219 370.277344 L 147.257813 368.035156 L 147.289063 367.332031 L 147.953125 364.523438 L 151.550781 360.582031 L 153.09375 359.609375 L 154.941406 359.808594 L 160.492188 357.457031 L 163.644531 357.28125 L 167.339844 357.714844 L 168.367188 357.222656 L 170.398438 357.644531 L 172.835938 357.628906 L 174.972656 357.1875 L 176.378906 356.605469 L 179.910156 359.441406 L 180.433594 358.429688 L 178.613281 355.140625 L 181.304688 353.125 L 181.539063 352.792969 L 181.914063 353.875 L 182.898438 354.332031 L 184.078125 356.789063 L 185.613281 357.902344 L 188.359375 357.621094 L 190.335938 355.148438 L 189.90625 355.050781 L 188.667969 355.527344 L 188.3125 355.957031 L 186.378906 356.386719 L 183.8125 354.640625 L 182.386719 351.558594 L 183.632813 349.757813 L 184.636719 345.917969 L 184.414063 342.464844 L 183.535156 340.15625 L 185.429688 339.015625 L 185.140625 338.578125 L 183.242188 338.488281 L 183.347656 337.105469 L 183.066406 332.925781 L 182.277344 330.277344 L 184.695313 329.191406 L 187.28125 323.421875 L 187.71875 320.933594 L 187.855469 317.484375 L 184.742188 320.527344 L 179.199219 323.441406 L 177.335938 322.691406 L 176.003906 320.382813 L 176.097656 319.847656 L 175.429688 315.96875 L 175.699219 315.21875 L 179.324219 316.78125 L 183.261719 317.042969 L 189.546875 315.488281 L 192.199219 314.289063 L 195.457031 311.476563 L 197.265625 309.039063 L 198.316406 306.460938 L 199.320313 301.453125 L 198.953125 297.371094 L 197.191406 293.671875 L 194.253906 290.8125 L 190.511719 289.148438 L 187.0625 288.832031 L 184.558594 288.242188 L 182.375 288.183594 L 179.480469 288.757813 L 176.820313 290.042969 L 174.484375 292.050781 L 172.757813 294.601563 L 171.871094 297.011719 L 171.554688 300.460938 L 170.96875 301.9375 L 168.59375 300.871094 L 169.164063 299.058594 L 173.792969 289.308594 L 176.785156 287.683594 L 178.273438 286.070313 L 178.757813 285.980469 L 180.191406 286.804688 L 181.015625 286.710938 L 182.933594 286.238281 L 183.03125 285.160156 L 183.007813 285.144531 L 184.753906 284.9375 L 187.378906 283.949219 L 189.597656 282.445313 L 191.742188 280.074219 L 193.132813 277.472656 L 193.828125 274.605469 L 193.761719 271.53125 L 192.78125 268.34375 L 190.9375 265.570313 L 190.457031 263.082031 L 189.511719 260.867188 L 187.878906 258.613281 L 185.632813 256.722656 L 182.109375 255.195313 L 178.410156 254.886719 L 174.800781 255.761719 L 171.554688 257.816406 L 169.945313 254.324219 L 167.285156 251.550781 L 163.867188 249.792969 L 160.0625 249.246094 L 156.046875 250.0625 L 152.863281 250.320313 L 149.757813 251.496094 L 146.503906 254.164063 L 144.414063 257.816406 L 142.789063 257.171875 L 142.601563 256.71875 L 139.777344 254.832031 L 137.378906 252.511719 L 137.660156 250.308594 L 138.886719 250.609375 L 141.046875 250.714844 L 146.660156 249.652344 L 149.660156 248.3125 L 152.167969 246.183594 L 155.375 245.457031 L 158.351563 243.78125 L 162.003906 240.6875 L 163.800781 238.429688 L 166.742188 236.894531 L 169.132813 234.585938 L 171.066406 230.851563 L 171.554688 226.800781 L 173.933594 226.953125 L 176.9375 226.578125 L 179.105469 225.878906 L 181.203125 224.699219 L 181.671875 224.308594 L 184.609375 222.886719 L 186.457031 221.386719 L 187.289063 221.316406 L 189.085938 221.875 L 189.332031 222.921875 L 188.898438 224.691406 L 189.238281 225.953125 L 190.898438 226.824219 L 192.988281 227.191406 L 194.445313 228.726563 L 194.429688 229.304688 L 192.117188 231.570313 L 189.460938 232.730469 L 188.34375 232.882813 L 187.070313 232.078125 L 185.40625 232.042969 L 181.046875 235.800781 L 180.578125 237.003906 L 174.761719 240.109375 L 170.214844 238.117188 L 166.480469 238.003906 L 166.738281 239.222656 L 168.246094 240.195313 L 178.0625 241.875 L 182.921875 243.167969 L 186.398438 241.730469 L 187.519531 239.417969 L 188.617188 238.355469 L 189.539063 238.171875 L 193.183594 238.5 Z M 179.308594 370.246094 L 178.421875 368.117188 L 177.136719 366.203125 L 175.597656 364.664063 L 173.683594 363.375 L 171.554688 362.492188 L 169.289063 362.027344 L 166.976563 362.015625 L 164.710938 362.464844 L 162.574219 363.355469 L 160.660156 364.648438 L 159.117188 366.195313 L 157.832031 368.113281 L 156.949219 370.253906 L 156.507813 372.519531 L 156.511719 374.707031 L 156.960938 376.972656 L 157.847656 379.109375 L 159.140625 381.023438 L 160.777344 382.660156 L 162.691406 383.953125 L 164.828125 384.839844 L 167.09375 385.289063 L 169.277344 385.292969 L 171.546875 384.851563 L 173.683594 383.96875 L 175.605469 382.683594 L 177.234375 381.042969 L 178.507813 379.109375 L 179.371094 376.96875 L 179.78125 374.824219 L 179.773438 372.511719 Z M 255.914063 341.613281 L 256.640625 342.160156 L 258.527344 342.734375 L 258.378906 342.789063 L 257.507813 342.753906 L 256.035156 341.773438 Z M 262.855469 343.207031 L 263.46875 343.171875 L 263.640625 343.980469 L 262.804688 345.191406 L 263.28125 343.65625 Z M 232.859375 471.5625 L 231.871094 472.320313 L 230.464844 474.011719 L 229.960938 474.269531 L 228.117188 474.644531 L 222.296875 470.886719 L 220.207031 471.1875 L 221.476563 469.683594 L 227.316406 466.367188 L 232.550781 467.761719 L 234.171875 469.894531 Z M 110.191406 494.242188 L 109.523438 494.308594 L 110.296875 493.480469 L 110.242188 494.183594 Z M 136.714844 424.519531 L 136.660156 424.523438 L 136.71875 424.5 Z M 147.09375 363.949219 L 147.035156 363.566406 L 146.3125 361.507813 L 143.425781 357.230469 L 147.09375 358.683594 L 150.910156 358.84375 L 153.921875 358.335938 L 154.527344 358.125 L 154.066406 358.859375 L 150.984375 360.816406 L 147.425781 363.976563 Z M 159.886719 293.1875 L 159.105469 292.9375 L 156.941406 292.691406 L 154.847656 292.753906 L 149.984375 289.230469 L 149.214844 288.042969 L 149.230469 287.167969 L 148.945313 287.023438 L 148.292969 287.894531 L 148.292969 284.953125 L 150.867188 283.816406 L 153.09375 282.09375 L 154.84375 279.886719 L 156.046875 277.199219 L 156.488281 279.566406 L 157.410156 281.789063 L 161.03125 286.371094 L 164.171875 288.804688 L 165.21875 289.152344 L 163.3125 290.011719 L 161.832031 291.855469 Z M 179.003906 285.28125 L 179.308594 284.953125 L 180.859375 285.136719 L 180.035156 285.351563 Z M 132.859375 257.964844 L 132.421875 258.167969 L 132.800781 257.777344 Z M 157.429688 166.871094 L 157.425781 165.195313 L 156.792969 162.710938 L 155.695313 160.53125 L 155.488281 160.273438 L 155.875 160.457031 L 161.363281 161.917969 L 164.042969 162.292969 L 164.390625 162.207031 L 165.082031 163.488281 L 165.371094 163.84375 L 162.722656 166.96875 L 162.175781 167.183594 L 161.726563 166.894531 L 161.859375 165.949219 L 161.53125 165.507813 L 159.984375 165.785156 Z M 153.714844 158.246094 L 152.167969 157.015625 L 155.339844 157.320313 L 158.476563 156.753906 L 161.445313 155.285156 L 163.800781 153.136719 L 163.433594 155.417969 L 162.601563 156.074219 L 162.234375 157.082031 L 162.671875 158.175781 L 162.078125 159.632813 L 159.644531 160.289063 L 156.839844 159.359375 L 153.464844 157.734375 Z M 128.90625 261.691406 L 129.257813 260.265625 L 130.789063 259.433594 Z M 113.398438 188.03125 L 114.019531 185.171875 L 113.925781 182.75 L 117.5 184.859375 L 120.773438 183.445313 L 121.101563 183.578125 L 121.152344 184.152344 L 119.03125 184.527344 L 116.902344 185.34375 L 114.972656 186.558594 L 114.042969 187.429688 L 113.980469 187.324219 L 113.792969 187.660156 Z M 113.550781 180.859375 L 113.285156 179.816406 L 113.640625 176.351563 L 114.757813 173.765625 L 115.464844 173.085938 L 116.03125 173.816406 L 115.367188 179.941406 L 114.945313 180.566406 L 113.875 180.957031 Z M 112.046875 175.820313 L 111.222656 174.398438 L 109.523438 172.523438 L 110.179688 169.074219 L 109.835938 166.082031 L 110.253906 166.59375 L 110.757813 167.671875 L 112 169.351563 L 112.355469 170.324219 L 112.300781 173.941406 Z M 115.832031 172.242188 L 115.929688 172.296875 L 116.320313 172.429688 L 116.21875 172.839844 L 115.832031 172.433594 Z M 118.789063 173.128906 L 120.394531 173.335938 L 122.691406 173.175781 L 123.011719 173.089844 L 123.644531 173.570313 L 124.390625 172.890625 L 124.730469 172.851563 L 122.882813 174.878906 L 121.457031 177.726563 L 120.921875 180.507813 L 120.484375 180.664063 L 119.382813 179.570313 L 118.449219 174.53125 Z M 98.941406 249.234375 L 100.0625 248.355469 L 101.769531 246.183594 L 104.289063 244.113281 L 105.628906 242.332031 L 105.660156 242.308594 L 108.441406 242.621094 L 108.539063 242.609375 L 108.480469 243.175781 L 108.777344 246.292969 L 109.046875 247.320313 L 109.929688 248.226563 L 110.074219 249.53125 L 108 251.167969 L 105.644531 253.9375 L 104.074219 252.464844 L 103.628906 252.183594 L 104.988281 247.472656 L 102.980469 247.105469 L 101.464844 249.738281 L 100.574219 250.648438 L 100.015625 250.433594 L 98.730469 250.210938 Z M 109.488281 242.492188 L 111.105469 242.289063 L 113.734375 241.292969 L 115.632813 239.984375 L 113.761719 243.328125 L 111.886719 247.292969 L 110.550781 247.070313 L 109.476563 246.144531 L 109.292969 243.285156 Z M 88.945313 499.121094 L 88.542969 499.441406 L 88.566406 499.308594 L 88.941406 499.117188 Z M 82.382813 164.769531 L 86.261719 164.769531 L 85.597656 168.644531 L 86.042969 171.257813 L 84.875 171.125 L 84.914063 169.441406 L 83.019531 168.269531 L 83.03125 168.007813 Z M 86.242188 172.417969 L 86.261719 172.523438 L 84.292969 174.78125 L 84.0625 175.246094 L 83.046875 174.507813 L 82.722656 173.699219 L 82.824219 172.589844 L 83.972656 171.789063 Z M 83.820313 175.726563 L 83.011719 177.351563 L 82.96875 175.757813 L 83.4375 175.515625 Z M 286.679688 439.636719 L 283.058594 438.976563 L 282.164063 437.605469 L 282.484375 436.070313 L 286.839844 437.054688 L 287.960938 438.832031 Z M 236.835938 466.113281 L 235.136719 465.644531 L 236.523438 463.683594 L 237.195313 464.164063 L 237.5 465.839844 Z M 116.207031 183.113281 L 115.0625 182.589844 L 114.59375 181.914063 L 114.695313 181.441406 L 115.34375 181.214844 L 116.664063 181.757813 L 116.886719 182.648438 Z M 116.207031 183.113281 "/>
</g>
</svg>
