<?xml version="1.0" encoding="UTF-8"?>
<svg xmlns="http://www.w3.org/2000/svg" xmlns:xlink="http://www.w3.org/1999/xlink" width="378pt" height="504pt" viewBox="0 0 378 504" version="1.1">
<g id="data">
<rect x="0" y="0" width="378" height="504" style="fill:rgb(100%,100%,100%);fill-opacity:1;stroke:none;"/>
<path style=" stroke:none;fill-rule:nonzero;fill:rgb(100%,100%,100%);fill-opacity:1;" d="M 53.308594 504 L 324.691406 504 L 324.691406 0 L 53.308594 0 Z M 53.308594 504 "/>
<path style=" stroke:none;fill-rule:nonzero;fill:rgb(22.745098%,53.333333%,16.078431%);fill-opacity:1;" d="M 241.371094 304.691406 L 241.65625 307.773438 L 242.964844 310.960938 L 245.640625 314.042969 L 249.09375 315.96875 L 249.464844 318.089844 L 250.28125 320.222656 L 251.496094 322.152344 L 252.96875 323.722656 L 251.125 326.5 L 250.128906 329.8125 L 250.128906 333.144531 L 251.125 336.453125 L 252.304688 338.144531 L 245.550781 339.511719 L 244.589844 338.644531 L 243.40625 338.558594 L 241.210938 339.871094 L 241.886719 340.445313 L 246.324219 340.394531 L 249.617188 339.34375 L 251.976563 339.082031 L 254.382813 342.558594 L 260.535156 347.621094 L 261.152344 347.976563 L 261.796875 349.449219 L 263.40625 351.601563 L 265.683594 353.46875 L 266.769531 353.960938 L 268.007813 356.957031 L 267.847656 357.722656 L 268.011719 360.769531 L 268.96875 363.675781 L 269.324219 364.226563 L 269.210938 365.21875 L 264.953125 369.09375 L 261.394531 373.164063 L 260.601563 374.816406 L 262.84375 374.3125 L 264.9375 375.519531 L 266.9375 378.226563 L 270.21875 378.804688 L 270.625 378.746094 L 271.910156 376.796875 L 272.234375 374.960938 L 273.40625 371.914063 L 274.707031 370.632813 L 277.765625 370.101563 L 281.859375 370.40625 L 283.554688 370.378906 L 284.253906 370.867188 L 286.703125 370.742188 L 292.984375 371.414063 L 293.3125 371.71875 L 295.242188 372.933594 L 297.371094 373.75 L 298.398438 373.929688 L 299.890625 375.023438 L 300.628906 376.699219 L 302.351563 378.925781 L 304.671875 380.738281 L 305.738281 381.210938 L 306.730469 384.164063 L 306.945313 387.511719 L 306.582031 389.628906 L 307.003906 392.097656 L 306.777344 393.191406 L 306.890625 393.976563 L 305.789063 396.917969 L 305.183594 399.824219 L 303.925781 402.410156 L 303.246094 406.136719 L 303.328125 408.035156 L 302.191406 409.230469 L 301.125 409.421875 L 299.003906 410.261719 L 297.1875 411.417969 L 295.9375 412.589844 L 295.578125 412.011719 L 292.742188 410.515625 L 292.480469 410.636719 L 293.839844 413.582031 L 293.339844 413.777344 L 291.203125 415.199219 L 289.667969 416.753906 L 288.449219 418.570313 L 288.082031 419.429688 L 284.976563 421.730469 L 280.71875 424.230469 L 282.339844 425.378906 L 285.105469 424.398438 L 286.097656 423.375 L 286.894531 423.164063 L 287.117188 423.441406 L 287.089844 425.15625 L 287.546875 427.40625 L 287.632813 428.84375 L 285.6875 430.875 L 283.441406 432.558594 L 282.84375 432.699219 L 279.644531 432.160156 L 274.75 433.78125 L 272.609375 436.117188 L 274.253906 436.015625 L 275.152344 434.667969 L 276.683594 434.363281 L 278.285156 434.328125 L 281.054688 434.949219 L 281.828125 435.589844 L 281.691406 436.328125 L 279.554688 436.347656 L 277.390625 437.65625 L 277.96875 438.546875 L 281.382813 438.964844 L 286.863281 440.339844 L 289.394531 439.9375 L 291.074219 438.957031 L 299.492188 437.792969 L 299.492188 443.90625 L 298.019531 445.480469 L 296.804688 447.410156 L 296.023438 449.417969 L 295.851563 450.375 L 295.839844 450.375 L 292.621094 451.640625 L 292.125 452.019531 L 289.214844 453.160156 L 285.992188 455.863281 L 284.765625 458.035156 L 284.1875 457.9375 L 282.308594 459.710938 L 281.863281 459.789063 L 279.734375 460.605469 L 277.804688 461.820313 L 277.425781 462.175781 L 274.789063 462.777344 L 272.597656 463.816406 L 272.097656 464.492188 L 271.308594 464.84375 L 269.015625 466.726563 L 259.269531 463.777344 L 259.015625 463.757813 L 258.476563 463.542969 L 255.222656 463.132813 L 252.085938 463.398438 L 248.269531 464.71875 L 247.804688 465.089844 L 244.628906 465.699219 L 242.703125 466.390625 L 242.113281 466.964844 L 242.085938 467.109375 L 240.582031 467.257813 L 240.140625 467.398438 L 238.210938 466.1875 L 238.632813 465.4375 L 239.46875 464.933594 L 237.714844 463.296875 L 231.496094 463.171875 L 231.378906 463.496094 L 232.574219 464.835938 L 232.214844 465.75 L 231.738281 466.042969 L 226.691406 465.496094 L 219.566406 468.449219 L 217.054688 467.824219 L 210.222656 468.96875 L 208.164063 468.875 L 207.273438 468.058594 L 206.238281 469.769531 L 209.429688 471.089844 L 209.714844 470.9375 L 210.1875 472.128906 L 209.566406 473.890625 L 206.84375 474.453125 L 204.453125 473.097656 L 203.015625 472.699219 L 197.625 472.007813 L 196.175781 472.65625 L 195.679688 473.863281 L 195.832031 474.871094 L 196.757813 475.523438 L 196.488281 476.304688 L 195.917969 475.996094 L 194.851563 473.972656 L 190.289063 470.589844 L 185.898438 468.519531 L 183.121094 467.984375 L 181.648438 469.066406 L 176.207031 469.78125 L 174.339844 470.335938 L 168.992188 473.234375 L 168.214844 474.070313 L 167.203125 476.179688 L 165.253906 481.886719 L 165.105469 482.078125 L 164.242188 484.1875 L 163.972656 485.636719 L 163.605469 486.707031 L 161.628906 488.261719 L 160.1875 490.097656 L 158.269531 489.722656 L 157.554688 489.058594 L 156.527344 486.851563 L 154.683594 485.4375 L 153.613281 485.542969 L 153.257813 485.765625 L 153.003906 485.449219 L 150.757813 483.75 L 148.792969 482.894531 L 148.46875 482.535156 L 148.148438 482.558594 L 146.117188 480.859375 L 147.59375 478.101563 L 148.292969 474.921875 L 150.175781 473.367188 L 151.621094 471.5625 L 152.726563 469.386719 L 153.355469 467.027344 L 153.40625 463.816406 L 152.53125 460.597656 L 150.777344 457.761719 L 148.292969 455.539063 L 148.292969 452.640625 L 148.429688 452.488281 L 148.292969 450.386719 L 148.292969 447.785156 L 148.828125 447.296875 L 151.105469 446.613281 L 157.421875 446.269531 L 159.910156 445.683594 L 164.597656 446.761719 L 166.046875 446.148438 L 167.527344 446.515625 L 169.484375 447.285156 L 170.039063 448.109375 L 170.757813 448.421875 L 173.15625 448.464844 L 180.570313 447.503906 L 181.109375 445.632813 L 181.210938 443.15625 L 182.519531 440.25 L 190.867188 432.195313 L 195.792969 425.3125 L 197.929688 424.472656 L 198.285156 423.78125 L 198.070313 423.238281 L 197.8125 423.082031 L 196.09375 424.355469 L 192.90625 427.300781 L 190.570313 429.988281 L 189.222656 431.449219 L 185.628906 432.957031 L 183.714844 433.246094 L 182.441406 433.0625 L 178.394531 435.230469 L 177.398438 436.808594 L 177.039063 438.671875 L 176.445313 439.273438 L 174.058594 439.917969 L 170.558594 439.851563 L 166.820313 439 L 166.347656 438.652344 L 161.371094 433.375 L 159.03125 429.199219 L 155.65625 429.589844 L 151.363281 431.414063 L 151.253906 431.230469 L 148.386719 428.464844 L 148.539063 428.378906 L 150.066406 428.890625 L 151.640625 428.421875 L 152.765625 427.832031 L 153.085938 427.097656 L 152.808594 426.597656 L 147.785156 426.460938 L 143.210938 423.710938 L 141.578125 423.714844 L 142.261719 423.179688 L 143.703125 421.539063 L 144.808594 419.660156 L 145.546875 417.601563 L 145.894531 415.316406 L 145.800781 413.136719 L 145.304688 411.011719 L 144.414063 409.015625 L 147.738281 408.730469 L 150.84375 407.511719 L 153.5625 405.367188 L 155.476563 402.632813 L 156.304688 400.472656 L 156.691406 398.195313 L 156.617188 395.882813 L 156.046875 393.507813 L 158.015625 394.9375 L 160.113281 395.890625 L 162.488281 396.421875 L 164.921875 396.449219 L 167.308594 395.96875 L 169.539063 395.003906 L 171.523438 393.59375 L 173.171875 391.804688 L 174.75 388.878906 L 175.429688 385.753906 L 177.941406 382.589844 L 178.863281 380.367188 L 179.308594 378 L 181.515625 374.414063 L 182.222656 371.558594 L 182.171875 368.488281 L 181.558594 366.132813 L 180.402344 363.847656 L 178.867188 361.960938 L 176.96875 360.4375 L 174.917969 359.386719 L 172.699219 358.761719 L 169.679688 358.453125 L 166.921875 358.703125 L 164.828125 359.214844 L 162.757813 360.167969 L 159.921875 362.492188 L 157.402344 363.738281 L 155.339844 365.460938 L 153.046875 368.988281 L 152.304688 371.570313 L 152.21875 373.1875 L 150.203125 373.105469 L 146.253906 374.0625 L 144.414063 374.125 L 145.886719 372.550781 L 147.101563 370.621094 L 147.917969 368.492188 L 148.292969 366.371094 L 150.066406 364.390625 L 151.296875 362.175781 L 151.710938 360.480469 L 153.09375 359.609375 L 154.941406 359.808594 L 160.492188 357.457031 L 163.644531 357.28125 L 167.339844 357.714844 L 168.492188 357.160156 L 169.886719 357.582031 L 172.710938 357.644531 L 175.460938 357.023438 L 176.332031 356.566406 L 179.910156 359.441406 L 180.433594 358.429688 L 178.675781 355.257813 L 181.296875 353.207031 L 181.566406 352.875 L 181.914063 353.875 L 182.898438 354.332031 L 184.078125 356.789063 L 185.613281 357.902344 L 188.359375 357.621094 L 190.335938 355.148438 L 189.90625 355.050781 L 188.667969 355.527344 L 188.3125 355.957031 L 186.378906 356.386719 L 183.8125 354.640625 L 182.472656 351.746094 L 183.183594 350.863281 L 186.507813 348.945313 L 188.050781 347.40625 L 189.34375 345.496094 L 190.339844 342.996094 L 190.738281 340.335938 L 190.484375 337.53125 L 189.621094 334.980469 L 188.507813 333.109375 L 187.0625 331.476563 L 185.523438 328.535156 L 185.160156 328.152344 L 187.28125 323.421875 L 187.71875 320.933594 L 187.855469 317.484375 L 184.742188 320.527344 L 179.199219 323.441406 L 177.335938 322.691406 L 176.003906 320.382813 L 176.097656 319.847656 L 175.429688 315.96875 L 178.640625 317.230469 L 182.078125 317.496094 L 184.59375 317.035156 L 187.0625 315.96875 L 190.113281 315.5625 L 192.273438 314.738281 L 194.914063 312.917969 L 196.957031 310.449219 L 198.25 307.515625 L 198.691406 304.339844 L 199.800781 306.644531 L 201.386719 308.652344 L 203.265625 310.191406 L 205.542969 311.355469 L 207.769531 311.957031 L 210.324219 312.09375 L 213.691406 312.746094 L 216.230469 312.578125 L 218.558594 311.910156 L 220.597656 310.84375 L 222.390625 309.398438 L 223.859375 307.625 L 224.953125 305.597656 L 225.597656 303.519531 L 225.847656 301.230469 L 225.679688 298.582031 L 225.054688 296.277344 L 225.832031 296.585938 L 226.902344 299.050781 L 228.425781 301.109375 L 231.796875 303.628906 L 234.3125 304.570313 L 236.570313 304.96875 L 238.988281 304.902344 L 240.859375 304.453125 Z M 232.859375 471.5625 L 231.871094 472.320313 L 230.464844 474.011719 L 229.960938 474.269531 L 228.117188 474.644531 L 222.296875 470.886719 L 220.207031 471.1875 L 221.476563 469.683594 L 227.316406 466.367188 L 232.550781 467.761719 L 234.171875 469.894531 Z M 151.75 360.332031 L 152.167969 358.617188 L 154.289063 358.242188 L 154.507813 358.160156 L 154.066406 358.859375 Z M 213.148438 256.796875 L 212.917969 257.425781 L 212.800781 261.136719 L 213.410156 263.632813 L 214.550781 265.929688 L 216.167969 267.925781 L 218.078125 269.445313 L 216.78125 271.203125 L 215.835938 273.171875 L 215.273438 275.28125 L 215.121094 277.585938 L 215.925781 281.46875 L 218.078125 284.953125 L 218.1875 287.351563 L 218.835938 289.792969 L 216.566406 289.074219 L 214.199219 288.832031 L 211.449219 287.917969 L 208.300781 287.730469 L 207.152344 285.816406 L 204.554688 282.6875 L 202.492188 281.160156 L 200.144531 280.121094 L 197.753906 279.636719 L 195.441406 279.644531 L 193.179688 280.109375 L 190.9375 281.078125 L 192.609375 278.648438 L 193.589844 276 L 193.898438 273.066406 L 193.457031 270.148438 L 192.429688 267.660156 L 190.9375 265.570313 L 190.339844 262.71875 L 188.980469 260.003906 L 186.671875 257.480469 L 183.816406 255.761719 L 180.71875 254.941406 L 177.386719 255.011719 L 174.328125 255.972656 L 171.554688 257.816406 L 171.1875 255.667969 L 170.367188 253.511719 L 169.21875 251.664063 L 167.742188 250.0625 L 165.996094 248.761719 L 164.035156 247.808594 L 161.933594 247.238281 L 159.761719 247.070313 L 157.597656 247.3125 L 155.398438 248 L 152.167969 250.0625 L 148.839844 251.6875 L 146.117188 254.382813 L 144.414063 257.816406 L 142.769531 257.132813 L 142.601563 256.71875 L 140.4375 255.269531 L 142.359375 253.671875 L 144.414063 250.0625 L 146.535156 249.6875 L 148.667969 248.871094 L 150.597656 247.65625 L 152.167969 246.183594 L 154.851563 246.027344 L 157.421875 245.257813 L 160.640625 243.1875 L 162.554688 240.953125 L 163.800781 238.429688 L 167.152344 236.585938 L 169.65625 233.855469 L 171.171875 230.480469 L 171.554688 226.800781 L 175.746094 227.019531 L 179.738281 225.734375 L 181.320313 224.480469 L 184.609375 222.886719 L 186.457031 221.386719 L 187.289063 221.316406 L 189.085938 221.875 L 189.332031 222.921875 L 188.898438 224.691406 L 189.238281 225.953125 L 189.539063 226.113281 L 189.769531 227.839844 L 190.9375 230.675781 L 190.847656 232.125 L 189.460938 232.730469 L 188.34375 232.882813 L 187.070313 232.078125 L 185.40625 232.042969 L 181.046875 235.800781 L 180.578125 237.003906 L 174.761719 240.109375 L 170.214844 238.117188 L 166.480469 238.003906 L 166.738281 239.222656 L 168.246094 240.195313 L 178.0625 241.875 L 182.921875 243.167969 L 186.398438 241.730469 L 187.519531 239.417969 L 188.617188 238.355469 L 189.539063 238.171875 L 191.785156 238.375 L 191.828125 238.519531 L 193.96875 241.527344 L 196.351563 243.839844 L 198.375 245.179688 L 202.253906 246.402344 L 205.691406 246.222656 L 206.488281 246.65625 L 208.910156 251.429688 L 212.824219 256.707031 Z M 185.378906 221.09375 L 187.0625 219.046875 L 189.535156 217.765625 L 191.632813 215.933594 L 190.9375 219.046875 L 190.597656 219.886719 L 185.519531 221.085938 Z M 206.445313 172.523438 L 208.019531 173.996094 L 209.949219 175.210938 L 212.078125 176.027344 L 213.585938 176.292969 L 213.671875 176.582031 L 213.671875 176.605469 L 211.925781 177.285156 L 209.886719 178.625 L 208.171875 180.363281 L 206.855469 182.421875 L 206 184.707031 L 205.636719 187.121094 L 205.789063 189.554688 L 206.445313 191.90625 L 204.082031 192.351563 L 201.855469 193.273438 L 197.261719 196.859375 L 194.847656 199.824219 L 193.550781 203.28125 L 192.347656 201.246094 L 190.429688 199.089844 L 187.378906 196.789063 L 183.496094 195.566406 L 179.308594 195.785156 L 182.195313 193.058594 L 183.957031 189.640625 L 184.507813 185.835938 L 183.742188 181.9375 L 181.625 178.429688 L 177.429688 174.699219 L 174.523438 173.164063 L 170.367188 172.171875 L 173.1875 170.714844 L 175.429688 168.644531 L 179.308594 168.644531 L 183.183594 169.3125 L 187.0625 168.644531 L 190.9375 168.644531 L 192.371094 170.460938 L 194.027344 171.882813 L 195.917969 172.972656 L 197.984375 173.6875 L 200.144531 174.003906 L 202.324219 173.910156 L 204.449219 173.410156 Z M 194.816406 211.292969 L 193.886719 212.210938 L 194.390625 210.457031 Z M 159.265625 285.679688 L 159.921875 284.953125 L 160.863281 286.1875 Z M 132.785156 257.816406 L 132.816406 257.816406 L 132.84375 257.914063 L 132.421875 258.167969 Z M 128.90625 261.691406 L 129.257813 260.265625 L 130.789063 259.433594 Z M 128.90625 482.675781 L 130.382813 483.804688 L 128.90625 486.554688 L 126.738281 488.261719 L 125.1875 490.230469 L 124.558594 490.429688 L 121.152344 490.429688 L 117.277344 489.765625 L 113.398438 490.429688 L 115.570313 488.722656 L 117.277344 486.554688 L 120.449219 486.859375 L 123.582031 486.292969 L 126.449219 484.894531 Z M 109.523438 172.523438 L 110.179688 169.074219 L 109.835938 166.082031 L 110.253906 166.59375 L 110.757813 167.671875 L 112 169.351563 L 112.355469 170.324219 L 112.300781 173.941406 L 112.039063 175.863281 L 111.785156 175.246094 Z M 115.832031 172.242188 L 115.929688 172.296875 L 116.320313 172.429688 L 116.21875 172.839844 L 115.832031 172.433594 Z M 118.789063 173.125 L 120.523438 173.339844 L 122.816406 173.15625 L 123.023438 173.097656 L 123.644531 173.570313 L 124.390625 172.890625 L 124.730469 172.851563 L 122.882813 174.878906 L 121.457031 177.726563 L 120.9375 180.5 L 120.484375 180.664063 L 119.382813 179.570313 L 118.449219 174.53125 Z M 121.097656 183.578125 L 121.152344 184.152344 L 118.910156 184.5625 L 116.902344 185.34375 L 115.074219 186.480469 L 114.042969 187.433594 L 113.980469 187.324219 L 113.789063 187.671875 L 113.398438 188.03125 L 113.929688 185.933594 L 114.058594 183.769531 L 113.867188 182.714844 L 117.5 184.859375 L 120.773438 183.445313 Z M 113.53125 180.855469 L 113.304688 179.597656 L 113.640625 176.351563 L 114.757813 173.765625 L 115.464844 173.085938 L 116.03125 173.816406 L 115.367188 179.941406 L 114.945313 180.566406 L 113.875 180.957031 Z M 98.941406 249.234375 L 100.0625 248.355469 L 101.769531 246.183594 L 104.289063 244.113281 L 105.628906 242.332031 L 105.660156 242.308594 L 108.441406 242.621094 L 108.539063 242.609375 L 108.480469 243.175781 L 108.777344 246.292969 L 109.046875 247.320313 L 109.929688 248.226563 L 110.074219 249.53125 L 108 251.167969 L 105.644531 253.9375 L 104.074219 252.464844 L 103.628906 252.183594 L 104.988281 247.472656 L 102.980469 247.105469 L 101.464844 249.738281 L 100.578125 250.640625 L 100.136719 250.46875 L 98.726563 250.214844 Z M 109.488281 242.484375 L 111.230469 242.257813 L 113.734375 241.292969 L 115.632813 239.984375 L 113.761719 243.328125 L 111.886719 247.292969 L 110.550781 247.070313 L 109.476563 246.144531 L 109.292969 243.285156 Z M 286.679688 439.636719 L 283.058594 438.976563 L 282.164063 437.605469 L 282.484375 436.070313 L 286.839844 437.054688 L 287.960938 438.832031 Z M 236.835938 466.113281 L 235.136719 465.644531 L 236.523438 463.683594 L 237.195313 464.164063 L 237.5 465.839844 Z M 116.207031 183.113281 L 115.0625 182.589844 L 114.59375 181.914063 L 114.695313 181.441406 L 115.34375 181.214844 L 116.664063 181.757813 L 116.886719 182.648438 Z M 116.207031 183.113281 "/>
<path style=" stroke:none;fill-rule:nonzero;fill:rgb(80.392157%,58.431373%,4.705882%);fill-opacity:1;" d="M 142.476563 157.015625 L 142.191406 158.8125 L 141.367188 160.433594 L 140.078125 161.71875 L 138.457031 162.546875 L 136.660156 162.832031 L 134.863281 162.546875 L 133.242188 161.71875 L 131.957031 160.433594 L 131.128906 158.8125 L 130.847656 157.015625 L 130.9375 156.429688 L 131.765625 156.140625 L 134.503906 157.136719 L 136.507813 158.589844 L 137.039063 159.417969 L 137.175781 158.679688 L 135.242188 155.121094 L 132.511719 153.042969 L 133.242188 152.3125 L 134.863281 151.484375 L 136.660156 151.199219 L 138.457031 151.484375 L 140.078125 152.3125 L 141.367188 153.597656 L 142.191406 155.21875 Z M 142.476563 157.015625 "/>
<path style=" stroke:none;fill-rule:nonzero;fill:rgb(80.392157%,58.431373%,4.705882%);fill-opacity:1;" d="M 185.125 284.953125 L 184.839844 286.75 L 184.011719 288.371094 L 182.726563 289.660156 L 181.105469 290.484375 L 179.308594 290.769531 L 177.511719 290.484375 L 175.890625 289.660156 L 174.546875 288.265625 L 176.464844 286.417969 L 178.757813 285.980469 L 180.191406 286.804688 L 181.015625 286.710938 L 182.933594 286.238281 L 183.03125 285.160156 L 182.34375 284.746094 L 180.035156 285.351563 L 174.65625 284.980469 L 173.546875 284.613281 L 173.777344 283.15625 L 174.601563 281.535156 L 175.890625 280.25 L 177.511719 279.421875 L 179.308594 279.136719 L 181.105469 279.421875 L 182.726563 280.25 L 184.011719 281.535156 L 184.839844 283.15625 Z M 185.125 284.953125 "/>
<path style=" stroke:none;fill-rule:nonzero;fill:rgb(80.392157%,58.431373%,4.705882%);fill-opacity:1;" d="M 154.109375 288.832031 L 153.824219 290.628906 L 153.308594 291.640625 L 149.984375 289.230469 L 149.214844 288.042969 L 149.230469 287.167969 L 148.945313 287.023438 L 148.15625 288.078125 L 147.988281 288.910156 L 148.375 290.554688 L 149.574219 292.960938 L 149.714844 294.421875 L 148.292969 294.644531 L 146.496094 294.363281 L 144.875 293.535156 L 143.585938 292.25 L 142.761719 290.628906 L 142.476563 288.832031 L 142.761719 287.035156 L 143.585938 285.414063 L 144.875 284.125 L 146.496094 283.300781 L 148.292969 283.015625 L 150.089844 283.300781 L 151.710938 284.125 L 152.996094 285.414063 L 153.824219 287.035156 Z M 154.109375 288.832031 "/>
<path style=" stroke:none;fill-rule:nonzero;fill:rgb(80.392157%,58.431373%,4.705882%);fill-opacity:1;" d="M 181.246094 129.875 L 180.960938 131.675781 L 180.136719 133.296875 L 178.847656 134.582031 L 177.226563 135.40625 L 175.429688 135.691406 L 173.632813 135.40625 L 172.011719 134.582031 L 170.726563 133.296875 L 169.898438 131.675781 L 169.617188 129.875 L 169.921875 128.039063 L 171.035156 127.402344 L 172.933594 127.351563 L 173.433594 127.917969 L 177.664063 128.609375 L 178 127.714844 L 177.503906 127.214844 L 177.972656 125.796875 L 179.671875 125.996094 L 180.136719 126.457031 L 180.960938 128.078125 Z M 181.246094 129.875 "/>
<path style=" stroke:none;fill-rule:nonzero;fill:rgb(80.392157%,58.431373%,4.705882%);fill-opacity:1;" d="M 189 114.371094 L 188.808594 115.582031 L 186.777344 113.90625 L 184.832031 114.03125 L 181.886719 115.097656 L 178.421875 112.621094 L 178.183594 111.53125 L 179.765625 109.664063 L 181.386719 108.839844 L 183.183594 108.554688 L 184.980469 108.839844 L 186.601563 109.664063 L 187.324219 111.371094 L 188.355469 111.867188 Z M 187.300781 118.375 L 185.433594 119.671875 L 185.203125 119.125 L 185.941406 118.488281 Z M 182.953125 120.148438 L 181.386719 119.898438 L 179.765625 119.074219 L 178.480469 117.789063 L 177.652344 116.167969 L 177.410156 114.636719 L 178.613281 114.28125 L 181.269531 116.636719 L 182.96875 119.6875 Z M 182.953125 120.148438 "/>
<path style=" stroke:none;fill-rule:nonzero;fill:rgb(80.392157%,58.431373%,4.705882%);fill-opacity:1;" d="M 169.617188 172.523438 L 169.332031 174.320313 L 168.503906 175.941406 L 167.21875 177.226563 L 165.597656 178.054688 L 163.800781 178.339844 L 162.003906 178.054688 L 160.382813 177.226563 L 158.699219 175.160156 L 161.140625 173.015625 L 168.941406 169.957031 Z M 161.933594 167.027344 L 162.8125 166.863281 L 162.175781 167.183594 Z M 158.023438 172.765625 L 158.269531 170.726563 L 159.09375 169.105469 L 159.925781 168.273438 L 160.300781 168.324219 L 161.058594 169.320313 Z M 158.023438 172.765625 "/>
<path style=" stroke:none;fill-rule:nonzero;fill:rgb(80.392157%,58.431373%,4.705882%);fill-opacity:1;" d="M 165.738281 129.875 L 165.453125 131.675781 L 164.628906 133.296875 L 163.339844 134.582031 L 161.71875 135.40625 L 159.921875 135.691406 L 158.125 135.40625 L 156.503906 134.582031 L 155.21875 133.296875 L 154.390625 131.675781 L 154.1875 130.394531 L 157.023438 130.710938 L 161.488281 129.921875 Z M 165.738281 129.875 "/>
<path style=" stroke:none;fill-rule:nonzero;fill:rgb(80.392157%,58.431373%,4.705882%);fill-opacity:1;" d="M 146.355469 315.96875 L 146.070313 317.765625 L 145.242188 319.386719 L 143.957031 320.675781 L 142.335938 321.5 L 140.539063 321.785156 L 138.246094 321.25 L 139.816406 316.644531 L 142.300781 315.023438 L 144.140625 311.445313 L 145.242188 312.550781 L 146.070313 314.171875 Z M 146.355469 315.96875 "/>
<path style=" stroke:none;fill-rule:nonzero;fill:rgb(80.392157%,58.431373%,4.705882%);fill-opacity:1;" d="M 142.597656 314.449219 L 143.957031 315.140625 L 145.242188 316.429688 L 146.070313 318.050781 L 146.324219 319.648438 L 141.859375 323.019531 L 139.824219 322.464844 L 137.933594 323.433594 L 137.675781 322.921875 L 139.816406 316.644531 L 142.300781 315.023438 Z M 142.597656 314.449219 "/>
<path style=" stroke:none;fill-rule:nonzero;fill:rgb(80.392157%,58.431373%,4.705882%);fill-opacity:1;" d="M 225.320313 65.828125 L 223.882813 65.546875 L 224.308594 63.570313 L 223.632813 57.773438 L 221.078125 57.210938 L 222.089844 58.292969 L 222.21875 59.898438 L 220.292969 61.703125 L 220.015625 60.09375 L 220.300781 58.296875 L 221.125 56.675781 L 222.414063 55.386719 L 224.035156 54.5625 L 225.832031 54.277344 L 227.960938 54.730469 L 227.699219 56.234375 L 226.355469 57.007813 L 225.6875 56.476563 L 226.023438 58.453125 L 227.246094 61.769531 L 226.800781 62.460938 L 226.285156 62.238281 L 225.40625 63.738281 Z M 225.320313 65.828125 "/>
<path style=" stroke:none;fill-rule:nonzero;fill:rgb(80.392157%,58.431373%,4.705882%);fill-opacity:1;" d="M 173.492188 300.460938 L 173.207031 302.257813 L 172.382813 303.878906 L 171.09375 305.167969 L 169.472656 305.992188 L 168.429688 306.15625 L 167.40625 304.652344 L 169.164063 299.058594 L 170.800781 295.609375 L 172.382813 297.042969 L 173.207031 298.664063 Z M 173.492188 300.460938 "/>
<path style=" stroke:none;fill-rule:nonzero;fill:rgb(80.392157%,58.431373%,4.705882%);fill-opacity:1;" d="M 80.15625 167.210938 L 82.382813 166.707031 L 84.183594 166.992188 L 85.804688 167.816406 L 87.089844 169.105469 L 88.003906 171.289063 L 84.875 171.125 L 84.914063 169.441406 L 82.996094 168.253906 L 81.464844 168.371094 Z M 85.394531 175.835938 L 84.546875 175.601563 L 83.046875 174.507813 L 82.722656 173.699219 L 82.824219 172.589844 L 83.972656 171.789063 L 86.566406 172.507813 L 87.433594 173.25 L 87.285156 175.226563 Z M 85.78125 177.238281 L 84.183594 178.054688 L 81.917969 178.265625 L 82.046875 176.234375 L 83.4375 175.515625 L 85.28125 176.539063 Z M 85.78125 177.238281 "/>
<path style=" stroke:none;fill-rule:nonzero;fill:rgb(80.392157%,58.431373%,4.705882%);fill-opacity:1;" d="M 139.320313 318.101563 L 140.539063 317.90625 L 142.335938 318.191406 L 143.957031 319.019531 L 145.378906 320.574219 L 141.859375 323.019531 L 139.824219 322.464844 L 137.933594 323.433594 L 137.675781 322.921875 Z M 139.320313 318.101563 "/>
<path style=" stroke:none;fill-rule:nonzero;fill:rgb(80.392157%,58.431373%,4.705882%);fill-opacity:1;" d="M 149.589844 310.710938 L 149.121094 311.632813 L 147.832031 312.921875 L 146.210938 313.746094 L 144.414063 314.03125 L 142.933594 313.796875 L 144.765625 310.230469 L 145.863281 309.40625 L 149.046875 308.269531 Z M 149.589844 310.710938 "/>
<path style=" stroke:none;fill-rule:nonzero;fill:rgb(80.392157%,58.431373%,4.705882%);fill-opacity:1;" d="M 198.269531 98.070313 L 199.601563 99.480469 L 197.464844 100.832031 L 194.695313 101.191406 L 193.226563 103.421875 L 193.136719 102.113281 L 195.332031 98.847656 L 196.15625 98.316406 Z M 198.269531 98.070313 "/>
<path style=" stroke:none;fill-rule:nonzero;fill:rgb(80.392157%,58.431373%,4.705882%);fill-opacity:1;" d="M 88.429688 500.046875 L 88.566406 499.308594 L 88.941406 499.117188 L 89.34375 499.789063 Z M 88.429688 500.046875 "/>
</g>
</svg>
