<?xml version="1.0" encoding="UTF-8"?>
<svg xmlns="http://www.w3.org/2000/svg" xmlns:xlink="http://www.w3.org/1999/xlink" width="378pt" height="504pt" viewBox="0 0 378 504" version="1.1">
<g id="data">
<rect x="0" y="0" width="378" height="504" style="fill:rgb(100%,100%,100%);fill-opacity:1;stroke:none;"/>
<path style=" stroke:none;fill-rule:nonzero;fill:rgb(100%,100%,100%);fill-opacity:1;" d="M 53.308594 504 L 324.691406 504 L 324.691406 0 L 53.308594 0 Z M 53.308594 504 "/>
<path style=" stroke:none;fill-rule:nonzero;fill:rgb(22.745098%,53.333333%,16.078431%);fill-opacity:1;" d="M 128.167969 254.265625 L 128.371094 253.996094 L 128.734375 253.644531 L 130.007813 252.707031 L 130.710938 252.441406 L 131.390625 253.015625 L 132.984375 258.382813 L 133.019531 262.765625 L 132.308594 263.453125 L 130.613281 263.773438 L 129.152344 263.667969 L 126.582031 261.613281 L 125.375 256.128906 L 125.417969 255.941406 L 126.488281 255.148438 L 128.023438 254.320313 Z M 137.699219 249.984375 L 137.828125 249.875 L 139.363281 247.183594 L 140.40625 245.847656 L 141.796875 244.871094 L 143.40625 244.335938 L 144.980469 244.058594 L 146.054688 243.644531 L 146.765625 243.199219 L 148.300781 243.253906 L 147.242188 242.832031 L 148.195313 241.941406 L 149.871094 240.839844 L 151.824219 240.378906 L 153.832031 240.261719 L 154.96875 239.921875 L 156.777344 238.757813 L 157.660156 237.722656 L 158.585938 235.851563 L 159.597656 234.410156 L 160.996094 233.335938 L 163.511719 231.949219 L 164.734375 230.617188 L 165.484375 228.949219 L 165.769531 226.203125 L 166.214844 224.496094 L 167.148438 223.003906 L 168.484375 221.859375 L 170.105469 221.167969 L 171.855469 220.992188 L 174.980469 221.15625 L 176.953125 220.523438 L 180.890625 217.394531 L 182.570313 215.351563 L 184.386719 213.882813 L 186.238281 212.925781 L 187.808594 211.554688 L 188.21875 211.296875 L 188.296875 210.617188 L 188.796875 208.859375 L 189.480469 207.363281 L 188.546875 206.242188 L 187.628906 204.6875 L 186.46875 203.382813 L 184.691406 202.046875 L 182.65625 201.417969 L 179.640625 201.589844 L 177.882813 201.421875 L 176.253906 200.734375 L 174.90625 199.585938 L 173.96875 198.089844 L 173.523438 196.378906 L 173.613281 194.613281 L 174.226563 192.953125 L 175.3125 191.558594 L 177.480469 189.511719 L 178.339844 187.839844 L 178.609375 185.980469 L 178.234375 184.0625 L 177.101563 182.1875 L 174.09375 179.511719 L 172.457031 178.652344 L 169.019531 177.828125 L 167.386719 177.167969 L 166.03125 176.046875 L 165.070313 174.570313 L 164.59375 172.878906 L 164.632813 171.582031 L 167.808594 170.273438 L 170.480469 169.527344 L 170.492188 169.949219 L 171.554688 169.839844 L 173.589844 168.316406 L 174.046875 166.78125 L 178.648438 166.167969 L 179.285156 167.089844 L 180.148438 167.667969 L 184.320313 169.011719 L 187.675781 167.128906 L 199.164063 168.988281 L 204.117188 168.914063 L 205.648438 167.671875 L 207.910156 167.828125 L 210.3125 168.835938 L 212.550781 172.800781 L 213.671875 176.582031 L 213.695313 178 L 209.382813 183.425781 L 207.15625 188.339844 L 206.664063 191.242188 L 206.84375 191.972656 L 206.226563 194.742188 L 203.9375 198.859375 L 203.914063 199.046875 L 201.34375 201.050781 L 200.007813 202.675781 L 198.984375 205.355469 L 198.433594 206.308594 L 198.558594 206.402344 L 199.34375 207.496094 L 199.179688 207.605469 L 197.078125 210.023438 L 197.433594 210.839844 L 197.785156 210.703125 L 197.761719 211.238281 L 196.796875 214.386719 L 195.867188 215.914063 L 191.214844 219.742188 L 185.519531 221.085938 L 182.847656 221.226563 L 177.804688 225.21875 L 178.117188 225.714844 L 179.84375 225.195313 L 184.609375 222.886719 L 186.457031 221.386719 L 187.289063 221.316406 L 189.085938 221.875 L 189.332031 222.921875 L 188.898438 224.691406 L 189.238281 225.953125 L 190.898438 226.824219 L 192.988281 227.191406 L 194.445313 228.726563 L 194.429688 229.304688 L 192.117188 231.570313 L 189.460938 232.730469 L 188.34375 232.882813 L 187.070313 232.078125 L 185.40625 232.042969 L 181.046875 235.800781 L 180.578125 237.003906 L 174.761719 240.109375 L 170.214844 238.117188 L 166.480469 238.003906 L 166.738281 239.222656 L 168.246094 240.195313 L 178.0625 241.875 L 182.921875 243.167969 L 186.398438 241.730469 L 187.519531 239.417969 L 188.617188 238.355469 L 189.539063 238.171875 L 193.183594 238.5 L 199.339844 242.761719 L 206.488281 246.65625 L 208.910156 251.429688 L 212.824219 256.707031 L 213.265625 256.828125 L 213.433594 256.585938 L 214.601563 257.097656 L 217.371094 258.992188 L 218.679688 263.09375 L 218.894531 265.933594 L 218.261719 267.402344 L 220.40625 277.574219 L 221.269531 280.457031 L 222.984375 284.039063 L 223.773438 285.027344 L 223.941406 285.734375 L 223.984375 286.554688 L 224.449219 288.273438 L 224.648438 290.035156 L 224.542969 290.558594 L 225.074219 290.503906 L 225.945313 294.183594 L 229.304688 299.0625 L 244.476563 306.140625 L 245.742188 307.636719 L 247.265625 310.527344 L 249.289063 315.722656 L 252.390625 319.148438 L 256.121094 320.875 L 257.207031 321.722656 L 254.738281 323.09375 L 253.890625 324.554688 L 253.765625 325.996094 L 254.984375 329.992188 L 255.957031 332.023438 L 255.957031 332.378906 L 256.417969 333.871094 L 258.636719 337.050781 L 260.539063 338.617188 L 260.625 338.703125 L 263.316406 342.46875 L 263.640625 343.980469 L 262.804688 345.191406 L 263.28125 343.65625 L 262.507813 342.839844 L 260.445313 342 L 258.378906 342.789063 L 257.507813 342.753906 L 256.035156 341.773438 L 253.664063 338.65625 L 252.601563 338.082031 L 245.550781 339.511719 L 244.589844 338.644531 L 243.40625 338.558594 L 241.210938 339.871094 L 241.886719 340.445313 L 246.324219 340.394531 L 249.617188 339.34375 L 251.976563 339.082031 L 254.382813 342.558594 L 260.535156 347.621094 L 263.042969 349.058594 L 263.664063 349.039063 L 266.046875 352.214844 L 268.980469 359.304688 L 269.535156 362.402344 L 269.210938 365.21875 L 264.953125 369.09375 L 261.394531 373.164063 L 260.601563 374.816406 L 262.84375 374.3125 L 264.9375 375.519531 L 266.9375 378.226563 L 270.21875 378.804688 L 270.625 378.746094 L 271.910156 376.796875 L 272.234375 374.960938 L 273.40625 371.914063 L 274.707031 370.632813 L 277.851563 370.085938 L 283.34375 370.234375 L 284.253906 370.867188 L 286.703125 370.742188 L 293.949219 371.515625 L 296.914063 372.84375 L 304.070313 378.085938 L 305.367188 380.105469 L 306.730469 384.164063 L 307.179688 391.25 L 306.777344 393.191406 L 306.890625 393.976563 L 305.789063 396.917969 L 303.519531 407.832031 L 297.144531 414.53125 L 295.578125 412.011719 L 292.742188 410.515625 L 292.480469 410.636719 L 293.898438 413.703125 L 295.890625 416.628906 L 296.3125 416.765625 L 296.164063 417.742188 L 294.574219 419.804688 L 292.191406 421.289063 L 290.003906 421.65625 L 289.660156 421.574219 L 288.214844 419.332031 L 284.976563 421.730469 L 280.71875 424.230469 L 282.339844 425.378906 L 285.105469 424.398438 L 286.097656 423.375 L 286.894531 423.164063 L 287.328125 423.710938 L 287.632813 428.84375 L 285.6875 430.875 L 283.441406 432.558594 L 282.84375 432.699219 L 279.644531 432.160156 L 274.75 433.78125 L 272.609375 436.117188 L 274.253906 436.015625 L 275.152344 434.667969 L 276.683594 434.363281 L 278.285156 434.328125 L 281.054688 434.949219 L 281.828125 435.589844 L 281.691406 436.328125 L 279.554688 436.347656 L 277.390625 437.65625 L 277.96875 438.546875 L 281.382813 438.964844 L 286.863281 440.339844 L 289.394531 439.9375 L 291.074219 438.957031 L 299.742188 437.757813 L 300.988281 440.148438 L 300.773438 446.324219 L 300.335938 447.820313 L 299.394531 449.050781 L 296.972656 450.242188 L 295.839844 450.375 L 292.621094 451.640625 L 291.179688 452.742188 L 289.847656 454.226563 L 289.460938 455.09375 L 289.214844 456.324219 L 289.464844 457.886719 L 286.253906 458.289063 L 284.1875 457.9375 L 281.042969 460.90625 L 278.484375 461.933594 L 274.789063 462.777344 L 272.597656 463.816406 L 270.539063 466.589844 L 269.761719 466.949219 L 259.269531 463.777344 L 256.070313 463.507813 L 244.628906 465.699219 L 242.703125 466.390625 L 242.113281 466.964844 L 241.902344 467.984375 L 241.359375 468.164063 L 238.210938 466.1875 L 238.632813 465.4375 L 239.46875 464.933594 L 237.714844 463.296875 L 231.496094 463.171875 L 231.378906 463.496094 L 232.574219 464.835938 L 232.214844 465.75 L 231.738281 466.042969 L 226.691406 465.496094 L 219.566406 468.449219 L 217.054688 467.824219 L 210.222656 468.96875 L 208.164063 468.875 L 207.273438 468.058594 L 206.238281 469.769531 L 209.429688 471.089844 L 209.714844 470.9375 L 210.1875 472.128906 L 209.566406 473.890625 L 206.84375 474.453125 L 204.453125 473.097656 L 203.015625 472.699219 L 197.625 472.007813 L 196.175781 472.65625 L 195.679688 473.863281 L 195.832031 474.871094 L 196.757813 475.523438 L 196.488281 476.304688 L 195.917969 475.996094 L 194.851563 473.972656 L 190.289063 470.589844 L 185.898438 468.519531 L 183.121094 467.984375 L 181.648438 469.066406 L 176.207031 469.78125 L 174.339844 470.335938 L 168.992188 473.234375 L 168.214844 474.070313 L 167.203125 476.179688 L 162.746094 489.226563 L 160.929688 490.242188 L 158.269531 489.722656 L 157.554688 489.058594 L 156.527344 486.851563 L 154.683594 485.4375 L 153.613281 485.542969 L 152.417969 486.300781 L 151.738281 486.164063 L 148.46875 482.535156 L 142.796875 482.960938 L 141.527344 483.375 L 141.101563 483.800781 L 140.40625 481.964844 L 140.367188 479.988281 L 140.988281 478.113281 L 142.085938 476.066406 L 142.613281 473.675781 L 143.335938 471.878906 L 144.613281 470.421875 L 145.941406 469.335938 L 146.714844 468.378906 L 147.265625 467.296875 L 147.546875 466.234375 L 147.566406 464.453125 L 147.152344 462.953125 L 146.273438 461.535156 L 144.417969 459.875 L 143.367188 458.632813 L 142.703125 457.148438 L 142.476563 455.539063 L 142.476563 455.105469 L 142.492188 455.105469 L 144.269531 456.015625 L 145.761719 455.429688 L 148.429688 452.488281 L 148.105469 447.519531 L 151.105469 446.613281 L 157.421875 446.269531 L 159.910156 445.683594 L 164.597656 446.761719 L 166.046875 446.148438 L 167.527344 446.515625 L 169.484375 447.285156 L 170.039063 448.109375 L 170.757813 448.421875 L 173.15625 448.464844 L 180.570313 447.503906 L 181.109375 445.632813 L 181.210938 443.15625 L 182.519531 440.25 L 190.867188 432.195313 L 195.792969 425.3125 L 197.929688 424.472656 L 198.285156 423.78125 L 198.070313 423.238281 L 197.8125 423.082031 L 196.09375 424.355469 L 192.90625 427.300781 L 190.570313 429.988281 L 189.222656 431.449219 L 185.628906 432.957031 L 183.714844 433.246094 L 182.441406 433.0625 L 178.394531 435.230469 L 177.398438 436.808594 L 177.039063 438.671875 L 176.445313 439.273438 L 174.058594 439.917969 L 170.558594 439.851563 L 166.820313 439 L 166.347656 438.652344 L 161.371094 433.375 L 159.03125 429.199219 L 155.65625 429.589844 L 149.269531 432.308594 L 149.113281 432.746094 L 147.203125 431.632813 L 146.917969 429.308594 L 148.539063 428.378906 L 150.066406 428.890625 L 151.640625 428.421875 L 152.765625 427.832031 L 153.085938 427.097656 L 152.808594 426.597656 L 147.785156 426.460938 L 143.210938 423.710938 L 139.503906 423.714844 L 136.765625 424.277344 L 136.292969 426.515625 L 135.777344 427.203125 L 135.507813 427.296875 L 135.117188 426.632813 L 134.730469 424.820313 L 134.933594 422.980469 L 135.703125 421.292969 L 136.960938 419.9375 L 138.253906 418.929688 L 138.96875 418.113281 L 139.519531 417.179688 L 139.882813 416.171875 L 140.0625 415 L 140.015625 413.929688 L 139.765625 412.875 L 139.101563 411.378906 L 138.628906 409.605469 L 138.734375 407.769531 L 139.195313 406.597656 L 141.359375 406.660156 L 142.21875 406.390625 L 149.359375 401.828125 L 152.136719 398.207031 L 153.054688 396.195313 L 154.199219 391.746094 L 153.734375 388.820313 L 153.496094 388.355469 L 154.421875 387.925781 L 156.175781 387.695313 L 157.921875 388.003906 L 159.492188 388.824219 L 160.871094 389.835938 L 161.984375 390.347656 L 163.164063 390.613281 L 164.375 390.625 L 165.5625 390.386719 L 166.671875 389.90625 L 167.65625 389.207031 L 168.398438 388.402344 L 169.242188 386.839844 L 169.75 384.519531 L 170.875 382.136719 L 172.882813 379.613281 L 173.261719 378.699219 L 173.59375 376.929688 L 174.355469 374.953125 L 176.078125 372.152344 L 176.40625 370.800781 L 176.371094 369.292969 L 176.085938 368.183594 L 175.550781 367.117188 L 174.730469 366.097656 L 173.789063 365.339844 L 172.78125 364.824219 L 171.609375 364.496094 L 169.644531 364.296875 L 167.878906 364.453125 L 166.75 364.730469 L 165.867188 365.136719 L 163.613281 366.988281 L 162.472656 367.71875 L 160.679688 368.59375 L 159.730469 369.378906 L 158.394531 371.429688 L 158.078125 372.539063 L 157.976563 374.433594 L 157.492188 376.464844 L 156.320313 378.195313 L 155.628906 378.898438 L 154.074219 380.03125 L 153.582031 380.179688 L 152.269531 378.203125 L 152.683594 374.835938 L 153.175781 374.082031 L 152.804688 373.207031 L 150.203125 373.105469 L 145.449219 374.257813 L 143.757813 375.484375 L 142.039063 378.097656 L 140.382813 378.203125 L 139.59375 377.375 L 138.789063 375.601563 L 138.699219 374.589844 L 140.148438 373.019531 L 141.023438 372.414063 L 142.589844 371.953125 L 147.132813 367.984375 L 147.953125 364.523438 L 151.550781 360.582031 L 153.09375 359.609375 L 154.941406 359.808594 L 160.492188 357.457031 L 163.644531 357.28125 L 167.339844 357.714844 L 172.597656 355.179688 L 173.933594 355.046875 L 174.484375 355.082031 L 179.910156 359.441406 L 180.433594 358.429688 L 177.679688 353.460938 L 178.242188 352.835938 L 180.867188 352.449219 L 181.503906 352.695313 L 181.914063 353.875 L 182.898438 354.332031 L 184.078125 356.789063 L 185.613281 357.902344 L 188.359375 357.621094 L 190.335938 355.148438 L 189.90625 355.050781 L 188.667969 355.527344 L 188.3125 355.957031 L 186.378906 356.386719 L 183.8125 354.640625 L 179.976563 346.332031 L 180.25 345.839844 L 183 344.234375 L 183.589844 343.632813 L 184.207031 342.703125 L 184.703125 341.410156 L 184.886719 340.085938 L 184.820313 339.382813 L 185.429688 339.015625 L 185.140625 338.578125 L 184.691406 338.558594 L 184.308594 337.429688 L 183.789063 336.554688 L 182.707031 335.332031 L 181.90625 334.167969 L 181.488281 333.371094 L 181.601563 331.078125 L 181.949219 330.421875 L 184.695313 329.191406 L 187.28125 323.421875 L 187.71875 320.933594 L 187.855469 317.484375 L 184.742188 320.527344 L 179.199219 323.441406 L 177.335938 322.691406 L 172.851563 314.925781 L 172.289063 311.832031 L 171.972656 311.371094 L 172.480469 310.957031 L 174.105469 310.304688 L 175.851563 310.167969 L 177.558594 310.558594 L 179.957031 311.5 L 181.773438 311.640625 L 182.894531 311.433594 L 184.753906 310.632813 L 186.292969 310.203125 L 188.671875 309.886719 L 189.546875 309.550781 L 190.949219 308.585938 L 191.960938 307.363281 L 192.601563 305.910156 L 192.933594 303.535156 L 193.476563 301.769531 L 194.546875 300.261719 L 196.035156 299.164063 L 197.792969 298.59375 L 199.644531 298.601563 L 201.398438 299.191406 L 202.875 300.300781 L 203.933594 301.816406 L 204.761719 303.542969 L 205.550781 304.539063 L 206.550781 305.351563 L 207.628906 305.894531 L 208.691406 306.179688 L 210.632813 306.285156 L 211.433594 306.382813 L 214.058594 306.894531 L 215.226563 306.816406 L 216.386719 306.484375 L 217.394531 305.957031 L 218.285156 305.238281 L 219.015625 304.355469 L 219.558594 303.347656 L 219.898438 302.234375 L 220.015625 301.117188 L 219.914063 299.542969 L 219.441406 297.800781 L 219.246094 295.984375 L 219.339844 295.53125 L 218.828125 295.609375 L 217.074219 295.335938 L 215.378906 294.796875 L 213.605469 294.617188 L 212.367188 294.351563 L 210.339844 293.675781 L 207.957031 293.535156 L 206.128906 293.125 L 204.53125 292.152344 L 203.320313 290.726563 L 202.398438 289.191406 L 200.53125 286.941406 L 199.550781 286.21875 L 198.351563 285.6875 L 197.273438 285.460938 L 196.03125 285.460938 L 194.933594 285.6875 L 193.242188 286.414063 L 191.429688 286.871094 L 189.5625 286.726563 L 187.835938 285.996094 L 186.433594 284.757813 L 185.5 283.136719 L 185.128906 281.300781 L 185.355469 279.441406 L 186.164063 277.753906 L 187.363281 276.035156 L 187.882813 274.648438 L 188.035156 273.195313 L 187.8125 271.714844 L 187.308594 270.496094 L 186.203125 268.945313 L 185.246094 266.765625 L 184.804688 264.652344 L 184.144531 263.332031 L 182.949219 262.03125 L 181.539063 261.179688 L 179.925781 260.761719 L 178.375 260.804688 L 176.773438 261.316406 L 174.796875 262.644531 L 173.046875 263.4375 L 171.132813 263.617188 L 169.265625 263.160156 L 167.648438 262.121094 L 166.457031 260.613281 L 165.820313 258.800781 L 165.546875 257.191406 L 165.171875 256.191406 L 164.554688 255.1875 L 163.832031 254.398438 L 162.964844 253.753906 L 161.988281 253.277344 L 160.941406 252.996094 L 159.859375 252.910156 L 158.800781 253.027344 L 157.875 253.316406 L 155.296875 254.964844 L 154.722656 255.285156 L 152.25 256.492188 L 150.894531 257.835938 L 149.625 260.398438 L 148.625 261.824219 L 147.25 262.894531 L 145.613281 263.503906 L 143.875 263.605469 L 143.734375 263.570313 L 144.390625 261.886719 L 144.195313 260.621094 L 142.601563 256.71875 L 139.777344 254.832031 L 137.378906 252.511719 Z M 144.464844 361.933594 L 145.246094 361.070313 L 145.839844 360.019531 L 146.519531 357.234375 L 147.148438 355.679688 L 148.195313 354.371094 L 149.570313 353.414063 L 150.078125 353.246094 L 151.039063 355.578125 L 155.546875 356.503906 L 154.066406 358.859375 L 150.984375 360.816406 L 147.425781 363.976563 L 146.109375 363.875 Z M 157.515625 291.226563 L 155.796875 290.347656 L 154.457031 288.957031 L 153.652344 287.203125 L 153.460938 285.28125 L 153.914063 283.402344 L 154.953125 281.777344 L 155.613281 281.050781 L 156.921875 279.972656 L 158.484375 279.320313 L 160.167969 279.144531 L 161.828125 279.460938 L 163.332031 280.242188 L 164.542969 281.421875 L 165.484375 282.65625 L 166.003906 283.617188 L 166.582031 283.65625 L 169.390625 284.277344 L 168.226563 288.992188 L 166.234375 288.695313 L 163.3125 290.011719 L 161.832031 291.855469 L 160.589844 292.707031 L 160.171875 291.890625 L 159.117188 291.734375 Z M 174.421875 288.386719 L 174.6875 289.238281 L 174.699219 290.972656 L 174.195313 292.632813 L 172.785156 295.597656 L 171.71875 297.136719 L 170.21875 298.257813 L 169.417969 298.523438 L 174.074219 288.722656 Z M 124.992188 478.378906 L 126.691406 477.300781 L 128.660156 476.867188 L 130.65625 477.128906 L 132.445313 478.0625 L 133.917969 479.191406 L 135.292969 480.695313 L 136.066406 482.578125 L 136.132813 484.375 L 134.507813 484.320313 L 132.167969 484.859375 L 129.414063 488.195313 L 126.714844 489.746094 L 124.039063 490.597656 L 123.132813 494.289063 L 123.664063 495.292969 L 123.496094 496.125 L 123.382813 496.246094 L 121.152344 496.246094 L 120.171875 496.164063 L 117.722656 495.742188 L 117.15625 494.691406 L 115.984375 493.691406 L 112.253906 492.070313 L 111.410156 491.984375 L 110.375 492.488281 L 110.242188 494.183594 L 109.695313 494.816406 L 109.140625 494.390625 L 108.085938 492.792969 L 107.605469 490.9375 L 107.691406 489.851563 L 111.738281 488.078125 L 112.199219 488.253906 L 112.445313 488.9375 L 113.574219 489.15625 L 118.144531 485.910156 L 121.425781 483.085938 L 124.375 479.769531 Z M 105.070313 176.261719 L 104.171875 174.800781 L 103.742188 173.144531 L 103.804688 171.570313 L 104.785156 172.40625 L 105.550781 172.625 L 106.867188 171.878906 L 106.617188 168.460938 L 106.121094 166.925781 L 108.003906 165.003906 L 108.964844 165.003906 L 111.609375 168.273438 L 112.355469 170.324219 L 112.300781 173.941406 L 111.832031 177.386719 L 112.054688 181.640625 L 117.5 184.859375 L 120.773438 183.445313 L 123.167969 184.417969 L 122.46875 186.839844 L 119.148438 190.25 L 118.089844 190.683594 L 116.445313 192.902344 L 115.832031 193.3125 L 114.039063 193.8125 L 113.949219 193.804688 L 113.570313 192.609375 L 115.183594 189.4375 L 113.980469 187.324219 L 112.75 189.558594 L 110.542969 187.414063 L 107.664063 187.734375 L 107.761719 186.609375 L 108.15625 185.039063 L 108.210938 184.117188 L 107.75 181.554688 L 107.789063 181.460938 L 107.722656 181.394531 L 107.480469 180.0625 L 106.699219 178.203125 Z M 120.265625 167.457031 L 120.570313 167.496094 L 121.695313 167.417969 L 123.464844 166.921875 L 125.320313 166.714844 L 127.148438 167.109375 L 128.757813 168.058594 L 129.980469 169.472656 L 130.695313 171.203125 L 130.820313 173.066406 L 130.347656 174.875 L 129.328125 176.441406 L 128.035156 177.859375 L 128.101563 177.597656 L 126.824219 178.363281 L 120.484375 180.664063 L 119.382813 179.570313 L 118.449219 174.53125 L 119.414063 170.535156 L 120.097656 170.289063 L 120.859375 170.738281 L 121.429688 171.886719 L 123.644531 173.570313 L 124.390625 172.890625 L 127 172.59375 L 126.421875 171.808594 L 123.910156 171.675781 L 123.300781 171.917969 L 120.253906 167.773438 Z M 127.019531 179.609375 L 126.714844 181.242188 L 126.941406 183.597656 L 126.910156 184.21875 L 126.332031 183.683594 L 124.980469 183.324219 L 124.4375 181.292969 L 125.035156 181.238281 Z M 126.742188 185.621094 L 126.261719 186.933594 L 125.222656 188.308594 L 123.824219 189.320313 L 123.757813 189.34375 L 122.863281 188.511719 L 123.117188 185.351563 L 125.410156 184.53125 L 125.660156 184.984375 Z M 106.839844 236.59375 L 107 236.613281 L 106.976563 236.632813 Z M 116.304688 233.921875 L 117.753906 234.136719 L 118.867188 234.671875 L 118.015625 235.730469 L 113.761719 243.328125 L 111.886719 247.292969 L 110.550781 247.070313 L 109.476563 246.144531 L 109.292969 243.285156 L 109.585938 242.089844 L 112.5625 237.15625 Z M 120.828125 236.472656 L 121.402344 237.46875 L 120.824219 237.742188 L 119.636719 239.75 L 119.449219 238.929688 Z M 121.675781 238.503906 L 121.851563 239.28125 L 121.714844 241.019531 L 121.070313 242.636719 L 119.59375 245.148438 L 119.183594 246.921875 L 119.164063 246.890625 L 119.359375 242.367188 Z M 286.679688 439.636719 L 283.058594 438.976563 L 282.164063 437.605469 L 282.484375 436.070313 L 286.839844 437.054688 L 287.960938 438.832031 Z M 236.835938 466.113281 L 235.136719 465.644531 L 236.523438 463.683594 L 237.195313 464.164063 L 237.5 465.839844 Z M 228.117188 474.644531 L 222.296875 470.886719 L 220.207031 471.1875 L 221.476563 469.683594 L 227.316406 466.367188 L 232.550781 467.761719 L 234.171875 469.894531 L 231.242188 473.621094 L 229.960938 474.269531 Z M 116.21875 172.839844 L 115.832031 172.433594 L 115.832031 171.710938 L 116.085938 170.789063 L 116.59375 170.277344 L 116.765625 170.625 Z M 113.875 180.957031 L 113.53125 180.855469 L 113.277344 179.863281 L 113.640625 176.351563 L 114.757813 173.765625 L 115.464844 173.085938 L 116.03125 173.816406 L 115.367188 179.941406 L 114.945313 180.566406 Z M 116.207031 183.113281 L 115.0625 182.589844 L 114.59375 181.914063 L 114.695313 181.441406 L 115.34375 181.214844 L 116.664063 181.757813 L 116.886719 182.648438 Z M 103.964844 256.144531 L 102.714844 255.347656 L 104.988281 247.472656 L 102.980469 247.105469 L 101.464844 249.738281 L 99.988281 251.246094 L 99.089844 251.691406 L 98.539063 251.066406 L 99.023438 248.875 L 100.660156 243.785156 L 102.445313 243.214844 L 103.882813 243.558594 L 106.871094 241.457031 L 108.433594 240.808594 L 108.667969 241.335938 L 108.480469 243.175781 L 108.777344 246.292969 L 109.046875 247.320313 L 109.929688 248.226563 L 110.335938 251.851563 L 108.992188 253.109375 Z M 103.964844 256.144531 "/>
<path style=" stroke:none;fill-rule:nonzero;fill:rgb(80.392157%,58.431373%,4.705882%);fill-opacity:1;" d="M 142.476563 157.015625 L 142.191406 158.8125 L 141.367188 160.433594 L 140.078125 161.71875 L 138.457031 162.546875 L 136.660156 162.832031 L 134.863281 162.546875 L 133.242188 161.71875 L 131.957031 160.433594 L 131.128906 158.8125 L 130.847656 157.015625 L 130.9375 156.429688 L 131.765625 156.140625 L 134.503906 157.136719 L 136.507813 158.589844 L 137.039063 159.417969 L 137.175781 158.679688 L 135.242188 155.121094 L 133.609375 154.054688 L 132.511719 153.042969 L 133.242188 152.3125 L 134.863281 151.484375 L 136.660156 151.199219 L 138.457031 151.484375 L 140.078125 152.3125 L 141.367188 153.597656 L 142.191406 155.21875 Z M 142.476563 157.015625 "/>
<path style=" stroke:none;fill-rule:nonzero;fill:rgb(80.392157%,58.431373%,4.705882%);fill-opacity:1;" d="M 185.125 284.953125 L 184.839844 286.75 L 184.011719 288.371094 L 182.726563 289.660156 L 181.105469 290.484375 L 179.308594 290.769531 L 177.511719 290.484375 L 175.890625 289.660156 L 174.601563 288.371094 L 174.546875 288.265625 L 176.464844 286.417969 L 178.757813 285.980469 L 180.191406 286.804688 L 181.015625 286.710938 L 182.933594 286.238281 L 183.03125 285.160156 L 182.34375 284.746094 L 180.035156 285.351563 L 174.65625 284.980469 L 173.546875 284.613281 L 173.777344 283.15625 L 174.601563 281.535156 L 175.890625 280.25 L 177.511719 279.421875 L 179.308594 279.136719 L 181.105469 279.421875 L 182.726563 280.25 L 184.011719 281.535156 L 184.839844 283.15625 Z M 185.125 284.953125 "/>
<path style=" stroke:none;fill-rule:nonzero;fill:rgb(80.392157%,58.431373%,4.705882%);fill-opacity:1;" d="M 181.246094 129.875 L 180.960938 131.675781 L 180.136719 133.296875 L 178.847656 134.582031 L 177.226563 135.40625 L 175.429688 135.691406 L 173.632813 135.40625 L 172.011719 134.582031 L 170.726563 133.296875 L 169.898438 131.675781 L 169.617188 129.875 L 169.898438 128.078125 L 169.921875 128.039063 L 171.035156 127.402344 L 172.933594 127.351563 L 173.433594 127.917969 L 177.664063 128.609375 L 178 127.714844 L 177.503906 127.214844 L 177.972656 125.796875 L 179.671875 125.996094 L 180.136719 126.457031 L 180.960938 128.078125 Z M 181.246094 129.875 "/>
<path style=" stroke:none;fill-rule:nonzero;fill:rgb(80.392157%,58.431373%,4.705882%);fill-opacity:1;" d="M 189 114.371094 L 188.808594 115.582031 L 186.777344 113.90625 L 184.832031 114.03125 L 181.886719 115.097656 L 178.421875 112.621094 L 178.183594 111.53125 L 178.480469 110.949219 L 179.765625 109.664063 L 181.386719 108.839844 L 183.183594 108.554688 L 184.980469 108.839844 L 186.601563 109.664063 L 186.785156 109.847656 L 187.324219 111.371094 L 188.355469 111.867188 L 188.714844 112.570313 Z M 187.300781 118.375 L 186.601563 119.074219 L 185.433594 119.671875 L 185.203125 119.125 L 185.941406 118.488281 Z M 182.953125 120.148438 L 181.386719 119.898438 L 179.765625 119.074219 L 178.480469 117.789063 L 177.652344 116.167969 L 177.410156 114.636719 L 178.613281 114.28125 L 181.269531 116.636719 L 182.96875 119.6875 Z M 182.953125 120.148438 "/>
<path style=" stroke:none;fill-rule:nonzero;fill:rgb(80.392157%,58.431373%,4.705882%);fill-opacity:1;" d="M 165.738281 129.875 L 165.453125 131.675781 L 164.628906 133.296875 L 163.339844 134.582031 L 161.71875 135.40625 L 159.921875 135.691406 L 158.125 135.40625 L 156.503906 134.582031 L 155.21875 133.296875 L 154.390625 131.675781 L 154.1875 130.394531 L 157.023438 130.710938 L 161.488281 129.921875 L 165.714844 129.730469 Z M 165.738281 129.875 "/>
<path style=" stroke:none;fill-rule:nonzero;fill:rgb(80.392157%,58.431373%,4.705882%);fill-opacity:1;" d="M 146.355469 315.96875 L 146.070313 317.765625 L 145.242188 319.386719 L 143.957031 320.675781 L 142.335938 321.5 L 140.539063 321.785156 L 138.742188 321.5 L 138.246094 321.25 L 139.816406 316.644531 L 142.300781 315.023438 L 144.140625 311.445313 L 145.242188 312.550781 L 146.070313 314.171875 Z M 146.355469 315.96875 "/>
<path style=" stroke:none;fill-rule:nonzero;fill:rgb(80.392157%,58.431373%,4.705882%);fill-opacity:1;" d="M 142.597656 314.449219 L 143.957031 315.140625 L 145.242188 316.429688 L 146.070313 318.050781 L 146.324219 319.648438 L 145.3125 320.636719 L 141.859375 323.019531 L 139.824219 322.464844 L 137.933594 323.433594 L 137.675781 322.921875 L 139.816406 316.644531 L 142.300781 315.023438 Z M 142.597656 314.449219 "/>
<path style=" stroke:none;fill-rule:nonzero;fill:rgb(80.392157%,58.431373%,4.705882%);fill-opacity:1;" d="M 225.320313 65.828125 L 224.035156 65.625 L 223.882813 65.546875 L 224.308594 63.570313 L 223.632813 57.773438 L 221.078125 57.210938 L 222.089844 58.292969 L 222.21875 59.898438 L 220.292969 61.703125 L 220.265625 61.679688 L 220.015625 60.09375 L 220.300781 58.296875 L 221.125 56.675781 L 222.414063 55.386719 L 224.035156 54.5625 L 225.832031 54.277344 L 227.628906 54.5625 L 227.960938 54.730469 L 227.699219 56.234375 L 226.355469 57.007813 L 225.6875 56.476563 L 226.023438 58.453125 L 227.246094 61.769531 L 226.800781 62.460938 L 226.285156 62.238281 L 225.40625 63.738281 Z M 225.320313 65.828125 "/>
<path style=" stroke:none;fill-rule:nonzero;fill:rgb(80.392157%,58.431373%,4.705882%);fill-opacity:1;" d="M 85.78125 177.238281 L 84.183594 178.054688 L 82.382813 178.339844 L 81.917969 178.265625 L 82.046875 176.234375 L 83.4375 175.515625 L 85.28125 176.539063 Z M 80.15625 167.210938 L 80.585938 166.992188 L 82.382813 166.707031 L 84.183594 166.992188 L 85.804688 167.816406 L 87.089844 169.105469 L 87.914063 170.726563 L 88.003906 171.289063 L 86.902344 171.355469 L 84.875 171.125 L 84.914063 169.441406 L 82.996094 168.253906 L 81.464844 168.371094 Z M 85.394531 175.835938 L 84.546875 175.601563 L 83.046875 174.507813 L 82.722656 173.699219 L 82.824219 172.589844 L 83.972656 171.789063 L 86.566406 172.507813 L 87.433594 173.25 L 87.285156 175.226563 Z M 85.394531 175.835938 "/>
<path style=" stroke:none;fill-rule:nonzero;fill:rgb(80.392157%,58.431373%,4.705882%);fill-opacity:1;" d="M 139.320313 318.101563 L 140.539063 317.90625 L 142.335938 318.191406 L 143.957031 319.019531 L 145.242188 320.304688 L 145.378906 320.574219 L 145.3125 320.636719 L 141.859375 323.019531 L 139.824219 322.464844 L 137.933594 323.433594 L 137.675781 322.921875 Z M 139.320313 318.101563 "/>
<path style=" stroke:none;fill-rule:nonzero;fill:rgb(80.392157%,58.431373%,4.705882%);fill-opacity:1;" d="M 149.589844 310.710938 L 149.121094 311.632813 L 147.832031 312.921875 L 146.210938 313.746094 L 144.414063 314.03125 L 142.933594 313.796875 L 144.765625 310.230469 L 145.863281 309.40625 L 149.046875 308.269531 Z M 149.589844 310.710938 "/>
<path style=" stroke:none;fill-rule:nonzero;fill:rgb(80.392157%,58.431373%,4.705882%);fill-opacity:1;" d="M 189.269531 101.027344 L 189.285156 100.941406 L 189.582031 100.359375 L 189.558594 100.558594 Z M 198.269531 98.070313 L 199.519531 99.320313 L 199.601563 99.480469 L 197.464844 100.832031 L 194.695313 101.191406 L 193.226563 103.421875 L 193.136719 102.113281 L 195.332031 98.847656 L 196.15625 98.316406 Z M 198.269531 98.070313 "/>
<path style=" stroke:none;fill-rule:nonzero;fill:rgb(80.392157%,58.431373%,4.705882%);fill-opacity:1;" d="M 88.429688 500.046875 L 88.566406 499.308594 L 88.941406 499.117188 L 89.34375 499.789063 Z M 88.429688 500.046875 "/>
</g>
</svg>
