<?xml version="1.0" encoding="UTF-8"?>
<svg xmlns="http://www.w3.org/2000/svg" xmlns:xlink="http://www.w3.org/1999/xlink" width="378pt" height="504pt" viewBox="0 0 378 504" version="1.1">
<g id="data">
<rect x="0" y="0" width="378" height="504" style="fill:rgb(100%,100%,100%);fill-opacity:1;stroke:none;"/>
<path style=" stroke:none;fill-rule:nonzero;fill:rgb(100%,100%,100%);fill-opacity:1;" d="M 53.308594 504 L 324.691406 504 L 324.691406 0 L 53.308594 0 Z M 53.308594 504 "/>
<path style=" stroke:none;fill-rule:nonzero;fill:rgb(22.745098%,53.333333%,16.078431%);fill-opacity:1;" d="M 159.921875 215.167969 L 161.871094 216.835938 L 164.253906 218.082031 L 166.863281 218.746094 L 169.421875 218.804688 L 172.664063 218.046875 L 175.453125 216.480469 L 177.785156 214.105469 L 179.308594 211.292969 L 182.550781 213.34375 L 186.160156 214.21875 L 189.984375 213.878906 L 193.492188 212.316406 L 191.28125 214.984375 L 189.957031 218.179688 L 189.777344 220.082031 L 185.519531 221.085938 L 182.847656 221.226563 L 177.804688 225.21875 L 178.117188 225.714844 L 179.84375 225.195313 L 184.609375 222.886719 L 186.457031 221.386719 L 187.289063 221.316406 L 189.085938 221.875 L 189.332031 222.921875 L 188.898438 224.691406 L 189.238281 225.953125 L 190.898438 226.824219 L 191.390625 226.910156 L 192.085938 228.152344 L 193.894531 229.828125 L 192.117188 231.570313 L 189.460938 232.730469 L 188.34375 232.882813 L 187.070313 232.078125 L 185.40625 232.042969 L 181.046875 235.800781 L 180.578125 237.003906 L 174.761719 240.109375 L 170.214844 238.117188 L 166.480469 238.003906 L 166.738281 239.222656 L 168.246094 240.195313 L 178.0625 241.875 L 182.921875 243.167969 L 186.398438 241.730469 L 187.519531 239.417969 L 188.617188 238.355469 L 189.539063 238.171875 L 193.183594 238.5 L 199.339844 242.761719 L 206.425781 246.625 L 206.320313 249.0625 L 207.003906 252.789063 L 208.332031 255.519531 L 210.324219 257.816406 L 207.488281 256.644531 L 204.445313 256.257813 L 201.527344 256.644531 L 198.691406 257.816406 L 192.8125 257.652344 L 190.183594 257.902344 L 186.347656 259.179688 L 183.183594 261.691406 L 182.367188 258.207031 L 180.609375 255.238281 L 178.058594 252.914063 L 174.816406 251.402344 L 171.90625 250.949219 L 168.980469 251.242188 L 166.21875 252.261719 L 163.800781 253.9375 L 159.65625 253.121094 L 155.613281 253.792969 L 153.085938 255.054688 L 150.855469 256.988281 L 149.296875 259.191406 L 148.292969 261.691406 L 145.523438 264.042969 L 142.894531 267.304688 L 141.75 269.308594 L 140.855469 272.378906 L 140.832031 275.582031 L 141.683594 278.664063 L 143.34375 281.402344 L 145.898438 283.726563 L 149.671875 285.632813 L 152.511719 286.402344 L 155.578125 286.417969 L 157.824219 285.902344 L 159.921875 284.953125 L 164.429688 284.886719 L 167.707031 283.929688 L 169.78125 282.703125 L 173.171875 279.886719 L 175.429688 277.199219 L 175.546875 279.628906 L 176.167969 281.980469 L 177.261719 284.148438 L 178.121094 285.21875 L 174.65625 284.980469 L 172.566406 284.292969 L 169.453125 284.03125 L 168.226563 288.992188 L 166.234375 288.695313 L 163.3125 290.011719 L 161.832031 291.855469 L 159.410156 293.515625 L 156.15625 293.3125 L 155.160156 292.984375 L 149.984375 289.230469 L 149.214844 288.042969 L 149.230469 287.167969 L 148.945313 287.023438 L 148.15625 288.078125 L 147.988281 288.910156 L 148.375 290.554688 L 149.574219 292.960938 L 149.839844 295.726563 L 149.308594 296.871094 L 148.746094 297.058594 L 145.816406 295.78125 L 144.601563 294.238281 L 144.507813 293.621094 L 143.632813 292.355469 L 141.613281 291.4375 L 140.164063 290.433594 L 138.398438 288.636719 L 137.464844 288.296875 L 135.84375 289.445313 L 134.773438 287.246094 L 132.785156 284.953125 L 134.671875 282.519531 L 135.855469 279.679688 L 136.25 276.625 L 135.980469 274.742188 L 137.757813 273.035156 L 138.601563 268.871094 L 140.917969 265.085938 L 143.644531 263.800781 L 144.390625 261.886719 L 144.195313 260.621094 L 142.601563 256.71875 L 139.777344 254.832031 L 137.378906 252.511719 L 138.210938 245.972656 L 138.566406 245.59375 L 140.15625 242.113281 L 140.195313 241.757813 L 140.710938 241.59375 L 142.886719 242.511719 L 146.15625 243.175781 L 148.300781 243.253906 L 141.261719 240.453125 L 140.441406 240.5625 L 140.324219 240.511719 L 140.539063 238.429688 L 142.316406 239.90625 L 144.351563 241.003906 L 146.566406 241.675781 L 148.738281 241.894531 L 151.039063 241.683594 L 153.253906 241.015625 L 155.292969 239.929688 L 157.078125 238.457031 L 159.292969 235.320313 L 160.371094 231.632813 L 160.402344 229.191406 L 159.921875 226.800781 L 161.125 223.839844 L 161.476563 220.664063 L 161.023438 217.757813 Z M 178.730469 285.984375 L 178.78125 286.046875 L 180.769531 287.652344 L 183.183594 288.832031 L 186.347656 291.34375 L 188.574219 292.265625 L 190.9375 292.707031 L 192.644531 294.878906 L 194.816406 296.585938 L 194.816406 300.460938 L 192.800781 303.117188 L 191.597656 306.363281 L 191.351563 308.917969 L 191.671875 311.464844 L 192.847656 314.449219 L 194.789063 317 L 197.355469 318.921875 L 200.347656 320.070313 L 203.539063 320.359375 L 209.378906 319.640625 L 212.167969 318.707031 L 214.53125 317.183594 L 216.6875 314.828125 L 218.078125 312.09375 L 220.203125 310.277344 L 221.898438 307.894531 L 223.078125 304.542969 L 223.191406 300.988281 L 224.683594 303.226563 L 226.652344 305.0625 L 228.988281 306.398438 L 231.441406 307.136719 L 234.125 307.316406 L 236.777344 306.875 L 239.144531 305.894531 L 241.050781 304.542969 L 241.410156 304.710938 L 241.820313 306.824219 L 242.765625 309.039063 L 246.921875 314.261719 L 250.664063 317.242188 L 252.390625 319.148438 L 256.121094 320.875 L 256.847656 321.4375 L 256.847656 321.921875 L 254.738281 323.09375 L 253.890625 324.554688 L 253.765625 325.996094 L 254.984375 329.992188 L 256.160156 332.453125 L 256.730469 333.25 L 256.691406 333.855469 L 257.070313 336.859375 L 258.398438 340.273438 L 259.964844 342.183594 L 258.378906 342.789063 L 257.507813 342.753906 L 256.035156 341.773438 L 253.664063 338.65625 L 252.601563 338.082031 L 245.550781 339.511719 L 244.589844 338.644531 L 243.40625 338.558594 L 241.210938 339.871094 L 241.886719 340.445313 L 246.324219 340.394531 L 249.617188 339.34375 L 251.976563 339.082031 L 254.382813 342.558594 L 260.070313 347.238281 L 260.0625 347.367188 L 261.097656 352.984375 L 262.40625 356 L 264.601563 358.617188 L 265.152344 362.160156 L 266.761719 365.367188 L 267.855469 366.449219 L 264.953125 369.09375 L 261.394531 373.164063 L 260.601563 374.816406 L 262.84375 374.3125 L 264.9375 375.519531 L 266.9375 378.226563 L 270.21875 378.804688 L 270.625 378.746094 L 271.910156 376.796875 L 272.234375 374.960938 L 273.40625 371.914063 L 274.707031 370.632813 L 276.347656 370.347656 L 279.851563 370.910156 L 283.480469 370.328125 L 284.253906 370.867188 L 286.703125 370.742188 L 292.984375 371.414063 L 293.3125 371.71875 L 295.242188 372.933594 L 297.371094 373.75 L 298.398438 373.929688 L 300.621094 375.558594 L 301.199219 376.292969 L 303.371094 378 L 303.246094 380.878906 L 303.925781 384.605469 L 305.257813 387.335938 L 307.066406 389.421875 L 307.179688 391.25 L 306.777344 393.191406 L 306.890625 393.976563 L 305.789063 396.917969 L 305.117188 400.144531 L 304.503906 401 L 303.742188 403.015625 L 303.371094 405.136719 L 301.894531 406.710938 L 300.679688 408.640625 L 299.867188 410.769531 L 299.671875 411.875 L 297.144531 414.53125 L 295.578125 412.011719 L 292.742188 410.515625 L 292.480469 410.636719 L 293.898438 413.703125 L 295.816406 416.523438 L 295.617188 416.769531 L 293.355469 418.566406 L 290.914063 421.503906 L 290.003906 421.65625 L 289.660156 421.574219 L 288.214844 419.332031 L 284.976563 421.730469 L 280.71875 424.230469 L 282.339844 425.378906 L 285.105469 424.398438 L 286.097656 423.375 L 286.894531 423.164063 L 287.328125 423.710938 L 287.632813 428.84375 L 285.6875 430.875 L 283.441406 432.558594 L 282.84375 432.699219 L 279.644531 432.160156 L 274.75 433.78125 L 272.609375 436.117188 L 274.253906 436.015625 L 275.152344 434.667969 L 276.683594 434.363281 L 278.285156 434.328125 L 281.054688 434.949219 L 281.828125 435.589844 L 281.691406 436.328125 L 279.554688 436.347656 L 277.390625 437.65625 L 277.96875 438.546875 L 281.382813 438.964844 L 286.863281 440.339844 L 289.394531 439.9375 L 291.074219 438.957031 L 293.28125 438.652344 L 295.617188 440.03125 L 295.988281 442.152344 L 296.804688 444.28125 L 298.019531 446.210938 L 299.492188 447.785156 L 295.699219 448.757813 L 293.511719 450.035156 L 291.738281 451.660156 L 288.769531 452.300781 L 285.964844 453.761719 L 281.902344 457.15625 L 280.109375 459.414063 L 278.300781 460.773438 L 277.085938 462.25 L 274.789063 462.777344 L 272.597656 463.816406 L 270.539063 466.589844 L 269.761719 466.949219 L 267.261719 466.195313 L 265.421875 464.71875 L 261.855469 463.441406 L 258.847656 463.128906 L 251.835938 463.441406 L 248.269531 464.71875 L 247.804688 465.089844 L 244.628906 465.699219 L 242.703125 466.390625 L 242.113281 466.964844 L 242.085938 467.109375 L 240.582031 467.257813 L 240.140625 467.398438 L 238.210938 466.1875 L 238.632813 465.4375 L 239.46875 464.933594 L 237.714844 463.296875 L 231.496094 463.171875 L 231.378906 463.496094 L 232.574219 464.835938 L 232.214844 465.75 L 231.738281 466.042969 L 226.691406 465.496094 L 219.566406 468.449219 L 217.054688 467.824219 L 210.222656 468.96875 L 208.164063 468.875 L 207.273438 468.058594 L 206.238281 469.769531 L 209.429688 471.089844 L 209.714844 470.9375 L 210.1875 472.128906 L 209.566406 473.890625 L 206.84375 474.453125 L 204.453125 473.097656 L 204.179688 473.019531 L 203.832031 472.726563 L 200.691406 471.386719 L 197.195313 470.890625 L 190.9375 471.046875 L 188.734375 469.496094 L 186.234375 468.492188 L 184.019531 468.160156 L 183.121094 467.984375 L 182.902344 468.144531 L 180.886719 468.3125 L 178.089844 469.257813 L 177.585938 469.597656 L 176.207031 469.78125 L 174.339844 470.335938 L 168.992188 473.234375 L 168.214844 474.070313 L 167.203125 476.179688 L 162.746094 489.226563 L 160.929688 490.242188 L 158.269531 489.722656 L 157.554688 489.058594 L 156.527344 486.851563 L 154.683594 485.4375 L 153.613281 485.542969 L 152.417969 486.300781 L 151.738281 486.164063 L 148.46875 482.535156 L 142.796875 482.960938 L 141.527344 483.375 L 140.734375 484.175781 L 139.910156 484.507813 L 134.507813 484.320313 L 132.167969 484.859375 L 129.414063 488.195313 L 126.714844 489.746094 L 124.039063 490.597656 L 123.132813 494.289063 L 123.664063 495.292969 L 123.65625 495.332031 L 123.039063 495.839844 L 121.933594 497.214844 L 120.660156 497.648438 L 120.394531 498.183594 L 118.253906 498.183594 L 117.96875 497.691406 L 118.09375 496.4375 L 117.15625 494.691406 L 115.984375 493.691406 L 112.253906 492.070313 L 111.410156 491.984375 L 110.375 492.488281 L 110.242188 494.183594 L 110.007813 494.453125 L 108.527344 494.183594 L 105.644531 494.308594 L 105.441406 494.242188 L 105.628906 491.574219 L 106.074219 490.5625 L 106.886719 490.203125 L 107.890625 490.023438 L 110.125 489.125 L 111.105469 488.355469 L 111.738281 488.078125 L 112.199219 488.253906 L 112.445313 488.9375 L 113.574219 489.15625 L 118.144531 485.910156 L 121.425781 483.085938 L 124.375 479.769531 L 125.210938 477.886719 L 124.875 476.421875 L 125.640625 474.519531 L 128.386719 473.238281 L 132.105469 472.640625 L 132.679688 471.785156 L 133.257813 469.527344 L 135.859375 467.5625 L 138.636719 464.640625 L 139.128906 458.542969 L 139.796875 454.753906 L 142.492188 455.105469 L 144.269531 456.015625 L 145.761719 455.429688 L 148.429688 452.488281 L 148.105469 447.519531 L 151.105469 446.613281 L 157.421875 446.269531 L 159.910156 445.683594 L 164.597656 446.761719 L 166.046875 446.148438 L 167.527344 446.515625 L 169.484375 447.285156 L 170.039063 448.109375 L 170.757813 448.421875 L 173.15625 448.464844 L 180.570313 447.503906 L 181.109375 445.632813 L 181.210938 443.15625 L 182.519531 440.25 L 190.867188 432.195313 L 195.792969 425.3125 L 197.929688 424.472656 L 198.285156 423.78125 L 198.070313 423.238281 L 197.8125 423.082031 L 196.09375 424.355469 L 192.90625 427.300781 L 190.570313 429.988281 L 189.222656 431.449219 L 185.628906 432.957031 L 183.714844 433.246094 L 182.441406 433.0625 L 178.394531 435.230469 L 177.398438 436.808594 L 177.039063 438.671875 L 176.445313 439.273438 L 174.058594 439.917969 L 170.558594 439.851563 L 166.820313 439 L 166.347656 438.652344 L 161.371094 433.375 L 159.03125 429.199219 L 155.65625 429.589844 L 149.269531 432.308594 L 149.113281 432.746094 L 147.203125 431.632813 L 146.917969 429.308594 L 148.539063 428.378906 L 150.066406 428.890625 L 151.640625 428.421875 L 152.765625 427.832031 L 153.085938 427.097656 L 152.808594 426.597656 L 147.785156 426.460938 L 143.210938 423.710938 L 139.503906 423.714844 L 136.765625 424.277344 L 136.292969 426.515625 L 135.777344 427.203125 L 133.742188 427.917969 L 132.394531 427.265625 L 131.648438 427.453125 L 130.859375 428.140625 L 130.625 428.070313 L 127.808594 427.890625 L 126.535156 428.125 L 127.425781 426.082031 L 128.796875 425.832031 L 131.792969 424.328125 L 131.226563 422.867188 L 130.640625 424.257813 L 127.769531 424.613281 L 122.949219 424.152344 L 121.496094 423.164063 L 124.125 421.78125 L 125.167969 421.753906 L 125.464844 421.238281 L 124.929688 417.953125 L 123.328125 417.210938 L 121.445313 417.105469 L 122.0625 415.152344 L 125.933594 413.378906 L 126.539063 411.90625 L 133.074219 411.34375 L 134.871094 409.289063 L 135.753906 407.632813 L 137.585938 406.550781 L 141.359375 406.660156 L 142.21875 406.390625 L 149.359375 401.828125 L 152.136719 398.207031 L 153.054688 396.195313 L 154.199219 391.746094 L 153.734375 388.820313 L 152.566406 386.542969 L 153.179688 384.597656 L 154.652344 381.796875 L 152.269531 378.203125 L 152.683594 374.835938 L 153.175781 374.082031 L 152.804688 373.207031 L 150.203125 373.105469 L 145.449219 374.257813 L 143.757813 375.484375 L 142.039063 378.097656 L 141.960938 378.101563 L 139.039063 377.84375 L 136.660156 378 L 136.660156 377.304688 L 137.339844 376.066406 L 140.148438 373.019531 L 141.023438 372.414063 L 142.589844 371.953125 L 147.132813 367.984375 L 147.953125 364.523438 L 151.550781 360.582031 L 153.09375 359.609375 L 154.941406 359.808594 L 160.492188 357.457031 L 163.644531 357.28125 L 167.339844 357.714844 L 170.566406 356.15625 L 172.386719 355.871094 L 174.285156 355.070313 L 174.484375 355.082031 L 179.910156 359.441406 L 180.433594 358.429688 L 177.679688 353.460938 L 178.242188 352.835938 L 180.867188 352.449219 L 181.503906 352.695313 L 181.914063 353.875 L 182.898438 354.332031 L 184.078125 356.789063 L 185.613281 357.902344 L 188.359375 357.621094 L 190.335938 355.148438 L 189.90625 355.050781 L 188.667969 355.527344 L 188.3125 355.957031 L 186.378906 356.386719 L 183.8125 354.640625 L 181.078125 348.722656 L 181.632813 348.027344 L 182.585938 345.957031 L 183.097656 343.863281 L 183.347656 341.230469 L 183.324219 340.339844 L 183.371094 340.257813 L 185.429688 339.015625 L 185.140625 338.578125 L 183.28125 338.492188 L 183.171875 333.816406 L 182.804688 331.671875 L 182.273438 330.277344 L 184.695313 329.191406 L 187.28125 323.421875 L 187.71875 320.933594 L 187.855469 317.484375 L 184.742188 320.527344 L 179.199219 323.441406 L 177.335938 322.691406 L 172.851563 314.925781 L 172.289063 311.832031 L 167.40625 304.652344 L 169.164063 299.058594 L 174.074219 288.722656 L 176.464844 286.417969 Z M 225.832031 405.136719 L 224.398438 407.105469 L 223.410156 409.328125 L 222.902344 411.707031 L 222.902344 414.140625 L 223.410156 416.523438 L 224.398438 418.746094 L 225.828125 420.710938 L 227.640625 422.339844 L 229.511719 423.449219 L 231.5625 424.1875 L 235.9375 425.085938 L 238.605469 425.132813 L 240.976563 424.644531 L 243.3125 423.613281 L 245.277344 422.179688 L 246.902344 420.371094 L 248.261719 417.910156 L 248.996094 415.195313 L 249.253906 411.015625 L 249.09375 405.136719 L 249.769531 402.660156 L 249.886719 400.09375 L 249.472656 397.6875 L 248.503906 395.308594 L 247.039063 393.199219 L 245.144531 391.464844 L 242.078125 389.859375 L 239.617188 389.097656 L 237.453125 388.820313 L 233.640625 389.324219 L 230.308594 390.96875 L 227.664063 393.578125 L 225.976563 396.890625 L 225.167969 401.007813 Z M 232.859375 471.5625 L 231.871094 472.320313 L 230.464844 474.011719 L 229.960938 474.269531 L 229.160156 474.433594 L 227.726563 473.148438 L 225.398438 471.867188 L 223.085938 471.195313 L 222.703125 471.148438 L 222.296875 470.886719 L 221.5 471 L 220.46875 470.875 L 221.476563 469.683594 L 227.316406 466.367188 L 232.550781 467.761719 L 234.171875 469.894531 Z M 140.539063 357.78125 L 140.539063 355.167969 L 140.597656 355.164063 L 141.484375 356.3125 L 142.226563 358.1875 L 141.734375 358.875 L 141.003906 358.070313 Z M 142.203125 353.429688 L 142.707031 353.03125 L 143.882813 351.535156 L 144.664063 351.183594 L 146.003906 350.957031 L 149.566406 352.007813 L 151.039063 355.578125 L 155.546875 356.503906 L 154.066406 358.859375 L 150.984375 360.816406 L 147.425781 363.976563 L 146.109375 363.875 L 144.195313 361.613281 L 142.050781 357.363281 Z M 149.746094 311.410156 L 149.160156 312.367188 L 148.203125 316.589844 L 148.226563 317.394531 L 147.847656 318.148438 L 145.464844 320.492188 L 144.039063 321.035156 L 142.109375 322.25 L 141.417969 322.898438 L 139.824219 322.464844 L 137.933594 323.433594 L 137.675781 322.921875 L 139.625 317.210938 L 140.332031 316.308594 L 142.300781 315.023438 L 144.765625 310.230469 L 145.863281 309.40625 L 149.046875 308.269531 Z M 136.769531 296.644531 L 136.660156 296.585938 L 136.675781 296.242188 L 136.734375 296.308594 Z M 121.742188 265.449219 L 121.152344 265.570313 L 120.746094 263.324219 L 119.964844 261.316406 L 118.75 259.386719 L 117.746094 258.316406 L 117.800781 257.847656 L 119.65625 257.96875 L 122.582031 257.710938 L 121.183594 263.964844 Z M 125.59375 257.113281 L 126.988281 256.617188 L 129.238281 255.152344 L 131.292969 252.933594 L 131.390625 253.015625 L 132.984375 258.382813 L 133.019531 262.765625 L 132.308594 263.453125 L 130.613281 263.773438 L 129.152344 263.667969 L 126.582031 261.613281 Z M 133.386719 249.734375 L 135.273438 248.710938 L 135.339844 249.003906 L 135.222656 250.96875 L 134.8125 251.347656 Z M 214.199219 284.953125 L 216.464844 282.222656 L 217.800781 278.941406 L 217.890625 281.625 L 218.644531 284.332031 L 220.023438 286.785156 L 221.953125 288.832031 L 221.289063 292.835938 L 222.007813 297.109375 L 220.367188 294.703125 L 218.078125 292.707031 L 217.703125 290.585938 L 216.886719 288.457031 L 215.671875 286.527344 Z M 173.152344 168.644531 L 179.308594 168.644531 L 182.144531 169.816406 L 185.058594 170.203125 L 188.101563 169.816406 L 190.9375 168.644531 L 193.195313 170.613281 L 195.765625 171.898438 L 193.257813 171.960938 L 190.9375 172.523438 L 188.714844 171.976563 L 186.425781 171.875 L 183.183594 172.523438 L 180.832031 171.957031 L 178.417969 171.890625 L 175.914063 172.363281 L 172.71875 173.648438 L 169.585938 176.257813 L 167.550781 179.789063 L 166.859375 183.808594 L 167.59375 187.816406 L 166.464844 185.65625 L 164.90625 183.78125 L 162.992188 182.269531 L 160.808594 181.191406 L 157.421875 180.488281 L 154.101563 180.785156 L 150.894531 182.074219 L 148.292969 184.152344 L 147.015625 181.683594 L 145.183594 179.585938 L 147.34375 176.320313 L 148.292969 172.523438 L 150.414063 172.148438 L 152.148438 171.484375 L 151.949219 171.945313 L 152.140625 172.144531 L 154.472656 170.121094 L 154.472656 170.117188 L 154.484375 170.109375 L 156.117188 168.691406 L 159.648438 170.84375 L 159.707031 170.851563 L 157.109375 173.804688 L 156.367188 175.339844 L 156.707031 175.816406 L 157.367188 175.984375 L 158.261719 175.542969 L 161.140625 173.015625 L 165.191406 171.351563 L 167.949219 170.84375 L 169.789063 169.722656 L 170.480469 169.527344 L 170.492188 169.949219 L 171.554688 169.839844 Z M 106.46875 168 L 107.816406 166.9375 L 109.152344 165.238281 L 111.609375 168.273438 L 112.355469 170.324219 L 112.335938 171.472656 L 110.515625 170.136719 L 108.164063 169.121094 L 106.644531 168.835938 L 106.617188 168.460938 Z M 120.414063 163.46875 L 121.65625 162.542969 L 123.121094 160.925781 L 123.796875 159.816406 L 124.035156 161.566406 L 124.589844 162.085938 L 123.664063 164.605469 L 123.621094 168.558594 L 124.589844 171.710938 L 123.910156 171.675781 L 123.300781 171.917969 L 120.253906 167.773438 Z M 124.714844 157.855469 L 125.03125 157.015625 L 125.03125 158.769531 L 125.019531 158.757813 Z M 124.933594 172.828125 L 126.003906 176.316406 L 127.09375 178.203125 L 126.824219 178.363281 L 120.484375 180.664063 L 119.382813 179.570313 L 118.449219 174.53125 L 119.414063 170.535156 L 120.097656 170.289063 L 120.859375 170.738281 L 121.429688 171.886719 L 123.644531 173.570313 L 124.390625 172.890625 Z M 127.746094 178.992188 L 128.90625 180.277344 L 126.300781 180.796875 L 124.523438 181.601563 L 124.4375 181.292969 L 125.035156 181.238281 L 127.738281 179.023438 Z M 121.640625 183.796875 L 118.546875 186.429688 L 117.171875 188.445313 L 116.246094 190.703125 L 115.804688 193.230469 L 115.816406 193.515625 L 114.023438 194.042969 L 113.570313 192.609375 L 115.183594 189.4375 L 113.980469 187.324219 L 112.75 189.558594 L 112.320313 189.136719 L 113.816406 187.542969 L 115.019531 185.726563 L 115.804688 183.855469 L 117.5 184.859375 L 120.773438 183.445313 Z M 116.644531 198.324219 L 117.578125 200.308594 L 116.804688 200.417969 L 115.804688 199.949219 Z M 118.695313 202.339844 L 119.707031 203.695313 L 121.636719 205.371094 L 123.773438 206.539063 L 126.101563 207.234375 L 130.53125 207.574219 L 131.15625 207.53125 L 123.476563 215.398438 L 120.675781 217.269531 L 120.230469 216.390625 L 115.878906 214.433594 L 114.8125 213.664063 L 113.113281 211.414063 L 113.132813 210.632813 L 113.96875 210.082031 L 116.167969 209.980469 L 120.585938 209.09375 L 123.988281 209.15625 L 124.257813 209.050781 L 124.117188 208.789063 L 119.15625 207.757813 L 117.03125 209.015625 L 115.34375 209.1875 L 108.898438 208.554688 L 108.144531 207.871094 L 107.96875 206.789063 L 109.109375 205.527344 L 114.792969 204.496094 L 115.882813 205.636719 L 117.070313 206.34375 L 118.480469 204.378906 L 117.316406 203.507813 L 117.253906 202.640625 Z M 132.265625 207.453125 L 132.785156 207.414063 L 131.285156 208.667969 Z M 128.558594 212.59375 L 128.226563 213.292969 L 127.941406 214.515625 L 127.875 213.785156 Z M 127.644531 217.183594 L 127.625 218.097656 L 127.6875 218.410156 L 127.28125 218.265625 Z M 128.027344 220.191406 L 128.085938 220.488281 L 129.09375 222.84375 L 130.511719 224.824219 L 127.527344 223.40625 L 123.820313 222.628906 L 124.160156 221.96875 L 126.660156 220.210938 Z M 120.089844 222.394531 L 119.066406 222.4375 L 116.09375 223.410156 L 116.136719 223.339844 L 115.425781 223.117188 L 112.109375 224.96875 L 106.027344 226.585938 L 104.691406 226.273438 L 103.734375 224.277344 L 103.851563 223.371094 L 104.191406 223.09375 L 105.628906 223.050781 L 106.039063 223.617188 L 106.972656 224.074219 L 112.214844 222.164063 L 112.035156 221.589844 L 109.863281 222.445313 L 108.199219 222.488281 L 107.824219 221.539063 L 109.386719 219.472656 L 112.601563 217.957031 L 112.90625 216.820313 L 112.554688 216.699219 L 109.90625 217.519531 L 105.058594 214.074219 L 105.636719 211.667969 L 108.914063 210.140625 L 110.03125 209.789063 L 110.59375 209.929688 L 111.976563 210.636719 L 113.289063 212.988281 L 113.785156 214.699219 L 116.457031 215.945313 L 117.929688 216.300781 L 121.195313 219.144531 L 120.902344 221.207031 Z M 107.871094 235.324219 L 107.464844 235.511719 L 106.242188 236.417969 L 105.601563 236.230469 L 105.632813 235.851563 L 106.28125 234.464844 L 107.839844 232.910156 L 108.882813 232.734375 Z M 102.910156 224.046875 L 102.398438 223.542969 L 102.589844 223.230469 L 103.304688 222.808594 L 103.460938 223.023438 Z M 97.074219 213.117188 L 97.890625 211.292969 L 99.964844 210.273438 L 101.792969 208.867188 L 102.628906 207.90625 L 102.652344 208.195313 L 101.386719 210.445313 L 99.425781 212.117188 Z M 103.976563 194.726563 L 103.613281 194.261719 L 105.34375 192.390625 L 106.722656 192.214844 L 107.992188 192.835938 L 108.445313 193.703125 L 108.09375 196.351563 L 107.546875 197.015625 L 106.597656 197.398438 L 105.582031 196.804688 Z M 101.863281 192.027344 L 101.769531 191.90625 L 102.175781 191.964844 Z M 115.992188 183.015625 L 116.265625 181.59375 L 116.664063 181.757813 L 116.886719 182.648438 L 116.207031 183.113281 Z M 115.734375 176.5625 L 115.558594 175.921875 L 114.601563 174.128906 L 114.757813 173.765625 L 115.464844 173.085938 L 116.03125 173.816406 Z M 100.273438 244.988281 L 101.878906 243.796875 L 101.769531 246.183594 L 99.886719 246.183594 Z M 286.679688 439.636719 L 283.058594 438.976563 L 282.164063 437.605469 L 282.484375 436.070313 L 286.839844 437.054688 L 287.960938 438.832031 Z M 236.835938 466.113281 L 235.136719 465.644531 L 236.523438 463.683594 L 237.195313 464.164063 L 237.5 465.839844 Z M 88.429688 500.046875 L 88.566406 499.308594 L 88.941406 499.117188 L 89.34375 499.789063 Z M 116.21875 172.839844 L 115.832031 172.433594 L 115.832031 171.710938 L 116.085938 170.789063 L 116.59375 170.277344 L 116.765625 170.625 Z M 110.160156 200.433594 L 108.972656 199.578125 L 108.9375 198.890625 L 110.578125 197.179688 L 111.398438 197.769531 L 111.5 198.265625 L 111.128906 199.855469 Z M 108.136719 218.074219 L 107.207031 217.691406 L 106.753906 217.160156 L 107.335938 216.378906 L 108.085938 216.507813 L 109.105469 217.519531 L 109.070313 217.820313 Z M 123.378906 222.417969 L 122.582031 222.078125 L 123.082031 221.191406 L 124.476563 221.046875 Z M 123.378906 222.417969 "/>
<path style=" stroke:none;fill-rule:nonzero;fill:rgb(80.392157%,58.431373%,4.705882%);fill-opacity:1;" d="M 157.984375 203.539063 L 157.699219 205.335938 L 156.875 206.957031 L 155.585938 208.242188 L 153.964844 209.070313 L 152.167969 209.355469 L 150.371094 209.070313 L 148.75 208.242188 L 147.464844 206.957031 L 146.636719 205.335938 L 146.355469 203.539063 L 146.636719 201.742188 L 147.464844 200.121094 L 148.75 198.832031 L 150.371094 198.007813 L 152.167969 197.722656 L 153.964844 198.007813 L 155.585938 198.832031 L 156.875 200.121094 L 157.699219 201.742188 Z M 157.984375 203.539063 "/>
<path style=" stroke:none;fill-rule:nonzero;fill:rgb(80.392157%,58.431373%,4.705882%);fill-opacity:1;" d="M 203.359375 203.117188 L 202.109375 204.367188 L 200.488281 205.191406 L 198.691406 205.476563 L 196.894531 205.191406 L 195.273438 204.367188 L 193.988281 203.078125 L 193.160156 201.457031 L 192.875 199.660156 L 193.160156 197.863281 L 193.988281 196.242188 L 195.273438 194.957031 L 196.894531 194.128906 L 198.691406 193.847656 L 200.488281 194.128906 L 202.109375 194.957031 L 203.398438 196.242188 L 204.28125 198.242188 L 203.765625 200.121094 L 204.023438 201.304688 Z M 203.359375 203.117188 "/>
<path style=" stroke:none;fill-rule:nonzero;fill:rgb(80.392157%,58.431373%,4.705882%);fill-opacity:1;" d="M 219.859375 274.980469 L 218.078125 275.261719 L 216.28125 274.976563 L 214.660156 274.152344 L 213.371094 272.863281 L 212.546875 271.242188 L 212.261719 269.445313 L 212.546875 267.648438 L 213.371094 266.027344 L 214.660156 264.742188 L 216.28125 263.914063 L 218.726563 263.734375 L 218.894531 265.933594 L 218.261719 267.402344 Z M 219.859375 274.980469 "/>
<path style=" stroke:none;fill-rule:nonzero;fill:rgb(80.392157%,58.431373%,4.705882%);fill-opacity:1;" d="M 184.234375 135.527344 L 183.183594 135.691406 L 181.386719 135.40625 L 179.765625 134.582031 L 178.480469 133.296875 L 177.652344 131.675781 L 177.371094 129.875 L 177.894531 127.609375 L 179.019531 125.917969 L 185.5625 126.683594 L 184.539063 134.8125 Z M 184.234375 135.527344 "/>
<path style=" stroke:none;fill-rule:nonzero;fill:rgb(80.392157%,58.431373%,4.705882%);fill-opacity:1;" d="M 107.585938 137.628906 L 107.300781 139.429688 L 106.472656 141.050781 L 105.1875 142.335938 L 103.566406 143.160156 L 101.769531 143.445313 L 99.972656 143.160156 L 98.53125 142.429688 L 98.964844 142.257813 L 100.179688 142.804688 L 100.34375 142.296875 L 99.09375 139.5 L 98.9375 138.609375 L 99.460938 137.6875 L 102.429688 135.863281 L 102.902344 135.917969 L 103 136.214844 L 105.253906 135.441406 L 106.5625 134.386719 L 107.300781 135.832031 Z M 97.832031 141.816406 L 97.417969 141.402344 L 97.21875 139.679688 L 98.019531 139.84375 L 99.277344 141.320313 L 99.230469 141.953125 Z M 97.832031 141.816406 "/>
<path style=" stroke:none;fill-rule:nonzero;fill:rgb(80.392157%,58.431373%,4.705882%);fill-opacity:1;" d="M 175.050781 145.375 L 173.777344 143.304688 L 173.492188 141.507813 L 173.777344 139.710938 L 174.601563 138.089844 L 175.890625 136.804688 L 177.511719 135.976563 L 179.308594 135.691406 L 181.105469 135.976563 L 182.726563 136.804688 L 183.398438 137.476563 L 180.960938 141.226563 L 177.402344 142.480469 L 176.097656 143.761719 Z M 175.050781 145.375 "/>
<path style=" stroke:none;fill-rule:nonzero;fill:rgb(80.392157%,58.431373%,4.705882%);fill-opacity:1;" d="M 161.855469 129.902344 L 161.578125 131.675781 L 160.75 133.296875 L 159.464844 134.582031 L 157.84375 135.40625 L 156.046875 135.691406 L 154.25 135.40625 L 152.628906 134.582031 L 151.339844 133.296875 L 150.515625 131.675781 L 150.230469 129.875 L 150.597656 128.644531 L 152.578125 129.367188 L 153.359375 129.816406 L 153.609375 130.328125 L 157.023438 130.710938 Z M 161.855469 129.902344 "/>
<path style=" stroke:none;fill-rule:nonzero;fill:rgb(80.392157%,58.431373%,4.705882%);fill-opacity:1;" d="M 165.738281 129.875 L 165.453125 131.675781 L 164.628906 133.296875 L 163.339844 134.582031 L 161.71875 135.40625 L 159.921875 135.691406 L 158.125 135.40625 L 156.503906 134.582031 L 155.21875 133.296875 L 154.390625 131.675781 L 154.1875 130.394531 L 157.023438 130.710938 L 161.488281 129.921875 Z M 165.738281 129.875 "/>
<path style=" stroke:none;fill-rule:nonzero;fill:rgb(80.392157%,58.431373%,4.705882%);fill-opacity:1;" d="M 185.980469 120.976563 L 186.601563 121.296875 L 187.910156 122.796875 L 187.335938 122.957031 L 186.4375 122.070313 Z M 184.953125 131.535156 L 183.183594 131.816406 L 181.386719 131.53125 L 179.765625 130.703125 L 178.480469 129.417969 L 177.835938 128.152344 L 178 127.714844 L 177.542969 127.097656 L 177.972656 125.796875 L 185.5625 126.683594 Z M 180.609375 120.867188 L 182.949219 120.222656 L 182.941406 120.441406 Z M 180.609375 120.867188 "/>
<path style=" stroke:none;fill-rule:nonzero;fill:rgb(80.392157%,58.431373%,4.705882%);fill-opacity:1;" d="M 92.757813 213.933594 L 94.03125 214.816406 L 92.019531 216.296875 L 91.515625 217.839844 L 89.652344 217.246094 L 89.414063 215.113281 L 90.1875 214.519531 Z M 92.757813 213.933594 "/>
<path style=" stroke:none;fill-rule:nonzero;fill:rgb(80.392157%,58.431373%,4.705882%);fill-opacity:1;" d="M 136.210938 448.453125 L 135.929688 448.140625 L 136.109375 446.949219 L 136.398438 446.875 L 136.6875 448.207031 Z M 136.210938 448.453125 "/>
</g>
</svg>
