<?xml version="1.0" encoding="UTF-8"?>
<svg xmlns="http://www.w3.org/2000/svg" xmlns:xlink="http://www.w3.org/1999/xlink" width="378pt" height="504pt" viewBox="0 0 378 504" version="1.1">
<g id="data">
<rect x="0" y="0" width="378" height="504" style="fill:rgb(100%,100%,100%);fill-opacity:1;stroke:none;"/>
<path style=" stroke:none;fill-rule:nonzero;fill:rgb(100%,100%,100%);fill-opacity:1;" d="M 53.308594 504 L 324.691406 504 L 324.691406 0 L 53.308594 0 Z M 53.308594 504 "/>
<path style=" stroke:none;fill-rule:nonzero;fill:rgb(22.745098%,53.333333%,16.078431%);fill-opacity:1;" d="M 106.46875 168 L 107.816406 166.9375 L 109.152344 165.238281 L 111.609375 168.273438 L 112.355469 170.324219 L 112.300781 173.941406 L 111.886719 176.992188 L 111.632813 175.871094 L 110.617188 173.945313 L 108.578125 171.191406 L 106.695313 169.558594 L 106.617188 168.460938 Z M 120.414063 163.472656 L 121.558594 162.628906 L 123.042969 161.027344 L 123.796875 159.808594 L 124.035156 161.566406 L 125.066406 162.535156 L 125.355469 162.453125 L 126.003906 159.773438 L 125.019531 158.757813 L 124.714844 157.855469 L 125.03125 157.015625 L 127.511719 157.457031 L 128.898438 158.675781 L 129.332031 157.589844 L 132.785156 157.015625 L 134.050781 157.160156 L 130.765625 158.234375 L 127.945313 160.226563 L 125.832031 162.960938 L 124.644531 166.070313 L 124.414063 169.773438 L 124.820313 171.722656 L 123.910156 171.675781 L 123.300781 171.917969 L 120.253906 167.773438 Z M 125.046875 172.816406 L 125.472656 174.890625 L 126.847656 177.875 L 127.117188 178.1875 L 126.824219 178.363281 L 120.484375 180.664063 L 119.382813 179.570313 L 118.449219 174.53125 L 119.414063 170.535156 L 120.097656 170.289063 L 120.859375 170.738281 L 121.429688 171.886719 L 123.644531 173.570313 L 124.390625 172.890625 Z M 127.757813 178.9375 L 128.90625 180.277344 L 126.542969 180.71875 L 124.511719 181.5625 L 124.4375 181.292969 L 125.035156 181.238281 L 127.738281 179.023438 Z M 121.597656 183.78125 L 119.527344 185.410156 L 117.171875 188.445313 L 115.914063 192.207031 L 115.882813 193.496094 L 114.023438 194.042969 L 113.570313 192.609375 L 115.183594 189.4375 L 113.980469 187.324219 L 112.75 189.558594 L 110.542969 187.414063 L 109.921875 187.484375 L 110.476563 186.890625 L 111.984375 183.785156 L 112.242188 181.753906 L 117.5 184.859375 L 120.773438 183.445313 Z M 116.652344 198.3125 L 117.589844 200.308594 L 116.804688 200.417969 L 115.804688 199.949219 Z M 118.714844 202.335938 L 120.433594 204.417969 L 122.730469 206.042969 L 125.472656 207.097656 L 130.28125 207.5625 L 131.171875 207.511719 L 123.476563 215.398438 L 120.675781 217.269531 L 120.230469 216.390625 L 115.878906 214.433594 L 114.8125 213.664063 L 113.113281 211.414063 L 113.132813 210.632813 L 113.96875 210.082031 L 116.167969 209.980469 L 120.585938 209.09375 L 123.988281 209.15625 L 124.257813 209.050781 L 124.117188 208.789063 L 119.15625 207.757813 L 117.03125 209.015625 L 115.34375 209.1875 L 108.898438 208.554688 L 108.144531 207.871094 L 107.96875 206.789063 L 109.109375 205.527344 L 114.792969 204.496094 L 115.882813 205.636719 L 117.070313 206.34375 L 118.480469 204.378906 L 117.316406 203.507813 L 117.253906 202.640625 Z M 132.269531 207.445313 L 132.785156 207.414063 L 131.207031 208.761719 Z M 128.636719 212.457031 L 127.957031 214.179688 L 127.929688 214.394531 L 127.875 213.785156 Z M 127.605469 217.292969 L 127.753906 218.4375 L 127.28125 218.265625 Z M 128.019531 220.191406 L 128.996094 222.664063 L 130.636719 224.964844 L 132.785156 226.800781 L 130.363281 225.957031 L 127.945313 225.664063 L 125.519531 225.882813 L 123.195313 226.601563 L 122.125 227.199219 L 122.761719 224.691406 L 124.160156 221.96875 L 126.660156 220.210938 Z M 121.476563 227.5625 L 121.070313 227.789063 L 120.730469 228.085938 L 120.976563 227.386719 Z M 116.773438 233.550781 L 116.71875 233.679688 L 116.152344 236.828125 L 116.335938 238.726563 L 113.761719 243.328125 L 111.886719 247.292969 L 110.550781 247.070313 L 109.476563 246.144531 L 109.292969 243.285156 L 109.585938 242.089844 L 112.5625 237.15625 L 116.605469 233.660156 Z M 119.199219 246.023438 L 120.011719 247.203125 L 121.648438 248.648438 L 123.644531 249.820313 L 125.476563 250.460938 L 124.449219 251.558594 L 123.367188 254.191406 L 121.183594 263.964844 L 121.898438 265.859375 L 121.152344 265.570313 L 120.671875 263.082031 L 119.726563 260.867188 L 117.738281 258.390625 L 117.992188 256.269531 L 120.664063 249.058594 L 119.164063 246.890625 Z M 133.414063 249.765625 L 134.3125 249.398438 L 135.285156 248.761719 L 135.339844 249.003906 L 135.222656 250.96875 L 134.8125 251.347656 Z M 138.203125 246.027344 L 139.039063 244.832031 L 139.933594 242.847656 L 140.195313 241.757813 L 140.710938 241.59375 L 142.886719 242.511719 L 146.15625 243.175781 L 148.300781 243.253906 L 141.261719 240.453125 L 140.441406 240.5625 L 140.4375 240.5625 L 140.339844 235.53125 L 140.140625 234.867188 L 140.238281 234.648438 L 140.085938 234.695313 L 139.683594 233.351563 L 138.617188 231.34375 L 141.367188 231.949219 L 144.308594 231.855469 L 147.132813 231.03125 L 149.554688 229.597656 L 152.167969 226.800781 L 155.320313 225.109375 L 157.730469 222.648438 L 159.472656 219.097656 L 159.921875 215.167969 L 161.976563 216.90625 L 164.253906 218.082031 L 166.863281 218.746094 L 169.421875 218.804688 L 172.664063 218.046875 L 175.453125 216.480469 L 177.785156 214.105469 L 179.308594 211.292969 L 182.550781 213.34375 L 186.289063 214.226563 L 190.109375 213.847656 L 193.492188 212.316406 L 191.347656 214.871094 L 189.988281 218.058594 L 189.773438 220.082031 L 185.519531 221.085938 L 182.847656 221.226563 L 177.804688 225.21875 L 178.117188 225.714844 L 179.84375 225.195313 L 184.609375 222.886719 L 186.457031 221.386719 L 187.289063 221.316406 L 189.085938 221.875 L 189.332031 222.921875 L 188.898438 224.691406 L 189.238281 225.953125 L 190.898438 226.824219 L 191.402344 226.914063 L 192.085938 228.152344 L 193.894531 229.828125 L 192.117188 231.570313 L 189.460938 232.730469 L 188.34375 232.882813 L 187.070313 232.078125 L 185.40625 232.042969 L 181.046875 235.800781 L 180.578125 237.003906 L 174.761719 240.109375 L 170.214844 238.117188 L 166.480469 238.003906 L 166.738281 239.222656 L 168.246094 240.195313 L 178.0625 241.875 L 182.921875 243.167969 L 186.398438 241.730469 L 187.519531 239.417969 L 188.617188 238.355469 L 189.539063 238.171875 L 193.183594 238.5 L 199.339844 242.761719 L 206.488281 246.65625 L 206.488281 246.660156 L 206.761719 249.617188 L 208.074219 252.808594 L 210.648438 255.808594 L 214.199219 257.816406 L 214.609375 260.058594 L 215.390625 262.066406 L 216.605469 263.996094 L 218.078125 265.570313 L 218.078125 269.445313 L 217.414063 273.066406 L 218.078125 277.199219 L 217.785156 280.625 L 218.261719 283.261719 L 219.394531 285.832031 L 223.398438 290.730469 L 225.539063 292.472656 L 225.945313 294.183594 L 229.304688 299.0625 L 234.855469 301.652344 L 235.15625 301.933594 L 236.972656 303.09375 L 239.09375 303.929688 L 240.148438 304.121094 L 241.414063 304.710938 L 241.855469 306.945313 L 242.890625 309.257813 L 247.285156 314.609375 L 250.664063 317.242188 L 252.390625 319.148438 L 256.121094 320.875 L 256.847656 321.4375 L 256.847656 321.921875 L 254.738281 323.09375 L 253.890625 324.554688 L 253.765625 325.996094 L 254.984375 329.992188 L 256.160156 332.453125 L 256.730469 333.25 L 256.691406 333.855469 L 257.070313 336.859375 L 258.398438 340.273438 L 259.964844 342.183594 L 258.378906 342.789063 L 257.507813 342.753906 L 256.035156 341.773438 L 253.664063 338.65625 L 252.601563 338.082031 L 245.550781 339.511719 L 244.589844 338.644531 L 243.40625 338.558594 L 241.210938 339.871094 L 241.886719 340.445313 L 246.324219 340.394531 L 249.617188 339.34375 L 251.976563 339.082031 L 254.382813 342.558594 L 260.535156 347.621094 L 260.609375 347.664063 L 260.570313 349.363281 L 261.0625 352.859375 L 262.40625 356 L 264.601563 358.617188 L 265.078125 361.914063 L 266.542969 365.050781 L 267.761719 366.539063 L 264.953125 369.09375 L 261.394531 373.164063 L 260.601563 374.816406 L 262.84375 374.3125 L 264.9375 375.519531 L 266.9375 378.226563 L 270.21875 378.804688 L 270.625 378.746094 L 271.910156 376.796875 L 272.234375 374.960938 L 273.40625 371.914063 L 274.707031 370.632813 L 276.242188 370.363281 L 279.980469 370.910156 L 283.484375 370.328125 L 284.253906 370.867188 L 286.703125 370.742188 L 293.949219 371.515625 L 296.914063 372.84375 L 300.75 375.652344 L 301.5625 376.640625 L 303.371094 378 L 303.246094 380.878906 L 303.925781 384.605469 L 305.257813 387.335938 L 307.066406 389.421875 L 307.179688 391.25 L 306.777344 393.191406 L 306.890625 393.976563 L 305.789063 396.917969 L 305.164063 399.925781 L 304.558594 400.886719 L 303.742188 403.015625 L 303.371094 405.136719 L 301.59375 407.117188 L 300.363281 409.332031 L 299.765625 411.777344 L 297.144531 414.53125 L 295.578125 412.011719 L 292.742188 410.515625 L 292.480469 410.636719 L 293.898438 413.703125 L 295.816406 416.523438 L 295.617188 416.769531 L 293.355469 418.566406 L 290.9375 421.5 L 290.003906 421.65625 L 289.660156 421.574219 L 288.214844 419.332031 L 284.976563 421.730469 L 280.71875 424.230469 L 282.339844 425.378906 L 285.105469 424.398438 L 286.097656 423.375 L 286.894531 423.164063 L 287.328125 423.710938 L 287.632813 428.84375 L 285.6875 430.875 L 283.441406 432.558594 L 282.84375 432.699219 L 279.644531 432.160156 L 274.75 433.78125 L 272.609375 436.117188 L 274.253906 436.015625 L 275.152344 434.667969 L 276.683594 434.363281 L 278.285156 434.328125 L 281.054688 434.949219 L 281.828125 435.589844 L 281.691406 436.328125 L 279.554688 436.347656 L 277.390625 437.65625 L 277.96875 438.546875 L 281.382813 438.964844 L 286.863281 440.339844 L 289.394531 439.9375 L 291.074219 438.957031 L 293.132813 438.671875 L 295.617188 440.03125 L 297.320313 442.199219 L 299.492188 443.90625 L 299.492188 447.785156 L 297.320313 449.492188 L 296.707031 450.273438 L 295.839844 450.375 L 292.828125 451.558594 L 290.234375 451.886719 L 287.945313 452.632813 L 285.964844 453.761719 L 281.902344 457.15625 L 280.109375 459.414063 L 278.300781 460.773438 L 277.085938 462.25 L 274.789063 462.777344 L 272.597656 463.816406 L 270.539063 466.589844 L 269.761719 466.949219 L 267.261719 466.195313 L 265.421875 464.71875 L 261.855469 463.441406 L 258.722656 463.128906 L 251.835938 463.441406 L 248.15625 464.78125 L 247.765625 465.097656 L 244.628906 465.699219 L 242.703125 466.390625 L 242.113281 466.964844 L 242.085938 467.109375 L 240.582031 467.257813 L 240.140625 467.398438 L 238.210938 466.1875 L 238.632813 465.4375 L 239.46875 464.933594 L 237.714844 463.296875 L 231.496094 463.171875 L 231.378906 463.496094 L 232.574219 464.835938 L 232.214844 465.75 L 231.738281 466.042969 L 226.691406 465.496094 L 219.566406 468.449219 L 217.054688 467.824219 L 210.222656 468.96875 L 208.164063 468.875 L 207.273438 468.058594 L 206.238281 469.769531 L 209.429688 471.089844 L 209.714844 470.9375 L 210.1875 472.128906 L 209.566406 473.890625 L 206.84375 474.453125 L 204.453125 473.097656 L 203.015625 472.699219 L 197.625 472.007813 L 196.175781 472.65625 L 195.679688 473.863281 L 195.78125 474.523438 L 195.257813 474.742188 L 194.851563 473.972656 L 190.289063 470.589844 L 185.898438 468.519531 L 183.121094 467.984375 L 181.648438 469.066406 L 176.207031 469.78125 L 174.339844 470.335938 L 168.992188 473.234375 L 168.214844 474.070313 L 167.203125 476.179688 L 162.746094 489.226563 L 160.929688 490.242188 L 158.269531 489.722656 L 157.554688 489.058594 L 156.527344 486.851563 L 154.683594 485.4375 L 153.613281 485.542969 L 152.417969 486.300781 L 151.738281 486.164063 L 148.46875 482.535156 L 142.796875 482.960938 L 141.527344 483.375 L 140.734375 484.175781 L 139.910156 484.507813 L 134.507813 484.320313 L 132.167969 484.859375 L 129.414063 488.195313 L 126.714844 489.746094 L 124.039063 490.597656 L 123.132813 494.289063 L 123.664063 495.292969 L 123.496094 496.125 L 122.722656 496.945313 L 120.660156 497.648438 L 120.394531 498.183594 L 118.253906 498.183594 L 117.96875 497.691406 L 118.09375 496.4375 L 117.15625 494.691406 L 115.984375 493.691406 L 112.253906 492.070313 L 111.410156 491.984375 L 110.375 492.488281 L 110.242188 494.183594 L 110.007813 494.453125 L 108.527344 494.183594 L 105.644531 494.308594 L 105.441406 494.242188 L 105.628906 491.574219 L 106.074219 490.5625 L 111.738281 488.078125 L 112.199219 488.253906 L 112.445313 488.9375 L 113.574219 489.15625 L 118.144531 485.910156 L 121.425781 483.085938 L 124.375 479.769531 L 125.210938 477.886719 L 124.875 476.421875 L 125.640625 474.519531 L 128.386719 473.238281 L 132.105469 472.640625 L 132.679688 471.785156 L 133.257813 469.527344 L 135.859375 467.5625 L 138.636719 464.640625 L 139.128906 458.542969 L 139.796875 454.753906 L 142.492188 455.105469 L 144.269531 456.015625 L 145.761719 455.429688 L 148.429688 452.488281 L 148.105469 447.519531 L 151.105469 446.613281 L 157.421875 446.269531 L 159.910156 445.683594 L 164.597656 446.761719 L 166.046875 446.148438 L 167.527344 446.515625 L 169.484375 447.285156 L 170.039063 448.109375 L 170.757813 448.421875 L 173.15625 448.464844 L 180.570313 447.503906 L 181.109375 445.632813 L 181.210938 443.15625 L 182.519531 440.25 L 190.867188 432.195313 L 195.792969 425.3125 L 197.929688 424.472656 L 198.285156 423.78125 L 198.070313 423.238281 L 197.8125 423.082031 L 196.09375 424.355469 L 192.90625 427.300781 L 190.570313 429.988281 L 189.222656 431.449219 L 185.628906 432.957031 L 183.714844 433.246094 L 182.441406 433.0625 L 178.394531 435.230469 L 177.398438 436.808594 L 177.039063 438.671875 L 176.445313 439.273438 L 174.058594 439.917969 L 170.558594 439.851563 L 166.820313 439 L 166.347656 438.652344 L 161.371094 433.375 L 159.03125 429.199219 L 155.65625 429.589844 L 149.269531 432.308594 L 149.113281 432.746094 L 147.203125 431.632813 L 146.917969 429.308594 L 148.539063 428.378906 L 150.066406 428.890625 L 151.640625 428.421875 L 152.765625 427.832031 L 153.085938 427.097656 L 152.808594 426.597656 L 147.785156 426.460938 L 143.210938 423.710938 L 139.503906 423.714844 L 136.765625 424.277344 L 136.292969 426.515625 L 135.777344 427.203125 L 133.742188 427.917969 L 132.394531 427.265625 L 131.648438 427.453125 L 130.824219 428.171875 L 129.863281 427.953125 L 127.421875 427.921875 L 126.546875 428.097656 L 127.425781 426.082031 L 128.796875 425.832031 L 131.792969 424.328125 L 131.226563 422.867188 L 130.640625 424.257813 L 127.769531 424.613281 L 122.949219 424.152344 L 121.496094 423.164063 L 124.125 421.78125 L 125.167969 421.753906 L 125.464844 421.238281 L 124.929688 417.953125 L 123.328125 417.210938 L 121.445313 417.105469 L 122.0625 415.152344 L 125.933594 413.378906 L 126.539063 411.90625 L 133.074219 411.34375 L 134.871094 409.289063 L 135.753906 407.632813 L 137.585938 406.550781 L 141.359375 406.660156 L 142.21875 406.390625 L 149.359375 401.828125 L 152.136719 398.207031 L 153.054688 396.195313 L 154.199219 391.746094 L 153.734375 388.820313 L 152.566406 386.542969 L 153.179688 384.597656 L 154.652344 381.796875 L 152.269531 378.203125 L 152.683594 374.835938 L 153.175781 374.082031 L 152.804688 373.207031 L 150.203125 373.105469 L 145.449219 374.257813 L 143.757813 375.484375 L 142.039063 378.097656 L 141.71875 378.117188 L 139.164063 377.851563 L 136.660156 378 L 136.660156 377.304688 L 137.339844 376.066406 L 140.148438 373.019531 L 141.023438 372.414063 L 142.589844 371.953125 L 147.132813 367.984375 L 147.953125 364.523438 L 151.550781 360.582031 L 153.09375 359.609375 L 154.941406 359.808594 L 160.492188 357.457031 L 163.644531 357.28125 L 167.339844 357.714844 L 172.597656 355.179688 L 173.933594 355.046875 L 174.484375 355.082031 L 179.910156 359.441406 L 180.433594 358.429688 L 177.679688 353.460938 L 178.242188 352.835938 L 180.867188 352.449219 L 181.503906 352.695313 L 181.914063 353.875 L 182.898438 354.332031 L 184.078125 356.789063 L 185.613281 357.902344 L 188.359375 357.621094 L 190.335938 355.148438 L 189.90625 355.050781 L 188.667969 355.527344 L 188.3125 355.957031 L 186.378906 356.386719 L 183.8125 354.640625 L 181.117188 348.808594 L 182.742188 345.472656 L 183.347656 341.230469 L 183.320313 340.347656 L 183.371094 340.257813 L 185.429688 339.015625 L 185.140625 338.578125 L 183.265625 338.488281 L 183.105469 333.179688 L 182.621094 331.058594 L 182.277344 330.277344 L 184.695313 329.191406 L 187.28125 323.421875 L 187.71875 320.933594 L 187.855469 317.484375 L 184.742188 320.527344 L 179.199219 323.441406 L 177.335938 322.691406 L 172.851563 314.925781 L 172.289063 311.832031 L 167.40625 304.652344 L 169.164063 299.058594 L 174.074219 288.722656 L 176.464844 286.417969 L 178.757813 285.980469 L 180.191406 286.804688 L 181.015625 286.710938 L 182.933594 286.238281 L 183.03125 285.160156 L 182.34375 284.746094 L 180.035156 285.351563 L 174.65625 284.980469 L 172.566406 284.292969 L 169.453125 284.03125 L 168.226563 288.992188 L 166.234375 288.695313 L 163.3125 290.011719 L 161.832031 291.855469 L 159.410156 293.515625 L 156.15625 293.3125 L 155.160156 292.984375 L 149.984375 289.230469 L 149.214844 288.042969 L 149.230469 287.167969 L 148.945313 287.023438 L 148.15625 288.078125 L 147.988281 288.910156 L 148.375 290.554688 L 149.574219 292.960938 L 149.839844 295.726563 L 149.308594 296.871094 L 148.746094 297.058594 L 145.816406 295.78125 L 144.601563 294.238281 L 144.507813 293.621094 L 143.632813 292.355469 L 141.613281 291.4375 L 140.164063 290.433594 L 138.398438 288.636719 L 137.464844 288.296875 L 135.511719 289.683594 L 134.691406 291.09375 L 134.257813 290.402344 L 132.785156 288.832031 L 132.304688 286.34375 L 131.234375 283.910156 L 129.828125 282.199219 L 132.777344 280.410156 L 134.003906 276.632813 L 137.757813 273.035156 L 138.601563 268.871094 L 140.917969 265.085938 L 143.644531 263.800781 L 144.390625 261.886719 L 144.195313 260.621094 L 142.601563 256.71875 L 139.777344 254.832031 L 137.378906 252.511719 Z M 148.292969 261.691406 L 145.691406 263.855469 L 142.148438 268.503906 L 140.917969 272 L 140.832031 275.582031 L 141.898438 279.132813 L 144.117188 282.261719 L 146.890625 284.320313 L 151.5 286.214844 L 154.042969 286.511719 L 156.464844 286.269531 L 162.164063 284.007813 L 164.0625 282.699219 L 165.585938 281.144531 L 166.792969 279.328125 L 167.675781 277.199219 L 170.40625 277.808594 L 173.078125 277.765625 L 176.375 276.898438 L 178.800781 275.671875 L 179.976563 277.898438 L 181.515625 279.734375 L 184.957031 282.703125 L 187.496094 284.132813 L 194.304688 285.609375 L 201.386719 284.796875 L 204.554688 283.75 L 207.386719 281.761719 L 209.511719 279.027344 L 210.707031 275.914063 L 210.960938 272.460938 L 210.140625 268.964844 L 208.398438 265.992188 L 205.855469 263.664063 L 202.496094 262.105469 L 198.691406 261.691406 L 195.566406 259.691406 L 191.964844 258.777344 L 189.527344 258.816406 L 187.273438 259.324219 L 185.050781 260.332031 L 183.183594 261.691406 L 182.316406 258.089844 L 180.363281 254.945313 L 177.625 252.636719 L 174.195313 251.242188 L 171.777344 250.949219 L 169.480469 251.140625 L 166.445313 252.144531 L 163.800781 253.9375 L 158.132813 253.976563 L 154.90625 254.765625 L 152.652344 255.980469 L 150.808594 257.5625 L 149.332031 259.496094 Z M 232.859375 471.5625 L 231.871094 472.320313 L 230.464844 474.011719 L 229.960938 474.269531 L 229.160156 474.433594 L 227.726563 473.148438 L 225.398438 471.867188 L 223.085938 471.195313 L 222.703125 471.148438 L 222.296875 470.886719 L 221.496094 471 L 220.46875 470.875 L 221.476563 469.683594 L 227.316406 466.367188 L 232.550781 467.761719 L 234.171875 469.894531 Z M 140.539063 357.78125 L 140.539063 355.167969 L 140.597656 355.164063 L 141.484375 356.3125 L 142.226563 358.1875 L 141.734375 358.875 L 141.003906 358.070313 Z M 142.203125 353.429688 L 142.707031 353.03125 L 143.882813 351.535156 L 144.664063 351.183594 L 146.003906 350.957031 L 149.390625 351.957031 L 149.652344 352.214844 L 151.039063 355.578125 L 155.546875 356.503906 L 154.066406 358.859375 L 150.984375 360.816406 L 147.425781 363.976563 L 146.109375 363.875 L 144.195313 361.613281 L 142.050781 357.363281 Z M 149.746094 311.40625 L 149.109375 312.484375 L 148.203125 316.589844 L 148.226563 317.394531 L 147.847656 318.148438 L 145.3125 320.636719 L 141.859375 323.019531 L 139.824219 322.464844 L 137.933594 323.433594 L 137.675781 322.921875 L 139.597656 317.292969 L 140.441406 316.238281 L 142.300781 315.023438 L 144.765625 310.230469 L 145.863281 309.40625 L 149.046875 308.269531 Z M 136.769531 296.640625 L 136.660156 296.585938 L 136.582031 296.140625 L 136.734375 296.308594 Z M 110.132813 250.058594 L 107.835938 249.378906 L 104.757813 249.316406 L 104.433594 249.398438 L 104.988281 247.472656 L 102.980469 247.105469 L 101.484375 249.703125 L 100.0625 247.890625 L 99.484375 247.4375 L 100.265625 245.007813 L 102.019531 243.667969 L 102.394531 243.230469 L 102.445313 243.214844 L 103.882813 243.558594 L 106.871094 241.457031 L 108.433594 240.808594 L 108.667969 241.335938 L 108.480469 243.175781 L 108.777344 246.292969 L 109.046875 247.320313 L 109.929688 248.226563 Z M 105.59375 236.226563 L 105.628906 235.863281 L 106.28125 234.464844 L 107.839844 232.910156 L 108.882813 232.734375 L 107.535156 236.1875 L 106.976563 236.632813 Z M 102.902344 224.066406 L 102.398438 223.546875 L 102.589844 223.230469 L 103.304688 222.808594 L 103.460938 223.023438 Z M 97.121094 213.097656 L 97.890625 211.292969 L 100.742188 208.84375 L 101.304688 208 L 101.351563 207.964844 L 102.617188 207.75 L 102.652344 208.195313 L 101.386719 210.445313 L 99.425781 212.117188 Z M 101.851563 192.03125 L 101.769531 191.90625 L 102.578125 191.722656 L 102.835938 191.832031 Z M 186.132813 108.140625 L 184.867188 110.21875 L 184.113281 114.292969 L 181.886719 115.097656 L 179.867188 113.65625 L 179.308594 110.492188 L 179.308594 106.617188 L 183.183594 105.949219 L 184.671875 106.207031 Z M 185.222656 119.105469 L 187.0625 122.125 L 186.804688 122.433594 L 186.4375 122.070313 L 185.203125 119.125 Z M 184.042969 126.507813 L 183.703125 127.269531 L 183.183594 129.875 L 181.183594 132.023438 L 179.832031 134.480469 L 179.023438 137.953125 L 179.308594 141.507813 L 176.511719 142.777344 L 174.148438 144.738281 L 172.757813 146.574219 L 171.714844 148.898438 L 162.601563 156.074219 L 162.234375 157.082031 L 162.671875 158.175781 L 162.078125 159.632813 L 160.171875 160.148438 L 160.234375 159.421875 L 159.921875 157.015625 L 162.226563 155.90625 L 164.144531 154.410156 L 165.707031 152.546875 L 166.894531 150.28125 L 167.496094 148.191406 L 167.675781 145.382813 L 168.265625 142.886719 L 168.164063 139.429688 L 167.578125 137.324219 L 166.609375 135.371094 L 165.203125 133.535156 L 163.570313 132.089844 L 167.066406 132.824219 L 170.496094 132.492188 L 173.679688 131.167969 L 176.542969 128.820313 L 176.78125 128.464844 L 177.664063 128.609375 L 178 127.714844 L 177.574219 127.285156 L 178.527344 125.859375 Z M 174.035156 166.828125 L 176.425781 168.054688 L 180.933594 168.804688 L 183.621094 168.785156 L 184.320313 169.011719 L 184.738281 168.777344 L 197.289063 168.683594 L 199.164063 168.988281 L 202.875 168.933594 L 204.140625 170.117188 L 206.070313 171.335938 L 208.203125 172.148438 L 210.324219 172.523438 L 208.144531 173.609375 L 206.148438 175.21875 L 204.550781 177.222656 L 203.433594 179.527344 L 202.78125 182.792969 L 203.109375 186.230469 L 204.367188 189.308594 L 206.445313 191.90625 L 204.457031 194.203125 L 203.128906 196.933594 L 202.445313 200.660156 L 202.570313 203.539063 L 200.375 204.460938 L 198.507813 205.726563 L 199.003906 202.019531 L 198.691406 199.660156 L 198.648438 194.757813 L 198.175781 192.363281 L 197.28125 190.230469 L 195.898438 188.222656 L 194.125 186.542969 L 192.15625 185.328125 L 189.738281 184.464844 L 187.0625 184.152344 L 184.792969 182.277344 L 182.125 181.027344 L 179.742188 180.53125 L 177.304688 180.542969 L 174.203125 181.324219 L 171.429688 182.921875 L 169.199219 185.214844 L 167.675781 188.03125 L 166.589844 185.851563 L 165.074219 183.945313 L 163.085938 182.328125 L 160.914063 181.230469 L 157.664063 180.507813 L 154.21875 180.757813 L 151 182.011719 L 148.292969 184.152344 L 147.015625 181.683594 L 145.183594 179.585938 L 147.34375 176.320313 L 148.4375 172.089844 L 151.070313 171.632813 L 152.316406 171.097656 L 151.949219 171.945313 L 152.140625 172.144531 L 156.390625 168.453125 L 157.75 167.980469 L 160.300781 168.324219 L 161.058594 169.320313 L 157.109375 173.804688 L 156.367188 175.339844 L 156.707031 175.816406 L 157.367188 175.984375 L 158.261719 175.542969 L 161.140625 173.015625 L 167.808594 170.273438 L 170.480469 169.527344 L 170.492188 169.949219 L 171.554688 169.839844 L 173.589844 168.316406 Z M 157.910156 166.664063 L 157.972656 166.605469 L 159.25 164.398438 L 160.015625 161.960938 L 160.050781 161.566406 L 161.363281 161.917969 L 164.042969 162.292969 L 165.242188 161.992188 L 166.015625 161.605469 L 166.75 160.257813 L 167.589844 160.183594 L 167.507813 160.828125 L 166.417969 162.609375 L 162.722656 166.96875 L 162.175781 167.183594 L 161.726563 166.894531 L 161.859375 165.949219 L 161.53125 165.507813 L 159.984375 165.785156 Z M 179.4375 120.761719 L 179.308594 118.246094 L 179.792969 115.328125 L 181.269531 116.636719 L 182.96875 119.6875 L 182.941406 120.441406 L 180.816406 120.886719 Z M 160.25 130.140625 L 160.828125 130.605469 L 159.554688 130.261719 Z M 77.871094 194.785156 L 78.375 192.925781 L 78.382813 192.914063 L 78.472656 194.925781 Z M 286.679688 439.636719 L 283.058594 438.976563 L 282.164063 437.605469 L 282.484375 436.070313 L 286.839844 437.054688 L 287.960938 438.832031 Z M 236.835938 466.113281 L 235.136719 465.644531 L 236.523438 463.683594 L 237.195313 464.164063 L 237.5 465.839844 Z M 88.429688 500.046875 L 88.566406 499.308594 L 88.941406 499.117188 L 89.34375 499.789063 Z M 116.21875 172.839844 L 115.832031 172.433594 L 115.832031 171.710938 L 116.085938 170.789063 L 116.59375 170.277344 L 116.765625 170.625 Z M 113.875 180.957031 L 113.53125 180.855469 L 113.277344 179.863281 L 113.640625 176.351563 L 114.757813 173.765625 L 115.464844 173.085938 L 116.03125 173.816406 L 115.367188 179.941406 L 114.945313 180.566406 Z M 116.207031 183.113281 L 115.0625 182.589844 L 114.59375 181.914063 L 114.695313 181.441406 L 115.34375 181.214844 L 116.664063 181.757813 L 116.886719 182.648438 Z M 106.597656 197.398438 L 105.582031 196.804688 L 103.613281 194.261719 L 105.34375 192.390625 L 106.722656 192.214844 L 107.992188 192.835938 L 108.445313 193.703125 L 108.09375 196.351563 L 107.546875 197.015625 Z M 110.160156 200.433594 L 108.972656 199.578125 L 108.9375 198.890625 L 110.578125 197.179688 L 111.398438 197.769531 L 111.5 198.265625 L 111.128906 199.855469 Z M 110.59375 209.929688 L 111.976563 210.636719 L 113.289063 212.988281 L 113.785156 214.699219 L 116.457031 215.945313 L 117.929688 216.300781 L 121.195313 219.144531 L 120.902344 221.207031 L 119.445313 223.339844 L 116.335938 225.03125 L 115.453125 224.539063 L 116.136719 223.339844 L 115.425781 223.117188 L 112.109375 224.96875 L 106.027344 226.585938 L 104.691406 226.273438 L 103.734375 224.277344 L 103.851563 223.371094 L 104.191406 223.09375 L 105.628906 223.050781 L 106.039063 223.617188 L 106.972656 224.074219 L 112.214844 222.164063 L 112.035156 221.589844 L 109.863281 222.445313 L 108.199219 222.488281 L 107.824219 221.539063 L 109.386719 219.472656 L 112.601563 217.957031 L 112.90625 216.820313 L 112.554688 216.699219 L 109.90625 217.519531 L 105.058594 214.074219 L 105.636719 211.667969 L 108.914063 210.140625 L 110.03125 209.789063 Z M 108.136719 218.074219 L 107.207031 217.691406 L 106.753906 217.160156 L 107.335938 216.378906 L 108.085938 216.507813 L 109.105469 217.519531 L 109.070313 217.820313 Z M 123.378906 222.417969 L 122.582031 222.078125 L 123.082031 221.191406 L 124.476563 221.046875 Z M 121.453125 227.109375 L 121.152344 226.972656 L 120.984375 225.621094 L 121.59375 224.800781 L 122.367188 224.816406 L 121.953125 226.621094 Z M 130.613281 263.773438 L 129.152344 263.667969 L 126.582031 261.613281 L 125.375 256.128906 L 125.988281 253.21875 L 128.179688 251.246094 L 129.539063 251.441406 L 131.390625 253.015625 L 132.984375 258.382813 L 133.019531 262.765625 L 132.308594 263.453125 Z M 130.613281 263.773438 "/>
</g>
</svg>
