<?xml version="1.0" encoding="UTF-8"?>
<svg xmlns="http://www.w3.org/2000/svg" xmlns:xlink="http://www.w3.org/1999/xlink" width="378pt" height="504pt" viewBox="0 0 378 504" version="1.1">
<g id="data">
<rect x="0" y="0" width="378" height="504" style="fill:rgb(100%,100%,100%);fill-opacity:1;stroke:none;"/>
<path style=" stroke:none;fill-rule:nonzero;fill:rgb(100%,100%,100%);fill-opacity:1;" d="M 53.308594 504 L 324.691406 504 L 324.691406 0 L 53.308594 0 Z M 53.308594 504 "/>
<path style=" stroke:none;fill-rule:nonzero;fill:rgb(22.745098%,53.333333%,16.078431%);fill-opacity:1;" d="M 154.570313 217.445313 L 154.140625 215.777344 L 154.214844 214.058594 L 154.789063 212.433594 L 155.816406 211.050781 L 157.203125 210.027344 L 158.828125 209.457031 L 160.550781 209.386719 L 162.214844 209.824219 L 163.679688 210.730469 L 165.230469 212.042969 L 166.332031 212.609375 L 167.660156 212.949219 L 168.816406 212.976563 L 170.53125 212.574219 L 171.882813 211.8125 L 173.0625 210.617188 L 174.191406 208.527344 L 175.355469 207.027344 L 176.9375 205.980469 L 178.773438 205.5 L 180.667969 205.636719 L 182.417969 206.378906 L 184.839844 207.910156 L 186.679688 208.34375 L 188.582031 208.15625 L 191.089844 207.019531 L 192.753906 206.546875 L 194.484375 206.585938 L 196.128906 207.132813 L 197.535156 208.136719 L 198.089844 208.859375 L 197.078125 210.023438 L 197.433594 210.839844 L 197.785156 210.703125 L 197.761719 211.238281 L 196.796875 214.386719 L 195.867188 215.914063 L 191.214844 219.742188 L 185.519531 221.085938 L 182.847656 221.226563 L 177.804688 225.21875 L 178.117188 225.714844 L 179.84375 225.195313 L 184.609375 222.886719 L 186.457031 221.386719 L 187.289063 221.316406 L 189.085938 221.875 L 189.332031 222.921875 L 188.898438 224.691406 L 189.238281 225.953125 L 190.898438 226.824219 L 192.988281 227.191406 L 194.445313 228.726563 L 194.429688 229.304688 L 192.117188 231.570313 L 189.460938 232.730469 L 188.34375 232.882813 L 187.070313 232.078125 L 185.40625 232.042969 L 181.046875 235.800781 L 180.578125 237.003906 L 174.761719 240.109375 L 170.214844 238.117188 L 166.480469 238.003906 L 166.738281 239.222656 L 168.246094 240.195313 L 178.0625 241.875 L 182.921875 243.167969 L 186.398438 241.730469 L 187.519531 239.417969 L 188.617188 238.355469 L 189.539063 238.171875 L 193.183594 238.5 L 199.339844 242.761719 L 206.488281 246.65625 L 208.910156 251.429688 L 212.824219 256.707031 L 213.265625 256.828125 L 213.433594 256.585938 L 214.601563 257.097656 L 216.070313 258.101563 L 216.046875 258.84375 L 215.496094 260.476563 L 214.488281 261.875 L 213.117188 262.917969 L 211.5 263.511719 L 209.777344 263.605469 L 208.105469 263.191406 L 205.984375 262.316406 L 204.460938 262.121094 L 203.046875 262.308594 L 200.910156 263.191406 L 198.53125 263.628906 L 193 263.476563 L 191.496094 263.613281 L 189.148438 264.382813 L 186.800781 266.246094 L 185.097656 267.183594 L 183.175781 267.507813 L 181.257813 267.179688 L 179.558594 266.238281 L 178.261719 264.789063 L 177.515625 262.988281 L 176.945313 260.492188 L 176.035156 258.9375 L 174.800781 257.808594 L 173.109375 257.023438 L 171.746094 256.8125 L 170.292969 256.957031 L 168.925781 257.460938 L 167.117188 258.714844 L 165.738281 259.421875 L 164.21875 259.738281 L 162.675781 259.644531 L 159.566406 259.03125 L 157.433594 259.386719 L 156.339844 259.933594 L 155.195313 260.921875 L 154.441406 261.988281 L 153.6875 263.863281 L 153.011719 265.09375 L 152.058594 266.125 L 149.707031 268.121094 L 147.710938 270.597656 L 147.140625 271.597656 L 146.664063 273.226563 L 146.65625 274.8125 L 147.074219 276.339844 L 147.878906 277.667969 L 149.226563 278.894531 L 151.765625 280.175781 L 153.300781 280.589844 L 154.933594 280.601563 L 155.957031 280.363281 L 157.527344 279.65625 L 159.851563 279.140625 L 163.457031 279.097656 L 165.390625 278.542969 L 166.421875 277.933594 L 169.058594 275.746094 L 170.980469 273.457031 L 172.28125 272.3125 L 173.863281 271.601563 L 175.582031 271.386719 L 177.289063 271.691406 L 178.832031 272.484375 L 180.070313 273.695313 L 180.898438 275.21875 L 181.238281 276.921875 L 181.328125 278.738281 L 181.632813 279.90625 L 182.179688 280.988281 L 182.925781 281.917969 L 183.914063 282.714844 L 185.734375 283.605469 L 186.800781 284.277344 L 189.328125 286.28125 L 190.238281 286.660156 L 192.011719 286.992188 L 193.953125 287.734375 L 195.507813 289.113281 L 196.785156 290.738281 L 198.410156 292.011719 L 199.605469 293.285156 L 200.367188 294.859375 L 200.628906 296.585938 L 200.628906 300.460938 L 200.332031 302.300781 L 199.46875 303.949219 L 197.910156 306.03125 L 197.316406 307.65625 L 197.203125 308.832031 L 197.351563 310.015625 L 197.960938 311.570313 L 198.925781 312.832031 L 200.195313 313.785156 L 201.675781 314.351563 L 203.445313 314.511719 L 208.101563 313.9375 L 209.542969 313.464844 L 210.761719 312.691406 L 211.859375 311.488281 L 212.894531 309.457031 L 214.277344 307.6875 L 215.945313 306.25 L 216.679688 305.207031 L 217.296875 303.457031 L 217.378906 300.804688 L 217.414063 300.621094 L 217.214844 300.410156 L 215.917969 298.523438 L 214.28125 297.113281 L 213.023438 295.582031 L 212.351563 293.71875 L 212.074219 292.144531 L 211.660156 291.070313 L 211.046875 290.09375 L 209.957031 288.929688 L 209 287.554688 L 208.472656 285.964844 L 208.421875 284.289063 L 208.851563 282.671875 L 209.722656 281.242188 L 211.414063 279.203125 L 212.414063 276.75 L 213.3125 275.242188 L 214.613281 274.074219 L 216.207031 273.347656 L 217.945313 273.125 L 219.527344 273.40625 L 220.40625 277.574219 L 221.269531 280.457031 L 222.984375 284.039063 L 223.773438 285.027344 L 225.945313 294.183594 L 227.75 296.808594 L 227.761719 297.472656 L 228.03125 297.761719 L 229.15625 299.453125 L 230.058594 300.304688 L 231.226563 300.988281 L 232.519531 301.382813 L 233.753906 301.472656 L 234.292969 301.390625 L 244.476563 306.140625 L 245.742188 307.636719 L 247.265625 310.527344 L 249.289063 315.722656 L 252.390625 319.148438 L 256.121094 320.875 L 257.207031 321.722656 L 254.738281 323.09375 L 253.890625 324.554688 L 253.765625 325.996094 L 254.984375 329.992188 L 256.160156 332.453125 L 263.316406 342.46875 L 263.640625 343.980469 L 262.804688 345.191406 L 263.28125 343.65625 L 262.507813 342.839844 L 260.445313 342 L 258.378906 342.789063 L 257.507813 342.753906 L 256.035156 341.773438 L 253.664063 338.65625 L 252.601563 338.082031 L 245.550781 339.511719 L 244.589844 338.644531 L 243.40625 338.558594 L 241.210938 339.871094 L 241.886719 340.445313 L 246.324219 340.394531 L 249.617188 339.34375 L 251.976563 339.082031 L 254.382813 342.558594 L 260.535156 347.621094 L 263.042969 349.058594 L 263.664063 349.039063 L 266.046875 352.214844 L 268.980469 359.304688 L 269.535156 362.402344 L 269.210938 365.21875 L 264.953125 369.09375 L 261.394531 373.164063 L 260.601563 374.816406 L 262.84375 374.3125 L 264.9375 375.519531 L 266.9375 378.226563 L 270.21875 378.804688 L 270.625 378.746094 L 271.910156 376.796875 L 272.234375 374.960938 L 273.40625 371.914063 L 274.707031 370.632813 L 277.851563 370.085938 L 283.34375 370.234375 L 284.253906 370.867188 L 286.703125 370.742188 L 293.949219 371.515625 L 296.914063 372.84375 L 304.070313 378.085938 L 305.367188 380.105469 L 306.730469 384.164063 L 307.179688 391.25 L 306.777344 393.191406 L 306.890625 393.976563 L 305.789063 396.917969 L 303.519531 407.832031 L 297.144531 414.53125 L 295.578125 412.011719 L 292.742188 410.515625 L 292.480469 410.636719 L 293.898438 413.703125 L 295.890625 416.628906 L 296.3125 416.765625 L 296.164063 417.742188 L 294.574219 419.804688 L 292.191406 421.289063 L 290.003906 421.65625 L 289.660156 421.574219 L 288.214844 419.332031 L 284.976563 421.730469 L 280.71875 424.230469 L 282.339844 425.378906 L 285.105469 424.398438 L 286.097656 423.375 L 286.894531 423.164063 L 287.328125 423.710938 L 287.632813 428.84375 L 285.6875 430.875 L 283.441406 432.558594 L 282.84375 432.699219 L 279.644531 432.160156 L 274.75 433.78125 L 272.609375 436.117188 L 274.253906 436.015625 L 275.152344 434.667969 L 276.683594 434.363281 L 278.285156 434.328125 L 281.054688 434.949219 L 281.828125 435.589844 L 281.691406 436.328125 L 279.554688 436.347656 L 277.390625 437.65625 L 277.96875 438.546875 L 281.382813 438.964844 L 286.863281 440.339844 L 289.394531 439.9375 L 291.074219 438.957031 L 299.742188 437.757813 L 300.988281 440.148438 L 300.773438 446.324219 L 300.335938 447.820313 L 299.394531 449.050781 L 296.972656 450.242188 L 295.839844 450.375 L 292.621094 451.640625 L 291.179688 452.742188 L 289.847656 454.226563 L 289.460938 455.09375 L 289.214844 456.324219 L 289.464844 457.886719 L 286.253906 458.289063 L 284.1875 457.9375 L 281.042969 460.90625 L 278.484375 461.933594 L 274.789063 462.777344 L 272.597656 463.816406 L 270.539063 466.589844 L 269.761719 466.949219 L 259.269531 463.777344 L 256.070313 463.507813 L 244.628906 465.699219 L 242.703125 466.390625 L 242.113281 466.964844 L 241.902344 467.984375 L 241.359375 468.164063 L 238.210938 466.1875 L 238.632813 465.4375 L 239.46875 464.933594 L 237.714844 463.296875 L 231.496094 463.171875 L 231.378906 463.496094 L 232.574219 464.835938 L 232.214844 465.75 L 231.738281 466.042969 L 226.691406 465.496094 L 219.566406 468.449219 L 217.054688 467.824219 L 210.222656 468.96875 L 208.164063 468.875 L 207.273438 468.058594 L 206.238281 469.769531 L 209.429688 471.089844 L 209.714844 470.9375 L 210.1875 472.128906 L 209.566406 473.890625 L 206.84375 474.453125 L 204.453125 473.097656 L 203.015625 472.699219 L 197.625 472.007813 L 196.175781 472.65625 L 195.679688 473.863281 L 195.832031 474.871094 L 196.757813 475.523438 L 196.488281 476.304688 L 195.917969 475.996094 L 194.851563 473.972656 L 190.289063 470.589844 L 185.898438 468.519531 L 183.121094 467.984375 L 181.648438 469.066406 L 176.207031 469.78125 L 174.339844 470.335938 L 168.992188 473.234375 L 168.214844 474.070313 L 167.203125 476.179688 L 162.746094 489.226563 L 160.929688 490.242188 L 158.269531 489.722656 L 157.554688 489.058594 L 156.527344 486.851563 L 154.683594 485.4375 L 153.613281 485.542969 L 152.417969 486.300781 L 151.738281 486.164063 L 148.46875 482.535156 L 142.796875 482.960938 L 141.527344 483.375 L 140.734375 484.175781 L 139.910156 484.507813 L 134.507813 484.320313 L 132.167969 484.859375 L 129.414063 488.195313 L 126.714844 489.746094 L 124.039063 490.597656 L 123.132813 494.289063 L 123.664063 495.292969 L 123.496094 496.125 L 122.722656 496.945313 L 120.660156 497.648438 L 119.628906 499.730469 L 118.675781 498.910156 L 117.96875 497.691406 L 118.09375 496.4375 L 117.15625 494.691406 L 115.984375 493.691406 L 112.253906 492.070313 L 111.410156 491.984375 L 110.375 492.488281 L 110.242188 494.183594 L 109.421875 495.128906 L 106.824219 495.664063 L 105.398438 494.824219 L 105.628906 491.574219 L 106.074219 490.5625 L 111.738281 488.078125 L 112.199219 488.253906 L 112.445313 488.9375 L 113.574219 489.15625 L 118.144531 485.910156 L 121.425781 483.085938 L 124.375 479.769531 L 125.210938 477.886719 L 124.875 476.421875 L 125.640625 474.519531 L 128.386719 473.238281 L 132.105469 472.640625 L 132.679688 471.785156 L 133.257813 469.527344 L 135.859375 467.5625 L 138.636719 464.640625 L 139.128906 458.542969 L 139.796875 454.753906 L 142.492188 455.105469 L 144.269531 456.015625 L 145.761719 455.429688 L 148.429688 452.488281 L 148.105469 447.519531 L 151.105469 446.613281 L 157.421875 446.269531 L 159.910156 445.683594 L 164.597656 446.761719 L 166.046875 446.148438 L 167.527344 446.515625 L 169.484375 447.285156 L 170.039063 448.109375 L 170.757813 448.421875 L 173.15625 448.464844 L 180.570313 447.503906 L 181.109375 445.632813 L 181.210938 443.15625 L 182.519531 440.25 L 190.867188 432.195313 L 195.792969 425.3125 L 197.929688 424.472656 L 198.285156 423.78125 L 198.070313 423.238281 L 197.8125 423.082031 L 196.09375 424.355469 L 192.90625 427.300781 L 190.570313 429.988281 L 189.222656 431.449219 L 185.628906 432.957031 L 183.714844 433.246094 L 182.441406 433.0625 L 178.394531 435.230469 L 177.398438 436.808594 L 177.039063 438.671875 L 176.445313 439.273438 L 174.058594 439.917969 L 170.558594 439.851563 L 166.820313 439 L 166.347656 438.652344 L 161.371094 433.375 L 159.03125 429.199219 L 155.65625 429.589844 L 149.269531 432.308594 L 149.113281 432.746094 L 147.203125 431.632813 L 146.917969 429.308594 L 148.539063 428.378906 L 150.066406 428.890625 L 151.640625 428.421875 L 152.765625 427.832031 L 153.085938 427.097656 L 152.808594 426.597656 L 147.785156 426.460938 L 143.210938 423.710938 L 139.503906 423.714844 L 136.765625 424.277344 L 136.292969 426.515625 L 135.777344 427.203125 L 133.742188 427.917969 L 132.394531 427.265625 L 131.648438 427.453125 L 129.4375 429.378906 L 126.53125 428.132813 L 127.425781 426.082031 L 128.796875 425.832031 L 131.792969 424.328125 L 131.226563 422.867188 L 130.640625 424.257813 L 127.769531 424.613281 L 122.949219 424.152344 L 121.496094 423.164063 L 124.125 421.78125 L 125.167969 421.753906 L 125.464844 421.238281 L 124.929688 417.953125 L 123.328125 417.210938 L 121.445313 417.105469 L 122.0625 415.152344 L 125.933594 413.378906 L 126.539063 411.90625 L 133.074219 411.34375 L 134.871094 409.289063 L 135.753906 407.632813 L 137.585938 406.550781 L 141.359375 406.660156 L 142.21875 406.390625 L 149.359375 401.828125 L 152.136719 398.207031 L 153.054688 396.195313 L 154.199219 391.746094 L 153.734375 388.820313 L 152.566406 386.542969 L 153.179688 384.597656 L 154.652344 381.796875 L 152.269531 378.203125 L 152.683594 374.835938 L 153.175781 374.082031 L 152.804688 373.207031 L 150.203125 373.105469 L 145.449219 374.257813 L 143.757813 375.484375 L 142.039063 378.097656 L 136.757813 378.433594 L 136.246094 378.0625 L 137.339844 376.066406 L 140.148438 373.019531 L 141.023438 372.414063 L 142.589844 371.953125 L 147.132813 367.984375 L 147.953125 364.523438 L 151.550781 360.582031 L 153.09375 359.609375 L 154.941406 359.808594 L 160.492188 357.457031 L 163.644531 357.28125 L 167.339844 357.714844 L 172.597656 355.179688 L 173.933594 355.046875 L 174.484375 355.082031 L 179.910156 359.441406 L 180.433594 358.429688 L 177.679688 353.460938 L 178.242188 352.835938 L 180.867188 352.449219 L 181.503906 352.695313 L 181.914063 353.875 L 182.898438 354.332031 L 184.078125 356.789063 L 185.613281 357.902344 L 188.359375 357.621094 L 190.335938 355.148438 L 189.90625 355.050781 L 188.667969 355.527344 L 188.3125 355.957031 L 186.378906 356.386719 L 183.8125 354.640625 L 179.976563 346.332031 L 183.371094 340.257813 L 185.429688 339.015625 L 185.140625 338.578125 L 182.683594 338.460938 L 181.554688 337.164063 L 181.355469 336.117188 L 181.601563 331.078125 L 181.949219 330.421875 L 184.695313 329.191406 L 187.28125 323.421875 L 187.71875 320.933594 L 187.855469 317.484375 L 184.742188 320.527344 L 179.199219 323.441406 L 177.335938 322.691406 L 172.851563 314.925781 L 172.289063 311.832031 L 167.40625 304.652344 L 169.164063 299.058594 L 174.074219 288.722656 L 176.464844 286.417969 L 178.757813 285.980469 L 180.191406 286.804688 L 181.015625 286.710938 L 182.933594 286.238281 L 183.03125 285.160156 L 182.34375 284.746094 L 180.035156 285.351563 L 174.65625 284.980469 L 172.566406 284.292969 L 169.453125 284.03125 L 168.226563 288.992188 L 166.234375 288.695313 L 163.3125 290.011719 L 161.832031 291.855469 L 159.410156 293.515625 L 156.15625 293.3125 L 155.160156 292.984375 L 149.984375 289.230469 L 149.214844 288.042969 L 149.230469 287.167969 L 148.945313 287.023438 L 148.15625 288.078125 L 147.988281 288.910156 L 148.375 290.554688 L 149.574219 292.960938 L 149.839844 295.726563 L 149.308594 296.871094 L 148.746094 297.058594 L 145.816406 295.78125 L 144.601563 294.238281 L 144.507813 293.621094 L 143.632813 292.355469 L 141.613281 291.4375 L 140.164063 290.433594 L 138.398438 288.636719 L 137.464844 288.296875 L 135.511719 289.683594 L 134.605469 291.238281 L 135.976563 295.472656 L 136.734375 296.308594 L 136.957031 298.523438 L 136.742188 298.695313 L 134.683594 297.484375 L 134.359375 296.304688 L 134.707031 295.457031 L 134.59375 294.480469 L 133.472656 292.679688 L 130.894531 289.722656 L 129.605469 286.988281 L 129.300781 285.09375 L 129.71875 282.265625 L 132.777344 280.410156 L 134.003906 276.632813 L 137.757813 273.035156 L 138.601563 268.871094 L 140.917969 265.085938 L 143.644531 263.800781 L 144.390625 261.886719 L 144.195313 260.621094 L 142.601563 256.71875 L 139.777344 254.832031 L 137.378906 252.511719 L 138.6875 242.234375 L 140.710938 241.59375 L 142.886719 242.511719 L 146.15625 243.175781 L 148.300781 243.253906 L 141.261719 240.453125 L 140.441406 240.5625 L 139.386719 240.085938 L 139.183594 238.121094 L 139.414063 236.460938 L 140.238281 234.648438 L 139.292969 234.9375 L 138.320313 240.257813 L 136.15625 245.152344 L 135.023438 244.945313 L 132.828125 243.214844 L 133.671875 242.3125 L 134.472656 240.566406 L 134.753906 237.832031 L 135.210938 236.097656 L 136.175781 234.585938 L 137.550781 233.441406 L 139.214844 232.769531 L 141 232.632813 L 142.742188 233.050781 L 144.277344 233.976563 L 145.519531 235.019531 L 146.539063 235.582031 L 147.636719 235.929688 L 148.777344 236.050781 L 149.925781 235.945313 L 151.027344 235.613281 L 152.039063 235.070313 L 152.777344 234.464844 L 153.984375 232.757813 L 154.566406 230.765625 L 154.578125 229.730469 L 154.21875 227.941406 L 154.132813 226.253906 L 154.535156 224.613281 L 155.433594 222.398438 L 155.613281 220.792969 L 155.390625 219.367188 Z M 231.574219 404.21875 L 231.613281 405.738281 L 231.261719 407.222656 L 230.535156 408.558594 L 229.460938 410.03125 L 228.96875 411.136719 L 228.71875 412.320313 L 228.71875 413.53125 L 228.96875 414.714844 L 229.460938 415.820313 L 230.171875 416.796875 L 231.097656 417.628906 L 232.003906 418.164063 L 233.144531 418.574219 L 236.574219 419.28125 L 238.0625 419.304688 L 239.195313 419.074219 L 240.394531 418.546875 L 241.359375 417.839844 L 242.132813 416.976563 L 242.832031 415.714844 L 243.226563 414.246094 L 243.433594 410.914063 L 243.277344 405.300781 L 243.484375 403.605469 L 243.988281 401.75 L 244.046875 400.460938 L 243.847656 399.296875 L 243.359375 398.097656 L 242.632813 397.050781 L 241.773438 396.265625 L 239.851563 395.257813 L 238.378906 394.800781 L 237.445313 394.683594 L 235.445313 394.933594 L 233.710938 395.777344 L 232.417969 397.054688 L 231.527344 398.808594 L 231.074219 401.109375 Z M 116.507813 268.945313 L 116.035156 268.328125 L 115.425781 266.578125 L 115.265625 265.65625 L 115.277344 264.699219 L 117.226563 262.640625 L 117.992188 256.269531 L 119.523438 252.132813 L 119.585938 252.136719 L 123.09375 251.828125 L 124.398438 251.367188 L 124.984375 250.984375 L 124.449219 251.558594 L 123.367188 254.191406 L 121.183594 263.964844 L 122.0625 266.289063 L 120.679688 268.164063 L 119.945313 268.597656 Z M 128.898438 245.789063 L 130.007813 244.953125 L 130.195313 244.851563 L 130.664063 246.308594 L 130.519531 246.613281 Z M 130.835938 244.5 L 132.433594 243.632813 L 132.523438 243.539063 L 133.71875 244.574219 L 134.707031 246.3125 L 135.339844 249.003906 L 135.222656 250.96875 L 134.8125 251.347656 L 132.589844 248.835938 L 130.84375 244.566406 Z M 200.714844 168.964844 L 201.015625 169.398438 L 201.542969 171.242188 L 201.441406 173.15625 L 200.722656 174.9375 L 199.464844 176.382813 L 197.800781 177.34375 L 195.917969 177.710938 L 194.023438 177.761719 L 192.304688 178.175781 L 190.925781 178.339844 L 189.550781 178.171875 L 187.882813 177.761719 L 186.875 177.714844 L 184.324219 178.226563 L 181.828125 178.175781 L 180.066406 177.753906 L 178.878906 177.722656 L 177.550781 177.972656 L 175.738281 178.703125 L 174.109375 180.0625 L 173.105469 181.796875 L 172.765625 183.777344 L 173.3125 186.765625 L 173.359375 188.59375 L 172.832031 190.34375 L 171.789063 191.847656 L 170.332031 192.949219 L 168.601563 193.542969 L 166.773438 193.574219 L 165.027344 193.035156 L 163.535156 191.980469 L 162.441406 190.515625 L 161.597656 188.898438 L 160.820313 187.964844 L 159.871094 187.214844 L 158.902344 186.734375 L 157.082031 186.359375 L 155.472656 186.5 L 153.855469 187.152344 L 151.925781 188.695313 L 150.449219 189.554688 L 148.789063 189.949219 L 147.082031 189.84375 L 145.484375 189.246094 L 144.125 188.210938 L 143.128906 186.828125 L 142.171875 184.980469 L 140.804688 183.410156 L 139.8125 181.808594 L 139.382813 179.976563 L 139.5625 178.101563 L 140.332031 176.382813 L 141.941406 173.945313 L 142.652344 171.109375 L 143.285156 169.566406 L 144.328125 168.269531 L 145.699219 167.316406 L 147.28125 166.796875 L 148.855469 166.519531 L 149.929688 166.105469 L 150.90625 165.496094 L 152.070313 164.402344 L 153.632813 163.355469 L 155.449219 162.863281 L 157.328125 162.972656 L 159.074219 163.679688 L 161.761719 165.316406 L 163.800781 165.695313 L 163.804688 165.695313 L 162.722656 166.96875 L 162.175781 167.183594 L 161.726563 166.894531 L 161.859375 165.949219 L 161.53125 165.507813 L 159.984375 165.785156 L 155.320313 167.769531 L 152.441406 170.8125 L 151.949219 171.945313 L 152.140625 172.144531 L 156.390625 168.453125 L 157.75 167.980469 L 160.300781 168.324219 L 161.058594 169.320313 L 157.109375 173.804688 L 156.367188 175.339844 L 156.707031 175.816406 L 157.367188 175.984375 L 158.261719 175.542969 L 161.140625 173.015625 L 167.808594 170.273438 L 170.480469 169.527344 L 170.492188 169.949219 L 171.554688 169.839844 L 173.589844 168.316406 L 174.046875 166.78125 L 178.648438 166.167969 L 179.285156 167.089844 L 180.148438 167.667969 L 184.320313 169.011719 L 187.675781 167.128906 L 199.164063 168.988281 Z M 106.277344 186.078125 L 106.378906 186.054688 L 107.347656 185.609375 L 108.300781 184.921875 L 109.238281 183.921875 L 109.867188 182.972656 L 110.269531 182.019531 L 110.519531 180.722656 L 110.488281 179.464844 L 110.144531 178.140625 L 109.570313 177.042969 L 108.683594 176 L 107.675781 175.25 L 106.527344 174.742188 L 104.535156 174.355469 L 102.765625 173.699219 L 101.300781 172.507813 L 100.289063 170.914063 L 99.996094 169.695313 L 101.03125 167.96875 L 101.53125 168.039063 L 102.335938 169.03125 L 102.71875 170.644531 L 104.785156 172.40625 L 105.550781 172.625 L 106.867188 171.878906 L 106.617188 168.460938 L 106.121094 166.925781 L 108.003906 165.003906 L 108.964844 165.003906 L 111.609375 168.273438 L 112.355469 170.324219 L 112.300781 173.941406 L 111.832031 177.386719 L 112.054688 181.640625 L 117.5 184.859375 L 120.773438 183.445313 L 123.167969 184.417969 L 122.46875 186.839844 L 119.148438 190.25 L 118.089844 190.683594 L 116.035156 193.449219 L 114.023438 194.042969 L 113.570313 192.609375 L 115.183594 189.4375 L 113.980469 187.324219 L 112.75 189.558594 L 110.542969 187.414063 L 107.277344 187.777344 Z M 130.765625 156.492188 L 130.847656 157.015625 L 130.847656 160.890625 L 130.488281 162.902344 L 129.46875 165.671875 L 129.445313 167.71875 L 131.363281 173.964844 L 131.988281 175.03125 L 133.195313 176.347656 L 134.171875 177.800781 L 134.667969 179.480469 L 134.644531 181.234375 L 134.097656 182.898438 L 133.082031 184.324219 L 131.6875 185.382813 L 130.042969 185.980469 L 128.089844 186.367188 L 127.023438 186.851563 L 123.917969 189.492188 L 122.863281 188.511719 L 123.117188 185.351563 L 125.410156 184.53125 L 125.660156 184.984375 L 127.679688 186.175781 L 128.171875 186.347656 L 128.714844 185.882813 L 126.332031 183.683594 L 124.980469 183.324219 L 124.4375 181.292969 L 125.035156 181.238281 L 127.738281 179.023438 L 128.101563 177.597656 L 126.824219 178.363281 L 120.484375 180.664063 L 119.382813 179.570313 L 118.449219 174.53125 L 119.414063 170.535156 L 120.097656 170.289063 L 120.859375 170.738281 L 121.429688 171.886719 L 123.644531 173.570313 L 124.390625 172.890625 L 127 172.59375 L 126.421875 171.808594 L 123.910156 171.675781 L 123.300781 171.917969 L 120.253906 167.773438 L 120.550781 159.835938 L 121.035156 158.421875 L 122.082031 157.9375 L 122.960938 157.902344 L 123.679688 158.9375 L 124.035156 161.566406 L 125.066406 162.535156 L 125.355469 162.453125 L 126.003906 159.773438 L 125.019531 158.757813 L 124.640625 157.636719 L 124.695313 156.6875 L 125.515625 155.699219 L 128.898438 158.675781 L 129.609375 156.898438 Z M 122.816406 190.492188 L 122.328125 191.203125 L 121.839844 192.414063 L 121.640625 193.597656 L 121.691406 194.792969 L 121.804688 195.214844 L 119.445313 193.175781 L 119.640625 191.949219 L 120.992188 190.507813 L 122.769531 190.464844 Z M 122.195313 196.460938 L 123.265625 198.742188 L 123.992188 199.714844 L 124.976563 200.570313 L 126.023438 201.140625 L 127.167969 201.484375 L 130.550781 201.742188 L 132.375 201.613281 L 134.191406 201.773438 L 135.867188 202.484375 L 137.242188 203.679688 L 138.179688 205.242188 L 138.585938 207.015625 L 138.425781 208.832031 L 137.710938 210.507813 L 136.511719 211.878906 L 135.03125 213.117188 L 134.308594 214.046875 L 133.746094 215.226563 L 133.476563 216.390625 L 133.453125 217.601563 L 133.488281 217.792969 L 131.898438 219.546875 L 131.125 219.644531 L 127.28125 218.265625 L 127.882813 216.460938 L 128.195313 216.742188 L 128.945313 216.671875 L 131.070313 215.113281 L 129.507813 214.882813 L 128.550781 215.441406 L 127.980469 214.949219 L 127.875 213.785156 L 129.65625 210.6875 L 134.21875 205.03125 L 134.59375 204.003906 L 123.476563 215.398438 L 120.675781 217.269531 L 120.230469 216.390625 L 115.878906 214.433594 L 114.8125 213.664063 L 113.113281 211.414063 L 113.132813 210.632813 L 113.96875 210.082031 L 116.167969 209.980469 L 120.585938 209.09375 L 123.988281 209.15625 L 124.257813 209.050781 L 124.117188 208.789063 L 119.15625 207.757813 L 117.03125 209.015625 L 115.34375 209.1875 L 108.898438 208.554688 L 108.144531 207.871094 L 107.96875 206.789063 L 109.109375 205.527344 L 114.792969 204.496094 L 115.882813 205.636719 L 117.070313 206.34375 L 118.480469 204.378906 L 117.316406 203.507813 L 117.253906 202.640625 L 119.675781 202.136719 L 120.503906 202.316406 L 121.824219 201.292969 L 121.664063 200.792969 L 120.140625 199.953125 L 116.804688 200.417969 L 115.804688 199.949219 L 118.253906 195.210938 L 118.835938 194.789063 L 120.441406 194.839844 L 120.773438 195.527344 Z M 133.550781 218.105469 L 133.679688 218.789063 L 134.144531 219.886719 L 135.261719 221.46875 L 136.089844 223.179688 L 136.320313 225.070313 L 135.929688 226.929688 L 134.960938 228.566406 L 133.511719 229.804688 L 131.746094 230.503906 L 129.84375 230.601563 L 128.015625 230.074219 L 125.660156 228.957031 L 122.023438 228.195313 L 122.070313 227.40625 L 122.761719 224.691406 L 124.160156 221.96875 L 126.660156 220.210938 L 128.792969 220.179688 L 129.328125 220.484375 L 131.4375 220.320313 Z M 121.667969 228.152344 L 120.695313 228.191406 L 120.976563 227.386719 L 121.816406 227.683594 Z M 115.34375 234.75 L 115.316406 235.054688 L 114.796875 237.007813 L 113.636719 238.664063 L 111.980469 239.824219 L 110.550781 240.492188 L 112.5625 237.15625 Z M 108.621094 241.808594 L 107.496094 242.382813 L 107.6875 244.066406 L 107.578125 246.453125 L 107.230469 248.183594 L 106.378906 249.730469 L 105.101563 250.953125 L 103.800781 251.59375 L 104.988281 247.472656 L 102.980469 247.105469 L 101.464844 249.738281 L 99.988281 251.246094 L 99.089844 251.691406 L 98.539063 251.066406 L 99.023438 248.875 L 100.660156 243.785156 L 102.445313 243.214844 L 103.882813 243.558594 L 106.871094 241.457031 L 108.433594 240.808594 L 108.667969 241.335938 Z M 147.425781 363.976563 L 146.109375 363.875 L 144.195313 361.613281 L 142.050781 357.363281 L 142.246094 352.273438 L 144.664063 351.183594 L 146.003906 350.957031 L 149.566406 352.007813 L 151.039063 355.578125 L 155.546875 356.503906 L 154.066406 358.859375 L 150.984375 360.816406 Z M 141.734375 358.875 L 141.003906 358.070313 L 139.230469 356.960938 L 138.828125 356.035156 L 139.253906 355.210938 L 140.597656 355.164063 L 141.484375 356.3125 L 142.226563 358.1875 Z M 137.933594 323.433594 L 137.675781 322.921875 L 139.816406 316.644531 L 142.300781 315.023438 L 144.765625 310.230469 L 145.863281 309.40625 L 149.046875 308.269531 L 150.203125 313.453125 L 147.847656 318.148438 L 145.3125 320.636719 L 141.859375 323.019531 L 139.824219 322.464844 Z M 286.679688 439.636719 L 283.058594 438.976563 L 282.164063 437.605469 L 282.484375 436.070313 L 286.839844 437.054688 L 287.960938 438.832031 Z M 136.210938 448.453125 L 135.929688 448.140625 L 136.109375 446.949219 L 136.398438 446.875 L 136.6875 448.207031 Z M 236.835938 466.113281 L 235.136719 465.644531 L 236.523438 463.683594 L 237.195313 464.164063 L 237.5 465.839844 Z M 228.117188 474.644531 L 222.296875 470.886719 L 220.207031 471.1875 L 221.476563 469.683594 L 227.316406 466.367188 L 232.550781 467.761719 L 234.171875 469.894531 L 231.242188 473.621094 L 229.960938 474.269531 Z M 88.429688 500.046875 L 88.566406 499.308594 L 88.941406 499.117188 L 89.34375 499.789063 Z M 116.21875 172.839844 L 115.832031 172.433594 L 115.832031 171.710938 L 116.085938 170.789063 L 116.59375 170.277344 L 116.765625 170.625 Z M 113.875 180.957031 L 113.53125 180.855469 L 113.277344 179.863281 L 113.640625 176.351563 L 114.757813 173.765625 L 115.464844 173.085938 L 116.03125 173.816406 L 115.367188 179.941406 L 114.945313 180.566406 Z M 116.207031 183.113281 L 115.0625 182.589844 L 114.59375 181.914063 L 114.695313 181.441406 L 115.34375 181.214844 L 116.664063 181.757813 L 116.886719 182.648438 Z M 100.703125 192.265625 L 100.25 191.921875 L 101.515625 191.273438 L 102.835938 191.832031 Z M 106.597656 197.398438 L 105.582031 196.804688 L 103.613281 194.261719 L 105.34375 192.390625 L 106.722656 192.214844 L 107.992188 192.835938 L 108.445313 193.703125 L 108.09375 196.351563 L 107.546875 197.015625 Z M 110.160156 200.433594 L 108.972656 199.578125 L 108.9375 198.890625 L 110.578125 197.179688 L 111.398438 197.769531 L 111.5 198.265625 L 111.128906 199.855469 Z M 96.976563 213.15625 L 96.5625 212.070313 L 98.742188 209.859375 L 101.351563 207.964844 L 102.617188 207.75 L 102.652344 208.195313 L 101.386719 210.445313 L 99.425781 212.117188 Z M 110.59375 209.929688 L 111.976563 210.636719 L 113.289063 212.988281 L 113.785156 214.699219 L 116.457031 215.945313 L 117.929688 216.300781 L 121.195313 219.144531 L 120.902344 221.207031 L 119.445313 223.339844 L 116.335938 225.03125 L 115.453125 224.539063 L 116.136719 223.339844 L 115.425781 223.117188 L 112.109375 224.96875 L 106.027344 226.585938 L 104.691406 226.273438 L 103.734375 224.277344 L 103.851563 223.371094 L 104.191406 223.09375 L 105.628906 223.050781 L 106.039063 223.617188 L 106.972656 224.074219 L 112.214844 222.164063 L 112.035156 221.589844 L 109.863281 222.445313 L 108.199219 222.488281 L 107.824219 221.539063 L 109.386719 219.472656 L 112.601563 217.957031 L 112.90625 216.820313 L 112.554688 216.699219 L 109.90625 217.519531 L 105.058594 214.074219 L 105.636719 211.667969 L 108.914063 210.140625 L 110.03125 209.789063 Z M 91.515625 217.839844 L 89.652344 217.246094 L 89.414063 215.113281 L 90.1875 214.519531 L 95.1875 213.382813 L 95.671875 214.59375 L 93.804688 214.847656 L 92.019531 216.296875 Z M 108.136719 218.074219 L 107.207031 217.691406 L 106.753906 217.160156 L 107.335938 216.378906 L 108.085938 216.507813 L 109.105469 217.519531 L 109.070313 217.820313 Z M 123.378906 222.417969 L 122.582031 222.078125 L 123.082031 221.191406 L 124.476563 221.046875 Z M 102.664063 224.511719 L 102.054688 224.097656 L 102.589844 223.230469 L 103.304688 222.808594 L 103.460938 223.023438 Z M 121.453125 227.109375 L 121.152344 226.972656 L 120.984375 225.621094 L 121.59375 224.800781 L 122.367188 224.816406 L 121.953125 226.621094 Z M 106.976563 236.632813 L 105.476563 236.191406 L 106.28125 234.464844 L 107.839844 232.910156 L 108.882813 232.734375 L 107.535156 236.1875 Z M 130.613281 263.773438 L 129.152344 263.667969 L 126.582031 261.613281 L 125.375 256.128906 L 125.988281 253.21875 L 128.179688 251.246094 L 129.539063 251.441406 L 131.390625 253.015625 L 132.984375 258.382813 L 133.019531 262.765625 L 132.308594 263.453125 Z M 130.613281 263.773438 "/>
<path style=" stroke:none;fill-rule:nonzero;fill:rgb(80.392157%,58.431373%,4.705882%);fill-opacity:1;" d="M 157.984375 203.539063 L 157.699219 205.335938 L 156.875 206.957031 L 155.585938 208.242188 L 153.964844 209.070313 L 152.167969 209.355469 L 150.371094 209.070313 L 148.75 208.242188 L 147.464844 206.957031 L 146.636719 205.335938 L 146.355469 203.539063 L 146.636719 201.742188 L 147.464844 200.121094 L 148.75 198.832031 L 150.371094 198.007813 L 152.167969 197.722656 L 153.964844 198.007813 L 155.585938 198.832031 L 156.875 200.121094 L 157.699219 201.742188 Z M 157.984375 203.539063 "/>
<path style=" stroke:none;fill-rule:nonzero;fill:rgb(80.392157%,58.431373%,4.705882%);fill-opacity:1;" d="M 203.359375 203.117188 L 202.109375 204.367188 L 200.488281 205.191406 L 198.691406 205.476563 L 196.894531 205.191406 L 195.273438 204.367188 L 193.988281 203.078125 L 193.160156 201.457031 L 192.875 199.660156 L 193.160156 197.863281 L 193.988281 196.242188 L 195.273438 194.957031 L 196.894531 194.128906 L 198.691406 193.847656 L 200.488281 194.128906 L 202.109375 194.957031 L 203.398438 196.242188 L 204.222656 197.863281 L 204.28125 198.242188 L 203.9375 198.859375 L 203.765625 200.121094 L 204.023438 201.304688 Z M 203.359375 203.117188 "/>
<path style=" stroke:none;fill-rule:nonzero;fill:rgb(80.392157%,58.431373%,4.705882%);fill-opacity:1;" d="M 184.234375 135.527344 L 183.183594 135.691406 L 181.386719 135.40625 L 179.765625 134.582031 L 178.480469 133.296875 L 177.652344 131.675781 L 177.371094 129.875 L 177.574219 128.59375 L 177.664063 128.609375 L 178 127.714844 L 177.894531 127.609375 L 178.480469 126.457031 L 179.019531 125.917969 L 185.5625 126.683594 L 184.539063 134.8125 Z M 184.234375 135.527344 "/>
<path style=" stroke:none;fill-rule:nonzero;fill:rgb(80.392157%,58.431373%,4.705882%);fill-opacity:1;" d="M 107.585938 137.628906 L 107.300781 139.429688 L 106.472656 141.050781 L 105.1875 142.335938 L 103.566406 143.160156 L 101.769531 143.445313 L 99.972656 143.160156 L 98.53125 142.429688 L 98.964844 142.257813 L 100.179688 142.804688 L 100.34375 142.296875 L 99.09375 139.5 L 98.9375 138.609375 L 99.460938 137.6875 L 102.429688 135.863281 L 102.902344 135.917969 L 103 136.214844 L 105.253906 135.441406 L 106.5625 134.386719 L 107.300781 135.832031 Z M 97.832031 141.816406 L 97.417969 141.402344 L 97.21875 139.679688 L 98.019531 139.84375 L 99.277344 141.320313 L 99.230469 141.953125 L 98.214844 141.941406 Z M 97.832031 141.816406 "/>
<path style=" stroke:none;fill-rule:nonzero;fill:rgb(80.392157%,58.431373%,4.705882%);fill-opacity:1;" d="M 175.050781 145.375 L 174.601563 144.925781 L 173.777344 143.304688 L 173.492188 141.507813 L 173.777344 139.710938 L 174.601563 138.089844 L 175.890625 136.804688 L 177.511719 135.976563 L 179.308594 135.691406 L 181.105469 135.976563 L 182.726563 136.804688 L 183.398438 137.476563 L 182.976563 138.457031 L 180.960938 141.226563 L 177.402344 142.480469 L 176.097656 143.761719 Z M 175.050781 145.375 "/>
<path style=" stroke:none;fill-rule:nonzero;fill:rgb(80.392157%,58.431373%,4.705882%);fill-opacity:1;" d="M 161.855469 129.902344 L 161.578125 131.675781 L 160.75 133.296875 L 159.464844 134.582031 L 157.84375 135.40625 L 156.046875 135.691406 L 154.25 135.40625 L 152.628906 134.582031 L 151.339844 133.296875 L 150.515625 131.675781 L 150.230469 129.875 L 150.40625 128.769531 L 150.597656 128.644531 L 152.578125 129.367188 L 153.359375 129.816406 L 153.609375 130.328125 L 157.023438 130.710938 L 161.488281 129.921875 Z M 161.855469 129.902344 "/>
<path style=" stroke:none;fill-rule:nonzero;fill:rgb(80.392157%,58.431373%,4.705882%);fill-opacity:1;" d="M 165.738281 129.875 L 165.453125 131.675781 L 164.628906 133.296875 L 163.339844 134.582031 L 161.71875 135.40625 L 159.921875 135.691406 L 158.125 135.40625 L 156.503906 134.582031 L 155.21875 133.296875 L 154.390625 131.675781 L 154.1875 130.394531 L 157.023438 130.710938 L 161.488281 129.921875 L 165.714844 129.730469 Z M 165.738281 129.875 "/>
<path style=" stroke:none;fill-rule:nonzero;fill:rgb(80.392157%,58.431373%,4.705882%);fill-opacity:1;" d="M 184.953125 131.535156 L 183.183594 131.816406 L 181.386719 131.53125 L 179.765625 130.703125 L 178.480469 129.417969 L 177.835938 128.152344 L 178 127.714844 L 177.574219 127.28125 L 177.542969 127.097656 L 177.972656 125.796875 L 185.5625 126.683594 Z M 180.609375 120.867188 L 181.386719 120.46875 L 182.949219 120.222656 L 182.941406 120.441406 L 180.816406 120.886719 Z M 185.980469 120.976563 L 186.601563 121.296875 L 187.890625 122.582031 L 187.9375 122.679688 L 187.910156 122.796875 L 187.335938 122.957031 L 186.4375 122.070313 Z M 185.980469 120.976563 "/>
</g>
</svg>
