<?xml version="1.0" encoding="UTF-8"?>
<svg xmlns="http://www.w3.org/2000/svg" xmlns:xlink="http://www.w3.org/1999/xlink" width="378pt" height="504pt" viewBox="0 0 378 504" version="1.1">
<g id="data">
<rect x="0" y="0" width="378" height="504" style="fill:rgb(100%,100%,100%);fill-opacity:1;stroke:none;"/>
<path style=" stroke:none;fill-rule:nonzero;fill:rgb(100%,100%,100%);fill-opacity:1;" d="M 53.308594 504 L 324.691406 504 L 324.691406 0 L 53.308594 0 Z M 53.308594 504 "/>
<path style=" stroke:none;fill-rule:nonzero;fill:rgb(22.745098%,53.333333%,16.078431%);fill-opacity:1;" d="M 286.441406 444.585938 L 287.863281 443.90625 L 287.863281 447.785156 Z M 252.96875 443.90625 L 255.695313 443.351563 L 258.210938 442.160156 L 256.847656 443.90625 L 254.136719 444.460938 L 251.742188 445.570313 Z M 223.890625 447.621094 L 221.953125 447.785156 L 220.886719 447.347656 L 218.703125 446.015625 L 216.945313 444.339844 L 215.636719 442.441406 L 214.765625 440.449219 L 214.28125 438.328125 L 214.199219 436.152344 L 214.875 440.058594 L 216.90625 443.613281 L 220.042969 446.242188 Z M 223.890625 447.621094 "/>
</g>
</svg>
