<?xml version="1.0" encoding="UTF-8"?>
<svg xmlns="http://www.w3.org/2000/svg" xmlns:xlink="http://www.w3.org/1999/xlink" width="378pt" height="504pt" viewBox="0 0 378 504" version="1.1">
<g id="data">
<rect x="0" y="0" width="378" height="504" style="fill:rgb(100%,100%,100%);fill-opacity:1;stroke:none;"/>
<path style=" stroke:none;fill-rule:nonzero;fill:rgb(100%,100%,100%);fill-opacity:1;" d="M 53.308594 504 L 324.691406 504 L 324.691406 0 L 53.308594 0 Z M 53.308594 504 "/>
<path style=" stroke:none;fill-rule:nonzero;fill:rgb(22.745098%,53.333333%,16.078431%);fill-opacity:1;" d="M 253.957031 443.785156 L 256.164063 443.183594 L 258.210938 442.160156 L 256.847656 443.90625 Z M 253.957031 443.785156 "/>
<path style=" stroke:none;fill-rule:nonzero;fill:rgb(80.392157%,58.431373%,4.705882%);fill-opacity:1;" d="M 208.382813 350.863281 L 208.101563 352.660156 L 207.273438 354.28125 L 205.988281 355.566406 L 204.367188 356.390625 L 202.570313 356.675781 L 200.773438 356.390625 L 199.152344 355.566406 L 197.863281 354.28125 L 197.039063 352.660156 L 196.753906 350.863281 L 197.039063 349.066406 L 197.863281 347.441406 L 199.152344 346.15625 L 200.773438 345.332031 L 202.570313 345.046875 L 204.367188 345.332031 L 205.988281 346.15625 L 207.273438 347.441406 L 208.101563 349.066406 Z M 208.382813 350.863281 "/>
<path style=" stroke:none;fill-rule:nonzero;fill:rgb(80.392157%,58.431373%,4.705882%);fill-opacity:1;" d="M 227.769531 447.785156 L 227.484375 449.582031 L 226.660156 451.203125 L 225.371094 452.488281 L 223.75 453.316406 L 221.953125 453.601563 L 220.15625 453.316406 L 218.535156 452.488281 L 217.25 451.203125 L 216.421875 449.582031 L 216.136719 447.785156 L 216.421875 445.988281 L 217.25 444.367188 L 218.535156 443.078125 L 220.15625 442.253906 L 221.953125 441.96875 L 223.75 442.253906 L 225.371094 443.078125 L 226.660156 444.367188 L 227.484375 445.988281 Z M 227.769531 447.785156 "/>
<path style=" stroke:none;fill-rule:nonzero;fill:rgb(80.392157%,58.431373%,4.705882%);fill-opacity:1;" d="M 235.523438 447.785156 L 235.238281 449.582031 L 234.414063 451.203125 L 233.125 452.488281 L 231.503906 453.316406 L 229.707031 453.601563 L 227.910156 453.316406 L 226.289063 452.488281 L 225.003906 451.203125 L 224.175781 449.582031 L 223.890625 447.785156 L 224.175781 445.988281 L 225.003906 444.367188 L 226.289063 443.078125 L 227.910156 442.253906 L 229.707031 441.96875 L 231.503906 442.253906 L 233.125 443.078125 L 234.414063 444.367188 L 235.238281 445.988281 Z M 235.523438 447.785156 "/>
<path style=" stroke:none;fill-rule:nonzero;fill:rgb(80.392157%,58.431373%,4.705882%);fill-opacity:1;" d="M 212.261719 424.523438 L 211.976563 426.320313 L 211.152344 427.941406 L 209.863281 429.226563 L 208.242188 430.054688 L 206.445313 430.339844 L 204.648438 430.054688 L 203.027344 429.226563 L 201.742188 427.941406 L 200.914063 426.320313 L 200.628906 424.523438 L 200.914063 422.726563 L 201.742188 421.105469 L 203.027344 419.816406 L 204.648438 418.992188 L 206.445313 418.707031 L 208.242188 418.992188 L 209.863281 419.816406 L 211.152344 421.105469 L 211.976563 422.726563 Z M 212.261719 424.523438 "/>
<path style=" stroke:none;fill-rule:nonzero;fill:rgb(80.392157%,58.431373%,4.705882%);fill-opacity:1;" d="M 278.167969 440.03125 L 277.882813 441.828125 L 277.058594 443.449219 L 275.773438 444.734375 L 274.152344 445.5625 L 272.355469 445.847656 L 270.558594 445.5625 L 268.9375 444.734375 L 267.648438 443.449219 L 266.824219 441.828125 L 266.539063 440.03125 L 266.824219 438.234375 L 267.648438 436.613281 L 268.9375 435.324219 L 270.558594 434.5 L 272.355469 434.214844 L 274.097656 434.492188 L 272.609375 436.117188 L 274.253906 436.015625 L 274.980469 434.921875 L 275.773438 435.324219 L 277.058594 436.613281 L 277.542969 437.566406 Z M 278.167969 440.03125 "/>
<path style=" stroke:none;fill-rule:nonzero;fill:rgb(80.392157%,58.431373%,4.705882%);fill-opacity:1;" d="M 293.675781 443.90625 L 293.390625 445.703125 L 292.566406 447.324219 L 291.28125 448.613281 L 289.660156 449.4375 L 287.863281 449.722656 L 286.066406 449.4375 L 284.441406 448.613281 L 283.15625 447.324219 L 282.332031 445.703125 L 282.046875 443.90625 L 282.332031 442.109375 L 283.15625 440.488281 L 284.019531 439.625 L 286.863281 440.339844 L 289.394531 439.9375 L 290.941406 439.03125 L 292.566406 440.488281 L 293.390625 442.109375 Z M 284.421875 439.226563 L 286.066406 438.375 L 287.527344 438.144531 L 287.960938 438.832031 L 286.679688 439.636719 Z M 284.421875 439.226563 "/>
</g>
</svg>
