<?xml version="1.0" encoding="UTF-8"?>
<svg xmlns="http://www.w3.org/2000/svg" xmlns:xlink="http://www.w3.org/1999/xlink" width="378pt" height="504pt" viewBox="0 0 378 504" version="1.1">
<g id="data">
<rect x="0" y="0" width="378" height="504" style="fill:rgb(100%,100%,100%);fill-opacity:1;stroke:none;"/>
<path style=" stroke:none;fill-rule:nonzero;fill:rgb(100%,100%,100%);fill-opacity:1;" d="M 53.308594 504 L 324.691406 504 L 324.691406 0 L 53.308594 0 Z M 53.308594 504 "/>
<path style=" stroke:none;fill-rule:nonzero;fill:rgb(22.745098%,53.333333%,16.078431%);fill-opacity:1;" d="M 227.808594 374.808594 L 227.855469 373.136719 L 228.371094 371.546875 L 229.320313 370.171875 L 230.492188 368.90625 L 231.046875 368.007813 L 231.429688 367.023438 L 231.738281 365.328125 L 232.316406 363.660156 L 233.363281 362.242188 L 234.789063 361.207031 L 236.457031 360.640625 L 238.21875 360.605469 L 239.914063 361.097656 L 241.378906 362.074219 L 243.140625 363.679688 L 244.535156 364.378906 L 246.179688 364.683594 L 248.535156 364.457031 L 250.363281 364.570313 L 252.0625 365.246094 L 253.46875 366.417969 L 254.445313 367.96875 L 254.886719 369.746094 L 255.101563 372.246094 L 255.660156 373.699219 L 256.679688 375.039063 L 258.023438 376.03125 L 259.054688 376.460938 L 260.246094 376.683594 L 261.460938 376.652344 L 263.238281 376.222656 L 265.160156 376.089844 L 265.40625 376.15625 L 266.9375 378.226563 L 269.714844 378.71875 L 270.0625 379.050781 L 271.226563 379.730469 L 272.402344 380.105469 L 273.757813 380.210938 L 278.164063 379.558594 L 279.050781 379.175781 L 279.96875 378.539063 L 280.871094 377.570313 L 281.484375 376.542969 L 281.867188 375.40625 L 282.082031 373.480469 L 282.742188 371.363281 L 283.550781 370.375 L 284.253906 370.867188 L 286.703125 370.742188 L 293.949219 371.515625 L 296.199219 372.523438 L 295.84375 374.148438 L 294.777344 376.804688 L 294.679688 378.691406 L 295.207031 380.523438 L 296.269531 382.054688 L 297.527344 383.035156 L 299.304688 383.730469 L 303.324219 384.445313 L 304.253906 384.386719 L 305.828125 383.992188 L 306.648438 383.914063 L 306.730469 384.164063 L 307.179688 391.25 L 306.777344 393.191406 L 306.890625 393.976563 L 305.789063 396.917969 L 303.679688 407.070313 L 301.382813 407.269531 L 299.921875 407.832031 L 298.667969 408.773438 L 297.558594 410.246094 L 296.367188 412.886719 L 296.308594 413.1875 L 295.578125 412.011719 L 292.742188 410.515625 L 292.480469 410.636719 L 293.898438 413.703125 L 295.890625 416.628906 L 296.3125 416.765625 L 296.164063 417.742188 L 294.574219 419.804688 L 292.191406 421.289063 L 290.003906 421.65625 L 289.660156 421.574219 L 288.214844 419.332031 L 284.976563 421.730469 L 280.71875 424.230469 L 282.339844 425.378906 L 285.105469 424.398438 L 286.097656 423.375 L 286.894531 423.164063 L 287.328125 423.710938 L 287.632813 428.84375 L 285.6875 430.875 L 283.441406 432.558594 L 282.84375 432.699219 L 279.644531 432.160156 L 274.75 433.78125 L 272.609375 436.117188 L 274.253906 436.015625 L 275.152344 434.667969 L 276.683594 434.363281 L 278.285156 434.328125 L 281.054688 434.949219 L 281.828125 435.589844 L 281.691406 436.328125 L 279.554688 436.347656 L 277.390625 437.65625 L 277.96875 438.546875 L 281.382813 438.964844 L 286.863281 440.339844 L 289.394531 439.9375 L 291.074219 438.957031 L 296.652344 438.183594 L 296.695313 438.191406 L 298.355469 438.777344 L 299.769531 439.835938 L 300.796875 441.269531 L 300.933594 441.683594 L 300.773438 446.324219 L 300.335938 447.820313 L 299.394531 449.050781 L 296.972656 450.242188 L 295.839844 450.375 L 292.621094 451.640625 L 291.179688 452.742188 L 289.847656 454.226563 L 289.460938 455.09375 L 289.214844 456.324219 L 289.464844 457.886719 L 286.253906 458.289063 L 284.1875 457.9375 L 281.042969 460.90625 L 278.484375 461.933594 L 274.789063 462.777344 L 272.597656 463.816406 L 270.539063 466.589844 L 269.761719 466.949219 L 259.269531 463.777344 L 256.070313 463.507813 L 244.628906 465.699219 L 242.703125 466.390625 L 242.113281 466.964844 L 241.902344 467.984375 L 241.359375 468.164063 L 238.210938 466.1875 L 238.632813 465.4375 L 239.46875 464.933594 L 237.714844 463.296875 L 231.496094 463.171875 L 231.378906 463.496094 L 232.574219 464.835938 L 232.214844 465.75 L 231.738281 466.042969 L 226.691406 465.496094 L 219.566406 468.449219 L 217.054688 467.824219 L 216.164063 467.976563 L 215.777344 465.347656 L 215.121094 463.984375 L 214.035156 462.757813 L 212.894531 462 L 211.652344 461.546875 L 209.648438 461.316406 L 208.714844 461.128906 L 205.980469 460.339844 L 203.851563 460.460938 L 202.734375 460.863281 L 201.675781 461.542969 L 200.777344 462.445313 L 200.101563 463.527344 L 199.679688 464.726563 L 199.53125 465.976563 L 199.679688 467.335938 L 200.308594 469.132813 L 200.628906 470.863281 L 200.445313 472.367188 L 197.625 472.007813 L 196.175781 472.65625 L 195.679688 473.863281 L 195.832031 474.871094 L 196.757813 475.523438 L 196.488281 476.304688 L 195.917969 475.996094 L 194.851563 473.972656 L 190.289063 470.589844 L 185.898438 468.519531 L 183.121094 467.984375 L 181.648438 469.066406 L 176.207031 469.78125 L 174.339844 470.335938 L 168.992188 473.234375 L 168.214844 474.070313 L 167.203125 476.179688 L 164.550781 483.941406 L 163.964844 483.542969 L 162.832031 482.042969 L 162.234375 480.257813 L 161.941406 478.460938 L 161.550781 477.425781 L 160.898438 476.398438 L 159.636719 475.105469 L 158.632813 473.714844 L 158.078125 472.085938 L 157.769531 470.390625 L 157.394531 469.421875 L 156.769531 468.433594 L 155.679688 467.269531 L 154.628906 465.695313 L 154.136719 463.867188 L 154.257813 461.980469 L 154.980469 460.230469 L 156.222656 458.804688 L 157.859375 457.855469 L 159.714844 457.480469 L 161.589844 457.722656 L 164.152344 458.488281 L 165.921875 458.457031 L 167.597656 457.886719 L 169.019531 456.835938 L 170.066406 455.390625 L 170.59375 453.800781 L 170.628906 452.015625 L 169.859375 449.453125 L 169.617188 447.671875 L 169.644531 447.519531 L 170.039063 448.109375 L 170.757813 448.421875 L 173.15625 448.464844 L 180.570313 447.503906 L 181.109375 445.632813 L 181.210938 443.15625 L 181.609375 442.269531 L 182.65625 442.445313 L 183.964844 442.3125 L 185.835938 441.53125 L 187.152344 440.378906 L 188.320313 438.273438 L 188.507813 437.472656 L 188.542969 436.644531 L 188.117188 434.847656 L 190.867188 432.195313 L 195.792969 425.3125 L 197.929688 424.472656 L 198.285156 423.78125 L 198.070313 423.238281 L 197.8125 423.082031 L 196.09375 424.355469 L 192.90625 427.300781 L 190.570313 429.988281 L 189.222656 431.449219 L 186.769531 432.480469 L 186.484375 432.140625 L 185.480469 430.414063 L 185.125 428.449219 L 185.449219 426.476563 L 186.421875 424.734375 L 188.308594 422.410156 L 188.746094 421.40625 L 189.105469 419.542969 L 189.585938 418.101563 L 190.421875 416.835938 L 191.910156 415.121094 L 192.542969 413.820313 L 193.015625 411.089844 L 192.878906 405.273438 L 193.113281 403.5 L 193.875 401.878906 L 195.097656 400.566406 L 196.722656 399.289063 L 198 397.667969 L 199.347656 396.421875 L 201.015625 395.65625 L 202.839844 395.453125 L 204.636719 395.828125 L 207.222656 396.808594 L 209.210938 396.898438 L 210.25 396.664063 L 211.804688 395.960938 L 213.28125 395.519531 L 214.820313 395.480469 L 217 395.714844 L 218.472656 395.496094 L 219.691406 395 L 220.78125 394.234375 L 222.941406 391.980469 L 223.796875 390.410156 L 224.136719 388.730469 L 223.917969 386.277344 L 223.984375 384.71875 L 224.464844 383.234375 L 225.324219 381.929688 L 227.128906 379.863281 L 227.914063 377.976563 L 228.046875 376.796875 Z M 286.679688 439.636719 L 283.058594 438.976563 L 282.164063 437.605469 L 282.484375 436.070313 L 286.839844 437.054688 L 287.960938 438.832031 Z M 236.835938 466.113281 L 235.136719 465.644531 L 236.523438 463.683594 L 237.195313 464.164063 L 237.5 465.839844 Z M 228.117188 474.644531 L 222.296875 470.886719 L 220.207031 471.1875 L 221.476563 469.683594 L 227.316406 466.367188 L 232.550781 467.761719 L 234.171875 469.894531 L 231.242188 473.621094 L 229.960938 474.269531 Z M 228.117188 474.644531 "/>
<path style=" stroke:none;fill-rule:nonzero;fill:rgb(80.392157%,58.431373%,4.705882%);fill-opacity:1;" d="M 204.507813 335.355469 L 204.222656 337.152344 L 203.398438 338.773438 L 202.109375 340.058594 L 200.488281 340.882813 L 198.691406 341.167969 L 196.894531 340.882813 L 195.273438 340.058594 L 193.988281 338.773438 L 193.160156 337.152344 L 192.875 335.355469 L 193.160156 333.558594 L 193.988281 331.9375 L 195.273438 330.648438 L 196.894531 329.824219 L 198.691406 329.539063 L 200.488281 329.824219 L 202.109375 330.648438 L 203.398438 331.9375 L 204.222656 333.558594 Z M 204.507813 335.355469 "/>
<path style=" stroke:none;fill-rule:nonzero;fill:rgb(80.392157%,58.431373%,4.705882%);fill-opacity:1;" d="M 251.03125 346.984375 L 250.746094 348.78125 L 249.921875 350.402344 L 248.632813 351.6875 L 247.011719 352.515625 L 245.214844 352.800781 L 243.417969 352.515625 L 241.796875 351.6875 L 240.511719 350.402344 L 239.683594 348.78125 L 239.398438 346.984375 L 239.683594 345.1875 L 240.511719 343.566406 L 241.796875 342.28125 L 243.417969 341.453125 L 245.214844 341.167969 L 247.011719 341.453125 L 248.632813 342.28125 L 249.921875 343.566406 L 250.746094 345.1875 Z M 251.03125 346.984375 "/>
<path style=" stroke:none;fill-rule:nonzero;fill:rgb(80.392157%,58.431373%,4.705882%);fill-opacity:1;" d="M 181.246094 381.875 L 180.960938 383.675781 L 180.136719 385.296875 L 178.847656 386.582031 L 177.226563 387.40625 L 175.429688 387.691406 L 173.632813 387.40625 L 172.011719 386.582031 L 170.726563 385.296875 L 169.898438 383.675781 L 169.617188 381.875 L 169.898438 380.078125 L 170.726563 378.457031 L 172.011719 377.171875 L 173.632813 376.347656 L 175.429688 376.0625 L 177.226563 376.347656 L 178.847656 377.171875 L 180.136719 378.457031 L 180.960938 380.078125 Z M 181.246094 381.875 "/>
<path style=" stroke:none;fill-rule:nonzero;fill:rgb(80.392157%,58.431373%,4.705882%);fill-opacity:1;" d="M 231.644531 339.230469 L 231.363281 341.027344 L 230.535156 342.648438 L 229.25 343.933594 L 227.628906 344.761719 L 225.832031 345.046875 L 224.035156 344.761719 L 222.414063 343.933594 L 221.125 342.648438 L 220.300781 341.027344 L 220.015625 339.230469 L 220.300781 337.433594 L 221.125 335.8125 L 222.414063 334.527344 L 224.035156 333.699219 L 225.832031 333.414063 L 227.628906 333.699219 L 229.25 334.527344 L 230.535156 335.8125 L 231.363281 337.433594 Z M 231.644531 339.230469 "/>
<path style=" stroke:none;fill-rule:nonzero;fill:rgb(80.392157%,58.431373%,4.705882%);fill-opacity:1;" d="M 124.851563 424.335938 L 125.488281 423.695313 L 127.109375 422.871094 L 128.90625 422.585938 L 130.703125 422.871094 L 131.132813 423.085938 L 130.640625 424.257813 L 127.769531 424.613281 Z M 131.355469 423.203125 L 132.324219 423.695313 L 133.613281 424.980469 L 134.4375 426.601563 L 134.597656 427.617188 L 133.742188 427.917969 L 132.394531 427.265625 L 131.648438 427.453125 L 129.4375 429.378906 L 126.53125 428.132813 L 127.425781 426.082031 L 128.796875 425.832031 L 131.792969 424.328125 Z M 131.355469 423.203125 "/>
</g>
</svg>
