<?xml version="1.0" encoding="UTF-8"?>
<svg xmlns="http://www.w3.org/2000/svg" xmlns:xlink="http://www.w3.org/1999/xlink" width="378pt" height="504pt" viewBox="0 0 378 504" version="1.1">
<g id="data">
<rect x="0" y="0" width="378" height="504" style="fill:rgb(100%,100%,100%);fill-opacity:1;stroke:none;"/>
<path style=" stroke:none;fill-rule:nonzero;fill:rgb(100%,100%,100%);fill-opacity:1;" d="M 53.308594 504 L 324.691406 504 L 324.691406 0 L 53.308594 0 Z M 53.308594 504 "/>
<path style=" stroke:none;fill-rule:nonzero;fill:rgb(22.745098%,53.333333%,16.078431%);fill-opacity:1;" d="M 146.148438 403.878906 L 146.351563 404.941406 L 146.136719 406.707031 L 145.398438 408.328125 L 144.207031 409.652344 L 142.265625 411.230469 L 140.101563 413.953125 L 139.40625 415.3125 L 139.097656 416.640625 L 139.132813 418.175781 L 139.601563 419.722656 L 140.398438 420.980469 L 142.179688 422.597656 L 142.957031 423.570313 L 144.113281 423.183594 L 147.363281 422.660156 L 149.402344 422.691406 L 151.304688 423.425781 L 152.839844 424.773438 L 153.96875 426.1875 L 154.96875 427.003906 L 156.128906 427.578125 L 157.128906 427.828125 L 159.109375 427.789063 L 161.824219 426.808594 L 163.367188 426.476563 L 164.941406 426.574219 L 167.386719 427.066406 L 168.933594 426.925781 L 170.886719 426.074219 L 172.292969 424.738281 L 173.167969 423.007813 L 173.535156 419.953125 L 173.992188 418.285156 L 174.925781 416.824219 L 176.242188 415.703125 L 177.835938 415.019531 L 179.558594 414.835938 L 181.257813 415.167969 L 184.460938 416.308594 L 185.28125 416.359375 L 186.136719 416.257813 L 190.261719 414.589844 L 192.054688 413.089844 L 192.875 411.75 L 193.453125 409.6875 L 193.476563 408.460938 L 193.015625 406.402344 L 192.957031 404.1875 L 193.347656 401.828125 L 193.171875 400.253906 L 192.578125 398.800781 L 191.550781 397.5 L 190.207031 396.546875 L 188.371094 395.921875 L 186.9375 395.933594 L 185.636719 396.238281 L 184.4375 396.832031 L 182.980469 398.015625 L 181.386719 398.9375 L 179.589844 399.316406 L 177.761719 399.113281 L 176.085938 398.351563 L 174.738281 397.101563 L 173.460938 395.480469 L 171.835938 394.203125 L 170.527344 392.757813 L 169.769531 390.964844 L 169.648438 389.019531 L 170.175781 387.144531 L 171.289063 385.546875 L 172.480469 384.339844 L 173.140625 383.324219 L 173.574219 382.207031 L 173.863281 380.425781 L 174.464844 378.640625 L 175.027344 377.902344 L 174.414063 377.421875 L 173.398438 375.921875 L 172.667969 374.363281 L 171.984375 373.445313 L 171.140625 372.675781 L 170.15625 372.089844 L 169.078125 371.707031 L 167.945313 371.546875 L 166.789063 371.609375 L 165.226563 372.007813 L 163.597656 372.179688 L 161.984375 371.894531 L 160.515625 371.167969 L 159.304688 370.058594 L 158.453125 368.660156 L 157.695313 366.882813 L 157.007813 365.925781 L 156.042969 365.046875 L 155.023438 364.464844 L 153.699219 364.050781 L 152.359375 363.945313 L 151.046875 364.148438 L 149.1875 364.898438 L 147.789063 365.222656 L 147.953125 364.523438 L 151.550781 360.582031 L 153.09375 359.609375 L 154.941406 359.808594 L 160.492188 357.457031 L 163.644531 357.28125 L 167.339844 357.714844 L 172.597656 355.179688 L 173.933594 355.046875 L 174.484375 355.082031 L 179.910156 359.441406 L 180.433594 358.429688 L 177.679688 353.460938 L 178.242188 352.835938 L 180.867188 352.449219 L 181.503906 352.695313 L 181.914063 353.875 L 182.898438 354.332031 L 184.078125 356.789063 L 185.023438 357.472656 L 184.011719 358.226563 L 183.265625 359.089844 L 182.445313 360.804688 L 182.214844 362.472656 L 182.640625 364.597656 L 184.242188 367.171875 L 185.03125 369.210938 L 185.007813 371.394531 L 184.363281 374.601563 L 183.730469 376.300781 L 183.242188 376.921875 L 184.046875 377.609375 L 185.011719 379.226563 L 185.921875 381.523438 L 186.914063 382.804688 L 188.324219 383.808594 L 190.128906 384.421875 L 191.65625 384.40625 L 193.46875 383.972656 L 195.332031 383.839844 L 197.140625 384.300781 L 198.710938 385.3125 L 199.878906 386.769531 L 201.367188 389.40625 L 203.054688 390.820313 L 204.476563 391.375 L 206.949219 391.589844 L 208.726563 392.035156 L 210.277344 393.007813 L 211.5625 394.136719 L 212.632813 394.738281 L 213.800781 395.109375 L 214.734375 395.203125 L 216.808594 394.859375 L 218.453125 393.980469 L 219.585938 392.832031 L 220.714844 390.742188 L 222.148438 389.003906 L 223.480469 387.917969 L 224.160156 387.078125 L 224.953125 385.308594 L 225.148438 383.625 L 224.839844 381.957031 L 224.011719 380.390625 L 220.78125 377.269531 L 219.339844 376.359375 L 217.441406 375.851563 L 214.597656 376.046875 L 212.871094 375.90625 L 211.261719 375.265625 L 209.914063 374.175781 L 208.945313 372.738281 L 208.445313 371.082031 L 208.453125 369.351563 L 208.972656 367.695313 L 209.957031 366.269531 L 211.046875 365.105469 L 211.660156 364.128906 L 212.074219 363.054688 L 212.351563 361.484375 L 212.933594 359.773438 L 214.015625 358.328125 L 215.488281 357.285156 L 217.210938 356.742188 L 219.015625 356.753906 L 220.730469 357.316406 L 222.1875 358.378906 L 223.253906 359.839844 L 224.179688 361.644531 L 224.976563 362.59375 L 226.058594 363.40625 L 227.28125 363.945313 L 228.597656 364.183594 L 229.929688 364.117188 L 231.230469 363.738281 L 232.242188 363.171875 L 234.199219 361.300781 L 235.175781 359.546875 L 235.59375 357.488281 L 235.523438 354.894531 L 235.691406 353.347656 L 236.105469 351.667969 L 236.148438 350.769531 L 235.628906 348.09375 L 235.53125 346.703125 L 235.636719 344.515625 L 235.164063 341.316406 L 234.433594 339.835938 L 233.21875 338.566406 L 231.5 337.65625 L 228.777344 337.21875 L 227.402344 336.816406 L 225.714844 336.085938 L 224.796875 335.898438 L 222.734375 336.023438 L 219.996094 337.171875 L 218.304688 337.597656 L 216.566406 337.503906 L 214.933594 336.902344 L 213.554688 335.839844 L 212.546875 334.421875 L 212.007813 332.765625 L 211.980469 331.023438 L 212.472656 329.355469 L 213.433594 327.289063 L 213.699219 325.710938 L 213.523438 324.121094 L 212.675781 322.003906 L 212.273438 320.21875 L 212.445313 318.398438 L 213.171875 316.71875 L 214.386719 315.351563 L 215.96875 314.425781 L 217.671875 313.765625 L 218.683594 313.097656 L 219.539063 312.234375 L 220.191406 311.210938 L 220.617188 310.074219 L 220.796875 308.875 L 220.722656 307.664063 L 220.230469 305.902344 L 220.015625 304.210938 L 220.304688 302.53125 L 221.066406 301.007813 L 222.234375 299.765625 L 223.859375 298.492188 L 225.136719 296.867188 L 226.410156 295.671875 L 226.828125 295.46875 L 229.304688 299.0625 L 238.917969 303.546875 L 238.796875 304.191406 L 238.996094 305.875 L 239.683594 307.425781 L 240.984375 308.90625 L 241.734375 309.421875 L 242.730469 309.855469 L 243.789063 310.097656 L 245.425781 310.15625 L 247.273438 310.542969 L 249.289063 315.722656 L 252.390625 319.148438 L 256.121094 320.875 L 257.207031 321.722656 L 254.738281 323.09375 L 253.890625 324.554688 L 253.765625 325.996094 L 254.984375 329.992188 L 256.160156 332.453125 L 263.316406 342.46875 L 263.640625 343.980469 L 262.804688 345.191406 L 263.28125 343.65625 L 262.507813 342.839844 L 260.445313 342 L 258.378906 342.789063 L 257.507813 342.753906 L 256.035156 341.773438 L 253.664063 338.65625 L 252.601563 338.082031 L 245.550781 339.511719 L 244.589844 338.644531 L 243.40625 338.558594 L 241.210938 339.871094 L 241.886719 340.445313 L 246.324219 340.394531 L 249.617188 339.34375 L 251.976563 339.082031 L 254.382813 342.558594 L 260.535156 347.621094 L 263.042969 349.058594 L 263.664063 349.039063 L 266.046875 352.214844 L 268.980469 359.304688 L 269.535156 362.402344 L 269.210938 365.21875 L 264.953125 369.09375 L 261.394531 373.164063 L 260.601563 374.816406 L 262.84375 374.3125 L 264.9375 375.519531 L 266.9375 378.226563 L 270.21875 378.804688 L 270.625 378.746094 L 271.910156 376.796875 L 272.234375 374.960938 L 273.40625 371.914063 L 274.707031 370.632813 L 277.851563 370.085938 L 283.34375 370.234375 L 284.253906 370.867188 L 286.703125 370.742188 L 293.949219 371.515625 L 296.914063 372.84375 L 304.070313 378.085938 L 305.367188 380.105469 L 306.730469 384.164063 L 307.179688 391.25 L 306.777344 393.191406 L 306.890625 393.976563 L 305.789063 396.917969 L 303.519531 407.832031 L 297.144531 414.53125 L 295.578125 412.011719 L 292.742188 410.515625 L 292.480469 410.636719 L 293.898438 413.703125 L 295.890625 416.628906 L 296.3125 416.765625 L 296.164063 417.742188 L 294.574219 419.804688 L 292.191406 421.289063 L 290.003906 421.65625 L 289.660156 421.574219 L 288.214844 419.332031 L 284.976563 421.730469 L 280.71875 424.230469 L 282.339844 425.378906 L 285.105469 424.398438 L 286.097656 423.375 L 286.894531 423.164063 L 287.328125 423.710938 L 287.632813 428.84375 L 285.6875 430.875 L 283.441406 432.558594 L 282.84375 432.699219 L 279.644531 432.160156 L 274.75 433.78125 L 272.609375 436.117188 L 274.253906 436.015625 L 275.152344 434.667969 L 276.683594 434.363281 L 278.285156 434.328125 L 281.054688 434.949219 L 281.828125 435.589844 L 281.691406 436.328125 L 279.554688 436.347656 L 277.390625 437.65625 L 277.96875 438.546875 L 281.382813 438.964844 L 286.863281 440.339844 L 289.394531 439.9375 L 291.074219 438.957031 L 299.742188 437.757813 L 300.988281 440.148438 L 300.773438 446.324219 L 300.335938 447.820313 L 299.394531 449.050781 L 296.972656 450.242188 L 295.839844 450.375 L 292.621094 451.640625 L 291.179688 452.742188 L 289.847656 454.226563 L 289.460938 455.09375 L 289.214844 456.324219 L 289.464844 457.886719 L 286.253906 458.289063 L 284.1875 457.9375 L 281.042969 460.90625 L 278.484375 461.933594 L 274.789063 462.777344 L 272.597656 463.816406 L 270.539063 466.589844 L 269.761719 466.949219 L 259.269531 463.777344 L 256.070313 463.507813 L 244.628906 465.699219 L 242.703125 466.390625 L 242.113281 466.964844 L 241.902344 467.984375 L 241.359375 468.164063 L 238.210938 466.1875 L 238.632813 465.4375 L 239.46875 464.933594 L 237.714844 463.296875 L 231.496094 463.171875 L 231.378906 463.496094 L 232.574219 464.835938 L 232.214844 465.75 L 231.738281 466.042969 L 226.691406 465.496094 L 219.566406 468.449219 L 217.054688 467.824219 L 210.222656 468.96875 L 208.164063 468.875 L 207.273438 468.058594 L 206.238281 469.769531 L 209.429688 471.089844 L 209.714844 470.9375 L 210.1875 472.128906 L 209.566406 473.890625 L 206.84375 474.453125 L 204.453125 473.097656 L 203.015625 472.699219 L 197.625 472.007813 L 196.175781 472.65625 L 195.679688 473.863281 L 195.832031 474.871094 L 196.757813 475.523438 L 196.488281 476.304688 L 195.917969 475.996094 L 194.851563 473.972656 L 190.289063 470.589844 L 185.898438 468.519531 L 183.121094 467.984375 L 181.648438 469.066406 L 176.207031 469.78125 L 174.339844 470.335938 L 168.992188 473.234375 L 168.214844 474.070313 L 167.203125 476.179688 L 162.746094 489.226563 L 160.929688 490.242188 L 158.269531 489.722656 L 157.554688 489.058594 L 156.527344 486.851563 L 154.683594 485.4375 L 153.613281 485.542969 L 152.417969 486.300781 L 151.738281 486.164063 L 148.46875 482.535156 L 142.796875 482.960938 L 141.527344 483.375 L 140.734375 484.175781 L 139.910156 484.507813 L 134.507813 484.320313 L 132.167969 484.859375 L 129.414063 488.195313 L 126.714844 489.746094 L 124.039063 490.597656 L 123.132813 494.289063 L 123.664063 495.292969 L 123.496094 496.125 L 122.722656 496.945313 L 120.660156 497.648438 L 119.628906 499.730469 L 118.675781 498.910156 L 117.96875 497.691406 L 118.09375 496.4375 L 117.15625 494.691406 L 115.984375 493.691406 L 112.253906 492.070313 L 111.410156 491.984375 L 110.375 492.488281 L 110.242188 494.183594 L 109.421875 495.128906 L 106.824219 495.664063 L 105.398438 494.824219 L 105.628906 491.574219 L 106.074219 490.5625 L 111.738281 488.078125 L 112.199219 488.253906 L 112.445313 488.9375 L 113.574219 489.15625 L 118.144531 485.910156 L 121.425781 483.085938 L 124.375 479.769531 L 125.210938 477.886719 L 124.875 476.421875 L 125.640625 474.519531 L 128.386719 473.238281 L 132.105469 472.640625 L 132.679688 471.785156 L 133.257813 469.527344 L 135.859375 467.5625 L 138.636719 464.640625 L 139.128906 458.542969 L 139.796875 454.753906 L 142.492188 455.105469 L 144.269531 456.015625 L 145.761719 455.429688 L 148.429688 452.488281 L 148.105469 447.519531 L 151.105469 446.613281 L 157.421875 446.269531 L 159.910156 445.683594 L 164.597656 446.761719 L 166.046875 446.148438 L 167.527344 446.515625 L 169.484375 447.285156 L 170.039063 448.109375 L 170.757813 448.421875 L 173.15625 448.464844 L 180.570313 447.503906 L 181.109375 445.632813 L 181.210938 443.15625 L 182.519531 440.25 L 190.867188 432.195313 L 195.792969 425.3125 L 197.929688 424.472656 L 198.285156 423.78125 L 198.070313 423.238281 L 197.8125 423.082031 L 196.09375 424.355469 L 192.90625 427.300781 L 190.570313 429.988281 L 189.222656 431.449219 L 185.628906 432.957031 L 183.714844 433.246094 L 182.441406 433.0625 L 178.394531 435.230469 L 177.398438 436.808594 L 177.039063 438.671875 L 176.445313 439.273438 L 174.058594 439.917969 L 170.558594 439.851563 L 166.820313 439 L 166.347656 438.652344 L 161.371094 433.375 L 159.03125 429.199219 L 155.65625 429.589844 L 149.269531 432.308594 L 149.113281 432.746094 L 147.203125 431.632813 L 146.917969 429.308594 L 148.539063 428.378906 L 150.066406 428.890625 L 151.640625 428.421875 L 152.765625 427.832031 L 153.085938 427.097656 L 152.808594 426.597656 L 147.785156 426.460938 L 143.210938 423.710938 L 139.503906 423.714844 L 136.765625 424.277344 L 136.292969 426.515625 L 135.777344 427.203125 L 133.742188 427.917969 L 132.394531 427.265625 L 131.648438 427.453125 L 129.4375 429.378906 L 126.53125 428.132813 L 127.425781 426.082031 L 128.796875 425.832031 L 131.792969 424.328125 L 131.226563 422.867188 L 130.640625 424.257813 L 127.769531 424.613281 L 122.949219 424.152344 L 121.496094 423.164063 L 124.125 421.78125 L 125.167969 421.753906 L 125.464844 421.238281 L 124.929688 417.953125 L 123.328125 417.210938 L 121.445313 417.105469 L 122.0625 415.152344 L 125.933594 413.378906 L 126.539063 411.90625 L 133.074219 411.34375 L 134.871094 409.289063 L 135.753906 407.632813 L 137.585938 406.550781 L 141.359375 406.660156 L 142.21875 406.390625 Z M 158.234375 473.199219 L 159.324219 472.738281 L 160.3125 472.042969 L 161.394531 470.78125 L 162.398438 468.609375 L 163.449219 467.054688 L 164.9375 465.914063 L 166.964844 464.832031 L 167.992188 463.867188 L 169.003906 462.066406 L 169.363281 459.980469 L 169.222656 458.816406 L 168.761719 457.546875 L 168.042969 456.4375 L 166.609375 454.972656 L 165.660156 454.316406 L 164.707031 453.90625 L 159.703125 452.992188 L 158.566406 453.125 L 157.320313 453.578125 L 156.128906 454.375 L 155.34375 455.226563 L 154.40625 457.132813 L 154.070313 460.074219 L 153.652344 461.667969 L 152.808594 463.082031 L 151.605469 464.558594 L 151.082031 465.628906 L 150.703125 467.882813 L 150.839844 469.03125 L 151.34375 470.375 L 152.085938 471.46875 L 153.070313 472.375 L 154.238281 473.03125 L 155.527344 473.398438 L 156.863281 473.457031 Z M 186.164063 325.914063 L 187.457031 326.042969 L 189.160156 326.804688 L 190.535156 328.066406 L 191.4375 329.695313 L 191.777344 331.527344 L 191.820313 333.335938 L 192.128906 334.605469 L 192.648438 335.664063 L 193.449219 336.675781 L 194.4375 337.476563 L 195.59375 338.050781 L 196.738281 338.335938 L 198.671875 338.390625 L 200.5 338.742188 L 202.125 339.652344 L 203.375 341.027344 L 204.132813 342.726563 L 204.308594 344.578125 L 203.894531 346.390625 L 202.929688 347.980469 L 201.511719 349.183594 L 200.074219 350.050781 L 198.75 351.269531 L 197.433594 352.175781 L 195.917969 352.695313 L 194.074219 353.050781 L 192.96875 353.539063 L 190.75 355.355469 L 189.578125 356.097656 L 190.335938 355.148438 L 189.90625 355.050781 L 188.667969 355.527344 L 188.3125 355.957031 L 186.378906 356.386719 L 183.8125 354.640625 L 179.976563 346.332031 L 183.371094 340.257813 L 185.429688 339.015625 L 185.140625 338.578125 L 182.683594 338.460938 L 181.554688 337.164063 L 181.355469 336.117188 L 181.601563 331.078125 L 181.949219 330.421875 L 184.695313 329.191406 Z M 173.492188 238.429688 L 173.753906 236.710938 L 174.511719 235.144531 L 175.695313 233.871094 L 177.207031 233.007813 L 178.90625 232.628906 L 180.640625 232.769531 L 182.507813 233.210938 L 183.796875 233.222656 L 184.113281 233.15625 L 181.046875 235.800781 L 180.578125 237.003906 L 174.761719 240.109375 L 173.492188 239.554688 Z M 186.648438 232.070313 L 187.164063 231.683594 L 187.9375 230.792969 L 188.554688 229.660156 L 189.078125 227.816406 L 189.800781 226.25 L 190.898438 226.824219 L 192.988281 227.191406 L 194.445313 228.726563 L 194.429688 229.304688 L 192.117188 231.570313 L 189.460938 232.730469 L 188.34375 232.882813 L 187.070313 232.078125 Z M 219.066406 271.226563 L 218.15625 271.382813 L 216.371094 271.128906 L 214.75 270.339844 L 213.449219 269.089844 L 212.425781 267.742188 L 210.53125 266.203125 L 209.796875 265.492188 L 208.085938 263.507813 L 207.25 262.917969 L 206.183594 262.445313 L 205.15625 262.214844 L 204.023438 262.179688 L 202.734375 262.414063 L 200.96875 263.167969 L 198.691406 263.628906 L 194.816406 263.628906 L 193.03125 263.351563 L 191.417969 262.535156 L 190.132813 261.261719 L 189.300781 259.65625 L 189 257.875 L 189.261719 256.085938 L 190.007813 253.695313 L 190.039063 252.128906 L 189.640625 250.59375 L 188.878906 249.300781 L 187.425781 247.984375 L 185.613281 247.222656 L 183.648438 247.109375 L 180.914063 247.898438 L 179.140625 248.121094 L 177.386719 247.796875 L 175.808594 246.953125 L 174.5625 245.671875 L 173.765625 244.074219 L 173.492188 242.308594 L 173.492188 241.09375 L 178.0625 241.875 L 182.921875 243.167969 L 186.398438 241.730469 L 187.519531 239.417969 L 188.617188 238.355469 L 189.539063 238.171875 L 193.183594 238.5 L 199.339844 242.761719 L 206.488281 246.65625 L 208.910156 251.429688 L 212.824219 256.707031 L 213.265625 256.828125 L 213.433594 256.585938 L 214.601563 257.097656 L 217.371094 258.992188 L 218.679688 263.09375 L 218.894531 265.933594 L 218.261719 267.402344 Z M 145.855469 369.101563 L 146.710938 370.484375 L 147.625 372.660156 L 148.328125 373.5625 L 145.449219 374.257813 L 143.757813 375.484375 L 142.039063 378.097656 L 136.757813 378.433594 L 136.246094 378.0625 L 137.339844 376.066406 L 140.148438 373.019531 L 141.023438 372.414063 L 142.589844 371.953125 Z M 147.425781 363.976563 L 146.109375 363.875 L 144.195313 361.613281 L 142.050781 357.363281 L 142.246094 352.273438 L 144.664063 351.183594 L 146.003906 350.957031 L 149.566406 352.007813 L 151.039063 355.578125 L 155.546875 356.503906 L 154.066406 358.859375 L 150.984375 360.816406 Z M 141.734375 358.875 L 141.003906 358.070313 L 139.230469 356.960938 L 138.828125 356.035156 L 139.253906 355.210938 L 140.597656 355.164063 L 141.484375 356.3125 L 142.226563 358.1875 Z M 137.933594 323.433594 L 137.675781 322.921875 L 139.816406 316.644531 L 142.300781 315.023438 L 144.765625 310.230469 L 145.863281 309.40625 L 149.046875 308.269531 L 150.203125 313.453125 L 147.847656 318.148438 L 145.3125 320.636719 L 141.859375 323.019531 L 139.824219 322.464844 Z M 286.679688 439.636719 L 283.058594 438.976563 L 282.164063 437.605469 L 282.484375 436.070313 L 286.839844 437.054688 L 287.960938 438.832031 Z M 236.835938 466.113281 L 235.136719 465.644531 L 236.523438 463.683594 L 237.195313 464.164063 L 237.5 465.839844 Z M 228.117188 474.644531 L 222.296875 470.886719 L 220.207031 471.1875 L 221.476563 469.683594 L 227.316406 466.367188 L 232.550781 467.761719 L 234.171875 469.894531 L 231.242188 473.621094 L 229.960938 474.269531 Z M 228.117188 474.644531 "/>
<path style=" stroke:none;fill-rule:nonzero;fill:rgb(80.392157%,58.431373%,4.705882%);fill-opacity:1;" d="M 200.628906 312.09375 L 200.347656 313.890625 L 199.519531 315.511719 L 198.234375 316.796875 L 196.613281 317.625 L 194.816406 317.90625 L 193.019531 317.625 L 191.398438 316.796875 L 190.109375 315.511719 L 189.285156 313.890625 L 189 312.09375 L 189.285156 310.296875 L 190.109375 308.675781 L 191.398438 307.386719 L 193.019531 306.5625 L 194.816406 306.277344 L 196.613281 306.5625 L 198.234375 307.386719 L 199.519531 308.675781 L 200.347656 310.296875 Z M 200.628906 312.09375 "/>
<path style=" stroke:none;fill-rule:nonzero;fill:rgb(80.392157%,58.431373%,4.705882%);fill-opacity:1;" d="M 189 288.832031 L 188.714844 290.628906 L 187.890625 292.25 L 186.601563 293.535156 L 184.980469 294.363281 L 183.183594 294.644531 L 181.386719 294.363281 L 179.765625 293.535156 L 178.480469 292.25 L 177.652344 290.628906 L 177.371094 288.832031 L 177.652344 287.035156 L 178.128906 286.097656 L 178.757813 285.980469 L 180.191406 286.804688 L 181.015625 286.710938 L 182.933594 286.238281 L 183.03125 285.160156 L 182.34375 284.746094 L 180.035156 285.351563 L 178.636719 285.257813 L 179.765625 284.125 L 181.386719 283.300781 L 183.183594 283.015625 L 184.980469 283.300781 L 186.601563 284.125 L 187.890625 285.414063 L 188.714844 287.035156 Z M 189 288.832031 "/>
<path style=" stroke:none;fill-rule:nonzero;fill:rgb(80.392157%,58.431373%,4.705882%);fill-opacity:1;" d="M 192.875 319.847656 L 192.59375 321.644531 L 191.765625 323.265625 L 190.480469 324.550781 L 188.859375 325.375 L 187.0625 325.660156 L 186.328125 325.546875 L 187.28125 323.421875 L 187.71875 320.933594 L 187.855469 317.484375 L 184.742188 320.527344 L 181.761719 322.09375 L 181.53125 321.644531 L 181.246094 319.847656 L 181.53125 318.050781 L 182.355469 316.429688 L 183.644531 315.140625 L 185.265625 314.316406 L 187.0625 314.03125 L 188.859375 314.316406 L 190.480469 315.140625 L 191.765625 316.429688 L 192.59375 318.050781 Z M 192.875 319.847656 "/>
<path style=" stroke:none;fill-rule:nonzero;fill:rgb(80.392157%,58.431373%,4.705882%);fill-opacity:1;" d="M 181.246094 288.832031 L 180.960938 290.628906 L 180.136719 292.25 L 178.847656 293.535156 L 177.226563 294.363281 L 175.429688 294.644531 L 173.632813 294.363281 L 172.011719 293.535156 L 171.859375 293.382813 L 174.074219 288.722656 L 176.464844 286.417969 L 178.757813 285.980469 L 180.191406 286.804688 L 180.808594 286.734375 L 180.960938 287.035156 Z M 171.902344 284.238281 L 172.011719 284.125 L 173.632813 283.300781 L 175.429688 283.015625 L 177.226563 283.300781 L 178.847656 284.125 L 180.066406 285.34375 L 180.035156 285.351563 L 174.65625 284.980469 L 172.566406 284.292969 Z M 171.902344 284.238281 "/>
<path style=" stroke:none;fill-rule:nonzero;fill:rgb(80.392157%,58.431373%,4.705882%);fill-opacity:1;" d="M 173.492188 304.339844 L 173.207031 306.136719 L 172.382813 307.757813 L 171.09375 309.042969 L 170.574219 309.308594 L 167.40625 304.652344 L 169.164063 299.058594 L 169.296875 298.78125 L 169.472656 298.808594 L 171.09375 299.632813 L 172.382813 300.921875 L 173.207031 302.542969 Z M 173.492188 304.339844 "/>
<path style=" stroke:none;fill-rule:nonzero;fill:rgb(80.392157%,58.431373%,4.705882%);fill-opacity:1;" d="M 157.984375 393.507813 L 157.699219 395.304688 L 156.875 396.925781 L 155.585938 398.210938 L 153.964844 399.039063 L 152.167969 399.324219 L 151.375 399.199219 L 152.136719 398.207031 L 153.054688 396.195313 L 154.199219 391.746094 L 153.734375 388.820313 L 153.246094 387.863281 L 153.964844 387.976563 L 155.585938 388.804688 L 156.875 390.089844 L 157.699219 391.710938 Z M 157.984375 393.507813 "/>
<path style=" stroke:none;fill-rule:nonzero;fill:rgb(80.392157%,58.431373%,4.705882%);fill-opacity:1;" d="M 88.429688 500.046875 L 88.566406 499.308594 L 88.941406 499.117188 L 89.34375 499.789063 Z M 88.429688 500.046875 "/>
<path style=" stroke:none;fill-rule:nonzero;fill:rgb(80.392157%,58.431373%,4.705882%);fill-opacity:1;" d="M 88.429688 500.046875 L 88.566406 499.308594 L 88.941406 499.117188 L 89.34375 499.789063 Z M 88.429688 500.046875 "/>
</g>
</svg>
