<?xml version="1.0" encoding="UTF-8"?>
<svg xmlns="http://www.w3.org/2000/svg" xmlns:xlink="http://www.w3.org/1999/xlink" width="378pt" height="504pt" viewBox="0 0 378 504" version="1.1">
<g id="data">
<rect x="0" y="0" width="378" height="504" style="fill:rgb(100%,100%,100%);fill-opacity:1;stroke:none;"/>
<path style=" stroke:none;fill-rule:nonzero;fill:rgb(100%,100%,100%);fill-opacity:1;" d="M 53.308594 504 L 324.691406 504 L 324.691406 0 L 53.308594 0 Z M 53.308594 504 "/>
<path style=" stroke:none;fill-rule:nonzero;fill:rgb(22.745098%,53.333333%,16.078431%);fill-opacity:1;" d="M 233.621094 301.078125 L 233.742188 303.15625 L 234.515625 305.738281 L 235.863281 308.074219 L 237.714844 310.039063 L 240.195313 311.636719 L 243.128906 312.578125 L 246.078125 312.730469 L 247.96875 312.332031 L 249.289063 315.722656 L 252.390625 319.148438 L 256.121094 320.875 L 256.847656 321.4375 L 256.847656 321.921875 L 254.738281 323.09375 L 253.890625 324.554688 L 253.765625 325.996094 L 254.984375 329.992188 L 255.484375 331.035156 L 255.890625 332.929688 L 256.800781 335.054688 L 258.117188 336.957031 L 260.722656 339.230469 L 262.609375 341.578125 L 262.765625 341.699219 L 263.316406 342.46875 L 263.640625 343.980469 L 262.804688 345.191406 L 263.28125 343.65625 L 262.507813 342.839844 L 260.445313 342 L 258.378906 342.789063 L 257.507813 342.753906 L 256.035156 341.773438 L 253.664063 338.65625 L 252.601563 338.082031 L 245.550781 339.511719 L 244.589844 338.644531 L 243.40625 338.558594 L 241.210938 339.871094 L 241.886719 340.445313 L 246.324219 340.394531 L 249.617188 339.34375 L 251.976563 339.082031 L 254.382813 342.558594 L 260.535156 347.621094 L 263.042969 349.058594 L 263.664063 349.039063 L 266.046875 352.214844 L 268.40625 357.921875 L 268.820313 361.417969 L 269.453125 363.105469 L 269.210938 365.21875 L 264.953125 369.09375 L 261.394531 373.164063 L 260.601563 374.816406 L 262.84375 374.3125 L 264.9375 375.519531 L 266.9375 378.226563 L 270.21875 378.804688 L 270.625 378.746094 L 271.910156 376.796875 L 272.234375 374.960938 L 273.40625 371.914063 L 274.707031 370.632813 L 277.851563 370.085938 L 279.191406 370.121094 L 281.605469 370.402344 L 283.519531 370.351563 L 284.253906 370.867188 L 286.703125 370.742188 L 288.125 370.894531 L 288.929688 372.859375 L 290.507813 375.046875 L 292.65625 376.882813 L 295.0625 378.101563 L 299.226563 378.816406 L 303.371094 378 L 303.742188 380.121094 L 304.558594 382.25 L 305.773438 384.183594 L 306.804688 385.28125 L 307.179688 391.25 L 306.777344 393.191406 L 306.890625 393.976563 L 305.789063 396.917969 L 305.183594 399.824219 L 303.925781 402.410156 L 303.246094 406.136719 L 303.328125 408.035156 L 297.144531 414.53125 L 295.578125 412.011719 L 292.742188 410.515625 L 292.480469 410.636719 L 293.898438 413.703125 L 295.890625 416.628906 L 296.3125 416.765625 L 296.164063 417.742188 L 294.574219 419.804688 L 292.191406 421.289063 L 290.003906 421.65625 L 289.660156 421.574219 L 288.214844 419.332031 L 284.976563 421.730469 L 280.71875 424.230469 L 282.339844 425.378906 L 285.105469 424.398438 L 286.097656 423.375 L 286.894531 423.164063 L 287.328125 423.710938 L 287.632813 428.84375 L 285.6875 430.875 L 283.441406 432.558594 L 282.84375 432.699219 L 279.644531 432.160156 L 274.75 433.78125 L 272.609375 436.117188 L 274.253906 436.015625 L 275.152344 434.667969 L 276.683594 434.363281 L 278.285156 434.328125 L 281.054688 434.949219 L 281.828125 435.589844 L 281.691406 436.328125 L 279.554688 436.347656 L 277.390625 437.65625 L 277.96875 438.546875 L 281.382813 438.964844 L 286.863281 440.339844 L 289.394531 439.9375 L 291.074219 438.957031 L 297.78125 438.03125 L 298.839844 438.726563 L 300.625 439.449219 L 300.988281 440.148438 L 300.882813 443.214844 L 300.679688 443.53125 L 299.867188 445.664063 L 299.492188 447.785156 L 297.320313 449.492188 L 296.707031 450.273438 L 295.839844 450.375 L 292.621094 451.640625 L 291.179688 452.742188 L 289.847656 454.226563 L 289.460938 455.09375 L 289.214844 456.324219 L 289.246094 456.523438 L 289 456.839844 L 288.480469 458.011719 L 286.253906 458.289063 L 284.1875 457.9375 L 282.179688 459.832031 L 279.734375 460.605469 L 277.902344 461.742188 L 277.371094 462.1875 L 274.789063 462.777344 L 272.597656 463.816406 L 270.539063 466.589844 L 269.761719 466.949219 L 259.480469 463.839844 L 259.332031 463.773438 L 255.597656 463.148438 L 252.214844 463.378906 L 248.378906 464.65625 L 247.84375 465.085938 L 244.628906 465.699219 L 242.703125 466.390625 L 242.113281 466.964844 L 242.085938 467.109375 L 240.582031 467.257813 L 240.140625 467.398438 L 238.210938 466.1875 L 238.632813 465.4375 L 239.46875 464.933594 L 237.714844 463.296875 L 231.496094 463.171875 L 231.378906 463.496094 L 232.574219 464.835938 L 232.214844 465.75 L 231.738281 466.042969 L 226.691406 465.496094 L 219.566406 468.449219 L 217.054688 467.824219 L 210.222656 468.96875 L 208.164063 468.875 L 207.273438 468.058594 L 206.238281 469.769531 L 209.429688 471.089844 L 209.714844 470.9375 L 210.1875 472.128906 L 209.566406 473.890625 L 206.84375 474.453125 L 204.453125 473.097656 L 203.015625 472.699219 L 197.625 472.007813 L 196.175781 472.65625 L 195.679688 473.863281 L 195.832031 474.871094 L 196.757813 475.523438 L 196.488281 476.304688 L 195.917969 475.996094 L 194.851563 473.972656 L 190.289063 470.589844 L 185.898438 468.519531 L 183.121094 467.984375 L 181.648438 469.066406 L 176.207031 469.78125 L 174.339844 470.335938 L 168.992188 473.234375 L 168.214844 474.070313 L 167.203125 476.179688 L 162.746094 489.226563 L 160.929688 490.242188 L 158.269531 489.722656 L 157.554688 489.058594 L 156.527344 486.851563 L 154.683594 485.4375 L 153.613281 485.542969 L 152.417969 486.300781 L 151.738281 486.164063 L 148.46875 482.535156 L 142.796875 482.960938 L 141.527344 483.375 L 141.222656 483.683594 L 139.894531 483.609375 L 136.4375 484.386719 L 134.507813 484.320313 L 132.167969 484.859375 L 130.289063 487.136719 L 129.460938 487.328125 L 126.601563 488.957031 L 125.3125 490.191406 L 124.039063 490.597656 L 123.726563 491.871094 L 122.707031 493.261719 L 121.632813 495.699219 L 121.300781 497.433594 L 120.660156 497.648438 L 120.394531 498.183594 L 118.253906 498.183594 L 117.96875 497.691406 L 118.09375 496.4375 L 117.15625 494.691406 L 115.984375 493.691406 L 112.253906 492.070313 L 111.410156 491.984375 L 110.375 492.488281 L 110.242188 494.183594 L 110.007813 494.453125 L 108.652344 494.195313 L 105.644531 494.308594 L 105.441406 494.210938 L 105.628906 491.574219 L 106.074219 490.5625 L 106.917969 490.191406 L 108.011719 489.988281 L 110.125 489.125 L 111.105469 488.355469 L 111.738281 488.078125 L 112.199219 488.253906 L 112.445313 488.9375 L 113.574219 489.15625 L 118.144531 485.910156 L 121.425781 483.085938 L 124.375 479.769531 L 125.210938 477.886719 L 124.875 476.421875 L 125.640625 474.519531 L 128.386719 473.238281 L 132.105469 472.640625 L 132.679688 471.785156 L 133.1875 469.800781 L 133.609375 469.621094 L 135.484375 468.320313 L 137.5625 466.277344 L 138.582031 464.695313 L 138.636719 464.640625 L 138.640625 464.609375 L 139.617188 463.09375 L 140.539063 459.414063 L 144.1875 457.324219 L 145.769531 455.421875 L 148.429688 452.488281 L 148.195313 448.902344 L 148.292969 447.785156 L 148.574219 447.375 L 151.105469 446.613281 L 157.421875 446.269531 L 159.910156 445.683594 L 164.597656 446.761719 L 166.046875 446.148438 L 167.527344 446.515625 L 169.484375 447.285156 L 170.039063 448.109375 L 170.757813 448.421875 L 173.15625 448.464844 L 180.570313 447.503906 L 181.109375 445.632813 L 181.210938 443.15625 L 182.519531 440.25 L 190.867188 432.195313 L 195.792969 425.3125 L 197.929688 424.472656 L 198.285156 423.78125 L 198.070313 423.238281 L 197.8125 423.082031 L 196.09375 424.355469 L 192.90625 427.300781 L 190.570313 429.988281 L 189.222656 431.449219 L 185.628906 432.957031 L 183.714844 433.246094 L 182.441406 433.0625 L 178.394531 435.230469 L 177.398438 436.808594 L 177.039063 438.671875 L 176.445313 439.273438 L 174.058594 439.917969 L 170.558594 439.851563 L 166.820313 439 L 166.347656 438.652344 L 161.371094 433.375 L 161.082031 432.863281 L 161.320313 432.859375 L 164.539063 432.050781 L 166.75 431.015625 L 168.882813 429.363281 L 170.574219 427.265625 L 171.742188 424.832031 L 172.316406 422.199219 L 172.269531 419.503906 L 171.554688 416.769531 L 173.800781 417.324219 L 176.238281 417.414063 L 178.519531 417.027344 L 180.792969 416.140625 L 182.832031 414.796875 L 184.464844 413.15625 L 185.800781 411.113281 L 186.644531 408.960938 L 187.058594 406.554688 L 187.011719 403.21875 L 186.496094 400.84375 L 185.5 398.625 L 183.152344 395.765625 L 181.394531 394.484375 L 179.308594 393.507813 L 177.601563 391.335938 L 175.429688 389.628906 L 177.355469 387.589844 L 178.6875 385.265625 L 179.46875 382.570313 L 179.597656 379.894531 L 179.148438 375.308594 L 178.273438 372.488281 L 176.464844 369.683594 L 173.824219 367.441406 L 170.265625 365.984375 L 166.429688 365.765625 L 162.222656 366.921875 L 159 369.015625 L 156.824219 371.710938 L 155.507813 375.050781 L 155.261719 378.503906 L 156.046875 381.875 L 153.984375 384.109375 L 152.644531 386.691406 L 152.566406 386.542969 L 153.179688 384.597656 L 154.652344 381.796875 L 152.269531 378.203125 L 152.683594 374.835938 L 153.175781 374.082031 L 152.804688 373.207031 L 150.203125 373.105469 L 145.449219 374.257813 L 143.757813 375.484375 L 142.050781 378.082031 L 136.660156 378 L 136.660156 377.304688 L 137.339844 376.066406 L 140.148438 373.019531 L 141.023438 372.414063 L 142.589844 371.953125 L 147.132813 367.984375 L 147.953125 364.523438 L 151.550781 360.582031 L 153.09375 359.609375 L 154.941406 359.808594 L 160.492188 357.457031 L 163.644531 357.28125 L 167.339844 357.714844 L 172.597656 355.179688 L 173.933594 355.046875 L 174.484375 355.082031 L 179.910156 359.441406 L 180.433594 358.429688 L 177.679688 353.460938 L 178.242188 352.835938 L 180.867188 352.449219 L 181.503906 352.695313 L 181.914063 353.875 L 182.898438 354.332031 L 184.078125 356.789063 L 185.613281 357.902344 L 187.097656 357.75 L 187.0625 358.617188 L 186.40625 361.886719 L 186.738281 365.332031 L 188 368.417969 L 190.089844 371.019531 L 192.601563 372.804688 L 195.496094 373.863281 L 200.96875 374.429688 L 203.890625 374.164063 L 206.535156 373.234375 L 208.785156 371.777344 L 211.773438 368.808594 L 213.3125 366.460938 L 214.085938 364.433594 L 214.472656 362.296875 L 214.199219 358.617188 L 214.726563 355.066406 L 214.453125 352.640625 L 213.734375 350.445313 L 212.59375 348.433594 L 211.078125 346.6875 L 209.355469 345.347656 L 207.292969 344.304688 L 205.191406 343.710938 L 202.886719 343.523438 L 200.589844 343.792969 L 197.136719 345.164063 L 194.816406 346.984375 L 191.976563 348.449219 L 190.058594 350.140625 L 188.6875 351.992188 L 187.707031 354.078125 L 187.1875 356.207031 L 186.378906 356.386719 L 183.8125 354.640625 L 179.976563 346.332031 L 180.214844 345.902344 L 181.503906 344.371094 L 182.542969 342.199219 L 182.746094 341.378906 L 183.371094 340.257813 L 185.429688 339.015625 L 185.140625 338.578125 L 183.191406 338.488281 L 183.5 332.820313 L 183.199219 330.03125 L 183.140625 329.890625 L 184.695313 329.191406 L 187.28125 323.421875 L 187.71875 320.933594 L 187.820313 318.421875 L 192.597656 314.742188 L 191.214844 318.105469 L 190.382813 322.09375 L 190.292969 324.53125 L 191.339844 328.625 L 193.78125 332.074219 L 195.699219 333.585938 L 198.011719 334.703125 L 200.257813 335.257813 L 202.570313 335.355469 L 205.871094 336.363281 L 209.707031 336.292969 L 213.308594 334.980469 L 215.761719 333.128906 L 217.574219 330.808594 L 218.75 328.105469 L 219.207031 325.199219 L 218.949219 322.390625 L 218.078125 319.847656 L 218.390625 316.929688 L 217.929688 313.90625 L 216.488281 310.78125 L 214.199219 308.214844 L 217.753906 308.5 L 221.226563 307.691406 L 223.371094 306.558594 L 225.320313 304.910156 L 226.980469 302.828125 L 228.152344 300.449219 L 232.296875 300.457031 Z M 206.445313 397.382813 L 208.183594 398.902344 L 210.183594 400.050781 L 212.375 400.78125 L 214.664063 401.0625 L 216.964844 400.886719 L 219.1875 400.261719 L 221.238281 399.210938 L 222.953125 397.863281 L 224.457031 396.113281 L 225.589844 394.101563 L 226.363281 391.789063 L 226.644531 389.492188 L 226.46875 387.1875 L 225.839844 384.960938 L 224.851563 383.011719 L 223.429688 381.1875 L 221.671875 379.683594 L 219.652344 378.554688 L 217.207031 377.765625 L 214.914063 377.476563 L 212.734375 377.625 L 210.503906 378.222656 L 208.429688 379.25 L 206.605469 380.667969 L 205.09375 382.417969 L 203.960938 384.433594 L 203.246094 386.632813 L 202.984375 388.929688 L 203.179688 391.230469 L 203.824219 393.449219 L 204.96875 395.605469 Z M 232.859375 471.5625 L 231.871094 472.320313 L 230.464844 474.011719 L 229.960938 474.269531 L 228.117188 474.644531 L 222.296875 470.886719 L 220.207031 471.1875 L 221.476563 469.683594 L 227.316406 466.367188 L 232.550781 467.761719 L 234.171875 469.894531 Z M 148.183594 432.203125 L 147.121094 430.945313 L 146.917969 429.308594 L 148.539063 428.378906 L 150.066406 428.890625 L 150.71875 428.695313 L 151.808594 429.9375 L 152.972656 430.730469 L 149.269531 432.308594 L 149.113281 432.746094 Z M 130.5625 428.398438 L 128.90625 428.398438 L 127.851563 426.003906 L 128.796875 425.832031 L 131.792969 424.328125 L 131.226563 422.867188 L 130.640625 424.257813 L 127.769531 424.613281 L 126.757813 424.515625 L 126.046875 423.597656 L 123.886719 421.90625 L 124.125 421.78125 L 125.167969 421.753906 L 125.464844 421.238281 L 124.929688 417.953125 L 123.328125 417.210938 L 121.445313 417.105469 L 121.683594 416.351563 L 123.324219 415.0625 L 123.925781 414.300781 L 125.933594 413.378906 L 126.539063 411.90625 L 133.074219 411.34375 L 134.871094 409.289063 L 135.753906 407.632813 L 137.585938 406.550781 L 141.359375 406.660156 L 142.21875 406.390625 L 144.851563 404.707031 L 144.328125 405.167969 L 142.679688 407.605469 L 141.488281 411.644531 L 141.8125 415.839844 L 143.535156 419.542969 L 145.945313 422.636719 L 148.292969 424.523438 L 149.21875 426.5 L 147.785156 426.460938 L 143.210938 423.710938 L 139.503906 423.714844 L 136.765625 424.277344 L 136.292969 426.515625 L 135.777344 427.203125 L 133.742188 427.917969 L 132.394531 427.265625 L 131.648438 427.453125 Z M 151.609375 398.894531 L 152.167969 401.261719 L 149.332031 401.847656 L 149.359375 401.828125 Z M 145.207031 362.808594 L 145.230469 362.628906 L 144.414063 358.617188 L 144.414063 351.296875 L 144.664063 351.183594 L 146.003906 350.957031 L 149.53125 352 L 149.582031 352.042969 L 151.039063 355.578125 L 155.546875 356.503906 L 154.066406 358.859375 L 150.984375 360.816406 L 147.425781 363.976563 L 146.109375 363.875 Z M 179.695313 323.179688 L 181.636719 320.453125 L 186.347656 318.957031 L 184.742188 320.527344 Z M 171.554688 242.308594 L 173.167969 241.039063 L 178.0625 241.875 L 179.691406 242.308594 L 179.308594 242.308594 L 175.429688 241.640625 Z M 174.277344 239.898438 L 175.429688 238.429688 L 178.628906 238.046875 L 174.761719 240.109375 Z M 186.328125 232.0625 L 187.0625 230.675781 L 189.230469 228.96875 L 190.917969 226.828125 L 192.988281 227.191406 L 194.445313 228.726563 L 194.429688 229.304688 L 192.117188 231.570313 L 189.460938 232.730469 L 188.34375 232.882813 L 187.070313 232.078125 Z M 195.570313 240.152344 L 197.476563 242.722656 L 200.128906 244.742188 L 203.121094 245.898438 L 205.464844 246.101563 L 206.488281 246.65625 L 208.910156 251.429688 L 212.824219 256.707031 L 213.265625 256.828125 L 213.433594 256.585938 L 214.601563 257.097656 L 215.101563 257.441406 L 215.390625 258.191406 L 216.605469 260.121094 L 218.078125 261.691406 L 217.953125 268.457031 L 217.109375 265.664063 L 215.597656 263.167969 L 212.214844 259.339844 L 209.21875 257.367188 L 206.652344 256.542969 L 204.09375 256.324219 L 201.300781 256.738281 L 198.691406 257.816406 L 194.816406 257.816406 L 195.488281 253.773438 L 194.757813 249.867188 L 192.761719 246.4375 L 189.613281 243.8125 L 187.253906 242.796875 L 184.917969 242.34375 L 186.398438 241.730469 L 187.519531 239.417969 L 188.617188 238.355469 L 189.539063 238.171875 L 193.183594 238.5 Z M 148.496094 308.464844 L 148.996094 308.90625 L 148.292969 312.09375 L 145.878906 313.269531 L 143.886719 314.878906 L 142.296875 316.882813 L 141.183594 319.1875 L 140.574219 316.152344 L 142.300781 315.023438 L 144.765625 310.230469 L 145.863281 309.40625 Z M 88.945313 499.121094 L 88.542969 499.441406 L 88.566406 499.308594 L 88.941406 499.117188 Z M 286.679688 439.636719 L 283.058594 438.976563 L 282.164063 437.605469 L 282.484375 436.070313 L 286.839844 437.054688 L 287.960938 438.832031 Z M 236.835938 466.113281 L 235.136719 465.644531 L 236.523438 463.683594 L 237.195313 464.164063 L 237.5 465.839844 Z M 236.835938 466.113281 "/>
</g>
</svg>
