<?xml version="1.0" encoding="UTF-8"?>
<svg xmlns="http://www.w3.org/2000/svg" xmlns:xlink="http://www.w3.org/1999/xlink" width="378pt" height="504pt" viewBox="0 0 378 504" version="1.1">
<g id="data">
<rect x="0" y="0" width="378" height="504" style="fill:rgb(100%,100%,100%);fill-opacity:1;stroke:none;"/>
<path style=" stroke:none;fill-rule:nonzero;fill:rgb(100%,100%,100%);fill-opacity:1;" d="M 53.308594 504 L 324.691406 504 L 324.691406 0 L 53.308594 0 Z M 53.308594 504 "/>
<path style=" stroke:none;fill-rule:nonzero;fill:rgb(22.745098%,53.333333%,16.078431%);fill-opacity:1;" d="M 233.585938 374.125 L 235.058594 372.550781 L 236.273438 370.621094 L 237.085938 368.492188 L 237.460938 366.371094 L 239.816406 368.515625 L 242.785156 369.984375 L 245.921875 370.550781 L 249.09375 370.246094 L 249.378906 373.570313 L 250.535156 376.5625 L 252.464844 379.125 L 255.132813 381.128906 L 257.386719 382.066406 L 259.785156 382.511719 L 262.226563 382.449219 L 264.601563 381.875 L 266.539063 383.726563 L 268.851563 385.082031 L 271.285156 385.847656 L 273.953125 386.0625 L 279.777344 385.199219 L 281.898438 384.28125 L 283.792969 382.957031 L 285.472656 381.1875 L 286.796875 378.988281 L 287.578125 376.675781 L 287.863281 374.125 L 290.445313 371.980469 L 289.046875 375.414063 L 288.808594 379.238281 L 289.828125 382.933594 L 291.996094 386.097656 L 294.621094 388.140625 L 297.71875 389.355469 L 302.988281 390.289063 L 305.148438 390.160156 L 307.082031 389.671875 L 307.179688 391.25 L 306.777344 393.191406 L 306.878906 393.902344 L 305.773438 395.078125 L 304.558594 397.011719 L 303.742188 399.140625 L 303.371094 401.261719 L 300.1875 401.519531 L 297.078125 402.695313 L 294.523438 404.613281 L 292.523438 407.261719 L 290.789063 411.113281 L 290.203125 414.125 L 290.476563 417.4375 L 291.738281 420.644531 L 290.609375 421.554688 L 290.003906 421.65625 L 289.660156 421.574219 L 288.214844 419.332031 L 284.976563 421.730469 L 280.71875 424.230469 L 282.339844 425.378906 L 285.105469 424.398438 L 286.097656 423.375 L 286.894531 423.164063 L 287.328125 423.710938 L 287.410156 425.070313 L 287.058594 425.519531 L 285.902344 427.519531 L 285.136719 429.828125 L 284.960938 431.417969 L 283.441406 432.558594 L 282.84375 432.699219 L 279.644531 432.160156 L 274.75 433.78125 L 272.609375 436.117188 L 274.253906 436.015625 L 275.152344 434.667969 L 276.683594 434.363281 L 278.285156 434.328125 L 281.054688 434.949219 L 281.828125 435.589844 L 281.691406 436.328125 L 279.554688 436.347656 L 277.390625 437.65625 L 277.96875 438.546875 L 281.382813 438.964844 L 286.863281 440.339844 L 288.003906 440.15625 L 288.769531 441 L 290.859375 442.480469 L 293.097656 443.433594 L 295.617188 443.90625 L 291.582031 444.628906 L 288.050781 446.703125 L 286.296875 448.578125 L 285.050781 450.675781 L 284.269531 452.984375 L 283.984375 455.539063 L 281.8125 457.246094 L 280.109375 459.414063 L 276.902344 460.144531 L 274.128906 461.667969 L 270.273438 464.910156 L 268.867188 466.679688 L 267.261719 466.195313 L 265.421875 464.71875 L 261.855469 463.441406 L 258.972656 463.132813 L 249.09375 463.292969 L 246.613281 462.710938 L 244.195313 462.671875 L 240.488281 463.585938 L 238.960938 464.460938 L 237.714844 463.296875 L 231.496094 463.171875 L 231.378906 463.496094 L 232.574219 464.835938 L 232.214844 465.75 L 231.738281 466.042969 L 226.691406 465.496094 L 221.96875 467.453125 L 221.4375 463.746094 L 220.152344 460.949219 L 218.175781 458.589844 L 215.988281 457.011719 L 213.5 455.980469 L 210.324219 455.539063 L 207.148438 454.546875 L 203.949219 454.484375 L 201.328125 455.105469 L 198.820313 456.382813 L 196.773438 458.132813 L 195.125 460.417969 L 194.074219 463.03125 L 193.683594 465.695313 L 193.945313 468.5 L 194.816406 471.046875 L 192.292969 468.316406 L 189.035156 466.523438 L 185.378906 465.847656 L 181.699219 466.359375 L 178.472656 467.933594 L 176.804688 469.347656 L 176.484375 469.742188 L 176.207031 469.78125 L 174.339844 470.335938 L 168.992188 473.234375 L 168.214844 474.070313 L 167.253906 476.070313 L 166.777344 474.808594 L 165.484375 472.773438 L 163.800781 471.046875 L 163.390625 468.800781 L 162.609375 466.792969 L 161.394531 464.863281 L 159.921875 463.292969 L 163.351563 464.320313 L 166.933594 464.253906 L 170.324219 463.105469 L 173.203125 460.976563 L 175.242188 458.1875 L 176.394531 454.796875 L 176.457031 451.214844 L 175.542969 448.15625 L 178.417969 447.785156 L 179.308594 447.785156 L 182.46875 448.308594 L 185.40625 448.011719 L 188.953125 446.535156 L 191.746094 444.082031 L 193.796875 440.394531 L 194.292969 438.265625 L 194.386719 436.085938 L 193.410156 431.976563 L 192.359375 430.105469 L 195.792969 425.3125 L 197.929688 424.472656 L 198.285156 423.78125 L 198.070313 423.238281 L 197.8125 423.082031 L 196.09375 424.355469 L 192.90625 427.300781 L 191.4375 428.992188 L 190.9375 428.398438 L 193.390625 425.347656 L 194.335938 423.132813 L 194.816406 420.644531 L 196.804688 418.351563 L 198.132813 415.621094 L 198.839844 411.519531 L 198.691406 405.136719 L 200.863281 403.433594 L 202.570313 401.261719 L 206.027344 402.578125 L 209.726563 402.742188 L 212.101563 402.210938 L 214.199219 401.261719 L 217.117188 401.574219 L 220.019531 401.148438 L 222.496094 400.136719 L 224.585938 398.667969 L 227.679688 395.445313 L 229.320313 392.421875 L 230.007813 389.054688 L 229.707031 385.753906 L 232.136719 382.972656 L 233.597656 379.445313 L 233.898438 376.785156 Z M 285.8125 436.820313 L 285.902344 437.101563 L 287.132813 439.203125 L 287.21875 439.296875 L 286.679688 439.636719 L 283.058594 438.976563 L 282.164063 437.605469 L 282.484375 436.070313 Z M 237.417969 465.386719 L 236.765625 466.09375 L 235.136719 465.644531 L 236.523438 463.683594 L 237.195313 464.164063 Z M 234.148438 469.863281 L 234.066406 470.03125 L 233.304688 471 L 229.707031 470.382813 L 225.832031 471.046875 L 222.542969 471.046875 L 222.296875 470.886719 L 221.960938 470.933594 L 222.035156 469.363281 L 227.316406 466.367188 L 232.550781 467.761719 Z M 234.148438 469.863281 "/>
<path style=" stroke:none;fill-rule:nonzero;fill:rgb(80.392157%,58.431373%,4.705882%);fill-opacity:1;" d="M 251.03125 346.984375 L 250.746094 348.78125 L 249.921875 350.402344 L 248.632813 351.6875 L 247.011719 352.515625 L 245.214844 352.800781 L 243.417969 352.515625 L 241.796875 351.6875 L 240.511719 350.402344 L 239.683594 348.78125 L 239.398438 346.984375 L 239.683594 345.1875 L 240.511719 343.566406 L 241.796875 342.28125 L 243.417969 341.453125 L 245.214844 341.167969 L 247.011719 341.453125 L 248.632813 342.28125 L 249.921875 343.566406 L 250.746094 345.1875 Z M 251.03125 346.984375 "/>
<path style=" stroke:none;fill-rule:nonzero;fill:rgb(80.392157%,58.431373%,4.705882%);fill-opacity:1;" d="M 204.507813 335.355469 L 204.222656 337.152344 L 203.398438 338.773438 L 202.109375 340.058594 L 200.488281 340.882813 L 198.691406 341.167969 L 196.894531 340.882813 L 195.273438 340.058594 L 193.988281 338.773438 L 193.160156 337.152344 L 192.875 335.355469 L 193.160156 333.558594 L 193.988281 331.9375 L 195.273438 330.648438 L 196.894531 329.824219 L 198.691406 329.539063 L 200.488281 329.824219 L 202.109375 330.648438 L 203.398438 331.9375 L 204.222656 333.558594 Z M 204.507813 335.355469 "/>
<path style=" stroke:none;fill-rule:nonzero;fill:rgb(80.392157%,58.431373%,4.705882%);fill-opacity:1;" d="M 181.246094 381.875 L 180.960938 383.675781 L 180.136719 385.296875 L 178.847656 386.582031 L 177.226563 387.40625 L 175.429688 387.691406 L 173.632813 387.40625 L 172.011719 386.582031 L 170.726563 385.296875 L 169.898438 383.675781 L 169.617188 381.875 L 169.898438 380.078125 L 170.726563 378.457031 L 172.011719 377.171875 L 173.632813 376.347656 L 175.429688 376.0625 L 177.226563 376.347656 L 178.847656 377.171875 L 180.136719 378.457031 L 180.960938 380.078125 Z M 181.246094 381.875 "/>
<path style=" stroke:none;fill-rule:nonzero;fill:rgb(80.392157%,58.431373%,4.705882%);fill-opacity:1;" d="M 231.644531 339.230469 L 231.363281 341.027344 L 230.535156 342.648438 L 229.25 343.933594 L 227.628906 344.761719 L 225.832031 345.046875 L 224.035156 344.761719 L 222.414063 343.933594 L 221.125 342.648438 L 220.300781 341.027344 L 220.015625 339.230469 L 220.300781 337.433594 L 221.125 335.8125 L 222.414063 334.527344 L 224.035156 333.699219 L 225.832031 333.414063 L 227.628906 333.699219 L 229.25 334.527344 L 230.535156 335.8125 L 231.363281 337.433594 Z M 231.644531 339.230469 "/>
<path style=" stroke:none;fill-rule:nonzero;fill:rgb(80.392157%,58.431373%,4.705882%);fill-opacity:1;" d="M 131.355469 423.203125 L 132.324219 423.695313 L 133.613281 424.980469 L 134.4375 426.601563 L 134.597656 427.617188 L 133.742188 427.917969 L 132.394531 427.265625 L 131.648438 427.453125 L 129.4375 429.378906 L 126.53125 428.132813 L 127.425781 426.082031 L 128.796875 425.832031 L 131.792969 424.328125 Z M 124.851563 424.335938 L 127.109375 422.871094 L 128.90625 422.585938 L 131.132813 423.085938 L 130.640625 424.257813 L 127.769531 424.613281 Z M 124.851563 424.335938 "/>
<path style=" stroke:none;fill-rule:nonzero;fill:rgb(80.392157%,58.431373%,4.705882%);fill-opacity:1;" d="M 163.601563 486.722656 L 162.144531 484.472656 L 161.863281 482.675781 L 162.144531 480.878906 L 162.972656 479.257813 L 164.257813 477.972656 L 165.878906 477.144531 L 166.929688 476.980469 Z M 163.601563 486.722656 "/>
</g>
</svg>
