<?xml version="1.0" encoding="UTF-8"?>
<svg xmlns="http://www.w3.org/2000/svg" xmlns:xlink="http://www.w3.org/1999/xlink" width="378pt" height="504pt" viewBox="0 0 378 504" version="1.1">
<g id="data">
<rect x="0" y="0" width="378" height="504" style="fill:rgb(100%,100%,100%);fill-opacity:1;stroke:none;"/>
<path style=" stroke:none;fill-rule:nonzero;fill:rgb(100%,100%,100%);fill-opacity:1;" d="M 53.308594 504 L 324.691406 504 L 324.691406 0 L 53.308594 0 Z M 53.308594 504 "/>
<path style=" stroke:none;fill-rule:nonzero;fill:rgb(22.745098%,53.333333%,16.078431%);fill-opacity:1;" d="M 218.078125 315.96875 L 225.832031 315.96875 L 229.195313 318.070313 L 233.070313 318.917969 L 236.757813 318.488281 L 240.015625 316.992188 L 238.011719 319.332031 L 236.691406 322.117188 L 236.148438 325.148438 L 236.421875 328.214844 L 237.097656 330.292969 L 238.152344 332.207031 L 239.640625 333.980469 L 241.339844 335.355469 L 241.03125 338.527344 L 241.277344 339.832031 L 241.210938 339.871094 L 241.296875 339.941406 L 241.640625 341.78125 L 243.066406 344.628906 L 245.214844 346.984375 L 244.046875 349.820313 L 243.660156 352.992188 L 244.078125 355.902344 L 245.214844 358.617188 L 244.917969 361.914063 L 245.558594 365.164063 L 246.664063 367.464844 L 249.09375 370.246094 L 250.628906 373.191406 L 253.347656 375.882813 L 255.585938 377.121094 L 258.042969 377.839844 L 260.722656 378 L 264.222656 378.792969 L 267.800781 378.480469 L 267.972656 378.410156 L 270.21875 378.804688 L 270.625 378.746094 L 271.910156 376.796875 L 271.988281 376.367188 L 273.136719 375.507813 L 275.035156 373.085938 L 276.175781 370.375 L 276.925781 370.246094 L 280.109375 370.246094 L 282.945313 371.417969 L 285.859375 371.804688 L 288.902344 371.417969 L 289.746094 371.066406 L 292.984375 371.414063 L 293.3125 371.71875 L 295.242188 372.933594 L 297.371094 373.75 L 298.398438 373.929688 L 299.445313 374.699219 L 299.210938 377.675781 L 300.015625 381.152344 L 301.917969 384.3125 L 305.074219 387.925781 L 307.070313 389.492188 L 307.179688 391.25 L 306.777344 393.191406 L 306.878906 393.902344 L 305.773438 395.078125 L 304.558594 397.011719 L 303.742188 399.140625 L 303.371094 401.261719 L 301.199219 402.96875 L 299.492188 405.136719 L 297.101563 406.082031 L 294.980469 407.53125 L 292.515625 410.480469 L 291.46875 412.824219 L 290.953125 415.472656 L 291.0625 418.167969 L 291.738281 420.644531 L 290.640625 421.550781 L 290.003906 421.65625 L 289.660156 421.574219 L 288.214844 419.332031 L 284.976563 421.730469 L 280.71875 424.230469 L 282.339844 425.378906 L 285.105469 424.398438 L 286.097656 423.375 L 286.894531 423.164063 L 287.328125 423.710938 L 287.410156 425.121094 L 286.628906 426.160156 L 285.441406 428.714844 L 284.921875 431.449219 L 283.441406 432.558594 L 282.84375 432.699219 L 279.644531 432.160156 L 274.75 433.78125 L 272.609375 436.117188 L 274.253906 436.015625 L 275.152344 434.667969 L 276.683594 434.363281 L 278.285156 434.328125 L 281.054688 434.949219 L 281.828125 435.589844 L 281.691406 436.328125 L 279.554688 436.347656 L 277.390625 437.65625 L 277.96875 438.546875 L 281.382813 438.964844 L 286.863281 440.339844 L 287.953125 440.164063 L 289.464844 441.570313 L 291.3125 442.722656 L 293.34375 443.503906 L 295.617188 443.90625 L 291.582031 444.628906 L 288.050781 446.703125 L 286.375 448.476563 L 285.050781 450.675781 L 284.269531 452.984375 L 283.984375 455.539063 L 281.8125 457.246094 L 280.109375 459.414063 L 276.902344 460.144531 L 274.128906 461.667969 L 270.273438 464.910156 L 268.867188 466.679688 L 267.21875 466.179688 L 265.199219 464.597656 L 261.355469 463.363281 L 247.089844 463.128906 L 242.28125 463.5 L 239.265625 464.546875 L 239.144531 464.632813 L 237.714844 463.296875 L 231.496094 463.171875 L 231.378906 463.496094 L 232.574219 464.835938 L 232.214844 465.75 L 231.738281 466.042969 L 226.691406 465.496094 L 219.566406 468.449219 L 217.054688 467.824219 L 210.222656 468.96875 L 208.164063 468.875 L 207.273438 468.058594 L 206.238281 469.769531 L 209.429688 471.089844 L 209.714844 470.9375 L 210.1875 472.128906 L 209.566406 473.890625 L 208.867188 474.035156 L 206.71875 472.726563 L 202.570313 471.960938 L 200.394531 472.363281 L 197.625 472.007813 L 196.175781 472.65625 L 195.679688 473.863281 L 195.753906 474.351563 L 195.222656 474.675781 L 194.851563 473.972656 L 193.808594 473.199219 L 192.816406 471.503906 L 189.785156 468.953125 L 186.074219 467.566406 L 182.113281 467.503906 L 178.140625 468.902344 L 177.195313 469.648438 L 176.207031 469.78125 L 174.339844 470.335938 L 168.992188 473.234375 L 168.214844 474.070313 L 167.203125 476.179688 L 165.597656 480.882813 L 164.175781 479.988281 L 162.042969 479.175781 L 159.921875 478.800781 L 160.570313 475.558594 L 160.46875 473.269531 L 159.921875 471.046875 L 160.589844 467.167969 L 159.921875 463.292969 L 162.867188 463.085938 L 165.550781 462.203125 L 167.941406 460.695313 L 169.976563 458.554688 L 171.355469 456.089844 L 172.101563 453.367188 L 172.171875 450.542969 L 171.699219 448.441406 L 173.15625 448.464844 L 179.199219 447.683594 L 179.800781 447.925781 L 183.113281 448.308594 L 186.398438 447.734375 L 189.488281 446.175781 L 191.90625 443.882813 L 193.621094 440.875 L 194.375 437.5 L 194.007813 433.675781 L 192.414063 430.179688 L 192.355469 430.113281 L 195.792969 425.3125 L 197.929688 424.472656 L 198.285156 423.78125 L 198.070313 423.238281 L 197.8125 423.082031 L 196.09375 424.355469 L 192.90625 427.300781 L 191.367188 429.070313 L 189.511719 427.109375 L 186.125 425.3125 L 184 424.824219 L 181.820313 424.734375 L 179.542969 425.085938 L 177.492188 425.828125 L 175.511719 427.011719 L 173.890625 428.472656 L 172.503906 430.316406 L 171.554688 432.277344 L 169.789063 430.128906 L 167.457031 428.398438 L 169.789063 426.671875 L 171.554688 424.523438 L 174.359375 424.339844 L 177.042969 423.492188 L 179.339844 422.101563 L 181.339844 420.121094 L 183.183594 416.769531 L 184.65625 415.195313 L 185.816406 413.378906 L 186.652344 411.257813 L 187.0625 409.015625 L 188.6875 407.242188 L 189.859375 405.285156 L 192.34375 397.011719 L 192.351563 394.191406 L 191.726563 391.566406 L 190.445313 389.054688 L 188.59375 386.921875 L 185.019531 383.828125 L 182.339844 382.355469 L 178.984375 381.59375 L 175.429688 381.875 L 177.519531 380.171875 L 179.226563 377.921875 L 180.300781 375.453125 L 180.789063 372.671875 L 180.613281 369.980469 L 179.308594 366.371094 L 178.871094 362.488281 L 177.972656 360.265625 L 176.636719 358.273438 L 179.050781 358.75 L 179.910156 359.441406 L 180.195313 358.886719 L 183.183594 358.617188 L 183.867188 361.703125 L 185.285156 364.390625 L 188.210938 367.566406 L 190.734375 369.300781 L 194.628906 370.480469 L 198.691406 370.246094 L 200.933594 371.214844 L 203.195313 371.679688 L 206.273438 371.589844 L 209.21875 370.695313 L 212.023438 368.890625 L 214.199219 366.371094 L 216.5 366.140625 L 218.710938 365.460938 L 220.742188 364.355469 L 222.515625 362.871094 L 224.816406 359.484375 L 225.574219 357.164063 L 225.832031 354.738281 L 227.503906 352.308594 L 228.535156 349.410156 L 228.789063 346.726563 L 228.417969 344.058594 L 227.382813 341.433594 L 225.832031 339.230469 L 227.496094 337.285156 L 228.742188 334.898438 L 229.40625 332.292969 L 229.457031 329.601563 L 228.613281 326.253906 L 226.820313 323.300781 L 224.558594 321.21875 L 221.953125 319.847656 L 220.246094 317.675781 Z M 285.835938 436.828125 L 286.496094 438.238281 L 287.25 439.277344 L 286.679688 439.636719 L 283.058594 438.976563 L 282.164063 437.605469 L 282.484375 436.070313 Z M 237.488281 465.773438 L 237.242188 465.945313 L 236.835938 466.113281 L 235.136719 465.644531 L 236.523438 463.683594 L 237.195313 464.164063 Z M 234.167969 469.886719 L 234.140625 469.9375 L 232.75 471.703125 L 231.414063 472.753906 L 230.398438 474.046875 L 229.960938 474.269531 L 229.160156 474.433594 L 227.726563 473.148438 L 225.398438 471.867188 L 223.085938 471.195313 L 222.703125 471.148438 L 222.296875 470.886719 L 221.496094 471 L 220.46875 470.875 L 221.476563 469.683594 L 227.316406 466.367188 L 232.550781 467.761719 Z M 190.917969 240.003906 L 187.921875 239.378906 L 187.539063 239.398438 L 188.617188 238.355469 L 189.332031 238.214844 Z M 179.414063 242.234375 L 179.308594 242.308594 L 179.316406 242.210938 Z M 180.367188 237.117188 L 181.207031 235.25 L 183.707031 232.523438 L 187.0625 230.675781 L 187.136719 232.121094 L 187.070313 232.078125 L 185.40625 232.042969 L 181.046875 235.800781 L 180.578125 237.003906 Z M 180.367188 237.117188 "/>
</g>
</svg>
