<?xml version="1.0" encoding="UTF-8"?>
<svg xmlns="http://www.w3.org/2000/svg" xmlns:xlink="http://www.w3.org/1999/xlink" width="378pt" height="504pt" viewBox="0 0 378 504" version="1.1">
<g id="data">
<rect x="0" y="0" width="378" height="504" style="fill:rgb(100%,100%,100%);fill-opacity:1;stroke:none;"/>
<path style=" stroke:none;fill-rule:nonzero;fill:rgb(100%,100%,100%);fill-opacity:1;" d="M 53.308594 504 L 324.691406 504 L 324.691406 0 L 53.308594 0 Z M 53.308594 504 "/>
<path style=" stroke:none;fill-rule:nonzero;fill:rgb(22.745098%,53.333333%,16.078431%);fill-opacity:1;" d="M 225.832031 304.339844 L 228 302.632813 L 229.707031 300.460938 L 232.300781 300.460938 L 233.480469 301.011719 L 232.917969 303.988281 L 233.324219 307.429688 L 234.796875 310.703125 L 237.097656 313.292969 L 238.898438 314.527344 L 240.902344 315.402344 L 243.03125 315.890625 L 245.214844 315.96875 L 247.507813 317.960938 L 250.242188 319.289063 L 253.964844 319.96875 L 254.152344 319.960938 L 256.121094 320.875 L 256.847656 321.4375 L 256.847656 321.921875 L 254.738281 323.09375 L 253.890625 324.554688 L 253.765625 325.996094 L 254.984375 329.992188 L 255.5 331.066406 L 255.851563 332.804688 L 256.742188 334.941406 L 258.117188 336.957031 L 260.722656 339.230469 L 262.609375 341.578125 L 262.765625 341.699219 L 263.316406 342.46875 L 263.640625 343.980469 L 262.804688 345.191406 L 263.28125 343.65625 L 262.507813 342.839844 L 260.445313 342 L 258.378906 342.789063 L 257.507813 342.753906 L 256.035156 341.773438 L 253.664063 338.65625 L 252.601563 338.082031 L 245.550781 339.511719 L 244.589844 338.644531 L 243.40625 338.558594 L 241.210938 339.871094 L 241.886719 340.445313 L 246.324219 340.394531 L 249.617188 339.34375 L 251.976563 339.082031 L 254.382813 342.558594 L 260.535156 347.621094 L 263.042969 349.058594 L 263.664063 349.039063 L 264.042969 349.546875 L 263.941406 351.242188 L 265.007813 356.980469 L 266.417969 360.09375 L 268.476563 362.492188 L 269.324219 364.210938 L 269.210938 365.21875 L 264.953125 369.09375 L 261.394531 373.164063 L 260.601563 374.816406 L 262.84375 374.3125 L 264.9375 375.519531 L 266.9375 378.226563 L 270.21875 378.804688 L 270.625 378.746094 L 271.910156 376.796875 L 272.234375 374.960938 L 273.40625 371.914063 L 274.707031 370.632813 L 277.765625 370.101563 L 281.859375 370.40625 L 283.53125 370.363281 L 284.253906 370.867188 L 286.703125 370.742188 L 288.125 370.894531 L 288.929688 372.859375 L 290.597656 375.140625 L 292.765625 376.953125 L 295.304688 378.1875 L 299.355469 378.816406 L 303.371094 378 L 303.742188 380.121094 L 304.558594 382.25 L 305.773438 384.183594 L 306.804688 385.28125 L 307.179688 391.25 L 306.777344 393.191406 L 306.890625 393.976563 L 305.789063 396.917969 L 305.183594 399.824219 L 303.925781 402.410156 L 303.246094 406.136719 L 303.328125 408.035156 L 297.144531 414.53125 L 295.578125 412.011719 L 292.742188 410.515625 L 292.480469 410.636719 L 293.898438 413.703125 L 295.816406 416.519531 L 295.617188 416.769531 L 292.527344 419.511719 L 291.238281 421.449219 L 290.003906 421.65625 L 289.660156 421.574219 L 288.214844 419.332031 L 284.976563 421.730469 L 280.71875 424.230469 L 282.339844 425.378906 L 285.105469 424.398438 L 286.097656 423.375 L 286.894531 423.164063 L 287.328125 423.710938 L 287.632813 428.84375 L 285.6875 430.875 L 283.441406 432.558594 L 282.84375 432.699219 L 279.644531 432.160156 L 274.75 433.78125 L 272.609375 436.117188 L 274.253906 436.015625 L 275.152344 434.667969 L 276.683594 434.363281 L 278.285156 434.328125 L 281.054688 434.949219 L 281.828125 435.589844 L 281.691406 436.328125 L 279.554688 436.347656 L 277.390625 437.65625 L 277.96875 438.546875 L 281.382813 438.964844 L 286.863281 440.339844 L 289.394531 439.9375 L 291.074219 438.957031 L 294.601563 438.46875 L 295.074219 438.785156 L 297.46875 439.695313 L 300.738281 440.171875 L 300.988281 440.160156 L 300.882813 443.210938 L 300.679688 443.53125 L 299.867188 445.664063 L 299.492188 447.785156 L 297.320313 449.492188 L 296.707031 450.273438 L 295.839844 450.375 L 292.621094 451.640625 L 291.179688 452.742188 L 289.847656 454.226563 L 289.460938 455.09375 L 289.214844 456.324219 L 289.242188 456.503906 L 289.066406 456.730469 L 288.492188 458.007813 L 286.253906 458.289063 L 284.1875 457.9375 L 282.179688 459.832031 L 279.734375 460.605469 L 277.902344 461.742188 L 277.371094 462.1875 L 274.789063 462.777344 L 272.597656 463.816406 L 270.539063 466.589844 L 269.761719 466.949219 L 259.367188 463.808594 L 259.210938 463.734375 L 255.347656 463.136719 L 251.835938 463.441406 L 248.15625 464.78125 L 247.765625 465.097656 L 244.628906 465.699219 L 242.703125 466.390625 L 242.113281 466.964844 L 242.085938 467.109375 L 240.582031 467.257813 L 240.140625 467.398438 L 238.210938 466.1875 L 238.632813 465.4375 L 239.46875 464.933594 L 237.714844 463.296875 L 231.496094 463.171875 L 231.378906 463.496094 L 232.574219 464.835938 L 232.214844 465.75 L 231.738281 466.042969 L 226.691406 465.496094 L 219.566406 468.449219 L 217.054688 467.824219 L 210.222656 468.96875 L 208.164063 468.875 L 207.273438 468.058594 L 206.238281 469.769531 L 209.429688 471.089844 L 209.714844 470.9375 L 210.1875 472.128906 L 209.566406 473.890625 L 206.84375 474.453125 L 204.453125 473.097656 L 203.015625 472.699219 L 197.625 472.007813 L 196.175781 472.65625 L 195.679688 473.863281 L 195.816406 474.75 L 195.308594 474.839844 L 194.851563 473.972656 L 190.289063 470.589844 L 185.898438 468.519531 L 183.121094 467.984375 L 181.648438 469.066406 L 176.207031 469.78125 L 174.339844 470.335938 L 168.992188 473.234375 L 168.214844 474.070313 L 167.203125 476.179688 L 162.746094 489.226563 L 160.929688 490.242188 L 158.269531 489.722656 L 157.554688 489.058594 L 156.527344 486.851563 L 154.683594 485.4375 L 153.613281 485.542969 L 152.417969 486.300781 L 151.738281 486.164063 L 148.46875 482.535156 L 145.296875 482.773438 L 141.558594 481.535156 L 138.113281 481.195313 L 135.210938 481.722656 L 132.53125 482.960938 L 130.519531 484.554688 L 128.90625 486.554688 L 126.738281 488.261719 L 125.164063 490.238281 L 124.039063 490.597656 L 123.667969 492.121094 L 122.578125 493.484375 L 121.632813 495.699219 L 121.300781 497.433594 L 120.660156 497.648438 L 120.394531 498.183594 L 118.253906 498.183594 L 117.96875 497.691406 L 118.09375 496.4375 L 117.15625 494.691406 L 115.984375 493.691406 L 112.253906 492.070313 L 111.410156 491.984375 L 110.375 492.488281 L 110.242188 494.183594 L 110.203125 494.226563 L 108.5625 493.996094 L 105.644531 494.308594 L 105.441406 494.210938 L 105.628906 491.574219 L 106.074219 490.5625 L 106.292969 490.464844 L 108.273438 490.574219 L 112.449219 490.054688 L 115.078125 489.019531 L 117.28125 487.464844 L 118.917969 485.65625 L 119.394531 484.832031 L 121.425781 483.085938 L 124.375 479.769531 L 125.210938 477.886719 L 124.875 476.421875 L 125.476563 474.921875 L 130.578125 474.898438 L 133.707031 474.183594 L 136.925781 472.328125 L 139.398438 469.550781 L 140.527344 467.242188 L 141.136719 464.613281 L 141.125 461.917969 L 140.539063 459.414063 L 143.992188 457.488281 L 146.144531 455.007813 L 148.429688 452.488281 L 148.191406 448.863281 L 148.292969 447.785156 L 148.558594 447.382813 L 151.105469 446.613281 L 157.421875 446.269531 L 159.910156 445.683594 L 164.597656 446.761719 L 166.046875 446.148438 L 167.527344 446.515625 L 169.484375 447.285156 L 170.039063 448.109375 L 170.757813 448.421875 L 173.15625 448.464844 L 180.570313 447.503906 L 181.109375 445.632813 L 181.210938 443.15625 L 182.519531 440.25 L 190.867188 432.195313 L 195.792969 425.3125 L 197.929688 424.472656 L 198.285156 423.78125 L 198.070313 423.238281 L 197.8125 423.082031 L 196.09375 424.355469 L 192.90625 427.300781 L 190.570313 429.988281 L 189.222656 431.449219 L 185.628906 432.957031 L 183.714844 433.246094 L 182.441406 433.0625 L 178.394531 435.230469 L 177.398438 436.808594 L 177.039063 438.671875 L 176.445313 439.273438 L 174.058594 439.917969 L 170.558594 439.851563 L 166.820313 439 L 166.347656 438.652344 L 161.371094 433.375 L 161.265625 433.191406 L 163.800781 432.277344 L 167.070313 432.933594 L 170.394531 432.632813 L 174.148438 430.996094 L 177.027344 428.257813 L 178.855469 424.59375 L 179.308594 420.644531 L 183.273438 422.054688 L 185.445313 422.199219 L 187.605469 421.9375 L 193.292969 419.636719 L 196.519531 416.933594 L 198.253906 414.097656 L 199.257813 410.539063 L 199.300781 407.871094 L 198.691406 405.136719 L 199.214844 401.984375 L 198.859375 398.804688 L 197.652344 395.84375 L 195.59375 393.234375 L 192.878906 391.316406 L 189.730469 390.242188 L 192.246094 390.226563 L 194.816406 389.628906 L 196.90625 393.28125 L 200.046875 395.886719 L 203.136719 397.097656 L 206.445313 397.382813 L 208.183594 398.902344 L 210.300781 400.101563 L 212.625 400.835938 L 214.921875 401.066406 L 218.582031 400.480469 L 221.976563 398.695313 L 224.308594 396.324219 L 225.832031 393.507813 L 227.621094 392.042969 L 229.160156 390.144531 L 230.589844 386.992188 L 231.027344 383.429688 L 230.398438 380.023438 L 228.71875 376.851563 L 224.390625 372.671875 L 221.699219 370.972656 L 218.007813 369.984375 L 214.199219 370.246094 L 215.75 368.574219 L 216.886719 366.742188 L 217.703125 364.613281 L 218.078125 362.492188 L 219.304688 364.886719 L 220.953125 366.847656 L 223.105469 368.464844 L 225.570313 369.542969 L 228.089844 370.015625 L 230.777344 369.910156 L 233.367188 369.1875 L 235.726563 367.890625 L 238.855469 364.898438 L 240.699219 361.582031 L 241.425781 357.992188 L 241.339844 354.738281 L 241.886719 352.511719 L 241.992188 350.351563 L 241.339844 346.984375 L 241.472656 344.230469 L 240.785156 339.5625 L 239.175781 336.355469 L 236.769531 333.867188 L 233.375 332.070313 L 229.707031 331.476563 L 227.472656 330.511719 L 225.21875 330.046875 L 221.269531 330.308594 L 217.746094 331.808594 L 219.039063 329.027344 L 219.566406 325.875 L 219.214844 322.695313 L 218.078125 319.847656 L 220.351563 318.960938 L 222.390625 317.621094 L 224.105469 315.882813 L 225.421875 313.824219 L 226.277344 311.539063 L 226.636719 309.125 L 226.488281 306.691406 Z M 159.921875 478.800781 L 162.164063 477.855469 L 164.257813 476.378906 L 166.335938 473.949219 L 167.675781 471.046875 L 170.386719 469.597656 L 172.625 467.492188 L 174.566406 464.039063 L 175.234375 460.136719 L 174.921875 457.464844 L 174 454.9375 L 172.605469 452.785156 L 170.375 450.507813 L 168.5 449.210938 L 166.40625 448.304688 L 159.886719 447.113281 L 157.082031 447.460938 L 154.558594 448.414063 L 152.324219 449.921875 L 150.496094 451.90625 L 148.742188 455.46875 L 148.292969 459.414063 L 146.605469 461.519531 L 145.488281 463.832031 L 144.828125 467.742188 L 145.152344 470.417969 L 146.140625 473.0625 L 147.652344 475.296875 L 149.636719 477.117188 L 151.988281 478.433594 L 154.582031 479.175781 L 157.273438 479.300781 Z M 232.859375 471.5625 L 231.871094 472.320313 L 230.464844 474.011719 L 229.960938 474.269531 L 228.117188 474.644531 L 222.296875 470.886719 L 220.207031 471.1875 L 221.476563 469.683594 L 227.316406 466.367188 L 232.550781 467.761719 L 234.171875 469.894531 Z M 148.191406 432.207031 L 147.390625 431.050781 L 147.101563 430.789063 L 146.917969 429.308594 L 148.359375 428.480469 L 149.90625 430.398438 L 151.238281 431.46875 L 149.269531 432.308594 L 149.113281 432.746094 Z M 195.6875 240.230469 L 196.027344 240.917969 L 198.035156 243.253906 L 200.585938 244.984375 L 203.5 245.980469 L 205.5 246.117188 L 206.488281 246.65625 L 208.910156 251.429688 L 212.824219 256.707031 L 213.265625 256.828125 L 213.433594 256.585938 L 214.601563 257.097656 L 215.097656 257.4375 L 215.390625 258.191406 L 216.605469 260.121094 L 218.078125 261.691406 L 218.078125 265.570313 L 216.632813 263.671875 L 214.199219 261.691406 L 212.023438 259.167969 L 210.136719 257.835938 L 208.019531 256.898438 L 205.890625 256.417969 L 203.582031 256.347656 L 201.054688 256.8125 L 198.691406 257.816406 L 194.816406 257.816406 L 195.804688 254.640625 L 195.871094 251.441406 L 195.0625 248.34375 L 193.441406 245.585938 L 190.597656 243.011719 L 186.949219 241.472656 L 186.539063 241.445313 L 187.519531 239.417969 L 188.617188 238.355469 L 189.539063 238.171875 L 193.183594 238.5 Z M 179.492188 242.257813 L 179.308594 242.308594 L 179.308594 242.207031 Z M 149.410156 351.960938 L 149.640625 352.191406 L 151.039063 355.578125 L 155.546875 356.503906 L 154.433594 358.273438 L 152.136719 358.097656 L 149.492188 358.503906 L 147.007813 359.507813 L 145.964844 356.914063 L 144.414063 354.738281 L 144.414063 351.296875 L 144.664063 351.183594 L 146.003906 350.957031 Z M 181.277344 349.148438 L 182.222656 347.734375 L 182.980469 345.28125 L 183.308594 342.109375 L 183.277344 340.421875 L 183.371094 340.257813 L 185.429688 339.015625 L 185.140625 338.578125 L 183.242188 338.488281 L 183.183594 335.355469 L 184.722656 333.699219 L 185.964844 331.664063 L 186.019531 334.097656 L 186.628906 336.589844 L 187.695313 338.78125 L 189.289063 340.792969 L 191.28125 342.40625 L 193.578125 343.542969 L 195.941406 344.128906 L 198.507813 344.203125 L 196.472656 345.445313 L 194.816406 346.984375 L 192.207031 347.503906 L 189.894531 348.535156 L 187.0625 350.863281 L 184.421875 351.375 L 182.664063 352.15625 Z M 181.546875 352.8125 L 180.027344 353.941406 L 178.761719 355.410156 L 177.679688 353.460938 L 178.242188 352.835938 L 180.867188 352.449219 L 181.503906 352.695313 Z M 177.554688 357.546875 L 176.808594 359.109375 L 176.316406 362.652344 L 177.148438 366.78125 L 179.308594 370.246094 L 178.660156 373.449219 L 177.75 371.480469 L 176.402344 369.617188 L 174.71875 368.054688 L 172.757813 366.855469 L 170.597656 366.066406 L 168.328125 365.714844 L 166.03125 365.816406 L 163.800781 366.371094 L 162.792969 364.015625 L 161.378906 362.035156 L 159.582031 360.390625 L 157.367188 359.105469 L 156.925781 358.96875 L 160.492188 357.457031 L 163.644531 357.28125 L 167.339844 357.714844 L 172.597656 355.179688 L 173.933594 355.046875 L 174.484375 355.082031 Z M 175.429688 389.628906 L 177.113281 387.90625 L 178.347656 385.984375 L 179.214844 383.738281 L 179.605469 381.363281 L 180.816406 384.4375 L 182.847656 387.046875 L 185.644531 389.039063 L 188.777344 390.105469 L 186.242188 390.121094 L 183.65625 390.730469 L 181.378906 391.839844 L 179.308594 393.507813 L 177.601563 391.335938 Z M 148.996094 308.90625 L 148.292969 312.09375 L 145.988281 313.203125 L 143.886719 314.878906 L 142.296875 316.882813 L 141.183594 319.1875 L 140.574219 316.152344 L 142.300781 315.023438 L 144.765625 310.230469 L 145.863281 309.40625 L 148.535156 308.453125 Z M 141.707031 378.121094 L 139.164063 377.851563 L 136.660156 378 L 136.660156 377.304688 L 137.339844 376.066406 L 139.816406 373.375 L 141.347656 372.734375 L 142.5625 375.625 L 143.160156 376.394531 L 142.039063 378.097656 Z M 138.761719 406.582031 L 138.105469 407.117188 L 135.1875 410.789063 L 133.90625 413.296875 L 133.265625 416.035156 L 133.339844 419.105469 L 134.265625 422.164063 L 135.90625 424.761719 L 136.542969 425.335938 L 136.292969 426.515625 L 135.777344 427.203125 L 135.445313 427.320313 L 135.375 427.328125 L 135.148438 427.425781 L 133.742188 427.917969 L 132.394531 427.265625 L 132.195313 427.316406 L 131.015625 425.148438 L 130.71875 424.867188 L 131.792969 424.328125 L 131.226563 422.867188 L 130.640625 424.257813 L 130.136719 424.320313 L 128.316406 422.617188 L 125.429688 421.300781 L 125.464844 421.238281 L 124.929688 417.953125 L 123.691406 417.382813 L 123.839844 417.144531 L 124.65625 415.015625 L 124.859375 413.871094 L 125.933594 413.378906 L 126.539063 411.90625 L 133.074219 411.34375 L 134.871094 409.289063 L 135.753906 407.632813 L 137.585938 406.550781 Z M 286.679688 439.636719 L 283.058594 438.976563 L 282.164063 437.605469 L 282.484375 436.070313 L 286.839844 437.054688 L 287.960938 438.832031 Z M 236.835938 466.113281 L 235.136719 465.644531 L 236.523438 463.683594 L 237.195313 464.164063 L 237.5 465.839844 Z M 236.835938 466.113281 "/>
<path style=" stroke:none;fill-rule:nonzero;fill:rgb(80.392157%,58.431373%,4.705882%);fill-opacity:1;" d="M 200.628906 312.09375 L 200.347656 313.890625 L 199.519531 315.511719 L 198.234375 316.796875 L 196.613281 317.625 L 194.816406 317.90625 L 193.019531 317.625 L 191.398438 316.796875 L 190.109375 315.511719 L 189.285156 313.890625 L 189 312.09375 L 189.285156 310.296875 L 190.109375 308.675781 L 191.398438 307.386719 L 193.019531 306.5625 L 194.816406 306.277344 L 196.613281 306.5625 L 198.234375 307.386719 L 199.519531 308.675781 L 200.347656 310.296875 Z M 200.628906 312.09375 "/>
<path style=" stroke:none;fill-rule:nonzero;fill:rgb(80.392157%,58.431373%,4.705882%);fill-opacity:1;" d="M 189 288.832031 L 188.714844 290.628906 L 187.890625 292.25 L 186.601563 293.535156 L 184.980469 294.363281 L 183.183594 294.644531 L 181.386719 294.363281 L 179.765625 293.535156 L 178.480469 292.25 L 177.652344 290.628906 L 177.371094 288.832031 L 177.652344 287.035156 L 178.128906 286.097656 L 178.757813 285.980469 L 180.191406 286.804688 L 182.933594 286.238281 L 183.03125 285.160156 L 182.34375 284.746094 L 180.035156 285.351563 L 178.636719 285.257813 L 179.765625 284.125 L 181.386719 283.300781 L 183.183594 283.015625 L 184.980469 283.300781 L 186.601563 284.125 L 187.890625 285.414063 L 188.714844 287.035156 Z M 189 288.832031 "/>
<path style=" stroke:none;fill-rule:nonzero;fill:rgb(80.392157%,58.431373%,4.705882%);fill-opacity:1;" d="M 192.875 319.847656 L 192.59375 321.644531 L 191.765625 323.265625 L 190.480469 324.550781 L 188.859375 325.375 L 187.0625 325.660156 L 186.328125 325.546875 L 187.28125 323.421875 L 187.71875 320.933594 L 187.855469 317.484375 L 184.742188 320.527344 L 181.761719 322.09375 L 181.246094 319.847656 L 181.53125 318.050781 L 182.355469 316.429688 L 183.644531 315.140625 L 185.265625 314.316406 L 187.0625 314.03125 L 188.859375 314.316406 L 190.480469 315.140625 L 191.765625 316.429688 L 192.59375 318.050781 Z M 192.875 319.847656 "/>
<path style=" stroke:none;fill-rule:nonzero;fill:rgb(80.392157%,58.431373%,4.705882%);fill-opacity:1;" d="M 181.246094 288.832031 L 180.960938 290.628906 L 180.136719 292.25 L 178.847656 293.535156 L 177.226563 294.363281 L 175.429688 294.644531 L 173.632813 294.363281 L 171.859375 293.382813 L 174.074219 288.722656 L 176.464844 286.417969 L 178.757813 285.980469 L 180.191406 286.804688 L 180.808594 286.734375 Z M 171.902344 284.238281 L 173.632813 283.300781 L 175.429688 283.015625 L 177.226563 283.300781 L 178.847656 284.125 L 180.066406 285.34375 L 174.65625 284.980469 Z M 171.902344 284.238281 "/>
<path style=" stroke:none;fill-rule:nonzero;fill:rgb(80.392157%,58.431373%,4.705882%);fill-opacity:1;" d="M 173.492188 304.339844 L 173.207031 306.136719 L 172.382813 307.757813 L 170.574219 309.308594 L 167.40625 304.652344 L 169.296875 298.78125 L 171.09375 299.632813 L 172.382813 300.921875 L 173.207031 302.542969 Z M 173.492188 304.339844 "/>
<path style=" stroke:none;fill-rule:nonzero;fill:rgb(80.392157%,58.431373%,4.705882%);fill-opacity:1;" d="M 157.984375 393.507813 L 157.699219 395.304688 L 156.875 396.925781 L 155.585938 398.210938 L 153.964844 399.039063 L 151.375 399.199219 L 153.054688 396.195313 L 154.199219 391.746094 L 153.734375 388.820313 L 153.246094 387.863281 L 155.585938 388.804688 L 156.875 390.089844 L 157.699219 391.710938 Z M 157.984375 393.507813 "/>
<path style=" stroke:none;fill-rule:nonzero;fill:rgb(80.392157%,58.431373%,4.705882%);fill-opacity:1;" d="M 189.417969 232.734375 L 189 230.675781 L 189.285156 228.878906 L 190.109375 227.257813 L 190.667969 226.703125 L 192.988281 227.191406 L 194.445313 228.726563 L 194.429688 229.304688 L 192.117188 231.570313 Z M 189.417969 232.734375 "/>
<path style=" stroke:none;fill-rule:nonzero;fill:rgb(80.392157%,58.431373%,4.705882%);fill-opacity:1;" d="M 191.800781 231.710938 L 190.109375 230.21875 L 189.285156 228.597656 L 189 226.800781 L 189.171875 225.710938 L 190.898438 226.824219 L 192.988281 227.191406 L 194.445313 228.726563 L 194.429688 229.304688 Z M 191.800781 231.710938 "/>
<path style=" stroke:none;fill-rule:nonzero;fill:rgb(80.392157%,58.431373%,4.705882%);fill-opacity:1;" d="M 88.429688 500.046875 L 88.566406 499.308594 L 88.941406 499.117188 L 89.34375 499.789063 Z M 88.429688 500.046875 "/>
<path style=" stroke:none;fill-rule:nonzero;fill:rgb(80.392157%,58.431373%,4.705882%);fill-opacity:1;" d="M 88.429688 500.046875 L 88.566406 499.308594 L 88.941406 499.117188 L 89.34375 499.789063 Z M 88.429688 500.046875 "/>
</g>
</svg>
