<?xml version="1.0" encoding="UTF-8"?>
<svg xmlns="http://www.w3.org/2000/svg" xmlns:xlink="http://www.w3.org/1999/xlink" width="378pt" height="504pt" viewBox="0 0 378 504" version="1.1">
<g id="data">
<rect x="0" y="0" width="378" height="504" style="fill:rgb(100%,100%,100%);fill-opacity:1;stroke:none;"/>
<path style=" stroke:none;fill-rule:nonzero;fill:rgb(100%,100%,100%);fill-opacity:1;" d="M 53.308594 504 L 324.691406 504 L 324.691406 0 L 53.308594 0 Z M 53.308594 504 "/>
<path style=" stroke:none;fill-rule:nonzero;fill:rgb(22.745098%,53.333333%,16.078431%);fill-opacity:1;" d="M 146.980469 429.804688 L 147.234375 429.199219 L 147.359375 429.054688 L 148.539063 428.378906 L 150.066406 428.890625 L 151.640625 428.421875 L 152.765625 427.832031 L 153.085938 427.097656 L 152.808594 426.597656 L 150 426.519531 L 151.042969 425.65625 L 152.535156 424.757813 L 154.226563 424.34375 L 155.96875 424.445313 L 157.597656 425.0625 L 158.972656 426.132813 L 159.96875 427.5625 L 160.496094 429.222656 L 160.507813 430.96875 L 160.339844 431.53125 L 159.03125 429.199219 L 155.65625 429.589844 L 149.269531 432.308594 L 149.113281 432.746094 L 147.203125 431.632813 Z M 180.652344 447.21875 L 181.316406 447.300781 L 182.566406 447.164063 L 184.964844 446.238281 L 186.101563 445.925781 L 188.960938 445.445313 L 190.542969 444.609375 L 191.648438 443.515625 L 192.40625 442.191406 L 192.785156 440.765625 L 192.816406 438.789063 L 192.425781 437.230469 L 191.582031 435.78125 L 190.460938 434.710938 L 189.03125 433.964844 L 190.867188 432.195313 L 195.792969 425.3125 L 197.929688 424.472656 L 198.285156 423.78125 L 198.070313 423.238281 L 197.8125 423.082031 L 196.09375 424.355469 L 192.90625 427.300781 L 190.570313 429.988281 L 189.222656 431.449219 L 186.789063 432.472656 L 186.78125 432.46875 L 185.726563 430.980469 L 185.183594 429.238281 L 185.207031 427.417969 L 185.703125 424.523438 L 185.207031 421.628906 L 185.171875 419.882813 L 185.660156 418.203125 L 186.625 416.742188 L 187.980469 415.640625 L 189.605469 414.984375 L 191.347656 414.84375 L 193.140625 414.972656 L 195.390625 414.777344 L 197.730469 413.96875 L 198.84375 413.136719 L 199.785156 411.933594 L 200.378906 410.527344 L 200.683594 408.246094 L 201.1875 406.527344 L 202.195313 405.046875 L 203.601563 403.941406 L 205.277344 403.316406 L 207.066406 403.234375 L 209.25 403.46875 L 210.671875 403.257813 L 212.09375 402.648438 L 213.378906 401.648438 L 215.136719 399.644531 L 215.964844 397.847656 L 216.765625 393.613281 L 216.71875 392.703125 L 216.308594 391.019531 L 216.164063 389.082031 L 216.667969 387.203125 L 217.765625 385.597656 L 219.328125 384.441406 L 221.054688 383.566406 L 221.984375 382.8125 L 222.742188 381.871094 L 223.214844 380.933594 L 223.617188 378.980469 L 223.394531 377.097656 L 222.773438 375.695313 L 221.332031 373.929688 L 220.394531 372.3125 L 220.019531 370.484375 L 219.949219 368.785156 L 219.652344 367.589844 L 219.175781 366.589844 L 218.074219 365.136719 L 217.257813 363.644531 L 216.90625 361.980469 L 217.050781 360.285156 L 217.679688 358.703125 L 218.742188 357.375 L 220.140625 356.40625 L 221.945313 355.519531 L 223.015625 354.640625 L 223.683594 353.789063 L 224.503906 352.144531 L 225.167969 351.105469 L 226.648438 349.253906 L 227.394531 347.199219 L 227.363281 344.960938 L 226.949219 343.734375 L 226.152344 342.507813 L 225.070313 341.527344 L 223.121094 340.5 L 221.761719 339.507813 L 220.746094 338.171875 L 220.152344 336.601563 L 220.03125 334.925781 L 220.234375 332.175781 L 219.761719 330.28125 L 219.097656 329.121094 L 216.722656 326.324219 L 214.3125 324.277344 L 213.105469 322.863281 L 212.40625 321.144531 L 212.289063 319.289063 L 212.515625 316.917969 L 212.234375 315.363281 L 211.550781 313.960938 L 209.882813 312.109375 L 208.917969 310.648438 L 208.433594 308.960938 L 208.472656 307.210938 L 209.03125 305.546875 L 210.0625 304.128906 L 211.46875 303.082031 L 213.121094 302.5 L 214.875 302.4375 L 216.5625 302.902344 L 218.058594 303.566406 L 219.117188 303.816406 L 220.203125 303.863281 L 221.277344 303.703125 L 222.304688 303.347656 L 223.246094 302.808594 L 224.058594 302.109375 L 225.140625 300.738281 L 226.414063 299.542969 L 227.984375 298.785156 L 229.003906 298.628906 L 229.304688 299.0625 L 234.773438 301.613281 L 235.140625 302.261719 L 235.511719 303.96875 L 235.644531 306.078125 L 236.070313 307.414063 L 236.796875 308.59375 L 237.871094 309.636719 L 239.070313 310.328125 L 240.417969 310.710938 L 241.804688 310.761719 L 243.980469 310.285156 L 245.59375 310.167969 L 247.183594 310.496094 L 247.273438 310.542969 L 249.289063 315.722656 L 252.390625 319.148438 L 254.902344 320.308594 L 254.863281 323.023438 L 254.738281 323.09375 L 253.890625 324.554688 L 253.765625 325.996094 L 254.984375 329.992188 L 256.160156 332.453125 L 262.304688 341.050781 L 262.171875 341.566406 L 261.75 342.53125 L 260.445313 342 L 258.378906 342.789063 L 257.507813 342.753906 L 256.035156 341.773438 L 253.664063 338.65625 L 252.601563 338.082031 L 245.550781 339.511719 L 244.589844 338.644531 L 243.40625 338.558594 L 241.210938 339.871094 L 241.886719 340.445313 L 246.324219 340.394531 L 249.617188 339.34375 L 251.976563 339.082031 L 254.382813 342.558594 L 260.535156 347.621094 L 262.816406 348.929688 L 263.007813 349.148438 L 264.296875 350.152344 L 265.339844 351.273438 L 265.628906 351.660156 L 266.332031 353.203125 L 266.53125 355.050781 L 266.414063 357.164063 L 266.777344 360.078125 L 267.324219 361.441406 L 268.148438 362.574219 L 269.144531 363.417969 L 269.402344 363.546875 L 269.210938 365.21875 L 264.953125 369.09375 L 261.394531 373.164063 L 260.601563 374.816406 L 262.84375 374.3125 L 264.9375 375.519531 L 266.9375 378.226563 L 270.21875 378.804688 L 270.625 378.746094 L 271.910156 376.796875 L 272.234375 374.960938 L 273.40625 371.914063 L 274.707031 370.632813 L 277.851563 370.085938 L 283.34375 370.234375 L 284.253906 370.867188 L 286.703125 370.742188 L 293.949219 371.515625 L 296.914063 372.84375 L 304.070313 378.085938 L 305.367188 380.105469 L 306.730469 384.164063 L 307.179688 391.25 L 306.777344 393.191406 L 306.890625 393.976563 L 305.789063 396.917969 L 303.519531 407.832031 L 300.707031 410.789063 L 299.113281 410.941406 L 297.289063 410.519531 L 295.691406 409.542969 L 293.535156 407.679688 L 291.652344 406.921875 L 290.457031 406.800781 L 288.578125 407.03125 L 285.886719 406.730469 L 284.261719 406.144531 L 283.335938 406.007813 L 281.140625 406.28125 L 279.574219 407.03125 L 278.351563 408.175781 L 277.472656 409.730469 L 277.078125 411.621094 L 277.125 412.589844 L 277.460938 413.894531 L 278.308594 415.78125 L 279.136719 416.890625 L 280.09375 417.703125 L 281.21875 418.292969 L 282.460938 418.628906 L 284.265625 418.714844 L 285.957031 419.050781 L 287.476563 419.871094 L 287.480469 419.875 L 284.976563 421.730469 L 280.71875 424.230469 L 282.339844 425.378906 L 285.105469 424.398438 L 286.097656 423.375 L 286.894531 423.164063 L 287.328125 423.710938 L 287.632813 428.84375 L 285.6875 430.875 L 283.441406 432.558594 L 282.84375 432.699219 L 279.644531 432.160156 L 274.75 433.78125 L 272.609375 436.117188 L 274.253906 436.015625 L 275.152344 434.667969 L 276.683594 434.363281 L 278.285156 434.328125 L 281.054688 434.949219 L 281.828125 435.589844 L 281.691406 436.328125 L 279.554688 436.347656 L 277.390625 437.65625 L 277.96875 438.546875 L 281.382813 438.964844 L 286.863281 440.339844 L 289.394531 439.9375 L 291.074219 438.957031 L 296.871094 438.15625 L 299.347656 438.09375 L 299.960938 438.175781 L 300.988281 440.148438 L 300.773438 446.324219 L 300.335938 447.820313 L 299.394531 449.050781 L 296.972656 450.242188 L 295.839844 450.375 L 292.621094 451.640625 L 291.179688 452.742188 L 290.152344 453.886719 L 289.777344 453.976563 L 288.757813 454.464844 L 287.570313 455.429688 L 286.703125 456.605469 L 286.15625 457.964844 L 286.117188 458.265625 L 284.1875 457.9375 L 281.042969 460.90625 L 278.484375 461.933594 L 274.789063 462.777344 L 272.597656 463.816406 L 270.539063 466.589844 L 269.761719 466.949219 L 259.269531 463.777344 L 256.070313 463.507813 L 244.628906 465.699219 L 242.703125 466.390625 L 242.113281 466.964844 L 241.902344 467.984375 L 241.359375 468.164063 L 238.210938 466.1875 L 238.632813 465.4375 L 239.46875 464.933594 L 237.714844 463.296875 L 231.496094 463.171875 L 231.378906 463.496094 L 232.574219 464.835938 L 232.214844 465.75 L 231.738281 466.042969 L 226.691406 465.496094 L 219.566406 468.449219 L 217.054688 467.824219 L 210.222656 468.96875 L 208.164063 468.875 L 207.273438 468.058594 L 206.238281 469.769531 L 209.429688 471.089844 L 209.714844 470.9375 L 210.1875 472.128906 L 209.566406 473.890625 L 206.84375 474.453125 L 204.453125 473.097656 L 203.015625 472.699219 L 197.625 472.007813 L 196.175781 472.65625 L 195.679688 473.863281 L 195.832031 474.871094 L 196.757813 475.523438 L 196.488281 476.304688 L 195.917969 475.996094 L 194.851563 473.972656 L 190.289063 470.589844 L 185.898438 468.519531 L 183.121094 467.984375 L 181.648438 469.066406 L 176.207031 469.78125 L 174.339844 470.335938 L 168.992188 473.234375 L 168.214844 474.070313 L 167.203125 476.179688 L 162.746094 489.226563 L 160.929688 490.242188 L 158.269531 489.722656 L 157.554688 489.058594 L 156.527344 486.851563 L 154.683594 485.4375 L 153.613281 485.542969 L 152.417969 486.300781 L 151.738281 486.164063 L 148.46875 482.535156 L 142.796875 482.960938 L 142.4375 483.078125 L 142.164063 481.730469 L 141.164063 479.691406 L 140.648438 478.082031 L 140.621094 476.390625 L 141.078125 474.761719 L 141.984375 473.335938 L 143.886719 471.125 L 145.621094 469.757813 L 147.742188 469.132813 L 149.367188 468.980469 L 150.160156 468.75 L 152.15625 467.5 L 153.367188 465.910156 L 154.023438 463.78125 L 154.039063 462.78125 L 153.808594 461.589844 L 153.332031 460.476563 L 152.644531 459.5 L 151.679688 458.613281 L 150.644531 458.015625 L 149.492188 457.636719 L 147.675781 457.445313 L 146.03125 457.019531 L 144.582031 456.140625 L 144.417969 455.957031 L 145.761719 455.429688 L 148.429688 452.488281 L 148.105469 447.519531 L 151.105469 446.613281 L 157.421875 446.269531 L 159.910156 445.683594 L 164.597656 446.761719 L 166.046875 446.148438 L 167.527344 446.515625 L 169.484375 447.285156 L 170.039063 448.109375 L 170.757813 448.421875 L 173.15625 448.464844 L 180.570313 447.503906 Z M 185.863281 248.945313 L 185.175781 247.191406 L 185.082031 245.308594 L 185.597656 243.496094 L 186.667969 241.941406 L 188.175781 240.8125 L 189.964844 240.222656 L 191.664063 239.960938 L 192.640625 239.609375 L 193.640625 239.015625 L 193.769531 238.902344 L 199.339844 242.761719 L 203.699219 245.136719 L 203.445313 245.65625 L 202.285156 247.304688 L 201.789063 248.546875 L 201.589844 249.871094 L 201.703125 251.234375 L 202.054688 252.363281 L 202.742188 253.578125 L 204.394531 255.699219 L 206.214844 257.160156 L 207.445313 258.523438 L 208.191406 260.203125 L 208.375 262.03125 L 207.980469 263.824219 L 207.042969 265.40625 L 205.660156 266.617188 L 203.96875 267.335938 L 202.140625 267.492188 L 200.351563 267.066406 L 198.214844 266.1875 L 196.800781 266 L 195.277344 266.191406 L 193.15625 267.066406 L 191.390625 267.488281 L 189.578125 267.347656 L 187.898438 266.652344 L 186.519531 265.472656 L 185.566406 263.921875 L 185.140625 262.15625 L 185.28125 260.347656 L 185.972656 258.667969 L 187.609375 255.980469 L 187.988281 253.9375 L 187.605469 251.867188 Z M 168.570313 371.359375 L 167.148438 370.167969 L 166.179688 368.589844 L 165.753906 366.785156 L 165.917969 364.941406 L 166.652344 363.238281 L 167.886719 361.855469 L 169.492188 360.933594 L 171.308594 360.558594 L 173.027344 360.484375 L 174.15625 360.210938 L 175.109375 359.769531 L 176.519531 358.75 L 178.0625 357.953125 L 179.910156 359.441406 L 180.433594 358.429688 L 180.019531 357.675781 L 181.515625 357.867188 L 183.101563 358.585938 L 184.402344 359.746094 L 185.300781 361.242188 L 185.71875 362.933594 L 185.613281 364.671875 L 184.996094 367.582031 L 184.691406 368.5625 L 183.769531 370.832031 L 183.511719 372.632813 L 183.214844 373.5625 L 184.195313 374.820313 L 184.394531 375.183594 L 184.628906 375.652344 L 185.476563 377.578125 L 186.332031 378.683594 L 187.417969 379.539063 L 189.441406 380.445313 L 190.640625 381.171875 L 191.632813 382.160156 L 192.910156 383.78125 L 194.535156 385.058594 L 195.792969 386.429688 L 196.554688 388.125 L 196.742188 389.976563 L 196.335938 391.792969 L 195.375 393.386719 L 193.960938 394.597656 L 192.238281 395.300781 L 190.382813 395.417969 L 188.011719 395.191406 L 186.457031 395.472656 L 185.054688 396.15625 L 183.203125 397.824219 L 181.730469 398.792969 L 180.035156 399.277344 L 178.273438 399.230469 L 176.605469 398.65625 L 175.1875 397.609375 L 174.144531 396.1875 L 173.582031 394.515625 L 173.304688 392.945313 L 172.890625 391.871094 L 172.277344 390.894531 L 171.1875 389.730469 L 170.082031 388.039063 L 169.625 386.070313 L 169.867188 384.066406 L 170.777344 382.265625 L 172.707031 379.695313 L 173.082031 378.695313 L 173.347656 376.816406 L 173.652344 375.832031 L 173.195313 375.417969 L 171.253906 372.964844 Z M 149.214844 401.921875 L 149.910156 403.238281 L 150.230469 405 L 149.996094 406.777344 L 149.230469 408.398438 L 148.011719 409.710938 L 146.386719 410.988281 L 145.109375 412.609375 L 143.730469 413.875 L 142.019531 414.640625 L 138.738281 415.503906 L 138.03125 415.917969 L 137.230469 416.621094 L 136.511719 417.550781 L 136.03125 418.5 L 135.734375 419.535156 L 135.582031 421.15625 L 135.128906 422.925781 L 134.144531 424.46875 L 132.734375 425.628906 L 131.03125 426.292969 L 129.207031 426.398438 L 127.773438 426.019531 L 128.796875 425.832031 L 131.792969 424.328125 L 131.226563 422.867188 L 130.640625 424.257813 L 127.769531 424.613281 L 125.28125 424.375 L 124.550781 423.71875 L 123.503906 423.117188 L 122.355469 422.742188 L 122.308594 422.738281 L 124.125 421.78125 L 125.167969 421.753906 L 125.464844 421.238281 L 124.929688 417.953125 L 123.328125 417.210938 L 121.445313 417.105469 L 122.0625 415.152344 L 125.933594 413.378906 L 126.539063 411.90625 L 133.074219 411.34375 L 134.871094 409.289063 L 135.753906 407.632813 L 137.585938 406.550781 L 141.359375 406.660156 L 142.21875 406.390625 Z M 286.679688 439.636719 L 283.058594 438.976563 L 282.164063 437.605469 L 282.484375 436.070313 L 286.839844 437.054688 L 287.960938 438.832031 Z M 236.835938 466.113281 L 235.136719 465.644531 L 236.523438 463.683594 L 237.195313 464.164063 L 237.5 465.839844 Z M 228.117188 474.644531 L 222.296875 470.886719 L 220.207031 471.1875 L 221.476563 469.683594 L 227.316406 466.367188 L 232.550781 467.761719 L 234.171875 469.894531 L 231.242188 473.621094 L 229.960938 474.269531 Z M 228.117188 474.644531 "/>
<path style=" stroke:none;fill-rule:nonzero;fill:rgb(80.392157%,58.431373%,4.705882%);fill-opacity:1;" d="M 216.136719 358.617188 L 215.855469 360.414063 L 215.027344 362.035156 L 213.742188 363.320313 L 212.121094 364.144531 L 210.324219 364.429688 L 208.527344 364.144531 L 206.90625 363.320313 L 205.617188 362.035156 L 204.792969 360.414063 L 204.507813 358.617188 L 204.792969 356.816406 L 205.617188 355.195313 L 206.90625 353.910156 L 208.527344 353.085938 L 210.324219 352.800781 L 212.121094 353.085938 L 213.742188 353.910156 L 215.027344 355.195313 L 215.855469 356.816406 Z M 216.136719 358.617188 "/>
<path style=" stroke:none;fill-rule:nonzero;fill:rgb(80.392157%,58.431373%,4.705882%);fill-opacity:1;" d="M 189 288.832031 L 188.714844 290.628906 L 187.890625 292.25 L 186.601563 293.535156 L 184.980469 294.363281 L 183.183594 294.644531 L 181.386719 294.363281 L 179.765625 293.535156 L 178.480469 292.25 L 177.652344 290.628906 L 177.371094 288.832031 L 177.652344 287.035156 L 178.128906 286.097656 L 178.757813 285.980469 L 180.191406 286.804688 L 181.015625 286.710938 L 182.933594 286.238281 L 183.03125 285.160156 L 182.34375 284.746094 L 180.035156 285.351563 L 178.636719 285.257813 L 179.765625 284.125 L 181.386719 283.300781 L 183.183594 283.015625 L 184.980469 283.300781 L 186.601563 284.125 L 187.890625 285.414063 L 188.714844 287.035156 Z M 189 288.832031 "/>
<path style=" stroke:none;fill-rule:nonzero;fill:rgb(80.392157%,58.431373%,4.705882%);fill-opacity:1;" d="M 123.65625 492.152344 L 123.234375 492.085938 L 121.613281 491.257813 L 120.324219 489.972656 L 119.5 488.351563 L 119.214844 486.554688 L 119.5 484.757813 L 119.511719 484.730469 L 121.425781 483.085938 L 123.265625 481.019531 L 125.03125 480.738281 L 126.828125 481.023438 L 128.449219 481.847656 L 129.734375 483.136719 L 130.5625 484.757813 L 130.832031 486.476563 L 129.414063 488.195313 L 126.714844 489.746094 L 124.039063 490.597656 Z M 123.65625 492.152344 "/>
<path style=" stroke:none;fill-rule:nonzero;fill:rgb(80.392157%,58.431373%,4.705882%);fill-opacity:1;" d="M 181.246094 292.707031 L 180.960938 294.503906 L 180.136719 296.125 L 178.847656 297.414063 L 177.226563 298.238281 L 175.429688 298.523438 L 173.632813 298.238281 L 172.011719 297.414063 L 170.726563 296.125 L 170.636719 295.953125 L 174.074219 288.722656 L 175.894531 286.964844 L 177.226563 287.175781 L 178.847656 288.003906 L 180.136719 289.289063 L 180.960938 290.910156 Z M 181.246094 292.707031 "/>
<path style=" stroke:none;fill-rule:nonzero;fill:rgb(80.392157%,58.431373%,4.705882%);fill-opacity:1;" d="M 192.875 319.847656 L 192.59375 321.644531 L 191.765625 323.265625 L 190.480469 324.550781 L 188.859375 325.375 L 187.0625 325.660156 L 186.328125 325.546875 L 187.28125 323.421875 L 187.71875 320.933594 L 187.855469 317.484375 L 184.742188 320.527344 L 181.761719 322.09375 L 181.53125 321.644531 L 181.246094 319.847656 L 181.53125 318.050781 L 182.355469 316.429688 L 183.644531 315.140625 L 185.265625 314.316406 L 187.0625 314.03125 L 188.859375 314.316406 L 190.480469 315.140625 L 191.765625 316.429688 L 192.59375 318.050781 Z M 192.875 319.847656 "/>
<path style=" stroke:none;fill-rule:nonzero;fill:rgb(80.392157%,58.431373%,4.705882%);fill-opacity:1;" d="M 179.679688 242.304688 L 178.847656 243.136719 L 177.226563 243.960938 L 175.429688 244.246094 L 173.632813 243.960938 L 172.011719 243.136719 L 170.726563 241.847656 L 170.039063 240.5 L 178.0625 241.875 Z M 169.667969 238.101563 L 169.898438 236.632813 L 170.726563 235.011719 L 172.011719 233.726563 L 173.632813 232.898438 L 175.429688 232.617188 L 177.226563 232.898438 L 178.847656 233.726563 L 180.136719 235.011719 L 180.824219 236.367188 L 180.578125 237.003906 L 174.761719 240.109375 L 170.214844 238.117188 Z M 169.667969 238.101563 "/>
<path style=" stroke:none;fill-rule:nonzero;fill:rgb(80.392157%,58.431373%,4.705882%);fill-opacity:1;" d="M 189 319.847656 L 188.714844 321.644531 L 187.890625 323.265625 L 186.914063 324.238281 L 187.28125 323.421875 L 187.71875 320.933594 L 187.855469 317.484375 L 184.742188 320.527344 L 179.199219 323.441406 L 178.40625 323.121094 L 177.652344 321.644531 L 177.371094 319.847656 L 177.652344 318.050781 L 178.480469 316.429688 L 179.765625 315.140625 L 181.386719 314.316406 L 183.183594 314.03125 L 184.980469 314.316406 L 186.601563 315.140625 L 187.890625 316.429688 L 188.714844 318.050781 Z M 189 319.847656 "/>
<path style=" stroke:none;fill-rule:nonzero;fill:rgb(80.392157%,58.431373%,4.705882%);fill-opacity:1;" d="M 185.125 319.847656 L 185.066406 320.210938 L 184.742188 320.527344 L 179.199219 323.441406 L 177.335938 322.691406 L 174.1875 317.242188 L 174.601563 316.429688 L 175.890625 315.140625 L 177.511719 314.316406 L 179.308594 314.03125 L 181.105469 314.316406 L 182.726563 315.140625 L 184.011719 316.429688 L 184.839844 318.050781 Z M 185.125 319.847656 "/>
<path style=" stroke:none;fill-rule:nonzero;fill:rgb(80.392157%,58.431373%,4.705882%);fill-opacity:1;" d="M 177.371094 296.585938 L 177.085938 298.382813 L 176.257813 300.003906 L 174.972656 301.289063 L 173.351563 302.117188 L 171.554688 302.398438 L 169.757813 302.117188 L 168.417969 301.433594 L 169.164063 299.058594 L 172.992188 290.996094 L 173.351563 291.054688 L 174.972656 291.878906 L 176.257813 293.167969 L 177.085938 294.789063 Z M 177.371094 296.585938 "/>
<path style=" stroke:none;fill-rule:nonzero;fill:rgb(80.392157%,58.431373%,4.705882%);fill-opacity:1;" d="M 134.722656 474.921875 L 134.4375 476.71875 L 133.613281 478.339844 L 132.324219 479.628906 L 130.703125 480.453125 L 128.90625 480.738281 L 127.109375 480.453125 L 125.488281 479.628906 L 124.761719 478.898438 L 125.210938 477.886719 L 124.875 476.421875 L 125.640625 474.519531 L 128.386719 473.238281 L 132.105469 472.640625 L 132.679688 471.785156 L 132.925781 470.820313 L 133.613281 471.503906 L 134.4375 473.125 Z M 134.722656 474.921875 "/>
<path style=" stroke:none;fill-rule:nonzero;fill:rgb(80.392157%,58.431373%,4.705882%);fill-opacity:1;" d="M 191.242188 219.71875 L 190.109375 218.585938 L 189.285156 216.964844 L 189 215.167969 L 189.285156 213.371094 L 190.109375 211.75 L 191.398438 210.464844 L 193.019531 209.636719 L 194.816406 209.355469 L 196.613281 209.636719 L 197.167969 209.921875 L 197.078125 210.023438 L 197.433594 210.839844 L 197.785156 210.703125 L 197.761719 211.238281 L 196.796875 214.386719 L 195.867188 215.914063 Z M 191.242188 219.71875 "/>
<path style=" stroke:none;fill-rule:nonzero;fill:rgb(80.392157%,58.431373%,4.705882%);fill-opacity:1;" d="M 139.410156 322.675781 L 138.882813 321.644531 L 138.640625 320.097656 L 139.816406 316.644531 L 142.300781 315.023438 L 142.671875 314.308594 L 144.414063 314.03125 L 146.210938 314.316406 L 147.832031 315.140625 L 148.847656 316.15625 L 147.847656 318.148438 L 145.3125 320.636719 L 141.859375 323.019531 L 139.824219 322.464844 Z M 139.410156 322.675781 "/>
<path style=" stroke:none;fill-rule:nonzero;fill:rgb(80.392157%,58.431373%,4.705882%);fill-opacity:1;" d="M 182.742188 243.121094 L 182.726563 243.136719 L 181.105469 243.960938 L 179.308594 244.246094 L 177.511719 243.960938 L 175.890625 243.136719 L 174.601563 241.847656 L 174.289063 241.230469 L 178.0625 241.875 Z M 173.683594 239.636719 L 173.492188 238.429688 L 173.777344 236.632813 L 174.601563 235.011719 L 175.890625 233.726563 L 177.511719 232.898438 L 179.308594 232.617188 L 181.105469 232.898438 L 182.726563 233.726563 L 183.0625 234.0625 L 181.046875 235.800781 L 180.578125 237.003906 L 174.761719 240.109375 Z M 173.683594 239.636719 "/>
<path style=" stroke:none;fill-rule:nonzero;fill:rgb(80.392157%,58.431373%,4.705882%);fill-opacity:1;" d="M 146.355469 354.738281 L 146.070313 356.535156 L 145.242188 358.15625 L 143.957031 359.441406 L 143.273438 359.789063 L 142.050781 357.363281 L 142.246094 352.273438 L 144.664063 351.183594 L 145.042969 351.121094 L 145.242188 351.320313 L 146.070313 352.941406 Z M 141.734375 358.875 L 141.003906 358.070313 L 139.230469 356.960938 L 138.828125 356.035156 L 139.253906 355.210938 L 140.597656 355.164063 L 141.484375 356.3125 L 142.226563 358.1875 Z M 141.734375 358.875 "/>
<path style=" stroke:none;fill-rule:nonzero;fill:rgb(80.392157%,58.431373%,4.705882%);fill-opacity:1;" d="M 116.816406 494.402344 L 117.734375 493.480469 L 119.355469 492.652344 L 121.152344 492.371094 L 122.949219 492.652344 L 123.46875 492.917969 L 123.132813 494.289063 L 123.664063 495.292969 L 123.496094 496.125 L 122.722656 496.945313 L 120.660156 497.648438 L 119.628906 499.730469 L 118.675781 498.910156 L 117.96875 497.691406 L 118.09375 496.4375 L 117.15625 494.691406 Z M 116.816406 494.402344 "/>
<path style=" stroke:none;fill-rule:nonzero;fill:rgb(80.392157%,58.431373%,4.705882%);fill-opacity:1;" d="M 164.992188 357.441406 L 164.628906 358.15625 L 163.339844 359.441406 L 161.71875 360.269531 L 159.921875 360.554688 L 158.125 360.269531 L 156.503906 359.441406 L 156.296875 359.234375 L 160.492188 357.457031 L 163.644531 357.28125 Z M 154.902344 357.535156 L 154.390625 356.535156 L 154.347656 356.257813 L 155.546875 356.503906 Z M 154.902344 357.535156 "/>
</g>
</svg>
