<?xml version="1.0" encoding="UTF-8"?>
<svg xmlns="http://www.w3.org/2000/svg" xmlns:xlink="http://www.w3.org/1999/xlink" width="378pt" height="504pt" viewBox="0 0 378 504" version="1.1">
<g id="data">
<rect x="0" y="0" width="378" height="504" style="fill:rgb(100%,100%,100%);fill-opacity:1;stroke:none;"/>
<path style=" stroke:none;fill-rule:nonzero;fill:rgb(100%,100%,100%);fill-opacity:1;" d="M 53.308594 504 L 324.691406 504 L 324.691406 0 L 53.308594 0 Z M 53.308594 504 "/>
<path style=" stroke:none;fill-rule:nonzero;fill:rgb(22.745098%,53.333333%,16.078431%);fill-opacity:1;" d="M 283.488281 401.21875 L 282.503906 399.644531 L 282.0625 397.839844 L 282.214844 395.992188 L 282.941406 394.28125 L 284.171875 392.890625 L 285.777344 391.957031 L 287.59375 391.574219 L 289.441406 391.789063 L 291.125 392.570313 L 293.089844 393.902344 L 294.683594 394.421875 L 296.25 394.472656 L 297.789063 394.09375 L 299.148438 393.316406 L 300.320313 392.113281 L 301.054688 390.730469 L 301.5625 388.394531 L 302.199219 386.738281 L 303.308594 385.351563 L 304.78125 384.363281 L 306.484375 383.867188 L 306.632813 383.867188 L 306.730469 384.164063 L 307.179688 391.25 L 306.777344 393.191406 L 306.890625 393.976563 L 305.789063 396.917969 L 304.136719 404.867188 L 301.65625 406.902344 L 300.148438 408.78125 L 298.585938 410.136719 L 296.648438 410.859375 L 294.226563 411.300781 L 292.742188 410.515625 L 292.480469 410.636719 L 292.898438 411.539063 L 292.578125 411.597656 L 290.671875 411.625 L 288.859375 411.035156 L 287.335938 409.890625 L 286.265625 408.3125 L 285.757813 406.476563 L 285.574219 404.683594 L 285.207031 403.542969 L 284.605469 402.492188 Z M 293.863281 379.535156 L 292.070313 379.929688 L 290.242188 379.742188 L 288.566406 378.996094 L 287.207031 377.765625 L 286.296875 376.171875 L 285.929688 374.375 L 286.140625 372.550781 L 286.910156 370.882813 L 287.011719 370.773438 L 293.949219 371.515625 L 296.914063 372.84375 L 299.21875 374.53125 L 298.964844 375.242188 L 298.398438 376.285156 L 297.140625 377.871094 L 295.410156 378.929688 Z M 201.859375 413.195313 L 203.210938 411.9375 L 204.886719 411.167969 L 206.71875 410.960938 L 212.871094 411.25 L 214.347656 411.058594 L 216.039063 410.335938 L 218.128906 408.511719 L 219.6875 407.539063 L 221.46875 407.097656 L 223.296875 407.234375 L 224.992188 407.933594 L 226.386719 409.128906 L 227.339844 410.699219 L 227.753906 412.484375 L 227.910156 414.695313 L 228.335938 415.988281 L 229.128906 417.234375 L 230.15625 418.195313 L 232.398438 419.367188 L 233.050781 419.765625 L 234.800781 420.992188 L 235.847656 421.410156 L 237.652344 421.632813 L 239.398438 421.320313 L 240.652344 420.710938 L 241.761719 419.765625 L 242.601563 418.570313 L 243.140625 417.121094 L 243.402344 415.179688 L 243.289063 413.238281 L 243.667969 410.796875 L 244.566406 408.472656 L 244.695313 406.894531 L 244.253906 404.988281 L 242.730469 402.558594 L 242.007813 400.839844 L 241.867188 398.976563 L 242.320313 397.167969 L 243.328125 395.59375 L 244.78125 394.421875 L 246.53125 393.769531 L 248.394531 393.703125 L 250.1875 394.234375 L 252.03125 395.125 L 254.160156 395.570313 L 256.035156 396.320313 L 257.539063 397.667969 L 258.816406 399.289063 L 260.441406 400.566406 L 261.816406 402.117188 L 262.558594 404.050781 L 262.578125 406.121094 L 262.082031 409.015625 L 262.578125 411.910156 L 262.578125 413.867188 L 261.929688 415.714844 L 260.707031 417.242188 L 259.046875 418.277344 L 257.105469 419.070313 L 255.914063 419.949219 L 254.992188 421.089844 L 254.402344 422.390625 L 254.128906 424.105469 L 254.210938 425.140625 L 254.683594 426.804688 L 254.863281 429.128906 L 254.449219 432.40625 L 254.570313 433.238281 L 254.898438 434.1875 L 255.683594 435.46875 L 256.609375 436.390625 L 257.832031 437.132813 L 259.078125 437.53125 L 260.476563 437.628906 L 261.949219 437.363281 L 263.207031 436.789063 L 264.863281 435.476563 L 266.5625 434.539063 L 268.476563 434.214844 L 272.355469 434.214844 L 274.097656 434.492188 L 272.609375 436.117188 L 274.253906 436.015625 L 274.980469 434.921875 L 275.761719 435.320313 L 277.234375 436.382813 L 278.25 436.84375 L 278.601563 436.925781 L 277.390625 437.65625 L 277.96875 438.546875 L 281.382813 438.964844 L 286.007813 440.125 L 286.578125 441.339844 L 286.804688 443.152344 L 286.457031 444.945313 L 285.570313 446.542969 L 283.6875 448.949219 L 283.078125 450.851563 L 283.183594 452.957031 L 284.390625 455.746094 L 284.835938 457.425781 L 284.808594 458.042969 L 284.1875 457.9375 L 281.042969 460.90625 L 278.484375 461.933594 L 275.507813 462.613281 L 275.214844 462.425781 L 273.691406 461.082031 L 272.582031 460.488281 L 271.371094 460.144531 L 270.019531 460.082031 L 268.707031 460.328125 L 267.46875 460.875 L 266.476563 461.617188 L 265.164063 463.167969 L 263.78125 464.363281 L 262.699219 464.816406 L 259.269531 463.777344 L 256.617188 463.554688 L 255.140625 462.289063 L 253.5625 461.554688 L 249.566406 460.648438 L 247.585938 460.722656 L 245.746094 461.433594 L 244.042969 462.925781 L 243.550781 463.683594 L 242.878906 465.402344 L 241.707031 467.269531 L 241.050781 467.96875 L 238.210938 466.1875 L 238.632813 465.4375 L 239.46875 464.933594 L 237.714844 463.296875 L 231.496094 463.171875 L 231.378906 463.496094 L 232.574219 464.835938 L 232.214844 465.75 L 231.738281 466.042969 L 226.691406 465.496094 L 219.566406 468.449219 L 217.054688 467.824219 L 210.222656 468.96875 L 208.164063 468.875 L 207.273438 468.058594 L 206.238281 469.769531 L 209.429688 471.089844 L 209.714844 470.9375 L 210.1875 472.128906 L 209.566406 473.890625 L 206.84375 474.453125 L 204.453125 473.097656 L 203.015625 472.699219 L 197.625 472.007813 L 196.175781 472.65625 L 195.679688 473.863281 L 195.832031 474.871094 L 196.757813 475.523438 L 196.488281 476.304688 L 195.917969 475.996094 L 194.851563 473.972656 L 190.289063 470.589844 L 188.726563 469.851563 L 188.613281 469.546875 L 187.875 468.460938 L 186.609375 467.304688 L 185.371094 466.601563 L 184.035156 466.226563 L 181.949219 466.15625 L 180.1875 465.820313 L 178.609375 464.960938 L 177.371094 463.664063 L 176.585938 462.050781 L 176.332031 460.273438 L 176.628906 458.503906 L 177.195313 456.808594 L 177.402344 454.90625 L 177.875 453.167969 L 178.851563 451.65625 L 180.246094 450.519531 L 181.921875 449.863281 L 184.335938 449.324219 L 186.5 448.128906 L 188.089844 447.535156 L 189.785156 447.421875 L 191.4375 447.804688 L 192.90625 448.648438 L 194.074219 449.882813 L 195.699219 452.199219 L 196.425781 453.613281 L 196.742188 455.167969 L 196.878906 457.292969 L 197.214844 458.367188 L 198.621094 460.421875 L 199.449219 461.089844 L 200.597656 461.648438 L 201.839844 461.945313 L 203.15625 461.960938 L 208.59375 460.890625 L 209.523438 460.433594 L 210.558594 459.605469 L 211.265625 458.738281 L 211.8125 457.707031 L 212.117188 456.699219 L 212.289063 454.960938 L 212.628906 453.5 L 213.539063 451.070313 L 213.582031 448.910156 L 212.804688 446.742188 L 212.269531 446.011719 L 210.449219 444.476563 L 209.671875 443.683594 L 208.507813 442.238281 L 207.304688 441.324219 L 205.511719 440.660156 L 203.480469 440.589844 L 202.628906 440.777344 L 201.027344 441.480469 L 199.894531 441.84375 L 197.71875 442.300781 L 195.320313 443.59375 L 193.738281 444.167969 L 192.054688 444.265625 L 190.417969 443.875 L 188.960938 443.035156 L 187.804688 441.8125 L 186.175781 439.492188 L 185.421875 437.992188 L 185.339844 437.527344 L 190.867188 432.195313 L 195.792969 425.3125 L 197.929688 424.472656 L 198.285156 423.78125 L 198.070313 423.238281 L 197.8125 423.082031 L 196.09375 424.355469 L 192.90625 427.300781 L 190.570313 429.988281 L 189.222656 431.449219 L 186.230469 432.707031 L 187.609375 430.441406 L 187.988281 428.398438 L 187.609375 426.359375 L 185.972656 423.671875 L 185.277344 421.972656 L 185.144531 420.140625 L 185.589844 418.359375 L 186.570313 416.808594 L 187.984375 415.636719 L 189.695313 414.964844 L 191.527344 414.859375 L 193.300781 415.332031 L 194.796875 415.996094 L 195.855469 416.246094 L 196.925781 416.292969 L 198.09375 416.113281 L 199.101563 415.753906 L 200.039063 415.199219 L 200.855469 414.484375 Z M 282.21875 437.34375 L 282.945313 437.480469 L 284.550781 438.359375 L 285.5625 439.433594 L 283.058594 438.976563 L 282.164063 437.605469 Z M 233.226563 339.148438 L 234.894531 338.644531 L 236.636719 338.65625 L 238.300781 339.183594 L 239.730469 340.179688 L 240.800781 341.554688 L 241.414063 343.1875 L 241.519531 344.925781 L 241.101563 346.617188 L 240.203125 348.113281 L 238.0625 350.695313 L 236.738281 351.871094 L 235.128906 352.589844 L 233.371094 352.796875 L 231.636719 352.464844 L 230.082031 351.625 L 228.847656 350.359375 L 228.054688 348.78125 L 227.769531 347.039063 L 227.753906 345.480469 L 227.972656 343.851563 L 228.640625 342.34375 L 229.699219 341.085938 L 231.070313 340.175781 Z M 186.351563 295.921875 L 184.59375 296.570313 L 182.71875 296.628906 L 180.925781 296.085938 L 179.398438 295.003906 L 178.292969 293.488281 L 177.726563 291.703125 L 177.429688 289.671875 L 177.484375 287.6875 L 178.09375 286.105469 L 178.757813 285.980469 L 180.191406 286.804688 L 181.015625 286.710938 L 182.933594 286.238281 L 183.03125 285.160156 L 182.34375 284.746094 L 180.035156 285.351563 L 178.695313 285.261719 L 179.5 284.332031 L 181.226563 283.355469 L 183.183594 283.015625 L 187.0625 283.015625 L 188.9375 283.324219 L 190.609375 284.222656 L 191.90625 285.613281 L 192.683594 287.347656 L 192.863281 289.238281 L 192.421875 291.085938 L 191.410156 292.695313 L 189.929688 293.890625 Z M 154.105469 480.859375 L 153.199219 479.425781 L 152.742188 477.792969 L 152.777344 476.097656 L 153.300781 474.484375 L 154.269531 472.523438 L 154.582031 471.039063 L 154.554688 469.792969 L 153.847656 466.179688 L 153.796875 464.238281 L 154.390625 462.382813 L 155.5625 460.832031 L 157.179688 459.753906 L 159.0625 459.265625 L 161 459.429688 L 162.777344 460.21875 L 164.75 461.535156 L 166.367188 462.046875 L 167.976563 462.09375 L 171.445313 461.417969 L 173.386719 461.371094 L 175.238281 461.964844 L 176.789063 463.136719 L 177.867188 464.75 L 178.355469 466.632813 L 178.191406 468.570313 L 177.941406 469.554688 L 176.207031 469.78125 L 174.339844 470.335938 L 168.992188 473.234375 L 168.214844 474.070313 L 167.203125 476.179688 L 162.832031 488.976563 L 162.40625 489 L 160.613281 488.511719 L 159.066406 487.484375 L 157.925781 486.019531 L 156.816406 484.007813 Z M 146.980469 429.800781 L 147.214844 429.230469 L 147.371094 429.050781 L 148.539063 428.378906 L 150.066406 428.890625 L 151.640625 428.421875 L 152.765625 427.832031 L 153.085938 427.097656 L 152.808594 426.597656 L 151.425781 426.558594 L 151.8125 426.472656 L 153.65625 426.65625 L 155.347656 427.40625 L 156.714844 428.652344 L 157.3125 429.398438 L 155.65625 429.589844 L 149.269531 432.308594 L 149.113281 432.746094 L 147.203125 431.632813 Z M 136.617188 466.761719 L 137.121094 467.171875 L 138.117188 468.726563 L 138.910156 470.550781 L 139.769531 471.691406 L 140.785156 472.523438 L 142.585938 473.410156 L 144.085938 474.472656 L 145.179688 475.949219 L 145.757813 477.695313 L 145.761719 479.535156 L 145.191406 481.28125 L 144.105469 482.765625 L 143.953125 482.875 L 142.796875 482.960938 L 141.527344 483.375 L 140.734375 484.175781 L 140.238281 484.375 L 139.015625 484.355469 L 136.953125 483.996094 L 135.480469 484.109375 L 134.828125 484.332031 L 134.507813 484.320313 L 132.167969 484.859375 L 129.414063 488.195313 L 126.714844 489.746094 L 124.039063 490.597656 L 123.132813 494.289063 L 123.664063 495.292969 L 123.496094 496.125 L 122.722656 496.945313 L 120.660156 497.648438 L 119.628906 499.730469 L 118.675781 498.910156 L 117.96875 497.691406 L 118.09375 496.4375 L 117.15625 494.691406 L 115.984375 493.691406 L 112.253906 492.070313 L 111.410156 491.984375 L 110.375 492.488281 L 110.242188 494.183594 L 109.421875 495.128906 L 107.15625 495.59375 L 105.984375 494.765625 L 105.453125 494.054688 L 105.628906 491.574219 L 106.074219 490.5625 L 111.738281 488.078125 L 112.199219 488.253906 L 112.445313 488.9375 L 113.574219 489.15625 L 118.144531 485.910156 L 121.425781 483.085938 L 124.375 479.769531 L 125.210938 477.886719 L 124.875 476.421875 L 125.640625 474.519531 L 128.386719 473.238281 L 132.105469 472.640625 L 132.679688 471.785156 L 133.257813 469.527344 L 135.859375 467.5625 Z M 236.835938 466.113281 L 235.136719 465.644531 L 236.523438 463.683594 L 237.195313 464.164063 L 237.5 465.839844 Z M 228.117188 474.644531 L 222.296875 470.886719 L 220.207031 471.1875 L 221.476563 469.683594 L 227.316406 466.367188 L 232.550781 467.761719 L 234.171875 469.894531 L 231.242188 473.621094 L 229.960938 474.269531 Z M 228.117188 474.644531 "/>
<path style=" stroke:none;fill-rule:nonzero;fill:rgb(80.392157%,58.431373%,4.705882%);fill-opacity:1;" d="M 231.644531 315.96875 L 231.363281 317.765625 L 230.535156 319.386719 L 229.25 320.675781 L 227.628906 321.5 L 225.832031 321.785156 L 224.035156 321.5 L 222.414063 320.675781 L 221.125 319.386719 L 220.300781 317.765625 L 220.015625 315.96875 L 220.300781 314.171875 L 221.125 312.550781 L 222.414063 311.265625 L 224.035156 310.4375 L 225.832031 310.152344 L 227.628906 310.4375 L 229.25 311.265625 L 230.535156 312.550781 L 231.363281 314.171875 Z M 231.644531 315.96875 "/>
<path style=" stroke:none;fill-rule:nonzero;fill:rgb(80.392157%,58.431373%,4.705882%);fill-opacity:1;" d="M 223.890625 335.355469 L 223.609375 337.152344 L 222.78125 338.773438 L 221.496094 340.058594 L 219.875 340.882813 L 218.078125 341.167969 L 216.28125 340.882813 L 214.660156 340.058594 L 213.371094 338.773438 L 212.546875 337.152344 L 212.261719 335.355469 L 212.546875 333.558594 L 213.371094 331.9375 L 214.660156 330.648438 L 216.28125 329.824219 L 218.078125 329.539063 L 219.875 329.824219 L 221.496094 330.648438 L 222.78125 331.9375 L 223.609375 333.558594 Z M 223.890625 335.355469 "/>
<path style=" stroke:none;fill-rule:nonzero;fill:rgb(80.392157%,58.431373%,4.705882%);fill-opacity:1;" d="M 227.769531 370.246094 L 227.484375 372.042969 L 226.660156 373.664063 L 225.371094 374.949219 L 223.75 375.777344 L 221.953125 376.0625 L 220.15625 375.777344 L 218.535156 374.949219 L 217.25 373.664063 L 216.421875 372.042969 L 216.136719 370.246094 L 216.421875 368.449219 L 217.25 366.828125 L 218.535156 365.542969 L 220.15625 364.714844 L 221.953125 364.429688 L 223.75 364.714844 L 225.371094 365.542969 L 226.660156 366.828125 L 227.484375 368.449219 Z M 227.769531 370.246094 "/>
<path style=" stroke:none;fill-rule:nonzero;fill:rgb(80.392157%,58.431373%,4.705882%);fill-opacity:1;" d="M 189 366.371094 L 188.714844 368.167969 L 187.890625 369.789063 L 186.601563 371.074219 L 184.980469 371.898438 L 183.183594 372.183594 L 181.386719 371.898438 L 179.765625 371.074219 L 178.480469 369.789063 L 177.652344 368.167969 L 177.371094 366.371094 L 177.652344 364.570313 L 178.480469 362.949219 L 179.765625 361.664063 L 181.386719 360.839844 L 183.183594 360.554688 L 184.980469 360.839844 L 186.601563 361.664063 L 187.890625 362.949219 L 188.714844 364.570313 Z M 189 366.371094 "/>
<path style=" stroke:none;fill-rule:nonzero;fill:rgb(80.392157%,58.431373%,4.705882%);fill-opacity:1;" d="M 231.644531 374.125 L 231.363281 375.921875 L 230.535156 377.542969 L 229.25 378.828125 L 227.628906 379.652344 L 225.832031 379.9375 L 224.035156 379.652344 L 222.414063 378.828125 L 221.125 377.542969 L 220.300781 375.921875 L 220.015625 374.125 L 220.300781 372.324219 L 221.125 370.703125 L 222.414063 369.417969 L 224.035156 368.59375 L 225.832031 368.308594 L 227.628906 368.59375 L 229.25 369.417969 L 230.535156 370.703125 L 231.363281 372.324219 Z M 231.644531 374.125 "/>
<path style=" stroke:none;fill-rule:nonzero;fill:rgb(80.392157%,58.431373%,4.705882%);fill-opacity:1;" d="M 220.015625 358.617188 L 219.730469 360.414063 L 218.90625 362.035156 L 217.617188 363.320313 L 215.996094 364.144531 L 214.199219 364.429688 L 212.402344 364.144531 L 210.78125 363.320313 L 209.496094 362.035156 L 208.667969 360.414063 L 208.382813 358.617188 L 208.667969 356.816406 L 209.496094 355.195313 L 210.78125 353.910156 L 212.402344 353.085938 L 214.199219 352.800781 L 215.996094 353.085938 L 217.617188 353.910156 L 218.90625 355.195313 L 219.730469 356.816406 Z M 220.015625 358.617188 "/>
<path style=" stroke:none;fill-rule:nonzero;fill:rgb(80.392157%,58.431373%,4.705882%);fill-opacity:1;" d="M 177.371094 405.136719 L 177.085938 406.933594 L 176.257813 408.558594 L 174.972656 409.84375 L 173.351563 410.667969 L 171.554688 410.953125 L 169.757813 410.667969 L 168.136719 409.84375 L 166.847656 408.558594 L 166.023438 406.933594 L 165.738281 405.136719 L 166.023438 403.339844 L 166.847656 401.71875 L 168.136719 400.433594 L 169.757813 399.609375 L 171.554688 399.324219 L 173.351563 399.609375 L 174.972656 400.433594 L 176.257813 401.71875 L 177.085938 403.339844 Z M 177.371094 405.136719 "/>
<path style=" stroke:none;fill-rule:nonzero;fill:rgb(80.392157%,58.431373%,4.705882%);fill-opacity:1;" d="M 142.476563 176.398438 L 142.191406 178.195313 L 141.367188 179.816406 L 140.078125 181.105469 L 138.457031 181.929688 L 136.660156 182.214844 L 134.863281 181.929688 L 133.242188 181.105469 L 131.957031 179.816406 L 131.128906 178.195313 L 130.847656 176.398438 L 131.128906 174.601563 L 131.957031 172.980469 L 133.242188 171.695313 L 134.863281 170.871094 L 136.660156 170.585938 L 138.457031 170.871094 L 140.078125 171.695313 L 141.367188 172.980469 L 142.191406 174.601563 Z M 142.476563 176.398438 "/>
<path style=" stroke:none;fill-rule:nonzero;fill:rgb(80.392157%,58.431373%,4.705882%);fill-opacity:1;" d="M 289.800781 416.769531 L 289.515625 418.566406 L 288.722656 420.121094 L 288.214844 419.332031 L 284.976563 421.730469 L 283.617188 422.527344 L 282.1875 422.300781 L 280.566406 421.472656 L 279.28125 420.1875 L 278.453125 418.566406 L 278.167969 416.769531 L 278.453125 414.972656 L 279.28125 413.351563 L 280.566406 412.066406 L 282.1875 411.238281 L 283.984375 410.953125 L 285.78125 411.238281 L 287.402344 412.066406 L 288.6875 413.351563 L 289.515625 414.972656 Z M 289.800781 416.769531 "/>
<path style=" stroke:none;fill-rule:nonzero;fill:rgb(80.392157%,58.431373%,4.705882%);fill-opacity:1;" d="M 192.875 354.738281 L 192.59375 356.535156 L 191.765625 358.15625 L 190.480469 359.441406 L 188.859375 360.269531 L 187.0625 360.554688 L 185.265625 360.269531 L 183.644531 359.441406 L 182.355469 358.15625 L 181.53125 356.535156 L 181.246094 354.738281 L 181.53125 352.941406 L 181.566406 352.871094 L 181.914063 353.875 L 182.898438 354.332031 L 184.078125 356.789063 L 185.613281 357.902344 L 188.359375 357.621094 L 190.335938 355.148438 L 189.90625 355.050781 L 188.667969 355.527344 L 188.3125 355.957031 L 186.378906 356.386719 L 183.8125 354.640625 L 182.316406 351.402344 L 182.355469 351.320313 L 183.644531 350.035156 L 185.265625 349.207031 L 187.0625 348.921875 L 188.859375 349.207031 L 190.480469 350.035156 L 191.765625 351.320313 L 192.59375 352.941406 Z M 192.875 354.738281 "/>
<path style=" stroke:none;fill-rule:nonzero;fill:rgb(80.392157%,58.431373%,4.705882%);fill-opacity:1;" d="M 138.601563 412.890625 L 138.316406 414.6875 L 137.488281 416.308594 L 136.203125 417.597656 L 134.582031 418.421875 L 132.785156 418.707031 L 130.988281 418.421875 L 129.367188 417.597656 L 128.078125 416.308594 L 127.253906 414.6875 L 126.96875 412.890625 L 127.132813 411.851563 L 133.074219 411.34375 L 134.871094 409.289063 L 135.617188 407.886719 L 136.203125 408.1875 L 137.488281 409.472656 L 138.316406 411.09375 Z M 138.601563 412.890625 "/>
<path style=" stroke:none;fill-rule:nonzero;fill:rgb(80.392157%,58.431373%,4.705882%);fill-opacity:1;" d="M 173.492188 436.152344 L 173.207031 437.949219 L 172.382813 439.570313 L 172.074219 439.878906 L 170.558594 439.851563 L 166.820313 439 L 166.347656 438.652344 L 162.199219 434.253906 L 162.972656 432.734375 L 164.257813 431.449219 L 165.878906 430.625 L 167.675781 430.339844 L 169.472656 430.625 L 171.09375 431.449219 L 172.382813 432.734375 L 173.207031 434.355469 Z M 173.492188 436.152344 "/>
<path style=" stroke:none;fill-rule:nonzero;fill:rgb(80.392157%,58.431373%,4.705882%);fill-opacity:1;" d="M 179.679688 242.304688 L 178.847656 243.136719 L 177.226563 243.960938 L 175.429688 244.246094 L 173.632813 243.960938 L 172.011719 243.136719 L 170.726563 241.847656 L 170.039063 240.5 L 178.0625 241.875 Z M 169.667969 238.101563 L 169.898438 236.632813 L 170.726563 235.011719 L 172.011719 233.726563 L 173.632813 232.898438 L 175.429688 232.617188 L 177.226563 232.898438 L 178.847656 233.726563 L 180.136719 235.011719 L 180.824219 236.367188 L 180.578125 237.003906 L 174.761719 240.109375 L 170.214844 238.117188 Z M 169.667969 238.101563 "/>
<path style=" stroke:none;fill-rule:nonzero;fill:rgb(80.392157%,58.431373%,4.705882%);fill-opacity:1;" d="M 192.875 230.675781 L 192.847656 230.855469 L 192.117188 231.570313 L 189.460938 232.730469 L 188.34375 232.882813 L 187.070313 232.078125 L 185.40625 232.042969 L 182.667969 234.40625 L 182.355469 234.09375 L 181.53125 232.472656 L 181.246094 230.675781 L 181.53125 228.878906 L 182.355469 227.257813 L 183.644531 225.972656 L 185.265625 225.144531 L 187.0625 224.863281 L 188.859375 225.144531 L 189.046875 225.242188 L 189.238281 225.953125 L 190.898438 226.824219 L 191.425781 226.917969 L 191.765625 227.257813 L 192.59375 228.878906 Z M 192.875 230.675781 "/>
<path style=" stroke:none;fill-rule:nonzero;fill:rgb(80.392157%,58.431373%,4.705882%);fill-opacity:1;" d="M 189 335.355469 L 188.714844 337.152344 L 187.890625 338.773438 L 186.601563 340.058594 L 184.980469 340.882813 L 183.183594 341.167969 L 182.886719 341.121094 L 183.371094 340.257813 L 185.429688 339.015625 L 185.140625 338.578125 L 182.683594 338.460938 L 181.554688 337.164063 L 181.355469 336.117188 L 181.601563 331.078125 L 181.949219 330.421875 L 183.730469 329.625 L 184.980469 329.824219 L 186.601563 330.648438 L 187.890625 331.9375 L 188.714844 333.558594 Z M 189 335.355469 "/>
<path style=" stroke:none;fill-rule:nonzero;fill:rgb(80.392157%,58.431373%,4.705882%);fill-opacity:1;" d="M 190.046875 232.472656 L 189.140625 232.332031 L 187.519531 231.503906 L 186.234375 230.21875 L 185.40625 228.597656 L 185.125 226.800781 L 185.40625 225.003906 L 186.234375 223.382813 L 187.519531 222.09375 L 188.382813 221.65625 L 189.085938 221.875 L 189.332031 222.921875 L 188.898438 224.691406 L 189.238281 225.953125 L 190.898438 226.824219 L 192.988281 227.191406 L 194.445313 228.726563 L 194.429688 229.304688 L 192.117188 231.570313 Z M 190.046875 232.472656 "/>
<path style=" stroke:none;fill-rule:nonzero;fill:rgb(80.392157%,58.431373%,4.705882%);fill-opacity:1;" d="M 154.109375 447.785156 L 153.824219 449.582031 L 152.996094 451.203125 L 151.710938 452.488281 L 150.089844 453.316406 L 148.292969 453.601563 L 147.53125 453.480469 L 148.429688 452.488281 L 148.105469 447.519531 L 151.105469 446.613281 L 153.898438 446.460938 Z M 154.109375 447.785156 "/>
</g>
</svg>
