<?xml version="1.0" encoding="UTF-8"?>
<svg xmlns="http://www.w3.org/2000/svg" xmlns:xlink="http://www.w3.org/1999/xlink" width="378pt" height="504pt" viewBox="0 0 378 504" version="1.1">
<g id="data">
<rect x="0" y="0" width="378" height="504" style="fill:rgb(100%,100%,100%);fill-opacity:1;stroke:none;"/>
<path style=" stroke:none;fill-rule:nonzero;fill:rgb(100%,100%,100%);fill-opacity:1;" d="M 53.308594 504 L 324.691406 504 L 324.691406 0 L 53.308594 0 Z M 53.308594 504 "/>
<path style=" stroke:none;fill-rule:nonzero;fill:rgb(22.745098%,53.333333%,16.078431%);fill-opacity:1;" d="M 243.042969 422.980469 L 242.960938 421.269531 L 243.382813 419.613281 L 244.265625 418.148438 L 245.539063 417.003906 L 247.085938 416.277344 L 248.78125 416.035156 L 250.472656 416.296875 L 252.011719 417.039063 L 253.4375 418.003906 L 254.402344 418.417969 L 255.445313 418.652344 L 257.054688 418.710938 L 258.898438 419.082031 L 260.53125 420.023438 L 261.773438 421.433594 L 262.503906 423.171875 L 262.636719 425.046875 L 262.167969 426.871094 L 261.136719 428.445313 L 259.660156 429.613281 L 257.886719 430.246094 L 256.191406 430.554688 L 255.222656 430.929688 L 254.234375 431.550781 L 253.066406 432.644531 L 251.628906 433.632813 L 249.957031 434.152344 L 248.207031 434.148438 L 246.539063 433.625 L 245.101563 432.632813 L 244.027344 431.253906 L 243.40625 429.621094 L 243.300781 427.875 L 243.523438 425.410156 Z M 225.035156 472.65625 L 224.59375 471.089844 L 224.660156 469.277344 L 225.285156 467.570313 L 225.359375 467.476563 L 227.316406 466.367188 L 232.550781 467.761719 L 234.171875 469.894531 L 231.242188 473.621094 L 229.960938 474.269531 L 228.117188 474.644531 Z M 227.269531 465.558594 L 227.910156 465.128906 L 229.429688 464.421875 L 230.785156 463.433594 L 232.332031 462.632813 L 234.050781 462.324219 L 235.78125 462.539063 L 237.371094 463.261719 L 237.40625 463.289063 L 231.496094 463.171875 L 231.378906 463.496094 L 232.574219 464.835938 L 232.214844 465.75 L 231.738281 466.042969 Z M 239.117188 465.148438 L 239.578125 465.914063 L 239.90625 467.25 L 238.210938 466.1875 L 238.632813 465.4375 Z M 190.640625 470.847656 L 191.726563 469.539063 L 192.691406 467.453125 L 193.800781 465.839844 L 195.382813 464.6875 L 197.257813 464.125 L 199.210938 464.214844 L 201.621094 464.742188 L 203.25 464.628906 L 204.769531 464.070313 L 206.828125 462.519531 L 208.582031 461.621094 L 210.539063 461.359375 L 212.46875 461.765625 L 214.152344 462.792969 L 216.199219 464.582031 L 218.824219 465.683594 L 220.460938 466.722656 L 221.273438 467.742188 L 219.566406 468.449219 L 217.054688 467.824219 L 210.222656 468.96875 L 208.164063 468.875 L 207.273438 468.058594 L 206.238281 469.769531 L 209.429688 471.089844 L 209.714844 470.9375 L 210.1875 472.128906 L 209.566406 473.890625 L 206.84375 474.453125 L 204.453125 473.097656 L 203.015625 472.699219 L 197.625 472.007813 L 196.175781 472.65625 L 195.679688 473.863281 L 195.832031 474.871094 L 196.757813 475.523438 L 196.488281 476.304688 L 195.917969 475.996094 L 194.851563 473.972656 Z M 222.054688 469.351563 L 222.308594 470.074219 L 222.308594 470.894531 L 222.296875 470.886719 L 220.207031 471.1875 L 221.476563 469.683594 Z M 130.796875 472.851563 L 130.878906 472.953125 L 132.503906 474.230469 L 133.71875 475.535156 L 134.484375 477.148438 L 134.722656 478.917969 L 134.410156 480.679688 L 133.582031 482.257813 L 132.3125 483.515625 L 130.71875 484.324219 L 128.957031 484.613281 L 124.6875 484.652344 L 122.367188 485.15625 L 120.621094 485.265625 L 119.277344 484.9375 L 121.425781 483.085938 L 124.375 479.769531 L 125.210938 477.886719 L 124.875 476.421875 L 125.640625 474.519531 L 128.386719 473.238281 Z M 107.054688 495.617188 L 105.957031 495.023438 L 105.425781 494.449219 L 105.628906 491.574219 L 106.074219 490.5625 L 111.738281 488.078125 L 112.199219 488.253906 L 112.445313 488.9375 L 113.574219 489.15625 L 117.867188 486.105469 L 118.34375 486.664063 L 119.03125 488.230469 L 119.230469 489.925781 L 119.214844 490.597656 L 118.886719 492.355469 L 118.042969 493.929688 L 117.191406 494.757813 L 117.15625 494.691406 L 115.984375 493.691406 L 112.253906 492.070313 L 111.410156 491.984375 L 110.375 492.488281 L 110.242188 494.183594 L 109.421875 495.128906 Z M 236.835938 466.113281 L 235.136719 465.644531 L 236.523438 463.683594 L 237.195313 464.164063 L 237.5 465.839844 Z M 236.835938 466.113281 "/>
<path style=" stroke:none;fill-rule:nonzero;fill:rgb(80.392157%,58.431373%,4.705882%);fill-opacity:1;" d="M 220.015625 366.371094 L 219.730469 368.167969 L 218.90625 369.789063 L 217.617188 371.074219 L 215.996094 371.898438 L 214.199219 372.183594 L 212.402344 371.898438 L 210.78125 371.074219 L 209.496094 369.789063 L 208.667969 368.167969 L 208.382813 366.371094 L 208.667969 364.570313 L 209.496094 362.949219 L 210.78125 361.664063 L 212.402344 360.839844 L 214.199219 360.554688 L 215.996094 360.839844 L 217.617188 361.664063 L 218.90625 362.949219 L 219.730469 364.570313 Z M 220.015625 366.371094 "/>
<path style=" stroke:none;fill-rule:nonzero;fill:rgb(80.392157%,58.431373%,4.705882%);fill-opacity:1;" d="M 192.875 381.875 L 192.59375 383.675781 L 191.765625 385.296875 L 190.480469 386.582031 L 188.859375 387.40625 L 187.0625 387.691406 L 185.265625 387.40625 L 183.644531 386.582031 L 182.355469 385.296875 L 181.53125 383.675781 L 181.246094 381.875 L 181.53125 380.078125 L 182.355469 378.457031 L 183.644531 377.171875 L 185.265625 376.347656 L 187.0625 376.0625 L 188.859375 376.347656 L 190.480469 377.171875 L 191.765625 378.457031 L 192.59375 380.078125 Z M 192.875 381.875 "/>
<path style=" stroke:none;fill-rule:nonzero;fill:rgb(80.392157%,58.431373%,4.705882%);fill-opacity:1;" d="M 196.753906 455.539063 L 196.46875 457.335938 L 195.644531 458.957031 L 194.355469 460.242188 L 192.734375 461.070313 L 190.9375 461.355469 L 189.140625 461.070313 L 187.519531 460.242188 L 186.234375 458.957031 L 185.40625 457.335938 L 185.125 455.539063 L 185.40625 453.742188 L 186.234375 452.121094 L 187.519531 450.832031 L 189.140625 450.007813 L 190.9375 449.722656 L 192.734375 450.007813 L 194.355469 450.832031 L 195.644531 452.121094 L 196.46875 453.742188 Z M 196.753906 455.539063 "/>
<path style=" stroke:none;fill-rule:nonzero;fill:rgb(80.392157%,58.431373%,4.705882%);fill-opacity:1;" d="M 220.015625 440.03125 L 219.730469 441.828125 L 218.90625 443.449219 L 217.617188 444.734375 L 215.996094 445.5625 L 214.199219 445.847656 L 212.402344 445.5625 L 210.78125 444.734375 L 209.496094 443.449219 L 208.667969 441.828125 L 208.382813 440.03125 L 208.667969 438.234375 L 209.496094 436.613281 L 210.78125 435.324219 L 212.402344 434.5 L 214.199219 434.214844 L 215.996094 434.5 L 217.617188 435.324219 L 218.90625 436.613281 L 219.730469 438.234375 Z M 220.015625 440.03125 "/>
<path style=" stroke:none;fill-rule:nonzero;fill:rgb(80.392157%,58.431373%,4.705882%);fill-opacity:1;" d="M 212.261719 447.785156 L 211.976563 449.582031 L 211.152344 451.203125 L 209.863281 452.488281 L 208.242188 453.316406 L 206.445313 453.601563 L 204.648438 453.316406 L 203.027344 452.488281 L 201.742188 451.203125 L 200.914063 449.582031 L 200.628906 447.785156 L 200.914063 445.988281 L 201.742188 444.367188 L 203.027344 443.078125 L 204.648438 442.253906 L 206.445313 441.96875 L 208.242188 442.253906 L 209.863281 443.078125 L 211.152344 444.367188 L 211.976563 445.988281 Z M 212.261719 447.785156 "/>
<path style=" stroke:none;fill-rule:nonzero;fill:rgb(80.392157%,58.431373%,4.705882%);fill-opacity:1;" d="M 293.675781 447.785156 L 293.390625 449.582031 L 292.566406 451.203125 L 291.28125 452.488281 L 289.660156 453.316406 L 287.863281 453.601563 L 286.066406 453.316406 L 284.441406 452.488281 L 283.15625 451.203125 L 282.332031 449.582031 L 282.046875 447.785156 L 282.332031 445.988281 L 283.15625 444.367188 L 284.441406 443.078125 L 286.066406 442.253906 L 287.863281 441.96875 L 289.660156 442.253906 L 291.28125 443.078125 L 292.566406 444.367188 L 293.390625 445.988281 Z M 293.675781 447.785156 "/>
<path style=" stroke:none;fill-rule:nonzero;fill:rgb(80.392157%,58.431373%,4.705882%);fill-opacity:1;" d="M 165.738281 362.492188 L 165.453125 364.289063 L 164.628906 365.910156 L 163.339844 367.195313 L 161.71875 368.023438 L 159.921875 368.308594 L 158.125 368.023438 L 156.503906 367.195313 L 155.21875 365.910156 L 154.390625 364.289063 L 154.109375 362.492188 L 154.390625 360.695313 L 154.847656 359.800781 L 154.941406 359.808594 L 160.492188 357.457031 L 162.476563 357.347656 L 163.339844 357.789063 L 164.628906 359.074219 L 165.453125 360.695313 Z M 165.738281 362.492188 "/>
<path style=" stroke:none;fill-rule:nonzero;fill:rgb(80.392157%,58.431373%,4.705882%);fill-opacity:1;" d="M 185.125 242.308594 L 184.839844 244.105469 L 184.011719 245.726563 L 182.726563 247.011719 L 181.105469 247.839844 L 179.308594 248.125 L 177.511719 247.839844 L 175.890625 247.011719 L 174.601563 245.726563 L 173.777344 244.105469 L 173.492188 242.308594 L 173.679688 241.125 L 178.0625 241.875 L 182.921875 243.167969 L 185.117188 242.261719 Z M 174.125 239.832031 L 174.601563 238.890625 L 175.890625 237.601563 L 177.511719 236.777344 L 179.308594 236.492188 L 180.691406 236.710938 L 180.578125 237.003906 L 174.761719 240.109375 Z M 174.125 239.832031 "/>
<path style=" stroke:none;fill-rule:nonzero;fill:rgb(80.392157%,58.431373%,4.705882%);fill-opacity:1;" d="M 150.230469 482.675781 L 149.988281 484.21875 L 148.46875 482.535156 L 142.796875 482.960938 L 141.527344 483.375 L 140.734375 484.175781 L 139.910156 484.507813 L 138.882813 484.472656 L 138.601563 482.675781 L 138.882813 480.878906 L 139.710938 479.257813 L 140.996094 477.972656 L 142.617188 477.144531 L 144.414063 476.863281 L 146.210938 477.144531 L 147.832031 477.972656 L 149.121094 479.257813 L 149.945313 480.878906 Z M 150.230469 482.675781 "/>
<path style=" stroke:none;fill-rule:nonzero;fill:rgb(80.392157%,58.431373%,4.705882%);fill-opacity:1;" d="M 164.992188 357.441406 L 164.628906 358.15625 L 163.339844 359.441406 L 161.71875 360.269531 L 159.921875 360.554688 L 158.125 360.269531 L 156.503906 359.441406 L 156.296875 359.234375 L 160.492188 357.457031 L 163.644531 357.28125 Z M 154.902344 357.535156 L 154.390625 356.535156 L 154.347656 356.257813 L 155.546875 356.503906 Z M 154.902344 357.535156 "/>
</g>
</svg>
