<?xml version="1.0" encoding="UTF-8"?>
<svg xmlns="http://www.w3.org/2000/svg" xmlns:xlink="http://www.w3.org/1999/xlink" width="378pt" height="504pt" viewBox="0 0 378 504" version="1.1">
<g id="data">
<rect x="0" y="0" width="378" height="504" style="fill:rgb(100%,100%,100%);fill-opacity:1;stroke:none;"/>
<path style=" stroke:none;fill-rule:nonzero;fill:rgb(100%,100%,100%);fill-opacity:1;" d="M 53.308594 504 L 324.691406 504 L 324.691406 0 L 53.308594 0 Z M 53.308594 504 "/>
<path style=" stroke:none;fill-rule:nonzero;fill:rgb(22.745098%,53.333333%,16.078431%);fill-opacity:1;" d="M 287.863281 397.382813 L 290.507813 399.179688 L 293.542969 400.183594 L 296.738281 400.324219 L 299.96875 399.542969 L 302.746094 397.960938 L 305.0625 395.578125 L 306.566406 392.753906 L 307.117188 390.226563 L 307.179688 391.25 L 306.777344 393.191406 L 306.890625 393.976563 L 305.789063 396.917969 L 305.535156 398.140625 L 304.671875 398.523438 L 302.445313 400.246094 L 300.628906 402.5625 L 299.492188 405.136719 L 294.484375 405.195313 L 291.542969 405.875 L 291.320313 403.605469 L 290.609375 401.304688 L 289.4375 399.203125 Z M 291.738281 374.125 L 293.851563 372.472656 L 293.285156 373.515625 Z M 190.9375 416.769531 L 193.367188 418.441406 L 196.015625 419.417969 L 198.949219 419.726563 L 201.867188 419.289063 L 204.355469 418.257813 L 206.445313 416.769531 L 209.175781 416.210938 L 211.691406 415.019531 L 216.097656 411.449219 L 218.078125 409.015625 L 219.785156 411.1875 L 221.953125 412.890625 L 224.023438 415.410156 L 225.832031 416.769531 L 226.273438 419.136719 L 227.136719 421.246094 L 228.472656 423.246094 L 230.195313 424.9375 L 232.46875 426.375 L 235.011719 427.246094 L 237.6875 427.511719 L 240.351563 427.160156 L 243.3125 425.953125 L 245.746094 424.082031 L 247.605469 421.636719 L 248.789063 418.667969 L 249.242188 415.394531 L 249.09375 412.890625 L 250.320313 409.664063 L 250.546875 406.222656 L 249.550781 402.390625 L 247.238281 399.023438 L 249.65625 400.195313 L 252.277344 400.785156 L 254.960938 400.757813 L 257.570313 400.113281 L 258.855469 402.882813 L 260.722656 405.136719 L 258.722656 408.265625 L 257.796875 411.992188 L 257.847656 414.304688 L 258.355469 416.558594 L 259.359375 418.777344 L 260.722656 420.644531 L 258.929688 423.292969 L 257.921875 426.328125 L 257.769531 429.394531 L 258.46875 432.515625 L 259.488281 434.582031 L 260.808594 436.316406 L 262.53125 437.847656 L 264.523438 439.011719 L 267.839844 439.964844 L 272.355469 440.03125 L 274.300781 441.4375 L 276.375 442.378906 L 278.589844 442.894531 L 280.992188 442.957031 L 278.46875 446.183594 L 277.21875 450.082031 L 277.425781 454.300781 L 279.054688 458.058594 L 277.449219 456.582031 L 275.597656 455.429688 L 273.5625 454.648438 L 271.417969 454.257813 L 268.21875 454.421875 L 265.304688 455.398438 L 262.746094 457.101563 L 260.722656 459.414063 L 258.214844 457.289063 L 255.214844 455.945313 L 249.957031 454.898438 L 246.25 455.214844 L 242.726563 456.75 L 239.976563 459.25 L 237.988281 462.976563 L 237.921875 463.492188 L 237.714844 463.296875 L 231.496094 463.171875 L 231.378906 463.496094 L 232.574219 464.835938 L 232.214844 465.75 L 231.738281 466.042969 L 226.691406 465.496094 L 219.566406 468.449219 L 217.054688 467.824219 L 210.222656 468.96875 L 208.164063 468.875 L 207.273438 468.058594 L 206.238281 469.769531 L 209.429688 471.089844 L 209.714844 470.9375 L 210.1875 472.128906 L 209.566406 473.890625 L 206.84375 474.453125 L 204.453125 473.097656 L 203.015625 472.699219 L 197.625 472.007813 L 196.175781 472.65625 L 195.679688 473.863281 L 195.832031 474.871094 L 195.90625 474.921875 L 195.351563 474.921875 L 194.851563 473.972656 L 190.289063 470.589844 L 185.898438 468.519531 L 183.121094 467.984375 L 182.308594 468.582031 L 179.820313 468.097656 L 176.507813 468.425781 L 172.664063 470.167969 L 170.21875 472.570313 L 168.992188 473.234375 L 168.214844 474.070313 L 167.203125 476.179688 L 163.667969 486.53125 L 159.921875 485.890625 L 156.121094 486.542969 L 155.582031 486.128906 L 154.273438 484.925781 L 152.316406 483.753906 L 150.167969 482.988281 L 148.65625 482.742188 L 148.46875 482.535156 L 147.570313 482.601563 L 138.285156 482.519531 L 134.785156 482.988281 L 130.992188 484.707031 L 126.917969 488.085938 L 125.191406 490.230469 L 124.039063 490.597656 L 123.972656 490.878906 L 122.789063 491.375 L 120.792969 492.769531 L 118.617188 495.28125 L 118.089844 496.425781 L 117.15625 494.691406 L 115.984375 493.691406 L 113.351563 492.550781 L 112.097656 491.566406 L 109.523438 490.429688 L 111.699219 490.226563 L 113.914063 489.570313 L 115.957031 488.488281 L 117.746094 487.023438 L 119.210938 485.234375 L 119.449219 484.789063 L 121.425781 483.085938 L 124.375 479.769531 L 125.210938 477.886719 L 124.875 476.421875 L 125.511719 474.832031 L 127.394531 474.480469 L 129.507813 473.617188 L 130.40625 472.914063 L 132.105469 472.640625 L 132.679688 471.785156 L 132.878906 471.003906 L 135.25 469.972656 L 137.402344 468.363281 L 139.335938 465.976563 L 140.539063 463.292969 L 144.023438 461.6875 L 146.796875 459.035156 L 148.386719 456.113281 L 149.09375 452.730469 L 151.222656 456.183594 L 154.414063 458.695313 L 158.523438 460.09375 L 162.746094 459.980469 L 164.832031 459.328125 L 166.757813 458.296875 L 168.457031 456.925781 L 169.871094 455.257813 L 171 453.238281 L 171.984375 450.351563 L 172.304688 448.449219 L 173.15625 448.464844 L 176.316406 448.058594 L 178.296875 448.414063 L 180.457031 448.398438 L 182.578125 447.980469 L 184.597656 447.179688 L 187.941406 444.628906 L 190.15625 441.050781 L 190.820313 438.582031 L 190.9375 436.152344 L 192.886719 433.144531 L 193.828125 429.683594 L 193.839844 428.042969 L 195.792969 425.3125 L 197.929688 424.472656 L 198.285156 423.78125 L 198.070313 423.238281 L 197.8125 423.082031 L 196.09375 424.355469 L 193.703125 426.566406 L 193.347656 424.855469 L 192.363281 422.625 L 190.9375 420.644531 Z M 233.265625 471.046875 L 229.707031 471.046875 L 225.957031 470.382813 L 222.425781 470.96875 L 222.296875 470.886719 L 221.554688 470.992188 L 220.492188 470.847656 L 221.476563 469.683594 L 227.316406 466.367188 L 232.550781 467.761719 L 234.171875 469.894531 Z M 235.726563 344.398438 L 233.585938 346.984375 L 233.570313 345.425781 Z M 221.953125 370.246094 L 223.660156 372.417969 L 225.832031 374.125 L 224.585938 377.25 L 221.953125 374.125 L 220.882813 371.65625 L 219.273438 369.503906 L 216.886719 367.574219 L 214.199219 366.371094 L 214.847656 363.152344 L 215.960938 365.453125 L 217.550781 367.460938 L 219.648438 369.136719 Z M 183.480469 290.863281 L 183.183594 288.832031 L 187.0625 288.832031 Z M 175.429688 358.617188 L 178.347656 358.929688 L 179.128906 358.8125 L 179.910156 359.441406 L 180.328125 358.636719 L 181.25 358.5 L 183.953125 357.363281 L 184.398438 357.023438 L 185.050781 357.496094 L 184.761719 357.949219 L 183.847656 360.613281 L 183.601563 363.292969 L 184.007813 366.078125 L 183.183594 366.371094 L 181.476563 364.199219 L 179.308594 362.492188 L 177.238281 359.972656 Z M 185.769531 355.976563 L 186.285156 355.582031 L 185.953125 356.097656 Z M 163.992188 436.152344 L 167.675781 436.152344 L 167.726563 438.074219 L 165.910156 436.957031 L 164.097656 436.265625 Z M 236.835938 466.113281 L 235.136719 465.644531 L 236.523438 463.683594 L 237.195313 464.164063 L 237.5 465.839844 Z M 236.835938 466.113281 "/>
</g>
</svg>
