<?xml version="1.0" encoding="UTF-8"?>
<svg xmlns="http://www.w3.org/2000/svg" xmlns:xlink="http://www.w3.org/1999/xlink" width="378pt" height="504pt" viewBox="0 0 378 504" version="1.1">
<g id="data">
<rect x="0" y="0" width="378" height="504" style="fill:rgb(100%,100%,100%);fill-opacity:1;stroke:none;"/>
<path style=" stroke:none;fill-rule:nonzero;fill:rgb(100%,100%,100%);fill-opacity:1;" d="M 53.308594 504 L 324.691406 504 L 324.691406 0 L 53.308594 0 Z M 53.308594 504 "/>
<path style=" stroke:none;fill-rule:nonzero;fill:rgb(22.745098%,53.333333%,16.078431%);fill-opacity:1;" d="M 245.214844 315.96875 L 246.921875 318.140625 L 249.09375 319.847656 L 248.992188 326.851563 L 249.433594 329.597656 L 250.28125 331.851563 L 251.417969 333.679688 L 254.242188 337.066406 L 256.847656 339.230469 L 255.957031 341.226563 L 255.878906 341.566406 L 253.664063 338.65625 L 252.601563 338.082031 L 245.550781 339.511719 L 244.589844 338.644531 L 243.40625 338.558594 L 241.210938 339.871094 L 241.886719 340.445313 L 246.324219 340.394531 L 249.617188 339.34375 L 251.976563 339.082031 L 254.382813 342.558594 L 255.457031 343.441406 L 255.367188 345.53125 L 255.714844 347.820313 L 256.453125 349.875 L 257.558594 351.753906 L 259 353.394531 L 260.722656 354.738281 L 260.582031 357.367188 L 261.097656 361.542969 L 262.132813 364.167969 L 263.859375 366.5625 L 265.867188 368.261719 L 264.953125 369.09375 L 261.394531 373.164063 L 260.601563 374.816406 L 262.84375 374.3125 L 264.9375 375.519531 L 266.9375 378.226563 L 270.21875 378.804688 L 270.625 378.746094 L 271.910156 376.796875 L 272.234375 374.960938 L 273.40625 371.914063 L 274.707031 370.632813 L 276.375 370.339844 L 279.125 372.144531 L 282.445313 373.105469 L 284.882813 373.171875 L 287.40625 372.695313 L 289.761719 371.671875 L 290.488281 371.148438 L 292.320313 371.34375 L 293.351563 373.292969 L 295.789063 375.734375 L 299.441406 377.550781 L 303.371094 378 L 304.046875 379.378906 L 304.734375 381.710938 L 304.921875 384.136719 L 304.472656 387.042969 L 303.371094 389.628906 L 304.035156 393.507813 L 303.371094 397.382813 L 303.371094 401.261719 L 301.199219 402.96875 L 299.492188 405.136719 L 296.710938 402.710938 L 293.433594 401.308594 L 290.648438 400.945313 L 287.863281 401.261719 L 285.816406 400.511719 L 283.664063 400.15625 L 280.472656 400.371094 L 276.898438 401.761719 L 274.054688 404.144531 L 272.058594 407.417969 L 271.242188 411.03125 L 271.34375 413.464844 L 271.953125 415.824219 L 273.265625 418.746094 L 274.871094 420.898438 L 276.714844 422.480469 L 278.96875 423.695313 L 280.769531 424.199219 L 280.71875 424.230469 L 282.339844 425.378906 L 283.761719 424.875 L 281.875 427.871094 L 281 431.859375 L 281.074219 432.402344 L 279.644531 432.160156 L 274.75 433.78125 L 272.609375 436.117188 L 274.253906 436.015625 L 275.152344 434.667969 L 276.683594 434.363281 L 278.285156 434.328125 L 281.054688 434.949219 L 281.457031 435.28125 L 281.523438 435.785156 L 281.722656 436.164063 L 281.691406 436.328125 L 279.554688 436.347656 L 277.390625 437.65625 L 277.96875 438.546875 L 281.382813 438.964844 L 283.503906 439.496094 L 286.109375 441.945313 L 289.46875 443.503906 L 293.238281 444.0625 L 299.492188 443.90625 L 299.492188 447.785156 L 293.613281 447.621094 L 290.328125 447.871094 L 287.828125 448.460938 L 285.628906 449.519531 L 283.335938 451.375 L 281.582031 453.75 L 280.480469 456.488281 L 280.109375 459.414063 L 276.425781 459.796875 L 272.945313 461.386719 L 270.246094 463.917969 L 268.761719 466.648438 L 259.269531 463.777344 L 258.792969 463.738281 L 257.976563 463.441406 L 255.097656 463.132813 L 249.09375 463.292969 L 246.359375 462.683594 L 243.691406 462.726563 L 240.132813 463.730469 L 238.953125 464.453125 L 237.714844 463.296875 L 231.496094 463.171875 L 231.378906 463.496094 L 232.574219 464.835938 L 232.214844 465.75 L 231.738281 466.042969 L 226.691406 465.496094 L 219.566406 468.449219 L 217.054688 467.824219 L 210.222656 468.96875 L 208.164063 468.875 L 207.273438 468.058594 L 206.238281 469.769531 L 209.429688 471.089844 L 209.714844 470.9375 L 210.1875 472.128906 L 209.566406 473.890625 L 206.84375 474.453125 L 204.453125 473.097656 L 203.015625 472.699219 L 197.625 472.007813 L 196.175781 472.65625 L 195.679688 473.863281 L 195.832031 474.871094 L 195.90625 474.921875 L 195.351563 474.921875 L 194.851563 473.972656 L 193.832031 473.21875 L 192.898438 471.601563 L 190.007813 469.085938 L 186.453125 467.644531 L 182.496094 467.453125 L 180.367188 467.921875 L 178.363281 468.777344 L 177.246094 469.644531 L 176.207031 469.78125 L 174.339844 470.335938 L 168.992188 473.234375 L 168.214844 474.070313 L 167.203125 476.179688 L 165.273438 481.828125 L 165.164063 481.964844 L 164.242188 484.1875 L 163.972656 485.636719 L 163.660156 486.554688 L 156.136719 486.554688 L 155.636719 486.171875 L 154.472656 485.082031 L 152.542969 483.867188 L 150.414063 483.050781 L 148.652344 482.742188 L 148.46875 482.535156 L 148.265625 482.550781 L 147.714844 479.84375 L 146.386719 477.132813 L 148.292969 474.921875 L 150.464844 474.71875 L 152.5625 474.109375 L 156.144531 471.871094 L 158.632813 468.617188 L 159.835938 464.703125 L 159.878906 462.265625 L 159.40625 459.871094 L 158.449219 457.625 L 156.957031 455.535156 L 155.148438 453.898438 L 153.039063 452.675781 L 150.71875 451.917969 L 148.375 451.671875 L 148.292969 450.386719 L 148.292969 447.785156 L 148.9375 447.265625 L 151.105469 446.613281 L 157.421875 446.269531 L 158.546875 446.003906 L 159.277344 446.484375 L 161.65625 447.417969 L 164.546875 447.886719 L 169.835938 447.808594 L 170.039063 448.109375 L 170.757813 448.421875 L 172.070313 448.445313 L 172.894531 449.507813 L 174.539063 450.949219 L 176.417969 452.054688 L 178.597656 452.824219 L 181.273438 453.15625 L 183.953125 452.863281 L 187.0625 451.660156 L 190.851563 451.027344 L 194.023438 449.347656 L 196.222656 447.195313 L 197.832031 444.421875 L 198.589844 441.570313 L 198.640625 438.109375 L 197.863281 435.011719 L 196.191406 432.144531 L 193.882813 429.9375 L 192.863281 429.40625 L 195.792969 425.3125 L 197.929688 424.472656 L 198.285156 423.78125 L 198.070313 423.238281 L 197.8125 423.082031 L 196.09375 424.355469 L 192.90625 427.300781 L 191.636719 428.765625 L 190.9375 428.398438 L 191.605469 424.523438 L 190.9375 420.644531 L 193.191406 420.804688 L 196.609375 420.507813 L 200.480469 419.171875 L 202.949219 417.328125 L 204.84375 414.90625 L 206.039063 412.066406 L 206.445313 409.015625 L 209.363281 409.328125 L 212.265625 408.902344 L 215.078125 407.699219 L 217.390625 405.894531 L 220.066406 402.84375 L 221.546875 399.628906 L 222.609375 394.015625 L 222.5 391.855469 L 221.953125 389.628906 L 224.132813 388.542969 L 226.039063 387.027344 L 227.65625 385.039063 L 228.753906 382.867188 L 229.5 379.234375 L 229.066406 375.550781 L 227.777344 372.625 L 225.832031 370.246094 L 225.738281 367.960938 L 225.15625 365.613281 L 224.101563 363.441406 L 222.710938 361.625 L 225.121094 360.4375 L 227.195313 358.726563 L 228.621094 356.917969 L 229.707031 354.738281 L 231.785156 352.140625 L 233.226563 348.179688 L 233.164063 343.96875 L 232.222656 341.175781 L 230.613281 338.710938 L 228.4375 336.726563 L 225.832031 335.355469 L 226.105469 331.671875 L 225.207031 328.089844 L 223.878906 325.765625 L 220.84375 322.199219 L 218.078125 319.847656 L 218.382813 316.675781 L 217.816406 313.539063 L 216.347656 310.570313 L 214.199219 308.214844 L 216.195313 309.101563 L 218.320313 309.601563 L 220.503906 309.695313 L 222.664063 309.378906 L 224.726563 308.664063 L 226.621094 307.574219 L 228.363281 306.058594 L 229.707031 304.339844 L 229.886719 307.15625 L 230.742188 309.851563 L 232.222656 312.257813 L 234.339844 314.316406 L 236.789063 315.722656 L 239.632813 316.519531 L 242.457031 316.585938 Z M 282.253906 437.183594 L 283.195313 439 L 283.058594 438.976563 L 282.164063 437.605469 Z M 237.417969 465.390625 L 237.296875 465.464844 L 236.734375 466.082031 L 235.136719 465.644531 L 236.523438 463.683594 L 237.195313 464.164063 Z M 234.148438 469.863281 L 234.066406 470.03125 L 233.269531 471.042969 L 222.371094 470.933594 L 222.296875 470.886719 L 221.988281 470.929688 L 220.433594 470.914063 L 221.476563 469.683594 L 227.316406 466.367188 L 232.550781 467.761719 Z M 190.859375 245.96875 L 193.109375 245.621094 L 195.128906 244.894531 L 197.085938 243.734375 L 198.6875 242.3125 L 197.140625 244.511719 L 196.136719 247.011719 L 195.738281 249.675781 L 195.960938 252.359375 L 196.691406 254.6875 L 197.890625 256.8125 L 200.222656 259.804688 L 202.570313 261.691406 L 199.734375 260.523438 L 196.816406 260.132813 L 193.773438 260.523438 L 190.9375 261.691406 L 193.132813 258.089844 L 193.898438 253.9375 L 193.132813 249.789063 Z M 179.308594 378 L 180.445313 380.574219 L 182.167969 382.800781 L 184.375 384.550781 L 187.0625 385.753906 L 188.769531 387.925781 L 190.9375 389.628906 L 187.765625 389.324219 L 184.511719 389.933594 L 181.660156 391.359375 L 179.308594 393.507813 L 178.933594 391.386719 L 178.117188 389.257813 L 176.902344 387.324219 L 175.429688 385.753906 L 177.855469 382.519531 L 178.75 380.144531 L 179.105469 377.636719 Z M 171.554688 366.371094 L 173.855469 366.273438 L 176.089844 365.722656 L 178.171875 364.746094 L 179.925781 363.460938 L 179.308594 366.371094 L 178.113281 369.300781 L 177.753906 371.8125 L 175.152344 368.523438 Z M 144.179688 405.136719 L 144.414063 405.136719 L 142.246094 406.84375 L 140.539063 409.015625 L 138.398438 409.382813 L 136.367188 410.136719 L 132.980469 412.613281 L 131.640625 414.320313 L 130.640625 416.25 L 130.019531 418.328125 L 129.792969 420.613281 L 127.984375 418.988281 L 125.882813 417.773438 L 123.570313 417.023438 L 121.539063 416.808594 L 121.578125 416.691406 L 123.398438 416.359375 L 125.40625 415.582031 L 127.335938 414.363281 L 128.90625 412.890625 L 131.722656 411.457031 L 133.074219 411.34375 L 134.871094 409.289063 L 135.753906 407.632813 L 137.585938 406.550781 L 141.359375 406.660156 L 142.21875 406.390625 Z M 144.179688 405.136719 "/>
<path style=" stroke:none;fill-rule:nonzero;fill:rgb(80.392157%,58.431373%,4.705882%);fill-opacity:1;" d="M 216.136719 358.617188 L 215.855469 360.414063 L 215.027344 362.035156 L 213.742188 363.320313 L 212.121094 364.144531 L 210.324219 364.429688 L 208.527344 364.144531 L 206.90625 363.320313 L 205.617188 362.035156 L 204.792969 360.414063 L 204.507813 358.617188 L 204.792969 356.816406 L 205.617188 355.195313 L 206.90625 353.910156 L 208.527344 353.085938 L 210.324219 352.800781 L 212.121094 353.085938 L 213.742188 353.910156 L 215.027344 355.195313 L 215.855469 356.816406 Z M 216.136719 358.617188 "/>
<path style=" stroke:none;fill-rule:nonzero;fill:rgb(80.392157%,58.431373%,4.705882%);fill-opacity:1;" d="M 189 288.832031 L 188.714844 290.628906 L 187.890625 292.25 L 186.601563 293.535156 L 184.980469 294.363281 L 183.183594 294.644531 L 181.386719 294.363281 L 179.765625 293.535156 L 178.480469 292.25 L 177.652344 290.628906 L 177.371094 288.832031 L 177.652344 287.035156 L 178.128906 286.097656 L 178.757813 285.980469 L 180.191406 286.804688 L 182.933594 286.238281 L 183.03125 285.160156 L 182.34375 284.746094 L 180.035156 285.351563 L 178.636719 285.257813 L 179.765625 284.125 L 181.386719 283.300781 L 183.183594 283.015625 L 184.980469 283.300781 L 186.601563 284.125 L 187.890625 285.414063 L 188.714844 287.035156 Z M 189 288.832031 "/>
<path style=" stroke:none;fill-rule:nonzero;fill:rgb(80.392157%,58.431373%,4.705882%);fill-opacity:1;" d="M 123.65625 492.152344 L 121.613281 491.257813 L 120.324219 489.972656 L 119.5 488.351563 L 119.214844 486.554688 L 119.5 484.757813 L 123.265625 481.019531 L 125.03125 480.738281 L 126.828125 481.023438 L 128.449219 481.847656 L 129.734375 483.136719 L 130.5625 484.757813 L 130.832031 486.476563 L 129.414063 488.195313 L 126.714844 489.746094 L 124.039063 490.597656 Z M 123.65625 492.152344 "/>
<path style=" stroke:none;fill-rule:nonzero;fill:rgb(80.392157%,58.431373%,4.705882%);fill-opacity:1;" d="M 189 358.617188 L 188.714844 360.414063 L 187.890625 362.035156 L 186.601563 363.320313 L 184.980469 364.144531 L 183.183594 364.429688 L 181.386719 364.144531 L 179.765625 363.320313 L 178.480469 362.035156 L 177.652344 360.414063 L 177.371094 358.617188 L 177.539063 357.535156 L 179.910156 359.441406 L 180.433594 358.429688 L 178.585938 355.09375 L 179.765625 353.910156 L 181.625 353.046875 L 181.914063 353.875 L 182.898438 354.332031 L 184.078125 356.789063 L 185.613281 357.902344 L 188.359375 357.621094 L 188.761719 357.117188 Z M 182.976563 352.832031 L 184.980469 353.085938 L 186.601563 353.910156 L 188.28125 355.960938 L 186.378906 356.386719 L 183.8125 354.640625 Z M 182.976563 352.832031 "/>
<path style=" stroke:none;fill-rule:nonzero;fill:rgb(80.392157%,58.431373%,4.705882%);fill-opacity:1;" d="M 181.246094 292.707031 L 180.960938 294.503906 L 180.136719 296.125 L 178.847656 297.414063 L 177.226563 298.238281 L 175.429688 298.523438 L 173.632813 298.238281 L 172.011719 297.414063 L 170.636719 295.953125 L 174.074219 288.722656 L 175.894531 286.964844 L 177.226563 287.175781 L 178.847656 288.003906 L 180.136719 289.289063 L 180.960938 290.910156 Z M 181.246094 292.707031 "/>
<path style=" stroke:none;fill-rule:nonzero;fill:rgb(80.392157%,58.431373%,4.705882%);fill-opacity:1;" d="M 192.875 319.847656 L 192.59375 321.644531 L 191.765625 323.265625 L 190.480469 324.550781 L 188.859375 325.375 L 187.0625 325.660156 L 186.328125 325.546875 L 187.28125 323.421875 L 187.71875 320.933594 L 187.855469 317.484375 L 184.742188 320.527344 L 181.761719 322.09375 L 181.246094 319.847656 L 181.53125 318.050781 L 182.355469 316.429688 L 183.644531 315.140625 L 185.265625 314.316406 L 187.0625 314.03125 L 188.859375 314.316406 L 190.480469 315.140625 L 191.765625 316.429688 L 192.59375 318.050781 Z M 192.875 319.847656 "/>
<path style=" stroke:none;fill-rule:nonzero;fill:rgb(80.392157%,58.431373%,4.705882%);fill-opacity:1;" d="M 169.667969 238.101563 L 169.898438 236.632813 L 170.726563 235.011719 L 172.011719 233.726563 L 173.632813 232.898438 L 175.429688 232.617188 L 177.226563 232.898438 L 178.847656 233.726563 L 180.136719 235.011719 L 180.824219 236.367188 L 180.578125 237.003906 L 174.761719 240.109375 Z M 179.679688 242.304688 L 178.847656 243.136719 L 177.226563 243.960938 L 175.429688 244.246094 L 173.632813 243.960938 L 172.011719 243.136719 L 170.726563 241.847656 L 170.039063 240.5 Z M 179.679688 242.304688 "/>
<path style=" stroke:none;fill-rule:nonzero;fill:rgb(80.392157%,58.431373%,4.705882%);fill-opacity:1;" d="M 189 319.847656 L 188.714844 321.644531 L 187.890625 323.265625 L 186.914063 324.238281 L 187.71875 320.933594 L 187.855469 317.484375 L 184.742188 320.527344 L 179.199219 323.441406 L 178.40625 323.121094 L 177.652344 321.644531 L 177.371094 319.847656 L 177.652344 318.050781 L 178.480469 316.429688 L 179.765625 315.140625 L 181.386719 314.316406 L 183.183594 314.03125 L 184.980469 314.316406 L 186.601563 315.140625 L 187.890625 316.429688 L 188.714844 318.050781 Z M 189 319.847656 "/>
<path style=" stroke:none;fill-rule:nonzero;fill:rgb(80.392157%,58.431373%,4.705882%);fill-opacity:1;" d="M 185.125 319.847656 L 184.742188 320.527344 L 179.199219 323.441406 L 177.335938 322.691406 L 174.1875 317.242188 L 175.890625 315.140625 L 177.511719 314.316406 L 179.308594 314.03125 L 181.105469 314.316406 L 182.726563 315.140625 L 184.011719 316.429688 L 184.839844 318.050781 Z M 185.125 319.847656 "/>
<path style=" stroke:none;fill-rule:nonzero;fill:rgb(80.392157%,58.431373%,4.705882%);fill-opacity:1;" d="M 161.863281 428.398438 L 161.578125 430.195313 L 160.589844 431.980469 L 159.03125 429.199219 L 155.65625 429.589844 L 151.175781 431.496094 L 150.515625 430.195313 L 150.296875 428.820313 L 152.765625 427.832031 L 153.085938 427.097656 L 152.808594 426.597656 L 150.550781 426.535156 L 151.339844 424.980469 L 152.628906 423.695313 L 154.25 422.871094 L 156.046875 422.585938 L 157.84375 422.871094 L 159.464844 423.695313 L 160.75 424.980469 L 161.578125 426.601563 Z M 161.863281 428.398438 "/>
<path style=" stroke:none;fill-rule:nonzero;fill:rgb(80.392157%,58.431373%,4.705882%);fill-opacity:1;" d="M 134.722656 474.921875 L 134.4375 476.71875 L 133.613281 478.339844 L 132.324219 479.628906 L 130.703125 480.453125 L 128.90625 480.738281 L 127.109375 480.453125 L 125.488281 479.628906 L 124.761719 478.898438 L 125.210938 477.886719 L 124.875 476.421875 L 125.640625 474.519531 L 128.386719 473.238281 L 132.105469 472.640625 L 132.925781 470.820313 L 133.613281 471.503906 L 134.4375 473.125 Z M 134.722656 474.921875 "/>
<path style=" stroke:none;fill-rule:nonzero;fill:rgb(80.392157%,58.431373%,4.705882%);fill-opacity:1;" d="M 177.371094 296.585938 L 177.085938 298.382813 L 176.257813 300.003906 L 174.972656 301.289063 L 173.351563 302.117188 L 171.554688 302.398438 L 169.757813 302.117188 L 168.417969 301.433594 L 169.164063 299.058594 L 172.992188 290.996094 L 174.972656 291.878906 L 176.257813 293.167969 L 177.085938 294.789063 Z M 177.371094 296.585938 "/>
<path style=" stroke:none;fill-rule:nonzero;fill:rgb(80.392157%,58.431373%,4.705882%);fill-opacity:1;" d="M 191.242188 219.71875 L 190.109375 218.585938 L 189.285156 216.964844 L 189 215.167969 L 189.285156 213.371094 L 190.109375 211.75 L 191.398438 210.464844 L 193.019531 209.636719 L 194.816406 209.355469 L 197.167969 209.921875 L 197.433594 210.839844 L 197.785156 210.703125 L 197.761719 211.238281 L 196.796875 214.386719 L 195.867188 215.914063 Z M 191.242188 219.71875 "/>
<path style=" stroke:none;fill-rule:nonzero;fill:rgb(80.392157%,58.431373%,4.705882%);fill-opacity:1;" d="M 139.410156 322.675781 L 138.882813 321.644531 L 138.640625 320.097656 L 139.816406 316.644531 L 142.300781 315.023438 L 142.671875 314.308594 L 144.414063 314.03125 L 146.210938 314.316406 L 147.832031 315.140625 L 148.847656 316.15625 L 147.847656 318.148438 L 145.3125 320.636719 L 141.859375 323.019531 L 139.824219 322.464844 Z M 139.410156 322.675781 "/>
<path style=" stroke:none;fill-rule:nonzero;fill:rgb(80.392157%,58.431373%,4.705882%);fill-opacity:1;" d="M 173.683594 239.636719 L 173.492188 238.429688 L 173.777344 236.632813 L 174.601563 235.011719 L 175.890625 233.726563 L 177.511719 232.898438 L 179.308594 232.617188 L 181.105469 232.898438 L 183.0625 234.0625 L 181.046875 235.800781 L 180.578125 237.003906 L 174.761719 240.109375 Z M 182.742188 243.121094 L 181.105469 243.960938 L 179.308594 244.246094 L 177.511719 243.960938 L 175.890625 243.136719 L 174.289063 241.230469 Z M 182.742188 243.121094 "/>
<path style=" stroke:none;fill-rule:nonzero;fill:rgb(80.392157%,58.431373%,4.705882%);fill-opacity:1;" d="M 126.980469 428.324219 L 127.527344 426.0625 L 128.796875 425.832031 L 131.792969 424.328125 L 131.226563 422.867188 L 130.640625 424.257813 L 128.542969 424.515625 L 129.367188 423.695313 L 130.988281 422.871094 L 132.785156 422.585938 L 134.582031 422.871094 L 136.78125 424.273438 L 136.292969 426.515625 L 135.777344 427.203125 L 133.742188 427.917969 L 132.394531 427.265625 L 131.648438 427.453125 L 129.4375 429.378906 Z M 126.980469 428.324219 "/>
<path style=" stroke:none;fill-rule:nonzero;fill:rgb(80.392157%,58.431373%,4.705882%);fill-opacity:1;" d="M 146.355469 354.738281 L 146.070313 356.535156 L 145.242188 358.15625 L 143.273438 359.789063 L 142.050781 357.363281 L 142.246094 352.273438 L 145.042969 351.121094 L 146.070313 352.941406 Z M 141.734375 358.875 L 141.003906 358.070313 L 139.230469 356.960938 L 138.828125 356.035156 L 139.253906 355.210938 L 140.597656 355.164063 L 141.484375 356.3125 L 142.226563 358.1875 Z M 141.734375 358.875 "/>
<path style=" stroke:none;fill-rule:nonzero;fill:rgb(80.392157%,58.431373%,4.705882%);fill-opacity:1;" d="M 116.816406 494.402344 L 117.734375 493.480469 L 119.355469 492.652344 L 121.152344 492.371094 L 123.46875 492.917969 L 123.132813 494.289063 L 123.664063 495.292969 L 123.496094 496.125 L 122.722656 496.945313 L 120.660156 497.648438 L 119.628906 499.730469 L 118.675781 498.910156 L 117.96875 497.691406 L 118.09375 496.4375 Z M 116.816406 494.402344 "/>
<path style=" stroke:none;fill-rule:nonzero;fill:rgb(80.392157%,58.431373%,4.705882%);fill-opacity:1;" d="M 146.980469 429.808594 L 147.367188 429.054688 L 148.539063 428.378906 L 150.066406 428.890625 L 152.765625 427.832031 L 153.085938 427.097656 L 152.808594 426.597656 L 151.53125 426.5625 L 152.167969 426.460938 L 153.964844 426.746094 L 155.585938 427.570313 L 157.15625 429.414063 L 155.65625 429.589844 L 149.269531 432.308594 L 149.113281 432.746094 L 147.203125 431.632813 Z M 146.980469 429.808594 "/>
<path style=" stroke:none;fill-rule:nonzero;fill:rgb(80.392157%,58.431373%,4.705882%);fill-opacity:1;" d="M 164.992188 357.441406 L 163.339844 359.441406 L 161.71875 360.269531 L 159.921875 360.554688 L 158.125 360.269531 L 156.296875 359.234375 L 160.492188 357.457031 Z M 154.902344 357.535156 L 154.347656 356.257813 L 155.546875 356.503906 Z M 154.902344 357.535156 "/>
</g>
</svg>
