<?xml version="1.0" encoding="UTF-8"?>
<svg xmlns="http://www.w3.org/2000/svg" xmlns:xlink="http://www.w3.org/1999/xlink" width="378pt" height="504pt" viewBox="0 0 378 504" version="1.1">
<g id="data">
<rect x="0" y="0" width="378" height="504" style="fill:rgb(100%,100%,100%);fill-opacity:1;stroke:none;"/>
<path style=" stroke:none;fill-rule:nonzero;fill:rgb(100%,100%,100%);fill-opacity:1;" d="M 53.308594 504 L 324.691406 504 L 324.691406 0 L 53.308594 0 Z M 53.308594 504 "/>
<path style=" stroke:none;fill-rule:nonzero;fill:rgb(22.745098%,53.333333%,16.078431%);fill-opacity:1;" d="M 248.75 421.851563 L 250.519531 423.066406 L 252.484375 423.9375 L 254.574219 424.429688 L 256.847656 424.523438 L 254.722656 424.898438 L 252.59375 425.710938 L 250.664063 426.925781 L 249.09375 428.398438 L 249.390625 425.101563 Z M 233.3125 470.992188 L 230.367188 470.398438 L 232.394531 469.453125 L 233.324219 468.777344 L 233.90625 469.542969 L 233.703125 470.496094 Z M 195.90625 474.921875 L 195.351563 474.921875 L 195.144531 474.527344 L 195.679688 473.878906 L 195.832031 474.871094 Z M 196.824219 472.363281 L 197.96875 469.898438 L 201.195313 470.601563 L 204.488281 470.375 L 206.273438 469.710938 L 206.238281 469.769531 L 209.429688 471.089844 L 209.714844 470.9375 L 210.1875 472.128906 L 209.566406 473.890625 L 206.84375 474.453125 L 204.453125 473.097656 L 203.015625 472.699219 L 197.625 472.007813 Z M 208.113281 468.828125 L 210.324219 467.167969 L 212.035156 468.664063 L 210.222656 468.96875 L 208.164063 468.875 Z M 125.324219 475.296875 L 126.738281 477.09375 L 128.90625 478.800781 L 124.789063 478.835938 L 125.210938 477.886719 L 124.875 476.421875 Z M 109.523438 490.429688 L 113.417969 489.757813 L 113.398438 490.429688 Z M 109.523438 490.429688 "/>
<path style=" stroke:none;fill-rule:nonzero;fill:rgb(80.392157%,58.431373%,4.705882%);fill-opacity:1;" d="M 220.015625 366.371094 L 219.730469 368.167969 L 218.90625 369.789063 L 217.617188 371.074219 L 215.996094 371.898438 L 214.199219 372.183594 L 212.402344 371.898438 L 210.78125 371.074219 L 209.496094 369.789063 L 208.667969 368.167969 L 208.382813 366.371094 L 208.667969 364.570313 L 209.496094 362.949219 L 210.78125 361.664063 L 212.402344 360.839844 L 214.199219 360.554688 L 215.996094 360.839844 L 217.617188 361.664063 L 218.90625 362.949219 L 219.730469 364.570313 Z M 220.015625 366.371094 "/>
<path style=" stroke:none;fill-rule:nonzero;fill:rgb(80.392157%,58.431373%,4.705882%);fill-opacity:1;" d="M 192.875 381.875 L 192.59375 383.675781 L 191.765625 385.296875 L 190.480469 386.582031 L 188.859375 387.40625 L 187.0625 387.691406 L 185.265625 387.40625 L 183.644531 386.582031 L 182.355469 385.296875 L 181.53125 383.675781 L 181.246094 381.875 L 181.53125 380.078125 L 182.355469 378.457031 L 183.644531 377.171875 L 185.265625 376.347656 L 187.0625 376.0625 L 188.859375 376.347656 L 190.480469 377.171875 L 191.765625 378.457031 L 192.59375 380.078125 Z M 192.875 381.875 "/>
<path style=" stroke:none;fill-rule:nonzero;fill:rgb(80.392157%,58.431373%,4.705882%);fill-opacity:1;" d="M 196.753906 455.539063 L 196.46875 457.335938 L 195.644531 458.957031 L 194.355469 460.242188 L 192.734375 461.070313 L 190.9375 461.355469 L 189.140625 461.070313 L 187.519531 460.242188 L 186.234375 458.957031 L 185.40625 457.335938 L 185.125 455.539063 L 185.40625 453.742188 L 186.234375 452.121094 L 187.519531 450.832031 L 189.140625 450.007813 L 190.9375 449.722656 L 192.734375 450.007813 L 194.355469 450.832031 L 195.644531 452.121094 L 196.46875 453.742188 Z M 196.753906 455.539063 "/>
<path style=" stroke:none;fill-rule:nonzero;fill:rgb(80.392157%,58.431373%,4.705882%);fill-opacity:1;" d="M 251.03125 416.769531 L 250.746094 418.566406 L 249.921875 420.1875 L 248.632813 421.472656 L 247.011719 422.300781 L 245.214844 422.585938 L 243.417969 422.300781 L 241.796875 421.472656 L 240.511719 420.1875 L 239.683594 418.566406 L 239.398438 416.769531 L 239.683594 414.972656 L 240.511719 413.351563 L 241.796875 412.066406 L 243.417969 411.238281 L 245.214844 410.953125 L 247.011719 411.238281 L 248.632813 412.066406 L 249.921875 413.351563 L 250.746094 414.972656 Z M 251.03125 416.769531 "/>
<path style=" stroke:none;fill-rule:nonzero;fill:rgb(80.392157%,58.431373%,4.705882%);fill-opacity:1;" d="M 212.261719 447.785156 L 211.976563 449.582031 L 211.152344 451.203125 L 209.863281 452.488281 L 208.242188 453.316406 L 206.445313 453.601563 L 204.648438 453.316406 L 203.027344 452.488281 L 201.742188 451.203125 L 200.914063 449.582031 L 200.628906 447.785156 L 200.914063 445.988281 L 201.742188 444.367188 L 203.027344 443.078125 L 204.648438 442.253906 L 206.445313 441.96875 L 208.242188 442.253906 L 209.863281 443.078125 L 211.152344 444.367188 L 211.976563 445.988281 Z M 212.261719 447.785156 "/>
<path style=" stroke:none;fill-rule:nonzero;fill:rgb(80.392157%,58.431373%,4.705882%);fill-opacity:1;" d="M 220.015625 440.03125 L 219.730469 441.828125 L 218.90625 443.449219 L 217.617188 444.734375 L 215.996094 445.5625 L 214.199219 445.847656 L 212.402344 445.5625 L 210.78125 444.734375 L 209.496094 443.449219 L 208.667969 441.828125 L 208.382813 440.03125 L 208.667969 438.234375 L 209.496094 436.613281 L 210.78125 435.324219 L 212.402344 434.5 L 214.199219 434.214844 L 215.996094 434.5 L 217.617188 435.324219 L 218.90625 436.613281 L 219.730469 438.234375 Z M 220.015625 440.03125 "/>
<path style=" stroke:none;fill-rule:nonzero;fill:rgb(80.392157%,58.431373%,4.705882%);fill-opacity:1;" d="M 293.675781 447.785156 L 293.390625 449.582031 L 292.566406 451.203125 L 291.28125 452.488281 L 289.660156 453.316406 L 287.863281 453.601563 L 286.066406 453.316406 L 284.441406 452.488281 L 283.15625 451.203125 L 282.332031 449.582031 L 282.046875 447.785156 L 282.332031 445.988281 L 283.15625 444.367188 L 284.441406 443.078125 L 286.066406 442.253906 L 287.863281 441.96875 L 289.660156 442.253906 L 291.28125 443.078125 L 292.566406 444.367188 L 293.390625 445.988281 Z M 293.675781 447.785156 "/>
<path style=" stroke:none;fill-rule:nonzero;fill:rgb(80.392157%,58.431373%,4.705882%);fill-opacity:1;" d="M 165.738281 362.492188 L 165.453125 364.289063 L 164.628906 365.910156 L 163.339844 367.195313 L 161.71875 368.023438 L 159.921875 368.308594 L 158.125 368.023438 L 156.503906 367.195313 L 155.21875 365.910156 L 154.390625 364.289063 L 154.109375 362.492188 L 154.390625 360.695313 L 154.847656 359.800781 L 160.492188 357.457031 L 162.476563 357.347656 L 163.339844 357.789063 L 164.628906 359.074219 L 165.453125 360.695313 Z M 165.738281 362.492188 "/>
<path style=" stroke:none;fill-rule:nonzero;fill:rgb(80.392157%,58.431373%,4.705882%);fill-opacity:1;" d="M 243.277344 463.292969 L 242.992188 465.089844 L 242.167969 466.710938 L 240.960938 467.914063 L 238.210938 466.1875 L 238.632813 465.4375 L 239.46875 464.933594 L 237.714844 463.296875 L 231.664063 463.175781 L 231.929688 461.496094 L 232.757813 459.875 L 234.042969 458.585938 L 235.664063 457.761719 L 237.460938 457.476563 L 239.257813 457.761719 L 240.878906 458.585938 L 242.167969 459.875 L 242.992188 461.496094 Z M 236.835938 466.113281 L 235.136719 465.644531 L 236.523438 463.683594 L 237.195313 464.164063 L 237.5 465.839844 Z M 232.238281 465.691406 L 231.742188 463.90625 L 232.574219 464.835938 Z M 232.238281 465.691406 "/>
<path style=" stroke:none;fill-rule:nonzero;fill:rgb(80.392157%,58.431373%,4.705882%);fill-opacity:1;" d="M 185.125 242.308594 L 184.839844 244.105469 L 184.011719 245.726563 L 182.726563 247.011719 L 181.105469 247.839844 L 179.308594 248.125 L 177.511719 247.839844 L 175.890625 247.011719 L 174.601563 245.726563 L 173.777344 244.105469 L 173.492188 242.308594 L 173.679688 241.125 L 178.0625 241.875 L 182.921875 243.167969 Z M 174.125 239.832031 L 174.601563 238.890625 L 175.890625 237.601563 L 177.511719 236.777344 L 179.308594 236.492188 L 180.691406 236.710938 L 180.578125 237.003906 L 174.761719 240.109375 Z M 174.125 239.832031 "/>
<path style=" stroke:none;fill-rule:nonzero;fill:rgb(80.392157%,58.431373%,4.705882%);fill-opacity:1;" d="M 150.230469 482.675781 L 149.988281 484.21875 L 148.46875 482.535156 L 142.796875 482.960938 L 141.527344 483.375 L 140.734375 484.175781 L 139.910156 484.507813 L 138.882813 484.472656 L 138.601563 482.675781 L 138.882813 480.878906 L 139.710938 479.257813 L 140.996094 477.972656 L 142.617188 477.144531 L 144.414063 476.863281 L 146.210938 477.144531 L 147.832031 477.972656 L 149.121094 479.257813 L 149.945313 480.878906 Z M 150.230469 482.675781 "/>
<path style=" stroke:none;fill-rule:nonzero;fill:rgb(80.392157%,58.431373%,4.705882%);fill-opacity:1;" d="M 227.769531 471.046875 L 227.484375 472.84375 L 226.949219 473.890625 L 222.296875 470.886719 L 220.207031 471.1875 L 221.476563 469.683594 L 226.09375 467.0625 L 227.484375 469.25 Z M 217.136719 467.847656 L 218.535156 466.339844 L 220.15625 465.515625 L 221.953125 465.230469 L 223.75 465.515625 L 225.050781 466.179688 L 219.566406 468.449219 Z M 217.136719 467.847656 "/>
<path style=" stroke:none;fill-rule:nonzero;fill:rgb(80.392157%,58.431373%,4.705882%);fill-opacity:1;" d="M 164.992188 357.441406 L 163.339844 359.441406 L 161.71875 360.269531 L 159.921875 360.554688 L 158.125 360.269531 L 156.296875 359.234375 L 160.492188 357.457031 Z M 154.902344 357.535156 L 154.347656 356.257813 L 155.546875 356.503906 Z M 154.902344 357.535156 "/>
</g>
</svg>
