<?xml version="1.0" encoding="UTF-8"?>
<svg xmlns="http://www.w3.org/2000/svg" xmlns:xlink="http://www.w3.org/1999/xlink" width="378pt" height="504pt" viewBox="0 0 378 504" version="1.1">
<g id="data">
<rect x="0" y="0" width="378" height="504" style="fill:rgb(100%,100%,100%);fill-opacity:1;stroke:none;"/>
<path style=" stroke:none;fill-rule:nonzero;fill:rgb(100%,100%,100%);fill-opacity:1;" d="M 53.308594 504 L 324.691406 504 L 324.691406 0 L 53.308594 0 Z M 53.308594 504 "/>
<path style=" stroke:none;fill-rule:nonzero;fill:rgb(22.745098%,53.333333%,16.078431%);fill-opacity:1;" d="M 287.863281 397.382813 L 290.507813 399.179688 L 293.542969 400.183594 L 296.738281 400.324219 L 299.96875 399.542969 L 302.746094 397.960938 L 304.988281 395.679688 L 306.566406 392.753906 L 307.117188 390.226563 L 307.179688 391.25 L 306.777344 393.191406 L 306.890625 393.976563 L 305.789063 396.917969 L 305.621094 397.726563 L 304.398438 397.984375 L 301.785156 399.269531 L 297.5 402.792969 L 295.617188 405.136719 L 291.542969 405.875 L 291.292969 403.480469 L 290.558594 401.191406 L 289.4375 399.203125 Z M 291.738281 374.125 L 293.851563 372.472656 L 293.285156 373.515625 Z M 206.445313 416.769531 L 213.109375 417.085938 L 215.894531 416.722656 L 219.171875 415.320313 L 221.953125 412.890625 L 222.160156 415.824219 L 223.09375 418.613281 L 224.699219 421.078125 L 226.765625 422.984375 L 229.707031 424.523438 L 232.011719 426.140625 L 234.511719 427.125 L 237.945313 427.507813 L 241.214844 426.90625 L 243.859375 425.617188 L 246.101563 423.710938 L 247.789063 421.300781 L 248.816406 418.542969 L 249.242188 415.394531 L 249.09375 412.890625 L 250.292969 409.785156 L 250.566406 406.464844 L 249.699219 402.726563 L 247.660156 399.472656 L 250.144531 400.671875 L 252.96875 401.261719 L 254.675781 403.433594 L 256.847656 405.136719 L 256.179688 409.015625 L 256.847656 412.890625 L 254.121094 414.023438 L 251.859375 415.714844 L 250.003906 418.011719 L 248.785156 420.703125 L 248.277344 423.871094 L 248.457031 426.175781 L 249.09375 428.398438 L 248.578125 432.464844 L 248.894531 434.625 L 249.609375 436.6875 L 251.003906 438.992188 L 252.996094 441 L 255.40625 442.464844 L 257.976563 443.28125 L 260.792969 443.480469 L 263.574219 442.992188 L 266.15625 441.851563 L 268.476563 440.03125 L 272.355469 440.03125 L 274.191406 441.375 L 276.375 442.378906 L 278.589844 442.894531 L 280.992188 442.957031 L 278.46875 446.183594 L 277.203125 450.210938 L 277.425781 454.300781 L 279.054688 458.058594 L 277.03125 456.28125 L 274.777344 455.0625 L 272.308594 454.367188 L 269.621094 454.242188 L 266.972656 454.734375 L 264.625 455.757813 L 262.460938 457.359375 L 260.722656 459.414063 L 258.324219 457.355469 L 255.457031 456.019531 L 250.109375 454.808594 L 246.394531 454.945313 L 242.691406 456.382813 L 239.605469 459.078125 L 238.289063 461.132813 L 237.460938 463.292969 L 231.496094 463.171875 L 231.378906 463.496094 L 232.574219 464.835938 L 232.214844 465.75 L 231.738281 466.042969 L 226.691406 465.496094 L 219.566406 468.449219 L 217.054688 467.824219 L 210.222656 468.96875 L 208.164063 468.875 L 207.273438 468.058594 L 206.238281 469.769531 L 209.429688 471.089844 L 209.714844 470.9375 L 209.921875 471.460938 L 208.058594 472.925781 L 206.832031 474.445313 L 204.453125 473.097656 L 203.015625 472.699219 L 197.625 472.007813 L 196.175781 472.65625 L 195.679688 473.863281 L 195.78125 474.523438 L 195.257813 474.742188 L 194.914063 474.09375 L 195.128906 472.261719 L 194.800781 469.476563 L 193.867188 466.964844 L 192.304688 464.632813 L 190.050781 462.570313 L 187.621094 461.195313 L 184.933594 460.4375 L 182.144531 460.34375 L 182.933594 457.933594 L 183.183594 455.539063 L 186.414063 454.820313 L 189.3125 453.21875 L 190.9375 455.539063 L 191.117188 458.359375 L 191.921875 460.933594 L 194.308594 464.417969 L 196.3125 466.027344 L 198.621094 467.15625 L 201.121094 467.753906 L 203.6875 467.785156 L 210.476563 466.449219 L 212.664063 465.367188 L 214.671875 463.761719 L 216.132813 461.972656 L 217.265625 459.808594 L 217.871094 457.710938 L 218.078125 455.539063 L 219.359375 452.050781 L 219.398438 447.832031 L 217.992188 443.984375 L 216.550781 442.015625 L 214.199219 440.03125 L 212.589844 438.03125 L 210.023438 436.109375 L 206.527344 434.855469 L 202.8125 434.765625 L 200.6875 435.265625 L 198.691406 436.152344 L 195.582031 436.828125 L 192.5625 438.472656 L 190.9375 436.152344 L 193.132813 432.550781 L 193.898438 428.398438 L 193.835938 428.046875 L 195.792969 425.3125 L 197.929688 424.472656 L 198.285156 423.78125 L 198.070313 423.238281 L 197.8125 423.082031 L 196.09375 424.355469 L 193.582031 426.675781 L 193.132813 424.25 L 190.9375 420.644531 L 192.933594 421.535156 L 195.058594 422.03125 L 197.242188 422.125 L 199.402344 421.808594 L 201.464844 421.09375 L 203.359375 420.007813 L 205.015625 418.585938 Z M 236.863281 463.929688 L 235.988281 464.863281 L 235.445313 465.726563 L 235.136719 465.644531 L 236.523438 463.683594 Z M 233.859375 469.484375 L 233.675781 470.527344 L 233.265625 471.046875 L 229.707031 471.046875 L 225.832031 470.382813 L 222.421875 470.964844 L 222.296875 470.886719 L 221.738281 470.964844 L 220.714844 470.582031 L 221.476563 469.683594 L 227.316406 466.367188 L 232.550781 467.761719 Z M 235.726563 344.398438 L 233.585938 346.984375 L 233.570313 345.425781 Z M 183.480469 290.863281 L 183.183594 288.832031 L 187.0625 288.832031 Z M 158.511719 477.0625 L 159.808594 474.441406 L 160.414063 471.578125 L 160.355469 469.160156 L 159.550781 465.0625 L 162.328125 466.886719 L 165.382813 467.832031 L 168.449219 467.925781 L 172.558594 467.125 L 171.554688 471.046875 L 169.519531 471.8125 L 167.5625 473.015625 L 165.878906 474.585938 L 164.601563 476.34375 L 163.277344 479.65625 L 163.019531 483.21875 L 161.621094 480.671875 Z M 125.511719 474.839844 L 127.152344 474.550781 L 129.28125 473.734375 L 130.648438 472.875 L 132.105469 472.640625 L 132.679688 471.785156 L 132.835938 471.167969 L 133.851563 473.503906 L 135.542969 475.746094 L 137.613281 477.445313 L 140.019531 478.628906 L 137.109375 478.136719 L 134.300781 478.367188 L 131.507813 479.320313 L 129.050781 480.949219 L 127.226563 482.929688 L 125.910156 485.28125 L 125.164063 487.867188 L 125.039063 490.277344 L 124.039063 490.597656 L 123.964844 490.902344 L 122.457031 491.566406 L 120.226563 493.292969 L 118.414063 495.609375 L 118.070313 496.390625 L 117.15625 494.691406 L 115.984375 493.691406 L 113.386719 492.5625 L 112.449219 491.785156 L 110.042969 490.601563 L 113.207031 491.101563 L 116.386719 490.71875 L 119.34375 489.480469 L 121.847656 487.484375 L 123.59375 485.109375 L 124.683594 482.367188 L 125.109375 478.113281 L 125.210938 477.886719 L 125.15625 477.648438 L 125.179688 477.425781 L 125.089844 475.886719 Z M 125.511719 474.839844 "/>
<path style=" stroke:none;fill-rule:nonzero;fill:rgb(80.392157%,58.431373%,4.705882%);fill-opacity:1;" d="M 227.769531 370.246094 L 227.484375 372.042969 L 226.660156 373.664063 L 225.371094 374.949219 L 223.75 375.777344 L 221.953125 376.0625 L 220.15625 375.777344 L 218.535156 374.949219 L 217.25 373.664063 L 216.421875 372.042969 L 216.136719 370.246094 L 216.421875 368.449219 L 217.25 366.828125 L 218.535156 365.542969 L 220.15625 364.714844 L 221.953125 364.429688 L 223.75 364.714844 L 225.371094 365.542969 L 226.660156 366.828125 L 227.484375 368.449219 Z M 227.769531 370.246094 "/>
<path style=" stroke:none;fill-rule:nonzero;fill:rgb(80.392157%,58.431373%,4.705882%);fill-opacity:1;" d="M 220.015625 358.617188 L 219.730469 360.414063 L 218.90625 362.035156 L 217.617188 363.320313 L 215.996094 364.144531 L 214.199219 364.429688 L 212.402344 364.144531 L 210.78125 363.320313 L 209.496094 362.035156 L 208.667969 360.414063 L 208.382813 358.617188 L 208.667969 356.816406 L 209.496094 355.195313 L 210.78125 353.910156 L 212.402344 353.085938 L 214.199219 352.800781 L 215.996094 353.085938 L 217.617188 353.910156 L 218.90625 355.195313 L 219.730469 356.816406 Z M 220.015625 358.617188 "/>
<path style=" stroke:none;fill-rule:nonzero;fill:rgb(80.392157%,58.431373%,4.705882%);fill-opacity:1;" d="M 231.644531 315.96875 L 231.363281 317.765625 L 230.535156 319.386719 L 229.25 320.675781 L 227.628906 321.5 L 225.832031 321.785156 L 224.035156 321.5 L 222.414063 320.675781 L 221.125 319.386719 L 220.300781 317.765625 L 220.015625 315.96875 L 220.300781 314.171875 L 221.125 312.550781 L 222.414063 311.265625 L 224.035156 310.4375 L 225.832031 310.152344 L 227.628906 310.4375 L 229.25 311.265625 L 230.535156 312.550781 L 231.363281 314.171875 Z M 231.644531 315.96875 "/>
<path style=" stroke:none;fill-rule:nonzero;fill:rgb(80.392157%,58.431373%,4.705882%);fill-opacity:1;" d="M 231.644531 374.125 L 231.363281 375.921875 L 230.535156 377.542969 L 229.25 378.828125 L 227.628906 379.652344 L 225.832031 379.9375 L 224.035156 379.652344 L 222.414063 378.828125 L 221.125 377.542969 L 220.300781 375.921875 L 220.015625 374.125 L 220.300781 372.324219 L 221.125 370.703125 L 222.414063 369.417969 L 224.035156 368.59375 L 225.832031 368.308594 L 227.628906 368.59375 L 229.25 369.417969 L 230.535156 370.703125 L 231.363281 372.324219 Z M 231.644531 374.125 "/>
<path style=" stroke:none;fill-rule:nonzero;fill:rgb(80.392157%,58.431373%,4.705882%);fill-opacity:1;" d="M 223.890625 335.355469 L 223.609375 337.152344 L 222.78125 338.773438 L 221.496094 340.058594 L 219.875 340.882813 L 218.078125 341.167969 L 216.28125 340.882813 L 214.660156 340.058594 L 213.371094 338.773438 L 212.546875 337.152344 L 212.261719 335.355469 L 212.546875 333.558594 L 213.371094 331.9375 L 214.660156 330.648438 L 216.28125 329.824219 L 218.078125 329.539063 L 219.875 329.824219 L 221.496094 330.648438 L 222.78125 331.9375 L 223.609375 333.558594 Z M 223.890625 335.355469 "/>
<path style=" stroke:none;fill-rule:nonzero;fill:rgb(80.392157%,58.431373%,4.705882%);fill-opacity:1;" d="M 189 366.371094 L 188.714844 368.167969 L 187.890625 369.789063 L 186.601563 371.074219 L 184.980469 371.898438 L 183.183594 372.183594 L 181.386719 371.898438 L 179.765625 371.074219 L 178.480469 369.789063 L 177.652344 368.167969 L 177.371094 366.371094 L 177.652344 364.570313 L 178.480469 362.949219 L 179.765625 361.664063 L 181.386719 360.839844 L 183.183594 360.554688 L 184.980469 360.839844 L 186.601563 361.664063 L 187.890625 362.949219 L 188.714844 364.570313 Z M 189 366.371094 "/>
<path style=" stroke:none;fill-rule:nonzero;fill:rgb(80.392157%,58.431373%,4.705882%);fill-opacity:1;" d="M 177.371094 405.136719 L 177.085938 406.933594 L 176.257813 408.558594 L 174.972656 409.84375 L 173.351563 410.667969 L 171.554688 410.953125 L 169.757813 410.667969 L 168.136719 409.84375 L 166.847656 408.558594 L 166.023438 406.933594 L 165.738281 405.136719 L 166.023438 403.339844 L 166.847656 401.71875 L 168.136719 400.433594 L 169.757813 399.609375 L 171.554688 399.324219 L 173.351563 399.609375 L 174.972656 400.433594 L 176.257813 401.71875 L 177.085938 403.339844 Z M 177.371094 405.136719 "/>
<path style=" stroke:none;fill-rule:nonzero;fill:rgb(80.392157%,58.431373%,4.705882%);fill-opacity:1;" d="M 185.125 300.460938 L 184.839844 302.257813 L 184.011719 303.878906 L 182.726563 305.167969 L 181.105469 305.992188 L 179.308594 306.277344 L 177.511719 305.992188 L 175.890625 305.167969 L 174.601563 303.878906 L 173.777344 302.257813 L 173.492188 300.460938 L 173.777344 298.664063 L 174.601563 297.042969 L 175.890625 295.757813 L 177.511719 294.929688 L 179.308594 294.644531 L 181.105469 294.929688 L 182.726563 295.757813 L 184.011719 297.042969 L 184.839844 298.664063 Z M 185.125 300.460938 "/>
<path style=" stroke:none;fill-rule:nonzero;fill:rgb(80.392157%,58.431373%,4.705882%);fill-opacity:1;" d="M 161.863281 459.414063 L 161.578125 461.210938 L 160.75 462.832031 L 159.464844 464.121094 L 157.84375 464.945313 L 156.046875 465.230469 L 154.25 464.945313 L 152.628906 464.121094 L 151.339844 462.832031 L 150.515625 461.210938 L 150.230469 459.414063 L 150.515625 457.617188 L 151.339844 455.996094 L 152.628906 454.710938 L 154.25 453.882813 L 156.046875 453.601563 L 157.84375 453.882813 L 159.464844 454.710938 L 160.75 455.996094 L 161.578125 457.617188 Z M 161.863281 459.414063 "/>
<path style=" stroke:none;fill-rule:nonzero;fill:rgb(80.392157%,58.431373%,4.705882%);fill-opacity:1;" d="M 142.476563 176.398438 L 142.191406 178.195313 L 141.367188 179.816406 L 140.078125 181.105469 L 138.457031 181.929688 L 136.660156 182.214844 L 134.863281 181.929688 L 133.242188 181.105469 L 131.957031 179.816406 L 131.128906 178.195313 L 130.847656 176.398438 L 131.128906 174.601563 L 131.957031 172.980469 L 133.242188 171.695313 L 134.863281 170.871094 L 136.660156 170.585938 L 138.457031 170.871094 L 140.078125 171.695313 L 141.367188 172.980469 L 142.191406 174.601563 Z M 142.476563 176.398438 "/>
<path style=" stroke:none;fill-rule:nonzero;fill:rgb(80.392157%,58.431373%,4.705882%);fill-opacity:1;" d="M 247.152344 335.355469 L 246.871094 337.152344 L 246.042969 338.773438 L 245.421875 339.394531 L 244.589844 338.644531 L 243.40625 338.558594 L 241.210938 339.871094 L 241.886719 340.445313 L 244.046875 340.421875 L 243.136719 340.882813 L 241.339844 341.167969 L 239.542969 340.882813 L 237.921875 340.058594 L 236.632813 338.773438 L 235.808594 337.152344 L 235.523438 335.355469 L 235.808594 333.558594 L 236.632813 331.9375 L 237.921875 330.648438 L 239.542969 329.824219 L 241.339844 329.539063 L 243.136719 329.824219 L 244.757813 330.648438 L 246.042969 331.9375 L 246.871094 333.558594 Z M 247.152344 335.355469 "/>
<path style=" stroke:none;fill-rule:nonzero;fill:rgb(80.392157%,58.431373%,4.705882%);fill-opacity:1;" d="M 289.800781 416.769531 L 289.515625 418.566406 L 288.722656 420.121094 L 288.214844 419.332031 L 283.617188 422.527344 L 282.1875 422.300781 L 280.566406 421.472656 L 279.28125 420.1875 L 278.453125 418.566406 L 278.167969 416.769531 L 278.453125 414.972656 L 279.28125 413.351563 L 280.566406 412.066406 L 282.1875 411.238281 L 283.984375 410.953125 L 285.78125 411.238281 L 287.402344 412.066406 L 288.6875 413.351563 L 289.515625 414.972656 Z M 289.800781 416.769531 "/>
<path style=" stroke:none;fill-rule:nonzero;fill:rgb(80.392157%,58.431373%,4.705882%);fill-opacity:1;" d="M 192.875 354.738281 L 192.59375 356.535156 L 191.765625 358.15625 L 190.480469 359.441406 L 188.859375 360.269531 L 187.0625 360.554688 L 185.265625 360.269531 L 183.644531 359.441406 L 182.355469 358.15625 L 181.53125 356.535156 L 181.246094 354.738281 L 181.566406 352.871094 L 181.914063 353.875 L 182.898438 354.332031 L 184.078125 356.789063 L 185.613281 357.902344 L 188.359375 357.621094 L 190.335938 355.148438 L 189.90625 355.050781 L 188.667969 355.527344 L 188.3125 355.957031 L 186.378906 356.386719 L 183.8125 354.640625 L 182.316406 351.402344 L 183.644531 350.035156 L 185.265625 349.207031 L 187.0625 348.921875 L 188.859375 349.207031 L 190.480469 350.035156 L 191.765625 351.320313 L 192.59375 352.941406 Z M 192.875 354.738281 "/>
<path style=" stroke:none;fill-rule:nonzero;fill:rgb(80.392157%,58.431373%,4.705882%);fill-opacity:1;" d="M 138.601563 412.890625 L 138.316406 414.6875 L 137.488281 416.308594 L 136.203125 417.597656 L 134.582031 418.421875 L 132.785156 418.707031 L 130.988281 418.421875 L 129.367188 417.597656 L 128.078125 416.308594 L 127.253906 414.6875 L 126.96875 412.890625 L 127.132813 411.851563 L 133.074219 411.34375 L 134.871094 409.289063 L 135.617188 407.886719 L 137.488281 409.472656 L 138.316406 411.09375 Z M 138.601563 412.890625 "/>
<path style=" stroke:none;fill-rule:nonzero;fill:rgb(80.392157%,58.431373%,4.705882%);fill-opacity:1;" d="M 173.492188 436.152344 L 173.207031 437.949219 L 172.382813 439.570313 L 172.074219 439.878906 L 170.558594 439.851563 L 166.820313 439 L 162.199219 434.253906 L 162.972656 432.734375 L 164.257813 431.449219 L 165.878906 430.625 L 167.675781 430.339844 L 169.472656 430.625 L 171.09375 431.449219 L 172.382813 432.734375 L 173.207031 434.355469 Z M 173.492188 436.152344 "/>
<path style=" stroke:none;fill-rule:nonzero;fill:rgb(80.392157%,58.431373%,4.705882%);fill-opacity:1;" d="M 169.667969 238.101563 L 169.898438 236.632813 L 170.726563 235.011719 L 172.011719 233.726563 L 173.632813 232.898438 L 175.429688 232.617188 L 177.226563 232.898438 L 178.847656 233.726563 L 180.136719 235.011719 L 180.824219 236.367188 L 180.578125 237.003906 L 174.761719 240.109375 Z M 179.679688 242.304688 L 178.847656 243.136719 L 177.226563 243.960938 L 175.429688 244.246094 L 173.632813 243.960938 L 172.011719 243.136719 L 170.726563 241.847656 L 170.039063 240.5 Z M 179.679688 242.304688 "/>
<path style=" stroke:none;fill-rule:nonzero;fill:rgb(80.392157%,58.431373%,4.705882%);fill-opacity:1;" d="M 192.875 230.675781 L 192.117188 231.570313 L 189.460938 232.730469 L 188.34375 232.882813 L 187.070313 232.078125 L 185.40625 232.042969 L 182.667969 234.40625 L 181.53125 232.472656 L 181.246094 230.675781 L 181.53125 228.878906 L 182.355469 227.257813 L 183.644531 225.972656 L 185.265625 225.144531 L 187.0625 224.863281 L 188.859375 225.144531 L 189.238281 225.953125 L 191.425781 226.917969 L 192.59375 228.878906 Z M 192.875 230.675781 "/>
<path style=" stroke:none;fill-rule:nonzero;fill:rgb(80.392157%,58.431373%,4.705882%);fill-opacity:1;" d="M 293.675781 440.03125 L 293.390625 441.828125 L 292.566406 443.449219 L 291.28125 444.734375 L 289.660156 445.5625 L 287.863281 445.847656 L 286.066406 445.5625 L 284.441406 444.734375 L 283.15625 443.449219 L 282.332031 441.828125 L 282.046875 440.03125 L 282.183594 439.164063 L 286.863281 440.339844 L 289.394531 439.9375 L 291.074219 438.957031 L 293.453125 438.625 Z M 282.4375 438.023438 L 283.476563 436.292969 L 286.839844 437.054688 L 287.960938 438.832031 L 286.679688 439.636719 L 283.058594 438.976563 Z M 282.4375 438.023438 "/>
<path style=" stroke:none;fill-rule:nonzero;fill:rgb(80.392157%,58.431373%,4.705882%);fill-opacity:1;" d="M 189 335.355469 L 188.714844 337.152344 L 187.890625 338.773438 L 186.601563 340.058594 L 184.980469 340.882813 L 182.886719 341.121094 L 183.371094 340.257813 L 185.429688 339.015625 L 185.140625 338.578125 L 182.683594 338.460938 L 181.554688 337.164063 L 181.355469 336.117188 L 181.601563 331.078125 L 181.949219 330.421875 L 183.730469 329.625 L 184.980469 329.824219 L 186.601563 330.648438 L 187.890625 331.9375 L 188.714844 333.558594 Z M 189 335.355469 "/>
<path style=" stroke:none;fill-rule:nonzero;fill:rgb(80.392157%,58.431373%,4.705882%);fill-opacity:1;" d="M 190.046875 232.472656 L 187.519531 231.503906 L 186.234375 230.21875 L 185.40625 228.597656 L 185.125 226.800781 L 185.40625 225.003906 L 186.234375 223.382813 L 187.519531 222.09375 L 188.382813 221.65625 L 189.085938 221.875 L 189.332031 222.921875 L 188.898438 224.691406 L 189.238281 225.953125 L 190.898438 226.824219 L 192.988281 227.191406 L 194.445313 228.726563 L 194.429688 229.304688 L 192.117188 231.570313 Z M 190.046875 232.472656 "/>
<path style=" stroke:none;fill-rule:nonzero;fill:rgb(80.392157%,58.431373%,4.705882%);fill-opacity:1;" d="M 154.109375 447.785156 L 153.824219 449.582031 L 152.996094 451.203125 L 151.710938 452.488281 L 150.089844 453.316406 L 147.53125 453.480469 L 148.429688 452.488281 L 148.105469 447.519531 L 151.105469 446.613281 L 153.898438 446.460938 Z M 154.109375 447.785156 "/>
<path style=" stroke:none;fill-rule:nonzero;fill:rgb(80.392157%,58.431373%,4.705882%);fill-opacity:1;" d="M 146.980469 429.808594 L 147.367188 429.054688 L 148.539063 428.378906 L 150.066406 428.890625 L 152.765625 427.832031 L 153.085938 427.097656 L 152.808594 426.597656 L 151.53125 426.5625 L 152.167969 426.460938 L 153.964844 426.746094 L 155.585938 427.570313 L 157.15625 429.414063 L 155.65625 429.589844 L 149.269531 432.308594 L 149.113281 432.746094 L 147.203125 431.632813 Z M 146.980469 429.808594 "/>
</g>
</svg>
