<?xml version="1.0" encoding="UTF-8"?>
<svg xmlns="http://www.w3.org/2000/svg" xmlns:xlink="http://www.w3.org/1999/xlink" width="378pt" height="504pt" viewBox="0 0 378 504" version="1.1">
<g id="data">
<rect x="0" y="0" width="378" height="504" style="fill:rgb(100%,100%,100%);fill-opacity:1;stroke:none;"/>
<path style=" stroke:none;fill-rule:nonzero;fill:rgb(100%,100%,100%);fill-opacity:1;" d="M 53.308594 504 L 324.691406 504 L 324.691406 0 L 53.308594 0 Z M 53.308594 504 "/>
<path style=" stroke:none;fill-rule:nonzero;fill:rgb(22.745098%,53.333333%,16.078431%);fill-opacity:1;" d="M 238.542969 431.476563 L 240.480469 430.492188 L 242.296875 429.070313 L 243.792969 427.324219 L 244.867188 425.429688 L 245.566406 423.371094 L 245.875 421.21875 L 245.773438 419.042969 L 245.230469 416.808594 L 247 420.046875 L 249.699219 422.5625 L 253.050781 424.109375 L 256.847656 424.523438 L 255.375 426.09375 L 254.160156 428.023438 L 253.34375 430.15625 L 252.96875 432.277344 L 251.269531 434.152344 L 249.964844 436.472656 L 249.09375 440.03125 L 247.5625 436.65625 L 245.144531 434.015625 L 242.042969 432.230469 Z M 245.214844 385.753906 L 245.214844 381.875 L 246.921875 384.046875 L 249.09375 385.753906 Z M 233.3125 470.992188 L 230.367188 470.398438 L 232.394531 469.453125 L 233.324219 468.777344 L 233.90625 469.542969 L 233.703125 470.496094 Z M 210.324219 467.167969 L 212.050781 468.664063 L 210.222656 468.96875 L 208.164063 468.875 L 208.113281 468.828125 Z M 195.144531 474.527344 L 195.679688 473.878906 L 195.832031 474.871094 L 196.757813 475.523438 L 196.488281 476.304688 L 195.917969 475.996094 Z M 196.824219 472.363281 L 197.96875 469.898438 L 201.195313 470.601563 L 204.488281 470.375 L 206.273438 469.710938 L 206.238281 469.769531 L 209.429688 471.089844 L 209.714844 470.9375 L 210.1875 472.128906 L 209.566406 473.890625 L 206.84375 474.453125 L 204.453125 473.097656 L 203.015625 472.699219 L 197.625 472.007813 Z M 201.632813 417.441406 L 204.296875 419.648438 L 207.492188 420.972656 L 210.933594 421.300781 L 214.199219 420.644531 L 212.425781 422.625 L 211.144531 424.957031 L 210.472656 427.269531 L 210.007813 431.058594 L 210.28125 433.597656 L 211.101563 436.015625 L 212.429688 438.191406 L 214.199219 440.03125 L 211.625 441.167969 L 209.398438 442.890625 L 207.648438 445.097656 L 206.445313 447.785156 L 203.714844 447.070313 L 200.890625 447.035156 L 198.140625 447.683594 L 195.734375 448.902344 L 192.695313 451.835938 L 190.9375 455.539063 L 191.242188 452.367188 L 190.675781 449.230469 L 189.28125 446.367188 L 187.0625 443.90625 L 189.746094 442.703125 L 192.132813 440.773438 L 193.742188 438.617188 L 194.816406 436.152344 L 196.347656 434.617188 L 197.566406 432.820313 L 198.429688 430.828125 L 198.910156 428.714844 L 198.691406 424.523438 L 200.789063 421.171875 Z M 187.0625 385.753906 L 187.0625 381.875 L 189.320313 383.84375 L 191.886719 385.128906 L 189.378906 385.195313 Z M 172.542969 238.554688 L 175.429688 238.429688 L 176.132813 239.378906 L 175.679688 239.621094 L 174.613281 239.105469 Z M 163.800781 471.046875 L 165.96875 469.339844 L 167.675781 467.167969 L 169.382813 469.339844 L 171.554688 471.046875 Z M 144.414063 482.675781 L 146.570313 482.675781 L 144.410156 482.839844 L 144.210938 482.6875 Z M 125.476563 474.921875 L 132.785156 474.921875 L 134.839844 478.535156 L 138.035156 481.191406 L 135.320313 481.621094 L 132.785156 482.675781 L 130.253906 480.941406 L 127.234375 479.902344 L 124.394531 479.726563 L 125.210938 477.886719 L 124.875 476.421875 Z M 109.523438 490.429688 L 113.472656 489.738281 L 113.398438 490.429688 Z M 109.523438 490.429688 "/>
</g>
</svg>
