<?xml version="1.0" encoding="UTF-8"?>
<svg xmlns="http://www.w3.org/2000/svg" xmlns:xlink="http://www.w3.org/1999/xlink" width="378pt" height="504pt" viewBox="0 0 378 504" version="1.1">
<g id="data">
<rect x="0" y="0" width="378" height="504" style="fill:rgb(100%,100%,100%);fill-opacity:1;stroke:none;"/>
<path style=" stroke:none;fill-rule:nonzero;fill:rgb(100%,100%,100%);fill-opacity:1;" d="M 53.308594 504 L 324.691406 504 L 324.691406 0 L 53.308594 0 Z M 53.308594 504 "/>
<path style=" stroke:none;fill-rule:nonzero;fill:rgb(22.745098%,53.333333%,16.078431%);fill-opacity:1;" d="M 160.582031 284.972656 L 164.109375 284.425781 L 167.304688 282.832031 L 169.867188 280.347656 L 171.554688 277.199219 L 171.867188 279.878906 L 172.730469 282.296875 L 174.101563 284.464844 L 174.605469 284.964844 L 172.566406 284.292969 L 169.453125 284.03125 L 168.3125 288.652344 L 166.578125 287.046875 L 163.722656 285.59375 Z M 176.34375 286.535156 L 179.640625 288.277344 L 183.183594 288.832031 L 185.617188 289.855469 L 188.21875 290.304688 L 187.179688 292.347656 L 186.5625 294.554688 L 186.425781 297.476563 L 187.0625 300.460938 L 185.925781 303.175781 L 185.503906 306.085938 L 185.859375 309.132813 L 187.0625 312.09375 L 186.394531 315.96875 L 186.828125 318.488281 L 184.742188 320.527344 L 179.332031 323.371094 L 179.464844 321.46875 L 179.1875 318.179688 L 178.015625 314.519531 L 176.167969 311.898438 L 173.785156 309.949219 L 170.851563 308.65625 L 170.054688 308.546875 L 168.867188 306.804688 L 170.300781 305.105469 L 171.695313 301.28125 L 171.863281 298.863281 L 171.46875 295.175781 L 171.300781 294.558594 L 174.074219 288.722656 Z M 186.605469 324.933594 L 187.0625 327.601563 L 187.0625 331.476563 L 186.449219 333.574219 L 186.242188 335.75 L 186.46875 338.050781 L 187.148438 340.261719 L 188.867188 343.121094 L 191.324219 345.375 L 194.816406 346.984375 L 196.488281 348.535156 L 198.429688 349.730469 L 200.449219 350.488281 L 202.570313 350.863281 L 204.496094 354.3125 L 207.359375 356.855469 L 211.015625 358.355469 L 216.859375 358.929688 L 219.648438 358.597656 L 222.273438 357.609375 L 224.488281 356.105469 L 226.902344 353.65625 L 228.34375 351.574219 L 229.265625 349.351563 L 229.808594 346.238281 L 229.808594 343.855469 L 229.398438 341.230469 L 228.628906 339.085938 L 227.382813 337.027344 L 225.832031 335.355469 L 226.105469 331.671875 L 225.15625 327.972656 L 223.800781 325.664063 L 220.761719 322.105469 L 218.078125 319.847656 L 218.382813 316.675781 L 217.773438 313.417969 L 216.347656 310.570313 L 214.199219 308.214844 L 216.277344 305.617188 L 217.566406 302.414063 L 217.863281 299.097656 L 217.167969 295.714844 L 216.023438 293.421875 L 214.5 291.523438 L 212.503906 289.917969 L 210.324219 288.832031 L 209.136719 287.601563 L 211.382813 286.816406 L 213.421875 285.589844 L 216.121094 283.359375 L 217.910156 280.957031 L 219.582031 282.542969 L 221.53125 283.769531 L 223.308594 284.441406 L 223.773438 285.027344 L 224.246094 287.023438 L 223.503906 288 L 222.3125 291.511719 L 222.285156 295.21875 L 223.429688 298.746094 L 224.679688 300.6875 L 226.289063 302.339844 L 229.707031 304.339844 L 231.648438 306.1875 L 233.957031 307.542969 L 237.910156 308.507813 L 245.214844 308.214844 L 244.910156 311.386719 L 245.476563 314.523438 L 246.945313 317.492188 L 249.09375 319.847656 L 248.949219 326.351563 L 249.777344 330.6875 L 251.734375 334.078125 L 254.675781 337.523438 L 256.847656 339.230469 L 255.863281 341.542969 L 253.664063 338.65625 L 252.601563 338.082031 L 245.550781 339.511719 L 244.589844 338.644531 L 243.40625 338.558594 L 241.210938 339.871094 L 241.886719 340.445313 L 246.324219 340.394531 L 249.617188 339.34375 L 251.976563 339.082031 L 254.382813 342.558594 L 255.488281 343.46875 L 255.390625 343.992188 L 255.464844 346.558594 L 256.101563 349.042969 L 258.285156 352.65625 L 260.722656 354.738281 L 262.699219 357.171875 L 264.601563 358.617188 L 265.320313 362.648438 L 267.3125 366.082031 L 267.777344 366.523438 L 264.953125 369.09375 L 261.394531 373.164063 L 260.601563 374.816406 L 262.84375 374.3125 L 264.9375 375.519531 L 266.9375 378.226563 L 270.21875 378.804688 L 270.625 378.746094 L 271.910156 376.796875 L 272.234375 374.960938 L 273.40625 371.914063 L 274.707031 370.632813 L 276.375 370.34375 L 278.890625 372.03125 L 282.066406 373.046875 L 284.628906 373.191406 L 287.160156 372.765625 L 289.648438 371.734375 L 290.476563 371.144531 L 292.300781 371.339844 L 293.203125 373.085938 L 295.382813 375.417969 L 299.074219 377.433594 L 301.195313 377.917969 L 303.371094 378 L 304.996094 379.773438 L 305.609375 380.828125 L 306.730469 384.164063 L 306.890625 386.660156 L 305.984375 388.964844 L 305.710938 392.273438 L 306.179688 394.917969 L 306.371094 395.359375 L 305.789063 396.917969 L 305.164063 399.925781 L 304.558594 400.886719 L 303.742188 403.015625 L 303.371094 405.136719 L 301.015625 406.148438 L 298.9375 407.644531 L 296.886719 410.097656 L 295.832031 412.417969 L 295.578125 412.011719 L 292.742188 410.515625 L 292.480469 410.636719 L 293.898438 413.703125 L 293.957031 413.792969 L 292.363281 414.660156 L 289.761719 417.464844 L 288.628906 419.980469 L 288.214844 419.332031 L 284.976563 421.730469 L 280.71875 424.230469 L 282.339844 425.378906 L 285.105469 424.398438 L 286.097656 423.375 L 286.894531 423.164063 L 287.328125 423.710938 L 287.417969 425.210938 L 285.851563 427.636719 L 284.933594 431.09375 L 284.933594 431.441406 L 283.441406 432.558594 L 282.84375 432.699219 L 279.644531 432.160156 L 274.75 433.78125 L 272.609375 436.117188 L 274.253906 436.015625 L 275.152344 434.667969 L 276.683594 434.363281 L 278.285156 434.328125 L 281.054688 434.949219 L 281.828125 435.589844 L 281.691406 436.328125 L 279.554688 436.347656 L 277.390625 437.65625 L 277.96875 438.546875 L 281.382813 438.964844 L 286.863281 440.339844 L 287.960938 440.164063 L 290.089844 442.015625 L 292.855469 443.355469 L 296.613281 444.03125 L 299.492188 443.90625 L 299.492188 447.785156 L 293.613281 447.621094 L 290.328125 447.871094 L 287.949219 448.417969 L 285.628906 449.519531 L 283.335938 451.375 L 281.582031 453.75 L 280.480469 456.488281 L 280.109375 459.414063 L 276.425781 459.796875 L 273.050781 461.316406 L 270.324219 463.816406 L 268.761719 466.648438 L 259.269531 463.777344 L 258.8125 463.738281 L 257.976563 463.441406 L 255.097656 463.132813 L 249.09375 463.292969 L 246.488281 462.695313 L 243.691406 462.726563 L 240.132813 463.730469 L 238.953125 464.453125 L 237.714844 463.296875 L 231.496094 463.171875 L 231.378906 463.496094 L 232.574219 464.835938 L 232.214844 465.75 L 231.738281 466.042969 L 226.691406 465.496094 L 219.566406 468.449219 L 217.054688 467.824219 L 210.222656 468.96875 L 208.164063 468.875 L 207.273438 468.058594 L 206.238281 469.769531 L 209.429688 471.089844 L 209.714844 470.9375 L 210.1875 472.128906 L 209.566406 473.890625 L 206.84375 474.453125 L 204.453125 473.097656 L 203.015625 472.699219 L 197.625 472.007813 L 196.175781 472.65625 L 195.679688 473.863281 L 195.832031 474.871094 L 195.90625 474.921875 L 195.351563 474.921875 L 194.851563 473.972656 L 194.074219 473.398438 L 193.863281 472.960938 L 192.5625 471.210938 L 189.222656 468.644531 L 187.199219 467.835938 L 185.058594 467.421875 L 180.859375 467.773438 L 177.808594 469.101563 L 177.125 469.660156 L 176.207031 469.78125 L 174.339844 470.335938 L 168.992188 473.234375 L 168.214844 474.070313 L 167.203125 476.179688 L 165.253906 481.886719 L 165.105469 482.078125 L 164.242188 484.1875 L 163.972656 485.636719 L 163.605469 486.707031 L 161.628906 488.261719 L 160.1875 490.097656 L 159.40625 489.945313 L 157.882813 488.507813 L 157.085938 488.050781 L 156.527344 486.851563 L 154.683594 485.4375 L 153.613281 485.542969 L 152.417969 486.300781 L 151.738281 486.164063 L 148.46875 482.535156 L 142.796875 482.960938 L 142.46875 483.066406 L 139.164063 482.527344 L 135.53125 482.824219 L 133.453125 483.40625 L 131.414063 484.425781 L 126.476563 488.53125 L 125.121094 490.25 L 124.039063 490.597656 L 123.671875 492.09375 L 122.578125 493.484375 L 121.632813 495.699219 L 121.300781 497.433594 L 120.660156 497.648438 L 120.394531 498.183594 L 118.253906 498.183594 L 117.96875 497.691406 L 118.09375 496.4375 L 117.15625 494.691406 L 115.984375 493.691406 L 112.253906 492.070313 L 111.410156 491.984375 L 110.375 492.488281 L 110.242188 494.183594 L 110.007813 494.453125 L 108.527344 494.183594 L 105.644531 494.308594 L 107.816406 492.601563 L 109.523438 490.429688 L 112.011719 489.949219 L 114.222656 489.003906 L 117.847656 486.121094 L 118.144531 485.910156 L 118.539063 485.570313 L 119.445313 484.847656 L 119.59375 484.660156 L 121.425781 483.085938 L 124.375 479.769531 L 125.210938 477.886719 L 124.875 476.421875 L 125.640625 474.519531 L 128.386719 473.238281 L 132.105469 472.640625 L 132.679688 471.785156 L 133.175781 469.847656 L 135.089844 468.640625 L 136.660156 467.167969 L 139.480469 466.988281 L 142.171875 466.132813 L 144.273438 464.890625 L 146.15625 463.136719 L 147.945313 460.324219 L 148.859375 457.117188 L 148.910156 454.417969 L 148.410156 452.191406 L 148.292969 450.386719 L 148.292969 447.785156 L 148.921875 447.269531 L 151.105469 446.613281 L 157.421875 446.269531 L 159.910156 445.683594 L 164.597656 446.761719 L 166.046875 446.148438 L 167.527344 446.515625 L 169.484375 447.285156 L 170.039063 448.109375 L 170.757813 448.421875 L 173.15625 448.464844 L 180.570313 447.503906 L 180.804688 446.691406 L 182.410156 445.945313 L 184.753906 443.945313 L 186.492188 441.402344 L 187.5 438.492188 L 187.710938 435.417969 L 187.679688 435.269531 L 190.867188 432.195313 L 195.792969 425.3125 L 197.929688 424.472656 L 198.285156 423.78125 L 198.070313 423.238281 L 197.8125 423.082031 L 196.09375 424.355469 L 192.90625 427.300781 L 190.570313 429.988281 L 189.222656 431.449219 L 187.078125 432.351563 L 187.0625 432.277344 L 188.359375 430.519531 L 189.304688 428.554688 L 189.863281 426.441406 L 190.019531 424.265625 L 189.210938 420.253906 L 187.0625 416.769531 L 188.421875 414.902344 L 189.390625 412.804688 L 189.921875 410.554688 L 189.996094 408.246094 L 189.648438 406.089844 L 188.902344 404.039063 L 187.0625 401.261719 L 185.859375 398.574219 L 184.554688 396.832031 L 182.425781 394.988281 L 179.308594 393.507813 L 177.675781 392.0625 L 175.6875 390.894531 L 172.625 389.96875 L 169.550781 389.894531 L 166.929688 390.496094 L 164.621094 391.613281 L 161.839844 394.0625 L 159.921875 397.382813 L 156.246094 398.304688 L 153.15625 400.273438 L 154.683594 398.09375 L 155.671875 395.628906 L 156.1875 392.261719 L 156.046875 389.628906 L 158.90625 390.773438 L 161.964844 391.125 L 165.128906 390.625 L 167.929688 389.347656 L 169.941406 387.753906 L 174.664063 382.710938 L 176.121094 379.851563 L 176.742188 376.578125 L 176.441406 373.382813 L 175.28125 370.390625 L 173.699219 368.207031 L 171.554688 366.371094 L 170.234375 363.742188 L 168.203125 361.441406 L 165.988281 359.929688 L 163.605469 358.996094 L 158.671875 358.230469 L 160.492188 357.457031 L 162.980469 357.320313 L 163.035156 357.363281 L 166.984375 358.777344 L 169.277344 358.921875 L 173.601563 358.550781 L 177.042969 357.582031 L 177.351563 357.386719 L 179.910156 359.441406 L 180.433594 358.429688 L 179.203125 356.210938 L 179.738281 355.871094 L 181.796875 353.542969 L 181.914063 353.875 L 182.898438 354.332031 L 184.078125 356.789063 L 185.613281 357.902344 L 188.359375 357.621094 L 190.335938 355.148438 L 189.90625 355.050781 L 188.667969 355.527344 L 188.3125 355.957031 L 186.378906 356.386719 L 183.8125 354.640625 L 182.65625 352.140625 L 185.136719 347.851563 L 186.121094 343.878906 L 186.042969 341.570313 L 185.511719 339.320313 L 185.382813 339.039063 L 185.429688 339.015625 L 185.238281 338.730469 L 184.546875 337.222656 L 183.183594 335.355469 L 183.484375 332.054688 L 183.074219 329.917969 L 184.695313 329.191406 Z M 285.851563 436.832031 L 286.429688 438.128906 L 287.253906 439.277344 L 286.679688 439.636719 L 283.058594 438.976563 L 282.164063 437.605469 L 282.484375 436.070313 Z M 237.417969 465.390625 L 237.296875 465.464844 L 236.734375 466.082031 L 235.136719 465.644531 L 236.523438 463.683594 L 237.195313 464.164063 Z M 234.148438 469.863281 L 234.066406 470.03125 L 233.269531 471.042969 L 222.371094 470.933594 L 222.296875 470.886719 L 221.992188 470.929688 L 220.433594 470.914063 L 221.476563 469.683594 L 227.316406 466.367188 L 232.550781 467.761719 Z M 151.730469 431.261719 L 151.710938 431.214844 L 150.15625 428.863281 L 151.640625 428.421875 L 152.765625 427.832031 L 153.085938 427.097656 L 152.808594 426.597656 L 147.785156 426.460938 L 143.210938 423.710938 L 139.503906 423.714844 L 136.765625 424.277344 L 136.4375 425.839844 L 136.058594 425.953125 L 133.554688 427.824219 L 132.683594 427.40625 L 132.554688 426.097656 L 131.875 423.890625 L 130.84375 421.964844 L 129.378906 420.175781 L 127.589844 418.710938 L 125.546875 417.628906 L 123.453125 417 L 121.539063 416.808594 L 121.578125 416.691406 L 123.398438 416.359375 L 125.40625 415.582031 L 127.335938 414.363281 L 128.90625 412.890625 L 131.722656 411.457031 L 133.074219 411.34375 L 134.871094 409.289063 L 135.753906 407.632813 L 137.585938 406.550781 L 141.359375 406.660156 L 142.21875 406.390625 L 144.15625 405.152344 L 145.039063 405.070313 L 147.476563 404.464844 L 149.722656 403.351563 L 147.636719 406.722656 L 146.800781 410.726563 L 147.0625 413.535156 L 148.292969 416.769531 L 148.449219 419.449219 L 149.21875 422.023438 L 150.410156 424.144531 L 152.011719 425.96875 L 153.960938 427.425781 L 156.046875 428.398438 L 156.535156 429.488281 L 155.65625 429.589844 Z M 171.554688 238.429688 L 173.828125 237.546875 L 175.867188 236.203125 L 177.582031 234.46875 L 178.898438 232.410156 L 179.753906 230.125 L 180.117188 227.710938 L 179.964844 225.273438 L 179.929688 225.152344 L 184.609375 222.886719 L 184.765625 222.757813 L 186.902344 222.53125 L 186.285156 225.402344 L 186.40625 228.339844 L 187.355469 232.257813 L 187.070313 232.078125 L 185.40625 232.042969 L 181.046875 235.800781 L 180.578125 237.003906 L 176.292969 239.292969 L 175.234375 238.8125 Z M 179.5625 223.828125 L 179.308594 222.921875 L 180.609375 223 Z M 190.859375 238.289063 L 191.832031 239.332031 L 193.992188 240.882813 L 196.207031 241.828125 L 198.679688 242.304688 L 198.726563 242.335938 L 200.570313 244.007813 L 202.886719 245.3125 L 204.949219 245.816406 L 206.488281 246.65625 L 206.488281 246.660156 L 206.761719 249.617188 L 208.074219 252.808594 L 210.648438 255.808594 L 214.199219 257.816406 L 214.574219 259.9375 L 215.390625 262.066406 L 216.605469 263.996094 L 218.078125 265.570313 L 216.574219 267.660156 L 212.527344 264.019531 L 209.652344 262.421875 L 205.699219 261.589844 L 202.570313 261.691406 L 199.910156 261.378906 L 197.371094 261.652344 L 194.957031 262.472656 L 192.777344 263.796875 L 190.9375 265.570313 L 190.9375 261.691406 L 191.636719 259.085938 L 191.710938 256.390625 L 191.039063 253.386719 L 189.601563 250.660156 L 186.78125 247.867188 L 183.183594 246.183594 L 181.417969 242.933594 L 181.171875 242.703125 L 182.921875 243.167969 L 186.398438 241.730469 L 187.519531 239.417969 L 188.617188 238.355469 L 189.539063 238.171875 Z M 175.429688 172.523438 L 175.429688 168.644531 L 177.601563 166.9375 L 178.15625 166.230469 L 178.648438 166.167969 L 179.285156 167.089844 L 180.148438 167.667969 L 180.519531 167.789063 L 177.59375 169.921875 Z M 149.871094 289.0625 L 150.324219 289.128906 L 150.183594 289.375 L 149.984375 289.230469 Z M 148.90625 291.625 L 148.292969 292.707031 L 148.292969 290.210938 L 148.375 290.554688 Z M 148.90625 291.625 "/>
</g>
</svg>
