<?xml version="1.0" encoding="UTF-8"?>
<svg xmlns="http://www.w3.org/2000/svg" xmlns:xlink="http://www.w3.org/1999/xlink" width="378pt" height="504pt" viewBox="0 0 378 504" version="1.1">
<g id="data">
<rect x="0" y="0" width="378" height="504" style="fill:rgb(100%,100%,100%);fill-opacity:1;stroke:none;"/>
<path style=" stroke:none;fill-rule:nonzero;fill:rgb(100%,100%,100%);fill-opacity:1;" d="M 53.308594 504 L 324.691406 504 L 324.691406 0 L 53.308594 0 Z M 53.308594 504 "/>
<path style=" stroke:none;fill-rule:nonzero;fill:rgb(22.745098%,53.333333%,16.078431%);fill-opacity:1;" d="M 196.199219 98.308594 L 195.375 100.007813 L 195.167969 101.128906 L 194.695313 101.191406 L 193.226563 103.421875 L 193.136719 102.113281 L 195.332031 98.847656 L 196.15625 98.316406 Z M 188.601563 111.988281 L 187.480469 114.484375 L 186.777344 113.90625 L 184.832031 114.03125 L 181.886719 115.097656 L 179.417969 113.332031 L 179.308594 106.617188 L 181.464844 104.882813 L 181.753906 104.792969 L 184.519531 106.003906 L 186.230469 108.273438 L 187.324219 111.371094 Z M 186.910156 118.40625 L 185.589844 119.816406 L 185.53125 119.90625 L 185.203125 119.125 L 185.941406 118.488281 Z M 182.769531 126.359375 L 180.660156 128.175781 L 178.804688 131.097656 L 178.007813 133.671875 L 177.824219 136.363281 L 178.265625 139.023438 L 179.308594 141.507813 L 177.066406 142.453125 L 175.167969 143.761719 L 173.5625 145.417969 L 172.320313 147.359375 L 171.726563 148.890625 L 162.601563 156.074219 L 162.234375 157.082031 L 162.671875 158.175781 L 162.078125 159.632813 L 159.644531 160.289063 L 156.839844 159.359375 L 153.464844 157.734375 L 154.464844 159.796875 L 155.875 160.457031 L 161.363281 161.917969 L 164.042969 162.292969 L 165.242188 161.992188 L 166.015625 161.605469 L 166.75 160.257813 L 167.589844 160.183594 L 167.507813 160.828125 L 166.417969 162.609375 L 162.722656 166.96875 L 162.175781 167.183594 L 161.726563 166.894531 L 161.859375 165.949219 L 161.53125 165.507813 L 159.984375 165.785156 L 155.320313 167.769531 L 152.441406 170.8125 L 151.949219 171.945313 L 152.140625 172.144531 L 156.390625 168.453125 L 157.75 167.980469 L 160.300781 168.324219 L 161.058594 169.320313 L 157.109375 173.804688 L 156.367188 175.339844 L 156.707031 175.816406 L 157.367188 175.984375 L 158.261719 175.542969 L 161.140625 173.015625 L 167.808594 170.273438 L 170.480469 169.527344 L 170.492188 169.949219 L 171.554688 169.839844 L 173.589844 168.316406 L 174.046875 166.78125 L 178.648438 166.167969 L 179.285156 167.089844 L 180.148438 167.667969 L 184.320313 169.011719 L 185.527344 168.335938 L 188.433594 168.796875 L 194.816406 168.644531 L 198.4375 169.308594 L 200.566406 168.96875 L 203.683594 168.921875 L 204.792969 169.195313 L 207.082031 169.292969 L 210.011719 168.707031 L 210.3125 168.835938 L 210.375 168.949219 L 210.695313 170.769531 L 211.511719 172.898438 L 212.726563 174.828125 L 213.347656 175.488281 L 213.671875 176.582031 L 213.671875 176.648438 L 212.113281 177.375 L 210.261719 178.742188 L 208.710938 180.449219 L 207.53125 182.425781 L 206.460938 186.492188 L 206.449219 193.75 L 206.226563 194.742188 L 204.976563 196.992188 L 203.929688 197.855469 L 200.058594 202.824219 L 198.796875 206.535156 L 198.617188 208.253906 L 197.078125 210.023438 L 197.433594 210.839844 L 197.785156 210.703125 L 197.761719 211.238281 L 197.226563 212.980469 L 196.703125 213.585938 L 195.402344 216.292969 L 191.214844 219.742188 L 185.519531 221.085938 L 182.847656 221.226563 L 177.804688 225.21875 L 178.117188 225.714844 L 179.84375 225.195313 L 184.609375 222.886719 L 186.457031 221.386719 L 187.289063 221.316406 L 189.085938 221.875 L 189.332031 222.921875 L 188.898438 224.691406 L 189.238281 225.953125 L 190.898438 226.824219 L 192.988281 227.191406 L 194.445313 228.726563 L 194.429688 229.304688 L 192.117188 231.570313 L 189.460938 232.730469 L 188.34375 232.882813 L 187.070313 232.078125 L 185.40625 232.042969 L 181.046875 235.800781 L 180.578125 237.003906 L 174.761719 240.109375 L 170.214844 238.117188 L 166.480469 238.003906 L 166.738281 239.222656 L 168.246094 240.195313 L 178.0625 241.875 L 182.921875 243.167969 L 186.398438 241.730469 L 187.519531 239.417969 L 188.617188 238.355469 L 189.539063 238.171875 L 193.183594 238.5 L 199.339844 242.761719 L 206.488281 246.65625 L 208.910156 251.429688 L 212.824219 256.707031 L 213.265625 256.828125 L 213.433594 256.585938 L 214.601563 257.097656 L 217.371094 258.992188 L 218.023438 261.039063 L 217.914063 267.570313 L 218.183594 270.328125 L 219.441406 274.035156 L 219.738281 274.410156 L 220.40625 277.574219 L 221.269531 280.457031 L 221.878906 281.726563 L 221.839844 284.082031 L 222.261719 286.828125 L 223.085938 289.089844 L 224.28125 291.035156 L 225.5625 292.5625 L 225.945313 294.183594 L 229.304688 299.0625 L 234.753906 301.605469 L 234.859375 301.695313 L 237.894531 303.515625 L 239.851563 303.984375 L 241.417969 304.714844 L 241.9375 307.1875 L 243.226563 309.796875 L 246.746094 314.082031 L 249.09375 315.96875 L 249.5 318.214844 L 250.28125 320.222656 L 251.496094 322.152344 L 252.96875 323.722656 L 253.257813 327.03125 L 254.46875 330.125 L 255.816406 331.730469 L 256.160156 332.453125 L 263.316406 342.46875 L 263.640625 343.980469 L 262.804688 345.191406 L 263.28125 343.65625 L 262.507813 342.839844 L 260.445313 342 L 258.378906 342.789063 L 257.507813 342.753906 L 256.035156 341.773438 L 253.664063 338.65625 L 252.601563 338.082031 L 245.550781 339.511719 L 244.589844 338.644531 L 243.40625 338.558594 L 241.210938 339.871094 L 241.886719 340.445313 L 246.324219 340.394531 L 249.617188 339.34375 L 251.976563 339.082031 L 254.382813 342.558594 L 260.535156 347.621094 L 263.042969 349.058594 L 263.664063 349.039063 L 264.472656 350.117188 L 264.601563 350.863281 L 264.285156 353.523438 L 264.617188 356.308594 L 265.917969 359.492188 L 268.476563 362.492188 L 269.335938 364.117188 L 269.210938 365.21875 L 264.953125 369.09375 L 261.394531 373.164063 L 260.601563 374.816406 L 262.84375 374.3125 L 264.9375 375.519531 L 266.9375 378.226563 L 270.21875 378.804688 L 270.625 378.746094 L 271.910156 376.796875 L 272.234375 374.960938 L 273.40625 371.914063 L 274.707031 370.632813 L 277.761719 370.101563 L 283.730469 370.910156 L 284.203125 370.832031 L 284.253906 370.867188 L 286.703125 370.742188 L 292.648438 371.378906 L 293.625 372.59375 L 297.910156 376.113281 L 300.519531 377.402344 L 303.371094 378 L 303.777344 380.242188 L 304.558594 382.25 L 305.773438 384.183594 L 306.804688 385.28125 L 307.179688 391.25 L 306.777344 393.191406 L 306.882813 393.925781 L 305.257813 395.800781 L 303.925781 398.53125 L 303.246094 402.257813 L 303.371094 405.136719 L 301.5625 406.496094 L 299.492188 409.015625 L 297.234375 410.8125 L 295.863281 412.46875 L 295.578125 412.011719 L 292.742188 410.515625 L 292.480469 410.636719 L 293.898438 413.703125 L 294.320313 414.328125 L 293.695313 415.082031 L 292.335938 417.796875 L 291.738281 420.644531 L 291 421.488281 L 290.003906 421.65625 L 289.660156 421.574219 L 288.214844 419.332031 L 284.976563 421.730469 L 280.71875 424.230469 L 282.339844 425.378906 L 285.105469 424.398438 L 286.097656 423.375 L 286.894531 423.164063 L 287.328125 423.710938 L 287.632813 428.84375 L 285.6875 430.875 L 283.441406 432.558594 L 282.84375 432.699219 L 279.644531 432.160156 L 274.75 433.78125 L 272.609375 436.117188 L 274.253906 436.015625 L 275.152344 434.667969 L 276.683594 434.363281 L 278.285156 434.328125 L 281.054688 434.949219 L 281.828125 435.589844 L 281.691406 436.328125 L 279.554688 436.347656 L 277.390625 437.65625 L 277.96875 438.546875 L 281.382813 438.964844 L 286.863281 440.339844 L 289.394531 439.9375 L 291.074219 438.957031 L 293.109375 438.675781 L 293.652344 439.078125 L 295.617188 440.03125 L 297.320313 442.199219 L 299.492188 443.90625 L 299.492188 447.785156 L 297.320313 449.492188 L 296.707031 450.273438 L 295.839844 450.375 L 292.621094 451.640625 L 291.179688 452.742188 L 289.847656 454.226563 L 289.460938 455.09375 L 289.214844 456.324219 L 289.242188 456.503906 L 289.066406 456.730469 L 288.492188 458.007813 L 286.253906 458.289063 L 284.1875 457.9375 L 282.140625 459.871094 L 280.660156 460.191406 L 278.316406 461.445313 L 277.515625 462.152344 L 274.789063 462.777344 L 272.597656 463.816406 L 272.101563 464.484375 L 271.417969 464.78125 L 269.023438 466.726563 L 267.503906 466.269531 L 266.804688 465.617188 L 264.746094 464.371094 L 262.597656 463.601563 L 259.976563 463.191406 L 249.09375 463.292969 L 246.867188 462.746094 L 244.707031 462.636719 L 238.441406 463.976563 L 237.714844 463.296875 L 231.496094 463.171875 L 231.378906 463.496094 L 232.574219 464.835938 L 232.214844 465.75 L 231.738281 466.042969 L 226.691406 465.496094 L 219.566406 468.449219 L 217.054688 467.824219 L 210.222656 468.96875 L 208.164063 468.875 L 207.273438 468.058594 L 206.238281 469.769531 L 209.429688 471.089844 L 209.714844 470.9375 L 210.1875 472.128906 L 209.566406 473.890625 L 206.84375 474.453125 L 204.453125 473.097656 L 203.015625 472.699219 L 197.625 472.007813 L 196.175781 472.65625 L 195.679688 473.863281 L 195.832031 474.871094 L 196.757813 475.523438 L 196.488281 476.304688 L 195.917969 475.996094 L 194.851563 473.972656 L 190.289063 470.589844 L 185.898438 468.519531 L 183.121094 467.984375 L 181.648438 469.066406 L 176.207031 469.78125 L 174.339844 470.335938 L 168.992188 473.234375 L 168.214844 474.070313 L 167.761719 475.011719 L 165.902344 476.902344 L 164.722656 479 L 164.023438 481.171875 L 163.644531 484.175781 L 163.777344 486.207031 L 163.605469 486.707031 L 161.628906 488.261719 L 160.1875 490.097656 L 158.269531 489.722656 L 157.554688 489.058594 L 156.527344 486.851563 L 154.683594 485.4375 L 153.613281 485.542969 L 153.09375 485.871094 L 153.078125 485.847656 L 150.925781 484.238281 L 149.417969 483.589844 L 148.46875 482.535156 L 145.152344 482.785156 L 142.664063 482.515625 L 133.980469 482.835938 L 130.148438 484.238281 L 127.039063 486.878906 L 125.132813 490.246094 L 124.039063 490.597656 L 123.648438 492.191406 L 122.457031 493.707031 L 121.597656 495.820313 L 121.292969 497.433594 L 120.660156 497.648438 L 120.394531 498.183594 L 118.253906 498.183594 L 117.96875 497.691406 L 118.09375 496.4375 L 117.15625 494.691406 L 115.984375 493.691406 L 112.253906 492.070313 L 111.410156 491.984375 L 110.375 492.488281 L 110.242188 494.183594 L 110.007813 494.453125 L 108.652344 494.195313 L 105.644531 494.308594 L 105.441406 494.210938 L 105.628906 491.574219 L 106.074219 490.5625 L 106.886719 490.203125 L 107.890625 490.023438 L 109.898438 489.242188 L 111.746094 488.078125 L 112.199219 488.253906 L 112.445313 488.9375 L 113.574219 489.15625 L 118.144531 485.910156 L 121.425781 483.085938 L 124.375 479.769531 L 125.210938 477.886719 L 124.875 476.421875 L 125.640625 474.519531 L 128.386719 473.238281 L 132.105469 472.640625 L 132.679688 471.785156 L 133.203125 469.742188 L 135.863281 467.984375 L 138.054688 465.695313 L 139.40625 463.554688 L 140.289063 461.042969 L 140.6875 458.042969 L 140.445313 454.839844 L 142.492188 455.105469 L 144.269531 456.015625 L 145.761719 455.429688 L 148.429688 452.488281 L 148.105469 447.519531 L 151.105469 446.613281 L 157.421875 446.269531 L 159.910156 445.683594 L 164.597656 446.761719 L 166.046875 446.148438 L 167.527344 446.515625 L 169.484375 447.285156 L 170.039063 448.109375 L 170.757813 448.421875 L 173.15625 448.464844 L 180.570313 447.503906 L 181.109375 445.632813 L 181.210938 443.15625 L 182.519531 440.25 L 190.867188 432.195313 L 195.792969 425.3125 L 197.929688 424.472656 L 198.285156 423.78125 L 198.070313 423.238281 L 197.8125 423.082031 L 196.09375 424.355469 L 192.90625 427.300781 L 190.570313 429.988281 L 189.222656 431.449219 L 185.628906 432.957031 L 183.714844 433.246094 L 182.441406 433.0625 L 178.394531 435.230469 L 177.398438 436.808594 L 177.039063 438.671875 L 176.445313 439.273438 L 174.058594 439.917969 L 170.558594 439.851563 L 166.820313 439 L 166.347656 438.652344 L 161.371094 433.375 L 159.03125 429.199219 L 155.65625 429.589844 L 149.269531 432.308594 L 149.113281 432.746094 L 147.203125 431.632813 L 146.917969 429.308594 L 148.539063 428.378906 L 150.066406 428.890625 L 151.640625 428.421875 L 152.765625 427.832031 L 153.085938 427.097656 L 152.808594 426.597656 L 147.785156 426.460938 L 143.210938 423.710938 L 139.503906 423.714844 L 136.765625 424.277344 L 136.292969 426.515625 L 135.777344 427.203125 L 133.742188 427.917969 L 132.394531 427.265625 L 131.648438 427.453125 L 130.261719 428.664063 L 128.90625 428.398438 L 127.121094 426.78125 L 127.425781 426.082031 L 128.796875 425.832031 L 131.792969 424.328125 L 131.226563 422.867188 L 130.640625 424.257813 L 127.769531 424.613281 L 122.949219 424.152344 L 121.496094 423.164063 L 124.125 421.78125 L 125.167969 421.753906 L 125.464844 421.238281 L 124.929688 417.953125 L 123.328125 417.210938 L 121.445313 417.105469 L 121.753906 416.128906 L 122.625 415.195313 L 122.894531 414.769531 L 125.933594 413.378906 L 126.539063 411.90625 L 133.074219 411.34375 L 134.871094 409.289063 L 135.753906 407.632813 L 137.585938 406.550781 L 141.359375 406.660156 L 142.21875 406.390625 L 149.359375 401.828125 L 152.136719 398.207031 L 153.054688 396.195313 L 154.199219 391.746094 L 153.734375 388.820313 L 152.566406 386.542969 L 153.179688 384.597656 L 154.652344 381.796875 L 152.269531 378.203125 L 152.683594 374.835938 L 153.175781 374.082031 L 152.804688 373.207031 L 150.203125 373.105469 L 145.449219 374.257813 L 143.757813 375.484375 L 142.039063 378.097656 L 141.960938 378.101563 L 139.039063 377.84375 L 136.660156 378 L 136.660156 377.304688 L 137.339844 376.066406 L 140.148438 373.019531 L 141.023438 372.414063 L 142.589844 371.953125 L 147.132813 367.984375 L 147.953125 364.523438 L 151.550781 360.582031 L 153.09375 359.609375 L 154.941406 359.808594 L 160.492188 357.457031 L 163.644531 357.28125 L 167.339844 357.714844 L 172.597656 355.179688 L 173.933594 355.046875 L 174.484375 355.082031 L 179.910156 359.441406 L 180.433594 358.429688 L 177.679688 353.460938 L 178.242188 352.835938 L 180.867188 352.449219 L 181.503906 352.695313 L 181.914063 353.875 L 182.898438 354.332031 L 184.078125 356.789063 L 185.613281 357.902344 L 188.359375 357.621094 L 190.335938 355.148438 L 189.90625 355.050781 L 188.667969 355.527344 L 188.3125 355.957031 L 186.378906 356.386719 L 183.8125 354.640625 L 179.976563 346.332031 L 180.058594 346.183594 L 180.78125 345.414063 L 181.996094 343.480469 L 182.84375 341.230469 L 182.851563 341.1875 L 183.371094 340.257813 L 185.429688 339.015625 L 185.140625 338.578125 L 183.253906 338.488281 L 183.179688 333.945313 L 182.449219 330.574219 L 182.28125 330.273438 L 184.695313 329.191406 L 187.28125 323.421875 L 187.71875 320.933594 L 187.855469 317.484375 L 184.742188 320.527344 L 179.199219 323.441406 L 177.335938 322.691406 L 175.308594 319.179688 L 175.179688 318.21875 L 174.457031 316.054688 L 173.253906 313.96875 L 172.527344 313.15625 L 172.289063 311.832031 L 167.40625 304.652344 L 169.164063 299.058594 L 174.074219 288.722656 L 176.464844 286.417969 L 178.757813 285.980469 L 180.191406 286.804688 L 181.015625 286.710938 L 182.933594 286.238281 L 183.03125 285.160156 L 182.34375 284.746094 L 180.035156 285.351563 L 174.65625 284.980469 L 172.566406 284.292969 L 169.453125 284.03125 L 168.226563 288.992188 L 166.234375 288.695313 L 163.3125 290.011719 L 161.832031 291.855469 L 159.410156 293.515625 L 156.15625 293.3125 L 155.160156 292.984375 L 149.984375 289.230469 L 149.214844 288.042969 L 149.230469 287.167969 L 148.945313 287.023438 L 148.15625 288.078125 L 147.988281 288.910156 L 148.375 290.554688 L 149.574219 292.960938 L 149.839844 295.726563 L 149.308594 296.871094 L 148.746094 297.058594 L 146.453125 296.054688 L 144.667969 292.929688 L 141.417969 290.257813 L 139.246094 289.5 L 138.398438 288.636719 L 137.464844 288.296875 L 136.6875 288.847656 L 135.039063 288.671875 L 132.785156 288.832031 L 132.785156 284.953125 L 134.484375 283.078125 L 135.742188 280.875 L 136.464844 278.582031 L 136.820313 275.574219 L 136.746094 274.007813 L 137.757813 273.035156 L 138.601563 268.871094 L 140.917969 265.085938 L 143.644531 263.800781 L 144.390625 261.886719 L 144.195313 260.621094 L 142.601563 256.71875 L 139.777344 254.832031 L 137.378906 252.511719 L 138.6875 242.234375 L 140.710938 241.59375 L 142.886719 242.511719 L 146.15625 243.175781 L 148.300781 243.253906 L 141.261719 240.453125 L 140.441406 240.5625 L 139.386719 240.085938 L 139.183594 238.121094 L 139.414063 236.460938 L 140.238281 234.648438 L 139.292969 234.9375 L 138.320313 240.257813 L 136.15625 245.152344 L 135.023438 244.945313 L 131.566406 242.222656 L 130.757813 242.5 L 130.269531 243.347656 L 130.09375 244.535156 L 130.664063 246.308594 L 130.519531 246.613281 L 128.257813 245.464844 L 127.46875 243.074219 L 128.453125 238.691406 L 131.230469 234.078125 L 136.953125 229.316406 L 138.316406 227.601563 L 135.558594 229.292969 L 130.363281 233.964844 L 126.449219 238.917969 L 125.671875 238.734375 L 125.460938 238.363281 L 126.1875 249.699219 L 124.449219 251.558594 L 123.367188 254.191406 L 122 260.308594 L 121.113281 260.304688 L 117.34375 261.667969 L 117.992188 256.269531 L 120.664063 249.058594 L 119.164063 246.890625 L 119.359375 242.367188 L 121.945313 238.054688 L 122.191406 237.09375 L 120.824219 237.742188 L 119.636719 239.75 L 119.449219 238.929688 L 123.929688 230.9375 L 123.671875 230.734375 L 122.386719 231.796875 L 121.808594 231.777344 L 122.070313 227.40625 L 122.761719 224.691406 L 124.160156 221.96875 L 126.660156 220.210938 L 128.792969 220.179688 L 129.328125 220.484375 L 131.4375 220.320313 L 134.28125 217.339844 L 135.300781 215.007813 L 134.855469 215.347656 L 134.105469 217.117188 L 131.898438 219.546875 L 131.125 219.644531 L 127.28125 218.265625 L 127.882813 216.460938 L 128.195313 216.742188 L 128.945313 216.671875 L 131.070313 215.113281 L 129.507813 214.882813 L 128.550781 215.441406 L 127.980469 214.949219 L 127.875 213.785156 L 129.65625 210.6875 L 134.21875 205.03125 L 134.59375 204.003906 L 123.476563 215.398438 L 120.675781 217.269531 L 120.230469 216.390625 L 115.878906 214.433594 L 114.8125 213.664063 L 113.113281 211.414063 L 113.132813 210.632813 L 113.96875 210.082031 L 116.167969 209.980469 L 120.585938 209.09375 L 123.988281 209.15625 L 124.257813 209.050781 L 124.117188 208.789063 L 119.15625 207.757813 L 117.03125 209.015625 L 115.34375 209.1875 L 108.898438 208.554688 L 108.144531 207.871094 L 107.96875 206.789063 L 109.109375 205.527344 L 114.792969 204.496094 L 115.882813 205.636719 L 117.070313 206.34375 L 118.480469 204.378906 L 117.316406 203.507813 L 117.253906 202.640625 L 119.675781 202.136719 L 120.503906 202.316406 L 121.824219 201.292969 L 121.664063 200.792969 L 120.140625 199.953125 L 116.804688 200.417969 L 115.804688 199.949219 L 118.136719 195.441406 L 118.195313 195.628906 L 119.613281 198.058594 L 121.574219 200.078125 L 123.621094 201.398438 L 126.015625 202.296875 L 128.425781 202.644531 L 130.855469 202.484375 L 133.074219 201.867188 L 135.132813 200.828125 L 138 198.664063 L 139.671875 196.886719 L 141.285156 193.96875 L 142.003906 190.714844 L 141.769531 187.386719 L 140.539063 184.152344 L 144.089844 182.144531 L 146.730469 179.035156 L 148.109375 175.328125 L 148.207031 171.109375 L 147 167.195313 L 144.417969 163.855469 L 140.8125 161.660156 L 136.660156 160.890625 L 136.289063 158.769531 L 136.105469 158.300781 L 136.507813 158.589844 L 137.039063 159.417969 L 137.175781 158.679688 L 135.242188 155.121094 L 133.699219 154.117188 L 132.785156 153.136719 L 133.429688 149.375 L 133.449219 149.351563 L 133.714844 146.386719 L 133.191406 146.265625 L 132.804688 145.5 L 132.785156 145.382813 L 132.785156 141.679688 L 135.539063 142.054688 L 138.566406 141.597656 L 137.367188 140.554688 L 136.488281 138.0625 L 138.433594 135.792969 L 139.648438 133.84375 L 140.785156 129.9375 L 140.585938 126.746094 L 140.8125 126.332031 L 142.335938 128.175781 L 144.601563 129.859375 L 147.210938 130.941406 L 147.820313 131.035156 L 145.957031 133.847656 L 146.042969 134.238281 L 149.242188 131.25 L 150 131.367188 L 153.1875 131.019531 L 154.628906 130.441406 L 157.023438 130.710938 L 160.773438 130.046875 L 163.164063 130.523438 L 165.703125 130.386719 L 171.464844 129.242188 L 173.457031 128.339844 L 173.9375 128 L 177.664063 128.609375 L 178 127.714844 L 177.503906 127.214844 L 177.972656 125.796875 Z M 237.257813 464.503906 L 235.238281 465.671875 L 235.136719 465.644531 L 236.523438 463.683594 L 237.195313 464.164063 Z M 232.789063 468.074219 L 232.035156 468.84375 L 230.4375 471.714844 L 229.851563 474.289063 L 228.117188 474.644531 L 222.296875 470.886719 L 220.207031 471.1875 L 221.476563 469.683594 L 227.316406 466.367188 L 232.550781 467.761719 Z M 143.945313 361.117188 L 143.582031 359.433594 L 142.347656 356.898438 L 142.078125 356.578125 L 142.203125 353.429688 L 142.707031 353.03125 L 143.882813 351.535156 L 144.664063 351.183594 L 144.675781 351.183594 L 146.027344 352.859375 L 148.039063 354.457031 L 150.351563 355.570313 L 152.980469 356.167969 L 153.726563 356.132813 L 155.546875 356.503906 L 154.066406 358.859375 L 150.984375 360.816406 L 147.425781 363.976563 L 146.109375 363.875 L 144.195313 361.613281 Z M 149.746094 311.402344 L 149.0625 312.605469 L 148.191406 316.714844 L 148.214844 317.421875 L 147.847656 318.148438 L 145.464844 320.492188 L 144.039063 321.035156 L 142.109375 322.25 L 141.417969 322.898438 L 139.824219 322.464844 L 137.933594 323.433594 L 137.675781 322.921875 L 137.972656 322.050781 L 139.234375 320.445313 L 140.128906 318.214844 L 140.496094 316.203125 L 142.300781 315.023438 L 144.765625 310.230469 L 145.863281 309.40625 L 149.046875 308.269531 Z M 131.988281 263.515625 L 130.433594 262.355469 L 127.289063 260.917969 L 126.371094 260.65625 L 125.375 256.128906 L 125.988281 253.21875 L 128.179688 251.246094 L 129.539063 251.441406 L 131.390625 253.015625 L 132.984375 258.382813 L 133.019531 262.765625 L 132.308594 263.453125 Z M 107.328125 254.113281 L 105.644531 253.9375 L 105.273438 251.816406 L 104.457031 249.6875 L 104.382813 249.570313 L 104.988281 247.472656 L 102.980469 247.105469 L 102.847656 247.335938 L 101.769531 246.183594 L 101.769531 243.429688 L 102.445313 243.214844 L 103.882813 243.558594 L 106.871094 241.457031 L 108.433594 240.808594 L 108.667969 241.335938 L 108.480469 243.175781 L 108.777344 246.292969 L 109.046875 247.320313 L 109.929688 248.226563 L 110.335938 251.851563 L 108.992188 253.109375 Z M 102.839844 224.179688 L 102.355469 223.613281 L 102.589844 223.230469 L 103.304688 222.808594 L 103.460938 223.023438 Z M 98.894531 212.34375 L 97.890625 211.292969 L 99.605469 210.019531 L 101.058594 208.453125 L 101.414063 207.957031 L 102.617188 207.75 L 102.652344 208.195313 L 101.386719 210.445313 L 99.425781 212.117188 Z M 101.855469 192.03125 L 101.769531 191.90625 L 102.359375 191.628906 L 102.835938 191.832031 Z M 107.273438 187.769531 L 107.550781 187.441406 L 108.695313 185.292969 L 109.515625 181.6875 L 109.523438 172.523438 L 111.410156 174.871094 L 112.097656 175.433594 L 111.832031 177.386719 L 112.054688 181.640625 L 117.5 184.859375 L 117.914063 184.679688 L 117.183594 186.960938 L 116.964844 189.503906 L 117.269531 191.792969 L 116.035156 193.449219 L 114.023438 194.042969 L 113.570313 192.609375 L 115.183594 189.4375 L 113.980469 187.324219 L 112.75 189.558594 L 110.542969 187.414063 L 107.277344 187.777344 Z M 113.605469 176.675781 L 115.546875 178.269531 L 115.367188 179.941406 L 114.945313 180.566406 L 113.875 180.957031 L 113.53125 180.855469 L 113.277344 179.863281 Z M 119.808594 179.992188 L 121.152344 180.277344 L 120.941406 180.5 L 120.484375 180.664063 Z M 179.082031 120.488281 L 179.46875 116.496094 L 179.445313 115.019531 L 181.269531 116.636719 L 182.96875 119.6875 L 182.941406 120.441406 L 180.816406 120.886719 L 179.261719 120.746094 Z M 185.839844 99.09375 L 186.460938 97.832031 L 186.507813 97.613281 L 188.613281 98.375 L 189.644531 99.757813 L 189.558594 100.558594 L 189.007813 101.453125 L 189.121094 100.265625 L 187.730469 99.058594 L 186.953125 98.894531 L 186.835938 99.515625 L 186.335938 100.011719 Z M 233.585938 36.832031 L 233.585938 36.976563 L 233.101563 38.984375 L 230.96875 38.972656 L 230.324219 38.394531 L 230.5625 36.15625 L 231.878906 35.125 L 233.585938 32.953125 Z M 228.023438 54.371094 L 227.445313 55.0625 L 226.730469 56.792969 L 226.355469 57.007813 L 225.6875 56.476563 L 226.023438 58.453125 L 226.074219 58.589844 L 225.171875 63.585938 L 225.300781 65.746094 L 225.320313 65.824219 L 225.265625 67.207031 L 225.109375 68.414063 L 223.660156 69.554688 L 222.132813 71.496094 L 222.910156 68.203125 L 223.429688 67.644531 L 224.308594 63.570313 L 223.632813 57.773438 L 221.078125 57.210938 L 222.089844 58.292969 L 222.21875 59.898438 L 220.292969 61.703125 L 218.738281 60.40625 L 218.746094 59.554688 L 218.628906 59.507813 L 219.550781 58.519531 L 220.980469 56.132813 L 221.675781 54.089844 L 221.71875 53.859375 L 222.421875 53.527344 L 222.960938 52.8125 L 222.175781 51.519531 L 222.574219 49.480469 L 222.519531 46.9375 L 221.953125 44.585938 L 223.492188 43.90625 L 223.417969 46.992188 L 223.628906 47.851563 L 228.960938 48.949219 Z M 225.871094 42.410156 L 226.757813 41.722656 L 228.503906 39.515625 L 229.640625 36.984375 L 229.761719 37.023438 L 229.984375 39.984375 L 229.175781 46.582031 L 227.496094 47.179688 L 226.742188 47.023438 L 226.078125 45.398438 Z M 101.769531 141.507813 L 99.621094 144.992188 L 98.808594 149.003906 L 99.320313 152.683594 L 100.34375 155.039063 L 101.179688 156.195313 L 99.996094 157.636719 L 98.4375 157.425781 L 95.394531 157.828125 L 92.5625 159.011719 L 91.671875 159.699219 L 90.550781 158.175781 L 90.507813 157.148438 L 91.820313 157.980469 L 97.480469 154.929688 L 96.453125 153.484375 L 95.234375 152.652344 L 94.117188 152.148438 L 92.941406 152.324219 L 92.058594 151.863281 L 91.273438 150.875 L 92.699219 149.40625 L 91.519531 144.75 L 91.753906 144.230469 L 94.015625 141.507813 L 96.296875 141.898438 L 95.960938 142.378906 L 97.386719 146.128906 L 97.359375 142.890625 L 98.964844 142.257813 L 100.179688 142.804688 L 100.34375 142.296875 L 100.117188 141.792969 Z M 99.175781 141.953125 L 99.230469 141.941406 L 99.230469 141.953125 Z M 88.945313 499.121094 L 88.542969 499.441406 L 88.566406 499.308594 L 88.941406 499.117188 Z M 86.261719 172.523438 L 86.261719 175.554688 L 85.394531 175.835938 L 84.664063 175.632813 L 84.011719 174.414063 L 82.789063 172.992188 L 82.824219 172.589844 L 83.972656 171.789063 L 86.246094 172.417969 Z M 85.382813 176.683594 L 85.246094 176.726563 L 85.089844 176.433594 L 85.28125 176.539063 Z M 84.875 171.109375 L 85.964844 170.492188 L 86.078125 171.261719 L 84.875 171.125 Z M 286.679688 439.636719 L 283.058594 438.976563 L 282.164063 437.605469 L 282.484375 436.070313 L 286.839844 437.054688 L 287.960938 438.832031 Z M 91.824219 155.515625 L 91.882813 154.726563 L 92.882813 153.957031 L 93.789063 153.890625 L 93.378906 155.476563 Z M 116.207031 183.113281 L 115.0625 182.589844 L 114.59375 181.914063 L 114.695313 181.441406 L 115.34375 181.214844 L 116.664063 181.757813 L 116.886719 182.648438 Z M 106.597656 197.398438 L 105.582031 196.804688 L 103.613281 194.261719 L 105.34375 192.390625 L 106.722656 192.214844 L 107.992188 192.835938 L 108.445313 193.703125 L 108.09375 196.351563 L 107.546875 197.015625 Z M 110.160156 200.433594 L 108.972656 199.578125 L 108.9375 198.890625 L 110.578125 197.179688 L 111.398438 197.769531 L 111.5 198.265625 L 111.128906 199.855469 Z M 110.59375 209.929688 L 111.976563 210.636719 L 113.289063 212.988281 L 113.785156 214.699219 L 116.457031 215.945313 L 117.929688 216.300781 L 121.195313 219.144531 L 120.902344 221.207031 L 119.445313 223.339844 L 116.335938 225.03125 L 115.453125 224.539063 L 116.136719 223.339844 L 115.425781 223.117188 L 112.109375 224.96875 L 106.027344 226.585938 L 104.691406 226.273438 L 103.734375 224.277344 L 103.851563 223.371094 L 104.191406 223.09375 L 105.628906 223.050781 L 106.039063 223.617188 L 106.972656 224.074219 L 112.214844 222.164063 L 112.035156 221.589844 L 109.863281 222.445313 L 108.199219 222.488281 L 107.824219 221.539063 L 109.386719 219.472656 L 112.601563 217.957031 L 112.90625 216.820313 L 112.554688 216.699219 L 109.90625 217.519531 L 105.058594 214.074219 L 105.636719 211.667969 L 108.914063 210.140625 L 110.03125 209.789063 Z M 108.136719 218.074219 L 107.207031 217.691406 L 106.753906 217.160156 L 107.335938 216.378906 L 108.085938 216.507813 L 109.105469 217.519531 L 109.070313 217.820313 Z M 123.378906 222.417969 L 122.582031 222.078125 L 123.082031 221.191406 L 124.476563 221.046875 Z M 121.453125 227.109375 L 121.152344 226.972656 L 120.984375 225.621094 L 121.59375 224.800781 L 122.367188 224.816406 L 121.953125 226.621094 Z M 120.902344 230.566406 L 120.316406 229.273438 L 120.976563 227.386719 L 121.816406 227.683594 Z M 118.503906 231.671875 L 118.15625 231.449219 L 118.535156 230.824219 L 119.917969 230.164063 L 119.953125 231.257813 Z M 111.886719 247.292969 L 110.550781 247.070313 L 109.476563 246.144531 L 109.292969 243.285156 L 109.585938 242.089844 L 112.5625 237.15625 L 116.605469 233.660156 L 119.195313 232.023438 L 119.632813 233.128906 L 119.449219 233.945313 L 118.015625 235.730469 L 113.761719 243.328125 Z M 106.976563 236.632813 L 105.476563 236.191406 L 106.28125 234.464844 L 107.839844 232.910156 L 108.882813 232.734375 L 107.535156 236.1875 Z M 134.8125 251.347656 L 132.589844 248.835938 L 130.84375 244.566406 L 130.707031 243.464844 L 131.460938 242.613281 L 133.71875 244.574219 L 134.707031 246.3125 L 135.339844 249.003906 L 135.222656 250.96875 Z M 134.8125 251.347656 "/>
</g>
</svg>
