<?xml version="1.0" encoding="UTF-8"?>
<svg xmlns="http://www.w3.org/2000/svg" xmlns:xlink="http://www.w3.org/1999/xlink" width="378pt" height="504pt" viewBox="0 0 378 504" version="1.1">
<g id="data">
<rect x="0" y="0" width="378" height="504" style="fill:rgb(100%,100%,100%);fill-opacity:1;stroke:none;"/>
<path style=" stroke:none;fill-rule:nonzero;fill:rgb(100%,100%,100%);fill-opacity:1;" d="M 53.308594 504 L 324.691406 504 L 324.691406 0 L 53.308594 0 Z M 53.308594 504 "/>
<path style=" stroke:none;fill-rule:nonzero;fill:rgb(22.745098%,53.333333%,16.078431%);fill-opacity:1;" d="M 303.371094 378 L 303.742188 380.121094 L 304.558594 382.25 L 305.773438 384.183594 L 306.804688 385.28125 L 306.945313 387.511719 L 306.582031 389.628906 L 307.003906 392.097656 L 306.777344 393.191406 L 306.882813 393.9375 L 305.050781 396.121094 L 303.679688 399.386719 L 303.210938 402.886719 L 303.34375 408.019531 L 297.144531 414.53125 L 295.578125 412.011719 L 292.742188 410.515625 L 292.480469 410.636719 L 293.898438 413.703125 L 295.890625 416.628906 L 296.3125 416.765625 L 296.164063 417.742188 L 294.574219 419.804688 L 292.191406 421.289063 L 290.003906 421.65625 L 289.660156 421.574219 L 288.214844 419.332031 L 284.976563 421.730469 L 280.71875 424.230469 L 282.339844 425.378906 L 285.105469 424.398438 L 286.097656 423.375 L 286.894531 423.164063 L 287.328125 423.710938 L 287.632813 428.84375 L 285.6875 430.875 L 283.441406 432.558594 L 282.84375 432.699219 L 279.644531 432.160156 L 274.75 433.78125 L 272.609375 436.117188 L 274.253906 436.015625 L 275.152344 434.667969 L 276.683594 434.363281 L 278.285156 434.328125 L 281.054688 434.949219 L 281.828125 435.589844 L 281.691406 436.328125 L 279.554688 436.347656 L 277.390625 437.65625 L 277.96875 438.546875 L 281.382813 438.964844 L 286.863281 440.339844 L 289.394531 439.9375 L 291.074219 438.957031 L 296.328125 438.230469 L 296.371094 438.277344 L 299.492188 440.03125 L 299.492188 447.785156 L 297.320313 449.492188 L 296.707031 450.273438 L 295.839844 450.375 L 292.621094 451.640625 L 291.179688 452.742188 L 289.847656 454.226563 L 289.460938 455.09375 L 289.214844 456.324219 L 289.246094 456.523438 L 289 456.839844 L 288.480469 458.011719 L 286.253906 458.289063 L 284.1875 457.9375 L 282.179688 459.832031 L 279.734375 460.605469 L 277.902344 461.742188 L 277.371094 462.1875 L 274.789063 462.777344 L 272.597656 463.816406 L 270.539063 466.589844 L 269.761719 466.949219 L 267.285156 466.203125 L 265.535156 464.78125 L 261.980469 463.464844 L 258.847656 463.128906 L 252.214844 463.378906 L 248.378906 464.65625 L 247.839844 465.085938 L 244.628906 465.699219 L 242.703125 466.390625 L 242.113281 466.964844 L 242.085938 467.109375 L 240.582031 467.257813 L 240.140625 467.398438 L 238.210938 466.1875 L 238.632813 465.4375 L 239.46875 464.933594 L 237.714844 463.296875 L 231.496094 463.171875 L 231.378906 463.496094 L 232.574219 464.835938 L 232.214844 465.75 L 231.738281 466.042969 L 226.691406 465.496094 L 219.566406 468.449219 L 217.054688 467.824219 L 210.222656 468.96875 L 208.164063 468.875 L 207.273438 468.058594 L 206.238281 469.769531 L 209.429688 471.089844 L 209.714844 470.9375 L 210.1875 472.128906 L 209.566406 473.890625 L 206.84375 474.453125 L 204.453125 473.097656 L 203.015625 472.699219 L 197.625 472.007813 L 196.175781 472.65625 L 195.679688 473.863281 L 195.832031 474.871094 L 196.757813 475.523438 L 196.488281 476.304688 L 195.917969 475.996094 L 194.851563 473.972656 L 190.289063 470.589844 L 185.898438 468.519531 L 183.121094 467.984375 L 181.648438 469.066406 L 176.207031 469.78125 L 174.339844 470.335938 L 168.992188 473.234375 L 168.214844 474.070313 L 167.203125 476.179688 L 163.601563 486.714844 L 161.28125 488.625 L 160.175781 490.09375 L 159.378906 489.9375 L 158.046875 488.730469 L 157.167969 488.226563 L 156.527344 486.851563 L 154.683594 485.4375 L 153.613281 485.542969 L 152.417969 486.300781 L 151.738281 486.164063 L 148.46875 482.535156 L 142.796875 482.960938 L 142.5 483.058594 L 137.933594 482.082031 L 134.382813 482.238281 L 130.320313 483.75 L 127.203125 486.390625 L 125.914063 488.300781 L 125.101563 490.257813 L 124.039063 490.597656 L 123.742188 491.804688 L 123.558594 492.003906 L 122.398438 493.820313 L 121.5625 495.941406 L 121.289063 497.433594 L 120.660156 497.648438 L 120.636719 497.699219 L 119.582031 496.710938 L 117.652344 495.496094 L 117.574219 495.464844 L 117.15625 494.691406 L 115.984375 493.691406 L 112.253906 492.070313 L 111.410156 491.984375 L 110.878906 492.242188 L 109.207031 491.300781 L 106.113281 490.546875 L 107.394531 489.984375 L 109.4375 489.457031 L 111.523438 488.253906 L 111.703125 488.09375 L 111.738281 488.078125 L 112.199219 488.253906 L 112.445313 488.9375 L 113.574219 489.15625 L 118.144531 485.910156 L 121.425781 483.085938 L 124.375 479.769531 L 125.210938 477.886719 L 124.875 476.421875 L 125.640625 474.519531 L 128.386719 473.238281 L 132.105469 472.640625 L 132.679688 471.785156 L 133.011719 470.480469 L 133.828125 470.261719 L 136.101563 469.066406 L 137.96875 467.492188 L 139.851563 464.894531 L 140.949219 461.878906 L 141.1875 458.679688 L 140.539063 455.539063 L 141.6875 455 L 142.492188 455.105469 L 144.269531 456.015625 L 145.761719 455.429688 L 148.429688 452.488281 L 148.144531 448.136719 L 148.292969 447.785156 L 148.613281 447.363281 L 151.105469 446.613281 L 157.421875 446.269531 L 159.910156 445.683594 L 164.597656 446.761719 L 166.046875 446.148438 L 167.527344 446.515625 L 169.484375 447.285156 L 170.039063 448.109375 L 170.757813 448.421875 L 173.15625 448.464844 L 180.570313 447.503906 L 181.109375 445.632813 L 181.210938 443.15625 L 182.519531 440.25 L 190.867188 432.195313 L 195.792969 425.3125 L 197.929688 424.472656 L 198.285156 423.78125 L 198.070313 423.238281 L 197.8125 423.082031 L 196.09375 424.355469 L 192.90625 427.300781 L 190.570313 429.988281 L 189.222656 431.449219 L 185.628906 432.957031 L 183.714844 433.246094 L 182.441406 433.0625 L 178.394531 435.230469 L 177.398438 436.808594 L 177.039063 438.671875 L 176.445313 439.273438 L 174.058594 439.917969 L 170.558594 439.851563 L 166.820313 439 L 166.347656 438.652344 L 161.371094 433.375 L 159.03125 429.199219 L 155.65625 429.589844 L 149.269531 432.308594 L 149.25 432.359375 L 149.097656 432.101563 L 147.042969 430.316406 L 146.917969 429.308594 L 148.539063 428.378906 L 150.066406 428.890625 L 151.640625 428.421875 L 152.765625 427.832031 L 153.085938 427.097656 L 152.808594 426.597656 L 147.785156 426.460938 L 143.210938 423.710938 L 139.503906 423.714844 L 136.765625 424.277344 L 136.292969 426.515625 L 135.777344 427.203125 L 133.742188 427.917969 L 132.394531 427.265625 L 131.683594 427.445313 L 130.492188 426.410156 L 129.042969 425.707031 L 131.792969 424.328125 L 131.226563 422.867188 L 130.640625 424.257813 L 127.769531 424.613281 L 122.949219 424.152344 L 122.058594 423.546875 L 122.703125 422.851563 L 123 422.375 L 124.125 421.78125 L 125.167969 421.753906 L 125.464844 421.238281 L 124.929688 417.953125 L 124.824219 417.90625 L 125.03125 416.769531 L 127.199219 415.0625 L 128.90625 412.890625 L 132.351563 412.070313 L 135.386719 410.25 L 138.832031 407.308594 L 139.386719 406.601563 L 141.359375 406.660156 L 142.21875 406.390625 L 149.359375 401.828125 L 152.136719 398.207031 L 153.054688 396.195313 L 154.199219 391.746094 L 153.734375 388.820313 L 152.566406 386.542969 L 153.179688 384.597656 L 154.652344 381.796875 L 152.269531 378.203125 L 152.683594 374.835938 L 153.175781 374.082031 L 152.804688 373.207031 L 150.203125 373.105469 L 145.449219 374.257813 L 143.757813 375.484375 L 142.039063 378.097656 L 141.722656 378.117188 L 139.164063 377.851563 L 136.660156 378 L 136.660156 377.304688 L 137.339844 376.066406 L 140.148438 373.019531 L 141.023438 372.414063 L 142.589844 371.953125 L 147.132813 367.984375 L 147.953125 364.523438 L 151.550781 360.582031 L 153.09375 359.609375 L 154.941406 359.808594 L 160.492188 357.457031 L 163.644531 357.28125 L 167.339844 357.714844 L 172.597656 355.179688 L 173.933594 355.046875 L 174.484375 355.082031 L 179.910156 359.441406 L 180.433594 358.429688 L 177.679688 353.460938 L 177.878906 353.238281 L 178.203125 353.105469 L 178.601563 352.78125 L 180.867188 352.449219 L 181.503906 352.695313 L 181.914063 353.875 L 182.898438 354.332031 L 184.078125 356.789063 L 185.613281 357.902344 L 188.359375 357.621094 L 190.335938 355.148438 L 189.90625 355.050781 L 188.667969 355.527344 L 188.3125 355.957031 L 186.378906 356.386719 L 183.8125 354.640625 L 181.589844 349.828125 L 182.671875 348.242188 L 183.695313 345.066406 L 183.8125 342.117188 L 183.402344 340.238281 L 185.429688 339.015625 L 185.140625 338.578125 L 183.183594 338.484375 L 183.179688 330.066406 L 183.140625 329.886719 L 184.695313 329.191406 L 187.28125 323.421875 L 187.71875 320.933594 L 187.855469 317.484375 L 184.742188 320.527344 L 180.101563 322.96875 L 179.835938 322.632813 L 177.734375 320.953125 L 175.796875 320.019531 L 175.460938 319.445313 L 175.714844 316.292969 L 174.953125 312.9375 L 173.554688 310.359375 L 170.28125 306.5 L 167.535156 304.246094 L 169.164063 299.058594 L 174.074219 288.722656 L 176.464844 286.417969 L 178.757813 285.980469 L 180.191406 286.804688 L 181.015625 286.710938 L 182.933594 286.238281 L 183.03125 285.160156 L 182.34375 284.746094 L 180.035156 285.351563 L 174.65625 284.980469 L 172.566406 284.292969 L 169.453125 284.03125 L 168.226563 288.992188 L 166.234375 288.695313 L 163.3125 290.011719 L 161.832031 291.855469 L 159.410156 293.515625 L 156.15625 293.3125 L 155.160156 292.984375 L 149.984375 289.230469 L 149.214844 288.042969 L 149.230469 287.167969 L 148.945313 287.023438 L 148.15625 288.078125 L 147.988281 288.910156 L 148.375 290.554688 L 149.574219 292.960938 L 149.78125 295.109375 L 149.167969 293.816406 L 145.820313 289.9375 L 143.886719 288.664063 L 141.867188 287.835938 L 139.601563 287.390625 L 137.289063 287.398438 L 135.023438 287.863281 L 132.785156 288.832031 L 132.785156 284.953125 L 136.589844 285.476563 L 140.480469 284.683594 L 143.875 282.632813 L 146.382813 279.558594 L 147.585938 276.449219 L 147.847656 272.996094 L 147.085938 269.621094 L 145.359375 266.621094 L 143.167969 264.285156 L 142.949219 264.128906 L 143.644531 263.800781 L 144.390625 261.886719 L 144.195313 260.621094 L 142.601563 256.71875 L 139.777344 254.832031 L 137.378906 252.511719 L 138.222656 245.894531 L 138.910156 245.054688 L 140.222656 241.863281 L 140.230469 241.746094 L 140.710938 241.59375 L 142.886719 242.511719 L 146.15625 243.175781 L 148.300781 243.253906 L 141.261719 240.453125 L 140.441406 240.5625 L 140.34375 240.519531 L 140.539063 238.429688 L 144.214844 238.957031 L 147.871094 238.296875 L 151.132813 236.515625 L 153.667969 233.800781 L 155.28125 230.175781 L 155.582031 226.21875 L 154.535156 222.390625 L 152.167969 219.046875 L 154.519531 219.703125 L 156.957031 219.855469 L 159.371094 219.492188 L 161.65625 218.636719 L 163.714844 217.320313 L 165.449219 215.605469 L 166.792969 213.566406 L 167.675781 211.292969 L 169.414063 212.984375 L 171.464844 214.28125 L 173.738281 215.121094 L 176.136719 215.472656 L 180.1875 215.0625 L 182.515625 214.441406 L 184.976563 213.140625 L 187.0625 211.292969 L 189.9375 212.230469 L 192.957031 212.394531 L 194.816406 215.167969 L 193.832031 217.585938 L 191.214844 219.742188 L 185.519531 221.085938 L 182.847656 221.226563 L 177.804688 225.21875 L 178.117188 225.714844 L 179.84375 225.195313 L 184.609375 222.886719 L 186.457031 221.386719 L 187.289063 221.316406 L 189.085938 221.875 L 189.332031 222.921875 L 188.898438 224.691406 L 189.238281 225.953125 L 190.898438 226.824219 L 192.988281 227.191406 L 194.445313 228.726563 L 194.429688 229.304688 L 192.117188 231.570313 L 189.460938 232.730469 L 188.34375 232.882813 L 187.070313 232.078125 L 185.40625 232.042969 L 181.046875 235.800781 L 180.578125 237.003906 L 174.761719 240.109375 L 170.214844 238.117188 L 166.480469 238.003906 L 166.738281 239.222656 L 168.246094 240.195313 L 178.0625 241.875 L 182.921875 243.167969 L 186.398438 241.730469 L 187.519531 239.417969 L 188.617188 238.355469 L 189.539063 238.171875 L 193.183594 238.5 L 198.925781 242.476563 L 200.570313 244.007813 L 203.359375 245.5 L 205.054688 245.875 L 206.488281 246.65625 L 206.496094 246.675781 L 206.703125 248.609375 L 207.457031 250.929688 L 208.683594 253.042969 L 210.417969 254.9375 L 212.390625 256.125 L 212.824219 256.707031 L 213.265625 256.828125 L 213.351563 256.703125 L 213.925781 257.050781 L 214.75 257.203125 L 217.371094 258.992188 L 218.078125 261.207031 L 218.078125 265.570313 L 216.796875 269.054688 L 216.679688 272.769531 L 217.289063 275.261719 L 218.429688 277.5625 L 219.957031 279.464844 L 221.328125 280.570313 L 221.78125 281.519531 L 220.78125 284.058594 L 220.472656 287.378906 L 221.121094 290.648438 L 222.667969 293.601563 L 224.296875 295.417969 L 228.339844 298.710938 L 230.855469 299.902344 L 231.300781 299.996094 L 233.628906 301.078125 L 233.789063 303.40625 L 234.730469 306.207031 L 236.34375 308.679688 L 238.53125 310.664063 L 241.023438 311.992188 L 243.636719 312.660156 L 246.335938 312.707031 L 247.972656 312.34375 L 249.09375 315.21875 L 249.09375 319.847656 L 248.429688 323.851563 L 249.09375 327.601563 L 248.78125 330.644531 L 249.277344 333.664063 L 250.21875 335.898438 L 251.601563 337.886719 L 251.898438 338.226563 L 245.550781 339.511719 L 244.589844 338.644531 L 243.40625 338.558594 L 241.210938 339.871094 L 241.886719 340.445313 L 246.324219 340.394531 L 249.617188 339.34375 L 251.976563 339.082031 L 254.382813 342.558594 L 260.535156 347.621094 L 260.675781 347.703125 L 260.570313 349.363281 L 260.921875 352.242188 L 261.59375 354.421875 L 262.609375 356.320313 L 266.128906 360.605469 L 268.476563 362.492188 L 269.316406 364.289063 L 269.210938 365.21875 L 264.953125 369.09375 L 261.394531 373.164063 L 260.601563 374.816406 L 262.84375 374.3125 L 264.9375 375.519531 L 266.9375 378.226563 L 270.21875 378.804688 L 270.625 378.746094 L 271.910156 376.796875 L 272.234375 374.960938 L 273.40625 371.914063 L 274.707031 370.632813 L 277.796875 370.09375 L 278.570313 370.230469 L 283.351563 370.238281 L 284.253906 370.867188 L 286.703125 370.742188 L 292.984375 371.414063 L 293.3125 371.71875 L 295.242188 372.933594 L 297.25 373.714844 L 298.386719 373.921875 L 300.621094 375.558594 L 301.199219 376.292969 Z M 152.167969 261.691406 L 151.589844 264.171875 L 151.546875 266.589844 L 151.972656 268.839844 L 153.113281 271.835938 L 154.476563 273.859375 L 156.234375 275.554688 L 158.421875 276.902344 L 160.726563 277.707031 L 164.945313 277.914063 L 167.675781 277.199219 L 170.875 276.941406 L 173.539063 275.996094 L 175.695313 274.605469 L 177.496094 272.769531 L 178.792969 270.703125 L 179.664063 268.285156 L 179.972656 265.992188 L 179.824219 263.683594 L 179.039063 260.832031 L 178.046875 258.742188 L 176.660156 256.890625 L 174.933594 255.351563 L 172.941406 254.179688 L 170.75 253.429688 L 166.660156 253.207031 L 163.800781 253.9375 L 160.742188 254.171875 L 158.429688 254.917969 L 156.425781 256.054688 L 154.597656 257.65625 L 153.210938 259.496094 Z M 232.859375 471.5625 L 231.871094 472.320313 L 230.464844 474.011719 L 229.960938 474.269531 L 228.117188 474.644531 L 222.296875 470.886719 L 220.207031 471.1875 L 221.476563 469.683594 L 227.316406 466.367188 L 232.550781 467.761719 L 234.171875 469.894531 Z M 145.203125 362.804688 L 145.230469 362.628906 L 144.414063 358.617188 L 144.414063 354.738281 L 147.65625 355.386719 L 149.945313 355.285156 L 150.828125 355.070313 L 151.039063 355.578125 L 155.546875 356.503906 L 154.066406 358.859375 L 150.984375 360.816406 L 147.425781 363.976563 L 146.109375 363.875 Z M 149.160156 308.785156 L 148.421875 311.039063 L 148.308594 308.535156 L 149.046875 308.269531 Z M 133.011719 261.671875 L 132.785156 261.691406 L 129.613281 261.386719 L 126.96875 261.804688 L 126.871094 261.847656 L 126.582031 261.613281 L 125.375 256.128906 L 125.988281 253.21875 L 128.179688 251.246094 L 129.539063 251.441406 L 131.390625 253.015625 L 132.984375 258.382813 Z M 121.628906 265.144531 L 121.152344 265.570313 L 121.152344 257.816406 L 121.964844 255.535156 L 122.289063 253.007813 L 122.101563 250.722656 L 121.472656 248.515625 L 124.261719 250.082031 L 125.542969 250.386719 L 124.449219 251.558594 L 123.367188 254.191406 L 121.183594 263.964844 Z M 133.425781 249.777344 L 133.734375 249.679688 L 135.265625 248.675781 L 135.339844 249.003906 L 135.222656 250.96875 L 134.8125 251.347656 Z M 219.765625 58.777344 L 221.199219 60.789063 L 218.742188 60.242188 L 218.746094 59.574219 Z M 190.9375 168.644531 L 193.773438 169.816406 L 196.691406 170.203125 L 199.734375 169.816406 L 201.835938 168.949219 L 204.117188 168.914063 L 204.121094 168.914063 L 206.445313 169.3125 L 209.996094 168.703125 L 210.195313 168.785156 L 208.324219 170.792969 L 206.878906 173.488281 L 206.152344 176.851563 L 206.445313 180.277344 L 204.507813 183.261719 L 203.5625 186.695313 L 201.660156 183 L 198.691406 180.277344 L 196.804688 177.929688 L 194.816406 176.398438 L 193.808594 174.046875 L 192.308594 171.96875 L 189.855469 169.917969 L 187.0625 168.644531 Z M 202.570313 195.785156 L 203.515625 193.609375 L 203.988281 191.414063 L 204.976563 193.734375 L 205.996094 195.15625 L 205.648438 195.785156 Z M 187.414063 111.414063 L 187.085938 114.160156 L 186.777344 113.90625 L 186.554688 113.921875 L 184.90625 112.472656 L 182.234375 111.117188 L 184.742188 111.050781 L 187.015625 110.503906 L 187.324219 111.371094 Z M 156.046875 164.769531 L 157.566406 166.675781 L 157.675781 166.765625 L 155.320313 167.769531 L 152.441406 170.8125 L 151.949219 171.945313 L 152.140625 172.144531 L 156.390625 168.453125 L 157.75 167.980469 L 159.449219 168.210938 L 160.730469 168.886719 L 161.058594 169.320313 L 157.109375 173.804688 L 156.507813 175.054688 L 155.128906 175.199219 L 152.167969 176.398438 L 151.796875 174.277344 L 151.035156 172.261719 L 149.84375 170.320313 L 148.292969 168.644531 L 147.9375 167.757813 L 150.207031 167.597656 L 152.28125 167.042969 L 154.21875 166.117188 Z M 173.117188 168.671875 L 179.71875 168.785156 L 177.410156 169.898438 L 175.402344 171.496094 L 173.726563 173.597656 L 172.617188 175.910156 L 172.042969 178.410156 L 172.03125 180.976563 L 172.582031 183.480469 L 173.664063 185.804688 L 171.554688 184.152344 L 170.417969 181.578125 L 168.78125 179.441406 L 167.128906 178.027344 L 165.121094 176.890625 L 161.335938 175.335938 L 158.953125 174.9375 L 161.140625 173.015625 L 167.808594 170.273438 L 170.480469 169.527344 L 170.492188 169.949219 L 171.554688 169.839844 Z M 147.628906 315.96875 L 147.960938 317.921875 L 147.847656 318.148438 L 145.472656 320.484375 L 144.179688 320.96875 L 146.269531 318.644531 Z M 141.015625 322.789063 L 141.726563 322.5625 L 141.390625 322.890625 Z M 137.097656 159.085938 L 137.640625 160.878906 L 136.660156 160.890625 L 136.75 158.96875 L 137.039063 159.417969 Z M 105.953125 236.332031 L 105.808594 235.480469 L 105.941406 235.191406 L 106.5625 236.511719 Z M 110.523438 240.535156 L 111.65625 241.214844 L 110.066406 241.292969 Z M 108.664063 241.363281 L 108.515625 241.371094 L 105.675781 242.296875 L 106.871094 241.457031 L 108.433594 240.808594 L 108.667969 241.335938 Z M 88.945313 499.121094 L 88.542969 499.441406 L 88.566406 499.308594 L 88.941406 499.117188 Z M 286.679688 439.636719 L 283.058594 438.976563 L 282.164063 437.605469 L 282.484375 436.070313 L 286.839844 437.054688 L 287.960938 438.832031 Z M 236.835938 466.113281 L 235.136719 465.644531 L 236.523438 463.683594 L 237.195313 464.164063 L 237.5 465.839844 Z M 236.835938 466.113281 "/>
</g>
</svg>
