<?xml version="1.0" encoding="UTF-8"?>
<svg xmlns="http://www.w3.org/2000/svg" xmlns:xlink="http://www.w3.org/1999/xlink" width="378pt" height="504pt" viewBox="0 0 378 504" version="1.1">
<g id="data">
<rect x="0" y="0" width="378" height="504" style="fill:rgb(100%,100%,100%);fill-opacity:1;stroke:none;"/>
<path style=" stroke:none;fill-rule:nonzero;fill:rgb(100%,100%,100%);fill-opacity:1;" d="M 53.308594 504 L 324.691406 504 L 324.691406 0 L 53.308594 0 Z M 53.308594 504 "/>
<path style=" stroke:none;fill-rule:nonzero;fill:rgb(22.745098%,53.333333%,16.078431%);fill-opacity:1;" d="M 272.355469 385.753906 L 273.445313 383.207031 L 273.894531 380.597656 L 275.476563 382.730469 L 277.503906 384.453125 L 279.75 385.621094 L 282.351563 386.308594 L 284.914063 386.390625 L 287.433594 385.910156 L 289.789063 384.886719 L 291.953125 383.285156 L 292.703125 386.773438 L 294.558594 389.972656 L 296.789063 392.066406 L 299.492188 393.507813 L 301.199219 395.679688 L 303.371094 397.382813 L 303.371094 405.136719 L 301.199219 406.84375 L 299.492188 409.015625 L 296.328125 406.503906 L 294.105469 405.582031 L 291.738281 405.136719 L 288.738281 402.578125 L 284.929688 401.144531 L 282 400.972656 L 278.109375 401.601563 L 275.519531 402.625 L 273.34375 404.148438 L 274.679688 402.304688 L 275.671875 400.113281 L 276.160156 398.015625 L 276.378906 394.882813 L 276.007813 392.003906 L 275.257813 389.714844 L 273.980469 387.527344 Z M 235.429688 436.992188 L 239.320313 437.648438 L 243.082031 437.011719 L 246.539063 435.113281 L 249.09375 432.277344 L 248.425781 436.152344 L 249.09375 440.03125 L 248.546875 442.253906 L 248.445313 444.542969 L 249.09375 447.785156 L 245.214844 447.121094 L 241.339844 447.785156 L 241.078125 444.597656 L 239.960938 441.597656 L 237.976563 438.929688 Z M 235.429688 436.992188 "/>
</g>
</svg>
