<?xml version="1.0" encoding="UTF-8"?>
<svg xmlns="http://www.w3.org/2000/svg" xmlns:xlink="http://www.w3.org/1999/xlink" width="378pt" height="504pt" viewBox="0 0 378 504" version="1.1">
<g id="data">
<rect x="0" y="0" width="378" height="504" style="fill:rgb(100%,100%,100%);fill-opacity:1;stroke:none;"/>
<path style=" stroke:none;fill-rule:nonzero;fill:rgb(100%,100%,100%);fill-opacity:1;" d="M 53.308594 504 L 324.691406 504 L 324.691406 0 L 53.308594 0 Z M 53.308594 504 "/>
<path style=" stroke:none;fill-rule:nonzero;fill:rgb(22.745098%,53.333333%,16.078431%);fill-opacity:1;" d="M 300.621094 375.558594 L 301.199219 376.292969 L 303.371094 378 L 303.777344 380.242188 L 304.558594 382.25 L 305.773438 384.183594 L 306.804688 385.28125 L 306.945313 387.511719 L 306.582031 389.628906 L 307.003906 392.097656 L 306.777344 393.191406 L 306.882813 393.9375 L 305.050781 396.121094 L 303.679688 399.386719 L 303.210938 402.886719 L 303.34375 408.019531 L 298.035156 413.59375 L 296.902344 414.140625 L 295.578125 412.011719 L 292.742188 410.515625 L 292.480469 410.636719 L 293.898438 413.703125 L 295.140625 415.527344 L 293.59375 417.007813 L 291.039063 421.480469 L 290.003906 421.65625 L 289.660156 421.574219 L 288.214844 419.332031 L 284.976563 421.730469 L 280.71875 424.230469 L 282.339844 425.378906 L 285.105469 424.398438 L 286.097656 423.375 L 286.894531 423.164063 L 287.328125 423.710938 L 287.632813 428.84375 L 285.6875 430.875 L 283.441406 432.558594 L 282.84375 432.699219 L 279.644531 432.160156 L 274.75 433.78125 L 272.609375 436.117188 L 274.253906 436.015625 L 275.152344 434.667969 L 276.683594 434.363281 L 278.285156 434.328125 L 281.054688 434.949219 L 281.828125 435.589844 L 281.691406 436.328125 L 279.554688 436.347656 L 277.390625 437.65625 L 277.96875 438.546875 L 281.382813 438.964844 L 286.863281 440.339844 L 289.394531 439.9375 L 291.074219 438.957031 L 294.59375 438.46875 L 295.304688 438.902344 L 297.347656 439.664063 L 299.492188 440.03125 L 299.492188 447.785156 L 297.371094 448.160156 L 295.242188 448.972656 L 293.3125 450.1875 L 291.738281 451.660156 L 288.304688 453.363281 L 285.609375 456.085938 L 284.667969 458.019531 L 284.1875 457.9375 L 282.234375 459.785156 L 281.136719 460.015625 L 278.523438 461.300781 L 277.476563 462.160156 L 274.789063 462.777344 L 272.597656 463.816406 L 270.539063 466.589844 L 269.761719 466.949219 L 267.261719 466.195313 L 265.421875 464.71875 L 261.855469 463.441406 L 254.96875 463.128906 L 251.835938 463.441406 L 248.269531 464.71875 L 247.804688 465.089844 L 244.628906 465.699219 L 242.703125 466.390625 L 242.113281 466.964844 L 242.085938 467.109375 L 240.582031 467.257813 L 240.140625 467.398438 L 238.210938 466.1875 L 238.632813 465.4375 L 239.46875 464.933594 L 237.714844 463.296875 L 231.496094 463.171875 L 231.378906 463.496094 L 232.574219 464.835938 L 232.214844 465.75 L 231.738281 466.042969 L 226.691406 465.496094 L 219.566406 468.449219 L 217.054688 467.824219 L 210.222656 468.96875 L 208.164063 468.875 L 207.273438 468.058594 L 206.238281 469.769531 L 209.429688 471.089844 L 209.714844 470.9375 L 210.1875 472.128906 L 209.566406 473.890625 L 206.84375 474.453125 L 204.453125 473.097656 L 203.015625 472.699219 L 197.625 472.007813 L 196.175781 472.65625 L 195.679688 473.863281 L 195.832031 474.871094 L 195.90625 474.921875 L 195.351563 474.921875 L 194.851563 473.972656 L 190.289063 470.589844 L 185.898438 468.519531 L 183.121094 467.984375 L 181.648438 469.066406 L 176.207031 469.78125 L 174.339844 470.335938 L 168.992188 473.234375 L 168.214844 474.070313 L 167.203125 476.179688 L 164.414063 484.347656 L 162.875 485.539063 L 161.125 487.746094 L 160.082031 490.074219 L 159.347656 489.933594 L 157.628906 488.441406 L 157.160156 488.210938 L 156.527344 486.851563 L 154.683594 485.4375 L 153.613281 485.542969 L 152.417969 486.300781 L 151.738281 486.164063 L 148.46875 482.535156 L 144.230469 482.851563 L 142.957031 482.074219 L 140.367188 481.335938 L 137.542969 481.21875 L 134.902344 481.75 L 131.230469 483.273438 L 127.800781 485.71875 L 126.167969 487.855469 L 125.109375 490.257813 L 124.039063 490.597656 L 123.648438 492.191406 L 122.457031 493.707031 L 121.597656 495.820313 L 121.292969 497.433594 L 120.660156 497.648438 L 120.636719 497.699219 L 119.582031 496.710938 L 117.652344 495.496094 L 117.574219 495.464844 L 117.15625 494.691406 L 115.984375 493.691406 L 114.558594 493.074219 L 114.871094 492.734375 L 116.085938 490.804688 L 116.902344 488.675781 L 117.277344 486.554688 L 117.644531 486.261719 L 118.144531 485.910156 L 118.65625 485.46875 L 119.445313 484.847656 L 119.589844 484.664063 L 121.425781 483.085938 L 122.230469 482.179688 L 123.128906 481.765625 L 124.902344 480.503906 L 126.9375 478.210938 L 128.492188 474.851563 L 128.671875 473.191406 L 132.105469 472.640625 L 132.679688 471.785156 L 133.023438 470.445313 L 134.535156 469.957031 L 136.925781 468.449219 L 138.960938 466.308594 L 140.34375 463.84375 L 141.085938 461.121094 L 141.15625 458.296875 L 140.539063 455.539063 L 141.671875 455 L 142.492188 455.105469 L 144.269531 456.015625 L 145.761719 455.429688 L 148.429688 452.488281 L 148.144531 448.144531 L 148.292969 447.785156 L 148.605469 447.367188 L 151.105469 446.613281 L 157.421875 446.269531 L 159.910156 445.683594 L 164.597656 446.761719 L 166.046875 446.148438 L 167.527344 446.515625 L 169.484375 447.285156 L 170.039063 448.109375 L 170.757813 448.421875 L 173.15625 448.464844 L 180.570313 447.503906 L 181.109375 445.632813 L 181.210938 443.15625 L 182.519531 440.25 L 190.867188 432.195313 L 195.792969 425.3125 L 197.929688 424.472656 L 198.285156 423.78125 L 198.070313 423.238281 L 197.8125 423.082031 L 196.09375 424.355469 L 192.90625 427.300781 L 190.570313 429.988281 L 189.222656 431.449219 L 185.628906 432.957031 L 183.714844 433.246094 L 182.441406 433.0625 L 178.394531 435.230469 L 177.398438 436.808594 L 177.039063 438.671875 L 176.445313 439.273438 L 174.058594 439.917969 L 170.558594 439.851563 L 166.820313 439 L 166.347656 438.652344 L 161.371094 433.375 L 159.03125 429.199219 L 155.65625 429.589844 L 149.269531 432.308594 L 149.234375 432.410156 L 148.847656 431.808594 L 147.042969 430.328125 L 146.917969 429.308594 L 148.539063 428.378906 L 150.066406 428.890625 L 151.640625 428.421875 L 152.765625 427.832031 L 153.085938 427.097656 L 152.808594 426.597656 L 147.785156 426.460938 L 143.210938 423.710938 L 139.503906 423.714844 L 136.765625 424.277344 L 136.292969 426.515625 L 135.777344 427.203125 L 133.742188 427.917969 L 132.394531 427.265625 L 131.726563 427.433594 L 130.429688 426.253906 L 129.191406 425.632813 L 131.792969 424.328125 L 131.226563 422.867188 L 130.640625 424.257813 L 127.769531 424.613281 L 125.203125 424.367188 L 124.453125 424.222656 L 124.0625 424.257813 L 122.949219 424.152344 L 122.0625 423.550781 L 122.625 422.949219 L 122.984375 422.382813 L 124.125 421.78125 L 125.167969 421.753906 L 125.464844 421.238281 L 124.929688 417.953125 L 124.832031 417.90625 L 125.03125 416.769531 L 127.199219 415.0625 L 128.90625 412.890625 L 132.351563 412.070313 L 135.386719 410.25 L 138.832031 407.308594 L 139.386719 406.601563 L 141.359375 406.660156 L 142.21875 406.390625 L 149.359375 401.828125 L 152.136719 398.207031 L 153.054688 396.195313 L 154.199219 391.746094 L 153.734375 388.820313 L 152.566406 386.542969 L 153.179688 384.597656 L 154.652344 381.796875 L 152.269531 378.203125 L 152.683594 374.835938 L 153.175781 374.082031 L 152.804688 373.207031 L 150.203125 373.105469 L 145.449219 374.257813 L 143.757813 375.484375 L 142.039063 378.097656 L 141.722656 378.117188 L 139.164063 377.851563 L 136.660156 378 L 136.660156 377.304688 L 137.339844 376.066406 L 140.148438 373.019531 L 141.023438 372.414063 L 142.589844 371.953125 L 147.132813 367.984375 L 147.953125 364.523438 L 151.550781 360.582031 L 153.09375 359.609375 L 154.941406 359.808594 L 160.492188 357.457031 L 163.644531 357.28125 L 167.339844 357.714844 L 171.453125 355.730469 L 172.898438 355.871094 L 175.058594 355.542969 L 179.910156 359.441406 L 180.433594 358.429688 L 178.199219 354.398438 L 178.859375 354.101563 L 180.699219 352.472656 L 180.867188 352.449219 L 181.503906 352.695313 L 181.914063 353.875 L 182.898438 354.332031 L 184.078125 356.789063 L 185.613281 357.902344 L 188.359375 357.621094 L 190.335938 355.148438 L 189.90625 355.050781 L 188.667969 355.527344 L 188.3125 355.957031 L 186.378906 356.386719 L 183.8125 354.640625 L 182.09375 350.917969 L 183.617188 348.222656 L 184.167969 346.113281 L 184.3125 343.8125 L 183.96875 341.402344 L 183.523438 340.167969 L 185.429688 339.015625 L 185.140625 338.578125 L 183.183594 338.484375 L 183.183594 335.355469 L 185 333.921875 L 186.570313 332.054688 L 187.714844 329.898438 L 188.382813 327.554688 L 188.550781 325.25 L 188.261719 322.953125 L 187.644531 321.355469 L 187.71875 320.933594 L 187.855469 317.484375 L 186.847656 318.472656 L 186.507813 316.300781 L 185.257813 313.628906 L 182.894531 310.925781 L 179.703125 309.027344 L 176.585938 308.273438 L 171.554688 308.214844 L 172.207031 304.847656 L 171.820313 301.3125 L 170.445313 298.15625 L 169.898438 297.515625 L 174.074219 288.722656 L 174.402344 288.402344 L 176.34375 289.125 L 178.5 289.476563 L 180.9375 289.386719 L 185.207031 288.496094 L 188.816406 286.867188 L 190.675781 285.300781 L 192.105469 283.492188 L 193.144531 281.433594 L 193.78125 279.085938 L 193.910156 276.527344 L 193.472656 274.003906 L 192.433594 271.523438 L 190.9375 269.445313 L 192.140625 266.484375 L 192.488281 263.183594 L 192.039063 260.40625 L 190.9375 257.816406 L 190.304688 254.027344 L 189.136719 251.597656 L 187.441406 249.5 L 185.308594 247.851563 L 182.730469 246.699219 L 175.933594 245.402344 L 171.855469 245.804688 L 169.03125 247.027344 L 166.714844 248.855469 L 164.929688 251.210938 L 163.800781 253.9375 L 161.425781 253.367188 L 158.984375 253.300781 L 156.585938 253.75 L 154.332031 254.6875 L 151.753906 256.597656 L 149.734375 259.253906 L 148.578125 262.246094 L 148.292969 265.570313 L 144.414063 265.570313 L 142.933594 264.136719 L 143.644531 263.800781 L 144.390625 261.886719 L 144.359375 261.6875 L 145.992188 261.136719 L 148.011719 260.007813 L 149.855469 258.410156 L 151.761719 255.671875 L 152.808594 252.507813 L 152.914063 249.171875 L 152.089844 245.96875 L 155.1875 245.367188 L 158.007813 243.953125 L 160.910156 241.320313 L 162.667969 238.691406 L 163.457031 236.554688 L 163.992188 233.550781 L 163.941406 229.859375 L 162.546875 226.035156 L 159.921875 222.921875 L 162.390625 223.988281 L 165.035156 224.460938 L 167.714844 224.3125 L 170.292969 223.550781 L 173.796875 221.976563 L 176.078125 220.328125 L 178.035156 217.964844 L 179.308594 215.167969 L 181.550781 214.761719 L 183.558594 213.980469 L 185.488281 212.765625 L 187.0625 211.292969 L 188.632813 212.765625 L 190.5625 213.980469 L 192.570313 214.761719 L 194.816406 215.167969 L 193.519531 216.925781 L 192.804688 218.433594 L 191.214844 219.742188 L 185.519531 221.085938 L 182.847656 221.226563 L 177.804688 225.21875 L 178.117188 225.714844 L 179.84375 225.195313 L 184.609375 222.886719 L 186.457031 221.386719 L 187.289063 221.316406 L 189.085938 221.875 L 189.332031 222.921875 L 188.898438 224.691406 L 189.238281 225.953125 L 190.898438 226.824219 L 192.675781 227.136719 L 192.714844 227.3125 L 194.136719 229.589844 L 192.117188 231.570313 L 189.460938 232.730469 L 188.34375 232.882813 L 187.070313 232.078125 L 185.40625 232.042969 L 181.046875 235.800781 L 180.578125 237.003906 L 174.761719 240.109375 L 170.214844 238.117188 L 166.480469 238.003906 L 166.738281 239.222656 L 168.246094 240.195313 L 178.0625 241.875 L 182.921875 243.167969 L 186.398438 241.730469 L 187.519531 239.417969 L 188.617188 238.355469 L 189.539063 238.171875 L 193.183594 238.5 L 198.898438 242.457031 L 200.777344 244.15625 L 203.476563 245.542969 L 205.078125 245.890625 L 206.488281 246.65625 L 206.5 246.683594 L 206.730469 248.738281 L 207.511719 251.046875 L 208.835938 253.246094 L 210.511719 255.019531 L 212.386719 256.121094 L 212.824219 256.707031 L 213.265625 256.828125 L 213.359375 256.691406 L 214.046875 257.09375 L 214.789063 257.226563 L 217.371094 258.992188 L 218.078125 261.207031 L 218.078125 265.570313 L 216.546875 267.105469 L 215.324219 268.902344 L 214.421875 271.015625 L 213.964844 273.136719 L 213.910156 275.304688 L 214.328125 278.207031 L 215.332031 281.335938 L 216.527344 283.28125 L 218.078125 284.953125 L 218.636719 287.683594 L 219.757813 290.09375 L 223.484375 294.699219 L 228.773438 298.972656 L 231.097656 299.980469 L 231.394531 300.039063 L 233.425781 300.984375 L 232.574219 303.765625 L 232.601563 307.347656 L 233.714844 310.75 L 235.71875 313.5625 L 238.578125 315.71875 L 242.082031 316.933594 L 245.660156 316.996094 L 249.09375 315.96875 L 247.921875 318.804688 L 247.535156 321.976563 L 247.957031 324.886719 L 249.09375 327.601563 L 248.785156 330.773438 L 249.394531 334.027344 L 250.542969 336.449219 L 252.0625 338.191406 L 245.550781 339.511719 L 244.589844 338.644531 L 243.40625 338.558594 L 241.210938 339.871094 L 241.886719 340.445313 L 246.324219 340.394531 L 249.617188 339.34375 L 251.976563 339.082031 L 254.382813 342.558594 L 255.0625 343.117188 L 255.308594 343.46875 L 257.710938 345.574219 L 258.492188 345.941406 L 260.535156 347.621094 L 260.675781 347.703125 L 260.570313 349.363281 L 260.921875 352.242188 L 261.546875 354.304688 L 262.609375 356.320313 L 266.128906 360.605469 L 268.476563 362.492188 L 269.316406 364.289063 L 269.210938 365.21875 L 264.953125 369.09375 L 261.394531 373.164063 L 260.601563 374.816406 L 262.84375 374.3125 L 264.9375 375.519531 L 266.9375 378.226563 L 270.21875 378.804688 L 270.625 378.746094 L 271.910156 376.796875 L 272.234375 374.960938 L 273.40625 371.914063 L 274.707031 370.632813 L 277.789063 370.097656 L 278.699219 370.242188 L 283.359375 370.242188 L 284.253906 370.867188 L 286.703125 370.742188 L 292.984375 371.414063 L 293.3125 371.71875 L 295.242188 372.933594 L 297.371094 373.75 L 298.398438 373.929688 Z M 202.570313 331.476563 L 200.304688 331.011719 L 197.863281 331.015625 L 195.480469 331.527344 L 193.253906 332.527344 L 191.285156 333.96875 L 189.660156 335.789063 L 188.453125 337.910156 L 187.738281 340.109375 L 187.476563 342.40625 L 187.671875 344.707031 L 188.316406 346.929688 L 189.390625 348.976563 L 191.449219 351.433594 L 193.082031 352.863281 L 195.1875 354.066406 L 197.371094 354.78125 L 200.164063 355.050781 L 204.234375 354.617188 L 208.234375 353.265625 L 210.230469 351.859375 L 211.886719 350.070313 L 213.132813 347.972656 L 213.917969 345.660156 L 214.199219 342.980469 L 213.886719 340.429688 L 213.023438 338.011719 L 211.652344 335.839844 L 209.835938 334.027344 L 207.664063 332.652344 L 205.246094 331.789063 Z M 232.859375 471.5625 L 231.871094 472.320313 L 230.464844 474.011719 L 229.960938 474.269531 L 229.160156 474.433594 L 227.726563 473.148438 L 225.398438 471.867188 L 223.085938 471.195313 L 222.703125 471.148438 L 222.296875 470.886719 L 221.496094 471 L 220.46875 470.875 L 221.476563 469.683594 L 227.316406 466.367188 L 232.550781 467.761719 L 234.171875 469.894531 Z M 145.203125 362.804688 L 145.230469 362.628906 L 144.414063 358.617188 L 144.414063 354.738281 L 147.65625 355.386719 L 149.945313 355.285156 L 150.828125 355.070313 L 151.039063 355.578125 L 155.546875 356.503906 L 154.066406 358.859375 L 150.984375 360.816406 L 147.425781 363.976563 L 146.109375 363.875 Z M 160.5625 292.726563 L 158.519531 292.710938 L 156.261719 293.078125 L 155.882813 293.222656 L 155.160156 292.984375 L 152.828125 291.292969 L 153.539063 290.957031 L 157.945313 287.386719 L 159.921875 284.953125 L 161.9375 284.128906 L 163.765625 282.945313 L 166.195313 280.316406 L 167.675781 277.199219 L 167.773438 279.511719 L 168.324219 281.757813 L 169.246094 283.738281 L 169.460938 284.035156 L 169.453125 284.03125 L 168.226563 288.992188 L 166.234375 288.695313 L 163.3125 290.011719 L 161.832031 291.855469 Z M 149.75 294.792969 L 149.625 294.523438 L 148.292969 292.707031 L 149.339844 292.492188 L 149.574219 292.960938 Z M 208.070313 171.15625 L 207 173.175781 L 206.320313 175.488281 L 206.132813 177.886719 L 206.445313 180.277344 L 202.570313 179.613281 L 198.691406 180.277344 L 198.035156 176.429688 L 196.066406 172.914063 L 199.132813 173.75 L 202.3125 173.726563 L 205.367188 172.839844 Z M 189 168.808594 L 190.9375 168.644531 L 191.628906 169.578125 Z M 175.429688 168.644531 L 179.71875 168.785156 L 176.488281 170.542969 L 174.042969 173.117188 L 173.015625 170.6875 L 172.113281 169.425781 L 173.152344 168.644531 Z M 171.554688 184.152344 L 172.4375 183.03125 L 173.664063 185.804688 Z M 156.046875 164.769531 L 156.15625 164.941406 L 155.410156 165.398438 Z M 148.214844 168.433594 L 151.300781 167.832031 L 154.003906 166.5 L 152.167969 168.644531 L 148.292969 168.644531 Z M 121.152344 265.570313 L 121.152344 257.816406 L 122.613281 257.558594 L 121.183594 263.964844 L 121.628906 265.140625 Z M 125.476563 256.582031 L 127.335938 255.410156 L 128.90625 253.9375 L 129.789063 256.207031 L 131.207031 258.339844 L 132.953125 260.035156 L 132.996094 260.058594 L 133.011719 261.664063 L 132.785156 261.691406 L 129.359375 261.402344 L 126.875 261.847656 L 126.582031 261.613281 Z M 286.679688 439.636719 L 283.058594 438.976563 L 282.164063 437.605469 L 282.484375 436.070313 L 286.839844 437.054688 L 287.960938 438.832031 Z M 236.835938 466.113281 L 235.136719 465.644531 L 236.523438 463.683594 L 237.195313 464.164063 L 237.5 465.839844 Z M 236.835938 466.113281 "/>
<path style=" stroke:none;fill-rule:nonzero;fill:rgb(80.392157%,58.431373%,4.705882%);fill-opacity:1;" d="M 142.476563 160.890625 L 142.191406 162.6875 L 141.367188 164.308594 L 140.078125 165.597656 L 138.457031 166.421875 L 136.660156 166.707031 L 134.863281 166.421875 L 133.242188 165.597656 L 131.957031 164.308594 L 131.128906 162.6875 L 130.847656 160.890625 L 131.128906 159.09375 L 131.957031 157.472656 L 132.882813 156.546875 L 134.503906 157.136719 L 136.507813 158.589844 L 137.039063 159.417969 L 137.175781 158.679688 L 135.335938 155.289063 L 136.660156 155.078125 L 138.457031 155.363281 L 140.078125 156.1875 L 141.367188 157.472656 L 142.191406 159.09375 Z M 142.476563 160.890625 "/>
<path style=" stroke:none;fill-rule:nonzero;fill:rgb(80.392157%,58.431373%,4.705882%);fill-opacity:1;" d="M 146.355469 238.429688 L 146.070313 240.226563 L 145.109375 241.984375 L 141.261719 240.453125 L 140.441406 240.5625 L 139.386719 240.085938 L 139.183594 238.121094 L 139.414063 236.460938 L 140.238281 234.648438 L 139.292969 234.9375 L 138.320313 240.257813 L 137.070313 243.085938 L 135.832031 241.847656 L 135.007813 240.226563 L 134.722656 238.429688 L 135.007813 236.632813 L 135.832031 235.011719 L 137.121094 233.726563 L 138.742188 232.898438 L 140.539063 232.617188 L 142.335938 232.898438 L 143.957031 233.726563 L 145.242188 235.011719 L 146.070313 236.632813 Z M 144.292969 242.796875 L 142.335938 243.960938 L 140.539063 244.246094 L 138.484375 243.832031 L 138.6875 242.234375 L 140.710938 241.59375 Z M 144.292969 242.796875 "/>
<path style=" stroke:none;fill-rule:nonzero;fill:rgb(80.392157%,58.431373%,4.705882%);fill-opacity:1;" d="M 154.027344 130.375 L 153.824219 131.675781 L 152.996094 133.296875 L 151.710938 134.582031 L 150.089844 135.40625 L 148.292969 135.691406 L 146.496094 135.40625 L 144.875 134.582031 L 143.585938 133.296875 L 142.761719 131.675781 L 142.476563 129.875 L 142.761719 128.078125 L 143.464844 126.703125 L 145.976563 127.269531 L 147.488281 129.277344 L 147.992188 130.773438 L 145.957031 133.847656 L 146.042969 134.238281 L 149.632813 130.886719 L 149.902344 129.097656 L 150.597656 128.644531 L 152.578125 129.367188 L 153.359375 129.816406 L 153.609375 130.328125 Z M 154.027344 130.375 "/>
<path style=" stroke:none;fill-rule:nonzero;fill:rgb(80.392157%,58.431373%,4.705882%);fill-opacity:1;" d="M 111.460938 242.308594 L 111.175781 244.105469 L 109.722656 246.355469 L 109.476563 246.144531 L 109.292969 243.285156 L 109.585938 242.089844 L 110.886719 239.9375 Z M 108.976563 247.054688 L 107.441406 247.839844 L 105.644531 248.125 L 104.835938 247.996094 L 104.988281 247.472656 L 102.980469 247.105469 L 102.851563 247.328125 L 100.941406 245.726563 L 100.386719 244.636719 L 100.660156 243.785156 L 102.445313 243.214844 L 103.882813 243.558594 L 106.871094 241.457031 L 108.433594 240.808594 Z M 108.976563 247.054688 "/>
<path style=" stroke:none;fill-rule:nonzero;fill:rgb(80.392157%,58.431373%,4.705882%);fill-opacity:1;" d="M 147.992188 317.859375 L 146.496094 317.625 L 144.875 316.796875 L 143.585938 315.511719 L 142.824219 314.011719 L 144.765625 310.230469 L 145.863281 309.40625 L 149.046875 308.269531 L 150.203125 313.453125 Z M 147.992188 317.859375 "/>
<path style=" stroke:none;fill-rule:nonzero;fill:rgb(80.392157%,58.431373%,4.705882%);fill-opacity:1;" d="M 181.292969 114.675781 L 181.53125 112.570313 L 182.355469 110.949219 L 183.644531 109.664063 L 185.265625 108.839844 L 186.367188 108.664063 L 187.324219 111.371094 L 189.425781 112.382813 L 190.734375 113.441406 L 191.546875 114.902344 L 189.996094 116.5625 L 186.777344 113.90625 L 184.832031 114.03125 L 181.886719 115.097656 Z M 188.589844 119.941406 L 187.0625 120.183594 L 185.546875 119.945313 L 185.203125 119.125 L 185.941406 118.488281 L 188.300781 118.292969 L 188.792969 119.078125 Z M 188.589844 119.941406 "/>
<path style=" stroke:none;fill-rule:nonzero;fill:rgb(80.392157%,58.431373%,4.705882%);fill-opacity:1;" d="M 139.320313 318.101563 L 140.539063 317.90625 L 142.335938 318.191406 L 143.957031 319.019531 L 145.378906 320.574219 L 141.859375 323.019531 L 139.824219 322.464844 L 137.933594 323.433594 L 137.675781 322.921875 Z M 139.320313 318.101563 "/>
<path style=" stroke:none;fill-rule:nonzero;fill:rgb(80.392157%,58.431373%,4.705882%);fill-opacity:1;" d="M 150.054688 313.75 L 148.292969 314.03125 L 146.496094 313.746094 L 144.875 312.921875 L 143.890625 311.933594 L 144.765625 310.230469 L 145.863281 309.40625 L 149.046875 308.269531 L 150.203125 313.453125 Z M 150.054688 313.75 "/>
<path style=" stroke:none;fill-rule:nonzero;fill:rgb(80.392157%,58.431373%,4.705882%);fill-opacity:1;" d="M 224.949219 69.644531 L 222.757813 68.851563 L 223.429688 67.644531 L 224.308594 63.570313 L 223.730469 58.59375 L 225.832031 58.152344 L 227.246094 61.769531 L 226.800781 62.460938 L 226.285156 62.238281 L 225.40625 63.738281 Z M 220.765625 61.257813 L 222.183594 59.492188 L 222.21875 59.898438 Z M 220.765625 61.257813 "/>
<path style=" stroke:none;fill-rule:nonzero;fill:rgb(80.392157%,58.431373%,4.705882%);fill-opacity:1;" d="M 139.167969 318.554688 L 140.078125 319.019531 L 141.367188 320.304688 L 142.191406 321.925781 L 142.316406 322.703125 L 141.859375 323.019531 L 139.824219 322.464844 L 137.933594 323.433594 L 137.675781 322.921875 Z M 139.167969 318.554688 "/>
<path style=" stroke:none;fill-rule:nonzero;fill:rgb(80.392157%,58.431373%,4.705882%);fill-opacity:1;" d="M 198.269531 98.070313 L 199.601563 99.480469 L 197.464844 100.832031 L 194.695313 101.191406 L 193.226563 103.421875 L 193.136719 102.113281 L 195.332031 98.847656 L 196.15625 98.316406 Z M 198.269531 98.070313 "/>
<path style=" stroke:none;fill-rule:nonzero;fill:rgb(80.392157%,58.431373%,4.705882%);fill-opacity:1;" d="M 110.160156 200.433594 L 108.972656 199.578125 L 108.9375 198.890625 L 110.578125 197.179688 L 111.398438 197.769531 L 111.5 198.265625 L 111.128906 199.855469 Z M 105.003906 196.058594 L 106.105469 194.957031 L 108.402344 194.023438 L 108.09375 196.351563 L 107.546875 197.015625 L 106.597656 197.398438 L 105.582031 196.804688 Z M 105.003906 196.058594 "/>
<path style=" stroke:none;fill-rule:nonzero;fill:rgb(80.392157%,58.431373%,4.705882%);fill-opacity:1;" d="M 106.976563 236.632813 L 105.476563 236.191406 L 106.28125 234.464844 L 107.839844 232.910156 L 108.882813 232.734375 L 107.535156 236.1875 Z M 106.976563 236.632813 "/>
<path style=" stroke:none;fill-rule:nonzero;fill:rgb(80.392157%,58.431373%,4.705882%);fill-opacity:1;" d="M 88.429688 500.046875 L 88.566406 499.308594 L 88.941406 499.117188 L 89.34375 499.789063 Z M 88.429688 500.046875 "/>
</g>
</svg>
