<?xml version="1.0" encoding="UTF-8"?>
<svg xmlns="http://www.w3.org/2000/svg" xmlns:xlink="http://www.w3.org/1999/xlink" width="378pt" height="504pt" viewBox="0 0 378 504" version="1.1">
<g id="data">
<rect x="0" y="0" width="378" height="504" style="fill:rgb(100%,100%,100%);fill-opacity:1;stroke:none;"/>
<path style=" stroke:none;fill-rule:nonzero;fill:rgb(100%,100%,100%);fill-opacity:1;" d="M 53.308594 504 L 324.691406 504 L 324.691406 0 L 53.308594 0 Z M 53.308594 504 "/>
<path style=" stroke:none;fill-rule:nonzero;fill:rgb(22.745098%,53.333333%,16.078431%);fill-opacity:1;" d="M 276.230469 389.628906 L 276.230469 385.753906 L 276.527344 383.722656 L 280.109375 385.753906 L 280.742188 388.757813 L 282.214844 391.59375 L 284.40625 393.925781 L 287.148438 395.570313 L 290.363281 396.421875 L 293.683594 396.328125 L 296.847656 395.300781 L 299.492188 393.507813 L 299.1875 396.679688 L 299.753906 399.816406 L 301.222656 402.785156 L 303.371094 405.136719 L 301.199219 406.84375 L 299.492188 409.015625 L 296.328125 406.503906 L 294.105469 405.582031 L 291.738281 405.136719 L 288.738281 402.578125 L 284.929688 401.144531 L 282 400.972656 L 278.109375 401.601563 L 275.519531 402.625 L 273.34375 404.148438 L 275.042969 401.632813 L 276.035156 398.765625 L 276.390625 395.632813 Z M 249.09375 440.03125 L 248.445313 443.234375 L 247.285156 440.855469 Z M 249.09375 440.03125 "/>
<path style=" stroke:none;fill-rule:nonzero;fill:rgb(80.392157%,58.431373%,4.705882%);fill-opacity:1;" d="M 239.398438 346.984375 L 239.117188 348.78125 L 238.289063 350.402344 L 237.003906 351.6875 L 235.382813 352.515625 L 233.585938 352.800781 L 231.789063 352.515625 L 230.167969 351.6875 L 228.878906 350.402344 L 228.054688 348.78125 L 227.769531 346.984375 L 228.054688 345.1875 L 228.878906 343.566406 L 230.167969 342.28125 L 231.789063 341.453125 L 233.585938 341.167969 L 235.382813 341.453125 L 237.003906 342.28125 L 238.289063 343.566406 L 239.117188 345.1875 Z M 239.398438 346.984375 "/>
<path style=" stroke:none;fill-rule:nonzero;fill:rgb(80.392157%,58.431373%,4.705882%);fill-opacity:1;" d="M 239.398438 343.109375 L 239.117188 344.90625 L 238.289063 346.527344 L 237.003906 347.8125 L 235.382813 348.636719 L 233.585938 348.921875 L 231.789063 348.636719 L 230.167969 347.8125 L 228.878906 346.527344 L 228.054688 344.90625 L 227.769531 343.109375 L 228.054688 341.3125 L 228.878906 339.691406 L 230.167969 338.402344 L 231.789063 337.578125 L 233.585938 337.292969 L 235.382813 337.578125 L 237.003906 338.402344 L 238.289063 339.691406 L 239.117188 341.3125 Z M 239.398438 343.109375 "/>
<path style=" stroke:none;fill-rule:nonzero;fill:rgb(80.392157%,58.431373%,4.705882%);fill-opacity:1;" d="M 235.523438 327.601563 L 235.238281 329.398438 L 234.414063 331.019531 L 233.125 332.304688 L 231.503906 333.128906 L 229.707031 333.414063 L 227.910156 333.128906 L 226.289063 332.304688 L 225.003906 331.019531 L 224.175781 329.398438 L 223.890625 327.601563 L 224.175781 325.804688 L 225.003906 324.183594 L 226.289063 322.894531 L 227.910156 322.070313 L 229.707031 321.785156 L 231.503906 322.070313 L 233.125 322.894531 L 234.414063 324.183594 L 235.238281 325.804688 Z M 235.523438 327.601563 "/>
<path style=" stroke:none;fill-rule:nonzero;fill:rgb(80.392157%,58.431373%,4.705882%);fill-opacity:1;" d="M 239.398438 436.152344 L 239.117188 437.949219 L 238.289063 439.570313 L 237.003906 440.859375 L 235.382813 441.683594 L 233.585938 441.96875 L 231.789063 441.683594 L 230.167969 440.859375 L 228.878906 439.570313 L 228.054688 437.949219 L 227.769531 436.152344 L 228.054688 434.355469 L 228.878906 432.734375 L 230.167969 431.449219 L 231.789063 430.625 L 233.585938 430.339844 L 235.382813 430.625 L 237.003906 431.449219 L 238.289063 432.734375 L 239.117188 434.355469 Z M 239.398438 436.152344 "/>
<path style=" stroke:none;fill-rule:nonzero;fill:rgb(80.392157%,58.431373%,4.705882%);fill-opacity:1;" d="M 278.167969 374.125 L 277.882813 375.921875 L 277.058594 377.542969 L 275.773438 378.828125 L 274.152344 379.652344 L 272.355469 379.9375 L 270.558594 379.652344 L 268.636719 378.527344 L 270.625 378.746094 L 271.910156 376.796875 L 272.234375 374.960938 L 273.40625 371.914063 L 274.707031 370.632813 L 276.648438 370.292969 L 277.058594 370.703125 L 277.882813 372.324219 Z M 278.167969 374.125 "/>
</g>
</svg>
