<?xml version="1.0" encoding="UTF-8"?>
<svg xmlns="http://www.w3.org/2000/svg" xmlns:xlink="http://www.w3.org/1999/xlink" width="378pt" height="504pt" viewBox="0 0 378 504" version="1.1">
<g id="data">
<rect x="0" y="0" width="378" height="504" style="fill:rgb(100%,100%,100%);fill-opacity:1;stroke:none;"/>
<path style=" stroke:none;fill-rule:nonzero;fill:rgb(100%,100%,100%);fill-opacity:1;" d="M 53.308594 504 L 324.691406 504 L 324.691406 0 L 53.308594 0 Z M 53.308594 504 "/>
<path style=" stroke:none;fill-rule:nonzero;fill:rgb(22.745098%,53.333333%,16.078431%);fill-opacity:1;" d="M 270.417969 389.785156 L 270.414063 389.628906 L 270.414063 385.753906 L 270.476563 384.914063 L 270.773438 382.882813 L 271.339844 381.097656 L 272.445313 379.582031 L 273.972656 378.5 L 275.765625 377.957031 L 277.640625 378.015625 L 279.398438 378.664063 L 282.976563 380.695313 L 284.265625 381.6875 L 285.226563 382.996094 L 285.789063 384.519531 L 286.296875 386.855469 L 287.050781 388.265625 L 288.078125 389.34375 L 289.433594 390.160156 L 291.039063 390.585938 L 292.699219 390.539063 L 294.179688 390.066406 L 296.253906 388.675781 L 297.953125 387.898438 L 299.808594 387.699219 L 301.632813 388.101563 L 303.238281 389.058594 L 304.453125 390.472656 L 305.160156 392.203125 L 305.28125 394.066406 L 305.050781 396.4375 L 305.332031 397.972656 L 305.5 398.3125 L 303.519531 407.832031 L 297.296875 414.371094 L 296.910156 414.152344 L 295.578125 412.011719 L 292.742188 410.515625 L 292.480469 410.636719 L 292.804688 411.339844 L 292.4375 411.1875 L 290.667969 410.855469 L 289.246094 410.390625 L 287.988281 409.582031 L 285.65625 407.613281 L 283.726563 406.898438 L 282.300781 406.816406 L 279.644531 407.246094 L 278.378906 407.738281 L 276.652344 408.933594 L 275.046875 409.710938 L 273.28125 409.964844 L 271.523438 409.671875 L 269.933594 408.863281 L 268.667969 407.609375 L 267.839844 406.03125 L 267.527344 404.273438 L 267.765625 402.507813 L 268.523438 400.894531 L 269.796875 399.011719 L 270.328125 397.46875 L 270.566406 395.382813 Z M 246.683594 434.738281 L 248.433594 434.253906 L 250.25 434.332031 L 251.953125 434.96875 L 253.375 436.097656 L 254.382813 437.613281 L 254.871094 439.363281 L 254.792969 441.179688 L 254.148438 444.382813 L 253.523438 446.074219 L 252.410156 447.492188 L 250.917969 448.5 L 249.1875 449.003906 L 247.386719 448.953125 L 245.6875 448.355469 L 244.25 447.261719 L 243.21875 445.785156 L 242.058594 443.402344 L 241.519531 441.632813 L 241.566406 439.785156 L 242.195313 438.042969 L 243.335938 436.585938 L 244.875 435.5625 Z M 246.683594 434.738281 "/>
<path style=" stroke:none;fill-rule:nonzero;fill:rgb(80.392157%,58.431373%,4.705882%);fill-opacity:1;" d="M 235.523438 327.601563 L 235.238281 329.398438 L 234.414063 331.019531 L 233.125 332.304688 L 231.503906 333.128906 L 229.707031 333.414063 L 227.910156 333.128906 L 226.289063 332.304688 L 225.003906 331.019531 L 224.175781 329.398438 L 223.890625 327.601563 L 224.175781 325.804688 L 225.003906 324.183594 L 226.289063 322.894531 L 227.910156 322.070313 L 229.707031 321.785156 L 231.503906 322.070313 L 233.125 322.894531 L 234.414063 324.183594 L 235.238281 325.804688 Z M 235.523438 327.601563 "/>
<path style=" stroke:none;fill-rule:nonzero;fill:rgb(80.392157%,58.431373%,4.705882%);fill-opacity:1;" d="M 239.398438 343.109375 L 239.117188 344.90625 L 238.289063 346.527344 L 237.003906 347.8125 L 235.382813 348.636719 L 233.585938 348.921875 L 231.789063 348.636719 L 230.167969 347.8125 L 228.878906 346.527344 L 228.054688 344.90625 L 227.769531 343.109375 L 228.054688 341.3125 L 228.878906 339.691406 L 230.167969 338.402344 L 231.789063 337.578125 L 233.585938 337.292969 L 235.382813 337.578125 L 237.003906 338.402344 L 238.289063 339.691406 L 239.117188 341.3125 Z M 239.398438 343.109375 "/>
<path style=" stroke:none;fill-rule:nonzero;fill:rgb(80.392157%,58.431373%,4.705882%);fill-opacity:1;" d="M 239.398438 346.984375 L 239.117188 348.78125 L 238.289063 350.402344 L 237.003906 351.6875 L 235.382813 352.515625 L 233.585938 352.800781 L 231.789063 352.515625 L 230.167969 351.6875 L 228.878906 350.402344 L 228.054688 348.78125 L 227.769531 346.984375 L 228.054688 345.1875 L 228.878906 343.566406 L 230.167969 342.28125 L 231.789063 341.453125 L 233.585938 341.167969 L 235.382813 341.453125 L 237.003906 342.28125 L 238.289063 343.566406 L 239.117188 345.1875 Z M 239.398438 346.984375 "/>
<path style=" stroke:none;fill-rule:nonzero;fill:rgb(80.392157%,58.431373%,4.705882%);fill-opacity:1;" d="M 239.398438 436.152344 L 239.117188 437.949219 L 238.289063 439.570313 L 237.003906 440.859375 L 235.382813 441.683594 L 233.585938 441.96875 L 231.789063 441.683594 L 230.167969 440.859375 L 228.878906 439.570313 L 228.054688 437.949219 L 227.769531 436.152344 L 228.054688 434.355469 L 228.878906 432.734375 L 230.167969 431.449219 L 231.789063 430.625 L 233.585938 430.339844 L 235.382813 430.625 L 237.003906 431.449219 L 238.289063 432.734375 L 239.117188 434.355469 Z M 239.398438 436.152344 "/>
</g>
</svg>
