<?xml version="1.0" encoding="UTF-8"?>
<svg xmlns="http://www.w3.org/2000/svg" xmlns:xlink="http://www.w3.org/1999/xlink" width="378pt" height="504pt" viewBox="0 0 378 504" version="1.1">
<g id="data">
<rect x="0" y="0" width="378" height="504" style="fill:rgb(100%,100%,100%);fill-opacity:1;stroke:none;"/>
<path style=" stroke:none;fill-rule:nonzero;fill:rgb(100%,100%,100%);fill-opacity:1;" d="M 53.308594 504 L 324.691406 504 L 324.691406 0 L 53.308594 0 Z M 53.308594 504 "/>
<path style=" stroke:none;fill-rule:nonzero;fill:rgb(22.745098%,53.333333%,16.078431%);fill-opacity:1;" d="M 303.984375 393.691406 L 304.902344 395.25 L 305.296875 397.019531 L 305.128906 398.820313 L 304.414063 400.484375 L 303.222656 401.84375 L 301.671875 402.777344 L 299.910156 403.183594 L 298.105469 403.03125 L 296.4375 402.332031 L 295.0625 401.152344 L 293.71875 399.574219 L 292.042969 398.359375 L 290.734375 397.046875 L 289.90625 395.390625 L 289.640625 393.554688 L 289.964844 391.734375 L 290.84375 390.101563 L 292.195313 388.832031 L 293.875 388.054688 L 294.144531 387.976563 L 295.917969 387.761719 L 297.671875 388.09375 L 299.242188 388.945313 L 300.941406 390.238281 L 301.914063 391.171875 Z M 270.414063 389.628906 L 270.6875 387.878906 L 271.472656 386.289063 L 272.699219 385.011719 L 274.253906 384.160156 L 275.992188 383.820313 L 277.753906 384.019531 L 279.375 384.738281 L 280.703125 385.914063 L 282.402344 387.957031 L 285.625 390.296875 L 286.976563 391.671875 L 287.800781 393.414063 L 288.015625 395.332031 L 287.585938 397.210938 L 286.570313 398.847656 L 284.46875 401.230469 L 283.75 401.917969 L 281.949219 403.367188 L 280.839844 404.808594 L 279.535156 406.046875 L 277.914063 406.828125 L 276.132813 407.074219 L 274.359375 406.765625 L 272.765625 405.929688 L 271.503906 404.648438 L 270.695313 403.039063 L 270.414063 401.261719 Z M 270.414063 389.628906 "/>
</g>
</svg>
