<?xml version="1.0" encoding="UTF-8"?>
<svg xmlns="http://www.w3.org/2000/svg" xmlns:xlink="http://www.w3.org/1999/xlink" width="378pt" height="504pt" viewBox="0 0 378 504" version="1.1">
<g id="data">
<rect x="0" y="0" width="378" height="504" style="fill:rgb(100%,100%,100%);fill-opacity:1;stroke:none;"/>
<path style=" stroke:none;fill-rule:nonzero;fill:rgb(100%,100%,100%);fill-opacity:1;" d="M 53.308594 504 L 324.691406 504 L 324.691406 0 L 53.308594 0 Z M 53.308594 504 "/>
<path style=" stroke:none;fill-rule:nonzero;fill:rgb(22.745098%,53.333333%,16.078431%);fill-opacity:1;" d="M 276.230469 397.382813 L 276.230469 389.628906 L 277.9375 391.800781 L 280.109375 393.507813 L 277.9375 395.214844 Z M 276.230469 397.382813 "/>
<path style=" stroke:none;fill-rule:nonzero;fill:rgb(80.392157%,58.431373%,4.705882%);fill-opacity:1;" d="M 227.769531 424.523438 L 227.484375 426.320313 L 226.660156 427.941406 L 225.371094 429.226563 L 223.75 430.054688 L 221.953125 430.339844 L 220.15625 430.054688 L 218.535156 429.226563 L 217.25 427.941406 L 216.421875 426.320313 L 216.136719 424.523438 L 216.421875 422.726563 L 217.25 421.105469 L 218.535156 419.816406 L 220.15625 418.992188 L 221.953125 418.707031 L 223.75 418.992188 L 225.371094 419.816406 L 226.660156 421.105469 L 227.484375 422.726563 Z M 227.769531 424.523438 "/>
</g>
</svg>
