<?xml version="1.0" encoding="UTF-8"?>
<svg xmlns="http://www.w3.org/2000/svg" xmlns:xlink="http://www.w3.org/1999/xlink" width="378pt" height="504pt" viewBox="0 0 378 504" version="1.1">
<g id="data">
<rect x="0" y="0" width="378" height="504" style="fill:rgb(100%,100%,100%);fill-opacity:1;stroke:none;"/>
<path style=" stroke:none;fill-rule:nonzero;fill:rgb(100%,100%,100%);fill-opacity:1;" d="M 53.308594 504 L 324.691406 504 L 324.691406 0 L 53.308594 0 Z M 53.308594 504 "/>
<path style=" stroke:none;fill-rule:nonzero;fill:rgb(22.745098%,53.333333%,16.078431%);fill-opacity:1;" d="M 116.460938 268.949219 L 115.652344 267.449219 L 115.339844 265.570313 L 115.339844 264.636719 L 117.226563 262.640625 L 117.992188 256.269531 L 119.449219 252.339844 L 120.144531 252.089844 L 121.71875 251.8125 L 122.792969 251.398438 L 123.765625 250.785156 L 124.933594 249.695313 L 126.132813 248.890625 L 126.1875 249.699219 L 124.449219 251.558594 L 123.367188 254.191406 L 121.183594 263.964844 L 122.0625 266.289063 L 120.679688 268.164063 L 119.945313 268.597656 Z M 142.03125 256.335938 L 143.625 255.800781 L 144.652344 255.222656 L 145.496094 254.492188 L 146.503906 253.042969 L 147.023438 251.476563 L 147.078125 249.816406 L 146.460938 247.417969 L 146.292969 245.539063 L 146.734375 243.703125 L 147.050781 243.207031 L 148.300781 243.253906 L 147.277344 242.847656 L 147.742188 242.109375 L 149.207031 240.917969 L 150.976563 240.261719 L 153.292969 239.8125 L 154.691406 239.109375 L 156.472656 237.496094 L 157.453125 236.03125 L 157.824219 235.023438 L 158.171875 233.078125 L 158.140625 230.921875 L 157.4375 228.996094 L 155.480469 226.675781 L 154.574219 225.203125 L 154.140625 223.535156 L 154.214844 221.8125 L 154.792969 220.1875 L 155.820313 218.800781 L 157.210938 217.78125 L 158.839844 217.210938 L 160.5625 217.144531 L 162.230469 217.585938 L 164.074219 218.382813 L 165.386719 218.617188 L 166.71875 218.542969 L 168.269531 218.085938 L 170.871094 216.917969 L 172.074219 216.046875 L 173.0625 214.851563 L 174.015625 212.761719 L 175.046875 211.210938 L 176.511719 210.070313 L 178.265625 209.449219 L 179.960938 209.140625 L 180.949219 208.757813 L 181.84375 208.199219 L 183.109375 207.027344 L 184.539063 206.050781 L 186.195313 205.542969 L 187.925781 205.542969 L 189.582031 206.050781 L 191.015625 207.027344 L 192.277344 208.199219 L 193.164063 208.746094 L 194.25 209.164063 L 195.824219 209.441406 L 197.167969 209.921875 L 197.078125 210.023438 L 197.433594 210.839844 L 197.785156 210.703125 L 197.761719 211.238281 L 196.796875 214.386719 L 195.867188 215.914063 L 191.214844 219.742188 L 185.519531 221.085938 L 182.847656 221.226563 L 177.804688 225.21875 L 178.117188 225.714844 L 179.84375 225.195313 L 184.609375 222.886719 L 186.457031 221.386719 L 187.289063 221.316406 L 189.085938 221.875 L 189.332031 222.921875 L 188.898438 224.691406 L 189.238281 225.953125 L 190.898438 226.824219 L 192.988281 227.191406 L 194.445313 228.726563 L 194.429688 229.304688 L 192.117188 231.570313 L 189.460938 232.730469 L 188.34375 232.882813 L 187.070313 232.078125 L 185.40625 232.042969 L 181.046875 235.800781 L 180.578125 237.003906 L 174.761719 240.109375 L 170.214844 238.117188 L 166.480469 238.003906 L 166.738281 239.222656 L 168.246094 240.195313 L 178.0625 241.875 L 182.921875 243.167969 L 186.398438 241.730469 L 187.519531 239.417969 L 188.617188 238.355469 L 189.539063 238.171875 L 193.183594 238.5 L 199.339844 242.761719 L 206.488281 246.65625 L 208.910156 251.429688 L 212.824219 256.707031 L 213.265625 256.828125 L 213.433594 256.585938 L 214.601563 257.097656 L 217.371094 258.992188 L 218.679688 263.09375 L 218.894531 265.933594 L 218.261719 267.402344 L 219.75 274.464844 L 219.738281 274.964844 L 220.015625 276.894531 L 220.65625 278.890625 L 220.941406 279.355469 L 221.269531 280.457031 L 222.984375 284.039063 L 223.773438 285.027344 L 225.945313 294.183594 L 229.304688 299.0625 L 238.746094 303.46875 L 238.398438 304.613281 L 238.410156 306.398438 L 238.964844 308.09375 L 239.9375 309.457031 L 241.347656 310.527344 L 243.109375 311.132813 L 244.863281 311.164063 L 247.226563 310.457031 L 247.265625 310.527344 L 249.289063 315.722656 L 252.390625 319.148438 L 253.800781 319.800781 L 253.597656 320.292969 L 253.402344 321.914063 L 253.605469 323.324219 L 254.023438 324.324219 L 253.890625 324.554688 L 253.765625 325.996094 L 254.777344 329.308594 L 254.660156 330.609375 L 254.964844 332.203125 L 255.453125 333.230469 L 257.351563 335.40625 L 258.328125 336.96875 L 259.035156 338.648438 L 259.664063 339.546875 L 261.003906 340.710938 L 262.578125 341.4375 L 263.316406 342.46875 L 263.640625 343.980469 L 262.804688 345.191406 L 263.28125 343.65625 L 262.507813 342.839844 L 260.445313 342 L 258.378906 342.789063 L 257.507813 342.753906 L 256.035156 341.773438 L 253.664063 338.65625 L 252.601563 338.082031 L 245.550781 339.511719 L 244.589844 338.644531 L 243.40625 338.558594 L 241.210938 339.871094 L 241.886719 340.445313 L 246.324219 340.394531 L 249.617188 339.34375 L 251.976563 339.082031 L 254.382813 342.558594 L 260.535156 347.621094 L 263.042969 349.058594 L 263.664063 349.039063 L 266.046875 352.214844 L 268.980469 359.304688 L 269.535156 362.402344 L 269.210938 365.21875 L 264.953125 369.09375 L 261.394531 373.164063 L 260.601563 374.816406 L 262.84375 374.3125 L 264.9375 375.519531 L 266.9375 378.226563 L 270.21875 378.804688 L 270.625 378.746094 L 271.910156 376.796875 L 272.234375 374.960938 L 273.40625 371.914063 L 274.707031 370.632813 L 277.851563 370.085938 L 283.34375 370.234375 L 284.253906 370.867188 L 286.703125 370.742188 L 293.949219 371.515625 L 296.914063 372.84375 L 304.070313 378.085938 L 305.367188 380.105469 L 306.730469 384.164063 L 307.179688 391.25 L 306.777344 393.191406 L 306.890625 393.976563 L 305.789063 396.917969 L 303.519531 407.832031 L 297.144531 414.53125 L 295.578125 412.011719 L 292.742188 410.515625 L 292.480469 410.636719 L 293.898438 413.703125 L 295.890625 416.628906 L 296.3125 416.765625 L 296.164063 417.742188 L 294.574219 419.804688 L 292.191406 421.289063 L 290.003906 421.65625 L 289.660156 421.574219 L 288.214844 419.332031 L 284.976563 421.730469 L 280.71875 424.230469 L 282.339844 425.378906 L 285.105469 424.398438 L 286.097656 423.375 L 286.894531 423.164063 L 287.328125 423.710938 L 287.632813 428.84375 L 285.6875 430.875 L 283.441406 432.558594 L 282.84375 432.699219 L 279.644531 432.160156 L 274.75 433.78125 L 272.609375 436.117188 L 274.253906 436.015625 L 275.152344 434.667969 L 276.683594 434.363281 L 278.285156 434.328125 L 281.054688 434.949219 L 281.828125 435.589844 L 281.691406 436.328125 L 279.554688 436.347656 L 277.390625 437.65625 L 277.96875 438.546875 L 281.382813 438.964844 L 286.863281 440.339844 L 289.394531 439.9375 L 291.074219 438.957031 L 299.742188 437.757813 L 300.988281 440.148438 L 300.773438 446.324219 L 300.335938 447.820313 L 299.394531 449.050781 L 296.972656 450.242188 L 295.839844 450.375 L 292.621094 451.640625 L 291.179688 452.742188 L 289.847656 454.226563 L 289.460938 455.09375 L 289.214844 456.324219 L 289.464844 457.886719 L 286.253906 458.289063 L 284.1875 457.9375 L 281.042969 460.90625 L 278.484375 461.933594 L 274.789063 462.777344 L 272.597656 463.816406 L 270.539063 466.589844 L 269.761719 466.949219 L 259.269531 463.777344 L 256.070313 463.507813 L 244.628906 465.699219 L 242.703125 466.390625 L 242.113281 466.964844 L 241.902344 467.984375 L 241.359375 468.164063 L 238.210938 466.1875 L 238.632813 465.4375 L 239.46875 464.933594 L 237.714844 463.296875 L 231.496094 463.171875 L 231.378906 463.496094 L 232.574219 464.835938 L 232.214844 465.75 L 231.738281 466.042969 L 226.691406 465.496094 L 219.566406 468.449219 L 217.054688 467.824219 L 210.222656 468.96875 L 208.164063 468.875 L 207.273438 468.058594 L 206.238281 469.769531 L 209.429688 471.089844 L 209.714844 470.9375 L 210.1875 472.128906 L 209.566406 473.890625 L 206.84375 474.453125 L 204.453125 473.097656 L 203.015625 472.699219 L 197.625 472.007813 L 196.175781 472.65625 L 195.679688 473.863281 L 195.832031 474.871094 L 196.757813 475.523438 L 196.488281 476.304688 L 195.917969 475.996094 L 194.851563 473.972656 L 190.289063 470.589844 L 185.898438 468.519531 L 183.121094 467.984375 L 181.648438 469.066406 L 176.207031 469.78125 L 174.339844 470.335938 L 168.992188 473.234375 L 168.214844 474.070313 L 167.203125 476.179688 L 162.746094 489.226563 L 160.929688 490.242188 L 158.269531 489.722656 L 157.554688 489.058594 L 156.527344 486.851563 L 154.683594 485.4375 L 153.613281 485.542969 L 152.417969 486.300781 L 151.738281 486.164063 L 148.46875 482.535156 L 142.796875 482.960938 L 141.527344 483.375 L 140.734375 484.175781 L 139.910156 484.507813 L 134.507813 484.320313 L 132.167969 484.859375 L 129.414063 488.195313 L 126.714844 489.746094 L 124.039063 490.597656 L 123.132813 494.289063 L 123.664063 495.292969 L 123.496094 496.125 L 122.722656 496.945313 L 120.660156 497.648438 L 119.628906 499.730469 L 118.675781 498.910156 L 117.96875 497.691406 L 118.09375 496.4375 L 117.15625 494.691406 L 115.984375 493.691406 L 112.253906 492.070313 L 111.410156 491.984375 L 110.375 492.488281 L 110.242188 494.183594 L 109.421875 495.128906 L 107.730469 495.476563 L 107.667969 495.285156 L 107.636719 493.515625 L 108.144531 491.820313 L 109.132813 490.355469 L 110.304688 489.089844 L 110.636719 488.5625 L 111.738281 488.078125 L 112.199219 488.253906 L 112.445313 488.9375 L 113.574219 489.15625 L 118.144531 485.910156 L 121.425781 483.085938 L 124.375 479.769531 L 125.210938 477.886719 L 124.875 476.421875 L 125.640625 474.519531 L 128.386719 473.238281 L 132.105469 472.640625 L 132.679688 471.785156 L 133.257813 469.527344 L 135.859375 467.5625 L 138.636719 464.640625 L 139.128906 458.542969 L 139.796875 454.753906 L 142.492188 455.105469 L 144.269531 456.015625 L 145.761719 455.429688 L 148.429688 452.488281 L 148.105469 447.519531 L 151.105469 446.613281 L 157.421875 446.269531 L 159.910156 445.683594 L 164.597656 446.761719 L 166.046875 446.148438 L 167.527344 446.515625 L 169.484375 447.285156 L 170.039063 448.109375 L 170.757813 448.421875 L 173.15625 448.464844 L 180.570313 447.503906 L 181.109375 445.632813 L 181.210938 443.15625 L 182.519531 440.25 L 190.867188 432.195313 L 195.792969 425.3125 L 197.929688 424.472656 L 198.285156 423.78125 L 198.070313 423.238281 L 197.8125 423.082031 L 196.09375 424.355469 L 192.90625 427.300781 L 190.570313 429.988281 L 189.222656 431.449219 L 185.628906 432.957031 L 183.714844 433.246094 L 182.441406 433.0625 L 178.394531 435.230469 L 177.398438 436.808594 L 177.039063 438.671875 L 176.445313 439.273438 L 174.058594 439.917969 L 170.558594 439.851563 L 166.820313 439 L 166.347656 438.652344 L 161.371094 433.375 L 159.03125 429.199219 L 155.65625 429.589844 L 149.269531 432.308594 L 149.113281 432.746094 L 147.203125 431.632813 L 146.917969 429.308594 L 148.539063 428.378906 L 150.066406 428.890625 L 151.640625 428.421875 L 152.765625 427.832031 L 153.085938 427.097656 L 152.808594 426.597656 L 147.785156 426.460938 L 143.210938 423.710938 L 139.503906 423.714844 L 136.765625 424.277344 L 136.292969 426.515625 L 135.777344 427.203125 L 133.742188 427.917969 L 132.394531 427.265625 L 131.648438 427.453125 L 129.4375 429.378906 L 126.53125 428.132813 L 127.425781 426.082031 L 128.796875 425.832031 L 131.792969 424.328125 L 131.226563 422.867188 L 130.640625 424.257813 L 127.769531 424.613281 L 122.949219 424.152344 L 121.496094 423.164063 L 124.125 421.78125 L 125.167969 421.753906 L 125.464844 421.238281 L 124.929688 417.953125 L 123.328125 417.210938 L 121.445313 417.105469 L 122.0625 415.152344 L 125.933594 413.378906 L 126.539063 411.90625 L 133.074219 411.34375 L 134.871094 409.289063 L 135.753906 407.632813 L 137.585938 406.550781 L 141.359375 406.660156 L 142.21875 406.390625 L 149.359375 401.828125 L 152.136719 398.207031 L 153.054688 396.195313 L 154.199219 391.746094 L 153.734375 388.820313 L 152.566406 386.542969 L 153.179688 384.597656 L 154.652344 381.796875 L 152.269531 378.203125 L 152.683594 374.835938 L 153.175781 374.082031 L 152.804688 373.207031 L 150.203125 373.105469 L 145.449219 374.257813 L 143.757813 375.484375 L 142.039063 378.097656 L 136.757813 378.433594 L 136.246094 378.0625 L 137.339844 376.066406 L 140.148438 373.019531 L 141.023438 372.414063 L 142.589844 371.953125 L 147.132813 367.984375 L 147.953125 364.523438 L 151.550781 360.582031 L 153.09375 359.609375 L 154.941406 359.808594 L 160.492188 357.457031 L 163.644531 357.28125 L 167.339844 357.714844 L 172.597656 355.179688 L 173.933594 355.046875 L 174.484375 355.082031 L 179.910156 359.441406 L 180.433594 358.429688 L 177.679688 353.460938 L 178.242188 352.835938 L 180.867188 352.449219 L 181.503906 352.695313 L 181.914063 353.875 L 182.898438 354.332031 L 184.078125 356.789063 L 185.613281 357.902344 L 188.359375 357.621094 L 190.335938 355.148438 L 189.90625 355.050781 L 188.667969 355.527344 L 188.3125 355.957031 L 186.378906 356.386719 L 183.8125 354.640625 L 179.976563 346.332031 L 183.371094 340.257813 L 185.429688 339.015625 L 185.140625 338.578125 L 182.683594 338.460938 L 181.554688 337.164063 L 181.355469 336.117188 L 181.601563 331.078125 L 181.949219 330.421875 L 184.695313 329.191406 L 187.28125 323.421875 L 187.71875 320.933594 L 187.855469 317.484375 L 184.742188 320.527344 L 181.707031 322.121094 L 181.636719 321.941406 L 181.316406 320.742188 L 180.890625 318.015625 L 180.339844 316.835938 L 179.128906 315.453125 L 177.480469 314.472656 L 175.859375 314.082031 L 172.691406 314.042969 L 172.289063 311.832031 L 167.40625 304.652344 L 169.164063 299.058594 L 174.074219 288.722656 L 176.464844 286.417969 L 178.757813 285.980469 L 180.191406 286.804688 L 181.015625 286.710938 L 182.933594 286.238281 L 183.03125 285.160156 L 182.34375 284.746094 L 180.035156 285.351563 L 174.65625 284.980469 L 172.566406 284.292969 L 169.453125 284.03125 L 168.226563 288.992188 L 166.234375 288.695313 L 163.3125 290.011719 L 161.832031 291.855469 L 159.410156 293.515625 L 156.15625 293.3125 L 155.160156 292.984375 L 149.984375 289.230469 L 149.214844 288.042969 L 149.230469 287.167969 L 148.945313 287.023438 L 148.15625 288.078125 L 147.988281 288.910156 L 148.375 290.554688 L 149.574219 292.960938 L 149.839844 295.726563 L 149.308594 296.871094 L 148.746094 297.058594 L 145.816406 295.78125 L 144.601563 294.238281 L 144.507813 293.621094 L 143.632813 292.355469 L 142.605469 291.886719 L 142.867188 290.613281 L 143.851563 288.953125 L 145.324219 287.707031 L 147.125 287.011719 L 149.167969 286.59375 L 150.421875 286 L 153.8125 283.25 L 155.410156 281.285156 L 156.457031 280.28125 L 157.722656 279.570313 L 159.230469 278.953125 L 160.003906 278.453125 L 161.269531 277.097656 L 162.4375 274.675781 L 163.546875 273.105469 L 165.105469 271.984375 L 166.949219 271.429688 L 168.867188 271.507813 L 170.660156 272.207031 L 172.125 273.453125 L 173.101563 275.105469 L 173.488281 276.988281 L 173.546875 278.609375 L 173.8125 279.746094 L 174.300781 280.804688 L 174.914063 281.664063 L 175.765625 282.460938 L 176.742188 283.070313 L 177.835938 283.476563 L 178.863281 283.644531 L 180.230469 283.59375 L 183.398438 282.933594 L 185.6875 281.898438 L 186.476563 281.234375 L 187.167969 280.359375 L 187.722656 279.25 L 188 278.203125 L 188.0625 276.804688 L 187.835938 275.566406 L 187.335938 274.398438 L 186.214844 272.839844 L 185.359375 271.09375 L 185.128906 269.160156 L 185.550781 267.257813 L 186.441406 265.058594 L 186.625 263.34375 L 186.410156 262.03125 L 185.585938 260.09375 L 185.203125 258.777344 L 184.703125 255.800781 L 184.1875 254.726563 L 183.355469 253.699219 L 182.21875 252.828125 L 180.992188 252.289063 L 175.671875 251.273438 L 173.332031 251.503906 L 172.039063 252.0625 L 170.902344 252.960938 L 170.019531 254.128906 L 169.171875 256.167969 L 168.335938 257.578125 L 167.140625 258.699219 L 165.679688 259.441406 L 164.070313 259.746094 L 162.4375 259.59375 L 160.660156 259.164063 L 159.445313 259.132813 L 158.253906 259.355469 L 157.222656 259.785156 L 155.882813 260.777344 L 154.871094 262.105469 L 154.28125 263.664063 L 154.089844 266.039063 L 153.695313 267.71875 L 152.828125 269.210938 L 151.558594 270.382813 L 150 271.128906 L 148.292969 271.382813 L 144.414063 271.382813 L 142.234375 270.960938 L 140.371094 269.75 L 139.019531 268.441406 L 138.90625 268.371094 L 140.917969 265.085938 L 143.644531 263.800781 L 144.390625 261.886719 L 144.195313 260.621094 L 142.601563 256.71875 Z M 201.921875 337.257813 L 201.398438 337.171875 L 199.71875 336.828125 L 198.488281 336.828125 L 197.300781 337.085938 L 196.195313 337.582031 L 195.203125 338.308594 L 194.453125 339.136719 L 193.835938 340.199219 L 193.449219 341.367188 L 193.320313 342.492188 L 193.414063 343.640625 L 193.738281 344.742188 L 194.25 345.722656 L 195.613281 347.351563 L 196.472656 348.101563 L 197.5625 348.722656 L 198.570313 349.054688 L 200.140625 349.207031 L 202.886719 348.914063 L 205.511719 348.058594 L 206.320313 347.5 L 207.152344 346.617188 L 207.773438 345.597656 L 208.195313 344.375 L 208.335938 343.109375 L 208.195313 341.855469 L 207.742188 340.5625 L 207.070313 339.5 L 206.179688 338.609375 L 205.019531 337.882813 L 203.828125 337.46875 Z M 167.976563 188.738281 L 166.730469 187.402344 L 165.960938 185.746094 L 165.742188 183.933594 L 166.097656 182.144531 L 166.988281 180.550781 L 167.875 179.429688 L 169.113281 178.261719 L 170.457031 177.59375 L 169.707031 176.992188 L 168.6875 175.378906 L 167.910156 173.546875 L 166.824219 172.03125 L 166.261719 170.910156 L 167.808594 170.273438 L 170.480469 169.527344 L 170.492188 169.949219 L 171.554688 169.839844 L 173.589844 168.316406 L 174.046875 166.78125 L 178.648438 166.167969 L 179.285156 167.089844 L 180.148438 167.667969 L 184.320313 169.011719 L 187.675781 167.128906 L 199.164063 168.988281 L 204.117188 168.914063 L 205.648438 167.671875 L 207.910156 167.828125 L 210.3125 168.835938 L 212.550781 172.800781 L 212.992188 174.292969 L 212.378906 175.464844 L 212.074219 176.527344 L 211.980469 177.738281 L 212.210938 179.523438 L 212.203125 179.875 L 209.382813 183.425781 L 208.351563 185.703125 L 207.269531 186.035156 L 205.460938 186.007813 L 202.570313 185.511719 L 199.675781 186.007813 L 197.855469 186.03125 L 196.117188 185.492188 L 194.628906 184.4375 L 193.542969 182.976563 L 192.960938 181.253906 L 192.472656 178.394531 L 190.992188 175.761719 L 190.816406 175.269531 L 189.988281 175.160156 L 187.363281 174.390625 L 185.746094 173.628906 L 184.4375 172.417969 L 184.328125 172.21875 L 183.972656 172.75 L 182.472656 173.90625 L 180.148438 175.152344 L 178.234375 177.144531 L 176.707031 178.285156 L 176.007813 178.511719 L 176.847656 179.238281 L 177.757813 180.679688 L 178.984375 183.449219 L 179.460938 185.304688 L 179.304688 187.21875 L 178.539063 188.976563 L 177.242188 190.386719 L 175.554688 191.300781 L 173.664063 191.617188 L 171.773438 191.300781 L 170.085938 190.386719 Z M 142.746094 170.414063 L 142.410156 168.777344 L 142.550781 167.109375 L 143.164063 165.550781 L 144.191406 164.234375 L 145.554688 163.261719 L 147.136719 162.71875 L 149.335938 162.300781 L 151.238281 161.378906 L 151.324219 161.261719 L 151.957031 160.632813 L 153.339844 159.621094 L 154.230469 159.3125 L 154.464844 159.796875 L 155.875 160.457031 L 161.0625 161.835938 L 161.78125 163.457031 L 161.960938 165.300781 L 161.824219 165.902344 L 161.53125 165.507813 L 159.984375 165.785156 L 155.320313 167.769531 L 152.441406 170.8125 L 151.949219 171.945313 L 152.140625 172.144531 L 156.390625 168.453125 L 157.75 167.980469 L 160.300781 168.324219 L 160.585938 168.703125 L 159.199219 169.898438 L 158.453125 170.355469 L 158.3125 170.410156 L 156.589844 172.425781 L 155.335938 173.523438 L 153.820313 174.222656 L 152.167969 174.460938 L 148.292969 174.460938 L 146.542969 174.191406 L 144.953125 173.40625 L 143.675781 172.183594 L 142.824219 170.628906 Z M 156.113281 159.007813 L 156.667969 158.988281 L 158.324219 159.417969 L 159.714844 160.269531 L 159.644531 160.289063 L 156.839844 159.359375 Z M 139.566406 317.382813 L 140.789063 317.253906 L 142.488281 317.59375 L 144.015625 318.417969 L 145.230469 319.652344 L 145.59375 320.359375 L 145.3125 320.636719 L 141.859375 323.019531 L 139.824219 322.464844 L 137.933594 323.433594 L 137.675781 322.921875 Z M 147.425781 363.976563 L 146.109375 363.875 L 144.195313 361.613281 L 142.050781 357.363281 L 142.246094 352.273438 L 144.664063 351.183594 L 146.003906 350.957031 L 149.566406 352.007813 L 151.039063 355.578125 L 155.546875 356.503906 L 154.066406 358.859375 L 150.984375 360.816406 Z M 141.734375 358.875 L 141.003906 358.070313 L 139.230469 356.960938 L 138.828125 356.035156 L 139.253906 355.210938 L 140.597656 355.164063 L 141.484375 356.3125 L 142.226563 358.1875 Z M 286.679688 439.636719 L 283.058594 438.976563 L 282.164063 437.605469 L 282.484375 436.070313 L 286.839844 437.054688 L 287.960938 438.832031 Z M 236.835938 466.113281 L 235.136719 465.644531 L 236.523438 463.683594 L 237.195313 464.164063 L 237.5 465.839844 Z M 228.117188 474.644531 L 222.296875 470.886719 L 220.207031 471.1875 L 221.476563 469.683594 L 227.316406 466.367188 L 232.550781 467.761719 L 234.171875 469.894531 L 231.242188 473.621094 L 229.960938 474.269531 Z M 130.613281 263.773438 L 129.152344 263.667969 L 126.582031 261.613281 L 125.375 256.128906 L 125.988281 253.21875 L 128.179688 251.246094 L 129.539063 251.441406 L 131.390625 253.015625 L 132.984375 258.382813 L 133.019531 262.765625 L 132.308594 263.453125 Z M 130.613281 263.773438 "/>
<path style=" stroke:none;fill-rule:nonzero;fill:rgb(80.392157%,58.431373%,4.705882%);fill-opacity:1;" d="M 142.476563 160.890625 L 142.191406 162.6875 L 141.367188 164.308594 L 140.078125 165.597656 L 138.457031 166.421875 L 136.660156 166.707031 L 134.863281 166.421875 L 133.242188 165.597656 L 131.957031 164.308594 L 131.128906 162.6875 L 130.847656 160.890625 L 131.128906 159.09375 L 131.957031 157.472656 L 132.882813 156.546875 L 134.503906 157.136719 L 136.507813 158.589844 L 137.039063 159.417969 L 137.175781 158.679688 L 135.335938 155.289063 L 136.660156 155.078125 L 138.457031 155.363281 L 140.078125 156.1875 L 141.367188 157.472656 L 142.191406 159.09375 Z M 142.476563 160.890625 "/>
<path style=" stroke:none;fill-rule:nonzero;fill:rgb(80.392157%,58.431373%,4.705882%);fill-opacity:1;" d="M 146.355469 238.429688 L 146.070313 240.226563 L 145.242188 241.847656 L 145.109375 241.984375 L 141.261719 240.453125 L 140.441406 240.5625 L 139.386719 240.085938 L 139.183594 238.121094 L 139.414063 236.460938 L 140.238281 234.648438 L 139.292969 234.9375 L 138.320313 240.257813 L 137.070313 243.085938 L 135.832031 241.847656 L 135.007813 240.226563 L 134.722656 238.429688 L 135.007813 236.632813 L 135.832031 235.011719 L 137.121094 233.726563 L 138.742188 232.898438 L 140.539063 232.617188 L 142.335938 232.898438 L 143.957031 233.726563 L 145.242188 235.011719 L 146.070313 236.632813 Z M 144.292969 242.796875 L 143.957031 243.136719 L 142.335938 243.960938 L 140.539063 244.246094 L 138.742188 243.960938 L 138.484375 243.832031 L 138.6875 242.234375 L 140.710938 241.59375 L 142.886719 242.511719 Z M 144.292969 242.796875 "/>
<path style=" stroke:none;fill-rule:nonzero;fill:rgb(80.392157%,58.431373%,4.705882%);fill-opacity:1;" d="M 154.027344 130.375 L 153.824219 131.675781 L 152.996094 133.296875 L 151.710938 134.582031 L 150.089844 135.40625 L 148.292969 135.691406 L 146.496094 135.40625 L 144.875 134.582031 L 143.585938 133.296875 L 142.761719 131.675781 L 142.476563 129.875 L 142.761719 128.078125 L 143.464844 126.703125 L 145.976563 127.269531 L 147.488281 129.277344 L 147.992188 130.773438 L 145.957031 133.847656 L 146.042969 134.238281 L 149.632813 130.886719 L 149.902344 129.097656 L 150.597656 128.644531 L 152.578125 129.367188 L 153.359375 129.816406 L 153.609375 130.328125 Z M 154.027344 130.375 "/>
<path style=" stroke:none;fill-rule:nonzero;fill:rgb(80.392157%,58.431373%,4.705882%);fill-opacity:1;" d="M 111.460938 242.308594 L 111.175781 244.105469 L 110.351563 245.726563 L 109.722656 246.355469 L 109.476563 246.144531 L 109.292969 243.285156 L 109.585938 242.089844 L 110.886719 239.9375 L 111.175781 240.511719 Z M 108.976563 247.054688 L 107.441406 247.839844 L 105.644531 248.125 L 104.835938 247.996094 L 104.988281 247.472656 L 102.980469 247.105469 L 102.851563 247.328125 L 102.226563 247.011719 L 100.941406 245.726563 L 100.386719 244.636719 L 100.660156 243.785156 L 102.445313 243.214844 L 103.882813 243.558594 L 106.871094 241.457031 L 108.433594 240.808594 L 108.667969 241.335938 L 108.480469 243.175781 L 108.777344 246.292969 Z M 108.976563 247.054688 "/>
<path style=" stroke:none;fill-rule:nonzero;fill:rgb(80.392157%,58.431373%,4.705882%);fill-opacity:1;" d="M 147.992188 317.859375 L 146.496094 317.625 L 144.875 316.796875 L 143.585938 315.511719 L 142.824219 314.011719 L 144.765625 310.230469 L 145.863281 309.40625 L 149.046875 308.269531 L 150.203125 313.453125 Z M 147.992188 317.859375 "/>
<path style=" stroke:none;fill-rule:nonzero;fill:rgb(80.392157%,58.431373%,4.705882%);fill-opacity:1;" d="M 188.589844 119.941406 L 187.0625 120.183594 L 185.546875 119.945313 L 185.203125 119.125 L 185.941406 118.488281 L 188.300781 118.292969 L 188.792969 119.078125 Z M 181.292969 114.675781 L 181.246094 114.371094 L 181.53125 112.570313 L 182.355469 110.949219 L 183.644531 109.664063 L 185.265625 108.839844 L 186.367188 108.664063 L 187.324219 111.371094 L 189.425781 112.382813 L 190.734375 113.441406 L 191.546875 114.902344 L 189.996094 116.5625 L 186.777344 113.90625 L 184.832031 114.03125 L 181.886719 115.097656 Z M 181.292969 114.675781 "/>
<path style=" stroke:none;fill-rule:nonzero;fill:rgb(80.392157%,58.431373%,4.705882%);fill-opacity:1;" d="M 150.054688 313.75 L 148.292969 314.03125 L 146.496094 313.746094 L 144.875 312.921875 L 143.890625 311.933594 L 144.765625 310.230469 L 145.863281 309.40625 L 149.046875 308.269531 L 150.203125 313.453125 Z M 150.054688 313.75 "/>
<path style=" stroke:none;fill-rule:nonzero;fill:rgb(80.392157%,58.431373%,4.705882%);fill-opacity:1;" d="M 224.949219 69.644531 L 224.035156 69.5 L 222.757813 68.851563 L 222.910156 68.203125 L 223.429688 67.644531 L 224.308594 63.570313 L 223.730469 58.59375 L 224.035156 58.4375 L 225.832031 58.152344 L 225.976563 58.175781 L 226.023438 58.453125 L 227.246094 61.769531 L 226.800781 62.460938 L 226.285156 62.238281 L 225.40625 63.738281 L 225.265625 67.207031 Z M 220.765625 61.257813 L 221.125 60.550781 L 222.183594 59.492188 L 222.21875 59.898438 Z M 220.765625 61.257813 "/>
<path style=" stroke:none;fill-rule:nonzero;fill:rgb(80.392157%,58.431373%,4.705882%);fill-opacity:1;" d="M 189.269531 101.027344 L 189.285156 100.941406 L 189.582031 100.359375 L 189.558594 100.558594 Z M 198.269531 98.070313 L 199.519531 99.320313 L 199.601563 99.480469 L 197.464844 100.832031 L 194.695313 101.191406 L 193.226563 103.421875 L 193.136719 102.113281 L 195.332031 98.847656 L 196.15625 98.316406 Z M 198.269531 98.070313 "/>
<path style=" stroke:none;fill-rule:nonzero;fill:rgb(80.392157%,58.431373%,4.705882%);fill-opacity:1;" d="M 111.527344 205.085938 L 111.320313 205.191406 L 109.523438 205.476563 L 109.445313 205.464844 Z M 105.003906 196.058594 L 106.105469 194.957031 L 107.726563 194.128906 L 108.402344 194.023438 L 108.09375 196.351563 L 107.546875 197.015625 L 106.597656 197.398438 L 105.582031 196.804688 Z M 110.160156 200.433594 L 108.972656 199.578125 L 108.9375 198.890625 L 110.578125 197.179688 L 111.398438 197.769531 L 111.5 198.265625 L 111.128906 199.855469 Z M 110.160156 200.433594 "/>
<path style=" stroke:none;fill-rule:nonzero;fill:rgb(80.392157%,58.431373%,4.705882%);fill-opacity:1;" d="M 106.976563 236.632813 L 105.476563 236.191406 L 106.28125 234.464844 L 107.839844 232.910156 L 108.882813 232.734375 L 107.535156 236.1875 Z M 106.976563 236.632813 "/>
<path style=" stroke:none;fill-rule:nonzero;fill:rgb(80.392157%,58.431373%,4.705882%);fill-opacity:1;" d="M 88.429688 500.046875 L 88.566406 499.308594 L 88.941406 499.117188 L 89.34375 499.789063 Z M 88.429688 500.046875 "/>
</g>
</svg>
