<?xml version="1.0" encoding="UTF-8"?>
<svg xmlns="http://www.w3.org/2000/svg" xmlns:xlink="http://www.w3.org/1999/xlink" width="378pt" height="504pt" viewBox="0 0 378 504" version="1.1">
<g id="data">
<rect x="0" y="0" width="378" height="504" style="fill:rgb(100%,100%,100%);fill-opacity:1;stroke:none;"/>
<path style=" stroke:none;fill-rule:nonzero;fill:rgb(100%,100%,100%);fill-opacity:1;" d="M 53.308594 504 L 324.691406 504 L 324.691406 0 L 53.308594 0 Z M 53.308594 504 "/>
<path style=" stroke:none;fill-rule:nonzero;fill:rgb(22.745098%,53.333333%,16.078431%);fill-opacity:1;" d="M 204.808594 406.980469 L 204.507813 405.175781 L 204.78125 403.371094 L 205.605469 401.738281 L 206.890625 400.441406 L 208.519531 399.609375 L 210.324219 399.324219 L 221.953125 399.324219 L 223.941406 399.671875 L 225.691406 400.683594 L 226.988281 402.226563 L 227.679688 404.125 L 227.980469 405.824219 L 228.394531 406.875 L 229.074219 407.917969 L 229.859375 408.707031 L 230.894531 409.394531 L 231.945313 409.8125 L 233.058594 410.015625 L 234.28125 409.992188 L 235.460938 409.710938 L 236.535156 409.203125 L 237.8125 408.21875 L 238.628906 407.277344 L 239.21875 406.226563 L 239.574219 405.074219 L 239.679688 403.890625 L 239.445313 401.976563 L 239.480469 400.300781 L 239.992188 398.703125 L 240.941406 397.316406 L 242.246094 396.261719 L 243.796875 395.621094 L 245.464844 395.453125 L 247.691406 395.546875 L 249.992188 395.125 L 251.320313 394.480469 L 253.035156 392.992188 L 254.429688 392.09375 L 256.019531 391.628906 L 257.675781 391.628906 L 259.265625 392.09375 L 260.65625 392.992188 L 262.371094 394.480469 L 263.699219 395.125 L 266 395.546875 L 268.226563 395.453125 L 269.902344 395.625 L 271.457031 396.269531 L 272.761719 397.332031 L 273.710938 398.722656 L 274.414063 400.179688 L 275.113281 401.109375 L 275.984375 401.882813 L 276.777344 402.351563 L 278.492188 402.875 L 280.105469 402.890625 L 281.832031 402.378906 L 283.554688 401.207031 L 284.625 400.105469 L 285.265625 399.136719 L 285.6875 398.097656 L 286.023438 396.3125 L 286.613281 394.632813 L 287.6875 393.214844 L 289.136719 392.183594 L 291.089844 391.207031 L 292.734375 389.777344 L 294.207031 388.84375 L 295.886719 388.390625 L 297.628906 388.453125 L 299.273438 389.027344 L 300.671875 390.066406 L 301.703125 391.46875 L 302.269531 393.117188 L 302.660156 395.246094 L 303.304688 396.652344 L 305.082031 399.019531 L 305.3125 399.207031 L 303.519531 407.832031 L 297.144531 414.53125 L 295.578125 412.011719 L 292.742188 410.515625 L 292.480469 410.636719 L 293.898438 413.703125 L 295.890625 416.628906 L 296.3125 416.765625 L 296.164063 417.742188 L 294.574219 419.804688 L 292.191406 421.289063 L 291.992188 421.320313 L 289.632813 419.582031 L 287.621094 419.019531 L 285.648438 419.191406 L 283.574219 420.183594 L 282.800781 420.886719 L 281.949219 422.113281 L 281.101563 424.003906 L 280.71875 424.230469 L 280.933594 424.382813 L 280.839844 424.589844 L 280.40625 426.882813 L 279.738281 428.695313 L 278.515625 430.183594 L 276.871094 431.195313 L 274.988281 431.609375 L 273.070313 431.386719 L 271.332031 430.550781 L 269.964844 429.191406 L 268.960938 427.789063 L 268.34375 427.207031 L 265.679688 425.746094 L 263.972656 424.328125 L 262.878906 422.984375 L 262.113281 422.359375 L 260.292969 421.519531 L 258.847656 421.3125 L 257.332031 421.496094 L 255.917969 422.074219 L 254.5625 423.113281 L 252.234375 425.796875 L 251.519531 427.054688 L 250.375 431.421875 L 250.28125 432.929688 L 250.769531 434.960938 L 251.894531 436.679688 L 253.054688 437.617188 L 255.257813 438.5625 L 257.3125 440.042969 L 259.152344 442.109375 L 261.429688 443.445313 L 262.910156 444.683594 L 263.902344 446.339844 L 264.296875 448.226563 L 264.054688 450.140625 L 263.199219 451.867188 L 261.824219 453.222656 L 260.414063 454.210938 L 259.625 455.039063 L 259.015625 456.007813 L 258.402344 457.613281 L 257.539063 459.132813 L 256.265625 460.328125 L 254.695313 461.089844 L 252.96875 461.355469 L 251.242188 461.09375 L 249.671875 460.328125 L 248.398438 459.136719 L 247.539063 457.617188 L 247.164063 455.910156 L 247.03125 453.800781 L 246.605469 452.464844 L 245.882813 451.285156 L 244.808594 450.242188 L 243.621094 449.558594 L 242.179688 449.15625 L 240.792969 449.121094 L 238.730469 449.582031 L 236.765625 449.679688 L 234.882813 449.121094 L 233.292969 447.960938 L 232.179688 446.339844 L 231.671875 444.441406 L 231.433594 441.878906 L 230.8125 440.359375 L 229.511719 438.84375 L 226.847656 437.339844 L 225.507813 436.300781 L 224.527344 434.921875 L 223.984375 433.316406 L 223.675781 431.621094 L 223.300781 430.652344 L 222.679688 429.664063 L 221.585938 428.5 L 220.523438 426.894531 L 220.039063 425.035156 L 220.1875 423.113281 L 220.742188 420.894531 L 220.699219 419.273438 L 220.261719 417.847656 L 219.386719 416.480469 L 218.335938 415.539063 L 215.640625 414.296875 L 214.558594 413.644531 L 212.515625 412.089844 L 211.453125 411.644531 L 209.464844 411.296875 L 207.519531 410.582031 L 205.949219 409.230469 L 204.949219 407.410156 Z M 222.339844 470.914063 L 222.582031 470.15625 L 223.328125 468.628906 L 227.316406 466.367188 L 232.550781 467.761719 L 234.171875 469.894531 L 231.242188 473.621094 L 229.960938 474.269531 L 228.117188 474.644531 Z M 223.875 466.664063 L 224.007813 466.007813 L 224.675781 464.25 L 225.871094 462.796875 L 227.46875 461.800781 L 229.300781 461.367188 L 231.171875 461.542969 L 232.890625 462.304688 L 233.894531 463.21875 L 231.496094 463.171875 L 231.378906 463.496094 L 232.574219 464.835938 L 232.214844 465.75 L 231.738281 466.042969 L 226.691406 465.496094 Z M 235.5 465.128906 L 235.554688 465.199219 L 236.652344 466.0625 L 235.136719 465.644531 Z M 169.640625 448.34375 L 169.6875 447.585938 L 170.039063 448.109375 L 170.757813 448.421875 L 173.15625 448.464844 L 180.570313 447.503906 L 181.109375 445.632813 L 181.210938 443.15625 L 182.519531 440.25 L 188.589844 434.394531 L 190.304688 434.6875 L 191.8125 434.546875 L 193.234375 434.015625 L 195.09375 432.6875 L 196.777344 431.855469 L 198.636719 431.605469 L 200.480469 431.957031 L 202.113281 432.882813 L 203.492188 433.984375 L 205.179688 434.835938 L 206.683594 435.917969 L 207.765625 437.421875 L 208.324219 439.1875 L 208.296875 441.042969 L 207.6875 442.792969 L 206.558594 444.261719 L 205.027344 445.300781 L 203.242188 445.808594 L 201.222656 446.042969 L 200.050781 446.460938 L 198.910156 447.191406 L 197.96875 448.164063 L 197.320313 449.246094 L 196.925781 450.425781 L 196.761719 452.25 L 196.910156 453.605469 L 197.292969 454.742188 L 197.910156 455.785156 L 198.730469 456.675781 L 199.722656 457.378906 L 200.839844 457.859375 L 202.015625 458.089844 L 203.324219 458.0625 L 205.082031 457.640625 L 206.914063 457.496094 L 208.699219 457.929688 L 210.257813 458.902344 L 211.4375 460.308594 L 212.121094 462.015625 L 212.234375 463.847656 L 212.007813 466.203125 L 212.316406 467.847656 L 212.671875 468.558594 L 210.222656 468.96875 L 208.164063 468.875 L 207.273438 468.058594 L 206.238281 469.769531 L 209.429688 471.089844 L 209.714844 470.9375 L 210.1875 472.128906 L 209.566406 473.890625 L 206.84375 474.453125 L 204.453125 473.097656 L 203.015625 472.699219 L 197.625 472.007813 L 196.175781 472.65625 L 195.679688 473.863281 L 195.832031 474.871094 L 196.757813 475.523438 L 196.488281 476.304688 L 195.917969 475.996094 L 194.851563 473.972656 L 190.289063 470.589844 L 185.898438 468.519531 L 184.320313 468.214844 L 183.863281 467.484375 L 183.074219 466.671875 L 181.703125 465.800781 L 180.046875 465.28125 L 175.71875 464.636719 L 172.472656 465.15625 L 170.691406 465.167969 L 168.988281 464.632813 L 167.527344 463.609375 L 166.445313 462.191406 L 165.84375 460.511719 L 165.777344 458.730469 L 166.257813 457.011719 L 167.234375 455.519531 L 168.90625 453.667969 L 169.589844 452.265625 L 169.871094 450.714844 Z M 169.640625 448.34375 "/>
<path style=" stroke:none;fill-rule:nonzero;fill:rgb(80.392157%,58.431373%,4.705882%);fill-opacity:1;" d="M 235.523438 385.753906 L 235.238281 387.550781 L 234.414063 389.171875 L 233.125 390.457031 L 231.503906 391.285156 L 229.707031 391.570313 L 227.910156 391.285156 L 226.289063 390.457031 L 225.003906 389.171875 L 224.175781 387.550781 L 223.890625 385.753906 L 224.175781 383.957031 L 225.003906 382.335938 L 226.289063 381.050781 L 227.910156 380.222656 L 229.707031 379.9375 L 231.503906 380.222656 L 233.125 381.050781 L 234.414063 382.335938 L 235.238281 383.957031 Z M 235.523438 385.753906 "/>
<path style=" stroke:none;fill-rule:nonzero;fill:rgb(80.392157%,58.431373%,4.705882%);fill-opacity:1;" d="M 239.398438 374.125 L 239.117188 375.921875 L 238.289063 377.542969 L 237.003906 378.828125 L 235.382813 379.652344 L 233.585938 379.9375 L 231.789063 379.652344 L 230.167969 378.828125 L 228.878906 377.542969 L 228.054688 375.921875 L 227.769531 374.125 L 228.054688 372.324219 L 228.878906 370.703125 L 230.167969 369.417969 L 231.789063 368.59375 L 233.585938 368.308594 L 235.382813 368.59375 L 237.003906 369.417969 L 238.289063 370.703125 L 239.117188 372.324219 Z M 239.398438 374.125 "/>
<path style=" stroke:none;fill-rule:nonzero;fill:rgb(80.392157%,58.431373%,4.705882%);fill-opacity:1;" d="M 204.507813 420.644531 L 204.222656 422.441406 L 203.398438 424.0625 L 202.109375 425.351563 L 200.488281 426.175781 L 198.691406 426.460938 L 196.894531 426.175781 L 195.632813 425.535156 L 195.792969 425.3125 L 197.929688 424.472656 L 198.285156 423.78125 L 198.070313 423.238281 L 197.8125 423.082031 L 196.09375 424.355469 L 195.152344 425.226563 L 193.988281 424.0625 L 193.160156 422.441406 L 192.875 420.644531 L 193.160156 418.847656 L 193.988281 417.226563 L 195.273438 415.941406 L 196.894531 415.117188 L 198.691406 414.832031 L 200.488281 415.117188 L 202.109375 415.941406 L 203.398438 417.226563 L 204.222656 418.847656 Z M 204.507813 420.644531 "/>
<path style=" stroke:none;fill-rule:nonzero;fill:rgb(80.392157%,58.431373%,4.705882%);fill-opacity:1;" d="M 297.554688 440.03125 L 297.269531 441.828125 L 296.441406 443.449219 L 295.15625 444.734375 L 293.535156 445.5625 L 291.738281 445.847656 L 289.941406 445.5625 L 288.320313 444.734375 L 287.035156 443.449219 L 286.207031 441.828125 L 285.933594 440.105469 L 286.863281 440.339844 L 289.394531 439.9375 L 291.074219 438.957031 L 297.207031 438.109375 L 297.269531 438.234375 Z M 286.003906 439.515625 L 286.207031 438.234375 L 286.8125 437.046875 L 286.839844 437.054688 L 287.960938 438.832031 L 286.679688 439.636719 Z M 286.003906 439.515625 "/>
<path style=" stroke:none;fill-rule:nonzero;fill:rgb(80.392157%,58.431373%,4.705882%);fill-opacity:1;" d="M 123.09375 486.554688 L 122.808594 488.351563 L 121.980469 489.972656 L 120.695313 491.257813 L 119.074219 492.085938 L 117.277344 492.371094 L 115.480469 492.085938 L 113.859375 491.257813 L 112.570313 489.972656 L 111.746094 488.351563 L 111.707031 488.089844 L 111.738281 488.078125 L 112.199219 488.253906 L 112.445313 488.9375 L 113.574219 489.15625 L 118.144531 485.910156 L 121.425781 483.085938 L 121.664063 482.816406 L 121.980469 483.136719 L 122.808594 484.757813 Z M 123.09375 486.554688 "/>
</g>
</svg>
