<?xml version="1.0" encoding="UTF-8"?>
<svg xmlns="http://www.w3.org/2000/svg" xmlns:xlink="http://www.w3.org/1999/xlink" width="378pt" height="504pt" viewBox="0 0 378 504" version="1.1">
<g id="data">
<rect x="0" y="0" width="378" height="504" style="fill:rgb(100%,100%,100%);fill-opacity:1;stroke:none;"/>
<path style=" stroke:none;fill-rule:nonzero;fill:rgb(100%,100%,100%);fill-opacity:1;" d="M 53.308594 504 L 324.691406 504 L 324.691406 0 L 53.308594 0 Z M 53.308594 504 "/>
<path style=" stroke:none;fill-rule:nonzero;fill:rgb(22.745098%,53.333333%,16.078431%);fill-opacity:1;" d="M 300.589844 375.535156 L 301.109375 376.203125 L 303.371094 378 L 304.898438 379.992188 L 305.507813 380.523438 L 306.730469 384.164063 L 307.140625 390.636719 L 307.105469 390.878906 L 307.117188 391.546875 L 306.777344 393.191406 L 306.890625 393.976563 L 305.789063 396.917969 L 305.183594 399.824219 L 303.925781 402.410156 L 303.246094 406.136719 L 303.328125 408.035156 L 297.144531 414.53125 L 295.578125 412.011719 L 292.742188 410.515625 L 292.480469 410.636719 L 293.898438 413.703125 L 295.890625 416.628906 L 296.3125 416.765625 L 296.164063 417.742188 L 294.574219 419.804688 L 292.191406 421.289063 L 290.003906 421.65625 L 289.660156 421.574219 L 288.214844 419.332031 L 284.976563 421.730469 L 280.71875 424.230469 L 282.339844 425.378906 L 285.105469 424.398438 L 286.097656 423.375 L 286.894531 423.164063 L 287.328125 423.710938 L 287.632813 428.84375 L 285.6875 430.875 L 283.441406 432.558594 L 282.84375 432.699219 L 279.644531 432.160156 L 274.75 433.78125 L 272.609375 436.117188 L 274.253906 436.015625 L 275.152344 434.667969 L 276.683594 434.363281 L 278.285156 434.328125 L 281.054688 434.949219 L 281.828125 435.589844 L 281.691406 436.328125 L 279.554688 436.347656 L 277.390625 437.65625 L 277.96875 438.546875 L 281.382813 438.964844 L 286.863281 440.339844 L 289.394531 439.9375 L 291.074219 438.957031 L 296.394531 438.222656 L 299.492188 440.03125 L 299.492188 447.785156 L 295.582031 448.808594 L 292.261719 451.109375 L 290.421875 453.035156 L 289.167969 454.9375 L 288.304688 457.050781 L 288.117188 458.054688 L 286.253906 458.289063 L 284.1875 457.9375 L 281.042969 460.90625 L 278.484375 461.933594 L 274.789063 462.777344 L 272.597656 463.816406 L 272.085938 464.503906 L 270.5625 465.320313 L 268.988281 466.714844 L 267.304688 466.207031 L 265.644531 464.84375 L 262.105469 463.488281 L 259.351563 463.144531 L 254.71875 463.132813 L 250.96875 463.632813 L 247.832031 464.972656 L 247.65625 465.121094 L 244.628906 465.699219 L 242.703125 466.390625 L 242.113281 466.964844 L 242.085938 467.101563 L 240.457031 467.277344 L 240.121094 467.386719 L 238.210938 466.1875 L 238.632813 465.4375 L 239.46875 464.933594 L 237.714844 463.296875 L 231.496094 463.171875 L 231.378906 463.496094 L 232.574219 464.835938 L 232.214844 465.75 L 231.738281 466.042969 L 226.691406 465.496094 L 219.566406 468.449219 L 217.054688 467.824219 L 210.222656 468.96875 L 208.164063 468.875 L 207.273438 468.058594 L 206.238281 469.769531 L 209.429688 471.089844 L 209.714844 470.9375 L 210.1875 472.128906 L 209.566406 473.890625 L 206.84375 474.453125 L 204.453125 473.097656 L 203.015625 472.699219 L 197.625 472.007813 L 196.175781 472.65625 L 195.679688 473.863281 L 195.816406 474.75 L 195.308594 474.839844 L 194.851563 473.972656 L 192.574219 472.285156 L 192.464844 472.15625 L 191.511719 471.496094 L 190.289063 470.589844 L 190.011719 470.457031 L 188.277344 469.257813 L 186.015625 468.578125 L 185.898438 468.519531 L 185.710938 468.484375 L 184.722656 468.1875 L 184.234375 468.199219 L 183.121094 467.984375 L 182.773438 468.242188 L 181.011719 468.289063 L 178.089844 469.257813 L 177.585938 469.597656 L 176.207031 469.78125 L 174.339844 470.335938 L 168.992188 473.234375 L 168.214844 474.070313 L 167.203125 476.179688 L 162.746094 489.226563 L 160.929688 490.242188 L 158.269531 489.722656 L 157.554688 489.058594 L 156.527344 486.851563 L 154.683594 485.4375 L 153.613281 485.542969 L 152.417969 486.300781 L 151.738281 486.164063 L 148.46875 482.535156 L 142.796875 482.960938 L 141.527344 483.375 L 140.734375 484.175781 L 139.910156 484.507813 L 134.507813 484.320313 L 132.167969 484.859375 L 129.414063 488.195313 L 126.714844 489.746094 L 124.039063 490.597656 L 123.132813 494.289063 L 123.664063 495.292969 L 123.496094 496.125 L 122.722656 496.945313 L 120.660156 497.648438 L 120.394531 498.183594 L 118.253906 498.183594 L 117.96875 497.691406 L 118.09375 496.4375 L 117.15625 494.691406 L 115.984375 493.691406 L 112.253906 492.070313 L 111.410156 491.984375 L 110.375 492.488281 L 110.242188 494.183594 L 110.179688 494.253906 L 108.945313 494.007813 L 105.644531 494.308594 L 105.441406 494.210938 L 105.628906 491.574219 L 106.074219 490.5625 L 106.21875 490.5 L 108.304688 490.746094 L 110.84375 490.472656 L 113.261719 489.652344 L 115.441406 488.324219 L 119.535156 484.757813 L 119.671875 484.597656 L 121.425781 483.085938 L 124.375 479.769531 L 125.210938 477.886719 L 124.875 476.421875 L 125.515625 474.828125 L 127.519531 474.441406 L 129.730469 473.496094 L 130.472656 472.902344 L 132.105469 472.640625 L 132.679688 471.785156 L 132.878906 471 L 135.199219 469.867188 L 137.367188 468.078125 L 138.777344 466.257813 L 139.847656 464.074219 L 140.441406 461.714844 L 140.539063 459.414063 L 143.6875 457.726563 L 146.175781 455.160156 L 146.363281 454.765625 L 148.429688 452.488281 L 148.1875 448.757813 L 148.292969 447.785156 L 148.820313 447.300781 L 151.105469 446.613281 L 157.421875 446.269531 L 159.910156 445.683594 L 164.597656 446.761719 L 166.046875 446.148438 L 167.527344 446.515625 L 169.484375 447.285156 L 170.039063 448.109375 L 170.757813 448.421875 L 173.15625 448.464844 L 180.570313 447.503906 L 181.109375 445.632813 L 181.210938 443.15625 L 182.519531 440.25 L 190.867188 432.195313 L 195.792969 425.3125 L 197.929688 424.472656 L 198.285156 423.78125 L 198.070313 423.238281 L 197.8125 423.082031 L 196.09375 424.355469 L 192.90625 427.300781 L 190.570313 429.988281 L 189.222656 431.449219 L 185.628906 432.957031 L 183.714844 433.246094 L 182.441406 433.0625 L 178.394531 435.230469 L 177.398438 436.808594 L 177.039063 438.671875 L 176.445313 439.273438 L 174.058594 439.917969 L 170.558594 439.851563 L 166.820313 439 L 166.347656 438.652344 L 161.371094 433.375 L 159.03125 429.199219 L 155.65625 429.589844 L 151.265625 431.457031 L 150.695313 430.523438 L 148.523438 428.386719 L 148.539063 428.378906 L 150.066406 428.890625 L 151.640625 428.421875 L 152.765625 427.832031 L 153.085938 427.097656 L 152.808594 426.597656 L 147.785156 426.460938 L 143.210938 423.710938 L 141.878906 423.714844 L 141.402344 423.542969 L 138.984375 423.203125 L 136.679688 423.359375 L 134.324219 424.011719 L 132.269531 425.074219 L 130.371094 426.609375 L 128.90625 428.398438 L 127.304688 426.363281 L 127.425781 426.082031 L 128.796875 425.832031 L 131.792969 424.328125 L 131.226563 422.867188 L 130.640625 424.257813 L 127.769531 424.613281 L 125.03125 424.351563 L 125.03125 421.757813 L 125.167969 421.753906 L 125.464844 421.238281 L 125.320313 420.339844 L 126.503906 419.074219 L 127.71875 417.144531 L 128.535156 415.015625 L 128.90625 412.890625 L 130.609375 411.554688 L 133.074219 411.34375 L 134.871094 409.289063 L 134.929688 409.175781 L 139.214844 408.878906 L 141.558594 408.234375 L 143.609375 407.1875 L 146.523438 404.511719 L 147.253906 403.171875 L 149.359375 401.828125 L 152.136719 398.207031 L 153.054688 396.195313 L 154.199219 391.746094 L 153.734375 388.820313 L 153.179688 387.738281 L 153.03125 385.992188 L 152.875 385.5625 L 153.179688 384.597656 L 154.652344 381.796875 L 152.269531 378.203125 L 152.683594 374.835938 L 153.175781 374.082031 L 152.804688 373.207031 L 150.203125 373.105469 L 145.449219 374.257813 L 143.757813 375.484375 L 142.742188 377.027344 L 140.722656 376.902344 L 143.53125 375.015625 L 146.542969 371.617188 L 147.734375 369.097656 L 148.292969 366.371094 L 149.992188 364.492188 L 151.25 362.292969 L 151.699219 360.488281 L 153.09375 359.609375 L 154.941406 359.808594 L 157.425781 358.757813 L 158.171875 358.777344 L 161.304688 358.417969 L 164.125 357.339844 L 167.339844 357.714844 L 172.597656 355.179688 L 173.933594 355.046875 L 174.484375 355.082031 L 179.910156 359.441406 L 180.433594 358.429688 L 177.679688 353.460938 L 178.242188 352.835938 L 180.867188 352.449219 L 181.503906 352.695313 L 181.914063 353.875 L 182.898438 354.332031 L 184.078125 356.789063 L 185.613281 357.902344 L 188.359375 357.621094 L 190.335938 355.148438 L 189.90625 355.050781 L 188.667969 355.527344 L 188.3125 355.957031 L 186.378906 356.386719 L 183.8125 354.640625 L 181.101563 348.773438 L 182.210938 346.902344 L 183.183594 343.109375 L 184.804688 340.804688 L 185.851563 338.054688 L 186.175781 335.128906 L 185.71875 332.09375 L 184.425781 329.3125 L 184.695313 329.191406 L 187.28125 323.421875 L 187.71875 320.933594 L 187.855469 317.484375 L 184.742188 320.527344 L 179.199219 323.441406 L 177.335938 322.691406 L 177.117188 322.308594 L 178.117188 321.464844 L 180.859375 318.171875 L 182.050781 316.230469 L 183.796875 309.996094 L 183.902344 306.28125 L 182.996094 303.070313 L 181.128906 300.152344 L 178.707031 298.050781 L 175.320313 296.414063 L 177.890625 294.449219 L 181.734375 289.925781 L 182.753906 287.867188 L 183.347656 285.648438 L 183.492188 283.355469 L 183.183594 281.078125 L 185.785156 279.707031 L 188.042969 277.632813 L 189.679688 275.039063 L 190.582031 272.109375 L 192.015625 277.347656 L 193.1875 279.300781 L 194.816406 281.078125 L 192.261719 281.214844 L 189.679688 281.953125 L 187.335938 283.269531 L 185.441406 284.988281 L 183.90625 287.191406 L 182.613281 290.261719 L 182.097656 292.769531 L 182.144531 295.332031 L 182.84375 298.0625 L 184.175781 300.546875 L 186.066406 302.636719 L 188.519531 304.265625 L 191.050781 305.171875 L 193.597656 305.472656 L 196.273438 305.179688 L 198.691406 304.339844 L 200.761719 305.25 L 202.96875 305.746094 L 200.175781 307.039063 L 197.820313 309.015625 L 196.066406 311.542969 L 195.0625 314.316406 L 194.316406 318.617188 L 194.535156 321.816406 L 195.738281 325.0625 L 197.9375 327.894531 L 200.324219 329.632813 L 202.945313 330.679688 L 205.871094 331.066406 L 208.800781 330.703125 L 211.988281 329.355469 L 215.328125 326.746094 L 217.085938 324.871094 L 218.441406 322.539063 L 219.242188 319.828125 L 219.375 317.136719 L 218.847656 314.359375 L 217.664063 311.792969 L 215.808594 309.5 L 212.796875 307.132813 L 210.421875 305.9375 L 207.839844 305.3125 L 210.175781 304.296875 L 212.328125 302.710938 L 214.199219 300.460938 L 216.808594 298.1875 L 218.628906 295.246094 L 219.417969 292.535156 L 219.535156 289.714844 L 217.613281 282.527344 L 219.652344 283.976563 L 221.953125 284.953125 L 221.316406 287.96875 L 221.492188 291.042969 L 222.46875 293.964844 L 224.261719 296.625 L 226.179688 298.332031 L 228.425781 299.582031 L 230.890625 300.304688 L 232.117188 300.375 L 233.214844 300.886719 L 232.066406 302.199219 L 230.917969 304.199219 L 230.1875 306.390625 L 229.90625 308.679688 L 230.082031 310.980469 L 230.660156 313.082031 L 231.691406 315.148438 L 233.105469 316.96875 L 235.066406 318.617188 L 239.664063 321.398438 L 243.550781 322.6875 L 246.113281 322.773438 L 248.636719 322.292969 L 250.992188 321.273438 L 252.96875 319.847656 L 252.96875 323.722656 L 252.359375 325.820313 L 252.152344 327.996094 L 252.914063 332.152344 L 254.160156 334.542969 L 255.828125 336.496094 L 258.109375 338.164063 L 260.722656 339.230469 L 262.429688 341.402344 L 262.714844 341.625 L 263.316406 342.46875 L 263.640625 343.980469 L 262.804688 345.191406 L 263.28125 343.65625 L 262.507813 342.839844 L 260.445313 342 L 258.378906 342.789063 L 257.507813 342.753906 L 256.035156 341.773438 L 253.664063 338.65625 L 252.601563 338.082031 L 245.550781 339.511719 L 244.589844 338.644531 L 243.40625 338.558594 L 241.210938 339.871094 L 241.886719 340.445313 L 246.324219 340.394531 L 249.617188 339.34375 L 251.976563 339.082031 L 254.382813 342.558594 L 260.535156 347.621094 L 263.042969 349.058594 L 263.664063 349.039063 L 266.046875 352.214844 L 268.035156 357.019531 L 267.824219 358.105469 L 268.210938 361.640625 L 269.261719 364.246094 L 269.3125 364.316406 L 269.210938 365.21875 L 264.953125 369.09375 L 261.394531 373.164063 L 260.601563 374.816406 L 262.84375 374.3125 L 264.9375 375.519531 L 266.9375 378.226563 L 270.21875 378.804688 L 270.625 378.746094 L 271.910156 376.796875 L 272.234375 374.960938 L 273.40625 371.914063 L 274.707031 370.632813 L 277.652344 370.121094 L 277.679688 370.128906 L 283.855469 370.910156 L 284.226563 370.847656 L 284.253906 370.867188 L 286.703125 370.742188 L 293.949219 371.515625 L 296.914063 372.84375 Z M 232.871094 471.550781 L 231.871094 472.320313 L 230.464844 474.011719 L 229.960938 474.269531 L 228.117188 474.644531 L 222.296875 470.886719 L 220.207031 471.1875 L 221.476563 469.683594 L 227.316406 466.367188 L 232.550781 467.761719 L 234.171875 469.894531 Z M 151.738281 360.339844 L 152.167969 358.617188 L 154.183594 358.667969 L 154.066406 358.859375 Z M 171.554688 222.921875 L 173.722656 221.214844 L 175.429688 219.046875 L 175.640625 219.261719 L 175.070313 221.359375 L 174.90625 223.527344 L 175.589844 229.492188 L 176.519531 232.429688 L 178.273438 235.113281 L 180.527344 237.03125 L 174.761719 240.109375 L 170.214844 238.117188 L 168.082031 238.054688 L 170.765625 235.550781 L 172.34375 232.617188 L 172.933594 230.25 L 173.011719 227.683594 L 172.558594 225.285156 Z M 187.9375 239.015625 L 190.9375 238.429688 L 192.644531 240.601563 L 194.816406 242.308594 L 195.953125 244.882813 L 197.675781 247.109375 L 199.882813 248.859375 L 202.570313 250.0625 L 202.570313 253.9375 L 200.398438 255.644531 L 198.691406 257.816406 L 195.789063 259.15625 L 193.359375 261.234375 L 191.535156 264.011719 L 190.433594 267.519531 L 189.648438 265.253906 L 188.410156 263.195313 L 185.441406 259.613281 L 183.183594 257.816406 L 183.496094 255.410156 L 183.277344 252.867188 L 182.511719 250.433594 L 181.234375 248.226563 L 178.761719 245.640625 L 176.929688 244.238281 L 174.492188 243.097656 L 171.988281 242.5625 L 168.160156 242.8125 L 164.621094 244.289063 L 161.839844 246.738281 L 159.921875 250.0625 L 157.546875 249.90625 L 153.746094 250.292969 L 151.535156 250.972656 L 149.398438 252.148438 L 147.292969 254.03125 L 145.765625 256.253906 L 144.757813 258.890625 L 144.414063 261.691406 L 144.355469 261.65625 L 144.195313 260.621094 L 142.601563 256.71875 L 139.777344 254.832031 L 137.378906 252.511719 L 138.449219 244.105469 L 138.964844 243.78125 L 140.539063 242.308594 L 142.402344 242.308594 L 142.886719 242.511719 L 145.148438 242.972656 L 146.292969 244.007813 L 148.609375 245.3125 L 155.15625 246.816406 L 157.320313 246.78125 L 159.558594 246.304688 L 161.9375 245.359375 L 163.964844 244.011719 L 166.195313 241.546875 L 167.167969 239.5 L 168.246094 240.195313 L 178.0625 241.875 L 182.921875 243.167969 L 186.398438 241.730469 L 187.519531 239.417969 Z M 132.992188 259.355469 L 132.632813 259.449219 L 130.664063 260.394531 L 128.90625 261.691406 L 126.492188 261.207031 L 126.386719 260.730469 L 127.671875 260.136719 L 129.535156 258.789063 L 131.097656 257.101563 L 132.113281 255.445313 L 132.984375 258.382813 Z M 133.394531 249.746094 L 133.335938 248.414063 L 132.785156 246.183594 L 134.46875 245.886719 L 134.707031 246.3125 L 135.339844 249.003906 L 135.222656 250.96875 L 134.8125 251.347656 Z M 163.800781 164.769531 L 164.175781 165.253906 L 162.722656 166.96875 L 162.175781 167.183594 L 161.726563 166.894531 L 161.859375 165.949219 L 161.53125 165.507813 L 159.984375 165.785156 L 155.320313 167.769531 L 153.695313 169.488281 L 153.945313 168.984375 L 156.804688 166.25 L 159.921875 164.769531 Z M 170.238281 169.597656 L 170.484375 169.683594 L 170.492188 169.949219 L 171.265625 169.871094 L 173.003906 170.125 L 175.1875 170.03125 L 177.3125 169.535156 L 179.308594 168.644531 L 179.308594 172.523438 L 171.554688 172.523438 L 169.71875 170.375 L 169.074219 169.921875 Z M 158.105469 168.027344 L 156.417969 168.671875 L 154.921875 169.730469 L 156.390625 168.453125 L 157.75 167.980469 Z M 153.503906 170.960938 L 152.167969 172.523438 L 152.527344 171.8125 Z M 286.679688 439.636719 L 283.058594 438.976563 L 282.164063 437.605469 L 282.484375 436.070313 L 286.839844 437.054688 L 287.960938 438.832031 Z M 236.835938 466.113281 L 235.136719 465.644531 L 236.523438 463.683594 L 237.195313 464.164063 L 237.5 465.839844 Z M 236.835938 466.113281 "/>
<path style=" stroke:none;fill-rule:nonzero;fill:rgb(80.392157%,58.431373%,4.705882%);fill-opacity:1;" d="M 220.015625 277.199219 L 219.730469 278.996094 L 218.90625 280.617188 L 217.617188 281.90625 L 215.996094 282.730469 L 214.199219 283.015625 L 212.402344 282.730469 L 210.78125 281.90625 L 209.496094 280.617188 L 208.667969 278.996094 L 208.382813 277.199219 L 208.667969 275.402344 L 209.496094 273.78125 L 210.78125 272.496094 L 212.402344 271.667969 L 214.199219 271.382813 L 215.996094 271.667969 L 217.617188 272.496094 L 218.90625 273.78125 L 219.730469 275.402344 Z M 220.015625 277.199219 "/>
<path style=" stroke:none;fill-rule:nonzero;fill:rgb(80.392157%,58.431373%,4.705882%);fill-opacity:1;" d="M 191.242188 219.71875 L 190.109375 218.585938 L 189.285156 216.964844 L 189 215.167969 L 189.285156 213.371094 L 190.109375 211.75 L 191.398438 210.464844 L 193.019531 209.636719 L 194.816406 209.355469 L 197.167969 209.921875 L 197.433594 210.839844 L 197.785156 210.703125 L 197.761719 211.238281 L 196.796875 214.386719 L 195.867188 215.914063 Z M 191.242188 219.71875 "/>
<path style=" stroke:none;fill-rule:nonzero;fill:rgb(80.392157%,58.431373%,4.705882%);fill-opacity:1;" d="M 121.714844 265.375 L 120.695313 266.398438 L 119.074219 267.222656 L 117.277344 267.507813 L 115.242188 267.101563 L 115.277344 264.699219 L 117.226563 262.640625 L 118.089844 256.003906 L 119.074219 256.160156 L 120.695313 256.988281 L 122.3125 258.917969 L 121.183594 263.964844 Z M 121.714844 265.375 "/>
<path style=" stroke:none;fill-rule:nonzero;fill:rgb(80.392157%,58.431373%,4.705882%);fill-opacity:1;" d="M 150.996094 289.964844 L 152.628906 288.003906 L 154.25 287.175781 L 156.046875 286.890625 L 157.84375 287.175781 L 159.464844 288.003906 L 160.75 289.289063 L 161.578125 290.910156 L 161.738281 291.917969 L 159.410156 293.515625 L 156.15625 293.3125 L 155.160156 292.984375 Z M 150.996094 289.964844 "/>
<path style=" stroke:none;fill-rule:nonzero;fill:rgb(80.392157%,58.431373%,4.705882%);fill-opacity:1;" d="M 130.847656 219.046875 L 130.773438 219.515625 L 127.28125 218.265625 L 127.882813 216.460938 L 128.195313 216.742188 L 128.945313 216.671875 L 129.90625 215.964844 L 130.5625 217.25 Z M 130.632813 220.382813 L 129.734375 222.464844 L 128.449219 223.75 L 126.828125 224.578125 L 125.03125 224.863281 L 122.90625 224.410156 L 124.160156 221.96875 L 126.660156 220.210938 Z M 127.902344 214.0625 L 129.179688 215.074219 L 128.550781 215.441406 L 127.980469 214.949219 Z M 119.992188 216.285156 L 121.613281 214.339844 L 123.234375 213.515625 L 125.515625 213.308594 L 123.476563 215.398438 L 120.675781 217.269531 Z M 123.378906 222.417969 L 122.582031 222.078125 L 123.082031 221.191406 L 124.476563 221.046875 Z M 120.207031 222.226563 L 119.5 220.84375 L 119.214844 219.046875 L 119.441406 217.617188 L 121.195313 219.144531 L 120.902344 221.207031 Z M 120.207031 222.226563 "/>
<path style=" stroke:none;fill-rule:nonzero;fill:rgb(80.392157%,58.431373%,4.705882%);fill-opacity:1;" d="M 154.175781 292.269531 L 154.390625 290.910156 L 155.21875 289.289063 L 156.503906 288.003906 L 158.125 287.175781 L 159.921875 286.890625 L 161.71875 287.175781 L 163.339844 288.003906 L 164.679688 289.394531 L 163.3125 290.011719 L 161.832031 291.855469 L 159.410156 293.515625 L 156.15625 293.3125 Z M 154.175781 292.269531 "/>
<path style=" stroke:none;fill-rule:nonzero;fill:rgb(80.392157%,58.431373%,4.705882%);fill-opacity:1;" d="M 88.429688 500.046875 L 88.566406 499.308594 L 88.941406 499.117188 L 89.34375 499.789063 Z M 88.429688 500.046875 "/>
<path style=" stroke:none;fill-rule:nonzero;fill:rgb(80.392157%,58.431373%,4.705882%);fill-opacity:1;" d="M 88.429688 500.046875 L 88.566406 499.308594 L 88.941406 499.117188 L 89.34375 499.789063 Z M 88.429688 500.046875 "/>
</g>
</svg>
