<?xml version="1.0" encoding="UTF-8"?>
<svg xmlns="http://www.w3.org/2000/svg" xmlns:xlink="http://www.w3.org/1999/xlink" width="378pt" height="504pt" viewBox="0 0 378 504" version="1.1">
<g id="data">
<rect x="0" y="0" width="378" height="504" style="fill:rgb(100%,100%,100%);fill-opacity:1;stroke:none;"/>
<path style=" stroke:none;fill-rule:nonzero;fill:rgb(100%,100%,100%);fill-opacity:1;" d="M 53.308594 504 L 324.691406 504 L 324.691406 0 L 53.308594 0 Z M 53.308594 504 "/>
<path style=" stroke:none;fill-rule:nonzero;fill:rgb(22.745098%,53.333333%,16.078431%);fill-opacity:1;" d="M 300.511719 375.476563 L 300.851563 375.929688 L 303.371094 378 L 305.253906 380.347656 L 305.515625 380.546875 L 306.730469 384.164063 L 307.179688 391.25 L 306.777344 393.191406 L 306.890625 393.976563 L 305.789063 396.917969 L 305.195313 399.773438 L 305.1875 399.785156 L 303.886719 402.53125 L 303.246094 406.136719 L 303.328125 408.035156 L 297.144531 414.53125 L 295.578125 412.011719 L 292.742188 410.515625 L 292.480469 410.636719 L 293.898438 413.703125 L 295.890625 416.628906 L 296.3125 416.765625 L 296.164063 417.742188 L 294.574219 419.804688 L 292.191406 421.289063 L 290.003906 421.65625 L 289.660156 421.574219 L 288.214844 419.332031 L 284.976563 421.730469 L 280.71875 424.230469 L 282.339844 425.378906 L 285.105469 424.398438 L 286.097656 423.375 L 286.894531 423.164063 L 287.328125 423.710938 L 287.632813 428.84375 L 285.6875 430.875 L 283.441406 432.558594 L 282.84375 432.699219 L 279.644531 432.160156 L 274.75 433.78125 L 272.609375 436.117188 L 274.253906 436.015625 L 275.152344 434.667969 L 276.683594 434.363281 L 278.285156 434.328125 L 281.054688 434.949219 L 281.828125 435.589844 L 281.691406 436.328125 L 279.554688 436.347656 L 277.390625 437.65625 L 277.96875 438.546875 L 281.382813 438.964844 L 286.863281 440.339844 L 289.394531 439.9375 L 291.074219 438.957031 L 296.394531 438.222656 L 299.492188 440.03125 L 299.492188 447.785156 L 295.582031 448.808594 L 292.261719 451.109375 L 290.421875 453.035156 L 289.167969 454.9375 L 288.269531 457.171875 L 288.109375 458.058594 L 286.253906 458.289063 L 284.1875 457.9375 L 281.042969 460.90625 L 278.484375 461.933594 L 274.789063 462.777344 L 272.597656 463.816406 L 272.082031 464.515625 L 270.457031 465.394531 L 268.984375 466.714844 L 267.304688 466.207031 L 265.644531 464.84375 L 262.105469 463.488281 L 259.351563 463.144531 L 254.71875 463.132813 L 250.96875 463.632813 L 247.832031 464.972656 L 247.65625 465.121094 L 244.628906 465.699219 L 242.703125 466.390625 L 242.113281 466.964844 L 242.085938 467.101563 L 240.457031 467.277344 L 240.121094 467.386719 L 238.210938 466.1875 L 238.632813 465.4375 L 239.46875 464.933594 L 237.714844 463.296875 L 231.496094 463.171875 L 231.378906 463.496094 L 232.574219 464.835938 L 232.214844 465.75 L 231.738281 466.042969 L 226.691406 465.496094 L 219.566406 468.449219 L 217.054688 467.824219 L 210.222656 468.96875 L 208.164063 468.875 L 207.273438 468.058594 L 206.238281 469.769531 L 209.429688 471.089844 L 209.714844 470.9375 L 210.1875 472.128906 L 209.566406 473.890625 L 206.84375 474.453125 L 204.453125 473.097656 L 203.015625 472.699219 L 197.625 472.007813 L 196.175781 472.65625 L 195.679688 473.863281 L 195.816406 474.75 L 195.308594 474.839844 L 194.851563 473.972656 L 190.289063 470.589844 L 185.898438 468.519531 L 183.121094 467.984375 L 181.648438 469.066406 L 176.207031 469.78125 L 174.339844 470.335938 L 168.992188 473.234375 L 168.214844 474.070313 L 167.203125 476.179688 L 162.746094 489.226563 L 160.929688 490.242188 L 158.269531 489.722656 L 157.554688 489.058594 L 156.527344 486.851563 L 154.683594 485.4375 L 153.613281 485.542969 L 152.417969 486.300781 L 151.738281 486.164063 L 148.46875 482.535156 L 142.796875 482.960938 L 141.527344 483.375 L 140.734375 484.175781 L 139.910156 484.507813 L 134.507813 484.320313 L 132.167969 484.859375 L 129.414063 488.195313 L 126.714844 489.746094 L 124.039063 490.597656 L 123.132813 494.289063 L 123.664063 495.292969 L 123.496094 496.125 L 122.722656 496.945313 L 120.660156 497.648438 L 120.394531 498.183594 L 118.253906 498.183594 L 117.96875 497.691406 L 118.09375 496.4375 L 117.15625 494.691406 L 115.984375 493.691406 L 112.253906 492.070313 L 111.410156 491.984375 L 110.375 492.488281 L 110.242188 494.183594 L 110.007813 494.453125 L 108.527344 494.183594 L 105.644531 494.308594 L 105.441406 494.242188 L 105.628906 491.574219 L 106.074219 490.5625 L 107.289063 490.027344 L 109.207031 489.558594 L 111.523438 488.253906 L 111.703125 488.09375 L 111.738281 488.078125 L 112.199219 488.253906 L 112.445313 488.9375 L 113.574219 489.15625 L 118.144531 485.910156 L 121.425781 483.085938 L 124.375 479.769531 L 125.210938 477.886719 L 124.875 476.421875 L 125.570313 474.691406 L 127.382813 473.914063 L 128.222656 473.316406 L 128.386719 473.238281 L 132.105469 472.640625 L 132.679688 471.785156 L 133.257813 469.527344 L 135.859375 467.5625 L 138.636719 464.640625 L 138.832031 462.238281 L 139.039063 461.941406 L 139.972656 459.832031 L 140.457031 457.710938 L 140.539063 455.539063 L 141.710938 455.003906 L 142.492188 455.105469 L 144.269531 456.015625 L 145.761719 455.429688 L 148.429688 452.488281 L 148.144531 448.128906 L 148.292969 447.785156 L 148.828125 447.296875 L 151.105469 446.613281 L 157.421875 446.269531 L 159.910156 445.683594 L 164.597656 446.761719 L 166.046875 446.148438 L 167.527344 446.515625 L 169.484375 447.285156 L 170.039063 448.109375 L 170.757813 448.421875 L 173.15625 448.464844 L 180.570313 447.503906 L 181.109375 445.632813 L 181.210938 443.15625 L 182.519531 440.25 L 190.867188 432.195313 L 195.792969 425.3125 L 197.929688 424.472656 L 198.285156 423.78125 L 198.070313 423.238281 L 197.8125 423.082031 L 196.09375 424.355469 L 192.90625 427.300781 L 190.570313 429.988281 L 189.222656 431.449219 L 185.628906 432.957031 L 183.714844 433.246094 L 182.441406 433.0625 L 178.394531 435.230469 L 177.398438 436.808594 L 177.039063 438.671875 L 176.445313 439.273438 L 174.058594 439.917969 L 170.558594 439.851563 L 166.820313 439 L 166.347656 438.652344 L 161.371094 433.375 L 159.03125 429.199219 L 155.65625 429.589844 L 151.253906 431.460938 L 150.695313 430.523438 L 148.4375 428.433594 L 148.539063 428.378906 L 150.066406 428.890625 L 151.640625 428.421875 L 152.765625 427.832031 L 153.085938 427.097656 L 152.808594 426.597656 L 147.785156 426.460938 L 143.210938 423.710938 L 139.503906 423.714844 L 136.765625 424.277344 L 136.714844 424.507813 L 135.03125 424.773438 L 132.867188 425.496094 L 130.683594 426.773438 L 128.90625 428.398438 L 127.304688 426.363281 L 127.425781 426.082031 L 128.796875 425.832031 L 131.792969 424.328125 L 131.226563 422.867188 L 130.640625 424.257813 L 127.769531 424.613281 L 125 424.347656 L 124.65625 422.402344 L 124.417969 421.773438 L 125.167969 421.753906 L 125.464844 421.238281 L 124.929688 417.953125 L 123.328125 417.210938 L 121.46875 417.105469 L 121.453125 417.085938 L 121.582031 416.679688 L 124.003906 416.171875 L 126.613281 414.882813 L 130.667969 411.550781 L 133.074219 411.34375 L 134.871094 409.289063 L 135.359375 408.371094 L 136.460938 408.09375 L 138.660156 406.839844 L 138.9375 406.589844 L 141.359375 406.660156 L 142.21875 406.390625 L 149.359375 401.828125 L 152.136719 398.207031 L 153.054688 396.195313 L 154.199219 391.746094 L 153.734375 388.820313 L 153.183594 387.738281 L 153.132813 386.496094 L 152.855469 385.632813 L 153.179688 384.597656 L 154.652344 381.796875 L 152.269531 378.203125 L 152.683594 374.835938 L 153.175781 374.082031 L 152.804688 373.207031 L 150.203125 373.105469 L 145.449219 374.257813 L 143.757813 375.484375 L 142.738281 377.039063 L 140.722656 376.902344 L 143.53125 375.015625 L 146.542969 371.617188 L 147.734375 369.097656 L 148.292969 366.371094 L 149.992188 364.492188 L 151.25 362.292969 L 151.699219 360.488281 L 153.09375 359.609375 L 154.941406 359.808594 L 157.425781 358.757813 L 158.171875 358.777344 L 161.304688 358.417969 L 164.160156 357.34375 L 167.339844 357.714844 L 172.597656 355.179688 L 173.933594 355.046875 L 174.484375 355.082031 L 179.910156 359.441406 L 180.433594 358.429688 L 177.679688 353.460938 L 178.242188 352.835938 L 180.867188 352.449219 L 181.503906 352.695313 L 181.914063 353.875 L 182.898438 354.332031 L 184.078125 356.789063 L 185.613281 357.902344 L 188.359375 357.621094 L 190.335938 355.148438 L 189.90625 355.050781 L 188.667969 355.527344 L 188.3125 355.957031 L 186.378906 356.386719 L 183.8125 354.640625 L 181.097656 348.761719 L 182.050781 347.246094 L 182.90625 344.859375 L 183.789063 340.003906 L 185.429688 339.015625 L 185.140625 338.578125 L 183.679688 338.507813 L 182.769531 331.550781 L 182.25 330.289063 L 184.695313 329.191406 L 187.28125 323.421875 L 187.71875 320.933594 L 187.855469 317.484375 L 184.742188 320.527344 L 179.199219 323.441406 L 177.335938 322.691406 L 177.117188 322.308594 L 178.117188 321.464844 L 180.933594 318.070313 L 182.160156 316 L 183.738281 309.847656 L 183.625 305.875 L 182.109375 302.066406 L 179.269531 298.941406 L 175.621094 297.074219 L 171.554688 296.585938 L 174.160156 296.066406 L 176.585938 294.96875 L 178.414063 293.609375 L 181.078125 290.871094 L 182.40625 288.691406 L 183.226563 286.273438 L 183.5 283.609375 L 183.183594 281.078125 L 185.785156 279.707031 L 188.042969 277.632813 L 189.679688 275.039063 L 190.582031 272.109375 L 192.015625 277.347656 L 193.1875 279.300781 L 194.816406 281.078125 L 191.257813 281.425781 L 188.082031 282.769531 L 185.359375 285.082031 L 183.464844 288.113281 L 182.214844 291.878906 L 182.199219 295.714844 L 183.433594 299.347656 L 185.78125 302.378906 L 187.621094 303.769531 L 189.699219 304.773438 L 191.933594 305.34375 L 194.238281 305.460938 L 196.398438 305.152344 L 201.695313 303.703125 L 203.78125 302.71875 L 205.539063 301.433594 L 207.175781 299.632813 L 208.351563 297.648438 L 209.140625 295.347656 L 209.433594 293.0625 L 209.269531 290.761719 L 208.605469 288.421875 L 207.542969 286.375 L 205.996094 284.441406 L 208.628906 283.46875 L 210.953125 281.890625 L 212.683594 280.007813 L 214.199219 277.199219 L 214.710938 276.75 L 215.6875 279.382813 L 217.347656 281.804688 L 219.460938 283.660156 L 221.953125 284.953125 L 221.324219 287.839844 L 221.445313 290.789063 L 222.300781 293.617188 L 223.84375 296.132813 L 225.867188 298.105469 L 228.191406 299.480469 L 230.890625 300.304688 L 232.117188 300.375 L 233.210938 300.886719 L 232.140625 302.09375 L 230.972656 304.082031 L 230.25 306.140625 L 229.914063 308.421875 L 230.039063 310.726563 L 230.574219 312.839844 L 231.554688 314.929688 L 232.847656 316.683594 L 236.058594 319.210938 L 239.199219 320.664063 L 241.425781 321.257813 L 245.378906 321.210938 L 249.09375 319.847656 L 252.96875 319.847656 L 252.96875 323.722656 L 252.359375 325.820313 L 252.152344 327.996094 L 252.914063 332.152344 L 254.085938 334.433594 L 255.828125 336.496094 L 258.109375 338.164063 L 260.722656 339.230469 L 262.429688 341.402344 L 262.714844 341.625 L 263.316406 342.46875 L 263.640625 343.980469 L 262.804688 345.191406 L 263.28125 343.65625 L 262.507813 342.839844 L 260.445313 342 L 258.378906 342.789063 L 257.507813 342.753906 L 256.035156 341.773438 L 253.664063 338.65625 L 252.601563 338.082031 L 245.550781 339.511719 L 244.589844 338.644531 L 243.40625 338.558594 L 241.210938 339.871094 L 241.886719 340.445313 L 246.324219 340.394531 L 249.617188 339.34375 L 251.976563 339.082031 L 254.382813 342.558594 L 260.535156 347.621094 L 263.042969 349.058594 L 263.664063 349.039063 L 266.046875 352.214844 L 268.035156 357.019531 L 267.824219 358.105469 L 268.179688 361.515625 L 269.140625 364.019531 L 269.316406 364.28125 L 269.210938 365.21875 L 264.953125 369.09375 L 261.394531 373.164063 L 260.601563 374.816406 L 262.84375 374.3125 L 264.9375 375.519531 L 266.9375 378.226563 L 270.21875 378.804688 L 270.625 378.746094 L 271.910156 376.796875 L 272.234375 374.960938 L 273.40625 371.914063 L 274.707031 370.632813 L 277.644531 370.121094 L 283.855469 370.910156 L 284.226563 370.847656 L 284.253906 370.867188 L 286.703125 370.742188 L 293.949219 371.515625 L 296.914063 372.84375 Z M 214.199219 308.214844 L 212.230469 306.785156 L 210.132813 305.835938 L 207.757813 305.300781 L 205.324219 305.273438 L 202.9375 305.753906 L 200.707031 306.71875 L 198.722656 308.128906 L 197.074219 309.921875 L 195.890625 311.898438 L 195.152344 313.945313 L 194.363281 318.105469 L 194.355469 320.671875 L 194.867188 323.058594 L 195.867188 325.285156 L 197.308594 327.253906 L 199.023438 328.800781 L 201.128906 330.035156 L 203.445313 330.800781 L 206 331.0625 L 208.425781 330.792969 L 210.503906 330.121094 L 212.527344 329.003906 L 215.617188 326.492188 L 217.164063 324.769531 L 218.335938 322.773438 L 219.089844 320.585938 L 219.398438 318.164063 L 219.21875 315.859375 L 218.585938 313.632813 L 217.527344 311.578125 L 215.992188 309.679688 Z M 232.871094 471.550781 L 231.871094 472.320313 L 230.464844 474.011719 L 229.960938 474.269531 L 228.117188 474.644531 L 222.296875 470.886719 L 220.207031 471.1875 L 221.476563 469.683594 L 227.316406 466.367188 L 232.550781 467.761719 L 234.171875 469.894531 Z M 151.738281 360.339844 L 152.167969 358.617188 L 154.183594 358.667969 L 154.066406 358.859375 Z M 171.554688 222.921875 L 173.722656 221.214844 L 175.429688 219.046875 L 175.640625 219.261719 L 175.070313 221.359375 L 174.902344 223.527344 L 175.589844 229.492188 L 176.519531 232.429688 L 178.191406 235.015625 L 180.515625 237.039063 L 174.761719 240.109375 L 170.214844 238.117188 L 168.085938 238.054688 L 170.6875 235.652344 L 172.34375 232.617188 L 172.953125 230.121094 L 173.011719 227.683594 L 172.558594 225.285156 Z M 187.9375 239.015625 L 190.9375 238.429688 L 192.644531 240.601563 L 194.816406 242.308594 L 195.953125 244.882813 L 197.675781 247.109375 L 199.992188 248.925781 L 202.570313 250.0625 L 203.875 252.671875 L 205.789063 254.871094 L 203.667969 255.191406 L 201.640625 255.890625 L 194.648438 259.988281 L 191.945313 263.214844 L 190.433594 267.519531 L 189.050781 264.140625 L 186.035156 260.261719 L 184.320313 258.605469 L 180.867188 256.203125 L 177.605469 255.058594 L 174.019531 254.941406 L 170.570313 255.917969 L 167.675781 257.816406 L 166.140625 254.871094 L 163.832031 252.484375 L 161.0625 250.890625 L 157.839844 250.097656 L 155.019531 250.105469 L 152.746094 250.539063 L 150.492188 251.472656 L 148.484375 252.855469 L 146.726563 254.730469 L 145.480469 256.828125 L 144.699219 259.140625 L 144.414063 261.691406 L 144.355469 261.65625 L 144.195313 260.621094 L 142.601563 256.71875 L 139.777344 254.832031 L 137.378906 252.511719 L 138.449219 244.105469 L 138.964844 243.78125 L 140.539063 242.308594 L 142.402344 242.308594 L 142.886719 242.511719 L 146.15625 243.175781 L 148.300781 243.253906 L 145.921875 242.308594 L 148.292969 242.308594 L 149.925781 243.753906 L 151.914063 244.921875 L 153.96875 245.644531 L 156.253906 245.976563 L 160.429688 245.402344 L 162.425781 244.527344 L 164.222656 243.296875 L 166.304688 241.035156 L 167.128906 239.472656 L 168.246094 240.195313 L 178.0625 241.875 L 182.921875 243.167969 L 186.398438 241.730469 L 187.519531 239.417969 Z M 132.992188 259.355469 L 132.632813 259.449219 L 130.664063 260.394531 L 128.90625 261.691406 L 126.492188 261.207031 L 126.386719 260.726563 L 127.785156 260.070313 L 129.632813 258.703125 L 131.097656 257.101563 L 132.113281 255.445313 L 132.984375 258.382813 Z M 133.394531 249.746094 L 133.335938 248.414063 L 132.785156 246.183594 L 134.46875 245.886719 L 134.707031 246.3125 L 135.339844 249.003906 L 135.222656 250.96875 L 134.8125 251.347656 Z M 171.554688 172.523438 L 167.675781 172.523438 L 165.527344 171.214844 L 167.808594 170.273438 L 170.480469 169.527344 L 170.492188 169.949219 L 171.554688 169.839844 L 172.09375 169.4375 L 175.367188 169.730469 L 179.308594 168.644531 L 179.308594 176.398438 L 177.734375 174.925781 L 175.804688 173.710938 L 173.675781 172.898438 Z M 160.714844 169.707031 L 159.921875 169.5625 L 155.773438 170.328125 L 152.167969 172.523438 L 152.6875 171.671875 L 156.390625 168.453125 L 157.75 167.980469 L 160.300781 168.324219 L 161.058594 169.320313 Z M 154.398438 168.742188 L 155.132813 164.769531 L 154.367188 160.617188 L 152.167969 157.015625 L 154.628906 154.796875 L 157.492188 153.398438 L 160.628906 152.832031 L 163.800781 153.136719 L 162.933594 155.808594 L 162.601563 156.074219 L 162.234375 157.082031 L 162.671875 158.175781 L 162.078125 159.632813 L 159.644531 160.289063 L 156.839844 159.359375 L 153.464844 157.734375 L 154.464844 159.796875 L 155.875 160.457031 L 161.363281 161.917969 L 163.421875 162.207031 L 164.644531 164.644531 L 164.671875 164.671875 L 162.722656 166.96875 L 162.175781 167.183594 L 161.726563 166.894531 L 161.859375 165.949219 L 161.53125 165.507813 L 159.984375 165.785156 L 155.320313 167.769531 Z M 286.679688 439.636719 L 283.058594 438.976563 L 282.164063 437.605469 L 282.484375 436.070313 L 286.839844 437.054688 L 287.960938 438.832031 Z M 236.835938 466.113281 L 235.136719 465.644531 L 236.523438 463.683594 L 237.195313 464.164063 L 237.5 465.839844 Z M 88.429688 500.046875 L 88.566406 499.308594 L 88.941406 499.117188 L 89.34375 499.789063 Z M 88.429688 500.046875 "/>
</g>
</svg>
