<?xml version="1.0" encoding="UTF-8"?>
<svg xmlns="http://www.w3.org/2000/svg" xmlns:xlink="http://www.w3.org/1999/xlink" width="378pt" height="504pt" viewBox="0 0 378 504" version="1.1">
<g id="data">
<rect x="0" y="0" width="378" height="504" style="fill:rgb(100%,100%,100%);fill-opacity:1;stroke:none;"/>
<path style=" stroke:none;fill-rule:nonzero;fill:rgb(100%,100%,100%);fill-opacity:1;" d="M 53.308594 504 L 324.691406 504 L 324.691406 0 L 53.308594 0 Z M 53.308594 504 "/>
<path style=" stroke:none;fill-rule:nonzero;fill:rgb(22.745098%,53.333333%,16.078431%);fill-opacity:1;" d="M 166.203125 225.199219 L 165.753906 223.363281 L 165.921875 221.476563 L 166.683594 219.746094 L 167.957031 218.351563 L 169.582031 217.074219 L 170.859375 215.453125 L 172.328125 214.125 L 174.160156 213.371094 L 176.136719 213.273438 L 178.03125 213.84375 L 179.625 215.015625 L 179.832031 215.234375 L 180.945313 216.878906 L 181.4375 218.804688 L 181.253906 220.78125 L 180.828125 222.351563 L 180.789063 222.859375 L 177.804688 225.21875 L 178.117188 225.714844 L 179.84375 225.195313 L 180.890625 224.6875 L 181.300781 228.269531 L 181.824219 229.914063 L 182.683594 231.230469 L 184.011719 232.359375 L 184.699219 232.652344 L 181.046875 235.800781 L 180.578125 237.003906 L 174.761719 240.109375 L 170.214844 238.117188 L 166.480469 238.003906 L 166.738281 239.222656 L 168.246094 240.195313 L 178.0625 241.875 L 182.921875 243.167969 L 186.398438 241.730469 L 187.519531 239.417969 L 188.617188 238.355469 L 189.539063 238.171875 L 193.183594 238.5 L 199.339844 242.761719 L 206.488281 246.65625 L 208.382813 250.394531 L 208.382813 253.9375 L 208.121094 255.664063 L 207.359375 257.234375 L 206.164063 258.507813 L 204.539063 259.785156 L 203.261719 261.410156 L 202.296875 262.378906 L 201.128906 263.09375 L 198.957031 264.097656 L 197.769531 265.117188 L 196.839844 266.527344 L 195.980469 269.261719 L 195.777344 269.671875 L 196.191406 270.574219 L 197.414063 275.039063 L 197.875 275.808594 L 199.101563 277.148438 L 200.125 278.707031 L 200.601563 280.507813 L 200.484375 282.367188 L 199.785156 284.097656 L 198.574219 285.515625 L 196.976563 286.476563 L 195.160156 286.882813 L 193.136719 287 L 191.949219 287.351563 L 190.753906 288.019531 L 189.839844 288.851563 L 189.03125 290.011719 L 188.195313 291.992188 L 187.925781 293.3125 L 187.945313 294.550781 L 188.300781 295.9375 L 188.957031 297.15625 L 189.964844 298.257813 L 191.132813 299.023438 L 192.390625 299.476563 L 193.621094 299.621094 L 194.984375 299.472656 L 196.78125 298.847656 L 198.925781 298.527344 L 201.039063 299.015625 L 202.585938 299.699219 L 204.238281 300.070313 L 204.941406 300.347656 L 205.492188 299.992188 L 207.335938 299.175781 L 208.300781 298.460938 L 209.730469 296.742188 L 210.375 296.078125 L 212.324219 294.378906 L 213.269531 292.855469 L 213.636719 291.589844 L 213.6875 290.359375 L 211.996094 284.027344 L 211.804688 282.265625 L 212.15625 280.527344 L 213.011719 278.972656 L 214.296875 277.75 L 215.890625 276.972656 L 217.644531 276.710938 L 219.398438 276.992188 L 220.386719 277.488281 L 220.40625 277.574219 L 221.269531 280.457031 L 222.984375 284.039063 L 223.773438 285.027344 L 225.945313 294.183594 L 229.304688 299.0625 L 238.539063 303.371094 L 237.960938 304.292969 L 236.824219 305.589844 L 236.253906 306.585938 L 235.890625 307.675781 L 235.75 308.816406 L 235.835938 309.960938 L 236.152344 311.082031 L 236.625 312.019531 L 237.320313 312.914063 L 238.464844 313.878906 L 242.117188 316.085938 L 244.582031 316.902344 L 245.679688 316.941406 L 246.839844 316.726563 L 248.03125 316.226563 L 249.167969 315.414063 L 249.289063 315.722656 L 252.390625 319.148438 L 256.121094 320.875 L 257.207031 321.722656 L 254.738281 323.09375 L 253.890625 324.554688 L 253.765625 325.996094 L 254.984375 329.992188 L 256.160156 332.453125 L 263.316406 342.46875 L 263.640625 343.980469 L 262.804688 345.191406 L 263.28125 343.65625 L 262.507813 342.839844 L 260.445313 342 L 258.378906 342.789063 L 257.507813 342.753906 L 256.035156 341.773438 L 253.664063 338.65625 L 252.601563 338.082031 L 245.550781 339.511719 L 244.589844 338.644531 L 243.40625 338.558594 L 241.210938 339.871094 L 241.886719 340.445313 L 246.324219 340.394531 L 249.617188 339.34375 L 251.976563 339.082031 L 254.382813 342.558594 L 260.535156 347.621094 L 263.042969 349.058594 L 263.664063 349.039063 L 266.046875 352.214844 L 268.980469 359.304688 L 269.535156 362.402344 L 269.210938 365.21875 L 264.953125 369.09375 L 261.394531 373.164063 L 260.601563 374.816406 L 262.84375 374.3125 L 264.9375 375.519531 L 266.9375 378.226563 L 270.21875 378.804688 L 270.625 378.746094 L 271.910156 376.796875 L 272.234375 374.960938 L 273.40625 371.914063 L 274.707031 370.632813 L 277.851563 370.085938 L 283.34375 370.234375 L 284.253906 370.867188 L 286.703125 370.742188 L 293.949219 371.515625 L 296.914063 372.84375 L 304.070313 378.085938 L 305.367188 380.105469 L 306.730469 384.164063 L 307.179688 391.25 L 306.777344 393.191406 L 306.890625 393.976563 L 305.789063 396.917969 L 303.519531 407.832031 L 297.144531 414.53125 L 295.578125 412.011719 L 292.742188 410.515625 L 292.480469 410.636719 L 293.898438 413.703125 L 295.890625 416.628906 L 296.3125 416.765625 L 296.164063 417.742188 L 294.574219 419.804688 L 292.191406 421.289063 L 290.003906 421.65625 L 289.660156 421.574219 L 288.214844 419.332031 L 284.976563 421.730469 L 280.71875 424.230469 L 282.339844 425.378906 L 285.105469 424.398438 L 286.097656 423.375 L 286.894531 423.164063 L 287.328125 423.710938 L 287.632813 428.84375 L 285.6875 430.875 L 283.441406 432.558594 L 282.84375 432.699219 L 279.644531 432.160156 L 274.75 433.78125 L 272.609375 436.117188 L 274.253906 436.015625 L 275.152344 434.667969 L 276.683594 434.363281 L 278.285156 434.328125 L 281.054688 434.949219 L 281.828125 435.589844 L 281.691406 436.328125 L 279.554688 436.347656 L 277.390625 437.65625 L 277.96875 438.546875 L 281.382813 438.964844 L 286.863281 440.339844 L 289.394531 439.9375 L 291.074219 438.957031 L 299.742188 437.757813 L 300.988281 440.148438 L 300.773438 446.324219 L 300.335938 447.820313 L 299.394531 449.050781 L 296.972656 450.242188 L 295.839844 450.375 L 292.621094 451.640625 L 291.179688 452.742188 L 289.847656 454.226563 L 289.460938 455.09375 L 289.214844 456.324219 L 289.464844 457.886719 L 286.253906 458.289063 L 284.1875 457.9375 L 281.042969 460.90625 L 278.484375 461.933594 L 274.789063 462.777344 L 272.597656 463.816406 L 270.539063 466.589844 L 269.761719 466.949219 L 259.269531 463.777344 L 256.070313 463.507813 L 244.628906 465.699219 L 242.703125 466.390625 L 242.113281 466.964844 L 241.902344 467.984375 L 241.359375 468.164063 L 238.210938 466.1875 L 238.632813 465.4375 L 239.46875 464.933594 L 237.714844 463.296875 L 231.496094 463.171875 L 231.378906 463.496094 L 232.574219 464.835938 L 232.214844 465.75 L 231.738281 466.042969 L 226.691406 465.496094 L 219.566406 468.449219 L 217.054688 467.824219 L 210.222656 468.96875 L 208.164063 468.875 L 207.273438 468.058594 L 206.238281 469.769531 L 209.429688 471.089844 L 209.714844 470.9375 L 210.1875 472.128906 L 209.566406 473.890625 L 206.84375 474.453125 L 204.453125 473.097656 L 203.015625 472.699219 L 197.625 472.007813 L 196.175781 472.65625 L 195.679688 473.863281 L 195.832031 474.871094 L 196.757813 475.523438 L 196.488281 476.304688 L 195.917969 475.996094 L 194.851563 473.972656 L 190.289063 470.589844 L 185.898438 468.519531 L 183.121094 467.984375 L 181.648438 469.066406 L 176.207031 469.78125 L 174.339844 470.335938 L 168.992188 473.234375 L 168.214844 474.070313 L 167.203125 476.179688 L 162.746094 489.226563 L 160.929688 490.242188 L 158.269531 489.722656 L 157.554688 489.058594 L 156.527344 486.851563 L 154.683594 485.4375 L 153.613281 485.542969 L 152.417969 486.300781 L 151.738281 486.164063 L 148.46875 482.535156 L 142.796875 482.960938 L 141.527344 483.375 L 140.734375 484.175781 L 139.910156 484.507813 L 134.507813 484.320313 L 132.167969 484.859375 L 129.414063 488.195313 L 126.714844 489.746094 L 124.039063 490.597656 L 123.132813 494.289063 L 123.664063 495.292969 L 123.496094 496.125 L 122.722656 496.945313 L 120.660156 497.648438 L 119.628906 499.730469 L 118.675781 498.910156 L 117.96875 497.691406 L 118.09375 496.4375 L 117.15625 494.691406 L 115.984375 493.691406 L 112.253906 492.070313 L 111.410156 491.984375 L 110.375 492.488281 L 110.242188 494.183594 L 109.421875 495.128906 L 106.824219 495.664063 L 105.398438 494.824219 L 105.628906 491.574219 L 106.074219 490.5625 L 111.738281 488.078125 L 112.199219 488.253906 L 112.445313 488.9375 L 113.574219 489.15625 L 118.144531 485.910156 L 121.425781 483.085938 L 124.375 479.769531 L 125.210938 477.886719 L 124.875 476.421875 L 125.640625 474.519531 L 128.386719 473.238281 L 132.105469 472.640625 L 132.679688 471.785156 L 133.257813 469.527344 L 135.859375 467.5625 L 138.636719 464.640625 L 139.128906 458.542969 L 139.796875 454.753906 L 142.492188 455.105469 L 144.269531 456.015625 L 145.761719 455.429688 L 148.429688 452.488281 L 148.105469 447.519531 L 151.105469 446.613281 L 157.421875 446.269531 L 159.910156 445.683594 L 164.597656 446.761719 L 166.046875 446.148438 L 167.527344 446.515625 L 169.484375 447.285156 L 170.039063 448.109375 L 170.757813 448.421875 L 173.15625 448.464844 L 180.570313 447.503906 L 181.109375 445.632813 L 181.210938 443.15625 L 182.519531 440.25 L 190.867188 432.195313 L 195.792969 425.3125 L 197.929688 424.472656 L 198.285156 423.78125 L 198.070313 423.238281 L 197.8125 423.082031 L 196.09375 424.355469 L 192.90625 427.300781 L 190.570313 429.988281 L 189.222656 431.449219 L 185.628906 432.957031 L 183.714844 433.246094 L 182.441406 433.0625 L 178.394531 435.230469 L 177.398438 436.808594 L 177.039063 438.671875 L 176.445313 439.273438 L 174.058594 439.917969 L 170.558594 439.851563 L 166.820313 439 L 166.347656 438.652344 L 161.371094 433.375 L 159.03125 429.199219 L 155.65625 429.589844 L 149.269531 432.308594 L 149.113281 432.746094 L 147.203125 431.632813 L 146.917969 429.308594 L 148.539063 428.378906 L 150.066406 428.890625 L 151.640625 428.421875 L 152.765625 427.832031 L 153.085938 427.097656 L 152.808594 426.597656 L 147.785156 426.460938 L 143.210938 423.710938 L 139.503906 423.714844 L 136.765625 424.277344 L 136.292969 426.515625 L 135.777344 427.203125 L 133.742188 427.917969 L 132.394531 427.265625 L 131.648438 427.453125 L 129.4375 429.378906 L 126.53125 428.132813 L 127.425781 426.082031 L 128.796875 425.832031 L 131.792969 424.328125 L 131.226563 422.867188 L 130.640625 424.257813 L 127.769531 424.613281 L 122.949219 424.152344 L 121.496094 423.164063 L 124.125 421.78125 L 125.167969 421.753906 L 125.464844 421.238281 L 124.929688 417.953125 L 123.328125 417.210938 L 121.445313 417.105469 L 122.019531 415.277344 L 122.117188 415.128906 L 125.933594 413.378906 L 126.539063 411.90625 L 133.074219 411.34375 L 134.871094 409.289063 L 135.753906 407.632813 L 137.585938 406.550781 L 141.359375 406.660156 L 142.21875 406.390625 L 149.359375 401.828125 L 152.136719 398.207031 L 153.054688 396.195313 L 154.199219 391.746094 L 153.734375 388.820313 L 152.566406 386.542969 L 153.179688 384.597656 L 154.652344 381.796875 L 152.269531 378.203125 L 152.683594 374.835938 L 153.175781 374.082031 L 152.804688 373.207031 L 150.203125 373.105469 L 145.449219 374.257813 L 143.757813 375.484375 L 142.039063 378.097656 L 136.757813 378.433594 L 136.246094 378.0625 L 137.339844 376.066406 L 140.148438 373.019531 L 141.023438 372.414063 L 142.589844 371.953125 L 147.132813 367.984375 L 147.953125 364.523438 L 151.550781 360.582031 L 153.09375 359.609375 L 154.941406 359.808594 L 160.492188 357.457031 L 163.644531 357.28125 L 167.339844 357.714844 L 172.597656 355.179688 L 173.933594 355.046875 L 174.484375 355.082031 L 179.910156 359.441406 L 180.433594 358.429688 L 177.679688 353.460938 L 178.242188 352.835938 L 180.867188 352.449219 L 181.503906 352.695313 L 181.914063 353.875 L 182.898438 354.332031 L 184.078125 356.789063 L 185.613281 357.902344 L 188.359375 357.621094 L 190.335938 355.148438 L 189.90625 355.050781 L 188.667969 355.527344 L 188.3125 355.957031 L 186.378906 356.386719 L 183.8125 354.640625 L 179.976563 346.332031 L 183.371094 340.257813 L 185.429688 339.015625 L 185.140625 338.578125 L 182.683594 338.460938 L 181.554688 337.164063 L 181.355469 336.117188 L 181.601563 331.078125 L 181.949219 330.421875 L 184.695313 329.191406 L 187.28125 323.421875 L 187.71875 320.933594 L 187.855469 317.484375 L 184.742188 320.527344 L 179.199219 323.441406 L 177.335938 322.691406 L 174.140625 317.15625 L 176.121094 314.773438 L 176.671875 313.878906 L 178.003906 309.113281 L 178.0625 307.003906 L 177.632813 305.480469 L 176.683594 303.996094 L 175.480469 302.953125 L 172.789063 301.648438 L 171.1875 300.507813 L 170.058594 298.894531 L 169.757813 297.808594 L 173.085938 290.804688 L 173.867188 290.207031 L 176.839844 286.707031 L 177.035156 286.308594 L 178.757813 285.980469 L 180.191406 286.804688 L 181.015625 286.710938 L 182.933594 286.238281 L 183.03125 285.160156 L 182.34375 284.746094 L 180.035156 285.351563 L 177.453125 285.175781 L 177.578125 284.703125 L 177.652344 283.5625 L 177.421875 281.855469 L 177.453125 280.097656 L 178.007813 278.425781 L 179.039063 277 L 180.449219 275.945313 L 182.484375 274.859375 L 183.53125 273.886719 L 184.347656 272.589844 L 185.023438 270.398438 L 185.234375 269.976563 L 184.941406 269.425781 L 184.351563 267.730469 L 183.652344 266.566406 L 181.351563 263.785156 L 179.566406 262.367188 L 178.25 260.894531 L 177.507813 259.070313 L 177.414063 257.097656 L 177.652344 255.1875 L 177.542969 254.019531 L 177.15625 252.792969 L 176.546875 251.742188 L 174.871094 249.984375 L 173.882813 249.230469 L 172.71875 248.679688 L 171.542969 248.417969 L 169.507813 248.550781 L 167.746094 249.285156 L 166.398438 250.472656 L 164.960938 252.96875 L 163.96875 254.238281 L 162.667969 255.1875 L 161.152344 255.746094 L 159.546875 255.863281 L 157.648438 255.742188 L 154.90625 256.019531 L 153.816406 256.355469 L 152.785156 256.921875 L 151.691406 257.902344 L 150.949219 258.976563 L 150.445313 260.300781 L 150.1875 262.398438 L 149.636719 264.25 L 148.511719 265.820313 L 146.933594 266.933594 L 145.078125 267.46875 L 143.152344 267.367188 L 141.363281 266.640625 L 140.351563 266.015625 L 140.917969 265.085938 L 143.644531 263.800781 L 144.390625 261.886719 L 144.195313 260.621094 L 142.601563 256.71875 L 139.777344 254.832031 L 137.378906 252.511719 L 138.6875 242.234375 L 140.710938 241.59375 L 142.886719 242.511719 L 146.15625 243.175781 L 148.300781 243.253906 L 141.261719 240.453125 L 140.441406 240.5625 L 139.386719 240.085938 L 139.183594 238.121094 L 139.378906 236.714844 L 140.539063 236.492188 L 144.414063 236.492188 L 146.507813 236.882813 L 148.320313 238 L 149.714844 239.261719 L 150.730469 239.832031 L 155.75 240.984375 L 156.757813 240.964844 L 157.855469 240.726563 L 159.226563 240.179688 L 160.140625 239.570313 L 161.308594 238.28125 L 162.425781 235.9375 L 163.710938 234.179688 L 166.097656 231.953125 L 166.871094 230.515625 L 167.152344 229.355469 L 167.183594 228.15625 L 166.960938 226.980469 Z M 205.871094 310.714844 L 205.378906 311.035156 L 203.386719 311.945313 L 202.195313 312.921875 L 201.3125 314.167969 L 200.703125 315.832031 L 200.164063 318.921875 L 200.277344 320.582031 L 200.878906 322.199219 L 202.035156 323.691406 L 203.074219 324.453125 L 204.445313 325.011719 L 205.894531 325.203125 L 207.28125 325.03125 L 209.015625 324.296875 L 211.382813 322.453125 L 212.445313 321.304688 L 213.054688 320.238281 L 213.46875 318.847656 L 213.535156 317.539063 L 213.269531 316.148438 L 212.6875 314.890625 L 211.699219 313.667969 L 209.660156 312.0625 L 208.40625 311.429688 L 206.472656 310.964844 Z M 144.464844 361.933594 L 145.257813 361.058594 L 145.800781 360.105469 L 146.527344 357.203125 L 147.316406 355.410156 L 148.652344 353.984375 L 150.074219 353.242188 L 151.039063 355.578125 L 155.546875 356.503906 L 154.066406 358.859375 L 150.984375 360.816406 L 147.425781 363.976563 L 146.109375 363.875 Z M 121.628906 265.148438 L 121.433594 264.992188 L 120.425781 263.488281 L 119.929688 261.742188 L 119.996094 259.929688 L 120.617188 258.226563 L 121.730469 256.796875 L 122.972656 255.957031 L 121.183594 263.964844 Z M 125.753906 254.324219 L 126.429688 253.589844 L 127.035156 252.597656 L 127.214844 252.113281 L 128.179688 251.246094 L 129.539063 251.441406 L 131.390625 253.015625 L 132.984375 258.382813 L 133.019531 262.765625 L 132.308594 263.453125 L 130.613281 263.773438 L 129.152344 263.667969 L 126.582031 261.613281 L 125.375 256.128906 Z M 127.636719 243.582031 L 128.480469 242.273438 L 129.960938 241.101563 L 131.742188 240.464844 L 133.441406 240.15625 L 134.410156 239.777344 L 135.398438 239.15625 L 136.5625 238.0625 L 138.402344 236.898438 L 138.953125 236.792969 L 138.320313 240.257813 L 136.15625 245.152344 L 135.023438 244.945313 L 131.566406 242.222656 L 130.757813 242.5 L 130.269531 243.347656 L 130.09375 244.535156 L 130.664063 246.308594 L 130.519531 246.613281 L 128.257813 245.464844 Z M 185.109375 168.566406 L 185.125 168.644531 L 185.125 172.523438 L 184.839844 174.320313 L 184.011719 175.941406 L 182.726563 177.226563 L 181.105469 178.054688 L 179.308594 178.339844 L 171.554688 178.339844 L 169.933594 178.109375 L 168.441406 177.4375 L 167.199219 176.375 L 165.621094 174.589844 L 164.210938 173.699219 L 162.609375 173.242188 L 160.9375 173.253906 L 160.84375 173.277344 L 161.140625 173.015625 L 167.808594 170.273438 L 170.480469 169.527344 L 170.492188 169.949219 L 171.554688 169.839844 L 173.589844 168.316406 L 174.046875 166.78125 L 178.648438 166.167969 L 179.285156 167.089844 L 180.148438 167.667969 L 184.320313 169.011719 Z M 156.941406 175.875 L 156.652344 176.230469 L 155.261719 177.449219 L 153.5625 178.167969 L 151.71875 178.320313 L 149.921875 177.886719 L 148.355469 176.910156 L 147.167969 175.492188 L 146.488281 173.773438 L 146.382813 171.929688 L 146.863281 170.144531 L 148.066406 167.457031 L 148.832031 166.203125 L 150.671875 163.90625 L 151.730469 162.882813 L 154.085938 161.121094 L 155.398438 160.382813 L 155.570313 160.3125 L 155.875 160.457031 L 161.363281 161.917969 L 164.042969 162.292969 L 165.242188 161.992188 L 166.015625 161.605469 L 166.75 160.257813 L 167.339844 160.207031 L 167.558594 160.410156 L 167.507813 160.828125 L 166.417969 162.609375 L 162.722656 166.96875 L 162.175781 167.183594 L 161.726563 166.894531 L 161.859375 165.949219 L 161.53125 165.507813 L 159.984375 165.785156 L 155.320313 167.769531 L 152.441406 170.8125 L 151.949219 171.945313 L 152.140625 172.144531 L 156.390625 168.453125 L 157.75 167.980469 L 160.300781 168.324219 L 161.058594 169.320313 L 157.109375 173.804688 L 156.367188 175.339844 L 156.707031 175.816406 Z M 157.441406 159.558594 L 158 159.335938 L 160.234375 158.914063 L 162.363281 158.9375 L 162.078125 159.632813 L 159.644531 160.289063 Z M 286.679688 439.636719 L 283.058594 438.976563 L 282.164063 437.605469 L 282.484375 436.070313 L 286.839844 437.054688 L 287.960938 438.832031 Z M 236.835938 466.113281 L 235.136719 465.644531 L 236.523438 463.683594 L 237.195313 464.164063 L 237.5 465.839844 Z M 228.117188 474.644531 L 222.296875 470.886719 L 220.207031 471.1875 L 221.476563 469.683594 L 227.316406 466.367188 L 232.550781 467.761719 L 234.171875 469.894531 L 231.242188 473.621094 L 229.960938 474.269531 Z M 134.8125 251.347656 L 132.589844 248.835938 L 130.84375 244.566406 L 130.707031 243.464844 L 131.460938 242.613281 L 133.71875 244.574219 L 134.707031 246.3125 L 135.339844 249.003906 L 135.222656 250.96875 Z M 134.8125 251.347656 "/>
<path style=" stroke:none;fill-rule:nonzero;fill:rgb(80.392157%,58.431373%,4.705882%);fill-opacity:1;" d="M 191.242188 219.71875 L 190.109375 218.585938 L 189.285156 216.964844 L 189 215.167969 L 189.285156 213.371094 L 190.109375 211.75 L 191.398438 210.464844 L 193.019531 209.636719 L 194.816406 209.355469 L 196.613281 209.636719 L 197.167969 209.921875 L 197.078125 210.023438 L 197.433594 210.839844 L 197.785156 210.703125 L 197.761719 211.238281 L 196.796875 214.386719 L 195.867188 215.914063 Z M 191.242188 219.71875 "/>
<path style=" stroke:none;fill-rule:nonzero;fill:rgb(80.392157%,58.431373%,4.705882%);fill-opacity:1;" d="M 150.996094 289.964844 L 151.339844 289.289063 L 152.628906 288.003906 L 154.25 287.175781 L 156.046875 286.890625 L 157.84375 287.175781 L 159.464844 288.003906 L 160.75 289.289063 L 161.578125 290.910156 L 161.738281 291.917969 L 159.410156 293.515625 L 156.15625 293.3125 L 155.160156 292.984375 Z M 150.996094 289.964844 "/>
<path style=" stroke:none;fill-rule:nonzero;fill:rgb(80.392157%,58.431373%,4.705882%);fill-opacity:1;" d="M 130.847656 219.046875 L 130.773438 219.515625 L 127.28125 218.265625 L 127.882813 216.460938 L 128.195313 216.742188 L 128.945313 216.671875 L 129.90625 215.964844 L 130.5625 217.25 Z M 130.632813 220.382813 L 130.5625 220.84375 L 129.734375 222.464844 L 128.449219 223.75 L 126.828125 224.578125 L 125.03125 224.863281 L 123.234375 224.578125 L 122.90625 224.410156 L 124.160156 221.96875 L 126.660156 220.210938 L 128.792969 220.179688 L 129.328125 220.484375 Z M 120.207031 222.226563 L 119.5 220.84375 L 119.214844 219.046875 L 119.441406 217.617188 L 121.195313 219.144531 L 120.902344 221.207031 Z M 119.992188 216.285156 L 120.324219 215.628906 L 121.613281 214.339844 L 123.234375 213.515625 L 125.03125 213.230469 L 125.515625 213.308594 L 123.476563 215.398438 L 120.675781 217.269531 L 120.230469 216.390625 Z M 127.902344 214.0625 L 128.449219 214.339844 L 129.179688 215.074219 L 128.550781 215.441406 L 127.980469 214.949219 Z M 123.378906 222.417969 L 122.582031 222.078125 L 123.082031 221.191406 L 124.476563 221.046875 Z M 123.378906 222.417969 "/>
<path style=" stroke:none;fill-rule:nonzero;fill:rgb(80.392157%,58.431373%,4.705882%);fill-opacity:1;" d="M 154.175781 292.269531 L 154.390625 290.910156 L 155.21875 289.289063 L 156.503906 288.003906 L 158.125 287.175781 L 159.921875 286.890625 L 161.71875 287.175781 L 163.339844 288.003906 L 164.628906 289.289063 L 164.679688 289.394531 L 163.3125 290.011719 L 161.832031 291.855469 L 159.410156 293.515625 L 156.15625 293.3125 L 155.160156 292.984375 Z M 154.175781 292.269531 "/>
<path style=" stroke:none;fill-rule:nonzero;fill:rgb(80.392157%,58.431373%,4.705882%);fill-opacity:1;" d="M 88.429688 500.046875 L 88.566406 499.308594 L 88.941406 499.117188 L 89.34375 499.789063 Z M 88.429688 500.046875 "/>
<path style=" stroke:none;fill-rule:nonzero;fill:rgb(80.392157%,58.431373%,4.705882%);fill-opacity:1;" d="M 88.429688 500.046875 L 88.566406 499.308594 L 88.941406 499.117188 L 89.34375 499.789063 Z M 88.429688 500.046875 "/>
</g>
</svg>
