<?xml version="1.0" encoding="UTF-8"?>
<svg xmlns="http://www.w3.org/2000/svg" xmlns:xlink="http://www.w3.org/1999/xlink" width="378pt" height="504pt" viewBox="0 0 378 504" version="1.1">
<g id="data">
<rect x="0" y="0" width="378" height="504" style="fill:rgb(100%,100%,100%);fill-opacity:1;stroke:none;"/>
<path style=" stroke:none;fill-rule:nonzero;fill:rgb(100%,100%,100%);fill-opacity:1;" d="M 53.308594 504 L 324.691406 504 L 324.691406 0 L 53.308594 0 Z M 53.308594 504 "/>
<path style=" stroke:none;fill-rule:nonzero;fill:rgb(22.745098%,53.333333%,16.078431%);fill-opacity:1;" d="M 303.371094 378 L 305.074219 380.171875 L 305.503906 380.507813 L 306.730469 384.164063 L 307.179688 391.25 L 306.777344 393.191406 L 306.882813 393.925781 L 305.257813 395.800781 L 303.925781 398.53125 L 303.246094 402.257813 L 303.371094 405.136719 L 301.199219 406.84375 L 299.492188 409.015625 L 296.972656 411.085938 L 295.894531 412.519531 L 295.578125 412.011719 L 292.742188 410.515625 L 292.480469 410.636719 L 293.355469 412.53125 L 291.484375 412.230469 L 287.863281 412.890625 L 285.359375 412.742188 L 282.230469 413.171875 L 278.417969 414.847656 L 275.503906 417.667969 L 273.785156 421.101563 L 273.28125 425.039063 L 274.128906 428.914063 L 276.230469 432.277344 L 272.320313 432.953125 L 268.863281 434.90625 L 266.335938 437.796875 L 264.855469 441.480469 L 264.296875 446.050781 L 264.503906 448.839844 L 265.535156 451.839844 L 267.425781 454.546875 L 264.945313 452.96875 L 262.148438 452.058594 L 259.210938 451.882813 L 256.324219 452.449219 L 254 453.515625 L 251.964844 455.066406 L 250.316406 457.023438 L 249.09375 459.414063 L 245.539063 459.132813 L 242.066406 459.9375 L 239.605469 461.292969 L 237.460938 463.292969 L 231.496094 463.171875 L 231.378906 463.496094 L 232.570313 464.832031 L 232.539063 464.84375 L 231.15625 465.980469 L 227.355469 465.570313 L 227.164063 465.4375 L 224.128906 464.414063 L 221.054688 464.242188 L 218.046875 464.882813 L 215.097656 466.441406 L 212.964844 468.511719 L 210.222656 468.96875 L 208.164063 468.875 L 207.308594 468.089844 L 206.445313 467.167969 L 209.628906 466.910156 L 212.734375 465.734375 L 215.382813 463.726563 L 217.355469 461.054688 L 218.273438 458.808594 L 218.707031 456.429688 L 218.640625 454.011719 L 218.078125 451.660156 L 220.636719 448.660156 L 222.046875 444.976563 L 222.261719 442.308594 L 221.804688 438.898438 L 220.464844 435.21875 L 218.078125 432.277344 L 218.238281 426.273438 L 217.871094 422.347656 L 216.902344 419.425781 L 215.199219 416.863281 L 212.445313 414.558594 L 209 413.175781 L 204.445313 412.730469 L 199.136719 413.210938 L 195.726563 414.652344 L 192.945313 417.09375 L 191.070313 420.285156 L 190.285156 424.011719 L 190.929688 429.578125 L 190.570313 429.988281 L 189.222656 431.449219 L 185.628906 432.957031 L 183.714844 433.246094 L 182.441406 433.0625 L 178.394531 435.230469 L 177.398438 436.808594 L 177.039063 438.671875 L 176.445313 439.273438 L 174.058594 439.917969 L 170.558594 439.851563 L 168.171875 439.308594 L 167.851563 436.773438 L 166.792969 433.878906 L 165.027344 431.351563 L 162.335938 429.175781 L 159.121094 427.890625 L 155.542969 427.617188 L 152.167969 428.398438 L 152.027344 428.21875 L 152.765625 427.832031 L 153.085938 427.097656 L 152.808594 426.597656 L 150.707031 426.539063 L 150.460938 426.230469 L 148.292969 424.523438 L 147.804688 420.472656 L 145.949219 416.839844 L 143.6875 414.582031 L 140.539063 412.890625 L 139.828125 412.226563 L 140.640625 408.269531 L 140.585938 406.636719 L 141.359375 406.660156 L 142.21875 406.390625 L 149.359375 401.828125 L 152.136719 398.207031 L 153.054688 396.195313 L 154.199219 391.746094 L 153.734375 388.820313 L 153.203125 387.785156 L 152.972656 385.742188 L 152.890625 385.519531 L 153.179688 384.597656 L 154.652344 381.796875 L 152.269531 378.203125 L 152.683594 374.835938 L 153.175781 374.082031 L 152.804688 373.207031 L 150.203125 373.105469 L 145.449219 374.257813 L 143.757813 375.484375 L 142.789063 376.960938 L 142.398438 376.886719 L 139.457031 377.078125 L 136.660156 378 L 138.289063 376.226563 L 139.515625 374.15625 L 139.679688 373.527344 L 140.148438 373.019531 L 141.023438 372.414063 L 142.589844 371.953125 L 147.132813 367.984375 L 147.953125 364.523438 L 151.550781 360.582031 L 153.09375 359.609375 L 154.941406 359.808594 L 160.492188 357.457031 L 163.644531 357.28125 L 167.339844 357.714844 L 172.597656 355.179688 L 173.933594 355.046875 L 174.484375 355.082031 L 179.910156 359.441406 L 180.433594 358.429688 L 177.679688 353.460938 L 178.242188 352.835938 L 180.867188 352.449219 L 181.503906 352.695313 L 181.914063 353.875 L 182.898438 354.332031 L 184.078125 356.789063 L 185.613281 357.902344 L 188.359375 357.621094 L 190.335938 355.148438 L 189.90625 355.050781 L 188.667969 355.527344 L 188.3125 355.957031 L 186.378906 356.386719 L 183.8125 354.640625 L 181.121094 348.8125 L 181.996094 347.640625 L 183.105469 344.925781 L 183.5 342.019531 L 183.414063 340.230469 L 185.429688 339.015625 L 185.140625 338.578125 L 183.332031 338.492188 L 183.183594 335.355469 L 185.390625 331.773438 L 185.984375 329.679688 L 186.175781 327.511719 L 186.003906 326.269531 L 187.28125 323.421875 L 187.71875 320.933594 L 187.855469 317.484375 L 184.742188 320.527344 L 183.988281 320.921875 L 182.667969 319.242188 L 180.210938 317.40625 L 183.746094 317.214844 L 187.0625 315.96875 L 190.03125 315.328125 L 192.625 314.011719 L 194.816406 312.09375 L 195.375 314.820313 L 196.496094 317.230469 L 197.964844 319.140625 L 200.671875 321.621094 L 202.652344 322.75 L 204.691406 323.445313 L 209.308594 324.453125 L 212.386719 324.421875 L 216.390625 323.074219 L 219.644531 320.382813 L 221.5 317.308594 L 222.921875 313.730469 L 223.410156 311.210938 L 223.382813 309.027344 L 222.949219 306.886719 L 222.121094 304.867188 L 220.929688 303.035156 L 218.078125 300.460938 L 216.191406 298.117188 L 214.199219 296.585938 L 212.035156 293.980469 L 209.109375 291.757813 L 207.195313 290.707031 L 203.980469 289.832031 L 200.777344 289.886719 L 197.589844 290.863281 L 194.816406 292.707031 L 191.703125 290.082031 L 187.753906 288.667969 L 185.460938 288.523438 L 183.183594 288.832031 L 180.347656 287.660156 L 177.304688 287.273438 L 175.300781 287.539063 L 176.464844 286.417969 L 178.757813 285.980469 L 180.191406 286.804688 L 181.015625 286.710938 L 182.933594 286.238281 L 183.03125 285.160156 L 182.34375 284.746094 L 180.035156 285.351563 L 174.65625 284.980469 L 172.566406 284.292969 L 170.082031 284.085938 L 168.910156 282.351563 L 166.972656 280.386719 L 167.675781 277.199219 L 170.179688 273.808594 L 170.949219 271.769531 L 171.324219 269.625 L 171.289063 267.445313 L 170.8125 265.1875 L 169.898438 263.066406 L 168.582031 261.171875 L 166.300781 259.113281 L 160.675781 255.800781 L 157.585938 254.929688 L 154.375 254.9375 L 150.941406 255.988281 L 147.898438 258.121094 L 145.683594 261.109375 L 144.542969 264.515625 L 144.414063 257.816406 L 146.515625 254.449219 L 147.359375 250.703125 L 147.035156 247.261719 L 145.710938 244.0625 L 144.769531 242.894531 L 146.15625 243.175781 L 148.300781 243.253906 L 143.53125 241.355469 L 142.335938 239.871094 L 140.460938 238.515625 L 139.207031 237.941406 L 139.414063 236.460938 L 140.027344 235.113281 L 141.019531 235.214844 L 144.414063 234.554688 L 146.710938 235.367188 L 148.996094 235.679688 L 151.425781 235.515625 L 153.769531 234.847656 L 155.921875 233.707031 L 157.699219 232.238281 L 159.792969 229.332031 L 160.886719 226.058594 L 160.949219 222.476563 L 159.921875 219.046875 L 161.996094 216.796875 L 163.414063 214.085938 L 164.097656 210.714844 L 163.800781 207.414063 L 165.851563 204.167969 L 166.734375 200.433594 L 166.449219 196.984375 L 165.097656 193.664063 L 162.246094 190.027344 L 159.089844 187.828125 L 155.136719 186.75 L 151.054688 187.113281 L 147.351563 188.871094 L 144.414063 191.90625 L 142.707031 189.738281 L 140.539063 188.03125 L 140.539063 184.152344 L 141.675781 181.441406 L 142.097656 178.402344 L 141.707031 175.359375 L 140.539063 172.523438 L 143.140625 170.359375 L 145.96875 166.441406 L 147.09375 163.441406 L 147.351563 160.121094 L 146.96875 157.84375 L 146.144531 155.683594 L 144.414063 153.136719 L 143.238281 150.726563 L 141.71875 148.824219 L 139.839844 147.285156 L 137.683594 146.167969 L 135.339844 145.523438 L 132.785156 145.382813 L 134.601563 143.953125 L 136.023438 142.296875 L 136.21875 141.953125 L 138.566406 141.597656 L 137.367188 140.554688 L 137.210938 140.113281 L 137.824219 138.339844 L 138.140625 136.179688 L 138.046875 133.996094 L 137.75 132.722656 L 138.066406 131.523438 L 138.496094 132.023438 L 140.910156 133.726563 L 143.550781 134.734375 L 146.484375 135.078125 L 149.28125 134.703125 L 151.910156 133.664063 L 154.210938 132.023438 L 155.480469 130.539063 L 157.023438 130.710938 L 157.792969 130.574219 L 159.128906 131.109375 L 162.308594 131.425781 L 165.089844 130.980469 L 167.675781 129.875 L 171.097656 129.363281 L 173.457031 128.339844 L 173.921875 127.996094 L 177.664063 128.609375 L 178 127.714844 L 177.503906 127.214844 L 177.972656 125.796875 L 183.15625 126.402344 L 182.484375 127.695313 L 181.84375 130.050781 L 181.878906 134.019531 L 183.183594 137.628906 L 179.785156 136.96875 L 176.46875 137.304688 L 173.269531 138.636719 L 170.691406 140.753906 L 169.058594 143.058594 L 167.992188 145.8125 L 167.675781 149.261719 L 167.050781 152.148438 L 167.066406 152.558594 L 162.601563 156.074219 L 162.234375 157.082031 L 162.671875 158.175781 L 162.078125 159.632813 L 159.644531 160.289063 L 156.839844 159.359375 L 153.464844 157.734375 L 154.464844 159.796875 L 155.875 160.457031 L 161.363281 161.917969 L 164.042969 162.292969 L 165.242188 161.992188 L 166.015625 161.605469 L 166.75 160.257813 L 167.589844 160.183594 L 167.507813 160.828125 L 166.417969 162.609375 L 162.722656 166.96875 L 162.175781 167.183594 L 161.726563 166.894531 L 161.859375 165.949219 L 161.53125 165.507813 L 159.984375 165.785156 L 155.320313 167.769531 L 152.441406 170.8125 L 151.949219 171.945313 L 152.140625 172.144531 L 156.390625 168.453125 L 157.75 167.980469 L 160.300781 168.324219 L 161.058594 169.320313 L 157.109375 173.804688 L 156.367188 175.339844 L 156.707031 175.816406 L 157.367188 175.984375 L 158.261719 175.542969 L 161.140625 173.015625 L 167.808594 170.273438 L 170.480469 169.527344 L 170.492188 169.949219 L 171.554688 169.839844 L 173.589844 168.316406 L 174.046875 166.78125 L 178.648438 166.167969 L 179.285156 167.089844 L 180.148438 167.667969 L 184.046875 168.921875 L 184.40625 169.148438 L 186.980469 169.945313 L 189.671875 170.128906 L 192.328125 169.6875 L 194.816406 168.644531 L 197.273438 170.863281 L 200.140625 172.261719 L 203.273438 172.828125 L 206.445313 172.523438 L 205.277344 175.359375 L 204.886719 178.273438 L 205.277344 181.316406 L 206.445313 184.152344 L 206.445313 188.03125 L 205.78125 191.90625 L 206.25 194.644531 L 206.226563 194.742188 L 205.328125 196.359375 L 203.605469 197.246094 L 201.191406 199.527344 L 199.21875 203.242188 L 198.691406 207.414063 L 196.523438 209.121094 L 191.417969 214.761719 L 189.925781 218.304688 L 189.808594 220.074219 L 185.519531 221.085938 L 182.847656 221.226563 L 177.804688 225.21875 L 178.117188 225.714844 L 179.84375 225.195313 L 184.609375 222.886719 L 186.457031 221.386719 L 187.289063 221.316406 L 189.085938 221.875 L 189.332031 222.921875 L 188.898438 224.691406 L 189.238281 225.953125 L 190.898438 226.824219 L 191.234375 226.882813 L 191.28125 226.988281 L 192.84375 229.027344 L 193.851563 229.871094 L 192.117188 231.570313 L 189.460938 232.730469 L 188.34375 232.882813 L 187.070313 232.078125 L 185.40625 232.042969 L 181.046875 235.800781 L 180.578125 237.003906 L 174.761719 240.109375 L 170.214844 238.117188 L 166.480469 238.003906 L 166.738281 239.222656 L 168.246094 240.195313 L 178.0625 241.875 L 182.921875 243.167969 L 186.398438 241.730469 L 187.519531 239.417969 L 188.617188 238.355469 L 189.539063 238.171875 L 193.183594 238.5 L 195.742188 240.269531 L 196.546875 241.65625 L 198.527344 243.671875 L 200.933594 245.148438 L 203.625 246.003906 L 205.511719 246.125 L 206.488281 246.65625 L 208.910156 251.429688 L 212.824219 256.707031 L 213.265625 256.828125 L 213.433594 256.585938 L 213.925781 256.800781 L 213.894531 257.109375 L 214.5 260.367188 L 215.929688 263.214844 L 218.078125 265.570313 L 218.078125 269.445313 L 217.410156 273.324219 L 218.078125 277.199219 L 217.53125 279.425781 L 217.429688 281.714844 L 218.078125 284.953125 L 217.546875 287.054688 L 217.417969 289.214844 L 218.308594 295.007813 L 219.089844 297.453125 L 220.390625 299.667969 L 222.046875 301.460938 L 224.042969 302.863281 L 226.285156 303.824219 L 233.203125 304.996094 L 235.363281 304.867188 L 237.460938 304.339844 L 240.613281 304.339844 L 241.257813 304.640625 L 240.640625 306.945313 L 240.5625 309.640625 L 241.109375 312.28125 L 242.179688 314.617188 L 244.679688 317.539063 L 246.816406 318.960938 L 249.09375 319.847656 L 250.800781 322.015625 L 252.96875 323.722656 L 253.890625 327.398438 L 254.546875 328.546875 L 254.984375 329.992188 L 256.160156 332.453125 L 257.433594 334.234375 L 258.460938 336.507813 L 262.167969 341.128906 L 262.628906 341.503906 L 263.316406 342.46875 L 263.640625 343.980469 L 262.804688 345.191406 L 263.28125 343.65625 L 262.507813 342.839844 L 260.445313 342 L 258.378906 342.789063 L 257.507813 342.753906 L 256.035156 341.773438 L 253.664063 338.65625 L 252.601563 338.082031 L 245.550781 339.511719 L 244.589844 338.644531 L 243.40625 338.558594 L 241.210938 339.871094 L 241.886719 340.445313 L 246.324219 340.394531 L 249.617188 339.34375 L 251.976563 339.082031 L 254.382813 342.558594 L 260.535156 347.621094 L 263.042969 349.058594 L 263.664063 349.039063 L 264.464844 350.109375 L 264.601563 350.863281 L 264.289063 353.90625 L 264.75 356.800781 L 266.117188 359.820313 L 268.476563 362.492188 L 269.3125 364.328125 L 269.210938 365.21875 L 264.953125 369.09375 L 261.394531 373.164063 L 260.601563 374.816406 L 262.84375 374.3125 L 264.9375 375.519531 L 266.9375 378.226563 L 270.21875 378.804688 L 270.625 378.746094 L 271.910156 376.796875 L 272.234375 374.960938 L 273.40625 371.914063 L 274.707031 370.632813 L 276.324219 370.351563 L 278.210938 371.152344 L 280.449219 371.695313 L 284.277344 371.589844 L 286.507813 370.753906 L 286.703125 370.742188 L 292.648438 371.378906 L 293.625 372.59375 L 297.910156 376.113281 L 300.519531 377.402344 Z M 249.09375 393.507813 L 247.9375 391.21875 L 246.214844 389.152344 L 244.175781 387.601563 L 241.722656 386.496094 L 239.207031 385.992188 L 236.644531 386.054688 L 234.039063 386.71875 L 231.761719 387.894531 L 230.066406 389.265625 L 227.933594 391.609375 L 226.75 393.707031 L 226.027344 396.003906 L 225.667969 399.132813 L 225.949219 402.929688 L 226.597656 405.414063 L 227.773438 407.695313 L 229.238281 409.484375 L 231.027344 410.949219 L 233.070313 412.03125 L 235.414063 412.710938 L 239.210938 413.054688 L 242.09375 412.804688 L 244.546875 412.164063 L 246.796875 411.003906 L 248.660156 409.480469 L 250.253906 407.476563 L 251.332031 405.292969 L 251.953125 402.800781 L 252.019531 400.363281 L 251.539063 397.839844 L 250.519531 395.484375 Z M 183.183594 393.507813 L 185.484375 393.410156 L 187.722656 392.859375 L 189.917969 391.816406 L 191.753906 390.421875 L 193.496094 388.382813 L 194.816406 385.753906 L 196.242188 383.777344 L 197.570313 380.171875 L 197.777344 377.871094 L 197.546875 375.699219 L 196.867188 373.492188 L 195.765625 371.460938 L 194.292969 369.691406 L 192.519531 368.257813 L 190.503906 367.191406 L 188.316406 366.542969 L 185.3125 366.207031 L 181.257813 366.417969 L 178.992188 366.894531 L 176.980469 367.75 L 174.871094 369.214844 L 173.132813 371.105469 L 171.851563 373.332031 L 171.089844 375.789063 L 170.925781 378.992188 L 171.785156 384.175781 L 172.464844 386.386719 L 173.566406 388.417969 L 175.425781 390.542969 L 177.746094 392.15625 L 180.382813 393.164063 Z M 229.859375 467.042969 L 229.707031 467.167969 L 229.304688 466.894531 Z M 209.941406 472.828125 L 209.914063 472.679688 L 209.269531 471.023438 L 209.429688 471.089844 L 209.714844 470.9375 L 210.1875 472.128906 Z M 191.269531 431.632813 L 192.253906 434.464844 L 193.4375 436.285156 L 194.945313 437.859375 L 196.714844 439.121094 L 198.691406 440.03125 L 197.078125 441.667969 L 195.820313 443.589844 L 194.964844 445.722656 L 194.542969 447.980469 L 194.816406 451.660156 L 194.1875 454.53125 L 194.28125 457.34375 L 195.199219 460.402344 L 196.832031 462.996094 L 193.308594 463.515625 L 191.140625 464.214844 L 188.9375 465.46875 L 187.0625 467.167969 L 183.507813 466.886719 L 180.152344 467.644531 L 177.574219 469.046875 L 176.882813 469.691406 L 176.207031 469.78125 L 174.339844 470.335938 L 168.992188 473.234375 L 168.214844 474.070313 L 167.203125 476.179688 L 163.601563 486.714844 L 161.28125 488.625 L 160.175781 490.09375 L 159.71875 490.003906 L 158.8125 488.125 L 157.226563 486.117188 L 155.242188 484.507813 L 152.949219 483.367188 L 150.59375 482.773438 L 148.5625 482.636719 L 148.46875 482.535156 L 147.78125 482.585938 L 146.917969 482.527344 L 139 482.691406 L 135.402344 483.554688 L 133.96875 484.445313 L 132.167969 484.859375 L 129.414063 488.195313 L 126.714844 489.746094 L 124.039063 490.597656 L 123.132813 494.289063 L 123.1875 494.394531 L 122.164063 495.832031 L 121.507813 497.359375 L 120.722656 497.628906 L 119.8125 496.460938 L 118.171875 495.023438 L 116.289063 493.914063 L 116.207031 493.882813 L 115.984375 493.691406 L 112.253906 492.070313 L 111.410156 491.984375 L 110.375 492.488281 L 110.34375 492.894531 L 109.765625 492.921875 L 107.640625 493.421875 L 105.644531 494.308594 L 107.816406 492.601563 L 109.523438 490.429688 L 113.429688 489.40625 L 116.753906 487.105469 L 117.375 486.457031 L 118.144531 485.910156 L 121.425781 483.085938 L 124.375 479.769531 L 125.011719 478.339844 L 128.210938 476.902344 L 130.9375 474.398438 L 131.886719 472.675781 L 132.105469 472.640625 L 132.679688 471.785156 L 132.878906 471 L 135.414063 469.726563 L 137.539063 467.886719 L 138.910156 466.039063 L 139.890625 463.953125 L 140.441406 461.714844 L 140.539063 459.414063 L 142.515625 458.503906 L 144.285156 457.242188 L 145.730469 455.441406 L 145.761719 455.429688 L 148.429688 452.488281 L 148.199219 448.945313 L 148.292969 447.785156 L 150.726563 449.671875 L 153.566406 450.855469 L 156.621094 451.25 L 159.671875 450.828125 L 162.503906 449.625 L 164.921875 447.71875 L 166.089844 446.15625 L 167.527344 446.515625 L 169.484375 447.285156 L 170.039063 448.109375 L 170.757813 448.421875 L 173.15625 448.464844 L 180.570313 447.503906 L 181.109375 445.632813 L 181.210938 443.15625 L 182.519531 440.25 L 190.867188 432.195313 Z M 141.539063 358.660156 L 141.878906 358.671875 L 141.734375 358.875 Z M 142.730469 358.710938 L 143.417969 358.738281 L 147.144531 358.058594 L 149.875 356.730469 L 151.167969 355.605469 L 155.546875 356.503906 L 154.066406 358.859375 L 150.984375 360.816406 L 147.425781 363.976563 L 146.109375 363.875 L 144.195313 361.613281 Z M 138.78125 237.746094 L 138.359375 237.554688 L 135.980469 237.015625 L 133.539063 236.984375 L 131.148438 237.464844 L 128.90625 238.429688 L 130.953125 235.199219 L 131.207031 234.121094 L 131.230469 234.078125 L 133.183594 232.453125 L 134.511719 233.554688 L 137.707031 234.878906 L 139.277344 235.039063 Z M 131.472656 232.96875 L 131.851563 231.347656 L 132.589844 231.960938 Z M 179.035156 120.417969 L 179.222656 119.65625 L 179.46875 116.496094 L 179.351563 114.933594 L 181.269531 116.636719 L 182.96875 119.6875 L 182.941406 120.441406 L 180.816406 120.886719 L 179.261719 120.746094 Z M 179.503906 113.394531 L 179.953125 111.136719 L 179.472656 107.117188 L 180.652344 109.527344 L 182.449219 111.691406 L 184.597656 113.296875 L 186.097656 113.949219 L 184.832031 114.03125 L 181.886719 115.097656 Z M 187.0625 118.394531 L 187.0625 122.125 L 186.746094 122.375 L 186.4375 122.070313 L 185.203125 119.125 L 185.941406 118.488281 Z M 233.585938 36.832031 L 233.585938 36.976563 L 233.101563 38.984375 L 230.96875 38.972656 L 230.324219 38.394531 L 230.566406 36.125 L 232.226563 34.761719 L 233.585938 32.953125 Z M 228.011719 54.421875 L 226.625 56.851563 L 226.355469 57.007813 L 225.6875 56.476563 L 226.023438 58.453125 L 226.140625 58.773438 L 225.171875 63.585938 L 225.300781 65.746094 L 225.320313 65.824219 L 225.265625 67.207031 L 224.308594 74.617188 L 223.472656 74.351563 L 222.617188 73.300781 L 222.035156 71.914063 L 222.910156 68.203125 L 223.429688 67.644531 L 224.308594 63.570313 L 223.632813 57.773438 L 222.972656 57.625 L 223.125 57.257813 L 223.511719 54.339844 L 223.125 51.296875 L 221.953125 48.460938 L 221.953125 44.585938 L 223.503906 43.417969 L 223.417969 46.992188 L 223.628906 47.851563 L 228.960938 48.949219 Z M 221.953125 60.144531 L 221.953125 60.09375 L 222.1875 59.527344 L 222.21875 59.898438 Z M 226.011719 40.566406 L 228 39 L 229.597656 36.96875 L 229.761719 37.023438 L 229.984375 39.984375 L 229.175781 46.582031 L 227.496094 47.179688 L 226.742188 47.023438 L 226.078125 45.398438 L 225.789063 41.242188 Z M 132.785156 288.832031 L 132.785156 284.953125 L 133.449219 281.078125 L 133.140625 279.285156 L 133.851563 277.101563 L 134.929688 277 L 137.117188 276.363281 L 139.03125 275.378906 L 140.734375 274.058594 L 141.246094 277.472656 L 142.808594 280.6875 L 145.175781 283.199219 L 148.292969 284.953125 L 146.117188 285.160156 L 143.902344 285.816406 L 141.855469 286.894531 L 140.066406 288.359375 L 139.1875 289.4375 L 138.398438 288.636719 L 137.464844 288.296875 L 135.511719 289.683594 L 134.691406 291.09375 L 134.257813 290.402344 Z M 136.691406 296.257813 L 136.660156 296.585938 L 136.582031 296.140625 Z M 140.769531 322.722656 L 141.199219 319.582031 L 140.570313 316.152344 L 142.300781 315.023438 L 144.765625 310.230469 L 144.871094 310.148438 L 145.71875 312.691406 L 148.292969 315.96875 L 145.71875 317.105469 L 143.585938 318.734375 L 141.882813 320.8125 L 140.925781 322.765625 Z M 127.414063 217.871094 L 128.449219 218.683594 L 127.28125 218.265625 Z M 128.90625 220.242188 L 128.90625 222.921875 L 127.070313 220.777344 L 126.46875 220.34375 L 126.660156 220.210938 L 128.792969 220.179688 Z M 119.617188 217.769531 L 119.214844 217.722656 L 116.410156 218.066406 L 113.773438 219.074219 L 111.359375 220.777344 L 109.964844 222.40625 L 109.863281 222.445313 L 109.476563 222.457031 L 109.292969 220.621094 L 109.070313 219.890625 L 109.386719 219.472656 L 112.601563 217.957031 L 112.90625 216.820313 L 112.554688 216.699219 L 109.90625 217.519531 L 106.363281 215 L 106.117188 214.699219 L 105.109375 213.875 L 105.636719 211.667969 L 108.914063 210.140625 L 110.03125 209.789063 L 110.59375 209.929688 L 111.976563 210.636719 L 113.289063 212.988281 L 113.785156 214.699219 L 116.457031 215.945313 L 117.929688 216.300781 Z M 108.382813 218.007813 L 107.582031 216.488281 L 107.515625 216.410156 L 108.085938 216.507813 L 109.105469 217.519531 L 109.070313 217.820313 Z M 100.132813 211.515625 L 100.066406 211.496094 L 97.890625 211.292969 L 100.0625 209.585938 L 101.316406 207.992188 L 101.351563 207.964844 L 102.617188 207.75 L 102.652344 208.195313 L 101.386719 210.445313 Z M 109.417969 199.898438 L 109.523438 199.660156 L 109.492188 199.953125 Z M 109.644531 205.429688 L 109.671875 205.601563 L 110.839844 208.292969 L 111.222656 208.78125 L 108.898438 208.554688 L 108.144531 207.871094 L 107.96875 206.789063 L 109.109375 205.527344 Z M 113.125 211.054688 L 115.441406 213.21875 L 118.359375 214.78125 L 121.730469 215.46875 L 123.570313 215.300781 L 123.476563 215.398438 L 120.675781 217.269531 L 120.230469 216.390625 L 115.878906 214.433594 L 114.8125 213.664063 L 113.113281 211.414063 Z M 121.152344 242.308594 L 124.0625 241.6875 L 122.648438 243.664063 L 121.679688 245.890625 L 120.558594 252.664063 L 120.574219 255.335938 L 121.152344 257.816406 L 121.152344 261.691406 L 120.625 263.792969 L 120.496094 265.953125 L 120.863281 267.914063 L 120.679688 268.164063 L 119.945313 268.597656 L 117.277344 268.867188 L 117.277344 262.234375 L 117.664063 259 L 117.804688 258.035156 L 117.789063 257.957031 L 117.992188 256.269531 L 120.605469 249.21875 L 120.851563 248.734375 L 121.453125 245.605469 Z M 104.695313 173.148438 L 107.207031 173.082031 L 109.523438 172.523438 L 109.929688 174.765625 L 110.710938 176.773438 L 111.898438 178.660156 L 111.925781 179.164063 L 111.875 179.066406 L 110.277344 177.085938 L 107.472656 174.574219 Z M 113.378906 180.253906 L 113.398438 180.277344 L 113.390625 180.304688 Z M 109.976563 140.929688 L 109.523438 141.507813 L 106.066406 140.84375 L 102.570313 141.246094 L 101.769531 137.628906 L 104.480469 138.765625 L 107.519531 139.1875 L 110.5625 138.800781 L 111.992188 138.210938 L 110.105469 140.078125 Z M 87.5 165.464844 L 88.789063 163.726563 L 90.285156 165.023438 L 89.609375 165.035156 Z M 89.53125 162.292969 L 89.605469 162.117188 L 89.65625 162.238281 Z M 89.53125 162.292969 "/>
</g>
</svg>
