<?xml version="1.0" encoding="UTF-8"?>
<svg xmlns="http://www.w3.org/2000/svg" xmlns:xlink="http://www.w3.org/1999/xlink" width="378pt" height="504pt" viewBox="0 0 378 504" version="1.1">
<g id="data">
<rect x="0" y="0" width="378" height="504" style="fill:rgb(100%,100%,100%);fill-opacity:1;stroke:none;"/>
<path style=" stroke:none;fill-rule:nonzero;fill:rgb(100%,100%,100%);fill-opacity:1;" d="M 53.308594 504 L 324.691406 504 L 324.691406 0 L 53.308594 0 Z M 53.308594 504 "/>
<path style=" stroke:none;fill-rule:nonzero;fill:rgb(22.745098%,53.333333%,16.078431%);fill-opacity:1;" d="M 132.09375 151.160156 L 130.253906 150.621094 L 130.199219 150.582031 L 129.429688 149.296875 L 129.746094 148.554688 L 130.132813 148.371094 L 132.507813 149.96875 L 133.015625 149.894531 L 133.449219 149.351563 L 133.714844 146.386719 L 133.191406 146.265625 L 131.136719 142.199219 L 131.269531 141.472656 L 135.539063 142.054688 L 138.566406 141.597656 L 137.367188 140.554688 L 136.398438 137.808594 L 136.421875 137.722656 L 137.015625 137.8125 L 138.757813 138.738281 L 140.089844 140.195313 L 141.714844 142.726563 L 142.457031 144.441406 L 142.617188 146.304688 L 142.238281 147.878906 L 142.988281 147.546875 L 144.839844 147.375 L 146.648438 147.792969 L 148.234375 148.761719 L 149.988281 150.265625 L 151.375 150.9375 L 155.460938 151.898438 L 157.195313 151.914063 L 158.71875 151.5 L 160.074219 150.6875 L 161.152344 149.535156 L 162.253906 147.417969 L 163.324219 145.964844 L 164.792969 144.910156 L 166.511719 144.355469 L 168.316406 144.355469 L 170.039063 144.910156 L 171.503906 145.964844 L 172.574219 147.417969 L 172.789063 148.054688 L 162.601563 156.074219 L 162.234375 157.082031 L 162.671875 158.175781 L 162.078125 159.632813 L 159.644531 160.289063 L 156.839844 159.359375 L 153.464844 157.734375 L 154.464844 159.796875 L 155.875 160.457031 L 161.363281 161.917969 L 164.042969 162.292969 L 165.242188 161.992188 L 166.015625 161.605469 L 166.75 160.257813 L 167.589844 160.183594 L 167.507813 160.828125 L 166.417969 162.609375 L 162.722656 166.96875 L 162.175781 167.183594 L 161.726563 166.894531 L 161.859375 165.949219 L 161.53125 165.507813 L 159.984375 165.785156 L 155.320313 167.769531 L 152.441406 170.8125 L 151.949219 171.945313 L 152.140625 172.144531 L 156.390625 168.453125 L 157.75 167.980469 L 160.300781 168.324219 L 161.058594 169.320313 L 157.109375 173.804688 L 156.367188 175.339844 L 156.707031 175.816406 L 157.367188 175.984375 L 158.261719 175.542969 L 161.140625 173.015625 L 167.808594 170.273438 L 170.480469 169.527344 L 170.492188 169.949219 L 171.554688 169.839844 L 173.589844 168.316406 L 174.046875 166.78125 L 178.648438 166.167969 L 179.285156 167.089844 L 180.148438 167.667969 L 184.320313 169.011719 L 187.675781 167.128906 L 190.101563 167.519531 L 190.632813 167.933594 L 191.4375 168.695313 L 193.019531 170.503906 L 193.890625 171.125 L 194.867188 171.566406 L 195.921875 171.824219 L 197.011719 171.878906 L 198.085938 171.726563 L 199.117188 171.378906 L 200.066406 170.84375 L 200.894531 170.140625 L 201.859375 168.949219 L 204.117188 168.914063 L 205.648438 167.671875 L 207.910156 167.828125 L 210.3125 168.835938 L 212.175781 172.136719 L 212.242188 172.984375 L 211.808594 174.769531 L 210.964844 176.785156 L 210.753906 178.308594 L 210.945313 179.816406 L 211.394531 180.894531 L 209.382813 183.425781 L 207.15625 188.339844 L 206.664063 191.242188 L 206.84375 191.972656 L 206.226563 194.742188 L 203.9375 198.859375 L 203.765625 200.121094 L 204.023438 201.304688 L 203.625 202.398438 L 202.503906 203.203125 L 201.519531 204.394531 L 201.035156 205.363281 L 200.738281 206.421875 L 200.722656 206.585938 L 199.179688 207.605469 L 197.078125 210.023438 L 197.433594 210.839844 L 197.785156 210.703125 L 197.761719 211.238281 L 196.796875 214.386719 L 195.867188 215.914063 L 191.214844 219.742188 L 185.519531 221.085938 L 182.847656 221.226563 L 177.804688 225.21875 L 178.117188 225.714844 L 179.84375 225.195313 L 184.609375 222.886719 L 186.457031 221.386719 L 187.289063 221.316406 L 189.085938 221.875 L 189.332031 222.921875 L 188.898438 224.691406 L 189.238281 225.953125 L 190.898438 226.824219 L 192.988281 227.191406 L 194.445313 228.726563 L 194.429688 229.304688 L 192.117188 231.570313 L 189.460938 232.730469 L 188.34375 232.882813 L 187.070313 232.078125 L 185.40625 232.042969 L 181.046875 235.800781 L 180.578125 237.003906 L 174.761719 240.109375 L 170.214844 238.117188 L 166.480469 238.003906 L 166.738281 239.222656 L 168.246094 240.195313 L 178.0625 241.875 L 182.921875 243.167969 L 186.398438 241.730469 L 187.519531 239.417969 L 188.617188 238.355469 L 189.539063 238.171875 L 193.183594 238.5 L 199.339844 242.761719 L 206.488281 246.65625 L 208.910156 251.429688 L 212.824219 256.707031 L 213.265625 256.828125 L 213.433594 256.585938 L 214.601563 257.097656 L 217.371094 258.992188 L 218.679688 263.09375 L 218.894531 265.933594 L 218.261719 267.402344 L 220.40625 277.574219 L 221.269531 280.457031 L 221.925781 281.820313 L 221.699219 282.140625 L 221.203125 283.316406 L 220.980469 284.570313 L 221.03125 285.746094 L 221.542969 287.417969 L 222.921875 289.492188 L 223.550781 290.738281 L 223.859375 292.101563 L 224.050781 293.910156 L 224.433594 295.085938 L 224.945313 296.003906 L 225.992188 297.25 L 226.492188 298.0625 L 227.222656 298.078125 L 228.8125 298.347656 L 229.304688 299.0625 L 244.476563 306.140625 L 245.742188 307.636719 L 246.390625 308.863281 L 246.382813 309 L 246.605469 310.257813 L 247.023438 311.253906 L 248.027344 312.480469 L 249.289063 315.722656 L 252.390625 319.148438 L 256.121094 320.875 L 257.207031 321.722656 L 254.738281 323.09375 L 253.890625 324.554688 L 253.765625 325.996094 L 254.984375 329.992188 L 256.160156 332.453125 L 263.316406 342.46875 L 263.640625 343.980469 L 262.804688 345.191406 L 263.28125 343.65625 L 262.507813 342.839844 L 260.445313 342 L 258.378906 342.789063 L 257.507813 342.753906 L 256.035156 341.773438 L 253.664063 338.65625 L 252.601563 338.082031 L 245.550781 339.511719 L 244.589844 338.644531 L 243.40625 338.558594 L 241.210938 339.871094 L 241.886719 340.445313 L 246.324219 340.394531 L 249.617188 339.34375 L 251.976563 339.082031 L 254.382813 342.558594 L 260.535156 347.621094 L 263.042969 349.058594 L 263.664063 349.039063 L 265.644531 351.683594 L 266.242188 352.910156 L 266.53125 354.425781 L 266.632813 356.324219 L 267.011719 357.652344 L 267.585938 358.699219 L 268.292969 359.535156 L 269.136719 360.1875 L 269.535156 362.402344 L 269.210938 365.21875 L 264.953125 369.09375 L 261.394531 373.164063 L 260.601563 374.816406 L 262.84375 374.3125 L 264.9375 375.519531 L 266.9375 378.226563 L 270.21875 378.804688 L 270.625 378.746094 L 271.910156 376.796875 L 272.234375 374.960938 L 273.40625 371.914063 L 274.707031 370.632813 L 277.851563 370.085938 L 283.34375 370.234375 L 284.253906 370.867188 L 286.703125 370.742188 L 293.949219 371.515625 L 296.914063 372.84375 L 304.070313 378.085938 L 305.367188 380.105469 L 306.730469 384.164063 L 307.179688 391.25 L 306.777344 393.191406 L 306.890625 393.976563 L 305.789063 396.917969 L 303.519531 407.832031 L 297.144531 414.53125 L 295.578125 412.011719 L 292.742188 410.515625 L 292.480469 410.636719 L 293.898438 413.703125 L 295.890625 416.628906 L 296.3125 416.765625 L 296.164063 417.742188 L 295.492188 418.613281 L 294.664063 418.628906 L 291.644531 418.128906 L 288.875 418.617188 L 287.453125 418.695313 L 285.710938 418.570313 L 284.277344 418.722656 L 282.488281 419.277344 L 280.945313 420.304688 L 280.269531 421.054688 L 279.671875 422.046875 L 279.277344 423.144531 L 279.121094 424.1875 L 279.171875 425.351563 L 279.453125 426.484375 L 279.898438 427.4375 L 280.929688 428.851563 L 281.730469 430.390625 L 282.042969 432.097656 L 281.988281 432.554688 L 279.644531 432.160156 L 274.75 433.78125 L 272.609375 436.117188 L 274.253906 436.015625 L 275.152344 434.667969 L 276.683594 434.363281 L 278.285156 434.328125 L 281.054688 434.949219 L 281.261719 435.117188 L 281.132813 435.40625 L 280.316406 436.339844 L 279.554688 436.347656 L 277.390625 437.65625 L 277.535156 437.878906 L 276.828125 438.0625 L 274.097656 438.34375 L 272.351563 439.140625 L 271.03125 440.378906 L 269.710938 442.808594 L 268.554688 444.296875 L 266.980469 445.335938 L 265.160156 445.820313 L 263.28125 445.695313 L 261.539063 444.976563 L 260.117188 443.734375 L 258.953125 442.328125 L 258 441.574219 L 256.914063 441.035156 L 255.738281 440.738281 L 254.523438 440.691406 L 253.328125 440.898438 L 252.203125 441.347656 L 251.289063 441.964844 L 249.550781 443.90625 L 248.910156 444.523438 L 246.839844 446.226563 L 243.730469 450.035156 L 243.34375 450.851563 L 243.054688 451.976563 L 242.996094 453.132813 L 243.21875 454.726563 L 243.203125 456.453125 L 242.683594 458.09375 L 241.707031 459.515625 L 240.613281 460.679688 L 239.992188 461.667969 L 239.613281 462.636719 L 239.304688 464.332031 L 239.179688 464.664063 L 237.714844 463.296875 L 231.496094 463.171875 L 231.378906 463.496094 L 232.574219 464.835938 L 232.214844 465.75 L 231.738281 466.042969 L 226.691406 465.496094 L 219.566406 468.449219 L 217.054688 467.824219 L 210.222656 468.96875 L 208.753906 468.902344 L 208.578125 468.472656 L 208.441406 466.660156 L 208.871094 464.894531 L 209.824219 463.347656 L 211.316406 461.609375 L 211.992188 460.195313 L 212.882813 455.726563 L 212.839844 454.714844 L 212.429688 453.050781 L 212.289063 451.109375 L 212.792969 449.234375 L 213.890625 447.625 L 215.203125 446.261719 L 215.898438 445.109375 L 216.308594 443.828125 L 216.417969 442.570313 L 216.078125 439.992188 L 215.734375 438.839844 L 215.074219 437.640625 L 213.746094 436.160156 L 212.644531 434.355469 L 212.261719 432.277344 L 212.261719 428.398438 L 212.351563 427.382813 L 212.855469 424.542969 L 212.589844 422.792969 L 211.621094 420.96875 L 209.992188 419.515625 L 208.851563 418.996094 L 207.429688 418.71875 L 201.746094 418.714844 L 199.941406 419.085938 L 198.734375 419.683594 L 197.808594 420.46875 L 194.46875 425.753906 L 194.414063 425.910156 L 192.90625 427.300781 L 190.570313 429.988281 L 189.222656 431.449219 L 185.628906 432.957031 L 183.714844 433.246094 L 182.441406 433.0625 L 178.394531 435.230469 L 177.398438 436.808594 L 177.039063 438.671875 L 176.445313 439.273438 L 174.058594 439.917969 L 170.558594 439.851563 L 166.820313 439 L 166.347656 438.652344 L 161.371094 433.375 L 159.03125 429.199219 L 155.65625 429.589844 L 149.269531 432.308594 L 149.113281 432.746094 L 147.40625 431.75 L 147.183594 431.46875 L 146.917969 429.308594 L 148.539063 428.378906 L 150.066406 428.890625 L 151.640625 428.421875 L 152.765625 427.832031 L 153.085938 427.097656 L 152.808594 426.597656 L 147.785156 426.460938 L 143.210938 423.710938 L 142.335938 423.710938 L 142.15625 422.195313 L 141.1875 420.304688 L 140.183594 419.300781 L 137.789063 418.015625 L 136.570313 417.144531 L 135.859375 416.480469 L 134.652344 414.882813 L 134.058594 412.96875 L 134.148438 410.96875 L 134.402344 409.824219 L 134.871094 409.289063 L 135.753906 407.632813 L 137.585938 406.550781 L 141.359375 406.660156 L 142.21875 406.390625 L 149.359375 401.828125 L 152.136719 398.207031 L 153.054688 396.195313 L 154.199219 391.746094 L 153.734375 388.820313 L 152.566406 386.542969 L 153.179688 384.597656 L 154.652344 381.796875 L 152.269531 378.203125 L 152.683594 374.835938 L 153.175781 374.082031 L 152.804688 373.207031 L 150.203125 373.105469 L 145.449219 374.257813 L 143.757813 375.484375 L 142.039063 378.097656 L 136.757813 378.433594 L 136.246094 378.0625 L 137.339844 376.066406 L 140.148438 373.019531 L 141.023438 372.414063 L 142.589844 371.953125 L 147.132813 367.984375 L 147.953125 364.523438 L 151.550781 360.582031 L 153.09375 359.609375 L 154.941406 359.808594 L 160.492188 357.457031 L 163.644531 357.28125 L 167.339844 357.714844 L 172.597656 355.179688 L 173.933594 355.046875 L 174.484375 355.082031 L 179.910156 359.441406 L 180.433594 358.429688 L 177.679688 353.460938 L 178.242188 352.835938 L 180.867188 352.449219 L 181.503906 352.695313 L 181.914063 353.875 L 182.898438 354.332031 L 184.078125 356.789063 L 185.613281 357.902344 L 188.359375 357.621094 L 190.335938 355.148438 L 189.90625 355.050781 L 188.667969 355.527344 L 188.3125 355.957031 L 186.378906 356.386719 L 183.8125 354.640625 L 179.976563 346.332031 L 183.371094 340.257813 L 185.429688 339.015625 L 185.140625 338.578125 L 182.683594 338.460938 L 181.554688 337.164063 L 181.355469 336.117188 L 181.601563 331.078125 L 181.949219 330.421875 L 184.695313 329.191406 L 187.28125 323.421875 L 187.71875 320.933594 L 187.855469 317.484375 L 184.742188 320.527344 L 179.199219 323.441406 L 177.78125 322.871094 L 177.171875 322.40625 L 174.429688 317.65625 L 174.394531 317.441406 L 174.652344 315.695313 L 175.421875 314.109375 L 176.628906 312.824219 L 178.167969 311.960938 L 179.894531 311.601563 L 182.539063 311.457031 L 185.015625 310.527344 L 185.832031 310.285156 L 188.070313 309.800781 L 189.34375 309.15625 L 190.980469 307.71875 L 192.652344 306.695313 L 194.570313 306.28125 L 196.519531 306.53125 L 198.269531 307.414063 L 199.628906 308.832031 L 200.441406 310.617188 L 201.207031 313.535156 L 202.582031 315.523438 L 203.703125 316.59375 L 204.695313 317.25 L 205.730469 317.671875 L 207.519531 318.007813 L 209.253906 318.632813 L 210.710938 319.769531 L 211.734375 321.300781 L 212.226563 323.082031 L 212.441406 325.007813 L 212.820313 326.125 L 213.492188 327.246094 L 214.28125 328.082031 L 215.476563 328.875 L 216.875 329.363281 L 218.347656 329.488281 L 219.550781 329.285156 L 221.503906 328.308594 L 222.96875 326.738281 L 223.539063 325.539063 L 223.960938 322.824219 L 224.230469 321.773438 L 225.296875 318.769531 L 225.285156 316.964844 L 224.238281 314.070313 L 223.957031 312.953125 L 223.5625 310.328125 L 223.035156 309.144531 L 221.671875 307.402344 L 221.292969 306.738281 L 220.664063 306.738281 L 217.199219 306.210938 L 215.105469 305.460938 L 213.449219 303.980469 L 212.425781 302.636719 L 210.53125 301.097656 L 209.808594 300.398438 L 207.710938 297.984375 L 205.527344 296.417969 L 203.910156 295.769531 L 202.570313 295.605469 L 201.179688 295.773438 L 199.871094 296.273438 L 198.136719 297.480469 L 196.425781 298.296875 L 194.546875 298.515625 L 192.691406 298.121094 L 191.066406 297.152344 L 188.757813 295.203125 L 186.566406 294.421875 L 185.667969 294.363281 L 183.964844 294.59375 L 182.441406 294.597656 L 180.964844 294.207031 L 178.847656 293.332031 L 177.335938 293.140625 L 175.816406 293.351563 L 173.800781 294.195313 L 172.144531 294.617188 L 171.292969 294.578125 L 174.074219 288.722656 L 176.464844 286.417969 L 178.757813 285.980469 L 180.191406 286.804688 L 181.015625 286.710938 L 182.933594 286.238281 L 183.03125 285.160156 L 182.34375 284.746094 L 180.035156 285.351563 L 174.65625 284.980469 L 172.566406 284.292969 L 169.453125 284.03125 L 168.226563 288.992188 L 166.234375 288.695313 L 165.796875 288.890625 L 165.765625 288.273438 L 165.992188 285.902344 L 165.714844 284.367188 L 164.976563 282.867188 L 163.378906 281.117188 L 162.457031 279.765625 L 161.949219 278.207031 L 161.894531 276.566406 L 162.300781 274.980469 L 163.136719 273.566406 L 164.699219 271.613281 L 165.292969 270.179688 L 165.480469 268.511719 L 165.210938 266.933594 L 164.609375 265.636719 L 163.617188 264.433594 L 162.695313 263.714844 L 158.574219 261.265625 L 157.234375 260.808594 L 155.902344 260.679688 L 154.574219 260.859375 L 153.324219 261.34375 L 152.21875 262.101563 L 151.304688 263.105469 L 150.695313 264.1875 L 150.128906 266.144531 L 149.347656 267.796875 L 148.09375 269.121094 L 146.488281 269.996094 L 144.691406 270.328125 L 142.882813 270.089844 L 141.234375 269.296875 L 139.914063 268.035156 L 139.539063 267.335938 L 140.917969 265.085938 L 143.644531 263.800781 L 144.390625 261.886719 L 144.195313 260.621094 L 142.601563 256.71875 L 139.777344 254.832031 L 139.558594 254.617188 L 139.5625 254.609375 L 140.734375 253.3125 L 142.089844 252.207031 L 142.773438 251.382813 L 143.289063 250.441406 L 143.605469 249.457031 L 143.722656 247.675781 L 143.347656 246.003906 L 142.714844 244.808594 L 141.78125 243.753906 L 139.636719 242.152344 L 139.339844 242.027344 L 140.710938 241.59375 L 142.886719 242.511719 L 146.15625 243.175781 L 148.300781 243.253906 L 141.261719 240.453125 L 140.441406 240.5625 L 139.386719 240.085938 L 139.183594 238.121094 L 139.414063 236.460938 L 140.238281 234.648438 L 139.292969 234.9375 L 138.320313 240.257813 L 137.78125 241.480469 L 136.710938 241.328125 L 135.332031 241.484375 L 134.035156 241.960938 L 132.542969 242.988281 L 131.566406 242.222656 L 130.757813 242.5 L 130.269531 243.347656 L 130.164063 244.054688 L 128.875 244.246094 L 127.796875 244.074219 L 127.46875 243.074219 L 128.453125 238.691406 L 131.230469 234.078125 L 136.953125 229.316406 L 137.566406 228.546875 L 137.921875 228.769531 L 138.933594 229.164063 L 139.96875 229.355469 L 141.199219 229.335938 L 143.082031 228.894531 L 144.636719 228.742188 L 146.175781 229.011719 L 148.457031 229.734375 L 150.054688 229.785156 L 151.519531 229.429688 L 152.753906 228.75 L 154.171875 227.269531 L 154.996094 225.398438 L 155.125 223.46875 L 154.324219 220.621094 L 154.121094 218.628906 L 154.609375 216.683594 L 155.726563 215.019531 L 157.339844 213.835938 L 159.890625 212.574219 L 161.300781 211.132813 L 162.4375 208.769531 L 163.28125 207.488281 L 164.472656 206.109375 L 165.050781 205.0625 L 165.414063 203.824219 L 165.492188 202.699219 L 165.09375 200.765625 L 164.136719 199.109375 L 163.089844 198.121094 L 161.0625 197.039063 L 159.230469 195.503906 L 157.953125 193.878906 L 156.328125 192.601563 L 154.691406 190.570313 L 153.976563 189.101563 L 153.4375 188.371094 L 151.964844 187.171875 L 150.074219 186.46875 L 148.199219 186.429688 L 146.417969 187 L 144.042969 188.792969 L 142.375 189.671875 L 140.507813 189.96875 L 138.648438 189.652344 L 136.984375 188.757813 L 135.695313 187.375 L 134.921875 185.65625 L 134.734375 183.773438 L 135.164063 181.9375 L 136.042969 179.800781 L 136.230469 178.386719 L 136.039063 176.863281 L 135.164063 174.742188 L 134.738281 172.929688 L 134.90625 171.078125 L 135.648438 169.375 L 136.894531 167.992188 L 138.714844 166.527344 L 140.363281 164.410156 L 141.050781 163.199219 L 141.402344 162.074219 L 141.519531 160.714844 L 141.324219 159.394531 L 140.832031 158.15625 L 139.683594 156.507813 L 138.875 154.832031 L 138.636719 152.988281 L 138.992188 151.179688 L 137.996094 151.5625 L 136.128906 151.640625 Z M 256.664063 426.449219 L 258.050781 426.300781 L 259.207031 425.925781 L 260.242188 425.324219 L 261.207031 424.441406 L 261.898438 423.464844 L 262.378906 422.332031 L 262.609375 421.1875 L 262.628906 419.507813 L 262.394531 418.285156 L 261.957031 417.242188 L 261.316406 416.292969 L 260.515625 415.5 L 259.421875 414.789063 L 257.550781 414.019531 L 256.371094 413.761719 L 255.222656 413.746094 L 254.078125 413.957031 L 253.101563 414.34375 L 252.121094 414.972656 L 251.292969 415.769531 L 250.644531 416.714844 L 250.191406 417.773438 L 249.953125 418.910156 L 249.941406 419.949219 L 250.179688 421.21875 L 250.933594 423.113281 L 251.527344 424.101563 L 252.230469 424.886719 L 253.234375 425.640625 L 254.257813 426.121094 L 255.371094 426.394531 Z M 231.640625 397.101563 L 231.632813 397.792969 L 231.503906 399.589844 L 231.699219 401.820313 L 232.582031 404.335938 L 233.109375 405.074219 L 233.949219 405.859375 L 234.925781 406.464844 L 235.824219 406.792969 L 240.058594 407.171875 L 241.683594 406.941406 L 242.917969 406.5 L 243.984375 405.828125 L 244.902344 404.921875 L 245.554688 403.921875 L 246 402.761719 L 246.191406 401.261719 L 246 399.777344 L 245.535156 398.578125 L 244.320313 396.832031 L 243.367188 394.523438 L 243.066406 392.839844 L 242.609375 391.683594 L 241.992188 390.753906 L 241.125 389.890625 L 240.109375 389.234375 L 239.054688 388.832031 L 237.445313 388.625 L 236.015625 388.816406 L 234.675781 389.363281 L 233.410156 390.308594 L 232.507813 391.4375 L 231.917969 392.738281 L 231.535156 394.980469 Z M 177.179688 380.40625 L 177.363281 382.097656 L 177.050781 383.773438 L 176.265625 385.285156 L 175.078125 386.503906 L 173.585938 387.324219 L 171.921875 387.679688 L 170.222656 387.539063 L 168.335938 387.09375 L 167.136719 387.074219 L 165.960938 387.308594 L 164.761719 387.832031 L 163.792969 388.535156 L 162.980469 389.4375 L 162.378906 390.472656 L 162.019531 391.605469 L 161.785156 396.304688 L 162.054688 397.929688 L 162.558594 399.1875 L 163.359375 400.328125 L 164.886719 401.769531 L 165.980469 402.429688 L 167.265625 402.851563 L 168.582031 402.960938 L 169.980469 402.746094 L 171.285156 402.199219 L 172.347656 401.417969 L 173.335938 400.253906 L 175.855469 396.039063 L 176.292969 394.808594 L 176.523438 392.808594 L 177.039063 390.996094 L 178.105469 389.445313 L 179.613281 388.316406 L 181.40625 387.726563 L 183.289063 387.742188 L 186.53125 388.300781 L 188.136719 388.210938 L 189.726563 387.660156 L 191.09375 386.679688 L 192.015625 385.523438 L 192.632813 384.066406 L 193.152344 379.679688 L 193.066406 378.160156 L 192.742188 377.03125 L 192.238281 376.074219 L 188.382813 371.828125 L 187.527344 371.296875 L 186.382813 370.886719 L 185.164063 370.722656 L 184.035156 370.800781 L 182.769531 371.148438 L 179.417969 372.621094 L 178.414063 373.375 L 177.605469 374.320313 L 176.949219 375.59375 L 176.628906 376.960938 L 176.644531 378.363281 Z M 238.964844 465.238281 L 238.566406 466.292969 L 238.5 466.367188 L 238.210938 466.1875 L 238.632813 465.4375 Z M 232.257813 472.328125 L 231.554688 472.683594 L 229.898438 472.980469 L 228.226563 472.792969 L 226.679688 472.132813 L 224 470.5 L 221.964844 470.121094 L 220.949219 470.304688 L 221.476563 469.683594 L 227.316406 466.367188 L 232.550781 467.761719 L 234.171875 469.894531 Z M 193.894531 427.964844 L 193.835938 428.527344 L 194.039063 429.914063 L 194.5625 431.199219 L 195.457031 432.414063 L 196.5 433.28125 L 197.832031 433.917969 L 199.859375 434.332031 L 201.464844 434.917969 L 202.828125 435.945313 L 203.839844 437.324219 L 204.402344 438.9375 L 204.476563 440.644531 L 204.046875 442.296875 L 203.15625 443.757813 L 201.140625 446.171875 L 200.40625 448.261719 L 200.347656 449.175781 L 200.578125 450.882813 L 200.582031 452.40625 L 200.191406 453.878906 L 199.316406 456 L 199.121094 457.523438 L 199.308594 458.9375 L 200.191406 461.074219 L 200.605469 462.75 L 200.507813 464.472656 L 199.910156 466.09375 L 198.863281 467.464844 L 197.460938 468.46875 L 195.824219 469.019531 L 194.25 469.296875 L 193.175781 469.707031 L 192.203125 470.320313 L 191.199219 471.261719 L 190.289063 470.589844 L 185.898438 468.519531 L 183.121094 467.984375 L 181.648438 469.066406 L 181.625 469.070313 L 181.277344 467.769531 L 180.992188 465.019531 L 180.242188 463.351563 L 179.019531 462.019531 L 176.503906 460.632813 L 175.144531 459.597656 L 174.144531 458.21875 L 173.589844 456.605469 L 173.527344 454.902344 L 173.960938 453.25 L 174.855469 451.800781 L 175.90625 450.546875 L 176.4375 449.597656 L 176.78125 448.566406 L 176.859375 447.988281 L 180.570313 447.503906 L 181.109375 445.632813 L 181.210938 443.15625 L 182.519531 440.25 L 190.867188 432.195313 Z M 144.480469 361.949219 L 144.800781 361.675781 L 145.65625 360.652344 L 146.21875 359.585938 L 146.554688 358.410156 L 146.636719 357.300781 L 146.402344 355.484375 L 146.445313 353.71875 L 147.015625 352.046875 L 147.492188 351.394531 L 149.566406 352.007813 L 151.039063 355.578125 L 155.546875 356.503906 L 154.066406 358.859375 L 150.984375 360.816406 L 147.425781 363.976563 L 146.109375 363.875 Z M 132.175781 243.234375 L 130.761719 243.917969 L 130.707031 243.464844 L 131.460938 242.613281 Z M 125.777344 243.292969 L 125.554688 243.183594 L 124.285156 241.960938 L 123.441406 240.414063 L 123.097656 238.6875 L 123.289063 236.933594 L 123.996094 235.320313 L 125.515625 232.921875 L 126.1875 230.03125 L 126.824219 228.425781 L 127.90625 227.074219 L 129.335938 226.105469 L 130.992188 225.597656 L 132.71875 225.597656 L 134.371094 226.109375 L 135.800781 227.082031 L 137 228.191406 L 137.175781 228.300781 L 135.558594 229.292969 L 130.363281 233.964844 L 126.449219 238.917969 L 125.671875 238.734375 L 125.460938 238.363281 Z M 229.363281 45.066406 L 227.675781 44.855469 L 226.105469 44.152344 L 225.984375 44.046875 L 225.789063 41.242188 L 227.246094 36.808594 L 228.363281 36.574219 L 229.761719 37.023438 L 229.984375 39.984375 Z M 225.832031 62.03125 L 226.964844 62.210938 L 226.800781 62.460938 L 226.285156 62.238281 L 225.40625 63.738281 L 225.265625 67.207031 L 224.308594 74.617188 L 223.472656 74.351563 L 221.910156 72.433594 L 222.910156 68.203125 L 223.429688 67.644531 L 224.308594 63.570313 L 224.128906 62.03125 Z M 185.203125 129.546875 L 184.761719 129.773438 L 183.039063 130.074219 L 181.304688 129.851563 L 179.71875 129.121094 L 178.417969 127.953125 L 177.671875 126.703125 L 177.972656 125.796875 L 185.5625 126.683594 Z M 178.148438 111.367188 L 178.613281 110.773438 L 179.886719 109.578125 L 181.457031 108.816406 L 183.183594 108.554688 L 186.328125 108.554688 L 187.324219 111.371094 L 189.425781 112.382813 L 190.734375 113.441406 L 191.546875 114.902344 L 189.996094 116.5625 L 186.777344 113.90625 L 184.832031 114.03125 L 181.886719 115.097656 L 178.421875 112.621094 Z M 147.347656 453.683594 L 149.089844 453.65625 L 150.796875 454.167969 L 152.269531 455.171875 L 153.433594 456.261719 L 154.421875 456.886719 L 155.390625 457.261719 L 157.085938 457.570313 L 158.847656 458.195313 L 160.316406 459.34375 L 161.347656 460.902344 L 161.832031 462.703125 L 161.71875 464.570313 L 161.023438 466.300781 L 159.8125 467.722656 L 158.214844 468.6875 L 156.359375 469.433594 L 155.191406 470.269531 L 154.335938 471.257813 L 153.664063 472.5625 L 153.378906 473.691406 L 153.335938 474.839844 L 154.65625 481.535156 L 154.738281 483.234375 L 154.324219 484.886719 L 153.949219 485.507813 L 153.613281 485.542969 L 152.417969 486.300781 L 151.738281 486.164063 L 148.46875 482.535156 L 142.796875 482.960938 L 141.527344 483.375 L 140.734375 484.175781 L 139.910156 484.507813 L 134.507813 484.320313 L 132.167969 484.859375 L 129.414063 488.195313 L 126.714844 489.746094 L 124.039063 490.597656 L 123.132813 494.289063 L 123.664063 495.292969 L 123.535156 495.929688 L 122.105469 496.167969 L 121.085938 496.246094 L 117.972656 496.210938 L 117.15625 494.691406 L 115.984375 493.691406 L 112.253906 492.070313 L 111.410156 491.984375 L 110.375 492.488281 L 110.242188 494.183594 L 109.421875 495.128906 L 107.929688 495.4375 L 106.996094 494.9375 L 105.722656 493.601563 L 105.515625 493.171875 L 105.628906 491.574219 L 106.074219 490.5625 L 111.738281 488.078125 L 112.199219 488.253906 L 112.445313 488.9375 L 113.574219 489.15625 L 118.144531 485.910156 L 121.425781 483.085938 L 124.375 479.769531 L 125.210938 477.886719 L 124.875 476.421875 L 125.640625 474.519531 L 128.386719 473.238281 L 132.105469 472.640625 L 132.679688 471.785156 L 133.257813 469.527344 L 135.859375 467.5625 L 138.636719 464.640625 L 139.128906 458.542969 L 139.796875 454.753906 L 142.492188 455.105469 L 144.269531 456.015625 L 145.761719 455.429688 Z M 141.523438 321.699219 L 139.714844 321.726563 L 138.238281 321.273438 L 139.816406 316.644531 L 142.300781 315.023438 L 144.765625 310.230469 L 145.863281 309.40625 L 149.046875 308.269531 L 150.203125 313.453125 L 147.847656 318.148438 L 145.3125 320.636719 L 144.476563 321.214844 L 144.414063 321.203125 Z M 135.679688 294.550781 L 134.382813 294.140625 L 133.472656 292.679688 L 130.957031 289.792969 L 130.871094 288.273438 L 131.101563 285.902344 L 130.820313 284.351563 L 130.136719 282.945313 L 129.691406 282.449219 L 129.71875 282.265625 L 132.777344 280.410156 L 134.003906 276.632813 L 137.757813 273.035156 L 138.476563 269.496094 L 138.492188 269.492188 L 140.316406 269.550781 L 142.03125 270.171875 L 143.46875 271.296875 L 144.488281 272.808594 L 144.988281 274.5625 L 145.234375 276.621094 L 145.761719 277.988281 L 146.609375 279.183594 L 148.1875 280.527344 L 149.394531 281.953125 L 150.089844 283.683594 L 150.199219 285.546875 L 149.714844 287.347656 L 149.234375 288.074219 L 149.214844 288.042969 L 149.230469 287.167969 L 148.945313 287.023438 L 148.15625 288.078125 L 147.988281 288.910156 L 148.09375 289.363281 L 147.214844 290.050781 L 145.457031 290.675781 L 143.761719 290.984375 L 142.789063 291.359375 L 142.226563 291.714844 L 141.613281 291.4375 L 140.164063 290.433594 L 138.398438 288.636719 L 137.464844 288.296875 L 135.511719 289.683594 L 134.605469 291.238281 Z M 101.925781 178.226563 L 100.542969 177.222656 L 99.445313 175.648438 L 98.917969 173.804688 L 99.019531 171.886719 L 99.722656 170.152344 L 99.765625 170.078125 L 100.996094 168.660156 L 101.703125 168.253906 L 102.335938 169.03125 L 102.71875 170.644531 L 104.785156 172.40625 L 105.550781 172.625 L 106.867188 171.878906 L 106.617188 168.460938 L 106.238281 167.292969 L 106.4375 167.285156 L 108.15625 166.871094 L 109.894531 166.71875 L 110.449219 166.839844 L 111.609375 168.273438 L 112.355469 170.324219 L 112.300781 173.941406 L 111.832031 177.386719 L 112.050781 181.554688 L 111.039063 182.015625 L 109.15625 182.203125 L 107.3125 181.78125 L 105.703125 180.785156 L 105.097656 180.257813 L 105.464844 179.976563 L 107.179688 181.675781 L 107.667969 181.742188 L 107.789063 181.460938 L 102.875 176.632813 L 101.867188 177.609375 Z M 115.339844 173.207031 L 115.339844 176.398438 L 115.03125 178.265625 L 114.140625 179.933594 L 113.460938 180.574219 L 113.277344 179.863281 L 113.640625 176.351563 L 114.757813 173.765625 Z M 236.835938 466.113281 L 235.136719 465.644531 L 236.523438 463.683594 L 237.195313 464.164063 L 237.5 465.839844 Z M 233.101563 38.984375 L 230.96875 38.972656 L 230.324219 38.394531 L 230.816406 33.792969 L 232.058594 31.609375 L 233.582031 31.753906 L 234.398438 32.242188 L 234.613281 32.71875 Z M 180.816406 120.886719 L 179.261719 120.746094 L 176.429688 116.660156 L 176.75 115.25 L 177.207031 114.695313 L 178.613281 114.28125 L 181.269531 116.636719 L 182.96875 119.6875 L 182.941406 120.441406 Z M 187.335938 122.957031 L 186.4375 122.070313 L 185.203125 119.125 L 185.941406 118.488281 L 188.300781 118.292969 L 188.792969 119.078125 L 187.910156 122.796875 Z M 187.335938 122.957031 "/>
<path style=" stroke:none;fill-rule:nonzero;fill:rgb(80.392157%,58.431373%,4.705882%);fill-opacity:1;" d="M 130.828125 215.292969 L 130.5625 216.964844 L 129.734375 218.585938 L 129.324219 219 L 127.28125 218.265625 L 127.882813 216.460938 L 128.195313 216.742188 L 128.945313 216.671875 Z M 127.824219 220.191406 L 126.828125 220.699219 L 125.710938 220.875 L 126.660156 220.210938 Z M 121.15625 219.417969 L 120.324219 218.585938 L 120.144531 218.230469 L 121.195313 219.144531 Z M 119.347656 215.992188 L 119.214844 215.167969 L 119.5 213.371094 L 120.324219 211.75 L 121.613281 210.464844 L 123.234375 209.636719 L 125.03125 209.355469 L 126.828125 209.636719 L 128.34375 210.410156 L 123.476563 215.398438 L 120.675781 217.269531 L 120.230469 216.390625 Z M 129.296875 211.3125 L 129.734375 211.75 L 130.5625 213.371094 L 130.832031 215.078125 L 129.507813 214.882813 L 128.550781 215.441406 L 127.980469 214.949219 L 127.875 213.785156 Z M 129.296875 211.3125 "/>
<path style=" stroke:none;fill-rule:nonzero;fill:rgb(80.392157%,58.431373%,4.705882%);fill-opacity:1;" d="M 179.257813 141.828125 L 178.480469 141.050781 L 177.652344 139.429688 L 177.371094 137.628906 L 177.652344 135.832031 L 178.480469 134.210938 L 179.765625 132.925781 L 181.386719 132.101563 L 183.183594 131.816406 L 184.882813 132.085938 L 184.539063 134.8125 L 182.976563 138.457031 L 180.960938 141.226563 Z M 179.257813 141.828125 "/>
<path style=" stroke:none;fill-rule:nonzero;fill:rgb(80.392157%,58.431373%,4.705882%);fill-opacity:1;" d="M 112.554688 143.3125 L 111.601563 143.160156 L 109.980469 142.335938 L 108.695313 141.050781 L 107.871094 139.429688 L 107.585938 137.628906 L 107.871094 135.832031 L 108.695313 134.210938 L 109.980469 132.925781 L 111.601563 132.101563 L 113.398438 131.816406 L 113.5625 131.839844 L 114.117188 133.539063 L 112.328125 137.878906 L 110.105469 140.078125 L 109.925781 141.289063 L 111.058594 141.910156 L 112.367188 141.523438 L 113.644531 140.4375 L 114.097656 140.800781 L 113.746094 142.269531 Z M 112.554688 143.3125 "/>
<path style=" stroke:none;fill-rule:nonzero;fill:rgb(80.392157%,58.431373%,4.705882%);fill-opacity:1;" d="M 155.875 486.355469 L 156.503906 485.726563 L 158.125 484.898438 L 159.921875 484.617188 L 161.71875 484.898438 L 163.339844 485.726563 L 163.789063 486.171875 L 162.746094 489.226563 L 160.929688 490.242188 L 158.269531 489.722656 L 157.554688 489.058594 L 156.527344 486.851563 Z M 155.875 486.355469 "/>
<path style=" stroke:none;fill-rule:nonzero;fill:rgb(80.392157%,58.431373%,4.705882%);fill-opacity:1;" d="M 142.476563 129.875 L 142.191406 131.675781 L 141.367188 133.296875 L 140.078125 134.582031 L 138.457031 135.40625 L 136.972656 135.644531 L 138.195313 131.046875 L 140.925781 126.128906 L 141.070313 126.160156 L 141.367188 126.457031 L 142.191406 128.078125 Z M 142.476563 129.875 "/>
<path style=" stroke:none;fill-rule:nonzero;fill:rgb(80.392157%,58.431373%,4.705882%);fill-opacity:1;" d="M 90.976563 166.574219 L 90.136719 166.707031 L 88.339844 166.421875 L 86.71875 165.597656 L 85.796875 164.671875 L 86.457031 164.699219 L 87.222656 163.867188 L 88.554688 163.523438 L 91.023438 165.660156 L 91.214844 166.0625 Z M 91.835938 155.347656 L 91.933594 155.363281 L 92.214844 155.503906 L 91.824219 155.515625 Z M 94.113281 156.746094 L 94.84375 157.472656 L 95.667969 159.09375 L 95.914063 160.648438 L 93.527344 162.226563 L 90.550781 158.175781 L 90.507813 157.148438 L 91.820313 157.980469 Z M 88.238281 162.863281 L 87.917969 162.585938 L 88.445313 161.890625 L 89.367188 161.550781 L 89.65625 162.238281 Z M 88.238281 162.863281 "/>
<path style=" stroke:none;fill-rule:nonzero;fill:rgb(80.392157%,58.431373%,4.705882%);fill-opacity:1;" d="M 126.96875 416.769531 L 126.683594 418.566406 L 125.859375 420.1875 L 125.375 420.671875 L 124.929688 417.953125 L 123.328125 417.210938 L 121.445313 417.105469 L 122.0625 415.152344 L 125.882813 413.402344 L 126.683594 414.972656 Z M 126.96875 416.769531 "/>
<path style=" stroke:none;fill-rule:nonzero;fill:rgb(80.392157%,58.431373%,4.705882%);fill-opacity:1;" d="M 100.316406 244.851563 L 101.308594 245.355469 L 102.597656 246.644531 L 102.902344 247.242188 L 101.464844 249.738281 L 99.988281 251.246094 L 99.089844 251.691406 L 98.539063 251.066406 L 99.023438 248.875 Z M 100.316406 244.851563 "/>
<path style=" stroke:none;fill-rule:nonzero;fill:rgb(80.392157%,58.431373%,4.705882%);fill-opacity:1;" d="M 80.410156 190.308594 L 80.554688 190.378906 L 81.117188 190.9375 L 81.808594 193.710938 L 80.203125 195.140625 L 79.542969 195.171875 L 77.601563 194.722656 L 77.417969 194.15625 Z M 80.410156 190.308594 "/>
<path style=" stroke:none;fill-rule:nonzero;fill:rgb(80.392157%,58.431373%,4.705882%);fill-opacity:1;" d="M 111.527344 205.085938 L 111.320313 205.191406 L 109.523438 205.476563 L 109.445313 205.464844 Z M 105.003906 196.058594 L 106.105469 194.957031 L 107.726563 194.128906 L 108.402344 194.023438 L 108.09375 196.351563 L 107.546875 197.015625 L 106.597656 197.398438 L 105.582031 196.804688 Z M 110.160156 200.433594 L 108.972656 199.578125 L 108.9375 198.890625 L 110.578125 197.179688 L 111.398438 197.769531 L 111.5 198.265625 L 111.128906 199.855469 Z M 110.160156 200.433594 "/>
<path style=" stroke:none;fill-rule:nonzero;fill:rgb(80.392157%,58.431373%,4.705882%);fill-opacity:1;" d="M 126.96875 424.523438 L 126.96875 424.535156 L 122.949219 424.152344 L 121.496094 423.164063 L 124.125 421.78125 L 125.167969 421.753906 L 125.464844 421.238281 L 125.363281 420.609375 L 125.859375 421.105469 L 126.683594 422.726563 Z M 126.96875 424.523438 "/>
</g>
</svg>
